<?xml version="1.0" encoding="UTF-8" standalone="no"?>
<!-- Created with Inkscape (http://www.inkscape.org/) -->

<svg
   xmlns:dc="http://purl.org/dc/elements/1.1/"
   xmlns:cc="http://creativecommons.org/ns#"
   xmlns:rdf="http://www.w3.org/1999/02/22-rdf-syntax-ns#"
   xmlns:svg="http://www.w3.org/2000/svg"
   xmlns="http://www.w3.org/2000/svg"
   xmlns:xlink="http://www.w3.org/1999/xlink"
   xmlns:sodipodi="http://sodipodi.sourceforge.net/DTD/sodipodi-0.dtd"
   xmlns:inkscape="http://www.inkscape.org/namespaces/inkscape"
   id="svg11037"
   height="96"
   width="96"
   version="1.1"
   inkscape:version="0.48.5 r10040"
   sodipodi:docname="application-x-sln.svg">
  <sodipodi:namedview
     pagecolor="#ffffff"
     bordercolor="#666666"
     borderopacity="1"
     objecttolerance="10"
     gridtolerance="10"
     guidetolerance="10"
     inkscape:pageopacity="0"
     inkscape:pageshadow="2"
     inkscape:window-width="640"
     inkscape:window-height="480"
     id="namedview19600"
     showgrid="false"
     inkscape:zoom="3.4766083"
     inkscape:cx="49.787145"
     inkscape:cy="41.923707"
     inkscape:window-x="0"
     inkscape:window-y="25"
     inkscape:window-maximized="0"
     inkscape:current-layer="svg11037" />
  <defs
     id="defs11039">
    <linearGradient
       id="linearGradient11642"
       y2="1046.1"
       gradientUnits="userSpaceOnUse"
       y1="962.62"
       gradientTransform="matrix(1.15,0,0,1.15,-7.1999,-150.65)"
       x2="48"
       x1="48">
      <stop
         id="stop3702"
         style="stop-color:#e6e6e6"
         offset="0" />
      <stop
         id="stop3704"
         style="stop-color:#f5f5f5"
         offset="1" />
    </linearGradient>
    <linearGradient
       id="linearGradient3836"
       y2="14845"
       gradientUnits="userSpaceOnUse"
       x2="2128.6"
       gradientTransform="matrix(-0.25635,0,0,0.25321,593.66,-3728)"
       y1="15027"
       x1="2128.6">
      <stop
         id="stop7991"
         style="stop-color:#42699a"
         offset="0" />
      <stop
         id="stop7989"
         style="stop-color:#99b8e1"
         offset="1" />
    </linearGradient>
    <clipPath
       id="clipPath3939">
      <path
         id="path3941"
         style="opacity:.47186;fill:#0ff;fill-rule:evenodd"
         d="m71.969 20c-4.3137 1.7655-18.155 7.5128-18.5 7.6562-3.8701-3.1502-8.9115-5.5981-14.125-5.875-12.646-0.79267-24.276 10.395-24.312 22.812-0.55518 11.18 4.5627 21.529 9.1875 31.406 3.8691-1.6089 17.958-7.4458 18.312-7.5938 3.7983 3.1637 8.648 5.4784 13.719 5.8438 12.444 1.0407 24.024-9.6555 24.656-21.781 0.90325-11.343-4.3443-21.858-8.75-32-0.064-0.157-0.123-0.31-0.187-0.468zm-34.25 7.3125c9.1497-0.0011 17.201 7.6835 17.625 14.062 0.35572 5.3455-1.4115 12.956-10.156 13.969 0.32372 0.86292 0.76946 1.7701 1.4062 2.6562l-5.094 0.001c-0.41418-0.96344-0.66792-1.9317-0.78125-2.875-4.2232-1.1216-7.9765-5.0988-8-10.625-0.03-7.0513 8.8276-7.7326 11.062-5.9375 0.86811 0.6973 0.83057 2.0616 0.0625 1.8125-4.7718-1.5486-7.7189 1.5261-7.5 4.5625 0.2282 3.1635 1.7295 5.3449 4.4062 6.2812 0.129-1.074 0.355-2.163 0.719-3.217h4.3125c-0.71666 1.2525-1.0774 2.6095-1.1875 3.6875 5.442-0.41916 6.996-5.9693 6.8438-8.3125-0.197-3.0332-2.8401-9.2978-11.094-10.438-3.8972-0.53757-7.1095 0.62637-9.4688 2.9062-2.3592 2.2801-3.7125 4.6637-3.9062 8.5312-0.20042 4.0004 0.69328 6.3453 3.0938 11.594 0.85744 1.8745 3.239 5.6505 5.0938 9.4375l-8.033 3.344c-2.729-6.585-6.357-12.371-6.437-23.125-0.084-11.11 9.473-18.312 17.031-18.313z" />
    </clipPath>
    <clipPath
       id="clipPath3009"
       clipPathUnits="userSpaceOnUse">
      <path
         id="path3011"
         style="opacity:.15;fill:#fff"
         d="m-2 956.36h-96v33.562l96 25.687v-59.25z" />
    </clipPath>
    <linearGradient
       inkscape:collect="always"
       xlink:href="#linearGradient11642"
       id="linearGradient3028"
       gradientUnits="userSpaceOnUse"
       gradientTransform="matrix(1.15,0,0,1.15,-7.1999,-1107.01)"
       x1="48"
       y1="962.62"
       x2="48"
       y2="1046.1" />
    <linearGradient
       inkscape:collect="always"
       xlink:href="#linearGradient3836"
       id="linearGradient3037"
       gradientUnits="userSpaceOnUse"
       gradientTransform="matrix(-0.25635,0,0,0.25321,593.66,-3728)"
       x1="2128.6"
       y1="15027"
       x2="2128.6"
       y2="14845" />
  </defs>
  <metadata
     id="metadata11042">
    <rdf:RDF>
      <cc:Work
         rdf:about="">
        <dc:format>image/svg+xml</dc:format>
        <dc:type
           rdf:resource="http://purl.org/dc/dcmitype/StillImage" />
        <dc:title />
      </cc:Work>
    </rdf:RDF>
  </metadata>
  <rect
     style="opacity:0.98999999;fill:#e6e6e6;fill-opacity:1;stroke:none"
     id="rect2985"
     width="80"
     height="80"
     x="8"
     y="7.99999"
     rx="10.769231"
     ry="10.769231" />
  <path
     id="path3603"
     style="fill:#006680;fill-rule:evenodd;fill-opacity:1"
     d="M 71.964,20 C 67.651,21.766 53.818,27.515 53.473,27.658 49.603,24.508 44.569,22.06 39.356,21.784 26.71,20.991 15.078,32.185 15.041,44.603 14.486,55.782 19.606,66.122 24.23,76 c 3.8691,-1.6089 17.938,-7.4537 18.293,-7.6016 3.7983,3.1637 8.6629,5.4951 13.734,5.8605 12.443,1.041 24.008,-9.674 24.641,-21.8 0.903,-11.343 -4.343,-21.835 -8.749,-31.978 -0.064,-0.158 -0.121,-0.323 -0.185,-0.481 z"
     inkscape:connector-curvature="0" />
  <path
     id="path3607"
     style="fill:#eeeeec;fill-rule:evenodd"
     d="M 27.115,68.755 C 24.386,62.17 20.768,56.368 20.688,45.614 20.60492,34.504 30.1668,27.311 37.724,27.31 c 9.1497,-0.0011 17.2,7.7003 17.624,14.079 0.38309,5.7568 -1.6722,14.129 -12.281,14.067 C 38.0016,55.4267 32.738,51.0346 32.711,44.5 c -0.03,-7.0513 8.8324,-7.7392 11.067,-5.9441 0.86812,0.6973 0.84157,2.0772 0.07355,1.8281 -4.7718,-1.5486 -7.7197,1.5034 -7.5008,4.5398 0.29719,4.1199 2.7495,6.5711 7.1454,6.7795 6.3411,0.30022 8.1163,-5.8466 7.9542,-8.3414 -0.197,-3.0332 -2.8503,-9.2718 -11.104,-10.411 -3.8972,-0.53757 -7.1271,0.6259 -9.4864,2.9058 -2.3592,2.2801 -3.6856,4.6378 -3.8794,8.5054 -0.20042,4.0004 0.67584,6.3476 3.0763,11.596 0.85744,1.8745 3.2525,5.6563 5.1072,9.4432 l -8.0492,3.3537 z"
     inkscape:connector-curvature="0" />
  <path
     id="path3611"
     style="fill:#a9c4e3;fill-rule:evenodd"
     d="m 68.885,27.31 c 2.7291,6.585 6.347,12.387 6.4275,23.141 0.08308,11.11 -9.4788,18.303 -17.036,18.304 -9.1497,0.0015 -17.2,-7.7001 -17.624,-14.078 -0.38308,-5.7574 1.6722,-14.13 12.281,-14.067 5.0654,0.02929 10.329,4.4214 10.356,10.956 0.03,7.0511 -8.8325,7.7394 -11.067,5.9441 -0.8681,-0.6973 -0.8416,-2.0769 -0.07355,-1.8281 4.7718,1.5488 7.7197,-1.5037 7.5008,-4.5399 -0.29718,-4.1199 -2.7495,-6.5706 -7.1454,-6.7791 -6.3411,-0.30022 -8.1163,5.8468 -7.9542,8.3411 0.197,3.0332 2.8503,9.2722 11.104,10.411 3.8972,0.5378 7.1271,-0.62567 9.4863,-2.9055 2.3593,-2.2803 3.6857,-4.638 3.8794,-8.5049 0.20042,-4.0006 -0.67587,-6.3476 -3.0763,-11.596 -0.85742,-1.8751 -3.2525,-5.6561 -5.1072,-9.4435 l 8.0492,-3.3542 z"
     inkscape:connector-curvature="0" />
  <path
     id="path3613"
     style="fill:#eeeeec;fill-rule:evenodd"
     d="m 37.711,27.286 c -7.5573,8.58e-4 -17.104,7.1963 -17.021,18.307 0.08047,10.754 3.7138,16.562 6.4428,23.147 l 8.029,-3.355 c -0.716,-1.464 -1.501,-2.865 -2.259,-4.217 h -1.779 v -3.2108 c -0.43703,-0.78468 -0.81709,-1.4866 -1.0578,-2.0128 -2.4005,-5.2485 -3.2776,-7.597 -3.0772,-11.597 0.19378,-3.8676 1.5353,-6.2023 3.8945,-8.4824 2.3593,-2.2799 5.5747,-3.4609 9.4719,-2.9233 3.9032,0.53898 6.5391,2.228 8.2699,4.1693 h 1.6347 v 2.3961 c 0.74417,1.432 1.1356,2.812 1.202,3.8338 0.07201,1.1084 -0.27873,2.9362 -1.202,4.6006 v 5.7028 c 4.385,-2.767 5.369,-8.177 5.096,-12.268 -0.424,-6.379 -8.496,-14.091 -17.645,-14.09 z"
     inkscape:connector-curvature="0" />
</svg>
