<?xml version="1.0" encoding="UTF-8" standalone="no"?>
<!-- Created with Inkscape (http://www.inkscape.org/) -->

<svg
   xmlns:dc="http://purl.org/dc/elements/1.1/"
   xmlns:cc="http://creativecommons.org/ns#"
   xmlns:rdf="http://www.w3.org/1999/02/22-rdf-syntax-ns#"
   xmlns:svg="http://www.w3.org/2000/svg"
   xmlns="http://www.w3.org/2000/svg"
   xmlns:xlink="http://www.w3.org/1999/xlink"
   xmlns:sodipodi="http://sodipodi.sourceforge.net/DTD/sodipodi-0.dtd"
   xmlns:inkscape="http://www.inkscape.org/namespaces/inkscape"
   id="svg11037"
   height="96"
   width="96"
   version="1.1"
   inkscape:version="0.48.5 r10040"
   sodipodi:docname="application-x-glade.svg">
  <sodipodi:namedview
     pagecolor="#ffffff"
     bordercolor="#666666"
     borderopacity="1"
     objecttolerance="10"
     gridtolerance="10"
     guidetolerance="10"
     inkscape:pageopacity="0"
     inkscape:pageshadow="2"
     inkscape:window-width="1366"
     inkscape:window-height="717"
     id="namedview19767"
     showgrid="false"
     inkscape:zoom="2.4583333"
     inkscape:cx="-18.305085"
     inkscape:cy="47.999999"
     inkscape:window-x="0"
     inkscape:window-y="25"
     inkscape:window-maximized="1"
     inkscape:current-layer="svg11037" />
  <defs
     id="defs11039">
    <linearGradient
       id="linearGradient4045">
      <stop
         style="stop-color:#568ec2;stop-opacity:1;"
         offset="0"
         id="stop4047" />
      <stop
         style="stop-color:#3c72a5;stop-opacity:1;"
         offset="1"
         id="stop4049" />
    </linearGradient>
    <linearGradient
       id="linearGradient3704">
      <stop
         id="stop3706"
         style="stop-color:#fff;stop-opacity:0"
         offset="0" />
      <stop
         id="stop3714"
         style="stop-color:#fff"
         offset=".15" />
      <stop
         id="stop3716"
         style="stop-color:#fff"
         offset=".7" />
      <stop
         id="stop3708"
         style="stop-color:#fff;stop-opacity:0"
         offset="1" />
    </linearGradient>
    <linearGradient
       id="linearGradient4232">
      <stop
         id="stop4234"
         style="stop-color:#fff"
         offset="0" />
      <stop
         id="stop4236"
         style="stop-color:#fff;stop-opacity:0"
         offset="1" />
    </linearGradient>
    <linearGradient
       inkscape:collect="always"
       xlink:href="#linearGradient4045"
       id="linearGradient4102"
       gradientUnits="userSpaceOnUse"
       gradientTransform="translate(94.070594,6.1017039)"
       x1="-90.033897"
       y1="43.932194"
       x2="-10.033897"
       y2="43.932194" />
    <linearGradient
       inkscape:collect="always"
       xlink:href="#linearGradient3704"
       id="linearGradient4104"
       gradientUnits="userSpaceOnUse"
       gradientTransform="matrix(1.3572,0,0,1,-5.572,13)"
       x1="10"
       y1="11.5"
       x2="69"
       y2="11.5" />
    <linearGradient
       inkscape:collect="always"
       xlink:href="#linearGradient3704"
       id="linearGradient4106"
       gradientUnits="userSpaceOnUse"
       gradientTransform="matrix(1.0007,0,0,0.83642,5.9933,-25.119)"
       x1="10"
       y1="11.5"
       x2="69"
       y2="11.5" />
    <linearGradient
       inkscape:collect="always"
       xlink:href="#linearGradient3704"
       id="linearGradient4108"
       gradientUnits="userSpaceOnUse"
       gradientTransform="matrix(0.99976,0,0,0.83079,7.0024,-90.054)"
       x1="10"
       y1="11.5"
       x2="69"
       y2="11.5" />
    <linearGradient
       inkscape:collect="always"
       xlink:href="#linearGradient3704"
       id="linearGradient4110"
       gradientUnits="userSpaceOnUse"
       gradientTransform="matrix(1.1017,0,0,1,-96.017,-86)"
       x1="10"
       y1="11.5"
       x2="69"
       y2="11.5" />
    <linearGradient
       inkscape:collect="always"
       xlink:href="#linearGradient3704"
       id="linearGradient4112"
       gradientUnits="userSpaceOnUse"
       gradientTransform="matrix(1.2301,0,0,1,-2.3012,21)"
       x1="10"
       y1="11.5"
       x2="69"
       y2="11.5" />
    <linearGradient
       inkscape:collect="always"
       xlink:href="#linearGradient4232"
       id="linearGradient4114"
       gradientUnits="userSpaceOnUse"
       x1="38"
       y1="41"
       x2="78"
       y2="41" />
    <linearGradient
       inkscape:collect="always"
       xlink:href="#linearGradient4232"
       id="linearGradient4116"
       gradientUnits="userSpaceOnUse"
       x1="38"
       y1="41"
       x2="78"
       y2="41" />
    <linearGradient
       inkscape:collect="always"
       xlink:href="#linearGradient4232"
       id="linearGradient4118"
       gradientUnits="userSpaceOnUse"
       x1="38"
       y1="41"
       x2="78"
       y2="41" />
    <linearGradient
       inkscape:collect="always"
       xlink:href="#linearGradient4232"
       id="linearGradient4120"
       gradientUnits="userSpaceOnUse"
       x1="38"
       y1="41"
       x2="78"
       y2="41" />
    <linearGradient
       inkscape:collect="always"
       xlink:href="#linearGradient4232"
       id="linearGradient4122"
       gradientUnits="userSpaceOnUse"
       x1="38"
       y1="41"
       x2="78"
       y2="41" />
    <linearGradient
       inkscape:collect="always"
       xlink:href="#linearGradient4232"
       id="linearGradient4124"
       gradientUnits="userSpaceOnUse"
       x1="38"
       y1="41"
       x2="78"
       y2="41" />
    <linearGradient
       inkscape:collect="always"
       xlink:href="#linearGradient4232"
       id="linearGradient4126"
       gradientUnits="userSpaceOnUse"
       x1="38"
       y1="41"
       x2="78"
       y2="41" />
    <linearGradient
       inkscape:collect="always"
       xlink:href="#linearGradient4232"
       id="linearGradient4128"
       gradientUnits="userSpaceOnUse"
       x1="38"
       y1="41"
       x2="89"
       y2="41" />
    <linearGradient
       inkscape:collect="always"
       xlink:href="#linearGradient4232"
       id="linearGradient4130"
       gradientUnits="userSpaceOnUse"
       x1="38"
       y1="41"
       x2="78"
       y2="41" />
    <linearGradient
       inkscape:collect="always"
       xlink:href="#linearGradient4232"
       id="linearGradient4132"
       gradientUnits="userSpaceOnUse"
       x1="38"
       y1="41"
       x2="78"
       y2="41" />
    <linearGradient
       inkscape:collect="always"
       xlink:href="#linearGradient4232"
       id="linearGradient4134"
       gradientUnits="userSpaceOnUse"
       x1="38"
       y1="41"
       x2="78"
       y2="41" />
    <linearGradient
       inkscape:collect="always"
       xlink:href="#linearGradient4232"
       id="linearGradient4136"
       gradientUnits="userSpaceOnUse"
       x1="38"
       y1="41"
       x2="78"
       y2="41" />
    <linearGradient
       inkscape:collect="always"
       xlink:href="#linearGradient4232"
       id="linearGradient4138"
       gradientUnits="userSpaceOnUse"
       x1="36"
       y1="51.314"
       x2="89"
       y2="51" />
    <linearGradient
       inkscape:collect="always"
       xlink:href="#linearGradient4232"
       id="linearGradient4140"
       gradientUnits="userSpaceOnUse"
       x1="36"
       y1="51.314"
       x2="89"
       y2="51" />
    <linearGradient
       inkscape:collect="always"
       xlink:href="#linearGradient4232"
       id="linearGradient4142"
       gradientUnits="userSpaceOnUse"
       x1="36"
       y1="51.314"
       x2="89"
       y2="51" />
    <linearGradient
       inkscape:collect="always"
       xlink:href="#linearGradient4232"
       id="linearGradient4144"
       gradientUnits="userSpaceOnUse"
       x1="36"
       y1="51.314"
       x2="89"
       y2="51" />
    <linearGradient
       inkscape:collect="always"
       xlink:href="#linearGradient4232"
       id="linearGradient4146"
       gradientUnits="userSpaceOnUse"
       x1="36"
       y1="51.314"
       x2="89"
       y2="51" />
    <linearGradient
       inkscape:collect="always"
       xlink:href="#linearGradient4232"
       id="linearGradient4148"
       gradientUnits="userSpaceOnUse"
       x1="36"
       y1="51.314"
       x2="89"
       y2="51" />
    <linearGradient
       inkscape:collect="always"
       xlink:href="#linearGradient4232"
       id="linearGradient4150"
       gradientUnits="userSpaceOnUse"
       x1="36"
       y1="51.314"
       x2="89"
       y2="51" />
    <linearGradient
       inkscape:collect="always"
       xlink:href="#linearGradient4232"
       id="linearGradient4152"
       gradientUnits="userSpaceOnUse"
       x1="36"
       y1="51.314"
       x2="89"
       y2="51" />
    <linearGradient
       inkscape:collect="always"
       xlink:href="#linearGradient4232"
       id="linearGradient4154"
       gradientUnits="userSpaceOnUse"
       x1="36"
       y1="51.314"
       x2="89"
       y2="51" />
    <linearGradient
       inkscape:collect="always"
       xlink:href="#linearGradient4232"
       id="linearGradient4156"
       gradientUnits="userSpaceOnUse"
       x1="36"
       y1="51.314"
       x2="89"
       y2="51" />
    <linearGradient
       inkscape:collect="always"
       xlink:href="#linearGradient4232"
       id="linearGradient4158"
       gradientUnits="userSpaceOnUse"
       x1="36"
       y1="51.314"
       x2="89"
       y2="51" />
    <linearGradient
       inkscape:collect="always"
       xlink:href="#linearGradient4232"
       id="linearGradient4160"
       gradientUnits="userSpaceOnUse"
       x1="36"
       y1="51.314"
       x2="89"
       y2="51" />
    <linearGradient
       inkscape:collect="always"
       xlink:href="#linearGradient4232"
       id="linearGradient4162"
       gradientUnits="userSpaceOnUse"
       x1="36"
       y1="51.314"
       x2="89"
       y2="51" />
  </defs>
  <metadata
     id="metadata11042">
    <rdf:RDF>
      <cc:Work
         rdf:about="">
        <dc:format>image/svg+xml</dc:format>
        <dc:type
           rdf:resource="http://purl.org/dc/dcmitype/StillImage" />
        <dc:title />
      </cc:Work>
    </rdf:RDF>
  </metadata>
  <rect
     style="opacity:0.98999999000000005;fill:#006680;fill-opacity:1;stroke:none"
     id="rect2985"
     width="80"
     height="80"
     x="8"
     y="-88"
     rx="10.769231"
     ry="10.769231"
     transform="matrix(0,1,-1,0,0,0)" />
  <g
     id="layer3"
     transform="matrix(0.99906342,0,0,0.99906342,0.007492,1.9455727)">
    <rect
       id="rect3702"
       style="opacity:0.7;color:#000000;fill:url(#linearGradient4104)"
       height="1"
       width="80.074997"
       y="24"
       x="8" />
    <rect
       id="rect3718"
       style="opacity:0.7;color:#000000;fill:url(#linearGradient4106)"
       transform="matrix(0,1,-1,0,0,0)"
       height="0.83642"
       width="59.040001"
       y="-15.918"
       x="16" />
    <rect
       id="rect3722"
       style="opacity:0.7;color:#000000;fill:url(#linearGradient4108)"
       transform="matrix(0,1,-1,0,0,0)"
       height="0.83078998"
       width="58.986"
       y="-80.915001"
       x="17" />
    <rect
       id="rect3724"
       style="opacity:0.7;color:#000000;fill:url(#linearGradient4110)"
       transform="scale(-1,-1)"
       height="1"
       width="65"
       y="-75"
       x="-85" />
    <rect
       id="rect4202"
       style="opacity:0.5;color:#000000;fill:url(#linearGradient4112)"
       height="1"
       width="72.577003"
       y="32"
       x="10" />
    <path
       id="path4214"
       d="m 76,29 a 2,2 0 1 1 -4,0 2,2 0 1 1 4,0 z"
       style="opacity:0.6;color:#000000;fill:#ffffff"
       transform="translate(2,0)"
       inkscape:connector-curvature="0" />
    <path
       id="path4216"
       d="m 76,29 a 2,2 0 1 1 -4,0 2,2 0 1 1 4,0 z"
       style="opacity:0.4;color:#000000;fill:#ffffff"
       transform="translate(-4,0)"
       inkscape:connector-curvature="0" />
    <path
       id="path4218"
       d="m 76,29 a 2,2 0 1 1 -4,0 2,2 0 1 1 4,0 z"
       style="opacity:0.4;color:#000000;fill:#ffffff"
       transform="translate(-10,0)"
       inkscape:connector-curvature="0" />
    <path
       id="path4220"
       d="m 30,43 a 3,3 0 1 1 -6,0 3,3 0 1 1 6,0 z"
       style="opacity:0.6;color:#000000;fill:none;stroke:#ffffff;stroke-width:1.20000005"
       transform="matrix(0.83333,0,0,0.83333,2.5,5.1667)"
       inkscape:connector-curvature="0" />
    <path
       id="path4222"
       d="m 30,43 a 3,3 0 1 1 -6,0 3,3 0 1 1 6,0 z"
       style="opacity:0.6;color:#000000;fill:none;stroke:#ffffff;stroke-width:1.20000005"
       transform="matrix(0.83333,0,0,0.83333,2.5,15.167)"
       inkscape:connector-curvature="0" />
    <g
       id="text4224"
       style="opacity:0.6;fill:url(#linearGradient4136)">
      <path
         id="path4243"
         style="fill:url(#linearGradient4114)"
         d="m 31.457,43 v -3.9547 h 2.6478 v 0.74756 h -1.7576 v 0.82745 h 1.5636 v 0.74756 h -1.5636 v 1.6321 h -0.89022"
         inkscape:connector-curvature="0" />
      <path
         id="path4245"
         style="fill:url(#linearGradient4116)"
         d="M 35.527,43 H 34.67672 V 39.9983 H 35.527 V 43 m 0.07989,-3.8691 c -2e-6,0.15598 -0.05136,0.27962 -0.15408,0.37093 -0.09891,0.0875 -0.21685,0.13125 -0.35381,0.13125 -0.13696,3e-6 -0.2568,-0.04375 -0.35951,-0.13125 -0.09891,-0.0913 -0.14837,-0.21494 -0.14837,-0.37093 -10e-7,-0.15598 0.04946,-0.27772 0.14837,-0.36522 0.10272,-0.0913 0.22256,-0.13695 0.35951,-0.13696 0.13696,4e-6 0.25489,0.04566 0.35381,0.13696 0.10272,0.08751 0.15408,0.20924 0.15408,0.36522"
         inkscape:connector-curvature="0" />
      <path
         id="path4247"
         style="fill:url(#linearGradient4118)"
         d="m 38.135,40.752 c -0.07609,-0.01902 -0.16549,-0.03804 -0.26821,-0.05707 -0.10272,-0.02282 -0.21305,-0.03424 -0.33098,-0.03424 -0.05326,3e-6 -0.11794,0.0057 -0.19402,0.01712 -0.07229,0.0076 -0.12745,0.01712 -0.16549,0.02853 v 2.294 h -0.85028 v -2.8419 c 0.15217,-0.05326 0.33098,-0.10272 0.53642,-0.14837 0.20924,-0.04945 0.44131,-0.07418 0.6962,-0.07418 0.04565,3e-6 0.10082,0.0038 0.16549,0.01141 0.06467,0.0038 0.12935,0.01142 0.19402,0.02283 0.06467,0.0076 0.12935,0.01902 0.19402,0.03424 0.06467,0.01142 0.11984,0.02663 0.16549,0.04565 L 38.135,40.75193"
         inkscape:connector-curvature="0" />
      <path
         id="path4249"
         style="fill:url(#linearGradient4120)"
         d="m 39.595,42.389 c 0.15598,10e-7 0.2663,-0.01522 0.33098,-0.04565 0.06467,-0.03043 0.09701,-0.0894 0.09701,-0.1769 -10e-7,-0.06848 -0.04185,-0.12745 -0.12554,-0.1769 -0.0837,-0.05326 -0.21114,-0.11223 -0.38234,-0.1769 -0.13315,-0.04946 -0.25489,-0.10082 -0.36522,-0.15408 -0.10652,-0.05326 -0.19783,-0.11603 -0.27392,-0.18832 -0.07609,-0.07609 -0.13506,-0.16549 -0.1769,-0.26821 -0.04185,-0.10272 -0.06277,-0.22636 -0.06277,-0.37093 0,-0.28152 0.10462,-0.50408 0.31386,-0.66767 0.20924,-0.16358 0.49647,-0.24538 0.86169,-0.24538 0.18261,3e-6 0.35761,0.01712 0.525,0.05136 0.16739,0.03044 0.30054,0.06468 0.39946,0.10272 l -0.14837,0.66196 c -0.09892,-0.03424 -0.20734,-0.06467 -0.32528,-0.0913 -0.11413,-0.02663 -0.24348,-0.03994 -0.38805,-0.03995 -0.26631,2e-6 -0.39946,0.07419 -0.39946,0.22256 -10e-7,0.03424 0.0057,0.06468 0.01712,0.0913 0.01141,0.02663 0.03424,0.05326 0.06848,0.07989 0.03424,0.02283 0.07989,0.04946 0.13696,0.07989 0.06087,0.02663 0.13696,0.05707 0.22826,0.0913 0.18641,0.06848 0.34049,0.13696 0.46223,0.20544 0.12174,0.06468 0.21685,0.13696 0.28533,0.21685 0.07228,0.07609 0.12174,0.16169 0.14837,0.2568 0.03043,0.09511 0.04565,0.20544 0.04565,0.33098 -2e-6,0.29674 -0.11223,0.5212 -0.33669,0.67338 -0.22066,0.15218 -0.53452,0.22826 -0.94158,0.22826 -0.26631,0 -0.48886,-0.02283 -0.66767,-0.06848 -0.175,-0.04565 -0.29674,-0.0837 -0.36522,-0.11413 l 0.14266,-0.6905 c 0.14457,0.05707 0.29294,0.10272 0.44511,0.13696 0.15217,0.03044 0.30245,0.04565 0.45082,0.04565"
         inkscape:connector-curvature="0" />
      <path
         id="path4251"
         style="fill:url(#linearGradient4122)"
         d="m 41.469,39.251 0.85028,-0.13696 v 0.88452 h 1.0215 v 0.70762 h -1.0215 v 1.0557 c -10e-7,0.17881 0.03043,0.32147 0.09131,0.42799 0.06467,0.10652 0.19212,0.15978 0.38234,0.15978 0.0913,1e-6 0.18451,-0.0076 0.27962,-0.02283 0.09891,-0.01902 0.18832,-0.04375 0.26821,-0.07418 l 0.11984,0.66196 c -0.10272,0.04185 -0.21685,0.07799 -0.34239,0.10842 -0.12555,0.03043 -0.27962,0.04565 -0.46223,0.04565 -0.23207,0 -0.42419,-0.03044 -0.57636,-0.09131 -0.15218,-0.06468 -0.27392,-0.15218 -0.36522,-0.2625 -0.0913,-0.11413 -0.15598,-0.25109 -0.19402,-0.41087 -0.03424,-0.15978 -0.05136,-0.33669 -0.05136,-0.53071 v -2.5223"
         inkscape:connector-curvature="0" />
      <path
         id="path4253"
         style="fill:url(#linearGradient4124)"
         d="m 48.206,41.493 c -3e-6,0.23587 -0.03424,0.45272 -0.10272,0.65055 -0.06848,0.19402 -0.1674,0.36142 -0.29674,0.50218 -0.12935,0.13696 -0.28533,0.24348 -0.46794,0.31957 -0.17881,0.07609 -0.38044,0.11413 -0.6049,0.11413 -0.22066,0 -0.42229,-0.03804 -0.6049,-0.11413 C 45.94999,42.88921 45.79592,42.78269 45.66657,42.64573 45.53722,42.50497 45.4364,42.33758 45.36412,42.14355 45.29184,41.94572 45.2557,41.72887 45.2557,41.493 c 0,-0.23587 0.03614,-0.45082 0.10842,-0.64484 0.07609,-0.19402 0.1788,-0.35951 0.30815,-0.49647 0.13315,-0.13696 0.28913,-0.24348 0.46794,-0.31957 0.18261,-0.07608 0.38044,-0.11413 0.59348,-0.11413 0.21685,3e-6 0.41468,0.03805 0.59348,0.11413 0.18261,0.07609 0.33859,0.18261 0.46794,0.31957 0.12935,0.13696 0.23016,0.30245 0.30245,0.49647 0.07228,0.19402 0.10842,0.40897 0.10842,0.64484 m -0.8674,0 c -2e-6,-0.2625 -0.05326,-0.46794 -0.15978,-0.61631 -0.10272,-0.15217 -0.25109,-0.22826 -0.44511,-0.22826 -0.19402,2e-6 -0.3443,0.07609 -0.45082,0.22826 -0.10652,0.14837 -0.15978,0.35381 -0.15978,0.61631 -10e-7,0.2625 0.05326,0.47174 0.15978,0.62772 0.10652,0.15218 0.25679,0.22826 0.45082,0.22826 0.19402,1e-6 0.34239,-0.07609 0.44511,-0.22826 0.10652,-0.15598 0.15978,-0.36522 0.15978,-0.62772"
         inkscape:connector-curvature="0" />
      <path
         id="path4255"
         style="fill:url(#linearGradient4126)"
         d="m 50.788,41.522 c -3e-6,-0.2625 -0.05897,-0.47174 -0.1769,-0.62772 -0.11794,-0.15978 -0.29294,-0.23967 -0.525,-0.23968 -0.07609,2e-6 -0.14647,0.0038 -0.21114,0.01141 -0.06468,0.0038 -0.11794,0.0095 -0.15978,0.01712 v 1.5351 c 0.05326,0.03424 0.12174,0.06277 0.20544,0.0856 0.0875,0.02283 0.175,0.03424 0.2625,0.03424 0.40326,10e-7 0.60489,-0.27201 0.6049,-0.81604 m 0.8674,-0.02283 c -3e-6,0.23207 -0.02854,0.44321 -0.0856,0.63343 -0.05707,0.19022 -0.14076,0.35381 -0.25109,0.49076 -0.11033,0.13696 -0.24729,0.24348 -0.41087,0.31957 -0.16359,0.07609 -0.35191,0.11413 -0.56495,0.11413 -0.11794,0 -0.22826,-0.01141 -0.33098,-0.03424 -0.103,-0.023 -0.202,-0.055 -0.297,-0.097 v 1.1299 h -0.85028 v -3.9547 c 0.07609,-0.02282 0.16359,-0.04375 0.2625,-0.06277 0.09891,-0.02282 0.20163,-0.04185 0.30816,-0.05707 0.11033,-0.01521 0.22065,-0.02663 0.33098,-0.03424 0.11413,-0.01141 0.22256,-0.01712 0.32527,-0.01712 0.24728,3e-6 0.46794,0.03805 0.66196,0.11413 0.19402,0.07229 0.35761,0.17691 0.49076,0.31386 0.13315,0.13316 0.23397,0.29674 0.30245,0.49076 0.07228,0.19402 0.10842,0.41088 0.10842,0.65055"
         inkscape:connector-curvature="0" />
      <path
         id="path4257"
         style="fill:url(#linearGradient4128)"
         d="m 52.28,39.251 0.85028,-0.13696 v 0.88452 h 1.0215 v 0.70762 h -1.0215 v 1.0557 c -10e-7,0.17881 0.03043,0.32147 0.09131,0.42799 0.06467,0.10652 0.19212,0.15978 0.38234,0.15978 0.0913,1e-6 0.18451,-0.0076 0.27962,-0.02283 0.09891,-0.01902 0.18832,-0.04375 0.26821,-0.07418 l 0.11984,0.66196 c -0.10272,0.04185 -0.21685,0.07799 -0.34239,0.10842 -0.12555,0.03043 -0.27962,0.04565 -0.46223,0.04565 -0.23207,0 -0.42419,-0.03044 -0.57636,-0.09131 -0.15218,-0.06468 -0.27392,-0.15218 -0.36522,-0.2625 -0.09131,-0.11413 -0.15598,-0.25109 -0.19402,-0.41087 -0.03424,-0.15978 -0.05136,-0.33669 -0.05136,-0.53071 v -2.5223"
         inkscape:connector-curvature="0" />
      <path
         id="path4259"
         style="fill:url(#linearGradient4130)"
         d="M 55.689,43 H 54.83872 V 39.9983 H 55.689 V 43 m 0.07989,-3.8691 c -2e-6,0.15598 -0.05136,0.27962 -0.15408,0.37093 -0.09891,0.0875 -0.21685,0.13125 -0.35381,0.13125 -0.13696,3e-6 -0.2568,-0.04375 -0.35951,-0.13125 -0.09891,-0.0913 -0.14837,-0.21494 -0.14837,-0.37093 -1e-6,-0.15598 0.04946,-0.27772 0.14837,-0.36522 0.10272,-0.0913 0.22256,-0.13695 0.35951,-0.13696 0.13696,4e-6 0.25489,0.04566 0.35381,0.13696 0.10272,0.08751 0.15408,0.20924 0.15408,0.36522"
         inkscape:connector-curvature="0" />
      <path
         id="path4261"
         style="fill:url(#linearGradient4132)"
         d="m 59.296,41.493 c -3e-6,0.23587 -0.03424,0.45272 -0.10272,0.65055 -0.06848,0.19402 -0.1674,0.36142 -0.29674,0.50218 -0.12935,0.13696 -0.28533,0.24348 -0.46794,0.31957 -0.17881,0.07609 -0.38044,0.11413 -0.6049,0.11413 -0.22066,0 -0.42229,-0.03804 -0.6049,-0.11413 -0.17881,-0.07609 -0.33288,-0.18261 -0.46223,-0.31957 -0.12935,-0.14076 -0.23016,-0.30815 -0.30245,-0.50218 -0.07228,-0.19783 -0.10842,-0.41468 -0.10842,-0.65055 0,-0.23587 0.03614,-0.45082 0.10842,-0.64484 0.07609,-0.19402 0.1788,-0.35951 0.30816,-0.49647 0.13315,-0.13696 0.28913,-0.24348 0.46794,-0.31957 0.18261,-0.07608 0.38044,-0.11413 0.59348,-0.11413 0.21685,3e-6 0.41468,0.03805 0.59348,0.11413 0.18261,0.07609 0.33859,0.18261 0.46794,0.31957 0.12935,0.13696 0.23016,0.30245 0.30245,0.49647 0.07228,0.19402 0.10842,0.40897 0.10842,0.64484 m -0.8674,0 c -2e-6,-0.2625 -0.05326,-0.46794 -0.15978,-0.61631 -0.10272,-0.15217 -0.25109,-0.22826 -0.44511,-0.22826 -0.19402,2e-6 -0.3443,0.07609 -0.45082,0.22826 -0.10652,0.14837 -0.15978,0.35381 -0.15978,0.61631 -2e-6,0.2625 0.05326,0.47174 0.15978,0.62772 0.10652,0.15218 0.25679,0.22826 0.45082,0.22826 0.19402,1e-6 0.34239,-0.07609 0.44511,-0.22826 0.10652,-0.15598 0.15978,-0.36522 0.15978,-0.62772"
         inkscape:connector-curvature="0" />
      <path
         id="path4263"
         style="fill:url(#linearGradient4134)"
         d="m 59.955,40.101 c 0.14457,-0.04185 0.33098,-0.07989 0.55924,-0.11413 0.22826,-0.03804 0.46794,-0.05706 0.71903,-0.05707 0.25489,3e-6 0.46603,0.03424 0.63343,0.10272 0.17119,0.06468 0.30625,0.15788 0.40517,0.27962 0.09891,0.12174 0.16929,0.26631 0.21114,0.4337 0.04185,0.16739 0.06277,0.35381 0.06277,0.55924 v 1.6949 H 61.6955 v -1.5921 c -2e-6,-0.27391 -0.03614,-0.46794 -0.10842,-0.58207 -0.07229,-0.11413 -0.20734,-0.1712 -0.40517,-0.1712 -0.06087,2e-6 -0.12555,0.0038 -0.19402,0.01141 -0.06848,0.0038 -0.12935,0.0095 -0.18261,0.01712 v 2.3169 H 59.955 v -2.8989"
         inkscape:connector-curvature="0" />
    </g>
    <g
       id="text4228"
       style="opacity:0.6;fill:url(#linearGradient4162)">
      <path
         id="path4266"
         style="fill:url(#linearGradient4138)"
         d="m 32.535,52.321 c 0.12554,1e-6 0.22826,-0.0095 0.30815,-0.02853 0.08369,-0.02283 0.15027,-0.05136 0.19973,-0.0856 0.04945,-0.03804 0.08369,-0.08179 0.10272,-0.13125 0.01902,-0.04946 0.02853,-0.10462 0.02853,-0.16549 -2e-6,-0.12935 -0.06087,-0.23587 -0.18261,-0.31957 -0.12174,-0.0875 -0.33098,-0.18071 -0.62772,-0.27962 -0.12935,-0.04565 -0.2587,-0.09701 -0.38805,-0.15408 -0.12935,-0.06087 -0.24538,-0.13505 -0.3481,-0.22256 -0.10272,-0.0913 -0.18642,-0.19973 -0.25109,-0.32527 -0.06467,-0.12935 -0.09701,-0.28533 -0.09701,-0.46794 0,-0.18261 0.03424,-0.3462 0.10272,-0.49076 0.06848,-0.14837 0.16549,-0.27391 0.29104,-0.37663 0.12554,-0.10271 0.27772,-0.1807 0.45652,-0.23397 0.1788,-0.05706 0.38044,-0.08559 0.6049,-0.0856 0.2663,5e-6 0.49647,0.02854 0.69049,0.0856 0.19402,0.05707 0.3538,0.11984 0.47935,0.18832 l -0.2568,0.70191 C 33.53744,49.8729 33.4138,49.82344 33.27684,49.78159 33.14368,49.73594 32.982,49.71311 32.79178,49.71311 c -0.21305,3e-6 -0.36712,0.03044 -0.46223,0.0913 -0.09131,0.05707 -0.13696,0.14647 -0.13696,0.26821 -2e-6,0.07229 0.01712,0.13316 0.05136,0.18261 0.03424,0.04946 0.08179,0.09511 0.14266,0.13696 0.06467,0.03805 0.13696,0.07419 0.21685,0.10842 0.08369,0.03044 0.175,0.06278 0.27392,0.09701 0.20543,0.07609 0.38424,0.15218 0.53642,0.22826 0.15217,0.07229 0.27772,0.15788 0.37663,0.2568 0.10272,0.09892 0.1788,0.21495 0.22826,0.3481 0.04945,0.13316 0.07418,0.29484 0.07419,0.48506 -3e-6,0.36903 -0.12935,0.65626 -0.38805,0.86169 -0.2587,0.20163 -0.64865,0.30245 -1.1698,0.30245 -0.175,0 -0.33288,-0.01141 -0.47364,-0.03424 -0.14076,-0.01902 -0.26631,-0.04375 -0.37663,-0.07419 -0.10652,-0.03043 -0.19973,-0.06277 -0.27962,-0.09701 -0.07609,-0.03424 -0.14076,-0.06658 -0.19402,-0.09701 l 0.25109,-0.70762 c 0.11794,0.06468 0.2625,0.12364 0.4337,0.1769 0.175,0.04946 0.38804,0.07419 0.63914,0.07418"
         inkscape:connector-curvature="0" />
      <path
         id="path4268"
         style="fill:url(#linearGradient4140)"
         d="m 34.578,51.522 c 0,-0.2663 0.03995,-0.49837 0.11984,-0.6962 0.0837,-0.20163 0.19212,-0.36902 0.32528,-0.50218 0.13315,-0.13315 0.28533,-0.23397 0.45652,-0.30245 0.175,-0.06848 0.35381,-0.10272 0.53642,-0.10272 0.42609,3e-6 0.76278,0.13125 1.0101,0.39375 0.24728,0.2587 0.37092,0.64104 0.37093,1.147 -3e-6,0.04946 -0.0019,0.10462 -0.0057,0.16549 -0.0038,0.05707 -0.0076,0.10843 -0.01141,0.15408 h -1.9288 c 0.01902,0.175 0.10082,0.31386 0.24538,0.41658 0.14456,0.10272 0.33859,0.15408 0.58207,0.15408 0.15598,1e-6 0.30815,-0.01331 0.45652,-0.03995 0.15217,-0.03043 0.27582,-0.06658 0.37093,-0.10842 l 0.11413,0.69049 c -0.04566,0.02283 -0.10652,0.04565 -0.18261,0.06848 -0.07609,0.02283 -0.16169,0.04185 -0.2568,0.05707 -0.09131,0.01902 -0.19022,0.03424 -0.29674,0.04565 -0.10652,0.01141 -0.21305,0.01712 -0.31957,0.01712 -0.27011,0 -0.50598,-0.03995 -0.70761,-0.11984 -0.19783,-0.07989 -0.36332,-0.18832 -0.49647,-0.32527 -0.12935,-0.14076 -0.22636,-0.30625 -0.29103,-0.49647 -0.06087,-0.19022 -0.09131,-0.39565 -0.09131,-0.61631 m 1.9973,-0.32527 c -0.0038,-0.07228 -0.01712,-0.14266 -0.03995,-0.21114 -0.01902,-0.06848 -0.05136,-0.12935 -0.09701,-0.18261 -0.04185,-0.05326 -0.09701,-0.09701 -0.16549,-0.13125 -0.06468,-0.03424 -0.14647,-0.05136 -0.24538,-0.05136 -0.09511,3e-6 -0.1769,0.01712 -0.24538,0.05136 -0.06848,0.03044 -0.12555,0.07229 -0.1712,0.12554 -0.04565,0.05326 -0.08179,0.11604 -0.10842,0.18832 -0.02283,0.06848 -0.03995,0.13886 -0.05136,0.21114 h 1.1242"
         inkscape:connector-curvature="0" />
      <path
         id="path4270"
         style="fill:url(#linearGradient4142)"
         d="m 37.911,51.499 c 0,-0.21685 0.03424,-0.42038 0.10272,-0.6106 0.07228,-0.19402 0.175,-0.36141 0.30816,-0.50218 0.13315,-0.14456 0.29484,-0.2587 0.48506,-0.34239 0.19022,-0.08369 0.40707,-0.12554 0.65055,-0.12554 0.15978,3e-6 0.30625,0.01522 0.4394,0.04565 0.13315,0.02663 0.2625,0.06658 0.38805,0.11984 l -0.1769,0.67908 c -0.07989,-0.03043 -0.16739,-0.05706 -0.2625,-0.07989 -0.09511,-0.02282 -0.20163,-0.03424 -0.31957,-0.03424 -0.25109,2e-6 -0.43941,0.07799 -0.56495,0.23397 -0.12174,0.15598 -0.18261,0.36142 -0.18261,0.61631 -10e-7,0.27011 0.05707,0.47935 0.1712,0.62772 0.11794,0.14837 0.32147,0.22256 0.6106,0.22256 0.10272,10e-7 0.21304,-0.0095 0.33098,-0.02853 0.11793,-0.01902 0.22636,-0.04946 0.32527,-0.0913 l 0.11984,0.6962 c -0.09892,0.04185 -0.22256,0.07799 -0.37093,0.10842 -0.14837,0.03043 -0.31196,0.04565 -0.49076,0.04565 -0.27392,0 -0.50979,-0.03995 -0.70761,-0.11984 -0.19783,-0.0837 -0.36142,-0.19592 -0.49076,-0.33669 -0.12554,-0.14076 -0.21875,-0.30625 -0.27962,-0.49647 -0.05707,-0.19402 -0.0856,-0.40326 -0.0856,-0.62772"
         inkscape:connector-curvature="0" />
      <path
         id="path4272"
         style="fill:url(#linearGradient4144)"
         d="m 43.569,51.493 c -3e-6,0.23587 -0.03424,0.45272 -0.10272,0.65055 -0.06848,0.19402 -0.1674,0.36142 -0.29674,0.50218 -0.12935,0.13696 -0.28533,0.24348 -0.46794,0.31957 -0.17881,0.07609 -0.38044,0.11413 -0.6049,0.11413 -0.22066,0 -0.42229,-0.03804 -0.6049,-0.11413 -0.17881,-0.07609 -0.33288,-0.18261 -0.46223,-0.31957 -0.12935,-0.14076 -0.23016,-0.30815 -0.30245,-0.50218 -0.07228,-0.19783 -0.10842,-0.41468 -0.10842,-0.65055 -10e-7,-0.23587 0.03614,-0.45082 0.10842,-0.64484 0.07609,-0.19402 0.17881,-0.35951 0.30816,-0.49647 0.13315,-0.13696 0.28913,-0.24348 0.46794,-0.31957 0.18261,-0.07608 0.38044,-0.11413 0.59348,-0.11413 0.21685,3e-6 0.41468,0.03805 0.59348,0.11413 0.18261,0.07609 0.33859,0.18261 0.46794,0.31957 0.12935,0.13696 0.23016,0.30245 0.30245,0.49647 0.07228,0.19402 0.10842,0.40897 0.10842,0.64484 m -0.8674,0 c -2e-6,-0.2625 -0.05326,-0.46794 -0.15978,-0.61631 -0.10272,-0.15217 -0.25109,-0.22826 -0.44511,-0.22826 -0.19402,2e-6 -0.3443,0.07609 -0.45082,0.22826 -0.10652,0.14837 -0.15978,0.35381 -0.15978,0.61631 -10e-7,0.2625 0.05326,0.47174 0.15978,0.62772 0.10652,0.15218 0.25679,0.22826 0.45082,0.22826 0.19402,1e-6 0.34239,-0.07609 0.44511,-0.22826 0.10652,-0.15598 0.15978,-0.36522 0.15978,-0.62772"
         inkscape:connector-curvature="0" />
      <path
         id="path4274"
         style="fill:url(#linearGradient4146)"
         d="m 44.228,50.101 c 0.14457,-0.04185 0.33098,-0.07989 0.55924,-0.11413 0.22826,-0.03804 0.46794,-0.05706 0.71903,-0.05707 0.25489,3e-6 0.46604,0.03424 0.63343,0.10272 0.1712,0.06468 0.30625,0.15788 0.40517,0.27962 0.09891,0.12174 0.16929,0.26631 0.21114,0.4337 0.04185,0.16739 0.06277,0.35381 0.06277,0.55924 v 1.6949 H 45.9685 v -1.5921 c -2e-6,-0.27391 -0.03614,-0.46794 -0.10842,-0.58207 -0.07228,-0.11413 -0.20734,-0.1712 -0.40517,-0.1712 -0.06087,2e-6 -0.12555,0.0038 -0.19402,0.01141 -0.06848,0.0038 -0.12935,0.0095 -0.18261,0.01712 v 2.3169 H 44.228 v -2.8989"
         inkscape:connector-curvature="0" />
      <path
         id="path4276"
         style="fill:url(#linearGradient4148)"
         d="m 48.319,51.476 c -1e-6,0.2625 0.05897,0.47365 0.1769,0.63343 0.11793,0.15978 0.29294,0.23968 0.525,0.23968 0.07609,10e-7 0.14647,-0.0019 0.21114,-0.0057 0.06467,-0.0076 0.11793,-0.01522 0.15978,-0.02283 v -1.5465 c -0.05326,-0.03424 -0.12364,-0.06277 -0.21114,-0.0856 -0.0837,-0.02282 -0.1693,-0.03424 -0.2568,-0.03424 -0.40326,2e-6 -0.6049,0.27392 -0.6049,0.82174 m 1.9231,1.4266 c -0.07609,0.02283 -0.16359,0.04565 -0.2625,0.06848 -0.09892,0.01902 -0.20354,0.03614 -0.31386,0.05136 -0.10652,0.01522 -0.21685,0.02663 -0.33098,0.03424 -0.11033,0.01141 -0.21685,0.01712 -0.31957,0.01712 -0.24729,0 -0.46794,-0.03614 -0.66196,-0.10842 -0.19402,-0.07228 -0.35761,-0.175 -0.49076,-0.30816 -0.13315,-0.13696 -0.23587,-0.30054 -0.30816,-0.49076 -0.06848,-0.19402 -0.10272,-0.41087 -0.10272,-0.65055 0,-0.24348 0.03043,-0.46223 0.0913,-0.65626 0.06087,-0.19782 0.14837,-0.36522 0.2625,-0.50218 0.11413,-0.13696 0.25299,-0.24158 0.41658,-0.31386 0.16739,-0.07228 0.35761,-0.10842 0.57066,-0.10842 0.11793,3e-6 0.22256,0.01142 0.31386,0.03424 0.09511,0.02283 0.19022,0.05517 0.28533,0.09701 v -1.3582 l 0.85028,-0.13696 v 4.3313"
         inkscape:connector-curvature="0" />
      <path
         id="path4278"
         style="fill:url(#linearGradient4150)"
         d="m 55.217,51.493 c -3e-6,0.23587 -0.03424,0.45272 -0.10272,0.65055 -0.06848,0.19402 -0.1674,0.36142 -0.29674,0.50218 -0.12935,0.13696 -0.28533,0.24348 -0.46794,0.31957 -0.17881,0.07609 -0.38044,0.11413 -0.6049,0.11413 -0.22066,0 -0.42229,-0.03804 -0.6049,-0.11413 -0.17881,-0.07609 -0.33288,-0.18261 -0.46223,-0.31957 -0.12935,-0.14076 -0.23016,-0.30815 -0.30245,-0.50218 -0.07228,-0.19783 -0.10842,-0.41468 -0.10842,-0.65055 -10e-7,-0.23587 0.03614,-0.45082 0.10842,-0.64484 0.07609,-0.19402 0.17881,-0.35951 0.30816,-0.49647 0.13315,-0.13696 0.28913,-0.24348 0.46794,-0.31957 0.18261,-0.07608 0.38044,-0.11413 0.59348,-0.11413 0.21685,3e-6 0.41468,0.03805 0.59348,0.11413 0.18261,0.07609 0.33859,0.18261 0.46794,0.31957 0.12935,0.13696 0.23016,0.30245 0.30245,0.49647 0.07228,0.19402 0.10842,0.40897 0.10842,0.64484 m -0.8674,0 c -3e-6,-0.2625 -0.05326,-0.46794 -0.15978,-0.61631 -0.10272,-0.15217 -0.25109,-0.22826 -0.44511,-0.22826 -0.19402,2e-6 -0.3443,0.07609 -0.45082,0.22826 -0.10652,0.14837 -0.15978,0.35381 -0.15978,0.61631 -10e-7,0.2625 0.05326,0.47174 0.15978,0.62772 0.10652,0.15218 0.25679,0.22826 0.45082,0.22826 0.19402,1e-6 0.34239,-0.07609 0.44511,-0.22826 0.10652,-0.15598 0.15978,-0.36522 0.15978,-0.62772"
         inkscape:connector-curvature="0" />
      <path
         id="path4280"
         style="fill:url(#linearGradient4152)"
         d="m 57.798,51.522 c -2e-6,-0.2625 -0.05897,-0.47174 -0.1769,-0.62772 -0.11794,-0.15978 -0.29294,-0.23967 -0.525,-0.23968 -0.07609,2e-6 -0.14647,0.0038 -0.21114,0.01141 -0.06468,0.0038 -0.11794,0.0095 -0.15978,0.01712 v 1.5351 c 0.05326,0.03424 0.12174,0.06277 0.20544,0.0856 0.0875,0.02283 0.175,0.03424 0.2625,0.03424 0.40326,10e-7 0.60489,-0.27201 0.6049,-0.81604 m 0.8674,-0.02283 c -4e-6,0.23207 -0.02854,0.44321 -0.0856,0.63343 -0.05707,0.19022 -0.14076,0.35381 -0.25109,0.49076 -0.11033,0.13696 -0.24729,0.24348 -0.41087,0.31957 -0.16359,0.07609 -0.35191,0.11413 -0.56495,0.11413 -0.11794,0 -0.22826,-0.01141 -0.33098,-0.03424 -0.102,-0.023 -0.201,-0.055 -0.296,-0.097 v 1.1299 h -0.85028 v -3.9547 c 0.07609,-0.02282 0.16359,-0.04375 0.2625,-0.06277 0.09891,-0.02282 0.20163,-0.04185 0.30816,-0.05707 0.11033,-0.01521 0.22065,-0.02663 0.33098,-0.03424 0.11413,-0.01141 0.22255,-0.01712 0.32527,-0.01712 0.24728,3e-6 0.46794,0.03805 0.66196,0.11413 0.19402,0.07229 0.35761,0.17691 0.49076,0.31386 0.13315,0.13316 0.23397,0.29674 0.30245,0.49076 0.07228,0.19402 0.10842,0.41088 0.10842,0.65055"
         inkscape:connector-curvature="0" />
      <path
         id="path4282"
         style="fill:url(#linearGradient4154)"
         d="m 59.291,49.251 0.85028,-0.13696 v 0.88452 h 1.0215 v 0.70762 h -1.0215 v 1.0557 c -1e-6,0.17881 0.03043,0.32147 0.09131,0.42799 0.06467,0.10652 0.19212,0.15978 0.38234,0.15978 0.0913,1e-6 0.18451,-0.0076 0.27962,-0.02283 0.09891,-0.01902 0.18831,-0.04375 0.26821,-0.07418 l 0.11984,0.66196 c -0.10272,0.04185 -0.21685,0.07799 -0.34239,0.10842 -0.12555,0.03043 -0.27962,0.04565 -0.46223,0.04565 -0.23207,0 -0.42419,-0.03044 -0.57636,-0.09131 -0.15218,-0.06468 -0.27392,-0.15218 -0.36522,-0.2625 -0.09131,-0.11413 -0.15598,-0.25109 -0.19402,-0.41087 -0.03424,-0.15978 -0.05136,-0.33669 -0.05136,-0.53071 v -2.5223"
         inkscape:connector-curvature="0" />
      <path
         id="path4284"
         style="fill:url(#linearGradient4156)"
         d="M 62.7,53 H 61.84972 V 49.9983 H 62.7 V 53 m 0.07989,-3.8691 c -2e-6,0.15598 -0.05136,0.27962 -0.15408,0.37093 -0.09892,0.0875 -0.21685,0.13125 -0.35381,0.13125 -0.13696,3e-6 -0.2568,-0.04375 -0.35951,-0.13125 -0.09891,-0.0913 -0.14837,-0.21494 -0.14837,-0.37093 0,-0.15598 0.04946,-0.27772 0.14837,-0.36522 0.10272,-0.0913 0.22256,-0.13695 0.35951,-0.13696 0.13696,4e-6 0.25489,0.04566 0.35381,0.13696 0.10272,0.08751 0.15408,0.20924 0.15408,0.36522"
         inkscape:connector-curvature="0" />
      <path
         id="path4286"
         style="fill:url(#linearGradient4158)"
         d="m 66.307,51.493 c -3e-6,0.23587 -0.03424,0.45272 -0.10272,0.65055 -0.06848,0.19402 -0.1674,0.36142 -0.29674,0.50218 -0.12935,0.13696 -0.28533,0.24348 -0.46794,0.31957 -0.17881,0.07609 -0.38044,0.11413 -0.6049,0.11413 -0.22066,0 -0.42229,-0.03804 -0.6049,-0.11413 C 64.05099,52.88921 63.89692,52.78269 63.76757,52.64573 63.63822,52.50497 63.5374,52.33758 63.46512,52.14355 63.39284,51.94572 63.3567,51.72887 63.3567,51.493 c 0,-0.23587 0.03614,-0.45082 0.10842,-0.64484 0.07609,-0.19402 0.1788,-0.35951 0.30815,-0.49647 0.13315,-0.13696 0.28913,-0.24348 0.46794,-0.31957 0.18261,-0.07608 0.38044,-0.11413 0.59348,-0.11413 0.21685,3e-6 0.41468,0.03805 0.59348,0.11413 0.18261,0.07609 0.33859,0.18261 0.46794,0.31957 0.12934,0.13696 0.23016,0.30245 0.30245,0.49647 0.07228,0.19402 0.10842,0.40897 0.10842,0.64484 m -0.8674,0 c -2e-6,-0.2625 -0.05326,-0.46794 -0.15978,-0.61631 -0.10272,-0.15217 -0.25109,-0.22826 -0.44511,-0.22826 -0.19402,2e-6 -0.3443,0.07609 -0.45082,0.22826 -0.10652,0.14837 -0.15978,0.35381 -0.15978,0.61631 -10e-7,0.2625 0.05326,0.47174 0.15978,0.62772 0.10652,0.15218 0.25679,0.22826 0.45082,0.22826 0.19402,1e-6 0.34239,-0.07609 0.44511,-0.22826 0.10652,-0.15598 0.15978,-0.36522 0.15978,-0.62772"
         inkscape:connector-curvature="0" />
      <path
         id="path4288"
         style="fill:url(#linearGradient4160)"
         d="m 66.965,50.101 c 0.14457,-0.04185 0.33098,-0.07989 0.55924,-0.11413 0.22826,-0.03804 0.46794,-0.05706 0.71903,-0.05707 0.25489,3e-6 0.46603,0.03424 0.63343,0.10272 0.17119,0.06468 0.30625,0.15788 0.40517,0.27962 0.09891,0.12174 0.16929,0.26631 0.21114,0.4337 0.04185,0.16739 0.06277,0.35381 0.06277,0.55924 v 1.6949 H 68.7055 v -1.5921 c -3e-6,-0.27391 -0.03614,-0.46794 -0.10842,-0.58207 -0.07229,-0.11413 -0.20734,-0.1712 -0.40517,-0.1712 -0.06087,2e-6 -0.12555,0.0038 -0.19402,0.01141 -0.06848,0.0038 -0.12935,0.0095 -0.18261,0.01712 v 2.3169 H 66.965 v -2.8989"
         inkscape:connector-curvature="0" />
    </g>
    <rect
       id="rect4294"
       style="opacity:0.5;color:#000000;fill:none;stroke:#ffffff;stroke-linecap:round;stroke-dashoffset:8.6"
       height="5"
       width="17"
       y="61.5"
       x="56.5" />
    <rect
       id="rect4296"
       style="opacity:0.3;color:#000000;fill:none;stroke:#ffffff;stroke-linecap:round;stroke-dashoffset:8.6"
       height="5"
       width="17"
       y="61.5"
       x="34.5" />
  </g>
  <path
     id="rect3679"
     style="opacity:0.1;color:#000000;fill:#ffffff"
     d="M 8,17.047619 V 18 H 88 V 17.047619 H 8 z m 0,15.238095 v 0.952381 H 88 V 32.285714 H 8 z M 8,47.52381 v 0.952381 H 88 V 47.52381 H 8 z m 0,15.238095 v 0.952381 H 88 V 62.761905 H 8 z M 8,78 v 0.952381 H 88 V 78 H 8 z"
     inkscape:connector-curvature="0" />
</svg>
