<?xml version="1.0" encoding="UTF-8" standalone="no"?>
<!-- Created with Inkscape (http://www.inkscape.org/) -->

<svg
   xmlns:dc="http://purl.org/dc/elements/1.1/"
   xmlns:cc="http://creativecommons.org/ns#"
   xmlns:rdf="http://www.w3.org/1999/02/22-rdf-syntax-ns#"
   xmlns:svg="http://www.w3.org/2000/svg"
   xmlns="http://www.w3.org/2000/svg"
   xmlns:xlink="http://www.w3.org/1999/xlink"
   xmlns:sodipodi="http://sodipodi.sourceforge.net/DTD/sodipodi-0.dtd"
   xmlns:inkscape="http://www.inkscape.org/namespaces/inkscape"
   id="svg11037"
   height="96"
   width="96"
   version="1.1"
   inkscape:version="0.48.5 r10040"
   sodipodi:docname="application-x-cd-image.svg">
  <sodipodi:namedview
     pagecolor="#ffffff"
     bordercolor="#666666"
     borderopacity="1"
     objecttolerance="10"
     gridtolerance="10"
     guidetolerance="10"
     inkscape:pageopacity="0"
     inkscape:pageshadow="2"
     inkscape:window-width="1366"
     inkscape:window-height="717"
     id="namedview17533"
     showgrid="false"
     inkscape:zoom="2.4583333"
     inkscape:cx="-2.0338983"
     inkscape:cy="48"
     inkscape:window-x="0"
     inkscape:window-y="25"
     inkscape:window-maximized="1"
     inkscape:current-layer="svg11037" />
  <defs
     id="defs11039">
    <linearGradient
       id="linearGradient11642"
       y2="1046.1"
       gradientUnits="userSpaceOnUse"
       y1="962.62"
       gradientTransform="matrix(1.15,0,0,1.15,-7.1999,-150.65)"
       x2="48"
       x1="48">
      <stop
         id="stop3702"
         style="stop-color:#e6e6e6"
         offset="0" />
      <stop
         id="stop3704"
         style="stop-color:#f5f5f5"
         offset="1" />
    </linearGradient>
    <linearGradient
       id="linearGradient4004"
       y2="61.922"
       gradientUnits="userSpaceOnUse"
       x2="94.568"
       y1="61.922"
       x1="25.22">
      <stop
         id="stop3364"
         style="stop-color:#4d4d4d"
         offset="0" />
      <stop
         id="stop3366"
         style="stop-color:#fff"
         offset="1" />
    </linearGradient>
    <radialGradient
       id="radialGradient4012"
       gradientUnits="userSpaceOnUse"
       cy="61.922"
       cx="59.894"
       gradientTransform="matrix(1,0,0,0.83754,0,10.06)"
       r="33.714">
      <stop
         id="stop3344"
         style="stop-opacity:0"
         offset="0" />
      <stop
         id="stop3350"
         style="stop-opacity:0"
         offset=".85" />
      <stop
         id="stop3346"
         offset="1" />
    </radialGradient>
    <linearGradient
       id="linearGradient4014"
       y2="61.922"
       gradientUnits="userSpaceOnUse"
       x2="93.608"
       y1="61.922"
       x1="26.18">
      <stop
         id="stop3332"
         style="stop-color:#fff;stop-opacity:.20312"
         offset="0" />
      <stop
         id="stop3334"
         style="stop-color:#fff;stop-opacity:.67969"
         offset="1" />
    </linearGradient>
    <clipPath
       id="clipPath4031">
      <path
         id="path4033"
         style="fill:#bbb1bf"
         d="m48 32c-19.882 0-36 16.118-36 36s16.118 36 36 36 36-16.118 36-36-16.118-36-36-36zm0 24c6.6274 0 12 5.3726 12 12s-5.3726 12-12 12-12-5.3726-12-12 5.3726-12 12-12z" />
    </clipPath>
    <filter
       id="filter4035"
       height="1.3414"
       width="1.3807"
       y="-.1707"
       x="-.19037"
       color-interpolation-filters="sRGB">
      <feGaussianBlur
         id="feGaussianBlur4037"
         stdDeviation="4.9476562" />
    </filter>
    <clipPath
       id="clipPath4187">
      <path
         id="path4189"
         style="fill:#bbb1bf"
         d="m48 102c-19.882 0-36 16.118-36 36s16.118 36 36 36 36-16.118 36-36-16.118-36-36-36zm0 24c6.6274 0 12 5.3726 12 12s-5.3726 12-12 12-12-5.3726-12-12 5.3726-12 12-12z" />
    </clipPath>
    <filter
       id="filter4195"
       height="1.36"
       width="1.36"
       y="-.18"
       x="-.18"
       color-interpolation-filters="sRGB">
      <feGaussianBlur
         id="feGaussianBlur4197"
         stdDeviation="5.2159999" />
    </filter>
    <clipPath
       id="clipPath3009"
       clipPathUnits="userSpaceOnUse">
      <path
         id="path3011"
         style="opacity:.15;fill:#fff"
         d="m-2 956.36h-96v33.562l96 25.687v-59.25z" />
    </clipPath>
    <linearGradient
       inkscape:collect="always"
       xlink:href="#linearGradient11642"
       id="linearGradient3068"
       gradientUnits="userSpaceOnUse"
       gradientTransform="matrix(1.15,0,0,1.15,-7.1999,-1107.01)"
       x1="48"
       y1="962.62"
       x2="48"
       y2="1046.1" />
    <linearGradient
       inkscape:collect="always"
       xlink:href="#linearGradient4004"
       id="linearGradient3070"
       gradientUnits="userSpaceOnUse"
       x1="25.22"
       y1="61.922"
       x2="94.568"
       y2="61.922" />
    <radialGradient
       inkscape:collect="always"
       xlink:href="#radialGradient4012"
       id="radialGradient3072"
       gradientUnits="userSpaceOnUse"
       gradientTransform="matrix(1,0,0,0.83754,0,10.06)"
       cx="59.894"
       cy="61.922"
       r="33.714" />
    <linearGradient
       inkscape:collect="always"
       xlink:href="#linearGradient4014"
       id="linearGradient3074"
       gradientUnits="userSpaceOnUse"
       x1="26.18"
       y1="61.922"
       x2="93.608"
       y2="61.922" />
    <radialGradient
       inkscape:collect="always"
       xlink:href="#radialGradient4012"
       id="radialGradient3095"
       gradientUnits="userSpaceOnUse"
       gradientTransform="matrix(0,0.24152,-0.24300386,0,63.047192,33.534)"
       cx="59.894"
       cy="61.922"
       r="33.714" />
    <linearGradient
       inkscape:collect="always"
       xlink:href="#linearGradient4014"
       id="linearGradient3097"
       gradientUnits="userSpaceOnUse"
       x1="26.18"
       y1="61.922"
       x2="93.608"
       y2="61.922"
       gradientTransform="matrix(0,0.24152,-0.29014,0,65.966,33.534)" />
    <linearGradient
       inkscape:collect="always"
       xlink:href="#linearGradient4004"
       id="linearGradient3100"
       gradientUnits="userSpaceOnUse"
       x1="25.22"
       y1="61.922"
       x2="94.568"
       y2="61.922"
       gradientTransform="matrix(0,0.13983,-0.16798,0,58.402,39.625)" />
  </defs>
  <metadata
     id="metadata11042">
    <rdf:RDF>
      <cc:Work
         rdf:about="">
        <dc:format>image/svg+xml</dc:format>
        <dc:type
           rdf:resource="http://purl.org/dc/dcmitype/StillImage" />
        <dc:title />
      </cc:Work>
    </rdf:RDF>
  </metadata>
  <rect
     style="opacity:0.98999999000000005;fill:#1a1a1a;fill-opacity:1;stroke:none"
     id="rect2985-3"
     width="80"
     height="80"
     x="8"
     y="-88"
     rx="10.769231"
     ry="10.769231"
     transform="matrix(0,1,-1,0,0,0)" />
  <path
     id="path3978"
     style="fill:#e6e6e6"
     d="M 48,18.085 C 31.478,18.085 18.085,31.479 18.085,48 18.085,64.522 31.479,77.915 48,77.915 64.522,77.915 77.915,64.521 77.915,48 77.915,31.478 64.522,18.085 48,18.085 z m 0,19.944 c 5.5073,0 9.9718,4.4645 9.9718,9.9718 0,5.5073 -4.4645,9.9718 -9.9718,9.9718 -5.5073,0 -9.9718,-4.4645 -9.9718,-9.9718 0,-5.5073 4.4645,-9.9718 9.9718,-9.9718 z"
     inkscape:connector-curvature="0" />
</svg>
