<?xml version="1.0" encoding="UTF-8" standalone="no"?>
<!-- Created with Inkscape (http://www.inkscape.org/) -->

<svg
   xmlns:dc="http://purl.org/dc/elements/1.1/"
   xmlns:cc="http://creativecommons.org/ns#"
   xmlns:rdf="http://www.w3.org/1999/02/22-rdf-syntax-ns#"
   xmlns:svg="http://www.w3.org/2000/svg"
   xmlns="http://www.w3.org/2000/svg"
   xmlns:xlink="http://www.w3.org/1999/xlink"
   xmlns:sodipodi="http://sodipodi.sourceforge.net/DTD/sodipodi-0.dtd"
   xmlns:inkscape="http://www.inkscape.org/namespaces/inkscape"
   id="svg11037"
   height="96"
   width="96"
   version="1.1"
   inkscape:version="0.48.5 r10040"
   sodipodi:docname="gnome-mime-application-vnd.oasis.opendocument.formula.svg">
  <sodipodi:namedview
     pagecolor="#ffffff"
     bordercolor="#666666"
     borderopacity="1"
     objecttolerance="10"
     gridtolerance="10"
     guidetolerance="10"
     inkscape:pageopacity="0"
     inkscape:pageshadow="2"
     inkscape:window-width="1366"
     inkscape:window-height="714"
     id="namedview8776"
     showgrid="false"
     inkscape:zoom="0.86915209"
     inkscape:cx="-281.66652"
     inkscape:cy="-13.554038"
     inkscape:window-x="0"
     inkscape:window-y="24"
     inkscape:window-maximized="1"
     inkscape:current-layer="svg11037" />
  <defs
     id="defs11039">
    <linearGradient
       id="linearGradient3742">
      <stop
         id="stop3744"
         style="stop-color:#778aa6"
         offset="0" />
      <stop
         id="stop3746"
         style="stop-color:#a0afc5"
         offset="1" />
    </linearGradient>
    <linearGradient
       id="linearGradient11642-75"
       y2="1046.1"
       gradientUnits="userSpaceOnUse"
       y1="962.62"
       gradientTransform="matrix(1.15,0,0,1.15,-7.1999,-150.65)"
       x2="48"
       x1="48">
      <stop
         id="stop3189"
         style="stop-color:#bcb5ac"
         offset="0" />
      <stop
         id="stop3191"
         style="stop-color:#e9e7e4"
         offset="1" />
    </linearGradient>
    <linearGradient
       inkscape:collect="always"
       xlink:href="#linearGradient11642-75"
       id="linearGradient3070"
       gradientUnits="userSpaceOnUse"
       gradientTransform="translate(-0.75124994,-955.88444)"
       x1="53.057766"
       y1="1042.4381"
       x2="50.4524"
       y2="965.4649" />
    <linearGradient
       inkscape:collect="always"
       xlink:href="#linearGradient3742"
       id="linearGradient3153"
       gradientUnits="userSpaceOnUse"
       gradientTransform="matrix(0.9396538,0,0,0.94396732,0.76363731,2.8977719)"
       x1="57.801"
       y1="69.276"
       x2="57.801"
       y2="15.618" />
  </defs>
  <metadata
     id="metadata11042">
    <rdf:RDF>
      <cc:Work
         rdf:about="">
        <dc:format>image/svg+xml</dc:format>
        <dc:type
           rdf:resource="http://purl.org/dc/dcmitype/StillImage" />
        <dc:title />
      </cc:Work>
    </rdf:RDF>
  </metadata>
  <rect
     style="opacity:0.98999999;fill:url(#linearGradient3070);fill-opacity:1;stroke:none"
     id="rect2985"
     width="80"
     height="80"
     x="8.0000067"
     y="8.2547255"
     rx="10.769231"
     ry="10.769231" />
  <path
     inkscape:connector-curvature="0"
     style="color:#000000;fill:#8a9bb4;fill-opacity:1;fill-rule:nonzero;stroke:none;stroke-width:20;marker:none;visibility:visible;display:inline;overflow:visible;enable-background:accumulate"
     d="M 18.781254,8.2547251 C 12.8151,8.2547251 8,13.069821 8,19.035975 l 0,58.4375 c 0,5.966154 4.8151,10.78125 10.781254,10.78125 l 6,0 0,-79.9999999 -6,0 z"
     id="rect17289" />
  <path
     style="opacity:0.3;fill:#000000;fill-opacity:1;stroke:none"
     d="m 8,75.450945 0,2.0133 c 0,5.966 4.793067,10.7905 10.75895,10.7905 l 58.450649,0 c 5.965883,0 10.790405,-4.8245 10.790405,-10.7905 l 0,-2.0133 c 0,5.9659 -4.824522,10.7904 -10.790405,10.7904 l -58.450649,0 C 12.793067,86.241345 8,81.416845 8,75.450945 z"
     id="rect3755"
     inkscape:connector-curvature="0" />
  <rect
     id="rect6091-4"
     style="opacity:0.5;color:#000000;fill:#ffffff"
     height="80"
     width="0.95238096"
     y="7.7452545"
     x="24.309036" />
  <g
     id="g3144"
     transform="matrix(0.98918404,0,0,0.98918404,-0.9269072,0.48246228)">
    <path
       id="path4431"
       style="opacity:0.8;fill:url(#linearGradient3153)"
       d="m 35.312674,17.966589 h 32.311313 l 1.167551,10.938079 H 66.890883 C 66.094377,26.922553 64.96302,25.076811 63.496822,23.367442 62.030537,21.639896 60.691008,20.648839 59.478249,20.39427 58.935174,20.2852 58.229236,20.212455 57.360332,20.176054 c -0.868904,-0.03633 -1.755893,-0.05452 -2.660967,-0.05455 H 42.915552 l 15.748794,20.758238 v 0.73648 l -17.893275,21.46742 h 21.640702 c 0.959318,-6e-6 1.846306,-0.23641 2.660966,-0.709205 0.814548,-0.454626 1.529584,-1.045587 2.145049,-1.773034 0.651633,-0.763764 1.230842,-1.618486 1.737808,-2.564054 0.506812,-0.945568 0.923158,-1.818429 1.249022,-2.618583 l 1.819176,0.572821 -3.204007,11.975002 H 34.987464 V 66.629985 L 53.885652,43.744217 35.313328,19.195228 v -1.227449"
       inkscape:connector-curvature="0" />
    <g
       transform="matrix(1.0952,0,0,1.0952,-7.8256371,-11.485255)"
       id="g4423"
       style="fill:#394557">
      <path
         id="path4408"
         style="fill:#394557"
         d="m 41.386,79.934 h -2.4103 v -0.34806 c 0.15998,-0.01758 0.29507,-0.03515 0.40528,-0.05274 0.11376,-0.01758 0.17064,-0.06329 0.17064,-0.13711 -4e-6,-0.03164 -0.01778,-0.08086 -0.05333,-0.14766 -0.03556,-0.0668 -0.0711,-0.12832 -0.10665,-0.18457 -0.08888,-0.13711 -0.21153,-0.31993 -0.36795,-0.54845 -0.15287,-0.23204 -0.34129,-0.50802 -0.56526,-0.82795 -0.18487,0.22852 -0.35551,0.45177 -0.51193,0.66974 -0.15643,0.21446 -0.31996,0.44298 -0.4906,0.68556 -0.02489,0.03515 -0.05155,0.07911 -0.07999,0.13184 -0.02489,0.05274 -0.03733,0.09493 -0.03733,0.12657 -2e-6,0.07735 0.04977,0.14239 0.14931,0.19512 0.1031,0.04922 0.25596,0.08262 0.45861,0.1002 V 79.934 h -1.9464 v -0.32696 c 0.24174,-0.07032 0.4355,-0.15469 0.58126,-0.25313 0.14931,-0.10195 0.28618,-0.22676 0.41061,-0.37442 0.1102,-0.14063 0.26307,-0.33399 0.4586,-0.58009 0.19908,-0.2461 0.45505,-0.58009 0.7679,-1.002 -0.182,-0.258 -0.404,-0.571 -0.667,-0.94 -0.26,-0.372 -0.475,-0.682 -0.645,-0.928 -0.093,-0.133 -0.2,-0.241 -0.32,-0.322 -0.118,-0.084 -0.285,-0.126 -0.502,-0.126 v -0.34805 h 2.2877 v 0.34805 c -0.11376,5e-6 -0.22575,0.0071 -0.33596,0.02109 -0.11021,0.01407 -0.16531,0.0457 -0.16531,0.09493 -2e-6,0.03164 0.01066,0.06681 0.032,0.10547 0.02133,0.03867 0.04799,0.08087 0.07998,0.12656 0.07821,0.11954 0.19908,0.30411 0.36262,0.55372 0.16708,0.24962 0.34662,0.5133 0.53859,0.79104 0.12442,-0.16875 0.26841,-0.36563 0.43194,-0.59064 0.16708,-0.225 0.31995,-0.43946 0.4586,-0.64338 0.01422,-0.0246 0.02844,-0.05449 0.04266,-0.08965 0.01422,-0.03866 0.02133,-0.07558 0.02133,-0.11074 -3e-6,-0.07383 -0.06221,-0.13184 -0.18664,-0.17403 -0.12088,-0.04569 -0.23642,-0.07734 -0.34662,-0.09493 v -0.33751 h 1.9411 v 0.32696 c -0.27375,0.07032 -0.48705,0.1547 -0.63992,0.25313 -0.15287,0.09493 -0.28263,0.20567 -0.38928,0.33224 -0.11732,0.14415 -0.25775,0.32169 -0.42128,0.53263 -0.15998,0.21095 -0.38573,0.50626 -0.67724,0.88596 0.32351,0.45001 0.58658,0.81916 0.78923,1.1074 0.20264,0.28829 0.40705,0.58537 0.61325,0.89123 0.10309,0.15469 0.21686,0.27774 0.34129,0.36915 0.12798,0.08789 0.30218,0.13887 0.5226,0.15293 v 0.34806"
         inkscape:connector-curvature="0" />
      <path
         id="path4410"
         style="fill:#394557"
         d="m 50.361,77.679 h -2.405 v 2.3784 H 47.27876 V 77.679 h -2.405 v -0.6592 h 2.405 V 74.6414 H 47.956 v 2.3784 h 2.405 v 0.6592"
         inkscape:connector-curvature="0" />
      <path
         id="path4412"
         style="fill:#394557"
         d="m 53.752,81.632 c 0,-0.17579 0.048,-0.31993 0.14398,-0.43243 0.09954,-0.10899 0.22219,-0.16348 0.36795,-0.16348 0.11376,-10e-7 0.21153,0.02109 0.29329,0.06329 0.08176,0.04218 0.15464,0.09668 0.21864,0.16348 0.05333,0.05273 0.11021,0.12481 0.17064,0.21622 0.06043,0.09141 0.10843,0.167 0.14398,0.22676 0.17775,-0.09493 0.38928,-0.34278 0.63458,-0.74357 0.24885,-0.40079 0.42839,-0.75236 0.5386,-1.0547 -0.33774,-0.83322 -0.64347,-1.5786 -0.91721,-2.236 -0.27374,-0.65744 -0.55993,-1.3377 -0.85855,-2.0409 -0.06754,-0.16172 -0.18131,-0.28653 -0.34129,-0.37442 -0.15998,-0.0914 -0.31996,-0.14941 -0.47994,-0.17403 v -0.34805 h 2.3997 v 0.36915 c -0.10665,0.0035 -0.23464,0.02637 -0.38395,0.06856 -0.14932,0.03867 -0.22397,0.09317 -0.22397,0.16348 -2e-6,5e-6 0.0089,0.02637 0.02666,0.0791 0.02133,0.05275 0.03911,0.10372 0.05333,0.15293 0.13509,0.34806 0.34129,0.85081 0.61858,1.5082 0.27729,0.65392 0.49238,1.1778 0.64525,1.5715 0.15998,-0.37618 0.32529,-0.76466 0.49593,-1.1655 0.1742,-0.4043 0.36795,-0.88068 0.58126,-1.4291 0.02488,-0.0668 0.06043,-0.1582 0.10665,-0.27422 0.04621,-0.11953 0.06933,-0.22149 0.06933,-0.30587 -4e-6,-0.0914 -0.08177,-0.17578 -0.2453,-0.25313 -0.15998,-0.08086 -0.31285,-0.13008 -0.45861,-0.14766 V 74.7341 h 1.9517 v 0.32696 c -0.10666,0.01758 -0.24708,0.07911 -0.42128,0.18458 -0.1742,0.10196 -0.30396,0.24786 -0.38928,0.43771 -0.42306,0.97034 -0.7999,1.8545 -1.1305,2.6526 -0.32707,0.79807 -0.57593,1.3852 -0.74657,1.7614 -0.22397,0.4922 -0.42484,0.87541 -0.60259,1.1496 -0.1742,0.27774 -0.34484,0.49571 -0.51193,0.65392 -0.16354,0.14766 -0.31285,0.2461 -0.44794,0.29532 -0.13154,0.05273 -0.26841,0.0791 -0.41061,0.0791 -0.2773,-2e-6 -0.49594,-0.06505 -0.65591,-0.19512 -0.15642,-0.13008 -0.23464,-0.2795 -0.23464,-0.44825"
         inkscape:connector-curvature="0" />
      <path
         id="path4414"
         style="fill:#394557"
         d="M 67.99,76.882 H 62.6094 V 76.2228 H 67.99 v 0.6592 m 0,1.9618 H 62.6094 V 78.1846 H 67.99 v 0.6592"
         inkscape:connector-curvature="0" />
      <path
         id="path4416"
         style="fill:#394557"
         d="m 76,79.934 h -4.2554 v -0.2795 l 2.9756,-4.4931 h -0.7359 c -0.30929,4e-6 -0.55104,0.0053 -0.72524,0.01582 -0.1742,0.01055 -0.33418,0.0457 -0.47994,0.10547 -0.09954,0.03867 -0.19375,0.14942 -0.28263,0.33223 -0.08532,0.18282 -0.15998,0.42189 -0.22397,0.7172 h -0.32529 v -1.5979 h 4.0208 v 0.21622 l -3.0236,4.5564 c 0.12798,0.0035 0.26841,0.0071 0.42128,0.01055 h 0.49593 c 0.1422,0 0.28974,-0.0018 0.44261,-0.0053 0.15642,-0.0035 0.3555,-0.0123 0.59725,-0.02636 0.1422,-0.0071 0.24885,-0.0545 0.31996,-0.14239 0.07465,-0.08789 0.13153,-0.18809 0.17064,-0.30059 0.0391,-0.10195 0.08531,-0.24258 0.13865,-0.42188 0.05688,-0.1793 0.10665,-0.35333 0.14931,-0.52208 h 0.31996 v 1.8352"
         inkscape:connector-curvature="0" />
    </g>
  </g>
</svg>
