<?xml version="1.0" encoding="UTF-8" standalone="no"?>
<!-- Created with Inkscape (http://www.inkscape.org/) -->

<svg
   xmlns:dc="http://purl.org/dc/elements/1.1/"
   xmlns:cc="http://creativecommons.org/ns#"
   xmlns:rdf="http://www.w3.org/1999/02/22-rdf-syntax-ns#"
   xmlns:svg="http://www.w3.org/2000/svg"
   xmlns="http://www.w3.org/2000/svg"
   xmlns:xlink="http://www.w3.org/1999/xlink"
   xmlns:sodipodi="http://sodipodi.sourceforge.net/DTD/sodipodi-0.dtd"
   xmlns:inkscape="http://www.inkscape.org/namespaces/inkscape"
   id="svg11037"
   height="96"
   width="96"
   version="1.1"
   inkscape:version="0.48.5 r10040"
   sodipodi:docname="openofficeorg3-extension.svg">
  <sodipodi:namedview
     pagecolor="#ffffff"
     bordercolor="#666666"
     borderopacity="1"
     objecttolerance="10"
     gridtolerance="10"
     guidetolerance="10"
     inkscape:pageopacity="0"
     inkscape:pageshadow="2"
     inkscape:window-width="1366"
     inkscape:window-height="717"
     id="namedview3579"
     showgrid="false"
     inkscape:zoom="2.4583333"
     inkscape:cx="-49.627119"
     inkscape:cy="47.999999"
     inkscape:window-x="0"
     inkscape:window-y="25"
     inkscape:window-maximized="1"
     inkscape:current-layer="svg11037" />
  <defs
     id="defs11039">
    <linearGradient
       id="linearGradient11642-75"
       y2="1046.1"
       gradientUnits="userSpaceOnUse"
       y1="962.62"
       gradientTransform="matrix(1.15,0,0,1.15,-7.1999,-150.65)"
       x2="48"
       x1="48">
      <stop
         id="stop3189"
         style="stop-color:#bcb5ac"
         offset="0" />
      <stop
         id="stop3191"
         style="stop-color:#e9e7e4"
         offset="1" />
    </linearGradient>
    <linearGradient
       inkscape:collect="always"
       xlink:href="#linearGradient11642-75"
       id="linearGradient3041"
       gradientUnits="userSpaceOnUse"
       gradientTransform="translate(0.06230922,-955.73239)"
       x1="53.057766"
       y1="1042.4381"
       x2="50.4524"
       y2="965.4649" />
    <linearGradient
       inkscape:collect="always"
       xlink:href="#linearGradient11642-75"
       id="linearGradient3618"
       gradientUnits="userSpaceOnUse"
       gradientTransform="translate(0.06230922,-955.73239)"
       x1="53.057766"
       y1="1042.4381"
       x2="50.4524"
       y2="965.4649" />
  </defs>
  <metadata
     id="metadata11042">
    <rdf:RDF>
      <cc:Work
         rdf:about="">
        <dc:format>image/svg+xml</dc:format>
        <dc:type
           rdf:resource="http://purl.org/dc/dcmitype/StillImage" />
        <dc:title />
      </cc:Work>
    </rdf:RDF>
  </metadata>
  <rect
     style="opacity:0.98999999;fill:#e6e6e6;fill-opacity:1;stroke:none"
     id="rect2985"
     width="80"
     height="80"
     x="8"
     y="8"
     rx="10.769231"
     ry="10.769231" />
  <path
     id="rect4096"
     style="color:#000000;fill:#37c837;fill-opacity:1"
     d="m 43,22.5 c -3.5899,0 -6.5,2.0147 -6.5,4.5 0.10443,0.9272 0.69059,2.098 1,2.5 1.5,2 1.5,3.25 1.125,4 H 26.5 c -2.216,0 -4,1.784 -4,4 v 10.125 c 0.75,0.375 2,0.375 4,-1.125 0.40197,-0.30941 1.5728,-0.89557 2.5,-1 2.4853,0 4.5,2.9101 4.5,6.5 0,3.59 -2.015,6.5 -4.5,6.5 -0.763,-0.013 -1.922,-0.695 -2.5,-1 -2,-1.5 -3.25,-1.5 -4,-1.125 V 69.5 c 0,2.216 1.784,4 4,4 H 42.625 C 43,72.75 43,71.5 41.5,69.5 c -0.309,-0.402 -0.896,-1.573 -1,-2.5 0,-2.485 2.91,-4.5 6.5,-4.5 3.5899,0 6.5,2.0147 6.5,4.5 -0.0129,0.76276 -0.6951,1.9224 -1,2.5 -1.5,2 -1.5,3.25 -1.125,4 H 58.5 c 2.216,0 4,-1.784 4,-4 V 58.375 c 0.75,-0.375 2,-0.375 4,1.125 0.57763,0.3049 1.7372,0.98708 2.5,1 2.4853,0 4.5,-2.9101 4.5,-6.5 0,-3.5899 -2.0147,-6.5 -4.5,-6.5 -0.9272,0.10443 -2.098,0.69059 -2.5,1 -2,1.5 -3.25,1.5 -4,1.125 V 37.5 c 0,-2.216 -1.784,-4 -4,-4 H 47.375 C 47,32.75 47,31.5 48.5,29.5 c 0.305,-0.578 0.987,-1.737 1,-2.5 0,-2.485 -2.91,-4.5 -6.5,-4.5 z"
     inkscape:connector-curvature="0" />
</svg>
