<?xml version="1.0" encoding="UTF-8" standalone="no"?>
<!-- Created with Inkscape (http://www.inkscape.org/) -->

<svg
   xmlns:dc="http://purl.org/dc/elements/1.1/"
   xmlns:cc="http://creativecommons.org/ns#"
   xmlns:rdf="http://www.w3.org/1999/02/22-rdf-syntax-ns#"
   xmlns:svg="http://www.w3.org/2000/svg"
   xmlns="http://www.w3.org/2000/svg"
   xmlns:xlink="http://www.w3.org/1999/xlink"
   xmlns:sodipodi="http://sodipodi.sourceforge.net/DTD/sodipodi-0.dtd"
   xmlns:inkscape="http://www.inkscape.org/namespaces/inkscape"
   id="svg11037"
   height="96"
   width="96"
   version="1.1"
   inkscape:version="0.48.5 r10040"
   sodipodi:docname="preferences-desktop-font.svg">
  <sodipodi:namedview
     pagecolor="#ffffff"
     bordercolor="#666666"
     borderopacity="1"
     objecttolerance="10"
     gridtolerance="10"
     guidetolerance="10"
     inkscape:pageopacity="0"
     inkscape:pageshadow="2"
     inkscape:window-width="1366"
     inkscape:window-height="717"
     id="namedview49"
     showgrid="false"
     inkscape:zoom="2.4583333"
     inkscape:cx="0.40677965"
     inkscape:cy="47.38983"
     inkscape:window-x="0"
     inkscape:window-y="25"
     inkscape:window-maximized="1"
     inkscape:current-layer="svg11037" />
  <defs
     id="defs11039">
    <linearGradient
       x1="48"
       x2="48"
       gradientTransform="matrix(1.15,0,0,1.15,-7.1999,-150.65)"
       y1="962.62"
       gradientUnits="userSpaceOnUse"
       y2="1046.1"
       id="linearGradient11642-9">
      <stop
         offset="0"
         style="stop-color:#bcb5ac"
         id="stop3189" />
      <stop
         offset="1"
         style="stop-color:#e9e7e4"
         id="stop3191" />
    </linearGradient>
    <clipPath
       id="clipPath3729-0-1">
      <path
         inkscape:connector-curvature="0"
         style="fill:#ff00ff"
         d="m -88,6 c -3.324,0 -6,2.676 -6,6 v 72 c 0,3.324 2.676,6 6,6 h 72 c 3.324,0 6,-2.676 6,-6 V 12 c 0,-3.324 -2.676,-6 -6,-6 h -72 z m 42.031,18 h 5.4062 l 8.4688,44.594 h 4.7188 L -28.0312,72 h -17.469 l 0.65625,-3.4062 h 5.3438 l -1.9688,-10.531 h -20.188 l -6.0938,10.531 h 5.2812 l -0.625,3.406 h -13.531 l 0.65625,-3.4062 h 4.2188 l 25.782,-44.594 z m -0.46875,7.7812 -13.219,22.812 h 17.594 l -4.375,-22.812 z"
         id="path3731-0-6" />
    </clipPath>
    <filter
       color-interpolation-filters="sRGB"
       height="1.2915"
       x="-0.14228"
       y="-0.14576"
       width="1.2846"
       id="filter3733-3-8">
      <feGaussianBlur
         stdDeviation="3.0366511"
         id="feGaussianBlur3735-8-1" />
    </filter>
    <linearGradient
       inkscape:collect="always"
       xlink:href="#linearGradient11642-9"
       id="linearGradient3096"
       gradientUnits="userSpaceOnUse"
       gradientTransform="translate(-114.64956,-968.34257)"
       x1="53.057766"
       y1="1042.4381"
       x2="50.4524"
       y2="965.4649" />
  </defs>
  <metadata
     id="metadata11042">
    <rdf:RDF>
      <cc:Work
         rdf:about="">
        <dc:format>image/svg+xml</dc:format>
        <dc:type
           rdf:resource="http://purl.org/dc/dcmitype/StillImage" />
        <dc:title />
      </cc:Work>
    </rdf:RDF>
  </metadata>
  <rect
     style="fill:#006680;fill-opacity:1;stroke:none"
     id="rect2985"
     width="80"
     height="80"
     x="8.0000019"
     y="7.9999804"
     rx="10.769231"
     ry="10.769231" />
  <rect
     x="18"
     y="65.249992"
     width="54"
     height="0.75"
     style="opacity:0.2;color:#000000;fill:#ffffff;fill-opacity:1"
     id="rect2902" />
  <rect
     x="36"
     y="29.249996"
     width="42"
     height="0.75"
     style="opacity:0.12000002;color:#000000;fill:#ffffff;fill-opacity:1"
     id="rect3690" />
  <rect
     x="47.999996"
     y="-30"
     width="24"
     height="0.75"
     transform="matrix(0,1,-1,0,0,0)"
     style="opacity:0.15;color:#000000;fill:#ffffff;fill-opacity:1"
     id="rect3694" />
  <rect
     x="17.999996"
     y="-66.75"
     width="60"
     height="0.75"
     transform="matrix(0,1,-1,0,0,0)"
     style="opacity:0.15;color:#000000;fill:#ffffff;fill-opacity:1"
     id="rect3698" />
  <text
     xml:space="preserve"
     x="33.327526"
     y="65.999992"
     style="font-size:49.38225174px;font-style:italic;line-height:125%;fill:#ffffff;fill-opacity:1;font-family:DejaVu Serif"
     id="text2907"
     sodipodi:linespacing="125%"><tspan
       style="fill:#ffffff;fill-opacity:1"
       x="33.327526"
       y="65.999992"
       id="tspan2909">A</tspan></text>
</svg>
