<?xml version="1.0" encoding="UTF-8" standalone="no"?>
<!-- Created with Inkscape (http://www.inkscape.org/) -->

<svg
   xmlns:dc="http://purl.org/dc/elements/1.1/"
   xmlns:cc="http://creativecommons.org/ns#"
   xmlns:rdf="http://www.w3.org/1999/02/22-rdf-syntax-ns#"
   xmlns:svg="http://www.w3.org/2000/svg"
   xmlns="http://www.w3.org/2000/svg"
   xmlns:xlink="http://www.w3.org/1999/xlink"
   xmlns:sodipodi="http://sodipodi.sourceforge.net/DTD/sodipodi-0.dtd"
   xmlns:inkscape="http://www.inkscape.org/namespaces/inkscape"
   id="svg11037"
   height="96"
   width="96"
   version="1.1"
   inkscape:version="0.48.5 r10040"
   sodipodi:docname="jpg.svg">
  <sodipodi:namedview
     pagecolor="#ffffff"
     bordercolor="#666666"
     borderopacity="1"
     objecttolerance="10"
     gridtolerance="10"
     guidetolerance="10"
     inkscape:pageopacity="0"
     inkscape:pageshadow="2"
     inkscape:window-width="1366"
     inkscape:window-height="714"
     id="namedview41066"
     showgrid="false"
     inkscape:zoom="1.7383042"
     inkscape:cx="-29.416597"
     inkscape:cy="67.208276"
     inkscape:window-x="0"
     inkscape:window-y="24"
     inkscape:window-maximized="1"
     inkscape:current-layer="svg11037" />
  <defs
     id="defs11039">
    <linearGradient
       id="linearGradient3811">
      <stop
         id="stop3813"
         offset="0"
         style="stop-color:#4d4d4d;stop-opacity:1;" />
      <stop
         id="stop3815"
         offset="1"
         style="stop-color:#3e3e3e;stop-opacity:1;" />
    </linearGradient>
    <linearGradient
       gradientTransform="translate(-3.5146484e-6,-1.9567871e-6)"
       y2="87.597977"
       x2="51.230446"
       y1="8.7555733"
       x1="49.012192"
       gradientUnits="userSpaceOnUse"
       id="linearGradient4632"
       xlink:href="#linearGradient3811"
       inkscape:collect="always" />
    <style
       type="text/css"
       id="style1115-7">.fil0 {fill:#1F1A17}</style>
    <style
       type="text/css"
       id="style1246-0">.fil0 {fill:#1F1A17}</style>
    <style
       type="text/css"
       id="style1115-1">.fil0 {fill:#1F1A17}</style>
    <style
       type="text/css"
       id="style1246-3">.fil0 {fill:#1F1A17}</style>
    <style
       type="text/css"
       id="style1115">.fil0 {fill:#1F1A17}</style>
    <style
       type="text/css"
       id="style1246">.fil0 {fill:#1F1A17}</style>
  </defs>
  <metadata
     id="metadata11042">
    <rdf:RDF>
      <cc:Work
         rdf:about="">
        <dc:format>image/svg+xml</dc:format>
        <dc:type
           rdf:resource="http://purl.org/dc/dcmitype/StillImage" />
        <dc:title />
      </cc:Work>
    </rdf:RDF>
  </metadata>
  <rect
     style="opacity:0.98999999;fill:url(#linearGradient4632);fill-opacity:1;stroke:none"
     id="rect2985"
     width="80"
     height="80"
     x="8"
     y="8"
     rx="10.769231"
     ry="10.769231" />
  <path
     style="opacity:0.3;fill:#000000;fill-opacity:1;stroke:none"
     d="m 7.9999995,75.1962 0,2.0133 C 7.9999995,83.1755 12.793062,88 18.75895,88 l 58.45064,0 C 83.17548,88 88,83.1755 88,77.2095 l 0,-2.0133 c 0,5.9659 -4.82452,10.7904 -10.79041,10.7904 l -58.45064,0 c -5.965888,0 -10.7589505,-4.8245 -10.7589505,-10.7904 z"
     id="rect3755"
     inkscape:connector-curvature="0" />
  <path
     d="M 23.000001,19 V 69 H 72.999999 V 19 H 23.000001 z m 5,5 H 67.999999 V 64 H 28.000001 V 24 z M 55.923333,40.604833 44.071166,56.408834 36.004833,52.375667 29.667,59.6185 v 1.230467 c 0,0.822916 0.661483,1.484383 1.484366,1.484383 h 8.473334 16.298833 8.925833 c 0.822867,0 1.484383,-0.661467 1.484383,-1.484383 V 52.375633 L 55.923583,40.6048 z"
     style="fill:#e6e6e6;fill-opacity:1"
     id="path4187"
     inkscape:connector-curvature="0" />
  <g
     id="g17906"
     transform="matrix(2.3438,0,0,2.2539,-15.04315,-8.271405)" />
  <flowRoot
     id="flowRoot4913"
     xml:space="preserve"
     style="font-size:40px;line-height:125%;letter-spacing:0px;word-spacing:0px;fill:#000000;font-family:sans-serif"
     transform="translate(-675.65315,-473.20641)"><flowRegion
       id="flowRegion4915"><rect
         id="rect4917"
         y="-275.85001"
         width="199.39999"
         x="134.35001"
         height="189.5" /></flowRegion><flowPara
       id="flowPara4919" /></flowRoot>  <g
     style="font-size:24px;font-style:normal;font-weight:normal;line-height:125%;letter-spacing:0px;word-spacing:0px;fill:#e6e6e6;fill-opacity:1;stroke:none;font-family:Sans"
     id="text3646">
    <path
       d="m 33.245626,70.617258 -1.332,0 0,9.144 c 0,2.105998 -0.756002,3.186 -2.196,3.186 -1.313999,0 -2.178,-0.828001 -2.268,-2.178 l -1.314,0 c 0.108,2.123998 1.440002,3.402 3.564,3.402 1.403998,0 2.466,-0.594001 3.024,-1.728 0.306,-0.575999 0.522,-1.710001 0.522,-2.682 l 0,-9.144"
       style="font-size:18px;font-variant:normal;font-stretch:normal;fill:#e6e6e6;font-family:URW Gothic L;-inkscape-font-specification:URW Gothic L Book"
       id="path4370" />
    <path
       d="m 35.98922,83.919258 1.332,0 0,-5.382 2.556,0 c 1.799998,0 2.772,-0.234 3.582,-0.828 0.863999,-0.629999 1.332,-1.728001 1.332,-3.06 0,-1.529998 -0.576001,-2.736 -1.584,-3.33 -0.828,-0.503999 -1.836002,-0.702 -3.546,-0.702 l -3.672,0 0,13.302 m 1.332,-6.588 0,-5.508 1.89,0 c 1.529998,0 2.484,0.126 3.024,0.396 0.773999,0.396 1.206,1.242001 1.206,2.43 0,1.025999 -0.414001,1.854 -1.098,2.232 -0.558,0.324 -1.332002,0.45 -2.556,0.45 l -2.466,0"
       style="font-size:18px;font-variant:normal;font-stretch:normal;fill:#e6e6e6;font-family:URW Gothic L;-inkscape-font-specification:URW Gothic L Book"
       id="path4372" />
    <path
       d="m 46.641563,83.919258 7.272,0 0,-1.206 -5.94,0 0,-4.914 5.742,0 0,-1.206 -5.742,0 0,-4.77 5.94,0 0,-1.206 -7.272,0 0,13.302"
       style="font-size:18px;font-variant:normal;font-stretch:normal;fill:#e6e6e6;font-family:URW Gothic L;-inkscape-font-specification:URW Gothic L Book"
       id="path4374" />
    <path
       d="m 60.828376,77.781258 0,1.206 7.434,0 c -0.198,0.863999 -0.648001,1.602001 -1.404,2.358 -1.025999,1.025999 -2.430002,1.584 -3.978,1.584 -3.257997,0 -5.832,-2.484003 -5.832,-5.652 0,-3.203997 2.538003,-5.67 5.814,-5.67 2.051998,0 3.780001,0.936002 4.698,2.556 l 1.494,0 c -0.881999,-2.267998 -3.402003,-3.78 -6.3,-3.78 -3.959996,0 -7.056,3.006004 -7.056,6.858 0,3.887996 3.168004,6.912 7.236,6.912 2.105998,0 3.906001,-0.792001 5.184,-2.25 1.079999,-1.241999 1.656,-2.628001 1.746,-4.122 l -9.036,0"
       style="font-size:18px;font-variant:normal;font-stretch:normal;fill:#e6e6e6;font-family:URW Gothic L;-inkscape-font-specification:URW Gothic L Book"
       id="path4376" />
  </g>
</svg>
