<?xml version="1.0" encoding="UTF-8" standalone="no"?>
<!-- Created with Inkscape (http://www.inkscape.org/) -->

<svg
   xmlns:dc="http://purl.org/dc/elements/1.1/"
   xmlns:cc="http://creativecommons.org/ns#"
   xmlns:rdf="http://www.w3.org/1999/02/22-rdf-syntax-ns#"
   xmlns:svg="http://www.w3.org/2000/svg"
   xmlns="http://www.w3.org/2000/svg"
   xmlns:xlink="http://www.w3.org/1999/xlink"
   xmlns:sodipodi="http://sodipodi.sourceforge.net/DTD/sodipodi-0.dtd"
   xmlns:inkscape="http://www.inkscape.org/namespaces/inkscape"
   id="svg11037"
   height="96"
   width="96"
   version="1.1"
   inkscape:version="0.48.5 r10040"
   sodipodi:docname="image-x-xcf.svg">
  <sodipodi:namedview
     pagecolor="#ffffff"
     bordercolor="#666666"
     borderopacity="1"
     objecttolerance="10"
     gridtolerance="10"
     guidetolerance="10"
     inkscape:pageopacity="0"
     inkscape:pageshadow="2"
     inkscape:window-width="640"
     inkscape:window-height="480"
     id="namedview56441"
     showgrid="false"
     inkscape:zoom="1.7383042"
     inkscape:cx="42.819033"
     inkscape:cy="55.919202"
     inkscape:window-x="0"
     inkscape:window-y="24"
     inkscape:window-maximized="0"
     inkscape:current-layer="svg11037" />
  <defs
     id="defs11039">
    <style
       id="style1246"
       type="text/css">.fil0 {fill:#1F1A17}</style>
    <style
       id="style1115"
       type="text/css">.fil0 {fill:#1F1A17}</style>
    <style
       id="style1246-3"
       type="text/css">.fil0 {fill:#1F1A17}</style>
    <style
       id="style1115-1"
       type="text/css">.fil0 {fill:#1F1A17}</style>
    <style
       id="style1246-0"
       type="text/css">.fil0 {fill:#1F1A17}</style>
    <style
       id="style1115-7"
       type="text/css">.fil0 {fill:#1F1A17}</style>
    <linearGradient
       id="linearGradient3811">
      <stop
         style="stop-color:#4d4d4d;stop-opacity:1;"
         offset="0"
         id="stop3813" />
      <stop
         style="stop-color:#3e3e3e;stop-opacity:1;"
         offset="1"
         id="stop3815" />
    </linearGradient>
    <linearGradient
       inkscape:collect="always"
       xlink:href="#linearGradient3811"
       id="linearGradient3234"
       gradientUnits="userSpaceOnUse"
       gradientTransform="translate(-3.5146484e-6,-1.9567871e-6)"
       x1="49.012192"
       y1="8.7555733"
       x2="51.230446"
       y2="87.597977" />
  </defs>
  <metadata
     id="metadata11042">
    <rdf:RDF>
      <cc:Work
         rdf:about="">
        <dc:format>image/svg+xml</dc:format>
        <dc:type
           rdf:resource="http://purl.org/dc/dcmitype/StillImage" />
        <dc:title />
      </cc:Work>
    </rdf:RDF>
  </metadata>
  <rect
     style="opacity:0.98999999;fill:url(#linearGradient3234);fill-opacity:1;stroke:none"
     id="rect2985"
     width="80"
     height="80"
     x="8"
     y="8"
     rx="10.769231"
     ry="10.769231" />
  <path
     style="opacity:0.3;fill:#000000;fill-opacity:1;stroke:none"
     d="m 7.9999995,75.1962 0,2.0133 C 7.9999995,83.1755 12.793062,88 18.75895,88 l 58.45064,0 C 83.17548,88 88,83.1755 88,77.2095 l 0,-2.0133 c 0,5.9659 -4.82452,10.7904 -10.79041,10.7904 l -58.45064,0 c -5.965888,0 -10.7589505,-4.8245 -10.7589505,-10.7904 z"
     id="rect3755"
     inkscape:connector-curvature="0" />
  <path
     d="M 23.000001,19 V 69 H 72.999999 V 19 H 23.000001 z m 5,5 H 67.999999 V 64 H 28.000001 V 24 z M 55.923333,40.604833 44.071166,56.408834 36.004833,52.375667 29.667,59.6185 v 1.230467 c 0,0.822916 0.661483,1.484383 1.484366,1.484383 h 8.473334 16.298833 8.925833 c 0.822867,0 1.484383,-0.661467 1.484383,-1.484383 V 52.375633 L 55.923583,40.6048 z"
     style="fill:#e6e6e6;fill-opacity:1"
     id="path4187"
     inkscape:connector-curvature="0" />
  <g
     id="g17906"
     transform="matrix(2.3438,0,0,2.2539,-15.04315,-8.271405)" />
  <flowRoot
     id="flowRoot4913"
     xml:space="preserve"
     style="font-size:40px;line-height:125%;letter-spacing:0px;word-spacing:0px;fill:#000000;font-family:sans-serif"
     transform="translate(-675.65315,-473.20641)"><flowRegion
       id="flowRegion4915"><rect
         id="rect4917"
         y="-275.85001"
         width="199.39999"
         x="134.35001"
         height="189.5" /></flowRegion><flowPara
       id="flowPara4919" /></flowRoot>  <g
     style="font-size:24px;font-style:normal;font-weight:normal;line-height:125%;letter-spacing:0px;word-spacing:0px;fill:#e6e6e6;fill-opacity:1;stroke:none;font-family:Sans"
     id="text3236">
    <path
       d="m 31.216124,83.343994 1.566,0 3.78,-5.688 3.762,5.688 1.566,0 -4.536,-6.804 4.266,-6.498 -1.548,0 -3.51,5.328 -3.528,-5.328 -1.566,0 4.266,6.498 -4.518,6.804"
       style="font-size:18px;font-variant:normal;font-stretch:normal;fill:#e6e6e6;font-family:URW Gothic L;-inkscape-font-specification:URW Gothic L Book"
       id="path3241" />
    <path
       d="m 54.424874,79.851994 c -0.557999,0.701999 -0.882,1.062 -1.332,1.404 -0.881999,0.701999 -2.088001,1.098 -3.294,1.098 -3.077996,0 -5.616,-2.556003 -5.616,-5.67 0,-3.203997 2.430004,-5.652 5.598,-5.652 1.151999,0 2.232001,0.306001 3.114,0.9 0.594,0.378 0.954001,0.774001 1.458,1.566 l 1.494,0 c -1.025998,-2.285998 -3.366002,-3.69 -6.12,-3.69 -3.959996,0 -6.894,2.952004 -6.894,6.93 0,3.887996 3.006004,6.84 6.984,6.84 2.699998,0 4.752002,-1.260002 6.084,-3.726 l -1.476,0"
       style="font-size:18px;font-variant:normal;font-stretch:normal;fill:#e6e6e6;font-family:URW Gothic L;-inkscape-font-specification:URW Gothic L Book"
       id="path3243" />
    <path
       d="m 58.033874,83.343994 1.332,0 0,-6.084 5.22,0 0,-1.206 -5.22,0 0,-4.806 5.418,0 0,-1.206 -6.75,0 0,13.302"
       style="font-size:18px;font-variant:normal;font-stretch:normal;fill:#e6e6e6;font-family:URW Gothic L;-inkscape-font-specification:URW Gothic L Book"
       id="path3245" />
  </g>
</svg>
