<?xml version="1.0" encoding="UTF-8" standalone="no"?>
<!-- Created with Inkscape (http://www.inkscape.org/) -->

<svg
   xmlns:dc="http://purl.org/dc/elements/1.1/"
   xmlns:cc="http://creativecommons.org/ns#"
   xmlns:rdf="http://www.w3.org/1999/02/22-rdf-syntax-ns#"
   xmlns:svg="http://www.w3.org/2000/svg"
   xmlns="http://www.w3.org/2000/svg"
   xmlns:xlink="http://www.w3.org/1999/xlink"
   xmlns:sodipodi="http://sodipodi.sourceforge.net/DTD/sodipodi-0.dtd"
   xmlns:inkscape="http://www.inkscape.org/namespaces/inkscape"
   id="svg11037"
   height="96"
   width="96"
   version="1.1"
   inkscape:version="0.48.5 r10040"
   sodipodi:docname="gnome-mime-image-x-psd.svg">
  <sodipodi:namedview
     pagecolor="#ffffff"
     bordercolor="#666666"
     borderopacity="1"
     objecttolerance="10"
     gridtolerance="10"
     guidetolerance="10"
     inkscape:pageopacity="0"
     inkscape:pageshadow="2"
     inkscape:window-width="1366"
     inkscape:window-height="717"
     id="namedview45378"
     showgrid="false"
     inkscape:zoom="2"
     inkscape:cx="-28.280103"
     inkscape:cy="28.392857"
     inkscape:window-x="0"
     inkscape:window-y="25"
     inkscape:window-maximized="1"
     inkscape:current-layer="svg11037" />
  <defs
     id="defs11039">
    <linearGradient
       id="linearGradient11642"
       y2="1046.1"
       gradientUnits="userSpaceOnUse"
       y1="962.62"
       gradientTransform="matrix(1.15,0,0,1.15,-7.1999,-150.65)"
       x2="48"
       x1="48">
      <stop
         id="stop3702"
         style="stop-color:#e6e6e6"
         offset="0" />
      <stop
         id="stop3704"
         style="stop-color:#f5f5f5"
         offset="1" />
    </linearGradient>
    <linearGradient
       id="linearGradient3745"
       y2="36.246"
       gradientUnits="userSpaceOnUse"
       x2="46.907"
       gradientTransform="translate(-2,0)"
       y1="75.471"
       x1="46.907">
      <stop
         id="stop3731"
         style="stop-color:#1c59ad"
         offset="0" />
      <stop
         id="stop3733"
         style="stop-color:#377ad6"
         offset="1" />
    </linearGradient>
    <linearGradient
       inkscape:collect="always"
       xlink:href="#linearGradient11642"
       id="linearGradient3033"
       gradientUnits="userSpaceOnUse"
       gradientTransform="translate(-3.5003515,-7.999999)"
       x1="46.907001"
       y1="75.471001"
       x2="46.907001"
       y2="36.245998" />
  </defs>
  <metadata
     id="metadata11042">
    <rdf:RDF>
      <cc:Work
         rdf:about="">
        <dc:format>image/svg+xml</dc:format>
        <dc:type
           rdf:resource="http://purl.org/dc/dcmitype/StillImage" />
        <dc:title />
      </cc:Work>
    </rdf:RDF>
  </metadata>
  <rect
     style="opacity:0.98999999000000005;fill:#0066ff;fill-opacity:1;stroke:none"
     id="rect2985"
     width="80"
     height="80"
     x="8"
     y="8"
     rx="10.769231"
     ry="10.769231" />
  <path
     id="path3715"
     style="fill:url(#linearGradient3033);fill-opacity:1"
     d="m 24.499648,28 v 40 h 7.656203 V 53.344 h 2.6562 c 3.0078,1.4e-5 5.496301,-0.37613 7.4688,-1.0938 2.0176,-0.72729 3.626099,-1.692 4.812499,-2.875 1.2174,-1.1958 2.068701,-2.56 2.593801,-4.125 0.53368,-1.5909 0.81247,-3.2577 0.8125,-5 -3.3e-5,-1.9495 -0.294031,-3.6581 -0.875,-5.1562 -0.578001,-1.509 -1.482,-2.756 -2.687,-3.782 -1.184,-1.039 -2.724,-1.844 -4.625999,-2.406 -1.873,-0.577 -4.163,-0.906 -6.812,-0.906 H 24.499649 z m 7.656203,5.9688 h 2.9062 c 2.5114,3.5e-5 4.427401,0.5071 5.7188,1.625 1.3069,1.1127 1.9062,2.8428 1.9062,5 -2.6e-5,2.3119 -0.66857,4.1084 -2.125,5.2188 -1.4163,1.0962 -3.445899,1.5625 -6.0312,1.5625 h -2.375 v -13.406 z m 30.218999,6.031 c -1.4911,3e-5 -2.8382,0.14666 -4.0625,0.46875 -1.2086,0.30604 -2.2305,0.77815 -3.0938,1.4062 -0.86328,0.62815 -1.5291,1.4248 -2,2.375 -0.47088,0.93416 -0.71875,2.025 -0.71875,3.2812 -10e-7,1.1435 0.13942,2.1313 0.40625,2.9688 0.26683,0.82142 0.65383,1.5745 1.1875,2.2188 0.54936,0.64425 1.2619,1.2185 2.0938,1.75 0.84758,0.5154 1.8229,1.031 2.9688,1.5625 1.1772,0.54761 2.1219,1.0197 2.8125,1.4062 0.70631,0.37044 1.2327,0.72525 1.5938,1.0312 0.36099,0.28992 0.593321,0.56996 0.6875,0.84375 0.10986,0.2577 0.15624,0.53679 0.15625,0.875 -1.5e-5,0.33823 -0.0775,0.66274 -0.21875,0.96875 -0.12558,0.28991 -0.32679,0.55578 -0.625,0.78125 -0.28254,0.20938 -0.63858,0.37116 -1.0938,0.5 -0.4552,0.11275 -1.012699,0.1875 -1.6562,0.1875 -0.58076,5e-6 -1.215599,-0.07475 -1.9062,-0.1875 -0.674999,-0.113 -1.370999,-0.245 -2.093999,-0.438 -0.722,-0.209 -1.449,-0.476 -2.187,-0.75 -0.722,-0.274 -1.403,-0.568 -2.063,-0.906 v 6.0938 c 0.62784,0.28991 1.2316,0.52548 1.8438,0.71875 0.61214,0.19327 1.247,0.33991 1.9062,0.46875 0.65922,0.12885 1.355999,0.23293 2.0938,0.28125 0.738,0.064 1.543,0.093 2.406,0.093 1.6324,-10e-7 3.119,-0.17692 4.437501,-0.53125 1.3184,-0.35433 2.4177,-0.88509 3.3438,-1.5938 0.927,-0.709 1.655,-1.593 2.157,-2.656 0.502,-1.063 0.75,-2.302 0.75,-3.719 0,-1.192 -0.186,-2.225 -0.531,-3.062 -0.346,-0.838 -0.825001,-1.56 -1.469,-2.188 -0.64355,-0.62811 -1.4178,-1.1731 -2.3125,-1.6562 -0.89469,-0.49927 -1.8856,-1.0007 -3.000001,-1.5 -0.95747,-0.45095 -1.7473,-0.81897 -2.3438,-1.125 -0.59646,-0.3221 -1.0454,-0.61729 -1.375,-0.875 -0.32963,-0.27378 -0.54638,-0.53964 -0.65625,-0.78125 -0.10988,-0.25767 -0.18751,-0.55286 -0.1875,-0.875 -1e-5,-0.612 0.23245,-1.0831 0.65625,-1.4375 0.43948,-0.3543 1.1206,-0.53123 2.0938,-0.53125 1.083,2.2e-5 2.167,0.16084 3.250001,0.53125 1.083,0.37045 2.2446,0.85771 3.4375,1.4375 l 2.1562,-5.2188 c -1.490001,-0.741 -2.930001,-1.286 -4.343,-1.657 -1.413,-0.37 -2.930002,-0.562 -4.500001,-0.562 z"
     inkscape:connector-curvature="0" />
</svg>
