<?xml version="1.0" encoding="UTF-8" standalone="no"?>
<!-- Created with Inkscape (http://www.inkscape.org/) -->

<svg
   xmlns:dc="http://purl.org/dc/elements/1.1/"
   xmlns:cc="http://creativecommons.org/ns#"
   xmlns:rdf="http://www.w3.org/1999/02/22-rdf-syntax-ns#"
   xmlns:svg="http://www.w3.org/2000/svg"
   xmlns="http://www.w3.org/2000/svg"
   xmlns:xlink="http://www.w3.org/1999/xlink"
   xmlns:sodipodi="http://sodipodi.sourceforge.net/DTD/sodipodi-0.dtd"
   xmlns:inkscape="http://www.inkscape.org/namespaces/inkscape"
   id="svg11037"
   height="96"
   width="96"
   version="1.1"
   inkscape:version="0.48.5 r10040"
   sodipodi:docname="phatch-actionlist.svg">
  <sodipodi:namedview
     pagecolor="#ffffff"
     bordercolor="#666666"
     borderopacity="1"
     objecttolerance="10"
     gridtolerance="10"
     guidetolerance="10"
     inkscape:pageopacity="0"
     inkscape:pageshadow="2"
     inkscape:window-width="1366"
     inkscape:window-height="714"
     id="namedview61773"
     showgrid="false"
     inkscape:zoom="2.4583333"
     inkscape:cx="0.40677966"
     inkscape:cy="48"
     inkscape:window-x="0"
     inkscape:window-y="24"
     inkscape:window-maximized="1"
     inkscape:current-layer="svg11037" />
  <defs
     id="defs11039">
    <linearGradient
       id="linearGradient11642-75"
       y2="1046.1"
       gradientUnits="userSpaceOnUse"
       y1="962.62"
       gradientTransform="matrix(1.15,0,0,1.15,-7.1999,-150.65)"
       x2="48"
       x1="48">
      <stop
         id="stop3189"
         style="stop-color:#bcb5ac"
         offset="0" />
      <stop
         id="stop3191"
         style="stop-color:#e9e7e4"
         offset="1" />
    </linearGradient>
    <linearGradient
       y2="965.4649"
       x2="50.4524"
       y1="1042.4381"
       x1="53.057766"
       gradientTransform="translate(-0.75124651,-956.13916)"
       gradientUnits="userSpaceOnUse"
       id="linearGradient3067"
       xlink:href="#linearGradient11642-75"
       inkscape:collect="always" />
  </defs>
  <metadata
     id="metadata11042">
    <rdf:RDF>
      <cc:Work
         rdf:about="">
        <dc:format>image/svg+xml</dc:format>
        <dc:type
           rdf:resource="http://purl.org/dc/dcmitype/StillImage" />
        <dc:title />
      </cc:Work>
    </rdf:RDF>
  </metadata>
  <rect
     style="opacity:0.98999999;fill:url(#linearGradient3067);fill-opacity:1;stroke:none"
     id="rect2985"
     width="80"
     height="80"
     x="8"
     y="8"
     rx="10.769231"
     ry="10.769231" />
  <path
     style="opacity:0.3;fill:#000000;fill-opacity:1;stroke:none"
     d="m 7.9999995,75.1962 0,2.0133 C 7.9999995,83.1755 12.793059,88 18.758949,88 l 58.450647,0 C 83.175478,88 88,83.1755 88,77.2095 l 0,-2.0133 c 0,5.9659 -4.824522,10.7904 -10.790404,10.7904 l -58.450647,0 c -5.96589,0 -10.7589495,-4.8245 -10.7589495,-10.7904 z"
     id="rect3755"
     inkscape:connector-curvature="0" />
  <g
     id="g3061"
     transform="translate(121.64407,17.084756)">
    <path
       inkscape:connector-curvature="0"
       d="m -103.64407,36.590064 c 1.30579,1.699737 12.440532,9.615789 27.076582,9.615789 14.636052,0 29.393683,-6.772894 32.92342,-10.189736 -2.186842,-3.273948 -14.771052,-20.698421 -32.827893,-20.387368 -19.410007,0.335526 -26.894219,19.717894 -27.172109,20.961315 z"
       style="fill:#4d4d4d"
       id="path3610" />
    <path
       inkscape:connector-curvature="0"
       d="m -75.635795,18.415244 c -0.724526,0 -1.441864,0.06779 -2.132718,0.186061 v 2.655604 c -1.138506,0.252779 -2.194122,0.711986 -3.148255,1.319364 l -1.895689,-1.894438 c -1.183973,0.830071 -2.212949,1.863891 -3.046693,3.044663 l 1.895687,1.894437 c -0.60776,0.953508 -1.067256,2.008344 -1.320224,3.146146 h -2.674352 c -0.121087,0.699995 -0.185155,1.414052 -0.185155,2.148421 0,0.734704 0.06442,1.465145 0.186186,2.165061 h 2.674353 c 0.252936,1.137802 0.712471,2.192637 1.320223,3.146146 l -1.895687,1.894437 c 0.835071,1.182647 1.877329,2.197014 3.063648,3.02771 l 1.878812,-1.877563 c 0.954133,0.607339 2.009749,1.066555 3.148256,1.319365 v 2.63865 c 0.690619,0.117962 1.4078,0.185936 2.132795,0.185936 0.744987,-7e-6 1.474285,-0.06117 2.183498,-0.186061 v -2.63865 c 1.138506,-0.252764 2.194122,-0.711979 3.148256,-1.319365 l 1.844906,1.86061 c 1.183428,-0.834524 2.232327,-1.859125 3.063648,-3.044663 l -1.86186,-1.86061 c 0.60776,-0.953507 1.067256,-2.008342 1.320224,-3.146146 h 2.606618 c 0.120313,-0.699994 0.184374,-1.430458 0.184374,-2.164826 0,-0.734369 -0.06406,-1.448425 -0.185936,-2.14842 h -2.606619 c -0.252944,-1.137803 -0.712471,-2.192639 -1.320224,-3.146147 l 1.86186,-1.86061 c -0.830462,-1.183583 -1.86561,-2.227325 -3.046851,-3.060912 l -1.861859,1.877485 c -0.954133,-0.607346 -2.00975,-1.066554 -3.148256,-1.319364 v -2.638651 c -0.709369,-0.125 -1.439051,-0.203124 -2.183576,-0.203124 z m -0.01693,6.74893 c 3.178021,1.4e-5 5.77175,2.575135 5.77175,5.750969 0,3.175833 -2.593808,5.750968 -5.77175,5.750968 -3.178021,1.4e-5 -5.754875,-2.575135 -5.754875,-5.750968 0,-3.175834 2.576854,-5.750969 5.754875,-5.750969 z"
       style="fill:#8fd400;fill-opacity:1"
       id="path3614" />
  </g>
</svg>
