<?xml version="1.0" encoding="UTF-8" standalone="no"?>
<!-- Created with Inkscape (http://www.inkscape.org/) -->

<svg
   xmlns:dc="http://purl.org/dc/elements/1.1/"
   xmlns:cc="http://creativecommons.org/ns#"
   xmlns:rdf="http://www.w3.org/1999/02/22-rdf-syntax-ns#"
   xmlns:svg="http://www.w3.org/2000/svg"
   xmlns="http://www.w3.org/2000/svg"
   xmlns:xlink="http://www.w3.org/1999/xlink"
   xmlns:sodipodi="http://sodipodi.sourceforge.net/DTD/sodipodi-0.dtd"
   xmlns:inkscape="http://www.inkscape.org/namespaces/inkscape"
   id="svg11037"
   height="96"
   width="96"
   version="1.1"
   inkscape:version="0.48.5 r10040"
   sodipodi:docname="application-x-rpm.svg">
  <sodipodi:namedview
     pagecolor="#ffffff"
     bordercolor="#666666"
     borderopacity="1"
     objecttolerance="10"
     gridtolerance="10"
     guidetolerance="10"
     inkscape:pageopacity="0"
     inkscape:pageshadow="2"
     inkscape:window-width="1366"
     inkscape:window-height="717"
     id="namedview24485"
     showgrid="false"
     inkscape:zoom="2.4583333"
     inkscape:cx="0.40677965"
     inkscape:cy="47.999999"
     inkscape:window-x="0"
     inkscape:window-y="25"
     inkscape:window-maximized="1"
     inkscape:current-layer="svg11037" />
  <defs
     id="defs11039">
    <linearGradient
       id="linearGradient11642-75"
       y2="1046.1"
       gradientUnits="userSpaceOnUse"
       y1="962.62"
       gradientTransform="matrix(1.15,0,0,1.15,-7.1999,-150.65)"
       x2="48"
       x1="48">
      <stop
         id="stop3189"
         style="stop-color:#bcb5ac"
         offset="0" />
      <stop
         id="stop3191"
         style="stop-color:#e9e7e4"
         offset="1" />
    </linearGradient>
    <linearGradient
       inkscape:collect="always"
       xlink:href="#linearGradient11642-75"
       id="linearGradient3030"
       gradientUnits="userSpaceOnUse"
       gradientTransform="translate(-123.59871,-965.4951)"
       x1="53.057766"
       y1="1042.4381"
       x2="50.4524"
       y2="965.4649" />
  </defs>
  <metadata
     id="metadata11042">
    <rdf:RDF>
      <cc:Work
         rdf:about="">
        <dc:format>image/svg+xml</dc:format>
        <dc:type
           rdf:resource="http://purl.org/dc/dcmitype/StillImage" />
        <dc:title />
      </cc:Work>
    </rdf:RDF>
  </metadata>
  <rect
     style="opacity:0.98999999000000005;fill:#e6e6e6;fill-opacity:1;stroke:none"
     id="rect2985"
     width="80"
     height="80"
     x="8.0000019"
     y="7.9999876"
     rx="10.769231"
     ry="10.769231" />
  <g
     id="layer4"
     transform="matrix(0.90344027,0,0,0.90344027,3.4943651,2.6828509)">
    <path
       inkscape:connector-curvature="0"
       d="m 40.626,28.863 c 1.3553,-0.20825 2.7222,-0.36048 4.0924,-0.43262 0.24341,-0.05799 0.49519,-0.04614 0.74386,-0.05503 1.9441,-0.06201 3.8909,-0.05921 5.8342,0.02835 3.5074,0.24807 6.9971,0.83075 10.381,1.8021 l -0.01433,0.019 c -0.49604,0.67086 -0.99354,1.3407 -1.48,2.0184 -0.14575,0.02689 -0.27333,-0.0653 -0.40314,-0.11172 -2.567,-1.0593 -5.2996,-1.6742 -8.0499,-2.0069 -4.5239,-0.46326 -9.1553,-0.09105 -13.495,1.301 -3.1953,1.0334 -6.2809,2.627 -8.6636,5.0301 -1.6886,1.7268 -2.985,3.9606 -3.161,6.4082 -0.16374,1.1664 0.11554,2.3308 0.36258,3.4627 -0.9436,0.09626 -1.868,0.32762 -2.805,0.47172 -2.6369,0.47288 -5.2734,0.94873 -7.9111,1.4174 -0.0259,-1.8908 0.46752,-3.7614 1.2527,-5.472 1.5618,-3.3305 4.2702,-5.9915 7.288,-8.0289 2.0406,-1.3701 4.2463,-2.4878 6.5373,-3.3741 3.0521,-1.1932 6.25,-2.0085 9.4917,-2.4777 z"
       id="path16"
       style="fill:#1a1a1a" />
    <path
       inkscape:connector-curvature="0"
       d="m 60.183,32.243 c 0.48643,-0.67776 0.98392,-1.3476 1.48,-2.0184 4.543,1.3306 8.93,3.4316 12.514,6.5623 1.4653,1.3121 2.7906,2.7965 3.8085,4.4854 1.2053,1.9875 1.9692,4.2637 2.0509,6.5955 -3.5631,-0.62275 -7.1252,-1.2508 -10.688,-1.8757 0.43847,-1.3946 0.44222,-2.913 0.14196,-4.3361 -0.55647,-2.4596 -2.1333,-4.5713 -4.0353,-6.1743 -1.5856,-1.3341 -3.3944,-2.4034 -5.3109,-3.1858 l 0.03907,-0.05294 z"
       style="fill:#ff2a2a"
       id="path20" />
    <path
       inkscape:connector-curvature="0"
       d="m 47.969,40.969 c -0.67208,0 -1.2326,0.41238 -1.4688,1 -0.51722,-0.09102 -1.0421,-0.1792 -1.5625,-0.25 -0.03529,0.19258 -0.06594,0.36841 -0.09375,0.5625 0.49155,0.08436 0.98079,0.17668 1.4688,0.28125 0.02026,0.0031 0.0422,-0.003 0.0625,0 0,0.88262 0.71114,1.5938 1.5938,1.5938 0.69874,0 1.3141,-0.43773 1.5312,-1.0625 0.58998,0.10214 1.1905,0.21608 1.7812,0.3125 1.5915,0.2709 3.1573,0.57928 4.75,0.84375 1.6767,0.30516 3.3533,0.57682 5.0312,0.875 2.4194,0.41714 4.8591,0.8828 7.2812,1.2812 3.8735,0.70925 7.7488,1.3665 11.625,2.0625 0.80188,0.12812 1.6034,0.28093 2.4062,0.40625 0.02479,-0.18954 0.0443,-0.37808 0.09375,-0.5625 -0.80924,-0.17845 -1.6246,-0.27952 -2.4375,-0.4375 -3.5631,-0.62275 -7.1249,-1.2501 -10.688,-1.875 -0.81883,-0.13373 -1.6169,-0.31733 -2.4375,-0.4375 -2.4405,-0.4477 -4.8997,-0.85284 -7.3438,-1.2812 -0.23804,-0.06244 -0.47983,-0.07109 -0.71875,-0.125 -0.58434,-0.09803 -1.1633,-0.23077 -1.75,-0.3125 -2.4419,-0.44201 -4.8977,-0.86141 -7.3438,-1.2812 -0.04751,-0.01881 -0.10406,-0.02242 -0.15625,-0.03125 -0.01741,-0.86752 -0.75331,-1.5625 -1.625,-1.5625 z"
       id="path24"
       style="fill:#1a1a1a" />
    <path
       inkscape:connector-curvature="0"
       d="m 16.083,50.899 c 1.9685,-0.01321 3.9371,-0.0024 5.9056,-0.0055 0.0019,0.07294 0.0058,0.21882 0.0078,0.29176 1.4303,-0.31148 2.9004,-0.44395 4.3633,-0.3632 1.0652,0.09752 2.0432,0.55402 2.9959,1.0072 -1.0739,0.66416 -2.1666,1.3038 -3.2146,2.0065 -1.1678,-0.90181 -2.755,-0.90261 -4.1168,-0.50804 -0.017,0.14572 -0.03298,0.29193 -0.03443,0.43947 6.9e-4,3.3888 0.0016,6.7777 -4.31e-4,10.167 -1.9678,-6.03e-4 -3.9355,0.0018 -5.9032,-0.0012 -0.0042,-4.3445 0.0021,-8.689 -0.0032,-13.033 z"
       id="path28"
       style="fill:#1a1a1a" />
    <path
       inkscape:connector-curvature="0"
       d="m 37.174,50.881 c -1.7334,0.0035 -3.4474,0.01534 -5.1806,0.02995 0.0016,5.5497 0.0036,11.1 0,16.65 0.29281,-0.01762 0.58265,-0.04549 0.86843,-0.11978 1.681,-0.22437 3.3486,-0.47596 5.0309,-0.68875 0.01294,-0.89577 -4.66e-4,-1.7995 0,-2.6951 0.16095,-0.0067 0.34764,-0.02056 0.50908,-0.02995 2.541,-0.17281 5.0646,-0.84346 7.3068,-2.0663 1.3113,-0.73807 2.6026,-1.72 3.2042,-3.1443 0.51249,-1.1872 0.26355,-2.5684 -0.38929,-3.6534 -0.85963,-1.3968 -2.2904,-2.3368 -3.7732,-2.9646 -2.3874,-0.98805 -5.0075,-1.3322 -7.5763,-1.3176 z m 0.74864,1.4374 c 1.5141,0.15193 2.8587,1.0136 3.8929,2.0962 0.89189,0.93803 1.5354,2.2452 1.3176,3.5635 -0.23808,1.3207 -1.1527,2.4056 -2.186,3.2042 -0.89752,0.65887 -1.9356,1.2284 -3.0545,1.3775 -0.0038,-3.4081 0.02527,-6.8334 0.02995,-10.241 z"
       id="path32"
       style="fill:#1a1a1a" />
    <path
       inkscape:connector-curvature="0"
       d="m 52.333,50.902 c 6.7645,-0.02066 13.529,-0.0025 20.294,-0.0091 1.979,0.0081 3.991,0.02072 5.9162,0.53268 0.55406,0.1825 1.293,0.39953 1.4387,1.0436 0.01445,3.8213 0.0054,7.6434 0.0044,11.465 -1.9689,-4.31e-4 -3.9376,-0.0012 -5.9063,4.31e-4 -4.31e-4,-3.7919 -0.0081,-7.5839 0.0038,-11.376 -0.35767,-0.31031 -0.86756,-0.29707 -1.3116,-0.35126 -1.2143,-0.03161 -2.4295,-0.0091 -3.6439,-0.01248 2.59e-4,3.913 0.0044,7.8261 -0.002,11.739 -1.9717,-0.0018 -3.9432,5.18e-4 -5.9148,-0.0012 -0.0058,-3.1344 -8.7e-4,-6.2687 -0.0025,-9.4031 -0.01577,-0.68491 0.03433,-1.3724 -0.02983,-2.0551 -0.55472,-0.23315 -1.1624,-0.27884 -1.7572,-0.28169 -1.0561,-0.0017 -2.112,7.5e-4 -3.1679,-0.0011 -0.0052,3.9144 0.0064,7.8288 -0.0057,11.743 -1.8565,-0.0024 -3.7129,-0.0036 -5.5693,7.76e-4 -0.12787,0.01004 -0.24707,-0.01457 -0.35759,-0.07386 0.03054,-4.3196 0.0073,-8.6404 0.01164,-12.96 l -8.8e-5,8e-6 z"
       id="path36"
       style="fill:#1a1a1a" />
  </g>
</svg>
