<?xml version="1.0" encoding="UTF-8" standalone="no"?>
<!-- Created with Inkscape (http://www.inkscape.org/) -->

<svg
   xmlns:dc="http://purl.org/dc/elements/1.1/"
   xmlns:cc="http://creativecommons.org/ns#"
   xmlns:rdf="http://www.w3.org/1999/02/22-rdf-syntax-ns#"
   xmlns:svg="http://www.w3.org/2000/svg"
   xmlns="http://www.w3.org/2000/svg"
   xmlns:sodipodi="http://sodipodi.sourceforge.net/DTD/sodipodi-0.dtd"
   xmlns:inkscape="http://www.inkscape.org/namespaces/inkscape"
   id="svg11037"
   height="96"
   width="96"
   version="1.1"
   inkscape:version="0.48.5 r10040"
   sodipodi:docname="text-x-makefile.svg">
  <sodipodi:namedview
     pagecolor="#ffffff"
     bordercolor="#666666"
     borderopacity="1"
     objecttolerance="10"
     gridtolerance="10"
     guidetolerance="10"
     inkscape:pageopacity="0"
     inkscape:pageshadow="2"
     inkscape:window-width="1366"
     inkscape:window-height="716"
     id="namedview61799"
     showgrid="false"
     inkscape:zoom="2.4583333"
     inkscape:cx="-18.305085"
     inkscape:cy="47.999999"
     inkscape:window-x="0"
     inkscape:window-y="24"
     inkscape:window-maximized="1"
     inkscape:current-layer="svg11037" />
  <defs
     id="defs11039">
    <linearGradient
       id="linearGradient3815">
      <stop
         style="stop-color:#999999;stop-opacity:1;"
         offset="0"
         id="stop3817" />
      <stop
         style="stop-color:#8d8d8d;stop-opacity:1;"
         offset="1"
         id="stop3819" />
    </linearGradient>
    <linearGradient
       id="linearGradient11642-75"
       y2="1046.1"
       gradientUnits="userSpaceOnUse"
       y1="962.62"
       gradientTransform="matrix(1.15,0,0,1.15,-7.1999,-150.65)"
       x2="48"
       x1="48">
      <stop
         id="stop3189"
         style="stop-color:#bcb5ac"
         offset="0" />
      <stop
         id="stop3191"
         style="stop-color:#e9e7e4"
         offset="1" />
    </linearGradient>
  </defs>
  <metadata
     id="metadata11042">
    <rdf:RDF>
      <cc:Work
         rdf:about="">
        <dc:format>image/svg+xml</dc:format>
        <dc:type
           rdf:resource="http://purl.org/dc/dcmitype/StillImage" />
        <dc:title />
      </cc:Work>
    </rdf:RDF>
  </metadata>
  <rect
     style="opacity:0.98999999000000005;fill:#e6e6e6;fill-opacity:1;stroke:none"
     id="rect2985"
     width="80"
     height="80"
     x="8"
     y="8"
     rx="10.769231"
     ry="10.769231" />
  <path
     inkscape:connector-curvature="0"
     d="m 51.451176,73.000183 c 0.983955,0 1.78057,-0.816198 1.78057,-1.816904 l 0,-3.524804 c 1.759318,-0.468743 3.440301,-1.176796 4.978361,-2.071331 l 2.507347,2.507348 c 0.353814,0.353814 0.777639,0.541196 1.235549,0.54508 0.457867,0.0042 0.923952,-0.160873 1.271882,-0.508745 l 4.905692,-4.905692 c 0.695719,-0.695727 0.671276,-1.799736 -0.03627,-2.507347 L 65.586959,58.21044 c 0.894535,-1.53806 1.602562,-3.219126 2.071331,-4.978361 l 3.524804,0 c 1.000706,0 1.816904,-0.796681 1.816904,-1.780569 l 0,-6.904353 c 0,-0.983872 -0.816207,-1.780569 -1.816904,-1.780569 l -3.524804,0 c -0.468752,-1.759319 -1.176796,-3.440301 -2.071331,-4.978361 l 2.507348,-2.507348 c 0.707619,-0.707619 0.732062,-1.811654 0.03627,-2.507348 L 63.224885,27.86784 c -0.695718,-0.695727 -1.799736,-0.671285 -2.507347,0.03634 l -2.507348,2.507342 c -1.53806,-0.894535 -3.219126,-1.602562 -4.978361,-2.07133 l 0,-3.524888 c 0,-1.000706 -0.796681,-1.816904 -1.780569,-1.816904 l -6.904353,0 c -0.983872,0 -1.780569,0.816198 -1.780569,1.816904 l 0,3.524888 c -1.757569,0.470018 -3.438468,1.178379 -4.976861,2.07258 l -2.507348,-2.507347 c -0.707619,-0.70762 -1.811654,-0.732071 -2.507348,-0.03634 l -4.905691,4.905696 c -0.695727,0.695727 -0.671276,1.799737 0.03627,2.507348 l 2.507348,2.507348 c -0.894202,1.538393 -1.602563,3.219292 -2.070914,4.978527 l -3.524888,0 c -1.000706,0 -1.816904,0.796681 -1.816904,1.78057 l 0,6.904352 c 0,0.983872 0.816215,1.78057 1.816904,1.78057 l 3.524888,0 c 0.468743,1.759318 1.176796,3.440301 2.07133,4.978361 l -2.507347,2.507347 c -0.70762,0.70762 -0.732071,1.811654 -0.03627,2.507348 l 4.905691,4.905691 c 0.695735,0.695728 1.799737,0.671285 2.507348,-0.03633 l 2.507347,-2.507348 c 1.53806,0.894535 3.219126,1.602562 4.978361,2.071331 l 0,3.5248 c 0,1.000706 0.796681,1.816904 1.78057,1.816904 l 6.904352,0 z M 47.999042,55.557836 c -4.172246,0 -7.558462,-3.386215 -7.558462,-7.558461 0,-4.172246 3.386132,-7.558462 7.558462,-7.558462 4.172246,0 7.558461,3.386216 7.558461,7.558462 0,4.172246 -3.386215,7.558461 -7.558461,7.558461 z"
     style="fill:#808080;fill-opacity:1;display:block"
     id="rect3267" />
</svg>
