<?xml version="1.0" encoding="UTF-8" standalone="no"?>
<svg
   xmlns:dc="http://purl.org/dc/elements/1.1/"
   xmlns:cc="http://creativecommons.org/ns#"
   xmlns:rdf="http://www.w3.org/1999/02/22-rdf-syntax-ns#"
   xmlns:svg="http://www.w3.org/2000/svg"
   xmlns="http://www.w3.org/2000/svg"
   xmlns:sodipodi="http://sodipodi.sourceforge.net/DTD/sodipodi-0.dtd"
   xmlns:inkscape="http://www.inkscape.org/namespaces/inkscape"
   width="24"
   height="24"
   viewBox="0 0 24 24"
   id="svg10121"
   version="1.1"
   inkscape:version="0.48.5 r10040"
   sodipodi:docname="audio-volume-low-zero-panel.svg">
  <metadata
     id="metadata10169">
    <rdf:RDF>
      <cc:Work
         rdf:about="">
        <dc:format>image/svg+xml</dc:format>
        <dc:type
           rdf:resource="http://purl.org/dc/dcmitype/StillImage" />
        <dc:title />
      </cc:Work>
    </rdf:RDF>
  </metadata>
  <sodipodi:namedview
     pagecolor="#ffffff"
     bordercolor="#666666"
     borderopacity="1"
     objecttolerance="10"
     gridtolerance="10"
     guidetolerance="10"
     inkscape:pageopacity="0"
     inkscape:pageshadow="2"
     inkscape:window-width="1366"
     inkscape:window-height="716"
     id="namedview10167"
     showgrid="true"
     inkscape:zoom="13.906434"
     inkscape:cx="12.765869"
     inkscape:cy="15.243408"
     inkscape:window-x="0"
     inkscape:window-y="24"
     inkscape:window-maximized="1"
     inkscape:current-layer="svg10121"
     inkscape:showpageshadow="false"
     borderlayer="true"
     fit-margin-top="0"
     fit-margin-left="0"
     fit-margin-right="0"
     fit-margin-bottom="0">
    <inkscape:grid
       type="xygrid"
       id="grid4154"
       originx="1px"
       originy="1px" />
    <sodipodi:guide
       position="1,23"
       orientation="22,0"
       id="guide4160" />
    <sodipodi:guide
       position="1,1"
       orientation="0,22"
       id="guide4162" />
    <sodipodi:guide
       position="23,1"
       orientation="-22,0"
       id="guide4164" />
    <sodipodi:guide
       position="23,23"
       orientation="0,-22"
       id="guide4166" />
    <sodipodi:guide
       position="4,20"
       orientation="16,0"
       id="guide4168" />
    <sodipodi:guide
       position="4,4"
       orientation="0,16"
       id="guide4170" />
    <sodipodi:guide
       position="20,4"
       orientation="-16,0"
       id="guide4172" />
    <sodipodi:guide
       position="20,20"
       orientation="0,-16"
       id="guide4174" />
  </sodipodi:namedview>
  <defs
     id="defs10123" />
  <path
     inkscape:connector-curvature="0"
     style="opacity:0.50000000000000000;fill:#ffffff;fill-opacity:1;stroke:none"
     d="m 12.59375,4 -5,5 L 5,9 4,9 l 0,1 0,4 0,1 1,0 2.59375,0 5,5 0.0059,-0.0059 0,0.0059 2.40035,0 0,-1 0,-15 -2.400391,0 0,0.00586 L 12.59375,4 Z M 13.007812,5 14,5 14,19 13.007812,19 8.0078125,14 8,14.007812 8,14 8,9.9921875 8.0078125,10 13.007812,5 Z M 5,10 l 1,0 0,4 -1,0 0,-4 z"
     id="rect4120" />
  <path
     inkscape:connector-curvature="0"
     style="opacity:0.50000000000000000;fill:#ffffff;fill-opacity:1;stroke:none"
     d="M 16.246094,7.7539062 15.539062,8.4609375 C 16.442813,9.3646875 17,10.615 17,12 c 0,1.385 -0.557188,2.635312 -1.460938,3.539062 l 0.707032,0.707032 C 17.330594,15.161594 18,13.662 18,12 18,10.338 17.330594,8.8384062 16.246094,7.7539062 Z"
     id="rect4180" />
  <path
     inkscape:connector-curvature="0"
     style="opacity:0.50000000000000000;fill:#ffffff;fill-opacity:1;stroke:none"
     d="M 17.662109,6.3378906 16.955078,7.0449219 C 18.220328,8.3101719 19,10.061 19,12 c 0,1.939 -0.779672,3.689828 -2.044922,4.955078 l 0.707031,0.707031 C 19.108109,16.216109 20,14.216 20,12 20,9.784 19.108109,7.7838906 17.662109,6.3378906 Z"
     id="rect4192" />
</svg>
