<?xml version="1.0" encoding="UTF-8" standalone="no"?>
<svg
   xmlns:dc="http://purl.org/dc/elements/1.1/"
   xmlns:cc="http://creativecommons.org/ns#"
   xmlns:rdf="http://www.w3.org/1999/02/22-rdf-syntax-ns#"
   xmlns:svg="http://www.w3.org/2000/svg"
   xmlns="http://www.w3.org/2000/svg"
   xmlns:sodipodi="http://sodipodi.sourceforge.net/DTD/sodipodi-0.dtd"
   xmlns:inkscape="http://www.inkscape.org/namespaces/inkscape"
   width="22"
   viewBox="0 0 22 22"
   height="22"
   id="svg2"
   version="1.1"
   inkscape:version="0.48.5 r10040"
   sodipodi:docname="battery-020-charging.svg">
  <metadata
     id="metadata14">
    <rdf:RDF>
      <cc:Work
         rdf:about="">
        <dc:format>image/svg+xml</dc:format>
        <dc:type
           rdf:resource="http://purl.org/dc/dcmitype/StillImage" />
        <dc:title />
      </cc:Work>
    </rdf:RDF>
  </metadata>
  <defs
     id="defs12" />
  <sodipodi:namedview
     pagecolor="#ffffff"
     bordercolor="#666666"
     borderopacity="1"
     objecttolerance="10"
     gridtolerance="10"
     guidetolerance="10"
     inkscape:pageopacity="0"
     inkscape:pageshadow="2"
     inkscape:window-width="1366"
     inkscape:window-height="716"
     id="namedview10"
     showgrid="true"
     inkscape:zoom="17.096617"
     inkscape:cx="-6.3168341"
     inkscape:cy="14.930988"
     inkscape:window-x="0"
     inkscape:window-y="24"
     inkscape:window-maximized="1"
     inkscape:current-layer="svg2"
     showguides="true"
     inkscape:showpageshadow="false"
     borderlayer="true">
    <inkscape:grid
       type="xygrid"
       id="grid4157" />
    <sodipodi:guide
       position="0,22"
       orientation="22,0"
       id="guide4163" />
    <sodipodi:guide
       position="0,0"
       orientation="0,22"
       id="guide4165" />
    <sodipodi:guide
       position="22,0"
       orientation="-22,0"
       id="guide4167" />
    <sodipodi:guide
       position="22,22"
       orientation="0,-22"
       id="guide4169" />
    <sodipodi:guide
       position="3,19"
       orientation="16,0"
       id="guide4171" />
    <sodipodi:guide
       position="3,3"
       orientation="0,16"
       id="guide4173" />
    <sodipodi:guide
       position="19,3"
       orientation="-16,0"
       id="guide4175" />
    <sodipodi:guide
       position="19,19"
       orientation="0,-16"
       id="guide4177" />
  </sodipodi:namedview>
  <g
     id="g3102"
     transform="matrix(0,-1,1,0,1e-7,22)">
    <path
       id="rect4198"
       d="m 5,8.5000024 0,3.3325166 0,1.667479 2,0 0,-1.667479 0,-3.3325166 -0.5449219,0 -1.4550781,0 z"
       style="text-decoration:none;color:black;fill:#f89406;fill-opacity:1;fill-rule:nonzero;stroke:none;visibility:visible;display:inline;overflow:visible;enable-background:accumulate"
       inkscape:connector-curvature="0" />
    <path
       sodipodi:nodetypes="cccccccccccccccccccccccccc"
       inkscape:connector-curvature="0"
       style="fill:#999;fill-opacity:1;stroke:none"
       d="M 3,5.9999998 3,16 l 1,0 13,0 0,-1.249997 0,-1.249999 1,0 1,0 0,-5.0000066 -1,0 -1,0 0,-1.2499988 0,-1.2499988 -1,0 -12,0 z m 1,1.2499988 12,0 0,7.5000044 -12,0 z m 13,2.4999976 1,0 0,2.5000088 -1,0 z"
       id="rect4236" />
    <path
       id="rect4164"
       d="M 10,7.2500036 9.4550781,8.5000024 8,11.832519 l 2,0 0,1.667479 0,1.249998 0.544922,-1.249998 L 12,10.167481 l -2,0 0,-1.6674786 0,-1.2499988 z"
       style="text-decoration:none;color:black;fill:#999;fill-opacity:1;fill-rule:nonzero;stroke:none;visibility:visible;display:inline;overflow:visible;enable-background:accumulate"
       inkscape:connector-curvature="0" />
  </g>
</svg>
