<?xml version="1.0" encoding="UTF-8" standalone="no"?>
<svg
   xmlns:dc="http://purl.org/dc/elements/1.1/"
   xmlns:cc="http://creativecommons.org/ns#"
   xmlns:rdf="http://www.w3.org/1999/02/22-rdf-syntax-ns#"
   xmlns:svg="http://www.w3.org/2000/svg"
   xmlns="http://www.w3.org/2000/svg"
   xmlns:sodipodi="http://sodipodi.sourceforge.net/DTD/sodipodi-0.dtd"
   xmlns:inkscape="http://www.inkscape.org/namespaces/inkscape"
   width="22"
   viewBox="0 0 22 22"
   height="22"
   id="svg2"
   version="1.1"
   inkscape:version="0.48.5 r10040"
   sodipodi:docname="battery-060-charging.svg">
  <metadata
     id="metadata14">
    <rdf:RDF>
      <cc:Work
         rdf:about="">
        <dc:format>image/svg+xml</dc:format>
        <dc:type
           rdf:resource="http://purl.org/dc/dcmitype/StillImage" />
        <dc:title />
      </cc:Work>
    </rdf:RDF>
  </metadata>
  <defs
     id="defs12" />
  <sodipodi:namedview
     pagecolor="#ffffff"
     bordercolor="#666666"
     borderopacity="1"
     objecttolerance="10"
     gridtolerance="10"
     guidetolerance="10"
     inkscape:pageopacity="0"
     inkscape:pageshadow="2"
     inkscape:window-width="1366"
     inkscape:window-height="716"
     id="namedview10"
     showgrid="true"
     inkscape:showpageshadow="false"
     borderlayer="true"
     inkscape:zoom="5.3636364"
     inkscape:cx="-22.578687"
     inkscape:cy="9.841498"
     inkscape:window-x="0"
     inkscape:window-y="24"
     inkscape:window-maximized="1"
     inkscape:current-layer="svg2">
    <inkscape:grid
       type="xygrid"
       id="grid4143" />
    <sodipodi:guide
       position="0,22"
       orientation="22,0"
       id="guide4149" />
    <sodipodi:guide
       position="0,0"
       orientation="0,22"
       id="guide4151" />
    <sodipodi:guide
       position="22,0"
       orientation="-22,0"
       id="guide4153" />
    <sodipodi:guide
       position="22,22"
       orientation="0,-22"
       id="guide4155" />
    <sodipodi:guide
       position="3,19"
       orientation="16,0"
       id="guide4157" />
    <sodipodi:guide
       position="3,3"
       orientation="0,16"
       id="guide4159" />
    <sodipodi:guide
       position="19,3"
       orientation="-16,0"
       id="guide4161" />
    <sodipodi:guide
       position="19,19"
       orientation="0,-16"
       id="guide4163" />
  </sodipodi:namedview>
  <g
     id="g3084"
     transform="matrix(0,-1,1.2499988,0,-2.7499868,22)"
     style="fill:#999">
    <g
       style="fill:#999"
       id="g4181">
      <path
         id="rect4236"
         d="m 3,6.999996 0,8.000008 1,0 13,0 0,-0.999999 0,-1 1,0 1,0 0,-4.000009 -1,0 -1,0 0,-1 0,-1 -1,0 -12,0 z m 1,1 12,0 0,6.000009 -12,0 z m 13,2 1,0 0,2.000009 -1,0 z"
         style="fill:#999;fill-opacity:1;stroke:none"
         inkscape:connector-curvature="0"
         sodipodi:nodetypes="cccccccccccccccccccccccccc" />
      <path
         inkscape:connector-curvature="0"
         style="text-decoration:none;color:black;fill:#999;fill-opacity:1;fill-rule:nonzero;stroke:none;visibility:visible;display:inline;overflow:visible;enable-background:accumulate"
         d="m 5,9 0,4 5,0 0,-1.333984 -2,0 L 9.4550781,9 z m 5,0 0,1.333984 2,0 L 10.544922,13 11,13 11,9 z"
         id="rect4164"
         sodipodi:nodetypes="cccccccccccccc" />
      <path
         inkscape:connector-curvature="0"
         style="fill:#999;fill-opacity:1;fill-rule:evenodd;stroke:none"
         d="M 10,8 9.4550781,9 10,9 10,8 z m 0,5 0,1 0.544922,-1 L 10,13 z"
         id="path4397" />
    </g>
  </g>
</svg>
