<?xml version="1.0" encoding="UTF-8" standalone="no"?>
<!-- Created with Inkscape (http://www.inkscape.org/) -->

<svg
   xmlns:dc="http://purl.org/dc/elements/1.1/"
   xmlns:cc="http://creativecommons.org/ns#"
   xmlns:rdf="http://www.w3.org/1999/02/22-rdf-syntax-ns#"
   xmlns:svg="http://www.w3.org/2000/svg"
   xmlns="http://www.w3.org/2000/svg"
   xmlns:sodipodi="http://sodipodi.sourceforge.net/DTD/sodipodi-0.dtd"
   xmlns:inkscape="http://www.inkscape.org/namespaces/inkscape"
   id="svg2"
   height="16"
   width="16"
   version="1.0"
   inkscape:version="0.48.5 r10040"
   sodipodi:docname="changes-prevent-symbolic.svg">
  <defs
     id="defs209064" />
  <sodipodi:namedview
     pagecolor="#ffffff"
     bordercolor="#666666"
     borderopacity="1"
     objecttolerance="10"
     gridtolerance="10"
     guidetolerance="10"
     inkscape:pageopacity="0"
     inkscape:pageshadow="2"
     inkscape:window-width="640"
     inkscape:window-height="480"
     id="namedview209062" />
  <metadata
     id="metadata7">
    <rdf:RDF>
      <cc:Work
         rdf:about="">
        <dc:format>image/svg+xml</dc:format>
        <dc:type
           rdf:resource="http://purl.org/dc/dcmitype/StillImage" />
        <dc:title />
      </cc:Work>
    </rdf:RDF>
  </metadata>
  <g
     id="layer1">
    <rect
       id="rect2965"
       style="opacity:.3;color:#000000"
       height="11"
       width="2"
       y="-18"
       x="11" />
    <rect
       id="rect2973"
       style="opacity:.3;color:#000000"
       height="8"
       width="2"
       y="-15"
       x="8" />
    <rect
       id="rect2975"
       style="opacity:.3;color:#000000"
       height="6"
       width="2"
       y="-13"
       x="5" />
    <rect
       id="rect2977"
       style="opacity:.3;color:#000000"
       height="4"
       width="2"
       y="-11"
       x="2" />
    <path
       id="rect2957"
       style="color:#000000;fill:#bebebe"
       d="m6 1c-0.554 0-1 0.446-1 1v4h-1c-0.554 0-1 0.446-1 1v6c0 0.554 0.446 1 1 1h8c0.554 0 1-0.446 1-1v-6c0-0.554-0.446-1-1-1h-1v-4c0-0.554-0.446-1-1-1h-4zm1 2h2v3h-2v-3z" />
    <rect
       id="rect3783"
       style="opacity:0;color:#000000"
       height="3.011"
       width="2.0654"
       y="2.989"
       x="6.9346" />
  </g>
</svg>
