<?xml version="1.0" encoding="UTF-8" standalone="no"?>
<!-- Created with Inkscape (http://www.inkscape.org/) -->

<svg
   xmlns:dc="http://purl.org/dc/elements/1.1/"
   xmlns:cc="http://creativecommons.org/ns#"
   xmlns:rdf="http://www.w3.org/1999/02/22-rdf-syntax-ns#"
   xmlns:svg="http://www.w3.org/2000/svg"
   xmlns="http://www.w3.org/2000/svg"
   xmlns:sodipodi="http://sodipodi.sourceforge.net/DTD/sodipodi-0.dtd"
   xmlns:inkscape="http://www.inkscape.org/namespaces/inkscape"
   id="svg2"
   height="16"
   width="16"
   version="1.0"
   inkscape:version="0.48.5 r10040"
   sodipodi:docname="display-brightness-symbolic.svg">
  <defs
     id="defs209379" />
  <sodipodi:namedview
     pagecolor="#ffffff"
     bordercolor="#666666"
     borderopacity="1"
     objecttolerance="10"
     gridtolerance="10"
     guidetolerance="10"
     inkscape:pageopacity="0"
     inkscape:pageshadow="2"
     inkscape:window-width="640"
     inkscape:window-height="480"
     id="namedview209377" />
  <metadata
     id="metadata7">
    <rdf:RDF>
      <cc:Work
         rdf:about="">
        <dc:format>image/svg+xml</dc:format>
        <dc:type
           rdf:resource="http://purl.org/dc/dcmitype/StillImage" />
        <dc:title />
      </cc:Work>
    </rdf:RDF>
  </metadata>
  <g
     id="layer1"
     transform="translate(0,-6)">
    <path
       id="path3085"
       d="m8 0l-1 3h2l-1-3zm-5.6562 2.3438l1.4062 2.8124 1.4062-1.4062-2.8124-1.4062zm11.312 0l-2.812 1.4062 1.406 1.4062 1.406-2.8124zm-5.656 1.6562c-2.2091 0-4 1.7909-4 4 0 2.209 1.7909 4 4 4 2.209 0 4-1.791 4-4 0-2.2091-1.791-4-4-4zm0 1.5c1.3807 0 2.5 1.1193 2.5 2.5s-1.1193 2.5-2.5 2.5-2.5-1.1193-2.5-2.5 1.1193-2.5 2.5-2.5zm-5 1.5l-3 1 3 1v-2zm10 0v2l3-1-3-1zm-9.25 3.844l-1.4062 2.812 2.8124-1.406-1.4062-1.406zm8.5 0l-1.406 1.406 2.812 1.406-1.406-2.812zm-5.25 2.156l1 3 1-3h-2z"
       style="color:#000000;fill:#bebebe"
       transform="translate(0,6)" />
    <path
       id="path3102"
       style="opacity:.35;color:#000000"
       d="m8 30c-2.2091 0-4 1.7909-4 4s1.7909 4 4 4 4-1.7909 4-4-1.7909-4-4-4zm0 2c1.1046 0 2 0.89543 2 2s-0.89543 2-2 2-2-0.89543-2-2 0.89543-2 2-2z" />
    <path
       id="path3104"
       style="fill:#808080"
       d="m6 29h4l-2-3z" />
    <path
       id="path3106"
       style="fill:#808080"
       d="m11.33 29.768 2 3.4641l1.598-3.232z" />
    <path
       id="path3108"
       style="fill:#808080"
       d="m13.33 34.768-2 3.4641l3.598-0.232z" />
    <path
       id="path3110"
       style="fill:#808080"
       d="m10 39h-4l2 3z" />
    <path
       id="path3112"
       style="fill:#808080"
       d="m4.6699 38.232-2-3.464-1.5981 3.232z" />
    <path
       id="path3114"
       style="fill:#808080"
       d="m2.6699 33.232 2-3.464-3.5981 0.232z" />
  </g>
</svg>
