<?xml version="1.0" encoding="UTF-8" standalone="no"?>
<!-- Created with Inkscape (http://www.inkscape.org/) -->

<svg
   xmlns:dc="http://purl.org/dc/elements/1.1/"
   xmlns:cc="http://creativecommons.org/ns#"
   xmlns:rdf="http://www.w3.org/1999/02/22-rdf-syntax-ns#"
   xmlns:svg="http://www.w3.org/2000/svg"
   xmlns="http://www.w3.org/2000/svg"
   xmlns:sodipodi="http://sodipodi.sourceforge.net/DTD/sodipodi-0.dtd"
   xmlns:inkscape="http://www.inkscape.org/namespaces/inkscape"
   id="svg2"
   height="16"
   width="16"
   version="1.0"
   inkscape:version="0.48.5 r10040"
   sodipodi:docname="media-playlist-repeat-symbolic.svg">
  <defs
     id="defs213080" />
  <sodipodi:namedview
     pagecolor="#ffffff"
     bordercolor="#666666"
     borderopacity="1"
     objecttolerance="10"
     gridtolerance="10"
     guidetolerance="10"
     inkscape:pageopacity="0"
     inkscape:pageshadow="2"
     inkscape:window-width="640"
     inkscape:window-height="480"
     id="namedview213078" />
  <metadata
     id="metadata7">
    <rdf:RDF>
      <cc:Work
         rdf:about="">
        <dc:format>image/svg+xml</dc:format>
        <dc:type
           rdf:resource="http://purl.org/dc/dcmitype/StillImage" />
        <dc:title />
      </cc:Work>
    </rdf:RDF>
  </metadata>
  <g
     id="layer1">
    <path
       id="Symbol"
       style="fill:#bebebe"
       d="m3.5 3c-1.385 0-2.5 1.115-2.5 2.5v5c0 1.385 1.115 2.5 2.5 2.5h1.5312c-0.0104-0.078-0.0312-0.138-0.0312-0.219v-1.781h-0.5c-0.831 0-1.5-0.669-1.5-1.5v-3c0-0.831 0.669-1.5 1.5-1.5h7c0.831 0 1.5 0.669 1.5 1.5v3c0 0.831-0.669 1.5-1.5 1.5h-0.5v-2l-4 3 4 3v-2h1.5c1.385 0 2.5-1.115 2.5-2.5v-5c0-1.385-1.115-2.5-2.5-2.5z" />
  </g>
</svg>
