<?xml version="1.0" encoding="UTF-8" standalone="no"?>
<!-- Created with Inkscape (http://www.inkscape.org/) -->

<svg
   xmlns:dc="http://purl.org/dc/elements/1.1/"
   xmlns:cc="http://creativecommons.org/ns#"
   xmlns:rdf="http://www.w3.org/1999/02/22-rdf-syntax-ns#"
   xmlns:svg="http://www.w3.org/2000/svg"
   xmlns="http://www.w3.org/2000/svg"
   xmlns:sodipodi="http://sodipodi.sourceforge.net/DTD/sodipodi-0.dtd"
   xmlns:inkscape="http://www.inkscape.org/namespaces/inkscape"
   id="svg2"
   height="16"
   width="16"
   version="1.0"
   inkscape:version="0.48.5 r10040"
   sodipodi:docname="network-cellular-3g-symbolic.svg">
  <defs
     id="defs213277" />
  <sodipodi:namedview
     pagecolor="#ffffff"
     bordercolor="#666666"
     borderopacity="1"
     objecttolerance="10"
     gridtolerance="10"
     guidetolerance="10"
     inkscape:pageopacity="0"
     inkscape:pageshadow="2"
     inkscape:window-width="640"
     inkscape:window-height="480"
     id="namedview213275"
     showgrid="false"
     inkscape:zoom="10.429825"
     inkscape:cx="3.5872331"
     inkscape:cy="10.723981"
     inkscape:window-x="0"
     inkscape:window-y="24"
     inkscape:window-maximized="0"
     inkscape:current-layer="svg2" />
  <metadata
     id="metadata7">
    <rdf:RDF>
      <cc:Work
         rdf:about="">
        <dc:format>image/svg+xml</dc:format>
        <dc:type
           rdf:resource="http://purl.org/dc/dcmitype/StillImage" />
        <dc:title />
      </cc:Work>
    </rdf:RDF>
  </metadata>
  <path
     inkscape:connector-curvature="0"
     style="color:#000000;fill:#999999"
     d="M 1,2 C 0.446,2 0,2.446 0,3 v 10 c 0,0.554 0.446,1 1,1 h 14 c 0.554,0 1,-0.446 1,-1 V 3 C 16,2.446 15.554,2 15,2 H 1 z m 1.5,2 h 4 C 6.777,4 7,4.223 7,4.5 v 7 C 7,11.777 6.777,12 6.5,12 h -4 C 2.223,12 2,11.777 2,11.5 V 10 H 5 V 9 H 3 V 7 H 5 V 6 H 2 V 4.5 C 2,4.223 2.223,4 2.5,4 z m 6,0 h 5 C 13.777,4 14,4.223 14,4.5 V 6 h -4 v 4 h 2 V 9 H 11 V 7 h 3 v 4.5 c 0,0.277 -0.223,0.5 -0.5,0.5 h -5 C 8.223,12 8,11.777 8,11.5 v -7 C 8,4.223 8.223,4 8.5,4 z"
     id="rect3085" />
</svg>
