<?xml version="1.0" encoding="UTF-8" standalone="no"?>
<!-- Created with Inkscape (http://www.inkscape.org/) -->

<svg
   xmlns:dc="http://purl.org/dc/elements/1.1/"
   xmlns:cc="http://creativecommons.org/ns#"
   xmlns:rdf="http://www.w3.org/1999/02/22-rdf-syntax-ns#"
   xmlns:svg="http://www.w3.org/2000/svg"
   xmlns="http://www.w3.org/2000/svg"
   xmlns:sodipodi="http://sodipodi.sourceforge.net/DTD/sodipodi-0.dtd"
   xmlns:inkscape="http://www.inkscape.org/namespaces/inkscape"
   id="svg2"
   height="16"
   width="16"
   version="1.0"
   inkscape:version="0.48.5 r10040"
   sodipodi:docname="network-wireless-signal-none-symbolic.svg">
  <defs
     id="defs213696" />
  <sodipodi:namedview
     pagecolor="#ffffff"
     bordercolor="#666666"
     borderopacity="1"
     objecttolerance="10"
     gridtolerance="10"
     guidetolerance="10"
     inkscape:pageopacity="0"
     inkscape:pageshadow="2"
     inkscape:window-width="640"
     inkscape:window-height="480"
     id="namedview213694"
     showgrid="false"
     inkscape:zoom="14.75"
     inkscape:cx="8"
     inkscape:cy="8"
     inkscape:window-x="0"
     inkscape:window-y="24"
     inkscape:window-maximized="0"
     inkscape:current-layer="svg2" />
  <metadata
     id="metadata7">
    <rdf:RDF>
      <cc:Work
         rdf:about="">
        <dc:format>image/svg+xml</dc:format>
        <dc:type
           rdf:resource="http://purl.org/dc/dcmitype/StillImage" />
        <dc:title />
      </cc:Work>
    </rdf:RDF>
  </metadata>
  <g
     id="layer1"
     style="fill:#999999">
    <path
       id="path3958"
       style="opacity:0.45000000000000001;color:#000000;fill:#999999"
       d="m8 2c-3.1188 0-5.9562 1.3284-8 3.5l1.3529 1.4375c1.7032-1.8096 4.0481-2.9375 6.6471-2.9375s4.9439 1.1279 6.6471 2.9375l1.353-1.4375c-2.044-2.1716-4.881-3.5-8-3.5z" />
    <path
       id="path3956"
       style="opacity:0.45000000000000001;color:#000000;fill:#999999"
       d="m8 5c-2.3391 0-4.4671 0.9963-6 2.625l1.3529 1.4375c1.1923-1.2668 2.8278-2.0625 4.6471-2.0625s3.455 0.7957 4.647 2.0625l1.353-1.4375c-1.533-1.6287-3.661-2.625-6-2.625z" />
    <path
       id="path3954"
       style="opacity:0.45000000000000001;color:#000000;fill:#999999"
       d="m8 8c-1.5594 0-2.9781 0.6642-4 1.75l1.3235 1.4062c0.6813-0.724 1.6369-1.156 2.6765-1.156s1.9952 0.43239 2.6765 1.1562l1.324-1.406c-1.022-1.0858-2.4406-1.75-4-1.75z" />
    <path
       id="path3909"
       style="opacity:0.45000000000000001;color:#000000;fill:#999999"
       d="m8 11c-0.7797 0-1.489 0.332-2 0.875l2 2.125 2-2.125c-0.511-0.543-1.2203-0.875-2-0.875z" />
  </g>
</svg>
