<?xml version="1.0" encoding="UTF-8" standalone="no"?>
<!-- Created with Inkscape (http://www.inkscape.org/) -->

<svg
   xmlns:dc="http://purl.org/dc/elements/1.1/"
   xmlns:cc="http://creativecommons.org/ns#"
   xmlns:rdf="http://www.w3.org/1999/02/22-rdf-syntax-ns#"
   xmlns:svg="http://www.w3.org/2000/svg"
   xmlns="http://www.w3.org/2000/svg"
   xmlns:sodipodi="http://sodipodi.sourceforge.net/DTD/sodipodi-0.dtd"
   xmlns:inkscape="http://www.inkscape.org/namespaces/inkscape"
   id="svg2"
   height="16"
   width="16"
   version="1.0"
   inkscape:version="0.48.5 r10040"
   sodipodi:docname="network-wireless-signal-weak-symbolic.svg">
  <defs
     id="defs213718" />
  <sodipodi:namedview
     pagecolor="#ffffff"
     bordercolor="#666666"
     borderopacity="1"
     objecttolerance="10"
     gridtolerance="10"
     guidetolerance="10"
     inkscape:pageopacity="0"
     inkscape:pageshadow="2"
     inkscape:window-width="640"
     inkscape:window-height="480"
     id="namedview213716"
     showgrid="false"
     inkscape:zoom="4"
     inkscape:cx="17.843669"
     inkscape:cy="-9.5979797"
     inkscape:window-x="0"
     inkscape:window-y="24"
     inkscape:window-maximized="0"
     inkscape:current-layer="svg2" />
  <metadata
     id="metadata7">
    <rdf:RDF>
      <cc:Work
         rdf:about="">
        <dc:format>image/svg+xml</dc:format>
        <dc:type
           rdf:resource="http://purl.org/dc/dcmitype/StillImage" />
        <dc:title />
      </cc:Work>
    </rdf:RDF>
  </metadata>
  <path
     inkscape:connector-curvature="0"
     d="M 8,2 C 4.8812,2 2.0438,3.3284 0,5.5 L 1.3529,6.9375 C 3.0561,5.1279 5.401,4 8,4 c 2.599,0 4.9439,1.1279 6.6471,2.9375 L 16.0001,5.5 C 13.9561,3.3284 11.1191,2 8.0001,2 z"
     style="opacity:0.45000000000000001;color:#000000;fill:#999999"
     id="path3958" />
  <path
     inkscape:connector-curvature="0"
     d="M 8,5 C 5.6609,5 3.5329,5.9963 2,7.625 L 3.3529,9.0625 C 4.5452,7.7957 6.1807,7 8,7 9.8193,7 11.455,7.7957 12.647,9.0625 L 14,7.625 C 12.467,5.9963 10.339,5 8,5 z"
     style="opacity:0.45000000000000001;color:#000000;fill:#999999"
     id="path3956" />
  <path
     inkscape:connector-curvature="0"
     d="M 8,8 C 6.4406,8 5.0219,8.6642 4,9.75 l 1.3235,1.4062 c 0.6813,-0.724 1.6369,-1.156 2.6765,-1.156 1.0396,0 1.9952,0.43239 2.6765,1.1562 l 1.324,-1.406 c -1.022,-1.0858 -2.4406,-1.75 -4,-1.75 z"
     style="opacity:0.45000000000000001;color:#000000;fill:#999999"
     id="path3954" />
  <path
     inkscape:connector-curvature="0"
     d="M 8,11 C 7.2203,11 6.511,11.332 6,11.875 L 8,14 10,11.875 C 9.489,11.332 8.7797,11 8,11 z"
     style="color:#000000;fill:#999999"
     id="path3909" />
</svg>
