<?xml version="1.0" encoding="UTF-8" standalone="no"?>
<!-- Created with Inkscape (http://www.inkscape.org/) -->

<svg
   xmlns:dc="http://purl.org/dc/elements/1.1/"
   xmlns:cc="http://creativecommons.org/ns#"
   xmlns:rdf="http://www.w3.org/1999/02/22-rdf-syntax-ns#"
   xmlns:svg="http://www.w3.org/2000/svg"
   xmlns="http://www.w3.org/2000/svg"
   xmlns:sodipodi="http://sodipodi.sourceforge.net/DTD/sodipodi-0.dtd"
   xmlns:inkscape="http://www.inkscape.org/namespaces/inkscape"
   id="svg2"
   height="16"
   width="16"
   version="1.0"
   inkscape:version="0.48.5 r10040"
   sodipodi:docname="network-wired-disconnected-symbolic.svg">
  <defs
     id="defs213594" />
  <sodipodi:namedview
     pagecolor="#ffffff"
     bordercolor="#666666"
     borderopacity="1"
     objecttolerance="10"
     gridtolerance="10"
     guidetolerance="10"
     inkscape:pageopacity="0"
     inkscape:pageshadow="2"
     inkscape:window-width="640"
     inkscape:window-height="480"
     id="namedview213592"
     showgrid="false"
     inkscape:zoom="14.75"
     inkscape:cx="8"
     inkscape:cy="-5.559322"
     inkscape:window-x="0"
     inkscape:window-y="24"
     inkscape:window-maximized="0"
     inkscape:current-layer="svg2" />
  <metadata
     id="metadata7">
    <rdf:RDF>
      <cc:Work
         rdf:about="">
        <dc:format>image/svg+xml</dc:format>
        <dc:type
           rdf:resource="http://purl.org/dc/dcmitype/StillImage" />
        <dc:title />
      </cc:Work>
    </rdf:RDF>
  </metadata>
  <path
     inkscape:connector-curvature="0"
     d="m 5.2019,-11.889 c -0.021495,0.009 -0.04239,0.01947 -0.0625,0.03125 l -1.9688,1.9688 c -0.098992,0.09781 -0.15658,0.23603 -0.15625,0.375 v 1.5312 l -1.8125,1.7812 c -0.26923,0.26923 -0.26923,0.73077 0,1 0.26923,0.26923 0.73077,0.26923 1,0 l 1.7812,-1.8125 h 1.5312 c 0.13907,-5.6e-5 0.27723,-0.05762 0.375,-0.15625 l 1.9688,-1.9688 c 0.010849,-0.01 0.021278,-0.0204 0.03125,-0.03125 3.103e-4,-0.01041 3.103e-4,-0.02084 0,-0.03125 l -2.6875,-2.6875 z"
     style="opacity:0.29999999999999999;fill:#ffffff"
     id="path3691" />
  <path
     inkscape:connector-curvature="0"
     d="m 10.785,-12.097 c 0.0215,-0.009 0.04239,-0.01947 0.0625,-0.03125 l 1.9688,-1.9688 c 0.09899,-0.09781 0.15658,-0.23603 0.15625,-0.375 v -1.5312 l 1.8125,-1.7813 c 0.26923,-0.26923 0.26923,-0.73077 0,-1 -0.26923,-0.26923 -0.73077,-0.26923 -1,0 l -1.7812,1.8125 h -1.5312 c -0.13907,5.6e-5 -0.27723,0.05762 -0.375,0.15625 l -1.9687,1.9688 c -0.010849,0.01 -0.021278,0.0204 -0.03125,0.03125 -3.103e-4,0.01041 -3.103e-4,0.02084 0,0.03125 l 2.6875,2.6875 z"
     style="opacity:0.29999999999999999;fill:#ffffff"
     id="path2971" />
  <path
     inkscape:connector-curvature="0"
     d="M 4.8438,8 C 4.7353,8.0357 4.637,8.1012 4.5625,8.1875 L 2.1875,10.562 C 2.0716,10.677 2.0029,10.837 2,11 v 1.875 l -1.75,1.75 c -0.31442,0.31442 -0.31442,0.81058 0,1.125 0.31442,0.31442 0.81058,0.31442 1.125,0 L 3.125,14 H 5 c 0.1627,-0.0033 0.32313,-0.07206 0.4375,-0.1875 l 2.375,-2.375 c 0.22391,-0.23233 0.22391,-0.64267 0,-0.875 L 5.4375,8.188 C 5.2896,8.0296 5.0561,7.9559 4.8438,8.0005 z"
     style="opacity:0.45000000000000001;fill:#ffffff"
     id="path3708" />
  <path
     inkscape:connector-curvature="0"
     d="m 11.16,7.9723 c 0.1084,-0.035684 0.20675,-0.10125 0.28125,-0.1875 l 2.375,-2.375 c 0.11586,-0.11443 0.18464,-0.27492 0.1875,-0.4375 v -1.875 l 1.75,-1.75 c 0.31442,-0.31442 0.31442,-0.81058 0,-1.125 -0.31442,-0.31442 -0.81058,-0.31442 -1.125,0 l -1.75,1.75 h -1.875 c -0.1627,0.0033 -0.32313,0.072059 -0.4375,0.1875 l -2.375,2.375 c -0.22391,0.23233 -0.22391,0.64267 0,0.875 l 2.375,2.375 c 0.14793,0.15838 0.38136,0.2321 0.59375,0.1875 z"
     style="opacity:0.45000000000000001;fill:#ffffff"
     id="path3713" />
</svg>
