<?xml version="1.0" encoding="UTF-8" standalone="no"?>
<!-- Created with Inkscape (http://www.inkscape.org/) -->

<svg
   xmlns:dc="http://purl.org/dc/elements/1.1/"
   xmlns:cc="http://creativecommons.org/ns#"
   xmlns:rdf="http://www.w3.org/1999/02/22-rdf-syntax-ns#"
   xmlns:svg="http://www.w3.org/2000/svg"
   xmlns="http://www.w3.org/2000/svg"
   xmlns:sodipodi="http://sodipodi.sourceforge.net/DTD/sodipodi-0.dtd"
   xmlns:inkscape="http://www.inkscape.org/namespaces/inkscape"
   id="svg2"
   height="16"
   width="16"
   version="1.0"
   inkscape:version="0.48.5 r10040"
   sodipodi:docname="network-vpn-acquiring-symbolic.svg">
  <defs
     id="defs213557" />
  <sodipodi:namedview
     pagecolor="#ffffff"
     bordercolor="#666666"
     borderopacity="1"
     objecttolerance="10"
     gridtolerance="10"
     guidetolerance="10"
     inkscape:pageopacity="0"
     inkscape:pageshadow="2"
     inkscape:window-width="640"
     inkscape:window-height="480"
     id="namedview213555"
     showgrid="false"
     inkscape:zoom="14.75"
     inkscape:cx="8"
     inkscape:cy="8"
     inkscape:window-x="0"
     inkscape:window-y="24"
     inkscape:window-maximized="0"
     inkscape:current-layer="svg2" />
  <metadata
     id="metadata7">
    <rdf:RDF>
      <cc:Work
         rdf:about="">
        <dc:format>image/svg+xml</dc:format>
        <dc:type
           rdf:resource="http://purl.org/dc/dcmitype/StillImage" />
        <dc:title />
      </cc:Work>
    </rdf:RDF>
  </metadata>
  <g
     id="layer1"
     style="fill:#f9f9f9">
    <path
       id="path3708"
       style="opacity:0.45000000000000001;fill:#f9f9f9"
       d="m15.188 0c-0.203 0-0.406 0.06154-0.563 0.21875l-2.75 2.75h-1.875a0.63313 0.63137 0 0 0 -0.4375 0.1874l-2.375 2.375a0.63313 0.63137 0 0 0 0 0.875l2.375 2.375a0.63313 0.63137 0 0 0 0.5935 0.1876 0.63313 0.63137 0 0 0 0.282 -0.1876l2.374-2.375a0.63313 0.63137 0 0 0 0.188 -0.4374v-1.875l2.75-2.75c0.314-0.3145 0.314-0.81063 0-1.125-0.157-0.15726-0.36-0.2188-0.562-0.2188zm-9.3442 7a0.63313 0.63137 0 0 0 -0.2813 0.1875l-2.375 2.375a0.63313 0.63137 0 0 0 -0.1875 0.4375v1.875l-2.75 2.75c-0.31442 0.314-0.31442 0.811 0 1.125s0.8106 0.314 1.125 0l2.75-2.75h1.875a0.63313 0.63137 0 0 0 0.4375 -0.188l2.375-2.374a0.63313 0.63137 0 0 0 0 -0.8755l-2.375-2.375a0.63313 0.63137 0 0 0 -0.5937 -0.1875z" />
    <path
       id="rect3648"
       style="color:#000000;fill:#f9f9f9"
       d="m11.625 9c-0.346 0-0.625 0.2788-0.625 0.625v2.375h-0.375c-0.346 0-0.625 0.279-0.625 0.625v2.75c0 0.346 0.279 0.625 0.625 0.625h4.75c0.346 0 0.625-0.279 0.625-0.625v-2.75c0-0.346-0.279-0.625-0.625-0.625h-0.375v-2.375c0-0.3462-0.279-0.625-0.625-0.625zm0.375 1h2v2h-2z" />
    <path
       id="path3876"
       d="m10 15a1 1 0 1 1 -2 0 1 1 0 1 1 2 0z"
       style="color:#000000;fill:#f9f9f9"
       transform="translate(-1)" />
    <path
       id="path3878"
       d="m10 15a1 1 0 1 1 -2 0 1 1 0 1 1 2 0z"
       style="color:#000000;fill:#f9f9f9"
       transform="translate(-4)" />
  </g>
</svg>
