<?xml version="1.0" encoding="UTF-8" standalone="no"?>
<!-- Created with Inkscape (http://www.inkscape.org/) -->

<svg
   xmlns:dc="http://purl.org/dc/elements/1.1/"
   xmlns:cc="http://creativecommons.org/ns#"
   xmlns:rdf="http://www.w3.org/1999/02/22-rdf-syntax-ns#"
   xmlns:svg="http://www.w3.org/2000/svg"
   xmlns="http://www.w3.org/2000/svg"
   xmlns:sodipodi="http://sodipodi.sourceforge.net/DTD/sodipodi-0.dtd"
   xmlns:inkscape="http://www.inkscape.org/namespaces/inkscape"
   id="svg2"
   height="16"
   width="16"
   version="1.0"
   inkscape:version="0.48.5 r10040"
   sodipodi:docname="network-error-symbolic.svg">
  <defs
     id="defs213423" />
  <sodipodi:namedview
     pagecolor="#ffffff"
     bordercolor="#666666"
     borderopacity="1"
     objecttolerance="10"
     gridtolerance="10"
     guidetolerance="10"
     inkscape:pageopacity="0"
     inkscape:pageshadow="2"
     inkscape:window-width="640"
     inkscape:window-height="480"
     id="namedview213421"
     showgrid="false"
     inkscape:zoom="14.75"
     inkscape:cx="8"
     inkscape:cy="8"
     inkscape:window-x="0"
     inkscape:window-y="24"
     inkscape:window-maximized="0"
     inkscape:current-layer="svg2" />
  <metadata
     id="metadata7">
    <rdf:RDF>
      <cc:Work
         rdf:about="">
        <dc:format>image/svg+xml</dc:format>
        <dc:type
           rdf:resource="http://purl.org/dc/dcmitype/StillImage" />
        <dc:title />
      </cc:Work>
    </rdf:RDF>
  </metadata>
  <path
     inkscape:connector-curvature="0"
     d="m 15.188,0 c -0.203,0 -0.406,0.06154 -0.563,0.21875 l -2.75,2.75 H 10 a 0.63313,0.63137 0 0 0 -0.4375,0.1875 l -2.375,2.375 a 0.63313,0.63137 0 0 0 0,0.875 l 2.375,2.375 a 0.63313,0.63137 0 0 0 0.59375,0.1875 0.63313,0.63137 0 0 0 0.28125,-0.1875 l 2.375,-2.375 a 0.63313,0.63137 0 0 0 0.187,-0.4375 v -1.875 l 2.75,-2.75 c 0.31442,-0.31442 0.31442,-0.81058 0,-1.125 -0.157,-0.15726 -0.36,-0.2188 -0.562,-0.2188 z M 5.8438,7 A 0.63313,0.63137 0 0 0 5.5625,7.1875 l -2.375,2.375 A 0.63313,0.63137 0 0 0 3,10 v 1.875 l -2.75,2.75 c -0.31442,0.31442 -0.31442,0.81058 0,1.125 0.31442,0.31442 0.81058,0.31442 1.125,0 L 4.125,13 H 6 a 0.63313,0.63137 0 0 0 0.4375,-0.1875 l 2.375,-2.375 a 0.63313,0.63137 0 0 0 0,-0.875 L 6.4375,7.188 A 0.63313,0.63137 0 0 0 5.8438,7.0005 z"
     style="opacity:0.45000000000000001;fill:#999999"
     id="path3708" />
  <path
     inkscape:connector-curvature="0"
     d="m 10.006,11.505 1.4984,-1.4984 1.4984,1.4984 1.4984,-1.4984 1.5,1.498 -1.498,1.498 1.498,1.499 -1.498,1.498 -1.499,-1.498 -1.498,1.498 -1.499,-1.498 1.499,-1.499 -1.499,-1.498 z"
     style="fill:#ff2a2a"
     class="error"
     id="path2922" />
</svg>
