<?xml version="1.0" encoding="UTF-8" standalone="no"?>
<!-- Created with Inkscape (http://www.inkscape.org/) -->

<svg
   xmlns:dc="http://purl.org/dc/elements/1.1/"
   xmlns:cc="http://creativecommons.org/ns#"
   xmlns:rdf="http://www.w3.org/1999/02/22-rdf-syntax-ns#"
   xmlns:svg="http://www.w3.org/2000/svg"
   xmlns="http://www.w3.org/2000/svg"
   xmlns:sodipodi="http://sodipodi.sourceforge.net/DTD/sodipodi-0.dtd"
   xmlns:inkscape="http://www.inkscape.org/namespaces/inkscape"
   id="svg2"
   height="16"
   width="16"
   version="1.0"
   inkscape:version="0.48.5 r10040"
   sodipodi:docname="network-cellular-4g-symbolic.svg">
  <defs
     id="defs213288" />
  <sodipodi:namedview
     pagecolor="#ffffff"
     bordercolor="#666666"
     borderopacity="1"
     objecttolerance="10"
     gridtolerance="10"
     guidetolerance="10"
     inkscape:pageopacity="0"
     inkscape:pageshadow="2"
     inkscape:window-width="640"
     inkscape:window-height="480"
     id="namedview213286"
     showgrid="false"
     inkscape:zoom="14.75"
     inkscape:cx="8"
     inkscape:cy="8"
     inkscape:window-x="0"
     inkscape:window-y="24"
     inkscape:window-maximized="0"
     inkscape:current-layer="svg2" />
  <metadata
     id="metadata7">
    <rdf:RDF>
      <cc:Work
         rdf:about="">
        <dc:format>image/svg+xml</dc:format>
        <dc:type
           rdf:resource="http://purl.org/dc/dcmitype/StillImage" />
        <dc:title />
      </cc:Work>
    </rdf:RDF>
  </metadata>
  <g
     id="layer1"
     transform="translate(0,-6)"
     style="fill:#ffffff">
    <path
       id="rect3085"
       d="m1 2c-0.554 0-1 0.446-1 1v10c0 0.554 0.446 1 1 1h14c0.554 0 1-0.446 1-1v-10c0-0.554-0.446-1-1-1h-14zm2 2h1v3h3v4c0 0.554-0.446 1-1 1h-1v-3h-3v-4c0-0.554 0.446-1 1-1zm5.5 0h5c0.277 0 0.5 0.223 0.5 0.5v1.5h-4v4h2v-1h-1v-2h3v4.5c0 0.277-0.223 0.5-0.5 0.5h-5c-0.277 0-0.5-0.223-0.5-0.5v-7c0-0.277 0.223-0.5 0.5-0.5z"
       style="color:#000000;fill:#ffffff"
       transform="translate(0,6)" />
    <rect
       id="rect3879"
       style="color:#000000;fill:#ffffff"
       rx="1"
       height="12"
       width="16"
       y="8"
       x="-20" />
    <path
       id="path3883"
       style="color:#000000;fill:#ffffff"
       d="m-11.5 10c-0.277 0-0.5 0.223-0.5 0.5v7c0 0.277 0.223 0.5 0.5 0.5h5c0.277 0 0.5-0.223 0.5-0.5v-4.5h-3v2h1v1h-2v-4h4v-1.5c0-0.277-0.223-0.5-0.5-0.5h-5z" />
    <path
       id="rect3906"
       style="color:#000000;fill:#ffffff"
       d="m-17 10c-0.554 0-1 0.446-1 1v4h3v3h1c0.554 0 1-0.446 1-1v-4h-3v-3z" />
  </g>
</svg>
