<?xml version="1.0" encoding="UTF-8" standalone="no"?>
<!-- Created with Inkscape (http://www.inkscape.org/) -->

<svg
   xmlns:dc="http://purl.org/dc/elements/1.1/"
   xmlns:cc="http://creativecommons.org/ns#"
   xmlns:rdf="http://www.w3.org/1999/02/22-rdf-syntax-ns#"
   xmlns:svg="http://www.w3.org/2000/svg"
   xmlns="http://www.w3.org/2000/svg"
   xmlns:sodipodi="http://sodipodi.sourceforge.net/DTD/sodipodi-0.dtd"
   xmlns:inkscape="http://www.inkscape.org/namespaces/inkscape"
   id="svg2"
   height="16"
   width="16"
   version="1.0"
   inkscape:version="0.48.5 r10040"
   sodipodi:docname="non-starred-symbolic.svg">
  <defs
     id="defs214281" />
  <sodipodi:namedview
     pagecolor="#ffffff"
     bordercolor="#666666"
     borderopacity="1"
     objecttolerance="10"
     gridtolerance="10"
     guidetolerance="10"
     inkscape:pageopacity="0"
     inkscape:pageshadow="2"
     inkscape:window-width="640"
     inkscape:window-height="480"
     id="namedview214279" />
  <metadata
     id="metadata7">
    <rdf:RDF>
      <cc:Work
         rdf:about="">
        <dc:format>image/svg+xml</dc:format>
        <dc:type
           rdf:resource="http://purl.org/dc/dcmitype/StillImage" />
        <dc:title />
      </cc:Work>
    </rdf:RDF>
  </metadata>
  <g
     id="layer1"
     transform="translate(0,-6)">
    <path
       id="path3841"
       d="m8 1.4688l-2.1562 4.375-4.8126 0.7187 3.4688 3.4063-0.8125 4.8122 4.3125-2.281 4.312 2.281-0.812-4.8122 3.5-3.4063-4.844-0.7187-2.156-4.375zm0.0312 2.0937l1.2813 2.6875a0.93319 0.93319 0 0 0 0.7185 0.5l2.969 0.4375-2.156 2.0937a0.93319 0.93319 0 0 0 -0.282 0.8128l0.532 2.968-2.6565-1.406a0.93319 0.93319 0 0 0 -0.875 0l-2.6563 1.406 0.5-2.968a0.93319 0.93319 0 0 0 -0.25 -0.8128l-2.1562-2.0624 3-0.4376a0.93319 0.93319 0 0 0 0.6875 -0.5l1.3437-2.7187z"
       style="color:#000000;fill:#bebebe"
       transform="translate(0,6)" />
  </g>
</svg>
