<?xml version="1.0" encoding="UTF-8" standalone="no"?>
<!-- Created with Inkscape (http://www.inkscape.org/) -->

<svg
   xmlns:dc="http://purl.org/dc/elements/1.1/"
   xmlns:cc="http://creativecommons.org/ns#"
   xmlns:rdf="http://www.w3.org/1999/02/22-rdf-syntax-ns#"
   xmlns:svg="http://www.w3.org/2000/svg"
   xmlns="http://www.w3.org/2000/svg"
   xmlns:xlink="http://www.w3.org/1999/xlink"
   xmlns:sodipodi="http://sodipodi.sourceforge.net/DTD/sodipodi-0.dtd"
   xmlns:inkscape="http://www.inkscape.org/namespaces/inkscape"
   id="svg11037"
   height="96"
   width="96"
   version="1.1"
   inkscape:version="0.48.5 r10040"
   sodipodi:docname="printer-error.svg">
  <sodipodi:namedview
     pagecolor="#ffffff"
     bordercolor="#666666"
     borderopacity="1"
     objecttolerance="10"
     gridtolerance="10"
     guidetolerance="10"
     inkscape:pageopacity="0"
     inkscape:pageshadow="2"
     inkscape:window-width="640"
     inkscape:window-height="480"
     id="namedview215245" />
  <defs
     id="defs11039">
    <clipPath
       id="clipPath3009"
       clipPathUnits="userSpaceOnUse">
      <path
         id="path3011"
         style="opacity:.15;fill:#fff"
         d="m-2 956.36h-96v33.562l96 25.687v-59.25z" />
    </clipPath>
    <linearGradient
       id="linearGradient3642"
       y2="11.465"
       gradientUnits="userSpaceOnUse"
       x2="48"
       gradientTransform="matrix(.90380 0 0 .90380 4.6178 4.6178)"
       y1="61.848"
       x1="48">
      <stop
         id="stop4131"
         style="stop-color:#0c0c0c"
         offset="0" />
      <stop
         id="stop4133"
         style="stop-color:#2c2c2c"
         offset=".08693" />
      <stop
         id="stop4135"
         style="stop-color:#353535"
         offset=".09784" />
      <stop
         id="stop4137"
         style="stop-color:#383838"
         offset=".5972" />
      <stop
         id="stop4139"
         style="stop-color:#484848"
         offset=".60162" />
      <stop
         id="stop4141"
         style="stop-color:#151515"
         offset="1" />
    </linearGradient>
    <linearGradient
       id="linearGradient3765"
       y2="46.896"
       xlink:href="#linearGradient3759"
       gradientUnits="userSpaceOnUse"
       x2="11"
       gradientTransform="matrix(1 0 0 .58612 10 -14.334)"
       y1="84"
       x1="11" />
    <linearGradient
       id="linearGradient3759">
      <stop
         id="stop3761"
         offset="0" />
      <stop
         id="stop3763"
         style="stop-opacity:0"
         offset="1" />
    </linearGradient>
    <linearGradient
       id="linearGradient4039"
       y2="15.672"
       gradientUnits="userSpaceOnUse"
       x2="19"
       y1="54"
       x1="19">
      <stop
         id="stop4035"
         style="stop-color:#fff"
         offset="0" />
      <stop
         id="stop4037"
         style="stop-color:#fff;stop-opacity:0"
         offset="1" />
    </linearGradient>
    <linearGradient
       id="linearGradient3613"
       y2="138.66"
       xlink:href="#linearGradient3737"
       gradientUnits="userSpaceOnUse"
       x2="48"
       y1="20.221"
       x1="48" />
    <linearGradient
       id="linearGradient3737">
      <stop
         id="stop3739"
         style="stop-color:#fff"
         offset="0" />
      <stop
         id="stop3741"
         style="stop-color:#fff;stop-opacity:0"
         offset="1" />
    </linearGradient>
    <clipPath
       id="clipPath3613">
      <rect
         id="rect3615"
         style="fill:#fff"
         rx="6"
         ry="6"
         height="84"
         width="84"
         y="6"
         x="6" />
    </clipPath>
    <filter
       id="filter3794"
       height="1.384"
       width="1.384"
       y="-.192"
       x="-.192"
       color-interpolation-filters="sRGB">
      <feGaussianBlur
         id="feGaussianBlur3796"
         stdDeviation="5.28" />
    </filter>
    <clipPath
       id="clipPath3782">
      <path
         id="path3784"
         style="fill:#f0f"
         d="m20.156 18c-1.187 0-2.156 0.892-2.156 2v70h60v-70c0-1.108-0.96911-2-2.1562-2h-55.688z" />
    </clipPath>
    <filter
       id="filter4143"
       height="1.168"
       width="1.224"
       y="-.084"
       x="-.112"
       color-interpolation-filters="sRGB">
      <feGaussianBlur
         id="feGaussianBlur4145"
         stdDeviation="2.8" />
    </filter>
    <linearGradient
       id="linearGradient3251"
       y2="5.9877"
       gradientUnits="userSpaceOnUse"
       x2="48"
       y1="90"
       x1="48">
      <stop
         id="stop3624"
         style="stop-color:#bebebe"
         offset="0" />
      <stop
         id="stop3626"
         style="stop-color:#e6e6e6"
         offset="1" />
    </linearGradient>
    <linearGradient
       id="linearGradient3254"
       y2="51.892"
       gradientUnits="userSpaceOnUse"
       x2="48"
       y1="66.469"
       x1="48">
      <stop
         id="stop3821"
         style="stop-color:#969696"
         offset="0" />
      <stop
         id="stop3823"
         style="stop-color:#808080;stop-opacity:0"
         offset="1" />
    </linearGradient>
    <linearGradient
       id="linearGradient4186"
       y2="73"
       xlink:href="#linearGradient3236"
       gradientUnits="userSpaceOnUse"
       x2="24"
       y1="73"
       x1="6" />
    <linearGradient
       id="linearGradient3236">
      <stop
         id="stop3238"
         style="stop-color:#818181"
         offset="0" />
      <stop
         id="stop3242"
         style="stop-color:#f9f9f9"
         offset=".2" />
      <stop
         id="stop3240"
         style="stop-color:#dcdcdc;stop-opacity:0"
         offset="1" />
    </linearGradient>
    <linearGradient
       id="linearGradient4088"
       y2="61.4"
       gradientUnits="userSpaceOnUse"
       x2="58.929"
       y1="72.179"
       x1="58.929">
      <stop
         id="stop4084"
         offset="0" />
      <stop
         id="stop4086"
         style="stop-color:#1f1f1f"
         offset="1" />
    </linearGradient>
    <linearGradient
       id="linearGradient4188"
       y2="73"
       xlink:href="#linearGradient3236"
       gradientUnits="userSpaceOnUse"
       x2="24"
       gradientTransform="matrix(-1,0,0,1,96,0)"
       y1="73"
       x1="6" />
    <linearGradient
       id="linearGradient3977"
       y2="69.628"
       xlink:href="#linearGradient3737"
       gradientUnits="userSpaceOnUse"
       x2="27.321"
       gradientTransform="translate(1 .53571)"
       y1="61.397"
       x1="27.321" />
    <linearGradient
       id="linearGradient4078"
       y2="56.171"
       xlink:href="#linearGradient3759"
       gradientUnits="userSpaceOnUse"
       x2="27.829"
       y1="65.136"
       x1="27.829" />
    <radialGradient
       id="radialGradient4115"
       xlink:href="#linearGradient3737"
       gradientUnits="userSpaceOnUse"
       cy="62.5"
       cx="48"
       gradientTransform="matrix(1 0 0 .030612 .17857 60.83)"
       r="28" />
    <radialGradient
       id="radialGradient3886"
       gradientUnits="userSpaceOnUse"
       cy="64.02"
       cx="12"
       gradientTransform="matrix(1.0714 0 0 .4375 -.85714 4.4375)"
       r="4">
      <stop
         id="stop3882"
         style="stop-color:#59d338"
         offset="0" />
      <stop
         id="stop3884"
         style="stop-color:#289140"
         offset="1" />
    </radialGradient>
    <linearGradient
       id="linearGradient3556"
       y2="85.062"
       gradientUnits="userSpaceOnUse"
       x2="20.179"
       y1="85.062"
       x1="16">
      <stop
         id="stop3378-8"
         style="stop-color:#767676"
         offset="0" />
      <stop
         id="stop3380-0"
         style="stop-color:#fdfdfd"
         offset="1" />
    </linearGradient>
    <radialGradient
       id="radialGradient2984"
       gradientUnits="userSpaceOnUse"
       cy="85.062"
       cx="18.089"
       gradientTransform="matrix(1 0 0 1.0043 0 -.36352)"
       r="2.0893">
      <stop
         id="stop3368-6"
         style="stop-color:#c1ff97"
         offset="0" />
      <stop
         id="stop3370-5"
         style="stop-color:#30c700"
         offset="1" />
    </radialGradient>
    <clipPath
       id="clipPath3652"
       clipPathUnits="userSpaceOnUse">
      <rect
         id="rect3654"
         style="fill:url(#linearGradient3656)"
         rx="22.826"
         ry="22.772"
         height="83.8"
         width="84"
         y="6.2"
         x="6" />
    </clipPath>
    <linearGradient
       id="linearGradient3656"
       y2="1046.1"
       gradientUnits="userSpaceOnUse"
       x2="48"
       gradientTransform="matrix(1.05 0 0 1.0475 -2.4 -1004)"
       y1="962.62"
       x1="48">
      <stop
         id="stop3797"
         style="stop-color:#13a6fd"
         offset="0" />
      <stop
         id="stop3799"
         style="stop-color:#2975b6"
         offset="1" />
    </linearGradient>
    <linearGradient
       id="linearGradient3330"
       y2="120.01"
       gradientUnits="userSpaceOnUse"
       x2="68.458"
       gradientTransform="matrix(-.25893 0 0 -.25893 64.571 56.571)"
       y1="8"
       x1="68.458">
      <stop
         id="stop3292"
         style="stop-color:#ba0000"
         offset="0" />
      <stop
         id="stop3294"
         style="stop-color:#ff331e"
         offset="1" />
    </linearGradient>
    <linearGradient
       id="linearGradient4136"
       y2="73.433"
       gradientUnits="userSpaceOnUse"
       y1="25.606"
       x2="51.466"
       x1="51.466">
      <stop
         id="stop3867"
         style="stop-color:#fff6d5"
         offset="0" />
      <stop
         id="stop3869"
         style="stop-color:#fff6d5;stop-opacity:0"
         offset="1" />
    </linearGradient>
  </defs>
  <metadata
     id="metadata11042">
    <rdf:RDF>
      <cc:Work
         rdf:about="">
        <dc:format>image/svg+xml</dc:format>
        <dc:type
           rdf:resource="http://purl.org/dc/dcmitype/StillImage" />
        <dc:title />
      </cc:Work>
    </rdf:RDF>
  </metadata>
  <g
     id="layer1"
     transform="translate(0 -956.36)">
    <g
       id="g3522"
       clip-path="url(#clipPath3652)"
       transform="matrix(1.0952 0 0 1.0979 -4.5714 951.56)">
      <g
         id="layer1-8"
         style="opacity:.98">
        <rect
           id="rect3631"
           style="fill:url(#linearGradient3642)"
           rx="5.4228"
           ry="5.4228"
           height="75.919"
           width="75.919"
           y="10.041"
           x="10.041" />
        <path
           id="rect3662"
           style="opacity:.2;fill:url(#linearGradient3765)"
           d="m21 13.8v42.2h1v-42.2h-1zm3 0v42.2h1v-42.2h-1zm3 0v42.2h1v-42.2h-1zm3 0v42.2h1v-42.2h-1zm3 0v42.2h1v-42.2h-1zm3 0v42.2h1v-42.2h-1zm3 0v42.2h1v-42.2h-1zm3 0v42.2h1v-42.2h-1zm3 0v42.2h1v-42.2h-1zm3 0v42.2h1v-42.2h-1zm3 0v42.2h1v-42.2h-1zm3 0v42.2h1v-42.2h-1zm3 0v42.2h1v-42.2h-1zm3 0v42.2h1v-42.2h-1zm3 0v42.2h1v-42.2h-1zm3 0v42.2h1v-42.2h-1zm3 0v42.2h1v-42.2h-1zm3 0v42.2h1v-42.2h-1zm3 0v42.2h1v-42.2h-1z" />
        <path
           id="rect3658"
           style="opacity:.1;fill:url(#linearGradient4039)"
           d="m19 14v42h1v-42h-1zm3 0v42h1v-42h-1zm3 0v42h1v-42h-1zm3 0v42h1v-42h-1zm3 0v42h1v-42h-1zm3 0v42h1v-42h-1zm3 0v42h1v-42h-1zm3 0v42h1v-42h-1zm3 0v42h1v-42h-1zm3 0v42h1v-42h-1zm3 0v42h1v-42h-1zm3 0v42h1v-42h-1zm3 0v42h1v-42h-1zm3 0v42h1v-42h-1zm3 0v42h1v-42h-1zm3 0v42h1v-42h-1zm3 0v42h1v-42h-1zm3 0v42h1v-42h-1zm3 0v42h1v-42h-1zm3 0v42h1v-42h-1z" />
        <rect
           id="rect3650"
           style="fill:#111"
           height="1"
           width="66"
           y="48"
           x="15" />
        <rect
           id="rect3804"
           style="fill:#111"
           height="4"
           width="8"
           y="49"
           x="44" />
        <rect
           id="rect4199"
           rx=".5"
           ry=".5"
           height="1"
           width="54"
           y="16"
           x="21" />
      </g>
      <g
         id="layer5">
        <rect
           id="rect3171"
           style="opacity:.1;filter:url(#filter3794);stroke:#fff;stroke-linecap:round;stroke-width:.5;fill:url(#linearGradient3613)"
           clip-path="url(#clipPath3613)"
           rx="12"
           ry="12"
           height="66"
           width="66"
           y="15"
           x="15" />
      </g>
      <g
         id="layer4">
        <rect
           id="rect3774"
           style="opacity:.7;filter:url(#filter4143);stroke:#000;stroke-width:2;fill:none"
           clip-path="url(#clipPath3782)"
           rx="2.1429"
           ry="2"
           transform="translate(0,-4)"
           width="60"
           y="18"
           x="18"
           height="80" />
      </g>
      <path
         id="rect2419"
         style="fill:url(#linearGradient3251)"
         d="m12 6c-3.324 0-6 2.676-6 6v62c0 3.324 2.676 6 6 6h72c3.324 0 6-2.676 6-6v-62c0-3.324-2.676-6-6-6h-72zm8.1562 8h55.688c1.187 0 2.156 0.892 2.156 2v32l-2 2v12h-56v-12l-2-2v-32c0-1.108 0.96911-2 2.1562-2z" />
      <path
         id="path3237"
         style="opacity:.98;fill:url(#linearGradient3254)"
         d="m6 50v24c0 3.324 2.676 6 6 6h72c3.324 0 6-2.676 6-6v-24c0 3.324-2.676 6-6 6h-8v6h-56v-6h-8c-3.324 0-6-2.676-6-6z" />
      <path
         id="path4028"
         style="opacity:.98;fill:#424242"
         d="m6 72v12c0 3.324 2.676 6 6 6h72c3.324 0 6-2.676 6-6v-12c0 3.324-2.676 6-6 6h-72c-3.324 0-6-2.676-6-6z" />
      <path
         id="path3837"
         style="opacity:.6;fill:#fff"
         d="m19.156 13c-1.187 0-2.156 0.892-2.156 2v32l1 1v-32c0-1.108 0.96911-2 2.1562-2h55.688c1.187 0 2.156 0.892 2.156 2v32l1-1v-32c0-1.108-0.96911-2-2.1562-2h-57.688zm-0.156 36v6l-1 1h2v-6l-1-1zm58 0-1 1v6h2l-1-1v-6z" />
      <path
         id="rect3222"
         style="opacity:.15;fill:url(#linearGradient4186)"
         d="m6 50v34c0 3.324 2.676 6 6 6h12v-34h-12c-3.324 0-6-2.676-6-6z" />
      <path
         id="path4080"
         style="fill:url(#linearGradient4088)"
         d="m20 62c0 5.54 12.488 10 28 10s28-4.46 28-10h-56z" />
      <path
         id="path3244"
         style="opacity:.15;fill:url(#linearGradient4188)"
         d="m90 50c0 3.324-2.676 6-6 6h-12v34h12c3.324 0 6-2.676 6-6v-34z" />
      <path
         id="path4090"
         style="opacity:.6;fill:url(#linearGradient3977)"
         d="m21 62.536c0 2.2329 2.0623 4.2768 5.5 5.9375 6.264-2.5934 14.152-4.6463 23.062-5.9375h-28.562z" />
      <path
         id="path4060"
         style="fill:url(#linearGradient4078)"
         d="m20 56v6c0 5.54 12.488 10 28 10s28-4.46 28-10v-6h-1v5.9995c0 1.0055-0.56954 2.0455-1.8438 3.125-1.2742 1.0795-3.234 2.1237-5.6875 3-4.907 1.753-11.81 2.875-19.469 2.875s-14.562-1.122-19.469-2.875c-2.4535-0.87626-4.4133-1.9205-5.6875-3-1.274-1.079-1.844-2.12-1.844-3.125v-6h-1z" />
      <rect
         id="rect4070"
         y="61"
         width="54"
         height="1"
         x="21" />
      <path
         id="path4117"
         style="opacity:.4;fill:#fff"
         d="m19 56v7c0 5.54 12.934 10 29 10s29-4.46 29-10v-7h-1v6c0 5.54-12.488 10-28 10s-28-4.46-28-10v-6h-1z" />
      <path
         id="path4123"
         style="opacity:.3"
         d="m6 71v2c0 3.324 2.676 6 6 6h72c3.324 0 6-2.676 6-6v-2c0 3.324-2.676 6-6 6h-72c-3.324 0-6-2.676-6-6z" />
      <path
         id="path3974"
         style="opacity:.5;fill:#fff"
         d="m6 49v1c0 3.324 2.676 6 6 6h8v-1h-8c-3.324 0-6-2.676-6-6zm84 0c0 3.324-2.676 6-6 6h-8v1h8c3.324 0 6-2.676 6-6v-1z" />
      <path
         id="path4104"
         style="fill:url(#radialGradient4115)"
         d="m20.179 61.886c0 0.57611 0.06646 1.1531 0.15625 1.7143h55.688c0.08979-0.56119 0.15625-1.1382 0.15625-1.7143h-56z" />
      <g
         id="layer7">
        <rect
           id="rect3888"
           style="opacity:.4;fill:#fff"
           rx="1"
           ry="1"
           height="4"
           width="8"
           y="31"
           x="8" />
        <rect
           id="rect3878"
           style="stroke:#008033;stroke-width:.5;fill:url(#radialGradient3886)"
           rx=".53571"
           ry=".4375"
           height="3.5"
           width="7.5"
           y="30.25"
           x="8.25" />
        <path
           id="rect3987"
           style="opacity:.18376"
           d="m8.75 36c-0.4155 0-0.75 0.334-0.75 0.75v2.5c0 0.416 0.3345 0.75 0.75 0.75-0.4155 0-0.75 0.334-0.75 0.75v2.5c0 0.416 0.3345 0.75 0.75 0.75h2.5c0.416 0 0.75-0.334 0.75-0.75 0 0.416 0.334 0.75 0.75 0.75h2.5c0.416 0 0.75-0.334 0.75-0.75v-2.5c0-0.416-0.334-0.75-0.75-0.75 0.416 0 0.75-0.334 0.75-0.75v-2.5c0-0.416-0.334-0.75-0.75-0.75h-2.5c-0.416 0-0.75 0.334-0.75 0.75 0-0.416-0.334-0.75-0.75-0.75h-2.5zm3.25 3.25c0 0.416 0.334 0.75 0.75 0.75-0.416 0-0.75 0.334-0.75 0.75 0-0.416-0.334-0.75-0.75-0.75 0.416 0 0.75-0.334 0.75-0.75z" />
        <rect
           id="rect4019"
           style="fill:#fff"
           rx=".5"
           ry=".5"
           transform="rotate(-90)"
           width="3"
           y="8"
           x="-43"
           height="3" />
        <g
           id="g3318"
           transform="matrix(.99998 0 0 1 -7.4997 -34.5)">
          <path
             id="path3374"
             d="m20.179 85.062a2.0893 2.0982 0 1 1 -4.1786 0 2.0893 2.0982 0 1 1 4.1786 0z"
             style="fill:url(#linearGradient3556)"
             transform="matrix(0 1.6709 1.6638 0 -122.04 53.283)" />
          <path
             id="path3364"
             d="m20.179 85.062a2.0893 2.0982 0 1 1 -4.1786 0 2.0893 2.0982 0 1 1 4.1786 0z"
             style="stroke:#000;stroke-width:.84051;stroke-linecap:square;stroke-opacity:.53182;fill:url(#radialGradient2984)"
             transform="matrix(1.1923 0 0 1.1872 -2.0769 -17.48)" />
        </g>
        <rect
           id="rect4080"
           style="fill:#ff7600"
           height="1"
           width="1"
           y="25"
           x="8" />
        <g
           id="text4082"
           style="fill:#4d4d4d"
           transform="translate(0,-26)">
          <path
             id="path4110"
             d="m10.638 52-0.394-0.696c0.0021 0.01882 0.0041 0.03763 0.0058 0.05645 0.0017 0.01625 0.003 0.03378 0.0038 0.0526 0.0013 0.01882 0.0019 0.03678 0.0019 0.05388v0.53304h-0.16806v-0.9038h0.21617l0.39962 0.70174c-0.0021-0.01796-0.0041-0.03678-0.0058-0.05645-0.0017-0.01668-0.0032-0.03549-0.0045-0.05645-0.000856-0.02095-0.0013-0.04212-0.0013-0.0635v-0.52534h0.16806v0.9038h-0.22194" />
          <path
             id="path4112"
             d="m11.325 52.013c-0.05003 0-0.09515-0.0073-0.13534-0.02181-0.03977-0.01497-0.07377-0.03742-0.10199-0.06735-0.02822-0.03036-0.04982-0.06821-0.06479-0.11354-0.01497-0.04576-0.02245-0.09921-0.02245-0.16036 0-0.06628 0.0088-0.12209 0.0263-0.16742 0.01796-0.04533 0.04191-0.08189 0.07184-0.10969 0.03036-0.02822 0.06521-0.04854 0.10456-0.06094 0.03934-0.0124 0.08082-0.0186 0.12444-0.0186 0.05474 0.000001 0.10135 0.0096 0.13983 0.02886 0.03891 0.01882 0.07077 0.04533 0.09558 0.07954 0.0248 0.03421 0.04298 0.07526 0.05452 0.12316 0.01155 0.04747 0.01732 0.10006 0.01732 0.1578v0.0051h-0.44516c0 0.02908 0.0026 0.05623 0.0077 0.08146 0.0051 0.0248 0.01347 0.0464 0.02502 0.06479 0.01154 0.01796 0.02651 0.03229 0.0449 0.04298 0.01839 0.01026 0.04062 0.01539 0.06671 0.01539 0.03164 0 0.05752-0.0066 0.07761-0.01988 0.0201-0.01368 0.03442-0.03464 0.04298-0.06286l0.16998 0.01475c-0.0077 0.01967-0.0186 0.04062-0.03271 0.06286-0.01369 0.02224-0.03207 0.04276-0.05517 0.06158-0.02309 0.01839-0.05196 0.03378-0.08659 0.04618-0.03421 0.01197-0.0759 0.01796-0.12508 0.01796m0-0.60616c-0.01839 0.000001-0.03571 0.0032-0.05196 0.0096-0.01582 0.006-0.02972 0.01582-0.04169 0.02951-0.01155 0.01326-0.02095 0.03058-0.02822 0.05196-0.0073 0.02138-0.01133 0.04704-0.01219 0.07697h0.26941c-0.0034-0.05602-0.01689-0.09793-0.04041-0.12572-0.02352-0.02822-0.05517-0.04233-0.09493-0.04234" />
          <path
             id="path4114"
             d="m11.95 52.012c-0.05303 0-0.09387-0.01433-0.12252-0.04298-0.02865-0.02908-0.04298-0.07291-0.04298-0.1315v-0.40924h-0.08788v-0.12188h0.09686l0.05645-0.16293h0.11289v0.16293h0.1315v0.12188h-0.1315v0.36049c0 0.03378 0.0064 0.0588 0.01924 0.07505 0.01283 0.01582 0.03271 0.02373 0.05965 0.02373 0.01112 0 0.02117-0.000855 0.03015-0.0026 0.009-0.0017 0.01903-0.0038 0.03015-0.0064v0.11161c-0.02224 0.0073-0.04576 0.01262-0.07056 0.01604-0.0248 0.0038-0.05196 0.0058-0.08146 0.0058" />
          <path
             id="path4116"
             d="m12.962 52h-0.19051l-0.11033-0.42335c-0.0034-0.01326-0.0068-0.02801-0.01026-0.04426-0.0034-0.01668-0.0066-0.03229-0.0096-0.04682l-0.01026-0.05132c-0.0038 0.01711-0.0077 0.03421-0.01155 0.05132-0.0034 0.01454-0.0071 0.03015-0.0109 0.04682-0.0038 0.01668-0.0075 0.03186-0.0109 0.04554l-0.112 0.421h-0.19051l-0.1796-0.69404h0.16934l0.08788 0.40796c0.0026 0.01155 0.0053 0.02459 0.0083 0.03913 0.003 0.01411 0.0058 0.02737 0.0083 0.03977 0.003 0.01454 0.0062 0.02908 0.0096 0.04362 0.003-0.01625 0.006-0.03207 0.009-0.04747 0.0026-0.01326 0.0053-0.02673 0.0083-0.04041s0.0056-0.02523 0.0077-0.03464l0.10904-0.40796h0.19308l0.10648 0.40796c0.003 0.01112 0.006 0.02373 0.009 0.03785 0.003 0.01411 0.0058 0.02737 0.0083 0.03977 0.003 0.01454 0.006 0.02951 0.009 0.0449 0.0034-0.0154 0.0066-0.03036 0.0096-0.0449 0.0026-0.0124 0.0053-0.02566 0.0083-0.03977s0.0058-0.02673 0.0083-0.03785l0.09173-0.40796h0.16678l-0.183 0.694" />
          <path
             id="path4118"
             d="m13.892 51.652c-0.000001 0.05303-0.0075 0.10156-0.02245 0.14561-0.01454 0.04405-0.03656 0.0821-0.06607 0.11418-0.02951 0.03165-0.06628 0.05645-0.11033 0.07441-0.04405 0.01753-0.09536 0.0263-0.15395 0.0263-0.05645 0-0.10627-0.0088-0.14946-0.0263-0.04319-0.01753-0.07954-0.04212-0.10904-0.07377-0.02908-0.03165-0.0511-0.06949-0.06607-0.11354-0.01497-0.04447-0.02245-0.09344-0.02245-0.14689 0-0.05174 0.0071-0.09942 0.02117-0.14304 0.01454-0.04405 0.03635-0.0821 0.06543-0.11418 0.02908-0.03207 0.06564-0.05709 0.10969-0.07505s0.09557-0.02694 0.15459-0.02694c0.06243 0.000001 0.11567 0.009 0.15972 0.02694 0.04405 0.01796 0.07997 0.04298 0.10776 0.07505 0.02822 0.03165 0.04875 0.06949 0.06158 0.11354 0.01326 0.04362 0.01988 0.09151 0.01988 0.14368m-0.18858 0c-0.000001-0.08253-0.01347-0.1424-0.04041-0.1796s-0.06607-0.0558-0.11738-0.05581c-0.05303 0.000001-0.09365 0.01882-0.12187 0.05645s-0.04234 0.09729-0.04233 0.17896c-0.000001 0.04148 0.0036 0.07719 0.0109 0.10712 0.0077 0.02993 0.01839 0.05452 0.03207 0.07377 0.01368 0.01924 0.03015 0.03357 0.04939 0.04298 0.01924 0.009 0.04041 0.01347 0.0635 0.01347 0.02651 0 0.05003-0.0045 0.07056-0.01347 0.02095-0.0094 0.03849-0.02373 0.0526-0.04298 0.01411-0.01924 0.0248-0.04383 0.03207-0.07377 0.0073-0.02993 0.0109-0.06564 0.01091-0.10712" />
          <path
             id="path4120"
             d="m14.035 52v-0.53112c0-0.01497-0.000214-0.03079-0.000642-0.04747 0-0.01668-0.000427-0.0325-0.0013-0.04747-0.000427-0.01539-0.000855-0.02908-0.0013-0.04105-0.000428-0.0124-0.0011-0.02138-0.0019-0.02694h0.17191c0.000855 0.0051 0.0017 0.01411 0.0026 0.02694 0.000855 0.0124 0.0017 0.02609 0.0026 0.04105 0.000855 0.01497 0.0015 0.02994 0.0019 0.0449 0.000855 0.01454 0.0013 0.0263 0.0013 0.03528h0.0026c0.009-0.02523 0.01796-0.04768 0.02694-0.06735 0.009-0.0201 0.01946-0.03699 0.03143-0.05067 0.0124-0.01411 0.02715-0.0248 0.04426-0.03207 0.0171-0.0077 0.03827-0.01154 0.0635-0.01155 0.01069 0.000001 0.02117 0.0011 0.03143 0.0032 0.01069 0.0017 0.01882 0.0038 0.02438 0.0064v0.15074c-0.01155-0.0026-0.02331-0.0047-0.03528-0.0064-0.01155-0.0021-0.02544-0.0032-0.04169-0.0032-0.0449 0.000001-0.07997 0.01817-0.1052 0.05452-0.0248 0.03635-0.0372 0.09023-0.0372 0.16164v0.34061h-0.18025" />
          <path
             id="path4122"
             d="m14.989 52-0.18538-0.31431-0.07761 0.05388v0.26043h-0.18025v-0.9519h0.18025v0.54523l0.2476-0.28737h0.19372l-0.24375 0.27069 0.262 0.423h-0.197" />
        </g>
        <rect
           id="rect4086"
           style="fill:#f00"
           height="1"
           width="1"
           y="27"
           x="8" />
        <g
           id="text4088"
           style="fill:#4d4d4d"
           transform="translate(0,-26)">
          <path
             id="path4099"
             d="m10.088 54v-0.9038h0.71072v0.14625h-0.52149v0.22707h0.48237v0.14625h-0.48237v0.23798h0.54779v0.14625h-0.73702" />
          <path
             id="path4101"
             d="m10.969 54v-0.53112c0-0.01497-0.000214-0.03079-0.000641-0.04747 0-0.01668-0.000428-0.0325-0.0013-0.04747-0.000428-0.01539-0.000855-0.02908-0.0013-0.04105-0.000428-0.0124-0.0011-0.02138-0.0019-0.02694h0.17191c0.000855 0.0051 0.0017 0.01411 0.0026 0.02694 0.000855 0.0124 0.0017 0.02609 0.0026 0.04105 0.000855 0.01497 0.0015 0.02994 0.0019 0.0449 0.000855 0.01454 0.0013 0.0263 0.0013 0.03528h0.0026c0.009-0.02523 0.01796-0.04768 0.02694-0.06735 0.009-0.0201 0.01946-0.03699 0.03143-0.05067 0.0124-0.01411 0.02715-0.0248 0.04426-0.03207 0.01711-0.0077 0.03827-0.01154 0.0635-0.01155 0.01069 0.000001 0.02117 0.0011 0.03143 0.0032 0.01069 0.0017 0.01882 0.0038 0.02438 0.0064v0.15074c-0.01155-0.0026-0.02331-0.0047-0.03528-0.0064-0.01155-0.0021-0.02544-0.0032-0.04169-0.0032-0.0449 0.000001-0.07997 0.01817-0.1052 0.05452-0.0248 0.03635-0.0372 0.09023-0.0372 0.16164v0.34061h-0.18025" />
          <path
             id="path4103"
             d="m11.48 54v-0.53112c0-0.01497-0.000214-0.03079-0.000642-0.04747 0-0.01668-0.000427-0.0325-0.0013-0.04747-0.000428-0.01539-0.000856-0.02908-0.0013-0.04105-0.000428-0.0124-0.0011-0.02138-0.0019-0.02694h0.17191c0.000855 0.0051 0.0017 0.01411 0.0026 0.02694 0.000855 0.0124 0.0017 0.02609 0.0026 0.04105 0.000855 0.01497 0.0015 0.02994 0.0019 0.0449 0.000855 0.01454 0.0013 0.0263 0.0013 0.03528h0.0026c0.009-0.02523 0.01796-0.04768 0.02694-0.06735 0.009-0.0201 0.01946-0.03699 0.03143-0.05067 0.0124-0.01411 0.02715-0.0248 0.04426-0.03207 0.0171-0.0077 0.03827-0.01154 0.0635-0.01155 0.01069 0.000001 0.02117 0.0011 0.03143 0.0032 0.01069 0.0017 0.01882 0.0038 0.02437 0.0064v0.15074c-0.01155-0.0026-0.02331-0.0047-0.03528-0.0064-0.01155-0.0021-0.02544-0.0032-0.04169-0.0032-0.0449 0.000001-0.07997 0.01817-0.1052 0.05452-0.0248 0.03635-0.0372 0.09023-0.0372 0.16164v0.34061h-0.18025" />
          <path
             id="path4105"
             d="m12.65 53.652c-0.000001 0.05303-0.0075 0.10156-0.02245 0.14561-0.01454 0.04405-0.03656 0.0821-0.06607 0.11418-0.02951 0.03165-0.06628 0.05645-0.11033 0.07441-0.04405 0.01753-0.09536 0.0263-0.15395 0.0263-0.05645 0-0.10627-0.0088-0.14946-0.0263-0.04319-0.01753-0.07954-0.04212-0.10904-0.07377-0.02908-0.03165-0.0511-0.06949-0.06607-0.11354-0.01497-0.04447-0.02245-0.09344-0.02245-0.14689-0.000001-0.05174 0.0071-0.09942 0.02117-0.14304 0.01454-0.04405 0.03635-0.0821 0.06543-0.11418 0.02908-0.03207 0.06564-0.05709 0.10969-0.07505s0.09558-0.02694 0.15459-0.02694c0.06243 0.000001 0.11567 0.009 0.15972 0.02694 0.04405 0.01796 0.07997 0.04298 0.10776 0.07505 0.02822 0.03165 0.04875 0.06949 0.06158 0.11354 0.01326 0.04362 0.01988 0.09151 0.01989 0.14368m-0.18858 0c-0.000001-0.08253-0.01347-0.1424-0.04041-0.1796s-0.06607-0.0558-0.11738-0.05581c-0.05303 0.000001-0.09365 0.01882-0.12187 0.05645s-0.04234 0.09729-0.04233 0.17896c-0.000001 0.04148 0.0036 0.07719 0.0109 0.10712 0.0077 0.02993 0.01839 0.05452 0.03207 0.07377 0.01368 0.01924 0.03015 0.03357 0.04939 0.04298 0.01924 0.009 0.04041 0.01347 0.0635 0.01347 0.02651 0 0.05003-0.0045 0.07056-0.01347 0.02095-0.0094 0.03849-0.02373 0.0526-0.04298 0.01411-0.01924 0.0248-0.04383 0.03207-0.07377 0.0073-0.02993 0.0109-0.06564 0.0109-0.10712" />
          <path
             id="path4107"
             d="m12.793 54v-0.53112c0-0.01497-0.000214-0.03079-0.000642-0.04747 0-0.01668-0.000427-0.0325-0.0013-0.04747-0.000427-0.01539-0.000855-0.02908-0.0013-0.04105-0.000427-0.0124-0.0011-0.02138-0.0019-0.02694h0.17191c0.000855 0.0051 0.0017 0.01411 0.0026 0.02694 0.000855 0.0124 0.0017 0.02609 0.0026 0.04105 0.000855 0.01497 0.0015 0.02994 0.0019 0.0449 0.000855 0.01454 0.0013 0.0263 0.0013 0.03528h0.0026c0.009-0.02523 0.01796-0.04768 0.02694-0.06735 0.009-0.0201 0.01946-0.03699 0.03143-0.05067 0.0124-0.01411 0.02715-0.0248 0.04426-0.03207 0.01711-0.0077 0.03827-0.01154 0.0635-0.01155 0.01069 0.000001 0.02117 0.0011 0.03143 0.0032 0.01069 0.0017 0.01882 0.0038 0.02437 0.0064v0.15074c-0.01155-0.0026-0.02331-0.0047-0.03528-0.0064-0.01155-0.0021-0.02544-0.0032-0.04169-0.0032-0.0449 0.000001-0.07997 0.01817-0.1052 0.05452-0.0248 0.03635-0.0372 0.09023-0.0372 0.16164v0.34061h-0.18025" />
        </g>
        <rect
           id="rect4092"
           style="fill:#ff7600"
           height="1"
           width="1"
           y="23"
           x="8" />
        <g
           id="text4094"
           style="fill:#4d4d4d"
           transform="translate(0,-26)">
          <path
             id="path4125"
             d="m10.831 49.382c-0.000001 0.03892-0.0066 0.07655-0.01989 0.11289-0.01283 0.03592-0.03271 0.06778-0.05965 0.09558s-0.06115 0.05003-0.10263 0.06671c-0.04148 0.01625-0.09066 0.02437-0.14753 0.02437h-0.2245v0.31816h-0.18923v-0.9038h0.40603c0.05773 0.000001 0.10776 0.0071 0.1501 0.02117 0.04233 0.01369 0.0774 0.03314 0.1052 0.05837 0.02779 0.02523 0.04832 0.05538 0.06158 0.09044 0.01368 0.03507 0.02052 0.07377 0.02053 0.1161m-0.19051 0.0032c-0.000001-0.04661-0.01411-0.08189-0.04234-0.10584-0.0278-0.02437-0.0697-0.03656-0.12572-0.03656h-0.19564v0.29314h0.20077c0.02822 0 0.05238-0.0036 0.07248-0.01091 0.02053-0.0073 0.03742-0.01753 0.05067-0.03079 0.01368-0.01326 0.02373-0.02908 0.03015-0.04747 0.0064-0.01881 0.0096-0.03934 0.0096-0.06158" />
          <path
             id="path4127"
             d="m11.629 49.652c-0.000001 0.05303-0.0075 0.10156-0.02245 0.14561-0.01454 0.04405-0.03656 0.0821-0.06607 0.11418-0.02951 0.03165-0.06628 0.05645-0.11033 0.07441-0.04405 0.01753-0.09536 0.0263-0.15395 0.0263-0.05645 0-0.10627-0.0088-0.14946-0.0263-0.04319-0.01753-0.07954-0.04212-0.10904-0.07377-0.02908-0.03165-0.0511-0.06949-0.06607-0.11354-0.01497-0.04447-0.02245-0.09344-0.02245-0.14689 0-0.05174 0.0071-0.09942 0.02117-0.14304 0.01454-0.04405 0.03635-0.0821 0.06543-0.11418 0.02908-0.03207 0.06564-0.05709 0.10969-0.07505s0.09558-0.02694 0.15459-0.02694c0.06243 0.000001 0.11567 0.009 0.15972 0.02694 0.04405 0.01796 0.07997 0.04298 0.10776 0.07505 0.02822 0.03165 0.04875 0.06949 0.06158 0.11354 0.01326 0.04362 0.01988 0.09151 0.01989 0.14368m-0.18858 0c0-0.08253-0.01347-0.1424-0.04041-0.1796s-0.06607-0.0558-0.11738-0.05581c-0.05303 0.000001-0.09365 0.01882-0.12187 0.05645s-0.04234 0.09729-0.04234 0.17896c0 0.04148 0.0036 0.07719 0.01091 0.10712 0.0077 0.02993 0.01839 0.05452 0.03207 0.07377 0.01368 0.01924 0.03015 0.03357 0.04939 0.04298 0.01924 0.009 0.04041 0.01347 0.0635 0.01347 0.02651 0 0.05003-0.0045 0.07056-0.01347 0.02095-0.0094 0.03849-0.02373 0.0526-0.04298 0.01411-0.01924 0.0248-0.04383 0.03207-0.07377 0.0073-0.02993 0.0109-0.06564 0.0109-0.10712" />
          <path
             id="path4129"
             d="m12.523 50h-0.19051l-0.11033-0.42335c-0.0034-0.01326-0.0068-0.02801-0.01026-0.04426-0.0034-0.01668-0.0066-0.03229-0.0096-0.04682l-0.01026-0.05132c-0.0038 0.01711-0.0077 0.03421-0.01155 0.05132-0.0034 0.01454-0.0071 0.03015-0.0109 0.04682-0.0038 0.01668-0.0075 0.03186-0.0109 0.04554l-0.112 0.421h-0.19051l-0.1796-0.69404h0.16934l0.08788 0.40796c0.0026 0.01155 0.0053 0.02459 0.0083 0.03913 0.003 0.01411 0.0058 0.02737 0.0083 0.03977 0.003 0.01454 0.0062 0.02908 0.0096 0.04362 0.003-0.01625 0.006-0.03207 0.009-0.04747 0.0026-0.01326 0.0053-0.02673 0.0083-0.04041s0.0056-0.02523 0.0077-0.03464l0.10904-0.40796h0.19308l0.10648 0.40796c0.003 0.01112 0.006 0.02373 0.009 0.03785 0.003 0.01411 0.0058 0.02737 0.0083 0.03977 0.003 0.01454 0.006 0.02951 0.009 0.0449 0.0034-0.0154 0.0066-0.03036 0.0096-0.0449 0.0026-0.0124 0.0053-0.02566 0.0083-0.03977s0.0058-0.02673 0.0083-0.03785l0.09173-0.40796h0.16678l-0.182 0.694" />
          <path
             id="path4131"
             d="m13.078 50.013c-0.05003 0-0.09515-0.0073-0.13534-0.02181-0.03977-0.01497-0.07377-0.03742-0.10199-0.06735-0.02822-0.03036-0.04982-0.06821-0.06479-0.11354-0.01497-0.04576-0.02245-0.09921-0.02245-0.16036 0-0.06628 0.0088-0.12209 0.0263-0.16742 0.01796-0.04533 0.04191-0.08189 0.07184-0.10969 0.03036-0.02822 0.06521-0.04854 0.10456-0.06094 0.03934-0.0124 0.08082-0.0186 0.12444-0.0186 0.05474 0.000001 0.10135 0.0096 0.13984 0.02886 0.03891 0.01882 0.07077 0.04533 0.09558 0.07954 0.0248 0.03421 0.04298 0.07526 0.05452 0.12316 0.01154 0.04747 0.01732 0.10006 0.01732 0.1578v0.0051h-0.44516c-0.000001 0.02908 0.0026 0.05623 0.0077 0.08146 0.0051 0.0248 0.01347 0.0464 0.02502 0.06479 0.01155 0.01796 0.02651 0.03229 0.0449 0.04298 0.01839 0.01026 0.04063 0.01539 0.06671 0.01539 0.03164 0 0.05752-0.0066 0.07761-0.01988 0.0201-0.01368 0.03442-0.03464 0.04298-0.06286l0.16998 0.01475c-0.0077 0.01967-0.0186 0.04062-0.03271 0.06286-0.01368 0.02224-0.03207 0.04276-0.05516 0.06158-0.02309 0.01839-0.05196 0.03378-0.0866 0.04618-0.03421 0.01197-0.07591 0.01796-0.12508 0.01796m0-0.60616c-0.01839 0.000001-0.03571 0.0032-0.05196 0.0096-0.01582 0.006-0.02972 0.01582-0.04169 0.02951-0.01155 0.01326-0.02095 0.03058-0.02822 0.05196-0.0073 0.02138-0.01133 0.04704-0.01219 0.07697h0.26941c-0.0034-0.05602-0.01689-0.09793-0.04041-0.12572-0.02352-0.02822-0.05516-0.04233-0.09493-0.04234" />
          <path
             id="path4133"
             d="m13.525 50v-0.53112c0-0.01497-0.000214-0.03079-0.000641-0.04747 0-0.01668-0.000428-0.0325-0.0013-0.04747-0.000428-0.01539-0.000856-0.02908-0.0013-0.04105-0.000428-0.0124-0.0011-0.02138-0.0019-0.02694h0.17191c0.000855 0.0051 0.0017 0.01411 0.0026 0.02694 0.000855 0.0124 0.0017 0.02609 0.0026 0.04105 0.000855 0.01497 0.0015 0.02994 0.0019 0.0449 0.000855 0.01454 0.0013 0.0263 0.0013 0.03528h0.0026c0.009-0.02523 0.01796-0.04768 0.02694-0.06735 0.009-0.0201 0.01946-0.03699 0.03143-0.05067 0.0124-0.01411 0.02715-0.0248 0.04426-0.03207 0.01711-0.0077 0.03827-0.01154 0.0635-0.01155 0.01069 0.000001 0.02117 0.0011 0.03143 0.0032 0.01069 0.0017 0.01882 0.0038 0.02437 0.0064v0.15074c-0.01155-0.0026-0.02331-0.0047-0.03528-0.0064-0.01155-0.0021-0.02544-0.0032-0.04169-0.0032-0.0449 0.000001-0.07997 0.01817-0.1052 0.05452-0.0248 0.03635-0.0372 0.09023-0.0372 0.16164v0.34061h-0.18025" />
        </g>
        <rect
           id="rect3995"
           style="fill:#fff"
           rx=".5"
           ry=".5"
           transform="rotate(-90)"
           width="3"
           y="12"
           x="-43"
           height="3" />
        <rect
           id="rect3999"
           style="fill:#fff"
           rx=".5"
           ry=".5"
           transform="rotate(-90)"
           width="3"
           y="8"
           x="-39"
           height="3" />
        <rect
           id="rect4004"
           style="fill:#fff"
           rx=".5"
           ry=".5"
           transform="rotate(-90)"
           width="3"
           y="12"
           x="-39"
           height="3" />
      </g>
    </g>
    <g
       id="g4111"
       transform="translate(-2.9802e-8 956.36)">
      <path
         id="path2424"
         style="stroke:#a00000;stroke-linecap:round;fill:url(#linearGradient3330)"
         d="m48 54.5c8.004 0 14.5-6.496 14.5-14.5s-6.496-14.5-14.5-14.5-14.5 6.496-14.5 14.5 6.496 14.5 14.5 14.5zm0-5.1786c-5.1454 0-9.3214-4.176-9.3214-9.3214 0-1.3905 0.31101-2.7064 0.8577-3.892l12.364 12.356c-1.187 0.548-2.507 0.857-3.9 0.857zm8.35-5.194-12.485-12.477c1.247-0.62 2.649-0.971 4.135-0.971 5.1454 0 9.3214 4.176 9.3214 9.3214 0 1.4832-0.35382 2.8814-0.97098 4.1267z" />
      <path
         id="path3088"
         style="opacity:.6;fill:url(#linearGradient4136)"
         d="m48 25.5c-8.004 0-14.5 6.496-14.5 14.5 0 0.17044 0.02541 0.33097 0.03125 0.5 0.26856-7.7685 6.6352-14 14.469-14 7.8336 0 14.2 6.2315 14.469 14 0.006-0.169 0.031-0.33 0.031-0.5 0-8.004-6.496-14.5-14.5-14.5zm-3.4062 6.875c-0.23899 0.09514-0.48979 0.16755-0.71875 0.28125l12.469 12.469c0.617-1.245 0.968-2.642 0.968-4.125 0-0.21451-0.01697-0.41409-0.03125-0.625-0.05492 1.3421-0.37332 2.6116-0.9375 3.75l-11.75-11.75zm-5.875 8.2812c-0.005 0.115-0.031 0.228-0.031 0.344 0 5.1454 4.1671 9.3125 9.3125 9.3125 1.3932 0 2.7189-0.29512 3.9062-0.84375l-0.719-0.719c-0.99378 0.36285-2.0684 0.5625-3.1875 0.5625-4.9202 0-8.9376-3.8231-9.2812-8.6562z" />
    </g>
    <rect
       id="rect3003"
       style="opacity:.15;fill:#fff"
       clip-path="url(#clipPath3009)"
       rx="25"
       ry="25"
       transform="translate(98 -.0000026172)"
       width="92"
       y="958.36"
       x="-96"
       height="92" />
  </g>
</svg>
