<?xml version="1.0" encoding="UTF-8" standalone="no"?>
<!-- Created with Inkscape (http://www.inkscape.org/) -->

<svg
   xmlns:dc="http://purl.org/dc/elements/1.1/"
   xmlns:cc="http://creativecommons.org/ns#"
   xmlns:rdf="http://www.w3.org/1999/02/22-rdf-syntax-ns#"
   xmlns:svg="http://www.w3.org/2000/svg"
   xmlns="http://www.w3.org/2000/svg"
   xmlns:sodipodi="http://sodipodi.sourceforge.net/DTD/sodipodi-0.dtd"
   xmlns:inkscape="http://www.inkscape.org/namespaces/inkscape"
   id="svg2"
   height="16"
   width="16"
   version="1.0"
   inkscape:version="0.48.5 r10040"
   sodipodi:docname="weather-clouds-symbolic.svg">
  <defs
     id="defs217787" />
  <sodipodi:namedview
     pagecolor="#ffffff"
     bordercolor="#666666"
     borderopacity="1"
     objecttolerance="10"
     gridtolerance="10"
     guidetolerance="10"
     inkscape:pageopacity="0"
     inkscape:pageshadow="2"
     inkscape:window-width="640"
     inkscape:window-height="480"
     id="namedview217785" />
  <metadata
     id="metadata7">
    <rdf:RDF>
      <cc:Work
         rdf:about="">
        <dc:format>image/svg+xml</dc:format>
        <dc:type
           rdf:resource="http://purl.org/dc/dcmitype/StillImage" />
        <dc:title />
      </cc:Work>
    </rdf:RDF>
  </metadata>
  <g
     id="layer1">
    <path
       id="path3755"
       d="m13 13-3.2961-2.313-0.3738 4.009-1.6978-3.651-2.3285 3.285 0.3554-4.011-3.6592 1.681 2.3134-3.2961-4.0096-0.3738 3.6515-1.6978-3.2854-2.3285 4.0112 0.3554-1.6811-3.6592 3.2961 2.3134 0.3738-4.0096 1.6978 3.6515 2.3283-3.2854-0.355 4.0112 3.659-1.6811-2.313 3.2961 4.009 0.3738-3.651 1.6978 3.285 2.3285-4.011-0.3554 1.681 3.6592z"
       style="color:#000000;fill:#6e6e6e"
       transform="matrix(1.0395 0 0 1.0395 -.31584 -19.276)" />
    <path
       id="path3798"
       style="color:#000000;fill:#f00"
       d="m7.5 19c-1.4497 0-2.6874 0.869-3.2188 2.125-0.2474-0.082-0.5062-0.125-0.7812-0.125-1.3807 0-2.5 1.119-2.5 2.5s1.1193 2.5 2.5 2.5h9.5c1.1046 0 2-0.89543 2-2s-0.89543-2-2-2h-0.09375c0.054-0.154 0.094-0.327 0.094-0.5 0-0.828-0.672-1.5-1.5-1.5-0.446 0-0.85 0.191-1.125 0.5-0.632-0.91-1.6829-1.5-2.875-1.5z" />
    <path
       id="path3805"
       style="color:#000000;fill:#bebebe"
       d="m7 8c-1.8769 0-3.4437 1.2876-3.875 3.031-1.201 0.183-2.125 1.217-2.125 2.469 0 1.381 1.1193 2.5 2.5 2.5h9c1.381 0 2.5-1.119 2.5-2.5 0-1.208-0.861-2.204-2-2.438 0.001-0.02 0-0.041 0-0.062 0-1.1046-0.895-2-2-2-0.38 0-0.729 0.1286-1.0312 0.3125-0.732-0.8099-1.7912-1.3125-2.9688-1.3125z" />
    <path
       id="path4120"
       style="opacity:.8;color:#000000;fill:#6e6e6e"
       d="m6.625 30-0.40625 4.1562-3-1.7188 1.3438 3.125l-4.1876-0.374 3.4062 2.437-3.7812 1.75 2.6562 0.25c0.8369-1.56 2.4597-2.625 4.3438-2.625 1.2158 0 2.2863 0.519 3.156 1.25 0.279-0.097 0.513-0.25 0.844-0.25 0.47752 0 0.90395 0.12613 1.2812 0.34375l3.719-1.719-4.156-0.406 3.156-4.25-4.562 2.593 0.218-3.718-2.281 2.937-1.75-3.781z" />
    <path
       id="path4122"
       style="color:#000000;fill:#6e6e6e"
       d="m7 38c-1.8769 0-3.4437 1.288-3.875 3.031-1.201 0.183-2.125 1.217-2.125 2.469 0 1.381 1.1193 2.5 2.5 2.5h9c1.3807 0 2.5-1.1193 2.5-2.5 0-1.2081-0.86079-2.2044-2-2.4375 0.00065-0.02096 0-0.04138 0-0.0625 0-1.1046-0.89543-2-2-2-0.37992 0-0.72874 0.12856-1.0312 0.3125-0.732-0.809-1.7912-1.312-2.9688-1.312z" />
    <path
       id="path4124"
       style="color:#000000;fill:#bebebe"
       d="m6.625 0l-0.875 3.125-2.9375-1.375 0.8125 3.1562-3.25 0.2813 2.2812 2.3125-2.6562 1.875 2.4375 0.687c0.7555-1.797 2.5003-3.062 4.5625-3.062 1.2154 0 2.2849 0.5214 3.156 1.25 0.277-0.0946 0.517-0.25 0.844-0.25 1.429 0 2.488 1.0907 2.781 2.438 0.291 0.124 0.561 0.285 0.813 0.468l1.031-0.094-2.281-2.312 2.656-1.875-3.125-0.875 1.375-2.9375-3.156 0.8125-0.282-3.25-2.312 2.2812-1.875-2.6562z" />
  </g>
</svg>
