<?xml version="1.0" encoding="UTF-8" standalone="no"?>
<!-- Created with Inkscape (http://www.inkscape.org/) -->

<svg
   xmlns:dc="http://purl.org/dc/elements/1.1/"
   xmlns:cc="http://creativecommons.org/ns#"
   xmlns:rdf="http://www.w3.org/1999/02/22-rdf-syntax-ns#"
   xmlns:svg="http://www.w3.org/2000/svg"
   xmlns="http://www.w3.org/2000/svg"
   xmlns:sodipodi="http://sodipodi.sourceforge.net/DTD/sodipodi-0.dtd"
   xmlns:inkscape="http://www.inkscape.org/namespaces/inkscape"
   id="svg2"
   height="16"
   width="16"
   version="1.0"
   inkscape:version="0.48.5 r10040"
   sodipodi:docname="weather-showers-symbolic.svg">
  <defs
     id="defs219613" />
  <sodipodi:namedview
     pagecolor="#ffffff"
     bordercolor="#666666"
     borderopacity="1"
     objecttolerance="10"
     gridtolerance="10"
     guidetolerance="10"
     inkscape:pageopacity="0"
     inkscape:pageshadow="2"
     inkscape:window-width="640"
     inkscape:window-height="480"
     id="namedview219611" />
  <metadata
     id="metadata7">
    <rdf:RDF>
      <cc:Work
         rdf:about="">
        <dc:format>image/svg+xml</dc:format>
        <dc:type
           rdf:resource="http://purl.org/dc/dcmitype/StillImage" />
        <dc:title />
      </cc:Work>
    </rdf:RDF>
  </metadata>
  <g
     id="layer1">
    <path
       id="path3798"
       style="color:#000000;fill:#f00"
       d="m7.5 19c-1.4497 0-2.6874 0.869-3.2188 2.125-0.2474-0.082-0.5062-0.125-0.7812-0.125-1.3807 0-2.5 1.119-2.5 2.5s1.1193 2.5 2.5 2.5h9.5c1.1046 0 2-0.89543 2-2s-0.89543-2-2-2h-0.09375c0.054-0.154 0.094-0.327 0.094-0.5 0-0.828-0.672-1.5-1.5-1.5-0.446 0-0.85 0.191-1.125 0.5-0.632-0.91-1.6829-1.5-2.875-1.5z" />
    <path
       id="path3863"
       style="color:#000000;fill:#6e6e6e"
       d="m7-18c-1.8769 0-3.4437 1.2876-3.875 3.0312-1.201 0.183-2.125 1.217-2.125 2.469 0 1.3807 1.1193 2.5 2.5 2.5h9c1.3807 0 2.5-1.1193 2.5-2.5 0-1.2081-0.86079-2.2044-2-2.4375 0.00065-0.02096 0-0.04138 0-0.0625 0-1.1046-0.89543-2-2-2-0.37992 0-0.72874 0.12856-1.0312 0.3125-0.732-0.809-1.7912-1.312-2.9688-1.312z" />
    <path
       id="path3888"
       style="color:#000000;fill:#bebebe"
       d="m7 1c-1.8769 0-3.4437 1.2876-3.875 3.0312-1.201 0.1826-2.125 1.2169-2.125 2.4688 0 1.3807 1.1193 2.5 2.5 2.5h9c1.381 0 2.5-1.1193 2.5-2.5 0-1.2081-0.861-2.2044-2-2.4375 0.001-0.021 0-0.0414 0-0.0625 0-1.1046-0.895-2-2-2-0.38 0-0.729 0.1286-1.0312 0.3125-0.732-0.8099-1.7912-1.3125-2.9688-1.3125z" />
    <rect
       id="rect3922"
       style="color:#000000;fill:#bebebe"
       height="1"
       width="1"
       y="14"
       x="1" />
    <rect
       id="rect3924"
       style="color:#000000;fill:#bebebe"
       height="1"
       width="1"
       y="12"
       x="2" />
    <rect
       id="rect3926"
       style="color:#000000;fill:#bebebe"
       height="1"
       width="1"
       y="10"
       x="3" />
    <rect
       id="rect3928"
       style="color:#000000;fill:#bebebe"
       height="1"
       width="1"
       y="14"
       x="3" />
    <rect
       id="rect3930"
       style="color:#000000;fill:#bebebe"
       height="1"
       width="1"
       y="12"
       x="4" />
    <rect
       id="rect3932"
       style="color:#000000;fill:#bebebe"
       height="1"
       width="1"
       y="10"
       x="5" />
    <rect
       id="rect3934"
       style="color:#000000;fill:#bebebe"
       height="1"
       width="1"
       y="14"
       x="5" />
    <rect
       id="rect3936"
       style="color:#000000;fill:#bebebe"
       height="1"
       width="1"
       y="12"
       x="6" />
    <rect
       id="rect3938"
       style="color:#000000;fill:#bebebe"
       height="1"
       width="1"
       y="10"
       x="7" />
    <rect
       id="rect3940"
       style="color:#000000;fill:#bebebe"
       height="1"
       width="1"
       y="14"
       x="7" />
    <rect
       id="rect3942"
       style="color:#000000;fill:#bebebe"
       height="1"
       width="1"
       y="12"
       x="8" />
    <rect
       id="rect3944"
       style="color:#000000;fill:#bebebe"
       height="1"
       width="1"
       y="10"
       x="9" />
    <rect
       id="rect3946"
       style="color:#000000;fill:#bebebe"
       height="1"
       width="1"
       y="14"
       x="9" />
    <rect
       id="rect3948"
       style="color:#000000;fill:#bebebe"
       height="1"
       width="1"
       y="12"
       x="10" />
    <rect
       id="rect3950"
       style="color:#000000;fill:#bebebe"
       height="1"
       width="1"
       y="10"
       x="11" />
  </g>
</svg>
