<?xml version="1.0" encoding="UTF-8" standalone="no"?>
<!-- Created with Inkscape (http://www.inkscape.org/) -->

<svg
   xmlns:dc="http://purl.org/dc/elements/1.1/"
   xmlns:cc="http://creativecommons.org/ns#"
   xmlns:rdf="http://www.w3.org/1999/02/22-rdf-syntax-ns#"
   xmlns:svg="http://www.w3.org/2000/svg"
   xmlns="http://www.w3.org/2000/svg"
   xmlns:sodipodi="http://sodipodi.sourceforge.net/DTD/sodipodi-0.dtd"
   xmlns:inkscape="http://www.inkscape.org/namespaces/inkscape"
   id="svg2"
   height="16"
   width="16"
   version="1.0"
   inkscape:version="0.48.5 r10040"
   sodipodi:docname="weather-clear-symbolic.svg">
  <defs
     id="defs217551" />
  <sodipodi:namedview
     pagecolor="#ffffff"
     bordercolor="#666666"
     borderopacity="1"
     objecttolerance="10"
     gridtolerance="10"
     guidetolerance="10"
     inkscape:pageopacity="0"
     inkscape:pageshadow="2"
     inkscape:window-width="640"
     inkscape:window-height="480"
     id="namedview217549" />
  <metadata
     id="metadata7">
    <rdf:RDF>
      <cc:Work
         rdf:about="">
        <dc:format>image/svg+xml</dc:format>
        <dc:type
           rdf:resource="http://purl.org/dc/dcmitype/StillImage" />
        <dc:title />
      </cc:Work>
    </rdf:RDF>
  </metadata>
  <g
     id="layer1">
    <path
       id="path3753"
       style="color:#000000;fill:#6e6e6e"
       d="m13.647 34.761-3.8758-2.929-0.6133 3.419-1.5401-3.047-2.5702 3.79 0.5192-4.544-3.7288 1.972 2.3298-3.651-4.1678-0.388 3.7957-1.765-3.4152-2.421 4.1695 0.37-1.3252-3.117l3.0041 1.7183 0.38852-4.1678 1.7649 3.7957 2.2705-2.9656-0.21957 3.72 4.553-2.5716-3.154 4.2504 4.168 0.388-3.7957 1.7649 2.9656 2.4204-3.72-0.36942 2.197 4.3282z" />
    <path
       id="path3755"
       d="m13 13-3.2961-2.313-0.3738 4.009-1.6978-3.651-2.3285 3.285 0.3554-4.011-3.6592 1.681 2.3134-3.2961-4.0096-0.3738 3.6515-1.6978-3.2854-2.3285 4.0112 0.3554-1.6811-3.6592 3.2961 2.3134 0.3738-4.0096 1.6978 3.6515 2.3283-3.2854-0.355 4.0112 3.659-1.6811-2.313 3.2961 4.009 0.3738-3.651 1.6978 3.285 2.3285-4.011-0.3554 1.681 3.6592z"
       style="color:#000000;fill:#6e6e6e"
       transform="matrix(1.0395 0 0 1.0395 -.31584 -19.276)" />
    <path
       id="path4639"
       style="color:#000000;fill:#bebebe"
       transform="matrix(1.0395 0 0 1.0395 -.31584 .72364)"
       d="m13 13-2.837-1.321-0.8329 3.017-1.7968-2.562-2.2295 2.196-0.2748-3.118-3.029 0.788 1.3208-2.8374-3.017-0.8325 2.5626-1.7968-2.1965-2.2295 3.1176-0.2748-0.7875-3.029 2.8374 1.3208 0.8325-3.017 1.7968 2.5626 2.2293-2.1965 0.275 3.1176 3.029-0.7875l-1.3208 2.8374 3.017 0.83251-2.5626 1.7968 2.1965 2.2295-3.1176 0.27481z" />
  </g>
</svg>
