<?xml version="1.0" encoding="UTF-8" standalone="no"?>
<!-- Created with Inkscape (http://www.inkscape.org/) -->

<svg
   xmlns:dc="http://purl.org/dc/elements/1.1/"
   xmlns:cc="http://creativecommons.org/ns#"
   xmlns:rdf="http://www.w3.org/1999/02/22-rdf-syntax-ns#"
   xmlns:svg="http://www.w3.org/2000/svg"
   xmlns="http://www.w3.org/2000/svg"
   xmlns:sodipodi="http://sodipodi.sourceforge.net/DTD/sodipodi-0.dtd"
   xmlns:inkscape="http://www.inkscape.org/namespaces/inkscape"
   id="svg2"
   height="16"
   width="16"
   version="1.0"
   inkscape:version="0.48.5 r10040"
   sodipodi:docname="weather-overcast-symbolic.svg">
  <defs
     id="defs218670" />
  <sodipodi:namedview
     pagecolor="#ffffff"
     bordercolor="#666666"
     borderopacity="1"
     objecttolerance="10"
     gridtolerance="10"
     guidetolerance="10"
     inkscape:pageopacity="0"
     inkscape:pageshadow="2"
     inkscape:window-width="640"
     inkscape:window-height="480"
     id="namedview218668" />
  <metadata
     id="metadata7">
    <rdf:RDF>
      <cc:Work
         rdf:about="">
        <dc:format>image/svg+xml</dc:format>
        <dc:type
           rdf:resource="http://purl.org/dc/dcmitype/StillImage" />
        <dc:title />
      </cc:Work>
    </rdf:RDF>
  </metadata>
  <g
     id="layer1">
    <path
       id="path2960"
       style="color:#000000;fill:#bebebe"
       d="m8 1c-1.8769 0-3.4437 1.2876-3.875 3.0312-1.201 0.1826-2.125 1.2169-2.125 2.4688 0 0.4315 0.1201 0.8333 0.3125 1.1875 0.9059-1.0311 2.2075-1.6875 3.6875-1.6875 1.2301 0 2.3113 0.5061 3.1875 1.25 0.2692-0.0892 0.4964-0.25 0.8125-0.25 1.273 0 2.22 0.8595 2.625 2h0.875c1.381 0 2.5-1.1193 2.5-2.5 0-1.2081-0.861-2.2044-2-2.4375 0.001-0.021 0-0.0414 0-0.0625 0-1.1046-0.895-2-2-2-0.38 0-0.729 0.1286-1.031 0.3125-0.732-0.8099-1.7914-1.3125-2.969-1.3125z" />
    <path
       id="path3798"
       style="color:#000000;fill:#f00"
       d="m7.5 19c-1.4497 0-2.6874 0.869-3.2188 2.125-0.2474-0.082-0.5062-0.125-0.7812-0.125-1.3807 0-2.5 1.119-2.5 2.5s1.1193 2.5 2.5 2.5h9.5c1.1046 0 2-0.89543 2-2s-0.89543-2-2-2h-0.09375c0.054-0.154 0.094-0.327 0.094-0.5 0-0.828-0.672-1.5-1.5-1.5-0.446 0-0.85 0.191-1.125 0.5-0.632-0.91-1.6829-1.5-2.875-1.5z" />
    <path
       id="path3863"
       style="color:#000000;fill:#6e6e6e"
       d="m7-18c-1.8769 0-3.4437 1.2876-3.875 3.0312-1.201 0.183-2.125 1.217-2.125 2.469 0 1.3807 1.1193 2.5 2.5 2.5h9c1.3807 0 2.5-1.1193 2.5-2.5 0-1.2081-0.86079-2.2044-2-2.4375 0.00065-0.02096 0-0.04138 0-0.0625 0-1.1046-0.89543-2-2-2-0.37992 0-0.72874 0.12856-1.0312 0.3125-0.732-0.809-1.7912-1.312-2.9688-1.312z" />
    <path
       id="path3888"
       style="color:#000000;fill:#bebebe"
       d="m6 7c-1.8769 0-3.4437 1.2876-3.875 3.031-1.201 0.183-2.125 1.217-2.125 2.469 0 1.381 1.1193 2.5 2.5 2.5h9c1.381 0 2.5-1.119 2.5-2.5 0-1.208-0.861-2.204-2-2.438 0.001-0.02 0-0.041 0-0.062 0-1.1046-0.895-2-2-2-0.3799 0-0.7287 0.1286-1.0312 0.3125-0.732-0.8099-1.7912-1.3125-2.9688-1.3125z" />
  </g>
</svg>
