<?xml version="1.0" encoding="UTF-8" standalone="no"?>
<!-- Created with Inkscape (http://www.inkscape.org/) -->

<svg
   xmlns:dc="http://purl.org/dc/elements/1.1/"
   xmlns:cc="http://creativecommons.org/ns#"
   xmlns:rdf="http://www.w3.org/1999/02/22-rdf-syntax-ns#"
   xmlns:svg="http://www.w3.org/2000/svg"
   xmlns="http://www.w3.org/2000/svg"
   xmlns:sodipodi="http://sodipodi.sourceforge.net/DTD/sodipodi-0.dtd"
   xmlns:inkscape="http://www.inkscape.org/namespaces/inkscape"
   id="svg2"
   height="16"
   width="16"
   version="1.0"
   inkscape:version="0.48.5 r10040"
   sodipodi:docname="weather-few-clouds-night-symbolic.svg">
  <defs
     id="defs217904" />
  <sodipodi:namedview
     pagecolor="#ffffff"
     bordercolor="#666666"
     borderopacity="1"
     objecttolerance="10"
     gridtolerance="10"
     guidetolerance="10"
     inkscape:pageopacity="0"
     inkscape:pageshadow="2"
     inkscape:window-width="640"
     inkscape:window-height="480"
     id="namedview217902" />
  <metadata
     id="metadata7">
    <rdf:RDF>
      <cc:Work
         rdf:about="">
        <dc:format>image/svg+xml</dc:format>
        <dc:type
           rdf:resource="http://purl.org/dc/dcmitype/StillImage" />
        <dc:title />
      </cc:Work>
    </rdf:RDF>
  </metadata>
  <g
     id="layer1">
    <path
       id="path4792"
       style="opacity:.45;color:#000000;fill:#bebebe"
       d="m10 1c-3.3137 0-6 2.6863-6 6 0 0.7939 0.1574 1.5564 0.4375 2.25 0.4703-0.2238 0.9995-0.3438 1.5625-0.3438 1.9124 0 3.4723 1.3708 3.9062 3.1558 0.5698 0.105 1.0778 0.391 1.4688 0.782 2.655-0.619 4.625-3.0009 4.625-5.844 0-3.3137-2.686-6-6-6z" />
    <path
       id="path2931"
       style="color:#000000;fill:#bebebe"
       d="m10 1c-3.3137 0-6 2.6863-6 6 0 0.8284 0.1651 1.6259 0.4688 2.3438 0.4626-0.2201 0.9768-0.3438 1.5312-0.3438 1.8839 0 3.4039 1.359 3.8125 3.125 0.5675 0.083 1.0775 0.337 1.4685 0.719 2.119-0.456 3.801-2.017 4.438-4.0628-0.865 1.0062-2.132 1.6568-3.563 1.6568-2.6034 0-4.7185-2.1156-4.7185-4.7192 0-2.258 1.5991-4.1324 3.7185-4.5938-0.374-0.0732-0.76-0.125-1.156-0.125z" />
    <path
       id="path3081"
       style="color:#000000;fill:#bebebe"
       d="m6 10c-1.3013 0-2.397 0.842-2.8125 2-0.0527-0.004-0.1025 0-0.1563 0-1.1243 0-2.0312 0.907-2.0312 2.031 0 1.125 0.9069 2.031 2.0312 2.031l6.4688-0.062c0.828 0 1.5-0.672 1.5-1.5s-0.672-1.5-1.5-1.5c-0.1726 0-0.3457 0.04-0.5 0.094 0.001-0.032 0-0.062 0-0.094 0-1.657-1.3431-3-3-3z" />
  </g>
</svg>
