<?xml version="1.0" encoding="UTF-8" standalone="no"?>
<!-- Created with Inkscape (http://www.inkscape.org/) -->

<svg
   xmlns:dc="http://purl.org/dc/elements/1.1/"
   xmlns:cc="http://creativecommons.org/ns#"
   xmlns:rdf="http://www.w3.org/1999/02/22-rdf-syntax-ns#"
   xmlns:svg="http://www.w3.org/2000/svg"
   xmlns="http://www.w3.org/2000/svg"
   xmlns:sodipodi="http://sodipodi.sourceforge.net/DTD/sodipodi-0.dtd"
   xmlns:inkscape="http://www.inkscape.org/namespaces/inkscape"
   id="svg2"
   height="16"
   width="16"
   version="1.0"
   inkscape:version="0.48.5 r10040"
   sodipodi:docname="weather-few-clouds-symbolic.svg">
  <defs
     id="defs218024" />
  <sodipodi:namedview
     pagecolor="#ffffff"
     bordercolor="#666666"
     borderopacity="1"
     objecttolerance="10"
     gridtolerance="10"
     guidetolerance="10"
     inkscape:pageopacity="0"
     inkscape:pageshadow="2"
     inkscape:window-width="640"
     inkscape:window-height="480"
     id="namedview218022" />
  <metadata
     id="metadata7">
    <rdf:RDF>
      <cc:Work
         rdf:about="">
        <dc:format>image/svg+xml</dc:format>
        <dc:type
           rdf:resource="http://purl.org/dc/dcmitype/StillImage" />
        <dc:title />
      </cc:Work>
    </rdf:RDF>
  </metadata>
  <g
     id="layer1">
    <path
       id="path4111"
       style="color:#000000;fill:#bebebe"
       d="m6.625 0l-0.875 3.125-2.9375-1.375 0.8125 3.1562-3.25 0.2813 2.2812 2.3125-2.6562 1.875 3.125 0.875-0.3438 0.781c0.6856-1.1338 1.8003-1.9998 3.2188-1.9998 1.8758 0 3.4128 1.3648 3.8125 3.1248 0.8615 0.128 1.6255 0.68 1.9685 1.438l1.407 0.656-0.813-3.156 3.25-0.282-2.281-2.312 2.656-1.875-3.125-0.875 1.375-2.9375-3.156 0.8125-0.282-3.25-2.312 2.2812-1.875-2.6562z" />
    <path
       id="path3081"
       style="color:#000000;fill:#bebebe"
       d="m6 10c-1.3013 0-2.397 0.84165-2.8125 2-0.05269-0.0041-0.10251 0-0.15625 0-1.1243 0-2.0312 0.907-2.0312 2.031 0 1.125 0.9069 2.031 2.0312 2.031l6.4688-0.062c0.828 0 1.5-0.672 1.5-1.5s-0.672-1.5-1.5-1.5c-0.1726 0-0.3457 0.04-0.5 0.094 0.001-0.032 0-0.062 0-0.094 0-1.657-1.3431-3-3-3z" />
    <path
       id="path3090"
       style="opacity:.8;color:#000000;fill:#f00"
       d="m6 18c-1.3013 0-2.397 0.842-2.8125 2-0.0527-0.004-0.1025 0-0.1563 0-1.1243 0-2.0312 0.907-2.0312 2.031 0 1.125 0.9069 2.031 2.0312 2.031l6.4688-0.062c0.828 0 1.5-0.672 1.5-1.5s-0.672-1.5-1.5-1.5c-0.1726 0-0.3457 0.04-0.5 0.094 0.001-0.032 0-0.062 0-0.094 0-1.657-1.3431-3-3-3z" />
    <path
       id="path3332"
       style="opacity:.8;color:#000000;fill:#6e6e6e"
       d="m6.625 30-0.40625 4.1562-3-1.7188 1.3438 3.125l-4.1876-0.374 3.4062 2.437-3.7812 1.75 3.9062 0.375c0.5915-0.441 1.2913-0.719 2.0938-0.719 1.8315 0 3.3047 1.3017 3.75 3l0.03125-0.1875 0.65625 0.5c0.40544 0.16568 0.76632 0.41861 1.0312 0.75l2.187 1.656-2.218-4.312 3.718 0.374-2.937-2.437 3.781-1.75-4.156-0.406 3.156-4.25-4.562 2.593 0.218-3.718-2.281 2.937-1.75-3.781z" />
    <path
       id="path3334"
       style="color:#000000;fill:#6e6e6e"
       d="m6 40c-1.3013 0-2.397 0.842-2.8125 2-0.0527-0.004-0.1025 0-0.1563 0-1.1243 0-2.0312 0.907-2.0312 2.031 0 1.125 0.9069 2.031 2.0312 2.031l6.4688-0.062c0.828 0 1.5-0.672 1.5-1.5s-0.672-1.5-1.5-1.5c-0.1726 0-0.3457 0.04-0.5 0.094 0.001-0.032 0-0.062 0-0.094 0-1.657-1.3431-3-3-3z" />
    <path
       id="path4108"
       style="opacity:.8;color:#000000;fill:#6e6e6e"
       transform="matrix(1.0395 0 0 1.0395 -.31584 -19.276)"
       d="m13 13-3.2961-2.313-0.3738 4.009-1.6978-3.651-2.3285 3.285 0.3554-4.011-3.6592 1.681 2.3134-3.2961-4.0096-0.3738 3.6515-1.6978-3.2854-2.3285 4.0112 0.3554-1.6811-3.6592 3.2961 2.3134 0.3738-4.0096 1.6978 3.6515 2.3283-3.2854-0.355 4.0112 3.659-1.6811-2.313 3.2961 4.009 0.3738-3.651 1.6978 3.285 2.3285-4.011-0.3554z" />
  </g>
</svg>
