<?xml version="1.0" encoding="UTF-8" standalone="no"?>
<!-- Created with Inkscape (http://www.inkscape.org/) -->

<svg
   xmlns:dc="http://purl.org/dc/elements/1.1/"
   xmlns:cc="http://creativecommons.org/ns#"
   xmlns:rdf="http://www.w3.org/1999/02/22-rdf-syntax-ns#"
   xmlns:svg="http://www.w3.org/2000/svg"
   xmlns="http://www.w3.org/2000/svg"
   xmlns:sodipodi="http://sodipodi.sourceforge.net/DTD/sodipodi-0.dtd"
   xmlns:inkscape="http://www.inkscape.org/namespaces/inkscape"
   width="16"
   height="16"
   id="svg2"
   sodipodi:version="0.32"
   inkscape:version="0.48.5 r10040"
   version="1.0"
   sodipodi:docname="weather-many-clouds.svg"
   inkscape:output_extension="org.inkscape.output.svg.inkscape">
  <defs
     id="defs4" />
  <sodipodi:namedview
     id="base"
     pagecolor="#ffffff"
     bordercolor="#e7e7e7"
     borderopacity="1"
     inkscape:pageopacity="0.0"
     inkscape:pageshadow="2"
     inkscape:zoom="16.344958"
     inkscape:cx="9.0594992"
     inkscape:cy="12.484384"
     inkscape:document-units="px"
     inkscape:current-layer="layer1"
     showgrid="true"
     inkscape:showpageshadow="false"
     showguides="true"
     inkscape:guide-bbox="true"
     inkscape:window-width="1360"
     inkscape:window-height="707"
     inkscape:window-x="-2"
     inkscape:window-y="33"
     inkscape:window-maximized="1"
     inkscape:snap-global="true">
    <sodipodi:guide
       orientation="1,0"
       position="0,112"
       id="guide2383" />
    <sodipodi:guide
       orientation="0,1"
       position="78.156291,0"
       id="guide2389" />
    <inkscape:grid
       type="xygrid"
       id="grid3672"
       visible="true"
       enabled="true" />
    <sodipodi:guide
       orientation="1,0"
       position="22.008699,4.1542523"
       id="guide2950" />
    <sodipodi:guide
       orientation="0,1"
       position="11.22532,22.008699"
       id="guide2952" />
  </sodipodi:namedview>
  <metadata
     id="metadata7">
    <rdf:RDF>
      <cc:Work
         rdf:about="">
        <dc:format>image/svg+xml</dc:format>
        <dc:type
           rdf:resource="http://purl.org/dc/dcmitype/StillImage" />
        <dc:title />
      </cc:Work>
    </rdf:RDF>
  </metadata>
  <g
     inkscape:label="Calque 1"
     inkscape:groupmode="layer"
     id="layer1">
    <path
       style="color:#000000;fill:#4d4d4d;fill-opacity:1;fill-rule:nonzero;stroke:none;stroke-width:2;marker:none;visibility:visible;display:inline;overflow:visible;enable-background:accumulate"
       d="M 6.5 3 C 4.164201 3 2.2537814 4.7851525 2.03125 7.0625 C 0.8770657 7.2838766 0 8.2812563 0 9.5 C 0 10.880712 1.1192881 12 2.5 12 L 6.4375 12 C 6.3180913 11.708158 6.25 11.397323 6.25 11.0625 C 6.25 9.73622 7.28855 8.677242 8.59375 8.59375 C 9.148474 7.3931837 10.340611 6.5625 11.75 6.5625 C 12.321979 6.5625 12.83573 6.6942084 13.3125 6.9375 C 13.436329 6.9754624 13.567862 7.0118973 13.6875 7.0625 C 13.14124 5.8410281 11.924589 5 10.5 5 C 10.415681 5 10.332827 5.0253863 10.25 5.03125 C 9.446562 3.8026891 8.077518 3 6.5 3 z "
       id="path3110" />
    <path
       sodipodi:type="inkscape:offset"
       inkscape:radius="0"
       inkscape:original="M 8.5 8 C 7.090611 8 5.898474 8.8306837 5.34375 10.03125 C 4.03855 10.114742 3 11.17372 3 12.5 C 3 13.880712 4.119288 15 5.5 15 L 8.5 15 C 10.432997 15 12 13.432997 12 11.5 C 12 9.567003 10.432997 8 8.5 8 z "
       style="color:#000000;fill:#4d4d4d;fill-opacity:1;fill-rule:nonzero;stroke:none;stroke-width:2;marker:none;visibility:visible;display:inline;overflow:visible;enable-background:accumulate"
       id="path3893-8"
       d="M 8.5,8 C 7.090611,8 5.898474,8.8306837 5.34375,10.03125 4.03855,10.114742 3,11.17372 3,12.5 3,13.880712 4.119288,15 5.5,15 l 3,0 C 10.432997,15 12,13.432997 12,11.5 12,9.567003 10.432997,8 8.5,8 z"
       transform="translate(3.7040953,-0.89874303)" />
  </g>
</svg>
