<?xml version="1.0" encoding="UTF-8" standalone="no"?>
<!-- Created with Inkscape (http://www.inkscape.org/) -->

<svg
   xmlns:dc="http://purl.org/dc/elements/1.1/"
   xmlns:cc="http://creativecommons.org/ns#"
   xmlns:rdf="http://www.w3.org/1999/02/22-rdf-syntax-ns#"
   xmlns:svg="http://www.w3.org/2000/svg"
   xmlns="http://www.w3.org/2000/svg"
   xmlns:sodipodi="http://sodipodi.sourceforge.net/DTD/sodipodi-0.dtd"
   xmlns:inkscape="http://www.inkscape.org/namespaces/inkscape"
   id="svg2"
   height="16"
   width="16"
   version="1.0"
   inkscape:version="0.48.5 r10040"
   sodipodi:docname="weather-clouds-night-symbolic.svg">
  <defs
     id="defs217668" />
  <sodipodi:namedview
     pagecolor="#ffffff"
     bordercolor="#666666"
     borderopacity="1"
     objecttolerance="10"
     gridtolerance="10"
     guidetolerance="10"
     inkscape:pageopacity="0"
     inkscape:pageshadow="2"
     inkscape:window-width="640"
     inkscape:window-height="480"
     id="namedview217666" />
  <metadata
     id="metadata7">
    <rdf:RDF>
      <cc:Work
         rdf:about="">
        <dc:format>image/svg+xml</dc:format>
        <dc:type
           rdf:resource="http://purl.org/dc/dcmitype/StillImage" />
        <dc:title />
      </cc:Work>
    </rdf:RDF>
  </metadata>
  <g
     id="layer1">
    <path
       id="path4792"
       style="opacity:.45;color:#000000;fill:#bebebe"
       d="m8 0c-3.3137 8.8818e-16 -6 2.6863-6 6 0 1.1439 0.3195 2.2153 0.875 3.125 0.9056-1.3277 2.4067-2.2188 4.125-2.2188 1.2134 0 2.277 0.5326 3.156 1.25 0.28-0.0941 0.513-0.25 0.844-0.25 0.906 0 1.667 0.4368 2.188 1.0938 0.51-0.8825 0.812-1.9071 0.812-3 0-3.3137-2.686-6-6-6z" />
    <path
       id="path2931"
       style="color:#000000;fill:#bebebe"
       d="m8 0c-3.3137 0-6 2.6863-6 6 0 1.1757 0.3531 2.2617 0.9375 3.1875 0.7272-1.072 1.8436-1.8464 3.1563-2.0937-0.4137-0.7013-0.6563-1.502-0.6563-2.375 0-2.258 1.5991-4.1324 3.7187-4.5938-0.3745-0.073208-0.7602-0.125-1.1562-0.125zm5.719 7.7812c-0.29 0.3376-0.625 0.6321-1 0.875 0.143 0.1262 0.288 0.2843 0.406 0.4376 0.247-0.4084 0.449-0.8474 0.594-1.3126z" />
    <path
       id="path3805"
       style="color:#000000;fill:#bebebe"
       d="m7 8c-1.8769 0-3.4437 1.2876-3.875 3.031-1.201 0.183-2.125 1.217-2.125 2.469 0 1.381 1.1193 2.5 2.5 2.5h9c1.381 0 2.5-1.119 2.5-2.5 0-1.208-0.861-2.204-2-2.438 0.001-0.02 0-0.041 0-0.062 0-1.1046-0.895-2-2-2-0.38 0-0.729 0.1286-1.0312 0.3125-0.732-0.8099-1.7912-1.3125-2.9688-1.3125z" />
  </g>
</svg>
