<?xml version="1.0" encoding="UTF-8" standalone="no"?>
<!-- Created with Inkscape (http://www.inkscape.org/) -->

<svg
   xmlns:dc="http://purl.org/dc/elements/1.1/"
   xmlns:cc="http://creativecommons.org/ns#"
   xmlns:rdf="http://www.w3.org/1999/02/22-rdf-syntax-ns#"
   xmlns:svg="http://www.w3.org/2000/svg"
   xmlns="http://www.w3.org/2000/svg"
   xmlns:xlink="http://www.w3.org/1999/xlink"
   xmlns:sodipodi="http://sodipodi.sourceforge.net/DTD/sodipodi-0.dtd"
   xmlns:inkscape="http://www.inkscape.org/namespaces/inkscape"
   id="svg11037"
   height="96"
   width="96"
   version="1.1"
   inkscape:version="0.48.5 r10040"
   sodipodi:docname="camera-web.svg">
  <sodipodi:namedview
     pagecolor="#ffffff"
     bordercolor="#666666"
     borderopacity="1"
     objecttolerance="10"
     gridtolerance="10"
     guidetolerance="10"
     inkscape:pageopacity="0"
     inkscape:pageshadow="2"
     inkscape:window-width="640"
     inkscape:window-height="480"
     id="namedview1350" />
  <defs
     id="defs11039">
    <clipPath
       id="clipPath3009"
       clipPathUnits="userSpaceOnUse">
      <path
         id="path3011"
         style="opacity:.15;fill:#fff"
         d="m-2 956.36h-96v33.562l96 25.687v-59.25z" />
    </clipPath>
    <linearGradient
       id="linearGradient3721"
       y2="90.239"
       gradientUnits="userSpaceOnUse"
       x2="32.251"
       gradientTransform="translate(0,-97)"
       y1="6.1317"
       x1="32.251">
      <stop
         id="stop3750-8"
         offset="0" />
      <stop
         id="stop3752-5"
         style="stop-opacity:.58824"
         offset="1" />
    </linearGradient>
    <linearGradient
       id="linearGradient3617"
       y2="5.9877"
       gradientUnits="userSpaceOnUse"
       x2="48"
       y1="90"
       x1="48">
      <stop
         id="stop4076"
         style="stop-color:#8c8c8c"
         offset="0" />
      <stop
         id="stop4078"
         style="stop-color:#f5f5f5"
         offset="1" />
    </linearGradient>
    <linearGradient
       id="linearGradient4065"
       y2="5.9877"
       gradientUnits="userSpaceOnUse"
       x2="48"
       y1="80"
       x1="48">
      <stop
         id="stop3643"
         style="stop-color:#0c0c0c"
         offset="0" />
      <stop
         id="stop3645"
         style="stop-color:#373737"
         offset="1" />
    </linearGradient>
    <linearGradient
       id="linearGradient4124"
       y2="63.893"
       gradientUnits="userSpaceOnUse"
       x2="36.357"
       y1="6"
       x1="36.357">
      <stop
         id="stop3739"
         style="stop-color:#fff"
         offset="0" />
      <stop
         id="stop3741"
         style="stop-color:#fff;stop-opacity:0"
         offset="1" />
    </linearGradient>
    <linearGradient
       id="linearGradient4241"
       y2="17"
       gradientUnits="userSpaceOnUse"
       x2="47"
       gradientTransform="translate(0,-2)"
       y1="23"
       x1="47">
      <stop
         id="stop4237"
         style="stop-color:#5dbc1e"
         offset="0" />
      <stop
         id="stop4239"
         style="stop-color:#acc837"
         offset="1" />
    </linearGradient>
    <linearGradient
       id="linearGradient3707"
       y2="44.482"
       gradientUnits="userSpaceOnUse"
       x2="76.772"
       y1="44.482"
       x1="16.162">
      <stop
         id="stop4129"
         style="stop-color:#a4a4a4"
         offset="0" />
      <stop
         id="stop4131"
         style="stop-color:#bfbfbf"
         offset="1" />
    </linearGradient>
    <linearGradient
       id="linearGradient3744"
       y2="44.482"
       gradientUnits="userSpaceOnUse"
       x2="76.772"
       y1="44.482"
       x1="16.162">
      <stop
         id="stop3748"
         style="stop-color:#4c4c4c"
         offset="0" />
      <stop
         id="stop3753"
         style="stop-color:#0a0a0a"
         offset=".6" />
      <stop
         id="stop3751"
         style="stop-color:#4e4e4e"
         offset="1" />
    </linearGradient>
    <linearGradient
       id="linearGradient4139"
       y2="44.482"
       gradientUnits="userSpaceOnUse"
       x2="77.591"
       y1="44.482"
       x1="15.343">
      <stop
         id="stop4135"
         style="stop-color:#1a1a1a"
         offset="0" />
      <stop
         id="stop4137"
         style="stop-color:#292929"
         offset="1" />
    </linearGradient>
    <radialGradient
       id="radialGradient3687"
       gradientUnits="userSpaceOnUse"
       cy="45.997"
       cx="47.73"
       r="13.637">
      <stop
         id="stop3683"
         style="stop-color:#fff;stop-opacity:.18548"
         offset="0" />
      <stop
         id="stop3689"
         style="stop-color:#fff;stop-opacity:.10887"
         offset=".30867" />
      <stop
         id="stop3691"
         style="stop-opacity:0"
         offset=".43622" />
      <stop
         id="stop3693"
         style="stop-opacity:0"
         offset=".54464" />
      <stop
         id="stop3695"
         style="stop-color:#fff;stop-opacity:0"
         offset=".58291" />
      <stop
         id="stop3697"
         style="stop-opacity:.18145"
         offset=".6148" />
      <stop
         id="stop3699"
         style="stop-opacity:.43145"
         offset=".69133" />
      <stop
         id="stop3701"
         style="stop-color:#fff;stop-opacity:.080645"
         offset=".78061" />
      <stop
         id="stop3703"
         style="stop-opacity:0"
         offset=".87628" />
      <stop
         id="stop3685"
         style="stop-color:#fff;stop-opacity:0"
         offset="1" />
    </radialGradient>
    <linearGradient
       id="linearGradient3733"
       y2="45.997"
       gradientUnits="userSpaceOnUse"
       x2="67.957"
       y1="45.997"
       x1="33.199">
      <stop
         id="stop3729"
         style="stop-color:#fff"
         offset="0" />
      <stop
         id="stop3731"
         style="stop-color:#fff;stop-opacity:0"
         offset="1" />
    </linearGradient>
    <filter
       id="filter3774"
       color-interpolation-filters="sRGB">
      <feGaussianBlur
         id="feGaussianBlur3776"
         stdDeviation="0.27274118" />
    </filter>
    <linearGradient
       id="linearGradient3767"
       y2="49.665"
       xlink:href="#linearGradient3761"
       gradientUnits="userSpaceOnUse"
       x2="31.794"
       y1="58.176"
       x1="40.068" />
    <linearGradient
       id="linearGradient3761">
      <stop
         id="stop3763"
         style="stop-color:#fff"
         offset="0" />
      <stop
         id="stop3765"
         style="stop-color:#fff;stop-opacity:0"
         offset="1" />
    </linearGradient>
    <linearGradient
       id="linearGradient3771"
       y2="41.697"
       xlink:href="#linearGradient3761"
       gradientUnits="userSpaceOnUse"
       x2="40.068"
       y1="58.176"
       x1="40.068" />
    <linearGradient
       id="linearGradient4192"
       y2="46.569"
       xlink:href="#linearGradient3761"
       gradientUnits="userSpaceOnUse"
       x2="46.605"
       y1="64.036"
       x1="64.072" />
    <radialGradient
       id="radialGradient3803"
       gradientUnits="userSpaceOnUse"
       cy="52"
       cx="41"
       gradientTransform="matrix(1 0 0 .61803 0 19.862)"
       r="9.7082">
      <stop
         id="stop3799-9"
         style="stop-color:#fff"
         offset="0" />
      <stop
         id="stop3805"
         style="stop-color:#fff"
         offset=".5" />
      <stop
         id="stop3801"
         style="stop-color:#fff;stop-opacity:0"
         offset="1" />
    </radialGradient>
    <clipPath
       id="clipPath3234"
       clipPathUnits="userSpaceOnUse">
      <rect
         id="rect3236"
         style="fill:url(#linearGradient3238)"
         rx="22.826"
         ry="22.826"
         height="84"
         width="84"
         y="6.087"
         x="6" />
    </clipPath>
    <linearGradient
       id="linearGradient3238"
       y2="1046.1"
       gradientUnits="userSpaceOnUse"
       x2="48"
       gradientTransform="matrix(1.05 0 0 1.05 -2.4 -1006.5)"
       y1="962.62"
       x1="48">
      <stop
         id="stop3797"
         style="stop-color:#13a6fd"
         offset="0" />
      <stop
         id="stop3799"
         style="stop-color:#2975b6"
         offset="1" />
    </linearGradient>
  </defs>
  <metadata
     id="metadata11042">
    <rdf:RDF>
      <cc:Work
         rdf:about="">
        <dc:format>image/svg+xml</dc:format>
        <dc:type
           rdf:resource="http://purl.org/dc/dcmitype/StillImage" />
        <dc:title />
      </cc:Work>
    </rdf:RDF>
  </metadata>
  <g
     id="layer1"
     transform="translate(0 -956.36)">
    <g
       id="g3144"
       clip-path="url(#clipPath3234)"
       transform="matrix(1.0952 0 0 1.0952 -4.5714 951.7)">
      <g
         id="layer7">
        <rect
           id="rect3716"
           style="opacity:.45;fill:url(#linearGradient3721)"
           rx="6"
           ry="6"
           transform="scale(1,-1)"
           width="84"
           y="-91"
           x="6"
           height="84" />
      </g>
      <rect
         id="rect2419"
         style="fill:url(#linearGradient3617)"
         rx="6"
         ry="6"
         height="84"
         width="84"
         y="6"
         x="6" />
      <path
         id="path4100"
         style="opacity:.3"
         d="m31.219 7c-3.112 12.061-14.573 20.714-15.188 40.344-0.027 0.545-0.031 1.104-0.031 1.656 0 17.673 14.327 32 32 32s32-14.327 32-32c0-0.552-0.004-1.111-0.031-1.656-0.615-19.63-12.076-28.283-15.188-40.344h-33.562z" />
      <path
         id="rect4063"
         style="fill:url(#linearGradient4065)"
         d="m31.219 6c-3.112 12.061-14.573 20.714-15.188 40.344-0.027 0.545-0.031 1.104-0.031 1.656 0 17.673 14.327 32 32 32s32-14.327 32-32c0-0.552-0.004-1.111-0.031-1.656-0.615-19.63-12.076-28.283-15.188-40.344h-33.562z" />
      <path
         id="path4082"
         d="m16 47.5c-0.0012 0.16728 0 0.33333 0 0.5 0 17.673 14.327 32 32 32s32-14.327 32-32c0-0.16667 0.0012-0.33272 0-0.5-0.267 17.443-14.494 31.5-32 31.5s-31.733-14.057-32-31.5z" />
      <path
         id="path4117"
         style="opacity:.15;fill:url(#linearGradient4124)"
         d="m31.219 6c-0.17545 0.68001-0.39991 1.3391-0.625 2h34.812c-0.225-0.6609-0.449-1.32-0.625-2h-33.562z" />
      <path
         id="path4225"
         style="fill:url(#linearGradient4241)"
         d="m42 21 6-2 6 2-6-6z" />
      <path
         id="path4243"
         style="opacity:.4"
         d="m48 14-6 6 1.5-0.5 4.5-4.5 4.5 4.5 1.5 0.5-6-6z" />
      <path
         id="path4252"
         style="opacity:.3;fill:#fff"
         d="m48 15-6 6 1.5-0.5 4.5-4.5 4.5 4.5 1.5 0.5-6-6z" />
      <g
         id="layer3">
        <path
           id="path4184"
           d="m46.469 10.375c-18.812 0-34.125 15.277-34.125 34.094s15.308 34.125 34.125 34.125 34.125-15.308 34.125-34.125-15.313-34.094-34.125-34.094z"
           style="opacity:.05"
           transform="matrix(0 -.75896 -.75896 0 81.76 84.267)" />
        <path
           id="path4180"
           d="m46.469 11.75c-18.061 0-32.75 14.655-32.75 32.719s14.686 32.75 32.75 32.75 32.75-14.686 32.75-32.75-14.689-32.719-32.75-32.719z"
           style="opacity:.08"
           transform="matrix(0 -.75896 -.75896 0 81.76 84.267)" />
        <path
           id="path4176"
           d="m46.469 12.812c-17.481 0-31.688 14.174-31.688 31.656s14.205 31.688 31.688 31.688c17.482 0 31.688-14.205 31.688-31.688 0-17.482-14.207-31.656-31.688-31.656z"
           style="opacity:.15"
           transform="matrix(0 -.75896 -.75896 0 81.76 84.267)" />
        <path
           id="path4170"
           d="m76.772 44.482a30.305 30.305 0 1 1 -60.609 0 30.305 30.305 0 1 1 60.609 0z"
           style="opacity:.3"
           transform="matrix(0 -.75896 -.75896 0 81.76 84.267)" />
        <path
           id="path3697"
           d="m76.772 44.482a30.305 30.305 0 1 1 -60.609 0 30.305 30.305 0 1 1 60.609 0z"
           style="fill:url(#linearGradient3707)"
           transform="matrix(0 -.75896 -.75896 0 81.76 83.267)" />
        <path
           id="path3742"
           d="m76.772 44.482a30.305 30.305 0 1 1 -60.609 0 30.305 30.305 0 1 1 60.609 0z"
           style="stroke:url(#linearGradient4139);stroke-width:1.6381;fill:url(#linearGradient3744)"
           transform="matrix(0 .61047 -.61047 0 75.155 19.633)" />
        <path
           id="path4158"
           style="opacity:.3;fill:#fff"
           d="m48 25c-12.703 0-23 10.297-23 23 0 0.16702-0.0035 0.33383 0 0.5 0.266-12.472 10.464-22.5 23-22.5s22.734 10.028 23 22.5c0.004-0.166 0-0.333 0-0.5 0-12.703-10.297-23-23-23zm-18.969 23.5c-0.004 0.168-0.031 0.331-0.031 0.5 0 10.493 8.507 19 19 19s19-8.507 19-19c0-0.169-0.027-0.332-0.031-0.5-0.269 10.259-8.645 18.5-18.969 18.5s-18.7-8.241-18.969-18.5z" />
      </g>
      <g
         id="layer4">
        <path
           id="path3757"
           d="m61.367 45.997a13.637 13.637 0 1 1 -27.274 0 13.637 13.637 0 1 1 27.274 0z"
           transform="matrix(1.0266 0 0 1.0266 -1 .77836)" />
        <path
           id="path3760"
           style="opacity:.6"
           d="m47.5 33c-8.008 0-14.5 6.492-14.5 14.5s6.492 14.5 14.5 14.5c0.08504 0 0.16531 0.0015 0.25 0-7.616-0.134-13.75-6.352-13.75-14 0-7.732 6.268-14 14-14 7.6481 0 13.866 6.1339 14 13.75 0.0015-0.08469 0-0.16496 0-0.25 0-8.008-6.492-14.5-14.5-14.5z" />
        <path
           id="path2907"
           d="m61.367 45.997a13.637 13.637 0 1 1 -27.274 0 13.637 13.637 0 1 1 27.274 0z"
           style="fill:url(#radialGradient3687)"
           transform="matrix(1.0266 0 0 1.0266 -1 .77836)" />
        <path
           id="path3705"
           d="m61.367 45.997a13.637 13.637 0 1 1 -27.274 0 13.637 13.637 0 1 1 27.274 0z"
           style="filter:url(#filter3774);stroke:url(#linearGradient3733);stroke-width:.51461;fill:none"
           transform="matrix(0 .97162 -.97162 0 92.692 1.625)" />
        <path
           id="path3735"
           style="opacity:.6;fill:#fff"
           d="m41.344 47.375c0.07082-0.7673 0.28542-1.4864 0.59375-2.1562l-4.594-2.407c-0.604 1.2431-1.0182 2.622-1.1562 4.0625l5.1562 0.5zm1.375-3.4375c1.071-1.3891 2.6676-2.349 4.5-2.5625l-0.594-5.157c-3.5985 0.41709-6.6541 2.4358-8.5312 5.3125l4.625 2.4062z" />
        <path
           id="path3759"
           d="m50.708 52a9.7082 6 0 1 1 -19.416 0 9.7082 6 0 1 1 19.416 0z"
           style="opacity:.43145;fill:url(#linearGradient3767)"
           transform="matrix(.58269 -.58269 .58269 .58269 -.74356 46.936)" />
        <path
           id="path3769"
           d="m50.708 52a9.7082 6 0 1 1 -19.416 0 9.7082 6 0 1 1 19.416 0z"
           style="opacity:.3;fill:url(#linearGradient3771)"
           transform="matrix(.15077 -.15077 .15077 .15077 37.388 49.65)" />
        <path
           id="path3773"
           d="m50.708 52a9.7082 6 0 1 1 -19.416 0 9.7082 6 0 1 1 19.416 0z"
           style="opacity:.3;fill:url(#linearGradient3771)"
           transform="matrix(-.10758 .10758 -.10758 -.10758 55.999 47.077)" />
        <path
           id="path3777"
           d="m50.708 52a9.7082 6 0 1 1 -19.416 0 9.7082 6 0 1 1 19.416 0z"
           style="opacity:.43145;fill:url(#linearGradient3771)"
           transform="matrix(-.19359 .19359 -.19359 -.19359 59.194 43.219)" />
        <path
           id="path3789"
           d="m50.708 52a9.7082 6 0 1 1 -19.416 0 9.7082 6 0 1 1 19.416 0z"
           style="opacity:.6;fill:url(#linearGradient3771)"
           transform="matrix(.089686 -.089686 .089686 .089686 40.497 47.751)" />
        <path
           id="path3806"
           style="opacity:.5;fill:url(#linearGradient4192)"
           d="m48 32c-8.8366 0-16 7.1634-16 16s7.1634 16 16 16 16-7.1634 16-16-7.1634-16-16-16zm0 1c8.2843 0 15 6.7157 15 15s-6.7157 15-15 15-15-6.7157-15-15 6.7157-15 15-15z" />
      </g>
      <g
         id="layer6">
        <path
           id="path3793"
           d="m50.708 52a9.7082 6 0 1 1 -19.416 0 9.7082 6 0 1 1 19.416 0z"
           style="fill:url(#radialGradient3803)"
           transform="matrix(.23288 -.23288 .23288 .23288 33.267 52.135)" />
        <path
           id="path3285"
           d="m61.367 45.997a13.637 13.637 0 1 1 -27.274 0 13.637 13.637 0 1 1 27.274 0z"
           style="opacity:.3;fill:#5f8dd3"
           transform="matrix(1.0266 0 0 1.0266 -1 .77836)" />
      </g>
    </g>
    <rect
       id="rect3003"
       style="opacity:.15;fill:#fff"
       clip-path="url(#clipPath3009)"
       rx="25"
       ry="25"
       transform="translate(98)"
       width="92"
       y="958.36"
       x="-96"
       height="92" />
  </g>
</svg>
