<?xml version="1.0" encoding="UTF-8" standalone="no"?>
<!-- Created with Inkscape (http://www.inkscape.org/) -->

<svg
   xmlns:dc="http://purl.org/dc/elements/1.1/"
   xmlns:cc="http://creativecommons.org/ns#"
   xmlns:rdf="http://www.w3.org/1999/02/22-rdf-syntax-ns#"
   xmlns:svg="http://www.w3.org/2000/svg"
   xmlns="http://www.w3.org/2000/svg"
   xmlns:xlink="http://www.w3.org/1999/xlink"
   xmlns:sodipodi="http://sodipodi.sourceforge.net/DTD/sodipodi-0.dtd"
   xmlns:inkscape="http://www.inkscape.org/namespaces/inkscape"
   id="svg2408"
   height="96"
   width="96"
   version="1.0"
   inkscape:version="0.48.5 r10040"
   sodipodi:docname="system.svg">
  <sodipodi:namedview
     pagecolor="#ffffff"
     bordercolor="#666666"
     borderopacity="1"
     objecttolerance="10"
     gridtolerance="10"
     guidetolerance="10"
     inkscape:pageopacity="0"
     inkscape:pageshadow="2"
     inkscape:window-width="640"
     inkscape:window-height="480"
     id="namedview1646" />
  <defs
     id="defs2410">
    <linearGradient
       id="linearGradient2675"
       y2="69.688"
       xlink:href="#linearGradient3737"
       gradientUnits="userSpaceOnUse"
       x2="65.156"
       y1="16.125"
       x1="65.156" />
    <radialGradient
       id="radialGradient3465"
       gradientUnits="userSpaceOnUse"
       cy="-15.894"
       cx="48"
       gradientTransform="matrix(-.0050683 1.2205 -1.3844 -.0057456 26.241 -46.842)"
       r="35.938">
      <stop
         id="stop3177"
         style="stop-color:#55a6eb"
         offset="0" />
      <stop
         id="stop3179"
         style="stop-color:#1754c4"
         offset="1" />
    </radialGradient>
    <linearGradient
       id="ButtonShadow"
       y2="7.0165"
       gradientUnits="userSpaceOnUse"
       x2="45.448"
       gradientTransform="scale(1.0059 .99417)"
       y1="92.54"
       x1="45.448">
      <stop
         id="stop3750"
         offset="0" />
      <stop
         id="stop3752"
         style="stop-opacity:.58824"
         offset="1" />
    </linearGradient>
    <linearGradient
       id="linearGradient3737">
      <stop
         id="stop3739"
         style="stop-color:#fff"
         offset="0" />
      <stop
         id="stop3741"
         style="stop-color:#fff;stop-opacity:0"
         offset="1" />
    </linearGradient>
    <filter
       id="filter3174"
       color-interpolation-filters="sRGB">
      <feGaussianBlur
         id="feGaussianBlur3176"
         stdDeviation="1.71" />
    </filter>
    <linearGradient
       id="linearGradient3188"
       y2="63.893"
       xlink:href="#linearGradient3737"
       gradientUnits="userSpaceOnUse"
       x2="36.357"
       y1="6"
       x1="36.357" />
    <linearGradient
       id="linearGradient3507"
       y2="75.716"
       xlink:href="#linearGradient3737"
       gradientUnits="userSpaceOnUse"
       x2="46.021"
       y1="-2.75"
       x1="24.996" />
    <filter
       id="filter3531"
       height="1.84"
       width="1.336"
       y="-.42"
       x="-.168"
       color-interpolation-filters="sRGB">
      <feGaussianBlur
         id="feGaussianBlur3533"
         stdDeviation="0.55" />
    </filter>
    <linearGradient
       id="linearGradient3701"
       y2="64.556"
       xlink:href="#linearGradient3737"
       gradientUnits="userSpaceOnUse"
       x2="67.261"
       gradientTransform="translate(-80)"
       y1="20.867"
       x1="10.899" />
    <linearGradient
       id="linearGradient3735"
       y2="5.9877"
       gradientUnits="userSpaceOnUse"
       x2="48"
       y1="90"
       x1="48">
      <stop
         id="stop3702"
         style="stop-color:#dcdcdc"
         offset="0" />
      <stop
         id="stop3704"
         style="stop-color:#f0f0f0"
         offset="1" />
    </linearGradient>
    <linearGradient
       id="linearGradient4126"
       y2="64.188"
       gradientUnits="userSpaceOnUse"
       x2="142.47"
       gradientTransform="translate(-80)"
       y1="16.125"
       x1="142.47">
      <stop
         id="stop3689"
         style="stop-color:#fff"
         offset="0" />
      <stop
         id="stop3691"
         style="stop-color:#fff;stop-opacity:0"
         offset="1" />
    </linearGradient>
    <linearGradient
       id="linearGradient4151"
       y2="87.868"
       xlink:href="#linearGradient3737"
       gradientUnits="userSpaceOnUse"
       x2="68.517"
       y1="9.0625"
       x1="68.517" />
    <filter
       id="filter4161"
       color-interpolation-filters="sRGB">
      <feGaussianBlur
         id="feGaussianBlur4163"
         stdDeviation="0.50332031" />
    </filter>
    <radialGradient
       id="radialGradient2874"
       gradientUnits="userSpaceOnUse"
       cy="90.172"
       cx="48"
       gradientTransform="matrix(1.1573 0 0 .99591 -7.551 .19713)"
       r="42">
      <stop
         id="stop3739-7"
         style="stop-color:#fff"
         offset="0" />
      <stop
         id="stop3741-2"
         style="stop-color:#fff;stop-opacity:0"
         offset="1" />
    </radialGradient>
    <linearGradient
       id="ButtonShadow-0"
       y2="7.0165"
       gradientUnits="userSpaceOnUse"
       x2="45.448"
       gradientTransform="matrix(1.0059 0 0 .99417 100 0)"
       y1="92.54"
       x1="45.448">
      <stop
         id="stop3750-8"
         offset="0" />
      <stop
         id="stop3752-5"
         style="stop-opacity:.58824"
         offset="1" />
    </linearGradient>
    <linearGradient
       id="linearGradient3780"
       y2="90.239"
       xlink:href="#ButtonShadow-0"
       gradientUnits="userSpaceOnUse"
       x2="32.251"
       gradientTransform="matrix(1.0238 0 0 1.0119 -1.1429 -98.071)"
       y1="6.1317"
       x1="32.251" />
    <linearGradient
       id="linearGradient3721"
       y2="90.239"
       xlink:href="#ButtonShadow-0"
       gradientUnits="userSpaceOnUse"
       x2="32.251"
       gradientTransform="translate(0,-97)"
       y1="6.1317"
       x1="32.251" />
  </defs>
  <metadata
     id="metadata2413">
    <rdf:RDF>
      <cc:Work
         rdf:about="">
        <dc:format>image/svg+xml</dc:format>
        <dc:type
           rdf:resource="http://purl.org/dc/dcmitype/StillImage" />
      </cc:Work>
    </rdf:RDF>
  </metadata>
  <g
     id="layer2"
     style="display:none">
    <rect
       id="rect3745"
       style="opacity:.9;filter:url(#filter3174);fill:url(#ButtonShadow)"
       rx="6"
       ry="6"
       height="85"
       width="86"
       y="7"
       x="5" />
  </g>
  <g
     id="layer6">
    <path
       id="path3786"
       d="m12-95.031c-5.5111 0-10.031 4.5202-10.031 10.031v71c0 5.5111 4.5202 10.031 10.031 10.031h72c5.5111 0 10.031-4.5202 10.031-10.031v-71c0-5.5111-4.5202-10.031-10.031-10.031h-72z"
       style="opacity:.08;fill:url(#linearGradient3780)"
       transform="scale(1,-1)" />
    <path
       id="path3778"
       d="m12-94.031c-4.9716 0-9.0312 4.0596-9.0312 9.0312v71c0 4.9716 4.0596 9.0312 9.0312 9.0312h72c4.9716 0 9.0312-4.0596 9.0312-9.0312v-71c0-4.9716-4.0596-9.0312-9.0312-9.0312h-72z"
       style="opacity:.1;fill:url(#linearGradient3780)"
       transform="scale(1,-1)" />
    <path
       id="path3770"
       d="m12-93c-4.4091 0-8 3.5909-8 8v71c0 4.4091 3.5909 8 8 8h72c4.4091 0 8-3.5909 8-8v-71c0-4.4091-3.5909-8-8-8h-72z"
       style="opacity:.2;fill:url(#linearGradient3780)"
       transform="scale(1,-1)" />
    <rect
       id="rect3723"
       style="opacity:.3;fill:url(#linearGradient3780)"
       transform="scale(1,-1)"
       rx="7"
       ry="7"
       height="85"
       width="86"
       y="-92"
       x="5" />
    <rect
       id="rect3716"
       style="opacity:.45;fill:url(#linearGradient3721)"
       transform="scale(1,-1)"
       rx="6"
       ry="6"
       height="84"
       width="84"
       y="-91"
       x="6" />
  </g>
  <g
     id="layer3">
    <path
       id="path3215"
       d="m12.062 12.062v53.875h71.875v-53.875h-71.875z"
       style="fill:url(#radialGradient3465)"
       transform="matrix(-1.0009 0 0 -1.1558 96.01 88.221)" />
    <path
       id="path3726"
       style="filter:url(#filter4161);fill:#0e367e"
       d="m12 12v62.281h71.938v-62.281h-71.938zm3 3h66v56h-66v-56z" />
  </g>
  <g
     id="layer1">
    <path
       id="rect2419"
       style="fill:url(#linearGradient3735)"
       d="m12 6c-3.324 0-6 2.676-6 6v72c0 3.324 2.676 6 6 6h72c3.324 0 6-2.676 6-6v-72c0-3.324-2.676-6-6-6h-72zm2 7.4949h68.379v58.505h-68.379v-58.505z" />
    <path
       id="rect3728"
       style="fill:url(#linearGradient3188)"
       d="m12 6c-3.324 0-6 2.676-6 6v72c0 0.33472 0.04135 0.6507 0.09375 0.96875 0.0487 0.2956 0.09704 0.59692 0.1875 0.875 0.00988 0.03038 0.020892 0.0636 0.03125 0.09375 0.098865 0.28777 0.23488 0.54745 0.375 0.8125 0.14459 0.27351 0.31562 0.53562 0.5 0.78125 0.18438 0.24564 0.37378 0.47347 0.59375 0.6875 0.43995 0.42806 0.94291 0.81453 1.5 1.0938 0.27854 0.13961 0.57347 0.24695 0.875 0.34375-0.2562-0.10022-0.48671-0.23627-0.71875-0.375-0.00741-0.0044-0.023866 0.0045-0.03125 0-0.031933-0.0193-0.062293-0.04251-0.09375-0.0625-0.1204-0.0767-0.23102-0.16351-0.34375-0.25-0.10617-0.0808-0.21328-0.16111-0.3125-0.25-0.1778-0.162-0.3473-0.346-0.4999-0.531-0.1075-0.131-0.2183-0.266-0.3124-0.407-0.0251-0.038-0.0385-0.086-0.0626-0.125-0.0647-0.103-0.1302-0.204-0.1874-0.312-0.1011-0.195-0.2057-0.416-0.2813-0.625-0.008-0.022-0.0236-0.041-0.0313-0.063-0.0318-0.092-0.0358-0.187-0.0624-0.281-0.0304-0.107-0.0704-0.203-0.0938-0.313-0.0729-0.341-0.125-0.698-0.125-1.062v-72c0-2.782 2.2182-5 5-5h72c2.7818 0 5 2.2182 5 5v72c0 0.3643-0.05212 0.72099-0.125 1.0625-0.04415 0.20689-0.08838 0.39766-0.15625 0.59375-0.0077 0.02195-0.0233 0.04069-0.03125 0.0625-0.06274 0.17374-0.13838 0.36745-0.21875 0.53125-0.04158 0.0828-0.07904 0.16995-0.125 0.25-0.0546 0.09721-0.12677 0.18835-0.1875 0.28125-0.09411 0.14096-0.20492 0.276-0.3125 0.40625-0.14317 0.17445-0.30314 0.347-0.46875 0.5-0.01117 0.0102-0.01998 0.02115-0.03125 0.03125-0.13839 0.12556-0.28509 0.23444-0.4375 0.34375-0.10257 0.07315-0.20432 0.15336-0.3125 0.21875-0.0074 0.0045-0.02384-0.0044-0.03125 0-0.23204 0.13873-0.46255 0.27478-0.71875 0.375 0.30153-0.0968 0.59646-0.20414 0.875-0.34375 0.55709-0.27922 1.0601-0.66569 1.5-1.0938 0.21997-0.21403 0.40937-0.44186 0.59375-0.6875s0.35541-0.50774 0.5-0.78125c0.14012-0.26505 0.27614-0.52473 0.375-0.8125 0.01041-0.03078 0.02133-0.06274 0.03125-0.09375 0.09046-0.27808 0.1388-0.5794 0.1875-0.875 0.053-0.318 0.094-0.634 0.094-0.969v-72c0-3.324-2.676-6-6-6h-72z" />
    <path
       id="path3174"
       d="m11.312 8c-1.8834 0-3.312 1.4294-3.312 3.312v63.375c0 1.884 1.4286 3.313 3.312 3.313h73.375c1.884 0 3.313-1.429 3.313-3.312v-63.375c0-1.8836-1.429-3.313-3.312-3.313h-73.376zm2.688 6h68v58h-68v-58z" />
    <path
       id="rect3535"
       d="m33 74c-1.662 0-3 1.338-3 3h-3v1c1.656 0 3 1.344 3 3v2c0 1.662 1.338 3 3 3h30c1.662 0 3-1.338 3-3v-2c0-1.656 1.344-3 3-3v-1h-3c0-1.662-1.338-3-3-3h-30z" />
    <path
       id="rect3483"
       style="fill:#7f7f7f"
       d="m14 72h68v1h-68v-1z" />
    <rect
       id="rect3525"
       style="opacity:.24303;filter:url(#filter3531);fill:#cf0"
       transform="matrix(1.2045 0 0 1.4099 -7.1477 -33.243)"
       rx="1.5714"
       ry="1.5714"
       height="3.1429"
       width="7.8571"
       y="79.536"
       x="50.571" />
    <rect
       id="rect3485"
       style="fill:#7fff2a"
       rx="1"
       ry="1"
       height="2"
       width="5"
       y="80.107"
       x="56" />
    <path
       id="path3737"
       style="fill:#fff"
       d="m8 74.688v1c0 1.883 1.4286 3.312 3.312 3.312h15.688c1.656 0 3 1.344 3 3v-1c0-1.656-1.344-3-3-3h-15.688c-1.8834 0-3.312-1.429-3.312-3.312zm80 0c0 1.883-1.429 3.312-3.312 3.312h-15.688c-1.656 0-3 1.344-3 3v1c0-1.656 1.344-3 3-3h15.688c1.883 0 3.312-1.429 3.312-3.312v-1zm-58 8.312v1c0 1.662 1.338 3 3 3h30c1.662 0 3-1.338 3-3v-1c0 1.662-1.338 3-3 3h-30c-1.662 0-3-1.338-3-3z" />
    <path
       id="path3615"
       style="opacity:.6;fill:url(#radialGradient2874)"
       d="m12 90c-3.324 0-6-2.676-6-6v-72c0-0.33472 0.04135-0.6507 0.09375-0.96875 0.0487-0.2956 0.09704-0.59692 0.1875-0.875 0.0099-0.03 0.0209-0.063 0.0313-0.094 0.0989-0.2873 0.2349-0.547 0.375-0.812 0.1446-0.2735 0.3156-0.5356 0.5-0.7812 0.1844-0.2457 0.3738-0.4735 0.5937-0.6876 0.44-0.428 0.943-0.8145 1.5-1.0937 0.2786-0.1396 0.5735-0.2469 0.8748-0.3437-0.256 0.1002-0.4865 0.2362-0.7185 0.375-0.00741 0.0044-0.023866-0.0045-0.03125 0-0.031933 0.0193-0.062293 0.04251-0.09375 0.0625-0.1204 0.0767-0.23102 0.16351-0.34375 0.25-0.10617 0.0808-0.21328 0.16111-0.3125 0.25-0.1779 0.1614-0.3474 0.3453-0.5 0.5312-0.1075 0.1303-0.2183 0.2653-0.3124 0.4063-0.0251 0.0383-0.0385 0.0858-0.0626 0.125-0.0647 0.103-0.1302 0.2045-0.1874 0.3124-0.1011 0.1948-0.2057 0.4158-0.2813 0.625-0.008 0.0219-0.0236 0.0406-0.0313 0.0626-0.0318 0.0919-0.0358 0.1868-0.0624 0.2812-0.0304 0.1066-0.0704 0.203-0.0938 0.3125-0.0729 0.3415-0.125 0.6985-0.125 1.0625v72c0 2.7818 2.2182 5 5 5h72c2.7818 0 5-2.2182 5-5v-72c0-0.364-0.052-0.721-0.125-1.0625-0.044-0.2069-0.088-0.3977-0.156-0.5937-0.008-0.022-0.024-0.0407-0.031-0.0626-0.063-0.1737-0.139-0.3674-0.219-0.5312-0.042-0.0828-0.079-0.17-0.125-0.25-0.055-0.0972-0.127-0.1884-0.188-0.2812-0.094-0.141-0.205-0.276-0.312-0.4063-0.143-0.1745-0.303-0.347-0.469-0.5-0.011-0.0102-0.02-0.0211-0.031-0.0313-0.139-0.1255-0.285-0.2344-0.438-0.3437-0.102-0.0731-0.204-0.1534-0.312-0.2187-0.0074-0.0045-0.02384 0.0044-0.03125 0-0.23204-0.13873-0.46255-0.27478-0.71875-0.375 0.30153 0.0968 0.59646 0.20414 0.875 0.34375 0.55709 0.27922 1.0601 0.66569 1.5 1.0938 0.21997 0.21403 0.40937 0.44186 0.59375 0.6875s0.35541 0.50774 0.5 0.78125c0.14012 0.26505 0.27614 0.52473 0.375 0.8125 0.01041 0.03078 0.02133 0.06274 0.03125 0.09375 0.09046 0.27808 0.1388 0.5794 0.1875 0.875 0.053 0.318 0.094 0.634 0.094 0.969v72c0 3.324-2.676 6-6 6h-72z" />
  </g>
  <g
     id="layer4"
     style="display:none">
    <path
       id="path3488"
       style="opacity:.4;fill:url(#linearGradient3507);fill-rule:evenodd"
       d="m11.312 9.1562c-1.2968 0-2.1562 0.86016-2.1562 2.1562v63.375c0 1.2961 0.85945 2.1562 2.1562 2.1562h21.406c0.42677-0.0067 0.8228 0.2213 1.0312 0.59375l3.2812 6c0.29448 0.53988 0.49167 1.0078 0.65625 1.2188 0.16458 0.21098 0.11722 0.1875 0.3125 0.1875h7.1562l-4.4688-13.688h-24.688c-0.636-0.001-1.152-0.517-1.154-1.155v-54c-0.0056-0.5713 0.4053-1.0617 0.96875-1.1562 0.0624-0.0051 0.1251-0.0051 0.1875 0h6.25l-1.875-5.6875h-9.0625zm28.688 0 3.2812 5.6875h36.719c0.63754 0.0025 1.1537 0.51871 1.1562 1.1562v54c-0.002 0.638-0.518 1.154-1.156 1.156h-4.2188l3.2812 5.6875h5.625c1.2968 0 2.1562-0.86016 2.1562-2.1562v-63.375c0-1.2961-0.85945-2.1562-2.1562-2.1562h-44.688z" />
    <path
       id="path3515"
       style="opacity:.6;fill-rule:evenodd;fill:url(#linearGradient3507)"
       d="m17 17v52h22.969l-17-52h-5.969zm27.531 0 30 52h4.469v-52h-34.469z" />
  </g>
  <g
     id="layer5">
    <path
       id="path3691"
       style="display:none"
       d="m11.312 8c-1.8834 0-3.312 1.4294-3.312 3.312v63.375c0 1.884 1.4286 3.313 3.312 3.313h15.688c1.656 0 3 1.344 3 3v2c0 1.662 1.338 3 3 3h30c1.662 0 3-1.338 3-3v-2c0-1.656 1.344-3 3-3h15.688c1.883 0 3.312-1.429 3.312-3.312v-63.375c0-1.8836-1.429-3.313-3.312-3.313h-73.376zm2.688 6h68v58h-68v-58z" />
    <path
       id="path3698"
       style="fill:url(#linearGradient3701)"
       d="m-67.183 87.788l-3.0737-20.844s14.076-5.3215 14.076-5.3215l5.1263 18.755s-16.128 7.4101-16.128 7.4101m18.01-8.2746l-5.3498-18.518 12.54-4.7409 6.9175 16.777-14.107 6.4816m15.761-7.2412l-7.0887-16.578 11.242-4.2503 8.2904 15.111-12.444 5.7174m13.908-6.39l-8.4218-14.942 10.136-3.8322 9.344 13.693-11.058 5.0808m-51.04-0.88787l-2.2299-15.122 12.328-3.8556 3.7813 13.834s-13.879 5.1428-13.879 5.1428m15.516-5.7492l-3.9539-13.686 11.151-3.4877 5.1887 12.584-12.386 4.5896m13.851-5.1325l-5.3264-12.456 10.136-3.1701 6.3124 11.505-11.122 4.1211m12.441-4.61l-6.4224-11.395 9.2527-2.8939 7.2112 10.568-10.041 3.7208m-44.254-1.079l-1.6915-11.471 10.964-2.8957 2.9042 10.625-12.176 3.7414m13.623-4.186l-3.0412-10.527 10.034-2.6502s4.0359 9.7881 4.0359 9.7881l-11.029 3.3888m12.342-3.7925s-4.1485-9.7016-4.1485-9.7016l9.2179-2.4347s4.9667 9.0525 4.9667 9.0525l-10.036 3.0838m11.234-3.452s-5.0594-8.9763-5.0594-8.9763l8.4974-2.2444s5.7337 8.4025 5.7337 8.4025l-9.1717 2.8182m-39.057-1.162l-1.3271-8.9996 9.8701-2.2355s2.3005 8.4165 2.3005 8.4165l-10.843 2.8186m12.14-3.1555l-2.4118-8.348 9.1172-2.0649s3.2288 7.8307 3.2288 7.8307l-9.9343 2.5822m11.124-2.8915s-3.3224-7.7697-3.3224-7.7697l8.4473-1.9132s4.0098 7.3085 4.0098 7.3085l-9.1348 2.3744m10.231-2.6593l-4.0886-7.254 7.8487-1.7776s4.6681 6.8408 4.6681 6.8408l-8.4281 2.1907" />
    <path
       id="path2669"
       style="opacity:.5;fill:url(#linearGradient2675);fill-rule:evenodd"
       d="m47.656 16.125 22.031 63.75h1l-22.031-63.75h-1z" />
    <path
       id="path3664"
       style="opacity:.7;fill:url(#linearGradient4126);fill-rule:evenodd"
       d="m47.656 16.125 22.031 63.75h9.3125c0.5388 0 0.875-0.3362 0.875-0.875v-62c0-0.5388-0.33619-0.875-0.875-0.875h-31.344z" />
    <path
       id="path4128"
       style="opacity:.3;fill:url(#linearGradient4151);fill-rule:evenodd"
       d="m45.031 9.0625 1.375 3.875h35.594c0.58434 0.0059 1.0566 0.47816 1.0625 1.0625v58c-0.005 0.584-0.478 1.057-1.062 1.062h-14.25l1.375 3.875h15.562c1.341 0 2.25-0.90969 2.25-2.25v-63.375c0-1.3403-0.90898-2.25-2.25-2.25h-39.656z" />
  </g>
</svg>
