<?xml version="1.0" encoding="UTF-8" standalone="no"?>
<!-- Created with Inkscape (http://www.inkscape.org/) -->

<svg
   xmlns:dc="http://purl.org/dc/elements/1.1/"
   xmlns:cc="http://creativecommons.org/ns#"
   xmlns:rdf="http://www.w3.org/1999/02/22-rdf-syntax-ns#"
   xmlns:svg="http://www.w3.org/2000/svg"
   xmlns="http://www.w3.org/2000/svg"
   xmlns:xlink="http://www.w3.org/1999/xlink"
   xmlns:sodipodi="http://sodipodi.sourceforge.net/DTD/sodipodi-0.dtd"
   xmlns:inkscape="http://www.inkscape.org/namespaces/inkscape"
   id="svg2408"
   height="96"
   width="96"
   version="1.0"
   inkscape:version="0.48.5 r10040"
   sodipodi:docname="drive-harddisk-system.svg">
  <sodipodi:namedview
     pagecolor="#ffffff"
     bordercolor="#666666"
     borderopacity="1"
     objecttolerance="10"
     gridtolerance="10"
     guidetolerance="10"
     inkscape:pageopacity="0"
     inkscape:pageshadow="2"
     inkscape:window-width="640"
     inkscape:window-height="480"
     id="namedview2422" />
  <defs
     id="defs2410">
    <linearGradient
       id="linearGradient3448">
      <stop
         id="stop3450"
         offset="0" />
      <stop
         id="stop3452"
         style="stop-opacity:0"
         offset="1" />
    </linearGradient>
    <linearGradient
       id="linearGradient3220">
      <stop
         id="stop3222"
         style="stop-color:#fff"
         offset="0" />
      <stop
         id="stop3224"
         style="stop-color:#bfbfbf;stop-opacity:0"
         offset="1" />
    </linearGradient>
    <linearGradient
       id="ButtonShadow"
       y2="7.0165"
       gradientUnits="userSpaceOnUse"
       x2="45.448"
       gradientTransform="scale(1.0059 .99417)"
       y1="92.54"
       x1="45.448">
      <stop
         id="stop3750"
         offset="0" />
      <stop
         id="stop3752"
         style="stop-opacity:.58824"
         offset="1" />
    </linearGradient>
    <linearGradient
       id="linearGradient3737">
      <stop
         id="stop3739"
         style="stop-color:#fff"
         offset="0" />
      <stop
         id="stop3741"
         style="stop-color:#fff;stop-opacity:0"
         offset="1" />
    </linearGradient>
    <filter
       id="filter3179"
       height="1.9231"
       width="1.5902"
       y="-.46154"
       x="-.29508"
       color-interpolation-filters="sRGB">
      <feGaussianBlur
         id="feGaussianBlur3181"
         stdDeviation="6.6964288" />
    </filter>
    <filter
       id="filter3174"
       color-interpolation-filters="sRGB">
      <feGaussianBlur
         id="feGaussianBlur3176"
         stdDeviation="1.71" />
    </filter>
    <linearGradient
       id="linearGradient3188"
       y2="63.893"
       xlink:href="#linearGradient3737"
       gradientUnits="userSpaceOnUse"
       x2="36.357"
       y1="6"
       x1="36.357" />
    <linearGradient
       id="linearGradient3179"
       y2="8.6071"
       gradientUnits="userSpaceOnUse"
       x2="88"
       y1="86.214"
       x1="-1.8571">
      <stop
         id="stop3175"
         style="stop-color:#e6e6e6"
         offset="0" />
      <stop
         id="stop3189"
         style="stop-color:#c3c3c3"
         offset=".26003" />
      <stop
         id="stop3187"
         style="stop-color:#b9b9b9"
         offset=".4918" />
      <stop
         id="stop3191"
         style="stop-color:#c8c8c8"
         offset=".75914" />
      <stop
         id="stop3177"
         style="stop-color:#e6e6e6"
         offset="1" />
    </linearGradient>
    <linearGradient
       id="linearGradient3279"
       y2="77.094"
       gradientUnits="userSpaceOnUse"
       x2="32"
       y1="77.094"
       x1="6">
      <stop
         id="stop3324"
         style="stop-color:#7a7a7a"
         offset="0" />
      <stop
         id="stop3326"
         style="stop-color:#f9f9f9"
         offset=".2032" />
      <stop
         id="stop3328"
         style="stop-color:#c9c9c9"
         offset=".42969" />
      <stop
         id="stop3330"
         style="stop-color:#dedede;stop-opacity:0"
         offset="1" />
    </linearGradient>
    <linearGradient
       id="linearGradient3287"
       y2="77.094"
       gradientUnits="userSpaceOnUse"
       x2="32.031"
       gradientTransform="matrix(-1 0 0 1 96.031 0)"
       y1="77.094"
       x1="6">
      <stop
         id="stop3275"
         style="stop-color:#7a7a7a"
         offset="0" />
      <stop
         id="stop3281"
         style="stop-color:#f9f9f9"
         offset=".14636" />
      <stop
         id="stop3283"
         style="stop-color:#c9c9c9"
         offset=".37254" />
      <stop
         id="stop3277"
         style="stop-color:#dedede;stop-opacity:0"
         offset="1" />
    </linearGradient>
    <linearGradient
       id="linearGradient3454"
       y2="75.5"
       xlink:href="#linearGradient3448"
       gradientUnits="userSpaceOnUse"
       x2="45.219"
       gradientTransform="matrix(-1,0,0,1,96,0)"
       y1="75.5"
       x1="6" />
    <linearGradient
       id="linearGradient3460"
       y2="90"
       xlink:href="#linearGradient3448"
       gradientUnits="userSpaceOnUse"
       x2="48"
       y1="77.094"
       x1="48" />
    <linearGradient
       id="linearGradient3517"
       y2="19.161"
       xlink:href="#linearGradient3737"
       gradientUnits="userSpaceOnUse"
       x2="48"
       y1="72"
       x1="41.042" />
    <linearGradient
       id="linearGradient3527"
       y2="-60.296"
       xlink:href="#linearGradient3448"
       gradientUnits="userSpaceOnUse"
       x2="38.766"
       gradientTransform="matrix(1.0278 0 0 1.05 -.30556 -2.65)"
       y1="73"
       x1="38.766" />
    <linearGradient
       id="linearGradient3547"
       y2="72.112"
       gradientUnits="userSpaceOnUse"
       x2="44.325"
       y1="12"
       x1="44.325">
      <stop
         id="stop4329"
         style="stop-color:#f0f0f0"
         offset="0" />
      <stop
         id="stop4331"
         style="stop-color:#b4b4b4"
         offset="1" />
    </linearGradient>
    <linearGradient
       id="linearGradient3551"
       y2="68.517"
       xlink:href="#linearGradient3220"
       gradientUnits="userSpaceOnUse"
       x2="109.19"
       gradientTransform="matrix(1,0,0,-1,0,84)"
       y1="8.0469"
       x1="18.743" />
    <linearGradient
       id="linearGradient3556"
       y2="85.062"
       gradientUnits="userSpaceOnUse"
       x2="20.179"
       y1="85.062"
       x1="16">
      <stop
         id="stop3378"
         style="stop-color:#767676"
         offset="0" />
      <stop
         id="stop3380"
         style="stop-color:#fdfdfd"
         offset="1" />
    </linearGradient>
    <radialGradient
       id="radialGradient3558"
       gradientUnits="userSpaceOnUse"
       cy="85.062"
       cx="18.089"
       gradientTransform="matrix(1 0 0 1.0043 0 -.36352)"
       r="2.0893">
      <stop
         id="stop3368"
         style="stop-color:#c1ff97"
         offset="0" />
      <stop
         id="stop3370"
         style="stop-color:#30c700"
         offset="1" />
    </radialGradient>
    <linearGradient
       id="linearGradient4231"
       y2="88.011"
       gradientUnits="userSpaceOnUse"
       x2="67.071"
       gradientTransform="translate(-2)"
       y1="80"
       x1="67.071">
      <stop
         id="stop4227"
         offset="0" />
      <stop
         id="stop4229"
         style="stop-color:#484848"
         offset="1" />
    </linearGradient>
    <linearGradient
       id="linearGradient4239"
       y2="88.011"
       xlink:href="#linearGradient3737"
       gradientUnits="userSpaceOnUse"
       x2="67.071"
       y1="80"
       x1="67.071" />
    <clipPath
       id="clipPath3306">
      <rect
         id="rect3308"
         style="fill:#fff"
         rx="4"
         ry="4"
         height="60"
         width="72"
         y="12"
         x="12" />
    </clipPath>
    <linearGradient
       id="linearGradient3540"
       y2="39.821"
       xlink:href="#linearGradient3220"
       gradientUnits="userSpaceOnUse"
       x2="46.595"
       y1="69.394"
       x1="15.656" />
    <filter
       id="filter3642"
       height="1.3598"
       width="1.2454"
       y="-.17991"
       x="-.12268"
       color-interpolation-filters="sRGB">
      <feGaussianBlur
         id="feGaussianBlur3644"
         stdDeviation="3.178304" />
    </filter>
    <linearGradient
       id="ButtonShadow-0"
       y2="7.0165"
       gradientUnits="userSpaceOnUse"
       x2="45.448"
       gradientTransform="matrix(1.0059 0 0 .99417 100 0)"
       y1="92.54"
       x1="45.448">
      <stop
         id="stop3750-8"
         offset="0" />
      <stop
         id="stop3752-5"
         style="stop-opacity:.58824"
         offset="1" />
    </linearGradient>
    <linearGradient
       id="linearGradient3780"
       y2="90.239"
       xlink:href="#ButtonShadow-0"
       gradientUnits="userSpaceOnUse"
       x2="32.251"
       gradientTransform="matrix(1.0238 0 0 1.0119 -1.1429 -98.071)"
       y1="6.1317"
       x1="32.251" />
    <linearGradient
       id="linearGradient3721"
       y2="90.239"
       xlink:href="#ButtonShadow-0"
       gradientUnits="userSpaceOnUse"
       x2="32.251"
       gradientTransform="translate(0,-97)"
       y1="6.1317"
       x1="32.251" />
    <clipPath
       id="clipPath4114">
      <path
         id="path4116"
         style="fill:#f0f"
         d="m12.094 6c-3.3796 0-6.094 2.7144-6.094 6.094v67.812c0 3.38 2.7144 6.094 6.094 6.094h71.812c3.38 0 6.094-2.714 6.094-6.094v-67.812c0-3.3796-2.714-6.094-6.094-6.094h-71.812zm32.875 18h6.0625c0.8658 0 1.5625 0.6682 1.5625 1.4688v2.8125c1.548 0.374 3.053 0.94 4.406 1.656l2.1875-2c0.62268-0.56608 1.6065-0.5878 2.2188-0.03125l4.3125 3.9062c0.61221 0.55656 0.59137 1.4339-0.03125 2l-2.2188 2.0312c0.78715 1.2304 1.4313 2.5614 1.8438 3.9688h3.0938c0.879-0.001 1.592 0.65 1.592 1.437v5.5c0 0.7871-0.71316 1.4375-1.5938 1.4375h-3.0938c-0.41248 1.4074-1.0566 2.7383-1.8438 3.9688l2.2188 2.0312c0.62268 0.56608 0.64352 1.4434 0.03125 2l-4.3125 3.9062c-0.61222 0.55656-1.5961 0.53484-2.2188-0.03125l-2.1875-2c-1.3534 0.71559-2.8581 1.2813-4.4062 1.6562v2.8125c0 0.8-0.697 1.468-1.563 1.468h-6.0625c-0.86581 0-1.5625-0.6682-1.5625-1.4688v-2.8125c-1.548-0.374-3.053-0.94-4.406-1.656l-2.1875 2c-0.31134 0.28304-0.69084 0.4344-1.0938 0.4375-0.40291 0.0031-0.8189-0.12797-1.125-0.40625l-4.3125-3.9062c-0.61221-0.55656-0.59136-1.4339 0.03125-2l2.2188-2.0312c-0.786-1.23-1.43-2.561-1.842-3.968h-3.0938c-0.881 0-1.594-0.651-1.594-1.438v-5.5c0-0.7871 0.71315-1.4375 1.5938-1.4375h3.0938c0.41249-1.4074 1.0566-2.7383 1.8438-3.9688l-2.22-2.031c-0.62268-0.56608-0.64353-1.4434-0.03125-2l4.3125-3.9062c0.61221-0.55656 1.5961-0.53483 2.2188 0.03125l2.1875 2c1.3534-0.71559 2.8581-1.2813 4.4062-1.6562v-2.8125c0-0.8 0.697-1.468 1.563-1.468zm3.031 13.969c-3.6714 0-6.6562 2.6936-6.6562 6.0312 0 3.3377 2.9848 6.0312 6.6562 6.0312s6.6562-2.6936 6.6562-6.0312c0-3.3377-2.9848-6.0312-6.6562-6.0312z" />
    </clipPath>
    <filter
       id="filter4118"
       height="1.504"
       width="1.4582"
       y="-.252"
       x="-.22909"
       color-interpolation-filters="sRGB">
      <feGaussianBlur
         id="feGaussianBlur4120"
         stdDeviation="4.2000002" />
    </filter>
    <linearGradient
       id="linearGradient3256"
       y2="45.017"
       gradientUnits="userSpaceOnUse"
       x2="20.759"
       gradientTransform="matrix(1.0233 0 0 -.93023 23.442 63.395)"
       y1="1"
       x1="20.759">
      <stop
         id="stop3769"
         style="stop-color:#4d4d4d;stop-opacity:.70732"
         offset="0" />
      <stop
         id="stop3771"
         style="stop-color:#4d4d4d;stop-opacity:.31373"
         offset="1" />
    </linearGradient>
  </defs>
  <metadata
     id="metadata2413">
    <rdf:RDF>
      <cc:Work
         rdf:about="">
        <dc:format>image/svg+xml</dc:format>
        <dc:type
           rdf:resource="http://purl.org/dc/dcmitype/StillImage" />
        <dc:title />
      </cc:Work>
    </rdf:RDF>
  </metadata>
  <g
     id="layer2"
     style="display:none">
    <rect
       id="rect3745"
       style="opacity:.9;filter:url(#filter3174);fill:url(#ButtonShadow)"
       rx="6"
       ry="6"
       height="85"
       width="86"
       y="7"
       x="5" />
  </g>
  <g
     id="layer5">
    <path
       id="path3786"
       d="m12-95.031c-5.5111 0-10.031 4.5202-10.031 10.031v71c0 5.5111 4.5202 10.031 10.031 10.031h72c5.5111 0 10.031-4.5202 10.031-10.031v-71c0-5.5111-4.5202-10.031-10.031-10.031h-72z"
       style="opacity:.08;fill:url(#linearGradient3780)"
       transform="scale(1,-1)" />
    <path
       id="path3778"
       d="m12-94.031c-4.9716 0-9.0312 4.0596-9.0312 9.0312v71c0 4.9716 4.0596 9.0312 9.0312 9.0312h72c4.9716 0 9.0312-4.0596 9.0312-9.0312v-71c0-4.9716-4.0596-9.0312-9.0312-9.0312h-72z"
       style="opacity:.1;fill:url(#linearGradient3780)"
       transform="scale(1,-1)" />
    <path
       id="path3770"
       d="m12-93c-4.4091 0-8 3.5909-8 8v71c0 4.4091 3.5909 8 8 8h72c4.4091 0 8-3.5909 8-8v-71c0-4.4091-3.5909-8-8-8h-72z"
       style="opacity:.2;fill:url(#linearGradient3780)"
       transform="scale(1,-1)" />
    <rect
       id="rect3723"
       style="opacity:.3;fill:url(#linearGradient3780)"
       transform="scale(1,-1)"
       rx="7"
       ry="7"
       height="85"
       width="86"
       y="-92"
       x="5" />
    <rect
       id="rect3716"
       style="opacity:.45;fill:url(#linearGradient3721)"
       transform="scale(1,-1)"
       rx="6"
       ry="6"
       height="84"
       width="84"
       y="-91"
       x="6" />
  </g>
  <g
     id="layer1">
    <path
       id="rect3728"
       style="opacity:.5;fill:url(#linearGradient3188)"
       d="m12 6c-3.324 0-6 2.676-6 6v72c0 0.33472 0.04135 0.6507 0.09375 0.96875 0.0487 0.2956 0.09704 0.59692 0.1875 0.875 0.00988 0.03038 0.020892 0.0636 0.03125 0.09375 0.098865 0.28777 0.23488 0.54745 0.375 0.8125 0.14459 0.27351 0.31562 0.53562 0.5 0.78125 0.18438 0.24564 0.37378 0.47347 0.59375 0.6875 0.43995 0.42806 0.94291 0.81453 1.5 1.0938 0.27854 0.13961 0.57347 0.24695 0.875 0.34375-0.2562-0.10022-0.48671-0.23627-0.71875-0.375-0.00741-0.0044-0.023866 0.0045-0.03125 0-0.031933-0.0193-0.062293-0.04251-0.09375-0.0625-0.1204-0.0767-0.23102-0.16351-0.34375-0.25-0.10617-0.0808-0.21328-0.16111-0.3125-0.25-0.17793-0.16143-0.34746-0.34539-0.5-0.53125-0.10758-0.13026-0.21839-0.26528-0.3125-0.40625-0.025089-0.03838-0.038446-0.08587-0.0625-0.125-0.064763-0.10303-0.13023-0.20452-0.1875-0.3125-0.10101-0.19471-0.20567-0.4157-0.28125-0.625-0.00796-0.02181-0.023589-0.04055-0.03125-0.0625-0.0318-0.092-0.0358-0.187-0.0624-0.281-0.0304-0.107-0.0704-0.203-0.0938-0.313-0.0729-0.341-0.125-0.698-0.125-1.062v-72c0-2.782 2.2182-5 5-5h72c2.7818 0 5 2.2182 5 5v72c0 0.3643-0.05212 0.72099-0.125 1.0625-0.04415 0.20689-0.08838 0.39766-0.15625 0.59375-0.0077 0.02195-0.0233 0.04069-0.03125 0.0625-0.06274 0.17374-0.13838 0.36745-0.21875 0.53125-0.04158 0.0828-0.07904 0.16995-0.125 0.25-0.0546 0.09721-0.12677 0.18835-0.1875 0.28125-0.09411 0.14096-0.20492 0.276-0.3125 0.40625-0.14317 0.17445-0.30314 0.347-0.46875 0.5-0.01117 0.0102-0.01998 0.02115-0.03125 0.03125-0.13839 0.12556-0.28509 0.23444-0.4375 0.34375-0.10257 0.07315-0.20432 0.15336-0.3125 0.21875-0.0074 0.0045-0.02384-0.0044-0.03125 0-0.23204 0.13873-0.46255 0.27478-0.71875 0.375 0.30153-0.0968 0.59646-0.20414 0.875-0.34375 0.55709-0.27922 1.0601-0.66569 1.5-1.0938 0.21997-0.21403 0.40937-0.44186 0.59375-0.6875s0.35541-0.50774 0.5-0.78125c0.14012-0.26505 0.27614-0.52473 0.375-0.8125 0.01041-0.03078 0.02133-0.06274 0.03125-0.09375 0.09046-0.27808 0.1388-0.5794 0.1875-0.875 0.053-0.318 0.094-0.634 0.094-0.969v-72c0-3.324-2.676-6-6-6h-72z" />
    <path
       id="rect3243"
       style="fill:#cacaca"
       d="m90 64.188v19.812c0 3.324-2.676 6-6 6h-72c-3.324 0-6-2.676-6-6v-19.812h84z" />
    <path
       id="path3285"
       style="opacity:.8;fill:url(#linearGradient3287)"
       d="m90.031 64.188v19.812c0 3.324-2.676 6-6 6h-20.031v-25.812h26.031z" />
    <path
       id="path3263"
       style="opacity:.8;fill:url(#linearGradient3279)"
       d="m6 64.188v19.812c0 3.324 2.676 6 6 6h20v-25.812h-26z" />
    <path
       id="path3299"
       style="opacity:.2;fill:url(#linearGradient3460)"
       d="m90 64.188v19.812c0 3.324-2.676 6-6 6h-72c-3.324 0-6-2.676-6-6v-19.812h84z" />
    <g
       id="g3318">
      <path
         id="path3374"
         d="m20.179 85.062a2.0893 2.0982 0 1 1 -4.1786 0 2.0893 2.0982 0 1 1 4.1786 0z"
         style="fill:url(#linearGradient3556)"
         transform="matrix(0 1.6709 1.6638 0 -122.04 53.283)" />
      <path
         id="path3364"
         d="m20.179 85.062a2.0893 2.0982 0 1 1 -4.1786 0 2.0893 2.0982 0 1 1 4.1786 0z"
         style="stroke:#000;stroke-width:.8405;stroke-linecap:square;stroke-opacity:.53182;fill:url(#radialGradient3558)"
         transform="matrix(1.1923 0 0 1.1872 -2.0769 -17.48)" />
    </g>
    <path
       id="path4237"
       d="m57 79.5c-0.81756 0-1.5 0.68244-1.5 1.5v6c0 0.81756 0.68244 1.5 1.5 1.5s1.5-0.68244 1.5-1.5v-6c0-0.81756-0.68244-1.5-1.5-1.5zm4 0c-0.81756 0-1.5 0.68244-1.5 1.5v6c0 0.81756 0.68244 1.5 1.5 1.5s1.5-0.68244 1.5-1.5v-6c0-0.81756-0.68244-1.5-1.5-1.5zm4 0c-0.81756 0-1.5 0.68244-1.5 1.5v6c0 0.81756 0.68244 1.5 1.5 1.5s1.5-0.68244 1.5-1.5v-6c0-0.81756-0.68244-1.5-1.5-1.5zm4 0c-0.81756 0-1.5 0.68244-1.5 1.5v6c0 0.81756 0.68244 1.5 1.5 1.5s1.5-0.68244 1.5-1.5v-6c0-0.81756-0.68244-1.5-1.5-1.5zm4 0c-0.81756 0-1.5 0.68244-1.5 1.5v6c0 0.81756 0.68244 1.5 1.5 1.5s1.5-0.68244 1.5-1.5v-6c0-0.81756-0.68244-1.5-1.5-1.5zm4 0c-0.81756 0-1.5 0.68244-1.5 1.5v6c0 0.81756 0.68244 1.5 1.5 1.5s1.5-0.68244 1.5-1.5v-6c0-0.81756-0.68244-1.5-1.5-1.5zm4 0c-0.81756 0-1.5 0.68244-1.5 1.5v6c0 0.81756 0.68244 1.5 1.5 1.5s1.5-0.68244 1.5-1.5v-6c0-0.81756-0.68244-1.5-1.5-1.5z"
       style="fill:url(#linearGradient4239)"
       transform="matrix(1,0,0,-1,-2,168)" />
    <path
       id="rect4210"
       style="fill:url(#linearGradient4231)"
       d="m55 80c-0.554 0-1 0.446-1 1v6c0 0.554 0.446 1 1 1s1-0.446 1-1v-6c0-0.554-0.446-1-1-1zm4 0c-0.554 0-1 0.446-1 1v6c0 0.554 0.446 1 1 1s1-0.446 1-1v-6c0-0.554-0.446-1-1-1zm4 0c-0.554 0-1 0.446-1 1v6c0 0.554 0.446 1 1 1s1-0.446 1-1v-6c0-0.554-0.446-1-1-1zm4 0c-0.554 0-1 0.446-1 1v6c0 0.554 0.446 1 1 1s1-0.446 1-1v-6c0-0.554-0.446-1-1-1zm4 0c-0.554 0-1 0.446-1 1v6c0 0.554 0.446 1 1 1s1-0.446 1-1v-6c0-0.554-0.446-1-1-1zm4 0c-0.554 0-1 0.446-1 1v6c0 0.554 0.446 1 1 1s1-0.446 1-1v-6c0-0.554-0.446-1-1-1zm4 0c-0.554 0-1 0.446-1 1v6c0 0.554 0.446 1 1 1s1-0.446 1-1v-6c0-0.554-0.446-1-1-1z" />
  </g>
  <g
     id="layer3">
    <rect
       id="rect3171"
       style="fill:url(#linearGradient3179)"
       rx="6"
       ry="6"
       height="72"
       width="84"
       y="6"
       x="6" />
    <path
       id="rect3213"
       style="opacity:.7;fill:url(#linearGradient3551)"
       d="m12 78c-3.324 0-6-2.676-6-6v-60c0-3.324 2.676-6 6-6h72c3.324 0 6 2.676 6 6v60c0 3.324-2.676 6-6 6h-72zm0-2h72c2.7818 0 5-2.1954 5-4.9375v-59.125c0-2.7416-2.218-4.937-5-4.937h-72c-2.7818 0-5 2.1954-5 4.938v59.125c0 2.742 2.2182 4.937 5 4.937z" />
    <rect
       id="rect3398"
       style="opacity:.2;fill:#803300"
       rx="4"
       ry="4"
       height="60"
       width="72"
       y="12"
       x="-88" />
    <path
       id="path3443"
       style="opacity:.1;fill:url(#linearGradient3454)"
       d="m90 72v1c0 3.324-2.676 6-6 6h-72c-3.324 0-6-2.676-6-6v-1c0 2.9849 2.1528 5.4349 5 5.9062 0.327 0.066 0.652 0.094 1 0.094h72c0.1663 0 0.33719-0.01811 0.5-0.03125 0.04161-0.0041 0.08371 0.0051 0.125 0 0.128-0.013 0.25-0.042 0.375-0.063 2.847-0.471 5-2.921 5-5.906z" />
    <rect
       id="rect2399"
       style="opacity:.15;filter:url(#filter3179);fill:#fff"
       transform="matrix(1.0881 0 0 1.1015 -1.1723 -1.4101)"
       rx="9"
       ry="9"
       height="34.821"
       width="54.464"
       y="13.888"
       x="13.306" />
    <rect
       id="rect3492"
       style="opacity:.6;fill:url(#linearGradient3527)"
       rx="4.1111"
       ry="4.2"
       height="63"
       width="74"
       y="11"
       x="11" />
    <rect
       id="rect3519"
       style="fill:url(#linearGradient3547)"
       rx="4"
       ry="4"
       height="60"
       width="72"
       y="12"
       x="12" />
    <path
       id="rect3490"
       style="opacity:.5;fill:url(#linearGradient3517)"
       d="m16 12c-2.216 0-4 1.784-4 4v52c0 2.216 1.784 4 4 4h64c2.216 0 4-1.784 4-4v-52c0-2.216-1.784-4-4-4h-64zm0 0.125h64c1.64 0 2.9375 1.2975 2.9375 2.9375v52c0 1.64-1.298 2.938-2.938 2.938h-64c-1.64 0-2.9375-1.2975-2.9375-2.9375v-52c0-1.64 1.2975-2.9375 2.9375-2.9375z" />
    <path
       id="path3295"
       d="m64.467 70.746c-31.605-1.483-35.941-11.416-14.842-33.81-23.873 7.552-35.167 18.171-43.557 25.412-8.9114 7.758-0.5293 17.769 9.273 16.938 10.159-0.007 41.021-1.879 49.126-8.54z"
       style="opacity:.4;filter:url(#filter3642);fill:url(#linearGradient3540);fill-rule:evenodd"
       transform="matrix(1.1166 0 0 1.1166 -.26673 -9.2473)"
       clip-path="url(#clipPath3306)" />
  </g>
  <g
     id="layer4">
    <path
       id="path4067"
       d="m44.962 64c-0.86581 0-1.5669-0.65294-1.5669-1.4535v-2.8198c-1.5481-0.37498-3.0274-0.94138-4.3808-1.657l-2.2064 2.0058c-0.31134 0.28304-0.68429 0.43294-1.0872 0.43605-0.40291 0.0031-0.81308-0.1287-1.1192-0.40698l-4.317-3.924c-0.61221-0.55656-0.5907-1.4397 0.03191-2.0058l2.2064-2.0058c-0.78715-1.2304-1.4102-2.5752-1.8227-3.9826h-3.1017c-0.8806 0-1.5988-0.63732-1.5988-1.4244v-5.5233c0-0.7871 0.71823-1.4244 1.5988-1.4244h3.1017c0.41249-1.4074 1.0355-2.7522 1.8227-3.9826l-2.2064-2.0058c-0.62268-0.56608-0.64419-1.4493-0.03191-2.0058l4.3169-3.9244c0.61221-0.55656 1.5837-0.537 2.2064 0.02908l2.2064 2.0058c1.3534-0.71559 2.8327-1.282 4.3808-1.657v-2.8198c0-0.8 0.701-1.453 1.567-1.453h6.0756c0.8658 0 1.5669 0.65294 1.5669 1.4535v2.8198c1.5481 0.37498 3.0274 0.94138 4.3808 1.657l2.2064-2.0058c0.62268-0.56608 1.5942-0.58563 2.2064-0.02908l4.3168 3.9244c0.61221 0.55656 0.5907 1.4397-0.03192 2.0058l-2.2064 2.0058c0.78715 1.2304 1.4102 2.5752 1.8227 3.9826h3.1017c0.8806 0 1.5988 0.63732 1.5988 1.4244v5.5233c0 0.7871-0.71824 1.4244-1.5988 1.4244h-3.1017c-0.41248 1.4074-1.0355 2.7522-1.8227 3.9826l2.2064 2.0058c0.62268 0.56608 0.6442 1.4493 0.03192 2.0058l-4.3168 3.9244c-0.61222 0.55656-1.5837 0.53701-2.2064-0.02908l-2.2064-2.0058c-1.3534 0.71559-2.8327 1.282-4.3808 1.657v2.8198c0 0.80055-0.70105 1.4535-1.5669 1.4535h-6.0756zm3.0378-13.953c3.6714 0 6.6511-2.7088 6.6511-6.0465s-2.9797-6.0465-6.6511-6.0465-6.6511 2.7088-6.6511 6.0465 2.9797 6.0465 6.6511 6.0465z"
       style="filter:url(#filter4118);display:block;fill:#fff"
       transform="translate(0,-2)"
       clip-path="url(#clipPath4114)" />
    <path
       id="rect3267"
       style="display:block;fill:url(#linearGradient3256)"
       d="m44.962 62c-0.86581 0-1.5669-0.65294-1.5669-1.4535v-2.8198c-1.5481-0.37498-3.0274-0.94138-4.3808-1.657l-2.2064 2.0058c-0.31134 0.28304-0.68429 0.43294-1.0872 0.43605-0.40291 0.0031-0.81308-0.1287-1.1192-0.40698l-4.317-3.924c-0.61221-0.55656-0.5907-1.4397 0.03191-2.0058l2.2064-2.0058c-0.78715-1.2304-1.4102-2.5752-1.8227-3.9826h-3.1017c-0.8806 0-1.5988-0.63732-1.5988-1.4244v-5.5233c0-0.7871 0.71823-1.4244 1.5988-1.4244h3.1017c0.41249-1.4074 1.0355-2.7522 1.8227-3.9826l-2.2064-2.0058c-0.62268-0.56608-0.64419-1.4493-0.03191-2.0058l4.3169-3.9244c0.61221-0.55656 1.5837-0.537 2.2064 0.02908l2.2064 2.0058c1.3534-0.71559 2.8327-1.282 4.3808-1.657v-2.8198c0-0.8 0.701-1.453 1.567-1.453h6.0756c0.8658 0 1.5669 0.65294 1.5669 1.4535v2.8198c1.5481 0.37498 3.0274 0.94138 4.3808 1.657l2.2064-2.0058c0.62268-0.56608 1.5942-0.58563 2.2064-0.02908l4.3168 3.9244c0.61221 0.55656 0.5907 1.4397-0.03192 2.0058l-2.2064 2.0058c0.78715 1.2304 1.4102 2.5752 1.8227 3.9826h3.1017c0.8806 0 1.5988 0.63732 1.5988 1.4244v5.5233c0 0.7871-0.71824 1.4244-1.5988 1.4244h-3.1017c-0.41248 1.4074-1.0355 2.7522-1.8227 3.9826l2.2064 2.0058c0.62268 0.56608 0.6442 1.4493 0.03192 2.0058l-4.3168 3.9244c-0.61222 0.55656-1.5837 0.53701-2.2064-0.02908l-2.2064-2.0058c-1.3534 0.71559-2.8327 1.282-4.3808 1.657v2.8198c0 0.80055-0.70105 1.4535-1.5669 1.4535h-6.0756zm3.0378-13.953c3.6714 0 6.6511-2.7088 6.6511-6.0465s-2.9797-6.0465-6.6511-6.0465-6.6511 2.7088-6.6511 6.0465 2.9797 6.0465 6.6511 6.0465z" />
    <path
       id="path4044"
       style="opacity:.4;display:block"
       d="m44.969 22c-0.86581 0-1.5625 0.6682-1.5625 1.4688v1c0-0.801 0.697-1.469 1.563-1.469h6.0625c0.8658 0 1.5625 0.6682 1.5625 1.4688v-1c0-0.801-0.697-1.469-1.563-1.469h-6.0625zm-9.5625 3.5c-0.29329 0.04824-0.58292 0.19754-0.8125 0.40625l-4.3125 3.9062c-0.43929 0.39931-0.54491 0.97092-0.34375 1.4688 0.07436-0.16991 0.19068-0.32961 0.34375-0.46875l4.3125-3.9062c0.61221-0.55656 1.5961-0.53483 2.2188 0.03125l2.1875 2c1.3534-0.71559 2.8581-1.2813 4.4062-1.6562v-1c-1.548 0.375-3.053 0.941-4.406 1.657l-2.1875-2c-0.389-0.354-0.917-0.518-1.406-0.438zm24.906 0c-0.39724 0.0061-0.81366 0.15446-1.125 0.4375l-2.1875 2c-1.3534-0.71559-2.8581-1.2813-4.4062-1.6562v1c1.548 0.374 3.053 0.94 4.406 1.656l2.1875-2c0.62268-0.56608 1.6065-0.5878 2.2188-0.03125l4.3125 3.9062c0.15305 0.13914 0.2694 0.29884 0.34375 0.46875 0.20114-0.49783 0.09549-1.0694-0.34375-1.4688l-4.3125-3.9062c-0.308-0.279-0.698-0.413-1.096-0.407zm-28.156 9c-0.60307 1.0492-1.1275 2.1483-1.4688 3.3125h-3.0938c-0.88 0-1.593 0.651-1.593 1.438v1c0-0.7871 0.71315-1.4375 1.5938-1.4375h3.0938c0.41249-1.4074 1.0566-2.7383 1.8438-3.9688l-0.376-0.343zm31.688 0-0.375 0.34375c0.78715 1.2304 1.4313 2.5614 1.8438 3.9688h3.0938c0.88-0.001 1.593 0.65 1.593 1.437v-1c0-0.7871-0.71316-1.4375-1.5938-1.4375h-3.0938c-0.341-1.164-0.865-2.263-1.468-3.312zm-22.469 8.125c-0.0083 0.12349-0.03125 0.24963-0.03125 0.375 0 3.3377 2.9848 6.0312 6.6562 6.0312s6.6562-2.6936 6.6562-6.0312c0-0.12537-0.02296-0.25151-0.03125-0.375-0.34081 3.0478-3.183 5.4062-6.625 5.4062s-6.2842-2.3585-6.625-5.4062zm-9.219 7.875-1.844 1.688c-0.46696 0.42456-0.59804 1.0215-0.375 1.5312 0.07921-0.19604 0.19909-0.37131 0.375-0.53125l2.2188-2.0312c-0.136-0.213-0.249-0.438-0.375-0.657zm31.688 0c-0.12598 0.21917-0.23899 0.44364-0.375 0.65625l2.2188 2.0312c0.17593 0.15994 0.29578 0.33521 0.375 0.53125 0.22306-0.50973 0.09201-1.1067-0.375-1.5312l-1.844-1.687z" />
  </g>
</svg>
