<?xml version="1.0" encoding="UTF-8" standalone="no"?>
<!-- Created with Inkscape (http://www.inkscape.org/) -->

<svg
   xmlns:dc="http://purl.org/dc/elements/1.1/"
   xmlns:cc="http://creativecommons.org/ns#"
   xmlns:rdf="http://www.w3.org/1999/02/22-rdf-syntax-ns#"
   xmlns:svg="http://www.w3.org/2000/svg"
   xmlns="http://www.w3.org/2000/svg"
   xmlns:xlink="http://www.w3.org/1999/xlink"
   xmlns:sodipodi="http://sodipodi.sourceforge.net/DTD/sodipodi-0.dtd"
   xmlns:inkscape="http://www.inkscape.org/namespaces/inkscape"
   id="svg2408"
   height="96"
   width="96"
   version="1.0"
   inkscape:version="0.48.5 r10040"
   sodipodi:docname="gnome-dev-harddisk-1394.svg">
  <sodipodi:namedview
     pagecolor="#ffffff"
     bordercolor="#666666"
     borderopacity="1"
     objecttolerance="10"
     gridtolerance="10"
     guidetolerance="10"
     inkscape:pageopacity="0"
     inkscape:pageshadow="2"
     inkscape:window-width="640"
     inkscape:window-height="480"
     id="namedview2120" />
  <defs
     id="defs2410">
    <linearGradient
       id="linearGradient3421"
       y2="66"
       gradientUnits="userSpaceOnUse"
       x2="16.92"
       gradientTransform="matrix(0 .70588 -.8125 0 101.62 4)"
       y1="66"
       x1="85">
      <stop
         id="stop3769"
         style="stop-color:#4d4d4d;stop-opacity:.70732"
         offset="0" />
      <stop
         id="stop3771"
         style="stop-color:#4d4d4d;stop-opacity:.25203"
         offset="1" />
    </linearGradient>
    <linearGradient
       id="linearGradient3448">
      <stop
         id="stop3450"
         offset="0" />
      <stop
         id="stop3452"
         style="stop-opacity:0"
         offset="1" />
    </linearGradient>
    <linearGradient
       id="linearGradient3220">
      <stop
         id="stop3222"
         style="stop-color:#fff"
         offset="0" />
      <stop
         id="stop3224"
         style="stop-color:#bfbfbf;stop-opacity:0"
         offset="1" />
    </linearGradient>
    <linearGradient
       id="ButtonShadow"
       y2="7.0165"
       gradientUnits="userSpaceOnUse"
       x2="45.448"
       gradientTransform="scale(1.0059 .99417)"
       y1="92.54"
       x1="45.448">
      <stop
         id="stop3750"
         offset="0" />
      <stop
         id="stop3752"
         style="stop-opacity:.58824"
         offset="1" />
    </linearGradient>
    <filter
       id="filter3174"
       color-interpolation-filters="sRGB">
      <feGaussianBlur
         id="feGaussianBlur3176"
         stdDeviation="1.71" />
    </filter>
    <linearGradient
       id="linearGradient3188"
       y2="63.893"
       gradientUnits="userSpaceOnUse"
       x2="36.357"
       y1="6"
       x1="36.357">
      <stop
         id="stop3739"
         style="stop-color:#fff"
         offset="0" />
      <stop
         id="stop3741"
         style="stop-color:#fff;stop-opacity:0"
         offset="1" />
    </linearGradient>
    <linearGradient
       id="linearGradient3179"
       y2="78"
       gradientUnits="userSpaceOnUse"
       x2="46"
       y1="6"
       x1="46">
      <stop
         id="stop4329"
         style="stop-color:#f0f0f0"
         offset="0" />
      <stop
         id="stop4331"
         style="stop-color:#b4b4b4"
         offset="1" />
    </linearGradient>
    <linearGradient
       id="linearGradient3279"
       y2="77.094"
       gradientUnits="userSpaceOnUse"
       x2="32"
       y1="77.094"
       x1="6">
      <stop
         id="stop3324"
         style="stop-color:#7a7a7a"
         offset="0" />
      <stop
         id="stop3326"
         style="stop-color:#f9f9f9"
         offset=".2032" />
      <stop
         id="stop3328"
         style="stop-color:#c9c9c9"
         offset=".42969" />
      <stop
         id="stop3330"
         style="stop-color:#dedede;stop-opacity:0"
         offset="1" />
    </linearGradient>
    <linearGradient
       id="linearGradient3287"
       y2="77.094"
       gradientUnits="userSpaceOnUse"
       x2="32.031"
       gradientTransform="matrix(-1 0 0 1 96.031 0)"
       y1="77.094"
       x1="6">
      <stop
         id="stop3275"
         style="stop-color:#7a7a7a"
         offset="0" />
      <stop
         id="stop3281"
         style="stop-color:#f9f9f9"
         offset=".14636" />
      <stop
         id="stop3283"
         style="stop-color:#c9c9c9"
         offset=".37254" />
      <stop
         id="stop3277"
         style="stop-color:#dedede;stop-opacity:0"
         offset="1" />
    </linearGradient>
    <linearGradient
       id="linearGradient3454"
       y2="75.5"
       xlink:href="#linearGradient3448"
       gradientUnits="userSpaceOnUse"
       x2="45.219"
       gradientTransform="matrix(-1,0,0,1,96,-2)"
       y1="75.5"
       x1="6" />
    <linearGradient
       id="linearGradient3460"
       y2="90"
       xlink:href="#linearGradient3448"
       gradientUnits="userSpaceOnUse"
       x2="48"
       y1="77.094"
       x1="48" />
    <linearGradient
       id="linearGradient3551"
       y2="68.517"
       xlink:href="#linearGradient3220"
       gradientUnits="userSpaceOnUse"
       x2="109.19"
       gradientTransform="matrix(1,0,0,-1,0,84)"
       y1="8.0469"
       x1="18.743" />
    <linearGradient
       id="linearGradient3781"
       y2="39.821"
       xlink:href="#linearGradient3220"
       gradientUnits="userSpaceOnUse"
       x2="46.595"
       gradientTransform="matrix(1.1166 0 0 1.1166 .80470 -5.6759)"
       y1="69.394"
       x1="15.656" />
    <clipPath
       id="clipPath3785">
      <rect
         id="rect3787"
         style="fill:#fff"
         rx="6"
         ry="6"
         height="72"
         width="84"
         y="6"
         x="6" />
    </clipPath>
    <filter
       id="filter3829"
       height="1.3598"
       width="1.2454"
       y="-.17991"
       x="-.12268"
       color-interpolation-filters="sRGB">
      <feGaussianBlur
         id="feGaussianBlur3831"
         stdDeviation="3.5487715" />
    </filter>
    <radialGradient
       id="radialGradient4138"
       gradientUnits="userSpaceOnUse"
       cy="84"
       cx="48"
       gradientTransform="matrix(1.0667 0 0 .066667 -3.2 77.4)"
       r="30">
      <stop
         id="stop3315"
         style="stop-color:#4dbeff"
         offset="0" />
      <stop
         id="stop4186"
         style="stop-color:#1379ff;stop-opacity:.65041"
         offset=".67213" />
      <stop
         id="stop3317"
         style="stop-color:#06f;stop-opacity:0"
         offset="1" />
    </radialGradient>
    <filter
       id="filter4180"
       height="3.8298"
       width="1.2289"
       y="-1.4149"
       x="-.11445"
       color-interpolation-filters="sRGB">
      <feGaussianBlur
         id="feGaussianBlur4182"
         stdDeviation="3.5372897" />
    </filter>
    <linearGradient
       id="linearGradient4196"
       y2="82.003"
       xlink:href="#linearGradient3448"
       gradientUnits="userSpaceOnUse"
       x2="43.054"
       y1="80.143"
       x1="43.054" />
    <clipPath
       id="clipPath3532">
      <path
         id="path3534"
         style="fill:#fff"
         d="m12-14c-3.324 0-6 2.676-6 6v58c0 3.324 2.676 6 6 6h72c3.324 0 6-2.676 6-6v-58c0-3.324-2.676-6-6-6h-72zm53.281 10 8.719 7.5625-10.938 9.3435-8.718-7.4685 10.937-9.4375zm-33.312 0.375 3.3438 2.8125-10 8.6562l-3.313-2.8749 9.969-8.5938zm6.656 5.6875 3.313 2.8437-9.969 8.5938-3.313-2.844 9.969-8.5935zm9.2188 7.3125c5.9007-0.000001 10.688 4.1339 10.688 9.2188-0.000002 5.0849-4.7861 9.1875-10.688 9.1875-5.9014-0.00059-10.688-4.1032-10.688-9.1875s4.7861-9.2188 10.688-9.2188zm0 4.0625c-3.3048-0.000002-6 2.3099-6 5.1562-0.000684 2.8481 2.6952 5.1562 6 5.1562 3.3062-0.000001 5.9688-2.3081 5.9688-5.1562-0.000002-2.8464-2.6626-5.1562-5.9688-5.1562zm-7.0625 18.406h14.125v4.0625h-14.125v-4.0625zm0 8.0938h14.125v4.0625h-14.125v-4.0625z" />
    </clipPath>
    <filter
       id="filter3548"
       height="1.2496"
       width="1.2311"
       y="-.1248"
       x="-.11556"
       color-interpolation-filters="sRGB">
      <feGaussianBlur
         id="feGaussianBlur3550"
         stdDeviation="2.6" />
    </filter>
    <linearGradient
       id="ButtonShadow-0"
       y2="7.0165"
       gradientUnits="userSpaceOnUse"
       x2="45.448"
       gradientTransform="matrix(1.0059 0 0 .99417 100 0)"
       y1="92.54"
       x1="45.448">
      <stop
         id="stop3750-8"
         offset="0" />
      <stop
         id="stop3752-5"
         style="stop-opacity:.58824"
         offset="1" />
    </linearGradient>
    <linearGradient
       id="linearGradient3780"
       y2="90.239"
       xlink:href="#ButtonShadow-0"
       gradientUnits="userSpaceOnUse"
       x2="32.251"
       gradientTransform="matrix(1.0238 0 0 1.0119 -1.1429 -98.071)"
       y1="6.1317"
       x1="32.251" />
    <linearGradient
       id="linearGradient3721"
       y2="90.239"
       xlink:href="#ButtonShadow-0"
       gradientUnits="userSpaceOnUse"
       x2="32.251"
       gradientTransform="translate(0,-97)"
       y1="6.1317"
       x1="32.251" />
  </defs>
  <metadata
     id="metadata2413">
    <rdf:RDF>
      <cc:Work
         rdf:about="">
        <dc:format>image/svg+xml</dc:format>
        <dc:type
           rdf:resource="http://purl.org/dc/dcmitype/StillImage" />
      </cc:Work>
    </rdf:RDF>
  </metadata>
  <g
     id="layer2"
     style="display:none">
    <rect
       id="rect3745"
       style="opacity:.9;filter:url(#filter3174);fill:url(#ButtonShadow)"
       rx="6"
       ry="6"
       height="85"
       width="86"
       y="7"
       x="5" />
  </g>
  <g
     id="layer8">
    <path
       id="path3786"
       d="m12-95.031c-5.5111 0-10.031 4.5202-10.031 10.031v71c0 5.5111 4.5202 10.031 10.031 10.031h72c5.5111 0 10.031-4.5202 10.031-10.031v-71c0-5.5111-4.5202-10.031-10.031-10.031h-72z"
       style="opacity:.08;fill:url(#linearGradient3780)"
       transform="scale(1,-1)" />
    <path
       id="path3778"
       d="m12-94.031c-4.9716 0-9.0312 4.0596-9.0312 9.0312v71c0 4.9716 4.0596 9.0312 9.0312 9.0312h72c4.9716 0 9.0312-4.0596 9.0312-9.0312v-71c0-4.9716-4.0596-9.0312-9.0312-9.0312h-72z"
       style="opacity:.1;fill:url(#linearGradient3780)"
       transform="scale(1,-1)" />
    <path
       id="path3770"
       d="m12-93c-4.4091 0-8 3.5909-8 8v71c0 4.4091 3.5909 8 8 8h72c4.4091 0 8-3.5909 8-8v-71c0-4.4091-3.5909-8-8-8h-72z"
       style="opacity:.2;fill:url(#linearGradient3780)"
       transform="scale(1,-1)" />
    <rect
       id="rect3723"
       style="opacity:.3;fill:url(#linearGradient3780)"
       transform="scale(1,-1)"
       rx="7"
       ry="7"
       height="85"
       width="86"
       y="-92"
       x="5" />
    <rect
       id="rect3716"
       style="opacity:.45;fill:url(#linearGradient3721)"
       transform="scale(1,-1)"
       rx="6"
       ry="6"
       height="84"
       width="84"
       y="-91"
       x="6" />
  </g>
  <g
     id="layer1">
    <path
       id="rect3728"
       style="opacity:.5;fill:url(#linearGradient3188)"
       d="m12 6c-3.324 0-6 2.676-6 6v72c0 0.33472 0.04135 0.6507 0.09375 0.96875 0.0487 0.2956 0.09704 0.59692 0.1875 0.875 0.00988 0.03038 0.020892 0.0636 0.03125 0.09375 0.098865 0.28777 0.23488 0.54745 0.375 0.8125 0.14459 0.27351 0.31562 0.53562 0.5 0.78125 0.18438 0.24564 0.37378 0.47347 0.59375 0.6875 0.43995 0.42806 0.94291 0.81453 1.5 1.0938 0.27854 0.13961 0.57347 0.24695 0.875 0.34375-0.2562-0.10022-0.48671-0.23627-0.71875-0.375-0.00741-0.0044-0.023866 0.0045-0.03125 0-0.031933-0.0193-0.062293-0.04251-0.09375-0.0625-0.1204-0.0767-0.23102-0.16351-0.34375-0.25-0.10617-0.0808-0.21328-0.16111-0.3125-0.25-0.17793-0.16143-0.34746-0.34539-0.5-0.53125-0.10758-0.13026-0.21839-0.26528-0.3125-0.40625-0.025089-0.03838-0.038446-0.08587-0.0625-0.125-0.064763-0.10303-0.13023-0.20452-0.1875-0.3125-0.10101-0.19471-0.20567-0.4157-0.28125-0.625-0.00796-0.02181-0.023589-0.04055-0.03125-0.0625-0.0318-0.092-0.0358-0.187-0.0624-0.281-0.0304-0.107-0.0704-0.203-0.0938-0.313-0.0729-0.341-0.125-0.698-0.125-1.062v-72c0-2.782 2.2182-5 5-5h72c2.7818 0 5 2.2182 5 5v72c0 0.3643-0.05212 0.72099-0.125 1.0625-0.04415 0.20689-0.08838 0.39766-0.15625 0.59375-0.0077 0.02195-0.0233 0.04069-0.03125 0.0625-0.06274 0.17374-0.13838 0.36745-0.21875 0.53125-0.04158 0.0828-0.07904 0.16995-0.125 0.25-0.0546 0.09721-0.12677 0.18835-0.1875 0.28125-0.09411 0.14096-0.20492 0.276-0.3125 0.40625-0.14317 0.17445-0.30314 0.347-0.46875 0.5-0.01117 0.0102-0.01998 0.02115-0.03125 0.03125-0.13839 0.12556-0.28509 0.23444-0.4375 0.34375-0.10257 0.07315-0.20432 0.15336-0.3125 0.21875-0.0074 0.0045-0.02384-0.0044-0.03125 0-0.23204 0.13873-0.46255 0.27478-0.71875 0.375 0.30153-0.0968 0.59646-0.20414 0.875-0.34375 0.55709-0.27922 1.0601-0.66569 1.5-1.0938 0.21997-0.21403 0.40937-0.44186 0.59375-0.6875s0.35541-0.50774 0.5-0.78125c0.14012-0.26505 0.27614-0.52473 0.375-0.8125 0.01041-0.03078 0.02133-0.06274 0.03125-0.09375 0.09046-0.27808 0.1388-0.5794 0.1875-0.875 0.053-0.318 0.094-0.634 0.094-0.969v-72c0-3.324-2.676-6-6-6h-72z" />
    <path
       id="rect3243"
       style="fill:#cacaca"
       d="m90 64.188v19.812c0 3.324-2.676 6-6 6h-72c-3.324 0-6-2.676-6-6v-19.812h84z" />
    <path
       id="path3309"
       style="fill:#999"
       d="m6 73v1c0 3.324 2.676 6 6 6h72c3.324 0 6-2.676 6-6v-1c0 3.324-2.676 6-6 6h-72c-3.324 0-6-2.676-6-6z" />
    <path
       id="path3285"
       style="opacity:.8;fill:url(#linearGradient3287)"
       d="m90.031 64.188v19.812c0 3.324-2.676 6-6 6h-20.031v-25.812h26.031z" />
    <path
       id="path3263"
       style="opacity:.8;fill:url(#linearGradient3279)"
       d="m6 64.188v19.812c0 3.324 2.676 6 6 6h20v-25.812h-26z" />
    <path
       id="path3299"
       style="opacity:.2;fill:url(#linearGradient3460)"
       d="m90 64.188v19.812c0 3.324-2.676 6-6 6h-72c-3.324 0-6-2.676-6-6v-19.812h84z" />
    <path
       id="path3298"
       style="fill:#252525"
       d="m6 74v6c0 3.324 2.676 6 6 6h72c3.324 0 6-2.676 6-6v-6c0 3.324-2.676 6-6 6h-72c-3.324 0-6-2.676-6-6z" />
    <path
       id="path3304"
       style="fill:#ececec"
       d="m6 80v1c0 3.324 2.676 6 6 6h72c3.324 0 6-2.676 6-6v-1c0 3.324-2.676 6-6 6h-72c-3.324 0-6-2.676-6-6z" />
    <path
       id="path4132"
       style="fill:url(#linearGradient4196)"
       d="m6 74v2c0 3.324 2.676 6 6 6h72c3.324 0 6-2.676 6-6v-2c0 3.324-2.676 6-6 6h-72c-3.324 0-6-2.676-6-6z" />
  </g>
  <g
     id="layer3">
    <rect
       id="rect3171"
       style="fill:url(#linearGradient3179)"
       rx="6"
       ry="6"
       height="70"
       width="84"
       y="6"
       x="6" />
    <path
       id="rect3213"
       style="opacity:.7;fill:url(#linearGradient3551)"
       d="m12 76c-3.324 0-6-2.676-6-6v-58c0-3.324 2.676-6 6-6h72c3.324 0 6 2.676 6 6v58c0 3.324-2.676 6-6 6h-72zm0-2h72c2.7818 0 5-2.1954 5-4.9375v-57.125c0-2.7416-2.218-4.937-5-4.937h-72c-2.7818 0-5 2.1954-5 4.938v57.125c0 2.742 2.2182 4.937 5 4.937z" />
    <path
       id="path3443"
       style="opacity:.1;fill:url(#linearGradient3454)"
       d="m90 70v1c0 3.324-2.676 6-6 6h-72c-3.324 0-6-2.676-6-6v-1c0 2.9849 2.1528 5.4349 5 5.9062 0.327 0.066 0.652 0.094 1 0.094h72c0.1663 0 0.33719-0.01811 0.5-0.03125 0.04161-0.0041 0.08371 0.0051 0.125 0 0.12787-0.01291 0.24967-0.04175 0.375-0.0625 2.847-0.471 5-2.921 5-5.906z" />
    <path
       id="path3295"
       d="m72.786 73.317c-35.288-1.657-40.13-12.747-16.572-37.751-26.655 8.432-39.266 20.289-48.634 28.373-9.9501 8.663-0.591 19.841 10.354 18.913 11.343-0.0075 45.802-2.0979 54.851-9.5351z"
       style="opacity:.3;filter:url(#filter3829);fill:url(#linearGradient3781);fill-rule:evenodd"
       transform="translate(0,-2)"
       clip-path="url(#clipPath3785)" />
  </g>
  <g
     id="layer5">
    <rect
       id="rect3323"
       style="opacity:.6;filter:url(#filter4180);fill:#06f"
       rx="6.7435"
       ry="6"
       height="6"
       width="74.179"
       y="80"
       x="10.911" />
    <rect
       id="rect3311"
       style="fill:url(#radialGradient4138)"
       rx="5.8182"
       ry="4"
       height="4"
       width="64"
       y="81"
       x="16" />
  </g>
  <g
     id="layer4">
    <path
       id="path2582"
       style="fill:url(#linearGradient3421)"
       d="m37.156 38.587c0-5.0843 4.7842-9.2072 10.686-9.2072 5.9007 0 10.685 4.1223 10.685 9.2072s-4.7836 9.209-10.685 9.209c-5.9014-0.000589-10.686-4.1247-10.686-9.209m10.686 5.1569c3.3062 0 5.9822-2.3087 5.9822-5.1569 0-2.8464-2.676-5.1575-5.9822-5.1575-3.3048 0-5.9829 2.3111-5.9829 5.1575-0.000685 2.8481 2.6781 5.1569 5.9829 5.1569zm-7.0541 8.1024h14.103v4.0497h-14.103v-4.0497zm0 8.1h14.103v4.0533h-14.103v-4.0533zm-12.14-29.302 3.3253 2.8676 9.9747-8.5952-3.3247-2.867-9.9753 8.5946m-6.648-5.682 3.323 2.867 9.976-8.644-3.326-2.818-9.973 8.595m43.29-8.963-10.952 9.436 8.71 7.458 10.952-9.342-8.71-7.552" />
    <path
       id="path3512"
       style="opacity:.4"
       d="m65.281 16-10.938 9.4375 0.59375 0.5l10.344-8.938 8.125 7.062 0.594-0.5-8.719-7.562zm-33.312 0.375-9.969 8.594l0.5625 0.5 9.4062-8.0938 2.75 2.3125 0.59375-0.5-3.3438-2.8125zm6.6562 5.6875-9.9688 8.5938 0.59375 0.5 9.375-8.0938 2.7188 2.3438 0.59375-0.5-3.3125-2.8438zm9.2188 7.3125c-5.9014 0-10.688 4.1345-10.688 9.2188 0 0.16943 0.02076 0.33282 0.03125 0.5 0.3043-4.8495 4.9515-8.7188 10.656-8.7188 5.7041-0.000001 10.352 3.8687 10.656 8.7188 0.01049-0.1672 0.03125-0.33055 0.03125-0.5 0-5.0849-4.7868-9.2188-10.688-9.2188zm-5.9688 9.75c-0.01596 0.15348-0.03125 0.31171-0.03125 0.46875-0.000684 2.8481 2.6952 5.1562 6 5.1562 3.3062-0.000001 5.9688-2.3081 5.9688-5.1562 0-0.15704-0.0153-0.31527-0.03125-0.46875-0.3061 2.6004-2.838 4.625-5.9375 4.625-3.0982 0-5.6629-2.0246-5.9688-4.625zm-1.0938 12.719v1h14.125v-1h-14.125zm0 8.0938v1h14.125v-1h-14.125z" />
    <path
       id="path3521"
       d="m37.156 18.587c0-5.0843 4.7842-9.2072 10.686-9.2072 5.9007 0 10.685 4.1223 10.685 9.2072s-4.7836 9.209-10.685 9.209c-5.9014-0.000589-10.686-4.1247-10.686-9.209m10.686 5.1569c3.3062 0 5.9822-2.3087 5.9822-5.1569 0-2.8464-2.676-5.1575-5.9822-5.1575-3.3048 0-5.9829 2.3111-5.9829 5.1575-0.000685 2.8481 2.6781 5.1569 5.9829 5.1569zm-7.0541 8.1024h14.103v4.0497h-14.103v-4.0497zm0 8.1h14.103v4.0533h-14.103v-4.0533zm-12.14-29.302 3.3253 2.8676 9.9747-8.5952-3.3247-2.867-9.9753 8.5946m-6.648-5.6811 3.323 2.867 9.976-8.6436-3.326-2.8186-9.973 8.5952m43.29-8.9629-10.952 9.4362 8.71 7.4578 10.952-9.3416-8.71-7.5524"
       style="opacity:.8;filter:url(#filter3548);stroke:#fff;stroke-width:2;fill:none"
       transform="translate(0,20)"
       clip-path="url(#clipPath3532)" />
  </g>
</svg>
