<?xml version="1.0" encoding="UTF-8" standalone="no"?>
<!-- Created with Inkscape (http://www.inkscape.org/) -->

<svg
   xmlns:dc="http://purl.org/dc/elements/1.1/"
   xmlns:cc="http://creativecommons.org/ns#"
   xmlns:rdf="http://www.w3.org/1999/02/22-rdf-syntax-ns#"
   xmlns:svg="http://www.w3.org/2000/svg"
   xmlns="http://www.w3.org/2000/svg"
   xmlns:xlink="http://www.w3.org/1999/xlink"
   xmlns:sodipodi="http://sodipodi.sourceforge.net/DTD/sodipodi-0.dtd"
   xmlns:inkscape="http://www.inkscape.org/namespaces/inkscape"
   id="svg11037"
   height="96"
   width="96"
   version="1.1"
   inkscape:version="0.48.5 r10040"
   sodipodi:docname="system-floppy.svg">
  <sodipodi:namedview
     pagecolor="#ffffff"
     bordercolor="#666666"
     borderopacity="1"
     objecttolerance="10"
     gridtolerance="10"
     guidetolerance="10"
     inkscape:pageopacity="0"
     inkscape:pageshadow="2"
     inkscape:window-width="640"
     inkscape:window-height="480"
     id="namedview4281" />
  <defs
     id="defs11039">
    <clipPath
       id="clipPath3009"
       clipPathUnits="userSpaceOnUse">
      <path
         id="path3011"
         style="opacity:.15;fill:#fff"
         d="m-2 956.36h-96v33.562l96 25.687v-59.25z" />
    </clipPath>
    <linearGradient
       id="linearGradient3617"
       y2="5.9877"
       gradientUnits="userSpaceOnUse"
       x2="48"
       y1="90"
       x1="48">
      <stop
         id="stop3702"
         style="stop-color:#1e1e1e"
         offset="0" />
      <stop
         id="stop3704"
         style="stop-color:#434343"
         offset="1" />
    </linearGradient>
    <linearGradient
       id="linearGradient3688"
       y2="88"
       gradientUnits="userSpaceOnUse"
       x2="48"
       gradientTransform="matrix(.93601 0 0 .95793 3.1799 3.7865)"
       y1="40"
       x1="48">
      <stop
         id="stop3684"
         style="stop-color:#fff"
         offset="0" />
      <stop
         id="stop3686"
         style="stop-color:#ddd"
         offset="1" />
    </linearGradient>
    <linearGradient
       id="linearGradient3710"
       y2="84"
       gradientUnits="userSpaceOnUse"
       x2="48"
       gradientTransform="matrix(1 0 0 .66667 0 30)"
       y1="90"
       x1="48">
      <stop
         id="stop3706"
         style="stop-color:#f30"
         offset="0" />
      <stop
         id="stop3708"
         style="stop-color:#ff481a"
         offset="1" />
    </linearGradient>
    <radialGradient
       id="radialGradient3619"
       xlink:href="#linearGradient3737"
       gradientUnits="userSpaceOnUse"
       cy="90.172"
       cx="48"
       gradientTransform="matrix(1.1573 0 0 .99591 -7.551 .19713)"
       r="42" />
    <linearGradient
       id="linearGradient3737">
      <stop
         id="stop3739"
         style="stop-color:#fff"
         offset="0" />
      <stop
         id="stop3741"
         style="stop-color:#fff;stop-opacity:0"
         offset="1" />
    </linearGradient>
    <linearGradient
       id="linearGradient3760"
       y2="6.064"
       gradientUnits="userSpaceOnUse"
       x2="47.801"
       y1="36"
       x1="48">
      <stop
         id="stop3756"
         style="stop-color:#a4a4a4"
         offset="0" />
      <stop
         id="stop3758"
         style="stop-color:#cecece"
         offset="1" />
    </linearGradient>
    <linearGradient
       id="linearGradient3796"
       y2="30"
       xlink:href="#linearGradient3737"
       spreadMethod="reflect"
       gradientUnits="userSpaceOnUse"
       x2="75"
       y1="23"
       x1="51" />
    <linearGradient
       id="linearGradient3733"
       y2="5.9356"
       xlink:href="#linearGradient3737"
       gradientUnits="userSpaceOnUse"
       x2="36"
       y1="37"
       x1="36" />
    <linearGradient
       id="linearGradient3835"
       y2="85"
       xlink:href="#linearGradient3829"
       gradientUnits="userSpaceOnUse"
       x2="12"
       y1="79"
       x1="12" />
    <linearGradient
       id="linearGradient3829">
      <stop
         id="stop3831"
         style="stop-opacity:.34109"
         offset="0" />
      <stop
         id="stop3837"
         style="stop-color:#7f7f7f;stop-opacity:0"
         offset=".5" />
      <stop
         id="stop3833"
         style="stop-color:#fff;stop-opacity:.20155"
         offset="1" />
    </linearGradient>
    <linearGradient
       id="linearGradient3172"
       y2="85"
       xlink:href="#linearGradient3829"
       gradientUnits="userSpaceOnUse"
       y1="79"
       gradientTransform="translate(70)"
       x2="12"
       x1="12" />
    <clipPath
       id="clipPath3130"
       clipPathUnits="userSpaceOnUse">
      <rect
         id="rect3132"
         style="fill:url(#linearGradient3134)"
         rx="22.826"
         ry="22.826"
         height="84"
         width="84"
         y="6"
         x="6" />
    </clipPath>
    <linearGradient
       id="linearGradient3134"
       y2="1046.1"
       gradientUnits="userSpaceOnUse"
       x2="48"
       gradientTransform="matrix(1.05 0 0 1.05 -2.4 -1006.6)"
       y1="962.62"
       x1="48">
      <stop
         id="stop3797"
         style="stop-color:#13a6fd"
         offset="0" />
      <stop
         id="stop3799"
         style="stop-color:#2975b6"
         offset="1" />
    </linearGradient>
  </defs>
  <metadata
     id="metadata11042">
    <rdf:RDF>
      <cc:Work
         rdf:about="">
        <dc:format>image/svg+xml</dc:format>
        <dc:type
           rdf:resource="http://purl.org/dc/dcmitype/StillImage" />
        <dc:title />
      </cc:Work>
    </rdf:RDF>
  </metadata>
  <g
     id="layer1"
     transform="translate(0 -956.36)">
    <g
       id="g3067"
       clip-path="url(#clipPath3130)"
       transform="matrix(1.0952 0 0 1.0952 -4.5714 951.79)">
      <path
         id="rect2419"
         style="fill:url(#linearGradient3617)"
         d="m12 6c-3.324 0-6 2.676-6 6v72c0 3.324 2.676 6 6 6h72c3.324 0 6-2.676 6-6v-68c0-2.18-0.044-1.935-4-6-4.064-4.1756-3.711-3.891-6-4h-68zm-2 74h6v4h-6v-4zm70 0h6v4h-6v-4z" />
      <path
         id="path3739"
         style="opacity:.1;color:#000000"
         d="m18 6v26c0 2.216 1.784 4 4 4h52c2.216 0 4-1.784 4-4v-26h-60zm0.96875 0.96875h58.062v25.031c0 1.6894-1.3419 3.0312-3.0312 3.0312h-52c-1.6894 0-3.0312-1.3419-3.0312-3.0312v-25.031z" />
      <path
         id="rect3712"
         style="opacity:.1;color:#000000"
         d="m18 6v26c0 2.216 1.784 4 4 4h52c2.216 0 4-1.784 4-4v-26h-60z" />
      <rect
         id="rect3680"
         style="color:#000000;fill:url(#linearGradient3688)"
         height="48"
         width="60"
         y="42"
         x="18" />
      <rect
         id="rect3690"
         style="color:#000000;fill:url(#linearGradient3710)"
         height="4"
         width="52"
         y="86"
         x="22" />
      <path
         id="path3615"
         style="opacity:.15;fill:url(#radialGradient3619)"
         d="m12 90c-3.324 0-6-2.676-6-6v-72c0-0.33472 0.04135-0.6507 0.09375-0.96875 0.0487-0.2956 0.09704-0.59692 0.1875-0.875 0.01-0.03 0.0209-0.063 0.0313-0.094 0.0989-0.2873 0.2349-0.547 0.375-0.812 0.1446-0.2735 0.3156-0.5356 0.5-0.7812 0.1844-0.2457 0.3738-0.4735 0.5937-0.6876 0.44-0.428 0.943-0.8145 1.5-1.0937 0.2786-0.1396 0.5735-0.2469 0.8748-0.3437-0.256 0.1002-0.4865 0.2362-0.7185 0.375-0.0074 0.0044-0.02387-0.0045-0.03125 0-0.03193 0.0193-0.06229 0.04251-0.09375 0.0625-0.1204 0.0767-0.23102 0.16351-0.34375 0.25-0.10617 0.0808-0.21328 0.16111-0.3125 0.25-0.1779 0.1614-0.3474 0.3453-0.5 0.5312-0.1075 0.1303-0.2183 0.2653-0.3124 0.4063-0.0251 0.0383-0.0385 0.0858-0.0626 0.125-0.0647 0.103-0.1302 0.2045-0.1874 0.3124-0.1011 0.1948-0.2057 0.4158-0.2813 0.625-0.008 0.0219-0.0236 0.0406-0.0313 0.0626-0.0318 0.0919-0.0358 0.1868-0.0624 0.2812-0.0304 0.1066-0.0704 0.203-0.0938 0.3125-0.0729 0.3415-0.125 0.6985-0.125 1.0625v72c0 2.7818 2.2182 5 5 5h72c2.7818 0 5-2.2182 5-5v-72c0-0.364-0.052-0.721-0.125-1.0625-0.044-0.2069-0.088-0.3977-0.156-0.5937-0.008-0.022-0.024-0.0407-0.031-0.0626-0.063-0.1737-0.139-0.3674-0.219-0.5312-0.042-0.0828-0.079-0.17-0.125-0.25-0.055-0.0972-0.127-0.1884-0.188-0.2812-0.094-0.141-0.205-0.276-0.312-0.4063-0.143-0.1745-0.303-0.347-0.469-0.5-0.011-0.0102-0.02-0.0211-0.031-0.0313-0.139-0.1255-0.285-0.2344-0.438-0.3437-0.102-0.0731-0.204-0.1534-0.312-0.2187-0.0074-0.0045-0.02384 0.0044-0.03125 0-0.23204-0.13873-0.46255-0.27478-0.71875-0.375 0.30153 0.0968 0.59646 0.20414 0.875 0.34375 0.55709 0.27922 1.0601 0.66569 1.5 1.0938 0.21997 0.21403 0.40937 0.44186 0.59375 0.6875s0.35541 0.50774 0.5 0.78125c0.14012 0.26505 0.27614 0.52473 0.375 0.8125 0.01041 0.03078 0.02133 0.06274 0.03125 0.09375 0.09046 0.27808 0.1388 0.5794 0.1875 0.875 0.053 0.318 0.094 0.634 0.094 0.969v72c0 3.324-2.676 6-6 6h-72z" />
      <path
         id="rect3746"
         style="color:#000000;fill:url(#linearGradient3760)"
         d="m32 6v26c0 2.216 1.784 4 4 4h38c2.216 0 4-1.784 4-4v-26h-46zm24 6h12v20h-12v-20z" />
      <path
         id="path3785"
         style="opacity:.2;color:#000000"
         d="m31 6v26c0 2.216 1.784 4 4 4h1c-2.216 0-4-1.784-4-4v-26h-1z" />
      <path
         id="path3794"
         style="opacity:.5;color:#000000;fill:url(#linearGradient3796)"
         d="m32 6v26c0 2.216 1.784 4 4 4h38c2.216 0 4-1.784 4-4v-26h-46zm24 6h12v20h-12v-20z" />
      <rect
         id="rect3694"
         style="opacity:.2;color:#000000;fill:#f30"
         height="1"
         width="52"
         y="80"
         x="22" />
      <rect
         id="rect3696"
         style="opacity:.2;color:#000000;fill:#f30"
         height="1"
         width="52"
         y="72"
         x="22" />
      <rect
         id="rect3698"
         style="opacity:.2;color:#000000;fill:#f30"
         height="1"
         width="52"
         y="64"
         x="22" />
      <rect
         id="rect3700"
         style="opacity:.2;color:#000000;fill:#f30"
         height="1"
         width="52"
         y="56"
         x="22" />
      <rect
         id="rect3702"
         style="opacity:.2;color:#000000;fill:#f30"
         height="1"
         width="52"
         y="48"
         x="22" />
      <path
         id="path3762"
         style="opacity:.6;color:#000000;fill:#fff"
         d="m32 6v1h46v-1h-46zm24 26v1h12v-1h-12z" />
      <path
         id="path3719"
         style="opacity:.1;color:#000000;fill:url(#linearGradient3733)"
         d="m17 6v26c0 2.7555 2.2445 5 5 5h52c2.7555 0 5-2.2445 5-5v-26h-1v26c0 2.216-1.784 4-4 4h-52c-2.216 0-4-1.784-4-4v-26h-1z" />
      <path
         id="rect3780"
         style="opacity:.3;color:#000000"
         d="m56 12v20h1v-19h10v19h1v-20h-12z" />
      <path
         id="path3798"
         style="fill:#313131"
         d="m13 13-3 5h2v6h2v-6h2l-3-5z" />
      <path
         id="path3800"
         style="opacity:.2"
         d="m13 13-3 5h0.59375l2.406-4 2.406 4h0.594l-3-5z" />
      <path
         id="path3805"
         style="opacity:.15;fill:#fff"
         d="m10.594 18-0.594 1h2v-1h-1.4062zm3.406 0v1h2l-0.594-1h-1.406zm-2 6v1h2v-1h-2z" />
      <path
         id="rect3824"
         style="color:#000000;fill:url(#linearGradient3835)"
         d="m9 79v6h8v-6h-8zm1 1h6v4h-6v-4z" />
      <path
         id="path3839"
         style="color:#000000;fill:url(#linearGradient3172)"
         d="m79 79v6h8v-6h-8zm1 1h6v4h-6v-4z" />
    </g>
    <rect
       id="rect3003"
       style="opacity:.15;fill:#fff"
       clip-path="url(#clipPath3009)"
       rx="25"
       ry="25"
       transform="translate(98)"
       width="92"
       y="958.36"
       x="-96"
       height="92" />
  </g>
</svg>
