<?xml version="1.0" encoding="UTF-8" standalone="no"?>
<!-- Created with Inkscape (http://www.inkscape.org/) -->

<svg
   xmlns:dc="http://purl.org/dc/elements/1.1/"
   xmlns:cc="http://creativecommons.org/ns#"
   xmlns:rdf="http://www.w3.org/1999/02/22-rdf-syntax-ns#"
   xmlns:svg="http://www.w3.org/2000/svg"
   xmlns="http://www.w3.org/2000/svg"
   xmlns:xlink="http://www.w3.org/1999/xlink"
   xmlns:sodipodi="http://sodipodi.sourceforge.net/DTD/sodipodi-0.dtd"
   xmlns:inkscape="http://www.inkscape.org/namespaces/inkscape"
   id="svg11037"
   height="96"
   width="96"
   version="1.1"
   inkscape:version="0.48.5 r10040"
   sodipodi:docname="music-player.svg">
  <sodipodi:namedview
     pagecolor="#ffffff"
     bordercolor="#666666"
     borderopacity="1"
     objecttolerance="10"
     gridtolerance="10"
     guidetolerance="10"
     inkscape:pageopacity="0"
     inkscape:pageshadow="2"
     inkscape:window-width="1366"
     inkscape:window-height="714"
     id="namedview1409"
     showgrid="false"
     inkscape:zoom="2.4583333"
     inkscape:cx="-0.15716419"
     inkscape:cy="-0.70915021"
     inkscape:window-x="0"
     inkscape:window-y="24"
     inkscape:window-maximized="1"
     inkscape:current-layer="svg11037" />
  <defs
     id="defs11039">
    <linearGradient
       id="linearGradient3811">
      <stop
         style="stop-color:#4d4d4d;stop-opacity:1;"
         offset="0"
         id="stop3813" />
      <stop
         style="stop-color:#3e3e3e;stop-opacity:1;"
         offset="1"
         id="stop3815" />
    </linearGradient>
    <linearGradient
       inkscape:collect="always"
       xlink:href="#linearGradient3811"
       id="linearGradient3114"
       gradientUnits="userSpaceOnUse"
       gradientTransform="translate(0.25168,-6e-6)"
       x1="49.012192"
       y1="8.7555733"
       x2="51.230446"
       y2="87.597977" />
  </defs>
  <metadata
     id="metadata11042">
    <rdf:RDF>
      <cc:Work
         rdf:about="">
        <dc:format>image/svg+xml</dc:format>
        <dc:type
           rdf:resource="http://purl.org/dc/dcmitype/StillImage" />
        <dc:title />
      </cc:Work>
    </rdf:RDF>
  </metadata>
  <rect
     style="opacity:0.98999999;fill:url(#linearGradient3114);fill-opacity:1;stroke:none"
     id="rect2985"
     width="80"
     height="80"
     x="8.2516708"
     y="7.9999928"
     rx="10.769231"
     ry="10.769231" />
  <path
     style="opacity:0.3;fill:#000000;fill-opacity:1;stroke:none"
     d="m 7.74832,75.196207 0,2.0133 c 0,5.966 4.79306,10.7905 10.75895,10.7905 l 58.450647,0 c 5.96588,0 10.7904,-4.8245 10.7904,-10.7905 l 0,-2.0133 c 0,5.9659 -4.82452,10.7904 -10.7904,10.7904 l -58.450647,0 c -5.96589,0 -10.75895,-4.8245 -10.75895,-10.7904 z"
     id="rect3755"
     inkscape:connector-curvature="0" />
  <g
     id="g5851"
     transform="matrix(0.78125,0,0,0.78125,11.110847,9.6686733)">
    <path
       style="color:#000000;fill:#10b4db;fill-opacity:1"
       d="m 73.539454,49.064089 a 25.9992,25.9992 0 0 1 -51.9984,0 25.9992,25.9992 0 1 1 51.9984,0 z"
       id="path3900"
       inkscape:connector-curvature="0" />
    <path
       inkscape:connector-curvature="0"
       id="path4824"
       d="m 47.540254,17.064089 c -8.372361,0 -16.01575,3.20551 -21.71875,8.46875 l 5.65625,5.65625 c 4.250677,-3.821113 9.896732,-6.125 16.0625,-6.125 6.580624,0 12.539373,2.648417 16.875,6.9375 l 5.65625,-5.65625 c -5.783362,-5.736315 -13.74205,-9.28125 -22.53125,-9.28125 z m -22.40625,9.1875 c -5.91162,5.806246 -9.59375,13.871853 -9.59375,22.8125 0,8.7892 3.54493,16.747887 9.28125,22.53125 l 5.65625,-5.65625 c -4.28908,-4.335627 -6.9375,-10.294376 -6.9375,-16.875 0,-6.731055 2.78668,-12.798105 7.25,-17.15625 l -5.65625,-5.65625 z m 45.625,0.8125 -5.65625,5.65625 c 3.98246,4.28411 6.4375,10.033043 6.4375,16.34375 0,6.15724 -2.344556,11.751414 -6.15625,16 l 5.6875,5.6875 c 5.261898,-5.702733 8.46875,-13.31634 8.46875,-21.6875 0,-8.524291 -3.347219,-16.264791 -8.78125,-22 z m -6.0625,38.75 c -4.358165,4.463496 -10.425042,7.25 -17.15625,7.25 -6.310707,0 -12.05964,-2.45504 -16.34375,-6.4375 l -5.65625,5.6875 c 5.733619,5.42512 13.483596,8.75 22,8.75 8.939208,0 17.006455,-3.6838 22.8125,-9.59375 l -5.65625,-5.65625 z"
       style="color:#000000;fill:#f6f6f6;fill-opacity:1" />
    <path
       inkscape:connector-curvature="0"
       id="path3855"
       d="m 48.009004,33.067523 a 16,16 0 0 0 -16.46875,16 16,16 0 0 0 32,0 16,16 0 0 0 -15.53125,-16 z m -4.96875,8 a 1.6472944,1.6809851 0 0 1 0.96875,0.21875 l 5.34375,3.15625 5.34375,3.15625 a 1.6472944,1.6809851 0 0 1 0,2.90625 l -5.34375,3.1875 -5.34375,3.15625 a 1.6472944,1.6809851 0 0 1 -2.46875,-1.46875 l 0,-12.625 a 1.6472944,1.6809851 0 0 1 1.5,-1.6875 z"
       style="color:#000000;fill:#f6f6f6;fill-opacity:1" />
    <g
       transform="translate(-0.42550576,1.060279)"
       style="fill:#666666"
       id="text4054">
      <path
         d="m 21.037,50.099 -1.0579,0.83504 0.09339,0.85232 1.1358,-0.12445 0.04063,0.37083 -2.7356,0.29974 -0.14104,-1.2872 c -0.01702,-0.15532 -0.01393,-0.2945 0.0093,-0.41756 0.02176,-0.1242 0.06182,-0.23076 0.12019,-0.31968 0.05837,-0.08892 0.13376,-0.16005 0.22615,-0.2134 0.0924,-0.05335 0.19943,-0.08669 0.32109,-0.10002 0.08672,-0.0095 0.17357,-0.0059 0.26053,0.01075 0.08683,0.01538 0.16817,0.04642 0.24402,0.09312 0.07585,0.04671 0.14363,0.10936 0.20332,0.18796 0.0597,0.0786 0.10636,0.17566 0.13997,0.29117 l 1.0934,-0.90573 0.0468,0.42713 m -1.9433,0.26794 c -0.08284,0.0091 -0.15311,0.03119 -0.21083,0.06633 -0.05771,0.03514 -0.10365,0.08209 -0.13782,0.14085 -0.03546,0.0589 -0.05864,0.12825 -0.06955,0.20803 -0.0122,0.07993 -0.01291,0.16908 -0.0021,0.26745 l 0.09637,0.8795 1.0096,-0.11062 -0.09807,-0.89503 C 19.66972,50.81734 19.64671,50.72686 19.61231,50.65203 19.57662,50.57735 19.53278,50.51797 19.4808,50.47389 19.42868,50.42852 19.36962,50.39766 19.30365,50.38131 19.23754,50.36367 19.16759,50.35889 19.09381,50.36697"
         style="fill:#666666"
         id="path4062"
         inkscape:connector-curvature="0" />
      <path
         d="m 20.972,49.155 -2.7519,0.01802 -0.01367,-2.0878 0.30468,-0.002 0.01123,1.7148 0.88279,-0.0058 -0.01046,-1.5976 0.30078,-0.002 0.01046,1.5976 0.95896,-0.0063 -0.01175,-1.7949 0.30468,-0.002 0.0142,2.1679"
         style="fill:#666666"
         id="path4064"
         inkscape:connector-curvature="0" />
      <path
         d="m 21.258,43.873 -0.05042,0.44245 -1.7908,0.27557 c -0.05078,0.0086 -0.11077,0.01752 -0.17996,0.02667 -0.06904,0.0079 -0.1347,0.01479 -0.19698,0.0208 -0.07292,0.0074 -0.14714,0.01469 -0.22265,0.0218 0.07312,0.02537 0.14437,0.04987 0.21376,0.0735 0.06048,0.02131 0.12282,0.04349 0.18703,0.06653 0.06421,0.02305 0.12009,0.04448 0.16762,0.06432 l 1.6824,0.67531 -0.05042,0.44245 -2.826,0.49373 0.04401,-0.38617 1.7928,-0.29303 c 0.08401,-0.0127 0.16723,-0.02419 0.24965,-0.03445 0.08257,-0.01156 0.15636,-0.02084 0.22137,-0.02785 0.07695,-0.0083 0.14988,-0.01568 0.21877,-0.02225 -0.08705,-0.02958 -0.17274,-0.05965 -0.25706,-0.09023 -0.03519,-0.01318 -0.07232,-0.02659 -0.1114,-0.04022 -0.03907,-0.01362 -0.0775,-0.02718 -0.11528,-0.04066 -0.03763,-0.01477 -0.0734,-0.02868 -0.1073,-0.04171 -0.03504,-0.01448 -0.067,-0.02729 -0.09587,-0.03845 l -1.6477,-0.66939 0.04047,-0.35512 1.7561,-0.28149 c 0.03064,-0.0044 0.06459,-0.009 0.10184,-0.01395 0.03611,-0.0064 0.07409,-0.01187 0.11393,-0.0165 0.0387,-0.0061 0.07861,-0.01135 0.11975,-0.01584 0.04114,-0.0045 0.08033,-0.0092 0.11759,-0.01412 0.08904,-0.01082 0.17994,-0.02077 0.27271,-0.02986 1.47e-4,-0.0013 -0.02118,-0.0096 -0.06399,-0.02498 -0.0441,-0.01551 -0.0989,-0.03486 -0.16441,-0.05805 -0.0655,-0.02319 -0.13603,-0.04826 -0.21159,-0.07522 -0.07671,-0.0284 -0.14759,-0.05613 -0.21265,-0.08321 l -1.6817,-0.68113 0.04401,-0.38617 2.6425,1.1169"
         style="fill:#666666"
         id="path4066"
         inkscape:connector-curvature="0" />
      <path
         d="m 44.229,21.262 -0.38259,0.05638 -1.5123,-2.5588 0.38838,-0.05724 1.0361,1.8057 c 0.02786,0.05512 0.05573,0.11024 0.0836,0.16536 0.02768,0.05383 0.05256,0.10215 0.07467,0.14496 0.02582,0.05016 0.0508,0.09912 0.07495,0.14689 0.0084,-0.04994 0.01778,-0.10265 0.02803,-0.15812 0.0088,-0.04736 0.01806,-0.10071 0.02774,-0.16005 0.01097,-0.05953 0.02285,-0.12182 0.03563,-0.18688 l 0.46723,-2.0273 0.38838,-0.05724 -0.70981,2.8863"
         style="fill:#666666"
         id="path4068"
         inkscape:connector-curvature="0" />
      <path
         d="m 48.225,19.578 c 0.0086,0.21467 -0.01475,0.41108 -0.07013,0.58923 -0.05409,0.1781 -0.13717,0.33195 -0.24924,0.46156 -0.11207,0.12961 -0.25132,0.23164 -0.41773,0.30609 -0.16642,0.07446 -0.35696,0.116 -0.57163,0.12463 -0.22638,0.0091 -0.4262,-0.01805 -0.59946,-0.08145 -0.17331,-0.0647 -0.3191,-0.15788 -0.43736,-0.27953 -0.11832,-0.12295 -0.2096,-0.27044 -0.27386,-0.44248 -0.06425,-0.17204 -0.10054,-0.36148 -0.10886,-0.56835 -0.0086,-0.21467 0.0135,-0.40973 0.06639,-0.58517 0.05289,-0.17544 0.1348,-0.32599 0.24572,-0.45164 0.11087,-0.12695 0.24957,-0.22635 0.41609,-0.29821 0.16777,-0.0732 0.36159,-0.11423 0.58146,-0.12307 0.21857,-0.0088 0.41376,0.0166 0.58556,0.07614 0.1731,0.0595 0.31936,0.1481 0.43877,0.26579 0.12071,0.11764 0.21446,0.26178 0.28127,0.43241 0.0668,0.17063 0.10447,0.36198 0.113,0.57405 m -0.38055,0.0153 c -0.0066,-0.16523 -0.03416,-0.31464 -0.08253,-0.44822 -0.04708,-0.13363 -0.11418,-0.24691 -0.20132,-0.33984 -0.08584,-0.09298 -0.19095,-0.16303 -0.31534,-0.21016 -0.12439,-0.04712 -0.2666,-0.06747 -0.42662,-0.06103 -0.16393,0.0066 -0.30665,0.03839 -0.42815,0.0954 -0.12151,0.05701 -0.22196,0.13533 -0.30135,0.23495 -0.07809,0.09957 -0.13524,0.21785 -0.17143,0.35483 -0.03489,0.13693 -0.04901,0.28801 -0.04237,0.45324 0.0066,0.16523 0.03355,0.31596 0.08073,0.4522 0.04843,0.13488 0.11564,0.25076 0.20163,0.34765 0.08724,0.09553 0.19314,0.16881 0.31768,0.21984 0.12579,0.04967 0.2687,0.07129 0.42873,0.06486 0.17174,-0.0069 0.31828,-0.04082 0.43963,-0.10173 0.12265,-0.06097 0.22167,-0.14248 0.29706,-0.24455 0.07663,-0.10342 0.13104,-0.22485 0.16323,-0.36428 0.03348,-0.13948 0.04696,-0.29053 0.04042,-0.45316"
         style="fill:#666666"
         id="path4070"
         inkscape:connector-curvature="0" />
      <path
         d="m 48.799,20.999 0.16196,-2.7472 0.3724,0.02196 -0.14403,2.443 1.3882,0.08184 -0.01793,0.30416 -1.7606,-0.1038"
         style="fill:#666666"
         id="path4072"
         inkscape:connector-curvature="0" />
      <path
         d="m 51.056,21.172 0.05167,-0.4246 0.37807,0.04601 -0.05168,0.4246 -0.37807,-0.04601"
         style="fill:#666666"
         id="path4074"
         inkscape:connector-curvature="0" />
      <path
         d="m 54.438,20.56 -0.18796,0.81453 -0.27976,-0.06456 0.18796,-0.81453 -0.80692,-0.1862 0.06412,-0.27785 0.80692,0.1862 0.18796,-0.81453 0.27976,0.06455 -0.18796,0.81453 0.80692,0.1862 L 55.24492,20.7462 54.438,20.56"
         style="fill:#666666"
         id="path4076"
         inkscape:connector-curvature="0" />
      <path
         d="m 77.198,44.381 -1.0177,0.1086 0.16291,1.5265 -0.30685,0.03275 -0.16291,-1.5265 -1.1089,0.11835 -0.03959,-0.37094 2.7364,-0.29203 0.20747,1.944 -0.30297,0.03233 -0.16788,-1.5731"
         style="fill:#666666"
         id="path4078"
         inkscape:connector-curvature="0" />
      <path
         d="m 74.963,49.328 0.0038,-0.4453 1.7521,-0.46162 c 0.0496,-0.0139 0.10832,-0.02903 0.17618,-0.04537 0.06784,-0.01505 0.13241,-0.02882 0.19372,-0.04132 0.07174,-0.01502 0.14479,-0.03002 0.21914,-0.04501 -0.07538,-0.01757 -0.1488,-0.03448 -0.22028,-0.05071 -0.06238,-0.01486 -0.1267,-0.03038 -0.19297,-0.04657 -0.06627,-0.01619 -0.12408,-0.03166 -0.17344,-0.0464 l -1.7439,-0.49538 0.0038,-0.4453 2.7588,-0.78702 -0.0033,0.38866 -1.7522,0.4792 c -0.08222,0.02143 -0.16377,0.04157 -0.24467,0.06041 -0.0809,0.02014 -0.15332,0.0371 -0.21724,0.05088 -0.07566,0.01628 -0.14741,0.03129 -0.21524,0.04504 0.08967,0.0203 0.17804,0.04123 0.2651,0.06281 0.03638,0.0094 0.07471,0.01887 0.115,0.02833 0.04028,0.0095 0.07992,0.01891 0.1189,0.02836 0.03897,0.01075 0.076,0.02083 0.11107,0.03025 0.03637,0.01073 0.06949,0.02012 0.09937,0.02819 l 1.7087,0.49312 -0.0031,0.35741 -1.7169,0.46387 c -0.03001,0.0076 -0.06329,0.01573 -0.09982,0.02454 -0.03524,0.01011 -0.07244,0.01956 -0.11157,0.02835 -0.03785,0.01009 -0.07699,0.01952 -0.11743,0.02829 -0.04044,0.0088 -0.07893,0.01755 -0.11546,0.02636 -0.08741,0.02009 -0.17678,0.0395 -0.26808,0.05826 -1.1e-5,0.0013 0.02207,0.0073 0.06625,0.01814 0.04548,0.0108 0.10201,0.02431 0.16958,0.04051 0.06757,0.0162 0.14034,0.03375 0.21831,0.05265 0.07926,0.02021 0.15266,0.04036 0.2202,0.06048 l 1.7438,0.50124 -0.0033,0.38866 -2.7449,-0.83402"
         style="fill:#666666"
         id="path4080"
         inkscape:connector-curvature="0" />
      <path
         d="m 75.964,53.012 c -0.22715,-0.03032 -0.42328,-0.09131 -0.58839,-0.18297 -0.16382,-0.09149 -0.29652,-0.20444 -0.39812,-0.33885 -0.10031,-0.13424 -0.16994,-0.28672 -0.2089,-0.45744 -0.03784,-0.16926 -0.04427,-0.34745 -0.01929,-0.5346 l 0.13617,-1.0202 2.7278,0.36408 -0.12041,0.90216 c -0.02808,0.21037 -0.08038,0.40044 -0.15689,0.57019 -0.0754,0.17122 -0.17648,0.31339 -0.30323,0.42652 -0.12547,0.1133 -0.27683,0.19425 -0.45409,0.24284 -0.17743,0.04988 -0.3823,0.05932 -0.61462,0.02831 m 0.04961,-0.3717 c 0.18456,0.02463 0.34555,0.01919 0.48297,-0.01633 0.13871,-0.03535 0.25638,-0.09518 0.35302,-0.17948 0.09664,-0.08431 0.17319,-0.19035 0.22965,-0.31812 0.05775,-0.1276 0.09722,-0.27077 0.11841,-0.42952 l 0.07003,-0.52464 -2.1354,-0.28501 -0.08114,0.60789 c -0.01912,0.14326 -0.01355,0.27865 0.01672,0.40617 0.0301,0.12881 0.08502,0.24386 0.16477,0.34514 0.07975,0.10128 0.18467,0.18622 0.31476,0.25482 0.13009,0.06859 0.28548,0.11495 0.46617,0.13907"
         style="fill:#666666"
         id="path4082"
         inkscape:connector-curvature="0" />
      <path
         d="m 51.636,74.753 0.38274,-0.05536 1.5054,2.5628 -0.38854,0.0562 -1.0312,-1.8085 c -0.02772,-0.05519 -0.05544,-0.11039 -0.08315,-0.16558 -0.02753,-0.05391 -0.05229,-0.10229 -0.07428,-0.14516 -0.02568,-0.05023 -0.05054,-0.09926 -0.07456,-0.14709 -0.0086,0.04992 -0.01805,0.1026 -0.02845,0.15804 -0.0089,0.04734 -0.01833,0.10066 -0.02817,0.15998 -0.01113,0.0595 -0.02317,0.12176 -0.03613,0.18678 l -0.47266,2.026 -0.38854,0.0562 0.71754,-2.8844"
         style="fill:#666666"
         id="path4084"
         inkscape:connector-curvature="0" />
      <path
         d="m 47.636,76.426 c -0.008,-0.21469 0.01587,-0.41104 0.07173,-0.58904 0.05457,-0.17795 0.13807,-0.33158 0.25049,-0.46088 0.11242,-0.1293 0.25194,-0.23096 0.41856,-0.30496 0.16662,-0.074 0.35727,-0.11503 0.57196,-0.12308 0.2264,-0.0085 0.42615,0.01921 0.59924,0.08308 0.17314,0.06517 0.31867,0.15875 0.4366,0.28072 0.11798,0.12327 0.20887,0.27101 0.27265,0.44322 0.06379,0.17221 0.09956,0.36176 0.10732,0.56864 0.008,0.21469 -0.01461,0.40969 -0.06798,0.58499 -0.05337,0.1753 -0.13568,0.32562 -0.24695,0.45097 -0.11122,0.12665 -0.25018,0.22567 -0.4169,0.29708 -0.16796,0.07275 -0.3619,0.11324 -0.5818,0.12149 -0.2186,0.0082 -0.41371,-0.01772 -0.58535,-0.07774 -0.17294,-0.05997 -0.31895,-0.14897 -0.43804,-0.26698 -0.12039,-0.11797 -0.21375,-0.26236 -0.2801,-0.43317 -0.06634,-0.17081 -0.10348,-0.36226 -0.11144,-0.57435 m 0.38059,-0.01427 c 0.0062,0.16525 0.0333,0.31473 0.08131,0.44844 0.04671,0.13376 0.11351,0.24722 0.20039,0.34039 0.08559,0.09321 0.19051,0.16355 0.31477,0.21101 0.12426,0.04746 0.26642,0.06819 0.42646,0.06219 0.16395,-0.0061 0.30675,-0.03756 0.42841,-0.09424 0.12166,-0.05668 0.22232,-0.13473 0.30199,-0.23413 0.07836,-0.09936 0.13583,-0.21748 0.17239,-0.35436 0.03526,-0.13684 0.0498,-0.28788 0.0436,-0.45312 -0.0062,-0.16525 -0.0327,-0.31606 -0.0795,-0.45242 -0.04806,-0.13501 -0.11495,-0.25108 -0.20068,-0.3482 -0.08698,-0.09577 -0.19268,-0.16933 -0.31708,-0.2207 -0.12566,-0.05002 -0.26851,-0.07202 -0.42856,-0.06602 -0.17175,0.0064 -0.31839,0.03995 -0.4399,0.10054 -0.12281,0.06063 -0.22205,0.14188 -0.29772,0.24374 -0.07691,0.10321 -0.13165,0.22449 -0.16422,0.36383 -0.03386,0.13939 -0.04775,0.2904 -0.04165,0.45305"
         style="fill:#666666"
         id="path4086"
         inkscape:connector-curvature="0" />
      <path
         d="m 47.066,75.004 -0.16949,2.7467 -0.37234,-0.02298 0.15072,-2.4426 -1.388,-0.08565 0.01877,-0.30411 1.7603,0.10862"
         style="fill:#666666"
         id="path4088"
         inkscape:connector-curvature="0" />
      <path
         d="M 44.809,74.825 44.75616,75.24946 44.37822,75.20241 44.43106,74.77795 44.809,74.825"
         style="fill:#666666"
         id="path4090"
         inkscape:connector-curvature="0" />
      <path
         d="M 43.742,75.599 43.68929,75.90702 42.72672,75.74229 42.77943,75.43427 43.742,75.599"
         style="fill:#666666"
         id="path4092"
         inkscape:connector-curvature="0" />
    </g>
  </g>
</svg>
