<?xml version="1.0" encoding="UTF-8" standalone="no"?>
<!-- Created with Inkscape (http://www.inkscape.org/) -->

<svg
   xmlns:dc="http://purl.org/dc/elements/1.1/"
   xmlns:cc="http://creativecommons.org/ns#"
   xmlns:rdf="http://www.w3.org/1999/02/22-rdf-syntax-ns#"
   xmlns:svg="http://www.w3.org/2000/svg"
   xmlns="http://www.w3.org/2000/svg"
   xmlns:sodipodi="http://sodipodi.sourceforge.net/DTD/sodipodi-0.dtd"
   xmlns:inkscape="http://www.inkscape.org/namespaces/inkscape"
   id="svg11037"
   height="96"
   width="96"
   version="1.1"
   inkscape:version="0.48.5 r10040"
   sodipodi:docname="multimedia-player-ipod-touch.svg">
  <sodipodi:namedview
     pagecolor="#ffffff"
     bordercolor="#666666"
     borderopacity="1"
     objecttolerance="10"
     gridtolerance="10"
     guidetolerance="10"
     inkscape:pageopacity="0"
     inkscape:pageshadow="2"
     inkscape:window-width="640"
     inkscape:window-height="480"
     id="namedview11014" />
  <defs
     id="defs11039">
    <clipPath
       id="clipPath3009"
       clipPathUnits="userSpaceOnUse">
      <path
         id="path3011"
         style="opacity:.15;fill:#fff"
         d="m-2 956.36h-96v33.562l96 25.687v-59.25z" />
    </clipPath>
    <linearGradient
       id="linearGradient3831"
       y2="72"
       gradientUnits="userSpaceOnUse"
       x2="30"
       gradientTransform="translate(-96,-48)"
       y1="72"
       x1="18">
      <stop
         id="stop4044"
         style="stop-color:#ff9800"
         offset="0" />
      <stop
         id="stop4046"
         style="stop-color:#ff4600"
         offset="1" />
    </linearGradient>
    <linearGradient
       id="linearGradient3833"
       y2="75"
       gradientUnits="userSpaceOnUse"
       y1="62"
       x2="24"
       x1="24">
      <stop
         id="stop4036"
         style="stop-color:#fff"
         offset="0" />
      <stop
         id="stop4038"
         style="stop-color:#fff;stop-opacity:0"
         offset="1" />
    </linearGradient>
    <linearGradient
       id="linearGradient3835"
       y2="72"
       gradientUnits="userSpaceOnUse"
       x2="30"
       gradientTransform="translate(-96,-48)"
       y1="72"
       x1="18">
      <stop
         id="stop4182"
         style="stop-color:#008eca"
         offset="0" />
      <stop
         id="stop4184"
         style="stop-color:#35c3ff"
         offset="1" />
    </linearGradient>
    <linearGradient
       id="linearGradient3839"
       y2="72"
       gradientUnits="userSpaceOnUse"
       x2="32"
       gradientTransform="translate(-96,-48)"
       y1="72"
       x1="18">
      <stop
         id="stop4194"
         style="stop-color:#ffdb5b"
         offset="0" />
      <stop
         id="stop4196"
         style="stop-color:#26a4bc"
         offset="1" />
    </linearGradient>
    <linearGradient
       id="linearGradient3843"
       y2="72"
       gradientUnits="userSpaceOnUse"
       x2="30"
       gradientTransform="translate(-96,-48)"
       y1="72"
       x1="18">
      <stop
         id="stop4188"
         style="stop-color:#a535c0"
         offset="0" />
      <stop
         id="stop4190"
         style="stop-color:#732586"
         offset="1" />
    </linearGradient>
    <linearGradient
       id="linearGradient3847"
       y2="72"
       gradientUnits="userSpaceOnUse"
       x2="30"
       gradientTransform="translate(-96,-48)"
       y1="72"
       x1="18">
      <stop
         id="stop4366"
         style="stop-color:#ccc"
         offset="0" />
      <stop
         id="stop4368"
         style="stop-color:#1a1a1a"
         offset="1" />
    </linearGradient>
    <linearGradient
       id="linearGradient3851"
       y2="72"
       gradientUnits="userSpaceOnUse"
       x2="30"
       gradientTransform="translate(-96,-48)"
       y1="72"
       x1="18">
      <stop
         id="stop4360"
         style="stop-color:#71c837"
         offset="0" />
      <stop
         id="stop4362"
         style="stop-color:#447821"
         offset="1" />
    </linearGradient>
    <linearGradient
       id="linearGradient3855"
       y2="72"
       gradientUnits="userSpaceOnUse"
       x2="30"
       gradientTransform="translate(-96,-48)"
       y1="72"
       x1="18">
      <stop
         id="stop4372"
         style="stop-color:#2a7fff"
         offset="0" />
      <stop
         id="stop4374"
         style="stop-color:#003380"
         offset="1" />
    </linearGradient>
    <linearGradient
       id="linearGradient3867"
       y2="72"
       gradientUnits="userSpaceOnUse"
       x2="30"
       gradientTransform="translate(-96,-48)"
       y1="72"
       x1="18">
      <stop
         id="stop4378"
         style="stop-color:#deaa87"
         offset="0" />
      <stop
         id="stop4380"
         style="stop-color:#784421"
         offset="1" />
    </linearGradient>
    <linearGradient
       id="linearGradient5284"
       y2="1046.1"
       gradientUnits="userSpaceOnUse"
       x2="48"
       gradientTransform="matrix(1.15 0 0 1.15 -7.1999 -150.65)"
       y1="962.62"
       x1="48">
      <stop
         id="stop3702"
         style="stop-color:#141414"
         offset="0" />
      <stop
         id="stop3704"
         style="stop-color:#323232"
         offset="1" />
    </linearGradient>
  </defs>
  <metadata
     id="metadata11042">
    <rdf:RDF>
      <cc:Work
         rdf:about="">
        <dc:format>image/svg+xml</dc:format>
        <dc:type
           rdf:resource="http://purl.org/dc/dcmitype/StillImage" />
        <dc:title />
      </cc:Work>
    </rdf:RDF>
  </metadata>
  <g
     id="layer1"
     transform="translate(0 -956.36)">
    <rect
       id="rect3867"
       style="fill:url(#linearGradient5284)"
       rx="25"
       ry="25"
       height="92"
       width="92"
       y="958.36"
       x="2" />
    <g
       id="g3539"
       transform="matrix(1.0952 0 0 1.0952 -4.5714 951.79)">
      <g
         id="layer6">
        <g
           id="g4111">
          <path
             id="path4056"
             style="opacity:.25;color:#000000"
             transform="rotate(-90)"
             d="m-77 16.969c-1.6667 0-3.0312 1.3645-3.0312 3.0312v8c0 1.6667 1.3645 3.0312 3.0312 3.0312h8c1.6667 0 3.0312-1.3645 3.0312-3.0312v-8c0-1.6667-1.3645-3.0312-3.0312-3.0312h-8z" />
          <rect
             id="rect4050"
             style="opacity:.5;color:#000000"
             transform="rotate(-90)"
             rx="2"
             ry="2"
             height="12"
             width="12"
             y="18"
             x="-79" />
          <rect
             id="rect4020"
             style="color:#000000;fill:url(#linearGradient3831)"
             transform="rotate(-90)"
             rx="2"
             ry="2"
             height="12"
             width="12"
             y="18"
             x="-78" />
          <path
             id="path4028"
             style="color:#000000;fill:url(#linearGradient3833)"
             d="m20 66c-1.108 0-2 0.892-2 2v2.625c1.4666 0.84118 3.5928 1.375 6 1.375s4.5334-0.53382 6-1.375v-2.625c0-1.108-0.892-2-2-2h-8z" />
          <path
             id="path4109"
             style="opacity:.15;display:block"
             d="m23.438 67.969c-0.43181 0-0.8125 0.37662-0.8125 0.8125v0.21875c-0.04203 0.01818-0.08448 0.04317-0.125 0.0625l-0.15625-0.15625c-0.31766-0.31766-0.84128-0.315-1.1562 0l-0.78125 0.78125c-0.31498 0.31498-0.31764 0.83857 0 1.1562l0.154 0.155c-0.01933 0.04052-0.04432 0.08297-0.0625 0.125h-0.21875c-0.43588 0-0.8125 0.38069-0.8125 0.8125v1.125c0 0.43181 0.37662 0.8125 0.8125 0.8125h0.21875c0.01818 0.04203 0.04317 0.08448 0.0625 0.125l-0.15625 0.15625c-0.31766 0.31766-0.31501 0.84128 0 1.1562l0.78125 0.78125c0.31498 0.31498 0.83857 0.31764 1.1562 0l0.157-0.156c0.04052 0.01933 0.08297 0.04432 0.125 0.0625v0.21875c0 0.43588 0.38069 0.8125 0.8125 0.8125h1.125c0.43181 0 0.8125-0.37662 0.8125-0.8125l-0.001-0.22c0.04203-0.01818 0.08448-0.04317 0.125-0.0625l0.15625 0.15625c0.31766 0.31766 0.84128 0.31501 1.1562 0l0.78125-0.78125c0.31497-0.31498 0.31764-0.83857 0-1.1562l-0.155-0.157c0.01933-0.04052 0.04432-0.08297 0.0625-0.125h0.21875c0.43588 0 0.8125-0.3807 0.8125-0.8125v-1.125c0-0.43181-0.37662-0.8125-0.8125-0.8125h-0.21875c-0.019-0.041-0.044-0.083-0.063-0.124l0.15625-0.15625c0.10363-0.10363 0.2479-0.31388 0.25-0.5625 0.0023-0.26541-0.07854-0.42231-0.25-0.59375l-0.782-0.782c-0.31498-0.31497-0.83857-0.31764-1.1562 0l-0.156 0.156c-0.041-0.019-0.083-0.044-0.125-0.062v-0.21875c-0.000003-0.43587-0.38069-0.8125-0.8125-0.8125h-1.125zm0.562 3.843c0.3731 0 0.6875 0.3144 0.6875 0.6875 0 0.37311-0.31439 0.6875-0.6875 0.6875-0.3731 0-0.6875-0.31439-0.6875-0.6875 0-0.3731 0.3144-0.6875 0.6875-0.6875z" />
          <path
             id="path4105"
             style="opacity:.3;display:block"
             d="m28 71.948c0-0.15742-0.13059-0.28489-0.2907-0.28489h-0.56395c-0.07499-0.28148-0.18828-0.55043-0.3314-0.79651l0.40116-0.40116c0.05661-0.05661 0.08659-0.12442 0.08721-0.19768 0.000626-0.07326-0.02574-0.14783-0.0814-0.20349l-0.78488-0.78488c-0.11131-0.11131-0.28795-0.1074-0.40116 0.0058l-0.40116 0.40116c-0.24608-0.14308-0.51503-0.25636-0.79651-0.33136v-0.56395c-0.000001-0.16011-0.12746-0.2907-0.28488-0.2907h-1.1047c-0.15742 0-0.28488 0.13059-0.28488 0.2907v0.56395c-0.28148 0.075-0.55043 0.18828-0.79651 0.3314l-0.40116-0.40116c-0.11322-0.11321-0.28985-0.11712-0.40116-0.0058l-0.78488 0.78488c-0.11131 0.11131-0.1074 0.28795 0.0058 0.40116l0.40114 0.40116c-0.14312 0.24608-0.2564 0.51503-0.3314 0.79651h-0.56395c-0.16011 0-0.2907 0.12747-0.2907 0.28489v1.1046c0 0.15742 0.13059 0.28488 0.2907 0.28488h0.56395c0.075 0.28148 0.18828 0.55043 0.3314 0.79651l-0.40116 0.40116c-0.11322 0.11322-0.11713 0.28985-0.0058 0.40116l0.78488 0.78488c0.11131 0.11131 0.28795 0.1074 0.40116-0.0058l0.40116-0.40116c0.24608 0.14312 0.51504 0.2564 0.79651 0.3314v0.56395c0 0.16011 0.12746 0.2907 0.28488 0.2907h1.1047c0.15742 0 0.28488-0.13059 0.28488-0.2907v-0.56395c0.28148-0.07499 0.55043-0.18828 0.79651-0.3314l0.40116 0.40116c0.11321 0.11321 0.28985 0.11713 0.40116 0.0058l0.78488-0.78488c0.11131-0.11131 0.1074-0.28795-0.0058-0.40116l-0.40116-0.40116c0.14312-0.24608 0.2564-0.51503 0.3314-0.79651h0.56395c0.16011 0 0.2907-0.12746 0.2907-0.28488v-1.1047zm-2.7907 0.55232c0 0.66754-0.54177 1.2093-1.2093 1.2093s-1.2093-0.54177-1.2093-1.2093 0.54177-1.2093 1.2093-1.2093c0.66754 0 1.2093 0.54177 1.2093 1.2093z" />
          <path
             id="path5066"
             style="display:block;fill:#fff"
             d="m28 71.448c0-0.15742-0.13059-0.28489-0.2907-0.28489h-0.56395c-0.07499-0.28148-0.18828-0.55043-0.3314-0.79651l0.40116-0.40116c0.05661-0.05661 0.08659-0.12442 0.08721-0.19768 0.000626-0.07326-0.02574-0.14783-0.0814-0.20349l-0.78488-0.78488c-0.11131-0.11131-0.28795-0.1074-0.40116 0.0058l-0.40116 0.40116c-0.246-0.143-0.515-0.256-0.797-0.331v-0.56395c-0.000001-0.16011-0.12746-0.2907-0.28488-0.2907h-1.1047c-0.15742 0-0.28488 0.13059-0.28488 0.2907v0.56395c-0.28148 0.075-0.55043 0.18828-0.79651 0.3314l-0.40116-0.40116c-0.11322-0.11321-0.28985-0.11712-0.40116-0.0058l-0.78488 0.78488c-0.11131 0.11131-0.1074 0.28795 0.0058 0.40116l0.40114 0.40116c-0.14312 0.24608-0.2564 0.51503-0.3314 0.79651h-0.56395c-0.16011 0-0.2907 0.12747-0.2907 0.28489v1.1046c0 0.15742 0.13059 0.28488 0.2907 0.28488h0.56395c0.075 0.28148 0.18828 0.55043 0.3314 0.79651l-0.40116 0.40116c-0.11322 0.11322-0.11713 0.28985-0.0058 0.40116l0.78488 0.78488c0.11131 0.11131 0.28795 0.1074 0.40116-0.0058l0.402-0.402c0.24608 0.14312 0.51504 0.2564 0.79651 0.3314v0.56395c0 0.16011 0.12746 0.2907 0.28488 0.2907h1.1047c0.15742 0 0.28488-0.13059 0.28488-0.2907v-0.56395c0.28148-0.07499 0.55043-0.18828 0.79651-0.3314l0.40116 0.40116c0.11321 0.11321 0.28985 0.11713 0.40116 0.0058l0.78488-0.78488c0.11131-0.11131 0.1074-0.28795-0.0058-0.40116l-0.40116-0.40116c0.14312-0.24608 0.2564-0.51503 0.3314-0.79651h0.56395c0.16011 0 0.2907-0.12746 0.2907-0.28488v-1.1047zm-2.7907 0.55232c0 0.66754-0.54177 1.2093-1.2093 1.2093s-1.2093-0.54177-1.2093-1.2093 0.54177-1.2093 1.2093-1.2093c0.66754 0 1.2093 0.54177 1.2093 1.2093z" />
        </g>
        <g
           id="g4120"
           transform="translate(16)">
          <path
             id="path4122"
             style="opacity:.25;color:#000000"
             transform="rotate(-90)"
             d="m-77 16.969c-1.6667 0-3.0312 1.3645-3.0312 3.0312v8c0 1.6667 1.3645 3.0312 3.0312 3.0312h8c1.6667 0 3.0312-1.3645 3.0312-3.0312v-8c0-1.6667-1.3645-3.0312-3.0312-3.0312h-8z" />
          <rect
             id="rect4124"
             style="opacity:.5;color:#000000"
             transform="rotate(-90)"
             rx="2"
             ry="2"
             height="12"
             width="12"
             y="18"
             x="-79" />
          <rect
             id="rect4126"
             style="color:#000000;fill:url(#linearGradient3835)"
             transform="rotate(-90)"
             rx="2"
             ry="2"
             height="12"
             width="12"
             y="18"
             x="-78" />
          <path
             id="path4128"
             style="color:#000000;fill:url(#linearGradient3833)"
             d="m20 66c-1.108 0-2 0.892-2 2v2.625c1.4666 0.84118 3.5928 1.375 6 1.375s4.5334-0.53382 6-1.375v-2.625c0-1.108-0.892-2-2-2h-8z" />
          <path
             id="path4130"
             style="opacity:.15;display:block"
             d="m23.438 67.969c-0.43181 0-0.8125 0.37662-0.8125 0.8125v0.21875c-0.04203 0.01818-0.08448 0.04317-0.125 0.0625l-0.15625-0.15625c-0.31766-0.31766-0.84128-0.315-1.1562 0l-0.78125 0.78125c-0.31498 0.31498-0.31764 0.83857 0 1.1562l0.154 0.155c-0.01933 0.04052-0.04432 0.08297-0.0625 0.125h-0.21875c-0.43588 0-0.8125 0.38069-0.8125 0.8125v1.125c0 0.43181 0.37662 0.8125 0.8125 0.8125h0.21875c0.01818 0.04203 0.04317 0.08448 0.0625 0.125l-0.15625 0.15625c-0.31766 0.31766-0.31501 0.84128 0 1.1562l0.78125 0.78125c0.31498 0.31498 0.83857 0.31764 1.1562 0l0.157-0.156c0.04052 0.01933 0.08297 0.04432 0.125 0.0625v0.21875c0 0.43588 0.38069 0.8125 0.8125 0.8125h1.125c0.43181 0 0.8125-0.37662 0.8125-0.8125l-0.001-0.22c0.04203-0.01818 0.08448-0.04317 0.125-0.0625l0.15625 0.15625c0.31766 0.31766 0.84128 0.31501 1.1562 0l0.78125-0.78125c0.31497-0.31498 0.31764-0.83857 0-1.1562l-0.155-0.157c0.01933-0.04052 0.04432-0.08297 0.0625-0.125h0.21875c0.43588 0 0.8125-0.3807 0.8125-0.8125v-1.125c0-0.43181-0.37662-0.8125-0.8125-0.8125h-0.21875c-0.019-0.041-0.044-0.083-0.063-0.124l0.15625-0.15625c0.10363-0.10363 0.2479-0.31388 0.25-0.5625 0.0023-0.26541-0.07854-0.42231-0.25-0.59375l-0.782-0.782c-0.31498-0.31497-0.83857-0.31764-1.1562 0l-0.156 0.156c-0.041-0.019-0.083-0.044-0.125-0.062v-0.21875c-0.000003-0.43587-0.38069-0.8125-0.8125-0.8125h-1.125zm0.562 3.843c0.3731 0 0.6875 0.3144 0.6875 0.6875 0 0.37311-0.31439 0.6875-0.6875 0.6875-0.3731 0-0.6875-0.31439-0.6875-0.6875 0-0.3731 0.3144-0.6875 0.6875-0.6875z" />
          <path
             id="path4132"
             style="opacity:.3;display:block"
             d="m28 71.948c0-0.15742-0.13059-0.28489-0.2907-0.28489h-0.56395c-0.07499-0.28148-0.18828-0.55043-0.3314-0.79651l0.40116-0.40116c0.05661-0.05661 0.08659-0.12442 0.08721-0.19768 0.000626-0.07326-0.02574-0.14783-0.0814-0.20349l-0.78488-0.78488c-0.11131-0.11131-0.28795-0.1074-0.40116 0.0058l-0.40116 0.40116c-0.24608-0.14308-0.51503-0.25636-0.79651-0.33136v-0.56395c-0.000001-0.16011-0.12746-0.2907-0.28488-0.2907h-1.1047c-0.15742 0-0.28488 0.13059-0.28488 0.2907v0.56395c-0.28148 0.075-0.55043 0.18828-0.79651 0.3314l-0.40116-0.40116c-0.11322-0.11321-0.28985-0.11712-0.40116-0.0058l-0.78488 0.78488c-0.11131 0.11131-0.1074 0.28795 0.0058 0.40116l0.40114 0.40116c-0.14312 0.24608-0.2564 0.51503-0.3314 0.79651h-0.56395c-0.16011 0-0.2907 0.12747-0.2907 0.28489v1.1046c0 0.15742 0.13059 0.28488 0.2907 0.28488h0.56395c0.075 0.28148 0.18828 0.55043 0.3314 0.79651l-0.40116 0.40116c-0.11322 0.11322-0.11713 0.28985-0.0058 0.40116l0.78488 0.78488c0.11131 0.11131 0.28795 0.1074 0.40116-0.0058l0.40116-0.40116c0.24608 0.14312 0.51504 0.2564 0.79651 0.3314v0.56395c0 0.16011 0.12746 0.2907 0.28488 0.2907h1.1047c0.15742 0 0.28488-0.13059 0.28488-0.2907v-0.56395c0.28148-0.07499 0.55043-0.18828 0.79651-0.3314l0.40116 0.40116c0.11321 0.11321 0.28985 0.11713 0.40116 0.0058l0.78488-0.78488c0.11131-0.11131 0.1074-0.28795-0.0058-0.40116l-0.40116-0.40116c0.14312-0.24608 0.2564-0.51503 0.3314-0.79651h0.56395c0.16011 0 0.2907-0.12746 0.2907-0.28488v-1.1047zm-2.7907 0.55232c0 0.66754-0.54177 1.2093-1.2093 1.2093s-1.2093-0.54177-1.2093-1.2093 0.54177-1.2093 1.2093-1.2093c0.66754 0 1.2093 0.54177 1.2093 1.2093z" />
          <path
             id="path4134"
             style="display:block;fill:#fff"
             d="m28 71.448c0-0.15742-0.13059-0.28489-0.2907-0.28489h-0.56395c-0.07499-0.28148-0.18828-0.55043-0.3314-0.79651l0.40116-0.40116c0.05661-0.05661 0.08659-0.12442 0.08721-0.19768 0.000626-0.07326-0.02574-0.14783-0.0814-0.20349l-0.78488-0.78488c-0.11131-0.11131-0.28795-0.1074-0.40116 0.0058l-0.40116 0.40116c-0.246-0.143-0.515-0.256-0.797-0.331v-0.56395c-0.000001-0.16011-0.12746-0.2907-0.28488-0.2907h-1.1047c-0.15742 0-0.28488 0.13059-0.28488 0.2907v0.56395c-0.28148 0.075-0.55043 0.18828-0.79651 0.3314l-0.40116-0.40116c-0.11322-0.11321-0.28985-0.11712-0.40116-0.0058l-0.78488 0.78488c-0.11131 0.11131-0.1074 0.28795 0.0058 0.40116l0.40114 0.40116c-0.14312 0.24608-0.2564 0.51503-0.3314 0.79651h-0.56395c-0.16011 0-0.2907 0.12747-0.2907 0.28489v1.1046c0 0.15742 0.13059 0.28488 0.2907 0.28488h0.56395c0.075 0.28148 0.18828 0.55043 0.3314 0.79651l-0.40116 0.40116c-0.11322 0.11322-0.11713 0.28985-0.0058 0.40116l0.78488 0.78488c0.11131 0.11131 0.28795 0.1074 0.40116-0.0058l0.402-0.402c0.24608 0.14312 0.51504 0.2564 0.79651 0.3314v0.56395c0 0.16011 0.12746 0.2907 0.28488 0.2907h1.1047c0.15742 0 0.28488-0.13059 0.28488-0.2907v-0.56395c0.28148-0.07499 0.55043-0.18828 0.79651-0.3314l0.40116 0.40116c0.11321 0.11321 0.28985 0.11713 0.40116 0.0058l0.78488-0.78488c0.11131-0.11131 0.1074-0.28795-0.0058-0.40116l-0.40116-0.40116c0.14312-0.24608 0.2564-0.51503 0.3314-0.79651h0.56395c0.16011 0 0.2907-0.12746 0.2907-0.28488v-1.1047zm-2.7907 0.55232c0 0.66754-0.54177 1.2093-1.2093 1.2093s-1.2093-0.54177-1.2093-1.2093 0.54177-1.2093 1.2093-1.2093c0.66754 0 1.2093 0.54177 1.2093 1.2093z" />
        </g>
        <g
           id="g4140"
           transform="translate(32)">
          <path
             id="path4142"
             style="opacity:.25;color:#000000"
             transform="rotate(-90)"
             d="m-77 16.969c-1.6667 0-3.0312 1.3645-3.0312 3.0312v8c0 1.6667 1.3645 3.0312 3.0312 3.0312h8c1.6667 0 3.0312-1.3645 3.0312-3.0312v-8c0-1.6667-1.3645-3.0312-3.0312-3.0312h-8z" />
          <rect
             id="rect4144"
             style="opacity:.5;color:#000000"
             transform="rotate(-90)"
             rx="2"
             ry="2"
             height="12"
             width="12"
             y="18"
             x="-79" />
          <rect
             id="rect4146"
             style="color:#000000;fill:url(#linearGradient3839)"
             transform="rotate(-90)"
             rx="2"
             ry="2"
             height="12"
             width="12"
             y="18"
             x="-78" />
          <path
             id="path4148"
             style="color:#000000;fill:url(#linearGradient3833)"
             d="m20 66c-1.108 0-2 0.892-2 2v2.625c1.4666 0.84118 3.5928 1.375 6 1.375s4.5334-0.53382 6-1.375v-2.625c0-1.108-0.892-2-2-2h-8z" />
          <path
             id="path4150"
             style="opacity:.15;display:block"
             d="m23.438 67.969c-0.43181 0-0.8125 0.37662-0.8125 0.8125v0.21875c-0.04203 0.01818-0.08448 0.04317-0.125 0.0625l-0.15625-0.15625c-0.31766-0.31766-0.84128-0.315-1.1562 0l-0.78125 0.78125c-0.31498 0.31498-0.31764 0.83857 0 1.1562l0.154 0.155c-0.01933 0.04052-0.04432 0.08297-0.0625 0.125h-0.21875c-0.43588 0-0.8125 0.38069-0.8125 0.8125v1.125c0 0.43181 0.37662 0.8125 0.8125 0.8125h0.21875c0.01818 0.04203 0.04317 0.08448 0.0625 0.125l-0.15625 0.15625c-0.31766 0.31766-0.31501 0.84128 0 1.1562l0.78125 0.78125c0.31498 0.31498 0.83857 0.31764 1.1562 0l0.157-0.156c0.04052 0.01933 0.08297 0.04432 0.125 0.0625v0.21875c0 0.43588 0.38069 0.8125 0.8125 0.8125h1.125c0.43181 0 0.8125-0.37662 0.8125-0.8125l-0.001-0.22c0.04203-0.01818 0.08448-0.04317 0.125-0.0625l0.15625 0.15625c0.31766 0.31766 0.84128 0.31501 1.1562 0l0.78125-0.78125c0.31497-0.31498 0.31764-0.83857 0-1.1562l-0.155-0.157c0.01933-0.04052 0.04432-0.08297 0.0625-0.125h0.21875c0.43588 0 0.8125-0.3807 0.8125-0.8125v-1.125c0-0.43181-0.37662-0.8125-0.8125-0.8125h-0.21875c-0.019-0.041-0.044-0.083-0.063-0.124l0.15625-0.15625c0.10363-0.10363 0.2479-0.31388 0.25-0.5625 0.0023-0.26541-0.07854-0.42231-0.25-0.59375l-0.782-0.782c-0.31498-0.31497-0.83857-0.31764-1.1562 0l-0.156 0.156c-0.041-0.019-0.083-0.044-0.125-0.062v-0.21875c-0.000003-0.43587-0.38069-0.8125-0.8125-0.8125h-1.125zm0.562 3.843c0.3731 0 0.6875 0.3144 0.6875 0.6875 0 0.37311-0.31439 0.6875-0.6875 0.6875-0.3731 0-0.6875-0.31439-0.6875-0.6875 0-0.3731 0.3144-0.6875 0.6875-0.6875z" />
          <path
             id="path4152"
             style="opacity:.3;display:block"
             d="m28 71.948c0-0.15742-0.13059-0.28489-0.2907-0.28489h-0.56395c-0.07499-0.28148-0.18828-0.55043-0.3314-0.79651l0.40116-0.40116c0.05661-0.05661 0.08659-0.12442 0.08721-0.19768 0.000626-0.07326-0.02574-0.14783-0.0814-0.20349l-0.78488-0.78488c-0.11131-0.11131-0.28795-0.1074-0.40116 0.0058l-0.40116 0.40116c-0.24608-0.14308-0.51503-0.25636-0.79651-0.33136v-0.56395c-0.000001-0.16011-0.12746-0.2907-0.28488-0.2907h-1.1047c-0.15742 0-0.28488 0.13059-0.28488 0.2907v0.56395c-0.28148 0.075-0.55043 0.18828-0.79651 0.3314l-0.40116-0.40116c-0.11322-0.11321-0.28985-0.11712-0.40116-0.0058l-0.78488 0.78488c-0.11131 0.11131-0.1074 0.28795 0.0058 0.40116l0.40114 0.40116c-0.14312 0.24608-0.2564 0.51503-0.3314 0.79651h-0.56395c-0.16011 0-0.2907 0.12747-0.2907 0.28489v1.1046c0 0.15742 0.13059 0.28488 0.2907 0.28488h0.56395c0.075 0.28148 0.18828 0.55043 0.3314 0.79651l-0.40116 0.40116c-0.11322 0.11322-0.11713 0.28985-0.0058 0.40116l0.78488 0.78488c0.11131 0.11131 0.28795 0.1074 0.40116-0.0058l0.40116-0.40116c0.24608 0.14312 0.51504 0.2564 0.79651 0.3314v0.56395c0 0.16011 0.12746 0.2907 0.28488 0.2907h1.1047c0.15742 0 0.28488-0.13059 0.28488-0.2907v-0.56395c0.28148-0.07499 0.55043-0.18828 0.79651-0.3314l0.40116 0.40116c0.11321 0.11321 0.28985 0.11713 0.40116 0.0058l0.78488-0.78488c0.11131-0.11131 0.1074-0.28795-0.0058-0.40116l-0.40116-0.40116c0.14312-0.24608 0.2564-0.51503 0.3314-0.79651h0.56395c0.16011 0 0.2907-0.12746 0.2907-0.28488v-1.1047zm-2.7907 0.55232c0 0.66754-0.54177 1.2093-1.2093 1.2093s-1.2093-0.54177-1.2093-1.2093 0.54177-1.2093 1.2093-1.2093c0.66754 0 1.2093 0.54177 1.2093 1.2093z" />
          <path
             id="path4154"
             style="display:block;fill:#fff"
             d="m28 71.448c0-0.15742-0.13059-0.28489-0.2907-0.28489h-0.56395c-0.07499-0.28148-0.18828-0.55043-0.3314-0.79651l0.40116-0.40116c0.05661-0.05661 0.08659-0.12442 0.08721-0.19768 0.000626-0.07326-0.02574-0.14783-0.0814-0.20349l-0.78488-0.78488c-0.11131-0.11131-0.28795-0.1074-0.40116 0.0058l-0.40116 0.40116c-0.246-0.143-0.515-0.256-0.797-0.331v-0.56395c-0.000001-0.16011-0.12746-0.2907-0.28488-0.2907h-1.1047c-0.15742 0-0.28488 0.13059-0.28488 0.2907v0.56395c-0.28148 0.075-0.55043 0.18828-0.79651 0.3314l-0.40116-0.40116c-0.11322-0.11321-0.28985-0.11712-0.40116-0.0058l-0.78488 0.78488c-0.11131 0.11131-0.1074 0.28795 0.0058 0.40116l0.40114 0.40116c-0.14312 0.24608-0.2564 0.51503-0.3314 0.79651h-0.56395c-0.16011 0-0.2907 0.12747-0.2907 0.28489v1.1046c0 0.15742 0.13059 0.28488 0.2907 0.28488h0.56395c0.075 0.28148 0.18828 0.55043 0.3314 0.79651l-0.40116 0.40116c-0.11322 0.11322-0.11713 0.28985-0.0058 0.40116l0.78488 0.78488c0.11131 0.11131 0.28795 0.1074 0.40116-0.0058l0.402-0.402c0.24608 0.14312 0.51504 0.2564 0.79651 0.3314v0.56395c0 0.16011 0.12746 0.2907 0.28488 0.2907h1.1047c0.15742 0 0.28488-0.13059 0.28488-0.2907v-0.56395c0.28148-0.07499 0.55043-0.18828 0.79651-0.3314l0.40116 0.40116c0.11321 0.11321 0.28985 0.11713 0.40116 0.0058l0.78488-0.78488c0.11131-0.11131 0.1074-0.28795-0.0058-0.40116l-0.40116-0.40116c0.14312-0.24608 0.2564-0.51503 0.3314-0.79651h0.56395c0.16011 0 0.2907-0.12746 0.2907-0.28488v-1.1047zm-2.7907 0.55232c0 0.66754-0.54177 1.2093-1.2093 1.2093s-1.2093-0.54177-1.2093-1.2093 0.54177-1.2093 1.2093-1.2093c0.66754 0 1.2093 0.54177 1.2093 1.2093z" />
        </g>
        <g
           id="g4160"
           transform="translate(48)">
          <path
             id="path4162"
             style="opacity:.25;color:#000000"
             transform="rotate(-90)"
             d="m-77 16.969c-1.6667 0-3.0312 1.3645-3.0312 3.0312v8c0 1.6667 1.3645 3.0312 3.0312 3.0312h8c1.6667 0 3.0312-1.3645 3.0312-3.0312v-8c0-1.6667-1.3645-3.0312-3.0312-3.0312h-8z" />
          <rect
             id="rect4164"
             style="opacity:.5;color:#000000"
             transform="rotate(-90)"
             rx="2"
             ry="2"
             height="12"
             width="12"
             y="18"
             x="-79" />
          <rect
             id="rect4166"
             style="color:#000000;fill:url(#linearGradient3843)"
             transform="rotate(-90)"
             rx="2"
             ry="2"
             height="12"
             width="12"
             y="18"
             x="-78" />
          <path
             id="path4168"
             style="color:#000000;fill:url(#linearGradient3833)"
             d="m20 66c-1.108 0-2 0.892-2 2v2.625c1.4666 0.84118 3.5928 1.375 6 1.375s4.5334-0.53382 6-1.375v-2.625c0-1.108-0.892-2-2-2h-8z" />
          <path
             id="path4170"
             style="opacity:.15;display:block"
             d="m23.438 67.969c-0.43181 0-0.8125 0.37662-0.8125 0.8125v0.21875c-0.04203 0.01818-0.08448 0.04317-0.125 0.0625l-0.15625-0.15625c-0.31766-0.31766-0.84128-0.315-1.1562 0l-0.78125 0.78125c-0.31498 0.31498-0.31764 0.83857 0 1.1562l0.154 0.155c-0.01933 0.04052-0.04432 0.08297-0.0625 0.125h-0.21875c-0.43588 0-0.8125 0.38069-0.8125 0.8125v1.125c0 0.43181 0.37662 0.8125 0.8125 0.8125h0.21875c0.01818 0.04203 0.04317 0.08448 0.0625 0.125l-0.15625 0.15625c-0.31766 0.31766-0.31501 0.84128 0 1.1562l0.78125 0.78125c0.31498 0.31498 0.83857 0.31764 1.1562 0l0.157-0.156c0.04052 0.01933 0.08297 0.04432 0.125 0.0625v0.21875c0 0.43588 0.38069 0.8125 0.8125 0.8125h1.125c0.43181 0 0.8125-0.37662 0.8125-0.8125l-0.001-0.22c0.04203-0.01818 0.08448-0.04317 0.125-0.0625l0.15625 0.15625c0.31766 0.31766 0.84128 0.31501 1.1562 0l0.78125-0.78125c0.31497-0.31498 0.31764-0.83857 0-1.1562l-0.155-0.157c0.01933-0.04052 0.04432-0.08297 0.0625-0.125h0.21875c0.43588 0 0.8125-0.3807 0.8125-0.8125v-1.125c0-0.43181-0.37662-0.8125-0.8125-0.8125h-0.21875c-0.019-0.041-0.044-0.083-0.063-0.124l0.15625-0.15625c0.10363-0.10363 0.2479-0.31388 0.25-0.5625 0.0023-0.26541-0.07854-0.42231-0.25-0.59375l-0.782-0.782c-0.31498-0.31497-0.83857-0.31764-1.1562 0l-0.156 0.156c-0.041-0.019-0.083-0.044-0.125-0.062v-0.21875c-0.000003-0.43587-0.38069-0.8125-0.8125-0.8125h-1.125zm0.562 3.843c0.3731 0 0.6875 0.3144 0.6875 0.6875 0 0.37311-0.31439 0.6875-0.6875 0.6875-0.3731 0-0.6875-0.31439-0.6875-0.6875 0-0.3731 0.3144-0.6875 0.6875-0.6875z" />
          <path
             id="path4172"
             style="opacity:.3;display:block"
             d="m28 71.948c0-0.15742-0.13059-0.28489-0.2907-0.28489h-0.56395c-0.07499-0.28148-0.18828-0.55043-0.3314-0.79651l0.40116-0.40116c0.05661-0.05661 0.08659-0.12442 0.08721-0.19768 0.000626-0.07326-0.02574-0.14783-0.0814-0.20349l-0.78488-0.78488c-0.11131-0.11131-0.28795-0.1074-0.40116 0.0058l-0.40116 0.40116c-0.24608-0.14308-0.51503-0.25636-0.79651-0.33136v-0.56395c-0.000001-0.16011-0.12746-0.2907-0.28488-0.2907h-1.1047c-0.15742 0-0.28488 0.13059-0.28488 0.2907v0.56395c-0.28148 0.075-0.55043 0.18828-0.79651 0.3314l-0.40116-0.40116c-0.11322-0.11321-0.28985-0.11712-0.40116-0.0058l-0.78488 0.78488c-0.11131 0.11131-0.1074 0.28795 0.0058 0.40116l0.40114 0.40116c-0.14312 0.24608-0.2564 0.51503-0.3314 0.79651h-0.56395c-0.16011 0-0.2907 0.12747-0.2907 0.28489v1.1046c0 0.15742 0.13059 0.28488 0.2907 0.28488h0.56395c0.075 0.28148 0.18828 0.55043 0.3314 0.79651l-0.40116 0.40116c-0.11322 0.11322-0.11713 0.28985-0.0058 0.40116l0.78488 0.78488c0.11131 0.11131 0.28795 0.1074 0.40116-0.0058l0.40116-0.40116c0.24608 0.14312 0.51504 0.2564 0.79651 0.3314v0.56395c0 0.16011 0.12746 0.2907 0.28488 0.2907h1.1047c0.15742 0 0.28488-0.13059 0.28488-0.2907v-0.56395c0.28148-0.07499 0.55043-0.18828 0.79651-0.3314l0.40116 0.40116c0.11321 0.11321 0.28985 0.11713 0.40116 0.0058l0.78488-0.78488c0.11131-0.11131 0.1074-0.28795-0.0058-0.40116l-0.40116-0.40116c0.14312-0.24608 0.2564-0.51503 0.3314-0.79651h0.56395c0.16011 0 0.2907-0.12746 0.2907-0.28488v-1.1047zm-2.7907 0.55232c0 0.66754-0.54177 1.2093-1.2093 1.2093s-1.2093-0.54177-1.2093-1.2093 0.54177-1.2093 1.2093-1.2093c0.66754 0 1.2093 0.54177 1.2093 1.2093z" />
          <path
             id="path4174"
             style="display:block;fill:#fff"
             d="m28 71.448c0-0.15742-0.13059-0.28489-0.2907-0.28489h-0.56395c-0.07499-0.28148-0.18828-0.55043-0.3314-0.79651l0.40116-0.40116c0.05661-0.05661 0.08659-0.12442 0.08721-0.19768 0.000626-0.07326-0.02574-0.14783-0.0814-0.20349l-0.78488-0.78488c-0.11131-0.11131-0.28795-0.1074-0.40116 0.0058l-0.40116 0.40116c-0.246-0.143-0.515-0.256-0.797-0.331v-0.56395c-0.000001-0.16011-0.12746-0.2907-0.28488-0.2907h-1.1047c-0.15742 0-0.28488 0.13059-0.28488 0.2907v0.56395c-0.28148 0.075-0.55043 0.18828-0.79651 0.3314l-0.40116-0.40116c-0.11322-0.11321-0.28985-0.11712-0.40116-0.0058l-0.78488 0.78488c-0.11131 0.11131-0.1074 0.28795 0.0058 0.40116l0.40114 0.40116c-0.14312 0.24608-0.2564 0.51503-0.3314 0.79651h-0.56395c-0.16011 0-0.2907 0.12747-0.2907 0.28489v1.1046c0 0.15742 0.13059 0.28488 0.2907 0.28488h0.56395c0.075 0.28148 0.18828 0.55043 0.3314 0.79651l-0.40116 0.40116c-0.11322 0.11322-0.11713 0.28985-0.0058 0.40116l0.78488 0.78488c0.11131 0.11131 0.28795 0.1074 0.40116-0.0058l0.402-0.402c0.24608 0.14312 0.51504 0.2564 0.79651 0.3314v0.56395c0 0.16011 0.12746 0.2907 0.28488 0.2907h1.1047c0.15742 0 0.28488-0.13059 0.28488-0.2907v-0.56395c0.28148-0.07499 0.55043-0.18828 0.79651-0.3314l0.40116 0.40116c0.11321 0.11321 0.28985 0.11713 0.40116 0.0058l0.78488-0.78488c0.11131-0.11131 0.1074-0.28795-0.0058-0.40116l-0.40116-0.40116c0.14312-0.24608 0.2564-0.51503 0.3314-0.79651h0.56395c0.16011 0 0.2907-0.12746 0.2907-0.28488v-1.1047zm-2.7907 0.55232c0 0.66754-0.54177 1.2093-1.2093 1.2093s-1.2093-0.54177-1.2093-1.2093 0.54177-1.2093 1.2093-1.2093c0.66754 0 1.2093 0.54177 1.2093 1.2093z" />
        </g>
        <g
           id="g4198"
           transform="translate(0,-48)">
          <path
             id="path4200"
             style="opacity:.25;color:#000000"
             transform="rotate(-90)"
             d="m-77 16.969c-1.6667 0-3.0312 1.3645-3.0312 3.0312v8c0 1.6667 1.3645 3.0312 3.0312 3.0312h8c1.6667 0 3.0312-1.3645 3.0312-3.0312v-8c0-1.6667-1.3645-3.0312-3.0312-3.0312h-8z" />
          <rect
             id="rect4202"
             style="opacity:.5;color:#000000"
             transform="rotate(-90)"
             rx="2"
             ry="2"
             height="12"
             width="12"
             y="18"
             x="-79" />
          <rect
             id="rect4204"
             style="color:#000000;fill:url(#linearGradient3847)"
             transform="rotate(-90)"
             rx="2"
             ry="2"
             height="12"
             width="12"
             y="18"
             x="-78" />
          <path
             id="path4206"
             style="color:#000000;fill:url(#linearGradient3833)"
             d="m20 66c-1.108 0-2 0.892-2 2v2.625c1.4666 0.84118 3.5928 1.375 6 1.375s4.5334-0.53382 6-1.375v-2.625c0-1.108-0.892-2-2-2h-8z" />
          <path
             id="path4208"
             style="opacity:.15;display:block"
             d="m23.438 67.969c-0.43181 0-0.8125 0.37662-0.8125 0.8125v0.21875c-0.04203 0.01818-0.08448 0.04317-0.125 0.0625l-0.15625-0.15625c-0.31766-0.31766-0.84128-0.315-1.1562 0l-0.78125 0.78125c-0.31498 0.31498-0.31764 0.83857 0 1.1562l0.154 0.155c-0.01933 0.04052-0.04432 0.08297-0.0625 0.125h-0.21875c-0.43588 0-0.8125 0.38069-0.8125 0.8125v1.125c0 0.43181 0.37662 0.8125 0.8125 0.8125h0.21875c0.01818 0.04203 0.04317 0.08448 0.0625 0.125l-0.15625 0.15625c-0.31766 0.31766-0.31501 0.84128 0 1.1562l0.78125 0.78125c0.31498 0.31498 0.83857 0.31764 1.1562 0l0.157-0.156c0.04052 0.01933 0.08297 0.04432 0.125 0.0625v0.21875c0 0.43588 0.38069 0.8125 0.8125 0.8125h1.125c0.43181 0 0.8125-0.37662 0.8125-0.8125l-0.001-0.22c0.04203-0.01818 0.08448-0.04317 0.125-0.0625l0.15625 0.15625c0.31766 0.31766 0.84128 0.31501 1.1562 0l0.78125-0.78125c0.31497-0.31498 0.31764-0.83857 0-1.1562l-0.155-0.157c0.01933-0.04052 0.04432-0.08297 0.0625-0.125h0.21875c0.43588 0 0.8125-0.3807 0.8125-0.8125v-1.125c0-0.43181-0.37662-0.8125-0.8125-0.8125h-0.21875c-0.019-0.041-0.044-0.083-0.063-0.124l0.15625-0.15625c0.10363-0.10363 0.2479-0.31388 0.25-0.5625 0.0023-0.26541-0.07854-0.42231-0.25-0.59375l-0.782-0.782c-0.31498-0.31497-0.83857-0.31764-1.1562 0l-0.156 0.156c-0.041-0.019-0.083-0.044-0.125-0.062v-0.21875c-0.000003-0.43587-0.38069-0.8125-0.8125-0.8125h-1.125zm0.562 3.843c0.3731 0 0.6875 0.3144 0.6875 0.6875 0 0.37311-0.31439 0.6875-0.6875 0.6875-0.3731 0-0.6875-0.31439-0.6875-0.6875 0-0.3731 0.3144-0.6875 0.6875-0.6875z" />
          <path
             id="path4210"
             style="opacity:.3;display:block"
             d="m28 71.948c0-0.15742-0.13059-0.28489-0.2907-0.28489h-0.56395c-0.07499-0.28148-0.18828-0.55043-0.3314-0.79651l0.40116-0.40116c0.05661-0.05661 0.08659-0.12442 0.08721-0.19768 0.000626-0.07326-0.02574-0.14783-0.0814-0.20349l-0.78488-0.78488c-0.11131-0.11131-0.28795-0.1074-0.40116 0.0058l-0.40116 0.40116c-0.24608-0.14308-0.51503-0.25636-0.79651-0.33136v-0.56395c-0.000001-0.16011-0.12746-0.2907-0.28488-0.2907h-1.1047c-0.15742 0-0.28488 0.13059-0.28488 0.2907v0.56395c-0.28148 0.075-0.55043 0.18828-0.79651 0.3314l-0.40116-0.40116c-0.11322-0.11321-0.28985-0.11712-0.40116-0.0058l-0.78488 0.78488c-0.11131 0.11131-0.1074 0.28795 0.0058 0.40116l0.40114 0.40116c-0.14312 0.24608-0.2564 0.51503-0.3314 0.79651h-0.56395c-0.16011 0-0.2907 0.12747-0.2907 0.28489v1.1046c0 0.15742 0.13059 0.28488 0.2907 0.28488h0.56395c0.075 0.28148 0.18828 0.55043 0.3314 0.79651l-0.40116 0.40116c-0.11322 0.11322-0.11713 0.28985-0.0058 0.40116l0.78488 0.78488c0.11131 0.11131 0.28795 0.1074 0.40116-0.0058l0.40116-0.40116c0.24608 0.14312 0.51504 0.2564 0.79651 0.3314v0.56395c0 0.16011 0.12746 0.2907 0.28488 0.2907h1.1047c0.15742 0 0.28488-0.13059 0.28488-0.2907v-0.56395c0.28148-0.07499 0.55043-0.18828 0.79651-0.3314l0.40116 0.40116c0.11321 0.11321 0.28985 0.11713 0.40116 0.0058l0.78488-0.78488c0.11131-0.11131 0.1074-0.28795-0.0058-0.40116l-0.40116-0.40116c0.14312-0.24608 0.2564-0.51503 0.3314-0.79651h0.56395c0.16011 0 0.2907-0.12746 0.2907-0.28488v-1.1047zm-2.7907 0.55232c0 0.66754-0.54177 1.2093-1.2093 1.2093s-1.2093-0.54177-1.2093-1.2093 0.54177-1.2093 1.2093-1.2093c0.66754 0 1.2093 0.54177 1.2093 1.2093z" />
          <path
             id="path4212"
             style="display:block;fill:#ececec"
             d="m28 71.448c0-0.15742-0.13059-0.28489-0.2907-0.28489h-0.56395c-0.07499-0.28148-0.18828-0.55043-0.3314-0.79651l0.40116-0.40116c0.05661-0.05661 0.08659-0.12442 0.08721-0.19768 0.000626-0.07326-0.02574-0.14783-0.0814-0.20349l-0.78488-0.78488c-0.11131-0.11131-0.28795-0.1074-0.40116 0.0058l-0.40116 0.40116c-0.246-0.143-0.515-0.256-0.797-0.331v-0.56395c-0.000001-0.16011-0.12746-0.2907-0.28488-0.2907h-1.1047c-0.15742 0-0.28488 0.13059-0.28488 0.2907v0.56395c-0.28148 0.075-0.55043 0.18828-0.79651 0.3314l-0.40116-0.40116c-0.11322-0.11321-0.28985-0.11712-0.40116-0.0058l-0.78488 0.78488c-0.11131 0.11131-0.1074 0.28795 0.0058 0.40116l0.40114 0.40116c-0.14312 0.24608-0.2564 0.51503-0.3314 0.79651h-0.56395c-0.16011 0-0.2907 0.12747-0.2907 0.28489v1.1046c0 0.15742 0.13059 0.28488 0.2907 0.28488h0.56395c0.075 0.28148 0.18828 0.55043 0.3314 0.79651l-0.40116 0.40116c-0.11322 0.11322-0.11713 0.28985-0.0058 0.40116l0.78488 0.78488c0.11131 0.11131 0.28795 0.1074 0.40116-0.0058l0.402-0.402c0.24608 0.14312 0.51504 0.2564 0.79651 0.3314v0.56395c0 0.16011 0.12746 0.2907 0.28488 0.2907h1.1047c0.15742 0 0.28488-0.13059 0.28488-0.2907v-0.56395c0.28148-0.07499 0.55043-0.18828 0.79651-0.3314l0.40116 0.40116c0.11321 0.11321 0.28985 0.11713 0.40116 0.0058l0.78488-0.78488c0.11131-0.11131 0.1074-0.28795-0.0058-0.40116l-0.40116-0.40116c0.14312-0.24608 0.2564-0.51503 0.3314-0.79651h0.56395c0.16011 0 0.2907-0.12746 0.2907-0.28488v-1.1047zm-2.7907 0.55232c0 0.66754-0.54177 1.2093-1.2093 1.2093s-1.2093-0.54177-1.2093-1.2093 0.54177-1.2093 1.2093-1.2093c0.66754 0 1.2093 0.54177 1.2093 1.2093z" />
        </g>
        <g
           id="g4214"
           transform="translate(16,-48)">
          <path
             id="path4216"
             style="opacity:.25;color:#000000"
             transform="rotate(-90)"
             d="m-77 16.969c-1.6667 0-3.0312 1.3645-3.0312 3.0312v8c0 1.6667 1.3645 3.0312 3.0312 3.0312h8c1.6667 0 3.0312-1.3645 3.0312-3.0312v-8c0-1.6667-1.3645-3.0312-3.0312-3.0312h-8z" />
          <rect
             id="rect4218"
             style="opacity:.5;color:#000000"
             transform="rotate(-90)"
             rx="2"
             ry="2"
             height="12"
             width="12"
             y="18"
             x="-79" />
          <rect
             id="rect4220"
             style="color:#000000;fill:url(#linearGradient3851)"
             transform="rotate(-90)"
             rx="2"
             ry="2"
             height="12"
             width="12"
             y="18"
             x="-78" />
          <path
             id="path4222"
             style="color:#000000;fill:url(#linearGradient3833)"
             d="m20 66c-1.108 0-2 0.892-2 2v2.625c1.4666 0.84118 3.5928 1.375 6 1.375s4.5334-0.53382 6-1.375v-2.625c0-1.108-0.892-2-2-2h-8z" />
          <path
             id="path4224"
             style="opacity:.15;display:block"
             d="m23.438 67.969c-0.43181 0-0.8125 0.37662-0.8125 0.8125v0.21875c-0.04203 0.01818-0.08448 0.04317-0.125 0.0625l-0.15625-0.15625c-0.31766-0.31766-0.84128-0.315-1.1562 0l-0.78125 0.78125c-0.31498 0.31498-0.31764 0.83857 0 1.1562l0.154 0.155c-0.01933 0.04052-0.04432 0.08297-0.0625 0.125h-0.21875c-0.43588 0-0.8125 0.38069-0.8125 0.8125v1.125c0 0.43181 0.37662 0.8125 0.8125 0.8125h0.21875c0.01818 0.04203 0.04317 0.08448 0.0625 0.125l-0.15625 0.15625c-0.31766 0.31766-0.31501 0.84128 0 1.1562l0.78125 0.78125c0.31498 0.31498 0.83857 0.31764 1.1562 0l0.157-0.156c0.04052 0.01933 0.08297 0.04432 0.125 0.0625v0.21875c0 0.43588 0.38069 0.8125 0.8125 0.8125h1.125c0.43181 0 0.8125-0.37662 0.8125-0.8125l-0.001-0.22c0.04203-0.01818 0.08448-0.04317 0.125-0.0625l0.15625 0.15625c0.31766 0.31766 0.84128 0.31501 1.1562 0l0.78125-0.78125c0.31497-0.31498 0.31764-0.83857 0-1.1562l-0.155-0.157c0.01933-0.04052 0.04432-0.08297 0.0625-0.125h0.21875c0.43588 0 0.8125-0.3807 0.8125-0.8125v-1.125c0-0.43181-0.37662-0.8125-0.8125-0.8125h-0.21875c-0.019-0.041-0.044-0.083-0.063-0.124l0.15625-0.15625c0.10363-0.10363 0.2479-0.31388 0.25-0.5625 0.0023-0.26541-0.07854-0.42231-0.25-0.59375l-0.782-0.782c-0.31498-0.31497-0.83857-0.31764-1.1562 0l-0.156 0.156c-0.041-0.019-0.083-0.044-0.125-0.062v-0.21875c-0.000003-0.43587-0.38069-0.8125-0.8125-0.8125h-1.125zm0.562 3.843c0.3731 0 0.6875 0.3144 0.6875 0.6875 0 0.37311-0.31439 0.6875-0.6875 0.6875-0.3731 0-0.6875-0.31439-0.6875-0.6875 0-0.3731 0.3144-0.6875 0.6875-0.6875z" />
          <path
             id="path4226"
             style="opacity:.3;display:block"
             d="m28 71.948c0-0.15742-0.13059-0.28489-0.2907-0.28489h-0.56395c-0.07499-0.28148-0.18828-0.55043-0.3314-0.79651l0.40116-0.40116c0.05661-0.05661 0.08659-0.12442 0.08721-0.19768 0.000626-0.07326-0.02574-0.14783-0.0814-0.20349l-0.78488-0.78488c-0.11131-0.11131-0.28795-0.1074-0.40116 0.0058l-0.40116 0.40116c-0.24608-0.14308-0.51503-0.25636-0.79651-0.33136v-0.56395c-0.000001-0.16011-0.12746-0.2907-0.28488-0.2907h-1.1047c-0.15742 0-0.28488 0.13059-0.28488 0.2907v0.56395c-0.28148 0.075-0.55043 0.18828-0.79651 0.3314l-0.40116-0.40116c-0.11322-0.11321-0.28985-0.11712-0.40116-0.0058l-0.78488 0.78488c-0.11131 0.11131-0.1074 0.28795 0.0058 0.40116l0.40114 0.40116c-0.14312 0.24608-0.2564 0.51503-0.3314 0.79651h-0.56395c-0.16011 0-0.2907 0.12747-0.2907 0.28489v1.1046c0 0.15742 0.13059 0.28488 0.2907 0.28488h0.56395c0.075 0.28148 0.18828 0.55043 0.3314 0.79651l-0.40116 0.40116c-0.11322 0.11322-0.11713 0.28985-0.0058 0.40116l0.78488 0.78488c0.11131 0.11131 0.28795 0.1074 0.40116-0.0058l0.40116-0.40116c0.24608 0.14312 0.51504 0.2564 0.79651 0.3314v0.56395c0 0.16011 0.12746 0.2907 0.28488 0.2907h1.1047c0.15742 0 0.28488-0.13059 0.28488-0.2907v-0.56395c0.28148-0.07499 0.55043-0.18828 0.79651-0.3314l0.40116 0.40116c0.11321 0.11321 0.28985 0.11713 0.40116 0.0058l0.78488-0.78488c0.11131-0.11131 0.1074-0.28795-0.0058-0.40116l-0.40116-0.40116c0.14312-0.24608 0.2564-0.51503 0.3314-0.79651h0.56395c0.16011 0 0.2907-0.12746 0.2907-0.28488v-1.1047zm-2.7907 0.55232c0 0.66754-0.54177 1.2093-1.2093 1.2093s-1.2093-0.54177-1.2093-1.2093 0.54177-1.2093 1.2093-1.2093c0.66754 0 1.2093 0.54177 1.2093 1.2093z" />
          <path
             id="path4228"
             style="display:block;fill:#fff"
             d="m28 71.448c0-0.15742-0.13059-0.28489-0.2907-0.28489h-0.56395c-0.07499-0.28148-0.18828-0.55043-0.3314-0.79651l0.40116-0.40116c0.05661-0.05661 0.08659-0.12442 0.08721-0.19768 0.000626-0.07326-0.02574-0.14783-0.0814-0.20349l-0.78488-0.78488c-0.11131-0.11131-0.28795-0.1074-0.40116 0.0058l-0.40116 0.40116c-0.246-0.143-0.515-0.256-0.797-0.331v-0.56395c-0.000001-0.16011-0.12746-0.2907-0.28488-0.2907h-1.1047c-0.15742 0-0.28488 0.13059-0.28488 0.2907v0.56395c-0.28148 0.075-0.55043 0.18828-0.79651 0.3314l-0.40116-0.40116c-0.11322-0.11321-0.28985-0.11712-0.40116-0.0058l-0.78488 0.78488c-0.11131 0.11131-0.1074 0.28795 0.0058 0.40116l0.40114 0.40116c-0.14312 0.24608-0.2564 0.51503-0.3314 0.79651h-0.56395c-0.16011 0-0.2907 0.12747-0.2907 0.28489v1.1046c0 0.15742 0.13059 0.28488 0.2907 0.28488h0.56395c0.075 0.28148 0.18828 0.55043 0.3314 0.79651l-0.40116 0.40116c-0.11322 0.11322-0.11713 0.28985-0.0058 0.40116l0.78488 0.78488c0.11131 0.11131 0.28795 0.1074 0.40116-0.0058l0.402-0.402c0.24608 0.14312 0.51504 0.2564 0.79651 0.3314v0.56395c0 0.16011 0.12746 0.2907 0.28488 0.2907h1.1047c0.15742 0 0.28488-0.13059 0.28488-0.2907v-0.56395c0.28148-0.07499 0.55043-0.18828 0.79651-0.3314l0.40116 0.40116c0.11321 0.11321 0.28985 0.11713 0.40116 0.0058l0.78488-0.78488c0.11131-0.11131 0.1074-0.28795-0.0058-0.40116l-0.40116-0.40116c0.14312-0.24608 0.2564-0.51503 0.3314-0.79651h0.56395c0.16011 0 0.2907-0.12746 0.2907-0.28488v-1.1047zm-2.7907 0.55232c0 0.66754-0.54177 1.2093-1.2093 1.2093s-1.2093-0.54177-1.2093-1.2093 0.54177-1.2093 1.2093-1.2093c0.66754 0 1.2093 0.54177 1.2093 1.2093z" />
        </g>
        <g
           id="g4230"
           transform="translate(32,-48)">
          <path
             id="path4232"
             style="opacity:.25;color:#000000"
             transform="rotate(-90)"
             d="m-77 16.969c-1.6667 0-3.0312 1.3645-3.0312 3.0312v8c0 1.6667 1.3645 3.0312 3.0312 3.0312h8c1.6667 0 3.0312-1.3645 3.0312-3.0312v-8c0-1.6667-1.3645-3.0312-3.0312-3.0312h-8z" />
          <rect
             id="rect4234"
             style="opacity:.5;color:#000000"
             transform="rotate(-90)"
             rx="2"
             ry="2"
             height="12"
             width="12"
             y="18"
             x="-79" />
          <rect
             id="rect4236"
             style="color:#000000;fill:url(#linearGradient3855)"
             transform="rotate(-90)"
             rx="2"
             ry="2"
             height="12"
             width="12"
             y="18"
             x="-78" />
          <path
             id="path4238"
             style="color:#000000;fill:url(#linearGradient3833)"
             d="m20 66c-1.108 0-2 0.892-2 2v2.625c1.4666 0.84118 3.5928 1.375 6 1.375s4.5334-0.53382 6-1.375v-2.625c0-1.108-0.892-2-2-2h-8z" />
          <path
             id="path4240"
             style="opacity:.15;display:block"
             d="m23.438 67.969c-0.43181 0-0.8125 0.37662-0.8125 0.8125v0.21875c-0.04203 0.01818-0.08448 0.04317-0.125 0.0625l-0.15625-0.15625c-0.31766-0.31766-0.84128-0.315-1.1562 0l-0.78125 0.78125c-0.31498 0.31498-0.31764 0.83857 0 1.1562l0.154 0.155c-0.01933 0.04052-0.04432 0.08297-0.0625 0.125h-0.21875c-0.43588 0-0.8125 0.38069-0.8125 0.8125v1.125c0 0.43181 0.37662 0.8125 0.8125 0.8125h0.21875c0.01818 0.04203 0.04317 0.08448 0.0625 0.125l-0.15625 0.15625c-0.31766 0.31766-0.31501 0.84128 0 1.1562l0.78125 0.78125c0.31498 0.31498 0.83857 0.31764 1.1562 0l0.157-0.156c0.04052 0.01933 0.08297 0.04432 0.125 0.0625v0.21875c0 0.43588 0.38069 0.8125 0.8125 0.8125h1.125c0.43181 0 0.8125-0.37662 0.8125-0.8125l-0.001-0.22c0.04203-0.01818 0.08448-0.04317 0.125-0.0625l0.15625 0.15625c0.31766 0.31766 0.84128 0.31501 1.1562 0l0.78125-0.78125c0.31497-0.31498 0.31764-0.83857 0-1.1562l-0.155-0.157c0.01933-0.04052 0.04432-0.08297 0.0625-0.125h0.21875c0.43588 0 0.8125-0.3807 0.8125-0.8125v-1.125c0-0.43181-0.37662-0.8125-0.8125-0.8125h-0.21875c-0.019-0.041-0.044-0.083-0.063-0.124l0.15625-0.15625c0.10363-0.10363 0.2479-0.31388 0.25-0.5625 0.0023-0.26541-0.07854-0.42231-0.25-0.59375l-0.782-0.782c-0.31498-0.31497-0.83857-0.31764-1.1562 0l-0.156 0.156c-0.041-0.019-0.083-0.044-0.125-0.062v-0.21875c-0.000003-0.43587-0.38069-0.8125-0.8125-0.8125h-1.125zm0.562 3.843c0.3731 0 0.6875 0.3144 0.6875 0.6875 0 0.37311-0.31439 0.6875-0.6875 0.6875-0.3731 0-0.6875-0.31439-0.6875-0.6875 0-0.3731 0.3144-0.6875 0.6875-0.6875z" />
          <path
             id="path4242"
             style="opacity:.3;display:block"
             d="m28 71.948c0-0.15742-0.13059-0.28489-0.2907-0.28489h-0.56395c-0.07499-0.28148-0.18828-0.55043-0.3314-0.79651l0.40116-0.40116c0.05661-0.05661 0.08659-0.12442 0.08721-0.19768 0.000626-0.07326-0.02574-0.14783-0.0814-0.20349l-0.78488-0.78488c-0.11131-0.11131-0.28795-0.1074-0.40116 0.0058l-0.40116 0.40116c-0.24608-0.14308-0.51503-0.25636-0.79651-0.33136v-0.56395c-0.000001-0.16011-0.12746-0.2907-0.28488-0.2907h-1.1047c-0.15742 0-0.28488 0.13059-0.28488 0.2907v0.56395c-0.28148 0.075-0.55043 0.18828-0.79651 0.3314l-0.40116-0.40116c-0.11322-0.11321-0.28985-0.11712-0.40116-0.0058l-0.78488 0.78488c-0.11131 0.11131-0.1074 0.28795 0.0058 0.40116l0.40114 0.40116c-0.14312 0.24608-0.2564 0.51503-0.3314 0.79651h-0.56395c-0.16011 0-0.2907 0.12747-0.2907 0.28489v1.1046c0 0.15742 0.13059 0.28488 0.2907 0.28488h0.56395c0.075 0.28148 0.18828 0.55043 0.3314 0.79651l-0.40116 0.40116c-0.11322 0.11322-0.11713 0.28985-0.0058 0.40116l0.78488 0.78488c0.11131 0.11131 0.28795 0.1074 0.40116-0.0058l0.40116-0.40116c0.24608 0.14312 0.51504 0.2564 0.79651 0.3314v0.56395c0 0.16011 0.12746 0.2907 0.28488 0.2907h1.1047c0.15742 0 0.28488-0.13059 0.28488-0.2907v-0.56395c0.28148-0.07499 0.55043-0.18828 0.79651-0.3314l0.40116 0.40116c0.11321 0.11321 0.28985 0.11713 0.40116 0.0058l0.78488-0.78488c0.11131-0.11131 0.1074-0.28795-0.0058-0.40116l-0.40116-0.40116c0.14312-0.24608 0.2564-0.51503 0.3314-0.79651h0.56395c0.16011 0 0.2907-0.12746 0.2907-0.28488v-1.1047zm-2.7907 0.55232c0 0.66754-0.54177 1.2093-1.2093 1.2093s-1.2093-0.54177-1.2093-1.2093 0.54177-1.2093 1.2093-1.2093c0.66754 0 1.2093 0.54177 1.2093 1.2093z" />
          <path
             id="path4244"
             style="display:block;fill:#fff"
             d="m28 71.448c0-0.15742-0.13059-0.28489-0.2907-0.28489h-0.56395c-0.07499-0.28148-0.18828-0.55043-0.3314-0.79651l0.40116-0.40116c0.05661-0.05661 0.08659-0.12442 0.08721-0.19768 0.000626-0.07326-0.02574-0.14783-0.0814-0.20349l-0.78488-0.78488c-0.11131-0.11131-0.28795-0.1074-0.40116 0.0058l-0.40116 0.40116c-0.246-0.143-0.515-0.256-0.797-0.331v-0.56395c-0.000001-0.16011-0.12746-0.2907-0.28488-0.2907h-1.1047c-0.15742 0-0.28488 0.13059-0.28488 0.2907v0.56395c-0.28148 0.075-0.55043 0.18828-0.79651 0.3314l-0.40116-0.40116c-0.11322-0.11321-0.28985-0.11712-0.40116-0.0058l-0.78488 0.78488c-0.11131 0.11131-0.1074 0.28795 0.0058 0.40116l0.40114 0.40116c-0.14312 0.24608-0.2564 0.51503-0.3314 0.79651h-0.56395c-0.16011 0-0.2907 0.12747-0.2907 0.28489v1.1046c0 0.15742 0.13059 0.28488 0.2907 0.28488h0.56395c0.075 0.28148 0.18828 0.55043 0.3314 0.79651l-0.40116 0.40116c-0.11322 0.11322-0.11713 0.28985-0.0058 0.40116l0.78488 0.78488c0.11131 0.11131 0.28795 0.1074 0.40116-0.0058l0.402-0.402c0.24608 0.14312 0.51504 0.2564 0.79651 0.3314v0.56395c0 0.16011 0.12746 0.2907 0.28488 0.2907h1.1047c0.15742 0 0.28488-0.13059 0.28488-0.2907v-0.56395c0.28148-0.07499 0.55043-0.18828 0.79651-0.3314l0.40116 0.40116c0.11321 0.11321 0.28985 0.11713 0.40116 0.0058l0.78488-0.78488c0.11131-0.11131 0.1074-0.28795-0.0058-0.40116l-0.40116-0.40116c0.14312-0.24608 0.2564-0.51503 0.3314-0.79651h0.56395c0.16011 0 0.2907-0.12746 0.2907-0.28488v-1.1047zm-2.7907 0.55232c0 0.66754-0.54177 1.2093-1.2093 1.2093s-1.2093-0.54177-1.2093-1.2093 0.54177-1.2093 1.2093-1.2093c0.66754 0 1.2093 0.54177 1.2093 1.2093z" />
        </g>
        <g
           id="g4246"
           transform="translate(48,-48)">
          <path
             id="path4248"
             style="opacity:.25;color:#000000"
             transform="rotate(-90)"
             d="m-77 16.969c-1.6667 0-3.0312 1.3645-3.0312 3.0312v8c0 1.6667 1.3645 3.0312 3.0312 3.0312h8c1.6667 0 3.0312-1.3645 3.0312-3.0312v-8c0-1.6667-1.3645-3.0312-3.0312-3.0312h-8z" />
          <rect
             id="rect4250"
             style="opacity:.5;color:#000000"
             transform="rotate(-90)"
             rx="2"
             ry="2"
             height="12"
             width="12"
             y="18"
             x="-79" />
          <rect
             id="rect4252"
             style="color:#000000;fill:url(#linearGradient3831)"
             transform="rotate(-90)"
             rx="2"
             ry="2"
             height="12"
             width="12"
             y="18"
             x="-78" />
          <path
             id="path4254"
             style="color:#000000;fill:url(#linearGradient3833)"
             d="m20 66c-1.108 0-2 0.892-2 2v2.625c1.4666 0.84118 3.5928 1.375 6 1.375s4.5334-0.53382 6-1.375v-2.625c0-1.108-0.892-2-2-2h-8z" />
          <path
             id="path4256"
             style="opacity:.15;display:block"
             d="m23.438 67.969c-0.43181 0-0.8125 0.37662-0.8125 0.8125v0.21875c-0.04203 0.01818-0.08448 0.04317-0.125 0.0625l-0.15625-0.15625c-0.31766-0.31766-0.84128-0.315-1.1562 0l-0.78125 0.78125c-0.31498 0.31498-0.31764 0.83857 0 1.1562l0.154 0.155c-0.01933 0.04052-0.04432 0.08297-0.0625 0.125h-0.21875c-0.43588 0-0.8125 0.38069-0.8125 0.8125v1.125c0 0.43181 0.37662 0.8125 0.8125 0.8125h0.21875c0.01818 0.04203 0.04317 0.08448 0.0625 0.125l-0.15625 0.15625c-0.31766 0.31766-0.31501 0.84128 0 1.1562l0.78125 0.78125c0.31498 0.31498 0.83857 0.31764 1.1562 0l0.157-0.156c0.04052 0.01933 0.08297 0.04432 0.125 0.0625v0.21875c0 0.43588 0.38069 0.8125 0.8125 0.8125h1.125c0.43181 0 0.8125-0.37662 0.8125-0.8125l-0.001-0.22c0.04203-0.01818 0.08448-0.04317 0.125-0.0625l0.15625 0.15625c0.31766 0.31766 0.84128 0.31501 1.1562 0l0.78125-0.78125c0.31497-0.31498 0.31764-0.83857 0-1.1562l-0.155-0.157c0.01933-0.04052 0.04432-0.08297 0.0625-0.125h0.21875c0.43588 0 0.8125-0.3807 0.8125-0.8125v-1.125c0-0.43181-0.37662-0.8125-0.8125-0.8125h-0.21875c-0.019-0.041-0.044-0.083-0.063-0.124l0.15625-0.15625c0.10363-0.10363 0.2479-0.31388 0.25-0.5625 0.0023-0.26541-0.07854-0.42231-0.25-0.59375l-0.782-0.782c-0.31498-0.31497-0.83857-0.31764-1.1562 0l-0.156 0.156c-0.041-0.019-0.083-0.044-0.125-0.062v-0.21875c-0.000003-0.43587-0.38069-0.8125-0.8125-0.8125h-1.125zm0.562 3.843c0.3731 0 0.6875 0.3144 0.6875 0.6875 0 0.37311-0.31439 0.6875-0.6875 0.6875-0.3731 0-0.6875-0.31439-0.6875-0.6875 0-0.3731 0.3144-0.6875 0.6875-0.6875z" />
          <path
             id="path4258"
             style="opacity:.3;display:block"
             d="m28 71.948c0-0.15742-0.13059-0.28489-0.2907-0.28489h-0.56395c-0.07499-0.28148-0.18828-0.55043-0.3314-0.79651l0.40116-0.40116c0.05661-0.05661 0.08659-0.12442 0.08721-0.19768 0.000626-0.07326-0.02574-0.14783-0.0814-0.20349l-0.78488-0.78488c-0.11131-0.11131-0.28795-0.1074-0.40116 0.0058l-0.40116 0.40116c-0.24608-0.14308-0.51503-0.25636-0.79651-0.33136v-0.56395c-0.000001-0.16011-0.12746-0.2907-0.28488-0.2907h-1.1047c-0.15742 0-0.28488 0.13059-0.28488 0.2907v0.56395c-0.28148 0.075-0.55043 0.18828-0.79651 0.3314l-0.40116-0.40116c-0.11322-0.11321-0.28985-0.11712-0.40116-0.0058l-0.78488 0.78488c-0.11131 0.11131-0.1074 0.28795 0.0058 0.40116l0.40114 0.40116c-0.14312 0.24608-0.2564 0.51503-0.3314 0.79651h-0.56395c-0.16011 0-0.2907 0.12747-0.2907 0.28489v1.1046c0 0.15742 0.13059 0.28488 0.2907 0.28488h0.56395c0.075 0.28148 0.18828 0.55043 0.3314 0.79651l-0.40116 0.40116c-0.11322 0.11322-0.11713 0.28985-0.0058 0.40116l0.78488 0.78488c0.11131 0.11131 0.28795 0.1074 0.40116-0.0058l0.40116-0.40116c0.24608 0.14312 0.51504 0.2564 0.79651 0.3314v0.56395c0 0.16011 0.12746 0.2907 0.28488 0.2907h1.1047c0.15742 0 0.28488-0.13059 0.28488-0.2907v-0.56395c0.28148-0.07499 0.55043-0.18828 0.79651-0.3314l0.40116 0.40116c0.11321 0.11321 0.28985 0.11713 0.40116 0.0058l0.78488-0.78488c0.11131-0.11131 0.1074-0.28795-0.0058-0.40116l-0.40116-0.40116c0.14312-0.24608 0.2564-0.51503 0.3314-0.79651h0.56395c0.16011 0 0.2907-0.12746 0.2907-0.28488v-1.1047zm-2.7907 0.55232c0 0.66754-0.54177 1.2093-1.2093 1.2093s-1.2093-0.54177-1.2093-1.2093 0.54177-1.2093 1.2093-1.2093c0.66754 0 1.2093 0.54177 1.2093 1.2093z" />
          <path
             id="path4260"
             style="display:block;fill:#a40"
             d="m28 71.448c0-0.15742-0.13059-0.28489-0.2907-0.28489h-0.56395c-0.07499-0.28148-0.18828-0.55043-0.3314-0.79651l0.40116-0.40116c0.05661-0.05661 0.08659-0.12442 0.08721-0.19768 0.000626-0.07326-0.02574-0.14783-0.0814-0.20349l-0.78488-0.78488c-0.11131-0.11131-0.28795-0.1074-0.40116 0.0058l-0.40116 0.40116c-0.246-0.143-0.515-0.256-0.797-0.331v-0.56395c-0.000001-0.16011-0.12746-0.2907-0.28488-0.2907h-1.1047c-0.15742 0-0.28488 0.13059-0.28488 0.2907v0.56395c-0.28148 0.075-0.55043 0.18828-0.79651 0.3314l-0.40116-0.40116c-0.11322-0.11321-0.28985-0.11712-0.40116-0.0058l-0.78488 0.78488c-0.11131 0.11131-0.1074 0.28795 0.0058 0.40116l0.40114 0.40116c-0.14312 0.24608-0.2564 0.51503-0.3314 0.79651h-0.56395c-0.16011 0-0.2907 0.12747-0.2907 0.28489v1.1046c0 0.15742 0.13059 0.28488 0.2907 0.28488h0.56395c0.075 0.28148 0.18828 0.55043 0.3314 0.79651l-0.40116 0.40116c-0.11322 0.11322-0.11713 0.28985-0.0058 0.40116l0.78488 0.78488c0.11131 0.11131 0.28795 0.1074 0.40116-0.0058l0.402-0.402c0.24608 0.14312 0.51504 0.2564 0.79651 0.3314v0.56395c0 0.16011 0.12746 0.2907 0.28488 0.2907h1.1047c0.15742 0 0.28488-0.13059 0.28488-0.2907v-0.56395c0.28148-0.07499 0.55043-0.18828 0.79651-0.3314l0.40116 0.40116c0.11321 0.11321 0.28985 0.11713 0.40116 0.0058l0.78488-0.78488c0.11131-0.11131 0.1074-0.28795-0.0058-0.40116l-0.40116-0.40116c0.14312-0.24608 0.2564-0.51503 0.3314-0.79651h0.56395c0.16011 0 0.2907-0.12746 0.2907-0.28488v-1.1047zm-2.7907 0.55232c0 0.66754-0.54177 1.2093-1.2093 1.2093s-1.2093-0.54177-1.2093-1.2093 0.54177-1.2093 1.2093-1.2093c0.66754 0 1.2093 0.54177 1.2093 1.2093z" />
        </g>
        <g
           id="g4278"
           transform="translate(0,-32)">
          <path
             id="path4280"
             style="opacity:.25;color:#000000"
             transform="rotate(-90)"
             d="m-77 16.969c-1.6667 0-3.0312 1.3645-3.0312 3.0312v8c0 1.6667 1.3645 3.0312 3.0312 3.0312h8c1.6667 0 3.0312-1.3645 3.0312-3.0312v-8c0-1.6667-1.3645-3.0312-3.0312-3.0312h-8z" />
          <rect
             id="rect4282"
             style="opacity:.5;color:#000000"
             transform="rotate(-90)"
             rx="2"
             ry="2"
             height="12"
             width="12"
             y="18"
             x="-79" />
          <rect
             id="rect4284"
             style="color:#000000;fill:url(#linearGradient3835)"
             transform="rotate(-90)"
             rx="2"
             ry="2"
             height="12"
             width="12"
             y="18"
             x="-78" />
          <path
             id="path4286"
             style="color:#000000;fill:url(#linearGradient3833)"
             d="m20 66c-1.108 0-2 0.892-2 2v2.625c1.4666 0.84118 3.5928 1.375 6 1.375s4.5334-0.53382 6-1.375v-2.625c0-1.108-0.892-2-2-2h-8z" />
          <path
             id="path4288"
             style="opacity:.15;display:block"
             d="m23.438 67.969c-0.43181 0-0.8125 0.37662-0.8125 0.8125v0.21875c-0.04203 0.01818-0.08448 0.04317-0.125 0.0625l-0.15625-0.15625c-0.31766-0.31766-0.84128-0.315-1.1562 0l-0.78125 0.78125c-0.31498 0.31498-0.31764 0.83857 0 1.1562l0.154 0.155c-0.01933 0.04052-0.04432 0.08297-0.0625 0.125h-0.21875c-0.43588 0-0.8125 0.38069-0.8125 0.8125v1.125c0 0.43181 0.37662 0.8125 0.8125 0.8125h0.21875c0.01818 0.04203 0.04317 0.08448 0.0625 0.125l-0.15625 0.15625c-0.31766 0.31766-0.31501 0.84128 0 1.1562l0.78125 0.78125c0.31498 0.31498 0.83857 0.31764 1.1562 0l0.157-0.156c0.04052 0.01933 0.08297 0.04432 0.125 0.0625v0.21875c0 0.43588 0.38069 0.8125 0.8125 0.8125h1.125c0.43181 0 0.8125-0.37662 0.8125-0.8125l-0.001-0.22c0.04203-0.01818 0.08448-0.04317 0.125-0.0625l0.15625 0.15625c0.31766 0.31766 0.84128 0.31501 1.1562 0l0.78125-0.78125c0.31497-0.31498 0.31764-0.83857 0-1.1562l-0.155-0.157c0.01933-0.04052 0.04432-0.08297 0.0625-0.125h0.21875c0.43588 0 0.8125-0.3807 0.8125-0.8125v-1.125c0-0.43181-0.37662-0.8125-0.8125-0.8125h-0.21875c-0.019-0.041-0.044-0.083-0.063-0.124l0.15625-0.15625c0.10363-0.10363 0.2479-0.31388 0.25-0.5625 0.0023-0.26541-0.07854-0.42231-0.25-0.59375l-0.782-0.782c-0.31498-0.31497-0.83857-0.31764-1.1562 0l-0.156 0.156c-0.041-0.019-0.083-0.044-0.125-0.062v-0.21875c-0.000003-0.43587-0.38069-0.8125-0.8125-0.8125h-1.125zm0.562 3.843c0.3731 0 0.6875 0.3144 0.6875 0.6875 0 0.37311-0.31439 0.6875-0.6875 0.6875-0.3731 0-0.6875-0.31439-0.6875-0.6875 0-0.3731 0.3144-0.6875 0.6875-0.6875z" />
          <path
             id="path4290"
             style="opacity:.3;display:block"
             d="m28 71.948c0-0.15742-0.13059-0.28489-0.2907-0.28489h-0.56395c-0.07499-0.28148-0.18828-0.55043-0.3314-0.79651l0.40116-0.40116c0.05661-0.05661 0.08659-0.12442 0.08721-0.19768 0.000626-0.07326-0.02574-0.14783-0.0814-0.20349l-0.78488-0.78488c-0.11131-0.11131-0.28795-0.1074-0.40116 0.0058l-0.40116 0.40116c-0.24608-0.14308-0.51503-0.25636-0.79651-0.33136v-0.56395c-0.000001-0.16011-0.12746-0.2907-0.28488-0.2907h-1.1047c-0.15742 0-0.28488 0.13059-0.28488 0.2907v0.56395c-0.28148 0.075-0.55043 0.18828-0.79651 0.3314l-0.40116-0.40116c-0.11322-0.11321-0.28985-0.11712-0.40116-0.0058l-0.78488 0.78488c-0.11131 0.11131-0.1074 0.28795 0.0058 0.40116l0.40114 0.40116c-0.14312 0.24608-0.2564 0.51503-0.3314 0.79651h-0.56395c-0.16011 0-0.2907 0.12747-0.2907 0.28489v1.1046c0 0.15742 0.13059 0.28488 0.2907 0.28488h0.56395c0.075 0.28148 0.18828 0.55043 0.3314 0.79651l-0.40116 0.40116c-0.11322 0.11322-0.11713 0.28985-0.0058 0.40116l0.78488 0.78488c0.11131 0.11131 0.28795 0.1074 0.40116-0.0058l0.40116-0.40116c0.24608 0.14312 0.51504 0.2564 0.79651 0.3314v0.56395c0 0.16011 0.12746 0.2907 0.28488 0.2907h1.1047c0.15742 0 0.28488-0.13059 0.28488-0.2907v-0.56395c0.28148-0.07499 0.55043-0.18828 0.79651-0.3314l0.40116 0.40116c0.11321 0.11321 0.28985 0.11713 0.40116 0.0058l0.78488-0.78488c0.11131-0.11131 0.1074-0.28795-0.0058-0.40116l-0.40116-0.40116c0.14312-0.24608 0.2564-0.51503 0.3314-0.79651h0.56395c0.16011 0 0.2907-0.12746 0.2907-0.28488v-1.1047zm-2.7907 0.55232c0 0.66754-0.54177 1.2093-1.2093 1.2093s-1.2093-0.54177-1.2093-1.2093 0.54177-1.2093 1.2093-1.2093c0.66754 0 1.2093 0.54177 1.2093 1.2093z" />
          <path
             id="path4292"
             style="display:block;fill:#fff"
             d="m28 71.448c0-0.15742-0.13059-0.28489-0.2907-0.28489h-0.56395c-0.07499-0.28148-0.18828-0.55043-0.3314-0.79651l0.40116-0.40116c0.05661-0.05661 0.08659-0.12442 0.08721-0.19768 0.000626-0.07326-0.02574-0.14783-0.0814-0.20349l-0.78488-0.78488c-0.11131-0.11131-0.28795-0.1074-0.40116 0.0058l-0.40116 0.40116c-0.246-0.143-0.515-0.256-0.797-0.331v-0.56395c-0.000001-0.16011-0.12746-0.2907-0.28488-0.2907h-1.1047c-0.15742 0-0.28488 0.13059-0.28488 0.2907v0.56395c-0.28148 0.075-0.55043 0.18828-0.79651 0.3314l-0.40116-0.40116c-0.11322-0.11321-0.28985-0.11712-0.40116-0.0058l-0.78488 0.78488c-0.11131 0.11131-0.1074 0.28795 0.0058 0.40116l0.40114 0.40116c-0.14312 0.24608-0.2564 0.51503-0.3314 0.79651h-0.56395c-0.16011 0-0.2907 0.12747-0.2907 0.28489v1.1046c0 0.15742 0.13059 0.28488 0.2907 0.28488h0.56395c0.075 0.28148 0.18828 0.55043 0.3314 0.79651l-0.40116 0.40116c-0.11322 0.11322-0.11713 0.28985-0.0058 0.40116l0.78488 0.78488c0.11131 0.11131 0.28795 0.1074 0.40116-0.0058l0.402-0.402c0.24608 0.14312 0.51504 0.2564 0.79651 0.3314v0.56395c0 0.16011 0.12746 0.2907 0.28488 0.2907h1.1047c0.15742 0 0.28488-0.13059 0.28488-0.2907v-0.56395c0.28148-0.07499 0.55043-0.18828 0.79651-0.3314l0.40116 0.40116c0.11321 0.11321 0.28985 0.11713 0.40116 0.0058l0.78488-0.78488c0.11131-0.11131 0.1074-0.28795-0.0058-0.40116l-0.40116-0.40116c0.14312-0.24608 0.2564-0.51503 0.3314-0.79651h0.56395c0.16011 0 0.2907-0.12746 0.2907-0.28488v-1.1047zm-2.7907 0.55232c0 0.66754-0.54177 1.2093-1.2093 1.2093s-1.2093-0.54177-1.2093-1.2093 0.54177-1.2093 1.2093-1.2093c0.66754 0 1.2093 0.54177 1.2093 1.2093z" />
        </g>
        <g
           id="g4294"
           transform="translate(16,-32)">
          <path
             id="path4296"
             style="opacity:.25;color:#000000"
             transform="rotate(-90)"
             d="m-77 16.969c-1.6667 0-3.0312 1.3645-3.0312 3.0312v8c0 1.6667 1.3645 3.0312 3.0312 3.0312h8c1.6667 0 3.0312-1.3645 3.0312-3.0312v-8c0-1.6667-1.3645-3.0312-3.0312-3.0312h-8z" />
          <rect
             id="rect4298"
             style="opacity:.5;color:#000000"
             transform="rotate(-90)"
             rx="2"
             ry="2"
             height="12"
             width="12"
             y="18"
             x="-79" />
          <rect
             id="rect4300"
             style="color:#000000;fill:url(#linearGradient3867)"
             transform="rotate(-90)"
             rx="2"
             ry="2"
             height="12"
             width="12"
             y="18"
             x="-78" />
          <path
             id="path4302"
             style="color:#000000;fill:url(#linearGradient3833)"
             d="m20 66c-1.108 0-2 0.892-2 2v2.625c1.4666 0.84118 3.5928 1.375 6 1.375s4.5334-0.53382 6-1.375v-2.625c0-1.108-0.892-2-2-2h-8z" />
          <path
             id="path4304"
             style="opacity:.15;display:block"
             d="m23.438 67.969c-0.43181 0-0.8125 0.37662-0.8125 0.8125v0.21875c-0.04203 0.01818-0.08448 0.04317-0.125 0.0625l-0.15625-0.15625c-0.31766-0.31766-0.84128-0.315-1.1562 0l-0.78125 0.78125c-0.31498 0.31498-0.31764 0.83857 0 1.1562l0.154 0.155c-0.01933 0.04052-0.04432 0.08297-0.0625 0.125h-0.21875c-0.43588 0-0.8125 0.38069-0.8125 0.8125v1.125c0 0.43181 0.37662 0.8125 0.8125 0.8125h0.21875c0.01818 0.04203 0.04317 0.08448 0.0625 0.125l-0.15625 0.15625c-0.31766 0.31766-0.31501 0.84128 0 1.1562l0.78125 0.78125c0.31498 0.31498 0.83857 0.31764 1.1562 0l0.157-0.156c0.04052 0.01933 0.08297 0.04432 0.125 0.0625v0.21875c0 0.43588 0.38069 0.8125 0.8125 0.8125h1.125c0.43181 0 0.8125-0.37662 0.8125-0.8125l-0.001-0.22c0.04203-0.01818 0.08448-0.04317 0.125-0.0625l0.15625 0.15625c0.31766 0.31766 0.84128 0.31501 1.1562 0l0.78125-0.78125c0.31497-0.31498 0.31764-0.83857 0-1.1562l-0.155-0.157c0.01933-0.04052 0.04432-0.08297 0.0625-0.125h0.21875c0.43588 0 0.8125-0.3807 0.8125-0.8125v-1.125c0-0.43181-0.37662-0.8125-0.8125-0.8125h-0.21875c-0.019-0.041-0.044-0.083-0.063-0.124l0.15625-0.15625c0.10363-0.10363 0.2479-0.31388 0.25-0.5625 0.0023-0.26541-0.07854-0.42231-0.25-0.59375l-0.782-0.782c-0.31498-0.31497-0.83857-0.31764-1.1562 0l-0.156 0.156c-0.041-0.019-0.083-0.044-0.125-0.062v-0.21875c-0.000003-0.43587-0.38069-0.8125-0.8125-0.8125h-1.125zm0.562 3.843c0.3731 0 0.6875 0.3144 0.6875 0.6875 0 0.37311-0.31439 0.6875-0.6875 0.6875-0.3731 0-0.6875-0.31439-0.6875-0.6875 0-0.3731 0.3144-0.6875 0.6875-0.6875z" />
          <path
             id="path4306"
             style="opacity:.3;display:block"
             d="m28 71.948c0-0.15742-0.13059-0.28489-0.2907-0.28489h-0.56395c-0.07499-0.28148-0.18828-0.55043-0.3314-0.79651l0.40116-0.40116c0.05661-0.05661 0.08659-0.12442 0.08721-0.19768 0.000626-0.07326-0.02574-0.14783-0.0814-0.20349l-0.78488-0.78488c-0.11131-0.11131-0.28795-0.1074-0.40116 0.0058l-0.40116 0.40116c-0.24608-0.14308-0.51503-0.25636-0.79651-0.33136v-0.56395c-0.000001-0.16011-0.12746-0.2907-0.28488-0.2907h-1.1047c-0.15742 0-0.28488 0.13059-0.28488 0.2907v0.56395c-0.28148 0.075-0.55043 0.18828-0.79651 0.3314l-0.40116-0.40116c-0.11322-0.11321-0.28985-0.11712-0.40116-0.0058l-0.78488 0.78488c-0.11131 0.11131-0.1074 0.28795 0.0058 0.40116l0.40114 0.40116c-0.14312 0.24608-0.2564 0.51503-0.3314 0.79651h-0.56395c-0.16011 0-0.2907 0.12747-0.2907 0.28489v1.1046c0 0.15742 0.13059 0.28488 0.2907 0.28488h0.56395c0.075 0.28148 0.18828 0.55043 0.3314 0.79651l-0.40116 0.40116c-0.11322 0.11322-0.11713 0.28985-0.0058 0.40116l0.78488 0.78488c0.11131 0.11131 0.28795 0.1074 0.40116-0.0058l0.40116-0.40116c0.24608 0.14312 0.51504 0.2564 0.79651 0.3314v0.56395c0 0.16011 0.12746 0.2907 0.28488 0.2907h1.1047c0.15742 0 0.28488-0.13059 0.28488-0.2907v-0.56395c0.28148-0.07499 0.55043-0.18828 0.79651-0.3314l0.40116 0.40116c0.11321 0.11321 0.28985 0.11713 0.40116 0.0058l0.78488-0.78488c0.11131-0.11131 0.1074-0.28795-0.0058-0.40116l-0.40116-0.40116c0.14312-0.24608 0.2564-0.51503 0.3314-0.79651h0.56395c0.16011 0 0.2907-0.12746 0.2907-0.28488v-1.1047zm-2.7907 0.55232c0 0.66754-0.54177 1.2093-1.2093 1.2093s-1.2093-0.54177-1.2093-1.2093 0.54177-1.2093 1.2093-1.2093c0.66754 0 1.2093 0.54177 1.2093 1.2093z" />
          <path
             id="path4308"
             style="display:block;fill:#a0501c"
             d="m28 71.448c0-0.15742-0.13059-0.28489-0.2907-0.28489h-0.56395c-0.07499-0.28148-0.18828-0.55043-0.3314-0.79651l0.40116-0.40116c0.05661-0.05661 0.08659-0.12442 0.08721-0.19768 0.000626-0.07326-0.02574-0.14783-0.0814-0.20349l-0.78488-0.78488c-0.11131-0.11131-0.28795-0.1074-0.40116 0.0058l-0.40116 0.40116c-0.246-0.143-0.515-0.256-0.797-0.331v-0.56395c-0.000001-0.16011-0.12746-0.2907-0.28488-0.2907h-1.1047c-0.15742 0-0.28488 0.13059-0.28488 0.2907v0.56395c-0.28148 0.075-0.55043 0.18828-0.79651 0.3314l-0.40116-0.40116c-0.11322-0.11321-0.28985-0.11712-0.40116-0.0058l-0.78488 0.78488c-0.11131 0.11131-0.1074 0.28795 0.0058 0.40116l0.40114 0.40116c-0.14312 0.24608-0.2564 0.51503-0.3314 0.79651h-0.56395c-0.16011 0-0.2907 0.12747-0.2907 0.28489v1.1046c0 0.15742 0.13059 0.28488 0.2907 0.28488h0.56395c0.075 0.28148 0.18828 0.55043 0.3314 0.79651l-0.40116 0.40116c-0.11322 0.11322-0.11713 0.28985-0.0058 0.40116l0.78488 0.78488c0.11131 0.11131 0.28795 0.1074 0.40116-0.0058l0.402-0.402c0.24608 0.14312 0.51504 0.2564 0.79651 0.3314v0.56395c0 0.16011 0.12746 0.2907 0.28488 0.2907h1.1047c0.15742 0 0.28488-0.13059 0.28488-0.2907v-0.56395c0.28148-0.07499 0.55043-0.18828 0.79651-0.3314l0.40116 0.40116c0.11321 0.11321 0.28985 0.11713 0.40116 0.0058l0.78488-0.78488c0.11131-0.11131 0.1074-0.28795-0.0058-0.40116l-0.40116-0.40116c0.14312-0.24608 0.2564-0.51503 0.3314-0.79651h0.56395c0.16011 0 0.2907-0.12746 0.2907-0.28488v-1.1047zm-2.7907 0.55232c0 0.66754-0.54177 1.2093-1.2093 1.2093s-1.2093-0.54177-1.2093-1.2093 0.54177-1.2093 1.2093-1.2093c0.66754 0 1.2093 0.54177 1.2093 1.2093z" />
        </g>
        <g
           id="g4310"
           transform="translate(32,-32)">
          <path
             id="path4312"
             style="opacity:.25;color:#000000"
             transform="rotate(-90)"
             d="m-77 16.969c-1.6667 0-3.0312 1.3645-3.0312 3.0312v8c0 1.6667 1.3645 3.0312 3.0312 3.0312h8c1.6667 0 3.0312-1.3645 3.0312-3.0312v-8c0-1.6667-1.3645-3.0312-3.0312-3.0312h-8z" />
          <rect
             id="rect4314"
             style="opacity:.5;color:#000000"
             transform="rotate(-90)"
             rx="2"
             ry="2"
             height="12"
             width="12"
             y="18"
             x="-79" />
          <rect
             id="rect4316"
             style="color:#000000;fill:url(#linearGradient3847)"
             transform="rotate(-90)"
             rx="2"
             ry="2"
             height="12"
             width="12"
             y="18"
             x="-78" />
          <path
             id="path4318"
             style="color:#000000;fill:url(#linearGradient3833)"
             d="m20 66c-1.108 0-2 0.892-2 2v2.625c1.4666 0.84118 3.5928 1.375 6 1.375s4.5334-0.53382 6-1.375v-2.625c0-1.108-0.892-2-2-2h-8z" />
          <path
             id="path4320"
             style="opacity:.15;display:block"
             d="m23.438 67.969c-0.43181 0-0.8125 0.37662-0.8125 0.8125v0.21875c-0.04203 0.01818-0.08448 0.04317-0.125 0.0625l-0.15625-0.15625c-0.31766-0.31766-0.84128-0.315-1.1562 0l-0.78125 0.78125c-0.31498 0.31498-0.31764 0.83857 0 1.1562l0.154 0.155c-0.01933 0.04052-0.04432 0.08297-0.0625 0.125h-0.21875c-0.43588 0-0.8125 0.38069-0.8125 0.8125v1.125c0 0.43181 0.37662 0.8125 0.8125 0.8125h0.21875c0.01818 0.04203 0.04317 0.08448 0.0625 0.125l-0.15625 0.15625c-0.31766 0.31766-0.31501 0.84128 0 1.1562l0.78125 0.78125c0.31498 0.31498 0.83857 0.31764 1.1562 0l0.157-0.156c0.04052 0.01933 0.08297 0.04432 0.125 0.0625v0.21875c0 0.43588 0.38069 0.8125 0.8125 0.8125h1.125c0.43181 0 0.8125-0.37662 0.8125-0.8125l-0.001-0.22c0.04203-0.01818 0.08448-0.04317 0.125-0.0625l0.15625 0.15625c0.31766 0.31766 0.84128 0.31501 1.1562 0l0.78125-0.78125c0.31497-0.31498 0.31764-0.83857 0-1.1562l-0.155-0.157c0.01933-0.04052 0.04432-0.08297 0.0625-0.125h0.21875c0.43588 0 0.8125-0.3807 0.8125-0.8125v-1.125c0-0.43181-0.37662-0.8125-0.8125-0.8125h-0.21875c-0.019-0.041-0.044-0.083-0.063-0.124l0.15625-0.15625c0.10363-0.10363 0.2479-0.31388 0.25-0.5625 0.0023-0.26541-0.07854-0.42231-0.25-0.59375l-0.782-0.782c-0.31498-0.31497-0.83857-0.31764-1.1562 0l-0.156 0.156c-0.041-0.019-0.083-0.044-0.125-0.062v-0.21875c-0.000003-0.43587-0.38069-0.8125-0.8125-0.8125h-1.125zm0.562 3.843c0.3731 0 0.6875 0.3144 0.6875 0.6875 0 0.37311-0.31439 0.6875-0.6875 0.6875-0.3731 0-0.6875-0.31439-0.6875-0.6875 0-0.3731 0.3144-0.6875 0.6875-0.6875z" />
          <path
             id="path4322"
             style="opacity:.3;display:block"
             d="m28 71.948c0-0.15742-0.13059-0.28489-0.2907-0.28489h-0.56395c-0.07499-0.28148-0.18828-0.55043-0.3314-0.79651l0.40116-0.40116c0.05661-0.05661 0.08659-0.12442 0.08721-0.19768 0.000626-0.07326-0.02574-0.14783-0.0814-0.20349l-0.78488-0.78488c-0.11131-0.11131-0.28795-0.1074-0.40116 0.0058l-0.40116 0.40116c-0.24608-0.14308-0.51503-0.25636-0.79651-0.33136v-0.56395c-0.000001-0.16011-0.12746-0.2907-0.28488-0.2907h-1.1047c-0.15742 0-0.28488 0.13059-0.28488 0.2907v0.56395c-0.28148 0.075-0.55043 0.18828-0.79651 0.3314l-0.40116-0.40116c-0.11322-0.11321-0.28985-0.11712-0.40116-0.0058l-0.78488 0.78488c-0.11131 0.11131-0.1074 0.28795 0.0058 0.40116l0.40114 0.40116c-0.14312 0.24608-0.2564 0.51503-0.3314 0.79651h-0.56395c-0.16011 0-0.2907 0.12747-0.2907 0.28489v1.1046c0 0.15742 0.13059 0.28488 0.2907 0.28488h0.56395c0.075 0.28148 0.18828 0.55043 0.3314 0.79651l-0.40116 0.40116c-0.11322 0.11322-0.11713 0.28985-0.0058 0.40116l0.78488 0.78488c0.11131 0.11131 0.28795 0.1074 0.40116-0.0058l0.40116-0.40116c0.24608 0.14312 0.51504 0.2564 0.79651 0.3314v0.56395c0 0.16011 0.12746 0.2907 0.28488 0.2907h1.1047c0.15742 0 0.28488-0.13059 0.28488-0.2907v-0.56395c0.28148-0.07499 0.55043-0.18828 0.79651-0.3314l0.40116 0.40116c0.11321 0.11321 0.28985 0.11713 0.40116 0.0058l0.78488-0.78488c0.11131-0.11131 0.1074-0.28795-0.0058-0.40116l-0.40116-0.40116c0.14312-0.24608 0.2564-0.51503 0.3314-0.79651h0.56395c0.16011 0 0.2907-0.12746 0.2907-0.28488v-1.1047zm-2.7907 0.55232c0 0.66754-0.54177 1.2093-1.2093 1.2093s-1.2093-0.54177-1.2093-1.2093 0.54177-1.2093 1.2093-1.2093c0.66754 0 1.2093 0.54177 1.2093 1.2093z" />
          <path
             id="path4324"
             style="display:block;fill:#fff"
             d="m28 71.448c0-0.15742-0.13059-0.28489-0.2907-0.28489h-0.56395c-0.07499-0.28148-0.18828-0.55043-0.3314-0.79651l0.40116-0.40116c0.05661-0.05661 0.08659-0.12442 0.08721-0.19768 0.000626-0.07326-0.02574-0.14783-0.0814-0.20349l-0.78488-0.78488c-0.11131-0.11131-0.28795-0.1074-0.40116 0.0058l-0.40116 0.40116c-0.246-0.143-0.515-0.256-0.797-0.331v-0.56395c-0.000001-0.16011-0.12746-0.2907-0.28488-0.2907h-1.1047c-0.15742 0-0.28488 0.13059-0.28488 0.2907v0.56395c-0.28148 0.075-0.55043 0.18828-0.79651 0.3314l-0.40116-0.40116c-0.11322-0.11321-0.28985-0.11712-0.40116-0.0058l-0.78488 0.78488c-0.11131 0.11131-0.1074 0.28795 0.0058 0.40116l0.40114 0.40116c-0.14312 0.24608-0.2564 0.51503-0.3314 0.79651h-0.56395c-0.16011 0-0.2907 0.12747-0.2907 0.28489v1.1046c0 0.15742 0.13059 0.28488 0.2907 0.28488h0.56395c0.075 0.28148 0.18828 0.55043 0.3314 0.79651l-0.40116 0.40116c-0.11322 0.11322-0.11713 0.28985-0.0058 0.40116l0.78488 0.78488c0.11131 0.11131 0.28795 0.1074 0.40116-0.0058l0.402-0.402c0.24608 0.14312 0.51504 0.2564 0.79651 0.3314v0.56395c0 0.16011 0.12746 0.2907 0.28488 0.2907h1.1047c0.15742 0 0.28488-0.13059 0.28488-0.2907v-0.56395c0.28148-0.07499 0.55043-0.18828 0.79651-0.3314l0.40116 0.40116c0.11321 0.11321 0.28985 0.11713 0.40116 0.0058l0.78488-0.78488c0.11131-0.11131 0.1074-0.28795-0.0058-0.40116l-0.40116-0.40116c0.14312-0.24608 0.2564-0.51503 0.3314-0.79651h0.56395c0.16011 0 0.2907-0.12746 0.2907-0.28488v-1.1047zm-2.7907 0.55232c0 0.66754-0.54177 1.2093-1.2093 1.2093s-1.2093-0.54177-1.2093-1.2093 0.54177-1.2093 1.2093-1.2093c0.66754 0 1.2093 0.54177 1.2093 1.2093z" />
        </g>
      </g>
    </g>
    <rect
       id="rect3003"
       style="opacity:.15;fill:#fff"
       clip-path="url(#clipPath3009)"
       rx="25"
       ry="25"
       transform="translate(98)"
       width="92"
       y="958.36"
       x="-96"
       height="92" />
  </g>
</svg>
