<?xml version="1.0" encoding="UTF-8" standalone="no"?>
<!-- Created with Inkscape (http://www.inkscape.org/) -->

<svg
   xmlns:dc="http://purl.org/dc/elements/1.1/"
   xmlns:cc="http://creativecommons.org/ns#"
   xmlns:rdf="http://www.w3.org/1999/02/22-rdf-syntax-ns#"
   xmlns:svg="http://www.w3.org/2000/svg"
   xmlns="http://www.w3.org/2000/svg"
   xmlns:xlink="http://www.w3.org/1999/xlink"
   xmlns:sodipodi="http://sodipodi.sourceforge.net/DTD/sodipodi-0.dtd"
   xmlns:inkscape="http://www.inkscape.org/namespaces/inkscape"
   id="svg11037"
   height="96"
   width="96"
   version="1.1"
   inkscape:version="0.48.5 r10040"
   sodipodi:docname="multimedia-player-ipod.svg">
  <sodipodi:namedview
     pagecolor="#ffffff"
     bordercolor="#666666"
     borderopacity="1"
     objecttolerance="10"
     gridtolerance="10"
     guidetolerance="10"
     inkscape:pageopacity="0"
     inkscape:pageshadow="2"
     inkscape:window-width="640"
     inkscape:window-height="480"
     id="namedview4599" />
  <defs
     id="defs11039">
    <linearGradient
       id="linearGradient11642"
       y2="1046.1"
       gradientUnits="userSpaceOnUse"
       y1="962.62"
       gradientTransform="matrix(1.15 0 0 1.15 -7.1999 -150.65)"
       x2="48"
       x1="48">
      <stop
         id="stop3702"
         style="stop-color:#a5aaaf"
         offset="0" />
      <stop
         id="stop3704"
         style="stop-color:#d4d7d9"
         offset="1" />
    </linearGradient>
    <clipPath
       id="clipPath3009"
       clipPathUnits="userSpaceOnUse">
      <path
         id="path3011"
         style="opacity:.15;fill:#fff"
         d="m-2 956.36h-96v33.562l96 25.687v-59.25z" />
    </clipPath>
    <linearGradient
       id="linearGradient4223"
       y2="49"
       xlink:href="#linearGradient4086"
       gradientUnits="userSpaceOnUse"
       x2="80"
       gradientTransform="matrix(0,-1,1,0,-1,97)"
       y1="49"
       x1="16" />
    <linearGradient
       id="linearGradient4086">
      <stop
         id="stop4088"
         style="stop-color:#bebebe"
         offset="0" />
      <stop
         id="stop4098"
         style="stop-color:#ebebeb"
         offset="1" />
    </linearGradient>
    <linearGradient
       id="linearGradient3857-9"
       y2="48"
       gradientUnits="userSpaceOnUse"
       x2="120"
       gradientTransform="matrix(0,-1,1,0,0,97)"
       y1="48"
       x1="15">
      <stop
         id="stop3853-9"
         offset="0" />
      <stop
         id="stop3855-4"
         style="stop-opacity:0"
         offset="1" />
    </linearGradient>
    <radialGradient
       id="radialGradient3847-1"
       gradientUnits="userSpaceOnUse"
       cy="44"
       cx="48"
       r="16">
      <stop
         id="stop3843-9"
         style="stop-color:#fff"
         offset="0" />
      <stop
         id="stop3849-7"
         style="stop-color:#fff;stop-opacity:.33588"
         offset=".5" />
      <stop
         id="stop3845-4"
         style="stop-opacity:.16794"
         offset="1" />
    </radialGradient>
    <linearGradient
       id="linearGradient4111"
       y2="49"
       xlink:href="#linearGradient4086"
       gradientUnits="userSpaceOnUse"
       x2="72"
       gradientTransform="matrix(0,1,-1,0,97,1)"
       y1="49"
       x1="-41" />
  </defs>
  <metadata
     id="metadata11042">
    <rdf:RDF>
      <cc:Work
         rdf:about="">
        <dc:format>image/svg+xml</dc:format>
        <dc:type
           rdf:resource="http://purl.org/dc/dcmitype/StillImage" />
        <dc:title />
      </cc:Work>
    </rdf:RDF>
  </metadata>
  <g
     id="layer1"
     transform="translate(0 -956.36)">
    <rect
       id="rect3867"
       style="fill:url(#linearGradient11642)"
       rx="25"
       ry="25"
       height="92"
       width="92"
       y="958.36"
       x="2" />
    <g
       id="g3076"
       transform="translate(2.2222e-7 956.36)">
      <g
         id="layer4">
        <path
           id="path3823"
           style="color:#000000;fill:url(#linearGradient4223)"
           d="m16 49c0 17.673 14.327 32 32 32s32-14.327 32-32-14.327-32-32-32-32 14.327-32 32zm16 0c0-8.8366 7.1634-16 16-16s16 7.1634 16 16-7.1634 16-16 16-16-7.1634-16-16z" />
        <path
           id="path3834"
           style="opacity:.35;color:#000000;fill:url(#linearGradient3857-9)"
           d="m15 49c0 18.213 14.787 33 33 33s33-14.787 33-33-14.787-33-33-33-33 14.787-33 33zm1 0c0-17.673 14.327-32 32-32s32 14.327 32 32-14.327 32-32 32-32-14.327-32-32zm16 0c0 8.8366 7.1634 16 16 16s16-7.1634 16-16-7.1634-16-16-16-16 7.1634-16 16zm1 0c0-8.2967 6.7033-15 15-15s15 6.7033 15 15-6.7033 15-15 15-15-6.7033-15-15z" />
        <path
           id="path3839"
           d="m64 48a16 16 0 1 1 -32 0 16 16 0 1 1 32 0z"
           style="opacity:.25;color:#000000;fill:url(#radialGradient3847-1)"
           transform="translate(0,1)" />
        <path
           id="path3859"
           style="opacity:.6;color:#000000;fill:#fff"
           d="m48 17c-17.673 0-32 14.327-32 32 0 0.16667-0.0025 0.33394 0 0.5 0.267-17.443 14.494-31.5 32-31.5s31.733 14.057 32 31.5c0.002-0.166 0-0.333 0-0.5 0-17.673-14.327-32-32-32zm-15.969 32.5c-0.005 0.169-0.031 0.33-0.031 0.5 0 8.8366 7.1634 16 16 16s16-7.1634 16-16c0-0.16998-0.02599-0.3313-0.03125-0.5-0.269 8.601-7.302 15.5-15.969 15.5s-15.7-6.899-15.969-15.5z" />
        <path
           id="path3864"
           style="opacity:.1;color:#000000"
           d="m48 32c-8.8366 0-16 7.1634-16 16 0 0.16998 0.02599 0.3313 0.03125 0.5 0.269-8.601 7.302-15.5 15.969-15.5s15.7 6.899 15.969 15.5c0.005-0.169 0.031-0.33 0.031-0.5 0-8.837-7.163-16-16-16zm-32 16.5c-0.0025 0.16606 0 0.33333 0 0.5 0 17.673 14.327 32 32 32s32-14.327 32-32c0-0.16667 0.0025-0.33394 0-0.5-0.267 17.443-14.494 31.5-32 31.5s-31.733-14.057-32-31.5z" />
        <path
           id="path3871"
           style="opacity:.3;color:#000000;fill:#fff"
           d="m48 34c-8.2843 0-15 6.7157-15 15 0 0.16922 0.02569 0.33214 0.03125 0.5 0.267-8.05 6.854-14.5 14.969-14.5s14.702 6.45 14.969 14.5c0.005-0.168 0.031-0.331 0.031-0.5 0-8.284-6.716-15-15-15z" />
        <path
           id="path3876"
           style="opacity:.3;color:#000000;fill:#fff"
           d="m15 48.5c-0.0023 0.16716 0 0.33226 0 0.5 0 18.792 14.775 34.031 33 34.031s33-15.239 33-34.031c0-0.16774 0.0023-0.33284 0-0.5-0.26 18.561-14.937 33.531-33 33.531s-32.74-14.97-33-33.531z" />
        <path
           id="path4100"
           style="color:#000000;fill:url(#linearGradient4111)"
           d="m72 49c0-13.255-10.745-24-24-24s-24 10.745-24 24 10.745 24 24 24 24-10.745 24-24zm-8 0c0 8.8366-7.1634 16-16 16s-16-7.1634-16-16 7.1634-16 16-16 16 7.1634 16 16z" />
        <path
           id="path4133"
           style="opacity:.12;color:#000000;fill:#eee"
           d="m48 18c-17.073 0-31 13.927-31 31s13.927 31 31 31 31-13.927 31-31-13.927-31-31-31zm0 13c9.9885 0 18 8.0115 18 18s-8.0115 18-18 18-18-8.0115-18-18 8.0115-18 18-18z" />
        <path
           id="path4129"
           style="opacity:.25;color:#000000;fill:#eee"
           d="m48 19.031c-16.528 0-29.969 13.441-29.969 29.969s13.441 29.969 29.969 29.969 29.969-13.441 29.969-29.969-13.441-29.969-29.969-29.969zm0 10.938c10.539 0 19.031 8.492 19.031 19.031s-8.492 19.031-19.031 19.031-19.031-8.492-19.031-19.031 8.492-19.031 19.031-19.031z" />
        <path
           id="path4125"
           style="opacity:.4;color:#000000;fill:#eee"
           d="m48 20.031c-15.982 0-28.969 12.987-28.969 28.969s12.987 28.969 28.969 28.969 28.969-12.987 28.969-28.969-12.987-28.969-28.969-28.969zm0 8.9375c11.081 0.001 20.031 8.951 20.031 20.032s-8.95 20.031-20.031 20.031-20.031-8.95-20.031-20.031 8.95-20.031 20.031-20.031z" />
        <path
           id="path4121"
           style="opacity:.6;color:#000000;fill:#eee"
           d="m48 20.938c-15.49 0-28.062 12.572-28.062 28.062s12.572 28.062 28.062 28.062 28.062-12.572 28.062-28.062-12.572-28.062-28.062-28.062zm0 7.125c11.572-0.001 20.938 9.365 20.938 20.937s-9.366 20.938-20.938 20.938-20.938-9.366-20.938-20.938 9.366-20.938 20.938-20.938z" />
        <path
           id="path4113"
           style="color:#000000;fill:#eee"
           d="m48 22c-14.912 0-27 12.088-27 27s12.088 27 27 27 27-12.088 27-27-12.088-27-27-27zm0 5c12.15 0 22 9.85 22 22s-9.85 22-22 22-22-9.85-22-22 9.85-22 22-22z" />
      </g>
      <g
         id="layer7">
        <path
           id="path3912"
           style="color:#000000;fill:#b3b3b3"
           d="m67 45.938v6l2.5-1.5 2.5-1.5-2.5-1.5-2.5-1.5zm5 3v3l2.5-1.5 2.5-1.5-2.5-1.5-2.5-1.5v3zm5 0v3.0625h1v-6h-1v2.9375z" />
        <path
           id="path3919"
           style="color:#000000;fill:#b3b3b3"
           d="m29 45.938v6l-2.5-1.5-2.5-1.5 2.5-1.5 2.5-1.5zm-5 3v3l-2.5-1.5-2.5-1.5 2.5-1.5 2.5-1.5v3zm-5 0v3.0625h-1v-6h1v2.9375z" />
        <rect
           id="rect3921"
           style="color:#000000;fill:#b3b3b3"
           height="2"
           width="8"
           y="72"
           x="44" />
        <path
           id="rect3923"
           style="color:#000000;fill:#b3b3b3"
           d="m47 21v3h-3v2h3v3h2v-3h3v-2h-3v-3h-2z" />
        <path
           id="path3928"
           style="color:#000000;fill:#f2f2f2"
           d="m40 45v8l3.5-2 3.5-2-3.5-2-3.5-2zm10 0v8h2v-8h-2zm4 0v8h2v-8h-2z" />
        <path
           id="path3935"
           style="opacity:.2;color:#000000;fill:#f2f2f2"
           d="m46.125 49.5-2.625 1.5-3.5 2v1l3.5-2 3.5-2-0.875-0.5zm3.875 3.5v1h2v-1h-2zm4 0v1h2v-1h-2z" />
        <path
           id="path3940"
           style="opacity:.1;color:#000000"
           d="m40 44v1l3.5 2 2.625 1.5 0.875-0.5-3.5-2-3.5-2zm10 0v1h2v-1h-2zm4 0v1h2v-1h-2z" />
      </g>
    </g>
    <rect
       id="rect3003"
       style="opacity:.15;fill:#fff"
       clip-path="url(#clipPath3009)"
       rx="25"
       ry="25"
       transform="translate(98)"
       width="92"
       y="958.36"
       x="-96"
       height="92" />
  </g>
</svg>
