<?xml version="1.0" encoding="UTF-8" standalone="no"?>
<!-- Created with Inkscape (http://www.inkscape.org/) -->

<svg
   xmlns:dc="http://purl.org/dc/elements/1.1/"
   xmlns:cc="http://creativecommons.org/ns#"
   xmlns:rdf="http://www.w3.org/1999/02/22-rdf-syntax-ns#"
   xmlns:svg="http://www.w3.org/2000/svg"
   xmlns="http://www.w3.org/2000/svg"
   xmlns:xlink="http://www.w3.org/1999/xlink"
   xmlns:sodipodi="http://sodipodi.sourceforge.net/DTD/sodipodi-0.dtd"
   xmlns:inkscape="http://www.inkscape.org/namespaces/inkscape"
   id="svg11037"
   height="96"
   width="96"
   version="1.1"
   inkscape:version="0.48.5 r10040"
   sodipodi:docname="network-vpn.svg">
  <sodipodi:namedview
     pagecolor="#ffffff"
     bordercolor="#666666"
     borderopacity="1"
     objecttolerance="10"
     gridtolerance="10"
     guidetolerance="10"
     inkscape:pageopacity="0"
     inkscape:pageshadow="2"
     inkscape:window-width="640"
     inkscape:window-height="480"
     id="namedview11846" />
  <defs
     id="defs11039">
    <clipPath
       id="clipPath3009"
       clipPathUnits="userSpaceOnUse">
      <path
         id="path3011"
         style="opacity:.15;fill:#fff"
         d="m-2 956.36h-96v33.562l96 25.687v-59.25z" />
    </clipPath>
    <linearGradient
       id="linearGradient3345"
       y2="5.9877"
       gradientUnits="userSpaceOnUse"
       x2="48"
       y1="90"
       x1="48">
      <stop
         id="stop3702-0-2-7"
         style="stop-color:#285178"
         offset="0" />
      <stop
         id="stop3704-4-9-2"
         style="stop-color:#4f759a"
         offset="1" />
    </linearGradient>
    <radialGradient
       id="radialGradient5232-9"
       gradientUnits="userSpaceOnUse"
       cy="61.949"
       cx="63.98"
       gradientTransform="matrix(1.09 0 0 .84045 -21.739 -5.4878)"
       r="58.02">
      <stop
         id="stop3877"
         style="stop-color:#fff"
         offset="0" />
      <stop
         id="stop3879"
         style="stop-color:#fff;stop-opacity:.42636"
         offset="1" />
    </radialGradient>
    <radialGradient
       id="radialGradient4246"
       xlink:href="#linearGradient5226-0"
       gradientUnits="userSpaceOnUse"
       cy="70.608"
       cx="49.234"
       gradientTransform="matrix(.46811 -.52912 1.7948 1.5822 -112.04 -37.345)"
       r="25.484" />
    <linearGradient
       id="linearGradient5226-0">
      <stop
         id="stop5228-7"
         style="stop-color:#fff"
         offset="0" />
      <stop
         id="stop5230-6"
         style="stop-color:#fff;stop-opacity:0"
         offset="1" />
    </linearGradient>
    <radialGradient
       id="radialGradient4252"
       xlink:href="#linearGradient5226-0"
       gradientUnits="userSpaceOnUse"
       cy="68.449"
       cx="64.23"
       gradientTransform="matrix(1.4544 0 0 .92611 -45.08 -12.601)"
       r="43.77" />
    <radialGradient
       id="radialGradient3216"
       gradientUnits="userSpaceOnUse"
       cy="67.125"
       cx="74.375"
       r="3.125">
      <stop
         id="stop3545"
         style="stop-color:#fff"
         offset="0" />
      <stop
         id="stop3555"
         style="stop-color:#fff"
         offset=".30645" />
      <stop
         id="stop3551"
         style="stop-color:#fff;stop-opacity:.64062"
         offset=".51899" />
      <stop
         id="stop3547"
         style="stop-color:#fff;stop-opacity:0"
         offset="1" />
    </radialGradient>
    <radialGradient
       id="radialGradient4248"
       xlink:href="#linearGradient5226-0"
       gradientUnits="userSpaceOnUse"
       cy="2.2173"
       cx="63.875"
       gradientTransform="matrix(1.0948 0 0 .33117 -21.845 32.793)"
       r="58.375" />
    <radialGradient
       id="radialGradient4250"
       xlink:href="#linearGradient5226-0"
       gradientUnits="userSpaceOnUse"
       cy="75.974"
       cx="69.75"
       gradientTransform="matrix(2.2594 -.068320 .0079787 .26386 -105.96 38.862)"
       r="58.5" />
    <linearGradient
       id="linearGradient3983"
       y2="36"
       spreadMethod="reflect"
       gradientUnits="userSpaceOnUse"
       x2="56.969"
       gradientTransform="matrix(1.5,0,0,1.5,-24,-14)"
       y1="36"
       x1="48">
      <stop
         id="stop3979"
         style="stop-color:#cbcbcb"
         offset="0" />
      <stop
         id="stop3981"
         style="stop-color:#efefef"
         offset="1" />
    </linearGradient>
    <linearGradient
       id="linearGradient4011"
       y2="24.975"
       gradientUnits="userSpaceOnUse"
       x2="47.23"
       gradientTransform="matrix(1.5,0,0,1.5,-24,-14)"
       y1="35.984"
       x1="39.031">
      <stop
         id="stop4007"
         offset="0" />
      <stop
         id="stop4009"
         style="stop-opacity:0"
         offset="1" />
    </linearGradient>
    <linearGradient
       id="linearGradient4039"
       y2="23.479"
       gradientUnits="userSpaceOnUse"
       x2="48.758"
       gradientTransform="matrix(1.5,0,0,1.5,-24,-14)"
       y1="37.282"
       x1="56.728">
      <stop
         id="stop4035"
         offset="0" />
      <stop
         id="stop4037"
         style="stop-opacity:0"
         offset="1" />
    </linearGradient>
    <linearGradient
       id="linearGradient3933"
       y2="41"
       xlink:href="#linearGradient3956"
       spreadMethod="reflect"
       gradientUnits="userSpaceOnUse"
       x2="60"
       gradientTransform="matrix(1.5,0,0,1.5,-24,-14)"
       y1="41"
       x1="48" />
    <linearGradient
       id="linearGradient3956">
      <stop
         id="stop3958"
         style="stop-color:#e6c94c"
         offset="0" />
      <stop
         id="stop3966"
         style="stop-color:#e7ce5f"
         offset=".57832" />
      <stop
         id="stop3960"
         style="stop-color:#f0de93"
         offset=".83333" />
      <stop
         id="stop3962"
         style="stop-color:#d0b64c"
         offset=".91667" />
      <stop
         id="stop3964"
         style="stop-color:#907d2e"
         offset="1" />
    </linearGradient>
    <linearGradient
       id="linearGradient3945"
       y2="41"
       xlink:href="#linearGradient3956"
       spreadMethod="reflect"
       gradientUnits="userSpaceOnUse"
       x2="60"
       gradientTransform="matrix(1.5,0,0,1.5,-24,-5)"
       y1="41"
       x1="48" />
    <linearGradient
       id="linearGradient3954"
       y2="41"
       xlink:href="#linearGradient3956"
       spreadMethod="reflect"
       gradientUnits="userSpaceOnUse"
       x2="60"
       gradientTransform="matrix(1.5,0,0,1.5,-24,4)"
       y1="41"
       x1="48" />
    <clipPath
       id="clipPath3278"
       clipPathUnits="userSpaceOnUse">
      <rect
         id="rect3280"
         style="fill:url(#linearGradient3282)"
         rx="22.826"
         ry="22.826"
         height="84"
         width="84"
         y="5.9999"
         x="6" />
    </clipPath>
    <linearGradient
       id="linearGradient3282"
       y2="1046.1"
       gradientUnits="userSpaceOnUse"
       x2="48"
       gradientTransform="matrix(1.05 0 0 1.05 -2.4 -1006.6)"
       y1="962.62"
       x1="48">
      <stop
         id="stop3797"
         style="stop-color:#13a6fd"
         offset="0" />
      <stop
         id="stop3799"
         style="stop-color:#2975b6"
         offset="1" />
    </linearGradient>
  </defs>
  <metadata
     id="metadata11042">
    <rdf:RDF>
      <cc:Work
         rdf:about="">
        <dc:format>image/svg+xml</dc:format>
        <dc:type
           rdf:resource="http://purl.org/dc/dcmitype/StillImage" />
        <dc:title />
      </cc:Work>
    </rdf:RDF>
  </metadata>
  <g
     id="layer1"
     transform="translate(0 -956.36)">
    <g
       id="g3161"
       clip-path="url(#clipPath3278)"
       transform="matrix(1.0952 0 0 1.0952 -4.5714 951.79)">
      <rect
         id="rect2419-8"
         style="fill:url(#linearGradient3345)"
         rx="6"
         ry="6"
         height="84"
         width="84"
         y="6"
         x="6" />
      <path
         id="path3522-9"
         style="opacity:.4;fill:url(#radialGradient5232-9)"
         d="m36.274 6.0964c1.6501 2.2156 0.11259 5.9154 2.6015 5.8787 1.2119 1.7132-2.4154 0.51104 0.2036 1.8314 1.5061 1.186-1.5934 1.8636 0.27178 2.9279-2.1497 1.1091 0.34844 5.8011 1.9451 6.9754 2.628 2.2121 1.1622-4.6834 4.0945-5.0421 1.5934-1.8188 4.3918-2.9863 6.3793-4.816-1.9423-0.15766-3.0765-1.3665-1.237-2.1153 3.3854 3.4687 0.8489-1.6427-1.0251-2.452 1.8134-0.57676 3.577-0.1544 3.3254-1.6505 1.9163-1.4018-1.8423-1.8544-3.1839-1.5375h-13.375zm-27.802 1.447c-2.4497 0.6979-2.6206 6.5516-0.1583 3.3016 0.6043-1.3352 3.3973-2.9437 0.1583-3.3016zm11.447 0.2035c-1.4123 2.2142 0.20491 3.9895 1.3799 1.2888 0.83171-1.1278-0.61793-1.2475-1.3799-1.2888zm3.529 0.49743c-2.7288 1.2646-0.6726 4.2135-0.60506 4.8693 2.8746 0.99433 4.4732-0.65011 5.5607 2.1604 2.7352 1.5762-0.0538 4.3149-1.0805 5.0282 1.8493-1.6104 5.4042 4.3783 4.4723 1.2143-1.1118-0.81167 2.9852 1.3039 0.85962-1.334-1.9561-3.1511 0.15527-1.4107 0.97995-0.67527 2.8049-2.5148-3.1736-2.8188-1.6812-5.4069-1.309-1.059-3.024-4.267-5.34-3.64-1.55 2.005-0.214-4.3676-2.488-1.1788-0.11789 1.7825-0.0429 4.0444-0.70571 0.95635-0.44407-0.54061 0.764-1.7974 0.0273-1.9932zm-5.5649 0.022612c-1.832 0.6106-1.734 3.0851 0.519 3.3501 0.771-0.879 0.306-3.1835-0.519-3.35zm-7.149 0.7914c-2.3791 0.5636-1.408 2.4816-0.67957 3.0218-2.9449 0.73756 4.4957 0.94266 0.79268 1.4098-3.0808 1.2302 2.9667 2.6796 3.9588 1.221 3.8044 0.93027 0.13691-3.045-0.19704-5.1999-1.6128-1.7306-0.06365 3.9896-1.5219 0.18432-0.50879 1.13-2.1265 0.16652-2.353-0.63694zm75.601 0.2487c-3.1924 1.2492 1.9842 5.9635 0.69765 1.6747-0.12817-0.51787 0.28819-1.8862-0.69765-1.6747zm-66.665 1.899c-2.2941 2.1556 2.916 3.9382-0.65889 5.5442-0.53602-2.0019-1.4583 1.0016-3.5035-0.61511-3.5159 1.4637-5.3139-0.76245-8.2575-2.2884-1.768-0.22006-1.1038 1.6797-1.2209 3.4585v14.748c1.7335 1.8236 0.67633 0.80458 0 0.3016 0.95147 3.24-0.41957 7.9763 3.3309 9.8609 0.63756 1.1824 3.3129 6.22 3.4362 4.7127-1.3412-1.4044-2.7174-5.6146-0.4479-1.8621 2.0328 3.567 4.7748 5.8806 8.7805 6.7294 2.1901 0.74486 3.9912 3.3053 5.9171 2.742 1.089 2.8705-3.2274 5.6271 0.14491 8.3045 1.7605 2.7104 4.7162 4.4882 3.116 8.2934-1.1191 3.7164-0.63993 7.7659-1.6078 11.229-0.30039 2.1077 2.938 7.4573 2.6575 3.1735 0.94557-2.9769 0.92064-6.2525 3.1476-8.3607 3.0471 0.02412 0.58237-3.2761 3.607-2.845 1.8456-2.4189 2.3802-5.3045 5.4949-6.265 0.37205-2.9361 5.1788-7.4329 0.21314-8.5761-1.3496-0.66512-4.8245-0.90428-4.5589-1.2325 0.53803-2.9134-4.4935-3.7428-6.6342-4.9348-2.8108-1.9949-7.0342 3.3139-8.0245-1.2604-0.59088-1.4392-2.7513-1.4626-1.7584-3.6834-1.7894 1.7794-5.2893 1.2386-4.373-2.1978 1.3916-2.8942 6.7356-3.0311 7.6463 0.45006-1.2644-3.8393 2.4439-6.828 4.5025-9.5595 0.41916-1.3056 2.9097-2.4272 2.0527-0.69208 1.4602-0.05266 3.6733-2.6873 1.0794-1.4713-0.0367-2.4027-2.273-1.7194-2.998-1.3782 1.3438-2.1325 8.245-0.96665 5.3551-4.4524-2.2393-0.90723-2.053-6.2014-4.318-3.252 0.1906-1.8172-4.61-5.3745-4.5052-2.3272 0.58599 2.7268 0.10714 5.868-1.1399 7.6553-0.26025-3.9956-7.0757-3.1125-6.1994-7.3703 1.2695-2.0293 2.7529-4.8355 2.8942-4.5831 2.275-0.86851 4.1046-3.3948 1.4678-5.0556-0.14092 1.4475-1.983 4.4339-1.7237 0.82192-1.7058 2.0222-1.3162-3.2178-2.9138-3.7613zm54.45 1.4018c-3.9959 0.97735-5.5801 4.7935-7.5568 7.9542-2.9139 1.3136-2.8029 6.9549 0.45241 5.1531 0.87128 1.5215-0.60951 3.9197 1.9283 1.9303 2.047-2.7086 0.35794-7.0892 3.8414-8.7971 0.25374 1.328-3.2133 6.2867 0.83699 5.4717 3.6616 0.13814-2.6618 0.36479-0.88099 2.7034-1.8503-1.0977-0.88884 2.9978-3.304 2.0448-2.0923 1.138-3.4643-0.52837-2.985-2.3538-1.646 0.9601 0.5177 3.6686-2.3396 3.8314-0.64005 2.2725-5.9034 1.93-2.9102 4.244 1.3289 3.4436-4.9515 0.21588-3.1685 4.3484 1.5254 4.0864 4.7224-1.354 6.0194-2.4052 2.5025-1.9409 6.2107 3.3094 3.9588 3.5046 2.5251-0.33874 2.0062-2.7399-0.0169-3.6695-1.0927-2.8335 3.459 1.3896 3.2066 2.8103 1.606 3.0069 0.94462-3.0786 2.5788-0.38437-0.1908 2.842 6.5742 0.66822 3.3444 4.2903-2.7769 0.55924-5.5101-0.71579-7.9008 0.10088-2.2251-0.01969-2.1135-2.3968-2.9236-2.9921-2.8304 0.22993-6.3279 0.20393-8.2228 2.4902-2.049 2.8109-5.0038 6.7404-2.7705 10.33 2.2349 5.3188 7.7772 0.27589 10.963 3.4171 0.94693 1.3097-0.8206 2.8666 1.2967 4.2853 0.79672 3.022-0.90448 5.8914 1.0523 8.7803 1.0118 2.7168 1.6398 6.7833 5.4058 4.3007 3.9858-2.3983 2.9242-6.8193 6.2129-9.268-2.6023-5.0356 3.1836-7.2435 4.6272-11.331-3.154 0.46168-5.9638-2.6824-6.7258-5.847-1.3249-1.5371-0.98368-3.8036 0.49633-0.91601 2.0343 1.9709 2.0782 7.8192 5.8413 4.8106 1.7204-0.71948 6.4186-3.464 2.6751-4.713-2.413 1.7475-5.0752-5.2217-1.5318-1.1794 2.576 1.0928 4.38 1.7438 4.38-1.8792v-29.482c-0.8024 0.81987-2.8638 2.3341-3.9043 1.3279-1.7904 0.24928-4.1539 3.7324-3.5912 0.36536-1.5562-0.10304-0.27858 3.019-2.4166 3.1063-0.21529 1.6051-2.1599 0.29723-1.4294 1.8215-1.5006-1.0643-2.7707-4.4248 0.18614-2.3156 4.391-1.3172-2.8956-4.2883-3.458-5.0064 0.94545-0.2265-1.0286-1.2116-1.2668-0.8818zm-36.24 0.8818c-1.4615 1.2176 2.7785 1.4469 0 0zm-19.522 0.6557c-1.6346 1.7097 2.6033 1.5717 0 0zm9.4784 1.6958c-1.2379 2.0276 1.829 0.74857 0 0zm27.101 2.3967c-1.4492 1.6682-3.362-0.43904-3.3932 0.99485 0.26265 0.43326 1.3147 3.5255 3.6194 1.2436 1.237-0.52145 0.74995-1.836-0.22622-2.2384zm-30.856 0.99485c-2.7488 2.4003 4.6683 2.6214 0.58232 0.27529l-0.58232-0.27529zm36.262 6.6474c-1.9791 1.2904 0.94943 4.0308-0.0431 5.3181-1.2401 2.1604 4.6083-0.15218 1.4846-1.8758-0.22257-1.4809-1.83-3.2877-1.4415-3.4423zm-1.3347 2.6002c-2.7574 0.77947-0.62595 4.8038 0.35067 1.0135 0.0549-0.21975 0.12936-1.0208-0.35067-1.0135zm-22.079 2.9167c-2.5652 1.749-0.39843 3.4947 1.4816 2.7078-0.38596-1.0552-1.4642-1.7201-1.4816-2.7078zm48.455 2.9393c1.28 0.64588-2.3455 1.7492-0.0498 2.8859 1.336 1.5709 0.83231 4.943-1.3392 2.5564 0.40344-2.6647-2.9436-4.6547 1.389-5.4423zm-6.5829 0.02261c-0.17366 1.7119 3.694 4.373-0.47504 3.5046-2.2048 0.2586-5.507-0.06736-2.7294-2.8143 0.87765-0.52682 3.1821 1.8176 1.9829-0.37376 0.42513-0.02712 0.82107-0.18758 1.2216-0.31654zm-12.735 3.707c-1.6081 1.0359 1.112 1.8302 0 0zm-40.379 9.6546c-0.27111 0.90435 5.086 1.8208 1.3893 0.37196l-0.55107-0.19395-0.83822-0.17801zm4.1624 1.2888c-1.6249 1.6494 3.3478 0.49277 0 0zm54.337 15.126c-3.5307 0.09109-3.0613 9.197-0.60013 3.8089 0.2334-1.1692 1.1689-2.7124 0.60013-3.8089z" />
      <g
         id="layer7">
        <g
           id="g3125">
          <g
             id="layer3">
            <g
               id="g4234">
              <path
                 id="path3583"
                 style="stroke:url(#radialGradient4246);stroke-width:2;fill:none"
                 d="m7 29.523c51.25 8.825 31.634 59.477 31.634 59.477" />
              <path
                 id="path3581"
                 style="stroke:url(#radialGradient4252);stroke-width:2;fill:none"
                 d="m27.677 88.824c-1.061-15.532 28.452-60.183 61.146-67.949" />
              <path
                 id="path3537"
                 style="fill:url(#radialGradient3216);fill-rule:evenodd"
                 transform="matrix(1.3572 0 0 1.3554 -73.268 -53.872)"
                 d="m77.5 67.125a3.125 3.125 0 1 1 -6.25 0 3.125 3.125 0 1 1 6.25 0z" />
              <path
                 id="path3557"
                 style="fill-rule:evenodd;fill:url(#radialGradient3216)"
                 transform="matrix(1.0745 0 0 1.0731 -39.514 -14.091)"
                 d="m77.5 67.125a3.125 3.125 0 1 1 -6.25 0 3.125 3.125 0 1 1 6.25 0z" />
              <path
                 id="path3561"
                 style="fill-rule:evenodd;fill:url(#radialGradient3216)"
                 transform="matrix(1.5834 0 0 1.5813 -53.334 -72.389)"
                 d="m77.5 67.125a3.125 3.125 0 1 1 -6.25 0 3.125 3.125 0 1 1 6.25 0z" />
              <path
                 id="path3565"
                 style="opacity:.6;fill-rule:evenodd;fill:url(#radialGradient3216)"
                 transform="matrix(1.0219 0 0 1.0206 -15.636 -16.922)"
                 d="m77.5 67.125a3.125 3.125 0 1 1 -6.25 0 3.125 3.125 0 1 1 6.25 0z" />
              <path
                 id="path3569"
                 style="opacity:.7;fill-rule:evenodd;fill:url(#radialGradient3216)"
                 transform="matrix(.89260 0 0 .89141 -51.611 -28.372)"
                 d="m77.5 67.125a3.125 3.125 0 1 1 -6.25 0 3.125 3.125 0 1 1 6.25 0z" />
              <path
                 id="path3573"
                 style="opacity:.6;fill-rule:evenodd;fill:url(#radialGradient3216)"
                 transform="matrix(.56552 0 0 .56477 38.457 3.2615)"
                 d="m77.5 67.125a3.125 3.125 0 1 1 -6.25 0 3.125 3.125 0 1 1 6.25 0z" />
              <path
                 id="path3577"
                 style="stroke:url(#radialGradient4248);stroke-width:2;fill:none"
                 d="m7.1767 47.702c28.099-19.414 65.211-20.473 81.823 1.588" />
              <path
                 id="path3585"
                 style="opacity:.6;stroke:url(#radialGradient4250);stroke-width:1.5;fill:none"
                 d="m7.1767 67.821c51.25-11.472 82-30.179 82-30.179" />
              <path
                 id="path3352"
                 style="opacity:.6;fill-rule:evenodd;fill:url(#radialGradient3216)"
                 transform="matrix(.84547 0 0 .84435 15.553 -31.918)"
                 d="m77.5 67.125a3.125 3.125 0 1 1 -6.25 0 3.125 3.125 0 1 1 6.25 0z" />
            </g>
          </g>
          <path
             id="path3488"
             style="opacity:.3;color:#000000"
             d="m47.625 21.562c-0.12406 0.01-0.24832 0.02416-0.375 0.03125-7.079 0.392-12.688 6.231-12.688 13.407v9h-3.062c-0.831 0-1.5 0.669-1.5 1.5v6c0 0.831 0.669 1.5 1.5 1.5-0.831 0-1.5 0.669-1.5 1.5v6c0 0.831 0.669 1.5 1.5 1.5-0.831 0-1.5 0.669-1.5 1.5v6c0 0.831 0.669 1.5 1.5 1.5h33c0.831 0 1.5-0.669 1.5-1.5v-6c0-0.831-0.669-1.5-1.5-1.5 0.831 0 1.5-0.669 1.5-1.5v-6c0-0.831-0.669-1.5-1.5-1.5 0.831 0 1.5-0.669 1.5-1.5v-6c0-0.831-0.669-1.5-1.5-1.5h-3.0625v-9c0-4.5717-2.2643-8.6002-5.75-11.031-0.0537-0.03726-0.10198-0.08849-0.15625-0.125-0.22838-0.1543-0.48067-0.29715-0.71875-0.4375-0.01215-0.0072-0.01907-0.02412-0.03125-0.03125-0.01974-0.01155-0.0427-0.01979-0.0625-0.03125-0.012-0.007-0.02-0.025-0.031-0.032-0.092-0.052-0.189-0.105-0.282-0.156-1.242-0.674-2.592-1.15-4.031-1.406-0.775-0.14-1.562-0.188-2.375-0.188-0.07464 0-0.14655 0.000306-0.21875 0-0.05214-0.0022-0.10396 0.0016-0.15625 0zm0 4.5c0.12406-0.0049 0.24953 0 0.375 0 1.8841 0 3.6047 0.54442 5.0312 1.5 0.0074 0.0051 0.02382-0.0052 0.03125 0 0.17442 0.11757 0.33499 0.24563 0.5 0.375 1.4228 1.1433 2.4884 2.722 3.0312 4.5625 0.0432 0.15533 0.08979 0.30995 0.125 0.46875 0.01707 0.07071 0.01572 0.14736 0.03125 0.21875 0.05097 0.25881 0.12709 0.51452 0.15625 0.78125 0.037 0.336 0.032 0.685 0.032 1.032v9h-17.875v-9c0-0.29564 0.0046-0.58748 0.03125-0.875 0.000955-0.01038-0.000989-0.02089 0-0.03125 0.000999-0.01041-0.001-0.02085 0-0.03125 0.0225-0.22857 0.05505-0.43356 0.09375-0.65625 0.0019-0.0099-0.0019-0.02133 0-0.03125 0.0056-0.03183 0.02532-0.06205 0.03125-0.09375 0.04967-0.26693 0.11546-0.52394 0.1875-0.78125 0.0029-0.0098-0.0029-0.0215 0-0.03125 0.0091-0.03212 0.0218-0.06179 0.03125-0.09375 0.06858-0.23164 0.13273-0.46465 0.21875-0.6875 0.005-0.01281 0.02624-0.01847 0.03125-0.03125 0.01237-0.0307 0.01858-0.06322 0.03125-0.09375 0.08547-0.21162 0.18061-0.42225 0.28125-0.625 0.01664-0.03351 0.04546-0.06049 0.0625-0.09375 0.39756-0.76555 0.88712-1.4807 1.4688-2.0938 0.02078-0.02164 0.0415-0.04108 0.0625-0.0625 0.10097-0.1044 0.20671-0.21326 0.3125-0.3125 0.03832-0.03522 0.08605-0.05921 0.125-0.09375 0.05046-0.04479 0.10474-0.08137 0.15625-0.125 0.03299-0.0286 0.06035-0.06564 0.09375-0.09375 0.05091-0.04184 0.10438-0.08429 0.15625-0.125 0.02933-0.02357 0.06412-0.03931 0.09375-0.0625 0.08731-0.06661 0.1601-0.15537 0.25-0.21875 0.11744-0.08301 0.25329-0.14141 0.375-0.21875 0.03207-0.02033 0.06139-0.04257 0.09375-0.0625 0.14289-0.08826 0.28915-0.16975 0.4375-0.25 0.27354-0.14669 0.55312-0.28801 0.84375-0.40625 0.08184-0.03334 0.16689-0.06276 0.25-0.09375 0.18365-0.06879 0.37295-0.13048 0.5625-0.1875 0.09432-0.02824 0.18554-0.0685 0.28125-0.09375 0.05992-0.01592 0.12705-0.01652 0.1875-0.03125 0.02187-0.0053 0.04056-0.02608 0.0625-0.03125 0.0829-0.01955 0.16615-0.01397 0.25-0.03125 0.02218-0.0046 0.04026-0.02682 0.0625-0.03125 0.01028-0.002 0.02096 0.002 0.03125 0 0.25332-0.04958 0.48878-0.09656 0.75-0.125 0.21413-0.02333 0.43734-0.02269 0.65625-0.03125z" />
          <path
             id="path3974"
             style="color:#000000;fill:url(#linearGradient3983)"
             d="m48 20.547c-7.43 0-13.453 6.023-13.453 13.453v12c0 7.4296 6.0235 13.453 13.453 13.453 7.4296 0 13.453-6.0235 13.453-13.453v-12c0-7.43-6.023-13.453-13.453-13.453zm0 4.5c5.0242 0 8.9531 3.9289 8.9531 8.9531v12c0 5.0242-3.9289 8.9531-8.9531 8.9531s-8.9531-3.9289-8.9531-8.9531v-12c0-5.0242 3.9289-8.9531 8.9531-8.9531z" />
          <path
             id="rect3985"
             style="opacity:.1;color:#000000"
             d="m48 23.5c-5.817 0-10.5 4.683-10.5 10.5v18c0 0.99283 0.16668 1.9503 0.42188 2.8594 2.4658 2.8111 6.0452 4.5938 10.078 4.5938 4.0329 0 7.6123-1.7826 10.078-4.5938 0.255-0.909 0.422-1.866 0.422-2.859v-18c0-5.817-4.683-10.5-10.5-10.5zm0 1.5469c5.0242 0 8.9531 3.9289 8.9531 8.9531v12c0 5.0242-3.9289 8.9531-8.9531 8.9531s-8.9531-3.9289-8.9531-8.9531v-12c0-5.0242 3.9289-8.9531 8.9531-8.9531z" />
          <path
             id="path3993"
             style="opacity:.2;color:#000000"
             transform="matrix(1.4328 0 0 1.4814 -20.776 -13.095)"
             d="m48 25.312c-3.7028 0-6.6875 2.9847-6.6875 6.6875v12c0 0.59376 0.13129 1.1617 0.28125 1.7188 1.584 1.7785 3.8381 2.9375 6.4062 2.9375s4.8223-1.159 6.4062-2.9375c0.15-0.557 0.282-1.125 0.282-1.719v-12c0-3.7028-2.9847-6.6875-6.6875-6.6875zm0 0.40625c3.5197 0 6.2812 2.7616 6.2812 6.2812v8c0 3.5197-2.7616 6.2812-6.2812 6.2812-3.5197 0-6.2812-2.7616-6.2812-6.2812v-8c0-3.5197 2.7616-6.2812 6.2812-6.2812z" />
          <path
             id="path3995"
             style="opacity:.2;color:#000000;fill:url(#linearGradient4011)"
             d="m48 20.547c-7.43 0-13.453 6.023-13.453 13.453v12c0 7.2052 5.6782 13.057 12.797 13.406-6.784-0.678-12.094-6.36-12.094-13.218v-11.812c0-7.3157 6.0235-13.219 13.453-13.219 2.9423 0 5.6606 0.9064 7.875 2.4844-2.325-1.92-5.328-3.094-8.578-3.094zm5.7656 6.5156c1.9661 1.629 3.1875 4.1243 3.1875 6.9375v12c0 5.0242-3.9289 8.9531-8.9531 8.9531-0.26703 0-0.53646-0.02511-0.79688-0.04687 0.48679 0.07758 0.9874 0.09375 1.5 0.09375 5.0242 0 8.9531-3.8654 8.9531-8.8125v-11.812c0-3.092-1.513-5.7443-3.8906-7.3125z" />
          <path
             id="path4013"
             style="opacity:.1;color:#000000"
             d="m48 20.547c-7.43 0-13.453 6.023-13.453 13.453v12h1.1719v-12c0-7.2217 5.702-13.129 12.844-13.453-0.18996-0.008-0.37058 0-0.5625 0z" />
          <path
             id="path4024"
             style="opacity:.15;color:#000000;fill:url(#linearGradient4039)"
             d="m48 20.547c-0.25644 0-0.4971 0.03271-0.75 0.04687 7.074 0.396 12.703 6.233 12.703 13.406v12c0 7.1732-5.6289 13.01-12.703 13.406 0.2529 0.0141 0.49356 0.04687 0.75 0.04687 7.4296 0 13.453-6.0235 13.453-13.453v-12c0-7.43-6.023-13.453-13.453-13.453zm-1.5 4.5c-5.0242 0-8.9531 3.9289-8.9531 8.9531v12c0 5.0242 3.9289 8.9531 8.9531 8.9531 0.18872 0 0.37702-0.03594 0.5625-0.04687-4.572-0.45-8.016-4.196-8.016-8.906v-12c0-4.7102 3.4442-8.4562 8.0156-8.9062-0.186-0.011-0.374-0.047-0.563-0.047z" />
          <path
             id="path4041"
             style="opacity:.2;color:#000000"
             d="m47.625 20.547c7.231 0.227 13.031 6.167 13.031 13.453v12c0 7.2857-5.8007 13.226-13.031 13.453 0.12708 0.0036 0.24705 0 0.375 0 7.4296 0 13.453-6.0235 13.453-13.453v-12c0-7.43-6.023-13.453-13.453-13.453-0.12795 0-0.24791-0.0036-0.375 0zm-0.42188 4.5c-5.024 0-8.953 3.929-8.953 8.953v12c0 5.0242 3.9289 8.9531 8.9531 8.9531 0.14096 0 0.28271 0.0062 0.42188 0-4.844-0.189-8.578-4.054-8.578-8.953v-12c0-4.8989 3.7342-8.7638 8.5781-8.9531-0.13917-0.0061-0.28092 0-0.42188 0z" />
          <path
             id="rect4052"
             style="opacity:.3;block-progression:tb;text-indent:0;color:#000000;text-transform:none;fill:#fff"
             d="m47.953 22.75 1.1719 0.04687h0.04687l1.0781 0.1875h0.04687l1.0312 0.28125h0.04687l0.98438 0.32812 0.04687 0.04687 0.9375 0.42188 0.04687 0.04687 0.89062 0.51562 0.04687 0.04687 0.23438 0.1875 0.703 0.14 0.468-0.516-0.14-0.703-0.141-0.093-0.281-0.235-0.047-0.047-0.984-0.609-0.094-0.047-1.0312-0.46875-0.09375-0.04687-1.0781-0.42188h-0.09375l-1.125-0.28125-0.09375-0.04687-1.1719-0.1875h-0.09375l-1.2188-0.04687c-1.4345-0.10008-1.7284 1.6334-0.09375 1.5zm-6 0-0.09375 0.04687-0.98438 0.60938-0.04687 0.04687-0.9375 0.65625-0.04687 0.04687l-0.843 0.797-0.047 0.047-0.79688 0.84375-0.04687 0.04687-0.65625 0.9375-0.04687 0.04687-0.60938 0.98438-0.04687 0.09375-0.42188 0.9375v0.70312l0.60938 0.375 0.65625-0.28125 0.09375-0.1875 0.375-0.84375 0.04687-0.04687 0.51562-0.89062 0.04687-0.04687 0.60938-0.79688 0.04687-0.04687 0.70312-0.75h0.04687v-0.04687l0.75-0.70312 0.04687-0.04687 0.79688-0.60938 0.04687-0.04687 0.89062-0.51562 0.04687-0.04687 0.89062-0.375c1.067-0.701-0.047-1.688-0.656-1.36z" />
          <path
             id="path4061"
             style="opacity:.6;block-progression:tb;text-indent:0;color:#000000;text-transform:none;fill:#fff"
             transform="matrix(1.5,0,0,1.5,-24,-14)"
             d="m48.031 23.688c-0.3993-0.02786-0.5759 0.19484-0.59375 0.34375-0.0089 0.07446-0.0071 0.13251 0.0625 0.1875 0.06958 0.05499 0.19869 0.11324 0.4375 0.09375a0.1949 0.1949 0 0 1 0.03125 0l0.78125 0.03125h0.03125a0.1949 0.1949 0 0 1 0.03125 0l0.6875 0.125h0.03125a0.1949 0.1949 0 0 1 0.03125 0 0.1949 0.1949 0 0 1 0.03125 0l0.625 0.1875h0.0625a0.1949 0.1949 0 0 1 0.03125 0l0.65625 0.21875a0.1949 0.1949 0 0 1 0.0625 0.03125l0.625 0.28125a0.1949 0.1949 0 0 1 0.03125 0.03125 0.1949 0.1949 0 0 1 0 0.03125l0.03125 0.03125 0.5625 0.3125a0.1949 0.1949 0 0 1 0.03125 0 0.1949 0.1949 0 0 1 0 0.03125h0.03125l0.125 0.09375 0.033 0.031 0.25 0.03125 0.1875-0.1875-0.0625-0.3125a0.1949 0.1949 0 0 1 -0.03125 0l-0.188-0.156a0.1949 0.1949 0 0 1 0 -0.03125l-0.031-0.032-0.625-0.374v0.031l-0.062-0.031-0.688-0.313-0.03125-0.03125h-0.03125l-0.688-0.282a0.1949 0.1949 0 0 1 -0.03125 0 0.1949 0.1949 0 0 1 -0.03125 0l-0.75-0.1875a0.1949 0.1949 0 0 1 -0.03125 0l-0.0625-0.03125-0.6875-0.125h-0.0625l-0.8125-0.03125zm-3.343 0.687a0.1949 0.1949 0 0 1 0 0.03125l-0.626 0.282-0.062 0.031v-0.03125l-0.625 0.375-0.03125 0.03125a0.1949 0.1949 0 0 1 0 0.03125l-0.625 0.4375h-0.03125a0.1949 0.1949 0 0 1 0 0.03125l-0.563 0.532-0.531 0.563a0.1949 0.1949 0 0 1 -0.03125 0v0.03125l-0.4375 0.625a0.1949 0.1949 0 0 1 -0.03125 0l-0.033 0.031-0.374 0.625h0.03125l-0.03125 0.0625-0.28125 0.625v0.28125l0.21875 0.125 0.28125-0.125 0.03125-0.0625 0.25-0.5625a0.1949 0.1949 0 0 1 0.03125 -0.03125 0.1949 0.1949 0 0 1 0.03125 0l0.03125-0.03125 0.3125-0.5625a0.1949 0.1949 0 0 1 0 -0.03125 0.1949 0.1949 0 0 1 0.03125 0v-0.03125l0.40625-0.53125a0.1949 0.1949 0 0 1 0.03125 0v-0.03125l0.46875-0.46875a0.1949 0.1949 0 0 1 0 -0.03125 0.1949 0.1949 0 0 1 0.03125 -0.03125 0.1949 0.1949 0 0 1 0.03125 0 0.1949 0.1949 0 0 1 0 -0.03125h0.03125l0.46875-0.46875h0.03125a0.1949 0.1949 0 0 1 0 -0.03125l0.53125-0.40625h0.03125a0.1949 0.1949 0 0 1 0.03125 -0.03125l0.5625-0.3125 0.03-0.032a0.1949 0.1949 0 0 1 0.0625 -0.0625l0.5625-0.21875c0.02063-0.01354 0.01444-0.01822 0.03125-0.03125 0.10328-0.08006 0.14581-0.16503 0.15625-0.21875 0.01214-0.06247-0.01479-0.12428-0.0625-0.1875s-0.1107-0.13087-0.1875-0.15625-0.14368-0.0236-0.1875 0z" />
          <rect
             id="rect3138"
             style="color:#000000;fill:url(#linearGradient3933)"
             rx="1.5"
             ry="1.5"
             height="9"
             width="36"
             y="43"
             x="30" />
          <path
             id="rect3148"
             style="opacity:.3;color:#000000;fill:#fff"
             d="m31.5 43c-0.831 0-1.5 0.669-1.5 1.5v1.5c0-0.831 0.669-1.5 1.5-1.5h33c0.831 0 1.5 0.669 1.5 1.5v-1.5c0-0.831-0.669-1.5-1.5-1.5h-33z" />
          <path
             id="rect3921"
             style="opacity:.15;color:#000000;fill:#a05a2c"
             d="m30 49v1.5c0 0.831 0.669 1.5 1.5 1.5h33c0.831 0 1.5-0.669 1.5-1.5v-1.5c0 0.831-0.669 1.5-1.5 1.5h-33c-0.831 0-1.5-0.669-1.5-1.5z" />
          <rect
             id="rect3939"
             style="color:#000000;fill:url(#linearGradient3945)"
             rx="1.5"
             ry="1.5"
             height="9"
             width="36"
             y="52"
             x="30" />
          <path
             id="path3941"
             style="opacity:.3;color:#000000;fill:#fff"
             d="m31.5 52c-0.831 0-1.5 0.669-1.5 1.5v1.5c0-0.831 0.669-1.5 1.5-1.5h33c0.831 0 1.5 0.669 1.5 1.5v-1.5c0-0.831-0.669-1.5-1.5-1.5h-33z" />
          <path
             id="path3943"
             style="opacity:.15;color:#000000;fill:#a05a2c"
             d="m30 58v1.5c0 0.831 0.669 1.5 1.5 1.5h33c0.831 0 1.5-0.669 1.5-1.5v-1.5c0 0.831-0.669 1.5-1.5 1.5h-33c-0.831 0-1.5-0.669-1.5-1.5z" />
          <rect
             id="rect3947"
             style="color:#000000;fill:url(#linearGradient3954)"
             rx="1.5"
             ry="1.5"
             height="9"
             width="36"
             y="61"
             x="30" />
          <path
             id="path3949"
             style="opacity:.3;color:#000000;fill:#fff"
             d="m31.5 61c-0.831 0-1.5 0.669-1.5 1.5v1.5c0-0.831 0.669-1.5 1.5-1.5h33c0.831 0 1.5 0.669 1.5 1.5v-1.5c0-0.831-0.669-1.5-1.5-1.5h-33z" />
          <path
             id="path3952"
             style="opacity:.15;color:#000000;fill:#a05a2c"
             d="m30 67v1.5c0 0.831 0.669 1.5 1.5 1.5h33c0.831 0 1.5-0.669 1.5-1.5v-1.5c0 0.831-0.669 1.5-1.5 1.5h-33c-0.831 0-1.5-0.669-1.5-1.5z" />
        </g>
      </g>
    </g>
    <rect
       id="rect3003"
       style="opacity:.15;fill:#fff"
       clip-path="url(#clipPath3009)"
       rx="25"
       ry="25"
       transform="translate(98)"
       width="92"
       y="958.36"
       x="-96"
       height="92" />
  </g>
</svg>
