<?xml version="1.0" encoding="UTF-8" standalone="no"?>
<!-- Created with Inkscape (http://www.inkscape.org/) -->

<svg
   xmlns:dc="http://purl.org/dc/elements/1.1/"
   xmlns:cc="http://creativecommons.org/ns#"
   xmlns:rdf="http://www.w3.org/1999/02/22-rdf-syntax-ns#"
   xmlns:svg="http://www.w3.org/2000/svg"
   xmlns="http://www.w3.org/2000/svg"
   xmlns:sodipodi="http://sodipodi.sourceforge.net/DTD/sodipodi-0.dtd"
   xmlns:inkscape="http://www.inkscape.org/namespaces/inkscape"
   id="svg11037"
   height="96"
   width="96"
   version="1.1"
   inkscape:version="0.48.5 r10040"
   sodipodi:docname="scanner.svg">
  <sodipodi:namedview
     pagecolor="#ffffff"
     bordercolor="#666666"
     borderopacity="1"
     objecttolerance="10"
     gridtolerance="10"
     guidetolerance="10"
     inkscape:pageopacity="0"
     inkscape:pageshadow="2"
     inkscape:window-width="640"
     inkscape:window-height="480"
     id="namedview12895" />
  <defs
     id="defs11039">
    <clipPath
       id="clipPath3009"
       clipPathUnits="userSpaceOnUse">
      <path
         id="path3011"
         style="opacity:.15;fill:#fff"
         d="m-2 956.36h-96v33.562l96 25.687v-59.25z" />
    </clipPath>
    <linearGradient
       id="linearGradient3617"
       y2="5.9877"
       gradientUnits="userSpaceOnUse"
       x2="48"
       y1="90"
       x1="48">
      <stop
         id="stop3702"
         style="stop-color:#b8b8b8"
         offset="0" />
      <stop
         id="stop3704"
         style="stop-color:#d0d0d0"
         offset="1" />
    </linearGradient>
    <radialGradient
       id="radialGradient3906"
       gradientUnits="userSpaceOnUse"
       cy="120.43"
       cx="53.143"
       gradientTransform="matrix(1.5 0 0 1.1094 -27.714 -36.597)"
       r="16">
      <stop
         id="stop3921"
         style="stop-opacity:.38095"
         offset="0" />
      <stop
         id="stop3923"
         style="stop-opacity:.23256"
         offset=".78125" />
      <stop
         id="stop3925"
         offset="1" />
    </radialGradient>
    <linearGradient
       id="linearGradient3613"
       y2="138.66"
       gradientUnits="userSpaceOnUse"
       x2="48"
       y1="20.221"
       x1="48">
      <stop
         id="stop3644"
         style="stop-color:#06f9ff"
         offset="0" />
      <stop
         id="stop3646"
         style="stop-color:#06f9ff;stop-opacity:0"
         offset="1" />
    </linearGradient>
    <clipPath
       id="clipPath3613">
      <rect
         id="rect3615"
         style="fill:#fff"
         rx="6"
         ry="6"
         height="84"
         width="84"
         y="6"
         x="6" />
    </clipPath>
    <filter
       id="filter3794"
       height="1.384"
       width="1.384"
       y="-.192"
       x="-.192"
       color-interpolation-filters="sRGB">
      <feGaussianBlur
         id="feGaussianBlur3796"
         stdDeviation="5.28" />
    </filter>
    <linearGradient
       id="linearGradient3675"
       y2="8"
       gradientUnits="userSpaceOnUse"
       x2="48"
       y1="80"
       x1="48">
      <stop
         id="stop3655"
         style="stop-color:#d4d4d4"
         offset="0" />
      <stop
         id="stop3657"
         style="stop-color:#ededed"
         offset="1" />
    </linearGradient>
    <linearGradient
       id="linearGradient3856"
       y2="-16"
       gradientUnits="userSpaceOnUse"
       x2="48"
       gradientTransform="translate(90)"
       y1="80"
       x1="48">
      <stop
         id="stop3713"
         offset="0" />
      <stop
         id="stop3715"
         style="stop-opacity:0"
         offset="1" />
    </linearGradient>
    <radialGradient
       id="radialGradient4020"
       gradientUnits="userSpaceOnUse"
       cy="39"
       cx="48"
       gradientTransform="matrix(1 0 0 .5 0 19.5)"
       r="10">
      <stop
         id="stop4016"
         style="stop-color:#fff"
         offset="0" />
      <stop
         id="stop4018"
         style="stop-color:#fff;stop-opacity:0"
         offset="1" />
    </radialGradient>
    <linearGradient
       id="linearGradient4115"
       y2="87.04"
       gradientUnits="userSpaceOnUse"
       x2="77.726"
       gradientTransform="translate(-1)"
       y1="83.089"
       x1="77.726">
      <stop
         id="stop4100"
         style="stop-color:#7c8181"
         offset="0" />
      <stop
         id="stop4102"
         style="stop-color:#dfe0e0"
         offset="1" />
    </linearGradient>
    <radialGradient
       id="radialGradient4112"
       gradientUnits="userSpaceOnUse"
       cy="85"
       cx="77.5"
       gradientTransform="matrix(1 0 0 .4 -1 51)"
       r="2.5">
      <stop
         id="stop4108"
         style="stop-color:#a0ff0e"
         offset="0" />
      <stop
         id="stop4110"
         style="stop-color:#5ce500"
         offset="1" />
    </radialGradient>
    <linearGradient
       id="linearGradient4133"
       y2="64"
       gradientUnits="userSpaceOnUse"
       x2="47"
       gradientTransform="translate(0,2)"
       y1="68"
       x1="47">
      <stop
         id="stop4137"
         style="stop-color:#cacaca"
         offset="0" />
      <stop
         id="stop4139"
         style="stop-color:#f5f5f5"
         offset="1" />
    </linearGradient>
    <clipPath
       id="clipPath3196"
       clipPathUnits="userSpaceOnUse">
      <rect
         id="rect3198"
         style="fill:url(#linearGradient3200)"
         rx="22.826"
         ry="22.826"
         height="84"
         width="84"
         y="6"
         x="6" />
    </clipPath>
    <linearGradient
       id="linearGradient3200"
       y2="1046.1"
       gradientUnits="userSpaceOnUse"
       x2="48"
       gradientTransform="matrix(1.05 0 0 1.05 -2.4 -1006.6)"
       y1="962.62"
       x1="48">
      <stop
         id="stop3797"
         style="stop-color:#13a6fd"
         offset="0" />
      <stop
         id="stop3799"
         style="stop-color:#2975b6"
         offset="1" />
    </linearGradient>
  </defs>
  <metadata
     id="metadata11042">
    <rdf:RDF>
      <cc:Work
         rdf:about="">
        <dc:format>image/svg+xml</dc:format>
        <dc:type
           rdf:resource="http://purl.org/dc/dcmitype/StillImage" />
        <dc:title />
      </cc:Work>
    </rdf:RDF>
  </metadata>
  <g
     id="layer1"
     transform="translate(0 -956.36)">
    <g
       id="g3126"
       clip-path="url(#clipPath3196)"
       transform="matrix(1.0952 0 0 1.0952 -4.5714 951.79)">
      <g
         id="layer1-2">
        <rect
           id="rect2419"
           style="fill:url(#linearGradient3617)"
           rx="6"
           ry="6"
           height="84"
           width="84"
           y="6"
           x="6" />
        <path
           id="path3893"
           style="opacity:.3;color:#000000;fill:url(#radialGradient3906)"
           d="m48 78.75c-9.9411 0-18 5.0368-18 11.25h36c0-6.213-8.059-11.25-18-11.25z" />
        <path
           id="path3908"
           style="opacity:.2;color:#000000;fill:#fff"
           d="m48 77.75c-9.9411 0-18 5.0368-18 11.25h0.09375c0.808-5.746 8.503-10.25 17.906-10.25 9.4032 0 17.098 4.5041 17.906 10.25h0.094c0-6.213-8.059-11.25-18-11.25z" />
      </g>
      <g
         id="layer5">
        <rect
           id="rect3171"
           style="opacity:.1;filter:url(#filter3794);stroke:#fff;stroke-linecap:round;stroke-width:.5;fill:url(#linearGradient3613)"
           clip-path="url(#clipPath3613)"
           rx="12"
           ry="12"
           height="66"
           width="66"
           y="15"
           x="15" />
      </g>
      <g
         id="layer4">
        <path
           id="path3687"
           style="opacity:.15;color:#000000"
           d="m15.906 6.0312a0.96409 0.96409 0 0 0 -0.875 0.9688v70c0 2.7334 2.2354 4.9688 4.9688 4.9688h56c2.7334 0 4.9688-2.2354 4.9688-4.9688v-70a0.96409 0.96409 0 0 0 -0.969 -0.9688h-64a0.96409 0.96409 0 0 0 -0.09375 0z" />
        <path
           id="path3683"
           style="opacity:.3;color:#000000"
           d="m16 7v70c0 2.216 1.784 4 4 4h56c2.216 0 4-1.784 4-4v-70h-64z" />
        <path
           id="path3677"
           style="opacity:.3;color:#000000"
           d="m16 7v70c0 2.216 1.784 4 4 4h56c2.216 0 4-1.784 4-4v-70h-64z" />
        <path
           id="rect3648"
           style="color:#000000;fill:url(#linearGradient3675)"
           d="m16 6v70c0 2.216 1.784 4 4 4h56c2.216 0 4-1.784 4-4v-70h-64z" />
        <g
           id="g3844"
           transform="translate(-90)">
          <path
             id="path3709"
             style="opacity:.05;color:#000000;fill:url(#linearGradient3856)"
             d="m106 6v70c0 2.216 1.784 4 4 4h56c2.216 0 4-1.784 4-4v-70h-1v70c0 1.6857-1.3143 3-3 3h-56c-1.6857 0-3-1.3143-3-3v-70h-1z" />
        </g>
        <path
           id="path4012"
           d="m58 39a10 5 0 1 1 -20 0 10 5 0 1 1 20 0z"
           style="opacity:.3;color:#000000;fill:url(#radialGradient4020)"
           transform="matrix(1 0 0 1.1019 0 -4.4846)" />
        <g
           id="text4048"
           style="fill:#808080"
           transform="translate(0 -.74519)">
          <path
             id="path4053"
             d="m39.028 44.231c-0.000001 0.06781-0.01333 0.13029-0.04 0.18743-0.02591 0.05714-0.06629 0.10667-0.12115 0.14858-0.05486 0.04115-0.1242 0.07353-0.20801 0.09715-0.08305 0.02286-0.18172 0.03429-0.29601 0.03429-0.20039 0-0.35658-0.03505-0.46858-0.10515s-0.18324-0.17143-0.21372-0.30401l0.21143-0.04229c0.01067 0.04191 0.02705 0.08 0.04914 0.11429 0.0221 0.03429 0.05181 0.064 0.08915 0.08915 0.0381 0.02438 0.08495 0.04343 0.14058 0.05714 0.05562 0.01372 0.12229 0.02057 0.20001 0.02057 0.06476 0 0.12419-0.0053 0.17829-0.016 0.0541-0.01143 0.10057-0.02857 0.13943-0.05143s0.06895-0.05219 0.09029-0.088c0.02209-0.03657 0.03314-0.08 0.03314-0.13029-0.000001-0.05257-0.01219-0.09524-0.03657-0.128-0.02362-0.03276-0.05715-0.05981-0.10057-0.08114-0.04343-0.02133-0.09524-0.03924-0.15543-0.05372s-0.12686-0.03009-0.2-0.04686c-0.04496-0.0099-0.09029-0.02057-0.136-0.032-0.04495-0.01219-0.08838-0.02629-0.13029-0.04229-0.04115-0.01676-0.08-0.03619-0.11658-0.05829-0.03657-0.0221-0.06819-0.04838-0.09486-0.07886-0.02667-0.03124-0.04762-0.06705-0.06286-0.10743-0.01524-0.04114-0.02286-0.08838-0.02286-0.14172 0-0.07619 0.01524-0.14134 0.04572-0.19543 0.03124-0.05486 0.07429-0.09981 0.12915-0.13486s0.11962-0.06057 0.19429-0.07657 0.15543-0.024 0.24229-0.024c0.09981 0.000001 0.18515 0.008 0.25601 0.024 0.07086 0.01524 0.13067 0.03848 0.17943 0.06972s0.08762 0.0701 0.11658 0.11657c0.02971 0.04572 0.05333 0.09905 0.07086 0.16l-0.21486 0.03771c-0.01067-0.03886-0.02629-0.07353-0.04686-0.104-0.01981-0.03048-0.0461-0.056-0.07886-0.07657s-0.07276-0.03619-0.12-0.04686c-0.04648-0.01067-0.10134-0.016-0.16458-0.016-0.07467 0.000001-0.13753 0.0069-0.18858 0.02057-0.05029 0.01295-0.09105 0.03086-0.12229 0.05372-0.03048 0.02286-0.05257 0.04991-0.06629 0.08114-0.01295 0.03048-0.01943 0.06362-0.01943 0.09943 0 0.048 0.01181 0.08762 0.03543 0.11886 0.02438 0.03048 0.05714 0.056 0.09829 0.07657 0.04114 0.02057 0.08876 0.03772 0.14286 0.05143s0.11162 0.02743 0.17258 0.04114c0.04952 0.01143 0.09867 0.02324 0.14743 0.03543 0.04952 0.01143 0.09676 0.02553 0.14172 0.04229 0.04495 0.016 0.08686 0.03505 0.12572 0.05714 0.03962 0.0221 0.07391 0.04914 0.10286 0.08114s0.05143 0.06972 0.06743 0.11315c0.01676 0.04343 0.02514 0.09448 0.02514 0.15315" />
          <path
             id="path4055"
             d="m40.016 44.676v-0.78402c-0.000001-0.06019-0.0038-0.11048-0.01143-0.15086-0.0076-0.04038-0.02057-0.07276-0.03886-0.09714-0.01752-0.02514-0.04076-0.04267-0.06972-0.05257-0.02895-0.01067-0.06438-0.016-0.10629-0.016-0.04343 0.000001-0.08267 0.0088-0.11772 0.02629-0.03505 0.01676-0.06515 0.04153-0.09029 0.07429-0.02438 0.032-0.04343 0.072-0.05714 0.12-0.01295 0.04724-0.01943 0.10172-0.01943 0.16343v0.71659h-0.20458v-0.9726c0-0.0259-0.000381-0.05295-0.0011-0.08114 0-0.02895-0.000381-0.056-0.0011-0.08114-0.000762-0.0259-0.0015-0.048-0.0023-0.06629-0.000762-0.01828-0.0015-0.03009-0.0023-0.03543h0.19429c0.000762 0.0038 0.0015 0.0141 0.0023 0.03086 0.000762 0.01676 0.0015 0.03619 0.0023 0.05829 0.0015 0.02134 0.0027 0.04343 0.0034 0.06629 0.000761 0.0221 0.0011 0.04076 0.0011 0.056h0.0034c0.01829-0.03581 0.0381-0.06819 0.05943-0.09714s0.0461-0.05333 0.07429-0.07314c0.02895-0.02057 0.06171-0.03619 0.09829-0.04686 0.03733-0.01143 0.08038-0.01714 0.12915-0.01714 0.09372 0.000001 0.16762 0.01867 0.22172 0.056 0.05486 0.03733 0.09295 0.09676 0.11429 0.17829h0.0034c0.01829-0.03581 0.03886-0.06819 0.06172-0.09714s0.04952-0.05333 0.08-0.07314c0.03048-0.02057 0.06476-0.03619 0.10286-0.04686 0.03809-0.01143 0.08152-0.01714 0.13029-0.01714 0.06248 0.000001 0.11619 0.0084 0.16115 0.02514 0.04571 0.01676 0.08305 0.04267 0.112 0.07772s0.05029 0.08038 0.064 0.136c0.01371 0.05486 0.02057 0.12038 0.02057 0.19658v0.82402h-0.20343v-0.78402c-0.000002-0.06019-0.0038-0.11048-0.01143-0.15086-0.0076-0.04038-0.02057-0.07276-0.03886-0.09714-0.01753-0.02514-0.04077-0.04267-0.06972-0.05257-0.02895-0.01067-0.06438-0.016-0.10629-0.016-0.04343 0.000001-0.08267 0.0084-0.11772 0.02514-0.03505 0.016-0.06515 0.04-0.09029 0.072-0.02438 0.032-0.04343 0.072-0.05714 0.12-0.01295 0.048-0.01943 0.10362-0.01943 0.16686v0.71659h-0.20343" />
          <path
             id="path4057"
             d="m41.563 44.699c-0.12419 0-0.21753-0.03276-0.28001-0.09829s-0.09372-0.15543-0.09372-0.26972c0-0.08153 0.01524-0.14819 0.04572-0.20001 0.03124-0.05257 0.07162-0.09372 0.12115-0.12343 0.05029-0.02971 0.10743-0.05029 0.17143-0.06172s0.12915-0.0179 0.19543-0.01943l0.27772-0.0046v-0.06743c-0.000001-0.05105-0.0053-0.09448-0.016-0.13029-0.01067-0.03581-0.02705-0.06476-0.04914-0.08686-0.0221-0.02209-0.04991-0.03809-0.08343-0.048-0.03276-0.01067-0.07162-0.016-0.11657-0.016-0.03962 0.000001-0.07543 0.003-0.10743 0.0091-0.032 0.0053-0.05981 0.01562-0.08343 0.03086-0.02362 0.01448-0.04267 0.03467-0.05714 0.06057-0.01448 0.02514-0.024 0.05715-0.02857 0.096l-0.21486-0.01943c0.0076-0.04876 0.0221-0.09333 0.04343-0.13372 0.02133-0.04114 0.05143-0.07657 0.09029-0.10629 0.03962-0.02971 0.08876-0.05257 0.14743-0.06857 0.05943-0.01676 0.13105-0.02514 0.21486-0.02514 0.15543 0.000001 0.27239 0.03581 0.35087 0.10743 0.07848 0.07086 0.11772 0.17372 0.11772 0.30858v0.53259c-0.000001 0.06095 0.008 0.10705 0.024 0.13829 0.016 0.03048 0.04648 0.04572 0.09143 0.04572 0.01143 0 0.02286-0.000762 0.03429-0.0023 0.01143-0.0015 0.02248-0.0034 0.03314-0.0057v0.128c-0.02591 0.0061-0.05181 0.01067-0.07772 0.01371-0.02515 0.003-0.05219 0.0046-0.08115 0.0046-0.03886 0-0.07238-0.005-0.10057-0.01486-0.02743-0.01067-0.04991-0.02629-0.06743-0.04686-0.01753-0.02133-0.03086-0.04724-0.04-0.07772-0.0091-0.03124-0.01486-0.06743-0.01714-0.10857h-0.0069c-0.0221 0.03962-0.04648 0.07543-0.07314 0.10743-0.02591 0.032-0.05638 0.05943-0.09143 0.08229-0.03505 0.0221-0.07505 0.03924-0.12 0.05143-0.04419 0.01219-0.09524 0.01829-0.15315 0.01829m0.04686-0.15429c0.06553 0 0.12267-0.01181 0.17143-0.03543 0.04952-0.02438 0.09029-0.05524 0.12229-0.09257 0.03276-0.03733 0.05714-0.0781 0.07314-0.12229s0.024-0.08648 0.024-0.12686v-0.10172l-0.22515 0.0046c-0.05029 0.000763-0.09829 0.0046-0.144 0.01143-0.04495 0.0061-0.08458 0.01867-0.11886 0.03771-0.03429 0.01905-0.06172 0.04572-0.08229 0.08-0.01981 0.03429-0.02972 0.07924-0.02972 0.13486 0 0.06705 0.01791 0.11886 0.05372 0.15543 0.03657 0.03657 0.08838 0.05486 0.15543 0.05486" />
          <path
             id="path4059"
             d="m42.555 44.676v-0.9486c0-0.0259-0.000381-0.05219-0.0011-0.07886 0-0.02743-0.000381-0.05371-0.0011-0.07886-0.000762-0.02514-0.0015-0.04876-0.0023-0.07086-0.000762-0.0221-0.0015-0.0419-0.0023-0.05943h0.19429c0.000761 0.01752 0.0015 0.03772 0.0023 0.06057 0.0015 0.0221 0.0027 0.04496 0.0034 0.06857 0.0015 0.02362 0.0023 0.04648 0.0023 0.06857 0.000762 0.02134 0.0011 0.03962 0.0011 0.05486h0.0046c0.01448-0.04724 0.02971-0.088 0.04572-0.12229 0.01676-0.03505 0.03619-0.06362 0.05829-0.08572 0.0221-0.02286 0.04838-0.03962 0.07886-0.05029 0.03048-0.01143 0.06743-0.01714 0.11086-0.01714 0.01676 0.000001 0.03276 0.0015 0.048 0.0046 0.01524 0.0023 0.02705 0.0046 0.03543 0.0069v0.18858c-0.01372-0.0038-0.02972-0.0065-0.048-0.008-0.01829-0.0023-0.03886-0.0034-0.06172-0.0034-0.04724 0.000001-0.08762 0.01067-0.12115 0.032-0.03276 0.02134-0.05981 0.05105-0.08114 0.08915-0.02057 0.03733-0.03581 0.08229-0.04572 0.13486-0.0099 0.05181-0.01486 0.10858-0.01486 0.17029v0.64459h-0.20572" />
          <path
             id="path4061"
             d="m43.808 44.667c-0.03124 0.0084-0.06324 0.01486-0.096 0.01943-0.032 0.0053-0.06934 0.008-0.112 0.008-0.16458 0-0.24686-0.09334-0.24686-0.28001v-0.82516h-0.14286v-0.14972h0.15086l0.06057-0.27658h0.13715v0.27658h0.22858v0.14972h-0.22858v0.78059c0 0.05943 0.0095 0.10134 0.02857 0.12572 0.01981 0.02362 0.05371 0.03543 0.10172 0.03543 0.01981 0 0.03886-0.0015 0.05714-0.0046 0.01905-0.003 0.03962-0.0069 0.06172-0.01143v0.152" />
          <path
             id="path4063"
             d="m45.278 44.231c-0.000001 0.06781-0.01333 0.13029-0.04 0.18743-0.02591 0.05714-0.06629 0.10667-0.12115 0.14858-0.05486 0.04115-0.1242 0.07353-0.20801 0.09715-0.08305 0.02286-0.18172 0.03429-0.29601 0.03429-0.20039 0-0.35658-0.03505-0.46858-0.10515s-0.18324-0.17143-0.21372-0.30401l0.21143-0.04229c0.01067 0.04191 0.02705 0.08 0.04914 0.11429 0.0221 0.03429 0.05181 0.064 0.08915 0.08915 0.0381 0.02438 0.08495 0.04343 0.14058 0.05714 0.05562 0.01372 0.12229 0.02057 0.2 0.02057 0.06476 0 0.12419-0.0053 0.17829-0.016 0.0541-0.01143 0.10057-0.02857 0.13943-0.05143s0.06895-0.05219 0.09029-0.088c0.02209-0.03657 0.03314-0.08 0.03314-0.13029-0.000001-0.05257-0.01219-0.09524-0.03657-0.128-0.02362-0.03276-0.05715-0.05981-0.10057-0.08114-0.04343-0.02133-0.09524-0.03924-0.15543-0.05372s-0.12686-0.03009-0.2-0.04686c-0.04495-0.0099-0.09029-0.02057-0.136-0.032-0.04495-0.01219-0.08838-0.02629-0.13029-0.04229-0.04115-0.01676-0.08-0.03619-0.11658-0.05829-0.03657-0.0221-0.06819-0.04838-0.09486-0.07886-0.02667-0.03124-0.04762-0.06705-0.06286-0.10743-0.01524-0.04114-0.02286-0.08838-0.02286-0.14172-0.000001-0.07619 0.01524-0.14134 0.04572-0.19543 0.03124-0.05486 0.07429-0.09981 0.12915-0.13486s0.11962-0.06057 0.19429-0.07657 0.15543-0.024 0.24229-0.024c0.09981 0.000001 0.18515 0.008 0.25601 0.024 0.07086 0.01524 0.13067 0.03848 0.17943 0.06972s0.08762 0.0701 0.11658 0.11657c0.02971 0.04572 0.05333 0.09905 0.07086 0.16l-0.21486 0.03771c-0.01067-0.03886-0.02629-0.07353-0.04686-0.104-0.01981-0.03048-0.0461-0.056-0.07886-0.07657s-0.07276-0.03619-0.12-0.04686c-0.04648-0.01067-0.10134-0.016-0.16458-0.016-0.07467 0.000001-0.13753 0.0069-0.18858 0.02057-0.05029 0.01295-0.09105 0.03086-0.12229 0.05372-0.03048 0.02286-0.05257 0.04991-0.06629 0.08114-0.01295 0.03048-0.01943 0.06362-0.01943 0.09943-0.000001 0.048 0.01181 0.08762 0.03543 0.11886 0.02438 0.03048 0.05714 0.056 0.09829 0.07657 0.04114 0.02057 0.08876 0.03772 0.14286 0.05143s0.11162 0.02743 0.17258 0.04114c0.04952 0.01143 0.09867 0.02324 0.14743 0.03543 0.04952 0.01143 0.09676 0.02553 0.14172 0.04229 0.04495 0.016 0.08686 0.03505 0.12572 0.05714 0.03962 0.0221 0.07391 0.04914 0.10286 0.08114s0.05143 0.06972 0.06743 0.11315c0.01676 0.04343 0.02514 0.09448 0.02514 0.15315" />
          <path
             id="path4065"
             d="m45.702 44.052c0 0.07086 0.005 0.136 0.01486 0.19543 0.01067 0.05943 0.02819 0.11086 0.05257 0.15429 0.02438 0.04267 0.05638 0.07581 0.096 0.09943 0.04038 0.02362 0.08991 0.03543 0.14858 0.03543 0.07314 0 0.1341-0.01981 0.18286-0.05943 0.04952-0.03962 0.08-0.10057 0.09143-0.18286l0.20801 0.01371c-0.0069 0.05105-0.02172 0.10019-0.04457 0.14743-0.02286 0.04724-0.0541 0.08877-0.09372 0.12458-0.03886 0.03581-0.08648 0.06476-0.14286 0.08686-0.05638 0.02133-0.12153 0.032-0.19543 0.032-0.09676 0-0.17905-0.01638-0.24686-0.04914s-0.12305-0.07772-0.16572-0.13486c-0.04191-0.05791-0.07238-0.12572-0.09143-0.20343-0.01905-0.07848-0.02857-0.16343-0.02857-0.25486-0.000001-0.08305 0.0069-0.15619 0.02057-0.21943 0.01372-0.064 0.03276-0.11962 0.05714-0.16686 0.02514-0.048 0.05448-0.088 0.088-0.12 0.03352-0.03276 0.06972-0.05867 0.10858-0.07772 0.03962-0.01981 0.08114-0.0339 0.12457-0.04229 0.04343-0.0091 0.08724-0.01371 0.13143-0.01371 0.06933 0.000001 0.13105 0.0095 0.18515 0.02857 0.0541 0.01905 0.10057 0.04534 0.13943 0.07886 0.03962 0.03276 0.07162 0.07162 0.096 0.11657 0.02438 0.04496 0.04152 0.09334 0.05143 0.14515l-0.21143 0.016c-0.01067-0.06857-0.03772-0.12305-0.08114-0.16343-0.04343-0.04038-0.10515-0.06057-0.18515-0.06057-0.05867 0.000001-0.10781 0.0099-0.14743 0.02971-0.03886 0.01905-0.07048 0.04838-0.09486 0.088-0.02438 0.03886-0.04191 0.088-0.05257 0.14743-0.0099 0.05943-0.01486 0.12915-0.01486 0.20915" />
          <path
             id="path4067"
             d="m47.031 44.699c-0.12419 0-0.21753-0.03276-0.28001-0.09829s-0.09372-0.15543-0.09372-0.26972c0-0.08153 0.01524-0.14819 0.04572-0.20001 0.03124-0.05257 0.07162-0.09372 0.12115-0.12343 0.05029-0.02971 0.10743-0.05029 0.17143-0.06172s0.12914-0.0179 0.19543-0.01943l0.27772-0.0046v-0.06743c-0.000001-0.05105-0.0053-0.09448-0.016-0.13029-0.01067-0.03581-0.02705-0.06476-0.04914-0.08686-0.0221-0.02209-0.04991-0.03809-0.08343-0.048-0.03276-0.01067-0.07162-0.016-0.11658-0.016-0.03962 0.000001-0.07543 0.003-0.10743 0.0091-0.032 0.0053-0.05981 0.01562-0.08343 0.03086-0.02362 0.01448-0.04267 0.03467-0.05714 0.06057-0.01448 0.02514-0.024 0.05715-0.02857 0.096l-0.21486-0.01943c0.0076-0.04876 0.0221-0.09333 0.04343-0.13372 0.02133-0.04114 0.05143-0.07657 0.09029-0.10629 0.03962-0.02971 0.08876-0.05257 0.14743-0.06857 0.05943-0.01676 0.13105-0.02514 0.21486-0.02514 0.15543 0.000001 0.27239 0.03581 0.35087 0.10743 0.07848 0.07086 0.11772 0.17372 0.11772 0.30858v0.53259c-0.000001 0.06095 0.008 0.10705 0.024 0.13829 0.016 0.03048 0.04648 0.04572 0.09143 0.04572 0.01143 0 0.02286-0.000762 0.03429-0.0023 0.01143-0.0015 0.02248-0.0034 0.03314-0.0057v0.128c-0.02591 0.0061-0.05181 0.01067-0.07772 0.01371-0.02515 0.003-0.05219 0.0046-0.08114 0.0046-0.03886 0-0.07238-0.005-0.10058-0.01486-0.02743-0.01067-0.04991-0.02629-0.06743-0.04686-0.01752-0.02133-0.03086-0.04724-0.04-0.07772-0.0091-0.03124-0.01486-0.06743-0.01714-0.10857h-0.0069c-0.0221 0.03962-0.04648 0.07543-0.07314 0.10743-0.02591 0.032-0.05638 0.05943-0.09143 0.08229-0.03505 0.0221-0.07505 0.03924-0.12 0.05143-0.04419 0.01219-0.09524 0.01829-0.15315 0.01829m0.04686-0.15429c0.06553 0 0.12267-0.01181 0.17143-0.03543 0.04952-0.02438 0.09029-0.05524 0.12229-0.09257 0.03276-0.03733 0.05714-0.0781 0.07314-0.12229s0.024-0.08648 0.024-0.12686v-0.10172l-0.22515 0.0046c-0.05029 0.000763-0.09829 0.0046-0.144 0.01143-0.04495 0.0061-0.08457 0.01867-0.11886 0.03771-0.03429 0.01905-0.06172 0.04572-0.08229 0.08-0.01981 0.03429-0.02971 0.07924-0.02971 0.13486 0 0.06705 0.0179 0.11886 0.05372 0.15543 0.03657 0.03657 0.08838 0.05486 0.15543 0.05486" />
          <path
             id="path4069"
             d="m48.803 44.676v-0.78402c-0.000001-0.06019-0.0046-0.11048-0.01371-0.15086-0.0084-0.04038-0.02248-0.07276-0.04229-0.09714-0.01981-0.02514-0.0461-0.04267-0.07886-0.05257-0.032-0.01067-0.072-0.016-0.12-0.016-0.04876 0.000001-0.09296 0.0088-0.13258 0.02629-0.03886 0.01676-0.07238 0.04153-0.10057 0.07429-0.02743 0.032-0.04876 0.072-0.064 0.12-0.01524 0.04724-0.02286 0.10172-0.02286 0.16343v0.71659h-0.20572v-0.9726c0-0.0259-0.000381-0.05295-0.0011-0.08114 0-0.02895-0.000381-0.056-0.0011-0.08114-0.000762-0.0259-0.0015-0.048-0.0023-0.06629-0.000762-0.01828-0.0015-0.03009-0.0023-0.03543h0.19429c0.000761 0.0038 0.0015 0.0141 0.0023 0.03086 0.000761 0.01676 0.0015 0.03619 0.0023 0.05829 0.0015 0.02134 0.0027 0.04343 0.0034 0.06629 0.000762 0.0221 0.0011 0.04076 0.0011 0.056h0.0034c0.01981-0.03581 0.04152-0.06819 0.06514-0.09714s0.05105-0.05333 0.08229-0.07314c0.03124-0.02057 0.06705-0.03619 0.10743-0.04686 0.04038-0.01143 0.08724-0.01714 0.14058-0.01714 0.06857 0.000001 0.12762 0.0084 0.17715 0.02514 0.04952 0.01676 0.09029 0.04267 0.12229 0.07772s0.05524 0.08038 0.06972 0.136c0.01524 0.05486 0.02286 0.12038 0.02286 0.19658v0.82402h-0.20686" />
          <path
             id="path4071"
             d="m50.223 43.244v0.59887h0.89831v0.18058h-0.89831v0.65259h-0.21829v-1.6103h1.144v0.17829h-0.92574" />
          <path
             id="path4073"
             d="m52.449 44.676-0.184-0.47087h-0.73373l-0.18515 0.47087h-0.22629l0.65716-1.6103h0.24801l0.64688 1.6103h-0.22286m-0.45601-1.1726c-0.01219-0.03048-0.024-0.06133-0.03543-0.09257-0.01067-0.03124-0.02019-0.05943-0.02857-0.08457-0.0084-0.0259-0.01562-0.04724-0.02172-0.064-0.0053-0.01752-0.0084-0.02819-0.0091-0.032-0.0015 0.0038-0.005 0.01448-0.01029 0.032-0.0053 0.01753-0.01257 0.03924-0.02172 0.06515-0.0084 0.02591-0.01829 0.05448-0.02972 0.08572-0.01067 0.03124-0.02172 0.0621-0.03314 0.09257l-0.20572 0.52916h0.6023l-0.20686-0.53144" />
          <path
             id="path4075"
             d="m54.207 44.311v0.36458h-0.19429v-0.36458h-0.75888v-0.16l0.73716-1.0857h0.216v1.0835h0.22629v0.16229h-0.22629m-0.19429-1.0137c-0.0015 0.0038-0.0053 0.01143-0.01143 0.02286-0.0061 0.01067-0.01295 0.02286-0.02057 0.03657-0.0076 0.01372-0.01562 0.02781-0.024 0.04229-0.0076 0.01372-0.01448 0.02515-0.02057 0.03429l-0.41258 0.60802c-0.0038 0.0061-0.0095 0.0141-0.01714 0.024-0.0069 0.0099-0.0141 0.02019-0.02172 0.03086-0.0076 0.0099-0.01524 0.01981-0.02286 0.02971-0.0076 0.0099-0.01372 0.01752-0.01829 0.02286h0.56916v-0.85145" />
          <path
             id="path4077"
             d="m54.621 44.676v-0.14515c0.03886-0.08915 0.0861-0.16762 0.14172-0.23544 0.05638-0.06857 0.11543-0.13029 0.17715-0.18515 0.06171-0.05562 0.12267-0.10705 0.18286-0.15429 0.06095-0.04724 0.11581-0.09448 0.16458-0.14172 0.04876-0.04724 0.088-0.09676 0.11772-0.14858 0.03048-0.05181 0.04572-0.11048 0.04572-0.176-0.000001-0.04571-0.0069-0.08572-0.02057-0.12-0.01372-0.03505-0.03353-0.06438-0.05943-0.088-0.02591-0.02362-0.05714-0.04114-0.09372-0.05257-0.03581-0.01219-0.07581-0.01828-0.12-0.01829-0.04115 0.000002-0.08 0.0057-0.11658 0.01714-0.03581 0.01143-0.06781 0.02857-0.096 0.05143s-0.05143 0.05143-0.06972 0.08572c-0.01752 0.03353-0.02895 0.07277-0.03429 0.11772l-0.21029-0.01943c0.0069-0.0579 0.02286-0.11238 0.048-0.16343s0.05981-0.09562 0.104-0.13372c0.04419-0.03886 0.09714-0.06933 0.15886-0.09143 0.06248-0.02209 0.13448-0.03314 0.21601-0.03314 0.08 0.000001 0.15124 0.0095 0.21372 0.02857 0.06248 0.01905 0.11505 0.04724 0.15772 0.08457 0.04343 0.03733 0.07657 0.08343 0.09943 0.13829s0.03428 0.1181 0.03429 0.18972c-0.000001 0.0541-0.0099 0.10553-0.02972 0.15429-0.01905 0.04877-0.04496 0.09524-0.07772 0.13943-0.032 0.04419-0.06934 0.08686-0.112 0.128-0.04267 0.04115-0.08724 0.08153-0.13372 0.12115-0.04648 0.03886-0.09334 0.07772-0.14058 0.11658-0.04724 0.0381-0.09181 0.07657-0.13372 0.11543-0.04115 0.03886-0.0781 0.07848-0.11086 0.11886-0.03276 0.03962-0.05829 0.08114-0.07657 0.12458h0.84002v0.17486h-1.0663" />
          <path
             id="path4079"
             d="m57.016 43.87c-0.000001 0.15467-0.01486 0.28496-0.04457 0.39087-0.02895 0.10515-0.06896 0.19048-0.12 0.25601-0.05029 0.06476-0.10972 0.11124-0.17829 0.13943s-0.14172 0.04229-0.21943 0.04229c-0.07848 0-0.15162-0.0141-0.21944-0.04229-0.06781-0.02819-0.12686-0.07467-0.17715-0.13943-0.04953-0.06476-0.08877-0.14972-0.11772-0.25486-0.02819-0.10591-0.04229-0.23658-0.04229-0.39201 0-0.16229 0.0141-0.29639 0.04229-0.4023 0.02895-0.10667 0.06857-0.19162 0.11886-0.25486s0.10972-0.10743 0.17829-0.13258c0.06857-0.0259 0.14324-0.03886 0.22401-0.03886 0.07695 0.000001 0.14896 0.01295 0.21601 0.03886 0.06781 0.02515 0.12686 0.06934 0.17715 0.13258s0.08991 0.1482 0.11886 0.25486c0.02895 0.10591 0.04343 0.24001 0.04343 0.4023m-0.20915 0c-0.000001-0.128-0.0076-0.23429-0.02286-0.31887-0.01524-0.08534-0.03772-0.15315-0.06743-0.20343-0.02972-0.05105-0.06629-0.08686-0.10972-0.10743-0.04267-0.02133-0.09143-0.032-0.14629-0.032-0.05791 0.000002-0.10896 0.01067-0.15315 0.032-0.04419 0.02134-0.08153 0.05753-0.112 0.10858-0.02972 0.05029-0.05219 0.1181-0.06743 0.20343-0.01524 0.08458-0.02286 0.19048-0.02286 0.31772 0 0.12343 0.0076 0.22744 0.02286 0.31201 0.016 0.08457 0.03886 0.15277 0.06857 0.20458 0.03048 0.05105 0.06743 0.088 0.11086 0.11086 0.04343 0.0221 0.09296 0.03314 0.14858 0.03314 0.0541 0 0.10286-0.01105 0.14629-0.03314 0.04343-0.02286 0.08-0.05981 0.10972-0.11086 0.03048-0.05181 0.05371-0.12 0.06972-0.20458 0.01676-0.08457 0.02514-0.18858 0.02514-0.31201" />
          <path
             id="path4081"
             d="m58.319 43.87c-0.000002 0.15467-0.01486 0.28496-0.04457 0.39087-0.02895 0.10515-0.06895 0.19048-0.12 0.25601-0.05029 0.06476-0.10972 0.11124-0.17829 0.13943s-0.14172 0.04229-0.21943 0.04229c-0.07848 0-0.15162-0.0141-0.21944-0.04229-0.06781-0.02819-0.12686-0.07467-0.17715-0.13943-0.04953-0.06476-0.08876-0.14972-0.11772-0.25486-0.02819-0.10591-0.04229-0.23658-0.04229-0.39201 0-0.16229 0.0141-0.29639 0.04229-0.4023 0.02895-0.10667 0.06857-0.19162 0.11886-0.25486s0.10972-0.10743 0.17829-0.13258c0.06857-0.0259 0.14324-0.03886 0.22401-0.03886 0.07695 0.000001 0.14896 0.01295 0.21601 0.03886 0.06781 0.02515 0.12686 0.06934 0.17715 0.13258s0.08991 0.1482 0.11886 0.25486c0.02895 0.10591 0.04343 0.24001 0.04343 0.4023m-0.20915 0c-0.000001-0.128-0.0076-0.23429-0.02286-0.31887-0.01524-0.08534-0.03772-0.15315-0.06743-0.20343-0.02972-0.05105-0.06629-0.08686-0.10972-0.10743-0.04267-0.02133-0.09143-0.032-0.14629-0.032-0.05791 0.000002-0.10896 0.01067-0.15315 0.032-0.04419 0.02134-0.08153 0.05753-0.112 0.10858-0.02972 0.05029-0.05219 0.1181-0.06743 0.20343-0.01524 0.08458-0.02286 0.19048-0.02286 0.31772-0.000001 0.12343 0.0076 0.22744 0.02286 0.31201 0.016 0.08457 0.03886 0.15277 0.06857 0.20458 0.03048 0.05105 0.06743 0.088 0.11086 0.11086 0.04343 0.0221 0.09295 0.03314 0.14858 0.03314 0.0541 0 0.10286-0.01105 0.14629-0.03314 0.04343-0.02286 0.08-0.05981 0.10972-0.11086 0.03048-0.05181 0.05372-0.12 0.06972-0.20458 0.01676-0.08457 0.02514-0.18858 0.02514-0.31201" />
        </g>
        <path
           id="path4096"
           style="fill:url(#linearGradient4115)"
           d="m75 83.031c-1.0745 0-1.9688 0.89426-1.9688 1.9688s0.89426 1.9688 1.9688 1.9688h3c1.0745 0 1.9688-0.89426 1.9688-1.9688s-0.89426-1.9688-1.9688-1.9688h-3z" />
        <rect
           id="rect3485"
           style="stroke:#000;stroke-width:.5;stroke-opacity:.25;fill:url(#radialGradient4112)"
           rx="1"
           ry="1"
           height="2"
           width="5"
           y="84"
           x="74" />
        <path
           id="path4147"
           d="m35 63c-1.6388 0-3 1.3612-3 3s1.3612 3 3 3h26c1.6388 0 3-1.3612 3-3s-1.3612-3-3-3h-26z"
           style="opacity:.05;color:#000000"
           transform="matrix(1 0 0 .83013 0 12.702)" />
        <rect
           id="rect4141"
           style="opacity:.15;color:#000000"
           rx="2"
           ry="1.4585"
           height="3"
           width="30"
           y="67"
           x="33" />
        <rect
           id="rect4125"
           style="color:#000000;fill:url(#linearGradient4133)"
           rx="2"
           ry="1.5"
           height="3"
           width="30"
           y="66"
           x="33" />
        <path
           id="rect4155"
           style="opacity:.6;color:#000000;fill:#fff"
           d="m35 66c-1.108 0-2 0.669-2 1.5 0 0.17455 0.05255 0.34444 0.125 0.5 0.27246-0.58502 0.99974-1 1.875-1h26c0.87526 0 1.6025 0.41498 1.875 1 0.072-0.156 0.125-0.325 0.125-0.5 0-0.831-0.892-1.5-2-1.5h-26z" />
        <rect
           id="rect4151"
           style="opacity:.15;color:#000000"
           height="3"
           width="1"
           y="66"
           x="43" />
        <rect
           id="rect4153"
           style="opacity:.15;color:#000000"
           height="3"
           width="1"
           y="66"
           x="53" />
        <g
           id="text4164"
           style="fill:#666">
          <path
             id="path4194"
             d="m36.316 63.042c-0.05859 0.000001-0.1106 0.0098-0.15601 0.0293-0.04492 0.01953-0.08276 0.04736-0.11352 0.0835-0.03027 0.03613-0.05322 0.07959-0.06885 0.13037s-0.02344 0.10718-0.02344 0.16919 0.0083 0.1189 0.0249 0.17066c0.01709 0.05127 0.04126 0.09546 0.07251 0.13257 0.03174 0.03711 0.07031 0.06592 0.11572 0.08643 0.0459 0.02051 0.09741 0.03076 0.15454 0.03076 0.04004 0.000001 0.07642-0.0051 0.10913-0.01538 0.0332-0.01074 0.06299-0.02564 0.08936-0.04468 0.02685-0.01904 0.05078-0.0415 0.07178-0.06738 0.02099-0.02637 0.03955-0.05542 0.05566-0.08716l0.11426 0.05713c-0.01856 0.03857-0.04151 0.07446-0.06885 0.10767-0.02734 0.0332-0.05957 0.06201-0.09668 0.08643-0.03662 0.02441-0.07837 0.0437-0.12524 0.05786-0.04639 0.01367-0.09839 0.02051-0.15601 0.02051-0.0835 0-0.15674-0.01318-0.21973-0.03955-0.0625-0.02686-0.11499-0.06396-0.15747-0.11133-0.04199-0.04785-0.07349-0.10449-0.09448-0.16992-0.021-0.06543-0.03149-0.13696-0.03149-0.2146-0.000001-0.08057 0.01099-0.15332 0.03296-0.21826 0.02246-0.06494 0.05493-0.12012 0.09741-0.16553 0.04297-0.0459 0.0957-0.08105 0.1582-0.10547 0.0625-0.0249 0.13379-0.03735 0.21387-0.03735 0.10986 0.000001 0.20166 0.02148 0.27539 0.06445s0.12793 0.10669 0.1626 0.19116l-0.13257 0.04395c-0.0098-0.02441-0.02295-0.04761-0.03955-0.06958-0.0166-0.02246-0.03735-0.04223-0.06226-0.05933-0.0249-0.01709-0.0542-0.03076-0.08789-0.04101-0.0332-0.01025-0.07129-0.01538-0.11426-0.01538" />
          <path
             id="path4196"
             d="m37.915 63.454c-0.000001 0.08057-0.01172 0.15381-0.03516 0.21973-0.02295 0.06592-0.0564 0.12231-0.10034 0.16919-0.04395 0.04687-0.09766 0.08301-0.16113 0.1084-0.06348 0.02539-0.1355 0.03809-0.21606 0.03809-0.08496 0-0.15942-0.01318-0.22339-0.03955-0.06396-0.02686-0.11719-0.06396-0.15967-0.11133-0.04248-0.04785-0.07446-0.10449-0.09595-0.16992-0.02148-0.06543-0.03223-0.13696-0.03223-0.2146 0-0.08057 0.01123-0.15332 0.03369-0.21826s0.05542-0.12012 0.09888-0.16553c0.04346-0.0459 0.09692-0.08105 0.1604-0.10547 0.06396-0.0249 0.13721-0.03735 0.21973-0.03735 0.08203 0.000001 0.15478 0.01245 0.21826 0.03735 0.06396 0.0249 0.11743 0.0603 0.1604 0.1062 0.04346 0.0459 0.07641 0.10132 0.09888 0.16626 0.02246 0.06494 0.03369 0.13721 0.03369 0.2168m-0.14282 0c-0.000001-0.06201-0.0081-0.11841-0.02417-0.16919-0.01563-0.05078-0.03906-0.09424-0.07031-0.13037-0.03076-0.03613-0.06909-0.06396-0.11499-0.0835-0.0459-0.01953-0.09888-0.0293-0.15894-0.0293-0.06152 0.000001-0.11548 0.0098-0.16186 0.0293-0.04639 0.01953-0.08521 0.04736-0.11646 0.0835-0.03076 0.03613-0.05396 0.07959-0.06958 0.13037-0.01514 0.05078-0.02271 0.10718-0.02271 0.16919s0.0078 0.1189 0.02344 0.17066c0.01611 0.05127 0.03955 0.0957 0.07031 0.1333 0.03125 0.03711 0.06982 0.06616 0.11572 0.08716 0.04639 0.02051 0.09961 0.03076 0.15967 0.03076 0.06445 0 0.11987-0.0105 0.16626-0.03149 0.04687-0.021 0.0852-0.05005 0.11499-0.08716 0.03027-0.0376 0.05249-0.08227 0.06665-0.13403 0.01465-0.05176 0.02197-0.10815 0.02197-0.16919" />
          <path
             id="path4198"
             d="m38.907 63.253c-0.000001 0.04492-0.0076 0.08691-0.02271 0.12598-0.01465 0.03858-0.03687 0.07227-0.06665 0.10107-0.0293 0.02832-0.06616 0.05078-0.1106 0.06738-0.04443 0.0166-0.09619 0.0249-0.15527 0.0249h-0.30322v0.4021h-0.13989v-1.032h0.43433c0.06103 0.000001 0.11426 0.0076 0.15967 0.02271 0.04541 0.01465 0.08325 0.03565 0.11352 0.06299 0.03027 0.02686 0.05298 0.05957 0.06811 0.09814 0.01514 0.03809 0.0227 0.08032 0.02271 0.12671m-0.14062 0.0015c0-0.06543-0.02002-0.11499-0.06006-0.14868-0.04004-0.03418-0.1001-0.05127-0.18018-0.05127h-0.27759v0.40723h0.28345c0.08057 0 0.13965-0.01782 0.17725-0.05347 0.03808-0.03564 0.05713-0.08691 0.05713-0.15381" />
          <path
             id="path4200"
             d="m39.557 63.547v0.42773h-0.13916v-0.42773l-0.39697-0.60425h0.15381l0.31421 0.49146 0.31274-0.49146h0.15381l-0.39844 0.60425" />
          <path
             id="path4202"
             d="m46.709 63.253c-0.000001 0.04492-0.0076 0.08691-0.02271 0.12598-0.01465 0.03858-0.03687 0.07227-0.06665 0.10107-0.0293 0.02832-0.06616 0.05078-0.1106 0.06738-0.04443 0.0166-0.09619 0.0249-0.15527 0.0249h-0.30322v0.4021h-0.13989v-1.032h0.43433c0.06103 0.000001 0.11426 0.0076 0.15967 0.02271 0.04541 0.01465 0.08325 0.03565 0.11352 0.06299 0.03027 0.02686 0.05298 0.05957 0.06811 0.09814 0.01514 0.03809 0.0227 0.08032 0.02271 0.12671m-0.14062 0.0015c-0.000001-0.06543-0.02002-0.11499-0.06006-0.14868-0.04004-0.03418-0.1001-0.05127-0.18018-0.05127h-0.27759v0.40723h0.28345c0.08057 0 0.13965-0.01782 0.17725-0.05347 0.03809-0.03564 0.05713-0.08691 0.05713-0.15381" />
          <path
             id="path4204"
             d="m47.611 63.975v-0.47827h-0.55811v0.47827h-0.13989v-1.032h0.13989v0.43652h0.55811v-0.43652h0.13989v1.032h-0.13989" />
          <path
             id="path4206"
             d="m48.969 63.454c-0.000001 0.08057-0.01172 0.15381-0.03516 0.21973-0.02295 0.06592-0.0564 0.12231-0.10034 0.16919-0.04395 0.04687-0.09766 0.08301-0.16113 0.1084-0.06348 0.02539-0.1355 0.03809-0.21606 0.03809-0.08496 0-0.15942-0.01318-0.22339-0.03955-0.06396-0.02686-0.11719-0.06396-0.15967-0.11133-0.04248-0.04785-0.07446-0.10449-0.09595-0.16992-0.02148-0.06543-0.03223-0.13696-0.03223-0.2146 0-0.08057 0.01123-0.15332 0.03369-0.21826s0.05542-0.12012 0.09888-0.16553c0.04346-0.0459 0.09692-0.08105 0.1604-0.10547 0.06396-0.0249 0.13721-0.03735 0.21973-0.03735 0.08203 0.000001 0.15478 0.01245 0.21826 0.03735 0.06396 0.0249 0.11743 0.0603 0.1604 0.1062 0.04346 0.0459 0.07641 0.10132 0.09888 0.16626 0.02246 0.06494 0.03369 0.13721 0.03369 0.2168m-0.14282 0c-0.000001-0.06201-0.0081-0.11841-0.02417-0.16919-0.01563-0.05078-0.03906-0.09424-0.07031-0.13037-0.03076-0.03613-0.06909-0.06396-0.11499-0.0835-0.0459-0.01953-0.09888-0.0293-0.15894-0.0293-0.06152 0.000001-0.11548 0.0098-0.16186 0.0293-0.04639 0.01953-0.08521 0.04736-0.11646 0.0835-0.03076 0.03613-0.05396 0.07959-0.06958 0.13037-0.01514 0.05078-0.02271 0.10718-0.02271 0.16919s0.0078 0.1189 0.02344 0.17066c0.01611 0.05127 0.03955 0.0957 0.07031 0.1333 0.03125 0.03711 0.06982 0.06616 0.11572 0.08716 0.04639 0.02051 0.09961 0.03076 0.15967 0.03076 0.06445 0 0.11987-0.0105 0.16626-0.03149 0.04687-0.021 0.0852-0.05005 0.11499-0.08716 0.03027-0.0376 0.05249-0.08227 0.06665-0.13403 0.01465-0.05176 0.02197-0.10815 0.02197-0.16919" />
          <path
             id="path4208"
             d="m49.567 63.057v0.91772h-0.13916v-0.91772h-0.35449v-0.11426h0.84814v0.11426h-0.35449" />
          <path
             id="path4210"
             d="m51.025 63.454c-0.000001 0.08057-0.01172 0.15381-0.03516 0.21973-0.02295 0.06592-0.0564 0.12231-0.10034 0.16919-0.04395 0.04687-0.09766 0.08301-0.16113 0.1084-0.06348 0.02539-0.1355 0.03809-0.21606 0.03809-0.08496 0-0.15942-0.01318-0.22339-0.03955-0.06397-0.02686-0.11719-0.06396-0.15967-0.11133-0.04248-0.04785-0.07446-0.10449-0.09595-0.16992-0.02148-0.06543-0.03223-0.13696-0.03223-0.2146-0.000001-0.08057 0.01123-0.15332 0.03369-0.21826s0.05542-0.12012 0.09888-0.16553c0.04346-0.0459 0.09692-0.08105 0.1604-0.10547 0.06396-0.0249 0.13721-0.03735 0.21973-0.03735 0.08203 0.000001 0.15478 0.01245 0.21826 0.03735 0.06396 0.0249 0.11743 0.0603 0.1604 0.1062 0.04346 0.0459 0.07641 0.10132 0.09888 0.16626 0.02246 0.06494 0.03369 0.13721 0.03369 0.2168m-0.14282 0c-0.000001-0.06201-0.0081-0.11841-0.02417-0.16919-0.01563-0.05078-0.03906-0.09424-0.07031-0.13037-0.03076-0.03613-0.06909-0.06396-0.11499-0.0835-0.0459-0.01953-0.09888-0.0293-0.15894-0.0293-0.06152 0.000001-0.11548 0.0098-0.16186 0.0293-0.04639 0.01953-0.08521 0.04736-0.11646 0.0835-0.03076 0.03613-0.05396 0.07959-0.06958 0.13037-0.01514 0.05078-0.02271 0.10718-0.02271 0.16919s0.0078 0.1189 0.02344 0.17066c0.01611 0.05127 0.03955 0.0957 0.07031 0.1333 0.03125 0.03711 0.06982 0.06616 0.11572 0.08716 0.04639 0.02051 0.09961 0.03076 0.15967 0.03076 0.06445 0 0.11987-0.0105 0.16626-0.03149 0.04687-0.021 0.0852-0.05005 0.11499-0.08716 0.03027-0.0376 0.05249-0.08227 0.06665-0.13403 0.01465-0.05176 0.02197-0.10815 0.02197-0.16919" />
          <path
             id="path4212"
             d="m55.795 63.975v-1.032h0.78296v0.11426h-0.64307v0.33105h0.59912v0.11279h-0.59912v0.35962h0.6731v0.11426h-0.81299" />
          <path
             id="path4214"
             d="m57.675 63.975v-0.68848c-0.000001-0.0249 0.000243-0.05029 0.000732-0.07617 0.000487-0.02588 0.0012-0.04956 0.0022-0.07105 0.000976-0.0249 0.0022-0.04907 0.0037-0.07251-0.0068 0.0249-0.01392 0.04956-0.02124 0.07397-0.0063 0.021-0.01343 0.04346-0.02124 0.06738-0.0073 0.02344-0.01465 0.04468-0.02197 0.06372l-0.2666 0.70312h-0.09814l-0.27026-0.70312c-0.0029-0.0073-0.0061-0.01587-0.0095-0.02564-0.0029-0.0098-0.0063-0.02002-0.01025-0.03076-0.0034-0.01123-0.0071-0.02246-0.01099-0.03369-0.0034-0.01172-0.0068-0.02319-0.01025-0.03442-0.0083-0.02588-0.01636-0.05273-0.02417-0.08057 0.000488 0.02734 0.0012 0.05444 0.0022 0.0813 0.000976 0.02295 0.0017 0.04712 0.0022 0.07251 0.000488 0.0249 0.000733 0.04687 0.000733 0.06592v0.68848h-0.12451v-1.032h0.18384l0.27466 0.71558c0.0034 0.0098 0.0076 0.02246 0.01245 0.03809 0.0049 0.01514 0.0095 0.03076 0.01392 0.04687 0.0044 0.01611 0.0083 0.03149 0.01172 0.04614 0.0039 0.01416 0.0066 0.02515 0.0081 0.03296 0.0015-0.0078 0.0041-0.01904 0.0081-0.03369 0.0039-0.01465 0.0083-0.03003 0.01318-0.04614 0.0054-0.01611 0.0105-0.03174 0.01538-0.04687 0.0049-0.01514 0.0093-0.02759 0.01318-0.03735l0.26953-0.71558h0.17944v1.032h-0.12598" />
          <path
             id="path4216"
             d="m58.78 63.975-0.11792-0.30176h-0.47022l-0.11865 0.30176h-0.14502l0.42114-1.032h0.15894l0.41455 1.032h-0.14282m-0.29224-0.75146c-0.0078-0.01953-0.01538-0.0393-0.02271-0.05933-0.0068-0.02002-0.01294-0.03809-0.01831-0.0542-0.0054-0.0166-0.01001-0.03027-0.01392-0.04102-0.0034-0.01123-0.0054-0.01807-0.0059-0.02051-0.000977 0.0024-0.0032 0.0093-0.0066 0.02051-0.0034 0.01123-0.0081 0.02515-0.01392 0.04175-0.0054 0.0166-0.01172 0.03491-0.01904 0.05493-0.0068 0.02002-0.01392 0.0398-0.02124 0.05933l-0.13184 0.33911h0.38599l-0.13257-0.34058" />
          <path
             id="path4218"
             d="m59.066 63.975v-1.032h0.13989v1.032h-0.13989" />
          <path
             id="path4220"
             d="m59.466 63.975v-1.032h0.13989v0.91772h0.52148v0.11426h-0.66138" />
        </g>
      </g>
    </g>
    <rect
       id="rect3003"
       style="opacity:.15;fill:#fff"
       clip-path="url(#clipPath3009)"
       rx="25"
       ry="25"
       transform="translate(98)"
       width="92"
       y="958.36"
       x="-96"
       height="92" />
  </g>
</svg>
