<svg height="96" width="96" xmlns="http://www.w3.org/2000/svg" xmlns:sodipodi="http://sodipodi.sourceforge.net/DTD/sodipodi-0.dtd" xmlns:inkscape="http://www.inkscape.org/namespaces/inkscape">
 <g inkscape:label="Layer 1" inkscape:groupmode="layer" transform="matrix(1 0 0 1 0 -956.36)">
  <rect x="8.751" rx="10.769" y="964.14" fill="#7e6d50" fill-opacity="1" stroke="none" height="80" width="80"/>
  <path d="m 47.251809,974.21331 c -17.700598,0.35556 -31.884671,18.63303 -27.790468,35.90249 3.077976,17.1487 22.604368,28.4129 38.901444,22.3488 16.255584,-4.986 25.210434,-25.2795 17.696529,-40.68168 C 71.177513,980.8127 59.410745,973.41758 47.251809,974.21331 z m -0.91534,5.89884 v 21.56125 H 23.808586 c 0.948617,-11.62435 10.926283,-21.56287 22.527883,-22.50181 v 0.81365 0.1272 z m 5.822525,-0.81363 c 11.219191,1.2954 20.650831,11.13296 21.561288,22.37488 H 51.218434 v -22.50181 l 0.806303,0.10908 0.13446,0.018 z M 24.749309,1006.5553 H 46.33582 v 22.5019 c -11.625197,-0.9587 -21.575934,-10.8833 -22.527072,-22.5019 h 0.813635 0.12714 z m 27.281945,0 h 21.688213 c -0.964074,11.6137 -10.891297,21.5377 -22.501848,22.5019 v -22.5019 h 0.813635 z" fill="#e7c66f" color="#000000" fill-opacity="1" inkscape:connector-curvature="0"/>
 </g>
</svg>
