<svg height="96" width="96" xmlns="http://www.w3.org/2000/svg" xmlns:sodipodi="http://sodipodi.sourceforge.net/DTD/sodipodi-0.dtd" xmlns:inkscape="http://www.inkscape.org/namespaces/inkscape">
 <rect x="8" rx="10.769" y="-88" fill="#ffb700" fill-opacity="1" stroke="none" height="80" width="80" transform="matrix(0 1 -1 0 0 0)"/>
 <path d="M 18.78125 8 C 15.354279 8 12.313394 9.5829085 10.34375 12.0625 L 10.34375 15.6875 L 24.15625 15.6875 L 24.15625 12.5625 C 24.15623 11.127343 24.393662 10.039887 24.90625 9.28125 C 25.4393 8.522686 26.182845 8.125038 27.1875 8.125 C 28.048591 8.125038 28.779405 8.521695 29.3125 9.21875 C 29.845548 9.915881 30.062477 10.80013 30.0625 11.96875 C 30.062477 14.183077 27.82209 16.367743 23.25 18.5 C 21.917307 19.115109 20.883585 19.630977 20.125 20 C 15.757902 22.152813 12.873677 24.220249 11.5 26.25 C 10.146813 28.279788 9.468748 31.304723 9.46875 35.34375 L 9.46875 45.90625 L 43.8125 45.90625 L 43.8125 31.28125 L 30.0625 31.28125 C 30.00096 33.147013 29.678551 34.405433 29.125 35 C 28.591908 35.594592 27.536693 35.84376 25.9375 35.84375 L 23.53125 35.84375 L 23.53125 35.40625 C 23.531231 34.381124 23.842902 33.540854 24.4375 32.84375 C 25.032062 32.126165 26.432176 31.199921 28.6875 30.03125 L 31.875 28.46875 C 36.918643 25.926431 39.933822 24.150158 41 23.125 C 42.312138 21.833351 43.300883 20.391235 43.875 18.8125 C 44.469538 17.233815 44.687463 15.254342 44.6875 12.9375 C 44.687487 11.116613 44.51735 9.4687928 44.15625 8 L 18.78125 8 z M 52.3125 8 C 51.840725 10.021456 51.593747 12.388396 51.59375 15.15625 L 51.59375 29.71875 C 51.593744 36.136118 52.895154 40.591429 55.4375 43.03125 C 57.97983 45.471078 62.49086 46.6875 69.03125 46.6875 C 75.5921 46.6875 80.176376 45.471078 82.71875 43.03125 C 85.28155 40.570925 86.53121 36.115616 86.53125 29.71875 L 86.53125 15.15625 C 86.531246 14.510389 86.525493 13.88621 86.5 13.28125 C 84.627802 10.119353 81.174423 8 77.21875 8 L 52.3125 8 z M 69.03125 8.03125 C 70.056363 8.031288 70.798916 8.396693 71.25 9.09375 C 71.701027 9.790879 71.906227 10.965306 71.90625 12.6875 L 71.90625 32 C 71.906227 33.660738 71.701036 34.876165 71.25 35.59375 C 70.798916 36.290854 70.056363 36.625008 69.03125 36.625 C 67.985589 36.625008 67.201042 36.27035 66.75 35.59375 C 66.319439 34.896667 66.156233 33.701742 66.15625 32 L 66.15625 12.6875 C 66.156233 10.965306 66.361421 9.790879 66.8125 9.09375 C 67.263541 8.396693 68.006091 8.031288 69.03125 8.03125 z M 69.03125 49.375 C 63.003428 49.375048 58.653606 50.514257 55.90625 52.6875 C 53.179377 54.840333 51.781248 58.263905 51.78125 63 C 51.781248 65.624384 52.232628 67.638084 53.09375 69.09375 C 53.975362 70.528969 55.460463 71.701411 57.53125 72.5625 C 55.316946 73.423639 53.64914 74.747533 52.5625 76.53125 C 51.496355 78.315009 50.999999 80.67163 51 83.5625 C 51 85.192813 51.197283 86.654334 51.53125 88 L 77.21875 88 C 81.607629 88 85.381456 85.405593 87.0625 81.65625 C 86.870104 79.615859 86.35522 77.909886 85.53125 76.53125 C 84.46507 74.727033 82.850005 73.403139 80.65625 72.5625 C 82.726995 71.701411 84.19061 70.528969 85.03125 69.09375 C 85.89233 67.658588 86.31246 65.644888 86.3125 63 C 86.31246 58.243403 84.94558 54.777833 82.21875 52.625 C 79.491854 50.472261 75.079533 49.375048 69.03125 49.375 z M 25.09375 50.09375 L 8.84375 74.375 L 8.84375 81.4375 C 9.5490127 83.110479 10.662114 84.543865 12.0625 85.65625 L 27.84375 85.65625 L 27.84375 85.875 C 27.843725 86.715622 27.681528 87.42395 27.3125 87.875 C 27.275593 87.920107 27.22918 87.957804 27.1875 88 L 42.46875 88 C 42.416213 87.936316 42.35625 87.881261 42.3125 87.8125 C 42.045932 87.340949 41.895468 86.619888 41.875 85.65625 L 45 85.65625 L 45 76.125 L 41.8125 76.125 L 41.8125 50.09375 L 25.09375 50.09375 z M 69.03125 59.28125 C 70.056365 59.28129 70.798916 59.62619 71.25 60.34375 C 71.701027 61.061381 71.968725 62.25631 71.96875 63.9375 C 71.968725 65.639261 71.701038 66.792188 71.25 67.46875 C 70.81942 68.145369 70.076868 68.500028 69.03125 68.5 C 67.985591 68.500028 67.263541 68.145369 66.8125 67.46875 C 66.381937 66.771688 66.156231 65.618757 66.15625 63.9375 C 66.156231 62.215305 66.36142 60.978381 66.8125 60.28125 C 67.263541 59.584194 68.006093 59.28129 69.03125 59.28125 z M 28.15625 64.125 L 28.15625 76.125 L 20.3125 76.125 L 28.15625 64.125 z M 69.03125 77.25 C 70.056365 77.250021 70.798916 77.584175 71.25 78.28125 C 71.701027 78.978362 71.968725 80.151795 71.96875 81.8125 L 71.96875 83.25 C 71.968725 84.910738 71.701038 86.126167 71.25 86.84375 C 70.798916 87.540854 70.056365 87.875009 69.03125 87.875 C 67.985591 87.875009 67.263541 87.52035 66.8125 86.84375 C 66.381937 86.146667 66.156231 84.951744 66.15625 83.25 L 66.15625 81.8125 C 66.156231 80.151795 66.36142 78.978362 66.8125 78.28125 C 67.263541 77.584175 68.006093 77.250021 69.03125 77.25 z " fill="#1a1a1a" fill-opacity="1" stroke="none"/>
</svg>
