<svg height="96" width="96" xmlns="http://www.w3.org/2000/svg" xmlns:sodipodi="http://sodipodi.sourceforge.net/DTD/sodipodi-0.dtd" xmlns:inkscape="http://www.inkscape.org/namespaces/inkscape">
 <g transform="matrix(1 0 0 1 129.22 -0.814)">
  <rect x="-121.36" rx="10.769" y="8.814" fill="#dc0f0f" fill-opacity="1" stroke="none" height="80" width="80"/>
  <path d="m -88.591669,17.345218 -10.093803,64.372149 h 9.531013 l 1.84376,-13.343409 h 9.59362 l 1.84376,13.343409 h 9.53101 l -2.06246,-13.249413 h 0.15625 l -0.15625,-0.999956 h 13.56174 v 0.999956 13.249413 h 9.15602 V 68.467954 67.467998 h 4.59371 v -7.437171 h -4.59371 V 59.030872 17.344718 h -9.96861 l -14.24872,41.686154 -6.53087,-41.686154 h -12.15576 z m 5.81238,18.561178 h 0.56249 l 0.25,1.687425 2.87494,20.624087 h -0.125 l 0.125,0.999955 h -6.84366 l 0.12499,-0.999955 h -0.12499 l 2.87494,-20.624087 0.28124,-1.687425 z m 27.40547,0.718718 h 0.53124 v 0.999956 0.968707 0.999956 19.437139 0.999955 h -6.90607 l 0.28125,-0.999955 h -0.28125 l 5.81239,-20.437095 0.56249,-1.968713 z" fill="#e6e6e6" inkscape:connector-curvature="0"/>
 </g>
</svg>
