<svg height="96" width="96" xmlns="http://www.w3.org/2000/svg" xmlns:sodipodi="http://sodipodi.sourceforge.net/DTD/sodipodi-0.dtd" xmlns:inkscape="http://www.inkscape.org/namespaces/inkscape">
 <g inkscape:label="Layer 1" inkscape:groupmode="layer" transform="matrix(1 0 0 1 0 -956.36)">
  <rect x="8" rx="10.769" y="964.36" fill="#004455" fill-opacity="1" stroke="none" height="80" width="80"/>
  <g transform="matrix(1 0 0 1 38.498 0)">
   <rect x="14.902" rx="5" ry="4.286" y="974.36" fill="#ff7f2a" fill-opacity="1" height="60" width="26.03"/>
   <path d="m 22.434247,1002.6076 v -2.3858 h 10.969585 v 2.3858 H 22.434247 m 0,5.895 v -2.3644 h 10.969585 v 2.3644 H 22.434247" fill="#ffffff" inkscape:connector-curvature="0"/>
  </g>
  <g transform="matrix(1 0 0 1 -31.33 0)">
   <rect x="46.1" rx="2.5" y="978.5" fill="#00222b" fill-opacity="1" height="21.91" width="35"/>
   <path d="m 58.888792,990.75345 v -2.606 h 9.419087 v 2.606 h -9.419087" fill="#ffffff" inkscape:connector-curvature="0"/>
   <rect x="46.1" rx="2.5" y="1008.32" fill="#00222b" fill-opacity="1" height="21.91" width="35"/>
   <path d="m 64.684005,1020.3646 v 3.9725 h -2.200566 v -3.9725 h -3.8851 v -2.1811 h 3.8851 v -3.9726 h 2.200566 v 3.9726 h 3.914334 v 2.1811 h -3.914334" fill="#ffffff" inkscape:connector-curvature="0"/>
  </g>
 </g>
</svg>
