<svg height="96" width="96" xmlns="http://www.w3.org/2000/svg" xmlns:sodipodi="http://sodipodi.sourceforge.net/DTD/sodipodi-0.dtd" xmlns:inkscape="http://www.inkscape.org/namespaces/inkscape">
 <rect x="8" rx="10.769" y="8" fill="#d6b17e" fill-opacity="1" stroke="none" height="80" width="80"/>
 <g transform="matrix(1.119 0 0 1.119 -113.05 -6.71)">
  <path d="m 115.32,15.5106 v 0.49836 5.2016 0.49836 h 0.49948 4.5578 v 4.1426 h -1.4984 v -2.118 -0.49836 h -0.49948 -2.5598 -0.49948 v 0.49836 2.6164 0.49836 h 0.49948 2.0604 v 43.325 h -2.0604 -0.49948 v 0.49836 2.6475 0.49836 h 0.49948 2.5598 0.49948 v -0.49836 -2.1492 h 1.4984 v 4.1426 h -4.5578 -0.49948 v 0.498 5.202 0.498 h 0.49948 5.0572 0.49948 v -0.49836 -4.7033 h 4.2456 v 1.6508 h -2.154 -0.49948 v 0.49836 2.5541 0.49836 h 0.49948 2.6535 0.49948 v -0.49836 -2.0557 h 35.399 v 2.0557 0.49836 h 0.49948 2.6847 0.49948 v -0.49836 -2.5541 -0.49836 h -0.49948 -2.1852 v -1.6508 h 4.2456 v 4.7033 0.49836 h 0.49948 5.0572 0.499 v -0.498 -5.202 -0.49836 h -0.49948 -4.5578 v -4.1426 h 1.5297 v 2.1492 0.49836 h 0.49948 2.5286 0.49948 v -0.49836 -2.6475 -0.49836 h -0.49948 -2.0291 v -43.325 h 2.0291 0.49948 v -0.49836 -2.6164 -0.49836 h -0.49948 -2.5286 -0.49948 v 0.49836 2.118 h -1.5297 v -4.1426 h 4.5578 0.49948 v -0.498 -5.202 -0.498 h -0.49948 -5.0572 -0.49948 v 0.49836 4.7033 h -4.2456 v -1.6508 h 2.1852 0.49948 v -0.46721 -2.5852 -0.49836 h -0.49948 -2.6847 -0.49948 v 0.49836 2.0869 h -35.399 v -2.0869 -0.49836 h -0.49948 -2.6535 -0.49948 v 0.49836 2.5852 0.46721 h 0.49948 2.154 v 1.6508 h -4.2456 v -4.7033 -0.49836 h -0.49948 -5.0572 z m 0.99896,0.99672 h 4.0583 v 4.2049 h -4.0583 z m 7.6483,0 h 1.6545 v 1.5885 h -1.6545 z m 39.051,0 h 1.6857 v 1.5885 h -1.6857 z m 5.2445,0 h 4.0583 v 4.2049 h -4.0583 z m -41.642,2.5541 h 35.399 v 1.6508 h -2.0916 -0.49948 v 0.49836 2.5852 0.46721 h 0.49948 2.5911 0.49948 v -0.46721 -2.0869 h 4.2456 v 4.1426 h -2.154 -0.49948 v 0.49836 2.5852 0.46721 h 0.49948 2.6535 0.49948 v -0.46721 -2.0869 h 1.5297 v 43.325 h -1.5297 v -2.0557 -0.49836 h -0.49948 -2.6535 -0.49948 v 0.49836 2.5541 0.49836 h 0.49948 2.154 v 4.1426 h -4.2456 v -2.0557 -0.49836 h -0.49948 -2.5911 -0.49948 v 0.49836 2.5541 0.49836 h 0.49948 2.0916 v 1.6508 h -35.399 v -1.6508 h 2.1228 0.49948 V 75.8109 73.2568 72.75844 h -0.49948 -2.6223 -0.49948 v 0.49836 2.0557 h -4.2456 v -4.1426 h 2.1852 0.49948 v -0.49836 -2.5541 -0.49836 h -0.49948 -2.6847 -0.49948 v 0.49836 2.0557 h -1.4984 v -43.325 h 1.4984 v 2.0869 0.46721 h 0.49948 2.6847 0.49948 v -0.46721 -2.5852 -0.49836 h -0.49948 -2.1852 v -4.1426 h 4.2456 v 2.0869 0.46721 h 0.49948 2.6223 0.49948 v -0.46721 -2.5852 -0.49836 h -0.49948 -2.1228 z m 0,2.6475 h 1.6233 v 1.5885 h -1.6233 z m 33.806,0 h 1.5921 v 1.5885 h -1.5921 z m -44.108,2.4918 h 1.5609 v 1.6508 h -1.5609 z m 54.472,0 h 1.5297 v 1.6508 h -1.5297 z m -49.415,2.6475 h 1.6857 v 1.5885 h -1.6857 z m 44.233,0 h 1.6545 v 1.5885 h -1.6545 z m -44.233,41.767 h 1.6857 v 1.5574 h -1.6857 z m 44.233,0 h 1.6545 v 1.5574 h -1.6545 z m -49.29,2.5541 h 1.5609 v 1.6508 h -1.5609 z m 54.472,0 h 1.5297 v 1.6508 h -1.5297 z m -44.171,2.5852 h 1.6233 v 1.5574 h -1.6233 z m 33.806,0 h 1.5921 v 1.5574 h -1.5921 z m -44.108,2.5541 h 4.0583 v 4.2049 h -4.0583 z m 51.944,0 h 4.0583 v 4.2049 h -4.0583 z m -44.296,2.6475 h 1.6545 v 1.5574 h -1.6545 z m 39.051,0 h 1.6857 v 1.5574 h -1.6857 z" fill="#784421" fill-rule="evenodd" opacity="0.559" inkscape:connector-curvature="0"/>
  <path d="m 132.926,31.2316 h -1.0168 l -5.5682,14.114 c -0.48419,1.2589 -0.58103,1.4284 -0.94417,1.8157 -0.38735,0.45998 -1.0652,0.75049 -1.7189,0.75049 h -0.0968 v 1.1378 h 6.4155 v -1.1378 h -0.48419 c -1.3073,0 -1.961,-0.45998 -1.961,-1.3799 0,-0.29051 0.0726,-0.62944 0.21788,-1.0168 l 0.79891,-2.1304 h 6.4155 l 1.3073,3.2441 c 0.14526,0.36314 0.19367,0.53261 0.19367,0.65365 0,0.38735 -0.60523,0.62944 -1.501,0.62944 h -1.0168 v 1.1378 h 7.5049 v -1.1378 h -0.33893 c -1.2105,0 -1.4768,-0.19368 -2.0336,-1.5494 l -6.173,-15.131 m -1.1863,3.9703 2.7357,6.8755 h -5.4229 l 2.6872,-6.8755 m 13.888,-3.9945 -4.164,0.2663 v 1.041 h 0.84733 c 0.89575,0 1.041,0.16947 1.041,1.2105 v 9.4174 c 0,3.2441 -0.12105,4.8177 -0.43577,6.246 h 0.91996 l 1.1863,-1.8883 c 0.99258,1.3073 2.1304,1.9125 3.6314,1.9125 2.9777,0 5.205,-2.5904 5.205,-6.0766 0,-3.4861 -2.0336,-5.9313 -4.9387,-5.9313 -1.4768,0 -2.3725,0.5084 -3.2925,1.8883 v -8.0859 m 2.8567,7.4323 c 1.8157,0 2.8325,1.7673 2.8325,4.9387 0,3.0504 -0.99259,4.7935 -2.7599,4.7935 -1.9125,0 -3.0504,-1.7673 -3.0504,-4.745 0,-3.2198 1.041,-4.9871 2.9778,-4.9871 m 15.631,6.8513 c -0.7747,1.7431 -1.5978,2.4451 -2.8567,2.4451 -1.9367,0 -3.1472,-1.7673 -3.1472,-4.5998 0,-2.9293 1.1863,-4.8903 2.9778,-4.8903 0.72628,0 1.3557,0.33893 1.3557,0.72628 0,0.07263 -0.0484,0.14526 -0.14526,0.29051 -0.38734,0.45998 -0.48418,0.70207 -0.48418,1.1136 0,0.79891 0.60524,1.3557 1.4526,1.3557 0.84732,0 1.4768,-0.67786 1.4768,-1.6462 0,-1.622 -1.622,-2.8809 -3.7767,-2.8809 -3.1472,0 -5.3987,2.5904 -5.3987,6.1976 0,3.4377 2.0578,5.8102 5.0598,5.8102 2.1546,0 3.3893,-0.99259 4.4303,-3.5588 l -0.94417,-0.36314" fill="#784421" inkscape:connector-curvature="0"/>
  <path d="m 131.627,52.9106 h -0.13441 l -0.13794,0.21576 c -0.22991,-0.18392 -0.38553,-0.24405 -0.64374,-0.24405 -0.27942,0 -0.49872,0.07782 -0.72155,0.2582 -0.35016,0.28296 -0.51287,0.6402 -0.51287,1.1177 0,0.36078 0.10611,0.66142 0.31126,0.89132 0.21929,0.24759 0.5447,0.39261 0.88425,0.39261 0.29711,0 0.50579,-0.09196 0.7357,-0.32187 l 0.13087,0.31833 h 0.14855 v -0.77814 c 0,-0.191 0,-0.19454 0.0212,-0.2193 0.0318,-0.03537 0.10611,-0.04952 0.29711,-0.04952 h 0.0531 V 54.3254 h -1.1248 v 0.16624 h 0.0672 c 0.29711,0 0.32187,0.01769 0.32187,0.21222 0,0.15209 -0.0283,0.29357 -0.0707,0.37846 -0.0884,0.17331 -0.31479,0.29357 -0.5447,0.29357 -0.22637,0 -0.45627,-0.11672 -0.57653,-0.29357 -0.13087,-0.19453 -0.18746,-0.44566 -0.18746,-0.82412 0,-0.78875 0.26174,-1.2097 0.75338,-1.2097 0.40322,0 0.68264,0.29004 0.82766,0.85596 h 0.15209 l -0.0495,-0.9939 m 1.1578,0.93023 -0.6119,0.0389 v 0.15209 h 0.12733 c 0.13087,0 0.15209,0.02476 0.15209,0.17685 v 0.84534 0.14148 c 0,0.14148 -0.0389,0.16624 -0.26527,0.16624 h -0.0142 v 0.12733 h 0.89486 v -0.12733 h -0.0142 c -0.2299,0 -0.26881,-0.02476 -0.26881,-0.16624 v -0.14148 -0.36785 c 0,-0.17331 0.0248,-0.33248 0.0637,-0.41383 0.0743,-0.15916 0.23344,-0.26881 0.38553,-0.26881 0.092,0 0.19807,0.05305 0.25113,0.1238 0.053,0.07428 0.0778,0.18392 0.0778,0.3537 v 0.573 0.14148 c 0,0.14148 -0.0389,0.16624 -0.26881,0.16624 h -0.0141 v 0.12733 h 0.89486 V 55.3617 h -0.0142 c -0.22637,0 -0.26527,-0.02476 -0.26527,-0.16624 v -0.14148 -0.55531 c 0,-0.25466 -0.0106,-0.31833 -0.0743,-0.43859 -0.0884,-0.16978 -0.26881,-0.27235 -0.4775,-0.27235 -0.22636,0 -0.40322,0.10611 -0.55885,0.33955 v -0.2865 m 2.3462,-0.05305 c -0.43151,0 -0.77107,0.38553 -0.77107,0.88071 0,0.48457 0.33955,0.87364 0.76399,0.87364 0.42444,0 0.76399,-0.38907 0.76399,-0.87718 0,-0.48457 -0.33955,-0.87718 -0.75692,-0.87718 m 0,0.15209 c 0.24759,0 0.38553,0.2582 0.38553,0.72509 0,0.47042 -0.13794,0.72508 -0.39261,0.72508 -0.25466,0 -0.39261,-0.25466 -0.39261,-0.72155 0,-0.48103 0.13441,-0.72862 0.39968,-0.72862 m 1.5881,-0.09904 -0.62959,0.0389 v 0.15209 h 0.14502 c 0.13087,0 0.15209,0.02476 0.15209,0.17685 v 0.84534 0.13794 c 0,0.14502 -0.0389,0.16978 -0.26528,0.16978 h -0.0142 V 55.489 h 0.89132 v -0.12733 h -0.0142 c -0.22637,0 -0.26528,-0.02476 -0.26528,-0.16978 v -0.13794 -0.50226 c 0,-0.31479 0.17331,-0.54824 0.40322,-0.54824 0.092,0 0.191,0.04952 0.23344,0.11672 0.0495,0.0672 0.0707,0.16978 0.0707,0.31479 v 0.61898 0.14148 c 0,0.14148 -0.0389,0.16624 -0.26881,0.16624 h -0.0142 v 0.12733 h 0.89486 v -0.12733 h -0.0142 c -0.22637,0 -0.26528,-0.02476 -0.26528,-0.16624 v -0.14148 -0.47042 c 0,-0.3537 0.15916,-0.58007 0.40676,-0.58007 0.11672,0 0.21222,0.06721 0.2582,0.17685 0.0318,0.07782 0.0424,0.15563 0.0424,0.29357 v 0.58007 0.14148 c 0,0.14148 -0.0389,0.16624 -0.26881,0.16624 h -0.0142 v 0.12733 h 0.89486 v -0.12733 h -0.0142 c -0.22637,0 -0.26528,-0.02476 -0.26528,-0.16978 v -0.13794 -0.65081 c 0,-0.21929 -0.0212,-0.29357 -0.11318,-0.41383 -0.10255,-0.13086 -0.24757,-0.2016 -0.41735,-0.2016 -0.22991,0 -0.39968,0.10965 -0.55177,0.3537 -0.0601,-0.21222 -0.25113,-0.3537 -0.48811,-0.3537 -0.21222,0 -0.37138,0.10257 -0.50933,0.3254 v -0.27235 m 4.077,0.85242 c 0.004,-0.53055 -0.29711,-0.90547 -0.72862,-0.90547 -0.45274,0 -0.79229,0.39261 -0.79229,0.92316 0,0.49518 0.32187,0.8312 0.79936,0.8312 0.33602,0 0.57653,-0.16624 0.72155,-0.50226 l -0.12379,-0.0672 c -0.14502,0.27235 -0.29357,0.37846 -0.53055,0.37846 -0.18039,0 -0.31126,-0.07782 -0.40322,-0.23344 -0.0637,-0.10611 -0.092,-0.2299 -0.0884,-0.42444 h 1.146 m -1.1425,-0.15209 c 0,-0.10965 0.0142,-0.18746 0.0495,-0.2865 0.0743,-0.21222 0.18746,-0.31479 0.35724,-0.31479 0.21576,0 0.35724,0.18746 0.35724,0.47042 0,0.10257 -0.0318,0.13087 -0.14502,0.13087 h -0.61898 m 2.7318,0.51287 v 0.10257 c 0,0.14855 -0.0318,0.16624 -0.31479,0.16624 h -0.0672 v 0.16624 h 1.1884 c 0.31479,0 0.55531,-0.04952 0.74277,-0.15563 0.35724,-0.20161 0.55531,-0.60483 0.55531,-1.1354 0,-0.48457 -0.17685,-0.8701 -0.50226,-1.0823 -0.19454,-0.1238 -0.45627,-0.18039 -0.85949,-0.18039 h -1.1248 v 0.16624 h 0.0672 c 0.28296,0 0.31479,0.01769 0.31479,0.16624 v 0.10257 1.6836 m 0.59776,0.26881 c -0.17685,0 -0.20161,-0.02123 -0.20161,-0.19454 v -1.8286 c 0,-0.17331 0.0248,-0.19807 0.20161,-0.19807 h 0.18392 c 0.60483,0 0.85595,0.32894 0.85595,1.1106 0,0.79229 -0.2299,1.1106 -0.79936,1.1106 h -0.24052 m 2.3958,-1.482 -0.66496,0.0389 v 0.15209 h 0.18039 c 0.13087,0 0.15209,0.02476 0.15209,0.17685 v 0.84534 0.14148 c 0,0.14148 -0.0389,0.16624 -0.26528,0.16624 h -0.0248 v 0.12733 h 0.91608 v -0.12733 h -0.0248 c -0.2299,0 -0.26881,-0.02476 -0.26881,-0.16624 v -0.14148 -1.2132 m -0.16624,-0.88071 c -0.11318,0 -0.20515,0.09196 -0.20515,0.20515 0,0.10965 0.092,0.20515 0.20161,0.20515 0.11672,0 0.20868,-0.09196 0.20868,-0.20515 0,-0.11318 -0.092,-0.20515 -0.20515,-0.20515 m 1.9187,2.009 c -0.11318,0.25466 -0.23344,0.35724 -0.41737,0.35724 -0.28296,0 -0.45981,-0.2582 -0.45981,-0.67203 0,-0.42798 0.17331,-0.71447 0.43505,-0.71447 0.10611,0 0.19807,0.04952 0.19807,0.10611 0,0.01061 -0.007,0.02123 -0.0212,0.04244 -0.0566,0.0672 -0.0707,0.10257 -0.0707,0.1627 0,0.11672 0.0884,0.19807 0.21222,0.19807 0.1238,0 0.21576,-0.09904 0.21576,-0.24052 0,-0.23698 -0.23698,-0.4209 -0.55177,-0.4209 -0.45981,0 -0.78875,0.37846 -0.78875,0.90547 0,0.50226 0.30065,0.84888 0.73923,0.84888 0.31479,0 0.49518,-0.14502 0.64727,-0.51994 l -0.13794,-0.05305 m 0.88552,-1.1283 v -0.70033 h -0.14502 c -0.0354,0.45981 -0.191,0.69325 -0.4775,0.71447 v 0.13794 h 0.29003 v 0.90194 c 0,0.24759 0.007,0.33602 0.0424,0.41736 0.0566,0.14855 0.19807,0.22991 0.40322,0.22991 0.13794,0 0.2582,-0.04244 0.33955,-0.12026 0.11672,-0.11318 0.18392,-0.30064 0.18392,-0.49518 0,-0.02123 0,-0.04598 -0.004,-0.08135 h -0.14855 c -0.0106,0.31833 -0.10257,0.48103 -0.27589,0.48103 -0.0813,0 -0.15209,-0.04244 -0.17685,-0.10257 -0.0212,-0.04952 -0.0318,-0.13794 -0.0318,-0.26528 v -0.9656 h 0.51994 V 53.8407 h -0.51994 m 1.4172,0 -0.66496,0.0389 v 0.15209 h 0.18039 c 0.13087,0 0.15209,0.02476 0.15209,0.17685 v 0.84534 0.14148 c 0,0.14148 -0.0389,0.16624 -0.26527,0.16624 h -0.0248 v 0.12733 h 0.91608 V 55.3616 h -0.0248 c -0.2299,0 -0.26881,-0.02476 -0.26881,-0.16624 v -0.14148 -1.2132 m -0.16624,-0.88071 c -0.11318,0 -0.20515,0.09196 -0.20515,0.20515 0,0.10965 0.092,0.20515 0.20161,0.20515 0.11672,0 0.20868,-0.09196 0.20868,-0.20515 0,-0.11318 -0.092,-0.20515 -0.20515,-0.20515 m 1.4412,0.82766 c -0.43151,0 -0.77107,0.38553 -0.77107,0.88071 0,0.48457 0.33955,0.87364 0.76399,0.87364 0.42444,0 0.76399,-0.38907 0.76399,-0.87718 0,-0.48457 -0.33955,-0.87718 -0.75692,-0.87718 m 0,0.15209 c 0.24759,0 0.38553,0.2582 0.38553,0.72509 0,0.47042 -0.13794,0.72508 -0.39261,0.72508 -0.25466,0 -0.39261,-0.25466 -0.39261,-0.72155 0,-0.48103 0.13441,-0.72862 0.39968,-0.72862 m 1.5846,-0.09904 -0.6119,0.0389 v 0.15209 h 0.12733 c 0.13087,0 0.15209,0.02476 0.15209,0.17685 v 0.84534 0.14148 c 0,0.14148 -0.0389,0.16624 -0.26528,0.16624 h -0.0142 v 0.12733 h 0.89486 v -0.12733 h -0.0142 c -0.2299,0 -0.26881,-0.02476 -0.26881,-0.16624 V 55.05385 54.686 c 0,-0.17331 0.0248,-0.33248 0.0637,-0.41383 0.0743,-0.15916 0.23344,-0.26881 0.38553,-0.26881 0.092,0 0.19807,0.05305 0.25113,0.1238 0.0531,0.07428 0.0778,0.18392 0.0778,0.3537 v 0.573 0.14148 c 0,0.14148 -0.0389,0.16624 -0.26881,0.16624 h -0.0142 v 0.12733 h 0.89486 v -0.12733 h -0.0142 c -0.22637,0 -0.26528,-0.02476 -0.26528,-0.16624 v -0.14148 -0.55531 c 0,-0.25466 -0.0106,-0.31833 -0.0743,-0.43859 -0.0884,-0.16978 -0.26881,-0.27235 -0.4775,-0.27235 -0.22637,0 -0.40322,0.10611 -0.55885,0.33955 v -0.2865 m 3.0536,0.50933 c 0,-0.22283 -0.0389,-0.33602 -0.14148,-0.4209 -0.11672,-0.09196 -0.29004,-0.14148 -0.5164,-0.14148 -0.39614,0 -0.68971,0.18746 -0.68971,0.44212 0,0.13441 0.0813,0.21929 0.20515,0.21929 0.10965,0 0.191,-0.07428 0.191,-0.18039 0,-0.04598 -0.0177,-0.0955 -0.053,-0.14502 -0.0212,-0.02476 -0.0248,-0.03537 -0.0248,-0.04598 0,-0.07428 0.14502,-0.13794 0.31479,-0.13794 0.10965,0 0.23344,0.03537 0.29003,0.08843 0.0672,0.05659 0.092,0.14148 0.092,0.30064 v 0.13794 c -0.37138,0.06367 -0.48457,0.09196 -0.65788,0.15916 -0.30418,0.11318 -0.45274,0.27942 -0.45274,0.50225 0,0.25113 0.20161,0.41383 0.51286,0.41383 0.24405,0 0.46335,-0.09904 0.61544,-0.27942 0.0566,0.18039 0.14502,0.25113 0.31126,0.25113 0.15917,0 0.32541,-0.10257 0.32541,-0.20515 0,-0.02476 -0.0177,-0.04244 -0.0354,-0.04244 -0.0142,0 -0.0283,0.0035 -0.053,0.01415 -0.0566,0.02123 -0.0707,0.02476 -0.099,0.02476 -0.099,0 -0.13441,-0.0672 -0.13441,-0.24405 v -0.71094 m -0.33248,0.43151 c 0,0.21222 -0.0106,0.26174 -0.0707,0.3537 -0.0884,0.13087 -0.25113,0.21929 -0.40322,0.21929 -0.15916,0 -0.27942,-0.11672 -0.27942,-0.27589 0,-0.14855 0.0743,-0.25466 0.2299,-0.32894 0.10965,-0.04952 0.24759,-0.08489 0.52348,-0.13087 v 0.1627 m 1.4029,-0.94084 -0.62605,0.0389 v 0.15209 h 0.14502 c 0.13087,0 0.15209,0.02476 0.15209,0.17685 v 0.84534 0.14148 c 0,0.14148 -0.0389,0.16624 -0.26881,0.16624 h -0.0142 v 0.12733 h 0.94438 v -0.12733 h -0.0672 c -0.22637,0 -0.26528,-0.02476 -0.26528,-0.16624 v -0.14148 -0.03537 c 0,-0.26528 0.0495,-0.53409 0.13794,-0.7357 0.0849,-0.19807 0.20515,-0.30772 0.3537,-0.3254 -0.0495,0.05659 -0.0637,0.09196 -0.0637,0.15916 0,0.11318 0.0813,0.19454 0.19453,0.19454 0.12733,0 0.21576,-0.0955 0.21576,-0.24052 0,-0.16978 -0.12026,-0.28296 -0.30772,-0.28296 -0.22283,0 -0.41737,0.18039 -0.53055,0.49164 v -0.43859 m 1.9289,1.199 -0.38907,-0.90901 c -0.0142,-0.03184 -0.0212,-0.05659 -0.0212,-0.07428 0,-0.06367 0.0424,-0.08843 0.1627,-0.08843 h 0.0743 v -0.12733 h -0.84181 v 0.12733 h 0.0389 c 0.11318,0 0.17685,0.04952 0.24052,0.191 l 0.57653,1.3052 -0.0601,0.1238 c -0.12733,0.26881 -0.29357,0.45627 -0.40676,0.45627 -0.0318,0 -0.0566,-0.01415 -0.0566,-0.03537 0,-0.007 0.004,-0.01769 0.007,-0.03184 0.0106,-0.03184 0.0177,-0.06367 0.0177,-0.09196 0,-0.09196 -0.0778,-0.15916 -0.18039,-0.15916 -0.1238,0 -0.21222,0.09196 -0.21222,0.21929 0,0.15563 0.13794,0.27235 0.32187,0.27235 0.18746,0 0.34663,-0.09196 0.48811,-0.28296 0.10965,-0.14855 0.18039,-0.29003 0.33602,-0.68264 l 0.40322,-0.99743 c 0.0884,-0.21576 0.1627,-0.2865 0.29711,-0.2865 h 0.0212 v -0.12733 h -0.7074 v 0.12733 h 0.0566 c 0.13441,0 0.191,0.0389 0.191,0.13087 0,0.03537 -0.0106,0.08136 -0.0354,0.14148 l -0.32187,0.79936" fill="#784421" inkscape:connector-curvature="0"/>
 </g>
</svg>
