<svg height="96" width="96" xmlns="http://www.w3.org/2000/svg" xmlns:sodipodi="http://sodipodi.sourceforge.net/DTD/sodipodi-0.dtd" xmlns:inkscape="http://www.inkscape.org/namespaces/inkscape">
 <g inkscape:label="Layer 1" inkscape:groupmode="layer" transform="matrix(1 0 0 1 0 -956.36)">
  <rect x="8.751" rx="10.769" y="964.14" fill="#16502d" fill-opacity="1" stroke="none" height="80" width="80"/>
  <path d="m 50.671,53.085 c -3.7457,1.4e-5 -6.3407,0.42833 -7.7852,1.2849 -1.4445,0.85664 -2.1668,2.3179 -2.1668,4.3839 -8e-6,1.6461 0.53748,2.9562 1.6125,3.9304 1.0918,0.95741 2.5699,1.4361 4.4343,1.4361 2.5699,3e-6 4.6275,-0.90702 6.1728,-2.7211 1.5621,-1.8308 2.3431,-4.2579 2.3431,-7.2813 v -1.033 H 50.671 m 9.2466,-1.9148 v 16.1 H 55.2817 V 62.987 c -1.0582,1.7133 -2.3767,2.9814 -3.9556,3.8044 -1.5789,0.80624 -3.5105,1.2094 -5.7948,1.2094 -2.889,-10e-7 -5.1902,-0.80624 -6.9034,-2.4187 -1.6965,-1.6293 -2.5447,-3.8044 -2.5447,-6.5255 -3e-6,-3.1746 1.0582,-5.5681 3.1746,-7.1806 2.1332,-1.6125 5.3077,-2.4187 9.5237,-2.4187 h 6.5003 v -0.45351 c -2.3e-5,-2.1332 -0.70548,-3.7792 -2.1164,-4.9382 -1.3941,-1.1757 -3.3593,-1.7636 -5.8956,-1.7636 -1.6125,2.5e-5 -3.183,0.19319 -4.7115,0.57948 -1.5285,0.38635 -2.9982,0.96583 -4.4091,1.7385 v -4.2831 c 1.6965,-0.65504 3.3425,-1.1421 4.9382,-1.4613 1.5957,-0.3359 3.1494,-0.50387 4.6611,-0.5039 4.0816,2.9e-5 7.1302,1.0582 9.1458,3.1746 2.0156,2.1164 3.0234,5.3246 3.0234,9.6245 m -15.621,-25.17 7.105,9.4229 h -3.8548 l -8.2136,-9.4229 h 4.9634" fill="#e6e6e6" opacity="0.9" inkscape:connector-curvature="0" transform="matrix(1 0 0 1 0.751 957.14)"/>
 </g>
</svg>
