<svg height="96" width="96" xmlns="http://www.w3.org/2000/svg" xmlns:sodipodi="http://sodipodi.sourceforge.net/DTD/sodipodi-0.dtd" xmlns:inkscape="http://www.inkscape.org/namespaces/inkscape">
 <rect x="8" rx="10.769" y="8" fill="#CF4551" fill-opacity="1" stroke="none" height="80" width="80"/>
 <g enable-background="new" transform="matrix(1.49689 0 0 1.49689 130.17 -1230.54)">
  <path d="m -44.844,827.41 c -2.512,5.5302 -4.4155,11.219 -5.6784,16.952 -0.65554,0.52169 -1.3217,1.0091 -2.0042,1.5032 -7.7865,5.6361 -17.127,9.3188 -25.887,9.1021 v 4.1754 c 7.7517,0.7319 12.816,3.3853 15.783,7.3486 2.6829,3.5844 3.7966,8.4678 3.5073,14.363 h 2.6722 c 0.28564,-6.2789 -0.86691,-11.753 -4.0083,-15.95 -2.7624,-3.6906 -6.9696,-6.2744 -12.693,-7.5991 7.6537,-1.0247 15.253,-4.4277 21.795,-9.102 -1.8867,10.956 -1.5792,22.083 0.75155,32.651 h 18.455 c -9.2215,-8.361 -13.211,-23.348 -13.194,-37.494 5.1999,-4.8406 9.2408,-10.39 11.357,-15.95 h -2.8392 c -1.7594,4.0722 -4.7082,8.2511 -8.4342,12.108 0.22687,-4.262 0.9068,-8.3417 1.8371,-12.108 h -1.4196 z" fill="#640000" fill-rule="evenodd" opacity="0.3" inkscape:connector-curvature="0"/>
  <g transform="matrix(0.69496 0 0 0.69496 -88.29 820.33)">
   <path d="m 44.094,12.969 c -1.9119,-0.16117 -3.5187,0.76566 -4.5,2.0938 -1.0192,1.3794 -1.5215,3.1274 -1.5625,4.75 h 0.03125 c -0.65003,5.8512 0.60925,11.584 2.0312,17.062 -3.1076,10.107 -7.8284,19.693 -13.281,28.781 -0.77759,-0.17383 -1.5641,-0.20106 -2.2812,0 -0.95626,0.26809 -1.813,0.78809 -2.625,1.375 -1.6241,1.1738 -3.082,2.6774 -4.25,3.4375 a 0.86023,0.86023 0 0 0 -0.157,0.125 c -1.3172,1.3235 -2.9244,2.9535 -4.0625,4.8438 -1.1381,1.8903 -1.7937,4.1278 -1.0312,6.4375 a 0.86023,0.86023 0 0 0 0.094,0.187 c 2.4087,3.5353 7.6233,3.7318 10.75,1.125 0.01839,-0.01348 0.04416,-0.01772 0.0625,-0.03125 5.624,-4.148 8.846,-10.374 12.438,-15.844 7.977,-2.425 16.155,-4.185 24.438,-5.093 5.807,2.755 12.379,5.458 19.187,4.531 a 0.86023,0.86023 0 0 0 0.03125,0 c 1.718,-0.31243 3.0262,-1.3022 3.7812,-2.5938 0.75502,-1.2916 0.98196,-2.8555 0.75,-4.375 -0.32269,-2.3151 -1.9036,-3.7846 -3.7188,-4.625 -1.814,-0.84 -3.905,-1.155 -5.593,-1.344 -4.124,-0.399 -8.241,-0.144 -12.281,0.094 -5.729,-3.049 -10.108,-8.396 -12.344,-14.531 a 0.86023,0.86023 0 0 0 -0.09375,-0.1875 c -1.5206,-2.2561 -0.83696,-4.8343 -0.5625,-7.8125 0.001,-0.01106 -10e-4,-0.02017 0,-0.03125 0.3862,-3.5674 0.24236,-7.276 0.40625,-10.562 0.53443,-1.8455 0.38521,-3.8227 -0.53125,-5.375 -0.92502,-1.5668 -2.6923,-2.6195 -4.9062,-2.4375 -0.07707,0.0063 -0.14061,-0.0094 -0.21875,0 z m 1.0938,35.188 c 1.7123,2.8739 3.8133,5.4782 6.2812,7.75 -3.8417,0.84796 -7.6263,1.9196 -11.344,3.2188 1.8626,-3.5537 3.5889,-7.2075 5.0625,-10.969 z" opacity="0.05" inkscape:connector-curvature="0"/>
   <path d="m 44.188,13.812 c -3.402,-0.437 -5.196,3.129 -5.269,6.036 -0.655,5.77 0.634,11.504 2.081,17.058 -3.194,10.477 -8.097,20.365 -13.75,29.719 -3.3659,-1.4437 -6.5142,2.8429 -9.1405,4.5521 -2.6259,2.6385 -6.2229,6.3829 -4.8929,10.412 2.0929,3.0719 6.792,3.2286 9.5267,0.90192 5.5407,-4.0624 8.7612,-10.32 12.475,-15.928 8.1925,-2.5082 16.603,-4.3017 25.125,-5.2188 5.8303,2.7756 12.321,5.4566 18.909,4.5598 2.9688,-0.5399 4.2488,-3.3126 3.8387,-5.9993 -0.55654,-3.9929 -5.2433,-4.884 -8.5575,-5.2546 -4.14,-0.401 -8.299,-0.144 -12.44,0.1 -6.02,-3.144 -10.595,-8.712 -12.921,-15.093 -1.759,-2.609 -0.931,-5.477 -0.668,-8.362 0.381,-3.49 0.245,-7.205 0.412,-10.557 1.105,-3.377 -0.674,-7.414 -4.729,-6.926 z m 0.84375,32.531 c 2.0401,3.8101 4.7716,7.2584 8.0938,10.031 -5.0035,1.0292 -9.9355,2.423 -14.719,4.2188 2.4752,-4.6175 4.8219,-9.324 6.625,-14.25 z" opacity="0.1" inkscape:connector-curvature="0"/>
   <path d="m 44.188,14.844 c -0.58698,0 -0.99475,0.01781 -1.4375,0.125 -0.44275,0.10719 -0.84818,0.36172 -1.125,0.59375 -0.81416,0.68243 -1.1647,1.6759 -1.4375,2.9062 -0.27276,1.2303 -0.40897,2.7317 -0.40625,4.5 0.0056,3.6418 0.56183,7.1314 1.6875,11.562 l 0.59375,2.375 -0.563,1.782 c -2.0625,6.5909 -5.0586,13.465 -9.5,21.75 -1.7605,3.2842 -3.3974,6.1093 -4.9375,8.5625 0.07059,-0.09391 0.13156,-0.1678 0.1875,-0.4375 0.03617,-0.1744 0.05291,-0.44503 -0.09375,-0.75 -0.14666,-0.30497 -0.43767,-0.5161 -0.65625,-0.59375 -0.43716,-0.1553 -0.60741,-0.0636 -0.75,-0.03125 -0.28518,0.0647 -0.45846,0.13858 -0.6875,0.25 -0.91616,0.44567 -2.3481,1.3664 -3.9375,2.5625 -3.2497,2.4456 -5.896,5.4702 -6.8438,8.1562 -0.30699,0.87008 -0.55071,1.5652 -0.375,2.375 0.17571,0.80981 0.84558,1.4174 1.5,1.75 0.9942,0.50524 1.8715,0.80682 2.7812,0.84375 0.90976,0.03693 1.749,-0.22144 2.625,-0.65625 3.5751,-1.7745 7.5548,-6.7143 12.125,-14.281 0.72744,-1.2044 1.2139,-1.9391 1.5,-2.3125 0.1095,-0.14293 0.15774,-0.18893 0.1875,-0.21875 0.07576,-0.0159 0.15598,-0.03924 0.25,-0.0625 0.18804,-0.04652 0.43516,-0.10961 0.71875,-0.1875 0.56718,-0.15578 1.3097,-0.35746 2.0938,-0.59375 6.1229,-1.8452 13.485,-3.3745 20.719,-4.25 l 2.0938,-0.25 0.96875,0.46875 c 3.3105,1.6607 7.7672,3.2362 11.188,3.9062 1.1868,0.2325 2.5058,0.34628 3.6875,0.375 1.1817,0.02872 2.1305,0.04294 2.9688,-0.25 0.45458,-0.15886 0.92112,-0.41077 1.375,-0.6875 0.22694,-0.13836 0.45695,-0.30352 0.65625,-0.46875 0.09965,-0.08261 0.20104,-0.1444 0.3125,-0.28125 0.11146,-0.13685 0.31247,-0.32489 0.3125,-0.84375 a 1.1433,1.1433 0 0 0 -0.218,-0.656 c 0.01614,-0.02018 0.08099,-0.01228 0.09375,-0.03125 0.15405,-0.22906 0.21611,-0.41108 0.25,-0.5625 0.068,-0.303 0.044,-0.571 0.031,-0.843 -0.026,-0.546 -0.08,-1.085 -0.437,-1.688 -0.968,-1.632 -2.992,-2.374 -5.688,-2.875 -2.344,-0.436 -7.148,-0.538 -11.062,-0.281 l -3.0938,0.1875 -0.90625,-0.5 c -0.014,-0.009 -0.018,-0.024 -0.032,-0.032 -6.841,-4.153 -10.307,-8.635 -13.625,-17.625 -0.2499,-0.67717 -0.34942,-1.0234 -0.375,-1.1875 -0.02558,-0.1641 -0.01517,-0.22392 0.0625,-0.625 0.32811,-1.6943 0.59093,-4.9868 0.75,-8 0.07953,-1.5066 0.12299,-2.9189 0.125,-4 0.001,-0.54053 -0.0036,-1.0088 -0.03125,-1.375 -0.01384,-0.18311 -0.02634,-0.32465 -0.0625,-0.5 -0.01808,-0.08767 -0.0396,-0.18033 -0.09375,-0.3125 -0.04493,-0.10968 -0.16989,-0.30767 -0.40625,-0.5 0.19367,-0.10067 0.43183,-0.14275 0.53125,-0.28125 0.19884,-0.277 0.21396,-0.47432 0.25,-0.65625 0.07207,-0.36385 0.10493,-0.72057 0.125,-1.25 0.04713,-1.2432 -0.06203,-2.3176 -0.84375,-3.125 -0.78172,-0.80741 -1.8773,-0.96875 -3.125,-0.96875 z m 0.625,3.8125 c 0.39523,0.34061 0.67308,0.80976 0.78125,1.7188 a 1.1433,1.1433 0 0 0 0.3125,0.6875 1.1433,1.1433 0 0 0 -0.46875,0.6875 c -0.32626,1.4615 -0.61278,2.7673 -0.90625,4.1875 -0.13658,-1.3005 -0.20733,-2.7451 -0.15625,-4.0625 0.05761,-1.4857 0.28969,-2.8235 0.4375,-3.2188 z m 0.0625,25.312 c 0.18033,0.3616 0.3362,0.71291 0.53125,1.0938 2.6644,5.2024 5.7272,8.8792 9.75,11.875 -6.537,1.1818 -13.813,3.3675 -18.812,5.4688 4.0963,-7.3576 6.8925,-13.39 8.5312,-18.438 z m 25.343,15.657 c 1.4649,-0.08527 2.9893,-0.11555 4.375,0 1.455,0.12132 2.7769,0.37574 3.6875,0.75 0.91056,0.37426 1.3225,0.79266 1.4375,1.1875 a 1.1433,1.1433 0 0 0 0,0.0625 c -0.83727,0.20935 -1.8521,0.21355 -3.0625,-0.03125 -1.4789,-0.29911 -3.0906,-0.85509 -4.5312,-1.2812 -0.0066,-0.0021 -0.02455,0.0021 -0.03125,0 -0.45572,-0.14418 -1.2103,-0.44434 -1.875,-0.6875 z m -43.469,9.813 c -1.2804,2.0113 -2.5102,3.8338 -3.625,5.25 -1.8956,2.4081 -3.4425,3.6333 -4.6875,4.3125 0.02811,-0.05733 3.83e-4,-0.06599 0.03125,-0.125 0.40669,-0.77746 1.0241,-1.7203 1.7812,-2.7188 1.5144,-1.9969 3.6078,-4.2267 5.7812,-6.0625 0.30454,-0.25722 0.53304,-0.46402 0.71875,-0.65625 z" opacity="0.15" inkscape:connector-curvature="0"/>
   <path d="m 44.196,16 c -1.1379,0 -1.3624,0.0532 -1.8201,0.4369 -0.91132,0.76387 -1.4307,3.1143 -1.4254,6.5316 0.0054,3.5333 0.48922,6.8961 1.6008,11.272 l 0.70174,2.7306 -0.65788,2.0534 c -2.0895,6.6773 -5.119,13.626 -9.5831,21.954 -6.7655,12.621 -11.994,19.246 -15.636,19.835 -0.58592,0.09472 -0.61402,0.0703 -0.61402,-0.34952 -10e-7,-2.13 4.0388,-7.4562 8.5305,-11.25 2.2944,-1.938 -0.37563,-0.64277 -3.4648,1.682 -3.1131,2.3428 -5.6919,5.3806 -6.4911,7.6457 -0.56829,1.6107 -0.44808,2.1801 0.59209,2.7088 1.8585,0.94448 2.8043,0.98163 4.3859,0.1966 3.0744,-1.526 7.1402,-6.3555 11.666,-13.85 1.4676,-2.43 1.9282,-3.0364 2.3026,-3.0364 0.13193,10e-7 1.5189,-0.38448 3.0701,-0.85194 6.1997,-1.8684 13.644,-3.3764 20.942,-4.2597 l 2.4342,-0.30582 1.228,0.61165 c 3.1982,1.6044 7.6544,3.1611 10.921,3.801 2.2092,0.43279 5.0859,0.51255 6.0525,0.17476 0.60902,-0.21284 1.8777,-0.9649 1.8778,-1.2121 -2.4791,1.1627 -6.2157,-0.27399 -9.0267,-1.1035 -1.8534,-0.58389 -5.9321,-2.1785 -6.1621,-2.4029 4.9384,-0.95585 14.202,-1.1678 15.197,2.25 0.29163,-10e-7 0.21669,-1.372 -0.10965,-1.9223 -0.6112,-1.0307 -2.3823,-1.8628 -4.9341,-2.3374 -2.066,-0.38426 -6.9615,-0.49183 -10.789,-0.24029 l -3.399,0.21845 -1.228,-0.74272 c -7.042,-4.266 -10.771,-9.078 -14.144,-18.219 -0.50622,-1.3717 -0.54028,-1.5599 -0.3728,-2.4248 0.58966,-3.045 1.1369,-13.333 0.72367,-13.587 -0.75258,3.3712 -1.3612,6.7431 -2.1271,9.7864 -0.15822,0 -0.6218,-2.3722 -0.98682,-5.1335 -0.39714,-3.0043 -0.25292,-7.0687 0.28508,-8.4539 0.21559,-0.55508 0.49678,-1.0609 0.63595,-1.1141 1.379,0.39552 2.1465,1.4877 2.3464,3.1675 0.19567,0 0.24591,-0.321 0.28508,-1.3544 0.08616,-2.2728 -0.52292,-2.9053 -2.807,-2.9053 z m 0.54823,25.078 c 0.07815,-0.02488 0.1226,0.14383 0.21929,0.41505 0.11903,0.33388 0.78528,1.7009 1.4693,3.0364 2.943,5.7464 6.2021,9.5151 10.899,12.604 0.23795,0.15651 0.38498,0.33491 0.32894,0.3932 -0.05604,0.0583 -1.0121,0.26409 -2.1052,0.45874 -7.4543,1.3273 -16.735,4.1197 -21.25,6.3787 -0.07182,0.03594 -0.13158,-0.03462 -0.13158,-0.15291 10e-7,-0.11829 0.44378,-1.0429 1.0087,-2.0534 4.2554,-7.6115 7.1148,-13.763 8.7279,-18.83 0.51172,-1.6073 0.70306,-2.2085 0.83331,-2.25 z" opacity="0.3" inkscape:connector-curvature="0"/>
   <path d="m 44.196,15 c -1.1379,0 -1.3624,0.0532 -1.8201,0.4369 -0.91132,0.76387 -1.4307,3.1143 -1.4254,6.5316 0.0054,3.5333 0.48922,6.8961 1.6008,11.272 l 0.70174,2.7306 -0.65788,2.0534 c -2.0895,6.6773 -5.119,13.626 -9.5831,21.954 -6.7655,12.621 -11.994,19.246 -15.636,19.835 -0.58592,0.09472 -0.61402,0.0703 -0.61402,-0.34952 -10e-7,-2.13 4.0388,-7.4562 8.5305,-11.25 2.2944,-1.938 -0.37563,-0.64277 -3.4648,1.682 -3.1131,2.3428 -5.6919,5.3806 -6.4911,7.6457 -0.56829,1.6107 -0.44808,2.1801 0.59209,2.7088 1.8585,0.94448 2.8043,0.98163 4.3859,0.1966 3.0744,-1.526 7.1402,-6.3555 11.666,-13.85 1.4676,-2.43 1.9282,-3.0364 2.3026,-3.0364 0.13193,1e-6 1.5189,-0.38448 3.0701,-0.85194 6.1997,-1.8684 13.644,-3.3764 20.942,-4.2597 l 2.4342,-0.30582 1.228,0.61165 c 3.1982,1.6044 7.6544,3.1611 10.921,3.801 2.2092,0.43279 5.0859,0.51255 6.0525,0.17476 0.60902,-0.21284 1.8777,-0.9649 1.8778,-1.2121 -2.4791,1.1627 -6.2157,-0.27399 -9.0267,-1.1035 -1.8534,-0.58389 -5.9321,-2.1785 -6.1621,-2.4029 4.9384,-0.95585 14.202,-1.1678 15.197,2.25 0.29163,-10e-7 0.21669,-1.372 -0.10965,-1.9223 -0.6112,-1.0307 -2.3823,-1.8628 -4.9341,-2.3374 -2.066,-0.38426 -6.9615,-0.49183 -10.789,-0.24029 l -3.399,0.21845 -1.228,-0.74272 c -7.042,-4.266 -10.771,-9.078 -14.144,-18.219 -0.50622,-1.3717 -0.54028,-1.5599 -0.3728,-2.4248 0.58966,-3.045 1.1369,-13.333 0.72367,-13.587 -0.75258,3.3712 -1.3612,6.7431 -2.1271,9.7864 -0.15822,0 -0.6218,-2.3722 -0.98682,-5.1335 -0.39714,-3.0043 -0.25292,-7.0687 0.28508,-8.4539 0.21559,-0.55508 0.49678,-1.0609 0.63595,-1.1141 1.379,0.39552 2.1465,1.4877 2.3464,3.1675 0.19567,0 0.24591,-0.321 0.28508,-1.3544 0.08616,-2.2728 -0.52292,-2.9053 -2.807,-2.9053 z m 0.54823,25.078 c 0.07815,-0.02488 0.1226,0.14383 0.21929,0.41505 0.11903,0.33388 0.78528,1.7009 1.4693,3.0364 2.943,5.7464 6.2021,9.5151 10.899,12.604 0.23795,0.15651 0.38498,0.33491 0.32894,0.3932 -0.05604,0.0583 -1.0121,0.26409 -2.1052,0.45874 -7.4543,1.3273 -16.735,4.1197 -21.25,6.3787 -0.07182,0.03594 -0.13158,-0.03462 -0.13158,-0.15291 10e-7,-0.11829 0.44378,-1.0429 1.0087,-2.0534 4.2554,-7.6115 7.1148,-13.763 8.7279,-18.83 0.51172,-1.6073 0.70306,-2.2085 0.83331,-2.25 z" fill="white" inkscape:connector-curvature="0"/>
  </g>
 </g>
</svg>
