<svg height="96" width="96" xmlns="http://www.w3.org/2000/svg" xmlns:sodipodi="http://sodipodi.sourceforge.net/DTD/sodipodi-0.dtd" xmlns:inkscape="http://www.inkscape.org/namespaces/inkscape">
 <defs>
  <linearGradient x1="-73.49" x2="-50.24" y1="72.7" y2="159.48" gradientUnits="userSpaceOnUse" id="linearGradient3051" inkscape:collect="always" gradientTransform="matrix(0.4926 -0.13199 -0.13199 -0.4926 94.11 98.23)">
   <stop stop-color="#e6e6e6"/>
   <stop stop-color="#f5f5f5" offset="1"/>
  </linearGradient>
 </defs>
 <rect x="8" rx="10.769" y="8" fill="#CF4551" fill-opacity="1" stroke="none" height="80" width="80"/>
 <path d="m 70.877057,57.643633 c -0.145858,-0.197363 -0.376891,-0.474802 -0.636987,-0.741528 -2.706,-2.776889 -4.727108,-6.05566 -5.816006,-9.686957 -0.04998,-0.168808 -0.09996,-0.337615 -0.144842,-0.506931 -0.04692,-0.17034 -0.08772,-0.344245 -0.12954,-0.517134 -0.871568,-3.687275 -0.764994,-7.539234 0.194306,-11.29548 0,0 0.146366,-0.620152 0.18411,-0.87565 0.806302,-4.746018 -2.115487,-9.411234 -6.85584,-10.682392 -4.833233,-1.294899 -9.786917,1.415267 -11.367118,6.089813 -0.06528,0.174414 -0.198388,0.615054 -0.19992,0.621676 -1.038835,3.682193 -2.843696,7.025189 -5.393675,9.761927 -2.896758,3.040617 -6.579451,5.202418 -10.708215,6.308642 -5.029571,1.347378 -8.017625,6.526389 -6.669665,11.557875 1.34996,5.030571 6.520808,8.018625 11.55371,6.669165 3.755581,-0.958783 7.607623,-1.067406 11.296313,-0.196346 0.171865,0.04282 0.344754,0.08517 0.51611,0.13158 0.171865,0.0459 0.342205,0.09588 0.512545,0.144326 3.630131,1.089897 6.912484,3.109422 9.685291,5.817005 0.340681,0.341189 0.634946,0.581393 0.909803,0.775698 3.727508,2.840697 9.031386,2.622868 12.430026,-0.775698 3.44962,-3.447537 3.64954,-8.894774 0.639536,-12.599125 z m -22.855021,1.704901 c -4.92403,-1.319389 -7.847276,-6.382612 -6.527888,-11.306309 1.320388,-4.924529 6.382613,-7.847776 11.306309,-6.528471 4.926029,1.320389 7.848276,6.382113 6.528471,11.306309 -1.319888,4.92453 -6.38103,7.848276 -11.307142,6.528471 z" fill="url(#linearGradient3051)" inkscape:connector-curvature="0"/>
</svg>
