<svg height="96" width="96" xmlns="http://www.w3.org/2000/svg" xmlns:sodipodi="http://sodipodi.sourceforge.net/DTD/sodipodi-0.dtd" xmlns:inkscape="http://www.inkscape.org/namespaces/inkscape">
 <rect x="8" rx="10.769" y="8" fill="#d45500" fill-opacity="1" stroke="none" height="80" width="80"/>
 <path d="M 47.6875 24.5 C 33.678276 24.5 22.3125 36.013857 22.3125 50.1875 C 22.3125 64.361538 33.678276 75.84375 47.6875 75.84375 C 61.696724 75.84375 73.0625 64.361538 73.0625 50.1875 C 73.0625 36.013857 61.696724 24.5 47.6875 24.5 z M 47.6875 28.1875 C 59.695296 28.1875 69.4375 38.03856 69.4375 50.1875 C 69.4375 62.336778 59.695296 72.1875 47.6875 72.1875 C 35.679704 72.1875 25.9375 62.336778 25.9375 50.1875 C 25.9375 38.03856 35.679704 28.1875 47.6875 28.1875 z " fill="#e6e6e6"/>
 <path d="M 24.53125 15.71875 C 22.146342 15.772179 19.63825 16.707331 17.125 19.25 C 8.1893 28.2905 19.15625 37.3545 19.15625 40.5625 C 22.32695 30.9387 28.64445 24.5205 38.15625 21.3125 C 35.877309 21.3125 30.626015 15.582209 24.53125 15.71875 z M 24.90625 18.46875 C 28.840271 18.279221 31.8125 21.3125 31.8125 21.3125 C 26.7591 22.9666 21.19425 28.8545 19.15625 34.125 C 19.15625 34.125 12.81475 27.7287 19.15625 21.3125 C 21.137969 19.307562 23.118058 18.5549 24.90625 18.46875 z " fill="#e6e6e6" fill-rule="evenodd"/>
 <path d="m 20.585,23.118 c 4.0355,-4.0828 8.071,0 8.071,0 -3.2158,1.0526 -6.7738,4.8119 -8.071,8.1656 0,0 -4.0355,-4.0828 0,-8.1656 z" fill="#e6e6e6" fill-rule="evenodd" inkscape:connector-curvature="0"/>
 <path d="M 70.84375 15.6875 C 64.748985 15.550959 59.497691 21.28125 57.21875 21.28125 C 66.73055 24.48925 73.04805 30.90745 76.21875 40.53125 C 76.21875 37.32325 87.1857 28.2905 78.25 19.25 C 75.73675 16.707331 73.228658 15.740929 70.84375 15.6875 z M 69.40625 18.46875 C 71.449897 18.280787 73.840688 18.906575 76.21875 21.3125 C 82.56025 27.7287 76.21875 34.125 76.21875 34.125 C 74.18075 28.8545 68.58465 22.9666 63.53125 21.3125 C 63.53125 21.3125 66.000171 18.782021 69.40625 18.46875 z " fill="#e6e6e6" fill-rule="evenodd"/>
 <path d="m 74.776,23.118 c -4.0355,-4.0828 -8.0709,0 -8.0709,0 3.2158,1.0526 6.7738,4.8119 8.0709,8.1656 0,0 4.0355,-4.0828 0,-8.1656 z" fill="#e6e6e6" fill-rule="evenodd" inkscape:connector-curvature="0"/>
 <path d="m 34.998,39.573 11.024,17.346 3.429,-2.2306 4.921,-11.322 -3.7891,-1.6725 -3.8189,8.7668 -8.3366,-13.118 -3.429,2.2306 z" fill="#e6e6e6" inkscape:connector-curvature="0"/>
 <path d="m 33.016,69.422 5.1525,3.2079 -3.1707,6.4158 -6.3415,-3e-6 4.3597,-9.6238 z" fill="#e6e6e6" inkscape:connector-curvature="0"/>
 <path d="m 62.345,69.422 -5.1525,3.2079 3.1707,6.4158 6.3415,-3e-6 -4.3597,-9.6238 z" fill="#e6e6e6" inkscape:connector-curvature="0"/>
</svg>
