<?xml version="1.0" encoding="UTF-8" standalone="no"?>
<!-- Created with Inkscape (http://www.inkscape.org/) -->

<svg
   xmlns:dc="http://purl.org/dc/elements/1.1/"
   xmlns:cc="http://creativecommons.org/ns#"
   xmlns:rdf="http://www.w3.org/1999/02/22-rdf-syntax-ns#"
   xmlns:svg="http://www.w3.org/2000/svg"
   xmlns="http://www.w3.org/2000/svg"
   xmlns:sodipodi="http://sodipodi.sourceforge.net/DTD/sodipodi-0.dtd"
   xmlns:inkscape="http://www.inkscape.org/namespaces/inkscape"
   id="svg11037"
   height="96"
   width="96"
   version="1.1"
   inkscape:version="0.48.5 r10040"
   sodipodi:docname="alchemy.svg">
  <sodipodi:namedview
     pagecolor="#ffffff"
     bordercolor="#666666"
     borderopacity="1"
     objecttolerance="10"
     gridtolerance="10"
     guidetolerance="10"
     inkscape:pageopacity="0"
     inkscape:pageshadow="2"
     inkscape:window-width="640"
     inkscape:window-height="480"
     id="namedview1475" />
  <defs
     id="defs11039">
    <clipPath
       id="clipPath3009"
       clipPathUnits="userSpaceOnUse">
      <path
         id="path3011"
         style="opacity:.15;fill:#fff"
         d="m-2 956.36h-96v33.562l96 25.687v-59.25z" />
    </clipPath>
    <linearGradient
       id="linearGradient15201"
       y2="90.488"
       gradientUnits="userSpaceOnUse"
       y1="22.5"
       gradientTransform="matrix(1.1429 0 0 1.1429 -6.8571 949.51)"
       x2="89.75"
       x1="17.75">
      <stop
         id="stop3900"
         style="stop-color:#2d2"
         offset="0" />
      <stop
         id="stop3902"
         style="stop-color:#389738"
         offset="1" />
    </linearGradient>
    <clipPath
       id="clipPath3018"
       clipPathUnits="userSpaceOnUse">
      <rect
         id="rect3020"
         style="opacity:.6"
         rx="25"
         ry="25"
         height="92"
         width="92"
         y="958.36"
         x="2" />
    </clipPath>
    <radialGradient
       id="radialGradient15299"
       gradientUnits="userSpaceOnUse"
       cy="90.172"
       cx="48"
       gradientTransform="matrix(1.1573 0 0 .99591 -7.551 .19713)"
       r="42">
      <stop
         id="stop3739-77"
         style="stop-color:#fff"
         offset="0" />
      <stop
         id="stop3741-64"
         style="stop-color:#fff;stop-opacity:0"
         offset="1" />
    </radialGradient>
  </defs>
  <metadata
     id="metadata11042">
    <rdf:RDF>
      <cc:Work
         rdf:about="">
        <dc:format>image/svg+xml</dc:format>
        <dc:type
           rdf:resource="http://purl.org/dc/dcmitype/StillImage" />
        <dc:title />
      </cc:Work>
    </rdf:RDF>
  </metadata>
  <g
     id="layer1"
     transform="translate(0 -956.36)">
    <rect
       id="rect15216"
       style="fill:url(#linearGradient15201)"
       clip-path="url(#clipPath3018)"
       rx="6.8571"
       ry="6.8571"
       height="96"
       width="96"
       y="956.36"
       x="0" />
    <g
       id="g15203"
       transform="matrix(.89278 0 0 .89278 5.1433 961.51)">
      <path
         id="path15220"
         d="m12 90c-3.324 0-6-2.676-6-6v-2-68-2c0-0.33472 0.0413-0.6507 0.0937-0.96875 0.0487-0.2956 0.097-0.59692 0.1875-0.875 0.01-0.03038 0.0209-0.0636 0.0312-0.09375 0.0989-0.2873 0.2349-0.547 0.375-0.812 0.1446-0.2735 0.3156-0.5356 0.5-0.7812 0.1844-0.2457 0.3738-0.4735 0.5938-0.6876 0.4399-0.428 0.9429-0.8145 1.5-1.0937 0.2785-0.1396 0.5734-0.2469 0.8748-0.3437-0.256 0.1002-0.4866 0.2362-0.7186 0.375-0.007 0.0044-0.0239-0.0045-0.0312 0-0.0319 0.0193-0.0623 0.04251-0.0937 0.0625-0.12039 0.0767-0.23102 0.16351-0.34375 0.25-0.10617 0.0808-0.21328 0.16111-0.3125 0.25-0.1779 0.1614-0.3474 0.3453-0.5 0.5312-0.1075 0.1303-0.2183 0.2653-0.3124 0.4063-0.0252 0.0383-0.0384 0.0858-0.0626 0.125-0.0648 0.103-0.1302 0.2045-0.1874 0.3124-0.1011 0.1948-0.2057 0.4158-0.2813 0.625-0.008 0.0219-0.0236 0.0406-0.0312 0.0626-0.0318 0.0919-0.0358 0.1868-0.0625 0.2812-0.0303 0.1066-0.0704 0.203-0.0937 0.3125-0.0729 0.3415-0.125 0.6985-0.125 1.0625v2 68 2c0 2.7818 2.2182 5 5 5h2 68 2c2.7818 0 5-2.2182 5-5v-2-68-2c0-0.3643-0.0521-0.72099-0.125-1.0625-0.044-0.2069-0.088-0.3977-0.156-0.5937-0.008-0.022-0.023-0.0407-0.031-0.0626-0.063-0.1737-0.139-0.3674-0.219-0.5312-0.042-0.0828-0.079-0.17-0.125-0.25-0.055-0.0972-0.127-0.1884-0.188-0.2812-0.094-0.141-0.205-0.276-0.312-0.4063-0.143-0.1745-0.303-0.347-0.469-0.5-0.011-0.0102-0.02-0.0211-0.031-0.0313-0.138-0.1255-0.285-0.2344-0.438-0.3437-0.102-0.0731-0.204-0.1534-0.312-0.2187-0.007-0.0045-0.0238 0.0044-0.0312 0-0.23204-0.13873-0.46255-0.27478-0.71875-0.375 0.30153 0.0968 0.59645 0.20414 0.875 0.34375 0.55709 0.27922 1.06 0.66569 1.5 1.0938 0.21997 0.21403 0.40937 0.44186 0.59375 0.6875s0.35541 0.50774 0.5 0.78125c0.14012 0.26505 0.27613 0.52473 0.375 0.8125 0.0104 0.03078 0.0213 0.06274 0.0312 0.09375 0.0905 0.27808 0.1388 0.5794 0.1875 0.875 0.0524 0.31805 0.0937 0.63403 0.0937 0.96875v2 68 2c0 3.324-2.676 6-6 6h-72z"
         style="opacity:.2;fill:url(#radialGradient15299)" />
      <path
         id="path15361"
         style="fill:#fff"
         d="m32.32 45.281v0.75 3.625s-0.10957 3.3283-1.5938 4.8125c-1.078 1.079-13.012 13.103-24.718 24.907v4.625c0 3.324 2.676 6 6 6h72c3.324 0 6-2.676 6-6v-4.2812l-25.032-25.157-0.062-0.062-0.031-0.031s-0.0152 0.01153-0.125-0.125c-0.10984-0.13653-0.26305-0.36286-0.4375-0.75-0.34895-0.77428-0.71875-2.1511-0.71875-4.4062v-3.1562-0.75h-0.75-29.781-0.75zm6.5312 3.9688h18.25v4.6562c0 1.3212 0.35735 2.3149 0.71875 2.9688 0.3419 0.61852 0.70779 0.90007 0.75 0.9375l-0.0312 0.03125 0.0625 0.03125 14.375 14.406h-50c0.32029-0.32552 0.58181-0.60382 1-1.0312 1.3767-1.4071 3.2108-3.3143 5.0938-5.25 3.766-3.8714 7.718-7.9367 8.3438-8.5625 1.499-1.4989 1.4114-3.3079 1.4062-3.4062h0.0312v-4.7812z" />
      <path
         id="path15228"
         style="color:#000000;fill:#fff"
         d="m103.25 51.375c0 3.4518-2.7982 6.25-6.25 6.25s-6.25-2.7982-6.25-6.25 2.7982-6.25 6.25-6.25 6.25 2.7982 6.25 6.25z"
         transform="matrix(.82694 0 0 .82694 -31.036 -4.7968)" />
      <path
         id="path15230"
         style="color:#000000;fill:#fff"
         d="m103.25 51.375c0 3.4518-2.7982 6.25-6.25 6.25s-6.25-2.7982-6.25-6.25 2.7982-6.25 6.25-6.25 6.25 2.7982 6.25 6.25z"
         transform="matrix(.59659 0 0 .59659 -.75964 -6.4335)" />
      <path
         id="path15232"
         style="color:#000000;fill:#fff"
         d="m103.25 51.375c0 3.4518-2.7982 6.25-6.25 6.25s-6.25-2.7982-6.25-6.25 2.7982-6.25 6.25-6.25 6.25 2.7982 6.25 6.25z"
         transform="matrix(.50015 0 0 .50015 -10.125 -12.575)" />
    </g>
    <rect
       id="rect3003"
       style="opacity:.15;fill:#fff"
       transform="translate(98)"
       clip-path="url(#clipPath3009)"
       rx="25"
       ry="25"
       height="92"
       width="92"
       y="958.36"
       x="-96" />
  </g>
</svg>
