<?xml version="1.0" encoding="UTF-8" standalone="no"?>
<!-- Created with Inkscape (http://www.inkscape.org/) -->

<svg
   xmlns:dc="http://purl.org/dc/elements/1.1/"
   xmlns:cc="http://creativecommons.org/ns#"
   xmlns:rdf="http://www.w3.org/1999/02/22-rdf-syntax-ns#"
   xmlns:svg="http://www.w3.org/2000/svg"
   xmlns="http://www.w3.org/2000/svg"
   xmlns:xlink="http://www.w3.org/1999/xlink"
   xmlns:sodipodi="http://sodipodi.sourceforge.net/DTD/sodipodi-0.dtd"
   xmlns:inkscape="http://www.inkscape.org/namespaces/inkscape"
   id="svg11037"
   height="96"
   width="96"
   version="1.1"
   inkscape:version="0.48.5 r10040"
   sodipodi:docname="alien-arena.svg">
  <sodipodi:namedview
     pagecolor="#ffffff"
     bordercolor="#666666"
     borderopacity="1"
     objecttolerance="10"
     gridtolerance="10"
     guidetolerance="10"
     inkscape:pageopacity="0"
     inkscape:pageshadow="2"
     inkscape:window-width="640"
     inkscape:window-height="480"
     id="namedview1525" />
  <defs
     id="defs11039">
    <clipPath
       id="clipPath3009"
       clipPathUnits="userSpaceOnUse">
      <path
         id="path3011"
         style="opacity:.15;fill:#fff"
         d="m-2 956.36h-96v33.562l96 25.687v-59.25z" />
    </clipPath>
    <radialGradient
       id="radialGradient3115"
       gradientUnits="userSpaceOnUse"
       cx="48"
       cy="81.301"
       r="42"
       gradientTransform="matrix(1.381 0 0 1.381 -18.288 928.07)">
      <stop
         id="stop4349"
         style="stop-color:#43ff2a"
         offset="0" />
      <stop
         id="stop4351"
         style="stop-color:#062f04"
         offset="1" />
    </radialGradient>
    <clipPath
       id="clipPath3018"
       clipPathUnits="userSpaceOnUse">
      <rect
         id="rect3020"
         style="opacity:.6"
         rx="25"
         ry="25"
         height="92"
         width="92"
         y="958.36"
         x="2" />
    </clipPath>
    <linearGradient
       id="linearGradient4315"
       y2="340.3"
       gradientUnits="userSpaceOnUse"
       x2="-87.185"
       gradientTransform="translate(114.2 100.76)"
       y1="350.54"
       x1="-144.3">
      <stop
         id="stop4040"
         style="stop-color:#1bc513"
         offset="0" />
      <stop
         id="stop4042"
         offset="1" />
    </linearGradient>
    <linearGradient
       id="linearGradient4317"
       y2="340.66"
       gradientUnits="userSpaceOnUse"
       x2="-91.038"
       gradientTransform="translate(114.2 100.76)"
       y1="340.66"
       x1="-117.16">
      <stop
         id="stop4048"
         style="stop-color:#2eff25"
         offset="0" />
      <stop
         id="stop4050"
         offset="1" />
    </linearGradient>
    <radialGradient
       id="radialGradient4389"
       gradientUnits="userSpaceOnUse"
       cy="337.42"
       cx="-115.96"
       gradientTransform="matrix(.39071 0 0 .47692 36.127 279.19)"
       r="39.234">
      <stop
         id="stop4094"
         style="stop-color:#97f593"
         offset="0" />
      <stop
         id="stop4096"
         style="stop-color:#33a41d;stop-opacity:.0083682"
         offset="1" />
    </radialGradient>
    <linearGradient
       id="linearGradient4321"
       y2="340.21"
       xlink:href="#linearGradient4060"
       gradientUnits="userSpaceOnUse"
       x2="-72.077"
       y1="358.63"
       x1="-95.714" />
    <linearGradient
       id="linearGradient4060">
      <stop
         id="stop4062"
         style="stop-color:#eeeeec"
         offset="0" />
      <stop
         id="stop4064"
         style="stop-color:#eeeeec;stop-opacity:.33891"
         offset="1" />
    </linearGradient>
    <linearGradient
       id="linearGradient4323"
       y2="340.21"
       xlink:href="#linearGradient4060"
       gradientUnits="userSpaceOnUse"
       x2="-72.077"
       gradientTransform="matrix(-1 0 0 1 -195.75 0)"
       y1="358.63"
       x1="-95.714" />
  </defs>
  <metadata
     id="metadata11042">
    <rdf:RDF>
      <cc:Work
         rdf:about="">
        <dc:format>image/svg+xml</dc:format>
        <dc:type
           rdf:resource="http://purl.org/dc/dcmitype/StillImage" />
        <dc:title />
      </cc:Work>
    </rdf:RDF>
  </metadata>
  <g
     id="layer1"
     transform="translate(0 -956.36)">
    <rect
       id="rect2419"
       style="fill:url(#radialGradient3115)"
       clip-path="url(#clipPath3018)"
       rx="6.8571"
       ry="6.8571"
       height="96"
       width="96"
       y="956.36"
       x="0" />
    <g
       id="g3117"
       transform="translate(2.2222e-8 956.36)">
      <path
         id="path4397"
         d="m48 7.5312c-21.671 0-39.25 14.754-39.25 32.938-0.0000113 0.01032 0 0.02093 0 0.03125 0.0007618 0.68244 0.0441 1.3593 0.09375 2.0312 0.0007509 0.01032-0.0007623 0.02093 0 0.03125 0.050389 0.67175 0.12094 1.3399 0.21875 2 0.0015 0.0102-0.00151 0.02106 0 0.03125 0.19858 1.3301 0.49268 2.6308 0.875 3.9062 0.00286 0.0096-0.00287 0.02167 0 0.03125 0.19044 0.63294 0.42272 1.2573 0.65625 1.875 0.0035 0.0092-0.0035 0.02206 0 0.03125 0.47186 1.2444 1.0496 2.4498 1.6875 3.625 0.0044 0.0082-0.0044 0.02309 0 0.03125 0.31747 0.58356 0.64374 1.1541 1 1.7188 0.0049 0.0077-0.0049 0.02354 0 0.03125 0.35706 0.56492 0.7618 1.1115 1.1562 1.6562 0.005 0.007-0.005 0.0243 0 0.03125 0.3951 0.54483 0.81894 1.0703 1.25 1.5938 0.0053 0.0064-0.0053 0.02485 0 0.03125 2.1788 2.6422 4.8292 4.9939 7.8125 7 0.59801 0.40212 1.1867 0.81463 1.8125 1.1875 0.76678-0.0842 1.5809-0.125 2.375-0.125 0.35808 0 0.70973 0.0138 1.0625 0.03125 0.1904 0.01431 0.3738 0.01668 0.5625 0.03125 0.61936 6.9726 5.2595 12.01 11.188 14.406-3.1484-2.7949-4.1599-7.0044-4.375-12.656 0.41895 0.19024 0.85197 0.37692 1.25 0.59375 0.11421 0.06155 0.23132 0.12395 0.34375 0.1875 0.13862 0.07938 0.27045 0.16746 0.40625 0.25 1.3723 0.82285 2.5828 1.7883 3.625 2.9062 0.0051 0.0055-0.0051 0.02576 0 0.03125 0.50726 0.0679 1.0471 0.10543 1.5625 0.15625 1.0308 0.10164 2.0714 0.18502 3.125 0.21875 0.5268 0.01687 1.0324 0.03125 1.5625 0.03125 0.5297 0 1.0698-0.01436 1.5938-0.03125 1.0478-0.03379 2.0999-0.11715 3.125-0.21875 0.512-0.047 1.024-0.084 1.531-0.152 0.0051-0.0055-0.0051-0.02577 0-0.03125 0.13174-0.14131 0.26857-0.26968 0.40625-0.40625 0.2558-0.2548 0.5063-0.51005 0.78125-0.75 1.2844-1.1044 2.8009-2.0377 4.4375-2.7812-0.38438 5.6637-2.0318 9.8956-5.1875 12.688 5.938-2.3908 11.282-7.4546 12-14.438 0.1887-0.01457 0.3721-0.01694 0.5625-0.03125 0.35277-0.01745 0.70442-0.03125 1.0625-0.03125 0.80488 0 1.5982 0.0385 2.375 0.125 0.62543-0.37291 1.2463-0.78532 1.8438-1.1875 8.962-6.032 14.719-15.295 14.719-25.687-0.01-9.08-4.412-17.327-11.5-23.281-0.887-0.746-1.813-1.454-2.781-2.126-0.484-0.335-0.966-0.652-1.469-0.968-1.007-0.633-2.078-1.231-3.156-1.782-0.539-0.275-1.07-0.527-1.625-0.781-2.223-1.014-4.575-1.8579-7.031-2.4998-3.071-0.8022-6.313-1.2951-9.657-1.4374-0.669-0.0285-1.354-0.0626-2.031-0.0626zm9.25 76.75c-2.8319 1.3243-6.0683 2.0938-9.5 2.0938-3.2932 0-6.3768-0.71138-9.125-1.9375l-2.25 2.8125c2.1783 1.3403 4.5702 2.2474 7.0625 2.75h9.125c2.4923-0.50262 4.8842-1.4097 7.0625-2.75l-2.376-2.969z" />
      <g
         id="g4325"
         transform="translate(32.068 -401.39)">
        <path
           id="path4279"
           style="fill:url(#linearGradient4315)"
           d="m15.948 407.94c-21.671 0-39.25 14.754-39.25 32.938 0 11.089 6.5492 20.878 16.562 26.844 0.76678-0.0842 1.5497-0.125 2.3438-0.125 0.55848 0 1.1111 0.0516 1.6562 0.0937 0.61936 6.9726 5.2595 12.01 11.188 14.406-3.1543-2.8002-4.1939-7.0195-4.4062-12.688 2.1979 0.99281 4.1272 2.3285 5.6562 3.9688 2.0291 0.27161 4.1298 0.40625 6.25 0.40625 2.1188 0 4.191-0.13499 6.2188-0.40625 1.5203-1.6308 3.4429-2.9461 5.625-3.9375-0.38438 5.6637-2.0318 9.8956-5.1875 12.688 5.938-2.3908 11.282-7.4546 12-14.438 0.54519-0.0421 1.0978-0.0937 1.6562-0.0937 0.80488 0 1.5982 0.0385 2.375 0.125 10.007-5.9666 16.531-15.759 16.531-26.844 0-18.184-17.547-32.938-39.219-32.938z" />
        <path
           id="path4281"
           style="opacity:.5;fill:url(#linearGradient4317)"
           d="m11.727 470.63h-1.8224c-7.6626-5.3592-18.06-3.6666-18.68-9.2032-0.61936-5.5367 0.27336-7.4264-0.72897-9.7955-1.375-5.6762-8.1094-7.5244-7.6542-11.618 2.4515-20.062 17.016-26.311 39-27.974v58.773z" />
        <path
           id="path4283"
           d="m15.948 407.95c-21.671 0-39.25 14.754-39.25 32.938 0 11.089 6.5492 20.878 16.562 26.844 0.76678-0.0842 1.5497-0.125 2.3438-0.125 5.7293 0 10.816 2.265 14.094 5.7812 2.0291 0.27161 4.1298 0.40625 6.25 0.40625 2.1188 0 4.191-0.13499 6.2188-0.40625 3.2779-3.5162 8.3645-5.7812 14.094-5.7812 0.80488 0 1.5982 0.0385 2.375 0.125 10.007-5.9666 16.531-15.759 16.531-26.844 0-18.184-17.547-32.938-39.219-32.938z"
           style="fill:url(#radialGradient4389)" />
        <path
           id="path4285"
           style="fill:#0e640a"
           d="m25.198 484.66c-2.8319 1.3243-6.0683 2.0938-9.5 2.0938-3.2932 0-6.3768-0.71138-9.125-1.9375l-2.25 2.8125c6.9706 4.289 16.248 4.289 23.219 0l-2.3438-2.9688z" />
        <path
           id="path4287"
           d="m13.583 467.7s0.0805 1.4497 0.64432 1.9491c0.67047 0.75293 0.66538 1.844 0.37049 2.8672-0.11276 0.48324-1.4658 0.32216-1.4658-0.0967-0.4097-2.0147-0.0176-3.0712 0.0644-4.7841z"
           style="fill:#fff" />
        <path
           id="path4289"
           style="fill:#fff"
           d="m18.293 467.7s-0.0805 1.4497-0.64432 1.9491c-0.67047 0.75293-0.66538 1.844-0.37049 2.8672 0.11276 0.48324 1.4658 0.32216 1.4658-0.0967 0.4097-2.0147 0.0176-3.0712-0.0644-4.7841z" />
        <g
           id="g4291"
           transform="translate(113.81 100.76)">
          <path
             id="path4293"
             d="m-96.745 362.71v1.4579c8.0891-0.81619 17.438-3.6257 25.149-16.812 0.18268-5.2037-0.27829-7.6781-4.0093-12.301-0.83166 18.736-12.039 27.002-21.14 27.655z"
             style="opacity:.5;fill:url(#linearGradient4321)" />
          <path
             id="path4295"
             style="opacity:.5;fill:url(#linearGradient4323)"
             d="m-99.01 362.71v1.4579c-8.0891-0.81619-17.438-3.6257-25.149-16.812-0.18268-5.2037 0.27829-7.6781 4.0093-12.301 0.83166 18.736 12.039 27.002 21.14 27.655z" />
        </g>
        <g
           id="g4297"
           transform="translate(114.2)">
          <path
             id="path4299"
             d="m-116.47 457.33-0.18314 4.9175c3.2568 3.2541 5.6377 3.8633 11.494 3.853l0.082-0.83186c-6.5779-2.5011-10.083-6.4336-11.393-7.9386z" />
          <path
             id="path4301"
             style="fill:#fff"
             d="m-116.19 458.28v4.6552c3.1934 2.9616 5.4657 3.4537 11.002 3.2377l0.0483-0.78929c-6.3065-2.1329-9.7588-5.727-11.05-7.1037z" />
          <path
             id="path4303"
             d="m-80.022 457.4 0.18314 4.9175c-3.2568 3.2541-5.6377 3.8633-11.494 3.853l-0.082-0.83186c6.5779-2.5011 10.083-6.4336 11.393-7.9386z" />
          <path
             id="path4305"
             d="m-80.301 458.35v4.6552c-3.1934 2.9616-5.4657 3.4537-11.002 3.2377l-0.0483-0.78929c6.3065-2.1329 9.7588-5.727 11.05-7.1037z"
             style="opacity:0.12;stroke:#fff;stroke-width:4;fill:#fff" />
          <path
             id="path4307"
             d="m-80.301 458.35v4.6552c-3.1934 2.9616-5.4657 3.4537-11.002 3.2377l-0.0483-0.78929c6.3065-2.1329 9.7588-5.727 11.05-7.1037z"
             style="fill:#fff" />
          <path
             id="path4309"
             style="opacity:.2;stroke-linejoin:round;stroke:#fff;stroke-linecap:round;stroke-width:2;fill:#fff"
             d="m-80.301 458.35v4.6552c-3.1934 2.9616-5.4657 3.4537-11.002 3.2377l-0.0483-0.78929c6.3065-2.1329 9.7588-5.727 11.05-7.1037z" />
          <path
             id="path4311"
             style="opacity:0.12;stroke-linejoin:round;stroke:#fff;stroke-linecap:round;stroke-width:4;fill:#fff"
             d="m-116.19 458.28v4.6552c3.1934 2.9616 5.4657 3.4537 11.002 3.2377l0.0483-0.78929c-6.3065-2.1329-9.7588-5.727-11.05-7.1037z" />
          <path
             id="path4313"
             d="m-116.19 458.28v4.6552c3.1934 2.9616 5.4657 3.4537 11.002 3.2377l0.0483-0.78929c-6.3065-2.1329-9.7588-5.727-11.05-7.1037z"
             style="opacity:.2;stroke-linejoin:round;stroke:#fff;stroke-linecap:round;stroke-width:2;fill:#fff" />
        </g>
      </g>
    </g>
    <rect
       id="rect3003"
       style="opacity:.15;fill:#fff"
       transform="translate(98)"
       clip-path="url(#clipPath3009)"
       rx="25"
       ry="25"
       height="92"
       width="92"
       y="958.36"
       x="-96" />
  </g>
</svg>
