<svg height="96" width="96" xmlns="http://www.w3.org/2000/svg" xmlns:sodipodi="http://sodipodi.sourceforge.net/DTD/sodipodi-0.dtd" xmlns:inkscape="http://www.inkscape.org/namespaces/inkscape">
 <rect x="8" rx="10.769" y="8" fill="#165016" fill-opacity="1" stroke="none" height="80" width="80"/>
 <path d="m 48.015077,8.0000019 c -20.911835,0 -37.875018,14.2366651 -37.875018,31.7836541 0,10.700537 6.320255,20.146374 15.982293,25.903377 0.739918,-0.08125 1.495363,-0.120622 2.261645,-0.120622 0.538916,0 1.072225,0.04984 1.598229,0.09047 0.597663,6.72834 5.07477,11.589515 10.795587,13.901579 -3.043801,-2.702105 -4.04703,-6.773114 -4.251893,-12.243039 2.120904,0.958031 3.982667,2.246881 5.458104,3.829719 1.958017,0.262095 3.985127,0.392019 6.031053,0.392019 2.044576,0 4.044136,-0.130261 6.000899,-0.392019 1.467042,-1.573671 3.322291,-2.842894 5.427949,-3.799564 -0.370915,5.465293 -1.960624,9.548461 -5.005775,12.24304 5.729984,-2.307051 10.886776,-7.192977 11.579623,-13.931739 0.526092,-0.04062 1.059391,-0.09047 1.59823,-0.09047 0.776684,0 1.542212,0.03715 2.2918,0.120622 9.656441,-5.757582 15.952138,-15.2067 15.952138,-25.903377 0,-17.546989 -16.932064,-31.7836541 -37.844864,-31.7836541 z M 26.484215,34.898502 c 0.802526,18.079653 11.632938,26.057289 20.415117,26.687414 l 0,1.387142 c -4.982509,-0.502735 -10.462913,-1.796451 -15.710895,-5.970743 1.901973,1.855078 3.123343,3.573733 10.162326,6.423072 l 0,0.844348 c -5.888017,0.25071 -9.034789,-1.046214 -10.674965,-3.196459 l 0,-4.52329 c -2.790352,-2.330106 -5.518212,-5.46846 -8.051457,-9.800463 -0.176281,-5.021407 0.259566,-7.390067 3.859874,-11.851021 z m 43.001414,0 c 3.600308,4.460954 4.036155,6.829614 3.859875,11.851021 C 65.904631,59.473889 56.87624,62.185461 49.070512,62.973058 l 0,-1.387142 c 8.782179,-0.630125 19.612592,-8.607761 20.415117,-26.687414 z m -3.980495,21.711794 0.06031,4.46298 c -2.907547,3.030128 -6.730704,3.395184 -10.735276,3.31708 l -0.271397,-0.844348 c 4.454517,-1.398753 7.769368,-4.076929 10.946363,-6.935712 z m -20.14372,8.986271 0.361863,0.06031 c 0,0 0.08919,1.387722 0.633261,1.869627 0.646982,0.726554 0.616267,1.786929 0.331708,2.774285 -0.10881,0.466311 -1.387143,0.313721 -1.387143,-0.09047 -0.395347,-1.944122 -0.01882,-2.960862 0.06031,-4.613756 z m 5.277172,0 c 0.07913,1.652894 0.455658,2.669634 0.06031,4.613756 0,0.404187 -1.308487,0.556777 -1.417297,0.09047 -0.28456,-0.987356 -0.285119,-2.047731 0.361863,-2.774285 0.544069,-0.481909 0.633261,-1.869631 0.633261,-1.869631 l 0.361863,-0.06031 z m 6.302451,16.434622 c -2.732694,1.277908 -5.855719,2.020403 -9.167202,2.020403 -3.177834,0 -6.153412,-0.68646 -8.805338,-1.869627 l -2.17118,2.713974 c 6.726411,4.138751 15.678569,4.138751 22.405365,0 l -2.261645,-2.86475 z" fill="white" inkscape:connector-curvature="0"/>
</svg>
