<svg height="96" width="96" xmlns="http://www.w3.org/2000/svg" xmlns:xlink="http://www.w3.org/1999/xlink" xmlns:sodipodi="http://sodipodi.sourceforge.net/DTD/sodipodi-0.dtd" xmlns:inkscape="http://www.inkscape.org/namespaces/inkscape">
 <defs>
  <clipPath clipPathUnits="userSpaceOnUse" id="clipPath3009">
   <path d="m -2,956.36218 -96,0 0,33.5624 96,25.68742 0,-59.24982 z" inkscape:connector-curvature="0"/>
  </clipPath>
  <linearGradient x1="50.957" x2="50.929" y1="10.902" y2="99.62" gradientUnits="userSpaceOnUse" id="linearGradient3463" inkscape:collect="always">
   <stop stop-color="#000000" stop-opacity="1"/>
   <stop stop-color="#4e4e4e" stop-opacity="1" offset="1"/>
  </linearGradient>
  <clipPath clipPathUnits="userSpaceOnUse" id="clipPath3020">
   <rect x="7.75" rx="21.875" y="7.75" height="80.5" width="80.5"/>
  </clipPath>
  <linearGradient x1="58.2" x2="64.931" y1="49.911" y2="47.903" gradientUnits="userSpaceOnUse" id="linearGradient11544" gradientTransform="matrix(-1.01804 0 0 0.99931 215.75 -12.428)">
   <stop stop-color="#67633d" stop-opacity="1"/>
   <stop stop-color="#a58c6d" stop-opacity="1" offset="1"/>
  </linearGradient>
  <linearGradient x1="39.598" x2="61.16" gradientUnits="userSpaceOnUse" id="linearGradient11546" gradientTransform="matrix(1.28701 0 0 1.20225 101.32 -16.937)">
   <stop stop-color="#554532" stop-opacity="1"/>
   <stop stop-color="#9b7e5b" stop-opacity="1" offset="0.558"/>
   <stop stop-color="#5e4d38" stop-opacity="1" offset="1"/>
  </linearGradient>
  <linearGradient x1="47.763" x2="47.842" y1="62.787" y2="65.06" gradientUnits="userSpaceOnUse" id="linearGradient11548" gradientTransform="matrix(1.39417 0 0 0.81262 97.27 8.107)">
   <stop stop-color="#1a150f" stop-opacity="1"/>
   <stop stop-color="#1a150f" stop-opacity="0" offset="1"/>
  </linearGradient>
  <linearGradient x1="54.07" x2="53.36" y1="54.17" y2="66.17" gradientUnits="userSpaceOnUse" id="linearGradient11550" gradientTransform="matrix(1.06414 0 0 1.28773 112.24 -22.371)">
   <stop stop-color="#4b3d2c" stop-opacity="1"/>
   <stop stop-color="#6a563e" stop-opacity="1" offset="1"/>
  </linearGradient>
  <linearGradient x1="35.906" x2="49.563" y1="47.918" y2="48.851" gradientUnits="userSpaceOnUse" id="linearGradient11552" gradientTransform="matrix(1.03551 0 0 1.01513 114.85 -0.197)">
   <stop stop-color="#7d6648" stop-opacity="1"/>
   <stop stop-color="#7d6648" stop-opacity="0" offset="1"/>
  </linearGradient>
  <linearGradient x1="39.41" x2="46.12" y1="44.07" y2="47.22" gradientUnits="userSpaceOnUse" id="linearGradient11554" gradientTransform="matrix(-1.03551 0 0 1.01513 218.27 0.686)">
   <stop stop-color="#3b3022" stop-opacity="1"/>
   <stop stop-color="#3b3022" stop-opacity="0" offset="1"/>
  </linearGradient>
  <linearGradient x1="58.905" x2="59.36" y1="54.723" y2="52.42" gradientUnits="userSpaceOnUse" id="linearGradient11556" gradientTransform="matrix(0.99932 0 0 0.99931 115.73 0.572)">
   <stop stop-color="#efea94" stop-opacity="1"/>
   <stop stop-color="#cfc8ad" stop-opacity="0" offset="1"/>
  </linearGradient>
  <linearGradient x1="29.735" x2="57.51" y1="51.29" y2="32.79" gradientUnits="userSpaceOnUse" id="linearGradient11558" gradientTransform="matrix(0.84635 0.19202 -0.19618 0.86465 132.66 -19.225)">
   <stop stop-color="#6f4a31" stop-opacity="1"/>
   <stop stop-color="#62402a" stop-opacity="1" offset="1"/>
  </linearGradient>
  <radialGradient cy="38.37" r="7.513" xlink:href="#linearGradient4796" gradientUnits="userSpaceOnUse" id="radialGradient11560" cx="35.09" gradientTransform="matrix(0.16466 0.00151 -0.2785 0.30499 182.86 14.334)"/>
  <linearGradient id="linearGradient4796">
   <stop stop-color="#1f150e" stop-opacity="1"/>
   <stop stop-color="#1f150e" stop-opacity="0" offset="1"/>
  </linearGradient>
  <radialGradient cy="38.37" r="7.513" xlink:href="#linearGradient4772" gradientUnits="userSpaceOnUse" id="radialGradient11562" cx="35.09" gradientTransform="matrix(0.45764 0.02959 -1.07884 0.53766 197.64 8.996)"/>
  <linearGradient id="linearGradient4772">
   <stop stop-color="#bd8d6e" stop-opacity="1"/>
   <stop stop-color="#bd8d6e" stop-opacity="0" offset="1"/>
  </linearGradient>
  <radialGradient cy="38.37" r="7.513" xlink:href="#linearGradient4796" gradientUnits="userSpaceOnUse" id="radialGradient11564" cx="35.09" gradientTransform="matrix(0.16466 0.00151 -0.2785 0.30499 184.39 17.811)"/>
  <radialGradient cy="38.37" r="7.513" xlink:href="#linearGradient4796" gradientUnits="userSpaceOnUse" id="radialGradient11566" cx="35.09" gradientTransform="matrix(0.34731 0.01247 -1.29582 0.86634 209.87 1.513)"/>
  <linearGradient x1="61.17" x2="67.926" y1="46.944" y2="47.652" gradientUnits="userSpaceOnUse" id="linearGradient11568" gradientTransform="matrix(1.01804 0 0 0.99931 113.95 -12.428)">
   <stop stop-color="#705b42" stop-opacity="1"/>
   <stop stop-color="#a58c6d" stop-opacity="1" offset="1"/>
  </linearGradient>
  <radialGradient cy="38.37" r="7.513" xlink:href="#linearGradient4796" gradientUnits="userSpaceOnUse" id="radialGradient11570" cx="35.09" gradientTransform="matrix(0.2113 0.28389 -0.44606 0.04612 185.74 11.945)"/>
  <linearGradient x1="66.06" x2="66.25" xlink:href="#linearGradient4042" y1="21.05" y2="19.897" gradientUnits="userSpaceOnUse" id="linearGradient11572" gradientTransform="matrix(0.95833 0 0 0.89258 117.81 5.823)"/>
  <linearGradient id="linearGradient4042">
   <stop stop-color="#000000" stop-opacity="1"/>
   <stop stop-color="#000000" stop-opacity="0" offset="1"/>
  </linearGradient>
  <radialGradient cy="38.37" r="7.513" xlink:href="#linearGradient4772" gradientUnits="userSpaceOnUse" id="radialGradient11574" cx="35.09" gradientTransform="matrix(0.78525 0.4314 -2.16908 0.58529 213.54 -4.291)"/>
  <radialGradient cy="48.06" r="10.06" xlink:href="#linearGradient4042" gradientUnits="userSpaceOnUse" id="radialGradient11576" cx="15.813" gradientTransform="matrix(0.95872 0.35523 -0.15902 0.4403 124.49 23.303)"/>
  <radialGradient cy="38.37" r="7.513" xlink:href="#linearGradient4796" gradientUnits="userSpaceOnUse" id="radialGradient11578" cx="35.09" gradientTransform="matrix(0.50623 0.4026 -1.69133 0.5384 206.53 4.122)"/>
  <radialGradient cy="38.37" r="7.513" xlink:href="#linearGradient4796" gradientUnits="userSpaceOnUse" id="radialGradient11580" cx="35.09" gradientTransform="matrix(0.33426 -0.05449 -1.07436 1.05216 176.13 8.122)"/>
  <linearGradient x1="10.667" x2="25.04" y1="79.42" y2="93" gradientUnits="userSpaceOnUse" id="linearGradient11582" gradientTransform="matrix(0.5673 0.14857 -0.11103 0.56483 130.33 6.868)">
   <stop stop-color="#4e4729" stop-opacity="1"/>
   <stop stop-color="#696342" stop-opacity="1" offset="1"/>
  </linearGradient>
  <radialGradient cy="58.852" r="11.181" xlink:href="#linearGradient4377" gradientUnits="userSpaceOnUse" id="radialGradient11584" cx="22.23" gradientTransform="matrix(-0.89518 -0.90078 0.9523 -0.92591 96.21 141.25)"/>
  <linearGradient id="linearGradient4377">
   <stop stop-color="#efea94" stop-opacity="1"/>
   <stop stop-color="#efea94" stop-opacity="0" offset="1"/>
  </linearGradient>
  <linearGradient x1="47.02" x2="52.33" gradientUnits="userSpaceOnUse" id="linearGradient11586" gradientTransform="matrix(0.69952 0 0 0.78973 130.89 18.964)">
   <stop stop-color="#95846e" stop-opacity="1"/>
   <stop stop-color="#c8baa8" stop-opacity="1" offset="1"/>
  </linearGradient>
  <radialGradient cy="47.613" r="9.06" xlink:href="#linearGradient4544" gradientUnits="userSpaceOnUse" id="radialGradient11588" cx="40.39" gradientTransform="matrix(0.16761 -0.64544 0.15218 0.65109 141.15 69.19)"/>
  <linearGradient id="linearGradient4544">
   <stop stop-color="#e5db9d" stop-opacity="1"/>
   <stop stop-color="#e5db9d" stop-opacity="0" offset="1"/>
  </linearGradient>
  <radialGradient cy="71.75" r="24.625" xlink:href="#linearGradient4151-3" gradientUnits="userSpaceOnUse" id="radialGradient11590" cx="87.38" gradientTransform="matrix(0.44276 0 0 0.40351 126.77 41.787)"/>
  <linearGradient id="linearGradient4151-3">
   <stop stop-color="#ffdd5e" stop-opacity="1"/>
   <stop stop-color="#ffdd5e" stop-opacity="0" offset="1"/>
  </linearGradient>
  <filter x="-0.176" y="-0.182" height="1.364" color-interpolation-filters="sRGB" id="filter4365-9" width="1.353">
   <feGaussianBlur stdDeviation="1.33186"/>
  </filter>
  <radialGradient cy="47.613" r="9.06" gradientUnits="userSpaceOnUse" id="radialGradient11592" cx="40.39" gradientTransform="matrix(0.3976 -0.73932 0.361 0.7458 145.7 67.944)">
   <stop stop-color="#382f23" stop-opacity="1"/>
   <stop stop-color="#382f23" stop-opacity="0" offset="1"/>
  </radialGradient>
  <radialGradient cy="47.613" r="9.06" gradientUnits="userSpaceOnUse" id="radialGradient11594" cx="40.39" gradientTransform="matrix(0.22099 -0.73932 0.20065 0.7458 134.56 66.35)">
   <stop stop-color="#3c3124" stop-opacity="1"/>
   <stop stop-color="#3c3124" stop-opacity="0" offset="1"/>
  </radialGradient>
  <filter x="-1.132" y="-0.079" height="1.158" color-interpolation-filters="sRGB" id="filter4381-7" width="3.265">
   <feGaussianBlur stdDeviation="1.73617"/>
  </filter>
  <radialGradient cy="47.613" r="9.06" xlink:href="#linearGradient4544" gradientUnits="userSpaceOnUse" id="radialGradient11596" cx="40.39" gradientTransform="matrix(0.6902 -0.04125 -0.69625 -0.03746 171.46 89.84)"/>
  <radialGradient cy="47.613" r="9.06" xlink:href="#linearGradient4544" gradientUnits="userSpaceOnUse" id="radialGradient11598" cx="40.39" gradientTransform="matrix(1.06945 0.13344 -1.07881 0.12115 175.64 47.24)"/>
  <linearGradient x1="89.34" x2="94.27" y1="93.88" y2="34.86" gradientUnits="userSpaceOnUse" id="linearGradient11600" gradientTransform="matrix(0.0539 0 0 0.13599 160.82 63.921)">
   <stop stop-color="#d9c48a" stop-opacity="1"/>
   <stop stop-color="#ffdd5e" stop-opacity="0" offset="1"/>
  </linearGradient>
  <radialGradient cy="71.75" r="24.625" xlink:href="#linearGradient4151-3" gradientUnits="userSpaceOnUse" id="radialGradient11602" cx="87.38" gradientTransform="matrix(0.55658 0 0 0.49969 117.28 35.38)"/>
  <radialGradient cy="13.534" r="1.856" xlink:href="#linearGradient4483-7" gradientUnits="userSpaceOnUse" id="radialGradient11604" cx="55.6" gradientTransform="matrix(1.4651 0 0 1.09017 88.86 -1.71)"/>
  <linearGradient id="linearGradient4483-7">
   <stop stop-color="#2b1c13" stop-opacity="1"/>
   <stop stop-color="#2b1c13" stop-opacity="0" offset="1"/>
  </linearGradient>
  <radialGradient cy="13.534" r="1.856" xlink:href="#linearGradient4483-7" gradientUnits="userSpaceOnUse" id="radialGradient11606" cx="55.6" gradientTransform="matrix(1.49622 0 0 1.0038 81.59 -1.97)"/>
  <radialGradient cy="179.51" r="8.375" gradientUnits="userSpaceOnUse" id="radialGradient11608" cx="248.38" gradientTransform="matrix(1.03582 -0.93499 0.41309 0.42454 -174.13 205.25)">
   <stop stop-color="#fad95d" stop-opacity="1"/>
   <stop stop-color="#fad95d" stop-opacity="0" offset="1"/>
  </radialGradient>
  <radialGradient cy="71.75" r="24.625" xlink:href="#linearGradient4151-3" gradientUnits="userSpaceOnUse" id="radialGradient11610" cx="87.38" gradientTransform="matrix(0.77747 0 0 0.60517 98.32 26.729)"/>
  <radialGradient cy="179.51" r="8.375" xlink:href="#linearGradient17105" gradientUnits="userSpaceOnUse" id="radialGradient11612" cx="248.38" gradientTransform="matrix(1.19264 -1.02358 0.29314 0.02565 -215.68 315.55)"/>
  <linearGradient id="linearGradient17105">
   <stop stop-color="#fcda5d" stop-opacity="1"/>
   <stop stop-color="#fcda5d" stop-opacity="0" offset="1"/>
  </linearGradient>
  <radialGradient cy="38.37" r="7.513" xlink:href="#linearGradient4772" gradientUnits="userSpaceOnUse" id="radialGradient11614" cx="35.09" gradientTransform="matrix(0.30676 1.1725 -1.68106 1.1804 208.86 -57.2)"/>
  <radialGradient cy="38.37" r="7.513" xlink:href="#linearGradient4772" gradientUnits="userSpaceOnUse" id="radialGradient11616" cx="35.09" gradientTransform="matrix(0.26781 1.15044 -1.46759 1.15818 203.19 -59.958)"/>
  <radialGradient cy="38.37" r="7.513" xlink:href="#linearGradient4796" gradientUnits="userSpaceOnUse" id="radialGradient11618" cx="35.09" gradientTransform="matrix(0.54644 -0.10996 -1.75636 2.12314 189.68 -51.29)"/>
  <radialGradient cy="38.37" r="7.513" xlink:href="#linearGradient4796" gradientUnits="userSpaceOnUse" id="radialGradient11620" cx="35.09" gradientTransform="matrix(0.61341 -0.12035 -1.97161 2.3236 198.72 -58.821)"/>
  <radialGradient cy="38.37" r="7.513" xlink:href="#linearGradient4796" gradientUnits="userSpaceOnUse" id="radialGradient11622" cx="35.09" gradientTransform="matrix(0.47068 0.02211 -0.52906 0.82562 173.53 -6.806)"/>
  <radialGradient cy="38.37" r="7.513" xlink:href="#linearGradient4772" gradientUnits="userSpaceOnUse" id="radialGradient11624" cx="35.09" gradientTransform="matrix(0.0083 0.83688 -1.21247 0.58823 205.42 -31.946)"/>
  <radialGradient cy="38.37" r="7.513" xlink:href="#linearGradient4042" gradientUnits="userSpaceOnUse" id="radialGradient11626" cx="35.09" gradientTransform="matrix(0.30641 0.01298 -0.34442 0.48475 174.21 6.875)"/>
  <radialGradient cy="38.37" r="7.513" xlink:href="#linearGradient4796" gradientUnits="userSpaceOnUse" id="radialGradient11628" cx="35.09" gradientTransform="matrix(0.22136 0.29043 -0.73955 0.3884 193.02 -2.712)"/>
  <radialGradient cy="179.51" r="8.375" xlink:href="#linearGradient17105" gradientUnits="userSpaceOnUse" id="radialGradient11630" cx="248.38" gradientTransform="matrix(0.3404 -1.13803 0.12793 -0.03655 71.807 332.39)"/>
  <radialGradient cy="16.892" r="2.74" xlink:href="#linearGradient4042" gradientUnits="userSpaceOnUse" id="radialGradient11632" cx="41.631" gradientTransform="matrix(0.58279 0.92746 -1.79101 1.24642 160.8 -45.39)"/>
  <radialGradient cy="38.37" r="7.513" xlink:href="#linearGradient4772" gradientUnits="userSpaceOnUse" id="radialGradient11634" cx="35.09" gradientTransform="matrix(-0.22864 0.88937 -1.14844 0.49881 194.64 -10.583)"/>
  <radialGradient cy="38.37" r="7.513" xlink:href="#linearGradient4772" gradientUnits="userSpaceOnUse" id="radialGradient11636" cx="35.09" gradientTransform="matrix(0.00448 0.4081 -0.6544 0.28685 195.7 -8.436)"/>
  <radialGradient cy="38.37" r="7.513" xlink:href="#linearGradient4772" gradientUnits="userSpaceOnUse" id="radialGradient11638" cx="35.09" gradientTransform="matrix(-0.25356 0.08925 -0.38833 -0.55357 200.65 36.659)"/>
  <radialGradient cy="179.51" r="8.375" xlink:href="#linearGradient17105" gradientUnits="userSpaceOnUse" id="radialGradient11640" cx="248.38" gradientTransform="matrix(0.71593 -0.6707 0.17597 0.01681 -63.879 210.89)"/>
  <radialGradient cy="179.51" r="8.375" xlink:href="#linearGradient17105" gradientUnits="userSpaceOnUse" id="radialGradient11642" cx="248.38" gradientTransform="matrix(0.97251 -0.31083 0.14906 0.10386 -113.18 100.78)"/>
  <radialGradient cy="38.37" r="7.513" xlink:href="#linearGradient4772" gradientUnits="userSpaceOnUse" id="radialGradient11644" cx="35.09" gradientTransform="matrix(-0.20223 0.57817 -1.01578 0.32427 187.78 6.03)"/>
  <radialGradient cy="38.37" r="7.513" xlink:href="#linearGradient4772" gradientUnits="userSpaceOnUse" id="radialGradient11646" cx="35.09" gradientTransform="matrix(0.00148 0.07298 -0.21565 0.0513 172.88 6.257)"/>
  <radialGradient cy="38.37" r="7.513" xlink:href="#linearGradient4772" gradientUnits="userSpaceOnUse" id="radialGradient11648" cx="35.09" gradientTransform="matrix(-0.02749 0.06726 -0.24081 0.00675 180.14 9.235)"/>
  <radialGradient cy="38.37" r="7.513" xlink:href="#linearGradient4772" gradientUnits="userSpaceOnUse" id="radialGradient11650" cx="35.09" gradientTransform="matrix(-0.02975 0.11076 -0.26061 0.01112 185.8 11.542)"/>
  <radialGradient cy="38.37" r="7.513" xlink:href="#linearGradient4042" gradientUnits="userSpaceOnUse" id="radialGradient11652" cx="35.09" gradientTransform="matrix(0.13445 0.00196 -0.13512 0.32218 172.55 12.11)"/>
  <radialGradient cy="38.37" r="7.513" xlink:href="#linearGradient4772" gradientUnits="userSpaceOnUse" id="radialGradient11654" cx="35.09" gradientTransform="matrix(-0.01281 0.0817 -0.22644 0.02009 167.66 8.252)"/>
  <radialGradient cy="13.534" r="1.856" xlink:href="#linearGradient7344" gradientUnits="userSpaceOnUse" id="radialGradient11656" cx="55.6" gradientTransform="matrix(2.29284 -1.82579 -0.76167 1.75274 46.834 93.88)"/>
  <linearGradient id="linearGradient7344">
   <stop stop-color="#b08163" stop-opacity="1"/>
   <stop stop-color="#b08163" stop-opacity="0" offset="1"/>
  </linearGradient>
  <radialGradient cy="13.534" r="1.856" xlink:href="#linearGradient7344" gradientUnits="userSpaceOnUse" id="radialGradient11658" cx="55.6" gradientTransform="matrix(1.34032 -0.91403 -0.44525 0.87746 92.8 52.1)"/>
  <radialGradient cy="13.534" r="1.856" xlink:href="#linearGradient7344" gradientUnits="userSpaceOnUse" id="radialGradient11660" cx="55.6" gradientTransform="matrix(1.57117 -0.95294 -0.58501 0.99449 91.3 57.03)"/>
  <linearGradient x1="66.08" x2="66.23" y1="20.247" y2="19.334" gradientUnits="userSpaceOnUse" id="linearGradient11662" gradientTransform="matrix(0.84019 0 0 0.6533 125.61 10.434)">
   <stop stop-color="#ffffff" stop-opacity="0"/>
   <stop stop-color="#ffffff" stop-opacity="1" offset="1"/>
  </linearGradient>
  <linearGradient x1="43.21" x2="45.38" xlink:href="#linearGradient4042" y1="50.4" y2="47.875" gradientUnits="userSpaceOnUse" id="linearGradient11664" gradientTransform="matrix(0.5587 0 0 0.49769 150.64 28.09)"/>
  <radialGradient cy="46.679" r="7.159" xlink:href="#linearGradient4377" gradientUnits="userSpaceOnUse" id="radialGradient11666" cx="22.362" gradientTransform="matrix(0.68161 0.66967 -1.29163 1.33164 182.49 -25.02)"/>
  <radialGradient cy="46.679" r="7.159" xlink:href="#linearGradient4377" gradientUnits="userSpaceOnUse" id="radialGradient3963" cx="22.362" inkscape:collect="always" gradientTransform="matrix(0.49802 0.44845 -0.94373 0.89176 181.31 -7.256)"/>
  <path d="m 43.660058,41.014183 c 0,0 -13.753905,12.55941 -11.455808,13.796847 2.298097,1.237437 -3.936705,1.610276 1.280101,1.582725 3.317073,-0.01752 17.432642,-16.962663 15.841651,-17.492993 -1.59099,-0.53033 -5.665944,2.113421 -5.665944,2.113421 z" fill-opacity="1" stroke="none" id="SVGCleanerId_0"/>
 </defs>
 <g inkscape:label="Layer 1" inkscape:groupmode="layer" transform="matrix(1 0 0 1 0 -956.36)">
  <g display="inline" clip-path="url(#clipPath3020)" transform="matrix(1.14286 0 0 1.14286 -6.857 949.51)">
   <rect x="6" rx="6" y="6" fill="url(#linearGradient3463)" fill-opacity="1" fill-rule="nonzero" stroke="none" height="84" width="84"/>
  </g>
  <g transform="matrix(1 0 0 0.99676 -116.09 955.15)">
   <path d="m 158.08751,25.257955 c 0,0 -3.67738,-2.777665 -7.13255,0.531137 -1.72493,1.651857 -3.91571,4.880109 -3.61206,7.987856 0.57253,5.859848 4.81608,18.301313 5.7191,19.312447 0.90301,1.011121 1.95653,1.516667 2.25754,1.112228 0.30101,-0.404454 1.05351,-1.820027 0,-1.921134 -1.05353,-0.101065 -4.51508,-9.302324 -4.81609,-11.324579 -0.30101,-2.02224 -2.52908,-7.404421 -0.57256,-11.14557 1.95655,-3.741148 2.52909,-3.616809 4.78663,-3.616809 2.25754,0 3.55314,2.247729 3.55314,2.247729 z" fill="url(#linearGradient11544)" fill-opacity="1" stroke="none" inkscape:connector-curvature="0"/>
   <rect x="152.28" rx="7.722" y="57.673" ry="1.263" fill="url(#linearGradient11546)" fill-opacity="1" stroke="none" height="31.03" width="27.757"/>
   <rect x="152.34" rx="8.365" y="56.46" ry="0.853" fill="url(#linearGradient11548)" fill-opacity="1" stroke="none" height="4.673" opacity="0.747" width="28.23"/>
   <path d="m 146.09829,56.633501 c 0,3.186972 40.61035,2.731683 41.00849,1.365841 C 183.8429,51.837235 174.00287,38.71691 166.88861,38.84449 160.17234,38.287045 146.44958,54.191405 146.09829,56.633501 z" fill="url(#linearGradient11550)" fill-opacity="1" stroke="none" inkscape:connector-curvature="0"/>
   <path d="m 160.06316,41.43795 c 0,0 -16.159,14.289855 -13.77929,15.54602 2.3797,1.256166 14.20299,0.92371 19.60505,0.895742 3.43487,-0.01778 1.65379,-18.081921 0.006,-18.620277 -1.64749,-0.538356 -5.83207,2.178515 -5.83207,2.178515 z" fill="url(#linearGradient11552)" fill-opacity="1" stroke="none" opacity="0.521" inkscape:connector-curvature="0"/>
   <path d="m 173.62692,41.080325 c 0,0 15.19085,15.17529 12.81115,16.431455 -2.37971,1.256166 -16.335,1.156374 -19.26387,-0.638148 -2.92887,-1.794521 -2.54919,-17.377457 -0.9017,-17.915813 1.64748,-0.538356 7.35442,2.122506 7.35442,2.122506 z" fill="url(#linearGradient11554)" fill-opacity="1" stroke="none" opacity="0.556" inkscape:connector-curvature="0"/>
   <path stroke-opacity="1" d="m 176.85215,53.313418 a 2.2082086,1.678226 0 1 1 -4.41641,0 2.2082086,1.678226 0 1 1 4.41641,0 z" stroke-width="0.576" fill="#171510" fill-opacity="1" stroke="url(#linearGradient11556)" stroke-dasharray="none" stroke-linecap="round" stroke-miterlimit="4" inkscape:connector-curvature="0"/>
   <path d="m 138.39126,56.27197 c 0,0 7.74813,-12.320119 15.71046,-13.329199 7.96234,-1.009079 13.52414,-4.462654 15.7416,-5.777078 4.34431,-2.575133 9.57378,-5.71389 11.28006,-8.852804 0.15359,-0.282525 0.59333,-0.995218 0.71129,-2.405492 0.2023,-2.418624 -0.50515,-4.234512 -2.01177,-2.18015 -0.90802,1.238162 -3.02094,2.277836 -4.06582,2.886204 -2.68132,1.561155 -4.10608,1.406161 -4.10608,1.406161 0,0 1.47724,-3.442792 4.08362,-3.439952 2.72921,0.0027 2.09394,1.517079 3.82027,-0.443536 1.76497,-2.004501 -1.92521,-8.601699 -3.89187,-8.820678 -1.51652,-0.16886 -2.20877,0.543698 -2.86156,-0.408879 -0.6528,-0.952564 0.532,-2.589184 -1.18931,-3.320658 -1.79493,-0.762746 -2.90428,0.682416 -3.64388,0.112384 -0.73957,-0.570019 -1.64594,-1.783393 -3.45472,-1.087643 -1.80881,0.695736 -2.22052,1.207832 -2.96426,1.039095 -0.74375,-0.168749 -1.97044,-1.233412 -3.30865,-0.382423 -2.05321,1.305671 -3.33564,2.092769 -5.88309,4.129293 -2.54749,2.036512 -4.36819,4.997755 -7.1368,8.391904 -2.76861,3.394148 -2.48027,3.666628 -4.30153,5.566238 -1.82126,1.899598 -3.87049,2.579468 -6.02233,4.404073 -2.15181,1.824605 -7.01868,7.210868 -8.15898,8.003479 -1.55013,1.077467 -4.23589,5.673505 -3.55723,6.129153 0.67866,0.455634 15.21058,8.380576 15.21058,8.380576 z" fill="url(#linearGradient11558)" fill-opacity="1" stroke="none" inkscape:connector-curvature="0"/>
   <path d="m 179.19366,26.100824 a 0.88762458,3.2204467 46.967919 1 1 -2.47423,-0.02276 0.88762458,3.2204467 46.967919 1 1 2.47423,0.02276 z" fill="url(#radialGradient11560)" fill-opacity="1" stroke="none" opacity="0.22" inkscape:connector-curvature="0"/>
   <path d="m 175.74574,30.88746 a 1.6432,9.5490551 66.858328 1 1 -6.87655,-0.444686 1.6432,9.5490551 66.858328 1 1 6.87655,0.444686 z" fill="url(#radialGradient11562)" fill-opacity="1" stroke="none" opacity="0.318" inkscape:connector-curvature="0"/>
   <path d="m 180.71835,29.577893 a 0.88762458,3.2204467 46.967919 1 1 -2.47423,-0.02276 0.88762458,3.2204467 46.967919 1 1 2.47423,0.02276 z" fill="url(#radialGradient11564)" fill-opacity="1" stroke="none" opacity="0.336" inkscape:connector-curvature="0"/>
   <path d="m 174.94791,35.286384 a 1.5033579,11.903886 57.564676 1 1 -5.21867,-0.187388 1.5033579,11.903886 57.564676 0 1 5.21867,0.187388 z" fill="url(#radialGradient11566)" fill-opacity="1" stroke="none" opacity="0.646" inkscape:connector-curvature="0"/>
   <path d="m 171.61296,25.257955 c 0,0 3.44166,-2.512524 7.13255,0.531137 2.43156,2.005143 3.38575,3.466865 3.61207,7.987856 0.29439,5.880392 -4.81609,18.301313 -5.71911,19.312447 -0.903,1.011121 -1.95651,1.516667 -2.25752,1.112228 -0.30101,-0.404454 -0.34691,-1.996678 0.70661,-2.097785 1.05353,-0.101065 3.38743,-6.527651 4.46278,-10.971263 1.3558,-5.602499 1.29248,-8.817666 0.21924,-11.322235 -1.66291,-3.880598 -2.52909,-3.616809 -4.78663,-3.616809 -2.25754,0 -3.21432,1.828804 -3.21432,1.828804 z" fill="url(#linearGradient11568)" fill-opacity="1" stroke="none" inkscape:connector-curvature="0"/>
   <path d="m 177.62837,25.809146 a 3.7771121,2.0379936 13.050219 0 1 -3.17492,-4.265682 3.7771121,2.0379936 13.050219 0 1 3.17492,4.265682 z" fill="url(#radialGradient11570)" fill-opacity="1" stroke="none" opacity="0.422" inkscape:connector-curvature="0"/>
   <path stroke-opacity="1" d="m 180.66684,23.034139 c 0,0 -0.38985,1.020319 -0.12994,1.407289 0.25989,0.386969 0.97462,0.86324 1.13706,0.684638 0.16243,-0.178601 0.19492,-0.506037 0.12995,-0.922773 -0.065,-0.416737 -0.23124,-1.143531 -0.5198,-1.220444 -0.36598,-0.09755 -0.61727,0.05129 -0.61727,0.05129 z" stroke-width="0.092" fill="none" stroke="url(#linearGradient11572)" stroke-dasharray="none" opacity="0.498" stroke-miterlimit="4" inkscape:connector-curvature="0"/>
   <path d="m 171.8374,25.003993 c 0,0 3.96733,-2.798139 7.63144,0.714034 2.32884,2.232294 2.93239,3.712567 3.18072,8.27341 0.32293,5.932277 -4.99311,18.069393 -5.98382,19.089423 -0.99073,1.020044 -0.20154,1.173629 -0.53176,0.76562 -0.33025,-0.408023 0.004,-1.531835 0.47477,-2.263926 0.59084,-0.919124 2.75709,-6.081147 3.93687,-10.56394 1.48747,-5.6519 1.71561,-8.984554 0.53814,-11.511199 -1.82442,-3.91481 -3.62049,-5.071793 -6.09727,-5.071793 -2.4768,0 -2.80185,1.007379 -2.80185,1.007379 z" fill="#202018" fill-opacity="1" stroke="none" inkscape:connector-curvature="0"/>
   <path d="m 163.76474,36.545423 a 4.4716733,17.613049 79.38673 0 1 -11.79911,-6.482171 4.4716733,17.613049 79.38673 1 1 11.79911,6.482171 z" fill="url(#radialGradient11574)" fill-opacity="1" stroke="none" opacity="0.462" inkscape:connector-curvature="0"/>
   <path d="M 141.6533,53.65613 A 10.288112,4.7103927 20.456245 0 1 122.35911,46.507225 10.288112,4.7103927 20.456245 0 1 141.6533,53.65613 z" fill="url(#radialGradient11576)" fill-opacity="1" stroke="none" opacity="0.484" inkscape:connector-curvature="0"/>
   <path d="m 163.19962,41.932445 a 3.9477389,13.633034 76.028086 1 1 -7.60668,-6.049439 3.9477389,13.633034 76.028086 0 1 7.60668,6.049439 z" fill="url(#radialGradient11578)" fill-opacity="1" stroke="none" opacity="0.628" inkscape:connector-curvature="0"/>
   <path d="m 149.149,46.17206 a 1.4399821,11.490847 46.942059 1 1 -5.02254,0.81883 1.4399821,11.490847 46.942059 0 1 5.02254,-0.81883 z" fill="url(#radialGradient11580)" fill-opacity="1" stroke="none" opacity="0.48" inkscape:connector-curvature="0"/>
   <path d="m 121.80839,44.969562 c 3.69313,1.597105 11.63752,3.981636 12.91947,3.897393 1.28194,-0.08424 1.58281,-0.0055 2.08853,1.176891 0.874,2.043281 4.47742,2.772536 4.90517,4.0143 0.51678,1.500204 1.98671,3.010804 1.02353,4.275001 -6.65501,8.734677 -21.27837,17.40779 -21.10876,16.026824 0.0572,-0.465299 0.2175,-6.831301 0.0686,-9.109445 -0.14886,-2.27813 0.10343,-20.280964 0.10343,-20.280964 z" fill="url(#linearGradient11582)" fill-opacity="1" stroke="none" inkscape:connector-curvature="0"/>
   <path d="m 121.92819,44.495604 c 3.69312,1.597105 11.63751,3.981636 12.91946,3.897392 1.28194,-0.08424 1.58281,-0.0055 2.08853,1.176892 0.874,2.043281 4.47742,2.772536 4.90517,4.0143 0.51678,1.500203 1.98672,3.010803 1.02353,4.275001 -6.65501,8.734677 -21.27837,17.40779 -21.10874,16.026823 0.0572,-0.465299 0.21748,-6.831301 0.0686,-9.109445 -0.14886,-2.278129 0.10343,-20.280963 0.10343,-20.280963 z" fill="url(#radialGradient11584)" fill-opacity="1" stroke="none" opacity="0.417" inkscape:connector-curvature="0"/>
   <rect x="155.38" rx="8.889" y="61.58" ry="1.333" fill="#000000" fill-opacity="1" stroke="none" height="24.756" opacity="0.604" width="20.741"/>
   <path d="m 176.02966,85.302711 a 10.272135,1.0367839 0 0 1 -20.54427,0 10.272135,1.0367839 0 1 1 20.54427,0 z" fill="#423503" fill-opacity="1" stroke="none" opacity="0.556" inkscape:connector-curvature="0"/>
   <rect x="163.78" rx="1.855" y="74.954" ry="0.674" fill="url(#linearGradient11586)" fill-opacity="1" stroke="none" height="11.308" width="3.71"/>
   <path d="m 154.67511,67.584441 c 0,0 -0.33442,17.309291 0.24494,16.656793 0.57936,-0.652497 -0.40714,3.621979 0.46291,0.236366 0.55323,-2.152716 0.26004,-22.639878 -0.0898,-21.969042 -0.3499,0.670836 -0.61802,5.075883 -0.61802,5.075883 z" fill="url(#radialGradient11588)" fill-opacity="1" stroke="none" opacity="0.525" inkscape:connector-curvature="0"/>
   <path d="m 176.36314,70.739087 a 10.902895,9.9363962 0 0 1 -21.80579,0 10.902895,9.9363962 0 1 1 21.80579,0 z" fill="url(#radialGradient11590)" fill-opacity="1" stroke="none" inkscape:connector-curvature="0"/>
   <use xlink:href="#SVGCleanerId_0" fill="#e5db9d" filter="url(#filter4365-9)" opacity="0.525" inkscape:connector-curvature="0" transform="matrix(0.04967 -0.64544 0.0465 0.67137 172.2 68.41)"/>
   <path d="m 177.79189,66.100163 c 0,0 -0.79331,19.827135 0.58105,19.079736 1.37435,-0.747413 -0.96581,4.148842 1.09813,0.270753 1.31234,-2.465866 0.61685,-25.933154 -0.21313,-25.164741 -0.83,0.768412 -1.46605,5.814252 -1.46605,5.814252 z" fill="url(#radialGradient11592)" fill-opacity="1" stroke="none" opacity="0.627" inkscape:connector-curvature="0"/>
   <path d="m 152.39258,64.510277 c 0,0 -0.44092,19.827147 0.32295,19.079738 0.76388,-0.747409 -0.5368,4.148848 0.61036,0.270756 0.72941,-2.465862 0.34285,-25.933158 -0.11847,-25.164741 -0.46131,0.768415 -0.81484,5.814247 -0.81484,5.814247 z" fill="url(#radialGradient11594)" fill-opacity="1" stroke="none" opacity="0.627" inkscape:connector-curvature="0"/>
   <use xlink:href="#SVGCleanerId_0" fill="#382f23" filter="url(#filter4381-7)" opacity="0.627" inkscape:connector-curvature="0" transform="matrix(0.64475 0.22979 -0.67066 0.21514 171.81 67.27)"/>
   <path d="m 173.18548,86.507396 c 0,0 -18.50983,0.08232 -17.81208,-0.06025 0.69775,-0.142581 -3.8732,0.100238 -0.25276,-0.113888 2.30202,-0.136086 24.21014,-0.06397 23.49279,0.02206 -0.71736,0.08617 -5.42795,0.152107 -5.42795,0.152107 z" fill="url(#radialGradient11596)" fill-opacity="1" stroke="none" opacity="0.377" inkscape:connector-curvature="0"/>
   <path d="m 178.30719,58.007491 c 0,0 -28.68047,-0.266244 -27.59933,0.195002 1.08115,0.461233 -6.00141,-0.324126 -0.39164,0.368536 3.56693,0.440427 37.51295,0.207012 36.40141,-0.07156 -1.11152,-0.278544 -8.41044,-0.492007 -8.41044,-0.492007 z" fill="url(#radialGradient11598)" fill-opacity="1" stroke="none" opacity="0.406" inkscape:connector-curvature="0"/>
   <path d="m 166.85777,73.678637 a 1.32732,3.161807 0 0 1 -2.65464,0 1.32732,3.161807 0 1 1 2.65464,0 z" fill="url(#linearGradient11600)" fill-opacity="1" stroke="none" inkscape:connector-curvature="0"/>
   <path d="m 179.62181,71.233934 a 13.705835,12.304931 0 0 1 -27.41167,0 13.705835,12.304931 0 1 1 27.41167,0 z" fill="url(#radialGradient11602)" fill-opacity="1" stroke="none" opacity="0.758" inkscape:connector-curvature="0"/>
   <path d="m 173.03468,13.044011 a 2.7194518,2.0235299 0 1 1 -5.4389,0 2.7194518,2.0235299 0 1 1 5.4389,0 z" fill="url(#radialGradient11604)" fill-opacity="1" stroke="none" opacity="0.291" inkscape:connector-curvature="0"/>
   <path d="m 167.54924,11.614475 a 2.77722,1.8631484 0 0 1 -5.55444,0 2.77722,1.8631484 0 1 1 5.55444,0 z" fill="url(#radialGradient11606)" fill-opacity="1" stroke="none" opacity="0.26" inkscape:connector-curvature="0"/>
   <path d="M 165.96992,41.398924 A 4.9566332,11.688217 48.399441 0 1 148.62001,57.060025 4.9566332,11.688217 48.399441 1 1 165.96992,41.398924 z" fill="url(#radialGradient11608)" fill-opacity="1" stroke="none" opacity="0.152" inkscape:connector-curvature="0"/>
   <path d="m 185.39958,70.150226 a 19.145305,14.902329 0 0 1 -38.29061,0 19.145305,14.902329 0 1 1 38.29061,0 z" fill="url(#radialGradient11610)" fill-opacity="1" stroke="none" opacity="0.636" inkscape:connector-curvature="0"/>
   <path d="M 143.15465,57.347068 A 1.7467868,13.276934 50.366859 0 1 123.17788,74.491952 1.7467868,13.276934 50.366859 1 1 143.15465,57.347068 z" fill="url(#radialGradient11612)" fill-opacity="1" stroke="none" opacity="0.387" inkscape:connector-curvature="0"/>
   <path d="m 157.4296,38.045898 a 8.2904639,15.885156 46.338807 1 1 -4.60943,-17.61806 8.2904639,15.885156 46.338807 1 1 4.60943,17.61806 z" fill="url(#radialGradient11614)" fill-opacity="1" stroke="none" opacity="0.332" inkscape:connector-curvature="0"/>
   <path d="m 158.28687,33.494264 a 7.6483379,14.749426 40.514898 1 1 -4.02411,-17.286505 7.6483379,14.749426 40.514898 1 1 4.02411,17.286505 z" fill="url(#radialGradient11616)" fill-opacity="1" stroke="none" opacity="0.327" inkscape:connector-curvature="0"/>
   <path d="m 145.56905,25.493617 a 2.6042425,20.959907 40.735753 1 1 -8.21083,1.652311 2.6042425,20.959907 40.735753 1 1 8.21083,-1.652311 z" fill="url(#radialGradient11618)" fill-opacity="1" stroke="none" opacity="0.717" inkscape:connector-curvature="0"/>
   <path d="m 149.20381,25.210864 a 2.8915036,23.191997 41.478964 1 1 -9.21712,1.808317 2.8915036,23.191997 41.478964 1 1 9.21712,-1.808317 z" fill="url(#radialGradient11620)" fill-opacity="1" stroke="none" opacity="0.417" inkscape:connector-curvature="0"/>
   <path d="m 173.28114,25.815528 a 2.966734,7.6162191 39.018461 0 1 -7.07248,-0.332228 2.966734,7.6162191 39.018461 1 1 7.07248,0.332228 z" fill="url(#radialGradient11622)" fill-opacity="1" stroke="none" opacity="0.565" inkscape:connector-curvature="0"/>
   <path d="m 159.24693,26.279006 a 5.4224507,10.613383 53.349934 0 1 -0.12479,-12.575003 5.4224507,10.613383 53.349934 1 1 0.12479,12.575003 z" fill="url(#radialGradient11624)" fill-opacity="1" stroke="none" opacity="0.327" inkscape:connector-curvature="0"/>
   <path d="m 174.05262,26.028788 a 1.8473576,4.6750464 43.013453 1 1 -4.60418,-0.195063 1.8473576,4.6750464 43.013453 0 1 4.60418,0.195063 z" fill="url(#radialGradient11626)" fill-opacity="1" stroke="none" opacity="0.892" inkscape:connector-curvature="0"/>
   <path d="m 174.07139,24.563961 a 2.6962558,6.2963567 64.486579 0 1 -3.32611,-4.363987 2.6962558,6.2963567 64.486579 1 1 3.32611,4.363987 z" fill="url(#radialGradient11628)" fill-opacity="1" stroke="none" opacity="0.798" inkscape:connector-curvature="0"/>
   <path d="m 182.16894,33.641475 a 0.93704501,9.9664726 16.980484 1 1 -5.70165,19.061979 0.93704501,9.9664726 16.980484 0 1 5.70165,-19.061979 z" fill="url(#radialGradient11630)" fill-opacity="1" stroke="none" opacity="0.601" inkscape:connector-curvature="0"/>
   <path d="m 156.40779,16.816992 a 2.996912,5.9810757 54.261044 1 1 -3.19373,-5.082529 2.996912,5.9810757 54.261044 0 1 3.19373,5.082529 z" fill="url(#radialGradient11632)" fill-opacity="1" stroke="none" opacity="0.238" inkscape:connector-curvature="0"/>
   <path d="m 140.83476,46.446517 a 4.8212125,10.622828 51.02541 1 1 3.43555,-13.363622 4.8212125,10.622828 51.02541 0 1 -3.43555,13.363622 z" fill="url(#radialGradient11634)" fill-opacity="1" stroke="none" opacity="0.39" inkscape:connector-curvature="0"/>
   <path d="m 170.78051,19.957563 a 2.7310953,5.5461233 57.88146 1 1 -0.0673,-6.132194 2.7310953,5.5461233 57.88146 1 1 0.0673,6.132194 z" fill="url(#radialGradient11636)" fill-opacity="1" stroke="none" opacity="0.238" inkscape:connector-curvature="0"/>
   <path d="m 174.95123,19.220757 a 5.1143227,1.9316791 52.238164 1 1 3.81002,-1.341098 5.1143227,1.9316791 52.238164 1 1 -3.81002,1.341098 z" fill="url(#radialGradient11638)" fill-opacity="1" stroke="none" opacity="0.238" inkscape:connector-curvature="0"/>
   <path d="M 151.52551,41.705488 A 1.102366,8.2752339 47.794657 1 1 139.53367,52.939696 1.102366,8.2752339 47.794657 0 1 151.52551,41.705488 z" fill="url(#radialGradient11640)" fill-opacity="1" stroke="none" opacity="0.493" inkscape:connector-curvature="0"/>
   <path d="m 163.26494,39.621405 a 1.2014513,8.6014381 73.157926 0 1 -16.28947,5.206327 1.2014513,8.6014381 73.157926 1 1 16.28947,-5.206327 z" fill="url(#radialGradient11642)" fill-opacity="1" stroke="none" opacity="0.493" inkscape:connector-curvature="0"/>
   <path d="m 140.18614,43.10309 a 3.4334214,8.576981 62.676745 0 1 3.03869,-8.687602 3.4334214,8.576981 62.676745 1 1 -3.03869,8.687602 z" fill="url(#radialGradient11644)" fill-opacity="1" stroke="none" opacity="0.188" inkscape:connector-curvature="0"/>
   <path d="m 164.66948,11.334604 a 0.53456499,1.6698845 75.193785 0 1 -0.0222,-1.096656 0.53456499,1.6698845 75.193785 0 1 0.0222,1.096656 z" fill="url(#radialGradient11646)" fill-opacity="1" stroke="none" opacity="0.238" inkscape:connector-curvature="0"/>
   <path d="m 169.73168,12.359405 a 0.49536794,1.8244143 86.344931 0 1 0.41311,-1.010636 0.49536794,1.8244143 86.344931 1 1 -0.41311,1.010636 z" fill="url(#radialGradient11648)" fill-opacity="1" stroke="none" opacity="0.238" inkscape:connector-curvature="0"/>
   <path d="m 174.53632,16.686817 a 0.81332842,1.9803011 83.80836 1 1 0.44707,-1.66427 0.81332842,1.9803011 83.80836 1 1 -0.44707,1.66427 z" fill="url(#radialGradient11650)" fill-opacity="1" stroke="none" opacity="0.238" inkscape:connector-curvature="0"/>
   <path d="m 173.0901,24.553722 a 0.92637863,2.655525 26.029316 0 1 -2.0203,-0.02944 0.92637863,2.655525 26.029316 1 1 2.0203,0.02944 z" fill="url(#radialGradient11652)" fill-opacity="1" stroke="none" opacity="0.726" inkscape:connector-curvature="0"/>
   <path d="m 158.42283,12.503282 a 0.60024295,1.7154666 82.919668 1 1 0.19246,-1.22758 0.60024295,1.7154666 82.919668 0 1 -0.19246,1.22758 z" fill="url(#radialGradient11654)" fill-opacity="1" stroke="none" opacity="0.238" inkscape:connector-curvature="0"/>
   <path d="m 168.25491,12.700931 a 1.429205,6.3354468 43.526771 0 1 -8.51173,6.7779 1.429205,6.3354468 43.526771 0 1 8.51173,-6.7779 z" fill="url(#radialGradient11656)" fill-opacity="1" stroke="none" opacity="0.345" inkscape:connector-curvature="0"/>
   <path d="m 163.77632,11.460826 a 0.77110635,3.4364123 48.434703 0 1 -4.9757,3.393177 0.77110635,3.4364123 48.434703 1 1 4.9757,-3.393177 z" fill="url(#radialGradient11658)" fill-opacity="1" stroke="none" opacity="0.345" inkscape:connector-curvature="0"/>
   <path d="m 173.64946,15.745423 a 0.881115,3.9298662 51.196834 1 1 -5.83267,3.537595 0.881115,3.9298662 51.196834 1 1 5.83267,-3.537595 z" fill="url(#radialGradient11660)" fill-opacity="1" stroke="none" opacity="0.345" inkscape:connector-curvature="0"/>
   <path d="m 180.72072,22.910408 c 0,0 -0.38985,1.083573 -0.12995,1.494532 0.2599,0.41096 0.97462,0.916757 1.13706,0.727083 0.16244,-0.189673 0.19493,-0.537408 0.12995,-0.97998 -0.065,-0.442573 -0.23124,-1.214424 -0.5198,-1.296105 -0.36597,-0.103593 -0.61726,0.05447 -0.61726,0.05447 z" fill="#c6c6b2" fill-opacity="0.105" stroke="none" inkscape:connector-curvature="0"/>
   <path stroke-opacity="1" d="m 180.71896,23.031274 c 0,0 -0.34179,0.7468 -0.11393,1.030033 0.22786,0.283233 0.85448,0.631828 0.99689,0.501105 0.14241,-0.130721 0.1709,-0.370381 0.11393,-0.675402 -0.057,-0.305022 -0.22774,-0.786634 -0.45572,-0.893276 -0.28373,-0.132719 -0.54117,0.03754 -0.54117,0.03754 z" stroke-width="0.074" fill="none" stroke="url(#linearGradient11662)" stroke-dasharray="none" opacity="0.184" stroke-miterlimit="4" inkscape:connector-curvature="0"/>
   <path d="m 176.41525,53.257893 a 1.7283975,1.4076935 0 1 1 -3.45679,0 1.7283975,1.4076935 0 1 1 3.45679,0 z" fill="url(#linearGradient11664)" fill-opacity="1" stroke="none" inkscape:connector-curvature="0"/>
   <path d="m 142.32097,56.908946 a 6.840929,13.28197 43.993458 1 1 -9.75997,-9.588884 6.840929,13.28197 43.993458 0 1 9.75997,9.588884 z" fill="url(#radialGradient11666)" fill-opacity="1" stroke="none" opacity="0.206" inkscape:connector-curvature="0"/>
   <path d="m 151.95515,47.610001 a 4.7768967,9.3067942 48.282942 0 1 -7.13114,-6.42134 4.7768967,9.3067942 48.282942 1 1 7.13114,6.42134 z" fill="url(#radialGradient3963)" fill-opacity="1" stroke="none" opacity="0.142" inkscape:connector-curvature="0"/>
  </g>
  <rect x="-96" rx="25" y="958.36" clip-path="url(#clipPath3009)" fill="#ffffff" fill-opacity="1" height="92" opacity="0.15" width="92" transform="matrix(1 0 0 1 98 0)"/>
 </g>
</svg>
