<svg height="96" width="96" xmlns="http://www.w3.org/2000/svg" xmlns:xlink="http://www.w3.org/1999/xlink" xmlns:sodipodi="http://sodipodi.sourceforge.net/DTD/sodipodi-0.dtd" xmlns:inkscape="http://www.inkscape.org/namespaces/inkscape">
 <defs>
  <clipPath clipPathUnits="userSpaceOnUse" id="clipPath3009">
   <path d="m-2 956.36h-96v33.562l96 25.687v-59.25z"/>
  </clipPath>
  <linearGradient x2="0" y1="6" y2="90.22" gradientUnits="userSpaceOnUse" id="linearGradient3230" gradientTransform="matrix(1.1429 0 0 1.1429 -6.857 949.51)">
   <stop stop-color="#419cff"/>
   <stop stop-color="#0045a8" offset="1"/>
  </linearGradient>
  <clipPath clipPathUnits="userSpaceOnUse" id="clipPath3018">
   <rect x="2" rx="25" y="958.36" height="92" width="92"/>
  </clipPath>
  <radialGradient cy="44.768" r="18.991" gradientUnits="userSpaceOnUse" id="radialGradient3278" cx="26.466" gradientTransform="matrix(1 0 0 0.43617 0 25.24)">
   <stop/>
   <stop stop-opacity="0" offset="1"/>
  </radialGradient>
  <linearGradient x1="25.4" x2="22.04" y1="27.961" y2="11.961" gradientUnits="userSpaceOnUse" id="linearGradient3280">
   <stop stop-color="#e4aa70"/>
   <stop stop-color="#eec8a2" offset="1"/>
  </linearGradient>
  <radialGradient cy="39.571" r="15.311" gradientUnits="userSpaceOnUse" id="radialGradient3282" cx="30.13" gradientTransform="matrix(0.0865 0.69354 -1.0766 0.13428 65.56 8.786)">
   <stop stop-color="#c3ff82"/>
   <stop stop-color="#4a8f00" offset="1"/>
  </radialGradient>
  <radialGradient cy="6.602" r="10.198" gradientUnits="userSpaceOnUse" id="radialGradient3284" cx="24.794" gradientTransform="matrix(0 0.39212 -0.80718 0 31.754 -5.745)">
   <stop stop-color="#707070"/>
   <stop stop-color="#252525" offset="1"/>
  </radialGradient>
  <linearGradient x1="21.955" x2="31.24" y1="25.369" y2="17.298" gradientUnits="userSpaceOnUse" id="linearGradient3286">
   <stop stop-color="#f5e1cd" stop-opacity="0"/>
   <stop stop-color="#f5e1cd" offset="0.344"/>
   <stop stop-color="#f5e1cd" offset="0.565"/>
   <stop stop-color="#f5e1cd" stop-opacity="0" offset="1"/>
  </linearGradient>
  <linearGradient x1="20.5" x2="16.929" y1="27.07" y2="22.929" gradientUnits="userSpaceOnUse" id="linearGradient3288">
   <stop stop-color="#6f531e"/>
   <stop stop-color="#d1a554" offset="1"/>
  </linearGradient>
  <radialGradient cy="39.571" r="15.311" gradientUnits="userSpaceOnUse" id="radialGradient3294" cx="30.13" gradientTransform="matrix(0.0865 0.69354 -1.0766 0.13428 65.56 8.786)">
   <stop stop-color="#91d3ff"/>
   <stop stop-color="#0596ff" offset="1"/>
  </radialGradient>
  <radialGradient cy="9.01" r="9.175" gradientUnits="userSpaceOnUse" id="radialGradient3298" cx="13.244" gradientTransform="matrix(-0.93394 0.29843 -0.15699 -0.49132 28.358 9.04)">
   <stop stop-color="#b29e71"/>
   <stop stop-color="#73561f" offset="1"/>
  </radialGradient>
  <path d="m45.457 44.768c0 4.5747-8.5025 8.2833-18.991 8.2833s-18.991-3.7085-18.991-8.2833c0-4.5747 8.5025-8.2833 18.991-8.2833s18.991 3.7085 18.991 8.2833z" fill="url(#radialGradient3278)" id="SVGCleanerId_0"/>
  <path d="m21.07 30.548 9.7985-0.20203-6.768 12.829-3.2325-1.7173 0.20203-10.91z" fill="#fff" id="SVGCleanerId_1"/>
  <path d="m19.351 8.1265c-5.2679 0-2.5089 18.21 0.8125 18.062h1.9252l-0.15625 4.5938c0.57703 0.09491 1.7552 0.15625 2.3561 0.15625 2.4299 0 4.7092-0.80676 6.5938-2.1875l0.78125-4.0625-0.1875-4.5312 2.5312-2.75s0.87415-2.9094 0-3.8438c-0.34583-0.36965-1.5312-0.09375-1.5312-0.09375l-1.5 1.4062s0.29597-2.7416-0.09375-4.0312c-0.312-1.0272-1.759-2.3772-2.831-2.4145l-8.7013-0.30304z" stroke-width="0.919" fill="url(#linearGradient3280)" stroke="#783c00" id="SVGCleanerId_2" stroke-linejoin="round"/>
  <path d="m15.326 39.03c-0.21317 3.102 14.073 8.4932 28.669 4.8918 1.4647-0.36137 1.1751-7.3804-0.45308-10.303-2.4843-4.4595-11.882-8.7388-11.882-8.7388-3.836 5.7105-5.2176 11.83-7.6133 17.781l-2.2857-0.57143c0.11945-5.0755 0.40647-9.646 0.28572-14.721 0 0-3.6362 1.0755-4.9062 2.8398-1.8662 2.5926-1.5639 5.164-1.8153 8.8225z" stroke-width="0.919" id="SVGCleanerId_3"/>
  <path d="m21.979 26.103c3.3173 0.02706 6.9515-2.5679 10.001-6.566" stroke-width="0.919" fill="none" stroke="#86501a" id="SVGCleanerId_4"/>
  <path d="m22.455 24.869c2.8939 0.02706 6.2403-2.9719 8.2833-7.0711" stroke-width="0.919" fill="none" stroke="url(#linearGradient3286)" id="SVGCleanerId_5" stroke-linecap="round"/>
 </defs>
 <g transform="matrix(1 0 0 1 0 -956.36)">
  <rect rx="6.857" y="956.36" clip-path="url(#clipPath3018)" fill="url(#linearGradient3230)" height="96" width="96"/>
  <g stroke-width="0.697" transform="matrix(1.43543 0 0 1.43543 13.549 966.2)">
   <g stroke-width="0.919" transform="matrix(0.75782 0 0 0.75782 12.875 10.611)">
    <use xlink:href="#SVGCleanerId_0" transform="matrix(0.89275 0.12636 -0.13377 0.75817 11.721 4.01)"/>
    <use xlink:href="#SVGCleanerId_1"/>
    <use xlink:href="#SVGCleanerId_2"/>
    <use xlink:href="#SVGCleanerId_3" fill="url(#radialGradient3282)" stroke="#3d7800"/>
    <use xlink:href="#SVGCleanerId_4"/>
    <path d="m18.646 8.1223c-1.9622-0.51649-1.9193-1.0102-1.9193-1.0102 2.25-1.9378 9.8689-9.0432 18.284-0.30304 0 0 1.057 2.3702 1.1112 3.6365 0.06178 1.445-1.8183 6.768-1.8183 6.768 0.07108-5.1817-1.1746-4.2899-3.2325-2.0203-0.757-8.0707-0.93-6.4074-12.426-7.0707z" fill="url(#radialGradient3284)" stroke="#000" stroke-linejoin="round"/>
    <use xlink:href="#SVGCleanerId_5"/>
   </g>
   <g transform="matrix(1 0 0 1 -0.071 -0.437)">
    <path d="m23.571 22.929c0 2.0119-1.3751 3.6429-3.0714 3.6429s-3.0714-1.631-3.0714-3.6429 1.3751-3.6429 3.0714-3.6429 3.0714 1.631 3.0714 3.6429z" fill="url(#linearGradient3288)" stroke="#503b14" stroke-linecap="round" stroke-linejoin="round"/>
    <g stroke-width="0.919" transform="matrix(-0.75782 0 0 0.75782 35.24 5.05)">
     <use xlink:href="#SVGCleanerId_0" transform="matrix(0.8942 0.12636 -0.13398 0.75817 11.72 4.01)"/>
     <use xlink:href="#SVGCleanerId_1"/>
     <use xlink:href="#SVGCleanerId_2"/>
     <use xlink:href="#SVGCleanerId_3" fill="url(#radialGradient3294)" stroke="#004578"/>
     <use xlink:href="#SVGCleanerId_4"/>
     <use xlink:href="#SVGCleanerId_5"/>
    </g>
    <path d="m23.395 10.995c0.514-5.6262-12.095-4.7495-14.698-0.974-0.44308 0.64256-5.4242 9.0588 0.12694 14.53 1.4842 1.4629 6.7376 1.2954 4.7184 0.2424-0.34574-0.18029-1.3949-4.995-4.3245-6.7866-0.05387-3.9268 0.89016-3.2509 2.4496-1.531 0.44952-6.7186 7.6854-4.102 11.727-5.4812z" fill="url(#radialGradient3298)" stroke="#654300" stroke-linejoin="round"/>
   </g>
  </g>
  <rect x="-96" rx="25" y="958.36" clip-path="url(#clipPath3009)" fill="#fff" height="92" opacity="0.15" width="92" transform="matrix(1 0 0 1 98 0)"/>
 </g>
</svg>
