<svg height="96" width="96" xmlns="http://www.w3.org/2000/svg" xmlns:sodipodi="http://sodipodi.sourceforge.net/DTD/sodipodi-0.dtd" xmlns:inkscape="http://www.inkscape.org/namespaces/inkscape">
 <rect x="8" rx="10.769" y="8" fill="#9f5" fill-opacity="1" stroke="none" height="80" width="80"/>
 <path d="m 55.405884,22.570745 c -2.02994,0.06843 -3.806137,0.829358 -4.633311,2.151133 -1.047798,1.674584 -0.250467,3.743538 1.775105,5.174861 l -3.490232,3.730437 c -1.278175,-0.776659 -2.667717,-1.436855 -4.181728,-1.940555 -3.20854,-1.067815 -6.47167,-1.306563 -9.447285,-0.842897 l -1.29346,-2.42169 c 0.793691,-0.225595 1.453378,-0.64732 1.820234,-1.233555 0.874851,-1.398058 -0.196763,-3.211014 -2.391846,-4.061626 -2.195084,-0.850612 -4.691106,-0.420277 -5.565957,0.977774 -0.874851,1.398051 0.196763,3.226082 2.391847,4.076694 0.726609,0.28157 1.489554,0.426012 2.21133,0.436254 l 1.338808,2.512166 c -4.627052,1.129686 -8.373647,4.038552 -9.853447,8.213511 -2.552856,7.205092 2.610068,15.456744 11.537784,18.427991 6.221203,2.070338 12.627436,1.031711 16.803341,-2.226397 l 3.685598,3.505009 c -0.443707,0.45579 -0.834453,0.955137 -1.12823,1.534392 -1.932184,3.810286 0.431879,8.783449 5.280115,11.101778 4.848256,2.318184 10.357874,1.11753 12.290422,-2.692756 1.932548,-3.809776 -0.430911,-8.783449 -5.279386,-11.101778 -3.553559,-1.698896 -7.457233,-1.50091 -10.048521,0.225646 L 53.511186,54.59706 c 1.288875,-1.25692 2.291689,-2.756665 2.903335,-4.482856 1.976512,-5.578476 -0.680876,-11.794001 -6.122574,-15.689669 l 3.550211,-3.775856 c 0.175305,0.08104 0.355326,0.153483 0.54155,0.225646 3.320634,1.286764 7.085718,0.625679 8.409313,-1.489263 1.323377,-2.114957 -0.289722,-4.880939 -3.610334,-6.167703 -1.245202,-0.482533 -2.557879,-0.687915 -3.775857,-0.646854 z" fill="white" inkscape:connector-curvature="0"/>
 <path d="m 38.813847,34.977851 c -0.979421,0.02056 -1.946664,0.08064 -2.918383,0.180519 a 0.86302303,0.86302303 0 0 0 -0.691988,0.481382 l -1.173611,2.455053 a 0.86302303,0.86302303 0 0 0 1.007919,1.203457 c 0.756927,-0.207688 1.553278,-0.340521 2.376828,-0.406167 0.839435,-0.06692 1.716707,-0.06968 2.662624,0.01502 1.199317,0.107445 2.014828,0.347799 2.331722,0.541556 a 0.86302303,0.86302303 0 0 0 0.01502,0 c 0.02421,0.01444 0.01155,0.01733 0.03009,0.03009 l -2.045877,-0.225648 c -2.668979,-0.300951 -4.720969,-0.214938 -6.333072,0.345994 -1.603438,0.562303 -2.856525,1.696007 -3.670543,3.309506 -0.716779,1.420705 -0.853637,2.925171 -0.210605,4.242186 a 0.86302303,0.86302303 0 0 0 0.01504,0.01502 c 0.698101,1.38696 2.093293,2.308375 3.956388,2.737865 1.408141,0.32462 2.778253,0.374279 4.0466,0.09026 0.579778,-0.134662 1.14184,-0.364325 1.699859,-0.631815 l -0.120346,0.406167 a 0.86302303,0.86302303 0 0 0 0.631815,1.083111 l 6.679186,1.504321 a 0.86302303,0.86302303 0 0 0 1.053025,-0.707055 l 1.574122,-9.473613 c 0.386882,-2.330229 -0.186372,-4.244737 -1.669821,-5.38571 -1.382339,-1.080416 -3.453873,-1.569067 -6.212726,-1.745013 -1.00195,-0.06386 -2.02123,-0.08616 -3.023661,-0.06017 -0.005,1.3e-4 -0.01006,-1.3e-4 -0.01504,0 z m -0.37608,8.333699 c 0.356859,-0.0143 0.796496,0.01998 1.293716,0.09026 l 1.714926,0.240691 c -0.235627,0.497558 -0.579007,0.929165 -1.158303,1.26363 -0.0038,0.0024 -0.01126,-0.0024 -0.01504,0 -0.762077,0.42729 -1.51005,0.562737 -2.346741,0.406167 -0.671529,-0.125675 -1.009797,-0.347424 -1.143284,-0.511469 -0.118483,-0.164296 -0.153417,-0.224676 0,-0.601729 0.153927,-0.378333 0.35708,-0.586565 0.782247,-0.737093 0.0039,-0.0014 0.01107,0.0014 0.01504,0 0.233605,-0.07819 0.511373,-0.136549 0.857439,-0.150432 z" fill="#ccc" inkscape:connector-curvature="0"/>
 <path d="m 39.848691,42.551325 c -1.070945,-0.151401 -1.917408,-0.116535 -2.558606,0.101723 -0.631547,0.219459 -1.065558,0.620053 -1.306345,1.211864 -0.226199,0.555941 -0.196442,1.03899 0.09784,1.447045 0.314114,0.410516 0.871358,0.693716 1.677714,0.844644 1.027271,0.192257 2.017347,0.02614 2.94628,-0.498903 0.924421,-0.529977 1.51998,-1.27126 1.784787,-2.201722 l 0.145578,-0.510979 c 0,0 -2.787018,-0.39405 -2.787018,-0.39405 m 9.027292,-0.50822 -1.573335,9.475672 -6.67941,-1.502074 0.721449,-2.534731 c -1.088487,0.845881 -2.20689,1.406065 -3.335556,1.668251 -1.118258,0.250408 -2.344898,0.220485 -3.653717,-0.08123 -1.701443,-0.392238 -2.820282,-1.167026 -3.383815,-2.286739 -0.519808,-1.064612 -0.440119,-2.227271 0.194419,-3.484992 0.732185,-1.451194 1.785151,-2.392938 3.190634,-2.885792 1.4156,-0.49252 3.367,-0.598901 5.966368,-0.305802 0,0 3.024165,0.34101 3.024165,0.34101 l 0.08839,-0.310526 c 0.175457,-0.616522 -0.02141,-1.087758 -0.576577,-1.419021 -0.539162,-0.329683 -1.448137,-0.549157 -2.70957,-0.662169 -0.995681,-0.08918 -1.931893,-0.09741 -2.816862,-0.02686 -0.873541,0.06963 -1.713453,0.21587 -2.525705,0.438743 l 1.171175,-2.446002 c 0.956302,-0.09829 1.912458,-0.157682 2.871235,-0.177372 0.978429,-0.02585 1.958097,-0.0081 2.942058,0.05463 2.67667,0.170705 4.616643,0.68239 5.749167,1.567584 1.21856,0.937086 1.69147,2.433992 1.335532,4.577628" fill="#333" inkscape:connector-curvature="0"/>
</svg>
