<svg height="96" width="96" xmlns="http://www.w3.org/2000/svg" xmlns:sodipodi="http://sodipodi.sourceforge.net/DTD/sodipodi-0.dtd" xmlns:inkscape="http://www.inkscape.org/namespaces/inkscape">
 <g inkscape:label="Capa 1" inkscape:groupmode="layer" transform="matrix(1 0 0 1 0 -956.36)">
  <rect x="8" rx="10.769" y="964.36" fill="#1589ea" fill-opacity="1" stroke="none" height="80" width="80"/>
  <path d="m 38.724766,976.06537 c -0.307566,0.0392 -0.612132,0.13722 -0.8983,0.30188 -1.144712,0.66084 -1.534063,2.11428 -0.873155,3.25888 l 1.250444,2.17047 c -3.876541,2.54773 -6.436956,6.91504 -6.48587,11.90812 l -0.0078,0 0,0.50663 c -0.923678,-0.80546 -2.122031,-1.30795 -3.449536,-1.30795 -2.914343,0 -5.260548,2.34625 -5.260548,5.26055 l 0,12.00525 c 0,2.9143 2.346205,5.2606 5.260548,5.2606 1.327505,0 2.525858,-0.5025 3.449536,-1.308 l 0,3.4135 c 0,2.3811 1.916413,4.3014 4.297568,4.3014 l 0.995323,0 c -0.01176,0.135 -0.03962,0.2668 -0.03962,0.406 l 0,5.174 c 0,2.9145 2.346186,5.2608 5.260549,5.2608 2.914326,0 5.26055,-2.3463 5.26055,-5.2608 l 0,-5.174 c 0,-0.1394 -0.02903,-0.2699 -0.03962,-0.406 l 1.171404,0 c -0.01176,0.135 -0.03962,0.2668 -0.03962,0.406 l 0,5.174 c 0,2.9145 2.346185,5.2608 5.26055,5.2608 2.914344,0 5.260549,-2.3463 5.260549,-5.2608 l 0,-5.174 c 0,-0.1394 -0.02903,-0.2699 -0.03962,-0.406 l 0.995323,0 c 2.381155,0 4.297568,-1.9203 4.297568,-4.3014 l 0,-3.3669 c 0.916303,0.777 2.087632,1.2614 3.388442,1.2614 2.914343,0 5.260568,-2.3463 5.260568,-5.2606 l 0,-12.00503 c 0,-2.91452 -2.346225,-5.26077 -5.260568,-5.26077 -1.30081,0 -2.472139,0.48441 -3.388442,1.26134 l 0,-0.46002 -0.0078,0 c -0.04883,-4.99308 -2.609329,-9.36039 -6.48587,-11.90812 l 1.250463,-2.17047 c 0.660889,-1.1446 0.271557,-2.59804 -0.873174,-3.25888 -0.286168,-0.16553 -0.590734,-0.26355 -0.898319,-0.30188 -0.922738,-0.11544 -1.865087,0.31647 -2.360777,1.17486 l -1.523551,2.63769 c -1.12671,-0.2812 -2.301705,-0.44564 -3.517828,-0.44564 l -3.808859,0 c -1.216121,0 -2.391118,0.16553 -3.517825,0.44564 l -1.523552,-2.63769 c -0.495651,-0.85839 -1.43802,-1.29052 -2.360777,-1.17486 z m 0.08982,1.21799 c 0.393686,-0.0501 0.794842,0.13722 1.006111,0.50314 l 1.440904,2.49741 c -0.64926,0.23154 -1.277315,0.50118 -1.879288,0.81919 l -1.325932,-2.29964 c -0.281718,-0.4879 -0.114155,-1.10887 0.373718,-1.3905 0.1218,-0.0697 0.253259,-0.11326 0.384487,-0.12851 z m 18.433497,0 c 0.131209,0.0218 0.262496,0.0588 0.384485,0.12851 0.487925,0.28163 0.655417,0.9026 0.373701,1.3905 l -1.325914,2.29986 c -0.601973,-0.31822 -1.230029,-0.58787 -1.879286,-0.81941 l 1.440903,-2.49741 c 0.211276,-0.36592 0.612426,-0.55193 1.006111,-0.50314 z m -10.905586,3.77683 3.377693,0 c 6.666641,0 12.109236,5.0471 12.730957,11.54503 l -28.839627,0 c 0.621726,-6.49793 6.06432,-11.54503 12.730981,-11.54503 z m -4.534724,4.44463 c -0.804216,0 -1.45167,0.64755 -1.45167,1.45171 0,0.80415 0.647454,1.4517 1.45167,1.4517 0.804237,0 1.451691,-0.64755 1.451691,-1.4517 0,-0.80416 -0.647454,-1.45171 -1.451691,-1.45171 z m 12.418349,0 c -0.804216,0 -1.45167,0.64755 -1.45167,1.45171 0,0.80415 0.647454,1.4517 1.45167,1.4517 0.804258,0 1.451692,-0.64755 1.451692,-1.4517 0,-0.80416 -0.647434,-1.45171 -1.451692,-1.45171 z m -20.625388,7.323 0,0.8769 -0.04315,0 c 0.0059,-0.29448 0.02047,-0.58678 0.04315,-0.8769 z m 28.861199,0 c 0.02276,0.29012 0.03766,0.58242 0.04295,0.8769 l -0.04295,0 0,-0.8769 z m -28.861199,1.61702 28.861199,0 0,3.44597 0,3.05439 c 0.0078,-0.022 0.01176,-0.024 0.01764,-0.035 l 0,9.2599 c 0,0.1089 0.0257,0.2113 0.03237,0.3195 l 0,5.9077 c 0,2.1125 -1.70336,3.8123 -3.816077,3.8123 l -21.329679,0 c -2.112737,0 -3.816077,-1.6998 -3.816077,-3.8123 l 0,-15.5553 c 0.0196,0.033 0.03139,0.07 0.0504,0.1045 l 0,-0.6828 0,-0.37005 0,-2.00146 0,-3.44598 z m -5.339607,0.2984 c 1.896839,0 3.424392,1.5275 3.424392,3.42441 l 0,11.99785 c 0,1.8969 -1.527553,3.4244 -3.424392,3.4244 -1.896821,0 -3.424393,-1.5275 -3.424393,-3.4244 l 0,-11.99785 c 0,-1.89691 1.527572,-3.42441 3.424393,-3.42441 z m 39.479322,0 c 1.896819,0 3.424411,1.5275 3.424411,3.42441 l 0,11.99785 c 0,1.8969 -1.527592,3.4244 -3.424411,3.4244 -1.777653,0 -3.21287,-1.3458 -3.388442,-3.0759 l 0,-10.2514 0,-2.43996 c 0.173965,-1.73159 1.609573,-3.0794 3.388442,-3.0794 z m -28.767765,27.09346 6.503835,0 c 0.0078,0.089 0.02864,0.1742 0.02864,0.2657 l 0,5.4546 c 0,1.8172 -1.463578,3.2807 -3.28065,3.2807 -1.817075,0 -3.280652,-1.4635 -3.280652,-3.2807 l 0,-5.4546 c 0,-0.089 0.02156,-0.1764 0.02864,-0.2657 z m 11.613465,0 6.503835,0 c 0.0078,0.089 0.02864,0.1742 0.02864,0.2657 l 0,5.4546 c 0,1.8172 -1.463595,3.2807 -3.28067,3.2807 -1.817055,0 -3.28065,-1.4635 -3.28065,-3.2807 l 0,-5.4546 c 0,-0.089 0.02156,-0.1764 0.02864,-0.2657 z" fill="white" fill-opacity="0.498" fill-rule="evenodd" stroke="none" inkscape:connector-curvature="0"/>
 </g>
</svg>
