<svg height="96" width="96" xmlns="http://www.w3.org/2000/svg" xmlns:sodipodi="http://sodipodi.sourceforge.net/DTD/sodipodi-0.dtd" xmlns:inkscape="http://www.inkscape.org/namespaces/inkscape">
 <rect x="8" rx="10.769" y="8" fill="#b380ff" fill-opacity="1" stroke="none" height="80" width="80"/>
 <g transform="matrix(1 0 0 1 112.68 -8.599)">
  <path d="m -64.92848,81.903875 a 25.119661,25.119661 0 0 0 0,-50.238377 25.119661,25.119661 0 1 0 0,50.238377 z" fill="#7f2aff" color="black" inkscape:connector-curvature="0"/>
  <path d="m -64.729935,31.605935 c 2.531159,0.03498 5.266251,0.39274 8.198186,1.065522 -16.700429,-3.300377 -35.11874,8.016282 -31.075996,36.61066 -2.035648,-0.30538 -2.426876,-1.243077 -2.426876,-1.243077 -3.027992,-16.654102 4.380176,-36.718442 25.30497,-36.432916 z m 2.722896,1.27267 c 3.941108,0.06902 11.483436,2.752489 11.483436,2.752489 -12.163215,-3.267854 -19.030963,-1.006337 -19.030963,-1.006337 0,0 2.75627,-1.830013 7.547149,-1.746152 z m -3.936287,1.716559 c 3.420071,0.01607 7.438896,0.782833 12.104597,2.486156 -17.099409,-4.376678 -35.53852,2.136906 -22.611382,43.358337 -2.035649,-0.305286 -4.676196,-1.83493 -4.676196,-1.83493 -4.810828,-16.006468 -5.717514,-44.108079 15.182981,-44.009752 z m -18.675473,14.384077 c 0,0 -3.111949,14.932437 3.817916,35.071467 -2.670896,-0.360878 -4.617011,-1.864522 -4.617011,-1.864522 -1.660304,-16.025377 -2.954531,-21.802077 0.799104,-33.20704 z" fill="white" inkscape:connector-curvature="0"/>
  <path d="m -75.961881,29.147765 c 5.971084,5.366374 18.231112,7.359572 22.31262,11.063656 l -0.216924,1.859322 c 0,0 10.422641,4.633367 15.184872,10.226933 0,0 -2.939498,2.977222 -3.997646,8.646045 0,0 -12.045033,-8.012689 -21.568551,-1.890333 0,0 -13.120955,-6.552441 -4.958318,-15.773887 0,0 2.544206,1.347644 3.904709,1.952259 -6.726971,4.912937 1.518487,10.815003 1.518487,10.815003 0,0 6.670339,-6.632426 19.368489,0.774796 0,0 0.942528,-3.007476 2.076303,-3.687727 -6.348981,-6.122262 -15.061019,-9.172851 -15.061019,-9.172851 l 0.15494,-2.69614 c -8.843266,-4.383862 -12.080014,-4.358146 -15.556434,-7.00361 0.366627,4.63592 4.360415,5.196004 5.856968,5.082267 0,0 -9.698426,3.409576 -9.017891,-10.195733 z m 13.356372,12.054487 c 0,0 2.556119,0.836724 3.842687,0.836724 0,0 0.05616,1.872747 -1.766384,2.355116 -1.393782,-0.428762 -2.076303,-3.19184 -2.076303,-3.19184 z" fill="white" inkscape:connector-curvature="0"/>
 </g>
</svg>
