<?xml version="1.0" encoding="UTF-8" standalone="no"?>
<!-- Created with Inkscape (http://www.inkscape.org/) -->

<svg
   xmlns:dc="http://purl.org/dc/elements/1.1/"
   xmlns:cc="http://creativecommons.org/ns#"
   xmlns:rdf="http://www.w3.org/1999/02/22-rdf-syntax-ns#"
   xmlns:svg="http://www.w3.org/2000/svg"
   xmlns="http://www.w3.org/2000/svg"
   xmlns:xlink="http://www.w3.org/1999/xlink"
   xmlns:sodipodi="http://sodipodi.sourceforge.net/DTD/sodipodi-0.dtd"
   xmlns:inkscape="http://www.inkscape.org/namespaces/inkscape"
   id="svg11037"
   height="96"
   width="96"
   version="1.1"
   inkscape:version="0.48.5 r10040"
   sodipodi:docname="application-default-icon.svg">
  <sodipodi:namedview
     pagecolor="#ffffff"
     bordercolor="#666666"
     borderopacity="1"
     objecttolerance="10"
     gridtolerance="10"
     guidetolerance="10"
     inkscape:pageopacity="0"
     inkscape:pageshadow="2"
     inkscape:window-width="640"
     inkscape:window-height="480"
     id="namedview2355" />
  <defs
     id="defs11039">
    <linearGradient
       id="linearGradient11642"
       y2="1046.1"
       gradientUnits="userSpaceOnUse"
       y1="962.62"
       gradientTransform="matrix(1.15 0 0 1.15 -7.1999 -150.65)"
       x2="48"
       x1="48">
      <stop
         id="stop3189-7"
         style="stop-color:#787878"
         offset="0" />
      <stop
         id="stop3191-85"
         style="stop-color:#b4b4b4"
         offset="1" />
    </linearGradient>
    <linearGradient
       id="linearGradient7290-6"
       x1="20.759"
       gradientUnits="userSpaceOnUse"
       y1="1"
       gradientTransform="matrix(1.2791,0,0,1.2791,17.302,974.94)"
       x2="20.759"
       y2="45.017">
      <stop
         id="stop3311-8-4"
         style="stop-color:#f0f0f0"
         offset="0" />
      <stop
         id="stop3313-3-1"
         style="stop-color:#aaa"
         offset="1" />
    </linearGradient>
    <clipPath
       id="clipPath4403-0">
      <path
         id="path4405-4"
         d="m30.916 135.97c-0.93727 0.54113-1.2283 1.7475-0.67792 2.7008l1.9375 3.3558c-1.4181 1.4141-2.6223 3.012-3.5955 4.71l-3.7836-0.99095c-0.53163-0.14245-1.0379-0.11751-1.4762 0.13061-0.43816 0.24835-0.79654 0.66758-0.9366 1.1903l-1.9788 7.3851c-0.2801 1.0454 0.36595 2.0654 1.4291 2.3503l3.7722 1.0336c-0.0062 1.9571 0.23771 3.943 0.75876 5.8767l-3.3558 1.9375c-0.95328 0.55037-1.3044 1.7407-0.7633 2.6779l3.8125 6.6034c0.54113 0.93727 1.7475 1.2283 2.7008 0.67793l3.3558-1.9375c1.4141 1.4181 3.012 2.6223 4.71 3.5954l-0.99094 3.7836c-0.28489 1.0632 0.27543 2.1328 1.3209 2.4128l7.3851 1.9788c1.0454 0.28011 2.0654-0.36588 2.3503-1.4291l1.0336-3.7722c1.9571 0.006 3.943-0.23771 5.8767-0.75876l1.9375 3.3558c0.55038 0.95328 1.7407 1.3044 2.6779 0.7633l6.6034-3.8125c0.93726-0.54113 1.2283-1.7475 0.67792-2.7008l-1.9375-3.3558c1.4181-1.4141 2.6223-3.012 3.5955-4.71l3.7836 0.99094c1.0632 0.2849 2.1327-0.27549 2.4128-1.3209l1.9788-7.3851c0.2801-1.0454-0.36595-2.0654-1.4291-2.3503l-3.7722-1.0336c0.0062-1.9571-0.2377-3.943-0.75875-5.8767l3.3558-1.9375c0.95327-0.55037 1.3044-1.7407 0.7633-2.6779l-3.8125-6.6034c-0.54113-0.93726-1.7475-1.2283-2.7008-0.67792l-3.3558 1.9375c-1.4141-1.4181-3.012-2.6223-4.71-3.5955l0.99094-3.7836c0.28489-1.0632-0.27542-2.1328-1.3209-2.4128l-7.3851-1.9788c-1.0454-0.28011-2.0654 0.36588-2.3503 1.4291l-1.0336 3.7722c-1.9571-0.006-3.943 0.2377-5.8767 0.75875l-1.9375-3.3558c-0.55038-0.95328-1.7407-1.3044-2.6779-0.7633l-6.6034 3.8125zm10.052 9.7851c6.6961-3.866 15.258-1.5718 19.124 5.1244 3.866 6.6961 1.5717 15.258-5.1244 19.124s-15.258 1.5717-19.124-5.1244-1.5717-15.258 5.1244-19.124z"
         style="display:block;fill:url(#linearGradient4407)" />
    </clipPath>
    <linearGradient
       id="linearGradient7223-0"
       x1="48.234"
       xlink:href="#linearGradient4071-3-8"
       gradientUnits="userSpaceOnUse"
       x2="126.14"
       y1="48.047"
       y2="66.233" />
    <linearGradient
       id="linearGradient4071-3-8">
      <stop
         id="stop4073-8-8"
         offset="0" />
      <stop
         id="stop4075-4-8"
         style="stop-opacity:0"
         offset="1" />
    </linearGradient>
    <linearGradient
       id="linearGradient7225-4"
       x1="48.055"
       xlink:href="#linearGradient4071-3-8"
       gradientUnits="userSpaceOnUse"
       x2="126.67"
       y1="48.032"
       y2="62.839" />
    <linearGradient
       id="linearGradient7227-8"
       x1="47.997"
       xlink:href="#linearGradient4071-3-8"
       gradientUnits="userSpaceOnUse"
       x2="127.05"
       y1="48.029"
       y2="60.29" />
    <linearGradient
       id="linearGradient7229-0"
       x1="47.998"
       xlink:href="#linearGradient4071-3-8"
       gradientUnits="userSpaceOnUse"
       x2="127.42"
       y1="48.029"
       y2="57.665" />
    <linearGradient
       id="linearGradient7231-8"
       x1="48.234"
       xlink:href="#linearGradient4115-2-6"
       gradientUnits="userSpaceOnUse"
       x2="126.14"
       y1="48.047"
       y2="66.233" />
    <linearGradient
       id="linearGradient4115-2-6">
      <stop
         id="stop4117-3-4"
         style="stop-color:#fff"
         offset="0" />
      <stop
         id="stop4119-6-3"
         style="stop-color:#fff;stop-opacity:0"
         offset="1" />
    </linearGradient>
    <linearGradient
       id="linearGradient7233-6"
       x1="48.055"
       xlink:href="#linearGradient4115-2-6"
       gradientUnits="userSpaceOnUse"
       x2="126.67"
       y1="48.032"
       y2="62.839" />
    <linearGradient
       id="linearGradient7235-2"
       x1="47.997"
       xlink:href="#linearGradient4115-2-6"
       gradientUnits="userSpaceOnUse"
       x2="127.05"
       y1="48.029"
       y2="60.29" />
    <linearGradient
       id="linearGradient7237-4"
       x1="47.998"
       xlink:href="#linearGradient4115-2-6"
       gradientUnits="userSpaceOnUse"
       x2="127.42"
       y1="48.029"
       y2="57.665" />
    <clipPath
       id="clipPath3009"
       clipPathUnits="userSpaceOnUse">
      <path
         id="path3011"
         style="opacity:.15;fill:#fff"
         d="m-2 956.36h-96v33.562l96 25.687v-59.25z" />
    </clipPath>
  </defs>
  <metadata
     id="metadata11042">
    <rdf:RDF>
      <cc:Work
         rdf:about="">
        <dc:format>image/svg+xml</dc:format>
        <dc:type
           rdf:resource="http://purl.org/dc/dcmitype/StillImage" />
        <dc:title />
      </cc:Work>
    </rdf:RDF>
  </metadata>
  <g
     id="layer1"
     transform="translate(0 -956.36)">
    <rect
       id="rect3867"
       style="fill:url(#linearGradient11642)"
       rx="25"
       ry="25"
       height="92"
       width="92"
       y="958.36"
       x="2" />
    <g
       id="g7506"
       transform="translate(1.8487e-7 .00218)">
      <path
         id="rect3267"
         d="m44.188 976.86c-1.0823 0-1.9375 0.89924-1.9375 2v3.875c-1.9351 0.5156-3.7769 1.2973-5.4688 2.2812l-2.781-2.75c-0.38918-0.38918-0.84012-0.62073-1.3438-0.625-0.50363-0.004-1.0236 0.17987-1.4062 0.5625l-5.4062 5.4062c-0.76526 0.76527-0.71577 1.9716 0.0625 2.75l2.75 2.7812c-0.98393 1.6918-1.7656 3.5336-2.2812 5.4688h-3.875c-1.1008 0-2 0.85524-2 1.9375v7.625c0 1.0822 0.89925 1.9375 2 1.9375h3.875c0.51561 1.9351 1.2973 3.7769 2.2812 5.4687l-2.75 2.7813c-0.77835 0.7783-0.82784 1.9847-0.0625 2.75l5.4062 5.4062c0.76526 0.7653 1.9717 0.7159 2.75-0.062l2.7812-2.75c1.6918 0.984 3.5336 1.7657 5.4688 2.2813v3.875c0 1.1007 0.85524 2 1.9375 2h7.625c1.0823 0 1.9375-0.8993 1.9375-2v-3.875c1.9351-0.5156 3.7769-1.2973 5.4688-2.2813l2.7812 2.75c0.77835 0.7784 1.9847 0.8278 2.75 0.062l5.4062-5.4062c0.76526-0.7653 0.71577-1.9717-0.0625-2.75l-2.75-2.7813c0.98393-1.6918 1.7657-3.5336 2.2812-5.4687h3.875c1.1007 0 2-0.8553 2-1.9375v-7.625c0-1.0823-0.89926-1.9375-2-1.9375h-3.875c-0.5156-1.9352-1.2973-3.777-2.2812-5.4688l2.75-2.7812c0.77835-0.77835 0.82786-1.9847 0.0625-2.75l-5.406-5.65c-0.76527-0.76527-1.9717-0.71585-2.75 0.0625l-2.7812 2.75c-1.6918-0.98394-3.5336-1.7656-5.4688-2.2812v-3.875c0-1.1008-0.85525-2-1.9375-2h-7.625zm3.8125 13.5c7.732 0 14 6.268 14 14s-6.268 14-14 14-14-6.268-14-14 6.268-14 14-14z"
         style="display:block;fill:url(#linearGradient7290-6)" />
      <g
         id="g4176"
         clip-path="url(#clipPath4403-0)"
         transform="matrix(.86603 .5 -.5 .86603 85.399 843.65)">
        <g
           id="g4011"
           style="opacity:.9"
           transform="matrix(.14137 .99272 -1.1652 .12045 96.937 104.81)">
          <path
             id="path4009"
             d="m108.9 48a60.896 60.896 0 0 1 -6.5462 27.467l-54.346-27.467z"
             style="opacity:.05;color:#000000;fill:url(#linearGradient7223-0)"
             transform="matrix(.99411 -.10837 .10837 .99411 -5.1582 5.4919)" />
          <path
             id="path4007"
             d="m108.9 48a60.896 60.896 0 0 1 -4.4572 22.869l-56.437-22.869z"
             style="opacity:0.07;color:#000000;fill:url(#linearGradient7225-4)"
             transform="matrix(.99786 -.065374 .065374 .99786 -3.094 3.2416)" />
          <path
             id="path4005"
             d="m108.9 48a60.896 60.896 0 0 1 -3.1299 19.272l-57.77-19.272z"
             style="opacity:.1;color:#000000;fill:url(#linearGradient7227-8)"
             transform="matrix(.99945 -.033121 .033121 .99945 -1.5635 1.6161)" />
          <path
             id="path4003"
             d="m108.9 48a60.896 60.896 0 0 1 -2.075 15.761l-58.815-15.761z"
             style="opacity:.05;color:#000000;fill:url(#linearGradient7229-0)" />
        </g>
        <g
           id="g4027"
           style="opacity:.9;fill:#fff"
           transform="matrix(1.0628 -.13088 -.7401 3.2275 32.525 9.3323)">
          <path
             id="path4029"
             d="m108.9 48a60.896 60.896 0 0 1 -6.5462 27.467l-54.346-27.467z"
             style="opacity:.2;color:#000000;fill:url(#linearGradient7231-8)"
             transform="matrix(.99411 -.10837 .10837 .99411 -5.1582 5.4919)" />
          <path
             id="path4031"
             d="m108.9 48a60.896 60.896 0 0 1 -4.4572 22.869l-56.437-22.869z"
             style="opacity:.4;color:#000000;fill:url(#linearGradient7233-6)"
             transform="matrix(.99786 -.065374 .065374 .99786 -3.094 3.2416)" />
          <path
             id="path4033"
             d="m108.9 48a60.896 60.896 0 0 1 -3.1299 19.272l-57.77-19.272z"
             style="opacity:.6;color:#000000;fill:url(#linearGradient7235-2)"
             transform="matrix(.99945 -.033121 .033121 .99945 -1.5635 1.6161)" />
          <path
             id="path4035"
             d="m108.9 48a60.896 60.896 0 0 1 -2.075 15.761l-58.815-15.761z"
             style="opacity:.8;color:#000000;fill:url(#linearGradient7237-4)" />
        </g>
        <g
           id="g4079"
           style="opacity:.5"
           transform="matrix(-.61679 .78713 -.78713 -.61679 115 150.01)">
          <path
             id="path4081"
             d="m108.9 48a60.896 60.896 0 0 1 -6.5462 27.467l-54.346-27.467z"
             style="opacity:.05;color:#000000;fill:url(#linearGradient7223-0)"
             transform="matrix(.99411 -.10837 .10837 .99411 -5.1582 5.4919)" />
          <path
             id="path4083"
             d="m108.9 48a60.896 60.896 0 0 1 -4.4572 22.869l-56.437-22.869z"
             style="opacity:0.07;color:#000000;fill:url(#linearGradient7225-4)"
             transform="matrix(.99786 -.065374 .065374 .99786 -3.094 3.2416)" />
          <path
             id="path4085"
             d="m108.9 48a60.896 60.896 0 0 1 -3.1299 19.272l-57.77-19.272z"
             style="opacity:.1;color:#000000;fill:url(#linearGradient7227-8)"
             transform="matrix(.99945 -.033121 .033121 .99945 -1.5635 1.6161)" />
          <path
             id="path4087"
             d="m108.9 48a60.896 60.896 0 0 1 -2.075 15.761l-58.815-15.761z"
             style="opacity:.1;color:#000000;fill:url(#linearGradient7229-0)" />
        </g>
        <g
           id="g4097"
           style="opacity:.8"
           transform="matrix(-.068172 -1.046 2.7107 .60163 -79.095 179.08)">
          <path
             id="path4099"
             d="m108.9 48a60.896 60.896 0 0 1 -6.5462 27.467l-54.346-27.467z"
             style="opacity:.05;color:#000000;fill:url(#linearGradient7223-0)"
             transform="matrix(.99411 -.10837 .10837 .99411 -5.1582 5.4919)" />
          <path
             id="path4101"
             d="m108.9 48a60.896 60.896 0 0 1 -4.4572 22.869l-56.437-22.869z"
             style="opacity:0.07;color:#000000;fill:url(#linearGradient7225-4)"
             transform="matrix(.99786 -.065374 .065374 .99786 -3.094 3.2416)" />
          <path
             id="path4103"
             d="m108.9 48a60.896 60.896 0 0 1 -3.1299 19.272l-57.77-19.272z"
             style="opacity:.1;color:#000000;fill:url(#linearGradient7227-8)"
             transform="matrix(.99945 -.033121 .033121 .99945 -1.5635 1.6161)" />
          <path
             id="path4105"
             d="m108.9 48a60.896 60.896 0 0 1 -2.075 15.761l-58.815-15.761z"
             style="opacity:.1;color:#000000;fill:url(#linearGradient7229-0)" />
        </g>
        <g
           id="g4147"
           style="opacity:.9;fill:#fff"
           transform="matrix(-1.0628 .13088 .7401 -3.2275 62.997 306.67)">
          <path
             id="path4149"
             d="m108.9 48a60.896 60.896 0 0 1 -6.5462 27.467l-54.346-27.467z"
             style="opacity:.2;color:#000000;fill:url(#linearGradient7231-8)"
             transform="matrix(.99411 -.10837 .10837 .99411 -5.1582 5.4919)" />
          <path
             id="path4151"
             d="m108.9 48a60.896 60.896 0 0 1 -4.4572 22.869l-56.437-22.869z"
             style="opacity:.4;color:#000000;fill:url(#linearGradient7233-6)"
             transform="matrix(.99786 -.065374 .065374 .99786 -3.094 3.2416)" />
          <path
             id="path4153"
             d="m108.9 48a60.896 60.896 0 0 1 -3.1299 19.272l-57.77-19.272z"
             style="opacity:.6;color:#000000;fill:url(#linearGradient7235-2)"
             transform="matrix(.99945 -.033121 .033121 .99945 -1.5635 1.6161)" />
          <path
             id="path4155"
             d="m108.9 48a60.896 60.896 0 0 1 -2.075 15.761l-58.815-15.761z"
             style="opacity:.8;color:#000000;fill:url(#linearGradient7237-4)" />
        </g>
      </g>
    </g>
    <rect
       id="rect3003"
       style="opacity:.15;fill:#fff"
       transform="translate(98 3.8281e-7)"
       clip-path="url(#clipPath3009)"
       rx="25"
       ry="25"
       height="92"
       width="92"
       y="958.36"
       x="-96" />
  </g>
</svg>
