<svg height="96" width="96" xmlns="http://www.w3.org/2000/svg" xmlns:sodipodi="http://sodipodi.sourceforge.net/DTD/sodipodi-0.dtd" xmlns:inkscape="http://www.inkscape.org/namespaces/inkscape">
 <rect x="8" rx="10.769" y="8" fill="#d45500" fill-opacity="1" stroke="none" height="80" width="80"/>
 <path d="m 61.19946,47.999332 c 0,7.0274 -5.8593,13.232 -13.2,13.232 -6.872,0 -13.232,-5.673 -13.232,-13.232 0,-7.6533 6.0159,-13.263 13.232,-13.263 7.3716,0 13.2,5.9221 13.2,13.263 z m -36.484,-8.65 c -0.88368,2.0316 -2.9089,3.4729 -5.2674,3.4729 h -2.1013 c -2.1516,0 -3.8958,1.7442 -3.8958,3.8957 v 2.7685 c 0,2.1512 1.7442,3.8946 3.8949,3.8946 l 2.0891,7.53e-4 c 2.3581,0 4.3964,1.4405 5.2805,3.4733 l 0.7028,1.4916 c 0.81182,2.0622 0.3985,4.5139 -1.2684,6.1804 l -1.4862,1.4862 c -1.5214,1.5223 -1.5214,3.9881 0,5.5104 l 1.9574,1.9574 c 1.5218,1.521 3.9877,1.521 5.5091,0 l 1.4769,-1.4769 c 1.6674,-1.6679 4.1273,-2.0916 6.1897,-1.2798 l 1.5524,0.5594 c 2.032,0.88401 3.4729,2.9085 3.4729,5.2665 v 2.1021 c 0,2.1512 1.7442,3.8958 3.8962,3.8958 h 2.7672 c 2.152,0 3.8959,-1.7446 3.8959,-3.8958 v -2.0882 c 0,-2.358 1.4404,-4.3964 3.4733,-5.2804 l 1.492,-0.7028 c 2.0622,-0.81236 4.5139,-0.39861 6.1804,1.2679 l 1.4862,1.4862 c 1.5218,1.5223 3.9886,1.5223 5.5099,0 l 1.9574,-1.9573 c 1.5214,-1.5211 1.521,-3.9869 0,-5.5092 l -1.476,-1.476 c -1.667,-1.667 -2.091,-4.127 -1.279,-6.19 l 0.55898,-1.5524 c 0.88358,-2.032 2.9093,-3.472 5.267,-3.472 h 2.1016 c 2.1512,0 3.8959,-1.7442 3.8959,-3.8962 v -2.768 c 0,-2.1512 -1.7447,-3.8953 -3.8959,-3.8953 h -2.0882 c -2.358,0 -4.3968,-1.4405 -5.2804,-3.473 l -0.7028,-1.4924 c -0.81193,-2.0622 -0.39861,-4.5138 1.2683,-6.1804 l 1.4857,-1.4866 c 1.5218,-1.5214 1.5218,-3.9881 0,-5.5095 l -1.9573,-1.957 c -1.5215,-1.5214 -3.9877,-1.5214 -5.5092,0 l -1.4772,1.4765 c -1.6666,1.6675 -4.127,2.0904 -6.1889,1.279 l -1.5524,-0.55887 c -2.0325,-0.88368 -3.4729,-2.9089 -3.4729,-5.2674 v -2.1013 c 0,-2.1516 -1.7446,-3.8959 -3.8957,-3.8959 h -2.7685 c -2.1512,0 -3.8949,1.7443 -3.8949,3.8959 v 2.0882 c 0,2.3581 -1.4409,4.3968 -3.473,5.2805 l -1.4924,0.7028 c -2.0622,0.81182 -4.5138,0.3985 -6.1804,-1.2684 l -1.4866,-1.4862 c -1.5214,-1.5214 -3.9881,-1.5214 -5.5095,0 l -1.9574,1.9574 c -1.521,1.5218 -1.521,3.9877 4.3e-4,5.5091 l 1.4765,1.4769 c 1.6675,1.6674 2.0904,4.1273 1.279,6.1897 l -0.55887,1.5524" fill="#a40" inkscape:connector-curvature="0"/>
 <path d="m 62.68183,47.98096 c -0.02962,7.9663 -6.1217,14.644 -14.62,14.644 -8.1546,0 -14.738,-5.7712 -14.738,-14.644 0,-8.2171 6.5205,-14.691 14.738,-14.691 7.998,0 14.651,6.2861 14.62,14.691 z m -35.498,-7.757 c -0.79238,1.8217 -2.6084,4.6414 -4.7232,4.6414 h -1.8842 c -1.9293,0 -3.9891,0.0366 -3.9891,1.9659 v 2.4824 c 0,1.9289 2.0598,2.066 3.9883,2.066 l 1.8732,6.75e-4 c 2.1145,0 3.9421,2.7179 4.7349,4.5406 l 0.63018,1.3375 c 0.72794,1.8491 1.6353,5.057 0.14063,6.5513 l -1.3326,1.3326 c -1.3642,1.365 -2.9314,2.8971 -1.5672,4.2621 l 1.7551,1.7551 c 1.3646,1.3638 2.4305,0.06652 3.7947,-1.2973 l 1.3243,-1.3243 c 1.4951,-1.4956 5.1353,-0.90879 6.9846,-0.18084 l 1.392,0.5016 c 1.8221,0.79267 5.0238,2.1068 5.1331,4.2184 l 0.08264,1.5956 c 0.09729,1.8784 -0.17028,4.8237 1.7594,4.8237 h 1.9509 c 1.9297,0 1.4853,-2.3547 1.4853,-4.2836 v -1.8724 c 0,-2.1144 3.4625,-3.6889 5.2853,-4.4816 l 1.3378,-0.63018 c 1.8491,-0.72842 5.9067,-1.6157 7.401,-0.12136 l 1.3326,1.3326 c 1.3646,1.365 2.0478,2.9125 3.412,1.5475 l 1.7551,-1.755 c 1.3642,-1.3639 -0.79893,-2.6431 -2.1627,-4.0081 l -1.3243,-1.3243 c -1.4952,-1.4943 -0.04257,-4.922 0.68537,-6.7712 l 0.50122,-1.392 c 0.79228,-1.8221 2.6087,-4.7362 4.7228,-4.7362 h 1.8845 c 1.9289,0 3.8652,0.05897 3.8652,-1.8707 v -2.482 c 0,-1.9289 -1.9776,-1.7318 -3.9065,-1.7318 h -1.8724 c -2.1144,0 -3.9012,-3.0527 -4.6935,-4.8752 l -0.63,-1.341 c -0.728,-1.849 -1.613,-5.23 -0.118,-6.724 l 1.3322,-1.333 c 1.3646,-1.3642 2.8268,-2.9719 1.4622,-4.3361 l -1.755,-1.7548 c -1.3643,-1.3642 -2.1682,0.28464 -3.5325,1.6488 l -1.3246,1.3239 c -1.4944,1.4952 -5.3147,0.80401 -7.1635,0.07645 l -1.392,-0.501 c -1.8225,-0.79238 -4.9306,-2.6084 -4.9306,-4.7232 v -1.8842 c 0,-1.9293 0.2522,-3.9891 -1.6767,-3.9891 h -2.4824 c -1.9289,0 -1.6048,1.9047 -1.6048,3.8339 v 1.8724 c 0,2.1145 -2.4106,3.9425 -4.2327,4.7349 l -2.1073,0.78539 c -1.8491,0.72794 -5.6699,1.3769 -7.1644,-0.11782 l -1.333,-1.3326 c -1.3642,-1.3642 -2.2841,-2.7969 -3.6483,-1.4328 l -1.7551,1.7551 c -1.3638,1.3646 0.23487,3.0437 1.5991,4.4079 l 1.3239,1.3243 c 1.4952,1.4951 0.60624,4.646 -0.12132,6.4953 l -0.50112,1.392" fill="white" inkscape:connector-curvature="0"/>
</svg>
