<svg height="96" width="96" xmlns="http://www.w3.org/2000/svg" xmlns:sodipodi="http://sodipodi.sourceforge.net/DTD/sodipodi-0.dtd" xmlns:inkscape="http://www.inkscape.org/namespaces/inkscape">
 <defs>
  <clipPath clipPathUnits="userSpaceOnUse" id="clipPath3009">
   <path d="m-2 956.36h-96v33.562l96 25.687v-59.25z"/>
  </clipPath>
  <linearGradient x2="0" y1="90" y2="5.988" gradientUnits="userSpaceOnUse" id="linearGradient3085" gradientTransform="matrix(1.1429 0 0 1.1429 -6.857 949.51)">
   <stop stop-color="#9e0000"/>
   <stop stop-color="#f04444" offset="1"/>
  </linearGradient>
  <clipPath clipPathUnits="userSpaceOnUse" id="clipPath3018">
   <rect x="2" rx="25" y="958.36" height="92" width="92"/>
  </clipPath>
 </defs>
 <g transform="matrix(1 0 0 1 0 -956.36)">
  <rect rx="6.857" y="956.36" clip-path="url(#clipPath3018)" fill="url(#linearGradient3085)" height="96" width="96"/>
  <g transform="matrix(1 0 0 1 0 956.36)">
   <path d="m60.576 49.331c0 7.0274-5.8593 13.232-13.2 13.232-6.872 0-13.232-5.673-13.232-13.232 0-7.6533 6.0159-13.263 13.232-13.263 7.3716 0 13.2 5.9221 13.2 13.263zm-36.484-8.65c-0.88368 2.0316-2.9089 3.4729-5.2674 3.4729h-2.1013c-2.1516 0-3.8958 1.7442-3.8958 3.8957v2.7685c0 2.1512 1.7442 3.8946 3.8949 3.8946l2.0891 0.000753c2.3581 0 4.3964 1.4405 5.2805 3.4733l0.7028 1.4916c0.81182 2.0622 0.3985 4.5139-1.2684 6.1804l-1.4862 1.4862c-1.5214 1.5223-1.5214 3.9881 0 5.5104l1.9574 1.9574c1.5218 1.521 3.9877 1.521 5.5091 0l1.4769-1.4769c1.6674-1.6679 4.1273-2.0916 6.1897-1.2798l1.5524 0.5594c2.032 0.88401 3.4729 2.9085 3.4729 5.2665v2.1021c0 2.1512 1.7442 3.8958 3.8962 3.8958h2.7672c2.152 0 3.8959-1.7446 3.8959-3.8958v-2.0882c0-2.358 1.4404-4.3964 3.4733-5.2804l1.492-0.7028c2.0622-0.81236 4.5139-0.39861 6.1804 1.2679l1.4862 1.4862c1.5218 1.5223 3.9886 1.5223 5.5099 0l1.9574-1.9573c1.5214-1.5211 1.521-3.9869 0-5.5092l-1.476-1.476c-1.667-1.667-2.091-4.127-1.279-6.19l0.55898-1.5524c0.88358-2.032 2.9093-3.472 5.267-3.472h2.1016c2.1512 0 3.8959-1.7442 3.8959-3.8962v-2.768c0-2.1512-1.7447-3.8953-3.8959-3.8953h-2.0882c-2.358 0-4.3968-1.4405-5.2804-3.473l-0.7028-1.4924c-0.81193-2.0622-0.39861-4.5138 1.2683-6.1804l1.4857-1.4866c1.5218-1.5214 1.5218-3.9881 0-5.5095l-1.9573-1.957c-1.5215-1.5214-3.9877-1.5214-5.5092 0l-1.4772 1.4765c-1.6666 1.6675-4.127 2.0904-6.1889 1.279l-1.5524-0.55887c-2.0325-0.88368-3.4729-2.9089-3.4729-5.2674v-2.1013c0-2.1516-1.7446-3.8959-3.8957-3.8959h-2.7685c-2.1512 0-3.8949 1.7443-3.8949 3.8959v2.0882c0 2.3581-1.4409 4.3968-3.473 5.2805l-1.4924 0.7028c-2.0622 0.81182-4.5138 0.3985-6.1804-1.2684l-1.4866-1.4862c-1.5214-1.5214-3.9881-1.5214-5.5095 0l-1.9574 1.9574c-1.521 1.5218-1.521 3.9877 0.00043 5.5091l1.4765 1.4769c1.6675 1.6674 2.0904 4.1273 1.279 6.1897l-0.55887 1.5524" opacity="0.08"/>
   <path d="m61.065 49.331c0 7.6624-6.0888 13.69-13.689 13.69-7.632 0-13.721-6.2461-13.721-13.69 0-7.4445 5.9641-13.659 13.721-13.659 7.2879 0 13.689 5.8391 13.689 13.659zm-36.02-8.296c-0.84751 1.9484-2.7899 3.9494-5.0518 3.9494h-2.0153c-2.0635 0-4.2667 1.0541-4.2667 3.1176v2.6551c0 2.0631 2.2031 3.2932 4.2658 3.2932l2.0036 0.000722c2.2616 0 4.2164 1.8235 5.0644 3.7731l0.67403 1.4306c0.77859 1.9778 0.77994 4.6385-0.81876 6.2368l-1.4253 1.4253c-1.4591 1.4599-2.1662 3.8691-0.70711 5.329l1.8773 1.8773c1.4595 1.4587 3.6919 0.79579 5.151-0.66291l1.4165-1.4165c1.5991-1.5996 4.4003-1.6967 6.3782-0.91807l1.4889 0.5365c1.9489 0.84782 3.9208 2.218 4.0378 4.4764l0.08839 1.7067c0.10671 2.0604 0.83308 5.1947 2.897 5.1947h2.6539c2.0639 0 2.9851-2.6013 2.9851-4.6644v-2.0027c0-2.2615 2.1769-3.8629 4.1266-4.7107l1.4309-0.67403c1.9778-0.77911 5.213-0.78004 6.8113 0.81825l1.4253 1.4253c1.4595 1.4599 3.295 2.167 4.7541 0.70711l1.8773-1.8772c1.4591-1.4588 0.35385-3.6028-1.1049-5.0627l-1.4165-1.4165c-1.5992-1.5983-1.2539-4.4887-0.47531-6.4666l0.53609-1.4889c0.84741-1.9489 2.7902-3.9928 5.0514-3.9928h2.0156c2.0631 0 4.1341-1.0099 4.1341-3.0738v-2.6547c0-2.0631-2.1152-3.073-4.1783-3.073h-2.0027c-2.2615 0-4.1727-2.0445-5.0201-3.9937l-0.67403-1.4313c-0.7787-1.9778-0.91262-4.7268 0.68608-6.3252l1.4249-1.4257c1.4595-1.4591 2.2108-4.0458 0.7513-5.505l-1.8772-1.8768c-1.4592-1.4591-3.5151-0.53104-4.9743 0.92808l-1.4168 1.4161c-1.5984 1.5992-4.4884 1.6954-6.4659 0.91725l-1.4889-0.53599c-1.9493-0.84751-3.9052-2.7899-3.9052-5.0518v-2.0153c0-2.0635-1.0987-4.2667-3.1618-4.2667h-2.6551c-2.0631 0-3.0725 2.0706-3.0725 4.1341v2.0027c0 2.2616-1.8239 4.2168-3.7728 5.0644l-1.6523 0.80662c-1.9778 0.77859-4.9036 0.73574-6.5019-0.86296l-1.424-1.423c-1.459-1.459-3.604-2.255-5.063-0.796l-1.8773 1.8773c-1.4587 1.4595-0.7074 4.0012 0.75171 5.4604l1.4161 1.4165c1.5992 1.5991 1.607 4.2235 0.82886 6.2014l-0.53599 1.4889" opacity="0.15"/>
   <path d="m61.495 49.332c0 7.7756-6.2515 14.138-14.121 14.138-7.8077 0-14.145-6.3307-14.145-14.138 0-7.6202 6.1815-14.169 14.177-14.169 7.8698 0 14.09 6.3299 14.09 14.169zm-35.704-8.019c-0.81913 1.8832-2.6965 4.2812-4.8826 4.2812h-1.9478c-1.9944 0-4.1238 0.55472-4.1238 2.5491v2.5662c0 1.994 2.1294 2.6526 4.123 2.6526l1.9365 0.000698c2.1859 0 4.0753 2.2928 4.8948 4.1771l0.65146 1.3827c0.75252 1.9116 1.1737 4.9693-0.3715 6.5141l-1.3776 1.3776c-1.4103 1.4111-2.5135 3.2534-1.1033 4.6644l1.8144 1.8144c1.4107 1.4099 3.1263 0.3272 4.5366-1.0827l1.369-1.369c1.5456-1.5461 4.6949-1.1979 6.6066-0.44539l1.439 0.51854c1.8836 0.81943 4.4967 2.1437 4.6097 4.3266l0.08543 1.6495c0.10314 1.9914 0.09808 5.0208 2.0929 5.0208h2.565c1.9948 0 2.1338-2.5252 2.1338-4.5193v-1.9357c0-2.1858 2.8553-3.7225 4.7397-4.5419l1.383-0.65146c1.9116-0.75302 5.5246-1.218 7.0694 0.32681l1.3776 1.3776c1.4107 1.4111 2.6985 2.5585 4.1088 1.1475l1.8144-1.8143c1.4103-1.41-0.27672-3.217-1.6866-4.628l-1.369-1.369c-1.5457-1.5448-0.5932-4.6036 0.15933-6.5153l0.51814-1.439c0.81903-1.8836 2.6968-4.4115 4.8822-4.4115h1.9481c1.994 0 3.9957-0.42362 3.9957-2.4184v-2.5658c0-1.994-2.0444-2.3071-4.0384-2.3071h-1.9357c-2.1858 0-4.0329-2.6389-4.852-4.5229l-0.65-1.388c-0.75262-1.9116-1.2798-4.9221 0.26536-6.4669l1.3772-1.378c1.4107-1.4103 2.5346-3.5568 1.1239-4.9671l-1.8143-1.814c-1.4104-1.4103-2.8229-0.09341-4.2332 1.3168l-1.3693 1.3686c-1.5449 1.5457-4.9126 1.2188-6.8239 0.46669l-1.439-0.51804c-1.884-0.81913-4.5479-2.6965-4.5479-4.8826v-1.9478c0-1.9944-0.28847-4.1238-2.2825-4.1238h-2.5662c-1.994 0-2.2405 2.0013-2.2405 3.9957v1.9357c0 2.1859-2.492 4.0757-4.3756 4.8948l-1.5969 0.77961c-1.9116 0.75252-5.2476 1.1972-6.7925-0.34793l-1.378-1.3776c-1.41-1.411-2.975-2.666-4.385-1.255l-1.8144 1.8144c-1.4099 1.4107-0.24177 3.4695 1.1685 4.8798l1.3686 1.369c1.5457 1.5456 1.1113 4.4799 0.35917 6.3915l-0.519 1.439" opacity="0.3"/>
   <path d="m61.992 49.333c-0.02962 7.9663-6.1217 14.644-14.62 14.644-8.1546 0-14.738-5.7712-14.738-14.644 0-8.2171 6.5205-14.691 14.738-14.691 7.998 0 14.651 6.2861 14.62 14.691zm-35.498-7.757c-0.79238 1.8217-2.6084 4.6414-4.7232 4.6414h-1.8842c-1.9293 0-3.9891 0.0366-3.9891 1.9659v2.4824c0 1.9289 2.0598 2.066 3.9883 2.066l1.8732 0.000675c2.1145 0 3.9421 2.7179 4.7349 4.5406l0.63018 1.3375c0.72794 1.8491 1.6353 5.057 0.14063 6.5513l-1.3326 1.3326c-1.3642 1.365-2.9314 2.8971-1.5672 4.2621l1.7551 1.7551c1.3646 1.3638 2.4305 0.06652 3.7947-1.2973l1.3243-1.3243c1.4951-1.4956 5.1353-0.90879 6.9846-0.18084l1.392 0.5016c1.8221 0.79267 5.0238 2.1068 5.1331 4.2184l0.08264 1.5956c0.09729 1.8784-0.17028 4.8237 1.7594 4.8237h1.9509c1.9297 0 1.4853-2.3547 1.4853-4.2836v-1.8724c0-2.1144 3.4625-3.6889 5.2853-4.4816l1.3378-0.63018c1.8491-0.72842 5.9067-1.6157 7.401-0.12136l1.3326 1.3326c1.3646 1.365 2.0478 2.9125 3.412 1.5475l1.7551-1.755c1.3642-1.3639-0.79893-2.6431-2.1627-4.0081l-1.3243-1.3243c-1.4952-1.4943-0.04257-4.922 0.68537-6.7712l0.50122-1.392c0.79228-1.8221 2.6087-4.7362 4.7228-4.7362h1.8845c1.9289 0 3.8652 0.05897 3.8652-1.8707v-2.482c0-1.9289-1.9776-1.7318-3.9065-1.7318h-1.8724c-2.1144 0-3.9012-3.0527-4.6935-4.8752l-0.63-1.34c-0.728-1.849-1.613-5.23-0.118-6.724l1.3322-1.333c1.3646-1.3642 2.8268-2.9719 1.4622-4.3361l-1.755-1.7548c-1.3643-1.3642-2.1682 0.28464-3.5325 1.6488l-1.3246 1.3239c-1.4944 1.4952-5.3147 0.80401-7.1635 0.07645l-1.392-0.501c-1.8225-0.79238-4.9306-2.6084-4.9306-4.7232v-1.8842c0-1.9293 0.2522-3.9891-1.6767-3.9891h-2.4824c-1.9289 0-1.6048 1.9047-1.6048 3.8339v1.8724c0 2.1145-2.4106 3.9425-4.2327 4.7349l-2.1073 0.78539c-1.8491 0.72794-5.6699 1.3769-7.1644-0.11782l-1.333-1.3326c-1.3642-1.3642-2.2841-2.7969-3.6483-1.4328l-1.7551 1.7551c-1.3638 1.3646 0.23487 3.0437 1.5991 4.4079l1.3239 1.3243c1.4952 1.4951 0.60624 4.646-0.12132 6.4953l-0.50112 1.392"/>
   <path d="m61.992 48.708c-0.02962 7.9663-6.1217 14.644-14.62 14.644-8.1546 0-14.738-5.7712-14.738-14.644 0-8.2171 6.5205-14.691 14.738-14.691 7.998 0 14.651 6.2861 14.62 14.691zm-35.498-7.757c-0.79238 1.8217-2.6084 4.6414-4.7232 4.6414h-1.8842c-1.9293 0-3.9891 0.0366-3.9891 1.9659v2.4824c0 1.9289 2.0598 2.066 3.9883 2.066l1.8732 0.000675c2.1145 0 3.9421 2.7179 4.7349 4.5406l0.63018 1.3375c0.72794 1.8491 1.6353 5.057 0.14063 6.5513l-1.3326 1.3326c-1.3642 1.365-2.9314 2.8971-1.5672 4.2621l1.7551 1.7551c1.3646 1.3638 2.4305 0.06652 3.7947-1.2973l1.3243-1.3243c1.4951-1.4956 5.1353-0.90879 6.9846-0.18084l1.392 0.5016c1.8221 0.79267 5.0238 2.1068 5.1331 4.2184l0.08264 1.5956c0.09729 1.8784-0.17028 4.8237 1.7594 4.8237h1.9509c1.9297 0 1.4853-2.3547 1.4853-4.2836v-1.8724c0-2.1144 3.4625-3.6889 5.2853-4.4816l1.3378-0.63018c1.8491-0.72842 5.9067-1.6157 7.401-0.12136l1.3326 1.3326c1.3646 1.365 2.0478 2.9125 3.412 1.5475l1.7551-1.755c1.3642-1.3639-0.79893-2.6431-2.1627-4.0081l-1.3243-1.3243c-1.4952-1.4943-0.04257-4.922 0.68537-6.7712l0.50122-1.392c0.79228-1.8221 2.6087-4.7362 4.7228-4.7362h1.8845c1.9289 0 3.8652 0.05897 3.8652-1.8707v-2.482c0-1.9289-1.9776-1.7318-3.9065-1.7318h-1.8724c-2.1144 0-3.9012-3.0527-4.6935-4.8752l-0.63-1.341c-0.728-1.849-1.613-5.23-0.118-6.724l1.3322-1.333c1.3646-1.3642 2.8268-2.9719 1.4622-4.3361l-1.755-1.7548c-1.3643-1.3642-2.1682 0.28464-3.5325 1.6488l-1.3246 1.3239c-1.4944 1.4952-5.3147 0.80401-7.1635 0.07645l-1.392-0.501c-1.8225-0.79238-4.9306-2.6084-4.9306-4.7232v-1.8842c0-1.9293 0.2522-3.9891-1.6767-3.9891h-2.4824c-1.9289 0-1.6048 1.9047-1.6048 3.8339v1.8724c0 2.1145-2.4106 3.9425-4.2327 4.7349l-2.1073 0.78539c-1.8491 0.72794-5.6699 1.3769-7.1644-0.11782l-1.333-1.3326c-1.3642-1.3642-2.2841-2.7969-3.6483-1.4328l-1.7551 1.7551c-1.3638 1.3646 0.23487 3.0437 1.5991 4.4079l1.3239 1.3243c1.4952 1.4951 0.60624 4.646-0.12132 6.4953l-0.50112 1.392" fill="#fff"/>
  </g>
  <rect x="-96" rx="25" y="958.36" clip-path="url(#clipPath3009)" fill="#fff" height="92" opacity="0.15" width="92" transform="matrix(1 0 0 1 98 0)"/>
 </g>
</svg>
