<svg height="96" width="96" xmlns="http://www.w3.org/2000/svg" xmlns:sodipodi="http://sodipodi.sourceforge.net/DTD/sodipodi-0.dtd" xmlns:inkscape="http://www.inkscape.org/namespaces/inkscape">
 <g inkscape:label="Layer 1" inkscape:groupmode="layer" transform="matrix(1 0 0 1 0 -956.36)">
  <rect x="8" rx="10.769" y="964.36" fill="#4cc6fc" fill-opacity="1" stroke="none" height="80" width="80"/>
  <path d="m 47.999999,971.88381 -37.500146,64.95239 0.64909,0 c 1.283363,-0.028 1.793004,-2.129 2.457891,-2.129 0.438779,0 1.074809,0.3289 1.514546,0.3289 0.832809,0 1.075307,-4.4077 1.77766,-4.3929 0.702357,0.015 0.569932,3.7658 1.891868,3.813 1.370829,0.05 0.467963,-8.6459 1.8088,-8.6459 1.166363,0 0.580812,7.4183 2.175259,7.4672 1.545489,0.049 0.34888,-12.8494 1.891867,-12.9744 1.797127,-0.1456 0.658655,12.0041 2.517709,12.0041 1.622884,0 0.550831,-17.0603 1.987066,-17.0603 1.434568,0 1.000773,16.4832 2.46434,16.3447 1.409067,0 0.04816,-19.882 1.673044,-19.882 2.080729,0 1.015669,19.7344 2.440923,19.7289 1.606147,-0.011 0.297018,-21.6651 2.166773,-21.6651 1.93858,0 0.61714,21.8761 2.233637,21.8182 1.702894,-0.061 -0.0843,-20.4962 1.791492,-20.4962 1.806548,0 0.577292,20.7817 2.154981,20.7817 1.666794,0 -0.119133,-20.5128 2.062241,-20.3697 2.11243,0.1384 0.726924,20.9675 2.237205,20.9675 1.441058,0 0.580619,-18.1971 2.299052,-18.0992 2.014498,0.115 0.839626,18.6621 2.230668,18.6621 1.289289,0 0.704177,-14.8056 2.411605,-14.8056 1.804731,0 0.446577,15.3651 2.106998,15.2958 1.658978,-0.07 0.918636,-11.7161 2.533323,-11.7161 1.545516,0 0.266554,12.7021 2.013285,12.7021 1.815614,0 0.897268,-8.8931 2.499467,-8.8931 1.650932,0 0.611349,9.7166 1.874813,9.7166 1.228845,0 0.869979,-6.1217 2.083031,-6.1217 1.214165,0 0.645308,6.4781 1.667613,6.4781 1.056879,0 0.624573,-3.7389 1.744482,-3.7389 1.12135,0 0.721022,4.0376 1.581068,4.085 0.763697,0.043 0.665838,-2.5458 1.369623,-2.5458 0.716017,0 0.414393,2.877 1.400087,2.875 0.951075,0 0.658706,-1.5928 1.336023,-1.5928 0.665082,0 0.68564,1.8699 1.471273,1.8699 0.559948,-0.011 1.15394,-0.8548 1.865649,-0.8548 0.936176,0 1.222997,1.0447 3.620568,1.0447 l 0.995274,0 -37.500148,-64.95239 z" display="inline" fill="white" fill-opacity="1" fill-rule="evenodd" stroke="none" opacity="0.5" sodipodi:nodetypes="cccsczzczsczcsszszszzsszzzzzzzzzszzzzsccc" inkscape:export-filename="/mnt/first/logos/ardour/ardour_bw_scale.png" inkscape:connector-curvature="0" inkscape:export-xdpi="40.39333" inkscape:export-ydpi="40.39333"/>
  <path d="m 25.083467,979.36 0,2.08345 2.083318,0 0,-2.08345 -2.083318,0 z m 14.583246,0 0,2.08345 2.083323,0 0,-2.08345 -2.083323,0 z m 14.583251,0 0,2.08345 2.083322,0 0,-2.08345 -2.083322,0 z m 14.58325,0 0,2.08345 2.083319,0 0,-2.08345 -2.083319,0 z m -43.749747,4.16651 0,6.24997 2.083318,0 0,-6.24997 -2.083318,0 z m 14.583246,0 0,16.66689 2.083323,0 0,-16.66689 -2.083323,0 z m 14.583251,0 0,22.91689 2.083322,0 0,-22.91689 -2.083322,0 z m 14.58325,0 0,8.33342 2.083319,0 0,-8.33342 -2.083319,0 z m -45.83307,8.33342 0,12.50007 6.249964,0 0,-12.50007 -6.249964,0 z m 43.749748,2.08345 0,12.50002 6.249964,0 0,-12.50002 -6.249964,0 z m -29.166498,8.33312 0,12.5001 6.249964,0 0,-12.5001 -6.249964,0 z m -12.499927,4.1669 0,22.9166 2.083318,0 0,-22.9166 -2.083318,0 z m 27.083174,2.0833 0,12.4999 6.249964,0 0,-12.4999 -6.249964,0 z m 16.666573,0 0,20.8333 2.083319,0 0,-20.8333 -2.083319,0 z m -29.166501,8.3334 0,12.4999 2.083323,0 0,-12.4999 -2.083323,0 z m 14.583251,6.2499 0,6.25 2.083322,0 0,-6.25 -2.083322,0 z" fill="#1a1a1a" fill-opacity="1" fill-rule="nonzero" stroke="none" inkscape:connector-curvature="0"/>
 </g>
</svg>
