<svg height="96" width="96" xmlns="http://www.w3.org/2000/svg" xmlns:sodipodi="http://sodipodi.sourceforge.net/DTD/sodipodi-0.dtd" xmlns:inkscape="http://www.inkscape.org/namespaces/inkscape">
 <defs>
  <linearGradient x1="8.751" x2="88.75" gradientUnits="userSpaceOnUse" id="linearGradient3886" inkscape:collect="always" gradientTransform="matrix(1 0 0 1 955.61 -1052.14)">
   <stop stop-color="#5fd35f" stop-opacity="1"/>
   <stop stop-color="#43cb43" stop-opacity="1" offset="1"/>
  </linearGradient>
 </defs>
 <g inkscape:label="Layer 1" inkscape:groupmode="layer" transform="matrix(1 0 0 1 0 -956.36)">
  <rect x="964.36" rx="10.769" y="-88" fill="url(#linearGradient3886)" fill-opacity="1" stroke="none" height="80" width="80" transform="matrix(0 1 -1 0 0 0)"/>
  <path d="m 35.963765,974.35998 c -4.881742,0 -7.634348,5.56562 -6.796223,13.7462 l 0.399778,4.05929 -2.767692,0.73805 c -9.179655,2.47183 -13.761844,7.67508 -11.163027,12.70068 1.082657,2.0936 5.671022,5.8121 7.165249,5.8121 1.728266,0 0.838946,-2.4702 -1.383847,-3.844 -5.800114,-3.5847 -4.42945,-8.05071 3.382736,-11.07078 4.813984,-1.86101 5.674826,-1.55434 6.949983,2.49092 0.884526,2.80606 0.963437,3.92646 0.399778,5.28936 -0.392098,0.9481 -1.441661,3.4661 -2.337163,5.5969 -4.936969,11.7471 -4.699654,20.1669 0.615043,22.3876 2.586791,1.0808 4.98048,0.7605 8.610599,-1.0764 3.021554,-1.5289 4.248409,-2.9782 3.290479,-3.9362 -0.537747,-0.5377 -1.539386,-0.2871 -3.87477,0.984 -7.478282,4.0702 -10.807141,0.7065 -8.795111,-8.9181 1.030503,-4.9295 3.825433,-11.7165 4.828085,-11.7165 0.364949,0 1.432738,1.5064 2.367915,3.3519 4.671023,9.218 12.272338,18.4627 17.774737,21.6188 5.603216,3.2139 10.227452,2.0266 11.901077,-3.0445 1.172469,-3.5526 0.383305,-12.3706 -1.660615,-18.7588 -1.98155,-6.1932 -4.488149,-11.50129 -5.443129,-11.50129 -1.400191,0 -1.215196,1.86189 0.676547,6.42719 3.885053,9.3758 5.502429,19.9144 3.628753,23.6177 -2.615408,5.1691 -9.966092,1.4275 -17.68248,-8.9797 -3.541689,-4.7766 -9.594668,-15.6842 -9.594668,-17.2827 0,-1.4639 5.188027,-8.83379 6.519454,-9.25637 0.7151,-0.22694 3.726748,-0.21725 6.703966,0.0308 20.578741,1.7142 33.833789,9.46917 26.17007,15.31457 -1.175637,0.8967 -2.435254,1.6299 -2.798444,1.6299 -1.246835,0 -2.354246,1.9203 -1.568359,2.7062 1.734145,1.7342 8.51911,-3.2465 9.440906,-6.9193 1.695954,-6.75719 -10.133651,-13.22634 -27.553916,-15.06853 -3.867728,-0.40901 -7.313974,-0.98989 -7.657283,-1.29159 -0.908933,-0.79878 7.467184,-8.44524 11.378292,-10.39422 3.766423,-1.87689 6.317611,-2.05243 7.565026,-0.55354 0.482449,0.57971 1.023569,3.10075 1.199333,5.59689 0.239788,3.40538 0.530393,4.52056 1.230086,4.52056 1.242878,0 2.03774,-3.72103 1.537607,-7.31901 -0.565269,-4.06655 -3.049855,-6.42719 -6.765471,-6.42719 -4.481792,0 -9.01849,2.72848 -15.560582,9.31789 -5.562342,5.60258 -5.90299,5.85281 -9.19489,6.24269 -4.69239,0.55574 -5.135607,0.0403 -5.135607,-5.96592 0,-4.03862 0.241273,-5.23735 1.322342,-6.61171 1.648346,-2.09557 3.326689,-2.12843 6.888479,-0.0922 3.110124,1.77796 4.582069,2.01871 4.582069,0.73805 0,-2.00869 -5.183587,-4.88959 -8.795112,-4.88959 z m -0.153761,19.80438 c 1.054577,0 1.906633,0.28312 1.906633,0.61504 0,0.33193 -0.656006,1.38375 -1.476103,2.33716 -1.314503,1.52821 -1.561547,1.59446 -1.937384,0.61504 -0.954715,-2.48795 -0.489049,-3.56724 1.506854,-3.56724 z m 12.516121,6.39644 c -3.825691,0.028 -5.237364,5.0234 -2.029641,7.1653 2.167125,1.447 5.473881,-0.5067 5.473881,-3.229 0,-2.0164 -1.685816,-3.9492 -3.44424,-3.9363 z" fill="#1a1a1a" inkscape:connector-curvature="0"/>
 </g>
</svg>
