<svg height="96" width="96" xmlns="http://www.w3.org/2000/svg" xmlns:sodipodi="http://sodipodi.sourceforge.net/DTD/sodipodi-0.dtd" xmlns:inkscape="http://www.inkscape.org/namespaces/inkscape">
 <g inkscape:label="Layer 1" inkscape:groupmode="layer" transform="matrix(1 0 0 1 0 -956.36)">
  <rect x="8" rx="10.769" y="964.36" fill="#e6e6e6" fill-opacity="1" stroke="none" height="80" width="80"/>
  <path d="m 48,971.86218 a 32.5,32.5 0 0 1 0,65.00002 32.5,32.5 0 1 1 0,-65.00002 z" fill="#ffffff" color="#000000" inkscape:connector-curvature="0"/>
  <path d="m 48.034641,974.3622 a 30,30 0 0 1 0,60 30,30 0 1 1 0,-60 z" fill="#333333" color="#000000" inkscape:connector-curvature="0"/>
  <path d="m 48.007465,989.38061 c -3.116188,0.13524 -8.652059,0.0258 -10.802317,2.56387 -1.31404,1.55085 -0.699448,5.16456 1.314237,5.53916 2.508569,0.46676 6.747401,-0.69591 9.466085,-0.41147 1.895657,0.19832 2.473368,1.72695 0.929591,2.78534 -1.634541,1.12069 -5.348852,0.79809 -7.222316,1.36099 -6.477185,1.9462 -8.798364,6.0573 -7.212413,11.6444 1.034129,3.6433 4.673243,6.3459 8.666463,6.4993 7.681629,-0.017 6.270087,-3.8916 9.989492,-1.8746 1.224042,1.4128 3.690214,1.8789 4.968547,0.8862 2.055166,-1.5959 5.135152,-2.4627 2.949088,-5.729 -1.046927,-1.5643 1.414745,-3.5789 0.865484,-11.3633 -0.520008,-7.36518 -5.515162,-12.26433 -13.911409,-11.90032 z m 0.522802,16.68049 c 1.730041,0 3.109289,1.2146 3.109289,2.722 0,1.5073 -1.379248,2.7221 -3.109289,2.7221 -1.730053,0 -3.141398,-1.2148 -3.141398,-2.7221 0,-1.5074 1.411345,-2.722 3.141398,-2.722 z" fill="#ffffff" inkscape:connector-curvature="0"/>
 </g>
</svg>
