<?xml version="1.0" encoding="UTF-8" standalone="no"?>
<!-- Created with Inkscape (http://www.inkscape.org/) -->

<svg
   xmlns:dc="http://purl.org/dc/elements/1.1/"
   xmlns:cc="http://creativecommons.org/ns#"
   xmlns:rdf="http://www.w3.org/1999/02/22-rdf-syntax-ns#"
   xmlns:svg="http://www.w3.org/2000/svg"
   xmlns="http://www.w3.org/2000/svg"
   xmlns:xlink="http://www.w3.org/1999/xlink"
   xmlns:sodipodi="http://sodipodi.sourceforge.net/DTD/sodipodi-0.dtd"
   xmlns:inkscape="http://www.inkscape.org/namespaces/inkscape"
   width="96"
   height="96"
   id="svg2"
   version="1.1"
   inkscape:version="0.48.5 r10040"
   sodipodi:docname="audacious.svg">
  <defs
     id="defs4">
    <linearGradient
       x1="45.448"
       y1="80.472"
       gradientTransform="matrix(1.0059,0,0,0.99417,0,12)"
       x2="45.448"
       gradientUnits="userSpaceOnUse"
       xlink:href="#ButtonShadow-5"
       y2="5.2972"
       id="linearGradient3664-3" />
    <filter
       color-interpolation-filters="sRGB"
       id="filter3174-8">
      <feGaussianBlur
         stdDeviation="1.71"
         id="feGaussianBlur3176-9" />
    </filter>
    <linearGradient
       x1="45.448"
       y1="80.472"
       gradientTransform="matrix(1.0059 0 0 .99417 0 12)"
       x2="45.448"
       gradientUnits="userSpaceOnUse"
       y2="7.0165"
       id="ButtonShadow-5">
      <stop
         offset="0"
         id="stop3750-0" />
      <stop
         offset="1"
         style="stop-opacity:.58824"
         id="stop3752-4" />
    </linearGradient>
    <linearGradient
       x1="45.448002"
       y1="80.472"
       gradientTransform="matrix(1.0059,0,0,0.99417,0,12)"
       x2="45.448002"
       gradientUnits="userSpaceOnUse"
       xlink:href="#ButtonShadow-7-2"
       y2="5.2972002"
       id="linearGradient3664-0-1" />
    <linearGradient
       x1="45.448002"
       y1="80.472"
       gradientTransform="matrix(1.0059,0,0,0.99417,0,12)"
       x2="45.448002"
       gradientUnits="userSpaceOnUse"
       y2="7.0165"
       id="ButtonShadow-7-2">
      <stop
         offset="0"
         id="stop3750-3-0" />
      <stop
         offset="1"
         style="stop-opacity:.58824"
         id="stop3752-8-0" />
    </linearGradient>
    <filter
       color-interpolation-filters="sRGB"
       id="filter3174-2-8">
      <feGaussianBlur
         stdDeviation="1.71"
         id="feGaussianBlur3176-5-2" />
    </filter>
    <linearGradient
       x1="45.448"
       y1="80.472"
       gradientTransform="matrix(1.0059,0,0,0.99417,0,12)"
       x2="45.448"
       gradientUnits="userSpaceOnUse"
       xlink:href="#ButtonShadow-8"
       y2="5.2972"
       id="linearGradient3664-7" />
    <filter
       color-interpolation-filters="sRGB"
       id="filter3174-6">
      <feGaussianBlur
         stdDeviation="1.71"
         id="feGaussianBlur3176-90" />
    </filter>
    <linearGradient
       x1="45.448"
       y1="80.472"
       gradientTransform="matrix(1.0059 0 0 .99417 0 12)"
       x2="45.448"
       gradientUnits="userSpaceOnUse"
       y2="7.0165"
       id="ButtonShadow-8">
      <stop
         offset="0"
         id="stop3750-8" />
      <stop
         offset="1"
         style="stop-opacity:.58824"
         id="stop3752-9" />
    </linearGradient>
    <linearGradient
       x1="45.448"
       y1="80.472"
       gradientTransform="matrix(1.0059,0,0,0.99417,0,12)"
       x2="45.448"
       gradientUnits="userSpaceOnUse"
       xlink:href="#ButtonShadow-59"
       y2="5.2972"
       id="linearGradient3664-03" />
    <filter
       color-interpolation-filters="sRGB"
       id="filter3174-4">
      <feGaussianBlur
         stdDeviation="1.71"
         id="feGaussianBlur3176-4" />
    </filter>
    <linearGradient
       x1="45.448"
       y1="80.472"
       gradientTransform="matrix(1.0059 0 0 .99417 0 12)"
       x2="45.448"
       gradientUnits="userSpaceOnUse"
       y2="7.0165"
       id="ButtonShadow-59">
      <stop
         offset="0"
         id="stop3750-38" />
      <stop
         offset="1"
         style="stop-opacity:.58824"
         id="stop3752-1" />
    </linearGradient>
    <linearGradient
       x1="45.448"
       y1="80.472"
       gradientTransform="matrix(1.0059,0,0,0.99417,0,12)"
       x2="45.448"
       gradientUnits="userSpaceOnUse"
       xlink:href="#ButtonShadow-3"
       y2="5.2972"
       id="linearGradient3664-9" />
    <filter
       color-interpolation-filters="sRGB"
       id="filter3174-5">
      <feGaussianBlur
         stdDeviation="1.71"
         id="feGaussianBlur3176-6" />
    </filter>
    <linearGradient
       x1="45.448"
       y1="80.472"
       gradientTransform="matrix(1.0059 0 0 .99417 0 12)"
       x2="45.448"
       gradientUnits="userSpaceOnUse"
       y2="7.0165"
       id="ButtonShadow-3">
      <stop
         offset="0"
         id="stop3750-7" />
      <stop
         offset="1"
         style="stop-opacity:.58824"
         id="stop3752-3" />
    </linearGradient>
    <linearGradient
       inkscape:collect="always"
       xlink:href="#linearGradient11642"
       id="linearGradient5160"
       x1="53.057766"
       y1="1042.4381"
       x2="50.4524"
       y2="965.4649"
       gradientUnits="userSpaceOnUse" />
    <linearGradient
       x1="48"
       x2="48"
       gradientTransform="matrix(1.15,0,0,1.15,-7.1999,-150.65)"
       y1="962.62"
       gradientUnits="userSpaceOnUse"
       y2="1046.1"
       id="linearGradient11642">
      <stop
         offset="0"
         style="stop-color:#bcb5ac"
         id="stop3189" />
      <stop
         offset="1"
         style="stop-color:#e9e7e4"
         id="stop3191" />
    </linearGradient>
  </defs>
  <sodipodi:namedview
     id="base"
     pagecolor="#ffffff"
     bordercolor="#666666"
     borderopacity="1.0"
     inkscape:pageopacity="0.0"
     inkscape:pageshadow="2"
     inkscape:zoom="2.6632652"
     inkscape:cx="92.940884"
     inkscape:cy="66.0836"
     inkscape:document-units="px"
     inkscape:current-layer="layer1"
     showgrid="false"
     inkscape:window-width="1366"
     inkscape:window-height="716"
     inkscape:window-x="0"
     inkscape:window-y="24"
     inkscape:window-maximized="1" />
  <metadata
     id="metadata7">
    <rdf:RDF>
      <cc:Work
         rdf:about="">
        <dc:format>image/svg+xml</dc:format>
        <dc:type
           rdf:resource="http://purl.org/dc/dcmitype/StillImage" />
        <dc:title />
      </cc:Work>
    </rdf:RDF>
  </metadata>
  <g
     inkscape:label="Layer 1"
     inkscape:groupmode="layer"
     id="layer1"
     transform="translate(0,-956.36218)">
    <rect
       style="fill:url(#linearGradient5160);fill-opacity:1;stroke:none"
       id="rect2985"
       width="80"
       height="80"
       x="8.7512503"
       y="964.13916"
       rx="10.769231"
       ry="10.769231" />
    <path
       style="opacity:0.3;fill:#000000;fill-opacity:1;stroke:none"
       d="m 8.75125,1031.3354 0,2.0133 c 0,5.966 4.793063,10.7905 10.758946,10.7905 l 58.450649,0 c 5.965883,0 10.790405,-4.8245 10.790405,-10.7905 l 0,-2.0133 c 0,5.9659 -4.824522,10.7904 -10.790405,10.7904 l -58.450649,0 c -5.965883,0 -10.758946,-4.8245 -10.758946,-10.7904 z"
       id="rect3755"
       inkscape:connector-curvature="0" />
    <g
       id="layer2-9"
       style="display:none"
       transform="translate(-115.43793,1002.8625)">
      <path
         inkscape:connector-curvature="0"
         id="rect3745-3"
         style="opacity:0.9;fill:url(#linearGradient3664-3);filter:url(#filter3174-8)"
         d="M 14.969,8.8029 C 13.329,8.8029 12,10.085 12,11.678 V 19 c -3.324,0 -7,2.676 -7,6 v 61 c 0,3.324 2.676,6 6,6 h 74 c 3.324,0 6,-2.676 6,-6 V 25 c 0,-3.324 -3.7474,-6 -7.0714,-6 v -0.13461 c 0,-2.3891 -1.9777,-4.3125 -4.4375,-4.3125 h -43.335 l -1.4688,-2.875 c -0.734,-1.424 -1.329,-2.8741 -2.969,-2.8741 h -16.75 z" />
    </g>
    <g
       id="layer2"
       style="display:none"
       transform="translate(-108.26934,938.61065)">
      <path
         inkscape:connector-curvature="0"
         id="rect3745"
         style="opacity:0.9;fill:url(#linearGradient3664-0-1);filter:url(#filter3174-2-8)"
         d="M 14.969,8.8029 C 13.329,8.8029 12,10.085 12,11.678 V 19 c -3.324,0 -7,2.676 -7,6 v 61 c 0,3.324 2.676,6 6,6 h 74 c 3.324,0 6,-2.676 6,-6 V 25 c 0,-3.324 -3.7474,-6 -7.0714,-6 v -0.13461 c 0,-2.3891 -1.9777,-4.3125 -4.4375,-4.3125 h -43.335 l -1.4688,-2.875 c -0.734,-1.424 -1.329,-2.8741 -2.969,-2.8741 h -16.75 z" />
    </g>
    <g
       id="layer2-6"
       style="display:none"
       transform="translate(-171.72473,918.96337)">
      <path
         inkscape:connector-curvature="0"
         id="rect3745-6"
         style="opacity:0.9;fill:url(#linearGradient3664-7);filter:url(#filter3174-6)"
         d="M 14.969,8.8029 C 13.329,8.8029 12,10.085 12,11.678 V 19 c -3.324,0 -7,2.676 -7,6 v 61 c 0,3.324 2.676,6 6,6 h 74 c 3.324,0 6,-2.676 6,-6 V 25 c 0,-3.324 -3.7474,-6 -7.0714,-6 v -0.13461 c 0,-2.3891 -1.9777,-4.3125 -4.4375,-4.3125 h -43.335 l -1.4688,-2.875 c -0.734,-1.424 -1.329,-2.8741 -2.969,-2.8741 h -16.75 z" />
    </g>
    <g
       id="layer2-1"
       style="display:none"
       transform="translate(-173.31774,905.15718)">
      <path
         inkscape:connector-curvature="0"
         id="rect3745-1"
         style="opacity:0.9;fill:url(#linearGradient3664-03);filter:url(#filter3174-4)"
         d="M 14.969,8.8029 C 13.329,8.8029 12,10.085 12,11.678 V 19 c -3.324,0 -7,2.676 -7,6 v 61 c 0,3.324 2.676,6 6,6 h 74 c 3.324,0 6,-2.676 6,-6 V 25 c 0,-3.324 -3.7474,-6 -7.0714,-6 v -0.13461 c 0,-2.3891 -1.9777,-4.3125 -4.4375,-4.3125 h -43.335 l -1.4688,-2.875 c -0.734,-1.424 -1.329,-2.8741 -2.969,-2.8741 h -16.75 z" />
    </g>
    <g
       id="layer2-2"
       style="display:none"
       transform="translate(-177.5658,944.98274)">
      <path
         inkscape:connector-curvature="0"
         id="rect3745-0"
         style="opacity:0.9;fill:url(#linearGradient3664-9);filter:url(#filter3174-5)"
         d="M 14.969,8.8029 C 13.329,8.8029 12,10.085 12,11.678 V 19 c -3.324,0 -7,2.676 -7,6 v 61 c 0,3.324 2.676,6 6,6 h 74 c 3.324,0 6,-2.676 6,-6 V 25 c 0,-3.324 -3.7474,-6 -7.0714,-6 v -0.13461 c 0,-2.3891 -1.9777,-4.3125 -4.4375,-4.3125 h -43.335 l -1.4688,-2.875 c -0.734,-1.424 -1.329,-2.8741 -2.969,-2.8741 h -16.75 z" />
    </g>
    <path
       style="color:#000000;fill:#333333"
       d="m 48.783924,977.44939 a 26.689775,26.689775 0 0 1 0,53.37951 26.689775,26.689775 0 1 1 0,-53.37951 z"
       id="path3663"
       inkscape:connector-curvature="0" />
    <path
       style="fill:#ffffff"
       d="m 48.757289,992.02209 c -2.52036,0.10938 -6.99775,0.0209 -8.73687,2.07365 -1.06279,1.25432 -0.56571,4.17707 1.06295,4.48005 2.02892,0.37751 5.45727,-0.56285 7.65613,-0.3328 1.5332,0.1604 2.00045,1.39675 0.75185,2.25281 -1.32201,0.9064 -4.32613,0.6455 -5.84138,1.1008 -5.23872,1.574 -7.11608,4.8991 -5.83337,9.4179 0.8364,2.9467 3.7797,5.1325 7.0094,5.2566 6.21287,-0.014 5.07122,-3.1475 8.07946,-1.5162 0.99,1.1427 2.98463,1.5197 4.01854,0.7168 1.66221,-1.2908 4.15329,-1.9918 2.38521,-4.6336 -0.84675,-1.2652 1.14424,-2.8946 0.7,-9.1906 -0.42058,-5.95695 -4.46064,-9.91936 -11.25149,-9.62495 z m 0.42284,13.49111 c 1.39925,0 2.51478,0.9824 2.51478,2.2016 0,1.2191 -1.11553,2.2016 -2.51478,2.2016 -1.39926,0 -2.54075,-0.9825 -2.54075,-2.2016 0,-1.2192 1.14149,-2.2016 2.54075,-2.2016 z"
       id="path3821"
       inkscape:connector-curvature="0" />
  </g>
</svg>
