<svg height="96" width="96" xmlns="http://www.w3.org/2000/svg" xmlns:sodipodi="http://sodipodi.sourceforge.net/DTD/sodipodi-0.dtd" xmlns:inkscape="http://www.inkscape.org/namespaces/inkscape">
 <defs>
  <radialGradient cy="48" r="35.25" gradientUnits="userSpaceOnUse" id="radialGradient3891" cx="48">
   <stop stop-color="#294172" stop-opacity="0.374"/>
   <stop stop-color="#294172" offset="1"/>
  </radialGradient>
  <clipPath clipPathUnits="userSpaceOnUse" id="clipPath3009">
   <path d="m-2 956.36h-96v33.562l96 25.687v-59.25z"/>
  </clipPath>
 </defs>
 <g transform="matrix(1 0 0 1 0 -956.36)">
  <rect x="2" rx="25" y="958.36" fill="#3c6eb4" height="92" width="92"/>
  <g transform="matrix(1 0 0 1 0 956.36)">
   <path d="m40.625 12.75c-4.4789 0.9333-8.6446 2.7274-12.344 5.1562 0.10781 2.6954-0.85119 5.4137-2.9062 7.4688-2.0551 2.0551-4.7733 3.0141-7.4688 2.9062-2.429 3.699-4.223 7.865-5.156 12.344 1.998 1.828 3.25 4.453 3.25 7.375 0 2.9219-1.2518 5.5466-3.25 7.375 0.9333 4.4789 2.7274 8.6446 5.1562 12.344 2.6954-0.10781 5.4137 0.85119 7.4688 2.9062 2.0551 2.0551 3.0141 4.7733 2.9062 7.4688 3.699 2.429 7.865 4.223 12.344 5.156 1.828-1.998 4.453-3.25 7.375-3.25 2.9219 0 5.5466 1.2518 7.375 3.25 4.4644-0.93028 8.6222-2.7083 12.312-5.125-0.0063-0.14435 0-0.29318 0-0.4375 0-2.5592 0.98488-5.1099 2.9375-7.0625 2.0551-2.0551 4.7733-3.0141 7.4688-2.9062 2.43-3.699 4.224-7.865 5.157-12.344-1.998-1.828-3.25-4.453-3.25-7.375s1.252-5.547 3.25-7.375c-0.933-4.479-2.727-8.645-5.156-12.344-2.696 0.108-5.414-0.851-7.469-2.906-1.9526-1.9526-2.9375-4.5033-2.9375-7.0625 0-0.14432-0.0063-0.29315 0-0.4375-3.692-2.418-7.85-4.196-12.314-5.126-1.828 1.998-4.453 3.25-7.375 3.25s-5.547-1.252-7.375-3.25z" fill="url(#radialGradient3891)" color="#000000"/>
   <path d="m40.625 12.75c-4.479 0.933-8.645 2.727-12.344 5.156 0.108 2.696-0.851 5.414-2.906 7.469s-4.773 3.014-7.469 2.906c-2.429 3.699-4.223 7.865-5.156 12.344 1.998 1.828 3.25 4.453 3.25 7.375s-1.252 5.547-3.25 7.375c0.933 4.479 2.727 8.645 5.156 12.344 2.696-0.108 5.414 0.851 7.469 2.906s3.014 4.773 2.906 7.469c3.699 2.429 7.865 4.223 12.344 5.156 1.828-1.998 4.453-3.25 7.375-3.25s5.547 1.252 7.375 3.25c4.464-0.93 8.622-2.708 12.313-5.125-0.007-0.144 0-0.293 0-0.437 0-2.56 0.984-5.11 2.937-7.063 2.055-2.055 4.773-3.014 7.469-2.906 2.429-3.699 4.223-7.865 5.156-12.344-1.998-1.828-3.25-4.453-3.25-7.375s1.252-5.547 3.25-7.375c-0.933-4.479-2.727-8.645-5.156-12.344-2.696 0.108-5.414-0.851-7.469-2.906-1.953-1.953-2.937-4.503-2.937-7.063 0-0.144-0.007-0.293 0-0.437-3.691-2.417-7.849-4.195-12.313-5.125-1.828 1.998-4.453 3.25-7.375 3.25s-5.547-1.252-7.375-3.25zm-0.625 2.844c2.177 1.817 4.956 2.937 8 2.937s5.823-1.12 8-2.937c3.349 0.83 6.531 2.144 9.406 3.906 0.274 2.795 1.313 5.531 3.438 7.656 2.141 2.142 4.883 3.302 7.687 3.563 1.738 2.852 3.052 5.969 3.875 9.281-1.817 2.177-2.937 4.956-2.937 8s1.12 5.823 2.937 8c-0.823 3.312-2.137 6.429-3.875 9.281-2.804 0.261-5.546 1.421-7.687 3.563-2.125 2.125-3.164 4.861-3.438 7.656-2.875 1.762-6.057 3.076-9.406 3.906-2.177-1.817-4.956-2.937-8-2.937s-5.823 1.12-8 2.937c-3.312-0.823-6.429-2.137-9.281-3.875-0.261-2.804-1.421-5.546-3.563-7.687-2.141-2.142-4.883-3.302-7.687-3.563-1.738-2.852-3.052-5.969-3.875-9.281 1.817-2.177 2.937-4.956 2.937-8s-1.12-5.823-2.937-8c0.823-3.312 2.137-6.429 3.875-9.281 2.804-0.261 5.546-1.421 7.687-3.563 2.142-2.141 3.302-4.883 3.563-7.687 2.852-1.738 5.969-3.052 9.281-3.875z" color="#000000" opacity="0.05"/>
   <path d="m58.406 24.156c-7.9756 0-14.469 6.46-14.469 14.438v6.375h-6.3438c-7.9754 0-14.438 6.4628-14.438 14.438 0 7.9758 6.4624 14.438 14.438 14.438 7.9745 0 14.469-6.4593 14.469-14.438v-6.4062h6.3438c7.9722 0 14.438-6.4315 14.438-14.406 0-7.9752-6.463-14.438-14.438-14.438zm0 8.125c3.5081 0 6.3438 2.8082 6.3438 6.3125 0 3.5038-2.8446 6.375-6.3438 6.375h-6.1874c-0.11384 0-0.15625-0.04206-0.15625-0.15625v-6.2188c0.0059-3.5001 2.8407-6.3125 6.3438-6.3125zm-20.812 20.719h6.1874c0.11244 0 0.15625 0.04453 0.15625 0.15625v6.25c-0.005 3.4973-2.8412 6.3125-6.3438 6.3125-3.508 0-6.3438-2.8089-6.3438-6.3125 0.001-3.505 2.85-6.406 6.345-6.406z" fill="#0a57a4" opacity="0.1"/>
   <path d="m58.394 25c-7.5151 0-13.607 6.0918-13.607 13.606v7.2108h-7.1812c-7.5149 0-13.606 6.0621-13.606 13.576 0 7.5153 6.0918 13.607 13.606 13.607 7.514 0 13.606-6.0915 13.606-13.607v-7.2407h7.1821c7.514 0 13.606-6.0323 13.606-13.546 0-7.5146-6.0918-13.606-13.606-13.606zm-13.606 34.406c-0.0057 3.9595-3.2194 7.1695-7.1812 7.1695-3.966 0-7.2109-3.2152-7.2109-7.1812 0-3.9674 3.2449-7.2421 7.2109-7.2421h6.1676c0.56023 0 1.0145 0.45338 1.0145 1.0127 0 0.0011-0.000689 0.0011-0.000689 0.0025v6.2386h-0.00023zm13.606-13.589h-6.1681c-0.56023 0-1.0134-0.45315-1.0134-1.0138v-6.2087c0.0067-3.9618 3.2194-7.1706 7.1814-7.1706 3.966 0 7.2115 3.2155 7.2115 7.1821 0 3.9662-3.2456 7.2111-7.2115 7.2111z" fill="#0a57a4" opacity="0.3"/>
   <path d="m163.2 29.904c-32.704 0-59.213 26.51-59.213 59.212v31.38h-31.254c-32.703 0-59.212 26.381-59.212 59.081 0 32.705 26.51 59.214 59.212 59.214 32.699 0 59.209-26.509 59.209-59.214v-31.51h31.255c32.699 0 59.209-26.251 59.209-58.951 0-32.702-26.51-59.212-59.209-59.212zm-59.213 149.73c-0.025 17.231-14.01 31.2-31.251 31.2-17.259 0-31.38-13.992-31.38-31.251 0-17.265 14.121-31.516 31.38-31.516h26.84c2.438 0 4.415 1.973 4.415 4.407 0 0.005-0.003 0.005-0.003 0.011v27.149h-0.001zm59.21-59.137h-26.842c-2.438 0-4.41-1.972-4.41-4.412v-27.019c0.029-17.241 14.01-31.205 31.252-31.205 17.259 0 31.383 13.993 31.383 31.255 0 17.26-14.124 31.381-31.383 31.381z" fill="#5484c6" transform="matrix(0.22979 0 0 0.22979 20.892 17.13)"/>
   <path d="m44.788 44.817v-7.2111c0-7.5146 6.0915-13.606 13.607-13.606 1.14 0 1.95 0.12845 3.0052 0.40466 1.5389 0.40351 2.7956 1.6642 2.7963 3.1316 0.00069 1.774-1.2871 3.0636-3.2116 3.0636-0.91687 0-1.2482-0.17556-2.5907-0.17556-3.9621 0-7.1748 3.2088-7.1814 7.1706v6.2085c0 0.56069 0.45315 1.0138 1.0134 1.0138h4.7195c1.7574 0 3.1766 1.407 3.178 3.1691 0 1.7627-1.4213 3.1665-3.178 3.1665h-5.7328v7.2421c0 7.514-6.0918 13.605-13.606 13.605-1.1402 0-1.9502-0.12845-3.0054-0.40489-1.5389-0.40328-2.7961-1.6646-2.7968-3.1316 0-1.7735 1.2868-3.0636 3.2123-3.0636 0.91595 0 1.2482 0.17579 2.59 0.17579 3.9621 0 7.1757-3.209 7.1819-7.1695v-6.2409c0-0.55954-0.4543-1.0127-1.0145-1.0127h-4.7181c-1.7579 0-3.1782-1.4024-3.1782-3.1656-0.00046-1.7731 1.435-3.1697 3.2116-3.1697h5.6986v-0.000229z" fill="#fff"/>
   <path d="m40.625 12.75c-4.479 0.933-8.645 2.727-12.344 5.156 0.108 2.696-0.851 5.414-2.906 7.469s-4.773 3.014-7.469 2.906c-2.429 3.699-4.223 7.865-5.156 12.344 1.998 1.828 3.25 4.453 3.25 7.375s-1.252 5.547-3.25 7.375c0.933 4.479 2.727 8.645 5.156 12.344 2.696-0.108 5.414 0.851 7.469 2.906s3.014 4.773 2.906 7.469c3.699 2.429 7.865 4.223 12.344 5.156 1.828-1.998 4.453-3.25 7.375-3.25s5.547 1.252 7.375 3.25c4.464-0.93 8.622-2.708 12.313-5.125-0.007-0.144 0-0.293 0-0.437 0-2.56 0.984-5.11 2.937-7.063 2.055-2.055 4.773-3.014 7.469-2.906 2.429-3.699 4.223-7.865 5.156-12.344-1.998-1.828-3.25-4.453-3.25-7.375s1.252-5.547 3.25-7.375c-0.933-4.479-2.727-8.645-5.156-12.344-2.696 0.108-5.414-0.851-7.469-2.906-1.953-1.953-2.937-4.503-2.937-7.063 0-0.144-0.007-0.293 0-0.437-3.691-2.417-7.849-4.195-12.313-5.125-1.828 1.998-4.453 3.25-7.375 3.25s-5.547-1.252-7.375-3.25zm-0.281 2c2.079 1.817 4.687 3.062 7.656 3.062s5.577-1.245 7.656-3.062c3.727 0.859 7.217 2.338 10.375 4.312 0.182 2.767 1.21 5.491 3.313 7.594 2.093 2.093 4.788 3.061 7.531 3.25 1.998 3.178 3.509 6.685 4.375 10.438-1.817 2.079-3.062 4.687-3.062 7.656s1.245 5.577 3.062 7.656c-0.866 3.753-2.377 7.26-4.375 10.438-2.743 0.189-5.438 1.157-7.531 3.25-2.103 2.103-3.131 4.827-3.313 7.594-3.158 1.974-6.648 3.453-10.375 4.312-2.079-1.817-4.687-3.062-7.656-3.062s-5.577 1.245-7.656 3.062c-3.753-0.866-7.26-2.377-10.438-4.375-0.189-2.743-1.157-5.438-3.25-7.531s-4.788-3.061-7.531-3.25c-1.998-3.178-3.509-6.685-4.375-10.438 1.817-2.079 3.062-4.687 3.062-7.656s-1.245-5.577-3.062-7.656c0.866-3.753 2.377-7.26 4.375-10.438 2.743-0.189 5.438-1.157 7.531-3.25s3.061-4.788 3.25-7.531c3.178-1.998 6.685-3.509 10.438-4.375z" color="#000000" opacity="0.1"/>
   <path d="m40.625 12.75c-4.479 0.933-8.645 2.727-12.344 5.156 0.014 0.337 0.02 0.664 0 1 3.699-2.429 7.865-4.223 12.344-5.156 1.828 1.998 4.453 3.25 7.375 3.25s5.547-1.252 7.375-3.25c4.464 0.93 8.622 2.708 12.313 5.125-0.007 0.144 0 0.293 0 0.437 0 2.56 0.984 5.11 2.937 7.063 2.055 2.055 4.773 3.014 7.469 2.906 2.28 3.472 3.994 7.364 4.968 11.531 0.064-0.061 0.123-0.127 0.188-0.187-0.933-4.479-2.727-8.645-5.156-12.344-2.696 0.108-5.414-0.851-7.469-2.906-1.953-1.953-2.937-4.503-2.937-7.063 0-0.144-0.007-0.293 0-0.437-3.691-2.417-7.849-4.195-12.313-5.125-1.828 1.998-4.453 3.25-7.375 3.25s-5.547-1.252-7.375-3.25zm-12.344 6.156c-0.139 2.354-1.108 4.671-2.906 6.469-2.055 2.055-4.773 3.014-7.469 2.906-2.429 3.699-4.223 7.865-5.156 12.344 0.065 0.06 0.124 0.126 0.188 0.187 0.974-4.167 2.688-8.059 4.968-11.531 2.696 0.108 5.414-0.851 7.469-2.906s3.014-4.773 2.906-7.469zm-12.312 29.594c-0.134 2.721-1.335 5.151-3.219 6.875 0.057 0.275 0.124 0.54 0.188 0.813 1.885-1.819 3.062-4.361 3.062-7.188 0-0.167-0.023-0.335-0.031-0.5zm64.062 0c-0.008 0.165-0.031 0.333-0.031 0.5 0 2.827 1.177 5.369 3.062 7.188 0.064-0.273 0.131-0.538 0.188-0.813-1.884-1.724-3.085-4.154-3.219-6.875z" color="#000000" opacity="0.3"/>
   <path d="m40.625 12.75c-4.479 0.933-8.645 2.727-12.344 5.156 0.108 2.696-0.851 5.414-2.906 7.469s-4.773 3.014-7.469 2.906c-2.429 3.699-4.223 7.865-5.156 12.344 1.998 1.828 3.25 4.453 3.25 7.375s-1.252 5.547-3.25 7.375c0.933 4.479 2.727 8.645 5.156 12.344 2.696-0.108 5.414 0.851 7.469 2.906s3.014 4.773 2.906 7.469c3.699 2.429 7.865 4.223 12.344 5.156 1.828-1.998 4.453-3.25 7.375-3.25s5.547 1.252 7.375 3.25c4.464-0.93 8.622-2.708 12.313-5.125-0.007-0.144 0-0.293 0-0.437 0-2.56 0.984-5.11 2.937-7.063 2.055-2.055 4.773-3.014 7.469-2.906 2.429-3.699 4.223-7.865 5.156-12.344-1.998-1.828-3.25-4.453-3.25-7.375s1.252-5.547 3.25-7.375c-0.933-4.479-2.727-8.645-5.156-12.344-2.696 0.108-5.414-0.851-7.469-2.906-1.953-1.953-2.937-4.503-2.937-7.063 0-0.144-0.007-0.293 0-0.437-3.691-2.417-7.849-4.195-12.313-5.125-1.828 1.998-4.453 3.25-7.375 3.25s-5.547-1.252-7.375-3.25zm-0.187 1c1.962 1.914 4.608 3.156 7.562 3.156 2.962 0 5.63-1.232 7.594-3.156 4.046 0.897 7.826 2.492 11.218 4.656 0.026 2.755 1.092 5.498 3.188 7.594 2.083 2.083 4.798 3.087 7.531 3.125 2.193 3.42 3.817 7.228 4.719 11.313-1.914 1.962-3.156 4.608-3.156 7.562s1.242 5.6 3.156 7.562c-0.902 4.085-2.526 7.893-4.719 11.313-2.733 0.038-5.448 1.042-7.531 3.125-2.096 2.096-3.162 4.839-3.188 7.594-3.392 2.164-7.172 3.759-11.218 4.656-1.964-1.924-4.632-3.156-7.594-3.156-2.954 0-5.6 1.242-7.562 3.156-4.085-0.902-7.893-2.526-11.313-4.719-0.038-2.733-1.042-5.448-3.125-7.531s-4.798-3.087-7.531-3.125c-2.193-3.42-3.817-7.228-4.719-11.313 1.914-1.962 3.156-4.608 3.156-7.562s-1.242-5.6-3.156-7.562c0.902-4.085 2.526-7.893 4.719-11.313 2.733-0.038 5.448-1.042 7.531-3.125s3.087-4.798 3.125-7.531c3.42-2.193 7.228-3.817 11.313-4.719z" color="#000000" opacity="0.15"/>
   <path d="m12.938 40.812c-0.064 0.273-0.131 0.538-0.188 0.813 1.884 1.724 3.085 4.154 3.219 6.875 0.008-0.165 0.031-0.333 0.031-0.5 0-2.827-1.177-5.369-3.062-7.188zm70.124 0c-1.885 1.819-3.062 4.361-3.062 7.188 0 0.167 0.023 0.335 0.031 0.5 0.134-2.721 1.335-5.151 3.219-6.875-0.057-0.275-0.124-0.54-0.188-0.813zm-70.124 15.376c-0.064 0.061-0.123 0.127-0.188 0.187 0.933 4.479 2.727 8.645 5.156 12.344 2.696-0.108 5.414 0.851 7.469 2.906 1.798 1.798 2.767 4.115 2.906 6.469 0.108-2.696-0.851-5.414-2.906-7.469s-4.773-3.014-7.469-2.906c-2.28-3.472-3.994-7.364-4.968-11.531zm15.343 21.906c0.02 0.336 0.014 0.663 0 1 3.699 2.429 7.865 4.223 12.344 5.156 1.828-1.998 4.453-3.25 7.375-3.25s5.547 1.252 7.375 3.25c4.464-0.93 8.622-2.708 12.313-5.125-0.007-0.144 0-0.293 0-0.437 0-2.56 0.984-5.11 2.937-7.063 2.055-2.055 4.773-3.014 7.469-2.906 2.429-3.699 4.223-7.865 5.156-12.344-0.065-0.06-0.124-0.126-0.188-0.187-0.974 4.167-2.688 8.059-4.968 11.531-2.696-0.108-5.414 0.851-7.469 2.906-1.953 1.953-2.937 4.503-2.937 7.063 0 0.144-0.007 0.293 0 0.437-3.691 2.417-7.849 4.195-12.313 5.125-1.828-1.998-4.453-3.25-7.375-3.25s-5.547 1.252-7.375 3.25c-4.479-0.933-8.645-2.727-12.344-5.156z" fill="#fff" color="#000000" opacity="0.2"/>
  </g>
  <rect x="-96" rx="25" y="958.36" clip-path="url(#clipPath3009)" fill="#fff" height="92" opacity="0.15" width="92" transform="matrix(1 0 0 1 98 0)"/>
 </g>
</svg>
