<svg height="96" width="96" xmlns="http://www.w3.org/2000/svg" xmlns:sodipodi="http://sodipodi.sourceforge.net/DTD/sodipodi-0.dtd" xmlns:inkscape="http://www.inkscape.org/namespaces/inkscape">
 <rect x="8" rx="10.769" y="8" fill="#1589ea" fill-opacity="1" stroke="none" height="80" width="80"/>
 <path d="m 40.625,12.75 c -4.4789,0.9333 -8.6446,2.7274 -12.344,5.1562 0.10781,2.6954 -0.85119,5.4137 -2.9062,7.4688 -2.0551,2.0551 -4.7733,3.0141 -7.4688,2.9062 -2.429,3.699 -4.223,7.865 -5.156,12.344 1.998,1.828 3.25,4.453 3.25,7.375 0,2.9219 -1.2518,5.5466 -3.25,7.375 0.9333,4.4789 2.7274,8.6446 5.1562,12.344 2.6954,-0.10781 5.4137,0.85119 7.4688,2.9062 2.0551,2.0551 3.0141,4.7733 2.9062,7.4688 3.699,2.429 7.865,4.223 12.344,5.156 1.828,-1.998 4.453,-3.25 7.375,-3.25 2.9219,0 5.5466,1.2518 7.375,3.25 4.4644,-0.93028 8.6222,-2.7083 12.312,-5.125 -0.0063,-0.14435 0,-0.29318 0,-0.4375 0,-2.5592 0.98488,-5.1099 2.9375,-7.0625 2.0551,-2.0551 4.7733,-3.0141 7.4688,-2.9062 2.43,-3.699 4.224,-7.865 5.157,-12.344 -1.998,-1.828 -3.25,-4.453 -3.25,-7.375 0,-2.922 1.252,-5.547 3.25,-7.375 -0.933,-4.479 -2.727,-8.645 -5.156,-12.344 -2.696,0.108 -5.414,-0.851 -7.469,-2.906 -1.9526,-1.9526 -2.9375,-4.5033 -2.9375,-7.0625 0,-0.14432 -0.0063,-0.29315 0,-0.4375 -3.692,-2.418 -7.85,-4.196 -12.314,-5.126 -1.828,1.998 -4.453,3.25 -7.375,3.25 -2.922,0 -5.547,-1.252 -7.375,-3.25 z" fill="#06f" color="black" inkscape:connector-curvature="0"/>
 <path d="m 58.393728,24.00164 c -7.515052,0 -13.606555,6.091733 -13.606555,13.606326 v 7.21081 h -7.181857 c -7.514822,0 -13.606325,6.06209 -13.606325,13.576223 0,7.515282 6.091732,13.606785 13.606325,13.606785 7.513903,0 13.605636,-6.091503 13.605636,-13.606785 v -7.240683 h 7.182087 c 7.513903,0 13.605636,-6.032217 13.605636,-13.54635 0,-7.514593 -6.091733,-13.606326 -13.605636,-13.606326 z M 44.787173,58.408097 c -0.0057,3.959511 -3.219358,7.169448 -7.181168,7.169448 -3.965945,0 -7.21081,-3.215222 -7.21081,-7.181167 0,-3.967325 3.244865,-7.242062 7.21081,-7.242062 h 6.167564 c 0.560228,0 1.014523,0.453376 1.014523,1.012684 0,0.0011 -6.89e-4,0.0011 -6.89e-4,0.0025 v 6.238569 h -2.3e-4 z M 58.393039,44.819006 h -6.168024 c -0.560228,0 -1.013373,-0.453146 -1.013373,-1.013834 v -6.208696 c 0.0067,-3.961809 3.219357,-7.170597 7.181397,-7.170597 3.965945,0 7.211499,3.215452 7.211499,7.182087 0,3.966175 -3.245554,7.21104 -7.211499,7.21104 z" fill="#80b3ff" inkscape:connector-curvature="0"/>
 <path d="m 44.788,44.817 v -7.2111 c 0,-7.5146 6.0915,-13.606 13.607,-13.606 1.14,0 1.95,0.12845 3.0052,0.40466 1.5389,0.40351 2.7956,1.6642 2.7963,3.1316 6.9e-4,1.774 -1.2871,3.0636 -3.2116,3.0636 -0.91687,0 -1.2482,-0.17556 -2.5907,-0.17556 -3.9621,0 -7.1748,3.2088 -7.1814,7.1706 v 6.2085 c 0,0.56069 0.45315,1.0138 1.0134,1.0138 h 4.7195 c 1.7574,0 3.1766,1.407 3.178,3.1691 0,1.7627 -1.4213,3.1665 -3.178,3.1665 h -5.7328 v 7.2421 c 0,7.514 -6.0918,13.605 -13.606,13.605 -1.1402,0 -1.9502,-0.12845 -3.0054,-0.40489 -1.5389,-0.40328 -2.7961,-1.6646 -2.7968,-3.1316 0,-1.7735 1.2868,-3.0636 3.2123,-3.0636 0.91595,0 1.2482,0.17579 2.59,0.17579 3.9621,0 7.1757,-3.209 7.1819,-7.1695 v -6.2409 c 0,-0.55954 -0.4543,-1.0127 -1.0145,-1.0127 h -4.7181 c -1.7579,0 -3.1782,-1.4024 -3.1782,-3.1656 -4.6e-4,-1.7731 1.435,-3.1697 3.2116,-3.1697 h 5.6986 v -2.29e-4 z" fill="white" inkscape:connector-curvature="0"/>
</svg>
