<?xml version="1.0" encoding="UTF-8" standalone="no"?>
<!-- Created with Inkscape (http://www.inkscape.org/) -->

<svg
   xmlns:dc="http://purl.org/dc/elements/1.1/"
   xmlns:cc="http://creativecommons.org/ns#"
   xmlns:rdf="http://www.w3.org/1999/02/22-rdf-syntax-ns#"
   xmlns:svg="http://www.w3.org/2000/svg"
   xmlns="http://www.w3.org/2000/svg"
   xmlns:sodipodi="http://sodipodi.sourceforge.net/DTD/sodipodi-0.dtd"
   xmlns:inkscape="http://www.inkscape.org/namespaces/inkscape"
   id="svg11037"
   height="96"
   width="96"
   version="1.1"
   inkscape:version="0.48.5 r10040"
   sodipodi:docname="autoten.svg">
  <sodipodi:namedview
     pagecolor="#ffffff"
     bordercolor="#666666"
     borderopacity="1"
     objecttolerance="10"
     gridtolerance="10"
     guidetolerance="10"
     inkscape:pageopacity="0"
     inkscape:pageshadow="2"
     inkscape:window-width="640"
     inkscape:window-height="480"
     id="namedview2938" />
  <defs
     id="defs11039">
    <linearGradient
       id="linearGradient11642"
       y2="1046.1"
       gradientUnits="userSpaceOnUse"
       y1="962.62"
       gradientTransform="matrix(1.15 0 0 1.15 -7.1999 -150.65)"
       x2="48"
       x1="48">
      <stop
         id="stop3702"
         style="stop-color:#1972ce"
         offset="0" />
      <stop
         id="stop3704"
         style="stop-color:#69a7e6"
         offset="1" />
    </linearGradient>
    <radialGradient
       id="radialGradient4160"
       gradientUnits="userSpaceOnUse"
       cy="48"
       cx="48"
       gradientTransform="matrix(.66644 0 0 .66643 16.011 16.011)"
       r="36.013">
      <stop
         id="stop4129"
         style="stop-color:#44a0ff;stop-opacity:0"
         offset="0" />
      <stop
         id="stop4131"
         style="stop-color:#0068c9"
         offset="1" />
    </radialGradient>
    <clipPath
       id="clipPath3009"
       clipPathUnits="userSpaceOnUse">
      <path
         id="path3011"
         style="opacity:.15;fill:#fff"
         d="m-2 956.36h-96v33.562l96 25.687v-59.25z" />
    </clipPath>
  </defs>
  <metadata
     id="metadata11042">
    <rdf:RDF>
      <cc:Work
         rdf:about="">
        <dc:format>image/svg+xml</dc:format>
        <dc:type
           rdf:resource="http://purl.org/dc/dcmitype/StillImage" />
        <dc:title />
      </cc:Work>
    </rdf:RDF>
  </metadata>
  <g
     id="layer1"
     transform="translate(0 -956.36)">
    <rect
       id="rect3867"
       style="fill:url(#linearGradient11642)"
       rx="25"
       ry="25"
       height="92"
       width="92"
       y="958.36"
       x="2" />
    <g
       id="g3538"
       transform="translate(-4.1012e-7 956.36)">
      <path
         id="path4867"
         style="fill:url(#radialGradient4160)"
         d="m48.938 12c-2.0154-0.0042-4.0651 0.01758-6.0625 0.34375l-1.751 10.531c-2.0972 0.6109-4.112 1.4199-6 2.5312l-8.6562-6.1875c-2.672 2.1366-5.2335 4.4685-7.25 7.25l6.1875 8.625c-1.045 1.917-1.982 3.91-2.531 6.032l-10.531 1.75c-0.38248 3.3955-0.5599 6.8296 0 10.219l10.531 1.75c0.61196 2.0973 1.421 4.1433 2.5312 6.0312l-6.1875 8.6562c2.1366 2.6731 4.4696 5.2324 7.25 7.25l8.6562-6.1875c1.9156 1.0465 3.8794 1.982 6 2.5312l1.75 10.5c1.4842 0.17955 3.003 0.35906 4.5 0.375 1.9198 0 3.8493-0.07964 5.75-0.375l1.75-10.5c2.0983-0.61303 4.112-1.421 6-2.5312l8.6562 6.1875c2.671-2.1366 5.2335-4.4675 7.25-7.25l-6.186-8.657c1.0465-1.9156 1.9809-3.9096 2.5312-6.0312l10.531-1.75c0.38142-3.3966 0.5599-6.8296 0-10.219l-10.531-1.75c-0.61196-2.0983-1.421-4.1422-2.5312-6.0312l6.1875-8.625c-2.1366-2.671-4.4696-5.2335-7.25-7.25l-8.6562 6.1875c-1.9156-1.0476-3.8751-1.982-6-2.5312l-1.751-10.531c-1.391-0.172-2.783-0.331-4.187-0.344z" />
      <path
         id="path5896"
         style="opacity:.3;fill:#fff"
         d="m19.594 26.969c-0.12564 0.16474-0.25323 0.33204-0.375 0.5l5.875 8.2188c0.10552-0.19998 0.20434-0.39546 0.3125-0.59375zm56.812 0.031-5.812 8.094c0.10916 0.18573 0.20906 0.37387 0.3125 0.5625l5.875-8.1875c-0.124-0.155-0.249-0.313-0.375-0.468zm7.594 20.969c-0.02231 1.7065-0.15304 3.4267-0.34375 5.125l-10.531 1.75c-0.55034 2.1217-1.4847 4.1157-2.5312 6.0312l0.3125 0.4375c0.92027-1.74 1.723-3.5575 2.2188-5.4688l10.531-1.75c0.228-2.029 0.375-4.086 0.344-6.124zm-72 1.3125c-0.0086 1.6128 0.07916 3.2109 0.34375 4.8125l10.531 1.75c0.5518 1.891 1.2702 3.7393 2.2188 5.4688l0.3125-0.4375c-1.11-1.889-1.919-3.935-2.531-6.032l-10.531-1.75c-0.21-1.271-0.313-2.534-0.344-3.813zm7.594 20.718-0.375 0.53125c2.1366 2.6731 4.4696 5.2324 7.25 7.25l8.6562-6.1875c1.9156 1.0465 3.8794 1.982 6 2.5312l1.75 10.5c1.4842 0.17955 3.003 0.35906 4.5 0.375 1.9198 0 3.8493-0.07964 5.75-0.375l1.75-10.5c2.0983-0.61303 4.112-1.421 6-2.5312l8.6562 6.1875c2.671-2.1366 5.2335-4.4675 7.25-7.25l-0.375-0.5c-1.9552 2.5641-4.3653 4.7425-6.875 6.75l-8.656-6.188c-1.888 1.1102-3.9017 1.9182-6 2.5312l-1.75 10.5c-1.901 0.295-3.83 0.375-5.75 0.375-1.497-0.01594-3.0158-0.19545-4.5-0.375l-1.75-10.5c-2.1206-0.54928-4.0844-1.4847-6-2.5312l-8.6562 6.1875c-2.619-1.901-4.841-4.279-6.875-6.782z" />
      <path
         id="path5919"
         style="opacity:.05"
         d="m48.938 12c-2.0154-0.0042-4.0651 0.01758-6.0625 0.34375l-1.751 10.531c-2.0973 0.6109-4.112 1.4199-6 2.5312l-8.6562-6.1875c-2.672 2.1366-5.2335 4.4685-7.25 7.25l6.1875 8.625c-1.045 1.917-1.982 3.91-2.531 6.032l-10.531 1.75c-0.38248 3.3955-0.5599 6.8296 0 10.219l10.531 1.75c0.61196 2.0973 1.421 4.1433 2.5312 6.0312l-6.1875 8.6562c2.1366 2.6731 4.4696 5.2324 7.25 7.25l8.6562-6.1875c1.9156 1.0465 3.8794 1.982 6 2.5312l1.75 10.5c1.4842 0.17955 3.003 0.35906 4.5 0.375 1.9198 0 3.8493-0.07964 5.75-0.375l1.75-10.5c2.0983-0.61303 4.112-1.421 6-2.5312l8.6562 6.1875c2.671-2.1366 5.2335-4.4675 7.25-7.25l-6.186-8.657c1.0465-1.9156 1.9809-3.9096 2.5312-6.0312l10.531-1.75c0.38142-3.3966 0.5599-6.8296 0-10.219l-10.531-1.75c-0.61196-2.0983-1.421-4.1422-2.5312-6.0312l6.1875-8.625c-2.1366-2.671-4.4696-5.2335-7.25-7.25l-8.6562 6.1875c-1.9156-1.0476-3.8751-1.982-6-2.5312l-1.751-10.531c-1.391-0.172-2.783-0.331-4.187-0.344zm-0.03125 2.9062c0.0096 0.000088 0.0216-0.000104 0.03125 0 0.53487 0.0058 1.1519 0.10835 1.7188 0.15625l1.375 8.2812c0.17594 1.1017 1.0457 2.061 2.125 2.3438 1.7723 0.45813 3.5215 1.2535 5.3438 2.25 0.9473 0.51434 2.185 0.43857 3.0625-0.1875l6.7812-4.8438c1.311 1.1287 2.565 2.3734 3.75 3.75l-4.8438 6.75c-0.65363 0.90241-0.71756 2.1937-0.15625 3.1562 0.95935 1.6323 1.6886 3.4499 2.25 5.375 0.30882 1.0367 1.2446 1.8587 2.3125 2.0312l8.2812 1.375c0.13143 1.7112 0.13903 3.476 0 5.2812l-8.281 1.377c-1.1017 0.17594-2.061 1.0457-2.3438 2.125-0.46108 1.7776-1.2611 3.5649-2.25 5.375-0.51434 0.9473-0.43857 2.185 0.1875 3.0625l4.8438 6.7812c-1.1284 1.3109-2.3733 2.5652-3.75 3.75l-6.782-4.843c-0.90241-0.65363-2.1937-0.71756-3.1562-0.15625-1.6417 0.96541-3.4241 1.6892-5.3438 2.25-1.0367 0.30882-1.8587 1.2446-2.0312 2.3125l-1.375 8.2188c-1.0725 0.08392-2.1247 0.21818-3.25 0.21875-0.0095-0.000102-0.0217 0.000118-0.03125 0-0.62471-0.0077-1.353-0.09434-2.0312-0.15625l-1.375-8.2812c-0.176-1.102-1.046-2.062-2.125-2.345-1.769-0.458-3.522-1.254-5.344-2.25-0.947-0.514-2.185-0.438-3.062 0.188l-6.7812 4.8438c-1.3114-1.1289-2.5654-2.3737-3.75-3.75l4.843-6.782c0.65363-0.90241 0.71756-2.1937 0.15625-3.1562-0.9585-1.6299-1.6884-3.4503-2.25-5.375-0.309-1.036-1.244-1.858-2.312-2.031l-8.282-1.375c-0.1316-1.7115-0.13914-3.4766 0-5.2812l8.2812-1.375c1.1017-0.17594 2.061-1.0457 2.3438-2.125 0.45944-1.7746 1.2605-3.5609 2.25-5.375 0.51434-0.9473 0.43857-2.185-0.1875-3.0625l-4.8438-6.75c1.1284-1.3111 2.3734-2.5653 3.75-3.75l6.783 4.843c0.90241 0.65363 2.1937 0.71756 3.1562 0.15625 1.6414-0.96617 3.4274-1.6918 5.3438-2.25 1.0367-0.30882 1.8587-1.2446 2.0312-2.3125l1.375-8.25c1.1646-0.08212 2.2954-0.18989 3.5625-0.1875z" />
      <path
         id="path5912"
         style="opacity:.1"
         d="m48.938 12c-2.0154-0.0042-4.0651 0.01758-6.0625 0.34375l-1.751 10.531c-2.0973 0.6109-4.112 1.4199-6 2.5312l-8.6562-6.1875c-2.672 2.1366-5.2335 4.4685-7.25 7.25l6.1875 8.625c-1.045 1.917-1.982 3.91-2.531 6.032l-10.531 1.75c-0.38248 3.3955-0.5599 6.8296 0 10.219l10.531 1.75c0.61196 2.0973 1.421 4.1433 2.5312 6.0312l-6.1875 8.6562c2.1366 2.6731 4.4696 5.2324 7.25 7.25l8.6562-6.1875c1.9156 1.0465 3.8794 1.982 6 2.5312l1.75 10.5c1.4842 0.17955 3.003 0.35906 4.5 0.375 1.9198 0 3.8493-0.07964 5.75-0.375l1.75-10.5c2.0983-0.61303 4.112-1.421 6-2.5312l8.6562 6.1875c2.671-2.1366 5.2335-4.4675 7.25-7.25l-6.186-8.657c1.0465-1.9156 1.9809-3.9096 2.5312-6.0312l10.531-1.75c0.38142-3.3966 0.5599-6.8296 0-10.219l-10.531-1.75c-0.61196-2.0983-1.421-4.1422-2.5312-6.0312l6.1875-8.625c-2.1366-2.671-4.4696-5.2335-7.25-7.25l-8.6562 6.1875c-1.9156-1.0476-3.8751-1.982-6-2.5312l-1.751-10.531c-1.391-0.172-2.783-0.331-4.187-0.344zm-0.03125 2.0312c0.0099 0.00009 0.02135-0.000106 0.03125 0 0.77663 0.0083 1.6195 0.10369 2.4375 0.1875l1.5 9c0.13062 0.76871 0.74418 1.4334 1.5 1.625 1.878 0.48546 3.681 1.3319 5.5312 2.3438 0.66486 0.36675 1.5382 0.31612 2.1562-0.125l7.375-5.25c1.7039 1.398 3.2741 3.0229 4.75 4.7812l-5.25 7.3125c-0.4565 0.63666-0.49492 1.5459-0.09375 2.2188 1.0046 1.7093 1.7672 3.5855 2.3438 5.5625 0.20754 0.72482 0.85143 1.3056 1.5938 1.4375l8.9688 1.5c0.22615 2.1876 0.20427 4.4281 0 6.7188l-8.9688 1.5c-0.76871 0.13062-1.4334 0.74418-1.625 1.5-0.48785 1.8808-1.3376 3.7208-2.3438 5.5625-0.36675 0.66486-0.31612 1.5382 0.125 2.1562l5.25 7.3438c-1.4029 1.7156-3.0127 3.2971-4.7812 4.7812l-7.3438-5.25c-0.63666-0.4565-1.5459-0.49492-2.2188-0.09375-1.7155 1.0088-3.558 1.7673-5.5312 2.3438-0.72482 0.20754-1.3056 0.85143-1.4375 1.5938l-1.5 8.9375c-1.3044 0.12983-2.6087 0.24934-3.9688 0.25-0.0098-0.000104-0.02145 0.00012-0.03125 0-0.869-0.012-1.82-0.122-2.751-0.22l-1.5-8.9688c-0.13062-0.76871-0.74418-1.4334-1.5-1.625-1.874-0.48539-3.6812-1.333-5.5312-2.3438-0.66486-0.36675-1.5382-0.31612-2.1562 0.125l-7.375 5.25c-1.7085-1.4017-3.2714-3.0182-4.75-4.7812l5.25-7.3438c0.4565-0.63666 0.49492-1.5459 0.09375-2.2188-1.004-1.7073-1.767-3.5861-2.3438-5.5625-0.20754-0.72482-0.85143-1.3056-1.5938-1.4375l-8.9688-1.5c-0.22633-2.188-0.20455-4.4289 0-6.7188l8.9688-1.5c0.76871-0.13062 1.4334-0.74418 1.625-1.5 0.48638-1.8787 1.3375-3.7176 2.3438-5.5625 0.36675-0.66486 0.31612-1.5382-0.125-2.1562l-5.25-7.3125c1.4069-1.7196 3.0074-3.294 4.7812-4.7812l7.3438 5.25c0.63666 0.4565 1.5459 0.49492 2.2188 0.09375 1.7153-1.0097 3.5606-1.7697 5.5312-2.3438 0.72482-0.20754 1.3056-0.85143 1.4375-1.5938l1.5-8.9375c1.3862-0.13052 2.7938-0.25283 4.2812-0.25z" />
      <path
         id="path5905"
         style="opacity:.15"
         d="m48.938 12c-2.0154-0.0042-4.0651 0.01758-6.0625 0.34375l-1.751 10.531c-2.0973 0.6109-4.112 1.4199-6 2.5312l-8.6562-6.1875c-2.672 2.1366-5.2335 4.4685-7.25 7.25l6.1875 8.625c-1.045 1.917-1.982 3.91-2.531 6.032l-10.531 1.75c-0.38248 3.3955-0.5599 6.8296 0 10.219l10.531 1.75c0.61196 2.0973 1.421 4.1433 2.5312 6.0312l-6.1875 8.6562c2.1366 2.6731 4.4696 5.2324 7.25 7.25l8.6562-6.1875c1.9156 1.0465 3.8794 1.982 6 2.5312l1.75 10.5c1.4842 0.17955 3.003 0.35906 4.5 0.375 1.9198 0 3.8493-0.07964 5.75-0.375l1.75-10.5c2.0983-0.61303 4.112-1.421 6-2.5312l8.6562 6.1875c2.671-2.1366 5.2335-4.4675 7.25-7.25l-6.186-8.657c1.0465-1.9156 1.9809-3.9096 2.5312-6.0312l10.531-1.75c0.38142-3.3966 0.5599-6.8296 0-10.219l-10.531-1.75c-0.61196-2.0983-1.421-4.1422-2.5312-6.0312l6.1875-8.625c-2.1366-2.671-4.4696-5.2335-7.25-7.25l-8.6562 6.1875c-1.9156-1.0476-3.8751-1.982-6-2.5312l-1.751-10.531c-1.391-0.172-2.783-0.331-4.187-0.344zm0 1.0625c1.0647 0.0097 2.1526 0.15413 3.25 0.28125l1.625 9.7188c0.07088 0.3987 0.38918 0.74245 0.78125 0.84375 1.9953 0.51578 3.9 1.4087 5.7812 2.4375 0.34686 0.19067 0.8014 0.16542 1.125-0.0625l7.9688-5.6875c2.1998 1.7005 4.1339 3.7339 5.9375 5.9375l-5.6875 7.9375c-0.23078 0.33602-0.24354 0.80826-0.03125 1.1562 1.0548 1.7947 1.8129 3.7779 2.4062 5.8125 0.11146 0.38068 0.45263 0.68394 0.84375 0.75l9.7188 1.625c0.36276 2.7399 0.28565 5.5221 0 8.3438l-9.7188 1.625c-0.3987 0.07088-0.74245 0.38918-0.84375 0.78125-0.51754 1.9952-1.4122 3.9357-2.4375 5.8125-0.19067 0.34686-0.16542 0.8014 0.0625 1.125l5.6875 7.9688c-1.7003 2.2008-3.7337 4.134-5.9375 5.9375l-7.968-5.689c-0.33602-0.23078-0.80826-0.24354-1.1562-0.03125-1.7974 1.057-3.7486 1.8124-5.7812 2.4062-0.38068 0.11146-0.68394 0.45263-0.75 0.84375l-1.625 9.6875c-1.579 0.19658-3.1863 0.3125-4.8125 0.3125-1.1562-0.01231-2.3572-0.17264-3.5625-0.3125l-1.625-9.6875c-0.071-0.399-0.39-0.743-0.782-0.844-1.991-0.516-3.9-1.41-5.781-2.438-0.347-0.19-0.801-0.165-1.125 0.063l-7.9688 5.6875c-2.2002-1.7012-4.1342-3.7332-5.9375-5.9375l5.687-7.968c0.23078-0.33602 0.24354-0.80826 0.03125-1.1562-1.0545-1.7931-1.8128-3.7787-2.4062-5.8125-0.11146-0.38068-0.45263-0.68394-0.84375-0.75l-9.7188-1.625c-0.3629-2.7401-0.28623-5.5231 0-8.3438l9.7188-1.625c0.3987-0.07088 0.74245-0.38918 0.84375-0.78125 0.51626-1.9942 1.4126-3.9335 2.4375-5.8125 0.19067-0.34686 0.16542-0.8014-0.0625-1.125l-5.6875-7.9375c1.7004-2.2004 3.7334-4.1341 5.9375-5.9375l7.968 5.689c0.33602 0.23078 0.80826 0.24354 1.1562 0.03125 1.7973-1.058 3.7505-1.8147 5.7812-2.4062 0.38068-0.11146 0.68394-0.45263 0.75-0.84375l1.625-9.6875c1.6627-0.20678 3.3838-0.31613 5.125-0.3125z" />
      <path
         id="path4162"
         style="opacity:.1;fill:#0a57a4"
         d="m55.781 30c-6.1811 0-11.188 5.0417-11.188 11.219v4.4062h-4.375c-6.173 0-11.218 4.976-11.218 11.156 0 6.181 5.038 11.219 11.219 11.219 6.1802 0 11.188-5.0412 11.188-11.219v-4.406h4.375c6.172 0 11.218-4.976 11.218-11.156 0-6.181-5.038-11.219-11.219-11.219zm0 6.8125c2.4268 0 4.4375 1.9859 4.4375 4.4062 0 2.4199-2.0107 4.4062-4.4375 4.4062h-4.375v-4.4375c0.0041-2.4315 1.9454-4.375 4.375-4.375zm-15.562 15.562h4.375v4.4375c-0.0035 2.4291-1.946 4.375-4.375 4.375-2.4267 0-4.4375-1.9866-4.4375-4.4062 0-2.4209 2.0105-4.4062 4.4375-4.4062z" />
      <g
         id="g4148"
         style="opacity:.3"
         transform="matrix(.17234 0 0 .17234 27.669 25.846)">
        <path
           id="path4150"
           style="fill:#0a57a4"
           d="m163.2 29.904c-32.704 0-59.213 26.51-59.213 59.212v31.38h-31.254c-32.703 0-59.212 26.381-59.212 59.081 0 32.705 26.51 59.214 59.212 59.214 32.699 0 59.209-26.509 59.209-59.214v-31.51h31.255c32.699 0 59.209-26.251 59.209-58.951 0-32.702-26.51-59.212-59.209-59.212zm-59.213 149.73c-0.025 17.231-14.01 31.2-31.251 31.2-17.259 0-31.38-13.992-31.38-31.251 0-17.265 14.121-31.516 31.38-31.516h26.84c2.438 0 4.415 1.973 4.415 4.407 0 0.005-0.003 0.005-0.003 0.011v27.149h-0.001zm59.21-59.137h-26.842c-2.438 0-4.41-1.972-4.41-4.412v-27.019c0.029-17.241 14.01-31.205 31.252-31.205 17.259 0 31.383 13.993 31.383 31.255 0 17.26-14.124 31.381-31.383 31.381z" />
      </g>
      <path
         id="path5926"
         style="opacity:.3"
         d="m48.938 12c-2.0154-0.0042-4.0651 0.01758-6.0625 0.34375l-1.751 10.531c-2.0973 0.6109-4.112 1.4199-6 2.5312l-8.6562-6.1875c-2.672 2.1366-5.2335 4.4685-7.25 7.25l0.375 0.5c1.9551-2.5634 4.3643-4.7425 6.875-6.75l8.6562 6.1875c1.888-1.1113 3.9027-1.9203 6-2.5312l1.75-10.531c1.997-0.326 4.047-0.348 6.063-0.344 1.4045 0.01275 2.7968 0.17164 4.1875 0.34375l1.75 10.531c2.1249 0.54928 4.0844 1.4837 6 2.5312l8.6562-6.1875c2.6183 1.8989 4.8406 4.2793 6.875 6.7812l0.375-0.53125c-2.1366-2.671-4.4696-5.2335-7.25-7.25l-8.6562 6.1875c-1.9156-1.0476-3.8751-1.982-6-2.5312l-1.751-10.531c-1.391-0.172-2.783-0.331-4.187-0.344zm21.969 23.656-0.3125 0.4375c1.1102 1.889 1.9193 3.9329 2.5312 6.0312l10.531 1.75c0.21 1.271 0.313 2.533 0.344 3.813 0.009-1.613-0.079-3.211-0.344-4.813l-10.531-1.75c-0.55179-1.892-1.2702-3.7389-2.2188-5.4688zm-45.812 0.03125c-0.91441 1.733-1.7263 3.5353-2.2188 5.4375l-10.531 1.75c-0.23 2.03-0.376 4.087-0.345 6.126 0.02218-1.7066 0.15251-3.4272 0.34375-5.125l10.531-1.75c0.54928-2.1217 1.4858-4.1146 2.5312-6.0312zm0 25.625-5.875 8.2188c0.12459 0.15588 0.24902 0.31373 0.375 0.46875l5.8125-8.125c-0.11-0.186-0.21-0.374-0.313-0.563zm45.812 0c-0.10132 0.19158-0.2087 0.37251-0.3125 0.5625l5.8125 8.1562c0.12565-0.16479 0.25323-0.33198 0.375-0.5z" />
      <g
         id="g4141"
         transform="matrix(.17234 0 0 .17234 70.824 36.319)">
        <g
           id="f-script"
           transform="translate(-250.4,-66.568)">
          <path
             id="f-script-path"
             style="fill:#054687"
             d="m163.2 29.904c-32.704 0-59.213 26.51-59.213 59.212v31.38h-31.254c-32.703 0-59.212 26.381-59.212 59.081 0 32.705 26.51 59.214 59.212 59.214 32.699 0 59.209-26.509 59.209-59.214v-31.51h31.255c32.699 0 59.209-26.251 59.209-58.951 0-32.702-26.51-59.212-59.209-59.212zm-59.213 149.73c-0.025 17.231-14.01 31.2-31.251 31.2-17.259 0-31.38-13.992-31.38-31.251 0-17.265 14.121-31.516 31.38-31.516h26.84c2.438 0 4.415 1.973 4.415 4.407 0 0.005-0.003 0.005-0.003 0.011v27.149h-0.001zm59.21-59.137h-26.842c-2.438 0-4.41-1.972-4.41-4.412v-27.019c0.029-17.241 14.01-31.205 31.252-31.205 17.259 0 31.383 13.993 31.383 31.255 0 17.26-14.124 31.381-31.383 31.381z" />
        </g>
        <path
           id="blue-inifity-connectors"
           style="fill:#fff"
           d="m-146.42 53.928v-31.381c0-32.702 26.509-59.212 59.213-59.212 4.961 0 8.486 0.559 13.078 1.761 6.697 1.756 12.166 7.242 12.169 13.628 0.003 7.72-5.601 13.332-13.976 13.332-3.99 0-5.432-0.764-11.274-0.764-17.242 0-31.223 13.964-31.252 31.205v27.018c0 2.44 1.972 4.412 4.41 4.412h20.538c7.648 0 13.824 6.123 13.83 13.791 0 7.671-6.185 13.78-13.83 13.78h-24.948v31.516c0 32.699-26.51 59.208-59.209 59.208-4.962 0-8.487-0.559-13.079-1.762-6.697-1.755-12.168-7.244-12.171-13.628 0-7.718 5.6-13.332 13.979-13.332 3.986 0 5.432 0.765 11.271 0.765 17.242 0 31.227-13.965 31.254-31.2v-27.154c0-2.435-1.977-4.407-4.415-4.407h-20.532c-7.65 0-13.831-6.103-13.831-13.776-0.002-7.716 6.245-13.794 13.976-13.794h24.799v-0.001z" />
      </g>
    </g>
    <rect
       id="rect3003"
       style="opacity:.15;fill:#fff"
       transform="translate(98 3.8281e-7)"
       clip-path="url(#clipPath3009)"
       rx="25"
       ry="25"
       height="92"
       width="92"
       y="958.36"
       x="-96" />
  </g>
</svg>
