<?xml version="1.0" encoding="UTF-8" standalone="no"?>
<!-- Created with Inkscape (http://www.inkscape.org/) -->

<svg
   xmlns:dc="http://purl.org/dc/elements/1.1/"
   xmlns:cc="http://creativecommons.org/ns#"
   xmlns:rdf="http://www.w3.org/1999/02/22-rdf-syntax-ns#"
   xmlns:svg="http://www.w3.org/2000/svg"
   xmlns="http://www.w3.org/2000/svg"
   xmlns:xlink="http://www.w3.org/1999/xlink"
   xmlns:sodipodi="http://sodipodi.sourceforge.net/DTD/sodipodi-0.dtd"
   xmlns:inkscape="http://www.inkscape.org/namespaces/inkscape"
   id="svg11037"
   height="96"
   width="96"
   version="1.1"
   inkscape:version="0.48.5 r10040"
   sodipodi:docname="media-player-banshee.svg">
  <sodipodi:namedview
     pagecolor="#ffffff"
     bordercolor="#666666"
     borderopacity="1"
     objecttolerance="10"
     gridtolerance="10"
     guidetolerance="10"
     inkscape:pageopacity="0"
     inkscape:pageshadow="2"
     inkscape:window-width="640"
     inkscape:window-height="480"
     id="namedview3589" />
  <defs
     id="defs11039">
    <linearGradient
       id="linearGradient3706"
       y2="5.9877"
       gradientUnits="userSpaceOnUse"
       x2="48"
       y1="90"
       x1="48">
      <stop
         id="stop3189"
         style="stop-color:#e0880b"
         offset="0" />
      <stop
         id="stop3191"
         style="stop-color:#f7ce50"
         offset="1" />
    </linearGradient>
    <clipPath
       id="clipPath3672">
      <rect
         id="rect3674"
         style="fill:#fff"
         rx="7.9457"
         ry="7.9432"
         height="111.21"
         width="111.24"
         y="11.194"
         x="11.498" />
    </clipPath>
    <filter
       id="filter3666"
       color-interpolation-filters="sRGB">
      <feGaussianBlur
         id="feGaussianBlur3668"
         stdDeviation="1.83514" />
    </filter>
    <linearGradient
       id="linearGradient2908"
       y2="138.66"
       gradientUnits="userSpaceOnUse"
       x2="48"
       y1="20.221"
       x1="48">
      <stop
         id="stop3739-1"
         style="stop-color:#fff"
         offset="0" />
      <stop
         id="stop3741-5"
         style="stop-color:#fff;stop-opacity:0"
         offset="1" />
    </linearGradient>
    <clipPath
       id="clipPath3613">
      <rect
         id="rect3615"
         style="fill:#fff"
         rx="6"
         ry="6"
         height="84"
         width="84"
         y="6"
         x="6" />
    </clipPath>
    <filter
       id="filter3794-9"
       height="1.384"
       width="1.384"
       color-interpolation-filters="sRGB"
       y="-.192"
       x="-.192">
      <feGaussianBlur
         id="feGaussianBlur3796-4"
         stdDeviation="5.28" />
    </filter>
    <linearGradient
       id="linearGradient3783"
       y2="-17"
       xlink:href="#linearGradient3770"
       gradientUnits="userSpaceOnUse"
       x2="48"
       y1="87"
       x1="48" />
    <linearGradient
       id="linearGradient3770">
      <stop
         id="stop3772"
         offset="0" />
      <stop
         id="stop3774"
         style="stop-opacity:0"
         offset="1" />
    </linearGradient>
    <linearGradient
       id="linearGradient3778"
       y2="-16"
       xlink:href="#linearGradient3770"
       gradientUnits="userSpaceOnUse"
       x2="48"
       y1="88"
       x1="48" />
    <radialGradient
       id="radialGradient3777"
       gradientUnits="userSpaceOnUse"
       cy="57.679"
       cx="63.75"
       gradientTransform="matrix(-1.5582 1.4064e-7 -1.2408e-7 -1.3644 163.08 137.56)"
       r="34">
      <stop
         id="stop7987"
         style="stop-color:#fff"
         offset="0" />
      <stop
         id="stop7997"
         style="stop-color:#fff"
         offset=".1" />
      <stop
         id="stop7993"
         style="stop-color:#e6e6e6"
         offset="0.3" />
      <stop
         id="stop7995"
         style="stop-color:#bebebe"
         offset="0.8" />
      <stop
         id="stop7989"
         style="stop-color:#e6e6e6"
         offset="1" />
    </radialGradient>
    <linearGradient
       id="linearGradient3811"
       y2="87.928"
       gradientUnits="userSpaceOnUse"
       x2="65.769"
       gradientTransform="matrix(.76489 0 0 .76489 1.7349 1.5614)"
       y1="16.687"
       x1="46.808">
      <stop
         id="stop8007"
         style="stop-color:#2f70b4"
         offset="0" />
      <stop
         id="stop8009"
         style="stop-color:#4588ce"
         offset="1" />
    </linearGradient>
    <filter
       id="filter8019"
       height="1.2886"
       width="1.0757"
       color-interpolation-filters="sRGB"
       y="-.14432"
       x="-.037872">
      <feGaussianBlur
         id="feGaussianBlur8021"
         stdDeviation="0.37938072" />
    </filter>
    <radialGradient
       id="radialGradient3798"
       gradientUnits="userSpaceOnUse"
       cy="77.798"
       cx="48.172"
       gradientTransform="matrix(1.6339 1.7473e-7 -3.0352e-7 2.8381 -30.535 -134.76)"
       r="15.496">
      <stop
         id="stop8035"
         style="stop-color:#fff"
         offset="0" />
      <stop
         id="stop8037"
         style="stop-color:#fff;stop-opacity:0"
         offset="1" />
    </radialGradient>
    <filter
       id="filter8041"
       color-interpolation-filters="sRGB">
      <feGaussianBlur
         id="feGaussianBlur8043"
         stdDeviation="0.78995058" />
    </filter>
    <filter
       id="filter8047"
       color-interpolation-filters="sRGB">
      <feGaussianBlur
         id="feGaussianBlur8049"
         stdDeviation="0.22026213" />
    </filter>
    <radialGradient
       id="radialGradient3800"
       xlink:href="#linearGradient8053"
       gradientUnits="userSpaceOnUse"
       cy="78"
       cx="76.368"
       r="2.7678" />
    <linearGradient
       id="linearGradient8053">
      <stop
         id="stop8055"
         style="stop-color:#fff"
         offset="0" />
      <stop
         id="stop8057"
         style="stop-color:#fff;stop-opacity:0"
         offset="1" />
    </linearGradient>
    <clipPath
       id="clipPath3953"
       clipPathUnits="userSpaceOnUse">
      <rect
         id="rect3955"
         style="fill:url(#linearGradient3957)"
         rx="22.826"
         ry="22.826"
         height="84"
         width="84"
         y="6"
         x="6" />
    </clipPath>
    <linearGradient
       id="linearGradient3957"
       y2="1046.1"
       gradientUnits="userSpaceOnUse"
       x2="48"
       gradientTransform="matrix(1.05 0 0 1.05 -2.4 -1006.6)"
       y1="962.62"
       x1="48">
      <stop
         id="stop3189-1"
         style="stop-color:#e0880b"
         offset="0" />
      <stop
         id="stop3191-2"
         style="stop-color:#f7ce50"
         offset="1" />
    </linearGradient>
    <clipPath
       id="clipPath3009"
       clipPathUnits="userSpaceOnUse">
      <path
         id="path3011"
         style="opacity:.15;fill:#fff"
         d="m-2 956.36h-96v33.562l96 25.687v-59.25z" />
    </clipPath>
  </defs>
  <metadata
     id="metadata11042">
    <rdf:RDF>
      <cc:Work
         rdf:about="">
        <dc:format>image/svg+xml</dc:format>
        <dc:type
           rdf:resource="http://purl.org/dc/dcmitype/StillImage" />
        <dc:title />
      </cc:Work>
    </rdf:RDF>
  </metadata>
  <g
     id="layer1"
     transform="translate(0 -956.36)">
    <g
       id="g3078"
       clip-path="url(#clipPath3953)"
       transform="matrix(1.0952 0 0 1.0952 -4.5714 951.79)">
      <g
         id="layer1-2">
        <rect
           id="rect2419"
           style="fill:url(#linearGradient3706)"
           rx="6"
           ry="6"
           height="84"
           width="84"
           y="6"
           x="6" />
        <path
           id="path6999"
           style="opacity:.2;filter:url(#filter3666);stroke:#fff;stroke-width:5.3885;fill:none"
           d="m3.2716 125c36.599-2.9745 74.207 0.75124 109.81-10.08 17.05-3.94 33.98-17.92 41.79-38.31m-153.85 41.79c36.042-4.2475 73.274-2.0836 108.26-13.796 16.872-4.5481 33.519-18.496 41.53-38.584m-152.05 45.77c35.485-5.5206 72.342-4.9185 106.7-17.512 16.691-5.1597 33.052-19.072 41.268-38.856m-150.22 49.758c34.928-6.791 71.408-7.751 105.15-21.226 16.51-5.771 32.59-19.647 41.01-39.128m-148.42 53.75c34.372-8.066 70.476-10.588 103.6-24.944 16.326-6.383 32.116-20.223 40.746-39.401m-146.6 57.739c33.815-9.34 69.543-13.423 102.05-28.661 16.14-6.994 31.65-20.797 40.48-39.672m-144.78 61.727c33.258-10.613 68.61-16.258 100.5-32.377 15.964-7.606 31.184-21.373 40.214-39.945m-142.97 65.716c32.702-11.886 67.677-19.093 98.944-36.093 15.785-8.218 30.725-21.949 39.955-40.217m-141.15 69.703c32.145-13.159 66.744-21.927 97.392-39.808 15.603-8.83 30.251-22.524 39.701-40.49m-139.35 73.692c31.588-14.432 65.811-24.762 95.84-43.525 15.422-9.441 29.787-23.099 39.437-40.762m-137.53 77.681c31.032-15.705 64.879-27.598 94.288-47.241 15.241-10.053 29.324-23.675 39.174-41.034m-135.72 81.669c30.474-16.978 63.945-30.433 92.736-50.957 15.059-10.665 28.86-24.25 38.91-41.307m-133.9 85.657c29.917-18.251 63.012-33.267 91.184-54.673 14.878-11.276 28.39-24.825 38.646-41.578m-132.09 89.646c29.366-19.525 62.085-36.103 89.638-58.39 14.696-11.888 27.923-25.401 38.382-41.851"
           clip-path="url(#clipPath3672)"
           transform="matrix(.75512 0 0 .75536 -2.6825 -2.4555)" />
      </g>
      <g
         id="layer5">
        <rect
           id="rect3171"
           style="opacity:.15;filter:url(#filter3794-9);stroke:#fff;stroke-linecap:round;stroke-width:.5;fill:url(#linearGradient2908)"
           clip-path="url(#clipPath3613)"
           rx="12"
           ry="12"
           height="66"
           width="66"
           y="15"
           x="15" />
      </g>
      <g
         id="layer3">
        <path
           id="path3768"
           d="m45.406 11.281c-7.3987 0.09251-15.774 1.4711-21.062 7.625a1.0093 1.0093 0 0 0 -0.03125 0c-2.7685 3.3436-6.0412 6.2212-9.7812 8.375l0.03125 0.03125c-1.2088 0.51127-1.8897 1.7033-1.875 2.8438 0.01545 1.2019 0.80962 2.5295 2.2188 2.8438a1.0093 1.0093 0 0 0 0.125 0c5.4983 0.59523 11.471 0.0988 16.344-3.2188a1.0093 1.0093 0 0 0 0.03 -0.031c0.75674-0.54149 1.4257-0.76658 1.6875-0.84375 0.0066 0.14419 0.04089 0.25114-0.0625 0.6875a1.0093 1.0093 0 0 0 -0.031 0.218v9.125c-8.2477 6.4434-12.299 17.89-9.0312 28 0.0028 0.0094-0.0028 0.02188 0 0.03125 3.7735 12.714 17.254 20.807 30.188 19.656 0.01032-0.000545 0.02093 0.000557 0.03125 0 12.608-0.67982 24.525-10.224 26.5-23 0.0016-0.01014-0.0016-0.02111 0-0.03125 2.023-11.213-4.377-22.726-14.344-27.812-5.412-2.856-11.742-4.126-17.875-3.187-0.024-6.237 0.077-12.514-0.063-18.782a1.0093 1.0093 0 0 0 0 -0.15625c-0.27175-1.422-1.5577-2.3874-2.9688-2.375-0.01038 0.000091-0.02085-0.000198-0.03125 0z"
           style="opacity:.05;fill-rule:evenodd;block-progression:tb;text-indent:0;color:#000000;text-transform:none;fill:url(#linearGradient3783)"
           transform="translate(0,1)" />
        <path
           id="path3762"
           d="m45.438 13.281c-7.2879 0.08767-15.339 1.4809-20.337 7.2963-2.8377 3.4271-6.2037 6.3529-10.058 8.5725-1.774 0.601-1.794 3.432 0.082 3.85 5.358 0.58004 11.096 0.06399 15.688-3.0625 1.8773-1.3433 3.8813-2.054 3.1875 0.87416v9.5946c-8.1924 6.1232-12.247 17.403-9.0539 27.237 3.6107 12.218 16.67 20.092 29.139 18.968 12.151-0.641 23.709-9.899 25.589-22.163 1.951-10.734-4.229-21.882-13.81-26.771-5.577-2.944-12.17-4.222-18.396-2.958-0.043-6.624 0.085-13.26-0.063-19.875-0.173-0.908-1.049-1.58-1.968-1.563z"
           style="opacity:.1;fill-rule:evenodd;block-progression:tb;text-indent:0;color:#000000;text-transform:none;fill:url(#linearGradient3778)" />
        <path
           id="path3757"
           d="m45.469 13.281-1.031 0.031c-9.1946 0.33806-13.765 2.4558-16.969 5.3438-3.1816 2.8682-4.8709 5.8915-9.5625 8.8438l-2.781 1.781a0.98423 0.98423 0 0 0 0.5 1.8125l3.2812 0.09375c5.437 0.15598 8.8549-1.5551 11.375-3.0938 1.805-1.102 3.153-1.86 4.719-2.219v13.938c-6.1445 4.6182-10.125 11.67-10.125 19.625 0 13.978 12.152 25.25 27.062 25.25 14.911 0 27.063-11.273 27.063-25.25 0-13.978-12.153-25.219-27.062-25.219-1.8793 0-3.6845 0.25641-5.4688 0.59375v-19.531-1.0312a0.98423 0.98423 0 0 0 -1 -0.96875z"
           style="opacity:.15;block-progression:tb;fill-rule:evenodd;text-indent:0;color:#000000;text-transform:none;fill:url(#linearGradient3783)"
           transform="translate(0,1)" />
        <path
           id="path3813"
           d="m45.5 15.25-1.0312 0.03125c-9.0601 0.33312-13.3 2.3496-16.344 5.0938s-4.8286 5.9112-9.6875 8.9688l-2.7812 1.7812 3.2812 0.09375c5.2235 0.14985 8.3753-1.4617 10.844-2.9688 2.1794-1.3306 3.8059-2.4519 6.1875-2.625v15.625c-6.1685 4.4397-10.125 11.372-10.125 19.188 0 13.406 11.678 24.281 26.094 24.281s26.094-10.875 26.094-24.281-11.678-24.25-26.094-24.25c-2.2179 0-4.3815 0.2346-6.4375 0.71875v-20.625-1.0312z"
           style="opacity:.3;block-progression:tb;fill-rule:evenodd;text-indent:0;color:#000000;text-transform:none;fill:url(#linearGradient3778)" />
        <path
           id="path7975"
           d="m97.75 73.75a34 31.5 0 1 1 -68 0 34 31.5 0 1 1 68 0z"
           style="fill:url(#radialGradient3777)"
           transform="matrix(.76770 0 0 .77059 2.9898 1.6188)" />
        <g
           id="g3817">
          <path
             id="path8000"
             d="m44.501 14.276c-17.858 0.6566-15.477 7.6001-25.534 13.929 10.033 0.28784 11.424-5.9038 17.99-5.6411v46.081c9.935 0.928 34.302 1.231 31.546-14.834-2.111-12.308-24.002-3.552-24.002-3.552v-35.982zm10.144 38.118c2.7416 0.01475 5.0779 0.60668 5.5014 3.3429 1.2864 8.3114-15.785 8.3572-15.785 8.3572v-9.6572s5.714-2.0675 10.283-2.0429z"
             style="fill-rule:evenodd;stroke:#28609b;stroke-width:2;fill:url(#linearGradient3811)" />
          <path
             id="path8013"
             d="m55.154 65.598c22.186-7.778 26.163-2.598 26.163-2.598s-9.6934-2.6171-26.075 5.0727l-0.08839-2.4749z"
             style="opacity:.4;filter:url(#filter8019);fill:#fff;fill-rule:evenodd"
             transform="matrix(.76489 0 0 .76489 1.7349 1.5614)" />
          <path
             id="path8023"
             d="m48.702 39.788v45.697s13.789 1.7678 28.991-3.182"
             style="opacity:.5;filter:url(#filter8041);stroke:url(#radialGradient3798);stroke-width:2.6148;fill:none"
             transform="matrix(.76489 0 0 .76489 1.7349 1.5614)" />
          <path
             id="path8045"
             d="m77.264 78.958c-5.5886 4.299-11.178 3.146-11.178 3.146s6.4878-0.58646 10.311-5.4656c0 0 3.1655 0.55181 0.86739 2.3196z"
             style="opacity:.4;filter:url(#filter8047);fill:#fff;fill-rule:evenodd"
             transform="matrix(.76489 0 0 .76489 1.7349 1.5614)" />
          <path
             id="path8051"
             d="m79.135 78a2.7678 2.7678 0 1 1 -5.5357 0 2.7678 2.7678 0 1 1 5.5357 0z"
             style="fill:url(#radialGradient3800)"
             transform="matrix(1.126 -.74675 .54425 .82065 -67.833 54.307)" />
          <path
             id="path8061"
             d="m27.904 29.973c17.868-8.339 16.993-2.375 29.919-0.808-8.138 0.631-15.373-7.038-29.83 3.283l-0.08839-2.4749z"
             style="opacity:.4;filter:url(#filter8019);fill:#fff;fill-rule:evenodd"
             transform="matrix(-.65021 .40285 .40285 .65021 48.407 -15.249)" />
          <path
             id="path8063"
             d="m79.135 78a2.7678 2.7678 0 1 1 -5.5357 0 2.7678 2.7678 0 1 1 5.5357 0z"
             style="opacity:.8;fill:url(#radialGradient3800)"
             transform="matrix(.81502 -.54052 .39394 .59401 -63.243 14.645)" />
        </g>
      </g>
    </g>
    <rect
       id="rect3003"
       style="opacity:.15;fill:#fff"
       transform="translate(98 3.8281e-7)"
       clip-path="url(#clipPath3009)"
       rx="25"
       ry="25"
       height="92"
       width="92"
       y="958.36"
       x="-96" />
  </g>
</svg>
