<svg height="96" width="96" xmlns="http://www.w3.org/2000/svg" xmlns:sodipodi="http://sodipodi.sourceforge.net/DTD/sodipodi-0.dtd" xmlns:inkscape="http://www.inkscape.org/namespaces/inkscape">
 <rect x="8" rx="10.769" y="8" fill="#045" fill-opacity="1" stroke="none" height="80" width="80"/>
 <g transform="matrix(1 0 0 1 -0.546 -0.544)">
  <path d="m 80.889767,59.444235 a 28.586692,26.58443 0 0 1 -57.173383,0 28.586692,26.58443 0 1 1 57.173383,0 z" fill="#e6e6e6" inkscape:connector-curvature="0"/>
  <path d="M 44.166095,11.065075 C 24.608014,11.784184 27.215685,19.388705 16.201258,26.320116 27.1894,26.635358 28.712823,19.854274 35.903906,20.141983 V 70.609894 C 46.784718,71.62624 73.471457,71.958086 70.453086,54.363698 68.141118,40.883976 44.166095,50.473547 44.166095,50.473547 V 11.066061 z m 11.109709,41.746834 c 3.0026,0.01615 5.561316,0.664436 6.025133,3.661144 1.408866,9.102645 -17.287732,9.152805 -17.287732,9.152805 V 55.049293 c 0,0 6.257973,-2.264326 11.261942,-2.237384 z" fill="#37abc8" fill-rule="evenodd" stroke="none" inkscape:connector-curvature="0"/>
 </g>
</svg>
