<svg height="96" width="96" xmlns="http://www.w3.org/2000/svg" xmlns:sodipodi="http://sodipodi.sourceforge.net/DTD/sodipodi-0.dtd" xmlns:inkscape="http://www.inkscape.org/namespaces/inkscape">
 <defs>
  <linearGradient x2="0" y1="962.62" y2="1046.1" gradientUnits="userSpaceOnUse" id="linearGradient11642" gradientTransform="matrix(1.15 0 0 1.15 -7.2 -150.65)">
   <stop stop-color="#c29656"/>
   <stop stop-color="#ddc08b" offset="1"/>
  </linearGradient>
  <linearGradient x1="-26.434" x2="-15.63" y1="14.381" y2="30.01" gradientUnits="userSpaceOnUse" id="linearGradient4154" gradientTransform="matrix(1.9955 0 0 1.9955 95.19 14.11)">
   <stop stop-color="#f7a164"/>
   <stop stop-color="#e11c26" offset="1"/>
  </linearGradient>
  <linearGradient x1="-19.536" x2="-8.76" y1="21.995" y2="30.07" gradientUnits="userSpaceOnUse" id="linearGradient4156" gradientTransform="matrix(1.9955 0 0 1.9955 95.19 14.11)">
   <stop stop-color="#8badea"/>
   <stop stop-color="#3b7caf" offset="1"/>
  </linearGradient>
  <linearGradient x1="-17.863" x2="-20.822" y1="30.828" y2="25.02" gradientUnits="userSpaceOnUse" id="linearGradient4158" gradientTransform="matrix(1.9955 0 0 1.9955 95.19 14.11)">
   <stop stop-color="#8cab2a"/>
   <stop stop-color="#d7e866" offset="1"/>
  </linearGradient>
  <linearGradient x1="-20.75" x2="-19.5" y1="29" y2="18.75" gradientUnits="userSpaceOnUse" id="linearGradient3132">
   <stop stop-color="#fff"/>
   <stop stop-color="#fff" stop-opacity="0" offset="1"/>
  </linearGradient>
  <clipPath clipPathUnits="userSpaceOnUse" id="clipPath3009">
   <path d="m-2 956.36h-96v33.562l96 25.687v-59.25z"/>
  </clipPath>
 </defs>
 <g transform="matrix(1 0 0 1 0 -956.36)">
  <rect x="2" rx="25" y="958.36" fill="url(#linearGradient11642)" height="92" width="92"/>
  <g transform="matrix(1 0 0 1 0 956.36)">
   <path d="m64 50.938c-7.0005 0-13.373 1.8561-18.125 5-4.7563 3.1468-7.9688 7.7313-7.9688 12.969v4.125c0 4.5561 2.4359 8.6309 6.1875 11.656 3.5839 2.8901 8.459 4.8387 13.875 5.7188 0.04558 0.02528 0.09512 0.06319 0.09375 0.0625-0.0022-0.0011 0.15856 0.06342 0.15625 0.0625-0.0023-0.000922 0.15862 0.06323 0.15625 0.0625-0.0024-0.000725 0.18993 0.03177 0.1875 0.03125 3.9273 0.7684 9.6975 0.71965 14-0.625 0.03724-0.01164 0.08798 0.01184 0.125 0 0.03384-0.0059 0.0226 0.01003 0.0625 0 0.38446-0.09667 0.75922-0.19863 1.1562-0.3125 0.01186-0.0033 0.01987 0.0033 0.03125 0 0.10245-0.02949 0.18772-0.07119 0.25-0.09375 0.0346-0.01253 0.07731-0.0248 0.09375-0.03125 0.02947-0.0083 0.0675-0.02302 0.09375-0.03125 0.0525-0.01647 0.09228-0.0188 0.1875-0.0625 0.33683-0.10302 0.6611-0.22783 1-0.34375a1.0935 1.0935 0 0 0 0.09375 -0.03125c0.032-0.012 0.062-0.022 0.094-0.033a1.0935 1.0935 0 0 0 0.03125 0c0.16059-0.05553 0.29599-0.09667 0.375-0.125 0.37338-0.13405 0.73017-0.27767 1.125-0.4375 0.34163-0.13673 0.66219-0.27157 0.96875-0.40625 0.16346-0.07299 0.31298-0.12844 0.4375-0.1875 0.01826-0.0087 0.04527-0.02313 0.0625-0.03125 0.0036-0.0013 0.03116 0.000044 0.03125 0 0.4945-0.22829 0.97979-0.4887 1.4688-0.75a1.0935 1.0935 0 0 0 0.03125 0c0.05017-0.02736 0.0851-0.07047 0.125-0.09375 0.01773-0.01035 0.04567-0.021 0.0625-0.03125 2.8377-1.5489 5.353-3.5831 7.125-6.2188h0.03125c0.0043-0.0065-0.0043-0.02476 0-0.03125 0.2158-0.31666 0.38085-0.58227 0.5-0.78125a1.0935 1.0935 0 0 0 0 -0.03125c0.0067-0.01161 0.05248-0.04582 0.0625-0.0625a1.0935 1.0935 0 0 0 0.03125 -0.09375c0.04494-0.07483 0.09223-0.13279 0.15625-0.25 0.0089-0.01623-0.0078-0.01517 0-0.03125 0.16127-0.29329 0.32253-0.59085 0.46875-0.90625a1.0935 1.0935 0 0 0 0 -0.0625 1.0935 1.0935 0 0 0 0.03125 -0.0625c0.0035-0.0075-0.0035-0.02372 0-0.03125 0.0026-0.007-0.0027-0.02357 0-0.03125a1.0935 1.0935 0 0 0 0.031 -0.029c0.0033-0.01174-0.0032-0.0183 0-0.03125 0.0021-0.0083-0.002-0.0224 0-0.03125 0.0051-0.01093 0.02606-0.02022 0.03125-0.03125 0.16752-0.35585 0.34324-0.74176 0.5-1.2188-0.0027 0.0084 0.03117-0.08923 0.0625-0.1875 0.0089-0.02807-0.0061-0.03406 0-0.0625 0.0042-0.01375-0.0035-0.0172 0-0.03125 0.25386-0.83226 0.44787-1.7132 0.53125-2.625 0.0098-0.03676 0.02506-0.06247 0.03125-0.09375 0.01631-0.19725 0.01162-0.214 0-0.0625 0.0075-0.04796 0.02637-0.10606 0.03125-0.15625a1.0935 1.0935 0 0 0 0 -0.03125c-0.000092 0.002-0.000039-0.09874 0-0.15625v-0.0625-0.5625-4.125c0-5.2374-3.2126-9.822-7.9688-12.969-4.7518-3.1439-11.124-5-18.125-5zm24.75 26.5c0.02018 0.028 0.03146 0.06284 0.03125 0.0625-0.015-0.024-0.013-0.035-0.031-0.062z" opacity="0.08" transform="matrix(1 0 0 1 -6 -5)"/>
   <path d="m64 52.031c-6.8068 0-12.992 1.8093-17.531 4.8125-4.54 3.003-7.469 7.27-7.469 12.062v4.125c0 4.1676 2.2211 7.9415 5.7812 10.812 3.4662 2.7952 8.2621 4.7342 13.656 5.5625 0.01315 0.002 0.01809 0.02925 0.03125 0.03125a1.0049 1.0049 0 0 0 0.3125 0.125c3.7614 0.73594 9.5904 0.68157 13.625-0.625 0.01926-0.0048 0.04323 0.0048 0.0625 0 0.38126-0.09586 0.75847-0.1981 1.1562-0.3125 0.18426-0.0515 0.26721-0.08968 0.28125-0.09375 0.22904-0.06794 0.27555-0.0985 0.15625-0.0625 0.4385-0.12969 0.88258-0.27823 1.3438-0.4375a1.0049 1.0049 0 0 0 0.03125 0c0.13915-0.04812 0.24344-0.08903 0.34375-0.125 0.37837-0.13584 0.72951-0.2588 1.0938-0.40625 0.30618-0.12254 0.61976-0.26666 0.9375-0.40625 0.16792-0.07498 0.3266-0.15174 0.46875-0.21875 0.0082-0.0038 0.02303 0.0038 0.03125 0 0.47048-0.2172 0.96464-0.46606 1.4375-0.71875 0.24869-0.13563 0.23331-0.14801 0.125-0.09375 0.0077-0.0042 0.02353 0.0042 0.03125 0 2.7546-1.498 5.1571-3.4287 6.8125-5.9062 0.19959-0.29066 0.33871-0.53284 0.46875-0.75a1.0049 1.0049 0 0 0 0 -0.03125c0.05571-0.09597 0.13353-0.21897 0.21875-0.375 0.0054-0.0099-0.0055-0.02108 0-0.03125 0.15852-0.28828 0.31116-0.57123 0.4375-0.84375a1.0049 1.0049 0 0 0 0 -0.03125c0.0095-0.02126-0.008-0.01122 0-0.03125 0.0098-0.02191-0.0082-0.01072 0-0.03125 0.19521-0.42545 0.41124-0.85223 0.5625-1.3125 0.01041-0.03204 0.03769-0.1097 0.0625-0.1875 0.0038-0.01184-0.004-0.01838 0-0.03125 0.24733-0.80494 0.42842-1.6656 0.5-2.5312 0.0017-0.0206-0.0016-0.04187 0-0.0625 0.007-0.01 0.02-0.021 0.033-0.156a1.0049 1.0049 0 0 0 0 -0.09375v-0.625-4.125c0-4.791-2.93-9.059-7.469-12.062s-10.724-4.813-17.531-4.813z" opacity="0.15" transform="matrix(1 0 0 1 -6 -5)"/>
   <path d="m58 48.031c-13.254 0-24 7.1129-24 15.875v4.125c0 7.6206 8.1286 13.972 18.969 15.5v0.03125c3.5634 0.6972 9.437 0.63644 13.188-0.59375 0.40102-0.10085 0.79143-0.1986 1.1875-0.3125 0.0966-0.02699 0.18533-0.06595 0.28125-0.09375 0.0533-0.01582 0.10303-0.04644 0.15625-0.0625 0.44272-0.13094 0.88447-0.25842 1.3125-0.40625 0.1166-0.04032 0.22788-0.08345 0.34375-0.125 0.36522-0.13112 0.70904-0.26316 1.0625-0.40625 0.30508-0.1221 0.60783-0.2439 0.90625-0.375 0.15855-0.0708 0.31293-0.14554 0.46875-0.21875 0.47171-0.21757 0.95517-0.44645 1.4062-0.6875 0.0466-0.02542 0.0787-0.0681 0.125-0.09375 2.66-1.4432 4.9239-3.2817 6.4688-5.5938 0.16134-0.23497 0.29324-0.47783 0.4375-0.71875 0.0726-0.12506 0.15028-0.24747 0.21875-0.375 0.14597-0.26351 0.28115-0.54265 0.40625-0.8125 0.004-0.0087-0.004-0.02255 0-0.03125 0.18814-0.4083 0.36146-0.82846 0.5-1.25 0.0201-0.0618 0.0433-0.12521 0.0625-0.1875 0.23975-0.77445 0.40655-1.5639 0.46875-2.375 0.007-0.06419 0.025-0.12286 0.0313-0.1875v-0.625-4.125c0-8.7621-10.745-15.875-24-15.875z" opacity="0.3"/>
   <path d="m81.174 62.905c-2.751-6.758-12.08-11.734-23.173-11.734-11.094 0-20.422 4.976-23.173 11.734h-0.82774v4.1307c0 8.7608 10.747 15.862 24.001 15.862 13.255 0 23.999-7.101 23.999-15.862v-4.1307h-0.82646z" fill="#b82525"/>
   <path d="m82 62.905c0 8.762-10.744 15.863-23.999 15.863-13.256 0-24.001-7.101-24.001-15.863s10.747-15.863 24.001-15.863c13.255 0 23.999 7.101 23.999 15.863z" fill="url(#linearGradient4154)"/>
   <path d="m82 67.654-0.0307-4.3232c-2.6024 8.9815-8.4542 12.786-15.812 14.649v3.98c7.9635-2.0028 15.09-6.5628 15.842-14.306z" fill="#39619a"/>
   <path d="m82 62.905c-0.55 10.136-13.086 14.758-15.887 14.935l-8.1134-14.935h23.999 0.001z" fill="url(#linearGradient4156)"/>
   <path d="m52.977 82.551v-4.1294c4.5167 0.58818 8.6605 0.69182 13.136-0.42666l0.0448 3.9665c-3.7505 1.2302-9.6177 1.2881-13.181 0.59087v-0.0013z" fill="#70851f"/>
   <path d="m57.999 62.907 8.1134 14.933c-4.9677 1.8937-13.136 0.58145-13.136 0.58145l5.0228-15.515z" fill="url(#linearGradient4158)"/>
   <path d="m-6.875 24.375a11.75 7.75 0 1 1 -23.5 0 11.75 7.75 0 1 1 23.5 0z" stroke-width="0.496" display="block" fill="none" color="#000000" stroke="url(#linearGradient3132)" opacity="0.25" transform="matrix(2.0143 0 0 2.0159 95.54 13.61)"/>
  </g>
  <rect x="-96" rx="25" y="958.36" clip-path="url(#clipPath3009)" fill="#fff" height="92" opacity="0.15" width="92" transform="matrix(1 0 0 1 98 0)"/>
 </g>
</svg>
