<?xml version="1.0" encoding="UTF-8" standalone="no"?>
<!-- Created with Inkscape (http://www.inkscape.org/) -->

<svg
   xmlns:dc="http://purl.org/dc/elements/1.1/"
   xmlns:cc="http://creativecommons.org/ns#"
   xmlns:rdf="http://www.w3.org/1999/02/22-rdf-syntax-ns#"
   xmlns:svg="http://www.w3.org/2000/svg"
   xmlns="http://www.w3.org/2000/svg"
   xmlns:sodipodi="http://sodipodi.sourceforge.net/DTD/sodipodi-0.dtd"
   xmlns:inkscape="http://www.inkscape.org/namespaces/inkscape"
   id="svg11037"
   height="96"
   width="96"
   version="1.1"
   inkscape:version="0.48.5 r10040"
   sodipodi:docname="blankon-tweak.svg">
  <sodipodi:namedview
     pagecolor="#ffffff"
     bordercolor="#666666"
     borderopacity="1"
     objecttolerance="10"
     gridtolerance="10"
     guidetolerance="10"
     inkscape:pageopacity="0"
     inkscape:pageshadow="2"
     inkscape:window-width="640"
     inkscape:window-height="480"
     id="namedview3909" />
  <defs
     id="defs11039">
    <clipPath
       id="clipPath3009"
       clipPathUnits="userSpaceOnUse">
      <path
         id="path3011"
         style="opacity:.15;fill:#fff"
         d="m-2 956.36h-96v33.562l96 25.687v-59.25z" />
    </clipPath>
    <linearGradient
       id="linearGradient3888"
       y2="1004.4"
       gradientUnits="userSpaceOnUse"
       x2="94"
       gradientTransform="translate(3.7606e-7,956.36)"
       y1="1004.4"
       x1="2">
      <stop
         id="stop3726-1-7"
         style="stop-color:#ffa92a"
         offset="0" />
      <stop
         id="stop3728-0-3"
         style="stop-color:#ffcf2a"
         offset="1" />
    </linearGradient>
  </defs>
  <metadata
     id="metadata11042">
    <rdf:RDF>
      <cc:Work
         rdf:about="">
        <dc:format>image/svg+xml</dc:format>
        <dc:type
           rdf:resource="http://purl.org/dc/dcmitype/StillImage" />
        <dc:title />
      </cc:Work>
    </rdf:RDF>
  </metadata>
  <g
     id="layer1"
     transform="translate(0 -956.36)">
    <rect
       id="rect3867"
       style="fill:url(#linearGradient3888)"
       rx="25"
       ry="25"
       height="92"
       width="92"
       y="958.36"
       x="2" />
    <g
       id="g3982"
       transform="translate(-1.4e-7,956.36)">
      <g
         id="g3924"
         transform="translate(0 .035460)">
        <g
           id="g3931"
           transform="translate(-1.2323 1.2323)">
          <g
             id="g3974"
             transform="matrix(1.0355 0 0 1.0355 -.45213 -2.9876)">
            <path
               id="path3711"
               style="opacity:.4;color:#000000;stroke:#000"
               d="m40.625 12.75c-4.4789 0.9333-8.6446 2.7274-12.344 5.1562 0.10781 2.6954-0.85119 5.4137-2.9062 7.4688-2.0551 2.0551-4.7733 3.0141-7.4688 2.9062-2.429 3.699-4.223 7.865-5.156 12.344 1.998 1.828 3.25 4.453 3.25 7.375 0 2.9219-1.2518 5.5466-3.25 7.375 0.9333 4.4789 2.7274 8.6446 5.1562 12.344 2.6954-0.10781 5.4137 0.85119 7.4688 2.9062 2.0551 2.0551 3.0141 4.7733 2.9062 7.4688 3.699 2.429 7.865 4.223 12.344 5.156 1.828-1.998 4.453-3.25 7.375-3.25 2.9219 0 5.5466 1.2518 7.375 3.25 4.4644-0.93028 8.6222-2.7083 12.312-5.125-0.0063-0.14435 0-0.29318 0-0.4375 0-2.5592 0.98488-5.1099 2.9375-7.0625 2.0551-2.0551 4.7733-3.0141 7.4688-2.9062 2.43-3.699 4.224-7.865 5.157-12.344-1.998-1.828-3.25-4.453-3.25-7.375s1.252-5.547 3.25-7.375c-0.933-4.479-2.727-8.645-5.156-12.344-2.696 0.108-5.414-0.851-7.469-2.906-1.9526-1.9526-2.9375-4.5033-2.9375-7.0625 0-0.14432-0.0063-0.29315 0-0.4375-3.691-2.417-7.849-4.195-12.313-5.125-1.828 1.998-4.453 3.25-7.375 3.25s-5.547-1.252-7.375-3.25zm-0.15625 1.1562c1.9784 1.8771 4.5935 3.125 7.5312 3.125s5.5528-1.2479 7.5312-3.125c4.0206 0.88744 7.7821 2.4801 11.156 4.625 0.05544 2.7515 1.0945 5.5008 3.1875 7.5938 2.0783 2.0783 4.805 2.9928 7.5312 3.0625 2.1837 3.405 3.7897 7.2154 4.6875 11.281-1.8771 1.9784-3.125 4.5935-3.125 7.5312s1.2479 5.5528 3.125 7.5312c-0.89781 4.0658-2.5038 7.8763-4.6875 11.281-2.7263 0.06969-5.4529 0.98416-7.5312 3.0625-2.093 2.093-3.1321 4.8423-3.1875 7.5938-3.3742 2.1449-7.1356 3.7376-11.156 4.625-1.9784-1.8771-4.5935-3.125-7.5312-3.125s-5.5528 1.2479-7.5312 3.125c-4.0658-0.89781-7.8763-2.5038-11.281-4.6875-0.06969-2.7263-0.98416-5.4529-3.0625-7.5312s-4.805-2.9928-7.5312-3.0625c-2.1837-3.405-3.7897-7.2154-4.6875-11.281 1.8771-1.9784 3.125-4.5935 3.125-7.5312s-1.2479-5.5528-3.125-7.5312c0.89781-4.0658 2.5038-7.8763 4.6875-11.281 2.7263-0.06969 5.4529-0.98416 7.5312-3.0625s2.9928-4.805 3.0625-7.5312c3.405-2.1837 7.2154-3.7897 11.281-4.6875zm7.531 25.094c-4.9706 0-9 4.0294-9 9s4.0294 9 9 9 9-4.0294 9-9-4.0294-9-9-9zm0 1c4.4183 0 8 3.5817 8 8s-3.5817 8-8 8-8-3.5817-8-8 3.5817-8 8-8z" />
          </g>
          <g
             id="g3978"
             transform="matrix(.95620 0 0 .95620 89.456 2.8643)">
            <path
               id="path3497"
               style="stroke:#000;stroke-width:8.7773;fill:none"
               d="m-25.141 45.845c0 9.4394-7.6521 17.091-17.091 17.091-9.4393 0-17.091-7.6521-17.091-17.091 0-9.4394 7.6521-17.091 17.091-17.091 9.4394 0 17.091 7.6521 17.091 17.091z" />
            <path
               id="rect4269"
               style="stroke-linejoin:round;stroke:#f00;stroke-width:7.1386;stroke-linecap:round;fill:#fff"
               d="m-17.483 28.446h0.40118v36.683h-0.4016z" />
          </g>
        </g>
      </g>
    </g>
    <rect
       id="rect3003"
       style="opacity:.15;fill:#fff"
       clip-path="url(#clipPath3009)"
       rx="25"
       ry="25"
       transform="translate(98 3.8281e-7)"
       width="92"
       y="958.36"
       x="-96"
       height="92" />
  </g>
</svg>
