<svg height="96" width="96" xmlns="http://www.w3.org/2000/svg" xmlns:sodipodi="http://sodipodi.sourceforge.net/DTD/sodipodi-0.dtd" xmlns:inkscape="http://www.inkscape.org/namespaces/inkscape">
 <rect x="8" rx="10.769" y="8" fill="#1589ea" fill-opacity="1" stroke="none" height="80" width="80"/>
 <path d="m 41.810996,18.419579 c -3.758507,0.783187 -7.254189,2.288721 -10.358572,4.326869 0.09047,2.261868 -0.714283,4.542953 -2.438763,6.267507 -1.724554,1.724555 -4.005555,2.529308 -6.267506,2.438763 -2.038316,3.104047 -3.543767,6.599981 -4.326702,10.358572 1.676639,1.533982 2.727265,3.736773 2.727265,6.188794 0,2.451937 -1.050458,4.654477 -2.727265,6.188794 0.783187,3.758507 2.288721,7.254189 4.326869,10.358572 2.261868,-0.09047 4.542953,0.714284 6.267507,2.438763 1.724555,1.724554 2.529308,4.005555 2.438763,6.267507 3.104047,2.038316 6.599981,3.543766 10.358572,4.326701 1.533982,-1.676639 3.736773,-2.727265 6.188794,-2.727265 2.451937,0 4.654476,1.050458 6.188794,2.727265 3.746339,-0.780653 7.235392,-2.272693 10.331719,-4.300687 -0.0053,-0.121133 0,-0.246025 0,-0.367132 0,-2.147575 0.826471,-4.288016 2.465028,-5.926557 1.724555,-1.724555 4.005555,-2.529308 6.267507,-2.438763 2.039155,-3.104047 3.544606,-6.599981 4.32754,-10.358572 -1.676638,-1.533982 -2.727265,-3.736773 -2.727265,-6.188794 0,-2.452021 1.050627,-4.654812 2.727265,-6.188794 -0.782934,-3.758591 -2.288385,-7.254525 -4.326701,-10.358572 -2.262371,0.09063 -4.543204,-0.714124 -6.267674,-2.438595 -1.638541,-1.63854 -2.465029,-3.778982 -2.465029,-5.926556 0,-0.121108 -0.0053,-0.246 0,-0.367132 -3.097334,-2.028246 -6.586555,-3.52027 -10.332558,-4.300688 -1.533982,1.676639 -3.736773,2.727266 -6.188794,2.727266 -2.452021,0 -4.654812,-1.050627 -6.188794,-2.727266 z m -0.131118,0.970235 c 1.660191,1.575185 3.854674,2.622371 6.31987,2.622371 2.465196,0 4.659679,-1.047186 6.319871,-2.622371 3.37392,0.744703 6.530415,2.081197 9.361652,3.881109 0.04652,2.308944 0.918459,4.616043 2.674817,6.372401 1.744023,1.744023 4.032157,2.511434 6.319871,2.569923 1.83247,2.857335 3.180159,6.054864 3.933555,9.466547 -1.575184,1.660191 -2.62237,3.854675 -2.62237,6.31987 0,2.465196 1.047186,4.65968 2.62237,6.319871 -0.753405,3.41185 -2.101085,6.609464 -3.933555,9.466547 -2.287798,0.05848 -4.575848,0.825866 -6.319871,2.569923 -1.756358,1.756358 -2.628328,4.063457 -2.674817,6.372401 -2.831489,1.799911 -5.9879,3.136439 -9.361652,3.881108 -1.660192,-1.575184 -3.854675,-2.62237 -6.319871,-2.62237 -2.465196,0 -4.659679,1.047186 -6.31987,2.62237 -3.411851,-0.753404 -6.609464,-2.101085 -9.466547,-3.933555 -0.05848,-2.287798 -0.825866,-4.575847 -2.569923,-6.31987 -1.744057,-1.744023 -4.032157,-2.511434 -6.31987,-2.569923 -1.832471,-2.857335 -3.180159,-6.054864 -3.933556,-9.466547 1.575185,-1.660191 2.62237,-3.854675 2.62237,-6.319871 0,-2.465196 -1.047185,-4.659679 -2.62237,-6.31987 0.753405,-3.411851 2.101085,-6.609464 3.933556,-9.466547 2.287797,-0.05848 4.575847,-0.825866 6.31987,-2.569923 1.744023,-1.744056 2.511433,-4.032156 2.569923,-6.31987 2.857334,-1.832471 6.054864,-3.180159 9.466547,-3.933556 z m 6.319702,21.057844 c -4.171121,0 -7.552426,3.381305 -7.552426,7.552426 0,4.171121 3.381305,7.552426 7.552426,7.552426 4.171122,0 7.552427,-3.381305 7.552427,-7.552426 0,-4.171121 -3.381305,-7.552426 -7.552427,-7.552426 z m 0,0.839158 c 3.707654,0 6.713268,3.005614 6.713268,6.713268 0,3.707654 -3.005614,6.713268 -6.713268,6.713268 -3.707654,0 -6.713268,-3.005614 -6.713268,-6.713268 0,-3.707654 3.005614,-6.713268 6.713268,-6.713268 z" stroke-width="0.839" fill="none" color="black" stroke="white" opacity="0.4" inkscape:connector-curvature="0"/>
 <path stroke-width="6.801" d="m 47.84375,31.34375 c -9.151953,0 -16.625,7.503887 -16.625,16.65625 0,9.151977 7.472694,16.625 16.625,16.625 C 56.995703,64.625 64.5,57.152363 64.5,48 64.5,38.848048 56.996113,31.34375 47.84375,31.34375 z m 0,6.8125 c 5.476717,0 9.84375,4.367398 9.84375,9.84375 0,5.476717 -4.367399,9.84375 -9.84375,9.84375 C 42.36713,57.84375 38,53.476329 38,48 c 0,-5.476717 4.367397,-9.84375 9.84375,-9.84375 z" display="inline" fill="white" color="black" fill-opacity="1" stroke="none" visibility="visible" inkscape:connector-curvature="0"/>
 <path stroke-width="5.532" d="m 66.75,31.75 a 2.7662628,2.7662628 0 0 0 -2.46875,2.75 l 0,28.4375 a 2.7662628,2.7662628 0 0 0 2.75,2.75 l 0.3125,0 a 2.7662628,2.7662628 0 0 0 2.78125,-2.75 l 0,-28.4375 a 2.7662628,2.7662628 0 0 0 -2.78125,-2.75 l -0.3125,0 a 2.7662628,2.7662628 0 0 0 -0.28125,0 z" display="inline" fill="white" color="black" fill-opacity="1" stroke="none" fill-rule="nonzero" visibility="visible" inkscape:connector-curvature="0"/>
</svg>
