<svg height="96" width="96" xmlns="http://www.w3.org/2000/svg" xmlns:sodipodi="http://sodipodi.sourceforge.net/DTD/sodipodi-0.dtd" xmlns:inkscape="http://www.inkscape.org/namespaces/inkscape">
 <defs>
  <clipPath clipPathUnits="userSpaceOnUse" id="clipPath3009">
   <path d="m-2 956.36h-96v33.562l96 25.687v-59.25z"/>
  </clipPath>
  <linearGradient x1="2" x2="94" gradientUnits="userSpaceOnUse" id="linearGradient3888" gradientTransform="matrix(1 0 0 1 0 956.36)">
   <stop stop-color="#ffa92a"/>
   <stop stop-color="#ffcf2a" offset="1"/>
  </linearGradient>
 </defs>
 <g transform="matrix(1 0 0 1 0 -956.36)">
  <rect x="2" rx="25" y="958.36" fill="url(#linearGradient3888)" height="92" width="92"/>
  <g transform="matrix(1 0 0 1 -1.232 957.63)">
   <path d="m40.625 12.75c-4.4789 0.9333-8.6446 2.7274-12.344 5.1562 0.10781 2.6954-0.85119 5.4137-2.9062 7.4688-2.0551 2.0551-4.7733 3.0141-7.4688 2.9062-2.429 3.699-4.223 7.865-5.156 12.344 1.998 1.828 3.25 4.453 3.25 7.375 0 2.9219-1.2518 5.5466-3.25 7.375 0.9333 4.4789 2.7274 8.6446 5.1562 12.344 2.6954-0.10781 5.4137 0.85119 7.4688 2.9062 2.0551 2.0551 3.0141 4.7733 2.9062 7.4688 3.699 2.429 7.865 4.223 12.344 5.156 1.828-1.998 4.453-3.25 7.375-3.25 2.9219 0 5.5466 1.2518 7.375 3.25 4.4644-0.93028 8.6222-2.7083 12.312-5.125-0.0063-0.14435 0-0.29318 0-0.4375 0-2.5592 0.98488-5.1099 2.9375-7.0625 2.0551-2.0551 4.7733-3.0141 7.4688-2.9062 2.43-3.699 4.224-7.865 5.157-12.344-1.998-1.828-3.25-4.453-3.25-7.375s1.252-5.547 3.25-7.375c-0.933-4.479-2.727-8.645-5.156-12.344-2.696 0.108-5.414-0.851-7.469-2.906-1.9526-1.9526-2.9375-4.5033-2.9375-7.0625 0-0.14432-0.0063-0.29315 0-0.4375-3.691-2.417-7.849-4.195-12.313-5.125-1.828 1.998-4.453 3.25-7.375 3.25s-5.547-1.252-7.375-3.25zm-0.15625 1.1562c1.9784 1.8771 4.5935 3.125 7.5312 3.125s5.5528-1.2479 7.5312-3.125c4.0206 0.88744 7.7821 2.4801 11.156 4.625 0.05544 2.7515 1.0945 5.5008 3.1875 7.5938 2.0783 2.0783 4.805 2.9928 7.5312 3.0625 2.1837 3.405 3.7897 7.2154 4.6875 11.281-1.8771 1.9784-3.125 4.5935-3.125 7.5312s1.2479 5.5528 3.125 7.5312c-0.89781 4.0658-2.5038 7.8763-4.6875 11.281-2.7263 0.06969-5.4529 0.98416-7.5312 3.0625-2.093 2.093-3.1321 4.8423-3.1875 7.5938-3.3742 2.1449-7.1356 3.7376-11.156 4.625-1.9784-1.8771-4.5935-3.125-7.5312-3.125s-5.5528 1.2479-7.5312 3.125c-4.0658-0.89781-7.8763-2.5038-11.281-4.6875-0.06969-2.7263-0.98416-5.4529-3.0625-7.5312s-4.805-2.9928-7.5312-3.0625c-2.1837-3.405-3.7897-7.2154-4.6875-11.281 1.8771-1.9784 3.125-4.5935 3.125-7.5312s-1.2479-5.5528-3.125-7.5312c0.89781-4.0658 2.5038-7.8763 4.6875-11.281 2.7263-0.06969 5.4529-0.98416 7.5312-3.0625s2.9928-4.805 3.0625-7.5312c3.405-2.1837 7.2154-3.7897 11.281-4.6875zm7.531 25.094c-4.9706 0-9 4.0294-9 9s4.0294 9 9 9 9-4.0294 9-9-4.0294-9-9-9zm0 1c4.4183 0 8 3.5817 8 8s-3.5817 8-8 8-8-3.5817-8-8 3.5817-8 8-8z" color="#000000" stroke="#000" opacity="0.4" transform="matrix(1.0355 0 0 1.0355 -0.452 -2.988)"/>
   <g transform="matrix(0.9562 0 0 0.9562 89.46 2.864)">
    <path d="m-25.141 45.845c0 9.4394-7.6521 17.091-17.091 17.091-9.4393 0-17.091-7.6521-17.091-17.091 0-9.4394 7.6521-17.091 17.091-17.091 9.4394 0 17.091 7.6521 17.091 17.091z" stroke-width="8.777" fill="none" stroke="#000"/>
    <path d="m-17.483 28.446h0.40118v36.683h-0.4016z" stroke-width="7.139" fill="#fff" stroke="#f00" stroke-linecap="round" stroke-linejoin="round"/>
   </g>
  </g>
  <rect x="-96" rx="25" y="958.36" clip-path="url(#clipPath3009)" fill="#fff" height="92" opacity="0.15" width="92" transform="matrix(1 0 0 1 98 0)"/>
 </g>
</svg>
