<svg height="96" width="96" xmlns="http://www.w3.org/2000/svg" xmlns:sodipodi="http://sodipodi.sourceforge.net/DTD/sodipodi-0.dtd" xmlns:inkscape="http://www.inkscape.org/namespaces/inkscape">
 <defs>
  <clipPath id="clipPath3613">
   <rect x="6" rx="6" y="6" height="84" width="84"/>
  </clipPath>
  <filter x="-0.192" y="-0.192" color-interpolation-filters="sRGB" height="1.384" id="filter3794" width="1.384">
   <feGaussianBlur stdDeviation="5.28"/>
  </filter>
  <linearGradient x2="0" y1="20.221" y2="138.66" gradientUnits="userSpaceOnUse" id="linearGradient3216" inkscape:collect="always">
   <stop stop-color="#ffffff" stop-opacity="1"/>
   <stop stop-color="#ffffff" stop-opacity="0" offset="1"/>
  </linearGradient>
 </defs>
 <g inkscape:label="Layer 1" inkscape:groupmode="layer" transform="matrix(1 0 0 1 0 -956.36)">
  <rect stroke="white" stroke-dasharray="none" clip-path="url(#clipPath3613)" stroke-dashoffset="0" stroke-linecap="round" height="66" stroke-linejoin="miter" stroke-miterlimit="4" stroke-opacity="1" stroke-width="0.5" display="inline" width="66" fill="url(#linearGradient3216)" fill-opacity="1" opacity="0.1" x="15" fill-rule="nonzero" filter="url(#filter3794)" y="15" rx="12" transform="matrix(0.47619 0 0 0.47619 25.14 981.5)"/>
  <rect x="8" rx="10.769" y="964.36" fill="#355986" fill-opacity="1" stroke="none" height="80" width="80"/>
  <path d="m 36.376864,1011.4248 c 0.01381,0.7799 0.266251,2.2962 0.638476,3.4857 0.78818,2.5075 2.123494,4.8317 3.983302,6.879 1.90752,2.1004 4.253517,3.7911 6.965133,4.99 2.85333,1.2599 5.942556,1.9035 9.148231,1.8984 3.205655,0 6.294664,-0.6609 9.146634,-1.9299 2.71055,-1.2107 5.056548,-2.9055 6.962726,-5.0113 1.855646,-2.0555 3.188377,-4.3833 3.976477,-6.8922 0.398814,-1.269 0.646346,-2.5552 0.749777,-3.848 0.09941,-1.2703 0.057,-2.5473 -0.124456,-3.8189 -0.352345,-2.4825 -1.214705,-4.8103 -2.537929,-6.9346 -1.213698,-1.94971 -2.775323,-3.65758 -4.631304,-5.09442 0,0 0.002,-0.002 0.002,-0.002 0,0 -18.741252,-14.36213 -18.741252,-14.36213 -0.01578,-0.0138 -0.03057,-0.0264 -0.04773,-0.0383 -1.231943,-0.94115 -3.299757,-0.93853 -4.65089,0.006 -1.369733,0.95441 -1.479712,2.44686 -0.265008,3.44622 2.574714,2.02827 5.139269,4.14922 7.728243,6.17725 0,0 -23.787209,-0.0158 -23.787209,-0.0158 -2.703312,0 -4.293831,1.28197 -4.62876,3.15607 -0.29556,1.65378 1.013641,3.70307 3.361078,3.70307 4.006951,0.006 8.053152,-0.01 12.074362,-0.0178 0,0 -21.551072,15.90989 -21.551072,15.90989 -0.02781,0.021 -0.05562,0.04 -0.08343,0.061 -2.029412,1.5531 -2.68775,4.1375 -1.409457,5.7726 1.300838,1.6629 4.062789,1.6643 6.11867,0.01 0,0 11.76044,-9.6049 11.76044,-9.6049 0,0 -0.169624,1.2981 -0.157593,2.0767 z" fill="#fea529" fill-opacity="1" fill-rule="evenodd" stroke="none" inkscape:connector-curvature="0"/>
  <path d="m 70.192771,1007.9174 a 12.875017,11.495413 0 0 1 -25.750034,0 12.875017,11.495413 0 1 1 25.750034,0 z" stroke-width="1" display="inline" fill="#e6e6e6" fill-opacity="1" fill-rule="nonzero" stroke="none" visibility="visible" inkscape:connector-curvature="0"/>
  <path d="m 49.873385,1006.9086 c 0.100985,-1.8409 1.001944,-3.4658 2.356411,-4.6161 1.332928,-1.1309 3.122816,-1.8214 5.078007,-1.8214 1.953949,0 3.743856,0.6905 5.076469,1.8214 1.355966,1.1503 2.255899,2.774 2.357989,4.6148 0.104536,1.8946 -0.654314,3.6537 -1.984442,4.9565 -1.355965,1.3273 -3.289362,2.1605 -5.450016,2.1605 -2.161876,0 -4.095273,-0.8332 -5.451179,-2.1605 -1.331489,-1.3028 -2.087795,-3.0619 -1.983239,-4.9552 z" fill="#355986" fill-opacity="1" fill-rule="evenodd" stroke="none" inkscape:connector-curvature="0"/>
 </g>
</svg>
