<svg height="96" width="96" xmlns="http://www.w3.org/2000/svg" xmlns:sodipodi="http://sodipodi.sourceforge.net/DTD/sodipodi-0.dtd" xmlns:inkscape="http://www.inkscape.org/namespaces/inkscape">
 <defs>
  <linearGradient x1="392.57" x2="424.57" gradientUnits="userSpaceOnUse" id="linearGradient3380" inkscape:collect="always" gradientTransform="matrix(1.76067 0 0 1.5 -667.19 -737.7)">
   <stop stop-color="#e3dfd6" stop-opacity="1"/>
   <stop stop-color="#f4f1e8" stop-opacity="1" offset="1"/>
  </linearGradient>
 </defs>
 <rect x="8" rx="10.769" y="8" fill="#4d4d4d" fill-opacity="1" stroke="none" height="80" width="80"/>
 <g transform="matrix(1 0 0 1 -4.171 0)">
  <rect x="24" y="21" fill="url(#linearGradient3380)" fill-opacity="1" stroke="none" height="54" width="56.34"/>
  <rect x="24" y="72" fill="#2d2110" fill-opacity="0.314" stroke="none" height="3" width="56.34"/>
  <rect x="27.521" y="33" fill="#bdb49e" fill-opacity="1" stroke="none" height="1.5" width="3.521"/>
  <rect x="32.803" y="33" fill="#bdb49e" fill-opacity="1" stroke="none" height="1.5" width="5.282"/>
  <rect x="39.846" y="33" fill="#bdb49e" fill-opacity="1" stroke="none" height="1.5" width="8.803"/>
  <rect x="52.17" y="33" fill="#bdb49e" fill-opacity="1" stroke="none" height="1.5" width="10.564"/>
  <rect x="64.5" y="33" fill="#bdb49e" fill-opacity="1" stroke="none" height="1.5" width="5.282"/>
  <rect x="71.54" y="33" fill="#bdb49e" fill-opacity="1" stroke="none" height="1.5" width="3.521"/>
  <rect x="27.521" y="36" fill="#bdb49e" fill-opacity="1" stroke="none" height="1.5" width="7.04"/>
  <rect x="36.32" y="36" fill="#bdb49e" fill-opacity="1" stroke="none" height="1.5" width="3.521"/>
  <rect x="41.607" y="36" fill="#bdb49e" fill-opacity="1" stroke="none" height="1.5" width="15.846"/>
  <rect x="59.21" y="36" fill="#bdb49e" fill-opacity="1" stroke="none" height="1.5" width="10.564"/>
  <rect x="71.54" y="36" fill="#bdb49e" fill-opacity="1" stroke="none" height="1.5" width="5.282"/>
  <rect x="27.521" y="42" fill="#bdb49e" fill-opacity="1" stroke="none" height="1.5" width="3.521"/>
  <rect x="32.803" y="42" fill="#bdb49e" fill-opacity="1" stroke="none" height="1.5" width="5.282"/>
  <rect x="39.846" y="42" fill="#bdb49e" fill-opacity="1" stroke="none" height="1.5" width="10.564"/>
  <rect x="53.931" y="42" fill="#bdb49e" fill-opacity="1" stroke="none" height="1.5" width="7.04"/>
  <rect x="62.735" y="42" fill="#bdb49e" fill-opacity="1" stroke="none" height="1.5" width="3.521"/>
  <rect x="68.02" y="42" fill="#bdb49e" fill-opacity="1" stroke="none" height="1.5" width="8.803"/>
  <rect x="27.521" y="45" fill="#bdb49e" fill-opacity="1" stroke="none" height="1.5" width="3.521"/>
  <rect x="32.803" y="45" fill="#bdb49e" fill-opacity="1" stroke="none" height="1.5" width="8.803"/>
  <rect x="43.37" y="45" fill="#bdb49e" fill-opacity="1" stroke="none" height="1.5" width="5.282"/>
  <rect x="50.41" y="45" fill="#bdb49e" fill-opacity="1" stroke="none" height="1.5" width="1.761"/>
  <rect x="53.931" y="45" fill="#bdb49e" fill-opacity="1" stroke="none" height="1.5" width="8.803"/>
  <rect x="64.5" y="45" fill="#bdb49e" fill-opacity="1" stroke="none" height="1.5" width="5.282"/>
  <rect x="71.54" y="45" fill="#bdb49e" fill-opacity="1" stroke="none" height="1.5" width="5.282"/>
  <rect x="27.521" y="51" fill="#bdb49e" fill-opacity="1" stroke="none" height="1.5" width="10.564"/>
  <rect x="39.846" y="51" fill="#bdb49e" fill-opacity="1" stroke="none" height="1.5" width="5.282"/>
  <rect x="46.889" y="51" fill="#bdb49e" fill-opacity="1" stroke="none" height="1.5" width="5.282"/>
  <rect x="53.931" y="51" fill="#bdb49e" fill-opacity="1" stroke="none" height="1.5" width="5.282"/>
  <rect x="60.974" y="51" fill="#bdb49e" fill-opacity="1" stroke="none" height="1.5" width="8.803"/>
  <rect x="71.54" y="51" fill="#bdb49e" fill-opacity="1" stroke="none" height="1.5" width="1.761"/>
  <rect x="27.521" y="54" fill="#bdb49e" fill-opacity="1" stroke="none" height="1.5" width="8.803"/>
  <rect x="38.09" y="54" fill="#bdb49e" fill-opacity="1" stroke="none" height="1.5" width="8.803"/>
  <rect x="48.649" y="54" fill="#bdb49e" fill-opacity="1" stroke="none" height="1.5" width="8.803"/>
  <rect x="27.521" y="57" fill="#bdb49e" fill-opacity="1" stroke="none" height="1.5" width="3.521"/>
  <rect x="27.521" y="60" fill="#bdb49e" fill-opacity="1" stroke="none" height="1.5" width="7.04"/>
  <rect x="36.32" y="60" fill="#bdb49e" fill-opacity="1" stroke="none" height="1.5" width="7.04"/>
  <rect x="45.13" y="60" fill="#bdb49e" fill-opacity="1" stroke="none" height="1.5" width="7.04"/>
  <rect x="53.931" y="60" fill="#bdb49e" fill-opacity="1" stroke="none" height="1.5" width="3.521"/>
  <rect x="27.521" y="63" fill="#bdb49e" fill-opacity="1" stroke="none" height="1.5" width="5.282"/>
  <rect x="34.564" y="63" fill="#bdb49e" fill-opacity="1" stroke="none" height="1.5" width="1.761"/>
  <rect x="38.09" y="63" fill="#bdb49e" fill-opacity="1" stroke="none" height="1.5" width="7.04"/>
  <rect x="46.889" y="63" fill="#bdb49e" fill-opacity="1" stroke="none" height="1.5" width="5.282"/>
  <rect x="53.931" y="63" fill="#bdb49e" fill-opacity="1" stroke="none" height="1.5" width="8.803"/>
 </g>
</svg>
