<?xml version="1.0" encoding="UTF-8" standalone="no"?>
<!-- Created with Inkscape (http://www.inkscape.org/) -->

<svg
   xmlns:dc="http://purl.org/dc/elements/1.1/"
   xmlns:cc="http://creativecommons.org/ns#"
   xmlns:rdf="http://www.w3.org/1999/02/22-rdf-syntax-ns#"
   xmlns:svg="http://www.w3.org/2000/svg"
   xmlns="http://www.w3.org/2000/svg"
   xmlns:xlink="http://www.w3.org/1999/xlink"
   xmlns:sodipodi="http://sodipodi.sourceforge.net/DTD/sodipodi-0.dtd"
   xmlns:inkscape="http://www.inkscape.org/namespaces/inkscape"
   id="svg11037"
   height="96"
   width="96"
   version="1.1"
   inkscape:version="0.48.5 r10040"
   sodipodi:docname="bluefish.svg">
  <sodipodi:namedview
     pagecolor="#ffffff"
     bordercolor="#666666"
     borderopacity="1"
     objecttolerance="10"
     gridtolerance="10"
     guidetolerance="10"
     inkscape:pageopacity="0"
     inkscape:pageshadow="2"
     inkscape:window-width="640"
     inkscape:window-height="480"
     id="namedview4117" />
  <defs
     id="defs11039">
    <linearGradient
       id="linearGradient11642"
       y2="1046.1"
       gradientUnits="userSpaceOnUse"
       y1="962.62"
       gradientTransform="matrix(1.15 0 0 1.15 -7.1999 -150.65)"
       x2="48"
       x1="48">
      <stop
         id="stop4086"
         style="stop-color:#537d6b"
         offset="0" />
      <stop
         id="stop4088"
         style="stop-color:#92bbaa"
         offset="1" />
    </linearGradient>
    <radialGradient
       id="radialGradient5826"
       xlink:href="#linearGradient556"
       gradientUnits="userSpaceOnUse"
       cy="13.492"
       cx="24.218"
       gradientTransform="scale(.88763 1.1266)"
       r="10.214" />
    <linearGradient
       id="linearGradient556">
      <stop
         id="stop557"
         style="stop-color:#fff"
         offset="0" />
      <stop
         id="stop558"
         style="stop-color:#8f8f8f"
         offset="1" />
    </linearGradient>
    <radialGradient
       id="radialGradient5828"
       xlink:href="#linearGradient561"
       gradientUnits="userSpaceOnUse"
       cy="4.2912"
       cx="31.638"
       gradientTransform="scale(1.0613 .94223)"
       r="6.1138" />
    <linearGradient
       id="linearGradient561">
      <stop
         id="stop562"
         style="stop-color:#72a6db"
         offset="0" />
      <stop
         id="stop563"
         style="stop-color:#4974aa"
         offset="1" />
    </linearGradient>
    <linearGradient
       id="linearGradient5830"
       x1="66.897"
       xlink:href="#linearGradient561"
       gradientUnits="userSpaceOnUse"
       y1="9.7093"
       gradientTransform="scale(.57791 1.7304)"
       x2="68.417"
       y2="18.199" />
    <linearGradient
       id="linearGradient5832"
       x1="42.008"
       xlink:href="#linearGradient635"
       gradientUnits="userSpaceOnUse"
       y1="5.456"
       gradientTransform="scale(.65313 1.5311)"
       x2="56.889"
       y2="14.642" />
    <linearGradient
       id="linearGradient635">
      <stop
         id="stop636"
         style="stop-color:#fff"
         offset="0" />
      <stop
         id="stop637"
         style="stop-color:#fff;stop-opacity:.17647"
         offset="1" />
    </linearGradient>
    <radialGradient
       id="radialGradient5834"
       gradientUnits="userSpaceOnUse"
       cy="16.135"
       cx="15.486"
       gradientTransform="scale(.99284 1.0072)"
       r="27.532">
      <stop
         id="stop565"
         style="stop-color:#3278c6"
         offset="0" />
      <stop
         id="stop566"
         style="stop-color:#264980"
         offset="1" />
    </radialGradient>
    <linearGradient
       id="linearGradient5836"
       x1="40.971"
       gradientUnits="userSpaceOnUse"
       y1="41.885"
       gradientTransform="scale(.99284 1.0072)"
       x2="23.981"
       y2="21.709">
      <stop
         id="stop605"
         style="stop-opacity:.23922"
         offset="0" />
      <stop
         id="stop606"
         style="stop-opacity:0"
         offset="1" />
    </linearGradient>
    <radialGradient
       id="radialGradient5838"
       xlink:href="#linearGradient561"
       gradientUnits="userSpaceOnUse"
       cy="25.591"
       cx="56.925"
       gradientTransform="scale(1.122 .89128)"
       r="5.3431" />
    <linearGradient
       id="linearGradient5840"
       x1="25.033"
       xlink:href="#linearGradient635"
       gradientUnits="userSpaceOnUse"
       y1="15.336"
       gradientTransform="scale(.95998 1.0417)"
       x2="25.338"
       y2="24.687" />
    <linearGradient
       id="linearGradient5842"
       x1="27.607"
       xlink:href="#linearGradient556"
       gradientUnits="userSpaceOnUse"
       y1="16.387"
       gradientTransform="scale(.88763 1.1266)"
       x2="28.115"
       y2="24.093" />
    <radialGradient
       id="radialGradient5844"
       xlink:href="#linearGradient561"
       gradientUnits="userSpaceOnUse"
       cy="3.3555"
       cx="32.369"
       gradientTransform="scale(1.0404 .96117)"
       r="6.057" />
    <linearGradient
       id="linearGradient5846"
       x1="36.83"
       xlink:href="#linearGradient561"
       gradientUnits="userSpaceOnUse"
       y1="47.909"
       gradientTransform="scale(1.5175 .65899)"
       x2="37.26"
       y2="54.864" />
    <linearGradient
       id="linearGradient5848"
       x1="29.954"
       gradientUnits="userSpaceOnUse"
       y1="68.697"
       gradientTransform="scale(1.8472 .54137)"
       x2="30.472"
       y2="63.224">
      <stop
         id="stop642"
         style="stop-opacity:.41569"
         offset="0" />
      <stop
         id="stop643"
         style="stop-opacity:0"
         offset="1" />
    </linearGradient>
    <linearGradient
       id="linearGradient3166"
       y2="68.898"
       xlink:href="#linearGradient561"
       gradientUnits="userSpaceOnUse"
       y1="63.282"
       gradientTransform="scale(1.9257 .5193)"
       x2="29.396"
       x1="29.049" />
    <clipPath
       id="clipPath3009"
       clipPathUnits="userSpaceOnUse">
      <path
         id="path3011"
         style="opacity:.15;fill:#fff"
         d="m-2 956.36h-96v33.562l96 25.687v-59.25z" />
    </clipPath>
  </defs>
  <metadata
     id="metadata11042">
    <rdf:RDF>
      <cc:Work
         rdf:about="">
        <dc:format>image/svg+xml</dc:format>
        <dc:type
           rdf:resource="http://purl.org/dc/dcmitype/StillImage" />
        <dc:title />
      </cc:Work>
    </rdf:RDF>
  </metadata>
  <g
     id="layer1"
     transform="translate(0 -956.36)">
    <rect
       id="rect3867"
       style="fill:url(#linearGradient11642)"
       rx="25"
       ry="25"
       height="92"
       width="92"
       y="958.36"
       x="2" />
    <g
       id="g2335"
       transform="matrix(1.384 0 0 1.384 -41.249 880.44)">
      <path
         id="path617"
         d="m30.267 20.252a5.6615 7.1857 0 1 1 -11.323 0 5.6615 7.1857 0 1 1 11.323 0z"
         style="fill:url(#radialGradient5826);fill-rule:evenodd"
         transform="translate(25.684,64.782)" />
      <path
         id="path618"
         d="m40.968 10.542c0 3.3396-6.81-5.8722-12.1-2.7657 0-3.3396 3.0212-7.2688 7.344-7.2688 5.5328 0.17288 4.7562 6.6949 4.7562 10.034z"
         style="stroke-width:1pt;fill:url(#radialGradient5828);fill-rule:evenodd"
         transform="translate(15.858,74.436)" />
      <path
         id="path619"
         d="m34.713 23.554c-0.0815-3.9113 0.8148-8.1894 2.689-12.467 1.3038-2.3224 2.9743-4.278 6.4782-5.1336-2.6891 4.6855-1.589 8.6376-2.0779 13.201-0.8149 1.9149-1.5075 3.2189-1.8335 6.2338 0.1223 5.6633 1.9557 7.0487 4.4003 9.2895-3.2187 0.8964-5.4595-1.3853-7.3337-2.689-0.9779-3.3817-1.3446-5.0522-2.3224-8.434z"
         style="fill:url(#linearGradient5830);fill-rule:evenodd"
         transform="translate(40,65)" />
      <g
         id="g595"
         transform="matrix(.71859 0 0 .71858 2.1673 69.947)">
        <path
           id="path596"
           d="m64.476 21.173a2.0743 2.1607 0 1 1 -4.1486 0 2.0743 2.1607 0 1 1 4.1486 0z"
           style="fill-rule:evenodd"
           transform="translate(0 -.12225)" />
        <path
           id="path597"
           d="m63.958 20.395a0.77786 1.0372 0 1 1 -1.5557 0 0.77786 1.0372 0 1 1 1.5557 0z"
           style="fill:#808080;fill-rule:evenodd" />
      </g>
      <path
         id="path630"
         d="m35.691 19.887c1.263-5.9486 1.5483-6.7634 2.3224-8.6783 0.8555-1.589 1.3445-2.9335 5.1336-4.7669-2.0372 1.7112-3.0965 3.6668-3.9113 6.2337-0.4075 2.1186-1.1816 4.2373-0.7334 11.245-0.6519-1.0593-2.1594-2.9743-2.8113-4.0336z"
         style="fill-opacity:.47183;fill:url(#linearGradient5832);fill-rule:evenodd"
         transform="translate(40,65)" />
      <path
         id="path615"
         d="m39.358 25.754c-0.244 5.956-9.889 17.357-18.701 17.235-8.079-0.123-15.034-7.979-15.034-17.357-0.0004-9.378 6.099-16.623 14.912-16.868 9.423 0.1225 18.945 13.234 18.823 16.99z"
         style="stroke-width:1pt;fill:url(#radialGradient5834);fill-rule:evenodd"
         transform="translate(40,65)" />
      <path
         id="path599"
         d="m39.358 25.754c-0.244 5.956-9.889 17.357-18.701 17.235-8.079-0.123-15.034-7.979-15.034-17.357-0.0004-9.378 6.099-16.623 14.912-16.868 9.423 0.1225 18.945 13.234 18.823 16.99z"
         style="stroke-width:1pt;fill:url(#linearGradient5836);fill-rule:evenodd"
         transform="translate(40,65)" />
      <path
         id="path632"
         d="m30.557 20.498c2.0779 3.1331 1.3797 5.7609 0.2514 7.5749-1.1283 1.8142-4.2791 2.7994-5.9962 2.6924-6.0078-0.3667-5.1336-3.0235-5.1336-8.5562 0-5.5326 3.6483-10.878 7.0893-10.878 2.5854 0.6112 3.7891 3.6347 3.7891 9.1673z"
         style="fill-opacity:.19718;stroke-width:1pt;fill-rule:evenodd"
         transform="translate(40,65)" />
      <path
         id="path624"
         d="m72.36 25.082a6.5395 5.1949 0 1 1 -13.079 0 6.5395 5.1949 0 1 1 13.079 0z"
         style="fill:url(#radialGradient5838);fill-rule:evenodd"
         transform="matrix(.95249 0 0 1.1466 1.8795 60.007)" />
      <path
         id="path633"
         d="m30.069 22.209a5.745 6.2339 0 1 1 -11.49 0 5.745 6.2339 0 1 1 11.49 0z"
         style="fill:url(#linearGradient5840);fill-rule:evenodd"
         transform="matrix(1 0 0 .93264 39.878 66.198)" />
      <path
         id="path552"
         d="m30.267 20.252a5.6615 7.1857 0 1 1 -11.323 0 5.6615 7.1857 0 1 1 11.323 0z"
         style="fill:url(#linearGradient5842);fill-rule:evenodd"
         transform="matrix(1.0324,0,0,1.0595,38.516,63.149)" />
      <path
         id="path600"
         d="m40.89 10.542c-0.977-0.8791-3.954-5.755-11.788-2.7966 0-3.3396 1.32-8.0934 5.6428-8.0934 5.5328 0.17288 6.1449 7.5504 6.1449 10.89z"
         style="stroke-width:1pt;fill:url(#radialGradient5844);fill-rule:evenodd"
         transform="translate(28.937,74.68)" />
      <g
         id="g611"
         transform="matrix(.71859 0 0 .71858 21.479 70.386)">
        <path
           id="path604"
           d="m64.476 21.173a2.0743 2.1607 0 1 1 -4.1486 0 2.0743 2.1607 0 1 1 4.1486 0z"
           style="fill-rule:evenodd"
           transform="translate(0 -.12225)" />
        <path
           id="path605"
           d="m63.958 20.395a0.77786 1.0372 0 1 1 -1.5557 0 0.77786 1.0372 0 1 1 1.5557 0z"
           style="fill:#808080;fill-rule:evenodd" />
      </g>
      <path
         id="path623"
         d="m47.792 31.621c0.2038 0.8556 6.2745 3.4224 15.89-0.2445 0.387-0.0408 2.2985-2.1103 2.2908-1.7026-0.0187 1.1104-0.8848 2.5877-2.0123 3.8196-2.404 2.9334-6.5529 4.7278-11.279 4.239-2.2816-0.2037-4.0423-1.3851-5.1016-3.178-0.9051-1.6907-0.3172-1.9963 0.2124-2.9335z"
         style="fill:url(#linearGradient5846);fill-rule:evenodd"
         transform="translate(-1.1915,67.2)" />
      <path
         id="path631"
         d="m48.158 31.621c0.2038 0.8556 5.9078 3.7891 15.523 0.1222 1.2892-0.662 2.1738-0.0872 0.8556 1.9556-2.4039 2.4446-9.6969 3.4225-11.978 3.0558-2.2816-0.2037-5.0521-1.0186-5.5003-2.4446-0.3391-1.2267 0.0815-1.9963 1.1-2.689z"
         style="fill:url(#linearGradient5848);fill-rule:evenodd"
         transform="translate(-1.6541,65.384)" />
      <path
         id="path621"
         d="m48.158 31.621c0.2038 0.8556 5.5953 4.9609 15.836 0.9816 0.6836-0.2919 1.9301-0.8606 2.1868-0.8178 0.3767 0.0741-0.4768 0.9707-1.4874 1.9922-2.4039 2.4445-9.8532 3.3443-12.135 2.9776-2.2816-0.2037-5.0521-1.0186-5.5003-2.4446-0.3391-1.2267 0.0815-1.9963 1.1-2.689z"
         style="fill:url(#linearGradient3166);fill-rule:evenodd"
         transform="translate(-1.5582,65)" />
    </g>
    <rect
       id="rect3003"
       style="opacity:.15;fill:#fff"
       transform="translate(98 3.8281e-7)"
       clip-path="url(#clipPath3009)"
       rx="25"
       ry="25"
       height="92"
       width="92"
       y="958.36"
       x="-96" />
  </g>
</svg>
