<svg height="96" width="96" xmlns="http://www.w3.org/2000/svg" xmlns:xlink="http://www.w3.org/1999/xlink" xmlns:sodipodi="http://sodipodi.sourceforge.net/DTD/sodipodi-0.dtd" xmlns:inkscape="http://www.inkscape.org/namespaces/inkscape">
 <defs>
  <linearGradient x2="0" y1="962.62" y2="1046.1" gradientUnits="userSpaceOnUse" id="linearGradient11642" gradientTransform="matrix(1.15 0 0 1.15 -7.2 -150.65)">
   <stop stop-color="#537d6b"/>
   <stop stop-color="#92bbaa" offset="1"/>
  </linearGradient>
  <radialGradient cy="13.492" r="10.214" xlink:href="#linearGradient556" gradientUnits="userSpaceOnUse" id="radialGradient5826" cx="24.22" gradientTransform="matrix(0.88763 0 0 1.1266 0 0)"/>
  <linearGradient id="linearGradient556">
   <stop stop-color="#fff"/>
   <stop stop-color="#8f8f8f" offset="1"/>
  </linearGradient>
  <radialGradient cy="4.291" r="6.114" xlink:href="#linearGradient561" gradientUnits="userSpaceOnUse" id="radialGradient5828" cx="31.638" gradientTransform="matrix(1.0613 0 0 0.94223 0 0)"/>
  <linearGradient id="linearGradient561">
   <stop stop-color="#72a6db"/>
   <stop stop-color="#4974aa" offset="1"/>
  </linearGradient>
  <linearGradient x1="66.897" x2="68.42" xlink:href="#linearGradient561" y1="9.709" y2="18.199" gradientUnits="userSpaceOnUse" id="linearGradient5830" gradientTransform="matrix(0.57791 0 0 1.7304 0 0)"/>
  <linearGradient x1="42.01" x2="56.889" xlink:href="#linearGradient635" y1="5.456" y2="14.642" gradientUnits="userSpaceOnUse" id="linearGradient5832" gradientTransform="matrix(0.65313 0 0 1.5311 0 0)"/>
  <linearGradient id="linearGradient635">
   <stop stop-color="#fff"/>
   <stop stop-color="#fff" stop-opacity="0.176" offset="1"/>
  </linearGradient>
  <radialGradient cy="16.14" r="27.532" gradientUnits="userSpaceOnUse" id="radialGradient5834" cx="15.486" gradientTransform="matrix(0.99284 0 0 1.0072 0 0)">
   <stop stop-color="#3278c6"/>
   <stop stop-color="#264980" offset="1"/>
  </radialGradient>
  <linearGradient x1="40.971" x2="23.981" y1="41.885" y2="21.709" gradientUnits="userSpaceOnUse" id="linearGradient5836" gradientTransform="matrix(0.99284 0 0 1.0072 0 0)">
   <stop stop-opacity="0.239"/>
   <stop stop-opacity="0" offset="1"/>
  </linearGradient>
  <radialGradient cy="25.591" r="5.343" xlink:href="#linearGradient561" gradientUnits="userSpaceOnUse" id="radialGradient5838" cx="56.925" gradientTransform="matrix(1.122 0 0 0.89128 0 0)"/>
  <linearGradient x1="25.03" x2="25.338" xlink:href="#linearGradient635" y1="15.336" y2="24.687" gradientUnits="userSpaceOnUse" id="linearGradient5840" gradientTransform="matrix(0.95998 0 0 1.0417 0 0)"/>
  <linearGradient x1="27.607" x2="28.11" xlink:href="#linearGradient556" y1="16.387" y2="24.09" gradientUnits="userSpaceOnUse" id="linearGradient5842" gradientTransform="matrix(0.88763 0 0 1.1266 0 0)"/>
  <radialGradient cy="3.356" r="6.06" xlink:href="#linearGradient561" gradientUnits="userSpaceOnUse" id="radialGradient5844" cx="32.369" gradientTransform="matrix(1.0404 0 0 0.96117 0 0)"/>
  <linearGradient x1="36.83" x2="37.26" xlink:href="#linearGradient561" y1="47.909" y2="54.864" gradientUnits="userSpaceOnUse" id="linearGradient5846" gradientTransform="matrix(1.5175 0 0 0.65899 0 0)"/>
  <linearGradient x1="29.954" x2="30.472" y1="68.7" y2="63.22" gradientUnits="userSpaceOnUse" id="linearGradient5848" gradientTransform="matrix(1.8472 0 0 0.54137 0 0)">
   <stop stop-opacity="0.416"/>
   <stop stop-opacity="0" offset="1"/>
  </linearGradient>
  <linearGradient x1="29.05" x2="29.396" xlink:href="#linearGradient561" y1="63.28" y2="68.898" gradientUnits="userSpaceOnUse" id="linearGradient3166" gradientTransform="matrix(1.9257 0 0 0.5193 0 0)"/>
  <clipPath clipPathUnits="userSpaceOnUse" id="clipPath3009">
   <path d="m-2 956.36h-96v33.562l96 25.687v-59.25z"/>
  </clipPath>
  <path d="m30.267 20.252a5.6615 7.1857 0 1 1 -11.323 0 5.6615 7.1857 0 1 1 11.323 0z" fill-rule="evenodd" id="SVGCleanerId_0"/>
  <path d="m39.358 25.754c-0.244 5.956-9.889 17.357-18.701 17.235-8.079-0.123-15.034-7.979-15.034-17.357-0.0004-9.378 6.099-16.623 14.912-16.868 9.423 0.1225 18.945 13.234 18.823 16.99z" stroke-width="1.25" fill-rule="evenodd" id="SVGCleanerId_1"/>
  <path d="m64.476 21.173a2.0743 2.1607 0 1 1 -4.1486 0 2.0743 2.1607 0 1 1 4.1486 0z" fill-rule="evenodd" id="SVGCleanerId_2"/>
  <path d="m63.958 20.395a0.77786 1.0372 0 1 1 -1.5557 0 0.77786 1.0372 0 1 1 1.5557 0z" fill="#808080" fill-rule="evenodd" id="SVGCleanerId_3"/>
 </defs>
 <g transform="matrix(1 0 0 1 0 -956.36)">
  <rect x="2" rx="25" y="958.36" fill="url(#linearGradient11642)" height="92" width="92"/>
  <g transform="matrix(1.384 0 0 1.384 -41.25 880.44)">
   <use xlink:href="#SVGCleanerId_0" fill="url(#radialGradient5826)" transform="matrix(1 0 0 1 25.684 64.782)"/>
   <path d="m40.968 10.542c0 3.3396-6.81-5.8722-12.1-2.7657 0-3.3396 3.0212-7.2688 7.344-7.2688 5.5328 0.17288 4.7562 6.6949 4.7562 10.034z" stroke-width="1.25" fill="url(#radialGradient5828)" fill-rule="evenodd" transform="matrix(1 0 0 1 15.858 74.44)"/>
   <path d="m34.713 23.554c-0.0815-3.9113 0.8148-8.1894 2.689-12.467 1.3038-2.3224 2.9743-4.278 6.4782-5.1336-2.6891 4.6855-1.589 8.6376-2.0779 13.201-0.8149 1.9149-1.5075 3.2189-1.8335 6.2338 0.1223 5.6633 1.9557 7.0487 4.4003 9.2895-3.2187 0.8964-5.4595-1.3853-7.3337-2.689-0.9779-3.3817-1.3446-5.0522-2.3224-8.434z" fill="url(#linearGradient5830)" fill-rule="evenodd" transform="matrix(1 0 0 1 40 65)"/>
   <g transform="matrix(0.71859 0 0 0.71858 2.167 69.947)">
    <use xlink:href="#SVGCleanerId_2" transform="matrix(1 0 0 1 0 -0.122)"/>
    <use xlink:href="#SVGCleanerId_3"/>
   </g>
   <path d="m35.691 19.887c1.263-5.9486 1.5483-6.7634 2.3224-8.6783 0.8555-1.589 1.3445-2.9335 5.1336-4.7669-2.0372 1.7112-3.0965 3.6668-3.9113 6.2337-0.4075 2.1186-1.1816 4.2373-0.7334 11.245-0.6519-1.0593-2.1594-2.9743-2.8113-4.0336z" fill="url(#linearGradient5832)" fill-opacity="0.472" fill-rule="evenodd" transform="matrix(1 0 0 1 40 65)"/>
   <use xlink:href="#SVGCleanerId_1" fill="url(#radialGradient5834)" transform="matrix(1 0 0 1 40 65)"/>
   <use xlink:href="#SVGCleanerId_1" fill="url(#linearGradient5836)" transform="matrix(1 0 0 1 40 65)"/>
   <path d="m30.557 20.498c2.0779 3.1331 1.3797 5.7609 0.2514 7.5749-1.1283 1.8142-4.2791 2.7994-5.9962 2.6924-6.0078-0.3667-5.1336-3.0235-5.1336-8.5562 0-5.5326 3.6483-10.878 7.0893-10.878 2.5854 0.6112 3.7891 3.6347 3.7891 9.1673z" stroke-width="1.25" fill-opacity="0.197" fill-rule="evenodd" transform="matrix(1 0 0 1 40 65)"/>
   <path d="m72.36 25.082a6.5395 5.1949 0 1 1 -13.079 0 6.5395 5.1949 0 1 1 13.079 0z" fill="url(#radialGradient5838)" fill-rule="evenodd" transform="matrix(0.95249 0 0 1.1466 1.879 60.01)"/>
   <path d="m30.069 22.209a5.745 6.2339 0 1 1 -11.49 0 5.745 6.2339 0 1 1 11.49 0z" fill="url(#linearGradient5840)" fill-rule="evenodd" transform="matrix(1 0 0 0.93264 39.878 66.2)"/>
   <use xlink:href="#SVGCleanerId_0" fill="url(#linearGradient5842)" transform="matrix(1.0324 0 0 1.0595 38.516 63.15)"/>
   <path d="m40.89 10.542c-0.977-0.8791-3.954-5.755-11.788-2.7966 0-3.3396 1.32-8.0934 5.6428-8.0934 5.5328 0.17288 6.1449 7.5504 6.1449 10.89z" stroke-width="1.25" fill="url(#radialGradient5844)" fill-rule="evenodd" transform="matrix(1 0 0 1 28.937 74.68)"/>
   <g transform="matrix(0.71859 0 0 0.71858 21.479 70.39)">
    <use xlink:href="#SVGCleanerId_2" transform="matrix(1 0 0 1 0 -0.122)"/>
    <use xlink:href="#SVGCleanerId_3"/>
   </g>
   <path d="m47.792 31.621c0.2038 0.8556 6.2745 3.4224 15.89-0.2445 0.387-0.0408 2.2985-2.1103 2.2908-1.7026-0.0187 1.1104-0.8848 2.5877-2.0123 3.8196-2.404 2.9334-6.5529 4.7278-11.279 4.239-2.2816-0.2037-4.0423-1.3851-5.1016-3.178-0.9051-1.6907-0.3172-1.9963 0.2124-2.9335z" fill="url(#linearGradient5846)" fill-rule="evenodd" transform="matrix(1 0 0 1 -1.192 67.2)"/>
   <path d="m48.158 31.621c0.2038 0.8556 5.9078 3.7891 15.523 0.1222 1.2892-0.662 2.1738-0.0872 0.8556 1.9556-2.4039 2.4446-9.6969 3.4225-11.978 3.0558-2.2816-0.2037-5.0521-1.0186-5.5003-2.4446-0.3391-1.2267 0.0815-1.9963 1.1-2.689z" fill="url(#linearGradient5848)" fill-rule="evenodd" transform="matrix(1 0 0 1 -1.654 65.38)"/>
   <path d="m48.158 31.621c0.2038 0.8556 5.5953 4.9609 15.836 0.9816 0.6836-0.2919 1.9301-0.8606 2.1868-0.8178 0.3767 0.0741-0.4768 0.9707-1.4874 1.9922-2.4039 2.4445-9.8532 3.3443-12.135 2.9776-2.2816-0.2037-5.0521-1.0186-5.5003-2.4446-0.3391-1.2267 0.0815-1.9963 1.1-2.689z" fill="url(#linearGradient3166)" fill-rule="evenodd" transform="matrix(1 0 0 1 -1.558 65)"/>
  </g>
  <rect x="-96" rx="25" y="958.36" clip-path="url(#clipPath3009)" fill="#fff" height="92" opacity="0.15" width="92" transform="matrix(1 0 0 1 98 0)"/>
 </g>
</svg>
