<svg height="96" width="96" xmlns="http://www.w3.org/2000/svg" xmlns:sodipodi="http://sodipodi.sourceforge.net/DTD/sodipodi-0.dtd" xmlns:inkscape="http://www.inkscape.org/namespaces/inkscape">
 <g inkscape:label="Layer 1" inkscape:groupmode="layer" transform="matrix(1 0 0 1 0 -956.36)">
  <rect x="964.36" rx="10.769" y="-88" fill="#3084c7" fill-opacity="1" stroke="none" height="80" width="80" transform="matrix(0 1 -1 0 0 0)"/>
  <rect x="15.5" stroke-width="0.3" display="inline" rx="11.765" y="971.86" fill="#ececec" color="black" fill-opacity="1" stroke="none" fill-rule="nonzero" height="65" visibility="visible" width="65"/>
  <path d="m 25.375,982.11218 0,44.50002 19.75,0 0,-10.5 -10,0 0,-23.00002 10,0 0,-11 -19.75,0 z m 25.5,0 0,11 10,0 0,23.00002 -10,0 0,10.5 19.75,0 0,-44.50002 -19.75,0 z" fill="#3c3c3c" fill-opacity="1" stroke="none" inkscape:connector-curvature="0"/>
 </g>
</svg>
