<svg height="96" width="96" xmlns="http://www.w3.org/2000/svg" xmlns:sodipodi="http://sodipodi.sourceforge.net/DTD/sodipodi-0.dtd" xmlns:inkscape="http://www.inkscape.org/namespaces/inkscape">
 <rect x="8" rx="10.769" y="8" fill="#217821" fill-opacity="1" stroke="none" height="80" width="80"/>
 <g transform="matrix(1 0 0 1 1.122 0.832)">
  <path d="M 67.591467,34.546513 A 26.839843,24.257005 58.637067 1 1 26.165281,59.790355 26.839843,24.257005 58.637067 1 1 67.591467,34.546513 z" stroke-width="0.738" fill="#ff2a2a" stroke="black" stroke-linecap="round" stroke-linejoin="round" inkscape:connector-curvature="0"/>
  <path d="m 49.345912,51.228317 c -7.869329,4.795314 -13.025704,11.738367 -14.047199,17.950709 7.866535,5.019351 17.678019,5.713668 25.546445,0.919187 7.868055,-4.794545 11.753677,-13.835537 10.899149,-23.127409 -5.989414,-1.940216 -14.528689,-0.537477 -22.397463,4.257934 z" stroke-width="0.738" stroke="black" stroke-linecap="round" stroke-linejoin="round" inkscape:connector-curvature="0"/>
  <path d="M 32.970445,24.353235 49.468709,51.42655" stroke-width="0.738" fill="none" stroke="black" stroke-linecap="round" inkscape:connector-curvature="0"/>
  <path d="m 59.397233,30.454463 a 3.6002186,3.0195677 43.643063 1 1 -4.167991,4.370241 3.6002186,3.0195677 43.643063 0 1 4.167991,-4.370241 z" inkscape:connector-curvature="0"/>
  <path d="m 46.424866,25.622027 a 3.6002285,3.0195444 13.643957 1 1 -1.424429,5.868696 3.6002285,3.0195444 13.643957 0 1 1.424429,-5.868696 z" inkscape:connector-curvature="0"/>
  <path d="m 56.626973,39.992896 a 3.60023,3.60023 0 1 1 -6.148774,3.746892 3.60023,3.60023 0 0 1 6.148774,-3.746892 z" inkscape:connector-curvature="0"/>
  <path d="m 27.080829,50.147064 a 3.6002286,3.0195446 73.642145 1 0 5.79467,-1.700705 3.6002286,3.0195446 73.642145 0 0 -5.79467,1.700705 z" inkscape:connector-curvature="0"/>
  <path d="m 28.732897,36.402874 a 3.0195444,3.6002285 13.643957 1 0 5.868696,1.424429 3.0195444,3.6002285 13.643957 0 0 -5.868696,-1.424429 z" inkscape:connector-curvature="0"/>
  <path d="m 36.828293,52.058362 a 3.60023,3.60023 0 1 0 6.148774,-3.746892 3.60023,3.60023 0 0 0 -6.148774,3.746892 z" inkscape:connector-curvature="0"/>
  <path d="m 46.741224,65.056214 c -2.518148,1.534514 -3.317258,4.826439 -1.782633,7.344585 0.140786,0.231041 0.299736,0.444767 0.468156,0.646366 2.777335,0.432951 5.592369,0.392971 8.324828,-0.164898 1.307111,-1.700418 1.512045,-4.099428 0.329324,-6.040385 C 52.546385,64.323734 49.259373,63.52174 46.741223,65.05618 z M 63.400697,54.904383 c -2.518148,1.534514 -3.317258,4.82644 -1.782633,7.344585 1.119246,1.836723 3.172531,2.759101 5.179398,2.528136 1.831109,-2.353364 3.183816,-5.053392 4.026814,-7.949315 -0.02643,-0.04642 -0.05109,-0.09493 -0.07907,-0.140843 -1.534515,-2.518148 -4.82644,-3.317258 -7.344586,-1.782633 z" stroke-width="0.738" fill="#e6e6e6" stroke="black" stroke-linecap="round" stroke-linejoin="round" inkscape:connector-curvature="0"/>
 </g>
</svg>
