<svg height="96" width="96" xmlns="http://www.w3.org/2000/svg" xmlns:sodipodi="http://sodipodi.sourceforge.net/DTD/sodipodi-0.dtd" xmlns:inkscape="http://www.inkscape.org/namespaces/inkscape">
 <defs>
  <linearGradient x2="0" y1="962.62" y2="1046.1" gradientUnits="userSpaceOnUse" id="linearGradient11642" inkscape:collect="always" gradientTransform="matrix(1.15 0 0 1.15 -7.2 -150.65)">
   <stop stop-color="#553025"/>
   <stop stop-color="#a55033" offset="1"/>
  </linearGradient>
  <linearGradient x2="0" y1="77.865" y2="12.541" gradientUnits="userSpaceOnUse" id="linearGradient5724" gradientTransform="matrix(0.78562 0 0 0.78562 101.54 933.19)">
   <stop stop-color="#e7cf93"/>
   <stop stop-color="#fefef4" offset="1"/>
  </linearGradient>
  <clipPath clipPathUnits="userSpaceOnUse" id="clipPath3009">
   <path d="m -2,956.36218 -96,0 0,33.5624 96,25.68742 0,-59.24982 z" inkscape:connector-curvature="0"/>
  </clipPath>
 </defs>
 <g inkscape:label="Layer 1" inkscape:groupmode="layer" transform="matrix(1 0 0 1 0 -956.36)">
  <rect x="2" rx="25" y="958.36" fill="url(#linearGradient11642)" fill-opacity="1" height="92" width="92"/>
  <g transform="matrix(1 0 0 1 -91.35 35.1)">
   <path d="m 140.99,944.17 c -3.2736,5.4845 -4.2988,8.146 -3.1179,11.637 1.0705,3.1644 3.8954,4.8589 2.5042,12.177 2.2847,-3.5656 4.0037,-8.205 2.2095,-11.858 -1.8248,-3.7153 -2.7432,-5.902 -1.5958,-11.956 z m 6.4077,2.3814 c -2.2647,3.3496 -2.8031,5.2658 -1.7922,7.6107 1.0294,2.3876 2.187,2.708 0.83472,6.1867 2.4949,-2.8136 2.6235,-4.6442 1.5958,-6.825 -1.0484,-2.2247 -2.1324,-3.0419 -0.63831,-6.9724 z m -12.889,4.1245 c -2.0547,3.5286 -2.694,5.24 -1.9149,7.4634 0.70622,2.0155 2.5081,3.0702 1.6694,7.758 2.5738,-3.2472 2.4899,-5.5557 1.3503,-7.6107 -1.111,-2.0034 -1.7964,-3.7326 -1.1048,-7.6107 z m -10.974,19.444 v 6.2849 c 0,6.9637 2.8031,12.57 6.2849,12.57 h 18.855 c 2.9378,0 5.3932,-3.9972 6.0885,-9.4274 h 4.9101 c 1.3057,0 2.3568,-1.0512 2.3568,-2.3568 v -4.7137 c 0,-1.3057 -1.0512,-2.3568 -2.3568,-2.3568 h -36.139 z m 3.1179,1.5467 h 1.5958 v 4.7382 c 0.0406,3.5053 -0.42636,9.0382 3.1425,11.023 h -1.1784 c -3.62,-1.7066 -3.2652,-7.6907 -3.5598,-11.023 v -4.7382 z m 28.307,0.81017 h 3.2407 c 0.81606,0 1.473,0.65697 1.473,1.473 v 1.964 c 0,0.81606 -0.65697,1.473 -1.473,1.473 h -3.2652 c 0.0127,-0.32808 0.0246,-0.64719 0.0246,-0.98202 v -3.9281 z m -40.86,18.07 c 0,2.6114 5.6062,4.7137 12.57,4.7137 h 25.14 c 6.9637,0 12.57,-2.1023 12.57,-4.7137 h -50.279 z" fill="#280b0b" color="#000000" opacity="0.3" inkscape:connector-curvature="0"/>
   <path d="m 140.99,943.38 c -3.2736,5.4844 -4.2988,8.146 -3.1179,11.637 1.0705,3.1644 3.8954,4.8589 2.5042,12.177 2.2847,-3.5656 4.0037,-8.205 2.2095,-11.858 -1.8248,-3.7153 -2.7432,-5.902 -1.5958,-11.956 z m 6.4077,2.3814 c -2.2647,3.3496 -2.8031,5.2658 -1.7922,7.6107 1.0294,2.3876 2.187,2.708 0.83472,6.1867 2.4949,-2.8136 2.6235,-4.6442 1.5958,-6.825 -1.0484,-2.2247 -2.1324,-3.0419 -0.63831,-6.9724 z m -12.889,4.1245 c -2.0547,3.5286 -2.694,5.24 -1.9149,7.4634 0.70622,2.0155 2.5081,3.0702 1.6694,7.758 2.5738,-3.2472 2.4899,-5.5557 1.3503,-7.6107 -1.111,-2.0034 -1.7964,-3.7326 -1.1048,-7.6107 z m -10.974,19.444 v 6.2849 c 0,6.9637 2.8031,12.57 6.2849,12.57 h 18.855 c 2.9378,0 5.3932,-3.9972 6.0885,-9.4274 h 4.9101 c 1.3057,0 2.3568,-1.0512 2.3568,-2.3568 v -4.7137 c 0,-1.3057 -1.0512,-2.3568 -2.3568,-2.3568 h -36.139 z m 3.1179,1.5467 h 1.5958 v 4.7382 c 0.0406,3.5053 -0.42636,9.0382 3.1425,11.023 h -1.1784 c -3.62,-1.7066 -3.2652,-7.6907 -3.5598,-11.023 v -4.7382 z m 28.307,0.81017 h 3.2407 c 0.81606,0 1.473,0.65697 1.473,1.473 v 1.964 c 0,0.81606 -0.65697,1.473 -1.473,1.473 h -3.2652 c 0.0127,-0.32808 0.0246,-0.64719 0.0246,-0.98202 v -3.9281 z m -40.852,18.069 c 0,2.6114 5.6062,4.7137 12.57,4.7137 h 25.14 c 6.9637,0 12.57,-2.1023 12.57,-4.7137 h -50.279 z" fill="url(#linearGradient5724)" color="#000000" inkscape:connector-curvature="0"/>
   <path d="m 140.99,943.38 c -2.4945,4.1792 -3.6822,6.7141 -3.5844,9.231 0.1481,-2.2118 1.2963,-4.5807 3.4125,-8.1508 0.0568,-0.35677 0.0985,-0.69327 0.17185,-1.0802 z m 6.4077,2.3814 c -1.6819,2.4876 -2.4085,4.1739 -2.2586,5.843 0.0957,-1.2424 0.68848,-2.5708 1.7676,-4.2718 0.11722,-0.47096 0.26294,-0.97127 0.49101,-1.5712 z m -6.9232,2.7006 c -0.0578,3.1017 0.7981,4.986 2.1113,7.6598 0.44496,0.90593 0.67876,1.8766 0.73652,2.8724 0.0355,-1.2713 -0.17584,-2.5165 -0.73652,-3.658 -1.1994,-2.442 -2.0243,-4.2206 -2.1113,-6.8741 z m 6.2113,0.81016 c -0.16244,1.7915 0.6032,2.662 1.3503,4.2472 0.31303,0.66422 0.50036,1.3026 0.56466,1.9395 0.0816,-0.9138 -0.12292,-1.7878 -0.56466,-2.7251 -0.62654,-1.3295 -1.2561,-2.1727 -1.3503,-3.4616 z m -12.177,0.61377 c -1.621,2.7838 -2.3519,4.4476 -2.2095,6.1131 0.10623,-1.3702 0.79551,-2.86 2.0622,-5.0574 0.0422,-0.33995 0.0798,-0.677 0.1473,-1.0557 z m -0.2455,3.1179 c -0.0893,2.3403 0.4914,3.7297 1.3503,5.2784 0.40286,0.72642 0.66827,1.4877 0.73651,2.3078 0.0856,-1.1307 -0.20787,-2.1401 -0.73651,-3.0934 -0.7572,-1.3653 -1.2896,-2.6151 -1.3503,-4.4928 z m 12.766,4.3946 c -0.0579,0.57054 -0.23629,1.2525 -0.58921,2.1604 0.15368,-0.1733 0.28135,-0.32485 0.41736,-0.49101 0.18034,-0.68947 0.22665,-1.2099 0.17185,-1.6694 z m -12.57,5.843 c -0.0198,0.55383 -0.071,1.1649 -0.1964,1.8658 0.0547,-0.069 0.095,-0.12827 0.1473,-0.1964 0.0699,-0.62713 0.0732,-1.1755 0.0491,-1.6694 z m 6.2849,0.81017 c -0.0288,0.92392 -0.14177,1.951 -0.36826,3.1425 0.0628,-0.098 0.13451,-0.19499 0.1964,-0.2946 0.154,-1.0732 0.1912,-2.0116 0.17186,-2.8479 z m -17.21,5.2784 v 0.78562 h 36.139 c 1.3057,0 2.3568,1.0512 2.3568,2.3568 v -0.78562 c 0,-1.3057 -1.0512,-2.3568 -2.3568,-2.3568 h -36.139 z m 36.138,5.7939 c 0,0.81606 -0.65697,1.473 -1.473,1.473 h -3.2407 c -0.003,0.26367 -0.0144,0.52312 -0.0246,0.78562 h 3.2652 c 0.81606,0 1.473,-0.65697 1.473,-1.473 v -0.78562 z m -33.02,0.49101 v 0.78562 c 0.29462,3.3325 -0.0601,9.3166 3.5598,11.023 h 1.1784 c -0.39312,-0.21865 -0.72988,-0.48833 -1.0311,-0.78562 h -0.1473 c -3.62,-1.7066 -3.2652,-7.6907 -3.5598,-11.023 z m -12.545,14.141 c 0,0.26512 0.0607,0.53265 0.17185,0.78561 h 49.936 c 0.11112,-0.25296 0.17185,-0.52049 0.17185,-0.78561 h -50.279 z" fill="#ffffff" color="#000000" inkscape:connector-curvature="0"/>
  </g>
  <rect x="-96" rx="25" y="958.36" clip-path="url(#clipPath3009)" fill="#ffffff" fill-opacity="1" height="92" opacity="0.15" width="92" transform="matrix(1 0 0 1 98 0)"/>
 </g>
</svg>
