<?xml version="1.0" encoding="UTF-8" standalone="no"?>
<!-- Created with Inkscape (http://www.inkscape.org/) -->

<svg
   xmlns:dc="http://purl.org/dc/elements/1.1/"
   xmlns:cc="http://creativecommons.org/ns#"
   xmlns:rdf="http://www.w3.org/1999/02/22-rdf-syntax-ns#"
   xmlns:svg="http://www.w3.org/2000/svg"
   xmlns="http://www.w3.org/2000/svg"
   xmlns:sodipodi="http://sodipodi.sourceforge.net/DTD/sodipodi-0.dtd"
   xmlns:inkscape="http://www.inkscape.org/namespaces/inkscape"
   id="svg11037"
   height="96"
   width="96"
   version="1.1"
   inkscape:version="0.48.5 r10040"
   sodipodi:docname="ccc_large.svg">
  <sodipodi:namedview
     pagecolor="#ffffff"
     bordercolor="#666666"
     borderopacity="1"
     objecttolerance="10"
     gridtolerance="10"
     guidetolerance="10"
     inkscape:pageopacity="0"
     inkscape:pageshadow="2"
     inkscape:window-width="640"
     inkscape:window-height="480"
     id="namedview5204" />
  <defs
     id="defs11039">
    <linearGradient
       id="linearGradient3617"
       y2="5.9877"
       gradientUnits="userSpaceOnUse"
       x2="48"
       y1="90"
       x1="48">
      <stop
         id="stop3702"
         style="stop-color:#e70000"
         offset="0" />
      <stop
         id="stop3704"
         style="stop-color:#f22"
         offset="1" />
    </linearGradient>
    <linearGradient
       id="linearGradient3925"
       y2="71.889"
       gradientUnits="userSpaceOnUse"
       x2="64"
       y1="90"
       x1="64">
      <stop
         id="stop3921"
         style="stop-color:#333"
         offset="0" />
      <stop
         id="stop3923"
         style="stop-color:#474747"
         offset="1" />
    </linearGradient>
    <linearGradient
       id="linearGradient3613"
       y2="138.66"
       gradientUnits="userSpaceOnUse"
       x2="48"
       y1="20.221"
       x1="48">
      <stop
         id="stop3739"
         style="stop-color:#fff"
         offset="0" />
      <stop
         id="stop3741"
         style="stop-color:#fff;stop-opacity:0"
         offset="1" />
    </linearGradient>
    <clipPath
       id="clipPath3613">
      <rect
         id="rect3615"
         style="fill:#fff"
         rx="6"
         ry="6"
         height="84"
         width="84"
         y="6"
         x="6" />
    </clipPath>
    <filter
       id="filter3794"
       height="1.384"
       width="1.384"
       color-interpolation-filters="sRGB"
       y="-.192"
       x="-.192">
      <feGaussianBlur
         id="feGaussianBlur3796"
         stdDeviation="5.28" />
    </filter>
    <clipPath
       id="clipPath3056"
       clipPathUnits="userSpaceOnUse">
      <rect
         id="rect3058"
         style="fill:url(#linearGradient3060)"
         rx="22.826"
         ry="22.826"
         height="84"
         width="84"
         y="6"
         x="6" />
    </clipPath>
    <linearGradient
       id="linearGradient3060"
       y2="1046.1"
       gradientUnits="userSpaceOnUse"
       x2="48"
       gradientTransform="matrix(1.05 0 0 1.05 -2.4 -1006.6)"
       y1="962.62"
       x1="48">
      <stop
         id="stop3797"
         style="stop-color:#13a6fd"
         offset="0" />
      <stop
         id="stop3799"
         style="stop-color:#2975b6"
         offset="1" />
    </linearGradient>
    <clipPath
       id="clipPath3009"
       clipPathUnits="userSpaceOnUse">
      <path
         id="path3011"
         style="opacity:.15;fill:#fff"
         d="m-2 956.36h-96v33.562l96 25.687v-59.25z" />
    </clipPath>
  </defs>
  <metadata
     id="metadata11042">
    <rdf:RDF>
      <cc:Work
         rdf:about="">
        <dc:format>image/svg+xml</dc:format>
        <dc:type
           rdf:resource="http://purl.org/dc/dcmitype/StillImage" />
        <dc:title />
      </cc:Work>
    </rdf:RDF>
  </metadata>
  <g
     id="layer1"
     transform="translate(0 -956.36)">
    <g
       id="g3044"
       clip-path="url(#clipPath3056)"
       transform="matrix(1.0952 0 0 1.0952 -4.5714 951.79)">
      <g
         id="layer1-6">
        <rect
           id="rect2419"
           style="fill:url(#linearGradient3617)"
           rx="6"
           ry="6"
           height="84"
           width="84"
           y="6"
           x="6" />
        <path
           id="rect3914"
           d="m6 72v12c0 3.324 2.676 6 6 6h72c3.324 0 6-2.676 6-6v-12h-84z"
           style="color:#000000;fill:url(#linearGradient3925)" />
        <path
           id="path3931"
           d="m42 25c-0.76686 0-1.5215 0.21555-2.1875 0.65625-0.23453 0.15238-0.45938 0.30313-0.65625 0.5l-23.969 24c-1.5669 1.5669-1.5669 4.0893 0 5.6562s4.0893 1.5669 5.6562 0l17.157-17.124v14.312c0 2.216 1.784 4 4 4s4-1.784 4-4v-24c0-0.278-0.036-0.539-0.094-0.812-0.048-0.238-0.099-0.468-0.187-0.688-0.196-0.481-0.484-0.952-0.875-1.344-0.375-0.374-0.824-0.648-1.282-0.844-0.239-0.1-0.489-0.165-0.75-0.218-0.273-0.058-0.534-0.094-0.812-0.094zm10 0c-2.216 0-4 1.784-4 4s1.784 4 4 4h4v20c0 2.216 1.784 4 4 4s4-1.784 4-4v-20h4c2.216 0 4-1.784 4-4s-1.784-4-4-4h-8-8zm26 0c-2.216 0-4 1.784-4 4v24c0 2.216 1.784 4 4 4s4-1.784 4-4v-24c0-2.216-1.784-4-4-4zm0 1c1.6569 0 3 1.3431 3 3s-1.3431 3-3 3-3-1.3431-3-3 1.3431-3 3-3zm-44 19c-1.6569 0-3 1.3431-3 3s1.3431 3 3 3 3-1.3431 3-3-1.3431-3-3-3z"
           style="opacity:.2;color:#000000" />
        <path
           id="rect3868"
           d="m42 24c-0.76686 0-1.5215 0.21555-2.1875 0.65625-0.23453 0.15238-0.45938 0.30313-0.65625 0.5l-23.969 24c-1.5669 1.5669-1.5669 4.0893 0 5.6562s4.0893 1.5669 5.6562 0l17.157-17.124v14.312c0 2.216 1.784 4 4 4s4-1.784 4-4v-24c0-0.278-0.036-0.539-0.094-0.812-0.048-0.238-0.099-0.468-0.187-0.688-0.196-0.481-0.484-0.952-0.875-1.344-0.375-0.374-0.824-0.648-1.282-0.844-0.239-0.1-0.489-0.165-0.75-0.218-0.273-0.058-0.534-0.094-0.812-0.094zm10 0c-2.216 0-4 1.784-4 4s1.784 4 4 4h4v20c0 2.216 1.784 4 4 4s4-1.784 4-4v-20h4c2.216 0 4-1.784 4-4s-1.784-4-4-4h-8-8zm26 0c-2.216 0-4 1.784-4 4v24c0 2.216 1.784 4 4 4s4-1.784 4-4v-24c0-2.216-1.784-4-4-4zm0 1c1.6569 0 3 1.3431 3 3s-1.3431 3-3 3-3-1.3431-3-3 1.3431-3 3-3zm-44 19c-1.6569 0-3 1.3431-3 3s1.3431 3 3 3 3-1.3431 3-3-1.3431-3-3-3z"
           style="color:#000000;fill:#fff" />
        <rect
           id="rect3927"
           style="opacity:.2;color:#000000"
           height="1"
           width="84"
           y="71"
           x="6" />
        <rect
           id="rect3929"
           style="opacity:.1;color:#000000;fill:#fff"
           height="1"
           width="84"
           y="72"
           x="6" />
      </g>
      <g
         id="layer5">
        <rect
           id="rect3171"
           style="opacity:.1;filter:url(#filter3794);stroke:#fff;stroke-linecap:round;stroke-width:.5;fill:url(#linearGradient3613)"
           clip-path="url(#clipPath3613)"
           rx="12"
           ry="12"
           height="66"
           width="66"
           y="15"
           x="15" />
      </g>
    </g>
    <rect
       id="rect3003"
       style="opacity:.15;fill:#fff"
       transform="translate(98 3.8281e-7)"
       clip-path="url(#clipPath3009)"
       rx="25"
       ry="25"
       height="92"
       width="92"
       y="958.36"
       x="-96" />
  </g>
</svg>
