<?xml version="1.0" encoding="UTF-8" standalone="no"?>
<svg
   xmlns:dc="http://purl.org/dc/elements/1.1/"
   xmlns:cc="http://creativecommons.org/ns#"
   xmlns:rdf="http://www.w3.org/1999/02/22-rdf-syntax-ns#"
   xmlns:svg="http://www.w3.org/2000/svg"
   xmlns="http://www.w3.org/2000/svg"
   xmlns:sodipodi="http://sodipodi.sourceforge.net/DTD/sodipodi-0.dtd"
   xmlns:inkscape="http://www.inkscape.org/namespaces/inkscape"
   height="96"
   width="96"
   id="svg2"
   version="1.1"
   inkscape:version="0.91 r13725"
   sodipodi:docname="checkbox.svg">
  <metadata
     id="metadata26">
    <rdf:RDF>
      <cc:Work
         rdf:about="">
        <dc:format>image/svg+xml</dc:format>
        <dc:type
           rdf:resource="http://purl.org/dc/dcmitype/StillImage" />
      </cc:Work>
    </rdf:RDF>
  </metadata>
  <sodipodi:namedview
     pagecolor="#ffffff"
     bordercolor="#666666"
     borderopacity="1"
     objecttolerance="10"
     gridtolerance="10"
     guidetolerance="10"
     inkscape:pageopacity="0"
     inkscape:pageshadow="2"
     inkscape:window-width="1366"
     inkscape:window-height="716"
     id="namedview24"
     showgrid="false"
     inkscape:zoom="2.4583333"
     inkscape:cx="-4.2711864"
     inkscape:cy="48"
     inkscape:window-x="0"
     inkscape:window-y="24"
     inkscape:window-maximized="1"
     inkscape:current-layer="svg2" />
  <defs
     id="defs4">
    <linearGradient
       x2="0"
       y1="962.62"
       y2="1046.1"
       gradientUnits="userSpaceOnUse"
       id="linearGradient11642"
       gradientTransform="matrix(1.15,0,0,1.15,-7.2,-1107.01)">
      <stop
         stop-color="#4490e6"
         id="stop7" />
      <stop
         stop-color="#103d8f"
         offset="1"
         id="stop9" />
    </linearGradient>
    <clipPath
       clipPathUnits="userSpaceOnUse"
       id="clipPath3009">
      <path
         d="m-2 956.36h-96v33.562l96 25.687v-59.25z"
         id="path12" />
    </clipPath>
    <clipPath
       clipPathUnits="userSpaceOnUse"
       id="clipPath4188">
      <rect
         style="fill:#b380ff;fill-opacity:1;stroke:none"
         x="8"
         rx="10.769"
         y="8"
         height="80"
         width="80"
         id="rect4190" />
    </clipPath>
    <clipPath
       clipPathUnits="userSpaceOnUse"
       id="clipPath4192">
      <rect
         style="fill:#b380ff;fill-opacity:1;stroke:none"
         x="8"
         rx="10.769"
         y="8"
         height="80"
         width="80"
         id="rect4194" />
    </clipPath>
    <clipPath
       clipPathUnits="userSpaceOnUse"
       id="clipPath4196">
      <rect
         style="fill:#b380ff;fill-opacity:1;stroke:none"
         x="8"
         rx="10.769"
         y="8"
         height="80"
         width="80"
         id="rect4198" />
    </clipPath>
  </defs>
  <rect
     style="fill:#36c"
     id="rect16"
     width="92"
     height="92"
     y="1.9999853"
     rx="25"
     x="2"
     clip-path="url(#clipPath4196)" />
  <path
     style="opacity:0.25;fill:#4ae5ff"
     inkscape:connector-curvature="0"
     id="path18"
     d="m 60.625,33.56 a 0.89829,0.89829 0 0 0 -0.53125,0.28125 l -16.344,16.29995 -7.844,-7.82995 a 0.89829,0.89829 0 0 0 -1.25,0 l -5.2812,5.31245 a 0.89829,0.89829 0 0 0 0,1.25 l 13.75,13.75 a 0.89829,0.89829 0 0 0 1.25,0 l 22.25,-22.24995 a 0.89829,0.89829 0 0 0 0,-1.25 l -5.2812,-5.2812 a 0.89829,0.89829 0 0 0 -0.719,-0.3 z"
     clip-path="url(#clipPath4192)" />
  <path
     style="fill:white"
     inkscape:connector-curvature="0"
     id="path20"
     d="m 35.294,42.94 8.471,8.5 L 60.706,34.47 66,39.77 43.765,62.04 30,48.24 35.2941,42.9459 Z"
     clip-path="url(#clipPath4188)" />
</svg>
