<svg height="96" width="96" xmlns="http://www.w3.org/2000/svg" xmlns:sodipodi="http://sodipodi.sourceforge.net/DTD/sodipodi-0.dtd" xmlns:inkscape="http://www.inkscape.org/namespaces/inkscape">
 <defs>
  <linearGradient x2="0" y1="962.62" y2="1046.1" gradientUnits="userSpaceOnUse" id="linearGradient11642" gradientTransform="matrix(1.15 0 0 1.15 -7.2 -150.65)">
   <stop stop-color="#4490e6"/>
   <stop stop-color="#103d8f" offset="1"/>
  </linearGradient>
  <clipPath clipPathUnits="userSpaceOnUse" id="clipPath3009">
   <path d="m-2 956.36h-96v33.562l96 25.687v-59.25z"/>
  </clipPath>
 </defs>
 <g transform="matrix(1 0 0 1 0 -956.36)">
  <rect x="2" rx="25" y="958.36" fill="url(#linearGradient11642)" height="92" width="92"/>
  <path d="m60.625 989.92a0.89829 0.89829 0 0 0 -0.53125 0.28125l-16.344 16.3-7.844-7.83a0.89829 0.89829 0 0 0 -1.25 0l-5.2812 5.3125a0.89829 0.89829 0 0 0 0 1.25l13.75 13.75a0.89829 0.89829 0 0 0 1.25 0l22.25-22.25a0.89829 0.89829 0 0 0 0 -1.25l-5.2812-5.2812a0.89829 0.89829 0 0 0 -0.719 -0.3z" fill="#4ae5ff" opacity="0.25"/>
  <path d="m35.294 999.3 8.471 8.5 16.941-16.97 5.294 5.3-22.235 22.27-13.765-13.8 5.2941-5.2941z" fill="#fff"/>
  <rect x="-96" rx="25" y="958.36" clip-path="url(#clipPath3009)" fill="#fff" height="92" opacity="0.15" width="92" transform="matrix(1 0 0 1 98 0)"/>
 </g>
</svg>
