<?xml version="1.0" encoding="UTF-8" standalone="no"?>
<svg
   xmlns:dc="http://purl.org/dc/elements/1.1/"
   xmlns:cc="http://creativecommons.org/ns#"
   xmlns:rdf="http://www.w3.org/1999/02/22-rdf-syntax-ns#"
   xmlns:svg="http://www.w3.org/2000/svg"
   xmlns="http://www.w3.org/2000/svg"
   xmlns:sodipodi="http://sodipodi.sourceforge.net/DTD/sodipodi-0.dtd"
   xmlns:inkscape="http://www.inkscape.org/namespaces/inkscape"
   height="96"
   width="96"
   id="svg2"
   version="1.1"
   inkscape:version="0.91 r13725"
   sodipodi:docname="chromium.svg">
  <metadata
     id="metadata25">
    <rdf:RDF>
      <cc:Work
         rdf:about="">
        <dc:format>image/svg+xml</dc:format>
        <dc:type
           rdf:resource="http://purl.org/dc/dcmitype/StillImage" />
      </cc:Work>
    </rdf:RDF>
  </metadata>
  <sodipodi:namedview
     pagecolor="#ffffff"
     bordercolor="#666666"
     borderopacity="1"
     objecttolerance="10"
     gridtolerance="10"
     guidetolerance="10"
     inkscape:pageopacity="0"
     inkscape:pageshadow="2"
     inkscape:window-width="757"
     inkscape:window-height="480"
     id="namedview23"
     showgrid="false"
     showguides="true"
     inkscape:guide-bbox="true"
     inkscape:zoom="4.9166667"
     inkscape:cx="77.638374"
     inkscape:cy="34.10055"
     inkscape:window-x="25"
     inkscape:window-y="49"
     inkscape:window-maximized="0"
     inkscape:current-layer="g11" />
  <defs
     id="defs4">
    <linearGradient
       x1="48.764"
       x2="48.951"
       y1="982.5"
       y2="965.77"
       gradientUnits="userSpaceOnUse"
       id="linearGradient4593"
       inkscape:collect="always"
       gradientTransform="matrix(1.0067 0 0 1.0067 -0.46 -8.196)">
      <stop
         stop-color="#e0e0e0"
         id="stop7" />
      <stop
         stop-color="#fff"
         offset="1"
         id="stop9" />
    </linearGradient>
  </defs>
  <g
     inkscape:label="Layer 1"
     inkscape:groupmode="layer"
     transform="matrix(1 0 0 1 0 -956.36)"
     id="g11">
    <rect
       x="8.751"
       rx="10.769"
       y="964.14"
       fill="url(#linearGradient4593)"
       fill-opacity="1"
       stroke="none"
       height="80"
       width="80"
       id="rect13" />
    <path
       d="M 19.53125 7.78125 C 13.565096 7.78125 8.75 12.565096 8.75 18.53125 L 8.75 20.4375 L 30.34375 57.78125 C 28.73137 54.81275 27.8125 51.39755 27.8125 47.78125 C 27.8125 36.20998 37.17863 26.8125 48.75 26.8125 L 88.75 26.8125 L 88.75 18.53125 C 88.75 12.565096 83.934904 7.78125 77.96875 7.78125 L 19.53125 7.78125 z "
       fill="#678eb6"
       fill-opacity="1"
       transform="matrix(1 0 0 1 0 956.36)"
       id="path15"
       style="fill:#5783b3;fill-opacity:1" />
    <path
       d="m 48.75,983.44018 c 11.57136,0 20.96875,9.39718 20.96875,20.96872 0,3.8136 -1.03212,7.3886 -2.8125,10.4688 -0.0766,0.1326 -0.17056,0.2443 -0.25,0.375 l -16.8125,29.1562 28.125,0 c 5.966154,0 10.78125,-4.8151 10.78125,-10.7812 l 0,-50.18752 -40,0 z"
       fill="#afcee9"
       fill-opacity="1"
       inkscape:connector-curvature="0"
       id="path17"
       style="fill:#95b9dd;fill-opacity:1" />
    <path
       d="M 8.75 20.4375 L 8.75 77 C 8.75 82.966154 13.565096 87.78125 19.53125 87.78125 L 49.84375 87.78125 L 66.65625 58.625 C 62.98199 64.6735 56.34423 68.71875 48.75 68.71875 C 40.99194 68.71875 34.21468 64.5166 30.59375 58.25 C 30.50135 58.091 30.43231 57.94315 30.34375 57.78125 L 8.75 20.4375 z "
       fill="#7daedb"
       fill-opacity="1"
       transform="matrix(1 0 0 1 0 956.36)"
       id="path19"
       style="fill:#6193c5;fill-opacity:1" />
    <path
       d="m 66.84615,1004.139 a 18.09514,18.09514 0 0 1 -36.19028,0 18.09514,18.09514 0 1 1 36.19028,0 z"
       fill="#4382b8"
       color="#000000"
       fill-opacity="1"
       inkscape:connector-curvature="0"
       id="path21"
       style="fill:#3d7de5;fill-opacity:1" />
  </g>
</svg>
