<svg height="96" width="96" xmlns="http://www.w3.org/2000/svg" xmlns:xlink="http://www.w3.org/1999/xlink" xmlns:sodipodi="http://sodipodi.sourceforge.net/DTD/sodipodi-0.dtd" xmlns:inkscape="http://www.inkscape.org/namespaces/inkscape">
 <defs>
  <path d="M 0,0 C 0,0.862 -0.704,1.563 -1.567,1.563 -2.431,1.563 -3.135,0.862 -3.135,0 l 0,-7.595 c 0,-0.867 0.704,-1.566 1.568,-1.566 0.863,0 1.567,0.699 1.567,1.566 L 0,0 z" stroke="none" fill-rule="nonzero" id="SVGCleanerId_0"/>
 </defs>
 <g inkscape:label="Layer 1" inkscape:groupmode="layer" transform="matrix(1 0 0 1 0 -956.36)">
  <rect x="8" rx="10.769" y="964.36" fill="#e6e6e6" fill-opacity="1" stroke="none" height="80" width="80"/>
  <g transform="matrix(0.92308 0 0 0.92308 -98.07 85.37)">
   <g display="inline" fill="#e2b138" fill-opacity="1" transform="matrix(0.20375 0 0 0.20375 642.16 1236.22)">
    <path d="m -2477.707,-1317.702 c 68.444,-0.01 136.886,-0.01 205.33,0 -7.669,7.477 -15.16,15.119 -22.864,22.562 -9.386,9.091 -18.534,18.405 -27.915,27.504 -5.333,5.301 -10.831,10.448 -16.033,15.874 -9.323,9.162 -18.716,18.261 -27.973,27.483 -4.706,4.067 -12.796,3.915 -17.049,-0.729 -31.206,-30.859 -62.293,-61.829 -93.496,-92.694 z" inkscape:connector-curvature="0"/>
    <path d="m -2480.034,-1174.12 c 0.022,-44.829 0.023,-89.656 -10e-4,-134.484 22.531,22.194 42.095,42.754 64.553,65.016 -21.738,23.529 -43.162,46.337 -64.552,69.468 z" inkscape:connector-curvature="0"/>
    <path d="m -2271.277,-1173.592 c -0.02,-44.827 -0.022,-89.655 0,-134.483 -22.531,22.195 -42.094,42.754 -64.555,65.016 21.74,23.53 43.164,46.338 64.554,69.467 z" inkscape:connector-curvature="0"/>
    <path d="m -2476.911,-1167.006 66.903,-71.278 c 4.785,4.57 14.09,12.959 18.938,17.468 11.384,10.138 22.342,9.988 33.441,-0.495 4.418,-4.334 12.399,-12.204 16.824,-16.532 l 65.034,70.837 c -67.99,0 -133.15,0 -201.14,0 z" inkscape:connector-curvature="0"/>
   </g>
   <path stroke-opacity="1" d="m 157.95297,987.26755 a 15.951019,15.951866 74.993998 1 1 -30.81664,8.25729 15.951019,15.951866 74.993998 0 1 30.81664,-8.25729 z" stroke-width="1.692" display="inline" fill="#6c3" fill-opacity="1" stroke="#4d4d4d" stroke-dasharray="none" stroke-linecap="butt" stroke-linejoin="miter" stroke-miterlimit="4" inkscape:connector-curvature="0"/>
   <path stroke-opacity="1" d="m 149.94913,1005.767 c 0,0 5.55675,-4.7673 10.88414,-1.6917 l 1.85447,-3.1039 c -5.38142,-3.10679 -4.02367,-10.2982 -4.02367,-10.2982 -0.19494,3.00373 -0.0631,4.85745 -2.2878,8.7106 -2.23823,3.8765 -6.42714,6.3832 -6.42714,6.3832 z" stroke-width="0.846" display="inline" fill="#333" fill-opacity="1" fill-rule="evenodd" stroke="#404141" stroke-linecap="butt" stroke-linejoin="miter" inkscape:connector-curvature="0"/>
   <rect x="-790.56" rx="0.863" display="inline" y="641.4" fill="#4d4d4d" fill-opacity="1" stroke="none" height="30.649" width="6.475" transform="matrix(0.50002 -0.86601 0.86604 0.49998 0 0)"/>
   <g fill="#146381" fill-opacity="1" transform="matrix(0.48611 0 0 -0.48611 98.76 1381.31)">
    <path d="M 0,0 C 0,0.862 -0.704,1.561 -1.567,1.561 -2.43,1.561 -3.135,0.862 -3.135,0 l 0,-3.284 c 0,-0.867 0.705,-1.567 1.568,-1.567 0.863,0 1.567,0.7 1.567,1.567 L 0,0 z" fill-rule="nonzero" stroke="none" inkscape:connector-curvature="0" transform="matrix(1 0 0 1 89.15 744.23)"/>
    <use xlink:href="#SVGCleanerId_0" inkscape:connector-curvature="0" transform="matrix(1 0 0 1 97.76 748.54)"/>
    <path d="m 0,0 c 0,0.862 -0.704,1.562 -1.567,1.562 -0.864,0 -1.568,-0.7 -1.568,-1.562 l 0,-16.613 c 0,-0.867 0.704,-1.567 1.568,-1.567 0.863,0 1.567,0.7 1.567,1.567 L 0,0 z" fill-rule="nonzero" stroke="none" inkscape:connector-curvature="0" transform="matrix(1 0 0 1 106.37 754.44)"/>
    <use xlink:href="#SVGCleanerId_0" inkscape:connector-curvature="0" transform="matrix(1 0 0 1 114.98 748.54)"/>
    <path d="M 0,0 C 0,0.862 -0.699,1.561 -1.558,1.561 -2.421,1.561 -3.125,0.862 -3.125,0 l 0,-3.284 c 0,-0.867 0.704,-1.567 1.567,-1.567 0.859,0 1.558,0.7 1.558,1.567 L 0,0 z" fill-rule="nonzero" stroke="none" inkscape:connector-curvature="0" transform="matrix(1 0 0 1 123.58 744.23)"/>
    <path d="M 0,0 C 0,0.862 -0.699,1.563 -1.562,1.563 -2.424,1.563 -3.125,0.862 -3.125,0 l 0,-7.595 c 0,-0.867 0.701,-1.566 1.563,-1.566 0.863,0 1.562,0.699 1.562,1.566 L 0,0 z" fill-rule="nonzero" stroke="none" inkscape:connector-curvature="0" transform="matrix(1 0 0 1 132.19 748.54)"/>
    <path d="m 0,0 c 0,0.862 -0.699,1.562 -1.562,1.562 -0.864,0 -1.563,-0.7 -1.563,-1.562 l 0,-16.613 c 0,-0.867 0.699,-1.567 1.563,-1.567 0.863,0 1.562,0.7 1.562,1.567 L 0,0 z" fill-rule="nonzero" stroke="none" inkscape:connector-curvature="0" transform="matrix(1 0 0 1 140.81 754.44)"/>
    <path d="M 0,0 C 0,0.862 -0.699,1.563 -1.582,1.563 -2.445,1.563 -3.144,0.862 -3.144,0 l 0,-7.595 c 0,-0.867 0.699,-1.566 1.562,-1.566 0.883,0 1.582,0.699 1.582,1.566 L 0,0 z" fill-rule="nonzero" stroke="none" inkscape:connector-curvature="0" transform="matrix(1 0 0 1 149.42 748.54)"/>
    <path d="M 0,0 C 0,0.862 -0.701,1.561 -1.563,1.561 -2.426,1.561 -3.127,0.862 -3.127,0 l 0,-3.284 c 0,-0.867 0.701,-1.567 1.564,-1.567 0.862,0 1.563,0.7 1.563,1.567 L 0,0 z" fill-rule="nonzero" stroke="none" inkscape:connector-curvature="0" transform="matrix(1 0 0 1 158.02 744.23)"/>
   </g>
  </g>
 </g>
</svg>
