<svg height="96" width="96" xmlns="http://www.w3.org/2000/svg" xmlns:xlink="http://www.w3.org/1999/xlink" xmlns:sodipodi="http://sodipodi.sourceforge.net/DTD/sodipodi-0.dtd" xmlns:inkscape="http://www.inkscape.org/namespaces/inkscape">
 <defs>
  <clipPath id="clipPath5073">
   <path d="M 12,6 C 8.676,6 6,8.676 6,12 l 0,5.15625 c 0.5607525,-0.02408 1.1143505,-0.02606 1.6875,-0.03125 4.415916,-0.03998 9.093367,0.51802 12.75,2.40625 C 23.062415,20.886716 16.106519,39.324269 15.15625,47.5 14.205976,55.675739 10.431874,75.281315 8.21875,76.1875 7.5149894,76.475659 6.7650208,76.448668 6,76.1875 L 6,84 c 0,3.324 2.676,6 6,6 l 4.125,0 C 15.436857,88.880764 15.203265,87.818474 15.59375,86.90625 16.800434,84.087281 33.450567,78.398887 41.625,77.4375 49.799434,76.476113 67.45908,73.196868 75.6875,73 c 3.094849,-0.07404 2.735013,9.194408 1.84375,17 L 84,90 c 3.324,0 6,-2.676 6,-6 L 90,12 C 90,8.676 87.324,6 84,6 L 12,6 z m 17.28125,14.28125 c 1.78531,-0.05867 3.323835,1.361544 6.03125,2.46875 4.813182,1.968365 14.36191,5.662581 13.8125,13.875 C 48.575607,44.837395 35.2376,54.91219 29.875,61.15625 24.512407,67.400303 13.450891,79.390877 12.25,79.25 7.8688132,78.736053 15.450592,64.212421 16,56 c 0.549411,-8.212418 2.637409,-25.755946 8,-32 2.346134,-2.731773 3.892675,-3.673116 5.28125,-3.71875 z M 56,38.03125 c 0.18278,0.0015 0.388954,0.02701 0.5625,0.0625 5.709701,1.167479 9.229846,8.058486 11.40625,12.78125 2.176402,4.722763 7.635378,9.994882 6.84375,18.1875 -0.397571,4.114495 -27.288105,5.09294 -35.46875,6 -8.180645,0.90706 -24.182831,10.630924 -24.1875,8.03125 C 15.14735,78.160264 25.497664,68.135236 31.4375,62.4375 40.336807,53.900918 50.333825,37.985401 56,38.03125 z" inkscape:connector-curvature="0"/>
  </clipPath>
  <filter x="-0.18" y="-0.18" height="1.36" color-interpolation-filters="sRGB" id="filter3740-3" width="1.36">
   <feGaussianBlur stdDeviation="0.75"/>
  </filter>
  <clipPath id="clipPath3613">
   <rect x="6" rx="6" y="6" height="84" width="84"/>
  </clipPath>
  <filter x="-0.192" y="-0.192" height="1.384" color-interpolation-filters="sRGB" id="filter3794" width="1.384">
   <feGaussianBlur stdDeviation="5.28"/>
  </filter>
  <linearGradient x2="0" y1="16" y2="88" gradientUnits="userSpaceOnUse" id="linearGradient3218" inkscape:collect="always">
   <stop stop-color="#feedcd" stop-opacity="1"/>
   <stop stop-color="#fde4b3" stop-opacity="1" offset="1"/>
  </linearGradient>
  <radialGradient cy="71" r="5" gradientUnits="userSpaceOnUse" id="radialGradient3228" cx="21" inkscape:collect="always" gradientTransform="matrix(1.2 0 0 1.2 -4.2 -14.2)">
   <stop stop-color="#ffecc4" stop-opacity="1"/>
   <stop stop-color="#ffbd3c" stop-opacity="1" offset="0.371"/>
   <stop stop-color="#f18300" stop-opacity="1" offset="0.716"/>
   <stop stop-color="#da5000" stop-opacity="1" offset="1"/>
  </radialGradient>
  <linearGradient x2="0" y1="64.03" y2="74.2" gradientUnits="userSpaceOnUse" id="linearGradient3230" inkscape:collect="always">
   <stop stop-color="#ffffff" stop-opacity="1"/>
   <stop stop-color="#ffffff" stop-opacity="0" offset="1"/>
  </linearGradient>
  <path d="m 8,16 c -39.764502,0 -72,32.235498 -72,72 0,39.7645 32.235498,72 72,72 39.764502,0 72,-32.2355 72,-72 C 80,48.235498 47.764502,16 8,16 z" stroke-width="4" fill="url(#linearGradient3218)" fill-opacity="1" color="black" stroke="none" fill-rule="nonzero" id="SVGCleanerId_0" visibility="visible"/>
  <path d="M 80,88 A 72,72 0 1 1 -64,88 72,72 0 1 1 80,88 z" stroke-width="4" fill="url(#linearGradient3218)" fill-opacity="1" color="black" stroke="none" fill-rule="nonzero" id="SVGCleanerId_1" visibility="visible"/>
  <path d="m 26,69 a 5,5 0 1 1 -10,0 5,5 0 1 1 10,0 z" fill-opacity="1" stroke="none" id="SVGCleanerId_2"/>
  <path d="m 21,64.6875 c -2.374424,0 -4.3125,1.938076 -4.3125,4.3125 0,1.404322 0.708594,2.621657 1.75,3.40625 -0.463567,-0.686169 -0.75,-1.515841 -0.75,-2.40625 0,-2.374424 1.938076,-4.3125 4.3125,-4.3125 0.890409,0 1.720081,0.286433 2.40625,0.75 -0.784593,-1.041406 -2.001928,-1.75 -3.40625,-1.75 z" fill="white" fill-opacity="1" stroke="none" id="SVGCleanerId_3" opacity="0.4"/>
 </defs>
 <g inkscape:label="Layer 1" inkscape:groupmode="layer" transform="matrix(1 0 0 1 0 -956.36)">
  <rect x="8" rx="10.769" y="964.36" fill="#d45500" fill-opacity="1" stroke="none" height="80" width="80"/>
  <g display="inline" clip-path="url(#clipPath5073)" fill="#803300" fill-opacity="1" opacity="0.6" transform="matrix(0.95238 0 0 0.95238 2.286 958.65)">
   <use xlink:href="#path4202" height="96" width="96" transform="matrix(1 0 0 1 70.54 16.411)"/>
   <use xlink:href="#path4202" height="96" width="96" transform="matrix(1 0 0 1 61.977 9.407)"/>
   <use xlink:href="#path4202" height="96" width="96" transform="matrix(1 0 0 1 3.3 29.824)"/>
   <use xlink:href="#path4202" height="96" width="96" transform="matrix(1 0 0 1 67.29 35.878)"/>
   <use xlink:href="#path4202" height="96" width="96" transform="matrix(1 0 0 1 48.943 15.549)"/>
   <use xlink:href="#path4202" height="96" width="96" transform="matrix(1 0 0 1 62.957 27.485)"/>
   <use xlink:href="#path4202" height="96" width="96" transform="matrix(1 0 0 1 26.753 72.16)"/>
   <use xlink:href="#path4202" height="96" width="96" transform="matrix(1 0 0 1 70.26 42.15)"/>
   <use xlink:href="#path4202" height="96" width="96" transform="matrix(1 0 0 1 60.676 72.923)"/>
   <use xlink:href="#path4202" height="96" width="96" transform="matrix(1 0 0 1 63.49 67.904)"/>
   <use xlink:href="#path4202" height="96" width="96" transform="matrix(1 0 0 1 73.932 68.66)"/>
   <use xlink:href="#path4202" height="96" width="96" transform="matrix(1 0 0 1 16.961 -6.607)"/>
   <use xlink:href="#path4202" height="96" width="96" transform="matrix(1 0 0 1 25.761 3.807)"/>
   <use xlink:href="#path4202" height="96" width="96" transform="matrix(1 0 0 1 40.33 -0.459)"/>
   <use xlink:href="#path4202" height="96" width="96" transform="matrix(1 0 0 1 39.05 15.383)"/>
   <use xlink:href="#path4202" height="96" width="96" transform="matrix(1 0 0 1 52.18 -0.311)"/>
   <use xlink:href="#path4202" height="96" width="96" transform="matrix(1 0 0 1 68.72 -5.105)"/>
   <use xlink:href="#path4202" height="96" width="96" transform="matrix(1 0 0 1 77.53 6.429)"/>
   <use xlink:href="#path4202" height="96" width="96" transform="matrix(1 0 0 1 82.25 17.546)"/>
   <use xlink:href="#path4202" height="96" width="96" transform="matrix(1 0 0 1 76.51 24.421)"/>
   <use xlink:href="#path4202" height="96" width="96" transform="matrix(1 0 0 1 78.26 24.87)"/>
   <use xlink:href="#path4202" height="96" width="96" transform="matrix(1 0 0 1 79.48 36.596)"/>
   <use xlink:href="#path4202" height="96" width="96" transform="matrix(1 0 0 1 83.27 50.08)"/>
   <use xlink:href="#path4202" height="96" width="96" transform="matrix(1 0 0 1 82.04 63.47)"/>
   <use xlink:href="#path4202" height="96" width="96" transform="matrix(1 0 0 1 83.1 60.41)"/>
   <path d="m 6.6380842,4.9299416 c -0.376598,0 -0.6875,0.3109021 -0.6875,0.6875 0,0.3765979 0.310902,0.6875 0.6875,0.6875 0.376598,0 0.6875,-0.3109021 0.6875,-0.6875 0,-0.3765979 -0.310902,-0.6875 -0.6875,-0.6875 z m -3.15625,0.3125 c -0.6276632,0 -1.125,0.4973368 -1.125,1.125 0,0.6276632 0.4973368,1.15625 1.125,1.15625 0.6276632,0 1.15625,-0.5285868 1.15625,-1.15625 0,-0.6276632 -0.5285868,-1.125 -1.15625,-1.125 z m 5.625,0.4375 c -0.627663,0 -1.15625,0.5285868 -1.15625,1.15625 0,0.6276632 0.528587,1.125 1.15625,1.125 0.627663,0 1.1249998,-0.4973368 1.1249998,-1.125 0,-0.6276632 -0.4973368,-1.15625 -1.1249998,-1.15625 z m 6.5312498,1.25 c -0.376598,0 -0.6875,0.3109021 -0.6875,0.6875 0,0.3765979 0.310902,0.6875 0.6875,0.6875 0.376598,0 0.6875,-0.3109021 0.6875,-0.6875 0,-0.3765979 -0.310902,-0.6875 -0.6875,-0.6875 z m -5.9999998,1 c -0.376598,0 -0.6875,0.3109021 -0.6875,0.6875 0,0.3765979 0.310902,0.6875 0.6875,0.6875 0.3765978,0 0.6874998,-0.3109021 0.6874998,-0.6875 0,-0.3765979 -0.310902,-0.6875 -0.6874998,-0.6875 z m -8,0.5 c -0.3765979,0 -0.68750004,0.3109021 -0.68750004,0.6875 0,0.3765979 0.31090214,0.65625 0.68750004,0.65625 0.3765979,0 0.6875,-0.2796521 0.6875,-0.65625 0,-0.3765979 -0.3109021,-0.6875 -0.6875,-0.6875 z m 12.2812498,0.4375 c -0.376598,0 -0.6875,0.3109021 -0.6875,0.6875 0,0.3765979 0.310902,0.6875004 0.6875,0.6875004 0.376598,0 0.6875,-0.3109025 0.6875,-0.6875004 0,-0.3765979 -0.310902,-0.6875 -0.6875,-0.6875 z m -7.2812498,0.0625 c -0.376598,0 -0.6875,0.3109021 -0.6875,0.6875 0,0.3765979 0.310902,0.6875004 0.6875,0.6875004 0.376598,0 0.6875,-0.3109025 0.6875,-0.6875004 0,-0.3765979 -0.310902,-0.6875 -0.6875,-0.6875 z m 4.9999998,0 c -0.376598,0 -0.6875,0.3109021 -0.6875,0.6875 0,0.3765979 0.310902,0.6875004 0.6875,0.6875004 0.376598,0 0.6875,-0.3109025 0.6875,-0.6875004 0,-0.3765979 -0.310902,-0.6875 -0.6875,-0.6875 z m -7.9999998,1 c -0.3765979,0 -0.6875,0.3109024 -0.6875,0.6875004 0,0.376598 0.3109021,0.6875 0.6875,0.6875 0.3765979,0 0.6875,-0.310902 0.6875,-0.6875 0,-0.376598 -0.3109021,-0.6875004 -0.6875,-0.6875004 z M 16.669334,10.086192 c -0.627663,0 -1.125,0.497337 -1.125,1.125 0,0.627663 0.497337,1.15625 1.125,1.15625 0.627663,0 1.15625,-0.528587 1.15625,-1.15625 0,-0.627663 -0.528587,-1.125 -1.15625,-1.125 z m -8.7812498,0.3125 c -0.627663,0 -1.125,0.497337 -1.125,1.125 0,0.627663 0.497337,1.15625 1.125,1.15625 0.627663,0 1.125,-0.528587 1.125,-1.15625 0,-0.627663 -0.497337,-1.125 -1.125,-1.125 z m -8.03125004,0.15625 c -0.6276632,0 -1.12499996,0.497337 -1.12499996,1.125 0,0.627663 0.49733676,1.125 1.12499996,1.125 0.6276632,0 1.125,-0.497337 1.125,-1.125 0,-0.627663 -0.4973368,-1.125 -1.125,-1.125 z m 11.78124984,1.375 c -0.376598,0 -0.6875,0.310902 -0.6875,0.6875 0,0.376598 0.310902,0.6875 0.6875,0.6875 0.376598,0 0.6875,-0.310902 0.6875,-0.6875 0,-0.376598 -0.310902,-0.6875 -0.6875,-0.6875 z m 2,0 c -0.376598,0 -0.6875,0.310902 -0.6875,0.6875 0,0.376598 0.310902,0.6875 0.6875,0.6875 0.376598,0 0.6875,-0.310902 0.6875,-0.6875 0,-0.376598 -0.310902,-0.6875 -0.6875,-0.6875 z m -8.9374998,0.90625 c -0.3765979,0 -0.6875,0.310902 -0.6875,0.6875 0,0.376598 0.3109021,0.6875 0.6875,0.6875 0.3765979,0 0.6875,-0.310902 0.6875,-0.6875 0,-0.376598 -0.3109021,-0.6875 -0.6875,-0.6875 z m -3.0625,1.09375 c -0.3765979,0 -0.68750004,0.310902 -0.68750004,0.6875 0,0.376598 0.31090214,0.6875 0.68750004,0.6875 0.3765979,0 0.6875,-0.310902 0.6875,-0.6875 0,-0.376598 -0.3109021,-0.6875 -0.6875,-0.6875 z m 7,0 c -0.376598,0 -0.6875,0.310902 -0.6875,0.6875 0,0.376598 0.310902,0.6875 0.6875,0.6875 0.376598,0 0.6875,-0.310902 0.6875,-0.6875 0,-0.376598 -0.310902,-0.6875 -0.6875,-0.6875 z m 5.9999998,0 c -0.376598,0 -0.6875,0.310902 -0.6875,0.6875 0,0.376598 0.310902,0.6875 0.6875,0.6875 0.376598,0 0.6875,-0.310902 0.6875,-0.6875 0,-0.376598 -0.310902,-0.6875 -0.6875,-0.6875 z m -16.1874998,0.90625 c -0.3765979,0 -0.6875,0.279652 -0.6875,0.65625 0,0.376598 0.3109021,0.6875 0.6875,0.6875 0.3765979,0 0.68749996,-0.310902 0.68749996,-0.6875 0,-0.376598 -0.31090206,-0.65625 -0.68749996,-0.65625 z m 6.5625,0.40625 c -0.6276632,0 -1.125,0.497337 -1.125,1.125 0,0.627663 0.4973368,1.15625 1.125,1.15625 0.627663,0 1.125,-0.528587 1.125,-1.15625 0,-0.627663 -0.497337,-1.125 -1.125,-1.125 z m 6.6562498,0 c -0.627663,0 -1.125,0.497337 -1.125,1.125 0,0.627663 0.497337,1.15625 1.125,1.15625 0.627663,0 1.15625,-0.528587 1.15625,-1.15625 0,-0.627663 -0.528587,-1.125 -1.15625,-1.125 z m -11.96874984,1.65625 c -0.6276632,0 -1.12499996,0.528587 -1.12499996,1.15625 0,0.627663 0.49733676,1.125 1.12499996,1.125 0.6276632,0 1.15625,-0.497337 1.15625,-1.125 0,-0.627663 -0.5285868,-1.15625 -1.15625,-1.15625 z m 8.93750004,0.03125 c -0.376598,0 -0.6875,0.310902 -0.6875,0.6875 0,0.376598 0.310902,0.6875 0.6875,0.6875 0.376598,0 0.6875,-0.310902 0.6875,-0.6875 0,-0.376598 -0.310902,-0.6875 -0.6875,-0.6875 z m -4.46875,1.46875 c -0.3765979,0 -0.6875,0.310902 -0.6875,0.6875 0,0.376598 0.3109021,0.6875 0.6875,0.6875 0.3765979,0 0.6875,-0.310902 0.6875,-0.6875 0,-0.376598 -0.3109021,-0.6875 -0.6875,-0.6875 z m 3.40625,0.3125 c -0.627663,0 -1.125,0.528587 -1.125,1.15625 0,0.627663 0.497337,1.125 1.125,1.125 0.627663,0 1.15625,-0.497337 1.15625,-1.125 0,-0.627663 -0.528587,-1.15625 -1.15625,-1.15625 z" stroke-width="0.3" display="inline" fill="#803300" color="black" fill-opacity="1" fill-rule="nonzero" stroke="none" id="path4202" opacity="0.4" visibility="visible" inkscape:connector-curvature="0"/>
  </g>
  <g display="inline" transform="matrix(1 0 0 1 2 954.36)">
   <g clip-path="url(#clipPath5073)">
    <use xlink:href="#SVGCleanerId_0" opacity="0.1" inkscape:connector-curvature="0" transform="matrix(1.03472 0 0 1.03472 3.222 -6.556)"/>
    <use xlink:href="#SVGCleanerId_0" opacity="0.2" inkscape:connector-curvature="0" transform="matrix(1.02778 0 0 1.02778 2.778 -5.444)"/>
    <use xlink:href="#SVGCleanerId_1" opacity="0.3" inkscape:connector-curvature="0" transform="matrix(1.02083 0 0 1.02083 2.333 -4.333)"/>
    <use xlink:href="#SVGCleanerId_1" opacity="0.5" inkscape:connector-curvature="0" transform="matrix(1.01389 0 0 1.01389 1.889 -3.222)"/>
    <use xlink:href="#SVGCleanerId_1" inkscape:connector-curvature="0" transform="matrix(1 0 0 1 2 -2)"/>
   </g>
   <g transform="matrix(1.08381 0 0 0.86656 46.3 -36.871)">
    <use xlink:href="#SVGCleanerId_2" fill="#9f2c00" filter="url(#filter3740-3)" inkscape:connector-curvature="0" transform="matrix(1 0 0 1 0 1)"/>
    <use xlink:href="#SVGCleanerId_2" fill="url(#radialGradient3228)" inkscape:connector-curvature="0"/>
    <use xlink:href="#SVGCleanerId_3" inkscape:connector-curvature="0"/>
    <use xlink:href="#SVGCleanerId_2" fill="url(#linearGradient3230)" inkscape:connector-curvature="0" transform="matrix(0.42108 -0.20641 0.1032 0.21054 3.676 56.25)"/>
   </g>
   <g transform="matrix(0.79644 0 0 0.63679 62.29 -13.307)">
    <use xlink:href="#SVGCleanerId_2" fill="#a02c00" filter="url(#filter3740-3)" inkscape:connector-curvature="0" transform="matrix(1 0 0 1 0 1)"/>
    <use xlink:href="#SVGCleanerId_2" fill="url(#radialGradient3228)" inkscape:connector-curvature="0"/>
    <use xlink:href="#SVGCleanerId_3" inkscape:connector-curvature="0"/>
    <use xlink:href="#SVGCleanerId_2" fill="url(#linearGradient3230)" inkscape:connector-curvature="0" transform="matrix(0.42108 -0.20641 0.1032 0.21054 3.676 56.25)"/>
   </g>
  </g>
  <rect stroke="white" stroke-dasharray="none" clip-path="url(#clipPath3613)" stroke-dashoffset="0" stroke-linecap="round" height="66" stroke-linejoin="miter" stroke-miterlimit="4" stroke-opacity="1" stroke-width="0.5" width="66" fill="yellow" fill-opacity="1" opacity="0.1" x="15" fill-rule="nonzero" filter="url(#filter3794)" y="15" rx="12" transform="matrix(0.95238 0 0 0.95238 2.286 958.65)"/>
 </g>
</svg>
