<svg height="96" width="96" xmlns="http://www.w3.org/2000/svg" xmlns:sodipodi="http://sodipodi.sourceforge.net/DTD/sodipodi-0.dtd" xmlns:inkscape="http://www.inkscape.org/namespaces/inkscape">
 <defs>
  <filter color-interpolation-filters="sRGB" id="filter3944">
   <feGaussianBlur stdDeviation="0.43594"/>
  </filter>
  <radialGradient cy="46.06" r="3" gradientUnits="userSpaceOnUse" id="radialGradient3056" cx="48" inkscape:collect="always" gradientTransform="matrix(0.33332 0 0 0.33332 32.503 987.79)">
   <stop stop-color="#fff"/>
   <stop stop-color="#a2a2a2" offset="1"/>
  </radialGradient>
 </defs>
 <g inkscape:label="Layer 1" inkscape:groupmode="layer" transform="matrix(1 0 0 1 0 -956.36)">
  <rect x="8" rx="10.769" y="964.36" fill="#2c5aa0" fill-opacity="1" stroke="none" height="80" width="80"/>
  <path d="m 48.5,1038.8622 a 35,35 0 1 1 0,-70.00002 35,35 0 0 1 0,70.00002 z" fill="#025" color="black" inkscape:connector-curvature="0"/>
  <path d="m 48.5028,1037.7422 a 33.99828,33.99828 0 1 1 0,-67.9966 33.99828,33.99828 0 0 1 0,67.9966 z" fill="#e6e6e6" color="black" inkscape:connector-curvature="0"/>
  <path d="m 36.938,28.844 -0.875,0.5 9.6875,16.781 -12.969,-6.7812 -0.75,1.3125 13.875,8.8125 -2.4062,3.5 0.531,0.532 4.188,-2.844 4.781,1.656 0.375,-0.624 -3.219,-2.782 15.344,-16.344 -1.062,-1.062 -16.688,15.656 -0.312,-0.156 -10.5,-18.156 z" filter="url(#filter3944)" opacity="0.3" inkscape:connector-curvature="0" transform="matrix(0.99994 0 0 0.99994 0.506 955.8)"/>
  <path d="m 47.441579,1002.7415 17.50035,-16.43917 1.060647,1.06065 -16.439129,17.50032 -5.037861,3.4471 -0.530302,-0.5304 3.446869,-5.0378 z" fill="#025" inkscape:connector-curvature="0"/>
  <g fill="#025" transform="matrix(0.99994 0 0 0.99994 0.506 955.8)">
   <path d="m 46.196,24 h -0.71207 v -3.6939 c -3e-6,-0.11598 -3e-6,-0.24005 0,-0.37222 0.0027,-0.13216 0.0054,-0.26298 0.0081,-0.39245 0.0054,-0.13216 0.0094,-0.25758 0.01214,-0.37626 0.0054,-0.12137 0.0094,-0.22791 0.01214,-0.31962 -0.04586,0.04856 -0.08631,0.09036 -0.12138,0.12542 -0.03507,0.03507 -0.07148,0.06878 -0.10924,0.10115 -0.03507,0.03237 -0.07283,0.06744 -0.11328,0.10519 -0.04046,0.03507 -0.08901,0.07688 -0.14565,0.12542 l -0.59879,0.48955 -0.3884,-0.49764 1.5496,-1.2097 h 0.60688 v 5.915" inkscape:connector-curvature="0"/>
   <path d="m 51.961,24 h -3.6898 v -0.63115 l 1.416,-1.5415 c 0.20229,-0.21847 0.383,-0.41807 0.54214,-0.59879 0.15913,-0.18071 0.294,-0.35738 0.40458,-0.53001 0.11328,-0.17262 0.19959,-0.34524 0.25894,-0.51787 0.05934,-0.17532 0.08901,-0.36547 0.08901,-0.57046 -3e-6,-0.15913 -0.02293,-0.29939 -0.06878,-0.42077 -0.04586,-0.12137 -0.11194,-0.22387 -0.19825,-0.30748 -0.08362,-0.08631 -0.18341,-0.15104 -0.29939,-0.1942 -0.11598,-0.04315 -0.24545,-0.06473 -0.3884,-0.06473 -0.25624,6e-6 -0.4882,0.0526 -0.69589,0.15779 -0.20499,0.1025 -0.40054,0.23466 -0.58665,0.39649 l -0.41268,-0.48146 c 0.10789,-0.09709 0.22387,-0.18745 0.34794,-0.27107 0.12407,-0.08631 0.25758,-0.16048 0.40054,-0.22252 0.14295,-0.06203 0.294,-0.11058 0.45314,-0.14565 0.15914,-0.03776 0.32636,-0.05664 0.50169,-0.05664 0.25893,6e-6 0.49224,0.03642 0.69993,0.10924 0.21038,0.07283 0.3884,0.17802 0.53405,0.31558 0.14565,0.13487 0.25758,0.30075 0.33581,0.49764 0.08091,0.1942 0.12137,0.41403 0.12138,0.65947 -4e-6,0.22927 -0.03642,0.44774 -0.10924,0.65543 -0.07013,0.20769 -0.16858,0.41268 -0.29535,0.61497 -0.12408,0.1996 -0.27377,0.40054 -0.44909,0.60283 -0.17263,0.20229 -0.36008,0.41268 -0.56237,0.63115 l -1.1369,1.2097 v 0.03237 h 2.7876 v 0.67161" inkscape:connector-curvature="0"/>
  </g>
  <path d="m 46.058,75.471 c -10e-7,-0.28321 0.01349,-0.56507 0.04046,-0.84558 0.02967,-0.28051 0.07957,-0.54888 0.1497,-0.80512 0.07282,-0.25893 0.17127,-0.49898 0.29535,-0.72016 0.12407,-0.22117 0.28186,-0.41267 0.47336,-0.57451 0.1915,-0.16453 0.42077,-0.29264 0.6878,-0.38436 0.26702,-0.0944 0.5799,-0.1416 0.93864,-0.1416 0.05124,6e-6 0.10789,0.0014 0.16993,0.004 0.06203,0.0027 0.12407,0.0081 0.18611,0.01618 0.06473,0.0054 0.12542,0.01349 0.18206,0.02428 0.05934,0.0081 0.11193,0.01889 0.15779,0.03237 v 0.62711 c -0.094,-0.032 -0.201,-0.056 -0.319,-0.072 -0.119,-0.016 -0.236,-0.024 -0.352,-0.025 -0.24275,5e-6 -0.45718,0.02968 -0.64329,0.08901 -0.18341,0.05665 -0.34255,0.13756 -0.47741,0.24275 -0.13486,0.1052 -0.24815,0.23062 -0.33985,0.37626 -0.08901,0.14566 -0.16184,0.30749 -0.21848,0.4855 -0.05664,0.17532 -0.09845,0.36278 -0.12542,0.56237 -0.02697,0.1996 -0.04451,0.40729 -0.0526,0.62306 h 0.04855 c 0.05394,-0.0971 0.11868,-0.18746 0.1942,-0.27107 0.07822,-0.08631 0.16858,-0.15913 0.27107,-0.21848 0.10249,-0.06203 0.21712,-0.11058 0.3439,-0.14565 0.12946,-0.03506 0.27377,-0.05259 0.43291,-0.0526 0.25624,3e-6 0.4882,0.04046 0.69589,0.12138 0.20768,0.07822 0.38435,0.1942 0.53001,0.34794 0.14565,0.15374 0.25758,0.34255 0.33581,0.56642 0.08091,0.22118 0.12137,0.47472 0.12138,0.76062 -4e-6,0.30749 -0.04181,0.58395 -0.12542,0.8294 -0.08362,0.24545 -0.20364,0.45448 -0.36008,0.62711 -0.15644,0.16993 -0.34525,0.30074 -0.56642,0.39245 -0.22118,0.09171 -0.46932,0.13756 -0.74444,0.13756 -0.26973,0 -0.52327,-0.0526 -0.76062,-0.15779 -0.23466,-0.10519 -0.4383,-0.26568 -0.61092,-0.48146 -0.17262,-0.21578 -0.30883,-0.48685 -0.40863,-0.81322 -0.0998,-0.32636 -0.1497,-0.71207 -0.1497,-1.1571 m 1.9218,1.9906 c 0.16183,0 0.30883,-0.02697 0.441,-0.08092 0.13486,-0.05664 0.25084,-0.14026 0.34794,-0.25084 0.0971,-0.11328 0.17127,-0.25489 0.22252,-0.42482 0.05394,-0.17262 0.08091,-0.37626 0.08092,-0.61092 -3e-6,-0.1888 -0.02293,-0.35738 -0.06878,-0.50573 -0.04316,-0.15104 -0.10924,-0.27916 -0.19825,-0.38436 -0.08901,-0.10519 -0.20095,-0.18611 -0.33581,-0.24275 -0.13217,-0.05664 -0.28726,-0.08496 -0.46527,-0.08496 -0.18072,3e-6 -0.3466,0.03237 -0.49764,0.0971 -0.14835,0.06204 -0.27512,0.1443 -0.38031,0.2468 -0.10519,0.0998 -0.18746,0.21443 -0.2468,0.3439 -0.05664,0.12947 -0.08496,0.25894 -0.08496,0.3884 -1e-6,0.18072 0.02427,0.36143 0.07283,0.54214 0.05125,0.17802 0.12542,0.3385 0.22252,0.48146 0.0998,0.14296 0.22387,0.26028 0.37222,0.35199 0.14835,0.08901 0.32097,0.13351 0.51787,0.13351" fill="#025" inkscape:connector-curvature="0" transform="matrix(0.99994 0 0 0.99994 0.506 955.8)"/>
  <path d="m 76.489,46.469 c -4e-6,0.1969 -0.03102,0.37627 -0.09305,0.5381 -0.06204,0.16184 -0.1497,0.30209 -0.26298,0.42077 -0.11059,0.11868 -0.2441,0.21713 -0.40054,0.29535 -0.15644,0.07553 -0.33041,0.12947 -0.52192,0.16183 v 0.02428 c 0.47741,0.05934 0.84018,0.21174 1.0883,0.45718 0.24814,0.24275 0.37221,0.55968 0.37222,0.95078 -5e-6,0.25894 -0.04451,0.49629 -0.13351,0.71207 -0.08631,0.21578 -0.21848,0.40189 -0.39649,0.55833 -0.17802,0.15644 -0.40324,0.27782 -0.67566,0.36413 -0.27242,0.08631 -0.59474,0.12947 -0.96696,0.12947 -0.294,0 -0.57182,-0.02293 -0.83345,-0.06878 -0.25894,-0.04585 -0.50304,-0.12947 -0.7323,-0.25084 v -0.6878 c 0.23466,0.12407 0.4882,0.21982 0.76062,0.28726 0.27512,0.06743 0.5381,0.10115 0.78894,0.10115 0.24814,0 0.46257,-0.02697 0.64329,-0.08092 0.18071,-0.05395 0.32906,-0.13082 0.44504,-0.23061 0.11868,-0.0998 0.20499,-0.22252 0.25893,-0.36817 0.05664,-0.14565 0.08496,-0.30883 0.08496,-0.48955 -3e-6,-0.18341 -0.03642,-0.33985 -0.10924,-0.46932 -0.07013,-0.13216 -0.17128,-0.24005 -0.30344,-0.32367 -0.13217,-0.08631 -0.294,-0.14969 -0.4855,-0.19016 -0.18881,-0.04046 -0.40324,-0.06068 -0.64329,-0.06069 h -0.5381 v -0.61092 h 0.5381 c 0.21847,4e-6 0.41268,-0.02697 0.5826,-0.08092 0.16992,-0.05394 0.31153,-0.13081 0.42481,-0.23061 0.11598,-0.09979 0.20364,-0.21847 0.26298,-0.35604 0.05934,-0.13755 0.08901,-0.2886 0.08901,-0.45314 -3e-6,-0.14025 -0.02428,-0.26567 -0.07283,-0.37626 -0.04855,-0.11058 -0.11733,-0.20364 -0.20634,-0.27916 -0.08901,-0.07822 -0.19555,-0.13755 -0.31962,-0.17802 -0.12408,-0.04045 -0.26163,-0.06068 -0.41268,-0.06069 -0.28861,6e-6 -0.54349,0.04586 -0.76467,0.13756 -0.21848,0.08901 -0.42751,0.20634 -0.62711,0.35199 l -0.371,-0.505 c 0.10249,-0.08361 0.21578,-0.16183 0.33985,-0.23466 0.12677,-0.07282 0.26433,-0.1362 0.41268,-0.19016 0.14835,-0.05664 0.30614,-0.10114 0.47336,-0.13351 0.16992,-0.03236 0.34929,-0.04854 0.5381,-0.04855 0.2913,6e-6 0.54619,0.03642 0.76467,0.10924 0.22117,0.07283 0.40593,0.17533 0.55428,0.30748 0.14834,0.12947 0.26028,0.28456 0.33581,0.46527 0.07552,0.17802 0.11328,0.37357 0.11328,0.58665" fill="#025" inkscape:connector-curvature="0" transform="matrix(0.99994 0 0 0.99994 0.506 955.8)"/>
  <path d="m 22.76,47.61 c -4e-6,0.28321 -0.01484,0.56642 -0.0445,0.84963 -0.02698,0.28052 -0.07688,0.54889 -0.1497,0.80512 -0.07013,0.25624 -0.16723,0.49629 -0.2913,0.72016 -0.12408,0.22117 -0.28186,0.41268 -0.47336,0.57451 -0.19151,0.16183 -0.42077,0.28995 -0.6878,0.38436 -0.26703,0.09171 -0.57991,0.13756 -0.93864,0.13756 -0.05125,0 -0.10789,-0.0013 -0.16993,-0.004 -0.06204,-0.0027 -0.12407,-0.0081 -0.18611,-0.01618 -0.06204,-0.0054 -0.12272,-0.01214 -0.18206,-0.02023 -0.05934,-0.0081 -0.11194,-0.01888 -0.15779,-0.03237 v -0.63115 c 0.0944,0.03506 0.20094,0.06069 0.31962,0.07687 0.11868,0.01618 0.23601,0.02428 0.35199,0.02428 0.36412,0 0.66352,-0.06338 0.89818,-0.19016 0.23466,-0.12677 0.42077,-0.29804 0.55833,-0.51382 0.13756,-0.21848 0.23466,-0.47202 0.2913,-0.76062 0.05934,-0.2886 0.09575,-0.59339 0.10924,-0.91436 h -0.0526 c -0.05395,0.0971 -0.11868,0.18746 -0.1942,0.27107 -0.07552,0.08362 -0.16453,0.15644 -0.26703,0.21848 -0.1025,0.06204 -0.21848,0.11059 -0.34794,0.14565 -0.12947,0.03507 -0.27377,0.0526 -0.43291,0.0526 -0.25624,3e-6 -0.4882,-0.03911 -0.69589,-0.11733 -0.208,-0.081 -0.384,-0.199 -0.53,-0.352 -0.146,-0.154 -0.259,-0.342 -0.34,-0.563 -0.078,-0.224 -0.117,-0.479 -0.117,-0.764 -1e-6,-0.30748 0.04181,-0.58395 0.12542,-0.8294 0.08631,-0.24814 0.20634,-0.45718 0.36008,-0.62711 0.15644,-0.17262 0.34524,-0.30478 0.56642,-0.39649 0.22387,-0.0917 0.47336,-0.13755 0.74848,-0.13756 0.27242,6e-6 0.52596,0.0526 0.76062,0.15779 0.23466,0.1052 0.4383,0.26568 0.61092,0.48146 0.17262,0.21578 0.30883,0.4882 0.40863,0.81726 0.09979,0.32637 0.14969,0.71072 0.1497,1.1531 m -1.9218,-1.9865 c -0.16184,6e-6 -0.31018,0.02698 -0.44504,0.08092 -0.13217,0.05395 -0.2468,0.13756 -0.3439,0.25084 -0.0971,0.11329 -0.17262,0.25624 -0.22657,0.42886 -0.05125,0.16993 -0.07687,0.37222 -0.07687,0.60688 -10e-7,0.18881 0.02158,0.35874 0.06473,0.50978 0.04585,0.14835 0.11328,0.27512 0.20229,0.38031 0.08901,0.1052 0.19959,0.18611 0.33176,0.24275 0.13486,0.05664 0.2913,0.08497 0.46932,0.08496 0.18341,3e-6 0.34929,-0.03101 0.49764,-0.09305 0.14834,-0.06473 0.27512,-0.147 0.38031,-0.2468 0.10519,-0.10249 0.18611,-0.21847 0.24275,-0.34794 0.05934,-0.12946 0.08901,-0.25893 0.08901,-0.3884 -4e-6,-0.18071 -0.02563,-0.36008 -0.07687,-0.5381 -0.04855,-0.18071 -0.12273,-0.34254 -0.22252,-0.4855 -0.0971,-0.14565 -0.21983,-0.26298 -0.36817,-0.35199 -0.14835,-0.089 -0.32097,-0.13351 -0.51787,-0.13351" fill="#025" inkscape:connector-curvature="0" transform="matrix(0.99994 0 0 0.99994 0.506 955.8)"/>
  <path d="m 61.306,27.487 h -0.47471 v -2.4626 c -2e-6,-0.07732 -2e-6,-0.16003 0,-0.24815 0.0018,-0.08811 0.0036,-0.17532 0.0054,-0.26163 0.0036,-0.08811 0.0063,-0.17172 0.0081,-0.25084 0.0036,-0.08091 0.0063,-0.15194 0.0081,-0.21308 -0.03057,0.03237 -0.05754,0.06024 -0.08092,0.08361 -0.02338,0.02338 -0.04765,0.04586 -0.07283,0.06743 -0.02338,0.02158 -0.04855,0.04496 -0.07552,0.07013 -0.02697,0.02338 -0.05934,0.05125 -0.0971,0.08361 l -0.39919,0.32637 -0.25893,-0.33176 1.033,-0.80647 h 0.40458 v 3.9434" fill="#025" inkscape:connector-curvature="0" transform="matrix(0.99994 0 0 0.99994 0.506 955.8)"/>
  <path d="m 34.141,72.522 1.5185,-3.4956 h -2.0337 v -0.44774 h 2.5354 v 0.3911 l -1.497,3.5523 h -0.52326" fill="#025" inkscape:connector-curvature="0" transform="matrix(0.99994 0 0 0.99994 0.506 955.8)"/>
  <path d="m 71.636,37.01 h -2.4599 v -0.42077 l 0.94403,-1.0276 c 0.13486,-0.14565 0.25534,-0.27871 0.36143,-0.39919 0.10609,-0.12047 0.196,-0.23825 0.26972,-0.35334 0.07552,-0.11508 0.13306,-0.23016 0.17262,-0.34525 0.03956,-0.11688 0.05934,-0.24365 0.05934,-0.38031 -2e-6,-0.10609 -0.01529,-0.19959 -0.04585,-0.28051 -0.03057,-0.08091 -0.07462,-0.14924 -0.13216,-0.20499 -0.05574,-0.05754 -0.12228,-0.10069 -0.1996,-0.12947 -0.07732,-0.02877 -0.16363,-0.04315 -0.25894,-0.04316 -0.17083,4e-6 -0.32547,0.03507 -0.46392,0.10519 -0.13666,0.06833 -0.26703,0.15644 -0.3911,0.26433 l -0.27512,-0.32097 c 0.07193,-0.06473 0.14925,-0.12497 0.23196,-0.18072 0.08271,-0.05754 0.17172,-0.10699 0.26703,-0.14835 0.0953,-0.04135 0.196,-0.07372 0.30209,-0.0971 0.10609,-0.02517 0.21758,-0.03776 0.33446,-0.03776 0.17262,4e-6 0.32816,0.02428 0.46662,0.07283 0.14025,0.04855 0.25893,0.11868 0.35604,0.21038 0.0971,0.08991 0.17172,0.2005 0.22387,0.33176 0.05394,0.12947 0.08092,0.27602 0.08092,0.43965 -2e-6,0.15285 -0.02428,0.2985 -0.07283,0.43695 -0.04676,0.13846 -0.11239,0.27512 -0.1969,0.40998 -0.08272,0.13307 -0.18252,0.26703 -0.29939,0.40189 -0.11508,0.13486 -0.24006,0.27512 -0.37492,0.42077 l -0.75792,0.80647 v 0.02158 h 1.8584 v 0.44774" fill="#025" inkscape:connector-curvature="0" transform="matrix(0.99994 0 0 0.99994 0.506 955.8)"/>
  <path d="m 25.408,59.005 c 0.15104,4e-6 0.2931,0.01978 0.42616,0.05934 0.13486,0.03956 0.25264,0.0989 0.35334,0.17802 0.10249,0.07912 0.18341,0.17802 0.24275,0.2967 0.05934,0.11868 0.08901,0.25714 0.08901,0.41538 -2e-6,0.12048 -0.01798,0.22927 -0.05394,0.32636 -0.03597,0.0971 -0.08542,0.18521 -0.14835,0.26433 -0.06294,0.07732 -0.13756,0.14745 -0.22387,0.21038 -0.08631,0.06114 -0.17982,0.11688 -0.28051,0.16723 0.10429,0.05575 0.20589,0.11778 0.30479,0.18611 0.1007,0.06833 0.1897,0.14565 0.26703,0.23196 0.07912,0.08451 0.14205,0.17982 0.18881,0.28591 0.04855,0.10609 0.07282,0.22477 0.07283,0.35604 -2e-6,0.16543 -0.03057,0.31558 -0.09171,0.45044 -0.05934,0.13306 -0.14386,0.24635 -0.25354,0.33985 -0.10789,0.0935 -0.23826,0.16543 -0.3911,0.21578 -0.15105,0.05035 -0.31828,0.07552 -0.50169,0.07552 -0.1978,0 -0.37402,-0.02427 -0.52866,-0.07283 -0.15284,-0.04855 -0.28231,-0.11778 -0.3884,-0.20769 -0.10429,-0.09171 -0.18431,-0.20319 -0.24005,-0.33446 -0.05394,-0.13126 -0.08092,-0.27961 -0.08092,-0.44504 0,-0.13486 0.01978,-0.25624 0.05934,-0.36413 0.04136,-0.10789 0.0962,-0.20499 0.16453,-0.2913 0.06833,-0.08631 0.14925,-0.16273 0.24275,-0.22926 0.0935,-0.06653 0.1924,-0.12497 0.2967,-0.17532 -0.08811,-0.05574 -0.17083,-0.11598 -0.24815,-0.18072 -0.07732,-0.06653 -0.14475,-0.14025 -0.20229,-0.22117 -0.05574,-0.08091 -0.1007,-0.16992 -0.13486,-0.26703 -0.03237,-0.0989 -0.04855,-0.20768 -0.04855,-0.32637 -1e-6,-0.15644 0.02967,-0.2931 0.08901,-0.40998 0.06114,-0.11867 0.14295,-0.21757 0.24545,-0.2967 0.10249,-0.07912 0.22027,-0.13845 0.35334,-0.17802 0.13486,-0.03956 0.27512,-0.05933 0.42077,-0.05934 m -0.75523,3.0047 c 0,0.0953 0.01438,0.18341 0.04316,0.26433 0.02877,0.07912 0.07372,0.14745 0.13486,0.20499 0.06114,0.05574 0.13846,0.0998 0.23196,0.13216 0.0935,0.03057 0.20499,0.04585 0.33446,0.04585 0.12587,0 0.23646,-0.01528 0.33176,-0.04585 0.0971,-0.03237 0.17802,-0.07732 0.24275,-0.13486 0.06473,-0.05934 0.11328,-0.13037 0.14565,-0.21308 0.03236,-0.08271 0.04855,-0.17442 0.04855,-0.27512 -2e-6,-0.0935 -0.01798,-0.17802 -0.05394,-0.25354 -0.034,-0.076 -0.085,-0.146 -0.151,-0.211 -0.065,-0.065 -0.143,-0.126 -0.235,-0.183 -0.091,-0.058 -0.194,-0.114 -0.307,-0.17 l -0.081,-0.038 c -0.22657,0.10789 -0.39739,0.23196 -0.51248,0.37222 -0.11508,0.13846 -0.17262,0.30659 -0.17262,0.50438 m 0.74983,-2.5947 c -0.19061,3e-6 -0.34255,0.04765 -0.45583,0.14295 -0.11149,0.09531 -0.16723,0.23376 -0.16723,0.41537 0,0.1025 0.01528,0.19061 0.04585,0.26433 0.03237,0.07373 0.07642,0.13936 0.13216,0.1969 0.05574,0.05754 0.12227,0.10969 0.1996,0.15644 0.07912,0.04496 0.16453,0.08901 0.25624,0.13216 0.08631,-0.03956 0.16723,-0.08271 0.24275,-0.12947 0.07732,-0.04675 0.14385,-0.0998 0.1996,-0.15914 0.05754,-0.05934 0.10249,-0.12677 0.13486,-0.20229 0.03236,-0.07552 0.04855,-0.16183 0.04855,-0.25894 -2e-6,-0.18161 -0.05664,-0.32007 -0.16992,-0.41537 -0.11329,-0.0953 -0.26883,-0.14295 -0.46662,-0.14295" fill="#025" inkscape:connector-curvature="0" transform="matrix(0.99994 0 0 0.99994 0.506 955.8)"/>
  <path d="m 71.837,62.104 h -0.57451 v 0.88469 h -0.474 v -0.885 h -1.8206 v -0.42886 l 1.7883,-2.6514 h 0.50708 v 2.6325 h 0.57451 v 0.44774 m -1.0492,-0.44774 v -0.96022 c -2e-6,-0.10069 8.97e-4,-0.20589 0.0027,-0.31558 0.0036,-0.11148 0.0072,-0.21937 0.01079,-0.32367 0.0036,-0.10609 0.0072,-0.20499 0.01079,-0.2967 0.0054,-0.0917 0.009,-0.16812 0.01079,-0.22926 h -0.02428 c -0.01259,0.03597 -0.02877,0.07643 -0.04855,0.12138 -0.01798,0.04316 -0.03866,0.08721 -0.06204,0.13216 -0.02158,0.04316 -0.04406,0.08542 -0.06743,0.12677 -0.02338,0.04136 -0.04496,0.07643 -0.06473,0.10519 l -1.1086,1.6399 h 1.3405" fill="#025" inkscape:connector-curvature="0" transform="matrix(0.99994 0 0 0.99994 0.506 955.8)"/>
  <g fill="#025" transform="matrix(0.99994 0 0 0.99994 0.506 955.8)">
   <path d="m 24.268,36.989 h -0.47471 v -2.4626 c -10e-7,-0.07732 -10e-7,-0.16003 0,-0.24815 0.0018,-0.08811 0.0036,-0.17532 0.0054,-0.26163 0.0036,-0.08811 0.0063,-0.17172 0.0081,-0.25084 0.0036,-0.08091 0.0063,-0.15194 0.0081,-0.21308 -0.03057,0.03237 -0.05754,0.06024 -0.08092,0.08361 -0.02338,0.02338 -0.04765,0.04586 -0.07283,0.06743 -0.02338,0.02158 -0.04855,0.04496 -0.07552,0.07013 -0.02697,0.02338 -0.05934,0.05125 -0.0971,0.08362 l -0.39919,0.32636 -0.25894,-0.33176 1.033,-0.80647 h 0.40459 v 3.9434" inkscape:connector-curvature="0"/>
   <path d="m 28.176,35.012 c -3e-6,0.31828 -0.02338,0.60328 -0.07013,0.85502 -0.04496,0.25174 -0.11868,0.46482 -0.22117,0.63924 -0.1007,0.17442 -0.23106,0.30748 -0.3911,0.39919 -0.16004,0.09171 -0.35424,0.13756 -0.5826,0.13756 -0.21218,0 -0.39739,-0.04585 -0.55563,-0.13756 -0.15644,-0.09171 -0.28681,-0.22477 -0.3911,-0.39919 -0.1025,-0.17442 -0.17982,-0.3875 -0.23196,-0.63924 -0.05035,-0.25174 -0.07552,-0.53675 -0.07552,-0.85502 0,-0.31827 0.02248,-0.60328 0.06743,-0.85502 0.04675,-0.25174 0.11958,-0.46392 0.21848,-0.63655 0.1007,-0.17442 0.23016,-0.30748 0.3884,-0.39919 0.16004,-0.0917 0.35334,-0.13756 0.5799,-0.13756 0.21398,4e-6 0.40009,0.04586 0.55833,0.13756 0.15824,0.08991 0.2895,0.22208 0.3938,0.39649 0.10429,0.17263 0.18251,0.38481 0.23466,0.63655 0.05214,0.25174 0.07822,0.53765 0.07822,0.85772 m -2.0202,0 c 0,0.26972 0.01349,0.50528 0.04046,0.70668 0.02697,0.2014 0.07013,0.36952 0.12947,0.50438 0.05934,0.13306 0.13666,0.23376 0.23196,0.30209 0.0971,0.06653 0.21488,0.0998 0.35334,0.0998 0.13846,1e-6 0.25624,-0.03327 0.35334,-0.0998 0.0971,-0.06653 0.17622,-0.16633 0.23736,-0.29939 0.06293,-0.13306 0.10789,-0.30029 0.13486,-0.50168 0.02877,-0.20319 0.04315,-0.44055 0.04315,-0.71207 -2e-6,-0.26972 -0.01439,-0.50528 -0.04315,-0.70668 -0.02698,-0.20139 -0.07193,-0.36862 -0.13486,-0.50169 -0.06114,-0.13306 -0.14026,-0.23286 -0.23736,-0.29939 -0.0971,-0.06653 -0.21488,-0.09979 -0.35334,-0.0998 -0.13846,4e-6 -0.25624,0.03327 -0.35334,0.0998 -0.0953,0.06654 -0.17262,0.16633 -0.23196,0.29939 -0.05934,0.13307 -0.1025,0.3003 -0.12947,0.50169 -0.02697,0.2014 -0.04046,0.43695 -0.04046,0.70668" inkscape:connector-curvature="0"/>
  </g>
  <path d="m 60.865,70.113 c 0.17802,3e-6 0.34345,0.02518 0.49629,0.07552 0.15464,0.04855 0.2886,0.12138 0.40189,0.21848 0.11508,0.0971 0.20499,0.21758 0.26972,0.36143 0.06473,0.14386 0.0971,0.31018 0.0971,0.49899 -2e-6,0.20499 -0.03057,0.3893 -0.09171,0.55293 -0.06114,0.16363 -0.15195,0.30209 -0.27242,0.41537 -0.12048,0.11328 -0.26973,0.2005 -0.44774,0.26163 -0.17622,0.05934 -0.37941,0.08901 -0.60958,0.08901 -0.09171,0 -0.18251,-0.0045 -0.27242,-0.01349 -0.08811,-0.009 -0.17352,-0.02248 -0.25624,-0.04046 -0.08092,-0.01618 -0.15824,-0.03776 -0.23196,-0.06473 -0.07372,-0.02697 -0.14026,-0.05844 -0.1996,-0.0944 v -0.46392 c 0.05934,0.04136 0.12857,0.07822 0.20769,0.11059 0.08092,0.03237 0.16543,0.05934 0.25354,0.08092 0.08811,0.02158 0.17622,0.03866 0.26433,0.05125 0.08991,0.01079 0.17262,0.01618 0.24815,0.01618 0.14205,0 0.26882,-0.01618 0.38031,-0.04855 0.11148,-0.03416 0.20589,-0.08631 0.28321,-0.15644 0.07732,-0.07013 0.13666,-0.15824 0.17802,-0.26433 0.04135,-0.10609 0.06203,-0.23196 0.06204,-0.37761 -2e-6,-0.25714 -0.07912,-0.45313 -0.23736,-0.588 -0.15824,-0.13666 -0.3884,-0.20499 -0.69049,-0.20499 -0.04855,2e-6 -0.1016,0.0027 -0.15914,0.0081 -0.05574,0.0036 -0.11238,0.009 -0.16992,0.01618 -0.05574,0.0072 -0.10969,0.01529 -0.16183,0.02428 -0.05035,0.0072 -0.0944,0.01439 -0.13216,0.02158 l -0.24275,-0.15374 0.14835,-1.8557 h 1.8611 v 0.44774 h -1.4349 l -0.10519,1.1301 c 0.05754,-0.01079 0.13306,-0.02248 0.22657,-0.03506 0.0953,-0.01259 0.20768,-0.01888 0.33715,-0.01888" fill="#025" inkscape:connector-curvature="0" transform="matrix(0.99994 0 0 0.99994 0.506 955.8)"/>
  <g fill="#025" transform="matrix(0.99994 0 0 0.99994 0.506 955.8)">
   <path d="m 33.792,27.499 h -0.47471 v -2.4626 c -2e-6,-0.07732 -2e-6,-0.16003 0,-0.24815 0.0018,-0.08811 0.0036,-0.17532 0.0054,-0.26163 0.0036,-0.08811 0.0063,-0.17172 0.0081,-0.25084 0.0036,-0.08091 0.0063,-0.15194 0.0081,-0.21308 -0.03057,0.03237 -0.05754,0.06024 -0.08092,0.08361 -0.02338,0.02338 -0.04765,0.04586 -0.07283,0.06743 -0.02338,0.02158 -0.04855,0.04496 -0.07552,0.07013 -0.02697,0.02338 -0.05934,0.05125 -0.0971,0.08361 l -0.39919,0.32636 -0.25893,-0.33176 1.033,-0.80647 h 0.40458 v 3.9434" inkscape:connector-curvature="0"/>
   <path d="m 36.834,27.499 h -0.47471 v -2.4626 c -2e-6,-0.07732 -2e-6,-0.16003 0,-0.24815 0.0018,-0.08811 0.0036,-0.17532 0.0054,-0.26163 0.0036,-0.08811 0.0063,-0.17172 0.0081,-0.25084 0.0036,-0.08091 0.0063,-0.15194 0.0081,-0.21308 -0.03057,0.03237 -0.05754,0.06024 -0.08092,0.08361 -0.02338,0.02338 -0.04765,0.04586 -0.07283,0.06743 -0.02338,0.02158 -0.04855,0.04496 -0.07552,0.07013 -0.02697,0.02338 -0.05934,0.05125 -0.0971,0.08361 l -0.39919,0.32636 -0.25894,-0.33176 1.033,-0.80647 h 0.40458 v 3.9434" inkscape:connector-curvature="0"/>
  </g>
  <path d="m 47.752385,1005.1215 -15.212704,-9.64899 0.749967,-1.29893 15.961719,8.35002 4.633393,3.9741 -0.374984,0.6495 -5.758735,-2.0268 z" fill="#025" inkscape:connector-curvature="0"/>
  <path d="m 50.50344,1003.7215 a 1.99994,1.99994 0 0 1 -3.99988,0 1.99994,1.99994 0 1 1 3.99988,0 z" color="black" inkscape:connector-curvature="0"/>
  <path d="m 50.00223,1003.7215 a 1.49999,1.49999 0 0 1 -2.99984,0 1.49999,1.49999 0 1 1 2.99984,0 z" fill="red" color="black" inkscape:connector-curvature="0"/>
  <path d="m 49.50242,1003.7215 a 0.99997,0.99997 0 0 1 -1.99994,0 0.99997,0.99997 0 1 1 1.99994,0 z" fill="url(#radialGradient3056)" color="black" inkscape:connector-curvature="0"/>
  <rect x="459.39" y="-892.57" fill="red" color="black" height="21.999" width="1" transform="matrix(-0.86603 0.5 -0.5 -0.86603 0 0)"/>
 </g>
</svg>
