<svg height="96" width="96" xmlns="http://www.w3.org/2000/svg" xmlns:sodipodi="http://sodipodi.sourceforge.net/DTD/sodipodi-0.dtd" xmlns:inkscape="http://www.inkscape.org/namespaces/inkscape">
 <g inkscape:label="Layer 1" inkscape:groupmode="layer" transform="matrix(1 0 0 1 0 -956.36)">
  <rect x="8" rx="10.769" y="964.36" fill="#e6e6e6" fill-opacity="1" stroke="none" height="80" width="80"/>
  <g transform="matrix(0.83978 0 0 0.83978 -78.84 213.62)">
   <path stroke-opacity="1" d="m 140.08894,926.97533 c -1.52344,-1.07026 -3.37488,-1.71433 -5.38854,-1.71433 -5.14399,0 -9.31769,4.11201 -9.31769,9.17996 0,0.21735 0.0223,0.43159 0.0376,0.64517 -5.34191,1.04556 -9.35513,4.48567 -9.35513,10.06475 0,6.35462 5.20652,9.10623 11.65648,9.10623 l 46.62586,0 c 6.44996,0 11.65648,-2.75161 11.65648,-9.10623 0,-5.57908 -4.01322,-9.01919 -9.35512,-10.06475 0.0151,-0.21358 0.0375,-0.42782 0.0375,-0.64517 0,-5.06795 -4.1737,-9.17996 -9.31768,-9.17996 -2.01366,0 -3.8651,0.64407 -5.38855,1.71433 -4.81493,-12.26375 -18.07155,-11.52371 -21.89096,0 z" stroke-width="1.508" display="inline" fill="#b3b3b3" color="black" fill-opacity="1" fill-rule="nonzero" stroke="#999" stroke-dasharray="none" visibility="visible" stroke-miterlimit="4" sodipodi:nodetypes="csscsccscsscc" inkscape:connector-curvature="0"/>
   <path d="m 173.24117,457.76031 c 0,15.23045 -12.34672,27.57717 -27.57717,27.57717 -15.23045,0 -27.57716,-12.34672 -27.57716,-27.57717 0,-15.23044 12.34671,-27.57716 27.57716,-27.57716 15.23045,0 27.57717,12.34672 27.57717,27.57716 z" stroke-width="3.506" display="inline" fill="#096098" color="black" fill-opacity="1" fill-rule="nonzero" stroke="none" visibility="visible" sodipodi:type="arc" inkscape:export-filename="/home/pgauna/Escritorio/iconos.png" sodipodi:cx="145.664" sodipodi:cy="457.76031" inkscape:export-xdpi="90" sodipodi:rx="27.577164" inkscape:export-ydpi="90" sodipodi:ry="27.577164" transform="matrix(0.59105 0 0 0.58231 64.01 683.3)"/>
   <path d="m 151.78219,937.10719 c -1.72521,0 -3.12378,1.37788 -3.12378,3.07761 0,1.69971 1.39857,3.07759 3.12378,3.07759 1.72521,0 3.12378,-1.37788 3.12378,-3.07759 0,-1.69973 -1.39857,-3.07761 -3.12378,-3.07761 z m -2.70401,8.76159 c -1.59603,0.008 -3.48498,0.4905 -5.0664,1.12527 0,0.52044 0.0247,0.90239 0.009,0.96169 2.33733,-0.72647 3.73207,-0.11842 3.66068,0.92327 -0.32172,4.69589 -3.02835,9.50174 -2.03045,11.5025 1.34361,2.69408 6.83327,1.76973 8.7466,0.26936 -0.0391,-1.03869 -0.1172,-1.0772 -0.1172,-1.0772 -2.49901,0.61561 -3.10601,0.5636 -3.47519,-0.38464 -1.09331,-2.80831 2.8895,-7.73252 1.60094,-11.57954 -0.42969,-1.28276 -1.73275,-1.74889 -3.32877,-1.74071 z" stroke-width="1" display="inline" fill="white" color="black" fill-opacity="1" fill-rule="nonzero" stroke="none" visibility="visible" inkscape:connector-curvature="0"/>
  </g>
 </g>
</svg>
