<?xml version="1.0" encoding="UTF-8" standalone="no"?>
<!-- Created with Inkscape (http://www.inkscape.org/) -->

<svg
   xmlns:dc="http://purl.org/dc/elements/1.1/"
   xmlns:cc="http://creativecommons.org/ns#"
   xmlns:rdf="http://www.w3.org/1999/02/22-rdf-syntax-ns#"
   xmlns:svg="http://www.w3.org/2000/svg"
   xmlns="http://www.w3.org/2000/svg"
   xmlns:xlink="http://www.w3.org/1999/xlink"
   xmlns:sodipodi="http://sodipodi.sourceforge.net/DTD/sodipodi-0.dtd"
   xmlns:inkscape="http://www.inkscape.org/namespaces/inkscape"
   id="svg11037"
   height="96"
   width="96"
   version="1.1"
   inkscape:version="0.48.5 r10040"
   sodipodi:docname="codeblocks.svg">
  <sodipodi:namedview
     pagecolor="#ffffff"
     bordercolor="#666666"
     borderopacity="1"
     objecttolerance="10"
     gridtolerance="10"
     guidetolerance="10"
     inkscape:pageopacity="0"
     inkscape:pageshadow="2"
     inkscape:window-width="640"
     inkscape:window-height="480"
     id="namedview6425" />
  <defs
     id="defs11039">
    <clipPath
       id="clipPath3009"
       clipPathUnits="userSpaceOnUse">
      <path
         id="path3011"
         style="opacity:.15;fill:#fff"
         d="m-2 956.36h-96v33.562l96 25.687v-59.25z" />
    </clipPath>
    <linearGradient
       id="linearGradient4526"
       y2="48"
       gradientUnits="userSpaceOnUse"
       x2="48"
       gradientTransform="translate(96.359 -68.399)"
       y1="90"
       x1="48">
      <stop
         id="stop4532"
         style="stop-color:#ea0b0b"
         offset="0" />
      <stop
         id="stop4534"
         style="stop-color:#fa8c8c"
         offset="1" />
    </linearGradient>
    <linearGradient
       id="linearGradient4528"
       y2="69"
       xlink:href="#linearGradient3777"
       gradientUnits="userSpaceOnUse"
       x2="38"
       gradientTransform="translate(-26.399 -192.36)"
       y1="69"
       x1="16" />
    <linearGradient
       id="linearGradient3777">
      <stop
         id="stop3779"
         style="stop-color:#fff"
         offset="0" />
      <stop
         id="stop3781"
         style="stop-color:#fff;stop-opacity:0"
         offset="1" />
    </linearGradient>
    <linearGradient
       id="linearGradient3725"
       y2="48"
       gradientUnits="userSpaceOnUse"
       x2="48"
       gradientTransform="translate(96.359 -68.399)"
       y1="90"
       x1="48">
      <stop
         id="stop4510"
         style="stop-color:#0dea0b"
         offset="0" />
      <stop
         id="stop4512"
         style="stop-color:#bffcb8"
         offset="1" />
    </linearGradient>
    <linearGradient
       id="linearGradient4548"
       y2="48"
       gradientUnits="userSpaceOnUse"
       x2="48"
       gradientTransform="translate(96.359 -68.399)"
       y1="90"
       x1="48">
      <stop
         id="stop4554"
         style="stop-color:#e8ea0b"
         offset="0" />
      <stop
         id="stop4556"
         style="stop-color:#f9fa92"
         offset="1" />
    </linearGradient>
    <linearGradient
       id="linearGradient4570"
       y2="48"
       gradientUnits="userSpaceOnUse"
       x2="48"
       gradientTransform="translate(96.359 -68.399)"
       y1="90"
       x1="48">
      <stop
         id="stop4576"
         style="stop-color:#520bea"
         offset="0" />
      <stop
         id="stop4578"
         style="stop-color:#8e7af9"
         offset="1" />
    </linearGradient>
    <clipPath
       id="clipPath3120"
       clipPathUnits="userSpaceOnUse">
      <rect
         id="rect3122"
         style="opacity:.6"
         rx="21.875"
         ry="21.875"
         height="80.5"
         width="80.5"
         y="7.75"
         x="7.75" />
    </clipPath>
  </defs>
  <metadata
     id="metadata11042">
    <rdf:RDF>
      <cc:Work
         rdf:about="">
        <dc:format>image/svg+xml</dc:format>
        <dc:type
           rdf:resource="http://purl.org/dc/dcmitype/StillImage" />
        <dc:title />
      </cc:Work>
    </rdf:RDF>
  </metadata>
  <g
     id="layer1"
     transform="translate(0 -956.36)">
    <g
       id="g3173"
       clip-path="url(#clipPath3120)"
       transform="matrix(1.1429 0 0 1.1429 -6.8571 949.51)">
      <g
         id="g4514"
         transform="translate(-96.359 26.399)">
        <rect
           id="rect4516"
           style="fill:url(#linearGradient4526)"
           rx="6"
           ry="6"
           height="42"
           width="42"
           y="-20.399"
           x="102.36" />
        <rect
           id="rect4518"
           style="opacity:.4;color:#000000;fill:url(#linearGradient4528)"
           transform="rotate(90)"
           height="22"
           width="22"
           y="-134.36"
           x="-10.399" />
        <path
           id="path4520"
           d="m108.36-20.399c-1.662 0-3.1655 0.6655-4.25 1.75l8.25 8.25h22l8.25-8.25c-1.0845-1.0845-2.588-1.75-4.25-1.75h-30z"
           style="opacity:.15;fill:#fff" />
        <path
           id="path4522"
           d="m108.36 21.601c-1.662 0-3.1655-0.6655-4.25-1.75l8.25-8.25h22l8.25 8.25c-1.0845 1.0845-2.588 1.75-4.25 1.75h-30z"
           style="opacity:.2;fill:#800000" />
        <path
           id="path4524"
           d="m144.36 15.601c0 1.662-0.6655 3.1655-1.75 4.25l-8.25-8.25v-22l8.25-8.25c1.0845 1.0845 1.75 2.588 1.75 4.25v30z"
           style="opacity:.1;fill:#803300" />
      </g>
      <g
         id="g3718"
         transform="translate(-54.359 26.399)">
        <rect
           id="rect3704"
           style="fill:url(#linearGradient3725)"
           rx="6"
           ry="6"
           height="42"
           width="42"
           y="-20.399"
           x="102.36" />
        <rect
           id="rect3706"
           style="opacity:.4;color:#000000;fill:url(#linearGradient4528)"
           transform="rotate(90)"
           height="22"
           width="22"
           y="-134.36"
           x="-10.399" />
        <path
           id="path3708"
           style="opacity:.15;fill:#fff"
           d="m108.36-20.399c-1.662 0-3.1655 0.6655-4.25 1.75l8.25 8.25h22l8.25-8.25c-1.0845-1.0845-2.588-1.75-4.25-1.75h-30z" />
        <path
           id="path3710"
           style="opacity:.2;fill:#0f8000"
           d="m108.36 21.601c-1.662 0-3.1655-0.6655-4.25-1.75l8.25-8.25h22l8.25 8.25c-1.0845 1.0845-2.588 1.75-4.25 1.75h-30z" />
        <path
           id="path3712"
           style="opacity:.1;fill:#803300"
           d="m144.36 15.601c0 1.662-0.6655 3.1655-1.75 4.25l-8.25-8.25v-22l8.25-8.25c1.0845 1.0845 1.75 2.588 1.75 4.25v30z" />
      </g>
      <g
         id="g4536"
         transform="translate(-96.359 68.399)">
        <rect
           id="rect4538"
           style="fill:url(#linearGradient4548)"
           rx="6"
           ry="6"
           height="42"
           width="42"
           y="-20.399"
           x="102.36" />
        <rect
           id="rect4540"
           style="opacity:.4;color:#000000;fill:url(#linearGradient4528)"
           transform="rotate(90)"
           height="22"
           width="22"
           y="-134.36"
           x="-10.399" />
        <path
           id="path4542"
           style="opacity:.15;fill:#fff"
           d="m108.36-20.399c-1.662 0-3.1655 0.6655-4.25 1.75l8.25 8.25h22l8.25-8.25c-1.0845-1.0845-2.588-1.75-4.25-1.75h-30z" />
        <path
           id="path4544"
           style="opacity:.2;fill:#807b00"
           d="m108.36 21.601c-1.662 0-3.1655-0.6655-4.25-1.75l8.25-8.25h22l8.25 8.25c-1.0845 1.0845-2.588 1.75-4.25 1.75h-30z" />
        <path
           id="path4546"
           style="opacity:.1;fill:#803300"
           d="m144.36 15.601c0 1.662-0.6655 3.1655-1.75 4.25l-8.25-8.25v-22l8.25-8.25c1.0845 1.0845 1.75 2.588 1.75 4.25v30z" />
      </g>
      <g
         id="g4558"
         transform="translate(-54.359 68.399)">
        <rect
           id="rect4560"
           style="fill:url(#linearGradient4570)"
           rx="6"
           ry="6"
           height="42"
           width="42"
           y="-20.399"
           x="102.36" />
        <rect
           id="rect4562"
           style="opacity:.4;color:#000000;fill:url(#linearGradient4528)"
           transform="rotate(90)"
           height="22"
           width="22"
           y="-134.36"
           x="-10.399" />
        <path
           id="path4564"
           d="m108.36-20.399c-1.662 0-3.1655 0.6655-4.25 1.75l8.25 8.25h22l8.25-8.25c-1.0845-1.0845-2.588-1.75-4.25-1.75h-30z"
           style="opacity:.15;fill:#fff" />
        <path
           id="path4566"
           d="m108.36 21.601c-1.662 0-3.1655-0.6655-4.25-1.75l8.25-8.25h22l8.25 8.25c-1.0845 1.0845-2.588 1.75-4.25 1.75h-30z"
           style="opacity:.2;fill:#2e0080" />
        <path
           id="path4568"
           d="m144.36 15.601c0 1.662-0.6655 3.1655-1.75 4.25l-8.25-8.25v-22l8.25-8.25c1.0845 1.0845 1.75 2.588 1.75 4.25v30z"
           style="opacity:.1;fill:#803300" />
      </g>
    </g>
    <rect
       id="rect3003"
       style="opacity:.15;fill:#fff"
       transform="translate(98)"
       clip-path="url(#clipPath3009)"
       rx="25"
       ry="25"
       height="92"
       width="92"
       y="958.36"
       x="-96" />
  </g>
</svg>
