<svg height="96" width="96" xmlns="http://www.w3.org/2000/svg" xmlns:xlink="http://www.w3.org/1999/xlink" xmlns:sodipodi="http://sodipodi.sourceforge.net/DTD/sodipodi-0.dtd" xmlns:inkscape="http://www.inkscape.org/namespaces/inkscape">
 <defs>
  <linearGradient x2="0" y1="962.62" y2="1046.1" gradientUnits="userSpaceOnUse" id="linearGradient11642" gradientTransform="matrix(1.15 0 0 1.15 -7.2 -150.65)">
   <stop stop-color="#fce94f"/>
   <stop stop-color="#a7cc5c" offset="0.7"/>
   <stop stop-color="#789e2d" offset="1"/>
  </linearGradient>
  <radialGradient cy="72" r="24" gradientUnits="userSpaceOnUse" id="radialGradient5932" cx="48" gradientTransform="matrix(0.89655 0 0 0.29885 5.066 1005.7)">
   <stop/>
   <stop stop-opacity="0.137" offset="0.795"/>
   <stop stop-opacity="0" offset="1"/>
  </radialGradient>
  <radialGradient cy="173.48" r="9.03" xlink:href="#linearGradient11642" gradientUnits="userSpaceOnUse" id="radialGradient5924" cx="314.97" gradientTransform="matrix(2.7987 0 0 -3.4159 -833.39 1606.7)"/>
  <clipPath id="clipPath11530">
   <use xlink:href="#SVGCleanerId_0"/>
  </clipPath>
  <linearGradient x1="182.1" x2="183.49" xlink:href="#linearGradient11579" y1="187.81" y2="191.97" gradientUnits="userSpaceOnUse" id="linearGradient5820" gradientTransform="matrix(0.08752 0 0 0.08752 302.94 165.2)"/>
  <linearGradient id="linearGradient11579">
   <stop/>
   <stop stop-opacity="0" offset="1"/>
  </linearGradient>
  <linearGradient x1="182.1" x2="183.49" xlink:href="#linearGradient11579" y1="187.81" y2="191.97" gradientUnits="userSpaceOnUse" id="linearGradient5822" gradientTransform="matrix(0.08752 0 0 0.08752 302.93 165.22)"/>
  <linearGradient x1="312.31" x2="316.69" xlink:href="#linearGradient6005" gradientUnits="userSpaceOnUse" id="linearGradient5824"/>
  <linearGradient id="linearGradient6005">
   <stop stop-color="#fff"/>
   <stop stop-color="#fff" stop-opacity="0" offset="1"/>
  </linearGradient>
  <clipPath id="clipPath5690">
   <path d="m314.97 169.44c-4.6475 0-8.4062 3.7587-8.4062 8.4062s3.7587 8.4062 8.4062 8.4062 8.4062-3.7587 8.4062-8.4062-3.7587-8.4062-8.4062-8.4062z" transform="matrix(0.70852 0 0 0.70934 91.35 52.938)"/>
  </clipPath>
  <radialGradient cy="273.7" r="81.986" xlink:href="#linearGradient6005" gradientUnits="userSpaceOnUse" id="radialGradient5906" cx="140.19" gradientTransform="matrix(0.24961 0 0 0.13331 12.822 988.72)"/>
  <radialGradient cy="169.69" r="8.626" gradientUnits="userSpaceOnUse" id="radialGradient5903" cx="315.07" gradientTransform="matrix(3.8466 0 -0.00014 -4.1524 -1163.8 1728.9)">
   <stop stop-color="#fff"/>
   <stop stop-color="#a7cc5c" stop-opacity="0.242" offset="1"/>
  </radialGradient>
  <radialGradient cy="69.59" r="9.496" xlink:href="#linearGradient11579" gradientUnits="userSpaceOnUse" id="radialGradient5830" cx="177.56" gradientTransform="matrix(1 0 0 0.6548 0 24.02)"/>
  <radialGradient cy="170.59" r="0.824" gradientUnits="userSpaceOnUse" id="radialGradient5834" cx="318.61" gradientTransform="matrix(0.92151 0.27813 -1.3177 3.5229 249.74 -518.25)">
   <stop stop-color="#244206"/>
   <stop offset="1"/>
  </radialGradient>
  <linearGradient x1="169.51" x2="180.92" y1="55.16" y2="57.767" gradientUnits="userSpaceOnUse" id="linearGradient5836">
   <stop stop-color="#eeeeec" stop-opacity="0"/>
   <stop stop-color="#fff" offset="0.528"/>
   <stop stop-color="#eeeeec" stop-opacity="0" offset="1"/>
  </linearGradient>
  <filter x="-0.319" y="-0.063" height="1.125" color-interpolation-filters="sRGB" id="filter6531" width="1.639">
   <feGaussianBlur stdDeviation="0.62218"/>
  </filter>
  <radialGradient cy="58.899" r="2.337" gradientUnits="userSpaceOnUse" id="radialGradient5838" cx="182.12" gradientTransform="matrix(5.5457 0 0 5.2229 -825.95 -246.1)">
   <stop stop-color="#fff9e8"/>
   <stop stop-color="#a7cc5c" offset="1"/>
  </radialGradient>
  <radialGradient cy="170.59" r="0.824" xlink:href="#radialGradient5834" gradientUnits="userSpaceOnUse" id="radialGradient5844" cx="318.61" gradientTransform="matrix(0.97553 0.26596 -1.4619 3.5986 257.06 -527.35)"/>
  <radialGradient cy="58.52" r="4.836" xlink:href="#linearGradient6005" gradientUnits="userSpaceOnUse" id="radialGradient5846" cx="173.33" gradientTransform="matrix(1.3058 0.34318 -2.8114 10.697 110.55 -617.95)"/>
  <filter x="-0.269" y="-0.089" height="1.179" color-interpolation-filters="sRGB" id="filter6444" width="1.537">
   <feGaussianBlur stdDeviation="1.08224"/>
  </filter>
  <radialGradient cy="58.899" r="2.337" gradientUnits="userSpaceOnUse" id="radialGradient5848" cx="182.12" gradientTransform="matrix(5.5457 0 0 5.2229 -825.95 -246.1)">
   <stop stop-color="#a7cc5c"/>
   <stop stop-color="#a7cc5c" stop-opacity="0" offset="1"/>
  </radialGradient>
  <radialGradient cy="172.87" r="16.25" gradientUnits="userSpaceOnUse" id="radialGradient5850" cx="142.75" gradientTransform="matrix(1 0 0 0.49231 0 89.65)">
   <stop stop-color="#fdfcbc"/>
   <stop stop-color="#fdfcbc" stop-opacity="0" offset="1"/>
  </radialGradient>
  <filter x="-0.107" y="-0.082" height="1.164" color-interpolation-filters="sRGB" id="filter12325" width="1.214">
   <feGaussianBlur stdDeviation="1.44928"/>
  </filter>
  <radialGradient cy="104.07" r="8.5" gradientUnits="userSpaceOnUse" id="radialGradient5852" cx="172.5" gradientTransform="matrix(0.52941 0 0 0.7 81.18 34.5)">
   <stop stop-color="#616161"/>
   <stop offset="1"/>
  </radialGradient>
  <radialGradient cy="129.77" r="5.625" gradientUnits="userSpaceOnUse" id="radialGradient5854" cx="175.62" gradientTransform="matrix(1 0 0 2.6445 0 -212.81)">
   <stop stop-color="#616161"/>
   <stop stop-color="#616161" stop-opacity="0" offset="1"/>
  </radialGradient>
  <filter x="-0.183" y="-0.155" height="1.311" color-interpolation-filters="sRGB" id="filter12535" width="1.366">
   <feGaussianBlur stdDeviation="0.85813"/>
  </filter>
  <clipPath clipPathUnits="userSpaceOnUse" id="clipPath3009">
   <path d="m-2 956.36h-96v33.562l96 25.687v-59.25z"/>
  </clipPath>
  <path d="m118.62 209.5c2.5833-0.38773 5.1667-0.51062 7.75 0.75 0 0 0.28209 5.4813-1.625 5.625-2.3783 0.17918-6.125-6.375-6.125-6.375z" id="SVGCleanerId_0"/>
  <path d="m126.5 187s2.2108-41.347 15.5-41.5c13.731-0.15831 17 42.5 17 42.5-15.307-21.808-23.645-10.165-32.5-1z" fill="url(#radialGradient5850)" fill-rule="evenodd" filter="url(#filter12325)" id="SVGCleanerId_1" opacity="0.995"/>
  <path d="m181 115a8.5 17 0 1 1 -17 0 8.5 17 0 1 1 17 0z" fill="url(#radialGradient5852)" id="SVGCleanerId_2"/>
  <path d="m170 119.75s0.97644 13.116 5.25 13.25c4.2253 0.13228 6-12.75 6-12.75-3.0256 4.18-4.5212 17.54-11.25-0.5z" fill="url(#radialGradient5854)" fill-rule="evenodd" filter="url(#filter12535)" id="SVGCleanerId_3"/>
  <path d="m326.94 57.594a0.40625 0.40625 0 1 1 -0.8125 0 0.40625 0.40625 0 1 1 0.8125 0z" fill="#eeeeec" id="SVGCleanerId_4"/>
  <path d="m187.05 69.59a9.496 6.218 0 1 1 -18.992 0 9.496 6.218 0 1 1 18.992 0z" fill="url(#radialGradient5830)" id="SVGCleanerId_5"/>
  <path d="m174.78 40.614c0.70089 7.2249 0.0346 13.617-5.2635 23.17 1.2917 2.4591 2.6506 4.8817 6.5473 5.9303 5.5962-12.023 2.7392-21.292-1.2838-29.101z" id="SVGCleanerId_6"/>
  <path d="m180.62 46.373c4.5129 9.9991 5.0017 18.586-1.2593 23.807 1.6034-8.4591 3.2087-16.791 1.2593-23.807z" filter="url(#filter6531)" id="SVGCleanerId_7"/>
 </defs>
 <g transform="matrix(1 0 0 1 0 -956.36)">
  <rect x="2" rx="25" y="958.36" fill="url(#linearGradient11642)" height="92" width="92"/>
  <g transform="matrix(1 0 0 1 0 0.002)">
   <path d="m69.617 1027.2a21.517 7.1724 0 0 1 -43.034 0 21.517 7.1724 0 1 1 43.034 0z" fill="url(#radialGradient5932)" opacity="0.765"/>
   <path d="m27.647 979.59c-0.33727 0.005-0.67906 0.15616-0.78448 0.4763-0.84448 2.5557-0.6625 6.9736 1.625 9.6099-2.8976 3.9903-4.5948 8.8961-4.5948 14.205 0 13.369 10.838 24.207 24.207 24.207s24.207-10.838 24.207-24.207c0-5.1219-1.6002-9.8727-4.3147-13.784 2.6941-2.6696 2.5974-7.4583 1.4289-10.086-0.27169-0.61263-1.4925-0.53717-1.597 0.056-0.38663 2.1942-2.1713 4.3141-3.9504 5.4634-4.2379-3.6476-9.7436-5.8556-15.774-5.8556-5.8988 0-11.322 2.0972-15.522 5.6034-1.7845-1.0553-3.6583-3.0598-4.2026-5.2392-0.07434-0.2977-0.39118-0.45313-0.72845-0.44828z" opacity="0.3"/>
   <path d="m71.73 1002.7a23.63 23.63 0 1 0 -47.26 0 23.63 23.63 0 0 0 47.26 0z" stroke-width="0.897" fill="url(#radialGradient5924)" stroke="#42770c" stroke-linecap="round" stroke-linejoin="round"/>
   <g transform="matrix(1.1527 0 0 1.1527 19.52 975.2)">
    <g transform="matrix(-6.3251 5.4649 5.4649 6.3251 1037.9 -2859)">
     <g transform="matrix(-0.82067 0.5714 0.5714 0.82067 471.33 -148.1)">
      <path d="m313.21 183.48c0.22609-0.0339 0.45219-0.0447 0.67829 0.0657 0 0 0.0247 0.47973-0.14223 0.4923-0.20815 0.0157-0.53606-0.55795-0.53606-0.55795z" fill="#a4ac9b"/>
      <use stroke-width="1.452" xlink:href="#SVGCleanerId_0" clip-path="url(#clipPath11530)" fill="none" stroke="#000" opacity="0.6" transform="matrix(0.08752 0 0 0.08752 302.83 165.14)"/>
      <path d="m313.7 183.95c-0.15838-0.088-0.27148-0.2666-0.37196-0.47043l0.22974-0.0109c0.00029 0.17617 0.0545 0.33435 0.14222 0.48137z" fill="#fff"/>
     </g>
     <path d="m318.61 181.89 0.13151 0.18179c0.11446-0.37326 0.24526-0.49053 0.39066-0.37905l-0.004-0.25142c-0.18429 0.10922-0.37372 0.20049-0.5183 0.44868z" fill="url(#linearGradient5820)" opacity="0.752"/>
    </g>
    <g transform="matrix(6.2401 5.082 -5.082 6.2401 -1030.8 -2721.4)">
     <g transform="matrix(-0.82067 0.5714 0.5714 0.82067 471.33 -148.1)">
      <path d="m313.23 183.49c0.22609-0.0339 0.45219-0.0447 0.67829 0.0656 0 0 0.0247 0.47973-0.14223 0.4923-0.20815 0.0157-0.53606-0.55795-0.53606-0.55795z" fill="#a4ac9b"/>
      <use stroke-width="1.626" xlink:href="#SVGCleanerId_0" clip-path="url(#clipPath11530)" fill="none" stroke="#000" opacity="0.6" transform="matrix(0.08752 0 0 0.08752 302.85 165.15)"/>
      <path d="m313.72 183.96c-0.15838-0.088-0.27148-0.2666-0.37196-0.47043l0.22974-0.0109c0.00029 0.17617 0.0545 0.33435 0.14222 0.48137z" fill="#fff"/>
     </g>
     <path d="m318.6 181.91 0.13151 0.1818c0.11446-0.37327 0.24526-0.49054 0.39067-0.37906l-0.004-0.25142c-0.18429 0.10923-0.37372 0.20049-0.51831 0.44868z" fill="url(#linearGradient5822)" opacity="0.381"/>
    </g>
   </g>
   <path d="m27.663 1012.5h40.921" stroke-width="0.897" fill="none" stroke="#000"/>
   <path d="m316.69 175.38a2.1875 2.1875 0 1 1 -4.375 0 2.1875 2.1875 0 1 1 4.375 0z" clip-path="url(#clipPath5690)" fill="url(#linearGradient5824)" opacity="0.8" transform="matrix(0 4.264 -7.404 0 1346.5 -350.68)"/>
   <path d="m27.354 1003.3c-0.39917 29.198 41.493 28.298 40.921 2.3501-0.54108 24.63-40.326 25.403-40.913-2.3501h-0.0078z" fill="url(#radialGradient5906)" fill-rule="evenodd" opacity="0.399"/>
   <path d="m48.097 1025.7c-12.67 0-22.917-10.247-22.917-22.917s10.247-22.917 22.917-22.917 22.917 10.247 22.917 22.917-10.247 22.917-22.917 22.917z" stroke-width="0.697" fill="none" stroke="url(#radialGradient5903)" stroke-linecap="round" stroke-linejoin="round"/>
   <g transform="matrix(-3.7362 1.8903 1.8903 3.7362 897.1 -253.26)">
    <use xlink:href="#SVGCleanerId_5" transform="matrix(0.08349 0.02755 -0.03454 0.08153 305.77 160.69)"/>
    <use xlink:href="#SVGCleanerId_5" opacity="0.604" transform="matrix(0.10272 0.03699 -0.04281 0.10853 303.05 157.22)"/>
    <path d="m317.57 170.65c-0.50716 0.60775 0.94601 1.4143 1.3452 0.64672 0.44663-0.85884-0.0474-2.0294-0.56597-2.5458-0.11396-0.11371-0.36282 0.013-0.33031 0.15591 0.1368 0.60141-0.11676 1.3452-0.4489 1.7432z" fill="url(#radialGradient5834)"/>
    <use xlink:href="#SVGCleanerId_6" fill="url(#linearGradient5836)" filter="url(#filter6531)" opacity="0.446" transform="matrix(0.08587 -0.0022 -0.0022 0.08263 303.25 166.05)"/>
    <use xlink:href="#SVGCleanerId_7" fill="url(#radialGradient5838)" opacity="0.307" transform="matrix(0.08587 -0.0022 -0.0022 0.08263 303.31 166.06)"/>
   </g>
   <g transform="matrix(3.7614 1.561 -1.561 3.7614 -864.88 -152.27)">
    <use xlink:href="#SVGCleanerId_5" transform="matrix(0.08207 0.03209 -0.03002 0.08301 305.54 159.63)"/>
    <use xlink:href="#SVGCleanerId_5" opacity="0.604" transform="matrix(0.1049 0.04089 -0.04083 0.11201 302.38 156.22)"/>
    <path d="m317.46 170.58c-0.5499 0.62574 0.98217 1.4186 1.4199 0.63253 0.48978-0.87949-0.0158-2.0587-0.55861-2.5736-0.11928-0.11337-0.38617 0.0197-0.35403 0.16407 0.13528 0.60793-0.14716 1.3672-0.50727 1.777z" fill="url(#radialGradient5844)"/>
    <use xlink:href="#SVGCleanerId_6" fill="url(#radialGradient5846)" filter="url(#filter6444)" opacity="0.668" transform="matrix(0.09138 -0.00375 -0.00375 0.0839 302.31 166.16)"/>
    <use xlink:href="#SVGCleanerId_7" fill="url(#radialGradient5848)" opacity="0.668" transform="matrix(0.09138 -0.00375 -0.00375 0.0839 302.37 166.17)"/>
   </g>
   <use xlink:href="#SVGCleanerId_1" transform="matrix(0.17734 0 0 -0.14917 36.04 1032.5)"/>
   <use xlink:href="#SVGCleanerId_2" transform="matrix(0.33903 0 0 0.16951 2.873 983.81)"/>
   <use xlink:href="#SVGCleanerId_3" transform="matrix(0.33903 0 0 0.14408 1.856 986.73)"/>
   <use xlink:href="#SVGCleanerId_4" transform="matrix(1.31431 0 0 1.30163 -367.79 926.74)"/>
   <use xlink:href="#SVGCleanerId_1" transform="matrix(0.17734 0 0 -0.14917 9.529 1032.5)"/>
   <use xlink:href="#SVGCleanerId_2" transform="matrix(0.33903 0 0 0.16951 -23.639 983.81)"/>
   <use xlink:href="#SVGCleanerId_3" transform="matrix(0.33903 0 0 0.14408 -24.656 986.73)"/>
   <use xlink:href="#SVGCleanerId_4" transform="matrix(1.31431 0 0 1.30163 -394.3 926.74)"/>
   <use xlink:href="#SVGCleanerId_5" transform="matrix(-0.25986 0.26078 0.28316 0.23932 58.42 925.1)"/>
   <use xlink:href="#SVGCleanerId_5" opacity="0.604" transform="matrix(-0.31386 0.33238 0.36511 0.32456 62.02 906.99)"/>
   <use xlink:href="#SVGCleanerId_5" transform="matrix(0.25861 0.24882 -0.2425 0.26535 35.21 925.1)"/>
   <use xlink:href="#SVGCleanerId_5" opacity="0.604" transform="matrix(0.33074 0.31755 -0.32844 0.35757 28.643 907.35)"/>
  </g>
  <rect x="-96" rx="25" y="958.36" clip-path="url(#clipPath3009)" fill="#fff" height="92" opacity="0.15" width="92" transform="matrix(1 0 0 1 98 0)"/>
 </g>
</svg>
