<svg height="96" width="96" xmlns="http://www.w3.org/2000/svg" xmlns:sodipodi="http://sodipodi.sourceforge.net/DTD/sodipodi-0.dtd" xmlns:inkscape="http://www.inkscape.org/namespaces/inkscape">
 <rect x="8" rx="10.769" y="8" fill="#16769e" fill-opacity="1" stroke="none" height="80" width="80"/>
 <g transform="matrix(1.25007 0 0 1.25007 -115.23 -19.12)">
  <path d="m 133.16592,69.92687 c -2.11789,-2.1343 -3.85081,-3.8909 -3.85081,-3.9022 0,0 1.71094,-1.8006 3.80285,-3.9748 l 3.80177,-3.9533 0,1.9357 c 0.01,1.0646 0,1.946 0,1.9593 0,0 5.58764,-0.01 9.82938,-0.1024 2.07286,0 2.15491,0 2.36689,-0.1024 0.44993,-0.1228 0.87994,-0.4094 1.04287,-0.696 0,-0.1024 0.10003,-0.1229 0.10003,-0.1126 0,0 -0.10999,0.5323 -0.18999,0.7063 -0.0999,0.1638 -0.76995,1.4188 -3.21176,5.8286 -0.32002,0.5733 -0.62997,1.0953 -0.70997,1.1967 -0.37003,0.4504 -0.93992,0.8189 -1.58796,1.0031 -0.20992,0.1024 -0.27,0.1024 -3.64274,0.1024 -1.88794,0 -3.54281,0 -3.67781,0 l -0.24001,0 0.01,1.9398 c 0,1.0667 0,1.9388 -0.01,1.9388 -0.01,0 -1.74884,-1.7463 -3.86576,-3.8817 z" fill="white" fill-opacity="1" inkscape:connector-curvature="0"/>
  <path d="m 126.01963,34.064061 c -0.13572,-0.02047 -0.26986,-0.01838 -0.40234,0.0098 -0.24001,0.0512 -0.41185,0.134709 -0.67188,0.349609 -0.36397,0.2959 -0.36354,0.296887 -1.85742,2.929687 -0.42903,0.754401 -1.49116,2.631275 -2.3711,4.171875 -0.87192,1.5396 -1.59082,2.822266 -1.59179,2.822266 -9.8e-4,0.0133 1.48581,0.91114 3.30273,1.99414 l -0.008,0.0059 c 1.8179,1.08 3.33203,1.969703 3.33203,1.970703 0.0149,0.0011 1.03657,-1.776972 2.27149,-3.951172 l 2.24608,-3.953169 -0.25977,-0.480469 c -1.68896,-3.0463 -2.75153,-4.957278 -2.85156,-5.080078 -0.32323,-0.453 -0.73152,-0.727647 -1.13867,-0.789062 z m 18.66406,15.855468 c -0.012,-0.0041 -1.50554,0.885263 -3.31836,1.976563 -2.14388,1.2897 -3.29297,2.02539 -3.29297,2.02539 0.002,0.0225 0.57724,1.048897 1.28711,2.279297 0.70704,1.2294 1.71811,2.996669 2.24805,3.917969 l 0,0.0039 0.9707,1.681641 2.94532,-0.0098 c 2.90288,-0.0102 3.32237,-0.0089 3.65234,-0.111328 0.76692,-0.2016 1.23675,-0.84004 1.13672,-1.55664 -0.07,-0.4555 -0.1297,-0.629275 -0.42969,-1.171875 -0.42297,-0.7667 -5.19922,-9.025157 -5.19922,-9.035157 z m -26.52734,12.142579 -1.03711,1.826171 c -0.56695,1.0042 -1.25764,2.205416 -1.51758,2.666016 -0.26003,0.4596 -0.47041,0.931888 -0.57031,1.054687 -0.32002,0.752401 -0.24857,1.397257 0.1914,1.847657 0.19996,0.2047 0.58857,0.368303 0.97852,0.470703 l 0.008,0.03516 5.51563,0 5.39648,0 -0.01,-3.939453 -0.01,-3.941406 -4.47266,-0.0098 -4.47265,-0.0098 z" fill="white" fill-opacity="1" inkscape:connector-curvature="0"/>
  <path d="m 114.65105,69.05677 c -0.12006,-0.1229 -0.26004,-0.2969 -0.29999,-0.3685 -0.21002,-0.3481 -3.77081,-6.6793 -3.82483,-6.8042 -0.11995,-0.2866 -0.17993,-0.5937 -0.19996,-1.0237 0,-0.4708 0,-0.7882 0.14995,-1.1393 0.10003,-0.1433 0.69004,-1.302 1.87495,-3.4067 0.98993,-1.7535 1.7929,-3.203 1.78586,-3.2204 -0.01,0 -0.74992,-0.4708 -1.6409,-0.9929 -0.89996,-0.5323 -1.61892,-0.9725 -1.60993,-0.9827 0.01,-0.01 0.21002,-0.1024 0.43997,-0.1331 0.23005,-0.1023 1.59294,-0.4401 3.02284,-0.8291 1.42892,-0.389 3.12785,-0.8599 3.77481,-1.036 0.64999,-0.174 1.63689,-0.4504 2.19985,-0.6039 0.56002,-0.1535 1.02598,-0.2764 1.02891,-0.2764 0,0 0,0.174 0.10003,0.389 0.10999,0.4299 1.01093,3.8704 1.31893,5.0404 0.10999,0.4197 0.32001,1.2171 0.45999,1.7638 0.13998,0.5425 0.40998,1.56 0.58992,2.252 0.18003,0.6961 0.32001,1.2642 0.32001,1.2703 -0.01,0.01 -0.73996,-0.4197 -1.62888,-0.9417 -0.89,-0.5221 -1.63192,-0.952 -1.64989,-0.952 0,0 -0.59001,0.9929 -1.27497,2.2049 -0.67998,1.212 -1.9829,3.5091 -2.88882,5.1029 -0.90993,1.5938 -1.68994,2.9891 -1.74493,3.0996 -0.27997,0.5732 -0.32998,1.2048 -0.12992,1.6532 0,0.1024 0.0999,0.174 0.0999,0.174 0,0 -0.11996,-0.1023 -0.23991,-0.2354 z" fill="white" fill-opacity="1" inkscape:connector-curvature="0"/>
  <path d="m 140.10648,50.13467 c -0.0999,0 -2.35682,-0.6552 -5.0197,-1.3963 -2.66277,-0.737 -4.9267,-1.3676 -5.03171,-1.3972 l -0.19,-0.1024 0.19,-0.1126 c 0.10003,-0.1024 0.72999,-0.4299 1.39395,-0.8189 0.65996,-0.389 1.31298,-0.7678 1.44592,-0.8497 0.13002,-0.1023 0.24998,-0.1535 0.24998,-0.174 0.01,0 -0.29999,-0.5835 -0.67998,-1.2611 -1.47386,-2.6349 -2.79983,-5.0118 -3.89575,-6.9843 -0.62996,-1.1322 -1.20493,-2.1497 -1.27995,-2.2623 -0.34991,-0.5323 -0.91989,-0.9008 -1.38585,-0.9008 l -0.12005,0 0.10003,0 c 0,0 0.18999,-0.1023 0.32997,-0.1023 0.24001,-0.1024 0.25994,-0.1024 4.19876,0 l 3.9528,0.01 0.20992,0.1024 c 0.56002,0.1637 1.04297,0.4504 1.42697,0.8598 l 0.24998,0.2559 1.68182,3.0075 c 0.92996,1.6532 1.73693,3.1057 1.80394,3.2265 0.10003,0.1843 0.13002,0.215 0.18003,0.2048 0,-0.01 0.77991,-0.4402 1.66991,-0.952 0.88991,-0.5119 1.6159,-0.9418 1.6199,-0.9315 0,0 -0.21002,0.8189 -0.47006,1.8118 -0.52993,2.0002 -1.34091,5.0527 -1.6999,6.4101 -0.62996,2.3718 -0.65995,2.4782 -0.6999,2.4833 0,0 -0.11996,0 -0.21999,0 z" fill="white" fill-opacity="1" inkscape:connector-curvature="0"/>
  <path stroke-opacity="1" d="M 150.32628,59.69492 z" stroke-width="1" fill="white" stroke="black" stroke-linecap="butt" stroke-linejoin="miter" inkscape:connector-curvature="0"/>
  <path d="m 120.25986,42.335545 c -0.52567,0.931969 -1.13407,2.011719 -1.13476,2.011719 -9.8e-4,0.0133 1.48581,0.91114 3.30273,1.99414 l -0.008,0.0059 c 1.8179,1.08 3.33203,1.969703 3.33203,1.970703 0.008,5.88e-4 0.75122,-1.307159 1.21289,-2.111328 l -6.70507,-3.871094 z m 1.0918,5.904297 c -0.003,0 -0.46732,0.123844 -1.02734,0.277344 -0.56296,0.1535 -1.55119,0.429515 -2.20118,0.603515 -0.64696,0.1761 -2.34451,0.646155 -3.77343,1.035157 -1.4299,0.389 -2.79339,0.727778 -3.02344,0.830078 -0.22995,0.0307 -0.42945,0.122812 -0.43945,0.132812 -0.006,0.0064 0.57682,0.354575 1.00781,0.615234 0.25715,0.155534 0.26518,0.168226 0.60156,0.367188 0.89098,0.5221 1.63063,0.992188 1.64063,0.992188 1.4e-4,3.58e-4 -0.0366,0.06483 -0.0371,0.06641 l 6.69726,4.017578 c 0.003,-0.0053 0.0664,-0.115235 0.0664,-0.115234 0.018,0 0.75844,0.429071 1.64844,0.951171 0.88892,0.522 1.61891,0.951407 1.62891,0.941407 0,-0.0012 -0.0537,-0.21528 -0.0645,-0.259766 -0.0422,-0.17326 -0.11069,-0.456009 -0.25391,-1.009766 -0.17994,-0.692 -0.45182,-1.709453 -0.5918,-2.251953 -0.13998,-0.5467 -0.34899,-1.343972 -0.45898,-1.763672 -0.308,-1.17 -1.20837,-4.611115 -1.31836,-5.041015 -0.10003,-0.215 -0.10156,-0.388672 -0.10156,-0.388672 z m 17.8125,5.009766 c -0.24708,0.155167 -1.0918,0.671874 -1.0918,0.671874 0.002,0.0225 0.57724,1.048897 1.28711,2.279297 0.70704,1.2294 1.71811,2.996669 2.24805,3.917969 l 0,0.0039 0.9707,1.681641 2.94532,-0.0098 c 2.90288,-0.0102 3.32237,-0.0089 3.65234,-0.111328 0.76692,-0.2016 1.23675,-0.84004 1.13672,-1.55664 -0.0322,-0.209305 -0.067,-0.35436 -0.11914,-0.507813 l -11.0293,-6.36914 z m -2.24414,4.847656 -3.80273,3.953125 c -0.61622,0.640455 -0.60499,0.630777 -1.1211,1.169922 -0.11305,0.118515 -0.24065,0.252353 -0.41015,0.429687 l 10.26757,6.16211 c 0.0477,-4.9e-5 0.0506,7.5e-5 0.0957,0 0.73414,-0.0012 1.18093,-0.0061 1.55665,-0.01367 l 0.01,0.0059 c 0.6566,-0.01086 0.92377,-0.03365 1.04297,-0.0918 0.64804,-0.1842 1.21786,-0.551553 1.58789,-1.001953 0.08,-0.1014 0.39092,-0.623966 0.71094,-1.197266 2.44181,-4.4098 3.11104,-5.664325 3.21094,-5.828125 0.08,-0.174 0.19141,-0.707031 0.19141,-0.707031 0,-0.0103 -0.10157,0.01088 -0.10157,0.113281 -0.16293,0.2866 -0.59304,0.572513 -1.04297,0.695313 -0.21198,0.1024 -0.29432,0.101562 -2.36718,0.101562 -4.24174,0.0924 -9.82813,0.103516 -9.82813,0.103516 0,-0.0133 0.01,-0.894384 0,-1.958984 l 0,-1.935547 z" fill="white" fill-opacity="1" fill-rule="evenodd" stroke="none" opacity="0.2" inkscape:connector-curvature="0"/>
 </g>
</svg>
