<?xml version="1.0" encoding="UTF-8" standalone="no"?>
<!-- Created with Inkscape (http://www.inkscape.org/) -->

<svg
   xmlns:dc="http://purl.org/dc/elements/1.1/"
   xmlns:cc="http://creativecommons.org/ns#"
   xmlns:rdf="http://www.w3.org/1999/02/22-rdf-syntax-ns#"
   xmlns:svg="http://www.w3.org/2000/svg"
   xmlns="http://www.w3.org/2000/svg"
   xmlns:xlink="http://www.w3.org/1999/xlink"
   xmlns:sodipodi="http://sodipodi.sourceforge.net/DTD/sodipodi-0.dtd"
   xmlns:inkscape="http://www.inkscape.org/namespaces/inkscape"
   id="svg11037"
   height="96"
   width="96"
   version="1.1"
   inkscape:version="0.48.5 r10040"
   sodipodi:docname="computerjanitor.svg">
  <sodipodi:namedview
     pagecolor="#ffffff"
     bordercolor="#666666"
     borderopacity="1"
     objecttolerance="10"
     gridtolerance="10"
     guidetolerance="10"
     inkscape:pageopacity="0"
     inkscape:pageshadow="2"
     inkscape:window-width="640"
     inkscape:window-height="480"
     id="namedview4003" />
  <defs
     id="defs11039">
    <linearGradient
       id="linearGradient11642"
       y2="1046.1"
       gradientUnits="userSpaceOnUse"
       y1="962.62"
       gradientTransform="matrix(1.15 0 0 1.15 -7.1999 -150.65)"
       x2="48"
       x1="48">
      <stop
         id="stop3926"
         style="stop-color:#033b62"
         offset="0" />
      <stop
         id="stop3928"
         style="stop-color:#156c95"
         offset="1" />
    </linearGradient>
    <clipPath
       id="clipPath3613-4">
      <rect
         id="rect3615-4"
         style="fill:#fff"
         rx="6"
         ry="6"
         height="84"
         width="84"
         y="6"
         x="6" />
    </clipPath>
    <filter
       id="filter3794-9"
       height="1.384"
       width="1.384"
       color-interpolation-filters="sRGB"
       y="-.192"
       x="-.192">
      <feGaussianBlur
         id="feGaussianBlur3796-6"
         stdDeviation="5.28" />
    </filter>
    <filter
       id="filter3740-0"
       height="1.36"
       width="1.36"
       color-interpolation-filters="sRGB"
       y="-0.18"
       x="-0.18">
      <feGaussianBlur
         id="feGaussianBlur3742-9"
         stdDeviation="0.75" />
    </filter>
    <radialGradient
       id="radialGradient3794-9"
       xlink:href="#linearGradient3768-4"
       gradientUnits="userSpaceOnUse"
       cy="71"
       cx="21"
       gradientTransform="matrix(1.2,0,0,1.2,-4.2,-14.2)"
       r="5" />
    <linearGradient
       id="linearGradient3768-4">
      <stop
         id="stop3770-2"
         style="stop-color:#cae6f9"
         offset="0" />
      <stop
         id="stop3772-4"
         style="stop-color:#71bddf"
         offset=".37064" />
      <stop
         id="stop3774-5"
         style="stop-color:#2b6e8b"
         offset=".71599" />
      <stop
         id="stop3776-5"
         style="stop-color:#1d3f5a"
         offset="1" />
    </linearGradient>
    <linearGradient
       id="linearGradient3796-4"
       y2="74.196"
       xlink:href="#linearGradient3737-8"
       gradientUnits="userSpaceOnUse"
       x2="19.501"
       y1="64.03"
       x1="19.501" />
    <linearGradient
       id="linearGradient3737-8">
      <stop
         id="stop3739-4"
         style="stop-color:#fff"
         offset="0" />
      <stop
         id="stop3741-3"
         style="stop-color:#fff;stop-opacity:0"
         offset="1" />
    </linearGradient>
    <clipPath
       id="clipPath3009"
       clipPathUnits="userSpaceOnUse">
      <path
         id="path3011"
         style="opacity:.15;fill:#fff"
         d="m-2 956.36h-96v33.562l96 25.687v-59.25z" />
    </clipPath>
  </defs>
  <metadata
     id="metadata11042">
    <rdf:RDF>
      <cc:Work
         rdf:about="">
        <dc:format>image/svg+xml</dc:format>
        <dc:type
           rdf:resource="http://purl.org/dc/dcmitype/StillImage" />
        <dc:title />
      </cc:Work>
    </rdf:RDF>
  </metadata>
  <g
     id="layer1"
     transform="translate(0 -956.36)">
    <rect
       id="rect3867"
       style="fill:url(#linearGradient11642)"
       rx="25"
       ry="25"
       height="92"
       width="92"
       y="958.36"
       x="2" />
    <g
       id="g3232"
       transform="matrix(1.0952 0 0 1.0952 -4.5714 951.79)">
      <g
         id="layer5">
        <rect
           id="rect3171"
           style="opacity:.2;filter:url(#filter3794-9);stroke:#fff;stroke-linecap:round;stroke-width:.5;fill:#26d3ff"
           clip-path="url(#clipPath3613-4)"
           rx="12"
           ry="12"
           height="66"
           width="66"
           y="15"
           x="15" />
      </g>
      <g
         id="layer3">
        <path
           id="path3649"
           d="m48.094 36c-7.6084-0.0089-15.242 1.1907-22.562 3.5938l6.749 20.406c10.264-3.369 21.336-3.356 31.594 0.031l6.75-20.375c-7.315-2.42-14.923-3.647-22.531-3.656z"
           style="stroke-linejoin:round;stroke:#fff;stroke-width:4;fill:none" />
        <path
           id="path3660"
           d="m50 64a2 2 0 1 1 -4 0 2 2 0 1 1 4 0z"
           style="stroke-linejoin:round;stroke-dashoffset:1;stroke:#fff;stroke-width:2.6667;fill:none"
           transform="matrix(1.5,0,0,1.5,-24,-24)" />
        <path
           id="path3662"
           d="m47.868 71.977-6.7231-25.091"
           style="stroke:#fff;stroke-linecap:round;stroke-width:4;fill:none" />
        <path
           id="path3686"
           d="m57.562 19.156-0.84375 0.21875-0.34375 0.84375 0.5 0.75 0.3125 0.15625 0.5625 0.09375 0.5625 0.15625 0.03125 0.03125h0.0625l0.5 0.21875 0.90625-0.0625 0.46875-0.75-0.3125-0.84375-0.3125-0.1875-0.59375-0.25-0.091-0.03-0.719-0.25h-0.125l-0.5625-0.09375zm-4.374 0.344-0.344 0.062-0.313 0.126-0.093 0.031-0.688 0.343-0.094 0.032-0.656 0.406l-0.0625 0.0625-0.125 0.0625-0.40625 0.8125 0.40625 0.8125 0.875 0.15625 0.34375-0.15625v-0.03125l0.09375-0.0625 0.5-0.28125 0.59375-0.3125 0.09375-0.03125 0.21875-0.0625 0.625-0.65625-0.156-0.906-0.812-0.406zm9.375 2.75-0.84375 0.34375-0.1875 0.875 0.125 0.3125 0.40625 0.65625h0.03125l0.25 0.5 0.1875 0.4375 0.6875 0.5625 0.875-0.15625 0.34375-0.84375-0.03125-0.34375-0.21875-0.4375v-0.0625l-0.375-0.6875-0.064-0.094-0.438-0.624-0.75-0.438zm-13.563 1.188-0.844 0.281-0.218 0.281l-0.21875 0.4375-0.03125 0.09375-0.28125 0.75-0.03125 0.09375-0.15625 0.6875 0.1875 0.875 0.8125 0.375 0.781-0.437 0.15625-0.3125 0.125-0.59375h0.03125l0.219-0.657 0.031-0.093 0.188-0.344-0.031-0.906-0.719-0.531zm14.719 4.593-0.657 0.594-0.062 0.375v2l0.40625 0.78125 0.875 0.15625 0.657-0.593 0.062-0.344v-2l-0.40625-0.8125-0.875-0.15625zm-16 1.3125-0.65625 0.625l-0.063 0.343v2l0.40625 0.78125 0.875 0.1875 0.65625-0.625 0.063-0.344v-2l-0.40625-0.8125-0.875-0.15625zm0 6-0.65625 0.625l-0.063 0.343v2l0.40625 0.78125 0.875 0.1875 0.65625-0.625 0.063-0.344v-2l-0.40625-0.8125-0.875-0.15625zm0 6-0.65625 0.625l-0.063 0.343v2l0.40625 0.78125 0.875 0.1875 0.65625-0.625 0.063-0.344v-2l-0.40625-0.8125-0.875-0.15625zm0 6-0.65625 0.625l-0.063 0.343v2l0.40625 0.78125 0.875 0.1875 0.65625-0.625 0.063-0.344v-2l-0.40625-0.8125-0.875-0.15625z"
           style="block-progression:tb;text-indent:0;color:#000000;text-transform:none;fill:#fff" />
        <path
           id="path3689"
           d="m38.438 19.156 0.84375 0.21875 0.34375 0.84375-0.5 0.75-0.3125 0.15625-0.5625 0.09375-0.5625 0.15625-0.03125 0.03125h-0.0625l-0.5 0.21875-0.90625-0.0625-0.46875-0.75 0.3125-0.84375 0.3125-0.1875 0.59375-0.25 0.091-0.03 0.719-0.25h0.125l0.5625-0.09375zm4.375 0.34375 0.34375 0.0625 0.3125 0.125 0.09375 0.03125 0.6875 0.34375 0.09375 0.03125l0.654 0.407 0.0625 0.0625 0.125 0.0625 0.40625 0.8125-0.40625 0.8125-0.875 0.15625-0.34375-0.15625v-0.03125l-0.094-0.063-0.5-0.281-0.594-0.313-0.093-0.031-0.219-0.062-0.625-0.657 0.156-0.906 0.812-0.406zm-9.375 2.75 0.84375 0.34375 0.1875 0.875-0.125 0.3125-0.40625 0.65625h-0.03125l-0.25 0.5-0.1875 0.4375-0.6875 0.5625-0.875-0.15625-0.34375-0.84375 0.03125-0.34375 0.21875-0.4375v-0.0625l0.375-0.6875 0.0625-0.09375 0.4375-0.625 0.75-0.4375zm13.562 1.188 0.844 0.281 0.218 0.281l0.21875 0.4375 0.03125 0.09375 0.28125 0.75 0.03125 0.09375 0.15625 0.6875-0.1875 0.875-0.8125 0.375-0.781-0.437-0.15625-0.3125-0.125-0.59375h-0.03125l-0.219-0.657-0.031-0.093-0.188-0.344 0.031-0.906 0.719-0.531zm-14.719 4.593 0.657 0.594 0.062 0.375v2l-0.40625 0.78125-0.875 0.15625-0.657-0.593-0.062-0.344v-2l0.40625-0.8125 0.875-0.15625zm16 1.3125 0.65625 0.625 0.0625 0.34375v2l-0.40625 0.78125-0.875 0.1875-0.65625-0.625-0.063-0.345v-2l0.40625-0.8125 0.875-0.15625zm0 6 0.65625 0.625 0.0625 0.34375v2l-0.40625 0.78125-0.875 0.1875-0.65625-0.625-0.063-0.345v-2l0.40625-0.8125 0.875-0.15625zm0 6 0.65625 0.625 0.0625 0.34375v2l-0.40625 0.78125-0.875 0.1875-0.65625-0.625-0.063-0.345v-2l0.40625-0.8125 0.875-0.15625zm0 6 0.65625 0.625 0.0625 0.34375v2l-0.40625 0.78125-0.875 0.1875-0.65625-0.625-0.063-0.345v-2l0.40625-0.8125 0.875-0.15625z"
           style="block-progression:tb;text-indent:0;color:#000000;text-transform:none;fill:#fff" />
      </g>
      <g
         id="layer4">
        <g
           id="g3784"
           transform="matrix(.49714 0 0 .39749 63.498 -.53954)">
          <path
             id="path3786"
             d="m26 69a5 5 0 1 1 -10 0 5 5 0 1 1 10 0z"
             style="filter:url(#filter3740-0);fill:#162d50"
             transform="translate(0,1)" />
          <path
             id="path3788"
             d="m26 69a5 5 0 1 1 -10 0 5 5 0 1 1 10 0z"
             style="fill:url(#radialGradient3794-9)" />
          <path
             id="path3790"
             d="m21 64.688c-2.3744 0-4.3125 1.9381-4.3125 4.3125 0 1.4043 0.70859 2.6217 1.75 3.4062-0.46357-0.68617-0.75-1.5158-0.75-2.4062 0-2.3744 1.9381-4.3125 4.3125-4.3125 0.89041 0 1.7201 0.28643 2.4062 0.75-0.78459-1.0414-2.0019-1.75-3.4062-1.75z"
             style="opacity:.4;fill:#fff" />
          <path
             id="path3792"
             d="m26 69a5 5 0 1 1 -10 0 5 5 0 1 1 10 0z"
             style="fill:url(#linearGradient3796-4)"
             transform="matrix(.42108 -.20641 .10320 .21054 3.6761 56.253)" />
        </g>
        <g
           id="g3798"
           transform="matrix(.79644 0 0 .63679 62.288 -24.307)">
          <path
             id="path3800"
             d="m26 69a5 5 0 1 1 -10 0 5 5 0 1 1 10 0z"
             style="filter:url(#filter3740-0);fill:#162d50"
             transform="translate(0,1)" />
          <path
             id="path3802"
             d="m26 69a5 5 0 1 1 -10 0 5 5 0 1 1 10 0z"
             style="fill:url(#radialGradient3794-9)" />
          <path
             id="path3804"
             d="m21 64.688c-2.3744 0-4.3125 1.9381-4.3125 4.3125 0 1.4043 0.70859 2.6217 1.75 3.4062-0.46357-0.68617-0.75-1.5158-0.75-2.4062 0-2.3744 1.9381-4.3125 4.3125-4.3125 0.89041 0 1.7201 0.28643 2.4062 0.75-0.78459-1.0414-2.0019-1.75-3.4062-1.75z"
             style="opacity:.4;fill:#fff" />
          <path
             id="path3806"
             d="m26 69a5 5 0 1 1 -10 0 5 5 0 1 1 10 0z"
             style="fill:url(#linearGradient3796-4)"
             transform="matrix(.42108 -.20641 .10320 .21054 3.6761 56.253)" />
        </g>
        <g
           id="g3812"
           transform="matrix(.60889 0 0 .48684 66.597 22.534)">
          <path
             id="path3814"
             d="m26 69a5 5 0 1 1 -10 0 5 5 0 1 1 10 0z"
             style="filter:url(#filter3740-0);fill:#162d50"
             transform="translate(0,1)" />
          <path
             id="path3816"
             d="m26 69a5 5 0 1 1 -10 0 5 5 0 1 1 10 0z"
             style="fill:url(#radialGradient3794-9)" />
          <path
             id="path3818"
             d="m21 64.688c-2.3744 0-4.3125 1.9381-4.3125 4.3125 0 1.4043 0.70859 2.6217 1.75 3.4062-0.46357-0.68617-0.75-1.5158-0.75-2.4062 0-2.3744 1.9381-4.3125 4.3125-4.3125 0.89041 0 1.7201 0.28643 2.4062 0.75-0.78459-1.0414-2.0019-1.75-3.4062-1.75z"
             style="opacity:.4;fill:#fff" />
          <path
             id="path3820"
             d="m26 69a5 5 0 1 1 -10 0 5 5 0 1 1 10 0z"
             style="fill:url(#linearGradient3796-4)"
             transform="matrix(.42108 -.20641 .10320 .21054 3.6761 56.253)" />
        </g>
        <g
           id="g3826"
           transform="matrix(1.0838 0 0 .86656 46.302 14.129)">
          <path
             id="path3828"
             d="m26 69a5 5 0 1 1 -10 0 5 5 0 1 1 10 0z"
             style="filter:url(#filter3740-0);fill:#162d50"
             transform="translate(0,1)" />
          <path
             id="path3830"
             d="m26 69a5 5 0 1 1 -10 0 5 5 0 1 1 10 0z"
             style="fill:url(#radialGradient3794-9)" />
          <path
             id="path3832"
             d="m21 64.688c-2.3744 0-4.3125 1.9381-4.3125 4.3125 0 1.4043 0.70859 2.6217 1.75 3.4062-0.46357-0.68617-0.75-1.5158-0.75-2.4062 0-2.3744 1.9381-4.3125 4.3125-4.3125 0.89041 0 1.7201 0.28643 2.4062 0.75-0.78459-1.0414-2.0019-1.75-3.4062-1.75z"
             style="opacity:.4;fill:#fff" />
          <path
             id="path3834"
             d="m26 69a5 5 0 1 1 -10 0 5 5 0 1 1 10 0z"
             style="fill:url(#linearGradient3796-4)"
             transform="matrix(.42108 -.20641 .10320 .21054 3.6761 56.253)" />
        </g>
        <g
           id="g3840"
           transform="matrix(.48783 0 0 .39004 70.216 43.84)">
          <path
             id="path3842"
             d="m26 69a5 5 0 1 1 -10 0 5 5 0 1 1 10 0z"
             style="filter:url(#filter3740-0);fill:#162d50"
             transform="translate(0,1)" />
          <path
             id="path3844"
             d="m26 69a5 5 0 1 1 -10 0 5 5 0 1 1 10 0z"
             style="fill:url(#radialGradient3794-9)" />
          <path
             id="path3846"
             d="m21 64.688c-2.3744 0-4.3125 1.9381-4.3125 4.3125 0 1.4043 0.70859 2.6217 1.75 3.4062-0.46357-0.68617-0.75-1.5158-0.75-2.4062 0-2.3744 1.9381-4.3125 4.3125-4.3125 0.89041 0 1.7201 0.28643 2.4062 0.75-0.78459-1.0414-2.0019-1.75-3.4062-1.75z"
             style="opacity:.4;fill:#fff" />
          <path
             id="path3848"
             d="m26 69a5 5 0 1 1 -10 0 5 5 0 1 1 10 0z"
             style="fill:url(#linearGradient3796-4)"
             transform="matrix(.42108 -.20641 .10320 .21054 3.6761 56.253)" />
        </g>
        <g
           id="g3854"
           transform="matrix(.72063 0 0 .57618 44.874 40.278)">
          <path
             id="path3856"
             d="m26 69a5 5 0 1 1 -10 0 5 5 0 1 1 10 0z"
             style="filter:url(#filter3740-0);fill:#162d50"
             transform="translate(0,1)" />
          <path
             id="path3858"
             d="m26 69a5 5 0 1 1 -10 0 5 5 0 1 1 10 0z"
             style="fill:url(#radialGradient3794-9)" />
          <path
             id="path3860"
             d="m21 64.688c-2.3744 0-4.3125 1.9381-4.3125 4.3125 0 1.4043 0.70859 2.6217 1.75 3.4062-0.46357-0.68617-0.75-1.5158-0.75-2.4062 0-2.3744 1.9381-4.3125 4.3125-4.3125 0.89041 0 1.7201 0.28643 2.4062 0.75-0.78459-1.0414-2.0019-1.75-3.4062-1.75z"
             style="opacity:.4;fill:#fff" />
          <path
             id="path3862"
             d="m26 69a5 5 0 1 1 -10 0 5 5 0 1 1 10 0z"
             style="fill:url(#linearGradient3796-4)"
             transform="matrix(.42108 -.20641 .10320 .21054 3.6761 56.253)" />
        </g>
        <g
           id="g3868"
           transform="matrix(.61558 0 0 .49485 12.035 -14.932)">
          <path
             id="path3870"
             d="m26 69a5 5 0 1 1 -10 0 5 5 0 1 1 10 0z"
             style="filter:url(#filter3740-0);fill:#162d50"
             transform="translate(0,1)" />
          <path
             id="path3872"
             d="m26 69a5 5 0 1 1 -10 0 5 5 0 1 1 10 0z"
             style="fill:url(#radialGradient3794-9)" />
          <path
             id="path3874"
             d="m21 64.688c-2.3744 0-4.3125 1.9381-4.3125 4.3125 0 1.4043 0.70859 2.6217 1.75 3.4062-0.46357-0.68617-0.75-1.5158-0.75-2.4062 0-2.3744 1.9381-4.3125 4.3125-4.3125 0.89041 0 1.7201 0.28643 2.4062 0.75-0.78459-1.0414-2.0019-1.75-3.4062-1.75z"
             style="opacity:.4;fill:#fff" />
          <path
             id="path3876"
             d="m26 69a5 5 0 1 1 -10 0 5 5 0 1 1 10 0z"
             style="fill:url(#linearGradient3796-4)"
             transform="matrix(.42108 -.20641 .10320 .21054 3.6761 56.253)" />
        </g>
        <g
           id="g3882"
           transform="matrix(.87894 0 0 .70276 -2.7136 -22.596)">
          <path
             id="path3884"
             d="m26 69a5 5 0 1 1 -10 0 5 5 0 1 1 10 0z"
             style="filter:url(#filter3740-0);fill:#162d50"
             transform="translate(0,1)" />
          <path
             id="path3886"
             d="m26 69a5 5 0 1 1 -10 0 5 5 0 1 1 10 0z"
             style="fill:url(#radialGradient3794-9)" />
          <path
             id="path3888"
             d="m21 64.688c-2.3744 0-4.3125 1.9381-4.3125 4.3125 0 1.4043 0.70859 2.6217 1.75 3.4062-0.46357-0.68617-0.75-1.5158-0.75-2.4062 0-2.3744 1.9381-4.3125 4.3125-4.3125 0.89041 0 1.7201 0.28643 2.4062 0.75-0.78459-1.0414-2.0019-1.75-3.4062-1.75z"
             style="opacity:.4;fill:#fff" />
          <path
             id="path3890"
             d="m26 69a5 5 0 1 1 -10 0 5 5 0 1 1 10 0z"
             style="fill:url(#linearGradient3796-4)"
             transform="matrix(.42108 -.20641 .10320 .21054 3.6761 56.253)" />
        </g>
        <g
           id="g3896"
           transform="matrix(.49714 0 0 .39749 4.481 46.452)">
          <path
             id="path3898"
             d="m26 69a5 5 0 1 1 -10 0 5 5 0 1 1 10 0z"
             style="filter:url(#filter3740-0);fill:#162d50"
             transform="translate(0,1)" />
          <path
             id="path3900"
             d="m26 69a5 5 0 1 1 -10 0 5 5 0 1 1 10 0z"
             style="fill:url(#radialGradient3794-9)" />
          <path
             id="path3902"
             d="m21 64.688c-2.3744 0-4.3125 1.9381-4.3125 4.3125 0 1.4043 0.70859 2.6217 1.75 3.4062-0.46357-0.68617-0.75-1.5158-0.75-2.4062 0-2.3744 1.9381-4.3125 4.3125-4.3125 0.89041 0 1.7201 0.28643 2.4062 0.75-0.78459-1.0414-2.0019-1.75-3.4062-1.75z"
             style="opacity:.4;fill:#fff" />
          <path
             id="path3904"
             d="m26 69a5 5 0 1 1 -10 0 5 5 0 1 1 10 0z"
             style="fill:url(#linearGradient3796-4)"
             transform="matrix(.42108 -.20641 .10320 .21054 3.6761 56.253)" />
        </g>
        <g
           id="g3910"
           transform="matrix(.49714 0 0 .39749 9.9268 22.656)">
          <path
             id="path3912"
             d="m26 69a5 5 0 1 1 -10 0 5 5 0 1 1 10 0z"
             style="filter:url(#filter3740-0);fill:#162d50"
             transform="translate(0,1)" />
          <path
             id="path3914"
             d="m26 69a5 5 0 1 1 -10 0 5 5 0 1 1 10 0z"
             style="fill:url(#radialGradient3794-9)" />
          <path
             id="path3916"
             d="m21 64.688c-2.3744 0-4.3125 1.9381-4.3125 4.3125 0 1.4043 0.70859 2.6217 1.75 3.4062-0.46357-0.68617-0.75-1.5158-0.75-2.4062 0-2.3744 1.9381-4.3125 4.3125-4.3125 0.89041 0 1.7201 0.28643 2.4062 0.75-0.78459-1.0414-2.0019-1.75-3.4062-1.75z"
             style="opacity:.4;fill:#fff" />
          <path
             id="path3918"
             d="m26 69a5 5 0 1 1 -10 0 5 5 0 1 1 10 0z"
             style="fill:url(#linearGradient3796-4)"
             transform="matrix(.42108 -.20641 .10320 .21054 3.6761 56.253)" />
        </g>
        <g
           id="g4366"
           transform="matrix(1.0182 0 0 .81407 1.6208 11.161)">
          <path
             id="path4368"
             d="m26 69a5 5 0 1 1 -10 0 5 5 0 1 1 10 0z"
             style="filter:url(#filter3740-0);fill:#162d50"
             transform="translate(0,1)" />
          <path
             id="path4370"
             d="m26 69a5 5 0 1 1 -10 0 5 5 0 1 1 10 0z"
             style="fill:url(#radialGradient3794-9)" />
          <path
             id="path4372"
             d="m21 64.688c-2.3744 0-4.3125 1.9381-4.3125 4.3125 0 1.4043 0.70859 2.6217 1.75 3.4062-0.46357-0.68617-0.75-1.5158-0.75-2.4062 0-2.3744 1.9381-4.3125 4.3125-4.3125 0.89041 0 1.7201 0.28643 2.4062 0.75-0.78459-1.0414-2.0019-1.75-3.4062-1.75z"
             style="opacity:.4;fill:#fff" />
          <path
             id="path4374"
             d="m26 69a5 5 0 1 1 -10 0 5 5 0 1 1 10 0z"
             style="fill:url(#linearGradient3796-4)"
             transform="matrix(.42108 -.20641 .10320 .21054 3.6761 56.253)" />
        </g>
      </g>
    </g>
    <rect
       id="rect3003"
       style="opacity:.15;fill:#fff"
       transform="translate(98 3.8281e-7)"
       clip-path="url(#clipPath3009)"
       rx="25"
       ry="25"
       height="92"
       width="92"
       y="958.36"
       x="-96" />
  </g>
</svg>
