<svg height="96" width="96" xmlns="http://www.w3.org/2000/svg" xmlns:xlink="http://www.w3.org/1999/xlink" xmlns:sodipodi="http://sodipodi.sourceforge.net/DTD/sodipodi-0.dtd" xmlns:inkscape="http://www.inkscape.org/namespaces/inkscape">
 <defs>
  <linearGradient x2="0" y1="962.62" y2="1046.1" gradientUnits="userSpaceOnUse" id="linearGradient11642" gradientTransform="matrix(1.15 0 0 1.15 -7.2 -150.65)">
   <stop stop-color="#033b62"/>
   <stop stop-color="#156c95" offset="1"/>
  </linearGradient>
  <clipPath id="clipPath3613-4">
   <rect x="6" rx="6" y="6" height="84" width="84"/>
  </clipPath>
  <filter x="-0.192" y="-0.192" height="1.384" color-interpolation-filters="sRGB" id="filter3794-9" width="1.384">
   <feGaussianBlur stdDeviation="5.28"/>
  </filter>
  <filter x="-0.18" y="-0.18" height="1.36" color-interpolation-filters="sRGB" id="filter3740-0" width="1.36">
   <feGaussianBlur stdDeviation="0.75"/>
  </filter>
  <radialGradient cy="71" r="5" gradientUnits="userSpaceOnUse" id="radialGradient3794-9" cx="21" gradientTransform="matrix(1.2 0 0 1.2 -4.2 -14.2)">
   <stop stop-color="#cae6f9"/>
   <stop stop-color="#71bddf" offset="0.371"/>
   <stop stop-color="#2b6e8b" offset="0.716"/>
   <stop stop-color="#1d3f5a" offset="1"/>
  </radialGradient>
  <linearGradient x2="0" y1="64.03" y2="74.2" gradientUnits="userSpaceOnUse" id="linearGradient3796-4">
   <stop stop-color="#fff"/>
   <stop stop-color="#fff" stop-opacity="0" offset="1"/>
  </linearGradient>
  <clipPath clipPathUnits="userSpaceOnUse" id="clipPath3009">
   <path d="m-2 956.36h-96v33.562l96 25.687v-59.25z"/>
  </clipPath>
  <path d="m26 69a5 5 0 1 1 -10 0 5 5 0 1 1 10 0z" id="SVGCleanerId_0"/>
  <path d="m21 64.688c-2.3744 0-4.3125 1.9381-4.3125 4.3125 0 1.4043 0.70859 2.6217 1.75 3.4062-0.46357-0.68617-0.75-1.5158-0.75-2.4062 0-2.3744 1.9381-4.3125 4.3125-4.3125 0.89041 0 1.7201 0.28643 2.4062 0.75-0.78459-1.0414-2.0019-1.75-3.4062-1.75z" fill="#fff" id="SVGCleanerId_1" opacity="0.4"/>
 </defs>
 <g transform="matrix(1 0 0 1 0 -956.36)">
  <rect x="2" rx="25" y="958.36" fill="url(#linearGradient11642)" height="92" width="92"/>
  <g transform="matrix(1.0952 0 0 1.0952 -4.571 951.79)">
   <rect x="15" stroke-width="0.5" rx="12" y="15" clip-path="url(#clipPath3613-4)" fill="#26d3ff" stroke="#fff" height="66" filter="url(#filter3794-9)" opacity="0.2" width="66" stroke-linecap="round"/>
   <path d="m48.094 36c-7.6084-0.0089-15.242 1.1907-22.562 3.5938l6.749 20.406c10.264-3.369 21.336-3.356 31.594 0.031l6.75-20.375c-7.315-2.42-14.923-3.647-22.531-3.656z" stroke-width="4" fill="none" stroke="#fff" stroke-linejoin="round"/>
   <path d="m50 64a2 2 0 1 1 -4 0 2 2 0 1 1 4 0z" stroke-width="2.667" fill="none" stroke="#fff" stroke-dashoffset="1" stroke-linejoin="round" transform="matrix(1.5 0 0 1.5 -24 -24)"/>
   <path d="m47.868 71.977-6.7231-25.091" stroke-width="4" fill="none" stroke="#fff" stroke-linecap="round"/>
   <path d="m57.562 19.156-0.84375 0.21875-0.34375 0.84375 0.5 0.75 0.3125 0.15625 0.5625 0.09375 0.5625 0.15625 0.03125 0.03125h0.0625l0.5 0.21875 0.90625-0.0625 0.46875-0.75-0.3125-0.84375-0.3125-0.1875-0.59375-0.25-0.091-0.03-0.719-0.25h-0.125l-0.5625-0.09375zm-4.374 0.344-0.344 0.062-0.313 0.126-0.093 0.031-0.688 0.343-0.094 0.032-0.656 0.406l-0.0625 0.0625-0.125 0.0625-0.40625 0.8125 0.40625 0.8125 0.875 0.15625 0.34375-0.15625v-0.03125l0.09375-0.0625 0.5-0.28125 0.59375-0.3125 0.09375-0.03125 0.21875-0.0625 0.625-0.65625-0.156-0.906-0.812-0.406zm9.375 2.75-0.84375 0.34375-0.1875 0.875 0.125 0.3125 0.40625 0.65625h0.03125l0.25 0.5 0.1875 0.4375 0.6875 0.5625 0.875-0.15625 0.34375-0.84375-0.03125-0.34375-0.21875-0.4375v-0.0625l-0.375-0.6875-0.064-0.094-0.438-0.624-0.75-0.438zm-13.563 1.188-0.844 0.281-0.218 0.281l-0.21875 0.4375-0.03125 0.09375-0.28125 0.75-0.03125 0.09375-0.15625 0.6875 0.1875 0.875 0.8125 0.375 0.781-0.437 0.15625-0.3125 0.125-0.59375h0.03125l0.219-0.657 0.031-0.093 0.188-0.344-0.031-0.906-0.719-0.531zm14.719 4.593-0.657 0.594-0.062 0.375v2l0.40625 0.78125 0.875 0.15625 0.657-0.593 0.062-0.344v-2l-0.40625-0.8125-0.875-0.15625zm-16 1.3125-0.65625 0.625l-0.063 0.343v2l0.40625 0.78125 0.875 0.1875 0.65625-0.625 0.063-0.344v-2l-0.40625-0.8125-0.875-0.15625zm0 6-0.65625 0.625l-0.063 0.343v2l0.40625 0.78125 0.875 0.1875 0.65625-0.625 0.063-0.344v-2l-0.40625-0.8125-0.875-0.15625zm0 6-0.65625 0.625l-0.063 0.343v2l0.40625 0.78125 0.875 0.1875 0.65625-0.625 0.063-0.344v-2l-0.40625-0.8125-0.875-0.15625zm0 6-0.65625 0.625l-0.063 0.343v2l0.40625 0.78125 0.875 0.1875 0.65625-0.625 0.063-0.344v-2l-0.40625-0.8125-0.875-0.15625z" fill="#fff" color="#000000"/>
   <path d="m38.438 19.156 0.84375 0.21875 0.34375 0.84375-0.5 0.75-0.3125 0.15625-0.5625 0.09375-0.5625 0.15625-0.03125 0.03125h-0.0625l-0.5 0.21875-0.90625-0.0625-0.46875-0.75 0.3125-0.84375 0.3125-0.1875 0.59375-0.25 0.091-0.03 0.719-0.25h0.125l0.5625-0.09375zm4.375 0.34375 0.34375 0.0625 0.3125 0.125 0.09375 0.03125 0.6875 0.34375 0.09375 0.03125l0.654 0.407 0.0625 0.0625 0.125 0.0625 0.40625 0.8125-0.40625 0.8125-0.875 0.15625-0.34375-0.15625v-0.03125l-0.094-0.063-0.5-0.281-0.594-0.313-0.093-0.031-0.219-0.062-0.625-0.657 0.156-0.906 0.812-0.406zm-9.375 2.75 0.84375 0.34375 0.1875 0.875-0.125 0.3125-0.40625 0.65625h-0.03125l-0.25 0.5-0.1875 0.4375-0.6875 0.5625-0.875-0.15625-0.34375-0.84375 0.03125-0.34375 0.21875-0.4375v-0.0625l0.375-0.6875 0.0625-0.09375 0.4375-0.625 0.75-0.4375zm13.562 1.188 0.844 0.281 0.218 0.281l0.21875 0.4375 0.03125 0.09375 0.28125 0.75 0.03125 0.09375 0.15625 0.6875-0.1875 0.875-0.8125 0.375-0.781-0.437-0.15625-0.3125-0.125-0.59375h-0.03125l-0.219-0.657-0.031-0.093-0.188-0.344 0.031-0.906 0.719-0.531zm-14.719 4.593 0.657 0.594 0.062 0.375v2l-0.40625 0.78125-0.875 0.15625-0.657-0.593-0.062-0.344v-2l0.40625-0.8125 0.875-0.15625zm16 1.3125 0.65625 0.625 0.0625 0.34375v2l-0.40625 0.78125-0.875 0.1875-0.65625-0.625-0.063-0.345v-2l0.40625-0.8125 0.875-0.15625zm0 6 0.65625 0.625 0.0625 0.34375v2l-0.40625 0.78125-0.875 0.1875-0.65625-0.625-0.063-0.345v-2l0.40625-0.8125 0.875-0.15625zm0 6 0.65625 0.625 0.0625 0.34375v2l-0.40625 0.78125-0.875 0.1875-0.65625-0.625-0.063-0.345v-2l0.40625-0.8125 0.875-0.15625zm0 6 0.65625 0.625 0.0625 0.34375v2l-0.40625 0.78125-0.875 0.1875-0.65625-0.625-0.063-0.345v-2l0.40625-0.8125 0.875-0.15625z" fill="#fff" color="#000000"/>
   <g transform="matrix(0.49714 0 0 0.39749 63.5 -0.54)">
    <use xlink:href="#SVGCleanerId_0" fill="#162d50" filter="url(#filter3740-0)" transform="matrix(1 0 0 1 0 1)"/>
    <use xlink:href="#SVGCleanerId_0" fill="url(#radialGradient3794-9)"/>
    <use xlink:href="#SVGCleanerId_1"/>
    <use xlink:href="#SVGCleanerId_0" fill="url(#linearGradient3796-4)" transform="matrix(0.42108 -0.20641 0.1032 0.21054 3.676 56.25)"/>
   </g>
   <g transform="matrix(0.79644 0 0 0.63679 62.29 -24.307)">
    <use xlink:href="#SVGCleanerId_0" fill="#162d50" filter="url(#filter3740-0)" transform="matrix(1 0 0 1 0 1)"/>
    <use xlink:href="#SVGCleanerId_0" fill="url(#radialGradient3794-9)"/>
    <use xlink:href="#SVGCleanerId_1"/>
    <use xlink:href="#SVGCleanerId_0" fill="url(#linearGradient3796-4)" transform="matrix(0.42108 -0.20641 0.1032 0.21054 3.676 56.25)"/>
   </g>
   <g transform="matrix(0.60889 0 0 0.48684 66.6 22.534)">
    <use xlink:href="#SVGCleanerId_0" fill="#162d50" filter="url(#filter3740-0)" transform="matrix(1 0 0 1 0 1)"/>
    <use xlink:href="#SVGCleanerId_0" fill="url(#radialGradient3794-9)"/>
    <use xlink:href="#SVGCleanerId_1"/>
    <use xlink:href="#SVGCleanerId_0" fill="url(#linearGradient3796-4)" transform="matrix(0.42108 -0.20641 0.1032 0.21054 3.676 56.25)"/>
   </g>
   <g transform="matrix(1.0838 0 0 0.86656 46.3 14.13)">
    <use xlink:href="#SVGCleanerId_0" fill="#162d50" filter="url(#filter3740-0)" transform="matrix(1 0 0 1 0 1)"/>
    <use xlink:href="#SVGCleanerId_0" fill="url(#radialGradient3794-9)"/>
    <use xlink:href="#SVGCleanerId_1"/>
    <use xlink:href="#SVGCleanerId_0" fill="url(#linearGradient3796-4)" transform="matrix(0.42108 -0.20641 0.1032 0.21054 3.676 56.25)"/>
   </g>
   <g transform="matrix(0.48783 0 0 0.39004 70.22 43.84)">
    <use xlink:href="#SVGCleanerId_0" fill="#162d50" filter="url(#filter3740-0)" transform="matrix(1 0 0 1 0 1)"/>
    <use xlink:href="#SVGCleanerId_0" fill="url(#radialGradient3794-9)"/>
    <use xlink:href="#SVGCleanerId_1"/>
    <use xlink:href="#SVGCleanerId_0" fill="url(#linearGradient3796-4)" transform="matrix(0.42108 -0.20641 0.1032 0.21054 3.676 56.25)"/>
   </g>
   <g transform="matrix(0.72063 0 0 0.57618 44.874 40.28)">
    <use xlink:href="#SVGCleanerId_0" fill="#162d50" filter="url(#filter3740-0)" transform="matrix(1 0 0 1 0 1)"/>
    <use xlink:href="#SVGCleanerId_0" fill="url(#radialGradient3794-9)"/>
    <use xlink:href="#SVGCleanerId_1"/>
    <use xlink:href="#SVGCleanerId_0" fill="url(#linearGradient3796-4)" transform="matrix(0.42108 -0.20641 0.1032 0.21054 3.676 56.25)"/>
   </g>
   <g transform="matrix(0.61558 0 0 0.49485 12.04 -14.932)">
    <use xlink:href="#SVGCleanerId_0" fill="#162d50" filter="url(#filter3740-0)" transform="matrix(1 0 0 1 0 1)"/>
    <use xlink:href="#SVGCleanerId_0" fill="url(#radialGradient3794-9)"/>
    <use xlink:href="#SVGCleanerId_1"/>
    <use xlink:href="#SVGCleanerId_0" fill="url(#linearGradient3796-4)" transform="matrix(0.42108 -0.20641 0.1032 0.21054 3.676 56.25)"/>
   </g>
   <g transform="matrix(0.87894 0 0 0.70276 -2.714 -22.596)">
    <use xlink:href="#SVGCleanerId_0" fill="#162d50" filter="url(#filter3740-0)" transform="matrix(1 0 0 1 0 1)"/>
    <use xlink:href="#SVGCleanerId_0" fill="url(#radialGradient3794-9)"/>
    <use xlink:href="#SVGCleanerId_1"/>
    <use xlink:href="#SVGCleanerId_0" fill="url(#linearGradient3796-4)" transform="matrix(0.42108 -0.20641 0.1032 0.21054 3.676 56.25)"/>
   </g>
   <g transform="matrix(0.49714 0 0 0.39749 4.481 46.45)">
    <use xlink:href="#SVGCleanerId_0" fill="#162d50" filter="url(#filter3740-0)" transform="matrix(1 0 0 1 0 1)"/>
    <use xlink:href="#SVGCleanerId_0" fill="url(#radialGradient3794-9)"/>
    <use xlink:href="#SVGCleanerId_1"/>
    <use xlink:href="#SVGCleanerId_0" fill="url(#linearGradient3796-4)" transform="matrix(0.42108 -0.20641 0.1032 0.21054 3.676 56.25)"/>
   </g>
   <g transform="matrix(0.49714 0 0 0.39749 9.927 22.656)">
    <use xlink:href="#SVGCleanerId_0" fill="#162d50" filter="url(#filter3740-0)" transform="matrix(1 0 0 1 0 1)"/>
    <use xlink:href="#SVGCleanerId_0" fill="url(#radialGradient3794-9)"/>
    <use xlink:href="#SVGCleanerId_1"/>
    <use xlink:href="#SVGCleanerId_0" fill="url(#linearGradient3796-4)" transform="matrix(0.42108 -0.20641 0.1032 0.21054 3.676 56.25)"/>
   </g>
   <g transform="matrix(1.0182 0 0 0.81407 1.621 11.161)">
    <use xlink:href="#SVGCleanerId_0" fill="#162d50" filter="url(#filter3740-0)" transform="matrix(1 0 0 1 0 1)"/>
    <use xlink:href="#SVGCleanerId_0" fill="url(#radialGradient3794-9)"/>
    <use xlink:href="#SVGCleanerId_1"/>
    <use xlink:href="#SVGCleanerId_0" fill="url(#linearGradient3796-4)" transform="matrix(0.42108 -0.20641 0.1032 0.21054 3.676 56.25)"/>
   </g>
  </g>
  <rect x="-96" rx="25" y="958.36" clip-path="url(#clipPath3009)" fill="#fff" height="92" opacity="0.15" width="92" transform="matrix(1 0 0 1 98 0)"/>
 </g>
</svg>
