<svg height="96" width="96" xmlns="http://www.w3.org/2000/svg" xmlns:sodipodi="http://sodipodi.sourceforge.net/DTD/sodipodi-0.dtd" xmlns:inkscape="http://www.inkscape.org/namespaces/inkscape">
 <defs>
  <clipPath clipPathUnits="userSpaceOnUse" id="clipPath3009">
   <path d="m-2 956.36h-96v33.562l96 25.687v-59.25z"/>
  </clipPath>
  <linearGradient x2="0" y1="90" y2="5.988" gradientUnits="userSpaceOnUse" id="linearGradient3232" gradientTransform="matrix(1.1429 0 0 1.1429 -6.857 949.51)">
   <stop stop-color="#641e49"/>
   <stop stop-color="#982e6f" offset="1"/>
  </linearGradient>
  <clipPath clipPathUnits="userSpaceOnUse" id="clipPath3018">
   <rect x="2" rx="25" y="958.36" height="92" width="92"/>
  </clipPath>
 </defs>
 <g transform="matrix(1 0 0 1 0 -956.36)">
  <rect rx="6.857" y="956.36" clip-path="url(#clipPath3018)" fill="url(#linearGradient3232)" height="96" width="96"/>
  <path d="m24.023 973v33.339c-0.00001 4.037 0.44181 7.7616 1.2797 11.113 0.83785 3.2753 2.1706 6.15 4.0748 8.5873 1.9042 2.4375 4.3868 4.3202 7.5097 5.6913 3.1229 1.2948 6.9806 1.9869 11.551 1.9869 5.2556 0 9.88-0.3585 13.841-1.044 4.0369-0.6855 7.2612-1.3438 9.6986-1.9532v-57.72h-17.545v23.876c3.882 2.2304 6.4994 6.4147 6.4994 11.214 0 4.7926-2.624 8.9801-6.4994 11.214v-1.5491-3.6706-3.7717l-6.4321-3.7044-6.4658 3.7044v3.7717 3.6706 1.5154c-3.8541-2.2395-6.4658-6.4038-6.4658-11.18 0-4.7765 2.6117-8.9409 6.4658-11.18v-23.91h-17.511z" fill="#fff"/>
  <rect x="-96" rx="25" y="958.36" clip-path="url(#clipPath3009)" fill="#fff" height="92" opacity="0.15" width="92" transform="matrix(1 0 0 1 98 0)"/>
 </g>
</svg>
