<?xml version="1.0" encoding="UTF-8" standalone="no"?>
<!-- Created with Inkscape (http://www.inkscape.org/) -->

<svg
   xmlns:dc="http://purl.org/dc/elements/1.1/"
   xmlns:cc="http://creativecommons.org/ns#"
   xmlns:rdf="http://www.w3.org/1999/02/22-rdf-syntax-ns#"
   xmlns:svg="http://www.w3.org/2000/svg"
   xmlns="http://www.w3.org/2000/svg"
   xmlns:xlink="http://www.w3.org/1999/xlink"
   xmlns:sodipodi="http://sodipodi.sourceforge.net/DTD/sodipodi-0.dtd"
   xmlns:inkscape="http://www.inkscape.org/namespaces/inkscape"
   width="96"
   height="96"
   id="svg11037"
   version="1.1"
   inkscape:version="0.48.5 r10040"
   sodipodi:docname="system-users.svg">
  <defs
     id="defs11039">
    <linearGradient
       y2="1046.1001"
       x2="47.999954"
       y1="962.62189"
       x1="47.999954"
       gradientTransform="matrix(1.15,0,0,1.15,-7.1999462,-150.65292)"
       gradientUnits="userSpaceOnUse"
       id="linearGradient11642"
       xlink:href="#linearGradient5801"
       inkscape:collect="always" />
    <linearGradient
       id="linearGradient5801"
       y2="902.35999"
       gradientUnits="userSpaceOnUse"
       x2="48"
       gradientTransform="translate(0,-7.8516e-6)"
       y1="1052.4"
       x1="48">
      <stop
         id="stop3702-33"
         style="stop-color:#da8714"
         offset="0" />
      <stop
         id="stop3704-86"
         style="stop-color:#f4d468"
         offset="1" />
    </linearGradient>
    <clipPath
       id="clipPath3846">
      <path
         inkscape:connector-curvature="0"
         id="path3849"
         style="fill:url(#linearGradient3851)"
         d="m 102,6 c -3.324,0 -6,2.676 -6,6 v 72 c 0,3.324 2.676,6 6,6 h 72 c 3.324,0 6,-2.676 6,-6 V 12 c 0,-3.324 -2.676,-6 -6,-6 h -72 z m 36,21 c 4.2758,0 7.7501,3.225 7.75,7.2188 -0.017,0.50192 -0.053,1.069 -0.0937,1.6562 0.5842,0.43883 0.63569,1.7422 0.0625,3.0938 -0.20688,0.48783 -0.46974,0.90718 -0.75,1.25 -0.0907,0.424 -0.13328,0.75622 -0.25,1.25 -0.31758,0.95347 -1.5822,2.8161 -2.5312,4.2812 -0.0612,0.9744 -0.0577,1.9482 0.0625,2.9375 1.5978,1.3905 4.5578,2.4514 6.9688,3.4688 0.99952,-0.4157 1.9192,-0.84083 2.5625,-1.375 0.1571,-0.91653 0.1406,-1.7255 0.0625,-2.5312 -0.78289,-1.0445 -1.6598,-2.2603 -1.875,-2.9062 -0.0694,-0.31812 -0.0988,-0.53048 -0.15625,-0.8125 -0.008,-0.0088 -0.0232,-0.02225 -0.0312,-0.03125 -0.24058,-0.27087 -0.48169,-0.61965 -0.65625,-1.0312 -0.45269,-1.0674 -0.3825,-2.1042 0.125,-2.375 -0.0357,-0.42697 -0.0545,-0.81298 -0.0625,-1.1562 0,-2.9953 2.6057,-5.4375 5.8125,-5.4375 3.2068,0 5.8125,2.4422 5.8125,5.4375 -0.0127,0.37644 -0.0632,0.7783 -0.0937,1.2188 0.43815,0.32912 0.49239,1.2988 0.0625,2.3125 -0.15516,0.36587 -0.35231,0.68039 -0.5625,0.9375 -0.068,0.318 -0.1,0.56717 -0.1875,0.9375 -0.23818,0.7151 -1.1632,2.1199 -1.875,3.2188 -0.0459,0.7308 -0.0589,1.4768 0.0312,2.2188 2.2258,1.937 8.0222,2.9672 8.0312,4.625 l 0.78,5.06 c 0,1.0173 -1.5144,1.9251 -3.9062,2.5625 l -0.4375,1.4375 a 0.84317,0.84382 0 0 1 -0.5,0.53125 c -0.10882,0.04212 -0.1705,0.13205 -0.46875,0.21875 -1.56,0.455 -3.99,0.78 -6.68,0.78 -2.5124,0 -4.746,-0.27891 -6.3125,-0.6875 l -0.46875,1.6562 a 1.1242,1.1251 0 0 1 -0.65625,0.71875 c -0.1451,0.05616 -0.25859,0.16571 -0.65625,0.28125 -2.09,0.609 -5.31,1.032 -8.9,1.032 -3.5865,0 -6.7802,-0.42262 -8.875,-1.0312 -0.39766,-0.11554 -0.51115,-0.22505 -0.65625,-0.28125 a 1.1242,1.1251 0 0 1 -0.6875,-0.75 l -0.4,-1.657 c -1.58,0.415 -3.85,0.719 -6.38,0.719 -2.69,0 -5.09,-0.325 -6.66,-0.781 -0.29,-0.087 -0.36,-0.177 -0.46,-0.219 a 0.84317,0.84382 0 0 1 -0.53125,-0.5625 l -0.35,-1.376 c -2.4518,-0.63836 -4,-1.5619 -4,-2.5938 l 0.78125,-5.0625 c -0.009,-1.937 5.7466,-2.754 8,-4.625 0.1571,-0.91653 0.1406,-1.7255 0.0625,-2.5312 -0.78289,-1.0445 -1.6598,-2.2603 -1.875,-2.9062 -0.0695,-0.31812 -0.0988,-0.53048 -0.15625,-0.8125 -0.008,-0.0088 -0.0233,-0.02225 -0.0312,-0.03125 -0.24058,-0.27087 -0.48169,-0.61965 -0.65625,-1.0312 -0.45269,-1.0674 -0.3825,-2.1042 0.125,-2.375 -0.0357,-0.42697 -0.0545,-0.81298 -0.0625,-1.1562 0,-2.9953 2.6057,-5.4375 5.8125,-5.4375 3.2068,0 5.8125,2.4422 5.8125,5.4375 -0.0127,0.37644 -0.0631,0.7783 -0.0937,1.2188 0.43815,0.32912 0.49239,1.2988 0.0625,2.3125 -0.15516,0.36587 -0.35231,0.68039 -0.5625,0.9375 -0.068,0.318 -0.1,0.56717 -0.1875,0.9375 -0.23818,0.7151 -1.1632,2.1199 -1.875,3.2188 -0.0459,0.7308 -0.0589,1.4768 0.0312,2.2188 0.56995,0.49599 1.3688,0.93859 2.25,1.3438 2.4497,-1.0395 5.5898,-2.0331 7.2812,-3.4375 0.20939,-1.222 0.19785,-2.2694 0.0937,-3.3438 -1.0439,-1.3927 -2.2444,-3.0137 -2.5312,-3.875 -0.0926,-0.42416 -0.14215,-0.71772 -0.21875,-1.0938 -0.0107,-0.0118 -0.0205,-0.01925 -0.0312,-0.03125 -0.32077,-0.36116 -0.64226,-0.82619 -0.875,-1.375 -0.60358,-1.4232 -0.52042,-2.8265 0.15625,-3.1875 -0.0476,-0.56929 -0.0521,-1.1048 -0.0625,-1.5625 0,-3.999 3.47,-7.224 7.75,-7.224 z" />
    </clipPath>
    <filter
       id="filter3842"
       height="1.5714"
       width="1.4138"
       color-interpolation-filters="sRGB"
       y="-0.28571001"
       x="-0.2069">
      <feGaussianBlur
         id="feGaussianBlur3844"
         stdDeviation="5" />
    </filter>
    <linearGradient
       id="linearGradient6500"
       y2="69"
       gradientUnits="userSpaceOnUse"
       x2="48"
       gradientTransform="translate(0,956.36)"
       y1="27"
       x1="48">
      <stop
         id="stop3855-6"
         offset="0" />
      <stop
         id="stop3857"
         style="stop-color:#313131"
         offset="1" />
    </linearGradient>
    <clipPath
       clipPathUnits="userSpaceOnUse"
       id="clipPath3009">
      <path
         id="path3011"
         d="m -2,956.36218 -96,0 0,33.5624 96,25.68742 0,-59.24982 z"
         style="opacity:0.15;fill:#ffffff;fill-opacity:1;stroke:none"
         inkscape:connector-curvature="0" />
    </clipPath>
  </defs>
  <sodipodi:namedview
     id="base"
     pagecolor="#ffffff"
     bordercolor="#666666"
     borderopacity="1.0"
     inkscape:pageopacity="0.0"
     inkscape:pageshadow="2"
     inkscape:zoom="3.959798"
     inkscape:cx="33.538031"
     inkscape:cy="59.964634"
     inkscape:document-units="px"
     inkscape:current-layer="layer1"
     showgrid="false"
     inkscape:window-width="1280"
     inkscape:window-height="750"
     inkscape:window-x="0"
     inkscape:window-y="22"
     inkscape:window-maximized="1"
     showguides="true"
     inkscape:guide-bbox="true">
    <sodipodi:guide
       orientation="0,1"
       position="-24.748737,0"
       id="guide11064" />
    <sodipodi:guide
       orientation="0,1"
       position="-23.233509,96"
       id="guide11066" />
    <sodipodi:guide
       orientation="1,0"
       position="0,54.800776"
       id="guide11068" />
    <sodipodi:guide
       orientation="1,0"
       position="96,51.012704"
       id="guide11070" />
    <sodipodi:guide
       orientation="0,1"
       position="-18.94036,48"
       id="guide11072" />
    <sodipodi:guide
       orientation="1,0"
       position="48,79.296975"
       id="guide11074" />
    <sodipodi:guide
       orientation="1,0"
       position="2,75.508903"
       id="guide11076" />
    <sodipodi:guide
       orientation="0,1"
       position="-77.27667,2"
       id="guide11078" />
    <sodipodi:guide
       orientation="1,0"
       position="94,77.781746"
       id="guide11080" />
    <sodipodi:guide
       orientation="0,1"
       position="-65.912454,94"
       id="guide11082" />
  </sodipodi:namedview>
  <metadata
     id="metadata11042">
    <rdf:RDF>
      <cc:Work
         rdf:about="">
        <dc:format>image/svg+xml</dc:format>
        <dc:type
           rdf:resource="http://purl.org/dc/dcmitype/StillImage" />
        <dc:title />
      </cc:Work>
    </rdf:RDF>
  </metadata>
  <g
     inkscape:label="Layer 1"
     inkscape:groupmode="layer"
     id="layer1"
     transform="translate(0,-956.36218)">
    <rect
       x="2"
       y="958.36218"
       width="92"
       height="92"
       style="fill:url(#linearGradient11642);fill-opacity:1.0"
       id="rect3867"
       rx="25"
       ry="25" />
    <g
       id="g6493"
       transform="matrix(0.87805,0,0,0.87805,5.7537003,122.51217)">
      <path
         inkscape:connector-curvature="0"
         id="path3837"
         style="fill:#ffeeaa;filter:url(#filter3842)"
         d="m 138,27 c -4.2758,0 -7.75,3.225 -7.75,7.2188 0.0104,0.45769 0.0149,0.99321 0.0625,1.5625 -0.67667,0.36101 -0.75983,1.7643 -0.15625,3.1875 0.23274,0.54881 0.55423,1.0138 0.875,1.375 0.0107,0.012 0.0205,0.01945 0.0312,0.03125 0.0766,0.37603 0.12615,0.66959 0.21875,1.0938 0.28687,0.86126 1.4874,2.4823 2.5312,3.875 0.1041,1.0743 0.11569,2.1217 -0.0937,3.3438 -1.6914,1.4044 -4.8316,2.398 -7.2812,3.4375 -0.88116,-0.40516 -1.68,-0.84776 -2.25,-1.3438 -0.0901,-0.74197 -0.0771,-1.488 -0.0312,-2.2188 0.7118,-1.0988 1.6368,-2.5036 1.875,-3.2188 0.0875,-0.37033 0.11951,-0.6195 0.1875,-0.9375 0.21019,-0.25711 0.40734,-0.57163 0.5625,-0.9375 0.42989,-1.0137 0.37565,-1.9834 -0.0625,-2.3125 0.0306,-0.44045 0.081,-0.84231 0.0937,-1.2188 0,-2.9953 -2.6057,-5.4375 -5.8125,-5.4375 -3.2068,0 -5.8125,2.4422 -5.8125,5.4375 0.008,0.34327 0.0268,0.72928 0.0625,1.1562 -0.5075,0.27075 -0.57769,1.3076 -0.125,2.375 0.17456,0.4116 0.41567,0.76038 0.65625,1.0312 0.008,0.009 0.0232,0.02245 0.0312,0.03125 0.0574,0.28202 0.0868,0.49438 0.15625,0.8125 0.21515,0.64594 1.0921,1.8618 1.875,2.9062 0.0781,0.80575 0.0946,1.6147 -0.0625,2.5312 -2.2534,1.871 -8.0086,2.688 -8,4.625 l -0.78,5.065 c 0,1.0318 1.5482,1.9554 4,2.5938 l 0.34375,1.375 a 0.84317,0.84382 0 0 0 0.54,0.562 c 0.10882,0.0421 0.1705,0.1321 0.46875,0.21875 1.56,0.456 3.96,0.781 6.65,0.781 2.5346,0 4.8044,-0.30422 6.375,-0.71875 l 0.40625,1.6562 a 1.1242,1.1251 0 0 0 0.6875,0.75 c 0.1451,0.0562 0.25859,0.16571 0.65625,0.28125 2.08,0.609 5.27,1.032 8.86,1.032 3.5865,0 6.8115,-0.42262 8.9062,-1.0312 0.39766,-0.11554 0.51115,-0.22509 0.65625,-0.28125 a 1.1242,1.1251 0 0 0 0.65625,-0.71875 l 0.47,-1.657 c 1.56,0.409 3.8,0.688 6.31,0.688 2.6899,0 5.1164,-0.32478 6.6875,-0.78125 0.29825,-0.0867 0.35993,-0.17663 0.46875,-0.21875 a 0.84317,0.84382 0 0 0 0.5,-0.53125 l 0.4375,-1.4375 c 2.39,-0.638 3.9,-1.546 3.9,-2.563 l -0.78125,-5.0625 c -0.009,-1.6578 -5.8054,-2.688 -8.0312,-4.625 -0.0901,-0.74197 -0.0771,-1.488 -0.0312,-2.2188 0.7118,-1.0988 1.6368,-2.5036 1.875,-3.2188 0.0875,-0.37033 0.11951,-0.6195 0.1875,-0.9375 0.21019,-0.25711 0.40734,-0.57163 0.5625,-0.9375 0.42989,-1.0137 0.37565,-1.9834 -0.0625,-2.3125 0.0306,-0.44045 0.081,-0.84231 0.0937,-1.2188 0,-2.9953 -2.6057,-5.4375 -5.8125,-5.4375 -3.2068,0 -5.8125,2.4422 -5.8125,5.4375 0.008,0.34327 0.0268,0.72928 0.0625,1.1562 -0.5075,0.27075 -0.57769,1.3076 -0.125,2.375 0.17456,0.4116 0.41567,0.76038 0.65625,1.0312 0.008,0.009 0.0232,0.02245 0.0312,0.03125 0.0574,0.28202 0.0868,0.49438 0.15625,0.8125 0.21515,0.64594 1.0921,1.8618 1.875,2.9062 0.0781,0.80575 0.0946,1.6147 -0.0625,2.5312 -0.64335,0.53417 -1.563,0.9593 -2.5625,1.375 -2.4109,-1.0173 -5.3709,-2.0783 -6.9688,-3.4688 -0.12016,-0.9893 -0.12368,-1.9631 -0.0625,-2.9375 0.94906,-1.4651 2.2137,-3.3278 2.5312,-4.2812 0.11672,-0.49378 0.15935,-0.826 0.25,-1.25 0.28026,-0.34282 0.54312,-0.76217 0.75,-1.25 0.57319,-1.3516 0.5217,-2.6549 -0.0625,-3.0938 0.0408,-0.58727 0.0767,-1.1543 0.0937,-1.6562 0,-3.994 -3.47,-7.219 -7.75,-7.219 z"
         clip-path="url(#clipPath3846)"
         transform="translate(-90,956.36)" />
      <path
         inkscape:connector-curvature="0"
         id="path3813"
         d="m 48,983.36 c -4.2758,0 -7.75,3.225 -7.75,7.2188 0.01037,0.45769 0.01495,0.99321 0.0625,1.5625 -0.67667,0.36101 -0.75983,1.7643 -0.15625,3.1875 0.23274,0.54881 0.55422,1.0138 0.875,1.375 0.01069,0.012 0.0205,0.0195 0.03125,0.0312 0.07657,0.37603 0.12615,0.66959 0.21875,1.0938 0.28686,0.86126 1.4874,2.4823 2.5312,3.875 0.1041,1.0743 0.11569,2.1217 -0.09375,3.3437 -1.6914,1.4044 -4.8316,2.398 -7.2812,3.4375 -0.88116,-0.4051 -1.68,-0.8477 -2.25,-1.3437 -0.09012,-0.742 -0.07714,-1.488 -0.03125,-2.2188 0.7118,-1.0988 1.6368,-2.5036 1.875,-3.2187 0.08754,-0.3704 0.11951,-0.6195 0.1875,-0.9375 0.21019,-0.2571 0.40734,-0.5717 0.5625,-0.93752 0.42989,-1.0137 0.37565,-1.9834 -0.0625,-2.3125 0.03061,-0.44045 0.08095,-0.84231 0.09375,-1.2188 0,-2.9953 -2.6057,-5.4375 -5.8125,-5.4375 -3.2068,0 -5.8125,2.4422 -5.8125,5.4375 0.0078,0.34327 0.02684,0.72928 0.0625,1.1562 -0.5075,0.27075 -0.57769,1.3076 -0.125,2.375 0.17456,0.41162 0.41567,0.76042 0.65625,1.03122 0.008,0.01 0.02319,0.022 0.03125,0.031 0.05743,0.282 0.08679,0.4944 0.15625,0.8125 0.21515,0.646 1.0921,1.8618 1.875,2.9063 0.07807,0.8057 0.09459,1.6147 -0.0625,2.5312 -2.2534,1.8711 -8.0086,2.6881 -8,4.625 l -0.78,5 c 0,1.0318 1.5483,1.9554 4,2.5938 l 0.34375,1.375 a 0.84317,0.84382 0 0 0 0.53125,0.5625 c 0.10882,0.042 0.1705,0.1321 0.46875,0.2187 1.5711,0.4565 3.9664,0.7813 6.6562,0.7813 2.5346,0 4.8044,-0.3042 6.375,-0.7188 l 0.40625,1.6563 a 1.1242,1.1251 0 0 0 0.6875,0.75 c 0.1451,0.056 0.25859,0.1657 0.65625,0.2812 2.0948,0.6087 5.2885,1.0313 8.875,1.0313 3.5865,0 6.8115,-0.4226 8.9062,-1.0313 0.39766,-0.1155 0.51115,-0.2251 0.65625,-0.2812 a 1.1242,1.1251 0 0 0 0.65625,-0.7188 l 0.46875,-1.6562 c 1.5665,0.4086 3.8001,0.6875 6.3125,0.6875 2.6899,0 5.1164,-0.3248 6.6875,-0.7813 0.29825,-0.087 0.35993,-0.1766 0.46875,-0.2187 a 0.84317,0.84382 0 0 0 0.5,-0.5313 l 0.4375,-1.4375 c 2.394,-0.8 3.908,-1.8 3.908,-2.8 l -0.78125,-5.0625 c -0.0092,-1.6577 -5.8054,-2.688 -8.0312,-4.625 -0.09012,-0.7419 -0.07714,-1.4879 -0.03125,-2.2187 0.7118,-1.0989 1.6368,-2.5037 1.875,-3.2188 0.08754,-0.3703 0.11951,-0.6195 0.1875,-0.9375 0.21019,-0.2571 0.40734,-0.57162 0.5625,-0.93749 0.42989,-1.0137 0.37565,-1.9834 -0.0625,-2.3125 0.03061,-0.44045 0.08095,-0.84231 0.09375,-1.2188 0,-2.9953 -2.6057,-5.4375 -5.8125,-5.4375 -3.2068,0 -5.8125,2.4422 -5.8125,5.4375 0.0078,0.34327 0.02684,0.72928 0.0625,1.1562 -0.5075,0.27075 -0.57769,1.3076 -0.125,2.375 0.17456,0.41157 0.41567,0.76039 0.65625,1.03129 0.008,0.01 0.02319,0.022 0.03125,0.031 0.05743,0.282 0.0868,0.4944 0.15625,0.8125 0.21515,0.6459 1.0921,1.8617 1.875,2.9062 0.07807,0.8058 0.09459,1.6148 -0.0625,2.5313 -0.64335,0.5342 -1.563,0.9593 -2.5625,1.375 -2.4109,-1.0173 -5.3709,-2.0783 -6.9688,-3.4688 -0.12016,-0.9893 -0.12368,-1.9631 -0.0625,-2.9375 0.94906,-1.4651 2.2137,-3.32779 2.5312,-4.28119 0.11672,-0.49378 0.15935,-0.826 0.25,-1.25 0.28026,-0.34282 0.54312,-0.76217 0.75,-1.25 0.57319,-1.3516 0.5217,-2.6549 -0.0625,-3.0938 0.04082,-0.58727 0.07669,-1.1543 0.09375,-1.6562 0,-3.9938 -3.4742,-7.2188 -7.75,-7.2188 z"
         style="fill:url(#linearGradient6500)" />
      <path
         inkscape:connector-curvature="0"
         id="path3868"
         d="m 48,983.36 c -4.2758,0 -7.75,3.225 -7.75,7.2188 0.01037,0.45769 0.01495,0.99321 0.0625,1.5625 -0.67667,0.36101 -0.75983,1.7643 -0.15625,3.1875 0.23274,0.54881 0.55422,1.0138 0.875,1.375 0.01069,0.012 0.0205,0.0195 0.03125,0.0312 0.07657,0.37603 0.12615,0.66959 0.21875,1.0938 0.28686,0.86126 1.4874,2.4823 2.5312,3.875 0.1041,1.0743 0.11569,2.1217 -0.09375,3.3437 -1.6914,1.4044 -4.8316,2.398 -7.2812,3.4375 -0.88116,-0.4051 -1.68,-0.8477 -2.25,-1.3437 -0.09012,-0.742 -0.07714,-1.488 -0.03125,-2.2188 0.7118,-1.0988 1.6368,-2.5036 1.875,-3.2187 0.08754,-0.3704 0.11951,-0.6195 0.1875,-0.9375 0.21019,-0.2571 0.40734,-0.5717 0.5625,-0.93752 0.42989,-1.0137 0.37565,-1.9834 -0.0625,-2.3125 0.03061,-0.44045 0.08095,-0.84231 0.09375,-1.2188 0,-2.9953 -2.6057,-5.4375 -5.8125,-5.4375 -3.2068,0 -5.8125,2.4422 -5.8125,5.4375 0.0078,0.34327 0.02684,0.72928 0.0625,1.1562 -0.5075,0.27075 -0.57769,1.3076 -0.125,2.375 0.17456,0.41162 0.41567,0.76042 0.65625,1.03122 0.008,0.01 0.02319,0.022 0.03125,0.031 0.05743,0.282 0.08679,0.4944 0.15625,0.8125 0.21515,0.646 1.0921,1.8618 1.875,2.9063 0.07807,0.8057 0.09459,1.6147 -0.0625,2.5312 -2.2534,1.8711 -8.0086,2.6881 -8,4.625 l -0.78,5 c 0,1.0318 1.5483,1.9554 4,2.5938 l 0.34375,1.375 a 0.84317,0.84382 0 0 0 0.53125,0.5625 c 0.10882,0.042 0.1705,0.1321 0.46875,0.2187 1.5711,0.4565 3.9664,0.7813 6.6562,0.7813 2.5346,0 4.8044,-0.3042 6.375,-0.7188 l 0.40625,1.6563 a 1.1242,1.1251 0 0 0 0.6875,0.75 c 0.1451,0.056 0.25859,0.1657 0.65625,0.2812 2.0948,0.6087 5.2885,1.0313 8.875,1.0313 3.5865,0 6.8115,-0.4226 8.9062,-1.0313 0.39766,-0.1155 0.51115,-0.2251 0.65625,-0.2812 a 1.1242,1.1251 0 0 0 0.65625,-0.7188 l 0.46875,-1.6562 c 1.5665,0.4086 3.8001,0.6875 6.3125,0.6875 2.6899,0 5.1164,-0.3248 6.6875,-0.7813 0.29825,-0.087 0.35993,-0.1766 0.46875,-0.2187 a 0.84317,0.84382 0 0 0 0.5,-0.5313 l 0.4375,-1.4375 c 2.394,-0.8 3.908,-1.8 3.908,-2.8 l -0.78125,-5.0625 c -0.0092,-1.6577 -5.8054,-2.688 -8.0312,-4.625 -0.09012,-0.7419 -0.07714,-1.4879 -0.03125,-2.2187 0.7118,-1.0989 1.6368,-2.5037 1.875,-3.2188 0.08754,-0.3703 0.11951,-0.6195 0.1875,-0.9375 0.21019,-0.2571 0.40734,-0.57162 0.5625,-0.93749 0.42989,-1.0137 0.37565,-1.9834 -0.0625,-2.3125 0.03061,-0.44045 0.08095,-0.84231 0.09375,-1.2188 0,-2.9953 -2.6057,-5.4375 -5.8125,-5.4375 -3.2068,0 -5.8125,2.4422 -5.8125,5.4375 0.0078,0.34327 0.02684,0.72928 0.0625,1.1562 -0.5075,0.27075 -0.57769,1.3076 -0.125,2.375 0.17456,0.41157 0.41567,0.76039 0.65625,1.03129 0.008,0.01 0.02319,0.022 0.03125,0.031 0.05743,0.282 0.0868,0.4944 0.15625,0.8125 0.21515,0.6459 1.0921,1.8617 1.875,2.9062 0.07807,0.8058 0.09459,1.6148 -0.0625,2.5313 -0.64335,0.5342 -1.563,0.9593 -2.5625,1.375 -2.4109,-1.0173 -5.3709,-2.0783 -6.9688,-3.4688 -0.12016,-0.9893 -0.12368,-1.9631 -0.0625,-2.9375 0.94906,-1.4651 2.2137,-3.32779 2.5312,-4.28119 0.11672,-0.49378 0.15935,-0.826 0.25,-1.25 0.28026,-0.34282 0.54312,-0.76217 0.75,-1.25 0.57319,-1.3516 0.5217,-2.6549 -0.0625,-3.0938 0.04082,-0.58727 0.07669,-1.1543 0.09375,-1.6562 0,-3.9938 -3.4742,-7.2188 -7.75,-7.2188 z m 0,2.0312 c 3.2256,0 5.6824,2.3421 5.7188,5.125 2.73e-4,0.0209 0,0.0416 0,0.0625 -0.01633,0.44567 -0.0551,0.94396 -0.09375,1.5 a 2.0405,2.0405 0 0 0 0.46875,1.4375 c 0.0011,0.19191 -0.06921,0.60495 -0.25,1.0312 -0.12844,0.30286 -0.30886,0.55442 -0.46875,0.75 a 2.0405,2.0405 0 0 0 -0.40625,0.84375 c -0.0976,0.45651 -0.14308,0.74959 -0.21875,1.0938 -0.05171,0.12849 -0.35138,0.77297 -0.78125,1.4688 -0.44792,0.725 -1.0152,1.56395 -1.5,2.31255 a 2.0405,2.0405 0 0 0 -0.3125,0.9687 c -0.06681,1.0642 -0.07641,2.1689 0.0625,3.3125 a 2.0405,2.0405 0 0 0 0.6875,1.2813 c 2.1514,1.8722 5.2033,2.8301 7.5312,3.8125 a 2.0405,2.0405 0 0 0 1.5625,0 c 1.0452,-0.4348 2.1245,-0.8827 3.0938,-1.6875 a 2.0405,2.0405 0 0 0 0.6875,-1.2188 c 0.19488,-1.1371 0.1818,-2.1538 0.09375,-3.0625 a 2.0405,2.0405 0 0 0 -0.40625,-1.0312 c -0.38286,-0.5109 -0.78799,-1.0733 -1.0938,-1.5313 -0.28303,-0.4239 -0.43549,-0.7695 -0.4375,-0.75 -1.61e-4,0 -0.03376,-0.07 -0.03125,-0.062 -0.03149,-0.1667 -0.04349,-0.3157 -0.09375,-0.5625 a 2.0405,2.0405 0 0 0 -0.5,-0.96872 c -0.11257,-0.12674 -0.23986,-0.29746 -0.3125,-0.46875 -0.08164,-0.19251 -0.07985,-0.30006 -0.09375,-0.40625 a 2.0405,2.0405 0 0 0 0.375,-1.3438 c -0.03121,-0.37372 -0.05524,-0.70406 -0.0625,-1 -2.26e-4,-0.009 2.08e-4,-0.0221 0,-0.0312 0.01849,-1.7988 1.623,-3.375 3.7812,-3.375 2.1457,0 3.7446,1.5582 3.7812,3.3438 -4.58e-4,0.0135 6.81e-4,0.0481 0,0.0625 -0.01167,0.24613 -0.06032,0.58143 -0.09375,1.0625 a 2.0405,2.0405 0 0 0 0.3125,1.25 c -0.01,0.094 -0.0071,0.23318 -0.09375,0.4375 -0.07672,0.18091 -0.19145,0.32766 -0.28125,0.4375 a 2.0405,2.0405 0 0 0 -0.40625,0.84372 c -0.07421,0.3471 -0.10742,0.5526 -0.15625,0.7812 -0.02307,0.045 -0.22692,0.4975 -0.53125,1 -0.3231,0.5336 -0.73429,1.1639 -1.0938,1.7188 a 2.0405,2.0405 0 0 0 -0.3125,0.9687 c -0.04982,0.7935 -0.08143,1.6661 0.03125,2.5938 a 2.0405,2.0405 0 0 0 0.6875,1.2812 c 1.6394,1.4267 3.7268,2.0944 5.4062,2.7813 0.83975,0.3434 1.5726,0.6795 1.9375,0.9062 0.05053,0.031 0.02809,0.01 0.0625,0.031 l 0.625,4.125 c -0.02345,0.016 4.61e-4,0.011 -0.03125,0.031 -0.3911,0.2504 -1.2147,0.5908 -2.2812,0.875 a 2.0405,2.0405 0 0 0 -1.4062,1.375 l -0.25,0.8437 c -1.3041,0.3551 -3.4711,0.6875 -5.9062,0.6875 -2.3614,0 -4.4849,-0.2787 -5.8125,-0.625 a 2.0405,2.0405 0 0 0 -2.4688,1.4063 l -0.34375,1.25 h -0.03125 c -1.799,0.5227 -4.9175,0.9687 -8.3438,0.9687 -3.4262,0 -6.5083,-0.4445 -8.3125,-0.9687 -0.02239,-0.01 -0.05428,-0.028 -0.0625,-0.031 l -0.28125,-1.1875 a 2.0405,2.0405 0 0 0 -2.5,-1.4687 c -1.3397,0.3536 -3.4724,0.6562 -5.8438,0.6562 -2.4219,0 -4.5334,-0.3332 -5.8438,-0.6875 l -0.1875,-0.7187 a 2.0405,2.0405 0 0 0 -1.47,-1.5 c -1.095,-0.2851 -1.9066,-0.6489 -2.3125,-0.9062 -0.0521,-0.033 -0.03076,-0.01 -0.0625,-0.031 l 0.65625,-4.2812 c 0.01634,-0.01 -0.01944,0.023 0.0625,-0.031 0.32777,-0.2161 1.0222,-0.5499 1.8438,-0.875 1.643,-0.6499 3.735,-1.2373 5.4062,-2.625 a 2.0405,2.0405 0 0 0 0.6875,-1.2187 c 0.19488,-1.137 0.1818,-2.1537 0.09375,-3.0625 a 2.0405,2.0405 0 0 0 -0.40625,-1.0313 c -0.38286,-0.5108 -0.78799,-1.0733 -1.0938,-1.5312 -0.28303,-0.424 -0.43549,-0.7696 -0.4375,-0.75 -1.61e-4,0 -0.03376,-0.07 -0.03125,-0.062 -0.03148,-0.1667 -0.04349,-0.3156 -0.09375,-0.5625 a 2.0405,2.0405 0 0 0 -0.5,-0.96867 c -0.11257,-0.12674 -0.23986,-0.29746 -0.3125,-0.46875 -0.08164,-0.19251 -0.07985,-0.30006 -0.09375,-0.40625 a 2.0405,2.0405 0 0 0 0.375,-1.3438 c -0.03121,-0.37372 -0.05524,-0.70406 -0.0625,-1 -2.26e-4,-0.009 2.08e-4,-0.0221 0,-0.0312 0.01849,-1.7988 1.623,-3.375 3.7812,-3.375 2.1457,0 3.7446,1.5582 3.7812,3.3438 -4.58e-4,0.0135 6.81e-4,0.0481 0,0.0625 -0.01167,0.24613 -0.06032,0.58143 -0.09375,1.0625 a 2.0405,2.0405 0 0 0 0.3125,1.25 c -0.01,0.094 -0.0071,0.23318 -0.09375,0.4375 -0.07672,0.18091 -0.19145,0.32766 -0.28125,0.4375 a 2.0405,2.0405 0 0 0 -0.40625,0.84367 c -0.07421,0.3471 -0.10742,0.5527 -0.15625,0.7813 -0.02307,0.045 -0.22692,0.4975 -0.53125,1 -0.3231,0.5335 -0.73429,1.1639 -1.0938,1.7187 a 2.0405,2.0405 0 0 0 -0.3125,0.9688 c -0.04982,0.7934 -0.08143,1.6661 0.03125,2.5937 a 2.0405,2.0405 0 0 0 0.6875,1.2813 c 0.82875,0.7212 1.7817,1.211 2.75,1.6562 a 2.0405,2.0405 0 0 0 1.6562,0.031 c 2.3029,-0.9772 5.4989,-1.8549 7.7812,-3.75 a 2.0405,2.0405 0 0 0 0.6875,-1.2187 c 0.24435,-1.4257 0.23997,-2.6885 0.125,-3.875 a 2.0405,2.0405 0 0 0 -0.40625,-1.0313 c -0.5192,-0.69262 -1.0712,-1.43095 -1.5,-2.06245 -0.40803,-0.60094 -0.66364,-1.1446 -0.6875,-1.1875 -0.0012,-0.002 -0.03149,-0.0632 -0.03125,-0.0625 -0.05606,-0.27429 -0.0901,-0.51891 -0.15625,-0.84375 a 2.0405,2.0405 0 0 0 -0.5,-0.96875 c -0.19278,-0.21705 -0.40042,-0.50401 -0.53125,-0.8125 -0.17748,-0.41849 -0.21609,-0.79453 -0.21875,-1 a 2.0405,2.0405 0 0 0 0.53125,-1.5625 c -0.03876,-0.46406 -0.05207,-0.93637 -0.0625,-1.4062 0,-0.0105 -6.8e-5,-0.0208 0,-0.0312 0.01825,-2.7967 2.4811,-5.1562 5.7188,-5.1562 z"
         style="opacity:0.2" />
      <path
         inkscape:connector-curvature="0"
         id="path3861"
         d="m 48,983.36 c -4.2758,0 -7.75,3.225 -7.75,7.2188 0.01037,0.45769 0.01495,0.99321 0.0625,1.5625 -0.67667,0.36101 -0.75983,1.7643 -0.15625,3.1875 0.23274,0.54881 0.55422,1.0138 0.875,1.375 0.01069,0.012 0.0205,0.0195 0.03125,0.0312 0.07657,0.37603 0.12615,0.66959 0.21875,1.0938 0.28686,0.86126 1.4874,2.4823 2.5312,3.875 0.1041,1.0743 0.11569,2.1217 -0.09375,3.3437 -1.6914,1.4044 -4.8316,2.398 -7.2812,3.4375 -0.88116,-0.4051 -1.68,-0.8477 -2.25,-1.3437 -0.09012,-0.742 -0.07714,-1.488 -0.03125,-2.2188 0.7118,-1.0988 1.6368,-2.5036 1.875,-3.2187 0.08754,-0.3704 0.11951,-0.6195 0.1875,-0.9375 0.21019,-0.2571 0.40734,-0.5717 0.5625,-0.93752 0.42989,-1.0137 0.37565,-1.9834 -0.0625,-2.3125 0.03061,-0.44045 0.08095,-0.84231 0.09375,-1.2188 0,-2.9953 -2.6057,-5.4375 -5.8125,-5.4375 -3.2068,0 -5.8125,2.4422 -5.8125,5.4375 0.0078,0.34327 0.02684,0.72928 0.0625,1.1562 -0.5075,0.27075 -0.57769,1.3076 -0.125,2.375 0.17456,0.41162 0.41567,0.76042 0.65625,1.03122 0.008,0.01 0.02319,0.022 0.03125,0.031 0.05743,0.282 0.08679,0.4944 0.15625,0.8125 0.21515,0.646 1.0921,1.8618 1.875,2.9063 0.07807,0.8057 0.09459,1.6147 -0.0625,2.5312 -2.2534,1.8711 -8.0086,2.6881 -8,4.625 l -0.78,5 c 0,1.0318 1.5483,1.9554 4,2.5938 l 0.34375,1.375 a 0.84317,0.84382 0 0 0 0.53125,0.5625 c 0.10882,0.042 0.1705,0.1321 0.46875,0.2187 1.5711,0.4565 3.9664,0.7813 6.6562,0.7813 2.5346,0 4.8044,-0.3042 6.375,-0.7188 l 0.40625,1.6563 a 1.1242,1.1251 0 0 0 0.6875,0.75 c 0.1451,0.056 0.25859,0.1657 0.65625,0.2812 2.0948,0.6087 5.2885,1.0313 8.875,1.0313 3.5865,0 6.8115,-0.4226 8.9062,-1.0313 0.39766,-0.1155 0.51115,-0.2251 0.65625,-0.2812 a 1.1242,1.1251 0 0 0 0.65625,-0.7188 l 0.46875,-1.6562 c 1.5665,0.4086 3.8001,0.6875 6.3125,0.6875 2.6899,0 5.1164,-0.3248 6.6875,-0.7813 0.29825,-0.087 0.35993,-0.1766 0.46875,-0.2187 a 0.84317,0.84382 0 0 0 0.5,-0.5313 l 0.4375,-1.4375 c 2.394,-0.8 3.908,-1.8 3.908,-2.8 l -0.78125,-5.0625 c -0.0092,-1.6577 -5.8054,-2.688 -8.0312,-4.625 -0.09012,-0.7419 -0.07714,-1.4879 -0.03125,-2.2187 0.7118,-1.0989 1.6368,-2.5037 1.875,-3.2188 0.08754,-0.3703 0.11951,-0.6195 0.1875,-0.9375 0.21019,-0.2571 0.40734,-0.57162 0.5625,-0.93749 0.42989,-1.0137 0.37565,-1.9834 -0.0625,-2.3125 0.03061,-0.44045 0.08095,-0.84231 0.09375,-1.2188 0,-2.9953 -2.6057,-5.4375 -5.8125,-5.4375 -3.2068,0 -5.8125,2.4422 -5.8125,5.4375 0.0078,0.34327 0.02684,0.72928 0.0625,1.1562 -0.5075,0.27075 -0.57769,1.3076 -0.125,2.375 0.17456,0.41157 0.41567,0.76039 0.65625,1.03129 0.008,0.01 0.02319,0.022 0.03125,0.031 0.05743,0.282 0.0868,0.4944 0.15625,0.8125 0.21515,0.6459 1.0921,1.8617 1.875,2.9062 0.07807,0.8058 0.09459,1.6148 -0.0625,2.5313 -0.64335,0.5342 -1.563,0.9593 -2.5625,1.375 -2.4109,-1.0173 -5.3709,-2.0783 -6.9688,-3.4688 -0.12016,-0.9893 -0.12368,-1.9631 -0.0625,-2.9375 0.94906,-1.4651 2.2137,-3.32779 2.5312,-4.28119 0.11672,-0.49378 0.15935,-0.826 0.25,-1.25 0.28026,-0.34282 0.54312,-0.76217 0.75,-1.25 0.57319,-1.3516 0.5217,-2.6549 -0.0625,-3.0938 0.04082,-0.58727 0.07669,-1.1543 0.09375,-1.6562 0,-3.9938 -3.4742,-7.2188 -7.75,-7.2188 z m 0,1.1562 c 3.6794,0 6.5755,2.726 6.5938,6.0312 5.8e-5,0.0105 0,0.0207 0,0.0312 -0.01659,0.47006 -0.05404,0.99126 -0.09375,1.5625 a 1.1629,1.1629 0 0 0 0.40625,1 c -0.02131,-0.007 0.05586,0.0875 0.0625,0.34375 0.0089,0.34164 -0.08325,0.83443 -0.3125,1.375 -0.16218,0.38242 -0.38209,0.70984 -0.59375,0.96875 a 1.1629,1.1629 0 0 0 -0.21875,0.5 c -0.09306,0.43528 -0.13132,0.73531 -0.21875,1.125 -0.0075,0.0334 -0.02301,0.0589 -0.03125,0.0937 -0.10674,0.28254 -0.46973,0.91845 -0.90625,1.625 -0.45934,0.74349 -0.98834,1.5708 -1.4688,2.3125 a 1.1629,1.1629 0 0 0 -0.1875,0.5625 c -0.06439,1.0255 -0.06834,2.0477 0.0625,3.125 a 1.1629,1.1629 0 0 0 0.40625,0.75 c 1.9133,1.665 4.9176,2.6589 7.2812,3.6562 a 1.1629,1.1629 0 0 0 0.875,0 c 1.0256,-0.4265 2.0459,-0.8429 2.875,-1.5312 a 1.1629,1.1629 0 0 0 0.40625,-0.7188 c 0.17863,-1.0422 0.14626,-1.9793 0.0625,-2.8437 a 1.1629,1.1629 0 0 0 -0.21875,-0.5625 c -0.38655,-0.5157 -0.80279,-1.0799 -1.125,-1.5625 -0.31487,-0.4717 -0.55798,-0.904 -0.59375,-1 -8.33e-4,0 6.15e-4,-0.029 0,-0.031 -0.04355,-0.217 -0.07072,-0.3897 -0.125,-0.6563 A 1.1629,1.1629 0 0 0 60.6562,1000.11 c -0.01165,-0.013 0.0088,-0.021 0,-0.031 -0.16763,-0.1887 -0.35227,-0.44407 -0.46875,-0.71872 -0.16508,-0.38925 -0.19889,-0.73842 -0.1875,-0.9375 0.0019,-0.0323 0.0072,-0.0546 0,-0.0625 a 1.1629,1.1629 0 0 0 0.40625,-1 c -0.03272,-0.39177 -0.05485,-0.74917 -0.0625,-1.0625 0,-0.0104 -8.2e-5,-0.0208 0,-0.0312 0.01814,-2.3072 2.0515,-4.25 4.6562,-4.25 2.6047,0 4.6381,1.9427 4.6562,4.25 8.2e-5,0.0104 0,0.0208 0,0.0312 -0.0119,0.29797 -0.06131,0.65827 -0.09375,1.125 a 1.1629,1.1629 0 0 0 0.34375,0.90625 c -0.007,-0.006 -0.0036,0.025 0,0.125 0.0071,0.19991 -0.03145,0.53829 -0.1875,0.90625 -0.11046,0.26047 -0.26467,0.48307 -0.40625,0.65622 a 1.1629,1.1629 0 0 0 -0.21875,0.5 c -0.07006,0.3277 -0.09689,0.5427 -0.15625,0.8125 -0.007,0.032 -0.02327,0.06 -0.03125,0.094 -0.0728,0.1839 -0.31345,0.6418 -0.625,1.1563 -0.33467,0.5526 -0.73582,1.1662 -1.0938,1.7187 a 1.1629,1.1629 0 0 0 -0.185,0.4 c -0.04813,0.7665 -0.07173,1.5584 0.03125,2.4062 a 1.1629,1.1629 0 0 0 0.40625,0.75 c 1.4129,1.2296 3.4557,1.9295 5.1562,2.625 0.85027,0.3478 1.6053,0.6847 2.0625,0.9688 0.21007,0.1305 0.34993,0.2221 0.40625,0.2812 a 1.1629,1.1629 0 0 0 0,0.062 l 0.75,4.9063 c -0.0026,-0.034 -0.01856,0.098 -0.5,0.4062 -0.51432,0.3293 -1.4091,0.701 -2.5312,1 a 1.1629,1.1629 0 0 0 -0.8125,0.7813 l -0.40625,1.3125 c -0.01553,0.018 -0.12122,0.074 -0.1875,0.094 -1.405,0.4082 -3.7787,0.75 -6.375,0.75 -2.4263,0 -4.6009,-0.2831 -6.0312,-0.6562 a 1.1629,1.1629 0 0 0 -1.4062,0.8125 l -0.4375,1.5937 v 0.031 h -0.03125 c -0.27844,0.1177 -0.26463,0.1503 -0.5,0.2187 -1.9262,0.5597 -5.0986,1 -8.5938,1 -3.4952,0 -6.6333,-0.4394 -8.5625,-1 -0.24775,-0.072 -0.1973,-0.083 -0.53125,-0.2187 -0.0074,0 0.0078,-0.028 0,-0.031 l -0.406,-1.6 a 1.1629,1.1629 0 0 0 -1.4062,-0.8438 c -1.439,0.3798 -3.6522,0.6875 -6.0938,0.6875 -2.5963,0 -4.9348,-0.3406 -6.3438,-0.75 -0.07941,-0.023 -0.17191,-0.092 -0.21875,-0.125 l -0.3125,-1.1875 a 1.1629,1.1629 0 0 0 -0.84375,-0.8437 c -1.1513,-0.2998 -2.0329,-0.6643 -2.5625,-1 -0.49775,-0.3156 -0.5283,-0.4705 -0.53125,-0.4375 l 0.75,-4.9063 a 1.1629,1.1629 0 0 0 0,-0.1562 c 0.01272,-0.01 0.08114,-0.1294 0.40625,-0.3438 0.43348,-0.2858 1.1933,-0.606 2.0312,-0.9375 1.6759,-0.663 3.7192,-1.2756 5.1562,-2.4687 a 1.1629,1.1629 0 0 0 0.40625,-0.7188 c 0.17863,-1.0422 0.14626,-1.9793 0.0625,-2.8437 a 1.1629,1.1629 0 0 0 -0.21875,-0.5625 c -0.38655,-0.5157 -0.80279,-1.0799 -1.125,-1.5625 -0.31487,-0.4717 -0.55798,-0.904 -0.59375,-1 -8.33e-4,0 6.15e-4,-0.029 0,-0.031 -0.04354,-0.2169 -0.07072,-0.3897 -0.125,-0.6563 a 1.1629,1.1629 0 0 0 -0.28125,-0.5625 c -0.01165,-0.013 0.0088,-0.021 0,-0.031 -0.16763,-0.1887 -0.35227,-0.44407 -0.46875,-0.71872 -0.16508,-0.38925 -0.19889,-0.73842 -0.1875,-0.9375 0.0019,-0.0323 0.0072,-0.0546 0,-0.0625 a 1.1629,1.1629 0 0 0 0.40625,-1 c -0.03272,-0.39177 -0.05485,-0.74917 -0.0625,-1.0625 0,-0.0104 -8.2e-5,-0.0208 0,-0.0312 0.01814,-2.3072 2.0515,-4.25 4.6562,-4.25 2.6047,0 4.6381,1.9427 4.6562,4.25 8.2e-5,0.0104 0,0.0208 0,0.0312 -0.0119,0.29797 -0.06131,0.65827 -0.09375,1.125 a 1.1629,1.1629 0 0 0 0.34375,0.90625 c -0.007,-0.006 -0.0036,0.025 0,0.125 0.0071,0.19991 -0.03145,0.53829 -0.1875,0.90625 -0.11046,0.26047 -0.26467,0.48307 -0.40625,0.65622 a 1.1629,1.1629 0 0 0 -0.21875,0.5 c -0.07006,0.3277 -0.09689,0.5427 -0.15625,0.8125 -0.007,0.032 -0.02327,0.06 -0.03125,0.094 -0.0728,0.1839 -0.31345,0.6418 -0.625,1.1563 -0.33467,0.5526 -0.73582,1.1662 -1.0938,1.7187 a 1.1629,1.1629 0 0 0 -0.185,0.4 c -0.04813,0.7665 -0.07173,1.5584 0.03125,2.4062 a 1.1629,1.1629 0 0 0 0.40625,0.75 c 0.71744,0.6244 1.5692,1.1033 2.5,1.5313 a 1.1629,1.1629 0 0 0 0.96875,0 c 2.366,-1.004 5.5343,-1.9098 7.5625,-3.5938 a 1.1629,1.1629 0 0 0 0.40625,-0.7187 c 0.22934,-1.3381 0.20405,-2.518 0.09375,-3.6563 a 1.1629,1.1629 0 0 0 -0.218,-0.5 c -0.52038,-0.6942 -1.0863,-1.4384 -1.5312,-2.0937 -0.44499,-0.65537 -0.78488,-1.292 -0.84375,-1.4688 -0.06947,-0.33043 -0.11647,-0.58866 -0.1875,-0.9375 a 1.1629,1.1629 0 0 0 -0.25,-0.5625 c -0.08383,-0.092 -0.09658,-0.10459 -0.03125,-0.0312 -0.24783,-0.27903 -0.51284,-0.65065 -0.6875,-1.0625 -0.24067,-0.56748 -0.33071,-1.1195 -0.3125,-1.4688 0.0091,-0.17461 0.04806,-0.25713 0.0625,-0.28125 a 1.1629,1.1629 0 0 0 0.5,-1.0625 c -0.04214,-0.50447 -0.05227,-1.0066 -0.0625,-1.4688 0,-0.0105 -5.8e-5,-0.0207 0,-0.0312 0.01828,-3.3052 2.9144,-6.0312 6.5938,-6.0312 z"
         style="opacity:0.4" />
      <path
         inkscape:connector-curvature="0"
         id="path3884"
         d="m 55.719,991.02 c -0.01915,0.39225 -0.03247,0.78674 -0.0625,1.2188 0.02234,0.0168 0.04173,0.0432 0.0625,0.0625 0.01334,-0.23849 0.02385,-0.5011 0.03125,-0.71875 0,-0.18732 -0.01624,-0.37882 -0.03125,-0.5625 z m -15.438,0.0625 c -0.01189,0.1637 -0.03125,0.33345 -0.03125,0.5 0.0039,0.17401 0.0263,0.39966 0.03125,0.59375 0.0125,-0.008 0.01831,-0.0243 0.03125,-0.0312 -0.03232,-0.38695 -0.02332,-0.72059 -0.03125,-1.0625 z m 15.781,2.9062 c -0.05379,0.41746 -0.1482,0.88266 -0.34375,1.3438 -0.20688,0.48783 -0.46974,0.90718 -0.75,1.25 -0.09065,0.424 -0.13328,0.75622 -0.25,1.25 -0.31758,0.95347 -1.5822,2.8162 -2.5312,4.2813 -0.03582,0.5704 -0.01895,1.1455 0,1.7187 0.0065,-0.2384 -0.01496,-0.4804 0,-0.7187 0.94906,-1.4651 2.2137,-3.3278 2.5312,-4.2813 0.11672,-0.49378 0.15935,-0.826 0.25,-1.25 0.28026,-0.34282 0.54312,-0.76217 0.75,-1.25 0.37202,-0.87721 0.47288,-1.7303 0.34375,-2.3438 z m -16.281,0.0312 c -0.10783,0.61745 0.01564,1.4651 0.375,2.3125 0.23274,0.54881 0.55422,1.0138 0.875,1.375 0.01069,0.012 0.0205,0.0195 0.03125,0.0312 0.07657,0.37603 0.12615,0.66959 0.21875,1.0938 0.28686,0.86126 1.4874,2.4824 2.5312,3.875 0.02005,0.207 0.05023,0.4186 0.0625,0.625 0.01027,-0.5489 -0.01045,-1.0878 -0.0625,-1.625 -1.0439,-1.3926 -2.2444,-3.0137 -2.5312,-3.875 -0.0926,-0.42416 -0.14218,-0.71772 -0.21875,-1.0938 -0.01075,-0.0118 -0.02056,-0.0192 -0.03125,-0.0312 -0.32078,-0.36116 -0.64226,-0.82619 -0.875,-1.375 -0.19152,-0.4516 -0.31879,-0.89758 -0.375,-1.3125 z m -3,2.7188 c -0.02075,0.25415 -0.04287,0.49884 -0.0625,0.78125 0.02191,0.0165 0.04252,0.0429 0.0625,0.0625 0.0063,-0.09 0.02829,-0.19415 0.03125,-0.28125 0,-0.18721 -0.01138,-0.38007 -0.03125,-0.5625 z m 34,0 c -0.02075,0.25415 -0.04287,0.49884 -0.0625,0.78125 0.02191,0.0165 0.04252,0.0429 0.0625,0.0625 0.0063,-0.09 0.02829,-0.19415 0.03125,-0.28125 0,-0.18721 -0.01138,-0.38007 -0.03125,-0.5625 z m -45.562,0.0625 c -0.01575,0.16273 -0.03125,0.33353 -0.03125,0.5 0.0013,0.0555 -0.0019,0.12977 0,0.1875 0.02006,-0.0143 0.04084,-0.0197 0.0625,-0.0312 -0.02023,-0.24225 -0.02073,-0.4407 -0.03125,-0.65625 z m 34,0 c -0.01575,0.16273 -0.03125,0.33353 -0.03125,0.5 0.0013,0.0555 -0.0019,0.12977 0,0.1875 0.02006,-0.0143 0.04084,-0.0197 0.0625,-0.0312 -0.02023,-0.24225 -0.02074,-0.4407 -0.03125,-0.65625 z m -34.344,2.25 c -0.10468,0.46367 -0.03293,1.1141 0.25,1.7813 0.17456,0.4116 0.41567,0.7604 0.65625,1.0312 0.008,0.01 0.02319,0.022 0.03125,0.031 0.05743,0.282 0.08679,0.4944 0.15625,0.8125 0.21515,0.646 1.0921,1.8618 1.875,2.9063 0.02401,0.2478 0.02214,0.4985 0.03125,0.75 0.04475,-0.6054 0.02359,-1.184 -0.03125,-1.75 -0.78289,-1.0445 -1.6599,-2.2603 -1.875,-2.9063 -0.06946,-0.3181 -0.09882,-0.5305 -0.15625,-0.8125 -0.0081,-0.01 -0.02325,-0.022 -0.03125,-0.031 -0.24058,-0.2708 -0.48169,-0.6196 -0.65625,-1.0312 -0.11317,-0.26686 -0.20085,-0.52971 -0.25,-0.78125 z m 34,0 c -0.10468,0.46367 -0.03293,1.1141 0.25,1.7813 0.17456,0.4116 0.41567,0.7604 0.65625,1.0312 0.008,0.01 0.02319,0.022 0.03125,0.031 0.05743,0.282 0.0868,0.4944 0.15625,0.8125 0.21515,0.646 1.0921,1.8618 1.875,2.9063 0.02401,0.2478 0.02214,0.4985 0.03125,0.75 0.04475,-0.6054 0.02359,-1.184 -0.03125,-1.75 -0.78289,-1.0445 -1.6599,-2.2603 -1.875,-2.9063 -0.06945,-0.3181 -0.09882,-0.5305 -0.15625,-0.8125 -0.0081,-0.01 -0.02325,-0.022 -0.03125,-0.031 -0.24058,-0.2708 -0.48169,-0.6196 -0.65625,-1.0312 -0.11317,-0.26686 -0.20085,-0.52971 -0.25,-0.78125 z M 37,999.0812 c -0.04852,0.2386 -0.11128,0.49658 -0.21875,0.75 -0.15516,0.3659 -0.35231,0.6804 -0.5625,0.9375 -0.06799,0.318 -0.09996,0.5672 -0.1875,0.9375 -0.23818,0.7151 -1.1632,2.1199 -1.875,3.2188 -0.02997,0.4772 -0.01765,0.9526 0,1.4375 0.006,-0.1471 -0.0092,-0.2915 0,-0.4375 0.7118,-1.0989 1.6368,-2.5037 1.875,-3.2188 0.08754,-0.3703 0.11951,-0.6195 0.1875,-0.9375 0.21019,-0.2571 0.40734,-0.5716 0.5625,-0.9375 0.28078,-0.6621 0.32311,-1.29163 0.21875,-1.75003 z m 34,0 c -0.04852,0.2386 -0.11128,0.49658 -0.21875,0.75 -0.15516,0.3659 -0.35231,0.6804 -0.5625,0.9375 -0.06799,0.318 -0.09996,0.5672 -0.1875,0.9375 -0.23818,0.7151 -1.1632,2.1199 -1.875,3.2188 -0.02997,0.4772 -0.01765,0.9526 0,1.4375 0.006,-0.1471 -0.0092,-0.2915 0,-0.4375 0.7118,-1.0989 1.6368,-2.5037 1.875,-3.2188 0.08754,-0.3703 0.11951,-0.6195 0.1875,-0.9375 0.21019,-0.2571 0.40734,-0.5716 0.5625,-0.9375 0.28078,-0.6621 0.32311,-1.29163 0.21875,-1.75003 z m -51.906,18.12 -0.094,0.6 c 0,1.0318 1.5483,1.9554 4,2.5938 l 0.34375,1.375 a 0.84317,0.84382 0 0 0 0.53125,0.5625 c 0.10882,0.042 0.1705,0.1321 0.46875,0.2187 1.5711,0.4565 3.9664,0.7813 6.6562,0.7813 2.5346,0 4.8044,-0.3042 6.375,-0.7188 l 0.40625,1.6563 a 1.1242,1.1251 0 0 0 0.6875,0.75 c 0.1451,0.056 0.25859,0.1657 0.65625,0.2812 2.0948,0.6087 5.2885,1.0313 8.875,1.0313 3.5865,0 6.8115,-0.4226 8.9062,-1.0313 0.39766,-0.1155 0.51115,-0.2251 0.65625,-0.2812 a 1.1242,1.1251 0 0 0 0.65625,-0.7188 l 0.46875,-1.6562 c 1.5665,0.4086 3.8001,0.6875 6.3125,0.6875 2.6899,0 5.1164,-0.3248 6.6875,-0.7813 0.29825,-0.087 0.35993,-0.1766 0.46875,-0.2187 a 0.84317,0.84382 0 0 0 0.5,-0.5313 l 0.4375,-1.4375 c 2.394,-0.8 3.908,-1.8 3.908,-2.8 L 76.9079,1016.97 c -0.34841,0.849 -1.7491,1.6064 -3.8125,2.1562 l -0.4375,1.4375 a 0.84317,0.84382 0 0 1 -0.5,0.5313 c -0.10882,0.042 -0.1705,0.132 -0.46875,0.2187 -1.5711,0.4565 -3.9976,0.7813 -6.6875,0.7813 -2.5124,0 -4.746,-0.2789 -6.3125,-0.6875 l -0.46875,1.6562 a 1.1242,1.1251 0 0 1 -0.65625,0.7188 c -0.1451,0.056 -0.25859,0.1657 -0.65625,0.2812 -2.0948,0.6087 -5.3197,1.0313 -8.9062,1.0313 -3.5865,0 -6.7802,-0.4226 -8.875,-1.0313 -0.39766,-0.1155 -0.51115,-0.225 -0.65625,-0.2812 a 1.1242,1.1251 0 0 1 -0.6875,-0.75 l -0.40625,-1.6563 c -1.5706,0.4146 -3.8404,0.7188 -6.375,0.7188 -2.6899,0 -5.0852,-0.3248 -6.6562,-0.7813 -0.29825,-0.087 -0.35993,-0.1766 -0.46875,-0.2187 a 0.84317,0.84382 0 0 1 -0.53125,-0.5625 l -0.345,-1.2 c -2.1151,-0.5507 -3.5499,-1.3259 -3.9062,-2.1875 z"
         style="opacity:0.5;fill:#ffffff" />
    </g>
    <rect
       ry="25"
       rx="25"
       id="rect3003"
       style="opacity:0.15;fill:#ffffff;fill-opacity:1"
       height="92"
       width="92"
       y="958.36218"
       x="-96"
       clip-path="url(#clipPath3009)"
       transform="translate(98,3.8281269e-7)" />
  </g>
</svg>
