<svg height="96" width="96" xmlns="http://www.w3.org/2000/svg" xmlns:sodipodi="http://sodipodi.sourceforge.net/DTD/sodipodi-0.dtd" xmlns:inkscape="http://www.inkscape.org/namespaces/inkscape">
 <g inkscape:label="Layer 1" inkscape:groupmode="layer" transform="matrix(1 0 0 1 0 -956.36)">
  <rect x="8" rx="10.769" y="964.36" fill="#e6e6e6" fill-opacity="1" stroke="none" height="80" width="80"/>
  <g transform="matrix(1 0 0 1 -105.2 48.07)">
   <path d="m 154.91441,943.39851 a 14.60946,14.60946 0 0 1 -29.21892,0 14.60946,14.60946 0 1 1 29.21892,0 z" fill="#c8ce37" color="black" fill-opacity="1" inkscape:connector-curvature="0"/>
   <path d="m 180.69581,950.27355 a 14.60946,14.60946 0 0 1 -29.21892,0 14.60946,14.60946 0 1 1 29.21892,0 z" fill="#383838" color="black" fill-opacity="1" inkscape:connector-curvature="0"/>
   <path d="m 161.78945,969.17991 a 14.60946,14.60946 0 0 1 -29.21892,0 14.60946,14.60946 0 1 1 29.21892,0 z" fill="#c8ce37" color="black" fill-opacity="1" inkscape:connector-curvature="0"/>
  </g>
 </g>
</svg>
