<?xml version="1.0" encoding="UTF-8" standalone="no"?>
<svg
   xmlns:dc="http://purl.org/dc/elements/1.1/"
   xmlns:cc="http://creativecommons.org/ns#"
   xmlns:rdf="http://www.w3.org/1999/02/22-rdf-syntax-ns#"
   xmlns:svg="http://www.w3.org/2000/svg"
   xmlns="http://www.w3.org/2000/svg"
   xmlns:sodipodi="http://sodipodi.sourceforge.net/DTD/sodipodi-0.dtd"
   xmlns:inkscape="http://www.inkscape.org/namespaces/inkscape"
   height="96"
   width="96"
   id="svg2"
   version="1.1"
   inkscape:version="0.91 r13725"
   sodipodi:docname="deadbeef.svg">
  <metadata
     id="metadata21">
    <rdf:RDF>
      <cc:Work
         rdf:about="">
        <dc:format>image/svg+xml</dc:format>
        <dc:type
           rdf:resource="http://purl.org/dc/dcmitype/StillImage" />
      </cc:Work>
    </rdf:RDF>
  </metadata>
  <sodipodi:namedview
     pagecolor="#ffffff"
     bordercolor="#666666"
     borderopacity="1"
     objecttolerance="10"
     gridtolerance="10"
     guidetolerance="10"
     inkscape:pageopacity="0"
     inkscape:pageshadow="2"
     inkscape:window-width="757"
     inkscape:window-height="480"
     id="namedview19"
     showgrid="false"
     inkscape:zoom="2.4583333"
     inkscape:cx="50.847458"
     inkscape:cy="51.050847"
     inkscape:window-x="0"
     inkscape:window-y="24"
     inkscape:window-maximized="0"
     inkscape:current-layer="g11" />
  <defs
     id="defs4" />
  <g
     inkscape:label="Layer 1"
     inkscape:groupmode="layer"
     transform="matrix(1 0 0 1 0 -956.36)"
     id="g11">
    <rect
       x="8"
       rx="10.769"
       y="964.35999"
       height="80"
       width="80"
       id="rect13"
       style="fill:#e6e6e6;fill-opacity:1;stroke:none" />
    <path
       d="m 26.571413,974.35997 0,31.71433 10.28572,-10.28583 12.00001,8.57153 -12.00001,8.5714 0,-12 -10.28572,10.2857 0,23.1429 42.857174,-30 -42.857174,-30.00003 z m 3.40183,6.53572 33.509169,23.46431 -33.509168,23.4643 0,-15.1877 3.482149,-3.4822 0,3.7768 a 3.3942024,3.3942024 0 0 0 5.383891,2.7589 l 12.000004,-8.5714 a 3.3942024,3.3942024 0 0 0 0,-5.5179 l -12.000004,-8.57143 a 3.3942024,3.3942024 0 0 0 -4.39286,0.3483 l -4.47326,4.4732 0,-16.95514 z"
       inkscape:connector-curvature="0"
       id="path17"
       style="fill:#4d4d4d" />
  </g>
</svg>
