<svg height="96" width="96" xmlns="http://www.w3.org/2000/svg" xmlns:xlink="http://www.w3.org/1999/xlink" xmlns:sodipodi="http://sodipodi.sourceforge.net/DTD/sodipodi-0.dtd" xmlns:inkscape="http://www.inkscape.org/namespaces/inkscape">
 <defs>
  <linearGradient x2="0" y1="962.62" y2="1046.1" gradientUnits="userSpaceOnUse" id="linearGradient11642" gradientTransform="matrix(1.15 0 0 1.15 -7.2 -150.65)">
   <stop stop-color="#2d2d2d"/>
   <stop stop-color="#6b6b6b" offset="1"/>
  </linearGradient>
  <clipPath id="clipPath3613-97">
   <rect x="6" rx="6" y="6" height="84" width="84"/>
  </clipPath>
  <filter x="-0.192" y="-0.192" height="1.384" color-interpolation-filters="sRGB" id="filter3794-64" width="1.384">
   <feGaussianBlur stdDeviation="5.28"/>
  </filter>
  <radialGradient cy="48" r="16.254" gradientUnits="userSpaceOnUse" id="radialGradient3080" cx="47.746" gradientTransform="matrix(1.9072 0 0 1.9072 -43.06 -43.547)">
   <stop stop-color="#ee8a0c"/>
   <stop stop-color="#ca0005" offset="0.33"/>
   <stop stop-color="#530111" offset="0.771"/>
   <stop offset="1"/>
  </radialGradient>
  <radialGradient cy="47.876" r="26" gradientUnits="userSpaceOnUse" id="radialGradient3076" cx="48" gradientTransform="matrix(1 0 0 0.92308 0 3.807)">
   <stop stop-color="#fff814"/>
   <stop stop-color="#ffc516" offset="0.5"/>
   <stop stop-color="#da8600" stop-opacity="0.667" offset="1"/>
  </radialGradient>
  <radialGradient cy="48" r="16.254" gradientUnits="userSpaceOnUse" id="radialGradient3066" cx="47.746" gradientTransform="matrix(1.9072 0 0 1.9072 -43.06 -43.547)">
   <stop stop-opacity="0"/>
   <stop stop-color="#ca0000" stop-opacity="0" offset="0.7"/>
   <stop stop-color="#6b0000" stop-opacity="0.124" offset="0.8"/>
   <stop offset="1"/>
  </radialGradient>
  <radialGradient cy="13.64" r="27.25" gradientUnits="userSpaceOnUse" id="radialGradient3079" cx="48" gradientTransform="matrix(1.5168 0 0 0.91009 -24.807 10.787)">
   <stop stop-color="#fff"/>
   <stop stop-color="#fff" stop-opacity="0.357" offset="0.5"/>
   <stop stop-color="#fff" stop-opacity="0" offset="1"/>
  </radialGradient>
  <clipPath clipPathUnits="userSpaceOnUse" id="clipPath3009">
   <path d="m-2 956.36h-96v33.562l96 25.687v-59.25z"/>
  </clipPath>
  <path d="m79 48a31 31 0 0 1 -62 0 31 31 0 1 1 62 0z" color="#000000" id="SVGCleanerId_0"/>
 </defs>
 <g transform="matrix(1 0 0 1 0 -956.36)">
  <rect x="2" rx="25" y="958.36" fill="url(#linearGradient11642)" height="92" width="92"/>
  <g transform="matrix(0.77381 0 0 0.77381 10.857 967.42)">
   <rect x="15" stroke-width="0.5" rx="12" y="15" clip-path="url(#clipPath3613-97)" fill="#f00" stroke="#fff" height="66" filter="url(#filter3794-64)" opacity="0.1" width="66" stroke-linecap="round"/>
   <use xlink:href="#SVGCleanerId_0" fill="url(#radialGradient3080)"/>
   <path d="m34.719 23.469c0.006-0.000893-0.19342 0.064-0.1875 0.0625 0.0059-0.0015-0.22448 0.06459-0.21875 0.0625 0.0057-0.0021-0.193 0.06515-0.1875 0.0625 0.0047-0.0023-0.08805 0.07376-0.125 0.09375-0.0064 0.0034-0.03202 0.00047-0.03125 0v0.032c-8.641 5.008-13.969 14.232-13.969 24.218-0.000038-0.0059 0.00061 0.19336 0 0.1875-0.00061-0.0059 0.03243 0.22452 0.03125 0.21875-0.0012-0.0058 0.06423 0.19313 0.0625 0.1875-0.0017-0.0056 0.06477 0.19293 0.0625 0.1875-0.0023-0.0054 0.09654 0.16144 0.09375 0.15625-0.0028-0.0052 0.09703 0.19239 0.09375 0.1875-0.0033-0.0049 0.12874 0.1608 0.125 0.15625-0.0037-0.0045 0.12916 0.12916 0.125 0.125-0.0042-0.0042 0.12955 0.12874 0.125 0.125-0.0045-0.0037 0.16114 0.12828 0.15625 0.125-0.0049-0.0033 0.19268 0.09654 0.1875 0.09375-0.0052-0.0028 0.16168 0.09602 0.15625 0.09375-0.0054-0.0023 0.19313 0.06423 0.1875 0.0625-0.0056-0.0017 0.19327 0.06368 0.1875 0.0625-0.0058-0.0012 0.22461 0.03186 0.21875 0.03125-0.0059-0.00061 0.19339 0.000038 0.1875 0h18c-0.0059 0.000038 0.19336-0.00061 0.1875 0-0.0059 0.00061 0.22452-0.03243 0.21875-0.03125-0.0058 0.0012 0.19313-0.06423 0.1875-0.0625-0.0056 0.0017 0.19293-0.06477 0.1875-0.0625-0.0054 0.0023 0.16144-0.09654 0.15625-0.09375-0.0052 0.0028 0.19239-0.09703 0.1875-0.09375-0.0049 0.0033 0.1608-0.12874 0.15625-0.125-0.0011 0.000935 0.01758-0.0188 0.03125-0.03125 0.31188 1.368 0.91988 2.5944 1.9062 3.5312-0.02515 0.01134-0.0961 0.06363-0.09375 0.0625 0.0029-0.0014-0.09661 0.03282-0.09375 0.03125 0.0029-0.0016-0.09652 0.06422-0.09375 0.0625 0.0028-0.0017-0.09642 0.06437-0.09375 0.0625 0.0027-0.0019-0.06507 0.06451-0.0625 0.0625 0.0026-0.002-0.0962 0.06465-0.09375 0.0625 0.0025-0.0021-0.09609 0.09603-0.09375 0.09375 0.0023-0.0023-0.06471 0.0649-0.0625 0.0625 0.0022-0.0024-0.06458 0.09626-0.0625 0.09375 0.0021-0.0025-0.06444 0.09637-0.0625 0.09375 0.0019-0.0026-0.06429 0.06522-0.0625 0.0625 0.0018-0.0027-0.06415 0.09657-0.0625 0.09375a1.0937 1.0937 0 0 0 0 0.03125l-9 15.594v0.03125c-0.01763 0.03343-0.09594 0.1609-0.09375 0.15625 0.0025-0.0054-0.06449 0.16183-0.0625 0.15625 0.002-0.0056-0.06394 0.19325-0.0625 0.1875 0.0014-0.0058-0.03212 0.22461-0.03125 0.21875 0.000869-0.0059-0.03154 0.19342-0.03125 0.1875 0.000291-0.0059 0.00029 0.19342 0 0.1875-0.00029-0.0059 0.03212 0.19336 0.03125 0.1875-0.000868-0.0059 0.03269 0.2245 0.03125 0.21875-0.0014-0.0058 0.06449 0.19308 0.0625 0.1875-0.002-0.0056 0.06503 0.16161 0.0625 0.15625-0.0025-0.0054 0.09679 0.19259 0.09375 0.1875-0.003-0.0051 0.09728 0.16102 0.09375 0.15625-0.0035-0.0048 0.12898 0.16065 0.125 0.15625-0.004-0.0044 0.16064 0.12899 0.15625 0.125-0.0044-0.004 0.16101 0.12854 0.15625 0.125-0.0048-0.0035 0.16133 0.12806 0.15625 0.125a1.0937 1.0937 0 0 0 0.032 0c8.6632 5.0017 19.337 5.0017 28 0a1.0937 1.0937 0 0 0 0.03125 0c-0.0051 0.0031 0.16101-0.12854 0.15625-0.125-0.0048 0.0035 0.16064-0.12899 0.15625-0.125-0.0044 0.004 0.16022-0.1294 0.15625-0.125-0.004 0.0044 0.12853-0.16102 0.125-0.15625-0.0035 0.0048 0.09679-0.16134 0.09375-0.15625-0.003 0.0051 0.09628-0.19286 0.09375-0.1875-0.0025 0.0054 0.06449-0.16183 0.0625-0.15625-0.002 0.0056 0.06394-0.19325 0.0625-0.1875-0.0014 0.0058 0.03212-0.22461 0.03125-0.21875-0.000868 0.0059 0.03154-0.19342 0.03125-0.1875-0.00029 0.0059-0.000291-0.19342 0-0.1875 0.000291 0.0059-0.03212-0.19336-0.03125-0.1875 0.000869 0.0059-0.03269-0.2245-0.03125-0.21875 0.0014 0.0058-0.06449-0.19308-0.0625-0.1875 0.002 0.0056-0.06503-0.16161-0.0625-0.15625 0.0022 0.0046-0.07612-0.12282-0.09375-0.15625v-0.03l-9-15.594a1.0937 1.0937 0 0 0 0 -0.03125c0.0031 0.0051-0.12854-0.16101-0.125-0.15625 0.0035 0.0048-0.12899-0.16064-0.125-0.15625 0.004 0.0044-0.1294-0.16022-0.125-0.15625 0.0044 0.004-0.16102-0.12853-0.15625-0.125 0.0048 0.0035-0.16134-0.09679-0.15625-0.09375 0.0051 0.003-0.19286-0.09628-0.1875-0.09375 0.0031 0.0015-0.04065-0.0093-0.09375-0.03125 1.0027-0.94072 1.6223-2.1799 1.9375-3.5625 0.01367 0.01245 0.03239 0.03218 0.03125 0.03125-0.0045-0.0037 0.16114 0.12828 0.15625 0.125-0.0049-0.0033 0.19268 0.09654 0.1875 0.09375-0.0052-0.0028 0.16168 0.09602 0.15625 0.09375-0.0054-0.0023 0.19313 0.06423 0.1875 0.0625-0.0056-0.0017 0.19327 0.06368 0.1875 0.0625-0.0058-0.0012 0.22461 0.03186 0.21875 0.03125-0.0059-0.00061 0.19339 0.000038 0.1875 0h18c-0.0059 0.000038 0.19336-0.00061 0.1875 0-0.0059 0.00061 0.22452-0.03243 0.21875-0.03125-0.0058 0.0012 0.19313-0.06423 0.1875-0.0625-0.0056 0.0017 0.19293-0.06477 0.1875-0.0625-0.0054 0.0023 0.16144-0.09654 0.15625-0.09375-0.0052 0.0028 0.19239-0.09703 0.1875-0.09375-0.0049 0.0033 0.1608-0.12874 0.15625-0.125-0.0045 0.0037 0.12916-0.12916 0.125-0.125-0.0042 0.0042 0.12874-0.12955 0.125-0.125-0.0037 0.0045 0.12828-0.16114 0.125-0.15625-0.0033 0.0049 0.09654-0.19268 0.09375-0.1875-0.0028 0.0052 0.09602-0.16168 0.09375-0.15625-0.0023 0.0054 0.06423-0.19313 0.0625-0.1875-0.0017 0.0056 0.06368-0.19327 0.0625-0.1875-0.0012 0.0058 0.03186-0.22461 0.03125-0.21875-0.00061 0.0059 0.000038-0.19339 0-0.1875 0-9.9861-5.3276-19.211-13.969-24.219-0.0056-0.0032 0.0056-0.02801 0-0.03125 0.000675 0.000418-0.02565 0.0031-0.03125 0-0.03249-0.018-0.12911-0.09581-0.125-0.09375 0.0048 0.0024-0.16127-0.06448-0.15625-0.0625 0.005 0.002-0.16142-0.06403-0.15625-0.0625 0.0052 0.0015-0.19279-0.03231-0.1875-0.03125 0.0053 0.0011-0.16161-0.03183-0.15625-0.03125 0.0054 0.000582-0.19289-0.000102-0.1875 0 0.0054 0.000102-0.19288 0.000379-0.1875 0 0.0054-0.000379-0.19283 0.000857-0.1875 0a1.0937 1.0937 0 0 0 0 0.03125c0.0032-0.000581-0.12817 0.000754-0.125 0 0.0032-0.000754-0.09688 0.03217-0.09375 0.03125 0.0031-0.000924-0.09682 0.03234-0.09375 0.03125 0.0031-0.0011-0.09676 0.03251-0.09375 0.03125 0.003-0.0013-0.12794 0.06392-0.125 0.0625 0.0029-0.0014-0.09661 0.03282-0.09375 0.03125 0.0029-0.0016-0.09652 0.06422-0.09375 0.0625 0.0028-0.0017-0.09642 0.06437-0.09375 0.0625 0.0027-0.0019-0.06507 0.06451-0.0625 0.0625 0.0026-0.002-0.0962 0.06465-0.09375 0.0625 0.0025-0.0021-0.09609 0.09603-0.09375 0.09375 0.0023-0.0023-0.06471 0.0649-0.0625 0.0625 0.0022-0.0024-0.06458 0.09626-0.0625 0.09375 0.0021-0.0025-0.06444 0.09637-0.0625 0.09375 0.0019-0.0026-0.06429 0.06522-0.0625 0.0625 0.0018-0.0027-0.06415 0.09657-0.0625 0.09375a1.0937 1.0937 0 0 0 0 0.03125l-9 15.594c0.000406-0.000678 0.0027 0.02611 0 0.03125-0.01763 0.03343-0.09594 0.1609-0.09375 0.15625 0.0025-0.0054-0.06449 0.16183-0.0625 0.15625 0.002-0.0056-0.06394 0.19325-0.0625 0.1875 0.0014-0.0057-0.03212 0.22461-0.03125 0.21875 0.002-0.006-0.03 0.193-0.03 0.187 0.000291-0.0059 0.00029 0.19342 0 0.1875-0.00029-0.0059 0.03212 0.19336 0.03125 0.1875-0.000122-0.000821-0.0013 0.02498 0 0.03125-0.653-0.203-1.313-0.406-2.031-0.406-0.71783 0-1.3778 0.20289-2.0312 0.40625 0.0013-0.0063 0.000122-0.03207 0-0.03125-0.000868 0.0059 0.03154-0.19342 0.03125-0.1875-0.00029 0.0059-0.000291-0.19342 0-0.1875 0.000291 0.0059-0.03212-0.19336-0.03125-0.1875 0.000869 0.0059-0.03269-0.2245-0.03125-0.21875 0.0014 0.0057-0.06449-0.19308-0.0625-0.1875 0.002 0.0056-0.06503-0.16161-0.0625-0.15625 0.0022 0.0046-0.07612-0.12282-0.09375-0.15625v-0.033l-9-15.594a1.0937 1.0937 0 0 0 0 -0.03125c0.0023 0.0038-0.06503-0.12862-0.0625-0.125 0.0025 0.0036-0.09654-0.12843-0.09375-0.125 0.0028 0.0034-0.09678-0.09696-0.09375-0.09375 0.003 0.0032-0.12826-0.09673-0.125-0.09375 0.0033 0.003-0.09721-0.09649-0.09375-0.09375 0.0035 0.0027-0.12866-0.09623-0.125-0.09375 0.0037 0.0025-0.12883-0.09596-0.125-0.09375 0.0038 0.0022-0.12898-0.06442-0.125-0.0625 0.004 0.0019-0.12911-0.06413-0.125-0.0625 0.0041 0.0016-0.16046-0.03257-0.15625-0.03125 0.0042 0.0013-0.1293-0.06351-0.125-0.0625 0.0043 0.001-0.16061-0.000693-0.15625 0 0.0044 0.000693-0.16065-0.03162-0.15625-0.03125 0.0044 0.000373-0.12942-0.000051-0.125 0 0.0044 0.000051-0.16066 0.000271-0.15625 0 0.0044-0.000271-0.16063 0.000592-0.15625 0z" fill="#ffcb16" color="#000000" opacity="0.15"/>
   <path d="m35 25.469c-8.044 4.644-13 13.242-13 22.531h18c0-2.957 1.6143-5.5216 4-6.9062l-9-15.625zm26 0-9 15.625c2.3857 1.3847 4 3.9493 4 6.9062h18c0-9.289-4.956-17.887-13-22.531zm-13 17.531c-2.7614 0-5 2.2386-5 5s2.2386 5 5 5 5-2.2386 5-5-2.2386-5-5-5zm-4 11.906-9 15.625c8.0444 4.6445 17.956 4.6445 26 0l-9-15.625c-1.179 0.685-2.539 1.094-4 1.094s-2.821-0.409-4-1.094z" fill="url(#radialGradient3076)" color="#000000"/>
   <path d="m34.875 24.562a0.91217 0.91217 0 0 0 -0.34375 0.125c-8.326 4.808-13.437 13.7-13.437 23.313a0.91217 0.91217 0 0 0 0.906 0.906h18a0.91217 0.91217 0 0 0 0.906 -0.906c0-2.625 1.4452-4.8961 3.5625-6.125a0.91217 0.91217 0 0 0 0.3125 -1.25l-9-15.625a0.91217 0.91217 0 0 0 -0.905 -0.438zm25.969 0a0.91217 0.91217 0 0 0 -0.625 0.438l-9 15.625a0.91217 0.91217 0 0 0 0.3125 1.25c2.1173 1.2289 3.5625 3.5 3.5625 6.125a0.91217 0.91217 0 0 0 0.906 0.906h18a0.91217 0.91217 0 0 0 0.906 -0.906c0-9.6133-5.1114-18.505-13.438-23.312a0.91217 0.91217 0 0 0 -0.625 -0.125zm-12.844 17.532c-3.2543 0-5.9062 2.6519-5.9062 5.9062s2.6519 5.9062 5.9062 5.9062 5.9062-2.6519 5.9062-5.9062-2.6519-5.9062-5.9062-5.9062zm-4.156 11.906a0.91217 0.91217 0 0 0 -0.625 0.4375l-9 15.625a0.91217 0.91217 0 0 0 0.3125 1.25c8.3254 4.8066 18.612 4.8066 26.938 0a0.91217 0.91217 0 0 0 0.3125 -1.25l-9-15.625a0.91217 0.91217 0 0 0 -1.25 -0.3125c-1.053 0.61-2.241 0.968-3.532 0.968-1.2909 0-2.479-0.35801-3.5312-0.96875a0.91217 0.91217 0 0 0 -0.625 -0.125z" fill="#ffcb16" color="#000000" opacity="0.3"/>
   <use xlink:href="#SVGCleanerId_0" fill="url(#radialGradient3066)"/>
   <path d="m48 19.067c-13.669 0-25.132 9.4734-28.158 22.217 7.3801-4.8079 17.281-7.75 28.158-7.75s20.778 2.9421 28.158 7.75c-3.026-12.744-14.489-22.217-28.158-22.217z" fill="url(#radialGradient3079)" color="#000000" opacity="0.8"/>
  </g>
  <rect x="-96" rx="25" y="958.36" clip-path="url(#clipPath3009)" fill="#fff" height="92" opacity="0.15" width="92" transform="matrix(1 0 0 1 98 0)"/>
 </g>
</svg>
