<svg height="22" width="22" xmlns="http://www.w3.org/2000/svg" xmlns:sodipodi="http://sodipodi.sourceforge.net/DTD/sodipodi-0.dtd" xmlns:inkscape="http://www.inkscape.org/namespaces/inkscape">
 <defs>
  <linearGradient x2="0" y1="3.86" y2="25.717" gradientUnits="userSpaceOnUse" id="linearGradient3830" inkscape:collect="always" gradientTransform="matrix(0.69525 0 0 0.70335 -0.289 1030.12)">
   <stop stop-color="#323232" stop-opacity="1"/>
   <stop stop-color="#787878" stop-opacity="1" offset="1"/>
  </linearGradient>
 </defs>
 <g inkscape:label="Ebene 1" inkscape:groupmode="layer" transform="matrix(1 0 0 1 0 -1030.36)">
  <path stroke-opacity="1" d="m -15.618843,1039.1868 c -4.404203,0 -7.976226,3.7123 -7.979768,8.2968 l -1.683232,0 2.784607,5.0299 2.794997,-5.0299 -1.797526,0 c 0.0036,-3.377 2.636316,-6.1118 5.880922,-6.1118 3.246812,0 5.8809253,2.7424 5.8809253,6.1226 0,3.3803 -2.6341133,6.1225 -5.8809253,6.1225 l 0,2.1851 c 4.406388,0 7.9797703,-3.7202 7.9797703,-8.3076 0,-4.5875 -3.5733823,-8.3076 -7.9797703,-8.3076 z m -0.02079,3.4616 c -0.3684,0 -0.664981,0.3085 -0.664981,0.6922 l 0,4.1538 c 0,0.3835 0.296581,0.6922 0.664981,0.6922 l 3.324904,0 c 0.368399,0 0.664981,-0.3087 0.664981,-0.6922 0,-0.3835 -0.296582,-0.6924 -0.664981,-0.6924 l -2.659922,0 0,-3.4614 c 0,-0.3837 -0.296582,-0.6922 -0.664982,-0.6922 z" stroke-width="0.389" display="inline" fill="none" stroke="#ffffff" stroke-dasharray="none" opacity="0.3" stroke-miterlimit="4" inkscape:connector-curvature="0"/>
  <path d="m 11.722845,1032.9211 c -4.368269,0 -7.9111472,3.6275 -7.9146603,8.1072 l -1.6694984,0 2.7618869,4.9149 2.7721918,-4.9149 -1.7828598,0 c 0.00354,-3.2999 2.6148068,-5.9722 5.8329398,-5.9722 3.22032,0 5.832941,2.6798 5.832941,5.9827 0,3.3029 -2.612621,5.9826 -5.832941,5.9826 l 0,2.135 c 4.370435,0 7.914661,-3.6351 7.914661,-8.1176 0,-4.4827 -3.544226,-8.1177 -7.914661,-8.1177 z m -0.02062,3.3825 c -0.365394,0 -0.659556,0.3015 -0.659556,0.6764 l 0,4.0588 c 0,0.3748 0.294162,0.6764 0.659556,0.6764 l 3.297775,0 c 0.365393,0 0.659554,-0.3016 0.659554,-0.6764 0,-0.3748 -0.294161,-0.6766 -0.659554,-0.6766 l -2.63822,0 0,-3.3822 c 0,-0.3749 -0.294162,-0.6764 -0.659555,-0.6764 z" display="inline" fill="url(#linearGradient3830)" fill-opacity="1" fill-rule="evenodd" stroke="none" opacity="1" inkscape:connector-curvature="0"/>
  <path d="m 11.726016,1032.9118 c -4.3682692,0 -7.9069075,3.6311 -7.9104209,8.1108 l -1.6674918,0 0.508381,0.9079 1.1794461,0 c 0.00353,-4.6156 3.5273132,-8.3583 7.8697496,-8.3583 4.34459,0 7.849414,3.7395 7.849414,8.3583 0,0.096 -0.01729,0.1934 -0.02033,0.289 0.05525,-0.387 0.101676,-0.7942 0.101676,-1.1969 0,-4.4827 -3.539985,-8.1108 -7.910421,-8.1108 z m -0.02033,3.3846 c -0.365395,0 -0.650729,0.3062 -0.650729,0.681 l 0,0.5985 c 0.07418,-0.2985 0.325633,-0.5159 0.630393,-0.5159 0.363231,0 0.650728,0.3156 0.650728,0.7017 l 0,3.4878 2.623252,0 c 0.214006,0 0.388857,0.1007 0.508381,0.2684 0.119215,-0.1224 0.203351,-0.308 0.203351,-0.4953 0,-0.3749 -0.305668,-0.6604 -0.671062,-0.6604 l -2.643585,0 0,-3.3848 c 0,-0.3748 -0.285334,-0.681 -0.650729,-0.681 z m -5.734546,4.7262 c -0.041374,0.2957 -0.08103,0.6 -0.081341,0.9079 l 1.281122,0 0.5083817,-0.9079 -1.7081626,0 z m 11.530098,0.8049 c -0.38025,2.9263 -2.818403,5.1801 -5.775218,5.1801 l 0,1.0937 c 3.191816,-0.013 5.775218,-2.7745 5.775218,-6.1708 0,-0.035 5.57e-4,-0.068 0,-0.103 z" display="inline" fill="#000000" fill-opacity="1" fill-rule="evenodd" stroke="none" opacity="0.3" inkscape:connector-curvature="0"/>
 </g>
</svg>
