<svg height="96" width="96" xmlns="http://www.w3.org/2000/svg" xmlns:sodipodi="http://sodipodi.sourceforge.net/DTD/sodipodi-0.dtd" xmlns:inkscape="http://www.inkscape.org/namespaces/inkscape">
 <defs>
  <linearGradient x1="53.06" x2="50.45" y1="1042.44" y2="965.46" gradientUnits="userSpaceOnUse" id="linearGradient5160" inkscape:collect="always">
   <stop stop-color="#bcb5ac"/>
   <stop stop-color="#e9e7e4" offset="1"/>
  </linearGradient>
 </defs>
 <g inkscape:label="Layer 1" inkscape:groupmode="layer" transform="matrix(1 0 0 1 0 -956.36)">
  <rect x="8.751" rx="10.769" y="964.14" fill="url(#linearGradient5160)" fill-opacity="1" stroke="none" height="80" width="80"/>
  <path d="m 8.75125,1031.3354 0,2.0133 c 0,5.966 4.793063,10.7905 10.758946,10.7905 l 58.450649,0 c 5.965883,0 10.790405,-4.8245 10.790405,-10.7905 l 0,-2.0133 c 0,5.9659 -4.824522,10.7904 -10.790405,10.7904 l -58.450649,0 c -5.965883,0 -10.758946,-4.8245 -10.758946,-10.7904 z" fill="#000000" fill-opacity="1" stroke="none" opacity="0.3" inkscape:connector-curvature="0"/>
  <path d="m 50.462288,987.02852 c -10.394566,0 -18.821436,7.6604 -18.821436,17.11038 h -3.42208 l 2.99432,4.6665 2.99432,4.6664 2.99432,-4.6664 2.99432,-4.666 h -3.42208 c 0,-6.87258 6.12843,-12.44358 13.688316,-12.44358 7.55989,0 13.68832,5.5713 13.68832,12.44358 0,6.8725 -6.12843,12.4435 -13.68832,12.4435 -2.49675,0 -4.828896,-0.6155 -6.844156,-1.677 l -2.56656,4.0588 c 2.76675,1.4544 5.98522,2.2851 9.410716,2.2851 10.39457,0 18.82144,-7.6603 18.82144,-17.1104 0,-9.44998 -8.42687,-17.11038 -18.82144,-17.11038 z m 0,6.222 c -0.94792,0 -1.71104,0.6937 -1.71104,1.5555 v 8.82208 c -0.16991,0.4156 -0.0762,0.9249 0.26735,1.3611 0.066,0.093 0.15493,0.1651 0.24061,0.243 l 6.04211,5.5172 c 0.67028,0.6093 1.64765,0.6895 2.19227,0.1944 l 0.45514,-0.4124 c 0.5446,-0.4951 0.4564,-1.3836 -0.21388,-1.9929 l -5.56088,-5.0313 v -8.70068 c 0,-0.8617 -0.76312,-1.5555 -1.71104,-1.5555 z" fill="#4d4d4d" color="#000000" inkscape:connector-curvature="0"/>
 </g>
</svg>
