<?xml version="1.0" encoding="UTF-8" standalone="no"?>
<svg
   xmlns:dc="http://purl.org/dc/elements/1.1/"
   xmlns:cc="http://creativecommons.org/ns#"
   xmlns:rdf="http://www.w3.org/1999/02/22-rdf-syntax-ns#"
   xmlns:svg="http://www.w3.org/2000/svg"
   xmlns="http://www.w3.org/2000/svg"
   xmlns:sodipodi="http://sodipodi.sourceforge.net/DTD/sodipodi-0.dtd"
   xmlns:inkscape="http://www.inkscape.org/namespaces/inkscape"
   height="96"
   width="96"
   id="svg2"
   version="1.1"
   inkscape:version="0.91 r13725"
   sodipodi:docname="deja-dup.svg">
  <metadata
     id="metadata21">
    <rdf:RDF>
      <cc:Work
         rdf:about="">
        <dc:format>image/svg+xml</dc:format>
        <dc:type
           rdf:resource="http://purl.org/dc/dcmitype/StillImage" />
      </cc:Work>
    </rdf:RDF>
  </metadata>
  <sodipodi:namedview
     pagecolor="#ffffff"
     bordercolor="#666666"
     borderopacity="1"
     objecttolerance="10"
     gridtolerance="10"
     guidetolerance="10"
     inkscape:pageopacity="0"
     inkscape:pageshadow="2"
     inkscape:window-width="757"
     inkscape:window-height="480"
     id="namedview19"
     showgrid="false"
     inkscape:zoom="2.4583333"
     inkscape:cx="2.0338983"
     inkscape:cy="48"
     inkscape:window-x="0"
     inkscape:window-y="24"
     inkscape:window-maximized="0"
     inkscape:current-layer="g11" />
  <defs
     id="defs4" />
  <g
     inkscape:label="Layer 1"
     inkscape:groupmode="layer"
     transform="matrix(1 0 0 1 0 -956.36)"
     id="g11">
    <rect
       x="8"
       rx="10.769"
       y="964.35999"
       height="80"
       width="80"
       id="rect13"
       style="fill:#e6e6e6;fill-opacity:1;stroke:none" />
    <path
       d="m 49.711038,987.24936 c -10.394566,0 -18.821436,7.6604 -18.821436,17.11034 l -3.42208,0 2.99432,4.6665 2.99432,4.6664 2.99432,-4.6664 2.99432,-4.666 -3.42208,0 c 0,-6.87254 6.12843,-12.44354 13.688316,-12.44354 7.55989,0 13.68832,5.5713 13.68832,12.44354 0,6.8725 -6.12843,12.4435 -13.68832,12.4435 -2.49675,0 -4.828896,-0.6155 -6.844156,-1.677 l -2.56656,4.0588 c 2.76675,1.4544 5.98522,2.2851 9.410716,2.2851 10.39457,0 18.82144,-7.6603 18.82144,-17.1104 0,-9.44994 -8.42687,-17.11034 -18.82144,-17.11034 z m 0,6.222 c -0.94792,0 -1.71104,0.6937 -1.71104,1.5555 l 0,8.82204 c -0.16991,0.4156 -0.0762,0.9249 0.26735,1.3611 0.066,0.093 0.15493,0.1651 0.24061,0.243 l 6.04211,5.5172 c 0.67028,0.6093 1.64765,0.6895 2.19227,0.1944 l 0.45514,-0.4124 c 0.5446,-0.4951 0.4564,-1.3836 -0.21388,-1.9929 l -5.56088,-5.0313 0,-8.70064 c 0,-0.8617 -0.76312,-1.5555 -1.71104,-1.5555 z"
       inkscape:connector-curvature="0"
       id="path17"
       style="color:black;fill:#4d4d4d" />
  </g>
</svg>
