<svg height="96" width="96" xmlns="http://www.w3.org/2000/svg" xmlns:xlink="http://www.w3.org/1999/xlink" xmlns:sodipodi="http://sodipodi.sourceforge.net/DTD/sodipodi-0.dtd" xmlns:inkscape="http://www.inkscape.org/namespaces/inkscape">
 <defs>
  <linearGradient x2="0" y1="962.62" y2="1046.1" gradientUnits="userSpaceOnUse" id="linearGradient11642" gradientTransform="matrix(1.15 0 0 1.15 -7.2 -150.65)">
   <stop stop-color="#2d2d2d"/>
   <stop stop-color="#6b6b6b" offset="1"/>
  </linearGradient>
  <radialGradient cy="58.667" r="16" gradientUnits="userSpaceOnUse" id="radialGradient3723" cx="48" gradientTransform="matrix(1 0 0 1.5 0 -24)">
   <stop stop-color="#fff"/>
   <stop stop-color="#93a3aa" offset="1"/>
  </radialGradient>
  <linearGradient x2="0" y1="24.342" y2="46.27" gradientUnits="userSpaceOnUse" id="linearGradient3789">
   <stop stop-color="#697c84"/>
   <stop stop-color="#697c84" stop-opacity="0" offset="1"/>
  </linearGradient>
  <linearGradient x1="41.646" x2="41.864" y1="71.09" y2="22.683" gradientUnits="userSpaceOnUse" id="linearGradient3750">
   <stop stop-color="#fff"/>
   <stop stop-color="#fff" stop-opacity="0" offset="1"/>
  </linearGradient>
  <radialGradient cy="46.45" r="2.614" xlink:href="#linearGradient3756" gradientUnits="userSpaceOnUse" id="radialGradient3762" cx="55.6" gradientTransform="matrix(0.94969 -0.31318 1.2097 3.6681 -53.4 -103.87)"/>
  <linearGradient xlink:href="#linearGradient3750" id="linearGradient3756"/>
  <radialGradient cy="46.45" r="2.614" xlink:href="#linearGradient3756" gradientUnits="userSpaceOnUse" id="radialGradient3168" cx="55.6" gradientTransform="matrix(0.3951 -0.13029 0.50325 1.5261 6.382 -26)"/>
  <clipPath clipPathUnits="userSpaceOnUse" id="clipPath3009">
   <path d="m-2 956.36h-96v33.562l96 25.687v-59.25z"/>
  </clipPath>
 </defs>
 <g transform="matrix(1 0 0 1 0 -956.36)">
  <rect x="2" rx="25" y="958.36" fill="url(#linearGradient11642)" height="92" width="92"/>
  <g transform="matrix(1 0 0 1 0 956.36)">
   <path d="m48 24c-3.2512 8.4531-16 20.927-16 32 0 8.8366 7.1634 16 16 16s16-7.1634 16-16c0-9.32-15.567-22.03-16-32z" fill="url(#radialGradient3723)" color="#000000"/>
   <path d="m48 24c-2.884 7.497-13.227 18.147-15.531 28.188h30.812c-3.073-8.784-14.904-19.516-15.281-28.188z" fill="url(#linearGradient3789)" color="#000000" opacity="0.8"/>
   <path d="m47.475 28.785c-6.306 9.531-16.643 22.631-13.22 30.129 4.114 2.411-3.262-5.926 13.22-30.129z" fill="#6b7d85" opacity="0.4"/>
   <path d="m47.316 27.425c-8.831 14.936-13.628 18.643-14.391 28.019 0.205 15.156 14.391 15.699 14.391 15.699l-1.4173-8.8308s-3.4563 0.80742-5.9962-8.2857c-1.3805-4.9422 7.4135-26.601 7.4135-26.601z" fill="url(#linearGradient3750)" opacity="0.6"/>
   <path d="m59.807 55.754c0 7.8754-6.0153 12.987-13.641 12.987-1.8712 0-3.6592-0.39331-5.2812-1.0625 2.1634 1.4167 4.7375 2.25 7.5312 2.25 7.6257 0 13.75-6.1243 13.75-13.75 0-3.4127-1.4977-6.154-7.4062-14.469 2.3384 5.5482 5.0472 6.1835 5.0472 14.044z" fill="#697c84" color="#000000" opacity="0.3"/>
   <path d="m41.973 68.635-1.308-6.868c-7.086-3.489-3.598-13.737-3.598-13.737s-7.7406 13.301 4.906 20.605z" fill="#fff"/>
   <path d="m52.331 37.673c0.92985 4.8942 4.8817 8.6231 5.1142 11.497 0.7555 5.1272-2.499 2.8744-3.022 0.46611 0 0-1.511-5.438-2.0922-11.964z" fill="url(#radialGradient3762)"/>
   <path d="m60.156 51.562c0.23056 1.1939 0.40625 2.4724 0.40625 4.1875 0 6.911-4.5197 11.837-10.656 13.281 6.4901-0.74478 11.5-6.1412 11.5-12.844 0-1.4753-0.35588-2.7934-1.25-4.625z" fill="#697c84" color="#000000" opacity="0.6"/>
   <path d="m48 24c-0.17598 0.45756-0.39689 0.92599-0.625 1.4062 2.417 9.549 15.625 21.006 15.625 29.594 0 8.837-7.163 16-16 16-4.162 0-7.935-1.614-10.781-4.219 2.925 3.197 7.106 5.219 11.781 5.219 8.837 0 16-7.163 16-16 0-9.32-15.567-22.03-16-32z" fill="#6a7d84" color="#000000" opacity="0.5"/>
   <path d="m50.368 32.886c0.38684 2.0361 2.0309 3.5875 2.1276 4.7833 0.31431 2.1331-1.0396 1.1958-1.2572 0.19392 0 0-0.62862-2.2624-0.8704-4.9772z" fill="url(#radialGradient3168)" opacity="0.5"/>
  </g>
  <rect x="-96" rx="25" y="958.36" clip-path="url(#clipPath3009)" fill="#fff" height="92" opacity="0.15" width="92" transform="matrix(1 0 0 1 98 0)"/>
 </g>
</svg>
