<svg height="96" width="96" xmlns="http://www.w3.org/2000/svg" xmlns:xlink="http://www.w3.org/1999/xlink" xmlns:sodipodi="http://sodipodi.sourceforge.net/DTD/sodipodi-0.dtd" xmlns:inkscape="http://www.inkscape.org/namespaces/inkscape">
 <defs>
  <linearGradient x2="0" y1="962.62" y2="1046.1" gradientUnits="userSpaceOnUse" id="linearGradient11642" gradientTransform="matrix(1.15 0 0 1.15 -7.2 -150.65)">
   <stop stop-color="#4490e6"/>
   <stop stop-color="#103d8f" offset="1"/>
  </linearGradient>
  <linearGradient x1="79.81" x2="39.33" y1="106.04" y2="35.918" gradientUnits="userSpaceOnUse" id="linearGradient3588" gradientTransform="matrix(0.96593 0.25882 -0.25882 0.96593 30 -25.916)">
   <stop/>
   <stop stop-opacity="0" offset="1"/>
  </linearGradient>
  <filter color-interpolation-filters="sRGB" id="filter4304">
   <feGaussianBlur stdDeviation="0.53347"/>
  </filter>
  <radialGradient cy="28.1" r="36.428" gradientUnits="userSpaceOnUse" id="radialGradient4323-7" cx="39.05" gradientTransform="matrix(0.02522 1.5993 -0.98834 0.01558 65.834 -34.797)">
   <stop stop-color="#fff9b9"/>
   <stop stop-color="#fff79e" stop-opacity="0" offset="1"/>
  </radialGradient>
  <radialGradient cy="32" r="8" gradientUnits="userSpaceOnUse" id="radialGradient4333-9" cx="32">
   <stop stop-color="#ffb800"/>
   <stop stop-color="#ffb800" stop-opacity="0" offset="1"/>
  </radialGradient>
  <radialGradient cy="31.602" r="7.245" gradientUnits="userSpaceOnUse" id="radialGradient3556" cx="29.09">
   <stop stop-color="#ffe375"/>
   <stop stop-color="#ffa600" offset="1"/>
  </radialGradient>
  <linearGradient x1="48" x2="55.08" gradientUnits="userSpaceOnUse" id="linearGradient4238">
   <stop/>
   <stop stop-color="#a5a5a5" offset="0.3"/>
   <stop stop-color="#4c4c4c" offset="0.6"/>
   <stop offset="1"/>
  </linearGradient>
  <linearGradient x1="48" x2="56.15" xlink:href="#linearGradient4654" gradientUnits="userSpaceOnUse" id="linearGradient4240"/>
  <linearGradient id="linearGradient4654">
   <stop stop-color="#a5a5a5"/>
   <stop stop-color="#fff" offset="0.3"/>
   <stop stop-color="#a5a5a5" offset="0.6"/>
   <stop stop-color="#636363" offset="1"/>
  </linearGradient>
  <linearGradient x1="48" x2="55.869" xlink:href="#linearGradient4654" gradientUnits="userSpaceOnUse" id="linearGradient4242" gradientTransform="matrix(1 0 0 -1 0 112)"/>
  <linearGradient x2="0" xlink:href="#linearGradient3588" y1="96" y2="31.678" gradientUnits="userSpaceOnUse" id="linearGradient4244"/>
  <clipPath clipPathUnits="userSpaceOnUse" id="clipPath3009">
   <path d="m-2 956.36h-96v33.562l96 25.687v-59.25z"/>
  </clipPath>
  <path d="m61.896 17.343c-0.13523-0.04214-0.28289-0.05044-0.41667-0.01459l-5.7872 1.5552c-0.53512 0.14339-0.80493 0.9157-0.58985 1.7184l3.2386 12.062 6.7336 25.098 4.3788 16.379 5.5853 20.811c0.21508 0.80269 0.82422 1.3488 1.3593 1.2054l5.7872-1.5552c0.53512-0.14339 0.80493-0.9157 0.58985-1.7184l-5.585-20.81-4.379-16.379-6.733-25.098-3.239-12.062c-0.161-0.602-0.537-1.064-0.942-1.191z" fill="url(#linearGradient3588)" color="#000000" filter="url(#filter4304)" id="SVGCleanerId_0"/>
  <path d="m40 32a8 8 0 1 1 -16 0 8 8 0 1 1 16 0z" fill="url(#radialGradient4333-9)" color="#000000" id="SVGCleanerId_1"/>
  <path d="m23.906 22.634 2.3835 8.2161-6.187 5.9312 8.187-2.4671 5.9915 6.2706-2.5274-8.2706 6.331-5.9079-8.331 2.4438-5.8476-6.2161z" color="#000000" id="SVGCleanerId_2" opacity="0.1"/>
  <path d="m33.778 39.713-5.2168-6.034-7.577 2.606 6.0744-5.1503-2.6463-7.6434 5.1635 6.0648 7.6303-2.6368-6.0258 5.3543 2.5977 7.4395z" color="#000000" id="SVGCleanerId_3" opacity="0.2"/>
  <path d="m33.278 38.847-4.5293-5.952-6.8985 2.8899 5.952-4.5293-2.8899-6.8985 4.5293 5.952 6.8985-2.8899-5.952 4.5293z" fill="url(#radialGradient3556)" color="#000000" id="SVGCleanerId_4"/>
  <rect x="48" rx="1" y="16" ry="1.5" color="#000000" height="80" id="SVGCleanerId_5" width="8"/>
 </defs>
 <g transform="matrix(1 0 0 1 0 -956.36)">
  <rect x="2" rx="25" y="958.36" fill="url(#linearGradient11642)" height="92" width="92"/>
  <g enable-background="new" transform="matrix(1 0 0 1 -4 950.36)">
   <use xlink:href="#SVGCleanerId_0" opacity="0.1" transform="matrix(0.82861 -0.55983 0.55983 0.82861 -40.811 58.691)"/>
   <use xlink:href="#SVGCleanerId_0" opacity="0.3" transform="matrix(0.93864 -0.34491 0.34491 0.93864 -28.481 31.914)"/>
   <use xlink:href="#SVGCleanerId_0" opacity="0.12"/>
   <path d="m73.344 6c-7.3603 25.499-22.654 54.408-36 50.031-14.048-4.606-5.119-23.279-0.656-27.875-5.255 4.927-18.401 25.282-1.626 34.188 12.933 6.865 39.734-8.785 54.938-29.969v-20.375c0-3.324-2.676-6-6-6h-10.656z" fill="url(#radialGradient4323-7)" opacity="0.4"/>
   <g fill="#fc0" transform="matrix(1.1299 0 0 1.1299 7.447 29.55)">
    <use xlink:href="#SVGCleanerId_1" transform="matrix(1 0 0 1 -1 -1)"/>
    <use xlink:href="#SVGCleanerId_2" transform="matrix(0.86603 0.5 -0.5 0.86603 21.657 -10.862)"/>
    <use xlink:href="#SVGCleanerId_3" transform="matrix(0.86603 0.5 -0.5 0.86603 21.657 -10.862)"/>
    <use xlink:href="#SVGCleanerId_4" transform="matrix(0.86603 0.5 -0.5 0.86603 21.657 -10.862)"/>
   </g>
   <g fill="#fc0" transform="matrix(0.74836 0 0 0.74836 49.786 23.15)">
    <use xlink:href="#SVGCleanerId_1" transform="matrix(1 0 0 1 -1 -1)"/>
    <use xlink:href="#SVGCleanerId_2" transform="matrix(0.86603 0.5 -0.5 0.86603 21.657 -10.862)"/>
    <use xlink:href="#SVGCleanerId_3" transform="matrix(0.86603 0.5 -0.5 0.86603 21.657 -10.862)"/>
    <use xlink:href="#SVGCleanerId_4" transform="matrix(0.86603 0.5 -0.5 0.86603 21.657 -10.862)"/>
   </g>
   <g fill="#fc0" transform="matrix(1.8398 0 0 1.8398 -31.18 -10.84)">
    <use xlink:href="#SVGCleanerId_1" transform="matrix(1 0 0 1 -1 -1)"/>
    <use xlink:href="#SVGCleanerId_2" transform="matrix(0.86603 0.5 -0.5 0.86603 21.657 -10.862)"/>
    <use xlink:href="#SVGCleanerId_3" transform="matrix(0.86603 0.5 -0.5 0.86603 21.657 -10.862)"/>
    <use xlink:href="#SVGCleanerId_4" transform="matrix(0.86603 0.5 -0.5 0.86603 21.657 -10.862)"/>
   </g>
   <g fill="#fc0" transform="matrix(0.87788 0 0 0.87788 3.933 -6.34)">
    <use xlink:href="#SVGCleanerId_1" transform="matrix(1 0 0 1 -1 -1)"/>
    <use xlink:href="#SVGCleanerId_2" transform="matrix(0.86603 0.5 -0.5 0.86603 21.657 -10.862)"/>
    <use xlink:href="#SVGCleanerId_3" transform="matrix(0.86603 0.5 -0.5 0.86603 21.657 -10.862)"/>
    <use xlink:href="#SVGCleanerId_4" transform="matrix(0.86603 0.5 -0.5 0.86603 21.657 -10.862)"/>
   </g>
   <g transform="matrix(0.86603 -0.5 0.5 0.86603 -14.03 37.27)">
    <use xlink:href="#SVGCleanerId_5" fill="url(#linearGradient4238)"/>
    <path d="m49 16c-0.554 0-1 0.669-1 1.5v12.5h8v-12.5c0-0.831-0.446-1.5-1-1.5z" fill="url(#linearGradient4240)" color="#000000"/>
    <path d="m49 96c-0.554 0-1-0.669-1-1.5v-12.5h8v12.5c0 0.831-0.446 1.5-1 1.5z" fill="url(#linearGradient4242)" color="#000000"/>
    <use xlink:href="#SVGCleanerId_5" fill="url(#linearGradient4244)" opacity="0.3"/>
    <path d="m49 16c-0.554 0-1 0.669-1 1.5v77c0 0.831 0.446 1.5 1 1.5h6c0.554 0 1-0.669 1-1.5v-77c0-0.831-0.446-1.5-1-1.5zm0.125 1h5.75c0.049 0.074 0.125 0.264 0.125 0.5v77c0 0.23568-0.07571 0.42606-0.125 0.5h-5.75c-0.049-0.074-0.125-0.264-0.125-0.5v-77c0-0.23568 0.07571-0.42606 0.125-0.5z" color="#000000" opacity="0.2"/>
   </g>
  </g>
  <rect x="-96" rx="25" y="958.36" clip-path="url(#clipPath3009)" fill="#fff" height="92" opacity="0.15" width="92" transform="matrix(1 0 0 1 98 0)"/>
 </g>
</svg>
