<svg height="96" width="96" xmlns="http://www.w3.org/2000/svg" xmlns:xlink="http://www.w3.org/1999/xlink" xmlns:sodipodi="http://sodipodi.sourceforge.net/DTD/sodipodi-0.dtd" xmlns:inkscape="http://www.inkscape.org/namespaces/inkscape">
 <defs>
  <clipPath clipPathUnits="userSpaceOnUse" id="clipPath3009">
   <path d="m-2 956.36h-96v33.562l96 25.687v-59.25z"/>
  </clipPath>
  <linearGradient x1="6" x2="90" gradientUnits="userSpaceOnUse" id="linearGradient3098" gradientTransform="matrix(1.1429 0 0 1.1429 -1059.2 -6.857)">
   <stop stop-color="#2458a6"/>
   <stop stop-color="#598ad4" offset="1"/>
  </linearGradient>
  <clipPath clipPathUnits="userSpaceOnUse" id="clipPath3018">
   <rect x="2" rx="25" y="958.36" height="92" width="92" transform="matrix(0 1 -1 0 0 0)"/>
  </clipPath>
  <linearGradient x1="-1.92" x2="64.7" y1="14.275" y2="27.798" gradientUnits="userSpaceOnUse" id="linearGradient2874">
   <stop stop-color="#00f"/>
   <stop stop-color="#fff" offset="1"/>
  </linearGradient>
  <rect x="1.252" y="2.337" fill="none" stroke="#000" height="24.626" id="SVGCleanerId_0" width="40.4"/>
 </defs>
 <g transform="matrix(1 0 0 1 0 -956.36)">
  <rect x="-1052.4" rx="6.857" clip-path="url(#clipPath3018)" fill="url(#linearGradient3098)" height="96" width="96" transform="matrix(0 -1 1 0 0 0)"/>
  <g transform="matrix(1 0 0 1 0 956.36)">
   <g transform="matrix(1.4364 0 0 1.4338 19.5 35.582)">
    <path d="m1.1603 22.885 0.083478-4.2041 2.9009 0.11108c6.0121-0.14501 9.8476-0.43518 12.334-0.8937 1.0272-0.18943 3.5856-0.86021 4.0715-1.0543 0.37844-0.15116 0.99384-0.4016 1.1383-0.8345 0.05785-0.17332 0.22082-0.90782 0.26013-1.7343 0.07996-1.6809 0.48246-2.0092 0.8383-2.4145 0.33715-0.38399 0.70785-0.87967 1.61-0.93708 2.1972-0.13983 5.1159 0.87003 7.6736 2.1435 2.0741 1.0327 3.8756 1.8294 6.646 4.2861 1.418 1.2574 2.5688 1.8056 3.0061 1.8056l0.0083 3.84-0.16696 4.0904-20.118-0.08348h-20.285v-4.1207z" fill="#3d5630"/>
    <path d="m40.129 18.452c-0.29-0.241-1.042-0.907-1.57-1.379-3.875-3.459-6.872-5.683-10.663-6.487-0.95-0.202-1.248-0.227-2.736-0.23-1.5709-0.004-1.6153 0.50838-2.0801 0.6957-0.63473 0.25577-1.2316 0.2765-1.4717 0.90943-0.1493 0.39368 0.14083 0.75168 0.08468 2.0378-0.07641 1.7501-0.16625 2.5846-0.61556 2.7869-0.32062 0.14436-3.3606 0.90537-4.2659 1.0766-2.245 0.42454-5.8642 0.6358-10.726 0.75258-1.033 0.02481-2.737 0.06445-3.2765 0.08808l-1.4817-0.04051v-8.0163l0.2514-8.2669 19.868-0.2504 20.034 0.3339 0.167 8.3384c0 8.9443 0.75563 9.0986-0.18269 8.3188l-1.3357-0.66782z" fill="#d5c985"/>
    <use xlink:href="#SVGCleanerId_0"/>
    <path d="m1.6696 18.783c15.443-0.25044 15.527-1.1687 18.95-1.92 2.7336-0.60006-0.78007-5.9341 3.7565-6.0939 9.3398-0.32903 16.195 8.6817 17.113 8.5148" stroke-width="1" fill="none" stroke="#000"/>
   </g>
   <g transform="matrix(1.4364 0 0 1.4338 13.924 18.406)">
    <path d="m27.896 10.586c-1.1427-0.29806-5.9635 0.53324-5.9532 1.2913 0.0057 0.421-0.69408 0.91323-0.24924 2.1213 1.2592 3.4196-4.2625 3.4749-5.1319 3.78-2.1615 0.75846-5.9477 0.6358-10.81 0.75258-1.033 0.02481-2.4866-0.01903-3.0261 0.0046l-1.5652 0.12645 0.16696-8.0997 0.083478-8.0997 19.951 0.083478h20.202l-0.08348 8.0877c0 8.9443 0.0043 8.6812-0.93399 7.9014 0 0-8.9008-6.9711-12.651-7.9492z" fill="#8baeff"/>
    <path d="m1.2438 22.885v-3.9537l2.8174-0.13935c6.0121-0.14501 9.8476-0.3517 12.334-0.81022 1.0272-0.18943 3.9195-1.0272 4.4054-1.2212 0.37844-0.15116 1.1608-0.23464 1.3053-0.66754 0.05785-0.17332-0.36353-0.90782-0.32422-1.7343 0.07996-1.6809 0.31551-2.4266 0.67134-2.8319 0.33715-0.38399 1.0418-0.79619 1.944-0.8536 2.1972-0.13983 5.5333 0.87003 8.091 2.1435 2.0741 1.0327 4.0425 2.4972 6.813 4.9539 1.418 1.2574 1.5671 1.3882 2.0043 1.3882l0.34217 0.41739-0.08348 3.673-0.16696 3.673h-19.951-20.202v-4.0372z" fill="url(#linearGradient2874)"/>
    <path d="m1.6696 18.783c15.443-0.25044 15.527-1.1687 18.95-1.92 2.7336-0.60006-0.78007-5.9341 3.7565-6.0939 9.3398-0.32903 16.195 8.5148 17.113 8.3478" stroke-width="1" fill="none" stroke="#000"/>
    <use xlink:href="#SVGCleanerId_0"/>
   </g>
   <g transform="matrix(1.4364 0 0 1.4338 13.504 13.798)">
    <path d="m27.312 24.719c-14.799 3.612-10.311 7.269-4.25 9.281l-0.53125 0.46875 4.4375 0.59375-2.6875-2.0938-0.5625 0.46875c-3.9768-2.449-7.4865-4.6931 3.5938-4.7188v-4z" fill="#d7ff35" fill-rule="evenodd"/>
    <path d="m31.08 35.469c14.8-3.6126 10.311-7.2689 4.25-9.2812l0.53125-0.46875-4.4375-0.59375 2.6875 2.0938 0.5625-0.46875c3.9768 2.449 7.4865 4.6931-3.5938 4.7188v4z" fill="#d7ff35" fill-rule="evenodd"/>
   </g>
  </g>
  <rect x="-96" rx="25" y="958.36" clip-path="url(#clipPath3009)" fill="#fff" height="92" opacity="0.15" width="92" transform="matrix(1 0 0 1 98 0)"/>
 </g>
</svg>
