<?xml version="1.0" encoding="UTF-8" standalone="no"?>
<!-- Created with Inkscape (http://www.inkscape.org/) -->

<svg
   xmlns:dc="http://purl.org/dc/elements/1.1/"
   xmlns:cc="http://creativecommons.org/ns#"
   xmlns:rdf="http://www.w3.org/1999/02/22-rdf-syntax-ns#"
   xmlns:svg="http://www.w3.org/2000/svg"
   xmlns="http://www.w3.org/2000/svg"
   xmlns:sodipodi="http://sodipodi.sourceforge.net/DTD/sodipodi-0.dtd"
   xmlns:inkscape="http://www.inkscape.org/namespaces/inkscape"
   id="svg11037"
   height="96"
   width="96"
   version="1.1"
   inkscape:version="0.48.5 r10040"
   sodipodi:docname="devede.svg">
  <sodipodi:namedview
     pagecolor="#ffffff"
     bordercolor="#666666"
     borderopacity="1"
     objecttolerance="10"
     gridtolerance="10"
     guidetolerance="10"
     inkscape:pageopacity="0"
     inkscape:pageshadow="2"
     inkscape:window-width="640"
     inkscape:window-height="480"
     id="namedview8096" />
  <defs
     id="defs11039">
    <linearGradient
       id="linearGradient11642"
       y2="1046.1"
       gradientUnits="userSpaceOnUse"
       y1="962.62"
       gradientTransform="matrix(1.15 0 0 1.15 -7.1999 -150.65)"
       x2="48"
       x1="48">
      <stop
         id="stop3855"
         style="stop-color:#672178"
         offset="0" />
      <stop
         id="stop3857"
         style="stop-color:#ad77bb"
         offset="1" />
    </linearGradient>
    <radialGradient
       id="radialGradient3949"
       gradientUnits="userSpaceOnUse"
       cy="61.922"
       cx="59.894"
       gradientTransform="matrix(1 0 0 .83754 0 10.06)"
       r="33.714">
      <stop
         id="stop3344"
         style="stop-opacity:0"
         offset="0" />
      <stop
         id="stop3350"
         style="stop-opacity:0"
         offset="0.85" />
      <stop
         id="stop3346"
         offset="1" />
    </radialGradient>
    <clipPath
       id="clipPath3999">
      <path
         id="path4001"
         style="fill:#f0f;fill-rule:evenodd"
         d="m18 14.812c-18.215 0-33 14.784-33 33s14.785 33 33 33 33-14.784 33-33c0-0.27935 0.007-0.56606 0-0.84375h-21.281c0.0194 0.27544 0.0312 0.56342 0.0312 0.84375 0 6.4835-5.2668 11.75-11.75 11.75s-11.75-5.2665-11.75-11.75 5.2668-11.75 11.75-11.75c0.0213 0 0.0413-0.000113 0.0625 0v-21.25c-0.0211-0.00004-0.0414 0-0.0625 0z" />
    </clipPath>
    <linearGradient
       id="linearGradient3997"
       y2="64"
       gradientUnits="userSpaceOnUse"
       x2="123"
       gradientTransform="matrix(.48435 .27965 -.27964 .48437 4.8979 -.89859)"
       y1="64"
       x1="5">
      <stop
         id="stop3235"
         style="stop-color:#fff;stop-opacity:0"
         offset="0" />
      <stop
         id="stop3297"
         style="stop-color:#fff;stop-opacity:0"
         offset="0.15" />
      <stop
         id="stop3241"
         style="stop-color:#fff"
         offset=".5" />
      <stop
         id="stop3299"
         style="stop-color:#fff;stop-opacity:0"
         offset="0.85" />
      <stop
         id="stop3237"
         style="stop-color:#fff;stop-opacity:0"
         offset="1" />
    </linearGradient>
    <clipPath
       id="clipPath4187">
      <path
         id="path4189"
         style="fill:#bbb1bf"
         d="m48 102c-19.882 0-36 16.118-36 36s16.118 36 36 36 36-16.118 36-36-16.118-36-36-36zm0 24c6.6274 0 12 5.3726 12 12s-5.3726 12-12 12-12-5.3726-12-12 5.3726-12 12-12z" />
    </clipPath>
    <filter
       id="filter4195"
       height="1.36"
       width="1.36"
       color-interpolation-filters="sRGB"
       y="-0.18"
       x="-0.18">
      <feGaussianBlur
         id="feGaussianBlur4197"
         stdDeviation="5.2159999" />
    </filter>
    <linearGradient
       id="linearGradient3951"
       y2="61.922"
       gradientUnits="userSpaceOnUse"
       x2="94.568"
       y1="61.922"
       x1="25.22">
      <stop
         id="stop3364"
         style="stop-color:#4d4d4d"
         offset="0" />
      <stop
         id="stop3366"
         style="stop-color:#fff"
         offset="1" />
    </linearGradient>
    <linearGradient
       id="linearGradient3970"
       y2="61.922"
       gradientUnits="userSpaceOnUse"
       x2="93.608"
       gradientTransform="matrix(0 .28234 -.33917 0 69.001 30.891)"
       y1="61.922"
       x1="26.18">
      <stop
         id="stop3332"
         style="stop-color:#fff;stop-opacity:.20312"
         offset="0" />
      <stop
         id="stop3334"
         style="stop-color:#fff;stop-opacity:.67969"
         offset="1" />
    </linearGradient>
    <clipPath
       id="clipPath3009"
       clipPathUnits="userSpaceOnUse">
      <path
         id="path3011"
         style="opacity:.15;fill:#fff"
         d="m-2 956.36h-96v33.562l96 25.687v-59.25z" />
    </clipPath>
  </defs>
  <metadata
     id="metadata11042">
    <rdf:RDF>
      <cc:Work
         rdf:about="">
        <dc:format>image/svg+xml</dc:format>
        <dc:type
           rdf:resource="http://purl.org/dc/dcmitype/StillImage" />
        <dc:title />
      </cc:Work>
    </rdf:RDF>
  </metadata>
  <g
     id="layer1"
     transform="translate(0 -956.36)">
    <rect
       id="rect3867"
       style="fill:url(#linearGradient11642)"
       rx="25"
       ry="25"
       height="92"
       width="92"
       y="958.36"
       x="2" />
    <g
       id="g3106"
       transform="translate(3.3333e-7 956.36)">
      <path
         id="rect4005"
         d="m48 14.812v21.25c6.213 0 11.306 4.829 11.719 10.938h21.281c-0.428-17.844-15.054-32.188-33-32.188z"
         style="opacity:.2;color:#000000;fill:#fff" />
      <path
         id="path3307"
         d="m47.999 36c-6.5134 0-11.801 5.2879-11.801 11.802 0 6.5136 5.2877 11.802 11.801 11.802 6.5134 0 11.801-5.2879 11.801-11.802 0-6.5136-5.2877-11.802-11.801-11.802zm0 8.3369c1.9124-0.000001 3.4645 1.5522 3.4645 3.4647s-1.5521 3.4647-3.4645 3.4647-3.4645-1.5522-3.4645-3.4647 1.5521-3.4647 3.4645-3.4647z"
         style="opacity:.3;fill:#fff;fill-rule:evenodd" />
      <path
         id="path3328"
         d="m92.58 61.922a32.686 27.208 0 1 1 -65.371 0 32.686 27.208 0 1 1 65.371 0z"
         style="opacity:.3;fill:url(#radialGradient3949);fill-rule:evenodd"
         transform="matrix(0 .26689 -.32060 0 67.852 31.816)" />
      <g
         id="g3981"
         transform="translate(30)"
         clip-path="url(#clipPath3999)">
        <path
           id="path3170"
           d="m17.999 14.802c-18.215 0-32.998 14.784-32.998 32.999 0 18.216 14.783 32.999 32.998 32.999s32.998-14.784 32.998-32.999c0-18.216-14.783-32.999-32.998-32.999zm0 21.254c6.4832-0.000001 11.745 5.262 11.745 11.745 0 6.4835-5.2617 11.745-11.745 11.745-6.4832 0-11.745-5.262-11.745-11.745 0-6.4835 5.2618-11.745 11.745-11.745z"
           style="fill:#ccbb98;fill-rule:evenodd" />
        <path
           id="path3230"
           d="m34.498 19.421c-15.774-9.108-35.968-3.696-45.075 12.079-9.108 15.775-3.697 35.97 12.078 45.077 15.774 9.108 35.968 3.697 45.075-12.078 9.108-15.775 3.697-35.97-12.078-45.078zm-10.626 18.406c5.6146 3.2417 7.5406 10.43 4.299 16.045-3.2416 5.6149-10.429 7.5409-16.044 4.2991-5.6146-3.2417-7.5406-10.43-4.299-16.045 3.2416-5.6149 10.429-7.5409 16.044-4.2991z"
           style="opacity:.8;fill:url(#linearGradient3997);fill-rule:evenodd" />
        <g
           id="g4175"
           style="opacity:.6;filter:url(#filter4195)"
           transform="matrix(.91667 0 0 .91667 -26 -78.5)"
           clip-path="url(#clipPath4187)">
          <path
             id="path4039"
             d="m60.947 57.784a20.708 18.814 0 0 1 -2.6155 2.9059l-14.643-13.304z"
             style="fill:#7137c8"
             transform="matrix(1.5055 .86922 -.95673 1.6571 27.56 21.5)" />
          <path
             id="path4041"
             d="m60.779 58.011a20.708 18.814 0 0 1 -3.384 3.4788l-13.706-14.104z"
             style="fill:#0cf"
             transform="matrix(1.6792 .44994 -.49524 1.8483 -1.8956 30.76)" />
          <path
             id="path4043"
             d="m62.724 54.796a20.708 18.814 0 0 1 -2.2597 3.6221l-16.775-11.032z"
             style="fill:#fc0"
             transform="matrix(1.7384 0 -6.0266e-8 1.9135 -27.951 47.328)" />
          <path
             id="path4045"
             d="m61.623 56.793a20.708 18.814 0 0 1 -1.6993 2.2728l-16.235-11.68z"
             style="fill:#f00"
             transform="matrix(1.6792 -.44994 .49524 1.8483 -48.831 70.075)" />
          <path
             id="path4144"
             d="m63.123 53.883a20.708 18.814 0 0 1 -2.37 4.1619l-17.064-10.659z"
             style="fill:#0f0"
             transform="matrix(1.6792 .44994 -.49524 1.8483 -1.8956 30.76)" />
          <path
             id="path4155"
             d="m60.947 57.784a20.708 18.814 0 0 1 -2.6155 2.9059l-14.643-13.304z"
             style="fill:#7137c8"
             transform="matrix(-1.5055 -.86922 .95673 -1.6571 68.44 254.5)" />
          <path
             id="path4157"
             d="m60.779 58.011a20.708 18.814 0 0 1 -3.384 3.4788l-13.706-14.104z"
             style="fill:#0cf"
             transform="matrix(-1.6792 -.44994 .49524 -1.8483 97.896 245.24)" />
          <path
             id="path4159"
             d="m62.724 54.796a20.708 18.814 0 0 1 -2.2597 3.6221l-16.775-11.032z"
             style="fill:#fc0"
             transform="matrix(-1.7384 0 6.0266e-8 -1.9135 123.95 228.67)" />
          <path
             id="path4161"
             d="m61.623 56.793a20.708 18.814 0 0 1 -1.6993 2.2728l-16.235-11.68z"
             style="fill:#f00"
             transform="matrix(-1.6792 .44994 -.49524 -1.8483 144.83 205.92)" />
          <path
             id="path4163"
             d="m63.123 53.883a20.708 18.814 0 0 1 -2.37 4.1619l-17.064-10.659z"
             style="fill:#0f0"
             transform="matrix(-1.6792 -.44994 .49524 -1.8483 97.896 245.24)" />
        </g>
      </g>
      <path
         id="path3352"
         d="m92.58 61.922a32.686 27.208 0 1 1 -65.371 0 32.686 27.208 0 1 1 65.371 0z"
         style="opacity:.6;stroke:url(#linearGradient3951);stroke-linecap:round;stroke-width:7.3299;fill:none"
         transform="matrix(0 .12448 -.14953 0 57.258 40.346)" />
      <path
         id="path3942"
         d="m57.777 47.805c0-5.302-4.3305-9.6879-9.7828-9.6879-5.4524 0-9.7722 4.3859-9.7722 9.6879s4.3199 9.6791 9.7722 9.6791c5.4524 0 9.7828-4.3771 9.7828-9.6791zm-1.1023 0c0 4.8916-3.9397 8.7703-8.6805 8.7703s-8.6699-3.8788-8.6699-8.7703c0-4.8916 3.9291-8.7791 8.6699-8.7791s8.6805 3.8876 8.6805 8.7791z"
         style="opacity:.5;block-progression:tb;text-indent:0;color:#000000;text-transform:none;fill:url(#linearGradient3970)" />
      <path
         id="path3745"
         d="m44.752 65-4.7643 0.01045h-3.584l-0.36484 1.4778 2.7148 0.01045h0.62773c1.7427 0 2.8076 0.68492 2.5109 1.8851-0.32014 1.3153-1.8487 1.8903-3.4606 1.8903h-0.60091l0.77796-3.2324h-2.6987l-1.1535 4.7206h3.8415c2.8804 0 5.6313-1.475 6.1057-3.3786 0.09462-0.34639 0.08602-1.2147-0.1395-1.7337 0-0.02317-0.01508-0.03217-0.02682-0.07834-0.0122-0.01147-0.02059-0.09319 0.02682-0.10444 0.02391-0.01161 0.06873 0.03536 0.08049 0.047 0.02351 0.05768 0.03755 0.09922 0.03755 0.09922l2.4412 6.7154 6.2237-6.8303h2.629 0.6331c1.7427 0 2.8065 0.68492 2.5217 1.8851-0.33189 1.3153-1.8593 1.8903-3.4713 1.8903h-0.60627l0.78333-3.2324h-2.7041l-1.1482 4.7206h3.8415c2.8808 0 5.6435-1.475 6.1057-3.3786 0.47413-1.8923-1.5659-3.3734-4.4585-3.3734h-5.7247s-1.518 1.7437-1.8027 2.0783c-1.5053 1.765-1.7817 2.2385-1.8295 2.3655 0.01192-0.127-0.04668-0.59796-0.68675-2.3864-0.1775-0.48464-0.71894-2.0574-0.71894-2.0574h-1.9583v-0.01045zm2.468 8.3551c-7.303 0-13.22 0.819-13.22 1.823 0 1.015 5.917 1.822 13.22 1.822 7.3024 0 13.225-0.80704 13.225-1.8225 0-1.0036-5.923-1.8225-13.225-1.8225zm-0.47751 1.2585c1.6716 0 3.026 0.26625 3.026 0.60052 0 0.33466-1.3544 0.61097-3.026 0.61097-1.6718 0-3.0206-0.27631-3.0206-0.61097 0-0.33427 1.3488-0.60052 3.0206-0.60052z"
         style="opacity:.6;fill-rule:evenodd" />
      <path
         id="path3304"
         d="m92.58 61.922a32.686 27.208 0 1 1 -65.371 0 32.686 27.208 0 1 1 65.371 0z"
         style="opacity:.15;stroke:#000;stroke-linecap:round;stroke-width:6.0695;fill:none"
         transform="matrix(.45096 0 0 .54175 20.99 14.355)" />
      <rect
         id="rect4042"
         style="opacity:.1;color:#000000"
         height="21"
         width="1"
         y="15"
         x="48" />
      <rect
         id="rect4044"
         style="opacity:.1;color:#000000"
         transform="matrix(0,-1,-1,0,0,0)"
         height="21"
         width="1"
         y="-81"
         x="-47" />
      <path
         id="path4046"
         d="m48 14.812c-18.215 0-33 14.784-33 33 0 0.1686-0.003 0.33199 0 0.5 0.26532-17.987 14.951-32.5 33-32.5s32.735 14.513 33 32.5c0.003-0.16801 0-0.3314 0-0.5 0-18.216-14.785-33-33-33z"
         style="opacity:.5;fill:#fff;fill-rule:evenodd" />
    </g>
    <rect
       id="rect3003"
       style="opacity:.15;fill:#fff"
       transform="translate(98 3.8281e-7)"
       clip-path="url(#clipPath3009)"
       rx="25"
       ry="25"
       height="92"
       width="92"
       y="958.36"
       x="-96" />
  </g>
</svg>
