<?xml version="1.0" encoding="UTF-8" standalone="no"?>
<!-- Created with Inkscape (http://www.inkscape.org/) -->

<svg
   xmlns:dc="http://purl.org/dc/elements/1.1/"
   xmlns:cc="http://creativecommons.org/ns#"
   xmlns:rdf="http://www.w3.org/1999/02/22-rdf-syntax-ns#"
   xmlns:svg="http://www.w3.org/2000/svg"
   xmlns="http://www.w3.org/2000/svg"
   xmlns:sodipodi="http://sodipodi.sourceforge.net/DTD/sodipodi-0.dtd"
   xmlns:inkscape="http://www.inkscape.org/namespaces/inkscape"
   id="svg11037"
   height="96"
   width="96"
   version="1.1"
   inkscape:version="0.48.5 r10040"
   sodipodi:docname="devhelp.svg">
  <sodipodi:namedview
     pagecolor="#ffffff"
     bordercolor="#666666"
     borderopacity="1"
     objecttolerance="10"
     gridtolerance="10"
     guidetolerance="10"
     inkscape:pageopacity="0"
     inkscape:pageshadow="2"
     inkscape:window-width="640"
     inkscape:window-height="480"
     id="namedview8135" />
  <defs
     id="defs11039">
    <linearGradient
       id="linearGradient11642"
       y2="1046.1"
       gradientUnits="userSpaceOnUse"
       y1="962.62"
       gradientTransform="matrix(1.15 0 0 1.15 -7.1999 -150.65)"
       x2="48"
       x1="48">
      <stop
         id="stop3629"
         style="stop-color:#a91c1c"
         offset="0" />
      <stop
         id="stop3631"
         style="stop-color:#dd2c2c"
         offset="1" />
    </linearGradient>
    <filter
       id="filter3850"
       color-interpolation-filters="sRGB">
      <feGaussianBlur
         id="feGaussianBlur3852"
         stdDeviation="0.46499996" />
    </filter>
    <linearGradient
       id="linearGradient6583"
       x1="16"
       gradientUnits="userSpaceOnUse"
       y1="88"
       gradientTransform="matrix(.55816 0 0 .65469 17.151 972.93)"
       x2="16"
       y2="8">
      <stop
         id="stop3642"
         style="stop-color:#1a1a1a"
         offset="0" />
      <stop
         id="stop3644"
         style="stop-color:#2a2a2a"
         offset="1" />
    </linearGradient>
    <linearGradient
       id="linearGradient6585"
       x1="84"
       gradientUnits="userSpaceOnUse"
       y1="62"
       gradientTransform="translate(-57.375,968.11)"
       x2="84"
       y2="45.969">
      <stop
         id="stop3816"
         style="stop-color:#2499b6"
         offset="0" />
      <stop
         id="stop3818"
         style="stop-color:#57c3de"
         offset="1" />
    </linearGradient>
    <linearGradient
       id="linearGradient6587"
       x1="83"
       gradientUnits="userSpaceOnUse"
       y1="26"
       gradientTransform="translate(-57.375,968.11)"
       x2="83"
       y2="9.9688">
      <stop
         id="stop3787"
         style="stop-color:#ff8e00"
         offset="0" />
      <stop
         id="stop3789-0"
         style="stop-color:#ffcc0a"
         offset="1" />
    </linearGradient>
    <linearGradient
       id="linearGradient6589"
       x1="84"
       gradientUnits="userSpaceOnUse"
       y1="44"
       gradientTransform="translate(-57.375,968.11)"
       x2="84"
       y2="28">
      <stop
         id="stop3808"
         style="stop-color:#4baa0c"
         offset="0" />
      <stop
         id="stop3810"
         style="stop-color:#66d819"
         offset="1" />
    </linearGradient>
    <clipPath
       id="clipPath3009"
       clipPathUnits="userSpaceOnUse">
      <path
         id="path3011"
         style="opacity:.15;fill:#fff"
         d="m-2 956.36h-96v33.562l96 25.687v-59.25z" />
    </clipPath>
  </defs>
  <metadata
     id="metadata11042">
    <rdf:RDF>
      <cc:Work
         rdf:about="">
        <dc:format>image/svg+xml</dc:format>
        <dc:type
           rdf:resource="http://purl.org/dc/dcmitype/StillImage" />
        <dc:title />
      </cc:Work>
    </rdf:RDF>
  </metadata>
  <g
     id="layer1"
     transform="translate(0 -956.36)">
    <rect
       id="rect3867"
       style="fill:url(#linearGradient11642)"
       rx="25"
       ry="25"
       height="92"
       width="92"
       y="958.36"
       x="2" />
    <g
       id="g3041"
       transform="translate(4.4995 .17225)">
      <g
         id="g3098"
         transform="matrix(1.3398,0,0,1.3398,-23.036,940.18)">
        <path
           id="path3854"
           style="opacity:.3;filter:url(#filter3850);fill:#faa"
           d="m39.844 29.188a0.82494 0.82494 0 0 0 -0.656 0.812v36a0.82494 0.82494 0 0 0 0.812 0.812h11.812c2.1121 0 4.0777-0.41946 5.9062-1.25 1.8505-0.83386 3.4657-2.0613 4.8125-3.6875 1.3464-1.6257 2.3985-3.6219 3.1562-5.9688 0.76401-2.3842 1.125-5.1232 1.125-8.1875-0.000033-3.1316-0.35941-5.8448-1.1562-8.1875a0.82494 0.82494 0 0 0 0 -0.03125c-0.79055-2.3239-1.9183-4.2375-3.375-5.7812-1.4541-1.5409-3.2169-2.698-5.2188-3.4375-1.9864-0.73366-4.1483-1.0937-6.5-1.0938h-10.562a0.82494 0.82494 0 0 0 -0.15625 0zm7.0625 7.4375h3.5312c1.304 0.000028 2.4633 0.20881 3.5 0.625a0.82494 0.82494 0 0 0 0 0.03125c1.0312 0.40914 1.9054 1.0259 2.6562 1.9062 0.73799 0.85019 1.353 1.997 1.7812 3.4062 0.43535 1.3908 0.65623 3.0872 0.65625 5.125-0.00002 1.9863-0.21053 3.7327-0.625 5.1875-0.40564 1.4696-0.9827 2.6619-1.6875 3.625-0.69548 0.95203-1.4822 1.6285-2.4062 2.0938-0.92289 0.47084-1.9304 0.75001-3.0312 0.75h-4.375v-22.75z" />
        <path
           id="path3827"
           style="fill:#fff"
           d="m66 47.732c-0.000032 2.9979-0.36574 5.638-1.0971 7.9205-0.73145 2.2654-1.732 4.1647-3.0016 5.6977-1.2697 1.533-2.7739 2.6913-4.5127 3.4748-1.7251 0.78353-3.5881 1.1753-5.5892 1.1753h-11.799v-36h10.557c2.2633 0.000039 4.3402 0.34924 6.2309 1.0476 1.8906 0.6984 3.5191 1.7715 4.8853 3.2193 1.3662 1.4479 2.4288 3.2875 3.1879 5.5188 0.759 2.231 1.139 4.88 1.139 7.946m-6.1481 0c-0.000021-2.0951-0.23462-3.8921-0.70382-5.3911-0.45543-1.4989-1.0972-2.7253-1.9252-3.6792-0.82805-0.97087-1.8217-1.6863-2.9809-2.1462-1.1455-0.45987-2.4151-0.68982-3.8089-0.68985h-4.3264v24.349h5.1752c1.2282 0.000009 2.3599-0.26399 3.3949-0.79205 1.0488-0.52803 1.9527-1.3116 2.7118-2.3506 0.7728-1.0561 1.3731-2.3591 1.801-3.9092 0.44159-1.55 0.6624-3.347 0.66242-5.3911" />
      </g>
      <g
         id="g6574"
         transform="matrix(1.0008 0 0 .87758 -.015941 123.1)">
        <path
           id="rect3635"
           style="fill:url(#linearGradient6583)"
           d="m23.849 976.86c-1.8553 0-3.349 1.7518-3.349 3.9281v47.138c0 2.176 1.4936 3.9281 3.349 3.9281h6.6979v-54.994h-6.698z" />
        <rect
           id="rect3779"
           style="color:#000000;fill:url(#linearGradient6585)"
           rx="2"
           ry="2"
           height="16"
           width="8"
           y="1014.1"
           x="21.625" />
        <path
           id="path3804"
           style="opacity:.2;color:#000000"
           d="m21.625 1027.1v1c0 1.108 0.892 2 2 2h4c1.108 0 2-0.892 2-2v-1c0 1.108-0.892 2-2 2h-4c-1.108 0-2-0.892-2-2z" />
        <rect
           id="rect3775"
           style="color:#000000;fill:url(#linearGradient6587)"
           rx="2"
           ry="2"
           height="16"
           width="8"
           y="978.11"
           x="21.625" />
        <path
           id="rect3793"
           style="opacity:.2;color:#000000"
           d="m21.625 991.11v1c0 1.108 0.892 2 2 2h4c1.108 0 2-0.892 2-2v-1c0 1.108-0.892 2-2 2h-4c-1.108 0-2-0.892-2-2z" />
        <rect
           id="rect3777"
           style="color:#000000;fill:url(#linearGradient6589)"
           rx="2"
           ry="2"
           height="16"
           width="8"
           y="996.11"
           x="21.625" />
        <path
           id="path3802"
           style="opacity:.2;color:#000000"
           d="m21.625 1009.1v1c0 1.108 0.892 2 2 2h4c1.108 0 2-0.892 2-2v-1c0 1.108-0.892 2-2 2h-4c-1.108 0-2-0.892-2-2z" />
      </g>
    </g>
    <rect
       id="rect3003"
       style="opacity:.15;fill:#fff"
       transform="translate(98 3.8281e-7)"
       clip-path="url(#clipPath3009)"
       rx="25"
       ry="25"
       height="92"
       width="92"
       y="958.36"
       x="-96" />
  </g>
</svg>
