<?xml version="1.0" encoding="UTF-8" standalone="no"?>
<svg
   xmlns:dc="http://purl.org/dc/elements/1.1/"
   xmlns:cc="http://creativecommons.org/ns#"
   xmlns:rdf="http://www.w3.org/1999/02/22-rdf-syntax-ns#"
   xmlns:svg="http://www.w3.org/2000/svg"
   xmlns="http://www.w3.org/2000/svg"
   xmlns:sodipodi="http://sodipodi.sourceforge.net/DTD/sodipodi-0.dtd"
   xmlns:inkscape="http://www.inkscape.org/namespaces/inkscape"
   height="96"
   width="96"
   id="svg2"
   version="1.1"
   inkscape:version="0.91 r13725"
   sodipodi:docname="dia.svg">
  <metadata
     id="metadata33">
    <rdf:RDF>
      <cc:Work
         rdf:about="">
        <dc:format>image/svg+xml</dc:format>
        <dc:type
           rdf:resource="http://purl.org/dc/dcmitype/StillImage" />
      </cc:Work>
    </rdf:RDF>
  </metadata>
  <sodipodi:namedview
     pagecolor="#ffffff"
     bordercolor="#666666"
     borderopacity="1"
     objecttolerance="10"
     gridtolerance="10"
     guidetolerance="10"
     inkscape:pageopacity="0"
     inkscape:pageshadow="2"
     inkscape:window-width="709"
     inkscape:window-height="480"
     id="namedview31"
     showgrid="false"
     inkscape:zoom="2.4583333"
     inkscape:cx="50.847458"
     inkscape:cy="48"
     inkscape:window-x="59"
     inkscape:window-y="83"
     inkscape:window-maximized="0"
     inkscape:current-layer="g11" />
  <defs
     id="defs4" />
  <g
     inkscape:label="Layer 1"
     inkscape:groupmode="layer"
     transform="matrix(1 0 0 1 0 -956.36)"
     id="g11">
    <rect
       x="8"
       rx="10.769"
       y="964.35999"
       height="80"
       width="80"
       id="rect13"
       style="fill:#e6e6e6;fill-opacity:1;stroke:none" />
    <g
       transform="matrix(0.85714,0,0,0.85714,124.36922,147.23887)"
       id="g17">
      <path
         d="m -104.09545,968.97563 0,6 -4,0 0,6.0312 4,0 0,35.93797 -4,0 0,6.0312 4,0 0,4 -3,0 4,8 4,-8 -3,0 0,-4 18,0 c 13.296,0 24,-10.704 24,-23.99997 0,-13.296 -10.704,-24 -24,-24 l -18,0 0,-6 -2,0 z m 2,12.031 18,0 c 10.06,0 17.969,7.9089 17.969,17.969 0,10.06007 -7.9089,17.96897 -17.969,17.96897 l -18,0 0,-35.93797 z"
         inkscape:connector-curvature="0"
         id="path19"
         style="color:black;fill:#4d4d4d" />
      <rect
         x="78.099998"
         y="998.97998"
         height="2"
         width="40"
         transform="scale(-1,1)"
         id="rect21"
         style="color:black;fill:#4d4d4d" />
      <path
         d="m -70.09715,999.9783 -7.9998,4 0,-8 z"
         inkscape:connector-curvature="0"
         id="path23"
         style="color:black;fill:#464646" />
      <rect
         x="-106.1"
         y="964.97998"
         height="6"
         width="6"
         id="rect25"
         style="color:black;fill:#505050" />
      <rect
         x="-105.1"
         y="965.97998"
         height="4"
         width="4"
         id="rect27"
         style="color:black;fill:#87f042" />
      <path
         d="m -90.22045,985.97563 -10,19.99997 20,0 -10,-19.99997 z m 0,7 5,9.99997 -10,0 5,-9.99997 z"
         inkscape:connector-curvature="0"
         id="path29"
         style="color:black;fill:#e69219;fill-opacity:1" />
    </g>
  </g>
</svg>
