<svg height="96" width="96" xmlns="http://www.w3.org/2000/svg" xmlns:sodipodi="http://sodipodi.sourceforge.net/DTD/sodipodi-0.dtd" xmlns:inkscape="http://www.inkscape.org/namespaces/inkscape">
 <defs>
  <linearGradient x2="0" y1="32.375" y2="226.18" gradientUnits="userSpaceOnUse" id="linearGradient3857" inkscape:collect="always" gradientTransform="matrix(0.16786 0 0 0.17424 26.698 25.475)">
   <stop stop-color="#fff"/>
   <stop stop-color="#ced3d6" offset="1"/>
  </linearGradient>
 </defs>
 <rect x="8" rx="10.769" y="8" fill="#3c83bf" fill-opacity="1" stroke="none" height="80" width="80"/>
 <rect x="23" y="78" fill="#333" fill-opacity="1" stroke="none" height="10" opacity="1" width="50"/>
 <g transform="matrix(1 0 0 1 1.017 0)">
  <rect x="43.39" rx="0.967" y="79.41" fill="#ccc" fill-opacity="1" stroke="none" height="7.186" width="7.186"/>
  <rect x="25.288" rx="0.967" y="79.41" fill="#ccc" fill-opacity="1" stroke="none" height="7.186" width="7.186"/>
  <rect x="34.34" rx="0.967" y="79.41" fill="#ccc" fill-opacity="1" stroke="none" height="7.186" width="7.186"/>
  <rect x="52.44" rx="0.967" y="79.41" fill="#ccc" fill-opacity="1" stroke="none" height="7.186" width="7.186"/>
  <rect x="61.49" rx="0.967" y="79.41" fill="#ccc" fill-opacity="1" stroke="none" height="7.186" width="7.186"/>
 </g>
 <path d="m 48.000481,31.117201 c -2.074862,0 -3.752382,1.680839 -3.751744,3.751745 -4.66e-4,1.562561 0.982282,2.852759 2.3448,3.414657 v 1.275007 h -5.627903 c -0.249116,0 -0.468973,0.20411 -0.468973,0.468973 v 1.40688 c 0,0.264857 0.203701,0.468966 0.468973,0.468966 h 5.627584 v 17.352205 c 0,0.481918 -0.804004,0.491874 -1.260326,0.5423 -0.668557,-0.0064 -1.075027,-0.174767 -1.714669,-0.351704 -1.44454,-0.422427 -2.82359,-1.007751 -4.147427,-1.714669 -0.55739,-0.309002 -1.101453,-0.610216 -1.597413,-1.01126 -0.213755,-0.1823 -0.462373,-0.445982 -0.439662,-0.747388 0.02885,-0.228129 0.144409,-0.471131 0.395696,-0.512876 0.226475,-0.03574 0.429908,0.0856 0.630188,0.161235 0.172642,0.07443 0.29141,-0.135 0.263791,-0.278491 -0.02777,-0.378065 -0.15588,-0.727982 -0.35173,-1.055176 -0.407466,-0.67028 -1.034495,-1.168793 -1.685371,-1.597413 -0.694855,-0.443747 -1.435667,-0.931664 -1.875904,-1.641392 -0.08757,-0.131171 -0.184839,-0.348193 -0.381034,-0.278427 -0.272752,0.08847 -0.423308,0.355726 -0.556879,0.586152 -0.375871,0.715281 -0.563276,1.486923 -0.73277,2.271587 -0.139316,0.624323 -0.165901,1.283688 -0.117244,1.91982 0.05043,0.636514 0.09395,1.281453 0.351724,1.875904 0.162339,0.39064 0.448151,0.705578 0.73277,1.011197 0.181609,-0.192001 0.371108,-0.398045 0.556879,-0.586153 0.240768,-0.241724 0.54158,-0.398683 0.893941,-0.351767 0.479607,0.06191 0.912771,0.352406 1.289625,0.630195 0.530888,0.412853 1.027218,0.844855 1.568115,1.245645 0.855898,0.654131 1.80001,1.132985 2.769845,1.597413 0.808026,0.375257 1.638264,0.750004 2.476737,1.055176 0.15016,0.06562 0.316087,0.06255 0.468973,0.117256 1.509136,0.627642 2.780441,1.358114 3.825021,2.66727 0.0013,0.01787 -0.0013,0.05553 0,0.07328 0.012,-0.01532 0.03191,-0.02872 0.04391,-0.04404 0.012,0.01532 0.03198,0.02872 0.04392,0.04404 0.0079,-0.03638 -0.0078,-0.08094 0,-0.117256 1.041325,-1.293965 2.325077,-1.999479 3.825021,-2.623291 0.15288,-0.05426 0.318806,-0.0517 0.468973,-0.117256 0.838537,-0.305172 1.668712,-0.679919 2.476737,-1.055176 0.969836,-0.464492 1.913883,-0.943282 2.769846,-1.597413 0.540915,-0.400854 1.037239,-0.832792 1.568115,-1.245645 0.376904,-0.277789 0.810068,-0.568472 1.289624,-0.630195 0.352374,-0.0466 0.653237,0.110043 0.893941,0.351767 0.185797,0.188108 0.375289,0.394152 0.55688,0.586153 0.284605,-0.305619 0.570437,-0.620557 0.73277,-1.011261 0.257778,-0.594387 0.301348,-1.239326 0.351723,-1.87584 0.04864,-0.636132 0.02202,-1.295561 -0.117243,-1.91982 -0.169469,-0.784727 -0.356894,-1.556306 -0.73277,-2.271587 -0.13359,-0.230426 -0.284147,-0.497747 -0.55688,-0.586216 -0.196201,-0.0697 -0.293466,0.14732 -0.381034,0.278427 -0.440237,0.709792 -1.180985,1.197709 -1.875904,1.641392 -0.650812,0.428684 -1.27788,0.927197 -1.685371,1.597415 -0.195844,0.327257 -0.323938,0.677174 -0.351723,1.055176 -0.02764,0.143554 0.09116,0.352916 0.26379,0.278491 0.200261,-0.07564 0.403701,-0.197108 0.630189,-0.161172 0.251287,0.04149 0.366819,0.284747 0.395696,0.512876 0.02272,0.301342 -0.225901,0.565088 -0.439662,0.747387 -0.495928,0.400981 -1.040048,0.702195 -1.597413,1.011261 -1.323901,0.706855 -2.702888,1.292177 -4.147428,1.714605 -0.639641,0.177001 -1.046112,0.347619 -1.714669,0.351704 -0.574018,0.101873 -1.26007,-0.210193 -1.26007,-0.542812 V 41.902855 h 5.627584 c 0.216818,0 0.468973,-0.187967 0.468973,-0.468967 v -1.40688 c 0,-0.272689 -0.219991,-0.468628 -0.469139,-0.468628 h -5.627584 v -1.275008 c 1.362518,-0.561889 2.345311,-1.852094 2.3448,-3.414656 0.0013,-2.071481 -1.676499,-3.752064 -3.751553,-3.752064 z m -0.07328,1.831925 c 1.007176,0 1.832181,0.797303 1.831862,1.802563 3e-4,1.005324 -0.824686,1.831862 -1.831862,1.831862 -1.007175,0 -1.846861,-0.8266 -1.846542,-1.831862 -3e-4,-1.005325 0.839303,-1.802563 1.846542,-1.802563 z" fill="url(#linearGradient3857)" inkscape:connector-curvature="0"/>
</svg>
