<?xml version="1.0" encoding="UTF-8" standalone="no"?>
<!-- Created with Inkscape (http://www.inkscape.org/) -->

<svg
   xmlns:dc="http://purl.org/dc/elements/1.1/"
   xmlns:cc="http://creativecommons.org/ns#"
   xmlns:rdf="http://www.w3.org/1999/02/22-rdf-syntax-ns#"
   xmlns:svg="http://www.w3.org/2000/svg"
   xmlns="http://www.w3.org/2000/svg"
   xmlns:sodipodi="http://sodipodi.sourceforge.net/DTD/sodipodi-0.dtd"
   xmlns:inkscape="http://www.inkscape.org/namespaces/inkscape"
   id="svg11037"
   height="96"
   width="96"
   version="1.1"
   inkscape:version="0.48.5 r10040"
   sodipodi:docname="docky.svg">
  <sodipodi:namedview
     pagecolor="#ffffff"
     bordercolor="#666666"
     borderopacity="1"
     objecttolerance="10"
     gridtolerance="10"
     guidetolerance="10"
     inkscape:pageopacity="0"
     inkscape:pageshadow="2"
     inkscape:window-width="640"
     inkscape:window-height="480"
     id="namedview8422" />
  <defs
     id="defs11039">
    <linearGradient
       id="linearGradient11642"
       y2="1046.1"
       gradientUnits="userSpaceOnUse"
       y1="962.62"
       gradientTransform="matrix(1.15 0 0 1.15 -7.1999 -150.65)"
       x2="48"
       x1="48">
      <stop
         id="stop4627"
         style="stop-color:#51cfee"
         offset="0" />
      <stop
         id="stop4629"
         style="stop-color:#49a3d2"
         offset=".26238" />
      <stop
         id="stop4631"
         style="stop-color:#3470b4"
         offset=".70495" />
      <stop
         id="stop4633"
         style="stop-color:#1b5699"
         offset="1" />
    </linearGradient>
    <linearGradient
       id="linearGradient3038"
       y2="226.18"
       gradientUnits="userSpaceOnUse"
       y1="32.375"
       gradientTransform="matrix(.26298 0 0 .27298 14.908 969.11)"
       x2="116.3"
       x1="116.3">
      <stop
         id="stop3204"
         style="stop-color:#fff"
         offset="0" />
      <stop
         id="stop3206"
         style="stop-color:#ced3d6"
         offset="1" />
    </linearGradient>
    <clipPath
       id="clipPath3009"
       clipPathUnits="userSpaceOnUse">
      <path
         id="path3011"
         style="opacity:.15;fill:#fff"
         d="m-2 956.36h-96v33.562l96 25.687v-59.25z" />
    </clipPath>
  </defs>
  <metadata
     id="metadata11042">
    <rdf:RDF>
      <cc:Work
         rdf:about="">
        <dc:format>image/svg+xml</dc:format>
        <dc:type
           rdf:resource="http://purl.org/dc/dcmitype/StillImage" />
        <dc:title />
      </cc:Work>
    </rdf:RDF>
  </metadata>
  <g
     id="layer1"
     transform="translate(0 -956.36)">
    <rect
       id="rect3867"
       style="fill:url(#linearGradient11642)"
       rx="25"
       ry="25"
       height="92"
       width="92"
       y="958.36"
       x="2" />
    <path
       id="path1919"
       d="m48.282 977.95c-3.2506 0-5.8787 2.6333-5.8777 5.8777-0.000729 2.448 1.5389 4.4693 3.6735 5.3496v1.9975h-8.817c-0.39028 0-0.73472 0.31977-0.73472 0.73472v2.2041c0 0.41494 0.31913 0.73471 0.73472 0.73471h8.8165v27.185c0 0.755-1.2596 0.7706-1.9745 0.8496-1.0474-0.01-1.6842-0.2738-2.6863-0.551-2.2631-0.6618-4.4236-1.5788-6.4976-2.6863-0.87324-0.4841-1.7256-0.956-2.5026-1.5843-0.33488-0.2856-0.72438-0.6987-0.6888-1.1709 0.0452-0.3574 0.22624-0.7381 0.61992-0.8035 0.35481-0.056 0.67352 0.1341 0.98729 0.2526 0.27047 0.1166 0.45654-0.2115 0.41327-0.4363-0.04352-0.5923-0.24421-1.1405-0.55104-1.6531-0.63836-1.0501-1.6207-1.8311-2.6404-2.5026-1.0886-0.6952-2.2492-1.4596-2.9389-2.5715-0.1372-0.2055-0.28958-0.5455-0.59695-0.4362-0.42731 0.1386-0.66318 0.5573-0.87244 0.9183-0.58886 1.1206-0.88246 2.3295-1.148 3.5588-0.21826 0.9781-0.25991 2.0111-0.18368 3.0077 0.07895 0.9972 0.14718 2.0076 0.55103 2.9389 0.25433 0.612 0.7021 1.1054 1.148 1.5842 0.28452-0.3008 0.5814-0.6236 0.87244-0.9183 0.3772-0.3787 0.84847-0.6246 1.4005-0.5511 0.75138 0.097 1.43 0.5521 2.0204 0.9873 0.83172 0.6468 1.6093 1.3236 2.4567 1.9515 1.3409 1.0248 2.82 1.775 4.3394 2.5026 1.2659 0.5879 2.5666 1.175 3.8802 1.6531 0.23525 0.1028 0.4952 0.098 0.73472 0.1837 2.3643 0.9833 4.356 2.1277 5.9925 4.1787 0.0024 0.028-0.0024 0.087 0 0.1148 0.01883-0.024 0.05001-0.045 0.06885-0.069 0.01883 0.024 0.05009 0.045 0.06885 0.069 0.01234-0.057-0.01218-0.1268 0-0.1837 1.6314-2.0272 3.6426-3.1325 5.9925-4.1098 0.23951-0.085 0.49946-0.081 0.73472-0.1837 1.3137-0.4781 2.6143-1.0652 3.8802-1.6531 1.5194-0.7277 2.9984-1.4778 4.3394-2.5026 0.84743-0.628 1.625-1.3047 2.4567-1.9515 0.59048-0.4352 1.2691-0.8906 2.0204-0.9873 0.55205-0.073 1.0234 0.1724 1.4005 0.5511 0.29108 0.2947 0.58795 0.6175 0.87244 0.9183 0.44588-0.4788 0.89368-0.9722 1.148-1.5843 0.40385-0.9312 0.47211-1.9416 0.55103-2.9388 0.07622-0.9966 0.03454-2.0297-0.18368-3.0077-0.2655-1.2294-0.55913-2.4382-1.148-3.5588-0.20929-0.361-0.44516-0.7798-0.87244-0.9184-0.30738-0.1092-0.45976 0.2308-0.59695 0.4362-0.6897 1.112-1.8502 1.8764-2.9389 2.5715-1.0196 0.6716-2.002 1.4526-2.6404 2.5026-0.30682 0.5127-0.5075 1.0609-0.55103 1.6531-0.04328 0.2249 0.14281 0.5529 0.41327 0.4363 0.31374-0.1185 0.63246-0.3088 0.98729-0.2525 0.39368 0.065 0.57468 0.4461 0.61992 0.8035 0.03559 0.4721-0.35391 0.8853-0.6888 1.1709-0.77695 0.6282-1.6294 1.1001-2.5026 1.5843-2.0741 1.1074-4.2345 2.0244-6.4976 2.6862-1.0021 0.2773-1.6389 0.5446-2.6863 0.551-0.89929 0.1596-1.9741-0.3293-1.9741-0.8504v-27.185h8.8165c0.33968 0 0.73472-0.29448 0.73472-0.73471v-2.2041c0-0.42721-0.34465-0.73418-0.73498-0.73418h-8.8165v-1.9975c2.1346-0.88029 3.6743-2.9016 3.6735-5.3496 0.0016-3.2453-2.6265-5.8782-5.8774-5.8782zm-0.1148 2.87c1.5779 0 2.8704 1.2491 2.8699 2.824 0.000473 1.575-1.292 2.8699-2.8699 2.8699s-2.8934-1.295-2.8929-2.8699c-0.000473-1.575 1.3149-2.824 2.8929-2.824z"
       style="fill:url(#linearGradient3038)" />
    <rect
       id="rect3003"
       style="opacity:.15;fill:#fff"
       transform="translate(98 3.8281e-7)"
       clip-path="url(#clipPath3009)"
       rx="25"
       ry="25"
       height="92"
       width="92"
       y="958.36"
       x="-96" />
  </g>
</svg>
