<svg height="96" width="96" xmlns="http://www.w3.org/2000/svg" xmlns:xlink="http://www.w3.org/1999/xlink" xmlns:sodipodi="http://sodipodi.sourceforge.net/DTD/sodipodi-0.dtd" xmlns:inkscape="http://www.inkscape.org/namespaces/inkscape">
 <defs>
  <clipPath clipPathUnits="userSpaceOnUse" id="clipPath3009">
   <path d="m-2 956.36h-96v33.562l96 25.687v-59.25z"/>
  </clipPath>
  <radialGradient cy="57.24" r="43.796" gradientUnits="userSpaceOnUse" id="radialGradient3385" cx="71.47" gradientTransform="matrix(1.5922 -0.0299 0.02029 3.4536 -19.276 821.01)">
   <stop stop-color="#601c12"/>
   <stop offset="1"/>
  </radialGradient>
  <clipPath clipPathUnits="userSpaceOnUse" id="clipPath3018">
   <rect x="2" rx="25" y="958.36" height="92" width="92"/>
  </clipPath>
  <radialGradient cy="46.601" r="21.283" gradientUnits="userSpaceOnUse" id="radialGradient5674" cx="43.24" gradientTransform="matrix(1 0 0 1.0368 0 -1.717)">
   <stop stop-color="#e37501"/>
   <stop stop-color="#e37501" stop-opacity="0" offset="1"/>
  </radialGradient>
  <radialGradient cy="30.47" r="9.297" gradientUnits="userSpaceOnUse" id="radialGradient5565" cx="57.02" gradientTransform="matrix(1 0 0 1.0723 0 -2.203)">
   <stop stop-color="#e30501"/>
   <stop stop-color="#e30501" stop-opacity="0" offset="1"/>
  </radialGradient>
  <linearGradient x1="22.5" x2="6.372" xlink:href="#linearGradient5168" gradientUnits="userSpaceOnUse" id="linearGradient5656" gradientTransform="matrix(0.81994 0 0 0.72389 0.535 13.387)"/>
  <linearGradient id="linearGradient5168">
   <stop stop-color="#fe8f00"/>
   <stop stop-color="#f49922" stop-opacity="0" offset="1"/>
  </linearGradient>
  <linearGradient x1="63.07" x2="59.959" xlink:href="#linearGradient5112" gradientUnits="userSpaceOnUse" id="linearGradient5110" gradientTransform="matrix(0.94833 0 0 0.91708 -50.952 -11.981)"/>
  <linearGradient id="linearGradient5112">
   <stop stop-color="#ec2e00"/>
   <stop stop-color="#ff6613" stop-opacity="0" offset="1"/>
  </linearGradient>
  <linearGradient x1="8.03" x2="5.864" xlink:href="#linearGradient5137" gradientUnits="userSpaceOnUse" id="linearGradient5143" gradientTransform="matrix(0.98268 0 0 0.94383 0.013 2.454)"/>
  <linearGradient id="linearGradient5137">
   <stop stop-color="#c72c04"/>
   <stop stop-color="#c72c04" stop-opacity="0" offset="1"/>
  </linearGradient>
  <linearGradient x1="22.5" x2="6.372" xlink:href="#linearGradient5168" gradientUnits="userSpaceOnUse" id="linearGradient5174" gradientTransform="matrix(0.97484 0 0 0.88714 0.044 5.165)"/>
  <linearGradient x1="22.5" x2="6.372" xlink:href="#linearGradient5168" gradientUnits="userSpaceOnUse" id="linearGradient6100" gradientTransform="matrix(0.97424 0 0 0.91162 0.064 3.667)"/>
  <linearGradient x1="28.794" x2="6.716" xlink:href="#linearGradient5190" y1="47.06" y2="46.27" gradientUnits="userSpaceOnUse" id="linearGradient5196" gradientTransform="matrix(0.98268 0 0 0.94383 0.013 2.454)"/>
  <linearGradient id="linearGradient5190">
   <stop stop-color="#fe0000"/>
   <stop stop-color="#fe0000" stop-opacity="0" offset="1"/>
  </linearGradient>
  <radialGradient cy="30.47" r="9.297" gradientUnits="userSpaceOnUse" id="radialGradient5200" cx="57.02" gradientTransform="matrix(1 0 0 1.0723 0 -2.203)">
   <stop stop-color="#f29521"/>
   <stop stop-color="#f29521" stop-opacity="0" offset="1"/>
  </radialGradient>
  <linearGradient x1="63.07" x2="59.959" xlink:href="#linearGradient5112" gradientUnits="userSpaceOnUse" id="linearGradient5371" gradientTransform="matrix(0.38177 0 0 0.35295 -16.754 0.671)"/>
  <linearGradient x1="8.03" x2="5.864" xlink:href="#linearGradient5137" gradientUnits="userSpaceOnUse" id="linearGradient5373" gradientTransform="matrix(0.3956 0 0 0.36324 3.763 6.227)"/>
  <linearGradient x1="210.17" x2="204.45" y1="11.69" y2="21.939" gradientUnits="userSpaceOnUse" id="linearGradient5375" gradientTransform="matrix(0.61338 0 0 0.5849 -78.51 11.39)">
   <stop stop-color="#ffb329"/>
   <stop stop-color="#ffb329" stop-opacity="0" offset="1"/>
  </linearGradient>
  <linearGradient x1="22.5" x2="6.372" xlink:href="#linearGradient5168" gradientUnits="userSpaceOnUse" id="linearGradient5401" gradientTransform="matrix(0.39244 0 0 0.34142 3.776 7.27)"/>
  <linearGradient x1="28.794" x2="6.716" xlink:href="#linearGradient5190" y1="47.06" y2="46.27" gradientUnits="userSpaceOnUse" id="linearGradient5415" gradientTransform="matrix(0.3956 0 0 0.36324 3.763 6.227)"/>
  <path d="m64.522 46.601a21.283 22.067 0 1 1 -42.566 0 21.283 22.067 0 1 1 42.566 0z" fill="url(#radialGradient5674)" id="SVGCleanerId_0" opacity="0.686"/>
  <path d="m66.314 30.47a9.2974 9.9695 0 1 1 -18.595 0 9.2974 9.9695 0 1 1 18.595 0z" id="SVGCleanerId_1"/>
  <path d="m28.081 9.0901c-8.2885 0-17.121 2.3291-23.401 6.8092l-0.6227 63.673c6.2805 4.4832 15.732 6.7639 24.023 6.7639 21.238 0 38.447-17.305 38.447-38.638 0-21.332-17.209-38.608-38.447-38.608z" fill="none" id="SVGCleanerId_2"/>
  <path d="m26.15 13.894c-7.6469 0-15.796 2.0444-21.589 5.9769l-0.575 55.891c5.7944 3.9352 14.514 5.9372 22.164 5.9372 19.594 0 35.471-15.19 35.471-33.915s-15.877-33.889-35.471-33.889z" fill="none" stroke="url(#linearGradient6100)" id="SVGCleanerId_3"/>
  <path d="m142.37 50.941a6.1609 6.469 0 1 1 -12.322 0 6.1609 6.469 0 1 1 12.322 0z" id="SVGCleanerId_4" opacity="0.581"/>
  <path d="m15.062 8.7809c-3.3367 0-6.8926 0.89639-9.4204 2.6206l-0.2506 24.505c2.5284 1.7254 6.3331 2.6032 9.6711 2.6032 8.5498 0 15.478-6.6602 15.478-14.87 0-8.21-6.928-14.859-15.478-14.859z" fill="none" id="SVGCleanerId_5"/>
  <path d="m6.7669 12.561 2.9917 9.0243-4.2302 2.6014 0.088625 3.3647 5.9589 0.05013 3.4491 9.1832 3.3008-8.9108 10.483-0.18162-8.1469-5.687 3.0412-9.2854-8.3323 5.4032z" stroke-width="1.117" fill="none" stroke="url(#linearGradient5373)" id="SVGCleanerId_6" stroke-linecap="round"/>
  <path d="m9.5841 21.455 2.237 6.3057" stroke-width="1.099" fill="none" stroke="#c72c04" id="SVGCleanerId_7"/>
  <path d="m14.915 18.127 5.9999 3.9734" stroke-width="1.099" fill="none" stroke="#c72c04" id="SVGCleanerId_8"/>
  <path d="m11.161 27.627 7.5095 0.11813" stroke-width="1.099" fill="none" stroke="#c72c04" id="SVGCleanerId_9"/>
  <path d="m18.398 27.723 2.4322-6.2495" stroke-width="1.099" fill="none" stroke="#c72c04" id="SVGCleanerId_10"/>
  <path d="m15.612 18.06-6.1479 3.795" stroke-width="1.137" fill="none" stroke="#c72c04" id="SVGCleanerId_11"/>
  <path d="m14.283 11.101c-3.0803 0-6.3629 0.76569-8.6965 2.2385l-0.2313 20.932c2.3341 1.4738 5.8464 2.2236 8.9279 2.2236 7.8927 0 14.288-5.6891 14.288-12.702 0-7.013-6.3956-12.692-14.288-12.692z" fill="none" stroke="url(#linearGradient5401)" id="SVGCleanerId_12"/>
  <path d="m43.412 22.044 6.8022-3.9639-1.7864 7.2399" fill="none" stroke="url(#linearGradient5375)" id="SVGCleanerId_13"/>
 </defs>
 <g transform="matrix(1 0 0 1 0 -956.36)">
  <rect rx="6.857" y="956.36" clip-path="url(#clipPath3018)" fill="url(#radialGradient3385)" height="96" width="96"/>
  <g transform="matrix(1 0 0 1 0 956.36)">
   <use xlink:href="#SVGCleanerId_0" transform="matrix(0.71426 0 0 0.94383 -3.44 26.697)"/>
   <use xlink:href="#SVGCleanerId_0" transform="matrix(1.2004 0.38821 -0.22482 0.69518 7.907 4.704)"/>
   <use xlink:href="#SVGCleanerId_0" transform="matrix(0.92479 0 0 0.88799 4.146 -13.938)"/>
   <use xlink:href="#SVGCleanerId_1" fill="url(#radialGradient5565)" opacity="0.771" transform="matrix(-1.9811 0.28946 -2.2193 -0.42915 211.94 54.748)"/>
   <path d="m22.489 21.507c-6.4357 0-13.294 1.6234-18.17 4.7461l-0.4831 44.381c4.8766 3.1248 12.215 4.7145 18.653 4.7145 16.49 0 29.853-12.062 29.853-26.931s-13.362-26.91-29.853-26.91z" stroke-width="1.055" fill="none" stroke="url(#linearGradient5656)" opacity="0.314"/>
   <use stroke-width="2.911" xlink:href="#SVGCleanerId_2" stroke="url(#linearGradient5110)" opacity="0.348"/>
   <path d="m7.475 18.912 7.4315 23.448-10.508 6.7592 0.22015 8.7426 14.802 0.13023 8.5677 23.861 8.1992-23.153 26.041-0.47191-20.237-14.777 7.5544-24.127-20.698 14.039z" stroke-width="2.837" fill="none" stroke="url(#linearGradient5143)" stroke-linecap="round"/>
   <path d="m14.473 42.023 5.5568 16.384" stroke-width="2.793" fill="none" stroke="#c72c04"/>
   <path d="m27.714 33.373 14.904 10.324" stroke-width="2.793" fill="none" stroke="#c72c04"/>
   <path d="m18.39 58.059 18.654 0.30695" stroke-width="2.793" fill="none" stroke="#c72c04"/>
   <path d="m36.367 58.309 6.042-16.239" stroke-width="2.793" fill="none" stroke="#c72c04"/>
   <use xlink:href="#SVGCleanerId_1" fill="url(#radialGradient5565)" opacity="0.771" transform="matrix(-0.27328 2.2117 -1.0372 2.1951 85.81 -140.63)"/>
   <path d="m29.447 33.201-15.272 9.859" stroke-width="2.887" fill="none" stroke="#c72c04"/>
   <use xlink:href="#SVGCleanerId_1" fill="url(#radialGradient5565)" opacity="0.771" transform="matrix(-1.3498 1.3391 -1.9525 0.90053 163.31 -69.3)"/>
   <path d="m26.146 15.117c-7.6515 0-15.806 1.9895-21.602 5.8164l-0.5755 54.39c5.7979 3.8295 14.523 5.7777 22.177 5.7777 19.606 0 35.493-14.782 35.493-33.004s-15.887-32.979-35.493-32.979z" stroke-width="4.955" fill="none" stroke="url(#linearGradient5174)" opacity="0.029"/>
   <use stroke-width="4.045" xlink:href="#SVGCleanerId_3" opacity="0.138"/>
   <use stroke-width="2.679" xlink:href="#SVGCleanerId_3" opacity="0.343"/>
   <use stroke-width="1.41" xlink:href="#SVGCleanerId_3" opacity="0.848"/>
   <use xlink:href="#SVGCleanerId_1" fill="url(#radialGradient5565)" opacity="0.771" transform="matrix(-1.7636 -0.88751 -1.6907 -1.4095 188.94 132.72)"/>
   <use stroke-width="1.659" xlink:href="#SVGCleanerId_2" stroke="url(#linearGradient5196)" opacity="0.798"/>
   <use xlink:href="#SVGCleanerId_1" fill="url(#radialGradient5200)" opacity="0.662" transform="matrix(-0.26496 0.50709 -0.66057 0.21824 47.29 8.443)"/>
   <use xlink:href="#SVGCleanerId_1" fill="url(#radialGradient5200)" opacity="0.662" transform="matrix(-0.93593 0.20669 -1.1617 -0.18232 108.44 51.795)"/>
   <use xlink:href="#SVGCleanerId_1" fill="url(#radialGradient5200)" opacity="0.662" transform="matrix(-0.09351 -0.56021 0.40326 -0.54785 28.45 109.3)"/>
   <g opacity="0.5" transform="matrix(0.99915 0 0 0.97122 0.821 2.02)">
    <use stroke-width="1.146" xlink:href="#SVGCleanerId_5" stroke="url(#linearGradient5371)" opacity="0.348"/>
    <use xlink:href="#SVGCleanerId_6"/>
    <use xlink:href="#SVGCleanerId_7"/>
    <use xlink:href="#SVGCleanerId_8"/>
    <use xlink:href="#SVGCleanerId_9"/>
    <use xlink:href="#SVGCleanerId_10"/>
    <use xlink:href="#SVGCleanerId_11"/>
    <g transform="matrix(0.3956 0 0 0.36324 3.763 6.227)">
     <use stroke-width="2.198" xlink:href="#SVGCleanerId_13" opacity="0.439"/>
     <use stroke-width="1.198" xlink:href="#SVGCleanerId_13" opacity="0.702"/>
    </g>
    <g transform="matrix(0.13411 -0.34173 0.37217 0.12314 -6.593 27.615)">
     <use stroke-width="2.198" xlink:href="#SVGCleanerId_13" opacity="0.439"/>
     <use stroke-width="1.198" xlink:href="#SVGCleanerId_13" opacity="0.702"/>
    </g>
    <g transform="matrix(-0.32163 0.21149 -0.23033 -0.29532 35.3 31.26)">
     <use stroke-width="2.198" xlink:href="#SVGCleanerId_13" opacity="0.439"/>
     <use stroke-width="1.198" xlink:href="#SVGCleanerId_13" opacity="0.702"/>
    </g>
    <g transform="matrix(0.10425 0.3504 -0.38162 0.09572 30.06 8.299)">
     <use stroke-width="2.198" xlink:href="#SVGCleanerId_13" opacity="0.439"/>
     <use stroke-width="1.198" xlink:href="#SVGCleanerId_13" opacity="0.702"/>
    </g>
    <use xlink:href="#SVGCleanerId_1" fill="url(#radialGradient5200)" opacity="0.662" transform="matrix(0.06485 0.21008 -0.13437 0.22683 23.677 -4.402)"/>
    <use xlink:href="#SVGCleanerId_1" fill="url(#radialGradient5200)" opacity="0.662" transform="matrix(-0.10666 0.19516 -0.26593 0.08399 36.09 -0.094)"/>
    <use xlink:href="#SVGCleanerId_1" fill="url(#radialGradient5200)" opacity="0.662" transform="matrix(0.23409 0.03843 0.16329 0.21023 -10.08 4.561)"/>
    <use xlink:href="#SVGCleanerId_1" fill="url(#radialGradient5200)" opacity="0.662" transform="matrix(0.14441 0.17349 -0.03416 0.25631 -0.427 -3.802)"/>
    <use xlink:href="#SVGCleanerId_1" fill="url(#radialGradient5200)" opacity="0.662" transform="matrix(-0.2145 0.09428 -0.26624 -0.08316 46.943 25.04)"/>
    <use stroke-width="1.95" xlink:href="#SVGCleanerId_12" opacity="0.029"/>
    <use xlink:href="#SVGCleanerId_1" fill="url(#radialGradient5200)" opacity="0.662" transform="matrix(-0.22754 -0.06345 -0.13522 -0.22641 44.42 37.01)"/>
    <use xlink:href="#SVGCleanerId_1" fill="url(#radialGradient5200)" opacity="0.662" transform="matrix(-0.18632 -0.13569 -0.03531 -0.25617 25.81 50.693)"/>
    <use stroke-width="1.571" xlink:href="#SVGCleanerId_12" opacity="0.138"/>
    <use xlink:href="#SVGCleanerId_1" fill="url(#radialGradient5200)" opacity="0.662" transform="matrix(-0.03764 -0.2156 0.16234 -0.21085 12.995 53.858)"/>
    <use stroke-width="1.041" xlink:href="#SVGCleanerId_12" opacity="0.343"/>
    <use stroke-width="0.548" xlink:href="#SVGCleanerId_12" opacity="0.848"/>
    <use stroke-width="0.653" xlink:href="#SVGCleanerId_5" stroke="url(#linearGradient5415)" opacity="0.798"/>
    <use xlink:href="#SVGCleanerId_1" fill="url(#radialGradient5200)" opacity="0.662" transform="matrix(-0.10666 0.19516 -0.26593 0.08399 22.796 8.532)"/>
    <use xlink:href="#SVGCleanerId_1" fill="url(#radialGradient5200)" opacity="0.662" transform="matrix(-0.37678 0.07955 -0.46766 -0.07017 47.41 25.22)"/>
    <use xlink:href="#SVGCleanerId_1" fill="url(#radialGradient5200)" opacity="0.662" transform="matrix(-0.03764 -0.2156 0.16234 -0.21085 15.211 47.35)"/>
   </g>
   <g opacity="0.5" transform="matrix(0.04611 -0.95862 1.0101 0.04482 10.385 92.93)">
    <use stroke-width="1.146" xlink:href="#SVGCleanerId_5" stroke="url(#linearGradient5371)" opacity="0.348"/>
    <use xlink:href="#SVGCleanerId_6"/>
    <use xlink:href="#SVGCleanerId_7"/>
    <use xlink:href="#SVGCleanerId_8"/>
    <use xlink:href="#SVGCleanerId_9"/>
    <use xlink:href="#SVGCleanerId_10"/>
    <use xlink:href="#SVGCleanerId_11"/>
    <g transform="matrix(0.3956 0 0 0.36324 3.763 6.227)">
     <use stroke-width="2.198" xlink:href="#SVGCleanerId_13" opacity="0.439"/>
     <use stroke-width="1.198" xlink:href="#SVGCleanerId_13" opacity="0.702"/>
    </g>
    <g transform="matrix(0.13411 -0.34173 0.37217 0.12314 -6.593 27.615)">
     <use stroke-width="2.198" xlink:href="#SVGCleanerId_13" opacity="0.439"/>
     <use stroke-width="1.198" xlink:href="#SVGCleanerId_13" opacity="0.702"/>
    </g>
    <g transform="matrix(-0.32163 0.21149 -0.23033 -0.29532 35.3 31.26)">
     <use stroke-width="2.198" xlink:href="#SVGCleanerId_13" opacity="0.439"/>
     <use stroke-width="1.198" xlink:href="#SVGCleanerId_13" opacity="0.702"/>
    </g>
    <g transform="matrix(0.10425 0.3504 -0.38162 0.09572 30.06 8.299)">
     <use stroke-width="2.198" xlink:href="#SVGCleanerId_13" opacity="0.439"/>
     <use stroke-width="1.198" xlink:href="#SVGCleanerId_13" opacity="0.702"/>
    </g>
    <use xlink:href="#SVGCleanerId_1" fill="url(#radialGradient5200)" opacity="0.662" transform="matrix(0.06485 0.21008 -0.13437 0.22683 23.677 -4.402)"/>
    <use xlink:href="#SVGCleanerId_1" fill="url(#radialGradient5200)" opacity="0.662" transform="matrix(-0.10666 0.19516 -0.26593 0.08399 36.09 -0.094)"/>
    <use xlink:href="#SVGCleanerId_1" fill="url(#radialGradient5200)" opacity="0.662" transform="matrix(0.23409 0.03843 0.16329 0.21023 -10.08 4.561)"/>
    <use xlink:href="#SVGCleanerId_1" fill="url(#radialGradient5200)" opacity="0.662" transform="matrix(0.14441 0.17349 -0.03416 0.25631 -0.427 -3.802)"/>
    <use xlink:href="#SVGCleanerId_1" fill="url(#radialGradient5200)" opacity="0.662" transform="matrix(-0.2145 0.09428 -0.26624 -0.08316 46.943 25.04)"/>
    <use stroke-width="1.95" xlink:href="#SVGCleanerId_12" opacity="0.029"/>
    <use xlink:href="#SVGCleanerId_1" fill="url(#radialGradient5200)" opacity="0.662" transform="matrix(-0.22754 -0.06345 -0.13522 -0.22641 44.42 37.01)"/>
    <use xlink:href="#SVGCleanerId_1" fill="url(#radialGradient5200)" opacity="0.662" transform="matrix(-0.18632 -0.13569 -0.03531 -0.25617 25.81 50.693)"/>
    <use stroke-width="1.571" xlink:href="#SVGCleanerId_12" opacity="0.138"/>
    <use xlink:href="#SVGCleanerId_1" fill="url(#radialGradient5200)" opacity="0.662" transform="matrix(-0.03764 -0.2156 0.16234 -0.21085 12.995 53.858)"/>
    <use stroke-width="1.041" xlink:href="#SVGCleanerId_12" opacity="0.343"/>
    <use stroke-width="0.548" xlink:href="#SVGCleanerId_12" opacity="0.848"/>
    <use stroke-width="0.653" xlink:href="#SVGCleanerId_5" stroke="url(#linearGradient5415)" opacity="0.798"/>
    <use xlink:href="#SVGCleanerId_1" fill="url(#radialGradient5200)" opacity="0.662" transform="matrix(-0.10666 0.19516 -0.26593 0.08399 22.796 8.532)"/>
    <use xlink:href="#SVGCleanerId_1" fill="url(#radialGradient5200)" opacity="0.662" transform="matrix(-0.37678 0.07955 -0.46766 -0.07017 47.41 25.22)"/>
    <use xlink:href="#SVGCleanerId_1" fill="url(#radialGradient5200)" opacity="0.662" transform="matrix(-0.03764 -0.2156 0.16234 -0.21085 15.211 47.35)"/>
   </g>
   <use xlink:href="#SVGCleanerId_1" fill="url(#radialGradient5200)" opacity="0.662" transform="matrix(-1.2435 -0.59966 -1.1921 -0.95238 146.18 104.28)"/>
   <g transform="matrix(0.98268 0 0 0.94383 0.013 2.454)">
    <use stroke-width="2.198" xlink:href="#SVGCleanerId_13" opacity="0.439"/>
    <use stroke-width="1.198" xlink:href="#SVGCleanerId_13" opacity="0.702"/>
   </g>
   <use xlink:href="#SVGCleanerId_1" fill="url(#radialGradient5200)" opacity="0.662" transform="matrix(0.16108 0.54586 -0.33379 0.58939 49.48 -25.16)"/>
   <use xlink:href="#SVGCleanerId_1" fill="url(#radialGradient5200)" opacity="0.662" transform="matrix(-0.26496 0.50709 -0.66057 0.21824 80.32 -13.971)"/>
   <g transform="matrix(0.25896 0.91046 -0.94795 0.24872 65.34 7.837)">
    <use stroke-width="2.198" xlink:href="#SVGCleanerId_13" opacity="0.439"/>
    <use stroke-width="1.198" xlink:href="#SVGCleanerId_13" opacity="0.702"/>
   </g>
   <use xlink:href="#SVGCleanerId_1" fill="url(#radialGradient5200)" opacity="0.662" transform="matrix(-0.53282 0.24497 -0.66134 -0.21608 107.27 51.34)"/>
   <use xlink:href="#SVGCleanerId_1" fill="url(#radialGradient5200)" opacity="0.662" transform="matrix(-0.56523 -0.16487 -0.33588 -0.58829 101.01 82.43)"/>
   <g transform="matrix(-0.79894 0.54953 -0.57215 -0.76735 78.35 67.49)">
    <use stroke-width="2.198" xlink:href="#SVGCleanerId_13" opacity="0.439"/>
    <use stroke-width="1.198" xlink:href="#SVGCleanerId_13" opacity="0.702"/>
   </g>
   <use xlink:href="#SVGCleanerId_1" fill="url(#radialGradient5200)" opacity="0.662" transform="matrix(-0.46283 -0.35256 -0.08772 -0.66563 54.78 117.99)"/>
   <use xlink:href="#SVGCleanerId_1" fill="url(#radialGradient5200)" opacity="0.662" transform="matrix(-0.09351 -0.56021 0.40326 -0.54785 22.946 126.21)"/>
   <g transform="matrix(0.33313 -0.88794 0.92449 0.31996 -25.71 58.03)">
    <use stroke-width="2.198" xlink:href="#SVGCleanerId_13" opacity="0.439"/>
    <use stroke-width="1.198" xlink:href="#SVGCleanerId_13" opacity="0.702"/>
   </g>
   <use xlink:href="#SVGCleanerId_1" fill="url(#radialGradient5200)" opacity="0.662" transform="matrix(0.5815 0.09985 0.40562 0.54625 -34.37 -1.876)"/>
   <use xlink:href="#SVGCleanerId_1" fill="url(#radialGradient5200)" opacity="0.662" transform="matrix(0.35871 0.45078 -0.08486 0.66597 -10.395 -23.604)"/>
   <use stroke-width="0.846" xlink:href="#SVGCleanerId_4" fill="none" stroke="#e34a01" stroke-linecap="round" transform="matrix(1.3983 0 0 1.2893 -169.22 -17.388)"/>
   <use stroke-width="1.302" xlink:href="#SVGCleanerId_4" fill="none" stroke="#e34a01" stroke-linecap="round" transform="matrix(0.52771 0 0 0.46987 -50.49 23.906)"/>
   <use xlink:href="#SVGCleanerId_4" fill="#e37501" transform="matrix(0.14103 0 0 0.12772 2.128 41.27)"/>
   <use stroke-width="1.302" xlink:href="#SVGCleanerId_4" fill="none" stroke="#e34a01" stroke-linecap="round" transform="matrix(0.25284 0 0 0.21844 -9.934 30.883)"/>
   <use xlink:href="#SVGCleanerId_4" fill="#e37501" transform="matrix(0.06757 0 0 0.05938 15.276 38.956)"/>
   <use stroke-width="1.302" xlink:href="#SVGCleanerId_4" fill="none" stroke="#e34a01" stroke-linecap="round" transform="matrix(0.25284 0 0 0.21844 -9.311 42.695)"/>
   <use xlink:href="#SVGCleanerId_4" fill="#e37501" transform="matrix(0.06757 0 0 0.05938 15.899 50.767)"/>
   <path d="m22.879 44.926 0.76339-1.6447" stroke-width="0.674" fill="none" stroke="#842b01"/>
   <path d="m23.172 50.642 1.1903 2.0404" stroke-width="0.674" fill="none" stroke="#862b01"/>
   <g transform="matrix(-0.98268 0 0 0.94383 57.631 2.559)">
    <use stroke-width="1.302" xlink:href="#SVGCleanerId_4" fill="none" stroke="#e34a01" stroke-linecap="round" transform="matrix(0.53701 0 0 0.49784 -51.39 22.729)"/>
    <use xlink:href="#SVGCleanerId_4" fill="#e37501" transform="matrix(0.14352 0 0 0.13532 2.152 41.13)"/>
    <use stroke-width="1.302" xlink:href="#SVGCleanerId_4" fill="none" stroke="#e34a01" stroke-linecap="round" transform="matrix(0.2573 0 0 0.23144 -10.122 30.12)"/>
    <use xlink:href="#SVGCleanerId_4" fill="#e37501" transform="matrix(0.06876 0 0 0.06291 15.532 38.674)"/>
    <use stroke-width="1.302" xlink:href="#SVGCleanerId_4" fill="none" stroke="#e34a01" stroke-linecap="round" transform="matrix(0.2573 0 0 0.23144 -9.488 42.636)"/>
    <use xlink:href="#SVGCleanerId_4" fill="#e37501" transform="matrix(0.06876 0 0 0.06291 16.17 51.19)"/>
    <path d="m23.27 45 0.77684-1.7426" stroke-width="0.7" fill="none" stroke="#842b01"/>
    <path d="m23.567 51.056 1.2113 2.1618" stroke-width="0.7" fill="none" stroke="#862b01"/>
   </g>
   <use stroke-width="0.572" xlink:href="#SVGCleanerId_4" fill="none" stroke="#e34a01" stroke-linecap="round" transform="matrix(1.8158 0 0 1.7039 -195.38 -43.688)"/>
   <use stroke-width="0.572" xlink:href="#SVGCleanerId_4" fill="none" stroke="#e34a01" stroke-linecap="round" transform="matrix(1.4227 0 0 1.3443 -141.94 -25.476)"/>
  </g>
  <rect x="-96" rx="25" y="958.36" clip-path="url(#clipPath3009)" fill="#fff" height="92" opacity="0.15" width="92" transform="matrix(1 0 0 1 98 0)"/>
 </g>
</svg>
