<?xml version="1.0" encoding="UTF-8" standalone="no"?>
<!-- Created with Inkscape (http://www.inkscape.org/) -->

<svg
   xmlns:dc="http://purl.org/dc/elements/1.1/"
   xmlns:cc="http://creativecommons.org/ns#"
   xmlns:rdf="http://www.w3.org/1999/02/22-rdf-syntax-ns#"
   xmlns:svg="http://www.w3.org/2000/svg"
   xmlns="http://www.w3.org/2000/svg"
   xmlns:xlink="http://www.w3.org/1999/xlink"
   xmlns:sodipodi="http://sodipodi.sourceforge.net/DTD/sodipodi-0.dtd"
   xmlns:inkscape="http://www.inkscape.org/namespaces/inkscape"
   id="svg11037"
   height="96"
   width="96"
   version="1.1"
   inkscape:version="0.48.5 r10040"
   sodipodi:docname="Doom3.svg">
  <sodipodi:namedview
     pagecolor="#ffffff"
     bordercolor="#666666"
     borderopacity="1"
     objecttolerance="10"
     gridtolerance="10"
     guidetolerance="10"
     inkscape:pageopacity="0"
     inkscape:pageshadow="2"
     inkscape:window-width="640"
     inkscape:window-height="480"
     id="namedview8649" />
  <defs
     id="defs11039">
    <clipPath
       id="clipPath3009"
       clipPathUnits="userSpaceOnUse">
      <path
         id="path3011"
         style="opacity:.15;fill:#fff"
         d="m-2 956.36h-96v33.562l96 25.687v-59.25z" />
    </clipPath>
    <radialGradient
       id="radialGradient3385"
       gradientUnits="userSpaceOnUse"
       cx="71.471"
       cy="57.24"
       r="43.796"
       gradientTransform="matrix(1.5922 -.029897 .020289 3.4536 -19.276 821.01)">
      <stop
         id="stop4077"
         style="stop-color:#601c12"
         offset="0" />
      <stop
         id="stop4079"
         offset="1" />
    </radialGradient>
    <clipPath
       id="clipPath3018"
       clipPathUnits="userSpaceOnUse">
      <rect
         id="rect3020"
         style="opacity:.6"
         rx="25"
         ry="25"
         height="92"
         width="92"
         y="958.36"
         x="2" />
    </clipPath>
    <radialGradient
       id="radialGradient5674"
       xlink:href="#linearGradient5660"
       gradientUnits="userSpaceOnUse"
       cy="46.601"
       cx="43.239"
       gradientTransform="matrix(1 0 0 1.0368 0 -1.7169)"
       r="21.283" />
    <linearGradient
       id="linearGradient5660">
      <stop
         id="stop5662"
         style="stop-color:#e37501"
         offset="0" />
      <stop
         id="stop5664"
         style="stop-color:#e37501;stop-opacity:0"
         offset="1" />
    </linearGradient>
    <radialGradient
       id="radialGradient5565"
       xlink:href="#linearGradient5555"
       gradientUnits="userSpaceOnUse"
       cy="30.47"
       cx="57.017"
       gradientTransform="matrix(1 0 0 1.0723 0 -2.2027)"
       r="9.2974" />
    <linearGradient
       id="linearGradient5555">
      <stop
         id="stop5557"
         style="stop-color:#e30501"
         offset="0" />
      <stop
         id="stop5559"
         style="stop-color:#e30501;stop-opacity:0"
         offset="1" />
    </linearGradient>
    <linearGradient
       id="linearGradient5656"
       y2="49.675"
       xlink:href="#linearGradient5168"
       gradientUnits="userSpaceOnUse"
       x2="6.3724"
       gradientTransform="matrix(.81994 0 0 .72389 .53532 13.387)"
       y1="49.675"
       x1="22.5" />
    <linearGradient
       id="linearGradient5168">
      <stop
         id="stop5170"
         style="stop-color:#fe8f00"
         offset="0" />
      <stop
         id="stop5172"
         style="stop-color:#f49922;stop-opacity:0"
         offset="1" />
    </linearGradient>
    <linearGradient
       id="linearGradient5110"
       y2="68.228"
       xlink:href="#linearGradient5112"
       gradientUnits="userSpaceOnUse"
       x2="59.959"
       gradientTransform="matrix(.94833 0 0 .91708 -50.952 -11.981)"
       y1="68.228"
       x1="63.068" />
    <linearGradient
       id="linearGradient5112">
      <stop
         id="stop5114"
         style="stop-color:#ec2e00"
         offset="0" />
      <stop
         id="stop5116"
         style="stop-color:#ff6613;stop-opacity:0"
         offset="1" />
    </linearGradient>
    <linearGradient
       id="linearGradient5143"
       y2="51.341"
       xlink:href="#linearGradient5137"
       gradientUnits="userSpaceOnUse"
       x2="5.8645"
       gradientTransform="matrix(.98268 0 0 .94383 .012824 2.4538)"
       y1="51.341"
       x1="8.0308" />
    <linearGradient
       id="linearGradient5137">
      <stop
         id="stop5139"
         style="stop-color:#c72c04"
         offset="0" />
      <stop
         id="stop5141"
         style="stop-color:#c72c04;stop-opacity:0"
         offset="1" />
    </linearGradient>
    <linearGradient
       id="linearGradient5174"
       y2="49.675"
       xlink:href="#linearGradient5168"
       gradientUnits="userSpaceOnUse"
       x2="6.3724"
       gradientTransform="matrix(.97484 0 0 .88714 .044397 5.1653)"
       y1="49.675"
       x1="22.5" />
    <linearGradient
       id="linearGradient6100"
       y2="49.675"
       xlink:href="#linearGradient5168"
       gradientUnits="userSpaceOnUse"
       x2="6.3724"
       gradientTransform="matrix(.97424 0 0 .91162 .064303 3.6673)"
       y1="49.675"
       x1="22.5" />
    <linearGradient
       id="linearGradient5196"
       y2="46.273"
       xlink:href="#linearGradient5190"
       gradientUnits="userSpaceOnUse"
       x2="6.7157"
       gradientTransform="matrix(.98268 0 0 .94383 .012824 2.4538)"
       y1="47.057"
       x1="28.794" />
    <linearGradient
       id="linearGradient5190">
      <stop
         id="stop5192"
         style="stop-color:#fe0000"
         offset="0" />
      <stop
         id="stop5194"
         style="stop-color:#fe0000;stop-opacity:0"
         offset="1" />
    </linearGradient>
    <radialGradient
       id="radialGradient5200"
       xlink:href="#linearGradient5036"
       gradientUnits="userSpaceOnUse"
       cy="30.47"
       cx="57.017"
       gradientTransform="matrix(1 0 0 1.0723 0 -2.2027)"
       r="9.2974" />
    <linearGradient
       id="linearGradient5036">
      <stop
         id="stop5038"
         style="stop-color:#f29521"
         offset="0" />
      <stop
         id="stop5040"
         style="stop-color:#f29521;stop-opacity:0"
         offset="1" />
    </linearGradient>
    <linearGradient
       id="linearGradient5371"
       y2="68.228"
       xlink:href="#linearGradient5112"
       gradientUnits="userSpaceOnUse"
       x2="59.959"
       gradientTransform="matrix(.38177 0 0 .35295 -16.754 .67139)"
       y1="68.228"
       x1="63.068" />
    <linearGradient
       id="linearGradient5373"
       y2="51.341"
       xlink:href="#linearGradient5137"
       gradientUnits="userSpaceOnUse"
       x2="5.8645"
       gradientTransform="matrix(.39560 0 0 .36324 3.7628 6.2269)"
       y1="51.341"
       x1="8.0308" />
    <linearGradient
       id="linearGradient5375"
       y2="21.939"
       xlink:href="#linearGradient4815"
       gradientUnits="userSpaceOnUse"
       x2="204.45"
       gradientTransform="matrix(.61338 0 0 .58490 -78.509 11.39)"
       y1="11.69"
       x1="210.17" />
    <linearGradient
       id="linearGradient4815">
      <stop
         id="stop4817"
         style="stop-color:#ffb329"
         offset="0" />
      <stop
         id="stop4819"
         style="stop-color:#ffb329;stop-opacity:0"
         offset="1" />
    </linearGradient>
    <linearGradient
       id="linearGradient5401"
       y2="49.675"
       xlink:href="#linearGradient5168"
       gradientUnits="userSpaceOnUse"
       x2="6.3724"
       gradientTransform="matrix(.39244 0 0 .34142 3.7755 7.2704)"
       y1="49.675"
       x1="22.5" />
    <linearGradient
       id="linearGradient5415"
       y2="46.273"
       xlink:href="#linearGradient5190"
       gradientUnits="userSpaceOnUse"
       x2="6.7157"
       gradientTransform="matrix(.39560 0 0 .36324 3.7628 6.2269)"
       y1="47.057"
       x1="28.794" />
  </defs>
  <metadata
     id="metadata11042">
    <rdf:RDF>
      <cc:Work
         rdf:about="">
        <dc:format>image/svg+xml</dc:format>
        <dc:type
           rdf:resource="http://purl.org/dc/dcmitype/StillImage" />
        <dc:title />
      </cc:Work>
    </rdf:RDF>
  </metadata>
  <g
     id="layer1"
     transform="translate(0 -956.36)">
    <rect
       id="rect12887-4"
       style="fill:url(#radialGradient3385)"
       clip-path="url(#clipPath3018)"
       rx="6.8571"
       ry="6.8571"
       height="96"
       width="96"
       y="956.36"
       x="0" />
    <g
       id="g3387"
       transform="translate(4.5392e-8 956.36)">
      <path
         id="path5672"
         d="m64.522 46.601a21.283 22.067 0 1 1 -42.566 0 21.283 22.067 0 1 1 42.566 0z"
         style="opacity:.68571;fill:url(#radialGradient5674)"
         transform="matrix(.71426 0 0 .94383 -3.4402 26.697)" />
      <path
         id="path5668"
         d="m64.522 46.601a21.283 22.067 0 1 1 -42.566 0 21.283 22.067 0 1 1 42.566 0z"
         style="opacity:.68571;fill:url(#radialGradient5674)"
         transform="matrix(1.2004 .38821 -.22482 .69518 7.9069 4.7038)" />
      <path
         id="path5658"
         d="m64.522 46.601a21.283 22.067 0 1 1 -42.566 0 21.283 22.067 0 1 1 42.566 0z"
         style="opacity:.68571;fill:url(#radialGradient5674)"
         transform="matrix(.92479 0 0 .88799 4.1459 -13.938)" />
      <path
         id="path5563"
         d="m66.314 30.47a9.2974 9.9695 0 1 1 -18.595 0 9.2974 9.9695 0 1 1 18.595 0z"
         style="opacity:.77143;fill:url(#radialGradient5565)"
         transform="matrix(-1.9811 .28946 -2.2193 -.42915 211.94 54.748)" />
      <path
         id="path5654"
         d="m22.489 21.507c-6.4357 0-13.294 1.6234-18.17 4.7461l-0.4831 44.381c4.8766 3.1248 12.215 4.7145 18.653 4.7145 16.49 0 29.853-12.062 29.853-26.931s-13.362-26.91-29.853-26.91z"
         style="opacity:.31429;stroke:url(#linearGradient5656);stroke-width:1.0547;fill:none" />
      <path
         id="path4751"
         d="m28.081 9.0901c-8.2885 0-17.121 2.3291-23.401 6.8092l-0.6227 63.673c6.2805 4.4832 15.732 6.7639 24.023 6.7639 21.238 0 38.447-17.305 38.447-38.638 0-21.332-17.209-38.608-38.447-38.608z"
         style="opacity:.34762;stroke:url(#linearGradient5110);stroke-width:2.9111;fill:none" />
      <path
         id="path4755"
         d="m7.475 18.912 7.4315 23.448-10.508 6.7592 0.22015 8.7426 14.802 0.13023 8.5677 23.861 8.1992-23.153 26.041-0.47191-20.237-14.777 7.5544-24.127-20.698 14.039z"
         style="stroke:url(#linearGradient5143);stroke-linecap:round;stroke-width:2.837;fill:none" />
      <path
         id="path4926"
         d="m14.473 42.023 5.5568 16.384"
         style="stroke:#c72c04;stroke-width:2.7929;fill:none" />
      <path
         id="path4928"
         d="m27.714 33.373 14.904 10.324"
         style="stroke:#c72c04;stroke-width:2.7929;fill:none" />
      <path
         id="path4930"
         d="m18.39 58.059 18.654 0.30695"
         style="stroke:#c72c04;stroke-width:2.7929;fill:none" />
      <path
         id="path4932"
         d="m36.367 58.309 6.042-16.239"
         style="stroke:#c72c04;stroke-width:2.7929;fill:none" />
      <path
         id="path5571"
         d="m66.314 30.47a9.2974 9.9695 0 1 1 -18.595 0 9.2974 9.9695 0 1 1 18.595 0z"
         style="opacity:.77143;fill:url(#radialGradient5565)"
         transform="matrix(-.27328 2.2117 -1.0372 2.1951 85.813 -140.63)" />
      <path
         id="path4936"
         d="m29.447 33.201-15.272 9.859"
         style="stroke:#c72c04;stroke-width:2.8872;fill:none" />
      <path
         id="path5567"
         d="m66.314 30.47a9.2974 9.9695 0 1 1 -18.595 0 9.2974 9.9695 0 1 1 18.595 0z"
         style="opacity:.77143;fill:url(#radialGradient5565)"
         transform="matrix(-1.3498 1.3391 -1.9525 .90053 163.31 -69.299)" />
      <path
         id="path5180"
         d="m26.146 15.117c-7.6515 0-15.806 1.9895-21.602 5.8164l-0.5755 54.39c5.7979 3.8295 14.523 5.7777 22.177 5.7777 19.606 0 35.493-14.782 35.493-33.004s-15.887-32.979-35.493-32.979z"
         style="opacity:.028571;stroke:url(#linearGradient5174);stroke-width:4.9549;fill:none" />
      <path
         id="path5178"
         d="m26.15 13.894c-7.6469 0-15.796 2.0444-21.589 5.9769l-0.575 55.891c5.7944 3.9352 14.514 5.9372 22.164 5.9372 19.594 0 35.471-15.19 35.471-33.915s-15.877-33.889-35.471-33.889z"
         style="opacity:.13810;stroke:url(#linearGradient6100);stroke-width:4.0453;fill:none" />
      <path
         id="path5176"
         d="m26.15 13.894c-7.6469 0-15.796 2.0444-21.589 5.9769l-0.575 55.891c5.7944 3.9352 14.514 5.9372 22.164 5.9372 19.594 0 35.471-15.19 35.471-33.915s-15.877-33.889-35.471-33.889z"
         style="opacity:.34286;stroke:url(#linearGradient6100);stroke-width:2.679;fill:none" />
      <path
         id="path5164"
         d="m26.15 13.894c-7.6469 0-15.796 2.0444-21.589 5.9769l-0.575 55.891c5.7944 3.9352 14.514 5.9372 22.164 5.9372 19.594 0 35.471-15.19 35.471-33.915s-15.877-33.889-35.471-33.889z"
         style="opacity:.84762;stroke:url(#linearGradient6100);stroke-width:1.4103;fill:none" />
      <path
         id="path5551"
         d="m66.314 30.47a9.2974 9.9695 0 1 1 -18.595 0 9.2974 9.9695 0 1 1 18.595 0z"
         style="opacity:.77143;fill:url(#radialGradient5565)"
         transform="matrix(-1.7636 -.88751 -1.6907 -1.4095 188.94 132.72)" />
      <path
         id="path5188"
         d="m28.081 9.0901c-8.2885 0-17.121 2.3291-23.401 6.8092l-0.6227 63.673c6.2805 4.4832 15.732 6.7639 24.023 6.7639 21.238 0 38.447-17.305 38.447-38.638 0-21.332-17.209-38.608-38.447-38.608z"
         style="opacity:.79825;stroke:url(#linearGradient5196);stroke-width:1.6593;fill:none" />
      <path
         id="path5198"
         d="m66.314 30.47a9.2974 9.9695 0 1 1 -18.595 0 9.2974 9.9695 0 1 1 18.595 0z"
         style="opacity:.66228;fill:url(#radialGradient5200)"
         transform="matrix(-.26496 .50709 -.66057 .21824 47.293 8.4426)" />
      <path
         id="path5202"
         d="m66.314 30.47a9.2974 9.9695 0 1 1 -18.595 0 9.2974 9.9695 0 1 1 18.595 0z"
         style="opacity:.66228;fill:url(#radialGradient5200)"
         transform="matrix(-.93593 .20669 -1.1617 -.18232 108.44 51.795)" />
      <path
         id="path5206"
         d="m66.314 30.47a9.2974 9.9695 0 1 1 -18.595 0 9.2974 9.9695 0 1 1 18.595 0z"
         style="opacity:.66228;fill:url(#radialGradient5200)"
         transform="matrix(-.093510 -.56021 .40326 -.54785 28.45 109.3)" />
      <g
         id="g5334"
         style="opacity:.5"
         transform="matrix(.99915 0 0 .97122 .82129 2.0175)">
        <path
           id="path5212"
           d="m15.062 8.7809c-3.3367 0-6.8926 0.89639-9.4204 2.6206l-0.2506 24.505c2.5284 1.7254 6.3331 2.6032 9.6711 2.6032 8.5498 0 15.478-6.6602 15.478-14.87 0-8.21-6.928-14.859-15.478-14.859z"
           style="opacity:.34762;stroke:url(#linearGradient5371);stroke-width:1.1458;fill:none" />
        <path
           id="path5214"
           d="m6.7669 12.561 2.9917 9.0243-4.2302 2.6014 0.088625 3.3647 5.9589 0.05013 3.4491 9.1832 3.3008-8.9108 10.483-0.18162-8.1469-5.687 3.0412-9.2854-8.3323 5.4032z"
           style="stroke:url(#linearGradient5373);stroke-linecap:round;stroke-width:1.1167;fill:none" />
        <path
           id="path5216"
           d="m9.5841 21.455 2.237 6.3057"
           style="stroke:#c72c04;stroke-width:1.0993;fill:none" />
        <path
           id="path5218"
           d="m14.915 18.127 5.9999 3.9734"
           style="stroke:#c72c04;stroke-width:1.0993;fill:none" />
        <path
           id="path5220"
           d="m11.161 27.627 7.5095 0.11813"
           style="stroke:#c72c04;stroke-width:1.0993;fill:none" />
        <path
           id="path5222"
           d="m18.398 27.723 2.4322-6.2495"
           style="stroke:#c72c04;stroke-width:1.0993;fill:none" />
        <path
           id="path5224"
           d="m15.612 18.06-6.1479 3.795"
           style="stroke:#c72c04;stroke-width:1.1365;fill:none" />
        <g
           id="g5226"
           transform="matrix(.39560 0 0 .36324 3.7628 6.2269)">
          <path
             id="path5228"
             d="m43.412 22.044 6.8022-3.9639-1.7864 7.2399"
             style="opacity:.43860;stroke:url(#linearGradient5375);stroke-width:2.198;fill:none" />
          <path
             id="path5230"
             d="m43.412 22.044 6.8022-3.9639-1.7864 7.2399"
             style="opacity:.70175;stroke:url(#linearGradient5375);stroke-width:1.198;fill:none" />
        </g>
        <g
           id="g5232"
           transform="matrix(.13411 -.34173 .37217 .12314 -6.5926 27.615)">
          <path
             id="path5234"
             d="m43.412 22.044 6.8022-3.9639-1.7864 7.2399"
             style="opacity:.43860;stroke:url(#linearGradient5375);stroke-width:2.198;fill:none" />
          <path
             id="path5236"
             d="m43.412 22.044 6.8022-3.9639-1.7864 7.2399"
             style="opacity:.70175;stroke:url(#linearGradient5375);stroke-width:1.198;fill:none" />
        </g>
        <g
           id="g5238"
           transform="matrix(-.32163 .21149 -.23033 -.29532 35.298 31.257)">
          <path
             id="path5240"
             d="m43.412 22.044 6.8022-3.9639-1.7864 7.2399"
             style="opacity:.43860;stroke:url(#linearGradient5375);stroke-width:2.198;fill:none" />
          <path
             id="path5242"
             d="m43.412 22.044 6.8022-3.9639-1.7864 7.2399"
             style="opacity:.70175;stroke:url(#linearGradient5375);stroke-width:1.198;fill:none" />
        </g>
        <g
           id="g5244"
           transform="matrix(.10425 .35040 -.38162 .095723 30.061 8.2986)">
          <path
             id="path5246"
             d="m43.412 22.044 6.8022-3.9639-1.7864 7.2399"
             style="opacity:.43860;stroke:url(#linearGradient5375);stroke-width:2.198;fill:none" />
          <path
             id="path5248"
             d="m43.412 22.044 6.8022-3.9639-1.7864 7.2399"
             style="opacity:.70175;stroke:url(#linearGradient5375);stroke-width:1.198;fill:none" />
        </g>
        <path
           id="path5250"
           d="m66.314 30.47a9.2974 9.9695 0 1 1 -18.595 0 9.2974 9.9695 0 1 1 18.595 0z"
           style="opacity:.66228;fill:url(#radialGradient5200)"
           transform="matrix(.064846 .21008 -.13437 .22683 23.677 -4.4024)" />
        <path
           id="path5252"
           d="m66.314 30.47a9.2974 9.9695 0 1 1 -18.595 0 9.2974 9.9695 0 1 1 18.595 0z"
           style="opacity:.66228;fill:url(#radialGradient5200)"
           transform="matrix(-.10666 .19516 -.26593 .083993 36.091 -.094385)" />
        <path
           id="path5254"
           d="m66.314 30.47a9.2974 9.9695 0 1 1 -18.595 0 9.2974 9.9695 0 1 1 18.595 0z"
           style="opacity:.66228;fill:url(#radialGradient5200)"
           transform="matrix(.23409 .038428 .16329 .21023 -10.079 4.5605)" />
        <path
           id="path5256"
           d="m66.314 30.47a9.2974 9.9695 0 1 1 -18.595 0 9.2974 9.9695 0 1 1 18.595 0z"
           style="opacity:.66228;fill:url(#radialGradient5200)"
           transform="matrix(.14441 .17349 -.034163 .25631 -.42692 -3.8019)" />
        <path
           id="path5258"
           d="m66.314 30.47a9.2974 9.9695 0 1 1 -18.595 0 9.2974 9.9695 0 1 1 18.595 0z"
           style="opacity:.66228;fill:url(#radialGradient5200)"
           transform="matrix(-.21450 .094280 -.26624 -.083161 46.943 25.042)" />
        <path
           id="path5260"
           d="m14.283 11.101c-3.0803 0-6.3629 0.76569-8.6965 2.2385l-0.2313 20.932c2.3341 1.4738 5.8464 2.2236 8.9279 2.2236 7.8927 0 14.288-5.6891 14.288-12.702 0-7.013-6.3956-12.692-14.288-12.692z"
           style="opacity:.028571;stroke:url(#linearGradient5401);stroke-width:1.9503;fill:none" />
        <path
           id="path5262"
           d="m66.314 30.47a9.2974 9.9695 0 1 1 -18.595 0 9.2974 9.9695 0 1 1 18.595 0z"
           style="opacity:.66228;fill:url(#radialGradient5200)"
           transform="matrix(-.22754 -.063453 -.13522 -.22641 44.423 37.006)" />
        <path
           id="path5264"
           d="m66.314 30.47a9.2974 9.9695 0 1 1 -18.595 0 9.2974 9.9695 0 1 1 18.595 0z"
           style="opacity:.66228;fill:url(#radialGradient5200)"
           transform="matrix(-.18632 -.13569 -.035315 -.25617 25.81 50.693)" />
        <path
           id="path5266"
           d="m14.283 11.101c-3.0803 0-6.3629 0.76569-8.6965 2.2385l-0.2313 20.932c2.3341 1.4738 5.8464 2.2236 8.9279 2.2236 7.8927 0 14.288-5.6891 14.288-12.702 0-7.013-6.3956-12.692-14.288-12.692z"
           style="opacity:.13810;stroke:url(#linearGradient5401);stroke-width:1.5713;fill:none" />
        <path
           id="path5268"
           d="m66.314 30.47a9.2974 9.9695 0 1 1 -18.595 0 9.2974 9.9695 0 1 1 18.595 0z"
           style="opacity:.66228;fill:url(#radialGradient5200)"
           transform="matrix(-.037645 -.21560 .16234 -.21085 12.995 53.858)" />
        <path
           id="path5270"
           d="m14.283 11.101c-3.0803 0-6.3629 0.76569-8.6965 2.2385l-0.2313 20.932c2.3341 1.4738 5.8464 2.2236 8.9279 2.2236 7.8927 0 14.288-5.6891 14.288-12.702 0-7.013-6.3956-12.692-14.288-12.692z"
           style="opacity:.34286;stroke:url(#linearGradient5401);stroke-width:1.0406;fill:none" />
        <path
           id="path5272"
           d="m14.283 11.101c-3.0803 0-6.3629 0.76569-8.6965 2.2385l-0.2313 20.932c2.3341 1.4738 5.8464 2.2236 8.9279 2.2236 7.8927 0 14.288-5.6891 14.288-12.702 0-7.013-6.3956-12.692-14.288-12.692z"
           style="opacity:.84762;stroke:url(#linearGradient5401);stroke-width:.54776;fill:none" />
        <path
           id="path5274"
           d="m15.062 8.7809c-3.3367 0-6.8926 0.89639-9.4204 2.6206l-0.2506 24.505c2.5284 1.7254 6.3331 2.6032 9.6711 2.6032 8.5498 0 15.478-6.6602 15.478-14.87 0-8.21-6.928-14.859-15.478-14.859z"
           style="opacity:.79825;stroke:url(#linearGradient5415);stroke-width:.65315;fill:none" />
        <path
           id="path5276"
           d="m66.314 30.47a9.2974 9.9695 0 1 1 -18.595 0 9.2974 9.9695 0 1 1 18.595 0z"
           style="opacity:.66228;fill:url(#radialGradient5200)"
           transform="matrix(-.10666 .19516 -.26593 .083993 22.796 8.5317)" />
        <path
           id="path5278"
           d="m66.314 30.47a9.2974 9.9695 0 1 1 -18.595 0 9.2974 9.9695 0 1 1 18.595 0z"
           style="opacity:.66228;fill:url(#radialGradient5200)"
           transform="matrix(-.37678 .079548 -.46766 -.070166 47.413 25.216)" />
        <path
           id="path5280"
           d="m66.314 30.47a9.2974 9.9695 0 1 1 -18.595 0 9.2974 9.9695 0 1 1 18.595 0z"
           style="opacity:.66228;fill:url(#radialGradient5200)"
           transform="matrix(-.037645 -.21560 .16234 -.21085 15.211 47.347)" />
      </g>
      <g
         id="g5423"
         style="opacity:.5"
         transform="matrix(.046108 -.95862 1.0101 .044819 10.385 92.932)">
        <path
           id="path5425"
           d="m15.062 8.7809c-3.3367 0-6.8926 0.89639-9.4204 2.6206l-0.2506 24.505c2.5284 1.7254 6.3331 2.6032 9.6711 2.6032 8.5498 0 15.478-6.6602 15.478-14.87 0-8.21-6.928-14.859-15.478-14.859z"
           style="opacity:.34762;stroke:url(#linearGradient5371);stroke-width:1.1458;fill:none" />
        <path
           id="path5427"
           d="m6.7669 12.561 2.9917 9.0243-4.2302 2.6014 0.088625 3.3647 5.9589 0.05013 3.4491 9.1832 3.3008-8.9108 10.483-0.18162-8.1469-5.687 3.0412-9.2854-8.3323 5.4032z"
           style="stroke:url(#linearGradient5373);stroke-linecap:round;stroke-width:1.1167;fill:none" />
        <path
           id="path5429"
           d="m9.5841 21.455 2.237 6.3057"
           style="stroke:#c72c04;stroke-width:1.0993;fill:none" />
        <path
           id="path5431"
           d="m14.915 18.127 5.9999 3.9734"
           style="stroke:#c72c04;stroke-width:1.0993;fill:none" />
        <path
           id="path5433"
           d="m11.161 27.627 7.5095 0.11813"
           style="stroke:#c72c04;stroke-width:1.0993;fill:none" />
        <path
           id="path5435"
           d="m18.398 27.723 2.4322-6.2495"
           style="stroke:#c72c04;stroke-width:1.0993;fill:none" />
        <path
           id="path5437"
           d="m15.612 18.06-6.1479 3.795"
           style="stroke:#c72c04;stroke-width:1.1365;fill:none" />
        <g
           id="g5439"
           transform="matrix(.39560 0 0 .36324 3.7628 6.2269)">
          <path
             id="path5441"
             d="m43.412 22.044 6.8022-3.9639-1.7864 7.2399"
             style="opacity:.43860;stroke:url(#linearGradient5375);stroke-width:2.198;fill:none" />
          <path
             id="path5443"
             d="m43.412 22.044 6.8022-3.9639-1.7864 7.2399"
             style="opacity:.70175;stroke:url(#linearGradient5375);stroke-width:1.198;fill:none" />
        </g>
        <g
           id="g5445"
           transform="matrix(.13411 -.34173 .37217 .12314 -6.5926 27.615)">
          <path
             id="path5447"
             d="m43.412 22.044 6.8022-3.9639-1.7864 7.2399"
             style="opacity:.43860;stroke:url(#linearGradient5375);stroke-width:2.198;fill:none" />
          <path
             id="path5449"
             d="m43.412 22.044 6.8022-3.9639-1.7864 7.2399"
             style="opacity:.70175;stroke:url(#linearGradient5375);stroke-width:1.198;fill:none" />
        </g>
        <g
           id="g5451"
           transform="matrix(-.32163 .21149 -.23033 -.29532 35.298 31.257)">
          <path
             id="path5453"
             d="m43.412 22.044 6.8022-3.9639-1.7864 7.2399"
             style="opacity:.43860;stroke:url(#linearGradient5375);stroke-width:2.198;fill:none" />
          <path
             id="path5455"
             d="m43.412 22.044 6.8022-3.9639-1.7864 7.2399"
             style="opacity:.70175;stroke:url(#linearGradient5375);stroke-width:1.198;fill:none" />
        </g>
        <g
           id="g5457"
           transform="matrix(.10425 .35040 -.38162 .095723 30.061 8.2986)">
          <path
             id="path5459"
             d="m43.412 22.044 6.8022-3.9639-1.7864 7.2399"
             style="opacity:.43860;stroke:url(#linearGradient5375);stroke-width:2.198;fill:none" />
          <path
             id="path5461"
             d="m43.412 22.044 6.8022-3.9639-1.7864 7.2399"
             style="opacity:.70175;stroke:url(#linearGradient5375);stroke-width:1.198;fill:none" />
        </g>
        <path
           id="path5463"
           d="m66.314 30.47a9.2974 9.9695 0 1 1 -18.595 0 9.2974 9.9695 0 1 1 18.595 0z"
           style="opacity:.66228;fill:url(#radialGradient5200)"
           transform="matrix(.064846 .21008 -.13437 .22683 23.677 -4.4024)" />
        <path
           id="path5465"
           d="m66.314 30.47a9.2974 9.9695 0 1 1 -18.595 0 9.2974 9.9695 0 1 1 18.595 0z"
           style="opacity:.66228;fill:url(#radialGradient5200)"
           transform="matrix(-.10666 .19516 -.26593 .083993 36.091 -.094385)" />
        <path
           id="path5467"
           d="m66.314 30.47a9.2974 9.9695 0 1 1 -18.595 0 9.2974 9.9695 0 1 1 18.595 0z"
           style="opacity:.66228;fill:url(#radialGradient5200)"
           transform="matrix(.23409 .038428 .16329 .21023 -10.079 4.5605)" />
        <path
           id="path5469"
           d="m66.314 30.47a9.2974 9.9695 0 1 1 -18.595 0 9.2974 9.9695 0 1 1 18.595 0z"
           style="opacity:.66228;fill:url(#radialGradient5200)"
           transform="matrix(.14441 .17349 -.034163 .25631 -.42692 -3.8019)" />
        <path
           id="path5471"
           d="m66.314 30.47a9.2974 9.9695 0 1 1 -18.595 0 9.2974 9.9695 0 1 1 18.595 0z"
           style="opacity:.66228;fill:url(#radialGradient5200)"
           transform="matrix(-.21450 .094280 -.26624 -.083161 46.943 25.042)" />
        <path
           id="path5473"
           d="m14.283 11.101c-3.0803 0-6.3629 0.76569-8.6965 2.2385l-0.2313 20.932c2.3341 1.4738 5.8464 2.2236 8.9279 2.2236 7.8927 0 14.288-5.6891 14.288-12.702 0-7.013-6.3956-12.692-14.288-12.692z"
           style="opacity:.028571;stroke:url(#linearGradient5401);stroke-width:1.9503;fill:none" />
        <path
           id="path5475"
           d="m66.314 30.47a9.2974 9.9695 0 1 1 -18.595 0 9.2974 9.9695 0 1 1 18.595 0z"
           style="opacity:.66228;fill:url(#radialGradient5200)"
           transform="matrix(-.22754 -.063453 -.13522 -.22641 44.423 37.006)" />
        <path
           id="path5477"
           d="m66.314 30.47a9.2974 9.9695 0 1 1 -18.595 0 9.2974 9.9695 0 1 1 18.595 0z"
           style="opacity:.66228;fill:url(#radialGradient5200)"
           transform="matrix(-.18632 -.13569 -.035315 -.25617 25.81 50.693)" />
        <path
           id="path5479"
           d="m14.283 11.101c-3.0803 0-6.3629 0.76569-8.6965 2.2385l-0.2313 20.932c2.3341 1.4738 5.8464 2.2236 8.9279 2.2236 7.8927 0 14.288-5.6891 14.288-12.702 0-7.013-6.3956-12.692-14.288-12.692z"
           style="opacity:.13810;stroke:url(#linearGradient5401);stroke-width:1.5713;fill:none" />
        <path
           id="path5481"
           d="m66.314 30.47a9.2974 9.9695 0 1 1 -18.595 0 9.2974 9.9695 0 1 1 18.595 0z"
           style="opacity:.66228;fill:url(#radialGradient5200)"
           transform="matrix(-.037645 -.21560 .16234 -.21085 12.995 53.858)" />
        <path
           id="path5483"
           d="m14.283 11.101c-3.0803 0-6.3629 0.76569-8.6965 2.2385l-0.2313 20.932c2.3341 1.4738 5.8464 2.2236 8.9279 2.2236 7.8927 0 14.288-5.6891 14.288-12.702 0-7.013-6.3956-12.692-14.288-12.692z"
           style="opacity:.34286;stroke:url(#linearGradient5401);stroke-width:1.0406;fill:none" />
        <path
           id="path5485"
           d="m14.283 11.101c-3.0803 0-6.3629 0.76569-8.6965 2.2385l-0.2313 20.932c2.3341 1.4738 5.8464 2.2236 8.9279 2.2236 7.8927 0 14.288-5.6891 14.288-12.702 0-7.013-6.3956-12.692-14.288-12.692z"
           style="opacity:.84762;stroke:url(#linearGradient5401);stroke-width:.54776;fill:none" />
        <path
           id="path5487"
           d="m15.062 8.7809c-3.3367 0-6.8926 0.89639-9.4204 2.6206l-0.2506 24.505c2.5284 1.7254 6.3331 2.6032 9.6711 2.6032 8.5498 0 15.478-6.6602 15.478-14.87 0-8.21-6.928-14.859-15.478-14.859z"
           style="opacity:.79825;stroke:url(#linearGradient5415);stroke-width:.65315;fill:none" />
        <path
           id="path5489"
           d="m66.314 30.47a9.2974 9.9695 0 1 1 -18.595 0 9.2974 9.9695 0 1 1 18.595 0z"
           style="opacity:.66228;fill:url(#radialGradient5200)"
           transform="matrix(-.10666 .19516 -.26593 .083993 22.796 8.5317)" />
        <path
           id="path5491"
           d="m66.314 30.47a9.2974 9.9695 0 1 1 -18.595 0 9.2974 9.9695 0 1 1 18.595 0z"
           style="opacity:.66228;fill:url(#radialGradient5200)"
           transform="matrix(-.37678 .079548 -.46766 -.070166 47.413 25.216)" />
        <path
           id="path5493"
           d="m66.314 30.47a9.2974 9.9695 0 1 1 -18.595 0 9.2974 9.9695 0 1 1 18.595 0z"
           style="opacity:.66228;fill:url(#radialGradient5200)"
           transform="matrix(-.037645 -.21560 .16234 -.21085 15.211 47.347)" />
      </g>
      <path
         id="path5547"
         d="m66.314 30.47a9.2974 9.9695 0 1 1 -18.595 0 9.2974 9.9695 0 1 1 18.595 0z"
         style="opacity:.66228;fill:url(#radialGradient5200)"
         transform="matrix(-1.2435 -.59966 -1.1921 -.95238 146.18 104.28)" />
      <g
         id="g4949"
         transform="matrix(.98268 0 0 .94383 .012824 2.4538)">
        <path
           id="path4947"
           d="m43.412 22.044 6.8022-3.9639-1.7864 7.2399"
           style="opacity:.43860;stroke:url(#linearGradient5375);stroke-width:2.198;fill:none" />
        <path
           id="path4813"
           d="m43.412 22.044 6.8022-3.9639-1.7864 7.2399"
           style="opacity:.70175;stroke:url(#linearGradient5375);stroke-width:1.198;fill:none" />
      </g>
      <path
         id="path5044"
         d="m66.314 30.47a9.2974 9.9695 0 1 1 -18.595 0 9.2974 9.9695 0 1 1 18.595 0z"
         style="opacity:.66228;fill:url(#radialGradient5200)"
         transform="matrix(.16108 .54586 -.33379 .58939 49.48 -25.165)" />
      <path
         id="path5048"
         d="m66.314 30.47a9.2974 9.9695 0 1 1 -18.595 0 9.2974 9.9695 0 1 1 18.595 0z"
         style="opacity:.66228;fill:url(#radialGradient5200)"
         transform="matrix(-.26496 .50709 -.66057 .21824 80.316 -13.971)" />
      <g
         id="g4983"
         transform="matrix(.25896 .91046 -.94795 .24872 65.339 7.8368)">
        <path
           id="path4985"
           d="m43.412 22.044 6.8022-3.9639-1.7864 7.2399"
           style="opacity:.43860;stroke:url(#linearGradient5375);stroke-width:2.198;fill:none" />
        <path
           id="path4987"
           d="m43.412 22.044 6.8022-3.9639-1.7864 7.2399"
           style="opacity:.70175;stroke:url(#linearGradient5375);stroke-width:1.198;fill:none" />
      </g>
      <path
         id="path5068"
         d="m66.314 30.47a9.2974 9.9695 0 1 1 -18.595 0 9.2974 9.9695 0 1 1 18.595 0z"
         style="opacity:.66228;fill:url(#radialGradient5200)"
         transform="matrix(-.53282 .24497 -.66134 -.21608 107.27 51.343)" />
      <path
         id="path5070"
         d="m66.314 30.47a9.2974 9.9695 0 1 1 -18.595 0 9.2974 9.9695 0 1 1 18.595 0z"
         style="opacity:.66228;fill:url(#radialGradient5200)"
         transform="matrix(-.56523 -.16487 -.33588 -.58829 101.01 82.428)" />
      <g
         id="g4973"
         transform="matrix(-.79894 .54953 -.57215 -.76735 78.347 67.492)">
        <path
           id="path4975"
           d="m43.412 22.044 6.8022-3.9639-1.7864 7.2399"
           style="opacity:.43860;stroke:url(#linearGradient5375);stroke-width:2.198;fill:none" />
        <path
           id="path4977"
           d="m43.412 22.044 6.8022-3.9639-1.7864 7.2399"
           style="opacity:.70175;stroke:url(#linearGradient5375);stroke-width:1.198;fill:none" />
      </g>
      <path
         id="path5076"
         d="m66.314 30.47a9.2974 9.9695 0 1 1 -18.595 0 9.2974 9.9695 0 1 1 18.595 0z"
         style="opacity:.66228;fill:url(#radialGradient5200)"
         transform="matrix(-.46283 -.35256 -.087725 -.66563 54.78 117.99)" />
      <path
         id="path5078"
         d="m66.314 30.47a9.2974 9.9695 0 1 1 -18.595 0 9.2974 9.9695 0 1 1 18.595 0z"
         style="opacity:.66228;fill:url(#radialGradient5200)"
         transform="matrix(-.093510 -.56021 .40326 -.54785 22.946 126.21)" />
      <g
         id="g4953"
         transform="matrix(.33313 -.88794 .92449 .31996 -25.71 58.027)">
        <path
           id="path4955"
           d="m43.412 22.044 6.8022-3.9639-1.7864 7.2399"
           style="opacity:.43860;stroke:url(#linearGradient5375);stroke-width:2.198;fill:none" />
        <path
           id="path4957"
           d="m43.412 22.044 6.8022-3.9639-1.7864 7.2399"
           style="opacity:.70175;stroke:url(#linearGradient5375);stroke-width:1.198;fill:none" />
      </g>
      <path
         id="path5052"
         d="m66.314 30.47a9.2974 9.9695 0 1 1 -18.595 0 9.2974 9.9695 0 1 1 18.595 0z"
         style="opacity:.66228;fill:url(#radialGradient5200)"
         transform="matrix(.58150 .099849 .40562 .54625 -34.371 -1.8761)" />
      <path
         id="path5054"
         d="m66.314 30.47a9.2974 9.9695 0 1 1 -18.595 0 9.2974 9.9695 0 1 1 18.595 0z"
         style="opacity:.66228;fill:url(#radialGradient5200)"
         transform="matrix(.35871 .45078 -.084862 .66597 -10.395 -23.604)" />
      <path
         id="path5577"
         d="m142.37 50.941a6.1609 6.469 0 1 1 -12.322 0 6.1609 6.469 0 1 1 12.322 0z"
         style="opacity:.58095;stroke:#e34a01;stroke-linecap:round;stroke-width:0.846;fill:none"
         transform="matrix(1.3983 0 0 1.2893 -169.22 -17.388)" />
      <path
         id="path5579"
         d="m142.37 50.941a6.1609 6.469 0 1 1 -12.322 0 6.1609 6.469 0 1 1 12.322 0z"
         style="opacity:.58095;stroke:#e34a01;stroke-linecap:round;stroke-width:1.3017;fill:none"
         transform="matrix(.52771 0 0 .46987 -50.488 23.906)" />
      <path
         id="path5581"
         d="m142.37 50.941a6.1609 6.469 0 1 1 -12.322 0 6.1609 6.469 0 1 1 12.322 0z"
         style="opacity:.58095;fill:#e37501"
         transform="matrix(.14103 0 0 .12772 2.1279 41.27)" />
      <path
         id="path5583"
         d="m142.37 50.941a6.1609 6.469 0 1 1 -12.322 0 6.1609 6.469 0 1 1 12.322 0z"
         style="opacity:.58095;stroke:#e34a01;stroke-linecap:round;stroke-width:1.3017;fill:none"
         transform="matrix(.25284 0 0 .21844 -9.9335 30.883)" />
      <path
         id="path5585"
         d="m142.37 50.941a6.1609 6.469 0 1 1 -12.322 0 6.1609 6.469 0 1 1 12.322 0z"
         style="opacity:.58095;fill:#e37501"
         transform="matrix(.067572 0 0 .059378 15.276 38.956)" />
      <path
         id="path5587"
         d="m142.37 50.941a6.1609 6.469 0 1 1 -12.322 0 6.1609 6.469 0 1 1 12.322 0z"
         style="opacity:.58095;stroke:#e34a01;stroke-linecap:round;stroke-width:1.3017;fill:none"
         transform="matrix(.25284 0 0 .21844 -9.3108 42.695)" />
      <path
         id="path5589"
         d="m142.37 50.941a6.1609 6.469 0 1 1 -12.322 0 6.1609 6.469 0 1 1 12.322 0z"
         style="opacity:.58095;fill:#e37501"
         transform="matrix(.067572 0 0 .059378 15.899 50.767)" />
      <path
         id="path5591"
         d="m22.879 44.926 0.76339-1.6447"
         style="stroke:#842b01;stroke-width:.67414;fill:none" />
      <path
         id="path5593"
         d="m23.172 50.642 1.1903 2.0404"
         style="stroke:#862b01;stroke-width:.67414;fill:none" />
      <g
         id="g5611"
         transform="matrix(-.98268 0 0 .94383 57.631 2.5595)">
        <path
           id="path5595"
           d="m142.37 50.941a6.1609 6.469 0 1 1 -12.322 0 6.1609 6.469 0 1 1 12.322 0z"
           style="opacity:.58095;stroke:#e34a01;stroke-linecap:round;stroke-width:1.3017;fill:none"
           transform="matrix(.53701 0 0 .49784 -51.39 22.729)" />
        <path
           id="path5597"
           d="m142.37 50.941a6.1609 6.469 0 1 1 -12.322 0 6.1609 6.469 0 1 1 12.322 0z"
           style="opacity:.58095;fill:#e37501"
           transform="matrix(.14352 0 0 .13532 2.1523 41.127)" />
        <path
           id="path5599"
           d="m142.37 50.941a6.1609 6.469 0 1 1 -12.322 0 6.1609 6.469 0 1 1 12.322 0z"
           style="opacity:.58095;stroke:#e34a01;stroke-linecap:round;stroke-width:1.3017;fill:none"
           transform="matrix(.25730 0 0 .23144 -10.122 30.122)" />
        <path
           id="path5601"
           d="m142.37 50.941a6.1609 6.469 0 1 1 -12.322 0 6.1609 6.469 0 1 1 12.322 0z"
           style="opacity:.58095;fill:#e37501"
           transform="matrix(.068763 0 0 .062912 15.532 38.674)" />
        <path
           id="path5603"
           d="m142.37 50.941a6.1609 6.469 0 1 1 -12.322 0 6.1609 6.469 0 1 1 12.322 0z"
           style="opacity:.58095;stroke:#e34a01;stroke-linecap:round;stroke-width:1.3017;fill:none"
           transform="matrix(.25730 0 0 .23144 -9.488 42.636)" />
        <path
           id="path5605"
           d="m142.37 50.941a6.1609 6.469 0 1 1 -12.322 0 6.1609 6.469 0 1 1 12.322 0z"
           style="opacity:.58095;fill:#e37501"
           transform="matrix(.068763 0 0 .062912 16.166 51.189)" />
        <path
           id="path5607"
           d="m23.27 45 0.77684-1.7426"
           style="stroke:#842b01;stroke-width:0.7;fill:none" />
        <path
           id="path5609"
           d="m23.567 51.056 1.2113 2.1618"
           style="stroke:#862b01;stroke-width:0.7;fill:none" />
      </g>
      <path
         id="path5627"
         d="m142.37 50.941a6.1609 6.469 0 1 1 -12.322 0 6.1609 6.469 0 1 1 12.322 0z"
         style="opacity:.58095;stroke:#e34a01;stroke-linecap:round;stroke-width:.57216;fill:none"
         transform="matrix(1.8158 0 0 1.7039 -195.38 -43.688)" />
      <path
         id="path5629"
         d="m142.37 50.941a6.1609 6.469 0 1 1 -12.322 0 6.1609 6.469 0 1 1 12.322 0z"
         style="opacity:.58095;stroke:#e34a01;stroke-linecap:round;stroke-width:.57216;fill:none"
         transform="matrix(1.4227 0 0 1.3443 -141.94 -25.476)" />
    </g>
    <rect
       id="rect3003"
       style="opacity:.15;fill:#fff"
       transform="translate(98)"
       clip-path="url(#clipPath3009)"
       rx="25"
       ry="25"
       height="92"
       width="92"
       y="958.36"
       x="-96" />
  </g>
</svg>
