<svg height="96" width="96" xmlns="http://www.w3.org/2000/svg" xmlns:sodipodi="http://sodipodi.sourceforge.net/DTD/sodipodi-0.dtd" xmlns:inkscape="http://www.inkscape.org/namespaces/inkscape">
 <defs>
  <clipPath clipPathUnits="userSpaceOnUse" id="clipPath3009">
   <path d="m -2,956.36218 -96,0 0,33.5624 96,25.68742 0,-59.24982 z" inkscape:connector-curvature="0"/>
  </clipPath>
  <radialGradient cy="48" r="42" gradientUnits="userSpaceOnUse" id="radialGradient3558" cx="48" inkscape:collect="always" gradientTransform="matrix(1.1323 -0.00017 0.00017 1.15337 -6.359 949.01)">
   <stop stop-color="#494949" stop-opacity="1"/>
   <stop stop-color="#000000" stop-opacity="1" offset="1"/>
  </radialGradient>
  <clipPath clipPathUnits="userSpaceOnUse" id="clipPath3018">
   <rect x="2" rx="25" y="958.36" height="92" width="92"/>
  </clipPath>
 </defs>
 <g inkscape:label="Layer 1" inkscape:groupmode="layer" transform="matrix(1 0 0 1 0 -956.36)">
  <rect rx="6.857" display="inline" y="956.36" clip-path="url(#clipPath3018)" fill="url(#radialGradient3558)" fill-opacity="1" fill-rule="nonzero" stroke="none" height="96" width="96"/>
  <g transform="matrix(1 0 0 1 0 956.36)">
   <g transform="matrix(1 0 0 1 0 1)">
    <path d="M 18.96875,12.84375 A 1.9569814,1.9569814 0 0 0 17,14.8125 l 0,22.9375 -0.09375,0 a 1.9569814,1.9569814 0 0 0 -1.96875,1.96875 l 0,39.375 a 1.9569814,1.9569814 0 0 0 1.96875,1.96875 l 0.09375,0 0,0.125 a 1.9569814,1.9569814 0 0 0 1.96875,1.96875 l 18.65625,0 a 1.9569814,1.9569814 0 0 0 1.96875,-1.96875 l 0,-0.125 0.21875,0 0,0.125 a 1.9569814,1.9569814 0 0 0 1.96875,1.96875 l 14.5,0 a 1.9569814,1.9569814 0 0 0 1.03125,-0.3125 1.9569814,1.9569814 0 0 0 1.0625,0.3125 l 12.4375,0 a 1.9569814,1.9569814 0 0 0 1.96875,-1.96875 l 0,-0.125 2.1875,0 a 1.9569814,1.9569814 0 0 0 1.96875,-1.96875 l 0,-0.09375 0.09375,0 A 1.9569814,1.9569814 0 0 0 79,77.03125 l 0,-0.09375 0.09375,0 a 1.9569814,1.9569814 0 0 0 1.96875,-1.96875 l 0,-14.53125 a 1.9569814,1.9569814 0 0 0 -1.96875,-1.96875 l -0.09375,0 0,-0.09375 a 1.9569814,1.9569814 0 0 0 -1.96875,-1.96875 l -0.09375,0 0,-0.125 a 1.9569814,1.9569814 0 0 0 0,-0.09375 l 0.09375,0 A 1.9569814,1.9569814 0 0 0 79,54.21875 l 0,-0.09375 0.09375,0 a 1.9569814,1.9569814 0 0 0 1.96875,-1.96875 l 0,-6.21875 a 1.9569814,1.9569814 0 0 0 -1.96875,-1.96875 l -0.09375,0 0,-0.125 A 1.9569814,1.9569814 0 0 0 77.03125,41.875 l -0.09375,0 0,-0.09375 A 1.9569814,1.9569814 0 0 0 74.96875,39.8125 l -0.15625,0 a 1.9569814,1.9569814 0 0 0 0.03125,-0.09375 l 0,-0.125 0.125,0 A 1.9569814,1.9569814 0 0 0 76.9375,37.625 l 0,-6.21875 A 1.9569814,1.9569814 0 0 0 74.96875,29.4375 l -0.125,0 0,-0.09375 A 1.9569814,1.9569814 0 0 0 72.875,27.375 l -0.09375,0 0,-0.125 A 1.9569814,1.9569814 0 0 0 72.75,27.15625 l 2.21875,0 A 1.9569814,1.9569814 0 0 0 76.9375,25.1875 l 0,-6.21875 A 1.9569814,1.9569814 0 0 0 74.96875,17 l -0.125,0 0,-0.09375 A 1.9569814,1.9569814 0 0 0 72.875,14.9375 l -2.15625,0 0,-0.125 A 1.9569814,1.9569814 0 0 0 68.75,12.84375 l -10.375,0 a 1.9569814,1.9569814 0 0 0 -1.96875,1.96875 l 0,0.125 -2.1875,0 A 1.9569814,1.9569814 0 0 0 52.25,16.90625 l 0,0.09375 -0.09375,0 a 1.9569814,1.9569814 0 0 0 -0.125,0.03125 l 0,-2.21875 A 1.9569814,1.9569814 0 0 0 50.0625,12.84375 l -8.28125,0 A 1.9569814,1.9569814 0 0 0 39.8125,14.8125 l 0,0.125 -0.09375,0 A 1.9569814,1.9569814 0 0 0 37.75,16.90625 l 0,2.15625 -0.125,0 a 1.9569814,1.9569814 0 0 0 -1.96875,1.96875 l 0,2.1875 -0.09375,0 a 1.9569814,1.9569814 0 0 0 -1,0.3125 1.9569814,1.9569814 0 0 0 -0.03125,0 A 1.9569814,1.9569814 0 0 0 33.5,23.21875 l -0.125,0 0,-2.1875 A 1.9569814,1.9569814 0 0 0 31.40625,19.0625 l -0.09375,0 0,-2.15625 A 1.9569814,1.9569814 0 0 0 29.34375,14.9375 l -0.125,0 0,-0.125 A 1.9569814,1.9569814 0 0 0 27.25,12.84375 l -8.28125,0 z M 62.40625,23 l 2.28125,0 0,0.21875 -2.28125,0 0,-0.21875 z m -10.375,6.1875 a 1.9569814,1.9569814 0 0 0 0.125,0.03125 l 0.09375,0 0,0.125 a 1.9569814,1.9569814 0 0 0 0,0.09375 l -0.09375,0 a 1.9569814,1.9569814 0 0 0 -0.125,0.03125 l 0,-0.28125 z m 10.34375,4.1875 0.25,0 0,0.125 a 1.9569814,1.9569814 0 0 0 0,0.09375 l -0.21875,0 0,-0.09375 A 1.9569814,1.9569814 0 0 0 62.375,33.375 z m -33.15625,22.8125 0.21875,0 0,8.40625 a 1.9569814,1.9569814 0 0 0 0,0.09375 l -0.21875,0 0,-8.5 z m 20.75,2.03125 A 1.9569814,1.9569814 0 0 0 50.0625,58.25 l 0.125,0 0,0.125 a 1.9569814,1.9569814 0 0 0 1.96875,1.96875 l 0.09375,0 0,0.09375 a 1.9569814,1.9569814 0 0 0 0,0.09375 l -0.09375,0 A 1.9569814,1.9569814 0 0 0 50.1875,62.5 l 0,0.125 -0.125,0 a 1.9569814,1.9569814 0 0 0 -0.09375,0 l 0,-4.40625 z" fill="#ffffff" fill-opacity="1" stroke="none" opacity="0.126" sodipodi:type="inkscape:offset" inkscape:original="M 18.96875 14.8125 L 18.96875 39.71875 L 16.90625 39.71875 L 16.90625 79.09375 L 18.96875 79.09375 L 18.96875 81.1875 L 37.625 81.1875 L 37.625 79.09375 L 41.78125 79.09375 L 41.78125 81.1875 L 56.28125 81.1875 L 56.28125 79.09375 L 58.375 79.09375 L 58.375 81.1875 L 70.8125 81.1875 L 70.8125 79.09375 L 74.96875 79.09375 L 74.96875 77.03125 L 77.03125 77.03125 L 77.03125 74.96875 L 79.09375 74.96875 L 79.09375 60.4375 L 77.03125 60.4375 L 77.03125 58.375 L 74.96875 58.375 L 74.96875 56.28125 L 70.8125 56.28125 L 66.65625 56.28125 L 66.65625 56.25 L 70.8125 56.25 L 70.8125 54.21875 L 77.03125 54.21875 L 77.03125 52.15625 L 79.09375 52.15625 L 79.09375 45.9375 L 77.03125 45.9375 L 77.03125 43.84375 L 74.96875 43.84375 L 74.96875 41.78125 L 70.8125 41.78125 L 70.8125 39.71875 L 72.875 39.71875 L 72.875 37.625 L 74.96875 37.625 L 74.96875 31.40625 L 72.875 31.40625 L 72.875 29.34375 L 70.8125 29.34375 L 70.8125 27.25 L 66.65625 27.25 L 66.65625 25.1875 L 60.4375 25.1875 L 60.4375 21.03125 L 66.65625 21.03125 L 66.65625 25.1875 L 74.96875 25.1875 L 74.96875 18.96875 L 72.875 18.96875 L 72.875 16.90625 L 68.75 16.90625 L 68.75 14.8125 L 58.375 14.8125 L 58.375 16.90625 L 54.21875 16.90625 L 54.21875 18.96875 L 52.15625 18.96875 L 52.15625 27.25 L 54.21875 27.25 L 54.21875 29.34375 L 58.375 29.34375 L 58.375 31.40625 L 64.59375 31.40625 L 64.59375 33.5 L 66.65625 33.5 L 66.65625 35.5625 L 60.4375 35.5625 L 60.4375 33.5 L 58.375 33.5 L 58.375 31.40625 L 52.15625 31.40625 L 52.15625 33.5 L 52.15625 37.625 L 54.21875 37.625 L 54.21875 39.71875 L 56.28125 39.71875 L 56.28125 41.78125 L 54.21875 41.78125 L 54.21875 39.71875 L 50.0625 39.71875 L 50.0625 14.8125 L 41.78125 14.8125 L 41.78125 16.90625 L 39.71875 16.90625 L 39.71875 21.03125 L 37.625 21.03125 L 37.625 25.1875 L 35.5625 25.1875 L 35.5625 29.34375 L 33.5 29.34375 L 33.5 25.1875 L 31.40625 25.1875 L 31.40625 21.03125 L 29.34375 21.03125 L 29.34375 16.90625 L 27.25 16.90625 L 27.25 14.8125 L 18.96875 14.8125 z M 27.25 33.5 L 29.34375 33.5 L 29.34375 37.625 L 31.40625 37.625 L 31.40625 39.71875 L 27.25 39.71875 L 27.25 33.5 z M 39.71875 33.5 L 41.78125 33.5 L 41.78125 39.71875 L 39.71875 39.71875 L 39.71875 41.78125 L 37.625 41.78125 L 37.625 37.625 L 39.71875 37.625 L 39.71875 33.5 z M 66.65625 50.0625 L 68.75 50.0625 L 68.75 52.15625 L 70.8125 52.15625 L 70.8125 54.1875 L 66.65625 54.1875 L 66.65625 50.0625 z M 27.25 54.21875 L 31.40625 54.21875 L 31.40625 64.59375 L 33.5 64.59375 L 33.5 66.65625 L 27.25 66.65625 L 27.25 54.21875 z M 48 54.21875 L 50.0625 54.21875 L 50.0625 56.28125 L 52.15625 56.28125 L 52.15625 58.375 L 54.21875 58.375 L 54.21875 60.4375 L 56.28125 60.4375 L 56.28125 62.5 L 52.15625 62.5 L 52.15625 64.59375 L 50.0625 64.59375 L 50.0625 66.65625 L 48 66.65625 L 48 54.21875 z M 64.59375 64.59375 L 68.75 64.59375 L 68.75 66.65625 L 64.59375 66.65625 L 64.59375 64.59375 z " inkscape:radius="1.9567857"/>
    <path d="m 18.875,13.8125 a 0.99140973,0.99140973 0 0 0 -0.90625,1 l 0,23.90625 -1.0625,0 a 0.99140973,0.99140973 0 0 0 -1,1 l 0,39.375 a 0.99140973,0.99140973 0 0 0 1,1 l 1.0625,0 0,1.09375 a 0.99140973,0.99140973 0 0 0 1,1 l 18.65625,0 a 0.99140973,0.99140973 0 0 0 1,-1 l 0,-1.09375 2.15625,0 0,1.09375 a 0.99140973,0.99140973 0 0 0 1,1 l 14.5,0 a 0.99140973,0.99140973 0 0 0 1,-1 l 0,-1.09375 0.09375,0 0,1.09375 a 0.99140973,0.99140973 0 0 0 1,1 l 12.4375,0 a 0.99140973,0.99140973 0 0 0 1,-1 l 0,-1.09375 3.15625,0 a 0.99140973,0.99140973 0 0 0 1,-1 l 0,-1.0625 1.0625,0 a 0.99140973,0.99140973 0 0 0 1,-1 l 0,-1.0625 1.0625,0 a 0.99140973,0.99140973 0 0 0 1,-1 l 0,-14.53125 a 0.99140973,0.99140973 0 0 0 -1,-1 l -1.0625,0 0,-1.0625 a 0.99140973,0.99140973 0 0 0 -1,-1 l -1.0625,0 0,-1.09375 a 0.99140973,0.99140973 0 0 0 -1,-1 l -3.15625,0 0,-0.0625 5.21875,0 a 0.99140973,0.99140973 0 0 0 1,-1 l 0,-1.0625 1.0625,0 a 0.99140973,0.99140973 0 0 0 1,-1 l 0,-6.21875 a 0.99140973,0.99140973 0 0 0 -1,-1 l -1.0625,0 0,-1.09375 a 0.99140973,0.99140973 0 0 0 -1,-1 l -1.0625,0 0,-1.0625 a 0.99140973,0.99140973 0 0 0 -1,-1 l -3.15625,0 0,-0.0625 1.0625,0 a 0.99140973,0.99140973 0 0 0 1,-1 l 0,-1.09375 1.09375,0 a 0.99140973,0.99140973 0 0 0 1,-1 l 0,-6.21875 a 0.99140973,0.99140973 0 0 0 -1,-1 l -1.09375,0 0,-1.0625 a 0.99140973,0.99140973 0 0 0 -1,-1 l -1.0625,0 0,-1.09375 a 0.99140973,0.99140973 0 0 0 -1,-1 l -3.15625,0 0,-0.0625 7.3125,0 a 0.99140973,0.99140973 0 0 0 1,-1 l 0,-6.21875 a 0.99140973,0.99140973 0 0 0 -1,-1 l -1.09375,0 0,-1.0625 a 0.99140973,0.99140973 0 0 0 -1,-1 l -3.125,0 0,-1.09375 a 0.99140973,0.99140973 0 0 0 -1,-1 l -10.375,0 a 0.99140973,0.99140973 0 0 0 -1,1 l 0,1.09375 -3.15625,0 a 0.99140973,0.99140973 0 0 0 -1,1 l 0,1.0625 -1.0625,0 a 0.99140973,0.99140973 0 0 0 -1,1 l 0,8.28125 a 0.99140973,0.99140973 0 0 0 1,1 l 1.0625,0 0,1.09375 a 0.99140973,0.99140973 0 0 0 1,1 l 3.15625,0 0,0.0625 -5.21875,0 a 0.99140973,0.99140973 0 0 0 -1,1 l 0,2.09375 0,4.125 a 0.99140973,0.99140973 0 0 0 1,1 l 1.0625,0 0,0.09375 -2.15625,0 0,-23.90625 a 0.99140973,0.99140973 0 0 0 -1,-1 l -8.28125,0 a 0.99140973,0.99140973 0 0 0 -1,1 l 0,1.09375 -1.0625,0 a 0.99140973,0.99140973 0 0 0 -1,1 l 0,3.125 -1.09375,0 a 0.99140973,0.99140973 0 0 0 -1,1 l 0,3.15625 -1.0625,0 a 0.99140973,0.99140973 0 0 0 -1,1 l 0,3.15625 -0.0625,0 0,-3.15625 a 0.99140973,0.99140973 0 0 0 -1,-1 l -1.09375,0 0,-3.15625 a 0.99140973,0.99140973 0 0 0 -1,-1 l -1.0625,0 0,-3.125 a 0.99140973,0.99140973 0 0 0 -1,-1 l -1.09375,0 0,-1.09375 a 0.99140973,0.99140973 0 0 0 -1,-1 l -8.28125,0 a 0.99140973,0.99140973 0 0 0 -0.09375,0 z m 42.5625,8.21875 4.21875,0 0,2.15625 -4.21875,0 0,-2.15625 z m -2.0625,10.375 4.21875,0 0,1.09375 a 0.99140973,0.99140973 0 0 0 1,1 l 1.0625,0 0,0.0625 -4.21875,0 0,-1.0625 a 0.99140973,0.99140973 0 0 0 -1,-1 l -1.0625,0 0,-0.09375 z M 28.25,34.5 l 0.09375,0 0,3.125 a 0.99140973,0.99140973 0 0 0 1,1 l 1.0625,0 0,0.09375 -2.15625,0 0,-4.21875 z m 12.46875,0 0.0625,0 0,4.21875 -1.0625,0 a 0.99140973,0.99140973 0 0 0 -1,1 l 0,1.0625 -0.09375,0 0,-2.15625 1.09375,0 a 0.99140973,0.99140973 0 0 0 1,-1 l 0,-3.125 z m 14.5,6.21875 0.0625,0 0,0.0625 -0.0625,0 0,-0.0625 z m 12.4375,10.34375 0.09375,0 0,1.09375 a 0.99140973,0.99140973 0 0 0 1,1 l 1.0625,0 0,0.03125 -2.15625,0 0,-2.125 z M 28.25,55.21875 l 2.15625,0 0,9.375 a 0.99140973,0.99140973 0 0 0 1,1 l 1.09375,0 0,0.0625 -4.25,0 0,-10.4375 z m 20.75,0 0.0625,0 0,1.0625 a 0.99140973,0.99140973 0 0 0 1,1 l 1.09375,0 0,1.09375 a 0.99140973,0.99140973 0 0 0 1,1 l 1.0625,0 0,1.0625 a 0.99140973,0.99140973 0 0 0 1,1 l 1.0625,0 0,0.0625 -3.125,0 a 0.99140973,0.99140973 0 0 0 -1,1 l 0,1.09375 -1.09375,0 a 0.99140973,0.99140973 0 0 0 -1,1 l 0,1.0625 -0.0625,0 0,-10.4375 z m 16.59375,10.375 2.15625,0 0,0.0625 -2.15625,0 0,-0.0625 z" fill="#ffffff" fill-opacity="1" stroke="none" opacity="0.277" sodipodi:type="inkscape:offset" inkscape:original="M 18.96875 14.8125 L 18.96875 39.71875 L 16.90625 39.71875 L 16.90625 79.09375 L 18.96875 79.09375 L 18.96875 81.1875 L 37.625 81.1875 L 37.625 79.09375 L 41.78125 79.09375 L 41.78125 81.1875 L 56.28125 81.1875 L 56.28125 79.09375 L 58.375 79.09375 L 58.375 81.1875 L 70.8125 81.1875 L 70.8125 79.09375 L 74.96875 79.09375 L 74.96875 77.03125 L 77.03125 77.03125 L 77.03125 74.96875 L 79.09375 74.96875 L 79.09375 60.4375 L 77.03125 60.4375 L 77.03125 58.375 L 74.96875 58.375 L 74.96875 56.28125 L 70.8125 56.28125 L 66.65625 56.28125 L 66.65625 56.25 L 70.8125 56.25 L 70.8125 54.21875 L 77.03125 54.21875 L 77.03125 52.15625 L 79.09375 52.15625 L 79.09375 45.9375 L 77.03125 45.9375 L 77.03125 43.84375 L 74.96875 43.84375 L 74.96875 41.78125 L 70.8125 41.78125 L 70.8125 39.71875 L 72.875 39.71875 L 72.875 37.625 L 74.96875 37.625 L 74.96875 31.40625 L 72.875 31.40625 L 72.875 29.34375 L 70.8125 29.34375 L 70.8125 27.25 L 66.65625 27.25 L 66.65625 25.1875 L 60.4375 25.1875 L 60.4375 21.03125 L 66.65625 21.03125 L 66.65625 25.1875 L 74.96875 25.1875 L 74.96875 18.96875 L 72.875 18.96875 L 72.875 16.90625 L 68.75 16.90625 L 68.75 14.8125 L 58.375 14.8125 L 58.375 16.90625 L 54.21875 16.90625 L 54.21875 18.96875 L 52.15625 18.96875 L 52.15625 27.25 L 54.21875 27.25 L 54.21875 29.34375 L 58.375 29.34375 L 58.375 31.40625 L 64.59375 31.40625 L 64.59375 33.5 L 66.65625 33.5 L 66.65625 35.5625 L 60.4375 35.5625 L 60.4375 33.5 L 58.375 33.5 L 58.375 31.40625 L 52.15625 31.40625 L 52.15625 33.5 L 52.15625 37.625 L 54.21875 37.625 L 54.21875 39.71875 L 56.28125 39.71875 L 56.28125 41.78125 L 54.21875 41.78125 L 54.21875 39.71875 L 50.0625 39.71875 L 50.0625 14.8125 L 41.78125 14.8125 L 41.78125 16.90625 L 39.71875 16.90625 L 39.71875 21.03125 L 37.625 21.03125 L 37.625 25.1875 L 35.5625 25.1875 L 35.5625 29.34375 L 33.5 29.34375 L 33.5 25.1875 L 31.40625 25.1875 L 31.40625 21.03125 L 29.34375 21.03125 L 29.34375 16.90625 L 27.25 16.90625 L 27.25 14.8125 L 18.96875 14.8125 z M 27.25 33.5 L 29.34375 33.5 L 29.34375 37.625 L 31.40625 37.625 L 31.40625 39.71875 L 27.25 39.71875 L 27.25 33.5 z M 39.71875 33.5 L 41.78125 33.5 L 41.78125 39.71875 L 39.71875 39.71875 L 39.71875 41.78125 L 37.625 41.78125 L 37.625 37.625 L 39.71875 37.625 L 39.71875 33.5 z M 66.65625 50.0625 L 68.75 50.0625 L 68.75 52.15625 L 70.8125 52.15625 L 70.8125 54.1875 L 66.65625 54.1875 L 66.65625 50.0625 z M 27.25 54.21875 L 31.40625 54.21875 L 31.40625 64.59375 L 33.5 64.59375 L 33.5 66.65625 L 27.25 66.65625 L 27.25 54.21875 z M 48 54.21875 L 50.0625 54.21875 L 50.0625 56.28125 L 52.15625 56.28125 L 52.15625 58.375 L 54.21875 58.375 L 54.21875 60.4375 L 56.28125 60.4375 L 56.28125 62.5 L 52.15625 62.5 L 52.15625 64.59375 L 50.0625 64.59375 L 50.0625 66.65625 L 48 66.65625 L 48 54.21875 z M 64.59375 64.59375 L 68.75 64.59375 L 68.75 66.65625 L 64.59375 66.65625 L 64.59375 64.59375 z " inkscape:radius="0.9913106"/>
    <path d="m 18.96875,14.813 0,24.90625 -2.0625,0 0,39.375 2.0625,0 0,2.09375 18.65625,0 0,-2.09375 4.15625,0 0,2.09375 14.5,0 0,-2.09375 2.09375,0 0,2.09375 12.4375,0 0,-2.09375 4.15625,0 0,-2.0625 2.0625,0 0,-2.0625 2.0625,0 0,-14.53125 -2.0625,0 0,-2.0625 -2.0625,0 0,-2.09375 -4.15625,0 -4.15625,0 0,-0.03125 4.15625,0 0,-2.03125 6.21875,0 0,-2.0625 2.0625,0 0,-6.21875 -2.0625,0 0,-2.09375 -2.0625,0 0,-2.0625 -4.15625,0 0,-2.0625 2.0625,0 0,-2.09375 2.09375,0 0,-6.21875 -2.09375,0 0,-2.0625 -2.0625,0 0,-2.09375 -4.15625,0 0,-2.0625 -6.21875,0 0,-4.15625 6.21875,0 0,4.15625 8.3125,0 0,-6.21875 -2.09375,0 0,-2.0625 -4.125,0 0,-2.09375 -10.375,0 0,2.09375 -4.15625,0 0,2.0625 -2.0625,0 0,8.28125 2.0625,0 0,2.09375 4.15625,0 0,2.0625 6.21875,0 0,2.09375 2.0625,0 0,2.0625 -6.21875,0 0,-2.0625 -2.0625,0 0,-2.09375 -6.21875,0 0,2.09375 0,4.125 2.0625,0 0,2.09375 2.0625,0 0,2.0625 -2.0625,0 0,-2.0625 -4.15625,0 0,-24.90625 -8.28125,0 0,2.09375 -2.0625,0 0,4.125 -2.09375,0 0,4.15625 -2.0625,0 0,4.15625 -2.0625,0 0,-4.15625 -2.09375,0 0,-4.15625 -2.0625,0 0,-4.125 -2.09375,0 0,-2.09375 -8.28125,0 z m 8.28125,18.6875 2.09375,0 0,4.125 2.0625,0 0,2.09375 -4.15625,0 0,-6.21875 z m 12.46875,0 2.0625,0 0,6.21875 -2.0625,0 0,2.0625 -2.09375,0 0,-4.15625 2.09375,0 0,-4.125 z m 26.9375,16.5625 2.09375,0 0,2.09375 2.0625,0 0,2.03125 -4.15625,0 0,-4.125 z M 27.25,54.21925 l 4.15625,0 0,10.375 2.09375,0 0,2.0625 -6.25,0 0,-12.4375 z m 20.75,0 2.0625,0 0,2.0625 2.09375,0 0,2.09375 2.0625,0 0,2.0625 2.0625,0 0,2.0625 -4.125,0 0,2.09375 -2.09375,0 0,2.0625 -2.0625,0 0,-12.4375 z m 16.59375,10.375 4.15625,0 0,2.0625 -4.15625,0 0,-2.0625 z" fill="#ffffff" fill-opacity="1" stroke="none" opacity="0.4" inkscape:connector-curvature="0"/>
   </g>
   <g transform="matrix(0.1296 0 0 0.1296 168.22 144.67)">
    <path d="m -863.65625,-793.90625 0,16 -16,0 0,16 -16,0 0,80 16,0 0,16 16,0 0,-64 16,0 0,-16 80,0 0,16 16,0 0,16 48,0 0,-48 -16,0 0,-16 -32,0 0,-16 z m 80,112 0,48 16,0 0,16 16,0 0,16 -16,0 0,16 -64,0 0,-16 -16,0 0,-16 -48,0 0,64 16,0 0,16 16,0 0,16 16,0 0,16 96,0 0,-16 32,0 0,-16 16,0 0,-112 -16,0 0,-16 -32,0 0,-16 z" fill="#ffff00" fill-opacity="1" stroke="none" sodipodi:nodetypes="cccccccccccccccccccccccccccccccccccccccccccccccccccccc" inkscape:connector-curvature="0"/>
    <path d="m -1151.6562,-1001.9062 0,191.99995 -16,0 0,304 16,0 0,-288 144,0 0,-32 -16,0 0,16 -16,0 0,-16 -16,0 0,16 -32,0 0,-48 16,0 0,-32 -16,0 0,-16 -16,0 0,96 -32,0 0,-176 48,0 0,-15.99995 z m 64,15.99995 0,32 16,0 0,-32 z m 16,32 0,32 16,0 0,-32 z m 16,32 0,32 16,0 0,-32 z m 16,32 0,32 16,0 0,-32 z m 16,0 16,0 0,-32 -16,0 z m 16,-32 15.99995,0 0,-32 -15.99995,0 z m 15.99995,-32 16,0 0,-32 -16,0 z m 16,-32 48,0 0,176 -32,0 0,-96 -16,0 0,16 -16,0 0,32 16,0 0,48 -16,0 0,16 112,0 0,-16 -32,0 0,-191.99995 -64,0 z m 96,176 16,0 0,-16 -16,0 z m 0,-16 0,-32 32,0 0,-16 -48,0 0,16 0,32 z m 32,-48 48,0 0,-16 -48,0 z m 0,-16 0,-16 -32,0 0,16 z m -32,-16 0,-64 -16,0 0,64 z m 0,-64 32,0 0,-16 -32,0 z m 32,-16 80,0 0,-15.99995 -80,0 z m 80,0 0,16 32,0 0,-16 z m 32,16 0,32 -32,0 0,-16 -16,0 0,32 64,0 0,-48 z m -48,48 -48,0 0,16 48,0 z m 0,16 0,16 32,0 0,-16 z m 32,16 0,16 16,0 0,-16 z m 16,16 0,48 16,0 0,-48 z m 0,48 -16,0 0,16 16,0 z m -16,16 -112,0 0,16 112,0 z m 0,16 0,16 32,0 0,-16 z m 32,16 0,16 16,0 0,-16 z m 16,16 0,48 16,0 0,-48 z m 0,48 -48,0 0,15.71875 -32,0 0,-31.71875 16,0 0,-16 -80,0 0,16 48,0 0,112 32,0 0,-16 -16,0 0,-48.28125 32,0 0,-15.71875 48,0 z m -64,96 0,16 16,0 0,-16 z m 0,16 -32,0 0,-16 -16,0 0,16 -16,0 0,16 64,0 z m -64,0 0,-16 -16,0 0,16 z m -16,-16 0,-112 -16,0 0,64 -16,0 0,16 16,0 0,16 -32,0 0,16 z m -48,0 -16,0 0,16 -16,0 0,-96 16,0 0,16 16,0 0,-80 -16,0 0,48 -16,0 0,-32 -48,0 0,16 32,0 0,128 -16,0 0,32 16,0 0,-16 32,0 0,32 16,0 z m 0,64 0,16 16,0 0,-16 z m 16,16 0,16 16,0 0,-16 z m 16,16 0,16 16,0 0,-16 z m 16,16 0,16 96,0 0,-16 z m 96,0 32,0 0,-16 -32,0 z m 32,-16 16,0 0,-16 -16,0 z m 16,-16 16,0 0,-112 -16,0 z m 0,-112 0,-16 -16,0 0,16 z m -16,-16 0,-16 -32,0 0,16 z m -144,160 -112,0 0,16 112,0 z m -112,0 0,-48 16,0 0,-16 -32,0 0,48 -15.99995,0 0,16 z m -31.99995,0 -144,0 0,16 144,0 z m 31.99995,-224 -16,0 0,96 -15.99995,0 0,32 15.99995,0 0,-16 16,0 z m -31.99995,128 -16,0 0,-16 -16,0 0,16 -48,0 0,-96 32,0 0,80 16,0 0,-112 -16,0 0,16 -48,0 0,128 96,0 z m -32,-128 16,0 0,-32 -16,0 z m 16,-32 16,0 0,-16 -16,0 z m 16,-16 15.99995,0 0,-16 -15.99995,0 z m 111.99995,16 16,0 0,-16 -16,0 z m 16,-16 16,0 0,-16 -16,0 z m -16,96 0,16 16,0 0,-16 z m 128,-48 0,16 16,0 0,-16 z m -64,-192 0,-32 -16,0 0,32 z m 0,-32 48,0 0,-16 -48,0 z m 32,80 0,16 16,0 0,-16 z m 16,16 0,16 16,0 0,-16 z m 0,16 -48,0 0,-16 -16,0 0,16 0,16 64,0 z m -208,-16 -15.99995,0 0,32 15.99995,0 z m -79.99995,0 0,32 16,0 0,-32 z" fill="#000000" fill-opacity="1" stroke="none" sodipodi:nodetypes="ccccccccccccccccccccccccccccccccccccccccccccccccccccccccccccccccccccccccccccccccccccccccccccccccccccccccccccccccccccccccccccccccccccccccccccccccccccccccccccccccccccccccccccccccccccccccccccccccccccccccccccccccccccccccccccccccccccccccccccccccccccccccccccccccccccccccccccccccccccccccccccccccccccccccccccccccccccccccccccccccccccccccccccccccccccccccccccccccccccccccccccccccccccccccccccccccccccccccccccccccccccccccccccccc" inkscape:connector-curvature="0"/>
    <path d="m -975.65625,-793.90625 0,16 16,0 0,-16 -16,0 z m 16,16 0,16 16,0 0,-16 -16,0 z m 16,0 16,0 0,-16 -16,0 0,16 z m 16,0 0,16 16,0 0,-16 -16,0 z m 16,0 16,0 0,-16 -16,0 0,16 z m -16,16 -16,0 0,16 16,0 0,-16 z m 0,16 0,16 16,0 0,-16 -16,0 z m -32,-16 -16,0 0,16 16,0 0,-16 z m -16,16 -16,0 0,16 16,0 0,-16 z m -16,16 -15.99995,0 0,16 15.99995,0 0,-16 z m -15.99995,16 -16,0 0,16 16,0 0,-16 z m 0,16 0,16 15.99995,0 0,-16 -15.99995,0 z m 0,16 -16,0 0,16 16,0 0,-16 z m 0,16 0,16 15.99995,0 0,-16 -15.99995,0 z m 0,16 -16,0 0,16 16,0 0,-16 z m -16,16 -16,0 0,16 16,0 0,-16 z m 0,16 0,16 16,0 0,-16 -16,0 z m 0,-32 0,-16 -16,0 0,16 16,0 z m 0,-32 0,-16 -16,0 0,16 16,0 z m 0,-32 0,-16 -16,0 0,16 16,0 z m 0,-16 16,0 0,-16 -16,0 0,16 z m 16,-16 15.99995,0 0,-16 -15.99995,0 0,16 z m 15.99995,-16 16,0 0,-16 -16,0 0,16 z m 160,32 0,16 16,0 0,-16 -16,0 z m 16,16 0,16 16,0 0,-16 -16,0 z m 0,16 -16,0 0,16 16,0 0,-16 z m 0,16 0,16 16,0 0,-16 -16,0 z m 0,16 -16,0 0,16 16,0 0,-16 z m 0,16 0,16 16,0 0,-16 -16,0 z m 0,16 -16,0 0,16 16,0 0,-16 z m -16,0 0,-16 -16,0 0,16 16,0 z m 0,-32 0,-16 -16,0 0,16 16,0 z m 0,-32 0,-16 -16,0 0,16 16,0 z m -96,112 0,16 16,0 0,-16 -16,0 z m 0,16 -16,0 0,16 16,0 0,-16 z m 0,16 0,16 16,0 0,-16 -16,0 z m 16,16 0,16 16,0 0,-16 -16,0 z m 16,16 0,16 16,0 0,-16 -16,0 z m -16,0 -16,0 0,16 16,0 0,-16 z m -16,0 0,-16 -16,0 0,16 16,0 z m -16,0 -16,0 0,16 16,0 0,-16 z m -16,0 0,-16 -16,0 0,16 16,0 z m 0,-16 16,0 0,-16 -16,0 0,16 z" fill="#ff00ff" fill-opacity="1" stroke="none" inkscape:connector-curvature="0"/>
    <path d="m -1151.6562,-793.90625 0,288 144,0 0,-16 15.99995,0 0,-48 32,0 0,-32 16,0 0,-128 -32,0 0,112 -16,0 0,16 -15.99995,0 0,16 -96,0 0,-128 48,0 0,-16 16,0 0,-32 16,0 0,-16 16,0 0,-16 z" fill="#ff0000" fill-opacity="1" stroke="none" sodipodi:nodetypes="ccccccccccccccccccccccccccc" inkscape:connector-curvature="0"/>
    <path d="m -991.65625,-793.90625 0,16 16,0 0,-16 -16,0 z m 16,16 0,16 16,0 0,-16 -16,0 z m 16,0 16,0 0,-16 -16,0 0,16 z m 16,0 0,16 16,0 0,-16 -16,0 z m 16,0 16,0 0,-16 -16,0 0,16 z m 16,0 0,16 16,0 0,-16 -16,0 z m 16,0 16,0 0,-16 -16,0 0,16 z m -16,16 -16,0 0,16 16,0 0,-16 z m -32,0 -16,0 0,16 16,0 0,-16 z m -32,0 -16,0 0,16 16,0 0,-16 z m -16,16 -15.99995,0 0,16 15.99995,0 0,-16 z m -15.99995,16 -16,0 0,16 16,0 0,-16 z m 0,16 0,16 15.99995,0 0,-16 -15.99995,0 z m 0,16 -16,0 0,16 16,0 0,-16 z m 0,16 0,16 15.99995,0 0,-16 -15.99995,0 z m 0,16 -16,0 0,16 16,0 0,-16 z m 0,16 0,16 15.99995,0 0,-16 -15.99995,0 z m 0,16 -16,0 0,16 16,0 0,-16 z m -16,0 0,-16 -16,0 0,16 16,0 z m 0,-32 0,-16 -16,0 0,16 16,0 z m 0,-32 0,-16 -16,0 0,16 16,0 z m 16,-48 0,-16 -16,0 0,16 16,0 z m 0,-16 15.99995,0 0,-16 -15.99995,0 0,16 z m 79.99995,32 0,16 16,0 0,-16 -16,0 z m 80,0 0,16 16,0 0,-16 -16,0 z m 16,16 0,16 16,0 0,-16 -16,0 z m 16,0 16,0 0,-16 -16,0 0,16 z m 0,16 0,16 16,0 0,-16 -16,0 z m 0,16 -16,0 0,16 16,0 0,-16 z m 0,16 0,16 16,0 0,-16 -16,0 z m 0,16 -16,0 0,16 16,0 0,-16 z m 0,16 0,16 16,0 0,-16 -16,0 z m 0,16 -16,0 0,16 16,0 0,-16 z m -16,0 0,-16 -16,0 0,16 16,0 z m 0,-32 0,-16 -16,0 0,16 16,0 z m 0,-32 0,-16 -16,0 0,16 16,0 z m -112,96 0,16 16,0 0,-16 -16,0 z m 16,16 0,16 16,0 0,-16 -16,0 z m 16,16 0,16 16,0 0,-16 -16,0 z m 16,16 0,16 16,0 0,-16 -16,0 z m 16,16 0,16 16,0 0,-16 -16,0 z m -16,0 -16,0 0,16 16,0 0,-16 z m -16,0 0,-16 -16,0 0,16 16,0 z m -16,0 -16,0 0,16 16,0 0,-16 z m -16,0 0,-16 -16,0 0,16 16,0 z m -16,0 -16,0 0,16 16,0 0,-16 z m 0,-16 0,-16 -16,0 0,16 16,0 z m 0,-16 16,0 0,-16 -16,0 0,16 z m 16,0 0,16 16,0 0,-16 -16,0 z" fill="#0000ff" fill-opacity="1" stroke="none" inkscape:connector-curvature="0"/>
    <path d="m -1135.6562,-985.90625 0,176 16,0 16,0 0,-96 16,0 0,16 16,0 0,32 16,0 0,32 16,0 0,16 16,0 0,-16 16,0 0,-32 15.99995,0 0,-32 16,0 0,-16 16,0 0,96 16,0 16,0 0,-176 -16,0 -16,0 -16,0 0,32 -16,0 0,32 -15.99995,0 0,32 -16,0 0,32 -16,0 0,-32 -16,0 0,-32 -16,0 0,-32 -16,0 0,-32 -16,0 -16,0 -16,0 z m 287.99995,0 0,16 -16,0 -16,0 0,64 16,0 16,0 0,16 16,0 32,0 0,16 16,0 0,16 16,0 0,16 -16,0 0,16 -64,0 0,-32 -16,0 -16,0 0,32 16,0 0,16 16,0 64,0 16,0 16,0 0,-16 16,0 0,-48 -16,0 0,-16 -16,0 -16,0 0,-16 -16,0 -32,0 0,-16 -16,0 0,-32 16,0 0,-16 48,0 0,16 16,0 0,16 16,0 16,0 0,-32 -16,0 -16,0 0,-16 -16,0 -48,0 -16,0 z" fill="#b1b1b1" fill-opacity="1" stroke="none" inkscape:connector-curvature="0"/>
    <path d="m -1103.6562,-985.90625 0,16 16,0 0,-16 z m 159.99995,0 0,176 16,0 0,-176 z m 160,0 0,16 16,0 0,-16 z m -64,16 0,16 16,0 0,-16 z m 0,16 -16,0 0,48 32,0 0,-16 -16,0 z m 96,-16 0,32 16,0 0,-32 z m -335.99995,16 0,16 16,0 0,-16 z m -32,16 0,128 16,0 0,-96 16,0 0,-16 -16,0 0,-16 z m 48,16 0,16 16,0 0,-16 z m 95.99995,0 0,16 16,0 0,-16 z m 176,16 0,16 16,0 0,-16 z m -255.99995,16 0,16 16,0 0,-16 z m 287.99995,0 0,16 16,0 0,-16 z m 16,16 0,48 16,0 0,-48 z m 0,48 -16,0 0,16 16,0 z m -287.99995,-32 0,16 16,0 0,-16 z m 16,64 0,16 16,0 0,-16 z m 0,16 -16,0 0,16 16,0 z m -80,32 0,16 0,16 48,0 0,-16 16,0 0,-16 z m 335.99995,0 0,16 16,0 0,-16 z m 16,16 0,16 48,0 0,-32 -16,0 0,16 z m -144,32 0,16 16,0 0,-16 z m 112,48 0,16 16,0 0,-16 z m 16,16 0,16 16,0 0,-16 z m -192,16 0,16 16,0 0,-16 z m 0,16 -16,0 0,32 16,0 z m 64,0 0,48 16,0 0,16 16,0 0,16 16,0 0,16 96,0 0,-16 32,0 0,-16 16,0 0,-48 -16,0 0,16 -16,0 0,16 -16,0 0,16 -76,0 0,-16 -36,0 0,-16 -16,0 0,-32 z m -111.99995,48 0,16 -128,0 0,16 -16,0 0,16 144,0 0,-16 15.99995,0 0,-32 z" fill="#000000" fill-opacity="1" stroke="none" opacity="0.5" sodipodi:nodetypes="ccccccccccccccccccccccccccccccccccccccccccccccccccccccccccccccccccccccccccccccccccccccccccccccccccccccccccccccccccccccccccccccccccccccccccccccccccccccccccccccccccccccccccccccccccc" inkscape:connector-curvature="0"/>
   </g>
  </g>
  <rect x="-96" rx="25" y="958.36" clip-path="url(#clipPath3009)" fill="#ffffff" fill-opacity="1" height="92" opacity="0.15" width="92" transform="matrix(1 0 0 1 98 0)"/>
 </g>
</svg>
