<svg height="96" width="96" xmlns="http://www.w3.org/2000/svg" xmlns:sodipodi="http://sodipodi.sourceforge.net/DTD/sodipodi-0.dtd" xmlns:inkscape="http://www.inkscape.org/namespaces/inkscape">
 <defs>
  <clipPath clipPathUnits="userSpaceOnUse" id="clipPath3009">
   <path d="m-2 956.36h-96v33.562l96 25.687v-59.25z"/>
  </clipPath>
  <linearGradient x2="0" y1="90" y2="5.988" gradientUnits="userSpaceOnUse" id="linearGradient3093" gradientTransform="matrix(1.1429 0 0 1.1429 -6.857 949.51)">
   <stop stop-color="#cda060"/>
   <stop stop-color="#dbbb8e" offset="1"/>
  </linearGradient>
  <filter color-interpolation-filters="sRGB" id="filter6387">
   <feTurbulence baseFrequency="0.02" type="fractalNoise" numOctaves="5" result="result1"/>
   <feComposite in="SourceGraphic" operator="in" in2="result1" result="result2"/>
   <feColorMatrix values="1 0 0 0 0 0 1 0 0 0 0 0 1 0 0 0 0 0 3 -1 " in="result2" result="result3"/>
  </filter>
  <linearGradient x2="0" y1="90" y2="5.988" gradientUnits="userSpaceOnUse" id="linearGradient3114" gradientTransform="matrix(1 0 0 1 -6 950.36)">
   <stop stop-color="#9d7031"/>
   <stop stop-color="#cb9d5d" offset="1"/>
  </linearGradient>
  <clipPath clipPathUnits="userSpaceOnUse" id="clipPath3047">
   <rect x="2" rx="25" y="958.36" height="92" width="92"/>
  </clipPath>
  <linearGradient x1="26.27" x2="29.498" y1="10.31" y2="21.889" gradientUnits="userSpaceOnUse" id="linearGradient3215" gradientTransform="matrix(1.7488 0 0 1.7488 6 7.512)">
   <stop stop-color="#afc6e9"/>
   <stop stop-color="#fff" offset="0.483"/>
   <stop stop-color="#afc6e9" stop-opacity="0.727" offset="1"/>
  </linearGradient>
  <linearGradient x1="5.593" x2="9.742" y1="20.03" y2="30.28" gradientUnits="userSpaceOnUse" id="linearGradient3172" gradientTransform="matrix(1.7488 0 0 1.7488 6 7.512)">
   <stop stop-color="#6ecd6d"/>
   <stop stop-color="#d0e6d0" offset="0.364"/>
   <stop stop-color="#7fc46f" offset="1"/>
  </linearGradient>
 </defs>
 <g transform="matrix(1 0 0 1 0 -956.36)">
  <g clip-path="url(#clipPath3047)">
   <rect rx="6.857" y="956.36" fill="url(#linearGradient3093)" height="96" width="96"/>
   <rect rx="6" y="956.36" fill="url(#linearGradient3114)" height="84" filter="url(#filter6387)" width="84" transform="matrix(1.137 0 0 1.0852 0.495 -79.46)"/>
  </g>
  <g transform="matrix(1 0 0 1 0 956.36)">
   <path stroke-opacity="0.67" d="m21.63 27.951c-3.8121 0.11551-7.8928 0.94396-12.242 2.6779l18.691 57.165c36.108-13.193 24.592-60.783-6.449-59.843zm1.5302 12.297c17.413 1.299 25.459 24.204 9.345 29.402l-9.345-29.402z" stroke-width="1.749" fill="url(#linearGradient3172)" stroke="#83bd76"/>
   <path stroke-opacity="0.656" d="m49.229 8.1129-3.99 73.724 38.967 5.957-34.977-79.681zm16.231 43.175 0.05456 6.0663c-6.5622-0.51978-4.688 4.4496-2.6779 6.6675 2.0567 2.2693 5.9119 14.379-11.367 13.39l-0.05465-6.0116c6.5622 0.51978 5.8903-4.1764 3.8802-6.3942-2.057-2.27-5.723-13.78 10.165-13.719z" stroke-width="1.749" fill="url(#linearGradient3215)" stroke="#d0e6d0"/>
  </g>
  <rect x="-96" rx="25" y="958.36" clip-path="url(#clipPath3009)" fill="#fff" height="92" opacity="0.15" width="92" transform="matrix(1 0 0 1 98 0)"/>
 </g>
</svg>
