<svg height="96" width="96" xmlns="http://www.w3.org/2000/svg" xmlns:sodipodi="http://sodipodi.sourceforge.net/DTD/sodipodi-0.dtd" xmlns:inkscape="http://www.inkscape.org/namespaces/inkscape">
 <g inkscape:label="Layer 1" inkscape:groupmode="layer" transform="matrix(1 0 0 1 0 -956.36)">
  <rect x="8" rx="10.769" y="964.36" fill="#e6e6e6" fill-opacity="1" stroke="none" height="80" width="80"/>
  <path d="M 37.708333,981.10481 23,990.70898 33.171875,998.85479 48,989.69856 37.708333,981.10481 z M 48,989.69856 62.828125,998.85479 73,990.70898 58.291667,981.10481 48,989.69856 z M 62.828125,998.85479 48,1008.0111 58.291667,1016.6049 73,1007.0006 62.828125,998.85479 z M 48,1008.0111 33.171875,998.85479 23,1007.0007 37.708333,1016.6049 48,1008.0111 z m 0.03125,1.849 -10.322917,8.5677 -4.416666,-2.8855 0,3.2344 14.739583,8.8385 14.739583,-8.8385 0,-3.2344 -4.416666,2.8855 -10.322917,-8.5677 z" fill="#007ee5" inkscape:connector-curvature="0"/>
 </g>
</svg>
