<svg height="96" width="96" xmlns="http://www.w3.org/2000/svg" xmlns:xlink="http://www.w3.org/1999/xlink" xmlns:sodipodi="http://sodipodi.sourceforge.net/DTD/sodipodi-0.dtd" xmlns:inkscape="http://www.inkscape.org/namespaces/inkscape">
 <defs>
  <linearGradient x1="47.917" x2="76.62" gradientUnits="userSpaceOnUse" id="linearGradient5869" gradientTransform="matrix(0.92788 0 0 0.92788 3.321 959.3)">
   <stop stop-color="#5cacf5"/>
   <stop stop-color="#abd4f4" offset="1"/>
  </linearGradient>
  <linearGradient x1="19.288" x2="47.995" gradientUnits="userSpaceOnUse" id="linearGradient5871" gradientTransform="matrix(0.92788 0 0 0.92788 3.321 959.3)">
   <stop stop-color="#5aabf2"/>
   <stop stop-color="#badaf5" offset="1"/>
  </linearGradient>
  <linearGradient x1="31" x2="48.03" xlink:href="#linearGradient3707" gradientUnits="userSpaceOnUse" id="linearGradient5873" gradientTransform="matrix(0.92788 0 0 0.92788 3.321 959.3)"/>
  <linearGradient id="linearGradient3707">
   <stop stop-color="#a8d4fb"/>
   <stop stop-color="#dff0fa" offset="1"/>
  </linearGradient>
  <linearGradient x1="27.395" x2="48.11" xlink:href="#linearGradient3724-3" gradientUnits="userSpaceOnUse" id="linearGradient5875" gradientTransform="matrix(0.92788 0 0 0.92788 3.321 959.3)"/>
  <linearGradient id="linearGradient3724-3">
   <stop stop-color="#0d82e4"/>
   <stop stop-color="#bcdbf7" offset="1"/>
  </linearGradient>
  <linearGradient x1="48.08" x2="65.11" xlink:href="#linearGradient3707" gradientUnits="userSpaceOnUse" id="linearGradient5877" gradientTransform="matrix(0.92788 0 0 0.92788 3.321 959.3)"/>
  <linearGradient x1="48" x2="69.02" xlink:href="#linearGradient3724-3" gradientUnits="userSpaceOnUse" id="linearGradient5879" gradientTransform="matrix(0.92788 0 0 0.92788 3.321 959.3)"/>
  <linearGradient x1="47.917" x2="76.73" xlink:href="#linearGradient3757" gradientUnits="userSpaceOnUse" id="linearGradient5881" gradientTransform="matrix(0.92788 0 0 0.92788 3.321 959.3)"/>
  <linearGradient id="linearGradient3757">
   <stop stop-color="#389bed"/>
   <stop stop-color="#c2e5fc" offset="1"/>
  </linearGradient>
  <linearGradient x1="19.07" x2="47.886" xlink:href="#linearGradient3757" gradientUnits="userSpaceOnUse" id="linearGradient5883" gradientTransform="matrix(0.92788 0 0 0.92788 3.321 959.3)"/>
  <linearGradient x1="31.08" x2="48.11" gradientUnits="userSpaceOnUse" id="linearGradient5885" gradientTransform="matrix(0.92788 0 0 0.92788 3.321 959.3)">
   <stop stop-color="#1b8cee"/>
   <stop stop-color="#79b8e8" offset="1"/>
  </linearGradient>
  <linearGradient x1="48" x2="69.02" gradientUnits="userSpaceOnUse" id="linearGradient3118" inkscape:collect="always" gradientTransform="matrix(0.92788 0 0 0.92788 3.321 959.3)">
   <stop stop-color="#107cd9"/>
   <stop stop-color="#79b8e8" offset="1"/>
  </linearGradient>
  <clipPath clipPathUnits="userSpaceOnUse" id="clipPath3009">
   <path d="m -2,956.36218 -96,0 0,33.5624 96,25.68742 0,-59.24982 z" inkscape:connector-curvature="0"/>
  </clipPath>
  <path d="m 47.821,1006.6 15.813,11.154 -15.813,11.154 -15.812,-11.154 15.812,-11.154 z" fill="#fdfffe" color="#000000" id="SVGCleanerId_0"/>
 </defs>
 <g inkscape:label="Layer 1" inkscape:groupmode="layer" transform="matrix(1 0 0 1 0 -956.36)">
  <rect x="2" rx="25" y="958.36" fill="#0084c8" fill-opacity="1" height="92" width="92"/>
  <g transform="matrix(1.18545 0 0 1.18545 -8.614 -186.16)">
   <path d="m 37.102,980.03 c -0.03022,0.007 7.77e-4,0.0204 -0.029,0.029 -0.02978,0.009 -0.02877,-0.0103 -0.05799,0 -0.02922,0.0103 -4.24e-4,0.017 -0.029,0.029 -0.02857,0.012 -0.0012,-0.0136 -0.029,0 -0.02783,0.0136 -0.002,0.0138 -0.029,0.029 -0.02698,0.0152 -0.003,-0.0168 -0.029,0 a 0.46393,0.46393 0 0 1 -0.029,0.029 l -16.006,9.7428 c -0.02678,0.0163 -0.0032,-0.0179 -0.029,0 -0.02577,0.0179 -0.0044,0.01 -0.029,0.029 -0.02466,0.0194 -0.0055,0.008 -0.029,0.029 -0.02348,0.0208 -0.0068,0.007 -0.029,0.029 -0.02221,0.0222 -0.0082,0.006 -0.029,0.029 -0.02087,0.0234 -0.0095,0.004 -0.029,0.029 -0.01946,0.0246 -0.01102,0.003 -0.029,0.029 -0.01797,0.0257 0.01642,0.002 0,0.029 -0.01642,0.0267 -0.01418,10e-4 -0.029,0.029 -0.01482,0.0276 -0.01583,0.0295 -0.029,0.058 -0.01317,0.0285 0.01146,-2e-4 0,0.029 -0.01146,0.0292 -0.01927,-8.3e-4 -0.029,0.029 -0.0097,0.0298 0.008,-10e-4 0,0.029 -0.008,0.0303 0.0061,0.0272 0,0.058 -0.0061,0.0308 0.0044,-0.002 0,0.029 -0.0044,0.0311 -0.02652,-0.002 -0.029,0.029 -0.0025,0.0313 6.34e-4,0.0266 0,0.058 -6.34e-4,0.0314 -0.0012,-0.002 0,0.029 0.0012,0.0313 -0.0031,0.0268 0,0.058 0.0031,0.0312 0.0241,-0.002 0.029,0.029 0.0049,0.031 -0.0067,-0.002 0,0.029 0.0067,0.0306 -0.0085,0.0278 0,0.058 0.0085,0.0302 0.01872,-6.4e-4 0.029,0.029 0.01027,0.0296 -0.012,2e-5 0,0.029 0.012,0.029 0.01531,7.7e-4 0.029,0.029 0.01369,0.0282 -0.01533,0.0306 0,0.058 0.01533,0.0274 0.01208,0.003 0.029,0.029 0.01692,0.0264 0.01055,0.004 0.029,0.029 0.01845,0.0254 0.0091,0.005 0.029,0.029 0.0199,0.0242 -0.0213,0.006 0,0.029 0.0213,0.023 0.0064,0.007 0.029,0.029 0.02262,0.0217 0.0051,0.009 0.029,0.029 l 9.7428,8.235 a 0.46393,0.46393 0 0 1 0,0.69592 l -9.9163,7.97418 c -0.02437,0.02 -0.0058,0.01 -0.029,0.029 -0.02318,0.021 -0.0071,0.01 -0.029,0.029 -0.0219,0.022 -0.0084,0.01 -0.029,0.029 -0.02055,0.024 -0.0099,0 -0.029,0.029 -0.01912,0.025 -0.01136,0 -0.029,0.029 -0.01764,0.026 0.01609,0.031 0,0.058 -0.01609,0.027 -0.0145,0 -0.029,0.029 -0.01449,0.028 -0.01616,5e-4 -0.029,0.029 -0.01283,0.029 0.01113,-2e-4 0,0.029 -0.01113,0.029 -0.0196,-8e-4 -0.029,0.029 -0.0094,0.03 0.0076,0.028 0,0.058 -0.0076,0.03 0.0058,0 0,0.029 -0.0058,0.031 0.004,0 0,0.029 -0.004,0.031 -0.02681,0.027 -0.029,0.058 -0.0022,0.031 3.51e-4,0 0,0.029 -3.51e-4,0.031 -0.0015,0.027 0,0.058 0.0015,0.031 0.02567,0 0.029,0.029 0.0033,0.031 -0.0051,0 0,0.029 0.0051,0.031 -0.007,0.027 0,0.058 0.007,0.03 -0.0087,0 0,0.029 0.0087,0.03 0.01852,-5e-4 0.029,0.029 0.01048,0.029 -0.01219,2e-4 0,0.029 0.01219,0.029 0.01513,0.03 0.029,0.058 0.01386,0.028 -0.01549,0 0,0.029 0.01549,0.027 0.01194,0 0.029,0.029 0.01705,0.026 0.01043,0 0.029,0.029 0.01857,0.025 0.009,0 0.029,0.029 0.02001,0.024 0.0076,0.01 0.029,0.029 0.0214,0.023 0.0063,0.01 0.029,0.029 0.0227,0.022 0.0051,0.01 0.029,0.029 0.02392,0.02 0.0039,0.01 0.029,0.029 0.01254,0.01 0.02736,0 0.029,0 l 10.583,6.7272 a 0.46393,0.46393 0 0 1 0.20298,0.4059 l -0.029,1.2759 a 0.46393,0.46393 0 0 1 -0.02969,0.1735 c -0.0086,0.021 -0.0213,0.01 -0.029,0.029 -0.0077,0.021 0.0068,0.01 0,0.029 -0.0068,0.021 0.0058,0.01 0,0.029 -0.0058,0.022 0.0049,0.01 0,0.029 -0.0049,0.022 -0.02501,0.01 -0.029,0.029 -0.004,0.022 0.0031,0.01 0,0.029 -0.0031,0.022 0.0021,0.01 0,0.029 -0.0021,0.023 0.0011,0.01 0,0.029 -0.0011,0.023 1.75e-4,0.01 0,0.029 -1.74e-4,0.023 -7.84e-4,0.01 0,0.029 7.84e-4,0.023 -0.0018,0.01 0,0.029 0.0018,0.023 -0.0027,0.01 0,0.029 0.0027,0.022 -0.0036,0.01 0,0.029 0.0036,0.022 0.02441,0.01 0.029,0.029 0.0056,0.022 -0.0064,0.01 0,0.029 0.0064,0.022 -0.0073,0.01 0,0.029 0.0073,0.021 0.02074,0.01 0.029,0.029 0.0083,0.021 -0.0092,0.01 0,0.029 0.0092,0.021 -0.01001,0.01 0,0.029 0.01001,0.02 0.01813,0.01 0.029,0.029 0.01087,0.02 -0.01169,0.01 0,0.029 0.01169,0.019 0.0165,0.01 0.029,0.029 0.01329,0.018 0.01494,0.011 0.029,0.029 0.01406,0.018 0.01421,0.012 0.029,0.029 0.01479,0.017 -0.0155,0.013 0,0.029 0.01551,0.016 0.01282,-0.016 0.029,0 0.01618,0.016 0.01215,0.014 0.029,0.029 0.01684,0.015 -0.01746,0.015 0,0.029 0.01746,0.014 0.01094,-0.014 0.029,0 0.01806,0.014 0.01038,0.016 0.029,0.029 l 15.832,11.135 c 0.01669,0.012 0.01187,-0.011 0.029,0 0.01713,0.011 0.01145,0.019 0.029,0.029 0.01794,0.01 0.0107,0.02 0.029,0.029 0.0183,0.01 0.01037,-0.01 0.029,0 0.01863,0.01 0.01006,-0.01 0.029,0 0.01894,0.01 0.0098,0.022 0.029,0.029 0.01922,0.01 0.0095,-0.01 0.029,0 0.01969,0.01 0.0091,0.024 0.029,0.029 h 0.116 c 0.02037,0 0.0086,-8e-4 0.029,0 0.02041,8e-4 0.0085,0 0.029,0 0.02041,-8e-4 0.0086,0 0.029,0 h 0.116 c 0.01988,0 0.0093,-0.024 0.029,-0.029 0.01947,-0.01 0.0098,0.01 0.029,0 0.01922,-0.01 0.01006,-0.021 0.029,-0.029 0.01894,-0.01 0.01036,0.01 0.029,0 0.01863,-0.01 0.0107,0.01 0.029,0 0.0183,-0.01 0.01106,-0.019 0.029,-0.029 0.01755,-0.01 0.01187,-0.018 0.029,-0.029 0.01713,-0.011 0.0123,0.012 0.029,0 l 9.83,-6.9591 a 0.46393,0.46393 0 0 1 0.029,0 0.46393,0.46393 0 0 1 0.05799,-0.058 0.46393,0.46393 0 0 1 0.029,0 l 0.05799,-0.029 5.7122,-4.0015 a 0.46393,0.46393 0 0 1 0.02876,-0.028 c 0.02105,-0.013 0.0085,0.014 0.029,0 0.02045,-0.014 0.0092,-0.014 0.029,-0.029 a 0.46393,0.46393 0 0 1 0.02876,-0.03 c 0.01697,-0.01 0.01239,0.01 0.029,0 0.0083,-0.01 0.02795,6e-4 0.029,0 10e-4,-7e-4 -0.0081,-0.024 0,-0.029 0.01581,-0.011 0.01361,-0.017 0.029,-0.029 a 0.46393,0.46393 0 0 1 0.05753,-0.058 0.46393,0.46393 0 0 1 0.02876,-0.029 c 0.01714,-0.018 -0.0163,-0.011 0,-0.029 0.0163,-0.018 0.01357,-0.01 0.029,-0.029 0.01543,-0.019 0.01447,-0.01 0.029,-0.029 0.01359,-0.02 0.01637,-0.01 0.029,-0.029 0.01263,-0.021 -0.01164,-0.01 0,-0.029 0.01164,-0.022 0.01837,-0.01 0.029,-0.029 0.01062,-0.022 -0.0096,-0.01 0,-0.029 0.0096,-0.023 0.02047,-0.01 0.029,-0.029 0.0085,-0.023 -0.0074,-0.01 0,-0.029 0.0074,-0.023 -0.0064,-0.01 0,-0.029 0.0064,-0.024 -0.0053,0 0,-0.029 0.0053,-0.024 0.02486,0 0.029,-0.029 0.0042,-0.024 -0.003,0 0,-0.029 0.003,-0.024 -0.0019,0 0,-0.029 0.0019,-0.024 -7.41e-4,0 0,-0.029 l -0.02969,-1.8845 a 0.46393,0.46393 0 0 1 0.20298,-0.4059 l 10.265,-6.5249 c 0.0017,0 0.01646,0.01 0.029,0 0.02506,-0.019 0.0051,-0.01 0.029,-0.029 0.02392,-0.02 0.0063,-0.01 0.029,-0.029 0.0227,-0.021 0.0076,-0.01 0.029,-0.029 0.0214,-0.023 0.009,0 0.029,-0.029 0.02001,-0.024 0.01043,0 0.029,-0.029 0.01857,-0.025 0.01194,0 0.029,-0.029 0.01705,-0.026 0.01351,0 0.029,-0.029 0.01549,-0.027 -0.01386,-9e-4 0,-0.029 0.01386,-0.028 0.0168,-0.029 0.029,-0.058 0.01219,-0.029 -0.01048,5e-4 0,-0.029 0.01048,-0.029 0.02026,0 0.029,-0.029 0.0087,-0.03 -0.007,0 0,-0.029 0.007,-0.03 -0.0051,-0.027 0,-0.058 0.0051,-0.031 -0.0033,0 0,-0.029 0.0033,-0.031 0.02751,0 0.029,-0.029 0.0015,-0.031 3.51e-4,-0.027 0,-0.058 -3.51e-4,-0.031 0.0022,0 0,-0.029 -0.0022,-0.031 -0.02498,-0.027 -0.029,-0.058 -0.004,-0.031 0.0058,0 0,-0.029 -0.0058,-0.031 0.0076,0 0,-0.029 -0.0076,-0.03 0.0094,-0.028 0,-0.058 -0.0094,-0.03 -0.01786,2e-4 -0.029,-0.029 -0.01113,-0.029 0.01283,-5e-4 0,-0.029 -0.01283,-0.029 -0.01451,0 -0.029,-0.029 -0.01448,-0.028 -0.01291,0 -0.029,-0.029 -0.01609,-0.027 0.01764,-0.032 0,-0.058 -0.01764,-0.026 -0.0099,0 -0.029,-0.029 -0.01913,-0.025 -0.0084,-0.01 -0.029,-0.029 -0.02055,-0.024 -0.0071,-0.01 -0.029,-0.029 -0.0219,-0.022 -0.0058,-0.01 -0.029,-0.029 -0.02317,-0.021 -0.0046,-0.01 -0.029,-0.029 l -9.8003,-7.88698 a 0.46393,0.46393 0 0 1 0,-0.69591 l 9.7428,-8.293 c 0.02387,-0.0204 0.0064,-0.007 0.029,-0.029 0.02262,-0.0217 0.0077,-0.006 0.029,-0.029 0.0213,-0.023 -0.0199,-0.005 0,-0.029 0.0199,-0.0242 0.01055,-0.004 0.029,-0.029 0.01845,-0.0254 0.01208,-0.003 0.029,-0.029 0.01692,-0.0264 0.01367,-0.002 0.029,-0.029 0.01533,-0.0274 -0.01369,-0.0298 0,-0.058 0.01369,-0.0282 0.017,-2e-5 0.029,-0.029 0.012,-0.029 -0.01027,6.4e-4 0,-0.029 0.01027,-0.0296 0.02049,10e-4 0.029,-0.029 0.0085,-0.0302 -0.0067,-0.0274 0,-0.058 0.0067,-0.0306 -0.0049,0.002 0,-0.029 0.0049,-0.031 0.02594,0.002 0.029,-0.029 0.0031,-0.0312 -0.0012,-0.0267 0,-0.058 0.0012,-0.0313 6.34e-4,0.002 0,-0.029 -6.34e-4,-0.0314 0.0025,-0.0267 0,-0.058 -0.0025,-0.0313 -0.02467,0.002 -0.029,-0.029 -0.0044,-0.0311 0.0061,0.002 0,-0.029 -0.0061,-0.0308 0.008,-0.0277 0,-0.058 -0.008,-0.0303 0.0097,8.3e-4 0,-0.029 -0.0097,-0.0298 -0.01754,2e-4 -0.029,-0.029 -0.01146,-0.0292 0.01317,-5.3e-4 0,-0.029 -0.01317,-0.0285 -0.01418,-0.0303 -0.029,-0.058 -0.01482,-0.0276 -0.01257,-0.002 -0.029,-0.029 -0.01642,-0.0267 0.01797,-0.003 0,-0.029 -0.01797,-0.0257 -0.0095,-0.004 -0.029,-0.029 -0.01946,-0.0246 -0.0082,-0.006 -0.029,-0.029 -0.02087,-0.0234 -0.0068,-0.007 -0.029,-0.029 -0.02221,-0.0222 -0.0055,-0.008 -0.029,-0.029 -0.02349,-0.0208 -0.0044,-0.01 -0.029,-0.029 -0.02466,-0.0194 -0.0032,-0.0111 -0.029,-0.029 -0.02577,-0.0179 -0.0022,0.0163 -0.029,0 l -16.006,-9.714 c -0.01746,-0.0107 -0.01113,-0.019 -0.029,-0.029 -0.01786,-0.01 -0.01076,0.009 -0.029,0 -0.01823,-0.009 -0.01042,-0.0204 -0.029,-0.029 -0.01858,-0.009 -0.0101,0.008 -0.029,0 -0.01919,-0.007 -0.0095,-0.0226 -0.029,-0.029 -0.01945,-0.006 -0.0093,0.006 -0.029,0 -0.01968,-0.006 -0.0091,0.005 -0.029,0 -0.01988,-0.005 -0.0089,0.004 -0.029,0 -0.02006,-0.004 -0.0088,0.003 -0.029,0 -0.0202,-0.003 0.02031,-0.0264 0,-0.029 -0.02031,-0.003 -0.0086,0.002 -0.029,0 -0.0204,-0.002 -0.0085,10e-4 -0.029,0 -0.02045,-0.001 -0.0085,2.1e-4 -0.029,0 -0.02048,-2.1e-4 -0.0085,-5.7e-4 -0.029,0 -0.02047,5.7e-4 -0.0085,-0.001 -0.029,0 -0.02043,10e-4 -0.0086,-0.002 -0.029,0 -0.02037,0.002 -0.0087,-0.003 -0.029,0 -0.02027,0.003 -0.0088,0.0253 -0.029,0.029 -0.01998,0.004 -0.0092,-0.005 -0.029,0 -0.01979,0.005 -0.0094,-0.006 -0.029,0 -0.01958,0.006 -0.0097,0.0222 -0.029,0.029 -0.01933,0.007 -0.0099,-0.008 -0.029,0 -0.01906,0.008 -0.01024,-0.008 -0.029,0 -0.01875,0.008 0.01843,0.0201 0,0.029 -0.01843,0.009 -0.01093,-0.01 -0.029,0 -0.01807,0.01 -0.01131,-0.0103 -0.029,0 -0.01769,0.0103 -0.01173,0.018 -0.029,0.029 -0.01683,0.0117 -0.01262,0.0167 -0.029,0.029 -0.01638,0.0123 -0.01311,-0.0129 -0.029,0 l -9.83,8.467 a 0.46393,0.46393 0 0 1 -0.57993,0 l -9.9163,-8.5245 c -0.01969,-0.0165 -0.0085,0.0155 -0.029,0 -0.02046,-0.0155 -0.0078,-0.0145 -0.029,-0.029 -0.02118,-0.0145 -0.0071,-0.0155 -0.029,-0.029 -0.02186,-0.0135 -0.0065,0.0124 -0.029,0 -0.02249,-0.0124 -0.0059,-0.0177 -0.029,-0.029 -0.02306,-0.0113 -0.0054,0.0102 -0.029,0 -0.02358,-0.0102 -0.0049,-0.02 -0.029,-0.029 -0.02404,-0.009 -0.0045,0.008 -0.029,0 -0.02445,-0.008 -0.0042,0.007 -0.029,0 -0.0248,-0.007 -0.0039,-0.0235 -0.029,-0.029 -0.0251,-0.005 -0.0037,0.004 -0.029,0 -0.02533,-0.004 -0.0035,0.003 -0.029,0 -0.02551,-0.003 -0.0033,0.002 -0.029,0 -0.02562,-0.002 -0.03231,5.5e-4 -0.05799,0 -0.02568,-5.4e-4 -0.0033,-6.9e-4 -0.029,0 -0.0154,0.002 -0.02703,-2.7e-4 -0.029,0 -0.0019,2.7e-4 -0.01371,-0.003 -0.029,0 -0.03057,0.005 0.0012,-0.007 -0.029,0 z" fill="#0b5a9a" color="#000000" inkscape:connector-curvature="0"/>
   <use xlink:href="#SVGCleanerId_0" inkscape:connector-curvature="0"/>
   <path d="m 58.423,980.74 15.997,9.7363 -10.825,9.1833 -15.812,-9.7428 10.64,-9.1768 z" fill="url(#linearGradient5869)" color="#000000" inkscape:connector-curvature="0"/>
   <path d="m 37.215,980.69 -15.997,9.7372 10.825,9.1824 15.812,-9.7428 -10.64,-9.1768 z" fill="url(#linearGradient5871)" color="#000000" inkscape:connector-curvature="0"/>
   <path d="m 32.086,1017.8 0.16012,-18.329 15.647,-9.5461 v 16.723 l -15.807,11.152 z" fill="url(#linearGradient5873)" inkscape:connector-curvature="0"/>
   <path d="m 47.821,1028.7 0.1429,-19.379 -15.79,-9.8328 v 18.302 l 15.647,10.909 z" fill="url(#linearGradient5875)" opacity="0.6" inkscape:connector-curvature="0"/>
   <path d="m 63.637,1017.8 -0.05846,-18.329 -15.698,-9.5962 v 16.978 l 15.756,10.948 z" fill="url(#linearGradient5877)" inkscape:connector-curvature="0"/>
   <path d="m 48.004,1028.7 -0.14382,-19.379 15.79,-9.8328 v 18.302 l -15.647,10.909 z" fill="url(#linearGradient5879)" opacity="0.6" inkscape:connector-curvature="0"/>
   <path d="m 63.595,999.61 10.927,8.7759 -15.915,10.15 -10.824,-9.1833 15.812,-9.7427 z" fill="url(#linearGradient5881)" color="#000000" inkscape:connector-curvature="0"/>
   <path d="m 31.941,999.61 -10.926,8.7759 15.914,10.15 10.825,-9.1833 -15.813,-9.7427 z" fill="url(#linearGradient5883)" color="#000000" inkscape:connector-curvature="0"/>
   <use xlink:href="#SVGCleanerId_0" opacity="0.2" inkscape:connector-curvature="0"/>
   <path d="m 32.173,999.75 v 15.745 l 4.7554,3.0446 10.815,-9.1916 -15.571,-9.5981 z" fill="url(#linearGradient5885)" opacity="0.6" inkscape:connector-curvature="0"/>
   <path d="m 63.605,999.6 -12.034,7.4231 -3.7115,2.2907 v 0.116 l 10.758,9.1049 5.0454,-3.2187 V 999.658 L 63.60491,999.6 z" fill="url(#linearGradient3118)" opacity="0.6" inkscape:connector-curvature="0"/>
  </g>
  <rect x="-96" rx="25" y="958.36" clip-path="url(#clipPath3009)" fill="#ffffff" fill-opacity="1" height="92" opacity="0.15" width="92" transform="matrix(1 0 0 1 98 0)"/>
 </g>
</svg>
