<?xml version="1.0" encoding="UTF-8" standalone="no"?>
<!-- Created with Inkscape (http://www.inkscape.org/) -->

<svg
   xmlns:dc="http://purl.org/dc/elements/1.1/"
   xmlns:cc="http://creativecommons.org/ns#"
   xmlns:rdf="http://www.w3.org/1999/02/22-rdf-syntax-ns#"
   xmlns:svg="http://www.w3.org/2000/svg"
   xmlns="http://www.w3.org/2000/svg"
   xmlns:xlink="http://www.w3.org/1999/xlink"
   xmlns:sodipodi="http://sodipodi.sourceforge.net/DTD/sodipodi-0.dtd"
   xmlns:inkscape="http://www.inkscape.org/namespaces/inkscape"
   id="svg11037"
   height="96"
   width="96"
   version="1.1"
   inkscape:version="0.48.5 r10040"
   sodipodi:docname="dvdrip.svg">
  <sodipodi:namedview
     pagecolor="#ffffff"
     bordercolor="#666666"
     borderopacity="1"
     objecttolerance="10"
     gridtolerance="10"
     guidetolerance="10"
     inkscape:pageopacity="0"
     inkscape:pageshadow="2"
     inkscape:window-width="640"
     inkscape:window-height="480"
     id="namedview9243" />
  <defs
     id="defs11039">
    <linearGradient
       id="linearGradient4584"
       y2="4.788"
       gradientUnits="userSpaceOnUse"
       x2="47.921"
       y1="89.669"
       x1="47.921">
      <stop
         id="stop4580"
         style="stop-color:#a0a0a0;stop-opacity:.54118"
         offset="0" />
      <stop
         id="stop4582"
         style="stop-color:#a0a0a0;stop-opacity:.34510"
         offset="1" />
    </linearGradient>
    <radialGradient
       id="radialGradient4646"
       gradientUnits="userSpaceOnUse"
       cy="47.765"
       cx="46.467"
       r="35.86">
      <stop
         id="stop4642"
         style="stop-opacity:0"
         offset="0" />
      <stop
         id="stop4648"
         style="stop-opacity:0"
         offset="0.93" />
      <stop
         id="stop4644"
         offset="1" />
    </radialGradient>
    <clipPath
       id="clipPath3721">
      <path
         id="path3723"
         style="fill:#f00"
         transform="matrix(1.3435 0 0 1.3435 -16.125 74.167)"
         d="m76.014 47.513a28.284 28.284 0 1 1 -56.569 0 28.284 28.284 0 1 1 56.569 0z" />
    </clipPath>
    <filter
       id="filter3751"
       color-interpolation-filters="sRGB">
      <feGaussianBlur
         id="feGaussianBlur3753"
         stdDeviation="1.44" />
    </filter>
    <linearGradient
       id="linearGradient4004"
       y2="61.922"
       gradientUnits="userSpaceOnUse"
       x2="94.568"
       y1="61.922"
       x1="25.22">
      <stop
         id="stop3364"
         style="stop-color:#4d4d4d"
         offset="0" />
      <stop
         id="stop3366"
         style="stop-color:#fff"
         offset="1" />
    </linearGradient>
    <radialGradient
       id="radialGradient4012"
       gradientUnits="userSpaceOnUse"
       cy="61.922"
       cx="59.894"
       gradientTransform="matrix(1 0 0 .83754 0 10.06)"
       r="33.714">
      <stop
         id="stop3344"
         style="stop-opacity:0"
         offset="0" />
      <stop
         id="stop3350"
         style="stop-opacity:0"
         offset="0.85" />
      <stop
         id="stop3346"
         offset="1" />
    </radialGradient>
    <linearGradient
       id="linearGradient4014"
       y2="61.922"
       gradientUnits="userSpaceOnUse"
       x2="93.608"
       y1="61.922"
       x1="26.18">
      <stop
         id="stop3332"
         style="stop-color:#fff;stop-opacity:.20312"
         offset="0" />
      <stop
         id="stop3334"
         style="stop-color:#fff;stop-opacity:.67969"
         offset="1" />
    </linearGradient>
    <clipPath
       id="clipPath4031">
      <path
         id="path4033"
         style="fill:#bbb1bf"
         d="m48 32c-19.882 0-36 16.118-36 36s16.118 36 36 36 36-16.118 36-36-16.118-36-36-36zm0 24c6.6274 0 12 5.3726 12 12s-5.3726 12-12 12-12-5.3726-12-12 5.3726-12 12-12z" />
    </clipPath>
    <filter
       id="filter4035"
       height="1.3414"
       width="1.3807"
       color-interpolation-filters="sRGB"
       y="-.17070"
       x="-.19037">
      <feGaussianBlur
         id="feGaussianBlur4037"
         stdDeviation="4.9476562" />
    </filter>
    <clipPath
       id="clipPath4187">
      <path
         id="path4189"
         style="fill:#bbb1bf"
         d="m48 102c-19.882 0-36 16.118-36 36s16.118 36 36 36 36-16.118 36-36-16.118-36-36-36zm0 24c6.6274 0 12 5.3726 12 12s-5.3726 12-12 12-12-5.3726-12-12 5.3726-12 12-12z" />
    </clipPath>
    <filter
       id="filter4195"
       height="1.36"
       width="1.36"
       color-interpolation-filters="sRGB"
       y="-0.18"
       x="-0.18">
      <feGaussianBlur
         id="feGaussianBlur4197"
         stdDeviation="5.2159999" />
    </filter>
    <linearGradient
       id="linearGradient4241"
       y2="48"
       xlink:href="#linearGradient4235"
       gradientUnits="userSpaceOnUse"
       x2="88"
       gradientTransform="matrix(.70711 -.70711 .70711 .70711 -19.882 48)"
       y1="48"
       x1="8" />
    <linearGradient
       id="linearGradient4235">
      <stop
         id="stop4237"
         style="stop-color:#fff;stop-opacity:0"
         offset="0" />
      <stop
         id="stop4245"
         style="stop-color:#fff;stop-opacity:0"
         offset=".25" />
      <stop
         id="stop4243"
         style="stop-color:#fff;stop-opacity:.70161"
         offset=".5" />
      <stop
         id="stop4247"
         style="stop-color:#fff;stop-opacity:0"
         offset=".75" />
      <stop
         id="stop4239"
         style="stop-color:#fff;stop-opacity:0"
         offset="1" />
    </linearGradient>
    <linearGradient
       id="linearGradient4624"
       y2="49.028"
       xlink:href="#linearGradient4235"
       gradientUnits="userSpaceOnUse"
       x2="88.142"
       y1="49.028"
       x1="6.8121" />
    <linearGradient
       id="linearGradient3973"
       y2="63.184"
       gradientUnits="userSpaceOnUse"
       x2="48.253"
       y1="7.409"
       x1="48">
      <stop
         id="stop3702"
         style="stop-color:#fff;stop-opacity:0"
         offset="0" />
      <stop
         id="stop3704"
         style="stop-color:#fff;stop-opacity:.23387"
         offset="1" />
    </linearGradient>
    <clipPath
       id="clipPath4592">
      <path
         id="path4594"
         style="fill:#f0f"
         d="m12 6c-3.324 0-6 2.676-6 6v72c0 3.324 2.676 6 6 6h72c3.324 0 6-2.676 6-6v-72c0-3.324-2.676-6-6-6h-72zm36 4c20.987 0 38 17.013 38 38s-17.013 38-38 38-38-17.013-38-38 17.013-38 38-38z" />
    </clipPath>
    <filter
       id="filter4662"
       height="1.24"
       width="1.24"
       color-interpolation-filters="sRGB"
       y="-.12"
       x="-.12">
      <feGaussianBlur
         id="feGaussianBlur4664"
         stdDeviation="4.2" />
    </filter>
    <linearGradient
       id="linearGradient3964"
       y2="64"
       gradientUnits="userSpaceOnUse"
       x2="40"
       y1="96"
       x1="40">
      <stop
         id="stop3960"
         style="stop-color:#002e93"
         offset="0" />
      <stop
         id="stop3962"
         style="stop-color:#2f62c6"
         offset="1" />
    </linearGradient>
    <linearGradient
       id="linearGradient3995"
       y2="61"
       gradientUnits="userSpaceOnUse"
       x2="11"
       gradientTransform="matrix(1 0 0 1.3333 0 -23.333)"
       y1="64"
       x1="11">
      <stop
         id="stop3991"
         offset="0" />
      <stop
         id="stop3997"
         style="stop-opacity:.49804"
         offset="0.3" />
      <stop
         id="stop3993"
         style="stop-opacity:0"
         offset="1" />
    </linearGradient>
    <linearGradient
       id="linearGradient4076"
       y2="64"
       gradientUnits="userSpaceOnUse"
       x2="40"
       y1="88"
       x1="40">
      <stop
         id="stop4072"
         style="stop-color:#dbdbdb"
         offset="0" />
      <stop
         id="stop4074"
         style="stop-color:#fff"
         offset="1" />
    </linearGradient>
    <clipPath
       id="clipPath3333"
       clipPathUnits="userSpaceOnUse">
      <rect
         id="rect3335"
         style="fill:#fff"
         rx="22.826"
         ry="22.826"
         height="84"
         width="84"
         y="6.875"
         x="6" />
    </clipPath>
    <clipPath
       id="clipPath3009"
       clipPathUnits="userSpaceOnUse">
      <path
         id="path3011"
         style="opacity:.15;fill:#fff"
         d="m-2 956.36h-96v33.562l96 25.687v-59.25z" />
    </clipPath>
  </defs>
  <metadata
     id="metadata11042">
    <rdf:RDF>
      <cc:Work
         rdf:about="">
        <dc:format>image/svg+xml</dc:format>
        <dc:type
           rdf:resource="http://purl.org/dc/dcmitype/StillImage" />
        <dc:title />
      </cc:Work>
    </rdf:RDF>
  </metadata>
  <g
     id="layer1"
     transform="translate(0 -956.36)">
    <g
       id="g3131"
       clip-path="url(#clipPath3333)"
       transform="matrix(1.0952 0 0 1.0952 -4.5714 950.83)">
      <g
         id="layer7">
        <rect
           id="rect4576"
           style="fill:url(#linearGradient4584)"
           rx="6"
           ry="6"
           height="84"
           width="84"
           y="6"
           x="6" />
        <path
           id="path4630"
           d="m82.327 47.765a35.86 35.86 0 1 1 -71.721 0 35.86 35.86 0 1 1 71.721 0z"
           style="opacity:.4;fill:url(#radialGradient4646)"
           transform="matrix(1.0597 0 0 1.0597 -1.2394 -2.6151)" />
        <path
           id="path3724"
           style="opacity:.8;filter:url(#filter3751)"
           d="m48 102c-19.882 0-36 16.118-36 36s16.118 36 36 36 36-16.118 36-36-16.118-36-36-36zm0 24c6.6274 0 12 5.3726 12 12s-5.3726 12-12 12-12-5.3726-12-12 5.3726-12 12-12z"
           clip-path="url(#clipPath3721)"
           transform="translate(0,-90)" />
      </g>
      <g
         id="layer6">
        <path
           id="path3978"
           d="m48 12c-19.882 0-36 16.118-36 36s16.118 36 36 36 36-16.118 36-36-16.118-36-36-36zm0 24c6.6274 0 12 5.3726 12 12s-5.3726 12-12 12-12-5.3726-12-12 5.3726-12 12-12z"
           style="fill:#ccbb98" />
        <path
           id="path3992"
           d="m48 36c-6.6274 0-12 5.3726-12 12s5.3726 12 12 12 12-5.3726 12-12-5.3726-12-12-12zm0 7c2.7614 0 5 2.2386 5 5s-2.2386 5-5 5-5-2.2386-5-5 2.2386-5 5-5z"
           style="opacity:.3;fill:#fff" />
        <path
           id="path4002"
           d="m92.58 61.922a32.686 27.208 0 1 1 -65.371 0 32.686 27.208 0 1 1 65.371 0z"
           style="opacity:.6;stroke:url(#linearGradient4004);stroke-linecap:round;stroke-width:5.4221;fill:none"
           transform="matrix(0 .16827 -.20214 0 60.517 37.922)" />
        <path
           id="path4010"
           d="m92.58 61.922a32.686 27.208 0 1 1 -65.371 0 32.686 27.208 0 1 1 65.371 0z"
           style="opacity:.5;fill-rule:evenodd;stroke:url(#linearGradient4014);stroke-linecap:round;stroke-width:3.1391;fill:url(#radialGradient4012)"
           transform="matrix(0 .29065 -.34916 0 69.621 30.592)" />
        <path
           id="path4018"
           style="opacity:.8;filter:url(#filter4035);fill:#fff"
           d="m57.312 33.219-9.312 34.781 31.188-18c-4.774-8.269-12.653-14.31-21.876-16.781zm-9.312 34.781-31.188 18c4.7739 8.2686 12.653 14.31 21.875 16.781l9.313-34.78z"
           clip-path="url(#clipPath4031)"
           transform="translate(0,-20)" />
        <path
           id="path4022"
           d="m64.397 47.386a20.708 18.814 0 0 1 -6.0653 13.304l-14.643-13.304z"
           style="opacity:.3;fill:#fff"
           transform="matrix(.44994 -1.6792 1.8483 .49524 -59.24 7.8956)" />
        <path
           id="path4024"
           d="m64.397 47.386a20.708 18.814 0 0 1 -6.0653 13.304l-14.643-13.304z"
           style="opacity:.3;fill:#fff"
           transform="matrix(-.44994 1.6792 -1.8483 -.49524 155.24 -91.896)" />
        <g
           id="g4175"
           style="opacity:.6;filter:url(#filter4195)"
           transform="translate(0,-90)"
           clip-path="url(#clipPath4187)">
          <path
             id="path4039"
             d="m60.947 57.784a20.708 18.814 0 0 1 -2.6155 2.9059l-14.643-13.304z"
             style="fill:#7137c8"
             transform="matrix(1.5055 .86922 -.95673 1.6571 27.56 21.5)" />
          <path
             id="path4041"
             d="m60.779 58.011a20.708 18.814 0 0 1 -3.384 3.4788l-13.706-14.104z"
             style="fill:#0cf"
             transform="matrix(1.6792 .44994 -.49524 1.8483 -1.8956 30.76)" />
          <path
             id="path4043"
             d="m62.724 54.796a20.708 18.814 0 0 1 -2.2597 3.6221l-16.775-11.032z"
             style="fill:#fc0"
             transform="matrix(1.7384 0 -6.0266e-8 1.9135 -27.951 47.328)" />
          <path
             id="path4045"
             d="m61.623 56.793a20.708 18.814 0 0 1 -1.6993 2.2728l-16.235-11.68z"
             style="fill:#f00"
             transform="matrix(1.6792 -.44994 .49524 1.8483 -48.831 70.075)" />
          <path
             id="path4144"
             d="m63.123 53.883a20.708 18.814 0 0 1 -2.37 4.1619l-17.064-10.659z"
             style="fill:#0f0"
             transform="matrix(1.6792 .44994 -.49524 1.8483 -1.8956 30.76)" />
          <path
             id="path4155"
             d="m60.947 57.784a20.708 18.814 0 0 1 -2.6155 2.9059l-14.643-13.304z"
             style="fill:#7137c8"
             transform="matrix(-1.5055 -.86922 .95673 -1.6571 68.44 254.5)" />
          <path
             id="path4157"
             d="m60.779 58.011a20.708 18.814 0 0 1 -3.384 3.4788l-13.706-14.104z"
             style="fill:#0cf"
             transform="matrix(-1.6792 -.44994 .49524 -1.8483 97.896 245.24)" />
          <path
             id="path4159"
             d="m62.724 54.796a20.708 18.814 0 0 1 -2.2597 3.6221l-16.775-11.032z"
             style="fill:#fc0"
             transform="matrix(-1.7384 0 6.0266e-8 -1.9135 123.95 228.67)" />
          <path
             id="path4161"
             d="m61.623 56.793a20.708 18.814 0 0 1 -1.6993 2.2728l-16.235-11.68z"
             style="fill:#f00"
             transform="matrix(-1.6792 .44994 -.49524 -1.8483 144.83 205.92)" />
          <path
             id="path4163"
             d="m63.123 53.883a20.708 18.814 0 0 1 -2.37 4.1619l-17.064-10.659z"
             style="fill:#0f0"
             transform="matrix(-1.6792 -.44994 .49524 -1.8483 97.896 245.24)" />
        </g>
        <path
           id="path3986"
           d="m48 33.5c-8.0081 0-14.5 6.4919-14.5 14.5s6.4919 14.5 14.5 14.5 14.5-6.4919 14.5-14.5-6.4919-14.5-14.5-14.5zm0 2.5c6.6274 0 12 5.3726 12 12s-5.3726 12-12 12-12-5.3726-12-12 5.3726-12 12-12z"
           style="opacity:.2" />
        <path
           id="path4199"
           d="m48 12c-19.882 0-36 16.118-36 36 0 0.33707 0.022 0.66516 0.0312 1 0.534-19.416 16.424-35 35.969-35s35.435 15.584 35.969 35c0.009-0.335 0.031-0.663 0.031-1 0-19.882-16.118-36-36-36z"
           style="opacity:.4;fill:#fff" />
        <path
           id="path3745"
           d="m44.649 66.418-4.9147 0.01107h-3.6971l-0.37636 1.5663 2.8005 0.01107h0.64755c1.7977 0 2.8962 0.72594 2.5902 1.998-0.33024 1.394-1.9071 2.0035-3.5698 2.0035h-0.61988l0.80252-3.4259h-2.7839l-1.1899 5.0033h3.9628c2.9714 0 5.8091-1.5633 6.2984-3.5809 0.09761-0.36713 0.08873-1.2875-0.1439-1.8375 0-0.02455-0.01555-0.0341-0.02767-0.08302-0.01254-0.01214-0.02124-0.09878 0.02767-0.11069 0.02466-0.01235 0.07089 0.03748 0.08302 0.04981 0.02425 0.06114 0.03874 0.10516 0.03874 0.10516l2.5183 7.1175 6.4202-7.2393h2.712 0.65308c1.7977 0 2.8951 0.72594 2.6013 1.998-0.34237 1.394-1.918 2.0035-3.5809 2.0035h-0.62541l0.80806-3.4259h-2.7895l-1.1844 5.0033h3.9628c2.9718 0 5.8216-1.5633 6.2984-3.5809 0.4891-2.0056-1.6154-3.5754-4.5993-3.5754h-5.9054s-1.566 1.8481-1.8596 2.2028c-1.5528 1.8707-1.838 2.3726-1.8873 2.5072 0.01233-0.1346-0.04815-0.63377-0.70843-2.5293-0.1831-0.51366-0.74164-2.1806-0.74164-2.1806h-2.0201v-0.01107zm2.5459 8.8554c-7.5331 0-13.637 0.8679-13.637 1.9316 0 1.0762 6.1042 1.9316 13.637 1.9316 7.5329 0 13.643-0.85537 13.643-1.9316 0-1.0637-6.1099-1.9316-13.643-1.9316zm-0.49258 1.3338c1.7244 0 3.1215 0.28219 3.1215 0.63648 0 0.3547-1.3972 0.64755-3.1215 0.64755-1.7246 0-3.116-0.29285-3.116-0.64755 0-0.35429 1.3914-0.63648 3.116-0.63648z"
           style="opacity:.6;fill-rule:evenodd" />
      </g>
      <g
         id="layer1-6">
        <path
           id="path4230"
           d="m19.716 19.716c-15.621 15.621-15.621 40.948 0 56.569s40.948 15.621 56.569 0 15.621-40.948 0-56.569c-15.622-15.621-40.948-15.621-56.569 0zm1.4142 1.4142c14.84-14.84 38.9-14.84 53.74 0s14.84 38.9 0 53.74-38.9 14.84-53.74 0-14.84-38.9 0-53.74z"
           style="opacity:.6;fill:url(#linearGradient4241);display:none" />
        <path
           id="path4616"
           d="m87.126 49.028a39.648 39.648 0 1 1 -79.297 0 39.648 39.648 0 1 1 79.297 0z"
           style="stroke:url(#linearGradient4624);stroke-linecap:round;stroke-width:2.0333;fill:none"
           transform="matrix(.69554 -.69554 .69554 .69554 -19.123 46.921)" />
        <path
           id="path4626"
           d="m87.126 49.028a39.648 39.648 0 1 1 -79.297 0 39.648 39.648 0 1 1 79.297 0z"
           style="opacity:.4;stroke:url(#linearGradient4624);stroke-linecap:round;stroke-width:2.0333;fill:none"
           transform="matrix(-.69554 -.69554 -.69554 .69554 115.12 46.921)" />
        <path
           id="rect3638"
           d="m12 6c-3.324 0-6 2.676-6 6v43.656c18.407-8.8738 43.001-14.312 70.062-14.312 4.7286 0 9.3777 0.17935 13.938 0.5v-29.844c0-3.324-2.676-6-6-6h-72z"
           style="opacity:.8;fill:url(#linearGradient3973)" />
        <path
           id="path4590"
           d="m12 6c-3.324 0-6 2.676-6 6v72c0 3.324 2.676 6 6 6h72c3.324 0 6-2.676 6-6v-72c0-3.324-2.676-6-6-6h-72zm36 4c20.987 0 38 17.013 38 38s-17.013 38-38 38-38-17.013-38-38 17.013-38 38-38z"
           style="opacity:.8;filter:url(#filter4662);stroke:#fff;stroke-width:2;fill:none"
           clip-path="url(#clipPath4592)" />
      </g>
      <g
         id="layer3">
        <path
           id="rect3169"
           d="m6 62v22c0 3.324 2.676 6 6 6h72c3.324 0 6-2.676 6-6v-22z"
           style="fill:url(#linearGradient3964)" />
        <path
           id="path4038"
           d="m51.656 63.344c-1.3475 0.22558-1.7291 1.6934-1.5625 2.8737 0.09963 1.2345-0.23662 2.5607 0.25 3.7201-1.9301-1.2551-4.3573-0.68813-6.25-0.40625-1.9033-0.28259-3.8941-0.04848-5.832-0.125-1.434-0.20264-2.4377 1.2563-2.168 2.5749 0.0209 4.4637-0.04176 8.9344 0.03125 13.394 0.2415 1.3936 1.7628 1.6769 2.9449 1.5312 1.7441-0.05589 3.5194 0.11587 5.2426-0.09375 1.5376-0.40778 1.3782-2.1706 1.3438-3.4173 0.0757-2.1578-0.27521-4.4194 0.58578-6.4628 1.0826 0.47996 2.7228 0.79453 3.383-0.4949 0.55768-1.4452 0.49138-0.45131 0.46875 0.53361 0.02117 2.8004-0.04214 5.6078 0.03125 8.4039 0.2415 1.3936 1.7628 1.6769 2.9449 1.5312 1.8273-0.05683 3.6862 0.11722 5.4926-0.09375 1.5376-0.40778 1.3782-2.1706 1.3438-3.4173-0.021-4.236 0.042-8.478-0.031-12.708-0.43942-0.90758 0.2622-1.8799 0.03125-2.8911-0.14248-1.4277 0.5155-3.3533-1-4.2339-1.5337-0.45111-3.1953-0.11476-4.7846-0.21875h-2.4654zm20.125 5.7188c-1.6738 0.21154-2.9002 0.84076-4.495 0.3125-1.9042 0.05825-3.8406-0.11924-5.7238 0.09375-1.5376 0.40778-1.3782 2.1706-1.3438 3.4173 0.02091 5.485-0.04177 10.977 0.03125 16.458 0.2415 1.3936 1.7628 1.6769 2.9449 1.5312 1.7957-0.05953 3.6243 0.12112 5.3989-0.09375 1.5376-0.40778 1.3782-2.1706 1.3438-3.4173-0.30285-1.8653 2.6131 0.37986 3.6839-0.71275 3.6911-0.95232 5.5918-4.9464 5.4099-8.5262 0.15883-4.2686-2.4282-9.1685-7.25-9.0625zm-52.125 0.03125c-1.3475 0.22558-1.7291 1.6934-1.5625 2.8737 0.05792 1.8613-0.11878 3.7548 0.09375 5.5951 0.2827 0.76864-0.31282 1.6542-0.09375 2.5386 0.05771 1.8168-0.1185 3.6656 0.09375 5.4614 0.40778 1.5376 2.1706 1.3782 3.4173 1.3438 1.6491-0.05587 3.3294 0.11586 4.9577-0.09375 0.83935-0.24722 1.8169 0.29319 2.7749 0.09375 1.7382-0.05638 3.5078 0.11658 5.2251-0.09375 1.5376-0.40778 1.3782-2.1706 1.3438-3.4173-0.05587-1.6491 0.11586-3.3294-0.09375-4.9577-0.24722-0.83935 0.29319-1.8169 0.09375-2.7749-0.05638-1.7382 0.11658-3.5078-0.09375-5.2251-0.40778-1.5376-2.1706-1.3782-3.4173-1.3438-1.6387 0.05193-3.2999-0.0981-4.9264 0.0625-0.83062 0.35059-1.7498-0.28896-2.6724-0.0625h-5.1401zm50.469 7.594c0.65982 1.0912-0.2969 3.7134-0.20688 1.0211 0.0351-0.34016 0.08218-0.71105 0.20688-1.0211z"
           style="opacity:0.08" />
        <path
           id="path3976"
           d="m6 62v1h84v-1h-84z"
           style="opacity:.2;fill:#fff" />
        <path
           id="path3987"
           d="m6 58v4h84v-4h-84z"
           style="opacity:.3;fill:url(#linearGradient3995)" />
        <path
           id="path4034"
           d="m51.906 64.312a0.93836 0.93836 0 0 0 -0.844 0.938v3.75a0.93836 0.93836 0 0 0 0.938 0.938h6a0.93836 0.93836 0 0 0 0.938 -0.938v-3.75a0.93836 0.93836 0 0 0 -0.938 -0.938h-6a0.93836 0.93836 0 0 0 -0.09375 0zm19.875 5.7188c-1.0061 0.000015-1.9874 0.24212-2.8438 0.71875-0.12592 0.07039-0.22333 0.2583-0.34375 0.34375a0.93836 0.93836 0 0 0 -0.90625 -0.75h-5.5625a0.93836 0.93836 0 0 0 -0.9375 0.9375v17.688a0.93836 0.93836 0 0 0 0.9375 0.9375h5.9062a0.93836 0.93836 0 0 0 0.9375 -0.9375v-3.75c0.12455 0.06713 0.2135 0.19295 0.34375 0.25 0.74785 0.32338 1.5728 0.46875 2.4375 0.46875 1.7959 0 3.3984-0.75085 4.5625-2.0938 1.1997-1.3939 1.75-3.3436 1.75-5.7188 0-2.167-0.507-4.077-1.562-5.626-1.074-1.591-2.764-2.469-4.719-2.469zm-51.875 0.03125a0.93836 0.93836 0 0 0 -0.844 0.938v6a0.93836 0.93836 0 0 0 0.938 0.938h6a0.93836 0.93836 0 0 0 0.938 -0.938v-6a0.93836 0.93836 0 0 0 -0.938 -0.938h-6a0.93836 0.93836 0 0 0 -0.09375 0zm8 0a0.93836 0.93836 0 0 0 -0.844 0.938v6a0.93836 0.93836 0 0 0 0.938 0.938h6a0.93836 0.93836 0 0 0 0.938 -0.938v-6a0.93836 0.93836 0 0 0 -0.938 -0.938h-6a0.93836 0.93836 0 0 0 -0.09375 0zm19.094 0c-0.95697 0.000017-1.8435 0.23915-2.5625 0.71875-0.067 0.045-0.092 0.17-0.157 0.219a0.93836 0.93836 0 0 0 -0.906 -0.625h-5.375a0.93836 0.93836 0 0 0 -0.9375 0.9375v13.688a0.93836 0.93836 0 0 0 0.938 0.938h5.75a0.93836 0.93836 0 0 0 0.938 -0.938v-4.5938c-0.000007-2.1017 0.36157-3.4236 0.71875-3.9062 0.25978-0.35667 0.5051-0.49999 1-0.5 0.15896 0.000004 0.61253 0.10065 1.25 0.34375a0.93836 0.93836 0 0 0 1.1875 -0.46875l1.7812-3.75a0.93836 0.93836 0 0 0 -0.4375 -1.25c-1.101-0.527-2.167-0.812-3.188-0.813zm4.9062 0.0625a0.93836 0.93836 0 0 0 -0.84375 0.9375v13.938a0.93836 0.93836 0 0 0 0.938 0.938h6a0.93836 0.93836 0 0 0 0.938 -0.938v-13.938a0.93836 0.93836 0 0 0 -0.938 -0.937h-6a0.93836 0.93836 0 0 0 -0.09375 0zm18.281 5.5625c0.2833 0.000005 0.45301 0.06456 0.71875 0.40625a0.93836 0.93836 0 0 0 0 0.03125c0.19791 0.25033 0.40624 0.80781 0.40625 1.7812-0.00001 1.0499-0.2303 1.6677-0.40625 1.9062-0.2606 0.33189-0.37842 0.40625-0.65625 0.40625-0.38757 0.000002-0.5917-0.09382-0.875-0.4375-0.23775-0.2884-0.43751-0.8272-0.4375-1.75-0.000006-1.039 0.20627-1.659 0.40625-1.9062 0.27253-0.33696 0.49009-0.43749 0.84375-0.4375zm-50.281 2.375a0.93836 0.93836 0 0 0 -0.844 0.939v6a0.93836 0.93836 0 0 0 0.938 0.938h6a0.93836 0.93836 0 0 0 0.938 -0.938v-6a0.93836 0.93836 0 0 0 -0.938 -0.938h-6a0.93836 0.93836 0 0 0 -0.09375 0zm8 0a0.93836 0.93836 0 0 0 -0.844 0.939v6a0.93836 0.93836 0 0 0 0.938 0.938h6a0.93836 0.93836 0 0 0 0.938 -0.938v-6a0.93836 0.93836 0 0 0 -0.938 -0.938h-6a0.93836 0.93836 0 0 0 -0.09375 0z"
           style="opacity:0.12" />
        <path
           id="path4030"
           d="m52 65.25v3.75h6v-3.75h-6zm19.781 5.7188c-0.86228 0.000013-1.6644 0.19825-2.375 0.59375-0.52695 0.29454-1.088 0.85442-1.7188 1.6875v-1.9688h-5.5625v17.688h5.9062v-5.5938c0.48702 0.53015 1.0415 0.94947 1.6562 1.2188 0.623 0.269 1.312 0.406 2.063 0.406 1.5489 0 2.8298-0.61155 3.8438-1.7812 1.014-1.1781 1.5312-2.8637 1.5312-5.0938-0.000015-2.0196-0.47213-3.7221-1.4062-5.0938-0.92616-1.3716-2.2369-2.0625-3.9375-2.0625zm-51.781 0.031v6h6v-6h-6zm8 0v6h6v-6h-6zm19 0c-0.80752 0.000014-1.4773 0.19296-2.0312 0.5625-0.54461 0.36097-1.0773 1.0289-1.5938 2v-2.25h-5.375v13.688h5.75v-4.5938c-0.000007-2.1915 0.31469-3.6695 0.90625-4.4688 0.41314-0.56721 0.99882-0.87499 1.75-0.875 0.39436 0.00001 0.91768 0.14843 1.5938 0.40625l1.7812-3.75c-1.004-0.481-1.936-0.718-2.781-0.718zm5 0.0625v13.938h6v-13.938h-6zm18.188 3.688c0.57484 0.00001 1.0695 0.26794 1.4688 0.78125 0.39919 0.50492 0.59374 1.2895 0.59375 2.375-0.000011 1.1781-0.21053 2.0035-0.59375 2.5-0.38324 0.48808-0.83939 0.75-1.4062 0.75-0.64671 0.000004-1.1706-0.26792-1.5938-0.78125-0.424-0.513-0.657-1.283-0.657-2.344-0.000007-1.1529 0.20982-1.9867 0.625-2.5 0.41516-0.51331 0.93974-0.78124 1.5625-0.78125zm-50.188 4.25v6h6v-6h-6zm8 0v6h6v-6h-6z"
           style="opacity:.3" />
        <path
           id="path4004"
           d="m52 64.25v3.75h6v-3.75h-6zm19.781 5.7188c-0.86228 0.000013-1.6644 0.19825-2.375 0.59375-0.52695 0.29454-1.088 0.85442-1.7188 1.6875v-1.9688h-5.5625v17.688h5.9062v-5.5938c0.48702 0.53015 1.0415 0.94947 1.6562 1.2188 0.623 0.269 1.312 0.406 2.063 0.406 1.5489 0 2.8298-0.61155 3.8438-1.7812 1.014-1.1781 1.5312-2.8637 1.5312-5.0938-0.000015-2.0196-0.47213-3.7221-1.4062-5.0938-0.92616-1.3716-2.2369-2.0625-3.9375-2.0625zm-51.781 0.031v6h6v-6h-6zm8 0v6h6v-6h-6zm19 0c-0.80752 0.000014-1.4773 0.19296-2.0312 0.5625-0.54461 0.36097-1.0773 1.0289-1.5938 2v-2.25h-5.375v13.688h5.75v-4.5938c-0.000007-2.1915 0.31469-3.6695 0.90625-4.4688 0.41314-0.56721 0.99882-0.87499 1.75-0.875 0.39436 0.00001 0.91768 0.14843 1.5938 0.40625l1.7812-3.75c-1.004-0.481-1.936-0.718-2.781-0.718zm5 0.0625v13.938h6v-13.938h-6zm18.188 3.688c0.57484 0.00001 1.0695 0.26794 1.4688 0.78125 0.39919 0.50492 0.59374 1.2895 0.59375 2.375-0.000011 1.1781-0.21053 2.0035-0.59375 2.5-0.38324 0.48808-0.83939 0.75-1.4062 0.75-0.64671 0.000004-1.1706-0.26792-1.5938-0.78125-0.424-0.513-0.657-1.283-0.657-2.344-0.000007-1.1529 0.20982-1.9867 0.625-2.5 0.41516-0.51331 0.93974-0.78124 1.5625-0.78125zm-50.188 4.25v6h6v-6h-6zm8 0v6h6v-6h-6z"
           style="fill:url(#linearGradient4076)" />
      </g>
    </g>
    <rect
       id="rect3003"
       style="opacity:.15;fill:#fff"
       transform="translate(98 3.8281e-7)"
       clip-path="url(#clipPath3009)"
       rx="25"
       ry="25"
       height="92"
       width="92"
       y="958.36"
       x="-96" />
  </g>
</svg>
