<svg height="96" width="96" xmlns="http://www.w3.org/2000/svg" xmlns:sodipodi="http://sodipodi.sourceforge.net/DTD/sodipodi-0.dtd" xmlns:inkscape="http://www.inkscape.org/namespaces/inkscape">
 <g inkscape:label="Layer 1" inkscape:groupmode="layer" transform="matrix(1 0 0 1 0 -956.36)">
  <rect x="8" rx="10.769" y="964.36" fill="#e6e6e6" fill-opacity="1" stroke="none" height="80" width="80"/>
  <path d="m 47.793064,986.84374 a 1.5348133,1.0922101 0 0 0 -1.12937,0.5476 l -15.98225,19.71366 a 1.5348133,1.0922101 0 0 0 -0.2059,0.5136 1.5348133,1.0922101 0 0 0 1.53985,1.1292 h 31.966695 a 1.5348133,1.0922101 0 0 0 1.33395,-1.6428 l -15.98225,-19.71366 a 1.5348133,1.0922101 0 0 0 -1.540945,-0.5476 z m -15.1269,26.28486 c -1.21348,0 -2.1904,0.9769 -2.1904,2.1904 v 4.3808 c 0,1.2135 0.97692,2.1904 2.1904,2.1904 h 30.665595 c 1.21348,0 2.1904,-0.9769 2.1904,-2.1904 v -4.3808 c 0,-1.2135 -0.97692,-2.1904 -2.1904,-2.1904 H 32.666164 z" fill="#4d4d4d" color="black" inkscape:connector-curvature="0"/>
 </g>
</svg>
