<?xml version="1.0" encoding="UTF-8" standalone="no"?>
<!-- Created with Inkscape (http://www.inkscape.org/) -->

<svg
   xmlns:dc="http://purl.org/dc/elements/1.1/"
   xmlns:cc="http://creativecommons.org/ns#"
   xmlns:rdf="http://www.w3.org/1999/02/22-rdf-syntax-ns#"
   xmlns:svg="http://www.w3.org/2000/svg"
   xmlns="http://www.w3.org/2000/svg"
   xmlns:xlink="http://www.w3.org/1999/xlink"
   xmlns:sodipodi="http://sodipodi.sourceforge.net/DTD/sodipodi-0.dtd"
   xmlns:inkscape="http://www.inkscape.org/namespaces/inkscape"
   id="svg11037"
   height="96"
   width="96"
   version="1.1"
   inkscape:version="0.48.5 r10040"
   sodipodi:docname="emacs.svg">
  <sodipodi:namedview
     pagecolor="#ffffff"
     bordercolor="#666666"
     borderopacity="1"
     objecttolerance="10"
     gridtolerance="10"
     guidetolerance="10"
     inkscape:pageopacity="0"
     inkscape:pageshadow="2"
     inkscape:window-width="640"
     inkscape:window-height="480"
     id="namedview9913" />
  <defs
     id="defs11039">
    <linearGradient
       id="linearGradient11642"
       y2="1046.1"
       gradientUnits="userSpaceOnUse"
       y1="962.62"
       gradientTransform="matrix(1.15 0 0 1.15 -7.1999 -150.65)"
       x2="48"
       x1="48">
      <stop
         id="stop3803-8"
         style="stop-color:#9491c7"
         offset="0" />
      <stop
         id="stop3805-0"
         style="stop-color:#4b46a7;stop-opacity:.99216"
         offset="1" />
    </linearGradient>
    <radialGradient
       id="radialGradient3858"
       xlink:href="#linearGradient4966"
       gradientUnits="userSpaceOnUse"
       cy="371.76"
       cx="299.7"
       gradientTransform="matrix(.35133 0 0 .21958 -55.867 -41.232)"
       r="76.696" />
    <linearGradient
       id="linearGradient4966">
      <stop
         id="stop4968"
         style="stop-color:#b6b3d8"
         offset="0" />
      <stop
         id="stop4970"
         style="stop-color:#b6b3d8;stop-opacity:0"
         offset="1" />
    </linearGradient>
    <radialGradient
       id="radialGradient3854"
       xlink:href="#linearGradient4966"
       gradientUnits="userSpaceOnUse"
       cy="371.76"
       cx="299.7"
       gradientTransform="matrix(.27452 0 0 .17157 -32.848 6.6144)"
       r="76.696" />
    <linearGradient
       id="linearGradient3942"
       x1="102.76"
       xlink:href="#linearGradient3936"
       gradientUnits="userSpaceOnUse"
       y1="78.68"
       gradientTransform="matrix(.98565 .16878 -.16878 .98565 -45.009 -15.895)"
       x2="142.17"
       y2="30.336" />
    <linearGradient
       id="linearGradient3936">
      <stop
         id="stop3938"
         offset="0" />
      <stop
         id="stop3940"
         style="stop-opacity:0"
         offset="1" />
    </linearGradient>
    <radialGradient
       id="radialGradient3890"
       gradientUnits="userSpaceOnUse"
       cy="356.62"
       cx="425.51"
       gradientTransform="matrix(-.021224 -.017025 .22621 -.282 -136.43 244.92)"
       r="143.34">
      <stop
         id="stop3296"
         style="stop-color:#6376e6"
         offset="0" />
      <stop
         id="stop3302"
         style="stop-color:#222989"
         offset=".50094" />
      <stop
         id="stop3298-7"
         style="stop-color:#00003d"
         offset="1" />
    </radialGradient>
    <radialGradient
       id="radialGradient3892"
       xlink:href="#linearGradient3202"
       gradientUnits="userSpaceOnUse"
       cy="390.45"
       cx="289.44"
       gradientTransform="matrix(.087305 .069485 -.1065 .13382 -66.303 90.119)"
       r="17.677" />
    <linearGradient
       id="linearGradient3202">
      <stop
         id="stop3204"
         style="stop-color:#2b2b2b"
         offset="0" />
      <stop
         id="stop3250-5"
         style="stop-color:#828383"
         offset=".5" />
      <stop
         id="stop3206"
         style="stop-color:#dadbdb"
         offset="1" />
    </linearGradient>
    <radialGradient
       id="radialGradient3894"
       xlink:href="#linearGradient3202"
       gradientUnits="userSpaceOnUse"
       cy="382.15"
       cx="283.51"
       gradientTransform="matrix(.087305 .069485 -.1065 .13382 -44.944 65.935)"
       r="17.677" />
    <radialGradient
       id="radialGradient3896"
       gradientUnits="userSpaceOnUse"
       cy="181.19"
       cx="418.46"
       gradientTransform="matrix(-.013803 -.012573 .35517 -.38992 -103.15 193.49)"
       r="63.069">
      <stop
         id="stop3244-8"
         style="stop-color:#282828"
         offset="0" />
      <stop
         id="stop3252"
         style="stop-color:#969696"
         offset=".39253" />
      <stop
         id="stop3246-8"
         style="stop-color:#e3e3e3"
         offset="1" />
    </radialGradient>
    <linearGradient
       id="linearGradient3946"
       x1="103.95"
       xlink:href="#linearGradient3936"
       gradientUnits="userSpaceOnUse"
       y1="79.295"
       gradientTransform="matrix(.84816 .52974 -.52974 .84816 -2.1584 -41.321)"
       x2="134.49"
       y2="41.356" />
    <clipPath
       id="clipPath3009"
       clipPathUnits="userSpaceOnUse">
      <path
         id="path3011"
         style="opacity:.15;fill:#fff"
         d="m-2 956.36h-96v33.562l96 25.687v-59.25z" />
    </clipPath>
  </defs>
  <metadata
     id="metadata11042">
    <rdf:RDF>
      <cc:Work
         rdf:about="">
        <dc:format>image/svg+xml</dc:format>
        <dc:type
           rdf:resource="http://purl.org/dc/dcmitype/StillImage" />
        <dc:title />
      </cc:Work>
    </rdf:RDF>
  </metadata>
  <g
     id="layer1"
     transform="translate(0 -956.36)">
    <rect
       id="rect3867"
       style="fill:url(#linearGradient11642)"
       rx="25"
       ry="25"
       height="92"
       width="92"
       y="958.36"
       x="2" />
    <g
       id="g3063"
       transform="matrix(.69918 0 0 .69918 8.135 969.3)">
      <g
         id="layer4">
        <path
           id="path3856"
           d="m76.371 40.399a26.946 16.841 0 1 1 -53.891 0 26.946 16.841 0 1 1 53.891 0z"
           style="stroke-width:0;fill:url(#radialGradient3858)" />
        <path
           id="path3846"
           d="m70.48 70.399a21.055 13.159 0 1 1 -42.109 0 21.055 13.159 0 1 1 42.109 0z"
           style="opacity:.6;stroke-width:0;fill:url(#radialGradient3854)" />
        <path
           id="path3848"
           d="m28.924 76.714s3.5556 1.0324 8.2886 1.6226c1.9167 0.23902 9.2096 1.0745 14.801 1.0525 0 0 6.81 0.0077 10.569-0.52626 3.9333-0.55874 6.1617-1.2718 7.4018-2.6948 0.0323-0.33929 0.59859-1.4453-0.93031-2.5118-3.91-2.726-8.963-3.472-18.778-5.803-10.854-2.729-14.098-5.342-15.718-7.233-1.536-1.896 0.288-5.832 9.034-7.763 4.428-1.077 20.92-1.275 20.92-1.275-4.731-3.757-13.614-10.482-15.43-11.913-1.592-1.254-4.158-3.179-4.434-4.899-0.37212-1.6746 2.2638-2.4808 3.6592-2.5739 4.4965-0.3101 10.637 0.21707 16.094 1.3024 2.7434 0.54556 3.2251 0.46516 3.2251 0.46516 3.9073 0.18606 6.9463-1.8606 6.7913-6.1711-0.03101-4.3725-4.4027-7.8785-9.2411-8.0317-4.5563-0.14422-15.784 0.65122-15.784 0.65122 13.086 2.6979 15.226 3.3864 15.908 4.9616 0.40313 0.93031-0.67341 1.8553-4.2794 1.6746-3.926-0.196-11.97-1.147-11.97-1.147-7.659-1.179-12.993-2.295-15.319 0.744-1.5195 1.9854 0.21707 4.4035 0.89929 5.8299 3.039 5.3028 8.2941 8.9409 11.629 11.505 1.2547 0.96472 5.0857 3.101 5.0857 3.101-11.908-3.2561-21.397-1.4265-27.413 1.7366-6.9153 4.0934-5.7324 11.001 5.2407 17.459 6.4812 3.8143 9.7081 5.6466 20.32 6.9494 6.2027 0.98902 7.1269 1.3937 7.0798 1.91-0.06637 0.72687-7.3415 1.0023-9.3412 1.1402-5.0872 0.35084-18.244 0.43855-18.31 0.43855z"
           style="stroke-width:0;fill:#fff;fill-rule:evenodd" />
      </g>
      <g
         id="layer6">
        <path
           id="path3902"
           d="m103.1 26.998s-0.25105 0.20389-0.25781 0.20949c-2.2199-0.04859-8.0462 2.1053-23.243 15.201-0.0172-0.01668-0.13818-0.11878-0.13818-0.11878l-0.59831 0.53165c0.08481 0.07708 0.16193 0.15479 0.24557 0.23228-10.186 8.3603-21.075 18.131-21.944 18.911-0.000799-0.0012-0.02549-0.03603-0.02548-0.03607l-0.0202-0.06687-0.0413 0.05634c-0.000764-0.0014-0.02548-0.03607-0.02548-0.03607l-0.78924 0.72089c0.0081 0.01173 0.01734 0.02434 0.02548 0.03607l-0.03602 0.02554 0.02548 0.03607c0.000042 0.000058 0.04775 0.06716 0.05106 0.07216-9.3181 9.4955-15.122 16.652-14.884 17.489 0.31962 1.1263 18.764-11.737 19.526-12.382 0.03176 0.02607 0.19441 0.16002 0.19452 0.16013l0.03076 0.0053 0.86667-0.80274-0.02548-0.03607c-0.000153-0.00011-0.07489-0.07217-0.08181-0.07742 1.8428-1.4121 11.909-9.174 22.46-18.221 0.17083 0.22573 0.33186 0.46899 0.33186 0.46899l0.59831-0.53164c-0.02268-0.03404-0.05293-0.07361-0.07653-0.10822 0.7902-0.61736 17.456-13.665 19.33-19.01 0.21345-0.15748 0.30053-0.23332 0.51035-0.38819 0 0-0.0316-1.8278-2.0086-2.3414z"
           style="opacity:.25;fill:url(#linearGradient3942)" />
        <g
           id="g3861"
           transform="matrix(.89438 0 0 .89438 130.82 -82.591)">
          <g
             id="g4820"
             transform="matrix(.21052 0 0 .21052 -139.34 79.703)">
            <path
               id="path4824"
               d="m279.48 404.24c-0.007-0.004-7.446-4.112-16.804-11.401-8.082-6.285-13.538-12.214-13.544-12.22l-0.122-0.133 3.646-4.669 0.157-0.205 0.169 0.197c0.017 0.01 5.4 6.295 13.725 12.78 7.913 6.157 16.594 10.586 16.612 10.595l0.229 0.117-3.911 5.026-0.157-0.087zm-16.542-11.737c8.545 6.656 15.469 10.644 16.589 11.275l3.372-4.334c-1.423-0.743-9.253-4.919-16.453-10.521-7.504-5.845-12.637-11.533-13.614-12.645l-3.264 4.184c0.849 0.905 6.01 6.32 13.37 12.041z"
               style="fill:#4d4d4d" />
          </g>
          <path
             id="path3254"
             d="m-80.52 164.42s11.205-12.022 22.174-25.259l0.47909 0.14793s22.747-24.929 17.183-26.947-2.782-5.5094-24.601 21.001l-0.04196 0.39783c-10.067 11.61-21.253 25.766-21.253 25.766-8.64 12.42-13.77 21.6-13.346 22.487 0.57673 1.2059 19.44-17.473 19.407-17.594z"
             style="stroke:#000030;stroke-width:.55905;fill:url(#radialGradient3890);fill-rule:evenodd" />
          <path
             id="path2430"
             d="m-86.948 159.76c2.4493 2.5072 6.4415 5.0529 6.4415 5.0529l0.79072-1.0029c-2.709-1.4158-6.48-5.0143-6.48-5.0143l-0.75215 0.96428z"
             style="fill:url(#radialGradient3892);fill-rule:evenodd" />
          <path
             id="path3236"
             d="m-65.762 133.69c4.32 2.7579 7.7143 6.0943 7.7143 6.0943l0.57857-0.675c-2.304-2.4379-7.7233-6.1263-7.7233-6.1263l-0.56961 0.70696z"
             style="fill:url(#radialGradient3894);fill-rule:evenodd" />
          <path
             id="path3240"
             d="m-42.031 111.66c2.2757 0.19285 2.6614 2.1986 2.6614 2.1986-10.376 10.8-25.573 26.499-25.573 26.499l-0.77143-0.65572c13.384-16.046 23.683-28.042 23.683-28.042"
             style="fill:url(#radialGradient3896);fill-rule:evenodd" />
        </g>
        <path
           id="path3944"
           d="m118.64 54.503s-0.30959 0.09354-0.31797 0.09616c-2.0359-0.8863-8.2438-1.1012-27.27 5.2585-0.0096-0.02195-0.08286-0.16229-0.08286-0.16229l-0.755 0.266c0.04927 0.10347 0.09119 0.20462 0.13922 0.30802-12.595 3.8761-26.374 8.7909-27.474 9.1839-0.000272-0.0014-0.0099-0.043-0.0099-0.04304l0.0067-0.06954-0.05957 0.03648c-0.000162-0.0016-0.0099-0.04303-0.0099-0.04303l-1.0036 0.36799c0.0031 0.01393 0.0069 0.02909 0.0099 0.04304l-0.04302 0.01002 0.0099 0.04303c0.000016 0.00007 0.01874 0.08025 0.01991 0.08613-12.222 5.2557-20.304 9.6783-20.402 10.543-0.13108 1.1634 21.812-3.7498 22.762-4.0581 0.0195 0.03615 0.11926 0.22176 0.11932 0.2219l0.02646 0.01655 1.1062-0.4144-0.0099-0.04304c-0.000099-0.000161-0.04196-0.09517-0.04636-0.10264 2.2405-0.60838 14.498-3.976 27.69-8.3492 0.07254 0.27363 0.12936 0.55977 0.12936 0.55977l0.75517-0.26523c-0.0081-0.04009-0.02109-0.08818-0.0298-0.12915 0.96523-0.27182 21.332-6.0301 25.092-10.266 0.25721-0.06483 0.36653-0.10202 0.6194-0.16581 0 0 0.66347-1.7034-0.97145-2.928z"
           style="opacity:.4;fill:url(#linearGradient3946)" />
      </g>
    </g>
    <rect
       id="rect3003"
       style="opacity:.15;fill:#fff"
       transform="translate(98 3.8281e-7)"
       clip-path="url(#clipPath3009)"
       rx="25"
       ry="25"
       height="92"
       width="92"
       y="958.36"
       x="-96" />
  </g>
</svg>
