<svg height="96" width="96" xmlns="http://www.w3.org/2000/svg" xmlns:sodipodi="http://sodipodi.sourceforge.net/DTD/sodipodi-0.dtd" xmlns:inkscape="http://www.inkscape.org/namespaces/inkscape">
 <rect x="8" rx="10.769" y="8" fill="#509824" fill-opacity="1" stroke="none" height="80" width="80"/>
 <path d="m 30.595,984.18 -7.117,11.533 h 14.261 l -7.143,-11.53 z m 1.7923,0 7.1174,11.533 7.1174,-11.533 h -14.233 z m 16.027,0 -7.1174,11.533 h 14.235 l -7.116,-11.53 z m 1.7923,0 7.1174,11.533 7.1174,-11.533 h -14.233 z m 16.027,0 -7.1434,11.533 h 14.261 l -7.117,-11.53 z m -42.756,13.3 23.56,30.32 -8.416,-30.32 h -15.144 z m 16.911,0 8.0265,30.288 8.0265,-30.288 h -16.052 z m 17.82,0 -8.4162,30.288 23.561,-30.288 h -15.145 z" fill="#e6e6e6" inkscape:connector-curvature="0" transform="matrix(1.0827 0 0 1.0827 -4.419 -1041.19)"/>
</svg>
