<svg height="96" width="96" xmlns="http://www.w3.org/2000/svg" xmlns:xlink="http://www.w3.org/1999/xlink" xmlns:sodipodi="http://sodipodi.sourceforge.net/DTD/sodipodi-0.dtd" xmlns:inkscape="http://www.inkscape.org/namespaces/inkscape">
 <defs>
  <linearGradient x2="0" y1="962.62" y2="1046.1" gradientUnits="userSpaceOnUse" id="linearGradient11642" inkscape:collect="always" gradientTransform="matrix(1.15 0 0 1.15 -7.2 -150.65)">
   <stop stop-color="#95c2e6"/>
   <stop stop-color="#d9ecfd" offset="1"/>
  </linearGradient>
  <linearGradient x1="23.298" x2="48.16" y1="46.91" y2="48.89" gradientUnits="userSpaceOnUse" id="linearGradient6146" gradientTransform="matrix(1.0146 0 0 1.0146 100.33 953.48)">
   <stop stop-color="#59af3f"/>
   <stop stop-color="#7dd06e" offset="0.281"/>
   <stop stop-color="#95db83" offset="0.43"/>
   <stop stop-color="#73b661" offset="0.603"/>
   <stop stop-color="#2f7829" offset="1"/>
  </linearGradient>
  <linearGradient x1="45.08" x2="29.773" y1="55.11" y2="34.607" gradientUnits="userSpaceOnUse" id="linearGradient6148" gradientTransform="matrix(1.0146 0 0 1.0146 100.33 953.48)">
   <stop stop-color="#2b6128"/>
   <stop stop-color="#59a24c" offset="1"/>
  </linearGradient>
  <radialGradient cy="57.701" r="13.273" gradientUnits="userSpaceOnUse" id="radialGradient6150" cx="44.895" gradientTransform="matrix(0.61597 0 0 0.91848 119.34 958)">
   <stop stop-color="#2b6028"/>
   <stop stop-color="#2b6028" stop-opacity="0" offset="1"/>
  </radialGradient>
  <radialGradient cy="26.462" r="7.212" gradientUnits="userSpaceOnUse" id="radialGradient6152" cx="35.38" gradientTransform="matrix(1.2137 0 0 1.2342 93.4 947.7)">
   <stop stop-color="#c7fbb5"/>
   <stop stop-color="#7dd067" offset="0.4"/>
   <stop stop-color="#387633" offset="1"/>
  </radialGradient>
  <linearGradient x1="42.44" x2="31.99" xlink:href="#radialGradient6150" y1="33.535" y2="23.09" gradientUnits="userSpaceOnUse" id="linearGradient6154" gradientTransform="matrix(1.0146 0 0 1.0146 100.33 953.48)"/>
  <linearGradient x1="72.56" x2="98.41" y1="47.44" y2="49.747" gradientUnits="userSpaceOnUse" id="linearGradient6156" gradientTransform="matrix(1.0146 0 0 1.0146 69.887 953.48)">
   <stop stop-color="#5aa6c8"/>
   <stop stop-color="#8bcae9" offset="0.211"/>
   <stop stop-color="#8ad2eb" offset="0.4"/>
   <stop stop-color="#4e91bb" offset="0.64"/>
   <stop stop-color="#27649a" offset="1"/>
  </linearGradient>
  <linearGradient x1="69.54" x2="42.846" y1="53.947" y2="37.499" gradientUnits="userSpaceOnUse" id="linearGradient6158" gradientTransform="matrix(1.0146 0 0 1.0146 100.33 953.48)">
   <stop stop-color="#1c508a"/>
   <stop stop-color="#438dc6" offset="1"/>
  </linearGradient>
  <linearGradient x1="55.48" x2="54.17" y1="59.936" y2="39.576" gradientUnits="userSpaceOnUse" id="linearGradient6160" gradientTransform="matrix(1.0146 0 0 1.0146 100.33 953.48)">
   <stop stop-color="#1a4a7f"/>
   <stop stop-color="#1a4a7f" stop-opacity="0" offset="1"/>
  </linearGradient>
  <radialGradient cy="24.502" r="9.528" gradientUnits="userSpaceOnUse" id="radialGradient6162" cx="51.742" gradientTransform="matrix(1.198 0 0 1.1868 -10.245 -4.577)">
   <stop stop-color="#d8effd"/>
   <stop stop-color="#80bee7" offset="0.4"/>
   <stop stop-color="#276296" offset="1"/>
  </radialGradient>
  <linearGradient x1="70.929" x2="57.42" y1="33.647" y2="20.14" gradientUnits="userSpaceOnUse" id="linearGradient6164">
   <stop stop-color="#1f669e"/>
   <stop stop-color="#1f669e" stop-opacity="0" offset="1"/>
  </linearGradient>
  <linearGradient x1="71.873" x2="58.63" y1="32.917" y2="20.28" gradientUnits="userSpaceOnUse" id="linearGradient6166">
   <stop stop-color="#1b528b"/>
   <stop stop-color="#267bc4" stop-opacity="0.225" offset="1"/>
  </linearGradient>
  <linearGradient x1="19.02" x2="76.79" gradientUnits="userSpaceOnUse" id="linearGradient6168" gradientTransform="matrix(1.0146 0 0 1.0146 100.33 953.48)">
   <stop stop-color="#f9a842"/>
   <stop stop-color="#f9be42" offset="1"/>
  </linearGradient>
  <filter color-interpolation-filters="sRGB" id="filter4920">
   <feGaussianBlur stdDeviation="0.45643"/>
  </filter>
  <clipPath clipPathUnits="userSpaceOnUse" id="clipPath3009">
   <path d="m -2,956.36218 -96,0 0,33.5624 96,25.68742 0,-59.24982 z" inkscape:connector-curvature="0"/>
  </clipPath>
  <path d="m 127.9,1008.1 c 0,0 -2.7496,0.7174 -3.3234,-0.4304 -1.2913,-15.352 10.044,-18.652 10.044,-18.652 l 6.6001,0.28696 c 3.7305,-0.14349 10.188,7.0306 10.188,7.0306 l -6.1697,15.78304 c 0,0 -11.051,3.1515 -16.931,-0.4304 -1.2445,-3.0182 1.2913,-13.77404 1.2913,-13.77404" id="SVGCleanerId_0"/>
 </defs>
 <g inkscape:label="Layer 1" inkscape:groupmode="layer" transform="matrix(1 0 0 1 0 -956.36)">
  <rect x="2" rx="25" y="958.36" fill="url(#linearGradient11642)" fill-opacity="1" height="92" width="92"/>
  <g transform="matrix(1.10696 0 0 1.10696 -116.79 -97.31)">
   <path d="m 177.8,989.61 c -4.0704,6.309 -10.044,8.4653 -10.044,8.4653 l 0.86088,2.0087 c 0,0 8.9792,-5.0808 9.1827,-10.474 z" fill="#f9ac42" inkscape:connector-curvature="0"/>
   <path d="m 174.84,994.16 c -2.7698,2.6192 -5.2704,3.8327 -6.2461,4.2486 l 0.31706,0.7609 c 0.66899,-0.4016 2.0986,-1.2741 3.8364,-2.7585 0.7724,-0.6597 1.4216,-1.4691 2.0926,-2.2511 z" fill="#fcd298" inkscape:connector-curvature="0"/>
   <use stroke-width="1" xlink:href="#SVGCleanerId_0" fill="url(#linearGradient6146)" stroke="url(#linearGradient6148)" inkscape:connector-curvature="0"/>
   <use xlink:href="#SVGCleanerId_0" fill="url(#radialGradient6150)" inkscape:connector-curvature="0"/>
   <path d="m 145.23,982.37 a 7.4617,7.4617 0 1 1 -4e-5,-0.0238" fill="url(#radialGradient6152)" color="#000000" inkscape:connector-curvature="0"/>
   <path d="m 137.77,974.91 c -4.1211,0 -7.451,3.3299 -7.451,7.451 0,4.1211 3.3299,7.4827 7.451,7.4827 4.1211,0 7.451,-3.3616 7.451,-7.4827 v -0.0317 c -0.0132,-4.1122 -3.339,-7.4198 -7.4512,-7.4198 z m 0.0317,0.91949 c 3.6006,0 6.4883,2.8956 6.4997,6.4997 v 0.0317 c 0,3.6125 -2.8922,6.5315 -6.4997,6.5315 -3.6075,0 -6.5315,-2.924 -6.5315,-6.5315 0,-3.6075 2.924,-6.5315 6.5315,-6.5315 z" fill="url(#linearGradient6154)" color="#000000" inkscape:connector-curvature="0"/>
   <path d="m 134.63,989.05 c 0,0 -0.48614,0.16291 -1.1098,0.44388 1.2088,0.84341 2.6629,1.3634 4.2486,1.3634 1.6289,0 3.1484,-0.54093 4.3755,-1.4267 -0.32113,-0.0715 -0.62739,-0.10635 -0.91949,-0.0951 l -6.5949,-0.28535 z" fill="#2b6128" color="#000000" opacity="0.4" inkscape:connector-curvature="0"/>
   <path d="m 157.21,988.99 c -0.48779,-0.0207 -0.9972,0.003 -1.5219,0.0317 -13.839,-0.71225 -12.111,21.466 -12.111,21.466 0,0.7123 1.2366,0.6975 1.2366,0.6975 l 0.19023,-0.1585 c -0.0171,1.9955 0.147,3.8272 0.60242,5.1682 3.8668,4.8844 21.076,2.6375 21.687,0.6024 0.37855,-0.9464 0.13023,-2.0352 0.0951,-2.1877 1.1238,-0.034 2.227,-0.3295 2.6317,-1.3634 0,0 2.3123,-23.614 -12.809,-24.255 z" fill="url(#linearGradient6156)" inkscape:connector-curvature="0"/>
   <path d="m 144.79,1011.2 c 0,0 -1.2211,0 -1.2211,-0.7123 0,-0.7123 -1.7299,-22.183 12.109,-21.471 16.79,-0.91619 14.347,24.218 14.347,24.218 -0.91618,2.3407 -5.4951,1.0177 -5.4951,1.0177 -0.20394,-10.99 -3.4598,-16.587 -3.4598,-16.587" stroke-width="1" fill="none" stroke="url(#linearGradient6158)" inkscape:connector-curvature="0"/>
   <path d="m 146.73,997.46 c 0,0 -2.9511,13.331 -1.1193,18.723 3.8668,4.8845 21.064,2.6458 21.675,0.6106 0.40703,-1.0175 0.10176,-2.2387 0.10176,-2.2387" stroke-width="1" fill="none" stroke="url(#linearGradient6160)" inkscape:connector-curvature="0"/>
   <path d="m 157.21,988.99 c -0.48779,-0.0207 -0.9972,0.003 -1.5219,0.0317 -1.772,-0.0912 -3.2995,0.1962 -4.5974,0.76095 1.4017,0.8534 3.0266,1.3634 4.7877,1.3634 1.8269,0 3.543,-0.5453 4.9778,-1.4585 -1.0876,-0.39164 -2.294,-0.64021 -3.6465,-0.69805 z" fill="#1a4a7f" color="#000000" opacity="0.4" inkscape:connector-curvature="0"/>
   <g transform="matrix(1.0146 0 0 1.0146 90.18 953.48)">
    <path d="m 63.888,26.596 a 9.528,9.528 0 1 1 -4.9e-5,-0.0304" fill="url(#radialGradient6162)" color="#000000" inkscape:connector-curvature="0" transform="matrix(0.95789 0 0 0.95789 12.69 1.521)"/>
    <path d="m 64.781,17.875 c -5.0406,0 -9.125,4.0844 -9.125,9.125 0,5.0406 4.0844,9.125 9.125,9.125 5.0406,0 9.0938,-4.0844 9.0938,-9.125 v -0.03125 c -0.016,-5.029 -4.065,-9.094 -9.094,-9.094 z m 0,1.9062 c 3.9992,0 7.1747,3.1809 7.1875,7.1875 v 0.03125 c 0,4.0158 -3.1792,7.2188 -7.1875,7.2188 -4.0083,0 -7.2188,-3.2105 -7.2188,-7.2188 0,-4.0083 3.2105,-7.2188 7.2188,-7.2188 z" fill="url(#linearGradient6164)" color="#000000" opacity="0.2" inkscape:connector-curvature="0"/>
    <path d="m 64.75,17.875 c -5.0406,0 -9.125,4.0844 -9.125,9.125 0,5.0406 4.0844,9.125 9.125,9.125 5.0406,0 9.125,-4.0844 9.125,-9.125 v -0.03125 c -0.016,-5.029 -4.096,-9.094 -9.125,-9.094 z m 0.03125,0.96875 c 4.489,0 8.0794,3.6322 8.0938,8.125 v 0.031 c 0,4.5031 -3.5946,8.125 -8.0938,8.125 -4.4991,0 -8.1562,-3.6259 -8.1562,-8.125 0,-4.4991 3.6571,-8.1562 8.1562,-8.1562 z" fill="url(#linearGradient6166)" color="#000000" inkscape:connector-curvature="0"/>
   </g>
   <path d="m 125,1007.7 c 0,0 -5.5374,0.3549 -5.3801,-6.3793 0.1078,-4.6151 3.0181,-7.5692 13.49,-7.3226 10.598,0.24948 16.469,11.381 45.12,15.711 -30.166,0.5053 -32.529,-12.636 -46.63,-13.344 -7.8358,-0.39671 -9.9147,1.6599 -10.618,4.5911 -0.70307,2.9318 2.1402,5.3105 4.161,5.0218 l -0.14348,1.7218 z" fill="url(#linearGradient6168)" inkscape:connector-curvature="0"/>
   <path d="m 32.281,40.656 c -5.0903,-0.11984 -8.2522,0.58195 -10.062,1.7188 -1.3011,0.81705 -1.8275,1.949 -2.125,3.25 0.47046,-1.1717 1.1677,-2.2852 2.5312,-3 1.7544,-0.9197 4.3211,-1.2928 8.25,-1.0938 7.1747,0.36019 11.381,3.8661 17.344,7.0938 4.5194,2.4462 10.134,4.7691 19,5.6562 -8.8178,-2.1505 -14.914,-4.9587 -19.688,-7.4688 -6.3178,-3.3219 -10.281,-6.0393 -15.25,-6.1562 z M 20,49.469 c 0.38217,1.4706 1.1746,2.2485 1.9688,2.6875 0.6648,0.36754 1.2433,0.45567 1.6875,0.5 l 0.03125,-0.3125 c -1.0299,-0.12504 -2.0358,-0.54823 -2.8125,-1.375 -0.38704,-0.41196 -0.63782,-0.95564 -0.875,-1.5 z" fill="#fde3c0" filter="url(#filter4920)" inkscape:connector-curvature="0" transform="matrix(1.0146 0 0 1.0146 100.33 953.48)"/>
  </g>
  <rect x="-96" rx="25" y="958.36" clip-path="url(#clipPath3009)" fill="#ffffff" fill-opacity="1" height="92" opacity="0.15" width="92" transform="matrix(1 0 0 1 98 0)"/>
 </g>
</svg>
