<svg height="96" width="96" xmlns="http://www.w3.org/2000/svg" xmlns:sodipodi="http://sodipodi.sourceforge.net/DTD/sodipodi-0.dtd" xmlns:inkscape="http://www.inkscape.org/namespaces/inkscape">
 <g inkscape:label="Layer 1" inkscape:groupmode="layer" transform="matrix(1 0 0 1 0 -956.36)">
  <rect x="8" rx="10.769" y="964.36" fill="#e6e6e6" fill-opacity="1" stroke="none" height="80" width="80"/>
  <g transform="matrix(1 0 0 1 -127.29 -11.442)">
   <path d="m 175.29111,1045.8042 a 30.000085,30.000085 0 1 1 0,-60.00017 30.000085,30.000085 0 0 1 0,60.00017 z" fill="#2f78cf" color="black" fill-opacity="1" inkscape:connector-curvature="0"/>
   <rect x="163.29" y="1003.8" fill="white" color="black" height="9" width="4.5"/>
   <path d="m 156.21338,1016.8842 c 3.972,7.44 9.102,12.42 19.0785,12.42 9.9768,0 15.1065,-4.9793 19.0785,-12.4218 -4.887,4.89 -11.622,7.92 -19.0785,7.92 -7.4559,0 -14.1921,-3.0358 -19.0785,-7.9218 z" fill="white" color="black" inkscape:connector-curvature="0"/>
   <rect x="182.79" y="1003.8" fill="white" color="black" height="9" width="4.5"/>
  </g>
 </g>
</svg>
