<?xml version="1.0" encoding="UTF-8" standalone="no"?>
<!-- Created with Inkscape (http://www.inkscape.org/) -->

<svg
   xmlns:dc="http://purl.org/dc/elements/1.1/"
   xmlns:cc="http://creativecommons.org/ns#"
   xmlns:rdf="http://www.w3.org/1999/02/22-rdf-syntax-ns#"
   xmlns:svg="http://www.w3.org/2000/svg"
   xmlns="http://www.w3.org/2000/svg"
   xmlns:xlink="http://www.w3.org/1999/xlink"
   xmlns:sodipodi="http://sodipodi.sourceforge.net/DTD/sodipodi-0.dtd"
   xmlns:inkscape="http://www.inkscape.org/namespaces/inkscape"
   id="svg11037"
   height="96"
   width="96"
   version="1.1"
   inkscape:version="0.48.5 r10040"
   sodipodi:docname="ristretto.svg">
  <sodipodi:namedview
     pagecolor="#ffffff"
     bordercolor="#666666"
     borderopacity="1"
     objecttolerance="10"
     gridtolerance="10"
     guidetolerance="10"
     inkscape:pageopacity="0"
     inkscape:pageshadow="2"
     inkscape:window-width="640"
     inkscape:window-height="480"
     id="namedview4748" />
  <defs
     id="defs11039">
    <linearGradient
       id="linearGradient11642"
       y2="1046.1"
       gradientUnits="userSpaceOnUse"
       y1="962.62"
       gradientTransform="matrix(1.15 0 0 1.15 -7.1999 -150.65)"
       x2="48"
       x1="48">
      <stop
         id="stop2843"
         style="stop-color:#d89a6d"
         offset="0" />
      <stop
         id="stop2845"
         style="stop-color:#fed4be"
         offset="1" />
    </linearGradient>
    <radialGradient
       id="radialGradient6674"
       gradientUnits="userSpaceOnUse"
       cy="29.056"
       cx="48.337"
       gradientTransform="matrix(1 0 0 .65212 111.28 965.19)"
       r="34.809">
      <stop
         id="stop6183"
         style="stop-color:#fff"
         offset="0" />
      <stop
         id="stop6189"
         style="stop-color:#fff;stop-opacity:.70968"
         offset=".5" />
      <stop
         id="stop6185"
         style="stop-color:#fff;stop-opacity:0"
         offset="1" />
    </radialGradient>
    <radialGradient
       id="radialGradient6671"
       xlink:href="#linearGradient3767"
       gradientUnits="userSpaceOnUse"
       cy="59.262"
       cx="48.675"
       gradientTransform="matrix(1.2064 -.013315 .005614 .50865 100.9 980.22)"
       r="26.823" />
    <linearGradient
       id="linearGradient3767">
      <stop
         id="stop3769-7"
         style="stop-color:#352822"
         offset="0" />
      <stop
         id="stop3771"
         style="stop-color:#352822;stop-opacity:0"
         offset="1" />
    </linearGradient>
    <linearGradient
       id="linearGradient6667"
       x1="47.349"
       xlink:href="#linearGradient3767"
       gradientUnits="userSpaceOnUse"
       y1="36.894"
       gradientTransform="translate(111.28,950.8)"
       x2="6.9577"
       y2="27.073" />
    <radialGradient
       id="radialGradient6663"
       gradientUnits="userSpaceOnUse"
       cy="37.319"
       cx="47.12"
       gradientTransform="matrix(1 .67852 -.26279 .3873 121.08 948.8)"
       r="29.695">
      <stop
         id="stop3688-8"
         style="stop-color:#5b4f4f"
         offset="0" />
      <stop
         id="stop3698-3"
         style="stop-color:#5b4f4f;stop-opacity:.6129"
         offset=".5" />
      <stop
         id="stop3690-1"
         style="stop-color:#5b4f4f;stop-opacity:0"
         offset="1" />
    </radialGradient>
    <radialGradient
       id="radialGradient6659"
       gradientUnits="userSpaceOnUse"
       cy="56.289"
       cx="51.766"
       gradientTransform="matrix(.93346 0 0 .92868 114.72 954.88)"
       r="10.734">
      <stop
         id="stop3777-8"
         style="stop-color:#b7dde5"
         offset="0" />
      <stop
         id="stop3783-9"
         style="stop-color:#357099"
         offset=".89" />
      <stop
         id="stop3779-6"
         style="stop-color:#2e4d6a"
         offset="1" />
    </radialGradient>
    <radialGradient
       id="radialGradient6656"
       gradientUnits="userSpaceOnUse"
       cy="77.765"
       cx="50.771"
       gradientTransform="matrix(1.797 .4815 -.22361 .83453 88.201 929.53)"
       r="22.413">
      <stop
         id="stop6171"
         style="stop-color:#fff;stop-opacity:0"
         offset="0" />
      <stop
         id="stop6177"
         style="stop-color:#fff;stop-opacity:.49804"
         offset=".5" />
      <stop
         id="stop6173"
         offset="1" />
    </radialGradient>
    <clipPath
       id="clipPath6135">
      <path
         id="path6137"
         d="m46.25 77.281c-3.1147 1.8786-5.2188 5.2849-5.2188 9.1875 0 5.9276 4.8224 10.75 10.75 10.75s10.719-4.8224 10.719-10.75c0-1.2418-0.2058-2.4218-0.59375-3.5312-4.878-2.435-10.35-4.343-15.656-5.657z"
         style="fill:#f00" />
    </clipPath>
    <radialGradient
       id="radialGradient6650"
       gradientUnits="userSpaceOnUse"
       cy="56.478"
       cx="51.77"
       gradientTransform="matrix(.43529 0 0 .43529 140.51 982.69)"
       r="10.733">
      <stop
         id="stop6141"
         offset="0" />
      <stop
         id="stop6147"
         style="stop-opacity:.90323"
         offset=".86" />
      <stop
         id="stop6143"
         style="stop-opacity:.08871"
         offset="1" />
    </radialGradient>
    <radialGradient
       id="radialGradient6647"
       gradientUnits="userSpaceOnUse"
       cy="28.844"
       cx="47.035"
       gradientTransform="matrix(1 .30246 -.12745 .42139 114.95 964.84)"
       r="30.11">
      <stop
         id="stop3705"
         offset="0" />
      <stop
         id="stop3711"
         style="stop-opacity:.70161"
         offset=".5" />
      <stop
         id="stop3707"
         style="stop-opacity:0"
         offset="1" />
    </radialGradient>
    <filter
       id="filter3756"
       color-interpolation-filters="sRGB">
      <feGaussianBlur
         id="feGaussianBlur3758"
         stdDeviation="0.63548831" />
    </filter>
    <linearGradient
       id="linearGradient6643"
       x1="70.598"
       gradientUnits="userSpaceOnUse"
       y1="64.777"
       gradientTransform="translate(111.28,950.8)"
       x2="73.643"
       y2="66.384">
      <stop
         id="stop3724-4"
         style="stop-color:#eaac96"
         offset="0" />
      <stop
         id="stop3726-3"
         style="stop-color:#db6f49"
         offset="1" />
    </linearGradient>
    <linearGradient
       id="linearGradient6639"
       x1="39.121"
       gradientUnits="userSpaceOnUse"
       y1="62.96"
       gradientTransform="translate(111.28,950.8)"
       x2="69.125"
       y2="69.617">
      <stop
         id="stop3733"
         style="stop-color:#d35f5f"
         offset="0" />
      <stop
         id="stop3735"
         style="stop-color:#d35f5f;stop-opacity:0"
         offset="1" />
    </linearGradient>
    <radialGradient
       id="radialGradient6629"
       xlink:href="#linearGradient3739"
       gradientUnits="userSpaceOnUse"
       cy="56.478"
       cx="51.77"
       gradientTransform="matrix(.43529 0 0 .43529 133.51 980.69)"
       r="10.733" />
    <linearGradient
       id="linearGradient3739">
      <stop
         id="stop3742-3"
         style="stop-color:#fff"
         offset="0" />
      <stop
         id="stop3744-8"
         style="stop-color:#fff;stop-opacity:0"
         offset="1" />
    </linearGradient>
    <radialGradient
       id="radialGradient6626"
       xlink:href="#linearGradient3739"
       gradientUnits="userSpaceOnUse"
       cy="56.478"
       cx="51.77"
       gradientTransform="matrix(.6 0 0 .6 142.21 978.74)"
       r="10.733" />
    <linearGradient
       id="linearGradient3184"
       y2="69.617"
       xlink:href="#linearGradient6639"
       gradientUnits="userSpaceOnUse"
       y1="62.96"
       gradientTransform="translate(111.28,950.8)"
       x2="69.125"
       x1="39.121" />
    <clipPath
       id="clipPath3009"
       clipPathUnits="userSpaceOnUse">
      <path
         id="path3011"
         style="opacity:.15;fill:#fff"
         d="m-2 956.36h-96v33.562l96 25.687v-59.25z" />
    </clipPath>
  </defs>
  <metadata
     id="metadata11042">
    <rdf:RDF>
      <cc:Work
         rdf:about="">
        <dc:format>image/svg+xml</dc:format>
        <dc:type
           rdf:resource="http://purl.org/dc/dcmitype/StillImage" />
        <dc:title />
      </cc:Work>
    </rdf:RDF>
  </metadata>
  <g
     id="layer1"
     transform="translate(0 -956.36)">
    <rect
       id="rect3867"
       style="fill:url(#linearGradient11642)"
       rx="25"
       ry="25"
       height="92"
       width="92"
       y="958.36"
       x="2" />
    <g
       id="g6677"
       transform="matrix(.78731 0 0 .78731 -75.962 220.21)">
      <path
         id="path3649-3"
         d="m187.92 1013.1c-5.05-12.248-22.605-23.252-42.047-25.38-9.264-1.014-17.173 4.167-17.173 4.167-13.214-15.536-2.425-19.537-2.425-19.537s5.7143-2.8571 8.9286-2.8571c33.75 12.679 56.429 35.714 56.429 35.714s1.1096 14.679-3.7118 7.8933z"
         style="opacity:.4;fill:url(#radialGradient6674)" />
      <path
         id="path6149"
         d="m184.67 1017.9s-38.571 12.679-45-21.786c-8.929-2.142-7.322 5.715-7.322 5.715s7.6786 29.464 52.679 18.929 2.1429-1.6071-0.35714-2.8571z"
         style="opacity:.6;fill:url(#radialGradient6671)" />
      <path
         id="path3634"
         d="m125.29 972.7c-0.48752-1.1417 6.2073-3.9582 9.5964-3.9143 7.4467 0.0947 19.135 7.9778 28.537 12.879 9.98 5.2029 29.297 13.666 28.537 24.749-2.381 1.974-14.03-12.045-28.284-20.329-9.901-5.754-17.748-11.624-27.906-15.152-3.346-1.163-10.022 2.839-10.48 1.767z"
         style="fill:url(#linearGradient6667)" />
      <path
         id="path3636"
         d="m139.81 996.04c3.0305 12.501 9.0442 21.991 23.786 23.376 10.325 0.9698 20.093-1.0891 21.04-2.2886 0 0-0.63134-6.3135-6.3135-10.607-27.906-14.268-38.512-10.48-38.512-10.48z"
         style="fill:#fff" />
      <path
         id="path3676"
         d="m139.67 994.12-10.968-2.248s7.9088-5.1807 17.173-4.1669c19.442 2.1276 36.997 13.132 42.048 25.38 0 0 1.0332 2.1067-2.0025 2.2853-2.5-7.6786-13.393-18.571-46.25-21.25z"
         style="fill:url(#radialGradient6663)" />
      <path
         id="path3643"
         d="m133.37 993.26c5.0714-0.87575 7.8707-1.1012 11.743-0.50508 12.304 1.8942 25.029 5.4384 35.103 12.753 3.1403 2.2803 7.8061 9.6043 5.6821 11.238-1.8 1.384-0.416-5.334-7.197-9.849-11.85-7.89-30.793-11.963-40.028-10.67-1.577-2.378-3.14-2.313-5.303-2.967z" />
      <path
         id="path3651"
         d="m157.53 998.08c-3.1147 1.8786-5.2188 5.2849-5.2188 9.1875 0 5.9276 4.8224 10.75 10.75 10.75s10.719-4.8224 10.719-10.75c0-1.2418-0.2058-2.4218-0.59375-3.5312-4.878-2.435-10.35-4.343-15.656-5.657z"
         style="fill:url(#radialGradient6659)" />
      <path
         id="path6167"
         d="m139.81 996.04c3.0305 12.501 9.0442 21.991 23.786 23.376 10.325 0.9698 20.093-1.0891 21.04-2.2886 0 0-0.63134-6.3135-6.3135-10.607-27.906-14.268-38.512-10.48-38.512-10.48z"
         style="opacity:.3;fill:url(#radialGradient6656)" />
      <g
         id="g6131"
         clip-path="url(#clipPath6135)"
         transform="translate(111.28,920.8)">
        <path
           id="path3785"
           d="m55.967 96.892c-0.09433-1.073-0.3328-1.974-0.83521-3.1581-1.1879-2.1193-2.1854-4.1385-3.1288-6.5376 0.2721-1.1732 0.4682 0.76601 0.22699 1.3612 0.23617 2.6676-0.1612 6.0393 0.24617 8.6749 0.60986 1.1868 0.80799-0.66758 0.52461-1.1857-0.31007-3.1704-0.69267-6.0503-0.99449-9.0094 0.42428-1.3871-0.02452 1.2254-0.36308 1.4171-0.60094 2.5895-1.7385 5.608-2.0865 8.4837 0.05497 0.9855 0.42739-0.68846 0.37178-1.2899 0.78654-2.8482 1.1497-6.1515 1.7338-9 0.67771-1.1576-0.08018 1.159-0.41729 1.6447-1.5453 2.2345-3.4634 5.1764-4.7717 7.5047-0.46105 1.184 0.94947-0.22227 1.0586-0.81746 1.2659-2.7414 2.3027-5.5209 3.7548-8.2261 1.2669-0.71698-0.43005 1.3245-0.64739 1.4732-2.0405 1.6895-4.6878 3.3195-6.5647 5.4977-0.48286 0.85875 1.1035-0.20798 1.2899-0.7513 2.0732-2.26 4.0812-4.2537 6.1565-6.2102 1.0386-0.35628-0.75713 1.0954-1.3473 0.99238-2.4391 1.0328-5.4463 1.5395-7.7946 2.9861-0.68017 0.74456 0.91167-0.09587 1.2069-0.16414 2.8699-1.3543 5.0498-3.3059 7.6921-4.3275 1.183 0.17952-1.0519 0.82782-1.2941 0.69236-2.909 0.1533-5.9441 0.47763-8.8901 0.87953-0.94193 0.66418 1.1565 0.51447 1.6312 0.17477 3.1487-0.57425 5.5865-1.3678 8.7468-1.6221 1.1612 0.5724-1.3826 0.13362-1.5951-0.1791-2.6248-0.40022-6.0709-1.1922-8.698-1.4994-1.3311 0.30011 0.79882 0.63706 1.365 0.70322 2.8958 0.20852 5.9103 0.07303 8.6916 0.73774 1.2042 0.59108-1.0475-0.23836-1.2237-0.41483-2.7159-1.307-5.0413-3.0283-7.8102-4.0341-1.0532-0.01971 0.69292 0.81471 1.23 0.74043 2.755 1.055 5.4406 2.0862 7.9546 3.6311 0.88313 1.2014-0.74541-0.56949-1.0873-1.1126-2.0664-1.8014-4.3442-4.0689-6.3167-5.9194-0.87836-0.5666 0.21213 0.83927 0.71472 0.88155 2.0624 2.0807 4.6387 3.5117 6.94 5.7379 0.27583 1.1461-1.0151-0.21873-1.0524-0.85897-1.2317-2.3394-2.34-5.5362-3.6928-7.8408-0.93442-0.618-0.65008 1.0174-0.16782 1.2416 1.737 2.6246 3.4554 5.0553 5.0482 7.7674 0.13598 1.4803-0.87394-0.93444-0.75732-1.5709-0.34704-2.7742-0.76433-6.0458-1.3259-8.7131-0.4022-1.0833-0.39731 0.71949-0.21499 1.2749 0.5372 2.9072 2.0677 5.7364 2.4432 8.6894-0.18569 1.0885-0.52861-0.95224-0.2518-1.5394 0.31755-2.627 1.1054-5.5778 1.2097-8.222-0.08732-1.0656-0.50782 0.83098-0.32345 1.0571 0.0126 2.8869 0.1788 6.0245-0.14189 8.8074-0.6581 0.91881 0.02511-1.167 0.18351-1.36 1.2901-2.7086 2.7702-5.5045 3.6118-8.0216-0.10956-1.1542-0.86635 0.44466-0.86175 1.0458-1.1401 2.6589-1.7247 6.1297-2.8833 8.6992-0.83499 0.71283 0.63596-1.2311 0.83173-1.5219 2.0004-2.0699 3.8152-3.8503 5.5169-6.352 0.23299-1.1244-1.1634 0.3977-1.156 0.65987-1.8151 2.1774-3.2459 5.2195-5.1092 7.3141-1.0988 0.74204 0.80942-1.3676 1.0659-1.5594 2.3388-1.3327 4.6504-2.6564 7.0956-4.245 0.67337-0.74074-0.8298-0.2252-1.2266 0.23296-2.4302 1.9433-4.2018 4.0342-6.7969 5.449-1.4799 0.20251 0.88373-0.38782 1.1894-0.49912 2.8581-0.59152 5.9916-1.5969 8.5836-2.3787 0.81635-0.77737-1.2892-0.34377-1.6395 0.07773-3.0401 0.91383-5.4077 1.9452-8.3291 2.9284-1.4727-0.17089 1.5857-0.43608 1.8121-0.33099 2.8059 0.27834 5.4314 0.48668 8.4617 0.40368 1.0753-0.54311-0.84166-0.3467-1.1033-0.38924-3.113-0.1004-6.189 0.91514-8.9906 0.79633-0.97134-0.63678 0.99188-0.40839 1.5433-0.15688 2.4939 0.92188 5.1893 2.4387 7.8592 2.99 1.0438-0.13356-0.8639-0.65023-1.074-0.62168-2.7482-0.6722-5.7922-1.3183-8.7365-2.1266-0.87381-1.0673 1.453 0.24584 1.5172 0.67375 2.2399 1.8538 4.5747 3.759 7.1443 5.1377 1.017 0.513-0.64729-0.94352-1.0329-1.2729-2.6968-1.6697-5.1014-2.6768-7.5641-4.2603-0.46086-1.0264 1.1252 0.31478 1.0753 0.81124 1.564 2.4126 3.6708 4.9212 5.3389 7.0864 1.0831 0.49608-0.10599-1.0301-0.42626-1.4656-2.0221-2.1267-4.5482-4.4267-6.3052-6.632-0.47906-1.2343 1.346 1.2239 1.1486 1.6765 0.75902 2.7255 1.4207 4.9041 2.6115 7.6996 0.20564 0.25703 0.08924 0.37591 0.14688 0.46578-0.000696-0.2 0.34469-0.08298 0.38358 0.1132"
           style="opacity:.3" />
        <path
           id="path3787"
           d="m50.932 97.57c0.73427-1.8322 0.77174-3.455 0.73809-5.1076-0.05974-1.9858-0.20317-3.7065 0.20869-5.4085 0.67953 1.0481-0.95771 2.8447-1.574 4.0996-0.6493 1.5678-1.7516 2.9694-2.5859 4.7891 0.42704 0.96413 1.6468-1.8893 1.7776-2.6706 0.76119-2.2737 1.3271-4.7697 2.2272-6.5852 0.40643 1.0446-2.1245 2.6111-2.736 3.7872-1.4911 1.4302-2.7461 2.9099-3.8959 4.2005 0.32563 1.2155 1.2997-1.6741 1.7325-1.9038 1.6229-1.9668 2.874-4.5422 4.4697-6.2772-0.01228 1.2683-2.3143 1.5799-3.4947 2.5374-1.6881 0.74054-3.5563 1.9461-4.9986 3.2463 0.89976 0.88404 2.1925-1.6949 3.2605-1.9526 1.5592-1.4888 3.5675-2.2977 5.361-3.659-0.48945 0.80316-2.9694 0.35415-4.19 0.99246-1.6185 0.32415-3.7872 1.2831-5.4026 1.7182-0.26098 1.2592 2.6758-0.96301 3.3194-1.0098 1.8867-0.70321 4.0666-1.4845 6.122-2.2221-0.79362 1.0073-2.9409 0.31466-4.0603 0.31656-1.9117-0.36915-4.1016-0.08793-5.8243-0.16813-0.45703 0.79922 1.6901-0.14251 2.3008 0.08713 2.5539 0.04535 5.2013-0.35234 7.7341-0.04571-0.74487 0.6559-3.1641-0.98711-4.2856-1.2032-1.5791-0.66961-3.4005-1.3423-5.4076-1.979-0.007 0.95719 2.2969 1.0445 3.3191 1.3562 2.3612 0.55097 4.7034 0.54516 6.6124 1.3316-0.85136 0.27234-2.6582-1.4691-3.9708-2.1186-1.4146-0.99885-2.3978-2.6644-4.1699-3.6462-1.134 0.17552 1.2762 1.3711 1.5576 1.6155 1.9731 1.2963 4.4793 2.9051 6.6709 4.2942-0.94891 0.14978-2.4518-2.4878-3.1035-3.483-1.2102-1.5991-2.0397-3.2823-3.0157-4.6934-1.1326-0.12153 1.3214 2.6671 1.6571 3.1617 1.3329 1.7391 3.2552 3.1584 4.3605 4.9673-1.2125-0.26578-1.2565-2.9897-1.6883-4.0184-0.40657-1.9674-1.0462-3.8989-1.8598-5.4631-0.9676-0.49069 0.63296 1.4628 0.71073 2.1769 0.95439 2.4563 1.9734 4.5167 3.0012 6.9734-0.68643-0.59488 0.09176-2.6873-0.10341-4.186 0.03416-2.0827-0.14524-3.7888-0.46398-5.52-0.9702-0.40287-0.09565 2.0497-0.23283 2.4832 0.545 2.4776 0.86826 5.0973 1.1462 7.5561-0.83027-0.77457 0.72168-3.2959 0.76919-4.6606 0.77244-1.7253 1.203-3.3608 1.4275-5.3283-0.64648-0.62188-0.95038 1.8767-0.94362 2.3091-0.41286 2.7-0.40141 5.2775-0.90244 7.6-0.17913-1.091 1.49-2.6893 1.9738-4.0174 1.2807-1.5393 1.9376-2.9658 2.9843-4.7606-0.21874-1.0401-1.15 1.4943-1.6596 1.9396-1.2081 2.4456-2.352 4.9269-3.5598 6.9307-0.18421-1.2467 2.3088-1.8727 3.1657-3.0133 1.5528-0.98414 3.0678-2.6403 4.6327-3.9702-1.0181-0.73477-1.8802 1.6987-2.6858 2.4408-1.7117 1.6585-3.4004 3.3308-4.9233 4.8899 0.29594-1.2538 2.937-1.9374 4.0136-2.3809 1.6524-0.83701 3.5229-1.2856 5.0051-2.1072 0.40449-0.97032-1.7696 0.68189-2.1029 0.95237-2.1834 1.4352-4.572 2.6965-6.6951 3.6769 0.55463-0.72393 2.8474-0.66987 4.1346-1.1247 1.721 0.01483 3.7799-0.32138 5.5302-0.46996 0.3167-0.96997-1.3863 0.08481-2.1537 0.15256-2.6492 0.43613-5.0614 1.2916-7.4242 1.4558 0.65366-0.61703 2.6056 0.463 3.9947 0.41356 1.8263 0.2467 3.8074 1.0567 5.5356 1.1659 0.92795-0.86308-1.6047-0.19355-2.107-0.5011-2.3402-0.31004-4.9843-0.40631-7.5285-1.0704 1.1746-0.37737 2.6681 1.4459 3.7704 2.1282 1.7995 1.0324 3.0851 1.8838 4.8452 2.4668 1.0553-0.65662-1.0029-0.9968-1.7005-1.2535-2.4413-0.77642-4.9078-2.1681-7.2842-3.2065 1.2646 0.0084 2.0433 2.3547 3.2532 3.1668 1.2532 1.2277 3.1148 2.8769 4.3891 4.0333 0.6064-0.92553-2.0105-1.9374-2.429-2.781-1.9244-1.4589-3.2966-2.4559-5.0671-4.0104 1.0813-0.02535 1.2511 2.4189 1.929 3.7015 0.6366 1.5286 1.6825 2.8143 2.6328 4.5987 1.3152 0.13204-0.68621-2.0135-1.233-2.6295-1.3375-1.9962-2.5363-3.6865-3.7287-5.5487 1.1283 0.63906 0.58073 2.4838 1.0776 3.9025 0.08807 1.9987 0.40996 4.1474 1.0863 6.0306 0.77646-0.64657-0.10402-2.4177-0.29897-3.5794-0.51498-1.9739-1.5484-4.3973-1.7846-6.4755 0.95859 0.65949-0.54748 3.1586-0.39364 4.3696-0.19265 1.888-0.94331 4.2161-0.8721 6.0949-0.0501-0.19362 0.15692-0.26962 0.33456-0.17774-0.18089-0.08531-0.32075 0.35643-0.24764 0.17027 0.19095 0.05949 0.05362-0.0058 0.16305-0.17319"
           style="opacity:.1" />
      </g>
      <path
         id="path3647"
         d="m167.72 1007.3a4.672 4.672 0 0 1 -9.3439 0 4.672 4.672 0 1 1 9.3439 0z"
         style="fill:url(#radialGradient6650)" />
      <path
         id="path3649"
         d="m128.7 991.87s7.9088-5.1807 17.173-4.1669c19.442 2.1276 36.997 13.132 42.048 25.38"
         style="filter:url(#filter3756);stroke:url(#radialGradient6647);fill:none" />
      <path
         id="path3717"
         d="m182.71 1011.6c0.5936 5.1146-1.1405 6.5098-7.625 7.75 5.1778-0.4954 8.9912-1.5263 9.5625-2.25 0 0-0.28773-2.5346-1.9375-5.5z"
         style="fill:url(#linearGradient6643)" />
      <path
         id="path3656"
         d="m138.93 996.16s-4.1669 0-7.7024 2.2728c7.3236-1.894 8.2075 0 8.2075 0s-3.4093 0.25254-4.9245 3.0305c2.2728-2.3991 5.4296-1.5152 5.5558 0.1263 0 0-3.1567 0.8839-5.3033 4.7982 3.283-3.6618 6.0609-2.5254 6.0609-2.5254s-0.95364 0.8481-2.9042 4.0406c2.5254-3.0305 4.672-2.2728 4.672-2.2728s-2.3991 1.389-4.0406 6.4397c3.283-5.5558 5.5558-4.0406 5.5558-4.0406s-1.389 2.0203-1.7678 4.5457c1.894-2.7779 3.9143-1.5152 3.9143-1.5152s-2.1466 1.0102-3.9143 4.672c4.1669-4.1669 4.672-2.7779 4.672-2.7779s-0.75762 1.0102-1.389 2.7779c2.6516-1.6415 3.0305-0.8839 5.6821-0.1263-7.702-8.334-12.374-19.446-12.374-19.446z"
         style="opacity:.7" />
      <path
         id="path3638"
         d="m140.53 995.67c-1.4304 0.13219-2.0938 0.375-2.0938 0.375 3.0305 12.501 9.1645 22.74 23.906 24.125 10.325 0.9698 22.115-1.2067 23.062-2.4062 0 0-0.14448-0.3054-0.1875-0.4062-3.9831 1.1196-12.899 2.3204-20.969 1.5625-14.38-1.3506-20.579-11.168-23.688-23.25-0.009 0.00083-0.0221-0.00084-0.0312 0z"
         style="fill:url(#linearGradient3184)" />
      <path
         id="path3740"
         d="m140.53 995.67c-1.4304 0.13219-2.0938 0.375-2.0938 0.375 3.0305 12.501 9.1645 22.74 23.906 24.125 10.325 0.9698 22.115-1.2067 23.062-2.4062 0 0-0.14448-0.3054-0.1875-0.4062-3.9831 1.1196-12.899 2.3204-20.969 1.5625-14.38-1.3506-20.579-11.168-23.688-23.25-0.009 0.00083-0.0221-0.00084-0.0312 0z"
         style="fill:url(#linearGradient3184)" />
      <path
         id="path3732"
         d="m141.53 994.67c-1.4304 0.13219-2.0938 0.375-2.0938 0.375 0.0613 0.25298 0.12358 0.49893 0.1875 0.75 0.25765-0.0399 0.56036-0.093 0.90625-0.125 0.009-0.00084 0.0221 0.00083 0.0312 0 3.1081 12.082 9.3073 21.899 23.688 23.25 8.0694 0.7579 16.986-0.4429 20.969-1.5625 0.60932-0.2146 1.0425-0.41 1.1875-0.5937 0 0-0.14448-0.3054-0.1875-0.4063-3.9831 1.1196-12.899 2.3204-20.969 1.5625-14.38-1.3506-20.579-11.168-23.688-23.25-0.009 0.00083-0.0221-0.00084-0.0312 0z"
         style="opacity:.2" />
      <path
         id="path3752"
         d="m140.53 995.67c-1.4304 0.13219-2.0938 0.375-2.0938 0.375 3.0305 12.501 9.1645 22.74 23.906 24.125 1.6183 0.152 3.2633 0.2055 4.9062 0.2188-1.312-0.031-2.615-0.098-3.906-0.219-14.741-1.385-20.875-11.624-23.906-24.125 0 0 0.36623-0.12594 1.1562-0.25-0.0108-0.0416-0.0205-0.0833-0.0312-0.125-0.009 0.00083-0.0221-0.00084-0.0312 0zm44.688 21.688c-2.9458 0.8281-8.5893 1.6896-14.594 1.7812 5.8333 0 11.394-0.7611 14.688-1.5625-0.0433-0.093-0.0709-0.1651-0.0937-0.2187z" />
      <path
         id="path3736"
         d="m160.72 1005.3a4.672 4.672 0 0 1 -9.3439 0 4.672 4.672 0 1 1 9.3439 0z"
         style="fill:url(#radialGradient6629)" />
      <path
         id="path3748"
         d="m179.71 1012.6a6.44 6.44 0 0 1 -12.88 0 6.44 6.44 0 1 1 12.88 0z"
         style="fill:url(#radialGradient6626)" />
      <path
         id="path3770"
         d="m143.27 994.98s-11.062 0.46284-12.392-8.8078c2.0949 7.4661 14.138 8.4005 14.138 8.4005s-11.125 0.13724-10.032-12.308c-0.41909 10.524 12.113 12.579 12.113 12.579s-9.2984-3.3271-6.3826-11.092c-1.7174 7.4983 8.49 11.155 8.49 11.155s-6.5354-4.2365-1.6385-10.157c-3.3458 5.3821 3.4295 11.025 3.4295 11.025s-3.8039-4.0922 0.17075-7.8056c-2.6133 4.6313 1.5748 7.3983 1.5748 7.3983s-1.728-2.9755 1.4189-7.643c-2.4096 5.504 0.37204 8.511 0.37204 8.511s-0.41201-3.3329 1.772-5.4813c-1.6548 2.9578-0.0264 5.0741-0.0264 5.0741s-0.58819-1.9807 1.8174-4.206c-1.9624 2.0715-0.44248 5.0199-0.44248 5.0199s0.33881-2.6004 1.9712-3.7629c-1.7317 2.7363 0.082 4.242 0.082 4.242-15.433-4.973-16.436-2.141-16.436-2.141z" />
      <path
         id="path3772"
         d="m145.19 994.49s-9.5976 0.35714-10.752-6.7964c1.8176 5.7611 12.267 6.4821 12.267 6.4821s-9.6525 0.1059-8.7045-9.4976c-0.36362 8.1203 10.509 9.7067 10.509 9.7067s-8.0678-2.5673-5.5379-8.5593c-1.4901 5.7859 7.3664 8.6079 7.3664 8.6079s-5.6704-3.269-1.4217-7.8374c-2.903 4.153 2.9756 8.5072 2.9756 8.5072s-3.3004-3.1577 0.14815-6.023c-2.2674 3.5736 1.3664 5.7088 1.3664 5.7088s-1.4993-2.296 1.2311-5.8976c-2.0907 4.2471 0.3228 6.5674 0.3228 6.5674s-0.35748-2.5718 1.5375-4.2296c-1.4358 2.2824-0.0229 3.9153-0.0229 3.9153s-0.51034-1.5284 1.5769-3.2455c-1.7027 1.5984-0.38392 3.8735-0.38392 3.8735s0.29397-2.0066 1.7103-2.9036c-1.5025 2.1114 0.0711 3.2732 0.0711 3.2732-13.388-3.836-14.259-1.652-14.259-1.652z" />
      <path
         id="path3774"
         d="m159.68 997.24s-3.7157-2.901-0.70076-6.4384c-2.0939 3.2565 1.7265 7.0494 1.7265 7.0494s-2.1214-2.7097 0.298-4.8952c-1.6463 2.812 0.73351 4.7038 0.73351 4.7038s-0.93534-1.9321 1.0241-4.7471c-1.5493 3.3675 0.002 5.3582 0.002 5.3582s-0.15644-2.1081 1.1757-3.3767c-1.0431 1.7964-0.14424 3.1853-0.14424 3.1853s-0.29382-1.2654 1.1699-2.5743c-1.2006 1.2285-0.38626 3.1359-0.38626 3.1359s0.2642-1.6204 1.2487-2.2903c-1.0825 1.6545-0.0597 2.6667-0.0597 2.6667-5.1903-1.3187-5.7636-0.54703-6.087-1.7772z" />
      <path
         id="path3776"
         d="m162.53 998.69s-3.881-2.4281-0.73194-5.3888c-2.1871 2.7256 1.8033 5.9002 1.8033 5.9002s-2.2158-2.268 0.31125-4.0972c-1.7196 2.3536 0.76614 3.937 0.76614 3.937s-0.97696-1.6171 1.0696-3.9733c-1.6183 2.8186 0.002 4.4847 0.002 4.4847s-0.1634-1.7644 1.228-2.8263c-1.0895 1.5036-0.15066 2.666-0.15066 2.666s-0.3069-1.0592 1.222-2.1546c-1.254 1.0283-0.40345 2.6247-0.40345 2.6247s0.27596-1.3563 1.3042-1.917c-1.1306 1.3848-0.0624 2.232-0.0624 2.232-5.4212-1.1038-6.02-0.45782-6.3579-1.4875z" />
    </g>
    <rect
       id="rect3003"
       style="opacity:.15;fill:#fff"
       transform="translate(98 3.8281e-7)"
       clip-path="url(#clipPath3009)"
       rx="25"
       ry="25"
       height="92"
       width="92"
       y="958.36"
       x="-96" />
  </g>
</svg>
