<svg height="96" width="96" xmlns="http://www.w3.org/2000/svg" xmlns:sodipodi="http://sodipodi.sourceforge.net/DTD/sodipodi-0.dtd" xmlns:inkscape="http://www.inkscape.org/namespaces/inkscape">
 <g inkscape:label="Layer 1" inkscape:groupmode="layer" transform="matrix(1 0 0 1 0 -956.36)">
  <g transform="matrix(1 0 0 1 0 0.223)">
   <rect x="8" rx="10.769" y="964.14" fill="#e6e6e6" fill-opacity="1" stroke="none" height="80" width="80"/>
   <path d="M 18.78125,964.14343 C 12.815096,964.14343 8,968.92728 8,974.89343 l 0,22.65625 80,0 0,-22.65625 c 0,-5.96615 -4.815096,-10.75 -10.78125,-10.75 l -58.4375,0 z" fill="#ca3232" fill-opacity="1" stroke="none" inkscape:connector-curvature="0"/>
   <g transform="matrix(0.79399 0 0 0.79399 105.49 210.36)">
    <g display="inline" transform="matrix(0.38387 0 0 0.38753 -77.62 961.6)">
     <path d="m 64.127514,24.097733 c 0.1888,0.04037 0.335935,0.124351 0.441406,0.251954 0.106769,0.127605 0.160154,0.285157 0.160156,0.472656 -2e-6,0.287761 -0.09896,0.510417 -0.296875,0.667969 -0.197918,0.157552 -0.479168,0.236328 -0.84375,0.236328 -0.122396,0 -0.248698,-0.01237 -0.378906,-0.03711 -0.128907,-0.02344 -0.26237,-0.05924 -0.40039,-0.107422 l 0,-0.380859 c 0.109374,0.0638 0.229166,0.11198 0.359375,0.144531 0.130207,0.03255 0.266275,0.04883 0.408203,0.04883 0.247394,1e-6 0.435545,-0.04883 0.564453,-0.146484 0.130206,-0.09766 0.19531,-0.239583 0.195312,-0.425781 -2e-6,-0.171874 -0.06055,-0.305989 -0.18164,-0.402344 -0.119794,-0.09765 -0.287111,-0.146483 -0.501953,-0.146484 l -0.339844,0 0,-0.324219 0.355469,0 c 0.194009,2e-6 0.342446,-0.03841 0.445312,-0.115234 0.102863,-0.07812 0.154295,-0.190103 0.154297,-0.335938 -2e-6,-0.149737 -0.05339,-0.26432 -0.160156,-0.34375 -0.105471,-0.08073 -0.257163,-0.121091 -0.455078,-0.121094 -0.108074,3e-6 -0.22396,0.01172 -0.347657,0.03516 -0.123698,0.02344 -0.259766,0.0599 -0.408203,0.109375 l 0,-0.351563 c 0.149739,-0.04166 0.289713,-0.07291 0.419922,-0.09375 0.131509,-0.02083 0.255207,-0.03125 0.371094,-0.03125 0.299477,3e-6 0.536456,0.06836 0.710937,0.205078 0.174477,0.13542 0.261717,0.319013 0.261719,0.550781 -2e-6,0.161461 -0.04623,0.298179 -0.138672,0.410157 -0.09245,0.110679 -0.22396,0.187501 -0.394531,0.230468 m -2.400391,6.040235 0.644532,0 0,-2.224609 -0.701172,0.140625 0,-0.359375 0.697265,-0.140625 0.394532,0 0,2.583984 0.644531,0 0,0.332031 -1.679688,0 0,-0.332031 m 3.322266,-2.324219 c -0.203126,3e-6 -0.356121,0.100263 -0.458984,0.300782 -0.101564,0.19922 -0.152345,0.49935 -0.152344,0.90039 -1e-6,0.399741 0.05078,0.699871 0.152344,0.900391 0.102863,0.199219 0.255858,0.298828 0.458984,0.298828 0.204425,0 0.35742,-0.09961 0.458984,-0.298828 0.102863,-0.20052 0.154295,-0.50065 0.154297,-0.900391 -2e-6,-0.40104 -0.05143,-0.70117 -0.154297,-0.90039 -0.101564,-0.200519 -0.254559,-0.300779 -0.458984,-0.300782 m 0,-0.3125 c 0.326821,3e-6 0.57617,0.12956 0.748047,0.388672 0.173175,0.257815 0.259763,0.632815 0.259765,1.125 -2e-6,0.490887 -0.08659,0.865886 -0.259765,1.125 -0.171877,0.257813 -0.421226,0.386719 -0.748047,0.386719 -0.326824,0 -0.576824,-0.128906 -0.75,-0.386719 -0.171875,-0.259114 -0.257813,-0.634113 -0.257813,-1.125 0,-0.492185 0.08594,-0.867185 0.257813,-1.125 0.173176,-0.259112 0.423176,-0.388669 0.75,-0.388672 m -3.322266,7.436719 0.644532,0 0,-2.224609 -0.701172,0.140625 0,-0.359375 0.697265,-0.140625 0.394532,0 0,2.583984 0.644531,0 0,0.332032 -1.679688,0 0,-0.332032 m 2.378907,-2.583984 1.875,0 0,0.167969 -1.058594,2.748047 -0.41211,0 0.996094,-2.583985 -1.40039,0 0,-0.332031 m -2.107422,7.383984 1.376953,0 0,0.332032 -1.851563,0 0,-0.332032 c 0.149739,-0.154947 0.353515,-0.362629 0.611328,-0.623046 0.259114,-0.261718 0.421874,-0.430338 0.488282,-0.50586 0.1263,-0.141925 0.214191,-0.261717 0.263672,-0.359375 0.05078,-0.09896 0.07617,-0.195961 0.07617,-0.291015 -1e-6,-0.154946 -0.05469,-0.281248 -0.164062,-0.378907 -0.108074,-0.09765 -0.24935,-0.146481 -0.423828,-0.146484 -0.123699,3e-6 -0.254558,0.02149 -0.392578,0.06445 -0.13672,0.04297 -0.283204,0.108075 -0.439453,0.195313 l 0,-0.398438 c 0.158853,-0.0638 0.307291,-0.111976 0.445312,-0.144531 0.13802,-0.03255 0.264322,-0.04883 0.378906,-0.04883 0.302082,3e-6 0.542967,0.07552 0.722657,0.226562 0.179685,0.151044 0.269529,0.352867 0.269531,0.605469 -2e-6,0.119794 -0.02279,0.233726 -0.06836,0.341797 -0.04427,0.106772 -0.125653,0.233074 -0.24414,0.378906 -0.03255,0.03776 -0.13607,0.147137 -0.310547,0.328125 -0.174481,0.179688 -0.420574,0.431641 -0.738281,0.755859 m 3.291015,-2.240234 -0.996093,1.556641 0.996093,0 0,-1.556641 m -0.103515,-0.34375 0.496093,0 0,1.900391 0.416016,0 0,0.328125 -0.416016,0 0,0.6875 -0.392578,0 0,-0.6875 -1.316406,0 0,-0.38086 1.212891,-1.847656" fill="#ffffff" fill-opacity="1" stroke="none" inkscape:connector-curvature="0"/>
     <path d="m 71.694389,23.041094 -0.996093,1.55664 0.996093,0 0,-1.55664 m -0.103515,-0.34375 0.496093,0 0,1.90039 0.416016,0 0,0.328125 -0.416016,0 0,0.6875 -0.392578,0 0,-0.6875 -1.316406,0 0,-0.380859 1.212891,-1.847656 m -2.185547,7.383984 0.644531,0 0,-2.224609 -0.701172,0.140625 0,-0.359375 0.697266,-0.140625 0.394531,0 0,2.583984 0.644531,0 0,0.332032 -1.679687,0 0,-0.332032 m 2.546875,0 0.644531,0 0,-2.224609 -0.701172,0.140625 0,-0.359375 0.697266,-0.140625 0.394531,0 0,2.583984 0.644531,0 0,0.332032 -1.679687,0 0,-0.332032 m -2.546875,4.800001 0.644531,0 0,-2.22461 -0.701172,0.140625 0,-0.359375 0.697266,-0.140625 0.394531,0 0,2.583985 0.644531,0 0,0.332031 -1.679687,0 0,-0.332031 m 3.322265,-1.052735 c -0.187501,2e-6 -0.335287,0.05013 -0.443359,0.150391 -0.106771,0.100261 -0.160157,0.238282 -0.160156,0.414062 -10e-7,0.175782 0.05339,0.313803 0.160156,0.414063 0.108072,0.100261 0.255858,0.150391 0.443359,0.15039 0.187499,10e-7 0.335285,-0.05013 0.44336,-0.15039 0.108071,-0.101562 0.162107,-0.239583 0.162109,-0.414063 -2e-6,-0.17578 -0.05404,-0.313801 -0.162109,-0.414062 -0.106773,-0.100259 -0.254559,-0.150389 -0.44336,-0.150391 m -0.394531,-0.167969 c -0.169271,-0.04167 -0.301433,-0.120441 -0.396484,-0.236328 -0.09375,-0.115883 -0.140625,-0.257159 -0.140625,-0.423828 0,-0.23307 0.08268,-0.417315 0.248047,-0.552734 0.166666,-0.135414 0.39453,-0.203122 0.683593,-0.203125 0.290363,3e-6 0.518228,0.06771 0.683594,0.203125 0.165363,0.135419 0.248045,0.319664 0.248047,0.552734 -2e-6,0.166669 -0.04753,0.307945 -0.142578,0.423828 -0.09375,0.115887 -0.224611,0.194663 -0.392578,0.236328 0.190102,0.04427 0.337888,0.130861 0.443359,0.259766 0.106769,0.128907 0.160154,0.286459 0.160156,0.472656 -2e-6,0.282553 -0.08659,0.49935 -0.259765,0.650391 C 73.29595,35.19448 73.049205,35.27 72.727592,35.27 c -0.321615,0 -0.569011,-0.07552 -0.742187,-0.226562 -0.171875,-0.151041 -0.257813,-0.367838 -0.257813,-0.650391 0,-0.186197 0.05339,-0.343749 0.160157,-0.472656 0.10677,-0.128905 0.255207,-0.215493 0.445312,-0.259766 M 72.18853,33.037579 c -10e-7,0.151043 0.04687,0.268882 0.140625,0.353515 0.09505,0.08464 0.227863,0.126955 0.398437,0.126953 0.16927,2e-6 0.301431,-0.04232 0.396485,-0.126953 0.09635,-0.08463 0.144529,-0.202472 0.144531,-0.353515 -2e-6,-0.15104 -0.04818,-0.268878 -0.144531,-0.353516 -0.09505,-0.08463 -0.227215,-0.126951 -0.396485,-0.126953 -0.170574,2e-6 -0.303386,0.04232 -0.398437,0.126953 -0.09375,0.08464 -0.140626,0.202476 -0.140625,0.353516 m -2.511719,6.64375 1.376953,0 0,0.332031 -1.851562,0 0,-0.332031 c 0.149739,-0.154948 0.353515,-0.36263 0.611328,-0.623047 0.259113,-0.261718 0.421874,-0.430337 0.488281,-0.505859 0.126301,-0.141926 0.214191,-0.261718 0.263672,-0.359375 0.05078,-0.09896 0.07617,-0.195962 0.07617,-0.291016 -2e-6,-0.154946 -0.05469,-0.281248 -0.164063,-0.378906 -0.108074,-0.09765 -0.24935,-0.146482 -0.423828,-0.146485 -0.123699,3e-6 -0.254558,0.02149 -0.392578,0.06445 -0.136719,0.04297 -0.283203,0.108076 -0.439453,0.195313 l 0,-0.398438 c 0.158854,-0.0638 0.307291,-0.111976 0.445313,-0.144531 0.13802,-0.03255 0.264321,-0.04883 0.378906,-0.04883 0.302082,3e-6 0.542967,0.07552 0.722656,0.226563 0.179686,0.151044 0.269529,0.352866 0.269531,0.605468 -2e-6,0.119794 -0.02279,0.233726 -0.06836,0.341797 -0.04427,0.106773 -0.125653,0.233075 -0.244141,0.378906 -0.03255,0.03776 -0.136069,0.147137 -0.310547,0.328125 -0.17448,0.179689 -0.420574,0.431642 -0.738281,0.75586 m 2.210938,-2.583985 1.548828,0 0,0.332032 -1.1875,0 0,0.714843 c 0.05729,-0.01953 0.114582,-0.03385 0.171875,-0.04297 0.05729,-0.01041 0.114582,-0.01562 0.171875,-0.01563 0.325519,2e-6 0.583331,0.08919 0.773437,0.267578 0.190102,0.178387 0.285154,0.419923 0.285157,0.724609 -3e-6,0.313803 -0.09766,0.557943 -0.292969,0.732422 -0.195314,0.173177 -0.470705,0.259766 -0.826172,0.259766 -0.122397,0 -0.247397,-0.01042 -0.375,-0.03125 -0.126303,-0.02083 -0.257162,-0.05208 -0.392578,-0.09375 l 0,-0.396485 c 0.117187,0.0638 0.238281,0.111329 0.363281,0.142578 0.124999,0.03125 0.257161,0.04688 0.396484,0.04687 0.22526,10e-7 0.403645,-0.05924 0.535157,-0.177734 0.131508,-0.118489 0.197264,-0.279296 0.197265,-0.482422 -10e-7,-0.203124 -0.06576,-0.363931 -0.197265,-0.482422 -0.131512,-0.118488 -0.309897,-0.177733 -0.535157,-0.177734 -0.105469,1e-6 -0.210938,0.01172 -0.316406,0.03516 -0.104167,0.02344 -0.210938,0.0599 -0.320312,0.109375 l 0,-1.464844" fill="#ffffff" fill-opacity="1" stroke="none" inkscape:connector-curvature="0"/>
     <path d="m 78.257362,22.697344 1.548828,0 0,0.332031 -1.1875,0 0,0.714844 c 0.05729,-0.01953 0.114583,-0.03385 0.171875,-0.04297 0.05729,-0.01042 0.114583,-0.01562 0.171875,-0.01563 0.32552,2e-6 0.583332,0.08919 0.773438,0.267578 0.190102,0.178387 0.285154,0.419923 0.285156,0.72461 -2e-6,0.313802 -0.09766,0.557943 -0.292969,0.732421 C 79.532751,25.583412 79.257361,25.67 78.901894,25.67 c -0.122397,0 -0.247397,-0.01042 -0.375,-0.03125 -0.126303,-0.02083 -0.257162,-0.05208 -0.392579,-0.09375 l 0,-0.396484 c 0.117188,0.0638 0.238281,0.111328 0.363282,0.142578 0.124999,0.03125 0.25716,0.04687 0.396484,0.04687 0.225259,0 0.403644,-0.05925 0.535156,-0.177735 0.131509,-0.118489 0.197264,-0.279296 0.197266,-0.482421 -2e-6,-0.203124 -0.06576,-0.363931 -0.197266,-0.482422 -0.131512,-0.118488 -0.309897,-0.177733 -0.535156,-0.177735 -0.10547,2e-6 -0.210938,0.01172 -0.316406,0.03516 -0.104167,0.02344 -0.210938,0.0599 -0.320313,0.109375 l 0,-1.464844 m -1.208984,7.383984 0.644531,0 0,-2.224609 -0.701172,0.140625 0,-0.359375 0.697266,-0.140625 0.394531,0 0,2.583984 0.644531,0 0,0.332032 -1.679687,0 0,-0.332032 m 2.818359,0 1.376953,0 0,0.332032 -1.851562,0 0,-0.332032 c 0.149739,-0.154947 0.353515,-0.362629 0.611328,-0.623046 0.259114,-0.261718 0.421874,-0.430338 0.488281,-0.50586 0.126301,-0.141925 0.214191,-0.261717 0.263672,-0.359375 0.05078,-0.09896 0.07617,-0.195961 0.07617,-0.291015 -2e-6,-0.154946 -0.05469,-0.281248 -0.164062,-0.378907 -0.108075,-0.09765 -0.249351,-0.146481 -0.423829,-0.146484 -0.123698,3e-6 -0.254558,0.02149 -0.392578,0.06445 -0.136719,0.04297 -0.283203,0.108075 -0.439453,0.195313 l 0,-0.398438 c 0.158854,-0.0638 0.307291,-0.111976 0.445313,-0.144531 0.13802,-0.03255 0.264322,-0.04883 0.378906,-0.04883 0.302082,3e-6 0.542967,0.07552 0.722656,0.226562 0.179686,0.151044 0.269529,0.352867 0.269531,0.605469 -2e-6,0.119794 -0.02279,0.233726 -0.06836,0.341797 -0.04427,0.106772 -0.125653,0.233074 -0.244141,0.378906 -0.03255,0.03776 -0.136069,0.147137 -0.310546,0.328125 -0.174481,0.179688 -0.420574,0.431641 -0.738282,0.755859 m -2.818359,4.800001 0.644531,0 0,-2.22461 -0.701172,0.140625 0,-0.359375 0.697266,-0.140625 0.394531,0 0,2.583985 0.644531,0 0,0.332031 -1.679687,0 0,-0.332031 m 2.490234,0.271484 0,-0.359375 c 0.09896,0.04687 0.199218,0.08268 0.300782,0.107422 0.101561,0.02474 0.201171,0.03711 0.298828,0.03711 0.260415,0 0.458983,-0.08724 0.595703,-0.261719 0.138019,-0.17578 0.216795,-0.442056 0.236328,-0.798828 -0.07552,0.111981 -0.171226,0.197918 -0.287109,0.257813 -0.115887,0.0599 -0.244142,0.08984 -0.384766,0.08984 -0.291668,1e-6 -0.522787,-0.08789 -0.693359,-0.263672 -0.169272,-0.177082 -0.253907,-0.418618 -0.253907,-0.72461 0,-0.299477 0.08854,-0.539711 0.265625,-0.720703 0.177083,-0.180986 0.41276,-0.271481 0.707032,-0.271484 0.337238,3e-6 0.594399,0.12956 0.771484,0.388672 0.178383,0.257815 0.267576,0.632814 0.267578,1.125 -2e-6,0.459636 -0.109377,0.826823 -0.328125,1.101562 C 80.817256,35.133282 80.524288,35.27 80.1558,35.27 c -0.09896,0 -0.19922,-0.0098 -0.300781,-0.0293 -0.101564,-0.01953 -0.207032,-0.04883 -0.316407,-0.08789 m 0.785157,-1.236328 c 0.177082,10e-7 0.317055,-0.06055 0.419921,-0.181641 0.104165,-0.121092 0.156249,-0.287107 0.15625,-0.498047 -10e-7,-0.209633 -0.05209,-0.374997 -0.15625,-0.496093 -0.102866,-0.122394 -0.242839,-0.183592 -0.419921,-0.183594 -0.177085,2e-6 -0.31771,0.0612 -0.421875,0.183594 -0.102866,0.121096 -0.154298,0.28646 -0.154297,0.496093 -10e-7,0.21094 0.05143,0.376955 0.154297,0.498047 0.104165,0.121095 0.24479,0.181642 0.421875,0.181641 m -3.003907,5.764844 1.376953,0 0,0.332031 -1.851562,0 0,-0.332031 c 0.149739,-0.154948 0.353515,-0.36263 0.611328,-0.623047 0.259114,-0.261718 0.421874,-0.430337 0.488281,-0.505859 0.126301,-0.141926 0.214191,-0.261718 0.263672,-0.359375 0.05078,-0.09896 0.07617,-0.195962 0.07617,-0.291016 -2e-6,-0.154946 -0.05469,-0.281248 -0.164062,-0.378906 -0.108075,-0.09765 -0.249351,-0.146482 -0.423829,-0.146485 -0.123698,3e-6 -0.254558,0.02149 -0.392578,0.06445 -0.136719,0.04297 -0.283203,0.108076 -0.439453,0.195313 l 0,-0.398438 c 0.158854,-0.0638 0.307291,-0.111976 0.445313,-0.144531 0.13802,-0.03255 0.264322,-0.04883 0.378906,-0.04883 0.302082,3e-6 0.542967,0.07552 0.722656,0.226563 0.179686,0.151044 0.269529,0.352866 0.269531,0.605468 -2e-6,0.119794 -0.02279,0.233726 -0.06836,0.341797 -0.04427,0.106773 -0.125653,0.233075 -0.244141,0.378906 -0.03255,0.03776 -0.136069,0.147137 -0.310546,0.328125 -0.174481,0.179689 -0.420574,0.431642 -0.738282,0.75586 m 3.09961,-1.283203 c -0.177085,1e-6 -0.31771,0.06055 -0.421875,0.18164 -0.102866,0.121095 -0.154298,0.287111 -0.154297,0.498047 -1e-6,0.209636 0.05143,0.375652 0.154297,0.498047 0.104165,0.121094 0.24479,0.181641 0.421875,0.181641 0.177082,0 0.317055,-0.06055 0.419922,-0.181641 0.104164,-0.122395 0.156248,-0.288411 0.15625,-0.498047 -2e-6,-0.210936 -0.05209,-0.376952 -0.15625,-0.498047 -0.102867,-0.121092 -0.24284,-0.181639 -0.419922,-0.18164 m 0.783203,-1.236328 0,0.359375 c -0.09896,-0.04687 -0.199221,-0.08268 -0.300781,-0.107422 -0.100263,-0.02474 -0.199872,-0.03711 -0.298829,-0.03711 -0.260417,3e-6 -0.459636,0.08789 -0.597656,0.263672 -0.136719,0.175784 -0.214844,0.441408 -0.234375,0.796875 0.07682,-0.113279 0.173176,-0.199868 0.289063,-0.259765 0.115884,-0.0612 0.243488,-0.09179 0.382812,-0.0918 0.292967,2e-6 0.524087,0.08919 0.69336,0.267578 0.17057,0.177085 0.255857,0.418621 0.255859,0.724609 -2e-6,0.29948 -0.08854,0.539714 -0.265625,0.720703 -0.177085,0.18099 -0.412762,0.271485 -0.707031,0.271485 -0.337241,0 -0.595053,-0.128907 -0.773438,-0.386719 -0.178386,-0.259114 -0.267578,-0.634114 -0.267578,-1.125 0,-0.460936 0.109375,-0.828123 0.328125,-1.101563 0.218749,-0.274736 0.512369,-0.412106 0.880859,-0.412109 0.09896,3e-6 0.198567,0.0098 0.298829,0.0293 0.10156,0.01953 0.207029,0.04883 0.316406,0.08789" fill="#ffffff" fill-opacity="1" stroke="none" inkscape:connector-curvature="0"/>
     <path d="m 86.806656,24.054766 c -0.177085,10e-7 -0.317709,0.06055 -0.421875,0.18164 -0.102865,0.121095 -0.154298,0.287111 -0.154297,0.498047 -10e-7,0.209636 0.05143,0.375652 0.154297,0.498047 0.104166,0.121094 0.24479,0.181641 0.421875,0.181641 0.177082,0 0.317056,-0.06055 0.419922,-0.181641 0.104165,-0.122395 0.156248,-0.288411 0.15625,-0.498047 -2e-6,-0.210936 -0.05209,-0.376952 -0.15625,-0.498047 -0.102866,-0.121092 -0.24284,-0.181639 -0.419922,-0.18164 m 0.783203,-1.236328 0,0.359375 c -0.09896,-0.04687 -0.199221,-0.08268 -0.300781,-0.107422 -0.100262,-0.02474 -0.199872,-0.03711 -0.298828,-0.03711 -0.260418,3e-6 -0.459637,0.08789 -0.597657,0.263672 -0.136719,0.175784 -0.214844,0.441408 -0.234375,0.796875 0.07682,-0.113279 0.173177,-0.199868 0.289063,-0.259765 0.115884,-0.0612 0.243488,-0.0918 0.382812,-0.0918 0.292967,2e-6 0.524087,0.08919 0.69336,0.267578 0.17057,0.177085 0.255857,0.418621 0.255859,0.724609 -2e-6,0.29948 -0.08854,0.539714 -0.265625,0.720703 -0.177085,0.18099 -0.412762,0.271485 -0.707031,0.271485 -0.337241,0 -0.595053,-0.128906 -0.773438,-0.386719 -0.178385,-0.259114 -0.267578,-0.634114 -0.267578,-1.125 0,-0.460936 0.109375,-0.828123 0.328125,-1.101563 0.218749,-0.274736 0.512369,-0.412106 0.88086,-0.412109 0.09896,3e-6 0.198566,0.0098 0.298828,0.0293 0.10156,0.01953 0.207029,0.04883 0.316406,0.08789 m -2.880859,7.319531 0.644531,0 0,-2.224609 -0.701172,0.140625 0,-0.359375 0.697266,-0.140625 0.394531,0 0,2.583984 0.644531,0 0,0.332031 -1.679687,0 0,-0.332031 m 3.673828,-1.240234 c 0.1888,0.04037 0.335935,0.12435 0.441406,0.251953 0.106769,0.127605 0.160154,0.285157 0.160156,0.472656 -2e-6,0.287761 -0.09896,0.510417 -0.296875,0.667969 -0.197918,0.157552 -0.479168,0.236328 -0.84375,0.236328 -0.122397,0 -0.248698,-0.01237 -0.378906,-0.03711 -0.128907,-0.02344 -0.26237,-0.05925 -0.400391,-0.107422 l 0,-0.38086 c 0.109375,0.0638 0.229167,0.11198 0.359375,0.144532 0.130208,0.03255 0.266275,0.04883 0.408204,0.04883 0.247394,0 0.435545,-0.04883 0.564453,-0.146485 0.130206,-0.09765 0.19531,-0.239582 0.195312,-0.425781 -2e-6,-0.171874 -0.06055,-0.305988 -0.18164,-0.402344 -0.119794,-0.09765 -0.287111,-0.146483 -0.501954,-0.146484 l -0.339843,0 0,-0.324219 0.355468,0 c 0.194009,2e-6 0.342447,-0.03841 0.445313,-0.115234 0.102863,-0.07812 0.154295,-0.190102 0.154297,-0.335938 -2e-6,-0.149737 -0.05339,-0.26432 -0.160156,-0.34375 -0.105471,-0.08073 -0.257163,-0.121091 -0.455079,-0.121093 -0.108074,2e-6 -0.223959,0.01172 -0.347656,0.03516 -0.123698,0.02344 -0.259766,0.0599 -0.408203,0.109375 l 0,-0.351563 c 0.149739,-0.04166 0.289713,-0.07291 0.419922,-0.09375 0.131509,-0.02083 0.255207,-0.03125 0.371094,-0.03125 0.299477,3e-6 0.536456,0.06836 0.710937,0.205078 0.174477,0.13542 0.261717,0.319013 0.261719,0.550782 -2e-6,0.16146 -0.04623,0.298179 -0.138672,0.410156 -0.09245,0.110679 -0.22396,0.187502 -0.394531,0.230469 m -3.402344,6.040234 1.376953,0 0,0.332031 -1.851562,0 0,-0.332031 c 0.149739,-0.154947 0.353515,-0.362629 0.611328,-0.623047 0.259113,-0.261717 0.421873,-0.430337 0.488281,-0.505859 0.126301,-0.141926 0.214191,-0.261717 0.263672,-0.359375 0.05078,-0.09896 0.07617,-0.195962 0.07617,-0.291016 -2e-6,-0.154945 -0.05469,-0.281247 -0.164063,-0.378906 -0.108074,-0.09765 -0.24935,-0.146482 -0.423828,-0.146484 -0.123699,2e-6 -0.254558,0.02149 -0.392578,0.06445 -0.136719,0.04297 -0.283204,0.108075 -0.439453,0.195312 l 0,-0.398437 c 0.158854,-0.0638 0.307291,-0.111976 0.445312,-0.144531 0.13802,-0.03255 0.264322,-0.04883 0.378907,-0.04883 0.302082,3e-6 0.542967,0.07552 0.722656,0.226563 0.179685,0.151044 0.269529,0.352867 0.269531,0.605469 -2e-6,0.119793 -0.02279,0.233726 -0.06836,0.341797 -0.04427,0.106772 -0.125653,0.233074 -0.244141,0.378906 -0.03255,0.03776 -0.136069,0.147137 -0.310547,0.328125 -0.17448,0.179688 -0.420574,0.431641 -0.738281,0.755859 m 3.050781,-2.324219 c -0.203126,3e-6 -0.35612,0.100263 -0.458984,0.300782 -0.101563,0.199221 -0.152345,0.499351 -0.152344,0.90039 -10e-7,0.399741 0.05078,0.699871 0.152344,0.900391 0.102864,0.199219 0.255858,0.298828 0.458984,0.298828 0.204426,0 0.357421,-0.09961 0.458985,-0.298828 0.102862,-0.20052 0.154295,-0.50065 0.154297,-0.900391 -2e-6,-0.401039 -0.05143,-0.701169 -0.154297,-0.90039 -0.101564,-0.200519 -0.254559,-0.300779 -0.458985,-0.300782 m 0,-0.3125 c 0.326822,3e-6 0.57617,0.129561 0.748047,0.388672 0.173175,0.257815 0.259763,0.632815 0.259766,1.125 -3e-6,0.490887 -0.08659,0.865886 -0.259766,1.125 -0.171877,0.257813 -0.421225,0.386719 -0.748047,0.386719 -0.326824,0 -0.576823,-0.128906 -0.75,-0.386719 -0.171875,-0.259114 -0.257813,-0.634113 -0.257812,-1.125 -10e-7,-0.492185 0.08594,-0.867185 0.257812,-1.125 0.173177,-0.259111 0.423176,-0.388669 0.75,-0.388672 m -3.050781,7.436719 1.376953,0 0,0.332032 -1.851562,0 0,-0.332032 c 0.149739,-0.154947 0.353515,-0.362629 0.611328,-0.623046 0.259113,-0.261718 0.421873,-0.430338 0.488281,-0.50586 0.126301,-0.141925 0.214191,-0.261717 0.263672,-0.359375 0.05078,-0.09896 0.07617,-0.195961 0.07617,-0.291015 -2e-6,-0.154946 -0.05469,-0.281248 -0.164063,-0.378907 -0.108074,-0.09765 -0.24935,-0.146481 -0.423828,-0.146484 -0.123699,3e-6 -0.254558,0.02149 -0.392578,0.06445 -0.136719,0.04297 -0.283204,0.108075 -0.439453,0.195313 l 0,-0.398438 c 0.158854,-0.0638 0.307291,-0.111976 0.445312,-0.144531 0.13802,-0.03255 0.264322,-0.04883 0.378907,-0.04883 0.302082,3e-6 0.542967,0.07552 0.722656,0.226562 0.179685,0.151044 0.269529,0.352867 0.269531,0.605469 -2e-6,0.119794 -0.02279,0.233726 -0.06836,0.341797 -0.04427,0.106772 -0.125653,0.233074 -0.244141,0.378906 -0.03255,0.03776 -0.136069,0.147137 -0.310547,0.328125 -0.17448,0.179688 -0.420574,0.431641 -0.738281,0.755859 m 2.107422,-2.583984 1.875,0 0,0.167969 -1.058594,2.748047 -0.412109,0 0.996094,-2.583985 -1.400391,0 0,-0.332031" fill="#ffffff" fill-opacity="1" stroke="none" inkscape:connector-curvature="0"/>
     <path d="m 93.447746,22.697344 1.875,0 0,0.167969 -1.058593,2.748046 -0.41211,0 0.996094,-2.583984 -1.400391,0 0,-0.332031 m -1.105468,7.383984 0.644531,0 0,-2.224609 -0.701172,0.140625 0,-0.359375 0.697266,-0.140625 0.394531,0 0,2.583984 0.644531,0 0,0.332032 -1.679687,0 0,-0.332032 m 3.5625,-2.240234 -0.996094,1.556641 0.996094,0 0,-1.556641 m -0.103516,-0.34375 0.496094,0 0,1.900391 0.416015,0 0,0.328125 -0.416015,0 0,0.6875 -0.392578,0 0,-0.6875 -1.316407,0 0,-0.38086 1.212891,-1.847656 m -3.1875,7.383985 1.376953,0 0,0.332031 -1.851562,0 0,-0.332031 c 0.149739,-0.154948 0.353515,-0.36263 0.611328,-0.623047 0.259113,-0.261718 0.421873,-0.430337 0.488281,-0.50586 0.1263,-0.141925 0.214191,-0.261717 0.263672,-0.359375 0.05078,-0.09896 0.07617,-0.195961 0.07617,-0.291015 -2e-6,-0.154946 -0.05469,-0.281248 -0.164063,-0.378907 -0.108074,-0.09765 -0.24935,-0.146481 -0.423828,-0.146484 -0.123699,3e-6 -0.254558,0.02149 -0.392578,0.06445 -0.136719,0.04297 -0.283204,0.108076 -0.439453,0.195313 l 0,-0.398438 c 0.158853,-0.0638 0.307291,-0.111976 0.445312,-0.144531 0.13802,-0.03255 0.264322,-0.04883 0.378907,-0.04883 0.302081,3e-6 0.542967,0.07552 0.722656,0.226562 0.179685,0.151045 0.269529,0.352867 0.269531,0.605469 -2e-6,0.119794 -0.02279,0.233726 -0.06836,0.341797 -0.04427,0.106772 -0.125653,0.233074 -0.244141,0.378906 -0.03255,0.03776 -0.136069,0.147137 -0.310547,0.328125 -0.17448,0.179689 -0.420574,0.431641 -0.738281,0.75586 m 2.275391,0 0.644531,0 0,-2.22461 -0.701172,0.140625 0,-0.359375 0.697266,-0.140625 0.394531,0 0,2.583985 0.644531,0 0,0.332031 -1.679687,0 0,-0.332031 m -2.275391,4.8 1.376953,0 0,0.332031 -1.851562,0 0,-0.332031 c 0.149739,-0.154948 0.353515,-0.36263 0.611328,-0.623047 0.259113,-0.261718 0.421873,-0.430337 0.488281,-0.505859 0.1263,-0.141926 0.214191,-0.261718 0.263672,-0.359375 0.05078,-0.09896 0.07617,-0.195962 0.07617,-0.291016 -2e-6,-0.154946 -0.05469,-0.281248 -0.164063,-0.378906 -0.108074,-0.09765 -0.24935,-0.146482 -0.423828,-0.146485 -0.123699,3e-6 -0.254558,0.02149 -0.392578,0.06445 -0.136719,0.04297 -0.283204,0.108076 -0.439453,0.195313 l 0,-0.398438 c 0.158853,-0.0638 0.307291,-0.111976 0.445312,-0.144531 0.13802,-0.03255 0.264322,-0.04883 0.378907,-0.04883 0.302081,3e-6 0.542967,0.07552 0.722656,0.226563 0.179685,0.151044 0.269529,0.352866 0.269531,0.605468 -2e-6,0.119794 -0.02279,0.233726 -0.06836,0.341797 -0.04427,0.106773 -0.125653,0.233075 -0.244141,0.378906 -0.03255,0.03776 -0.136069,0.147137 -0.310547,0.328125 -0.17448,0.179689 -0.420574,0.431642 -0.738281,0.75586 m 3.050781,-1.052735 c -0.187501,2e-6 -0.335287,0.05013 -0.443359,0.150391 -0.106772,0.100262 -0.160157,0.238282 -0.160156,0.414063 -10e-7,0.175781 0.05338,0.313802 0.160156,0.414062 0.108072,0.100261 0.255858,0.150391 0.443359,0.150391 0.187499,0 0.335285,-0.05013 0.44336,-0.150391 0.108071,-0.101562 0.162107,-0.239583 0.162109,-0.414062 -2e-6,-0.175781 -0.05404,-0.313801 -0.162109,-0.414063 -0.106773,-0.100259 -0.254559,-0.150389 -0.44336,-0.150391 m -0.394531,-0.167968 c -0.169272,-0.04166 -0.301433,-0.120441 -0.396484,-0.236328 -0.09375,-0.115884 -0.140626,-0.25716 -0.140625,-0.423829 -10e-7,-0.23307 0.08268,-0.417315 0.248046,-0.552734 0.166666,-0.135414 0.394531,-0.203122 0.683594,-0.203125 0.290363,3e-6 0.518228,0.06771 0.683594,0.203125 0.165362,0.135419 0.248045,0.319664 0.248047,0.552734 -2e-6,0.166669 -0.04753,0.307945 -0.142578,0.423829 -0.09375,0.115887 -0.224612,0.194663 -0.392578,0.236328 0.190102,0.04427 0.337888,0.13086 0.443359,0.259765 0.106769,0.128908 0.160154,0.28646 0.160156,0.472657 -2e-6,0.282552 -0.08659,0.499349 -0.259765,0.65039 -0.171877,0.151042 -0.418622,0.226563 -0.740235,0.226563 -0.321615,0 -0.569011,-0.07552 -0.742187,-0.226563 -0.171876,-0.151041 -0.257813,-0.367838 -0.257813,-0.65039 0,-0.186197 0.05339,-0.343749 0.160156,-0.472657 0.106771,-0.128905 0.255208,-0.215493 0.445313,-0.259765 m -0.144531,-0.623047 c -10e-7,0.151043 0.04687,0.268882 0.140625,0.353515 0.09505,0.08464 0.227863,0.126955 0.398437,0.126954 0.16927,10e-7 0.301431,-0.04232 0.396485,-0.126954 0.09635,-0.08463 0.144529,-0.202472 0.144531,-0.353515 -2e-6,-0.15104 -0.04818,-0.268878 -0.144531,-0.353516 -0.09505,-0.08463 -0.227215,-0.12695 -0.396485,-0.126953 -0.170574,3e-6 -0.303386,0.04232 -0.398437,0.126953 -0.09375,0.08464 -0.140626,0.202476 -0.140625,0.353516" fill="#ffffff" fill-opacity="1" stroke="none" inkscape:connector-curvature="0"/>
     <path d="m 101.29781,20.481327 0.64453,0 0,-2.224609 -0.70117,0.140625 0,-0.359375 0.69727,-0.140625 0.39453,0 0,2.583984 0.64453,0 0,0.332031 -1.67969,0 0,-0.332031 m 0.77539,3.747266 c -0.1875,1e-6 -0.33528,0.05013 -0.44336,0.15039 -0.10677,0.100262 -0.16015,0.238283 -0.16015,0.414063 0,0.175782 0.0534,0.313803 0.16015,0.414062 0.10808,0.100261 0.25586,0.150391 0.44336,0.150391 0.1875,0 0.33529,-0.05013 0.44336,-0.150391 0.10807,-0.101561 0.16211,-0.239582 0.16211,-0.414062 0,-0.17578 -0.054,-0.313801 -0.16211,-0.414063 -0.10677,-0.100259 -0.25456,-0.150389 -0.44336,-0.15039 m -0.39453,-0.167969 c -0.16927,-0.04167 -0.30143,-0.120441 -0.39648,-0.236328 -0.0937,-0.115884 -0.14063,-0.257159 -0.14063,-0.423828 0,-0.233071 0.0827,-0.417315 0.24805,-0.552735 0.16667,-0.135413 0.39453,-0.203122 0.68359,-0.203125 0.29037,3e-6 0.51823,0.06771 0.6836,0.203125 0.16536,0.13542 0.24804,0.319664 0.24804,0.552735 0,0.166669 -0.0475,0.307944 -0.14257,0.423828 -0.0938,0.115887 -0.22461,0.194663 -0.39258,0.236328 0.1901,0.04427 0.33789,0.130861 0.44336,0.259766 0.10677,0.128907 0.16015,0.286459 0.16015,0.472656 0,0.282553 -0.0866,0.499349 -0.25976,0.650391 -0.17188,0.151041 -0.41862,0.226562 -0.74024,0.226562 -0.32161,0 -0.56901,-0.07552 -0.74218,-0.226562 -0.17188,-0.151042 -0.25782,-0.367838 -0.25782,-0.650391 0,-0.186197 0.0534,-0.343749 0.16016,-0.472656 0.10677,-0.128905 0.25521,-0.215494 0.44531,-0.259766 m -0.14453,-0.623047 c 0,0.151044 0.0469,0.268882 0.14063,0.353516 0.0951,0.08464 0.22786,0.126955 0.39843,0.126953 0.16927,2e-6 0.30143,-0.04232 0.39649,-0.126953 0.0964,-0.08463 0.14453,-0.202472 0.14453,-0.353516 0,-0.151039 -0.0482,-0.268878 -0.14453,-0.353515 -0.0951,-0.08463 -0.22722,-0.126951 -0.39649,-0.126954 -0.17057,3e-6 -0.30338,0.04232 -0.39843,0.126954 -0.0937,0.08464 -0.14063,0.202476 -0.14063,0.353515 m -1.50976,6.64375 0.64453,0 0,-2.224609 -0.701175,0.140625 0,-0.359375 0.697265,-0.140625 0.39453,0 0,2.583984 0.64453,0 0,0.332032 -1.67968,0 0,-0.332032 m 2.48242,-2.583984 1.54883,0 0,0.332031 -1.1875,0 0,0.714844 c 0.0573,-0.01953 0.11458,-0.03385 0.17187,-0.04297 0.0573,-0.01041 0.11458,-0.01562 0.17188,-0.01563 0.32552,2e-6 0.58333,0.0892 0.77343,0.267578 0.19011,0.178387 0.28516,0.419924 0.28516,0.72461 0,0.313803 -0.0977,0.557943 -0.29297,0.732422 -0.19531,0.173177 -0.4707,0.259765 -0.82617,0.259765 -0.1224,0 -0.2474,-0.01042 -0.375,-0.03125 -0.1263,-0.02083 -0.25716,-0.05208 -0.39258,-0.09375 l 0,-0.396484 c 0.11719,0.0638 0.23828,0.111328 0.36328,0.142578 0.125,0.03125 0.25716,0.04687 0.39649,0.04687 0.22526,0 0.40364,-0.05924 0.53515,-0.177734 0.13151,-0.118489 0.19727,-0.279296 0.19727,-0.482422 0,-0.203124 -0.0658,-0.363931 -0.19727,-0.482422 -0.13151,-0.118488 -0.30989,-0.177733 -0.53515,-0.177734 -0.10547,1e-6 -0.21094,0.01172 -0.31641,0.03516 -0.10417,0.02344 -0.21094,0.0599 -0.32031,0.109375 l 0,-1.464844 m -2.21094,7.383985 1.37695,0 0,0.332031 -1.851559,0 0,-0.332031 c 0.149739,-0.154948 0.353519,-0.36263 0.611329,-0.623047 0.25911,-0.261718 0.42187,-0.430337 0.48828,-0.50586 0.1263,-0.141925 0.21419,-0.261717 0.26367,-0.359375 0.0508,-0.09896 0.0762,-0.195961 0.0762,-0.291015 0,-0.154946 -0.0547,-0.281248 -0.16406,-0.378906 -0.10807,-0.09765 -0.24935,-0.146482 -0.42383,-0.146485 -0.1237,3e-6 -0.25455,0.02149 -0.39257,0.06445 -0.13672,0.04297 -0.283208,0.108076 -0.439458,0.195313 l 0,-0.398438 c 0.158854,-0.0638 0.307288,-0.111976 0.445308,-0.144531 0.13802,-0.03255 0.26433,-0.04883 0.37891,-0.04883 0.30208,3e-6 0.54297,0.07552 0.72266,0.226562 0.17968,0.151045 0.26953,0.352867 0.26953,0.605469 0,0.119794 -0.0228,0.233726 -0.0684,0.341797 -0.0443,0.106773 -0.12565,0.233074 -0.24414,0.378906 -0.0326,0.03776 -0.13607,0.147137 -0.31055,0.328125 -0.17448,0.179689 -0.42057,0.431642 -0.73828,0.75586 m 2.54688,0 1.37695,0 0,0.332031 -1.85156,0 0,-0.332031 c 0.14974,-0.154948 0.35351,-0.36263 0.61132,-0.623047 0.25912,-0.261718 0.42188,-0.430337 0.48829,-0.50586 0.1263,-0.141925 0.21419,-0.261717 0.26367,-0.359375 0.0508,-0.09896 0.0762,-0.195961 0.0762,-0.291015 0,-0.154946 -0.0547,-0.281248 -0.16406,-0.378906 -0.10808,-0.09765 -0.24935,-0.146482 -0.42383,-0.146485 -0.1237,3e-6 -0.25456,0.02149 -0.39258,0.06445 -0.13672,0.04297 -0.2832,0.108076 -0.43945,0.195313 l 0,-0.398438 c 0.15885,-0.0638 0.30729,-0.111976 0.44531,-0.144531 0.13802,-0.03255 0.26432,-0.04883 0.37891,-0.04883 0.30208,3e-6 0.54296,0.07552 0.72265,0.226562 0.17969,0.151045 0.26953,0.352867 0.26953,0.605469 0,0.119794 -0.0228,0.233726 -0.0684,0.341797 -0.0443,0.106773 -0.12565,0.233074 -0.24414,0.378906 -0.0326,0.03776 -0.13607,0.147137 -0.31054,0.328125 -0.17448,0.179689 -0.42058,0.431642 -0.73828,0.75586 m -2.54688,4.8 1.37695,0 0,0.332031 -1.851559,0 0,-0.332031 c 0.149739,-0.154948 0.353519,-0.36263 0.611329,-0.623047 0.25911,-0.261718 0.42187,-0.430337 0.48828,-0.505859 0.1263,-0.141926 0.21419,-0.261717 0.26367,-0.359375 0.0508,-0.09896 0.0762,-0.195962 0.0762,-0.291016 0,-0.154946 -0.0547,-0.281248 -0.16406,-0.378906 -0.10807,-0.09765 -0.24935,-0.146482 -0.42383,-0.146485 -0.1237,3e-6 -0.25455,0.02149 -0.39257,0.06445 -0.13672,0.04297 -0.283208,0.108076 -0.439458,0.195313 l 0,-0.398438 c 0.158854,-0.0638 0.307288,-0.111976 0.445308,-0.144531 0.13802,-0.03255 0.26433,-0.04883 0.37891,-0.04883 0.30208,3e-6 0.54297,0.07552 0.72266,0.226563 0.17968,0.151044 0.26953,0.352867 0.26953,0.605468 0,0.119794 -0.0228,0.233726 -0.0684,0.341797 -0.0443,0.106773 -0.12565,0.233075 -0.24414,0.378906 -0.0326,0.03776 -0.13607,0.147137 -0.31055,0.328125 -0.17448,0.179689 -0.42057,0.431642 -0.73828,0.75586 m 2.21875,0.271484 0,-0.359375 c 0.099,0.04688 0.19922,0.08268 0.30078,0.107422 0.10156,0.02474 0.20117,0.03711 0.29883,0.03711 0.26042,1e-6 0.45898,-0.08724 0.5957,-0.261718 0.13802,-0.175781 0.2168,-0.442057 0.23633,-0.798828 -0.0755,0.11198 -0.17122,0.197917 -0.28711,0.257812 -0.11589,0.0599 -0.24414,0.08984 -0.38476,0.08984 -0.29167,10e-7 -0.52279,-0.08789 -0.69336,-0.263672 -0.16927,-0.177082 -0.25391,-0.418618 -0.25391,-0.724609 0,-0.299477 0.0885,-0.539711 0.26563,-0.720704 0.17708,-0.180986 0.41275,-0.271481 0.70703,-0.271484 0.33723,3e-6 0.5944,0.12956 0.77148,0.388672 0.17838,0.257815 0.26758,0.632814 0.26758,1.125 0,0.459636 -0.10938,0.826823 -0.32813,1.101562 -0.21745,0.273438 -0.51041,0.410157 -0.8789,0.410157 -0.099,0 -0.19922,-0.0098 -0.30078,-0.0293 -0.10157,-0.01953 -0.20704,-0.04883 -0.31641,-0.08789 m 0.78516,-1.236328 c 0.17708,1e-6 0.31705,-0.06055 0.41992,-0.181641 0.10416,-0.121092 0.15625,-0.287107 0.15625,-0.498046 0,-0.209634 -0.0521,-0.374998 -0.15625,-0.496094 -0.10287,-0.122393 -0.24284,-0.183591 -0.41992,-0.183594 -0.17709,3e-6 -0.31771,0.0612 -0.42188,0.183594 -0.10286,0.121096 -0.1543,0.28646 -0.1543,0.496094 0,0.210939 0.0514,0.376954 0.1543,0.498046 0.10417,0.121096 0.24479,0.181642 0.42188,0.181641" fill="#ffffff" fill-opacity="1" stroke="none" inkscape:connector-curvature="0"/>
     <path d="m 109.20845,20.481327 1.37695,0 0,0.332031 -1.85156,0 0,-0.332031 c 0.14974,-0.154947 0.35352,-0.362629 0.61133,-0.623047 0.25911,-0.261717 0.42187,-0.430337 0.48828,-0.505859 0.1263,-0.141926 0.21419,-0.261717 0.26367,-0.359375 0.0508,-0.09896 0.0762,-0.195962 0.0762,-0.291016 0,-0.154945 -0.0547,-0.281247 -0.16406,-0.378906 -0.10807,-0.09765 -0.24935,-0.146482 -0.42383,-0.146484 -0.1237,2e-6 -0.25455,0.02149 -0.39257,0.06445 -0.13672,0.04297 -0.28321,0.108075 -0.43946,0.195312 l 0,-0.398437 c 0.15886,-0.0638 0.30729,-0.111977 0.44531,-0.144532 0.13802,-0.03255 0.26433,-0.04883 0.37891,-0.04883 0.30208,3e-6 0.54297,0.07552 0.72266,0.226563 0.17968,0.151044 0.26953,0.352867 0.26953,0.605469 0,0.119793 -0.0228,0.233725 -0.0684,0.341796 -0.0443,0.106773 -0.12565,0.233075 -0.24414,0.378907 -0.0326,0.03776 -0.13607,0.147136 -0.31055,0.328125 -0.17448,0.179688 -0.42057,0.431641 -0.73828,0.755859 m -0.32812,5.071485 0,-0.359375 c 0.099,0.04687 0.19921,0.08268 0.30078,0.107421 0.10156,0.02474 0.20117,0.03711 0.29882,0.03711 0.26042,0 0.45899,-0.08724 0.59571,-0.261719 0.13802,-0.17578 0.21679,-0.442056 0.23633,-0.798828 -0.0755,0.11198 -0.17123,0.197918 -0.28711,0.257812 -0.11589,0.0599 -0.24415,0.08984 -0.38477,0.08984 -0.29167,1e-6 -0.52279,-0.08789 -0.69336,-0.263672 -0.16927,-0.177082 -0.2539,-0.418618 -0.2539,-0.724609 0,-0.299477 0.0885,-0.539711 0.26562,-0.720703 0.17708,-0.180987 0.41276,-0.271482 0.70703,-0.271485 0.33724,3e-6 0.5944,0.129561 0.77149,0.388672 0.17838,0.257815 0.26757,0.632815 0.26757,1.125 0,0.459637 -0.10937,0.826824 -0.32812,1.101563 -0.21745,0.273437 -0.51042,0.410156 -0.87891,0.410156 -0.099,0 -0.19922,-0.0098 -0.30078,-0.0293 -0.10156,-0.01953 -0.20703,-0.04883 -0.3164,-0.08789 m 0.78515,-1.236329 c 0.17708,2e-6 0.31706,-0.06055 0.41992,-0.18164 0.10417,-0.121092 0.15625,-0.287108 0.15625,-0.498047 0,-0.209633 -0.0521,-0.374998 -0.15625,-0.496094 -0.10286,-0.122393 -0.24284,-0.183591 -0.41992,-0.183594 -0.17708,3e-6 -0.31771,0.0612 -0.42187,0.183594 -0.10287,0.121096 -0.1543,0.286461 -0.1543,0.496094 0,0.210939 0.0514,0.376955 0.1543,0.498047 0.10416,0.121095 0.24479,0.181642 0.42187,0.18164 m -2.00195,5.764844 0.64453,0 0,-2.224609 -0.70117,0.140625 0,-0.359375 0.69726,-0.140625 0.39453,0 0,2.583984 0.64454,0 0,0.332032 -1.67969,0 0,-0.332032 m 3.37109,-1.283203 c -0.17708,2e-6 -0.31771,0.06055 -0.42187,0.181641 -0.10287,0.121095 -0.1543,0.28711 -0.1543,0.498047 0,0.209636 0.0514,0.375651 0.1543,0.498047 0.10416,0.121094 0.24479,0.181641 0.42187,0.18164 0.17708,1e-6 0.31706,-0.06055 0.41992,-0.18164 0.10417,-0.122396 0.15625,-0.288411 0.15625,-0.498047 0,-0.210937 -0.0521,-0.376952 -0.15625,-0.498047 -0.10286,-0.121092 -0.24284,-0.181639 -0.41992,-0.181641 m 0.78321,-1.236328 0,0.359375 c -0.099,-0.04687 -0.19923,-0.08268 -0.30079,-0.107422 -0.10026,-0.02474 -0.19987,-0.03711 -0.29882,-0.03711 -0.26042,3e-6 -0.45964,0.08789 -0.59766,0.263672 -0.13672,0.175783 -0.21484,0.441408 -0.23438,0.796875 0.0768,-0.11328 0.17318,-0.199868 0.28907,-0.259766 0.11588,-0.0612 0.24349,-0.0918 0.38281,-0.0918 0.29297,2e-6 0.52409,0.0892 0.69336,0.267578 0.17057,0.177085 0.25586,0.418621 0.25586,0.72461 0,0.29948 -0.0885,0.539714 -0.26563,0.720703 -0.17708,0.18099 -0.41276,0.271484 -0.70703,0.271484 -0.33724,0 -0.59505,-0.128906 -0.77344,-0.386718 -0.17838,-0.259114 -0.26757,-0.634114 -0.26757,-1.125 0,-0.460936 0.10937,-0.828123 0.32812,-1.101563 0.21875,-0.274737 0.51237,-0.412106 0.88086,-0.412109 0.099,3e-6 0.19857,0.0098 0.29883,0.0293 0.10156,0.01953 0.20703,0.04883 0.31641,0.08789 m -3.88282,7.319532 1.37696,0 0,0.332031 -1.85157,0 0,-0.332031 c 0.14974,-0.154948 0.35352,-0.36263 0.61133,-0.623047 0.25911,-0.261718 0.42188,-0.430337 0.48828,-0.50586 0.1263,-0.141925 0.21419,-0.261717 0.26367,-0.359375 0.0508,-0.09896 0.0762,-0.195961 0.0762,-0.291015 -1e-5,-0.154946 -0.0547,-0.281248 -0.16407,-0.378906 -0.10807,-0.09765 -0.24935,-0.146482 -0.42382,-0.146485 -0.1237,3e-6 -0.25456,0.02149 -0.39258,0.06445 -0.13672,0.04297 -0.28321,0.108076 -0.43946,0.195313 l 0,-0.398438 c 0.15886,-0.0638 0.3073,-0.111976 0.44532,-0.144531 0.13802,-0.03255 0.26432,-0.04883 0.3789,-0.04883 0.30209,3e-6 0.54297,0.07552 0.72266,0.226562 0.17969,0.151045 0.26953,0.352867 0.26953,0.605469 0,0.119794 -0.0228,0.233726 -0.0684,0.341797 -0.0443,0.106773 -0.12565,0.233074 -0.24414,0.378906 -0.0326,0.03776 -0.13607,0.147137 -0.31055,0.328125 -0.17448,0.179689 -0.42057,0.431642 -0.73828,0.75586 m 3.40235,-1.240235 c 0.1888,0.04037 0.33593,0.124351 0.4414,0.251953 0.10677,0.127606 0.16016,0.285158 0.16016,0.472657 0,0.287761 -0.099,0.510417 -0.29688,0.667968 -0.19791,0.157552 -0.47916,0.236328 -0.84375,0.236329 -0.12239,-10e-7 -0.24869,-0.01237 -0.3789,-0.03711 -0.12891,-0.02344 -0.26237,-0.05924 -0.40039,-0.107422 l 0,-0.380859 c 0.10937,0.0638 0.22916,0.111979 0.35937,0.144531 0.13021,0.03255 0.26628,0.04883 0.40821,0.04883 0.24739,10e-7 0.43554,-0.04883 0.56445,-0.146484 0.13021,-0.09766 0.19531,-0.239583 0.19531,-0.425781 0,-0.171874 -0.0606,-0.305989 -0.18164,-0.402344 -0.11979,-0.09765 -0.28711,-0.146483 -0.50195,-0.146484 l -0.33985,0 0,-0.324219 0.35547,0 c 0.19401,10e-7 0.34245,-0.03841 0.44531,-0.115235 0.10287,-0.07812 0.1543,-0.190102 0.1543,-0.335937 0,-0.149737 -0.0534,-0.264321 -0.16015,-0.34375 -0.10547,-0.08073 -0.25717,-0.121091 -0.45508,-0.121094 -0.10808,3e-6 -0.22396,0.01172 -0.34766,0.03516 -0.1237,0.02344 -0.25977,0.0599 -0.4082,0.109375 l 0,-0.351562 c 0.14974,-0.04166 0.28971,-0.07291 0.41992,-0.09375 0.13151,-0.02083 0.25521,-0.03125 0.37109,-0.03125 0.29948,3e-6 0.53646,0.06836 0.71094,0.205078 0.17448,0.135419 0.26172,0.319013 0.26172,0.550781 0,0.161461 -0.0462,0.298179 -0.13867,0.410157 -0.0925,0.110678 -0.22396,0.187501 -0.39453,0.230468 m -2.54688,4.8 c 0.1888,0.04037 0.33594,0.124351 0.44141,0.251954 0.10677,0.127605 0.16015,0.285157 0.16015,0.472656 0,0.287761 -0.099,0.510417 -0.29687,0.667969 -0.19792,0.157552 -0.47917,0.236328 -0.84375,0.236328 -0.1224,0 -0.2487,-0.01237 -0.37891,-0.03711 -0.1289,-0.02344 -0.26237,-0.05924 -0.40039,-0.107422 l 0,-0.380859 c 0.10938,0.0638 0.22917,0.11198 0.35938,0.144531 0.1302,0.03255 0.26627,0.04883 0.4082,0.04883 0.24739,10e-7 0.43555,-0.04883 0.56445,-0.146484 0.13021,-0.09766 0.19531,-0.239583 0.19532,-0.425781 -1e-5,-0.171874 -0.0606,-0.305989 -0.18164,-0.402344 -0.1198,-0.09766 -0.28712,-0.146483 -0.50196,-0.146484 l -0.33984,0 0,-0.324219 0.35547,0 c 0.19401,2e-6 0.34244,-0.03841 0.44531,-0.115234 0.10286,-0.07812 0.15429,-0.190103 0.1543,-0.335938 -10e-6,-0.149737 -0.0534,-0.26432 -0.16016,-0.34375 -0.10547,-0.08073 -0.25716,-0.121091 -0.45508,-0.121094 -0.10807,3e-6 -0.22396,0.01172 -0.34765,0.03516 -0.1237,0.02344 -0.25977,0.0599 -0.40821,0.109375 l 0,-0.351563 c 0.14974,-0.04166 0.28972,-0.07291 0.41992,-0.09375 0.13151,-0.02083 0.25521,-0.03125 0.3711,-0.03125 0.29948,3e-6 0.53646,0.06836 0.71094,0.205078 0.17447,0.135419 0.26171,0.319013 0.26171,0.550781 0,0.161461 -0.0462,0.298179 -0.13867,0.410157 -0.0924,0.110678 -0.22396,0.187501 -0.39453,0.230468 m 2.19531,-1.083984 c -0.20312,3e-6 -0.35612,0.100263 -0.45898,0.300781 -0.10156,0.199221 -0.15234,0.499351 -0.15234,0.900391 0,0.399741 0.0508,0.69987 0.15234,0.900391 0.10286,0.199219 0.25586,0.298828 0.45898,0.298828 0.20443,0 0.35742,-0.09961 0.45899,-0.298828 0.10286,-0.200521 0.15429,-0.50065 0.1543,-0.900391 -1e-5,-0.40104 -0.0514,-0.70117 -0.1543,-0.900391 -0.10157,-0.200518 -0.25456,-0.300778 -0.45899,-0.300781 m 0,-0.3125 c 0.32683,3e-6 0.57617,0.12956 0.74805,0.388672 0.17318,0.257815 0.25976,0.632814 0.25977,1.125 -10e-6,0.490886 -0.0866,0.865886 -0.25977,1.125 -0.17188,0.257813 -0.42122,0.386719 -0.74805,0.386719 -0.32682,0 -0.57682,-0.128906 -0.75,-0.386719 -0.17187,-0.259114 -0.25781,-0.634114 -0.25781,-1.125 0,-0.492186 0.0859,-0.867185 0.25781,-1.125 0.17318,-0.259112 0.42318,-0.388669 0.75,-0.388672" fill="#ffffff" fill-opacity="1" stroke="none" inkscape:connector-curvature="0"/>
    </g>
    <g transform="matrix(1.09524 0 0 1.09524 -124.43 948.65)">
     <path d="m 15.789525,26.170333 c -0.399853,0 -0.756324,-0.04149 -1.069411,-0.124481 -0.313094,-0.08299 -0.58469,-0.215014 -0.814792,-0.396078 -0.230103,-0.181065 -0.420598,-0.41494 -0.571485,-0.701625 C 13.186723,24.657692 13.075443,24.30688 13,23.895711 l 1.657872,-0.243306 c 0.03773,0.222562 0.09053,0.41117 0.158431,0.565827 0.0679,0.150889 0.148999,0.27537 0.243305,0.373445 0.09807,0.09431 0.209353,0.164091 0.333838,0.209357 0.12448,0.04151 0.260278,0.06224 0.407395,0.06224 0.331948,1e-6 0.582798,-0.111278 0.752548,-0.333838 0.173517,-0.222556 0.260277,-0.541305 0.260282,-0.956247 l 0,-4.181456 -1.589973,0 0,-1.30706 3.253501,0 0,5.448909 c -5e-6,0.403624 -0.05847,0.769525 -0.175405,1.097703 -0.116944,0.324408 -0.290463,0.601662 -0.520561,0.831765 -0.226334,0.226331 -0.507362,0.401736 -0.843082,0.526218 -0.331954,0.12071 -0.714829,0.181065 -1.148626,0.181065" fill="#ffffff" fill-opacity="1" stroke="none" inkscape:connector-curvature="0"/>
     <path d="m 25.684736,26.059605 -0.692049,-1.993102 -2.973046,0 -0.692049,1.993102 -1.633237,0 2.845708,-7.800782 1.926666,0 2.834634,7.800782 -1.616627,0 m -1.827011,-5.464423 c -0.04429,-0.129177 -0.08859,-0.258359 -0.132873,-0.387548 -0.0406,-0.132867 -0.07751,-0.252822 -0.110729,-0.359866 -0.02953,-0.110721 -0.05537,-0.201149 -0.07751,-0.271283 -0.01846,-0.07012 -0.02953,-0.108876 -0.03322,-0.116264 -0.0037,0.01108 -0.01477,0.05168 -0.03322,0.1218 -0.01845,0.07013 -0.04429,0.158717 -0.07751,0.265747 -0.02953,0.107044 -0.06644,0.226999 -0.110728,0.359866 -0.0406,0.129189 -0.08305,0.258371 -0.127337,0.387548 l -0.769559,2.242241 2.242241,0 -0.76956,-2.242241" fill="#ffffff" fill-opacity="1" stroke="none" inkscape:connector-curvature="0"/>
     <path d="m 33.418701,26.059605 -3.724258,-6.00699 c 0.02021,0.162407 0.03841,0.324808 0.0546,0.487203 0.01618,0.140261 0.02831,0.291589 0.03639,0.453984 0.01213,0.162407 0.0182,0.317426 0.0182,0.465058 l 0,4.600745 -1.58918,0 0,-7.800782 2.044098,0 3.778849,6.056817 C 34.01718,24.160623 33.99897,23.998222 33.9828,23.828438 33.96661,23.684494 33.95246,23.522093 33.94034,23.341235 33.93224,23.160382 33.9282,22.977681 33.9282,22.793132 l 0,-4.534309 1.589179,0 0,7.800782 -2.098686,0" fill="#ffffff" fill-opacity="1" stroke="none" inkscape:connector-curvature="0"/>
    </g>
    <path d="m -73.8809,1013.2681 c -2.8e-5,3.0516 -0.279505,5.6273 -0.838423,7.7271 -0.558973,2.0848 -1.336967,3.7767 -2.333988,5.0759 -0.981964,1.2841 -2.152728,2.2131 -3.512319,2.7872 -1.344515,0.5589 -2.817418,0.8384 -4.41872,0.8384 -1.601321,0 -3.074233,-0.2795 -4.418721,-0.8384 -1.344504,-0.559 -2.500172,-1.4805 -3.466992,-2.7645 -0.966832,-1.2992 -1.722172,-2.9912 -2.266012,-5.0759 -0.543841,-2.0998 -0.815761,-4.6831 -0.815761,-7.7498 0,-3.2177 0.264363,-5.8765 0.793108,-7.9763 0.543831,-2.1149 1.306729,-3.7993 2.288665,-5.0532 0.981935,-1.25384 2.152699,-2.13003 3.512317,-2.62858 1.374698,-0.5136 2.892926,-0.77042 4.554675,-0.77045 1.555979,3e-5 2.998672,0.25685 4.32808,0.77045 1.344478,0.49855 2.500146,1.37474 3.466995,2.62858 0.981917,1.2539 1.744805,2.9383 2.288673,5.0532 0.558918,2.0998 0.838395,4.7586 0.838423,7.9763 m -6.390148,0 c -1.8e-5,-2.2508 -0.08315,-4.109 -0.249258,-5.5743 -0.166193,-1.4805 -0.430565,-2.6513 -0.793108,-3.5124 -0.362578,-0.8761 -0.83844,-1.4879 -1.427588,-1.8354 -0.574069,-0.3475 -1.276528,-0.5212 -2.107384,-0.5212 -0.891313,0 -1.639096,0.1813 -2.243348,0.5438 -0.60428,0.3475 -1.095257,0.9593 -1.472913,1.8355 -0.36257,0.8762 -0.626932,2.0545 -0.793099,3.535 -0.151078,1.4654 -0.226613,3.3084 -0.226603,5.529 -1e-5,2.1905 0.08305,4.0184 0.249257,5.4838 0.166165,1.4653 0.430539,2.6437 0.793107,3.535 0.362551,0.8762 0.838415,1.4955 1.427588,1.8581 0.589147,0.3626 1.314277,0.5438 2.175372,0.5438 0.830856,0 1.540871,-0.1812 2.130046,-0.5438 0.589146,-0.3626 1.072557,-0.9819 1.450241,-1.8581 0.377656,-0.8913 0.649577,-2.0697 0.81577,-3.535 0.181261,-1.4654 0.271902,-3.2933 0.27192,-5.4838" fill="#000000" fill-opacity="1" stroke="none" opacity="0.8" inkscape:connector-curvature="0"/>
    <path d="m -66.06729,1029.6967 0,-4.8738 6.259988,0 0,-21.4707 -6.003465,4.9204 0,-6.0929 6.353257,-5.34013 6.20298,0 0,27.98333 5.653684,0 0,4.8738 -18.466436,0" fill="#000000" fill-opacity="1" stroke="none" opacity="0.8" inkscape:connector-curvature="0"/>
   </g>
  </g>
  <text x="17.625" font-size="24" font-style="normal" letter-spacing="0" y="995.74" font-weight="normal" line-height="125%" fill="#ffd5d5" fill-opacity="1" stroke="none" word-spacing="0" font-family="Sans" sodipodi:linespacing="125%"><tspan x="17.625" font-size="4" y="995.74" sodipodi:role="line">winardiaris</tspan>
  </text>
 </g>
</svg>
