<?xml version="1.0" encoding="UTF-8" standalone="no"?>
<!-- Created with Inkscape (http://www.inkscape.org/) -->

<svg
   xmlns:dc="http://purl.org/dc/elements/1.1/"
   xmlns:cc="http://creativecommons.org/ns#"
   xmlns:rdf="http://www.w3.org/1999/02/22-rdf-syntax-ns#"
   xmlns:svg="http://www.w3.org/2000/svg"
   xmlns="http://www.w3.org/2000/svg"
   xmlns:sodipodi="http://sodipodi.sourceforge.net/DTD/sodipodi-0.dtd"
   xmlns:inkscape="http://www.inkscape.org/namespaces/inkscape"
   id="svg7384"
   height="16"
   width="16"
   version="1.1"
   inkscape:version="0.48.5 r10040"
   sodipodi:docname="facebook-symbolic.svg">
  <defs
     id="defs10933" />
  <sodipodi:namedview
     pagecolor="#ffffff"
     bordercolor="#666666"
     borderopacity="1"
     objecttolerance="10"
     gridtolerance="10"
     guidetolerance="10"
     inkscape:pageopacity="0"
     inkscape:pageshadow="2"
     inkscape:window-width="640"
     inkscape:window-height="480"
     id="namedview10931" />
  <title
     id="title9167">Gnome Symbolic Icon Theme</title>
  <metadata
     id="metadata90">
    <rdf:RDF>
      <cc:Work
         rdf:about="">
        <dc:format>image/svg+xml</dc:format>
        <dc:type
           rdf:resource="http://purl.org/dc/dcmitype/StillImage" />
        <dc:title>Gnome Symbolic Icon Theme</dc:title>
      </cc:Work>
    </rdf:RDF>
  </metadata>
  <path
     id="rect5505-3"
     d="m2.875 1c-1.0341 0-1.875 0.8409-1.875 1.875v10.25c0 1.034 0.8409 1.875 1.875 1.875h10.25c1.034 0 1.875-0.841 1.875-1.875v-10.25c0-1.0341-0.841-1.875-1.875-1.875h-10.25zm8.1875 2.0312c0.287 0.0154 0.607 0.0643 0.938 0.0938v1.875c-1-0.2976-1.516-0.2575-1.719 0-0.202 0.2575-0.281 0.5065-0.281 1h2v2h-2v5h-2v-5h-2v-2h2v-0.5c-9e-7 -0.95004 0.2807-1.3062 0.8125-1.7812 0.71634-0.62994 1.3894-0.73368 2.25-0.6875z"
     style="color:#bebebe;fill:#bebebe" />
</svg>
