<svg height="96" width="96" xmlns="http://www.w3.org/2000/svg" xmlns:xlink="http://www.w3.org/1999/xlink" xmlns:sodipodi="http://sodipodi.sourceforge.net/DTD/sodipodi-0.dtd" xmlns:inkscape="http://www.inkscape.org/namespaces/inkscape">
 <defs>
  <radialGradient cy="693.9" r="364.53" gradientUnits="userSpaceOnUse" id="radialGradient3976" cx="372.91" gradientTransform="matrix(1.1265 0 0 0.81132 -47.18 135.69)">
   <stop stop-color="#66a9f5"/>
   <stop stop-color="#3d73b6" offset="0.4"/>
   <stop stop-color="#143e78" offset="1"/>
  </radialGradient>
  <radialGradient cy="52.07" r="6.25" gradientUnits="userSpaceOnUse" id="radialGradient5331" cx="111.25" gradientTransform="matrix(1 0 0 6.1143 0 -266.31)">
   <stop/>
   <stop stop-color="#10213a" stop-opacity="0.659" offset="0.574"/>
   <stop stop-color="#1c3b68" stop-opacity="0" offset="1"/>
  </radialGradient>
  <radialGradient cy="98.02" r="24.17" gradientUnits="userSpaceOnUse" id="radialGradient4558" cx="127.28" gradientTransform="matrix(1 0 0 1.0496 -79.3 -57.14)">
   <stop stop-color="#e3ebf3"/>
   <stop stop-color="#cedceb" stop-opacity="0.392" offset="1"/>
  </radialGradient>
  <radialGradient cy="-49.31" r="114" gradientUnits="userSpaceOnUse" id="radialGradient3964" cx="21.75" gradientTransform="matrix(0.22814 0 0 0.22813 42.548 57.656)">
   <stop stop-color="#fff" stop-opacity="0"/>
   <stop stop-color="#0f4480" stop-opacity="0" offset="0.872"/>
   <stop stop-color="#0c3163" stop-opacity="0.875" offset="1"/>
  </radialGradient>
  <linearGradient x1="4.243" x2="6.376" xlink:href="#linearGradient4317" y1="-164.74" y2="-47.45" gradientUnits="userSpaceOnUse" id="linearGradient3961" gradientTransform="matrix(0.24057 0 0 0.26961 42.832 65.791)"/>
  <linearGradient id="linearGradient4317">
   <stop stop-color="#fff"/>
   <stop stop-color="#fff" stop-opacity="0" offset="1"/>
  </linearGradient>
  <linearGradient x2="0" xlink:href="#linearGradient4317" y1="-164.74" y2="-32.69" gradientUnits="userSpaceOnUse" id="linearGradient3956" gradientTransform="matrix(0.18908 0 0 0.18147 43.834 51.27)"/>
  <linearGradient x1="6" x2="77.53" gradientUnits="userSpaceOnUse" id="linearGradient7646">
   <stop stop-color="#df731b"/>
   <stop stop-color="#df731b" stop-opacity="0" offset="1"/>
  </linearGradient>
  <linearGradient x1="46.15" x2="92.14" y1="10.333" y2="90" gradientUnits="userSpaceOnUse" id="linearGradient7654">
   <stop stop-color="#f69909"/>
   <stop stop-color="#f69909" stop-opacity="0" offset="1"/>
  </linearGradient>
  <linearGradient x1="76.07" x2="83.63" xlink:href="#linearGradient4046" y1="65.42" y2="72.971" gradientUnits="userSpaceOnUse" id="linearGradient4062" gradientTransform="matrix(-0.45199 -0.26064 0.21843 -0.58652 51.613 142.52)"/>
  <linearGradient id="linearGradient4046">
   <stop stop-color="#9d1701"/>
   <stop stop-color="#df731b" offset="1"/>
  </linearGradient>
  <linearGradient x1="76.07" x2="83.63" xlink:href="#linearGradient4046" y1="65.42" y2="72.971" gradientUnits="userSpaceOnUse" id="linearGradient4054" gradientTransform="matrix(-0.67785 -0.58496 0.61224 -0.69207 35.36 175.04)"/>
  <linearGradient x1="76.07" x2="83.63" xlink:href="#linearGradient4046" y1="65.42" y2="72.971" gradientUnits="userSpaceOnUse" id="linearGradient4044" gradientTransform="matrix(-0.3837 -0.98184 1.0181 -0.38348 -27.63 180.23)"/>
  <linearGradient x1="76.07" x2="83.63" xlink:href="#linearGradient4008" y1="65.42" y2="72.971" gradientUnits="userSpaceOnUse" id="linearGradient4040" gradientTransform="matrix(-0.13212 -0.47754 0.47754 -0.13212 -0.702 121.26)"/>
  <linearGradient id="linearGradient4008">
   <stop stop-color="#ffa04c"/>
   <stop stop-color="#df731b" offset="1"/>
  </linearGradient>
  <linearGradient x1="76.07" x2="83.63" xlink:href="#linearGradient4008" y1="65.42" y2="72.971" gradientUnits="userSpaceOnUse" id="linearGradient4036" gradientTransform="matrix(-0.14172 -0.51961 0.51961 -0.14172 -10.328 117.8)"/>
  <linearGradient x1="76.07" x2="83.63" xlink:href="#linearGradient4008" y1="65.42" y2="72.971" gradientUnits="userSpaceOnUse" id="linearGradient4006" gradientTransform="matrix(-0.21981 -1.1673 1.1673 -0.21981 -43.12 180.46)"/>
  <linearGradient x1="76.07" x2="83.63" xlink:href="#linearGradient4008" y1="65.42" y2="72.971" gradientUnits="userSpaceOnUse" id="linearGradient4016" gradientTransform="matrix(-0.62805 -0.71406 0.71406 -0.62805 28.23 175.16)"/>
  <linearGradient x1="76.07" x2="83.63" xlink:href="#linearGradient4008" y1="65.42" y2="72.971" gradientUnits="userSpaceOnUse" id="linearGradient4020" gradientTransform="matrix(0.19587 -0.69964 0.69964 0.19587 -48.673 98.35)"/>
  <linearGradient x1="76.07" x2="83.63" xlink:href="#linearGradient4008" y1="65.42" y2="72.971" gradientUnits="userSpaceOnUse" id="linearGradient4024" gradientTransform="matrix(-0.00788 -0.94774 0.94774 -0.00788 -49.922 138.7)"/>
  <linearGradient x1="76.07" x2="83.63" xlink:href="#linearGradient4008" y1="65.42" y2="72.971" gradientUnits="userSpaceOnUse" id="linearGradient4028" gradientTransform="matrix(-0.59948 -0.32627 0.32627 -0.59948 59.964 143.83)"/>
  <linearGradient x1="76.07" x2="83.63" xlink:href="#linearGradient4008" y1="65.42" y2="72.971" gradientUnits="userSpaceOnUse" id="linearGradient4032" gradientTransform="matrix(0.0339 -0.44892 0.44892 0.0339 -24.479 88.69)"/>
  <linearGradient x1="76.07" x2="83.63" xlink:href="#linearGradient4046" y1="65.42" y2="72.971" gradientUnits="userSpaceOnUse" id="linearGradient4058" gradientTransform="matrix(-0.20204 -0.45382 0.47088 -0.20273 -7.926 124.28)"/>
  <linearGradient x1="76.07" x2="83.63" xlink:href="#linearGradient3781" y1="65.42" y2="72.971" gradientUnits="userSpaceOnUse" id="linearGradient4101" gradientTransform="matrix(-0.2272 -0.48575 0.50168 -0.21998 7.58 78.2)"/>
  <linearGradient id="linearGradient3781">
   <stop stop-color="#ffd283"/>
   <stop stop-color="#f59811" offset="1"/>
  </linearGradient>
  <linearGradient x1="76.07" x2="83.63" xlink:href="#linearGradient3781" y1="65.42" y2="72.971" gradientUnits="userSpaceOnUse" id="linearGradient3973" gradientTransform="matrix(0.65266 -0.3311 0.30386 0.68376 -6.924 7.485)"/>
  <linearGradient x1="76.07" x2="83.63" xlink:href="#linearGradient3727" y1="65.42" y2="72.971" gradientUnits="userSpaceOnUse" id="linearGradient3743" gradientTransform="matrix(0.71637 -0.26304 0.26304 0.71637 8.624 51.59)"/>
  <linearGradient id="linearGradient3727">
   <stop stop-color="#ffae65"/>
   <stop stop-color="#ffa04c" stop-opacity="0" offset="1"/>
  </linearGradient>
  <linearGradient x1="76.07" x2="83.63" xlink:href="#linearGradient3993" y1="65.42" y2="72.971" gradientUnits="userSpaceOnUse" id="linearGradient3955" gradientTransform="matrix(-0.63547 -1.0079 1.0079 -0.63547 -2.499 154.67)"/>
  <linearGradient id="linearGradient3993">
   <stop stop-color="#ffeaa8"/>
   <stop stop-color="#ffc512" offset="0.607"/>
   <stop stop-color="#f59811" offset="1"/>
  </linearGradient>
  <linearGradient x1="76.07" x2="83.63" xlink:href="#linearGradient3993" y1="65.42" y2="72.971" gradientUnits="userSpaceOnUse" id="linearGradient3919" gradientTransform="matrix(1.1068 -0.44133 0.44133 1.1068 -51.15 -16.819)"/>
  <linearGradient x1="76.07" x2="83.63" xlink:href="#linearGradient3781" y1="65.42" y2="72.971" gradientUnits="userSpaceOnUse" id="linearGradient3915" gradientTransform="matrix(0.52255 -0.34343 0.34343 0.52255 8.177 30.04)"/>
  <linearGradient x1="76.07" x2="83.63" xlink:href="#linearGradient3727" y1="65.42" y2="72.971" gradientUnits="userSpaceOnUse" id="linearGradient3911" gradientTransform="matrix(0.34492 -0.36811 0.36811 0.34492 29.19 57.05)"/>
  <linearGradient x1="76.07" x2="83.63" xlink:href="#linearGradient3727" y1="65.42" y2="72.971" gradientUnits="userSpaceOnUse" id="linearGradient3733" gradientTransform="matrix(0.98203 -0.36059 0.36059 0.98203 -21.724 31.1)"/>
  <linearGradient x1="76.07" x2="83.63" xlink:href="#linearGradient3727" y1="65.42" y2="72.971" gradientUnits="userSpaceOnUse" id="linearGradient3759" gradientTransform="matrix(0.69146 -0.2539 0.2539 0.69146 12.464 46.24)"/>
  <linearGradient x1="76.07" x2="83.63" xlink:href="#linearGradient3727" y1="65.42" y2="72.971" gradientUnits="userSpaceOnUse" id="linearGradient3763" gradientTransform="matrix(0.36084 -0.38509 0.38509 0.36084 30.03 87.96)"/>
  <linearGradient x1="76.07" x2="83.63" xlink:href="#linearGradient3781" y1="65.42" y2="72.971" gradientUnits="userSpaceOnUse" id="linearGradient3779" gradientTransform="matrix(1.1671 -0.23992 0.23992 1.1671 -32.02 -45.739)"/>
  <linearGradient x1="76.07" x2="83.63" xlink:href="#linearGradient3781" y1="65.42" y2="72.971" gradientUnits="userSpaceOnUse" id="linearGradient3855" gradientTransform="matrix(1.1637 0.07552 -0.07552 1.1637 -10.198 -53.96)"/>
  <linearGradient x1="76.07" x2="83.63" xlink:href="#linearGradient3843" y1="65.42" y2="72.971" gradientUnits="userSpaceOnUse" id="linearGradient3789" gradientTransform="matrix(1.1903 0.05309 -0.05309 1.1903 -11.899 -45.928)"/>
  <linearGradient id="linearGradient3843">
   <stop stop-color="#ffd893"/>
   <stop stop-color="#e58010" offset="1"/>
  </linearGradient>
  <linearGradient x1="76.07" x2="83.63" xlink:href="#linearGradient3781" y1="65.42" y2="72.971" gradientUnits="userSpaceOnUse" id="linearGradient3801" gradientTransform="matrix(0.7255 -0.09614 0.06015 0.74582 20.705 -30.667)"/>
  <linearGradient x1="76.07" x2="83.63" xlink:href="#linearGradient3781" y1="65.42" y2="72.971" gradientUnits="userSpaceOnUse" id="linearGradient3797" gradientTransform="matrix(0.52255 -0.34343 0.34343 0.52255 21.436 11.479)"/>
  <linearGradient x1="76.07" x2="83.63" xlink:href="#linearGradient3781" y1="65.42" y2="72.971" gradientUnits="userSpaceOnUse" id="linearGradient3805" gradientTransform="matrix(0.37117 -0.1872 0.1872 0.37117 41.789 4.967)"/>
  <linearGradient x1="76.07" x2="83.63" xlink:href="#linearGradient3781" y1="65.42" y2="72.971" gradientUnits="userSpaceOnUse" id="linearGradient3809" gradientTransform="matrix(0.39483 0.13009 -0.13009 0.39483 64.04 -24.574)"/>
  <linearGradient x1="76.07" x2="83.63" xlink:href="#linearGradient3781" y1="65.42" y2="72.971" gradientUnits="userSpaceOnUse" id="linearGradient3813" gradientTransform="matrix(0.5041 -0.02919 0.02919 0.5041 45.998 -7.269)"/>
  <linearGradient x1="76.07" x2="83.63" xlink:href="#linearGradient3993" y1="65.42" y2="72.971" gradientUnits="userSpaceOnUse" id="linearGradient3825" gradientTransform="matrix(0.06726 -1.1896 1.1896 0.06726 -72.988 108.22)"/>
  <linearGradient x1="76.07" x2="83.63" xlink:href="#linearGradient3993" y1="65.42" y2="72.971" gradientUnits="userSpaceOnUse" id="linearGradient3817" gradientTransform="matrix(0.6288 -1.0121 1.0121 0.6288 -99.95 49.585)"/>
  <linearGradient x1="76.07" x2="83.63" xlink:href="#linearGradient3993" y1="65.42" y2="72.971" gradientUnits="userSpaceOnUse" id="linearGradient3829" gradientTransform="matrix(0.03993 -0.98284 0.98284 0.03993 -47.34 96.26)"/>
  <linearGradient x1="76.07" x2="83.63" xlink:href="#linearGradient3993" y1="65.42" y2="72.971" gradientUnits="userSpaceOnUse" id="linearGradient3821" gradientTransform="matrix(0.38694 -1.3421 1.3421 0.38694 -99.1 96.52)"/>
  <linearGradient x1="76.07" x2="83.63" xlink:href="#linearGradient3781" y1="65.42" y2="72.971" gradientUnits="userSpaceOnUse" id="linearGradient3833" gradientTransform="matrix(-0.18692 -0.59671 0.59671 -0.18692 -12.997 89.54)"/>
  <linearGradient x1="76.07" x2="83.63" xlink:href="#linearGradient3781" y1="65.42" y2="72.971" gradientUnits="userSpaceOnUse" id="linearGradient3837" gradientTransform="matrix(0.94114 -0.73072 0.73072 0.94114 -94.1 2.43)"/>
  <linearGradient x1="76.07" x2="83.63" xlink:href="#linearGradient3993" y1="65.42" y2="72.971" gradientUnits="userSpaceOnUse" id="linearGradient3841" gradientTransform="matrix(0.60778 -0.65784 0.65784 0.60778 -56.28 25.16)"/>
  <linearGradient x1="76.07" x2="83.63" xlink:href="#linearGradient3843" y1="65.42" y2="72.971" gradientUnits="userSpaceOnUse" id="linearGradient3851" gradientTransform="matrix(0.82466 0.21967 -0.21967 0.82466 34.601 -36.799)"/>
  <linearGradient x1="76.07" x2="83.63" xlink:href="#linearGradient3843" y1="65.42" y2="72.971" gradientUnits="userSpaceOnUse" id="linearGradient3859" gradientTransform="matrix(0.45825 -0.29087 0.29087 0.45825 21.662 36.16)"/>
  <linearGradient x1="76.07" x2="83.63" xlink:href="#linearGradient3843" y1="65.42" y2="72.971" gradientUnits="userSpaceOnUse" id="linearGradient3863" gradientTransform="matrix(0.68318 -0.31426 0.31426 0.68318 5.851 27.27)"/>
  <linearGradient x1="76.07" x2="83.63" xlink:href="#linearGradient3843" y1="65.42" y2="72.971" gradientUnits="userSpaceOnUse" id="linearGradient3871" gradientTransform="matrix(0.46732 -0.1161 0.1161 0.46732 42.42 22.496)"/>
  <linearGradient x1="76.07" x2="83.63" xlink:href="#linearGradient3727" y1="65.42" y2="72.971" gradientUnits="userSpaceOnUse" id="linearGradient3875" gradientTransform="matrix(0.97825 0.20744 -0.20744 0.97825 22.22 -23.17)"/>
  <linearGradient x1="76.07" x2="83.63" xlink:href="#linearGradient3727" y1="65.42" y2="72.971" gradientUnits="userSpaceOnUse" id="linearGradient3879" gradientTransform="matrix(0.792 0.29464 -0.29464 0.792 42.539 -26.705)"/>
  <linearGradient x1="76.07" x2="83.63" xlink:href="#linearGradient3727" y1="65.42" y2="72.971" gradientUnits="userSpaceOnUse" id="linearGradient3889" gradientTransform="matrix(0.73637 0.01861 -0.01861 0.73637 24.561 12.365)"/>
  <linearGradient x1="76.07" x2="83.63" xlink:href="#linearGradient3727" y1="65.42" y2="72.971" gradientUnits="userSpaceOnUse" id="linearGradient3893" gradientTransform="matrix(0.47831 -0.22297 0.22297 0.47831 32.536 52.27)"/>
  <linearGradient x1="76.07" x2="83.63" xlink:href="#linearGradient3727" y1="65.42" y2="72.971" gradientUnits="userSpaceOnUse" id="linearGradient3901" gradientTransform="matrix(0.73641 -0.01673 0.01673 0.73641 30.618 8.859)"/>
  <linearGradient x1="76.07" x2="83.63" xlink:href="#linearGradient3993" y1="65.42" y2="72.971" gradientUnits="userSpaceOnUse" id="linearGradient3923" gradientTransform="matrix(0.96366 -0.70075 0.70075 0.96366 -77.885 0.331)"/>
  <linearGradient x1="76.07" x2="83.63" xlink:href="#linearGradient3993" y1="65.42" y2="72.971" gradientUnits="userSpaceOnUse" id="linearGradient3947" gradientTransform="matrix(0.19904 -0.70426 0.70865 0.24014 -16.875 56.922)"/>
  <linearGradient x1="76.07" x2="83.63" xlink:href="#linearGradient3993" y1="65.42" y2="72.971" gradientUnits="userSpaceOnUse" id="linearGradient3927" gradientTransform="matrix(0.94757 -1.0262 1.0262 0.94757 -94.16 31.406)"/>
  <linearGradient x1="76.07" x2="83.63" xlink:href="#linearGradient3781" y1="65.42" y2="72.971" gradientUnits="userSpaceOnUse" id="linearGradient3793" gradientTransform="matrix(0.74845 -0.4919 0.4919 0.74845 -29.443 2.489)"/>
  <linearGradient x1="76.07" x2="83.63" xlink:href="#linearGradient3781" y1="65.42" y2="72.971" gradientUnits="userSpaceOnUse" id="linearGradient3931" gradientTransform="matrix(0.53845 -0.29469 0.27267 0.56523 4.431 -2.91)"/>
  <linearGradient x1="76.07" x2="83.63" xlink:href="#linearGradient3781" y1="65.42" y2="72.971" gradientUnits="userSpaceOnUse" id="linearGradient3939" gradientTransform="matrix(0.60541 -0.41119 0.38812 0.63971 -7.21 7.921)"/>
  <linearGradient x1="76.07" x2="83.63" xlink:href="#linearGradient3993" y1="65.42" y2="72.971" gradientUnits="userSpaceOnUse" id="linearGradient3935" gradientTransform="matrix(0.95975 -0.21553 0.21553 0.95975 -13.635 -25.65)"/>
  <linearGradient x1="76.07" x2="83.63" xlink:href="#linearGradient3781" y1="65.42" y2="72.971" gradientUnits="userSpaceOnUse" id="linearGradient3943" gradientTransform="matrix(0.06081 -0.41123 0.41123 0.06081 18.968 48.711)"/>
  <linearGradient x1="76.07" x2="83.63" xlink:href="#linearGradient3781" y1="65.42" y2="72.971" gradientUnits="userSpaceOnUse" id="linearGradient3951" gradientTransform="matrix(0.1121 -0.60349 0.61033 0.14609 -16.805 57.28)"/>
  <linearGradient x1="76.07" x2="83.63" xlink:href="#linearGradient3781" y1="65.42" y2="72.971" gradientUnits="userSpaceOnUse" id="linearGradient3959" gradientTransform="matrix(-0.42816 -0.45572 0.45572 -0.42816 11.365 98.48)"/>
  <linearGradient x2="0" y1="90" y2="5.988" gradientUnits="userSpaceOnUse" id="linearGradient4552" inkscape:collect="always">
   <stop stop-color="#b63602"/>
   <stop stop-color="#ffa72a" offset="1"/>
  </linearGradient>
  <clipPath clipPathUnits="userSpaceOnUse" id="clipPath4560">
   <rect x="7.75" rx="21.875" y="7.75" height="80.5" width="80.5"/>
  </clipPath>
  <clipPath clipPathUnits="userSpaceOnUse" id="clipPath3009">
   <path d="m -2,956.36218 -96,0 0,33.5624 96,25.68742 0,-59.24982 z" inkscape:connector-curvature="0"/>
  </clipPath>
  <path d="m 117.5,52.071 c 0,21.105 -2.7982,38.214 -6.25,38.214 -3.4518,0 -6.25,-17.109 -6.25,-38.214 0,-21.105 2.7982,-38.214 6.25,-38.214 3.4518,0 6.25,17.109 6.25,38.214 z" id="SVGCleanerId_0"/>
  <path d="m 87.77,85.271 c 0,0 -5.166,-6.16 -11.208,-7.789 7.015,-0.253 11.892,3.328 11.892,3.328 4.028,3.457 -0.684,4.461 -0.684,4.461 z" fill="url(#linearGradient3743)" fill-rule="evenodd" id="SVGCleanerId_1"/>
 </defs>
 <g inkscape:label="Layer 1" inkscape:groupmode="layer" transform="matrix(1 0 0 1 0 -956.36)">
  <g clip-path="url(#clipPath4560)" transform="matrix(1.14286 0 0 1.14286 -6.857 949.51)">
   <rect x="13.637" rx="9.837" y="19.08" ry="9.898" fill="#280b0b" height="57.728" width="71.22"/>
   <path d="m 737.43,376.4 a 364.53,359.64 0 1 1 -729.05,0 364.53,359.64 0 1 1 729.05,0 z" fill="url(#radialGradient3976)" fill-rule="evenodd" inkscape:connector-curvature="0" transform="matrix(0.07135 0 0 0.07232 20.904 19.19)"/>
   <path d="m 59.517,23.497 c -1.234,-0.618 -3.039,-1.358 -0.777,-0.377 1.84,0.872 3.292,1.755 4.855,2.951 -0.382,-0.31 1.738,1.36 2.281,1.976 0.652,0.517 3.185,3.592 1.364,1.431 1.626,1.838 2.985,3.912 4.03,6.132 -0.44,-0.907 0.405,0.835 -0.269,-0.552 -0.344,-0.891 -2.23,-3.73 -1.829,-3.092 0.472,0.67 1.231,1.925 0.273,0.394 0.867,1.2 2.114,3.814 2.099,3.864 1.319,2.969 2.047,6.194 2.179,9.438 0.006,-1.488 -0.484,-4.222 -0.655,-4.872 0.543,2.282 -0.72,-2.917 -0.062,-0.256 -0.141,-0.811 -1.238,-4.11 -1.895,-5.256 -0.835,-1.691 1.137,2.258 1.284,3.141 0.436,1.38 0.414,1.311 -0.015,-0.048 -0.126,-0.417 0.838,2.635 0.96,3.735 0.148,0.708 0.39,3.053 0.201,1.344 0.65,5.119 -0.279,10.422 -2.627,15.017 0.681,-1.343 1.546,-3.543 0.554,-1.157 -1.31,2.91 -3.147,5.589 -5.43,7.82 3.382,-3.804 6.256,-8.242 7.192,-13.322 0.639,-3.1 0.638,-6.313 0.154,-9.435 0.171,1.062 0.32,2.462 0.089,0.568 -0.103,-0.784 -0.536,-2.838 -0.136,-0.842 0.2,1.193 0.359,2.605 0.085,0.528 -0.335,-2.141 -0.942,-4.24 -1.798,-6.231 0.462,1.16 0.798,2.001 0.138,0.327 -0.548,-1.341 -1.537,-3.172 -1.687,-3.311 0.802,0.786 0.875,4.193 -0.022,1.683 -0.626,-2.233 -2.131,-4.143 -3.721,-5.746 -1.341,-1.4 -0.356,1.758 -1.513,-0.076 -0.549,0.385 0.447,4.113 -1.898,3.365 0.011,-1.573 2.338,-1.17 1.132,-2.809 -0.974,-0.783 -1.931,0.921 -2.678,-0.723 -1.349,-0.741 -0.438,-1.581 0.101,-2.055 -1.413,-1.477 -3.537,-1.672 -5.379,-2.986 -0.633,-0.559 -1.571,-1.171 -1.193,-1.184 -0.046,-0.33 0.76,0.122 -0.17,-0.168 1.387,-0.493 -2.004,-1.007 0.389,-0.56 0.28,-0.147 -1.36,-0.576 -1.166,-0.369 -1.458,-0.826 -1.171,0.937 -2.285,-0.264 0.5,-0.551 -3.896,-0.714 -3.761,-0.836 2.659,0.012 5.313,0.446 7.844,1.261 -1.084,-0.399 -4.657,-1.143 -1.8,-0.512 2.167,0.526 4.313,1.415 5.445,2.005 0.674,0.348 1.316,0.689 0.117,0.059 z m -5.761,46.362 c -2.351,1.035 -4.631,-0.246 -6.975,-0.206 -1.51,-0.268 -2.368,1.568 -2.753,1.911 -1.103,-0.39 -0.459,-1.202 -1.476,-1.52 3.068,-0.082 -4.221,-2.152 -0.809,-2.168 -1.784,-0.73 -1.478,-2.845 0.464,-3.197 1.469,-0.226 2.238,-1.463 3.312,-2.074 -0.736,-1.057 -3.081,-1.606 -0.87,-2.646 1.316,-1.239 2.693,-1.572 4.159,-1.882 1.184,0.519 2.059,0.263 3.088,0.819 0.859,-0.455 1.389,1.033 2.456,0.236 0.361,0.628 1.123,0.573 1.125,1.395 1.796,0.423 0.455,1.295 0.523,2.367 1.521,0.197 2.93,1.819 1.318,3.067 -1.261,0.593 -0.206,1.227 -1.658,1.858 0.019,1.104 -2.184,1.352 -1.904,2.04 z m -8.21,-23.698 c -1.786,-0.548 -2.651,-2.687 -3.133,-4.404 -0.061,-1.742 1.236,-2.802 2.116,-4.006 0.994,-0.986 1.189,-3.021 2.253,-3.587 0.029,1.914 0.913,3.327 2.734,1.772 0.172,-0.95 -0.73,-1.683 0.859,-1.386 0.867,-0.358 0.87,0.077 1.777,0.71 0.086,1.78 1.808,-0.394 2.249,1.253 0.033,0.63 1.05,0.679 1.339,1.992 1.926,0.444 3.267,2.536 2.199,3.961 -1.31,0.874 -0.817,4.441 -2.762,2.397 -1.63,-0.374 -2.94,-2.441 -4.877,-1.615 -0.818,0.529 -0.955,1.891 -1.606,0.304 -0.493,-0.091 0.616,1.388 -0.344,0.722 -0.183,1.065 -1.42,2.259 -2.441,1.652 -0.099,-0.018 -0.317,0.606 -0.363,0.235 z M 43.304,33.962 c 1.199,-1.462 2.111,-2.893 4.301,-3.138 1.208,-0.904 2.631,1.211 3.162,-0.603 1.401,0.034 0.824,0.68 -0.112,0.73 1.383,0.652 -2.798,0.512 -2.552,1.925 -1.772,1.379 -1.776,-1.068 -3.449,0.568 0.044,0.565 -2.537,0.925 -1.35,0.518 z m 15.403,-0.999 c -0.589,-1.014 -1.783,-2.077 -1.055,-3.111 -1.429,-0.708 0.905,-1.264 1.003,0.041 0.853,0.954 3.653,2.189 1.743,3.202 -0.582,0 -1.305,-0.404 -1.691,-0.132 z m 4.255,2.101 c -1.776,-0.571 0.407,-2.2 1.397,-2.09 1.131,-0.867 2.174,0.361 0.474,0.658 -0.449,0.67 -1.078,1.223 -1.871,1.432 z M 36.513,49.403 c -0.441,0.24 -2.288,-0.919 -0.803,-1.495 -0.149,0.078 0.581,-2.486 0.3,-0.597 -0.107,1.082 0.549,1.11 0.503,2.092 z m 2.248,1.653 C 38.22,50.14 36.26,50.08 37.118,48.988 c 0.479,0.833 4.179,1.591 1.643,2.068 z M 59.015,34.8 c 0.241,-0.714 2.835,-0.186 3.288,0.542 -1.064,-0.025 -2.201,-0.339 -3.288,-0.542 z" fill="#0e356a" inkscape:connector-curvature="0"/>
   <use xlink:href="#SVGCleanerId_0" fill="url(#radialGradient5331)" inkscape:connector-curvature="0" transform="matrix(2.2305 0 0 0.56697 -201.72 13.07)"/>
   <use xlink:href="#SVGCleanerId_0" opacity="0.9" inkscape:connector-curvature="0" transform="matrix(0.84854 0 0 0.49791 -47.97 18.18)"/>
   <path d="m 32.225,52.453 c 0.21,0.133 0.331,-0.198 0.055,-0.208 -0.572,-0.853 -1.273,-1.569 -1.998,-2.244 -0.31,-0.178 -0.743,-0.258 -0.95,0.002 0.27,0.13 0.732,-0.129 0.871,0.217 0.062,0.48 0.674,0.54 0.877,0.926 0.076,0.285 0.25,0.493 0.419,0.681 -0.046,0.19 -0.214,0.297 0.091,0.346 0.214,0.088 0.422,0.19 0.635,0.28 z m 1.23,1.361 c 0.36,-0.345 0.699,0.436 1.017,0.135 0.005,-0.187 -0.421,-0.218 -0.262,-0.463 -0.364,-0.282 -0.759,-0.518 -1.175,-0.714 -0.434,-0.058 0.25,0.713 -0.224,0.537 -0.113,-0.244 -0.672,-0.188 -0.334,0.078 0.276,0.132 0.684,0.1 0.818,0.44 0.036,0.101 0.122,0.069 0.16,-0.013 z M 45.179,37.45 c 0.616,0.079 -0.324,-0.755 0.263,-0.647 0.591,-0.502 0.524,-1.468 1.216,-1.882 0.365,-0.183 0.628,-0.518 0.964,-0.748 0.27,-0.259 0.673,-0.326 0.921,-0.602 0.272,-0.41 -0.807,-0.593 -0.338,-0.892 0.202,0.022 0.603,-0.009 0.336,-0.277 -0.265,-0.175 -0.371,-0.523 -0.068,-0.723 0.153,-0.86 -0.747,-1.517 -0.563,-2.379 0.166,-0.55 -0.631,-0.39 -0.602,-0.112 -0.377,-0.139 -0.365,-0.722 -0.833,-0.579 -0.708,0.04 -1.336,0.414 -2.023,0.553 -0.371,0.157 -0.792,0.418 -0.876,0.842 -0.062,0.189 0.33,0.365 -0.006,0.315 -0.378,0.159 0.302,0.491 0.486,0.567 0.284,0.712 0.227,1.496 0.353,2.238 0.175,0.241 0.149,0.548 -0.125,0.68 -0.119,0.239 -0.53,0.72 -0.107,0.864 -0.385,0.11 0.038,0.573 -0.143,0.812 0.137,0.578 0.199,1.295 0.772,1.622 0.085,0.101 0.537,0.181 0.373,0.348 z m -4.293,-1.597 c -0.291,-0.29 -0.011,-0.967 0.278,-0.423 0.641,-0.155 -0.372,-1.674 0.557,-1.18 0.069,0.976 1.058,-0.185 0.367,-0.588 -0.512,-0.499 0.183,-1.195 -0.369,-1.535 0.087,-0.09 -0.185,-0.439 -0.134,-0.725 -0.246,-0.22 -0.431,-0.021 -0.262,-0.466 -0.365,-0.639 -0.827,0.596 -1.405,0.3 -0.385,0.668 1.399,0.618 0.927,1.439 0.374,0.692 -0.501,1.394 -1.229,1.276 0.201,0.387 0.841,0.676 0.643,1.289 0.14,0.269 0.456,0.37 0.627,0.613 z m 3.482,-7.661 c -0.295,0.238 -1.238,-0.212 -1.022,0.444 0.189,0.117 0.415,0.166 0.065,0.153 -0.44,-0.089 -0.509,0.408 -0.889,0.338 -0.106,0.207 -0.096,0.424 -0.407,0.315 -0.066,0.297 -0.555,0.054 -0.179,0.366 0.163,0.139 0.688,0.437 0.598,-0.008 0.348,-0.146 0.7,-0.285 0.943,-0.547 0.306,-0.136 1.029,-0.012 1.046,-0.391 0.493,-0.042 0.67,-0.272 -0.155,-0.67 z m -2.773,14.609 c 0.131,-0.392 0.547,-0.056 0.54,0.174 0.344,-0.007 0.206,-0.512 -0.006,-0.515 0.166,-0.366 -0.057,-0.842 -0.356,-0.679 0.342,-0.362 -0.597,-0.3 -0.097,-0.573 0.254,-0.287 -0.144,-0.488 -0.302,-0.176 -0.177,0.314 -0.348,0.722 -0.674,0.825 -0.149,0.234 -0.228,0.54 0.168,0.486 0.261,-0.064 0.757,0.042 0.686,0.347 -0.184,-0.005 -0.071,0.164 0.041,0.111 z m -4.286,-13.33 c -0.335,0.459 0.545,0.539 0.584,0.97 0.466,0.104 0.681,-0.196 0.805,-0.593 0.138,-0.213 0.893,-0.49 0.38,-0.682 -0.381,0.121 0.103,-0.994 -0.56,-0.78 -0.363,0.175 -0.722,0.417 -0.604,0.841 -0.266,-0.387 -0.686,-0.24 -0.605,0.244 z m 3.618,0.316 c 0.072,0.411 0.486,0.654 0.869,0.716 0.243,0.054 0.375,-0.259 0.142,-0.378 -0.155,-0.178 -0.527,-0.029 -0.558,-0.321 -0.036,-0.152 0.153,-0.269 -0.002,-0.391 0.024,-0.103 0.136,-0.32 -0.076,-0.311 -0.225,0.084 0.074,0.364 -0.108,0.486 -0.105,0.039 -0.208,0.1 -0.267,0.199 z m -1.201,-1.576 c 0.141,-0.071 0.255,0.262 0.057,0.167 -0.23,-0.013 -0.121,0.3 0.06,0.277 0.152,0.078 0.33,0.233 0.507,0.142 0.081,-0.116 0.017,-0.275 0.177,-0.329 0.116,-0.116 -0.061,-0.149 -0.118,-0.041 -0.125,0.186 -0.402,-0.019 -0.195,-0.158 0.113,-0.059 0.139,-0.24 -0.031,-0.204 -0.155,0.089 -0.373,-0.089 -0.475,0.068 -0.004,0.027 0.005,0.054 0.018,0.078 z m 11.003,7.082 c 0.212,-0.153 0.514,-0.5 0.277,-0.743 -0.192,-0.224 -0.518,-0.399 -0.722,-0.175 -0.195,0.103 0.019,0.318 -0.172,0.128 -0.161,0.058 -0.511,0.132 -0.351,0.393 0.025,-0.235 -0.416,-0.46 -0.403,-0.182 -0.147,-0.151 -0.16,0.332 0.051,0.164 0.308,-0.071 -0.207,0.328 -0.032,0.285 0.176,0.006 0.522,0.065 0.364,0.305 0.351,-0.087 0.755,0.207 0.988,-0.175 z m 2.606,-8.73 c -0.454,-0.13 -0.831,-0.436 -1.156,-0.768 -0.194,-0.145 -0.345,0.142 -0.081,0.186 0.276,0.347 0.589,0.661 1.039,0.75 0.119,0.181 0.763,0.204 0.366,-0.042 -0.027,-0.031 -0.237,-0.054 -0.168,-0.126 z m 3.472,12.467 c 0.065,-0.27 0.084,-0.73 -0.162,-0.907 -0.415,0.009 -0.639,-0.337 -0.978,-0.511 -0.269,-0.276 -0.809,-0.215 -0.892,-0.645 0.021,-0.208 0.104,-0.391 -0.178,-0.239 -0.367,0.245 -0.096,-0.569 -0.5,-0.265 -0.367,0.278 0.096,0.588 0.249,0.837 0.144,0.068 0.127,0.469 0.272,0.242 0.072,0.189 0.174,0.545 0.402,0.293 0.355,0.029 0.68,0.496 0.375,0.785 0.111,0.211 0.029,0.811 0.47,0.542 0.32,-0.08 -0.381,0.42 -0.172,0.641 0.416,0.213 0.35,-0.533 0.708,-0.578 0.153,-0.011 0.292,-0.098 0.406,-0.195 z m -2.055,0.427 c 0.314,-0.125 0.338,-0.569 0.066,-0.752 -0.169,-0.249 0.096,-0.846 -0.414,-0.705 -0.141,0.007 -0.426,0.008 -0.305,0.268 -0.22,0.131 -0.179,-0.121 0.01,0.05 0.291,0.27 -0.463,0.321 -0.107,0.498 -0.123,0.24 0.429,0.168 0.203,0.476 0.329,-0.145 0.203,0.394 0.072,0.348 0.155,0.197 0.301,-0.003 0.475,-0.183 z M 40.254,23.188 c 1.461,-0.641 3.066,-1.136 5.003,-0.845 0.239,0.101 1.558,-0.284 2.491,-0.076 0.241,0.669 2.416,0.753 2.437,1.054 -2.357,0.157 0.539,1.114 1.604,1.218 0.479,0.431 1.732,-0.001 1.66,0.069 -0.828,0.293 0.776,0.584 0.015,0.668 1.38,0.577 1.086,-0.856 1.543,0.039 2.422,0.816 -1.289,-0.404 -1.524,0.369 0.941,0.441 2.118,-0.24 1.741,0.983 0.602,0.198 -0.079,0.256 0.591,0.836 -0.383,-0.119 0.624,1.327 -0.033,0.136 0.717,0.89 0.535,0.686 0.019,0.878 0.814,-0.015 1.712,1.591 1.125,1.569 -0.937,-0.14 -1.03,-0.074 -0.428,-0.807 -0.856,-0.76 -2.158,0.768 -2.399,0.332 -0.067,0.262 0.082,0.647 -0.095,1.058 0.406,0.804 0.766,2.051 1.132,2.546 0.041,0.174 -0.579,1.583 0.172,1.229 0.192,-0.528 -0.146,0.715 0.298,0.494 0.63,1.128 0.796,0.021 1.06,-0.384 0.584,0.832 2.126,1.562 1.258,-0.017 -0.506,-1.156 -2.118,-2.018 -2.039,-3.369 0.595,0.732 1.917,2.778 2.448,0.816 0.028,0.719 -0.288,1.206 0.554,1.586 -0.615,0.612 1.141,1.306 -0.057,1.977 -0.231,1.072 -1.574,1.017 -1.787,-0.185 -0.575,0.74 1.517,1.343 0.374,2.121 0.223,0.62 -0.356,1.916 -0.528,2.576 -1.884,0.657 2.06,0.77 0.835,2.246 -1.084,0.35 -2.248,0.723 -1.246,1.927 -0.112,1.406 1.105,1.82 2.027,1.072 1.517,-1.068 -0.117,-3.609 1.554,-4.423 0.265,-1.302 1.827,0.305 2.756,0.021 0.74,1.259 0.162,-0.951 0.011,-0.714 -1.099,0.436 -3.072,-1.504 -1.235,-0.88 1.17,-0.286 2.237,1.12 2.757,1.089 1.08,0.496 -0.346,-0.935 -0.351,-1.199 -0.073,-0.649 1.074,-1.278 -0.128,-1.757 -0.296,-0.741 -0.949,-1.989 -0.308,-2.175 0.384,1.196 0.601,-0.401 0.291,-0.073 -0.682,-1.075 -0.066,-1.422 0.352,-0.258 1.66,-0.837 1.466,1.151 0.551,1.741 0.05,1.096 -0.702,2.189 0.472,2.646 0.879,0.333 0.981,-1.001 1.282,-1.578 1.423,1.321 1.268,3.762 -0.715,4.316 -1.039,0.348 0.506,2.171 -1.278,1.878 -0.695,-0.297 -1.95,0.905 -1.874,-0.595 -0.567,-1.18 -2.298,1.138 -3.035,1.898 -0.567,0.893 -1.927,0.464 -1.743,1.909 -0.824,0.993 0.112,2.472 -1.25,3.258 -0.571,1.61 -1.263,3.055 -0.341,4.57 -0.16,1.16 -0.224,1.739 0.429,2.26 0.698,0.101 1.456,1.621 2.694,1.59 2.06,0.129 3.454,-2.231 5.158,-2.802 0.285,1.043 1.805,-1.247 1.455,0.487 -0.224,0.773 0.003,1.807 0.589,1.78 0.939,1.848 -1.208,3.257 -1.007,5.078 -0.521,0.792 -1.493,1.962 -0.287,0.671 3.766,-4.074 6.273,-9.366 6.662,-14.929 0.291,-2.332 0.235,-4.722 -0.254,-7.019 -0.105,0.838 0.415,2.845 -0.667,1.79 -1.024,-0.744 -1.975,-2.2 -3.239,-3.015 0.999,0.622 -0.118,-0.9 0.973,0.126 1.168,0.453 2.417,2.2 2.692,2.626 0.034,-2.54 -0.391,-5.221 -1.599,-7.447 -1.053,-0.744 0.73,2.201 -0.221,1.29 0.206,0.769 -1.757,-1.406 -0.389,-0.896 0.424,-1.447 -0.448,-3.011 -0.781,-3.664 0.48,0.706 1.495,2.833 1.454,2.763 -1.184,-2.618 -2.803,-5.039 -4.775,-7.13 0.622,0.657 1.296,1.482 0.293,0.316 0.892,0.889 2.41,3.047 2.603,3.373 -0.552,-0.935 -2.027,-2.743 -2.23,-2.954 0.809,0.929 -1.193,-1.382 -1.673,-1.745 -1.742,-1.638 -3.327,-2.794 -5.464,-3.982 -1.203,-0.723 -3.633,-1.664 -4.306,-1.866 0.992,0.331 -1.861,-0.591 -0.805,-0.245 -2.06,-0.612 2.32,0.696 0.118,0.029 -2.513,-0.751 -5.14,-1.119 -7.763,-1.08 0.961,0.131 1.882,0.081 0.329,0.229 -1.599,0.11 -3.131,0.368 -4.566,0.763 -1.533,0.753 1.667,-0.963 -0.225,-0.542 -0.949,0.033 -0.759,0.42 -0.552,0.662 -0.62,0.054 -3.207,1.606 -1.347,1.156 -0.467,0.518 -2.322,1.191 -0.797,0.982 0.201,-0.405 1.099,-0.164 1.479,-0.445 z m -3.237,47.481 c 1.153,0.433 1.532,0.558 1.17,0.252 0.707,0.152 2.809,0.443 1.272,-0.28 0.663,0.731 2.337,0.018 2.441,0.068 0.569,0.084 1.18,-1.485 2.434,-1.185 2.461,0.462 1.93,-2.589 3.666,-3.326 1.696,-1.553 -1.711,-2.107 -2.84,-2.208 -1.188,0.239 -0.792,-0.267 -1.677,-0.749 -0.991,0.363 -1.292,-0.422 -2.215,-0.348 0.624,-1.659 -1.2,-2.618 -2.609,-2.693 -0.901,-0.465 -1.38,-1.679 -2.258,-2.284 -0.38,0.197 -2.925,-1.219 -2.887,-1.349 -0.629,-0.202 -0.799,1.353 -0.72,0.115 0.614,-1.204 -1.693,-0.625 -2.022,0.099 -0.464,-1.298 -2.66,-0.947 -2.067,-2.832 1.398,-1.653 -2.481,-2.198 -0.577,-3.445 1.046,-0.875 -0.606,-1.861 -1.026,-0.685 -2.135,-0.544 -1.188,-3.448 -0.249,-4.662 0.994,-1.323 2.254,2.114 2.279,0.335 0.187,0.495 2.381,1.325 1.489,2.793 0.102,1.637 0.82,0.82 0.771,-0.349 -0.585,-1.836 2.068,-1.583 2.42,-2.327 0.428,-0.192 0.014,-1.503 0.488,-1.29 -0.323,1.447 0.46,-0.233 0.331,-0.009 0.423,-0.274 1.27,-0.595 1.86,-0.447 -0.516,-1.13 2.011,-1.282 2.353,-0.913 -0.701,-0.229 -1.189,1.004 -0.029,0.325 1.719,-0.043 -0.478,-0.638 -0.159,-1.539 0.099,0.066 0.974,-0.791 -0.238,-0.624 -0.763,0.159 -1.784,0.793 -0.566,-0.053 1.208,-0.885 3.798,0.798 4.112,-1.087 -0.238,-0.761 -1.498,-0.026 -0.719,-0.505 0.804,-0.143 -0.829,-0.914 -0.249,-1.583 -0.07,-0.678 -0.189,-1.98 -0.768,-0.524 -0.607,-0.293 -0.579,-0.459 -0.427,-1.461 -0.276,-1.41 -1.304,-0.942 -1.68,0.036 -0.395,0.593 -0.296,1.765 -1.432,1.679 0.025,1.219 -1.325,1.773 -0.955,0.24 1.071,-1.31 -1.708,-2.892 0.022,-4.024 0.999,0.074 1.535,-1.3 1.503,-0.663 1.131,0.701 0.67,-1.156 1.1,-0.206 0.656,-0.198 1.757,0.104 1.634,-1.129 -0.718,0.256 -1.255,0.895 -0.895,-0.136 -0.227,-0.118 1.171,-1.812 -0.146,-0.89 -0.335,1.09 -1.029,0.478 -1.002,0.504 -0.609,-0.767 -0.264,-1.646 -1.202,-0.772 0.063,-0.671 0.625,-1.791 0.514,-2.336 0.737,-0.581 -0.878,-0.741 0.079,-1.521 0.408,-0.884 2.363,-2.176 0.829,-2.371 -1.308,0.874 -0.352,-0.279 -0.653,-0.205 -0.682,0.194 -1.014,0.939 -1.238,0.12 -1.04,0.115 -2.236,1.657 -2.66,0.824 -0.301,0.946 1.75,1.042 0.282,1.152 0.818,0.639 -1.625,2.172 -1.014,2.317 -0.584,0.413 -1.345,1.341 -1.78,1.722 -1.007,0.81 -1.332,2.046 -2.295,2.913 0.705,-1.228 -2.141,1.294 -2.594,1.99 -0.932,1.437 -1.079,3.213 -1.799,4.842 -0.302,1.073 -0.832,3.064 -0.503,3.663 0.148,-1.061 0.602,-4.089 1.048,-3.75 -0.483,1.702 -0.675,3.495 -0.623,5.29 -0.766,1.819 0.429,4.029 1.74,5.262 0.852,1.608 1.787,3.494 2.441,4.73 0.483,0.316 0.876,1.77 1.413,0.867 0.787,0.707 1.033,2.81 -0.312,2.885 -0.968,0.661 0.417,1.176 -0.422,1.734 1.16,1.778 1.912,4.044 3.917,5.097 1.666,1.129 0.772,3.943 2.97,4.519 0.067,0.07 0.658,0.272 0.929,0.387 z M 54.799,27.184 c 0.047,-0.586 -0.689,-0.005 -0.942,-0.36 -0.355,0.2 0.513,0.433 0.445,0.388 0.154,0.096 0.166,0.143 0.2,-0.035 0.107,-0.054 0.189,-0.008 0.297,0.007 z m -16.475,1.111 c 0.398,0.332 1.38,-0.019 0.87,-0.55 -0.376,-0.059 -1.281,-0.005 -1.151,0.533 0.066,0.1 0.198,0.074 0.281,0.017 z m -5.249,24.486 -0.032,-0.02 0.032,0.02 z" fill="url(#radialGradient4558)" opacity="0.8" inkscape:connector-curvature="0"/>
   <path d="m 47.51,20.4 c -14.356,0 -26.008,11.651 -26.008,26.007 0,14.355 11.652,26.007 26.008,26.007 14.357,0 26.009,-11.652 26.009,-26.007 C 73.519,32.051 61.867,20.4 47.51,20.4 z m 0,4.035 c 12.131,0 21.974,9.842 21.974,21.972 0,12.129 -9.843,21.979 -21.974,21.979 -12.13,0 -21.973,-9.85 -21.973,-21.979 0,-12.13 9.843,-21.972 21.973,-21.972 z" fill="url(#radialGradient3964)" fill-rule="evenodd" inkscape:connector-curvature="0"/>
   <path d="m 47.51,21.426 c -7.032,0 -13.411,2.797 -18.094,7.336 -0.007,0.008 -0.015,0.014 -0.022,0.022 -2.357,2.678 -3.743,5.895 -3.743,9.368 0,9.261 9.793,16.769 21.859,16.769 12.067,0 21.86,-7.508 21.86,-16.769 0,-3.473 -1.386,-6.69 -3.743,-9.368 C 65.62,28.776 65.612,28.77 65.605,28.762 60.922,24.223 54.543,21.426 47.51,21.426 z" fill="url(#linearGradient3961)" fill-rule="evenodd" opacity="0.6" inkscape:connector-curvature="0"/>
   <path d="m 47.51,21.426 c -3.005,0 -5.89,0.515 -8.576,1.455 -5.14,1.952 -8.599,5.616 -8.599,9.796 0,6.233 7.692,11.293 17.175,11.293 9.484,0 17.175,-5.06 17.175,-11.293 0,-4.18 -3.458,-7.844 -8.598,-9.796 -2.686,-0.94 -5.571,-1.455 -8.577,-1.455 z" fill="url(#linearGradient3956)" fill-rule="evenodd" opacity="0.6" inkscape:connector-curvature="0"/>
   <path d="m 23.008,45.158 c -0.036,0.535 -0.051,1.068 -0.051,1.611 0,13.288 10.998,24.076 24.553,24.076 13.556,0 24.554,-10.788 24.554,-24.076 0,-0.543 -0.015,-1.076 -0.051,-1.611 -0.846,12.538 -11.499,22.457 -24.503,22.457 -13.003,0 -23.656,-9.919 -24.502,-22.457 z" fill="#ffffff" fill-rule="evenodd" opacity="0.2" inkscape:connector-curvature="0"/>
   <path d="M 12,6 C 8.676,6 6,8.676 6,12 v 72 c 0,3.324 2.676,6 6,6 h 72 c 3.324,0 6,-2.676 6,-6 V 12 C 90,8.676 87.324,6 84,6 H 12 z m 32.826,19.848 c 16.505,0.576 27.747,17.949 32.857,32.036 -28.969,30.377 -57.537,5.775 -56.795,-20.487 0,0 8.076,-11.364 23.938,-11.549 z" fill="url(#linearGradient4552)" inkscape:connector-curvature="0"/>
   <path d="M 6,30.875 V 69.094 C 25.176,85.662 57.333,86.421 81.638,64.839 L 71.469,55.594 c 1.086,2.175 1.75,3.718 1.75,3.718 C 49.071,86.118 19.789,67.23 20.531,40.969 L 6,30.875 z" fill="url(#linearGradient7646)" fill-rule="evenodd" inkscape:connector-curvature="0"/>
   <path d="M 12,6 C 8.676,6 6,8.676 6,12 V 48.719 C 11.813,43.391 30.515,25.004 44.688,25.491 70.527,33.909 78.651,45.584 83.812,90 H 84 c 3.324,0 6,-2.676 6,-6 V 12 C 90,8.676 87.324,6 84,6 H 12 z" fill="url(#linearGradient7654)" fill-rule="evenodd" inkscape:connector-curvature="0"/>
   <path d="M 47.742,23.252 C 28.881,21.086 16.58,35.807 16.58,35.807 l 2.26,1.28 c -0.417,14.77 7.467,28.486 19.099,33.768 11.632,5.282 29.026,2.287 39.837,-11.936 l 0.747,-0.868 C 73.094,42.991 64.311,25.155 47.742,23.252 z m -0.361,4.14 c 8.407,0.252 16.02,7.837 21.458,15.58 5.072,7.222 7.936,13.861 8.337,14.795 C 64.351,71.653 50.592,73.561 39.966,68.736 29.289,63.887 21.734,52.12 21.994,38.325 22.447,37.642 29.867,26.858 47.381,27.392 z" fill-rule="evenodd" inkscape:connector-curvature="0"/>
   <path d="m 31.344,75.839 c 0,0 -0.55056,6.7437 1.4425,11.265 -3.3276,-3.9546 -3.8651,-8.9719 -3.8651,-8.9719 -0.20735,-4.4453 2.4225,-2.2926 2.4225,-2.2926 z" fill="url(#linearGradient4062)" fill-rule="evenodd" inkscape:connector-curvature="0"/>
   <path d="m 26.934,73.579 c 0,0 -3.6468,8.948 -2.0049,16.14 -4.1772,-7.0916 -3.1024,-14.227 -3.1024,-14.227 1.4173,-6.1865 5.1073,-1.9126 5.1073,-1.9126 z" fill="url(#linearGradient4054)" fill-rule="evenodd" inkscape:connector-curvature="0"/>
   <path d="m 19.425,69.978 c 0,0 -8.7194,7.3072 -10.968,15.697 -0.4459,-9.6799 4.5992,-16.516 4.5992,-16.516 4.8793,-5.6595 6.3684,0.81938 6.3684,0.81938 z" fill="url(#linearGradient4044)" fill-rule="evenodd" inkscape:connector-curvature="0"/>
   <path d="m 25.301,71.835 c 0,0 -4.2609,3.0149 -5.6359,6.8379 0.20926,-4.5526 2.7855,-7.5181 2.7855,-7.5181 2.4511,-2.4224 2.8504,0.68019 2.8504,0.68019 z" fill="url(#linearGradient4040)" fill-rule="evenodd" inkscape:connector-curvature="0"/>
   <path d="m 18.134,64.179 c 0,0 -4.6436,3.2603 -6.1535,7.4105 0.24558,-4.9479 3.0577,-8.1612 3.0577,-8.1612 2.674,-2.6234 3.0958,0.75072 3.0958,0.75072 z" fill="url(#linearGradient4036)" fill-rule="evenodd" inkscape:connector-curvature="0"/>
   <path d="m 28.912,67.609 c 0,0 -10.784,6.3475 -14.836,15.204 1.4134,-10.834 8.1628,-17.401 8.1628,-17.401 6.3415,-5.2951 6.6731,2.1969 6.6731,2.1969 z" fill="url(#linearGradient4006)" fill-rule="evenodd" inkscape:connector-curvature="0"/>
   <path d="m 31.752,68.035 c 0,0 -4.8338,8.7746 -4.0072,16.528 -3.451,-8.037 -1.485,-15.316 -1.485,-15.316 2.2045,-6.2358 5.4922,-1.2122 5.4922,-1.2122 z" fill="url(#linearGradient4016)" fill-rule="evenodd" inkscape:connector-curvature="0"/>
   <path d="m 21.414,56 c 0,0 -7.6335,0.55748 -12.256,4.3157 3.712,-5.558 9.193,-7.329 9.193,-7.329 4.912,-1.185 3.063,3.013 3.063,3.013 z" fill="url(#linearGradient4020)" fill-rule="evenodd" inkscape:connector-curvature="0"/>
   <path d="m 22.576,60.245 c 0,0 -9.3646,3.4629 -13.797,9.8467 2.6389,-8.3086 8.8662,-12.514 8.8662,-12.514 5.7274,-3.2634 4.9305,2.667 4.9305,2.667 z" fill="url(#linearGradient4024)" fill-rule="evenodd" inkscape:connector-curvature="0"/>
   <path d="m 35.902,70.758 c 0,0 -1.0926,7.1065 1.3778,12.128 -4.309,-4.5654 -4.7802,-9.9559 -4.7802,-9.9559 -0.05302,-4.7467 3.4024,-2.1722 3.4024,-2.1722 z" fill="url(#linearGradient4028)" fill-rule="evenodd" inkscape:connector-curvature="0"/>
   <path d="m 12.953,54.434 c 0,0 -4.5702,1.2674 -6.9215,4.1131 1.579,-3.8281 4.6936,-5.5713 4.6936,-5.5713 2.8406,-1.3173 2.2279,1.4582 2.2279,1.4582 z" fill="url(#linearGradient4032)" fill-rule="evenodd" inkscape:connector-curvature="0"/>
   <path d="m 11.82,71.359 c 0,0 -3.9452,3.63 -4.8205,7.6283 -0.42105,-4.547 1.8048,-7.8751 1.8048,-7.8751 2.1734,-2.7706 3.0157,0.2468 3.0157,0.2468 z" fill="url(#linearGradient4058)" fill-rule="evenodd" inkscape:connector-curvature="0"/>
   <path d="M 37.898,19.207 C 24.027,19.683 8.456,28.481 12.365,49.283 16.311,70.281 55.244,91.753 81.781,60.6 74.389,31.781 54.639,18.633 37.898,19.207 z m 7.74,7.572 c 0.551,-0.006 1.111,-0.017 1.683,0 17.782,0.534 30.624,31.23 30.624,31.23 -26.005,28.867 -57.538,8.527 -56.739,-19.754 0,0 7.351,-11.276 24.432,-11.476 z" fill="#480500" fill-rule="evenodd" opacity="0.3" inkscape:connector-curvature="0"/>
   <path d="m 37.969,20.969 c -6.588,0.226 -13.55,2.465 -18.281,6.937 -4.732,4.472 -7.462,11.122 -5.594,21.063 1.799,9.575 12.049,19.915 25.031,23.843 12.769,3.864 27.92,1.752 40.656,-12.687 -0.03,-0.358 -1.336,-1.607 -1.513,-1.92 C 65.696,71.714 50.625,75.858 38.902,70.531 27.178,65.205 19.051,52.992 19.469,38.188 c 0.009,-0.323 0.106,-0.636 0.281,-0.907 0,0 7.995,-12.041 25.844,-12.25 0.542,-0.006 1.152,-0.019 1.781,0 9.888,0.297 17.783,8.644 23.344,16.563 2.887,4.112 5.079,8.022 6.593,11 C 68.737,30.401 52.056,20.485 37.969,20.969 z" fill="#480700" fill-rule="evenodd" opacity="0.3" inkscape:connector-curvature="0"/>
   <path d="m 27.636,21.323 c 0,0 -4.161,3.915 -5.013,8.209 -0.553,-4.875 1.766,-8.457 1.766,-8.457 2.275,-2.984 3.247,0.248 3.247,0.248 z" fill="url(#linearGradient4101)" fill-rule="evenodd" inkscape:connector-curvature="0"/>
   <path d="m 70.139,33.059 c 0,0 -3.957,-5.739 -11.151,-6.613 8.149,-1.446 11.442,2.126 11.442,2.126 4.06,3.028 -0.291,4.487 -0.291,4.487 z" fill="url(#linearGradient3973)" fill-rule="evenodd" inkscape:connector-curvature="0"/>
   <a transform="matrix(0.58133 0.01171 -0.01171 0.58133 31.463 18.06)">
    <use xlink:href="#SVGCleanerId_1" inkscape:connector-curvature="0"/>
   </a>
   <path d="m 23.09,22.829 c 0,0 -7.72,9.898 -8.234,19.654 C 12.18,31.855 16.055,23.24 16.055,23.24 20.018,15.962 23.09,22.829 23.09,22.829 z" fill="url(#linearGradient3955)" fill-rule="evenodd" inkscape:connector-curvature="0"/>
   <path d="m 73.826,32.347 c 0,0 -8.326,-9.392 -17.826,-11.674 10.937,-0.697 18.703,4.682 18.703,4.682 6.435,5.222 -0.877,6.992 -0.877,6.992 z" fill="url(#linearGradient3919)" fill-rule="evenodd" inkscape:connector-curvature="0"/>
   <path d="m 77.607,42.16 c 0,0 -4.094,-4.227 -10.394,-4.126 6.845,-2.099 10.108,0.438 10.108,0.438 3.858,2.008 0.286,3.688 0.286,3.688 z" fill="url(#linearGradient3915)" fill-rule="evenodd" inkscape:connector-curvature="0"/>
   <path d="m 85.932,53.431 c 0,0 -4.009,-2.541 -8.931,-1.271 4.972,-2.94 8.011,-1.566 8.011,-1.566 3.405,0.845 0.92,2.837 0.92,2.837 z" fill="url(#linearGradient3911)" fill-rule="evenodd" inkscape:connector-curvature="0"/>
   <path d="m 86.772,77.271 c 0,0 -7.081,-8.445 -15.363,-10.677 9.616,-0.347 16.301,4.561 16.301,4.561 5.522,4.739 -0.938,6.116 -0.938,6.116 z" fill="url(#linearGradient3733)" fill-rule="evenodd" inkscape:connector-curvature="0"/>
   <a transform="matrix(1.0461 0 0 1.0461 -5.23 -7.917)">
    <use xlink:href="#SVGCleanerId_1" inkscape:connector-curvature="0"/>
   </a>
   <a transform="matrix(0.83417 -0.18561 0.18561 0.83417 -1.185 33.762)">
    <use xlink:href="#SVGCleanerId_1" inkscape:connector-curvature="0"/>
   </a>
   <a transform="matrix(0.86221 -0.26798 0.23458 1.0454 -7.962 19.02)">
    <use xlink:href="#SVGCleanerId_1" inkscape:connector-curvature="0"/>
   </a>
   <path d="m 88.858,78.752 c 0,0 -3.563,-5.946 -10.818,-7.518 8.415,-0.573 11.479,3.212 11.479,3.212 3.887,3.337 -0.661,4.306 -0.661,4.306 z" fill="url(#linearGradient3759)" fill-rule="evenodd" inkscape:connector-curvature="0"/>
   <path d="m 89.393,84.172 c 0,0 -4.195,-2.659 -9.344,-1.33 5.202,-3.075 8.381,-1.639 8.381,-1.639 3.562,0.884 0.963,2.969 0.963,2.969 z" fill="url(#linearGradient3763)" fill-rule="evenodd" inkscape:connector-curvature="0"/>
   <a transform="matrix(0.58133 0.01171 -0.01171 0.58133 39.12 30.477)">
    <use xlink:href="#SVGCleanerId_1" inkscape:connector-curvature="0"/>
   </a>
   <a transform="matrix(0.33303 -0.47663 0.47663 0.33303 19.694 97.99)">
    <use xlink:href="#SVGCleanerId_1" inkscape:connector-curvature="0"/>
   </a>
   <path d="m 82.364,24.628 c 0,0 -6.546,-10.71 -15.497,-14.626 10.89,1.237 17.589,7.897 17.589,7.897 5.417,6.272 -2.092,6.729 -2.092,6.729 z" fill="url(#linearGradient3779)" fill-rule="evenodd" inkscape:connector-curvature="0"/>
   <path d="m 79.565,42.058 c 0,0 -1.348,-10.892 -10.843,-17.816 8.264,3.134 14.559,12.005 14.559,12.005 3.49,7.322 -3.716,5.811 -3.716,5.811 z" fill="url(#linearGradient3855)" fill-rule="evenodd" inkscape:connector-curvature="0"/>
   <path d="m 81.78,50.3 c 0,0 -3.725,-11.986 -11.445,-17.975 10.256,3.866 15.121,11.963 15.121,11.963 3.716,7.407 -3.676,6.012 -3.676,6.012 z" fill="url(#linearGradient3789)" fill-rule="evenodd" inkscape:connector-curvature="0"/>
   <path d="m 84.942,18.997 c 0,0 -1.832,-6.726 -8.33,-9.9341 8.167,1.3351 10.091,5.7971 10.091,5.7971 2.827,4.202 -1.761,4.137 -1.761,4.137 z" fill="url(#linearGradient3801)" fill-rule="evenodd" inkscape:connector-curvature="0"/>
   <path d="m 84.938,18.656 c -1.269,0.058 -2.758,0.288 -4.469,0.813 4.613,-0.075 8.024,2.166 9.531,3.375 v -3.25 c -0.799,-0.41 -2.45,-1.056 -5.062,-0.938 z" fill="url(#linearGradient3797)" fill-rule="evenodd" inkscape:connector-curvature="0"/>
   <path d="m 86.726,18.236 c 0,0 -3.181,-3.01 -6.552,-3.513 3.78,-0.576 6.643,1.056 6.643,1.056 2.396,1.619 -0.091,2.457 -0.091,2.457 z" fill="url(#linearGradient3805)" fill-rule="evenodd" inkscape:connector-curvature="0"/>
   <path d="m 86.433,16.584 c 0,0 -0.121,-4.378 -2.15,-7.117 3.081,2.265 3.951,5.444 3.951,5.444 0.55,2.839 -1.801,1.673 -1.801,1.673 z" fill="url(#linearGradient3809)" fill-rule="evenodd" inkscape:connector-curvature="0"/>
   <path d="m 84.062,22.156 c 4.448,2.473 5.594,7.094 5.594,7.094 0,0 0.181,0.004 0.344,0 v -4 c -0.937,-1.004 -2.69,-2.347 -5.938,-3.094 z" fill="url(#linearGradient3813)" fill-rule="evenodd" inkscape:connector-curvature="0"/>
   <path d="m 24.349,15.69 c 0,0 -12.031,3.582 -18.11,11.23 3.987,-10.208 12.141,-14.977 12.141,-14.977 7.451,-3.6277 5.969,3.747 5.969,3.747 z" fill="url(#linearGradient3825)" fill-rule="evenodd" inkscape:connector-curvature="0"/>
   <path d="m 29.815,14.98 c 0,0 -12.276,-2.617 -21.276,1.184 C 16.928,9.1124 26.37,8.8321 26.37,8.8321 34.649,9.216 29.815,14.98 29.815,14.98 z" fill="url(#linearGradient3817)" fill-rule="evenodd" inkscape:connector-curvature="0"/>
   <path d="m 31.793,18.607 c 0,0 -9.883,3.115 -14.801,9.507 3.157,-8.479 9.826,-12.522 9.826,-12.522 6.103,-3.092 4.975,3.015 4.975,3.015 z" fill="url(#linearGradient3829)" fill-rule="evenodd" inkscape:connector-curvature="0"/>
   <path d="m 36.266,16.136 c 0,0 -14.683,0.958 -23.625,8.114 7.217,-10.628 17.78,-13.952 17.78,-13.952 9.461,-2.2046 5.845,5.838 5.845,5.838 z" fill="url(#linearGradient3821)" fill-rule="evenodd" inkscape:connector-curvature="0"/>
   <path d="m 17.702,26.098 c 0,0 -5.188,2.777 -6.818,8.864 -0.141,-7.159 3.194,-9.601 3.194,-9.601 2.989,-3.16 3.624,0.737 3.624,0.737 z" fill="url(#linearGradient3833)" fill-rule="evenodd" inkscape:connector-curvature="0"/>
   <path d="m 39.606,15.042 c 0,0 -10.604,-6.7177 -20.364,-6.278 C 29.558,5.0643 38.51,8.0804 38.51,8.0804 c 7.63,3.2346 1.096,6.9616 1.096,6.9616 z" fill="url(#linearGradient3837)" fill-rule="evenodd" inkscape:connector-curvature="0"/>
   <path d="m 44.42,18.03 c 0,0 -7.151,-4.462 -15.874,-2.145 8.791,-5.281 14.203,-2.882 14.203,-2.882 6.056,1.458 1.671,5.027 1.671,5.027 z" fill="url(#linearGradient3841)" fill-rule="evenodd" inkscape:connector-curvature="0"/>
   <path d="m 85.387,44.891 c 0,0 -0.768,-8.957 -5.251,-14.331 6.583,4.277 8.745,10.688 8.745,10.688 1.464,5.752 -3.494,3.643 -3.494,3.643 z" fill="url(#linearGradient3851)" fill-rule="evenodd" inkscape:connector-curvature="0"/>
   <path d="m 81.753,47.633 c 0,0 -4.519,-3.503 -8.964,-3.723 4.838,-1.234 8.767,0.519 8.767,0.519 3.321,1.795 0.197,3.204 0.197,3.204 z" fill="url(#linearGradient3859)" fill-rule="evenodd" inkscape:connector-curvature="0"/>
   <path d="m 86.223,54.178 c 0,0 -5.554,-5.649 -11.616,-6.777 6.871,-0.796 11.941,2.341 11.941,2.341 4.226,3.082 -0.325,4.436 -0.325,4.436 z" fill="url(#linearGradient3863)" fill-rule="evenodd" inkscape:connector-curvature="0"/>
   <path d="m 83.281,43.375 c 3.679,1.434 6.5,5.656 6.5,5.656 0,0 0.143,-0.018 0.219,-0.031 v -3.125 c -0.999,-0.74 -3.406,-2.26 -6.719,-2.5 z" fill="url(#linearGradient3871)" fill-rule="evenodd" inkscape:connector-curvature="0"/>
   <path d="m 86.565,69.373 c 0,0 -1.438,-10.436 -7.007,-16.454 7.96,4.609 10.876,11.981 10.876,11.981 2.06,6.643 -3.869,4.473 -3.869,4.473 z" fill="url(#linearGradient3875)" fill-rule="evenodd" inkscape:connector-curvature="0"/>
   <path d="m 84.856,58.624 c 0,0 1.331,-7.841 -3.818,-14.623 7.761,5.779 7.607,11.363 7.607,11.363 0.898,5.808 -3.789,3.26 -3.789,3.26 z" fill="url(#linearGradient3879)" fill-rule="evenodd" inkscape:connector-curvature="0"/>
   <a transform="matrix(0.54324 0.2073 -0.2073 0.54324 52.943 -1.652)">
    <use xlink:href="#SVGCleanerId_1" inkscape:connector-curvature="0"/>
   </a>
   <path d="m 83.612,70.726 c 0,0 -1.123,-6.84 -7.289,-10.973 8.035,2.566 9.489,7.213 9.489,7.213 2.385,4.534 -2.2,3.76 -2.2,3.76 z" fill="url(#linearGradient3889)" fill-rule="evenodd" inkscape:connector-curvature="0"/>
   <path d="m 89.035,70.865 c 0,0 -2.902,-4.03 -8.176,-4.714 5.973,-0.917 8.388,1.6 8.388,1.6 2.977,2.147 -0.212,3.114 -0.212,3.114 z" fill="url(#linearGradient3893)" fill-rule="evenodd" inkscape:connector-curvature="0"/>
   <path d="m 84.588,53.711 c 2.457,1.481 4.171,3.399 5.362,5.198 v -3.007 c -1.365,-0.821 -3.109,-1.588 -5.362,-2.191 z" fill="url(#linearGradient3901)" fill-rule="evenodd" inkscape:connector-curvature="0"/>
   <path d="m 55.355,17.144 c 0,0 -10.386,-7.048 -20.155,-6.916 10.427,-3.3732 19.28,-0.077 19.28,-0.077 7.524,3.473 0.875,6.993 0.875,6.993 z" fill="url(#linearGradient3923)" fill-rule="evenodd" inkscape:connector-curvature="0"/>
   <path d="m 54.167,17.606 c 0,0 -6.901,-0.982 -12.42,3.715 4.461,-6.971 9.319,-6.971 9.319,-6.971 4.978,-0.931 3.101,3.256 3.101,3.256 z" fill="url(#linearGradient3947)" fill-rule="evenodd" inkscape:connector-curvature="0"/>
   <path d="m 62.873,20.244 c 0,0 -13.554,-5.726 -24.756,-3.339 11.217,-6.264 22.149,-4.5 22.149,-4.5 9.446,2.271 2.607,7.839 2.607,7.839 z" fill="url(#linearGradient3927)" fill-rule="evenodd" inkscape:connector-curvature="0"/>
   <path d="m 70.001,19.848 c 0,0 -5.863,-6.054 -14.887,-5.909 9.805,-3.006 14.479,0.628 14.479,0.628 5.525,2.875 0.408,5.281 0.408,5.281 z" fill="url(#linearGradient3793)" fill-rule="evenodd" inkscape:connector-curvature="0"/>
   <path d="m 69.705,16.507 c 0,0 -3.468,-4.707 -9.521,-5.251 6.793,-1.426 9.648,1.482 9.648,1.482 3.482,2.432 -0.127,3.769 -0.127,3.769 z" fill="url(#linearGradient3931)" fill-rule="evenodd" inkscape:connector-curvature="0"/>
   <path d="m 72.474,23.517 c 0,0 -4.653,-5.191 -11.899,-5.145 7.899,-2.468 11.619,0.657 11.619,0.657 4.41,2.489 0.28,4.488 0.28,4.488 z" fill="url(#linearGradient3939)" fill-rule="evenodd" inkscape:connector-curvature="0"/>
   <path d="m 81.835,30.718 c 0,0 -5.563,-8.742 -13.01,-11.841 9.007,0.858 14.637,6.255 14.637,6.255 4.564,5.095 -1.627,5.586 -1.627,5.586 z" fill="url(#linearGradient3935)" fill-rule="evenodd" inkscape:connector-curvature="0"/>
   <path d="m 55.701,19.624 c 0,0 -4.293,0.866 -6.646,3.332 1.707,-3.421 4.69,-4.822 4.69,-4.822 2.703,-1.026 1.956,1.49 1.956,1.49 z" fill="url(#linearGradient3943)" fill-rule="evenodd" inkscape:connector-curvature="0"/>
   <path d="m 39.507,18.983 c 0,0 -5.84,-0.29 -10.088,4.057 3.19,-6.165 7.248,-6.538 7.248,-6.538 4.085,-1.161 2.84,2.481 2.84,2.481 z" fill="url(#linearGradient3951)" fill-rule="evenodd" inkscape:connector-curvature="0"/>
   <path d="m 11.367,28.003 c 0,0 -3.4606,4.759 -2.2772,10.948 C 5.8451,32.569 7.7833,28.918 7.7833,28.918 9.0975,24.772 11.367,28.003 11.367,28.003 z" fill="url(#linearGradient3959)" fill-rule="evenodd" inkscape:connector-curvature="0"/>
  </g>
  <rect x="-96" rx="25" y="958.36" clip-path="url(#clipPath3009)" fill="#ffffff" fill-opacity="1" height="92" opacity="0.15" width="92" transform="matrix(1 0 0 1 98 0)"/>
 </g>
</svg>
