<?xml version="1.0" encoding="UTF-8" standalone="no"?>
<svg
   xmlns:dc="http://purl.org/dc/elements/1.1/"
   xmlns:cc="http://creativecommons.org/ns#"
   xmlns:rdf="http://www.w3.org/1999/02/22-rdf-syntax-ns#"
   xmlns:svg="http://www.w3.org/2000/svg"
   xmlns="http://www.w3.org/2000/svg"
   xmlns:xlink="http://www.w3.org/1999/xlink"
   xmlns:sodipodi="http://sodipodi.sourceforge.net/DTD/sodipodi-0.dtd"
   xmlns:inkscape="http://www.inkscape.org/namespaces/inkscape"
   height="96"
   width="96"
   id="svg2"
   version="1.1"
   inkscape:version="0.91 r13725"
   sodipodi:docname="firefox.svg">
  <metadata
     id="metadata18">
    <rdf:RDF>
      <cc:Work
         rdf:about="">
        <dc:format>image/svg+xml</dc:format>
        <dc:type
           rdf:resource="http://purl.org/dc/dcmitype/StillImage" />
      </cc:Work>
    </rdf:RDF>
  </metadata>
  <sodipodi:namedview
     pagecolor="#ffffff"
     bordercolor="#666666"
     borderopacity="1"
     objecttolerance="10"
     gridtolerance="10"
     guidetolerance="10"
     inkscape:pageopacity="0"
     inkscape:pageshadow="2"
     inkscape:window-width="1366"
     inkscape:window-height="719"
     id="namedview16"
     showgrid="false"
     inkscape:zoom="2.4583333"
     inkscape:cx="2.0338983"
     inkscape:cy="48"
     inkscape:window-x="0"
     inkscape:window-y="24"
     inkscape:window-maximized="1"
     inkscape:current-layer="svg2" />
  <defs
     id="defs4">
    <clipPath
       clipPathUnits="userSpaceOnUse"
       id="clipPath3080">
      <use
         xlink:href="#SVGCleanerId_0"
         id="use7" />
    </clipPath>
    <rect
       x="8"
       rx="10.769"
       y="8"
       height="80"
       id="SVGCleanerId_0"
       width="80" />
    <linearGradient
       id="linearGradient3797">
      <stop
         id="stop3799"
         offset="0"
         style="stop-color:#ff3b05;stop-opacity:1;" />
      <stop
         id="stop3801"
         offset="1"
         style="stop-color:#ff5d05;stop-opacity:1;" />
    </linearGradient>
    <linearGradient
       id="linearGradient4787">
      <stop
         id="stop4789"
         offset="0"
         style="stop-color:#1e88e5;stop-opacity:1;" />
      <stop
         id="stop4791"
         offset="1"
         style="stop-color:#1eaae5;stop-opacity:1;" />
    </linearGradient>
    <linearGradient
       y2="1006.3622"
       x2="24"
       y1="1050.3622"
       x1="24"
       gradientTransform="translate(-60,0)"
       gradientUnits="userSpaceOnUse"
       id="linearGradient3013"
       xlink:href="#linearGradient4787"
       inkscape:collect="always" />
    <clipPath
       id="clipPath3814"
       clipPathUnits="userSpaceOnUse">
      <path
         style="fill:url(#linearGradient3013);fill-opacity:1;stroke:none"
         d="m -36,1006.3622 c -24,0 -24,0 -24,22 0,22 0,22 24,22 24,0 24,0 24,-22 0,-22 0,-22 -24,-22 z"
         id="path3816"
         inkscape:connector-curvature="0"
         sodipodi:nodetypes="zzzzz" />
    </clipPath>
  </defs>
  <use
     height="100%"
     width="100%"
     y="0"
     x="0"
     style="fill:#1e9de5;fill-opacity:1;stroke:none"
     id="use12"
     xlink:href="#SVGCleanerId_0" />
  <path
     style="fill:#ff4505;fill-opacity:1"
     id="path14"
     inkscape:connector-curvature="0"
     clip-path="url(#clipPath3080)"
     d="m 98.853064,39.841733 -1.183421,7.611599 c 0,0 -1.692143,-14.091856 -3.766034,-19.36008 -3.178473,-8.072454 -4.592603,-8.007568 -4.601732,-7.995922 2.128664,5.422952 1.742766,8.336156 1.742766,8.336156 0,0 -3.771844,-10.304358 -13.744614,-13.582752 -11.810974,-3.880668 -17.827666,-2.478137 -17.782852,-2.424066 0.04481,0.0549 12.206831,2.131248 14.363711,5.101851 0,0 -5.166056,0 -10.307216,1.484886 -0.232368,0.06655 18.91565,2.397445 22.830234,21.57701 0,0 -2.098788,-4.389771 -4.694679,-5.135125 1.70708,5.205834 1.268899,15.084275 -0.356852,19.993964 -0.209132,0.631388 -0.423244,-2.729361 -3.625783,-4.176813 1.025742,7.367861 -0.06141,19.053953 -5.161077,22.273285 -0.397517,0.250392 3.19673,-11.536356 0.722833,-6.979379 -14.769527,22.699201 -32.329138,9.183831 -39.451242,4.366479 5.716273,1.404194 11.788567,0.392642 15.303975,-2.015618 3.547773,-2.43072 5.646561,-4.207592 7.531238,-3.787498 1.883847,0.421757 3.137809,-1.47324 1.674715,-3.154446 -1.464753,-1.684534 -5.021655,-3.999625 -9.833349,-2.73768 -3.393414,0.890931 -7.598459,4.654305 -14.017647,0.843515 -5.476435,-3.252607 -5.43909,-5.89379 -5.43909,-7.57666 0,-1.683703 1.4938,-4.242531 4.212514,-3.822437 2.434893,0.376836 1.151886,-1.056473 3.771844,0 0.713704,0.287827 -0.07137,-3.434786 -1.087154,-5.819753 1.956047,-4.091963 8.302205,-5.308155 8.776071,-5.66669 0.858105,-0.650521 0.385898,-0.97495 0.678849,-1.954892 0.273863,-0.912559 0.44897,-3.37905 -6.653216,-2.69775 -3.268101,0.313615 -5.346972,-3.931411 -6.028311,-4.962096 0.220751,-1.311857 0.575113,-2.51058 1.054789,-3.608647 0.487144,-1.000738 1.019103,-1.917457 1.550231,-2.611236 0.165978,-0.217117 0.310379,-0.407615 0.441501,-0.584803 1.058938,-1.237821 2.358543,-2.295958 3.918734,-3.176075 0.81412,-0.460855 -9.103048,-0.02912 -13.565358,5.801452 -1.197529,0.156391 -2.840709,-0.189666 -4.677252,-0.189666 -2.302111,0 -4.110438,0.252056 -5.784323,0.673814 -0.268054,0.06738 -0.700426,0.03078 -1.229065,-0.09567 -1.473052,-1.529807 -5.6407526,-5.206666 -5.8316269,-10.193719 0,0 -6.0598461,4.668447 -5.152778,17.396038 -0.079669,7.038441 -2.1527308,5.026151 -3.21913762,8.846092 -0.49627335,1.810146 0.7460698,3.173579 0.7460698,3.226818 -0.00166,0.02745 1.49047982,-1.618816 1.49047982,-1.618816 0,0 -9.3968279,16.318768 2.7386322,37.151256 10.4599147,17.959213 28.0128877,25.896071 46.2272817,24.350461 3.185942,-0.20796 6.395121,-0.6838 9.596831,-1.4591 42.434686,-10.284391 37.82051,-61.647292 37.82051,-61.647292 z" />
</svg>
