<svg height="96" width="96" xmlns="http://www.w3.org/2000/svg" xmlns:sodipodi="http://sodipodi.sourceforge.net/DTD/sodipodi-0.dtd" xmlns:inkscape="http://www.inkscape.org/namespaces/inkscape">
 <g inkscape:label="Layer 1" inkscape:groupmode="layer" transform="matrix(1 0 0 1 0 -956.36)">
  <rect x="964.36" rx="10.769" y="-88" fill="#CF4551" fill-opacity="1" stroke="none" height="80" width="80" transform="matrix(0 1 -1 0 0 0)"/>
  <path d="M 18.78125,964.36218 C 12.8151,964.36218 8,969.14603 8,975.11217 l 0,8.9688 80,0 0,-8.9688 c 0,-5.96614 -4.81509,-10.74999 -10.78125,-10.74999 l -58.4375,0 z" fill="#000000" fill-opacity="1" stroke="none" inkscape:connector-curvature="0"/>
  <g transform="matrix(0.95238 0 0 0.95238 -2.476 959.94)">
   <path d="M 28.333333,6 23,15 28.333333,24 39,24 33.666667,15 39,6 28.333333,6 z" fill="#f0f0f0" fill-opacity="1" fill-rule="evenodd" stroke="none" inkscape:connector-curvature="0"/>
   <path d="M 50.333333,6 45,15 50.333333,24 61,24 55.666667,15 61,6 50.333333,6 z" fill="#f0f0f0" fill-opacity="1" fill-rule="evenodd" stroke="none" inkscape:connector-curvature="0"/>
   <path d="M 72.333333,6 67,15 72.333333,24 83,24 77.666667,15 83,6 72.333333,6 z" fill="#f0f0f0" fill-opacity="1" fill-rule="evenodd" stroke="none" inkscape:connector-curvature="0"/>
  </g>
  <g transform="matrix(1 0 0 1 -4.882 1.453)">
   <path stroke-opacity="1" d="m 15.618612,970.88517 c 1.05668,0 1.685862,0.93685 5.742886,4.09781 4.099416,3.19399 5.21666,3.54902 5.21666,4.833 0,1.28421 -1.036386,1.54537 -2.323734,1.54537 l -7.745783,0 c -1.287348,0 -2.323734,-1.03385 -2.323734,-2.31807 l 0,-6.18152 c 0,-1.28422 0.445344,-1.97659 1.433705,-1.97659 z" stroke-width="0.952" fill="#333333" fill-opacity="1" fill-rule="evenodd" stroke="#4d4d4d" stroke-dasharray="none" stroke-dashoffset="0" stroke-linecap="butt" stroke-linejoin="round" stroke-miterlimit="4" inkscape:connector-curvature="0"/>
   <path d="m 17.476864,973.45074 a 1.1134562,1.1107434 0 0 1 -2.226912,0 1.1134562,1.1107434 0 1 1 2.226912,0 z" fill="#4d4d4d" fill-opacity="1" fill-rule="evenodd" stroke="none" inkscape:connector-curvature="0"/>
   <path d="m 17.476864,979.18816 a 1.1134562,1.1107434 0 0 1 -2.226912,0 1.1134562,1.1107434 0 1 1 2.226912,0 z" fill="#4d4d4d" fill-opacity="1" fill-rule="evenodd" stroke="none" inkscape:connector-curvature="0"/>
   <path d="m 25.125824,979.18816 a 1.1134565,1.1107437 0 0 1 -2.226913,0 1.1134565,1.1107437 0 1 1 2.226913,0 z" fill="#4d4d4d" fill-opacity="1" fill-rule="evenodd" stroke="none" inkscape:connector-curvature="0"/>
  </g>
  <path d="m 65.097339,991.00456 0,8.59857 c -8.585047,0.1509 -10.694931,8.52317 -10.694931,8.52317 l 6.475163,0 0,8.5986 -10.040141,0 c -6.038634,18.6304 -19.934769,16.971 -19.934769,16.971 l 0,-8.5986 c 0,0 8.817958,1.6358 13.3141,-14.7836 5.624261,-20.53912 20.880578,-19.30914 20.880578,-19.30914 z" fill="#ececec" fill-opacity="1" stroke="none" inkscape:connector-curvature="0"/>
 </g>
</svg>
