<svg height="96" width="96" xmlns="http://www.w3.org/2000/svg" xmlns:xlink="http://www.w3.org/1999/xlink" xmlns:sodipodi="http://sodipodi.sourceforge.net/DTD/sodipodi-0.dtd" xmlns:inkscape="http://www.inkscape.org/namespaces/inkscape">
 <defs>
  <linearGradient x1="16" x2="48" gradientUnits="userSpaceOnUse" id="linearGradient8526" inkscape:collect="always">
   <stop stop-color="#167fff"/>
   <stop stop-color="#0063db" offset="1"/>
  </linearGradient>
  <linearGradient x1="16" x2="48" gradientUnits="userSpaceOnUse" id="linearGradient8528" inkscape:collect="always">
   <stop stop-color="#ff41a3"/>
   <stop stop-color="#ff0084" offset="1"/>
  </linearGradient>
  <path d="m 48,40 a 16,16 0 1 1 -32,0 16,16 0 1 1 32,0 z" color="#000000" id="SVGCleanerId_0"/>
 </defs>
 <g inkscape:label="Layer 1" inkscape:groupmode="layer" transform="matrix(1 0 0 1 0 -956.36)">
  <rect x="8.751" rx="10.769" y="964.14" fill="#e6e6e6" fill-opacity="1" stroke="none" height="80" width="80"/>
  <g transform="matrix(0.80182 0 0 0.80182 10.224 963.13)">
   <path d="M 17.986,67.983 H 15 v -3.6828 h 3.0536 v -0.73846 c 0,-4.0433 1.6473,-5.452 4.8967,-5.452 0.88012,0 1.854,0.15649 2.3729,0.26099 l -0.24814,3.2345 c -0.33841,-0.13043 -0.9739,-0.20874 -1.5831,-0.20874 -1.038,0 -1.4442,0.83472 -1.4442,2.1652 v 0.73858 h 3.1853 v 3.6828 h -3.1853 v 10.003 h -4.0618 v -10.003 z" fill="#0063db" inkscape:connector-curvature="0"/>
   <rect x="28.06" y="57.925" fill="#0063db" height="20.06" width="4.092"/>
   <rect x="35.994" y="58.14" fill="#0063db" height="3.805" width="4.092"/>
   <rect x="35.994" y="64.24" fill="#0063db" height="13.752" width="3.993"/>
   <path d="m 53.005,68.38 c -0.75748,-0.51615 -1.515,-0.74874 -2.502,-0.74874 -1.7904,0 -3.1677,1.3945 -3.1677,3.7189 0,2.1435 1.6069,3.5378 3.3973,3.5378 0.94123,0 1.8825,-0.23221 2.5709,-0.64554 l 0.09182,3.4605 c -1.0331,0.38766 -2.2724,0.59419 -3.3743,0.59419 -3.9483,0 -6.9552,-2.5825 -6.9552,-7.0244 0,-4.4678 3.0069,-7.0502 6.9552,-7.0502 1.2396,0 2.3412,0.23246 3.2824,0.74887 l -0.2985,3.4086 z" fill="#0063db" inkscape:connector-curvature="0"/>
   <path d="m 69.739,64.136 -5.0736,6.568 5.4613,7.2827 h -5.337 l -4.413,-6.663 h -0.05176 v 6.6627 h -4.0578 v -19.863 h 4.0578 v 12.065 h 0.05176 l 4.5694,-6.0519 h 4.7942 z" fill="#0063db" inkscape:connector-curvature="0"/>
   <path d="m 80.884,67.855 c -0.4779,-0.15468 -0.95593,-0.15468 -1.4575,-0.15468 -2.0071,0 -3.1303,1.5751 -3.1303,4.2094 v 6.0773 h -4.3009 v -13.851 h 3.9186 v 2.4792 h 0.04785 c 0.74054,-1.7045 1.8159,-2.7891 3.6798,-2.7891 0.5014,0 1.0272,0.0774 1.4577,0.15481 l -0.21527,3.8737 z" fill="#ff0084" inkscape:connector-curvature="0"/>
   <use xlink:href="#SVGCleanerId_0" fill="url(#linearGradient8526)" inkscape:connector-curvature="0" transform="matrix(0 0.9375 -0.9375 0 68.5 4)"/>
   <use xlink:href="#SVGCleanerId_0" fill="url(#linearGradient8528)" inkscape:connector-curvature="0" transform="matrix(0 0.9375 -0.9375 0 102.5 4)"/>
  </g>
 </g>
</svg>
