<svg height="96" width="96" xmlns="http://www.w3.org/2000/svg" xmlns:xlink="http://www.w3.org/1999/xlink" xmlns:sodipodi="http://sodipodi.sourceforge.net/DTD/sodipodi-0.dtd" xmlns:inkscape="http://www.inkscape.org/namespaces/inkscape">
 <defs>
  <clipPath clipPathUnits="userSpaceOnUse" id="clipPath3009">
   <path d="m -2,956.36218 -96,0 0,33.5624 96,25.68742 0,-59.24982 z" inkscape:connector-curvature="0"/>
  </clipPath>
  <radialGradient cy="7.06" r="43.796" gradientUnits="userSpaceOnUse" id="radialGradient3725" cx="47.34" inkscape:collect="always" gradientTransform="matrix(1.86573 -0.00366 0.00288 1.43727 -41.12 949.54)">
   <stop stop-color="#ddd8ca" stop-opacity="1"/>
   <stop stop-color="#89866d" stop-opacity="1" offset="1"/>
  </radialGradient>
  <clipPath clipPathUnits="userSpaceOnUse" id="clipPath3018">
   <rect x="2" rx="25" y="958.36" height="92" width="92"/>
  </clipPath>
  <linearGradient x1="46.32" x2="50.735" y1="65.771" y2="66.3" gradientUnits="userSpaceOnUse" id="linearGradient11993">
   <stop stop-color="#2c2c2c" stop-opacity="1"/>
   <stop stop-color="#5d5d5d" stop-opacity="1" offset="1"/>
  </linearGradient>
  <linearGradient x1="59.4" x2="84.85" xlink:href="#linearGradient8740" gradientUnits="userSpaceOnUse" id="linearGradient9028" gradientTransform="matrix(1.01452 0 0 1.02299 -54.5 -1.756)"/>
  <linearGradient id="linearGradient8740">
   <stop stop-color="#222222" stop-opacity="1"/>
   <stop stop-color="#222222" stop-opacity="1" offset="1"/>
  </linearGradient>
  <linearGradient x1="59.4" x2="84.85" xlink:href="#linearGradient8740" gradientUnits="userSpaceOnUse" id="linearGradient9030" gradientTransform="matrix(1.01452 0 0 1.02299 -54.81 -2.319)"/>
  <linearGradient x1="59.4" x2="84.85" xlink:href="#linearGradient8740" gradientUnits="userSpaceOnUse" id="linearGradient9032" gradientTransform="matrix(1.01452 0 0 1.02299 -55.12 -2.694)"/>
  <linearGradient x1="59.4" x2="84.85" xlink:href="#linearGradient8740" gradientUnits="userSpaceOnUse" id="linearGradient9034" gradientTransform="matrix(1.01452 0 0 1.02299 -55.31 -3.01)"/>
  <linearGradient x1="59.4" x2="84.85" xlink:href="#linearGradient8740" gradientUnits="userSpaceOnUse" id="linearGradient9036" gradientTransform="matrix(1 0 0 1 -54.45 -1.591)"/>
  <linearGradient x1="79.68" x2="63.37" xlink:href="#linearGradient8750" y1="66.17" y2="75.09" gradientUnits="userSpaceOnUse" id="linearGradient9038" gradientTransform="matrix(1.11714 0 0 1.0041 -65.03 -2.21)"/>
  <linearGradient id="linearGradient8750">
   <stop stop-color="#a9a9a9" stop-opacity="1"/>
   <stop stop-color="#a9a9a9" stop-opacity="0" offset="1"/>
  </linearGradient>
  <linearGradient x1="79.68" x2="63.37" xlink:href="#linearGradient8750" y1="66.17" y2="75.09" gradientUnits="userSpaceOnUse" id="linearGradient9040" gradientTransform="matrix(1.11714 0 0 1.0041 -64.785 -2.076)"/>
  <linearGradient x1="79.68" x2="63.37" xlink:href="#linearGradient8750" y1="66.17" y2="75.09" gradientUnits="userSpaceOnUse" id="linearGradient9042" gradientTransform="matrix(1.11714 0 0 1.0041 -64.68 -1.857)"/>
  <linearGradient x1="79.68" x2="63.37" xlink:href="#linearGradient8750" y1="66.17" y2="75.09" gradientUnits="userSpaceOnUse" id="linearGradient9044" gradientTransform="matrix(1.11714 0 0 1.0041 -64.33 -1.857)"/>
  <linearGradient x1="28.786" x2="28.433" y1="22.756" y2="41.41" gradientUnits="userSpaceOnUse" id="linearGradient11733">
   <stop stop-color="#666049" stop-opacity="1"/>
   <stop stop-color="#edece5" stop-opacity="1" offset="1"/>
  </linearGradient>
  <linearGradient x1="59.4" x2="84.85" xlink:href="#linearGradient8740" gradientUnits="userSpaceOnUse" id="linearGradient9056" gradientTransform="matrix(1.01452 0 0 1.02299 -0.934 0.012)"/>
  <linearGradient x1="59.4" x2="84.85" xlink:href="#linearGradient8740" gradientUnits="userSpaceOnUse" id="linearGradient9058" gradientTransform="matrix(1.01452 0 0 1.02299 -1.246 -0.551)"/>
  <linearGradient x1="59.4" x2="84.85" xlink:href="#linearGradient8740" gradientUnits="userSpaceOnUse" id="linearGradient9060" gradientTransform="matrix(1.01452 0 0 1.02299 -1.559 -0.926)"/>
  <linearGradient x1="59.4" x2="84.85" xlink:href="#linearGradient8740" gradientUnits="userSpaceOnUse" id="linearGradient9062" gradientTransform="matrix(1.01452 0 0 1.02299 -1.746 -1.238)"/>
  <linearGradient x1="59.4" x2="84.85" xlink:href="#linearGradient8740" gradientUnits="userSpaceOnUse" id="linearGradient9064" gradientTransform="matrix(1 0 0 1 -0.884 0.177)"/>
  <linearGradient x1="79.68" x2="63.37" xlink:href="#linearGradient8750" y1="66.17" y2="75.09" gradientUnits="userSpaceOnUse" id="linearGradient9066" gradientTransform="matrix(1.11714 0 0 1.0041 -11.468 -0.442)"/>
  <linearGradient x1="79.68" x2="63.37" xlink:href="#linearGradient8750" y1="66.17" y2="75.09" gradientUnits="userSpaceOnUse" id="linearGradient9068" gradientTransform="matrix(1.11714 0 0 1.0041 -11.221 -0.309)"/>
  <linearGradient x1="79.68" x2="63.37" xlink:href="#linearGradient8750" y1="66.17" y2="75.09" gradientUnits="userSpaceOnUse" id="linearGradient9070" gradientTransform="matrix(1.11714 0 0 1.0041 -11.12 -0.089)"/>
  <linearGradient x1="79.68" x2="63.37" xlink:href="#linearGradient8750" y1="66.17" y2="75.09" gradientUnits="userSpaceOnUse" id="linearGradient9072" gradientTransform="matrix(1.11714 0 0 1.0041 -10.771 -0.089)"/>
  <radialGradient cy="67.08" r="12.153" gradientUnits="userSpaceOnUse" id="radialGradient12161" cx="48.14" gradientTransform="matrix(1.40728 0 0 1.19852 -19.607 -10.213)">
   <stop stop-color="#e5e5e5" stop-opacity="1"/>
   <stop stop-color="#cdcdcd" stop-opacity="0" offset="1"/>
  </radialGradient>
  <linearGradient x1="235.68" x2="236.51" xlink:href="#linearGradient11389" gradientUnits="userSpaceOnUse" id="linearGradient11567" gradientTransform="matrix(0.90241 0 0 0.78219 -148.93 -2.743)"/>
  <linearGradient id="linearGradient11389">
   <stop stop-color="#ffffff" stop-opacity="1"/>
   <stop stop-color="#afafaf" stop-opacity="1" offset="1"/>
  </linearGradient>
  <linearGradient x1="236.94" x2="237.87" xlink:href="#linearGradient11389" y1="29.851" y2="30.03" gradientUnits="userSpaceOnUse" id="linearGradient11564" gradientTransform="matrix(0.90241 0 0 0.88813 -148.93 -6.345)"/>
  <linearGradient x1="235.68" x2="236.51" xlink:href="#linearGradient11389" gradientUnits="userSpaceOnUse" id="linearGradient11789" gradientTransform="matrix(0.50292 0 0 0.51223 -54.905 30.948)"/>
  <linearGradient x1="196.61" x2="193.81" y1="50.735" y2="50.72" gradientUnits="userSpaceOnUse" id="linearGradient11945" gradientTransform="matrix(0.79276 0 0 0.78947 -0.89 90.46)">
   <stop stop-color="#787878" stop-opacity="1"/>
   <stop stop-color="#ffffff" stop-opacity="1" offset="1"/>
  </linearGradient>
  <path d="m 53.563339,58.700115 a 5.5684662,4.5961943 0 1 1 -11.136932,0 5.5684662,4.5961943 0 1 1 11.136932,0 z" fill-opacity="1" stroke="none" id="SVGCleanerId_0"/>
  <path d="m 40.65864,30.062292 a 12.904699,11.844039 0 1 1 -25.809399,0 12.904699,11.844039 0 1 1 25.809399,0 z" fill-opacity="1" stroke="none" id="SVGCleanerId_1"/>
  <path d="m 32,31.8125 a 1.9375,2.1875 0 1 1 -3.875,0 1.9375,2.1875 0 1 1 3.875,0 z" fill-opacity="1" stroke="none" id="SVGCleanerId_2"/>
  <rect x="29.977" rx="0" y="19.58" ry="0.301" fill="#ffffff" fill-opacity="1" stroke="none" height="0.603" id="SVGCleanerId_3" width="1.978"/>
  <path d="m 197.1875,51.75 a 0.9375,0.9375 0 1 1 -1.875,0 0.9375,0.9375 0 1 1 1.875,0 z" fill-opacity="1" stroke="none" id="SVGCleanerId_4"/>
 </defs>
 <g inkscape:label="Layer 1" inkscape:groupmode="layer" transform="matrix(1 0 0 1 0 -956.36)">
  <rect rx="6.857" y="956.36" clip-path="url(#clipPath3018)" fill="url(#radialGradient3725)" fill-opacity="1" fill-rule="nonzero" stroke="none" height="96" width="96"/>
  <g transform="matrix(0.95833 0 0 0.95478 2.076 959.91)">
   <use xlink:href="#SVGCleanerId_0" fill="#cbcbcb" inkscape:connector-curvature="0" transform="matrix(0.92063 0 0 1.05769 3.367 -3.652)"/>
   <use xlink:href="#SVGCleanerId_0" fill="#000000" inkscape:connector-curvature="0" transform="matrix(0.7619 0 0 0.90385 10.985 5.379)"/>
   <rect x="44.548" rx="3.094" ry="3.349" y="55.695" fill="url(#linearGradient11993)" fill-opacity="1" stroke="none" height="21.21" width="6.187"/>
   <rect x="29.82" rx="3.03" ry="7.349" y="62.885" fill="#222222" fill-opacity="1" stroke="none" height="25.55" opacity="0.049" width="36.864"/>
   <rect x="30.386" rx="2.928" ry="7.132" y="63.45" fill="#222222" fill-opacity="1" stroke="none" height="24.796" opacity="0.147" width="35.638"/>
   <rect x="30.763" rx="2.851" ry="6.807" y="64.02" fill="#222222" fill-opacity="1" stroke="none" height="23.665" opacity="0.368" width="34.695"/>
   <rect x="31.23" rx="2.773" ry="6.508" y="64.58" fill="#222222" fill-opacity="1" stroke="none" height="22.627" opacity="0.578" width="33.753"/>
   <g transform="matrix(-1.06667 0 0 1.06667 39.784 -3.405)">
    <path d="m 5.7622478,73.303494 16.4995612,2.531775 4.852799,-8.692598 c 0,0 -3.463393,-1.902993 -3.149039,-2.51955 0.314352,-0.616556 3.595444,-0.636761 3.595444,-0.636761 l 4.407079,1.91362 c 0,0 -4.89546,13.481338 -7.912852,14.546736 -2.406221,0.849603 -15.5131742,-0.904204 -16.9479192,-1.989251 -1.434744,-1.085047 -0.627701,0.271261 -0.627701,0.271261 z" fill="url(#linearGradient9028)" fill-opacity="1" stroke="none" opacity="0.074" inkscape:connector-curvature="0"/>
    <path d="m 5.4497478,72.740994 16.4995612,2.531775 4.852799,-8.692598 c 0,0 -3.463393,-1.902993 -3.149039,-2.51955 0.314352,-0.616556 3.595444,-0.636761 3.595444,-0.636761 l 4.407079,1.91362 c 0,0 -4.89546,13.481338 -7.912852,14.546736 -2.406221,0.849603 -15.5131742,-0.904204 -16.9479192,-1.989251 -1.434744,-1.085047 -0.627701,0.271261 -0.627701,0.271261 z" fill="url(#linearGradient9030)" fill-opacity="1" stroke="none" opacity="0.196" inkscape:connector-curvature="0"/>
    <path d="m 5.1372478,72.365994 16.4995612,2.531775 4.852799,-8.692598 c 0,0 -3.463393,-1.902993 -3.149039,-2.51955 0.314352,-0.616556 3.595444,-0.636761 3.595444,-0.636761 l 4.407079,1.91362 c 0,0 -4.89546,13.481338 -7.912852,14.546736 -2.406221,0.849603 -15.5131742,-0.904204 -16.9479192,-1.989251 -1.434744,-1.085047 -0.627701,0.271261 -0.627701,0.271261 z" fill="url(#linearGradient9032)" fill-opacity="1" stroke="none" opacity="0.382" inkscape:connector-curvature="0"/>
    <path d="m 4.9497478,72.053494 16.4995612,2.531775 4.852799,-8.692598 c 0,0 -3.463393,-1.902993 -3.149039,-2.51955 0.314352,-0.616556 3.595444,-0.636761 3.595444,-0.636761 l 4.407079,1.91362 c 0,0 -4.89546,13.481338 -7.912852,14.546736 -2.406221,0.849603 -15.5131742,-0.904204 -16.9479192,-1.989251 -1.434744,-1.085047 -0.627701,0.271261 -0.627701,0.271261 z" fill="url(#linearGradient9034)" fill-opacity="1" stroke="none" opacity="0.539" inkscape:connector-curvature="0"/>
    <path d="m 4.9497478,71.781593 16.2634562,2.474873 4.783356,-8.497233 c 0,0 -3.413832,-1.860223 -3.103977,-2.462923 0.309854,-0.602699 3.543994,-0.62245 3.543994,-0.62245 l 4.344015,1.870612 c 0,0 -4.825407,13.178346 -7.799621,14.2198 -2.371788,0.830508 -15.2911842,-0.883883 -16.7053982,-1.944543 -1.414213,-1.060661 -0.618718,0.265164 -0.618718,0.265164 z" fill="url(#linearGradient9036)" fill-opacity="1" stroke="none" inkscape:connector-curvature="0"/>
    <path d="m 23.65632,63.252984 c 0,0 0.0781,-0.407762 0.821854,-0.307933 1.010288,0.1356 5.479465,1.554746 5.479465,1.554746 0,0 -5.930523,13.071967 -7.510398,13.604482 C 20.867366,78.636793 5.5196738,75.170712 5.5196738,75.170712 l 0.04938,-2.041309 c 0,0 13.1395482,2.650577 14.9594412,2.501875 1.629246,-0.133125 2.150124,-1.765859 2.940061,-3.274652 0.822282,-1.570574 3.719049,-6.706855 3.620305,-7.23937 -0.09874,-0.532515 -3.735911,-0.763673 -3.62454,-1.715448 0.02239,-0.191303 0.192014,-0.148819 0.192006,-0.148824 z" fill="url(#linearGradient9038)" fill-opacity="1" stroke="none" opacity="0.152" inkscape:connector-curvature="0"/>
    <path d="m 23.903176,63.386114 c 0,0 0.0781,-0.407763 0.821853,-0.307934 1.010289,0.1356 4.862327,1.532558 4.862327,1.532558 0,0 -5.733038,12.694768 -7.312914,13.227283 C 20.694568,78.370535 5.8158998,74.704762 5.8158998,74.704762 l 3e-6,-1.242536 c 0,0 13.1395482,2.450883 14.9594412,2.302181 1.629246,-0.133124 2.150124,-1.765858 2.940061,-3.274652 0.822282,-1.570574 3.71905,-6.706855 3.620306,-7.239369 -0.09874,-0.532516 -3.735912,-0.763674 -3.624541,-1.715449 0.02239,-0.191303 0.192014,-0.148818 0.192006,-0.148823 z" fill="url(#linearGradient9040)" fill-opacity="1" stroke="none" opacity="0.162" inkscape:connector-curvature="0"/>
    <path d="m 24.007908,63.605765 c 0,0 0.0781,-0.407762 0.821853,-0.307934 1.010289,0.135601 4.443399,1.375664 4.443399,1.375664 0,0 -5.628306,12.380981 -7.208181,12.913496 C 20.485104,78.119505 5.9206318,74.924413 5.9206318,74.924413 l 3e-6,-1.242536 c 0,0 13.1395482,2.54502 14.9594412,2.396318 1.629246,-0.133125 2.221699,-1.819426 3.011636,-3.328219 0.822282,-1.570574 3.801575,-7.100204 3.702833,-7.63272 -0.09874,-0.532515 -3.715461,-1.024125 -3.60409,-1.331289 0.06631,-0.18289 0.01746,-0.180197 0.01745,-0.180202 z" fill="url(#linearGradient9042)" fill-opacity="1" stroke="none" opacity="0.186" inkscape:connector-curvature="0"/>
    <path d="m 24.33605,63.652833 c 0,0 0.04618,-0.188573 0.789938,-0.08874 1.010288,0.1356 3.752203,1.286912 3.752203,1.286912 0,0 -5.282708,11.848465 -6.862583,12.38098 C 20.435733,77.764499 6.2662298,74.924417 6.2662298,74.924417 L 6.0687468,74.12564 c 0,0 13.2876622,2.278762 15.1075552,2.13006 1.629247,-0.133124 2.271071,-1.996931 3.061007,-3.505724 0.822283,-1.570574 3.801576,-7.100204 3.702834,-7.63272 -0.09874,-0.532515 -3.64111,-1.024393 -3.621546,-1.346978 0.01394,-0.229959 0.01746,-0.117442 0.01745,-0.117445 z" fill="url(#linearGradient9044)" fill-opacity="1" stroke="none" opacity="0.328" inkscape:connector-curvature="0"/>
   </g>
   <use xlink:href="#SVGCleanerId_1" fill="url(#linearGradient11733)" inkscape:connector-curvature="0" transform="matrix(0.92266 0 0 1.0076 5.21 -8.605)"/>
   <use xlink:href="#SVGCleanerId_2" fill="#000000" opacity="0.162" inkscape:connector-curvature="0" transform="matrix(0.89354 0 0 0.79514 4.03 6.369)"/>
   <use xlink:href="#SVGCleanerId_1" fill="#1f1f1f" inkscape:connector-curvature="0" transform="matrix(0.70887 0 0 0.74955 11.299 -0.922)"/>
   <g transform="matrix(1.06667 0 0 1.06667 -1.858 -4.536)">
    <path d="m 59.325587,75.071261 16.499561,2.531775 4.852799,-8.692598 c 0,0 -3.463393,-1.902993 -3.149039,-2.51955 0.314352,-0.616556 3.595444,-0.636761 3.595444,-0.636761 l 4.407079,1.91362 c 0,0 -4.89546,13.481338 -7.912852,14.546736 -2.406221,0.849603 -15.513174,-0.904204 -16.947919,-1.989251 -1.434744,-1.085047 -0.627701,0.271261 -0.627701,0.271261 z" fill="url(#linearGradient9056)" fill-opacity="1" stroke="none" opacity="0.074" inkscape:connector-curvature="0"/>
    <path d="m 59.013087,74.508761 16.499561,2.531775 4.852799,-8.692598 c 0,0 -3.463393,-1.902993 -3.149039,-2.51955 0.314352,-0.616556 3.595444,-0.636761 3.595444,-0.636761 l 4.407079,1.91362 c 0,0 -4.89546,13.481338 -7.912852,14.546736 -2.406221,0.849603 -15.513174,-0.904204 -16.947919,-1.989251 -1.434744,-1.085047 -0.627701,0.271261 -0.627701,0.271261 z" fill="url(#linearGradient9058)" fill-opacity="1" stroke="none" opacity="0.196" inkscape:connector-curvature="0"/>
    <path d="m 58.700587,74.133761 16.499561,2.531775 4.852799,-8.692598 c 0,0 -3.463393,-1.902993 -3.149039,-2.51955 0.314352,-0.616556 3.595444,-0.636761 3.595444,-0.636761 l 4.407079,1.91362 c 0,0 -4.89546,13.481338 -7.912852,14.546736 -2.406221,0.849603 -15.513174,-0.904204 -16.947919,-1.989251 -1.434744,-1.085047 -0.627701,0.271261 -0.627701,0.271261 z" fill="url(#linearGradient9060)" fill-opacity="1" stroke="none" opacity="0.382" inkscape:connector-curvature="0"/>
    <path d="m 58.513087,73.821261 16.499561,2.531775 4.852799,-8.692598 c 0,0 -3.463393,-1.902993 -3.149039,-2.51955 0.314352,-0.616556 3.595444,-0.636761 3.595444,-0.636761 l 4.407079,1.91362 c 0,0 -4.89546,13.481338 -7.912852,14.546736 -2.406221,0.849603 -15.513174,-0.904204 -16.947919,-1.989251 -1.434744,-1.085047 -0.627701,0.271261 -0.627701,0.271261 z" fill="url(#linearGradient9062)" fill-opacity="1" stroke="none" opacity="0.539" inkscape:connector-curvature="0"/>
    <path d="M 58.513087,73.54936 74.776543,76.024233 79.559899,67.527 c 0,0 -3.413832,-1.860223 -3.103977,-2.462923 0.309854,-0.602699 3.543994,-0.62245 3.543994,-0.62245 l 4.344015,1.870612 c 0,0 -4.825407,13.178346 -7.799621,14.2198 -2.371788,0.830508 -15.291184,-0.883883 -16.705398,-1.944543 -1.414213,-1.060661 -0.618718,0.265164 -0.618718,0.265164 z" fill="url(#linearGradient9064)" fill-opacity="1" stroke="none" inkscape:connector-curvature="0"/>
    <path d="m 77.219659,65.020751 c 0,0 0.0781,-0.407762 0.821854,-0.307933 1.010288,0.1356 5.479465,1.554746 5.479465,1.554746 0,0 -5.930523,13.071967 -7.510398,13.604482 -1.579875,0.532514 -16.927567,-2.933567 -16.927567,-2.933567 l 0.04938,-2.041309 c 0,0 13.139548,2.650577 14.959441,2.501875 1.629246,-0.133125 2.150124,-1.765859 2.940061,-3.274652 0.822282,-1.570574 3.719049,-6.706855 3.620305,-7.23937 -0.09874,-0.532515 -3.735911,-0.763673 -3.62454,-1.715448 0.02239,-0.191303 0.192014,-0.148819 0.192006,-0.148824 z" fill="url(#linearGradient9066)" fill-opacity="1" stroke="none" opacity="0.152" inkscape:connector-curvature="0"/>
    <path d="m 77.466515,65.153881 c 0,0 0.0781,-0.407763 0.821853,-0.307934 1.010289,0.1356 4.862327,1.532558 4.862327,1.532558 0,0 -5.733038,12.694768 -7.312914,13.227283 -1.579874,0.532514 -16.458542,-3.133259 -16.458542,-3.133259 l 3e-6,-1.242536 c 0,0 13.139548,2.450883 14.959441,2.302181 1.629246,-0.133124 2.150124,-1.765858 2.940061,-3.274652 0.822282,-1.570574 3.71905,-6.706855 3.620306,-7.239369 -0.09874,-0.532516 -3.735912,-0.763674 -3.624541,-1.715449 0.02239,-0.191303 0.192014,-0.148818 0.192006,-0.148823 z" fill="url(#linearGradient9068)" fill-opacity="1" stroke="none" opacity="0.162" inkscape:connector-curvature="0"/>
    <path d="m 77.571247,65.373532 c 0,0 0.0781,-0.407762 0.821853,-0.307934 1.010289,0.135601 4.443399,1.375664 4.443399,1.375664 0,0 -5.628306,12.380981 -7.208181,12.913496 C 74.048443,79.887272 59.483971,76.69218 59.483971,76.69218 l 3e-6,-1.242536 c 0,0 13.139548,2.54502 14.959441,2.396318 1.629246,-0.133125 2.221699,-1.819426 3.011636,-3.328219 0.822282,-1.570574 3.801575,-7.100204 3.702833,-7.63272 -0.09874,-0.532515 -3.715461,-1.024125 -3.60409,-1.331289 0.06631,-0.18289 0.01746,-0.180197 0.01745,-0.180202 z" fill="url(#linearGradient9070)" fill-opacity="1" stroke="none" opacity="0.186" inkscape:connector-curvature="0"/>
    <path d="m 77.899389,65.4206 c 0,0 0.04618,-0.188573 0.789938,-0.08874 1.010288,0.1356 3.752203,1.286912 3.752203,1.286912 0,0 -5.282708,11.848465 -6.862583,12.38098 -1.579875,0.532514 -15.749378,-2.307568 -15.749378,-2.307568 l -0.197483,-0.798777 c 0,0 13.287662,2.278762 15.107555,2.13006 1.629247,-0.133124 2.271071,-1.996931 3.061007,-3.505724 0.822283,-1.570574 3.801576,-7.100204 3.702834,-7.63272 -0.09874,-0.532515 -3.64111,-1.024393 -3.621546,-1.346978 0.01394,-0.229959 0.01746,-0.117442 0.01745,-0.117445 z" fill="url(#linearGradient9072)" fill-opacity="1" stroke="none" opacity="0.328" inkscape:connector-curvature="0"/>
   </g>
   <rect x="31.706" rx="2.696" ry="6.183" y="65.24" fill="#222222" fill-opacity="1" stroke="none" height="21.496" width="32.81"/>
   <rect x="32.725" rx="2.534" ry="5.896" y="65.88" fill="#ebebeb" fill-opacity="1" stroke="none" height="20.499" opacity="0.049" width="30.833"/>
   <rect x="33.513" rx="2.367" ry="5.425" y="66.58" fill="#ebebeb" fill-opacity="1" stroke="none" height="18.859" opacity="0.078" width="28.807"/>
   <rect x="34.638" rx="2.201" ry="4.987" y="67.29" fill="#ebebeb" fill-opacity="1" stroke="none" height="17.336" opacity="0.083" width="26.782"/>
   <rect x="35.989" rx="1.997" ry="4.515" y="67.989" fill="url(#radialGradient12161)" fill-opacity="1" stroke="none" height="15.696" opacity="0.248" width="24.306"/>
   <use xlink:href="#SVGCleanerId_2" fill="#000000" opacity="0.371" inkscape:connector-curvature="0" transform="matrix(0.81499 0 0 0.73398 6.39 8.181)"/>
   <use xlink:href="#SVGCleanerId_1" fill="#000000" inkscape:connector-curvature="0" transform="matrix(0.80399 0 0 0.84853 8.599 -3.877)"/>
   <path d="m 30.946013,30.607388 c -5.040385,0 -9.136346,-4.028209 -9.234641,-9.030383 l 18.469281,0 c -0.098,5.002438 -4.194064,9.030383 -9.23464,9.030383 z" fill="#c2935e" fill-opacity="1" stroke="none" inkscape:connector-curvature="0"/>
   <path d="m 30.946013,12.608054 c -5.040385,0 -9.136346,4.028209 -9.234641,9.030382 l 18.469281,0 c -0.098,-5.002437 -4.194064,-9.030382 -9.23464,-9.030382 z" fill="#6db7da" fill-opacity="1" stroke="none" inkscape:connector-curvature="0"/>
   <rect x="21.675" rx="0" ry="0.479" y="21.264" fill="#ffffff" fill-opacity="1" stroke="none" height="0.959" width="18.462"/>
   <rect x="26.609" rx="0" ry="0.361" y="15.672" fill="#ffffff" fill-opacity="1" stroke="none" height="0.722" width="8.596"/>
   <rect x="27.812" rx="0" ry="0.301" y="18.395" fill="#ffffff" fill-opacity="1" stroke="none" height="0.603" width="6.43"/>
   <rect x="29.977" rx="0" ry="0.301" y="17.09" fill="#ffffff" fill-opacity="1" stroke="none" height="0.603" width="1.978"/>
   <use xlink:href="#SVGCleanerId_3"/>
   <use xlink:href="#SVGCleanerId_1" fill="url(#linearGradient11733)" inkscape:connector-curvature="0" transform="matrix(0.92266 0 0 1.0076 38.71 -8.23)"/>
   <use xlink:href="#SVGCleanerId_1" fill="#000000" inkscape:connector-curvature="0" transform="matrix(0.70887 0 0 0.74955 44.724 -0.563)"/>
   <path d="m 63.112738,23.24841 1.10489,-7.185914 0.801049,7.185914 c 0,0 -0.229915,0.556023 -0.966776,0.598826 -0.736871,0.0428 -0.939163,-0.598826 -0.939163,-0.598826 z" fill="url(#linearGradient11567)" fill-opacity="1" stroke="none" inkscape:connector-curvature="0"/>
   <path d="m 63.40935,22.736985 3.516052,-6.269554 -1.916958,6.866077 c 0,0 -0.393224,0.439918 -1.026877,0.248695 -0.633653,-0.191222 -0.572217,-0.845218 -0.572217,-0.845218 z" fill="url(#linearGradient11564)" fill-opacity="1" stroke="none" inkscape:connector-curvature="0"/>
   <rect x="64.11" rx="0" y="14.07" fill="#ffffff" fill-opacity="1" stroke="none" height="2.19" width="0.359"/>
   <rect x="63.949" rx="0" y="27.545" fill="#ffffff" fill-opacity="1" stroke="none" height="2.19" width="0.359"/>
   <rect x="22.244" rx="0" y="-72.28" fill="#ffffff" fill-opacity="1" stroke="none" height="2.395" width="0.353" transform="matrix(0 1 -1 0 0 0)"/>
   <rect x="22.09" rx="0" y="-59.01" fill="#ffffff" fill-opacity="1" stroke="none" height="2.338" width="0.353" transform="matrix(0 1 -1 0 0 0)"/>
   <rect x="-33.13" rx="0" y="-53.14" fill="#ffffff" fill-opacity="1" stroke="none" height="1.424" width="0.356" transform="matrix(-0.7394 0.67326 -0.68494 -0.7286 0 0)"/>
   <rect x="-25.407" rx="0" y="-70.5" fill="#ffffff" fill-opacity="1" stroke="none" height="1.426" width="0.356" transform="matrix(-0.65387 0.75661 -0.76681 -0.64187 0 0)"/>
   <rect x="60.11" rx="0" y="-36.404" fill="#ffffff" fill-opacity="1" stroke="none" height="1.424" width="0.356" transform="matrix(0.72444 0.68934 -0.7008 0.71336 0 0)"/>
   <rect x="55.953" rx="0" y="-30.19" fill="#ffffff" fill-opacity="1" stroke="none" height="1.427" width="0.355" transform="matrix(0.62373 0.78164 -0.79121 0.61154 0 0)"/>
   <rect x="-5.584" rx="0" y="-61.48" fill="#ffffff" fill-opacity="1" stroke="none" height="1.432" width="0.354" transform="matrix(-0.40347 0.91499 -0.91963 -0.39278 0 0)"/>
   <rect x="-43.837" rx="0" y="-58.73" fill="#ffffff" fill-opacity="1" stroke="none" height="1.419" width="0.357" transform="matrix(-0.8657 0.50056 -0.51257 -0.85864 0 0)"/>
   <rect x="49.33" rx="0" y="53.1" fill="#ffffff" fill-opacity="1" stroke="none" height="1.431" width="0.354" transform="matrix(0.46826 0.88359 0.88964 -0.45666 0 0)"/>
   <rect x="66.14" rx="0" y="-7.97" fill="#ffffff" fill-opacity="1" stroke="none" height="1.419" width="0.357" transform="matrix(0.85799 0.51367 -0.52577 0.85063 0 0)"/>
   <g transform="matrix(1 0 0 1 -32.88 0)">
    <use xlink:href="#SVGCleanerId_1" fill="url(#linearGradient11733)" inkscape:connector-curvature="0" transform="matrix(0.92266 0 0 1.0076 38.34 18.52)"/>
    <use xlink:href="#SVGCleanerId_1" fill="#000000" inkscape:connector-curvature="0" transform="matrix(0.70887 0 0 0.74955 44.32 26.388)"/>
    <path d="m 63.267779,47.968935 0.61576,-4.7058 0.44643,4.7058 c 0,0 -0.12813,0.36412 -0.53878,0.39215 -0.41067,0.028 -0.52341,-0.39215 -0.52341,-0.39215 z" fill="url(#linearGradient11789)" fill-opacity="1" stroke="none" inkscape:connector-curvature="0"/>
    <rect x="63.701" rx="0" y="41.02" fill="#ffab48" fill-opacity="1" stroke="none" height="2.19" width="0.359"/>
    <rect x="63.54" rx="0" y="54.5" fill="#ffab48" fill-opacity="1" stroke="none" height="2.19" width="0.359"/>
    <rect x="49.2" rx="0" y="-71.877" fill="#ffab48" fill-opacity="1" stroke="none" height="2.395" width="0.353" transform="matrix(0 1 -1 0 0 0)"/>
    <rect x="49.04" rx="0" y="-58.61" fill="#ffab48" fill-opacity="1" stroke="none" height="2.338" width="0.353" transform="matrix(0 1 -1 0 0 0)"/>
    <rect x="-14.367" rx="0" y="-72.797" fill="#ffffff" fill-opacity="1" stroke="none" height="1.424" width="0.356" transform="matrix(-0.7394 0.67326 -0.68494 -0.7286 0 0)"/>
    <rect x="-4.477" rx="0" y="-87.81" fill="#ffffff" fill-opacity="1" stroke="none" height="1.426" width="0.356" transform="matrix(-0.65387 0.75661 -0.76681 -0.64187 0 0)"/>
    <rect x="78.71" rx="0" y="-16.597" fill="#ffffff" fill-opacity="1" stroke="none" height="1.424" width="0.356" transform="matrix(0.72444 0.68934 -0.7008 0.71336 0 0)"/>
    <rect x="77.03" rx="0" y="-13.06" fill="#ffffff" fill-opacity="1" stroke="none" height="1.427" width="0.355" transform="matrix(0.62373 0.78164 -0.79121 0.61154 0 0)"/>
    <rect x="19.362" rx="0" y="-71.979" fill="#ffffff" fill-opacity="1" stroke="none" height="1.432" width="0.354" transform="matrix(-0.40347 0.91499 -0.91963 -0.39278 0 0)"/>
    <rect x="-29.672" rx="0" y="-81.86" fill="#ffffff" fill-opacity="1" stroke="none" height="1.419" width="0.357" transform="matrix(-0.8657 0.50056 -0.51257 -0.85864 0 0)"/>
    <rect x="73.12" rx="0" y="40.12" fill="#ffffff" fill-opacity="1" stroke="none" height="1.431" width="0.354" transform="matrix(0.46826 0.88359 0.88964 -0.45666 0 0)"/>
    <rect x="79.967" rx="0" y="15.366" fill="#ffffff" fill-opacity="1" stroke="none" height="1.419" width="0.357" transform="matrix(0.85799 0.51367 -0.52577 0.85063 0 0)"/>
    <path d="m 63.659619,49.222685 0.0129,-0.46136 0.23526,-0.003 -0.0143,0.45757 1.46488,0.0129 0.013,0.61581 -1.47001,0.008 -0.008,0.86603 0.38994,0.0116 0.001,0.49016 -1.05286,0 -10e-4,-0.49797 0.40422,-0.008 0.0313,-0.85286 -1.5131,0.007 0.009,-0.6263 z" fill="#ffffff" fill-opacity="1" stroke="none" inkscape:connector-curvature="0"/>
    <rect x="62.03" y="52.22" fill="#ffffff" fill-opacity="1" stroke="none" height="0.375" width="3.656"/>
   </g>
   <g transform="matrix(1 0 0 1 -132.82 -2.47)">
    <use xlink:href="#SVGCleanerId_1" fill="url(#linearGradient11733)" inkscape:connector-curvature="0" transform="matrix(0.92266 0 0 1.0076 170.94 21.22)"/>
    <use xlink:href="#SVGCleanerId_1" fill="#000000" inkscape:connector-curvature="0" transform="matrix(0.70887 0 0 0.74955 176.76 28.896)"/>
    <text x="183.47" font-size="1.251" font-stretch="normal" font-style="normal" letter-spacing="0" y="49.773" font-variant="normal" font-weight="normal" line-height="125%" fill="#ffffff" fill-opacity="1" stroke="none" word-spacing="0" font-family="Khmer OS System" sodipodi:linespacing="125%" transform="matrix(1.05383 0 0 0.94892 0 0)"><tspan x="183.47" y="49.773">fight gear</tspan><tspan x="183.47" y="51.34">game icon</tspan>
    </text>
    <use xlink:href="#SVGCleanerId_4" fill="#787878" inkscape:connector-curvature="0" transform="matrix(0.7044 -0.7098 0.7098 0.7044 21.742 153.81)"/>
    <rect x="147.98" y="130.21" fill="url(#linearGradient11945)" fill-opacity="1" stroke="none" height="0.663" width="10.651" transform="matrix(0.7044 -0.7098 0.7098 0.7044 -5.683 69.58)"/>
    <use xlink:href="#SVGCleanerId_4" fill="#000000" inkscape:connector-curvature="0" transform="matrix(0.27273 -0.27482 0.29155 0.28933 128.09 89.9)"/>
    <path stroke-opacity="1" d="m 191.16125,48.686379 c 0,0 -0.78785,1.399599 -0.74846,2.926434 0.0394,1.526835 0.78786,2.73558 0.78786,2.73558" stroke-width="0.4" fill="none" stroke="#ffffff" stroke-dasharray="none" stroke-linecap="butt" stroke-linejoin="miter" stroke-miterlimit="4" inkscape:connector-curvature="0"/>
    <rect x="196.04" rx="0" y="42.557" fill="#ffffff" fill-opacity="1" stroke="none" height="1.622" width="0.416"/>
    <rect x="195.95" rx="0" y="58.31" fill="#ffffff" fill-opacity="1" stroke="none" height="1.975" width="0.372"/>
    <rect x="52.06" rx="0" y="-205.49" fill="#ffffff" fill-opacity="1" stroke="none" height="2.292" width="0.302" transform="matrix(0 1 -1 0 0 0)"/>
    <rect x="51.54" rx="0" y="-189.47" fill="#ffffff" fill-opacity="1" stroke="none" height="2.05" width="0.39" transform="matrix(0 1 -1 0 0 0)"/>
    <rect x="-86.39" rx="0" y="-190.53" fill="#ffffff" fill-opacity="1" stroke="none" height="1.266" width="0.315" transform="matrix(-0.65962 0.7516 -0.77165 -0.63605 0 0)"/>
    <rect x="172.52" rx="0" y="-102.86" fill="#ffffff" fill-opacity="1" stroke="none" height="1.612" width="0.404" transform="matrix(0.74134 0.67113 -0.71836 0.69568 0 0)"/>
    <rect x="154.64" rx="0" y="-105.93" fill="#ffffff" fill-opacity="1" stroke="none" height="1.279" width="0.31" transform="matrix(0.66482 0.747 -0.82192 0.5696 0 0)"/>
    <rect x="-21.884" rx="0" y="-191.91" fill="#ffffff" fill-opacity="1" stroke="none" height="1.206" width="0.274" transform="matrix(-0.44786 0.8941 -0.93603 -0.35193 0 0)"/>
    <rect x="-140.18" rx="0" y="-149.68" fill="#ffffff" fill-opacity="1" stroke="none" height="1.309" width="0.336" transform="matrix(-0.87324 0.4873 -0.52604 -0.85046 0 0)"/>
    <rect x="191.83" rx="0" y="-37.37" fill="#ffffff" fill-opacity="1" stroke="none" height="1.166" width="0.314" transform="matrix(0.88792 0.46 -0.58123 0.81374 0 0)"/>
    <rect x="50.03" rx="0" y="-205.53" fill="#ffffff" fill-opacity="1" stroke="none" height="2.292" width="0.302" transform="matrix(0 1 -1 0 0 0)"/>
    <g fill="#ffffff" fill-opacity="1" stroke="none" transform="matrix(0.96983 0 0 1.03111 0 0)">
     <path d="m 207.45774,48.953594 c 0.14603,10e-7 0.25762,0.04829 0.33476,0.144858 l 0.0345,0.05388 c 0.0277,0.053 0.0415,0.112178 0.0415,0.17754 0,0.158992 -0.0904,0.287951 -0.27116,0.386878 l -0.18108,0.09804 c -0.10952,0.0636 -0.17901,0.125132 -0.20845,0.184606 -0.0106,0.02414 -0.0183,0.05064 -0.023,0.0795 l 0.67483,0 0,0.157224 -0.85413,0 c 0.008,-0.15428 0.0427,-0.271757 0.10334,-0.35243 0.0506,-0.06654 0.13632,-0.134259 0.25704,-0.203156 l 0.16605,-0.09363 c 0.11601,-0.06654 0.17401,-0.15104 0.17401,-0.253502 0,-0.08656 -0.0362,-0.153396 -0.10864,-0.200506 -0.0424,-0.0265 -0.0907,-0.03975 -0.14486,-0.03975 -0.0907,1e-6 -0.16017,0.03415 -0.20846,0.102461 l -0.0124,0.02208 c -0.0206,0.03887 -0.0333,0.09922 -0.038,0.181073 l -0.159,0 c 0.004,-0.120715 0.0265,-0.213754 0.0689,-0.279118 0.0718,-0.110704 0.18991,-0.166056 0.3542,-0.166057" inkscape:connector-curvature="0"/>
     <path d="m 208.44878,48.953594 c 0.13191,10e-7 0.2326,0.04946 0.30209,0.148391 0.0695,0.09952 0.10805,0.248499 0.11571,0.446942 0.001,0.02532 0.002,0.05123 0.002,0.07773 0,0.163114 -0.0206,0.295901 -0.0618,0.398361 -0.0418,0.102461 -0.10423,0.174596 -0.18725,0.216405 -0.0506,0.02414 -0.10747,0.03621 -0.17048,0.03621 -0.10599,0 -0.19197,-0.03268 -0.25792,-0.09804 -0.0659,-0.06477 -0.11188,-0.16223 -0.13779,-0.292367 -0.0159,-0.0795 -0.0238,-0.169885 -0.0238,-0.271168 0,-0.235542 0.0415,-0.409254 0.12455,-0.521138 0.0654,-0.08597 0.15516,-0.13308 0.2694,-0.141325 0.009,10e-7 0.0174,10e-7 0.0256,0 m 0,0.141325 c -0.0854,10e-7 -0.14957,0.04358 -0.19255,0.130726 -0.043,0.08715 -0.0645,0.217878 -0.0645,0.392178 0,0.176069 0.0212,0.307972 0.0636,0.395712 0.0424,0.08833 0.1057,0.132492 0.18991,0.132492 0.0713,0 0.12778,-0.02915 0.16959,-0.08744 0.0424,-0.05771 0.0698,-0.144564 0.0822,-0.260569 0.006,-0.05535 0.009,-0.117476 0.009,-0.186373 0,-0.172534 -0.0215,-0.301787 -0.0645,-0.387761 -0.0424,-0.08597 -0.10659,-0.128959 -0.19256,-0.12896" inkscape:connector-curvature="0"/>
    </g>
    <g fill="#ffffff" fill-opacity="1" stroke="none" transform="matrix(0.96983 0 0 1.03111 0 0)">
     <path d="m 201.41937,55.020549 -0.28441,0 0,-0.113944 c 0.12307,-0.0159 0.20256,-0.03768 0.23848,-0.06536 0.0365,-0.0265 0.0674,-0.08244 0.0928,-0.167824 0.002,-0.0077 0.005,-0.01501 0.007,-0.02208 l 0.10511,0 0,1.282529 -0.15899,0 0,-0.913316" inkscape:connector-curvature="0"/>
     <path d="m 202.45547,54.651336 c 0.1319,10e-7 0.23259,0.04946 0.30208,0.148392 0.0695,0.09952 0.10805,0.248498 0.11571,0.446942 0.001,0.02532 0.002,0.05123 0.002,0.07773 -1e-5,0.163113 -0.0206,0.2959 -0.0618,0.398361 -0.0418,0.102461 -0.10423,0.174596 -0.18726,0.216404 -0.0506,0.02414 -0.10747,0.03621 -0.17047,0.03621 -0.106,0 -0.19197,-0.03268 -0.25792,-0.09804 -0.066,-0.06477 -0.11189,-0.162229 -0.1378,-0.292367 -0.0159,-0.0795 -0.0238,-0.169884 -0.0238,-0.271168 0,-0.235541 0.0415,-0.409254 0.12454,-0.521137 0.0654,-0.08597 0.15516,-0.133081 0.2694,-0.141326 0.009,1e-6 0.0174,1e-6 0.0256,0 m 0,0.141326 c -0.0854,1e-6 -0.14957,0.04358 -0.19256,0.130726 -0.043,0.08715 -0.0645,0.217877 -0.0645,0.392178 0,0.176068 0.0212,0.307972 0.0636,0.395711 0.0424,0.08833 0.1057,0.132493 0.1899,0.132493 0.0712,0 0.12778,-0.02915 0.16959,-0.08745 0.0424,-0.05771 0.0698,-0.144564 0.0821,-0.260569 0.006,-0.05535 0.009,-0.117477 0.009,-0.186373 0,-0.172534 -0.0215,-0.301788 -0.0645,-0.387762 -0.0424,-0.08597 -0.10658,-0.128958 -0.19255,-0.128959" inkscape:connector-curvature="0"/>
    </g>
    <g fill="#ffffff" fill-opacity="1" stroke="none" transform="matrix(0.96983 0 0 1.03111 0 0)">
     <path d="m 201.99938,43.321998 -0.28442,0 0,-0.113944 c 0.12307,-0.0159 0.20256,-0.03769 0.23848,-0.06536 0.0365,-0.0265 0.0674,-0.08244 0.0927,-0.167824 0.002,-0.0077 0.005,-0.01501 0.007,-0.02208 l 0.10511,0 0,1.282528 -0.15899,0 0,-0.913315" inkscape:connector-curvature="0"/>
     <path d="m 203.03547,42.952785 c 0.1319,1e-6 0.23259,0.04946 0.30208,0.148392 0.0695,0.09952 0.10805,0.248498 0.11571,0.446941 0.001,0.02532 0.002,0.05123 0.002,0.07773 0,0.163114 -0.0206,0.295901 -0.0618,0.398362 -0.0418,0.102461 -0.10423,0.174595 -0.18726,0.216404 -0.0506,0.02414 -0.10747,0.03621 -0.17047,0.03621 -0.106,0 -0.19197,-0.03268 -0.25792,-0.09804 -0.0659,-0.06477 -0.11188,-0.162229 -0.13779,-0.292367 -0.0159,-0.07949 -0.0238,-0.169884 -0.0238,-0.271168 0,-0.235542 0.0415,-0.409254 0.12454,-0.521138 0.0654,-0.08597 0.15516,-0.13308 0.2694,-0.141325 0.009,10e-7 0.0174,10e-7 0.0256,0 m 0,0.141325 c -0.0854,2e-6 -0.14957,0.04358 -0.19256,0.130726 -0.043,0.08715 -0.0645,0.217878 -0.0645,0.392179 0,0.176068 0.0212,0.307972 0.0636,0.395711 0.0424,0.08833 0.1057,0.132493 0.1899,0.132492 0.0713,1e-6 0.12779,-0.02915 0.16959,-0.08745 0.0424,-0.05771 0.0698,-0.144564 0.0822,-0.260568 0.006,-0.05535 0.009,-0.117477 0.009,-0.186373 0,-0.172534 -0.0215,-0.301788 -0.0645,-0.387762 -0.0424,-0.08597 -0.10658,-0.128958 -0.19255,-0.12896" inkscape:connector-curvature="0"/>
    </g>
    <path d="m 197.25963,49.317279 c 0.13191,2e-6 0.2326,0.04946 0.30209,0.148392 0.0695,0.09952 0.10805,0.248498 0.11571,0.446942 0.001,0.02532 0.002,0.05123 0.002,0.07773 0,0.163113 -0.0206,0.2959 -0.0618,0.398361 -0.0418,0.102461 -0.10422,0.174596 -0.18725,0.216404 -0.0507,0.02414 -0.10747,0.03622 -0.17048,0.03622 -0.10599,0 -0.19196,-0.03268 -0.25792,-0.09804 -0.066,-0.06477 -0.11188,-0.16223 -0.13779,-0.292367 -0.0159,-0.0795 -0.0239,-0.169885 -0.0239,-0.271169 0,-0.235541 0.0415,-0.409254 0.12455,-0.521137 0.0654,-0.08597 0.15516,-0.13308 0.2694,-0.141326 0.009,2e-6 0.0174,2e-6 0.0256,0 m 0,0.141326 c -0.0854,10e-7 -0.14957,0.04358 -0.19255,0.130726 -0.043,0.08715 -0.0645,0.217877 -0.0645,0.392178 0,0.176068 0.0212,0.307972 0.0636,0.395711 0.0424,0.08833 0.1057,0.132493 0.18991,0.132493 0.0712,0 0.12778,-0.02915 0.16959,-0.08744 0.0424,-0.05771 0.0698,-0.144564 0.0821,-0.260569 0.006,-0.05535 0.009,-0.117476 0.009,-0.186373 0,-0.172534 -0.0215,-0.301788 -0.0645,-0.387762 -0.0424,-0.08597 -0.10658,-0.128958 -0.19256,-0.128959" fill="#ffffff" fill-opacity="1" stroke="none" inkscape:connector-curvature="0" transform="matrix(0.96983 0 0 1.03111 0 0)"/>
   </g>
   <path stroke-opacity="1" d="m 33.683119,24.163445 0,-2.548946 3.521218,0" stroke-width="0.838" fill="none" stroke="#ffb722" stroke-linecap="butt" stroke-linejoin="miter" inkscape:connector-curvature="0"/>
   <path stroke-opacity="1" d="m 27.92356,24.163445 0,-2.548946 -3.521218,0.08839" stroke-width="0.838" fill="none" stroke="#ffb722" stroke-linecap="butt" stroke-linejoin="miter" inkscape:connector-curvature="0"/>
   <use xlink:href="#SVGCleanerId_3"/>
   <rect x="29.977" rx="0" ry="0.301" y="22.392" fill="#ffffff" fill-opacity="1" stroke="none" height="0.603" width="1.978"/>
   <rect x="29.977" rx="0" ry="0.301" y="23.58" fill="#ffffff" fill-opacity="1" stroke="none" height="0.603" width="1.978"/>
   <rect x="29.977" rx="0" ry="0.301" y="24.83" fill="#ffffff" fill-opacity="1" stroke="none" height="0.603" width="1.978"/>
   <rect x="28.573" rx="0" ry="0.301" y="25.781" fill="#ffffff" fill-opacity="1" stroke="none" height="0.603" width="4.728"/>
   <path d="m 30.930388,30.916747 c -2.969596,0 -5.38277,-0.870205 -5.440684,-1.950813 l 10.881367,0 c -0.05774,1.080666 -2.470976,1.950813 -5.440683,1.950813 z" fill="#000000" fill-opacity="1" stroke="none" inkscape:connector-curvature="0"/>
   <path d="m 30.836638,30.916747 c -2.611405,0 -4.733506,-0.60535 -4.784434,-1.357063 l 9.568867,0 c -0.05078,0.751754 -2.172928,1.357063 -4.784433,1.357063 z" fill="#373737" fill-opacity="1" stroke="none" inkscape:connector-curvature="0"/>
   <use xlink:href="#SVGCleanerId_2" fill="#000000" opacity="0.614" inkscape:connector-curvature="0" transform="matrix(0.77571 0 0 0.7165 7.571 8.546)"/>
   <use xlink:href="#SVGCleanerId_2" fill="#525252" inkscape:connector-curvature="0" transform="matrix(0.70698 0 0 0.59417 9.618 12.361)"/>
   <path d="m 30.265163,26.682137 -1.077665,2.724112 3.5,0 -1,-2.75 z" fill="#525252" fill-opacity="1" stroke="none" inkscape:connector-curvature="0"/>
   <path d="m 30.264641,26.699205 0.508195,-0.331457 0.500412,0.01105 0.410184,0.289158 z" fill="#2c2c2c" fill-opacity="1" stroke="none" inkscape:connector-curvature="0"/>
  </g>
  <rect x="-96" rx="25" y="958.36" clip-path="url(#clipPath3009)" fill="#ffffff" fill-opacity="1" height="92" opacity="0.15" width="92" transform="matrix(1 0 0 1 98 0)"/>
 </g>
</svg>
