<svg height="96" width="96" xmlns="http://www.w3.org/2000/svg" xmlns:xlink="http://www.w3.org/1999/xlink" xmlns:sodipodi="http://sodipodi.sourceforge.net/DTD/sodipodi-0.dtd" xmlns:inkscape="http://www.inkscape.org/namespaces/inkscape">
 <defs>
  <path d="m -43.875,8.75 c 0,15.878 -12.872,28.75 -28.75,28.75 -15.878,0 -28.75,-12.872 -28.75,-28.75 0,-15.878 12.872,-28.75 28.75,-28.75 15.878,0 28.75,12.872 28.75,28.75 z" fill="#ffce7b" stroke="#666666" id="SVGCleanerId_0"/>
 </defs>
 <g inkscape:label="Layer 1" inkscape:groupmode="layer" transform="matrix(1 0 0 1 0 -956.36)">
  <rect x="8" rx="10.769" y="964.36" fill="#e6e6e6" fill-opacity="1" stroke="none" height="80" width="80"/>
  <g transform="matrix(1.0069 0 0 0.97228 15.776 973.25)">
   <use xlink:href="#SVGCleanerId_0" inkscape:connector-curvature="0" transform="matrix(1.0189 0 0 1.0189 106 23.09)"/>
   <path d="m 37.438,28.938 2,-2 3.3125,-1.5625 4.125,0.4375 2.5625,1.125 2.6875,2.6875 0.9375,2.9375 0.125,3.3125 -0.5,1.5625 -1.8125,3.125 -4.125,-4.375 -3.8125,-3.25 -5.5,-4 z" fill="#ff9f30" fill-rule="evenodd" inkscape:connector-curvature="0"/>
   <path d="M 3.3125,38 5.5,34.5 l 4.1875,-4.375 4.1875,-3 6.0625,-2 H 24.75 l 4.5,0.6875 4.688,1.688 6.062,3.25 6.312,5.25 4.25,4.125 3.875,4.125 2.625,3.1875 -3.3125,4.375 -3.9375,3.4375 -7.1875,4.3125 -6.625,1.5 -5.4375,0.25 -7.625,-1.25 -6.8125,-3.25 -4.9375,-4 -3.75,-4.875 -2.6235,-4.937 -1.5,-5 z" fill="#869fcb" fill-rule="evenodd" inkscape:connector-curvature="0"/>
   <path d="m 3.5416,38.386 c 2.8261,-8.658 23.018,-29.244 53.219,8.74" stroke-width="0.896" fill="none" stroke="#eae3d0" inkscape:connector-curvature="0"/>
   <path d="m 50.429,40.345 0.62787,0.62787 c 0.42394,-0.42394 0.80751,-0.88823 1.1444,-1.3866 0.3369,-0.49835 0.62712,-1.0307 0.86434,-1.5909 0.23722,-0.56013 0.42146,-1.148 0.54638,-1.7573 0.12493,-0.60928 0.19055,-1.24 0.19055,-1.8858 0,-0.6458 -0.06562,-1.2765 -0.19055,-1.8858 -0.12492,-0.60928 -0.30916,-1.1971 -0.54638,-1.7573 -0.23723,-0.56013 -0.52744,-1.0925 -0.86434,-1.5909 -0.33689,-0.49835 -0.72047,-0.96264 -1.1444,-1.3866 -0.42394,-0.42394 -0.88823,-0.80751 -1.3866,-1.1444 -0.49834,-0.3369 -1.0307,-0.62711 -1.5909,-0.86434 -0.56013,-0.23723 -1.148,-0.42146 -1.7573,-0.54639 -0.60928,-0.12493 -1.24,-0.19055 -1.8858,-0.19055 -0.6458,0 -1.2765,0.06562 -1.8858,0.19055 -0.60929,0.12493 -1.1971,0.30916 -1.7573,0.54639 -0.56012,0.23723 -1.0925,0.52744 -1.5909,0.86434 -0.49835,0.3369 -0.96265,0.72047 -1.3866,1.1444 -0.42394,0.42394 -0.80751,0.88823 -1.1444,1.3866 l 0.73765,0.49536 c 0.30452,-0.45082 0.65129,-0.87073 1.0346,-1.2541 0.38334,-0.38334 0.80326,-0.7301 1.2541,-1.0346 0.45081,-0.30452 0.93253,-0.5668 1.4395,-0.78115 0.50695,-0.21436 1.0391,-0.3808 1.5909,-0.49365 0.55174,-0.11285 1.123,-0.17211 1.7082,-0.17211 0.58518,0 1.1565,0.05926 1.7082,0.17211 0.55173,0.11285 1.0839,0.27929 1.5909,0.49365 0.50694,0.21436 0.98867,0.47663 1.4395,0.78115 0.45082,0.30452 0.87073,0.65129 1.2541,1.0346 0.38334,0.38334 0.7301,0.80325 1.0346,1.2541 0.30453,0.45082 0.5668,0.93253 0.78116,1.4395 0.21436,0.50695 0.3808,1.0391 0.49364,1.5909 0.11286,0.55174 0.17211,1.123 0.17211,1.7082 0,0.58518 -0.05926,1.1565 -0.17211,1.7082 -0.11285,0.55174 -0.27929,1.0839 -0.49364,1.5909 -0.21436,0.50695 -0.47663,0.98867 -0.78116,1.4395 -0.30452,0.45082 -0.65128,0.87073 -1.0346,1.2541 z" fill="#eae3d0" inkscape:connector-curvature="0"/>
  </g>
 </g>
</svg>
