<svg height="96" width="96" xmlns="http://www.w3.org/2000/svg" xmlns:sodipodi="http://sodipodi.sourceforge.net/DTD/sodipodi-0.dtd" xmlns:inkscape="http://www.inkscape.org/namespaces/inkscape">
 <defs>
  <clipPath clipPathUnits="userSpaceOnUse" id="clipPath3009">
   <path d="m-2 956.36h-96v33.562l96 25.687v-59.25z"/>
  </clipPath>
  <linearGradient x2="0" y1="90" y2="5.988" gradientUnits="userSpaceOnUse" id="linearGradient3051" gradientTransform="matrix(1.1429 0 0 1.1429 -6.857 949.51)">
   <stop stop-color="#768b94"/>
   <stop stop-color="#425c66" offset="1"/>
  </linearGradient>
  <clipPath clipPathUnits="userSpaceOnUse" id="clipPath3018">
   <rect x="2" rx="25" y="958.36" height="92" width="92"/>
  </clipPath>
 </defs>
 <g transform="matrix(1 0 0 1 0 -956.36)">
  <rect rx="6.857" ry="11.429" y="956.36" clip-path="url(#clipPath3018)" fill="url(#linearGradient3051)" height="96" width="96"/>
  <g stroke-width="3" stroke="#fff" transform="matrix(1 0 0 1 3.302 868.31)">
   <path d="m55.38 107.36-4.625 17.781h8.9375l-3.1875 12.219h-8.9375l-4.0312 15.594h14.5c9.8669 0 16.228-8.1466 17.875-17.875l3-17.719c0.92483-5.4623-4.46-10-10-10z" fill="none" stroke-linecap="round" stroke-linejoin="round"/>
   <path d="m39.13 107.36c-7.9217 0-14.628 5.1422-16.969 12.281h-0.0312l-0.0625 0.25c-0.174 0.55942-0.31851 1.1372-0.4375 1.7188l-11.25 43.125h22.531l3.0625-11.781h7.5625l4.0312-15.594h-7.5312l3.1875-12.219h7.5312l4.625-17.781z" stroke-linecap="round" stroke-linejoin="round"/>
  </g>
  <rect x="-96" rx="25" y="958.36" clip-path="url(#clipPath3009)" fill="#fff" height="92" opacity="0.15" width="92" transform="matrix(1 0 0 1 98 0)"/>
 </g>
</svg>
