<svg height="96" width="96" xmlns="http://www.w3.org/2000/svg" xmlns:sodipodi="http://sodipodi.sourceforge.net/DTD/sodipodi-0.dtd" xmlns:inkscape="http://www.inkscape.org/namespaces/inkscape">
 <g inkscape:label="Layer 1" inkscape:groupmode="layer" transform="matrix(1 0 0 1 0 -956.36)">
  <rect x="8.751" rx="10.769" y="964.14" fill="#005544" fill-opacity="1" stroke="none" height="80" width="80"/>
  <g fill="#ffffff" transform="matrix(0.73197 0 0 0.73197 13.491 966.79)">
   <g transform="matrix(0.90427 0 0 0.90427 -0.64 16.01)">
    <text x="33.877" font-size="60.3" letter-spacing="0" y="63.56" font-weight="500" line-height="125%" word-spacing="0" font-family="Times New Roman" sodipodi:linespacing="125%"><tspan x="33.877" y="63.56">A</tspan>
    </text>
    <path d="m 34.625,74.188 c -2.4884,0.25121 -4.4375,2.3494 -4.4375,4.9062 v 10.906 h 35.625 v -10.906 c 0,-2.7273 -2.2102,-4.9062 -4.9375,-4.9062 h -25.75 c -0.17046,0 -0.3341,-0.01675 -0.5,0 z M 7.187,75.781 24.499,90 h 3.875 v -9.9062 c 0,-1.7554 0.80844,-3.3221 2.0938,-4.3125 H 7.1868 z m 58.344,0 c 1.2853,0.99043 2.0938,2.5571 2.0938,4.3125 v 9.9062 h 3.875 l 17.312,-14.219 h -23.281 z" inkscape:connector-curvature="0" transform="matrix(1.1059 0 0 1.1059 0.708 -17.7)"/>
   </g>
   <g transform="matrix(0.40839 -0.50141 0.50141 0.40839 -110.23 69.976)">
    <rect x="218.48" y="166.2" height="45.687" width="9.6"/>
    <path d="m 229.77,148.19 h -24.89 v 16.313 h 38.467 v -7.5419 c -5.0873,-0.34198 -12.216,1.924 -13.576,-8.771 z" inkscape:connector-curvature="0"/>
   </g>
  </g>
 </g>
</svg>
