<svg height="96" width="96" xmlns="http://www.w3.org/2000/svg" xmlns:sodipodi="http://sodipodi.sourceforge.net/DTD/sodipodi-0.dtd" xmlns:inkscape="http://www.inkscape.org/namespaces/inkscape">
 <g inkscape:label="Layer 1" inkscape:groupmode="layer" transform="matrix(1 0 0 1 0 -956.36)">
  <rect x="8.751" rx="10.769" y="964.14" fill="#e6e6e6" fill-opacity="1" stroke="none" height="80" width="80"/>
  <g transform="matrix(0.79821 0 0 0.79821 -77.43 221.38)">
   <rect x="378.98" stroke-opacity="1" stroke-width="2" y="878.93" fill="#ff2a2a" fill-opacity="1" stroke="#1a1a1a" height="51.744" stroke-dasharray="none" width="61.755" stroke-linecap="round" stroke-linejoin="round" stroke-miterlimit="4" transform="matrix(0.96496 0.26239 -0.26239 0.96496 0 0)"/>
   <g stroke-opacity="1" stroke-width="1.7" stroke="#4d4d4d" transform="matrix(1.12265 0.35291 -0.35291 1.12265 -121.87 736)">
    <path stroke-width="2" d="m 10.6875,16.0625 0.59375,12.25 C 13.455849,28.858522 16.558369,29.679121 20,30.71875 L 20.40625,58.25 32.21875,61.96875 31.8125,34.875 c 1.740425,0.728722 3.383294,1.470848 4.75,2.21875 6.419523,2.971546 5.159547,10.926078 4.96875,16.46875 -0.108603,2.814664 -0.319505,5.016943 -0.46875,6.625 l 11.46875,3.59375 c 0,0 0.571596,-4.378962 0.78125,-9.8125 0.209654,-5.433538 0.254881,-11.804886 -1.40625,-17.375 -1.589652,-5.330397 -5.615918,-7.567309 -9.71875,-9.8125 -4.102832,-2.245191 -8.86097,-4.056252 -13.5,-5.625 C 27.527744,20.764048 26.378973,20.385403 25.25,20.03125 17.411724,17.572221 10.796052,16.086804 10.6875,16.0625 z" display="inline" fill="#eeeeec" color="#000000" fill-opacity="1" stroke="#1a1a1a" visibility="visible" sodipodi:nodetypes="ccccccccccsssccc" inkscape:connector-curvature="0" transform="matrix(0.81064 -0.25483 0.25483 0.81064 243.69 100.17)"/>
    <path d="m 291.87926,109.99862 c 2.03163,0.92803 3.98657,2.37488 5.71875,4.9375 1.22059,1.80576 2.19627,3.69517 3,5.59375 0.91424,0.11455 1.77242,0.24926 2.5625,0.40625 6.82135,1.15131 8.08517,10.25226 9.78125,15.3125 1.06165,3.19885 1.85365,5.85571 2.4375,7.8125 l 10.4375,0 c 0,0 -1.42611,-5.09659 -3.375,-10.96875 -1.94889,-5.87216 -4.09064,-12.21081 -6.96875,-16.46875 -2.64696,-3.91596 -6.47694,-4.72546 -10.375,-5.5 -3.89806,-0.77454 -8.21465,-1.03545 -12.375,-1.125 -0.28652,-0.006 -0.55911,0.004 -0.84375,0 z" display="inline" fill="#f4dbbe" color="#000000" fill-opacity="1" stroke="#1a1a1a" visibility="visible" sodipodi:nodetypes="cscccccssscc" inkscape:connector-curvature="0"/>
   </g>
  </g>
 </g>
</svg>
