<svg height="96" width="96" xmlns="http://www.w3.org/2000/svg" xmlns:xlink="http://www.w3.org/1999/xlink" xmlns:sodipodi="http://sodipodi.sourceforge.net/DTD/sodipodi-0.dtd" xmlns:inkscape="http://www.inkscape.org/namespaces/inkscape">
 <defs>
  <clipPath clipPathUnits="userSpaceOnUse" id="clipPath3009">
   <path d="m -2,956.36218 -96,0 0,33.5624 96,25.68742 0,-59.24982 z" inkscape:connector-curvature="0"/>
  </clipPath>
  <radialGradient cy="-4.869" r="42" gradientUnits="userSpaceOnUse" id="radialGradient3773" cx="43.98" inkscape:collect="always" gradientTransform="matrix(1.87193 0.00715 -0.008 2.05641 -58.57 -947.69)">
   <stop stop-color="#ffffff" stop-opacity="0.545"/>
   <stop stop-color="#ffffff" stop-opacity="0.412" offset="0.302"/>
   <stop stop-color="#7b1515" stop-opacity="0.373" offset="1"/>
  </radialGradient>
  <radialGradient cy="90.17" r="42" gradientUnits="userSpaceOnUse" id="radialGradient5094-6" cx="48" inkscape:collect="always" gradientTransform="matrix(1.31583 0 0 1.12231 -15.16 951.16)">
   <stop stop-color="#ffffff" stop-opacity="1"/>
   <stop stop-color="#ffffff" stop-opacity="0" offset="1"/>
  </radialGradient>
  <linearGradient x1="28.06" x2="67.938" xlink:href="#linearGradient4397-0" gradientUnits="userSpaceOnUse" id="linearGradient5478" inkscape:collect="always"/>
  <linearGradient id="linearGradient4397-0">
   <stop stop-color="#af8011" stop-opacity="1"/>
   <stop stop-color="#f4a200" stop-opacity="1" offset="1"/>
  </linearGradient>
  <filter x="0" y="0" color-interpolation-filters="sRGB" height="1.5" id="filter5466-4" width="1.5" inkscape:label="Drop glow and inner" inkscape:menu="Shadows and Glows" inkscape:menu-tooltip="Adds a colorizable glow inside">
   <feGaussianBlur stdDeviation="0.6" result="result8"/>
   <feComposite in="SourceGraphic" operator="in" in2="result8" result="result6"/>
   <feComposite operator="in" in2="result6" result="result11"/>
   <feFlood flood-color="rgb(58,50,27)" flood-opacity="1" in="result11" result="result10"/>
   <feBlend mode="normal" in="result11" in2="result10" result="result12"/>
   <feComposite in="result12" operator="in" in2="SourceGraphic" result="fbSourceGraphic"/>
   <feColorMatrix values="0 0 0 -1 0 0 0 0 -1 0 0 0 0 -1 0 0 0 0 1 0" in="fbSourceGraphic" result="fbSourceGraphicAlpha"/>
   <feGaussianBlur stdDeviation="1.5" in="fbSourceGraphicAlpha" result="blur"/>
   <feColorMatrix values="-1 0 0 0 1 0 -1 0 0 1 0 0 -1 0 1 0 0 0 1 0 " type="matrix" result="bluralpha"/>
   <feOffset dx="0" dy="0" result="offsetBlur"/>
   <feMerge>
    <feMergeNode in="offsetBlur"/>
    <feMergeNode in="fbSourceGraphic"/>
   </feMerge>
  </filter>
  <linearGradient x1="32.684" x2="63.32" xlink:href="#linearGradient4397-0" gradientUnits="userSpaceOnUse" id="linearGradient5480" inkscape:collect="always"/>
  <linearGradient x1="45.563" x2="50.44" xlink:href="#linearGradient4397-0" gradientUnits="userSpaceOnUse" id="linearGradient5482" inkscape:collect="always"/>
  <linearGradient x1="30.75" x2="65.25" xlink:href="#linearGradient4469-0-3" gradientUnits="userSpaceOnUse" id="linearGradient5484" inkscape:collect="always"/>
  <linearGradient id="linearGradient4469-0-3">
   <stop stop-color="#e9ad1e" stop-opacity="1"/>
   <stop stop-color="#ffbb36" stop-opacity="1" offset="1"/>
  </linearGradient>
  <filter x="-0.25" y="-0.25" color-interpolation-filters="sRGB" height="1.5" id="filter4546-9" width="1.5" inkscape:label="Drop shadow" inkscape:menu="Shadows and Glows" inkscape:menu-tooltip="Adds a colorizable drop shadow inside">
   <feGaussianBlur stdDeviation="0.6" result="result8"/>
   <feOffset dx="0" dy="0" result="result11"/>
   <feComposite in="SourceGraphic" operator="in" in2="result11" result="result6"/>
   <feFlood flood-color="rgb(255,255,255)" flood-opacity="1" in="result6" result="result10"/>
   <feBlend mode="normal" in="result6" in2="result10" result="result12"/>
   <feComposite operator="in" in2="SourceGraphic" result="fbSourceGraphic"/>
   <feColorMatrix values="0 0 0 -1 0 0 0 0 -1 0 0 0 0 -1 0 0 0 0 1 0" in="fbSourceGraphic" result="fbSourceGraphicAlpha"/>
   <feGaussianBlur stdDeviation="0.5" in="fbSourceGraphicAlpha" result="blur"/>
   <feColorMatrix values="1 0 0 0 0 0 1 0 0 0 0 0 1 0 0 0 0 0 0.5 0 " type="matrix" result="bluralpha"/>
   <feOffset dx="0" dy="0" in="bluralpha" result="offsetBlur"/>
   <feMerge>
    <feMergeNode in="offsetBlur"/>
    <feMergeNode in="fbSourceGraphic"/>
   </feMerge>
  </filter>
  <linearGradient x1="30.656" x2="65.38" xlink:href="#linearGradient4469-0-3" gradientUnits="userSpaceOnUse" id="linearGradient5486" inkscape:collect="always"/>
  <linearGradient x1="34.875" x2="61.25" xlink:href="#linearGradient4469-0-3" gradientUnits="userSpaceOnUse" id="linearGradient5488" inkscape:collect="always"/>
  <linearGradient x1="10.268" x2="45" xlink:href="#linearGradient4469-0-3" gradientUnits="userSpaceOnUse" id="linearGradient5490" inkscape:collect="always"/>
  <linearGradient x1="51" x2="85.73" xlink:href="#linearGradient4469-0-3" gradientUnits="userSpaceOnUse" id="linearGradient5492" inkscape:collect="always"/>
  <radialGradient cy="22.377" r="11.776" gradientUnits="userSpaceOnUse" id="radialGradient5496" cx="44.984" inkscape:collect="always">
   <stop stop-color="#f1ab03" stop-opacity="1"/>
   <stop stop-color="#e89a00" stop-opacity="1" offset="1"/>
  </radialGradient>
  <filter x="-0.25" y="-0.25" color-interpolation-filters="sRGB" height="1.5" id="filter4793" width="1.5" inkscape:label="Drop shadow" inkscape:menu="Shadows and Glows" inkscape:menu-tooltip="Adds a colorizable drop shadow inside">
   <feGaussianBlur stdDeviation="0.6" result="result8"/>
   <feOffset dx="0" dy="0" result="result11"/>
   <feComposite in="SourceGraphic" operator="in" in2="result11" result="result6"/>
   <feFlood flood-color="rgb(255,255,255)" flood-opacity="1" in="result6" result="result10"/>
   <feBlend mode="normal" in="result6" in2="result10" result="result12"/>
   <feComposite operator="in" in2="SourceGraphic" result="fbSourceGraphic"/>
   <feColorMatrix values="0 0 0 -1 0 0 0 0 -1 0 0 0 0 -1 0 0 0 0 1 0" in="fbSourceGraphic" result="fbSourceGraphicAlpha"/>
   <feGaussianBlur stdDeviation="0.5" in="fbSourceGraphicAlpha" result="blur"/>
   <feColorMatrix values="1 0 0 0 0 0 1 0 0 0 0 0 1 0 0 0 0 0 0.5 0 " type="matrix" result="bluralpha"/>
   <feOffset dx="0" dy="0" in="bluralpha" result="offsetBlur"/>
   <feMerge>
    <feMergeNode in="offsetBlur"/>
    <feMergeNode in="fbSourceGraphic"/>
   </feMerge>
  </filter>
  <radialGradient cy="18.887" r="10.431" xlink:href="#linearGradient3960-3-1" gradientUnits="userSpaceOnUse" id="radialGradient7915" cx="51.48" inkscape:collect="always" gradientTransform="matrix(1.48054 -0.07785 0.08422 1.60157 -71.22 -12.691)"/>
  <linearGradient id="linearGradient3960-3-1">
   <stop stop-color="#f4a300" stop-opacity="1"/>
   <stop stop-color="#ffc639" stop-opacity="1" offset="0.644"/>
   <stop stop-color="#fdf683" stop-opacity="1" offset="0.677"/>
   <stop stop-color="#fbf47c" stop-opacity="1" offset="1"/>
  </linearGradient>
  <radialGradient cy="18.887" r="10.431" xlink:href="#linearGradient3960-3-1" gradientUnits="userSpaceOnUse" id="radialGradient7912" cx="51.48" inkscape:collect="always" gradientTransform="matrix(1.48054 -0.07785 0.08422 1.60157 -55.902 -3.846)"/>
  <radialGradient cy="18.887" r="10.431" xlink:href="#linearGradient3960-3-1" gradientUnits="userSpaceOnUse" id="radialGradient7909" cx="51.48" inkscape:collect="always" gradientTransform="matrix(1.48054 -0.07785 0.08422 1.60157 -40.583 4.998)"/>
  <radialGradient cy="18.887" r="10.431" xlink:href="#linearGradient3960-3-1" gradientUnits="userSpaceOnUse" id="radialGradient7906" cx="51.48" inkscape:collect="always" gradientTransform="matrix(1.48054 -0.07785 0.08422 1.60157 -25.26 -3.846)"/>
  <radialGradient cy="18.887" r="10.431" xlink:href="#linearGradient3960-3-1" gradientUnits="userSpaceOnUse" id="radialGradient7903" cx="51.48" inkscape:collect="always" gradientTransform="matrix(1.48054 -0.07785 0.08422 1.60157 -25.26 13.843)"/>
  <radialGradient cy="18.887" r="10.431" xlink:href="#linearGradient3960-3-1" gradientUnits="userSpaceOnUse" id="radialGradient7900" cx="51.48" inkscape:collect="always" gradientTransform="matrix(1.48054 -0.07785 0.08422 1.60157 -9.944 4.998)"/>
  <radialGradient cy="18.887" r="10.431" xlink:href="#linearGradient3960-3-1" gradientUnits="userSpaceOnUse" id="radialGradient7897" cx="51.48" inkscape:collect="always" gradientTransform="matrix(1.48054 -0.07785 0.08422 1.60157 5.375 -3.846)"/>
  <radialGradient cy="18.887" r="10.431" xlink:href="#linearGradient3960-3-1" gradientUnits="userSpaceOnUse" id="radialGradient7894" cx="51.48" inkscape:collect="always" gradientTransform="matrix(1.48054 -0.07785 0.08422 1.60157 20.694 -12.691)"/>
  <radialGradient cy="18.887" r="10.431" xlink:href="#linearGradient3960-3-1" gradientUnits="userSpaceOnUse" id="radialGradient7891" cx="51.48" inkscape:collect="always" gradientTransform="matrix(1.48054 -0.07785 0.08422 1.60157 -71.22 4.998)"/>
  <radialGradient cy="18.887" r="10.431" xlink:href="#linearGradient3960-3-1" gradientUnits="userSpaceOnUse" id="radialGradient7888" cx="51.48" inkscape:collect="always" gradientTransform="matrix(1.48054 -0.07785 0.08422 1.60157 -71.22 40.38)"/>
  <radialGradient cy="18.887" r="10.431" xlink:href="#linearGradient3960-3-1" gradientUnits="userSpaceOnUse" id="radialGradient7885" cx="51.48" inkscape:collect="always" gradientTransform="matrix(1.48054 -0.07785 0.08422 1.60157 -71.22 22.687)"/>
  <radialGradient cy="18.887" r="10.431" xlink:href="#linearGradient3960-3-1" gradientUnits="userSpaceOnUse" id="radialGradient7882" cx="51.48" inkscape:collect="always" gradientTransform="matrix(1.48054 -0.07785 0.08422 1.60157 -55.902 13.843)"/>
  <radialGradient cy="18.887" r="10.431" xlink:href="#linearGradient3960-3-1" gradientUnits="userSpaceOnUse" id="radialGradient7879" cx="51.48" inkscape:collect="always" gradientTransform="matrix(1.48054 -0.07785 0.08422 1.60157 -55.902 31.532)"/>
  <radialGradient cy="18.887" r="10.431" xlink:href="#linearGradient3960-3-1" gradientUnits="userSpaceOnUse" id="radialGradient7876" cx="51.48" inkscape:collect="always" gradientTransform="matrix(1.48054 -0.07785 0.08422 1.60157 -40.583 22.687)"/>
  <radialGradient cy="18.887" r="10.431" xlink:href="#linearGradient3960-3-1" gradientUnits="userSpaceOnUse" id="radialGradient7873" cx="51.48" inkscape:collect="always" gradientTransform="matrix(1.48054 -0.07785 0.08422 1.60157 -9.944 22.687)"/>
  <radialGradient cy="18.887" r="10.431" xlink:href="#linearGradient3960-3-1" gradientUnits="userSpaceOnUse" id="radialGradient7870" cx="51.48" inkscape:collect="always" gradientTransform="matrix(1.48054 -0.07785 0.08422 1.60157 5.375 13.843)"/>
  <radialGradient cy="18.887" r="10.431" xlink:href="#linearGradient3960-3-1" gradientUnits="userSpaceOnUse" id="radialGradient7867" cx="51.48" inkscape:collect="always" gradientTransform="matrix(1.48054 -0.07785 0.08422 1.60157 5.375 31.532)"/>
  <radialGradient cy="18.887" r="10.431" xlink:href="#linearGradient3960-3-1" gradientUnits="userSpaceOnUse" id="radialGradient7864" cx="51.48" inkscape:collect="always" gradientTransform="matrix(1.48054 -0.07785 0.08422 1.60157 20.694 22.687)"/>
  <radialGradient cy="18.887" r="10.431" xlink:href="#linearGradient3960-3-1" gradientUnits="userSpaceOnUse" id="radialGradient7861" cx="51.48" inkscape:collect="always" gradientTransform="matrix(1.48054 -0.07785 0.08422 1.60157 20.694 4.998)"/>
  <radialGradient cy="18.887" r="10.431" xlink:href="#linearGradient3960-3-1" gradientUnits="userSpaceOnUse" id="radialGradient7858" cx="51.48" inkscape:collect="always" gradientTransform="matrix(1.48054 -0.07785 0.08422 1.60157 20.694 40.38)"/>
  <radialGradient cy="18.887" r="10.431" xlink:href="#linearGradient3960-3-1" gradientUnits="userSpaceOnUse" id="radialGradient7855" cx="51.48" inkscape:collect="always" gradientTransform="matrix(1.48054 -0.07785 0.08422 1.60157 -71.22 58.07)"/>
  <radialGradient cy="18.887" r="10.431" xlink:href="#linearGradient3960-3-1" gradientUnits="userSpaceOnUse" id="radialGradient7852" cx="51.48" inkscape:collect="always" gradientTransform="matrix(1.48054 -0.07785 0.08422 1.60157 -55.902 49.22)"/>
  <radialGradient cy="18.887" r="10.431" xlink:href="#linearGradient3960-3-1" gradientUnits="userSpaceOnUse" id="radialGradient7849" cx="51.48" inkscape:collect="always" gradientTransform="matrix(1.48054 -0.07785 0.08422 1.60157 -55.902 66.91)"/>
  <radialGradient cy="18.887" r="10.431" xlink:href="#linearGradient3960-3-1" gradientUnits="userSpaceOnUse" id="radialGradient7846" cx="51.48" inkscape:collect="always" gradientTransform="matrix(1.48054 -0.07785 0.08422 1.60157 -40.583 58.07)"/>
  <radialGradient cy="18.887" r="10.431" xlink:href="#linearGradient3960-3-1" gradientUnits="userSpaceOnUse" id="radialGradient7843" cx="51.48" inkscape:collect="always" gradientTransform="matrix(1.48054 -0.07785 0.08422 1.60157 -40.583 40.38)"/>
  <radialGradient cy="18.887" r="10.431" xlink:href="#linearGradient3960-3-1" gradientUnits="userSpaceOnUse" id="radialGradient7840" cx="51.48" inkscape:collect="always" gradientTransform="matrix(1.48054 -0.07785 0.08422 1.60157 -25.26 31.532)"/>
  <radialGradient cy="18.887" r="10.431" xlink:href="#linearGradient3960-3-1" gradientUnits="userSpaceOnUse" id="radialGradient7837" cx="51.48" inkscape:collect="always" gradientTransform="matrix(1.48054 -0.07785 0.08422 1.60157 -25.26 49.22)"/>
  <radialGradient cy="18.887" r="10.431" xlink:href="#linearGradient3960-3-1" gradientUnits="userSpaceOnUse" id="radialGradient7834" cx="51.48" inkscape:collect="always" gradientTransform="matrix(1.48054 -0.07785 0.08422 1.60157 -9.944 40.38)"/>
  <radialGradient cy="18.887" r="10.431" xlink:href="#linearGradient3960-3-1" gradientUnits="userSpaceOnUse" id="radialGradient7831" cx="51.48" inkscape:collect="always" gradientTransform="matrix(1.48054 -0.07785 0.08422 1.60157 -25.26 66.91)"/>
  <radialGradient cy="18.887" r="10.431" xlink:href="#linearGradient3960-3-1" gradientUnits="userSpaceOnUse" id="radialGradient7828" cx="51.48" inkscape:collect="always" gradientTransform="matrix(1.48054 -0.07785 0.08422 1.60157 -9.944 58.07)"/>
  <radialGradient cy="18.887" r="10.431" xlink:href="#linearGradient3960-3-1" gradientUnits="userSpaceOnUse" id="radialGradient7825" cx="51.48" inkscape:collect="always" gradientTransform="matrix(1.48054 -0.07785 0.08422 1.60157 5.375 49.22)"/>
  <radialGradient cy="18.887" r="10.431" xlink:href="#linearGradient3960-3-1" gradientUnits="userSpaceOnUse" id="radialGradient7822" cx="51.48" inkscape:collect="always" gradientTransform="matrix(1.48054 -0.07785 0.08422 1.60157 5.375 66.911)"/>
  <radialGradient cy="18.887" r="10.431" xlink:href="#linearGradient3960-3-1" gradientUnits="userSpaceOnUse" id="radialGradient7819" cx="51.48" inkscape:collect="always" gradientTransform="matrix(1.48054 -0.07785 0.08422 1.60157 20.694 58.07)"/>
  <radialGradient cy="18.887" r="10.431" xlink:href="#linearGradient3960-3-1" gradientUnits="userSpaceOnUse" id="radialGradient3546" cx="51.48" inkscape:collect="always" gradientTransform="matrix(1.48054 -0.07785 0.08422 1.60157 -55.902 -21.646)"/>
  <radialGradient cy="18.887" r="10.431" xlink:href="#linearGradient3960-3-1" gradientUnits="userSpaceOnUse" id="radialGradient3573" cx="51.48" inkscape:collect="always" gradientTransform="matrix(1.48054 -0.07785 0.08422 1.60157 5.375 -21.646)"/>
  <radialGradient cy="18.887" r="10.431" xlink:href="#linearGradient3960-3-1" gradientUnits="userSpaceOnUse" id="radialGradient3570" cx="51.48" inkscape:collect="always" gradientTransform="matrix(1.48054 -0.07785 0.08422 1.60157 -9.944 -12.801)"/>
  <radialGradient cy="18.887" r="10.431" xlink:href="#linearGradient3960-3-1" gradientUnits="userSpaceOnUse" id="radialGradient3549" cx="51.48" inkscape:collect="always" gradientTransform="matrix(1.48054 -0.07785 0.08422 1.60157 -40.583 -12.801)"/>
  <radialGradient cy="18.887" r="10.431" xlink:href="#linearGradient3960-3-1" gradientUnits="userSpaceOnUse" id="radialGradient4665" cx="51.48" inkscape:collect="always" gradientTransform="matrix(1.48054 -0.07785 0.08422 1.60157 -25.26 -21.646)"/>
  <clipPath clipPathUnits="userSpaceOnUse" id="clipPath3952">
   <use xlink:href="#SVGCleanerId_0" transform="matrix(1 0 0 -1 0 0)"/>
  </clipPath>
  <clipPath clipPathUnits="userSpaceOnUse" id="clipPath3956">
   <use xlink:href="#SVGCleanerId_0"/>
  </clipPath>
  <clipPath clipPathUnits="userSpaceOnUse" id="clipPath3960">
   <rect x="-51.834" rx="21.988" y="15.543" ry="22.18" height="81.64" width="80.917" transform="matrix(0.70711 -0.70711 0.70711 0.70711 0 0)"/>
  </clipPath>
  <clipPath clipPathUnits="userSpaceOnUse" id="clipPath3964">
   <rect x="7.542" rx="21.988" y="6.087" ry="22.18" height="81.64" width="80.917"/>
  </clipPath>
  <rect x="2" rx="25" y="958.36" height="92" id="SVGCleanerId_0" width="92"/>
  <path d="m 73.187499,29.91187 c 3.449909,-0.3211 6.488724,0.27097 8.65625,1.375 2.167526,1.10403 3.391798,2.59556 3.71875,4.25 0.753701,3.81389 -0.884929,8.64269 -7.34375,9.875 l -3.03125,0.5625 1.46875,2.71875 c 0.220272,0.40836 0.54277,1.52372 0.53125,2.5625 -0.01152,1.03878 -0.282489,1.92926 -0.84375,2.5 -1.114561,1.13338 -2.950408,1.76239 -5.0625,1.84375 -2.112092,0.0814 -4.410376,-0.41518 -5.96875,-1.0625 -4.583616,-1.90395 -10.923997,-6.14659 -14.3125,-10.4375 4.979827,-5.60408 14.428741,-13.46534 22.1875,-14.1875 z" stroke-width="4.5" fill="url(#linearGradient5492)" color="#000000" fill-opacity="1" stroke="none" filter="url(#filter4546-9)" id="SVGCleanerId_1" visibility="visible"/>
 </defs>
 <g inkscape:label="Layer 1" inkscape:groupmode="layer" transform="matrix(1 0 0 1 0 -956.36)">
  <g stroke-opacity="0.603" display="inline" clip-path="url(#clipPath3964)" enable-background="new" stroke="#6c1e1e" transform="matrix(1.13697 0 0 1.12692 -6.574 951.5)">
   <path d="M 9.09375,5.4375 C 7.2450436,6.4575926 6,8.3872941 6,10.65625 l 0,9.125 1.15625,0 5.09375,-8.84375 -3.15625,-5.5 z" stroke-width="0.437" fill="url(#radialGradient7915)" fill-opacity="1" stroke="#260202" stroke-dasharray="none" stroke-dashoffset="0" stroke-linecap="round" stroke-linejoin="round" stroke-miterlimit="4" inkscape:connector-curvature="0"/>
   <path d="m 22.46781,28.625668 -10.212875,0 -5.1064365,-8.84461 5.1064375,-8.84461 10.212875,0 5.106437,8.84461 z" stroke-width="0.437" fill="url(#radialGradient7912)" fill-opacity="1" stroke="#260202" stroke-dasharray="none" stroke-dashoffset="0" stroke-linecap="round" stroke-linejoin="round" stroke-miterlimit="4" inkscape:connector-curvature="0"/>
   <path d="m 37.787121,37.470288 -10.212879,0 -5.106436,-8.84461 5.106437,-8.84462 10.212878,0 5.10643,8.84462 z" stroke-width="0.437" fill="url(#radialGradient7909)" fill-opacity="1" stroke="#260202" stroke-dasharray="none" stroke-dashoffset="0" stroke-linecap="round" stroke-linejoin="round" stroke-miterlimit="4" inkscape:connector-curvature="0"/>
   <path d="m 53.106431,28.625678 -10.21288,0 -5.10643,-8.84461 5.10644,-8.84461 10.21287,0 5.10644,8.84461 z" stroke-width="0.437" fill="url(#radialGradient7906)" fill-opacity="1" stroke="#260202" stroke-dasharray="none" stroke-dashoffset="0" stroke-linecap="round" stroke-linejoin="round" stroke-miterlimit="4" inkscape:connector-curvature="0"/>
   <path d="m 53.106431,46.3149 -10.21288,0 -5.10643,-8.844612 5.10643,-8.84461 10.21288,0 5.10644,8.84462 z" stroke-width="0.437" fill="url(#radialGradient7903)" fill-opacity="1" stroke="#260202" stroke-dasharray="none" stroke-dashoffset="0" stroke-linecap="round" stroke-linejoin="round" stroke-miterlimit="4" inkscape:connector-curvature="0"/>
   <path d="m 68.425741,37.470298 -10.21287,0 -5.10644,-8.84461 5.10644,-8.84462 10.21287,0 5.10644,8.84462 z" stroke-width="0.437" fill="url(#radialGradient7900)" fill-opacity="1" stroke="#260202" stroke-dasharray="none" stroke-dashoffset="0" stroke-linecap="round" stroke-linejoin="round" stroke-miterlimit="4" inkscape:connector-curvature="0"/>
   <path d="m 83.745051,28.625688 -10.21287,0 -5.10644,-8.84461 5.10644,-8.84461 10.21287,0 5.10644,8.84461 z" stroke-width="0.437" fill="url(#radialGradient7897)" fill-opacity="1" stroke="#260202" stroke-dasharray="none" stroke-dashoffset="0" stroke-linecap="round" stroke-linejoin="round" stroke-miterlimit="4" inkscape:connector-curvature="0"/>
   <path d="m 86.90625,5.4375 -3.15625,5.5 5.09375,8.84375 1.15625,0 0,-9.125 C 90,8.3872941 88.754956,6.4575926 86.90625,5.4375 z" stroke-width="0.437" fill="url(#radialGradient7894)" fill-opacity="1" stroke="#260202" stroke-dasharray="none" stroke-dashoffset="0" stroke-linecap="round" stroke-linejoin="round" stroke-miterlimit="4" inkscape:connector-curvature="0"/>
   <path d="m 6,19.78125 0,17.6875 1.15625,0 L 12.25,28.625 7.15625,19.78125 6,19.78125 z" stroke-width="0.437" fill="url(#radialGradient7891)" fill-opacity="1" stroke="#260202" stroke-dasharray="none" stroke-dashoffset="0" stroke-linecap="round" stroke-linejoin="round" stroke-miterlimit="4" inkscape:connector-curvature="0"/>
   <path d="m 6,55.15625 0,17.6875 1.15625,0 L 12.25,64 7.15625,55.15625 6,55.15625 z" stroke-width="0.437" fill="url(#radialGradient7888)" fill-opacity="1" stroke="#260202" stroke-dasharray="none" stroke-dashoffset="0" stroke-linecap="round" stroke-linejoin="round" stroke-miterlimit="4" inkscape:connector-curvature="0"/>
   <path d="m 6,37.46875 0,17.6875 1.15625,0 L 12.25,46.3125 7.15625,37.46875 6,37.46875 z" stroke-width="0.437" fill="url(#radialGradient7885)" fill-opacity="1" stroke="#260202" stroke-dasharray="none" stroke-dashoffset="0" stroke-linecap="round" stroke-linejoin="round" stroke-miterlimit="4" inkscape:connector-curvature="0"/>
   <path d="m 22.467805,46.314891 -10.21287,0 -5.1064405,-8.844603 5.1064405,-8.84462 10.21287,0 5.10644,8.84462 z" stroke-width="0.437" fill="url(#radialGradient7882)" fill-opacity="1" stroke="#260202" stroke-dasharray="none" stroke-dashoffset="0" stroke-linecap="round" stroke-linejoin="round" stroke-miterlimit="4" inkscape:connector-curvature="0"/>
   <path d="m 22.467805,64.004114 -10.21287,0 -5.1064405,-8.844608 5.1064405,-8.844615 10.21287,0 5.10644,8.844616 z" stroke-width="0.437" fill="url(#radialGradient7879)" fill-opacity="1" stroke="#260202" stroke-dasharray="none" stroke-dashoffset="0" stroke-linecap="round" stroke-linejoin="round" stroke-miterlimit="4" inkscape:connector-curvature="0"/>
   <path d="m 37.787111,55.159507 -10.212866,0 -5.10644,-8.844608 5.10644,-8.844611 10.212866,0 5.10644,8.844612 z" stroke-width="0.437" fill="url(#radialGradient7876)" fill-opacity="1" stroke="#260202" stroke-dasharray="none" stroke-dashoffset="0" stroke-linecap="round" stroke-linejoin="round" stroke-miterlimit="4" inkscape:connector-curvature="0"/>
   <path d="m 68.425741,55.159488 -10.21287,0 -5.10644,-8.844608 5.10644,-8.844612 10.21287,0 5.10644,8.844613 z" stroke-width="0.437" fill="url(#radialGradient7873)" fill-opacity="1" stroke="#260202" stroke-dasharray="none" stroke-dashoffset="0" stroke-linecap="round" stroke-linejoin="round" stroke-miterlimit="4" inkscape:connector-curvature="0"/>
   <path d="m 83.745061,46.314881 -10.21288,0 -5.10644,-8.844603 5.10644,-8.84462 10.21288,0 5.10643,8.84462 z" stroke-width="0.437" fill="url(#radialGradient7870)" fill-opacity="1" stroke="#260202" stroke-dasharray="none" stroke-dashoffset="0" stroke-linecap="round" stroke-linejoin="round" stroke-miterlimit="4" inkscape:connector-curvature="0"/>
   <path d="m 83.745051,64.004104 -10.21287,0 -5.10644,-8.844608 5.10644,-8.844615 10.212879,0 5.10643,8.844616 z" stroke-width="0.437" fill="url(#radialGradient7867)" fill-opacity="1" stroke="#260202" stroke-dasharray="none" stroke-dashoffset="0" stroke-linecap="round" stroke-linejoin="round" stroke-miterlimit="4" inkscape:connector-curvature="0"/>
   <path d="M 88.84375,37.46875 83.75,46.3125 l 5.09375,8.84375 1.15625,0 0,-17.6875 -1.15625,0 z" stroke-width="0.437" fill="url(#radialGradient7864)" fill-opacity="1" stroke="#260202" stroke-dasharray="none" stroke-dashoffset="0" stroke-linecap="round" stroke-linejoin="round" stroke-miterlimit="4" inkscape:connector-curvature="0"/>
   <path d="M 88.84375,19.78125 83.75,28.625 l 5.09375,8.84375 1.15625,0 0,-17.6875 -1.15625,0 z" stroke-width="0.437" fill="url(#radialGradient7861)" fill-opacity="1" stroke="#260202" stroke-dasharray="none" stroke-dashoffset="0" stroke-linecap="round" stroke-linejoin="round" stroke-miterlimit="4" inkscape:connector-curvature="0"/>
   <path d="M 88.84375,55.15625 83.75,64 l 5.09375,8.84375 1.15625,0 0,-17.6875 -1.15625,0 z" stroke-width="0.437" fill="url(#radialGradient7858)" fill-opacity="1" stroke="#260202" stroke-dasharray="none" stroke-dashoffset="0" stroke-linecap="round" stroke-linejoin="round" stroke-miterlimit="4" inkscape:connector-curvature="0"/>
   <path d="m 6,72.84375 0,9.8125 c 0,2.130456 1.1166381,3.998384 2.78125,5.0625 L 12.25,81.6875 7.15625,72.84375 6,72.84375 z" stroke-width="0.437" fill="url(#radialGradient7855)" fill-opacity="1" stroke="#260202" stroke-dasharray="none" stroke-dashoffset="0" stroke-linecap="round" stroke-linejoin="round" stroke-miterlimit="4" inkscape:connector-curvature="0"/>
   <path d="m 22.467811,81.693313 -10.212875,0 -5.1064365,-8.844612 5.1064375,-8.844615 10.212875,0 5.106437,8.844616 z" stroke-width="0.437" fill="url(#radialGradient7852)" fill-opacity="1" stroke="#260202" stroke-dasharray="none" stroke-dashoffset="0" stroke-linecap="round" stroke-linejoin="round" stroke-miterlimit="4" inkscape:connector-curvature="0"/>
   <path d="m 12.25,81.6875 -3.46875,6.03125 c 0.9325646,0.596149 2.025206,0.9375 3.21875,0.9375 l 14.46875,0 -4,-6.96875 -10.21875,0 z" stroke-width="0.437" fill="url(#radialGradient7849)" fill-opacity="1" stroke="#260202" stroke-dasharray="none" stroke-dashoffset="0" stroke-linecap="round" stroke-linejoin="round" stroke-miterlimit="4" inkscape:connector-curvature="0"/>
   <path d="m 27.5625,72.84375 -5.09375,8.84375 4,6.96875 12.40625,0 4.03125,-6.96875 -5.125,-8.84375 -10.21875,0 z" stroke-width="0.437" fill="url(#radialGradient7846)" fill-opacity="1" stroke="#260202" stroke-dasharray="none" stroke-dashoffset="0" stroke-linecap="round" stroke-linejoin="round" stroke-miterlimit="4" inkscape:connector-curvature="0"/>
   <path d="m 37.787121,72.848702 -10.212875,0 -5.106436,-8.844608 5.106437,-8.844615 10.212874,0 5.10644,8.844616 z" stroke-width="0.437" fill="url(#radialGradient7843)" fill-opacity="1" stroke="#260202" stroke-dasharray="none" stroke-dashoffset="0" stroke-linecap="round" stroke-linejoin="round" stroke-miterlimit="4" inkscape:connector-curvature="0"/>
   <path d="m 53.106431,64.004095 -10.21287,0 -5.10644,-8.844608 5.10644,-8.844615 10.21287,0 5.10644,8.844616 z" stroke-width="0.437" fill="url(#radialGradient7840)" fill-opacity="1" stroke="#260202" stroke-dasharray="none" stroke-dashoffset="0" stroke-linecap="round" stroke-linejoin="round" stroke-miterlimit="4" inkscape:connector-curvature="0"/>
   <path d="m 53.106431,81.693323 -10.21287,0 -5.10644,-8.844613 5.10644,-8.844615 10.21287,0 5.10644,8.844616 z" stroke-width="0.437" fill="url(#radialGradient7837)" fill-opacity="1" stroke="#260202" stroke-dasharray="none" stroke-dashoffset="0" stroke-linecap="round" stroke-linejoin="round" stroke-miterlimit="4" inkscape:connector-curvature="0"/>
   <path d="m 68.425741,72.848711 -10.21287,0 -5.10644,-8.844608 5.10644,-8.844615 10.21287,0 5.10644,8.844616 z" stroke-width="0.437" fill="url(#radialGradient7834)" fill-opacity="1" stroke="#260202" stroke-dasharray="none" stroke-dashoffset="0" stroke-linecap="round" stroke-linejoin="round" stroke-miterlimit="4" inkscape:connector-curvature="0"/>
   <path d="m 42.90625,81.6875 -4.03125,6.96875 18.25,0 -4.03125,-6.96875 -10.1875,0 z" stroke-width="0.437" fill="url(#radialGradient7831)" fill-opacity="1" stroke="#260202" stroke-dasharray="none" stroke-dashoffset="0" stroke-linecap="round" stroke-linejoin="round" stroke-miterlimit="4" inkscape:connector-curvature="0"/>
   <path d="m 58.21875,72.84375 -5.125,8.84375 4.03125,6.96875 12.40625,0 4,-6.96875 -5.09375,-8.84375 -10.21875,0 z" stroke-width="0.437" fill="url(#radialGradient7828)" fill-opacity="1" stroke="#260202" stroke-dasharray="none" stroke-dashoffset="0" stroke-linecap="round" stroke-linejoin="round" stroke-miterlimit="4" inkscape:connector-curvature="0"/>
   <path d="m 83.745051,81.693323 -10.21287,0 -5.10644,-8.844604 5.10644,-8.844615 10.21287,0 5.10644,8.844616 z" stroke-width="0.437" fill="url(#radialGradient7825)" fill-opacity="1" stroke="#260202" stroke-dasharray="none" stroke-dashoffset="0" stroke-linecap="round" stroke-linejoin="round" stroke-miterlimit="4" inkscape:connector-curvature="0"/>
   <path d="m 73.53125,81.6875 -4,6.96875 14.46875,0 c 1.193544,0 2.286185,-0.341351 3.21875,-0.9375 L 83.75,81.6875 l -10.21875,0 z" stroke-width="0.437" fill="url(#radialGradient7822)" fill-opacity="1" stroke="#260202" stroke-dasharray="none" stroke-dashoffset="0" stroke-linecap="round" stroke-linejoin="round" stroke-miterlimit="4" inkscape:connector-curvature="0"/>
   <path d="M 88.84375,72.84375 83.75,81.6875 87.21875,87.71875 C 88.883362,86.654634 90,84.786706 90,82.65625 l 0,-9.8125 -1.15625,0 z" stroke-width="0.437" fill="url(#radialGradient7819)" fill-opacity="1" stroke="#260202" stroke-dasharray="none" stroke-dashoffset="0" stroke-linecap="round" stroke-linejoin="round" stroke-miterlimit="4" inkscape:connector-curvature="0"/>
   <path d="m 12,4.84375 c -1.004027,0 -1.951354,0.2550905 -2.78125,0.6875 l 3.03125,5.28125 10.21875,0 3.4375,-5.96875 -13.90625,0 z" stroke-width="0.437" fill="url(#radialGradient3546)" fill-opacity="1" stroke="#260202" stroke-dasharray="none" stroke-dashoffset="0" stroke-linecap="round" stroke-linejoin="round" stroke-miterlimit="4" inkscape:connector-curvature="0"/>
   <path d="m 70.09375,4.84375 3.4375,5.96875 10.21875,0 3.03125,-5.28125 C 85.951354,5.0988405 85.004027,4.84375 84,4.84375 l -13.90625,0 z" stroke-width="0.437" fill="url(#radialGradient3573)" fill-opacity="1" stroke="#260202" stroke-dasharray="none" stroke-dashoffset="0" stroke-linecap="round" stroke-linejoin="round" stroke-miterlimit="4" inkscape:connector-curvature="0"/>
   <path d="m 56.5625,4.84375 -3.46875,5.96875 5.125,8.84375 10.21875,0 5.09375,-8.84375 -3.4375,-5.96875 -13.53125,0 z" stroke-width="0.437" fill="url(#radialGradient3570)" fill-opacity="1" stroke="#260202" stroke-dasharray="none" stroke-dashoffset="0" stroke-linecap="round" stroke-linejoin="round" stroke-miterlimit="4" inkscape:connector-curvature="0"/>
   <path d="m 25.90625,4.84375 -3.4375,5.96875 5.09375,8.84375 10.21875,0 5.125,-8.84375 -3.46875,-5.96875 -13.53125,0 z" stroke-width="0.437" fill="url(#radialGradient3549)" fill-opacity="1" stroke="#260202" stroke-dasharray="none" stroke-dashoffset="0" stroke-linecap="round" stroke-linejoin="round" stroke-miterlimit="4" inkscape:connector-curvature="0"/>
   <path d="m 39.4375,4.84375 3.46875,5.96875 10.1875,0 3.46875,-5.96875 -17.125,0 z" stroke-width="0.437" fill="url(#radialGradient4665)" fill-opacity="1" stroke="#260202" stroke-dasharray="none" stroke-dashoffset="0" stroke-linecap="round" stroke-linejoin="round" stroke-miterlimit="4" inkscape:connector-curvature="0"/>
  </g>
  <g display="inline" clip-path="url(#clipPath3960)" enable-background="new" transform="matrix(0.80396 0.79685 -0.80396 0.79685 60.934 940.85)">
   <path d="M 20.25,27.59375 C 13.933609,27.805778 9.0676348,30.829459 8.21875,35.125 c -0.9701541,4.90919 1.6276553,11.06358 9.15625,12.5 -0.92247,1.71013 -1.478543,5.51614 0.6875,7.71875 2.433997,2.475097 6.503535,2.840767 10,2.25 C 28.217735,70.343769 37.079773,80.625 48,80.625 c 10.917677,0 19.778236,-10.28536 19.9375,-23.03125 3.496465,0.590767 7.566003,0.225097 10,-2.25 2.166043,-2.20261 1.60997,-6.00862 0.6875,-7.71875 7.528596,-1.43642 10.126404,-7.59081 9.15625,-12.5 -0.970154,-4.90919 -7.171957,-8.17991 -14.8125,-7.46875 -7.025451,0.653901 -14.501572,5.869463 -19.90625,10.9375 -1.544111,0.698057 -3.256955,1.09375 -5.0625,1.09375 -1.805545,0 -3.518389,-0.395693 -5.0625,-1.09375 C 37.532822,33.525713 30.056701,28.310151 23.03125,27.65625 22.076182,27.567355 21.152342,27.56346 20.25,27.59375 z" fill="url(#linearGradient5478)" fill-opacity="1" fill-rule="nonzero" stroke="none" filter="url(#filter5466-4)" inkscape:connector-curvature="0"/>
   <path d="m 34.02137,4.8943897 c -0.344344,0.0186 -0.683126,0.16405 -0.930563,0.40459 -0.540689,0.47936 -0.515751,1.3691 -0.08092,1.90158 0.277128,0.41162 0.770289,0.53939 1.213777,0.6878 1.319326,0.49648 3.179804,2.00485 4.733713,4.4909703 0.645437,1.03263 1.246181,2.29127 1.780205,3.47948 -2.962453,2.24489 -4.895557,5.79486 -4.895556,9.83157 -10e-7,6.79866 5.428144,12.34003 12.137738,12.34002 6.709594,0 12.178199,-5.54137 12.178205,-12.34002 -5e-6,-4.02632 -1.937693,-7.5886 -4.89556,-9.83157 0.534023,-1.18822 1.094312,-2.44685 1.739741,-3.47948 1.553909,-2.4861203 3.414391,-3.9944903 4.733728,-4.4909703 0.443474,-0.14841 0.977128,-0.27615 1.254235,-0.68781 0.434828,-0.53248 0.459769,-1.42222 -0.08093,-1.90157 -0.329558,-0.32108 -0.800986,-0.50166 -1.254235,-0.40459 -0.633181,0.0809 -1.172118,0.56018 -1.416067,1.13285 -0.289555,0.60938 -3.091718,3.11051 -4.693263,5.6642803 -0.759657,1.21131 -1.214112,2.29059 -1.618365,3.27719 -1.762224,-1.00072 -3.786601,-1.57791 -5.947487,-1.5779 -2.150146,-10e-6 -4.155003,0.58494 -5.907032,1.5779 -0.404249,-0.98659 -0.858709,-2.06588 -1.618363,-3.27719 -1.601565,-2.5537403 -4.403708,-5.0549003 -4.69326,-5.6642803 -0.243961,-0.57268 -0.782893,-1.05194 -1.416067,-1.13285 -0.113342,-0.0242 -0.208895,-0.006 -0.323674,0 z" fill="url(#linearGradient5480)" fill-opacity="1" stroke="none" filter="url(#filter5466-4)" sodipodi:nodetypes="ccccscssscscccccscscsccc" inkscape:connector-curvature="0"/>
   <path d="m 45.562499,81.538 2.4375,10.375 2.4375,-10.375 c -0.801899,0.1149 -1.609104,0.1875 -2.4375,0.1875 -0.828396,0 -1.635601,-0.0726 -2.4375,-0.1875 z" fill="url(#linearGradient5482)" fill-opacity="1" stroke="none" filter="url(#filter5466-4)" inkscape:connector-curvature="0"/>
   <path stroke-width="5.078" d="M 46.34375,42.0625 C 46.947981,42.729004 47.50746,43.395618 48,44 48.488263,43.400867 49.058168,42.754043 49.65625,42.09375 49.114396,42.158433 48.557332,42.1875 48,42.1875 c -0.565356,0 -1.107501,-0.05773 -1.65625,-0.125 z M 48,44 c -1.68386,2.670396 -4.355273,5.182387 -7.28125,7.34375 2.331787,-0.370641 4.73192,-0.5625 7.1875,-0.5625 2.533368,0 5.002187,0.201669 7.40625,0.59375 C 52.372675,49.207982 49.690649,46.681162 48,44 z" fill="url(#linearGradient5484)" color="#000000" fill-opacity="1" stroke="none" filter="url(#filter4546-9)" visibility="visible" inkscape:connector-curvature="0"/>
   <path stroke-width="0.813" d="m 48.312499,55.31812 c -6.232906,0 -12.186275,1.34251 -17.65625,3.78125 0.217948,2.98285 0.954073,5.78604 2.09375,8.25 4.81032,-2.04584 10.054728,-3.1875 15.5625,-3.1875 5.310971,0 10.370821,1.08946 15.03125,3 1.12173,-2.48601 1.84192,-5.31124 2.03125,-8.3125 -5.300786,-2.2786 -11.051158,-3.53125 -17.0625,-3.53125 z" fill="url(#linearGradient5486)" color="#000000" fill-opacity="1" stroke="none" filter="url(#filter4546-9)" visibility="visible" inkscape:connector-curvature="0"/>
   <path stroke-width="3.381" d="m 48.312499,68.94312 c -4.66492,0 -9.178488,0.70501 -13.4375,2.03125 1.701458,2.32143 3.806211,4.19943 6.1875,5.4375 2.35488,-0.41552 4.772008,-0.65625 7.25,-0.65625 2.298736,0 4.550614,0.22508 6.75,0.59375 2.385898,-1.26686 4.495812,-3.17484 6.1875,-5.53125 -4.111624,-1.22746 -8.45418,-1.875 -12.9375,-1.875 z" fill="url(#linearGradient5488)" color="#000000" fill-opacity="1" stroke="none" filter="url(#filter4546-9)" visibility="visible" inkscape:connector-curvature="0"/>
   <path stroke-width="4.5" d="m 22.812499,29.91187 c 7.758759,0.72216 17.207673,8.58342 22.1875,14.1875 -3.388503,4.29091 -9.728884,8.53355 -14.3125,10.4375 -1.558374,0.64732 -3.856658,1.14386 -5.96875,1.0625 -2.112092,-0.0814 -3.947939,-0.71037 -5.0625,-1.84375 -0.561261,-0.57074 -0.83223,-1.46122 -0.84375,-2.5 -0.01152,-1.03878 0.310978,-2.15414 0.53125,-2.5625 l 1.46875,-2.71875 -3.03125,-0.5625 c -6.45882,-1.23231 -8.0974499,-6.06111 -7.343749,-9.875 0.326952,-1.65444 1.551224,-3.14597 3.718749,-4.25 2.167525,-1.10403 5.206341,-1.6961 8.65625,-1.375 z" fill="url(#linearGradient5490)" color="#000000" fill-opacity="1" stroke="none" filter="url(#filter4546-9)" visibility="visible" sodipodi:nodetypes="scsssscccsss" inkscape:connector-curvature="0"/>
   <use xlink:href="#SVGCleanerId_1" sodipodi:nodetypes="ssscccsssscs" inkscape:connector-curvature="0"/>
   <use xlink:href="#SVGCleanerId_1" sodipodi:nodetypes="ssscccsssscs" inkscape:connector-curvature="0"/>
   <path d="m 54.580643,25.548389 c 0,3.689187 -2.990677,6.679863 -6.679863,6.679863 -3.689187,0 -6.679863,-2.990676 -6.679863,-6.679863 0,-3.689186 2.990676,-6.679863 6.679863,-6.679863 3.689186,0 6.679863,2.990677 6.679863,6.679863 z" fill="url(#radialGradient5496)" fill-opacity="1" stroke="none" filter="url(#filter4793)" sodipodi:type="arc" sodipodi:cx="47.90078" sodipodi:cy="25.548389" sodipodi:rx="6.679863" sodipodi:ry="6.679863" transform="matrix(1.52597 0 0 1.52597 -25.1 -13.164)"/>
  </g>
  <path d="m 7.0690968,1052.3622 c -3.779292,0 -6.82182705,-3.0157 -6.82182705,-6.7616 l 0,-2.2537 0,-76.63072 0,-2.25385 c 0,-0.37719 0.047014,-0.73327 0.1065912,-1.09169 0.055369,-0.33312 0.1103316,-0.67268 0.2131819,-0.98606 0.011256,-0.0343 0.02375,-0.0716 0.03553,-0.10557 0.1124124,-0.3243 0.2670518,-0.61694 0.42636415,-0.91562 0.1643969,-0.30823 0.3588463,-0.60359 0.5684855,-0.88042 0.2096394,-0.27679 0.4249738,-0.53356 0.6750761,-0.77475 0.500207,-0.48239 1.072062,-0.91792 1.705458,-1.23257 0.316697,-0.15734 0.652022,-0.27829 0.994848,-0.38739 -0.291294,0.11296 -0.553374,0.26627 -0.817197,0.42261 -0.0084,0.005 -0.02714,-0.006 -0.03554,0 -0.0363,0.0218 -0.07082,0.048 -0.10659,0.0703 -0.136886,0.0864 -0.262666,0.18425 -0.390834,0.28172 -0.120715,0.091 -0.242495,0.18156 -0.355304,0.28174 -0.202301,0.18191 -0.395051,0.38923 -0.568486,0.59867 -0.122313,0.14679 -0.248307,0.29896 -0.355303,0.45781 -0.02853,0.0433 -0.04372,0.0967 -0.07106,0.14087 -0.073629,0.1161 -0.1480652,0.23048 -0.2131819,0.35215 -0.1148431,0.21943 -0.2338464,0.46848 -0.3197731,0.70433 -0.00909,0.0246 -0.02682,0.0458 -0.03553,0.0704 -0.036179,0.10353 -0.040704,0.21055 -0.071061,0.31695 -0.034484,0.12015 -0.080031,0.22879 -0.106591,0.35217 -0.082862,0.38485 -0.1421215,0.78682 -0.1421215,1.19735 l 0,2.25384 0,76.63053 0,2.2539 c 0,3.1348 2.521974,5.6346 5.684856,5.6346 l 2.273942,0 77.3140369,0 2.273942,0 c 3.162884,0 5.684853,-2.4998 5.684853,-5.6346 l 0,-2.2539 0,-76.63053 0,-2.25384 c 0,-0.41053 -0.0593,-0.8125 -0.14212,-1.19735 -0.0503,-0.23316 -0.10051,-0.44814 -0.17765,-0.66912 -0.009,-0.0247 -0.0265,-0.0459 -0.0355,-0.0704 -0.0713,-0.19578 -0.15734,-0.41408 -0.24871,-0.59867 -0.0473,-0.0932 -0.0898,-0.19153 -0.14212,-0.28173 -0.062,-0.10951 -0.14414,-0.21226 -0.21318,-0.31695 -0.10698,-0.15885 -0.23299,-0.31102 -0.3553,-0.45781 -0.1628,-0.19659 -0.34466,-0.39105 -0.53297,-0.56346 -0.0127,-0.0115 -0.0228,-0.0238 -0.0355,-0.0352 -0.15733,-0.1415 -0.32413,-0.26421 -0.49741,-0.38738 -0.116617,-0.0823 -0.232303,-0.17282 -0.3553,-0.24652 -0.008,-0.006 -0.02706,0.005 -0.03548,0 -0.263824,-0.15633 -0.525906,-0.30965 -0.817197,-0.4226 0.342818,0.10906 0.678145,0.23005 0.994848,0.38739 0.633389,0.31465 1.205259,0.75018 1.705459,1.23256 0.25011,0.2412 0.46543,0.49797 0.67507,0.77476 0.20965,0.27683 0.40409,0.57219 0.5685,0.88042 0.15929,0.29868 0.31394,0.59132 0.42637,0.91562 0.0118,0.0348 0.0242,0.0707 0.0355,0.10556 0.1029,0.31339 0.15781,0.65294 0.21318,0.98606 0.0596,0.35843 0.10654,0.7145 0.10654,1.0917 l 0,2.25384 0,76.63055 0,2.2538 c 0,3.7459 -3.04254,6.7616 -6.821833,6.7616 l -81.8619209,0 z" display="inline" clip-path="url(#clipPath3956)" fill="url(#radialGradient5094-6)" fill-opacity="1" fill-rule="nonzero" stroke="none" opacity="0.695" inkscape:connector-curvature="0"/>
  <rect x="0.247" rx="6.822" display="inline" ry="6.808" y="-1051.83" clip-path="url(#clipPath3952)" fill="url(#radialGradient3773)" fill-opacity="1" fill-rule="nonzero" stroke="none" height="95.32" opacity="0.8" width="95.51" transform="matrix(1 0 0 -1 0 0)"/>
  <rect x="-96" rx="25" y="958.36" clip-path="url(#clipPath3009)" fill="#ffffff" fill-opacity="1" height="92" opacity="0.15" width="92" transform="matrix(1 0 0 1 98 0)"/>
 </g>
</svg>
