<svg height="96" width="96" xmlns="http://www.w3.org/2000/svg" xmlns:xlink="http://www.w3.org/1999/xlink" xmlns:sodipodi="http://sodipodi.sourceforge.net/DTD/sodipodi-0.dtd" xmlns:inkscape="http://www.inkscape.org/namespaces/inkscape">
 <defs>
  <clipPath clipPathUnits="userSpaceOnUse" id="clipPath3009">
   <path d="m-2 956.36h-96v33.562l96 25.687v-59.25z"/>
  </clipPath>
  <linearGradient x2="0" y1="98.89" y2="-4.962" gradientUnits="userSpaceOnUse" id="linearGradient3182" gradientTransform="matrix(1.1429 0 0 1.1429 -6.857 -1059.2)">
   <stop stop-color="#1f1f1f"/>
   <stop stop-color="#545454" offset="1"/>
  </linearGradient>
  <clipPath clipPathUnits="userSpaceOnUse" id="clipPath3018">
   <rect x="2" rx="25" y="958.36" height="92" width="92" transform="matrix(1 0 0 -1 0 0)"/>
  </clipPath>
  <linearGradient id="linearGradient2762">
   <stop stop-color="#ffd000"/>
   <stop stop-color="#f00" stop-opacity="0.616" offset="1"/>
  </linearGradient>
  <radialGradient cy="198.45" r="340.46" xlink:href="#linearGradient2762" gradientUnits="userSpaceOnUse" id="radialGradient3206" cx="431.68" gradientTransform="matrix(6.9373 -0.1065 0.00137 0.08916 -2585.8 1030.3)"/>
  <radialGradient cy="146.9" r="24.516" xlink:href="#linearGradient2762" gradientUnits="userSpaceOnUse" id="radialGradient3208" cx="69.48" gradientTransform="matrix(0.99677 -0.0171 0.02391 1.3934 -24.728 801.02)"/>
 </defs>
 <g transform="matrix(1 0 0 1 0 -956.36)">
  <rect rx="6.857" y="-1052.4" clip-path="url(#clipPath3018)" fill="url(#linearGradient3182)" height="96" width="96" transform="matrix(1 0 0 -1 0 0)"/>
  <path d="m64.464 989.26c-0.31958 0.44379-0.98755 1.0104-2.0039 1.6997-0.55922 0.0973-1.45-0.0627-2.6723-0.48004-0.7079-0.39684-1.2183-1.5421-1.5312-3.4359-0.21148-1.4279-1.3926-2.1673-3.5434-2.2181-0.83654 0.27736-2.1177 0.51847-3.8434 0.72332-1.8293-0.37759-3.8429-0.60598-6.0409-0.68519-2.3849-0.0759-3.8776 0.0958-4.478 0.51509-1.4309 1.0472-2.0245 1.8608-1.7809 2.4409 0.33909 0.69544 0.7656 1.0387 1.2796 1.0298 0.2336-0.004 0.48857-0.1252 0.76492-0.36374-0.12816 0.70346-0.73787 1.941-1.8292 3.7127-0.95565 1.5065-1.3307 2.7985-1.1253 3.8759 0.09895 0.31973 0.45664 0.73723 1.0731 1.2525 1.8624-0.41174 3.343-1.2844 4.4419-2.6181 0.36375-0.59052 0.7054-1.1077 1.025-1.5514-0.22412 0.559-0.56577 1.0762-1.025 1.5514-2.5906 4.2809-3.8194 7.5743-3.6863 9.8801 0.05973 0.7586 0.86482 1.373 2.4152 1.843 3.1305-0.054 5.0622-0.5105 5.7953-1.3704 0.27532-0.2968 1.2051-1.9489 2.7893-4.9562 1.0878-1.9762 2.6048-3.4484 4.5512-4.4168-0.45975 0.44619-0.93782 1.1848-1.4342 2.2159-0.13569 0.26533-0.20126 0.5294-0.19672 0.79223 0.0069 0.40895 0.24963 0.93069 0.72792 1.5652 0.57318 0.7206 0.90926 1.2407 1.0083 1.5604 0.05772 0.6418-0.02852 2.4255-0.25871 5.3511-0.19657 2.1654 0.02063 3.9293 0.65165 5.2916 0.63293 1.4793-0.02852 2.4255-1.9844 2.8389-1.2616 0.022-2.2458-0.1367-2.9526-0.4752-1.5725-1.7553-2.5011-2.7619-2.786-3.02-1.374-1.0866-2.9491-1.6293-4.725-1.6281-1.8645 0.295-2.7844 1.158-2.7598 2.5892 0.0041 0.2337 0.03375 0.6057 0.0893 1.116 0.05547 0.5104 0.08521 0.8824 0.08923 1.116 0.0095 0.555-0.07619 1.0094-0.25703 1.363-0.54315 1.032-0.73011 2.3937-0.56085 4.0854 0.15469 0.8446 0.60583 1.2605 1.3534 1.2477 0.28032 0 0.60613-0.083 0.97743-0.2359 0.06374 0.9923-0.14656 2.3545-0.63093 4.0865-0.48241 1.849-0.71634 3.1969-0.70178 4.044 0.014 0.8178 0.16747 1.5894 0.46035 2.3148 0.24413 0.6094 0.92389 0.7292 2.0393 0.3594 0.78726-0.4225 1.2753-1.2635 1.464-2.5231 0.18869-1.2596 0.72341-2.1014 1.6042-2.5256-0.13569 0.2653-0.20076 0.5586-0.19522 0.8799 0.0096 0.5549 0.31869 1.5503 0.92757 2.9861 0.60882 1.4358 0.91977 2.5334 0.93282 3.2928 0.01701 0.993-0.31862 1.8607-1.0069 2.6029-0.7848 0.5686-1.924 0.9095-3.4177 1.0228-1.4007 0.082-2.6182-0.05-3.6523-0.3975-1.0342-0.3474-2.4395-0.5351-4.216-0.5631-1.4494-0.034-2.8986-0.053-4.3476-0.057-1.1711-0.1552-2.342-0.2958-3.5126-0.4218-1.3595-0.2396-2.2088-0.7071-2.5479-1.4025-0.24113-0.4341-0.36646-0.9286-0.37599-1.4836-0.01003-0.5841 0.16134-1.4928 0.51408-2.726 0.35274-1.2331 0.52385-2.1564 0.51332-2.7697-0.01256-0.7302-0.2107-1.3842-0.59452-1.962 0.86157 1.1832 1.805 3.0514 2.8303 5.6049 0.7586 0.6298 1.4378 0.7204 2.0377 0.2718 0.82247-1.0951 1.4115-2.8582 1.767-5.2893 0.35554-2.4311 0.87498-4.1638 1.5583-5.1981 0.0849-0.4981 0.12286-1.0101 0.11384-1.5358-0.02558-1.4896-0.5309-3.7014-1.516-6.6354s-1.4904-5.1458-1.516-6.6354c-0.02606-1.5188 0.30006-2.9414 0.97836-4.2678-0.23976 2.3707 0.41532 3.7764 1.9652 4.2173l0.76116-0.5828c0.02527-3.9739-0.65736-6.9861-2.0479-9.0366-1.1992-1.7908-1.8-2.7593-1.8025-2.9054-0.01255-0.73016 0.72678-1.2249 2.2179-1.4843 0.13516-0.29444 0.20048-0.57312 0.19598-0.83605-0.01103-0.64253-0.5144-1.3789-1.5101-2.2092-1.3283-1.1458-2.0882-1.8486-2.2796-2.1083-2.0834-1.5711-3.1431-3.4082-3.1792-5.5112-0.01298-0.75935 0.11361-1.5504 0.37991-2.3731 0.17738-0.55811 0.77226-1.2987 1.7846-2.2219 1.48-1.0297 2.2188-2.1686 2.8096-3.7733-0.67138 2.5212-1.5968 4.9665 0.1263 7.3604 1.6564 1.1987 4.0908 1.4345 7.3032 0.70736 1.6293-0.3785 3.5784-1.1862 5.8473-2.4231 3.0095-1.6585 4.8159-2.6098 5.4193-2.854-1.6655 0.99279-2.4913 1.8981-2.4772 2.7158 0.0041 0.23372 0.07782 0.45158 0.22153 0.65357 1.2781 0.94228 2.9917 1.395 5.1411 1.358 1.2148-0.0208 2.3565-0.21567 3.4252-0.58468 2.3231-0.79943 4.9598-2.3932 7.9101-4.7812 3.226-2.6556 5.6969-4.3779 7.4127-5.1671l-6.6921 18.565zm-0.72608-9.629c-0.006-0.35043-0.33612-0.52006-0.99022-0.5089-0.70089 0.0121-1.2111 0.23997-1.5306 0.68364-0.46277 0.27095-0.48011 0.62184-0.05209 1.0527 0.60888 0.0773 1.1915-0.0131 1.748-0.27104 0.55638-0.25782 0.83134-0.57661 0.82486-0.95639zm-2.2241 5.2095c-0.000544-0.0291-0.28314-0.15577-0.84779-0.37987-0.41955 0.0657-0.62404 0.40518-0.61348 1.0185 0.0502 0.2037 0.40238 0.29992 1.0565 0.28864 0.36925-0.26923 0.50415-0.57832 0.40473-0.92727zm-16.256-3.5777c-0.28287-0.14117-0.51699-0.16636-0.70236-0.0756-0.18491 0.12009-0.22889 0.28154-0.13191 0.48434 0.37327-0.0356 0.65135-0.17182 0.83426-0.40875zm-12.409 4.0695c-0.3346-0.43245-0.8282-0.59928-1.4808-0.50048-0.46523 0.12491-0.69184 0.53783-0.6798 1.2388 0.14418 0.23131 0.31146 0.44757 0.50188 0.64877 0.23862 0.28812 0.59081 0.38434 1.0565 0.28864 0.27833-0.12158 0.47906-0.68015 0.60221-1.6757zm16.975 25.04c-0.006-0.3504-0.4057-0.4897-1.199-0.4176-0.04628 0.03 0.0276 0.2479 0.22154 0.6535 0.51945 0.3125 0.84526 0.2339 0.97745-0.2359zm-9.8981 23.748c-0.09847-0.2905-0.38258-0.5048-0.8523-0.6428-0.13718 0.1777-0.11043 0.3744 0.08019 0.5903 0.19065 0.2158 0.448 0.2333 0.77207 0.053zm-6.6061-0.9385c-0.42502-0.2556-0.7772-0.3519-1.0565-0.2886-0.000015 0-0.25223 0.2819-0.75666 0.8456 0.1929 0.3473 0.63903 0.4711 1.3384 0.3715 0.41649-0.2409 0.57476-0.5504 0.4748-0.9285z" stroke-width="1.495" fill="url(#radialGradient3206)" stroke="url(#radialGradient3208)"/>
  <rect x="-96" rx="25" y="958.36" clip-path="url(#clipPath3009)" fill="#fff" height="92" opacity="0.15" width="92" transform="matrix(1 0 0 1 98 0)"/>
 </g>
</svg>
