<?xml version="1.0" encoding="UTF-8" standalone="no"?>
<!-- Created with Inkscape (http://www.inkscape.org/) -->

<svg
   xmlns:dc="http://purl.org/dc/elements/1.1/"
   xmlns:cc="http://creativecommons.org/ns#"
   xmlns:rdf="http://www.w3.org/1999/02/22-rdf-syntax-ns#"
   xmlns:svg="http://www.w3.org/2000/svg"
   xmlns="http://www.w3.org/2000/svg"
   xmlns:sodipodi="http://sodipodi.sourceforge.net/DTD/sodipodi-0.dtd"
   xmlns:inkscape="http://www.inkscape.org/namespaces/inkscape"
   id="svg11037"
   height="96"
   width="96"
   version="1.1"
   inkscape:version="0.48.5 r10040"
   sodipodi:docname="frostwire.svg">
  <sodipodi:namedview
     pagecolor="#ffffff"
     bordercolor="#666666"
     borderopacity="1"
     objecttolerance="10"
     gridtolerance="10"
     guidetolerance="10"
     inkscape:pageopacity="0"
     inkscape:pageshadow="2"
     inkscape:window-width="640"
     inkscape:window-height="480"
     id="namedview14966" />
  <defs
     id="defs11039">
    <clipPath
       id="clipPath3009"
       clipPathUnits="userSpaceOnUse">
      <path
         id="path3011"
         style="opacity:.15;fill:#fff"
         d="m-2 956.36h-96v33.562l96 25.687v-59.25z" />
    </clipPath>
  </defs>
  <metadata
     id="metadata11042">
    <rdf:RDF>
      <cc:Work
         rdf:about="">
        <dc:format>image/svg+xml</dc:format>
        <dc:type
           rdf:resource="http://purl.org/dc/dcmitype/StillImage" />
        <dc:title />
      </cc:Work>
    </rdf:RDF>
  </metadata>
  <g
     id="layer1"
     transform="translate(0 -956.36)">
    <rect
       id="rect3867"
       style="fill:#088eff"
       rx="25"
       ry="25"
       height="92"
       width="92"
       y="958.36"
       x="2" />
    <g
       id="layer4"
       transform="translate(0 956.36)">
      <path
         id="path2181"
         style="fill:#fff;fill-rule:evenodd"
         d="m29.031 19.844c-1.1696 0.11717-2.1057 1.3492-1.3438 2.7812 3.3506 6.7716 5.3397 11.59 8.8125 19.031 0.62673-1.4237 1.002-2.4099 1.9375-4.5312-3.5865-7.0797-4.091-10.063-7.4062-16.094-0.53002-0.90145-1.2983-1.2578-2-1.1875zm38.406 0.25c-0.73053-0.03232-1.5215 0.41677-2 1.5312-4.3794 9.8142-12.435 29.673-16.031 37.656-2.0476 4.1623 1.6152 5.8271 3 3.5312 4.637-9.6139 11.611-28.036 16.688-39.781 0.63151-1.559-0.4387-2.8836-1.6562-2.9375zm-22.187 12.687c-0.73053-0.03231-1.459 0.41677-1.9375 1.5312-4.3794 9.8142-12.497 29.736-16.094 37.719-2.0476 4.1623 1.5781 5.37 3.1562 2.6875 4.637-9.6139 11.486-27.255 16.562-39 0.63151-1.559-0.46995-2.8836-1.6875-2.9375zm7.3438 1.875c-0.73053-0.03231-1.459 0.35427-1.9375 1.4688-4.3794 9.8142-5.9349 14.642-9.5312 22.625-2.0476 4.1623 1.4277 5.6004 2.8125 2.5312 4.637-9.6139 5.2668-11.943 10.344-23.688 0.63151-1.559-0.46995-2.8836-1.6875-2.9375zm37.406 1.188c-7.1346 1.6925-12.858 4.674-19.312 8.75-1.9038-1.4951-3.1332-2.7302-4.6562-4.2812-0.49485 0.9116-1.6904 3.4171-2.125 4.0938 1.5928 1.5525 2.2634 2.4883 3.5312 3.4062-1.5255 1.0925-1.5109 1.4399-5.1562 4.6562 0.76153 1.4388 1.176 2.817 1.9375 4.2188 1.7642-1.8958 3.0717-3.4171 6.875-5.9375 5.2599 2.7643 9.7325 5.6559 18.906 8.1875l-0.001-5.188c-4.339-1.37-10.68-3.27-14.625-6.031 3.073-2.165 7.212-4.311 14.625-6.031v-5.8438zm-84 1.3125v4.9375c4.3614 1.3916 10.712 3.3864 14.625 6.125-3.073 2.164-7.212 4.256-14.625 5.969v5.9062c7.1385-1.6963 12.921-4.7365 19.375-8.8125 1.9038 1.4951 3.0707 2.7927 4.5938 4.3438 0.49485-0.9116 1.7216-3.4796 2.1562-4.1562-1.5928-1.5525-2.2321-2.4258-3.5-3.3438 1.5255-1.0925 1.5109-1.4399 5.1562-4.6562-0.76153-1.4388-1.176-2.817-1.9375-4.2188-1.7642 1.8958-3.1342 3.4171-6.9375 5.9375-5.199-2.733-9.923-5.526-18.906-8.032zm53.406 16.188c-0.62673 1.4237-1.0645 2.3474-2 4.4688 3.5865 7.0797 4.1535 10.126 7.4688 16.156 1.4134 2.4039 4.5628 0.69749 3.3438-1.5938-3.3506-6.7716-5.3397-11.59-8.8125-19.031z" />
      <path
         id="path3747"
         style="opacity:.5;fill:#0075d8;fill-rule:evenodd"
         d="m29.031 18.844c-1.0307 0.10326-1.8969 1.0724-1.5625 2.2812 0.20027-0.70556 0.84132-1.209 1.5625-1.2812 0.70174-0.0703 1.47 0.28605 2 1.1875 3.2374 5.8887 3.8233 8.8955 7.1875 15.625 0.09511-0.21893 0.1097-0.28396 0.21875-0.53125-3.5865-7.0797-4.091-10.063-7.4062-16.094-0.53002-0.90145-1.2983-1.2578-2-1.1875zm38.406 0.25c-0.73053-0.03232-1.5215 0.41677-2 1.5312-4.3794 9.8142-12.435 29.673-16.031 37.656-0.55198 1.1221-0.68398 2.0509-0.5625 2.7812 0.06861-0.53049 0.23623-1.118 0.5625-1.7812 3.5964-7.9832 11.652-27.842 16.031-37.656 0.47847-1.1145 1.2695-1.5636 2-1.5312 0.81916 0.03624 1.5688 0.6602 1.7812 1.5312 0.3043-1.3706-0.67447-2.4823-1.7812-2.5312zm-22.187 12.687c-0.73053-0.03231-1.459 0.41677-1.9375 1.5312-4.3794 9.8142-12.497 29.736-16.094 37.719-0.55747 1.1332-0.69027 2.0424-0.5625 2.7188 0.07237-0.50252 0.24256-1.0684 0.5625-1.7188 3.5964-7.9832 11.714-27.905 16.094-37.719 0.47847-1.1145 1.207-1.5636 1.9375-1.5312 0.81916 0.03624 1.5908 0.66021 1.8125 1.5312 0.2996-1.3706-0.70572-2.4823-1.8125-2.5312zm7.3438 1.875c-0.73053-0.03231-1.459 0.35427-1.9375 1.4688-4.3794 9.8142-5.9349 14.642-9.5312 22.625-0.56276 1.144-0.70729 2.0859-0.59375 2.7812 0.07483-0.52218 0.26344-1.1098 0.59375-1.7812 3.5964-7.9832 5.1519-12.811 9.5312-22.625 0.47847-1.1145 1.207-1.5011 1.9375-1.4688 0.81916 0.03624 1.5908 0.6602 1.8125 1.5312 0.2996-1.3706-0.70572-2.4823-1.8125-2.5312zm37.406 1.188c-7.1346 1.6925-12.858 4.674-19.312 8.75-1.9038-1.4951-3.1332-2.7302-4.6562-4.2812-0.49485 0.9116-1.6904 3.4171-2.125 4.0938 0.14357 0.13994 0.21405 0.21339 0.34375 0.34375 0.53972-0.99266 1.3689-2.6778 1.7812-3.4375 1.5231 1.551 2.7524 2.7861 4.6562 4.2812 6.4544-4.076 12.178-7.0575 19.312-8.75v-1zm-84 1.3125v1c8.9834 2.5058 13.707 5.2987 18.906 8.0312 3.8033-2.5204 5.1733-4.0417 6.9375-5.9375 0.63834 1.175 1.0343 2.3398 1.5938 3.5312 0.13563-0.12078 0.19652-0.1826 0.34375-0.3125-0.76153-1.4388-1.176-2.817-1.9375-4.2188-1.7642 1.8958-3.1342 3.4171-6.9375 5.9375-5.199-2.732-9.923-5.525-18.906-8.031zm70.156 11.062c-0.25762 0.17087-0.53808 0.32871-0.78125 0.5 3.9454 2.7616 10.286 4.6614 14.625 6.0312v-1c-4.071-1.284-9.88-3.037-13.844-5.53zm-9.344 0.094c-0.96381 0.7871-1.4934 1.476-4.5312 4.1562 0.12319 0.23275 0.23579 0.45757 0.34375 0.6875 3.2226-2.8697 3.3486-3.2954 4.8125-4.3438-0.22798-0.16505-0.42681-0.33031-0.625-0.5zm-37.562 0.313c-0.19276 0.15742-0.37075 0.31792-0.625 0.5 1.1526 0.83447 1.854 1.6954 3.1562 3 0.13872-0.25947 0.25652-0.52045 0.34375-0.65625-1.3-1.267-1.985-2.088-2.875-2.844zm-9.375 0.09375c-3 1.986-7.032 3.888-13.875 5.469v1c7.4134-1.7122 11.552-3.8044 14.625-5.9688-0.2376-0.16631-0.49541-0.33915-0.75-0.5zm39.531 4.625c-0.62673 1.4237-1.0645 2.3474-2 4.4688 0.08646 0.17068 0.16696 0.30266 0.25 0.46875 0.72697-1.6357 1.1984-2.6845 1.75-3.9375 3.4728 7.4412 5.4619 12.26 8.8125 19.031 0.08855 0.16642 0.14271 0.3411 0.1875 0.5 0.12437-0.43266 0.10386-0.95239-0.1875-1.5-3.3506-6.7716-5.3397-11.59-8.8125-19.031z" />
      <path
         id="path3752"
         style="opacity:.2;fill:#fff;fill-rule:evenodd"
         d="m27.469 22.125c-0.12452 0.43867-0.07335 0.951 0.21875 1.5 3.3506 6.7716 5.3397 11.59 8.8125 19.031 0.62673-1.4237 1.002-2.4099 1.9375-4.5312-0.08421-0.16623-0.13786-0.30694-0.21875-0.46875-0.7208 1.6591-1.1651 2.7423-1.7188 4-3.4728-7.4412-5.4619-12.26-8.8125-19.031-0.09045-0.17-0.17371-0.33717-0.21875-0.5zm41.75 0.5c-0.03045 0.13717-0.06755 0.26442-0.125 0.40625-5.077 11.745-12.05 30.167-16.688 39.781-1.0115 1.6769-3.2333 1.229-3.5625-0.75-0.36198 2.7987 2.3983 3.68 3.5625 1.75 4.637-9.6139 11.611-28.036 16.688-39.781 0.20663-0.51012 0.2283-0.98263 0.125-1.4062zm-22.157 12.687c-0.02998 0.13717-0.06755 0.26442-0.125 0.40625-5.077 11.745-11.925 29.386-16.562 39-1.1485 1.9521-3.3772 1.8391-3.7188 0.03125-0.39081 2.7136 2.3872 3.2321 3.7188 0.96875 4.637-9.6139 11.486-27.255 16.562-39 0.20663-0.51012 0.2328-0.98263 0.125-1.4062zm7.3438 1.875c-0.02998 0.13717-0.06755 0.26442-0.125 0.40625-5.077 11.745-5.7067 14.074-10.344 23.688-1.0042 2.2256-3.1067 2.0848-3.4062 0.25-0.38902 2.7148 2.2448 3.324 3.4062 0.75 4.637-9.6139 5.2668-11.943 10.344-23.688 0.20663-0.51012 0.2328-0.98263 0.125-1.4062zm35.594 4.501c-7.4134 1.7202-11.552 3.8669-14.625 6.0312 0.24312 0.17017 0.52097 0.3363 0.78125 0.5 2.998-1.988 7.017-3.947 13.844-5.531v-1zm-84 0.40625v1c4.0965 1.3071 9.9372 3.1371 13.875 5.625 0.24998-0.16549 0.51365-0.33351 0.75-0.5-3.913-2.739-10.264-4.734-14.625-6.125zm27.438 1.6875c-3.2226 2.8697-3.3486 3.2954-4.8125 4.3438 0.23309 0.16875 0.42457 0.32977 0.625 0.5 0.96381-0.7871 1.4934-1.476 4.5312-4.1562-0.12319-0.23275-0.23579-0.45757-0.34375-0.6875zm30.812 0.968c-0.10794 0.19853-0.27131 0.54347-0.34375 0.65625 1.3064 1.2734 2.0022 2.1322 2.9062 2.9062 0.19276-0.15742 0.37075-0.31792 0.625-0.5-1.153-0.835-1.878-1.746-3.187-3.062zm6.8438 6c-3.8033 2.5204-5.1108 4.0417-6.875 5.9375-0.63834-1.175-1.0343-2.3398-1.5938-3.5312-0.13563 0.12078-0.19652 0.1826-0.34375 0.3125 0.76153 1.4388 1.176 2.817 1.9375 4.2188 1.7642-1.8958 3.0717-3.4171 6.875-5.9375 5.2599 2.7643 9.7325 5.6559 18.906 8.1875v-1c-9.174-2.532-13.646-5.424-18.906-8.188zm-45.719 0.531c-6.454 4.076-12.237 7.116-19.375 8.813v1c7.1385-1.6963 12.921-4.7365 19.375-8.8125 1.9038 1.4951 3.0707 2.7927 4.5938 4.3438 0.49485-0.9116 1.7216-3.4796 2.1562-4.1562-0.14479-0.14113-0.21353-0.2133-0.34375-0.34375-0.55248 1.0334-1.417 2.7714-1.8125 3.5-1.5231-1.551-2.6899-2.8486-4.5938-4.3438zm32.281 7c-0.09904 0.22284-0.13783 0.2769-0.25 0.53125 3.5865 7.0797 4.1535 10.126 7.4688 16.156 1.3107 2.2292 4.1031 0.93503 3.5312-1.0938-0.396 1.3776-2.4557 1.9231-3.5312 0.09375-3.2353-5.8849-3.8575-8.9643-7.2188-15.688z" />
      <path
         id="path3764"
         style="opacity:.15;fill:#088eff;fill-rule:evenodd"
         d="m29.031 19.844c-1.1696 0.11717-2.1057 1.3492-1.3438 2.7812 3.3506 6.7716 5.3397 11.59 8.8125 19.031 0.62673-1.4237 1.002-2.4099 1.9375-4.5312-3.5865-7.0797-4.091-10.063-7.4062-16.094-0.53002-0.90145-1.2983-1.2578-2-1.1875zm38.406 0.25c-0.73053-0.03232-1.5215 0.41677-2 1.5312-4.3794 9.8142-12.435 29.673-16.031 37.656-2.0476 4.1623 1.6152 5.8271 3 3.5312 4.637-9.6139 11.611-28.036 16.688-39.781 0.63151-1.559-0.4387-2.8836-1.6562-2.9375zm-38.312 0.594c0.34801-0.03486 0.76696 0.11591 1.1562 0.75 0.0097 0.01584 0.02156 0.01477 0.03125 0.03125 3.1804 5.7951 3.7962 8.8771 7.1875 15.656-0.45652 1.0454-0.73719 1.7047-1.0312 2.4062-2.923-6.344-4.978-11.11-8.031-17.281a0.85088 0.85088 0 0 0 0 -0.03125c-0.26557-0.49914-0.20612-0.80967-0.0625-1.0625s0.43712-0.4374 0.75-0.46875zm38.281 0.25c0.61667 0.02728 1.316 0.68051 0.90625 1.75-0.005 0.01317 0.0054 0.01795 0 0.03125-5.0886 11.775-12.093 30.156-16.688 39.688-0.0032 0.0066 0.0032 0.02464 0 0.03125-0.46412 0.68553-1.037 0.71167-1.4688 0.375-0.45153-0.35213-0.91527-1.2957 0-3.1562a0.85088 0.85088 0 0 0 0.033 -0.032c3.618-8.0312 11.668-27.877 16.031-37.656 0.37706-0.87826 0.83172-1.047 1.1875-1.0312zm-22.156 11.843c-0.73053-0.03231-1.459 0.41677-1.9375 1.5312-4.3794 9.8142-12.497 29.736-16.094 37.719-2.0476 4.1623 1.5781 5.37 3.1562 2.6875 4.637-9.6139 11.486-27.255 16.562-39 0.63151-1.559-0.46995-2.8836-1.6875-2.9375zm-0.031 0.844c0.61731 0.02731 1.343 0.68902 0.9375 1.75-0.005 0.01307 0.0053 0.01806 0 0.03125-5.0885 11.774-11.963 29.401-16.562 38.938-0.60756 0.95404-1.3695 1.0756-1.7188 0.875-0.18045-0.10364-0.35503-0.27983-0.40625-0.71875s0.03919-1.157 0.5-2.0938a0.85088 0.85088 0 0 0 0.03 -0.031c3.6172-8.0293 11.73-27.938 16.094-37.719 0.38765-0.90294 0.76707-1.0471 1.125-1.0312zm7.375 1.0312c-0.73053-0.03231-1.459 0.35427-1.9375 1.4688-4.3794 9.8142-5.9349 14.642-9.5312 22.625-2.0476 4.1623 1.4277 5.6004 2.8125 2.5312 4.637-9.6139 5.2668-11.943 10.344-23.688 0.63151-1.559-0.46995-2.8836-1.6875-2.9375zm-0.032 0.844c0.6173 0.02731 1.343 0.68902 0.9375 1.75-0.005 0.01307 0.0053 0.01806 0 0.03125-5.0684 11.727-5.7218 14.042-10.344 23.625a0.85088 0.85088 0 0 0 0 0.03125c-0.281 0.623-0.64 0.937-0.906 1.063-0.26644 0.12639-0.42582 0.08628-0.5625 0s-0.30224-0.2811-0.34375-0.75 0.06999-1.1874 0.53125-2.125a0.85088 0.85088 0 0 0 0.03125 -0.03125c3.6114-8.0165 5.1636-12.837 9.5312-22.625 0.3831-0.89235 0.71868-0.98672 1.125-0.96875zm37.438 0.344c-7.1346 1.6925-12.858 4.674-19.312 8.75-1.9038-1.4951-3.1332-2.7302-4.6562-4.2812-0.49485 0.9116-1.6904 3.4171-2.125 4.0938 1.5928 1.5525 2.2634 2.4883 3.5312 3.4062-1.5255 1.0925-1.5109 1.4399-5.1562 4.6562 0.76153 1.4388 1.176 2.817 1.9375 4.2188 1.7642-1.8958 3.0717-3.4171 6.875-5.9375 5.2599 2.7643 9.7325 5.6559 18.906 8.1875l-0.001-5.188c-4.339-1.37-10.68-3.27-14.625-6.031 3.073-2.165 7.212-4.311 14.625-6.031v-5.8438zm-0.84375 1.125v4.0625c-7.0535 1.712-11.233 3.8531-14.281 6a0.85088 0.85088 0 0 0 0 1.375c3.9828 2.7878 9.9753 4.6169 14.281 5.9688v3.4062c-8.29-2.423-12.59-5.12-17.656-7.782a0.85088 0.85088 0 0 0 -0.875 0.03125c-3.2348 2.1436-4.718 3.6217-6.1562 5.1562-0.35837-0.80084-0.73732-1.6204-1.1562-2.5 2.7668-2.4924 3.3025-3.2404 4.625-4.1875a0.85088 0.85088 0 0 0 0 -1.375c-1.0049-0.72753-1.7633-1.6506-2.9688-2.875 0.23424-0.42638 0.46203-0.83393 0.75-1.4062 0.22559-0.44834 0.36392-0.76347 0.5625-1.1562 1.2011 1.2069 2.2804 2.3102 3.875 3.5625a0.85088 0.85088 0 0 0 1 0.0625c6.0914-3.8467 11.475-6.6427 18-8.3438zm-83.156 0.187v4.9375c4.3614 1.3916 10.712 3.3864 14.625 6.125-3.073 2.164-7.212 4.256-14.625 5.969v5.9062c7.1385-1.6963 12.921-4.7365 19.375-8.8125 1.9038 1.4951 3.0707 2.7927 4.5938 4.3438 0.49485-0.9116 1.7216-3.4796 2.1562-4.1562-1.5928-1.5525-2.2321-2.4258-3.5-3.3438 1.5255-1.0925 1.5109-1.4399 5.1562-4.6562-0.76153-1.4388-1.176-2.817-1.9375-4.2188-1.7642 1.8958-3.1342 3.4171-6.9375 5.9375-5.199-2.733-9.923-5.526-18.906-8.032zm0.84375 1.1562c8.1447 2.3928 12.667 5.003 17.656 7.625a0.85088 0.85088 0 0 0 0.875 -0.03125c3.2463-2.1512 4.7574-3.6425 6.2188-5.1875 0.36295 0.80845 0.733 1.6426 1.1562 2.5312-2.7668 2.4924-3.3025 3.2404-4.625 4.1875a0.85088 0.85088 0 0 0 0 1.375c1.0109 0.73188 1.7472 1.6086 2.9375 2.8125-0.23796 0.43314-0.4551 0.85133-0.75 1.4375-0.22828 0.45373-0.39307 0.75918-0.59375 1.1562-1.1719-1.2084-2.2114-2.3363-3.8125-3.5938a0.85088 0.85088 0 0 0 -1 -0.0625c-6.0925 3.8474-11.531 6.6971-18.062 8.4062v-4.125c7.0496-1.7004 11.228-3.7869 14.281-5.9375a0.85088 0.85088 0 0 0 0 -1.375c-3.947-2.763-9.948-4.682-14.281-6.062v-3.1562zm52.562 15.031c-0.62673 1.4237-1.0645 2.3474-2 4.4688 3.5865 7.0797 4.1535 10.126 7.4688 16.156 1.4134 2.4039 4.5628 0.69749 3.3438-1.5938-3.3506-6.7716-5.3397-11.59-8.8125-19.031zm0 2.0625c2.9412 6.3812 4.998 11.15 8.0625 17.344a0.85088 0.85088 0 0 0 0 0.03125c0.4257 0.80009 0.12579 1.1835-0.3125 1.4062-0.42953 0.21831-1.0173 0.20976-1.5312-0.625-0.01047-0.01701-0.02082-0.01352-0.03125-0.03125-3.1771-5.7888-3.8699-8.928-7.25-15.688 0.47004-1.0609 0.7455-1.7359 1.0625-2.4375z" />
      <path
         id="path3757"
         style="opacity:.2;fill:#088eff;fill-rule:evenodd"
         d="m29.031 19.844c-1.0307 0.10326-1.8969 1.0724-1.5625 2.2812 0.20027-0.70556 0.84132-1.209 1.5625-1.2812 0.70174-0.0703 1.47 0.28605 2 1.1875 3.2374 5.8887 3.8233 8.8955 7.1875 15.625 0.09511-0.21893 0.1097-0.28396 0.21875-0.53125-3.5865-7.0797-4.091-10.063-7.4062-16.094-0.53002-0.90145-1.2983-1.2578-2-1.1875zm38.406 0.25c-0.73053-0.03232-1.5215 0.41677-2 1.5312-4.3794 9.8142-12.435 29.673-16.031 37.656-0.55198 1.1221-0.68398 2.0509-0.5625 2.7812 0.06861-0.53049 0.23623-1.118 0.5625-1.7812 3.5964-7.9832 11.652-27.842 16.031-37.656 0.47847-1.1145 1.2695-1.5636 2-1.5312 0.81916 0.03624 1.5688 0.6602 1.7812 1.5312 0.3043-1.3706-0.67447-2.4823-1.7812-2.5312zm-22.187 12.687c-0.73053-0.03231-1.459 0.41677-1.9375 1.5312-4.3794 9.8142-12.497 29.736-16.094 37.719-0.55747 1.1332-0.69027 2.0424-0.5625 2.7188 0.07237-0.50252 0.24256-1.0684 0.5625-1.7188 3.5964-7.9832 11.714-27.905 16.094-37.719 0.47847-1.1145 1.207-1.5636 1.9375-1.5312 0.81916 0.03624 1.5908 0.66021 1.8125 1.5312 0.2996-1.3706-0.70572-2.4823-1.8125-2.5312zm7.3438 1.875c-0.73053-0.03231-1.459 0.35427-1.9375 1.4688-4.3794 9.8142-5.9349 14.642-9.5312 22.625-0.56276 1.144-0.70729 2.0859-0.59375 2.7812 0.07483-0.52218 0.26344-1.1098 0.59375-1.7812 3.5964-7.9832 5.1519-12.811 9.5312-22.625 0.47847-1.1145 1.207-1.5011 1.9375-1.4688 0.81916 0.03624 1.5908 0.6602 1.8125 1.5312 0.2996-1.3706-0.70572-2.4823-1.8125-2.5312zm37.406 1.188c-7.1346 1.6925-12.858 4.674-19.312 8.75-1.9038-1.4951-3.1332-2.7302-4.6562-4.2812-0.49485 0.9116-1.6904 3.4171-2.125 4.0938 0.14357 0.13994 0.21405 0.21339 0.34375 0.34375 0.53972-0.99266 1.3689-2.6778 1.7812-3.4375 1.5231 1.551 2.7524 2.7861 4.6562 4.2812 6.4544-4.076 12.178-7.0575 19.312-8.75v-1zm-84 1.3125v1c8.9834 2.5058 13.707 5.2987 18.906 8.0312 3.8033-2.5204 5.1733-4.0417 6.9375-5.9375 0.63834 1.175 1.0343 2.3398 1.5938 3.5312 0.13563-0.12078 0.19652-0.1826 0.34375-0.3125-0.76153-1.4388-1.176-2.817-1.9375-4.2188-1.7642 1.8958-3.1342 3.4171-6.9375 5.9375-5.199-2.732-9.923-5.525-18.906-8.031zm70.156 11.062c-0.25762 0.17087-0.53808 0.32871-0.78125 0.5 3.9454 2.7616 10.286 4.6614 14.625 6.0312v-1c-4.071-1.284-9.88-3.037-13.844-5.53zm-9.344 0.094c-0.96381 0.7871-1.4934 1.476-4.5312 4.1562 0.12319 0.23275 0.23579 0.45757 0.34375 0.6875 3.2226-2.8697 3.3486-3.2954 4.8125-4.3438-0.22798-0.16505-0.42681-0.33031-0.625-0.5zm-37.562 0.313c-0.19276 0.15742-0.37075 0.31792-0.625 0.5 1.1526 0.83447 1.854 1.6954 3.1562 3 0.13872-0.25947 0.25652-0.52045 0.34375-0.65625-1.3-1.267-1.985-2.088-2.875-2.844zm-9.375 0.09375c-3 1.986-7.032 3.888-13.875 5.469v1c7.4134-1.7122 11.552-3.8044 14.625-5.9688-0.2376-0.16631-0.49541-0.33915-0.75-0.5zm39.531 4.625c-0.62673 1.4237-1.0645 2.3474-2 4.4688 0.08646 0.17068 0.16696 0.30266 0.25 0.46875 0.72697-1.6357 1.1984-2.6845 1.75-3.9375 3.4728 7.4412 5.4619 12.26 8.8125 19.031 0.08855 0.16642 0.14271 0.3411 0.1875 0.5 0.12437-0.43266 0.10386-0.95239-0.1875-1.5-3.3506-6.7716-5.3397-11.59-8.8125-19.031z" />
    </g>
    <rect
       id="rect3003"
       style="opacity:.15;fill:#fff"
       transform="translate(98 3.8281e-7)"
       clip-path="url(#clipPath3009)"
       rx="25"
       ry="25"
       height="92"
       width="92"
       y="958.36"
       x="-96" />
  </g>
</svg>
