<?xml version="1.0" encoding="UTF-8" standalone="no"?>
<!-- Created with Inkscape (http://www.inkscape.org/) -->

<svg
   xmlns:dc="http://purl.org/dc/elements/1.1/"
   xmlns:cc="http://creativecommons.org/ns#"
   xmlns:rdf="http://www.w3.org/1999/02/22-rdf-syntax-ns#"
   xmlns:svg="http://www.w3.org/2000/svg"
   xmlns="http://www.w3.org/2000/svg"
   xmlns:xlink="http://www.w3.org/1999/xlink"
   xmlns:sodipodi="http://sodipodi.sourceforge.net/DTD/sodipodi-0.dtd"
   xmlns:inkscape="http://www.inkscape.org/namespaces/inkscape"
   id="svg11037"
   height="96"
   width="96"
   version="1.1"
   inkscape:version="0.48.5 r10040"
   sodipodi:docname="frozen-bubble.svg">
  <sodipodi:namedview
     pagecolor="#ffffff"
     bordercolor="#666666"
     borderopacity="1"
     objecttolerance="10"
     gridtolerance="10"
     guidetolerance="10"
     inkscape:pageopacity="0"
     inkscape:pageshadow="2"
     inkscape:window-width="640"
     inkscape:window-height="480"
     id="namedview15038" />
  <defs
     id="defs11039">
    <clipPath
       id="clipPath3009"
       clipPathUnits="userSpaceOnUse">
      <path
         id="path3011"
         style="opacity:.15;fill:#fff"
         d="m-2 956.36h-96v33.562l96 25.687v-59.25z" />
    </clipPath>
    <linearGradient
       id="linearGradient20679"
       y2="-47.386"
       gradientUnits="userSpaceOnUse"
       x2="77.37"
       gradientTransform="matrix(.97625 0 0 .98026 -30.794 -.75524)"
       y1="-3.8993"
       x1="77.487">
      <stop
         id="stop5324"
         style="stop-color:#fff"
         offset="0" />
      <stop
         id="stop5326"
         style="stop-color:#fff;stop-opacity:0"
         offset="1" />
    </linearGradient>
    <radialGradient
       id="radialGradient20681"
       gradientUnits="userSpaceOnUse"
       cy="27.342"
       cx="59.315"
       gradientTransform="matrix(1.2135 -.92565 .78353 1.0279 -47.543 41.144)"
       r="42">
      <stop
         id="stop19661"
         style="stop-color:#cbe2ed"
         offset="0" />
      <stop
         id="stop19663"
         style="stop-color:#2283bf"
         offset="1" />
    </radialGradient>
    <radialGradient
       id="radialGradient20683"
       gradientUnits="userSpaceOnUse"
       cy="47.534"
       cx="122.2"
       gradientTransform="matrix(.99905 .043585 -.072764 1.6679 -73.925 -36.573)"
       r="37.794">
      <stop
         id="stop11852-6"
         style="stop-color:#c411ff"
         offset="0" />
      <stop
         id="stop11854-3"
         style="stop-color:#54007f"
         offset="1" />
    </radialGradient>
    <radialGradient
       id="radialGradient20685"
       xlink:href="#linearGradient3995"
       gradientUnits="userSpaceOnUse"
       cy="75.494"
       cx="57.276"
       gradientTransform="matrix(1 0 0 .56667 0 32.714)"
       r="10.607" />
    <linearGradient
       id="linearGradient3995">
      <stop
         id="stop3997"
         offset="0" />
      <stop
         id="stop3999"
         style="stop-opacity:0"
         offset="1" />
    </linearGradient>
    <linearGradient
       id="linearGradient20687"
       y2="91.209"
       gradientUnits="userSpaceOnUse"
       x2="535.74"
       gradientTransform="matrix(1.4257 0 0 1.4663 -719.54 -117.15)"
       y1="83.098"
       x1="535.5">
      <stop
         id="stop19794"
         style="stop-color:#f2f2f2"
         offset="0" />
      <stop
         id="stop19796"
         style="stop-color:#f2f2f2;stop-opacity:0"
         offset="1" />
    </linearGradient>
    <linearGradient
       id="linearGradient20689"
       y2="81.978"
       gradientUnits="userSpaceOnUse"
       x2="53.184"
       gradientTransform="matrix(1.7748 0 0 1.5053 -64.414 -38.269)"
       y1="70.478"
       x1="53.893">
      <stop
         id="stop11942-8"
         style="stop-color:#fff"
         offset="0" />
      <stop
         id="stop11944-8"
         style="stop-color:#adadad"
         offset="1" />
    </linearGradient>
    <linearGradient
       id="linearGradient20691"
       y2="48.695"
       gradientUnits="userSpaceOnUse"
       x2="43.622"
       y1="48.149"
       x1="33.673">
      <stop
         id="stop4025"
         style="stop-color:#fff"
         offset="0" />
      <stop
         id="stop4027"
         style="stop-color:#a3a3a3"
         offset="1" />
    </linearGradient>
    <filter
       id="filter12169-2"
       height="2.0588"
       width="1.2429"
       color-interpolation-filters="sRGB"
       y="-.52939"
       x="-.12147">
      <feGaussianBlur
         id="feGaussianBlur12171-2"
         stdDeviation="1.004627" />
    </filter>
    <radialGradient
       id="radialGradient20693"
       gradientUnits="userSpaceOnUse"
       cy="75.494"
       cx="57.276"
       gradientTransform="matrix(1 0 0 .56667 0 32.714)"
       r="10.607">
      <stop
         id="stop4017"
         offset="0" />
      <stop
         id="stop4019"
         style="stop-opacity:0"
         offset="1" />
    </radialGradient>
    <linearGradient
       id="linearGradient20695"
       y2="54.541"
       gradientUnits="userSpaceOnUse"
       x2="33.5"
       gradientTransform="matrix(1.1502 0 0 1.2235 -7.0803 -17.656)"
       y1="61.041"
       x1="32.845">
      <stop
         id="stop11840-5"
         style="stop-color:#d29900"
         offset="0" />
      <stop
         id="stop11842-8"
         style="stop-color:#ffd259"
         offset="1" />
    </linearGradient>
    <linearGradient
       id="linearGradient20697"
       y2="49.36"
       gradientUnits="userSpaceOnUse"
       x2="18.662"
       y1="49.032"
       x1="25.678">
      <stop
         id="stop3975"
         style="stop-color:#fff"
         offset="0" />
      <stop
         id="stop3977"
         style="stop-color:#bbb"
         offset="1" />
    </linearGradient>
    <linearGradient
       id="linearGradient20699"
       y2="54.657"
       gradientUnits="userSpaceOnUse"
       x2="68.834"
       gradientTransform="matrix(1.2622 -.10437 .13739 .99518 -28.245 -2.9985)"
       y1="61.25"
       x1="76.612">
      <stop
         id="stop12161-1"
         style="stop-color:#7c06ad"
         offset="0" />
      <stop
         id="stop12163-3"
         style="stop-color:#7d06ae;stop-opacity:0"
         offset="1" />
    </linearGradient>
    <radialGradient
       id="radialGradient20707"
       xlink:href="#linearGradient3983"
       gradientUnits="userSpaceOnUse"
       cy="56.125"
       cx="-27.375"
       gradientTransform="matrix(1 0 0 2.619 0 -90.869)"
       r="7.875" />
    <linearGradient
       id="linearGradient3983">
      <stop
         id="stop3985"
         style="stop-color:#fff"
         offset="0" />
      <stop
         id="stop3987"
         style="stop-color:#fff;stop-opacity:0"
         offset="1" />
    </linearGradient>
    <clipPath
       id="clipPath3182"
       clipPathUnits="userSpaceOnUse">
      <rect
         id="rect3184"
         style="opacity:.6"
         rx="22.711"
         ry="22.716"
         height="83.595"
         width="83.577"
         y="6.3024"
         x="5.9411" />
    </clipPath>
  </defs>
  <metadata
     id="metadata11042">
    <rdf:RDF>
      <cc:Work
         rdf:about="">
        <dc:format>image/svg+xml</dc:format>
        <dc:type
           rdf:resource="http://purl.org/dc/dcmitype/StillImage" />
        <dc:title />
      </cc:Work>
    </rdf:RDF>
  </metadata>
  <g
     id="layer1"
     transform="translate(0 -956.36)">
    <g
       id="g3185"
       clip-path="url(#clipPath3182)"
       transform="matrix(1.1008 0 0 1.1005 -4.5399 951.43)">
      <rect
         id="rect5302"
         style="fill:url(#linearGradient20679)"
         rx="7.0986"
         ry="7.2285"
         transform="scale(1,-1)"
         width="87.211"
         y="-90.92"
         x="4.1242"
         height="87.775" />
      <path
         id="rect19706"
         d="m15.698 2.984-3.9693 18.139s-1.6101-4.2424-4.0595-17.372c-1.9613 1.0482-3.2927 3.0878-3.2927 5.5049v75.354c0 3.4786 2.7399 6.272 6.1795 6.272h74.515c3.4396 0 6.2246-2.7934 6.2246-6.272v-75.354c0-3.4479-2.7368-6.2233-6.1344-6.272l-2.7515 9.6561s-1.1708-2.5591-2.9319-9.6561h-1.3983l-3.7438 13.898s-1.5817-3.4334-4.0144-13.898h-43.392l-1.3983 4.5573s-0.62993-1.2403-1.5787-4.5573h-1.4434l-2.5259 9.6561s-1.0679-2.5217-2.6612-9.6561h-1.6238z"
         style="fill:url(#radialGradient20681)" />
      <path
         id="path5486"
         d="m34.25 3.25 30.5 0.25s17.5 37.25 17.25 47.25-1.4491 34.729-13.828 40.36c-0.554 0.252-56.172 0.39-56.172 0.39s-11.25-8.75-2-24.25c5.503-9.2212 5.75-21.75 5.5-31s-0.5-15 4.75-21.75c3.9311-5.0543 14-11.25 14-11.25z"
         style="fill:url(#radialGradient20683)" />
      <path
         id="path4003"
         d="m67.882 75.494a10.607 6.0104 0 1 1 -21.213 0 10.607 6.0104 0 1 1 21.213 0z"
         style="opacity:.66667;fill:url(#radialGradient20685)"
         transform="matrix(.96528 .78612 -.52307 .53543 57.733 -25.781)" />
      <path
         id="path19788"
         d="m15.519 3.0564-3.969 17.291s-1.6102-4.0439-4.0598-16.559c-1.9617 0.9987-3.2933 2.9429-3.2933 5.2468v71.828c0 3.3158 2.7401 5.9785 6.1799 5.9785h74.519c3.4398 0 6.225-2.6627 6.225-5.9785v-71.828c0-3.2866-2.7369-5.932-6.1348-5.9785l-2.7516 9.2043s-1.1709-2.4393-2.932-9.2043h-1.3984l-3.744 13.247s-1.5818-3.2728-4.0147-13.247h-43.394l-1.3984 4.3441s-0.62997-1.1823-1.5788-4.3441h-1.4435l-2.5261 9.2043s-1.068-2.4037-2.6614-9.2043h-1.6239z"
         style="fill:url(#linearGradient20687)" />
      <path
         id="path11846"
         d="m21.344 63.887s-16.71 25.958-2.8303 27.49c4.9332 0.54452 10.622 0.29452 22.806 0.17571 15.616-0.15228 13.035-23.026 3.216-28.519-5.4663-3.0579 2.2423-8.7943 2.2423-8.7943z"
         style="opacity:.85714;fill:url(#linearGradient20689)" />
      <path
         id="path11314"
         d="m44 48.375a12.625 22.625 0 1 1 -25.25 0 12.625 22.625 0 1 1 25.25 0z"
         style="fill:url(#linearGradient20691)"
         transform="matrix(.92361 0 0 .54398 -5.7267 -.62552)" />
      <path
         id="path12062"
         d="m73.614 38.703c0 9-3.3644 15.547-3.3644 15.547s1.25-0.5 4.25-4.5-0.88563-11.047-0.88563-11.047z"
         style="filter:url(#filter12169-2);fill:#876200"
         transform="matrix(.16302 2.3626 -2.3332 -.080693 125.64 -108.86)" />
      <path
         id="path12002"
         d="m67.882 75.494a10.607 6.0104 0 1 1 -21.213 0 10.607 6.0104 0 1 1 21.213 0z"
         style="opacity:.82456;fill:url(#radialGradient20693)"
         transform="matrix(2.1425 0 0 2.9413 -90.996 -168.48)" />
      <path
         id="path11836"
         d="m34.804 33.83s-6.079-1.0745-12.737 1.8431c-14.641 6.416-15.149 23.515-15.149 23.515s13.348 10.793 32.809 4.3879c15.735-5.1786 15.777-29.246 15.777-29.246z"
         style="fill:url(#linearGradient20695)" />
      <path
         id="path11830"
         d="m44 48.375a12.625 22.625 0 1 1 -25.25 0 12.625 22.625 0 1 1 25.25 0z"
         style="fill:url(#linearGradient20697)"
         transform="matrix(1.2215 0 0 .74874 5.9264 -10.869)" />
      <path
         id="path11832"
         d="m44 48.375a12.625 22.625 0 1 1 -25.25 0 12.625 22.625 0 1 1 25.25 0z"
         transform="matrix(0.509 .082153 -.055706 .28204 25.455 9.1482)" />
      <path
         id="path11834"
         d="m44 48.375a12.625 22.625 0 1 1 -25.25 0 12.625 22.625 0 1 1 25.25 0z"
         transform="matrix(.37879 .032932 -0.0212 .19919 9.3663 14.522)" />
      <path
         id="path11872"
         d="m60.126 33.73s20.507 12.144 25.811 20.513c5.3044 8.3686 3.5291 16.316 3.5291 16.316s-25.371-15.013-27.698-22.622c-2.3269-7.6083-1.6421-14.207-1.6421-14.207z"
         style="fill:url(#linearGradient20699)" />
      <path
         id="path12252"
         d="m32.143 84.648s0.62111 1.4355-1.279 1.9944c-0.81226 0.23889-1.9-2.1556-1.9-2.1556"
         style="opacity:.29386;stroke:#000;stroke-width:.79674px;fill:none" />
      <path
         id="path12016"
         d="m67.882 75.494a10.607 6.0104 0 1 1 -21.213 0 10.607 6.0104 0 1 1 21.213 0z"
         style="opacity:.41667;fill:url(#radialGradient20685)"
         transform="matrix(.80892 .71215 -.43834 .48505 63.208 -17.807)" />
      <path
         id="path3981"
         d="m-19.5 56.125a7.875 20.625 0 1 1 -15.75 0 7.875 20.625 0 1 1 15.75 0z"
         style="opacity:.42105;fill:url(#radialGradient20707)"
         transform="matrix(0.398 -.41208 .40570 .40505 66.219 19.261)" />
      <path
         id="path3991"
         d="m-19.5 56.125a7.875 20.625 0 1 1 -15.75 0 7.875 20.625 0 1 1 15.75 0z"
         style="opacity:.26754;fill:url(#radialGradient20707)"
         transform="matrix(0.398 -.41208 .40570 .40505 70.288 20.85)" />
      <path
         id="path4007"
         d="m-19.5 56.125a7.875 20.625 0 1 1 -15.75 0 7.875 20.625 0 1 1 15.75 0z"
         style="opacity:.67982;fill:url(#radialGradient20707)"
         transform="matrix(.35694 -.40108 .64775 .22144 5.8037 23.517)" />
      <path
         id="path4009"
         d="m-19.5 56.125a7.875 20.625 0 1 1 -15.75 0 7.875 20.625 0 1 1 15.75 0z"
         style="opacity:.67982;fill:url(#radialGradient20707)"
         transform="matrix(.35694 -.40108 .64775 .22144 10.892 24.661)" />
    </g>
    <rect
       id="rect3003"
       style="opacity:.15;fill:#fff"
       transform="translate(98)"
       clip-path="url(#clipPath3009)"
       rx="25"
       ry="25"
       height="92"
       width="92"
       y="958.36"
       x="-96" />
  </g>
</svg>
