<svg height="96" width="96" xmlns="http://www.w3.org/2000/svg" xmlns:xlink="http://www.w3.org/1999/xlink" xmlns:sodipodi="http://sodipodi.sourceforge.net/DTD/sodipodi-0.dtd" xmlns:inkscape="http://www.inkscape.org/namespaces/inkscape">
 <defs>
  <linearGradient x2="0" y1="962.62" y2="1046.1" gradientUnits="userSpaceOnUse" id="linearGradient11642" gradientTransform="matrix(1.15 0 0 1.15 -7.2 -150.65)">
   <stop stop-color="#242424"/>
   <stop stop-color="#505050" offset="1"/>
  </linearGradient>
  <radialGradient cy="67.783" r="14.492" gradientUnits="userSpaceOnUse" id="radialGradient3744" cx="99.94" gradientTransform="matrix(1 0 0 0.60345 0 26.88)">
   <stop stop-color="#fdb377"/>
   <stop stop-color="#fdb377" stop-opacity="0.469" offset="0.823"/>
   <stop stop-color="#fdb377" stop-opacity="0" offset="1"/>
  </radialGradient>
  <clipPath id="clipPath2920">
   <path d="m34.312 6c-2.875 0.0063-5.807 0.0263-8.812 0.0625-24.682 28.496-0.182 46.842 20.438 51.282-21.824-14.15-4.063-40.54 14.25-51.312-9.017 0.0445-17.249-0.05-25.876-0.031zm16.594 32.469c21.824 14.15 2.495 41.959-25.344 51.312 12.022-0.059 37.916 0.082 49.938-0.063 16.888-29.738-3.974-46.81-24.594-51.25z"/>
  </clipPath>
  <linearGradient x1="28.27" x2="30.996" xlink:href="#linearGradient3319-9" y1="31.705" y2="5.813" spreadMethod="reflect" gradientUnits="userSpaceOnUse" id="linearGradient2916"/>
  <linearGradient id="linearGradient3319-9">
   <stop stop-color="#fdb377"/>
   <stop stop-color="#fdb377" stop-opacity="0" offset="1"/>
  </linearGradient>
  <filter x="-0.12" y="-0.105" height="1.211" color-interpolation-filters="sRGB" id="filter3795" width="1.24">
   <feGaussianBlur stdDeviation="2.25521"/>
  </filter>
  <linearGradient x1="68.954" x2="66.27" xlink:href="#linearGradient3319-9" y1="64.1" y2="89.63" spreadMethod="reflect" gradientUnits="userSpaceOnUse" id="linearGradient2918-2"/>
  <filter x="-0.096" y="-0.105" height="1.211" color-interpolation-filters="sRGB" id="filter3790" width="1.193">
   <feGaussianBlur stdDeviation="2.25521"/>
  </filter>
  <clipPath clipPathUnits="userSpaceOnUse" id="clipPath3009">
   <path d="m-2 956.36h-96v33.562l96 25.687v-59.25z"/>
  </clipPath>
  <path d="m114.44 67.783a14.492 8.7451 0 1 1 -28.984 0 14.492 8.7451 0 1 1 28.984 0z" id="SVGCleanerId_0"/>
 </defs>
 <g transform="matrix(1 0 0 1 0 -956.36)">
  <rect x="2" rx="25" y="958.36" fill="url(#linearGradient11642)" height="92" width="92"/>
  <g transform="matrix(0.75269 0 0 0.75269 11.871 968.28)">
   <path d="m50.804 37.859c-0.23886 0.04576-0.4289 0.24402-0.47656 0.48806-0.04766 0.24403 0.05664 0.48484 0.25994 0.62116 5.3479 3.4676 8.112 7.7027 8.903 12.268 0.79105 4.5653-0.39931 9.5198-3.141 14.375-5.4833 9.7114-17.184 18.948-30.976 23.582-0.23951 0.09727-0.38138 0.34066-0.36825 0.59898h51.144c8.375-14.894 7.397-26.854 1.624-35.539-5.804-8.732-16.31-14.151-26.73-16.394-0.07861-0.01645-0.15967-0.01645-0.23828 0z" fill-rule="evenodd"/>
   <path d="m24.702 6.0241c-6.009 7.0399-9.083 13.522-9.943 19.367-0.87583 5.9514 0.56545 11.224 3.4442 15.684 5.7576 8.9216 17.167 14.637 27.597 16.882 0.28575 0.04394 0.56332-0.12493 0.67152-0.39932s0.01878-0.58266-0.21662-0.75427c-5.3495-3.4686-8.1943-7.6259-9.2713-12.09-1.077-4.4646-0.36054-9.2776 1.603-14.043 3.927-9.5302 12.859-18.774 21.9-24.092 0.19958-0.11421 0.32334-0.32876 0.32493-0.55461h-36.11z" fill-rule="evenodd"/>
   <path d="m25.503 6.0685c-24.682 28.496-0.192 46.83 20.427 51.268-21.823-14.15-4.059-40.538 14.254-51.312-12.022 0.0602-22.659-0.0994-34.681 0.0455z" fill="#e72121" fill-rule="evenodd"/>
   <use stroke-width="1.425" xlink:href="#SVGCleanerId_0" fill="#e00" stroke="#000" stroke-linecap="square" stroke-linejoin="round" transform="matrix(0.49015 0.50198 -0.49015 0.50198 32.614 -36.29)"/>
   <path d="m41.858 51.701c-12.848-10.004 1.904-35.741 16.778-42.519-21.596 15.379-25.037 35.066-16.778 42.519z" fill="#fff" fill-rule="evenodd" opacity="0.3"/>
   <path d="m49.145 39.347c-9.444-5.455-11.29-1.282-9.859 5.769-0.371-3.646-0.047-9.276 9.859-5.769z" fill-rule="evenodd" opacity="0.3"/>
   <path d="m47.673 56.413c9.444 5.4547 11.29 1.2823 9.8588-5.7695 0.37167 3.6461 0.04748 9.2764-9.8588 5.7695z" fill="#fff" fill-rule="evenodd" opacity="0.3"/>
   <path d="m31.959 53.302c-18.82-5.562-28.737-26.617-11.823-42.764-14.876 20.739-2.807 36.359 11.823 42.764z" fill-rule="evenodd" opacity="0.3"/>
   <use xlink:href="#SVGCleanerId_0" fill="url(#radialGradient3744)" transform="matrix(0.49739 0.50939 -0.49739 0.50939 32.382 -37.53)"/>
   <path d="m75.507 89.73c16.889-29.739-3.966-46.829-24.586-51.268 21.824 14.15 2.495 41.958-25.344 51.312 12.022-0.059 37.909 0.101 49.93-0.044z" fill="#e72121" fill-rule="evenodd"/>
   <path d="m54.994 44.097c12.847 10.004-3.29 33.613-21.282 40.568 22.808-13.428 30.407-31.164 21.282-40.568z" fill-rule="evenodd" opacity="0.3"/>
   <path d="m64.892 42.496c18.82 5.562 25.966 28.568 13.209 45.602 11.931-21.803 1.422-39.196-13.209-45.602z" fill="#fff" fill-rule="evenodd" opacity="0.2"/>
   <g clip-path="url(#clipPath2920)" opacity="0.8">
    <path d="m52.406 8.4688c-8.576-0.0128-16.892-0.0607-25.718 0.0312-5.4532 6.5207-8.1412 12.35-8.875 17.344-0.7661 5.2129 0.4328 9.6333 2.9688 13.562 3.4215 5.3014 9.4941 9.449 16.062 12.312-1.296-2.001-2.317-4.098-2.844-6.28-1.269-5.261-0.393-10.737 1.75-15.938 3.295-7.998 9.57-15.435 16.656-21.031z" fill="url(#linearGradient2916)" fill-rule="evenodd" filter="url(#filter3795)"/>
    <path d="m59.094 43.312c1.6038 2.3295 2.6421 4.8626 3.0938 7.4688 0.9277 5.3536-0.50079 10.931-3.4688 16.188-4.5425 8.0454-12.742 15.47-22.781 20.688 12.721 0.0024 28.507 0.03673 38.219-0.0625 7.509-13.836 6.457-24.127 1.343-31.813-3.693-5.551-9.729-9.708-16.406-12.469z" fill="url(#linearGradient2918-2)" fill-rule="evenodd" filter="url(#filter3790)"/>
   </g>
  </g>
  <rect x="-96" rx="25" y="958.36" clip-path="url(#clipPath3009)" fill="#fff" height="92" opacity="0.15" width="92" transform="matrix(1 0 0 1 98 0)"/>
 </g>
</svg>
