<svg height="96" width="96" xmlns="http://www.w3.org/2000/svg" xmlns:xlink="http://www.w3.org/1999/xlink" xmlns:sodipodi="http://sodipodi.sourceforge.net/DTD/sodipodi-0.dtd" xmlns:inkscape="http://www.inkscape.org/namespaces/inkscape">
 <defs>
  <linearGradient x2="0" y1="962.62" y2="1046.1" gradientUnits="userSpaceOnUse" id="linearGradient11642" gradientTransform="matrix(1.15 0 0 1.15 -7.2 -150.65)">
   <stop stop-color="#5a9b0f"/>
   <stop stop-color="#8fe02f" offset="1"/>
  </linearGradient>
  <linearGradient x1="32" x2="39" xlink:href="#linearGradient4239-3" y1="16" y2="6" gradientUnits="userSpaceOnUse" id="linearGradient5782"/>
  <linearGradient id="linearGradient4239-3">
   <stop stop-color="#e2f39e" stop-opacity="0"/>
   <stop stop-color="#e0f298" stop-opacity="0.291" offset="0.3"/>
   <stop stop-color="#e0f297" stop-opacity="0.165" offset="1"/>
  </linearGradient>
  <linearGradient x1="42" x2="70" xlink:href="#linearGradient4239-3" y1="23" y2="1" gradientUnits="userSpaceOnUse" id="linearGradient5784"/>
  <linearGradient x1="44" x2="96" xlink:href="#linearGradient4239-3" y1="36" y2="24" gradientUnits="userSpaceOnUse" id="linearGradient5770-9"/>
  <linearGradient x1="42" x2="96" xlink:href="#linearGradient4239-3" y1="45" y2="48" gradientUnits="userSpaceOnUse" id="linearGradient5774"/>
  <linearGradient x1="36" x2="82" xlink:href="#linearGradient4239-3" y1="51" y2="76" gradientUnits="userSpaceOnUse" id="linearGradient5776-7"/>
  <linearGradient x1="32" x2="48" xlink:href="#linearGradient4239-3" y1="56" y2="72" gradientUnits="userSpaceOnUse" id="linearGradient3226"/>
  <radialGradient cy="34.75" r="42" gradientUnits="userSpaceOnUse" id="radialGradient5730" cx="24" gradientTransform="matrix(0.5 0 0 0.52381 12 17.798)">
   <stop stop-color="#fff"/>
   <stop stop-color="#fff" stop-opacity="0.709" offset="0.5"/>
   <stop stop-color="#fff" stop-opacity="0" offset="1"/>
  </radialGradient>
  <clipPath clipPathUnits="userSpaceOnUse" id="clipPath3009">
   <path d="m-2 956.36h-96v33.562l96 25.687v-59.25z"/>
  </clipPath>
 </defs>
 <g transform="matrix(1 0 0 1 0 -956.36)">
  <rect x="2" rx="25" y="958.36" fill="url(#linearGradient11642)" height="92" width="92"/>
  <g transform="matrix(0.78453 0 0 0.78453 4.66 972.33)">
   <path d="m31.094 6-9.469 30.312 20.313-30.312h-10.844z" fill="url(#linearGradient5782)" opacity="0.4"/>
   <path d="m56.844 6-28.844 30.875 46.938-30.875h-18.094z" fill="url(#linearGradient5784)" opacity="0.5"/>
   <path d="m90 15.094-59.469 24.344 59.469-9.188v-15.156z" fill="url(#linearGradient5770-9)" opacity="0.5"/>
   <path d="m31.688 43.812 58.312 11.594v-11.468l-58.312-0.126z" fill="url(#linearGradient5774)" opacity="0.5"/>
   <path d="m27.844 46.656 41.281 27.344h14.875c2.6211 0 4.8353-1.6665 5.6562-4l-61.812-23.344z" fill="url(#linearGradient5776-7)" opacity="0.4"/>
   <path d="m28 50.312 15.844 23.782 0.156-0.094h7.125l-23.125-23.688z" fill="url(#linearGradient3226)" opacity="0.3"/>
  </g>
  <g transform="matrix(1 0 0 1 10.5 965.36)">
   <path d="m12 6c-3.324 0-6 2.676-6 6v56c0 3.324 2.676 6 6 6h12l-3 16 23-16h20v-68h-52z" fill="url(#radialGradient5730)" opacity="0.2"/>
   <path d="m22.062 14.094c-0.30941-0.01-0.64176-0.0076-0.9375 0.03125-0.94309 0.12394-1.8961 0.10362-2.8438 0.25-1.8154 0.28034-3.5497 0.85098-5.25 1.5312-0.61914 0.24767-1.2438 0.52214-1.8438 0.8125-0.22328 0.10804-0.53924 0.17036-0.71875 0.34375-0.09344 0.0904-0.0824 0.31661-0.09375 0.4375-0.03157 0.34003-0.09208 0.69144-0.125 1.0312-0.12699 1.3113-0.21904 2.6581-0.03125 3.9688 0.06078 0.42346 0.19829 1.1688 0.71875 1.25 0.80038 0.12525 1.4197-0.83109 1.8125-1.375 0.91739-1.2704 1.9642-2.4634 3.4688-3.0312 1.7712-0.66851 3.8137-0.84023 5.6875-0.96875 5.2571-0.36029 11.002 0.59666 14.875 4.4688 0.55074 0.55067 1.0567 1.1389 1.5 1.7812 1.7339 2.5107 2.6522 5.3764 3.0938 8.375 0.20762 1.4078 0.35237 2.8168 0.03125 4.2188-0.55727 2.4323-2.0085 4.5727-3.6875 6.375-1.1492 1.2336-2.4666 2.3302-3.8125 3.3438-0.75138 0.5657-1.5747 1.0691-2.2812 1.6875-0.81369 0.71229-1.4856 1.5809-2 2.5312-1.3842 2.559-1.7821 5.6434-1.375 8.5 0.08344 0.58552 0.17983 1.1725 0.3125 1.75 0.03965 0.17274 0.04449 0.48385 0.15625 0.625 0.20914 0.26401 0.77416 0.39078 1.0938 0.40625 0.33332 0.01612 0.5433-0.23239 0.625-0.53125 0.13986-0.51211 0.08104-1.0786 0-1.5938-0.16601-1.0552-0.32831-2.1164-0.28125-3.1875 0.08671-1.9776 0.84801-3.8167 2.2188-5.25 1.3941-1.4577 3.2908-2.3101 4.875-3.5312 3.1929-2.461 6.0266-5.7676 7.125-9.7188 0.39258-1.413 0.52304-2.9204 0.34375-4.375-0.227-1.841-0.898-3.674-1.531-5.407-1.933-5.282-5.237-10.303-10.5-12.719-2.09-0.959-4.27-1.404-6.532-1.719-1.06-0.147-2.119-0.234-3.187-0.281-0.297-0.013-0.597-0.021-0.907-0.031zm-3.281 21.906c-0.42164 0.04074-0.81632 0.18037-1.1875 0.40625-0.66707 0.40625-1.0409 1.1156-1.25 1.8438-0.41523 1.4459-0.22788 3.1105 0.0625 4.5625 0.09281 0.46441 0.18222 0.91909 0.3125 1.375 0.04706 0.16446 0.08053 0.39445 0.1875 0.53125 0.18668 0.23917 0.62676 0.3283 0.90625 0.28125 0.83852-0.14093 0.62229-1.538 0.59375-2.125-0.06688-1.3751-0.45507-2.6948-0.0625-4.0625 0.16622-0.57877 0.478-1.2486 1.0625-1.5 0.52764-0.22719 1.0723 0.04712 1.2812 0.5625 0.33831 0.8345 0.25656 1.8192 0.46875 2.6875 0.07211 0.29516 0.14814 0.56864 0.28125 0.84375 0.03856 0.07951 0.07574 0.26002 0.1875 0.25 0.272-0.025 0.671-0.488 0.875-0.656 0.65792-0.5437 1.3363-1.1289 2.0938-1.5312 0.35641-0.18929 0.94844-0.4782 1.3125-0.15625 0.09278 0.08212 0.1523 0.17735 0.21875 0.28125 0.42787 0.67025-0.0031 1.1751-0.28125 1.8125-0.36011 0.82491-0.72822 1.6379-1.25 2.375-0.44856 0.63388-1.0479 1.2138-1.4062 1.9062-0.23071 0.44589-0.37667 0.93432-0.28125 1.4375 0.07734 0.4069 0.39749 0.62666 0.8125 0.53125 0.31066-0.07145 0.51038-0.31679 0.6875-0.5625 0.31567-0.43827 0.62379-0.90374 0.9375-1.3438 0.60694-0.85105 1.3333-1.6476 1.8438-2.5625 0.61522-1.1029 0.90692-2.3375 0.90625-3.5938-0.000392-1.0266-0.36667-2.5973-1.5625-2.8125-0.22502-0.0403-0.49523-0.03899-0.71875 0-0.27774 0.04836-0.5587 0.1584-0.8125 0.28125-0.67992 0.32892-1.276 0.81649-1.7812 1.375-0.31522 0.34809-0.59469 0.77671-0.96875 1.0625 0-0.75826-0.122-1.5829-0.5625-2.2188-0.552-0.796-1.514-1.246-2.469-1.281-0.144-0.005-0.297-0.014-0.438 0zm-5.531 12.281c-0.1089-0.0084-0.22061 0.01361-0.34375 0.03125-1.0259 0.14682-1.3458 0.94728-1.1562 1.875 0.24269 1.1872 1.1998 2.0993 2.125 2.8125 2.3705 1.8271 5.421 2.8182 8.4062 2.6875 1.1649-0.05097 2.431-0.25575 3.5-0.75 0.57318-0.26488 1.1868-1.2166 0.40625-1.625-0.10697-0.05598-0.25581-0.07415-0.375-0.09375-0.34092-0.05576-0.70819 0.09471-1.0312 0.1875-0.56969 0.16359-1.1635 0.31215-1.75 0.40625-1.7522 0.28143-3.6431-0.11809-5.0938-1.1562-1.1727-0.83951-2.1046-1.9433-3-3.0625-0.47959-0.59943-0.92522-1.2538-1.6875-1.3125zm-1.25 5.781c-0.15512 0.0016-0.31398 0.01502-0.4375 0.03125-0.26099 0.03442-0.55773 0.02347-0.78125 0.1875-0.46621 0.3422 0.03595 1.0318 0.28125 1.3438 0.71128 0.90376 1.6591 1.6512 2.5938 2.3125 2.6055 1.843 5.5446 2.9074 8.7188 3.125 0.91257 0.06252 1.8474-0.006 2.75-0.15625 0.33003-0.05511 0.7575-0.07629 1.0625-0.21875 0.86312-0.40363 0.61406-2.0125-0.15625-2.375-0.33637-0.15814-0.89729 0.04474-1.25 0.09375-0.83417 0.11632-1.661 0.11423-2.5 0.09375-2.1988-0.0538-4.5529-0.71259-6.4688-1.7812-0.75312-0.42041-1.4159-0.93082-2.0625-1.5-0.394-0.345-0.804-0.918-1.313-1.093-0.119-0.041-0.283-0.064-0.438-0.063zm0.094 4.938c-0.37164 0.04161-0.66182 0.22423-0.90625 0.5-0.1684 0.18994-0.30952 0.35414-0.40625 0.59375-0.53331 1.3192 0.86188 2.5645 1.8438 3.1875 1.0927 0.69312 2.315 1.2234 3.5312 1.6562 2.7432 0.9763 5.9324 1.5916 8.7812 0.71875 0.8468-0.25922 1.6968-0.73437 2.3125-1.375 0.3468-0.36094 0.57362-0.89389-0.0625-1.125-0.377-0.137-0.815 0.206-1.157 0.344-0.807 0.325-1.665 0.583-2.531 0.688-1.141 0.138-2.15-0.132-3.25-0.407-0.939-0.235-1.904-0.474-2.812-0.812-0.775-0.289-1.541-0.614-2.219-1.094-0.203-0.143-0.428-0.282-0.594-0.469-0.543-0.61-0.949-1.325-1.531-1.906-0.2514-0.25094-0.61525-0.54291-1-0.5z" fill="#fff"/>
  </g>
  <rect x="-96" rx="25" y="958.36" clip-path="url(#clipPath3009)" fill="#fff" height="92" opacity="0.15" width="92" transform="matrix(1 0 0 1 98 0)"/>
 </g>
</svg>
