<svg height="96" width="96" xmlns="http://www.w3.org/2000/svg" xmlns:sodipodi="http://sodipodi.sourceforge.net/DTD/sodipodi-0.dtd" xmlns:inkscape="http://www.inkscape.org/namespaces/inkscape">
 <defs>
  <linearGradient x2="0" y1="962.62" y2="1046.1" gradientUnits="userSpaceOnUse" id="linearGradient11642" inkscape:collect="always" gradientTransform="matrix(1.15 0 0 1.15 -7.2 -150.65)">
   <stop stop-color="#2f7d9e"/>
   <stop stop-color="#54a8cc" offset="1"/>
  </linearGradient>
  <clipPath clipPathUnits="userSpaceOnUse" id="clipPath3009">
   <path d="m -2,956.36218 -96,0 0,33.5624 96,25.68742 0,-59.24982 z" inkscape:connector-curvature="0"/>
  </clipPath>
 </defs>
 <g inkscape:label="Layer 1" inkscape:groupmode="layer" transform="matrix(1 0 0 1 0 -956.36)">
  <rect x="2" rx="25" y="958.36" fill="url(#linearGradient11642)" fill-opacity="1" height="92" width="92"/>
  <path d="m 43.805,983.57 c -0.22679,0.0134 -0.46051,0.0463 -0.68023,0.0878 a 0.15616,0.15616 0 0 1 -0.02194,0 c -0.11324,0.004 -0.18357,0.0415 -0.21943,0.0658 -0.03586,0.0243 -0.02177,0.0371 -0.02194,0.0439 -1.65e-4,0.007 -0.01475,0.0133 0.02194,0.0439 0.0367,0.0306 0.11115,0.0707 0.21943,0.0878 a 0.15616,0.15616 0 0 1 0.02194,0 0.15616,0.15616 0 0 1 0.02194,0 c 1.1308,0.49215 2.3324,0.90987 3.4231,1.558 0.0085,0.005 0.0135,0.0169 0.02194,0.0219 0.69988,0.3163 1.2775,0.84472 1.7115,1.4482 0.50279,0.75709 0.53469,1.7906 0.21943,2.6112 a 0.15616,0.15616 0 0 1 -0.02194,0 c -0.53956,1.0826 -0.99898,2.2756 -1.8432,3.2256 -0.0067,0.008 -0.01515,0.0144 -0.02194,0.0219 -0.52247,0.74901 -1.365,1.082 -1.9968,1.5799 -0.0077,0.007 -0.01424,0.0154 -0.02194,0.0219 -0.48359,0.41231 -1.0478,0.77211 -1.4263,1.2069 -0.20972,0.3636 -0.43984,0.66184 -0.43886,1.0314 a 0.15616,0.15616 0 0 1 0,0.0219 0.15616,0.15616 0 0 1 0,0.0219 c -0.18495,0.71917 -0.06633,1.4784 0.17554,2.1943 0.1692,0.72507 0.56911,1.3859 1.1191,1.8871 h 0.02194 c 0.35439,0.099 0.8075,-0.017 1.2288,-0.1317 0.18083,-0.2957 0.39507,-0.5422 0.6144,-0.78988 0.31698,-0.37394 0.77092,-0.63242 1.2288,-0.78994 0.0063,-0.003 0.01563,0.003 0.02194,0 v -0.022 c 1.1662,-0.5571 2.4358,-0.40361 3.5767,-0.65828 0.32179,-0.10902 0.63693,-0.22882 0.85581,-0.43886 0.0056,-0.007 0.01645,-0.0149 0.02194,-0.0219 0.15503,-0.19875 0.25622,-0.47398 0.37303,-0.74606 0.12094,-0.28173 0.26578,-0.5719 0.50469,-0.81186 a 0.15616,0.15616 0 0 1 0.08777,-0.0439 0.15616,0.15616 0 0 1 0.02194,0 c 0.42741,-0.0108 0.77197,0.1881 1.0752,0.41691 0.28108,0.21208 0.53483,0.4459 0.78994,0.6144 0.0049,-0.0217 0.01897,-0.0173 0.02194,-0.0439 0.0098,-0.0879 0.0158,-0.18377 0.02194,-0.28526 0.0061,-0.10149 -0.0029,-0.19987 0.02194,-0.28526 a 0.15616,0.15616 0 0 1 0.02194,-0.0219 c 0.19269,-0.37537 0.42623,-0.83847 0.83383,-1.1191 0.0077,-0.007 0.01413,-0.0155 0.02194,-0.022 0.55317,-0.45652 1.3377,-0.53514 1.9749,-0.19748 v -0.022 c 0.34038,0.13895 0.60811,0.39409 0.87772,0.59246 0.26961,0.19837 0.53648,0.34881 0.83383,0.37303 0.26825,0.0508 0.51384,-0.0235 0.74606,-0.1536 0.23222,-0.13006 0.44548,-0.31151 0.65829,-0.50469 0.19513,-0.16089 0.42097,-0.43166 0.68023,-0.63634 0.25439,-0.20084 0.59632,-0.34831 0.96549,-0.21943 0.0065,0.002 0.01548,-0.002 0.02194,0 0.77787,0.25118 1.259,0.91002 1.7773,1.4044 0.0072,0.007 0.01477,0.0152 0.02194,0.0219 0.55955,0.36225 1.0968,0.78299 1.7115,0.68023 a 0.15616,0.15616 0 0 1 0.02194,0 0.15616,0.15616 0 0 1 0.02194,0 c 0.82576,0.0885 1.6455,-0.41464 2.0407,-1.141 0.15509,-0.28456 0.11439,-0.60235 -0.08777,-0.87772 a 0.15616,0.15616 0 0 1 -0.02177,-0.0456 0.15616,0.15616 0 0 1 0,-0.0218 c -0.05384,-0.37192 -0.37871,-0.67817 -0.54857,-1.1191 -0.0062,-0.0161 -0.01617,-0.0274 -0.02194,-0.0439 -1.0035,-1.6508 -2.5325,-2.9253 -4.0156,-4.1911 -0.0078,-0.007 -0.0141,-0.0153 -0.02194,-0.0219 -0.6389,-0.40239 -1.2049,-0.88909 -1.8213,-1.2727 -0.0056,-0.003 -0.01633,0.003 -0.02194,0 -1.0455,-0.57484 -2.0235,-1.2139 -3.1159,-1.6238 a 0.15616,0.15616 0 0 1 -0.04424,-0.0218 c -0.74627,-0.43018 -1.5557,-0.75891 -2.3698,-1.0752 -0.0068,-0.002 -0.01512,0.002 -0.02194,0 -0.76572,-0.20458 -1.468,-0.54741 -2.1943,-0.74606 -1.0809,-0.25893 -2.1578,-0.49046 -3.2476,-0.72408 -1.4121,-0.26964 -2.8663,-0.26964 -4.3226,-0.37356 -0.0073,3e-5 -0.01464,-10e-6 -0.02194,0 -0.69375,10e-4 -1.3896,-0.0618 -2.063,-0.0218 z m -2.2161,0.6144 c -1.0317,0.0564 -2.0736,0.32936 -3.1159,0.57052 a 0.26612,0.26612 0 0 1 -0.02194,0 c -1.4098,0.25644 -2.7619,0.81726 -4.0594,1.4702 -1.7708,0.81733 -3.4056,1.9141 -4.8055,3.2695 -0.97237,0.82611 -1.767,1.8601 -2.4795,2.9404 -0.77176,1.0508 -1.2924,2.2762 -1.7993,3.5109 -0.0062,0.0152 -0.0157,0.0287 -0.02194,0.0439 l -0.21943,0.78994 c -0.29397,1.256 -0.6528,2.4665 -0.68023,3.70834 0.0012,0.01 -0.0012,0.015 0,0.022 -1.38e-4,0.01 1.16e-4,0.015 0,0.022 0.20658,1.2277 0.59877,2.4499 1.3166,3.445 0.58445,0.9089 1.2867,1.7437 2.1724,2.326 a 0.26612,0.26612 0 0 1 0.02194,0.022 c 0.57449,0.4829 1.3492,0.6768 2.1065,1.0752 h 0.02194 c 0.01494,0.01 0.02896,0.014 0.04389,0.022 1.3194,0.2806 2.6834,0.467 3.9497,0.1317 a 0.26612,0.26612 0 0 1 0.08777,0 c -0.01743,0 0.0739,-0.011 0.17554,-0.044 0.10164,-0.033 0.23379,-0.076 0.35109,-0.1097 0.05865,-0.017 0.11028,-0.037 0.17554,-0.044 0.0355,0 0.08637,0.016 0.13166,0.022 0.6553,-0.888 1.2774,-1.8402 2.0187,-2.6991 a 0.26612,0.26612 0 0 1 0.02194,-0.022 c 0.58091,-0.5441 1.1966,-1.0879 1.931,-1.4702 a 0.26612,0.26612 0 0 1 0.06583,-0.022 c 0.42015,-0.1033 0.74662,-0.3672 0.9874,-0.746 a 0.26612,0.26612 0 0 1 0.02194,-0.022 c 0.13803,-0.1468 0.20891,-0.3642 0.28526,-0.6144 0.07635,-0.2501 0.15916,-0.5347 0.39497,-0.7899 a 0.26612,0.26612 0 0 1 0.02194,-0.022 c 0.54067,-0.4506 1.3142,-0.5569 1.9749,-0.3511 a 0.26612,0.26612 0 0 1 -0.02317,-0.023 c -0.53545,-0.66861 -0.96528,-1.45264 -1.1191,-2.32594 -0.18764,-0.92736 -0.0288,-1.8966 0.43886,-2.7209 a 0.26612,0.26612 0 0 1 0.06601,-0.0653 c 0.14312,-0.13512 0.27327,-0.34 0.43886,-0.54857 0.14762,-0.18594 0.33738,-0.36357 0.59246,-0.48274 0.65076,-0.5365 1.4224,-0.88102 1.9091,-1.4263 a 0.26612,0.26612 0 0 1 0.02194,-0.0219 c 0.86761,-0.74768 1.4748,-1.7493 2.0407,-2.7868 0.0026,-0.006 -0.0026,-0.0156 0,-0.0219 0.22523,-0.55232 0.38364,-1.1712 0.48274,-1.7773 -3.57e-4,-0.007 3.78e-4,-0.0145 0,-0.0219 -0.02812,-0.55199 -0.13131,-1.0916 -0.48274,-1.4482 a 0.26612,0.26612 0 0 1 -0.02177,-0.0442 c -0.29125,-0.42961 -0.77506,-0.73132 -1.2727,-1.0533 -0.01526,-0.007 -0.02867,-0.0152 -0.04389,-0.0219 -0.92224,-0.40616 -1.758,-0.91367 -2.6551,-1.2288 a 0.26612,0.26612 0 0 1 -0.066,-0.0218 c -0.36303,-0.23854 -0.8167,-0.26989 -1.3385,-0.39497 -0.01474,-0.004 -0.02905,0.004 -0.04389,0 z m 20.297,11.542 c -0.40423,0.21195 -0.73869,0.54234 -1.0971,0.89963 h -0.02194 c -0.32152,0.36438 -0.75343,0.61717 -1.2507,0.65828 a 0.26961,0.26961 0 0 1 -0.02194,0 c -0.39804,-0.002 -0.7594,-0.16166 -1.0533,-0.28525 a 0.26961,0.26961 0 0 1 -0.08777,-0.0449 c -0.27806,-0.27455 -0.62564,-0.48591 -1.0097,-0.65794 a 0.26961,0.26961 0 0 1 -0.0653,-0.0442 c -0.21065,-0.17414 -0.48239,-0.22329 -0.78994,-0.19731 -0.2591,0.0309 -0.48871,0.11376 -0.59263,0.24155 a 0.26961,0.26961 0 0 1 -0.08777,0.0658 c -0.21546,0.11701 -0.34598,0.24266 -0.37303,0.43886 a 0.26961,0.26961 0 0 1 -0.02247,0.066 c -0.10847,0.228 -0.115,0.50306 -0.10972,0.78995 0.50281,0.41641 1.0238,0.80806 1.5799,1.1629 0.0058,0.003 0.01608,-0.002 0.02194,0 0.0087,0.006 0.01324,0.0164 0.02194,0.0219 0.43037,0.17973 0.92069,0.30739 1.4043,0.52663 0.0066,0.003 0.01532,-0.003 0.02194,0 0.73939,0.23605 1.1756,0.827 1.6238,1.2507 0.007,0.01 0.01496,0.015 0.02194,0.022 0.30903,0.2262 0.59737,0.4982 0.78995,0.8558 a 0.26961,0.26961 0 0 1 0,0.022 c 0.29452,0.6246 0.56086,1.2651 0.81185,1.909 a 0.26961,0.26961 0 0 1 0.02194,0 c 0.2747,0.852 0.2297,1.7251 0.21943,2.5454 a 0.26961,0.26961 0 0 1 0,0.044 c -0.08007,0.6167 -0.273,1.1448 -0.41692,1.6896 0.26288,-0.024 0.5301,-0.053 0.78994,-0.044 0.01443,-9e-4 0.02945,8e-4 0.04389,0 1.1435,-0.068 2.3212,-0.1433 3.489,-0.066 1.182,0.1055 2.4134,0.064 3.6425,0.2195 0.01755,-4e-4 0.0266,-10e-5 0.04389,0 0.16421,0 0.31858,0.01 0.41692,0 0.05434,0 0.07835,-0.016 0.08777,-0.022 0.0094,-0.01 0.01118,0.015 0.02194,-0.022 a 0.26961,0.26961 0 0 1 0,-0.022 c 0.19248,-0.6284 0.25442,-1.3156 0.24137,-1.9968 -0.002,-0.015 0.0019,-0.029 0,-0.044 -0.09729,-0.7604 -0.09143,-1.5204 -0.08777,-2.2601 3.6e-5,-0.01 -3.4e-5,-0.015 0,-0.022 -0.06039,-0.9479 -0.17063,-1.9071 -0.35038,-2.8318 -0.24253,-1.201 -0.42012,-2.3829 -0.78995,-3.5109 -0.0097,-0.0161 -0.01285,-0.0277 -0.02194,-0.0439 -0.10741,-0.19128 -0.16351,-0.39113 -0.24137,-0.52663 -0.06593,-0.11473 -0.1384,-0.14522 -0.21943,-0.17554 -0.1472,0.10131 -0.26876,0.29811 -0.50469,0.50469 h -0.02194 c -0.3482,0.34353 -0.73237,0.8202 -1.3385,0.98739 -0.01671,0.005 -0.02683,0.0178 -0.04389,0.0219 -0.37193,0.14495 -0.73756,0.11484 -1.0533,0.10972 a 0.26961,0.26961 0 0 1 -0.04389,0 c -0.53318,-0.0744 -0.99084,-0.37314 -1.3605,-0.68023 -0.57534,-0.53337 -1.0414,-1.1257 -1.6458,-1.4482 a 0.26961,0.26961 0 0 1 -0.04424,-0.0218 c -0.11308,-0.0886 -0.2979,-0.092 -0.54857,-0.0878 z m -8.7772,1.8432 c -0.34672,0.4631 -0.72949,0.87694 -1.1849,1.2288 -0.59605,0.36651 -1.2373,0.69213 -1.9529,0.72408 -0.68781,0.10597 -1.4068,0.23163 -2.0626,0.43886 -0.5206,0.30616 -1.1127,0.46596 -1.558,0.89966 -0.78222,0.6267 -1.7737,0.9469 -2.7428,1.1191 -0.69144,-0.18 -1.4447,-0.2558 -2.1504,-0.1097 -0.39426,0.4082 -0.60838,0.9375 -0.83383,1.4482 -0.19363,0.3402 -0.54959,0.5135 -0.81185,0.79 -0.54878,0.184 -0.94611,0.6367 -1.4921,0.8338 -1.1725,0.8851 -1.8907,2.1983 -2.7868,3.3353 -0.44987,0.379 -0.16584,0.9834 -0.10972,1.4702 0.07992,1.0068 0.8075,1.9031 1.4921,2.5015 1.1684,0.9984 2.6959,1.3881 4.1472,1.7774 0.882,0.127 1.7592,0.3059 2.6551,0.2414 1.0543,0.011 2.097,0.019 3.1379,-0.1756 0.92884,-0.077 1.8275,-0.293 2.7209,-0.5486 1.5466,-0.3354 3.0349,-0.8891 4.5202,-1.4262 0.99386,-0.3563 2.0413,-0.6193 2.9184,-1.2288 0.79872,-0.2689 1.4135,-0.8804 1.9529,-1.4921 0.17905,-0.4054 0.55586,-0.7127 0.6144,-1.163 0.25622,-0.4776 0.29461,-1.046 0.4608,-1.558 0.14371,-0.8815 0.27024,-1.7714 0.06583,-2.655 -0.06952,-0.9194 -0.54093,-1.731 -1.0752,-2.4576 -0.59872,-1.0694 -1.8631,-1.453 -2.8965,-1.97493 -0.39487,-0.22584 -0.88762,-0.23457 -1.2069,-0.6144 -0.5419,-0.5332 -1.1474,-1.038 -1.8213,-1.4044 z m 12.245,10.905 c -0.15448,0 -0.30966,0.01 -0.46133,0.022 a 0.30969,0.30969 0 0 1 -0.02194,0 c -1.285,0.01 -2.5777,0.1811 -3.8837,0.3075 -0.37916,0.6133 -0.83559,1.158 -1.3385,1.6458 -0.007,0.01 -0.01491,0.014 -0.02194,0.022 -0.41748,0.4952 -0.97658,0.7179 -1.4043,0.9874 -0.01595,0.016 -0.02762,0.029 -0.04388,0.044 -0.30665,0.2851 -0.67067,0.3581 -0.94358,0.4608 v 0.022 c -0.63627,0.331 -1.3035,0.5054 -1.8871,0.7681 a 0.30969,0.30969 0 0 1 -0.04389,0.022 c -0.75034,0.2066 -1.5017,0.3799 -2.1943,0.6583 a 0.30969,0.30969 0 0 1 -0.02194,0 c -0.40175,0.1257 -0.74578,0.284 -1.0752,0.4827 v 0.8559 c 0.11653,0.3923 0.20985,0.7645 0.37303,1.0533 0.35565,0.677 0.85539,1.2896 1.4702,1.7335 v -0.022 c 0.79128,0.527 1.6016,1.019 2.4795,1.2288 a 0.30969,0.30969 0 0 1 0.02194,0 c 0.64087,0.1937 1.3252,0.2967 2.0187,0.373 h 0.04389 c 0.84907,0.01 1.7271,-0.09 2.6332,-0.066 0.98859,-0.2064 1.9712,-0.3631 2.7868,-0.8339 a 0.30969,0.30969 0 0 1 0.02194,-0.022 c 0.69499,-0.302 1.3355,-0.7567 1.8871,-1.2947 a 0.30969,0.30969 0 0 1 0.02194,-0.022 c 0.32626,-0.2605 0.54677,-0.6985 0.96549,-1.0972 0.0081,-0.018 0.01366,-0.026 0.02194,-0.044 0.19229,-0.414 0.43358,-0.7367 0.48274,-1.0313 a 0.30969,0.30969 0 0 1 0.02317,-0.089 c 0.18366,-0.3782 0.3352,-0.7938 0.32914,-1.1629 a 0.30969,0.30969 0 0 1 0,-0.044 c 0.05196,-0.3378 0.09058,-0.6537 0.0653,-0.9662 a 0.30969,0.30969 0 0 1 0,-0.044 c 0.05369,-0.6221 -0.1385,-1.2677 -0.32914,-1.931 a 0.30969,0.30969 0 0 1 0.066,-0.285 c 0.1518,-0.1902 0.23887,-0.5705 0.63634,-0.8559 a 0.30969,0.30969 0 0 1 0,-0.022 c 0.14338,-0.097 0.20682,-0.2937 0.28526,-0.5486 -0.0037,-0.01 0.01068,-0.016 -0.02194,-0.044 -0.04417,-0.038 -0.14007,-0.067 -0.21943,-0.1097 -0.43017,-0.04 -0.85721,-0.093 -1.2507,-0.066 a 0.30969,0.30969 0 0 1 -0.04389,0 c -0.49007,-0.038 -0.96338,-0.089 -1.4263,-0.088 z m -14.57,6.1659 -4.0594,0.8338 2.2382,4.4105 2.4795,1.8213 1.5799,4.1472 4.4105,-1.5799 c -0.37375,-0.7382 -0.71931,-1.4815 -1.141,-2.1943 -0.37858,-0.5984 -0.62005,-1.2621 -0.89962,-1.909 -0.0611,-0.242 -0.2383,-0.4296 -0.41692,-0.5925 -0.33174,-0.3778 -0.75231,-0.6451 -1.2069,-0.8558 -0.45511,-0.2025 -0.91957,-0.3861 -1.4043,-0.5047 l -1.5799,-3.5767 z" fill="#ffffff" inkscape:connector-curvature="0" transform="matrix(1.41865 0 0 1.41865 -19.09 -420.97)"/>
  <rect x="-96" rx="25" y="958.36" clip-path="url(#clipPath3009)" fill="#ffffff" fill-opacity="1" height="92" opacity="0.15" width="92" transform="matrix(1 0 0 1 98 0)"/>
 </g>
</svg>
