<?xml version="1.0" encoding="UTF-8" standalone="no"?>
<!-- Created with Inkscape (http://www.inkscape.org/) -->

<svg
   xmlns:dc="http://purl.org/dc/elements/1.1/"
   xmlns:cc="http://creativecommons.org/ns#"
   xmlns:rdf="http://www.w3.org/1999/02/22-rdf-syntax-ns#"
   xmlns:svg="http://www.w3.org/2000/svg"
   xmlns="http://www.w3.org/2000/svg"
   xmlns:sodipodi="http://sodipodi.sourceforge.net/DTD/sodipodi-0.dtd"
   xmlns:inkscape="http://www.inkscape.org/namespaces/inkscape"
   id="svg11037"
   height="96"
   width="96"
   version="1.1"
   inkscape:version="0.48.5 r10040"
   sodipodi:docname="user_auth.svg">
  <sodipodi:namedview
     pagecolor="#ffffff"
     bordercolor="#666666"
     borderopacity="1"
     objecttolerance="10"
     gridtolerance="10"
     guidetolerance="10"
     inkscape:pageopacity="0"
     inkscape:pageshadow="2"
     inkscape:window-width="640"
     inkscape:window-height="480"
     id="namedview16534" />
  <defs
     id="defs11039">
    <linearGradient
       id="linearGradient11642"
       y2="1046.1"
       gradientUnits="userSpaceOnUse"
       y1="962.62"
       gradientTransform="matrix(1.15 0 0 1.15 -7.1999 -150.65)"
       x2="48"
       x1="48">
      <stop
         id="stop3226-9"
         style="stop-color:#80a2c8"
         offset="0" />
      <stop
         id="stop3228-7"
         style="stop-color:#2e4c6d"
         offset="1" />
    </linearGradient>
    <clipPath
       id="clipPath3009"
       clipPathUnits="userSpaceOnUse">
      <path
         id="path3011"
         style="opacity:.15;fill:#fff"
         d="m-2 956.36h-96v33.562l96 25.687v-59.25z" />
    </clipPath>
  </defs>
  <metadata
     id="metadata11042">
    <rdf:RDF>
      <cc:Work
         rdf:about="">
        <dc:format>image/svg+xml</dc:format>
        <dc:type
           rdf:resource="http://purl.org/dc/dcmitype/StillImage" />
        <dc:title />
      </cc:Work>
    </rdf:RDF>
  </metadata>
  <g
     id="layer1"
     transform="translate(0 -956.36)">
    <rect
       id="rect3867"
       style="fill:url(#linearGradient11642)"
       rx="25"
       ry="25"
       height="92"
       width="92"
       y="958.36"
       x="2" />
    <g
       id="g5687"
       transform="matrix(1.2045 0 0 1.2045 -9.8182 -203)">
      <rect
         id="rect3889"
         style="opacity:.3;enable-background:new;fill:#fff"
         rx="3.5198"
         ry="4.0227"
         height="32"
         width="44"
         y="986.36"
         x="26" />
      <rect
         id="rect3899"
         style="enable-background:new;fill:#fff"
         rx="2"
         ry="2"
         height="12"
         width="34"
         y="999.36"
         x="31" />
      <path
         id="path3915"
         d="m33 998.39c-1.6208 0-2.9688 1.348-2.9688 2.9688v8c0 1.6208 1.348 2.9688 2.9688 2.9688h30c1.6208 0 2.9688-1.348 2.9688-2.9688v-8c0-1.66-1.348-3.01-2.969-3.01h-30zm0 2.0312h30c0.50058 0 0.9375 0.4369 0.9375 0.9375v8c0 0.5006-0.43692 0.9375-0.9375 0.9375h-30c-0.50058 0-0.9375-0.4369-0.9375-0.9375v-8c0-0.5006 0.43692-0.9375 0.9375-0.9375z"
         style="enable-background:new;fill:#2e4c6d" />
      <path
         id="rect3927"
         d="m33 1000.4c-0.50058 0-0.9375 0.4369-0.9375 0.9375v8c0 0.3099 0.19112 0.5774 0.4375 0.75v-7.75c0-0.5006 0.42139-0.9375 0.90625-0.9375h29.188c0.485 0 0.906 0.437 0.906 0.938v7.75c0.24638-0.1726 0.4375-0.4401 0.4375-0.75v-8c0-0.5006-0.43692-0.9375-0.9375-0.9375h-30z"
         style="opacity:.3;enable-background:new" />
      <path
         id="path3935"
         d="m40 1005.4a2.5 2.5 0 1 1 -5 0 2.5 2.5 0 1 1 5 0z"
         style="enable-background:new" />
      <path
         id="path3941"
         d="m47 1005.4a2.5 2.5 0 1 1 -5 0 2.5 2.5 0 1 1 5 0z"
         style="enable-background:new" />
      <path
         id="path3943"
         d="m54 1005.4a2.5 2.5 0 1 1 -5 0 2.5 2.5 0 1 1 5 0z"
         style="enable-background:new" />
      <path
         id="path3945"
         d="m61 1005.4a2.5 2.5 0 1 1 -5 0 2.5 2.5 0 1 1 5 0z"
         style="enable-background:new" />
      <path
         id="path3952"
         d="m32.549 992.01c-0.000003 0.14341-0.02416 0.27747-0.07249 0.40218-0.04677 0.12315-0.11769 0.23071-0.21278 0.32268-0.09353 0.0904-0.21122 0.16212-0.35307 0.21512-0.14186 0.053-0.30709 0.0795-0.4957 0.0795h-0.96803v1.2837h-0.4466v-3.2946h1.3866c0.19485 0 0.36476 0.0242 0.50973 0.0725 0.14497 0.0468 0.26578 0.1138 0.36242 0.20109 0.09664 0.0857 0.16913 0.19018 0.21746 0.31332 0.04832 0.12159 0.07248 0.25643 0.07249 0.40451m-0.44894 0.005c-0.000002-0.20888-0.06391-0.3671-0.19173-0.47466-0.12782-0.10912-0.31956-0.16367-0.5752-0.16368h-0.88619v1.3001h0.9049c0.2572 0 0.44582-0.0569 0.56585-0.17069 0.12158-0.11379 0.18238-0.27747 0.18238-0.49103"
         style="enable-background:new;fill:#fff" />
      <path
         id="path3954"
         d="m33.774 994.36c-0.25409 0-0.44504-0.067-0.57287-0.20109-0.12782-0.13406-0.19174-0.318-0.19174-0.55182 0-0.16679 0.03118-0.30319 0.09353-0.40919 0.06391-0.10756 0.14653-0.19173 0.24785-0.25253 0.10288-0.0608 0.21979-0.10288 0.35074-0.12626 0.13094-0.0234 0.26422-0.0366 0.39984-0.0398l0.56819-0.009v-0.13796c-0.000002-0.10444-0.01091-0.19329-0.03274-0.26656-0.02183-0.0733-0.05534-0.1325-0.10054-0.1777-0.04521-0.0452-0.1021-0.0779-0.17069-0.0982-0.06703-0.0218-0.14653-0.0327-0.2385-0.0327-0.08106 0-0.15432 0.006-0.21979 0.0187-0.06547 0.0109-0.12237 0.032-0.17069 0.0631-0.04832 0.0296-0.0873 0.0709-0.11691 0.12393-0.02962 0.0514-0.0491 0.11691-0.05846 0.19641l-0.43959-0.0398c0.01559-0.0998 0.04521-0.19095 0.08885-0.27357 0.04365-0.0842 0.10522-0.15666 0.18472-0.21746 0.08106-0.0608 0.1816-0.10756 0.30163-0.14029 0.12159-0.0343 0.26812-0.0514 0.43959-0.0514 0.318 0 0.55728 0.0733 0.71784 0.21979 0.16056 0.14497 0.24084 0.35541 0.24084 0.63132v1.0896c-0.000002 0.12471 0.01637 0.21901 0.0491 0.28292 0.03273 0.0624 0.09509 0.0935 0.18706 0.0935 0.02338 0 0.04676-0.002 0.07015-0.005 0.02338-0.003 0.04598-0.007 0.06781-0.0117v0.26188c-0.053 0.0125-0.106 0.0218-0.159 0.0281-0.05144 0.006-0.10678 0.009-0.16601 0.009-0.0795 0-0.14809-0.0101-0.20576-0.0304-0.05612-0.0218-0.1021-0.0538-0.13796-0.0959-0.03585-0.0437-0.06313-0.0967-0.08184-0.159-0.01871-0.0639-0.0304-0.13796-0.03507-0.22213h-0.01403c-0.04521 0.0811-0.09509 0.15432-0.14965 0.21979-0.053 0.0655-0.11535 0.12159-0.18706 0.16835-0.07171 0.0452-0.15354 0.0803-0.24551 0.10522-0.09041 0.0249-0.19485 0.0374-0.31332 0.0374m0.09587-0.31566c0.13406 0 0.25097-0.0242 0.35073-0.0725 0.10132-0.0499 0.18472-0.11301 0.25019-0.1894 0.06703-0.0764 0.11691-0.15978 0.14965-0.25019 0.03273-0.0904 0.0491-0.17692 0.0491-0.25954v-0.2081l-0.46063 0.009c-0.10288 0.002-0.20109 0.009-0.29462 0.0234-0.09197 0.0125-0.17303 0.0382-0.24318 0.0772s-0.12626 0.0935-0.16835 0.16368c-0.04053 0.0702-0.06079 0.16212-0.06079 0.27591 0 0.13718 0.03663 0.24318 0.1099 0.318 0.07482 0.0748 0.18082 0.11224 0.318 0.11224"
         style="enable-background:new;fill:#fff" />
      <path
         id="path3956"
         d="m37.693 993.62c-0.000003 0.11847-0.02338 0.22447-0.07015 0.318-0.04521 0.092-0.11146 0.16991-0.19875 0.23382-0.0873 0.0624-0.19485 0.11068-0.32268 0.14497-0.12627 0.0327-0.27124 0.0491-0.43491 0.0491-0.14653 0-0.27903-0.0117-0.3975-0.0351-0.11691-0.0218-0.21979-0.0577-0.30865-0.10756-0.08885-0.0499-0.16368-0.11535-0.22447-0.19641-0.05924-0.0826-0.10288-0.18316-0.13094-0.30163l0.37178-0.0725c0.03585 0.13562 0.1099 0.23538 0.22213 0.29929 0.11223 0.0623 0.26812 0.0935 0.46765 0.0935 0.09041 0 0.17303-0.006 0.24785-0.0187 0.07638-0.0125 0.14185-0.0335 0.19641-0.0631 0.05456-0.0312 0.09664-0.0717 0.12626-0.12159 0.03117-0.0514 0.04676-0.11457 0.04677-0.1894-0.000002-0.0764-0.01793-0.13873-0.05378-0.18706-0.03585-0.0499-0.08574-0.0912-0.14965-0.12393-0.06391-0.0327-0.14185-0.0608-0.23382-0.0842-0.09041-0.0249-0.19018-0.0522-0.29929-0.0818-0.10132-0.0265-0.20187-0.0561-0.30163-0.0888-0.09977-0.0327-0.19018-0.0756-0.27124-0.1286-0.0795-0.0546-0.14419-0.12159-0.19407-0.20109s-0.07482-0.17926-0.07482-0.29929c0-0.2307 0.08184-0.40607 0.24551-0.5261 0.16523-0.12158 0.40529-0.18238 0.72017-0.18238 0.27903 0 0.50038 0.0491 0.66406 0.14731 0.16523 0.0982 0.26967 0.25565 0.31332 0.47232l-0.37879 0.0468c-0.01403-0.0655-0.03975-0.12003-0.07716-0.16368-0.03741-0.0452-0.08262-0.0811-0.13562-0.10756-0.053-0.0281-0.11302-0.0475-0.18004-0.0585-0.06547-0.0125-0.13406-0.0187-0.20576-0.0187-0.19018 0-0.33047 0.0288-0.42088 0.0865s-0.13562 0.14497-0.13562 0.26188c-0.000001 0.0686 0.01637 0.12549 0.0491 0.17069 0.03429 0.0437 0.08106 0.0811 0.14029 0.11224 0.06079 0.0296 0.13328 0.0561 0.21746 0.0795 0.08418 0.0218 0.17692 0.0452 0.27825 0.0702 0.06703 0.0172 0.13562 0.0358 0.20576 0.0561 0.07014 0.0187 0.13795 0.0421 0.20342 0.0702 0.06703 0.0265 0.12938 0.0585 0.18706 0.0959 0.05923 0.0358 0.11067 0.0795 0.15432 0.13094 0.04364 0.0514 0.07794 0.11146 0.10288 0.18004 0.0265 0.0686 0.03975 0.14809 0.03975 0.2385"
         style="enable-background:new;fill:#fff" />
      <path
         id="path3958"
         d="m40.087 993.62c-0.000002 0.11847-0.02338 0.22447-0.07015 0.318-0.04521 0.092-0.11146 0.16991-0.19875 0.23382-0.0873 0.0624-0.19485 0.11068-0.32268 0.14497-0.12627 0.0327-0.27124 0.0491-0.43491 0.0491-0.14653 0-0.27903-0.0117-0.3975-0.0351-0.11691-0.0218-0.21979-0.0577-0.30865-0.10756-0.08885-0.0499-0.16368-0.11535-0.22447-0.19641-0.05924-0.0826-0.10288-0.18316-0.13094-0.30163l0.37178-0.0725c0.03585 0.13562 0.1099 0.23538 0.22213 0.29929 0.11223 0.0623 0.26812 0.0935 0.46764 0.0935 0.09041 0 0.17303-0.006 0.24785-0.0187 0.07638-0.0125 0.14185-0.0335 0.19641-0.0631 0.05456-0.0312 0.09664-0.0717 0.12626-0.12159 0.03117-0.0514 0.04676-0.11457 0.04676-0.1894-0.000001-0.0764-0.01793-0.13873-0.05378-0.18706-0.03585-0.0499-0.08574-0.0912-0.14965-0.12393-0.06391-0.0327-0.14185-0.0608-0.23382-0.0842-0.09041-0.0249-0.19018-0.0522-0.29929-0.0818-0.10132-0.0265-0.20187-0.0561-0.30163-0.0888-0.09977-0.0327-0.19018-0.0756-0.27123-0.1286-0.0795-0.0546-0.14419-0.12159-0.19407-0.20109s-0.07482-0.17926-0.07482-0.29929c-0.000001-0.2307 0.08184-0.40607 0.24551-0.5261 0.16523-0.12158 0.40529-0.18238 0.72017-0.18238 0.27903 0 0.50038 0.0491 0.66406 0.14731 0.16523 0.0982 0.26967 0.25565 0.31332 0.47232l-0.37879 0.0468c-0.01403-0.0655-0.03975-0.12003-0.07716-0.16368-0.03741-0.0452-0.08262-0.0811-0.13562-0.10756-0.053-0.0281-0.11302-0.0475-0.18004-0.0585-0.06547-0.0125-0.13406-0.0187-0.20576-0.0187-0.19018 0-0.33047 0.0288-0.42088 0.0865s-0.13562 0.14497-0.13562 0.26188c-0.000001 0.0686 0.01637 0.12549 0.0491 0.17069 0.03429 0.0437 0.08106 0.0811 0.14029 0.11224 0.06079 0.0296 0.13328 0.0561 0.21746 0.0795 0.08418 0.0218 0.17692 0.0452 0.27825 0.0702 0.06703 0.0172 0.13562 0.0358 0.20576 0.0561 0.07015 0.0187 0.13795 0.0421 0.20343 0.0702 0.06703 0.0265 0.12938 0.0585 0.18706 0.0959 0.05923 0.0358 0.11067 0.0795 0.15432 0.13094 0.04364 0.0514 0.07794 0.11146 0.10288 0.18004 0.0265 0.0686 0.03975 0.14809 0.03975 0.2385"
         style="enable-background:new;fill:#fff" />
      <path
         id="path3960"
         d="m43.005 994.32h-0.48869l-0.40451-1.6321c-0.01247-0.0421-0.02572-0.0943-0.03975-0.15666-0.01247-0.0624-0.02494-0.12314-0.03741-0.18238-0.01559-0.0686-0.0304-0.13951-0.04443-0.21278-0.01403 0.0702-0.02884 0.13952-0.04443 0.2081-0.01247 0.0592-0.0265 0.12081-0.04209 0.18472-0.01403 0.0639-0.02728 0.12003-0.03975 0.16835l-0.4162 1.6227h-0.48635l-0.70848-2.53h0.4162l0.4279 1.7186c0.01091 0.0358 0.02182 0.0803 0.03274 0.13328 0.01091 0.0514 0.02182 0.1021 0.03273 0.15198 0.01091 0.0577 0.0226 0.11691 0.03507 0.1777 0.01247-0.0592 0.02572-0.11691 0.03975-0.17303 0.01247-0.0483 0.02494-0.0974 0.03741-0.14731 0.01247-0.0499 0.02338-0.0912 0.03274-0.12393l0.45829-1.7373h0.45128l0.44192 1.7373c0.01091 0.0405 0.0226 0.0865 0.03507 0.13796 0.01247 0.0514 0.02416 0.0998 0.03507 0.14497 0.01247 0.053 0.02494 0.10678 0.03741 0.16134 0.01247-0.0592 0.02494-0.11691 0.03741-0.17303 0.01091-0.0483 0.02182-0.0982 0.03274-0.14965 0.01247-0.053 0.02416-0.0998 0.03507-0.14029l0.4466-1.7186h0.41153l-0.72485 2.53"
         style="enable-background:new;fill:#fff" />
      <path
         id="path3962"
         d="m46.183 993.05c-0.000002 0.44271-0.09743 0.7724-0.29228 0.98907-0.19486 0.21668-0.47778 0.32501-0.84878 0.32501-0.17615 0-0.33359-0.0265-0.47232-0.0795-0.13874-0.053-0.25643-0.13406-0.35307-0.24318-0.09509-0.10912-0.16835-0.24551-0.21979-0.40919-0.04988-0.16523-0.07482-0.35931-0.07482-0.58222 0-0.87294 0.37801-1.3094 1.134-1.3094 0.19641 0 0.36554 0.0273 0.5074 0.0818 0.14341 0.0546 0.26032 0.1364 0.35073 0.24551 0.09197 0.10912 0.15978 0.24552 0.20343 0.40919 0.04364 0.16368 0.06547 0.35463 0.06547 0.57286m-0.44192 0c-0.000002-0.19641-0.01559-0.35853-0.04677-0.48635-0.02962-0.12782-0.07404-0.22992-0.13328-0.30631-0.05768-0.0764-0.1286-0.12938-0.21278-0.159-0.08418-0.0312-0.17927-0.0468-0.28526-0.0468-0.10756 0-0.20499 0.0164-0.29228 0.0491-0.08574 0.0312-0.159 0.0857-0.21979 0.16368-0.0608 0.0764-0.10756 0.17849-0.14029 0.30631-0.03118 0.12782-0.04677 0.2876-0.04676 0.47934-0.000001 0.19641 0.01715 0.35931 0.05144 0.48869 0.03429 0.12782 0.08106 0.22993 0.14029 0.30631 0.06079 0.0764 0.13172 0.13016 0.21278 0.16134 0.08262 0.0312 0.17225 0.0468 0.2689 0.0468 0.10756 0 0.20498-0.0148 0.29228-0.0444 0.08729-0.0312 0.16134-0.085 0.22213-0.16134 0.06079-0.0764 0.10756-0.17926 0.14029-0.30865 0.03273-0.12938 0.0491-0.29228 0.0491-0.48869"
         style="enable-background:new;fill:#fff" />
      <path
         id="path3964"
         d="m46.718 994.32v-1.9407c0-0.053-0.000779-0.10678-0.0023-0.16134 0-0.0561-0.00078-0.10989-0.0023-0.16134-0.0016-0.0514-0.0031-0.0998-0.0047-0.14497-0.0016-0.0452-0.0031-0.0857-0.0047-0.12159h0.3975c0.0016 0.0359 0.0031 0.0772 0.0047 0.12393 0.0031 0.0452 0.0055 0.092 0.007 0.14029 0.0031 0.0483 0.0047 0.0951 0.0047 0.14029 0.0016 0.0436 0.0023 0.0811 0.0023 0.11224h0.0094c0.02962-0.0967 0.06079-0.18004 0.09353-0.25019 0.03429-0.0717 0.07404-0.13016 0.11925-0.17537 0.0452-0.0468 0.09898-0.0811 0.16134-0.10288 0.06235-0.0234 0.13795-0.0351 0.22681-0.0351 0.03429 0 0.06703 0.003 0.09821 0.009 0.03117 0.005 0.05534 0.009 0.07249 0.014v0.38581c-0.02806-0.008-0.0608-0.0133-0.09821-0.0164-0.03741-0.005-0.0795-0.007-0.12626-0.007-0.09665 0-0.17927 0.0218-0.24785 0.0655-0.06703 0.0436-0.12237 0.10444-0.16602 0.18238-0.04209 0.0764-0.07326 0.16836-0.09353 0.27591-0.02027 0.106-0.0304 0.22213-0.0304 0.3484v1.3188h-0.42088"
         style="enable-background:new;fill:#fff" />
      <path
         id="path3966"
         d="m49.905 993.91c-0.07794 0.16212-0.1816 0.27825-0.31098 0.3484-0.12782 0.0702-0.28682 0.10522-0.477 0.10522-0.31956 0-0.55494-0.10756-0.70614-0.32268-0.14965-0.21512-0.22447-0.54091-0.22447-0.97738-0.000001-0.88229 0.3102-1.3234 0.93061-1.3234 0.19173 0 0.35151 0.0351 0.47934 0.10522 0.12782 0.0702 0.2307 0.1816 0.30865 0.33437h0.0047c-0.000002-0.0156-0.000782-0.0397-0.0023-0.0725-0.000002-0.0343-0.000781-0.0694-0.0023-0.10522-0.000002-0.0374-0.000002-0.0725 0-0.10522-0.000002-0.0327-0.000002-0.0561 0-0.0702v-0.97972h0.42088v2.9485c-0.000002 0.0608-0.000002 0.11925 0 0.17537 0.0016 0.0561 0.0031 0.10756 0.0047 0.15432 0.0016 0.0468 0.0031 0.0873 0.0047 0.12159 0.0016 0.0327 0.0031 0.0561 0.0047 0.0702h-0.40218c-0.0031-0.0156-0.0062-0.0374-0.0094-0.0655-0.0016-0.0296-0.0039-0.0631-0.007-0.10054-0.0016-0.0374-0.0031-0.0764-0.0047-0.11691-0.0016-0.0421-0.0023-0.0834-0.0023-0.12393h-0.0094m-1.277-0.86c-0.000001 0.17459 0.01091 0.32424 0.03274 0.44894 0.02182 0.12471 0.0569 0.22759 0.10522 0.30865 0.04832 0.0795 0.1099 0.13796 0.18472 0.17537 0.07482 0.0374 0.16601 0.0561 0.27357 0.0561 0.11068 0 0.2081-0.0179 0.29228-0.0538 0.08573-0.0358 0.15666-0.0935 0.21278-0.17303 0.05767-0.0811 0.10132-0.18628 0.13094-0.31566 0.02961-0.12938 0.04442-0.2876 0.04443-0.47466-0.000002-0.17926-0.01481-0.33047-0.04443-0.45362-0.02962-0.1247-0.07327-0.22525-0.13094-0.30163-0.05768-0.0764-0.1286-0.13094-0.21278-0.16368-0.08262-0.0343-0.17849-0.0514-0.2876-0.0514-0.10288 0-0.19174 0.0179-0.26656 0.0538s-0.13718 0.0935-0.18706 0.17303c-0.04988 0.0795-0.0873 0.18316-0.11224 0.31098-0.02338 0.12627-0.03507 0.27981-0.03507 0.46063"
         style="enable-background:new;fill:#fff" />
      <path
         id="path3968"
         d="m52.417 992.27v-0.48401h0.45595v0.48h-0.456m0 2.046v-0.48401h0.45595v0.48401h-0.456"
         style="enable-background:new;fill:#fff" />
      <path
         id="rect3970"
         d="m29.531 986.36c-1.95 0-3.531 1.803-3.531 4.031v23.938c0 2.228 1.581 4.031 3.531 4.031h36.938c1.95 0 3.531-1.803 3.531-4.031v-23.938c0-2.228-1.581-4.031-3.531-4.031h-36.938zm0 1h36.938c1.327 0 2.531 1.281 2.531 3.031v23.938c0 1.75-1.204 3.031-2.531 3.031h-36.938c-1.327 0-2.531-1.281-2.531-3.031v-23.938c0-1.75 1.204-3.031 2.531-3.031z"
         style="opacity:.3;enable-background:new;fill:#fff" />
    </g>
    <rect
       id="rect3003"
       style="opacity:.15;fill:#fff"
       transform="translate(98 3.8281e-7)"
       clip-path="url(#clipPath3009)"
       rx="25"
       ry="25"
       height="92"
       width="92"
       y="958.36"
       x="-96" />
  </g>
</svg>
