<svg height="96" width="96" xmlns="http://www.w3.org/2000/svg" xmlns:xlink="http://www.w3.org/1999/xlink" xmlns:sodipodi="http://sodipodi.sourceforge.net/DTD/sodipodi-0.dtd" xmlns:inkscape="http://www.inkscape.org/namespaces/inkscape">
 <defs>
  <clipPath clipPathUnits="userSpaceOnUse" id="clipPath3009">
   <path d="m-2 956.36h-96v33.562l96 25.687v-59.25z"/>
  </clipPath>
  <linearGradient x2="0" y1="90" y2="5.988" gradientUnits="userSpaceOnUse" id="linearGradient3085" gradientTransform="matrix(1.1429 0 0 1.1429 -6.857 949.51)">
   <stop stop-color="#e53b00"/>
   <stop stop-color="#f19e54" offset="1"/>
  </linearGradient>
  <clipPath clipPathUnits="userSpaceOnUse" id="clipPath3018">
   <rect x="2" rx="25" y="958.36" height="92" width="92"/>
  </clipPath>
  <linearGradient id="linearGradient4680">
   <stop/>
   <stop stop-opacity="0" offset="1"/>
  </linearGradient>
  <linearGradient id="linearGradient5762-8">
   <stop stop-color="#2d3335"/>
   <stop stop-color="#4c464a" offset="0.5"/>
   <stop stop-color="#384042" offset="1"/>
  </linearGradient>
  <clipPath clipPathUnits="userSpaceOnUse" id="clipPath8750">
   <path d="m9 22.578s7.5 12.393 11.75 26.8c4.25 14.406 6.25 24.995 6.25 24.995s-5.5 13.195-8.25 25.417c-2.75 12.22-5.75 23.46-5.75 23.46s5.75 15.535 9.25 29.252 3.75 23.947 3.75 23.947-4 10.574-7.5 24.857-5 31.154-5 31.154 9.25-2.7481 28.5-1.055 32.25 3.3917 32.25 3.3917 12.75-3.7812 24-8.1911 16.25-7.8143 16.25-7.8143 5.5 0.0552 22.5 4.4302c17 4.3751 29.25 6.1343 29.25 6.1343s13-3.8014 26-7.8528 26.5-10.143 26.5-10.143-0.75-4.9393 4.25-24.844c5-19.904 8.75-28.708 8.75-28.708s-0.5145-4.4553-3.75-19.447c-1.75-8.1085-2.25-4.068-2.25-4.068s16.264-26.155 16.5-40.334c0.25-15.02-7.25-36.413-7.25-36.413s-4.75-14.866-7.5-29.143c-2.75-14.278-8.25-25.083-8.25-25.083s-24.25 10.961-31.75 13.068c-7.5 2.1066-21 6.9484-21 6.9484s-9.75-3.4614-22-6.7207c-12.25-3.2592-29.75-3.0939-29.75-3.0939s-3.25 3.7629-22 9.7793c-18.75 6.0165-27.5 7.9741-27.5 7.9741s-18.5-7.5038-31.5-8.9524-24-0.05894-24.75 0.25172z"/>
  </clipPath>
  <filter color-interpolation-filters="sRGB" id="filter7286">
   <feGaussianBlur stdDeviation="4.28689"/>
  </filter>
  <clipPath clipPathUnits="userSpaceOnUse" id="clipPath8617">
   <path d="m123.62 141.06c20.832 20.243 54.607 19.289 75.439-2.132s20.832-55.196 0-75.439-54.607-19.289-75.439 2.132-20.832 55.196 0 75.439z"/>
  </clipPath>
  <clipPath clipPathUnits="userSpaceOnUse" id="clipPath5466-2-3">
   <use xlink:href="#SVGCleanerId_2"/>
  </clipPath>
  <linearGradient id="linearGradient4744-9-7-8">
   <stop stop-color="#fff"/>
   <stop stop-color="#fff" stop-opacity="0" offset="1"/>
  </linearGradient>
  <filter color-interpolation-filters="sRGB" id="filter8661">
   <feGaussianBlur stdDeviation="6.31097"/>
  </filter>
  <filter color-interpolation-filters="sRGB" id="filter8725">
   <feGaussianBlur stdDeviation="4.4575"/>
  </filter>
  <linearGradient x2="0" xlink:href="#linearGradient4680" y1="245.45" y2="4.302" gradientUnits="userSpaceOnUse" id="linearGradient3718"/>
  <linearGradient x1="214.25" x2="166.5" xlink:href="#linearGradient4744-9-7-8" y1="-161.36" y2="-113.72" gradientUnits="userSpaceOnUse" id="linearGradient3722"/>
  <linearGradient x1="53.25" x2="57.656" xlink:href="#linearGradient4744-9-7-8" y1="-126.5" y2="-62.47" gradientUnits="userSpaceOnUse" id="linearGradient3724"/>
  <linearGradient x1="39.5" x2="75.72" xlink:href="#linearGradient4744-9-7-8" y1="6.625" y2="-17.12" gradientUnits="userSpaceOnUse" id="linearGradient3726"/>
  <linearGradient x1="102" x2="85.31" xlink:href="#linearGradient4744-9-7-8" y1="-162.34" y2="-121.44" gradientUnits="userSpaceOnUse" id="linearGradient3728"/>
  <linearGradient x1="117.75" x2="63.5" xlink:href="#linearGradient4744-9-7-8" y1="-78.09" y2="-14.75" gradientUnits="userSpaceOnUse" id="linearGradient3730"/>
  <linearGradient x1="180.69" x2="133.94" xlink:href="#linearGradient4744-9-7-8" y1="-125.12" y2="-60.75" gradientUnits="userSpaceOnUse" id="linearGradient3732"/>
  <linearGradient x1="170.75" x2="130.22" xlink:href="#linearGradient4744-9-7-8" y1="-23.5" y2="33.375" gradientUnits="userSpaceOnUse" id="linearGradient3734"/>
  <linearGradient x1="213.5" x2="181.75" xlink:href="#linearGradient4744-9-7-8" y1="-76" y2="-5.656" gradientUnits="userSpaceOnUse" id="linearGradient3736"/>
  <linearGradient x1="94.25" x2="9" xlink:href="#linearGradient4680" y1="-94.67" y2="-179.97" gradientUnits="userSpaceOnUse" id="linearGradient3738"/>
  <linearGradient x1="50.75" x2="35.75" xlink:href="#linearGradient4680" y1="-114.44" y2="-30.438" gradientUnits="userSpaceOnUse" id="linearGradient3740"/>
  <linearGradient x1="77.63" x2="115.25" xlink:href="#linearGradient4680" y1="-163.12" y2="-74.62" gradientUnits="userSpaceOnUse" id="linearGradient3742"/>
  <linearGradient x1="56.5" x2="125.72" xlink:href="#linearGradient4680" y1="-50.44" y2="7.06" gradientUnits="userSpaceOnUse" id="linearGradient3744"/>
  <linearGradient x1="35" x2="180.75" xlink:href="#linearGradient4680" y1="-163.3" y2="-146.8" gradientUnits="userSpaceOnUse" id="linearGradient3746"/>
  <linearGradient x1="57" x2="179" xlink:href="#linearGradient4680" y1="-141.11" y2="-41.609" gradientUnits="userSpaceOnUse" id="linearGradient3748"/>
  <linearGradient x1="156" x2="208.25" xlink:href="#linearGradient4680" y1="-26.5" y2="39.75" gradientUnits="userSpaceOnUse" id="linearGradient3750"/>
  <linearGradient x1="142.75" x2="235" xlink:href="#linearGradient4680" y1="-169.3" y2="-77.3" gradientUnits="userSpaceOnUse" id="linearGradient3752"/>
  <linearGradient x1="210.17" x2="9" xlink:href="#linearGradient4680" y1="72.06" y2="-213.25" gradientUnits="userSpaceOnUse" id="linearGradient3754" gradientTransform="matrix(1 0 0 1 0 192)"/>
  <linearGradient x1="108" x2="133" xlink:href="#linearGradient4680" y1="167.73" y2="150.38" gradientUnits="userSpaceOnUse" id="linearGradient3816" gradientTransform="matrix(-0.49399 -0.49399 -0.43716 0.43716 247.31 67.09)"/>
  <linearGradient x1="123" x2="133" xlink:href="#linearGradient5762-8" gradientUnits="userSpaceOnUse" id="linearGradient3820" gradientTransform="matrix(-0.49399 -0.49399 -0.43716 0.43716 247.31 67.09)"/>
  <linearGradient x1="120" x2="136" gradientUnits="userSpaceOnUse" id="linearGradient3823" gradientTransform="matrix(0.247 0.247 -0.247 0.247 131.06 -6.356)">
   <stop stop-color="#f9e295"/>
   <stop stop-color="#f7dd84" offset="0.125"/>
   <stop stop-color="#fff" offset="0.206"/>
   <stop stop-color="#f4ce51" offset="0.301"/>
   <stop stop-color="#f9e7aa" offset="0.341"/>
   <stop stop-color="#efbb0e" offset="1"/>
  </linearGradient>
  <linearGradient x1="123" x2="133" xlink:href="#linearGradient5762-8" gradientUnits="userSpaceOnUse" id="linearGradient3827" gradientTransform="matrix(-0.247 -0.247 -0.247 0.247 194.29 56.874)"/>
  <linearGradient x1="128" x2="130.88" xlink:href="#linearGradient5762-8" y1="134.36" y2="143.36" gradientUnits="userSpaceOnUse" id="linearGradient3830" gradientTransform="matrix(0.247 0.247 -0.247 0.247 131.06 -6.356)"/>
  <linearGradient x1="120" x2="136" xlink:href="#linearGradient3823" gradientUnits="userSpaceOnUse" id="linearGradient3841" gradientTransform="matrix(0.247 0.247 -0.247 0.247 114.51 10.192)"/>
  <linearGradient x1="210.17" x2="9" xlink:href="#linearGradient4680" y1="72.06" y2="-213.25" gradientUnits="userSpaceOnUse" id="linearGradient3901" gradientTransform="matrix(0.25094 0 0 0.25094 97.7 70.72)"/>
  <linearGradient x1="126.64" x2="179.96" xlink:href="#linearGradient4744-9-7-8" y1="29.815" y2="137.2" gradientUnits="userSpaceOnUse" id="linearGradient3958" gradientTransform="matrix(0.25094 0 0 0.25094 97.7 22.543)"/>
  <linearGradient x1="126.64" x2="179.96" xlink:href="#linearGradient4744-9-7-8" y1="29.815" y2="137.2" gradientUnits="userSpaceOnUse" id="linearGradient3960" gradientTransform="matrix(-0.12621 0.04979 0.04949 -0.10854 167 56.02)"/>
  <radialGradient cy="86" r="47" gradientUnits="userSpaceOnUse" id="radialGradient3970" cx="128" gradientTransform="matrix(0.25297 0.25225 0.25297 -0.25225 87.33 35.834)">
   <stop stop-color="#d0e9f2" stop-opacity="0"/>
   <stop stop-color="#d0e9f2" stop-opacity="0" offset="0.839"/>
   <stop stop-color="#d0e9f2" stop-opacity="0.282" offset="0.943"/>
   <stop stop-color="#d0e9f2" offset="1"/>
  </radialGradient>
  <path d="m174.28 35.875c-17.599 0-35.192 6.6395-48.719 19.906-0.16722 0.16328-0.33437 0.30312-0.5 0.46875-22.056 22.056-26.209 55.251-12.469 81.5l-2.2812 1.625c2.2488 4.2399 4.9416 8.3068 8.0938 12.125l-13.312 13.344c-1.3414-0.58575-2.7886-1.0333-4.5625-1.375l-2.8438 2.8438c-1.1095-0.48387-2.138-0.81588-3.0625-0.875l-64.124 64.14c-0.03687 1.1009 0.22615 2.1874 0.65625 3.2812l-0.53125 0.53125-1.0938 1.0938c0.71544 3.7378 2.0104 6.8229 5.4688 10.281 3.4583 3.4583 6.4204 4.6303 10.281 5.4688l1.0938-1.0938 0.71875-0.71875c1.0882 0.46225 2.1299 0.78617 3.0938 0.84375l64.125-64.125c-0.24286-0.97475-0.62043-1.9355-1.0312-2.9062l3-3c-0.24983-1.732-0.67671-3.198-1.3125-4.5938l13.28-13.28c3.8182 3.1521 7.8851 5.845 12.125 8.0938l1.62-2.27c26.249 13.74 59.444 9.5872 81.5-12.469 0.16563-0.16564 0.30547-0.33278 0.46875-0.5 26.69-27.22 26.55-70.923-0.47-97.94-13.59-13.59-31.41-20.375-49.22-20.375zm-0.5 3.2812c0.10467 0.0015 0.20783-0.002 0.3125 0 0.94919 0.0184 1.8954 0.06527 2.8438 0.125 0.95844 0.06036 1.9188 0.14751 2.875 0.25 0.0937 0.01005 0.18754 0.0208 0.28125 0.03125 0.094 0.01048 0.1873 0.02037 0.28125 0.03125 0.1457 0.01688 0.29187 0.04464 0.4375 0.0625 0.8962 0.1099 1.7949 0.22812 2.6875 0.375 0.61909 0.10187 1.2269 0.22412 1.8438 0.34375 0.34295 0.06644 0.68907 0.11558 1.0312 0.1875 0.7237 0.15211 1.4365 0.32339 2.1562 0.5 0.31305 0.07681 0.62528 0.13731 0.9375 0.21875 0.0731 0.01906 0.1457 0.04319 0.21875 0.0625 0.9559 0.25284 1.8967 0.51629 2.8438 0.8125 0.0724 0.02261 0.14641 0.03963 0.21875 0.0625 0.94741 0.29984 1.9068 0.62554 2.8438 0.96875 0.0531 0.01945 0.10323 0.04291 0.15625 0.0625 0.95458 0.3524 1.9017 0.72763 2.8438 1.125 0.0515 0.02172 0.10478 0.04064 0.15625 0.0625 0.94184 0.40005 1.8849 0.83628 2.8125 1.2812 0.042 0.02016 0.083 0.04225 0.125 0.0625 0.93538 0.45109 1.8621 0.90953 2.7812 1.4062 0.0331 0.01788 0.0607 0.04456 0.0937 0.0625 0.92681 0.50283 1.8414 1.0133 2.75 1.5625 0.0321 0.01939 0.0617 0.04305 0.0937 0.0625 0.9081 0.55093 1.7994 1.1216 2.6875 1.7188 0.54895 0.36907 1.0842 0.76954 1.625 1.1562 0.3647 0.26083 0.73291 0.51241 1.0938 0.78125 0.0185 0.01381 0.044 0.01742 0.0625 0.03125 0.87764 0.65521 1.7402 1.3599 2.5938 2.0625 1.7427 1.4344 3.4314 2.9627 5.0625 4.5938 1.6205 1.6205 3.1362 3.3006 4.5625 5.0312 0.009 0.01124 0.022 0.02 0.0312 0.03125 0.70321 0.85436 1.4067 1.7152 2.0625 2.5938 0.28277 0.37877 0.53857 0.77322 0.8125 1.1562 0.36973 0.51706 0.74014 1.038 1.0938 1.5625 0.0162 0.02399 0.0464 0.03849 0.0625 0.0625 0.59812 0.88963 1.167 1.7778 1.7188 2.6875 0.0195 0.03207 0.0431 0.06166 0.0625 0.09375 0.54559 0.90292 1.0627 1.8291 1.5625 2.75 0.0179 0.03294 0.0447 0.06079 0.0625 0.09375 0.498 0.92121 0.95408 1.8437 1.4062 2.7812 0.0202 0.04194 0.0424 0.08302 0.0625 0.125 0.44611 0.92987 0.88027 1.8683 1.2812 2.8125 0.0218 0.05123 0.0409 0.10498 0.0625 0.15625 0.3948 0.93612 0.77461 1.8952 1.125 2.8438 0.0194 0.05253 0.0432 0.10369 0.0625 0.15625 0.34761 0.94836 0.66558 1.8846 0.96875 2.8438 0.0227 0.07167 0.0401 0.14703 0.0625 0.21875 0.29398 0.94117 0.56134 1.8938 0.8125 2.8438 0.0195 0.07353 0.0433 0.14517 0.0625 0.21875 0.0807 0.30955 0.14258 0.62713 0.21875 0.9375 0.17661 0.71978 0.34789 1.4325 0.5 2.1562 0.0719 0.34218 0.12106 0.6883 0.1875 1.0312 0.11963 0.61688 0.24188 1.2247 0.34375 1.8438 0.14688 0.89259 0.2651 1.7913 0.375 2.6875 0.0179 0.14596 0.0456 0.29146 0.0625 0.4375 0.0108 0.09329 0.0208 0.18793 0.0312 0.28125 0.0105 0.09398 0.0212 0.18724 0.0312 0.28125 0.10249 0.9562 0.18964 1.9166 0.25 2.875 0.0592 0.94244 0.10661 1.9005 0.125 2.8438 0.002 0.10413-0.002 0.20837 0 0.3125 0.0154 1.0533 0.004 2.1038-0.0312 3.1562-0.0316 0.93056-0.0847 1.8528-0.15625 2.7812-0.01 0.12493-0.0209 0.25012-0.0312 0.375-0.0761 0.91807-0.16591 1.8354-0.28125 2.75-0.1206 0.95626-0.27395 1.9239-0.4375 2.875-0.0142 0.0824-0.0168 0.16767-0.0312 0.25-0.022 0.12485-0.0397 0.25026-0.0625 0.375-0.16526 0.90778-0.3579 1.8173-0.5625 2.7188-0.0306 0.13463-0.0623 0.27178-0.0937 0.40625-0.20775 0.88866-0.44134 1.7751-0.6875 2.6562-0.16391 0.58672-0.35028 1.167-0.53125 1.75-0.17541 0.56412-0.33984 1.1272-0.53125 1.6875-0.29467 0.86381-0.60475 1.7088-0.9375 2.5625-0.0606 0.15549-0.12566 0.31362-0.1875 0.46875-0.0449 0.11246-0.0795 0.23148-0.125 0.34375-0.3561 0.87862-0.72813 1.7276-1.125 2.5938-0.37698 0.82347-0.7736 1.6264-1.1875 2.4375-0.0805 0.15778-0.16807 0.31147-0.25 0.46875-0.41528 0.7974-0.82998 1.591-1.2812 2.375-0.0952 0.16556-0.1844 0.33506-0.28125 0.5-0.19907 0.33885-0.41915 0.66384-0.625 1-0.36165 0.59093-0.74237 1.1678-1.125 1.75-0.005 0.007 0.005 0.0238 0 0.0312-0.49081 0.74574-1.0059 1.4882-1.5312 2.2188-0.45727 0.63592-0.95404 1.2513-1.4375 1.875-0.19696 0.25409-0.36119 0.52926-0.5625 0.78125-0.13402 0.16779-0.2703 0.33315-0.40625 0.5-0.16351 0.20064-0.3337 0.39451-0.5 0.59375-0.55662 0.66705-1.1308 1.3178-1.7188 1.9688-0.60631 0.67104-1.2353 1.347-1.875 2-0.16096 0.16426-0.30567 0.33692-0.46875 0.5-21.13 21.13-52.259 24.495-77.188 11.156l0.125-0.1875c-3.7042-1.8966-7.2617-4.1405-10.625-6.7812-0.53892-0.42315-1.0654-0.86982-1.5938-1.3125-0.51441-0.43097-1.0273-0.8629-1.5312-1.3125-0.0929-0.0836-0.18872-0.1658-0.28125-0.25-0.82173-0.74776-1.6119-1.5181-2.4062-2.3125-0.79436-0.79436-1.5647-1.5845-2.3125-2.4062-0.0842-0.0925-0.16639-0.18838-0.25-0.28125-0.4496-0.50395-0.88153-1.0168-1.3125-1.5312-0.44268-0.52838-0.88935-1.0548-1.3125-1.5938-2.6408-3.3633-4.8846-6.9208-6.7812-10.625l-0.1875 0.125c-13.339-24.929-9.9741-56.057 11.156-77.188 0.16308-0.16308 0.33574-0.30778 0.5-0.46875 0.65295-0.63968 1.329-1.2687 2-1.875 0.6509-0.58796 1.3017-1.1621 1.9688-1.7188 0.27214-0.22709 0.53777-0.46562 0.8125-0.6875 0.34347-0.27743 0.71509-0.51196 1.0625-0.78125 0.62372-0.48346 1.2391-0.98023 1.875-1.4375 0.73753-0.53033 1.497-1.0361 2.25-1.5312 0.58223-0.38263 1.1591-0.76335 1.75-1.125 0.44667-0.27336 0.89235-0.55112 1.3438-0.8125 0.68145-0.39479 1.3708-0.75747 2.0625-1.125 0.17606-0.09355 0.35456-0.18946 0.53125-0.28125 0.94525-0.49098 1.8814-0.9657 2.8438-1.4062 0.86615-0.39688 1.7151-0.7689 2.5938-1.125 0.15281-0.06193 0.31559-0.09555 0.46875-0.15625 0.96839-0.38402 1.9247-0.75891 2.9062-1.0938 0.56026-0.19141 1.1234-0.35584 1.6875-0.53125 0.58295-0.18097 1.1633-0.36734 1.75-0.53125 0.88115-0.24616 1.7676-0.47975 2.6562-0.6875 0.0711-0.01664 0.14757-0.01486 0.21875-0.03125 0.41593-0.09574 0.83264-0.1939 1.25-0.28125 0.67213-0.14082 1.3558-0.28716 2.0312-0.40625 0.0823-0.01449 0.16763-0.01709 0.25-0.03125 0.95107-0.16355 1.9187-0.3169 2.875-0.4375 1.9636-0.24764 3.9299-0.40164 5.9062-0.46875 1.0524-0.03564 2.1029-0.04663 3.1562-0.03125l0.00005 0.00005z" fill="#2d3335" id="SVGCleanerId_0"/>
  <path d="m99.959 25.617s1.8821 3.2623 2.9486 6.9637 1.5684 6.399 1.5684 6.399-1.3802 3.1995-2.0703 6.2108-1.4429 5.7717-1.4429 5.7717 1.4429 4.0151 2.3212 7.5283c0.87829 3.5132 0.94103 6.0854 0.94103 6.0854s-1.0038 2.5722-1.8821 6.0854-1.2547 7.7165-1.2547 7.7165 2.3212-0.50188 7.1519 0.31368c4.8306 0.81556 8.0929 1.5057 8.0929 1.5057s3.1995-0.69009 6.0226-1.5684c2.8231-0.8783 4.0778-1.6311 4.0778-1.6311s1.3802 0.12547 5.6462 1.5684 7.3401 2.133 7.3401 2.133 3.2622-0.69009 6.5245-1.4429c3.2622-0.75283 6.65-2.0075 6.65-2.0075s-0.18821-1.2547 1.0665-6.1481 2.1958-7.0264 2.1958-7.0264-0.12547-1.1292-0.94103-4.9561c-0.81557-3.8269-2.5094-7.4655-2.5094-7.4655s0.43915-2.6349 1.6939-5.9599c1.2547-3.325 2.5722-6.7127 2.5722-6.7127s-1.192-3.8269-1.8821-7.4655c-0.69009-3.6387-2.0703-6.4618-2.0703-6.4618s-6.0854 2.2585-7.9674 2.6349c-1.8821 0.37641-5.2698 1.3174-5.2698 1.3174s-2.4467-1.0665-5.5207-2.133-7.4655-1.3802-7.4655-1.3802-0.81557 0.8783-5.5207 2.0075c-4.7052 1.1292-6.9009 1.4429-6.9009 1.4429s-4.6424-2.2585-7.9047-2.8858c-3.2623-0.62736-6.0226-0.50189-6.2108-0.43915z" id="SVGCleanerId_1"/>
  <path d="m9 12.25s7.5 13 11.75 27.75 6.25 25.5 6.25 25.5-5.5 12.75-8.25 24.75-5.75 23-5.75 23 5.75 16 9.25 30 3.75 24.25 3.75 24.25-4 10.25-7.5 24.25-5 30.75-5 30.75 9.25-2 28.5 1.25 32.25 6 32.25 6 12.75-2.75 24-6.25 16.25-6.5 16.25-6.5 5.5 0.5 22.5 6.25 29.25 8.5 29.25 8.5 13-2.75 26-5.75 26.5-8 26.5-8-0.75-5 4.25-24.5 8.75-28 8.75-28-0.5-4.5-3.75-19.75-10-29.75-10-29.75 1.75-10.5 6.75-23.75 10.25-26.75 10.25-26.75-4.75-15.25-7.5-29.75-8.25-25.75-8.25-25.75-24.25 9-31.75 10.5-21 5.25-21 5.25-9.75-4.25-22-8.5-29.75-5.5-29.75-5.5-3.25 3.5-22 8-27.5 5.75-27.5 5.75-18.5-9-31.5-11.5-24-2-24.75-1.75z" id="SVGCleanerId_2"/>
  <path d="m110.75 5.5-4.25 7c-0.75 9-2.25 13.75-8.5 16.5s-12.25 3.5-11 7.5 13 9.25 14.25 13 8.25 1.75 11 7 2 15.25-3.75 17.25-17.5 0.5-20.25 9.5-4.75 10.5-9 12.75-7.25 10.5-3.5 16.5 12.25-1.25 15-6.5 7.25-8.75 7.25-8.75h23.75l59-1.75 3.25-3.75s3.25 4 2.75 8.75-3.75 14.75 0.25 17.25 19.5-2 24-7-4.75-28.25-10.5-29.5-18.5-1.75-17-7 11.75 4.5 17.25 3.25 16.75-21 12-25.25-24.25-5.25-25.75-8 21-8 22.25-11-2.5-7.25-6.25-8.5-14 16.25-21 15.75-20 5.75-17.25 11.5-6 11-14.5 6.5-24.75-13-21.75-24 21.5-18.75 21.5-18.75l-39.25-10.25zm-13.562 107.22c-1.5948 0.14648-4.4688 4.6875-4.9375 7.0312-0.5 2.5-3.25 6.75-3.5 12.25s4.75 6.75 8.75 6.5 2.75-6.75 2-15c-0.25 0-0.5-10.25-2-10.75-0.09375-0.0312-0.20618-0.041-0.3125-0.0312v-0.00005zm92.719 51.656c-6.3354 0.29541-6.625 7.4688-7.4062 8.875-1.25 2.25 2.25 13.75 2 18s-4.75 5.25-9.5 9.75 0.5 16 11.25 31l44.75 1.25-1-35s4.75-4.25-20.75-24.25c-9.5625-7.5-15.542-9.8022-19.344-9.625zm-149.97 16.53c-4.03-0.11-8.282 5.71-9.688 7.59-1.5 2-6.25 5-17 9.5l-14.5 34.25 53 4.25s1.75-11-4.25-15.75-17.25-5.75-18.25-13.25 9.25-10 13.75-14.25 2-11.25-2.25-12.25c-0.26562-0.0625-0.54388-0.0869-0.8125-0.0937v-0.00005z" fill="#a6dd8b" id="SVGCleanerId_3"/>
  <path d="m15.75 151.25c33-2.5 38.25-3.5 36.25-10.25s-8.75-23.5-23-22.5-22.75-6.75-22.75-6.75" fill="none" stroke="#6d7f42" id="SVGCleanerId_4" opacity="0.387" stroke-linecap="round" stroke-linejoin="round"/>
  <path d="m17.5 177.25c18.25-10 28.75-8.5 35-11.5s13.25-5.75 15.75-9.5 5.75-11.5 5.75-18-3.5-36 3.25-43.5 17.25-26 26-23.25 12.25 9.75 22 9.5 21.75-4 24.25-12.25-15.75-16-16-23 5.5-14.25 20.25-17 23.5-11.5 23.5-11.5" fill="none" stroke="#6d7f42" id="SVGCleanerId_5" opacity="0.387"/>
  <path d="m14.5 161c15.25-1.5 22.25 3.5 31.5 1.75s13.25-3 17.75-5.75 6-3.75 6.25-6.5 1-12.5-3-22-12.5-31.5-8.25-38.75 5.25-21.5 15.75-24.5 21-6.25 27.75-1.25 12.75 14.25 20 14.5 11.75-1.5 14.5-4.5 4.5-10.25 1.75-13.75-15.5-5.5-17.25-9.5-10.75-17-0.25-26.75 36.25-8.25 36.25-8.25" fill="none" stroke="#6d7f42" id="SVGCleanerId_6" opacity="0.387" stroke-linecap="round" stroke-linejoin="round"/>
  <path d="m21.25 159c13.75 1 21.5 4.25 33.5-0.5s13.5-5.25 13.75-8.75-0.25-15.75-3-20-13-13.75-15.75-24.25 0.25-41 8.5-48.25 32-7.25 37.5-10.5 5.25-16.75 13-24.5 27-12.25 27-12.25" fill="none" stroke="#6d7f42" id="SVGCleanerId_7" opacity="0.387" stroke-linecap="round" stroke-linejoin="round"/>
  <path d="m190 18.5c11.75 5 39 9.75 47.25 40.25" fill="none" stroke="#6d7f42" id="SVGCleanerId_8" opacity="0.387" stroke-linecap="round" stroke-linejoin="round"/>
  <path d="m9.75 214c19-12.5 36-1.25 49-4s38.25-37.25 46-37 5.5-11.75 8.5-13.25 5.5 6 11.75 8 24.5-2.75 23.5-5.75-7-7.75-5.5-8.5 8.5 5 12.75 3.5 43.75-1 48.5-13.5 21.5-13.5 21.5-13.5" fill="none" stroke="#6d7f42" id="SVGCleanerId_9" opacity="0.387" stroke-linecap="round" stroke-linejoin="round"/>
  <path d="m77.5 233.5c13.5-11.5 23.25-25 28.5-27s12.75-3.75 15.75-8 2.5-10.75 5.25-12 3.75 5.75 8.75 6 36.75-5 42.75-11.75 32.25-12.5 32.5-14.5-1-4.75 0.25-5.5 24.75-6 24.75-6" fill="none" stroke="#6d7f42" id="SVGCleanerId_10" opacity="0.387" stroke-linecap="round" stroke-linejoin="round"/>
  <path d="m168.75 236c9-13.75 20.5-41 29.5-42s10.25-2.5 12.5-4.25 17 2.25 17 2.25" fill="none" stroke="#6d7f42" id="SVGCleanerId_11" opacity="0.387" stroke-linecap="round" stroke-linejoin="round"/>
  <path d="m57.75 20-8.5 28.25 18 6.25l7.75 36.25-21 22.25 9 10.5-12 11.5 0.5 4.5 20.25 24.5 14-6.75 20.5 18.5-10.5 28.25 10.25 8.5-2.75 13" stroke-width="2" fill="none" stroke="#d38484" id="SVGCleanerId_12" stroke-linecap="round"/>
  <path d="m105.75 212.25 12.5-27.75 11-7 27.5 15.75 20.5-3.75-0.25-15.75-10.25-6 12.75-26.25 5.75-3.75 38.75-10" stroke-width="2" fill="none" stroke="#d38484" id="SVGCleanerId_13" stroke-linecap="round"/>
  <path d="m219.25-182s-24.25 9-31.75 10.5-21 5.25-21 5.25c4.924-1.3583 11.437 45.392 14.25 52.25l-0.0625 0.28125c11.808-4.0738 51.21-4.7677 54.312-12.781 0 0-4.75-15.25-7.5-29.75s-8.25-25.75-8.25-25.75z" fill="url(#linearGradient3722)" id="SVGCleanerId_14"/>
  <path d="m27-126.5s-5.5 12.75-8.25 24.75-5.75 23-5.75 23l50.625 16.281 15.781-58.911-52.406-5.12z" fill="url(#linearGradient3724)" id="SVGCleanerId_15"/>
  <path d="m26-24.5s-4 10.25-7.5 24.25-5 30.75-5 30.75 0.14697-0.0454 0.4375-0.0937c2.0337-0.33838 11.219-1.5 28.062 1.3438 19.25 3.25 32.25 6 32.25 6l1.4688-52.5-0.75 0.125-48.969-9.875z" fill="url(#linearGradient3726)" id="SVGCleanerId_16"/>
  <path d="m114.75-180.25s-3.25 3.5-22 8-27.5 5.75-27.5 5.75c5.1823 14.704 12.03 29.27 14.25 44.75l-0.09375 0.3125 48.031-3.9375 1.125 0.25c-3.3625-13.323-7.796-54.592-13.812-55.125z" fill="url(#linearGradient3728)" id="SVGCleanerId_17"/>
  <path d="m117.59-78.094-53.621 15.719-0.344-0.094-0.125 0.469l12.25 46.5-0.03125 0.75 49.469-8.875 0.53125 0.1875 0.0312-0.0625-8.25-54.25 0.0937-0.34375h0.0001z" fill="url(#linearGradient3730)" id="SVGCleanerId_18"/>
  <path d="m128.56-125.12c0.2342 0.92795 0.46352 1.7416 0.6875 2.375l-11.656 44.656 0.0937-0.0312 51.812 17.375 11.188-52.969c-0.35691 0.12314-0.69529 0.24538-1 0.375l-51.125-11.781 0.00005-0.00005z" fill="url(#linearGradient3732)" id="SVGCleanerId_19"/>
  <path d="m125.53-23.5-11.03 48.5s5.5 0.5 22.5 6.25c2.125 0.71875 4.1631 1.4058 6.125 2.0312 1.9619 0.62549 3.8555 1.1856 5.625 1.7188 10.617 3.1992 17.5 4.75 17.5 4.75l12.719-45.406c-0.51226 0.18264-1.0185 0.381-1.5312 0.5625l-51.91-18.406z" fill="url(#linearGradient3734)" id="SVGCleanerId_20"/>
  <path d="m218-76c-15.666 6.288-31.698 11.15-48.062 15.406l-0.44-0.156 9.5 55-0.0312 0.0937c17.839-6.3601 35.381-13.387 52.781-20.844 0 0-0.5-4.5-3.75-19.75s-10-29.75-10-29.75z" fill="url(#linearGradient3736)" id="SVGCleanerId_21"/>
  <path d="m13.719-179.97c-1.1062-0.003-1.9722 0.0321-2.7188 0.0625-0.44524 0.0181-0.85541 0.039-1.1562 0.0625-0.02929 0.002-0.06595-0.002-0.09375 0-0.39795 0.0327-0.65625 0.0625-0.75 0.0937 0 0 7.5 13 11.75 27.75s6.25 25.5 6.25 25.5l51.469 5.125 0.9375-0.0625 0.094-0.31c-2.2202-15.48-9.0677-30.046-14.25-44.75 0 0-18.5-9-31.5-11.5-1.0183-0.19582-2.0102-0.37068-3-0.53125-0.59561-0.0967-1.1669-0.19638-1.75-0.28125-0.23658-0.0344-0.45319-0.0612-0.6875-0.0937-1.3065-0.18185-2.588-0.34039-3.8125-0.46875-0.73455-0.077-1.3946-0.12759-2.0938-0.1875-0.68489-0.0591-1.3529-0.11189-2-0.15625-0.99187-0.0678-1.8904-0.11834-2.7812-0.15625-1.4564-0.0631-2.7692-0.0907-3.9062-0.0937v-0.0001z" fill="url(#linearGradient3738)" id="SVGCleanerId_22"/>
  <path d="m13-78.75s5.75 16 9.25 30 3.75 24.25 3.75 24.25l48.969 9.875 0.75-0.125 0.031-0.75-12.25-46.5 0.125-0.469-50.625-16.281z" fill="url(#linearGradient3740)" id="SVGCleanerId_23"/>
  <path d="m127.44-125.38-47.969 4h-0.0625l-15.781 58.906 0.34375 0.09375 53.625-15.719 11.65-44.651c-0.22398-0.63337-0.4533-1.447-0.6875-2.375l-1.125-0.25z" fill="url(#linearGradient3742)" id="SVGCleanerId_24"/>
  <path d="m125.19-23.625-49.471 8.875-1.469 52.5s12.75-2.75 24-6.25 16.25-6.5 16.25-6.5l11.219-48.438-0.53125-0.1875z" fill="url(#linearGradient3744)" id="SVGCleanerId_25"/>
  <path d="m114.75-180.25c6.0165 0.53311 10.45 41.802 13.812 55.125l51.125 11.781c0.30471-0.12962 0.64309-0.25186 1-0.375l0.07-0.28c-2.8132-6.8575-9.326-53.608-14.25-52.25 0 0-0.61328-0.25391-1.7188-0.71875-3.3164-1.3945-11.094-4.5938-20.281-7.7812-12.25-4.25-29.75-5.5-29.75-5.5z" fill="url(#linearGradient3746)" id="SVGCleanerId_26"/>
  <path d="m117.69-78.125-0.0937 0.0312-0.0937 0.34375 8.25 53.25-0.21875 1 51.906 18.406c0.51276-0.1815 1.019-0.37986 1.5312-0.5625l0.02-0.0935-9.5-55-51.812-17.375z" fill="url(#linearGradient3748)" id="SVGCleanerId_27"/>
  <path d="m231.75-26.5c-17.4 7.457-34.942 14.484-52.781 20.844l-12.72 45.406s13-2.75 26-5.75 26.5-8 26.5-8-0.75-5 4.25-24.5 8.75-28 8.75-28z" fill="url(#linearGradient3750)" id="SVGCleanerId_28"/>
  <path d="m235-126.5c-3.102 8.0136-42.505 8.7075-54.312 12.781l-11.19 52.97 0.4375 0.15625c16.36-4.256 32.39-9.118 48.06-15.406 0 0 1.75-10.5 6.75-23.75s10.25-26.75 10.25-26.75z" fill="url(#linearGradient3752)" id="SVGCleanerId_29"/>
 </defs>
 <rect rx="6.857" y="956.36" clip-path="url(#clipPath3018)" fill="url(#linearGradient3085)" height="96" width="96" transform="matrix(1 0 0 1 0 -956.36)"/>
 <g transform="matrix(1.0624 0 0 1.0624 -88.5 -9.06)">
  <use xlink:href="#SVGCleanerId_0" filter="url(#filter8661)" opacity="0.7" transform="matrix(0.25094 0.01722 0 0.21297 97.7 31.806)"/>
  <path d="m9 17.25s7.5 11 11.75 25.75 6.25 25.5 6.25 25.5-5.5 12.75-8.25 24.75-5.75 25-5.75 25 5.75 16 9.25 30 3.75 22.25 3.75 22.25-4 10.25-7.5 24.25-5 30.75-5 30.75 9.25-2 28.5 1.25 32.25 6 32.25 6 12.75-2.75 24-6.25 16.25-6.5 16.25-6.5 5.5 0.5 22.5 6.25 29.25 8.5 29.25 8.5 13-2.75 26-5.75 26.5-8 26.5-8-0.75-5 4.25-24.5 8.75-28 8.75-28-0.5-2.5-3.75-17.75-10-29.75-10-29.75 1.75-12.5 6.75-25.75 10.25-26.75 10.25-26.75-4.75-15.25-7.5-29.75-8.25-23.75-8.25-23.75-24.25 9-31.75 10.5-21 5.25-21 5.25-9.75-4.25-22-8.5-29.75-5.5-29.75-5.5-3.25 3.5-22 8-27.5 5.75-27.5 5.75-18.5-9-31.5-11.5-24-2-24.75-1.75z" fill="url(#linearGradient3718)" filter="url(#filter8725)" opacity="0.5" transform="matrix(0.25094 0 0 0.21244 97.7 31.993)"/>
  <use xlink:href="#SVGCleanerId_1" fill="#ceeeab"/>
  <g clip-path="url(#clipPath5466-2-3)" transform="matrix(0.25094 0 0 0.25094 97.7 22.543)">
   <use xlink:href="#SVGCleanerId_3"/>
  </g>
  <path d="m137.48 43.959c-1.1944-0.0036-2.2663 0.2431-2.8937 0.79204-2.0075 1.7566-8.783 0.18821-12.171 1.7566-3.3877 1.5684-3.325 9.5358-3.7014 11.167-0.37642 1.6311-4.3915 5.2071-5.0189 5.8972-0.62735 0.69009-3.325 1.8193-4.8934 2.133-1.5684 0.31368-3.1995 1.8193-3.8896 2.7604-0.50719 0.69162-1.8585 1.6187-2.5408 2.0624-0.0115 0.04549-0.0199 0.0875-0.0314 0.13331-0.0336 0.13419-0.062 0.27185-0.0941 0.40778 1.2496-0.40272 2.8054-2.0526 4.1719-3.4191 1.5684-1.5684 5.0188-1.9448 6.9637-2.8858 1.9448-0.94104 3.5759-4.9561 6.65-5.9599 3.074-1.0038 5.3325 2.9486 6.0854 4.6424 0.75283 1.6939 0.43915 3.1995 0.94104 4.266 0.50188 1.0665 2.7604 2.9486 2.8858 3.3877 0.12547 0.43915-1.2547 1.6311-1.5684 2.133-0.31367 0.50188-2.6349 1.7566-2.9486 2.1957-0.24233 0.33926-0.4826 1.6997-0.5803 2.3134 0.10364-0.04246 0.18925-0.07793 0.28231-0.11763 0.12145-0.63472 0.3803-1.7762 0.73714-2.133 0.50189-0.50188 2.8231-1.1292 3.1368-2.133 0.31368-1.0038 1.7566-1.6311 1.7566-1.6311s0.69009 1.0038 4.0151 3.5132c2.2167 1.673 3.2016 3.898 3.6151 5.1992 0.16904 0.04282 0.38469 0.10274 0.50973 0.13331-0.30644-1.0837-1.2137-4.075-2.2428-5.2071-1.2547-1.3802-4.6424-2.6976-5.7089-5.5207s-6.1481-8.5948-4.3915-10.1c1.7566-1.5057 4.1406-1.0038 7.1519 1.8821 3.0113 2.8858 11.606 1.4429 14.492 0.94104 2.498-0.43444 5.2282 3.7348 5.9991 6.5324 0.1478-0.52589 0.28272-1.0043 0.41562-1.4429-0.43615-0.48327-0.92779-1.1593-1.3331-2.0781-0.94104-2.133-3.0113-3.325-3.0113-3.325s2.1958-1.2547 3.7014-1.9448c0.40578-0.18598 0.7544-0.42086 1.0508-0.66657-0.0407-0.19424-0.065-0.31515-0.10978-0.52541-0.008-0.03666-0.0156-0.07316-0.0235-0.10979-1.1959 1.3958-4.8262 2.4129-5.4345 2.7447-0.6901 0.37641-4.5797 0.75283-8.9712 1.1292-4.3915 0.37641-6.7127-1.8821-8.5948-3.7014s-3.2622-9.0339-0.75282-9.5358c2.5094-0.50189 5.0188 3.4505 7.5283 4.266 2.5094 0.81556 5.3953-3.9523 4.9561-6.7755-0.30191-1.9409-3.5125-3.1681-6.1402-3.176h-0.00001zm-13.386 3.3328c0.32003 0.000376 1.4704 0.39994 1.6468 0.59599 0.56462 0.62736 0.50188 1.8193 0 2.0075-0.50189 0.18821-3.1995 2.0075-2.6349 3.5759 0.56462 1.5684 0.43915 4.517-0.8783 4.517s-2.0075 0-2.5094-0.62736c-0.50189-0.62736-0.50189-3.0113 0-4.9561 0.50188-1.9448 0.8783-3.7641 2.0075-4.5797 0.77635-0.5607 1.6642-0.5341 2.3683-0.53325zm3.4112 18.342c0.051 0.0034 0.47836 0.88222 1.1841 1.7644 0.75283 0.94104 0.81557 2.0703 0.81557 2.0703s-1.0665-1.192-1.5057-2.0075c-0.43915-0.81556-0.50188-1.8193-0.50188-1.8193 0-0.0078 0.004-0.0081 0.008-0.0078l0.00001-0.000012z" fill="#aac3e7"/>
  <path d="m128.5 40.673c1.5684 0.12547 3.074-0.56462 2.6976-1.6311-0.37641-1.0665-3.1368-1.8193-3.325-0.75283-0.18821 1.0665 0.50188 2.6349 0.62736 2.384z" stroke-width="0.251" fill="none" stroke="#6d7f42" opacity="0.387" stroke-linecap="round" stroke-linejoin="round"/>
  <path d="m124.99 36.784c-2.133-1.3802-2.133-1.8193-1.7566-2.0075 0.37642-0.18821 2.5722 1.2547 3.1995 2.0075 0.62736 0.75283-0.56462 0.50188-1.4429 0z" stroke-width="0.251" fill="none" stroke="#6d7f42" opacity="0.387" stroke-linecap="round" stroke-linejoin="round"/>
  <g clip-path="url(#clipPath5466-2-3)" transform="matrix(0.25094 0 0 0.25094 97.7 22.543)">
   <use xlink:href="#SVGCleanerId_4"/>
   <use xlink:href="#SVGCleanerId_5"/>
   <use xlink:href="#SVGCleanerId_6"/>
   <use xlink:href="#SVGCleanerId_7"/>
   <use xlink:href="#SVGCleanerId_8"/>
   <use xlink:href="#SVGCleanerId_9"/>
   <use xlink:href="#SVGCleanerId_10"/>
   <use xlink:href="#SVGCleanerId_11"/>
  </g>
  <g clip-path="url(#clipPath5466-2-3)" transform="matrix(0.25094 0 0 0.25094 97.7 22.543)">
   <use xlink:href="#SVGCleanerId_12"/>
   <use xlink:href="#SVGCleanerId_13"/>
  </g>
  <use xlink:href="#SVGCleanerId_1" fill="url(#linearGradient3901)" opacity="0.039"/>
  <g opacity="0.27" transform="matrix(0.25094 0 0 0.25094 97.7 70.72)">
   <use xlink:href="#SVGCleanerId_14"/>
   <use xlink:href="#SVGCleanerId_15"/>
   <use xlink:href="#SVGCleanerId_16"/>
   <use xlink:href="#SVGCleanerId_17"/>
   <use xlink:href="#SVGCleanerId_18"/>
   <use xlink:href="#SVGCleanerId_19"/>
   <use xlink:href="#SVGCleanerId_20"/>
   <use xlink:href="#SVGCleanerId_21"/>
  </g>
  <g opacity="0.043" transform="matrix(0.25094 0 0 0.25094 97.7 70.72)">
   <use xlink:href="#SVGCleanerId_22"/>
   <use xlink:href="#SVGCleanerId_23"/>
   <use xlink:href="#SVGCleanerId_24"/>
   <use xlink:href="#SVGCleanerId_25"/>
   <use xlink:href="#SVGCleanerId_26"/>
   <use xlink:href="#SVGCleanerId_27"/>
   <use xlink:href="#SVGCleanerId_28"/>
   <use xlink:href="#SVGCleanerId_29"/>
  </g>
  <g clip-path="url(#clipPath8617)" transform="matrix(0.31431 0.00888 0 0.31431 90.72 12.92)">
   <use xlink:href="#SVGCleanerId_2" fill="#ceeeab"/>
   <g clip-path="url(#clipPath5466-2-3)">
    <use xlink:href="#SVGCleanerId_3"/>
   </g>
   <path d="m158.53 85.344c-4.76-0.015-9.03 0.968-11.53 3.156-8 7-35 0.75-48.5 7s-13.25 38-14.75 44.5-17.5 20.75-20 23.5-13.25 7.25-19.5 8.5-12.75 7.25-15.5 11c-2.0211 2.7561-7.406 6.4503-10.125 8.2188-0.0458 0.18128-0.07936 0.34868-0.125 0.53125-0.13369 0.53475-0.24712 1.0833-0.375 1.625 4.9795-1.6048 11.18-8.1795 16.625-13.625 6.25-6.25 20-7.75 27.75-11.5s14.25-19.75 26.5-23.75 21.25 11.75 24.25 18.5 1.75 12.75 3.75 17 11 11.75 11.5 13.5-5 6.5-6.25 8.5-10.5 7-11.75 8.75c-0.96568 1.352-1.9232 6.7731-2.3125 9.2188 0.41303-0.1692 0.75418-0.31053 1.125-0.46875 0.484-2.5293 1.5155-7.078 2.9375-8.5 2-2 11.25-4.5 12.5-8.5s7-6.5 7-6.5 2.75 4 16 14c8.8333 6.6667 12.758 15.534 14.406 20.719 0.6736 0.17065 1.533 0.4094 2.0312 0.53125-1.2212-4.3187-4.8365-16.239-8.9375-20.75-5-5.5-18.5-10.75-22.75-22s-24.5-34.25-17.5-40.25 16.5-4 28.5 7.5 46.25 5.75 57.75 3.75c9.9545-1.7312 20.834 14.883 23.906 26.031 0.589-2.0957 1.1266-4.0022 1.6562-5.75-1.7381-1.9258-3.6972-4.62-5.3125-8.2812-3.75-8.5-12-13.25-12-13.25s8.75-5 14.75-7.75c1.617-0.74114 3.0063-1.6771 4.1875-2.6562-0.16234-0.77403-0.25893-1.2558-0.4375-2.0938-0.0311-0.14611-0.062-0.29154-0.0937-0.4375-4.7656 5.5624-19.232 9.6153-21.656 10.938-2.75 1.5-18.25 3-35.75 4.5s-26.75-7.5-34.25-14.75-13-36-3-38 20 13.75 30 17 21.5-15.75 19.75-27c-1.2031-7.7344-13.997-12.625-24.469-12.656h-0.00005zm-53.34 13.281c1.2753 0.0015 5.8594 1.5938 6.5625 2.375 2.25 2.5 2 7.25 0 8s-12.75 8-10.5 14.25 1.75 18-3.5 18-8 0-10-2.5-2-12 0-19.75 3.5-15 8-18.25c3.0938-2.2344 6.6318-2.1284 9.4375-2.125zm13.594 73.094c0.20325 0.0137 1.9062 3.5156 4.7188 7.0312 3 3.75 3.25 8.25 3.25 8.25s-4.25-4.75-6-8-2-7.25-2-7.25c0-0.0312 0.0178-0.0323 0.0312-0.0312l0.00005-0.00005z" fill="#aac3e7"/>
   <path d="m122.75 72.25c6.25 0.5 12.25-2.25 10.75-6.5s-12.5-7.25-13.25-3 2 10.5 2.5 9.5z" fill="none" stroke="#6d7f42" opacity="0.387" stroke-linecap="round" stroke-linejoin="round"/>
   <path d="m108.75 56.75c-8.5-5.5-8.5-7.25-7-8s10.25 5 12.75 8-2.25 2-5.75 0z" fill="none" stroke="#6d7f42" opacity="0.387" stroke-linecap="round" stroke-linejoin="round"/>
   <g clip-path="url(#clipPath5466-2-3)">
    <use xlink:href="#SVGCleanerId_4"/>
    <use xlink:href="#SVGCleanerId_5"/>
    <use xlink:href="#SVGCleanerId_6"/>
    <use xlink:href="#SVGCleanerId_7"/>
    <use xlink:href="#SVGCleanerId_8"/>
    <use xlink:href="#SVGCleanerId_9"/>
    <use xlink:href="#SVGCleanerId_10"/>
    <use xlink:href="#SVGCleanerId_11"/>
   </g>
   <g clip-path="url(#clipPath5466-2-3)">
    <use xlink:href="#SVGCleanerId_12"/>
    <use xlink:href="#SVGCleanerId_13"/>
   </g>
   <use xlink:href="#SVGCleanerId_2" fill="url(#linearGradient3754)" opacity="0.039"/>
   <g opacity="0.27" transform="matrix(1 0 0 1 0 192)">
    <use xlink:href="#SVGCleanerId_14"/>
    <use xlink:href="#SVGCleanerId_15"/>
    <use xlink:href="#SVGCleanerId_16"/>
    <use xlink:href="#SVGCleanerId_17"/>
    <use xlink:href="#SVGCleanerId_18"/>
    <use xlink:href="#SVGCleanerId_19"/>
    <use xlink:href="#SVGCleanerId_20"/>
    <use xlink:href="#SVGCleanerId_21"/>
   </g>
   <g opacity="0.043" transform="matrix(1 0 0 1 0 192)">
    <use xlink:href="#SVGCleanerId_22"/>
    <use xlink:href="#SVGCleanerId_23"/>
    <use xlink:href="#SVGCleanerId_24"/>
    <use xlink:href="#SVGCleanerId_25"/>
    <use xlink:href="#SVGCleanerId_26"/>
    <use xlink:href="#SVGCleanerId_27"/>
    <use xlink:href="#SVGCleanerId_28"/>
    <use xlink:href="#SVGCleanerId_29"/>
   </g>
  </g>
  <use xlink:href="#SVGCleanerId_0" clip-path="url(#clipPath8750)" filter="url(#filter7286)" transform="matrix(0.25094 0.0203 0 0.25094 97.7 19.768)"/>
  <path d="m109.75 82.131-1.2064 1.1438c-1.2563-1.3338-2.5696-2.6867-3.784-4.0485l1.1268-1.022c1.7137 1.6397 2.2265 2.1405 3.8637 3.9267z" fill="url(#linearGradient3841)"/>
  <path d="m191.1 44.349c0-18.293 14.679-33.123 32.786-33.123 18.107 0.000001 32.786 14.83 32.786 33.123l-32.786 0.000001z" fill="#fefefe" transform="matrix(0.51907 0 0 -0.52996 25.328 69.39)"/>
  <path d="m256.68 44.349c0 18.293-14.679 33.123-32.786 33.123s-32.786-14.83-32.786-33.123v-0.000002l32.786 0.000002z" fill="#ef1100" transform="matrix(0.51907 0 0 -0.51264 25.27 69.05)"/>
  <path d="m129.08 58.85c-6.8206-6.8206-6.8206-17.879 0-24.7 6.8206-6.8206 17.879-6.8206 24.7 0 6.8206 6.8206 6.8206 17.879 0 24.7-6.8206 6.8206-17.879 6.8206-24.7 0zm0.74098-0.74099c6.5478 6.5478 16.917 6.7948 23.465 0.247 6.5478-6.5478 6.3008-16.917-0.247-23.465-6.5478-6.5478-16.917-6.7948-23.465-0.247-6.5478 6.5478-6.3008 16.917 0.24699 23.465z" fill="#2d3335"/>
  <path d="m129.08 58.85c-6.8206-6.8206-6.8206-17.879 0-24.7 0.0416-0.04156 0.0815-0.08252 0.1235-0.1235-6.6964 6.8301-6.6555 17.797 0.12349 24.576s17.746 6.8199 24.576 0.1235c-0.041 0.04196-0.0819 0.08193-0.1235 0.1235-6.8206 6.8206-17.879 6.8206-24.7 0zm0.61749-24.329c0.0408-0.04179 0.0821-0.08208 0.1235-0.1235 6.5478-6.5478 16.917-6.3008 23.465 0.247 6.5478 6.5478 6.7948 16.917 0.247 23.465-0.0414 0.04142-0.0817 0.0827-0.1235 0.1235 6.421-6.5541 6.1359-16.835-0.3705-23.341-6.5064-6.5064-16.787-6.7915-23.341-0.37049z" fill="#9eaaac"/>
  <path d="m126.82 53.98-1.4434 1.0266c0.82693 1.5591 1.898 3.0249 3.2109 4.3379 1.313 1.313 2.7788 2.384 4.3379 3.2109l1.0266-1.4434c-1.4872-0.7615-2.8843-1.7574-4.1295-3.0025-1.2451-1.2451-2.241-2.6422-3.0025-4.1295z" fill="url(#linearGradient3830)"/>
  <path d="m129.02 58.912c0.43392 0.43392 0.77389 0.92118 1.0343 1.4357l-6.5763 6.5763c-0.51448-0.2604-1.0017-0.60038-1.4357-1.0343-0.43392-0.43392-0.7739-0.92118-1.0343-1.4357l6.5763-6.5763c0.51448 0.2604 1.0018 0.60037 1.4357 1.0343z" fill="url(#linearGradient3827)"/>
  <path d="m126.88 65.01-16.579 16.579c-0.99973-0.55003-1.4633-0.75294-2.3312-1.6208-0.86784-0.86784-1.0708-1.3314-1.6208-2.3312l16.579-16.579c1.2706 0.94054 3.0407 2.6093 3.9519 3.9519z" fill="url(#linearGradient3823)"/>
  <path d="m124.25 63.727c0.86784 0.86784 1.8657 1.6729 2.1379 2.7652l-16.085 16.085c-1.6352-1.2936-3.6524-3.2097-4.9399-4.9399l16.085-16.085c0.87622 0.05604 1.9219 1.2946 2.7898 2.1624l0.0123 0.01227z" fill="url(#linearGradient3820)"/>
  <path d="m124.18 63.788c0.86784 0.86784 1.9271 1.6115 2.1993 2.7038l-16.085 16.085c-1.9767-1.7334-2.9604-2.6661-4.9399-4.9399l16.085-16.085c0.87622 0.05604 1.8606 1.3682 2.7284 2.2361h0.0123z" fill="url(#linearGradient3816)" opacity="0.596"/>
  <path d="m129.58 58.284c6.5665 6.5478 17.213 6.5478 23.779 0 6.5665-6.5478 6.5665-17.164 0-23.712-6.5665-6.5478-17.213-6.5478-23.779 0-6.5665 6.5478-6.5665 17.164 0 23.712z" fill="url(#radialGradient3970)"/>
  <g transform="matrix(1 0 0 1 0 -0.072)">
   <path d="m130.62 34.349c10.203-8.0737 19.607-3.194 19.519 1.3308-0.0887 4.5248-14.195 17.656-19.164 16.591-4.9684-1.0647-6.388-13.397-0.35488-17.922z" fill="url(#linearGradient3958)" opacity="0.5"/>
   <path d="m152.77 57.446c-6.7238 5.5164-10.491 5.2716-9.5546 3.2969 0.93692-1.9747 10.621-10.453 12.91-10.978 2.2889-0.52522 0.57094 4.5273-3.3557 7.6814z" fill="url(#linearGradient3960)" opacity="0.4"/>
  </g>
 </g>
 <rect x="-96" rx="25" y="958.36" clip-path="url(#clipPath3009)" fill="#fff" height="92" opacity="0.15" width="92" transform="matrix(1 0 0 1 98 -956.36)"/>
</svg>
