<svg height="96" width="96" xmlns="http://www.w3.org/2000/svg" xmlns:sodipodi="http://sodipodi.sourceforge.net/DTD/sodipodi-0.dtd" xmlns:inkscape="http://www.inkscape.org/namespaces/inkscape">
 <defs>
  <linearGradient x1="20.967" x2="45.03" gradientUnits="userSpaceOnUse" id="linearGradient14947" inkscape:collect="always" gradientTransform="matrix(2.31542 -0.37341 0.355 2.20133 -39.32 944.9)">
   <stop stop-color="#666"/>
   <stop stop-color="#464646" offset="1"/>
  </linearGradient>
 </defs>
 <g inkscape:label="Layer 1" inkscape:groupmode="layer" transform="matrix(1 0 0 1 0 -956.36)">
  <rect x="8.302" rx="10.769" y="964.14" fill="#e6e6e6" fill-opacity="1" stroke="none" height="80" width="80"/>
  <path d="m 74.27009,1001.1176 c 1.960613,12.1575 -7.853172,23.8523 -21.919574,26.1208 -14.066401,2.2685 -27.059029,-5.7483 -29.019642,-17.9058 -1.960613,-12.15747 7.853172,-23.85224 21.919573,-26.12073 14.066402,-2.26848 27.05903,5.7483 29.019643,17.90573 z" stroke-width="4.725" fill="none" stroke="url(#linearGradient14947)" inkscape:connector-curvature="0"/>
  <path d="m 24.044163,1005.7358 c -3.171386,0 -5.742063,-2.5707 -5.742063,-5.74206 0,-3.17139 2.570677,-5.74207 5.742063,-5.74207 3.171386,0 5.742063,2.57068 5.742063,5.74207 0,3.17126 -2.570766,5.74206 -5.742063,5.74206 z" fill="#7272be" fill-opacity="1" inkscape:connector-curvature="0"/>
  <path d="m 33.794336,1030.3656 c -3.171386,0 -5.742063,-2.5706 -5.742063,-5.742 0,-3.1714 2.570677,-5.7421 5.742063,-5.7421 3.171386,0 5.742063,2.5707 5.742063,5.7421 0,3.1713 -2.570766,5.742 -5.742063,5.742 z" fill="#7272be" fill-opacity="1" inkscape:connector-curvature="0"/>
  <path d="m 63.286968,1028.1438 c -3.171386,0 -5.742063,-2.5706 -5.742063,-5.742 0,-3.1714 2.570677,-5.7421 5.742063,-5.7421 3.171386,0 5.742063,2.5707 5.742063,5.7421 0,3.1713 -2.570766,5.742 -5.742063,5.742 z" fill="#7272be" fill-opacity="1" inkscape:connector-curvature="0"/>
  <path d="m 46.876326,988.61171 c -3.171386,0 -5.742063,-2.57068 -5.742063,-5.74206 0,-3.17139 2.570677,-5.74207 5.742063,-5.74207 3.171386,0 5.742063,2.57068 5.742063,5.74207 0,3.17129 -2.570766,5.74206 -5.742063,5.74206 z" fill="#7272be" fill-opacity="1" inkscape:connector-curvature="0"/>
  <path d="m 72.560037,1001.4545 c -3.171386,0 -5.742063,-2.57066 -5.742063,-5.74204 0,-3.17139 2.570677,-5.74207 5.742063,-5.74207 3.171386,0 5.742063,2.57068 5.742063,5.74207 0,3.17129 -2.570766,5.74204 -5.742063,5.74204 z" fill="#7272be" fill-opacity="1" inkscape:connector-curvature="0"/>
 </g>
</svg>
