<svg height="96" width="96" xmlns="http://www.w3.org/2000/svg" xmlns:sodipodi="http://sodipodi.sourceforge.net/DTD/sodipodi-0.dtd" xmlns:inkscape="http://www.inkscape.org/namespaces/inkscape">
 <g inkscape:label="Layer 1" inkscape:groupmode="layer" transform="matrix(1 0 0 1 0 -956.36)">
  <rect x="8.302" rx="10.769" y="964.14" fill="#e6e6e6" fill-opacity="1" stroke="none" height="80" width="80"/>
  <g transform="matrix(0.76857 0 0 0.76857 -2.578 235.07)">
   <rect x="68.787" stroke-width="2" rx="6.785" y="1002.45" fill="#aa0000" stroke="#800000" height="35.447" width="35.447"/>
   <rect x="28.17" stroke-width="2" rx="6.785" y="1002.45" fill="#aa0000" stroke="#800000" height="35.447" width="35.447"/>
   <path d="m 78.623363,962.39046 -2.2701,3.0539 c -26.873,20.572 -31.051,37.16504 -34.182,39.17404 1.7128,1.6854 3.8567,1.3994 6.5972,0.6644 -4.5144,-2.4616 8.9951,-22.054 26.262,-36.112 -3.7381,13.165 13.55,33.506 9.0948,36.589 2.6326,0.7211 4.1028,0.8619 5.9553,-1.0554 0.3381,-2.5178 -15.97,-23.285 -12.775,-36.364 l 3.8595,-4.5857 z" fill="#4e9a06" stroke="none" inkscape:connector-curvature="0"/>
  </g>
 </g>
</svg>
