<svg height="96" width="96" xmlns="http://www.w3.org/2000/svg" xmlns:sodipodi="http://sodipodi.sourceforge.net/DTD/sodipodi-0.dtd" xmlns:inkscape="http://www.inkscape.org/namespaces/inkscape">
 <g inkscape:label="Layer 1" inkscape:groupmode="layer" transform="matrix(1 0 0 1 -0.249 -956.14)">
  <rect x="8.751" rx="10.769" y="964.14" fill="#cccccc" fill-opacity="1" stroke="none" height="80" width="80"/>
  <g fill="#1a1a1a" fill-opacity="1" stroke="none">
   <path d="m 29.836,1030.5782 c 3.335997,0 5.304001,-1.296 6.36,-2.352 l 0,-6.648 -6.6,0 0,1.632 4.728,0 0,4.392 c -0.935999,0.768 -2.472001,1.224 -3.744,1.224 -1.391999,0 -2.376001,-0.288 -3.408,-0.888 -1.823998,-1.056 -3.168,-3.168 -3.168,-5.928 0,-2.544 0.912002,-4.488 2.88,-5.784 0.983999,-0.648 2.112001,-0.984 3.336,-0.984 1.415999,0 3.312001,0.552 4.488,1.176 l 0.792,-1.488 c -1.607998,-0.888 -3.264002,-1.416 -5.472,-1.416 -1.559998,0 -2.952001,0.36 -4.2,1.104 -2.279998,1.344 -4.008,4.056 -4.008,7.56 0,4.824 3.528004,8.4 8.016,8.4" inkscape:connector-curvature="0"/>
   <path d="m 39.915625,1013.7062 0,16.656 1.992,0 0,-16.656 -1.992,0" inkscape:connector-curvature="0"/>
   <path d="m 46.3525,1013.7062 0,16.656 1.992,0 0,-13.8 5.112,9.024 1.992,0 5.112,-9.024 0,13.8 1.992,0 0,-16.656 -2.616,0 -5.448,10.104 -5.328,-10.104 -2.808,0" inkscape:connector-curvature="0"/>
   <path d="m 70.777375,1021.7222 c -0.623999,0 -1.344001,-0.024 -2.136,-0.096 l 0,-6.168 2.16,0 c 1.079999,0 1.776,0.024 2.088,0.072 1.655998,0.168 2.784,1.176 2.784,2.976 0,2.928 -2.184003,3.216 -4.896,3.216 m 6.912,-3.048 c 0,-2.352 -1.152002,-4.008 -3.096,-4.656 -0.408,-0.12 -0.888002,-0.312 -2.712,-0.312 l -5.232,0 0,16.656 1.992,0 0,-6.96 c 0.695999,0.048 1.368001,0.072 1.992,0.072 1.391999,0 3.096001,-0.168 3.96,-0.456 1.775998,-0.6 3.024,-2.136 3.096,-4.344" inkscape:connector-curvature="0"/>
  </g>
  <path d="m 19.53125,7.78125 c -5.966154,0 -10.78125,4.783846 -10.78125,10.75 l 0,33.21875 15.84375,0 0,-43.96875 -5.0625,0 z" fill="#e74c3c" fill-opacity="1" stroke="none" inkscape:connector-curvature="0" transform="matrix(1 0 0 1 0 956.36)"/>
  <path d="m 24.59375,7.78125 0,43.6875 c 0,0.158395 0.122855,0.28125 0.28125,0.28125 l 16.34375,0 C 41.377145,51.75 41.5,51.627145 41.5,51.46875 l 0,-43.6875 -16.90625,0 z" fill="#f39c12" fill-opacity="1" stroke="none" inkscape:connector-curvature="0" transform="matrix(1 0 0 1 0 956.36)"/>
  <path d="m 41.5,7.78125 0,43.96875 16.90625,0 0,-43.96875 -16.90625,0 z" fill="#f1c40f" fill-opacity="1" stroke="none" inkscape:connector-curvature="0" transform="matrix(1 0 0 1 0 956.36)"/>
  <path d="m 57.5625,7.78125 0,43.96875 16.90625,0 0,-43.96875 -16.90625,0 z" fill="#2ecc71" fill-opacity="1" stroke="none" inkscape:connector-curvature="0" transform="matrix(1 0 0 1 0 956.36)"/>
  <path d="m 74.46875,7.78125 0,43.96875 14.28125,0 0,-33.21875 c 0,-5.966154 -4.815096,-10.75 -10.78125,-10.75 l -3.5,0 z" fill="#3498db" fill-opacity="1" stroke="none" inkscape:connector-curvature="0" transform="matrix(1 0 0 1 0 956.36)"/>
  <path d="m 7.7459125,1008.1958 80.9449795,-0.087 c -40.702265,-2.4555 -57.686331,-0.7847 -80.9449795,0.087 z" fill="#000000" fill-opacity="1" stroke="none" opacity="0.5" sodipodi:nodetypes="ccc" inkscape:connector-curvature="0"/>
 </g>
</svg>
