<?xml version="1.0" encoding="UTF-8" standalone="no"?>
<!-- Created with Inkscape (http://www.inkscape.org/) -->

<svg
   xmlns:dc="http://purl.org/dc/elements/1.1/"
   xmlns:cc="http://creativecommons.org/ns#"
   xmlns:rdf="http://www.w3.org/1999/02/22-rdf-syntax-ns#"
   xmlns:svg="http://www.w3.org/2000/svg"
   xmlns="http://www.w3.org/2000/svg"
   xmlns:xlink="http://www.w3.org/1999/xlink"
   xmlns:sodipodi="http://sodipodi.sourceforge.net/DTD/sodipodi-0.dtd"
   xmlns:inkscape="http://www.inkscape.org/namespaces/inkscape"
   id="svg11037"
   height="96"
   width="96"
   version="1.1"
   inkscape:version="0.48.5 r10040"
   sodipodi:docname="glade.svg">
  <sodipodi:namedview
     pagecolor="#ffffff"
     bordercolor="#666666"
     borderopacity="1"
     objecttolerance="10"
     gridtolerance="10"
     guidetolerance="10"
     inkscape:pageopacity="0"
     inkscape:pageshadow="2"
     inkscape:window-width="640"
     inkscape:window-height="480"
     id="namedview1742" />
  <defs
     id="defs11039">
    <linearGradient
       id="linearGradient11642"
       y2="1046.1"
       gradientUnits="userSpaceOnUse"
       y1="962.62"
       gradientTransform="matrix(1.15 0 0 1.15 -7.1999 -150.65)"
       x2="48"
       x1="48">
      <stop
         id="stop3702-380"
         style="stop-color:#4885bd"
         offset="0" />
      <stop
         id="stop3704-4"
         style="stop-color:#91b5d7"
         offset="1" />
    </linearGradient>
    <linearGradient
       id="linearGradient3710-5"
       y2="11.5"
       xlink:href="#linearGradient3704"
       gradientUnits="userSpaceOnUse"
       x2="69"
       gradientTransform="matrix(1.3572,0,0,1,-5.572,13)"
       y1="11.5"
       x1="10" />
    <linearGradient
       id="linearGradient3704">
      <stop
         id="stop3706-0"
         style="stop-color:#fff;stop-opacity:0"
         offset="0" />
      <stop
         id="stop3714-6"
         style="stop-color:#fff"
         offset=".15" />
      <stop
         id="stop3716"
         style="stop-color:#fff"
         offset=".7" />
      <stop
         id="stop3708-5"
         style="stop-color:#fff;stop-opacity:0"
         offset="1" />
    </linearGradient>
    <linearGradient
       id="linearGradient7809"
       x1="10"
       xlink:href="#linearGradient3704"
       gradientUnits="userSpaceOnUse"
       y1="11.5"
       gradientTransform="matrix(1.0007 0 0 .83642 5.9933 -25.119)"
       x2="69"
       y2="11.5" />
    <linearGradient
       id="linearGradient7811"
       x1="10"
       xlink:href="#linearGradient3704"
       gradientUnits="userSpaceOnUse"
       y1="11.5"
       gradientTransform="matrix(.99976 0 0 .83079 7.0024 -90.054)"
       x2="69"
       y2="11.5" />
    <linearGradient
       id="linearGradient7813"
       x1="10"
       xlink:href="#linearGradient3704"
       gradientUnits="userSpaceOnUse"
       y1="11.5"
       gradientTransform="matrix(1.1017,0,0,1,-96.017,-86)"
       x2="69"
       y2="11.5" />
    <linearGradient
       id="linearGradient7815"
       x1="10"
       xlink:href="#linearGradient3704"
       gradientUnits="userSpaceOnUse"
       y1="11.5"
       gradientTransform="matrix(1.2301,0,0,1,-2.3012,21)"
       x2="69"
       y2="11.5" />
    <linearGradient
       id="linearGradient7831"
       x1="38"
       xlink:href="#linearGradient4232-2"
       gradientUnits="userSpaceOnUse"
       x2="78"
       y1="41"
       y2="41" />
    <linearGradient
       id="linearGradient4232-2">
      <stop
         id="stop4234-7"
         style="stop-color:#fff"
         offset="0" />
      <stop
         id="stop4236-4"
         style="stop-color:#fff;stop-opacity:0"
         offset="1" />
    </linearGradient>
    <linearGradient
       id="linearGradient7823"
       x1="38"
       xlink:href="#linearGradient4232-2"
       gradientUnits="userSpaceOnUse"
       x2="89"
       y1="41"
       y2="41" />
    <linearGradient
       id="linearGradient7843"
       x1="36"
       xlink:href="#linearGradient4232-2"
       gradientUnits="userSpaceOnUse"
       x2="89"
       y1="51.314"
       y2="51" />
    <linearGradient
       id="linearGradient6961"
       x1="66"
       gradientUnits="userSpaceOnUse"
       y1="84"
       gradientTransform="matrix(.89783 0 0 .89783 103.59 998.66)"
       x2="66"
       y2="55">
      <stop
         id="stop4327-2"
         style="stop-color:#d88215"
         offset="0" />
      <stop
         id="stop4329"
         style="stop-color:#efc259"
         offset="1" />
    </linearGradient>
    <linearGradient
       id="linearGradient6963"
       y2="115.49"
       gradientUnits="userSpaceOnUse"
       y1="115.49"
       x2="149.53"
       x1="136.41">
      <stop
         id="stop3487-2"
         style="stop-color:#e6605b"
         offset="0" />
      <stop
         id="stop3489-47"
         style="stop-color:#f08682"
         offset="1" />
    </linearGradient>
    <filter
       id="filter3495"
       height="1.3333"
       width="1.8571"
       y="-.16667"
       x="-.42857"
       color-interpolation-filters="sRGB">
      <feGaussianBlur
         id="feGaussianBlur3497"
         stdDeviation="0.55242721" />
    </filter>
    <filter
       id="filter3509"
       height="1.3534"
       width="1.3669"
       y="-.17668"
       x="-.18344"
       color-interpolation-filters="sRGB">
      <feGaussianBlur
         id="feGaussianBlur3511"
         stdDeviation="0.65925" />
    </filter>
    <linearGradient
       id="linearGradient6965"
       x1="137.41"
       xlink:href="#linearGradient3339"
       gradientUnits="userSpaceOnUse"
       y1="116.47"
       gradientTransform="matrix(1.0894,0,0,1,-13.276,0)"
       x2="148.53"
       y2="116.47" />
    <linearGradient
       id="linearGradient3339">
      <stop
         id="stop3560"
         offset="0" />
      <stop
         id="stop3347-75"
         style="stop-opacity:.49804"
         offset=".7" />
      <stop
         id="stop3343-4"
         style="stop-opacity:0"
         offset="1" />
    </linearGradient>
    <linearGradient
       id="linearGradient6967"
       x1="136"
       gradientUnits="userSpaceOnUse"
       y1="60"
       gradientTransform="translate(-23.733)"
       x2="150"
       y2="60">
      <stop
         id="stop3280"
         offset="0" />
      <stop
         id="stop3290"
         style="stop-color:#282828"
         offset=".25" />
      <stop
         id="stop3286-8"
         style="stop-color:#3c3c3c"
         offset=".3" />
      <stop
         id="stop3288-1"
         style="stop-color:#646464"
         offset=".7" />
      <stop
         id="stop3292-2"
         style="stop-color:#787878"
         offset=".75" />
      <stop
         id="stop3282"
         style="stop-color:#a0a0a0"
         offset="1" />
    </linearGradient>
    <linearGradient
       id="linearGradient6969"
       x1="143"
       gradientUnits="userSpaceOnUse"
       y1="0.0000024"
       gradientTransform="translate(-23.733)"
       x2="143"
       y2="120.02">
      <stop
         id="stop3256"
         offset="0" />
      <stop
         id="stop3266-9"
         offset=".065884" />
      <stop
         id="stop3264-3"
         style="stop-color:#ad5f1b"
         offset=".07" />
      <stop
         id="stop3268-6"
         style="stop-color:#ad601a"
         offset=".19137" />
      <stop
         id="stop3262-8"
         offset=".20983" />
      <stop
         id="stop3258-0"
         offset="1" />
    </linearGradient>
    <linearGradient
       id="linearGradient6971"
       x1="141.25"
       gradientUnits="userSpaceOnUse"
       y1="4.9219"
       gradientTransform="translate(-23.733)"
       x2="144.81"
       y2="4.9219">
      <stop
         id="stop3396-2"
         offset="0" />
      <stop
         id="stop3402-1"
         style="stop-color:#7d7d7d"
         offset=".5" />
      <stop
         id="stop3398-0"
         offset="1" />
    </linearGradient>
    <linearGradient
       id="linearGradient6973"
       x1="136.99"
       gradientUnits="userSpaceOnUse"
       y1="17.043"
       gradientTransform="translate(-23.733)"
       x2="149"
       y2="17.043">
      <stop
         id="stop3310-5"
         style="stop-color:#da8539"
         offset="0" />
      <stop
         id="stop3312-1"
         style="stop-color:#fadfc7"
         offset="1" />
    </linearGradient>
    <linearGradient
       id="linearGradient6975"
       x1="146.11"
       xlink:href="#linearGradient4232-2"
       gradientUnits="userSpaceOnUse"
       y1="118.94"
       gradientTransform="matrix(1,0,0,1.2654,-23.733,-54.364)"
       x2="146.08"
       y2="66" />
    <linearGradient
       id="linearGradient6977"
       x1="146.11"
       xlink:href="#linearGradient4232-2"
       gradientUnits="userSpaceOnUse"
       y1="118.94"
       gradientTransform="matrix(1,0,0,1.2654,-29.858,-54.364)"
       x2="146.08"
       y2="66" />
    <filter
       id="filter3382"
       height="1.2274"
       width="1.8632"
       y="-.11371"
       x="-.43161"
       color-interpolation-filters="sRGB">
      <feGaussianBlur
         id="feGaussianBlur3384"
         stdDeviation="0.73914765" />
    </filter>
    <filter
       id="filter3390"
       height="1.2988"
       width="2.2196"
       y="-.1494"
       x="-.60980"
       color-interpolation-filters="sRGB">
      <feGaussianBlur
         id="feGaussianBlur3392"
         stdDeviation="0.77812506" />
    </filter>
    <linearGradient
       id="linearGradient6979"
       y2="106"
       gradientUnits="userSpaceOnUse"
       y1="106"
       x2="150"
       x1="136">
      <stop
         id="stop3403-6"
         style="stop-color:#404040"
         offset="0" />
      <stop
         id="stop3447"
         style="stop-color:#808080"
         offset=".2" />
      <stop
         id="stop3410-4"
         style="stop-color:#efefef"
         offset=".7" />
      <stop
         id="stop3405-6"
         style="stop-color:#dcdcdc"
         offset="1" />
    </linearGradient>
    <linearGradient
       id="linearGradient6981"
       y2="106"
       gradientUnits="userSpaceOnUse"
       y1="106"
       x2="150"
       x1="136">
      <stop
         id="stop3463"
         style="stop-color:#444542"
         offset="0" />
      <stop
         id="stop3465-2"
         style="stop-color:#71746e"
         offset="1" />
    </linearGradient>
    <linearGradient
       id="linearGradient6983"
       x1="142.96"
       xlink:href="#linearGradient3339"
       spreadMethod="reflect"
       gradientUnits="userSpaceOnUse"
       y1="98.951"
       gradientTransform="translate(.042252 1.5494)"
       x2="148.96"
       y2="98.951" />
    <linearGradient
       id="linearGradient6985"
       x1="142.96"
       xlink:href="#linearGradient3355-2"
       spreadMethod="reflect"
       gradientUnits="userSpaceOnUse"
       y1="98.951"
       gradientTransform="translate(.042252 2.5494)"
       x2="148.96"
       y2="98.951" />
    <linearGradient
       id="linearGradient3355-2">
      <stop
         id="stop3357-84"
         style="stop-color:#fff"
         offset="0" />
      <stop
         id="stop3359-72"
         style="stop-color:#fff;stop-opacity:.49804"
         offset=".7" />
      <stop
         id="stop3361-4"
         style="stop-color:#fff;stop-opacity:0"
         offset="1" />
    </linearGradient>
    <linearGradient
       id="linearGradient6987"
       x1="142.96"
       xlink:href="#linearGradient3339"
       spreadMethod="reflect"
       gradientUnits="userSpaceOnUse"
       y1="98.951"
       gradientTransform="translate(.042252 3.5494)"
       x2="148.96"
       y2="98.951" />
    <linearGradient
       id="linearGradient6989"
       x1="142.96"
       xlink:href="#linearGradient3355-2"
       spreadMethod="reflect"
       gradientUnits="userSpaceOnUse"
       y1="98.951"
       gradientTransform="translate(.042252 4.5494)"
       x2="148.96"
       y2="98.951" />
    <linearGradient
       id="linearGradient6991"
       x1="142.96"
       xlink:href="#linearGradient3339"
       spreadMethod="reflect"
       gradientUnits="userSpaceOnUse"
       y1="98.951"
       gradientTransform="translate(.042252 9.5494)"
       x2="148.96"
       y2="98.951" />
    <linearGradient
       id="linearGradient6993"
       x1="142.96"
       xlink:href="#linearGradient3355-2"
       spreadMethod="reflect"
       gradientUnits="userSpaceOnUse"
       y1="98.951"
       gradientTransform="translate(.042252 10.549)"
       x2="148.96"
       y2="98.951" />
    <linearGradient
       id="linearGradient6995"
       x1="142.96"
       xlink:href="#linearGradient3339"
       spreadMethod="reflect"
       gradientUnits="userSpaceOnUse"
       y1="98.951"
       gradientTransform="translate(.042252 11.549)"
       x2="148.96"
       y2="98.951" />
    <linearGradient
       id="linearGradient6997"
       x1="142.96"
       xlink:href="#linearGradient3355-2"
       spreadMethod="reflect"
       gradientUnits="userSpaceOnUse"
       y1="98.951"
       gradientTransform="translate(.042252 12.549)"
       x2="148.96"
       y2="98.951" />
    <linearGradient
       id="linearGradient6999"
       x1="137"
       spreadMethod="repeat"
       gradientUnits="userSpaceOnUse"
       y1="106"
       x2="139.03"
       y2="106">
      <stop
         id="stop3680"
         style="stop-color:#3d3d3d"
         offset="0" />
      <stop
         id="stop3443-9"
         style="stop-color:#fff"
         offset="1" />
    </linearGradient>
    <filter
       id="filter3451"
       height="1.2715"
       width="3.0699"
       y="-.13574"
       x="-1.035"
       color-interpolation-filters="sRGB">
      <feGaussianBlur
         id="feGaussianBlur3453"
         stdDeviation="0.9498173" />
    </filter>
    <filter
       id="filter3457"
       height="1.2754"
       width="2.8667"
       y="-.13770"
       x="-.93333"
       color-interpolation-filters="sRGB">
      <feGaussianBlur
         id="feGaussianBlur3459"
         stdDeviation="0.92807767" />
    </filter>
    <clipPath
       id="clipPath3009"
       clipPathUnits="userSpaceOnUse">
      <path
         id="path3011"
         style="opacity:.15;fill:#fff"
         d="m-2 956.36h-96v33.562l96 25.687v-59.25z" />
    </clipPath>
  </defs>
  <metadata
     id="metadata11042">
    <rdf:RDF>
      <cc:Work
         rdf:about="">
        <dc:format>image/svg+xml</dc:format>
        <dc:type
           rdf:resource="http://purl.org/dc/dcmitype/StillImage" />
        <dc:title />
      </cc:Work>
    </rdf:RDF>
  </metadata>
  <g
     id="layer1"
     transform="translate(0 -956.36)">
    <rect
       id="rect3867"
       style="fill:url(#linearGradient11642)"
       rx="25"
       ry="25"
       height="92"
       width="92"
       y="958.36"
       x="2" />
    <g
       id="g3219"
       transform="translate(0 .00218)">
      <g
         id="g3822"
         transform="matrix(.64286 0 0 .64286 17.143 973.11)">
        <path
           id="rect3679"
           style="opacity:.1;color:#000000;fill:#fff"
           d="m6 16v1h84v-1h-84zm0 16v1h84v-1h-84zm0 16v1h84v-1h-84zm0 16v1h84v-1h-84zm0 16v1h84v-1h-84z" />
        <path
           id="rect3689"
           style="opacity:.1;color:#000000;fill:#fff"
           d="m80 6h-1v84h1v-84zm-16 0h-1v84h1v-84zm-16 0h-1v84h1v-84zm-16 0h-1v84h1v-84zm-16 0h-1v84h1v-84z" />
      </g>
      <g
         id="layer3"
         transform="matrix(.66812 0 0 .66812 16.155 979.59)">
        <rect
           id="rect3702"
           style="opacity:.7;color:#000000;fill:url(#linearGradient3710-5)"
           height="1"
           width="80.075"
           y="24"
           x="8" />
        <rect
           id="rect3718"
           style="opacity:.7;color:#000000;fill:url(#linearGradient7809)"
           transform="rotate(90)"
           height=".83642"
           width="59.04"
           y="-15.918"
           x="16" />
        <rect
           id="rect3722"
           style="opacity:.7;color:#000000;fill:url(#linearGradient7811)"
           transform="rotate(90)"
           height=".83079"
           width="58.986"
           y="-80.915"
           x="17" />
        <rect
           id="rect3724"
           style="opacity:.7;color:#000000;fill:url(#linearGradient7813)"
           transform="scale(-1)"
           height="1"
           width="65"
           y="-75"
           x="-85" />
        <rect
           id="rect4202"
           style="opacity:.5;color:#000000;fill:url(#linearGradient7815)"
           height="1"
           width="72.577"
           y="32"
           x="10" />
        <path
           id="path4214"
           d="m76 29a2 2 0 1 1 -4 0 2 2 0 1 1 4 0z"
           style="opacity:.6;color:#000000;fill:#fff"
           transform="translate(2)" />
        <path
           id="path4216"
           d="m76 29a2 2 0 1 1 -4 0 2 2 0 1 1 4 0z"
           style="opacity:.4;color:#000000;fill:#fff"
           transform="translate(-4)" />
        <path
           id="path4218"
           d="m76 29a2 2 0 1 1 -4 0 2 2 0 1 1 4 0z"
           style="opacity:.4;color:#000000;fill:#fff"
           transform="translate(-10)" />
        <path
           id="path4220"
           d="m30 43a3 3 0 1 1 -6 0 3 3 0 1 1 6 0z"
           style="opacity:.6;color:#000000;stroke:#fff;stroke-width:1.2;fill:none"
           transform="matrix(.83333 0 0 .83333 2.5 5.1667)" />
        <path
           id="path4222"
           d="m30 43a3 3 0 1 1 -6 0 3 3 0 1 1 6 0z"
           style="opacity:.6;color:#000000;stroke:#fff;stroke-width:1.2;fill:none"
           transform="matrix(.83333 0 0 .83333 2.5 15.167)" />
        <g
           id="text4224"
           style="opacity:.6;fill:url(#linearGradient7831)">
          <path
             id="path4243"
             style="fill:url(#linearGradient7831)"
             d="m31.457 43v-3.9547h2.6478v0.74756h-1.7576v0.82745h1.5636v0.74756h-1.5636v1.6321h-0.89022" />
          <path
             id="path4245"
             style="fill:url(#linearGradient7831)"
             d="m35.527 43h-0.85v-3.002h0.85v3.002m0.07989-3.8691c-0.000002 0.15598-0.05136 0.27962-0.15408 0.37093-0.09891 0.0875-0.21685 0.13125-0.35381 0.13125-0.13696 0.000003-0.2568-0.04375-0.35951-0.13125-0.09891-0.0913-0.14837-0.21494-0.14837-0.37093-0.000001-0.15598 0.04946-0.27772 0.14837-0.36522 0.10272-0.0913 0.22256-0.13695 0.35951-0.13696 0.13696 0.000004 0.25489 0.04566 0.35381 0.13696 0.10272 0.08751 0.15408 0.20924 0.15408 0.36522" />
          <path
             id="path4247"
             style="fill:url(#linearGradient7831)"
             d="m38.135 40.752c-0.07609-0.01902-0.16549-0.03804-0.26821-0.05707-0.10272-0.02282-0.21305-0.03424-0.33098-0.03424-0.05326 0.000003-0.11794 0.0057-0.19402 0.01712-0.07229 0.0076-0.12745 0.01712-0.16549 0.02853v2.294h-0.85028v-2.8419c0.15217-0.05326 0.33098-0.10272 0.53642-0.14837 0.20924-0.04945 0.44131-0.07418 0.6962-0.07418 0.04565 0.000003 0.10082 0.0038 0.16549 0.01141 0.06467 0.0038 0.12935 0.01142 0.19402 0.02283 0.06467 0.0076 0.12935 0.01902 0.19402 0.03424 0.06467 0.01142 0.11984 0.02663 0.16549 0.04565l-0.143 0.702" />
          <path
             id="path4249"
             style="fill:url(#linearGradient7831)"
             d="m39.595 42.389c0.15598 0.000001 0.2663-0.01522 0.33098-0.04565 0.06467-0.03043 0.09701-0.0894 0.09701-0.1769-0.000001-0.06848-0.04185-0.12745-0.12554-0.1769-0.0837-0.05326-0.21114-0.11223-0.38234-0.1769-0.13315-0.04946-0.25489-0.10082-0.36522-0.15408-0.10652-0.05326-0.19783-0.11603-0.27392-0.18832-0.07609-0.07609-0.13506-0.16549-0.1769-0.26821-0.04185-0.10272-0.06277-0.22636-0.06277-0.37093 0-0.28152 0.10462-0.50408 0.31386-0.66767 0.20924-0.16358 0.49647-0.24538 0.86169-0.24538 0.18261 0.000003 0.35761 0.01712 0.525 0.05136 0.16739 0.03044 0.30054 0.06468 0.39946 0.10272l-0.14837 0.66196c-0.09892-0.03424-0.20734-0.06467-0.32528-0.0913-0.11413-0.02663-0.24348-0.03994-0.38805-0.03995-0.26631 0.000002-0.39946 0.07419-0.39946 0.22256-0.000001 0.03424 0.0057 0.06468 0.01712 0.0913 0.01141 0.02663 0.03424 0.05326 0.06848 0.07989 0.03424 0.02283 0.07989 0.04946 0.13696 0.07989 0.06087 0.02663 0.13696 0.05707 0.22826 0.0913 0.18641 0.06848 0.34049 0.13696 0.46223 0.20544 0.12174 0.06468 0.21685 0.13696 0.28533 0.21685 0.07228 0.07609 0.12174 0.16169 0.14837 0.2568 0.03043 0.09511 0.04565 0.20544 0.04565 0.33098-0.000002 0.29674-0.11223 0.5212-0.33669 0.67338-0.22066 0.15218-0.53452 0.22826-0.94158 0.22826-0.26631 0-0.48886-0.02283-0.66767-0.06848-0.175-0.04565-0.29674-0.0837-0.36522-0.11413l0.14266-0.6905c0.14457 0.05707 0.29294 0.10272 0.44511 0.13696 0.15217 0.03044 0.30245 0.04565 0.45082 0.04565" />
          <path
             id="path4251"
             style="fill:url(#linearGradient7831)"
             d="m41.469 39.251 0.85028-0.13696v0.88452h1.0215v0.70762h-1.0215v1.0557c-0.000001 0.17881 0.03043 0.32147 0.09131 0.42799 0.06467 0.10652 0.19212 0.15978 0.38234 0.15978 0.0913 0.000001 0.18451-0.0076 0.27962-0.02283 0.09891-0.01902 0.18832-0.04375 0.26821-0.07418l0.11984 0.66196c-0.10272 0.04185-0.21685 0.07799-0.34239 0.10842-0.12555 0.03043-0.27962 0.04565-0.46223 0.04565-0.23207 0-0.42419-0.03044-0.57636-0.09131-0.15218-0.06468-0.27392-0.15218-0.36522-0.2625-0.0913-0.11413-0.15598-0.25109-0.19402-0.41087-0.03424-0.15978-0.05136-0.33669-0.05136-0.53071v-2.5223" />
          <path
             id="path4253"
             style="fill:url(#linearGradient7831)"
             d="m48.206 41.493c-0.000003 0.23587-0.03424 0.45272-0.10272 0.65055-0.06848 0.19402-0.1674 0.36142-0.29674 0.50218-0.12935 0.13696-0.28533 0.24348-0.46794 0.31957-0.17881 0.07609-0.38044 0.11413-0.6049 0.11413-0.22066 0-0.42229-0.03804-0.6049-0.11413-0.179-0.076-0.333-0.182-0.462-0.319-0.13-0.141-0.231-0.308-0.303-0.502-0.072-0.198-0.108-0.415-0.108-0.651 0-0.23587 0.03614-0.45082 0.10842-0.64484 0.07609-0.19402 0.1788-0.35951 0.30815-0.49647 0.13315-0.13696 0.28913-0.24348 0.46794-0.31957 0.18261-0.07608 0.38044-0.11413 0.59348-0.11413 0.21685 0.000003 0.41468 0.03805 0.59348 0.11413 0.18261 0.07609 0.33859 0.18261 0.46794 0.31957s0.23016 0.30245 0.30245 0.49647c0.07228 0.19402 0.10842 0.40897 0.10842 0.64484m-0.8674 0c-0.000002-0.2625-0.05326-0.46794-0.15978-0.61631-0.10272-0.15217-0.25109-0.22826-0.44511-0.22826-0.19402 0.000002-0.3443 0.07609-0.45082 0.22826-0.10652 0.14837-0.15978 0.35381-0.15978 0.61631-0.000001 0.2625 0.05326 0.47174 0.15978 0.62772 0.10652 0.15218 0.25679 0.22826 0.45082 0.22826 0.19402 0.000001 0.34239-0.07609 0.44511-0.22826 0.10652-0.15598 0.15978-0.36522 0.15978-0.62772" />
          <path
             id="path4255"
             style="fill:url(#linearGradient7831)"
             d="m50.788 41.522c-0.000003-0.2625-0.05897-0.47174-0.1769-0.62772-0.11794-0.15978-0.29294-0.23967-0.525-0.23968-0.07609 0.000002-0.14647 0.0038-0.21114 0.01141-0.06468 0.0038-0.11794 0.0095-0.15978 0.01712v1.5351c0.05326 0.03424 0.12174 0.06277 0.20544 0.0856 0.0875 0.02283 0.175 0.03424 0.2625 0.03424 0.40326 0.000001 0.60489-0.27201 0.6049-0.81604m0.8674-0.02283c-0.000003 0.23207-0.02854 0.44321-0.0856 0.63343-0.05707 0.19022-0.14076 0.35381-0.25109 0.49076-0.11033 0.13696-0.24729 0.24348-0.41087 0.31957-0.16359 0.07609-0.35191 0.11413-0.56495 0.11413-0.11794 0-0.22826-0.01141-0.33098-0.03424-0.103-0.023-0.202-0.055-0.297-0.097v1.1299h-0.85028v-3.9547c0.07609-0.02282 0.16359-0.04375 0.2625-0.06277 0.09891-0.02282 0.20163-0.04185 0.30816-0.05707 0.11033-0.01521 0.22065-0.02663 0.33098-0.03424 0.11413-0.01141 0.22256-0.01712 0.32527-0.01712 0.24728 0.000003 0.46794 0.03805 0.66196 0.11413 0.19402 0.07229 0.35761 0.17691 0.49076 0.31386 0.13315 0.13316 0.23397 0.29674 0.30245 0.49076 0.07228 0.19402 0.10842 0.41088 0.10842 0.65055" />
          <path
             id="path4257"
             style="fill:url(#linearGradient7823)"
             d="m52.28 39.251 0.85028-0.13696v0.88452h1.0215v0.70762h-1.0215v1.0557c-0.000001 0.17881 0.03043 0.32147 0.09131 0.42799 0.06467 0.10652 0.19212 0.15978 0.38234 0.15978 0.0913 0.000001 0.18451-0.0076 0.27962-0.02283 0.09891-0.01902 0.18832-0.04375 0.26821-0.07418l0.11984 0.66196c-0.10272 0.04185-0.21685 0.07799-0.34239 0.10842-0.12555 0.03043-0.27962 0.04565-0.46223 0.04565-0.23207 0-0.42419-0.03044-0.57636-0.09131-0.15218-0.06468-0.27392-0.15218-0.36522-0.2625-0.09131-0.11413-0.15598-0.25109-0.19402-0.41087-0.03424-0.15978-0.05136-0.33669-0.05136-0.53071v-2.5223" />
          <path
             id="path4259"
             style="fill:url(#linearGradient7831)"
             d="m55.689 43h-0.85v-3.002h0.85v3.002m0.07989-3.8691c-0.000002 0.15598-0.05136 0.27962-0.15408 0.37093-0.09891 0.0875-0.21685 0.13125-0.35381 0.13125-0.13696 0.000003-0.2568-0.04375-0.35951-0.13125-0.09891-0.0913-0.14837-0.21494-0.14837-0.37093-0.000001-0.15598 0.04946-0.27772 0.14837-0.36522 0.10272-0.0913 0.22256-0.13695 0.35951-0.13696 0.13696 0.000004 0.25489 0.04566 0.35381 0.13696 0.10272 0.08751 0.15408 0.20924 0.15408 0.36522" />
          <path
             id="path4261"
             style="fill:url(#linearGradient7831)"
             d="m59.296 41.493c-0.000003 0.23587-0.03424 0.45272-0.10272 0.65055-0.06848 0.19402-0.1674 0.36142-0.29674 0.50218-0.12935 0.13696-0.28533 0.24348-0.46794 0.31957-0.17881 0.07609-0.38044 0.11413-0.6049 0.11413-0.22066 0-0.42229-0.03804-0.6049-0.11413-0.17881-0.07609-0.33288-0.18261-0.46223-0.31957-0.12935-0.14076-0.23016-0.30815-0.30245-0.50218-0.07228-0.19783-0.10842-0.41468-0.10842-0.65055s0.03614-0.45082 0.10842-0.64484c0.07609-0.19402 0.1788-0.35951 0.30816-0.49647 0.13315-0.13696 0.28913-0.24348 0.46794-0.31957 0.18261-0.07608 0.38044-0.11413 0.59348-0.11413 0.21685 0.000003 0.41468 0.03805 0.59348 0.11413 0.18261 0.07609 0.33859 0.18261 0.46794 0.31957s0.23016 0.30245 0.30245 0.49647c0.07228 0.19402 0.10842 0.40897 0.10842 0.64484m-0.8674 0c-0.000002-0.2625-0.05326-0.46794-0.15978-0.61631-0.10272-0.15217-0.25109-0.22826-0.44511-0.22826-0.19402 0.000002-0.3443 0.07609-0.45082 0.22826-0.10652 0.14837-0.15978 0.35381-0.15978 0.61631-0.000002 0.2625 0.05326 0.47174 0.15978 0.62772 0.10652 0.15218 0.25679 0.22826 0.45082 0.22826 0.19402 0.000001 0.34239-0.07609 0.44511-0.22826 0.10652-0.15598 0.15978-0.36522 0.15978-0.62772" />
          <path
             id="path4263"
             style="fill:url(#linearGradient7831)"
             d="m59.955 40.101c0.14457-0.04185 0.33098-0.07989 0.55924-0.11413 0.22826-0.03804 0.46794-0.05706 0.71903-0.05707 0.25489 0.000003 0.46603 0.03424 0.63343 0.10272 0.17119 0.06468 0.30625 0.15788 0.40517 0.27962 0.09891 0.12174 0.16929 0.26631 0.21114 0.4337s0.06277 0.35381 0.06277 0.55924v1.6949h-0.85v-1.5921c-0.000002-0.27391-0.03614-0.46794-0.10842-0.58207-0.07229-0.11413-0.20734-0.1712-0.40517-0.1712-0.06087 0.000002-0.12555 0.0038-0.19402 0.01141-0.06848 0.0038-0.12935 0.0095-0.18261 0.01712v2.3169h-0.851v-2.8989" />
        </g>
        <g
           id="text4228"
           style="opacity:.6;fill:url(#linearGradient7843)">
          <path
             id="path4266"
             style="fill:url(#linearGradient7843)"
             d="m32.535 52.321c0.12554 0.000001 0.22826-0.0095 0.30815-0.02853 0.08369-0.02283 0.15027-0.05136 0.19973-0.0856 0.04945-0.03804 0.08369-0.08179 0.10272-0.13125 0.01902-0.04946 0.02853-0.10462 0.02853-0.16549-0.000002-0.12935-0.06087-0.23587-0.18261-0.31957-0.12174-0.0875-0.33098-0.18071-0.62772-0.27962-0.12935-0.04565-0.2587-0.09701-0.38805-0.15408-0.12935-0.06087-0.24538-0.13505-0.3481-0.22256-0.10272-0.0913-0.18642-0.19973-0.25109-0.32527-0.06467-0.12935-0.09701-0.28533-0.09701-0.46794s0.03424-0.3462 0.10272-0.49076c0.06848-0.14837 0.16549-0.27391 0.29104-0.37663 0.12554-0.10271 0.27772-0.1807 0.45652-0.23397 0.1788-0.05706 0.38044-0.08559 0.6049-0.0856 0.2663 0.000005 0.49647 0.02854 0.69049 0.0856 0.19402 0.05707 0.3538 0.11984 0.47935 0.18832l-0.2568 0.70191c-0.111-0.057-0.234-0.107-0.371-0.148-0.133-0.046-0.295-0.069-0.485-0.069-0.21305 0.000003-0.36712 0.03044-0.46223 0.0913-0.09131 0.05707-0.13696 0.14647-0.13696 0.26821-0.000002 0.07229 0.01712 0.13316 0.05136 0.18261 0.03424 0.04946 0.08179 0.09511 0.14266 0.13696 0.06467 0.03805 0.13696 0.07419 0.21685 0.10842 0.08369 0.03044 0.175 0.06278 0.27392 0.09701 0.20543 0.07609 0.38424 0.15218 0.53642 0.22826 0.15217 0.07229 0.27772 0.15788 0.37663 0.2568 0.10272 0.09892 0.1788 0.21495 0.22826 0.3481 0.04945 0.13316 0.07418 0.29484 0.07419 0.48506-0.000003 0.36903-0.12935 0.65626-0.38805 0.86169-0.2587 0.20163-0.64865 0.30245-1.1698 0.30245-0.175 0-0.33288-0.01141-0.47364-0.03424-0.14076-0.01902-0.26631-0.04375-0.37663-0.07419-0.10652-0.03043-0.19973-0.06277-0.27962-0.09701-0.07609-0.03424-0.14076-0.06658-0.19402-0.09701l0.25109-0.70762c0.11794 0.06468 0.2625 0.12364 0.4337 0.1769 0.175 0.04946 0.38804 0.07419 0.63914 0.07418" />
          <path
             id="path4268"
             style="fill:url(#linearGradient7843)"
             d="m34.578 51.522c0-0.2663 0.03995-0.49837 0.11984-0.6962 0.0837-0.20163 0.19212-0.36902 0.32528-0.50218 0.13315-0.13315 0.28533-0.23397 0.45652-0.30245 0.175-0.06848 0.35381-0.10272 0.53642-0.10272 0.42609 0.000003 0.76278 0.13125 1.0101 0.39375 0.24728 0.2587 0.37092 0.64104 0.37093 1.147-0.000003 0.04946-0.0019 0.10462-0.0057 0.16549-0.0038 0.05707-0.0076 0.10843-0.01141 0.15408h-1.9288c0.01902 0.175 0.10082 0.31386 0.24538 0.41658s0.33859 0.15408 0.58207 0.15408c0.15598 0.000001 0.30815-0.01331 0.45652-0.03995 0.15217-0.03043 0.27582-0.06658 0.37093-0.10842l0.11413 0.69049c-0.04566 0.02283-0.10652 0.04565-0.18261 0.06848s-0.16169 0.04185-0.2568 0.05707c-0.09131 0.01902-0.19022 0.03424-0.29674 0.04565s-0.21305 0.01712-0.31957 0.01712c-0.27011 0-0.50598-0.03995-0.70761-0.11984-0.19783-0.07989-0.36332-0.18832-0.49647-0.32527-0.12935-0.14076-0.22636-0.30625-0.29103-0.49647-0.06087-0.19022-0.09131-0.39565-0.09131-0.61631m1.9973-0.32527c-0.0038-0.07228-0.01712-0.14266-0.03995-0.21114-0.01902-0.06848-0.05136-0.12935-0.09701-0.18261-0.04185-0.05326-0.09701-0.09701-0.16549-0.13125-0.06468-0.03424-0.14647-0.05136-0.24538-0.05136-0.09511 0.000003-0.1769 0.01712-0.24538 0.05136-0.06848 0.03044-0.12555 0.07229-0.1712 0.12554-0.04565 0.05326-0.08179 0.11604-0.10842 0.18832-0.02283 0.06848-0.03995 0.13886-0.05136 0.21114h1.1242" />
          <path
             id="path4270"
             style="fill:url(#linearGradient7843)"
             d="m37.911 51.499c0-0.21685 0.03424-0.42038 0.10272-0.6106 0.07228-0.19402 0.175-0.36141 0.30816-0.50218 0.13315-0.14456 0.29484-0.2587 0.48506-0.34239s0.40707-0.12554 0.65055-0.12554c0.15978 0.000003 0.30625 0.01522 0.4394 0.04565 0.13315 0.02663 0.2625 0.06658 0.38805 0.11984l-0.1769 0.67908c-0.07989-0.03043-0.16739-0.05706-0.2625-0.07989-0.09511-0.02282-0.20163-0.03424-0.31957-0.03424-0.25109 0.000002-0.43941 0.07799-0.56495 0.23397-0.12174 0.15598-0.18261 0.36142-0.18261 0.61631-0.000001 0.27011 0.05707 0.47935 0.1712 0.62772 0.11794 0.14837 0.32147 0.22256 0.6106 0.22256 0.10272 0.000001 0.21304-0.0095 0.33098-0.02853 0.11793-0.01902 0.22636-0.04946 0.32527-0.0913l0.11984 0.6962c-0.09892 0.04185-0.22256 0.07799-0.37093 0.10842s-0.31196 0.04565-0.49076 0.04565c-0.27392 0-0.50979-0.03995-0.70761-0.11984-0.19783-0.0837-0.36142-0.19592-0.49076-0.33669-0.12554-0.14076-0.21875-0.30625-0.27962-0.49647-0.05707-0.19402-0.0856-0.40326-0.0856-0.62772" />
          <path
             id="path4272"
             style="fill:url(#linearGradient7843)"
             d="m43.569 51.493c-0.000003 0.23587-0.03424 0.45272-0.10272 0.65055-0.06848 0.19402-0.1674 0.36142-0.29674 0.50218-0.12935 0.13696-0.28533 0.24348-0.46794 0.31957-0.17881 0.07609-0.38044 0.11413-0.6049 0.11413-0.22066 0-0.42229-0.03804-0.6049-0.11413-0.17881-0.07609-0.33288-0.18261-0.46223-0.31957-0.12935-0.14076-0.23016-0.30815-0.30245-0.50218-0.07228-0.19783-0.10842-0.41468-0.10842-0.65055-0.000001-0.23587 0.03614-0.45082 0.10842-0.64484 0.07609-0.19402 0.17881-0.35951 0.30816-0.49647 0.13315-0.13696 0.28913-0.24348 0.46794-0.31957 0.18261-0.07608 0.38044-0.11413 0.59348-0.11413 0.21685 0.000003 0.41468 0.03805 0.59348 0.11413 0.18261 0.07609 0.33859 0.18261 0.46794 0.31957s0.23016 0.30245 0.30245 0.49647c0.07228 0.19402 0.10842 0.40897 0.10842 0.64484m-0.8674 0c-0.000002-0.2625-0.05326-0.46794-0.15978-0.61631-0.10272-0.15217-0.25109-0.22826-0.44511-0.22826-0.19402 0.000002-0.3443 0.07609-0.45082 0.22826-0.10652 0.14837-0.15978 0.35381-0.15978 0.61631-0.000001 0.2625 0.05326 0.47174 0.15978 0.62772 0.10652 0.15218 0.25679 0.22826 0.45082 0.22826 0.19402 0.000001 0.34239-0.07609 0.44511-0.22826 0.10652-0.15598 0.15978-0.36522 0.15978-0.62772" />
          <path
             id="path4274"
             style="fill:url(#linearGradient7843)"
             d="m44.228 50.101c0.14457-0.04185 0.33098-0.07989 0.55924-0.11413 0.22826-0.03804 0.46794-0.05706 0.71903-0.05707 0.25489 0.000003 0.46604 0.03424 0.63343 0.10272 0.1712 0.06468 0.30625 0.15788 0.40517 0.27962 0.09891 0.12174 0.16929 0.26631 0.21114 0.4337s0.06277 0.35381 0.06277 0.55924v1.6949h-0.851v-1.5921c-0.000002-0.27391-0.03614-0.46794-0.10842-0.58207s-0.20734-0.1712-0.40517-0.1712c-0.06087 0.000002-0.12555 0.0038-0.19402 0.01141-0.06848 0.0038-0.12935 0.0095-0.18261 0.01712v2.3169h-0.85v-2.8989" />
          <path
             id="path4276"
             style="fill:url(#linearGradient7843)"
             d="m48.319 51.476c-0.000001 0.2625 0.05897 0.47365 0.1769 0.63343s0.29294 0.23968 0.525 0.23968c0.07609 0.000001 0.14647-0.0019 0.21114-0.0057 0.06467-0.0076 0.11793-0.01522 0.15978-0.02283v-1.5465c-0.05326-0.03424-0.12364-0.06277-0.21114-0.0856-0.0837-0.02282-0.1693-0.03424-0.2568-0.03424-0.40326 0.000002-0.6049 0.27392-0.6049 0.82174m1.9231 1.4266c-0.07609 0.02283-0.16359 0.04565-0.2625 0.06848-0.09892 0.01902-0.20354 0.03614-0.31386 0.05136-0.10652 0.01522-0.21685 0.02663-0.33098 0.03424-0.11033 0.01141-0.21685 0.01712-0.31957 0.01712-0.24729 0-0.46794-0.03614-0.66196-0.10842s-0.35761-0.175-0.49076-0.30816c-0.13315-0.13696-0.23587-0.30054-0.30816-0.49076-0.06848-0.19402-0.10272-0.41087-0.10272-0.65055 0-0.24348 0.03043-0.46223 0.0913-0.65626 0.06087-0.19782 0.14837-0.36522 0.2625-0.50218s0.25299-0.24158 0.41658-0.31386c0.16739-0.07228 0.35761-0.10842 0.57066-0.10842 0.11793 0.000003 0.22256 0.01142 0.31386 0.03424 0.09511 0.02283 0.19022 0.05517 0.28533 0.09701v-1.3582l0.85028-0.13696v4.3313" />
          <path
             id="path4278"
             style="fill:url(#linearGradient7843)"
             d="m55.217 51.493c-0.000003 0.23587-0.03424 0.45272-0.10272 0.65055-0.06848 0.19402-0.1674 0.36142-0.29674 0.50218-0.12935 0.13696-0.28533 0.24348-0.46794 0.31957-0.17881 0.07609-0.38044 0.11413-0.6049 0.11413-0.22066 0-0.42229-0.03804-0.6049-0.11413-0.17881-0.07609-0.33288-0.18261-0.46223-0.31957-0.12935-0.14076-0.23016-0.30815-0.30245-0.50218-0.07228-0.19783-0.10842-0.41468-0.10842-0.65055-0.000001-0.23587 0.03614-0.45082 0.10842-0.64484 0.07609-0.19402 0.17881-0.35951 0.30816-0.49647 0.13315-0.13696 0.28913-0.24348 0.46794-0.31957 0.18261-0.07608 0.38044-0.11413 0.59348-0.11413 0.21685 0.000003 0.41468 0.03805 0.59348 0.11413 0.18261 0.07609 0.33859 0.18261 0.46794 0.31957s0.23016 0.30245 0.30245 0.49647c0.07228 0.19402 0.10842 0.40897 0.10842 0.64484m-0.8674 0c-0.000003-0.2625-0.05326-0.46794-0.15978-0.61631-0.10272-0.15217-0.25109-0.22826-0.44511-0.22826-0.19402 0.000002-0.3443 0.07609-0.45082 0.22826-0.10652 0.14837-0.15978 0.35381-0.15978 0.61631-0.000001 0.2625 0.05326 0.47174 0.15978 0.62772 0.10652 0.15218 0.25679 0.22826 0.45082 0.22826 0.19402 0.000001 0.34239-0.07609 0.44511-0.22826 0.10652-0.15598 0.15978-0.36522 0.15978-0.62772" />
          <path
             id="path4280"
             style="fill:url(#linearGradient7843)"
             d="m57.798 51.522c-0.000002-0.2625-0.05897-0.47174-0.1769-0.62772-0.11794-0.15978-0.29294-0.23967-0.525-0.23968-0.07609 0.000002-0.14647 0.0038-0.21114 0.01141-0.06468 0.0038-0.11794 0.0095-0.15978 0.01712v1.5351c0.05326 0.03424 0.12174 0.06277 0.20544 0.0856 0.0875 0.02283 0.175 0.03424 0.2625 0.03424 0.40326 0.000001 0.60489-0.27201 0.6049-0.81604m0.8674-0.02283c-0.000004 0.23207-0.02854 0.44321-0.0856 0.63343-0.05707 0.19022-0.14076 0.35381-0.25109 0.49076-0.11033 0.13696-0.24729 0.24348-0.41087 0.31957-0.16359 0.07609-0.35191 0.11413-0.56495 0.11413-0.11794 0-0.22826-0.01141-0.33098-0.03424-0.102-0.023-0.201-0.055-0.296-0.097v1.1299h-0.85028v-3.9547c0.07609-0.02282 0.16359-0.04375 0.2625-0.06277 0.09891-0.02282 0.20163-0.04185 0.30816-0.05707 0.11033-0.01521 0.22065-0.02663 0.33098-0.03424 0.11413-0.01141 0.22255-0.01712 0.32527-0.01712 0.24728 0.000003 0.46794 0.03805 0.66196 0.11413 0.19402 0.07229 0.35761 0.17691 0.49076 0.31386 0.13315 0.13316 0.23397 0.29674 0.30245 0.49076 0.07228 0.19402 0.10842 0.41088 0.10842 0.65055" />
          <path
             id="path4282"
             style="fill:url(#linearGradient7843)"
             d="m59.291 49.251 0.85028-0.13696v0.88452h1.0215v0.70762h-1.0215v1.0557c-0.000001 0.17881 0.03043 0.32147 0.09131 0.42799 0.06467 0.10652 0.19212 0.15978 0.38234 0.15978 0.0913 0.000001 0.18451-0.0076 0.27962-0.02283 0.09891-0.01902 0.18831-0.04375 0.26821-0.07418l0.11984 0.66196c-0.10272 0.04185-0.21685 0.07799-0.34239 0.10842-0.12555 0.03043-0.27962 0.04565-0.46223 0.04565-0.23207 0-0.42419-0.03044-0.57636-0.09131-0.15218-0.06468-0.27392-0.15218-0.36522-0.2625-0.09131-0.11413-0.15598-0.25109-0.19402-0.41087-0.03424-0.15978-0.05136-0.33669-0.05136-0.53071v-2.5223" />
          <path
             id="path4284"
             style="fill:url(#linearGradient7843)"
             d="m62.7 53h-0.85v-3.002h0.85v3.002m0.07989-3.8691c-0.000002 0.15598-0.05136 0.27962-0.15408 0.37093-0.09892 0.0875-0.21685 0.13125-0.35381 0.13125-0.13696 0.000003-0.2568-0.04375-0.35951-0.13125-0.09891-0.0913-0.14837-0.21494-0.14837-0.37093 0-0.15598 0.04946-0.27772 0.14837-0.36522 0.10272-0.0913 0.22256-0.13695 0.35951-0.13696 0.13696 0.000004 0.25489 0.04566 0.35381 0.13696 0.10272 0.08751 0.15408 0.20924 0.15408 0.36522" />
          <path
             id="path4286"
             style="fill:url(#linearGradient7843)"
             d="m66.307 51.493c-0.000003 0.23587-0.03424 0.45272-0.10272 0.65055-0.06848 0.19402-0.1674 0.36142-0.29674 0.50218-0.12935 0.13696-0.28533 0.24348-0.46794 0.31957-0.17881 0.07609-0.38044 0.11413-0.6049 0.11413-0.22066 0-0.42229-0.03804-0.6049-0.11413-0.179-0.076-0.333-0.182-0.462-0.319-0.13-0.141-0.231-0.308-0.303-0.502-0.072-0.198-0.108-0.415-0.108-0.651 0-0.23587 0.03614-0.45082 0.10842-0.64484 0.07609-0.19402 0.1788-0.35951 0.30815-0.49647 0.13315-0.13696 0.28913-0.24348 0.46794-0.31957 0.18261-0.07608 0.38044-0.11413 0.59348-0.11413 0.21685 0.000003 0.41468 0.03805 0.59348 0.11413 0.18261 0.07609 0.33859 0.18261 0.46794 0.31957 0.12934 0.13696 0.23016 0.30245 0.30245 0.49647 0.07228 0.19402 0.10842 0.40897 0.10842 0.64484m-0.8674 0c-0.000002-0.2625-0.05326-0.46794-0.15978-0.61631-0.10272-0.15217-0.25109-0.22826-0.44511-0.22826-0.19402 0.000002-0.3443 0.07609-0.45082 0.22826-0.10652 0.14837-0.15978 0.35381-0.15978 0.61631-0.000001 0.2625 0.05326 0.47174 0.15978 0.62772 0.10652 0.15218 0.25679 0.22826 0.45082 0.22826 0.19402 0.000001 0.34239-0.07609 0.44511-0.22826 0.10652-0.15598 0.15978-0.36522 0.15978-0.62772" />
          <path
             id="path4288"
             style="fill:url(#linearGradient7843)"
             d="m66.965 50.101c0.14457-0.04185 0.33098-0.07989 0.55924-0.11413 0.22826-0.03804 0.46794-0.05706 0.71903-0.05707 0.25489 0.000003 0.46603 0.03424 0.63343 0.10272 0.17119 0.06468 0.30625 0.15788 0.40517 0.27962 0.09891 0.12174 0.16929 0.26631 0.21114 0.4337s0.06277 0.35381 0.06277 0.55924v1.6949h-0.85v-1.5921c-0.000003-0.27391-0.03614-0.46794-0.10842-0.58207-0.07229-0.11413-0.20734-0.1712-0.40517-0.1712-0.06087 0.000002-0.12555 0.0038-0.19402 0.01141-0.06848 0.0038-0.12935 0.0095-0.18261 0.01712v2.3169h-0.851v-2.8989" />
        </g>
        <rect
           id="rect4294"
           style="opacity:.5;color:#000000;stroke-dashoffset:8.6;stroke:#fff;stroke-linecap:round;fill:none"
           height="5"
           width="17"
           y="61.5"
           x="56.5" />
        <rect
           id="rect4296"
           style="opacity:.3;color:#000000;stroke-dashoffset:8.6;stroke:#fff;stroke-linecap:round;fill:none"
           height="5"
           width="17"
           y="61.5"
           x="34.5" />
      </g>
      <g
         id="g6103"
         transform="matrix(.92225 0 0 .92225 -90.597 28.347)">
        <path
           id="path4318"
           style="fill:url(#linearGradient6961)"
           d="m179.01 1036.4-57.461 37.709h57.46v-37.7zm-7.0424 13.018v17.648h-26.907l26.907-17.648z" />
        <path
           id="path4964"
           style="fill:#a0672c"
           d="m171.96 1048.7v0.6841l-25.844 16.973h-1.0474l26.892-17.657zm7.054 24.69v0.684h-57.461l1.0474-0.684h56.414z" />
        <path
           id="path4955"
           style="opacity:.5;fill:#ffe680"
           d="m179.01 1036.4v0.684l-56.413 37.025h-1.0478l57.461-37.709zm-7.054 30.676v0.6841h-26.892l1.0474-0.6841h25.844z" />
        <g
           id="g3643"
           transform="matrix(.363 -.13352 -.13352 -.363 109.13 1102.3)">
          <g
             id="g3537">
            <rect
               id="rect3483"
               style="stroke-linejoin:round;stroke:#df453f;stroke-width:1.3265;fill:url(#linearGradient6963)"
               rx="3"
               ry="3"
               height="16"
               width="12.116"
               y="107.49"
               x="136.91" />
            <path
               id="path3493"
               style="opacity:.3;filter:url(#filter3495);fill:#701300"
               transform="matrix(1.8857,0,0,1,-123.51,-1.9445)"
               d="m141.24 118.19a1.5468 3.9775 0 1 1 -3.0936 0 1.5468 3.9775 0 1 1 3.0936 0z" />
            <path
               id="path3499"
               style="opacity:.8;filter:url(#filter3509);fill:#fff;fill-rule:evenodd"
               d="m146.31 113.12c-0.85193 9.5067-3.9375 8.3125-6.5 8.9375 4.0763 0.0625 8.625-0.0625 8.625-0.0625-2.4375-0.5625-1.8125-2.375-2.125-8.875z" />
            <rect
               id="rect3525"
               style="opacity:.2;fill:url(#linearGradient6965)"
               height="1"
               width="12.119"
               y="115.97"
               x="136.41" />
          </g>
          <g
             id="g3311"
             transform="translate(23.733)">
            <path
               id="rect2480"
               style="stroke-linejoin:round;stroke:url(#linearGradient6969);stroke-width:1.3265;fill:url(#linearGradient6967)"
               d="m112.77 24.5 6.5-24 6.5 24v72h-13v-72z" />
            <path
               id="path3272"
               style="fill:url(#linearGradient6971);fill-rule:evenodd"
               d="m117.69 8.0717 3.1426 0.022097-1.5824-5.7913" />
            <path
               id="path3274"
               style="fill:url(#linearGradient6973);fill-rule:evenodd"
               d="m117.73 8.0902-3.77 13.91s-0.46779 1.6535-0.698 2.6083c-0.19122 0.64228 1.9589 1.6113 3.0182-1.6083 1.2153 4.5138 5.5759 3.438 5.9883 0.01105 0.3425 1.7015 1.754 2.95 2.9886 1.5219-0.23478-0.90874-0.43641-1.5219-0.43641-1.5219l-4.0217-14.921h-3.0715z" />
            <path
               id="path3294"
               style="opacity:.3;stroke:url(#linearGradient6975);stroke-width:1.7686px;fill:none"
               d="m122.37 96.305v-67.217" />
            <path
               id="path3304"
               style="opacity:.4;stroke:url(#linearGradient6977);stroke-width:1.7686px;fill:none"
               d="m116.25 96.305v-67.217" />
            <path
               id="path3372"
               style="opacity:.4;filter:url(#filter3382);fill:#ac4311;fill-rule:evenodd"
               d="m118.7 5.9799-4.773 17.899 1.9887-0.83969 2.7842-17.059z" />
            <path
               id="path3386"
               style="opacity:.15;stroke:#4d2600;stroke-width:1.7686px;fill:none"
               d="m113.08 24.625s1.4867 1.7649 3.25-1.5312c2 5.25 5.1686 2.0871 5.9375-0.03125 1.375 3.4375 3.125 1.4375 3.125 1.4375" />
            <path
               id="path3388"
               d="m144.06 8.9375-0.375 12.5 3.0625-0.3125-2.68-12.189z"
               style="opacity:.8;filter:url(#filter3390);fill:#fff;fill-rule:evenodd"
               transform="matrix(1.1224,0,0,1.345,-41.703,-4.7709)" />
          </g>
          <g
             id="g3620">
            <rect
               id="rect3333"
               style="stroke-linejoin:round;stroke:url(#linearGradient6981);stroke-width:1.3265;fill:url(#linearGradient6979)"
               height="19"
               width="13"
               y="96.5"
               x="136.5" />
            <rect
               id="rect3337"
               style="opacity:.4;fill:url(#linearGradient6983)"
               height="1"
               width="12"
               y="100"
               x="137" />
            <rect
               id="rect3351"
               style="opacity:.6;fill:url(#linearGradient6985)"
               height="1"
               width="12"
               y="101"
               x="137" />
            <rect
               id="rect3369"
               style="opacity:.4;fill:url(#linearGradient6987)"
               height="1"
               width="12"
               y="102"
               x="137" />
            <rect
               id="rect3371"
               style="opacity:.6;fill:url(#linearGradient6989)"
               height="1"
               width="12"
               y="103"
               x="137" />
            <rect
               id="rect3379"
               style="opacity:.4;fill:url(#linearGradient6991)"
               height="1"
               width="12"
               y="108"
               x="137" />
            <rect
               id="rect3381"
               style="opacity:.6;fill:url(#linearGradient6993)"
               height="1"
               width="12"
               y="109"
               x="137" />
            <rect
               id="rect3385"
               style="opacity:.4;fill:url(#linearGradient6995)"
               height="1"
               width="12"
               y="110"
               x="137" />
            <rect
               id="rect3387"
               style="opacity:.6;fill:url(#linearGradient6997)"
               height="1"
               width="12"
               y="111"
               x="137" />
            <rect
               id="rect3437"
               style="opacity:.3;fill:url(#linearGradient6999)"
               height="4"
               width="12"
               y="104"
               x="137" />
            <path
               id="path3449"
               style="opacity:.6;filter:url(#filter3451)"
               transform="matrix(1.2554,0,0,1,-35.754,0)"
               d="m140 106.08a1.1013 8.3969 0 1 1 -2.2026 0 1.1013 8.3969 0 1 1 2.2026 0z" />
            <path
               id="path3455"
               style="opacity:.8;filter:url(#filter3457);fill:#fff"
               d="m147.34 106.04a1.1932 8.0881 0 1 1 -2.3865 0 1.1932 8.0881 0 1 1 2.3865 0z" />
          </g>
        </g>
      </g>
    </g>
    <rect
       id="rect3003"
       style="opacity:.15;fill:#fff"
       transform="translate(98 3.8281e-7)"
       clip-path="url(#clipPath3009)"
       rx="25"
       ry="25"
       height="92"
       width="92"
       y="958.36"
       x="-96" />
  </g>
</svg>
