<svg height="96" width="96" xmlns="http://www.w3.org/2000/svg" xmlns:sodipodi="http://sodipodi.sourceforge.net/DTD/sodipodi-0.dtd" xmlns:inkscape="http://www.inkscape.org/namespaces/inkscape">
 <defs>
  <linearGradient x2="0" y1="88" y2="32" gradientUnits="userSpaceOnUse" id="linearGradient9120" inkscape:collect="always" gradientTransform="matrix(0.95238 0 0 0.95238 3.037 2.063)">
   <stop stop-color="#dcdcdc"/>
   <stop stop-color="#f0f0f0" offset="1"/>
  </linearGradient>
 </defs>
 <g inkscape:label="Layer 1" inkscape:groupmode="layer" transform="matrix(1 0 0 1 0 -956.36)">
  <rect x="8.751" rx="10.769" y="964.14" fill="#ccc" fill-opacity="1" stroke="none" height="80" width="80"/>
  <path d="m 48.75,990.70593 -39.03125,39.06247 0,6.0625 c 1.074638,2.374 2.969816,4.2691 5.34375,5.3438 l 5.125,0 0,0.9687 57.125,0 0,-0.9687 5.125,0 c 2.394318,-1.0839 4.305618,-3.0039 5.375,-5.4063 l 0,-6 L 48.75,990.70593 z" fill="#b3b3b3" inkscape:connector-curvature="0"/>
  <path d="M 48.75 36.34375 L 9.71875 75.40625 L 9.71875 81.46875 C 10.793388 83.842684 12.688566 85.737862 15.0625 86.8125 L 20.1875 86.8125 L 20.1875 87.78125 L 77.3125 87.78125 L 77.3125 86.8125 L 82.4375 86.8125 C 84.831818 85.728634 86.743118 83.808589 87.8125 81.40625 L 87.8125 75.40625 L 48.75 36.34375 z " fill="#e6e6e6" transform="matrix(1 0 0 1 0 956.36)"/>
  <path d="m 19.53125,966.14343 c -5.966154,0 -10.78125,4.78385 -10.78125,10.75 l 0,0.6875 40,39.99997 40,-39.99997 0,-0.6875 c 0,-5.96615 -4.815096,-10.75 -10.78125,-10.75 l -58.4375,0 z" fill="#999999" inkscape:connector-curvature="0"/>
  <path d="M 19.53125 7.78125 C 13.565096 7.78125 8.75 12.565096 8.75 18.53125 L 8.75 19.21875 L 48.75 59.21875 L 88.75 19.21875 L 88.75 18.53125 C 88.75 12.565096 83.934904 7.78125 77.96875 7.78125 L 19.53125 7.78125 z " fill="url(#linearGradient9120)" transform="matrix(1 0 0 1 0 956.36)"/>
  <path d="M 19.53125 7.78125 C 13.565096 7.78125 8.75 12.565096 8.75 18.53125 L 8.75 77 C 8.75 82.966154 13.565096 87.78125 19.53125 87.78125 L 20.1875 87.78125 L 20.1875 23.28125 L 48.625 51.71875 L 77.3125 23 L 77.3125 87.78125 L 77.96875 87.78125 C 83.934904 87.78125 88.75 82.966154 88.75 77 L 88.75 18.53125 C 88.75 12.565096 83.934904 7.78125 77.96875 7.78125 L 77.3125 7.78125 L 48.75 36.34375 L 20.1875 7.78125 L 19.53125 7.78125 z " fill="#f55" color="#000000" transform="matrix(1 0 0 1 0 956.36)"/>
 </g>
</svg>
