<svg height="96" width="96" xmlns="http://www.w3.org/2000/svg" xmlns:xlink="http://www.w3.org/1999/xlink" xmlns:sodipodi="http://sodipodi.sourceforge.net/DTD/sodipodi-0.dtd" xmlns:inkscape="http://www.inkscape.org/namespaces/inkscape">
 <defs>
  <clipPath clipPathUnits="userSpaceOnUse" id="clipPath3009">
   <path d="m -2,956.36218 -96,0 0,33.5624 96,25.68742 0,-59.24982 z" inkscape:connector-curvature="0"/>
  </clipPath>
  <linearGradient id="linearGradient5298">
   <stop stop-color="#2197f4" stop-opacity="1"/>
   <stop stop-color="#00a2f9" stop-opacity="1" offset="0.5"/>
   <stop stop-color="#32abff" stop-opacity="0" offset="1"/>
  </linearGradient>
  <linearGradient x1="688.2" x2="692.55" xlink:href="#linearGradient7926" y1="193.44" y2="189.66" gradientUnits="userSpaceOnUse" id="linearGradient4191" inkscape:collect="always" gradientTransform="matrix(1.54838 0 0 1.56012 -1049.9 -228.08)"/>
  <linearGradient id="linearGradient7926">
   <stop stop-color="#ffffff" stop-opacity="1"/>
   <stop stop-color="#ffffff" stop-opacity="0" offset="1"/>
  </linearGradient>
  <radialGradient cy="186.07" r="6.088" gradientUnits="userSpaceOnUse" id="radialGradient4187" cx="694.95" inkscape:collect="always" gradientTransform="matrix(1.06389 0.06728 -0.08557 1.33601 -698.27 -230.94)">
   <stop stop-color="#cdcdcd" stop-opacity="1"/>
   <stop stop-color="#292929" stop-opacity="1" offset="1"/>
  </radialGradient>
  <linearGradient x1="692.86" x2="690.53" xlink:href="#linearGradient7926" y1="185.03" y2="191.4" gradientUnits="userSpaceOnUse" id="linearGradient4189" inkscape:collect="always" gradientTransform="matrix(1.03963 0 0 0.96171 -697.45 -114.13)"/>
  <linearGradient id="linearGradient5350">
   <stop stop-color="#2197f4" stop-opacity="0"/>
   <stop stop-color="#1899f5" stop-opacity="1" offset="0.07"/>
   <stop stop-color="#109cf6" stop-opacity="1" offset="0.461"/>
   <stop stop-color="#00a2f9" stop-opacity="1" offset="0.927"/>
   <stop stop-color="#32abff" stop-opacity="0" offset="1"/>
  </linearGradient>
  <filter x="-0.777" y="-0.008" height="1.016" color-interpolation-filters="sRGB" id="filter5490" width="2.555">
   <feGaussianBlur stdDeviation="0.26665"/>
  </filter>
  <linearGradient id="linearGradient5694">
   <stop stop-color="#34aae1" stop-opacity="1"/>
   <stop stop-color="#34aae1" stop-opacity="0" offset="1"/>
  </linearGradient>
  <linearGradient x1="83.968" x2="75.46" xlink:href="#linearGradient5694" y1="34.926" y2="60.12" gradientUnits="userSpaceOnUse" id="linearGradient4825" inkscape:collect="always" gradientTransform="matrix(-0.55005 0 0 0.46055 86.57 14.436)"/>
  <radialGradient cy="10.345" r="42" gradientUnits="userSpaceOnUse" id="radialGradient4723" cx="47.771" inkscape:collect="always" gradientTransform="matrix(0.02992 0.93599 -1.96048 0.06131 65.25 -36.897)">
   <stop stop-color="#0e96d6" stop-opacity="1"/>
   <stop stop-color="#00161f" stop-opacity="1" offset="1"/>
  </radialGradient>
  <linearGradient x1="18.25" x2="18" xlink:href="#linearGradient5298" y1="9.875" y2="86.38" gradientUnits="userSpaceOnUse" id="linearGradient4727" inkscape:collect="always" gradientTransform="matrix(0.12668 0 0 0.617 77.02 2.297)"/>
  <linearGradient x1="18.25" x2="18" xlink:href="#linearGradient5298" y1="9.875" y2="86.38" gradientUnits="userSpaceOnUse" id="linearGradient4729" inkscape:collect="always" gradientTransform="matrix(0.12668 0 0 0.617 59.07 2.01)"/>
  <linearGradient x1="702.92" x2="702.62" y1="180.17" y2="196.18" gradientUnits="userSpaceOnUse" id="linearGradient4731" inkscape:collect="always" gradientTransform="matrix(1.43472 0 0 1.42562 -970.71 -198.09)">
   <stop stop-color="#a4a4a4" stop-opacity="1"/>
   <stop stop-color="#cfcfcf" stop-opacity="1" offset="1"/>
  </linearGradient>
  <linearGradient x1="687.57" x2="688.63" y1="185.2" y2="189.57" gradientUnits="userSpaceOnUse" id="linearGradient4733" inkscape:collect="always">
   <stop stop-color="#303030" stop-opacity="1"/>
   <stop stop-color="#1f1f1f" stop-opacity="0.543" offset="1"/>
  </linearGradient>
  <linearGradient x1="687.33" x2="686.51" y1="189.65" y2="186.06" gradientUnits="userSpaceOnUse" id="linearGradient4749" inkscape:collect="always">
   <stop stop-color="#e90000" stop-opacity="1"/>
   <stop stop-color="#6b0000" stop-opacity="1" offset="1"/>
  </linearGradient>
  <linearGradient x1="687.79" x2="688.81" y1="185.44" y2="188.71" gradientUnits="userSpaceOnUse" id="linearGradient4753" inkscape:collect="always">
   <stop stop-color="#878787" stop-opacity="1"/>
   <stop stop-color="#ffffff" stop-opacity="1" offset="1"/>
  </linearGradient>
  <linearGradient x1="687.33" x2="688.35" y1="184.82" y2="188.55" gradientUnits="userSpaceOnUse" id="linearGradient4757" inkscape:collect="always">
   <stop stop-color="#0c358c" stop-opacity="1"/>
   <stop stop-color="#396fe7" stop-opacity="1" offset="1"/>
  </linearGradient>
  <linearGradient x1="18.25" x2="18" xlink:href="#linearGradient5298" y1="9.875" y2="86.38" gradientUnits="userSpaceOnUse" id="linearGradient4759" inkscape:collect="always" gradientTransform="matrix(0.12668 0 0 0.63564 15.436 0.313)"/>
  <linearGradient x1="18.25" x2="18" xlink:href="#linearGradient5298" y1="9.875" y2="86.38" gradientUnits="userSpaceOnUse" id="linearGradient4761" inkscape:collect="always" gradientTransform="matrix(0.12668 0 0 0.617 19.296 1.382)"/>
  <linearGradient x1="19.07" x2="18" xlink:href="#linearGradient5350" y1="7.625" y2="85.63" gradientUnits="userSpaceOnUse" id="linearGradient4763" inkscape:collect="always" gradientTransform="matrix(0.08048 0 0 0.98591 9.517 -94.19)"/>
  <linearGradient x1="18.25" x2="18" xlink:href="#linearGradient5298" y1="9.875" y2="86.38" gradientUnits="userSpaceOnUse" id="linearGradient4765" inkscape:collect="always" gradientTransform="matrix(0.12668 0 0 0.617 23.338 1.382)"/>
  <linearGradient x1="18.25" x2="18" xlink:href="#linearGradient5298" y1="9.875" y2="86.38" gradientUnits="userSpaceOnUse" id="linearGradient4767" inkscape:collect="always" gradientTransform="matrix(0.12668 0 0 0.617 31.588 1.467)"/>
  <linearGradient x1="18.25" x2="18" xlink:href="#linearGradient5298" y1="9.875" y2="86.38" gradientUnits="userSpaceOnUse" id="linearGradient4769" inkscape:collect="always" gradientTransform="matrix(0.12668 0 0 0.617 40.788 1.912)"/>
  <linearGradient x1="18.25" x2="18" xlink:href="#linearGradient5298" y1="9.875" y2="86.38" gradientUnits="userSpaceOnUse" id="linearGradient4771" inkscape:collect="always" gradientTransform="matrix(0.12668 0 0 0.617 45.522 1.757)"/>
  <linearGradient x1="18.25" x2="18" xlink:href="#linearGradient5298" y1="9.875" y2="86.38" gradientUnits="userSpaceOnUse" id="linearGradient4773" inkscape:collect="always" gradientTransform="matrix(0.12668 0 0 0.617 49.803 2.01)"/>
  <linearGradient x1="18.25" x2="18" xlink:href="#linearGradient5298" y1="9.875" y2="86.38" gradientUnits="userSpaceOnUse" id="linearGradient4775" inkscape:collect="always" gradientTransform="matrix(0.12668 0 0 0.617 54.41 1.853)"/>
  <linearGradient x1="18.25" x2="18" xlink:href="#linearGradient5298" y1="9.875" y2="86.38" gradientUnits="userSpaceOnUse" id="linearGradient4777" inkscape:collect="always" gradientTransform="matrix(0.12668 0 0 0.617 63.868 1.922)"/>
  <linearGradient x1="18.25" x2="18" xlink:href="#linearGradient5298" y1="9.875" y2="86.38" gradientUnits="userSpaceOnUse" id="linearGradient4779" inkscape:collect="always" gradientTransform="matrix(0.12668 0 0 0.617 68.69 1.768)"/>
  <linearGradient x1="18.25" x2="18" xlink:href="#linearGradient5298" y1="9.875" y2="86.38" gradientUnits="userSpaceOnUse" id="linearGradient4781" inkscape:collect="always" gradientTransform="matrix(0.12668 0 0 0.617 72.899 2.422)"/>
  <linearGradient x1="29.578" x2="30.578" xlink:href="#linearGradient7926" y1="14.616" y2="83.56" gradientUnits="userSpaceOnUse" id="linearGradient4783" inkscape:collect="always" gradientTransform="matrix(0.82322 0 0 1 -9.62 0)"/>
  <linearGradient x1="19.07" x2="18" xlink:href="#linearGradient5350" y1="7.625" y2="85.63" gradientUnits="userSpaceOnUse" id="linearGradient4785" inkscape:collect="always" gradientTransform="matrix(0.08048 0 0 0.9784 13.836 -93.54)"/>
  <linearGradient x1="19.07" x2="18" xlink:href="#linearGradient5350" y1="7.625" y2="85.63" gradientUnits="userSpaceOnUse" id="linearGradient4787" inkscape:collect="always" gradientTransform="matrix(0.08048 0 0 1.05721 18.309 -98.26)"/>
  <linearGradient x1="19.07" x2="18" xlink:href="#linearGradient5350" y1="7.625" y2="85.63" gradientUnits="userSpaceOnUse" id="linearGradient4789" inkscape:collect="always" gradientTransform="matrix(0.08048 0 0 1.05721 22.628 -98.26)"/>
  <linearGradient x1="29.578" x2="30.578" xlink:href="#linearGradient7926" y1="14.616" y2="83.56" gradientUnits="userSpaceOnUse" id="linearGradient4791" inkscape:collect="always" gradientTransform="matrix(0.85167 0 0 0.617 -8.295 2.683)"/>
  <linearGradient x1="18.25" x2="18" xlink:href="#linearGradient5298" y1="9.875" y2="86.38" gradientUnits="userSpaceOnUse" id="linearGradient4793" inkscape:collect="always" gradientTransform="matrix(0.12668 0 0 0.617 35.798 1.467)"/>
  <linearGradient x1="19.07" x2="18" xlink:href="#linearGradient5350" y1="7.625" y2="85.63" gradientUnits="userSpaceOnUse" id="linearGradient4795" inkscape:collect="always" gradientTransform="matrix(0.08048 0 0 1.03469 26.793 -97.2)"/>
  <linearGradient x1="29.578" x2="30.578" xlink:href="#linearGradient7926" y1="14.616" y2="83.56" gradientUnits="userSpaceOnUse" id="linearGradient4797" inkscape:collect="always" gradientTransform="matrix(0.89217 0 0 0.72842 -2.1 -78.43)"/>
  <linearGradient x1="29.578" x2="30.578" xlink:href="#linearGradient7926" y1="14.616" y2="83.56" gradientUnits="userSpaceOnUse" id="linearGradient4799" inkscape:collect="always" gradientTransform="matrix(0.72869 0 0 0.617 22.499 2.683)"/>
  <linearGradient x1="18.25" x2="18" xlink:href="#linearGradient5298" y1="9.875" y2="86.38" gradientUnits="userSpaceOnUse" id="linearGradient4801" inkscape:collect="always" gradientTransform="matrix(0.12668 0 0 0.617 27.338 1.467)"/>
  <linearGradient x1="19.07" x2="18" xlink:href="#linearGradient5350" y1="7.625" y2="85.63" gradientUnits="userSpaceOnUse" id="linearGradient4803" inkscape:collect="always" gradientTransform="matrix(0.08048 0 0 1.03469 31.11 -97.2)"/>
  <linearGradient x1="29.578" x2="30.578" xlink:href="#linearGradient7926" y1="14.616" y2="83.56" gradientUnits="userSpaceOnUse" id="linearGradient4805" inkscape:collect="always" gradientTransform="matrix(1.05328 0 0 0.55912 46.3 7.849)"/>
  <linearGradient x1="19.07" x2="18" xlink:href="#linearGradient5350" y1="7.625" y2="85.63" gradientUnits="userSpaceOnUse" id="linearGradient4807" inkscape:collect="always" gradientTransform="matrix(0.08048 0 0 1.03469 35.431 -97.2)"/>
  <linearGradient x1="29.578" x2="30.578" xlink:href="#linearGradient7926" y1="14.616" y2="83.56" gradientUnits="userSpaceOnUse" id="linearGradient4809" inkscape:collect="always" gradientTransform="matrix(0.90207 0 0 0.47071 -0.089 15.1)"/>
  <linearGradient x1="29.578" x2="30.578" xlink:href="#linearGradient7926" y1="14.616" y2="83.56" gradientUnits="userSpaceOnUse" id="linearGradient4811" inkscape:collect="always" gradientTransform="matrix(1.0029 0 0 0.4293 28.991 18.616)"/>
  <linearGradient x1="19.07" x2="18" xlink:href="#linearGradient5350" y1="7.625" y2="85.63" gradientUnits="userSpaceOnUse" id="linearGradient4813" inkscape:collect="always" gradientTransform="matrix(0.08048 0 0 1.03469 39.75 -97.2)"/>
  <linearGradient x1="19.07" x2="18" xlink:href="#linearGradient5350" y1="7.625" y2="85.63" gradientUnits="userSpaceOnUse" id="linearGradient4815" inkscape:collect="always" gradientTransform="matrix(0.08048 0 0 1.03469 43.606 -99.2)"/>
  <linearGradient x1="19.07" x2="18" xlink:href="#linearGradient5350" y1="7.625" y2="85.63" gradientUnits="userSpaceOnUse" id="linearGradient4817" inkscape:collect="always" gradientTransform="matrix(0.08048 0 0 1.01968 47.925 -96.79)"/>
  <linearGradient x1="58.69" x2="47.24" y1="25.11" y2="72.14" gradientUnits="userSpaceOnUse" id="linearGradient4819" inkscape:collect="always" gradientTransform="matrix(0.72842 0 0 0.617 8.597 9.153)">
   <stop stop-color="#5bc5f5" stop-opacity="1"/>
   <stop stop-color="#0e96d6" stop-opacity="1" offset="1"/>
  </linearGradient>
  <linearGradient x1="29.578" x2="30.578" xlink:href="#linearGradient7926" y1="14.616" y2="83.56" gradientUnits="userSpaceOnUse" id="linearGradient4821" inkscape:collect="always" gradientTransform="matrix(1.02025 0 0 0.72842 -23.413 -86.4)"/>
  <radialGradient cy="20.693" r="2.298" xlink:href="#linearGradient7926" gradientUnits="userSpaceOnUse" id="radialGradient4823" cx="81.14" inkscape:collect="always" gradientTransform="matrix(1 0 0 0.92308 0 1.592)"/>
  <linearGradient x1="52.25" x2="55.25" xlink:href="#linearGradient7926" y1="70.5" y2="60.5" gradientUnits="userSpaceOnUse" id="linearGradient4829" inkscape:collect="always" gradientTransform="matrix(0.72842 0 0 0.617 8.566 5.3)"/>
  <linearGradient x1="36.772" x2="49.728" xlink:href="#linearGradient7926" y1="34.625" y2="48.875" gradientUnits="userSpaceOnUse" id="linearGradient4831" inkscape:collect="always" gradientTransform="matrix(0.48516 0 0 0.41063 18.837 8.12)"/>
  <linearGradient x1="83.968" x2="75.46" xlink:href="#linearGradient5694" y1="34.926" y2="60.12" gradientUnits="userSpaceOnUse" id="linearGradient4833" inkscape:collect="always" gradientTransform="matrix(0.55005 0 0 0.46055 19.17 16.436)"/>
  <linearGradient x1="82.43" x2="73.32" xlink:href="#linearGradient7926" y1="38.625" y2="46.13" gradientUnits="userSpaceOnUse" id="linearGradient4839" inkscape:collect="always" gradientTransform="matrix(1.05213 0 0 1.04546 -21.371 -11.355)"/>
  <clipPath clipPathUnits="userSpaceOnUse" id="clipPath4847">
   <rect x="6.347" rx="22.533" y="5.243" ry="22.61" height="83.21" width="82.922"/>
  </clipPath>
  <path d="m 690.2563,187.61038 a 2.7036252,2.7036252 0 1 1 -5.40725,0 2.7036252,2.7036252 0 1 1 5.40725,0 z" fill-opacity="1" stroke="none" id="SVGCleanerId_0"/>
  <path d="m 83.4386,20.693129 a 2.2980971,2.1213202 0 1 1 -4.596194,0 2.2980971,2.1213202 0 1 1 4.596194,0 z" fill="url(#radialGradient4823)" fill-opacity="1" stroke="none" id="SVGCleanerId_1"/>
 </defs>
 <g inkscape:label="Layer 1" inkscape:groupmode="layer" transform="matrix(1 0 0 1 0 -956.36)">
  <g clip-path="url(#clipPath4847)" transform="matrix(1.10948 0 0 1.10569 -5.04 952.56)">
   <path d="m 12,6 72,0 c 3.324,0 6,2.676 6,6 l 0,72 c 0,3.324 -2.676,6 -6,6 L 12,90 C 8.676,90 6,87.324 6,84 L 6,12 C 6,8.676 8.676,6 12,6 z" display="inline" fill="url(#radialGradient4723)" fill-opacity="1" fill-rule="nonzero" stroke="none" inkscape:connector-curvature="0" transform="matrix(1.0261 0 0 1.02594 -1.359 -2.721)"/>
   <rect x="78.893" rx="0.364" ry="0" y="7.233" fill="url(#linearGradient4727)" fill-opacity="1" stroke="none" height="47.972" width="0.728"/>
   <rect x="60.943" rx="0.364" ry="0" y="6.943" fill="url(#linearGradient4729)" fill-opacity="1" stroke="none" height="47.972" width="0.728"/>
   <path d="m 4.6532,56.309803 0,27.755094 c 0,3.434553 2.72347,6.192549 6.14239,6.192549 l 74.067367,0 c 3.418906,0 6.187225,-2.757996 6.187225,-6.192549 l 0,-27.755094 -86.396982,0 z" fill="url(#linearGradient4731)" fill-opacity="1" fill-rule="nonzero" stroke="none" inkscape:connector-curvature="0"/>
   <use xlink:href="#SVGCleanerId_0" fill="url(#linearGradient4733)" opacity="0.338" inkscape:connector-curvature="0" transform="matrix(2.23751 0 0 2.25937 -1461.23 -355.29)"/>
   <use xlink:href="#SVGCleanerId_0" fill="url(#linearGradient4733)" opacity="0.618" inkscape:connector-curvature="0" transform="matrix(2.0577 0 0 2.09591 -1337.65 -324.62)"/>
   <use xlink:href="#SVGCleanerId_0" fill="url(#linearGradient4733)" opacity="0.338" inkscape:connector-curvature="0" transform="matrix(2.23751 0 0 2.25937 -1474.93 -355.6)"/>
   <use xlink:href="#SVGCleanerId_0" fill="url(#linearGradient4733)" opacity="0.618" inkscape:connector-curvature="0" transform="matrix(2.0577 0 0 2.09591 -1351.35 -324.93)"/>
   <use xlink:href="#SVGCleanerId_0" fill="url(#linearGradient4733)" opacity="0.338" inkscape:connector-curvature="0" transform="matrix(2.23751 0 0 2.25937 -1488.23 -355.73)"/>
   <use xlink:href="#SVGCleanerId_0" fill="url(#linearGradient4733)" opacity="0.618" inkscape:connector-curvature="0" transform="matrix(2.0577 0 0 2.09591 -1364.65 -325.07)"/>
   <use xlink:href="#SVGCleanerId_0" fill="url(#linearGradient4733)" inkscape:connector-curvature="0" transform="matrix(1.86155 0 0 1.86706 -1229.78 -282.22)"/>
   <use xlink:href="#SVGCleanerId_0" fill="url(#linearGradient4749)" inkscape:connector-curvature="0" transform="matrix(1.48739 0 0 1.45015 -972.53 -204)"/>
   <path stroke-opacity="0.614" d="m 30.31417,68.993467 a 8.6526735,8.6035222 0 0 1 -17.305347,0 8.6526735,8.6035222 0 1 1 17.305347,0 z" stroke-width="1.984" fill="#000510" fill-opacity="1" stroke="url(#linearGradient4191)" stroke-dasharray="none" stroke-miterlimit="4" inkscape:connector-curvature="0"/>
   <path stroke-opacity="0.848" d="m 27.842019,68.993471 a 5.8096525,5.303541 0 0 1 -11.619305,0 5.8096525,5.303541 0 1 1 11.619305,0 z" stroke-width="1.572" fill="url(#radialGradient4187)" fill-opacity="1" stroke="url(#linearGradient4189)" stroke-dasharray="none" stroke-miterlimit="4" inkscape:connector-curvature="0"/>
   <rect x="4.545" rx="0" y="-58.62" fill="#010101" fill-opacity="1" stroke="none" height="0.816" opacity="0.402" width="86.52" transform="matrix(1 0 0 -1 0 0)"/>
   <use xlink:href="#SVGCleanerId_0" fill="url(#linearGradient4733)" inkscape:connector-curvature="0" transform="matrix(1.86155 0 0 1.86706 -1216.48 -281.99)"/>
   <use xlink:href="#SVGCleanerId_0" fill="url(#linearGradient4753)" inkscape:connector-curvature="0" transform="matrix(1.48739 0 0 1.45015 -959.22 -203.78)"/>
   <use xlink:href="#SVGCleanerId_0" fill="url(#linearGradient4733)" inkscape:connector-curvature="0" transform="matrix(1.86155 0 0 1.86706 -1202.83 -281.66)"/>
   <use xlink:href="#SVGCleanerId_0" fill="url(#linearGradient4757)" inkscape:connector-curvature="0" transform="matrix(1.48739 0 0 1.45015 -945.57 -203.44)"/>
   <rect x="17.305" rx="0.364" ry="0" y="5.398" fill="url(#linearGradient4759)" fill-opacity="1" stroke="none" height="49.42" width="0.728"/>
   <rect x="21.16" rx="0.364" ry="0" y="6.318" fill="url(#linearGradient4761)" fill-opacity="1" stroke="none" height="47.972" width="0.728"/>
   <rect x="10.704" rx="0.231" ry="0" y="-86.3" fill="url(#linearGradient4763)" fill-opacity="1" stroke="none" height="76.65" width="0.463" transform="matrix(0 1 -1 0 0 0)"/>
   <rect x="25.21" rx="0.364" ry="0" y="6.318" fill="url(#linearGradient4765)" fill-opacity="1" stroke="none" height="47.972" width="0.728"/>
   <rect x="33.457" rx="0.364" ry="0" y="6.403" fill="url(#linearGradient4767)" fill-opacity="1" stroke="none" height="47.972" width="0.728"/>
   <rect x="42.656" rx="0.364" ry="0" y="6.848" fill="url(#linearGradient4769)" fill-opacity="1" stroke="none" height="47.972" width="0.728"/>
   <rect x="47.39" rx="0.364" ry="0" y="6.693" fill="url(#linearGradient4771)" fill-opacity="1" stroke="none" height="47.972" width="0.728"/>
   <rect x="51.672" rx="0.364" ry="0" y="6.943" fill="url(#linearGradient4773)" fill-opacity="1" stroke="none" height="47.972" width="0.728"/>
   <rect x="56.28" rx="0.364" ry="0" y="6.789" fill="url(#linearGradient4775)" fill-opacity="1" stroke="none" height="47.972" width="0.728"/>
   <rect x="65.736" rx="0.364" ry="0" y="6.858" fill="url(#linearGradient4777)" fill-opacity="1" stroke="none" height="47.972" width="0.728"/>
   <rect x="70.55" rx="0.364" ry="0" y="6.704" fill="url(#linearGradient4779)" fill-opacity="1" stroke="none" height="47.972" width="0.728"/>
   <rect x="74.77" rx="0.364" ry="0" y="7.358" fill="url(#linearGradient4781)" fill-opacity="1" stroke="none" height="47.972" width="0.728"/>
   <rect x="14.729" rx="0.411" ry="0" y="6.5" fill="url(#linearGradient4783)" fill-opacity="1" stroke="none" height="77.75" filter="url(#filter5490)" width="0.823" transform="matrix(0 0.617 -0.83944 0 87.71 6.504)"/>
   <rect x="15.02" rx="0.231" ry="0" y="-85.72" fill="url(#linearGradient4785)" fill-opacity="1" stroke="none" height="76.07" width="0.463" transform="matrix(0 1 -1 0 0 0)"/>
   <rect x="19.496" rx="0.231" ry="0" y="-89.8" fill="url(#linearGradient4787)" fill-opacity="1" stroke="none" height="82.2" width="0.463" transform="matrix(0 1 -1 0 0 0)"/>
   <rect x="23.815" rx="0.231" ry="0" y="-89.8" fill="url(#linearGradient4789)" fill-opacity="1" stroke="none" height="82.2" width="0.463" transform="matrix(0 1 -1 0 0 0)"/>
   <rect x="16.896" rx="0.426" ry="0" y="6.693" fill="url(#linearGradient4791)" fill-opacity="1" stroke="none" height="47.972" width="0.852"/>
   <rect x="37.667" rx="0.364" ry="0" y="6.403" fill="url(#linearGradient4793)" fill-opacity="1" stroke="none" height="47.972" width="0.728"/>
   <rect x="27.98" rx="0.231" ry="0" y="-88.93" fill="url(#linearGradient4795)" fill-opacity="1" stroke="none" height="80.45" width="0.463" transform="matrix(0 1 -1 0 0 0)"/>
   <rect x="24.289" rx="0.446" ry="0" y="-73.69" fill="url(#linearGradient4797)" fill-opacity="1" stroke="none" height="56.635" width="0.892" transform="matrix(0 1 -1 0 0 0)"/>
   <rect x="44.05" rx="0.364" ry="0" y="6.693" fill="url(#linearGradient4799)" fill-opacity="1" stroke="none" height="47.972" width="0.729"/>
   <rect x="29.21" rx="0.364" ry="0" y="6.403" fill="url(#linearGradient4801)" fill-opacity="1" stroke="none" height="47.972" width="0.728"/>
   <rect x="32.3" rx="0.231" ry="0" y="-88.93" fill="url(#linearGradient4803)" fill-opacity="1" stroke="none" height="80.45" width="0.463" transform="matrix(0 1 -1 0 0 0)"/>
   <rect x="77.46" rx="0.526" ry="0" y="11.483" fill="url(#linearGradient4805)" fill-opacity="1" stroke="none" height="43.47" width="1.053"/>
   <rect x="36.618" rx="0.231" ry="0" y="-88.93" fill="url(#linearGradient4807)" fill-opacity="1" stroke="none" height="80.45" width="0.463" transform="matrix(0 1 -1 0 0 0)"/>
   <path d="m 40.153668,14.070679 11.143336,17.809686 22.978804,-16.537566 0,33.075133 c 0,0 -0.717949,1.480437 -2.230988,2.04642 -1.513039,0.565984 -6.42067,0.07378 -6.42067,0.07378 L 65.358832,29.972185 45.725335,46.933791 C 43.502354,36.824764 40.684303,29.654155 40.684303,29.654155 l -14.725124,20.883978 -9.816747,-1e-6 c 0,0 17.513406,-22.208587 24.011236,-36.467453 z" fill="#021c27" fill-opacity="1" stroke="none" opacity="0.127" inkscape:connector-curvature="0"/>
   <rect x="26.593" rx="0.451" ry="0" y="18.16" fill="url(#linearGradient4809)" fill-opacity="1" stroke="none" height="36.598" width="0.902"/>
   <rect x="58.654" rx="0.5" ry="0" y="21.407" fill="url(#linearGradient4811)" fill-opacity="1" stroke="none" height="33.378" width="1"/>
   <rect x="40.937" rx="0.231" ry="0" y="-88.93" fill="url(#linearGradient4813)" fill-opacity="1" stroke="none" height="80.45" width="0.463" transform="matrix(0 1 -1 0 0 0)"/>
   <rect x="44.793" rx="0.231" ry="0" y="-90.93" fill="url(#linearGradient4815)" fill-opacity="1" stroke="none" height="80.45" width="0.463" transform="matrix(0 1 -1 0 0 0)"/>
   <rect x="49.11" rx="0.231" ry="0" y="-88.63" fill="url(#linearGradient4817)" fill-opacity="1" stroke="none" height="79.28" width="0.463" transform="matrix(0 1 -1 0 0 0)"/>
   <path d="m 40.21889,15.445679 10.999572,17.931118 22.682346,-16.650324 0,33.30065 c 0,0 -0.708686,1.490531 -2.202205,2.060373 -1.493519,0.569843 -6.337835,0.07428 -6.337835,0.07428 L 65.098873,31.455607 45.718675,48.532862 C 43.524374,38.354909 40.742679,31.135408 40.742679,31.135408 L 26.20753,52.16178 l -9.690098,-10e-7 c 0,0 17.287459,-22.360012 23.701458,-36.7161 z" fill="#021c27" fill-opacity="1" stroke="none" opacity="0.431" inkscape:connector-curvature="0"/>
   <path d="m 40.335742,16.945679 10.879768,17.809686 22.435298,-16.537566 0,33.075133 c 0,0 -0.700967,1.480437 -2.178219,2.04642 -1.477252,0.565984 -6.268806,0.07378 -6.268806,0.07378 L 64.944741,32.847185 45.775625,49.808791 C 43.605224,39.699764 40.853826,32.529155 40.853826,32.529155 l -14.376837,20.883978 -9.584557,-1e-6 c 0,0 17.09917,-22.208587 23.44331,-36.467453 z" fill="#021c27" fill-opacity="1" stroke="none" opacity="0.623" inkscape:connector-curvature="0"/>
   <path d="m 39.75852,18.648071 10.816578,18.324 22.304943,-17.015136 -0.291764,36.059632 c 0,0 0.03257,-0.07128 -0.852682,0.07613 -0.885251,0.147409 -7.253523,0.07584 -7.253523,0.07584 L 64.224554,35.00866 45.166796,52.460108 C 43.009007,42.059135 40.2736,34.681451 40.2736,34.681451 l -14.29331,21.487087 -9.52886,0 c 0,0 16.99981,-22.849939 23.30709,-37.520567 z" fill="url(#linearGradient4819)" fill-opacity="1" stroke="none" inkscape:connector-curvature="0"/>
   <rect x="6.764" rx="0.51" ry="0" y="-81.67" fill="url(#linearGradient4821)" fill-opacity="1" stroke="none" height="56.635" width="1.02" transform="matrix(0 1 -1 0 0 0)"/>
   <use xlink:href="#SVGCleanerId_1" inkscape:connector-curvature="0" transform="matrix(0.56846 0 0 0.54117 36.22 4.511)"/>
   <use xlink:href="#SVGCleanerId_1" inkscape:connector-curvature="0" transform="matrix(0.65005 0 0 0.62956 -8.165 -5.874)"/>
   <use xlink:href="#SVGCleanerId_1" inkscape:connector-curvature="0" transform="matrix(0.54126 0 0 0.80634 -26.675 -10.03)"/>
   <path stroke-opacity="1" d="m 44.076279,41.857085 2.185274,8.021017 10.380052,-9.255019" stroke-width="1.01" fill="none" stroke="url(#linearGradient4829)" stroke-dasharray="none" opacity="0.784" stroke-linecap="butt" stroke-linejoin="miter" stroke-miterlimit="4" inkscape:connector-curvature="0"/>
   <path stroke-opacity="1" d="M 43.580019,27.419927 39.820058,21.36316 27.562824,44.293292" stroke-width="1.116" fill="none" stroke="url(#linearGradient4831)" stroke-dasharray="none" stroke-linecap="butt" stroke-linejoin="miter" stroke-miterlimit="4" inkscape:connector-curvature="0"/>
   <path stroke-opacity="1" d="m 59.910919,35.828221 7.663356,-6.381827 0,19.458076" stroke-width="2.614" fill="none" stroke="url(#linearGradient4833)" stroke-dasharray="none" opacity="0.422" stroke-linecap="butt" stroke-linejoin="miter" stroke-miterlimit="4" inkscape:connector-curvature="0"/>
   <use xlink:href="#SVGCleanerId_1" inkscape:connector-curvature="0" transform="matrix(0.73164 0 0 0.68849 22.1 -7.1)"/>
   <use xlink:href="#SVGCleanerId_1" inkscape:connector-curvature="0" transform="matrix(0.56846 0 0 0.68849 -19.16 3.94)"/>
   <path stroke-opacity="1" d="m 54.907827,35.690445 16.571003,-13.06821 0,44.170549" stroke-width="1.678" fill="none" stroke="url(#linearGradient4839)" stroke-dasharray="none" opacity="0.765" stroke-linecap="butt" stroke-linejoin="miter" stroke-miterlimit="4" inkscape:connector-curvature="0"/>
   <rect x="4.84" rx="0" y="56.03" fill="#ffffff" fill-opacity="1" stroke="none" height="2.069" opacity="0.834" width="86.23"/>
   <use xlink:href="#SVGCleanerId_1" inkscape:connector-curvature="0" transform="matrix(0.48687 0 0 0.62956 19.633 8.867)"/>
   <use xlink:href="#SVGCleanerId_1" inkscape:connector-curvature="0" transform="matrix(0.48687 0 0 0.62956 34.508 11.617)"/>
   <use xlink:href="#SVGCleanerId_1" inkscape:connector-curvature="0" transform="matrix(0.73164 0 0 0.68849 18.597 -2.725)"/>
   <path stroke-opacity="1" d="m 45.199275,36.453221 -5.038356,-9.006827 -8.625,15.083076" stroke-width="2.614" fill="none" stroke="url(#linearGradient4825)" stroke-dasharray="none" opacity="0.422" stroke-linecap="butt" stroke-linejoin="miter" stroke-miterlimit="4" inkscape:connector-curvature="0"/>
  </g>
  <rect x="-96" rx="25" y="958.36" clip-path="url(#clipPath3009)" fill="#ffffff" fill-opacity="1" height="92" opacity="0.15" width="92" transform="matrix(1 0 0 1 98 0)"/>
 </g>
</svg>
