<svg height="96" width="96" xmlns="http://www.w3.org/2000/svg" xmlns:xlink="http://www.w3.org/1999/xlink" xmlns:sodipodi="http://sodipodi.sourceforge.net/DTD/sodipodi-0.dtd" xmlns:inkscape="http://www.inkscape.org/namespaces/inkscape">
 <defs>
  <radialGradient cy="69" r="14" xlink:href="#radialGradient4290-2" gradientUnits="userSpaceOnUse" id="radialGradient3314" cx="20" gradientTransform="matrix(1 0 0 1.5 0 -76.5)"/>
  <radialGradient cy="69" r="14" gradientUnits="userSpaceOnUse" id="radialGradient4290-2" cx="20" gradientTransform="matrix(1 0 0 1.5 1 -33.5)">
   <stop stop-color="#d9bf83"/>
   <stop stop-color="#ebe5bd" offset="1"/>
  </radialGradient>
  <linearGradient x2="0" xlink:href="#linearGradient4292-4" y1="90" y2="47.988" gradientUnits="userSpaceOnUse" id="linearGradient3309-7" gradientTransform="matrix(1 0 0 1 -1 -43)"/>
  <linearGradient x2="0" y1="90" y2="47.988" gradientUnits="userSpaceOnUse" id="linearGradient4292-4">
   <stop stop-color="#a27a47"/>
   <stop stop-color="#d5aa65" offset="1"/>
  </linearGradient>
  <radialGradient cy="69" r="14" xlink:href="#radialGradient4290-2" gradientUnits="userSpaceOnUse" id="radialGradient3294" cx="20" gradientTransform="matrix(1 0 0 1.5 0 -34.5)"/>
  <linearGradient x2="0" xlink:href="#linearGradient4292-4" y1="90" y2="47.988" gradientUnits="userSpaceOnUse" id="linearGradient3289-5" gradientTransform="matrix(1 0 0 1 -1 -1)"/>
  <radialGradient cy="69" r="14" xlink:href="#radialGradient4290-2" gradientUnits="userSpaceOnUse" id="radialGradient3302" cx="20" gradientTransform="matrix(1 0 0 1.5 28 -76.5)"/>
  <radialGradient cy="69" r="14" xlink:href="#radialGradient4290-2" gradientUnits="userSpaceOnUse" id="radialGradient3286" cx="20" gradientTransform="matrix(1 0 0 1.5 28 -34.5)"/>
  <radialGradient cy="69" r="14" xlink:href="#radialGradient4290-2" gradientUnits="userSpaceOnUse" id="radialGradient3322" cx="20" gradientTransform="matrix(1 0 0 1.5 56 -76.5)"/>
  <radialGradient cy="69" r="14" xlink:href="#radialGradient4290-2" gradientUnits="userSpaceOnUse" id="radialGradient3278" cx="20" gradientTransform="matrix(1 0 0 1.5 56 -34.5)"/>
  <clipPath clipPathUnits="userSpaceOnUse" id="clipPath3009">
   <path d="m -2,956.36218 -96,0 0,33.5624 96,25.68742 0,-59.24982 z" inkscape:connector-curvature="0"/>
  </clipPath>
  <path d="M 11,5 C 7.676,5 5,7.676 5,11 v 30 c 0,3.324 2.676,6 6,6 h 16 c 3.324,0 6,-2.676 6,-6 V 11 C 33,7.676 30.324,5 27,5 H 11 z m 0,1.0625 h 16 c 2.7455,0 4.9375,2.192 4.9375,4.9375 v 30 c 0,2.7455 -2.192,4.9375 -4.9375,4.9375 H 11 c -2.7455,0 -4.9375,-2.192 -4.9375,-4.938 v -30 c 0,-2.746 2.192,-4.938 4.9375,-4.938 z" fill="url(#linearGradient3309-7)" color="#000000" id="SVGCleanerId_0"/>
  <path d="m 9,1.42 c -4.18,0 -7.58,3.4 -7.58,7.58 0,4.18 3.4,7.58 7.58,7.58 4.18,0 7.58,-3.4 7.58,-7.58 0,-4.18 -3.4,-7.58 -7.58,-7.58 z m 0,13.69 c -1.36,0 -2.49,-0.97 -2.75,-2.25 0.78,0.56 1.72,0.89 2.75,0.89 1.03,0 1.97,-0.34 2.75,-0.89 -0.26,1.28 -1.39,2.25 -2.75,2.25 z M 9,2.89 c 1.36,0 2.49,0.97 2.75,2.25 C 10.97,4.59 10.03,4.25 9,4.25 7.97,4.25 7.03,4.59 6.25,5.14 6.51,3.86 7.64,2.89 9,2.89 z M 12.75,9 c 0,0.57 -0.14,1.11 -0.37,1.59 C 12.04,9.92 11.51,9.37 10.85,9 11.51,8.63 12.04,8.08 12.38,7.41 12.61,7.89 12.75,8.43 12.75,9 z M 5.25,9 C 5.25,8.43 5.39,7.89 5.62,7.41 5.96,8.08 6.49,8.63 7.15,9 6.49,9.37 5.96,9.92 5.62,10.59 5.39,10.11 5.25,9.57 5.25,9 z m 6.34,2.7 C 10.57,11.43 9.77,10.6 9.56,9.56 c 1.04,0.21 1.87,1.01 2.14,2.03 L 11.59,11.7 z M 6.3,11.59 C 6.57,10.57 7.4,9.77 8.45,9.56 8.24,10.6 7.44,11.43 6.42,11.7 6.37,11.66 6.34,11.63 6.3,11.59 z M 6.41,6.3 C 7.43,6.57 8.23,7.4 8.44,8.45 7.4,8.23 6.57,7.43 6.3,6.41 L 6.41,6.3 z M 11.7,6.41 C 11.43,7.43 10.6,8.23 9.56,8.44 9.77,7.39 10.57,6.57 11.59,6.29 11.63,6.34 11.66,6.37 11.7,6.41 z M 9,7.15 C 8.63,6.49 8.08,5.96 7.41,5.62 7.89,5.39 8.43,5.25 9,5.25 c 0.57,0 1.11,0.14 1.59,0.37 C 9.92,5.96 9.37,6.49 9,7.15 z m 0,3.7 c 0.37,0.66 0.92,1.19 1.59,1.53 C 10.1,12.61 9.57,12.75 9,12.75 8.43,12.75 7.89,12.61 7.41,12.38 8.08,12.04 8.63,11.51 9,10.85 z m -3.86,0.9 C 3.86,11.49 2.89,10.36 2.89,9 2.89,7.64 3.86,6.51 5.14,6.25 4.59,7.03 4.25,7.97 4.25,9 c 0,1.03 0.34,1.97 0.89,2.75 z m 7.72,-5.5 c 1.28,0.26 2.25,1.39 2.25,2.75 0,1.36 -0.97,2.49 -2.25,2.75 0.56,-0.78 0.89,-1.72 0.89,-2.75 0,-1.03 -0.34,-1.97 -0.89,-2.75 z m 2.15,0.08 C 14.42,5.73 13.63,5.34 12.76,5.24 12.65,4.36 12.27,3.58 11.67,2.99 c 1.48,0.66 2.68,1.86 3.34,3.34 z M 6.33,2.99 C 5.73,3.58 5.35,4.37 5.24,5.24 4.36,5.35 3.58,5.73 2.99,6.33 3.65,4.85 4.85,3.65 6.33,2.99 z m -3.34,8.68 c 0.59,0.6 1.38,0.99 2.25,1.09 0.11,0.88 0.49,1.66 1.09,2.25 C 4.85,14.35 3.65,13.15 2.99,11.67 z m 8.68,3.34 c 0.6,-0.59 0.99,-1.38 1.09,-2.25 0.88,-0.11 1.66,-0.49 2.25,-1.09 -0.66,1.48 -1.86,2.68 -3.34,3.34 z" id="SVGCleanerId_1"/>
  <path d="M 9,0 C 4.04,0 0,4.04 0,9 c 0,4.96 4.04,9 9,9 4.96,0 9,-4.04 9,-9 C 18,4.04 13.96,0 9,0 z M 9,17 C 4.59,17 1,13.41 1,9 1,4.59 4.59,1 9,1 c 4.41,0 8,3.59 8,8 0,4.41 -3.59,8 -8,8 z" id="SVGCleanerId_2"/>
 </defs>
 <g inkscape:label="Layer 1" inkscape:groupmode="layer" transform="matrix(1 0 0 1 0 -956.36)">
  <rect x="2" rx="25" y="958.36" fill="#215c26" fill-opacity="1" height="92" width="92"/>
  <g transform="matrix(0.77381 0 0 0.77381 11.631 967.99)">
   <rect x="6" rx="5" y="6" fill="url(#radialGradient3314)" color="#000000" height="40" width="26"/>
   <use xlink:href="#SVGCleanerId_0" inkscape:connector-curvature="0"/>
   <use xlink:href="#SVGCleanerId_0" inkscape:connector-curvature="0"/>
   <rect x="6" rx="5" y="48" fill="url(#radialGradient3294)" color="#000000" height="40" width="26"/>
   <path d="m 11,47 c -3.324,0 -6,2.676 -6,6 v 30 c 0,3.324 2.676,6 6,6 h 16 c 3.324,0 6,-2.676 6,-6 V 53 c 0,-3.324 -2.676,-6 -6,-6 H 11 z m 0,1.0625 h 16 c 2.7455,0 4.9375,2.192 4.9375,4.9375 v 30 c 0,2.7455 -2.192,4.9375 -4.9375,4.9375 H 11 c -2.7455,0 -4.9375,-2.192 -4.9375,-4.938 v -30 c 0,-2.746 2.192,-4.938 4.9375,-4.938 z" fill="url(#linearGradient3289-5)" color="#000000" inkscape:connector-curvature="0"/>
   <rect x="34" rx="5" y="6" fill="url(#radialGradient3302)" color="#000000" height="40" width="26"/>
   <path d="m 39,5 c -3.324,0 -6,2.676 -6,6 v 30 c 0,3.324 2.676,6 6,6 h 16 c 3.324,0 6,-2.676 6,-6 V 11 C 61,7.676 58.324,5 55,5 H 39 z m 0,1.0625 h 16 c 2.7455,0 4.9375,2.192 4.9375,4.9375 v 30 c 0,2.7455 -2.192,4.9375 -4.9375,4.9375 H 39 c -2.7455,0 -4.9375,-2.192 -4.9375,-4.938 v -30 c 0,-2.746 2.192,-4.938 4.938,-4.938 z" fill="url(#linearGradient3309-7)" color="#000000" inkscape:connector-curvature="0"/>
   <rect x="34" rx="5" y="48" fill="url(#radialGradient3286)" color="#000000" height="40" width="26"/>
   <path d="m 39,47 c -3.324,0 -6,2.676 -6,6 v 30 c 0,3.324 2.676,6 6,6 h 16 c 3.324,0 6,-2.676 6,-6 V 53 c 0,-3.324 -2.676,-6 -6,-6 H 39 z m 0,1.0625 h 16 c 2.7455,0 4.9375,2.192 4.9375,4.9375 v 30 c 0,2.7455 -2.192,4.9375 -4.9375,4.9375 H 39 c -2.7455,0 -4.9375,-2.192 -4.9375,-4.938 v -30 c 0,-2.7455 2.192,-4.9375 4.9375,-4.9375 z" fill="url(#linearGradient3289-5)" color="#000000" inkscape:connector-curvature="0"/>
   <rect x="62" rx="5" y="6" fill="url(#radialGradient3322)" color="#000000" height="40" width="26"/>
   <path d="m 67,5 c -3.324,0 -6,2.676 -6,6 v 30 c 0,3.324 2.676,6 6,6 h 16 c 3.324,0 6,-2.676 6,-6 V 11 C 89,7.676 86.324,5 83,5 H 67 z m 0,1.0625 h 16 c 2.7455,0 4.9375,2.192 4.9375,4.9375 v 30 c 0,2.7455 -2.192,4.9375 -4.9375,4.9375 H 67 c -2.7455,0 -4.9375,-2.192 -4.9375,-4.938 v -30 c 0,-2.746 2.192,-4.938 4.938,-4.938 z" fill="url(#linearGradient3309-7)" color="#000000" inkscape:connector-curvature="0"/>
   <rect x="62" rx="5" y="48" fill="url(#radialGradient3278)" color="#000000" height="40" width="26"/>
   <path d="m 67,47 c -3.324,0 -6,2.676 -6,6 v 30 c 0,3.324 2.676,6 6,6 h 16 c 3.324,0 6,-2.676 6,-6 V 53 c 0,-3.324 -2.676,-6 -6,-6 H 67 z m 0,1.0625 h 16 c 2.7455,0 4.9375,2.192 4.9375,4.9375 v 30 c 0,2.7455 -2.192,4.9375 -4.9375,4.9375 H 67 c -2.7455,0 -4.9375,-2.192 -4.9375,-4.938 v -30 c 0,-2.7455 2.192,-4.9375 4.9375,-4.9375 z" fill="url(#linearGradient3289-5)" color="#000000" inkscape:connector-curvature="0"/>
   <path d="m 44.885,11.59 c -0.17944,0.17944 -0.2243,0.4486 -0.2243,0.76262 0,0.58318 0.17944,1.3009 0.26916,1.5701 0,0 0.13458,3.1402 0.17944,3.4991 -0.40374,0.04486 -1.1215,0.08972 -1.3907,0.17944 h -0.35888 c -0.76262,0.04486 -1.4804,0.08972 -1.7944,0.40374 l -0.13458,0.13458 0.13458,0.17944 c 0.2243,0.26916 0.31402,1.0318 0.40374,1.8392 0.2243,1.6598 0.49346,3.7234 1.8392,4.5308 l 0.26916,0.13458 v -0.31402 c 0,0 0.04486,-0.13458 0.04486,-0.31402 0,-0.13458 -0.04486,-0.35888 -0.08972,-0.6729 0.35888,0.04486 1.1215,0.13458 1.3907,0.13458 0.04486,0.35888 1.2112,14.983 1.2112,14.983 h 0.4486 c 0,0 0.49346,-14.445 0.49346,-14.893 0.31402,0 1.7047,0.04486 2.1084,0.08972 -0.08972,0.26916 -0.4486,1.3907 -0.4486,1.3907 l 0.62804,-0.58318 c 0.17944,-0.13458 4.0822,-3.6785 3.5439,-6.0112 -0.17944,-0.76262 -0.80748,-1.3009 -1.8392,-1.5701 h -0.091 c -0.58318,0 -2.3776,0.04486 -3.7234,0.13458 0.04486,-1.1664 0.04486,-1.7944 0.04486,-2.1084 v -0.40373 c 0,-0.2243 0.2243,-0.53832 0.40374,-0.76262 0.17944,-0.26916 0.40374,-0.49346 0.40374,-0.76262 0,-0.08972 -0.04486,-0.17944 -0.08972,-0.26916 -0.26916,-0.40374 -2.243,-1.4355 -3.0953,-1.5252 -0.26916,0.04486 -0.4486,0.08972 -0.53832,0.2243 z m 0.04486,7.357 h 0.2243 c 0,0.40374 0.13458,3.2299 0.17944,3.6336 -0.35888,-0.04486 -1.2112,-0.13458 -1.4804,-0.13458 -0.13458,-0.58318 -0.17944,-1.2112 -0.2243,-1.8392 -0.04485,-0.53832 -0.08972,-1.0766 -0.17944,-1.5701 0.40374,0 1.4804,-0.08972 1.4804,-0.08972 z m 2.7364,1.3907 c 0,0 0.04485,-1.0766 0.04485,-1.4355 0.58318,0.08972 1.3458,0.13458 2.0635,0.13458 h 0.80748 c 0,0.17944 -0.04486,0.40374 -0.04486,0.40374 -0.08972,0.98692 -0.2243,2.1533 -0.62804,3.3196 -0.26916,0 -1.929,-0.08972 -2.2878,-0.13458 0,-0.31402 0.04486,-2.2878 0.04486,-2.2878 z" fill="#a31717" inkscape:connector-curvature="0"/>
   <g transform="matrix(0.42888 0 0 0.42888 44.17 12.03)">
    <path d="m 65.371,137.69 c 0,0.1 -1.4,5.1 -5.1,7.1 -0.5,-0.6 -3.1,-4.2 -3.1,-4.2 l -0.9,0.5 4.4,11.4 1,-0.2 c 0,-2.2 1.1,-3.5 2.4,-4.9 1.8,-2.1 3.8,-4.5 2.3,-9.7 l -0.5,-1.7 -0.5,1.7 z" fill="#004c00" inkscape:connector-curvature="0"/>
    <path d="m 69.871,126.89 c 0,0 -0.5,4.9 -1.9,7.8 l -0.3,0.7 0.7,0.1 c 1.8,0.1 3.5,-3.7 4.1,-5.4 0.4,0 1.4,0.1 2,0.1 -0.3,1.2 -0.7,2.8 -0.7,3.8 0,0.4 0,0.7 0.2,0.9 l 0.5,0.3 c 0.8,0.1 5.2,-0.2 6.1,-0.3 v -1 c -1.5,-0.2 -3.3,-0.7 -3.5,-1.2 -0.2,-0.6 0.6,-3 1.5,-5 l 0.3,-0.7 -9,-0.6 v 0.5 z" fill="#004c00" inkscape:connector-curvature="0"/>
    <path d="m 82.371,136.49 -14.7,0.4 c 0,0 4.9,6.3 5.4,6.9 -2.6,2.4 -4.9,4.2 -7,5.4 l -0.6,0.4 0.6,0.5 c 1.4,1.1 4.2,-0.2 8.6,-4.2 2.3,3.2 3.8,5.5 4.3,6.9 l 0.2,0.7 2.7,-2.2 v -0.5 c 0,-0.5 0,-2.1 -4.7,-7.3 3,-3.1 5.6,-6 5.6,-6.1 l 0.7,-0.9 h -1.1 z m -4.7,2.8 c -0.8,0.9 -1.7,1.8 -2.1,2.3 l -1.9,-1.9 c 1.1,-0.2 2.7,-0.3 4,-0.4 z" fill="#004c00" inkscape:connector-curvature="0"/>
    <path d="m 71.471,115.09 -1.7,1.7 -4.5,-5.2 h -0.2 c -0.7,0 -4.3,0.1 -5.2,1.4 -0.1,0.1 -0.1,0.3 -0.1,0.4 v 0.2 c 0.1,0.5 0.7,0.7 1.8,1.1 0.5,0.2 1.2,0.5 1.5,0.7 -1.1,2.3 -2.3,4.4 -3.7,6.4 -0.7,-0.4 -4.1,-2.5 -4.1,-2.5 l -0.6,0.8 c 0,0 2.8,3.1 3.3,3.6 -2.8,3.5 -6.2,6.6 -10.4,9.5 l 0.4,0.9 c 12.8,-3.3 21.9,-16.2 22.1,-16.5 l 2.3,2.2 c -3.2,2 -6.2,3.8 -6.2,3.8 l 0.5,0.9 c 2,-0.8 4.8,-1.9 7.6,-3 l 11.1,10.8 10.8,-3.8 -0.1,-1 c -5.1,-0.2 -12,-4.4 -17.1,-7.9 2.9,-1 5.3,-1.7 6.4,-1.6 0.7,0 0.9,-0.3 1,-0.5 0.4,-1.1 -3.5,-4.4 -11.4,-9.7 l -0.5,-0.3 -0.2,0.6 m 1,8.8 c 0.7,-1.2 1.6,-2.9 1.9,-3.3 0.5,0.3 1.8,1.1 2.5,1.6 -0.4,0.2 -1.9,1.1 -3.7,2.3 -0.2,-0.2 -0.4,-0.4 -0.7,-0.6 z" fill="#004c00" inkscape:connector-curvature="0"/>
    <path d="m 67.271,125.29 -6.2,3.5 0.3,0.9 c 0,0 1.1,-0.1 1.8,-0.1 -0.2,0.7 -0.6,1.8 -1.1,3.2 -0.6,0 -5,-0.2 -5,-0.2 l 0.8,0.9 c 0.3,0.3 1.6,1.7 2.7,1.7 0,0 0.3,-0.1 0.6,-0.1 -0.8,2 -1.7,3.7 -2.6,5 l 0.7,0.7 c 1.5,-1.2 3.2,-3.4 4.8,-6.4 0.3,-0.1 1.2,-0.4 1.2,-0.4 l -0.1,-1 h -0.4 c 1.8,-3.6 3.1,-7.1 3.1,-7.1 l 0.5,-1.3 -1.1,0.7 z" fill="#004c00" inkscape:connector-curvature="0"/>
   </g>
   <path d="m -161.75,9.2732 c 0.4,0.5 0.9,2.3 0.9,8.6 v 2.8 c -3.4,0.5 -6.3,1 -6.8,1.2 l -0.6,0.2 2.8,2.7 0.2,-0.1 c 1.1,-0.3 2.6,-0.5 4.2,-0.7 0,0.7 -0.4,7.3 -0.4,7.9 -4.9,0.4 -9.2,1.1 -12.7,1.9 -3,0.8 -4.8,2.6 -5.2,5.4 -0.1,0.4 -0.1,0.9 -0.1,1.4 0,7.1 6.9,16.9 7,16.9 l 0.8,0.5 -0.3,-0.9 c 0,-0.1 -2.8,-9.4 -2.8,-15.6 0,-1.8 0.2,-3.3 0.8,-4.3 0.4,-0.6 0.8,-0.9 1.4,-1 1.3,-0.2 2.7,-0.4 4,-0.6 0,0 3.1,4 3.7,4.7 -0.5,0.1 -1.4,0.3 -1.4,0.3 v 0.3 l 0.2,2.2 0.4,-0.1 c 0.6,-0.2 1.8,-0.5 3.2,-0.7 0,0.6 0.1,2.4 0.2,2.9 -1.7,0.5 -3.2,1.1 -3.8,1.4 l -0.4,0.2 1.5,1.6 0.2,-0.1 c 0.7,-0.3 1.7,-0.6 2.7,-0.9 0,0.7 0.3,5.6 0.3,5.6 h 0.7 l 1.2,-6 c 1.8,-0.2 3.5,-0.1 4.8,0.2 l 0.4,0.1 v -3 l -0.2,-0.1 c -0.8,-0.4 -2.3,-0.4 -4.5,0.1 0.1,-0.7 0.4,-2.1 0.5,-2.5 1.6,-0.1 2.9,-0.2 3.8,-0.1 l 0.5,0.1 -0.7,-2.6 c 0,0 -0.9,0 -1.4,0.1 0.8,-0.9 3.5,-4.4 3.7,-4.6 0.3,0 3.9,0.1 3.9,0.1 1.6,0.1 3,0.7 4.1,2 1.3,1.5 2,3.9 2,6.3 0,0.5 0,1.1 -0.1,1.6 l -0.1,0.7 c -0.7,5.1 -1.3,8.8 -3.1,9.6 -1.2,0.5 -3.1,-0.3 -5.9,-2.4 l -0.5,0.5 5.5,9.6 0.3,-0.1 c 6.7,-2.4 7.7,-3.8 10.4,-15.4 1.2,-5.1 0.8,-9.1 -1.3,-11.8 -2.5,-3.3 -6.3,-3.7 -6.5,-3.7 -0.1,0 -6.7,-0.3 -14.6,0.2 0.2,-0.8 2,-7.5 2.1,-7.9 2.5,0 4.7,0.1 5.7,0.5 l 0.4,0.1 0.4,-4.7 h -0.4 c -1.1,0 -2.8,0.1 -5.1,0.3 1.3,-4.4 1.9,-5.8 2.1,-6.2 l 0.2,-0.3 -8.1,-4.7 -0.2,0.3 z m 4.4,25.3 c -0.1,0.7 -0.7,4.3 -0.7,4.7 h -0.1 c 0,-0.1 0.1,-0.4 0.1,-0.4 l -4.4,0.4 v 0.6 c -0.4,0.1 -1,0.2 -1.4,0.2 v -5.1 c 2.2,-0.1 4.3,-0.3 6.5,-0.4 z" fill="#2c2c51" inkscape:connector-curvature="0" transform="matrix(0.43093 0 0 0.43093 86.92 52.56)"/>
   <g transform="matrix(0.46747 0 0 0.46747 30.447 -8.325)">
    <g transform="matrix(1 0 0 1 18.409 161.82)">
     <path d="m 18.01,0.14 c 0,0 -4.39,3.33 -4.78,3.63 C 12.91,3.44 10.03,0.5 10.03,0.5 l 2.22,8.92 0.6,-0.03 c 0.75,-4.76 4.35,-6.63 5.33,-7.05 0.14,0.2 0.26,0.42 0.26,0.72 0,0.09 -0.01,0.18 -0.02,0.28 -0.21,1.67 -2.39,4.64 -6.68,7.21 l -0.31,0.18 0.81,1.01 0.2,-0.06 C 12.5,11.66 19.03,9.62 22.8,9.8 L 23.94,9.85 22.98,9.22 C 22.9,9.17 21.03,7.97 19.05,8.19 19.33,7.56 21.31,5.63 23.2,4.03 L 23.51,3.77 18.19,0 18.01,0.14 z" fill="#a81212" inkscape:connector-curvature="0"/>
     <path d="m 33.78,24.64 c -0.17,-0.17 -4.21,-4.28 -5.63,-5.01 -0.53,-0.27 -1.71,-0.18 -5.75,0.16 0,0 -0.17,0.01 -0.43,0.04 1.19,-2.79 2.72,-5.86 3.57,-6.25 l 0.55,-0.25 -2.13,-2.09 -0.21,0.03 c -5.11,0.87 -13.08,2.09 -14.11,1.9 L 9.29,13.1 9.17,13.43 c -0.2,0.56 0.32,4.93 0.86,7.37 C 5.45,21.2 0,21.66 0,21.66 l 0.3,0.56 0.68,1.27 0.32,-0.09 c 1.72,-0.51 2.52,-0.57 4.6,-0.54 0.19,0.49 2.6,6.77 2.6,6.77 l 0.79,-0.2 c 0,0 -0.69,-5.69 -0.8,-6.52 0.78,0.02 7.99,0.22 9.67,0.26 -1.09,0.92 -3.56,3.02 -3.56,3.02 L 15,26.9 c 0,0 5.15,-1.76 5.41,-1.85 0.25,0.1 4.3,1.65 4.3,1.65 0,0 -2.13,-2.57 -2.81,-3.38 3.78,0.2 4.75,0.42 5.01,0.74 0.33,0.39 0.5,0.96 0.5,1.6 0,1.16 -0.58,2.57 -1.8,3.73 -1.82,-0.46 -5.17,-2.34 -5.21,-2.36 l -0.52,0.62 5.08,6.35 0.24,-0.05 c 3.82,-0.78 8.44,-8.48 8.63,-8.81 L 34,24.87 33.78,24.64 z M 21.02,16.65 c -1.22,0.16 -2.77,0.37 -3.21,0.43 v -2 c 1.62,-0.13 3.11,-0.25 3.49,-0.29 -0.05,0.27 -0.15,0.98 -0.28,1.86 z m -4.93,-1.43 c 0.02,0.84 0.04,1.75 0.05,2.06 -1.41,0.16 -2.6,0.26 -3.55,0.3 0.1,-0.62 0.19,-1.31 0.3,-2.1 0.24,-0.02 1.62,-0.13 3.2,-0.26 z m -4.06,5.43 c 0.08,-0.35 0.17,-0.76 0.26,-1.24 1.3,-0.24 2.61,-0.46 3.89,-0.63 0.01,0.48 0.03,1.1 0.04,1.52 -0.25,0.01 -1.96,0.16 -4.19,0.35 z m 5.77,-0.48 v -1.6 c 0.98,-0.1 1.36,-0.08 1.96,-0.02 l 0.96,0.06 c -0.07,0.46 -0.14,0.92 -0.2,1.35 -1.09,0.08 -2.33,0.18 -2.72,0.21 z" fill="#a81212" inkscape:connector-curvature="0"/>
    </g>
    <path d="m 48.009,144.42 c 0,0 -2.9,3.2 -3.1,3.4 -3.2,0.7 -8.4,1.2 -8.8,-0.4 -0.5,-1.9 3.4,-10.4 4.9,-13.6 l 0.2,-0.3 -5.6,-2.8 -0.1,0.4 c -0.1,0.2 -0.4,1.3 -0.9,3 h -4.5 c 0,-0.4 -0.1,-1.3 -0.1,-1.3 -1.4,-2.3 -7.4,-0.7 -8.1,-0.6 l -0.4,0.1 0.2,0.4 c 0.2,0.4 0.4,0.9 0.5,1.4 h -3.8 l 1.9,3.6 c 0,0 1.8,-0.3 2.4,-0.4 v 0.7 c 0,6.2 -2.7,14.1 -2.7,14.2 l 0.6,0.3 c 0.3,-0.4 7.9,-9.5 9.3,-16.4 0.2,0 2.4,-0.4 4.4,-0.7 -1.2,4.7 -2.6,12.1 -0.3,14.8 3.4,4 16.6,3.7 17.1,3.5 l 0.3,-0.1 -3.4,-9.2 z" fill="#3d3d6f" inkscape:connector-curvature="0"/>
   </g>
   <g transform="matrix(0.47011 0 0 0.47011 -103.77 -42.36)">
    <path d="m 253.66,127.91 c 0,-0.851 -1.1375,-1.5818 -2.7846,-1.9332 v -6.4472 c 1.6471,-0.3515 2.7846,-1.0822 2.7846,-1.9332 0,-1.2025 -2.2386,-2.1738 -5.005,-2.1738 -2.7664,0 -5.005,0.97125 -5.005,2.1738 0,0.851 1.1375,1.5818 2.7846,1.9332 v 6.4472 c -1.6471,0.3515 -2.7846,1.0822 -2.7846,1.9332 0,0.851 1.1375,1.5818 2.7846,1.9332 v 6.438 c -1.6471,0.36075 -2.7846,1.0915 -2.7846,1.9425 0,1.2025 2.2386,2.1738 5.005,2.1738 2.7664,0 5.005,-0.97125 5.005,-2.1738 0,-0.851 -1.1375,-1.5818 -2.7846,-1.9332 v -6.438 c 1.6471,-0.36075 2.7846,-1.0915 2.7846,-1.9425 z m -5.005,-11.128 c 1.2285,0 2.2204,0.36075 2.2204,0.814 0,0.37925 -0.7098,0.69375 -1.6653,0.78625 v 5.4945 c 0,0.4255 -0.2548,0.777 -0.5551,0.777 -0.3003,0 -0.5551,-0.3515 -0.5551,-0.777 v -5.4945 c -0.9555,-0.0925 -1.6653,-0.407 -1.6653,-0.78625 0,-0.45325 0.9919,-0.814 2.2204,-0.814 z m 0,22.256 c -1.2285,0 -2.2204,-0.36075 -2.2204,-0.814 0,-0.37925 0.7098,-0.69375 1.6653,-0.78625 v -5.4945 c 0,-0.4255 0.2548,-0.777 0.5551,-0.777 0.3003,0 0.5551,0.3515 0.5551,0.777 v 5.4945 c 0.9555,0.0925 1.6653,0.407 1.6653,0.78625 0,0.45325 -0.9919,0.814 -2.2204,0.814 z m 0,-10.314 c -1.6926,0 -3.0576,-0.36075 -3.0576,-0.814 0,-0.45325 1.365,-0.814 3.0576,-0.814 1.6926,0 3.0576,0.36075 3.0576,0.814 0,0.45325 -1.365,0.814 -3.0576,0.814 z" fill="#0c6c0c" inkscape:connector-curvature="0"/>
    <path d="m 253.66,162.91 c 0,-0.851 -1.1375,-1.5818 -2.7846,-1.9332 v -6.4472 c 1.6471,-0.3515 2.7846,-1.0822 2.7846,-1.9332 0,-1.2025 -2.2386,-2.1738 -5.005,-2.1738 -2.7664,0 -5.005,0.97125 -5.005,2.1738 0,0.851 1.1375,1.5818 2.7846,1.9332 v 6.4472 c -1.6471,0.3515 -2.7846,1.0822 -2.7846,1.9332 0,0.851 1.1375,1.5818 2.7846,1.9332 v 6.438 c -1.6471,0.36075 -2.7846,1.0915 -2.7846,1.9425 0,1.2025 2.2386,2.1738 5.005,2.1738 2.7664,0 5.005,-0.97125 5.005,-2.1738 0,-0.851 -1.1375,-1.5818 -2.7846,-1.9332 v -6.438 c 1.6471,-0.36075 2.7846,-1.0915 2.7846,-1.9425 z m -5.005,-11.128 c 1.2285,0 2.2204,0.36075 2.2204,0.814 0,0.37925 -0.7098,0.69375 -1.6653,0.78625 v 5.4945 c 0,0.4255 -0.2548,0.777 -0.5551,0.777 -0.3003,0 -0.5551,-0.3515 -0.5551,-0.777 v -5.4945 c -0.9555,-0.0925 -1.6653,-0.407 -1.6653,-0.78625 0,-0.45325 0.9919,-0.814 2.2204,-0.814 z m 0,22.256 c -1.2285,0 -2.2204,-0.36075 -2.2204,-0.814 0,-0.37925 0.7098,-0.69375 1.6653,-0.78625 v -5.4945 c 0,-0.4255 0.2548,-0.777 0.5551,-0.777 0.3003,0 0.5551,0.3515 0.5551,0.777 v 5.4945 c 0.9555,0.0925 1.6653,0.407 1.6653,0.78625 0,0.45325 -0.9919,0.814 -2.2204,0.814 z m 0,-10.314 c -1.6926,0 -3.0576,-0.36075 -3.0576,-0.814 0,-0.45325 1.365,-0.814 3.0576,-0.814 1.6926,0 3.0576,0.36075 3.0576,0.814 0,0.45325 -1.365,0.814 -3.0576,0.814 z" fill="#0c6c0c" inkscape:connector-curvature="0"/>
    <path d="m 266.16,145.41 c 0,-0.851 -1.1375,-1.5818 -2.7846,-1.9332 v -6.4472 c 1.6471,-0.3515 2.7846,-1.0822 2.7846,-1.9332 0,-1.2025 -2.2386,-2.1738 -5.005,-2.1738 -2.7664,0 -5.005,0.97125 -5.005,2.1738 0,0.851 1.1375,1.5818 2.7846,1.9332 v 6.4472 c -1.6471,0.3515 -2.7846,1.0822 -2.7846,1.9332 0,0.851 1.1375,1.5818 2.7846,1.9332 v 6.438 c -1.6471,0.36075 -2.7846,1.0915 -2.7846,1.9425 0,1.2025 2.2386,2.1738 5.005,2.1738 2.7664,0 5.005,-0.97125 5.005,-2.1738 0,-0.851 -1.1375,-1.5818 -2.7846,-1.9332 v -6.438 c 1.6471,-0.36075 2.7846,-1.0915 2.7846,-1.9425 z m -5.005,-11.128 c 1.2285,0 2.2204,0.36075 2.2204,0.814 0,0.37925 -0.7098,0.69375 -1.6653,0.78625 v 5.4945 c 0,0.4255 -0.2548,0.777 -0.5551,0.777 -0.3003,0 -0.5551,-0.3515 -0.5551,-0.777 v -5.4945 c -0.9555,-0.0925 -1.6653,-0.407 -1.6653,-0.78625 0,-0.45325 0.9919,-0.814 2.2204,-0.814 z m 0,22.256 c -1.2285,0 -2.2204,-0.36075 -2.2204,-0.814 0,-0.37925 0.7098,-0.69375 1.6653,-0.78625 v -5.4945 c 0,-0.4255 0.2548,-0.777 0.5551,-0.777 0.3003,0 0.5551,0.3515 0.5551,0.777 v 5.4945 c 0.9555,0.0925 1.6653,0.407 1.6653,0.78625 0,0.45325 -0.9919,0.814 -2.2204,0.814 z m 0,-10.314 c -1.6926,0 -3.0576,-0.36075 -3.0576,-0.814 0,-0.45325 1.365,-0.814 3.0576,-0.814 1.6926,0 3.0576,0.36075 3.0576,0.814 0,0.45325 -1.365,0.814 -3.0576,0.814 z" fill="#9c0000" inkscape:connector-curvature="0"/>
    <path d="m 278.66,127.91 c 0,-0.851 -1.1375,-1.5818 -2.7846,-1.9332 v -6.4472 c 1.6471,-0.3515 2.7846,-1.0822 2.7846,-1.9332 0,-1.2025 -2.2386,-2.1738 -5.005,-2.1738 -2.7664,0 -5.005,0.97125 -5.005,2.1738 0,0.851 1.1375,1.5818 2.7846,1.9332 v 6.4472 c -1.6471,0.3515 -2.7846,1.0822 -2.7846,1.9332 0,0.851 1.1375,1.5818 2.7846,1.9332 v 6.438 c -1.6471,0.36075 -2.7846,1.0915 -2.7846,1.9425 0,1.2025 2.2386,2.1738 5.005,2.1738 2.7664,0 5.005,-0.97125 5.005,-2.1738 0,-0.851 -1.1375,-1.5818 -2.7846,-1.9332 v -6.438 c 1.6471,-0.36075 2.7846,-1.0915 2.7846,-1.9425 z m -5.005,-11.128 c 1.2285,0 2.2204,0.36075 2.2204,0.814 0,0.37925 -0.7098,0.69375 -1.6653,0.78625 v 5.4945 c 0,0.4255 -0.2548,0.777 -0.5551,0.777 -0.3003,0 -0.5551,-0.3515 -0.5551,-0.777 v -5.4945 c -0.9555,-0.0925 -1.6653,-0.407 -1.6653,-0.78625 0,-0.45325 0.9919,-0.814 2.2204,-0.814 z m 0,22.256 c -1.2285,0 -2.2204,-0.36075 -2.2204,-0.814 0,-0.37925 0.7098,-0.69375 1.6653,-0.78625 v -5.4945 c 0,-0.4255 0.2548,-0.777 0.5551,-0.777 0.3003,0 0.5551,0.3515 0.5551,0.777 v 5.4945 c 0.9555,0.0925 1.6653,0.407 1.6653,0.78625 0,0.45325 -0.9919,0.814 -2.2204,0.814 z m 0,-10.314 c -1.6926,0 -3.0576,-0.36075 -3.0576,-0.814 0,-0.45325 1.365,-0.814 3.0576,-0.814 1.6926,0 3.0576,0.36075 3.0576,0.814 0,0.45325 -1.365,0.814 -3.0576,0.814 z" fill="#0c6c0c" inkscape:connector-curvature="0"/>
    <path d="m 278.66,162.91 c 0,-0.851 -1.1375,-1.5818 -2.7846,-1.9332 v -6.4472 c 1.6471,-0.3515 2.7846,-1.0822 2.7846,-1.9332 0,-1.2025 -2.2386,-2.1738 -5.005,-2.1738 -2.7664,0 -5.005,0.97125 -5.005,2.1738 0,0.851 1.1375,1.5818 2.7846,1.9332 v 6.4472 c -1.6471,0.3515 -2.7846,1.0822 -2.7846,1.9332 0,0.851 1.1375,1.5818 2.7846,1.9332 v 6.438 c -1.6471,0.36075 -2.7846,1.0915 -2.7846,1.9425 0,1.2025 2.2386,2.1738 5.005,2.1738 2.7664,0 5.005,-0.97125 5.005,-2.1738 0,-0.851 -1.1375,-1.5818 -2.7846,-1.9332 v -6.438 c 1.6471,-0.36075 2.7846,-1.0915 2.7846,-1.9425 z m -5.005,-11.128 c 1.2285,0 2.2204,0.36075 2.2204,0.814 0,0.37925 -0.7098,0.69375 -1.6653,0.78625 v 5.4945 c 0,0.4255 -0.2548,0.777 -0.5551,0.777 -0.3003,0 -0.5551,-0.3515 -0.5551,-0.777 v -5.4945 c -0.9555,-0.0925 -1.6653,-0.407 -1.6653,-0.78625 0,-0.45325 0.9919,-0.814 2.2204,-0.814 z m 0,22.256 c -1.2285,0 -2.2204,-0.36075 -2.2204,-0.814 0,-0.37925 0.7098,-0.69375 1.6653,-0.78625 v -5.4945 c 0,-0.4255 0.2548,-0.777 0.5551,-0.777 0.3003,0 0.5551,0.3515 0.5551,0.777 v 5.4945 c 0.9555,0.0925 1.6653,0.407 1.6653,0.78625 0,0.45325 -0.9919,0.814 -2.2204,0.814 z m 0,-10.314 c -1.6926,0 -3.0576,-0.36075 -3.0576,-0.814 0,-0.45325 1.365,-0.814 3.0576,-0.814 1.6926,0 3.0576,0.36075 3.0576,0.814 0,0.45325 -1.365,0.814 -3.0576,0.814 z" fill="#0c6c0c" inkscape:connector-curvature="0"/>
   </g>
   <g transform="matrix(0.51419 0 0 0.51419 113.83 -56.39)">
    <g transform="matrix(1 0 0 1 -94.52 132.23)">
     <use xlink:href="#SVGCleanerId_1" fill="#10106c" inkscape:connector-curvature="0"/>
     <use xlink:href="#SVGCleanerId_2" fill="#2d2d4f" inkscape:connector-curvature="0"/>
    </g>
    <g transform="matrix(1 0 0 1 -84.52 151.23)">
     <use xlink:href="#SVGCleanerId_1" fill="#9c0000" inkscape:connector-curvature="0"/>
     <use xlink:href="#SVGCleanerId_2" fill="#9c0000" inkscape:connector-curvature="0"/>
    </g>
    <g transform="matrix(1 0 0 1 -74.52 170.23)">
     <use xlink:href="#SVGCleanerId_1" fill="#2c2c50" inkscape:connector-curvature="0"/>
     <use xlink:href="#SVGCleanerId_2" fill="#10106c" inkscape:connector-curvature="0"/>
    </g>
   </g>
  </g>
  <rect x="-96" rx="25" y="958.36" clip-path="url(#clipPath3009)" fill="#ffffff" fill-opacity="1" height="92" opacity="0.15" width="92" transform="matrix(1 0 0 1 98 0)"/>
 </g>
</svg>
