<svg height="96" width="96" xmlns="http://www.w3.org/2000/svg" xmlns:xlink="http://www.w3.org/1999/xlink" xmlns:sodipodi="http://sodipodi.sourceforge.net/DTD/sodipodi-0.dtd" xmlns:inkscape="http://www.inkscape.org/namespaces/inkscape">
 <defs>
  <linearGradient x2="0" y1="90" y2="5.988" gradientUnits="userSpaceOnUse" id="linearGradient3680">
   <stop stop-color="#1f1f1f" stop-opacity="1"/>
   <stop stop-color="#191919" stop-opacity="1" offset="1"/>
  </linearGradient>
  <clipPath id="clipPath2926">
   <use xlink:href="#SVGCleanerId_0"/>
  </clipPath>
  <linearGradient x2="0" y1="54.57" y2="30.797" gradientUnits="userSpaceOnUse" id="linearGradient3839">
   <stop stop-color="#c83771" stop-opacity="1"/>
   <stop stop-color="#c83771" stop-opacity="0" offset="1"/>
  </linearGradient>
  <linearGradient x2="0" y1="62.39" y2="40.42" gradientUnits="userSpaceOnUse" id="linearGradient3841">
   <stop stop-color="#d35fbc" stop-opacity="1"/>
   <stop stop-color="#d35fbc" stop-opacity="0" offset="1"/>
  </linearGradient>
  <linearGradient x2="0" y1="66.21" y2="32.08" gradientUnits="userSpaceOnUse" id="linearGradient3843">
   <stop stop-color="#8d5fd3" stop-opacity="1"/>
   <stop stop-color="#8d5fd3" stop-opacity="0" offset="1"/>
  </linearGradient>
  <linearGradient x2="0" y1="54.06" y2="23.2" gradientUnits="userSpaceOnUse" id="linearGradient3845">
   <stop stop-color="#5599ff" stop-opacity="1"/>
   <stop stop-color="#5599ff" stop-opacity="0" offset="1"/>
  </linearGradient>
  <linearGradient x2="0" y1="68.961" y2="46.717" gradientUnits="userSpaceOnUse" id="linearGradient3847">
   <stop stop-color="#37abc8" stop-opacity="1"/>
   <stop stop-color="#37abc8" stop-opacity="0" offset="1"/>
  </linearGradient>
  <linearGradient x2="0" y1="64.16" y2="37.39" gradientUnits="userSpaceOnUse" id="linearGradient3849">
   <stop stop-color="#70e4cd" stop-opacity="1"/>
   <stop stop-color="#70e4cd" stop-opacity="0" offset="1"/>
  </linearGradient>
  <linearGradient x2="0" y1="60.879" y2="12.37" gradientUnits="userSpaceOnUse" id="linearGradient3851">
   <stop stop-color="#53df53" stop-opacity="1"/>
   <stop stop-color="#53df53" stop-opacity="0" offset="1"/>
  </linearGradient>
  <linearGradient x2="0" y1="65.68" y2="27.465" gradientUnits="userSpaceOnUse" id="linearGradient3853">
   <stop stop-color="#aad400" stop-opacity="1"/>
   <stop stop-color="#aad400" stop-opacity="0" offset="1"/>
  </linearGradient>
  <linearGradient x2="0" y1="63.91" y2="35.1" gradientUnits="userSpaceOnUse" id="linearGradient3855">
   <stop stop-color="#ffd42a" stop-opacity="1"/>
   <stop stop-color="#ffd42a" stop-opacity="0" offset="1"/>
  </linearGradient>
  <linearGradient x2="0" y1="60.12" y2="18.954" gradientUnits="userSpaceOnUse" id="linearGradient3857">
   <stop stop-color="#ff992a" stop-opacity="1"/>
   <stop stop-color="#ff992a" stop-opacity="0" offset="1"/>
  </linearGradient>
  <linearGradient x2="0" y1="58.35" y2="40.42" gradientUnits="userSpaceOnUse" id="linearGradient3859">
   <stop stop-color="#ff6600" stop-opacity="1"/>
   <stop stop-color="#ff6600" stop-opacity="0" offset="1"/>
  </linearGradient>
  <linearGradient x2="0" y1="60.879" y2="34.36" gradientUnits="userSpaceOnUse" id="linearGradient3861">
   <stop stop-color="#d40000" stop-opacity="1"/>
   <stop stop-color="#d40000" stop-opacity="0" offset="1"/>
  </linearGradient>
  <linearGradient x2="0" y1="53.93" y2="39.2" gradientUnits="userSpaceOnUse" id="linearGradient3869" gradientTransform="matrix(1 0 0 1 0 36)">
   <stop stop-color="#000000" stop-opacity="1"/>
   <stop stop-color="#000000" stop-opacity="0" offset="1"/>
  </linearGradient>
  <linearGradient x2="0" y1="22.03" y2="76.05" gradientUnits="userSpaceOnUse" id="linearGradient3636">
   <stop stop-color="#dedede" stop-opacity="1"/>
   <stop stop-color="#ffffff" stop-opacity="1" offset="1"/>
  </linearGradient>
  <clipPath clipPathUnits="userSpaceOnUse" id="clipPath3946">
   <rect x="6" rx="22.826" y="6" height="84" width="84"/>
  </clipPath>
  <clipPath clipPathUnits="userSpaceOnUse" id="clipPath3009">
   <path d="m -2,956.36218 -96,0 0,33.5624 96,25.68742 0,-59.24982 z" inkscape:connector-curvature="0"/>
  </clipPath>
  <rect x="6" rx="6" y="6" height="84" id="SVGCleanerId_0" width="84"/>
 </defs>
 <g inkscape:label="Layer 1" inkscape:groupmode="layer" transform="matrix(1 0 0 1 0 -956.36)">
  <g clip-path="url(#clipPath3946)" transform="matrix(1.09524 0 0 1.09524 -4.571 951.79)">
   <use xlink:href="#SVGCleanerId_0" fill="url(#linearGradient3680)" fill-opacity="1" fill-rule="nonzero" stroke="none"/>
   <g display="inline" clip-path="url(#clipPath2926)">
    <path d="M 7,6 C 6.446,6 6,6.446 6,7 l 0,2 c 0,0.554 0.446,1 1,1 l 4,0 c 0.554,0 1,-0.446 1,-1 L 12,7 C 12,6.446 11.554,6 11,6 L 7,6 z m 0,5 c -0.554,0 -1,0.446 -1,1 l 0,2 c 0,0.554 0.446,1 1,1 l 4,0 c 0.554,0 1,-0.446 1,-1 l 0,-2 c 0,-0.554 -0.446,-1 -1,-1 l -4,0 z m 0,5 c -0.554,0 -1,0.446 -1,1 l 0,2 c 0,0.554 0.446,1 1,1 l 4,0 c 0.554,0 1,-0.446 1,-1 l 0,-2 c 0,-0.554 -0.446,-1 -1,-1 l -4,0 z m 0,5 c -0.554,0 -1,0.446 -1,1 l 0,2 c 0,0.554 0.446,1 1,1 l 4,0 c 0.554,0 1,-0.446 1,-1 l 0,-2 c 0,-0.554 -0.446,-1 -1,-1 l -4,0 z m 0,5 c -0.554,0 -1,0.446 -1,1 l 0,2 c 0,0.554 0.446,1 1,1 l 4,0 c 0.554,0 1,-0.446 1,-1 l 0,-2 c 0,-0.554 -0.446,-1 -1,-1 l -4,0 z m 0,5 c -0.554,0 -1,0.446 -1,1 l 0,2 c 0,0.554 0.446,1 1,1 l 4,0 c 0.554,0 1,-0.446 1,-1 l 0,-2 c 0,-0.554 -0.446,-1 -1,-1 l -4,0 z m 0,5 c -0.554,0 -1,0.446 -1,1 l 0,2 c 0,0.554 0.446,1 1,1 l 4,0 c 0.554,0 1,-0.446 1,-1 l 0,-2 c 0,-0.554 -0.446,-1 -1,-1 l -4,0 z m 0,5 c -0.554,0 -1,0.446 -1,1 l 0,2 c 0,0.554 0.446,1 1,1 l 4,0 c 0.554,0 1,-0.446 1,-1 l 0,-2 c 0,-0.554 -0.446,-1 -1,-1 l -4,0 z m 0,5 c -0.554,0 -1,0.446 -1,1 l 0,2 c 0,0.554 0.446,1 1,1 l 4,0 c 0.554,0 1,-0.446 1,-1 l 0,-2 c 0,-0.554 -0.446,-1 -1,-1 l -4,0 z m 0,5 c -0.554,0 -1,0.446 -1,1 l 0,2 c 0,0.554 0.446,1 1,1 l 4,0 c 0.554,0 1,-0.446 1,-1 l 0,-2 c 0,-0.554 -0.446,-1 -1,-1 l -4,0 z m 0,5 c -0.554,0 -1,0.446 -1,1 l 0,2 c 0,0.554 0.446,1 1,1 l 4,0 c 0.554,0 1,-0.446 1,-1 l 0,-2 c 0,-0.554 -0.446,-1 -1,-1 l -4,0 z m 0,5 c -0.554,0 -1,0.446 -1,1 l 0,2 c 0,0.554 0.446,1 1,1 l 4,0 c 0.554,0 1,-0.446 1,-1 l 0,-2 c 0,-0.554 -0.446,-1 -1,-1 l -4,0 z m 0,5 c -0.554,0 -1,0.446 -1,1 l 0,2 c 0,0.554 0.446,1 1,1 l 4,0 c 0.554,0 1,-0.446 1,-1 l 0,-2 c 0,-0.554 -0.446,-1 -1,-1 l -4,0 z m 0,5 c -0.554,0 -1,0.446 -1,1 l 0,2 c 0,0.554 0.446,1 1,1 l 4,0 c 0.554,0 1,-0.446 1,-1 l 0,-2 c 0,-0.554 -0.446,-1 -1,-1 l -4,0 z m 0,5 c -0.554,0 -1,0.446 -1,1 l 0,2 c 0,0.554 0.446,1 1,1 l 4,0 c 0.554,0 1,-0.446 1,-1 l 0,-2 c 0,-0.554 -0.446,-1 -1,-1 l -4,0 z m 0,5 c -0.554,0 -1,0.446 -1,1 l 0,2 c 0,0.554 0.446,1 1,1 l 4,0 c 0.554,0 1,-0.446 1,-1 l 0,-2 c 0,-0.554 -0.446,-1 -1,-1 l -4,0 z m 0,5 c -0.554,0 -1,0.446 -1,1 l 0,2 c 0,0.554 0.446,1 1,1 l 4,0 c 0.554,0 1,-0.446 1,-1 l 0,-2 c 0,-0.554 -0.446,-1 -1,-1 l -4,0 z" fill="url(#linearGradient3839)" fill-opacity="1" stroke="none" inkscape:connector-curvature="0"/>
    <path d="m 14,6 c -0.554,0 -1,0.446 -1,1 l 0,2 c 0,0.554 0.446,1 1,1 l 4,0 c 0.554,0 1,-0.446 1,-1 L 19,7 C 19,6.446 18.554,6 18,6 l -4,0 z m 0,5 c -0.554,0 -1,0.446 -1,1 l 0,2 c 0,0.554 0.446,1 1,1 l 4,0 c 0.554,0 1,-0.446 1,-1 l 0,-2 c 0,-0.554 -0.446,-1 -1,-1 l -4,0 z m 0,5 c -0.554,0 -1,0.446 -1,1 l 0,2 c 0,0.554 0.446,1 1,1 l 4,0 c 0.554,0 1,-0.446 1,-1 l 0,-2 c 0,-0.554 -0.446,-1 -1,-1 l -4,0 z m 0,5 c -0.554,0 -1,0.446 -1,1 l 0,2 c 0,0.554 0.446,1 1,1 l 4,0 c 0.554,0 1,-0.446 1,-1 l 0,-2 c 0,-0.554 -0.446,-1 -1,-1 l -4,0 z m 0,5 c -0.554,0 -1,0.446 -1,1 l 0,2 c 0,0.554 0.446,1 1,1 l 4,0 c 0.554,0 1,-0.446 1,-1 l 0,-2 c 0,-0.554 -0.446,-1 -1,-1 l -4,0 z m 0,5 c -0.554,0 -1,0.446 -1,1 l 0,2 c 0,0.554 0.446,1 1,1 l 4,0 c 0.554,0 1,-0.446 1,-1 l 0,-2 c 0,-0.554 -0.446,-1 -1,-1 l -4,0 z m 0,5 c -0.554,0 -1,0.446 -1,1 l 0,2 c 0,0.554 0.446,1 1,1 l 4,0 c 0.554,0 1,-0.446 1,-1 l 0,-2 c 0,-0.554 -0.446,-1 -1,-1 l -4,0 z m 0,5 c -0.554,0 -1,0.446 -1,1 l 0,2 c 0,0.554 0.446,1 1,1 l 4,0 c 0.554,0 1,-0.446 1,-1 l 0,-2 c 0,-0.554 -0.446,-1 -1,-1 l -4,0 z m 0,5 c -0.554,0 -1,0.446 -1,1 l 0,2 c 0,0.554 0.446,1 1,1 l 4,0 c 0.554,0 1,-0.446 1,-1 l 0,-2 c 0,-0.554 -0.446,-1 -1,-1 l -4,0 z m 0,5 c -0.554,0 -1,0.446 -1,1 l 0,2 c 0,0.554 0.446,1 1,1 l 4,0 c 0.554,0 1,-0.446 1,-1 l 0,-2 c 0,-0.554 -0.446,-1 -1,-1 l -4,0 z m 0,5 c -0.554,0 -1,0.446 -1,1 l 0,2 c 0,0.554 0.446,1 1,1 l 4,0 c 0.554,0 1,-0.446 1,-1 l 0,-2 c 0,-0.554 -0.446,-1 -1,-1 l -4,0 z m 0,5 c -0.554,0 -1,0.446 -1,1 l 0,2 c 0,0.554 0.446,1 1,1 l 4,0 c 0.554,0 1,-0.446 1,-1 l 0,-2 c 0,-0.554 -0.446,-1 -1,-1 l -4,0 z m 0,5 c -0.554,0 -1,0.446 -1,1 l 0,2 c 0,0.554 0.446,1 1,1 l 4,0 c 0.554,0 1,-0.446 1,-1 l 0,-2 c 0,-0.554 -0.446,-1 -1,-1 l -4,0 z m 0,5 c -0.554,0 -1,0.446 -1,1 l 0,2 c 0,0.554 0.446,1 1,1 l 4,0 c 0.554,0 1,-0.446 1,-1 l 0,-2 c 0,-0.554 -0.446,-1 -1,-1 l -4,0 z m 0,5 c -0.554,0 -1,0.446 -1,1 l 0,2 c 0,0.554 0.446,1 1,1 l 4,0 c 0.554,0 1,-0.446 1,-1 l 0,-2 c 0,-0.554 -0.446,-1 -1,-1 l -4,0 z m 0,5 c -0.554,0 -1,0.446 -1,1 l 0,2 c 0,0.554 0.446,1 1,1 l 4,0 c 0.554,0 1,-0.446 1,-1 l 0,-2 c 0,-0.554 -0.446,-1 -1,-1 l -4,0 z m 0,5 c -0.554,0 -1,0.446 -1,1 l 0,2 c 0,0.554 0.446,1 1,1 l 4,0 c 0.554,0 1,-0.446 1,-1 l 0,-2 c 0,-0.554 -0.446,-1 -1,-1 l -4,0 z" fill="url(#linearGradient3841)" fill-opacity="1" stroke="none" inkscape:connector-curvature="0"/>
    <path d="m 21,6 c -0.554,0 -1,0.446 -1,1 l 0,2 c 0,0.554 0.446,1 1,1 l 4,0 c 0.554,0 1,-0.446 1,-1 L 26,7 C 26,6.446 25.554,6 25,6 l -4,0 z m 0,5 c -0.554,0 -1,0.446 -1,1 l 0,2 c 0,0.554 0.446,1 1,1 l 4,0 c 0.554,0 1,-0.446 1,-1 l 0,-2 c 0,-0.554 -0.446,-1 -1,-1 l -4,0 z m 0,5 c -0.554,0 -1,0.446 -1,1 l 0,2 c 0,0.554 0.446,1 1,1 l 4,0 c 0.554,0 1,-0.446 1,-1 l 0,-2 c 0,-0.554 -0.446,-1 -1,-1 l -4,0 z m 0,5 c -0.554,0 -1,0.446 -1,1 l 0,2 c 0,0.554 0.446,1 1,1 l 4,0 c 0.554,0 1,-0.446 1,-1 l 0,-2 c 0,-0.554 -0.446,-1 -1,-1 l -4,0 z m 0,5 c -0.554,0 -1,0.446 -1,1 l 0,2 c 0,0.554 0.446,1 1,1 l 4,0 c 0.554,0 1,-0.446 1,-1 l 0,-2 c 0,-0.554 -0.446,-1 -1,-1 l -4,0 z m 0,5 c -0.554,0 -1,0.446 -1,1 l 0,2 c 0,0.554 0.446,1 1,1 l 4,0 c 0.554,0 1,-0.446 1,-1 l 0,-2 c 0,-0.554 -0.446,-1 -1,-1 l -4,0 z m 0,5 c -0.554,0 -1,0.446 -1,1 l 0,2 c 0,0.554 0.446,1 1,1 l 4,0 c 0.554,0 1,-0.446 1,-1 l 0,-2 c 0,-0.554 -0.446,-1 -1,-1 l -4,0 z m 0,5 c -0.554,0 -1,0.446 -1,1 l 0,2 c 0,0.554 0.446,1 1,1 l 4,0 c 0.554,0 1,-0.446 1,-1 l 0,-2 c 0,-0.554 -0.446,-1 -1,-1 l -4,0 z m 0,5 c -0.554,0 -1,0.446 -1,1 l 0,2 c 0,0.554 0.446,1 1,1 l 4,0 c 0.554,0 1,-0.446 1,-1 l 0,-2 c 0,-0.554 -0.446,-1 -1,-1 l -4,0 z m 0,5 c -0.554,0 -1,0.446 -1,1 l 0,2 c 0,0.554 0.446,1 1,1 l 4,0 c 0.554,0 1,-0.446 1,-1 l 0,-2 c 0,-0.554 -0.446,-1 -1,-1 l -4,0 z m 0,5 c -0.554,0 -1,0.446 -1,1 l 0,2 c 0,0.554 0.446,1 1,1 l 4,0 c 0.554,0 1,-0.446 1,-1 l 0,-2 c 0,-0.554 -0.446,-1 -1,-1 l -4,0 z m 0,5 c -0.554,0 -1,0.446 -1,1 l 0,2 c 0,0.554 0.446,1 1,1 l 4,0 c 0.554,0 1,-0.446 1,-1 l 0,-2 c 0,-0.554 -0.446,-1 -1,-1 l -4,0 z m 0,5 c -0.554,0 -1,0.446 -1,1 l 0,2 c 0,0.554 0.446,1 1,1 l 4,0 c 0.554,0 1,-0.446 1,-1 l 0,-2 c 0,-0.554 -0.446,-1 -1,-1 l -4,0 z m 0,5 c -0.554,0 -1,0.446 -1,1 l 0,2 c 0,0.554 0.446,1 1,1 l 4,0 c 0.554,0 1,-0.446 1,-1 l 0,-2 c 0,-0.554 -0.446,-1 -1,-1 l -4,0 z m 0,5 c -0.554,0 -1,0.446 -1,1 l 0,2 c 0,0.554 0.446,1 1,1 l 4,0 c 0.554,0 1,-0.446 1,-1 l 0,-2 c 0,-0.554 -0.446,-1 -1,-1 l -4,0 z m 0,5 c -0.554,0 -1,0.446 -1,1 l 0,2 c 0,0.554 0.446,1 1,1 l 4,0 c 0.554,0 1,-0.446 1,-1 l 0,-2 c 0,-0.554 -0.446,-1 -1,-1 l -4,0 z m 0,5 c -0.554,0 -1,0.446 -1,1 l 0,2 c 0,0.554 0.446,1 1,1 l 4,0 c 0.554,0 1,-0.446 1,-1 l 0,-2 c 0,-0.554 -0.446,-1 -1,-1 l -4,0 z" fill="url(#linearGradient3843)" fill-opacity="1" stroke="none" inkscape:connector-curvature="0"/>
    <path d="m 28,6 c -0.554,0 -1,0.446 -1,1 l 0,2 c 0,0.554 0.446,1 1,1 l 4,0 c 0.554,0 1,-0.446 1,-1 L 33,7 C 33,6.446 32.554,6 32,6 l -4,0 z m 0,5 c -0.554,0 -1,0.446 -1,1 l 0,2 c 0,0.554 0.446,1 1,1 l 4,0 c 0.554,0 1,-0.446 1,-1 l 0,-2 c 0,-0.554 -0.446,-1 -1,-1 l -4,0 z m 0,5 c -0.554,0 -1,0.446 -1,1 l 0,2 c 0,0.554 0.446,1 1,1 l 4,0 c 0.554,0 1,-0.446 1,-1 l 0,-2 c 0,-0.554 -0.446,-1 -1,-1 l -4,0 z m 0,5 c -0.554,0 -1,0.446 -1,1 l 0,2 c 0,0.554 0.446,1 1,1 l 4,0 c 0.554,0 1,-0.446 1,-1 l 0,-2 c 0,-0.554 -0.446,-1 -1,-1 l -4,0 z m 0,5 c -0.554,0 -1,0.446 -1,1 l 0,2 c 0,0.554 0.446,1 1,1 l 4,0 c 0.554,0 1,-0.446 1,-1 l 0,-2 c 0,-0.554 -0.446,-1 -1,-1 l -4,0 z m 0,5 c -0.554,0 -1,0.446 -1,1 l 0,2 c 0,0.554 0.446,1 1,1 l 4,0 c 0.554,0 1,-0.446 1,-1 l 0,-2 c 0,-0.554 -0.446,-1 -1,-1 l -4,0 z m 0,5 c -0.554,0 -1,0.446 -1,1 l 0,2 c 0,0.554 0.446,1 1,1 l 4,0 c 0.554,0 1,-0.446 1,-1 l 0,-2 c 0,-0.554 -0.446,-1 -1,-1 l -4,0 z m 0,5 c -0.554,0 -1,0.446 -1,1 l 0,2 c 0,0.554 0.446,1 1,1 l 4,0 c 0.554,0 1,-0.446 1,-1 l 0,-2 c 0,-0.554 -0.446,-1 -1,-1 l -4,0 z m 0,5 c -0.554,0 -1,0.446 -1,1 l 0,2 c 0,0.554 0.446,1 1,1 l 4,0 c 0.554,0 1,-0.446 1,-1 l 0,-2 c 0,-0.554 -0.446,-1 -1,-1 l -4,0 z m 0,5 c -0.554,0 -1,0.446 -1,1 l 0,2 c 0,0.554 0.446,1 1,1 l 4,0 c 0.554,0 1,-0.446 1,-1 l 0,-2 c 0,-0.554 -0.446,-1 -1,-1 l -4,0 z m 0,5 c -0.554,0 -1,0.446 -1,1 l 0,2 c 0,0.554 0.446,1 1,1 l 4,0 c 0.554,0 1,-0.446 1,-1 l 0,-2 c 0,-0.554 -0.446,-1 -1,-1 l -4,0 z m 0,5 c -0.554,0 -1,0.446 -1,1 l 0,2 c 0,0.554 0.446,1 1,1 l 4,0 c 0.554,0 1,-0.446 1,-1 l 0,-2 c 0,-0.554 -0.446,-1 -1,-1 l -4,0 z m 0,5 c -0.554,0 -1,0.446 -1,1 l 0,2 c 0,0.554 0.446,1 1,1 l 4,0 c 0.554,0 1,-0.446 1,-1 l 0,-2 c 0,-0.554 -0.446,-1 -1,-1 l -4,0 z m 0,5 c -0.554,0 -1,0.446 -1,1 l 0,2 c 0,0.554 0.446,1 1,1 l 4,0 c 0.554,0 1,-0.446 1,-1 l 0,-2 c 0,-0.554 -0.446,-1 -1,-1 l -4,0 z m 0,5 c -0.554,0 -1,0.446 -1,1 l 0,2 c 0,0.554 0.446,1 1,1 l 4,0 c 0.554,0 1,-0.446 1,-1 l 0,-2 c 0,-0.554 -0.446,-1 -1,-1 l -4,0 z m 0,5 c -0.554,0 -1,0.446 -1,1 l 0,2 c 0,0.554 0.446,1 1,1 l 4,0 c 0.554,0 1,-0.446 1,-1 l 0,-2 c 0,-0.554 -0.446,-1 -1,-1 l -4,0 z m 0,5 c -0.554,0 -1,0.446 -1,1 l 0,2 c 0,0.554 0.446,1 1,1 l 4,0 c 0.554,0 1,-0.446 1,-1 l 0,-2 c 0,-0.554 -0.446,-1 -1,-1 l -4,0 z" fill="url(#linearGradient3845)" fill-opacity="1" stroke="none" inkscape:connector-curvature="0"/>
    <path d="m 35,6 c -0.554,0 -1,0.446 -1,1 l 0,2 c 0,0.554 0.446,1 1,1 l 4,0 c 0.554,0 1,-0.446 1,-1 L 40,7 C 40,6.446 39.554,6 39,6 l -4,0 z m 0,5 c -0.554,0 -1,0.446 -1,1 l 0,2 c 0,0.554 0.446,1 1,1 l 4,0 c 0.554,0 1,-0.446 1,-1 l 0,-2 c 0,-0.554 -0.446,-1 -1,-1 l -4,0 z m 0,5 c -0.554,0 -1,0.446 -1,1 l 0,2 c 0,0.554 0.446,1 1,1 l 4,0 c 0.554,0 1,-0.446 1,-1 l 0,-2 c 0,-0.554 -0.446,-1 -1,-1 l -4,0 z m 0,5 c -0.554,0 -1,0.446 -1,1 l 0,2 c 0,0.554 0.446,1 1,1 l 4,0 c 0.554,0 1,-0.446 1,-1 l 0,-2 c 0,-0.554 -0.446,-1 -1,-1 l -4,0 z m 0,5 c -0.554,0 -1,0.446 -1,1 l 0,2 c 0,0.554 0.446,1 1,1 l 4,0 c 0.554,0 1,-0.446 1,-1 l 0,-2 c 0,-0.554 -0.446,-1 -1,-1 l -4,0 z m 0,5 c -0.554,0 -1,0.446 -1,1 l 0,2 c 0,0.554 0.446,1 1,1 l 4,0 c 0.554,0 1,-0.446 1,-1 l 0,-2 c 0,-0.554 -0.446,-1 -1,-1 l -4,0 z m 0,5 c -0.554,0 -1,0.446 -1,1 l 0,2 c 0,0.554 0.446,1 1,1 l 4,0 c 0.554,0 1,-0.446 1,-1 l 0,-2 c 0,-0.554 -0.446,-1 -1,-1 l -4,0 z m 0,5 c -0.554,0 -1,0.446 -1,1 l 0,2 c 0,0.554 0.446,1 1,1 l 4,0 c 0.554,0 1,-0.446 1,-1 l 0,-2 c 0,-0.554 -0.446,-1 -1,-1 l -4,0 z m 0,5 c -0.554,0 -1,0.446 -1,1 l 0,2 c 0,0.554 0.446,1 1,1 l 4,0 c 0.554,0 1,-0.446 1,-1 l 0,-2 c 0,-0.554 -0.446,-1 -1,-1 l -4,0 z m 0,5 c -0.554,0 -1,0.446 -1,1 l 0,2 c 0,0.554 0.446,1 1,1 l 4,0 c 0.554,0 1,-0.446 1,-1 l 0,-2 c 0,-0.554 -0.446,-1 -1,-1 l -4,0 z m 0,5 c -0.554,0 -1,0.446 -1,1 l 0,2 c 0,0.554 0.446,1 1,1 l 4,0 c 0.554,0 1,-0.446 1,-1 l 0,-2 c 0,-0.554 -0.446,-1 -1,-1 l -4,0 z m 0,5 c -0.554,0 -1,0.446 -1,1 l 0,2 c 0,0.554 0.446,1 1,1 l 4,0 c 0.554,0 1,-0.446 1,-1 l 0,-2 c 0,-0.554 -0.446,-1 -1,-1 l -4,0 z m 0,5 c -0.554,0 -1,0.446 -1,1 l 0,2 c 0,0.554 0.446,1 1,1 l 4,0 c 0.554,0 1,-0.446 1,-1 l 0,-2 c 0,-0.554 -0.446,-1 -1,-1 l -4,0 z m 0,5 c -0.554,0 -1,0.446 -1,1 l 0,2 c 0,0.554 0.446,1 1,1 l 4,0 c 0.554,0 1,-0.446 1,-1 l 0,-2 c 0,-0.554 -0.446,-1 -1,-1 l -4,0 z m 0,5 c -0.554,0 -1,0.446 -1,1 l 0,2 c 0,0.554 0.446,1 1,1 l 4,0 c 0.554,0 1,-0.446 1,-1 l 0,-2 c 0,-0.554 -0.446,-1 -1,-1 l -4,0 z m 0,5 c -0.554,0 -1,0.446 -1,1 l 0,2 c 0,0.554 0.446,1 1,1 l 4,0 c 0.554,0 1,-0.446 1,-1 l 0,-2 c 0,-0.554 -0.446,-1 -1,-1 l -4,0 z m 0,5 c -0.554,0 -1,0.446 -1,1 l 0,2 c 0,0.554 0.446,1 1,1 l 4,0 c 0.554,0 1,-0.446 1,-1 l 0,-2 c 0,-0.554 -0.446,-1 -1,-1 l -4,0 z" fill="url(#linearGradient3847)" fill-opacity="1" stroke="none" inkscape:connector-curvature="0"/>
    <path d="m 42,6 c -0.554,0 -1,0.446 -1,1 l 0,2 c 0,0.554 0.446,1 1,1 l 4,0 c 0.554,0 1,-0.446 1,-1 L 47,7 C 47,6.446 46.554,6 46,6 l -4,0 z m 0,5 c -0.554,0 -1,0.446 -1,1 l 0,2 c 0,0.554 0.446,1 1,1 l 4,0 c 0.554,0 1,-0.446 1,-1 l 0,-2 c 0,-0.554 -0.446,-1 -1,-1 l -4,0 z m 0,5 c -0.554,0 -1,0.446 -1,1 l 0,2 c 0,0.554 0.446,1 1,1 l 4,0 c 0.554,0 1,-0.446 1,-1 l 0,-2 c 0,-0.554 -0.446,-1 -1,-1 l -4,0 z m 0,5 c -0.554,0 -1,0.446 -1,1 l 0,2 c 0,0.554 0.446,1 1,1 l 4,0 c 0.554,0 1,-0.446 1,-1 l 0,-2 c 0,-0.554 -0.446,-1 -1,-1 l -4,0 z m 0,5 c -0.554,0 -1,0.446 -1,1 l 0,2 c 0,0.554 0.446,1 1,1 l 4,0 c 0.554,0 1,-0.446 1,-1 l 0,-2 c 0,-0.554 -0.446,-1 -1,-1 l -4,0 z m 0,5 c -0.554,0 -1,0.446 -1,1 l 0,2 c 0,0.554 0.446,1 1,1 l 4,0 c 0.554,0 1,-0.446 1,-1 l 0,-2 c 0,-0.554 -0.446,-1 -1,-1 l -4,0 z m 0,5 c -0.554,0 -1,0.446 -1,1 l 0,2 c 0,0.554 0.446,1 1,1 l 4,0 c 0.554,0 1,-0.446 1,-1 l 0,-2 c 0,-0.554 -0.446,-1 -1,-1 l -4,0 z m 0,5 c -0.554,0 -1,0.446 -1,1 l 0,2 c 0,0.554 0.446,1 1,1 l 4,0 c 0.554,0 1,-0.446 1,-1 l 0,-2 c 0,-0.554 -0.446,-1 -1,-1 l -4,0 z m 0,5 c -0.554,0 -1,0.446 -1,1 l 0,2 c 0,0.554 0.446,1 1,1 l 4,0 c 0.554,0 1,-0.446 1,-1 l 0,-2 c 0,-0.554 -0.446,-1 -1,-1 l -4,0 z m 0,5 c -0.554,0 -1,0.446 -1,1 l 0,2 c 0,0.554 0.446,1 1,1 l 4,0 c 0.554,0 1,-0.446 1,-1 l 0,-2 c 0,-0.554 -0.446,-1 -1,-1 l -4,0 z m 0,5 c -0.554,0 -1,0.446 -1,1 l 0,2 c 0,0.554 0.446,1 1,1 l 4,0 c 0.554,0 1,-0.446 1,-1 l 0,-2 c 0,-0.554 -0.446,-1 -1,-1 l -4,0 z m 0,5 c -0.554,0 -1,0.446 -1,1 l 0,2 c 0,0.554 0.446,1 1,1 l 4,0 c 0.554,0 1,-0.446 1,-1 l 0,-2 c 0,-0.554 -0.446,-1 -1,-1 l -4,0 z m 0,5 c -0.554,0 -1,0.446 -1,1 l 0,2 c 0,0.554 0.446,1 1,1 l 4,0 c 0.554,0 1,-0.446 1,-1 l 0,-2 c 0,-0.554 -0.446,-1 -1,-1 l -4,0 z m 0,5 c -0.554,0 -1,0.446 -1,1 l 0,2 c 0,0.554 0.446,1 1,1 l 4,0 c 0.554,0 1,-0.446 1,-1 l 0,-2 c 0,-0.554 -0.446,-1 -1,-1 l -4,0 z m 0,5 c -0.554,0 -1,0.446 -1,1 l 0,2 c 0,0.554 0.446,1 1,1 l 4,0 c 0.554,0 1,-0.446 1,-1 l 0,-2 c 0,-0.554 -0.446,-1 -1,-1 l -4,0 z m 0,5 c -0.554,0 -1,0.446 -1,1 l 0,2 c 0,0.554 0.446,1 1,1 l 4,0 c 0.554,0 1,-0.446 1,-1 l 0,-2 c 0,-0.554 -0.446,-1 -1,-1 l -4,0 z m 0,5 c -0.554,0 -1,0.446 -1,1 l 0,2 c 0,0.554 0.446,1 1,1 l 4,0 c 0.554,0 1,-0.446 1,-1 l 0,-2 c 0,-0.554 -0.446,-1 -1,-1 l -4,0 z" fill="url(#linearGradient3849)" fill-opacity="1" stroke="none" inkscape:connector-curvature="0"/>
    <path d="m 49,6 c -0.554,0 -1,0.446 -1,1 l 0,2 c 0,0.554 0.446,1 1,1 l 4,0 c 0.554,0 1,-0.446 1,-1 L 54,7 C 54,6.446 53.554,6 53,6 l -4,0 z m 0,5 c -0.554,0 -1,0.446 -1,1 l 0,2 c 0,0.554 0.446,1 1,1 l 4,0 c 0.554,0 1,-0.446 1,-1 l 0,-2 c 0,-0.554 -0.446,-1 -1,-1 l -4,0 z m 0,5 c -0.554,0 -1,0.446 -1,1 l 0,2 c 0,0.554 0.446,1 1,1 l 4,0 c 0.554,0 1,-0.446 1,-1 l 0,-2 c 0,-0.554 -0.446,-1 -1,-1 l -4,0 z m 0,5 c -0.554,0 -1,0.446 -1,1 l 0,2 c 0,0.554 0.446,1 1,1 l 4,0 c 0.554,0 1,-0.446 1,-1 l 0,-2 c 0,-0.554 -0.446,-1 -1,-1 l -4,0 z m 0,5 c -0.554,0 -1,0.446 -1,1 l 0,2 c 0,0.554 0.446,1 1,1 l 4,0 c 0.554,0 1,-0.446 1,-1 l 0,-2 c 0,-0.554 -0.446,-1 -1,-1 l -4,0 z m 0,5 c -0.554,0 -1,0.446 -1,1 l 0,2 c 0,0.554 0.446,1 1,1 l 4,0 c 0.554,0 1,-0.446 1,-1 l 0,-2 c 0,-0.554 -0.446,-1 -1,-1 l -4,0 z m 0,5 c -0.554,0 -1,0.446 -1,1 l 0,2 c 0,0.554 0.446,1 1,1 l 4,0 c 0.554,0 1,-0.446 1,-1 l 0,-2 c 0,-0.554 -0.446,-1 -1,-1 l -4,0 z m 0,5 c -0.554,0 -1,0.446 -1,1 l 0,2 c 0,0.554 0.446,1 1,1 l 4,0 c 0.554,0 1,-0.446 1,-1 l 0,-2 c 0,-0.554 -0.446,-1 -1,-1 l -4,0 z m 0,5 c -0.554,0 -1,0.446 -1,1 l 0,2 c 0,0.554 0.446,1 1,1 l 4,0 c 0.554,0 1,-0.446 1,-1 l 0,-2 c 0,-0.554 -0.446,-1 -1,-1 l -4,0 z m 0,5 c -0.554,0 -1,0.446 -1,1 l 0,2 c 0,0.554 0.446,1 1,1 l 4,0 c 0.554,0 1,-0.446 1,-1 l 0,-2 c 0,-0.554 -0.446,-1 -1,-1 l -4,0 z m 0,5 c -0.554,0 -1,0.446 -1,1 l 0,2 c 0,0.554 0.446,1 1,1 l 4,0 c 0.554,0 1,-0.446 1,-1 l 0,-2 c 0,-0.554 -0.446,-1 -1,-1 l -4,0 z m 0,5 c -0.554,0 -1,0.446 -1,1 l 0,2 c 0,0.554 0.446,1 1,1 l 4,0 c 0.554,0 1,-0.446 1,-1 l 0,-2 c 0,-0.554 -0.446,-1 -1,-1 l -4,0 z m 0,5 c -0.554,0 -1,0.446 -1,1 l 0,2 c 0,0.554 0.446,1 1,1 l 4,0 c 0.554,0 1,-0.446 1,-1 l 0,-2 c 0,-0.554 -0.446,-1 -1,-1 l -4,0 z m 0,5 c -0.554,0 -1,0.446 -1,1 l 0,2 c 0,0.554 0.446,1 1,1 l 4,0 c 0.554,0 1,-0.446 1,-1 l 0,-2 c 0,-0.554 -0.446,-1 -1,-1 l -4,0 z m 0,5 c -0.554,0 -1,0.446 -1,1 l 0,2 c 0,0.554 0.446,1 1,1 l 4,0 c 0.554,0 1,-0.446 1,-1 l 0,-2 c 0,-0.554 -0.446,-1 -1,-1 l -4,0 z m 0,5 c -0.554,0 -1,0.446 -1,1 l 0,2 c 0,0.554 0.446,1 1,1 l 4,0 c 0.554,0 1,-0.446 1,-1 l 0,-2 c 0,-0.554 -0.446,-1 -1,-1 l -4,0 z m 0,5 c -0.554,0 -1,0.446 -1,1 l 0,2 c 0,0.554 0.446,1 1,1 l 4,0 c 0.554,0 1,-0.446 1,-1 l 0,-2 c 0,-0.554 -0.446,-1 -1,-1 l -4,0 z" fill="url(#linearGradient3851)" fill-opacity="1" stroke="none" inkscape:connector-curvature="0"/>
    <path d="m 56,6 c -0.554,0 -1,0.446 -1,1 l 0,2 c 0,0.554 0.446,1 1,1 l 4,0 c 0.554,0 1,-0.446 1,-1 L 61,7 C 61,6.446 60.554,6 60,6 l -4,0 z m 0,5 c -0.554,0 -1,0.446 -1,1 l 0,2 c 0,0.554 0.446,1 1,1 l 4,0 c 0.554,0 1,-0.446 1,-1 l 0,-2 c 0,-0.554 -0.446,-1 -1,-1 l -4,0 z m 0,5 c -0.554,0 -1,0.446 -1,1 l 0,2 c 0,0.554 0.446,1 1,1 l 4,0 c 0.554,0 1,-0.446 1,-1 l 0,-2 c 0,-0.554 -0.446,-1 -1,-1 l -4,0 z m 0,5 c -0.554,0 -1,0.446 -1,1 l 0,2 c 0,0.554 0.446,1 1,1 l 4,0 c 0.554,0 1,-0.446 1,-1 l 0,-2 c 0,-0.554 -0.446,-1 -1,-1 l -4,0 z m 0,5 c -0.554,0 -1,0.446 -1,1 l 0,2 c 0,0.554 0.446,1 1,1 l 4,0 c 0.554,0 1,-0.446 1,-1 l 0,-2 c 0,-0.554 -0.446,-1 -1,-1 l -4,0 z m 0,5 c -0.554,0 -1,0.446 -1,1 l 0,2 c 0,0.554 0.446,1 1,1 l 4,0 c 0.554,0 1,-0.446 1,-1 l 0,-2 c 0,-0.554 -0.446,-1 -1,-1 l -4,0 z m 0,5 c -0.554,0 -1,0.446 -1,1 l 0,2 c 0,0.554 0.446,1 1,1 l 4,0 c 0.554,0 1,-0.446 1,-1 l 0,-2 c 0,-0.554 -0.446,-1 -1,-1 l -4,0 z m 0,5 c -0.554,0 -1,0.446 -1,1 l 0,2 c 0,0.554 0.446,1 1,1 l 4,0 c 0.554,0 1,-0.446 1,-1 l 0,-2 c 0,-0.554 -0.446,-1 -1,-1 l -4,0 z m 0,5 c -0.554,0 -1,0.446 -1,1 l 0,2 c 0,0.554 0.446,1 1,1 l 4,0 c 0.554,0 1,-0.446 1,-1 l 0,-2 c 0,-0.554 -0.446,-1 -1,-1 l -4,0 z m 0,5 c -0.554,0 -1,0.446 -1,1 l 0,2 c 0,0.554 0.446,1 1,1 l 4,0 c 0.554,0 1,-0.446 1,-1 l 0,-2 c 0,-0.554 -0.446,-1 -1,-1 l -4,0 z m 0,5 c -0.554,0 -1,0.446 -1,1 l 0,2 c 0,0.554 0.446,1 1,1 l 4,0 c 0.554,0 1,-0.446 1,-1 l 0,-2 c 0,-0.554 -0.446,-1 -1,-1 l -4,0 z m 0,5 c -0.554,0 -1,0.446 -1,1 l 0,2 c 0,0.554 0.446,1 1,1 l 4,0 c 0.554,0 1,-0.446 1,-1 l 0,-2 c 0,-0.554 -0.446,-1 -1,-1 l -4,0 z m 0,5 c -0.554,0 -1,0.446 -1,1 l 0,2 c 0,0.554 0.446,1 1,1 l 4,0 c 0.554,0 1,-0.446 1,-1 l 0,-2 c 0,-0.554 -0.446,-1 -1,-1 l -4,0 z m 0,5 c -0.554,0 -1,0.446 -1,1 l 0,2 c 0,0.554 0.446,1 1,1 l 4,0 c 0.554,0 1,-0.446 1,-1 l 0,-2 c 0,-0.554 -0.446,-1 -1,-1 l -4,0 z m 0,5 c -0.554,0 -1,0.446 -1,1 l 0,2 c 0,0.554 0.446,1 1,1 l 4,0 c 0.554,0 1,-0.446 1,-1 l 0,-2 c 0,-0.554 -0.446,-1 -1,-1 l -4,0 z m 0,5 c -0.554,0 -1,0.446 -1,1 l 0,2 c 0,0.554 0.446,1 1,1 l 4,0 c 0.554,0 1,-0.446 1,-1 l 0,-2 c 0,-0.554 -0.446,-1 -1,-1 l -4,0 z m 0,5 c -0.554,0 -1,0.446 -1,1 l 0,2 c 0,0.554 0.446,1 1,1 l 4,0 c 0.554,0 1,-0.446 1,-1 l 0,-2 c 0,-0.554 -0.446,-1 -1,-1 l -4,0 z" fill="url(#linearGradient3853)" fill-opacity="1" stroke="none" inkscape:connector-curvature="0"/>
    <path d="m 63,6 c -0.554,0 -1,0.446 -1,1 l 0,2 c 0,0.554 0.446,1 1,1 l 4,0 c 0.554,0 1,-0.446 1,-1 L 68,7 C 68,6.446 67.554,6 67,6 l -4,0 z m 0,5 c -0.554,0 -1,0.446 -1,1 l 0,2 c 0,0.554 0.446,1 1,1 l 4,0 c 0.554,0 1,-0.446 1,-1 l 0,-2 c 0,-0.554 -0.446,-1 -1,-1 l -4,0 z m 0,5 c -0.554,0 -1,0.446 -1,1 l 0,2 c 0,0.554 0.446,1 1,1 l 4,0 c 0.554,0 1,-0.446 1,-1 l 0,-2 c 0,-0.554 -0.446,-1 -1,-1 l -4,0 z m 0,5 c -0.554,0 -1,0.446 -1,1 l 0,2 c 0,0.554 0.446,1 1,1 l 4,0 c 0.554,0 1,-0.446 1,-1 l 0,-2 c 0,-0.554 -0.446,-1 -1,-1 l -4,0 z m 0,5 c -0.554,0 -1,0.446 -1,1 l 0,2 c 0,0.554 0.446,1 1,1 l 4,0 c 0.554,0 1,-0.446 1,-1 l 0,-2 c 0,-0.554 -0.446,-1 -1,-1 l -4,0 z m 0,5 c -0.554,0 -1,0.446 -1,1 l 0,2 c 0,0.554 0.446,1 1,1 l 4,0 c 0.554,0 1,-0.446 1,-1 l 0,-2 c 0,-0.554 -0.446,-1 -1,-1 l -4,0 z m 0,5 c -0.554,0 -1,0.446 -1,1 l 0,2 c 0,0.554 0.446,1 1,1 l 4,0 c 0.554,0 1,-0.446 1,-1 l 0,-2 c 0,-0.554 -0.446,-1 -1,-1 l -4,0 z m 0,5 c -0.554,0 -1,0.446 -1,1 l 0,2 c 0,0.554 0.446,1 1,1 l 4,0 c 0.554,0 1,-0.446 1,-1 l 0,-2 c 0,-0.554 -0.446,-1 -1,-1 l -4,0 z m 0,5 c -0.554,0 -1,0.446 -1,1 l 0,2 c 0,0.554 0.446,1 1,1 l 4,0 c 0.554,0 1,-0.446 1,-1 l 0,-2 c 0,-0.554 -0.446,-1 -1,-1 l -4,0 z m 0,5 c -0.554,0 -1,0.446 -1,1 l 0,2 c 0,0.554 0.446,1 1,1 l 4,0 c 0.554,0 1,-0.446 1,-1 l 0,-2 c 0,-0.554 -0.446,-1 -1,-1 l -4,0 z m 0,5 c -0.554,0 -1,0.446 -1,1 l 0,2 c 0,0.554 0.446,1 1,1 l 4,0 c 0.554,0 1,-0.446 1,-1 l 0,-2 c 0,-0.554 -0.446,-1 -1,-1 l -4,0 z m 0,5 c -0.554,0 -1,0.446 -1,1 l 0,2 c 0,0.554 0.446,1 1,1 l 4,0 c 0.554,0 1,-0.446 1,-1 l 0,-2 c 0,-0.554 -0.446,-1 -1,-1 l -4,0 z m 0,5 c -0.554,0 -1,0.446 -1,1 l 0,2 c 0,0.554 0.446,1 1,1 l 4,0 c 0.554,0 1,-0.446 1,-1 l 0,-2 c 0,-0.554 -0.446,-1 -1,-1 l -4,0 z m 0,5 c -0.554,0 -1,0.446 -1,1 l 0,2 c 0,0.554 0.446,1 1,1 l 4,0 c 0.554,0 1,-0.446 1,-1 l 0,-2 c 0,-0.554 -0.446,-1 -1,-1 l -4,0 z m 0,5 c -0.554,0 -1,0.446 -1,1 l 0,2 c 0,0.554 0.446,1 1,1 l 4,0 c 0.554,0 1,-0.446 1,-1 l 0,-2 c 0,-0.554 -0.446,-1 -1,-1 l -4,0 z m 0,5 c -0.554,0 -1,0.446 -1,1 l 0,2 c 0,0.554 0.446,1 1,1 l 4,0 c 0.554,0 1,-0.446 1,-1 l 0,-2 c 0,-0.554 -0.446,-1 -1,-1 l -4,0 z m 0,5 c -0.554,0 -1,0.446 -1,1 l 0,2 c 0,0.554 0.446,1 1,1 l 4,0 c 0.554,0 1,-0.446 1,-1 l 0,-2 c 0,-0.554 -0.446,-1 -1,-1 l -4,0 z" fill="url(#linearGradient3855)" fill-opacity="1" stroke="none" inkscape:connector-curvature="0"/>
    <path d="m 70,6 c -0.554,0 -1,0.446 -1,1 l 0,2 c 0,0.554 0.446,1 1,1 l 4,0 c 0.554,0 1,-0.446 1,-1 L 75,7 C 75,6.446 74.554,6 74,6 l -4,0 z m 0,5 c -0.554,0 -1,0.446 -1,1 l 0,2 c 0,0.554 0.446,1 1,1 l 4,0 c 0.554,0 1,-0.446 1,-1 l 0,-2 c 0,-0.554 -0.446,-1 -1,-1 l -4,0 z m 0,5 c -0.554,0 -1,0.446 -1,1 l 0,2 c 0,0.554 0.446,1 1,1 l 4,0 c 0.554,0 1,-0.446 1,-1 l 0,-2 c 0,-0.554 -0.446,-1 -1,-1 l -4,0 z m 0,5 c -0.554,0 -1,0.446 -1,1 l 0,2 c 0,0.554 0.446,1 1,1 l 4,0 c 0.554,0 1,-0.446 1,-1 l 0,-2 c 0,-0.554 -0.446,-1 -1,-1 l -4,0 z m 0,5 c -0.554,0 -1,0.446 -1,1 l 0,2 c 0,0.554 0.446,1 1,1 l 4,0 c 0.554,0 1,-0.446 1,-1 l 0,-2 c 0,-0.554 -0.446,-1 -1,-1 l -4,0 z m 0,5 c -0.554,0 -1,0.446 -1,1 l 0,2 c 0,0.554 0.446,1 1,1 l 4,0 c 0.554,0 1,-0.446 1,-1 l 0,-2 c 0,-0.554 -0.446,-1 -1,-1 l -4,0 z m 0,5 c -0.554,0 -1,0.446 -1,1 l 0,2 c 0,0.554 0.446,1 1,1 l 4,0 c 0.554,0 1,-0.446 1,-1 l 0,-2 c 0,-0.554 -0.446,-1 -1,-1 l -4,0 z m 0,5 c -0.554,0 -1,0.446 -1,1 l 0,2 c 0,0.554 0.446,1 1,1 l 4,0 c 0.554,0 1,-0.446 1,-1 l 0,-2 c 0,-0.554 -0.446,-1 -1,-1 l -4,0 z m 0,5 c -0.554,0 -1,0.446 -1,1 l 0,2 c 0,0.554 0.446,1 1,1 l 4,0 c 0.554,0 1,-0.446 1,-1 l 0,-2 c 0,-0.554 -0.446,-1 -1,-1 l -4,0 z m 0,5 c -0.554,0 -1,0.446 -1,1 l 0,2 c 0,0.554 0.446,1 1,1 l 4,0 c 0.554,0 1,-0.446 1,-1 l 0,-2 c 0,-0.554 -0.446,-1 -1,-1 l -4,0 z m 0,5 c -0.554,0 -1,0.446 -1,1 l 0,2 c 0,0.554 0.446,1 1,1 l 4,0 c 0.554,0 1,-0.446 1,-1 l 0,-2 c 0,-0.554 -0.446,-1 -1,-1 l -4,0 z m 0,5 c -0.554,0 -1,0.446 -1,1 l 0,2 c 0,0.554 0.446,1 1,1 l 4,0 c 0.554,0 1,-0.446 1,-1 l 0,-2 c 0,-0.554 -0.446,-1 -1,-1 l -4,0 z m 0,5 c -0.554,0 -1,0.446 -1,1 l 0,2 c 0,0.554 0.446,1 1,1 l 4,0 c 0.554,0 1,-0.446 1,-1 l 0,-2 c 0,-0.554 -0.446,-1 -1,-1 l -4,0 z m 0,5 c -0.554,0 -1,0.446 -1,1 l 0,2 c 0,0.554 0.446,1 1,1 l 4,0 c 0.554,0 1,-0.446 1,-1 l 0,-2 c 0,-0.554 -0.446,-1 -1,-1 l -4,0 z m 0,5 c -0.554,0 -1,0.446 -1,1 l 0,2 c 0,0.554 0.446,1 1,1 l 4,0 c 0.554,0 1,-0.446 1,-1 l 0,-2 c 0,-0.554 -0.446,-1 -1,-1 l -4,0 z m 0,5 c -0.554,0 -1,0.446 -1,1 l 0,2 c 0,0.554 0.446,1 1,1 l 4,0 c 0.554,0 1,-0.446 1,-1 l 0,-2 c 0,-0.554 -0.446,-1 -1,-1 l -4,0 z m 0,5 c -0.554,0 -1,0.446 -1,1 l 0,2 c 0,0.554 0.446,1 1,1 l 4,0 c 0.554,0 1,-0.446 1,-1 l 0,-2 c 0,-0.554 -0.446,-1 -1,-1 l -4,0 z" fill="url(#linearGradient3857)" fill-opacity="1" stroke="none" inkscape:connector-curvature="0"/>
    <path d="m 77,6 c -0.554,0 -1,0.446 -1,1 l 0,2 c 0,0.554 0.446,1 1,1 l 4,0 c 0.554,0 1,-0.446 1,-1 L 82,7 C 82,6.446 81.554,6 81,6 l -4,0 z m 0,5 c -0.554,0 -1,0.446 -1,1 l 0,2 c 0,0.554 0.446,1 1,1 l 4,0 c 0.554,0 1,-0.446 1,-1 l 0,-2 c 0,-0.554 -0.446,-1 -1,-1 l -4,0 z m 0,5 c -0.554,0 -1,0.446 -1,1 l 0,2 c 0,0.554 0.446,1 1,1 l 4,0 c 0.554,0 1,-0.446 1,-1 l 0,-2 c 0,-0.554 -0.446,-1 -1,-1 l -4,0 z m 0,5 c -0.554,0 -1,0.446 -1,1 l 0,2 c 0,0.554 0.446,1 1,1 l 4,0 c 0.554,0 1,-0.446 1,-1 l 0,-2 c 0,-0.554 -0.446,-1 -1,-1 l -4,0 z m 0,5 c -0.554,0 -1,0.446 -1,1 l 0,2 c 0,0.554 0.446,1 1,1 l 4,0 c 0.554,0 1,-0.446 1,-1 l 0,-2 c 0,-0.554 -0.446,-1 -1,-1 l -4,0 z m 0,5 c -0.554,0 -1,0.446 -1,1 l 0,2 c 0,0.554 0.446,1 1,1 l 4,0 c 0.554,0 1,-0.446 1,-1 l 0,-2 c 0,-0.554 -0.446,-1 -1,-1 l -4,0 z m 0,5 c -0.554,0 -1,0.446 -1,1 l 0,2 c 0,0.554 0.446,1 1,1 l 4,0 c 0.554,0 1,-0.446 1,-1 l 0,-2 c 0,-0.554 -0.446,-1 -1,-1 l -4,0 z m 0,5 c -0.554,0 -1,0.446 -1,1 l 0,2 c 0,0.554 0.446,1 1,1 l 4,0 c 0.554,0 1,-0.446 1,-1 l 0,-2 c 0,-0.554 -0.446,-1 -1,-1 l -4,0 z m 0,5 c -0.554,0 -1,0.446 -1,1 l 0,2 c 0,0.554 0.446,1 1,1 l 4,0 c 0.554,0 1,-0.446 1,-1 l 0,-2 c 0,-0.554 -0.446,-1 -1,-1 l -4,0 z m 0,5 c -0.554,0 -1,0.446 -1,1 l 0,2 c 0,0.554 0.446,1 1,1 l 4,0 c 0.554,0 1,-0.446 1,-1 l 0,-2 c 0,-0.554 -0.446,-1 -1,-1 l -4,0 z m 0,5 c -0.554,0 -1,0.446 -1,1 l 0,2 c 0,0.554 0.446,1 1,1 l 4,0 c 0.554,0 1,-0.446 1,-1 l 0,-2 c 0,-0.554 -0.446,-1 -1,-1 l -4,0 z m 0,5 c -0.554,0 -1,0.446 -1,1 l 0,2 c 0,0.554 0.446,1 1,1 l 4,0 c 0.554,0 1,-0.446 1,-1 l 0,-2 c 0,-0.554 -0.446,-1 -1,-1 l -4,0 z m 0,5 c -0.554,0 -1,0.446 -1,1 l 0,2 c 0,0.554 0.446,1 1,1 l 4,0 c 0.554,0 1,-0.446 1,-1 l 0,-2 c 0,-0.554 -0.446,-1 -1,-1 l -4,0 z m 0,5 c -0.554,0 -1,0.446 -1,1 l 0,2 c 0,0.554 0.446,1 1,1 l 4,0 c 0.554,0 1,-0.446 1,-1 l 0,-2 c 0,-0.554 -0.446,-1 -1,-1 l -4,0 z m 0,5 c -0.554,0 -1,0.446 -1,1 l 0,2 c 0,0.554 0.446,1 1,1 l 4,0 c 0.554,0 1,-0.446 1,-1 l 0,-2 c 0,-0.554 -0.446,-1 -1,-1 l -4,0 z m 0,5 c -0.554,0 -1,0.446 -1,1 l 0,2 c 0,0.554 0.446,1 1,1 l 4,0 c 0.554,0 1,-0.446 1,-1 l 0,-2 c 0,-0.554 -0.446,-1 -1,-1 l -4,0 z m 0,5 c -0.554,0 -1,0.446 -1,1 l 0,2 c 0,0.554 0.446,1 1,1 l 4,0 c 0.554,0 1,-0.446 1,-1 l 0,-2 c 0,-0.554 -0.446,-1 -1,-1 l -4,0 z" fill="url(#linearGradient3859)" fill-opacity="1" stroke="none" inkscape:connector-curvature="0"/>
    <path d="m 84,6 c -0.554,0 -1,0.446 -1,1 l 0,2 c 0,0.554 0.446,1 1,1 l 4,0 c 0.554,0 1,-0.446 1,-1 L 89,7 C 89,6.446 88.554,6 88,6 l -4,0 z m 0,5 c -0.554,0 -1,0.446 -1,1 l 0,2 c 0,0.554 0.446,1 1,1 l 4,0 c 0.554,0 1,-0.446 1,-1 l 0,-2 c 0,-0.554 -0.446,-1 -1,-1 l -4,0 z m 0,5 c -0.554,0 -1,0.446 -1,1 l 0,2 c 0,0.554 0.446,1 1,1 l 4,0 c 0.554,0 1,-0.446 1,-1 l 0,-2 c 0,-0.554 -0.446,-1 -1,-1 l -4,0 z m 0,5 c -0.554,0 -1,0.446 -1,1 l 0,2 c 0,0.554 0.446,1 1,1 l 4,0 c 0.554,0 1,-0.446 1,-1 l 0,-2 c 0,-0.554 -0.446,-1 -1,-1 l -4,0 z m 0,5 c -0.554,0 -1,0.446 -1,1 l 0,2 c 0,0.554 0.446,1 1,1 l 4,0 c 0.554,0 1,-0.446 1,-1 l 0,-2 c 0,-0.554 -0.446,-1 -1,-1 l -4,0 z m 0,5 c -0.554,0 -1,0.446 -1,1 l 0,2 c 0,0.554 0.446,1 1,1 l 4,0 c 0.554,0 1,-0.446 1,-1 l 0,-2 c 0,-0.554 -0.446,-1 -1,-1 l -4,0 z m 0,5 c -0.554,0 -1,0.446 -1,1 l 0,2 c 0,0.554 0.446,1 1,1 l 4,0 c 0.554,0 1,-0.446 1,-1 l 0,-2 c 0,-0.554 -0.446,-1 -1,-1 l -4,0 z m 0,5 c -0.554,0 -1,0.446 -1,1 l 0,2 c 0,0.554 0.446,1 1,1 l 4,0 c 0.554,0 1,-0.446 1,-1 l 0,-2 c 0,-0.554 -0.446,-1 -1,-1 l -4,0 z m 0,5 c -0.554,0 -1,0.446 -1,1 l 0,2 c 0,0.554 0.446,1 1,1 l 4,0 c 0.554,0 1,-0.446 1,-1 l 0,-2 c 0,-0.554 -0.446,-1 -1,-1 l -4,0 z m 0,5 c -0.554,0 -1,0.446 -1,1 l 0,2 c 0,0.554 0.446,1 1,1 l 4,0 c 0.554,0 1,-0.446 1,-1 l 0,-2 c 0,-0.554 -0.446,-1 -1,-1 l -4,0 z m 0,5 c -0.554,0 -1,0.446 -1,1 l 0,2 c 0,0.554 0.446,1 1,1 l 4,0 c 0.554,0 1,-0.446 1,-1 l 0,-2 c 0,-0.554 -0.446,-1 -1,-1 l -4,0 z m 0,5 c -0.554,0 -1,0.446 -1,1 l 0,2 c 0,0.554 0.446,1 1,1 l 4,0 c 0.554,0 1,-0.446 1,-1 l 0,-2 c 0,-0.554 -0.446,-1 -1,-1 l -4,0 z m 0,5 c -0.554,0 -1,0.446 -1,1 l 0,2 c 0,0.554 0.446,1 1,1 l 4,0 c 0.554,0 1,-0.446 1,-1 l 0,-2 c 0,-0.554 -0.446,-1 -1,-1 l -4,0 z m 0,5 c -0.554,0 -1,0.446 -1,1 l 0,2 c 0,0.554 0.446,1 1,1 l 4,0 c 0.554,0 1,-0.446 1,-1 l 0,-2 c 0,-0.554 -0.446,-1 -1,-1 l -4,0 z m 0,5 c -0.554,0 -1,0.446 -1,1 l 0,2 c 0,0.554 0.446,1 1,1 l 4,0 c 0.554,0 1,-0.446 1,-1 l 0,-2 c 0,-0.554 -0.446,-1 -1,-1 l -4,0 z m 0,5 c -0.554,0 -1,0.446 -1,1 l 0,2 c 0,0.554 0.446,1 1,1 l 4,0 c 0.554,0 1,-0.446 1,-1 l 0,-2 c 0,-0.554 -0.446,-1 -1,-1 l -4,0 z m 0,5 c -0.554,0 -1,0.446 -1,1 l 0,2 c 0,0.554 0.446,1 1,1 l 4,0 c 0.554,0 1,-0.446 1,-1 l 0,-2 c 0,-0.554 -0.446,-1 -1,-1 l -4,0 z" fill="url(#linearGradient3861)" fill-opacity="1" stroke="none" inkscape:connector-curvature="0"/>
   </g>
   <rect x="6" rx="6" y="42" fill="url(#linearGradient3869)" fill-opacity="1" fill-rule="nonzero" stroke="none" height="48" opacity="0.4" width="84"/>
   <path d="M 47.96875,20.03125 C 41.839162,19.901011 36.648675,25.470243 37.0625,31.5625 l -0.03125,0 0,12.5625 c -0.198974,-0.02185 -0.415541,-0.09349 -0.59375,-0.09375 -0.80461,-0.0012 -1.460193,0.07822 -1.84375,0.03125 a 1.2043073,1.2043073 0 0 0 -0.21875,0 c -1.166616,0.06995 -2.641359,-0.236779 -4.28125,0.125 A 1.2043073,1.2043073 0 0 0 29.875,44.28125 C 28.652276,44.809103 28.109801,46.056713 28.03125,47 c -0.0731,0.877794 0.04773,1.628003 0.03125,2.09375 -0.0012,0.03475 0.0026,0.125199 0,0.15625 -0.14068,0.892637 0.08097,1.796088 0.59375,2.5 0.514587,0.706392 1.403715,1.171661 2.40625,1.15625 -0.0026,0.03035 0.0047,-0.0013 0,0.03125 a 1.2043073,1.2043073 0 0 0 0,0.125 c -0.235999,4.136227 0.645875,8.48782 3.34375,11.90625 0.0089,0.01179 0.02229,0.01948 0.03125,0.03125 1.939812,2.54784 4.642845,4.445197 7.625,5.59375 0.01137,0.179406 -0.008,0.413466 0,0.5625 -0.351151,0.03042 -0.668114,-0.03703 -1.03125,0.09375 -0.791801,0.285158 -1.622507,1.005746 -1.875,2.03125 A 1.2043073,1.2043073 0 0 0 39.125,73.5 c -0.0837,1.302397 -0.168679,2.724697 0.03125,4.15625 a 1.2043073,1.2043073 0 0 0 0.03125,0.15625 c 0.276505,1.052938 1.162615,1.722508 1.96875,1.96875 0.760943,0.232438 1.483353,0.21191 2.09375,0.15625 l 0,0.03125 c 3.693899,-0.04212 7.477158,0.08688 11.25,-0.0625 a 1.2043073,1.2043073 0 0 0 0.21875,-0.0625 C 55.73442,79.593555 56.461148,78.786351 56.75,78 c 0.272916,-0.742966 0.262453,-1.465621 0.1875,-2.125 l 0.03125,0 c -0.01602,-0.448565 0.07203,-1.212623 -0.03125,-2.0625 -0.101888,-0.838425 -0.605242,-1.929867 -1.65625,-2.4375 -0.0068,-0.0033 0.0068,-0.02802 0,-0.03125 -0.01105,-0.0055 -0.02023,0.0053 -0.03125,0 -0.499638,-0.241215 -0.945004,-0.29818 -1.34375,-0.3125 -0.008,-0.06249 0.0037,-0.195375 0,-0.25 -0.0051,-0.07513 -7.39e-4,-0.07406 0,-0.125 6.639395,-2.463793 11.400532,-9.172976 11.03125,-16.34375 l 0.03125,0 0,-1.46875 c 0.300354,-0.02598 0.556797,0.03425 0.875,-0.0625 0.806816,-0.245318 1.691995,-0.915642 1.96875,-1.96875 a 1.2043073,1.2043073 0 0 0 0.03125,-0.15625 c 0.197423,-1.42829 0.116988,-2.881652 0.03125,-4.1875 a 1.2043073,1.2043073 0 0 0 -0.03125,-0.1875 C 67.593555,45.26558 66.786351,44.538852 66,44.25 65.257034,43.977084 64.534379,43.987547 63.875,44.0625 l 0,-0.03125 c -1.486347,0.05468 -3.186886,-0.01515 -4.90625,0.125 -0.02136,-4.700787 0.04781,-9.443424 -0.0625,-14.1875 A 1.2043073,1.2043073 0 0 0 58.875,29.90625 c -0.470639,-5.494906 -5.326467,-9.939432 -10.84375,-9.875 -0.0209,2.44e-4 -0.04158,-3.73e-4 -0.0625,0 z" fill="#000000" fill-opacity="1" stroke="none" opacity="0.08" inkscape:connector-curvature="0"/>
   <path d="m 48,20.1875 c -5.94656,0 -10.8125,4.86594 -10.8125,10.8125 l 0,13.1875 c -0.02987,-0.0041 -0.06249,10e-7 -0.0625,0 -0.0023,-1.3e-4 -0.153971,2e-5 -0.15625,0 l -1.96875,0 -1,0 -2.90625,0 -0.03125,0 c -9.31e-4,-4.6e-5 -0.03035,2.45e-4 -0.0625,0 -0.04823,-3.68e-4 -0.113353,0 -0.09375,0 0.02614,0 -0.07964,-3.64e-4 -0.125,0 -0.0233,-4.4e-5 -0.15509,-1.15e-4 -0.15625,0 a 1.0551535,1.0551535 0 0 0 -0.1875,0.0625 1.0551535,1.0551535 0 0 0 -0.03125,0 c -0.009,0.0018 -0.02154,-0.0019 -0.03125,0 -0.03886,0.0077 -0.185569,0.06191 -0.1875,0.0625 -0.01872,0.0093 -0.03315,0.03231 -0.03125,0.03125 -0.06593,0.0253 -0.269547,0.0828 -0.21875,0.0625 -0.0037,0.0015 -0.182394,0.09118 -0.1875,0.09375 0.105817,-0.05325 -0.215314,0.09163 -0.21875,0.09375 -0.0034,0.0021 -0.351929,0.278177 -0.1875,0.15625 -0.03692,0.02738 -0.03139,0.008 -0.0625,0.03125 -0.03111,0.02328 -0.123489,0.123663 -0.125,0.125 -0.003,0.0027 -0.153467,0.153326 -0.15625,0.15625 -3.48e-4,3.66e-4 -0.08874,0.08716 -0.09375,0.09375 3.14e-4,-3.16e-4 0.0037,0.02761 0,0.03125 -0.008,0.01072 -0.05378,0.01958 -0.0625,0.03125 -0.02325,0.03113 0.0013,0.02967 0,0.03125 -0.0057,0.0057 -0.02338,-0.008 -0.03125,0 -0.0039,0.004 -0.02216,0.02159 -0.03125,0.03125 -0.0045,0.0048 0.01133,0.0185 0,0.03125 -0.01133,0.01275 -0.09368,0.09365 -0.09375,0.09375 -0.0022,0.0034 -0.154305,0.246463 -0.15625,0.25 -0.0019,0.0035 -0.09212,0.18381 -0.09375,0.1875 -8.17e-4,0.0018 0.01566,1.39e-4 0,0.03125 -0.0078,0.01556 -0.0243,0.01732 -0.03125,0.03125 -0.0035,0.007 0.0039,0.02334 0,0.03125 -0.0039,0.0082 -0.06242,0.124761 -0.0625,0.125 -8.2e-5,2.39e-4 -0.02943,0.116682 -0.03125,0.125 -0.0018,0.0086 0.0017,0.02287 0,0.03125 -0.0034,0.01676 -0.02741,0.04307 -0.03125,0.0625 -0.0077,0.03886 4.9e-4,0.02929 0,0.03125 -9.79e-4,0.0039 -0.03061,0.246015 -0.03125,0.25 -3.19e-4,0.002 -0.0234,-0.0076 -0.03125,0.03125 -0.0039,0.01942 0.0033,0.04587 0,0.0625 -0.0016,0.0084 -0.03121,0.155747 -0.03125,0.15625 -1.47e-4,0.002 -3.1e-5,0.09375 0,0.125 3.1e-5,0.03125 -0.0014,-0.04969 0,0.0625 l 0,3 c 2e-5,0.0023 -1.3e-4,0.153974 0,0.15625 1e-6,1.5e-5 0.02663,0.02862 0.03125,0.0625 -3.8e-5,0.0079 4e-6,0.02177 0,0.03125 -1.4e-5,0.0064 5.1e-5,0.0196 0,0.03125 0.0013,0.0098 -3e-6,0.03124 0,0.03125 -4e-6,0.006 -7.6e-5,0.02232 0,0.03125 3.8e-5,0.0045 -2.85e-4,0.01982 0,0.03125 0.0026,0.0097 -0.0015,0.02597 0,0.03125 3.41e-4,0.0067 0.02712,0.03067 0.03125,0.0625 0.0056,0.04341 -8e-6,0.09371 0,0.09375 5.7e-5,2.79e-4 0.02928,0.118997 0.03125,0.125 0.0035,0.01044 -0.0039,0.01962 0,0.03125 0.01011,0.03097 0.05646,0.110618 0.0625,0.125 0.0073,0.01738 -0.003,0.0247 0,0.03125 8.55e-4,0.0026 0.03037,-0.0026 0.03125,0 0.0017,0.0035 -0.0012,0.02887 0,0.03125 0.0049,0.0098 -0.004,0.02346 0,0.03125 0.0029,0.0085 -1.5e-4,0.03084 0,0.03125 9.7e-5,2.68e-4 0.05956,0.08776 0.0625,0.09375 0.0018,0.0053 -0.0021,0.02514 0,0.03125 0.0012,0.0033 0.0205,0.03651 0.03125,0.0625 0.0013,0.0038 -0.0045,0.01926 0,0.03125 0.0053,0.01287 0.03123,0.03121 0.03125,0.03125 0.0049,0.01079 -0.0055,0.0192 0,0.03125 0.002,0.0056 0.02509,0.0156 0.03125,0.03125 0.0068,0.01348 -3.24e-4,0.03065 0,0.03125 0.0034,0.0081 -1.6e-5,0.03121 0,0.03125 3.2e-5,7.3e-5 0.06248,0.09372 0.0625,0.09375 5e-6,9e-6 0.02187,0.01786 0.03125,0.03125 0.0039,0.0078 0.02668,0.0221 0.03125,0.03125 0.01802,0.02571 0.03123,0.06247 0.03125,0.0625 4.7e-5,5.8e-5 0.0248,0.02393 0.03125,0.03125 0.01997,0.03045 0.03122,0.06247 0.03125,0.0625 0.01095,0.01395 0.02836,0.02806 0.03125,0.03125 0.01223,0.01452 0.01835,0.01605 0.03125,0.03125 0.0129,0.0152 0.02923,0.02915 0.03125,0.03125 0.0061,0.0063 -0.0026,0.02866 0,0.03125 0.0076,0.0075 0.02345,0.0235 0.03125,0.03125 0.02529,0.02723 0.05378,0.05381 0.0625,0.0625 0.0015,0.0017 0.116204,0.116204 0.09375,0.09375 -0.02245,-0.02245 0.09206,0.09222 0.09375,0.09375 0.0087,0.0087 0.03526,0.03721 0.0625,0.0625 0.0077,0.0078 0.0237,0.0237 0.03125,0.03125 0.0026,0.0026 0.02495,-0.0061 0.03125,0 0.0021,0.002 0.01605,0.01835 0.03125,0.03125 0.0152,0.0129 0.01673,0.01902 0.03125,0.03125 0.01452,0.01223 0.03121,0.03122 0.03125,0.03125 0.0037,0.0036 0.02099,0.02161 0.03125,0.03125 0.0107,0.0071 0.01983,-0.0075 0.03125,0 0.0073,0.0064 0.03119,0.0312 0.03125,0.03125 0.01358,0.0077 0.02594,0.0284 0.03125,0.03125 0.0077,0.0054 0.0219,-0.0066 0.03125,0 0.0092,0.0046 0.02341,0.02738 0.03125,0.03125 0.01339,0.0094 0.03124,0.03124 0.03125,0.03125 3.1e-5,1.8e-5 0.09368,0.06247 0.09375,0.0625 7.3e-5,3.2e-5 0.05467,-0.0031 0.0625,0 0.03146,0.01584 0.06106,0.03056 0.0625,0.03125 0.01619,0.0074 0.02765,0.02989 0.03125,0.03125 0.01199,0.0045 0.0275,-0.0013 0.03125,0 0.02599,0.01075 0.05917,0.03009 0.0625,0.03125 0.0061,0.0021 0.026,-0.0018 0.03125,0 0.0105,0.0035 0.0196,0.0274 0.03125,0.03125 0.03113,0.01328 0.06234,0.03119 0.0625,0.03125 0.0031,0.0016 0.02736,-0.002 0.03125,0 0.01707,0.0057 0.03614,-0.0088 0.0625,0 0.0035,0.0017 -0.0066,0.02824 0,0.03125 0.02559,0.0085 0.06166,-2.59e-4 0.0625,0 0.03195,0.01113 0.06923,0.05449 0.09375,0.0625 0.01163,0.0039 0.02081,-0.0035 0.03125,0 0.006,0.002 0.124721,0.03119 0.125,0.03125 4e-5,8e-6 0.05034,-0.0056 0.09375,0 0.03183,0.0041 0.0558,0.03091 0.0625,0.03125 0.0053,0.0015 0.02152,-0.0026 0.03125,0 0.01143,2.85e-4 0.02679,-3.8e-5 0.03125,0 0.01138,0.002 0.03126,10e-7 0.03125,0 4.5e-5,1e-5 0.04755,-0.0063 0.09375,0 0.03388,0.0046 0.06248,0.03125 0.0625,0.03125 0.0023,1.3e-4 0.153971,-2e-5 0.15625,0 l 0.1875,0 0,2.1875 c 0,7.122527 4.688041,13.056905 11,15.46875 l 0,0.71875 -0.1875,0 c -0.0023,2e-5 -0.153974,-1.3e-4 -0.15625,0 -1.5e-5,10e-7 -0.02862,0.02663 -0.0625,0.03125 -0.0462,0.0063 -0.0937,-1e-5 -0.09375,0 -3.9e-5,8e-6 -0.02105,-0.0024 -0.03125,0 -0.0102,0.0024 -0.02638,-0.0013 -0.03125,0 -0.0057,1.42e-4 -0.01541,-8.07e-4 -0.03125,0 -0.0067,3.41e-4 -0.03067,0.02712 -0.0625,0.03125 -0.04341,0.0056 -0.09371,-8e-6 -0.09375,0 -2.79e-4,5.7e-5 -0.118997,0.02928 -0.125,0.03125 0.0011,-2.83e-4 -0.05451,0.0078 -0.03125,0 -0.03097,0.01011 -0.110618,0.05646 -0.125,0.0625 -0.01738,0.0073 -0.0247,-0.003 -0.03125,0 -0.01311,0.006 -0.02649,0.02894 -0.03125,0.03125 -0.02559,0.0086 -0.06168,-2.99e-4 -0.0625,0 -1.65e-4,6e-5 -0.03137,0.01797 -0.0625,0.03125 -0.01165,0.0039 -0.02074,0.02775 -0.03125,0.03125 -0.0053,0.0018 -0.02514,-0.0021 -0.03125,0 -0.0033,0.0012 -0.03651,0.0205 -0.0625,0.03125 -0.0038,0.0013 -0.01926,-0.0045 -0.03125,0 -0.01199,0.0045 -0.125063,0.06253 -0.125,0.0625 -0.0081,0.0034 -0.03121,-1.6e-5 -0.03125,0 -7.3e-5,3.2e-5 -0.09372,0.06248 -0.09375,0.0625 -1.7e-5,1e-5 -0.02977,0.03956 -0.0625,0.0625 -0.02571,0.01802 -0.06247,0.03123 -0.0625,0.03125 -0.01358,0.0077 -0.09369,0.06246 -0.09375,0.0625 -0.01395,0.01095 -0.02806,0.02836 -0.03125,0.03125 -0.0077,0.0078 -0.02763,0.02761 -0.03125,0.03125 -0.0152,0.0129 -0.02915,0.02923 -0.03125,0.03125 -0.0063,0.0061 -0.02866,-0.0026 -0.03125,0 -0.0075,0.0076 -0.0235,0.02345 -0.03125,0.03125 -0.02723,0.02529 -0.05381,0.05378 -0.0625,0.0625 -0.0017,0.0015 -0.116204,0.116204 -0.09375,0.09375 0.02245,-0.02245 -0.09222,0.09206 -0.09375,0.09375 -0.0087,0.0087 -0.03721,0.03526 -0.0625,0.0625 -0.0078,0.0077 -0.0237,0.0237 -0.03125,0.03125 -0.0038,0.0041 1.16e-4,0.03111 0,0.03125 -0.002,0.0021 -0.01835,0.01605 -0.03125,0.03125 -0.0036,0.0036 -0.02343,0.02352 -0.03125,0.03125 -0.0078,0.0077 -0.02259,0.02261 -0.03125,0.03125 -0.0036,0.0037 -0.02161,0.02099 -0.03125,0.03125 -0.0048,0.0051 0.0129,0.0166 0,0.03125 -0.01248,0.01903 -0.02827,0.02603 -0.03125,0.03125 -0.0077,0.01358 -0.0284,0.02594 -0.03125,0.03125 -0.0057,0.01063 0.0021,0.02719 0,0.03125 -0.0046,0.0092 -0.02738,0.02341 -0.03125,0.03125 -0.0094,0.01339 -0.03124,0.03124 -0.03125,0.03125 -1.8e-5,3e-5 -0.06247,0.09368 -0.0625,0.09375 -3.2e-5,7.3e-5 0.0031,0.05467 0,0.0625 -0.0091,0.01798 -0.02221,0.01327 -0.03125,0.03125 -0.003,0.0088 0.002,0.02533 0,0.03125 -0.0039,0.01184 -0.02742,0.01959 -0.03125,0.03125 -0.0038,0.01166 0.0021,0.02483 0,0.03125 -0.01075,0.02599 -0.03009,0.05917 -0.03125,0.0625 0.0079,-0.0156 -4.4e-4,0.0323 0,0.03125 -0.0035,0.0105 -0.0274,0.0196 -0.03125,0.03125 -0.01328,0.03113 -0.03119,0.06234 -0.03125,0.0625 -0.0016,0.0031 0.002,0.02736 0,0.03125 -0.004,0.0078 0.0049,0.02145 0,0.03125 -0.0051,0.01535 -0.02612,0.0159 -0.03125,0.03125 -0.003,0.0066 0.0073,0.01387 0,0.03125 -0.0028,0.0085 1.29e-4,0.03083 0,0.03125 -0.01113,0.03195 -0.05449,0.06923 -0.0625,0.09375 0.0078,-0.02326 -2.83e-4,0.03235 0,0.03125 -0.002,0.006 -0.03119,0.124721 -0.03125,0.125 -8e-6,4e-5 0.0056,0.05034 0,0.09375 -0.0041,0.03183 -0.03091,0.0558 -0.03125,0.0625 -8.07e-4,0.01584 1.42e-4,0.02554 0,0.03125 -2.85e-4,0.01143 3.8e-5,0.02679 0,0.03125 -7.6e-5,0.0089 -4e-6,0.0253 0,0.03125 8e-6,0.0119 -5.1e-5,0.0196 0,0.03125 -1.28e-4,0.0074 5e-6,0.03019 0,0.03125 4e-6,0.0095 -3.8e-5,0.0234 0,0.03125 -0.0046,0.03388 -0.03125,0.06248 -0.03125,0.0625 -1.3e-4,0.0023 2e-5,0.153971 0,0.15625 l 0,3 c 2e-5,0.0023 -1.3e-4,0.153974 0,0.15625 10e-7,1.5e-5 0.02663,0.02862 0.03125,0.0625 0.0016,0.02879 4.5e-5,0.09418 0,0.09375 -4e-6,0.006 -7.6e-5,0.02232 0,0.03125 3.8e-5,0.0045 -2.85e-4,0.01982 0,0.03125 0.0026,0.0097 -0.0015,0.02597 0,0.03125 3.41e-4,0.0067 0.02712,0.03067 0.03125,0.0625 0.0056,0.04341 -8e-6,0.09371 0,0.09375 5.7e-5,2.79e-4 0.02928,0.118997 0.03125,0.125 0.0035,0.01044 -0.0039,0.01962 0,0.03125 0.01011,0.03097 0.05646,0.110618 0.0625,0.125 0.0073,0.01738 -0.003,0.0247 0,0.03125 8.55e-4,0.0026 0.03037,-0.0026 0.03125,0 0.0017,0.0035 -0.0012,0.02887 0,0.03125 0.0049,0.0098 -0.004,0.02346 0,0.03125 0.0029,0.0085 -1.5e-4,0.03084 0,0.03125 6e-5,1.65e-4 0.01797,0.03137 0.03125,0.0625 0.0039,0.01165 0.02775,0.02075 0.03125,0.03125 0.004,0.008 -0.0039,0.02345 0,0.03125 0.0012,0.0033 0.0205,0.03651 0.03125,0.0625 0.0021,0.0064 -0.0038,0.01959 0,0.03125 0.0038,0.01166 0.02731,0.01941 0.03125,0.03125 0.002,0.0059 -0.003,0.02246 0,0.03125 0.002,0.0056 0.02509,0.0156 0.03125,0.03125 0.0068,0.01348 -3.24e-4,0.03065 0,0.03125 0.0034,0.0081 -1.6e-5,0.03121 0,0.03125 3.2e-5,7.3e-5 0.06248,0.09372 0.0625,0.09375 5e-6,9e-6 0.02187,0.01786 0.03125,0.03125 0.0039,0.0078 0.02668,0.0221 0.03125,0.03125 0.01802,0.02571 0.03123,0.06248 0.03125,0.0625 4.7e-5,5.8e-5 0.0248,0.02393 0.03125,0.03125 0.0075,0.01142 -0.0071,0.02055 0,0.03125 0.0096,0.01026 0.02761,0.02753 0.03125,0.03125 0.0087,0.0086 0.02343,0.02352 0.03125,0.03125 0.01223,0.01452 0.01835,0.01605 0.03125,0.03125 0.0129,0.0152 0.02923,0.02915 0.03125,0.03125 0.0061,0.0063 -0.0026,0.02866 0,0.03125 0.0076,0.0075 0.02345,0.0235 0.03125,0.03125 0.02529,0.02724 0.05378,0.05381 0.0625,0.0625 0.0015,0.0017 0.116204,0.116204 0.09375,0.09375 -0.02245,-0.02245 0.09206,0.09222 0.09375,0.09375 0.0087,0.0087 0.03527,0.03721 0.0625,0.0625 0.0077,0.0078 0.0237,0.0237 0.03125,0.03125 0.0026,0.0026 0.02495,-0.0061 0.03125,0 0.0021,0.002 0.01605,0.01835 0.03125,0.03125 0.0152,0.0129 0.01673,0.01902 0.03125,0.03125 0.01452,0.01223 0.03121,0.03122 0.03125,0.03125 0.0037,0.0036 0.02099,0.02161 0.03125,0.03125 0.0107,0.0071 0.01983,-0.0075 0.03125,0 0.0073,0.0064 0.03119,0.0312 0.03125,0.03125 0.01358,0.0077 0.02594,0.0284 0.03125,0.03125 0.0077,0.0054 0.0219,-0.0066 0.03125,0 0.0092,0.0046 0.02341,0.02738 0.03125,0.03125 0.01339,0.0094 0.03124,0.03124 0.03125,0.03125 3.1e-5,1.8e-5 0.09368,0.06247 0.09375,0.0625 7.3e-5,3.2e-5 0.05467,-0.0031 0.0625,0 0.03146,0.01584 0.06106,0.03056 0.0625,0.03125 0.01619,0.0074 0.02765,0.02989 0.03125,0.03125 0.01199,0.0045 0.0275,-0.0013 0.03125,0 0.02599,0.01075 0.05917,0.03009 0.0625,0.03125 0.0061,0.0021 0.026,-0.0018 0.03125,0 0.01051,0.0035 0.0196,0.0274 0.03125,0.03125 0.03113,0.01328 0.06233,0.03119 0.0625,0.03125 0.0021,0.001 0.02663,-0.0022 0.03125,0 0.01707,0.0057 0.03614,-0.0088 0.0625,0 0.0035,0.0017 -0.0066,0.02824 0,0.03125 0.02559,0.0085 0.06166,-2.59e-4 0.0625,0 0.03195,0.01113 0.06923,0.05449 0.09375,0.0625 0.01163,0.0039 0.02081,-0.0035 0.03125,0 0.006,0.002 0.124721,0.03119 0.125,0.03125 4e-5,8e-6 0.05034,-0.0056 0.09375,0 0.03183,0.0041 0.0558,0.03091 0.0625,0.03125 0.0053,0.0015 0.02152,-0.0026 0.03125,0 0.01575,0.0027 0.01987,-0.002 0.03125,0 0.01138,0.002 0.03126,10e-7 0.03125,0 4.5e-5,1e-5 0.04755,-0.0063 0.09375,0 0.03388,0.0046 0.06249,0.03125 0.0625,0.03125 0.0023,1.3e-4 0.153971,-2e-5 0.15625,0 l 12,0 c 0.0023,-2e-5 0.153974,1.3e-4 0.15625,0 1.5e-5,-10e-7 0.02862,-0.02663 0.0625,-0.03125 0.0462,-0.0063 0.0937,1e-5 0.09375,0 0.01196,-0.001 0.01609,0.0014 0.03125,0 0.02275,-0.0039 0.03625,0.0045 0.0625,0 0.0067,-3.41e-4 0.03067,-0.02712 0.0625,-0.03125 0.04341,-0.0056 0.09371,8e-6 0.09375,0 2.79e-4,-5.7e-5 0.118997,-0.02928 0.125,-0.03125 5.7e-5,-1.5e-5 0.08464,-0.04844 0.125,-0.0625 -1.36e-4,4.2e-5 0.115757,-0.0269 0.125,-0.03125 0.0046,-0.0022 0.02914,0.001 0.03125,0 2.68e-4,-9.7e-5 0.08776,-0.05956 0.09375,-0.0625 0.0053,-0.0018 0.02514,0.0021 0.03125,0 0.0067,-0.0023 0.124871,-0.06244 0.125,-0.0625 6.17e-4,-2.95e-4 0.01776,0.0068 0.03125,0 0.0056,-0.002 0.0156,-0.02509 0.03125,-0.03125 0.01348,-0.0068 0.03065,3.24e-4 0.03125,0 0.0081,-0.0034 0.03121,1.6e-5 0.03125,0 7.3e-5,-3.2e-5 0.09372,-0.06248 0.09375,-0.0625 9e-6,-5e-6 0.01786,-0.02187 0.03125,-0.03125 0.0285,-0.01668 0.09394,-0.06263 0.09375,-0.0625 5.8e-5,-4.7e-5 0.02393,-0.0248 0.03125,-0.03125 0.03224,-0.02487 0.08554,-0.05506 0.09375,-0.0625 0.0114,-0.01033 -0.0036,-0.02778 0,-0.03125 0.02488,-0.02101 0.05935,-0.02822 0.0625,-0.03125 8.8e-4,-7.24e-4 0.109488,-0.07818 0.125,-0.09375 0.0017,-0.0015 0.116204,-0.116204 0.09375,-0.09375 -0.02245,0.02245 0.09222,-0.09206 0.09375,-0.09375 0.01557,-0.01551 0.09303,-0.12412 0.09375,-0.125 0.002,-0.0021 0.01835,-0.01605 0.03125,-0.03125 0.0013,-0.0014 -0.0069,-0.02398 0,-0.03125 0.007,-0.0083 0.02513,0.0073 0.03125,0 0.0074,-0.0082 0.03763,-0.06151 0.0625,-0.09375 0.0064,-0.0073 0.0312,-0.03119 0.03125,-0.03125 -1.27e-4,1.89e-4 0.04582,-0.06525 0.0625,-0.09375 0.0094,-0.01339 0.03124,-0.03124 0.03125,-0.03125 1.8e-5,-3e-5 0.06247,-0.09368 0.0625,-0.09375 3.2e-5,-7.3e-5 -0.0031,-0.05467 0,-0.0625 0.0062,-0.01565 0.02921,-0.02563 0.03125,-0.03125 0.0068,-0.01349 -2.95e-4,-0.03063 0,-0.03125 6.1e-5,-1.29e-4 0.06017,-0.118346 0.0625,-0.125 -0.0079,0.0156 4.4e-4,-0.0323 0,-0.03125 0.0029,-0.006 0.0624,-0.09348 0.0625,-0.09375 0.0016,-0.0031 -0.002,-0.02736 0,-0.03125 0.004,-0.0078 -0.0049,-0.02145 0,-0.03125 0.01534,-0.03927 0.03128,-0.09385 0.03125,-0.09375 0.01406,-0.04036 0.06249,-0.124943 0.0625,-0.125 0.002,-0.006 0.03119,-0.124721 0.03125,-0.125 8e-6,-4e-5 -0.0056,-0.05034 0,-0.09375 0.0041,-0.03183 0.03091,-0.0558 0.03125,-0.0625 0.0023,-0.01312 -0.0027,-0.0155 0,-0.03125 0.0013,-0.0049 -0.0024,-0.02105 0,-0.03125 0.0028,-0.03032 -1.45e-4,-0.05716 0,-0.0625 0.0011,-0.01991 -0.0011,-0.04331 0,-0.0625 0.0046,-0.03388 0.03125,-0.06248 0.03125,-0.0625 1.3e-4,-0.0023 -2e-5,-0.153971 0,-0.15625 l 0,-3 c -2e-5,-0.0023 1.3e-4,-0.153974 0,-0.15625 -10e-7,-1.5e-5 -0.02663,-0.02862 -0.03125,-0.0625 3.8e-5,-0.0079 -4e-6,-0.02177 0,-0.03125 -4.3e-5,-0.0043 3.09e-4,-0.01991 0,-0.03125 -1.45e-4,-0.0053 0.0028,-0.03218 0,-0.0625 -0.002,-0.01138 0.0027,-0.0155 0,-0.03125 -0.0026,-0.0097 0.0015,-0.02597 0,-0.03125 -3.41e-4,-0.0067 -0.02712,-0.03067 -0.03125,-0.0625 -0.0056,-0.04341 8e-6,-0.09371 0,-0.09375 -5.7e-5,-2.79e-4 -0.02928,-0.118997 -0.03125,-0.125 -1.5e-5,-5.7e-5 -0.04844,-0.08464 -0.0625,-0.125 3.2e-5,1.04e-4 -0.01591,-0.05448 -0.03125,-0.09375 -0.0049,-0.0098 0.004,-0.02346 0,-0.03125 -0.0022,-0.0046 10e-4,-0.02914 0,-0.03125 -9.7e-5,-2.68e-4 -0.05956,-0.08776 -0.0625,-0.09375 4.4e-4,0.0011 -0.0079,-0.04685 0,-0.03125 -0.0023,-0.0067 -0.06244,-0.124871 -0.0625,-0.125 -2.95e-4,-6.17e-4 0.0068,-0.01776 0,-0.03125 -0.002,-0.0056 -0.02509,-0.0156 -0.03125,-0.03125 -0.0031,-0.0078 3.2e-5,-0.06243 0,-0.0625 -3.2e-5,-7.3e-5 -0.06248,-0.09372 -0.0625,-0.09375 -2e-6,-4e-6 -0.02914,0.003 -0.03125,0 -0.0014,-0.0028 -0.06266,-0.125237 -0.0625,-0.125 -4.7e-5,-5.8e-5 -0.0248,-0.02393 -0.03125,-0.03125 -0.02487,-0.03224 -0.05506,-0.08554 -0.0625,-0.09375 -0.02446,-0.02903 -0.05846,-0.0583 -0.0625,-0.0625 -1.16e-4,-1.41e-4 0.0038,-0.02713 0,-0.03125 C 56.14865,72.21125 56.1328,72.19525 56.125,72.1875 56.09971,72.16026 56.07122,72.13369 56.0625,72.125 56.061,72.1233 55.946296,72.008796 55.96875,72.03125 55.9912,72.0537 55.87669,71.93903 55.875,71.9375 55.8663,71.9288 55.83973,71.90029 55.8125,71.875 c 0.01549,0.01559 -0.06338,-0.03197 -0.0625,-0.03125 -0.0031,-0.003 -0.03762,-0.01024 -0.0625,-0.03125 -0.0036,-0.0035 0.0114,-0.02092 0,-0.03125 -0.0032,-0.0029 -0.0173,-0.0203 -0.03125,-0.03125 -0.0037,-0.0036 -0.02099,-0.02161 -0.03125,-0.03125 -0.0089,-0.0069 -0.02408,0.0055 -0.03125,0 -0.0073,-0.0064 -0.03119,-0.0312 -0.03125,-0.03125 -1.6e-5,-1.3e-5 -0.01786,-0.02186 -0.03125,-0.03125 -0.01063,-0.0057 -0.02719,0.0021 -0.03125,0 -0.02675,-0.01574 -0.06108,-0.03053 -0.0625,-0.03125 -0.003,-0.0021 4e-6,-0.03125 0,-0.03125 -3.1e-5,-1.8e-5 -0.09368,-0.06247 -0.09375,-0.0625 -3.6e-5,-1.6e-5 -0.02319,0.0034 -0.03125,0 -6.02e-4,-3.24e-4 -0.01777,0.0068 -0.03125,0 C 55.2656,71.52505 55.25562,71.50204 55.25,71.5 c -0.01349,-0.0068 -0.03063,2.95e-4 -0.03125,0 -6.4e-5,-3.1e-5 -0.03651,-0.0205 -0.0625,-0.03125 -0.02599,-0.01075 -0.05917,-0.03009 -0.0625,-0.03125 0.01561,0.0079 -0.0323,-4.4e-4 -0.03125,0 0.0011,4.4e-4 -0.05455,-0.03896 -0.03125,-0.03125 -0.03113,-0.01328 -0.06233,-0.03119 -0.0625,-0.03125 -0.0013,-4.79e-4 -0.05281,-0.01758 -0.09375,-0.03125 -0.03089,-0.01186 -0.06256,-2e-5 -0.0625,0 -0.03195,-0.01113 -0.06923,-0.05449 -0.09375,-0.0625 0.02326,0.0078 -0.03235,-2.83e-4 -0.03125,0 -0.006,-0.002 -0.124721,-0.03119 -0.125,-0.03125 -4e-5,-8e-6 -0.05034,0.0056 -0.09375,0 -0.03183,-0.0041 -0.0558,-0.03091 -0.0625,-0.03125 -0.0053,-0.0015 -0.02152,0.0026 -0.03125,0 -0.01575,-0.0027 -0.01987,0.002 -0.03125,0 -0.01374,-0.0014 -0.02026,0.001 -0.03125,0 4.25e-4,4.5e-5 -0.06496,0.0016 -0.09375,0 -0.03388,-0.0046 -0.06249,-0.03125 -0.0625,-0.03125 -0.0023,-1.3e-4 -0.153971,2e-5 -0.15625,0 l -0.1875,0 0,-0.71875 c 6.311959,-2.411845 11,-8.346223 11,-15.46875 l 0,-2.1875 0.1875,0 c 0.0023,-2e-5 0.153974,1.3e-4 0.15625,0 1.5e-5,-10e-7 0.02862,-0.02663 0.0625,-0.03125 0.01919,-0.0011 0.04259,0.0011 0.0625,0 0.0053,-1.45e-4 0.03218,0.0028 0.0625,0 0.02275,-0.0039 0.03625,0.0045 0.0625,0 0.0067,-3.41e-4 0.03067,-0.02712 0.0625,-0.03125 0.04341,-0.0056 0.09371,8e-6 0.09375,0 2.79e-4,-5.7e-5 0.118997,-0.02928 0.125,-0.03125 5.7e-5,-1.5e-5 0.08464,-0.04844 0.125,-0.0625 -7.2e-5,2.2e-5 0.02746,-0.01777 0.0625,-0.03125 0.0035,-0.0017 0.02887,0.0012 0.03125,0 0.0098,-0.0049 0.02346,0.004 0.03125,0 0.0039,-0.002 0.02812,0.0016 0.03125,0 2.68e-4,-9.7e-5 0.08776,-0.05956 0.09375,-0.0625 -0.0011,4.4e-4 0.04685,-0.0079 0.03125,0 0.0033,-0.0012 0.03651,-0.0205 0.0625,-0.03125 0.02599,-0.01075 0.06244,-0.03122 0.0625,-0.03125 6.17e-4,-2.95e-4 0.01776,0.0068 0.03125,0 0.0056,-0.002 0.0156,-0.02509 0.03125,-0.03125 0.0078,-0.0031 0.06243,3.2e-5 0.0625,0 7.3e-5,-3.2e-5 0.09372,-0.06248 0.09375,-0.0625 9e-6,-5e-6 0.01786,-0.02187 0.03125,-0.03125 0.01069,-0.0063 0.0152,-0.02181 0.03125,-0.03125 0.02571,-0.01802 0.06248,-0.03123 0.0625,-0.03125 0.0052,-0.003 0.01222,-0.01877 0.03125,-0.03125 0.01465,-0.0129 0.02612,0.0048 0.03125,0 0.01564,-0.01211 0.0173,-0.0203 0.03125,-0.03125 0.0086,-0.0087 0.02352,-0.02343 0.03125,-0.03125 0.0114,-0.01033 -0.0036,-0.02778 0,-0.03125 0.02488,-0.02101 0.05935,-0.02822 0.0625,-0.03125 0.0063,-0.0061 0.02866,0.0026 0.03125,0 0.02164,-0.01997 0.08072,-0.08067 0.09375,-0.09375 0.0017,-0.0015 0.116204,-0.116204 0.09375,-0.09375 -0.02245,0.02245 0.09222,-0.09206 0.09375,-0.09375 0.0087,-0.0087 0.03721,-0.03527 0.0625,-0.0625 -0.0094,0.0093 0.01673,-0.01471 0.03125,-0.03125 0.0026,-0.0026 -0.0061,-0.02495 0,-0.03125 0.002,-0.0021 0.01835,-0.01605 0.03125,-0.03125 0.0013,-0.0014 -0.0069,-0.02398 0,-0.03125 0.0035,-0.0036 0.02092,0.0114 0.03125,0 0.0074,-0.0082 0.03763,-0.06151 0.0625,-0.09375 0.0064,-0.0073 0.0312,-0.03119 0.03125,-0.03125 -1.27e-4,1.89e-4 0.04582,-0.06525 0.0625,-0.09375 0.0094,-0.01339 0.03124,-0.03124 0.03125,-0.03125 1.8e-5,-3.1e-5 0.06247,-0.09368 0.0625,-0.09375 3.2e-5,-7.3e-5 -0.0031,-0.05467 0,-0.0625 0.0062,-0.01565 0.02921,-0.02563 0.03125,-0.03125 0.0068,-0.01349 -2.95e-4,-0.03063 0,-0.03125 6.1e-5,-1.29e-4 0.06017,-0.118346 0.0625,-0.125 -0.0079,0.01561 4.4e-4,-0.0323 0,-0.03125 0.0029,-0.006 0.0624,-0.09348 0.0625,-0.09375 0.0016,-0.0031 -0.002,-0.02736 0,-0.03125 0.004,-0.0078 -0.0049,-0.02145 0,-0.03125 0.01534,-0.03927 0.03128,-0.09385 0.03125,-0.09375 0.01406,-0.04036 0.06248,-0.124943 0.0625,-0.125 0.002,-0.006 0.03119,-0.124721 0.03125,-0.125 8e-6,-4e-5 -0.0056,-0.05034 0,-0.09375 0.0041,-0.03183 0.03091,-0.0558 0.03125,-0.0625 0.0023,-0.01312 -0.0027,-0.0155 0,-0.03125 2.85e-4,-0.01143 -3.8e-5,-0.02679 0,-0.03125 0.0028,-0.03032 -1.45e-4,-0.05716 0,-0.0625 0.0011,-0.01991 -0.0011,-0.04331 0,-0.0625 0.0046,-0.03388 0.03125,-0.06249 0.03125,-0.0625 1.3e-4,-0.0023 -2e-5,-0.153971 0,-0.15625 l 0,-3 c -2e-5,-0.0023 1.3e-4,-0.153974 0,-0.15625 -10e-7,-1.5e-5 -0.02663,-0.02862 -0.03125,-0.0625 3.8e-5,-0.0079 -4e-6,-0.02177 0,-0.03125 -7.29e-4,-0.0132 5.41e-4,-0.0213 0,-0.03125 5.1e-5,-0.01165 -8e-6,-0.01935 0,-0.03125 4e-6,-0.006 7.6e-5,-0.02232 0,-0.03125 -0.002,-0.01138 0.0027,-0.0155 0,-0.03125 -1.42e-4,-0.0057 8.07e-4,-0.01541 0,-0.03125 -3.41e-4,-0.0067 -0.02712,-0.03067 -0.03125,-0.0625 -0.0056,-0.04341 8e-6,-0.09371 0,-0.09375 -5.7e-5,-2.79e-4 -0.02928,-0.118997 -0.03125,-0.125 -1.5e-5,-5.7e-5 -0.04844,-0.08464 -0.0625,-0.125 1e-5,3.2e-5 0.0042,-0.02034 0,-0.03125 -0.0073,-0.01738 0.003,-0.0247 0,-0.03125 -0.006,-0.01311 -0.02894,-0.02649 -0.03125,-0.03125 -0.0049,-0.0098 0.004,-0.02346 0,-0.03125 -0.0022,-0.0046 0.001,-0.02914 0,-0.03125 -6e-5,-1.65e-4 -0.01797,-0.03137 -0.03125,-0.0625 0.0077,0.0233 -0.03169,-0.0323 -0.03125,-0.03125 -0.0018,-0.0053 0.0021,-0.02514 0,-0.03125 -0.0016,-0.0047 -0.01879,-0.06372 -0.03125,-0.09375 -0.0014,-0.0036 -0.02388,-0.01506 -0.03125,-0.03125 -2.95e-4,-6.17e-4 0.0068,-0.01776 0,-0.03125 -0.002,-0.0056 -0.02509,-0.0156 -0.03125,-0.03125 -0.0031,-0.0078 3.2e-5,-0.06243 0,-0.0625 -3.2e-5,-7.3e-5 -0.06248,-0.09372 -0.0625,-0.09375 -2e-6,-4e-6 -0.02914,0.003 -0.03125,0 -2.87e-4,-5.66e-4 0.0042,-0.02412 0,-0.03125 -0.0039,-0.0078 -0.02668,-0.0221 -0.03125,-0.03125 -0.0021,-0.0041 0.0057,-0.02062 0,-0.03125 -0.0028,-0.0053 -0.0235,-0.01767 -0.03125,-0.03125 -4.7e-5,-5.8e-5 -0.0248,-0.02393 -0.03125,-0.03125 -0.0055,-0.0072 0.0069,-0.02231 0,-0.03125 -0.0096,-0.01026 -0.0276,-0.02753 -0.03125,-0.03125 -4.3e-5,-5.7e-5 -0.04149,-0.0064 -0.0625,-0.03125 -0.0069,-0.0073 0.0013,-0.02988 0,-0.03125 -0.0129,-0.0152 -0.02923,-0.02915 -0.03125,-0.03125 -0.0061,-0.0063 0.0026,-0.02866 0,-0.03125 C 67.14865,45.21125 67.1328,45.19525 67.125,45.1875 67.09971,45.16027 67.07122,45.13369 67.0625,45.125 67.061,45.1233 66.946296,45.008796 66.96875,45.03125 66.9912,45.0537 66.87669,44.93903 66.875,44.9375 66.8663,44.9288 66.83974,44.90029 66.8125,44.875 c 0.01549,0.01559 -0.06338,-0.03197 -0.0625,-0.03125 -0.0031,-0.003 -0.03762,-0.01024 -0.0625,-0.03125 -0.0036,-0.0035 0.0114,-0.02092 0,-0.03125 -0.0077,-0.0078 -0.02261,-0.02259 -0.03125,-0.03125 -2.2e-5,-1.6e-5 -0.01342,-0.01945 -0.03125,-0.03125 -0.0089,-0.0069 -0.02408,0.0055 -0.03125,0 -0.0073,-0.0064 -0.03119,-0.0312 -0.03125,-0.03125 -2.5e-5,-2.1e-5 -0.03679,-0.01323 -0.0625,-0.03125 -0.0092,-0.0046 -0.02341,-0.02738 -0.03125,-0.03125 -0.0071,-0.0042 -0.03068,2.87e-4 -0.03125,0 -0.003,-0.0021 4e-6,-0.03125 0,-0.03125 -3e-5,-1.8e-5 -0.09368,-0.06247 -0.09375,-0.0625 -3.6e-5,-1.6e-5 -0.02319,0.0034 -0.03125,0 -6.02e-4,-3.24e-4 -0.01777,0.0068 -0.03125,0 C 66.2656,44.52505 66.25562,44.50204 66.25,44.5 c -0.01349,-0.0068 -0.03063,2.95e-4 -0.03125,0 -6.4e-5,-3.1e-5 -0.03651,-0.0205 -0.0625,-0.03125 -0.02599,-0.01075 -0.05917,-0.03009 -0.0625,-0.03125 -0.0078,-0.0039 -0.02322,0.004 -0.03125,0 -0.006,-0.0029 -0.09348,-0.0624 -0.09375,-0.0625 -0.0013,-4.79e-4 -0.05281,-0.01758 -0.09375,-0.03125 -0.03089,-0.01186 -0.06256,-2e-5 -0.0625,0 -0.03195,-0.01113 -0.06923,-0.05449 -0.09375,-0.0625 0.02326,0.0078 -0.03235,-2.83e-4 -0.03125,0 -0.006,-0.002 -0.124721,-0.03119 -0.125,-0.03125 -4e-5,-8e-6 -0.05034,0.0056 -0.09375,0 -0.03183,-0.0041 -0.0558,-0.03091 -0.0625,-0.03125 -0.0053,-0.0015 -0.02152,0.0026 -0.03125,0 -0.01575,-0.0027 -0.01987,0.002 -0.03125,0 -0.03032,-0.0028 -0.05716,1.45e-4 -0.0625,0 -0.01961,-0.0027 -0.0317,0.0042 -0.0625,0 -0.03388,-0.0046 -0.06248,-0.03125 -0.0625,-0.03125 -0.0023,-1.3e-4 -0.153971,2e-5 -0.15625,0 l -3,0 -1,0 -1.96875,0 c -0.0023,2e-5 -0.153974,-1.3e-4 -0.15625,0 -1.4e-5,10e-7 -0.03263,-0.0041 -0.0625,0 L 58.8125,31 C 58.8125,25.05344 53.94656,20.1875 48,20.1875 z" fill="#000000" fill-opacity="1" stroke="none" opacity="0.08" inkscape:connector-curvature="0"/>
   <path d="m 48,21.25 c -5.418876,-0.149439 -10.16751,4.907763 -9.75,10.299182 0,4.764856 0,9.529712 0,14.294568 -0.971053,-1.025857 -2.544123,-0.44006 -3.799182,-0.59375 -1.36195,0.08166 -2.782958,-0.167114 -4.107068,0.125 -1.581358,0.682676 -0.979626,2.612638 -1.09375,3.959025 -0.244271,1.183563 0.607184,2.51286 1.887296,2.415975 1.168051,-0.339497 1.25328,0.403826 1.112704,1.372956 -0.224105,3.927764 0.648295,7.998403 3.136041,11.130689 1.972371,2.604858 4.757593,4.579716 7.863959,5.590105 -0.09618,0.751673 0.189658,1.885355 -0.137296,2.40625 -1.087251,-0.140543 -2.494555,0.0711 -2.800204,1.3125 -0.08273,1.287325 -0.146796,2.662633 0.03125,3.9375 0.332929,1.2678 1.805495,1.359733 2.891911,1.25 3.730424,-0.04254 7.488371,0.08453 11.201839,-0.0625 1.234147,-0.304014 1.455052,-1.701813 1.3125,-2.785865 -0.0425,-1.190377 0.333745,-2.849833 -1,-3.464135 -0.619393,-0.307225 -1.329892,-0.148373 -2,-0.1875 0.169691,-0.783768 -0.356857,-2.067473 0.294306,-2.50552 6.40408,-2.121828 11.083853,-8.640934 10.705694,-15.430958 0,-0.854507 0,-1.709015 0,-2.563522 1.08954,0.108463 2.571384,0.02423 2.90625,-1.25 0.176228,-1.274951 0.115774,-2.650138 0.03125,-3.9375 C 66.383486,45.328353 64.985687,45.107448 63.901635,45.25 62.118088,45.31561 60.28552,45.121776 58.53125,45.34375 57.703027,45.885055 57.663359,45.762785 57.75,44.745385 57.71898,39.832356 57.81372,34.915325 57.69954,30.004935 57.283978,25.153074 52.874197,21.163088 48,21.25 z" fill="#000000" fill-opacity="1" stroke="none" opacity="0.15" inkscape:connector-curvature="0"/>
   <path d="m 48,22.0625 c -4.939485,0 -8.9375,3.998015 -8.9375,8.9375 l 0,24 c 0,4.939485 3.998015,8.9375 8.9375,8.9375 4.939485,0 8.9375,-3.998015 8.9375,-8.9375 l 0,-24 c 0,-4.939485 -3.998015,-8.9375 -8.9375,-8.9375 z m -17.1875,24 A 0.94565447,0.94565447 0 0 0 30.0625,47 l 0,3 A 0.94565447,0.94565447 0 0 0 31,50.9375 l 2.0625,0 0,4.0625 c 0,6.790569 4.725806,12.503757 11,14.28125 l 0,3.78125 -2.0625,0 A 0.94565447,0.94565447 0 0 0 41.0625,74 l 0,3 A 0.94565447,0.94565447 0 0 0 42,77.9375 l 12,0 A 0.94565447,0.94565447 0 0 0 54.9375,77 l 0,-3 A 0.94565447,0.94565447 0 0 0 54,73.0625 l -2.0625,0 0,-3.78125 c 6.274194,-1.777493 11,-7.490681 11,-14.28125 l 0,-4.0625 2.0625,0 A 0.94565447,0.94565447 0 0 0 65.9375,50 l 0,-3 A 0.94565447,0.94565447 0 0 0 65,46.0625 l -3,0 -1,0 -1.96875,0 A 0.94565447,0.94565447 0 0 0 58.09375,47 l 0,8 C 58.09375,60.545237 53.545237,65.09375 48,65.09375 42.454763,65.09375 37.90625,60.545237 37.90625,55 l 0,-8 a 0.94565447,0.94565447 0 0 0 -0.9375,-0.9375 l -1.96875,0 -1,0 -3,0 a 0.94565447,0.94565447 0 0 0 -0.1875,0 z" fill="#000000" fill-opacity="1" stroke="none" opacity="0.25" inkscape:connector-curvature="0"/>
   <path d="m 48,23 c -4.432,0 -8,3.568 -8,8 l 0,24 c 0,4.432 3.568,8 8,8 4.432,0 8,-3.568 8,-8 l 0,-24 c 0,-4.432 -3.568,-8 -8,-8 z m -17,24 0,3 3,0 0,5 c 0,6.611862 4.770404,12.250041 11,13.65625 L 45,74 l -3,0 0,3 12,0 0,-3 -3,0 0,-5.34375 C 57.229596,67.250041 62,61.611862 62,55 l 0,-5 3,0 0,-3 -3,0 -1,0 -1.96875,0 0,8 C 59.03125,61.061981 54.061981,66.03125 48,66.03125 41.938019,66.03125 36.96875,61.061981 36.96875,55 l 0,-8 L 35,47 l -1,0 -3,0 z" fill="#000000" fill-opacity="1" stroke="none" opacity="0.6" inkscape:connector-curvature="0"/>
   <path d="m 48,22 c -4.432,0 -8,3.568 -8,8 l 0,24 c 0,4.432 3.568,8 8,8 4.432,0 8,-3.568 8,-8 l 0,-24 c 0,-4.432 -3.568,-8 -8,-8 z m -17,24 0,3 3,0 0,5 c 0,6.611862 4.770404,12.250041 11,13.65625 L 45,73 l -3,0 0,3 12,0 0,-3 -3,0 0,-5.34375 C 57.229596,66.250041 62,60.611862 62,54 l 0,-5 3,0 0,-3 -3,0 -1,0 -1.96875,0 0,8 C 59.03125,60.061981 54.061981,65.03125 48,65.03125 41.938019,65.03125 36.96875,60.061981 36.96875,54 l 0,-8 L 35,46 l -1,0 -3,0 z" fill="url(#linearGradient3636)" fill-opacity="1" stroke="none" inkscape:connector-curvature="0"/>
   <path d="m 48,22 c -4.432,0 -8,3.568 -8,8 l 0,2 c 0,-4.432 3.568,-8 8,-8 4.432,0 8,3.568 8,8 l 0,-2 c 0,-4.432 -3.568,-8 -8,-8 z m -17,24 0,2 3,0 1,0 1.96875,0 0,-2 L 35,46 l -1,0 -3,0 z m 28.03125,0 0,2 1.96875,0 1,0 3,0 0,-2 -3,0 -1,0 -1.96875,0 z m -22.0625,8 0,2 c 0,6.061981 4.969269,11.03125 11.03125,11.03125 6.061981,0 11.03125,-4.969269 11.03125,-11.03125 l 0,-2 C 59.03125,60.061981 54.061981,65.03125 48,65.03125 41.938019,65.03125 36.96875,60.061981 36.96875,54 z M 42,73 l 0,2 3,0 0,-2 -3,0 z m 9,0 0,2 3,0 0,-2 -3,0 z" fill="#ffffff" fill-opacity="1" stroke="none" inkscape:connector-curvature="0"/>
  </g>
  <rect x="-96" rx="25" y="958.36" clip-path="url(#clipPath3009)" fill="#ffffff" fill-opacity="1" height="92" opacity="0.15" width="92" transform="matrix(1 0 0 1 98 0)"/>
 </g>
</svg>
