<svg height="96" width="96" xmlns="http://www.w3.org/2000/svg" xmlns:sodipodi="http://sodipodi.sourceforge.net/DTD/sodipodi-0.dtd" xmlns:inkscape="http://www.inkscape.org/namespaces/inkscape">
 <g inkscape:label="Layer 1" inkscape:groupmode="layer" transform="matrix(1 0 0 1 0 -956.36)">
  <rect x="8" rx="10.769" y="964.36" fill="#e6e6e6" fill-opacity="1" stroke="none" height="80" width="80"/>
  <path d="m 48.000002,977.56943 c -1.979549,0 -3.573194,1.59364 -3.573194,3.57319 l 0,21.43908 c 0,1.9796 1.593645,3.5733 3.573194,3.5733 1.979548,0 3.573192,-1.5937 3.573192,-3.5733 l 0,-21.43908 c 0,-1.97955 -1.593644,-3.57319 -3.573192,-3.57319 z m 10.440423,6.42058 a 3.5735503,3.5735503 0 0 0 -1.507441,6.69975 c 8.581813,4.95462 11.486955,15.81644 6.532244,24.39814 -4.954712,8.5819 -15.816396,11.4871 -24.398209,6.5323 -8.581813,-4.9547 -11.486955,-15.8164 -6.532243,-24.39822 1.568157,-2.71614 3.816116,-4.96405 6.532243,-6.53222 a 3.5767918,3.5767918 0 0 0 -3.573193,-6.19725 c -3.8022,2.19525 -6.961106,5.35408 -9.156307,9.15625 -6.885812,11.92654 -2.770266,27.28294 9.156307,34.16874 11.92657,6.8857 27.28285,2.7702 34.168658,-9.1563 6.885808,-11.9266 2.770263,-27.28294 -9.156307,-34.16869 a 3.5735503,3.5735503 0 0 0 -2.065752,-0.5025 z" stroke-width="6" display="inline" fill="#4d4d4d" color="black" fill-opacity="1" stroke="none" visibility="visible" inkscape:connector-curvature="0"/>
 </g>
</svg>
