<?xml version="1.0" encoding="UTF-8" standalone="no"?>
<!-- Created with Inkscape (http://www.inkscape.org/) -->

<svg
   xmlns:dc="http://purl.org/dc/elements/1.1/"
   xmlns:cc="http://creativecommons.org/ns#"
   xmlns:rdf="http://www.w3.org/1999/02/22-rdf-syntax-ns#"
   xmlns:svg="http://www.w3.org/2000/svg"
   xmlns="http://www.w3.org/2000/svg"
   xmlns:xlink="http://www.w3.org/1999/xlink"
   xmlns:sodipodi="http://sodipodi.sourceforge.net/DTD/sodipodi-0.dtd"
   xmlns:inkscape="http://www.inkscape.org/namespaces/inkscape"
   width="96"
   height="96"
   id="svg11037"
   version="1.1"
   inkscape:version="0.48.5 r10040"
   sodipodi:docname="gnomebaker.svg">
  <defs
     id="defs11039">
    <clipPath
       clipPathUnits="userSpaceOnUse"
       id="clipPath3009">
      <path
         id="path3011"
         d="m -2,956.36218 -96,0 0,33.5624 96,25.68742 0,-59.24982 z"
         style="opacity:0.15;fill:#ffffff;fill-opacity:1;stroke:none"
         inkscape:connector-curvature="0" />
    </clipPath>
    <linearGradient
       x1="10.31979"
       y1="21"
       x2="10.31979"
       y2="0.99929649"
       id="ButtonColor"
       gradientUnits="userSpaceOnUse">
      <stop
         id="stop3189"
         style="stop-color:#160f5c;stop-opacity:1;"
         offset="0" />
      <stop
         id="stop3191"
         style="stop-color:#345eaf;stop-opacity:1;"
         offset="1" />
    </linearGradient>
    <linearGradient
       y2="5.9877172"
       x2="48"
       y1="88.41642"
       x1="66.299187"
       gradientUnits="userSpaceOnUse"
       id="linearGradient3201"
       xlink:href="#ButtonColor"
       inkscape:collect="always" />
    <clipPath
       clipPathUnits="userSpaceOnUse"
       id="clipPath3020">
      <rect
         x="7.75"
         y="7.75"
         width="80.5"
         height="80.5"
         style="opacity:0.6;fill:#000000;fill-opacity:1"
         id="rect3022"
         rx="21.875"
         ry="21.875" />
    </clipPath>
    <radialGradient
       inkscape:collect="always"
       xlink:href="#linearGradient3342"
       id="radialGradient3242"
       gradientUnits="userSpaceOnUse"
       gradientTransform="matrix(1,0,0,0.8375435,0,10.059672)"
       cx="59.893993"
       cy="61.92226"
       fx="59.893993"
       fy="61.92226"
       r="33.71384" />
    <linearGradient
       id="linearGradient3342">
      <stop
         id="stop3344"
         style="stop-color:#000000;stop-opacity:0"
         offset="0" />
      <stop
         id="stop3350"
         style="stop-color:#000000;stop-opacity:0"
         offset="0.85000002" />
      <stop
         id="stop3346"
         style="stop-color:#000000;stop-opacity:1"
         offset="1" />
    </linearGradient>
    <linearGradient
       inkscape:collect="always"
       xlink:href="#linearGradient3362"
       id="linearGradient3244"
       gradientUnits="userSpaceOnUse"
       x1="25.220379"
       y1="61.92226"
       x2="94.567612"
       y2="61.92226" />
    <linearGradient
       id="linearGradient3362">
      <stop
         id="stop3364"
         style="stop-color:#4d4d4d;stop-opacity:1"
         offset="0" />
      <stop
         id="stop3366"
         style="stop-color:#ffffff;stop-opacity:1"
         offset="1" />
    </linearGradient>
    <linearGradient
       inkscape:collect="always"
       xlink:href="#ButtonColor-3"
       id="linearGradient3246"
       gradientUnits="userSpaceOnUse"
       gradientTransform="matrix(1.0095547,0,0,1.2128254,-12.466802,-27.299316)"
       x1="73.015572"
       y1="89.130737"
       x2="73.015572"
       y2="34.606899" />
    <linearGradient
       x1="58.650177"
       y1="122"
       x2="58.650177"
       y2="5.4252338"
       id="ButtonColor-3"
       gradientUnits="userSpaceOnUse"
       gradientTransform="matrix(1.0172414,0,0,1.0172414,-1.1034483,-1.1034483)">
      <stop
         id="stop3189-5"
         style="stop-color:#b8abbd;stop-opacity:1"
         offset="0" />
      <stop
         id="stop3191-7"
         style="stop-color:#dddbde;stop-opacity:1"
         offset="1" />
    </linearGradient>
    <linearGradient
       inkscape:collect="always"
       xlink:href="#linearGradient3233"
       id="linearGradient3248"
       gradientUnits="userSpaceOnUse"
       gradientTransform="matrix(0.48435496,0.27965371,-0.27964247,0.48437444,34.897859,-0.89859081)"
       x1="5"
       y1="64"
       x2="123"
       y2="64" />
    <linearGradient
       id="linearGradient3233">
      <stop
         id="stop3235"
         style="stop-color:#ffffff;stop-opacity:0"
         offset="0" />
      <stop
         id="stop3297"
         style="stop-color:#ffffff;stop-opacity:0"
         offset="0.15000001" />
      <stop
         id="stop3241"
         style="stop-color:#ffffff;stop-opacity:1"
         offset="0.5" />
      <stop
         id="stop3299"
         style="stop-color:#ffffff;stop-opacity:0"
         offset="0.85000002" />
      <stop
         id="stop3237"
         style="stop-color:#ffffff;stop-opacity:0"
         offset="1" />
    </linearGradient>
    <clipPath
       id="clipPath3271">
      <rect
         width="118"
         height="59"
         x="5"
         y="160.00336"
         id="rect3273"
         style="fill:#ffffff;fill-opacity:1;fill-rule:evenodd;stroke:none" />
    </clipPath>
    <linearGradient
       inkscape:collect="always"
       xlink:href="#linearGradient3236"
       id="linearGradient3250"
       gradientUnits="userSpaceOnUse"
       gradientTransform="matrix(-0.9850397,0.171492,-0.171492,-0.9850397,138.01803,271.06706)"
       x1="5"
       y1="64"
       x2="123"
       y2="64" />
    <linearGradient
       id="linearGradient3236">
      <stop
         id="stop3238"
         style="stop-color:#ffffff;stop-opacity:0"
         offset="0" />
      <stop
         id="stop3240"
         style="stop-color:#fffc2b;stop-opacity:0.234375"
         offset="0.34999999" />
      <stop
         id="stop3242"
         style="stop-color:#46d15d;stop-opacity:0.21875"
         offset="0.5" />
      <stop
         id="stop3244"
         style="stop-color:#46d1aa;stop-opacity:0"
         offset="0.64999998" />
      <stop
         id="stop3246"
         style="stop-color:#ffffff;stop-opacity:0"
         offset="1" />
    </linearGradient>
    <linearGradient
       inkscape:collect="always"
       xlink:href="#linearGradient3265"
       id="linearGradient3252"
       gradientUnits="userSpaceOnUse"
       gradientTransform="matrix(-0.8529965,0.5216416,-0.5216416,-0.8529964,151.97682,240.20671)"
       x1="5"
       y1="64"
       x2="123"
       y2="64" />
    <linearGradient
       id="linearGradient3265">
      <stop
         id="stop3267"
         style="stop-color:#ffffff;stop-opacity:0"
         offset="0" />
      <stop
         id="stop3252"
         style="stop-color:#afcff3;stop-opacity:0"
         offset="0.2" />
      <stop
         id="stop3269"
         style="stop-color:#60a0e7;stop-opacity:0.1484375"
         offset="0.34999999" />
      <stop
         id="stop3271"
         style="stop-color:#db8ef1;stop-opacity:0.2109375"
         offset="0.5" />
      <stop
         id="stop3273"
         style="stop-color:#ffffff;stop-opacity:0"
         offset="0.64999998" />
      <stop
         id="stop3275"
         style="stop-color:#ffffff;stop-opacity:0"
         offset="1" />
    </linearGradient>
    <linearGradient
       inkscape:collect="always"
       xlink:href="#linearGradient3247"
       id="linearGradient3254"
       gradientUnits="userSpaceOnUse"
       gradientTransform="matrix(-0.881451,-0.4719713,0.4719713,-0.881451,90.206697,305.61903)"
       x1="5"
       y1="64"
       x2="123"
       y2="64" />
    <linearGradient
       id="linearGradient3247">
      <stop
         id="stop3249"
         style="stop-color:#ffffff;stop-opacity:0"
         offset="0" />
      <stop
         id="stop3293"
         style="stop-color:#d5d5d5;stop-opacity:0"
         offset="0.30000001" />
      <stop
         id="stop3251"
         style="stop-color:#eb8888;stop-opacity:0.2578125"
         offset="0.5" />
      <stop
         id="stop3295"
         style="stop-color:#e28f25;stop-opacity:0"
         offset="0.69999999" />
      <stop
         id="stop3253"
         style="stop-color:#ffffff;stop-opacity:0"
         offset="1" />
    </linearGradient>
    <linearGradient
       inkscape:collect="always"
       xlink:href="#linearGradient3236"
       id="linearGradient3256"
       gradientUnits="userSpaceOnUse"
       gradientTransform="matrix(-0.9850397,0.171492,-0.171492,-0.9850397,138.01803,271.06706)"
       x1="5"
       y1="64"
       x2="123"
       y2="64" />
    <linearGradient
       gradientUnits="userSpaceOnUse"
       y2="38.301643"
       x2="57.498733"
       y1="38.301643"
       x1="38.037896"
       gradientTransform="scale(1.0048417,0.99518161)"
       id="linearGradient3262">
      <stop
         id="stop3264"
         style="stop-color:#ffffff;stop-opacity:0"
         offset="0" />
      <stop
         id="stop3266"
         style="stop-color:#fffc2b;stop-opacity:0.234375"
         offset="0.34999999" />
      <stop
         id="stop3268"
         style="stop-color:#46d15d;stop-opacity:0.21875"
         offset="0.5" />
      <stop
         id="stop3270"
         style="stop-color:#46d1aa;stop-opacity:0"
         offset="0.64999998" />
      <stop
         id="stop3272"
         style="stop-color:#ffffff;stop-opacity:0"
         offset="1" />
    </linearGradient>
    <linearGradient
       inkscape:collect="always"
       xlink:href="#linearGradient3265"
       id="linearGradient3258"
       gradientUnits="userSpaceOnUse"
       gradientTransform="matrix(-0.8529965,0.5216416,-0.5216416,-0.8529964,151.97682,240.20671)"
       x1="5"
       y1="64"
       x2="123"
       y2="64" />
    <linearGradient
       inkscape:collect="always"
       xlink:href="#linearGradient3247"
       id="linearGradient3260"
       gradientUnits="userSpaceOnUse"
       gradientTransform="matrix(-0.881451,-0.4719713,0.4719713,-0.881451,90.206697,305.61903)"
       x1="5"
       y1="64"
       x2="123"
       y2="64" />
    <linearGradient
       inkscape:collect="always"
       xlink:href="#linearGradient5748"
       id="linearGradient3282"
       gradientUnits="userSpaceOnUse"
       x1="239.74635"
       y1="60.838741"
       x2="221.43871"
       y2="35.457451"
       gradientTransform="translate(11.980011,0.20052867)" />
    <linearGradient
       id="linearGradient5748">
      <stop
         id="stop5750"
         style="stop-color:#ff0000;stop-opacity:0.56470591;"
         offset="0" />
      <stop
         offset="0.43810681"
         style="stop-color:#fdb01a;stop-opacity:1;"
         id="stop5752" />
      <stop
         id="stop5754"
         style="stop-color:#fffc35;stop-opacity:0.40248963"
         offset="1" />
    </linearGradient>
    <filter
       color-interpolation-filters="sRGB"
       inkscape:collect="always"
       id="filter4271">
      <feGaussianBlur
         inkscape:collect="always"
         stdDeviation="0.63109715"
         id="feGaussianBlur4273" />
    </filter>
    <linearGradient
       inkscape:collect="always"
       xlink:href="#linearGradient5732"
       id="linearGradient3279"
       gradientUnits="userSpaceOnUse"
       x1="232.70908"
       y1="74.711334"
       x2="233.60944"
       y2="41.367279"
       gradientTransform="translate(11.980011,0.20052867)" />
    <linearGradient
       id="linearGradient5732">
      <stop
         id="stop5734"
         style="stop-color:#ff0000;stop-opacity:1;"
         offset="0" />
      <stop
         offset="0.37824747"
         style="stop-color:#fdb01a;stop-opacity:0.73029046"
         id="stop5736" />
      <stop
         id="stop5738"
         style="stop-color:#fffc35;stop-opacity:1;"
         offset="1" />
    </linearGradient>
    <filter
       color-interpolation-filters="sRGB"
       inkscape:collect="always"
       id="filter4287">
      <feGaussianBlur
         inkscape:collect="always"
         stdDeviation="0.7782341"
         id="feGaussianBlur4289" />
    </filter>
    <linearGradient
       inkscape:collect="always"
       xlink:href="#linearGradient5748"
       id="linearGradient3331"
       gradientUnits="userSpaceOnUse"
       gradientTransform="translate(-26.781818,-2.3055174)"
       x1="223.22391"
       y1="68.009987"
       x2="247.74489"
       y2="37.261646" />
    <filter
       color-interpolation-filters="sRGB"
       inkscape:collect="always"
       id="filter4101">
      <feGaussianBlur
         inkscape:collect="always"
         stdDeviation="0.6328759"
         id="feGaussianBlur4103" />
    </filter>
    <linearGradient
       inkscape:collect="always"
       xlink:href="#linearGradient5732"
       id="linearGradient3276"
       gradientUnits="userSpaceOnUse"
       x1="203.69368"
       y1="78.732513"
       x2="203.58076"
       y2="38.918724"
       gradientTransform="translate(11.980011,0.20052867)" />
    <filter
       color-interpolation-filters="sRGB"
       inkscape:collect="always"
       id="filter4225">
      <feGaussianBlur
         inkscape:collect="always"
         stdDeviation="0.65448389"
         id="feGaussianBlur4227" />
    </filter>
    <linearGradient
       id="linearGradient5620">
      <stop
         offset="0"
         style="stop-color:#ff0000;stop-opacity:1;"
         id="stop5622" />
      <stop
         id="stop5626"
         style="stop-color:#fdb01a;stop-opacity:1;"
         offset="0.43810681" />
      <stop
         offset="1"
         style="stop-color:#fffc35;stop-opacity:1;"
         id="stop5624" />
    </linearGradient>
    <filter
       color-interpolation-filters="sRGB"
       inkscape:collect="always"
       id="filter5898">
      <feGaussianBlur
         inkscape:collect="always"
         stdDeviation="0.66769946"
         id="feGaussianBlur5900" />
    </filter>
    <linearGradient
       y2="60.781628"
       x2="202.68004"
       y1="76.962616"
       x1="221.3476"
       gradientTransform="translate(12.026609,0.02435304)"
       gradientUnits="userSpaceOnUse"
       id="linearGradient3375"
       xlink:href="#linearGradient5620"
       inkscape:collect="always" />
  </defs>
  <sodipodi:namedview
     id="base"
     pagecolor="#ffffff"
     bordercolor="#666666"
     borderopacity="1.0"
     inkscape:pageopacity="0.0"
     inkscape:pageshadow="2"
     inkscape:zoom="3.959798"
     inkscape:cx="29.118614"
     inkscape:cy="59.964634"
     inkscape:document-units="px"
     inkscape:current-layer="layer1"
     showgrid="false"
     inkscape:window-width="1366"
     inkscape:window-height="684"
     inkscape:window-x="0"
     inkscape:window-y="26"
     inkscape:window-maximized="1"
     showguides="true"
     inkscape:guide-bbox="true">
    <sodipodi:guide
       orientation="0,1"
       position="-24.748737,0"
       id="guide11064" />
    <sodipodi:guide
       orientation="0,1"
       position="-23.233509,96"
       id="guide11066" />
    <sodipodi:guide
       orientation="1,0"
       position="0,54.800776"
       id="guide11068" />
    <sodipodi:guide
       orientation="1,0"
       position="96,51.012704"
       id="guide11070" />
    <sodipodi:guide
       orientation="0,1"
       position="-18.94036,48"
       id="guide11072" />
    <sodipodi:guide
       orientation="1,0"
       position="48,79.296975"
       id="guide11074" />
    <sodipodi:guide
       orientation="1,0"
       position="2,75.508903"
       id="guide11076" />
    <sodipodi:guide
       orientation="0,1"
       position="-77.27667,2"
       id="guide11078" />
    <sodipodi:guide
       orientation="1,0"
       position="94,77.781746"
       id="guide11080" />
    <sodipodi:guide
       orientation="0,1"
       position="-65.912454,94"
       id="guide11082" />
  </sodipodi:namedview>
  <metadata
     id="metadata11042">
    <rdf:RDF>
      <cc:Work
         rdf:about="">
        <dc:format>image/svg+xml</dc:format>
        <dc:type
           rdf:resource="http://purl.org/dc/dcmitype/StillImage" />
        <dc:title />
      </cc:Work>
    </rdf:RDF>
  </metadata>
  <g
     inkscape:label="Layer 1"
     inkscape:groupmode="layer"
     id="layer1"
     transform="translate(0,-956.36218)">
    <g
       id="background"
       style="display:inline"
       transform="matrix(1.1428571,0,0,1.1428571,-6.8571426,949.50504)"
       clip-path="url(#clipPath3020)">
      <rect
         width="84"
         height="84"
         rx="6"
         ry="6"
         x="6"
         y="6"
         id="rect2419"
         style="fill:url(#linearGradient3201);fill-opacity:1;fill-rule:nonzero;stroke:none" />
    </g>
    <g
       id="g4133"
       transform="matrix(1.0883604,0,0,1.0687247,-195.74239,951.18293)">
      <g
         id="g3188"
         transform="translate(175.95375,0.94703752)">
        <path
           style="opacity:0.3;fill:#000000;fill-opacity:1;fill-rule:evenodd;stroke:none;display:inline"
           id="path3196"
           inkscape:connector-curvature="0"
           d="m 47.99946,15.802438 c -18.21479,0 -32.99781,14.783615 -32.99781,32.999138 0,18.215529 14.78302,32.999144 32.99781,32.999144 18.2148,0 32.99781,-14.783615 32.99781,-32.999144 0,-18.215523 -14.78301,-32.999138 -32.99781,-32.999138 z m 0,21.253683 c 6.48323,-10e-7 11.74498,5.261964 11.74498,11.745455 0,6.483487 -5.26175,11.745448 -11.74498,11.745448 -6.48323,0 -11.74498,-5.261961 -11.74498,-11.745448 0,-6.483491 5.26175,-11.745455 11.74498,-11.745455 z" />
        <path
           style="opacity:0.3;fill:#ffffff;fill-opacity:1;fill-rule:evenodd;stroke:none;display:inline"
           id="path3198"
           inkscape:connector-curvature="0"
           d="m 47.999459,32.560449 c -8.411692,0 -15.240514,6.829099 -15.240514,15.241127 0,8.412027 6.828822,15.241125 15.240514,15.241125 8.411692,0 15.240518,-6.829089 15.240518,-15.241125 0,-8.412028 -6.828826,-15.241126 -15.240518,-15.241127 z m 0,10.766668 c 2.469804,-1e-6 4.47428,2.004558 4.47428,4.474459 0,2.469902 -2.004476,4.474452 -4.47428,4.474452 -2.469807,0 -4.474278,-2.00455 -4.474278,-4.474452 0,-2.469902 2.004477,-4.474459 4.474278,-4.474459 z" />
        <path
           inkscape:connector-curvature="0"
           style="opacity:0.3;fill:url(#radialGradient3242);fill-opacity:1;fill-rule:evenodd;stroke:none;display:inline"
           id="path3200"
           transform="matrix(0,0.26689125,-0.32060318,0,67.851938,31.816392)"
           d="m 92.579506,61.92226 a 32.685513,27.208481 0 1 1 -65.371025,0 32.685513,27.208481 0 1 1 65.371025,0 z" />
        <path
           inkscape:connector-curvature="0"
           style="opacity:0.6;fill:none;stroke:url(#linearGradient3244);stroke-width:7.32994747;stroke-linecap:round;stroke-linejoin:miter;stroke-miterlimit:4;stroke-opacity:1;stroke-dasharray:none;stroke-dashoffset:0;display:inline"
           id="path3202"
           transform="matrix(0,0.12447512,-0.14952564,0,57.258424,40.346265)"
           d="m 92.579506,61.92226 a 32.685513,27.208481 0 1 1 -65.371025,0 32.685513,27.208481 0 1 1 65.371025,0 z" />
        <path
           style="fill:url(#linearGradient3246);fill-opacity:1;fill-rule:evenodd;stroke:none;display:inline"
           id="path3204"
           inkscape:connector-curvature="0"
           d="m 47.999459,14.802438 c -18.214793,0 -32.997812,14.783615 -32.997812,32.999138 0,18.215529 14.78302,32.999144 32.997812,32.999144 18.214799,0 32.997811,-14.783615 32.997811,-32.999144 0,-18.215523 -14.783012,-32.999138 -32.997811,-32.999138 z m 0,21.253683 c 6.483232,-10e-7 11.744979,5.261964 11.744979,11.745455 0,6.483487 -5.261747,11.745448 -11.744979,11.745448 -6.48323,0 -11.744983,-5.261961 -11.744983,-11.745448 0,-6.483491 5.261753,-11.745455 11.744983,-11.745455 z" />
        <path
           style="opacity:0.8;fill:url(#linearGradient3248);fill-opacity:1;fill-rule:evenodd;stroke:none;display:inline"
           id="path3206"
           inkscape:connector-curvature="0"
           d="M 64.498367,19.421119 C 48.723891,10.313356 28.529911,15.724536 19.422516,31.499643 10.31512,47.274749 15.726081,67.46954 31.500553,76.577309 47.275024,85.685069 67.469009,80.273884 76.576406,64.498783 85.683803,48.723675 80.272841,28.528883 64.498367,19.421119 z M 53.871952,37.827347 c 5.614646,3.241747 7.540577,10.429725 4.298964,16.044593 -3.24162,5.61487 -10.429308,7.54088 -16.043948,4.299132 -5.614643,-3.241739 -7.54058,-10.429721 -4.298963,-16.044589 3.241612,-5.614868 10.429303,-7.54088 16.043947,-4.299136 z" />
        <path
           inkscape:connector-curvature="0"
           style="opacity:0.15;fill:none;stroke:#000000;stroke-width:6.06950235;stroke-linecap:round;stroke-linejoin:miter;stroke-miterlimit:4;stroke-opacity:1;stroke-dasharray:none;stroke-dashoffset:0;display:inline"
           id="path3208"
           transform="matrix(0.45095579,0,0,0.54175426,20.989915,14.354928)"
           d="m 92.579506,61.92226 a 32.685513,27.208481 0 1 1 -65.371025,0 32.685513,27.208481 0 1 1 65.371025,0 z" />
        <g
           style="display:inline"
           id="g3210"
           transform="matrix(0.34353541,-0.44136012,0.44134237,0.34354921,-70.641524,0.81170919)">
          <g
             id="g3212"
             clip-path="url(#clipPath3271)">
            <path
               style="fill:url(#linearGradient3250);fill-opacity:1;fill-rule:evenodd;stroke:none;display:inline"
               id="path3214"
               inkscape:connector-curvature="0"
               d="M 74.118027,277.11735 C 106.19881,271.5322 127.70249,240.96275 122.11734,208.88198 116.5322,176.8012 85.962749,155.29751 53.881978,160.88266 21.801203,166.46781 0.29750806,197.03725 5.8826547,229.11804 11.4678,261.19881 42.037246,282.70249 74.118027,277.11735 z m -6.516698,-37.43151 c -11.41858,1.98793 -22.299227,-5.66593 -24.287158,-17.08451 -1.987941,-11.41857 5.665921,-22.29923 17.084499,-24.28716 11.41858,-1.98793 22.299233,5.66593 24.28717,17.08451 1.987924,11.41857 -5.665932,22.29923 -17.084511,24.28716 z" />
            <path
               style="fill:url(#linearGradient3252);fill-opacity:1;fill-rule:evenodd;stroke:none;display:inline"
               id="path3216"
               inkscape:connector-curvature="0"
               d="M 94.776853,269.3268 C 122.55724,252.33798 131.31561,216.00355 114.32679,188.22315 97.337964,160.44278 61.003543,151.6844 33.223145,168.67322 5.4427579,185.66204 -3.3156068,221.99648 13.673211,249.77686 30.662035,277.55725 66.996455,286.31562 94.776853,269.3268 z M 74.954469,236.91293 c -9.88793,6.04687 -22.820523,2.92947 -28.867393,-6.95846 -6.046863,-9.88793 -2.929476,-22.82053 6.958454,-28.86739 9.887938,-6.04686 22.820537,-2.92949 28.867401,6.95845 6.046855,9.88793 2.929476,22.82053 -6.958462,28.8674 z" />
            <path
               style="fill:url(#linearGradient3254);fill-opacity:1;fill-rule:evenodd;stroke:none;display:inline"
               id="path3218"
               inkscape:connector-curvature="0"
               d="m 36.153689,271.00561 c 28.707102,15.37117 64.480751,4.54779 79.851921,-24.1593 15.37116,-28.70708 4.5478,-64.48074 -24.159308,-79.85191 -28.707087,-15.37116 -64.480736,-4.5478 -79.851909,24.15931 -15.371173,28.70708 -4.5478122,64.48073 24.159296,79.8519 z m 17.934913,-33.49512 c -10.217773,-5.4711 -14.070163,-18.2041 -8.599064,-28.42189 5.471077,-10.21777 18.204079,-14.07015 28.421859,-8.59906 10.217787,5.47108 14.07017,18.2041 8.599071,28.42186 -5.471084,10.21778 -18.204093,14.07016 -28.421866,8.59909 z" />
          </g>
          <g
             id="g3220"
             clip-path="url(#clipPath3271)"
             transform="matrix(1,0,0,-1,0,438.00336)">
            <path
               style="fill:url(#linearGradient3256);fill-opacity:1;fill-rule:evenodd;stroke:none;display:inline"
               id="path3222"
               inkscape:connector-curvature="0"
               d="M 74.118027,277.11735 C 106.19881,271.5322 127.70249,240.96275 122.11734,208.88198 116.5322,176.8012 85.962749,155.29751 53.881978,160.88266 21.801203,166.46781 0.29750806,197.03725 5.8826547,229.11804 11.4678,261.19881 42.037246,282.70249 74.118027,277.11735 z m -6.516698,-37.43151 c -11.41858,1.98793 -22.299227,-5.66593 -24.287158,-17.08451 -1.987941,-11.41857 5.665921,-22.29923 17.084499,-24.28716 11.41858,-1.98793 22.299233,5.66593 24.28717,17.08451 1.987924,11.41857 -5.665932,22.29923 -17.084511,24.28716 z" />
            <path
               style="fill:url(#linearGradient3258);fill-opacity:1;fill-rule:evenodd;stroke:none;display:inline"
               id="path3224"
               inkscape:connector-curvature="0"
               d="M 94.776853,269.3268 C 122.55724,252.33798 131.31561,216.00355 114.32679,188.22315 97.337964,160.44278 61.003543,151.6844 33.223145,168.67322 5.4427579,185.66204 -3.3156068,221.99648 13.673211,249.77686 30.662035,277.55725 66.996455,286.31562 94.776853,269.3268 z M 74.954469,236.91293 c -9.88793,6.04687 -22.820523,2.92947 -28.867393,-6.95846 -6.046863,-9.88793 -2.929476,-22.82053 6.958454,-28.86739 9.887938,-6.04686 22.820537,-2.92949 28.867401,6.95845 6.046855,9.88793 2.929476,22.82053 -6.958462,28.8674 z" />
            <path
               style="fill:url(#linearGradient3260);fill-opacity:1;fill-rule:evenodd;stroke:none;display:inline"
               id="path3226"
               inkscape:connector-curvature="0"
               d="m 36.153689,271.00561 c 28.707102,15.37117 64.480751,4.54779 79.851921,-24.1593 15.37116,-28.70708 4.5478,-64.48074 -24.159308,-79.85191 -28.707087,-15.37116 -64.480736,-4.5478 -79.851909,24.15931 -15.371173,28.70708 -4.5478122,64.48073 24.159296,79.8519 z m 17.934913,-33.49512 c -10.217773,-5.4711 -14.070163,-18.2041 -8.599064,-28.42189 5.471077,-10.21777 18.204079,-14.07015 28.421859,-8.59906 10.217787,5.47108 14.07017,18.2041 8.599071,28.42186 -5.471084,10.21778 -18.204093,14.07016 -28.421866,8.59909 z" />
          </g>
        </g>
        <path
           style="opacity:0.8;fill:#ffffff;fill-opacity:1;fill-rule:evenodd;stroke:none;display:inline"
           id="path3228"
           inkscape:connector-curvature="0"
           d="m 48,14.8125 c -18.21479,0 -33,14.784477 -33,33 0,0.337404 0.02118,0.665023 0.03125,1 0.524228,-17.758011 15.085217,-32 32.96875,-32 17.883543,0 32.444523,14.241989 32.96875,32 0.01007,-0.334977 0.03125,-0.662596 0.03125,-1 0,-18.215523 -14.7852,-33 -33,-33 z" />
        <path
           style="font-size:medium;font-style:normal;font-variant:normal;font-weight:normal;font-stretch:normal;text-indent:0;text-align:start;text-decoration:none;line-height:normal;letter-spacing:normal;word-spacing:normal;text-transform:none;direction:ltr;block-progression:tb;writing-mode:lr-tb;text-anchor:start;opacity:0.5;color:#000000;fill:url(#linearGradient3262);fill-opacity:1;stroke:none;stroke-width:3.23149872;marker:none;visibility:visible;display:inline;overflow:visible;enable-background:accumulate;font-family:Abandoned Bitplane;-inkscape-font-specification:Abandoned Bitplane"
           id="path3232"
           inkscape:connector-curvature="0"
           d="m 57.777126,47.805036 c 0,-5.302035 -4.330452,-9.687945 -9.78283,-9.687945 -5.452378,0 -9.772231,4.38591 -9.772231,9.687945 0,5.302035 4.319853,9.679122 9.772231,9.679122 5.452378,0 9.78283,-4.377087 9.78283,-9.679122 z m -1.102291,0 c 0,4.891566 -3.939727,8.770325 -8.680539,8.770325 -4.740812,0 -8.66994,-3.878759 -8.66994,-8.770325 0,-4.891566 3.929128,-8.779149 8.66994,-8.779149 4.740812,0 8.680539,3.887583 8.680539,8.779149 z" />
      </g>
      <path
         style="opacity:0.94605809;fill:url(#linearGradient3282);fill-opacity:1;stroke:none;filter:url(#filter4271)"
         d="m 232.51609,47.994344 c 1.02558,5.873751 -1.43532,13.560251 1.07217,17.443298 2.27165,3.517833 9.15464,5.690722 13.4433,0.659794 4.28866,-5.030928 3.14715,-4.260461 4.70103,-7.340206 -3.27085,2.858399 -4.65979,1.319588 -6.35052,2.515464 0.70104,-0.618556 6.76289,-4.824743 5.69072,-11.092784 -1.35113,-7.898866 -2.06185,-9.896907 -0.98969,-18.061855 -2.47422,3.13402 -3.3902,3.229976 -6.84536,6.020618 -4.54404,3.670104 -2.33506,15.031169 -4.12371,15.587629 0.0258,-1.546632 0.28866,-6.185567 -2.51546,-9.402062 1.27834,8.742268 -2.18557,10.804124 -2.18557,10.804124 0.44149,-2.822921 -0.9748,-3.796893 -1.89691,-7.13402 z"
         id="path3234"
         inkscape:connector-curvature="0"
         sodipodi:nodetypes="cssccscscccc" />
      <path
         style="opacity:0.85477181;fill:url(#linearGradient3279);fill-opacity:1;stroke:none;filter:url(#filter4287)"
         d="m 235.5469,55.44167 c -0.94055,5.158281 -8.3239,14.019926 -7.02913,18.20495 0.85651,2.768465 2.81427,7.581667 12.3389,1.668787 4.30669,-2.673585 8.69838,-7.429666 9.9448,-10.572579 -3.25907,3.79412 -3.86489,3.232037 -6.1521,3.89743 2.94652,-2.7176 6.70687,-4.77508 8.09109,-9.102474 2.11718,-6.618818 -2.6544,-13.820924 1.70708,-21.685556 -8.95595,9.395684 -4.64062,14.085179 -13.08517,22.949789 0.28037,-3.936717 2.55039,-6.977674 0.80911,-9.962154 -0.87852,2.580885 -1.9505,6.824722 -7.63597,13.805421 1.47555,-2.788245 2.238,-5.207873 1.01139,-9.203614 z"
         id="path3236"
         inkscape:connector-curvature="0"
         sodipodi:nodetypes="cssccsccccc" />
      <path
         transform="matrix(0.90838103,-0.41814342,0.41814342,0.90838103,-2.7332384,93.708514)"
         sodipodi:nodetypes="cssccscscccc"
         inkscape:connector-curvature="0"
         id="path3329"
         d="m 193.75426,45.488297 c 1.02558,5.873751 -1.43532,13.560251 1.07217,17.443298 2.27165,3.517833 9.15464,5.690722 13.4433,0.659794 4.28866,-5.030928 3.14715,-4.260461 4.70103,-7.340206 -3.27085,2.858399 -4.65979,1.319588 -6.35052,2.515464 0.70104,-0.618556 4.12358,-4.648789 3.05141,-10.91683 -1.35113,-7.898866 0.57746,-10.072861 1.64962,-18.237809 -2.47422,3.13402 -5.34013,4.454972 -7.54918,8.308017 -2.60854,4.549873 -1.63124,12.74377 -3.41989,13.30023 0.0258,-1.546632 0.11271,-7.769151 -2.69141,-10.985646 1.27834,8.742268 -2.00962,12.387708 -2.00962,12.387708 0.44149,-2.822921 -0.9748,-3.796893 -1.89691,-7.13402 z"
         style="opacity:0.72807019;fill:url(#linearGradient3331);fill-opacity:1;stroke:none;filter:url(#filter4101)" />
      <path
         style="opacity:0.88381743;fill:url(#linearGradient3276);fill-opacity:1;stroke:none;filter:url(#filter4225)"
         d="m 196.11562,61.977524 c 4.60495,5.06179 8.18184,13.460462 17.94728,15.835838 9.76543,2.375375 15.88009,-0.429715 12.31676,-6.334336 -2.8852,-4.780932 -3.1053,-5.776394 -5.36659,-8.621733 0.87977,3.167168 0.35191,5.718496 -1.84751,6.422312 -9.9414,-8.709711 -12.5807,-15.923816 -16.80358,-27.008902 2.63929,7.566011 -3.87098,6.598266 2.90322,20.058728 -6.86219,-6.598265 -3.783,-4.838728 -12.22878,-8.005895 8.20031,6.40453 4.63958,6.357986 8.53376,10.557225 -1.75954,-0.08798 -2.96166,-2.836571 -5.45456,-2.903237 z"
         id="path3238"
         inkscape:connector-curvature="0"
         sodipodi:nodetypes="cssccccccc" />
      <path
         style="opacity:0.8879668;fill:url(#linearGradient3375);fill-opacity:1;stroke:none;filter:url(#filter5898)"
         d="m 214.97353,63.716134 c 2.52817,5.601496 1.30587,12.658345 8.39781,15.920838 6.8049,3.130451 12.30511,-5.423583 12.65503,-9.44753 -3.50738,2.991805 -3.35415,4.94703 -5.65685,4.140583 -0.8875,-0.310821 -4.22106,-5.985289 -3.38246,-8.864349 0.99382,-3.411904 -0.0221,-3.63948 -0.3499,-5.190309 0.0379,5.734978 -3.96338,6.166992 -3.32414,13.471477 -3.96276,-5.246863 0.0384,-7.493866 -5.01535,-12.013525 1.34131,4.373856 1.80786,6.881534 0.0583,7.756305 0.18288,-1.75037 -3.2268,-5.70165 -3.38246,-5.77349 z"
         id="path3240"
         inkscape:connector-curvature="0"
         sodipodi:nodetypes="cscsscccccc" />
    </g>
    <rect
       ry="25"
       rx="25"
       id="rect3003"
       style="opacity:0.15;fill:#ffffff;fill-opacity:1"
       height="92"
       width="92"
       y="958.36218"
       x="-96"
       clip-path="url(#clipPath3009)"
       transform="translate(98,0)" />
  </g>
</svg>
