<?xml version="1.0" encoding="UTF-8" standalone="no"?>
<!-- Created with Inkscape (http://www.inkscape.org/) -->

<svg
   xmlns:dc="http://purl.org/dc/elements/1.1/"
   xmlns:cc="http://creativecommons.org/ns#"
   xmlns:rdf="http://www.w3.org/1999/02/22-rdf-syntax-ns#"
   xmlns:svg="http://www.w3.org/2000/svg"
   xmlns="http://www.w3.org/2000/svg"
   xmlns:sodipodi="http://sodipodi.sourceforge.net/DTD/sodipodi-0.dtd"
   xmlns:inkscape="http://www.inkscape.org/namespaces/inkscape"
   id="svg11037"
   height="96"
   width="96"
   version="1.1"
   inkscape:version="0.48.5 r10040"
   sodipodi:docname="xfce-system-info.svg">
  <sodipodi:namedview
     pagecolor="#ffffff"
     bordercolor="#666666"
     borderopacity="1"
     objecttolerance="10"
     gridtolerance="10"
     guidetolerance="10"
     inkscape:pageopacity="0"
     inkscape:pageshadow="2"
     inkscape:window-width="1366"
     inkscape:window-height="716"
     id="namedview20"
     showgrid="false"
     inkscape:zoom="2.4583333"
     inkscape:cx="-4.0677966"
     inkscape:cy="48"
     inkscape:window-x="0"
     inkscape:window-y="24"
     inkscape:window-maximized="1"
     inkscape:current-layer="svg11037" />
  <defs
     id="defs11039" />
  <metadata
     id="metadata11042">
    <rdf:RDF>
      <cc:Work
         rdf:about="">
        <dc:format>image/svg+xml</dc:format>
        <dc:type
           rdf:resource="http://purl.org/dc/dcmitype/StillImage" />
        <dc:title />
      </cc:Work>
    </rdf:RDF>
  </metadata>
  <path
     inkscape:connector-curvature="0"
     d="M 47.999909,20.475227 C 31.431777,20.475227 18,31.464285 18,45.020607 c 0,8.634883 5.454347,16.22086 13.692686,20.596302 -0.31329,2.28072 -1.739995,7.86343 -8.494338,9.772697 8.748064,0.950725 14.558138,-3.314808 17.641765,-6.534071 2.295447,0.459999 4.692713,0.710907 7.159978,0.710907 C 64.568223,69.566442 78,58.577384 78,45.021062 78,31.464739 64.568223,20.475682 48.000091,20.475682 z m 2.528356,8.181794 c 1.122088,3.6e-5 2.079721,0.388344 2.869264,1.13636 0.803443,0.748079 1.193178,1.646086 1.193178,2.698901 -1.4e-5,1.052815 -0.389735,1.950812 -1.193178,2.698901 -0.789625,0.734225 -1.747267,1.107996 -2.869264,1.107996 -1.122087,2.8e-5 -2.094266,-0.373726 -2.897718,-1.107996 -0.803471,-0.748025 -1.193179,-1.645995 -1.193179,-2.698901 -7e-6,-1.052815 0.389708,-1.950813 1.193179,-2.698901 0.803452,-0.748016 1.775631,-1.13636 2.897718,-1.13636 z m -3.806807,11.079966 c 1.64845,1.8e-5 2.920173,0.418144 3.806807,1.221633 0.900416,0.789625 1.335178,1.822176 1.335269,3.096536 -1.8e-5,0.263181 -0.01597,0.727088 -0.08523,1.391996 -0.05542,0.664907 -0.174691,1.264087 -0.340908,1.818176 L 49.732855,53.3164 c -0.138536,0.484817 -0.258508,1.024361 -0.369317,1.647723 -0.110836,0.623361 -0.170463,1.101815 -0.170454,1.42045 -10e-6,0.803452 0.179591,1.356814 0.539771,1.647722 0.360163,0.290908 0.988361,0.42609 1.874995,0.42609 0.415571,0 0.894033,-0.06 1.42045,-0.198818 0.526389,-0.152363 0.900852,-0.286908 1.13636,-0.397726 l -0.454544,1.874995 c -1.37145,0.540271 -2.478174,0.944542 -3.295444,1.221632 -0.81818,0.289999 -1.760904,0.425453 -2.84181,0.425453 -1.661813,0 -2.963627,-0.389998 -3.891806,-1.192723 -0.91427,-0.817361 -1.363633,-1.849813 -1.363633,-3.096536 -2e-6,-0.484817 0.04436,-0.978543 0.113636,-1.477269 0.06926,-0.512543 0.160118,-1.095724 0.312499,-1.732903 l 1.704541,-6.051073 c 0.152372,-0.581816 0.272344,-1.135178 0.369317,-1.647722 0.110818,-0.526453 0.170454,-0.990997 0.170454,-1.42045 -5e-6,-0.775725 -0.164345,-1.314542 -0.482953,-1.619268 -0.318618,-0.304745 -0.917725,-0.482935 -1.818177,-0.482953 -0.443289,1.8e-5 -0.892642,0.08882 -1.363632,0.227272 -0.457144,0.138545 -0.860715,0.273072 -1.193178,0.397726 l 0.454544,-1.874995 c 1.122088,-0.457125 2.213539,-0.846133 3.238627,-1.164723 1.025087,-0.332445 1.983448,-0.511344 2.897718,-0.511362 z"
     style="fill:#99ff55"
     id="path3620" />
</svg>
