<svg height="96" width="96" xmlns="http://www.w3.org/2000/svg" xmlns:sodipodi="http://sodipodi.sourceforge.net/DTD/sodipodi-0.dtd" xmlns:inkscape="http://www.inkscape.org/namespaces/inkscape">
 <defs>
  <linearGradient x1="53.06" x2="50.45" y1="1042.44" y2="965.46" gradientUnits="userSpaceOnUse" id="linearGradient5160" inkscape:collect="always">
   <stop stop-color="#bcb5ac"/>
   <stop stop-color="#e9e7e4" offset="1"/>
  </linearGradient>
  <linearGradient x2="0" y1="42" y2="52" gradientUnits="userSpaceOnUse" id="linearGradient4641" inkscape:collect="always" gradientTransform="matrix(0.83333 0 0 0.83333 8.757 964.22)">
   <stop stop-color="#1a1a1a"/>
   <stop stop-color="#3a3a3a" offset="1"/>
  </linearGradient>
 </defs>
 <g inkscape:label="Layer 1" inkscape:groupmode="layer" transform="matrix(1 0 0 1 0 -956.36)">
  <rect x="8.751" rx="10.769" y="964.14" fill="url(#linearGradient5160)" fill-opacity="1" stroke="none" height="80" width="80"/>
  <path d="m 8.75125,1031.3354 0,2.0133 c 0,5.966 4.793063,10.7905 10.758946,10.7905 l 58.450649,0 c 5.965883,0 10.790405,-4.8245 10.790405,-10.7905 l 0,-2.0133 c 0,5.9659 -4.824522,10.7904 -10.790405,10.7904 l -58.450649,0 c -5.965883,0 -10.758946,-4.8245 -10.758946,-10.7904 z" fill="#000000" fill-opacity="1" stroke="none" opacity="0.3" inkscape:connector-curvature="0"/>
  <path d="m 54.76657,1026.3232 c -2.1632,-0.7198 -3.421,-1.4343 -5.5451,-3.1498 -5.7013,-4.6046 -8.6691,-11.393 -7.0535,-16.136 0.66736,-1.9593 1.428,-3.2008 2.8042,-4.5769 2.3896,-2.3895 6.1159,-4.15204 10.773,-5.09574 7.2318,-1.4653 12.927,0.362 13.372,4.29044 0.32333,2.8523 -1.8712,5.4484 -8.1979,9.6983 -4.4911,3.0168 -6.2405,4.6243 -6.2405,5.7343 0,1.5955 1.9412,3.1953 3.8773,3.1953 1.2217,0 1.8492,-0.6581 2.3894,-2.5059 0.71529,-2.4464 2.1772,-3.3092 5.6612,-3.3414 2.4406,-0.023 3.1986,0.5414 3.3106,2.4628 0.0656,1.1254 -0.0724,1.693 -0.739,3.0393 -1.0926,2.2067 -3.6538,4.7405 -5.9061,5.843 -1.5369,0.7523 -2.0114,0.853 -4.3937,0.9325 -2.0782,0.069 -2.9906,-0.017 -4.1123,-0.3906 z m -13.995,-26.89904 c -1.8431,-1.609 -2.6361,-4.8213 -1.4751,-5.9756 1.7696,-1.7594 4.0145,-0.4634 4.728,2.7296 0.75199,3.3652 -1.0531,5.16644 -3.2529,3.246 z m 6.213,-4.4838 c -1.3207,-1.3838 -1.7607,-2.4791 -1.7732,-4.415 -0.0105,-1.6413 -0.0126,-2.0939 0.85149,-2.953 1.7147,-1.7049 3.8686,-0.4374 4.5323,3.1328 0.32643,1.7557 -0.042,3.3464 -1.0112,4.3655 -0.89467,0.9407 -1.6115,0.9048 -2.5995,-0.1303 z m 17.75,0.01 c -0.85333,-0.4459 -1.7861,-1.8511 -2.0075,-3.0244 -0.42938,-2.2757 1.2099,-6.4003 3.1826,-8.0074 3.22,-2.6234 7.9716,-2.9384 9.1833,-0.6086 0.98582,1.8954 -0.31354,5.2706 -3.1986,8.3088 -2.6707,2.8124 -5.5707,4.1619 -7.1598,3.3316 z m -9.6358,-1.8183 c -1.0205,-0.4897 -1.757,-2.4258 -1.7633,-4.6355 -0.009,-3.227 1.2774,-4.9481 3.7006,-4.9503 1.4782,0 2.3383,0.9928 2.5897,2.9931 0.30714,2.4442 -1.2371,6.0799 -2.8145,6.6267 -0.95233,0.3301 -0.95375,0.33 -1.7125,-0.034 z" fill="#4d4d4d" opacity="0.8" inkscape:connector-curvature="0"/>
  <path d="m 24.58657,979.12316 c -0.94708,0 -1.6927,0.7456 -1.6927,1.6926 v 46.66604 c 0,0.9471 0.74567,1.6926 1.6927,1.6926 h 6.6666 c 0.94708,0 1.6927,-0.7456 1.6927,-1.6926 v -46.66604 c 0,-0.9471 -0.74566,-1.6926 -1.6927,-1.6926 h -6.67 z" fill="#ececec" color="#000000" stroke="#4d4d4d" inkscape:connector-curvature="0"/>
  <path d="m 24.58657,1003.3232 5.8333,4.1667 v -8.33334 l -5.83,4.10004 z" fill="url(#linearGradient4641)" opacity="0.8" inkscape:connector-curvature="0"/>
 </g>
</svg>
