<?xml version="1.0" encoding="UTF-8" standalone="no"?>
<!-- Created with Inkscape (http://www.inkscape.org/) -->

<svg
   xmlns:dc="http://purl.org/dc/elements/1.1/"
   xmlns:cc="http://creativecommons.org/ns#"
   xmlns:rdf="http://www.w3.org/1999/02/22-rdf-syntax-ns#"
   xmlns:svg="http://www.w3.org/2000/svg"
   xmlns="http://www.w3.org/2000/svg"
   xmlns:xlink="http://www.w3.org/1999/xlink"
   xmlns:sodipodi="http://sodipodi.sourceforge.net/DTD/sodipodi-0.dtd"
   xmlns:inkscape="http://www.inkscape.org/namespaces/inkscape"
   width="96"
   height="96"
   id="svg11037"
   version="1.1"
   inkscape:version="0.48.5 r10040"
   sodipodi:docname="evolution-memos.svg">
  <defs
     id="defs11039">
    <linearGradient
       id="linearGradient4296">
      <stop
         style="stop-color:#593812;stop-opacity:1;"
         offset="0"
         id="stop4298" />
      <stop
         style="stop-color:#774b18;stop-opacity:1;"
         offset="1"
         id="stop4300" />
    </linearGradient>
    <linearGradient
       id="linearGradient4158">
      <stop
         style="stop-color:#e9b931;stop-opacity:1;"
         offset="0"
         id="stop4160" />
      <stop
         style="stop-color:#dba42e;stop-opacity:1;"
         offset="1"
         id="stop4162" />
    </linearGradient>
    <linearGradient
       inkscape:collect="always"
       xlink:href="#linearGradient4296"
       id="linearGradient4569"
       gradientUnits="userSpaceOnUse"
       x1="53.192429"
       y1="29.291168"
       x2="53.192429"
       y2="15.401463"
       gradientTransform="translate(-4.277887,958.32624)" />
    <linearGradient
       inkscape:collect="always"
       xlink:href="#linearGradient4158"
       id="linearGradient4594"
       gradientUnits="userSpaceOnUse"
       gradientTransform="translate(1082.9071,-1046.3588)"
       x1="-118.54022"
       y1="998.36218"
       x2="-38.540222"
       y2="998.36218" />
    <linearGradient
       y2="15.401463"
       x2="53.192429"
       y1="29.291168"
       x1="53.192429"
       gradientUnits="userSpaceOnUse"
       id="linearGradient4449"
       xlink:href="#linearGradient4296-9"
       inkscape:collect="always" />
    <linearGradient
       y2="998.36218"
       x2="-38.540222"
       y1="998.36218"
       x1="-118.54022"
       gradientTransform="translate(1080.943,-1050.6367)"
       gradientUnits="userSpaceOnUse"
       id="linearGradient4447"
       xlink:href="#linearGradient4158-5"
       inkscape:collect="always" />
    <linearGradient
       id="linearGradient4158-5">
      <stop
         id="stop4160-8"
         offset="0"
         style="stop-color:#e9b931;stop-opacity:1;" />
      <stop
         id="stop4162-0"
         offset="1"
         style="stop-color:#dba42e;stop-opacity:1;" />
    </linearGradient>
    <linearGradient
       id="linearGradient4296-9">
      <stop
         id="stop4298-9"
         offset="0"
         style="stop-color:#593812;stop-opacity:1;" />
      <stop
         id="stop4300-0"
         offset="1"
         style="stop-color:#774b18;stop-opacity:1;" />
    </linearGradient>
  </defs>
  <sodipodi:namedview
     id="base"
     pagecolor="#ffffff"
     bordercolor="#666666"
     borderopacity="1.0"
     inkscape:pageopacity="0.0"
     inkscape:pageshadow="2"
     inkscape:zoom="1.979899"
     inkscape:cx="46.863769"
     inkscape:cy="63.368251"
     inkscape:document-units="px"
     inkscape:current-layer="layer1"
     showgrid="false"
     inkscape:window-width="1366"
     inkscape:window-height="717"
     inkscape:window-x="0"
     inkscape:window-y="25"
     inkscape:window-maximized="1"
     showguides="true"
     inkscape:guide-bbox="true" />
  <metadata
     id="metadata11042">
    <rdf:RDF>
      <cc:Work
         rdf:about="">
        <dc:format>image/svg+xml</dc:format>
        <dc:type
           rdf:resource="http://purl.org/dc/dcmitype/StillImage" />
        <dc:title />
      </cc:Work>
    </rdf:RDF>
  </metadata>
  <g
     inkscape:label="Layer 1"
     inkscape:groupmode="layer"
     id="layer1"
     transform="translate(0,-956.36218)">
    <rect
       style="opacity:0.98999999;fill:#ffdb00;fill-opacity:0.99215896;stroke:none"
       id="rect2985-4"
       width="80"
       height="80"
       x="964.36218"
       y="-88"
       rx="10.769231"
       ry="10.769231"
       transform="matrix(0,1,-1,0,0,0)" />
    <path
       style="opacity:0.9;fill:#1a1a1a"
       d="m 14.26755,1014.5901 c 0.0279,-0.4181 0.10801,-0.7247 0.24041,-0.9198 0.13241,-0.1952 0.41115,-0.4356 0.83627,-0.7213 0.42509,-0.2858 0.88852,-0.4007 1.39024,-0.345 0.50175,0.056 0.57144,0.338 0.20907,0.8467 -0.36239,0.5088 -0.53661,1.0106 -0.52267,1.5053 0.014,0.4948 0.27875,0.8502 0.79444,1.0663 0.5157,0.216 1.0767,0.1776 1.68297,-0.1146 0.60629,-0.2927 1.31362,-0.7283 2.12202,-1.3068 0.80838,-0.5783 1.62374,-1.3101 2.44602,-2.1951 0.82231,-0.8851 1.52268,-1.7667 2.1011,-2.6447 0.5784,-0.8781 1.0418,-1.6969 1.39024,-2.4565 0.34842,-0.7596 0.56447,-1.5087 0.6481,-2.2473 0.0836,-0.7387 -0.14984,-1.4357 -0.70037,-2.0906 -0.55055,-0.6551 -0.83627,-1.2057 -0.85716,-1.6517 -0.0209,-0.4459 0.23344,-0.8781 0.76309,-1.2962 0.94775,10e-5 1.60634,0.2788 1.9757,0.8362 0.36934,0.5576 0.70383,1.129 1.00349,1.7144 0.29963,0.5855 0.55748,1.1813 0.77354,1.7876 0.21601,0.6063 0.4425,1.1568 0.67945,1.6515 0.23693,0.4948 0.41115,1.0034 0.52267,1.5261 0.11148,0.5228 0.28919,1.0803 0.53311,1.6725 0.2439,0.5925 0.45296,1.2161 0.6272,1.8713 0.1742,0.6549 0.45643,0.6863 0.84671,0.094 0.39024,-0.5924 1.00701,-1.3381 1.85021,-2.237 0.8432,-0.8989 1.57497,-1.6585 2.19522,-2.2788 0.62019,-0.6202 1.31362,-1.2369 2.08019,-1.8501 0.76653,-0.6132 1.54701,-1.1638 2.34152,-1.6517 0.79442,-0.4877 1.67946,-0.9268 2.6551,-1.317 0.97563,-0.3902 1.84667,-0.5785 2.61334,-0.5646 0.76654,0.013 1.48437,0.1361 2.1534,0.366 0.66896,0.2299 1.21949,0.4948 1.65159,0.7943 0.43202,0.2998 0.78047,0.6726 1.04533,1.1186 0.26477,0.4461 0.4111,1.2265 0.43903,2.3414 -0.20911,0.474 -0.46347,0.69 -0.76309,0.6482 -0.2997,-0.041 -0.47045,-0.3694 -0.51221,-0.9826 -0.0418,-0.6131 -0.26834,-1.1184 -0.67946,-1.5156 -0.41121,-0.3973 -0.82237,-0.6864 -1.23348,-0.8676 -0.4112,-0.1811 -0.95129,-0.3275 -1.62022,-0.4391 -0.66904,-0.1109 -1.32759,-0.058 -1.9757,0.1568 -0.64813,0.216 -1.3485,0.5576 -2.10109,1.0245 -0.75268,0.4669 -1.63079,1.0418 -2.63428,1.7246 -1.00357,0.683 -1.9757,1.5018 -2.91644,2.4565 -0.94081,0.9547 -1.71434,1.8433 -2.32062,2.6656 -0.60631,0.8222 -1.14286,1.6131 -1.60976,2.3728 -0.46693,0.7597 -0.8084,1.5681 -1.0244,2.4252 -0.21605,0.8572 -0.48784,1.676 -0.81535,2.4565 -0.32756,0.7805 -0.7422,1.3797 -1.24393,1.7979 -0.75265,-0.111 -1.14639,-0.3381 -1.18118,-0.6795 -0.0349,-0.3415 0.0661,-0.7281 0.30314,-1.1603 0.23693,-0.432 0.43903,-0.9791 0.60629,-1.6412 0.16723,-0.6619 0.2648,-1.3485 0.29269,-2.0592 0.0279,-0.7108 -0.0767,-1.439 -0.3136,-2.1848 -0.23696,-0.7456 -0.46345,-1.3728 -0.67946,-1.8816 -0.21605,-0.5087 -0.45299,-0.9302 -0.71081,-1.2647 -0.25787,-0.3345 -0.53314,-0.3241 -0.82582,0.032 -0.29271,0.3554 -0.71431,0.8885 -1.26484,1.5992 -0.55055,0.7109 -1.23346,1.467 -2.04881,2.2685 -0.81536,0.8014 -1.88158,1.7072 -3.19871,2.7177 -1.31713,1.0106 -2.50877,1.6864 -3.57501,2.0279 -1.06623,0.3415 -1.93386,0.4111 -2.60288,0.2091 -0.66901,-0.2021 -1.12547,-0.5401 -1.36942,-1.0139 -0.24391,-0.4739 -0.41465,-1.2057 -0.51221,-2.1953 m 24.79488,1.9026 c 0.223,0.3345 0.49827,0.5087 0.82581,0.5226 0.32753,0.013 0.63764,-0.077 0.93034,-0.2718 0.29269,-0.1951 0.63764,-0.3798 1.03486,-0.554 0.39722,-0.1742 0.78398,-0.3902 1.16026,-0.648 0.3763,-0.258 0.56446,-0.582 0.56447,-0.9722 -1e-5,-0.3902 -0.14635,-0.6934 -0.43903,-0.9094 -0.2927,-0.2162 -0.41465,-0.4914 -0.36587,-0.8259 0.0488,-0.3344 0.20208,-0.5645 0.45994,-0.69 0.25784,-0.1253 0.68643,-0.195 1.28576,-0.2089 0.62719,0.1254 1.01043,0.4391 1.1499,0.9408 0.13936,0.5018 0.12893,0.9687 -0.0313,1.4006 -0.16029,0.4321 0.0383,0.8223 0.59584,1.1707 0.5575,0.3484 1.05578,0.4635 1.49482,0.345 0.43904,-0.1182 0.68643,0.017 0.74219,0.4078 -0.0697,0.418 -0.18469,0.6689 -0.34497,0.7526 -0.16029,0.083 -0.48434,0.1602 -0.97211,0.2298 -0.48782,0.069 -1.07317,-0.081 -1.75617,-0.4493 -0.68295,-0.3694 -1.17082,-0.4427 -1.46346,-0.2196 -0.29269,0.223 -0.73172,0.5121 -1.31713,0.8676 -0.58537,0.3553 -1.16035,0.6377 -1.7248,0.8467 -0.56448,0.209 -1.20913,0.3136 -1.93386,0.3136 -0.66901,-0.223 -1.14287,-0.568 -1.42162,-1.0349 -0.27875,-0.4669 -0.41813,-0.9791 -0.41813,-1.5366 0.0697,-0.3903 0.3589,-0.8189 0.86762,-1.2857 0.50872,-0.467 0.99655,-0.8573 1.46345,-1.1708 0.46691,-0.3136 0.94079,-0.5435 1.42162,-0.6899 0.48085,-0.1463 0.82232,-0.1254 1.0244,0.062 0.20209,0.1881 0.3345,0.4181 0.39722,0.6898 0.0627,0.2719 0.0349,0.4914 -0.0836,0.6587 -0.11849,0.1671 -0.2927,0.2786 -0.52267,0.3345 -0.22998,0.056 -0.54705,0.1288 -0.9512,0.2194 -0.40419,0.09 -0.83975,0.3136 -1.30667,0.669 -0.46691,0.3555 -0.58887,0.7005 -0.36587,1.035 m 8.98976,-0.3137 c 0.13937,-0.3763 0.33101,-0.7736 0.57493,-1.1916 0.2439,-0.4181 0.8049,-1.0245 1.68297,-1.8188 0.87806,-0.7946 1.5262,-1.5054 1.94433,-2.1326 -0.64115,0.083 -1.06976,0.129 -1.28576,0.136 -0.21605,0.012 -0.34496,-0.122 -0.38678,-0.3868 -0.0418,-0.2648 0.021,-0.46 0.18816,-0.5854 0.16725,-0.1255 0.49478,-0.2196 0.98257,-0.2822 0.48781,-0.062 0.99655,-0.1429 1.52621,-0.2404 0.93381,-0.8781 1.69693,-1.582 2.28924,-2.1116 0.59234,-0.5296 1.22652,-1.1011 1.90249,-1.7144 0.67596,-0.613 1.31714,-1.1254 1.92341,-1.5366 0.60627,-0.411 1.13241,-0.6236 1.57848,-0.6375 0.2648,0.3484 0.0174,0.8606 -0.74218,1.5366 -0.7596,0.6759 -1.36239,1.2368 -1.80837,1.6829 l -1.28576,1.2857 c -0.41116,0.4112 -0.88156,0.9024 -1.41116,1.4739 0.68294,-0.083 1.70389,-0.2021 3.06275,-0.3553 1.35888,-0.1534 2.74922,-0.2963 4.17083,-0.4286 1.42162,-0.1324 2.8537,-0.2475 4.29633,-0.345 1.44252,-0.098 2.85721,-0.1602 4.24402,-0.1883 1.38672,-0.028 2.82936,-0.024 4.32761,0.012 1.49824,0.035 2.71783,0.098 3.65866,0.1883 0.94077,0.09 1.68991,0.3797 2.24742,0.8675 -0.57148,0.1812 -1.09419,0.2404 -1.56804,0.1778 -0.4739,-0.062 -0.98266,-0.111 -1.52619,-0.1464 -0.5436,-0.035 -1.19516,-0.042 -1.95477,-0.021 -0.75964,0.021 -1.67956,0.049 -2.75968,0.083 -1.08021,0.035 -2.23353,0.059 -3.46006,0.073 -1.22653,0.013 -2.47046,0.073 -3.73178,0.1777 -1.26142,0.1049 -2.46,0.216 -3.59592,0.3344 -1.13593,0.1182 -2.3171,0.2266 -3.54364,0.3241 -1.22652,0.098 -2.09757,0.1638 -2.61334,0.1986 -0.51571,0.035 -0.9408,0.073 -1.2753,0.1146 -0.33451,0.042 -0.60978,0.1146 -0.82581,0.2196 -0.21603,0.1048 -0.44602,0.2612 -0.68991,0.4703 -0.24391,0.209 -0.54705,0.4983 -0.90943,0.8675 -0.36239,0.3694 -0.79097,0.8503 -1.28576,1.4426 -0.49479,0.5925 -0.93384,1.1011 -1.31714,1.5263 -0.38329,0.425 -0.65856,0.8222 -0.82581,1.1916 -0.16725,0.3693 -0.18815,0.6969 -0.0627,0.9825 0.12544,0.2857 0.36238,0.4599 0.71082,0.5227 0.34843,0.062 1.01746,-0.077 2.00697,-0.4181 0.98961,-0.3415 1.69343,-0.6446 2.11156,-0.9095 0.41811,-0.2648 0.73521,-0.432 0.9512,-0.5018 0.21602,-0.069 0.38327,-0.024 0.50175,0.1359 0.11849,0.1603 -0.0523,0.4356 -0.51221,0.8258 -0.45994,0.3904 -0.8711,0.69 -1.23347,0.8991 -0.36239,0.209 -0.77703,0.4041 -1.24392,0.5853 -0.46692,0.1812 -0.99303,0.3136 -1.57848,0.3972 -0.37633,0.056 -0.73174,0.083 -1.06625,0.083 -0.20906,0 -0.41117,-0.012 -0.60629,-0.021 -0.52962,-0.056 -0.94427,-0.1778 -1.24392,-0.366 -0.29965,-0.1881 -0.49827,-0.4354 -0.59584,-0.742 -0.11154,-0.2789 -0.16725,-0.5298 -0.16725,-0.7526 0,-0.014 0.007,-0.035 0.021,-0.062 0,-0.237 0.0697,-0.5436 0.20906,-0.9199 m 9.30341,-1.0453 c 0.85019,-0.2787 1.41818,-0.5436 1.70389,-0.7945 0.28571,-0.2508 0.40767,-0.4807 0.36585,-0.6899 -0.0418,-0.2091 -0.27874,-0.2021 -0.7108,0.021 -0.43207,0.2231 -0.72826,0.4495 -0.88854,0.6795 -0.16028,0.23 -0.31708,0.4913 -0.4704,0.7839 m -1.83973,1.3799 c 0,-0.7248 0.0906,-1.2822 0.27177,-1.6725 0.18119,-0.3903 0.47738,-0.7945 0.88853,-1.2126 0.41116,-0.4181 0.82233,-0.7804 1.23347,-1.0871 0.41115,-0.3066 0.83278,-0.5157 1.26484,-0.6272 l 0.48085,-0.021 c 0.43207,0.013 0.80838,0.1324 1.12898,0.3554 0.32056,0.2231 0.45646,0.6168 0.40769,1.1812 -0.0488,0.5646 -0.32754,1.0523 -0.83626,1.4635 -0.50873,0.4112 -1.08364,0.7074 -1.7248,0.8885 -0.64114,0.1812 -0.9861,0.345 -1.03487,0.4914 -0.0488,0.1462 0.0557,0.3066 0.31359,0.4808 0.25785,0.1742 0.83627,0.2856 1.73527,0.3345 0.89897,0.049 1.63419,0 2.20569,-0.1464 0.57143,-0.1464 1.03486,-0.3032 1.39024,-0.4704 0.35538,-0.1672 0.63415,-0.2787 0.83624,-0.3345 0.20209,-0.056 0.36587,0.049 0.49131,0.3136 -0.36238,0.5157 -0.7596,0.8955 -1.19163,1.1395 -0.43208,0.2439 -0.97213,0.4634 -1.62022,0.6585 -0.64811,0.1951 -1.43912,0.3136 -2.37292,0.3554 h -0.56447 c -1.01746,-0.098 -1.70389,-0.2334 -2.05927,-0.4076 -0.35541,-0.1742 -0.63068,-0.3798 -0.82581,-0.6168 -0.19513,-0.2369 -0.3345,-0.5924 -0.41813,-1.0663 m 9.4811,0.1882 c 0.14634,0.4042 0.41812,0.575 0.81534,0.5122 0.39722,-0.062 0.75961,-0.1987 1.08716,-0.4076 0.3345,-0.216 0.67249,-0.5331 1.01394,-0.9512 0.34147,-0.4251 0.49129,-0.7144 0.44949,-0.8676 -0.82232,0.5993 -1.47038,0.9966 -1.94433,1.1916 -0.46691,0.1951 -0.94078,0.3694 -1.4216,0.5226 m -2.1011,-0.9407 c 0.014,-0.4461 0.0592,-0.7875 0.1359,-1.0244 0.0767,-0.2371 0.20557,-0.3973 0.38677,-0.4809 0.18119,-0.083 0.41116,-0.1109 0.68991,-0.083 0.27874,0.028 0.48782,0.4981 0.62719,1.4112 0.58538,-0.1122 1.09057,-0.2754 1.51573,-0.4914 0.4251,-0.216 0.8293,-0.4217 1.21256,-0.6168 0.38329,-0.202 0.83277,-0.4146 1.3485,-0.6376 0.5157,-0.223 0.99656,-0.4669 1.44254,-0.7317 0.446,-0.2718 0.7805,-0.5367 1.00348,-0.7945 0.223,-0.2648 0.39025,-0.5296 0.50177,-0.7945 0.11154,-0.2717 0.29965,-0.4389 0.56447,-0.5017 0.31358,0.012 0.54355,0.073 0.68991,0.1987 0.14633,0.1182 0.23693,0.4007 0.27178,0.8466 -0.014,0.1952 -0.0628,0.3868 -0.14634,0.575 -0.0836,0.1881 -0.26831,0.4146 -0.55403,0.6794 -0.27876,0.2578 -0.57841,0.4704 -0.89897,0.6377 -0.31361,0.1603 -0.66553,0.3588 -1.05578,0.5958 -0.3833,0.237 -0.77007,0.5539 -1.16026,0.9512 -0.3833,0.3973 -0.66205,0.784 -0.83627,1.1603 -0.16725,0.3692 -0.34147,0.7073 -0.52265,1.0139 -0.18119,0.2996 -0.45647,0.5471 -0.82581,0.7421 -0.36936,0.1882 -0.9408,0.3067 -1.71434,0.3555 -0.5157,-0.013 -0.91989,-0.08 -1.21255,-0.1987 -0.29269,-0.1183 -0.59932,-0.4703 -0.91988,-1.0557 -0.32057,-0.5854 -0.50177,-1.1708 -0.54357,-1.7561"
       id="text2443"
       inkscape:connector-curvature="0" />
    <path
       inkscape:connector-curvature="0"
       style="color:#000000;fill:#ff7d00;fill-opacity:0.98039264;fill-rule:nonzero;stroke:none;stroke-width:0.30000001;marker:none;visibility:visible;display:inline;overflow:visible;enable-background:accumulate"
       d="m 18.749998,964.36218 c -5.966154,0 -10.7499997,4.8151 -10.7499997,10.7812 l 0,12 79.9999997,0 0,-12 c 0,-5.9661 -4.815096,-10.7812 -10.78125,-10.7812 l -58.46875,0 z m 4.65625,7.9687 c 1.882885,0 3.40625,1.5547 3.40625,3.4375 0,1.8829 -1.523365,3.4063 -3.40625,3.4063 -1.882885,0 -3.40625,-1.5234 -3.40625,-3.4063 0,-1.8828 1.523365,-3.4375 3.40625,-3.4375 z m 49.1875,0 c 1.882885,0 3.40625,1.5547 3.40625,3.4375 0,1.8829 -1.523365,3.4063 -3.40625,3.4063 -1.882885,0 -3.40625,-1.5234 -3.40625,-3.4063 0,-1.8828 1.523365,-3.4375 3.40625,-3.4375 z"
       id="rect4283-3" />
  </g>
</svg>
