<?xml version="1.0" encoding="UTF-8" standalone="no"?>
<!-- Created with Inkscape (http://www.inkscape.org/) -->

<svg
   xmlns:dc="http://purl.org/dc/elements/1.1/"
   xmlns:cc="http://creativecommons.org/ns#"
   xmlns:rdf="http://www.w3.org/1999/02/22-rdf-syntax-ns#"
   xmlns:svg="http://www.w3.org/2000/svg"
   xmlns="http://www.w3.org/2000/svg"
   xmlns:sodipodi="http://sodipodi.sourceforge.net/DTD/sodipodi-0.dtd"
   xmlns:inkscape="http://www.inkscape.org/namespaces/inkscape"
   id="svg11037"
   height="96"
   width="96"
   version="1.1"
   inkscape:version="0.48.5 r10040"
   sodipodi:docname="gnome-do.svg">
  <sodipodi:namedview
     pagecolor="#ffffff"
     bordercolor="#666666"
     borderopacity="1"
     objecttolerance="10"
     gridtolerance="10"
     guidetolerance="10"
     inkscape:pageopacity="0"
     inkscape:pageshadow="2"
     inkscape:window-width="640"
     inkscape:window-height="480"
     id="namedview21196" />
  <defs
     id="defs11039">
    <linearGradient
       id="linearGradient11642"
       y2="1046.1"
       gradientUnits="userSpaceOnUse"
       y1="962.62"
       gradientTransform="matrix(1.15 0 0 1.15 -7.1999 -150.65)"
       x2="48"
       x1="48">
      <stop
         id="stop3189-5"
         style="stop-color:#623b6b"
         offset="0" />
      <stop
         id="stop3191-3"
         style="stop-color:#ad7fa8"
         offset="1" />
    </linearGradient>
    <linearGradient
       id="linearGradient6667"
       x1="20.759"
       gradientUnits="userSpaceOnUse"
       y1="1"
       gradientTransform="matrix(1.1347,0,0,1.1347,203.46,1018.3)"
       x2="20.759"
       y2="45.017">
      <stop
         id="stop3311-37"
         style="stop-color:#f6f6f6"
         offset="0" />
      <stop
         id="stop3313-3"
         style="stop-color:#d2d2d2"
         offset="1" />
    </linearGradient>
    <linearGradient
       id="linearGradient6669"
       x1="37.201"
       gradientUnits="userSpaceOnUse"
       y1="1"
       gradientTransform="matrix(1.1347,0,0,1.1347,203.46,1018.3)"
       x2="37.201"
       y2="45">
      <stop
         id="stop3399-2"
         style="stop-color:#aaa"
         offset="0" />
      <stop
         id="stop3401-6"
         style="stop-color:#8c8c8c"
         offset="1" />
    </linearGradient>
    <linearGradient
       id="linearGradient6671"
       x1="86.133"
       gradientUnits="userSpaceOnUse"
       y1="105.1"
       gradientTransform="matrix(.36817 0 0 .36817 207.12 1021.2)"
       x2="84.639"
       y2="20.895">
      <stop
         id="stop5130-5"
         style="stop-color:#e5e5e5"
         offset="0" />
      <stop
         id="stop5132-2"
         style="stop-color:#ababab"
         offset="1" />
    </linearGradient>
    <clipPath
       id="clipPath3009"
       clipPathUnits="userSpaceOnUse">
      <path
         id="path3011"
         style="opacity:.15;fill:#fff"
         d="m-2 956.36h-96v33.562l96 25.687v-59.25z" />
    </clipPath>
  </defs>
  <metadata
     id="metadata11042">
    <rdf:RDF>
      <cc:Work
         rdf:about="">
        <dc:format>image/svg+xml</dc:format>
        <dc:type
           rdf:resource="http://purl.org/dc/dcmitype/StillImage" />
        <dc:title />
      </cc:Work>
    </rdf:RDF>
  </metadata>
  <g
     id="layer1"
     transform="translate(0 -956.36)">
    <rect
       id="rect3867"
       style="fill:url(#linearGradient11642)"
       rx="25"
       ry="25"
       height="92"
       width="92"
       y="958.36"
       x="2" />
    <g
       id="g6661"
       transform="matrix(1.0468 0 0 1.0468 -193.48 -88.844)">
      <path
         id="rect3267"
         d="m227.32 1020c-0.96011 0-1.7375 0.7964-1.7375 1.7729v3.4394c-1.7166 0.4574-3.357 1.1483-4.8577 2.0211l-2.4466-2.4466c-0.34524-0.3453-0.7588-0.5281-1.2056-0.5319-0.44676 0-0.90155 0.157-1.241 0.4964l-4.7869 4.7869c-0.67886 0.6789-0.65502 1.7561 0.0354 2.4466l2.4466 2.4466c-0.87284 1.5008-1.5637 3.1411-2.0211 4.8578h-3.4395c-0.97652 0-1.7729 0.7773-1.7729 1.7374v6.737c0 0.9601 0.79642 1.7375 1.7729 1.7375h3.4395c0.45739 1.7167 1.1482 3.3569 2.0211 4.8577l-2.4466 2.4466c-0.69048 0.6905-0.71432 1.7678-0.0354 2.4466l4.7869 4.7869c0.67886 0.6789 1.7561 0.655 2.4466-0.035l2.4466-2.4467c1.5008 0.8729 3.141 1.5637 4.8577 2.0211v3.4395c0 0.9765 0.77738 1.7728 1.7375 1.7728h6.737c0.96011 0 1.7375-0.7964 1.7375-1.7728v-3.4395c1.7166-0.4574 3.357-1.1482 4.8578-2.0211l2.4466 2.4467c0.69048 0.6904 1.7677 0.7143 2.4466 0.035l4.7869-4.7869c0.67886-0.6788 0.65501-1.756-0.0354-2.4466l-2.4466-2.4466c0.87285-1.5008 1.5637-3.141 2.0211-4.8577h3.4394c0.97643 0 1.7729-0.7774 1.7729-1.7375v-6.737c0-0.9601-0.79643-1.7374-1.7729-1.7374h-3.4394c-0.45597-1.7157-1.147-3.3559-2.0199-4.8569l2.4466-2.4466c0.69047-0.6905 0.71433-1.7677 0.0354-2.4466l-4.7869-4.7869c-0.67887-0.6789-1.7561-0.655-2.4466 0.035l-2.4466 2.4466c-1.5008-0.8729-3.141-1.5637-4.8577-2.0211v-3.4395c0-0.9765-0.77738-1.7728-1.7375-1.7728h-6.737zm3.3685 17.02c4.0712 0 7.3752 3.304 7.3752 7.3752 0 4.0711-3.3041 7.3752-7.3752 7.3752-4.0712 0-7.3752-3.3041-7.3752-7.3752 0-4.0712 3.3041-7.3752 7.3752-7.3752z"
         style="stroke-linejoin:round;stroke:url(#linearGradient6669);stroke-width:.88710;display:block;fill:url(#linearGradient6667)" />
      <path
         id="path28"
         d="m230.69 1029.1c-8.4462 0-15.318 6.8715-15.318 15.318 0 8.4462 6.8715 15.318 15.318 15.318 8.4462 0 15.318-6.8716 15.318-15.318 0-8.4463-6.8716-15.318-15.318-15.318z"
         style="stroke:url(#linearGradient6671);stroke-width:1.7742;fill:none" />
      <path
         id="path3315"
         d="m230.69 1029.6c-8.1336 0-14.751 6.617-14.751 14.751 0 8.1335 6.617 14.751 14.751 14.751 8.1336 0 14.751-6.6169 14.751-14.751 0-8.1336-6.617-14.751-14.751-14.751zm0 6.808c4.3843 0 7.9426 3.5582 7.9426 7.9426 0 4.3843-3.5583 7.9426-7.9426 7.9426s-7.9426-3.5582-7.9426-7.9426c0-4.3843 3.5583-7.9426 7.9426-7.9426z"
         style="opacity:.05" />
    </g>
    <rect
       id="rect3003"
       style="opacity:.15;fill:#fff"
       transform="translate(98 3.8281e-7)"
       clip-path="url(#clipPath3009)"
       rx="25"
       ry="25"
       height="92"
       width="92"
       y="958.36"
       x="-96" />
  </g>
</svg>
