<svg height="96" width="96" xmlns="http://www.w3.org/2000/svg" xmlns:sodipodi="http://sodipodi.sourceforge.net/DTD/sodipodi-0.dtd" xmlns:inkscape="http://www.inkscape.org/namespaces/inkscape">
 <g inkscape:label="Layer 1" inkscape:groupmode="layer" transform="matrix(1 0 0 1 0 -956.36)">
  <rect x="8" rx="10.769" y="964.36" fill="#1a1a1a" fill-opacity="1" stroke="none" height="80" width="80"/>
  <path d="m 33.34147,1025.2249 a 6.17144,6.17144 0 0 1 -12.34288,0 6.17144,6.17144 0 1 1 12.34288,0 z" fill="#37abc8" color="black" fill-opacity="1" inkscape:connector-curvature="0"/>
  <path d="m 61.11295,1025.2249 a 6.17144,6.17144 0 0 1 -12.34288,0 6.17144,6.17144 0 1 1 12.34288,0 z" fill="#37abc8" color="black" fill-opacity="1" inkscape:connector-curvature="0"/>
  <path d="m 47.22721,1011.3391 a 6.17144,6.17144 0 0 1 -12.34288,0 6.17144,6.17144 0 1 1 12.34288,0 z" fill="#37abc8" color="black" fill-opacity="1" inkscape:connector-curvature="0"/>
  <path d="m 61.11295,997.45338 a 6.17144,6.17144 0 0 1 -12.34288,0 6.17144,6.17144 0 1 1 12.34288,0 z" fill="#37abc8" color="black" fill-opacity="1" inkscape:connector-curvature="0"/>
  <path d="m 74.99869,983.56764 a 6.17144,6.17144 0 0 1 -12.34288,0 6.17144,6.17144 0 1 1 12.34288,0 z" fill="#37abc8" color="black" inkscape:connector-curvature="0"/>
  <path d="m 74.99869,1025.2249 a 6.17144,6.17144 0 0 1 -12.34288,0 6.17144,6.17144 0 1 1 12.34288,0 z" fill="#71c837" color="black" fill-opacity="1" inkscape:connector-curvature="0"/>
  <path d="m 47.22721,997.45338 a 6.17144,6.17144 0 0 1 -12.34288,0 6.17144,6.17144 0 1 1 12.34288,0 z" fill="#71c837" color="black" fill-opacity="1" inkscape:connector-curvature="0"/>
  <path d="m 33.34147,983.56764 a 6.17144,6.17144 0 0 1 -12.34288,0 6.17144,6.17144 0 1 1 12.34288,0 z" fill="#71c837" color="black" inkscape:connector-curvature="0"/>
  <path d="m 74.99869,1011.3391 a 6.17144,6.17144 0 0 1 -12.34288,0 6.17144,6.17144 0 1 1 12.34288,0 z" fill="#ff2a2a" color="black" fill-opacity="1" inkscape:connector-curvature="0"/>
  <path d="m 47.22721,983.56764 a 6.17144,6.17144 0 0 1 -12.34288,0 6.17144,6.17144 0 1 1 12.34288,0 z" fill="#ff2a2a" color="black" inkscape:connector-curvature="0"/>
 </g>
</svg>
