<svg height="96" width="96" xmlns="http://www.w3.org/2000/svg" xmlns:xlink="http://www.w3.org/1999/xlink" xmlns:sodipodi="http://sodipodi.sourceforge.net/DTD/sodipodi-0.dtd" xmlns:inkscape="http://www.inkscape.org/namespaces/inkscape">
 <defs>
  <linearGradient x2="0" y1="962.62" y2="1046.1" gradientUnits="userSpaceOnUse" id="linearGradient11642" inkscape:collect="always" gradientTransform="matrix(1.15 0 0 1.15 -7.2 -150.65)">
   <stop stop-color="#2f2f2f"/>
   <stop stop-color="#4f4f4f" offset="1"/>
  </linearGradient>
  <radialGradient cy="26" r="16" gradientUnits="userSpaceOnUse" id="radialGradient3035" cx="32" inkscape:collect="always" gradientTransform="matrix(1.1875 0 0 -1.125 -8 65.25)">
   <stop stop-color="#5db1eb"/>
   <stop stop-color="#3ca0e6" offset="0.719"/>
   <stop stop-color="#1b90e2" offset="1"/>
  </radialGradient>
  <linearGradient x1="61" x2="67.3" xlink:href="#linearGradient3781-0" y1="15" y2="38.502" gradientUnits="userSpaceOnUse" id="linearGradient3037" inkscape:collect="always" gradientTransform="matrix(1 0 0 1 -36 0)"/>
  <linearGradient id="linearGradient3781-0">
   <stop stop-color="#fff"/>
   <stop stop-color="#fff" stop-opacity="0" offset="1"/>
  </linearGradient>
  <radialGradient cy="40" r="16" gradientUnits="userSpaceOnUse" id="radialGradient3039" cx="32" inkscape:collect="always" gradientTransform="matrix(1.1875 0 0 1.125 -6 -5)">
   <stop stop-color="#f14848"/>
   <stop stop-color="#e42323" offset="0.672"/>
   <stop stop-color="#c21313" offset="1"/>
  </radialGradient>
  <linearGradient x1="61" x2="67.3" xlink:href="#linearGradient3781-0" y1="15" y2="38.502" gradientUnits="userSpaceOnUse" id="linearGradient3041" inkscape:collect="always"/>
  <clipPath clipPathUnits="userSpaceOnUse" id="clipPath3009">
   <path d="m -2,956.36218 -96,0 0,33.5624 96,25.68742 0,-59.24982 z" inkscape:connector-curvature="0"/>
  </clipPath>
  <path d="m 48,32 a 16,16 0 1 1 -32,0 16,16 0 1 1 32,0 z" fill="url(#radialGradient3039)" color="#000000" id="SVGCleanerId_0"/>
  <path d="m 66,15 c -8.2843,0 -15,6.7157 -15,15 0,3.6087 1.283,6.912 3.4062,9.5 -1.525,-2.296 -2.406,-5.038 -2.406,-8 0,-8.008 6.492,-14.5 14.5,-14.5 7.753,0 14.073,6.096 14.469,13.75 0.012,-0.251 0.031,-0.496 0.031,-0.75 0,-8.284 -6.716,-15 -15,-15 z" fill="url(#linearGradient3041)" color="#000000" id="SVGCleanerId_1" opacity="0.3"/>
  <path d="m 66,14 c -8.8366,0 -16,7.1634 -16,16 0,8.8366 7.1634,16 16,16 8.8366,0 16,-7.1634 16,-16 0,-8.8366 -7.1634,-16 -16,-16 z m 0,0.96875 c 8.3201,0 15.031,6.7111 15.031,15.031 0,8.3201 -6.7111,15.031 -15.031,15.031 -8.3201,0 -15.031,-6.7111 -15.031,-15.031 0,-8.3201 6.7111,-15.031 15.031,-15.031 z" color="#000000" id="SVGCleanerId_2" opacity="0.2"/>
 </defs>
 <g inkscape:label="Layer 1" inkscape:groupmode="layer" transform="matrix(1 0 0 1 0 -956.36)">
  <rect x="2" rx="25" y="958.36" fill="url(#linearGradient11642)" fill-opacity="1" height="92" width="92"/>
  <g transform="matrix(0.79412 0 0 0.79412 9.88 966.3)">
   <path d="m 46,30 a 16,16 0 1 0 -32,0 16,16 0 0 0 32,0 z" fill="url(#radialGradient3035)" color="#000000" inkscape:connector-curvature="0"/>
   <path d="m 30,15 c -8.2843,0 -15,6.7157 -15,15 0,3.6087 1.283,6.912 3.4062,9.5 -1.525,-2.296 -2.406,-5.038 -2.406,-8 0,-8.008 6.492,-14.5 14.5,-14.5 7.753,0 14.073,6.096 14.469,13.75 0.012,-0.251 0.031,-0.496 0.031,-0.75 0,-8.284 -6.716,-15 -15,-15 z" fill="url(#linearGradient3037)" color="#000000" opacity="0.4" inkscape:connector-curvature="0"/>
   <path d="m 30,14 c -8.8366,0 -16,7.1634 -16,16 0,8.8366 7.1634,16 16,16 8.8366,0 16,-7.1634 16,-16 0,-8.8366 -7.1634,-16 -16,-16 z m 0,0.96875 c 8.3201,0 15.031,6.7111 15.031,15.031 0,8.3201 -6.7111,15.031 -15.031,15.031 -8.3201,0 -15.031,-6.7111 -15.031,-15.031 0,-8.3201 6.7111,-15.031 15.031,-15.031 z" color="#000000" opacity="0.2" inkscape:connector-curvature="0"/>
   <use xlink:href="#SVGCleanerId_0" inkscape:connector-curvature="0" transform="matrix(1 0 0 1 34 -2)"/>
   <use xlink:href="#SVGCleanerId_1" inkscape:connector-curvature="0"/>
   <use xlink:href="#SVGCleanerId_2" inkscape:connector-curvature="0"/>
   <g transform="matrix(1 0 0 1 0 36)">
    <use xlink:href="#SVGCleanerId_0" inkscape:connector-curvature="0" transform="matrix(1 0 0 1 34 -2)"/>
    <use xlink:href="#SVGCleanerId_1" inkscape:connector-curvature="0"/>
    <use xlink:href="#SVGCleanerId_2" inkscape:connector-curvature="0"/>
   </g>
   <g transform="matrix(1 0 0 1 -36 36)">
    <use xlink:href="#SVGCleanerId_0" inkscape:connector-curvature="0" transform="matrix(1 0 0 1 34 -2)"/>
    <use xlink:href="#SVGCleanerId_1" inkscape:connector-curvature="0"/>
    <use xlink:href="#SVGCleanerId_2" inkscape:connector-curvature="0"/>
   </g>
  </g>
  <rect x="-96" rx="25" y="958.36" clip-path="url(#clipPath3009)" fill="#ffffff" fill-opacity="1" height="92" opacity="0.15" width="92" transform="matrix(1 0 0 1 98 0)"/>
 </g>
</svg>
