<svg height="96" width="96" xmlns="http://www.w3.org/2000/svg" xmlns:sodipodi="http://sodipodi.sourceforge.net/DTD/sodipodi-0.dtd" xmlns:inkscape="http://www.inkscape.org/namespaces/inkscape">
 <defs>
  <linearGradient x2="0" y1="962.62" y2="1046.1" gradientUnits="userSpaceOnUse" id="linearGradient11642" gradientTransform="matrix(1.15 0 0 1.15 -7.2 -150.65)">
   <stop stop-color="#5c8947"/>
   <stop stop-color="#99c376" offset="1"/>
  </linearGradient>
  <radialGradient cy="40.3" r="26.876" gradientUnits="userSpaceOnUse" id="radialGradient3112" cx="40" gradientTransform="matrix(1 0 0 1.0391 0 -1.877)">
   <stop stop-color="#f4d7d7"/>
   <stop stop-color="#e9afaf" offset="1"/>
  </radialGradient>
  <linearGradient x1="0.861" x2="45.03" y1="4.936" y2="25.572" gradientUnits="userSpaceOnUse" id="linearGradient3109" gradientTransform="matrix(1.2484 0 0 1.2484 23.345 15.967)">
   <stop stop-color="#eeeeec"/>
   <stop stop-color="#eeeeec" stop-opacity="0" offset="1"/>
  </linearGradient>
  <linearGradient x1="222.59" x2="337.49" y1="499.12" y2="473.96" gradientUnits="userSpaceOnUse" id="linearGradient3103" gradientTransform="matrix(0.14716 0 0 0.14716 -0.098 -26.678)">
   <stop stop-color="#d0d0d0"/>
   <stop stop-color="#fff" offset="0.4"/>
   <stop stop-color="#fff" offset="0.7"/>
   <stop stop-color="#d0d0d0" offset="1"/>
  </linearGradient>
  <linearGradient x1="301.56" x2="308.31" y1="483.01" y2="497.39" gradientUnits="userSpaceOnUse" id="linearGradient3096" gradientTransform="matrix(0.14716 0 0 0.14716 -0.098 -26.678)">
   <stop stop-color="#d0d0d0"/>
   <stop stop-color="#b0b0b0" stop-opacity="0" offset="1"/>
  </linearGradient>
  <clipPath clipPathUnits="userSpaceOnUse" id="clipPath3009">
   <path d="m-2 956.36h-96v33.562l96 25.687v-59.25z"/>
  </clipPath>
 </defs>
 <g transform="matrix(1 0 0 1 0 -956.36)">
  <rect x="2" rx="25" y="958.36" fill="url(#linearGradient11642)" height="92" width="92"/>
  <g transform="matrix(0.93021 0 0 0.93021 -2.23 959.7)">
   <path d="m27.705 35.332c0.8848 11.89 11.546 40.163 18.112 40.031 6.4696 1.0129 9.5041-10.129 14.256-15.193 1.6484-0.98863 5.0086 14.077 14.457 14.077 2.8734 0.20484 5.7468-0.77935 5.8457-3.3489 0.0398-4.0119-7.6043-1.2087-10.681-12.168-2.343-8.344-6.163-12.384-8.898-12.301-4.249 1.544-9.555 13.525-11.822 15.069-7.707-6.785 6.121-18.193 3.831-28.676-1.761-21.359-26.775-11.01-25.101 2.51z" stroke-width="1" fill="url(#radialGradient3112)" stroke="#d87070" fill-rule="evenodd"/>
   <path d="m29.026 35.2c0.8848 11.89 11.678 38.709 16.791 38.709 6.4696 1.0129 8.9757-12.507 14.256-15.193 3.3659-1.385 4.8765 14.077 14.325 14.077 2.8734 0.20484 4.5577-0.11879 4.5246-1.7635 0.436-2.559-6.816-1.371-10.417-12.169-2.739-8.211-4.974-11.062-7.709-10.978-4.249 1.543-7.837 12.731-11.822 15.332-10.481-8.898 4.8-19.778 2.51-30.261-1.101-18.584-23.208-11.142-22.459 2.246z" stroke-width="1" fill="none" stroke="url(#linearGradient3109)"/>
   <path d="m50.726 36.978c-0.53253 0.23187-1.0643 0.63229-1.5572 0.9383-4.14 2.5706-10.999 5.7134-16.036 7.2799-0.50573 0.15728-0.56933 0.65836-0.49207 0.99794 0.27662 1.2159 1.2041 2.797 2.4328 4.1021 1.2286 1.3051 3.0417 2.308 5.5783 2.3362 1.107 0.01236 2.1932-0.5356 3.2559-1.3704 1.0628-0.83484 2.105-1.9879 3.0398-3.3295 1.8696-2.6834 3.3149-5.909 3.3571-9.3907 0.0056-0.46374 0.26735-1.1234 0.42125-1.5637zm-2.017 2.9526c-0.35719 2.4576-1.515 5.0774-2.9662 7.1603-0.86582 1.2427-1.8293 2.2962-2.7409 3.0122-0.91155 0.71603-1.7693 1.064-2.3362 1.0577-2.1732-0.02417-3.5141-0.80256-4.5206-1.8717-0.80588-0.85606-1.3385-1.9071-1.7935-2.9156 4.7725-1.3786 10.344-4.0224 14.357-6.4429z" fill="#571e00" fill-opacity="0.322"/>
   <path d="m38.234 26.571c-2.1581 0.0726-4.1621 0.45864-5.5984 1.0002-0.89372 1.2402-1.6512 2.7528-2.0564 4.6251-0.7372-2.4404-0.56994-4.7638 0.57493-6.8082 2.5969-0.53596 5.4265 0.22316 7.0799 1.1829z"/>
   <path d="m47.82 25.639c-1.8215-1.1597-3.693-1.9737-5.184-2.3385-1.4382 0.51813-2.9179 1.338-4.3103 2.6536 0.77092-2.43 2.2219-4.2523 4.3217-5.2919 2.4453 1.0254 4.3508 3.2507 5.1726 4.9768z"/>
   <path d="m33.32 45.909c5.3166-1.392 12.072-4.6809 16.246-7.3737-0.06164 6.0867-5.5593 13.399-8.9072 13.362-4.7098-0.05239-6.3111-3.561-7.3392-5.9885z" fill="url(#linearGradient3103)"/>
   <path d="m39.358 36.133c0.44992-5.6804-2.242 3.3863-4.1279 5.8885-1.3254-0.05624-3.1193-2.7392-3.1193-5.8885s1.6234-5.7053 3.6236-5.7053 3.6236 2.556 3.6236 5.7053z" fill="#571e00" fill-opacity="0.322"/>
   <path d="m46.47 32.664c0 2.9365-1.7616 5.3198-3.932 5.3198-2.1705 0-3.932-2.3833-3.932-5.3198s1.7616-5.3198 3.932-5.3198c2.1705 0 3.932 2.3833 3.932 5.3198z" fill="#571e00" fill-opacity="0.322"/>
   <path d="m42.89 27.689c-1.9058 0.19359-3.4047 2.7361-3.6468 5.9278-0.80554-1.7291-2.0201-2.8213-3.2605-2.6903-1.9035 0.20103-3.1377 3.1802-2.7547 6.6499 0.22193 2.0102 0.94705 3.7257 1.8809 4.7919 1.327-1.0716 3.0097-1.9896 4.9391-2.6581 0.0384-0.23796 0.07539-0.47981 0.09658-0.73121 0.10356 0.21697 0.23234 0.39032 0.34951 0.58405 0.89345-0.28601 1.8303-0.52482 2.8099-0.69442 1.049-0.18162 2.0768-0.27122 3.0766-0.29432 0.49544-1.2368 0.77496-2.7516 0.71281-4.3827-0.14515-3.8095-2.0303-6.7234-4.2033-6.5027z" fill="#fff"/>
   <path d="m43.789 34.521a0.9482 1.8286 0 0 1 -1.8964 0 0.9482 1.8286 0 1 1 1.8964 0z"/>
   <path d="m49.058 41.817c-0.97775 1.4015-3.0314 2.4677-6.4521 4.1251 3.9009-0.90212 3.8253-0.02891 3.9504 1.2739 0.85304-1.2937 1.9745-3.3183 2.5017-5.399zm-8.218 4.8655c-3.6183 1.1645-5.2103 1.4354-6.7234 0.94275 0.77283 1.6066 2.0151 2.9413 3.4261 3.5963-0.59196-1.3156-0.58971-2.5068 3.2973-4.539z" fill="url(#linearGradient3096)"/>
   <path d="m37.725 36.08a0.9482 1.8286 0 0 1 -1.8964 0 0.9482 1.8286 0 1 1 1.8964 0z"/>
   <path d="m60.594 56.156c-0.184-0.001-0.392 0.029-0.594 0.063-4.99 1.348-8.069 14.031-12.25 14.031-7.591 0.945-12.812-10.938-12.812-10.938l-0.375 0.40625c3.6074 8.5952 7.9508 15.723 11.25 15.656 6.4696 1.0129 9.4979-10.154 14.25-15.219 1.6484-0.98863 5.0199 14.094 14.469 14.094 2.6121 0.18621 5.2222-0.61077 5.75-2.6875l-0.72-2.406c-16.07 3.1356-13.273-12.971-18.969-13z" fill="#d35f5f" opacity="0.15"/>
   <path d="m60.594 58.156c-0.184-0.001-0.392 0.029-0.594 0.063-4.99 1.348-8.069 14.031-12.25 14.031-4.6911 0.5839-8.4793-3.7118-10.688-7.0938 2.9877 5.9472 6.1853 10.27 8.75 10.219 6.4696 1.0129 9.4979-10.154 14.25-15.219 1.6484-0.98863 5.0199 14.094 14.469 14.094 2.2427 0.15988 4.4827-0.3977 5.4062-1.875l-0.375-1.2188c-16.07 3.1356-13.273-12.971-18.969-13z" fill="#d35f5f" opacity="0.3"/>
  </g>
  <rect x="-96" rx="25" y="958.36" clip-path="url(#clipPath3009)" fill="#fff" height="92" opacity="0.15" width="92" transform="matrix(1 0 0 1 98 0)"/>
 </g>
</svg>
