<svg height="96" width="96" xmlns="http://www.w3.org/2000/svg" xmlns:xlink="http://www.w3.org/1999/xlink" xmlns:sodipodi="http://sodipodi.sourceforge.net/DTD/sodipodi-0.dtd" xmlns:inkscape="http://www.inkscape.org/namespaces/inkscape">
 <defs>
  <linearGradient x2="0" y1="962.62" y2="1046.1" gradientUnits="userSpaceOnUse" id="linearGradient11642" inkscape:collect="always" gradientTransform="matrix(1.15 0 0 1.15 -7.2 -150.65)">
   <stop stop-color="#2f2f2f"/>
   <stop stop-color="#4f4f4f" offset="1"/>
  </linearGradient>
  <linearGradient x1="-78" x2="-66" y1="30" y2="18" gradientUnits="userSpaceOnUse" id="linearGradient3187" inkscape:collect="always">
   <stop stop-color="#f5ab00"/>
   <stop stop-color="#dd6700" offset="1"/>
  </linearGradient>
  <linearGradient x1="18" x2="30" xlink:href="#linearGradient4949" y1="66" y2="78" gradientUnits="userSpaceOnUse" id="linearGradient3189" inkscape:collect="always"/>
  <linearGradient id="linearGradient4949">
   <stop stop-color="#fff" stop-opacity="0.736"/>
   <stop stop-color="#7f7f7f" stop-opacity="0" offset="0.5"/>
   <stop offset="1"/>
  </linearGradient>
  <linearGradient x1="-78" x2="-66" y1="66" y2="54" gradientUnits="userSpaceOnUse" id="linearGradient3191" inkscape:collect="always">
   <stop stop-color="#1cbedd"/>
   <stop stop-color="#117089" offset="1"/>
  </linearGradient>
  <linearGradient x1="54" x2="66" xlink:href="#linearGradient4949" y1="66" y2="78" gradientUnits="userSpaceOnUse" id="linearGradient3193" inkscape:collect="always"/>
  <linearGradient x1="-30" x2="-18" y1="57" y2="45" gradientUnits="userSpaceOnUse" id="linearGradient3195" inkscape:collect="always">
   <stop stop-color="#ff355f"/>
   <stop stop-color="#f10022" offset="1"/>
  </linearGradient>
  <linearGradient x1="45" x2="57" xlink:href="#linearGradient4949" y1="18" y2="30" gradientUnits="userSpaceOnUse" id="linearGradient3197" inkscape:collect="always"/>
  <clipPath clipPathUnits="userSpaceOnUse" id="clipPath3009">
   <path d="m -2,956.36218 -96,0 0,33.5624 96,25.68742 0,-59.24982 z" inkscape:connector-curvature="0"/>
  </clipPath>
  <rect x="-78" rx="2" y="18" fill="url(#linearGradient3187)" color="#000000" height="12" id="SVGCleanerId_0" width="12"/>
  <path d="m 20,66 c -1.108,0 -2,0.892 -2,2 v 8 c 0,1.108 0.892,2 2,2 h 8 c 1.108,0 2,-0.892 2,-2 v -8 c 0,-1.108 -0.892,-2 -2,-2 h -8 z m 0,1 h 8 c 0.57508,0 1,0.42492 1,1 v 8 c 0,0.57508 -0.42492,1 -1,1 h -8 c -0.57508,0 -1,-0.42492 -1,-1 v -8 c 0,-0.57508 0.42492,-1 1,-1 z" fill="url(#linearGradient3189)" color="#000000" id="SVGCleanerId_1" opacity="0.5"/>
  <rect x="-78" rx="2" y="54" fill="url(#linearGradient3191)" color="#000000" height="12" id="SVGCleanerId_2" width="12"/>
  <path d="m 56,66 c -1.108,0 -2,0.892 -2,2 v 8 c 0,1.108 0.892,2 2,2 h 8 c 1.108,0 2,-0.892 2,-2 v -8 c 0,-1.108 -0.892,-2 -2,-2 h -8 z m 0,1 h 8 c 0.57508,0 1,0.42492 1,1 v 8 c 0,0.57508 -0.42492,1 -1,1 h -8 c -0.57508,0 -1,-0.42492 -1,-1 v -8 c 0,-0.57508 0.42492,-1 1,-1 z" fill="url(#linearGradient3193)" color="#000000" id="SVGCleanerId_3" opacity="0.5"/>
  <rect x="-30" rx="2" y="45" fill="url(#linearGradient3195)" color="#000000" height="12" id="SVGCleanerId_4" width="12"/>
  <path d="m 47,18 c -1.108,0 -2,0.892 -2,2 v 8 c 0,1.108 0.892,2 2,2 h 8 c 1.108,0 2,-0.892 2,-2 v -8 c 0,-1.108 -0.892,-2 -2,-2 h -8 z m 0,1 h 8 c 0.57508,0 1,0.42492 1,1 v 8 c 0,0.57508 -0.42492,1 -1,1 h -8 c -0.57508,0 -1,-0.42492 -1,-1 v -8 c 0,-0.57508 0.42492,-1 1,-1 z" fill="url(#linearGradient3197)" color="#000000" id="SVGCleanerId_5" opacity="0.6"/>
 </defs>
 <g inkscape:label="Layer 1" inkscape:groupmode="layer" transform="matrix(1 0 0 1 0 -956.36)">
  <rect x="2" rx="25" y="958.36" fill="url(#linearGradient11642)" fill-opacity="1" height="92" width="92"/>
  <g transform="matrix(0.9 0 0 0.9 4.8 961.2)">
   <use xlink:href="#SVGCleanerId_0" transform="matrix(0 -1 1 0 0 0)"/>
   <use xlink:href="#SVGCleanerId_1" inkscape:connector-curvature="0"/>
   <use xlink:href="#SVGCleanerId_2" transform="matrix(0 -1 1 0 0 0)"/>
   <use xlink:href="#SVGCleanerId_3" inkscape:connector-curvature="0"/>
   <g transform="matrix(1 0 0 1 -3 0)">
    <use xlink:href="#SVGCleanerId_4" transform="matrix(0 -1 1 0 0 0)"/>
    <use xlink:href="#SVGCleanerId_5" inkscape:connector-curvature="0"/>
   </g>
   <g transform="matrix(1 0 0 1 9 0)">
    <use xlink:href="#SVGCleanerId_4" transform="matrix(0 -1 1 0 0 0)"/>
    <use xlink:href="#SVGCleanerId_5" inkscape:connector-curvature="0"/>
   </g>
   <g transform="matrix(1 0 0 1 21 0)">
    <use xlink:href="#SVGCleanerId_4" transform="matrix(0 -1 1 0 0 0)"/>
    <use xlink:href="#SVGCleanerId_5" inkscape:connector-curvature="0"/>
   </g>
   <g transform="matrix(1 0 0 1 21 12)">
    <use xlink:href="#SVGCleanerId_4" transform="matrix(0 -1 1 0 0 0)"/>
    <use xlink:href="#SVGCleanerId_5" inkscape:connector-curvature="0"/>
   </g>
   <g transform="matrix(1 0 0 1 0 -12)">
    <use xlink:href="#SVGCleanerId_2" transform="matrix(0 -1 1 0 0 0)"/>
    <use xlink:href="#SVGCleanerId_3" inkscape:connector-curvature="0"/>
   </g>
   <g transform="matrix(1 0 0 1 -12 -12)">
    <use xlink:href="#SVGCleanerId_2" transform="matrix(0 -1 1 0 0 0)"/>
    <use xlink:href="#SVGCleanerId_3" inkscape:connector-curvature="0"/>
   </g>
   <g transform="matrix(1 0 0 1 -12 -24)">
    <use xlink:href="#SVGCleanerId_2" transform="matrix(0 -1 1 0 0 0)"/>
    <use xlink:href="#SVGCleanerId_3" inkscape:connector-curvature="0"/>
   </g>
   <g transform="matrix(1 0 0 1 12 0)">
    <use xlink:href="#SVGCleanerId_0" transform="matrix(0 -1 1 0 0 0)"/>
    <use xlink:href="#SVGCleanerId_1" inkscape:connector-curvature="0"/>
   </g>
   <g transform="matrix(1 0 0 1 24 0)">
    <use xlink:href="#SVGCleanerId_0" transform="matrix(0 -1 1 0 0 0)"/>
    <use xlink:href="#SVGCleanerId_1" inkscape:connector-curvature="0"/>
   </g>
   <g transform="matrix(1 0 0 1 12 -12)">
    <use xlink:href="#SVGCleanerId_0" transform="matrix(0 -1 1 0 0 0)"/>
    <use xlink:href="#SVGCleanerId_1" inkscape:connector-curvature="0"/>
   </g>
  </g>
  <rect x="-96" rx="25" y="958.36" clip-path="url(#clipPath3009)" fill="#ffffff" fill-opacity="1" height="92" opacity="0.15" width="92" transform="matrix(1 0 0 1 98 0)"/>
 </g>
</svg>
