<svg height="96" width="96" xmlns="http://www.w3.org/2000/svg" xmlns:sodipodi="http://sodipodi.sourceforge.net/DTD/sodipodi-0.dtd" xmlns:inkscape="http://www.inkscape.org/namespaces/inkscape">
 <g inkscape:label="Layer 1" inkscape:groupmode="layer" transform="matrix(1 0 0 1 0 -956.36)">
  <rect x="8" rx="10.769" y="964.36" fill="#e6e6e6" fill-opacity="1" stroke="none" height="80" width="80"/>
  <path d="m 73,1004.3621 c 0,-1.7312 -1.393758,-3.1249 -3.125008,-3.1249 l -7.8125,0 c -1.731242,0 -3.124992,1.3937 -3.124992,3.1249 0,1.7313 1.39375,3.1251 3.124992,3.1251 l 7.8125,0 c 1.73125,0 3.125008,-1.3938 3.125008,-3.1251 z m -6.396483,-15.4784 c 0,-0.79883 -0.31565,-1.58516 -0.927742,-2.19725 -1.224175,-1.22418 -3.194767,-1.22418 -4.418942,0 l -5.517578,5.51759 c -1.224177,1.22417 -1.224177,3.19479 0,4.41889 1.224177,1.2242 3.19477,1.2242 4.418945,0 l 5.517575,-5.51756 c 0.612092,-0.61208 0.927742,-1.42283 0.927742,-2.22167 z m 0,30.9569 c 0,-0.7987 -0.31565,-1.6096 -0.927742,-2.2216 l -5.517575,-5.5176 c -1.224175,-1.2242 -3.194768,-1.2242 -4.418945,0 -1.224177,1.2242 -1.224177,3.1948 0,4.419 l 5.517578,5.5175 c 1.224175,1.2242 3.194767,1.2242 4.418942,0 0.612092,-0.612 0.927742,-1.3985 0.927742,-2.1973 z m -15.47852,-37.35337 c 0,-1.73125 -1.393746,-3.12499 -3.124997,-3.12499 -1.731252,0 -3.124997,1.39374 -3.124997,3.12499 l 0,7.81247 c 0,1.73125 1.393745,3.125 3.124997,3.125 1.731252,0 3.124997,-1.39375 3.124997,-3.125 l 0,-7.81247 z m 0,35.93737 c 0,-1.7312 -1.393746,-3.1249 -3.124997,-3.1249 -1.731252,0 -3.124997,1.3937 -3.124997,3.1249 l 0,7.8125 c 0,1.7312 1.393745,3.125 3.124997,3.125 1.731252,0 3.124997,-1.3938 3.124997,-3.125 l 0,-7.8125 z m -9.936523,-23.9989 c 0,-0.79883 -0.315641,-1.60958 -0.927731,-2.22166 l -5.517578,-5.51759 c -1.224184,-1.22418 -3.194768,-1.22418 -4.418945,0 -1.224184,1.22417 -1.224184,3.19475 0,4.41892 l 5.517572,5.51756 c 1.224184,1.2242 3.194767,1.2242 4.418951,0 0.61209,-0.61211 0.927731,-1.39841 0.927731,-2.19723 z m 0,19.873 c 0,-0.7989 -0.315641,-1.5853 -0.927731,-2.1973 -1.224184,-1.2242 -3.194767,-1.2242 -4.418951,0 l -5.517572,5.5176 c -1.224184,1.2241 -1.224184,3.1948 0,4.4189 1.224177,1.2242 3.194761,1.2242 4.418945,0 l 5.517578,-5.5175 c 0.61209,-0.6121 0.927731,-1.423 0.927731,-2.2217 z m -4.125979,-9.9366 c 0,-1.7312 -1.393747,-3.1249 -3.124997,-3.1249 l -7.812498,0 c -1.731252,0 -3.125,1.3937 -3.125,3.1249 0,1.7313 1.393748,3.1251 3.125,3.1251 l 7.812498,0 c 1.73125,0 3.124997,-1.3938 3.124997,-3.1251 z" stroke-width="2" display="inline" fill="#4d4d4d" color="black" fill-opacity="1" fill-rule="nonzero" stroke="none" visibility="visible" inkscape:connector-curvature="0"/>
 </g>
</svg>
