<svg height="96" width="96" xmlns="http://www.w3.org/2000/svg" xmlns:sodipodi="http://sodipodi.sourceforge.net/DTD/sodipodi-0.dtd" xmlns:inkscape="http://www.inkscape.org/namespaces/inkscape">
 <defs>
  <linearGradient x2="0" y1="962.62" y2="1046.1" gradientUnits="userSpaceOnUse" id="linearGradient11642" gradientTransform="matrix(1.15 0 0 1.15 -7.2 -150.65)">
   <stop stop-color="#623b6b"/>
   <stop stop-color="#ad7fa8" offset="1"/>
  </linearGradient>
  <linearGradient x2="0" y1="1" y2="45.02" gradientUnits="userSpaceOnUse" id="linearGradient6667" gradientTransform="matrix(1.1347 0 0 1.1347 203.46 1018.3)">
   <stop stop-color="#f6f6f6"/>
   <stop stop-color="#d2d2d2" offset="1"/>
  </linearGradient>
  <linearGradient x2="0" y1="1" y2="45" gradientUnits="userSpaceOnUse" id="linearGradient6669" gradientTransform="matrix(1.1347 0 0 1.1347 203.46 1018.3)">
   <stop stop-color="#aaa"/>
   <stop stop-color="#8c8c8c" offset="1"/>
  </linearGradient>
  <linearGradient x1="86.13" x2="84.64" y1="105.1" y2="20.895" gradientUnits="userSpaceOnUse" id="linearGradient6671" gradientTransform="matrix(0.36817 0 0 0.36817 207.12 1021.2)">
   <stop stop-color="#e5e5e5"/>
   <stop stop-color="#ababab" offset="1"/>
  </linearGradient>
  <clipPath clipPathUnits="userSpaceOnUse" id="clipPath3009">
   <path d="m-2 956.36h-96v33.562l96 25.687v-59.25z"/>
  </clipPath>
 </defs>
 <g transform="matrix(1 0 0 1 0 -956.36)">
  <rect x="2" rx="25" y="958.36" fill="url(#linearGradient11642)" height="92" width="92"/>
  <g transform="matrix(1.0468 0 0 1.0468 -193.48 -88.84)">
   <path d="m227.32 1020c-0.96011 0-1.7375 0.7964-1.7375 1.7729v3.4394c-1.7166 0.4574-3.357 1.1483-4.8577 2.0211l-2.4466-2.4466c-0.34524-0.3453-0.7588-0.5281-1.2056-0.5319-0.44676 0-0.90155 0.157-1.241 0.4964l-4.7869 4.7869c-0.67886 0.6789-0.65502 1.7561 0.0354 2.4466l2.4466 2.4466c-0.87284 1.5008-1.5637 3.1411-2.0211 4.8578h-3.4395c-0.97652 0-1.7729 0.7773-1.7729 1.7374v6.737c0 0.9601 0.79642 1.7375 1.7729 1.7375h3.4395c0.45739 1.7167 1.1482 3.3569 2.0211 4.8577l-2.4466 2.4466c-0.69048 0.6905-0.71432 1.7678-0.0354 2.4466l4.7869 4.7869c0.67886 0.6789 1.7561 0.655 2.4466-0.035l2.4466-2.4467c1.5008 0.8729 3.141 1.5637 4.8577 2.0211v3.4395c0 0.9765 0.77738 1.7728 1.7375 1.7728h6.737c0.96011 0 1.7375-0.7964 1.7375-1.7728v-3.4395c1.7166-0.4574 3.357-1.1482 4.8578-2.0211l2.4466 2.4467c0.69048 0.6904 1.7677 0.7143 2.4466 0.035l4.7869-4.7869c0.67886-0.6788 0.65501-1.756-0.0354-2.4466l-2.4466-2.4466c0.87285-1.5008 1.5637-3.141 2.0211-4.8577h3.4394c0.97643 0 1.7729-0.7774 1.7729-1.7375v-6.737c0-0.9601-0.79643-1.7374-1.7729-1.7374h-3.4394c-0.45597-1.7157-1.147-3.3559-2.0199-4.8569l2.4466-2.4466c0.69047-0.6905 0.71433-1.7677 0.0354-2.4466l-4.7869-4.7869c-0.67887-0.6789-1.7561-0.655-2.4466 0.035l-2.4466 2.4466c-1.5008-0.8729-3.141-1.5637-4.8577-2.0211v-3.4395c0-0.9765-0.77738-1.7728-1.7375-1.7728h-6.737zm3.3685 17.02c4.0712 0 7.3752 3.304 7.3752 7.3752 0 4.0711-3.3041 7.3752-7.3752 7.3752-4.0712 0-7.3752-3.3041-7.3752-7.3752 0-4.0712 3.3041-7.3752 7.3752-7.3752z" stroke-width="0.887" display="block" fill="url(#linearGradient6667)" stroke="url(#linearGradient6669)" stroke-linejoin="round"/>
   <path d="m230.69 1029.1c-8.4462 0-15.318 6.8715-15.318 15.318 0 8.4462 6.8715 15.318 15.318 15.318 8.4462 0 15.318-6.8716 15.318-15.318 0-8.4463-6.8716-15.318-15.318-15.318z" stroke-width="1.774" fill="none" stroke="url(#linearGradient6671)"/>
   <path d="m230.69 1029.6c-8.1336 0-14.751 6.617-14.751 14.751 0 8.1335 6.617 14.751 14.751 14.751 8.1336 0 14.751-6.6169 14.751-14.751 0-8.1336-6.617-14.751-14.751-14.751zm0 6.808c4.3843 0 7.9426 3.5582 7.9426 7.9426 0 4.3843-3.5583 7.9426-7.9426 7.9426s-7.9426-3.5582-7.9426-7.9426c0-4.3843 3.5583-7.9426 7.9426-7.9426z" opacity="0.05"/>
  </g>
  <rect x="-96" rx="25" y="958.36" clip-path="url(#clipPath3009)" fill="#fff" height="92" opacity="0.15" width="92" transform="matrix(1 0 0 1 98 0)"/>
 </g>
</svg>
