<svg height="96" width="96" xmlns="http://www.w3.org/2000/svg" xmlns:xlink="http://www.w3.org/1999/xlink" xmlns:sodipodi="http://sodipodi.sourceforge.net/DTD/sodipodi-0.dtd" xmlns:inkscape="http://www.inkscape.org/namespaces/inkscape">
 <defs>
  <linearGradient x2="0" y1="962.62" y2="1046.1" gradientUnits="userSpaceOnUse" id="linearGradient11642" gradientTransform="matrix(1.15 0 0 1.15 -7.2 -150.65)">
   <stop stop-color="#2a2a2a"/>
   <stop stop-color="#4b4b4b" offset="1"/>
  </linearGradient>
  <linearGradient x2="0" xlink:href="#linearGradient3769" y1="90" y2="48" gradientUnits="userSpaceOnUse" id="linearGradient3814"/>
  <linearGradient id="linearGradient3769">
   <stop stop-color="#ea880b"/>
   <stop stop-color="#f7cc2e" offset="1"/>
  </linearGradient>
  <linearGradient x2="0" xlink:href="#linearGradient3769" y1="90" y2="48" gradientUnits="userSpaceOnUse" id="linearGradient3812" gradientTransform="matrix(1 0 0 1 42 -42)"/>
  <linearGradient x2="0" xlink:href="#linearGradient3700-73" y1="90" y2="48" gradientUnits="userSpaceOnUse" id="linearGradient3858-8" gradientTransform="matrix(0.57143 0 0 0.57143 12.571 -11.429)"/>
  <linearGradient id="linearGradient3700-73">
   <stop stop-color="#1d56a5"/>
   <stop stop-color="#5e97ea" offset="1"/>
  </linearGradient>
  <linearGradient x2="0" xlink:href="#linearGradient3700-73" y1="90" y2="48" gradientUnits="userSpaceOnUse" id="linearGradient3860" gradientTransform="matrix(0.57143 0 0 0.57143 52.57 28.571)"/>
  <linearGradient x1="16" x2="38" xlink:href="#linearGradient3777-5" gradientUnits="userSpaceOnUse" id="linearGradient3783-4" gradientTransform="matrix(1 0 0 1 42 -96)"/>
  <linearGradient id="linearGradient3777-5">
   <stop stop-color="#fff"/>
   <stop stop-color="#fff" stop-opacity="0" offset="1"/>
  </linearGradient>
  <linearGradient x1="16" x2="38" xlink:href="#linearGradient3777-5" gradientUnits="userSpaceOnUse" id="linearGradient3824" gradientTransform="matrix(1 0 0 1 0 -138)"/>
  <linearGradient x2="0" xlink:href="#linearGradient3777-5" y1="8" y2="72.5" gradientUnits="userSpaceOnUse" id="linearGradient3849"/>
  <radialGradient cy="90.17" r="42" xlink:href="#linearGradient3777-5" gradientUnits="userSpaceOnUse" id="radialGradient3853" cx="48" gradientTransform="matrix(1.1573 0 0 0.99591 -7.551 0.197)"/>
  <linearGradient x2="0" xlink:href="#linearGradient3777-5" y1="16" y2="36.1" gradientUnits="userSpaceOnUse" id="linearGradient3875-6"/>
  <linearGradient x2="0" xlink:href="#linearGradient3777-5" y1="16" y2="36.1" gradientUnits="userSpaceOnUse" id="linearGradient3260" gradientTransform="matrix(1 0 0 1 40 40)"/>
  <clipPath clipPathUnits="userSpaceOnUse" id="clipPath3009">
   <path d="m-2 956.36h-96v33.562l96 25.687v-59.25z"/>
  </clipPath>
 </defs>
 <g transform="matrix(1 0 0 1 0 -956.36)">
  <rect x="2" rx="25" y="958.36" fill="url(#linearGradient11642)" height="92" width="92"/>
  <g transform="matrix(0.65476 0 0 0.65476 16.57 973.1)">
   <rect x="6" rx="6" y="48" fill="url(#linearGradient3814)" height="42" width="42"/>
   <rect x="48" rx="6" y="6" fill="url(#linearGradient3812)" height="42" width="42"/>
   <rect x="16" rx="3" y="16" fill="url(#linearGradient3858-8)" height="24" width="24"/>
   <rect x="56" rx="3" y="56" fill="url(#linearGradient3860)" height="24" width="24"/>
   <rect x="58" y="-38" fill="url(#linearGradient3783-4)" color="#000000" height="22" opacity="0.4" width="22" transform="matrix(0 1 -1 0 0 0)"/>
   <path d="m12 48c-1.662 0-3.1655 0.6655-4.25 1.75l8.25 8.25h22l8.25-8.25c-1.084-1.084-2.588-1.75-4.25-1.75h-30z" fill="#fff" opacity="0.15"/>
   <path d="m12 90c-1.662 0-3.1655-0.666-4.25-1.75l8.25-8.25h22l8.25 8.25c-1.084 1.084-2.588 1.75-4.25 1.75h-30z" fill="#803300" opacity="0.2"/>
   <path d="m48 84c0 1.662-0.6655 3.1655-1.75 4.25l-8.25-8.25v-22l8.25-8.25c1.084 1.084 1.75 2.588 1.75 4.25v30z" fill="#803300" opacity="0.1"/>
   <rect x="16" y="-80" fill="url(#linearGradient3824)" color="#000000" height="22" opacity="0.4" width="22" transform="matrix(0 1 -1 0 0 0)"/>
   <path d="m54 6c-1.662 0-3.166 0.6655-4.25 1.75l8.25 8.25h22l8.25-8.25c-1.084-1.0845-2.588-1.75-4.25-1.75h-30z" fill="#fff" opacity="0.15"/>
   <path d="m54 48c-1.662 0-3.1655-0.6655-4.25-1.75l8.25-8.25h22l8.25 8.25c-1.084 1.084-2.588 1.75-4.25 1.75h-30z" fill="#803300" opacity="0.2"/>
   <path d="m90 42c0 1.662-0.6655 3.1655-1.75 4.25l-8.25-8.25v-22l8.25-8.25c1.084 1.0845 1.75 2.588 1.75 4.25v30z" fill="#803300" opacity="0.1"/>
   <path d="m54 6c-3.324 0-6 2.676-6 6v30c0 2.4683 1.473 4.5767 3.5938 5.5-1.615-0.858-2.719-2.526-2.719-4.5v-30c0-2.8525 2.2725-5.125 5.125-5.125h30c2.8525 0 5.125 2.2725 5.125 5.125v30c0 1.9736-1.1036 3.6423-2.7188 4.5 2.121-0.923 3.594-3.032 3.594-5.5v-30c0-3.324-2.676-6-6-6h-30zm-42 42c-3.324 0-6 2.676-6 6v30c0 2.4683 1.473 4.5767 3.5938 5.5-1.6152-0.858-2.7188-2.526-2.7188-4.5v-30c0-2.8525 2.2725-5.125 5.125-5.125h30c2.8525 0 5.125 2.2725 5.125 5.125v30c0 1.9736-1.1036 3.6423-2.7188 4.5 2.121-0.923 3.594-3.032 3.594-5.5v-30c0-3.324-2.676-6-6-6h-30z" fill="url(#linearGradient3849)" opacity="0.4"/>
   <path d="m7 50.688c-0.6306 0.95-1 2.081-1 3.312v30c0 3.324 2.676 6 6 6h30c1.7818 0 3.3717-0.77457 4.4688-2h-34.469c-2.7818 0-5-2.218-5-5v-32.312z" fill="url(#radialGradient3853)" opacity="0.2"/>
   <path d="m19 16c-1.662 0-3 1.338-3 3v18c0 1.385 0.94722 2.5268 2.2188 2.875-0.73095-0.30518-1.25-1.0235-1.25-1.875v-18c0-1.1354 0.89586-2.0312 2.0312-2.0312h18c1.1354 0 2.0312 0.89586 2.0312 2.0312v18c0 0.85154-0.51905 1.5698-1.25 1.875 1.272-0.348 2.219-1.49 2.219-2.875v-18c0-1.662-1.338-3-3-3h-18z" fill="url(#linearGradient3875-6)" opacity="0.3"/>
   <path d="m59 56c-1.662 0-3 1.338-3 3v18c0 1.385 0.94722 2.5268 2.2188 2.875-0.73095-0.30518-1.25-1.0235-1.25-1.875v-18c0-1.1354 0.89586-2.0312 2.0312-2.0312h18c1.1354 0 2.0312 0.89586 2.0312 2.0312v18c0 0.85154-0.51905 1.5698-1.25 1.875 1.272-0.348 2.219-1.49 2.219-2.875v-18c0-1.662-1.338-3-3-3h-18z" fill="url(#linearGradient3260)" opacity="0.3"/>
  </g>
  <rect x="-96" rx="25" y="958.36" clip-path="url(#clipPath3009)" fill="#fff" height="92" opacity="0.15" width="92" transform="matrix(1 0 0 1 98 0)"/>
 </g>
</svg>
