<svg height="96" width="96" xmlns="http://www.w3.org/2000/svg" xmlns:sodipodi="http://sodipodi.sourceforge.net/DTD/sodipodi-0.dtd" xmlns:inkscape="http://www.inkscape.org/namespaces/inkscape">
 <g inkscape:label="Layer 1" inkscape:groupmode="layer" transform="matrix(1 0 0 1 0 -956.36)">
  <rect x="8" rx="10.769" y="964.36" fill="#e6e6e6" fill-opacity="1" stroke="none" height="80" width="80"/>
  <path d="m 58.433332,982.19548 c -2.808132,0.0143 -4.453073,3.7369 -2.573067,5.8229 1.923841,1.63739 4.325639,2.77206 5.857881,4.88479 5.274663,6.07458 5.524289,15.75223 0.593332,22.10303 -1.557598,2.1775 -3.710039,3.8325 -5.977193,5.209 -2.245196,1.691 -1.339176,5.6624 1.417226,6.2122 2.283756,0.5365 4.091193,-1.3517 5.81964,-2.5287 7.687269,-5.9663 11.210401,-16.665 8.548182,-26.03285 -1.739736,-6.53108 -6.223652,-12.37346 -12.258292,-15.47176 -0.455838,-0.16229 -0.944901,-0.23032 -1.427709,-0.19861 z m -21.427449,0.0279 c -1.955489,0.3223 -3.495696,1.81315 -5.049957,2.95744 -7.301007,5.95471 -10.601891,16.24778 -8.1591,25.34188 1.681967,6.6566 6.207311,12.6345 12.339356,15.7799 2.592375,1.0635 5.587003,-1.6938 4.661022,-4.3682 -0.8122,-2.4686 -3.829136,-2.9026 -5.32336,-4.8517 -5.766268,-5.4499 -7.032658,-14.8737 -2.932011,-21.66247 1.649717,-2.94995 4.243195,-5.23289 7.115749,-6.94577 2.203055,-1.74548 1.199916,-5.69348 -1.56914,-6.17562 -0.354208,-0.0801 -0.720678,-0.10558 -1.082559,-0.0755 z" stroke-width="6" display="inline" fill="#4d4d4d" color="black" fill-opacity="1" stroke="none" visibility="visible" inkscape:connector-curvature="0"/>
 </g>
</svg>
