<svg height="96" width="96" xmlns="http://www.w3.org/2000/svg" xmlns:sodipodi="http://sodipodi.sourceforge.net/DTD/sodipodi-0.dtd" xmlns:inkscape="http://www.inkscape.org/namespaces/inkscape">
 <g inkscape:label="Layer 1" inkscape:groupmode="layer" transform="matrix(1 0 0 1 0 -956.36)">
  <rect x="8" rx="10.769" y="964.36" fill="#e6e6e6" fill-opacity="1" stroke="none" height="80" width="80"/>
  <path d="m 73,1004.3621 c 0,-1.847 -1.487009,-3.334 -3.334101,-3.334 l -20.004611,0 c -1.847091,0 -3.334101,1.487 -3.334101,3.334 0,1.8472 1.48701,3.3342 3.334101,3.3342 l 20.004611,0 c 1.847092,0 3.334101,-1.487 3.334101,-3.3342 z m -5.990964,9.7419 a 3.3344351,3.3344351 0 0 0 -6.25144,-1.4066 c -4.62318,8.0076 -14.758082,10.7183 -22.765663,6.0952 -8.007582,-4.6232 -10.718335,-14.7581 -6.095155,-22.76572 4.62318,-8.00753 14.758081,-10.71829 22.765663,-6.0951 2.534385,1.46323 4.631927,3.56076 6.095155,6.0951 a 3.3374578,3.3374578 0 0 0 5.782582,-3.33404 c -2.048315,-3.54779 -4.99585,-6.49533 -8.543635,-8.54364 -11.128533,-6.42506 -25.457286,-2.5849 -31.882348,8.54364 -6.425062,11.12846 -2.584897,25.45726 8.543635,31.88236 11.128534,6.425 25.457287,2.5849 31.882348,-8.5436 a 3.3344351,3.3344351 0 0 0 0.468858,-1.9276 z" stroke-width="6" display="inline" fill="#4d4d4d" color="black" fill-opacity="1" stroke="none" visibility="visible" inkscape:connector-curvature="0"/>
 </g>
</svg>
