<svg height="96" width="96" xmlns="http://www.w3.org/2000/svg" xmlns:xlink="http://www.w3.org/1999/xlink" xmlns:sodipodi="http://sodipodi.sourceforge.net/DTD/sodipodi-0.dtd" xmlns:inkscape="http://www.inkscape.org/namespaces/inkscape">
 <defs>
  <linearGradient x2="0" y1="962.62" y2="1046.1" gradientUnits="userSpaceOnUse" id="linearGradient11642" gradientTransform="matrix(1.15 0 0 1.15 -7.2 -150.65)">
   <stop stop-color="#61537d"/>
   <stop stop-color="#a192bb" offset="1"/>
  </linearGradient>
  <radialGradient cy="25.668" r="5.05" xlink:href="#linearGradient8687" gradientUnits="userSpaceOnUse" id="radialGradient3105" cx="18.685" gradientTransform="matrix(1.8427 0 0 1.8146 13.624 1.369)"/>
  <linearGradient id="linearGradient8687">
   <stop stop-color="#a40000"/>
   <stop stop-color="#a40000" stop-opacity="0" offset="1"/>
  </linearGradient>
  <radialGradient cy="25.668" r="5.05" xlink:href="#linearGradient9586-1" gradientUnits="userSpaceOnUse" id="radialGradient3107" cx="18.685" gradientTransform="matrix(1.3162 0 0 1.2961 23.461 14.754)"/>
  <linearGradient id="linearGradient9586-1">
   <stop stop-color="#c00"/>
   <stop stop-color="#c00" stop-opacity="0" offset="1"/>
  </linearGradient>
  <radialGradient cy="25.668" r="5.05" xlink:href="#linearGradient8687" gradientUnits="userSpaceOnUse" id="radialGradient3109" cx="18.685" gradientTransform="matrix(1.8427 0 0 1.8146 1.992 1.369)"/>
  <radialGradient cy="25.668" r="5.05" xlink:href="#linearGradient9586-1" gradientUnits="userSpaceOnUse" id="radialGradient3111" cx="18.685" gradientTransform="matrix(1.3162 0 0 1.2961 11.83 14.754)"/>
  <radialGradient cy="25.668" r="5.05" xlink:href="#linearGradient8687" gradientUnits="userSpaceOnUse" id="radialGradient3113" cx="18.685" gradientTransform="matrix(1.8427 0 0 1.8146 25.26 1.369)"/>
  <radialGradient cy="25.668" r="5.05" xlink:href="#linearGradient9586-1" gradientUnits="userSpaceOnUse" id="radialGradient3115" cx="18.685" gradientTransform="matrix(1.3162 0 0 1.2961 35.09 14.754)"/>
  <radialGradient cy="12.464" r="21.01" gradientUnits="userSpaceOnUse" id="radialGradient3117" cx="13.199" gradientTransform="matrix(0 1.774 -1.7379 -0.03489 57.15 11.751)">
   <stop stop-color="#ddd"/>
   <stop stop-color="#9a9a9a" offset="0.349"/>
   <stop stop-color="#696969" offset="0.674"/>
   <stop stop-color="#333" offset="1"/>
  </radialGradient>
  <linearGradient x1="5.693" x2="40.503" y1="5.458" y2="40.08" gradientUnits="userSpaceOnUse" id="linearGradient3119" gradientTransform="matrix(1.1632 0 0 1.1455 20.14 20.455)">
   <stop stop-color="#eeeeec"/>
   <stop stop-color="#eeeeec" stop-opacity="0" offset="1"/>
  </linearGradient>
  <radialGradient cy="25.668" r="5.05" xlink:href="#linearGradient4055" gradientUnits="userSpaceOnUse" id="radialGradient3121" cx="18.685" gradientTransform="matrix(2.4906 0 0 2.4526 -10.114 -14.931)"/>
  <linearGradient id="linearGradient4055">
   <stop stop-color="#ed1414"/>
   <stop stop-color="#ef2929" stop-opacity="0" offset="1"/>
  </linearGradient>
  <radialGradient cy="25.668" r="5.05" xlink:href="#linearGradient4055" gradientUnits="userSpaceOnUse" id="radialGradient3123" cx="18.685" gradientTransform="matrix(2.4906 0 0 2.4526 1.886 -14.931)"/>
  <radialGradient cy="25.668" r="5.05" xlink:href="#linearGradient4055" gradientUnits="userSpaceOnUse" id="radialGradient3125" cx="18.685" gradientTransform="matrix(2.4906 0 0 2.4526 13.886 -14.931)"/>
  <radialGradient cy="25.668" r="5.05" xlink:href="#linearGradient9598" gradientUnits="userSpaceOnUse" id="radialGradient3128" cx="18.685" gradientTransform="matrix(0.78972 0 0 0.77769 33.3 28.06)"/>
  <linearGradient id="linearGradient9598">
   <stop stop-color="#efaa29"/>
   <stop stop-color="#ef2929" stop-opacity="0" offset="1"/>
  </linearGradient>
  <radialGradient cy="25.668" r="5.05" xlink:href="#linearGradient9598" gradientUnits="userSpaceOnUse" id="radialGradient3131" cx="18.685" gradientTransform="matrix(0.78972 0 0 0.77769 21.667 28.06)"/>
  <radialGradient cy="25.668" r="5.05" xlink:href="#linearGradient9598" gradientUnits="userSpaceOnUse" id="radialGradient3134" cx="18.685" gradientTransform="matrix(0.78972 0 0 0.77769 44.931 28.06)"/>
  <linearGradient x2="0" y1="20.221" y2="138.66" gradientUnits="userSpaceOnUse" id="linearGradient3136">
   <stop stop-color="#fff"/>
   <stop stop-color="#fff" stop-opacity="0" offset="1"/>
  </linearGradient>
  <clipPath id="clipPath3613-38">
   <rect x="6" rx="6" y="6" height="84" width="84"/>
  </clipPath>
  <filter x="-0.192" y="-0.192" height="1.384" color-interpolation-filters="sRGB" id="filter3794-76" width="1.384">
   <feGaussianBlur stdDeviation="5.28"/>
  </filter>
  <clipPath clipPathUnits="userSpaceOnUse" id="clipPath3009">
   <path d="m-2 956.36h-96v33.562l96 25.687v-59.25z"/>
  </clipPath>
 </defs>
 <g transform="matrix(1 0 0 1 0 -956.36)">
  <rect x="2" rx="25" y="958.36" fill="url(#linearGradient11642)" height="92" width="92"/>
  <g transform="matrix(1 0 0 1 -182.19 -40.4)">
   <g transform="matrix(1.0579 0 0 1.0579 179.01 994.1)">
    <path d="m28.877 41.594h38.383v13.491h-38.383v-13.491z" fill="#2e3436" stroke="#2e3436"/>
    <path d="m57.36 47.946c0 5.061-4.1662 9.1638-9.3055 9.1638s-9.3055-4.1028-9.3055-9.1638 4.1662-9.1638 9.3055-9.1638 9.3055 4.1028 9.3055 9.1638z" fill="url(#radialGradient3105)" opacity="0.75"/>
    <path d="m54.701 48.023c0 3.615-2.9759 6.5455-6.6468 6.5455s-6.6468-2.9305-6.6468-6.5455 2.9759-6.5455 6.6468-6.5455 6.6468 2.9305 6.6468 6.5455z" fill="url(#radialGradient3107)" opacity="0.75"/>
    <path d="m45.728 47.946c0 5.061-4.1662 9.1638-9.3055 9.1638s-9.3055-4.1028-9.3055-9.1638 4.1662-9.1638 9.3055-9.1638 9.3055 4.1028 9.3055 9.1638z" fill="url(#radialGradient3109)"/>
    <path d="m43.069 48.023c0 3.615-2.9759 6.5455-6.6468 6.5455s-6.6468-2.9305-6.6468-6.5455 2.9759-6.5455 6.6468-6.5455 6.6468 2.9305 6.6468 6.5455z" fill="url(#radialGradient3111)"/>
    <path d="m68.992 47.946c0 5.061-4.1662 9.1638-9.3055 9.1638s-9.3055-4.1028-9.3055-9.1638 4.1662-9.1638 9.3055-9.1638 9.3055 4.1028 9.3055 9.1638z" fill="url(#radialGradient3113)" opacity="0.5"/>
    <path d="m66.333 48.023c0 3.615-2.9759 6.5455-6.6468 6.5455s-6.6468-2.9305-6.6468-6.5455 2.9759-6.5455 6.6468-6.5455 6.6468 2.9305 6.6468 6.5455z" fill="url(#radialGradient3115)" opacity="0.5"/>
    <path d="m48.018 24.5c-11.768 0-21.569 8.395-23.518 19.437h47c-1.95-11.041-11.715-19.437-23.482-19.437zm-23.482 27.563c1.966 11.022 11.729 19.437 23.482 19.437 11.755 0 21.517-8.413 23.482-19.437h-46.964z" stroke-width="1" fill="url(#radialGradient3117)" stroke="#2e3436" fill-rule="evenodd"/>
    <path d="m48.018 25.645c-10.731 0-19.716 7.3879-22.064 17.254h44.128c-2.348-9.866-11.333-17.254-22.064-17.254zm-22.064 27.456c2.3487 9.8657 11.333 17.218 22.064 17.218s19.716-7.3521 22.064-17.218h-44.128z" stroke-width="1" fill="none" stroke="url(#linearGradient3119)"/>
    <path d="m49 48.023c0 6.8405-5.6311 12.386-12.577 12.386-6.9463 0-12.577-5.5453-12.577-12.386 0-6.8405 5.6311-12.386 12.577-12.386 6.946 0 12.577 5.545 12.577 12.386z" fill="url(#radialGradient3121)" opacity="0.3"/>
    <path d="m61 48.023c0 6.8405-5.6311 12.386-12.577 12.386-6.9463 0-12.577-5.5453-12.577-12.386 0-6.8405 5.6311-12.386 12.577-12.386 6.946 0 12.577 5.545 12.577 12.386z" fill="url(#radialGradient3123)" opacity="0.3"/>
    <path d="m73 48.023c0 6.8405-5.6311 12.386-12.577 12.386-6.9463 0-12.577-5.5453-12.577-12.386 0-6.8405 5.6311-12.386 12.577-12.386 6.946 0 12.577 5.545 12.577 12.386z" fill="url(#radialGradient3125)" opacity="0.3"/>
    <path d="m52.043 48.023c0 2.169-1.7855 3.9273-3.9881 3.9273-2.2025 0-3.9881-1.7583-3.9881-3.9273s1.7855-3.9273 3.9881-3.9273c2.2025 0 3.9881 1.7583 3.9881 3.9273z" fill="url(#radialGradient3128)" opacity="0.75"/>
    <path d="m40.411 48.023c0 2.169-1.7855 3.9273-3.9881 3.9273-2.2025 0-3.9881-1.7583-3.9881-3.9273s1.7855-3.9273 3.9881-3.9273c2.2025 0 3.9881 1.7583 3.9881 3.9273z" fill="url(#radialGradient3131)"/>
    <path d="m63.674 48.023c0 2.169-1.7855 3.9273-3.9881 3.9273-2.2025 0-3.9881-1.7583-3.9881-3.9273s1.7855-3.9273 3.9881-3.9273c2.2025 0 3.9881 1.7583 3.9881 3.9273z" fill="url(#radialGradient3134)" opacity="0.5"/>
   </g>
   <rect x="15" stroke-width="0.5" rx="12" y="15" clip-path="url(#clipPath3613-38)" fill="url(#linearGradient3136)" stroke="#fff" height="66" filter="url(#filter3794-76)" opacity="0.1" width="66" stroke-linecap="round" transform="matrix(1 0 0 1 182.19 996.77)"/>
  </g>
  <rect x="-96" rx="25" y="958.36" clip-path="url(#clipPath3009)" fill="#fff" height="92" opacity="0.15" width="92" transform="matrix(1 0 0 1 98 0)"/>
 </g>
</svg>
