<svg height="96" width="96" xmlns="http://www.w3.org/2000/svg" xmlns:xlink="http://www.w3.org/1999/xlink" xmlns:sodipodi="http://sodipodi.sourceforge.net/DTD/sodipodi-0.dtd" xmlns:inkscape="http://www.inkscape.org/namespaces/inkscape">
 <defs>
  <linearGradient x2="0" y1="90" y2="5.988" gradientUnits="userSpaceOnUse" id="linearGradient3706">
   <stop stop-color="#0a0a0a" stop-opacity="1"/>
   <stop stop-color="#3c3c3c" stop-opacity="1" offset="1"/>
  </linearGradient>
  <linearGradient x1="36.925" x2="42.851" gradientUnits="userSpaceOnUse" id="linearGradient6142">
   <stop stop-color="#000000" stop-opacity="0.426"/>
   <stop stop-color="#ffffff" stop-opacity="0.317" offset="1"/>
  </linearGradient>
  <linearGradient x1="34.571" x2="43.21" xlink:href="#linearGradient6151" gradientUnits="userSpaceOnUse" id="linearGradient6157"/>
  <linearGradient id="linearGradient6151">
   <stop stop-color="#5b5b5b" stop-opacity="1"/>
   <stop stop-color="#0a0a0a" stop-opacity="1" offset="1"/>
  </linearGradient>
  <linearGradient x1="34.14" x2="43.643" gradientUnits="userSpaceOnUse" id="linearGradient6149">
   <stop stop-color="#747474" stop-opacity="1"/>
   <stop stop-color="#000000" stop-opacity="1" offset="1"/>
  </linearGradient>
  <linearGradient x1="34.37" x2="43.42" xlink:href="#linearGradient6151" gradientUnits="userSpaceOnUse" id="linearGradient6214"/>
  <radialGradient cy="-0.562" r="21" gradientUnits="userSpaceOnUse" id="radialGradient3271" cx="77.2" gradientTransform="matrix(-2.16655 0 0 -0.53959 244.47 12.394)">
   <stop stop-color="#6262ea" stop-opacity="1"/>
   <stop stop-color="#4b28d9" stop-opacity="1" offset="1"/>
  </radialGradient>
  <radialGradient cy="45" r="27" gradientUnits="userSpaceOnUse" id="radialGradient3275" cx="34.521" gradientTransform="matrix(1.72955 0 0 0.76206 -29.705 -4.293)">
   <stop stop-color="#ffffff" stop-opacity="1"/>
   <stop stop-color="#ffffff" stop-opacity="0" offset="1"/>
  </radialGradient>
  <linearGradient id="linearGradient3339">
   <stop stop-color="#4f4f4f" stop-opacity="1"/>
   <stop stop-color="#a2a2a2" stop-opacity="1" offset="1"/>
  </linearGradient>
  <filter color-interpolation-filters="sRGB" id="filter6045">
   <feGaussianBlur stdDeviation="0.19031"/>
  </filter>
  <linearGradient id="linearGradient5892">
   <stop stop-color="#333333" stop-opacity="1"/>
   <stop stop-color="#424242" stop-opacity="1" offset="1"/>
  </linearGradient>
  <linearGradient x2="0" y1="92.54" y2="7.02" gradientUnits="userSpaceOnUse" id="linearGradient3175" gradientTransform="matrix(1.0059 0 0 0.99417 0 0)">
   <stop stop-color="#000000" stop-opacity="1"/>
   <stop stop-color="#000000" stop-opacity="0" offset="1"/>
  </linearGradient>
  <filter color-interpolation-filters="sRGB" id="filter6036">
   <feGaussianBlur stdDeviation="0.285"/>
  </filter>
  <linearGradient x1="30" x2="48" gradientUnits="userSpaceOnUse" id="linearGradient5590" inkscape:collect="always">
   <stop stop-color="#1a1a1a" stop-opacity="1"/>
   <stop stop-color="#1a1a1a" stop-opacity="1" offset="0.25"/>
   <stop stop-color="#cdff01" stop-opacity="1" offset="0.501"/>
   <stop stop-color="#1a1a1a" stop-opacity="1" offset="0.75"/>
   <stop stop-color="#1a1a1a" stop-opacity="1" offset="1"/>
  </linearGradient>
  <linearGradient x2="0" xlink:href="#linearGradient3339" y1="34" y2="32" gradientUnits="userSpaceOnUse" id="linearGradient5594" inkscape:collect="always"/>
  <linearGradient x2="0" y1="72" y2="82.01" gradientUnits="userSpaceOnUse" id="linearGradient5596" inkscape:collect="always">
   <stop stop-color="#333333" stop-opacity="1"/>
   <stop stop-color="#333333" stop-opacity="1" offset="0.431"/>
   <stop stop-color="#000000" stop-opacity="1" offset="0.555"/>
   <stop stop-color="#000000" stop-opacity="1" offset="1"/>
  </linearGradient>
  <linearGradient x2="0" xlink:href="#linearGradient5892" y1="73" y2="83.04" gradientUnits="userSpaceOnUse" id="linearGradient5598" inkscape:collect="always"/>
  <linearGradient x1="33" x2="34" xlink:href="#linearGradient3175" gradientUnits="userSpaceOnUse" id="linearGradient5600" inkscape:collect="always"/>
  <linearGradient x1="33" x2="34" xlink:href="#linearGradient3175" gradientUnits="userSpaceOnUse" id="linearGradient5602" inkscape:collect="always" gradientTransform="matrix(1 0 0 1 -78 0)"/>
  <linearGradient x2="0" xlink:href="#linearGradient3339" y1="34" y2="32" gradientUnits="userSpaceOnUse" id="linearGradient5604" inkscape:collect="always" gradientTransform="matrix(1 0 0 1 0 4)"/>
  <linearGradient x2="0" y1="34" y2="32" gradientUnits="userSpaceOnUse" id="linearGradient5606" inkscape:collect="always" gradientTransform="matrix(1 0 0 0.91071 0 9.929)">
   <stop stop-color="#000000" stop-opacity="1"/>
   <stop stop-color="#656565" stop-opacity="1" offset="0.5"/>
   <stop stop-color="#000000" stop-opacity="1" offset="1"/>
  </linearGradient>
  <linearGradient x2="0" xlink:href="#linearGradient5892" y1="72" y2="42" gradientUnits="userSpaceOnUse" id="linearGradient5608" inkscape:collect="always"/>
  <linearGradient x1="33" x2="34" xlink:href="#linearGradient3175" gradientUnits="userSpaceOnUse" id="linearGradient5610" inkscape:collect="always" gradientTransform="matrix(2 0 0 1.33333 6 -141)"/>
  <linearGradient x1="34.14" x2="43.643" gradientUnits="userSpaceOnUse" id="linearGradient5614" inkscape:collect="always">
   <stop stop-color="#ffffff" stop-opacity="1"/>
   <stop stop-color="#7c7c7c" stop-opacity="1" offset="1"/>
  </linearGradient>
  <clipPath clipPathUnits="userSpaceOnUse" id="clipPath5616">
   <rect x="19.888" rx="22.826" y="4.174" height="84" width="84"/>
  </clipPath>
  <clipPath clipPathUnits="userSpaceOnUse" id="clipPath3009">
   <path d="m -2,956.36218 -96,0 0,33.5624 96,25.68742 0,-59.24982 z" inkscape:connector-curvature="0"/>
  </clipPath>
  <path d="m 42.850595,48 a 3.959722,3.959722 0 1 1 -7.919444,0 3.959722,3.959722 0 1 1 7.919444,0 z" id="SVGCleanerId_0"/>
  <rect x="30" y="6" fill-opacity="1" stroke="none" fill-rule="nonzero" height="24" id="SVGCleanerId_1" width="54"/>
  <path d="m 38.512066,27.246492 a 1.1364216,1.0732871 0 1 1 -2.272843,0 1.1364216,1.0732871 0 1 1 2.272843,0 z" fill-opacity="1" stroke="none" fill-rule="nonzero" id="SVGCleanerId_2"/>
  <rect x="30" y="30" fill="url(#linearGradient5590)" fill-opacity="1" stroke="none" fill-rule="nonzero" height="2" id="SVGCleanerId_3" width="18"/>
 </defs>
 <g inkscape:label="Layer 1" inkscape:groupmode="layer" transform="matrix(1 0 0 1 0 -956.36)">
  <g clip-path="url(#clipPath5616)" transform="matrix(1.09524 0 0 1.09524 -19.782 953.79)">
   <g transform="matrix(1 0 0 1 13.888 -1.826)">
    <rect x="6" rx="6" display="inline" y="6" fill="url(#linearGradient3706)" fill-opacity="1" fill-rule="nonzero" stroke="none" height="84" width="84"/>
    <use display="inline" xlink:href="#SVGCleanerId_0" fill="url(#linearGradient6142)" fill-opacity="1" fill-rule="nonzero" stroke="none" inkscape:connector-curvature="0" transform="matrix(0 1.7678 -1.7678 0 102.85 9.249)"/>
    <use stroke-opacity="1" stroke-width="0.72" display="inline" xlink:href="#SVGCleanerId_0" fill="url(#linearGradient6157)" fill-opacity="1" fill-rule="nonzero" stroke="#000000" stroke-dasharray="none" stroke-dashoffset="0" stroke-linecap="square" stroke-linejoin="miter" stroke-miterlimit="4" inkscape:connector-curvature="0" transform="matrix(0 1.38899 -1.38899 0 84.67 23.981)"/>
    <use stroke-opacity="1" stroke-width="0.417" display="inline" xlink:href="#SVGCleanerId_0" fill="none" stroke="url(#linearGradient6149)" stroke-dasharray="none" stroke-dashoffset="0" stroke-linecap="square" stroke-linejoin="miter" stroke-miterlimit="4" inkscape:connector-curvature="0" transform="matrix(0 1.19958 -1.19958 0 75.58 31.347)"/>
    <text x="13.788" font-size="3" font-stretch="semi-condensed" font-style="normal" display="inline" font-variant="normal" y="70" font-weight="normal" text-anchor="start" line-height="120.00000477%" fill="#666666" fill-opacity="1" stroke="none" writing-mode="lr-tb" font-family="DejaVu Sans" sodipodi:linespacing="120%"><tspan x="13.788" y="70">Power</tspan>
    </text>
    <g display="inline" transform="matrix(1.02271 0 0 1.02271 -0.295 -1.476)">
     <use xlink:href="#SVGCleanerId_0" fill="url(#linearGradient6142)" fill-opacity="1" fill-rule="nonzero" stroke="none" inkscape:connector-curvature="0" transform="matrix(0 1.23467 -1.23467 0 77.15 12.09)"/>
     <use stroke-opacity="1" stroke-width="1.131" xlink:href="#SVGCleanerId_0" fill="url(#linearGradient6214)" fill-opacity="1" fill-rule="nonzero" stroke="#000000" stroke-dasharray="none" stroke-dashoffset="0" stroke-linecap="square" stroke-linejoin="miter" stroke-miterlimit="4" inkscape:connector-curvature="0" transform="matrix(0 0.86427 -0.86427 0 59.37 26.499)"/>
     <use stroke-opacity="1" stroke-width="0.72" xlink:href="#SVGCleanerId_0" fill="none" stroke="url(#linearGradient6149)" stroke-dasharray="none" stroke-dashoffset="0" stroke-linecap="square" stroke-linejoin="miter" stroke-miterlimit="4" inkscape:connector-curvature="0" transform="matrix(0 0.67907 -0.67907 0 50.48 33.701)"/>
    </g>
    <text x="14.13" font-size="3" font-stretch="semi-condensed" font-style="normal" display="inline" font-variant="normal" y="54" font-weight="normal" text-anchor="start" line-height="120.00000477%" fill="#666666" fill-opacity="1" stroke="none" writing-mode="lr-tb" font-family="DejaVu Sans" sodipodi:linespacing="120%"><tspan x="14.13" y="54">Reset</tspan>
    </text>
    <text x="9.849" font-size="2" font-stretch="semi-condensed" font-style="normal" display="inline" font-variant="normal" y="18.976" font-weight="bold" text-anchor="start" line-height="120.00000477%" fill="#666666" fill-opacity="1" stroke="none" writing-mode="lr-tb" font-family="DejaVu Sans" sodipodi:linespacing="120%"><tspan x="9.849" y="18.976">Icon Server</tspan>
    </text>
    <use xlink:href="#SVGCleanerId_1" fill="#2e2e2e"/>
    <rect x="29" y="6" fill="#000000" fill-opacity="1" fill-rule="nonzero" stroke="none" height="84" opacity="0.3" width="1"/>
    <rect x="84" y="6" fill="#000000" fill-opacity="1" fill-rule="nonzero" stroke="none" height="84" opacity="0.3" width="1"/>
    <rect x="36.5" stroke-opacity="1" stroke-width="1" y="12.5" fill="url(#radialGradient3271)" fill-opacity="1" fill-rule="nonzero" stroke="#2f2485" height="11" stroke-dasharray="none" stroke-dashoffset="0" width="41" stroke-linecap="square" stroke-linejoin="miter" stroke-miterlimit="4"/>
    <use xlink:href="#SVGCleanerId_1" fill="url(#radialGradient3275)" opacity="0.3"/>
    <path d="m 41.166725,14.024744 c -0.151503,0.27927 0.0462,0.47655 0.376294,0.375 0.226264,0.08174 -0.01602,0.522414 0.02996,0.75 -0.0083,0.304282 -0.07639,0.628078 -0.0625,0.96875 -0.02655,0.26168 -0.01046,0.646459 -0.440087,0.5 -0.271385,-0.06571 -0.206637,0.513823 0.09634,0.34375 0.36359,-0.02183 0.813764,0.04293 1.125,-0.03125 0.179262,-0.390774 -0.202718,-0.317916 -0.471337,-0.3125 -0.004,-0.198881 0.03243,-0.578889 0.06509,-0.78125 0.03062,-0.506668 0.07797,-0.954558 0.125,-1.4375 0.272482,3.29e-4 0.618782,0.0859 0.53125,-0.3125 -0.148351,-0.143315 -0.560372,-0.02296 -0.8125,-0.0625 -0.1875,0 -0.375,0 -0.5625,0 z m 10.875,0 c 0.0507,0.359636 -0.392621,0.165289 -0.34375,0.53125 -0.0029,0.288304 -0.04313,0.535318 -0.0625,0.84375 0.332925,-0.07251 0.134597,0.386236 0.5,0.28125 0.333333,0 0.666667,0 1,0 0.01325,0.315324 -0.08857,0.620655 -0.0625,0.9375 -0.415918,0.02158 -0.91713,-0.04213 -1.28125,0.03125 -0.185381,0.405019 0.229444,0.31152 0.5,0.3125 0.271141,-0.02053 0.624285,0.04095 0.84375,-0.03125 -0.02711,-0.344411 0.446569,-0.117086 0.3125,-0.5625 0.04089,-0.276595 0.05212,-0.486858 0.0625,-0.75 -0.332925,0.07251 -0.134597,-0.386236 -0.5,-0.28125 -0.333333,0 -0.666667,0 -1,0 -0.02119,-0.316661 0.08944,-0.62027 0.0625,-0.9375 0.427209,-0.02071 0.936259,0.04043 1.3125,-0.03125 0.124844,-0.396539 -0.180237,-0.363154 -0.471337,-0.34375 -0.290804,0 -0.581609,0 -0.872413,0 z m 2.40625,0 c 0.0507,0.359636 -0.392621,0.165289 -0.34375,0.53125 -0.0029,0.288304 -0.04313,0.535318 -0.0625,0.84375 0.390367,0.04063 0.192115,0.191364 -0.03125,0.25 -0.01489,0.323903 -0.06053,0.673831 -0.09375,1.03125 0.332925,-0.07251 0.134597,0.386236 0.5,0.28125 0.363661,-0.02175 0.812827,0.04199 1.125,-0.03125 0.179262,-0.390774 -0.202718,-0.317916 -0.471337,-0.3125 -0.259554,0 -0.519109,0 -0.778663,0 0.03374,-0.280582 0.03309,-0.670683 0.09375,-0.9375 0.417724,-0.01978 0.915512,0.04051 1.28125,-0.03125 0.119742,-0.381021 -0.201985,-0.320573 -0.471337,-0.3125 -0.243756,-0.03892 -0.679519,0.07956 -0.797402,-0.06255 0.0483,-0.308198 0.06006,-0.595328 0.08124,-0.874945 0.415693,-0.02181 0.916972,0.04197 1.28125,-0.03125 0.190689,-0.425471 -0.2068,-0.352393 -0.5,-0.34375 -0.270833,0 -0.541667,0 -0.8125,0 z m 2.40625,0 c 0.0199,0.332692 -0.442734,0.145333 -0.34375,0.5625 -0.0056,0.262339 -0.04448,0.495631 -0.0625,0.78125 0.432942,0.06539 0.12108,0.153666 -0.03125,0.28125 0.03265,0.336034 -0.137809,0.744292 -0.03125,1.03125 0.362253,0.111822 0.318796,-0.182066 0.34375,-0.407544 0.03747,-0.243565 -0.05668,-0.696931 0.3125,-0.592456 0.367324,-0.08521 0.449904,0.11432 0.46875,0.377587 0.03521,0.203514 0.125435,0.352007 0.125,0.591163 0.194393,0.156163 0.495921,-0.06643 0.34375,-0.28125 -0.02573,-0.169395 -0.115616,-0.279162 -0.09375,-0.5 -0.308731,-0.215415 0.386601,-0.09771 0.1875,-0.46875 0.384085,0.113252 0.273859,-0.267808 0.3125,-0.5 -0.02737,-0.239532 0.244413,-0.740075 -0.1875,-0.625 0.11383,-0.416344 -0.411162,-0.193867 -0.657544,-0.25 -0.228735,0 -0.457471,0 -0.686206,0 z m 4.78125,0 c 0.08602,0.367265 -0.412467,0.150033 -0.3125,0.53125 -0.02936,0.309549 -0.05888,0.549154 -0.0625,0.84375 0.376943,0.03183 0.173707,0.187789 -0.03125,0.25 -0.0545,0.365595 -0.05203,0.658264 -0.09375,1.03125 0.332925,-0.07251 0.134597,0.386236 0.5,0.28125 0.365694,-0.01972 0.811928,0.0411 1.125,-0.03125 0.119742,-0.381021 -0.201985,-0.320573 -0.471337,-0.3125 -0.241364,-0.03945 -0.643697,0.08206 -0.778663,-0.06379 -0.01031,-0.294319 0.08934,-0.57775 0.0625,-0.873706 0.415693,-0.02181 0.916972,0.04197 1.28125,-0.03125 0.172286,-0.37458 -0.175262,-0.323871 -0.440087,-0.3125 -0.243001,-0.03954 -0.678085,0.07838 -0.797402,-0.06255 0.03776,-0.31431 0.03392,-0.555352 0.08124,-0.874945 0.416707,-0.02079 0.917432,0.04243 1.28125,-0.03125 0.183653,-0.410261 -0.180439,-0.358582 -0.471337,-0.34375 -0.290804,0 -0.581609,0 -0.872413,0 z m 2.40625,0 c 0.05997,0.336735 -0.387312,0.138207 -0.3125,0.53125 -0.0175,0.255784 -0.07597,0.609128 -0.03125,0.8125 0.469616,0.107562 -0.07276,0.112458 -0.0625,0.345044 -0.02417,0.280497 -0.0613,0.61722 -0.09375,0.936206 0.26781,0.141102 0.459705,-0.0246 0.387511,-0.343805 0.109567,-0.220161 -0.103108,-0.720825 0.268739,-0.624945 0.298904,-0.02685 0.50236,-0.02527 0.46875,0.25 0.05916,0.130375 0.07557,0.312967 0.125,0.46875 -0.01137,0.162389 0.112602,0.418767 0.375,0.25 0.07458,-0.170901 -0.0091,-0.448019 -0.09375,-0.5625 -0.0719,-0.326584 -0.05474,-0.394516 0.21875,-0.46875 -0.03029,-0.331235 0.436768,-0.1319 0.293761,-0.593805 0.0082,-0.230446 0.137537,-0.618563 -0.01251,-0.749945 -0.290783,0.04303 -0.04461,-0.422385 -0.5,-0.25 -0.34375,0 -0.6875,0 -1.03125,0 z m -25.5625,0.28125 c -0.03976,0.308692 -0.102666,0.733548 -0.09375,1.09375 0.21926,0.131295 0.449864,-0.02037 0.375,-0.3125 -0.0059,-0.225326 0.09286,-0.547749 0.03125,-0.75 -0.01516,-0.07517 -0.237812,-0.01085 -0.3125,-0.03125 z m 4.84375,0 c -0.0921,0.238876 -0.06974,0.543586 -0.09375,0.8125 -0.200109,0.31356 0.219517,0.416841 0.34375,0.25 -0.05401,-0.270922 0.109411,-0.765379 0.09375,-0.21875 0.02278,0.174124 0.156189,0.404908 0.40625,0.25 0.07327,-0.290364 -0.04805,-0.376357 -0.0625,-0.59375 -0.157555,-0.102532 -0.01954,-0.398715 -0.15625,-0.5 -0.177083,0 -0.354167,0 -0.53125,0 z m 1.53125,0 c -0.07285,0.299608 -0.07193,0.71682 -0.125,1.09375 0.250391,0.143428 0.446293,-0.03209 0.40625,-0.28125 -0.04932,-0.263544 0.111833,-0.602361 0.03125,-0.8125 -0.104167,0 -0.208333,0 -0.3125,0 z m 0.875,0 c -0.07343,0.300053 -0.0702,0.716978 -0.125,1.09375 0.250391,0.143428 0.446293,-0.03209 0.40625,-0.28125 -0.04598,-0.253727 0.134946,-0.661314 -0.03125,-0.8125 -0.08333,0 -0.166667,0 -0.25,0 z m 1.53125,0 c -0.03976,0.308692 -0.102666,0.733548 -0.09375,1.09375 0.21926,0.131295 0.449864,-0.02037 0.375,-0.3125 -0.0059,-0.225326 0.09286,-0.547749 0.03125,-0.75 -0.02879,-0.07721 -0.224913,-0.0097 -0.3125,-0.03125 z m 1.15625,0 c -0.158508,0.235434 0.05644,0.33201 0,0.5625 0.102561,0.111768 0.103181,0.320759 0.125,0.5 0.148916,0.178132 0.53034,0.048 0.375,-0.28125 -0.125132,-0.114452 -0.05313,-0.426041 -0.1875,-0.53125 0.04777,-0.287059 -0.06309,-0.261156 -0.3125,-0.25 z m 1,0 c -0.04001,0.186285 -0.112945,0.382206 -0.21875,0.53125 -0.02676,0.180958 -0.214435,0.367599 -0.09375,0.59375 0.365325,0.105063 0.347856,-0.215661 0.427225,-0.438351 0.100455,-0.181932 0.151398,-0.328978 0.229025,-0.561649 0.03896,-0.20018 -0.203542,-0.103088 -0.34375,-0.125 z m 9.5625,0 c -0.124491,0.302325 -0.07255,0.738546 -0.125,1.09375 0.271778,0.158139 0.428497,-0.07654 0.387511,-0.375055 0.002,-0.259317 0.09303,-0.514208 0.01874,-0.718695 -0.09375,0 -0.1875,0 -0.28125,0 z m 1.28125,0 c -0.07597,0.19283 -0.146228,0.369482 -0.21875,0.53125 -0.05919,0.152261 -0.282952,0.434569 -0.09375,0.59375 0.328611,0.08799 0.339151,-0.225754 0.40625,-0.407544 0.02857,-0.218151 0.234163,-0.339312 0.21875,-0.595043 0.03708,-0.186644 -0.178309,-0.106614 -0.3125,-0.122413 z m -3.375,0.09375 c 0.395833,0 0.791667,0 1.1875,0 -0.03244,0.271317 -0.03993,0.59844 -0.09375,0.90625 -0.385417,0 -0.770833,0 -1.15625,0 -0.01478,-0.304904 0.08554,-0.600027 0.0625,-0.90625 z m 7.21875,0 c 0.395833,0 0.791667,0 1.1875,0 -0.06399,0.322565 -0.03756,0.577923 -0.09375,0.90625 -0.395833,0 -0.791667,0 -1.1875,0 0.07061,-0.311523 0.06686,-0.622142 0.09375,-0.90625 z m -25.71875,1.1875 c -0.105206,0.294724 -0.05447,0.636199 -0.118772,0.968859 0.01676,0.216788 0.310325,0.187934 0.306272,0.437391 0.428064,-0.01985 0.936358,0.04053 1.3125,-0.03125 0.124844,-0.396539 -0.180237,-0.363154 -0.471337,-0.34375 -0.241914,-0.03851 -0.683285,0.07871 -0.794441,-0.06189 0.04812,-0.33585 0.06886,-0.620097 0.07828,-0.938111 -0.05995,-0.05428 -0.204046,-0.02486 -0.3125,-0.03125 z m 4.8125,0 c -0.04553,0.307052 -0.102411,0.734786 -0.09375,1.09375 0.248716,0.148683 0.402535,-0.05352 0.375,-0.28125 -0.04932,-0.263544 0.111833,-0.602361 0.03125,-0.8125 -0.104167,0 -0.208333,0 -0.3125,0 z m 1.03125,0 c -0.09469,0.196077 0.03645,0.417571 0.0625,0.59375 0.107662,0.153186 -0.02775,0.549449 0.251294,0.53125 0.289401,0.03492 0.546163,0.02366 0.467456,-0.34375 0.04089,-0.276595 0.05212,-0.486858 0.0625,-0.75 -0.26781,-0.141102 -0.459705,0.0246 -0.387511,0.343805 -0.04606,0.299932 -0.10166,-0.208375 -0.112489,-0.281305 0.02051,-0.159104 -0.224166,-0.07265 -0.34375,-0.09375 z m 1.375,0 c -0.06354,0.257969 -0.04469,0.673994 -0.09375,0.938794 -0.01362,0.281517 0.327689,0.148628 0.25,0.467456 0.448513,-0.02024 0.977708,0.04021 1.375,-0.03125 -0.114627,-0.395877 0.453947,-0.108553 0.28125,-0.5625 0.01945,-0.249825 0.150961,-0.660817 0,-0.8125 -0.400105,-0.126632 -0.290916,0.336455 -0.34375,0.59375 0.02475,0.306861 -0.03779,0.526438 -0.408837,0.4375 -0.229447,-0.06485 -0.803711,0.139533 -0.778969,-0.123778 0.01503,-0.277444 0.07686,-0.652233 0.03156,-0.876222 -0.01516,-0.07517 -0.237812,-0.01085 -0.3125,-0.03125 z m 2.9375,0 c -0.04001,0.186285 -0.112945,0.382206 -0.21875,0.53125 -0.0085,0.180527 -0.237443,0.373592 -0.125,0.59375 0.381526,0.131526 0.309986,-0.190014 0.4375,-0.3125 0.06692,-0.253852 0.140039,-0.388618 0.231261,-0.593805 0.100891,-0.285086 -0.114126,-0.213405 -0.325011,-0.218695 z m 0.53125,0 c -0.158508,0.235434 0.05644,0.33201 0,0.5625 0.102561,0.111768 0.103181,0.320759 0.125,0.5 0.148916,0.178132 0.53034,0.048 0.375,-0.28125 -0.125132,-0.114452 -0.05313,-0.426041 -0.1875,-0.53125 0.04777,-0.287059 -0.06309,-0.261156 -0.3125,-0.25 z m 9.78125,0 c -0.07285,0.299608 -0.07193,0.71682 -0.125,1.09375 0.137767,0.01072 0.62742,0.145705 0.635488,-0.09418 0.05805,-0.251622 0.195116,-0.390201 0.239512,-0.655824 0.202858,-0.153799 0.07487,-0.483111 -0.25,-0.34375 -0.05146,0.188121 -0.104864,0.374303 -0.1875,0.53125 -0.05146,-0.15838 0.147506,-0.667172 -0.25,-0.53125 l -0.03125,0 -0.03125,0 z m -17.5625,3.25 c 0.07708,0.358329 -0.448006,0.114494 -0.3125,0.53125 0.0016,0.259989 -0.160957,0.68084 0,0.84375 0.310665,-0.04854 0.01946,0.468249 0.5,0.28125 0.3125,0 0.625,0 0.9375,0 -0.06208,0.323878 -0.03783,0.577839 -0.09375,0.90625 -0.417724,0.01978 -0.915512,-0.04051 -1.28125,0.03125 -0.124844,0.396539 0.180237,0.363154 0.471337,0.34375 0.291017,-0.02062 0.664783,0.04151 0.903663,-0.03125 -0.114627,-0.395877 0.453947,-0.108553 0.28125,-0.5625 0.02134,-0.248796 0.150942,-0.659738 0,-0.8125 -0.496034,-0.103896 0.22129,-0.08649 0.125,-0.375 0.01318,-0.289814 0.08068,-0.667289 0.03125,-0.90625 -0.347672,0.08726 -0.105124,-0.41571 -0.53125,-0.25 -0.34375,0 -0.6875,0 -1.03125,0 z m 2.40625,0 c -0.151503,0.27927 0.0462,0.47655 0.376294,0.375 0.291235,0 0.582471,0 0.873706,0 -0.06208,0.323878 -0.03783,0.577839 -0.09375,0.90625 -0.417137,0.02036 -0.917249,-0.04225 -1.28125,0.03125 -0.02855,0.299861 -0.405,0.18215 -0.3125,0.5625 0.06402,0.245241 -0.157772,0.640333 0,0.78125 0.310508,-0.03967 0.086,0.455664 0.53125,0.28125 0.332578,-0.02159 0.750092,0.04176 1.03125,-0.03125 0.183653,-0.410261 -0.180439,-0.358582 -0.471337,-0.34375 -0.241364,-0.03945 -0.643697,0.08206 -0.778663,-0.06379 -0.004,-0.283275 0.08858,-0.556992 0.0625,-0.842456 0.427591,-0.02033 0.936696,0.04086 1.3125,-0.03125 -0.114627,-0.395877 0.453947,-0.108553 0.28125,-0.5625 0.02134,-0.248796 0.150942,-0.659738 0,-0.8125 -0.290783,0.04303 -0.04462,-0.422385 -0.5,-0.25 -0.34375,0 -0.6875,0 -1.03125,0 z m 5.59375,0 c 0.0199,0.332692 -0.442734,0.145333 -0.34375,0.5625 0.02164,0.249357 -0.09789,0.561234 -0.03125,0.78125 0.469616,0.107562 -0.07276,0.112458 -0.0625,0.345044 -0.02417,0.280497 -0.0613,0.61722 -0.09375,0.936206 0.35417,-0.08334 0.114442,0.427225 0.5,0.3125 0.363661,-0.02175 0.812827,0.04199 1.125,-0.03125 -0.06493,-0.379039 0.43182,-0.133162 0.3125,-0.5625 0.01042,-0.256626 0.04574,-0.496291 0.0625,-0.78125 -0.332925,0.07251 -0.134597,-0.386236 -0.5,-0.28125 -0.34375,0 -0.6875,0 -1.03125,0 0.07001,-0.313969 0.06672,-0.618897 0.09375,-0.90625 0.415693,-0.02181 0.916972,0.04197 1.28125,-0.03125 0.190689,-0.425471 -0.2068,-0.352393 -0.5,-0.34375 -0.270833,0 -0.541667,0 -0.8125,0 z m 2.40625,0 c 0.0199,0.332692 -0.442734,0.145333 -0.34375,0.5625 0.02164,0.249357 -0.09789,0.561234 -0.03125,0.78125 0.490008,0.124939 -0.06181,0.103848 -0.0625,0.345044 0.01935,0.313992 -0.13476,0.701629 -0.03125,0.967456 0.373468,-0.101341 0.01733,0.466678 0.5,0.28125 0.343247,-0.02134 0.770812,0.04165 1.0625,-0.03125 -0.06493,-0.379039 0.43182,-0.133162 0.3125,-0.5625 0.04121,-0.287856 0.05523,-0.503371 0.0625,-0.78125 -0.432942,-0.06539 -0.12108,-0.153666 0.03125,-0.28125 0.0179,-0.308493 0.06591,-0.654666 0.09375,-1 -0.332925,0.07251 -0.134597,-0.386236 -0.5,-0.28125 -0.364583,0 -0.729167,0 -1.09375,0 z m 5.5625,0 c 0.09446,0.355739 -0.406852,0.115706 -0.3125,0.471337 -0.03632,0.246068 -0.0596,0.582738 -0.09375,0.872413 0.250391,0.143428 0.446293,-0.03209 0.40625,-0.28125 0.06469,-0.212977 -0.10297,-0.719694 0.190087,-0.6875 0.342888,0 0.685775,0 1.028663,0 0.02625,0.326008 -0.136427,0.722877 -0.03125,1 0.356864,0.117715 0.363333,-0.202233 0.34375,-0.471337 0.004,-0.151964 0.132293,-0.558299 0,-0.653663 -0.292282,0.03187 -0.111491,-0.409343 -0.53125,-0.25 -0.333333,0 -0.666667,0 -1,0 z m 2.40625,0 c 0.07708,0.358329 -0.448006,0.114494 -0.3125,0.53125 -0.02919,0.297969 -0.05547,0.532722 -0.0625,0.8125 0.21926,0.131295 0.449864,-0.02037 0.375,-0.3125 0.07552,-0.203983 -0.100071,-0.701443 0.25,-0.65625 0.322917,0 0.645833,0 0.96875,0 -2.41e-4,0.348238 -0.06284,0.647672 -0.0625,0.96875 0.250853,0.147101 0.431275,-0.05169 0.387511,-0.343805 0.0033,-0.269313 0.09469,-0.531978 0.01874,-0.749945 -0.347672,0.08726 -0.105124,-0.41571 -0.53125,-0.25 -0.34375,0 -0.6875,0 -1.03125,0 z m 3.0625,0 c -0.151503,0.27927 0.0462,0.47655 0.376294,0.375 0.291235,0 0.582471,0 0.873706,0 -0.06208,0.323878 -0.03783,0.577839 -0.09375,0.90625 -0.417137,0.02036 -0.917249,-0.04225 -1.28125,0.03125 -0.02855,0.299861 -0.405,0.18215 -0.3125,0.5625 0.06402,0.245241 -0.157772,0.640333 0,0.78125 0.310508,-0.03967 0.086,0.455664 0.53125,0.28125 0.332578,-0.02159 0.750092,0.04176 1.03125,-0.03125 0.183653,-0.410261 -0.180439,-0.358582 -0.471337,-0.34375 -0.241364,-0.03945 -0.643697,0.08206 -0.778663,-0.06379 -0.004,-0.283275 0.08858,-0.556992 0.0625,-0.842456 0.427591,-0.02033 0.936696,0.04086 1.3125,-0.03125 -0.114627,-0.395877 0.453947,-0.108553 0.28125,-0.5625 0.02134,-0.248796 0.150942,-0.659738 0,-0.8125 -0.290783,0.04303 -0.04461,-0.422385 -0.5,-0.25 -0.34375,0 -0.6875,0 -1.03125,0 z m 2.4375,0 c 0.0199,0.332692 -0.442734,0.145333 -0.34375,0.5625 0.02165,0.249357 -0.09789,0.561234 -0.03125,0.78125 0.320195,0.182211 0.38439,-0.114802 0.368772,-0.406359 0.08338,-0.226622 -0.09897,-0.681795 0.287478,-0.562391 0.3125,0 0.625,0 0.9375,0 -0.01712,0.299588 -0.06272,0.634028 -0.09375,0.96875 0.250391,0.143428 0.446293,-0.03209 0.40625,-0.28125 -0.04218,-0.263764 0.113631,-0.601525 0.03125,-0.8125 -0.347672,0.08726 -0.105124,-0.41571 -0.53125,-0.25 -0.34375,0 -0.6875,0 -1.03125,0 z m 2.40625,0 c 0.09446,0.355739 -0.406852,0.115706 -0.3125,0.471337 -0.03632,0.246068 -0.0596,0.582738 -0.09375,0.872413 0.250391,0.143428 0.446293,-0.03209 0.40625,-0.28125 0.06469,-0.212977 -0.10297,-0.719694 0.190087,-0.6875 0.342888,0 0.685775,0 1.028663,0 0.02625,0.326008 -0.136427,0.722877 -0.03125,1 0.356864,0.117715 0.363333,-0.202233 0.34375,-0.471337 0.004,-0.151964 0.132293,-0.558299 0,-0.653663 -0.292282,0.03187 -0.111491,-0.409343 -0.53125,-0.25 -0.333333,0 -0.666667,0 -1,0 z m -27.4375,0.25 c -0.06769,0.304435 -0.07241,0.715112 -0.125,1.09375 0.221971,0.126192 0.490891,7.93e-4 0.40625,-0.3125 -0.05688,-0.244034 0.159539,-0.641285 0,-0.78125 -0.09375,0 -0.1875,0 -0.28125,0 z m 8,0 c -0.08865,0.237981 -0.06607,0.550155 -0.09375,0.8125 -0.200109,0.31356 0.219517,0.416841 0.34375,0.25 -0.02967,-0.347934 0.138607,-0.76305 0.03125,-1.0625 -0.09375,0 -0.1875,0 -0.28125,0 z m 7.96875,0 c -0.06769,0.304435 -0.07241,0.715112 -0.125,1.09375 0.221971,0.126192 0.490891,7.93e-4 0.40625,-0.3125 -0.05688,-0.244034 0.159539,-0.641285 0,-0.78125 -0.09375,0 -0.1875,0 -0.28125,0 z m -14.75,0.125 c 0.385417,0 0.770833,0 1.15625,0 -0.0015,0.321896 -0.05333,0.617317 -0.0625,0.90625 -0.395833,0 -0.791667,0 -1.1875,0 0.06513,-0.320533 0.03394,-0.581243 0.09375,-0.90625 z m 10.375,0 c 0.395833,0 0.791667,0 1.1875,0 -0.0224,0.281377 -0.04597,0.592151 -0.09375,0.90625 -0.385417,0 -0.770833,0 -1.15625,0 -0.01632,-0.305789 0.08971,-0.599326 0.0625,-0.90625 z m -11.71875,1.15625 c -0.06354,0.257969 -0.04469,0.673994 -0.09375,0.938794 -0.100436,0.291067 0.467664,0.261293 0.375,-0.03254 0.01318,-0.289814 0.08068,-0.667289 0.03125,-0.90625 -0.104167,0 -0.208333,0 -0.3125,0 z m 8,0 c -0.06089,0.304218 -0.09355,0.710928 -0.09375,1.09375 0.21926,0.131295 0.449864,-0.02037 0.375,-0.3125 -0.0076,-0.225326 0.09544,-0.545401 0.03125,-0.75 -0.01516,-0.07517 -0.237812,-0.01085 -0.3125,-0.03125 z m 7.96875,0 c -0.06354,0.257969 -0.04469,0.673994 -0.09375,0.938794 -0.100436,0.291067 0.467664,0.261293 0.375,-0.03254 0.01318,-0.289814 0.08068,-0.667289 0.03125,-0.90625 -0.104167,0 -0.208333,0 -0.3125,0 z m 0.875,0 c -0.06354,0.257969 -0.04469,0.673994 -0.09375,0.938794 -0.01362,0.281517 0.327689,0.148628 0.25,0.467456 0.448513,-0.02024 0.977708,0.04021 1.375,-0.03125 -0.114627,-0.395877 0.453947,-0.108553 0.28125,-0.5625 0.02134,-0.248796 0.150942,-0.659738 0,-0.8125 -0.400105,-0.126632 -0.290916,0.336455 -0.34375,0.59375 0.02475,0.306861 -0.03779,0.526438 -0.408837,0.4375 -0.229447,-0.06485 -0.803711,0.139533 -0.778969,-0.123778 0.01428,-0.27767 0.07701,-0.650172 0.03156,-0.876222 -0.02879,-0.07721 -0.224913,-0.0097 -0.3125,-0.03125 z m 2.4375,0 c -0.08865,0.237981 -0.06607,0.550155 -0.09375,0.8125 -0.219764,0.430032 0.340751,0.178962 0.21875,0.5625 0.385836,0.0725 0.90678,0.0099 1.34375,0.03125 -0.08601,-0.367265 0.412467,-0.150033 0.3125,-0.53125 0.0048,-0.281195 0.134134,-0.642955 0.0625,-0.875 -0.395651,-0.124386 -0.354093,0.188436 -0.375,0.438794 -0.04664,0.220551 0.0684,0.690562 -0.28125,0.592456 -0.3125,0 -0.625,0 -0.9375,0 -0.02009,-0.352018 0.110901,-0.720983 0.03125,-1 -0.02058,-0.07497 -0.200806,-0.01247 -0.28125,-0.03125 z m 5.46875,0 c -0.03976,0.308692 -0.102666,0.733548 -0.09375,1.09375 0.365523,-0.08667 0.06284,0.402344 0.440087,0.3125 0.373359,-0.02161 0.831764,0.04182 1.153663,-0.03125 -0.06493,-0.379039 0.43182,-0.133162 0.3125,-0.5625 0.04121,-0.287856 0.05523,-0.503371 0.0625,-0.78125 -0.288128,-0.15238 -0.459855,0.04785 -0.387511,0.375055 -0.109567,0.220161 0.103108,0.720825 -0.268739,0.624945 -0.322917,0 -0.645833,0 -0.96875,0 0.01789,-0.308493 0.06591,-0.654666 0.09375,-1 -0.06737,-0.0578 -0.226813,-0.02235 -0.34375,-0.03125 z m 2.40625,0 c -0.06354,0.257969 -0.04469,0.673994 -0.09375,0.938794 -0.01362,0.281517 0.327689,0.148628 0.25,0.467456 0.448513,-0.02024 0.977708,0.04021 1.375,-0.03125 -0.114627,-0.395877 0.453947,-0.108553 0.28125,-0.5625 0.02134,-0.248796 0.150942,-0.659738 0,-0.8125 -0.400105,-0.126632 -0.290916,0.336455 -0.34375,0.59375 0.02475,0.306861 -0.03779,0.526438 -0.408837,0.4375 -0.229447,-0.06485 -0.803711,0.139533 -0.778969,-0.123778 0.01428,-0.27767 0.07701,-0.650172 0.03156,-0.876222 -0.02879,-0.07721 -0.224913,-0.0097 -0.3125,-0.03125 z m -17.96875,0.125 c 0.395833,0 0.791667,0 1.1875,0 0.01629,0.305759 -0.08968,0.599412 -0.0625,0.90625 -0.395833,0 -0.791667,0 -1.1875,0 0.01166,-0.282786 0.07295,-0.585249 0.0625,-0.90625 z m 2.4375,0 c 0.385417,0 0.770833,0 1.15625,0 0.01629,0.305759 -0.08968,0.599412 -0.0625,0.90625 -0.395833,0 -0.791667,0 -1.1875,0 0.02368,-0.282918 0.04326,-0.58892 0.09375,-0.90625 z m -6.09375,1.0625 c -0.153119,0.204443 0.05936,0.486018 0.28125,0.3125 0.162099,-0.273044 0.03353,-0.3644 -0.28125,-0.3125 z m 7.96875,0 c -0.153119,0.204443 0.05936,0.486018 0.28125,0.3125 0.162099,-0.273044 0.03353,-0.3644 -0.28125,-0.3125 z m 8,0 c -0.153119,0.204443 0.05936,0.486018 0.28125,0.3125 0.112268,-0.242123 0.01785,-0.37398 -0.28125,-0.3125 z" fill="#aabce8" fill-opacity="1" stroke="none" inkscape:connector-curvature="0"/>
    <use xlink:href="#SVGCleanerId_2" fill="#d4ff2a" inkscape:connector-curvature="0" transform="matrix(0.87996 0 0 0.93172 4.111 1.614)"/>
    <use xlink:href="#SVGCleanerId_2" fill="#ffa000" inkscape:connector-curvature="0" transform="matrix(0.87996 0 0 0.93172 8.111 1.614)"/>
    <use xlink:href="#SVGCleanerId_2" fill="#d4ff2a" inkscape:connector-curvature="0" transform="matrix(0.87996 0 0 0.93172 12.11 1.614)"/>
    <use xlink:href="#SVGCleanerId_2" fill="#ff4d2a" inkscape:connector-curvature="0" transform="matrix(0.87996 0 0 0.93172 16.11 1.614)"/>
    <g id="g6086">
     <path d="m 33.96875,50.28125 c -0.08293,0.586381 -0.398414,1.098443 -0.875,1.40625 l 0,4.625 C 33.645277,56.668709 34,57.295057 34,58 c 10e-7,0.704943 -0.354722,1.331291 -0.90625,1.6875 l 0,4.625 C 33.645277,64.668709 34,65.295057 34,66 c 10e-7,0.704943 -0.354722,1.331291 -0.90625,1.6875 l 0,4.625 C 33.645277,72.668709 34,73.295057 34,74 c 10e-7,0.704943 -0.354722,1.331291 -0.90625,1.6875 l 0,2 0.9375,0 C 34.181467,76.731821 35.002341,76 36,76 c 0.99766,0 1.818534,0.731821 1.96875,1.6875 l 4.0625,0 C 42.181467,76.731821 43.002341,76 44,76 c 0.519642,0 0.988018,0.20598 1.34375,0.53125 l 0,-5.0625 C 44.988018,71.79402 44.519641,72 44,72 c -1.103999,0 -2,-0.896 -2,-2 10e-7,-1.104 0.896,-2 2,-2 0.519642,0 0.988018,0.20598 1.34375,0.53125 l 0,-5.0625 C 44.988018,63.79402 44.519641,64 44,64 c -1.103999,0 -2,-0.896 -2,-2 10e-7,-1.104 0.896,-2 2,-2 0.519642,0 0.988018,0.20598 1.34375,0.53125 l 0,-5.0625 C 44.988018,55.79402 44.519641,56 44,56 c -1.103999,0 -2,-0.896 -2,-2 10e-7,-1.104 0.896,-2 2,-2 0.519642,0 0.988018,0.20598 1.34375,0.53125 l 0,-2.25 -3.375,0 C 41.831489,51.251769 41.008212,52 40,52 38.991789,52 38.168512,51.251769 38.03125,50.28125 l -4.0625,0 z M 36,52 c 1.104001,0 2,0.896 2,2 10e-7,1.104 -0.896,2 -2,2 -1.103999,0 -2,-0.896 -2,-2 10e-7,-1.104 0.896,-2 2,-2 z m 4,4 c 1.104001,0 2,0.896 2,2 10e-7,1.104 -0.896,2 -2,2 -1.103999,0 -2,-0.896 -2,-2 10e-7,-1.104 0.896,-2 2,-2 z m -4,4 c 1.104001,0 2,0.896 2,2 10e-7,1.104 -0.896,2 -2,2 -1.103999,0 -2,-0.896 -2,-2 10e-7,-1.104 0.896,-2 2,-2 z m 4,4 c 1.104001,0 2,0.896 2,2 10e-7,1.104 -0.896,2 -2,2 -1.103999,0 -2,-0.896 -2,-2 10e-7,-1.104 0.896,-2 2,-2 z m -4,4 c 1.104001,0 2,0.896 2,2 10e-7,1.104 -0.896,2 -2,2 -1.103999,0 -2,-0.896 -2,-2 10e-7,-1.104 0.896,-2 2,-2 z m 4,4 c 1.104001,0 2,0.896 2,2 10e-7,1.104 -0.896,2 -2,2 -1.103999,0 -2,-0.896 -2,-2 10e-7,-1.104 0.896,-2 2,-2 z" fill="#999999" fill-opacity="1" fill-rule="nonzero" stroke="none" inkscape:connector-curvature="0"/>
     <rect x="30" y="34" fill="#a5a5a5" fill-opacity="1" fill-rule="nonzero" stroke="none" height="50" opacity="0.645" width="18"/>
     <use xlink:href="#SVGCleanerId_3"/>
     <use xlink:href="#SVGCleanerId_3"/>
     <rect x="30" y="32" fill="#000000" fill-opacity="1" fill-rule="nonzero" stroke="none" height="1" width="18"/>
     <rect x="30" y="33" fill="#c4c4c4" fill-opacity="1" fill-rule="nonzero" stroke="none" height="1" width="18"/>
     <rect x="33" y="32" fill="url(#linearGradient5594)" fill-opacity="1" fill-rule="nonzero" stroke="none" height="2" width="12"/>
     <path stroke-opacity="1" d="M 34,68.96875 34,75 c 0,0.554 0.446,1 1,1 0.554,0 1,-0.446 1,-1 l 0,-6.03125 -2,0 z m 4,0 L 38,75 c 0,0.554 0.446,1 1,1 0.554,0 1,-0.446 1,-1 l 0,-6.03125 -2,0 z m 4,0 L 42,75 c 0,0.554 0.446,1 1,1 0.554,0 1,-0.446 1,-1 l 0,-6.03125 -2,0 z" stroke-width="1" fill="none" stroke="#000000" stroke-dasharray="none" filter="url(#filter6045)" stroke-dashoffset="0" stroke-linecap="square" stroke-linejoin="miter" stroke-miterlimit="4" inkscape:connector-curvature="0"/>
     <rect x="30.5" stroke-opacity="1" stroke-width="1" y="34.5" fill="none" stroke="#000000" height="49" stroke-dasharray="none" stroke-dashoffset="0" width="17" stroke-linecap="square" stroke-linejoin="miter" stroke-miterlimit="4"/>
     <path d="m 32,72 0,10 14,0 0,-10 -2,0 0,3 c 0,0.554 -0.446,1 -1,1 -0.554,0 -1,-0.446 -1,-1 l 0,-3 -2,0 0,3 c 0,0.554 -0.446,1 -1,1 -0.554,0 -1,-0.446 -1,-1 l 0,-3 -2,0 0,3 c 0,0.554 -0.446,1 -1,1 -0.554,0 -1,-0.446 -1,-1 l 0,-3 -2,0 z" fill="url(#linearGradient5596)" fill-opacity="1" fill-rule="nonzero" stroke="none" inkscape:connector-curvature="0"/>
     <path d="m 31,73 0,8 0,2 2,0 12,0 1.09375,0 0.90625,0 0,-10 -2,0 0,8 -12,0 0,-8 -2,0 z" fill="url(#linearGradient5598)" fill-opacity="1" fill-rule="nonzero" stroke="none" inkscape:connector-curvature="0"/>
     <rect x="31" y="72" fill="#000000" fill-opacity="1" fill-rule="nonzero" stroke="none" height="1" width="2"/>
     <rect x="45" y="72" fill="#000000" fill-opacity="1" fill-rule="nonzero" stroke="none" height="1" width="2"/>
     <rect x="33" y="72" fill="url(#linearGradient5600)" fill-opacity="1" fill-rule="nonzero" stroke="none" height="9" width="1"/>
     <rect x="-45" y="72" fill="url(#linearGradient5602)" fill-opacity="1" fill-rule="nonzero" stroke="none" height="9" width="1" transform="matrix(-1 0 0 1 0 0)"/>
     <rect x="30.536" y="34.813" fill="#000000" fill-opacity="1" fill-rule="nonzero" stroke="none" height="7.188" width="16.875"/>
     <rect x="33" y="36" fill="url(#linearGradient5604)" fill-opacity="1" fill-rule="nonzero" stroke="none" height="2" opacity="0.6" width="12"/>
     <rect x="33" y="39.07" fill="url(#linearGradient5606)" fill-opacity="1" fill-rule="nonzero" stroke="none" height="1.821" width="12"/>
     <rect x="31" y="36" fill="#545454" fill-opacity="1" fill-rule="nonzero" stroke="none" height="5" width="1"/>
     <rect x="46" y="36" fill="#545454" fill-opacity="1" fill-rule="nonzero" stroke="none" height="5" width="1"/>
     <path stroke-opacity="1" d="M 34,51.5 34,67 c 0,0.554 0.446,1 1,1 0.554,0 1,-0.446 1,-1 L 36,53.28125 C 35.212562,52.833764 34.518369,52.238163 34,51.5 z m 10,0 c -0.518369,0.738163 -1.212562,1.333764 -2,1.78125 L 42,67 c 0,0.554 0.446,1 1,1 0.554,0 1,-0.446 1,-1 l 0,-15.5 z m -6,2.5 0,13 c 0,0.554 0.446,1 1,1 0.554,0 1,-0.446 1,-1 l 0,-13 c -0.327491,0.05456 -0.657101,0.09375 -1,0.09375 -0.342899,0 -0.672508,-0.03919 -1,-0.09375 z" stroke-width="1" fill="none" stroke="#000000" stroke-dasharray="none" filter="url(#filter6036)" stroke-dashoffset="0" stroke-linecap="square" stroke-linejoin="miter" stroke-miterlimit="4" inkscape:connector-curvature="0"/>
     <path d="m 31,42 0,30 16,0 0,-30 -16,0 z m 3,9.5 c 0.518369,0.738163 1.212562,1.333764 2,1.78125 L 36,67 c 0,0.554 -0.446,1 -1,1 -0.554,0 -1,-0.446 -1,-1 l 0,-15.5 z m 10,0 0,15.5 c 0,0.554 -0.446,1 -1,1 -0.554,0 -1,-0.446 -1,-1 L 42,53.28125 C 42.787438,52.833764 43.481631,52.238163 44,51.5 z M 38,54 c 0.327492,0.05456 0.657101,0.09375 1,0.09375 0.342899,0 0.672509,-0.03919 1,-0.09375 l 0,13 c 0,0.554 -0.446,1 -1,1 -0.554,0 -1,-0.446 -1,-1 l 0,-13 z" fill="url(#linearGradient5608)" fill-opacity="1" fill-rule="nonzero" stroke="none" inkscape:connector-curvature="0"/>
     <rect x="72" y="-45" fill="url(#linearGradient5610)" fill-opacity="1" fill-rule="nonzero" stroke="none" height="12" width="2" transform="matrix(0 1 -1 0 0 0)"/>
     <use xlink:href="#SVGCleanerId_0" fill="url(#linearGradient6142)" fill-opacity="1" fill-rule="nonzero" stroke="none" inkscape:connector-curvature="0" transform="matrix(0 1.23467 -1.23467 0 98.26 -0.017)"/>
     <use stroke-opacity="1" stroke-width="1.131" xlink:href="#SVGCleanerId_0" fill="#c6c6c6" fill-opacity="1" fill-rule="nonzero" stroke="#000000" stroke-dasharray="none" stroke-dashoffset="0" stroke-linecap="square" stroke-linejoin="miter" stroke-miterlimit="4" inkscape:connector-curvature="0" transform="matrix(0.8839 0 0 0.8839 4.624 5.573)"/>
     <path d="m 34,67 0,1 c 0,0.554 0.446,1 1,1 0.554,0 1,-0.446 1,-1 l 0,-1 c 0,0.554 -0.446,1 -1,1 -0.554,0 -1,-0.446 -1,-1 z m 4,0 0,1 c 0,0.554 0.446,1 1,1 0.554,0 1,-0.446 1,-1 l 0,-1 c 0,0.554 -0.446,1 -1,1 -0.554,0 -1,-0.446 -1,-1 z m 4,0 0,1 c 0,0.554 0.446,1 1,1 0.554,0 1,-0.446 1,-1 l 0,-1 c 0,0.554 -0.446,1 -1,1 -0.554,0 -1,-0.446 -1,-1 z" fill="#ffffff" fill-opacity="1" fill-rule="nonzero" stroke="none" opacity="0.15" inkscape:connector-curvature="0"/>
     <use stroke-opacity="1" stroke-width="1.584" xlink:href="#SVGCleanerId_0" fill="none" stroke="url(#linearGradient5614)" stroke-dasharray="none" stroke-dashoffset="0" stroke-linecap="square" stroke-linejoin="miter" stroke-miterlimit="4" inkscape:connector-curvature="0" transform="matrix(0 0.63136 -0.63136 0 69.31 23.446)"/>
     <path d="m 39,46.5 c -0.832271,0 -1.531249,0.698979 -1.53125,1.53125 0,0.69356 0.512811,1.263667 1.15625,1.4375 l 0,0.5 0.6875,0 0,-0.46875 C 39.997864,49.360814 40.499999,48.759487 40.5,48.03125 40.5,47.198979 39.832271,46.500001 39,46.5 z m 0,0.5 c 0.56174,10e-7 1,0.46951 1,1.03125 -10e-7,0.56174 -0.43826,1 -1,1 -0.56174,-10e-7 -1.03125,-0.43826 -1.03125,-1 C 37.968751,47.46951 38.43826,47 39,47 z" fill="#000000" fill-opacity="1" fill-rule="nonzero" stroke="none" opacity="0.426" inkscape:connector-curvature="0"/>
    </g>
    <use xlink:href="#g6086" height="96" width="96" transform="matrix(1 0 0 1 18 0)"/>
    <use xlink:href="#g6086" height="96" width="96" transform="matrix(1 0 0 1 36 0)"/>
   </g>
  </g>
  <rect x="-96" rx="25" y="958.36" clip-path="url(#clipPath3009)" fill="#ffffff" fill-opacity="1" height="92" opacity="0.15" width="92" transform="matrix(1 0 0 1 98 0)"/>
 </g>
</svg>
