<?xml version="1.0" encoding="UTF-8" standalone="no"?>
<!-- Created with Inkscape (http://www.inkscape.org/) -->

<svg
   xmlns:dc="http://purl.org/dc/elements/1.1/"
   xmlns:cc="http://creativecommons.org/ns#"
   xmlns:rdf="http://www.w3.org/1999/02/22-rdf-syntax-ns#"
   xmlns:svg="http://www.w3.org/2000/svg"
   xmlns="http://www.w3.org/2000/svg"
   xmlns:xlink="http://www.w3.org/1999/xlink"
   xmlns:sodipodi="http://sodipodi.sourceforge.net/DTD/sodipodi-0.dtd"
   xmlns:inkscape="http://www.inkscape.org/namespaces/inkscape"
   width="96"
   height="96"
   id="svg11037"
   version="1.1"
   inkscape:version="0.48.5 r10040"
   sodipodi:docname="gnome-quadrapassel.svg">
  <defs
     id="defs11039">
    <linearGradient
       y2="1046.1001"
       x2="47.999954"
       y1="962.62189"
       x1="47.999954"
       gradientTransform="matrix(1.15,0,0,1.15,-7.1999462,-150.65292)"
       gradientUnits="userSpaceOnUse"
       id="linearGradient11642"
       xlink:href="#linearGradient5979"
       inkscape:collect="always" />
    <linearGradient
       id="linearGradient5979"
       y2="902.35999"
       gradientUnits="userSpaceOnUse"
       x2="48"
       gradientTransform="translate(0,-7.8516e-6)"
       y1="1052.4"
       x1="48">
      <stop
         id="stop3702-5"
         style="stop-color:#2f2f2f"
         offset="0" />
      <stop
         id="stop3704-388"
         style="stop-color:#4f4f4f"
         offset="1" />
    </linearGradient>
    <linearGradient
       inkscape:collect="always"
       xlink:href="#linearGradient3735"
       id="linearGradient3187"
       gradientUnits="userSpaceOnUse"
       x1="-78"
       y1="30"
       x2="-66"
       y2="18" />
    <linearGradient
       id="linearGradient3735">
      <stop
         id="stop3737"
         style="stop-color:#f5ab00"
         offset="0" />
      <stop
         id="stop3740-8"
         style="stop-color:#dd6700"
         offset="1" />
    </linearGradient>
    <linearGradient
       inkscape:collect="always"
       xlink:href="#linearGradient4949"
       id="linearGradient3189"
       gradientUnits="userSpaceOnUse"
       x1="18"
       y1="66"
       x2="30"
       y2="78" />
    <linearGradient
       id="linearGradient4949">
      <stop
         id="stop4951"
         style="stop-color:#fff;stop-opacity:.73643"
         offset="0" />
      <stop
         id="stop4957"
         style="stop-color:#7f7f7f;stop-opacity:0"
         offset=".5" />
      <stop
         id="stop4953"
         offset="1" />
    </linearGradient>
    <linearGradient
       inkscape:collect="always"
       xlink:href="#linearGradient4876-0"
       id="linearGradient3191"
       gradientUnits="userSpaceOnUse"
       x1="-78"
       y1="66"
       x2="-66"
       y2="54" />
    <linearGradient
       id="linearGradient4876-0">
      <stop
         id="stop4878"
         style="stop-color:#1cbedd"
         offset="0" />
      <stop
         id="stop4880"
         style="stop-color:#117089"
         offset="1" />
    </linearGradient>
    <linearGradient
       inkscape:collect="always"
       xlink:href="#linearGradient4949"
       id="linearGradient3193"
       gradientUnits="userSpaceOnUse"
       x1="54"
       y1="66"
       x2="66"
       y2="78" />
    <linearGradient
       inkscape:collect="always"
       xlink:href="#linearGradient4761"
       id="linearGradient3195"
       gradientUnits="userSpaceOnUse"
       x1="-30"
       y1="57"
       x2="-18"
       y2="45" />
    <linearGradient
       id="linearGradient4761">
      <stop
         id="stop4763"
         style="stop-color:#ff355f"
         offset="0" />
      <stop
         id="stop4765"
         style="stop-color:#f10022"
         offset="1" />
    </linearGradient>
    <linearGradient
       inkscape:collect="always"
       xlink:href="#linearGradient4949"
       id="linearGradient3197"
       gradientUnits="userSpaceOnUse"
       x1="45"
       y1="18"
       x2="57"
       y2="30" />
    <linearGradient
       inkscape:collect="always"
       xlink:href="#linearGradient4761"
       id="linearGradient3199"
       gradientUnits="userSpaceOnUse"
       x1="-30"
       y1="57"
       x2="-18"
       y2="45" />
    <linearGradient
       inkscape:collect="always"
       xlink:href="#linearGradient4949"
       id="linearGradient3201"
       gradientUnits="userSpaceOnUse"
       x1="45"
       y1="18"
       x2="57"
       y2="30" />
    <linearGradient
       inkscape:collect="always"
       xlink:href="#linearGradient4761"
       id="linearGradient3203"
       gradientUnits="userSpaceOnUse"
       x1="-30"
       y1="57"
       x2="-18"
       y2="45" />
    <linearGradient
       inkscape:collect="always"
       xlink:href="#linearGradient4949"
       id="linearGradient3205"
       gradientUnits="userSpaceOnUse"
       x1="45"
       y1="18"
       x2="57"
       y2="30" />
    <linearGradient
       inkscape:collect="always"
       xlink:href="#linearGradient4761"
       id="linearGradient3207"
       gradientUnits="userSpaceOnUse"
       x1="-30"
       y1="57"
       x2="-18"
       y2="45" />
    <linearGradient
       inkscape:collect="always"
       xlink:href="#linearGradient4949"
       id="linearGradient3209"
       gradientUnits="userSpaceOnUse"
       x1="45"
       y1="18"
       x2="57"
       y2="30" />
    <linearGradient
       inkscape:collect="always"
       xlink:href="#linearGradient4876-0"
       id="linearGradient3211"
       gradientUnits="userSpaceOnUse"
       x1="-78"
       y1="66"
       x2="-66"
       y2="54" />
    <linearGradient
       inkscape:collect="always"
       xlink:href="#linearGradient4949"
       id="linearGradient3213"
       gradientUnits="userSpaceOnUse"
       x1="54"
       y1="66"
       x2="66"
       y2="78" />
    <linearGradient
       inkscape:collect="always"
       xlink:href="#linearGradient4876-0"
       id="linearGradient3215"
       gradientUnits="userSpaceOnUse"
       x1="-78"
       y1="66"
       x2="-66"
       y2="54" />
    <linearGradient
       inkscape:collect="always"
       xlink:href="#linearGradient4949"
       id="linearGradient3217"
       gradientUnits="userSpaceOnUse"
       x1="54"
       y1="66"
       x2="66"
       y2="78" />
    <linearGradient
       inkscape:collect="always"
       xlink:href="#linearGradient4876-0"
       id="linearGradient3219"
       gradientUnits="userSpaceOnUse"
       x1="-78"
       y1="66"
       x2="-66"
       y2="54" />
    <linearGradient
       inkscape:collect="always"
       xlink:href="#linearGradient4949"
       id="linearGradient3221"
       gradientUnits="userSpaceOnUse"
       x1="54"
       y1="66"
       x2="66"
       y2="78" />
    <linearGradient
       inkscape:collect="always"
       xlink:href="#linearGradient3735"
       id="linearGradient3223"
       gradientUnits="userSpaceOnUse"
       x1="-78"
       y1="30"
       x2="-66"
       y2="18" />
    <linearGradient
       inkscape:collect="always"
       xlink:href="#linearGradient4949"
       id="linearGradient3225"
       gradientUnits="userSpaceOnUse"
       x1="18"
       y1="66"
       x2="30"
       y2="78" />
    <linearGradient
       inkscape:collect="always"
       xlink:href="#linearGradient3735"
       id="linearGradient3227"
       gradientUnits="userSpaceOnUse"
       x1="-78"
       y1="30"
       x2="-66"
       y2="18" />
    <linearGradient
       inkscape:collect="always"
       xlink:href="#linearGradient4949"
       id="linearGradient3229"
       gradientUnits="userSpaceOnUse"
       x1="18"
       y1="66"
       x2="30"
       y2="78" />
    <linearGradient
       inkscape:collect="always"
       xlink:href="#linearGradient3735"
       id="linearGradient3231"
       gradientUnits="userSpaceOnUse"
       x1="-78"
       y1="30"
       x2="-66"
       y2="18" />
    <linearGradient
       inkscape:collect="always"
       xlink:href="#linearGradient4949"
       id="linearGradient3233"
       gradientUnits="userSpaceOnUse"
       x1="18"
       y1="66"
       x2="30"
       y2="78" />
    <clipPath
       clipPathUnits="userSpaceOnUse"
       id="clipPath3009">
      <path
         id="path3011"
         d="m -2,956.36218 -96,0 0,33.5624 96,25.68742 0,-59.24982 z"
         style="opacity:0.15;fill:#ffffff;fill-opacity:1;stroke:none"
         inkscape:connector-curvature="0" />
    </clipPath>
  </defs>
  <sodipodi:namedview
     id="base"
     pagecolor="#ffffff"
     bordercolor="#666666"
     borderopacity="1.0"
     inkscape:pageopacity="0.0"
     inkscape:pageshadow="2"
     inkscape:zoom="3.959798"
     inkscape:cx="33.538031"
     inkscape:cy="59.964634"
     inkscape:document-units="px"
     inkscape:current-layer="layer1"
     showgrid="false"
     inkscape:window-width="1280"
     inkscape:window-height="750"
     inkscape:window-x="0"
     inkscape:window-y="22"
     inkscape:window-maximized="1"
     showguides="true"
     inkscape:guide-bbox="true">
    <sodipodi:guide
       orientation="0,1"
       position="-24.748737,0"
       id="guide11064" />
    <sodipodi:guide
       orientation="0,1"
       position="-23.233509,96"
       id="guide11066" />
    <sodipodi:guide
       orientation="1,0"
       position="0,54.800776"
       id="guide11068" />
    <sodipodi:guide
       orientation="1,0"
       position="96,51.012704"
       id="guide11070" />
    <sodipodi:guide
       orientation="0,1"
       position="-18.94036,48"
       id="guide11072" />
    <sodipodi:guide
       orientation="1,0"
       position="48,79.296975"
       id="guide11074" />
    <sodipodi:guide
       orientation="1,0"
       position="2,75.508903"
       id="guide11076" />
    <sodipodi:guide
       orientation="0,1"
       position="-77.27667,2"
       id="guide11078" />
    <sodipodi:guide
       orientation="1,0"
       position="94,77.781746"
       id="guide11080" />
    <sodipodi:guide
       orientation="0,1"
       position="-65.912454,94"
       id="guide11082" />
  </sodipodi:namedview>
  <metadata
     id="metadata11042">
    <rdf:RDF>
      <cc:Work
         rdf:about="">
        <dc:format>image/svg+xml</dc:format>
        <dc:type
           rdf:resource="http://purl.org/dc/dcmitype/StillImage" />
        <dc:title />
      </cc:Work>
    </rdf:RDF>
  </metadata>
  <g
     inkscape:label="Layer 1"
     inkscape:groupmode="layer"
     id="layer1"
     transform="translate(0,-956.36218)">
    <rect
       x="2"
       y="958.36218"
       width="92"
       height="92"
       style="fill:url(#linearGradient11642);fill-opacity:1.0"
       id="rect3867"
       rx="25"
       ry="25" />
    <g
       id="g3155"
       transform="matrix(0.9,0,0,0.9,4.8,961.19618)">
      <g
         id="g5049">
        <rect
           id="rect3677"
           style="color:#000000;fill:url(#linearGradient3187)"
           transform="matrix(0,-1,1,0,0,0)"
           rx="2"
           ry="2"
           height="12"
           width="12"
           y="18"
           x="-78" />
        <path
           id="rect3746"
           style="opacity:0.5;color:#000000;fill:url(#linearGradient3189)"
           d="m 20,66 c -1.108,0 -2,0.892 -2,2 v 8 c 0,1.108 0.892,2 2,2 h 8 c 1.108,0 2,-0.892 2,-2 v -8 c 0,-1.108 -0.892,-2 -2,-2 h -8 z m 0,1 h 8 c 0.57508,0 1,0.42492 1,1 v 8 c 0,0.57508 -0.42492,1 -1,1 h -8 c -0.57508,0 -1,-0.42492 -1,-1 v -8 c 0,-0.57508 0.42492,-1 1,-1 z"
           inkscape:connector-curvature="0" />
      </g>
      <g
         id="g5003">
        <rect
           id="rect3918"
           style="color:#000000;fill:url(#linearGradient3191)"
           transform="matrix(0,-1,1,0,0,0)"
           rx="2"
           ry="2"
           height="12"
           width="12"
           y="54"
           x="-78" />
        <path
           id="path3922"
           style="opacity:0.5;color:#000000;fill:url(#linearGradient3193)"
           d="m 56,66 c -1.108,0 -2,0.892 -2,2 v 8 c 0,1.108 0.892,2 2,2 h 8 c 1.108,0 2,-0.892 2,-2 v -8 c 0,-1.108 -0.892,-2 -2,-2 h -8 z m 0,1 h 8 c 0.57508,0 1,0.42492 1,1 v 8 c 0,0.57508 -0.42492,1 -1,1 h -8 c -0.57508,0 -1,-0.42492 -1,-1 v -8 c 0,-0.57508 0.42492,-1 1,-1 z"
           inkscape:connector-curvature="0" />
      </g>
      <g
         id="g4074"
         transform="translate(-3,0)">
        <rect
           id="rect3995"
           style="color:#000000;fill:url(#linearGradient3195)"
           transform="matrix(0,-1,1,0,0,0)"
           rx="2"
           ry="2"
           height="12"
           width="12"
           y="45"
           x="-30" />
        <path
           id="path3999"
           style="opacity:0.6;color:#000000;fill:url(#linearGradient3197)"
           d="m 47,18 c -1.108,0 -2,0.892 -2,2 v 8 c 0,1.108 0.892,2 2,2 h 8 c 1.108,0 2,-0.892 2,-2 v -8 c 0,-1.108 -0.892,-2 -2,-2 h -8 z m 0,1 h 8 c 0.57508,0 1,0.42492 1,1 v 8 c 0,0.57508 -0.42492,1 -1,1 h -8 c -0.57508,0 -1,-0.42492 -1,-1 v -8 c 0,-0.57508 0.42492,-1 1,-1 z"
           inkscape:connector-curvature="0" />
      </g>
      <g
         id="g4959"
         transform="translate(9,0)">
        <rect
           id="rect4961"
           style="color:#000000;fill:url(#linearGradient3199)"
           transform="matrix(0,-1,1,0,0,0)"
           rx="2"
           ry="2"
           height="12"
           width="12"
           y="45"
           x="-30" />
        <path
           id="path4963"
           style="opacity:0.6;color:#000000;fill:url(#linearGradient3201)"
           d="m 47,18 c -1.108,0 -2,0.892 -2,2 v 8 c 0,1.108 0.892,2 2,2 h 8 c 1.108,0 2,-0.892 2,-2 v -8 c 0,-1.108 -0.892,-2 -2,-2 h -8 z m 0,1 h 8 c 0.57508,0 1,0.42492 1,1 v 8 c 0,0.57508 -0.42492,1 -1,1 h -8 c -0.57508,0 -1,-0.42492 -1,-1 v -8 c 0,-0.57508 0.42492,-1 1,-1 z"
           inkscape:connector-curvature="0" />
      </g>
      <g
         id="g4969"
         transform="translate(21,0)">
        <rect
           id="rect4971"
           style="color:#000000;fill:url(#linearGradient3203)"
           transform="matrix(0,-1,1,0,0,0)"
           rx="2"
           ry="2"
           height="12"
           width="12"
           y="45"
           x="-30" />
        <path
           id="path4973"
           style="opacity:0.6;color:#000000;fill:url(#linearGradient3205)"
           d="m 47,18 c -1.108,0 -2,0.892 -2,2 v 8 c 0,1.108 0.892,2 2,2 h 8 c 1.108,0 2,-0.892 2,-2 v -8 c 0,-1.108 -0.892,-2 -2,-2 h -8 z m 0,1 h 8 c 0.57508,0 1,0.42492 1,1 v 8 c 0,0.57508 -0.42492,1 -1,1 h -8 c -0.57508,0 -1,-0.42492 -1,-1 v -8 c 0,-0.57508 0.42492,-1 1,-1 z"
           inkscape:connector-curvature="0" />
      </g>
      <g
         id="g4979"
         transform="translate(21,12)">
        <rect
           id="rect4981"
           style="color:#000000;fill:url(#linearGradient3207)"
           transform="matrix(0,-1,1,0,0,0)"
           rx="2"
           ry="2"
           height="12"
           width="12"
           y="45"
           x="-30" />
        <path
           id="path4983"
           style="opacity:0.6;color:#000000;fill:url(#linearGradient3209)"
           d="m 47,18 c -1.108,0 -2,0.892 -2,2 v 8 c 0,1.108 0.892,2 2,2 h 8 c 1.108,0 2,-0.892 2,-2 v -8 c 0,-1.108 -0.892,-2 -2,-2 h -8 z m 0,1 h 8 c 0.57508,0 1,0.42492 1,1 v 8 c 0,0.57508 -0.42492,1 -1,1 h -8 c -0.57508,0 -1,-0.42492 -1,-1 v -8 c 0,-0.57508 0.42492,-1 1,-1 z"
           inkscape:connector-curvature="0" />
      </g>
      <g
         id="g5007"
         transform="translate(0,-12)">
        <rect
           id="rect5009"
           style="color:#000000;fill:url(#linearGradient3211)"
           transform="matrix(0,-1,1,0,0,0)"
           rx="2"
           ry="2"
           height="12"
           width="12"
           y="54"
           x="-78" />
        <path
           id="path5011"
           style="opacity:0.5;color:#000000;fill:url(#linearGradient3213)"
           d="m 56,66 c -1.108,0 -2,0.892 -2,2 v 8 c 0,1.108 0.892,2 2,2 h 8 c 1.108,0 2,-0.892 2,-2 v -8 c 0,-1.108 -0.892,-2 -2,-2 h -8 z m 0,1 h 8 c 0.57508,0 1,0.42492 1,1 v 8 c 0,0.57508 -0.42492,1 -1,1 h -8 c -0.57508,0 -1,-0.42492 -1,-1 v -8 c 0,-0.57508 0.42492,-1 1,-1 z"
           inkscape:connector-curvature="0" />
      </g>
      <g
         id="g5017"
         transform="translate(-12,-12)">
        <rect
           id="rect5019"
           style="color:#000000;fill:url(#linearGradient3215)"
           transform="matrix(0,-1,1,0,0,0)"
           rx="2"
           ry="2"
           height="12"
           width="12"
           y="54"
           x="-78" />
        <path
           id="path5021"
           style="opacity:0.5;color:#000000;fill:url(#linearGradient3217)"
           d="m 56,66 c -1.108,0 -2,0.892 -2,2 v 8 c 0,1.108 0.892,2 2,2 h 8 c 1.108,0 2,-0.892 2,-2 v -8 c 0,-1.108 -0.892,-2 -2,-2 h -8 z m 0,1 h 8 c 0.57508,0 1,0.42492 1,1 v 8 c 0,0.57508 -0.42492,1 -1,1 h -8 c -0.57508,0 -1,-0.42492 -1,-1 v -8 c 0,-0.57508 0.42492,-1 1,-1 z"
           inkscape:connector-curvature="0" />
      </g>
      <g
         id="g5027"
         transform="translate(-12,-24)">
        <rect
           id="rect5029"
           style="color:#000000;fill:url(#linearGradient3219)"
           transform="matrix(0,-1,1,0,0,0)"
           rx="2"
           ry="2"
           height="12"
           width="12"
           y="54"
           x="-78" />
        <path
           id="path5031"
           style="opacity:0.5;color:#000000;fill:url(#linearGradient3221)"
           d="m 56,66 c -1.108,0 -2,0.892 -2,2 v 8 c 0,1.108 0.892,2 2,2 h 8 c 1.108,0 2,-0.892 2,-2 v -8 c 0,-1.108 -0.892,-2 -2,-2 h -8 z m 0,1 h 8 c 0.57508,0 1,0.42492 1,1 v 8 c 0,0.57508 -0.42492,1 -1,1 h -8 c -0.57508,0 -1,-0.42492 -1,-1 v -8 c 0,-0.57508 0.42492,-1 1,-1 z"
           inkscape:connector-curvature="0" />
      </g>
      <g
         id="g5053"
         transform="translate(12,0)">
        <rect
           id="rect5055"
           style="color:#000000;fill:url(#linearGradient3223)"
           transform="matrix(0,-1,1,0,0,0)"
           rx="2"
           ry="2"
           height="12"
           width="12"
           y="18"
           x="-78" />
        <path
           id="path5057"
           style="opacity:0.5;color:#000000;fill:url(#linearGradient3225)"
           d="m 20,66 c -1.108,0 -2,0.892 -2,2 v 8 c 0,1.108 0.892,2 2,2 h 8 c 1.108,0 2,-0.892 2,-2 v -8 c 0,-1.108 -0.892,-2 -2,-2 h -8 z m 0,1 h 8 c 0.57508,0 1,0.42492 1,1 v 8 c 0,0.57508 -0.42492,1 -1,1 h -8 c -0.57508,0 -1,-0.42492 -1,-1 v -8 c 0,-0.57508 0.42492,-1 1,-1 z"
           inkscape:connector-curvature="0" />
      </g>
      <g
         id="g5063"
         transform="translate(24,0)">
        <rect
           id="rect5065"
           style="color:#000000;fill:url(#linearGradient3227)"
           transform="matrix(0,-1,1,0,0,0)"
           rx="2"
           ry="2"
           height="12"
           width="12"
           y="18"
           x="-78" />
        <path
           id="path5067"
           style="opacity:0.5;color:#000000;fill:url(#linearGradient3229)"
           d="m 20,66 c -1.108,0 -2,0.892 -2,2 v 8 c 0,1.108 0.892,2 2,2 h 8 c 1.108,0 2,-0.892 2,-2 v -8 c 0,-1.108 -0.892,-2 -2,-2 h -8 z m 0,1 h 8 c 0.57508,0 1,0.42492 1,1 v 8 c 0,0.57508 -0.42492,1 -1,1 h -8 c -0.57508,0 -1,-0.42492 -1,-1 v -8 c 0,-0.57508 0.42492,-1 1,-1 z"
           inkscape:connector-curvature="0" />
      </g>
      <g
         id="g5073"
         transform="translate(12,-12)">
        <rect
           id="rect5075"
           style="color:#000000;fill:url(#linearGradient3231)"
           transform="matrix(0,-1,1,0,0,0)"
           rx="2"
           ry="2"
           height="12"
           width="12"
           y="18"
           x="-78" />
        <path
           id="path5077"
           style="opacity:0.5;color:#000000;fill:url(#linearGradient3233)"
           d="m 20,66 c -1.108,0 -2,0.892 -2,2 v 8 c 0,1.108 0.892,2 2,2 h 8 c 1.108,0 2,-0.892 2,-2 v -8 c 0,-1.108 -0.892,-2 -2,-2 h -8 z m 0,1 h 8 c 0.57508,0 1,0.42492 1,1 v 8 c 0,0.57508 -0.42492,1 -1,1 h -8 c -0.57508,0 -1,-0.42492 -1,-1 v -8 c 0,-0.57508 0.42492,-1 1,-1 z"
           inkscape:connector-curvature="0" />
      </g>
    </g>
    <rect
       ry="25"
       rx="25"
       id="rect3003"
       style="opacity:0.15;fill:#ffffff;fill-opacity:1"
       height="92"
       width="92"
       y="958.36218"
       x="-96"
       clip-path="url(#clipPath3009)"
       transform="translate(98,3.8281269e-7)" />
  </g>
</svg>
