<?xml version="1.0" encoding="UTF-8" standalone="no"?>
<!-- Created with Inkscape (http://www.inkscape.org/) -->

<svg
   xmlns:dc="http://purl.org/dc/elements/1.1/"
   xmlns:cc="http://creativecommons.org/ns#"
   xmlns:rdf="http://www.w3.org/1999/02/22-rdf-syntax-ns#"
   xmlns:svg="http://www.w3.org/2000/svg"
   xmlns="http://www.w3.org/2000/svg"
   xmlns:xlink="http://www.w3.org/1999/xlink"
   xmlns:sodipodi="http://sodipodi.sourceforge.net/DTD/sodipodi-0.dtd"
   xmlns:inkscape="http://www.inkscape.org/namespaces/inkscape"
   width="96"
   height="96"
   id="svg11037"
   version="1.1"
   inkscape:version="0.48.5 r10040"
   sodipodi:docname="gnome-swell-foop.svg">
  <defs
     id="defs11039">
    <linearGradient
       y2="1046.1001"
       x2="47.999954"
       y1="962.62189"
       x1="47.999954"
       gradientTransform="matrix(1.15,0,0,1.15,-7.1999462,-150.65292)"
       gradientUnits="userSpaceOnUse"
       id="linearGradient11642"
       xlink:href="#linearGradient10902-1"
       inkscape:collect="always" />
    <linearGradient
       id="linearGradient10902-1"
       y2="902.35999"
       gradientUnits="userSpaceOnUse"
       x2="48"
       gradientTransform="translate(0,-9.6172e-6)"
       y1="1052.4"
       x1="48">
      <stop
         id="stop3702-3-9"
         style="stop-color:#2f2f2f"
         offset="0" />
      <stop
         id="stop3704-9"
         style="stop-color:#4f4f4f"
         offset="1" />
    </linearGradient>
    <radialGradient
       inkscape:collect="always"
       xlink:href="#radialGradient3091"
       id="radialGradient3035"
       gradientUnits="userSpaceOnUse"
       gradientTransform="matrix(1.1875,0,0,-1.125,-8,65.25)"
       cx="32"
       cy="26"
       r="16" />
    <radialGradient
       id="radialGradient3091"
       gradientUnits="userSpaceOnUse"
       cy="26"
       cx="32"
       gradientTransform="matrix(1.1875,0,0,-1.125,-8,65.25)"
       r="16">
      <stop
         id="stop3929"
         style="stop-color:#5db1eb"
         offset="0" />
      <stop
         id="stop3935-1"
         style="stop-color:#3ca0e6"
         offset=".71875" />
      <stop
         id="stop3933-3"
         style="stop-color:#1b90e2"
         offset="1" />
    </radialGradient>
    <linearGradient
       inkscape:collect="always"
       xlink:href="#linearGradient3781-0"
       id="linearGradient3037"
       gradientUnits="userSpaceOnUse"
       gradientTransform="translate(-36,0)"
       x1="61"
       y1="15"
       x2="67.296997"
       y2="38.501999" />
    <linearGradient
       id="linearGradient3781-0">
      <stop
         id="stop3783-2"
         style="stop-color:#fff"
         offset="0" />
      <stop
         id="stop3785"
         style="stop-color:#fff;stop-opacity:0"
         offset="1" />
    </linearGradient>
    <radialGradient
       inkscape:collect="always"
       xlink:href="#linearGradient3957"
       id="radialGradient3039"
       gradientUnits="userSpaceOnUse"
       gradientTransform="matrix(1.1875,0,0,1.125,-6,-5)"
       cx="32"
       cy="40"
       r="16" />
    <linearGradient
       id="linearGradient3957">
      <stop
         id="stop3959-9"
         style="stop-color:#f14848"
         offset="0" />
      <stop
         id="stop3965"
         style="stop-color:#e42323"
         offset=".67188" />
      <stop
         id="stop3963"
         style="stop-color:#c21313"
         offset="1" />
    </linearGradient>
    <linearGradient
       inkscape:collect="always"
       xlink:href="#linearGradient3781-0"
       id="linearGradient3041"
       gradientUnits="userSpaceOnUse"
       x1="61"
       y1="15"
       x2="67.296997"
       y2="38.501999" />
    <radialGradient
       inkscape:collect="always"
       xlink:href="#linearGradient3957"
       id="radialGradient3043"
       gradientUnits="userSpaceOnUse"
       gradientTransform="matrix(1.1875,0,0,1.125,-6,-5)"
       cx="32"
       cy="40"
       r="16" />
    <linearGradient
       inkscape:collect="always"
       xlink:href="#linearGradient3781-0"
       id="linearGradient3045"
       gradientUnits="userSpaceOnUse"
       x1="61"
       y1="15"
       x2="67.296997"
       y2="38.501999" />
    <radialGradient
       inkscape:collect="always"
       xlink:href="#linearGradient3957"
       id="radialGradient3047"
       gradientUnits="userSpaceOnUse"
       gradientTransform="matrix(1.1875,0,0,1.125,-6,-5)"
       cx="32"
       cy="40"
       r="16" />
    <linearGradient
       inkscape:collect="always"
       xlink:href="#linearGradient3781-0"
       id="linearGradient3049"
       gradientUnits="userSpaceOnUse"
       x1="61"
       y1="15"
       x2="67.296997"
       y2="38.501999" />
    <clipPath
       clipPathUnits="userSpaceOnUse"
       id="clipPath3009">
      <path
         id="path3011"
         d="m -2,956.36218 -96,0 0,33.5624 96,25.68742 0,-59.24982 z"
         style="opacity:0.15;fill:#ffffff;fill-opacity:1;stroke:none"
         inkscape:connector-curvature="0" />
    </clipPath>
  </defs>
  <sodipodi:namedview
     id="base"
     pagecolor="#ffffff"
     bordercolor="#666666"
     borderopacity="1.0"
     inkscape:pageopacity="0.0"
     inkscape:pageshadow="2"
     inkscape:zoom="3.959798"
     inkscape:cx="33.538031"
     inkscape:cy="59.964634"
     inkscape:document-units="px"
     inkscape:current-layer="layer1"
     showgrid="false"
     inkscape:window-width="1280"
     inkscape:window-height="750"
     inkscape:window-x="0"
     inkscape:window-y="22"
     inkscape:window-maximized="1"
     showguides="true"
     inkscape:guide-bbox="true">
    <sodipodi:guide
       orientation="0,1"
       position="-24.748737,0"
       id="guide11064" />
    <sodipodi:guide
       orientation="0,1"
       position="-23.233509,96"
       id="guide11066" />
    <sodipodi:guide
       orientation="1,0"
       position="0,54.800776"
       id="guide11068" />
    <sodipodi:guide
       orientation="1,0"
       position="96,51.012704"
       id="guide11070" />
    <sodipodi:guide
       orientation="0,1"
       position="-18.94036,48"
       id="guide11072" />
    <sodipodi:guide
       orientation="1,0"
       position="48,79.296975"
       id="guide11074" />
    <sodipodi:guide
       orientation="1,0"
       position="2,75.508903"
       id="guide11076" />
    <sodipodi:guide
       orientation="0,1"
       position="-77.27667,2"
       id="guide11078" />
    <sodipodi:guide
       orientation="1,0"
       position="94,77.781746"
       id="guide11080" />
    <sodipodi:guide
       orientation="0,1"
       position="-65.912454,94"
       id="guide11082" />
  </sodipodi:namedview>
  <metadata
     id="metadata11042">
    <rdf:RDF>
      <cc:Work
         rdf:about="">
        <dc:format>image/svg+xml</dc:format>
        <dc:type
           rdf:resource="http://purl.org/dc/dcmitype/StillImage" />
        <dc:title />
      </cc:Work>
    </rdf:RDF>
  </metadata>
  <g
     inkscape:label="Layer 1"
     inkscape:groupmode="layer"
     id="layer1"
     transform="translate(0,-956.36218)">
    <rect
       x="2"
       y="958.36218"
       width="92"
       height="92"
       style="fill:url(#linearGradient11642);fill-opacity:1.0"
       id="rect3867"
       rx="25"
       ry="25" />
    <g
       transform="matrix(0.79412,0,0,0.79412,9.88,966.29617)"
       id="g3097">
      <path
         inkscape:connector-curvature="0"
         d="m 46,30 a 16,16 0 1 0 -32,0 16,16 0 0 0 32,0 z"
         style="color:#000000;fill:url(#radialGradient3035)"
         id="path3663" />
      <path
         inkscape:connector-curvature="0"
         d="m 30,15 c -8.2843,0 -15,6.7157 -15,15 0,3.6087 1.283,6.912 3.4062,9.5 -1.525,-2.296 -2.406,-5.038 -2.406,-8 0,-8.008 6.492,-14.5 14.5,-14.5 7.753,0 14.073,6.096 14.469,13.75 0.012,-0.251 0.031,-0.496 0.031,-0.75 0,-8.284 -6.716,-15 -15,-15 z"
         style="opacity:0.4;color:#000000;fill:url(#linearGradient3037)"
         id="path3789" />
      <path
         inkscape:connector-curvature="0"
         d="m 30,14 c -8.8366,0 -16,7.1634 -16,16 0,8.8366 7.1634,16 16,16 8.8366,0 16,-7.1634 16,-16 0,-8.8366 -7.1634,-16 -16,-16 z m 0,0.96875 c 8.3201,0 15.031,6.7111 15.031,15.031 0,8.3201 -6.7111,15.031 -15.031,15.031 -8.3201,0 -15.031,-6.7111 -15.031,-15.031 0,-8.3201 6.7111,-15.031 15.031,-15.031 z"
         style="opacity:0.2;color:#000000"
         id="path3795" />
      <g
         id="g3967">
        <path
           inkscape:connector-curvature="0"
           transform="translate(34,-2)"
           style="color:#000000;fill:url(#radialGradient3039)"
           d="m 48,32 a 16,16 0 1 1 -32,0 16,16 0 1 1 32,0 z"
           id="path3667" />
        <path
           inkscape:connector-curvature="0"
           d="m 66,15 c -8.2843,0 -15,6.7157 -15,15 0,3.6087 1.283,6.912 3.4062,9.5 -1.525,-2.296 -2.406,-5.038 -2.406,-8 0,-8.008 6.492,-14.5 14.5,-14.5 7.753,0 14.073,6.096 14.469,13.75 0.012,-0.251 0.031,-0.496 0.031,-0.75 0,-8.284 -6.716,-15 -15,-15 z"
           style="opacity:0.3;color:#000000;fill:url(#linearGradient3041)"
           id="path3764" />
        <path
           inkscape:connector-curvature="0"
           d="m 66,14 c -8.8366,0 -16,7.1634 -16,16 0,8.8366 7.1634,16 16,16 8.8366,0 16,-7.1634 16,-16 0,-8.8366 -7.1634,-16 -16,-16 z m 0,0.96875 c 8.3201,0 15.031,6.7111 15.031,15.031 0,8.3201 -6.7111,15.031 -15.031,15.031 -8.3201,0 -15.031,-6.7111 -15.031,-15.031 0,-8.3201 6.7111,-15.031 15.031,-15.031 z"
           style="opacity:0.2;color:#000000"
           id="path3802" />
      </g>
      <g
         transform="translate(0,36)"
         id="g3976">
        <path
           inkscape:connector-curvature="0"
           transform="translate(34,-2)"
           style="color:#000000;fill:url(#radialGradient3043)"
           d="m 48,32 a 16,16 0 1 1 -32,0 16,16 0 1 1 32,0 z"
           id="path3978" />
        <path
           inkscape:connector-curvature="0"
           d="m 66,15 c -8.2843,0 -15,6.7157 -15,15 0,3.6087 1.283,6.912 3.4062,9.5 -1.525,-2.296 -2.406,-5.038 -2.406,-8 0,-8.008 6.492,-14.5 14.5,-14.5 7.753,0 14.073,6.096 14.469,13.75 0.012,-0.251 0.031,-0.496 0.031,-0.75 0,-8.284 -6.716,-15 -15,-15 z"
           style="opacity:0.3;color:#000000;fill:url(#linearGradient3045)"
           id="path3980" />
        <path
           inkscape:connector-curvature="0"
           d="m 66,14 c -8.8366,0 -16,7.1634 -16,16 0,8.8366 7.1634,16 16,16 8.8366,0 16,-7.1634 16,-16 0,-8.8366 -7.1634,-16 -16,-16 z m 0,0.96875 c 8.3201,0 15.031,6.7111 15.031,15.031 0,8.3201 -6.7111,15.031 -15.031,15.031 -8.3201,0 -15.031,-6.7111 -15.031,-15.031 0,-8.3201 6.7111,-15.031 15.031,-15.031 z"
           style="opacity:0.2;color:#000000"
           id="path3982" />
      </g>
      <g
         transform="translate(-36,36)"
         id="g3988">
        <path
           inkscape:connector-curvature="0"
           transform="translate(34,-2)"
           style="color:#000000;fill:url(#radialGradient3047)"
           d="m 48,32 a 16,16 0 1 1 -32,0 16,16 0 1 1 32,0 z"
           id="path3990" />
        <path
           inkscape:connector-curvature="0"
           d="m 66,15 c -8.2843,0 -15,6.7157 -15,15 0,3.6087 1.283,6.912 3.4062,9.5 -1.525,-2.296 -2.406,-5.038 -2.406,-8 0,-8.008 6.492,-14.5 14.5,-14.5 7.753,0 14.073,6.096 14.469,13.75 0.012,-0.251 0.031,-0.496 0.031,-0.75 0,-8.284 -6.716,-15 -15,-15 z"
           style="opacity:0.3;color:#000000;fill:url(#linearGradient3049)"
           id="path3992" />
        <path
           inkscape:connector-curvature="0"
           d="m 66,14 c -8.8366,0 -16,7.1634 -16,16 0,8.8366 7.1634,16 16,16 8.8366,0 16,-7.1634 16,-16 0,-8.8366 -7.1634,-16 -16,-16 z m 0,0.96875 c 8.3201,0 15.031,6.7111 15.031,15.031 0,8.3201 -6.7111,15.031 -15.031,15.031 -8.3201,0 -15.031,-6.7111 -15.031,-15.031 0,-8.3201 6.7111,-15.031 15.031,-15.031 z"
           style="opacity:0.2;color:#000000"
           id="path3994" />
      </g>
    </g>
    <rect
       ry="25"
       rx="25"
       id="rect3003"
       style="opacity:0.15;fill:#ffffff;fill-opacity:1"
       height="92"
       width="92"
       y="958.36218"
       x="-96"
       clip-path="url(#clipPath3009)"
       transform="translate(98,3.8281269e-7)" />
  </g>
</svg>
