<svg height="96" width="96" xmlns="http://www.w3.org/2000/svg" xmlns:sodipodi="http://sodipodi.sourceforge.net/DTD/sodipodi-0.dtd" xmlns:inkscape="http://www.inkscape.org/namespaces/inkscape">
 <defs>
  <linearGradient x1="16.16" x2="76.77" gradientUnits="userSpaceOnUse" id="linearGradient3777" inkscape:collect="always" gradientTransform="matrix(0.62642 0.62642 -0.62642 0.62642 47.28 947.17)">
   <stop stop-color="#4b4b4b"/>
   <stop stop-color="#232323" offset="0.374"/>
   <stop stop-color="#5c5c5c" offset="1"/>
  </linearGradient>
 </defs>
 <g inkscape:label="Layer 1" inkscape:groupmode="layer" transform="matrix(1 0 0 1 0 -956.36)">
  <rect x="8" rx="10.769" y="964.36" fill="#e6e6e6" fill-opacity="1" stroke="none" height="80" width="80"/>
  <rect x="15.556" stroke-width="0.425" display="inline" y="985.2" fill="#4d4d4d" color="#000000" fill-opacity="1" fill-rule="nonzero" stroke="#000000" height="38.32" visibility="visible" width="64.888"/>
  <g transform="matrix(0.74274 0 0 0.74274 11.957 258.69)">
   <path d="M 67.50998,1023.1225 A 26.8467,26.8467 0 1 1 29.54337,985.15586 26.8467,26.8467 0 1 1 67.50998,1023.1225 z" fill="url(#linearGradient3777)" inkscape:connector-curvature="0"/>
   <path d="m 48.52578,1030.7613 a 26.62302,26.62302 0 1 1 0,-53.24604 26.62302,26.62302 0 0 1 0,53.24604 z" stroke-width="0.447" fill="#1a1a1a" stroke="#000000" inkscape:connector-curvature="0"/>
   <path d="m 48.52667,1028.3003 a 24.16203,24.16203 0 1 1 0,-48.32404 24.16203,24.16203 0 0 1 0,48.32404 z" fill="#4d4d4d" inkscape:connector-curvature="0"/>
   <path d="m 48.52578,1021.7408 a 17.60252,17.60252 0 1 1 0,-35.20504 17.60252,17.60252 0 0 1 0,35.20504 z" stroke-width="0.895" fill="#ffffff" fill-opacity="1" stroke="#1a1a1a" inkscape:connector-curvature="0"/>
  </g>
  <rect stroke="#000000" stroke-dasharray="none" stroke-dashoffset="0" stroke-linecap="square" height="3.593" stroke-linejoin="round" color="#000000" stroke-miterlimit="4" stroke-opacity="1" stroke-width="0.5" display="inline" visibility="visible" width="7.187" fill="#ececec" fill-opacity="1" x="67.02" fill-rule="nonzero" y="987.68" rx="2" ry="1.796"/>
 </g>
</svg>
