<svg height="96" width="96" xmlns="http://www.w3.org/2000/svg" xmlns:sodipodi="http://sodipodi.sourceforge.net/DTD/sodipodi-0.dtd" xmlns:inkscape="http://www.inkscape.org/namespaces/inkscape">
 <g inkscape:label="Layer 1" inkscape:groupmode="layer" transform="matrix(1 0 0 1 88 -950.36)">
  <rect x="-80" rx="10.769" y="958.36" fill="#1a1a1a" fill-opacity="1" stroke="none" height="80" width="80"/>
  <path d="m -54.658531,1019.2248 a 6.17144,6.17144 0 0 1 -12.34288,0 6.17144,6.17144 0 1 1 12.34288,0 z" fill="#37abc8" color="black" fill-opacity="1" inkscape:connector-curvature="0"/>
  <path d="m -26.887051,1019.2248 a 6.17144,6.17144 0 0 1 -12.34288,0 6.17144,6.17144 0 1 1 12.34288,0 z" fill="#37abc8" color="black" fill-opacity="1" inkscape:connector-curvature="0"/>
  <path d="m -40.772791,1005.339 a 6.17144,6.17144 0 0 1 -12.34288,0 6.17144,6.17144 0 1 1 12.34288,0 z" fill="#37abc8" color="black" fill-opacity="1" inkscape:connector-curvature="0"/>
  <path d="m -26.887051,991.45333 a 6.17144,6.17144 0 0 1 -12.34288,0 6.17144,6.17144 0 1 1 12.34288,0 z" fill="#37abc8" color="black" fill-opacity="1" inkscape:connector-curvature="0"/>
  <path d="m -13.001311,977.56762 a 6.1714401,6.1714401 0 0 1 -12.34288,0 6.1714401,6.1714401 0 1 1 12.34288,0 z" fill="#37abc8" color="black" inkscape:connector-curvature="0"/>
  <path d="m -13.001311,1019.2248 a 6.1714401,6.1714401 0 0 1 -12.34288,0 6.1714401,6.1714401 0 1 1 12.34288,0 z" fill="#71c837" color="black" fill-opacity="1" inkscape:connector-curvature="0"/>
  <path d="m -40.772791,991.45333 a 6.17144,6.17144 0 0 1 -12.34288,0 6.17144,6.17144 0 1 1 12.34288,0 z" fill="#71c837" color="black" fill-opacity="1" inkscape:connector-curvature="0"/>
  <path d="m -54.658531,977.56762 a 6.17144,6.17144 0 0 1 -12.34288,0 6.17144,6.17144 0 1 1 12.34288,0 z" fill="#71c837" color="black" inkscape:connector-curvature="0"/>
  <path d="m -13.001311,1005.339 a 6.1714401,6.1714401 0 0 1 -12.34288,0 6.1714401,6.1714401 0 1 1 12.34288,0 z" fill="#ff2a2a" color="black" fill-opacity="1" inkscape:connector-curvature="0"/>
  <path d="m -40.772791,977.56762 a 6.17144,6.17144 0 0 1 -12.34288,0 6.17144,6.17144 0 1 1 12.34288,0 z" fill="#ff2a2a" color="black" inkscape:connector-curvature="0"/>
 </g>
</svg>
