<?xml version="1.0" encoding="UTF-8" standalone="no"?>
<!-- Created with Inkscape (http://www.inkscape.org/) -->

<svg
   xmlns:dc="http://purl.org/dc/elements/1.1/"
   xmlns:cc="http://creativecommons.org/ns#"
   xmlns:rdf="http://www.w3.org/1999/02/22-rdf-syntax-ns#"
   xmlns:svg="http://www.w3.org/2000/svg"
   xmlns="http://www.w3.org/2000/svg"
   xmlns:xlink="http://www.w3.org/1999/xlink"
   xmlns:sodipodi="http://sodipodi.sourceforge.net/DTD/sodipodi-0.dtd"
   xmlns:inkscape="http://www.inkscape.org/namespaces/inkscape"
   id="svg11037"
   height="96"
   width="96"
   version="1.1"
   inkscape:version="0.48.5 r10040"
   sodipodi:docname="gnome-klotski.svg">
  <sodipodi:namedview
     pagecolor="#ffffff"
     bordercolor="#666666"
     borderopacity="1"
     objecttolerance="10"
     gridtolerance="10"
     guidetolerance="10"
     inkscape:pageopacity="0"
     inkscape:pageshadow="2"
     inkscape:window-width="640"
     inkscape:window-height="480"
     id="namedview22123" />
  <defs
     id="defs11039">
    <linearGradient
       id="linearGradient11642"
       y2="1046.1"
       gradientUnits="userSpaceOnUse"
       y1="962.62"
       gradientTransform="matrix(1.15 0 0 1.15 -7.1999 -150.65)"
       x2="48"
       x1="48">
      <stop
         id="stop3079-4"
         style="stop-color:#2a2a2a"
         offset="0" />
      <stop
         id="stop3081-3"
         style="stop-color:#4b4b4b"
         offset="1" />
    </linearGradient>
    <linearGradient
       id="linearGradient3814"
       y2="48"
       xlink:href="#linearGradient3769"
       gradientUnits="userSpaceOnUse"
       x2="48"
       y1="90"
       x1="48" />
    <linearGradient
       id="linearGradient3769">
      <stop
         id="stop3771"
         style="stop-color:#ea880b"
         offset="0" />
      <stop
         id="stop3773"
         style="stop-color:#f7cc2e"
         offset="1" />
    </linearGradient>
    <linearGradient
       id="linearGradient3812"
       y2="48"
       xlink:href="#linearGradient3769"
       gradientUnits="userSpaceOnUse"
       x2="48"
       gradientTransform="translate(42,-42)"
       y1="90"
       x1="48" />
    <linearGradient
       id="linearGradient3858-8"
       y2="48"
       xlink:href="#linearGradient3700-73"
       gradientUnits="userSpaceOnUse"
       x2="48"
       gradientTransform="matrix(.57143 0 0 .57143 12.571 -11.429)"
       y1="90"
       x1="48" />
    <linearGradient
       id="linearGradient3700-73">
      <stop
         id="stop3702-350"
         style="stop-color:#1d56a5"
         offset="0" />
      <stop
         id="stop3704-1"
         style="stop-color:#5e97ea"
         offset="1" />
    </linearGradient>
    <linearGradient
       id="linearGradient3860"
       y2="48"
       xlink:href="#linearGradient3700-73"
       gradientUnits="userSpaceOnUse"
       x2="48"
       gradientTransform="matrix(.57143 0 0 .57143 52.571 28.571)"
       y1="90"
       x1="48" />
    <linearGradient
       id="linearGradient3783-4"
       y2="69"
       xlink:href="#linearGradient3777-5"
       gradientUnits="userSpaceOnUse"
       x2="38"
       gradientTransform="translate(42,-96)"
       y1="69"
       x1="16" />
    <linearGradient
       id="linearGradient3777-5">
      <stop
         id="stop3779-7"
         style="stop-color:#fff"
         offset="0" />
      <stop
         id="stop3781-0"
         style="stop-color:#fff;stop-opacity:0"
         offset="1" />
    </linearGradient>
    <linearGradient
       id="linearGradient3824"
       y2="69"
       xlink:href="#linearGradient3777-5"
       gradientUnits="userSpaceOnUse"
       x2="38"
       gradientTransform="translate(0,-138)"
       y1="69"
       x1="16" />
    <linearGradient
       id="linearGradient3849"
       y2="72.498"
       xlink:href="#linearGradient3777-5"
       gradientUnits="userSpaceOnUse"
       x2="40"
       y1="8"
       x1="40" />
    <radialGradient
       id="radialGradient3853"
       xlink:href="#linearGradient3777-5"
       gradientUnits="userSpaceOnUse"
       cy="90.172"
       cx="48"
       gradientTransform="matrix(1.1573 0 0 .99591 -7.551 .19713)"
       r="42" />
    <linearGradient
       id="linearGradient3875-6"
       y2="36.1"
       xlink:href="#linearGradient3777-5"
       gradientUnits="userSpaceOnUse"
       x2="27"
       y1="16"
       x1="27" />
    <linearGradient
       id="linearGradient3260"
       x1="27"
       xlink:href="#linearGradient3777-5"
       gradientUnits="userSpaceOnUse"
       x2="27"
       gradientTransform="translate(40,40)"
       y1="16"
       y2="36.1" />
    <clipPath
       id="clipPath3009"
       clipPathUnits="userSpaceOnUse">
      <path
         id="path3011"
         style="opacity:.15;fill:#fff"
         d="m-2 956.36h-96v33.562l96 25.687v-59.25z" />
    </clipPath>
  </defs>
  <metadata
     id="metadata11042">
    <rdf:RDF>
      <cc:Work
         rdf:about="">
        <dc:format>image/svg+xml</dc:format>
        <dc:type
           rdf:resource="http://purl.org/dc/dcmitype/StillImage" />
        <dc:title />
      </cc:Work>
    </rdf:RDF>
  </metadata>
  <g
     id="layer1"
     transform="translate(0 -956.36)">
    <rect
       id="rect3867"
       style="fill:url(#linearGradient11642)"
       rx="25"
       ry="25"
       height="92"
       width="92"
       y="958.36"
       x="2" />
    <g
       id="g9918"
       transform="translate(-182.19 -40.404)">
      <g
         id="g3154"
         transform="matrix(.65476 0 0 .65476 198.76 1013.5)">
        <rect
           id="rect2419"
           style="fill:url(#linearGradient3814)"
           rx="6"
           ry="6"
           height="42"
           width="42"
           y="48"
           x="6" />
        <rect
           id="rect2894"
           style="fill:url(#linearGradient3812)"
           rx="6"
           ry="6"
           height="42"
           width="42"
           y="6"
           x="48" />
        <rect
           id="rect2898"
           style="fill:url(#linearGradient3858-8)"
           rx="3"
           ry="3"
           height="24"
           width="24"
           y="16"
           x="16" />
        <rect
           id="rect2902"
           style="fill:url(#linearGradient3860)"
           rx="3"
           ry="3"
           height="24"
           width="24"
           y="56"
           x="56" />
        <rect
           id="rect3767"
           style="opacity:.4;color:#000000;fill:url(#linearGradient3783-4)"
           transform="rotate(90)"
           height="22"
           width="22"
           y="-38"
           x="58" />
        <path
           id="path3785"
           d="m12 48c-1.662 0-3.1655 0.6655-4.25 1.75l8.25 8.25h22l8.25-8.25c-1.084-1.084-2.588-1.75-4.25-1.75h-30z"
           style="opacity:.15;fill:#fff" />
        <path
           id="path3798"
           d="m12 90c-1.662 0-3.1655-0.666-4.25-1.75l8.25-8.25h22l8.25 8.25c-1.084 1.084-2.588 1.75-4.25 1.75h-30z"
           style="opacity:.2;fill:#803300" />
        <path
           id="path3810"
           d="m48 84c0 1.662-0.6655 3.1655-1.75 4.25l-8.25-8.25v-22l8.25-8.25c1.084 1.084 1.75 2.588 1.75 4.25v30z"
           style="opacity:.1;fill:#803300" />
        <rect
           id="rect3816"
           style="opacity:.4;color:#000000;fill:url(#linearGradient3824)"
           transform="rotate(90)"
           height="22"
           width="22"
           y="-80"
           x="16" />
        <path
           id="path3818"
           d="m54 6c-1.662 0-3.166 0.6655-4.25 1.75l8.25 8.25h22l8.25-8.25c-1.084-1.0845-2.588-1.75-4.25-1.75h-30z"
           style="opacity:.15;fill:#fff" />
        <path
           id="path3820"
           d="m54 48c-1.662 0-3.1655-0.6655-4.25-1.75l8.25-8.25h22l8.25 8.25c-1.084 1.084-2.588 1.75-4.25 1.75h-30z"
           style="opacity:.2;fill:#803300" />
        <path
           id="path3822"
           d="m90 42c0 1.662-0.6655 3.1655-1.75 4.25l-8.25-8.25v-22l8.25-8.25c1.084 1.0845 1.75 2.588 1.75 4.25v30z"
           style="opacity:.1;fill:#803300" />
        <path
           id="rect3826"
           d="m54 6c-3.324 0-6 2.676-6 6v30c0 2.4683 1.473 4.5767 3.5938 5.5-1.615-0.858-2.719-2.526-2.719-4.5v-30c0-2.8525 2.2725-5.125 5.125-5.125h30c2.8525 0 5.125 2.2725 5.125 5.125v30c0 1.9736-1.1036 3.6423-2.7188 4.5 2.121-0.923 3.594-3.032 3.594-5.5v-30c0-3.324-2.676-6-6-6h-30zm-42 42c-3.324 0-6 2.676-6 6v30c0 2.4683 1.473 4.5767 3.5938 5.5-1.6152-0.858-2.7188-2.526-2.7188-4.5v-30c0-2.8525 2.2725-5.125 5.125-5.125h30c2.8525 0 5.125 2.2725 5.125 5.125v30c0 1.9736-1.1036 3.6423-2.7188 4.5 2.121-0.923 3.594-3.032 3.594-5.5v-30c0-3.324-2.676-6-6-6h-30z"
           style="opacity:.4;fill:url(#linearGradient3849)" />
        <path
           id="path3851"
           d="m7 50.688c-0.6306 0.95-1 2.081-1 3.312v30c0 3.324 2.676 6 6 6h30c1.7818 0 3.3717-0.77457 4.4688-2h-34.469c-2.7818 0-5-2.218-5-5v-32.312z"
           style="opacity:.2;fill:url(#radialGradient3853)" />
        <path
           id="rect3862"
           d="m19 16c-1.662 0-3 1.338-3 3v18c0 1.385 0.94722 2.5268 2.2188 2.875-0.73095-0.30518-1.25-1.0235-1.25-1.875v-18c0-1.1354 0.89586-2.0312 2.0312-2.0312h18c1.1354 0 2.0312 0.89586 2.0312 2.0312v18c0 0.85154-0.51905 1.5698-1.25 1.875 1.272-0.348 2.219-1.49 2.219-2.875v-18c0-1.662-1.338-3-3-3h-18z"
           style="opacity:.3;fill:url(#linearGradient3875-6)" />
        <path
           id="path3877"
           d="m59 56c-1.662 0-3 1.338-3 3v18c0 1.385 0.94722 2.5268 2.2188 2.875-0.73095-0.30518-1.25-1.0235-1.25-1.875v-18c0-1.1354 0.89586-2.0312 2.0312-2.0312h18c1.1354 0 2.0312 0.89586 2.0312 2.0312v18c0 0.85154-0.51905 1.5698-1.25 1.875 1.272-0.348 2.219-1.49 2.219-2.875v-18c0-1.662-1.338-3-3-3h-18z"
           style="opacity:.3;fill:url(#linearGradient3260)" />
      </g>
    </g>
    <rect
       id="rect3003"
       style="opacity:.15;fill:#fff"
       transform="translate(98 3.8281e-7)"
       clip-path="url(#clipPath3009)"
       rx="25"
       ry="25"
       height="92"
       width="92"
       y="958.36"
       x="-96" />
  </g>
</svg>
