<svg height="96" width="96" xmlns="http://www.w3.org/2000/svg" xmlns:sodipodi="http://sodipodi.sourceforge.net/DTD/sodipodi-0.dtd" xmlns:inkscape="http://www.inkscape.org/namespaces/inkscape">
 <rect x="8" rx="10.769" y="8" fill="#aa0000" fill-opacity="1" stroke="none" height="80" width="80"/>
 <path d="m 40.265808,21.714928 c -3.723899,0 -8.389342,0.556362 -12.321,3.79903 -2.965254,2.551706 -4.41508,6.068393 -4.414971,9.24075 0,5.379732 4.152889,10.8151 11.465649,10.8151 0.689385,0 1.431755,-0.07052 2.1904,-0.1369 -0.346258,0.827577 -0.6845,1.531856 -0.6845,2.70383 0,2.137066 1.087107,3.446926 2.0535,4.688764 -3.103797,0.20782 -8.901785,0.56266 -13.176351,3.18287 -4.075239,2.41601 -5.306244,5.93599 -5.306244,8.4199 0,5.10549 4.815485,9.8568 14.819151,9.8568 11.867587,0 18.173749,-6.55455 18.173749,-13.03945 0,-4.75985 -2.78367,-7.10007 -5.81825,-9.651448 l -2.4642,-1.951646 c -0.758634,-0.622216 -1.81387,-1.42595 -1.81387,-2.94335 0,-1.518495 1.056835,-2.491799 1.95077,-3.38833 2.899213,-2.275935 5.78397,-4.682856 5.78397,-9.78835 v -0.513375 l -0.03422,-0.444925 -0.03422,-0.47915 -0.06845,-0.444925 -0.102675,-0.4107 -0.06845,-0.4107 -0.102675,-0.4107 -0.1369,-0.376475 -0.1369,-0.376475 -0.1369,-0.376475 -0.1369,-0.34225 -0.169756,-0.341702 -0.171946,-0.307751 -0.170851,-0.307752 -0.204803,-0.307751 -0.171125,-0.308025 -0.20535,-0.2738 -0.20535,-0.2738 -0.171946,-0.239849 -0.205898,-0.239848 -0.204802,-0.239849 -0.204803,-0.205898 -0.205897,-0.238753 -0.205898,-0.205898 -0.204802,-0.170851 -0.204803,-0.170851 -0.171946,-0.170852 -0.204802,-0.171946 -0.170852,-0.170851 -0.171946,-0.1369 -0.1369,-0.1369 -0.170851,-0.1369 h 4.27807 l 4.41497,-2.4642 h -14.2376 z m 24.709902,0 v 8.7616 h -8.7616 v 2.1904 h 8.7616 v 8.7616 h 2.1904 v -8.7616 h 8.7616 v -2.1904 h -8.7616 v -8.7616 h -2.1904 z m -29.0228,2.25885 c 5.729101,0 8.69315,7.731126 8.69315,12.697749 v 0.1369 0.102675 0.1369 l -0.03423,0.1369 v 0.1369 0.1369 0.171125 l -0.03422,0.1369 v 0.171125 l -0.03422,0.1369 v 0.171125 l -0.03505,0.171946 -0.03395,0.1369 -0.03395,0.170851 -0.03395,0.171947 -0.03395,0.170851 -0.03505,0.170851 -0.0679,0.170851 -0.069,0.170852 -0.03395,0.171946 -0.0679,0.170851 -0.102675,0.171125 -0.06845,0.171125 -0.06845,0.171125 -0.102675,0.171125 -0.102675,0.171125 -0.102675,0.171125 -0.102675,0.1369 -0.1369,0.171125 -0.102949,0.170851 -0.171125,0.1369 -0.1369,0.171125 c -1.104947,1.102976 -2.96383,1.9166 -4.68877,1.9166 -5.933684,0 -8.6247,-7.665742 -8.6247,-12.287048 0,-1.793938 0.369115,-3.651178 1.54007,-5.099471 1.105057,-1.381047 3.034799,-2.293348 4.825451,-2.293348 z m 3.35405,30.802494 h 0.06845 0.06845 0.06845 0.06845 0.03422 0.06845 0.03422 0.06845 0.06845 0.03423 0.102676 0.102675 0.06845 0.102675 0.06845 0.102675 0.102675 l 0.06845,0.0342 h 0.102675 0.102675 0.03422 l 0.06845,0.0342 c 5.244365,3.72708 7.5295,5.58355 7.5295,9.10385 0,4.27796 -3.541767,7.42677 -10.16477,7.42677 -7.381758,0 -12.115103,-3.52194 -12.115103,-8.41935 0,-4.90025 4.400514,-6.53374 5.920871,-7.08463 2.896037,-0.96671 6.601318,-1.0952 7.221529,-1.0952 z" stroke-width="0" fill="#ffffff" stroke-miterlimit="10.433" inkscape:connector-curvature="0"/>
</svg>
