<?xml version="1.0" encoding="UTF-8" standalone="no"?>
<!-- Created with Inkscape (http://www.inkscape.org/) -->

<svg
   xmlns:dc="http://purl.org/dc/elements/1.1/"
   xmlns:cc="http://creativecommons.org/ns#"
   xmlns:rdf="http://www.w3.org/1999/02/22-rdf-syntax-ns#"
   xmlns:svg="http://www.w3.org/2000/svg"
   xmlns="http://www.w3.org/2000/svg"
   xmlns:xlink="http://www.w3.org/1999/xlink"
   xmlns:sodipodi="http://sodipodi.sourceforge.net/DTD/sodipodi-0.dtd"
   xmlns:inkscape="http://www.inkscape.org/namespaces/inkscape"
   id="svg11037"
   height="96"
   width="96"
   version="1.1"
   inkscape:version="0.48.5 r10040"
   sodipodi:docname="googleplus.svg">
  <sodipodi:namedview
     pagecolor="#ffffff"
     bordercolor="#666666"
     borderopacity="1"
     objecttolerance="10"
     gridtolerance="10"
     guidetolerance="10"
     inkscape:pageopacity="0"
     inkscape:pageshadow="2"
     inkscape:window-width="1366"
     inkscape:window-height="717"
     id="namedview28153"
     showgrid="false"
     inkscape:zoom="2.4583333"
     inkscape:cx="-2.0338983"
     inkscape:cy="48"
     inkscape:window-x="0"
     inkscape:window-y="25"
     inkscape:window-maximized="1"
     inkscape:current-layer="svg11037" />
  <defs
     id="defs11039">
    <linearGradient
       id="linearGradient3617"
       y2="5.9877"
       xlink:href="#linearGradient3700"
       gradientUnits="userSpaceOnUse"
       x2="48"
       gradientTransform="translate(0,20)"
       y1="90"
       x1="48" />
    <linearGradient
       id="linearGradient3700">
      <stop
         id="stop3702"
         style="stop-color:#1a1818"
         offset="0" />
      <stop
         id="stop3704"
         style="stop-color:#403d3d"
         offset="1" />
    </linearGradient>
    <clipPath
       id="clipPath3981">
      <rect
         id="rect3983"
         style="opacity:.5;color:#000000;fill:#f0f"
         height="82"
         width="96"
         y="34"
         x="0" />
    </clipPath>
    <linearGradient
       id="linearGradient3887"
       y2="18"
       gradientUnits="userSpaceOnUse"
       x2="31"
       gradientTransform="matrix(1,0,0,1.5,0,-8)"
       y1="16"
       x1="31">
      <stop
         id="stop3883"
         offset="0" />
      <stop
         id="stop3885"
         style="stop-opacity:0"
         offset="1" />
    </linearGradient>
    <linearGradient
       id="linearGradient4000"
       y2="14"
       gradientUnits="userSpaceOnUse"
       x2="40"
       y1="6"
       x1="40">
      <stop
         id="stop3996"
         style="stop-color:#fff"
         offset="0" />
      <stop
         id="stop3998"
         style="stop-color:#fff;stop-opacity:0"
         offset="1" />
    </linearGradient>
    <linearGradient
       id="linearGradient3613"
       y2="138.66"
       gradientUnits="userSpaceOnUse"
       x2="48"
       y1="20.221"
       x1="48">
      <stop
         id="stop3739"
         style="stop-color:#fff"
         offset="0" />
      <stop
         id="stop3741"
         style="stop-color:#fff;stop-opacity:0"
         offset="1" />
    </linearGradient>
    <clipPath
       id="clipPath3613">
      <rect
         id="rect3615"
         style="fill:#fff"
         rx="6"
         ry="6"
         height="84"
         width="84"
         y="6"
         x="6" />
    </clipPath>
    <filter
       id="filter3794"
       height="1.384"
       width="1.384"
       color-interpolation-filters="sRGB"
       y="-.192"
       x="-.192">
      <feGaussianBlur
         id="feGaussianBlur3796"
         stdDeviation="5.28" />
    </filter>
    <clipPath
       id="clipPath3846"
       clipPathUnits="userSpaceOnUse">
      <rect
         id="rect3848"
         style="fill:url(#linearGradient3850)"
         rx="22.826"
         ry="22.826"
         height="84"
         width="84"
         y="6"
         x="6" />
    </clipPath>
    <linearGradient
       id="linearGradient3850"
       y2="1046.1"
       xlink:href="#linearGradient3700"
       gradientUnits="userSpaceOnUse"
       x2="48"
       gradientTransform="matrix(1.05 0 0 1.05 -2.4 -1006.6)"
       y1="962.62"
       x1="48" />
    <clipPath
       id="clipPath3009"
       clipPathUnits="userSpaceOnUse">
      <path
         id="path3011"
         style="opacity:.15;fill:#fff"
         d="m-2 956.36h-96v33.562l96 25.687v-59.25z" />
    </clipPath>
    <linearGradient
       inkscape:collect="always"
       xlink:href="#linearGradient3700"
       id="linearGradient3045"
       gradientUnits="userSpaceOnUse"
       gradientTransform="translate(0,20)"
       x1="48"
       y1="90"
       x2="48"
       y2="5.9877" />
    <linearGradient
       inkscape:collect="always"
       xlink:href="#linearGradient3887"
       id="linearGradient3047"
       gradientUnits="userSpaceOnUse"
       gradientTransform="matrix(1,0,0,1.5,0,-8)"
       x1="31"
       y1="16"
       x2="31"
       y2="18" />
    <linearGradient
       inkscape:collect="always"
       xlink:href="#linearGradient4000"
       id="linearGradient3049"
       gradientUnits="userSpaceOnUse"
       x1="40"
       y1="6"
       x2="40"
       y2="14" />
    <linearGradient
       inkscape:collect="always"
       xlink:href="#linearGradient3613"
       id="linearGradient3051"
       gradientUnits="userSpaceOnUse"
       x1="48"
       y1="20.221"
       x2="48"
       y2="138.66" />
    <linearGradient
       inkscape:collect="always"
       xlink:href="#linearGradient4000"
       id="linearGradient3061"
       gradientUnits="userSpaceOnUse"
       x1="40"
       y1="6"
       x2="40"
       y2="14"
       gradientTransform="matrix(1.0952,0,0,1.0952,-4.5714,-4.57)" />
    <linearGradient
       inkscape:collect="always"
       xlink:href="#linearGradient3887"
       id="linearGradient3064"
       gradientUnits="userSpaceOnUse"
       gradientTransform="matrix(1.0952,0,0,1.6428,-4.5714,-13.3316)"
       x1="31"
       y1="16"
       x2="31"
       y2="18" />
  </defs>
  <metadata
     id="metadata11042">
    <rdf:RDF>
      <cc:Work
         rdf:about="">
        <dc:format>image/svg+xml</dc:format>
        <dc:type
           rdf:resource="http://purl.org/dc/dcmitype/StillImage" />
        <dc:title />
      </cc:Work>
    </rdf:RDF>
  </metadata>
  <rect
     style="fill:#aa0000;fill-opacity:1;stroke:none"
     id="rect2985"
     width="80"
     height="80"
     x="8"
     y="8"
     rx="10.769231"
     ry="10.769231" />
  <path
     inkscape:connector-curvature="0"
     style="fill:#ffffff;stroke-width:0;stroke-miterlimit:10.43299961"
     d="m 40.265808,21.714928 c -3.723899,0 -8.389342,0.556362 -12.321,3.79903 -2.965254,2.551706 -4.41508,6.068393 -4.414971,9.24075 0,5.379732 4.152889,10.8151 11.465649,10.8151 0.689385,0 1.431755,-0.07052 2.1904,-0.1369 -0.346258,0.827577 -0.6845,1.531856 -0.6845,2.70383 0,2.137066 1.087107,3.446926 2.0535,4.688764 -3.103797,0.20782 -8.901785,0.56266 -13.176351,3.18287 -4.075239,2.41601 -5.306244,5.93599 -5.306244,8.4199 0,5.10549 4.815485,9.8568 14.819151,9.8568 11.867587,0 18.173749,-6.55455 18.173749,-13.03945 0,-4.75985 -2.78367,-7.10007 -5.81825,-9.651448 l -2.4642,-1.951646 c -0.758634,-0.622216 -1.81387,-1.42595 -1.81387,-2.94335 0,-1.518495 1.056835,-2.491799 1.95077,-3.38833 2.899213,-2.275935 5.78397,-4.682856 5.78397,-9.78835 v -0.513375 l -0.03422,-0.444925 -0.03422,-0.47915 -0.06845,-0.444925 -0.102675,-0.4107 -0.06845,-0.4107 -0.102675,-0.4107 -0.1369,-0.376475 -0.1369,-0.376475 -0.1369,-0.376475 -0.1369,-0.34225 -0.169756,-0.341702 -0.171946,-0.307751 -0.170851,-0.307752 -0.204803,-0.307751 -0.171125,-0.308025 -0.20535,-0.2738 -0.20535,-0.2738 -0.171946,-0.239849 -0.205898,-0.239848 -0.204802,-0.239849 -0.204803,-0.205898 -0.205897,-0.238753 -0.205898,-0.205898 -0.204802,-0.170851 -0.204803,-0.170851 -0.171946,-0.170852 -0.204802,-0.171946 -0.170852,-0.170851 -0.171946,-0.1369 -0.1369,-0.1369 -0.170851,-0.1369 h 4.27807 l 4.41497,-2.4642 h -14.2376 z m 24.709902,0 v 8.7616 h -8.7616 v 2.1904 h 8.7616 v 8.7616 h 2.1904 v -8.7616 h 8.7616 v -2.1904 h -8.7616 v -8.7616 h -2.1904 z m -29.0228,2.25885 c 5.729101,0 8.69315,7.731126 8.69315,12.697749 v 0.1369 0.102675 0.1369 l -0.03423,0.1369 v 0.1369 0.1369 0.171125 l -0.03422,0.1369 v 0.171125 l -0.03422,0.1369 v 0.171125 l -0.03505,0.171946 -0.03395,0.1369 -0.03395,0.170851 -0.03395,0.171947 -0.03395,0.170851 -0.03505,0.170851 -0.0679,0.170851 -0.069,0.170852 -0.03395,0.171946 -0.0679,0.170851 -0.102675,0.171125 -0.06845,0.171125 -0.06845,0.171125 -0.102675,0.171125 -0.102675,0.171125 -0.102675,0.171125 -0.102675,0.1369 -0.1369,0.171125 -0.102949,0.170851 -0.171125,0.1369 -0.1369,0.171125 c -1.104947,1.102976 -2.96383,1.9166 -4.68877,1.9166 -5.933684,0 -8.6247,-7.665742 -8.6247,-12.287048 0,-1.793938 0.369115,-3.651178 1.54007,-5.099471 1.105057,-1.381047 3.034799,-2.293348 4.825451,-2.293348 z m 3.35405,30.802494 h 0.06845 0.06845 0.06845 0.06845 0.03422 0.06845 0.03422 0.06845 0.06845 0.03423 0.102676 0.102675 0.06845 0.102675 0.06845 0.102675 0.102675 l 0.06845,0.0342 h 0.102675 0.102675 0.03422 l 0.06845,0.0342 c 5.244365,3.72708 7.5295,5.58355 7.5295,9.10385 0,4.27796 -3.541767,7.42677 -10.16477,7.42677 -7.381758,0 -12.115103,-3.52194 -12.115103,-8.41935 0,-4.90025 4.400514,-6.53374 5.920871,-7.08463 2.896037,-0.96671 6.601318,-1.0952 7.221529,-1.0952 z"
     id="path208" />
</svg>
