<?xml version="1.0" encoding="UTF-8" standalone="no"?>
<!-- Created with Inkscape (http://www.inkscape.org/) -->

<svg
   xmlns:dc="http://purl.org/dc/elements/1.1/"
   xmlns:cc="http://creativecommons.org/ns#"
   xmlns:rdf="http://www.w3.org/1999/02/22-rdf-syntax-ns#"
   xmlns:svg="http://www.w3.org/2000/svg"
   xmlns="http://www.w3.org/2000/svg"
   xmlns:xlink="http://www.w3.org/1999/xlink"
   xmlns:sodipodi="http://sodipodi.sourceforge.net/DTD/sodipodi-0.dtd"
   xmlns:inkscape="http://www.inkscape.org/namespaces/inkscape"
   width="96"
   height="96"
   id="svg11037"
   version="1.1"
   inkscape:version="0.48.5 r10040"
   sodipodi:docname="googleearth.svg">
  <defs
     id="defs11039">
    <linearGradient
       y2="1046.1001"
       x2="47.999954"
       y1="962.62189"
       x1="47.999954"
       gradientTransform="matrix(1.15,0,0,1.15,-7.1999462,-150.65292)"
       gradientUnits="userSpaceOnUse"
       id="linearGradient11642"
       xlink:href="#linearGradient3700"
       inkscape:collect="always" />
    <linearGradient
       id="linearGradient3700">
      <stop
         id="stop3702"
         style="stop-color:#22193e;stop-opacity:1"
         offset="0" />
      <stop
         id="stop3704"
         style="stop-color:#9586af;stop-opacity:1"
         offset="1" />
    </linearGradient>
    <radialGradient
       cx="64.144684"
       cy="-16.952808"
       r="60.306107"
       fx="64.144684"
       fy="-16.952808"
       id="radialGradient4004"
       xlink:href="#linearGradient3998"
       gradientUnits="userSpaceOnUse" />
    <linearGradient
       id="linearGradient3998">
      <stop
         id="stop4000"
         style="stop-color:#ffffff;stop-opacity:1"
         offset="0" />
      <stop
         id="stop4002"
         style="stop-color:#ffffff;stop-opacity:0"
         offset="1" />
    </linearGradient>
    <radialGradient
       cx="46.972088"
       cy="-33.92337"
       r="60.306107"
       fx="46.972088"
       fy="-33.92337"
       id="radialGradient3916"
       xlink:href="#linearGradient4224-9"
       gradientUnits="userSpaceOnUse"
       gradientTransform="matrix(1.16425,0,0,1.10663,-7.71521,3.61728)" />
    <linearGradient
       id="linearGradient4224-9">
      <stop
         id="stop4226-7"
         style="stop-color:#95d2f8;stop-opacity:1"
         offset="0" />
      <stop
         id="stop4240-8"
         style="stop-color:#357bb5;stop-opacity:1"
         offset="0.41" />
      <stop
         id="stop4228-0"
         style="stop-color:#13324e;stop-opacity:1"
         offset="1" />
    </linearGradient>
    <radialGradient
       cx="65.260735"
       cy="-19.960367"
       r="60.306107"
       fx="65.260735"
       fy="-19.960367"
       id="radialGradient3926"
       xlink:href="#linearGradient4463-9"
       gradientUnits="userSpaceOnUse"
       gradientTransform="matrix(1.13731,0,0,1.10821,-5.9284,3.62966)" />
    <linearGradient
       id="linearGradient4463-9">
      <stop
         id="stop4465-1"
         style="stop-color:#000000;stop-opacity:0"
         offset="0" />
      <stop
         id="stop4467-3"
         style="stop-color:#000000;stop-opacity:0"
         offset="0.91000003" />
      <stop
         id="stop4469-1"
         style="stop-color:#000000;stop-opacity:1"
         offset="1" />
    </linearGradient>
    <radialGradient
       cx="22.109167"
       cy="19.780535"
       r="19.18985"
       fx="22.109167"
       fy="19.780535"
       id="radialGradient3146"
       xlink:href="#linearGradient2312"
       gradientUnits="userSpaceOnUse"
       gradientTransform="matrix(1.5734438,0,0,1.4686163,8.6764519,12.714697)" />
    <linearGradient
       id="linearGradient2312">
      <stop
         id="stop2314"
         style="stop-color:#e3ebf3;stop-opacity:1"
         offset="0" />
      <stop
         id="stop2316"
         style="stop-color:#cedceb;stop-opacity:0.13178295"
         offset="1" />
    </linearGradient>
    <linearGradient
       x1="66.658142"
       y1="-77.510933"
       x2="66.658142"
       y2="51.679737"
       id="linearGradient3977"
       xlink:href="#linearGradient3737"
       gradientUnits="userSpaceOnUse" />
    <linearGradient
       id="linearGradient3737">
      <stop
         id="stop3739"
         style="stop-color:#ffffff;stop-opacity:1"
         offset="0" />
      <stop
         id="stop3741"
         style="stop-color:#ffffff;stop-opacity:0"
         offset="1" />
    </linearGradient>
    <radialGradient
       cx="46.972088"
       cy="-33.92337"
       r="60.306107"
       fx="46.972088"
       fy="-33.92337"
       id="radialGradient3093"
       xlink:href="#linearGradient4471-1"
       gradientUnits="userSpaceOnUse"
       gradientTransform="matrix(0.59847574,0,0,0.56885524,11.060869,58.573934)" />
    <linearGradient
       id="linearGradient4471-1">
      <stop
         id="stop4473-6"
         style="stop-color:#ffffff;stop-opacity:1"
         offset="0" />
      <stop
         id="stop4544-9"
         style="stop-color:#f6f6f6;stop-opacity:1"
         offset="0.5" />
      <stop
         id="stop4475-9"
         style="stop-color:#8aa6c6;stop-opacity:1"
         offset="1" />
    </linearGradient>
    <clipPath
       clipPathUnits="userSpaceOnUse"
       id="clipPath3009">
      <path
         id="path3011"
         d="m -2,956.36218 -96,0 0,33.5624 96,25.68742 0,-59.24982 z"
         style="opacity:0.15;fill:#ffffff;fill-opacity:1;stroke:none"
         inkscape:connector-curvature="0" />
    </clipPath>
  </defs>
  <sodipodi:namedview
     id="base"
     pagecolor="#ffffff"
     bordercolor="#666666"
     borderopacity="1.0"
     inkscape:pageopacity="0.0"
     inkscape:pageshadow="2"
     inkscape:zoom="3.959798"
     inkscape:cx="33.538031"
     inkscape:cy="59.964634"
     inkscape:document-units="px"
     inkscape:current-layer="layer1"
     showgrid="false"
     inkscape:window-width="1280"
     inkscape:window-height="750"
     inkscape:window-x="0"
     inkscape:window-y="22"
     inkscape:window-maximized="1"
     showguides="true"
     inkscape:guide-bbox="true">
    <sodipodi:guide
       orientation="0,1"
       position="-24.748737,0"
       id="guide11064" />
    <sodipodi:guide
       orientation="0,1"
       position="-23.233509,96"
       id="guide11066" />
    <sodipodi:guide
       orientation="1,0"
       position="0,54.800776"
       id="guide11068" />
    <sodipodi:guide
       orientation="1,0"
       position="96,51.012704"
       id="guide11070" />
    <sodipodi:guide
       orientation="0,1"
       position="-18.94036,48"
       id="guide11072" />
    <sodipodi:guide
       orientation="1,0"
       position="48,79.296975"
       id="guide11074" />
    <sodipodi:guide
       orientation="1,0"
       position="2,75.508903"
       id="guide11076" />
    <sodipodi:guide
       orientation="0,1"
       position="-77.27667,2"
       id="guide11078" />
    <sodipodi:guide
       orientation="1,0"
       position="94,77.781746"
       id="guide11080" />
    <sodipodi:guide
       orientation="0,1"
       position="-65.912454,94"
       id="guide11082" />
  </sodipodi:namedview>
  <metadata
     id="metadata11042">
    <rdf:RDF>
      <cc:Work
         rdf:about="">
        <dc:format>image/svg+xml</dc:format>
        <dc:type
           rdf:resource="http://purl.org/dc/dcmitype/StillImage" />
        <dc:title />
      </cc:Work>
    </rdf:RDF>
  </metadata>
  <g
     inkscape:label="Layer 1"
     inkscape:groupmode="layer"
     id="layer1"
     transform="translate(0,-956.36218)">
    <rect
       x="2"
       y="958.36218"
       width="92"
       height="92"
       style="fill:url(#linearGradient11642);fill-opacity:1.0"
       id="rect3867"
       rx="25"
       ry="25" />
    <g
       transform="translate(1.6046811e-7,956.36218)"
       id="g3156">
      <path
         inkscape:connector-curvature="0"
         style="opacity:0.2;color:#000000;fill:url(#radialGradient4004);fill-opacity:1;fill-rule:evenodd;stroke:none;stroke-width:2;marker:none;visibility:visible;display:inline;overflow:visible"
         id="path3990"
         transform="matrix(0.55997054,0,0,0.15984552,12.080867,78.349491)"
         d="m 124.45079,-16.952808 a 60.306107,60.306107 0 1 1 -120.6122127,0 60.306107,60.306107 0 1 1 120.6122127,0 z" />
      <g
         id="layer4">
        <g
           id="g3103">
          <path
             inkscape:connector-curvature="0"
             d="m 124.45079,-16.952808 a 60.306107,60.306107 0 1 1 -120.6122127,0 60.306107,60.306107 0 1 1 120.6122127,0 z"
             transform="matrix(0.51404413,0,0,0.51404413,15.026802,56.714492)"
             id="path3253"
             style="color:#000000;fill:url(#radialGradient3916);fill-opacity:1;fill-rule:evenodd;stroke:none;stroke-width:2;marker:none;visibility:visible;display:inline;overflow:visible" />
          <path
             inkscape:connector-curvature="0"
             d="m 124.45079,-16.952808 a 60.306107,60.306107 0 1 1 -120.6122127,0 60.306107,60.306107 0 1 1 120.6122127,0 z"
             transform="matrix(0.51404413,0,0,0.51404413,15.026802,56.714492)"
             id="path4449"
             style="color:#000000;fill:url(#radialGradient3926);fill-opacity:1;fill-rule:evenodd;stroke:none;stroke-width:2;marker:none;visibility:visible;display:inline;overflow:visible" />
          <path
             d="m 47.975144,18.301922 -3.429992,0.397679 -4.225352,1.168187 -0.79536,0.770504 2.634632,1.814416 0,1.04391 -1.043911,1.04391 1.367025,2.709195 0.919636,-0.497099 1.14333,-1.839271 c 1.766975,-0.547337 3.366073,-1.160405 5.045567,-1.938691 l 1.367026,-3.504555 -2.982601,-1.168185 z m -8.028169,0.422535 c -0.755569,0.213653 -1.506625,0.451057 -2.236951,0.720794 l -0.02485,0.02485 c -0.01449,0.0053 -0.03524,-0.0054 -0.04971,0 -1.008155,0.375362 -1.978814,0.815819 -2.932892,1.29246 l 1.491301,0.273405 0.571665,-0.521955 1.14333,-0.24855 c 0.783575,-0.381812 1.579528,-0.650222 2.410937,-0.919636 L 39.94698,18.724451 z m -6.835128,2.957745 -0.223695,0.521956 0.09942,1.29246 -0.89478,0.770505 -0.571665,1.44159 1.143331,0 0.571665,-1.292461 c 0.493273,-0.349494 0.964044,-0.707498 1.466446,-1.04391 l 1.14333,0.397681 c 0.762177,0.518804 1.523856,1.022993 2.286661,1.54101 l 1.168186,-1.04391 -1.267606,-0.4971 -0.571666,-1.168185 -2.18724,-0.273405 -0.09942,-0.646231 -1.04391,0.24855 -0.44739,0.919636 -0.571665,-1.168186 z m 29.304058,1.043911 -2.187241,0.521955 -1.367026,0.89478 0,0.770505 -2.162386,1.44159 0.447391,2.062966 1.267605,-0.89478 0.79536,0.89478 0.919636,0.521955 0.571665,-1.541011 -0.34797,-0.919634 0.34797,-0.646231 1.242751,-1.168185 0.571665,0 -0.571665,1.29246 0,1.168186 c 0.525531,-0.143298 1.077772,-0.181552 1.615576,-0.24855 l -1.491302,1.019055 -0.124274,0.671086 -1.714996,1.416734 -1.714997,-0.39768 0,-1.019054 -0.79536,0.4971 0.347971,0.919634 -1.267605,0 -0.671086,1.168186 -0.869925,0.969345 -1.541011,0.323116 0.919635,0.919634 0.223696,0.89478 -1.143331,0 -1.491301,0.795361 0,2.311516 0.695941,0 0.621375,0.720795 1.44159,-0.720795 0.571666,-1.416736 1.019055,-0.64623 0.223696,-0.521955 1.714994,-0.39768 0.919637,1.04391 1.019054,0.521955 -0.571664,1.168185 0.919635,-0.248549 0.472246,-1.168187 -1.143331,-1.317314 0.44739,0 1.14333,0.919635 0.223696,1.29246 1.04391,1.168186 0.223696,-1.690141 0.571664,-0.24855 c 0.565496,0.588168 1.015019,1.276742 1.4913,1.938691 l 1.714997,0.124275 1.019055,0.646229 -0.44739,0.646231 -1.043911,0.919635 -1.466445,0 -1.963546,-0.64623 -1.019056,0.124274 -0.74565,0.845071 -2.112676,-2.137531 -1.491301,-0.397679 -2.162385,0.273405 -1.963546,0.521954 c -1.091026,1.239235 -2.148788,2.466106 -3.181441,3.753107 l -1.267606,2.9826 0.571666,0.64623 -1.019057,1.565866 1.143332,2.709195 c 0.972545,1.102243 1.936905,2.202687 2.908035,3.305716 l 1.416736,-1.217895 0.646231,0.720795 1.54101,-0.9942 0.521955,0.59652 1.541011,0 0.869926,0.9942 -0.54681,1.789561 1.09362,1.24275 -0.04971,2.13753 0.79536,1.541013 -0.571665,1.317311 c -0.05696,0.954379 -0.09942,1.878945 -0.09942,2.833471 0.46873,1.293155 0.924418,2.599788 1.367027,3.902235 l 0.323114,2.062968 0,1.043911 0.820216,0 1.24275,-0.770502 1.491302,0 2.23695,-2.53521 -0.29826,-0.845078 1.491301,-1.292458 -1.09362,-1.242751 1.317314,-1.093617 1.267606,-0.770503 0.571665,-0.646237 -0.34797,-1.441585 c 0,-1.209908 0,-2.418762 0,-3.628833 l 1.04391,-2.212096 1.242751,-1.416735 1.367026,-3.380281 0,-0.89478 c -0.678187,0.08559 -1.324975,0.150735 -1.988401,0.19884 l -0.0497,0.0497 -0.0497,-0.0497 c -0.401579,0.02729 -0.804972,0.0497 -1.217895,0.0497 -0.728348,-1.533398 -1.284633,-3.068562 -1.839272,-4.67274 l -0.969345,-1.093621 -0.497101,-1.88898 0.323116,-0.372826 1.317315,1.4913 1.541011,3.305717 0.919636,1.019055 -0.44739,1.168185 0.869925,0.994201 c 0.03272,-0.0022 0.06674,0.0024 0.09942,0 l 1.367027,-1.367027 1.88898,-1.29246 1.043908,-1.168185 0,-1.317315 c -0.228943,-0.432567 -0.465438,-0.85988 -0.695948,-1.292454 l -0.919634,1.04391 -0.695941,-0.770505 -1.019056,-0.79536 0,-1.665286 1.193041,1.34217 1.317316,-0.173984 c 0.599166,0.544972 1.189464,1.044803 1.714999,1.665285 L 78,42.908377 C 76.790774,35.500464 72.872933,29.003081 67.312342,24.441108 l -0.223695,0.34797 -1.143331,1.292461 -1.466445,-1.541011 1.466445,0 0.621376,-0.69594 c -0.0513,-0.03945 -0.09757,-0.08514 -0.14913,-0.124276 l -2.510356,-0.472244 -1.491301,-0.521955 z m -31.267604,0.09942 c -0.40441,0.276116 -0.778183,0.575013 -1.168186,0.869926 l -0.173985,0.44739 c 0,0 -0.313455,0.05249 -0.54681,0.09942 C 22.788264,29.445649 18.497945,37.270359 18,46.089818 c 0.310704,0.533514 0.695941,1.143331 0.695941,1.143331 l 2.410935,1.416735 2.386081,0.671085 1.043911,1.292461 1.590721,1.168184 0.919636,-0.149129 0.69594,0.323115 0,0.19884 -0.919636,2.460645 -0.69594,1.04391 0.223695,0.521956 -0.571665,1.93869 2.062965,3.777958 2.062966,1.81442 0.919636,1.292458 -0.124276,2.734051 0.695941,1.541013 -0.695941,2.982598 c 0,0 -0.01638,0.02201 0.02485,0.198841 0.961363,0.681629 1.967615,1.321418 3.007456,1.88898 0.01628,0.0089 0.03341,0.01597 0.0497,0.02488 0.04472,0.021 0.10693,0.05541 0.149131,0.07455 0.36863,0.16733 0.639098,0.266022 0.69594,0.223693 0.226575,-0.172461 0.422534,-0.323114 0.422534,-0.323114 l -0.223694,-0.646229 0.919635,-0.919637 0.34797,-0.894777 1.466446,-0.521954 1.143331,-2.858333 -0.323116,-0.770502 0.79536,-1.168185 1.714996,-0.397682 0.919635,-2.087821 -0.223695,-2.584916 1.367026,-1.938695 0.223695,-1.938689 C 41.300367,56.689618 39.424628,55.724752 37.560884,54.76423 l -0.894781,-1.814416 -1.714996,-0.39768 -0.919635,-2.460645 -2.286661,0.24855 -1.93869,-1.416736 -2.062967,1.814416 0,0.273405 C 27.120072,50.83094 26.35926,50.806085 25.804463,50.464314 l -0.472244,-1.29246 0,-1.416735 -1.367027,0.124274 c 0.114546,-0.90834 0.232638,-1.801012 0.347971,-2.709195 l -0.820216,0 -0.79536,1.019055 -0.79536,0.39768 -1.143331,-0.64623 -0.124275,-1.44159 0.24855,-1.541011 1.714996,-1.29246 1.367025,0 0.223696,-0.79536 1.714995,0.39768 1.267606,1.565865 0.223695,-2.609775 2.162386,-1.814416 0.820215,-1.93869 1.590721,-0.646231 0.919636,-1.29246 2.062965,-0.39768 1.019056,-1.565865 c -1.029503,-2e-6 -2.052517,0 -3.082021,0 l 1.938691,-0.89478 1.367025,0 1.93869,-0.64623 0.248551,-0.795361 -0.69594,-0.64623 -0.795361,-0.24855 0.223696,-0.770505 -0.571666,-1.168186 -1.367025,0.497101 0.223694,-1.019056 -1.59072,-0.919635 -1.267605,2.212096 0.124275,0.770505 -1.267606,0.521955 -0.79536,1.69014 -0.347971,-1.565865 -2.162386,-0.89478 -0.34797,-1.168186 2.858327,-1.690141 1.24275,-1.168184 0.124275,-1.416736 -0.69594,-0.39768 -0.124275,-0.02485 z m 19.908864,1.59072 -0.89478,0.497101 -0.472246,-0.124275 -0.09942,0.795361 0.795361,0.4971 1.367025,-0.89478 -0.69594,-0.770507 z m -15.086992,0.248551 -0.919635,0.64623 1.14333,0.770506 0.919635,0 0,-0.89478 -1.14333,-0.521956 z m 18.069592,2.982601 0,0.770505 0.472246,0.521955 0,1.168186 -0.248549,1.565865 1.267605,-0.273405 0.919635,-0.89478 -0.79536,-0.770506 c -0.268903,-0.717435 -0.583077,-1.399707 -0.919636,-2.08782 l -0.695941,0 z m -0.447389,1.565866 -0.820216,0.24855 0.248551,1.416735 1.019054,-0.497101 -0.447389,-1.168184 z m -15.782932,2.33637 0.323115,1.814415 0.695941,-1.04391 -1.019056,-0.770505 z"
             inkscape:connector-curvature="0"
             id="path4144"
             style="opacity:0.6;fill:url(#radialGradient3146);fill-opacity:1;fill-rule:nonzero;stroke-miterlimit:4;display:inline" />
          <path
             d="m 47.90625,17.75 -3.4375,0.375 A 0.56474891,0.56474891 0 0 0 44.375,18.15625 l -3.53125,1 a 0.56474891,0.56474891 0 0 0 -0.0625,-0.09375 l -0.375,-0.625 a 0.56474891,0.56474891 0 0 0 -0.625,-0.25 c -0.768057,0.217184 -1.504649,0.443464 -2.25,0.71875 A 0.56474891,0.56474891 0 0 0 37.5,18.9375 a 0.56474891,0.56474891 0 0 0 -0.03125,0 c -0.02275,0.007 -0.0032,-0.01047 -0.03125,0 a 0.56474891,0.56474891 0 0 0 -0.03125,0.03125 C 36.391553,19.348221 35.395759,19.77127 34.4375,20.25 a 0.56474891,0.56474891 0 0 0 0.03125,1.03125 L 34,21.375 a 0.56474891,0.56474891 0 0 0 -0.3125,0.21875 L 33.625,21.4375 a 0.56474891,0.56474891 0 0 0 -1,0 l -0.25,0.53125 a 0.56474891,0.56474891 0 0 0 -0.0625,0.3125 l 0.0625,0.5625 A 0.56474891,0.56474891 0 0 0 32.25,22.75 l -0.6875,-0.40625 a 0.56474891,0.56474891 0 0 0 -0.15625,-0.0625 L 31.28125,22.25 a 0.56474891,0.56474891 0 0 0 -0.4375,0.09375 C 30.42068,22.632606 30.011708,22.957578 29.625,23.25 a 0.56474891,0.56474891 0 0 0 -0.1875,0.25 l -0.0625,0.15625 c -0.104785,0.01693 -0.139906,0.0091 -0.25,0.03125 a 0.56474891,0.56474891 0 0 0 -0.21875,0.125 C 22.314634,29.112822 17.944654,37.079934 17.4375,46.0625 A 0.56474891,0.56474891 0 0 0 17.5,46.375 c 0.319277,0.548235 0.71875,1.15625 0.71875,1.15625 a 0.56474891,0.56474891 0 0 0 0.1875,0.1875 l 2.40625,1.4375 a 0.56474891,0.56474891 0 0 0 0.125,0.03125 l 2.25,0.625 0.90625,1.15625 a 0.56474891,0.56474891 0 0 0 0.09375,0.125 L 25.78125,52.25 a 0.56474891,0.56474891 0 0 0 0.4375,0.09375 L 27,52.21875 l 0.09375,0.0625 -0.75,2.03125 -0.0625,0.125 -0.625,0.90625 a 0.56474891,0.56474891 0 0 0 -0.0625,0.53125 l 0.15625,0.375 -0.5,1.71875 a 0.56474891,0.56474891 0 0 0 0.03125,0.4375 l 2.0625,3.78125 a 0.56474891,0.56474891 0 0 0 0.125,0.15625 l 2.0625,1.8125 0.71875,1 -0.125,2.5625 A 0.56474891,0.56474891 0 0 0 30.1875,68 l 0.625,1.3125 -0.6875,2.8125 c 0,0 0.0015,0.08972 0,0.125 -0.0015,0.03528 -0.0029,0.0583 0,0.09375 0.0058,0.07091 0.0061,0.142162 0.03125,0.25 a 0.56474891,0.56474891 0 0 0 0.25,0.34375 c 0.978871,0.694043 1.971663,1.32791 3.03125,1.90625 0.06193,0.03386 0.09195,0.04735 0.0625,0.03125 a 0.56474891,0.56474891 0 0 0 0.03125,0 c 0.108376,0.05089 0.206506,0.07112 0.1875,0.0625 0.181979,0.08261 0.322458,0.160975 0.46875,0.21875 0.07315,0.02889 0.156385,0.07327 0.25,0.09375 0.09361,0.02048 0.243572,0.08923 0.53125,-0.125 0.235566,-0.179304 0.4375,-0.34375 0.4375,-0.34375 A 0.56474891,0.56474891 0 0 0 35.59375,74.125 L 35.5,73.84375 36.15625,73.1875 a 0.56474891,0.56474891 0 0 0 0.125,-0.21875 l 0.25,-0.65625 1.21875,-0.40625 a 0.56474891,0.56474891 0 0 0 0.34375,-0.3125 L 39.25,68.71875 A 0.56474891,0.56474891 0 0 0 39.21875,68.25 L 39.03125,67.8125 39.5,67.09375 41.03125,66.75 A 0.56474891,0.56474891 0 0 0 41.4375,66.40625 L 42.34375,64.3125 A 0.56474891,0.56474891 0 0 0 42.375,64.03125 l -0.1875,-2.375 1.25,-1.78125 a 0.56474891,0.56474891 0 0 0 0.09375,-0.25 L 43.75,57.6875 A 0.56474891,0.56474891 0 0 0 43.4375,57.125 c -1.817306,-0.902904 -3.656283,-1.846597 -5.46875,-2.78125 l -0.8125,-1.65625 a 0.56474891,0.56474891 0 0 0 -0.375,-0.3125 l -1.4375,-0.3125 -0.78125,-2.15625 a 0.56474891,0.56474891 0 0 0 -0.59375,-0.375 L 31.9375,49.75 30.15625,48.46875 A 0.56474891,0.56474891 0 0 0 29.4375,48.5 L 27.375,50.3125 C 26.948766,50.22641 26.508793,50.15129 26.25,50.03125 l -0.34375,-0.96875 0,-1.3125 a 0.56474891,0.56474891 0 0 0 -0.625,-0.5625 L 24.625,47.25 c 0.08538,-0.676551 0.163895,-1.353219 0.25,-2.03125 a 0.56474891,0.56474891 0 0 0 -0.5625,-0.625 l -0.8125,0 a 0.56474891,0.56474891 0 0 0 -0.4375,0.21875 l -0.71875,0.9375 -0.40625,0.1875 -0.65625,-0.34375 -0.09375,-1 0,-0.0625 0.21875,-1.28125 1.375,-1.03125 1.1875,0 A 0.56474891,0.56474891 0 0 0 24.5,41.8125 l 0.0625,-0.25 1.0625,0.25 1.09375,1.375 a 0.56474891,0.56474891 0 0 0 1,-0.28125 l 0.21875,-2.375 2,-1.6875 A 0.56474891,0.56474891 0 0 0 30.09375,38.625 l 0.71875,-1.71875 1.375,-0.5625 a 0.56474891,0.56474891 0 0 0 0.25,-0.21875 l 0.75,-1.0625 1.84375,-0.375 a 0.56474891,0.56474891 0 0 0 0.375,-0.25 L 36.4375,32.875 a 0.56474891,0.56474891 0 0 0 -0.03125,-0.65625 0.56474891,0.56474891 0 0 0 0,-0.03125 l 0.875,-0.28125 0.28125,1.5625 a 0.56474891,0.56474891 0 0 0 1.03125,0.21875 L 39.3125,32.625 a 0.56474891,0.56474891 0 0 0 -0.125,-0.78125 L 38.5625,31.375 a 0.56474891,0.56474891 0 0 0 0.09375,-0.1875 l 0.25,-0.8125 A 0.56474891,0.56474891 0 0 0 38.75,29.8125 l -0.6875,-0.625 a 0.56474891,0.56474891 0 0 0 -0.21875,-0.125 l -0.25,-0.09375 0.0625,-0.21875 A 0.56474891,0.56474891 0 0 0 37.625,28.3125 L 37.03125,27.15625 A 0.56474891,0.56474891 0 0 0 36.34375,26.875 L 35.96875,27 a 0.56474891,0.56474891 0 0 0 -0.0625,-0.40625 0.56474891,0.56474891 0 0 0 0.28125,0.0625 l 0.9375,0 a 0.56474891,0.56474891 0 0 0 0.5625,-0.5625 l 0,-0.40625 c 0.04301,0.02909 0.08198,0.06454 0.125,0.09375 A 0.56474891,0.56474891 0 0 0 38.5,25.75 l 1.1875,-1.03125 A 0.56474891,0.56474891 0 0 0 39.53125,23.75 L 38.4375,23.3125 37.96875,22.34375 a 0.56474891,0.56474891 0 0 0 -0.4375,-0.3125 l -1.75,-0.1875 -0.03125,-0.25 a 0.56474891,0.56474891 0 0 0 -0.03125,-0.0625 l 0.375,0.0625 A 0.56474891,0.56474891 0 0 0 36.5625,21.4375 L 37,21.03125 38.03125,20.8125 a 0.56474891,0.56474891 0 0 0 0.125,-0.0625 C 38.421677,20.620665 38.726063,20.544073 39,20.4375 a 0.56474891,0.56474891 0 0 0 0.21875,0.65625 l 2.375,1.625 0,0.53125 -0.875,0.875 A 0.56474891,0.56474891 0 0 0 40.625,24.78125 L 41.96875,27.5 A 0.56474891,0.56474891 0 0 0 42.75,27.75 l 0.9375,-0.5 a 0.56474891,0.56474891 0 0 0 0.1875,-0.21875 l 1.03125,-1.6875 c 1.699039,-0.535677 3.308419,-1.120075 4.9375,-1.875 A 0.56474891,0.56474891 0 0 0 50.125,23.1875 l 1.375,-3.5 a 0.56474891,0.56474891 0 0 0 -0.34375,-0.75 l -3,-1.15625 a 0.56474891,0.56474891 0 0 0 -0.25,-0.03125 z m 0.0625,0.5625 3,1.15625 -1.375,3.5 c -1.679494,0.778286 -3.295525,1.390163 -5.0625,1.9375 l -1.125,1.84375 -0.9375,0.5 L 41.125,24.53125 42.15625,23.5 l 0,-1.0625 -2.625,-1.8125 0.78125,-0.75 4.21875,-1.1875 3.4375,-0.375 z m -8.03125,0.40625 0.375,0.625 C 39.481091,19.613164 38.689825,19.868188 37.90625,20.25 L 36.75,20.5 36.1875,21.03125 34.6875,20.75 c 0.954078,-0.476641 1.929345,-0.905888 2.9375,-1.28125 0.01447,-0.0054 0.04801,0.0053 0.0625,0 l 0.03125,-0.03125 c 0.730326,-0.269737 1.463181,-0.505097 2.21875,-0.71875 z m -6.8125,2.96875 0.5625,1.15625 0.4375,-0.90625 1.0625,-0.25 0.09375,0.65625 2.1875,0.25 0.5625,1.1875 1.28125,0.5 -1.1875,1.03125 C 37.362195,24.794483 36.605927,24.300054 35.84375,23.78125 L 34.6875,23.375 c -0.502402,0.336412 -0.944227,0.681756 -1.4375,1.03125 l -0.59375,1.3125 -1.125,0 0.5625,-1.4375 L 33,23.5 32.875,22.21875 33.125,21.6875 z m 29.15625,0.46875 -2.1875,0.53125 a 0.56474891,0.56474891 0 0 0 -0.1875,0.09375 L 58.5625,23.6875 a 0.56474891,0.56474891 0 0 0 -0.25,0.46875 l 0,0.4375 -1.9375,1.28125 a 0.56474891,0.56474891 0 0 0 -0.25,0.59375 l 0.46875,2.0625 a 0.56474891,0.56474891 0 0 0 0.5625,0.4375 0.56474891,0.56474891 0 0 0 0.03125,0.28125 l 0.0625,0.15625 -0.4375,0 A 0.56474891,0.56474891 0 0 0 56.375,29.625 l -0.25,-0.21875 c -0.260431,-0.679332 -0.556069,-1.347929 -0.875,-2 a 0.56474891,0.56474891 0 0 0 -0.5,-0.3125 l -0.71875,0 a 0.56474891,0.56474891 0 0 0 -0.5625,0.5625 l 0,0.75 a 0.56474891,0.56474891 0 0 0 0.03125,0.25 0.56474891,0.56474891 0 0 0 -0.0625,0.03125 l -0.8125,0.25 a 0.56474891,0.56474891 0 0 0 -0.40625,0.625 l 0.25,1.40625 a 0.56474891,0.56474891 0 0 0 0.8125,0.40625 l 0.46875,-0.25 -0.0625,0.46875 a 0.56474891,0.56474891 0 0 0 0.03125,0.25 l -0.125,0.03125 a 0.56474891,0.56474891 0 0 0 -0.28125,0.96875 l 0.8125,0.84375 -0.40625,0 A 0.56474891,0.56474891 0 0 0 53.4375,33.75 l -1.5,0.8125 a 0.56474891,0.56474891 0 0 0 -0.28125,0.5 l 0,2.3125 a 0.56474891,0.56474891 0 0 0 0.5625,0.5625 l 0.40625,0 0.4375,0.5 c -1.056702,1.201265 -2.084836,2.398836 -3.09375,3.65625 a 0.56474891,0.56474891 0 0 0 -0.09375,0.125 l -1.25,2.96875 a 0.56474891,0.56474891 0 0 0 0.09375,0.59375 L 49,46.125 48.21875,47.3125 a 0.56474891,0.56474891 0 0 0 -0.0625,0.53125 l 1.15625,2.71875 a 0.56474891,0.56474891 0 0 0 0.09375,0.15625 c 0.970719,1.100174 1.933563,2.207703 2.90625,3.3125 a 0.56474891,0.56474891 0 0 0 0.8125,0.0625 l 1,-0.875 0.28125,0.3125 A 0.56474891,0.56474891 0 0 0 55.125,53.625 l 1.125,-0.75 0.21875,0.25 a 0.56474891,0.56474891 0 0 0 0.40625,0.1875 l 1.25,0 0.53125,0.59375 -0.4375,1.46875 a 0.56474891,0.56474891 0 0 0 0.09375,0.53125 L 59.28125,57 l -0.0625,1.875 a 0.56474891,0.56474891 0 0 0 0.0625,0.28125 l 0.65625,1.3125 -0.46875,1.09375 A 0.56474891,0.56474891 0 0 0 59.4375,61.75 c -0.05736,0.961104 -0.09375,1.874714 -0.09375,2.84375 a 0.56474891,0.56474891 0 0 0 0.03125,0.1875 c 0.45657,1.259606 0.9122,2.54509 1.34375,3.8125 0.01055,0.03098 0.02073,0.06278 0.03125,0.09375 l 0.28125,1.875 0,0.09375 0,0.96875 a 0.56474891,0.56474891 0 0 0 0.5625,0.5625 l 0.8125,0 a 0.56474891,0.56474891 0 0 0 0.3125,-0.09375 l 1.09375,-0.6875 1.34375,0 a 0.56474891,0.56474891 0 0 0 0.4375,-0.1875 L 67.8125,68.6875 A 0.56474891,0.56474891 0 0 0 67.90625,68.125 L 67.75,67.65625 68.96875,66.625 a 0.56474891,0.56474891 0 0 0 0.0625,-0.8125 L 68.3125,65 l 0.8125,-0.6875 0.0625,-0.03125 1.1875,-0.75 a 0.56474891,0.56474891 0 0 0 0.0937,-0.09375 l 0.59375,-0.65625 a 0.56474891,0.56474891 0 0 0 0.125,-0.53125 l -0.34375,-1.28125 0,-0.03125 0,-3.46875 0.9375,-1.96875 1.25,-1.40625 a 0.56474891,0.56474891 0 0 0 0.0937,-0.15625 l 1.34375,-3.375 A 0.56474891,0.56474891 0 0 0 74.5,50.34375 l 0,-0.90625 A 0.56474891,0.56474891 0 0 0 73.875,48.875 c -0.13145,0.01659 -0.24775,0.01511 -0.375,0.03125 l 0.21875,-0.21875 1.8125,-1.21875 a 0.56474891,0.56474891 0 0 0 0.125,-0.09375 l 1.03125,-1.1875 a 0.56474891,0.56474891 0 0 0 0.125,-0.375 l 0,-1.3125 a 0.56474891,0.56474891 0 0 0 -0.0312,-0.21875 0.56474891,0.56474891 0 0 0 0.78125,-0.0625 l 0.84375,-0.9375 A 0.56474891,0.56474891 0 0 0 78.5625,42.8125 C 77.33049,35.265021 73.3196,28.646279 67.65625,24 a 0.56474891,0.56474891 0 0 0 -0.53125,-0.09375 0.56474891,0.56474891 0 0 0 -0.21875,-0.5 C 66.87453,23.38186 66.82329,23.33688 66.75,23.28125 a 0.56474891,0.56474891 0 0 0 -0.25,-0.125 L 64.09375,22.71875 64,22.6875 l -1.40625,-0.5 a 0.56474891,0.56474891 0 0 0 -0.3125,-0.03125 z m 0.125,0.5625 1.5,0.53125 2.5,0.46875 c 0.05153,0.03914 0.10495,0.08555 0.15625,0.125 l -0.625,0.6875 -1.46875,0 1.46875,1.5625 1.15625,-1.3125 0.21875,-0.34375 C 72.87309,28.999473 76.79077,35.498337 78,42.90625 l -0.84375,0.9375 C 76.63072,43.223268 76.03667,42.732472 75.4375,42.1875 l -1.3125,0.1875 -1.1875,-1.34375 0,1.65625 1,0.78125 0.71875,0.78125 0.90625,-1.03125 c 0.23051,0.432574 0.45855,0.848683 0.6875,1.28125 l 0,1.3125 -1.03125,1.1875 -1.90625,1.28125 -1.34375,1.375 c 0.66343,-0.0481 1.29056,-0.13316 1.96875,-0.21875 l 0,0.90625 -1.34375,3.375 -1.25,1.40625 -1.0625,2.21875 0,3.625 0.375,1.4375 -0.59375,0.65625 -1.25,0.78125 -1.3125,1.09375 1.09375,1.25 -1.5,1.28125 0.28125,0.84375 -2.21875,2.53125 -1.5,0 -1.25,0.78125 -0.8125,0 0,-1.0625 -0.3125,-2.0625 c -0.44261,-1.302447 -0.90627,-2.613095 -1.375,-3.90625 0,-0.954526 0.03679,-1.858121 0.09375,-2.8125 l 0.5625,-1.3125 -0.78125,-1.5625 0.0625,-2.125 -1.09375,-1.25 0.53125,-1.78125 -0.875,-1 -1.53125,0 -0.53125,-0.59375 -1.53125,1 L 54.15625,52.4375 52.75,53.65625 c -0.97113,-1.103029 -1.933705,-2.210257 -2.90625,-3.3125 L 48.6875,47.625 l 1.03125,-1.5625 -0.5625,-0.65625 1.25,-2.96875 c 1.032653,-1.287001 2.096474,-2.510765 3.1875,-3.75 l 1.96875,-0.53125 2.15625,-0.28125 1.5,0.40625 2.09375,2.15625 0.75,-0.875 1.03125,-0.09375 1.96875,0.625 1.46875,0 L 67.5625,39.1875 68,38.53125 67,37.875 65.28125,37.75 c -0.47628,-0.661949 -0.9345,-1.349332 -1.5,-1.9375 l -0.5625,0.25 L 63,37.75 61.9375,36.59375 61.71875,35.3125 60.5625,34.375 l -0.4375,0 1.15625,1.3125 -0.46875,1.1875 -0.9375,0.25 0.5625,-1.1875 -1,-0.5 -0.9375,-1.0625 -1.6875,0.40625 -0.25,0.53125 -1,0.625 -0.59375,1.4375 -1.4375,0.71875 -0.625,-0.71875 -0.6875,0 0,-2.3125 1.5,-0.8125 1.15625,0 -0.25,-0.875 -0.90625,-0.9375 1.53125,-0.3125 0.875,-0.96875 0.6875,-1.1875 1.25,0 -0.34375,-0.90625 0.78125,-0.5 0,1.03125 1.71875,0.375 1.71875,-1.40625 0.125,-0.65625 1.5,-1.03125 c -0.53781,0.067 -1.09947,0.106702 -1.625,0.25 l 0,-1.15625 0.5625,-1.3125 -0.5625,0 -1.25,1.1875 -0.34375,0.625 0.34375,0.9375 -0.5625,1.53125 -0.90625,-0.53125 -0.8125,-0.875 -1.25,0.875 -0.46875,-2.0625 2.1875,-1.4375 0,-0.75 1.34375,-0.90625 2.1875,-0.53125 z m 9.5625,26.9375 c -0.0327,0.0024 -0.061,-0.0022 -0.0937,0 l 0.0312,0.03125 0.0625,-0.03125 z m -0.0937,0 -0.875,-1 0.4375,-1.1875 -0.90625,-1 -1.5625,-3.3125 -1.3125,-1.5 -0.3125,0.375 0.5,1.90625 0.96875,1.09375 c 0.55464,1.604178 1.1154,3.122852 1.84375,4.65625 0.41292,0 0.81717,-0.004 1.21875,-0.03125 z m -40.7188,-26.84375 0.125,0.03125 0.6875,0.40625 -0.125,1.40625 -1.25,1.1875 -2.84375,1.6875 0.34375,1.15625 2.15625,0.90625 0.34375,1.5625 0.8125,-1.6875 1.25,-0.53125 -0.125,-0.78125 1.28125,-2.1875 1.59375,0.90625 -0.21875,1.03125 1.34375,-0.5 0.59375,1.15625 -0.25,0.78125 0.8125,0.25 0.6875,0.625 -0.25,0.8125 -1.9375,0.65625 -1.375,0 -1.9375,0.875 3.09375,0 -1.03125,1.5625 -2.0625,0.40625 -0.90625,1.28125 -1.59375,0.65625 -0.8125,1.9375 -2.15625,1.8125 -0.25,2.625 -1.25,-1.5625 -1.71875,-0.40625 -0.21875,0.78125 -1.375,0 -1.71875,1.3125 -0.25,1.53125 0.125,1.4375 1.15625,0.65625 0.78125,-0.40625 0.8125,-1.03125 0.8125,0 c -0.115333,0.908183 -0.229204,1.81041 -0.34375,2.71875 l 1.375,-0.125 0,1.40625 0.46875,1.3125 C 26.367297,50.810521 27.126918,50.819816 27.75,51 l 0,-0.25 2.0625,-1.8125 1.9375,1.40625 2.28125,-0.25 0.90625,2.46875 1.71875,0.375 0.90625,1.8125 c 1.863744,0.960522 3.747257,1.942069 5.625,2.875 l -0.21875,1.9375 -1.375,1.9375 0.21875,2.59375 -0.90625,2.09375 -1.71875,0.375 -0.8125,1.1875 0.34375,0.75 -1.15625,2.875 -1.46875,0.5 -0.34375,0.90625 -0.9375,0.9375 0.25,0.625 c 0,0 -0.210925,0.171289 -0.4375,0.34375 -0.05684,0.04233 -0.31887,-0.08267 -0.6875,-0.25 -0.0422,-0.01914 -0.11153,-0.0415 -0.15625,-0.0625 -0.01629,-0.0089 -0.04622,-0.02235 -0.0625,-0.03125 -1.039841,-0.567562 -2.038637,-1.193371 -3,-1.875 C 30.67752,72.291919 30.6875,72.25 30.6875,72.25 L 31.40625,69.28125 30.6875,67.75 30.8125,65 29.90625,63.71875 27.84375,61.90625 25.78125,58.125 26.34375,56.1875 26.125,55.65625 26.8125,54.625 27.75,52.15625 l 0,-0.1875 L 27.0625,51.625 26.125,51.78125 24.53125,50.625 23.5,49.3125 21.09375,48.65625 18.6875,47.21875 c 0,0 -0.376796,-0.591486 -0.6875,-1.125 0.497945,-8.819459 4.778944,-16.64037 11.25,-21.84375 0.233355,-0.04693 0.5625,-0.09375 0.5625,-0.09375 l 0.15625,-0.46875 c 0.390003,-0.294913 0.78309,-0.598884 1.1875,-0.875 z m 19.78125,1.03125 a 0.56474891,0.56474891 0 0 0 -0.15625,0.0625 L 50.0625,24.3125 49.84375,24.25 A 0.56474891,0.56474891 0 0 0 49.125,24.71875 l -0.09375,0.8125 a 0.56474891,0.56474891 0 0 0 0.25,0.53125 l 0.78125,0.5 a 0.56474891,0.56474891 0 0 0 0.625,0 l 1.375,-0.90625 a 0.56474891,0.56474891 0 0 0 0.125,-0.84375 L 51.5,24.03125 a 0.56474891,0.56474891 0 0 0 -0.5625,-0.1875 z M 34.78125,24 l 0.75,0.25 -0.8125,0.59375 a 0.56474891,0.56474891 0 0 0 0.03125,0.9375 l 0.46875,0.34375 -1.125,-0.65625 A 0.56474891,0.56474891 0 0 0 33.3125,25.6875 l -0.15625,0.25 0.53125,-1.15625 C 34.06382,24.510851 34.423821,24.249226 34.78125,24 z m 16.28125,0.40625 0.6875,0.78125 -1.375,0.90625 -0.78125,-0.5 0.09375,-0.8125 0.46875,0.125 0.90625,-0.5 z m -15.09375,0.25 1.15625,0.53125 0,0.90625 -0.9375,0 -1.125,-0.78125 0.90625,-0.65625 z m 29.78125,0.4375 0.1875,0 a 0.56474891,0.56474891 0 0 0 0.125,0 L 65.90625,25.25 65.75,25.09375 z m -34.625,1 a 0.56474891,0.56474891 0 0 0 0.40625,0.1875 l 1.125,0 a 0.56474891,0.56474891 0 0 0 0.375,-0.125 l -1,1.71875 a 0.56474891,0.56474891 0 0 0 -0.0625,0.375 l 0.0625,0.34375 -0.84375,0.34375 a 0.56474891,0.56474891 0 0 0 -0.28125,0.28125 L 30.8125,29.4375 a 0.56474891,0.56474891 0 0 0 -0.34375,-0.375 L 28.53125,28.25 28.40625,27.8125 30.875,26.34375 A 0.56474891,0.56474891 0 0 0 30.96875,26.25 L 31.125,26.09375 z m 30.09375,1.5 0.375,0 A 0.56474891,0.56474891 0 0 0 61.5,27.8125 l -0.09375,0.46875 -0.625,0.5 0.4375,-1.1875 z m -7.1875,0.0625 0.71875,0 c 0.336559,0.688113 0.637347,1.376315 0.90625,2.09375 l 0.78125,0.75 -0.90625,0.90625 -1.28125,0.28125 0.25,-1.59375 0,-1.15625 -0.46875,-0.53125 0,-0.75 z m 5.03125,1.3125 0.40625,0.25 -0.40625,-0.09375 0,-0.15625 z m -5.46875,0.25 0.4375,1.15625 -1,0.5 -0.25,-1.40625 0.8125,-0.25 z m -15.78125,2.34375 1.03125,0.75 -0.71875,1.0625 -0.3125,-1.8125 z m 20.5,3.46875 L 59,35.8125 a 0.56474891,0.56474891 0 0 0 0.1875,0.125 l 0.5,0.25 -0.3125,0.6875 a 0.56474891,0.56474891 0 0 0 0.65625,0.78125 l 0.9375,-0.25 a 0.56474891,0.56474891 0 0 0 0.375,-0.3125 l 0.09375,-0.25 a 0.56474891,0.56474891 0 0 0 0.09375,0.125 l 1.0625,1.15625 a 0.56474891,0.56474891 0 0 0 0.96875,-0.3125 l 0.15625,-1.15625 c 0.37503,0.452244 0.72354,0.922971 1.09375,1.4375 A 0.56474891,0.56474891 0 0 0 65.25,38.3125 l 1.5625,0.125 0.40625,0.25 -0.03125,0.0625 -0.03125,0.03125 -0.84375,0.75 -1.1875,0 -0.0625,0 L 63.25,38.9375 A 0.56474891,0.56474891 0 0 0 63.03125,38.90625 L 62,39 a 0.56474891,0.56474891 0 0 0 -0.375,0.1875 L 61.28125,39.59375 59.625,37.875 a 0.56474891,0.56474891 0 0 0 -0.25,-0.125 l -1.5,-0.40625 A 0.56474891,0.56474891 0 0 0 57.65625,37.3125 L 55.5,37.59375 56.03125,36.3125 56.875,35.78125 a 0.56474891,0.56474891 0 0 0 0.1875,-0.21875 l 0.125,-0.28125 1.125,-0.25 z m 16.875,7.78125 a 0.56474891,0.56474891 0 0 0 -0.0625,0.03125 l -0.5,0.5625 -0.28125,-0.3125 a 0.56474891,0.56474891 0 0 0 -0.0625,-0.0625 l -0.125,-0.09375 a 0.56474891,0.56474891 0 0 0 0.0625,0 l 0.96875,-0.125 z m -6.96875,0.34375 0.3125,0.375 0.3125,0.65625 -0.5,-0.5625 -0.125,-0.46875 z m 1.90625,3.6875 0.65625,0.75 -0.15625,0.46875 c -0.16873,-0.402639 -0.34437,-0.810552 -0.5,-1.21875 z"
             inkscape:connector-curvature="0"
             id="path3983"
             style="opacity:0.1;fill:#000000;fill-opacity:1;fill-rule:nonzero;stroke-miterlimit:4;display:inline" />
          <path
             inkscape:connector-curvature="0"
             d="m 124.45079,-16.952808 a 60.306107,60.306107 0 1 1 -120.6122127,0 60.306107,60.306107 0 1 1 120.6122127,0 z"
             transform="matrix(0.36243664,0,0,0.24819601,24.751617,37.114822)"
             id="path3897"
             style="opacity:0.6;color:#000000;fill:url(#linearGradient3977);fill-opacity:1;fill-rule:evenodd;stroke:none;stroke-width:2;marker:none;visibility:visible;display:inline;overflow:visible" />
          <path
             d="m 48.000009,18.291661 c -3.70431,0 -7.239716,0.697083 -10.510939,1.9375 9.004767,0.157983 14.086624,1.09315 18.696877,3.616668 0.384188,0.210292 0.766836,0.429177 1.146354,0.661978 1.138558,0.698406 2.270931,1.504055 3.439064,2.421876 5.034844,3.955966 5.475488,8.7701 9.752084,12.448439 2.603618,2.239399 2.25122,2.05052 3.455209,2.050521 1.317701,0 1.988499,-1.191047 2.308854,-2.486459 C 72.453271,26.970291 61.239382,18.29166 48.000009,18.291661 z m -11.915628,5.457292 c -0.629604,0 -1.257039,0.06786 -1.872917,0.193751 -0.205291,0.04196 -0.410222,0.09084 -0.613541,0.145312 -5.692934,1.525125 -10.564321,7.805451 -12.157814,10.688543 -0.101363,0.183394 -0.216244,0.398951 -0.322917,0.597396 -0.846145,1.796635 -1.527469,3.679692 -2.002083,5.651042 0.455825,-0.583199 0.899431,-1.130592 1.340104,-1.646875 3.084713,-3.613977 5.907656,-5.570312 9.96198,-5.570313 7.234203,0 8.153291,3.223007 21.409378,11.867188 6.524116,4.25432 16.424282,10.121133 24.590107,10.995315 0.334976,-1.098337 0.600326,-2.226345 0.807292,-3.37448 -3.055107,-0.22056 -5.807256,-1.385146 -8.783334,-3.358334 C 68.015481,49.655614 67.5847,49.364253 67.148969,49.049478 63.663137,46.531269 59.789092,42.97093 54.748968,38.554684 50.911374,35.192115 41.259481,23.748954 36.084381,23.748953 z M 25.718755,57.671354 c -2.293752,0 -4.005349,1.162623 -4.197917,3.778125 3.21559,6.312954 8.61611,11.321703 15.209378,14.030731 -0.0874,-0.122277 -0.170362,-0.251098 -0.258334,-0.3875 -0.615805,-0.95481 -1.210938,-2.246189 -1.210938,-3.729688 0,-1.725891 1.116129,-2.40573 2.373437,-2.40573 1.674486,0 7.201716,2.631771 16.452607,2.631771 4.627133,0 10.399892,-0.677795 14.628127,-2.308854 1.669981,-1.625994 3.139407,-3.446451 4.391667,-5.425 -2.702601,1.095642 -7.700246,2.680207 -14.208335,2.680208 -12.572687,0 -24.038442,-5.366479 -27.351045,-7.088022 -0.878685,-0.456648 -3.130969,-1.776041 -5.828647,-1.776041 z"
             inkscape:connector-curvature="0"
             id="path4540"
             style="color:#000000;fill:url(#radialGradient3093);fill-opacity:1;fill-rule:evenodd;stroke:none;stroke-width:2;marker:none;visibility:visible;display:inline;overflow:visible" />
          <path
             d="m 48.000294,18.283912 c -3.70431,0 -7.249976,0.700995 -10.521199,1.941412 1.005489,0.01764 1.968336,0.05579 2.880804,0.09394 2.436698,-0.654043 4.997066,-1.033332 7.640395,-1.033332 13.055217,-10e-7 24.136831,8.451635 28.119159,20.165632 0.05544,-0.165449 0.114119,-0.329367 0.156566,-0.501009 C 72.441778,26.978662 61.239667,18.283911 48.000294,18.283912 z m -11.930289,5.479792 c -0.629604,0 -1.231594,0.06198 -1.847472,0.187879 -0.205292,0.04196 -0.422943,0.07078 -0.626262,0.125252 -5.692934,1.525125 -10.555987,7.825987 -12.149481,10.709078 -0.101362,0.183395 -0.237771,0.396504 -0.344444,0.594949 -0.846145,1.796635 -1.498111,3.665007 -1.972725,5.636357 0.125688,-0.16081 0.251732,-0.282919 0.375757,-0.438383 0.0028,-0.0095 -0.0028,-0.02185 0,-0.03131 0.430123,-1.435379 0.966516,-2.825991 1.596968,-4.164642 0.106673,-0.198445 0.243082,-0.411554 0.344444,-0.594949 1.593494,-2.883091 6.456547,-9.183953 12.149481,-10.709078 0.203319,-0.05447 0.42097,-0.08329 0.626262,-0.125252 0.615878,-0.125894 1.217868,-0.187879 1.847472,-0.187879 5.1751,10e-7 14.856324,11.417211 18.693918,14.779781 5.040124,4.416245 8.914153,8.00299 12.399985,10.5212 0.435731,0.314775 0.858683,0.594882 1.283837,0.876766 2.913698,1.93183 5.600925,3.064564 8.579788,3.319188 0.06776,-0.319762 0.129624,-0.647542 0.187879,-0.970706 -3.055107,-0.22056 -5.791589,-1.377313 -8.767667,-3.350501 C 68.022591,49.65957 67.599639,49.379463 67.163908,49.064688 63.678076,46.546478 59.804047,42.959733 54.763923,38.543488 50.926329,35.180915 41.245105,23.763705 36.070005,23.763704 z M 25.705371,57.675786 c -2.293752,0 -4.003387,1.173382 -4.195955,3.788884 0.04272,0.08386 0.08177,0.167104 0.125253,0.250505 0.438304,-2.095047 2.006325,-3.03737 4.070702,-3.03737 2.697678,0 4.976863,1.328198 5.855549,1.784846 3.312602,1.721543 14.763645,7.076759 27.336331,7.076759 5.874511,-10e-7 10.503241,-1.291314 13.339379,-2.348482 0.307664,-0.433947 0.591452,-0.895672 0.876766,-1.346463 -2.7026,1.095642 -7.708055,2.692925 -14.216145,2.692926 -12.572686,0 -24.023729,-5.355216 -27.336331,-7.076759 -0.878686,-0.456648 -3.157871,-1.784846 -5.855549,-1.784846 z m 9.581807,14.310084 c -0.01337,0.123142 -0.03131,0.239813 -0.03131,0.375757 0,1.047082 0.297916,1.981997 0.688888,2.786865 0.260645,0.116039 0.518277,0.235746 0.782827,0.344444 -0.0874,-0.122276 -0.162532,-0.270668 -0.250504,-0.40707 -0.529356,-0.820769 -1.055992,-1.873573 -1.189898,-3.099996 z"
             inkscape:connector-curvature="0"
             id="path3870"
             style="opacity:0.6;color:#000000;fill:#ffffff;fill-opacity:1;fill-rule:evenodd;stroke:none;stroke-width:2;marker:none;visibility:visible;display:inline;overflow:visible" />
          <path
             d="m 40.359899,20.319264 c -0.978042,0.26252 -1.943868,0.552802 -2.880804,0.908079 9.004767,0.157984 14.083664,1.108802 18.693917,3.632319 0.384188,0.210293 0.779067,0.424774 1.158585,0.657575 1.138558,0.698406 2.276307,1.493287 3.44444,2.411109 5.034844,3.955966 5.461777,8.784272 9.738372,12.462611 2.603619,2.239399 2.271765,2.03535 3.475754,2.035351 1.317701,0 1.965501,-1.178322 2.285856,-2.473734 -0.05334,-0.166526 -0.100391,-0.335773 -0.156566,-0.50101 -0.362985,1.083228 -0.986185,1.972725 -2.12929,1.972725 -1.203989,-1e-6 -0.872135,0.204048 -3.475754,-2.035351 C 66.237814,35.710599 65.810881,30.882293 60.776037,26.926327 59.607904,26.008505 58.470155,25.213624 57.331597,24.515218 56.952079,24.282417 56.5572,24.067936 56.173012,23.857643 52.077548,21.615906 47.619151,20.622774 40.359899,20.319264 z m -9.957564,13.495943 c -4.054324,10e-7 -6.872851,1.959754 -9.957564,5.573731 -0.314034,0.367915 -0.619019,0.757373 -0.939393,1.158585 -0.0028,0.0094 0.0028,0.02184 0,0.03131 -0.143838,0.48183 -0.257103,0.947565 -0.375757,1.440402 0.455826,-0.583199 0.874477,-1.111998 1.31515,-1.628281 3.084713,-3.613977 5.90324,-5.57373 9.957564,-5.573731 7.234203,0 8.162069,3.223482 21.418157,11.867663 6.524116,4.25432 16.414954,10.116715 24.580779,10.990897 0.334976,-1.098337 0.607175,-2.23368 0.814141,-3.381815 -0.06404,-0.0046 -0.124104,-0.02586 -0.187879,-0.03131 -0.172967,0.816287 -0.385571,1.621919 -0.626262,2.411109 C 68.235446,55.799585 58.344608,49.93719 51.820492,45.68287 38.564404,37.038689 37.636538,33.815207 30.402335,33.815207 z m 42.711061,31.031277 c -0.263105,0.106664 -0.570883,0.230427 -0.876766,0.344444 -1.042692,1.470675 -2.217573,2.846487 -3.507067,4.102016 -4.228235,1.631058 -10.027395,2.285856 -14.654528,2.285856 -9.250891,0 -14.764889,-2.6303 -16.439375,-2.6303 -1.257308,0 -2.379795,0.685217 -2.379795,2.411108 0,0.185438 0.01384,0.384484 0.03131,0.563636 0.178616,-1.395897 1.20657,-1.972725 2.348482,-1.972725 1.674486,0 7.188484,2.6303 16.439375,2.6303 4.627133,0 10.426293,-0.654798 14.654528,-2.285856 1.669981,-1.625995 3.131573,-3.46993 4.383833,-5.448479 z"
             inkscape:connector-curvature="0"
             id="path3888"
             style="opacity:0.3;color:#000000;fill:#000000;fill-opacity:1;fill-rule:evenodd;stroke:none;stroke-width:2;marker:none;visibility:visible;display:inline;overflow:visible" />
        </g>
      </g>
    </g>
    <rect
       ry="25"
       rx="25"
       id="rect3003"
       style="opacity:0.15;fill:#ffffff;fill-opacity:1"
       height="92"
       width="92"
       y="958.36218"
       x="-96"
       clip-path="url(#clipPath3009)"
       transform="translate(98,3.8281269e-7)" />
  </g>
</svg>
