<svg height="96" width="96" xmlns="http://www.w3.org/2000/svg" xmlns:xlink="http://www.w3.org/1999/xlink" xmlns:sodipodi="http://sodipodi.sourceforge.net/DTD/sodipodi-0.dtd" xmlns:inkscape="http://www.inkscape.org/namespaces/inkscape">
 <defs>
  <clipPath clipPathUnits="userSpaceOnUse" id="clipPath3009">
   <path d="m-2 956.36h-96v33.562l96 25.687v-59.25z"/>
  </clipPath>
  <linearGradient x2="0" y1="90" y2="5.988" gradientUnits="userSpaceOnUse" id="linearGradient3104" gradientTransform="matrix(1.1429 0 0 1.1429 -6.857 949.5)">
   <stop stop-color="#a27b3e"/>
   <stop stop-color="#f0d9b7" offset="1"/>
  </linearGradient>
  <clipPath clipPathUnits="userSpaceOnUse" id="clipPath3018">
   <rect x="2" rx="25" y="958.36" height="92" width="92"/>
  </clipPath>
  <linearGradient x2="0" y1="90" y2="6" gradientUnits="userSpaceOnUse" id="linearGradient4053">
   <stop/>
   <stop stop-opacity="0" offset="1"/>
  </linearGradient>
  <linearGradient x2="0" y1="90" y2="6" gradientUnits="userSpaceOnUse" id="linearGradient4045">
   <stop stop-color="#d40000"/>
   <stop stop-color="#d40000" stop-opacity="0" offset="1"/>
  </linearGradient>
  <linearGradient x2="0" y1="90" y2="6" gradientUnits="userSpaceOnUse" id="linearGradient4037">
   <stop stop-color="#008000"/>
   <stop stop-color="#008000" stop-opacity="0" offset="1"/>
  </linearGradient>
  <linearGradient x2="0" y1="90" y2="6" gradientUnits="userSpaceOnUse" id="linearGradient4029">
   <stop stop-color="#a80"/>
   <stop stop-color="#a80" stop-opacity="0" offset="1"/>
  </linearGradient>
  <linearGradient x2="0" y1="90" y2="76" gradientUnits="userSpaceOnUse" id="linearGradient3201">
   <stop stop-opacity="0.485"/>
   <stop stop-opacity="0" offset="1"/>
  </linearGradient>
  <rect x="31.26" y="6" fill="url(#linearGradient4053)" height="84" id="SVGCleanerId_0" width="8"/>
  <rect x="13.976" y="6" fill="url(#linearGradient4045)" height="84" id="SVGCleanerId_1" width="8"/>
  <rect x="48.551" y="6" fill="url(#linearGradient4037)" height="84" id="SVGCleanerId_2" width="8"/>
  <rect x="73.879" y="6" fill="url(#linearGradient4029)" height="84" id="SVGCleanerId_3" width="8"/>
 </defs>
 <g transform="matrix(1 0 0 1 0 -956.36)">
  <rect rx="6.857" y="956.36" clip-path="url(#clipPath3018)" fill="url(#linearGradient3104)" height="96" width="96"/>
  <g transform="matrix(1 0 0 1 0 956.36)">
   <use xlink:href="#SVGCleanerId_0"/>
   <use xlink:href="#SVGCleanerId_1"/>
   <use xlink:href="#SVGCleanerId_2"/>
   <use xlink:href="#SVGCleanerId_0"/>
   <use xlink:href="#SVGCleanerId_1"/>
   <use xlink:href="#SVGCleanerId_2"/>
   <use xlink:href="#SVGCleanerId_3"/>
   <use xlink:href="#SVGCleanerId_3"/>
   <path d="m13.969 6v84h8v-84h-8zm17.281 0v84h8v-84h-8zm17.312 0v84h8v-84h-8zm25.312 0v84h8v-84h-8z" fill="url(#linearGradient3201)"/>
  </g>
  <rect x="-96" rx="25" y="958.36" clip-path="url(#clipPath3009)" fill="#fff" height="92" opacity="0.15" width="92" transform="matrix(1 0 0 1 98 0)"/>
 </g>
</svg>
