<svg height="96" width="96" xmlns="http://www.w3.org/2000/svg" xmlns:xlink="http://www.w3.org/1999/xlink" xmlns:sodipodi="http://sodipodi.sourceforge.net/DTD/sodipodi-0.dtd" xmlns:inkscape="http://www.inkscape.org/namespaces/inkscape">
 <defs>
  <clipPath clipPathUnits="userSpaceOnUse" id="clipPath3009">
   <path d="m -2,956.36218 -96,0 0,33.5624 96,25.68742 0,-59.24982 z" inkscape:connector-curvature="0"/>
  </clipPath>
  <linearGradient id="linearGradient3852">
   <stop stop-color="#c4c0eb" stop-opacity="1"/>
   <stop stop-color="#10317c" stop-opacity="1" offset="1"/>
  </linearGradient>
  <linearGradient x2="0" y1="90" y2="5.988" gradientUnits="userSpaceOnUse" id="linearGradient3179" inkscape:collect="always">
   <stop stop-color="#000000" stop-opacity="1"/>
   <stop stop-color="#515151" stop-opacity="1" offset="1"/>
  </linearGradient>
  <radialGradient cy="48" r="28" xlink:href="#linearGradient3852" gradientUnits="userSpaceOnUse" id="radialGradient3181" cx="48" inkscape:collect="always" gradientTransform="matrix(1.14286 0 0 0.85714 -6.857 3.857)"/>
  <radialGradient cy="48" r="28" xlink:href="#linearGradient3852" gradientUnits="userSpaceOnUse" id="radialGradient3183" cx="48" inkscape:collect="always" gradientTransform="matrix(1.14286 0 0 0.85714 -6.857 57.857)"/>
  <radialGradient cy="48" r="28" xlink:href="#linearGradient3852" gradientUnits="userSpaceOnUse" id="radialGradient3185" cx="48" inkscape:collect="always" gradientTransform="matrix(1.14286 0 0 -0.85714 -6.857 38.14)"/>
  <linearGradient x2="0" y1="90.43" y2="52.39" gradientUnits="userSpaceOnUse" id="linearGradient3187" inkscape:collect="always">
   <stop stop-color="#090c46" stop-opacity="1"/>
   <stop stop-color="#191f60" stop-opacity="0" offset="1"/>
  </linearGradient>
  <radialGradient cy="49.669" r="20.16" gradientUnits="userSpaceOnUse" id="radialGradient3191" cx="40.453" inkscape:collect="always" gradientTransform="matrix(1.98314 0.12497 -0.08889 1.41061 -33.653 -25.826)">
   <stop stop-color="#f6dd81" stop-opacity="1"/>
   <stop stop-color="#f8c400" stop-opacity="1" offset="1"/>
  </radialGradient>
  <clipPath clipPathUnits="userSpaceOnUse" id="clipPath3193">
   <rect x="7.75" rx="21.875" y="7.75" height="80.5" width="80.5"/>
  </clipPath>
  <path d="m 22,18 c -1.108,0 -2,-0.93035 -2,-2.09375 L 20,6 76,6 76,15.90625 C 76,17.06965 75.108,18 74,18 l -52,0 z" fill="url(#radialGradient3185)" fill-opacity="1" stroke="none" id="SVGCleanerId_0"/>
  <path d="m 52.272937,27.830918 c -2.327284,-0.195674 -4.72182,-0.05553 -7.170619,0.400886 -5.868786,1.094001 -10.302098,3.717482 -13.052462,7.881326 l -0.0019,0.02929 c -2.739438,4.148144 -3.46692,9.353388 -2.327269,15.467278 1.136709,6.098139 3.707586,10.70534 7.758393,13.603406 4.063248,2.876542 9.137897,3.74484 15.005803,2.651047 2.681209,-0.499788 5.16948,-1.348008 7.420653,-2.502278 2.246833,-1.170572 4.232466,-2.641203 5.953503,-4.417824 L 66.205226,60.5836 66.1176,60.107603 63.19116,44.4857 l -0.177095,-0.922708 -0.922707,0.177095 -12.912359,2.391463 -0.951996,0.175249 0.177095,0.922708 0.774098,4.047825 0.17525,0.951996 0.922706,-0.177095 7.110677,-1.316215 1.540815,8.212805 c -0.807588,0.635318 -1.68905,1.192606 -2.750387,1.649783 -1.233761,0.51492 -2.686264,0.939307 -4.372086,1.253546 -4.277234,0.797293 -7.525027,0.219333 -9.981347,-1.658127 -2.442428,-1.880841 -4.16285,-5.139442 -5.051016,-9.904235 -0.888705,-4.767616 -0.451904,-8.411444 1.136953,-11.043354 0.0046,-0.0076 -0.0028,-0.02166 0.0019,-0.02929 1.616967,-2.624755 4.439142,-4.360724 8.705254,-5.155974 2.150464,-0.400821 4.245047,-0.390636 6.322857,-0.01324 2.079105,0.37771 4.126564,1.113373 6.149614,2.269415 l 1.78796,1.024213 -0.372404,-2.022991 -0.963872,-5.235973 -0.115068,-0.507133 -0.48683,-0.207105 C 56.83409,28.53164 54.614995,28.023353 52.272957,27.830914 z" display="inline" color="#000000" fill-opacity="1" fill-rule="nonzero" id="SVGCleanerId_1" visibility="visible"/>
 </defs>
 <g inkscape:label="Layer 1" inkscape:groupmode="layer" transform="matrix(1 0 0 1 0 -956.36)">
  <g clip-path="url(#clipPath3193)" transform="matrix(1.14286 0 0 1.14286 -6.857 949.51)">
   <path d="M 12,6 C 8.676,6 6,8.676 6,12 l 0,72 c 0,3.324 2.676,6 6,6 l 72,0 c 3.324,0 6,-2.676 6,-6 L 90,12 C 90,8.676 87.324,6 84,6 L 12,6 z m -2,4 6,0 0,4 -6,0 0,-4 z m 70,0 6,0 0,4 -6,0 0,-4 z m -70,8 6,0 0,4 -6,0 0,-4 z m 70,0 6,0 0,4 -6,0 0,-4 z m -70,8 6,0 0,4 -6,0 0,-4 z m 70,0 6,0 0,4 -6,0 0,-4 z m -70,8 6,0 0,4 -6,0 0,-4 z m 70,0 6,0 0,4 -6,0 0,-4 z m -70,8 6,0 0,4 -6,0 0,-4 z m 70,0 6,0 0,4 -6,0 0,-4 z m -70,8 6,0 0,4 -6,0 0,-4 z m 70,0 6,0 0,4 -6,0 0,-4 z m -70,8 6,0 0,4 -6,0 0,-4 z m 70,0 6,0 0,4 -6,0 0,-4 z m -70,8 6,0 0,4 -6,0 0,-4 z m 70,0 6,0 0,4 -6,0 0,-4 z m -70,8 6,0 0,4 -6,0 0,-4 z m 70,0 6,0 0,4 -6,0 0,-4 z m -70,8 6,0 0,4 -6,0 0,-4 z m 70,0 6,0 0,4 -6,0 0,-4 z" display="inline" fill="url(#linearGradient3179)" fill-opacity="1" fill-rule="nonzero" stroke="none" inkscape:connector-curvature="0"/>
   <rect x="20" rx="2" ry="2.1" y="24" fill="url(#radialGradient3181)" fill-opacity="1" stroke="none" height="48" width="56"/>
   <path d="m 22,78 c -1.108,0 -2,0.93035 -2,2.09375 L 20,90 76,90 76,80.09375 C 76,78.93035 75.108,78 74,78 l -52,0 z" fill="url(#radialGradient3183)" fill-opacity="1" stroke="none" inkscape:connector-curvature="0"/>
   <use xlink:href="#SVGCleanerId_0" clip-path="none" inkscape:connector-curvature="0"/>
   <path d="m 20,48 0,21.90625 C 20,71.06965 20.892,72 22,72 l 52,0 c 1.108,0 2,-0.93035 2,-2.09375 L 76,48 20,48 z m 2,30 c -1.108,0 -2,0.93035 -2,2.09375 L 20,90 76,90 76,80.09375 C 76,78.93035 75.108,78 74,78 l -52,0 z" fill="url(#linearGradient3187)" fill-opacity="1" stroke="none" opacity="0.6" inkscape:connector-curvature="0"/>
   <use xlink:href="#SVGCleanerId_0" inkscape:connector-curvature="0"/>
   <g transform="matrix(1 0 0 1 0 2)">
    <use stroke-opacity="1" stroke-width="6" xlink:href="#SVGCleanerId_1" fill="#000000" stroke="#000000" opacity="0.2" inkscape:connector-curvature="0"/>
    <use stroke-opacity="1" stroke-width="4" xlink:href="#SVGCleanerId_1" fill="#000000" stroke="#000000" opacity="0.2" inkscape:connector-curvature="0"/>
    <use stroke-opacity="1" stroke-width="2" xlink:href="#SVGCleanerId_1" fill="#000000" stroke="#000000" opacity="0.2" inkscape:connector-curvature="0"/>
   </g>
   <use stroke-width="2.027" xlink:href="#SVGCleanerId_1" fill="url(#radialGradient3191)" stroke="none" inkscape:connector-curvature="0"/>
  </g>
  <rect x="-96" rx="25" y="958.36" clip-path="url(#clipPath3009)" fill="#ffffff" fill-opacity="1" height="92" opacity="0.15" width="92" transform="matrix(1 0 0 1 98 0)"/>
 </g>
</svg>
