<svg height="96" width="96" xmlns="http://www.w3.org/2000/svg" xmlns:xlink="http://www.w3.org/1999/xlink" xmlns:sodipodi="http://sodipodi.sourceforge.net/DTD/sodipodi-0.dtd" xmlns:inkscape="http://www.inkscape.org/namespaces/inkscape">
 <defs>
  <clipPath clipPathUnits="userSpaceOnUse" id="clipPath3009">
   <path d="m-2 956.36h-96v33.562l96 25.687v-59.25z"/>
  </clipPath>
  <pattern xlink:href="#pattern5500-9" id="pattern5454-5" patternTransform="translate(-77.251 -.83827)"/>
  <pattern xlink:href="#pattern5480-9" id="pattern5500-9" patternTransform="translate(-70.577 -31.186)"/>
  <pattern height="165.51" id="pattern5480-9" width="403.09" patternTransform="translate(280.96 -170.59)" patternUnits="userSpaceOnUse">
   <rect x="-85.88" y="79.23" fill="#008000" height="24.286" width="232.86" transform="matrix(0.86603 -0.5 0.5 0.86603 224.04 4.873)"/>
   <rect x="-46.918" y="101.75" fill="#008000" height="24.286" width="232.86" transform="matrix(-0.86603 -0.5 -0.5 0.86603 224.04 4.873)"/>
   <rect x="158.63" y="175.02" fill="#a0f300" height="24.286" width="232.86" transform="matrix(0.86603 -0.5 0.5 0.86603 -35.6 72.19)"/>
   <rect x="-252.13" y="-62.1" fill="#a0f300" height="24.286" width="232.86" transform="matrix(-0.86603 -0.5 -0.5 0.86603 -35.6 72.19)"/>
  </pattern>
  <pattern xlink:href="#pattern5521-5" id="pattern5451-6" patternTransform="translate(-77.151 54.85)"/>
  <pattern xlink:href="#pattern5500-8-0" id="pattern5521-5" patternTransform="translate(-70.477 24.502)"/>
  <pattern xlink:href="#pattern5480-6-8" id="pattern5500-8-0" patternTransform="translate(-70.577 -31.186)"/>
  <pattern height="165.51" id="pattern5480-6-8" width="403.09" patternTransform="translate(280.96 -170.59)" patternUnits="userSpaceOnUse">
   <rect x="-85.88" y="79.23" fill="#008000" height="24.286" width="232.86" transform="matrix(0.86603 -0.5 0.5 0.86603 224.04 4.873)"/>
   <rect x="-46.918" y="101.75" fill="#008000" height="24.286" width="232.86" transform="matrix(-0.86603 -0.5 -0.5 0.86603 224.04 4.873)"/>
   <rect x="158.63" y="175.02" fill="#a0f300" height="24.286" width="232.86" transform="matrix(0.86603 -0.5 0.5 0.86603 -35.6 72.19)"/>
   <rect x="-252.13" y="-62.1" fill="#a0f300" height="24.286" width="232.86" transform="matrix(-0.86603 -0.5 -0.5 0.86603 -35.6 72.19)"/>
  </pattern>
  <pattern xlink:href="#pattern5500-5-2" id="pattern5448-4" patternTransform="translate(-76.948 110.09)"/>
  <pattern xlink:href="#pattern5480-4-74" id="pattern5500-5-2" patternTransform="translate(-70.577 -31.186)"/>
  <pattern height="165.51" id="pattern5480-4-74" width="403.09" patternTransform="translate(280.96 -170.59)" patternUnits="userSpaceOnUse">
   <rect x="-85.88" y="79.23" fill="#008000" height="24.286" width="232.86" transform="matrix(0.86603 -0.5 0.5 0.86603 224.04 4.873)"/>
   <rect x="-46.918" y="101.75" fill="#008000" height="24.286" width="232.86" transform="matrix(-0.86603 -0.5 -0.5 0.86603 224.04 4.873)"/>
   <rect x="158.63" y="175.02" fill="#a0f300" height="24.286" width="232.86" transform="matrix(0.86603 -0.5 0.5 0.86603 -35.6 72.19)"/>
   <rect x="-252.13" y="-62.1" fill="#a0f300" height="24.286" width="232.86" transform="matrix(-0.86603 -0.5 -0.5 0.86603 -35.6 72.19)"/>
  </pattern>
  <pattern xlink:href="#pattern5521-4-0" id="pattern5445-0" patternTransform="translate(-76.848 165.78)"/>
  <pattern xlink:href="#pattern5500-8-3-3" id="pattern5521-4-0" patternTransform="translate(-70.477 24.502)"/>
  <pattern xlink:href="#pattern5480-6-0-4" id="pattern5500-8-3-3" patternTransform="translate(-70.577 -31.186)"/>
  <pattern height="165.51" id="pattern5480-6-0-4" width="403.09" patternTransform="translate(280.96 -170.59)" patternUnits="userSpaceOnUse">
   <rect x="-85.88" y="79.23" fill="#008000" height="24.286" width="232.86" transform="matrix(0.86603 -0.5 0.5 0.86603 224.04 4.873)"/>
   <rect x="-46.918" y="101.75" fill="#008000" height="24.286" width="232.86" transform="matrix(-0.86603 -0.5 -0.5 0.86603 224.04 4.873)"/>
   <rect x="158.63" y="175.02" fill="#a0f300" height="24.286" width="232.86" transform="matrix(0.86603 -0.5 0.5 0.86603 -35.6 72.19)"/>
   <rect x="-252.13" y="-62.1" fill="#a0f300" height="24.286" width="232.86" transform="matrix(-0.86603 -0.5 -0.5 0.86603 -35.6 72.19)"/>
  </pattern>
  <pattern xlink:href="#pattern5500-5-6-4" id="pattern5442-4" patternTransform="translate(-77.367 -112.14)"/>
  <pattern xlink:href="#pattern5480-4-7-3" id="pattern5500-5-6-4" patternTransform="translate(-70.577 -31.186)"/>
  <pattern height="165.51" id="pattern5480-4-7-3" width="403.09" patternTransform="translate(280.96 -170.59)" patternUnits="userSpaceOnUse">
   <rect x="-85.88" y="79.23" fill="#008000" height="24.286" width="232.86" transform="matrix(0.86603 -0.5 0.5 0.86603 224.04 4.873)"/>
   <rect x="-46.918" y="101.75" fill="#008000" height="24.286" width="232.86" transform="matrix(-0.86603 -0.5 -0.5 0.86603 224.04 4.873)"/>
   <rect x="158.63" y="175.02" fill="#a0f300" height="24.286" width="232.86" transform="matrix(0.86603 -0.5 0.5 0.86603 -35.6 72.19)"/>
   <rect x="-252.13" y="-62.1" fill="#a0f300" height="24.286" width="232.86" transform="matrix(-0.86603 -0.5 -0.5 0.86603 -35.6 72.19)"/>
  </pattern>
  <pattern xlink:href="#pattern5521-4-1-3-6" id="pattern5439-2-7" patternTransform="translate(-77.107 55.898)"/>
  <pattern xlink:href="#pattern5500-8-3-5-1-1" id="pattern5521-4-1-3-6" patternTransform="translate(-70.477 24.502)"/>
  <pattern xlink:href="#pattern5480-6-0-3-8-3" id="pattern5500-8-3-5-1-1" patternTransform="translate(-70.577 -31.186)"/>
  <pattern height="165.51" id="pattern5480-6-0-3-8-3" width="403.09" patternTransform="translate(280.96 -170.59)" patternUnits="userSpaceOnUse">
   <rect x="-85.88" y="79.23" fill="#008000" height="24.286" width="232.86" transform="matrix(0.86603 -0.5 0.5 0.86603 224.04 4.873)"/>
   <rect x="-46.918" y="101.75" fill="#008000" height="24.286" width="232.86" transform="matrix(-0.86603 -0.5 -0.5 0.86603 224.04 4.873)"/>
   <rect x="158.63" y="175.02" fill="#a0f300" height="24.286" width="232.86" transform="matrix(0.86603 -0.5 0.5 0.86603 -35.6 72.19)"/>
   <rect x="-252.13" y="-62.1" fill="#a0f300" height="24.286" width="232.86" transform="matrix(-0.86603 -0.5 -0.5 0.86603 -35.6 72.19)"/>
  </pattern>
  <filter x="-0.25" y="-0.25" height="1.5" color-interpolation-filters="sRGB" id="filter3134-1" width="1.5">
   <feGaussianBlur stdDeviation="4" in="SourceAlpha" result="blur"/>
   <feColorMatrix values="1 0 0 0 0 0 1 0 0 0 0 0 1 0 0 0 0 0 0.7 0 " type="matrix" result="bluralpha"/>
   <feOffset dx="0" dy="5" in="bluralpha" result="offsetBlur"/>
   <feMerge>
    <feMergeNode in="offsetBlur"/>
    <feMergeNode in="SourceGraphic"/>
   </feMerge>
  </filter>
  <pattern xlink:href="#pattern5521-4-1-3-3" id="pattern5439-2-5" patternTransform="translate(-77.205 -.27858)"/>
  <pattern xlink:href="#pattern5500-8-3-5-1-8" id="pattern5521-4-1-3-3" patternTransform="translate(-70.477 24.502)"/>
  <pattern xlink:href="#pattern5480-6-0-3-8-8" id="pattern5500-8-3-5-1-8" patternTransform="translate(-70.577 -31.186)"/>
  <pattern height="165.51" id="pattern5480-6-0-3-8-8" width="403.09" patternTransform="translate(280.96 -170.59)" patternUnits="userSpaceOnUse">
   <rect x="-85.88" y="79.23" fill="#008000" height="24.286" width="232.86" transform="matrix(0.86603 -0.5 0.5 0.86603 224.04 4.873)"/>
   <rect x="-46.918" y="101.75" fill="#008000" height="24.286" width="232.86" transform="matrix(-0.86603 -0.5 -0.5 0.86603 224.04 4.873)"/>
   <rect x="158.63" y="175.02" fill="#a0f300" height="24.286" width="232.86" transform="matrix(0.86603 -0.5 0.5 0.86603 -35.6 72.19)"/>
   <rect x="-252.13" y="-62.1" fill="#a0f300" height="24.286" width="232.86" transform="matrix(-0.86603 -0.5 -0.5 0.86603 -35.6 72.19)"/>
  </pattern>
  <filter x="-0.25" y="-0.25" height="1.5" color-interpolation-filters="sRGB" id="filter3134-3" width="1.5">
   <feGaussianBlur stdDeviation="4" in="SourceAlpha" result="blur"/>
   <feColorMatrix values="1 0 0 0 0 0 1 0 0 0 0 0 1 0 0 0 0 0 0.7 0 " type="matrix" result="bluralpha"/>
   <feOffset dx="0" dy="5" in="bluralpha" result="offsetBlur"/>
   <feMerge>
    <feMergeNode in="offsetBlur"/>
    <feMergeNode in="SourceGraphic"/>
   </feMerge>
  </filter>
  <pattern xlink:href="#pattern5521-4-1-3" id="pattern5439-2" patternTransform="translate(-77.266 -56.454)"/>
  <pattern xlink:href="#pattern5500-8-3-5-1" id="pattern5521-4-1-3" patternTransform="translate(-70.477 24.502)"/>
  <pattern xlink:href="#pattern5480-6-0-3-8" id="pattern5500-8-3-5-1" patternTransform="translate(-70.577 -31.186)"/>
  <pattern height="165.51" id="pattern5480-6-0-3-8" width="403.09" patternTransform="translate(280.96 -170.59)" patternUnits="userSpaceOnUse">
   <rect x="-85.88" y="79.23" fill="#008000" height="24.286" width="232.86" transform="matrix(0.86603 -0.5 0.5 0.86603 224.04 4.873)"/>
   <rect x="-46.918" y="101.75" fill="#008000" height="24.286" width="232.86" transform="matrix(-0.86603 -0.5 -0.5 0.86603 224.04 4.873)"/>
   <rect x="158.63" y="175.02" fill="#a0f300" height="24.286" width="232.86" transform="matrix(0.86603 -0.5 0.5 0.86603 -35.6 72.19)"/>
   <rect x="-252.13" y="-62.1" fill="#a0f300" height="24.286" width="232.86" transform="matrix(-0.86603 -0.5 -0.5 0.86603 -35.6 72.19)"/>
  </pattern>
  <filter x="-0.25" y="-0.25" height="1.5" color-interpolation-filters="sRGB" id="filter3134" width="1.5">
   <feGaussianBlur stdDeviation="4" in="SourceAlpha" result="blur"/>
   <feColorMatrix values="1 0 0 0 0 0 1 0 0 0 0 0 1 0 0 0 0 0 0.7 0 " type="matrix" result="bluralpha"/>
   <feOffset dx="0" dy="5" in="bluralpha" result="offsetBlur"/>
   <feMerge>
    <feMergeNode in="offsetBlur"/>
    <feMergeNode in="SourceGraphic"/>
   </feMerge>
  </filter>
  <pattern xlink:href="#pattern5521-4-1-3-6-0" id="pattern5439-2-7-9" patternTransform="translate(-77.107 -112.55)"/>
  <pattern xlink:href="#pattern5500-8-3-5-1-1-2" id="pattern5521-4-1-3-6-0" patternTransform="translate(-70.477 24.502)"/>
  <pattern xlink:href="#pattern5480-6-0-3-8-3-8" id="pattern5500-8-3-5-1-1-2" patternTransform="translate(-70.577 -31.186)"/>
  <pattern height="165.51" id="pattern5480-6-0-3-8-3-8" width="403.09" patternTransform="translate(280.96 -170.59)" patternUnits="userSpaceOnUse">
   <rect x="-85.88" y="79.23" fill="#008000" height="24.286" width="232.86" transform="matrix(0.86603 -0.5 0.5 0.86603 224.04 4.873)"/>
   <rect x="-46.918" y="101.75" fill="#008000" height="24.286" width="232.86" transform="matrix(-0.86603 -0.5 -0.5 0.86603 224.04 4.873)"/>
   <rect x="158.63" y="175.02" fill="#a0f300" height="24.286" width="232.86" transform="matrix(0.86603 -0.5 0.5 0.86603 -35.6 72.19)"/>
   <rect x="-252.13" y="-62.1" fill="#a0f300" height="24.286" width="232.86" transform="matrix(-0.86603 -0.5 -0.5 0.86603 -35.6 72.19)"/>
  </pattern>
  <filter x="-0.25" y="-0.25" height="1.5" color-interpolation-filters="sRGB" id="filter3134-1-1" width="1.5">
   <feGaussianBlur stdDeviation="4" in="SourceAlpha" result="blur"/>
   <feColorMatrix values="1 0 0 0 0 0 1 0 0 0 0 0 1 0 0 0 0 0 0.7 0 " type="matrix" result="bluralpha"/>
   <feOffset dx="0" dy="5" in="bluralpha" result="offsetBlur"/>
   <feMerge>
    <feMergeNode in="offsetBlur"/>
    <feMergeNode in="SourceGraphic"/>
   </feMerge>
  </filter>
  <clipPath clipPathUnits="userSpaceOnUse" id="clipPath3262">
   <rect x="30.934" rx="50.817" ry="50.964" y="15.517" height="187.55" width="187.01"/>
  </clipPath>
 </defs>
 <g transform="matrix(1 0 0 1 0 -956.36)">
  <g clip-path="url(#clipPath3262)" transform="matrix(0.49196 0 0 0.49055 -13.218 950.75)">
   <rect x="-77.25" y="-0.838" fill="url(#pattern5454-5)" height="165.51" width="403.09"/>
   <rect x="-77.15" y="54.85" fill="url(#pattern5451-6)" height="165.51" width="403.09"/>
   <g clip-path="none">
    <rect x="-76.948" y="110.09" fill="url(#pattern5448-4)" height="165.51" width="403.09"/>
    <rect x="-76.848" y="165.78" fill="url(#pattern5445-0)" height="165.51" width="403.09"/>
    <rect x="-77.37" y="-112.14" fill="url(#pattern5442-4)" height="165.51" width="403.09"/>
    <rect x="-77.11" y="55.898" fill="url(#pattern5439-2-7)" height="165.51" filter="url(#filter3134-1)" width="403.09"/>
    <rect x="-77.2" y="-0.279" fill="url(#pattern5439-2-5)" height="165.51" filter="url(#filter3134-3)" width="403.09"/>
    <rect x="-77.27" y="-56.45" fill="url(#pattern5439-2)" height="165.51" filter="url(#filter3134)" width="403.09"/>
    <rect x="-77.11" y="-112.55" fill="url(#pattern5439-2-7-9)" height="165.51" filter="url(#filter3134-1-1)" width="403.09"/>
   </g>
  </g>
  <rect x="-96" rx="25" y="958.36" clip-path="url(#clipPath3009)" fill="#fff" height="92" opacity="0.15" width="92" transform="matrix(1 0 0 1 98 0)"/>
 </g>
</svg>
