<svg height="96" width="96" xmlns="http://www.w3.org/2000/svg" xmlns:xlink="http://www.w3.org/1999/xlink" xmlns:sodipodi="http://sodipodi.sourceforge.net/DTD/sodipodi-0.dtd" xmlns:inkscape="http://www.inkscape.org/namespaces/inkscape">
 <defs>
  <linearGradient x2="0" y1="962.62" y2="1046.1" gradientUnits="userSpaceOnUse" id="linearGradient11642" gradientTransform="matrix(1.15 0 0 1.15 -7.2 -150.65)">
   <stop stop-color="#e51d00"/>
   <stop stop-color="#ffb982" offset="1"/>
  </linearGradient>
  <clipPath id="clipPath3048">
   <use xlink:href="#SVGCleanerId_0"/>
  </clipPath>
  <linearGradient x2="0" y1="241.01" y2="85" gradientUnits="userSpaceOnUse" id="linearGradient3698">
   <stop stop-color="#e51d00"/>
   <stop stop-color="#ffb276" offset="1"/>
  </linearGradient>
  <linearGradient x2="0" y1="237.51" y2="71.57" gradientUnits="userSpaceOnUse" id="linearGradient3701">
   <stop stop-color="#830000"/>
   <stop stop-color="#830000" stop-opacity="0.534" offset="1"/>
  </linearGradient>
  <filter color-interpolation-filters="sRGB" id="filter3887">
   <feGaussianBlur stdDeviation="5.0007"/>
  </filter>
  <linearGradient x1="151.12" x2="158.49" y1="181.93" y2="216.42" gradientUnits="userSpaceOnUse" id="linearGradient3703">
   <stop stop-color="#fff" stop-opacity="0.561"/>
   <stop stop-color="#fff" stop-opacity="0.07" offset="1"/>
  </linearGradient>
  <filter x="-0.065" y="-0.11" height="1.22" color-interpolation-filters="sRGB" id="filter6949" width="1.13">
   <feGaussianBlur stdDeviation="1.63982"/>
  </filter>
  <linearGradient x1="151.12" x2="158.49" xlink:href="#linearGradient6339" y1="181.93" y2="216.42" gradientUnits="userSpaceOnUse" id="linearGradient3705" gradientTransform="matrix(0.99481 0 0 1.3481 26.819 -49.11)"/>
  <linearGradient id="linearGradient6339">
   <stop stop-color="#fff" stop-opacity="0.348"/>
   <stop stop-color="#fff" stop-opacity="0.053" offset="1"/>
  </linearGradient>
  <radialGradient cy="147.86" r="6.484" xlink:href="#linearGradient4531-4-9-8-6" gradientUnits="userSpaceOnUse" id="radialGradient3707" cx="48.52" gradientTransform="matrix(1 0 0 1.0251 0 -3.715)"/>
  <linearGradient id="linearGradient4531-4-9-8-6">
   <stop stop-color="#fff"/>
   <stop stop-color="#fff" stop-opacity="0" offset="1"/>
  </linearGradient>
  <linearGradient x2="0" xlink:href="#linearGradient4531-4-9-8-6" y1="257.96" y2="211.64" gradientUnits="userSpaceOnUse" id="linearGradient3709"/>
  <filter x="-0.242" y="-0.242" height="1.484" color-interpolation-filters="sRGB" id="filter4228" width="1.484">
   <feGaussianBlur stdDeviation="7.26511"/>
  </filter>
  <filter x="-0.072" y="-0.132" height="1.264" color-interpolation-filters="sRGB" id="filter4150" width="1.143">
   <feGaussianBlur stdDeviation="1.71262"/>
  </filter>
  <linearGradient x1="151.12" x2="158.49" xlink:href="#linearGradient6339" y1="181.93" y2="216.42" gradientUnits="userSpaceOnUse" id="linearGradient3717"/>
  <linearGradient x1="151.12" x2="158.49" xlink:href="#linearGradient3703" y1="181.93" y2="216.42" gradientUnits="userSpaceOnUse" id="linearGradient3722"/>
  <filter x="-0.065" y="-0.11" height="1.22" color-interpolation-filters="sRGB" id="filter6953-2" width="1.129">
   <feGaussianBlur stdDeviation="1.8986"/>
  </filter>
  <linearGradient x1="151.12" x2="158.49" xlink:href="#linearGradient6339" y1="181.93" y2="216.42" gradientUnits="userSpaceOnUse" id="linearGradient3724" gradientTransform="matrix(0.99481 0 0 1.3481 -57.18 -125.11)"/>
  <radialGradient cy="213.21" r="50.24" gradientUnits="userSpaceOnUse" id="radialGradient3730" cx="127.46" gradientTransform="matrix(0.92064 0 0 0.92064 11.626 24.412)">
   <stop stop-color="#ce3100" stop-opacity="0"/>
   <stop stop-color="#ce2b00" stop-opacity="0" offset="0.482"/>
   <stop stop-color="#ce2b00" offset="0.771"/>
   <stop stop-color="#ce3100" stop-opacity="0" offset="1"/>
  </radialGradient>
  <filter x="-0.108" y="-0.108" height="1.216" color-interpolation-filters="sRGB" id="filter4568-6" width="1.216">
   <feGaussianBlur stdDeviation="3.24"/>
  </filter>
  <filter x="-0.317" y="-0.317" height="1.635" color-interpolation-filters="sRGB" id="filter7119-7" width="1.635">
   <feGaussianBlur stdDeviation="9.51737"/>
  </filter>
  <radialGradient cy="213.21" r="50.24" gradientUnits="userSpaceOnUse" id="radialGradient3734" cx="127.46" gradientTransform="matrix(0.92064 0 0 0.92064 11.626 24.412)">
   <stop stop-color="#ed4700" stop-opacity="0"/>
   <stop stop-color="#ff540d" stop-opacity="0" offset="0.482"/>
   <stop stop-color="#dc4100" stop-opacity="0.223" offset="0.771"/>
   <stop stop-color="#ff6a0d" stop-opacity="0" offset="1"/>
  </radialGradient>
  <filter color-interpolation-filters="sRGB" id="filter3824">
   <feGaussianBlur stdDeviation="1.0001"/>
  </filter>
  <linearGradient x2="0" y1="239.31" y2="81" gradientUnits="userSpaceOnUse" id="linearGradient3352">
   <stop stop-color="#721800"/>
   <stop stop-color="#b75924" offset="1"/>
  </linearGradient>
  <clipPath clipPathUnits="userSpaceOnUse" id="clipPath3009">
   <path d="m-2 956.36h-96v33.562l96 25.687v-59.25z"/>
  </clipPath>
  <path d="m183.12 40c-8.9628 0.19468-17.931 3.3752-25.25 9.6875-23.538 20.3-5.2557 41.391-25.781 59.094-20.526 17.702-38.712-3.4563-62.25 16.844v0.0312c-5.2278 4.5088-9.0001 10.092-11.281 16.125-0.01509 0.0396-0.01629 0.0853-0.03125 0.125-0.45938 1.2269-0.85192 2.4586-1.1875 3.7188-0.14899 0.55949-0.31302 1.1229-0.4375 1.6875-0.01373 0.0617-0.01782 0.12571-0.03125 0.1875-0.25661 1.1909-0.44644 2.3864-0.59375 3.5938-0.0013 0.0103 0.0012 0.0209 0 0.0312-0.0077 0.0629-0.02383 0.12461-0.03125 0.1875-0.06548 0.56236-0.11456 1.123-0.15625 1.6875-0.03193 0.42446-0.07534 0.85633-0.09375 1.2812-0.0091 0.2163-0.02562 0.4398-0.03125 0.65625-0.002 0.0721 0.0016 0.14664 0 0.21875-0.01164 0.56641-0.01231 1.1208 0 1.6875 0.006 0.28991 0.01903 0.58534 0.03125 0.875 0.01841 0.42492 0.06182 0.85679 0.09375 1.2812 0.04729 0.62871 0.11048 1.2482 0.1875 1.875 0.0012 0.0103-0.0013 0.0209 0 0.0312 0.14731 1.2073 0.33714 2.4028 0.59375 3.5938 0.01342 0.0623 0.01754 0.1253 0.03125 0.1875 0.12631 0.56806 0.28597 1.1239 0.4375 1.6875 0.33558 1.2602 0.72812 2.4918 1.1875 3.7188 0.01503 0.0402 0.01608 0.0849 0.03125 0.125 2.2811 6.0332 6.0534 11.616 11.281 16.125v0.0312c23.538 20.3 41.724-0.8586 62.25 16.844 20.526 17.702 2.2437 38.794 25.781 59.094 16.729 14.428 41.978 12.542 56.406-4.1875 14.428-16.729 12.573-41.978-4.1562-56.406-23.538-20.3-41.724 0.88984-62.25-16.812-10.369-8.9425-10.823-18.773-11.781-28.906 0.95832-10.133 1.4126-19.964 11.781-28.906 20.526-17.702 38.712 3.4876 62.25-16.812 16.729-14.428 18.584-39.677 4.1562-56.406-8.1158-9.4101-19.633-14.125-31.156-13.875z" id="SVGCleanerId_0"/>
  <path d="m55.002 147.86a6.4843 6.6472 0 1 1 -12.969 0 6.4843 6.6472 0 1 1 12.969 0z" fill="url(#radialGradient3707)" id="SVGCleanerId_1"/>
  <path d="m168 232a36 36 0 1 1 -72 0 36 36 0 1 1 72 0z" color="#000000" fill-rule="evenodd" id="SVGCleanerId_2"/>
  <path d="m185.14 197.4a28.649 15.578 0 1 1 -57.297 0 28.649 15.578 0 1 1 57.297 0z" id="SVGCleanerId_3"/>
 </defs>
 <g transform="matrix(1 0 0 1 0 -956.36)">
  <rect x="2" rx="25" y="958.36" fill="url(#linearGradient11642)" height="92" width="92"/>
  <g clip-path="url(#clipPath3048)" transform="matrix(0.28445 0 0 0.28445 8.183 959.99)">
   <path d="m183.12 40c-8.9628 0.19468-17.931 3.3752-25.25 9.6875-23.538 20.3-5.2557 41.391-25.781 59.094-20.526 17.702-38.712-3.4563-62.25 16.844v0.0312c-5.2278 4.5088-9.0001 10.092-11.281 16.125-0.01509 0.0396-0.01629 0.0853-0.03125 0.125-0.45938 1.2269-0.85192 2.4586-1.1875 3.7188-0.14899 0.55949-0.31302 1.1229-0.4375 1.6875-0.01373 0.0617-0.01782 0.12571-0.03125 0.1875-0.25661 1.1909-0.44644 2.3864-0.59375 3.5938-0.0013 0.0103 0.0012 0.0209 0 0.0312-0.0077 0.0629-0.02383 0.12461-0.03125 0.1875-0.06548 0.56236-0.11456 1.123-0.15625 1.6875-0.03193 0.42446-0.07534 0.85633-0.09375 1.2812-0.0091 0.2163-0.02562 0.4398-0.03125 0.65625-0.002 0.0721 0.0016 0.14664 0 0.21875-0.01164 0.56641-0.01231 1.1208 0 1.6875 0.006 0.28991 0.01903 0.58534 0.03125 0.875 0.01841 0.42492 0.06182 0.85679 0.09375 1.2812 0.04729 0.62871 0.11048 1.2482 0.1875 1.875 0.0012 0.0103-0.0013 0.0209 0 0.0312 0.14731 1.2073 0.33714 2.4028 0.59375 3.5938 0.01342 0.0623 0.01754 0.1253 0.03125 0.1875 0.12631 0.56806 0.28597 1.1239 0.4375 1.6875 0.33558 1.2602 0.72812 2.4918 1.1875 3.7188 0.01503 0.0402 0.01608 0.0849 0.03125 0.125 2.2811 6.0332 6.0534 11.616 11.281 16.125v0.0312c23.538 20.3 41.724-0.8586 62.25 16.844 20.526 17.702 2.2437 38.794 25.781 59.094 16.729 14.428 41.978 12.542 56.406-4.1875 14.428-16.729 12.573-41.978-4.1562-56.406-23.538-20.3-41.724 0.88984-62.25-16.812-10.369-8.9425-10.823-18.773-11.781-28.906 0.95832-10.133 1.4126-19.964 11.781-28.906 20.526-17.702 38.712 3.4876 62.25-16.812 16.73-14.437 18.59-39.686 4.16-56.415-8.11-9.41-19.63-14.125-31.16-13.875z" fill="url(#linearGradient3698)" color="#000000" fill-rule="evenodd"/>
   <path d="m181.17 37.985c-8.9628 0.19468-17.931 3.3752-25.25 9.6875-23.538 20.3-5.2557 41.391-25.781 59.094-20.526 17.702-38.712-3.4563-62.25 16.844v0.0312c-5.2278 4.5088-9.0001 10.092-11.281 16.125-0.01509 0.0396-0.01629 0.0853-0.03125 0.125-0.45938 1.2269-0.85192 2.4586-1.1875 3.7188-0.14899 0.55949-0.31302 1.1229-0.4375 1.6875-0.01373 0.0617-0.01782 0.12571-0.03125 0.1875-0.25661 1.1909-0.44644 2.3864-0.59375 3.5938-0.0013 0.0103 0.0012 0.0209 0 0.0312-0.0077 0.0629-0.02383 0.12461-0.03125 0.1875-0.06548 0.56236-0.11456 1.123-0.15625 1.6875-0.03193 0.42446-0.07534 0.85633-0.09375 1.2812-0.0091 0.2163-0.02562 0.4398-0.03125 0.65625-0.002 0.0721 0.0016 0.14664 0 0.21875-0.01164 0.56641-0.01231 1.1208 0 1.6875 0.006 0.28991 0.01903 0.58534 0.03125 0.875 0.01841 0.42492 0.06182 0.85679 0.09375 1.2812 0.04729 0.62871 0.11048 1.2482 0.1875 1.875 0.0012 0.0103-0.0013 0.0209 0 0.0312 0.14731 1.2073 0.33714 2.4028 0.59375 3.5938 0.01342 0.0623 0.01754 0.1253 0.03125 0.1875 0.12631 0.56806 0.28597 1.1239 0.4375 1.6875 0.33558 1.2602 0.72812 2.4918 1.1875 3.7188 0.01503 0.0402 0.01608 0.0849 0.03125 0.125 2.2811 6.0332 6.0534 11.616 11.281 16.125v0.0312c23.538 20.3 41.724-0.8586 62.25 16.844 20.526 17.702 2.2437 38.794 25.781 59.094 16.729 14.428 41.978 12.542 56.406-4.1875 14.428-16.729 12.573-41.978-4.1562-56.406-23.538-20.3-41.724 0.88984-62.25-16.812-10.369-8.9425-10.823-18.773-11.781-28.906 0.95832-10.133 1.4126-19.964 11.781-28.906 20.526-17.702 38.712 3.4876 62.25-16.812 16.729-14.428 18.584-39.677 4.1562-56.406-8.1158-9.4101-19.633-14.125-31.156-13.875z" stroke-width="14.06" fill="none" color="#000000" stroke="url(#linearGradient3701)" filter="url(#filter3887)"/>
   <path d="m185.14 197.4c0 8.6033-12.826 15.578-28.649 15.578-15.822 0-28.649-6.9744-28.649-15.578 0-4.3017 7.1545-5.8021-3.3859-20.253 16.001 8.1708 24.123 4.6753 32.035 4.6753 15.822 0 28.649 6.9744 28.649 15.578z" fill="url(#linearGradient3703)" filter="url(#filter6949)" transform="matrix(1.1519 0 0 1.6049 1.738 -95.8)"/>
   <path d="m211 217c0 11.598-12.76 21-28.5 21s-29.495-9.4448-28.5-21c0.73736-8.5641 6.0307-13.093-8.3534-26.879 18.293 11.609 28.983 5.8792 36.853 5.8792 15.74 0 28.5 9.402 28.5 21z" fill="url(#linearGradient3705)"/>
   <use xlink:href="#SVGCleanerId_1" opacity="0.668" transform="matrix(1.6484 0 0 1.608 87.41 -37.441)"/>
   <use xlink:href="#SVGCleanerId_2" fill="url(#linearGradient3709)" filter="url(#filter4228)" opacity="0.348" transform="matrix(0.57639 0 0 0.32639 107.92 175.53)"/>
   <use xlink:href="#SVGCleanerId_3" fill="url(#linearGradient3703)" filter="url(#filter4150)" transform="matrix(1.0646 0 0 1.4123 17.394 -212.79)"/>
   <use xlink:href="#SVGCleanerId_1" opacity="0.668" transform="matrix(1.6484 0 0 1.608 91.41 -187.44)"/>
   <use xlink:href="#SVGCleanerId_1" opacity="0.697" transform="matrix(0.80661 0 0 0.78684 132.63 -66.11)"/>
   <use xlink:href="#SVGCleanerId_3" fill="url(#linearGradient3717)" transform="matrix(0.85269 0 0 1.1555 50.988 -166.1)"/>
   <use xlink:href="#SVGCleanerId_2" fill="url(#linearGradient3709)" filter="url(#filter4228)" opacity="0.299" transform="matrix(0.57639 0 0 0.32639 109.92 23.528)"/>
   <path d="m185.14 197.4c0 8.6033-12.826 15.578-28.649 15.578-15.822 0-28.649-6.9744-28.649-15.578 0-8.6033 12.826-15.578 28.649-15.578 7.9111 0 21.936 3.6382 41.771-10.215-17.516 12.86-13.122 21.491-13.122 25.793z" fill="url(#linearGradient3722)" filter="url(#filter6953-2)" transform="matrix(1.1519 0 0 1.6049 -82.26 -171.8)"/>
   <path d="m141.48 107.23c-21.37 17.52-23.61 13.51-42.98 12.77-15.74 0-28.5 9.4-28.5 21 0 11.598 12.76 21 28.5 21s28.5-9.402 28.5-21c-0.30555-12.25 1.0968-21.176 14.478-33.77z" fill="url(#linearGradient3724)"/>
   <use xlink:href="#SVGCleanerId_1" opacity="0.668" transform="matrix(1.6484 0 0 1.608 5.408 -111.44)"/>
   <use xlink:href="#SVGCleanerId_1" opacity="0.697" transform="matrix(0.80661 0 0 0.78684 46.635 9.888)"/>
   <use xlink:href="#SVGCleanerId_2" fill="url(#radialGradient3730)" filter="url(#filter4568-6)" transform="matrix(1.3486 0 0 1.3486 -79.41 -142.86)"/>
   <use xlink:href="#SVGCleanerId_2" fill="url(#linearGradient3709)" filter="url(#filter7119-7)" opacity="0.266" transform="matrix(0.57639 0 0 0.32639 23.917 99.53)"/>
   <use xlink:href="#SVGCleanerId_2" fill="url(#radialGradient3734)" filter="url(#filter4568-6)" transform="matrix(1.1992 0 0 1.1992 28.23 -192.21)"/>
   <use stroke-width="7.03" xlink:href="#SVGCleanerId_0" fill="none" color="#000000" stroke="url(#linearGradient3352)" filter="url(#filter3824)"/>
  </g>
  <rect x="-96" rx="25" y="958.36" clip-path="url(#clipPath3009)" fill="#fff" height="92" opacity="0.15" width="92" transform="matrix(1 0 0 1 98 0)"/>
 </g>
</svg>
