<svg height="96" width="96" xmlns="http://www.w3.org/2000/svg" xmlns:xlink="http://www.w3.org/1999/xlink" xmlns:sodipodi="http://sodipodi.sourceforge.net/DTD/sodipodi-0.dtd" xmlns:inkscape="http://www.inkscape.org/namespaces/inkscape">
 <defs>
  <clipPath clipPathUnits="userSpaceOnUse" id="clipPath3009">
   <path d="m-2 956.36h-96v33.562l96 25.687v-59.25z"/>
  </clipPath>
  <linearGradient x2="0" y1="1916.5" y2="1736" gradientUnits="userSpaceOnUse" id="linearGradient3452" gradientTransform="matrix(0.53195 0 0 0.53195 -248.88 32.877)">
   <stop stop-color="#2A5AA6"/>
   <stop stop-color="#2E63B6" offset="0.448"/>
   <stop stop-color="#3D83F3" offset="0.777"/>
   <stop stop-color="#8BB5F8" offset="1"/>
  </linearGradient>
  <clipPath clipPathUnits="userSpaceOnUse" id="clipPath3020">
   <rect x="2" rx="25" y="958.36" height="92" width="92"/>
  </clipPath>
  <clipPath id="SVGID_3_">
   <use xlink:href="#SVGID_2_" height="1052.36" width="744.09"/>
  </clipPath>
  <linearGradient x2="0" y1="1766.6" y2="2021.1" gradientUnits="userSpaceOnUse" id="SVGID_4_" gradientTransform="matrix(1 0 0 1 -458.11 -1726.3)">
   <stop stop-color="#fff"/>
   <stop stop-color="#fff" stop-opacity="0" offset="1"/>
  </linearGradient>
  <radialGradient cy="781.62" r="72.46" gradientUnits="userSpaceOnUse" id="path3328_2_" cx="5269.1" gradientTransform="matrix(0.2947 0.0523 -0.0526 0.2965 -1416.1 -407.61)">
   <stop stop-opacity="0"/>
   <stop stop-opacity="0" offset="0.85"/>
   <stop offset="1"/>
  </radialGradient>
  <linearGradient x1="-1369.3" x2="-1299.9" gradientUnits="userSpaceOnUse" id="path3352_2_">
   <stop stop-color="#4D4D4D"/>
   <stop stop-color="#fff" offset="1"/>
  </linearGradient>
  <linearGradient x1="-1525.1" x2="-1771.5" y1="1428.2" y2="1604.7" gradientUnits="userSpaceOnUse" id="path3170_2_" gradientTransform="matrix(0.1746 -0.9846 0.9846 0.1746 -1097 -1761.2)">
   <stop stop-color="#ccc"/>
   <stop stop-color="#E6E6E6" offset="0.521"/>
   <stop stop-color="#ccc" offset="1"/>
  </linearGradient>
  <linearGradient x1="-1536.4" x2="-1649.1" xlink:href="#SVGID_4_" y1="1438.3" y2="1517.2" gradientUnits="userSpaceOnUse" id="SVGID_5_" gradientTransform="matrix(0.1746 -0.9846 0.9846 0.1746 -1097 -1761.2)"/>
  <linearGradient x1="-1713.1" x2="-1638.4" xlink:href="#SVGID_4_" y1="1553.8" y2="1501.4" gradientUnits="userSpaceOnUse" id="SVGID_6_" gradientTransform="matrix(0.1746 -0.9846 0.9846 0.1746 -1097 -1761.2)"/>
  <linearGradient x1="5362.2" x2="5524.7" gradientUnits="userSpaceOnUse" id="path3942_2_" gradientTransform="matrix(0.278 0.0493 -0.0592 0.334 -1361.2 -488.16)">
   <stop stop-color="#fff" stop-opacity="0.203"/>
   <stop stop-color="#fff" stop-opacity="0.68" offset="1"/>
  </linearGradient>
  <linearGradient x1="-1.585" x2="-2.394" y1="816.76" y2="793.85" gradientUnits="userSpaceOnUse" id="SVGID_7_" gradientTransform="matrix(0 1 1 0 -629.1 82.32)">
   <stop stop-color="#fff" stop-opacity="0"/>
   <stop stop-color="#fff" offset="0.988"/>
  </linearGradient>
  <linearGradient x1="-50.03" x2="-50.842" xlink:href="#SVGID_7_" y1="818.41" y2="795.53" gradientUnits="userSpaceOnUse" id="SVGID_8_" gradientTransform="matrix(0 1 1 0 -629.1 82.32)"/>
  <linearGradient x2="0" y1="776.24" y2="790.22" gradientUnits="userSpaceOnUse" id="SVGID_9_" gradientTransform="matrix(0 1 1 0 -629.1 82.32)">
   <stop stop-color="#700" offset="0.012"/>
   <stop stop-color="#6B0000" stop-opacity="0.932" offset="0.08"/>
   <stop stop-color="#3D0000" stop-opacity="0.632" offset="0.375"/>
   <stop stop-color="#1C0000" stop-opacity="0.367" offset="0.638"/>
   <stop stop-color="#070000" stop-opacity="0.147" offset="0.855"/>
   <stop stop-opacity="0" offset="1"/>
  </linearGradient>
  <linearGradient x2="0" xlink:href="#SVGID_9_" y1="779.17" y2="781.23" gradientUnits="userSpaceOnUse" id="SVGID_10_" gradientTransform="matrix(0 1 1 0 -629.1 82.32)"/>
  <linearGradient x2="0" xlink:href="#SVGID_9_" y1="778.49" y2="797.62" gradientUnits="userSpaceOnUse" id="SVGID_11_" gradientTransform="matrix(0 1 1 0 -629.1 82.32)"/>
  <linearGradient x1="0.186" x2="4.646" xlink:href="#SVGID_9_" gradientUnits="userSpaceOnUse" id="SVGID_12_" gradientTransform="matrix(0 1 1 0 -629.1 82.32)"/>
  <linearGradient x1="-804.48" x2="-799.16" xlink:href="#SVGID_9_" gradientUnits="userSpaceOnUse" id="SVGID_13_" gradientTransform="matrix(-0.0313 -0.9995 -0.9995 0.0313 130.98 -699.58)"/>
  <linearGradient x1="-803.51" x2="-800.94" xlink:href="#SVGID_9_" gradientUnits="userSpaceOnUse" id="SVGID_14_" gradientTransform="matrix(-0.0313 -0.9995 -0.9995 0.0313 130.98 -699.58)"/>
  <linearGradient x1="35.19" x2="39.649" xlink:href="#SVGID_9_" gradientUnits="userSpaceOnUse" id="SVGID_15_" gradientTransform="matrix(0 1 1 0 -629.1 82.32)"/>
  <linearGradient x1="-7.497" x2="-3.731" xlink:href="#SVGID_9_" gradientUnits="userSpaceOnUse" id="SVGID_16_" gradientTransform="matrix(0 1 1 0 -629.1 82.32)"/>
  <linearGradient x1="42.37" x2="46.14" xlink:href="#SVGID_9_" gradientUnits="userSpaceOnUse" id="SVGID_17_" gradientTransform="matrix(0 1 1 0 -629.1 82.32)"/>
  <linearGradient x1="21.514" x2="20.706" xlink:href="#SVGID_7_" y1="815.88" y2="793" gradientUnits="userSpaceOnUse" id="SVGID_18_" gradientTransform="matrix(0 1 1 0 -629.1 82.32)"/>
  <linearGradient x1="-5.558" x2="-6.365" xlink:href="#SVGID_7_" y1="816.84" y2="793.97" gradientUnits="userSpaceOnUse" id="SVGID_19_" gradientTransform="matrix(0 1 1 0 -629.1 82.32)"/>
  <linearGradient x1="44.869" x2="44.06" xlink:href="#SVGID_7_" y1="815.06" y2="792.19" gradientUnits="userSpaceOnUse" id="SVGID_20_" gradientTransform="matrix(0 1 1 0 -629.1 82.32)"/>
  <linearGradient x1="19.12" x2="18.312" xlink:href="#SVGID_7_" y1="815.96" y2="793.1" gradientUnits="userSpaceOnUse" id="SVGID_21_" gradientTransform="matrix(0 1 1 0 -629.1 82.32)"/>
  <linearGradient x1="19.397" x2="18.59" xlink:href="#SVGID_7_" y1="815.96" y2="793.08" gradientUnits="userSpaceOnUse" id="SVGID_22_" gradientTransform="matrix(0 1 1 0 -629.1 82.32)"/>
  <linearGradient x1="-20.408" x2="-21.22" xlink:href="#SVGID_7_" y1="808.32" y2="785.43" gradientUnits="userSpaceOnUse" id="SVGID_23_" gradientTransform="matrix(0 1 1 0 -629.1 82.32)"/>
  <linearGradient x1="-19.978" x2="-20.786" xlink:href="#SVGID_7_" y1="817.35" y2="794.47" gradientUnits="userSpaceOnUse" id="SVGID_24_" gradientTransform="matrix(0 1 1 0 -629.1 82.32)"/>
  <linearGradient x1="4.305" x2="3.497" xlink:href="#SVGID_7_" y1="816.49" y2="793.61" gradientUnits="userSpaceOnUse" id="SVGID_25_" gradientTransform="matrix(0 1 1 0 -629.1 82.32)"/>
  <linearGradient x1="34.381" x2="33.573" xlink:href="#SVGID_7_" y1="815.43" y2="792.56" gradientUnits="userSpaceOnUse" id="SVGID_26_" gradientTransform="matrix(0 1 1 0 -629.1 82.32)"/>
  <linearGradient x1="58.887" x2="58.08" xlink:href="#SVGID_7_" y1="814.56" y2="791.69" gradientUnits="userSpaceOnUse" id="SVGID_27_" gradientTransform="matrix(0 1 1 0 -629.1 82.32)"/>
  <linearGradient x1="67.49" x2="66.68" xlink:href="#SVGID_7_" y1="808.26" y2="785.39" gradientUnits="userSpaceOnUse" id="SVGID_28_" gradientTransform="matrix(0 1 1 0 -629.1 82.32)"/>
  <path d="m22.656 9.766h154.69c7.117 0 12.891 5.772 12.891 12.891v154.69c0 7.117-5.773 12.891-12.891 12.891h-154.69c-7.116 0-12.891-5.773-12.891-12.891v-154.69c-0.003-7.122 5.771-12.894 12.887-12.894z" id="SVGID_2_"/>
  <path d="m54.883 29.102h90.233c14.238 0 25.781 11.543 25.781 25.781v90.233c0 14.238-11.543 25.781-25.781 25.781h-90.237c-14.238 0-25.781-11.543-25.781-25.781v-90.237c0-14.238 11.543-25.781 25.781-25.781z" id="SVGCleanerId_0"/>
 </defs>
 <g transform="matrix(1 0 0 1 0 -956.36)">
  <path d="m6.8573 956.36h82.285c3.7859 0 6.8573 3.0704 6.8573 6.8573v82.285c0 3.7858-3.0709 6.8573-6.8573 6.8573h-82.285c-3.785 0-6.857-3.1-6.857-6.9v-82.286c0.00053-3.7864 3.072-6.8568 6.8573-6.8568z" clip-path="url(#clipPath3020)" fill="url(#linearGradient3452)"/>
  <g transform="matrix(0.42469 0 0 0.42469 5.622 962.71)">
   <g enable-background="new    " clip-path="url(#SVGID_3_)" opacity="0.1">
    <use xlink:href="#SVGCleanerId_0" fill="url(#SVGID_4_)"/>
    <use stroke-width="0.5" xlink:href="#SVGCleanerId_0" fill="none" stroke="#fff" stroke-linecap="round"/>
   </g>
   <path d="m12.818 84.922c-8.306 46.843 23.119 91.807 69.955 100.11 46.845 8.309 91.8-23.116 100.11-69.958 8.31-46.834-23.12-91.8-69.95-100.1-46.844-8.311-91.806 23.112-100.11 69.952zm63.906 11.33c2.091-11.777 13.092-19.471 24.873-17.382 11.776 2.086 19.468 13.099 17.385 24.877-2.092 11.778-13.095 19.47-24.878 17.38-11.78-2.085-19.471-13.092-17.38-24.875z" opacity="0.05"/>
   <path d="m15.268 85.356c-8.069 45.513 22.428 89.158 67.944 97.231 45.513 8.069 89.154-22.433 97.224-67.943 8.06-45.518-22.44-89.161-67.95-97.232-45.51-8.067-89.159 22.436-97.222 67.948zm59.008 10.461c2.32-13.089 14.669-21.714 27.754-19.395 13.09 2.322 21.709 14.665 19.395 27.756-2.32 13.09-14.669 21.72-27.754 19.399-13.087-2.319-21.715-14.669-19.395-27.76z" opacity="0.08"/>
   <path d="m17.64 85.774c-7.844 44.244 21.744 86.597 65.99 94.438 44.245 7.848 86.593-21.748 94.435-65.992 7.85-44.241-21.74-86.593-65.99-94.437-44.239-7.843-86.591 21.751-94.43 65.991zm54.266 9.622c2.544-14.347 16.197-23.891 30.544-21.347 14.351 2.544 23.897 16.201 21.353 30.55-2.545 14.351-16.199 23.897-30.55 21.353-14.347-2.54-23.895-16.2-21.347-30.554z" opacity="0.15"/>
   <path d="m19.54 86.114c-7.665 43.212 21.193 84.502 64.408 92.165 43.209 7.659 84.499-21.195 92.159-64.405 7.66-43.211-21.19-84.5-64.41-92.161-43.216-7.661-84.5 21.191-92.16 64.405zm50.425 8.937c2.73-15.378 17.421-25.647 32.807-22.921 15.383 2.729 25.648 17.425 22.921 32.809-2.731 15.379-17.418 25.651-32.805 22.92-15.385-2.724-25.652-17.42-22.923-32.808z" opacity="0.3"/>
   <path d="m59.302 93.163c-3.538 19.958 9.79 39.033 29.742 42.564 19.952 3.54 39.028-9.785 42.567-29.742 3.535-19.961-9.796-39.03-29.748-42.569-19.953-3.538-39.029 9.79-42.561 29.747zm25.536 4.529c1.035-5.861 6.637-9.773 12.493-8.731 5.862 1.036 9.772 6.639 8.728 12.494-1.038 5.862-6.635 9.773-12.489 8.732-5.858-1.036-9.772-6.633-8.732-12.495z" fill="#fff" opacity="0.3"/>
   <path d="m116.15 103.24c-2.017 11.431-12.931 19.055-24.354 17.032-11.431-2.019-19.055-12.933-17.031-24.355v-0.009c2.023-11.426 12.932-19.05 24.358-17.031 11.431 2.026 19.056 12.932 17.039 24.367h-0.013v-0.004z" fill="url(#path3328_2_)" opacity="0.3"/>
   <path d="m105.1 101.28c-0.94 5.334-6.031 8.888-11.359 7.943-5.328-0.943-8.888-6.029-7.938-11.363v-0.004c0.943-5.328 6.033-8.883 11.359-7.938 5.33 0.941 8.887 6.03 7.94 11.358l-0.002 0.004z" stroke-width="8.22" fill="none" stroke="url(#path3352_2_)" opacity="0.6" stroke-linecap="round"/>
   <path d="m17.166 85.69c-7.661 43.217 21.195 84.507 64.408 92.169 43.212 7.658 84.5-21.19 92.16-64.407s-21.19-84.503-64.42-92.163c-43.201-7.659-84.489 21.192-92.154 64.403zm50.425 8.943c2.727-15.38 17.423-25.65 32.804-22.924 15.381 2.729 25.648 17.426 22.923 32.806-2.728 15.379-17.416 25.651-32.801 22.924-15.386-2.73-25.655-17.42-22.926-32.807z" fill="url(#path3170_2_)"/>
   <path d="m27.363 58.532c13.856 10.726 27.406 21.892 40.905 33.188 3.952-13.741 17.736-22.562 32.122-20.011 0.893 0.156 1.758 0.365 2.618 0.602 1.955-17.028 3.99-34.046 6.115-51.051-33.241-5.801-65.295 9.988-81.761 37.272z" fill="url(#SVGID_5_)" opacity="0.42"/>
   <path d="m149.63 157.74c-0.477-0.361-0.94-0.73-1.414-1.1-13.757-10.226-27.088-20.896-40.237-31.731-3.417 1.687-7.19 2.707-11.115 2.908-1.835 17.058-3.642 34.114-5.416 51.155 21.976 1.133 42.812-6.944 58.182-21.232z" fill="url(#SVGID_6_)" opacity="0.42"/>
   <path d="m101.89 64.651c19.317 3.421 32.199 21.845 28.779 41.16-3.42 19.319-21.85 32.197-41.151 28.781-0.012-0.004-0.021-0.004-0.024-0.004-19.312-3.425-32.194-21.85-28.776-41.168 3.428-19.314 21.85-32.193 41.16-28.776 0.004 0.005 0.008 0.005 0.012 0.007z" stroke-width="6.807" fill="none" stroke="#000" opacity="0.15" stroke-linecap="round"/>
   <path d="m17.192 85.694c-7.661 43.217 21.194 84.511 64.408 92.173 0.797 0.139 1.585 0.231 2.387 0.349-41.911-8.72-69.572-49.25-62.053-91.683 7.526-42.427 47.436-70.977 89.786-64.755-0.79-0.164-1.56-0.353-2.36-0.493-43.211-7.661-84.51 21.195-92.168 64.405z" fill="#ccc" opacity="0.8"/>
   <path d="m99.577 76.379c-12.58-2.229-24.805 6.199-27.1 19.135-2.29 12.938 6.298 25.03 18.875 27.259 12.577 2.232 24.773-6.173 27.072-19.109 2.292-12.941-6.273-25.055-18.847-27.285zm-0.467 2.615c11.603 2.059 19.146 13.032 17.153 24.287-1.993 11.239-12.846 18.931-24.452 16.873-11.605-2.05-19.176-13.01-17.179-24.259 1.995-11.243 12.877-18.953 24.478-16.897z" fill="url(#path3942_2_)" opacity="0.5"/>
   <path d="m162.09 167.28c4.721-4.548 14.71-16.377 14.796-18.903 0.084-2.528-0.844-12.217 1.349-15.083 2.192-2.861 6.233-3.707 6.065-6.825-0.168-3.115-3.117-3.115-3.033-7.832v-5.476s0.432-3.034 3.038-3.957c2.607-0.926 3.784-2.192 3.784-3.875v-7.525c0-1.683-1.177-2.95-3.784-3.876-2.606-0.926-3.038-3.959-3.038-3.959v-5.478c-0.084-4.715 2.865-4.715 3.033-7.832s-3.877-3.962-6.065-6.823c-2.192-2.866-1.265-12.554-1.349-15.082-0.086-2.526-12.472-15.923-17.188-20.471-4.717-4.548-8.426-2.863-8.426-2.863s-1.348-1.936-2.866-0.589c-1.513 1.347-1.849 4.55 0 9.773 1.854 5.223 0.676 26.03 0.676 31.087s1.854 5.307 2.865 6.231c1.008 0.927 0.672 2.53-0.675 1.519-1.343-1.013-1.18 0.587-1.18 0.587v5.392c0.084 1.097-0.419 2.021 2.95 3.452 3.367 1.434 2.777 2.275 3.201 4.381 0.42 2.105-0.335 2.866-2.106 3.625-1.769 0.758-1.601 2.191-1.601 2.191v4.996s-0.208 2.276 1.563 3.034c1.771 0.762 2.565 0.671 2.144 2.777-0.419 2.109 0.168 2.95-3.201 4.381-3.367 1.432-2.861 2.358-2.945 3.454v5.392s-0.294 1.419 1.387 1.511c1.074 0.059 0.656 2.052-0.357 2.979-1.011 0.927-1.729 0.369-1.729 5.421v37.006s7.975 1.809 12.692-2.74z" fill="#f90018"/>
   <g opacity="0.48">
    <path d="m151.43 79.529c-0.055-0.034-0.101-0.045-0.155-0.088-0.688-0.516-0.978-0.353-1.1-0.067 0.038 0.026 0.065 0.035 0.109 0.067 0.587 0.441 0.965 0.37 1.146 0.088z" fill="url(#SVGID_7_)"/>
    <path d="m159.43 34.268c4.717 4.549 17.167 18.018 17.255 20.544 0.084 2.526-1.087 12.142 1.104 15.005 2.19 2.864 6.517 3.769 6.349 6.885-0.168 3.118-3.273 2.966-3.189 7.684l-0.101 5.472s-0.143 3.146 2.463 4.071c2.606 0.926 4.486 2.168 4.486 3.852l0.033 7.437c0 1.685-1.221 2.799-3.827 3.724-2.605 0.93-3.155 4.178-3.155 4.178l0.135 5.472c-0.084 4.721 3.009 4.861 3.122 7.983 0.101 2.794-4.201 4.028-6.392 6.89-2.189 2.866-1.146 12.445-1.229 14.972-0.083 2.532-10.224 14.354-14.938 18.899-2.48 2.392-6.303 2.969-8.951 3.03 2.747 0.071 6.689-0.385 9.492-3.087 4.721-4.549 14.71-16.377 14.796-18.903 0.084-2.526-0.844-12.215 1.349-15.081 2.192-2.862 6.233-3.705 6.065-6.823-0.168-3.117-3.117-3.117-3.033-7.834v-5.476s0.432-3.034 3.038-3.957c2.607-0.924 3.784-2.19 3.784-3.873v-7.525c0-1.683-1.177-2.95-3.784-3.876-2.606-0.926-3.038-3.959-3.038-3.959v-5.478c-0.084-4.715 2.865-4.715 3.033-7.832s-3.877-3.962-6.065-6.823c-2.192-2.866-1.265-12.554-1.349-15.082-0.086-2.526-12.472-15.923-17.188-20.471-3.03-2.919-5.636-3.27-7.117-3.146 1.526 0.112 4.414 0.778 6.852 3.128z" fill="#fff"/>
    <path d="m150.28 31.42s0.296-0.129 0.81-0.22c-0.329-0.375-1.112-1.076-2.041-0.75 0.729 0.261 1.231 0.97 1.231 0.97z" fill="url(#SVGID_8_)"/>
   </g>
   <path d="m151.26 72.701c-0.373-2.161 0.869-3.828 0.869-3.828s-0.785-17.763-0.864-19.529c-0.076-1.766 0.864-1.474 0.864-1.474 4.221-1.081 8.927 0.981 8.927 0.981 0.59-6.673-3.336-11.775-4.902-13.15-1.57-1.375-4.889-4.281-4.889-4.281s-1.348-1.936-2.866-0.589c-1.513 1.347-1.849 4.55 0 9.773 1.854 5.223 0.676 26.03 0.676 31.087s1.854 5.307 2.865 6.231c0.399 0.369 0.582 0.835 0.582 1.209l0.044 0.033c0.935-1.799-0.939-4.368-1.306-6.463z" fill="url(#SVGID_9_)" opacity="0.49"/>
   <path d="m150.09 123.1s-0.294 1.419 1.39 1.511c0.096 0.004 0.167 0.042 0.241 0.075 0.209-0.516 0.409-1.057 0.409-1.246 0-0.234-1.134-1.427-2.04-2.341v2.001z" fill="url(#SVGID_10_)"/>
   <path d="m155.99 170.15c4.582-3.755 12.529-15.786 12.529-15.786s-6.577 0.391-12.27 0.976c-5.691 0.59-4.124-1.471-4.124-1.471-0.294-6.281-0.586-17.957-1.567-19.629-0.632-1.074-0.166-4.253 0.245-6.391-0.841 0.612-1.412 0.658-1.412 5.165v37.006s3.112 0.71 6.599 0.13z" fill="url(#SVGID_11_)" opacity="0.49"/>
   <path d="m156.93 84.161c0-0.634-0.247-1.19-0.6-1.656 0.132 0.322 0.21 0.672 0.21 1.045 0 1.548-1.255 2.803-2.803 2.803-0.915 0-1.688-0.468-2.199-1.146 0.415 1.03 1.414 1.758 2.589 1.758 1.549 0 2.803-1.254 2.803-2.804z" fill="url(#SVGID_12_)"/>
   <path d="m151.25 83.998c0 0.634 0.252 1.188 0.603 1.656-0.133-0.324-0.21-0.675-0.21-1.044 0-1.55 1.255-2.805 2.801-2.805 0.915 0 1.691 0.467 2.203 1.144-0.415-1.029-1.414-1.755-2.593-1.755-1.549 0.002-2.804 1.257-2.804 2.804z" fill="#fff" opacity="0.54"/>
   <path d="m179.99 101.78c0.025 0.755 0.34 1.41 0.781 1.955-0.168-0.382-0.277-0.797-0.292-1.237-0.057-1.848 1.391-3.394 3.239-3.449 1.093-0.036 2.031 0.492 2.667 1.282-0.533-1.208-1.75-2.042-3.16-1.997-1.841 0.056-3.291 1.599-3.235 3.446z" fill="url(#SVGID_13_)"/>
   <path d="m186.78 101.77c-0.023-0.757-0.34-1.41-0.781-1.956 0.173 0.382 0.548 1.119 0.561 1.562 0.057 1.849-1.307 3.535-3.157 3.592-1.091 0.038-2.38-0.961-3.016-1.75 0.533 1.213 1.752 2.044 3.158 2.002 1.844-0.06 3.294-1.605 3.235-3.45z" fill="#fff" opacity="0.54"/>
   <path d="m181.74 101.78c0.015 0.364 0.165 0.68 0.379 0.943-0.083-0.185-0.134-0.388-0.14-0.596-0.027-0.894 0.669-1.64 1.562-1.668 0.526-0.017 0.982 0.239 1.288 0.619-0.256-0.585-0.846-0.986-1.523-0.964-0.893 0.028-1.593 0.774-1.566 1.666z" fill="url(#SVGID_14_)"/>
   <path d="m185.02 101.77c-0.013-0.365-0.166-0.68-0.378-0.943 0.08 0.183 0.26 0.54 0.269 0.755 0.029 0.89-0.634 1.707-1.523 1.732-0.528 0.017-1.149-0.461-1.456-0.843 0.254 0.581 0.844 0.985 1.523 0.965 0.894-0.03 1.593-0.773 1.565-1.666z" fill="#fff" opacity="0.54"/>
   <path d="m157.08 119.16c0-0.633-0.248-1.188-0.603-1.657 0.133 0.323 0.212 0.676 0.212 1.045 0 1.549-1.255 2.803-2.805 2.803-0.917 0-1.688-0.466-2.197-1.146 0.414 1.032 1.412 1.759 2.59 1.759 1.548 0 2.803-1.255 2.803-2.804z" fill="url(#SVGID_15_)"/>
   <path d="m151.39 119c0 0.634 0.25 1.188 0.604 1.657-0.132-0.323-0.212-0.676-0.212-1.045 0-1.548 1.255-2.803 2.803-2.803 0.915 0 1.688 0.466 2.199 1.146-0.415-1.03-1.414-1.758-2.589-1.758-1.551 0-2.805 1.254-2.805 2.803z" fill="#fff" opacity="0.54"/>
   <circle cy="76.7" r="1.883" fill="url(#SVGID_16_)" cx="179.6"/>
   <circle cy="76.7" r="1.541" fill="#4d4d4d" cx="179.6"/>
   <path d="m181.14 76.703c0-0.484-0.239-0.899-0.59-1.183 0.212 0.262 0.356 0.584 0.356 0.947 0 0.851-0.69 1.543-1.542 1.543-0.365 0-0.684-0.147-0.946-0.356 0.281 0.353 0.694 0.59 1.184 0.59 0.845 0.003 1.538-0.688 1.538-1.541z" fill="#fff"/>
   <circle cy="76.882" r="0.655" fill="#fff" cx="179.77"/>
   <circle cy="126.57" r="1.882" fill="url(#SVGID_17_)" cx="179.77"/>
   <circle cy="126.57" r="1.54" fill="#4d4d4d" cx="179.77"/>
   <path d="m181.32 126.57c0-0.487-0.238-0.902-0.591-1.184 0.212 0.265 0.356 0.581 0.356 0.948 0 0.848-0.69 1.54-1.54 1.54-0.365 0-0.687-0.143-0.948-0.356 0.281 0.353 0.696 0.589 1.184 0.589 0.847 0.003 1.539-0.685 1.539-1.537z" fill="#fff"/>
   <circle cy="126.75" r="0.654" fill="#fff" cx="179.95"/>
   <path d="m161.88 51.69c1.36 1.866 2.707 3.737 4.012 5.644 0.588 0.941 1.498 1.898 1.41 3.153 0.038 1.16 0.021 2.311 0.292 3.412 0.229 1.1 0.879 2.069 1.343 3.142 0.476 1.057 0.938 2.135 1.149 3.311 0.199 1.205-0.101 2.365-0.088 3.491-0.023 1.136 0.101 2.271 0.413 3.355 1.452 4.281 4.702 7.885 6.005 12.45 0.314 1.134 0.388 2.424 0.022 3.577-0.333 1.153-0.841 2.191-1.206 3.266-0.776 2.133-1.012 4.415-0.877 6.681 0.151 2.272 0.353 4.597 1.188 6.676 0.482 1.008 0.868 2.292 0.729 3.487-0.186 1.297-0.867 2.283-1.492 3.265-1.288 1.924-2.726 3.747-3.466 5.883-0.396 1.07-0.475 2.165-0.485 3.332-0.026 1.146-0.012 2.295 0.02 3.447 0.025 1.151 0.084 2.314-0.042 3.491-0.107 1.188-0.531 2.302-0.906 3.38-0.778 2.184-1.633 4.332-2.572 6.441-0.953 2.106-1.985 4.184-3.166 6.172-1.194 1.964-2.49 3.937-4.295 5.398 1.763-1.502 3.004-3.495 4.144-5.486 1.127-2.01 2.101-4.098 2.998-6.221 0.906-2.113 1.748-4.262 2.501-6.437 0.369-1.1 0.764-2.17 0.852-3.292 0.109-1.125 0.047-2.276 0.011-3.431-0.04-1.154-0.064-2.31-0.048-3.473 0-1.137 0.075-2.375 0.484-3.491 0.762-2.259 2.229-4.135 3.477-6.04 0.604-0.948 1.233-1.964 1.366-2.981 0.103-1.127-0.204-2.127-0.712-3.195-0.906-2.216-1.12-4.576-1.296-6.886-0.133-2.331 0.143-4.735 0.969-6.941 0.389-1.107 0.906-2.153 1.219-3.217 0.343-1.063 0.288-2.163 0.005-3.253-0.581-2.177-1.728-4.204-2.826-6.218-1.062-2.034-2.434-3.953-3.06-6.257-0.314-1.136-0.437-2.321-0.4-3.493 0.004-1.177 0.3-2.319 0.124-3.411-0.189-1.104-0.63-2.176-1.091-3.221-0.433-1.046-1.1-2.038-1.335-3.223-0.252-1.158-0.201-2.337-0.212-3.48 0.124-1.171-0.711-2.079-1.29-3.065-1.258-1.935-2.559-3.841-3.868-5.742z" fill="url(#SVGID_18_)" opacity="0.48"/>
   <path d="m173.04 69.408c1.929 0.711 3.816 1.536 5.625 2.537 0.908 0.492 1.79 1.04 2.618 1.676 0.812 0.643 1.653 1.325 2.115 2.374 0.23 0.542 0.172 1.192-0.093 1.7-0.251 0.504-0.616 0.91-1.002 1.275-0.781 0.718-1.658 1.289-2.566 1.787-1.823 0.99-3.745 1.747-5.709 2.354 1.889-0.804 3.747-1.685 5.497-2.727 0.862-0.529 1.725-1.083 2.438-1.773 0.714-0.668 1.299-1.578 0.944-2.425-0.835-1.724-2.775-2.814-4.439-3.897-1.754-1.047-3.576-2-5.428-2.881z" fill="url(#SVGID_19_)" opacity="0.48"/>
   <path d="m173.16 133.6c1.926-0.709 3.816-1.536 5.622-2.534 0.911-0.495 1.79-1.041 2.619-1.675 0.813-0.642 1.653-1.33 2.114-2.377 0.231-0.543 0.172-1.193-0.09-1.699-0.254-0.504-0.619-0.913-1.003-1.278-0.782-0.717-1.659-1.283-2.568-1.783-1.823-0.99-3.745-1.747-5.709-2.354 1.889 0.801 3.748 1.683 5.497 2.723 0.864 0.533 1.725 1.085 2.44 1.775 0.711 0.669 1.299 1.582 0.942 2.426-0.835 1.722-2.774 2.817-4.439 3.897-1.754 1.045-3.572 2.002-5.425 2.879z" fill="url(#SVGID_20_)" opacity="0.48"/>
   <path d="m183 95.465c0.968 0.031 2.203-0.218 0.672-1.06-1.532-0.843-2.959-1.348-3.681-1.602-0.722-0.252-1.984-1.093-2.562-1.703 0 0 0.137 2.557-1.074 5.002-1.206 2.444-1.527 4.241-1.443 6.411 0.082 2.169 1.617 9 2.81 8.581 0.479-0.173 6.529-1.947 6.524-3.043-0.002-1.095-6.747 1.134-6.524-6.634 0.176-6.254 4.217-5.985 5.278-5.952z" fill="url(#SVGID_21_)" opacity="0.48"/>
   <path d="m178.31 101.58c0-3.074 2.113-5.561 4.742-5.645-0.045 0-0.087-0.013-0.133-0.013-2.689 0-4.869 2.53-4.869 5.657 0 3.122 2.18 5.656 4.869 5.656 0.046 0 0.088-0.017 0.133-0.017-2.628-0.077-4.742-2.566-4.742-5.638z" fill="url(#SVGID_22_)" opacity="0.48"/>
   <path d="m168.28 55.329s1.783 0.992 1.555 3.36c-0.229 2.37-0.078 7.865 2.368 9.168 0 0-3.055-0.766-3.283-3.743-0.232-2.979 0.481-7.181-0.64-8.785z" fill="url(#SVGID_23_)" opacity="0.48"/>
   <path d="m174.41 56.556c0.85 0.51 1.475 1.479 1.454 2.525l-0.186 2.749c-0.048 0.914-0.079 1.824-0.046 2.733 0.055 0.902 0.076 1.836 0.462 2.677-0.46-0.804-0.604-1.749-0.707-2.659-0.095-0.918-0.124-1.839-0.137-2.762l0.005-2.745c0.041-0.821-0.508-1.543-1.142-2.073v-0.011c-0.113-0.095-0.13-0.265-0.033-0.378 0.082-0.101 0.23-0.123 0.341-0.056z" fill="url(#SVGID_24_)" opacity="0.48"/>
   <path d="m180.56 91.101v-9.702c-1.399-0.167-5.382 2.183-5.508 3.188-0.128 1.005 0.193 1.175 1.268 2.954 1.074 1.778 0.369 1.812 1.153 3.035 0.814 1.271 3.087 0.525 3.087 0.525zm-2.768-1.276c-0.185-1.242 0.272-2.52-1.104-3.659-1.377-1.142-1.049-2.093-0.202-2.721 1.729-1.275 3.896-1.778 3.896-1.778l-0.137 9.13c0.001 0-2.27 0.268-2.453-0.972z" fill="url(#SVGID_25_)" opacity="0.48"/>
   <path d="m177.39 112.24c-0.782 1.221-0.08 1.255-1.154 3.034-1.074 1.778-1.395 1.946-1.267 2.954 0.126 1.007 4.107 3.354 5.507 3.188v-9.703c0.001 0.003-2.273-0.74-3.086 0.527zm2.773-0.223 0.139 9.131s-2.17-0.503-3.898-1.779c-0.848-0.625-1.175-1.575 0.204-2.719 1.376-1.142 0.919-2.417 1.104-3.659 0.181-1.242 2.451-0.974 2.451-0.974z" fill="url(#SVGID_26_)" opacity="0.48"/>
   <path d="m174.6 146.74s1.842-1.393 1.475-3.356c-0.371-1.968-0.164-8.562 1.188-10.159 0 0-1.194 0.327-2.314 0.613-1.124 0.285-4.523 1.968-5.141 3.768-0.614 1.805-0.318 9.299-1.288 10.692 0 0 2.053-1.507 1.819-6.71-0.199-4.441 3.237-6.767 6.062-7.664 0 0-1.553 4.317-0.524 9.311-0.002-0.003 0.232 1.709-1.277 3.505z" fill="url(#SVGID_27_)" opacity="0.48"/>
   <path d="m166.65 144.46s-2.932 6.781-6.45 9.576c0 0 7.071-1.07 7.616-2.312 0.546-1.243-1.468-4.091-1.166-7.264z" fill="url(#SVGID_28_)" opacity="0.48"/>
   <g opacity="0.49">
    <path d="m169.07 102v-0.629h-2.57c0.025-0.164 0.036-0.324 0.036-0.48 0-0.902-0.311-1.663-0.915-2.257-0.524-0.507-1.195-0.756-1.951-0.822 0.69-0.005 1.215-0.095 1.584-0.275 0.393-0.195 0.707-0.485 0.934-0.863 0.225-0.37 0.338-0.778 0.338-1.212 0-0.315-0.057-0.618-0.174-0.907h0.071v-2.281h-3.886l-0.252-0.363h1.478c0.474 0 0.801-0.013 0.971-0.045 0.225-0.035 0.454-0.117 0.67-0.242 0.22-0.125 0.4-0.273 0.541-0.443 0.384-0.44 0.581-1.024 0.581-1.728 0-0.921-0.312-1.654-0.917-2.167l-0.174-0.146h3.636v-2.365h-3.353v-3.096h3.353v-2.371h-9.003v2.363h3.368v3.096h-3.368v2.362h1.27c-0.302 0.084-0.587 0.217-0.812 0.442-0.353 0.353-0.537 0.815-0.537 1.332 0 0.415 0.094 0.812 0.278 1.191-0.163 0.205-0.287 0.507-0.287 0.942 0 0.228 0.04 0.453 0.124 0.667 0.053 0.139 0.168 0.343 0.304 0.563h-0.34v2.284h4.061c0.264 0.234 0.298 0.444 0.298 0.589 0 0.054-0.005 0.239-0.074 0.284-0.026 0.022-0.199 0.125-0.753 0.125h-3.531v2.264h2.866c-0.774 0.071-1.447 0.305-1.953 0.78-0.604 0.568-0.913 1.329-0.913 2.262v2.783h9.003v-1.635zm-6.674-14.87h0.09l0.021 0.019c-0.035-0.015-0.074-0.01-0.111-0.019zm-0.211 14.241v-0.151c0-0.558 0.051-0.721 0.059-0.735 0.021-0.073 0.084-0.153 0.172-0.236 0.162-0.146 0.429-0.219 0.791-0.219 0.401 0 0.697 0.092 0.907 0.281 0.128 0.113 0.291 0.309 0.291 0.733 0 0.11-0.017 0.22-0.044 0.327h-2.176z" fill="#9a0018"/>
    <path d="m165.59 129.44c0.617-0.533 0.934-1.234 0.934-2.103 0-0.726-0.267-1.322-0.694-1.836l0.592 0.51v-2.857l-0.206-0.185-1.343-1.221h4.196v-2.262h-6.512l-0.271-0.391h1.476c0.474 0 0.801-0.015 0.971-0.044 0.225-0.04 0.454-0.12 0.674-0.248 0.219-0.123 0.4-0.272 0.537-0.44 0.384-0.435 0.581-1.02 0.581-1.729 0-0.736-0.249-1.313-0.644-1.792 0.406-0.493 0.644-0.981 0.644-1.475 0-0.312-0.09-0.608-0.267-0.894h0.164v-2.262h-2.583c0.239-0.109 0.477-0.244 0.682-0.433 0.164-0.159 0.307-0.331 0.429-0.517 0.48 0.405 1.027 0.513 1.479 0.513 0.513 0 0.976-0.126 1.379-0.374 0.402-0.256 0.718-0.616 0.942-1.087 0.216-0.448 0.32-1.027 0.32-1.771v-2.652h-9.003v3.25c0 0.687 0.124 1.28 0.357 1.757 0.247 0.493 0.576 0.877 0.981 1.141 0.115 0.08 0.245 0.118 0.371 0.173h-1.71v2.27h3.294c0.288 0 0.522 0.071 0.718 0.227 0.225 0.172 0.225 0.294 0.225 0.349 0 0.046-0.025 0.227-0.327 0.541l-0.537 0.57 0.26 0.16h-1.213l0.021 0.017c-0.203-0.075-0.42-0.117-0.652-0.117-0.517 0-0.976 0.188-1.328 0.545-0.349 0.349-0.537 0.811-0.537 1.33 0 0.411 0.095 0.811 0.281 1.188-0.168 0.21-0.29 0.513-0.29 0.944 0 0.227 0.042 0.453 0.122 0.663 0.059 0.146 0.172 0.353 0.318 0.592h-0.354v2.262h1.744l-1.557 1.523-0.188 0.185v3.139l0.032-0.029c-0.071 0.272-0.111 0.579-0.111 0.91 0 0.462 0.057 0.886 0.157 1.246 0.109 0.365 0.285 0.73 0.526 1.096l0.185 0.281h1.672v0.088h0.758c0.941 0 1.715-0.252 2.305-0.751zm-3.475-4.901 1.213-1.217 1.8 1.569c-0.528-0.336-1.128-0.55-1.856-0.55-0.421 0.001-0.797 0.081-1.157 0.198z" fill="#9a0018"/>
   </g>
   <path d="m168.83 85.067v1.111h-7.746v-1.111h3.372v-4.351h-3.372v-1.108h7.746v1.108h-3.353v4.351h3.353z" fill="#fff"/>
   <path d="m164.15 90.952h-2.165c-0.177 0-0.265 0.061-0.265 0.177 0 0.125 0.093 0.313 0.277 0.576h-0.617c-0.148-0.231-0.247-0.416-0.302-0.556-0.055-0.135-0.084-0.28-0.084-0.433 0-0.435 0.172-0.69 0.51-0.766-0.329-0.43-0.497-0.885-0.497-1.368 0-0.356 0.119-0.651 0.353-0.888 0.232-0.238 0.528-0.356 0.885-0.356 0.319 0 0.608 0.118 0.858 0.348 0.256 0.23 0.457 0.559 0.603 0.984l0.44 1.294h0.276c0.613 0 0.919-0.31 0.919-0.923 0-0.55-0.285-1.084-0.852-1.606h1.104c0.462 0.391 0.692 0.954 0.692 1.69 0 0.552-0.143 0.995-0.432 1.326-0.093 0.111-0.217 0.21-0.37 0.298-0.15 0.088-0.308 0.147-0.461 0.172-0.15 0.021-0.439 0.031-0.872 0.031zm-2.055-0.992h1.515l-0.261-0.677c-0.138-0.344-0.276-0.589-0.413-0.73s-0.312-0.211-0.514-0.211c-0.214 0-0.387 0.066-0.521 0.202-0.132 0.136-0.197 0.31-0.197 0.526 0 0.321 0.13 0.615 0.391 0.89z" fill="#fff"/>
   <path d="m166.19 93.602h-0.648c0.493 0.451 0.749 0.965 0.749 1.533 0 0.318-0.084 0.617-0.247 0.89-0.162 0.275-0.391 0.481-0.678 0.623-0.285 0.142-0.738 0.216-1.359 0.216h-2.914v-1.011h2.903c0.521 0 0.896-0.078 1.12-0.236 0.223-0.16 0.336-0.425 0.336-0.799 0-0.479-0.239-0.883-0.718-1.216h-3.642v-1.032h5.103v1.031h-0.005z" fill="#fff"/>
   <path d="m168.83 101.68v1.012h-7.746v-2.155c0-0.756 0.239-1.355 0.718-1.804 0.475-0.449 1.118-0.673 1.918-0.673 0.751 0 1.368 0.236 1.851 0.706 0.484 0.471 0.729 1.072 0.729 1.806 0 0.339-0.073 0.71-0.218 1.108h2.748zm-6.879 0h3.229c0.161-0.314 0.239-0.635 0.239-0.959 0-0.5-0.161-0.901-0.491-1.196-0.331-0.301-0.776-0.447-1.334-0.447-0.524 0-0.928 0.129-1.211 0.39-0.17 0.154-0.283 0.317-0.342 0.491-0.059 0.175-0.088 0.486-0.088 0.938v0.784h-0.002z" fill="#fff"/>
   <path d="m161.09 106.82v-2.62h7.746v2.026c0 0.643-0.086 1.138-0.256 1.503-0.174 0.356-0.407 0.629-0.711 0.817-0.305 0.185-0.65 0.281-1.047 0.281-0.76 0-1.303-0.396-1.637-1.179-0.104 0.566-0.34 1.016-0.696 1.351-0.356 0.332-0.785 0.498-1.286 0.498-0.396 0-0.749-0.105-1.06-0.309-0.311-0.197-0.564-0.497-0.76-0.894-0.196-0.389-0.293-0.88-0.293-1.472zm6.758-0.561v-0.953h-2.328v0.738c0 0.592 0.111 1.014 0.338 1.26 0.222 0.251 0.52 0.375 0.877 0.375 0.744-0.002 1.113-0.472 1.113-1.42zm-3.315 0.084v-1.037h-2.457v1.091c0 0.608 0.044 1.022 0.139 1.238 0.095 0.214 0.243 0.386 0.442 0.521 0.199 0.13 0.413 0.192 0.643 0.192 0.236 0 0.453-0.066 0.652-0.205 0.192-0.135 0.338-0.336 0.437-0.592 0.095-0.252 0.144-0.659 0.144-1.208z" fill="#fff"/>
   <path d="m166.19 111.54h-1.171l0.093 0.055c0.782 0.49 1.179 0.978 1.179 1.469 0 0.377-0.192 0.771-0.579 1.191l-0.887-0.537c0.333-0.353 0.501-0.676 0.501-0.974 0-0.327-0.157-0.612-0.47-0.844-0.312-0.243-0.674-0.36-1.104-0.36h-2.665v-1.016h5.099v1.016h0.004z" fill="#fff"/>
   <path d="m164.15 118.16h-2.165c-0.177 0-0.265 0.055-0.265 0.172 0 0.126 0.093 0.315 0.277 0.575h-0.617c-0.148-0.23-0.247-0.411-0.302-0.554-0.055-0.139-0.084-0.277-0.084-0.433 0-0.432 0.172-0.684 0.51-0.764-0.329-0.43-0.497-0.89-0.497-1.368 0-0.36 0.119-0.654 0.353-0.889 0.232-0.233 0.528-0.357 0.885-0.357 0.319 0 0.608 0.118 0.858 0.349 0.256 0.23 0.457 0.558 0.603 0.986l0.44 1.288h0.276c0.613 0 0.919-0.311 0.919-0.923 0-0.546-0.285-1.083-0.852-1.604h1.104c0.462 0.396 0.692 0.953 0.692 1.687 0 0.555-0.143 0.999-0.432 1.326-0.093 0.113-0.217 0.21-0.37 0.298-0.15 0.093-0.308 0.147-0.461 0.173-0.15 0.026-0.439 0.038-0.872 0.038zm-2.055-0.994h1.515l-0.261-0.676c-0.138-0.344-0.276-0.588-0.413-0.73s-0.312-0.214-0.514-0.214c-0.214 0-0.387 0.071-0.521 0.202-0.132 0.138-0.197 0.31-0.197 0.524 0 0.328 0.13 0.622 0.391 0.894z" fill="#fff"/>
   <path d="m168.83 119.8v1.008h-7.746v-1.008h7.746zm-2.644 3.319v1.2l-2.496-2.178-2.606 2.618v-1.355l2.606-2.553 2.496 2.268z" fill="#fff"/>
   <path d="m163.55 129.24v-3.587c-0.488 0.029-0.874 0.192-1.164 0.49-0.289 0.307-0.43 0.692-0.43 1.167 0 0.667 0.207 1.284 0.618 1.842h-0.985c-0.206-0.312-0.354-0.621-0.443-0.923-0.088-0.309-0.132-0.665-0.132-1.07 0-0.564 0.113-1.021 0.349-1.365 0.23-0.347 0.545-0.63 0.939-0.84 0.395-0.207 0.852-0.312 1.368-0.312 0.774 0 1.407 0.219 1.893 0.659 0.488 0.44 0.729 1.013 0.729 1.714 0 0.674-0.236 1.215-0.709 1.62-0.474 0.404-1.107 0.602-1.9 0.602h-0.133v0.003zm0.602-3.562v2.564c0.403-0.021 0.718-0.147 0.934-0.356 0.221-0.217 0.325-0.504 0.325-0.869 0-0.36-0.104-0.658-0.325-0.885-0.216-0.232-0.528-0.387-0.934-0.454z" fill="#fff"/>
  </g>
  <rect x="-96" rx="25" y="958.36" clip-path="url(#clipPath3009)" fill="#fff" height="92" opacity="0.15" width="92" transform="matrix(1 0 0 1 98 0)"/>
 </g>
</svg>
