<svg height="96" width="96" xmlns="http://www.w3.org/2000/svg" xmlns:xlink="http://www.w3.org/1999/xlink" xmlns:sodipodi="http://sodipodi.sourceforge.net/DTD/sodipodi-0.dtd" xmlns:inkscape="http://www.inkscape.org/namespaces/inkscape">
 <defs>
  <clipPath clipPathUnits="userSpaceOnUse" id="clipPath3009">
   <path d="m-2 956.36h-96v33.562l96 25.687v-59.25z"/>
  </clipPath>
  <linearGradient x2="0" y1="90" y2="5.988" gradientUnits="userSpaceOnUse" id="linearGradient3617">
   <stop stop-color="#282828"/>
   <stop stop-color="#5a5a5a" offset="1"/>
  </linearGradient>
  <radialGradient cy="66.6" r="47.725" xlink:href="#linearGradient3386" gradientUnits="userSpaceOnUse" id="radialGradient3904" cx="53.42" gradientTransform="matrix(1.0164 0 0 1.2415 -19.338 -31.11)"/>
  <linearGradient id="linearGradient3386">
   <stop stop-color="#eeeeec"/>
   <stop stop-color="#eeeeec" stop-opacity="0" offset="1"/>
  </linearGradient>
  <radialGradient cy="66.6" r="47.725" xlink:href="#linearGradient3386" gradientUnits="userSpaceOnUse" id="radialGradient3929" cx="53.42" gradientTransform="matrix(1.0221 0 0 1.2415 -19.896 -47.863)"/>
  <radialGradient cy="66.6" r="47.725" xlink:href="#linearGradient3386" gradientUnits="userSpaceOnUse" id="radialGradient3933" cx="53.42" gradientTransform="matrix(1.475 0 0 0.84786 -55.737 -9.894)"/>
  <radialGradient cy="66.6" r="47.725" xlink:href="#linearGradient3386" gradientUnits="userSpaceOnUse" id="radialGradient4114" cx="53.42" gradientTransform="matrix(1.0199 0 0 0.85846 -19.873 -11.927)"/>
  <radialGradient cy="66.6" r="47.725" xlink:href="#linearGradient3386" gradientUnits="userSpaceOnUse" id="radialGradient3937" cx="53.42" gradientTransform="matrix(1.475 0 0 0.84786 -77.74 -9.894)"/>
  <linearGradient x2="0" xlink:href="#linearGradient3260" y1="26" y2="34" gradientUnits="userSpaceOnUse" id="linearGradient4262" gradientTransform="matrix(0.72414 0 0 0.75 1.655 4.5)"/>
  <linearGradient gradientUnits="userSpaceOnUse" id="linearGradient3260">
   <stop/>
   <stop stop-opacity="0.355" offset="0.2"/>
   <stop stop-opacity="0" offset="0.553"/>
   <stop stop-opacity="0" offset="1"/>
  </linearGradient>
  <linearGradient x2="0" y1="16.04" y2="20.33" gradientUnits="userSpaceOnUse" id="linearGradient4320" gradientTransform="matrix(1 0 0 1 0 -0.679)">
   <stop stop-color="#fff"/>
   <stop stop-color="#fff" stop-opacity="0.498" offset="0.3"/>
   <stop stop-color="#fff" stop-opacity="0" offset="1"/>
  </linearGradient>
  <linearGradient x2="0" xlink:href="#linearGradient3260" y1="16" y2="11.925" gradientUnits="userSpaceOnUse" id="linearGradient4310" gradientTransform="matrix(1 0 0 1.25 0 -4.598)"/>
  <linearGradient x2="0" xlink:href="#linearGradient3260" y1="16" y2="11.925" gradientUnits="userSpaceOnUse" id="linearGradient4326" gradientTransform="matrix(1 0 0 1.25 0 4.402)"/>
  <linearGradient x1="11" x2="16" y1="10.442" y2="24" gradientUnits="userSpaceOnUse" id="linearGradient4371" gradientTransform="matrix(0.81331 0 0 0.81133 3.994 2.028)">
   <stop stop-color="#5d5d5d"/>
   <stop stop-color="#171717" offset="1"/>
  </linearGradient>
  <linearGradient x1="13.13" x2="19.25" y1="9.942" y2="24.5" gradientUnits="userSpaceOnUse" id="linearGradient4373" gradientTransform="matrix(0.81331 0 0 0.81133 3.994 2.028)">
   <stop stop-color="#919191"/>
   <stop stop-color="#232323" offset="1"/>
  </linearGradient>
  <radialGradient cy="14.938" r="1.438" gradientUnits="userSpaceOnUse" id="radialGradient4379" cx="11.312">
   <stop stop-color="#dfdfdf"/>
   <stop stop-color="#434343" offset="1"/>
  </radialGradient>
  <linearGradient x2="0" y1="84" y2="55" gradientUnits="userSpaceOnUse" id="linearGradient3457" gradientTransform="matrix(1.2943 -0.21779 0.21779 1.2943 -34.16 -10.884)">
   <stop stop-color="#d88215"/>
   <stop stop-color="#efc259" offset="1"/>
  </linearGradient>
  <linearGradient x1="136.41" x2="149.53" gradientUnits="userSpaceOnUse" id="linearGradient3742">
   <stop stop-color="#e6605b"/>
   <stop stop-color="#f08682" offset="1"/>
  </linearGradient>
  <filter x="-0.429" y="-0.167" height="1.333" color-interpolation-filters="sRGB" id="filter3495" width="1.857">
   <feGaussianBlur stdDeviation="0.55243"/>
  </filter>
  <filter x="-0.183" y="-0.177" height="1.353" color-interpolation-filters="sRGB" id="filter3509" width="1.367">
   <feGaussianBlur stdDeviation="0.65925"/>
  </filter>
  <linearGradient x1="137.41" x2="148.53" xlink:href="#linearGradient3339" gradientUnits="userSpaceOnUse" id="linearGradient3744" gradientTransform="matrix(1.0894 0 0 1 -13.276 0)"/>
  <linearGradient id="linearGradient3339">
   <stop/>
   <stop stop-opacity="0.498" offset="0.7"/>
   <stop stop-opacity="0" offset="1"/>
  </linearGradient>
  <linearGradient x1="136" x2="150" gradientUnits="userSpaceOnUse" id="linearGradient3746" gradientTransform="matrix(1 0 0 1 -23.733 0)">
   <stop/>
   <stop stop-color="#282828" offset="0.25"/>
   <stop stop-color="#3c3c3c" offset="0.3"/>
   <stop stop-color="#646464" offset="0.7"/>
   <stop stop-color="#787878" offset="0.75"/>
   <stop stop-color="#a0a0a0" offset="1"/>
  </linearGradient>
  <linearGradient x2="0" y1="0" y2="120.02" gradientUnits="userSpaceOnUse" id="linearGradient3748" gradientTransform="matrix(1 0 0 1 -23.733 0)">
   <stop/>
   <stop offset="0.066"/>
   <stop stop-color="#ad5f1b" offset="0.07"/>
   <stop stop-color="#ad601a" offset="0.191"/>
   <stop offset="0.21"/>
   <stop offset="1"/>
  </linearGradient>
  <linearGradient x1="141.25" x2="144.81" gradientUnits="userSpaceOnUse" id="linearGradient3750" gradientTransform="matrix(1 0 0 1 -23.733 0)">
   <stop/>
   <stop stop-color="#7d7d7d" offset="0.5"/>
   <stop offset="1"/>
  </linearGradient>
  <linearGradient x1="136.99" x2="149" gradientUnits="userSpaceOnUse" id="linearGradient3752" gradientTransform="matrix(1 0 0 1 -23.733 0)">
   <stop stop-color="#da8539"/>
   <stop stop-color="#fadfc7" offset="1"/>
  </linearGradient>
  <linearGradient x1="146.11" x2="146.08" xlink:href="#linearGradient5452" y1="118.94" y2="66" gradientUnits="userSpaceOnUse" id="linearGradient3754" gradientTransform="matrix(1 0 0 1.2654 -23.733 -54.36)"/>
  <linearGradient id="linearGradient5452">
   <stop stop-color="#fff"/>
   <stop stop-color="#fff" stop-opacity="0" offset="1"/>
  </linearGradient>
  <linearGradient x1="146.11" x2="146.08" xlink:href="#linearGradient5452" y1="118.94" y2="66" gradientUnits="userSpaceOnUse" id="linearGradient3756" gradientTransform="matrix(1 0 0 1.2654 -29.858 -54.36)"/>
  <filter x="-0.432" y="-0.114" height="1.227" color-interpolation-filters="sRGB" id="filter3382" width="1.863">
   <feGaussianBlur stdDeviation="0.73915"/>
  </filter>
  <filter x="-0.61" y="-0.149" height="1.299" color-interpolation-filters="sRGB" id="filter3390" width="2.22">
   <feGaussianBlur stdDeviation="0.77813"/>
  </filter>
  <linearGradient x1="136" x2="150" gradientUnits="userSpaceOnUse" id="linearGradient3758">
   <stop stop-color="#404040"/>
   <stop stop-color="#808080" offset="0.2"/>
   <stop stop-color="#efefef" offset="0.7"/>
   <stop stop-color="#dcdcdc" offset="1"/>
  </linearGradient>
  <linearGradient x1="136" x2="150" gradientUnits="userSpaceOnUse" id="linearGradient3760">
   <stop stop-color="#444542"/>
   <stop stop-color="#71746e" offset="1"/>
  </linearGradient>
  <linearGradient x1="142.96" x2="148.96" xlink:href="#linearGradient3339" spreadMethod="reflect" gradientUnits="userSpaceOnUse" id="linearGradient3762" gradientTransform="matrix(1 0 0 1 0.042 1.549)"/>
  <linearGradient x1="142.96" x2="148.96" spreadMethod="reflect" gradientUnits="userSpaceOnUse" id="linearGradient3764" gradientTransform="matrix(1 0 0 1 0.042 2.549)">
   <stop stop-color="#fff"/>
   <stop stop-color="#fff" stop-opacity="0.498" offset="0.7"/>
   <stop stop-color="#fff" stop-opacity="0" offset="1"/>
  </linearGradient>
  <linearGradient x1="137" x2="139.03" spreadMethod="repeat" gradientUnits="userSpaceOnUse" id="linearGradient3779">
   <stop stop-color="#3d3d3d"/>
   <stop stop-color="#fff" offset="1"/>
  </linearGradient>
  <filter x="-1.035" y="-0.136" height="1.272" color-interpolation-filters="sRGB" id="filter3451" width="3.07">
   <feGaussianBlur stdDeviation="0.94982"/>
  </filter>
  <filter x="-0.933" y="-0.138" height="1.275" color-interpolation-filters="sRGB" id="filter3457" width="2.867">
   <feGaussianBlur stdDeviation="0.92808"/>
  </filter>
  <clipPath clipPathUnits="userSpaceOnUse" id="clipPath3468">
   <rect x="7.81" rx="22.622" y="7.081" height="83.25" width="83.25"/>
  </clipPath>
  <path d="m12.75 14.938a1.4375 1.4375 0 1 1 -2.875 0 1.4375 1.4375 0 1 1 2.875 0z" fill="url(#radialGradient4379)" fill-rule="evenodd" id="SVGCleanerId_0"/>
 </defs>
 <g transform="matrix(1 0 0 1 0 -956.36)">
  <g clip-path="url(#clipPath3468)" transform="matrix(1.1051 0 0 1.1051 -6.631 950.54)">
   <rect x="6" rx="6" y="6" fill="url(#linearGradient3617)" height="84" width="84"/>
   <path d="m40 39h41v1h-41v-1z" fill="url(#radialGradient3904)" opacity="0.8"/>
   <path d="m15 69h66v1h-66v-1z" fill="url(#radialGradient3929)" opacity="0.8"/>
   <path d="m59 70v14h-1v-14h1z" fill="url(#radialGradient3933)" opacity="0.8"/>
   <path d="m41.781 62.875c-0.36464 0.000003-0.64928 0.05669-0.84375 0.21875s-0.28125 0.41759-0.28125 0.71875c0 0.2404 0.07964 0.4207 0.21875 0.5625 0.14045 0.1418 0.35373 0.24767 0.65625 0.3125l0.3125 0.0625c0.18367 0.04051 0.28298 0.07368 0.34375 0.125 0.06212 0.05132 0.09375 0.12421 0.09375 0.21875-0.000002 0.10534-0.03452 0.19328-0.125 0.25-0.09049 0.05671-0.20484 0.09375-0.375 0.09375-0.16747 0-0.35028-0.04243-0.53125-0.09375-0.17962-0.05267-0.36938-0.11611-0.5625-0.21875v0.65625c0.19312 0.07157 0.36938 0.11979 0.5625 0.15625 0.19312 0.03647 0.40197 0.0625 0.59375 0.0625 0.4065 0 0.70907-0.08794 0.90625-0.25 0.19852-0.16341 0.28125-0.41642 0.28125-0.75-0.000003-0.2539-0.0457-0.42474-0.1875-0.5625-0.142-0.137-0.383-0.244-0.719-0.312l-0.344-0.063c-0.158-0.032-0.251-0.08-0.312-0.124-0.06-0.046-0.094-0.107-0.094-0.188 0-0.10804 0.03586-0.19868 0.125-0.25 0.08913-0.05131 0.21988-0.0625 0.40625-0.0625 0.14045 0 0.31074-0.0066 0.46875 0.03125 0.15801 0.03782 0.30263 0.11322 0.46875 0.1875v-0.65625c-0.188-0.05-0.356-0.069-0.532-0.094-0.175-0.025-0.365-0.031-0.531-0.031zm3.0625 0c-0.339 0.053-0.623 0.195-0.844 0.406-0.29441 0.28091-0.4375 0.67276-0.4375 1.1562 0 0.48214 0.14309 0.87399 0.4375 1.1562 0.294 0.282 0.684 0.407 1.188 0.407 0.16881 0 0.34469-0.02468 0.5-0.0625 0.15531-0.03781 0.29434-0.08197 0.4375-0.15625v-0.625c-0.14451 0.09859-0.2658 0.17283-0.40625 0.21875-0.14046 0.04592-0.31344 0.0625-0.46875 0.0625-0.27821 0.000001-0.49689-0.10298-0.65625-0.28125s-0.21875-0.40678-0.21875-0.71875c-0.000001-0.31332 0.05939-0.57173 0.21875-0.75 0.15936-0.17826 0.37804-0.25 0.65625-0.25 0.15531 0 0.32829 0.01659 0.46875 0.0625 0.14045 0.04592 0.26174 0.12016 0.40625 0.21875v-0.625c-0.14316-0.07428-0.28219-0.14969-0.4375-0.1875-0.15531-0.0378-0.33119-0.03125-0.5-0.03125-0.12594 0.000001-0.2309-0.01764-0.34375 0zm-18.875 0.03125v0.59375h1v2.4375h0.78125v-2.4375h1v-0.59375h-2.7812zm3.1875 0v3.0312h2.1562v-0.59375h-1.375v-0.6875h1.25v-0.59375h-1.25v-0.5625h1.3125v-0.59375h-2.0938zm17.625 0v3.0312h2.1562v-0.59375h-1.375v-0.6875h1.25v-0.59375h-1.25v-0.5625h1.3125v-0.59375h-2.0938zm2.8438 0v3.0312h0.71875v-2.0625l1.125 2.0625h0.84375v-3.0312h-0.71875v2.0938l-1.0938-2.0938h-0.875zm3.4688 0v3.0312h2.1562v-0.59375h-1.375v-0.6875h1.25v-0.59375h-1.25v-0.5625h1.3125v-0.59375h-2.0938zm11.656 0v0.59375h1v2.4375h0.78125v-2.4375h1v-0.59375h-2.7812zm6.0938 0v3.0312h0.78125v-1.1875l1.1875 1.1875h0.96875l-1.5938-1.5938 1.4375-1.4375h-0.90625l-1.0938 1.125v-1.125h-0.78125zm3.1875 0v3.0312h2.1562v-0.59375h-1.375v-0.6875h1.25v-0.59375h-1.25v-0.5625h1.3438v-0.59375h-2.125zm-54.032 0.032v3.0312h0.8125c0.45377 0 0.80436-0.06017 1.0312-0.125 0.22688-0.06618 0.43168-0.15584 0.59375-0.3125 0.1418-0.1364 0.24362-0.29048 0.3125-0.46875 0.06887-0.17962 0.09375-0.39676 0.09375-0.625-0.000002-0.22554-0.02487-0.41548-0.09375-0.59375-0.068-0.179-0.17-0.333-0.311-0.469-0.161-0.157-0.369-0.279-0.594-0.344-0.224-0.066-0.572-0.093-1.032-0.093h-0.8125zm4.1875 0-1.0938 3.0312h0.78125l0.1875-0.5625h1.2188l0.1875 0.5625h0.78125l-1.125-3.0312h-0.9375zm44.188 0-1.125 3.0312h0.78125l0.21875-0.5625h1.2188l0.1875 0.5625h0.78125l-1.125-3.0312h-0.9375zm-47.594 0.59375h0.28125c0.32007 0.000002 0.55128 0.06209 0.71875 0.21875 0.16746 0.15666 0.25 0.38769 0.25 0.6875-0.000003 0.30117-0.08119 0.52949-0.25 0.6875-0.16747 0.15802-0.40003 0.25-0.71875 0.25h-0.28125v-1.8438zm3.875 0.09375 0.4375 1.2188h-0.84375l0.40625-1.2188zm44.188 0 0.40625 1.2188h-0.8125l0.40625-1.2188z" fill="url(#radialGradient4114)" opacity="0.8"/>
   <path d="m37 70v14h-1v-14h1z" fill="url(#radialGradient3937)" opacity="0.8"/>
   <path d="m12 6c-3.324 0-6 2.676-6 6v12h84v-12c0-3.324-2.676-6-6-6h-72z"/>
   <rect x="6" y="24" fill="url(#linearGradient4262)" fill-rule="evenodd" height="6" opacity="0.8" width="84"/>
   <rect x="6" y="15" fill="url(#linearGradient4320)" fill-rule="evenodd" height="5" opacity="0.3" width="84"/>
   <g transform="matrix(1 0 0 1 1 0)">
    <path d="m28.333 6-5.333 9 5.333 9h10.667l-5.333-9 5.333-9h-10.667z" fill="#f0f0f0" fill-rule="evenodd"/>
    <path d="m50.333 6-5.333 9 5.333 9h10.667l-5.333-9 5.333-9h-10.667z" fill="#f0f0f0" fill-rule="evenodd"/>
    <path d="m72.333 6-5.333 9 5.333 9h10.667l-5.333-9 5.333-9h-10.667z" fill="#f0f0f0" fill-rule="evenodd"/>
   </g>
   <rect x="6" y="10" fill="url(#linearGradient4310)" fill-rule="evenodd" height="5" opacity="0.7" width="84"/>
   <rect x="6" y="19" fill="url(#linearGradient4326)" fill-rule="evenodd" height="5" opacity="0.7" width="84"/>
   <path d="m12.005 10.5c1.1095 0 1.7702 0.98369 6.03 4.3027 4.3044 3.3537 5.4775 3.7265 5.4775 5.0746 0 1.3484-1.0882 1.6227-2.4399 1.6227h-8.1331c-1.352 0-2.44-1.086-2.44-2.434v-6.4906c0-1.348 0.468-2.075 1.505-2.075z" fill="url(#linearGradient4371)" fill-rule="evenodd" stroke="url(#linearGradient4373)" stroke-linejoin="round"/>
   <use xlink:href="#SVGCleanerId_0" transform="matrix(0.81331 0 0 0.81133 3.587 1.075)"/>
   <use xlink:href="#SVGCleanerId_0" transform="matrix(0.81331 0 0 0.81133 3.587 7.099)"/>
   <use xlink:href="#SVGCleanerId_0" transform="matrix(0.81331 0 0 0.81133 11.618 7.099)"/>
   <path d="m83.712 25.182-73.688 68.299 82.835-13.938-9.147-54.361zm-6.9942 20.476 4.281 25.441-38.789 6.527 34.508-31.968z" fill="url(#linearGradient3457)"/>
   <path d="m76.545 44.673 0.16594 0.98614-33.14 30.738-1.51 0.25409 34.484-31.978zm16.159 33.882 0.16594 0.98614-82.835 13.939 1.3441-1.2402 81.325-13.685z" fill="#a0672c"/>
   <path d="m83.722 25.18 0.16594 0.98614-72.344 67.059-1.51 0.25409 73.688-68.299zm-2.7283 45.933 0.16593 0.98614-38.767 6.5234 1.3441-1.2402 37.257-6.2693z" fill="#ffe680" opacity="0.5"/>
   <g transform="matrix(0.53066 -0.19519 -0.19519 -0.53066 -13.08 121.11)">
    <rect x="136.91" stroke-width="1.327" rx="3" y="107.49" fill="url(#linearGradient3742)" stroke="#df453f" height="16" width="12.12" stroke-linejoin="round"/>
    <path d="m141.24 118.19a1.5468 3.9775 0 1 1 -3.0936 0 1.5468 3.9775 0 1 1 3.0936 0z" fill="#701300" filter="url(#filter3495)" opacity="0.3" transform="matrix(1.8857 0 0 1 -123.51 -1.944)"/>
    <path d="m146.31 113.12c-0.85193 9.5067-3.9375 8.3125-6.5 8.9375 4.0763 0.0625 8.625-0.0625 8.625-0.0625-2.4375-0.5625-1.8125-2.375-2.125-8.875z" fill="#fff" fill-rule="evenodd" filter="url(#filter3509)" opacity="0.8"/>
    <rect x="136.41" y="115.97" fill="url(#linearGradient3744)" height="1" opacity="0.2" width="12.12"/>
    <g transform="matrix(1 0 0 1 23.733 0)">
     <path d="m112.77 24.5 6.5-24 6.5 24v72h-13v-72z" stroke-width="1.327" fill="url(#linearGradient3746)" stroke="url(#linearGradient3748)" stroke-linejoin="round"/>
     <path d="m117.69 8.0717 3.1426 0.022097-1.5824-5.7913" fill="url(#linearGradient3750)" fill-rule="evenodd"/>
     <path d="m117.73 8.0902-3.77 13.91s-0.46779 1.6535-0.698 2.6083c-0.19122 0.64228 1.9589 1.6113 3.0182-1.6083 1.2153 4.5138 5.5759 3.438 5.9883 0.01105 0.3425 1.7015 1.754 2.95 2.9886 1.5219-0.23478-0.90874-0.43641-1.5219-0.43641-1.5219l-4.0217-14.921h-3.0715z" fill="url(#linearGradient3752)" fill-rule="evenodd"/>
     <path d="m122.37 96.305v-67.217" stroke-width="1.769" fill="none" stroke="url(#linearGradient3754)" opacity="0.3"/>
     <path d="m116.25 96.305v-67.217" stroke-width="1.769" fill="none" stroke="url(#linearGradient3756)" opacity="0.4"/>
     <path d="m118.7 5.9799-4.773 17.899 1.9887-0.83969 2.7842-17.059z" fill="#ac4311" fill-rule="evenodd" filter="url(#filter3382)" opacity="0.4"/>
     <path d="m113.08 24.625s1.4867 1.7649 3.25-1.5312c2 5.25 5.1686 2.0871 5.9375-0.03125 1.375 3.4375 3.125 1.4375 3.125 1.4375" stroke-width="1.769" fill="none" stroke="#4d2600" opacity="0.15"/>
     <path d="m144.06 8.9375-0.375 12.5 3.0625-0.3125-2.6875-12.188z" fill="#fff" fill-rule="evenodd" filter="url(#filter3390)" opacity="0.8" transform="matrix(1.1224 0 0 1.345 -41.703 -4.771)"/>
    </g>
    <rect x="136.5" stroke-width="1.327" y="96.5" fill="url(#linearGradient3758)" stroke="url(#linearGradient3760)" height="19" width="13" stroke-linejoin="round"/>
    <rect x="137" y="100" fill="url(#linearGradient3762)" height="1" opacity="0.4" width="12"/>
    <rect x="137" y="101" fill="url(#linearGradient3764)" height="1" opacity="0.6" width="12"/>
    <rect x="137" y="102" fill="url(#linearGradient3762)" height="1" opacity="0.4" width="12"/>
    <rect x="137" y="103" fill="url(#linearGradient3764)" height="1" opacity="0.6" width="12"/>
    <rect x="137" y="108" fill="url(#linearGradient3762)" height="1" opacity="0.4" width="12"/>
    <rect x="137" y="109" fill="url(#linearGradient3764)" height="1" opacity="0.6" width="12"/>
    <rect x="137" y="110" fill="url(#linearGradient3762)" height="1" opacity="0.4" width="12"/>
    <rect x="137" y="111" fill="url(#linearGradient3764)" height="1" opacity="0.6" width="12"/>
    <rect x="137" y="104" fill="url(#linearGradient3779)" height="4" opacity="0.3" width="12"/>
    <path d="m140 106.08a1.1013 8.3969 0 1 1 -2.2026 0 1.1013 8.3969 0 1 1 2.2026 0z" filter="url(#filter3451)" opacity="0.6" transform="matrix(1.2554 0 0 1 -35.754 0)"/>
    <path d="m147.34 106.04a1.1932 8.0875 0 1 1 -2.3865 0 1.1932 8.0875 0 1 1 2.3865 0z" fill="#fff" filter="url(#filter3457)" opacity="0.8"/>
   </g>
  </g>
  <rect x="-96" rx="25" y="958.36" clip-path="url(#clipPath3009)" fill="#fff" height="92" opacity="0.15" width="92" transform="matrix(1 0 0 1 98 0)"/>
 </g>
</svg>
