<?xml version="1.0" encoding="UTF-8" standalone="no"?>
<!-- Created with Inkscape (http://www.inkscape.org/) -->

<svg
   xmlns:dc="http://purl.org/dc/elements/1.1/"
   xmlns:cc="http://creativecommons.org/ns#"
   xmlns:rdf="http://www.w3.org/1999/02/22-rdf-syntax-ns#"
   xmlns:svg="http://www.w3.org/2000/svg"
   xmlns="http://www.w3.org/2000/svg"
   xmlns:xlink="http://www.w3.org/1999/xlink"
   xmlns:sodipodi="http://sodipodi.sourceforge.net/DTD/sodipodi-0.dtd"
   xmlns:inkscape="http://www.inkscape.org/namespaces/inkscape"
   width="96"
   height="96"
   id="svg11037"
   version="1.1"
   inkscape:version="0.48.5 r10040"
   sodipodi:docname="hedgewars.svg">
  <defs
     id="defs11039">
    <clipPath
       clipPathUnits="userSpaceOnUse"
       id="clipPath3009">
      <path
         id="path3011"
         d="m -2,956.36218 -96,0 0,33.5624 96,25.68742 0,-59.24982 z"
         style="opacity:0.15;fill:#ffffff;fill-opacity:1;stroke:none"
         inkscape:connector-curvature="0" />
    </clipPath>
    <linearGradient
       x1="64.056015"
       y1="77.702751"
       x2="65.100998"
       y2="19.677986"
       id="linearGradient4259"
       xlink:href="#linearGradient4253"
       gradientUnits="userSpaceOnUse" />
    <linearGradient
       id="linearGradient4253">
      <stop
         id="stop4255"
         style="stop-color:#3d95f0;stop-opacity:1"
         offset="0" />
      <stop
         id="stop4257"
         style="stop-color:#a3cdf8;stop-opacity:1"
         offset="1" />
    </linearGradient>
    <linearGradient
       x1="7.5143661"
       y1="14.759853"
       x2="10.646555"
       y2="12.039604"
       id="linearGradient4058"
       xlink:href="#linearGradient4052"
       gradientUnits="userSpaceOnUse" />
    <linearGradient
       id="linearGradient4052">
      <stop
         id="stop4054"
         style="stop-color:#9e218d;stop-opacity:1"
         offset="0" />
      <stop
         id="stop4056"
         style="stop-color:#cb2ab5;stop-opacity:1"
         offset="1" />
    </linearGradient>
    <linearGradient
       x1="40.572731"
       y1="77.304153"
       x2="40.653225"
       y2="51.54998"
       id="linearGradient4330"
       xlink:href="#linearGradient4237"
       gradientUnits="userSpaceOnUse"
       gradientTransform="matrix(1,0,0,0.53794216,0,41.117314)" />
    <linearGradient
       id="linearGradient4237">
      <stop
         id="stop4239"
         style="stop-color:#cab45f;stop-opacity:1"
         offset="0" />
      <stop
         id="stop4241"
         style="stop-color:#e6dbb3;stop-opacity:1"
         offset="1" />
    </linearGradient>
    <radialGradient
       cx="21.465347"
       cy="68.990097"
       r="11.009901"
       fx="21.465347"
       fy="68.990097"
       id="radialGradient5881"
       xlink:href="#linearGradient5867"
       gradientUnits="userSpaceOnUse"
       gradientTransform="matrix(1,0,0,0.92805758,0,4.9633148)" />
    <linearGradient
       id="linearGradient5867">
      <stop
         id="stop5869"
         style="stop-color:#000000;stop-opacity:1"
         offset="0" />
      <stop
         id="stop5871"
         style="stop-color:#000000;stop-opacity:0"
         offset="1" />
    </linearGradient>
    <radialGradient
       cx="26.98056"
       cy="32.8923"
       r="21.96875"
       fx="26.98056"
       fy="32.8923"
       id="radialGradient4302"
       xlink:href="#linearGradient4032"
       gradientUnits="userSpaceOnUse"
       gradientTransform="matrix(0.07342129,0.52526417,-0.70830317,0.10297201,73.675037,21.330173)" />
    <linearGradient
       id="linearGradient4032">
      <stop
         id="stop4034"
         style="stop-color:#f8bcf0;stop-opacity:1"
         offset="0" />
      <stop
         id="stop4036"
         style="stop-color:#d53ec1;stop-opacity:1"
         offset="1" />
    </linearGradient>
    <linearGradient
       x1="46.874153"
       y1="44.241234"
       x2="46.709129"
       y2="36.806881"
       id="linearGradient4298"
       xlink:href="#linearGradient4292"
       gradientUnits="userSpaceOnUse"
       gradientTransform="translate(-23.644311,0.47783616)" />
    <linearGradient
       id="linearGradient4292">
      <stop
         id="stop4294"
         style="stop-color:#626262;stop-opacity:1"
         offset="0" />
      <stop
         id="stop4296"
         style="stop-color:#ffffff;stop-opacity:1"
         offset="1" />
    </linearGradient>
    <linearGradient
       x1="13.661008"
       y1="14.232578"
       x2="16.52496"
       y2="9.2673273"
       id="linearGradient4050"
       xlink:href="#linearGradient4044"
       gradientUnits="userSpaceOnUse" />
    <linearGradient
       id="linearGradient4044">
      <stop
         id="stop4046"
         style="stop-color:#ad249a;stop-opacity:1"
         offset="0" />
      <stop
         id="stop4048"
         style="stop-color:#e273d3;stop-opacity:1"
         offset="1" />
    </linearGradient>
    <radialGradient
       cx="21.465347"
       cy="68.990097"
       r="11.009901"
       fx="21.465347"
       fy="68.990097"
       id="radialGradient5877"
       xlink:href="#linearGradient5867"
       gradientUnits="userSpaceOnUse"
       gradientTransform="matrix(1,0,0,0.92805758,0,4.9633148)" />
    <radialGradient
       cx="24.826694"
       cy="40.786476"
       r="21.96875"
       fx="24.826694"
       fy="40.786476"
       id="radialGradient4280"
       xlink:href="#linearGradient4258"
       gradientUnits="userSpaceOnUse"
       gradientTransform="matrix(0.3063932,0.22090721,-0.38988852,0.44341394,44.608202,45.005646)" />
    <linearGradient
       id="linearGradient4258">
      <stop
         id="stop4260"
         style="stop-color:#f8bcf0;stop-opacity:1"
         offset="0" />
      <stop
         id="stop4262"
         style="stop-color:#d22ebc;stop-opacity:1"
         offset="1" />
    </linearGradient>
    <radialGradient
       cx="22.776897"
       cy="41.864872"
       r="21.96875"
       fx="22.776897"
       fy="41.864872"
       id="radialGradient4286"
       xlink:href="#linearGradient4038"
       gradientUnits="userSpaceOnUse"
       gradientTransform="matrix(0.35712698,0.31944874,-0.49735665,0.52132548,35.489562,45.370608)" />
    <linearGradient
       id="linearGradient4038">
      <stop
         id="stop4040"
         style="stop-color:#f8bcf0;stop-opacity:1"
         offset="0" />
      <stop
         id="stop4042"
         style="stop-color:#c72bb2;stop-opacity:1"
         offset="1" />
    </linearGradient>
    <linearGradient
       x1="35.526558"
       y1="60.632118"
       x2="41.694202"
       y2="71.404388"
       id="linearGradient4030"
       xlink:href="#linearGradient4024"
       gradientUnits="userSpaceOnUse" />
    <linearGradient
       id="linearGradient4024">
      <stop
         id="stop4026"
         style="stop-color:#de62ce;stop-opacity:1"
         offset="0" />
      <stop
         id="stop4028"
         style="stop-color:#951f85;stop-opacity:1"
         offset="1" />
    </linearGradient>
    <radialGradient
       cx="26.772278"
       cy="37.306931"
       r="10.297029"
       fx="26.772278"
       fy="37.306931"
       id="radialGradient4008"
       xlink:href="#linearGradient3990"
       gradientUnits="userSpaceOnUse"
       gradientTransform="matrix(1,0,0,1.1615386,0,-6.0265082)" />
    <linearGradient
       id="linearGradient3990">
      <stop
         id="stop3992"
         style="stop-color:#d538c1;stop-opacity:1"
         offset="0" />
      <stop
         id="stop3994"
         style="stop-color:#d538c1;stop-opacity:0"
         offset="1" />
    </linearGradient>
    <radialGradient
       cx="26.772278"
       cy="37.306931"
       r="10.297029"
       fx="26.772278"
       fy="37.306931"
       id="radialGradient4004"
       xlink:href="#linearGradient3990"
       gradientUnits="userSpaceOnUse"
       gradientTransform="matrix(1,0,0,1.1615386,0,-6.0265082)" />
    <radialGradient
       cx="26.772278"
       cy="37.306931"
       r="10.297029"
       fx="26.772278"
       fy="37.306931"
       id="radialGradient3976"
       xlink:href="#linearGradient3954"
       gradientUnits="userSpaceOnUse"
       gradientTransform="matrix(1,0,0,1.1615386,0,-6.0265082)" />
    <linearGradient
       id="linearGradient3954">
      <stop
         id="stop3956"
         style="stop-color:#f5b1ec;stop-opacity:1"
         offset="0" />
      <stop
         id="stop3958"
         style="stop-color:#f5b1ec;stop-opacity:0"
         offset="1" />
    </linearGradient>
    <radialGradient
       cx="26.772278"
       cy="37.306931"
       r="10.297029"
       fx="26.772278"
       fy="37.306931"
       id="radialGradient3968"
       xlink:href="#linearGradient3954"
       gradientUnits="userSpaceOnUse"
       gradientTransform="matrix(1,0,0,1.1615386,0,-6.0265082)" />
    <radialGradient
       cx="26.772278"
       cy="37.306931"
       r="10.297029"
       fx="26.772278"
       fy="37.306931"
       id="radialGradient3972"
       xlink:href="#linearGradient3954"
       gradientUnits="userSpaceOnUse"
       gradientTransform="matrix(1,0,0,1.1615386,0,-6.0265082)" />
    <radialGradient
       cx="26.772278"
       cy="37.306931"
       r="10.297029"
       fx="26.772278"
       fy="37.306931"
       id="radialGradient3996"
       xlink:href="#linearGradient3990"
       gradientUnits="userSpaceOnUse"
       gradientTransform="matrix(1,0,0,1.1615386,0,-6.0265082)" />
    <radialGradient
       cx="21.465347"
       cy="68.990097"
       r="11.009901"
       fx="21.465347"
       fy="68.990097"
       id="radialGradient5873"
       xlink:href="#linearGradient5867"
       gradientUnits="userSpaceOnUse"
       gradientTransform="matrix(1,0,0,0.92805758,0,4.9633148)" />
    <radialGradient
       cx="26.772278"
       cy="37.306931"
       r="10.297029"
       fx="26.772278"
       fy="37.306931"
       id="radialGradient4000"
       xlink:href="#linearGradient3990"
       gradientUnits="userSpaceOnUse"
       gradientTransform="matrix(1,0,0,1.1615386,0,-6.0265082)" />
    <radialGradient
       cx="32.368572"
       cy="45.968353"
       r="21.96875"
       fx="32.368572"
       fy="45.968353"
       id="radialGradient5861"
       xlink:href="#linearGradient4018"
       gradientUnits="userSpaceOnUse"
       gradientTransform="matrix(0.3390543,-0.08269054,0.1017854,0.41348788,-0.80959534,50.003049)" />
    <linearGradient
       id="linearGradient4018">
      <stop
         id="stop4020"
         style="stop-color:#f5a1ea;stop-opacity:1"
         offset="0" />
      <stop
         id="stop4022"
         style="stop-color:#d437bf;stop-opacity:1"
         offset="1" />
    </linearGradient>
    <radialGradient
       cx="26.772278"
       cy="37.306931"
       r="10.297029"
       fx="26.772278"
       fy="37.306931"
       id="radialGradient4012"
       xlink:href="#linearGradient3954"
       gradientUnits="userSpaceOnUse"
       gradientTransform="matrix(1,0,0,1.1615386,0,-6.0265082)" />
    <radialGradient
       cx="26.772278"
       cy="37.306931"
       r="10.297029"
       fx="26.772278"
       fy="37.306931"
       id="radialGradient3960"
       xlink:href="#linearGradient3954"
       gradientUnits="userSpaceOnUse"
       gradientTransform="matrix(1,0,0,1.1615386,0,-6.0265082)" />
    <radialGradient
       cx="26.772278"
       cy="37.306931"
       r="10.297029"
       fx="26.772278"
       fy="37.306931"
       id="radialGradient3964"
       xlink:href="#linearGradient3954"
       gradientUnits="userSpaceOnUse"
       gradientTransform="matrix(1,0,0,1.1615386,0,-6.0265082)" />
    <linearGradient
       x1="13.909604"
       y1="50.351406"
       x2="61.371082"
       y2="46.024628"
       id="linearGradient4011"
       xlink:href="#linearGradient4005"
       gradientUnits="userSpaceOnUse" />
    <linearGradient
       id="linearGradient4005">
      <stop
         id="stop4007"
         style="stop-color:#d3d3d3;stop-opacity:1"
         offset="0" />
      <stop
         id="stop4009"
         style="stop-color:#ffffff;stop-opacity:1"
         offset="1" />
    </linearGradient>
    <linearGradient
       x1="39.298534"
       y1="46.943085"
       x2="3.0543084"
       y2="48.282417"
       id="linearGradient4003"
       xlink:href="#linearGradient3997"
       gradientUnits="userSpaceOnUse" />
    <linearGradient
       id="linearGradient3997">
      <stop
         id="stop3999"
         style="stop-color:#ffffff;stop-opacity:1"
         offset="0" />
      <stop
         id="stop4001"
         style="stop-color:#d1d1d1;stop-opacity:1"
         offset="1" />
    </linearGradient>
    <radialGradient
       cx="26.772278"
       cy="37.306931"
       r="10.297029"
       fx="26.772278"
       fy="37.306931"
       id="radialGradient4016"
       xlink:href="#linearGradient3990"
       gradientUnits="userSpaceOnUse"
       gradientTransform="matrix(1,0,0,1.1615386,0,-6.0265082)" />
    <linearGradient
       x1="49.976875"
       y1="11.411653"
       x2="49.983749"
       y2="10.755789"
       id="linearGradient12054"
       xlink:href="#linearGradient5590"
       gradientUnits="userSpaceOnUse"
       gradientTransform="matrix(0.72822021,0,0,0.76340527,15.157539,-0.83944276)" />
    <linearGradient
       id="linearGradient5590">
      <stop
         id="stop5592"
         style="stop-color:#ffffff;stop-opacity:1"
         offset="0" />
      <stop
         id="stop5594"
         style="stop-color:#ffffff;stop-opacity:0"
         offset="1" />
    </linearGradient>
    <linearGradient
       x1="50.107143"
       y1="14.6411"
       x2="50.152069"
       y2="12.907034"
       id="linearGradient12059"
       xlink:href="#linearGradient5590"
       gradientUnits="userSpaceOnUse"
       gradientTransform="matrix(0.50807037,0,0,0.54507683,35.869806,-0.26443525)" />
    <clipPath
       clipPathUnits="userSpaceOnUse"
       id="clipPath3310">
      <rect
         x="6.6089435"
         y="7.2453465"
         width="81.904816"
         height="81.904816"
         style="opacity:0.6;fill:#000000;fill-opacity:1"
         id="rect3312"
         rx="22.256742"
         ry="22.256742" />
    </clipPath>
  </defs>
  <sodipodi:namedview
     id="base"
     pagecolor="#ffffff"
     bordercolor="#666666"
     borderopacity="1.0"
     inkscape:pageopacity="0.0"
     inkscape:pageshadow="2"
     inkscape:zoom="3.959798"
     inkscape:cx="29.118614"
     inkscape:cy="49.863109"
     inkscape:document-units="px"
     inkscape:current-layer="layer1"
     showgrid="false"
     inkscape:window-width="1366"
     inkscape:window-height="684"
     inkscape:window-x="0"
     inkscape:window-y="26"
     inkscape:window-maximized="1"
     showguides="true"
     inkscape:guide-bbox="true">
    <sodipodi:guide
       orientation="0,1"
       position="-24.748737,0"
       id="guide11064" />
    <sodipodi:guide
       orientation="0,1"
       position="-23.233509,96"
       id="guide11066" />
    <sodipodi:guide
       orientation="1,0"
       position="0,54.800776"
       id="guide11068" />
    <sodipodi:guide
       orientation="1,0"
       position="96,51.012704"
       id="guide11070" />
    <sodipodi:guide
       orientation="0,1"
       position="-18.94036,48"
       id="guide11072" />
    <sodipodi:guide
       orientation="1,0"
       position="48,79.296975"
       id="guide11074" />
    <sodipodi:guide
       orientation="1,0"
       position="2,75.508903"
       id="guide11076" />
    <sodipodi:guide
       orientation="0,1"
       position="-77.27667,2"
       id="guide11078" />
    <sodipodi:guide
       orientation="1,0"
       position="94,77.781746"
       id="guide11080" />
    <sodipodi:guide
       orientation="0,1"
       position="-65.912454,94"
       id="guide11082" />
  </sodipodi:namedview>
  <metadata
     id="metadata11042">
    <rdf:RDF>
      <cc:Work
         rdf:about="">
        <dc:format>image/svg+xml</dc:format>
        <dc:type
           rdf:resource="http://purl.org/dc/dcmitype/StillImage" />
        <dc:title />
      </cc:Work>
    </rdf:RDF>
  </metadata>
  <g
     inkscape:label="Layer 1"
     inkscape:groupmode="layer"
     id="layer1"
     transform="translate(0,-956.36218)">
    <g
       transform="matrix(1.1232551,0,0,1.1232551,-5.4235296,950.22381)"
       id="g3232"
       clip-path="url(#clipPath3310)">
      <path
         inkscape:connector-curvature="0"
         style="fill:url(#linearGradient4259);fill-opacity:1;fill-rule:nonzero;stroke:none"
         id="rect12887-4"
         d="m 12,5.59375 c -3.3217435,0 -5.96875,2.7144988 -5.96875,6.0625 l 0,72.5 c 0,3.348001 2.6470065,6.0625 5.96875,6.0625 l 28.65625,0 c -0.466194,-0.93515 -0.75,-1.977848 -0.75,-3.09375 0,-3.849589 3.150411,-6.96875 7,-6.96875 0.918565,0 1.790814,0.208514 2.59375,0.53125 0.345855,-2.270503 2.239243,-4 4.53125,-4 2.537229,0 4.59375,2.12528 4.59375,4.75 0,2.62472 -2.056521,4.75 -4.59375,4.75 -0.07432,0 -0.145297,-0.02764 -0.21875,-0.03125 0.0436,0.315193 0.0625,0.641535 0.0625,0.96875 0,1.115902 -0.283806,2.1586 -0.75,3.09375 l 30.84375,0 c 3.321743,0 6,-2.714499 6,-6.0625 l 0,-42.09375 c -0.52514,0.246914 -1.094581,0.40625 -1.71875,0.40625 -2.187267,0 -3.96875,-1.712724 -3.96875,-3.8125 0,-1.242935 0.633045,-2.337516 1.59375,-3.03125 -0.97308,-0.919155 -1.59375,-2.200659 -1.59375,-3.625 0,-2.799701 2.331558,-5.0625 5.21875,-5.0625 0.159293,0 0.313086,0.01772 0.46875,0.03125 l 0,-15.3125 c 0,-3.3480012 -2.678257,-6.0625 -6,-6.0625 l -18.75,0 c 0.02003,0.1405871 0.0625,0.2916822 0.0625,0.4375 0,1.7498135 -1.506446,3.15625 -3.34375,3.15625 -1.837304,0 -3.3125,-1.4064365 -3.3125,-3.15625 0,-0.1454901 0.01131,-0.2972157 0.03125,-0.4375 l -1.4375,0 c 0.275667,0.6171068 0.4375,1.2846675 0.4375,2 0,2.799701 -2.331558,5.09375 -5.21875,5.09375 -2.887192,0 -5.21875,-2.294049 -5.21875,-5.09375 0,-0.7153325 0.161833,-1.3828932 0.4375,-2 L 12,5.59375 z" />
      <path
         inkscape:connector-curvature="0"
         style="opacity:0.2;fill:#000000;fill-opacity:1;stroke:none"
         id="path3995"
         d="m 22.15625,71.976795 c -1.336327,0 -2.553895,0.273707 -4.90625,1.136091 -6.272947,2.299691 -11.1875,1.537067 -11.1875,1.537067 0,0 -0.1942998,11.246342 0,13.013586 0.2624719,2.3873 5.129831,2.64929 5.129831,2.64929 0,0 62.023218,0.169361 72.466787,0.07373 3.664817,-0.03356 6.232544,-1.286491 6.301582,-2.604935 0.09108,-1.739489 0.08293,-14.567103 0.08293,-14.567103 0,0 -0.197158,0.09827 -8.262376,1.823042 -8.065218,1.724768 -11.19535,-0.0045 -18.8125,0.187121 C 55.3516,75.416323 49.515098,72.738645 35.625,72.738645 c -8.681311,0 -11.241539,-0.76185 -13.46875,-0.76185 z M 66.375,78.325546 c 3.149664,0 5.71875,1.106833 5.71875,2.472671 0,0.06745 -0.01896,0.134408 -0.03125,0.200488 0.261961,-0.0202 0.537215,-0.0401 0.8125,-0.0401 2.537229,0 4.59375,0.900972 4.59375,2.004868 0,1.103898 -2.056521,2.00487 -4.59375,2.00487 -2.410577,0 -4.371139,-0.817135 -4.5625,-1.84448 -0.607371,0.09518 -1.2555,0.147024 -1.9375,0.147024 -3.149664,0 -5.6875,-1.106834 -5.6875,-2.472672 0,-1.365838 2.537836,-2.472672 5.6875,-2.472672 z" />
      <path
         inkscape:connector-curvature="0"
         style="opacity:0.30701827;fill:#000000;fill-opacity:1;stroke:none"
         id="path3993"
         d="m 22.15625,70.867884 c -1.336327,0 -2.553895,0.290168 -4.90625,1.204415 -6.272947,2.437993 -11.1875,1.629505 -11.1875,1.629505 0,0 -0.1942998,11.92269 0,13.796215 0.2624719,2.53087 5.129831,2.808616 5.129831,2.808616 0,0 62.023218,0.179546 72.466787,0.07816 3.664817,-0.03558 6.232544,-1.36386 6.301582,-2.761594 0.09108,-1.844101 0.08293,-15.443159 0.08293,-15.443159 0,0 -0.197158,0.104184 -8.262376,1.932678 -8.065218,1.828495 -11.19535,-0.0048 -18.8125,0.198375 C 55.3516,74.514263 49.515098,71.675551 35.625,71.675551 c -8.681311,0 -11.241539,-0.807667 -13.46875,-0.807667 z M 66.375,77.598445 c 3.149664,0 5.71875,1.173397 5.71875,2.621376 0,0.07151 -0.01896,0.142491 -0.03125,0.212545 0.261961,-0.02141 0.537215,-0.04251 0.8125,-0.04251 2.537229,0 4.59375,0.955156 4.59375,2.12544 0,1.170285 -2.056521,2.125441 -4.59375,2.125441 -2.410577,0 -4.371139,-0.866277 -4.5625,-1.955405 -0.607371,0.100906 -1.2555,0.155865 -1.9375,0.155865 -3.149664,0 -5.6875,-1.173398 -5.6875,-2.621376 0,-1.447979 2.537836,-2.621377 5.6875,-2.621377 z" />
      <path
         inkscape:connector-curvature="0"
         style="opacity:0.44736861;fill:#000000;fill-opacity:1;stroke:none"
         id="path3223"
         d="m 22.15625,69.600557 c -1.336327,0 -2.553895,0.30898 -4.90625,1.2825 -6.272947,2.596052 -11.1875,1.735148 -11.1875,1.735148 0,0 -0.1942998,12.695659 0,14.690648 0.2624719,2.69495 5.129831,2.990703 5.129831,2.990703 0,0 62.023218,0.191186 72.466787,0.08323 3.664817,-0.03789 6.232544,-1.452282 6.301582,-2.940633 0.09108,-1.963658 0.08293,-16.444366 0.08293,-16.444366 0,0 -0.197158,0.110938 -8.262376,2.057977 -8.065218,1.947039 -11.19535,-0.0051 -18.8125,0.211236 C 55.3516,73.483337 49.515098,70.460587 35.625,70.460587 c -8.681311,0 -11.241539,-0.86003 -13.46875,-0.86003 z M 66.375,76.767472 c 3.149664,0 5.71875,1.249471 5.71875,2.791325 0,0.07614 -0.01896,0.151729 -0.03125,0.226324 0.261961,-0.0228 0.537215,-0.04526 0.8125,-0.04526 2.537229,0 4.59375,1.01708 4.59375,2.263236 0,1.246156 -2.056521,2.263236 -4.59375,2.263236 -2.410577,0 -4.371139,-0.922439 -4.5625,-2.082177 -0.607371,0.107448 -1.2555,0.16597 -1.9375,0.16597 -3.149664,0 -5.6875,-1.249471 -5.6875,-2.791324 0,-1.541854 2.537836,-2.791325 5.6875,-2.791326 z" />
      <path
         inkscape:connector-curvature="0"
         style="fill:url(#linearGradient4058);fill-opacity:1;stroke:none"
         id="path4404"
         d="M 18.567347,19.372418 6.8405966,9.9475033 6.6182306,19.810786 13.169319,20.468339 z" />
      <path
         inkscape:connector-curvature="0"
         style="fill:url(#linearGradient4330);fill-opacity:1;stroke:none"
         id="path4227"
         d="m 22.15625,67.224319 c -1.336327,0 -2.553895,0.344253 -4.90625,1.428909 -6.272947,2.892413 -11.1875,1.933229 -11.1875,1.933229 0,0 -0.1942998,14.144976 0,16.367709 0.2624719,3.002602 5.129831,3.332117 5.129831,3.332117 0,0 62.023218,0.213012 72.466787,0.09273 3.664817,-0.04221 6.232544,-1.618073 6.301582,-3.276332 0.09108,-2.187826 0.08293,-18.321628 0.08293,-18.321628 0,0 -0.197158,0.123602 -8.262376,2.292912 -8.065218,2.16931 -11.19535,-0.0057 -18.8125,0.23535 C 55.3516,71.550352 49.515098,68.182529 35.625,68.182529 c -8.681311,0 -11.241539,-0.95821 -13.46875,-0.95821 z M 66.375,75.209398 c 3.149664,0 5.71875,1.392109 5.71875,3.109978 0,0.08483 -0.01896,0.169051 -0.03125,0.252161 0.261961,-0.0254 0.537215,-0.05043 0.8125,-0.05043 2.537229,0 4.59375,1.133188 4.59375,2.521603 0,1.388416 -2.056521,2.521604 -4.59375,2.521604 -2.410577,0 -4.371139,-1.027743 -4.5625,-2.319875 -0.607371,0.119714 -1.2555,0.184917 -1.9375,0.184917 -3.149664,0 -5.6875,-1.392109 -5.6875,-3.109978 0,-1.717869 2.537836,-3.109978 5.6875,-3.109979 z" />
      <path
         inkscape:connector-curvature="0"
         style="opacity:0.75877195;fill:url(#radialGradient5881);fill-opacity:1;stroke:none"
         id="path5879"
         transform="matrix(2.1259327,0,-0.29195624,1.2635659,3.4734574,-9.1537339)"
         d="m 32.475248,68.990097 a 11.009901,10.217822 0 1 1 -22.019802,0 11.009901,10.217822 0 1 1 22.019802,0 z" />
      <path
         inkscape:connector-curvature="0"
         style="fill:url(#radialGradient4302);fill-opacity:1;stroke:none"
         id="path4300"
         d="m 50.049189,38.406171 c -0.628863,-0.146627 -1.26284,-0.250839 -1.889536,-0.319631 l -6.327852,20.293808 c 0.581738,0.212971 1.190364,0.39849 1.819226,0.545118 6.975076,1.626334 14.062816,-1.648942 15.829469,-7.314701 1.766652,-5.665761 -2.45623,-11.57826 -9.431307,-13.204594 z" />
      <rect
         style="fill:url(#linearGradient4298);fill-opacity:1;stroke:none"
         id="rect4290"
         transform="matrix(0.93650803,-0.35064614,0.35064614,0.93650803,0,0)"
         y="36.596649"
         x="10.890341"
         ry="6.0433235"
         rx="5.9959269"
         height="23.445545"
         width="46.574257" />
      <path
         inkscape:connector-curvature="0"
         style="fill:url(#linearGradient4050);fill-opacity:1;stroke:none"
         id="path4276"
         d="M 27.455653,17.620214 11.462389,6.6037522 10.700805,18.132608 l 9.392869,0.768591 z" />
      <path
         inkscape:connector-curvature="0"
         style="opacity:0.83333333;fill:url(#radialGradient5877);fill-opacity:1;stroke:none"
         id="path5875"
         transform="matrix(1.0538063,-0.40651497,0.66680656,1.7285586,-25.455049,-69.26012)"
         d="m 32.475248,68.990097 a 11.009901,10.217822 0 1 1 -22.019802,0 11.009901,10.217822 0 1 1 22.019802,0 z" />
      <path
         inkscape:connector-curvature="0"
         style="fill:url(#radialGradient4280);fill-opacity:1;stroke:none"
         id="path4278"
         d="M 39.13318,64.37284 C 38.617068,64.065766 38.079275,63.787897 37.533938,63.538097 L 23.613003,76.2733 c 0.446434,0.340278 0.928454,0.669172 1.444565,0.976245 5.724497,3.405928 13.517119,3.284561 17.403659,-0.270938 3.886539,-3.555498 2.39645,-9.199839 -3.328047,-12.605767 z" />
      <path
         inkscape:connector-curvature="0"
         style="fill:url(#radialGradient4286);fill-opacity:1;stroke:none"
         id="path4284"
         d="M 27.783059,69.100833 C 27.199351,68.716575 26.591123,68.368862 25.97436,68.056275 L 10.23019,83.992517 c 0.504904,0.425809 1.050055,0.837371 1.633762,1.221627 6.474237,4.262022 15.287468,4.110147 19.683031,-0.339037 4.395564,-4.449187 2.710315,-11.512254 -3.763924,-15.774274 z" />
      <path
         inkscape:connector-curvature="0"
         style="fill:url(#linearGradient4030);fill-opacity:1;stroke:none"
         id="path4245"
         d="m 11.275043,13.976591 c -1.9168195,0 -3.5305489,0.25044 -5.3722457,0.495894 l 0.056008,69.097752 c 1.8416968,0.245454 3.3994178,0.27186 5.3162377,0.27186 21.260553,0 38.498366,-15.641581 38.498366,-34.932753 0,-19.291172 -17.237813,-34.932753 -38.498366,-34.932753 z" />
      <path
         inkscape:connector-curvature="0"
         style="opacity:0.64473685;fill:url(#radialGradient4008);fill-opacity:1;stroke:none"
         id="path4006"
         transform="matrix(1.4538461,0,0,0.99999997,-16.98218,32.316832)"
         d="m 37.069306,37.306931 a 10.297029,11.960396 0 1 1 -20.594057,0 10.297029,11.960396 0 1 1 20.594057,0 z" />
      <path
         inkscape:connector-curvature="0"
         style="opacity:0.64473685;fill:url(#radialGradient4004);fill-opacity:1;stroke:none"
         id="path4002"
         transform="matrix(1.1538461,0,0,1.013245,-12.514852,21.842502)"
         d="m 37.069306,37.306931 a 10.297029,11.960396 0 1 1 -20.594057,0 10.297029,11.960396 0 1 1 20.594057,0 z" />
      <path
         inkscape:connector-curvature="0"
         style="opacity:0.45238097;fill:url(#radialGradient3976);fill-opacity:1;stroke:none"
         id="path3974"
         transform="matrix(1.0153846,0,0,0.99337749,-2.946535,-5.5351123)"
         d="m 37.069306,37.306931 a 10.297029,11.960396 0 1 1 -20.594057,0 10.297029,11.960396 0 1 1 20.594057,0 z" />
      <path
         inkscape:connector-curvature="0"
         style="opacity:0.81140352;fill:url(#radialGradient3968);fill-opacity:1;stroke:none"
         id="path3966"
         transform="translate(2.2178214,7.7623761)"
         d="m 37.069306,37.306931 a 10.297029,11.960396 0 1 1 -20.594057,0 10.297029,11.960396 0 1 1 20.594057,0 z" />
      <path
         inkscape:connector-curvature="0"
         style="opacity:0.64473685;fill:url(#radialGradient3972);fill-opacity:1;stroke:none"
         id="path3970"
         transform="matrix(1.6461538,0,0,1.1456953,-16.665349,13.099207)"
         d="m 37.069306,37.306931 a 10.297029,11.960396 0 1 1 -20.594057,0 10.297029,11.960396 0 1 1 20.594057,0 z" />
      <path
         inkscape:connector-curvature="0"
         style="opacity:0.64473685;fill:url(#radialGradient3996);fill-opacity:1;stroke:none"
         id="path3978"
         transform="matrix(1.1538461,0,0,1.013245,-17.742576,16.456364)"
         d="m 37.069306,37.306931 a 10.297029,11.960396 0 1 1 -20.594057,0 10.297029,11.960396 0 1 1 20.594057,0 z" />
      <path
         inkscape:connector-curvature="0"
         style="opacity:0.83333333;fill:url(#radialGradient5873);fill-opacity:1;stroke:none"
         id="path5865"
         transform="matrix(0.90647482,0,0,1.3100775,-5.3587862,-20.758614)"
         d="m 32.475248,68.990097 a 11.009901,10.217822 0 1 1 -22.019802,0 11.009901,10.217822 0 1 1 22.019802,0 z" />
      <path
         inkscape:connector-curvature="0"
         style="opacity:0.64473685;fill:url(#radialGradient4000);fill-opacity:1;stroke:none"
         id="path3998"
         transform="matrix(1.1538461,0,0,1.013245,-13.782179,0.77319565)"
         d="m 37.069306,37.306931 a 10.297029,11.960396 0 1 1 -20.594057,0 10.297029,11.960396 0 1 1 20.594057,0 z" />
      <path
         inkscape:connector-curvature="0"
         style="fill:url(#radialGradient5861);fill-opacity:1;stroke:none"
         id="path5859"
         d="m 8.0600249,58.855346 c -0.6445758,0.0386 -1.2819701,0.119321 -1.9022946,0.231917 L 5.8735257,80.342841 c 0.618304,0.03842 1.2545612,0.04286 1.8991363,0.0043 7.149357,-0.428207 13.010309,-5.58696 13.089656,-11.521233 0.07935,-5.934274 -5.652935,-10.398725 -12.8022931,-9.970562 z" />
      <path
         inkscape:connector-curvature="0"
         style="opacity:0.9517544;fill:url(#radialGradient4012);fill-opacity:1;stroke:none"
         id="path4010"
         transform="matrix(1.0923077,0,0,1.1854305,-1.0455453,-7.0762575)"
         d="m 37.069306,37.306931 a 10.297029,11.960396 0 1 1 -20.594057,0 10.297029,11.960396 0 1 1 20.594057,0 z" />
      <path
         inkscape:connector-curvature="0"
         style="opacity:0.81140352;fill:url(#radialGradient3960);fill-opacity:1;stroke:none"
         id="path3952"
         transform="translate(1.2673264,-1.9009901)"
         d="m 37.069306,37.306931 a 10.297029,11.960396 0 1 1 -20.594057,0 10.297029,11.960396 0 1 1 20.594057,0 z" />
      <path
         inkscape:connector-curvature="0"
         style="opacity:0.81140352;fill:url(#radialGradient3964);fill-opacity:1;stroke:none"
         id="path3962"
         transform="matrix(1.3153846,0,0,1.1523179,-14.067328,-7.1874632)"
         d="m 37.069306,37.306931 a 10.297029,11.960396 0 1 1 -20.594057,0 10.297029,11.960396 0 1 1 20.594057,0 z" />
      <path
         inkscape:connector-curvature="0"
         style="fill:url(#linearGradient4011);fill-opacity:1;stroke:none"
         id="path4249"
         transform="matrix(0.23539175,0,0,0.29290316,22.67309,25.046602)"
         d="m 72.138893,48.728863 a 36.517513,34.725243 0 1 1 -73.03502642,0 36.517513,34.725243 0 1 1 73.03502642,0 z" />
      <path
         inkscape:connector-curvature="0"
         style="fill:url(#linearGradient4003);fill-opacity:1;stroke:none"
         id="path4247"
         transform="matrix(0.25223778,0,0,0.35483865,10.083529,23.820827)"
         d="m 72.138893,48.728863 a 36.517513,34.725243 0 1 1 -73.03502642,0 36.517513,34.725243 0 1 1 73.03502642,0 z" />
      <path
         inkscape:connector-curvature="0"
         style="opacity:0.64473685;fill:url(#radialGradient4016);fill-opacity:1;stroke:none"
         id="path4014"
         transform="matrix(0.59230755,0,0,1.3509933,27.944556,-0.81725738)"
         d="m 37.069306,37.306931 a 10.297029,11.960396 0 1 1 -20.594057,0 10.297029,11.960396 0 1 1 20.594057,0 z" />
      <path
         inkscape:connector-curvature="0"
         style="fill:#000000;fill-opacity:1;stroke:none"
         id="path4254"
         transform="matrix(0.09624864,0,0,0.12419348,30.062715,32.315489)"
         d="m 72.138893,48.728863 a 36.517513,34.725243 0 1 1 -73.03502642,0 36.517513,34.725243 0 1 1 73.03502642,0 z" />
      <path
         inkscape:connector-curvature="0"
         style="opacity:0.72368421;fill:none;stroke:#3d042b;stroke-width:3.8102212;stroke-linecap:round;stroke-linejoin:miter;stroke-miterlimit:4;stroke-opacity:1;stroke-dasharray:none"
         id="path4013"
         d="m 23.708208,58.416247 c 0,0 8.044676,5.416759 15.945391,-8.902616" />
      <path
         inkscape:connector-curvature="0"
         style="fill:#000000;fill-opacity:1;stroke:none"
         id="path4256"
         transform="matrix(0.11284323,0,0,0.14193541,17.715324,35.181107)"
         d="m 72.138893,48.728863 a 36.517513,34.725243 0 1 1 -73.03502642,0 36.517513,34.725243 0 1 1 73.03502642,0 z" />
      <path
         inkscape:connector-curvature="0"
         style="fill:none;stroke:#a0096f;stroke-width:3.62124681;stroke-linecap:round;stroke-linejoin:miter;stroke-miterlimit:4;stroke-opacity:1;stroke-dasharray:none"
         id="path4274"
         d="m 23.555591,57.394246 c 0,0 8.03704,4.839926 16.030128,-8.102898" />
      <path
         inkscape:connector-curvature="0"
         style="opacity:0.71428576;fill:#b9b9b9;fill-opacity:1;stroke:none"
         id="path5889"
         transform="matrix(0.65152709,-0.20144147,0.3716728,0.93655697,12.689612,13.84341)"
         d="m 72.712873,27.881187 a 4.514852,10.930694 0 1 1 -9.029704,0 4.514852,10.930694 0 1 1 9.029704,0 z" />
      <path
         inkscape:connector-curvature="0"
         style="opacity:0.3;fill:none;stroke:url(#linearGradient12054);stroke-width:2.23404956;stroke-miterlimit:4;stroke-opacity:1;stroke-dasharray:none"
         id="path5588"
         d="m 47.489109,6.5818235 c -0.457042,0.6626627 -0.729365,1.4000608 -0.729365,2.2109432 0,2.5547483 2.585883,4.6349893 5.771506,4.6349893 3.185623,0 5.771506,-2.080241 5.771506,-4.6349893 0,-0.8108824 -0.272323,-1.5482805 -0.729365,-2.2109432 l -10.084282,0 z" />
      <path
         inkscape:connector-curvature="0"
         style="opacity:0.3;fill:none;stroke:url(#linearGradient12059);stroke-width:1.57679296;stroke-miterlimit:4;stroke-opacity:1;stroke-dasharray:none"
         id="path5598"
         d="m 57.964676,6.2652211 c -0.01589,0.1192532 -0.03114,0.2248412 -0.03114,0.3475661 0,1.8241092 1.794374,3.301878 4.016944,3.301878 2.222571,0 4.016944,-1.4777688 4.016944,-3.301878 0,-0.1227249 -0.01525,-0.2283129 -0.03114,-0.3475661 l -7.971612,0 z" />
      <path
         inkscape:connector-curvature="0"
         style="opacity:0.3;fill:none;stroke:#ffffff;stroke-width:1px;stroke-linecap:butt;stroke-linejoin:miter;stroke-opacity:1"
         id="path5606"
         d="m 89.029703,26.455445 c 0,0 -3.615145,0.274149 -4.871287,3.603961 -0.947073,2.510527 0.316832,4.910891 1.386139,5.90099" />
      <path
         inkscape:connector-curvature="0"
         style="opacity:0.12380952;fill:none;stroke:#ffffff;stroke-width:0.74644476px;stroke-linecap:butt;stroke-linejoin:miter;stroke-opacity:1"
         id="path5608"
         d="m 84.951337,36.060304 c 0,0 -1.705833,1.522631 -0.905592,3.709617 1.099119,3.003787 3.467011,3.14897 4.931787,3.106619" />
      <path
         inkscape:connector-curvature="0"
         style="fill:#000000;fill-opacity:1;stroke:none"
         id="path5887"
         transform="matrix(0.51778224,-0.17815557,0.29537617,0.82829442,24.96769,14.719391)"
         d="m 72.712873,27.881187 a 4.514852,10.930694 0 1 1 -9.029704,0 4.514852,10.930694 0 1 1 9.029704,0 z" />
    </g>
    <rect
       ry="25"
       rx="25"
       id="rect3003"
       style="opacity:0.15;fill:#ffffff;fill-opacity:1"
       height="92"
       width="92"
       y="958.36218"
       x="-96"
       clip-path="url(#clipPath3009)"
       transform="translate(98,0)" />
  </g>
</svg>
