<svg height="96" width="96" xmlns="http://www.w3.org/2000/svg" xmlns:xlink="http://www.w3.org/1999/xlink" xmlns:sodipodi="http://sodipodi.sourceforge.net/DTD/sodipodi-0.dtd" xmlns:inkscape="http://www.inkscape.org/namespaces/inkscape">
 <defs>
  <clipPath clipPathUnits="userSpaceOnUse" id="clipPath3009">
   <path d="m -2,956.36218 -96,0 0,33.5624 96,25.68742 0,-59.24982 z" inkscape:connector-curvature="0"/>
  </clipPath>
  <linearGradient x1="64.06" x2="65.1" y1="77.7" y2="19.678" gradientUnits="userSpaceOnUse" id="linearGradient4259">
   <stop stop-color="#3d95f0" stop-opacity="1"/>
   <stop stop-color="#a3cdf8" stop-opacity="1" offset="1"/>
  </linearGradient>
  <linearGradient x1="7.514" x2="10.647" y1="14.76" y2="12.04" gradientUnits="userSpaceOnUse" id="linearGradient4058">
   <stop stop-color="#9e218d" stop-opacity="1"/>
   <stop stop-color="#cb2ab5" stop-opacity="1" offset="1"/>
  </linearGradient>
  <linearGradient x1="40.573" x2="40.653" y1="77.3" y2="51.55" gradientUnits="userSpaceOnUse" id="linearGradient4330" gradientTransform="matrix(1 0 0 0.53794 0 41.12)">
   <stop stop-color="#cab45f" stop-opacity="1"/>
   <stop stop-color="#e6dbb3" stop-opacity="1" offset="1"/>
  </linearGradient>
  <radialGradient cy="68.99" r="11.01" gradientUnits="userSpaceOnUse" id="radialGradient5881" cx="21.465" gradientTransform="matrix(1 0 0 0.92806 0 4.963)">
   <stop stop-color="#000000" stop-opacity="1"/>
   <stop stop-color="#000000" stop-opacity="0" offset="1"/>
  </radialGradient>
  <radialGradient cy="32.892" r="21.969" gradientUnits="userSpaceOnUse" id="radialGradient4302" cx="26.981" gradientTransform="matrix(0.07342 0.52526 -0.7083 0.10297 73.68 21.33)">
   <stop stop-color="#f8bcf0" stop-opacity="1"/>
   <stop stop-color="#d53ec1" stop-opacity="1" offset="1"/>
  </radialGradient>
  <linearGradient x1="46.874" x2="46.709" y1="44.24" y2="36.807" gradientUnits="userSpaceOnUse" id="linearGradient4298" gradientTransform="matrix(1 0 0 1 -23.644 0.478)">
   <stop stop-color="#626262" stop-opacity="1"/>
   <stop stop-color="#ffffff" stop-opacity="1" offset="1"/>
  </linearGradient>
  <linearGradient x1="13.661" x2="16.525" y1="14.233" y2="9.267" gradientUnits="userSpaceOnUse" id="linearGradient4050">
   <stop stop-color="#ad249a" stop-opacity="1"/>
   <stop stop-color="#e273d3" stop-opacity="1" offset="1"/>
  </linearGradient>
  <radialGradient cy="40.786" r="21.969" gradientUnits="userSpaceOnUse" id="radialGradient4280" cx="24.827" gradientTransform="matrix(0.30639 0.22091 -0.38989 0.44341 44.608 45.01)">
   <stop stop-color="#f8bcf0" stop-opacity="1"/>
   <stop stop-color="#d22ebc" stop-opacity="1" offset="1"/>
  </radialGradient>
  <radialGradient cy="41.865" r="21.969" gradientUnits="userSpaceOnUse" id="radialGradient4286" cx="22.777" gradientTransform="matrix(0.35713 0.31945 -0.49736 0.52133 35.49 45.37)">
   <stop stop-color="#f8bcf0" stop-opacity="1"/>
   <stop stop-color="#c72bb2" stop-opacity="1" offset="1"/>
  </radialGradient>
  <linearGradient x1="35.527" x2="41.694" y1="60.63" y2="71.4" gradientUnits="userSpaceOnUse" id="linearGradient4030">
   <stop stop-color="#de62ce" stop-opacity="1"/>
   <stop stop-color="#951f85" stop-opacity="1" offset="1"/>
  </linearGradient>
  <radialGradient cy="37.31" r="10.297" gradientUnits="userSpaceOnUse" id="radialGradient4008" cx="26.772" gradientTransform="matrix(1 0 0 1.16154 0 -6.03)">
   <stop stop-color="#d538c1" stop-opacity="1"/>
   <stop stop-color="#d538c1" stop-opacity="0" offset="1"/>
  </radialGradient>
  <radialGradient cy="37.31" r="10.297" gradientUnits="userSpaceOnUse" id="radialGradient3976" cx="26.772" gradientTransform="matrix(1 0 0 1.16154 0 -6.03)">
   <stop stop-color="#f5b1ec" stop-opacity="1"/>
   <stop stop-color="#f5b1ec" stop-opacity="0" offset="1"/>
  </radialGradient>
  <radialGradient cy="45.968" r="21.969" gradientUnits="userSpaceOnUse" id="radialGradient5861" cx="32.369" gradientTransform="matrix(0.33905 -0.08269 0.10179 0.41349 -0.81 50)">
   <stop stop-color="#f5a1ea" stop-opacity="1"/>
   <stop stop-color="#d437bf" stop-opacity="1" offset="1"/>
  </radialGradient>
  <linearGradient x1="13.91" x2="61.37" y1="50.35" y2="46.02" gradientUnits="userSpaceOnUse" id="linearGradient4011">
   <stop stop-color="#d3d3d3" stop-opacity="1"/>
   <stop stop-color="#ffffff" stop-opacity="1" offset="1"/>
  </linearGradient>
  <linearGradient x1="39.3" x2="3.054" y1="46.943" y2="48.28" gradientUnits="userSpaceOnUse" id="linearGradient4003">
   <stop stop-color="#ffffff" stop-opacity="1"/>
   <stop stop-color="#d1d1d1" stop-opacity="1" offset="1"/>
  </linearGradient>
  <linearGradient x1="49.977" x2="49.984" xlink:href="#linearGradient5590" y1="11.412" y2="10.756" gradientUnits="userSpaceOnUse" id="linearGradient12054" gradientTransform="matrix(0.72822 0 0 0.76341 15.16 -0.839)"/>
  <linearGradient id="linearGradient5590">
   <stop stop-color="#ffffff" stop-opacity="1"/>
   <stop stop-color="#ffffff" stop-opacity="0" offset="1"/>
  </linearGradient>
  <linearGradient x1="50.11" x2="50.15" xlink:href="#linearGradient5590" y1="14.641" y2="12.907" gradientUnits="userSpaceOnUse" id="linearGradient12059" gradientTransform="matrix(0.50807 0 0 0.54508 35.87 -0.264)"/>
  <clipPath clipPathUnits="userSpaceOnUse" id="clipPath3310">
   <rect x="6.609" rx="22.257" y="7.245" height="81.905" width="81.905"/>
  </clipPath>
  <path d="m 32.475248,68.990097 a 11.009901,10.217822 0 1 1 -22.019802,0 11.009901,10.217822 0 1 1 22.019802,0 z" fill="url(#radialGradient5881)" fill-opacity="1" stroke="none" id="SVGCleanerId_0"/>
  <path d="m 37.069306,37.306931 a 10.297029,11.960396 0 1 1 -20.594057,0 10.297029,11.960396 0 1 1 20.594057,0 z" fill-opacity="1" stroke="none" id="SVGCleanerId_1"/>
  <path d="m 72.138893,48.728863 a 36.517513,34.725243 0 1 1 -73.03502642,0 36.517513,34.725243 0 1 1 73.03502642,0 z" fill-opacity="1" stroke="none" id="SVGCleanerId_2"/>
  <path d="m 72.712873,27.881187 a 4.514852,10.930694 0 1 1 -9.029704,0 4.514852,10.930694 0 1 1 9.029704,0 z" fill-opacity="1" stroke="none" id="SVGCleanerId_3"/>
 </defs>
 <g inkscape:label="Layer 1" inkscape:groupmode="layer" transform="matrix(1 0 0 1 0 -956.36)">
  <g clip-path="url(#clipPath3310)" transform="matrix(1.12326 0 0 1.12326 -5.424 950.22)">
   <path d="m 12,5.59375 c -3.3217435,0 -5.96875,2.7144988 -5.96875,6.0625 l 0,72.5 c 0,3.348001 2.6470065,6.0625 5.96875,6.0625 l 28.65625,0 c -0.466194,-0.93515 -0.75,-1.977848 -0.75,-3.09375 0,-3.849589 3.150411,-6.96875 7,-6.96875 0.918565,0 1.790814,0.208514 2.59375,0.53125 0.345855,-2.270503 2.239243,-4 4.53125,-4 2.537229,0 4.59375,2.12528 4.59375,4.75 0,2.62472 -2.056521,4.75 -4.59375,4.75 -0.07432,0 -0.145297,-0.02764 -0.21875,-0.03125 0.0436,0.315193 0.0625,0.641535 0.0625,0.96875 0,1.115902 -0.283806,2.1586 -0.75,3.09375 l 30.84375,0 c 3.321743,0 6,-2.714499 6,-6.0625 l 0,-42.09375 c -0.52514,0.246914 -1.094581,0.40625 -1.71875,0.40625 -2.187267,0 -3.96875,-1.712724 -3.96875,-3.8125 0,-1.242935 0.633045,-2.337516 1.59375,-3.03125 -0.97308,-0.919155 -1.59375,-2.200659 -1.59375,-3.625 0,-2.799701 2.331558,-5.0625 5.21875,-5.0625 0.159293,0 0.313086,0.01772 0.46875,0.03125 l 0,-15.3125 c 0,-3.3480012 -2.678257,-6.0625 -6,-6.0625 l -18.75,0 c 0.02003,0.1405871 0.0625,0.2916822 0.0625,0.4375 0,1.7498135 -1.506446,3.15625 -3.34375,3.15625 -1.837304,0 -3.3125,-1.4064365 -3.3125,-3.15625 0,-0.1454901 0.01131,-0.2972157 0.03125,-0.4375 l -1.4375,0 c 0.275667,0.6171068 0.4375,1.2846675 0.4375,2 0,2.799701 -2.331558,5.09375 -5.21875,5.09375 -2.887192,0 -5.21875,-2.294049 -5.21875,-5.09375 0,-0.7153325 0.161833,-1.3828932 0.4375,-2 L 12,5.59375 z" fill="url(#linearGradient4259)" fill-opacity="1" fill-rule="nonzero" stroke="none" inkscape:connector-curvature="0"/>
   <path d="m 22.15625,71.976795 c -1.336327,0 -2.553895,0.273707 -4.90625,1.136091 -6.272947,2.299691 -11.1875,1.537067 -11.1875,1.537067 0,0 -0.1942998,11.246342 0,13.013586 0.2624719,2.3873 5.129831,2.64929 5.129831,2.64929 0,0 62.023218,0.169361 72.466787,0.07373 3.664817,-0.03356 6.232544,-1.286491 6.301582,-2.604935 0.09108,-1.739489 0.08293,-14.567103 0.08293,-14.567103 0,0 -0.197158,0.09827 -8.262376,1.823042 -8.065218,1.724768 -11.19535,-0.0045 -18.8125,0.187121 C 55.3516,75.416323 49.515098,72.738645 35.625,72.738645 c -8.681311,0 -11.241539,-0.76185 -13.46875,-0.76185 z M 66.375,78.325546 c 3.149664,0 5.71875,1.106833 5.71875,2.472671 0,0.06745 -0.01896,0.134408 -0.03125,0.200488 0.261961,-0.0202 0.537215,-0.0401 0.8125,-0.0401 2.537229,0 4.59375,0.900972 4.59375,2.004868 0,1.103898 -2.056521,2.00487 -4.59375,2.00487 -2.410577,0 -4.371139,-0.817135 -4.5625,-1.84448 -0.607371,0.09518 -1.2555,0.147024 -1.9375,0.147024 -3.149664,0 -5.6875,-1.106834 -5.6875,-2.472672 0,-1.365838 2.537836,-2.472672 5.6875,-2.472672 z" fill="#000000" fill-opacity="1" stroke="none" opacity="0.2" inkscape:connector-curvature="0"/>
   <path d="m 22.15625,70.867884 c -1.336327,0 -2.553895,0.290168 -4.90625,1.204415 -6.272947,2.437993 -11.1875,1.629505 -11.1875,1.629505 0,0 -0.1942998,11.92269 0,13.796215 0.2624719,2.53087 5.129831,2.808616 5.129831,2.808616 0,0 62.023218,0.179546 72.466787,0.07816 3.664817,-0.03558 6.232544,-1.36386 6.301582,-2.761594 0.09108,-1.844101 0.08293,-15.443159 0.08293,-15.443159 0,0 -0.197158,0.104184 -8.262376,1.932678 -8.065218,1.828495 -11.19535,-0.0048 -18.8125,0.198375 C 55.3516,74.514263 49.515098,71.675551 35.625,71.675551 c -8.681311,0 -11.241539,-0.807667 -13.46875,-0.807667 z M 66.375,77.598445 c 3.149664,0 5.71875,1.173397 5.71875,2.621376 0,0.07151 -0.01896,0.142491 -0.03125,0.212545 0.261961,-0.02141 0.537215,-0.04251 0.8125,-0.04251 2.537229,0 4.59375,0.955156 4.59375,2.12544 0,1.170285 -2.056521,2.125441 -4.59375,2.125441 -2.410577,0 -4.371139,-0.866277 -4.5625,-1.955405 -0.607371,0.100906 -1.2555,0.155865 -1.9375,0.155865 -3.149664,0 -5.6875,-1.173398 -5.6875,-2.621376 0,-1.447979 2.537836,-2.621377 5.6875,-2.621377 z" fill="#000000" fill-opacity="1" stroke="none" opacity="0.307" inkscape:connector-curvature="0"/>
   <path d="m 22.15625,69.600557 c -1.336327,0 -2.553895,0.30898 -4.90625,1.2825 -6.272947,2.596052 -11.1875,1.735148 -11.1875,1.735148 0,0 -0.1942998,12.695659 0,14.690648 0.2624719,2.69495 5.129831,2.990703 5.129831,2.990703 0,0 62.023218,0.191186 72.466787,0.08323 3.664817,-0.03789 6.232544,-1.452282 6.301582,-2.940633 0.09108,-1.963658 0.08293,-16.444366 0.08293,-16.444366 0,0 -0.197158,0.110938 -8.262376,2.057977 -8.065218,1.947039 -11.19535,-0.0051 -18.8125,0.211236 C 55.3516,73.483337 49.515098,70.460587 35.625,70.460587 c -8.681311,0 -11.241539,-0.86003 -13.46875,-0.86003 z M 66.375,76.767472 c 3.149664,0 5.71875,1.249471 5.71875,2.791325 0,0.07614 -0.01896,0.151729 -0.03125,0.226324 0.261961,-0.0228 0.537215,-0.04526 0.8125,-0.04526 2.537229,0 4.59375,1.01708 4.59375,2.263236 0,1.246156 -2.056521,2.263236 -4.59375,2.263236 -2.410577,0 -4.371139,-0.922439 -4.5625,-2.082177 -0.607371,0.107448 -1.2555,0.16597 -1.9375,0.16597 -3.149664,0 -5.6875,-1.249471 -5.6875,-2.791324 0,-1.541854 2.537836,-2.791325 5.6875,-2.791326 z" fill="#000000" fill-opacity="1" stroke="none" opacity="0.447" inkscape:connector-curvature="0"/>
   <path d="M 18.567347,19.372418 6.8405966,9.9475033 6.6182306,19.810786 13.169319,20.468339 z" fill="url(#linearGradient4058)" fill-opacity="1" stroke="none" inkscape:connector-curvature="0"/>
   <path d="m 22.15625,67.224319 c -1.336327,0 -2.553895,0.344253 -4.90625,1.428909 -6.272947,2.892413 -11.1875,1.933229 -11.1875,1.933229 0,0 -0.1942998,14.144976 0,16.367709 0.2624719,3.002602 5.129831,3.332117 5.129831,3.332117 0,0 62.023218,0.213012 72.466787,0.09273 3.664817,-0.04221 6.232544,-1.618073 6.301582,-3.276332 0.09108,-2.187826 0.08293,-18.321628 0.08293,-18.321628 0,0 -0.197158,0.123602 -8.262376,2.292912 -8.065218,2.16931 -11.19535,-0.0057 -18.8125,0.23535 C 55.3516,71.550352 49.515098,68.182529 35.625,68.182529 c -8.681311,0 -11.241539,-0.95821 -13.46875,-0.95821 z M 66.375,75.209398 c 3.149664,0 5.71875,1.392109 5.71875,3.109978 0,0.08483 -0.01896,0.169051 -0.03125,0.252161 0.261961,-0.0254 0.537215,-0.05043 0.8125,-0.05043 2.537229,0 4.59375,1.133188 4.59375,2.521603 0,1.388416 -2.056521,2.521604 -4.59375,2.521604 -2.410577,0 -4.371139,-1.027743 -4.5625,-2.319875 -0.607371,0.119714 -1.2555,0.184917 -1.9375,0.184917 -3.149664,0 -5.6875,-1.392109 -5.6875,-3.109978 0,-1.717869 2.537836,-3.109978 5.6875,-3.109979 z" fill="url(#linearGradient4330)" fill-opacity="1" stroke="none" inkscape:connector-curvature="0"/>
   <use xlink:href="#SVGCleanerId_0" opacity="0.759" inkscape:connector-curvature="0" transform="matrix(2.12593 0 -0.29196 1.26357 3.473 -9.154)"/>
   <path d="m 50.049189,38.406171 c -0.628863,-0.146627 -1.26284,-0.250839 -1.889536,-0.319631 l -6.327852,20.293808 c 0.581738,0.212971 1.190364,0.39849 1.819226,0.545118 6.975076,1.626334 14.062816,-1.648942 15.829469,-7.314701 1.766652,-5.665761 -2.45623,-11.57826 -9.431307,-13.204594 z" fill="url(#radialGradient4302)" fill-opacity="1" stroke="none" inkscape:connector-curvature="0"/>
   <rect x="10.89" rx="5.996" y="36.597" ry="6.04" fill="url(#linearGradient4298)" fill-opacity="1" stroke="none" height="23.446" width="46.574" transform="matrix(0.93651 -0.35065 0.35065 0.93651 0 0)"/>
   <path d="M 27.455653,17.620214 11.462389,6.6037522 10.700805,18.132608 l 9.392869,0.768591 z" fill="url(#linearGradient4050)" fill-opacity="1" stroke="none" inkscape:connector-curvature="0"/>
   <use xlink:href="#SVGCleanerId_0" opacity="0.833" inkscape:connector-curvature="0" transform="matrix(1.05381 -0.40651 0.66681 1.72856 -25.455 -69.26)"/>
   <path d="M 39.13318,64.37284 C 38.617068,64.065766 38.079275,63.787897 37.533938,63.538097 L 23.613003,76.2733 c 0.446434,0.340278 0.928454,0.669172 1.444565,0.976245 5.724497,3.405928 13.517119,3.284561 17.403659,-0.270938 3.886539,-3.555498 2.39645,-9.199839 -3.328047,-12.605767 z" fill="url(#radialGradient4280)" fill-opacity="1" stroke="none" inkscape:connector-curvature="0"/>
   <path d="M 27.783059,69.100833 C 27.199351,68.716575 26.591123,68.368862 25.97436,68.056275 L 10.23019,83.992517 c 0.504904,0.425809 1.050055,0.837371 1.633762,1.221627 6.474237,4.262022 15.287468,4.110147 19.683031,-0.339037 4.395564,-4.449187 2.710315,-11.512254 -3.763924,-15.774274 z" fill="url(#radialGradient4286)" fill-opacity="1" stroke="none" inkscape:connector-curvature="0"/>
   <path d="m 11.275043,13.976591 c -1.9168195,0 -3.5305489,0.25044 -5.3722457,0.495894 l 0.056008,69.097752 c 1.8416968,0.245454 3.3994178,0.27186 5.3162377,0.27186 21.260553,0 38.498366,-15.641581 38.498366,-34.932753 0,-19.291172 -17.237813,-34.932753 -38.498366,-34.932753 z" fill="url(#linearGradient4030)" fill-opacity="1" stroke="none" inkscape:connector-curvature="0"/>
   <use xlink:href="#SVGCleanerId_1" fill="url(#radialGradient4008)" opacity="0.645" inkscape:connector-curvature="0" transform="matrix(1.45385 0 0 1 -16.982 32.32)"/>
   <use xlink:href="#SVGCleanerId_1" fill="url(#radialGradient4008)" opacity="0.645" inkscape:connector-curvature="0" transform="matrix(1.15385 0 0 1.01324 -12.515 21.843)"/>
   <use xlink:href="#SVGCleanerId_1" fill="url(#radialGradient3976)" opacity="0.452" inkscape:connector-curvature="0" transform="matrix(1.01538 0 0 0.99338 -2.947 -5.535)"/>
   <use xlink:href="#SVGCleanerId_1" fill="url(#radialGradient3976)" opacity="0.811" inkscape:connector-curvature="0" transform="matrix(1 0 0 1 2.218 7.762)"/>
   <use xlink:href="#SVGCleanerId_1" fill="url(#radialGradient3976)" opacity="0.645" inkscape:connector-curvature="0" transform="matrix(1.64615 0 0 1.1457 -16.665 13.1)"/>
   <use xlink:href="#SVGCleanerId_1" fill="url(#radialGradient4008)" opacity="0.645" inkscape:connector-curvature="0" transform="matrix(1.15385 0 0 1.01324 -17.743 16.456)"/>
   <use xlink:href="#SVGCleanerId_0" opacity="0.833" inkscape:connector-curvature="0" transform="matrix(0.90647 0 0 1.31008 -5.359 -20.759)"/>
   <use xlink:href="#SVGCleanerId_1" fill="url(#radialGradient4008)" opacity="0.645" inkscape:connector-curvature="0" transform="matrix(1.15385 0 0 1.01324 -13.782 0.773)"/>
   <path d="m 8.0600249,58.855346 c -0.6445758,0.0386 -1.2819701,0.119321 -1.9022946,0.231917 L 5.8735257,80.342841 c 0.618304,0.03842 1.2545612,0.04286 1.8991363,0.0043 7.149357,-0.428207 13.010309,-5.58696 13.089656,-11.521233 0.07935,-5.934274 -5.652935,-10.398725 -12.8022931,-9.970562 z" fill="url(#radialGradient5861)" fill-opacity="1" stroke="none" inkscape:connector-curvature="0"/>
   <use xlink:href="#SVGCleanerId_1" fill="url(#radialGradient3976)" opacity="0.952" inkscape:connector-curvature="0" transform="matrix(1.09231 0 0 1.18543 -1.046 -7.08)"/>
   <use xlink:href="#SVGCleanerId_1" fill="url(#radialGradient3976)" opacity="0.811" inkscape:connector-curvature="0" transform="matrix(1 0 0 1 1.267 -1.901)"/>
   <use xlink:href="#SVGCleanerId_1" fill="url(#radialGradient3976)" opacity="0.811" inkscape:connector-curvature="0" transform="matrix(1.31538 0 0 1.15232 -14.07 -7.187)"/>
   <use xlink:href="#SVGCleanerId_2" fill="url(#linearGradient4011)" inkscape:connector-curvature="0" transform="matrix(0.23539 0 0 0.2929 22.673 25.05)"/>
   <use xlink:href="#SVGCleanerId_2" fill="url(#linearGradient4003)" inkscape:connector-curvature="0" transform="matrix(0.25224 0 0 0.35484 10.08 23.821)"/>
   <use xlink:href="#SVGCleanerId_1" fill="url(#radialGradient4008)" opacity="0.645" inkscape:connector-curvature="0" transform="matrix(0.59231 0 0 1.35099 27.945 -0.817)"/>
   <use xlink:href="#SVGCleanerId_2" fill="#000000" inkscape:connector-curvature="0" transform="matrix(0.09625 0 0 0.12419 30.06 32.32)"/>
   <path stroke-opacity="1" d="m 23.708208,58.416247 c 0,0 8.044676,5.416759 15.945391,-8.902616" stroke-width="3.81" fill="none" stroke="#3d042b" stroke-dasharray="none" opacity="0.724" stroke-linecap="round" stroke-linejoin="miter" stroke-miterlimit="4" inkscape:connector-curvature="0"/>
   <use xlink:href="#SVGCleanerId_2" fill="#000000" inkscape:connector-curvature="0" transform="matrix(0.11284 0 0 0.14194 17.715 35.18)"/>
   <path stroke-opacity="1" d="m 23.555591,57.394246 c 0,0 8.03704,4.839926 16.030128,-8.102898" stroke-width="3.621" fill="none" stroke="#a0096f" stroke-dasharray="none" stroke-linecap="round" stroke-linejoin="miter" stroke-miterlimit="4" inkscape:connector-curvature="0"/>
   <use xlink:href="#SVGCleanerId_3" fill="#b9b9b9" opacity="0.714" inkscape:connector-curvature="0" transform="matrix(0.65153 -0.20144 0.37167 0.93656 12.69 13.843)"/>
   <path stroke-opacity="1" d="m 47.489109,6.5818235 c -0.457042,0.6626627 -0.729365,1.4000608 -0.729365,2.2109432 0,2.5547483 2.585883,4.6349893 5.771506,4.6349893 3.185623,0 5.771506,-2.080241 5.771506,-4.6349893 0,-0.8108824 -0.272323,-1.5482805 -0.729365,-2.2109432 l -10.084282,0 z" stroke-width="2.234" fill="none" stroke="url(#linearGradient12054)" stroke-dasharray="none" opacity="0.3" stroke-miterlimit="4" inkscape:connector-curvature="0"/>
   <path stroke-opacity="1" d="m 57.964676,6.2652211 c -0.01589,0.1192532 -0.03114,0.2248412 -0.03114,0.3475661 0,1.8241092 1.794374,3.301878 4.016944,3.301878 2.222571,0 4.016944,-1.4777688 4.016944,-3.301878 0,-0.1227249 -0.01525,-0.2283129 -0.03114,-0.3475661 l -7.971612,0 z" stroke-width="1.577" fill="none" stroke="url(#linearGradient12059)" stroke-dasharray="none" opacity="0.3" stroke-miterlimit="4" inkscape:connector-curvature="0"/>
   <path stroke-opacity="1" d="m 89.029703,26.455445 c 0,0 -3.615145,0.274149 -4.871287,3.603961 -0.947073,2.510527 0.316832,4.910891 1.386139,5.90099" stroke-width="1" fill="none" stroke="#ffffff" opacity="0.3" stroke-linecap="butt" stroke-linejoin="miter" inkscape:connector-curvature="0"/>
   <path stroke-opacity="1" d="m 84.951337,36.060304 c 0,0 -1.705833,1.522631 -0.905592,3.709617 1.099119,3.003787 3.467011,3.14897 4.931787,3.106619" stroke-width="0.746" fill="none" stroke="#ffffff" opacity="0.124" stroke-linecap="butt" stroke-linejoin="miter" inkscape:connector-curvature="0"/>
   <use xlink:href="#SVGCleanerId_3" fill="#000000" inkscape:connector-curvature="0" transform="matrix(0.51778 -0.17816 0.29538 0.82829 24.968 14.719)"/>
  </g>
  <rect x="-96" rx="25" y="958.36" clip-path="url(#clipPath3009)" fill="#ffffff" fill-opacity="1" height="92" opacity="0.15" width="92" transform="matrix(1 0 0 1 98 0)"/>
 </g>
</svg>
