<svg height="96" width="96" xmlns="http://www.w3.org/2000/svg" xmlns:sodipodi="http://sodipodi.sourceforge.net/DTD/sodipodi-0.dtd" xmlns:inkscape="http://www.inkscape.org/namespaces/inkscape">
 <path d="M 48.000364,20.47489 C 31.431981,20.47489 18,31.464114 18,45.020642 c 0,8.635014 5.45443,16.221106 13.692893,20.596614 -0.313294,2.280755 -1.740021,7.863549 -8.494466,9.772845 8.748197,0.95083 14.558358,-3.314858 17.642032,-6.53417 2.294118,0.459551 4.691966,0.710282 7.159177,0.710282 C 64.568019,69.566213 78,58.576988 78,45.020461 78,31.463933 64.568019,20.474708 47.999636,20.474708 z m -0.823874,9.147384 c 1.571928,3.6e-5 3.035946,0.189784 4.375053,0.568189 1.339107,0.363913 2.490758,0.906156 3.465951,1.619292 0.975194,0.698681 1.748021,1.566383 2.301119,2.585304 0.553079,1.018921 0.823846,2.170572 0.823874,3.465951 -2.3e-5,1.19356 -0.189775,2.264209 -0.568189,3.210221 -0.363905,0.946102 -0.905447,1.799294 -1.647747,2.585304 -0.742337,0.786009 -1.663384,1.518018 -2.784125,2.187481 -1.106195,0.655008 -2.407484,1.292107 -3.892047,1.903478 l -0.909102,4.062503 h -2.727306 l -0.880692,-5.51143 c 1.280833,-0.50937 2.309937,-1.10565 3.125037,-1.789749 0.815083,-0.698645 1.466018,-1.429926 1.931842,-2.215936 0.480315,-0.800519 0.819655,-1.626656 0.994376,-2.50003 0.174647,-0.873293 0.255666,-1.754203 0.255685,-2.642032 -1.6e-5,-0.713182 -0.06789,-1.378017 -0.198866,-1.960206 -0.131011,-0.596744 -0.333914,-1.112013 -0.625008,-1.534109 -0.276567,-0.436633 -0.656762,-0.761419 -1.108013,-0.994376 -0.436669,-0.232857 -0.951194,-0.340886 -1.562565,-0.340913 -0.669553,2.7e-5 -1.224924,0.14892 -1.676202,0.454551 -0.451224,0.305694 -0.831428,0.712199 -1.108013,1.221651 -0.276558,0.509461 -0.465606,1.10574 -0.596598,1.78984 -0.116447,0.684126 -0.170466,1.402289 -0.170457,2.159117 -0.917011,2.7e-5 -1.785385,-0.06782 -2.556849,-0.198866 -0.771437,-0.130975 -1.421017,-0.320722 -1.988661,-0.568189 -0.553106,-0.261967 -0.986648,-0.572898 -1.306834,-0.965921 -0.305667,-0.392968 -0.48296,-0.868047 -0.48296,-1.392017 -2e-6,-0.727736 0.189748,-1.391198 0.568189,-2.017115 0.37844,-0.640408 0.961557,-1.210378 1.73293,-1.676202 0.785982,-0.465742 1.789476,-0.817528 2.982945,-1.079559 1.19356,-0.276521 2.588213,-0.426105 4.23296,-0.426141 z m -0.255685,25.596674 c 0.49487,0 0.955375,0.05364 1.392017,0.170456 0.451205,0.116456 0.85841,0.320095 1.193196,0.596644 0.334759,0.276549 0.606235,0.64219 0.795464,1.107922 0.203757,0.451279 0.284077,1.020467 0.284095,1.704567 -1.5e-5,0.669553 -0.08034,1.225014 -0.284095,1.676202 -0.189229,0.451187 -0.460705,0.831373 -0.795464,1.107922 -0.334786,0.276549 -0.741991,0.451733 -1.193196,0.568189 -0.436669,0.131002 -0.897193,0.198911 -1.392017,0.198911 -0.509442,0 -0.969284,-0.06818 -1.420472,-0.198911 -0.451223,-0.116456 -0.858428,-0.29164 -1.193196,-0.568189 -0.320222,-0.276549 -0.577843,-0.656735 -0.767055,-1.107922 -0.189229,-0.451278 -0.284103,-1.006649 -0.284094,-1.676202 -7e-6,-0.6841 0.09486,-1.253288 0.284094,-1.704567 0.189212,-0.465732 0.446833,-0.831373 0.767055,-1.107922 0.334768,-0.276549 0.741973,-0.480188 1.193196,-0.596644 0.451206,-0.116456 0.911011,-0.170456 1.420472,-0.170456 z" fill="#37abc8" inkscape:connector-curvature="0"/>
</svg>
