<svg height="96" width="96" xmlns="http://www.w3.org/2000/svg" xmlns:xlink="http://www.w3.org/1999/xlink" xmlns:sodipodi="http://sodipodi.sourceforge.net/DTD/sodipodi-0.dtd" xmlns:inkscape="http://www.inkscape.org/namespaces/inkscape">
 <defs>
  <radialGradient cy="88.4" r="42" gradientUnits="userSpaceOnUse" id="radialGradient4020" cx="48" gradientTransform="matrix(1.52381 0 0 0.95238 -25.14 3.81)">
   <stop stop-color="#73d019" stop-opacity="1"/>
   <stop stop-color="#3a6d0a" stop-opacity="1" offset="1"/>
  </radialGradient>
  <clipPath id="clipPath4005">
   <rect x="20.838" rx="3.867" y="21.02" height="54.14" width="54.14"/>
  </clipPath>
  <linearGradient x1="98" x2="420" xlink:href="#linearGradient3657" gradientUnits="userSpaceOnUse" id="linearGradient3963" gradientTransform="matrix(0.54348 -0.94133 0.94133 0.54348 -156.67 314.83)"/>
  <linearGradient id="linearGradient3657">
   <stop stop-color="#ffffff" stop-opacity="1"/>
   <stop stop-color="#ffffff" stop-opacity="0" offset="1"/>
  </linearGradient>
  <linearGradient x1="98" x2="420" xlink:href="#linearGradient3657" gradientUnits="userSpaceOnUse" id="linearGradient3965" gradientTransform="matrix(-0.94133 0.54348 0.54348 0.94133 334.23 -173.07)"/>
  <linearGradient x1="98" x2="420" xlink:href="#linearGradient3657" gradientUnits="userSpaceOnUse" id="linearGradient3967" gradientTransform="matrix(0.94133 -0.54348 -0.54348 -0.94133 150.77 625.27)"/>
  <linearGradient x1="98" x2="420" xlink:href="#linearGradient3657" gradientUnits="userSpaceOnUse" id="linearGradient3969" gradientTransform="matrix(-0.54348 0.94133 -0.94133 -0.54348 641.67 131.38)"/>
  <radialGradient cy="226.88" r="154.36" xlink:href="#linearGradient3657" gradientUnits="userSpaceOnUse" id="radialGradient3971" cx="246.35" gradientTransform="matrix(1 -0.57734 0.12401 0.2148 -28.14 320.38)"/>
  <radialGradient cy="226.88" r="154.36" xlink:href="#linearGradient3657" gradientUnits="userSpaceOnUse" id="radialGradient3973" cx="246.35" gradientTransform="matrix(-0.57734 -1 0.2148 -0.12401 339.85 501.37)"/>
  <radialGradient cy="148.5" r="19.5" xlink:href="#linearGradient12684" gradientUnits="userSpaceOnUse" id="radialGradient3975" cx="156.5"/>
  <linearGradient id="linearGradient12684">
   <stop stop-color="#ffffff" stop-opacity="1"/>
   <stop stop-color="#ffffff" stop-opacity="0.845" offset="0.35"/>
   <stop stop-color="#ffffff" stop-opacity="0" offset="1"/>
  </linearGradient>
  <linearGradient x2="0" xlink:href="#linearGradient12684" y1="8" y2="56" gradientUnits="userSpaceOnUse" id="linearGradient4018"/>
  <linearGradient x1="70.45" x2="64.943" xlink:href="#linearGradient5537" y1="14.619" y2="14.321" gradientUnits="userSpaceOnUse" id="linearGradient4645" gradientTransform="matrix(-0.29383 -0.94083 0.64312 -0.26547 66.56 108.93)"/>
  <linearGradient id="linearGradient5537">
   <stop stop-color="#73a0d0" stop-opacity="1"/>
   <stop stop-color="#ffffff" stop-opacity="1" offset="1"/>
  </linearGradient>
  <linearGradient x1="70.45" x2="64.943" xlink:href="#linearGradient5537" y1="14.619" y2="14.321" gradientUnits="userSpaceOnUse" id="linearGradient4641" gradientTransform="matrix(-0.13821 -0.9759 0.67752 -0.15825 54.736 107.61)"/>
  <linearGradient x1="70.45" x2="64.943" xlink:href="#linearGradient5537" y1="14.619" y2="14.321" gradientUnits="userSpaceOnUse" id="linearGradient4637" gradientTransform="matrix(-0.06358 -0.98826 0.83701 -0.06967 47.38 104.47)"/>
  <linearGradient x1="70.45" x2="64.943" xlink:href="#linearGradient5537" y1="14.619" y2="14.321" gradientUnits="userSpaceOnUse" id="linearGradient4633" gradientTransform="matrix(0.10499 -0.89863 0.87344 0.0635 35.23 94.39)"/>
  <linearGradient x1="70.45" x2="64.943" xlink:href="#linearGradient5537" y1="14.619" y2="14.321" gradientUnits="userSpaceOnUse" id="linearGradient4629" gradientTransform="matrix(0.23669 -0.87323 0.85446 0.19192 26.535 88.56)"/>
  <linearGradient x1="70.45" x2="64.943" xlink:href="#linearGradient5537" y1="14.619" y2="14.321" gradientUnits="userSpaceOnUse" id="linearGradient4625" gradientTransform="matrix(0.37403 -0.92498 0.894 0.32486 17.313 87.35)"/>
  <linearGradient x1="70.45" x2="64.943" xlink:href="#linearGradient5537" y1="14.619" y2="14.321" gradientUnits="userSpaceOnUse" id="linearGradient4621" gradientTransform="matrix(0.50829 -0.85856 0.83529 0.45504 9.334 78.27)"/>
  <linearGradient x1="70.45" x2="64.943" xlink:href="#linearGradient5537" y1="14.619" y2="14.321" gradientUnits="userSpaceOnUse" id="linearGradient4617" gradientTransform="matrix(0.69014 -0.72055 0.70999 0.63299 -0.922 63.732)"/>
  <linearGradient x1="70.45" x2="64.943" xlink:href="#linearGradient5537" y1="14.619" y2="14.321" gradientUnits="userSpaceOnUse" id="linearGradient4613" gradientTransform="matrix(0.91103 -0.72799 0.70757 0.8554 -13.727 58.02)"/>
  <linearGradient x1="70.45" x2="64.943" xlink:href="#linearGradient5537" y1="14.619" y2="14.321" gradientUnits="userSpaceOnUse" id="linearGradient4609" gradientTransform="matrix(1.0381 -0.53132 0.52243 0.97951 -18.519 38.867)"/>
  <linearGradient x1="70.45" x2="64.943" xlink:href="#linearGradient5537" y1="14.619" y2="14.321" gradientUnits="userSpaceOnUse" id="linearGradient4605" gradientTransform="matrix(1.10688 -0.36711 0.36724 1.04761 -18.822 24.457)"/>
  <linearGradient x1="70.45" x2="64.943" xlink:href="#linearGradient5537" y1="14.619" y2="14.321" gradientUnits="userSpaceOnUse" id="linearGradient4601" gradientTransform="matrix(1.15181 -0.18247 0.19222 1.09335 -16.199 10.821)"/>
  <linearGradient x1="70.45" x2="64.943" xlink:href="#linearGradient5537" y1="14.619" y2="14.321" gradientUnits="userSpaceOnUse" id="linearGradient4597"/>
  <radialGradient cy="35.27" r="6.444" xlink:href="#linearGradient10381" gradientUnits="userSpaceOnUse" id="radialGradient4570" cx="63.15" gradientTransform="matrix(1.15387 0.19868 -0.36502 2.11995 2.864 -49.798)"/>
  <linearGradient id="linearGradient10381">
   <stop stop-color="#3465a4" stop-opacity="1"/>
   <stop stop-color="#3465a4" stop-opacity="0" offset="1"/>
  </linearGradient>
  <radialGradient cy="36.35" r="6.444" xlink:href="#linearGradient5537" gradientUnits="userSpaceOnUse" id="radialGradient4562" cx="67.61" gradientTransform="matrix(1.40478 0.37641 -0.60648 2.2634 -5.323 -67.03)"/>
  <linearGradient x1="61.917" x2="80.08" xlink:href="#linearGradient10381" y1="13.495" y2="16.306" gradientUnits="userSpaceOnUse" id="linearGradient4682" gradientTransform="matrix(-0.29383 -0.94083 0.64312 -0.26547 66.56 108.93)"/>
  <linearGradient x1="9.101" x2="44.04" xlink:href="#linearGradient5537" y1="69.38" y2="65.869" gradientUnits="userSpaceOnUse" id="linearGradient4146"/>
  <linearGradient x1="37.05" x2="35.18" xlink:href="#linearGradient10381" y1="71.5" y2="69.03" gradientUnits="userSpaceOnUse" id="linearGradient4148"/>
  <linearGradient x1="75.81" x2="61.811" xlink:href="#linearGradient5537" y1="55.17" y2="44.605" gradientUnits="userSpaceOnUse" id="linearGradient4708"/>
  <linearGradient x1="35.888" x2="34.26" xlink:href="#linearGradient10381" y1="70.861" y2="68.752" gradientUnits="userSpaceOnUse" id="linearGradient4128"/>
  <linearGradient x1="36.13" x2="34.32" xlink:href="#linearGradient10381" y1="71.2" y2="68.86" gradientUnits="userSpaceOnUse" id="linearGradient4106"/>
  <linearGradient x1="36.865" x2="34.861" xlink:href="#linearGradient10381" y1="71.45" y2="68.836" gradientUnits="userSpaceOnUse" id="linearGradient4116"/>
  <radialGradient cy="52.38" r="13.604" xlink:href="#linearGradient3657" gradientUnits="userSpaceOnUse" id="radialGradient4186" cx="61.48" gradientTransform="matrix(1 0 0 0.39018 0 31.94)"/>
  <linearGradient x2="0" xlink:href="#linearGradient3657" y1="178.87" y2="162.24" gradientUnits="userSpaceOnUse" id="linearGradient5020"/>
  <radialGradient cy="162.24" r="8.312" xlink:href="#linearGradient3657" gradientUnits="userSpaceOnUse" id="radialGradient5022" cx="185.18" gradientTransform="matrix(1.76593 0 0 3.0048 -141.84 -325.26)"/>
  <linearGradient x1="54.919" x2="56.41" xlink:href="#linearGradient10381" y1="46.04" y2="43.36" gradientUnits="userSpaceOnUse" id="linearGradient4461" gradientTransform="matrix(1 0 0 1 2.082 -0.099)"/>
  <linearGradient x1="79.55" x2="80.24" y1="37.4" y2="36.21" gradientUnits="userSpaceOnUse" id="linearGradient4695">
   <stop stop-color="#333333" stop-opacity="1"/>
   <stop stop-color="#8e8e8e" stop-opacity="1" offset="1"/>
  </linearGradient>
  <radialGradient cy="49.674" r="7.237" gradientUnits="userSpaceOnUse" id="radialGradient4379" cx="49.605" gradientTransform="matrix(-0.85466 1.48031 -1.29311 -0.74658 156.59 10.982)">
   <stop stop-color="#afc9e4" stop-opacity="1"/>
   <stop stop-color="#d7e4f1" stop-opacity="1" offset="0.608"/>
   <stop stop-color="#ffffff" stop-opacity="0" offset="1"/>
  </radialGradient>
  <linearGradient x1="20.933" x2="26.543" xlink:href="#linearGradient5537" y1="25.305" y2="21.17" gradientUnits="userSpaceOnUse" id="linearGradient4375" gradientTransform="matrix(-0.27888 -0.30701 0.48236 -0.1842 41.614 61.2)"/>
  <linearGradient x1="21.773" x2="25.606" xlink:href="#linearGradient5537" y1="25.738" y2="21.657" gradientUnits="userSpaceOnUse" id="linearGradient4377" gradientTransform="matrix(-0.14252 -0.62767 0.45739 0.00943 37.19 63.41)"/>
  <linearGradient x1="23.04" x2="26.25" xlink:href="#linearGradient5537" y1="25.916" y2="22.725" gradientUnits="userSpaceOnUse" id="linearGradient4333" gradientTransform="matrix(-0.07073 -0.63975 0.4534 0.06101 33.05 62.59)"/>
  <linearGradient x1="23.04" x2="26.25" xlink:href="#linearGradient5537" y1="25.916" y2="22.725" gradientUnits="userSpaceOnUse" id="linearGradient4329" gradientTransform="matrix(-0.09287 -0.69074 0.5953 0.06588 28.356 62.824)"/>
  <linearGradient x1="22.78" x2="26.08" xlink:href="#linearGradient5537" y1="26.21" y2="22.998" gradientUnits="userSpaceOnUse" id="linearGradient4325" gradientTransform="matrix(-0.04135 -0.7568 0.64742 0.12423 23.07 62.771)"/>
  <linearGradient x1="22.78" x2="25.83" xlink:href="#linearGradient5537" y1="26.21" y2="23.1" gradientUnits="userSpaceOnUse" id="linearGradient4321" gradientTransform="matrix(0.05521 -0.75591 0.62637 0.20554 19.14 59.64)"/>
  <linearGradient x1="22.78" x2="25.573" xlink:href="#linearGradient5537" y1="26.21" y2="23.12" gradientUnits="userSpaceOnUse" id="linearGradient4317" gradientTransform="matrix(0.16129 -0.71515 0.70287 0.26189 13.609 55.778)"/>
  <linearGradient x1="22.78" x2="25.573" xlink:href="#linearGradient5537" y1="26.21" y2="23.12" gradientUnits="userSpaceOnUse" id="linearGradient4313" gradientTransform="matrix(0.24118 -0.69231 0.66871 0.33974 10.673 51.42)"/>
  <linearGradient x1="22.78" x2="25.573" xlink:href="#linearGradient5537" y1="26.21" y2="23.12" gradientUnits="userSpaceOnUse" id="linearGradient4309" gradientTransform="matrix(0.36941 -0.63324 0.5912 0.46162 7.409 46.03)"/>
  <linearGradient x1="22.78" x2="25.573" xlink:href="#linearGradient5537" y1="26.21" y2="23.12" gradientUnits="userSpaceOnUse" id="linearGradient4305" gradientTransform="matrix(0.45669 -0.57349 0.51862 0.54189 5.36 40.667)"/>
  <linearGradient x1="21.886" x2="25.08" xlink:href="#linearGradient5537" y1="27.666" y2="23.701" gradientUnits="userSpaceOnUse" id="linearGradient4301" gradientTransform="matrix(0.70482 -0.48371 0.5305 0.62505 -1.61 34.19)"/>
  <linearGradient x1="21.886" x2="25.08" xlink:href="#linearGradient5537" y1="27.666" y2="23.701" gradientUnits="userSpaceOnUse" id="linearGradient4297" gradientTransform="matrix(0.82532 -0.37796 0.3875 0.79638 -2.835 25.1)"/>
  <linearGradient x1="21.886" x2="25.08" xlink:href="#linearGradient5537" y1="27.666" y2="23.701" gradientUnits="userSpaceOnUse" id="linearGradient4293" gradientTransform="matrix(0.86951 -0.26068 0.27412 0.84216 -2.883 17.907)"/>
  <linearGradient x1="21.886" x2="25.08" xlink:href="#linearGradient5537" y1="27.666" y2="23.701" gradientUnits="userSpaceOnUse" id="linearGradient4289" gradientTransform="matrix(0.98577 -0.16808 0.16808 0.98577 -3.536 9.227)"/>
  <linearGradient x1="21.886" x2="25.08" xlink:href="#linearGradient5537" y1="27.666" y2="23.701" gradientUnits="userSpaceOnUse" id="linearGradient4285"/>
  <linearGradient x1="23.58" x2="27.459" xlink:href="#linearGradient5537" y1="25.361" y2="22.288" gradientUnits="userSpaceOnUse" id="linearGradient4277"/>
  <linearGradient x1="11" x2="62.59" xlink:href="#linearGradient5537" y1="45.35" y2="38.611" gradientUnits="userSpaceOnUse" id="linearGradient4544"/>
  <linearGradient x1="49.875" x2="45.741" xlink:href="#linearGradient3657" y1="37.608" y2="41.672" gradientUnits="userSpaceOnUse" id="linearGradient4392"/>
  <clipPath clipPathUnits="userSpaceOnUse" id="clipPath4598">
   <rect x="6" rx="22.826" y="6" height="84" width="84"/>
  </clipPath>
  <clipPath clipPathUnits="userSpaceOnUse" id="clipPath3009">
   <path d="m -2,956.36218 -96,0 0,33.5624 96,25.68742 0,-59.24982 z" inkscape:connector-curvature="0"/>
  </clipPath>
  <path d="m 43.167636,60.56598 c -3.775731,3.127771 -7.236255,5.584507 -10.405228,8.506977 -0.570598,0.526213 -0.479778,2.752203 1.124889,2.038862 4.399219,-1.955635 6.150727,-5.384489 9.983395,-9.913089 0.558385,-0.659776 -0.460255,-0.833883 -0.703056,-0.63275 z" fill-opacity="1" stroke="none" id="SVGCleanerId_0"/>
  <path d="m 75.086375,52.375378 a 13.604133,5.3080726 0 1 1 -27.208265,0 13.604133,5.3080726 0 1 1 27.208265,0 z" fill="url(#radialGradient4186)" color="#000000" fill-opacity="1" stroke="none" fill-rule="nonzero" id="SVGCleanerId_1" visibility="visible"/>
  <path d="m 193.49611,170.55585 a 8.31169,8.31169 0 1 1 -16.62338,0 8.31169,8.31169 0 1 1 16.62338,0 z" fill-opacity="1" stroke="none" id="SVGCleanerId_2"/>
  <path d="m 176,148.5 a 19.5,19.5 0 1 1 -39,0 19.5,19.5 0 1 1 39,0 z" fill="url(#radialGradient3975)" fill-opacity="1" stroke="none" id="SVGCleanerId_3"/>
  <path d="m 35.928119,63.805674 c -3.775731,3.127771 0.0033,2.344813 -3.165711,5.267283 -0.570598,0.526213 -0.479778,2.752203 1.124889,2.038862 4.399219,-1.955635 6.150727,-5.384489 9.983395,-9.913089 0.558385,-0.659776 -7.699772,2.405811 -7.942573,2.606944 z" fill="url(#linearGradient4148)" fill-opacity="1" stroke="none" id="SVGCleanerId_4"/>
 </defs>
 <g inkscape:label="Layer 1" inkscape:groupmode="layer" transform="matrix(1 0 0 1 0 -956.36)">
  <g display="inline" clip-path="url(#clipPath4598)" transform="matrix(1.09524 0 0 1.09524 -4.571 951.79)">
   <rect x="6" rx="6" y="6" fill="url(#radialGradient4020)" fill-opacity="1" fill-rule="nonzero" stroke="none" height="84" width="84"/>
   <g clip-path="url(#clipPath4005)" transform="matrix(1.55157 0 0 1.55157 -26.332 -26.619)">
    <g opacity="0.5" transform="matrix(0.1787 0 0 0.1787 4.406 8.393)">
     <path d="m 201.58219,398.66524 c 0,0 -175.98576,-177.96619 32.57947,-358.777143 C -1.634599,220.03851 202.12567,397.72391 201.58219,398.66524 z" fill="url(#linearGradient3963)" fill-opacity="1" fill-rule="evenodd" stroke="none" inkscape:connector-curvature="0"/>
     <path d="m 418.06183,185.18557 c 0,0 -177.96626,-175.9856903 -358.777135,32.57961 C 239.43502,-18.031148 417.12049,185.72905 418.06183,185.18557 z" fill="url(#linearGradient3965)" fill-opacity="1" fill-rule="evenodd" stroke="none" inkscape:connector-curvature="0"/>
     <path d="m 66.93794,267.02123 c 0,0 177.96626,175.98569 358.77713,-32.57961 C 245.56475,470.23795 67.879272,266.47776 66.93794,267.02123 z" fill="url(#linearGradient3967)" fill-opacity="1" fill-rule="evenodd" stroke="none" inkscape:connector-curvature="0"/>
     <path d="m 283.41758,47.541558 c 0,0 175.98575,177.966182 -32.57947,358.777142 C 486.63436,226.16829 282.8741,48.482895 283.41758,47.541558 z" fill="url(#linearGradient3969)" fill-opacity="1" fill-rule="evenodd" stroke="none" inkscape:connector-curvature="0"/>
     <path d="M 92,316 C 92,316 262.42047,243.53212 400.71024,137.76606 239,206 91,316 92,316 z" fill="url(#radialGradient3971)" fill-opacity="1" fill-rule="evenodd" stroke="none" inkscape:connector-curvature="0"/>
     <path d="m 335.46957,381.23563 c 0,0 -72.46788,-170.42047 -178.23394,-308.710239 68.23394,161.710239 178.23394,309.710239 178.23394,308.710239 z" fill="url(#radialGradient3973)" fill-opacity="1" fill-rule="evenodd" stroke="none" inkscape:connector-curvature="0"/>
    </g>
    <use xlink:href="#SVGCleanerId_3" inkscape:connector-curvature="0" transform="matrix(0.33448 0 0 0.33448 -3.892 -0.625)"/>
    <use xlink:href="#SVGCleanerId_3" inkscape:connector-curvature="0" transform="matrix(0.1787 0 0 0.1787 0.832 33.589)"/>
    <use xlink:href="#SVGCleanerId_3" inkscape:connector-curvature="0" transform="matrix(0.14204 0 0 0.14204 9.07 44.929)"/>
    <use xlink:href="#SVGCleanerId_3" inkscape:connector-curvature="0" transform="matrix(0.08706 0 0 0.08706 11.242 49.699)"/>
    <use xlink:href="#SVGCleanerId_3" inkscape:connector-curvature="0" transform="matrix(0.1787 0 0 0.1787 30.496 40.2)"/>
    <use xlink:href="#SVGCleanerId_3" inkscape:connector-curvature="0" transform="matrix(0.14204 0 0 0.14204 41.951 44.21)"/>
    <use xlink:href="#SVGCleanerId_3" inkscape:connector-curvature="0" transform="matrix(0.08706 0 0 0.08706 46.45 57.919)"/>
    <use xlink:href="#SVGCleanerId_3" inkscape:connector-curvature="0" transform="matrix(0.1787 0 0 0.1787 9.946 4.104)"/>
    <use xlink:href="#SVGCleanerId_3" inkscape:connector-curvature="0" transform="matrix(0.14204 0 0 0.14204 9.07 11.691)"/>
    <use xlink:href="#SVGCleanerId_3" inkscape:connector-curvature="0" transform="matrix(0.08706 0 0 0.08706 21.785 13.423)"/>
    <use xlink:href="#SVGCleanerId_3" inkscape:connector-curvature="0" transform="matrix(0.08706 0 0 0.08706 58.06 22.537)"/>
    <use xlink:href="#SVGCleanerId_3" inkscape:connector-curvature="0" transform="matrix(0.1787 0 0 0.1787 38.894 11.252)"/>
    <use xlink:href="#SVGCleanerId_3" inkscape:connector-curvature="0" transform="matrix(0.14204 0 0 0.14204 42.844 10.977)"/>
   </g>
   <path d="M 12,6 C 8.676,6 6,8.676 6,12 L 6,40.46875 C 17.823196,45.195558 32.321498,48 48,48 63.678502,48 78.176804,45.195558 90,40.46875 L 90,12 C 90,8.676 87.324,6 84,6 L 12,6 z" fill="url(#linearGradient4018)" fill-opacity="1" fill-rule="nonzero" stroke="none" opacity="0.6" inkscape:connector-curvature="0"/>
   <path d="m 63.212585,39.351952 c -0.318769,0.131575 -8.054915,2.261889 -12.677501,3.653686 -2.712774,0.81682 -1.022297,4.14792 1.296354,3.724862 2.493339,-0.45493 11.910942,-5.912625 11.910942,-5.912625 l -0.529795,-1.465923 z" fill="url(#linearGradient4645)" fill-opacity="1" stroke="none" inkscape:connector-curvature="0"/>
   <path d="m 62.65619,38.401649 c -0.335819,0.07843 -8.314296,0.932891 -13.100857,1.56077 -2.80901,0.368512 -1.678027,3.928683 0.678502,3.885198 2.53407,-0.04676 12.708737,-3.91378 12.708737,-3.91378 L 62.65619,38.401649 z" fill="url(#linearGradient4641)" fill-opacity="1" stroke="none" inkscape:connector-curvature="0"/>
   <path d="m 64.327837,36.672813 c -0.41487,0.03453 -10.164201,-0.148378 -16.025411,-0.143504 -3.439675,0.0029 -2.448979,3.689265 0.408388,3.950994 3.072639,0.281449 15.80084,-2.246921 15.80084,-2.246921 l -0.183817,-1.560569 z" fill="url(#linearGradient4637)" fill-opacity="1" stroke="none" inkscape:connector-curvature="0"/>
   <path d="m 64.355536,35.953668 c -0.432929,-0.03147 -10.435192,-1.665649 -16.468266,-2.544791 -3.540534,-0.515927 -3.156664,2.949715 -0.261058,3.615892 3.113758,0.716367 16.64938,0.360503 16.64938,0.360503 l 0.07994,-1.431604 z" fill="url(#linearGradient4633)" fill-opacity="1" stroke="none" inkscape:connector-curvature="0"/>
   <path d="m 63.983484,35.072144 c -0.423519,-0.09513 -10.074293,-3.190022 -15.91111,-4.951396 -3.42536,-1.033669 -3.558047,2.450642 -0.792741,3.537568 2.973642,1.168815 16.413146,2.817884 16.413146,2.817884 l 0.290705,-1.404056 z" fill="url(#linearGradient4629)" fill-opacity="1" stroke="none" inkscape:connector-curvature="0"/>
   <path d="M 64.939677,33.778564 C 64.49656,33.617547 54.183461,29.609683 48.480212,26.220042 c -3.38696,-2.012988 -4.166075,2.207788 -1.336353,3.769469 3.042911,1.679337 17.291195,5.288359 17.291195,5.288359 l 0.504623,-1.499306 z" fill="url(#linearGradient4625)" fill-opacity="1" stroke="none" inkscape:connector-curvature="0"/>
   <path d="M 64.44467,32.430024 C 64.030653,32.204482 54.433812,26.697793 49.30231,22.49251 c -3.047419,-2.49737 -4.449654,1.559194 -1.885626,3.526918 2.757199,2.11597 16.304586,7.817456 16.304586,7.817456 l 0.7234,-1.40686 z" fill="url(#linearGradient4621)" fill-opacity="1" stroke="none" inkscape:connector-curvature="0"/>
   <path d="m 63.165621,31.616378 c -0.351913,-0.313745 -7.9204,-8.30667 -12.487158,-13.119303 -3.001737,-3.163349 -4.079437,0.954295 -2.63795,3.005987 1.998029,2.843828 14.100859,11.318919 14.100859,11.318919 l 1.024249,-1.205603 z" fill="url(#linearGradient4617)" fill-opacity="1" stroke="none" inkscape:connector-curvature="0"/>
   <path d="m 65.058132,31.041559 c -0.350713,-0.423981 -7.685297,-10.99617 -12.112629,-17.363395 -2.910092,-4.1851859 -4.832834,0.445032 -3.524364,3.076588 1.813655,3.647569 14.262146,15.52626 14.262146,15.52626 l 1.374847,-1.239453 z" fill="url(#linearGradient4613)" fill-opacity="1" stroke="none" inkscape:connector-curvature="0"/>
   <path d="M 64.06838,28.167673 C 63.809435,27.682177 58.778122,15.839018 55.668541,8.7345571 54.539638,6.1553523 51.02739,6.0860068 51.562892,10.733878 c 0.834551,7.24345 10.910752,18.373616 10.910752,18.373616 l 1.594736,-0.939821 z" fill="url(#linearGradient4609)" fill-opacity="1" stroke="none" inkscape:connector-curvature="0"/>
   <path d="M 64.432108,26.454078 C 64.250081,25.934823 61.080133,13.463819 59.088212,5.9688144 58.365064,3.2478262 54.533468,2.4229307 55.06527,7.0712261 55.895427,14.327334 62.712898,27.140201 62.712898,27.140201 l 1.71921,-0.686123 z" fill="url(#linearGradient4605)" fill-opacity="1" stroke="none" inkscape:connector-curvature="0"/>
   <path d="M 65.625471,26.31315 C 65.530195,25.771225 63.947595,12.982503 63.679599,5.2319535 63.622133,3.570006 59.643669,-0.73385137 59.531024,5.6663504 59.398395,12.968589 63.817652,26.710941 63.817652,26.710941 l 1.807819,-0.397791 z" fill="url(#linearGradient4601)" fill-opacity="1" stroke="none" inkscape:connector-curvature="0"/>
   <path d="m 66.81422,25.319676 c 0,-0.495655 0.562363,-12.098627 1.486964,-19.0331321 C 68.499446,4.7995805 66.320033,0.77147275 64.732472,6.0882822 62.84896,12.396241 65.228126,25.418806 65.228126,25.418806 l 1.586094,-0.09913 z" fill="url(#linearGradient4597)" fill-opacity="1" stroke="none" inkscape:connector-curvature="0"/>
   <path d="m 66.71875,19.28125 -0.5,4.65625 -1,-3.1875 -0.1875,3.78125 -1.5,-3.375 0.3125,3.5625 -2,-2.875 0.8125,3.46875 -2.28125,-1.1875 1.46875,2.1875 -2.65625,-0.6875 2.28125,1.78125 -3.5625,-0.59375 2.875,1.875 -2.59375,0.09375 2.1875,1.09375 -3.0625,0.3125 2.46875,0.875 -3.28125,0.40625 2.28125,1 -2.96875,0.28125 2.96875,0.8125 -2.5625,0.59375 2.65625,0.59375 -3.375,0.875 2.78125,0.5 -3.375,1 3.28125,0.375 -3.375,1.09375 2.96875,0.3125 -2.65625,1.1875 2.65625,0 -2.0625,1.1875 2.375,-0.1875 -1.875,1.5625 2.5625,-0.78125 -1.1875,1.96875 7.03125,-1.1875 c 0,0 0.318086,-8.303182 3.09375,-13.65625 -0.793047,-3.172189 -1,-9.71875 -1,-9.71875 z" fill="url(#radialGradient4570)" fill-opacity="1" stroke="none" opacity="0.4" inkscape:connector-curvature="0" transform="matrix(1.15674 0 0 1.113 -10.615 -4.955)"/>
   <path d="m 64.633341,42.66758 c 0.198262,-7.533948 3.073058,-11.300921 3.073057,-13.680062 -0.793047,-3.172189 -0.991309,-9.714827 -0.991309,-9.714827 l -0.495654,4.659151 -0.991309,-3.172188 -0.198262,3.766974 -1.486963,-3.37045 0.297393,3.568712 -1.982618,-2.874796 0.793046,3.469581 -2.28001,-1.189571 1.486964,2.18088 -2.676534,-0.693916 2.280011,1.784356 -3.568713,-0.594785 2.874796,1.883486 -2.577403,0.09913 2.180879,1.09044 -3.073057,0.297393 2.478272,0.892178 -3.271319,0.396523 2.28001,0.991309 -2.973927,0.297393 2.973927,0.793047 -2.577403,0.594785 2.676534,0.594786 -3.37045,0.892178 2.775665,0.495654 -3.370451,0.991309 3.27132,0.396524 -3.37045,1.090439 2.973926,0.297393 -2.676534,1.189571 2.676534,0 -2.081748,1.18957 2.379141,-0.198261 -1.883487,1.586094 2.577403,-0.793047 -1.189571,1.982618 7.038294,-1.189571 z" fill="url(#radialGradient4562)" fill-opacity="1" stroke="none" inkscape:connector-curvature="0"/>
   <path d="m 67.625,28.5625 c 0,0 -4.097061,8.545526 -4.592715,12.510762 L 64.65625,41.71875 C 65.0589,34.822802 67.718751,31.275463 67.71875,29 67.686443,28.87077 67.65536,28.702247 67.625,28.5625 z" fill="#000000" stroke="none" opacity="0.1" inkscape:connector-curvature="0"/>
   <path d="M 60.875,2.28125 C 60.156129,2.3746 59.573492,3.2561743 59.53125,5.65625 59.51783,6.3952534 59.55448,7.2124978 59.625,8.0625 59.449546,7.3957955 59.255847,6.5786723 59.09375,5.96875 58.370602,3.2477618 54.530698,2.4142046 55.0625,7.0625 c 0.03154,0.2756651 0.07688,0.5843021 0.125,0.875 -1.410571,-1.7373042 -4.09825,-1.3263062 -3.625,2.78125 0.06654,0.577519 0.200757,1.193177 0.375,1.8125 -2.318612,-1.94131 -3.681272,1.905859 -2.53125,4.21875 0.200498,0.403236 0.570749,0.922747 1,1.5 -2.790875,-2.632496 -3.771441,1.262423 -2.375,3.25 0.08561,0.121854 0.22278,0.264828 0.34375,0.40625 -2.239511,-0.982683 -3.151212,2.001836 -1.3125,3.8125 -2.092525,-0.202863 -2.27459,2.875083 0,4.21875 -2.206481,-0.09859 -2.251242,2.293264 -0.34375,3.4375 -2.01005,0.31465 -1.696514,2.583795 0.25,3.4375 -1.650203,0.818987 -0.724107,3.239267 1.46875,3.625 -1.051737,0.89602 -0.434302,2.756256 0.96875,3.28125 -0.916938,1.255021 0.570986,3.340562 2.4375,3 1.221938,-0.222952 4.09424,-1.636449 6.71875,-3.03125 l 6.0625,-1.03125 c 0.0086,-0.328314 0.0129,-0.623296 0.03125,-0.9375 0.0082,-0.140094 0.02125,-0.268903 0.03125,-0.40625 0.03195,-0.442023 0.07621,-0.898164 0.125,-1.3125 0.04879,-0.414336 0.124575,-0.799689 0.1875,-1.1875 0.0088,-0.05415 0.02222,-0.102601 0.03125,-0.15625 0.08288,-0.484086 0.149979,-0.962022 0.25,-1.40625 0.03425,-0.152128 0.08917,-0.289863 0.125,-0.4375 0.122427,-0.509738 0.239857,-1.010061 0.375,-1.46875 0.116878,-0.393464 0.25479,-0.735142 0.375,-1.09375 0.04459,-0.134435 0.0805,-0.27648 0.125,-0.40625 0.370257,-1.068516 0.698695,-1.988928 0.96875,-2.78125 0.01145,-0.03382 0.02014,-0.06036 0.03125,-0.09375 0.124366,-0.369859 0.239297,-0.710637 0.3125,-1.03125 0.0024,-0.01043 -0.0023,-0.02087 0,-0.03125 0.03676,-0.164118 0.07417,-0.31609 0.09375,-0.46875 0.0211,-0.16012 0.03125,-0.288804 0.03125,-0.4375 -0.03231,-0.12923 -0.06339,-0.297753 -0.09375,-0.4375 -0.05198,-0.23928 -0.109763,-0.485216 -0.15625,-0.75 0.08309,-0.16648 0.162762,-0.338117 0.25,-0.5 -0.338161,-1.301498 -0.605371,-3.105921 -0.78125,-4.875 0.217565,-3.964954 0.713902,-11.198019 1.375,-16.15625 C 68.510762,4.7942866 66.306311,0.77694055 64.71875,6.09375 64.301969,7.489565 64.102556,9.2229817 64.03125,11.0625 63.869089,8.9990566 63.747975,6.9677122 63.6875,5.21875 63.651584,4.1800328 62.073118,2.1256661 60.875,2.28125 z" fill="url(#linearGradient4682)" fill-opacity="1" stroke="none" opacity="0.3" inkscape:connector-curvature="0"/>
   <g transform="matrix(0.58697 0.03942 -0.07865 1.21024 26.636 -11.588)">
    <use xlink:href="#SVGCleanerId_0" fill="url(#linearGradient4146)" inkscape:connector-curvature="0"/>
    <use xlink:href="#SVGCleanerId_4" inkscape:connector-curvature="0"/>
   </g>
   <path d="M 74.297393,32.198262 C 70.132716,32.198262 68.316298,35.884599 65,38 59.996451,41.191665 54.647138,44.750354 50.504346,49 44.231142,55.435006 41.337581,63.088544 41.337581,63.088544 l 5.055675,3.766974 c 6.046985,-3.172188 10.000873,-1.937419 17.248776,-7.633078 5.307627,-4.170921 6.899077,-11.6091 10.111351,-17.546168 2.021341,-3.735933 4.947396,-3.640817 5.353068,-5.154806 0,0 -0.338266,-4.323204 -4.809058,-4.323204 z" fill="url(#linearGradient4708)" fill-opacity="1" stroke="none" inkscape:connector-curvature="0"/>
   <path d="m 78,33.84375 c 0.02142,0.05009 0.702663,1.594206 0.625,1.90625 -0.08187,0.328947 -0.534315,0.05783 -0.90625,0.71875 -0.161083,0.286242 0.24628,0.620968 -0.03125,1.0625 -0.252581,0.401835 -1.273184,1.137086 -1.46875,1.28125 1.386389,-1.017292 2.621455,-1.335007 2.875,-2.28125 0,0 -0.111068,-1.461773 -1.09375,-2.6875 z" fill="#729fcf" fill-opacity="1" stroke="none" inkscape:connector-curvature="0"/>
   <path d="m 78.96875,35.84375 c -0.714782,1.197598 -3.353552,1.396407 -5.21875,4.84375 -3.212274,5.937068 -4.786123,13.360329 -10.09375,17.53125 -10.111351,7.137424 -12.491717,4.858026 -17.25,8.625 6.046985,-3.172188 10.002097,-1.929341 17.25,-7.625 5.307627,-4.170921 6.881476,-11.594182 10.09375,-17.53125 2.021341,-3.735933 4.938078,-3.642261 5.34375,-5.15625 0,0 -0.02343,-0.2822 -0.125,-0.6875 z" fill="#000000" fill-opacity="1" stroke="none" opacity="0.2" inkscape:connector-curvature="0"/>
   <path d="m 78.526112,34.679419 c 0.984278,1.195196 3.199222,1.760492 3.058611,4.221188 0,0 -1.879268,-1.214881 -4.972715,-0.441519 0,0 0.188024,-0.06565 0.451384,-0.206962 0.26336,-0.141314 0.602058,-0.358295 0.903405,-0.660961 0.301348,-0.302665 -0.481759,-1.339224 0.679306,-1.524105 0.491101,-0.0782 -0.0705,-0.801886 -0.119991,-1.387641 z" fill="#222222" fill-opacity="1" stroke="none" inkscape:connector-curvature="0"/>
   <use xlink:href="#SVGCleanerId_0" fill="url(#linearGradient4146)" inkscape:connector-curvature="0"/>
   <use xlink:href="#SVGCleanerId_0" fill="url(#linearGradient4128)" inkscape:connector-curvature="0"/>
   <g transform="matrix(1.15162 0 0 1.22207 -6.255 -12.03)">
    <use xlink:href="#SVGCleanerId_0" fill="url(#linearGradient4146)" inkscape:connector-curvature="0"/>
    <use xlink:href="#SVGCleanerId_0" fill="url(#linearGradient4106)" inkscape:connector-curvature="0"/>
   </g>
   <g transform="matrix(0.85173 0.16786 -0.29695 1.51232 25.08 -35.598)">
    <use xlink:href="#SVGCleanerId_0" fill="url(#linearGradient4146)" inkscape:connector-curvature="0"/>
    <use xlink:href="#SVGCleanerId_0" fill="url(#linearGradient4116)" inkscape:connector-curvature="0"/>
   </g>
   <g transform="matrix(0.73377 0.14309 -0.29172 1.51334 30.369 -33.577)">
    <use xlink:href="#SVGCleanerId_0" fill="url(#linearGradient4146)" inkscape:connector-curvature="0"/>
    <use xlink:href="#SVGCleanerId_0" fill="url(#linearGradient4148)" inkscape:connector-curvature="0"/>
   </g>
   <g transform="matrix(0.73882 0.1142 -0.23213 1.52361 28.671 -34.27)">
    <use xlink:href="#SVGCleanerId_0" fill="url(#linearGradient4146)" inkscape:connector-curvature="0"/>
    <use xlink:href="#SVGCleanerId_4" inkscape:connector-curvature="0"/>
   </g>
   <use stroke-width="1" xlink:href="#SVGCleanerId_1" inkscape:connector-curvature="0" transform="matrix(0.87062 -0.7739 0.79969 0.83942 -35.904 54.3)"/>
   <use stroke-width="1.578" xlink:href="#SVGCleanerId_1" inkscape:connector-curvature="0" transform="matrix(0.4185 -0.32158 0.38441 0.34881 24.2 39.826)"/>
   <path d="m 73.439232,33.6656 c 0,0 2.763695,-1.214322 3.554615,1.737432 -2.799232,0.750052 -0.703185,-2.501469 -3.554615,-1.737432 z" fill="#729fcf" fill-opacity="1" fill-rule="evenodd" stroke="none" inkscape:connector-curvature="0"/>
   <use xlink:href="#SVGCleanerId_2" fill="#000000" inkscape:connector-curvature="0" transform="matrix(0.13231 0.03545 -0.03545 0.13231 56.734 5.64)"/>
   <use xlink:href="#SVGCleanerId_2" fill="url(#linearGradient5020)" inkscape:connector-curvature="0" transform="matrix(0.05217 0.01398 -0.00651 0.02429 66.47 28.671)"/>
   <use xlink:href="#SVGCleanerId_2" fill="url(#radialGradient5022)" inkscape:connector-curvature="0" transform="matrix(0.08237 0.02207 -0.01242 0.04636 62.17 22.35)"/>
   <path d="m 58,42.6875 c -0.673689,0.485938 -1.343681,0.994436 -2,1.5 l -0.1875,0.25 7.9375,2 -5.75,-3.75 z" fill="url(#linearGradient4461)" fill-opacity="1" stroke="none" opacity="0.8" inkscape:connector-curvature="0"/>
   <path d="m 78.53125,34.6875 c 0.04949,0.585755 0.616101,1.2968 0.125,1.375 -0.656585,0.104551 -0.726672,0.481219 -0.6875,0.84375 1.798766,0.222316 3.222837,0.981375 3.59375,1.96875 0.01038,0.0087 0.02109,0.02232 0.03125,0.03125 0.140611,-2.460696 -2.078222,-3.023554 -3.0625,-4.21875 z" fill="url(#linearGradient4695)" fill-opacity="1" stroke="none" inkscape:connector-curvature="0"/>
   <path d="m 81.595154,38.890964 c -0.378456,-1.715668 -3.607953,-2.283352 -3.607953,-2.283352 l 0.06308,0.643376 c 0,0 1.81659,-10e-7 3.544873,1.639976 z" fill="#000000" stroke="none" opacity="0.5" inkscape:connector-curvature="0"/>
   <path d="m 44.906293,52.679801 c 1.982618,2.874797 2.99871,-2.602187 6.939163,-0.421306 2.398232,1.327323 5.055675,3.09784 5.055675,3.09784 L 59.379404,48.11978 48.475006,42.865843 c 0,0 -2.478273,4.064366 -3.568713,9.813958 z" fill="url(#radialGradient4379)" fill-opacity="1" stroke="none" inkscape:connector-curvature="0"/>
   <path d="m 47.054891,43.051577 c 0,0 -3.008527,7.337926 -3.593378,9.16057 -0.660196,2.057451 0.732639,2.183745 2.10546,0.261758 1.823871,-2.553471 2.144652,-9.550142 2.144652,-9.550142 l -0.656734,0.127814 z" fill="url(#linearGradient4375)" fill-opacity="1" stroke="none" inkscape:connector-curvature="0"/>
   <path d="m 47.091034,39.334822 c 0,0 -4.677718,9.254137 -5.703869,11.649252 -1.158347,2.703667 -0.03166,3.721279 1.68225,1.644861 2.277029,-2.758642 4.608108,-13.096232 4.608108,-13.096232 l -0.586489,-0.197881 z" fill="url(#linearGradient4377)" fill-opacity="1" stroke="none" inkscape:connector-curvature="0"/>
   <path d="m 45.606217,39.791913 c 0,0 -5.692765,8.666749 -6.982806,10.930674 -1.456233,2.555576 -0.451657,3.693903 1.485755,1.824298 2.573968,-2.48388 6.057445,-12.492131 6.057445,-12.492131 l -0.560394,-0.262841 z" fill="url(#linearGradient4333)" fill-opacity="1" stroke="none" inkscape:connector-curvature="0"/>
   <path d="m 44.836056,38.205818 c 0,0 -7.474315,9.357512 -9.168074,11.801877 -1.91196,2.759262 -0.593002,3.988317 1.950722,1.9697 3.37949,-2.681852 7.953121,-13.487787 7.953121,-13.487787 l -0.735769,-0.28379 z" fill="url(#linearGradient4329)" fill-opacity="1" stroke="none" inkscape:connector-curvature="0"/>
   <path d="m 43.311109,37.554494 c 0,0 -8.707622,9.775262 -11.094422,11.975872 -1.447642,1.333531 0.58576,3.575585 1.967762,2.307725 3.483089,-3.195408 9.909108,-13.91074 9.909108,-13.91074 l -0.782448,-0.372857 z" fill="url(#linearGradient4325)" fill-opacity="1" stroke="none" inkscape:connector-curvature="0"/>
   <path d="m 42.421082,37.200993 c 0,0 -9.808383,8.693714 -12.527021,10.468117 -2.200226,1.436046 0.02727,3.42278 1.658385,2.539182 4.156146,-2.251441 11.597328,-12.537986 11.597328,-12.537986 l -0.728692,-0.469313 z" fill="url(#linearGradient4321)" fill-opacity="1" stroke="none" inkscape:connector-curvature="0"/>
   <path d="m 43.59512,36.825276 c 0,0 -12.701789,6.955792 -15.927899,8.666968 -1.916119,1.016337 0.376357,3.169481 1.604881,2.596111 C 34.092009,45.838833 44.38326,37.349497 44.38326,37.349497 l -0.78814,-0.524221 z" fill="url(#linearGradient4317)" fill-opacity="1" stroke="none" inkscape:connector-curvature="0"/>
   <path d="m 42.6111,35.979107 c 0,0 -13.333186,5.680596 -16.806353,6.808877 -2.106097,0.683266 -0.707835,3.408669 1.300793,2.761045 5.062384,-1.632214 16.229316,-8.959881 16.229316,-8.959881 L 42.6111,35.979107 z" fill="url(#linearGradient4313)" fill-opacity="1" stroke="none" inkscape:connector-curvature="0"/>
   <path d="m 41.714122,36.998233 c 0,0 -14.174792,3.01965 -17.799824,3.461296 -2.198011,0.266914 -1.348063,3.209795 0.747455,2.95918 5.281373,-0.631625 17.645777,-5.683021 17.645777,-5.683021 l -0.593408,-0.737455 z" fill="url(#linearGradient4309)" fill-opacity="1" stroke="none" inkscape:connector-curvature="0"/>
   <path d="m 40.607483,36.66748 c 0,0 -14.461793,0.948453 -18.112649,0.863856 -2.213544,-0.05216 -1.795926,2.9824 0.313846,3.035941 5.317296,0.134944 18.279914,-3.084626 18.279914,-3.084626 L 40.607483,36.66748 z" fill="url(#linearGradient4305)" fill-opacity="1" stroke="none" inkscape:connector-curvature="0"/>
   <path d="m 43.681371,36.483086 c 0,0 -18.755106,-1.375366 -23.00414,-2.35217 -2.717736,-0.624777 -2.498338,1.982511 -0.291541,3.043603 5.79629,2.787024 23.717132,0.195958 23.717132,0.195958 l -0.42145,-0.887391 z" fill="url(#linearGradient4301)" fill-opacity="1" stroke="none" inkscape:connector-curvature="0"/>
   <path d="m 42.312156,37.290065 c 0,0 -18.595433,-5.510733 -22.651127,-7.48611 -2.594073,-1.263477 -2.98875,1.632495 -1.013204,3.263566 5.188896,4.284114 23.879838,5.282291 23.879838,5.282291 l -0.215506,-1.059747 z" fill="url(#linearGradient4297)" fill-opacity="1" stroke="none" inkscape:connector-curvature="0"/>
   <path d="m 40.156167,36.196585 c 0,0 -17.659201,-8.019409 -21.404169,-10.534561 -2.395327,-1.608724 -3.185113,1.205288 -1.453047,3.092911 4.549382,4.957964 22.924707,8.520979 22.924707,8.520979 l -0.06749,-1.079329 z" fill="url(#linearGradient4293)" fill-opacity="1" stroke="none" inkscape:connector-curvature="0"/>
   <path d="m 40.442152,35.961023 c 0,0 -17.965265,-11.54817 -21.64941,-14.912489 -2.356425,-2.151861 -3.649651,0.897078 -2.057531,3.267113 4.181805,6.225049 23.613721,12.868008 23.613721,12.868008 l 0.09322,-1.222632 z" fill="url(#linearGradient4289)" fill-opacity="1" stroke="none" inkscape:connector-curvature="0"/>
   <path d="m 38.859309,33.745801 c 0,0 -17.056207,-13.677893 -18.834869,-18.339215 -1.096134,-2.872626 -3.54204,0.187532 -2.577403,2.874796 2.876042,8.01202 21.114879,16.653989 21.114879,16.653989 l 0.297393,-1.18957 z" fill="url(#linearGradient4285)" fill-opacity="1" stroke="none" inkscape:connector-curvature="0"/>
   <path d="M 39.454094,33.349277 C 28.847089,26.310984 24.287068,14.71267 24.287068,14.71267 c -0.892178,-1.387832 -4.56002,-2.577403 -3.172188,0.693916 0,0 0.198261,6.046984 17.447036,18.636607 l 0.892178,-0.693916 z" fill="url(#linearGradient4277)" fill-opacity="1" stroke="none" inkscape:connector-curvature="0"/>
   <path d="M 62.452462,46.236293 C 51.448933,42.667581 45.005424,36.124942 45.005424,36.124942 39.156701,33.151015 31.821016,27.500555 31.821016,27.500555 l 6.146115,5.65046 -5.947853,-3.172188 4.361759,3.37045 -4.46089,-1.09044 4.659152,2.379142 c 0,0 -4.46089,0.09913 -4.064367,0 0.396524,-0.09913 4.064367,1.090439 4.064367,1.090439 l -3.073058,0.693917 3.271319,0.198261 -2.28001,1.189571 2.676534,-0.297392 -2.775665,1.784356 3.271319,-0.892178 -2.775664,2.676534 3.568712,-1.486964 -2.577404,2.973927 3.866105,-2.379141 -2.081749,2.180879 3.370451,-1.784356 -2.081749,2.676534 2.775665,-1.586094 -1.982618,2.478272 2.676534,-1.685225 -1.586094,2.478272 2.973927,-2.379141 -2.081749,3.37045 2.478272,-1.982618 -1.288701,2.280011 2.478272,-1.784356 -1.586094,2.577403 2.379141,-1.685225 -1.189571,2.28001 2.379142,-1.784356 -0.892178,2.081749 2.28001,-1.883487 -0.892178,2.379141 1.883487,-1.486963 -0.594785,1.387833 1.982618,-1.189571 -0.892178,1.486963 1.982617,-1.09044 -0.297392,0.892178 1.387832,-0.892178 c 0,0 1.824892,-1.023055 4.560021,1.387833 1.765282,1.556014 5.460677,0.96879 4.560022,-2.676534 z" fill="url(#linearGradient4544)" fill-opacity="1" stroke="none" inkscape:connector-curvature="0"/>
   <path d="M 37.78125,31.75 39.75,38.5 51.160596,45.844785 59.71875,45.25 C 50.39204,41.585007 45,36.125 45,36.125 42.634776,34.922344 40.049339,33.277385 37.78125,31.75 z" fill="url(#linearGradient4392)" fill-opacity="1" stroke="none" inkscape:connector-curvature="0"/>
  </g>
  <rect x="-96" rx="25" y="958.36" clip-path="url(#clipPath3009)" fill="#ffffff" fill-opacity="1" height="92" opacity="0.15" width="92" transform="matrix(1 0 0 1 98 0)"/>
 </g>
</svg>
