<svg height="96" width="96" xmlns="http://www.w3.org/2000/svg" xmlns:xlink="http://www.w3.org/1999/xlink" xmlns:sodipodi="http://sodipodi.sourceforge.net/DTD/sodipodi-0.dtd" xmlns:inkscape="http://www.inkscape.org/namespaces/inkscape">
 <defs>
  <linearGradient x2="0" y1="90" y2="5.988" gradientUnits="userSpaceOnUse" id="linearGradient3617">
   <stop stop-color="#5449c0" stop-opacity="1"/>
   <stop stop-color="#827aca" stop-opacity="1" offset="1"/>
  </linearGradient>
  <linearGradient x2="0" xlink:href="#linearGradient3737" y1="20.221" y2="138.66" gradientUnits="userSpaceOnUse" id="linearGradient3613"/>
  <linearGradient id="linearGradient3737">
   <stop stop-color="#ffffff" stop-opacity="1"/>
   <stop stop-color="#ffffff" stop-opacity="0" offset="1"/>
  </linearGradient>
  <clipPath id="clipPath3613">
   <use xlink:href="#SVGCleanerId_0"/>
  </clipPath>
  <filter x="-0.192" y="-0.192" height="1.384" color-interpolation-filters="sRGB" id="filter3794" width="1.384">
   <feGaussianBlur stdDeviation="5.28"/>
  </filter>
  <radialGradient cy="80" r="24" gradientUnits="userSpaceOnUse" id="radialGradient5165" cx="48" gradientTransform="matrix(1 0 0 0.33333 0 53.33)">
   <stop stop-color="#000000" stop-opacity="1"/>
   <stop stop-color="#000000" stop-opacity="0" offset="1"/>
  </radialGradient>
  <radialGradient cy="222.16" r="183.91" gradientUnits="userSpaceOnUse" id="radialGradient5179" cx="110.93" gradientTransform="matrix(1.21717 0 0 1 -24.09 0)">
   <stop stop-color="#7469ea" stop-opacity="1"/>
   <stop stop-color="#20157e" stop-opacity="1" offset="1"/>
  </radialGradient>
  <radialGradient cy="222.16" r="183.91" gradientUnits="userSpaceOnUse" id="radialGradient5171" cx="244.72">
   <stop stop-color="#ffffff" stop-opacity="0.442"/>
   <stop stop-color="#13059a" stop-opacity="0" offset="0.8"/>
   <stop stop-color="#16104b" stop-opacity="1" offset="1"/>
  </radialGradient>
  <linearGradient x1="98" x2="420" xlink:href="#linearGradient3737" gradientUnits="userSpaceOnUse" id="linearGradient5050" gradientTransform="matrix(0.54348 -0.94133 0.94133 0.54348 -156.67 314.83)"/>
  <linearGradient x1="98" x2="420" xlink:href="#linearGradient3737" gradientUnits="userSpaceOnUse" id="linearGradient5052" gradientTransform="matrix(-0.94133 0.54348 0.54348 0.94133 334.23 -173.07)"/>
  <linearGradient x1="98" x2="420" xlink:href="#linearGradient3737" gradientUnits="userSpaceOnUse" id="linearGradient5054" gradientTransform="matrix(0.94133 -0.54348 -0.54348 -0.94133 150.77 625.27)"/>
  <linearGradient x1="98" x2="420" xlink:href="#linearGradient3737" gradientUnits="userSpaceOnUse" id="linearGradient5056" gradientTransform="matrix(-0.54348 0.94133 -0.94133 -0.54348 641.67 131.38)"/>
  <radialGradient cy="226.88" r="154.36" xlink:href="#linearGradient3737" gradientUnits="userSpaceOnUse" id="radialGradient5058" cx="246.35" gradientTransform="matrix(1 -0.57734 0.12401 0.2148 -28.14 320.38)"/>
  <radialGradient cy="226.88" r="154.36" xlink:href="#linearGradient3737" gradientUnits="userSpaceOnUse" id="radialGradient5060" cx="246.35" gradientTransform="matrix(-0.57734 -1 0.2148 -0.12401 339.85 501.37)"/>
  <radialGradient cy="148.5" r="19.5" gradientUnits="userSpaceOnUse" id="radialGradient5048" cx="156.5">
   <stop stop-color="#ffffff" stop-opacity="1"/>
   <stop stop-color="#ffffff" stop-opacity="0.845" offset="0.35"/>
   <stop stop-color="#ffffff" stop-opacity="0" offset="1"/>
  </radialGradient>
  <linearGradient x1="60.812" x2="485.96" xlink:href="#linearGradient3737" gradientUnits="userSpaceOnUse" id="linearGradient5189"/>
  <linearGradient x2="0" xlink:href="#linearGradient3737" y1="79" y2="47" gradientUnits="userSpaceOnUse" id="linearGradient3314"/>
  <radialGradient cy="188.13" r="76.51" xlink:href="#linearGradient2762" gradientUnits="userSpaceOnUse" id="radialGradient3370" cx="142.7" gradientTransform="matrix(0.2679 0 0 0.17169 14.873 33.905)"/>
  <linearGradient id="linearGradient2762">
   <stop stop-color="#000000" stop-opacity="0.706"/>
   <stop stop-color="#000000" stop-opacity="0.353" offset="0.4"/>
   <stop stop-color="#000000" stop-opacity="0" offset="1"/>
  </linearGradient>
  <linearGradient x1="508.03" x2="452" xlink:href="#linearGradient5537" y1="546.04" y2="336.95" gradientUnits="userSpaceOnUse" id="linearGradient3367" gradientTransform="matrix(0.15625 0 0 0.15625 8.134 7.685)"/>
  <linearGradient id="linearGradient5537">
   <stop stop-color="#73a0d0" stop-opacity="1"/>
   <stop stop-color="#ffffff" stop-opacity="1" offset="1"/>
  </linearGradient>
  <radialGradient cy="205.85" r="169.41" xlink:href="#linearGradient10381" gradientUnits="userSpaceOnUse" id="radialGradient3364" cx="129.83" gradientTransform="matrix(0.07637 0.06281 -0.10476 0.12737 40.08 18.248)"/>
  <linearGradient id="linearGradient10381">
   <stop stop-color="#3465a4" stop-opacity="1"/>
   <stop stop-color="#3465a4" stop-opacity="0" offset="1"/>
  </linearGradient>
  <radialGradient cy="388.71" r="126.07" xlink:href="#linearGradient3737" gradientUnits="userSpaceOnUse" id="radialGradient3361" cx="235.33" gradientTransform="matrix(0.2162 0 0 0.19023 -8.134 -4.483)"/>
  <radialGradient cy="98.51" r="94.91" xlink:href="#linearGradient2762" gradientUnits="userSpaceOnUse" id="radialGradient3580" cx="104.98" gradientTransform="matrix(0.40453 0 0 0.26073 -2.893 7.716)"/>
  <radialGradient cy="89.63" r="142.27" xlink:href="#linearGradient5537" gradientUnits="userSpaceOnUse" id="radialGradient3577" cx="262.1" gradientTransform="matrix(0.15625 0 0 0.07033 8.134 16.401)"/>
  <linearGradient x1="339.83" x2="183.82" xlink:href="#linearGradient10381" y1="306.92" y2="36.701" gradientUnits="userSpaceOnUse" id="linearGradient3572" gradientTransform="matrix(0.15625 0 0 0.15625 8.134 7.685)"/>
  <radialGradient cy="141.67" r="21.773" xlink:href="#linearGradient5537" gradientUnits="userSpaceOnUse" id="radialGradient3569" cx="167.69" gradientTransform="matrix(0.22031 0 0.03995 0.24123 17.398 -25.881)"/>
  <radialGradient cy="141.67" r="21.773" xlink:href="#linearGradient5537" gradientUnits="userSpaceOnUse" id="radialGradient3566" cx="167.69" gradientTransform="matrix(-0.1908 -0.11016 -0.15521 0.18893 135.66 5.808)"/>
  <linearGradient x2="0" xlink:href="#linearGradient3737" y1="178.87" y2="162.24" gradientUnits="userSpaceOnUse" id="linearGradient5020"/>
  <radialGradient cy="162.24" r="8.312" xlink:href="#linearGradient3737" gradientUnits="userSpaceOnUse" id="radialGradient5022" cx="185.18" gradientTransform="matrix(1.76593 0 0 3.0048 -141.84 -325.26)"/>
  <radialGradient cy="186.6" r="66.984" xlink:href="#linearGradient5537" gradientUnits="userSpaceOnUse" id="radialGradient3550" cx="221.8" gradientTransform="matrix(-0.03818 0.1425 -0.17468 -0.0468 108.51 -0.96)"/>
  <radialGradient cy="231.32" r="13.714" xlink:href="#linearGradient3737" gradientUnits="userSpaceOnUse" id="radialGradient3546" cx="221.52" gradientTransform="matrix(0.19059 0.05107 -0.03353 0.12513 31.18 -11.854)"/>
  <radialGradient cy="137.96" r="22.608" xlink:href="#linearGradient5537" gradientUnits="userSpaceOnUse" id="radialGradient3543" cx="231.54" gradientTransform="matrix(0.11938 0.1571 -0.28668 0.21785 84.49 -55.854)"/>
  <radialGradient cy="126.36" r="14.333" xlink:href="#linearGradient5537" gradientUnits="userSpaceOnUse" id="radialGradient3539" cx="211.68" gradientTransform="matrix(0.2861 -0.00736 0.0091 0.35366 7.281 -35.27)"/>
  <clipPath clipPathUnits="userSpaceOnUse" id="clipPath4294">
   <rect x="6" rx="22.826" y="6" height="84" width="84"/>
  </clipPath>
  <clipPath clipPathUnits="userSpaceOnUse" id="clipPath3009">
   <path d="m -2,956.36218 -96,0 0,33.5624 96,25.68742 0,-59.24982 z" inkscape:connector-curvature="0"/>
  </clipPath>
  <rect x="6" rx="6" y="6" height="84" id="SVGCleanerId_0" width="84"/>
  <path d="m 428.62836,222.16092 a 183.90805,183.90805 0 1 1 -367.816104,0 183.90805,183.90805 0 1 1 367.816104,0 z" fill-opacity="1" stroke="none" id="SVGCleanerId_1"/>
  <path d="m 176,148.5 a 19.5,19.5 0 1 1 -39,0 19.5,19.5 0 1 1 39,0 z" fill="url(#radialGradient5048)" fill-opacity="1" stroke="none" id="SVGCleanerId_2"/>
  <path d="m 79.406614,58.386363 c 0,0 0.623377,15.584378 -13.298668,17.35061 C 52.1859,77.503201 43.146961,71.061657 36.913208,67.00972 30.679455,62.957778 26.939206,55.892863 26.939206,55.892863 l 0.727269,0.415582 -0.831167,-1.142855 0.727273,0.623376 -0.831165,-1.662336 0.623373,0.415584 -0.727272,-1.870123 1.038958,1.350645 -0.727269,-1.870126 0.831165,0.415582 -0.311688,-1.454539 0.83117,0.831165 -0.103898,-1.038956 0.831169,0.415583 -0.207795,-0.519482 0.935064,0.519482 0,-0.623375 0.831165,0.519477 0,-1.142854 0.727272,1.03896 0,-0.831169 0.727271,1.038961 0.103897,-0.623375 0.727273,0.727269 0,-0.415584 1.558436,1.350646 0.103895,-0.727271 c 0,0 16.021901,9.493601 27.11682,14.961006 8.799475,4.336248 12.986981,2.597395 17.766192,-8.207773 z" fill-opacity="1" stroke="none" fill-rule="evenodd" id="SVGCleanerId_3"/>
  <path d="m 193.49611,170.55585 a 8.31169,8.31169 0 1 1 -16.62338,0 8.31169,8.31169 0 1 1 16.62338,0 z" fill-opacity="1" stroke="none" id="SVGCleanerId_4"/>
 </defs>
 <g inkscape:label="Layer 1" inkscape:groupmode="layer" transform="matrix(1 0 0 1 0 -956.36)">
  <g clip-path="url(#clipPath4294)" transform="matrix(1.09524 0 0 1.09524 -4.571 951.79)">
   <use xlink:href="#SVGCleanerId_0" fill="url(#linearGradient3617)" fill-opacity="1" fill-rule="nonzero" stroke="none"/>
   <rect stroke="#ffffff" stroke-dasharray="none" clip-path="url(#clipPath3613)" stroke-dashoffset="0" stroke-linecap="round" height="66" stroke-linejoin="miter" stroke-miterlimit="4" stroke-opacity="1" stroke-width="0.5" display="inline" width="66" fill="url(#linearGradient3613)" fill-opacity="1" opacity="0.1" x="15" fill-rule="nonzero" filter="url(#filter3794)" y="15" rx="12"/>
   <path d="m 72,80 a 24,8 0 1 1 -48,0 24,8 0 1 1 48,0 z" stroke-width="1" display="inline" fill="url(#radialGradient5165)" color="#000000" fill-opacity="1" fill-rule="nonzero" stroke="none" opacity="0.4" visibility="visible" inkscape:connector-curvature="0" transform="matrix(1.33333 0 0 1 -16 0)"/>
   <use xlink:href="#SVGCleanerId_1" fill="url(#radialGradient5179)" inkscape:connector-curvature="0" transform="matrix(0 -0.1787 0.1787 0 8.437 91.82)"/>
   <use xlink:href="#SVGCleanerId_1" fill="url(#radialGradient5171)" inkscape:connector-curvature="0" transform="matrix(0 -0.1787 0.1787 0 8.437 91.82)"/>
   <g opacity="0.5" transform="matrix(0.1787 0 0 0.1787 4.406 8.393)">
    <path d="m 201.58219,398.66524 c 0,0 -175.98576,-177.96619 32.57947,-358.777143 C -1.634599,220.03851 202.12567,397.72391 201.58219,398.66524 z" fill="url(#linearGradient5050)" fill-opacity="1" fill-rule="evenodd" stroke="none" inkscape:connector-curvature="0"/>
    <path d="m 418.06183,185.18557 c 0,0 -177.96626,-175.9856903 -358.777135,32.57961 C 239.43502,-18.031148 417.12049,185.72905 418.06183,185.18557 z" fill="url(#linearGradient5052)" fill-opacity="1" fill-rule="evenodd" stroke="none" inkscape:connector-curvature="0"/>
    <path d="m 66.93794,267.02123 c 0,0 177.96626,175.98569 358.77713,-32.57961 C 245.56475,470.23795 67.879272,266.47776 66.93794,267.02123 z" fill="url(#linearGradient5054)" fill-opacity="1" fill-rule="evenodd" stroke="none" inkscape:connector-curvature="0"/>
    <path d="m 283.41758,47.541558 c 0,0 175.98575,177.966182 -32.57947,358.777142 C 486.63436,226.16829 282.8741,48.482895 283.41758,47.541558 z" fill="url(#linearGradient5056)" fill-opacity="1" fill-rule="evenodd" stroke="none" inkscape:connector-curvature="0"/>
    <path d="M 92,316 C 92,316 262.42047,243.53212 400.71024,137.76606 239,206 91,316 92,316 z" fill="url(#radialGradient5058)" fill-opacity="1" fill-rule="evenodd" stroke="none" inkscape:connector-curvature="0"/>
    <path d="m 335.46957,381.23563 c 0,0 -72.46788,-170.42047 -178.23394,-308.710239 68.23394,161.710239 178.23394,309.710239 178.23394,308.710239 z" fill="url(#radialGradient5060)" fill-opacity="1" fill-rule="evenodd" stroke="none" inkscape:connector-curvature="0"/>
   </g>
   <use xlink:href="#SVGCleanerId_2" inkscape:connector-curvature="0" transform="matrix(0.33448 0 0 0.33448 -3.892 -0.625)"/>
   <use xlink:href="#SVGCleanerId_1" fill="url(#linearGradient5189)" opacity="0.8" inkscape:connector-curvature="0" transform="matrix(0 0.0912 0.12976 0 19.31 10.682)"/>
   <path d="M 17.03125,47.09375 C 17.02061,47.428423 17,47.756491 17,48.09375 c 0,17.196263 13.928737,31.125 31.125,31.125 17.196263,0 31.15625,-13.928737 31.15625,-31.125 0,-0.337076 -0.02062,-0.665506 -0.03125,-1 -0.531772,16.73002 -14.265813,30.125 -31.125,30.125 -16.859005,0 -30.561699,-13.395232 -31.09375,-30.125 z" fill="url(#linearGradient3314)" fill-opacity="1" stroke="none" opacity="0.4" inkscape:connector-curvature="0"/>
   <use display="inline" xlink:href="#SVGCleanerId_2" inkscape:connector-curvature="0" transform="matrix(0.1787 0 0 0.1787 0.832 33.589)"/>
   <use display="inline" xlink:href="#SVGCleanerId_2" inkscape:connector-curvature="0" transform="matrix(0.14204 0 0 0.14204 9.07 44.929)"/>
   <use display="inline" xlink:href="#SVGCleanerId_2" inkscape:connector-curvature="0" transform="matrix(0.08706 0 0 0.08706 11.242 49.699)"/>
   <use display="inline" xlink:href="#SVGCleanerId_2" inkscape:connector-curvature="0" transform="matrix(0.1787 0 0 0.1787 30.496 40.2)"/>
   <use display="inline" xlink:href="#SVGCleanerId_2" inkscape:connector-curvature="0" transform="matrix(0.14204 0 0 0.14204 41.951 44.21)"/>
   <use display="inline" xlink:href="#SVGCleanerId_2" inkscape:connector-curvature="0" transform="matrix(0.08706 0 0 0.08706 46.45 57.919)"/>
   <use display="inline" xlink:href="#SVGCleanerId_2" inkscape:connector-curvature="0" transform="matrix(0.1787 0 0 0.1787 9.946 4.104)"/>
   <use display="inline" xlink:href="#SVGCleanerId_2" inkscape:connector-curvature="0" transform="matrix(0.14204 0 0 0.14204 9.07 11.691)"/>
   <use display="inline" xlink:href="#SVGCleanerId_2" inkscape:connector-curvature="0" transform="matrix(0.08706 0 0 0.08706 21.785 13.423)"/>
   <use display="inline" xlink:href="#SVGCleanerId_2" inkscape:connector-curvature="0" transform="matrix(0.08706 0 0 0.08706 58.06 22.537)"/>
   <use display="inline" xlink:href="#SVGCleanerId_2" inkscape:connector-curvature="0" transform="matrix(0.1787 0 0 0.1787 38.894 11.252)"/>
   <use display="inline" xlink:href="#SVGCleanerId_2" inkscape:connector-curvature="0" transform="matrix(0.14204 0 0 0.14204 42.844 10.977)"/>
   <g display="inline">
    <path d="m 30.28125,49.03125 c -0.03505,0.0055 -0.127772,0.03178 -0.125,0.03125 0.0034,-6.56e-4 -0.128378,0.03214 -0.125,0.03125 0.0034,-8.92e-4 -0.128308,0.03237 -0.125,0.03125 0.0033,-0.0011 -0.159472,0.06385 -0.15625,0.0625 0.0032,-0.0014 -0.12812,0.06407 -0.125,0.0625 0.0031,-0.0016 -0.128004,0.06428 -0.125,0.0625 0.003,-0.0018 -0.127873,0.06449 -0.125,0.0625 0.0029,-0.002 -0.09648,0.09593 -0.09375,0.09375 0.0027,-0.0022 -0.12757,0.09612 -0.125,0.09375 0.0026,-0.0024 -0.09615,0.09629 -0.09375,0.09375 0.0024,-0.0025 -0.09597,0.127699 -0.09375,0.125 -0.03087,-0.0016 -0.09576,-5.3e-5 -0.09375,0 0.0027,7.1e-5 -0.09643,7.1e-5 -0.09375,0 0.0027,-7.1e-5 -0.12767,2.14e-4 -0.125,0 0.0027,-2.14e-4 -0.09641,0.0316 -0.09375,0.03125 0.0027,-3.55e-4 -0.09638,4.96e-4 -0.09375,0 0.0026,-4.96e-4 -0.127602,0.03189 -0.125,0.03125 0.0026,-6.35e-4 -0.09631,0.03202 -0.09375,0.03125 -0.01056,-6.97e-4 -0.03194,-2.6e-5 -0.03125,0 0.0027,1.04e-4 -0.0965,4.7e-5 -0.09375,0 0.0027,-4.7e-5 -0.127743,1.97e-4 -0.125,0 0.0027,-1.97e-4 -0.09648,0.0316 -0.09375,0.03125 0.0027,-3.46e-4 -0.127705,4.95e-4 -0.125,0 0.0027,-4.95e-4 -0.09642,0.03189 -0.09375,0.03125 0.0027,-6.42e-4 -0.127635,0.03204 -0.125,0.03125 0.0026,-7.87e-4 -0.09634,0.03218 -0.09375,0.03125 0.0026,-9.3e-4 -0.127534,0.03232 -0.125,0.03125 0.0025,-0.0011 -0.09622,0.06371 -0.09375,0.0625 -0.03049,0.003 -0.06396,1.88e-4 -0.0625,0 0.0012,-1.5e-4 -0.0081,0.02757 -0.03125,0.03125 -0.03479,0.0055 -0.06423,3.27e-4 -0.0625,0 0.0029,-5.45e-4 -0.127851,0.03196 -0.125,0.03125 0.0029,-7.12e-4 -0.127805,0.03213 -0.125,0.03125 0.0028,-8.78e-4 -0.0965,0.03229 -0.09375,0.03125 0.0027,-10e-4 -0.127684,0.03245 -0.125,0.03125 0.0027,-0.0012 -0.09636,0.06385 -0.09375,0.0625 0.0026,-0.0014 -0.127526,0.064 -0.125,0.0625 0.0025,-0.0015 -0.09618,0.06415 -0.09375,0.0625 0.0024,-0.0016 -0.09608,0.06429 -0.09375,0.0625 0.0023,-0.0018 -0.09597,0.09567 -0.09375,0.09375 0.0022,-0.0019 -0.09586,0.06455 -0.09375,0.0625 0.0021,-0.002 -0.09574,0.09592 -0.09375,0.09375 0.002,-0.0022 -0.06436,0.09603 -0.0625,0.09375 0.0019,-0.0023 -0.06422,0.09613 -0.0625,0.09375 0.0017,-0.0024 -0.09533,0.09623 -0.09375,0.09375 0.0016,-0.0025 -0.03268,0.09632 -0.03125,0.09375 0.0014,-0.0026 -0.06378,0.127647 -0.0625,0.125 0.0013,-0.0026 -0.06362,0.09647 -0.0625,0.09375 0.0011,-0.0027 -0.03221,0.127777 -0.03125,0.125 9.61e-4,-0.0028 -0.03205,0.09658 -0.03125,0.09375 7.97e-4,-0.0028 -0.03188,0.127871 -0.03125,0.125 2.97e-4,-0.0014 0.0053,0.03427 0,0.0625 -6.68e-4,0.0035 -0.03058,-0.0035 -0.03125,0 -0.02267,0.02453 -0.06401,0.06423 -0.0625,0.0625 0.002,-0.0023 -0.06433,0.09612 -0.0625,0.09375 0.0018,-0.0024 -0.06418,0.127472 -0.0625,0.125 0.0017,-0.0025 -0.06404,0.09632 -0.0625,0.09375 0.0015,-0.0026 -0.06388,0.0964 -0.0625,0.09375 0.0014,-0.0027 -0.06372,0.127732 -0.0625,0.125 0.0012,-0.0027 -0.03231,0.09655 -0.03125,0.09375 0.0011,-0.0028 -0.06339,0.127857 -0.0625,0.125 0.0021,-0.003 -0.09558,0.128113 -0.09375,0.125 0.0018,-0.0031 -0.06411,0.128236 -0.0625,0.125 0.0016,-0.0032 -0.06387,0.128343 -0.0625,0.125 0.0014,-0.0033 -0.06362,0.159683 -0.0625,0.15625 0.0011,-0.0034 -0.03213,0.128505 -0.03125,0.125 8.76e-4,-0.0035 -0.03187,0.159808 -0.03125,0.15625 6.23e-4,-0.0036 -3.66e-4,0.159844 0,0.15625 3.66e-4,-0.0036 -0.03136,0.128611 -0.03125,0.125 1.07e-4,-0.0036 1.52e-4,0.159859 0,0.15625 -1.52e-4,-0.0036 0.03166,0.159839 0.03125,0.15625 -4.11e-4,-0.0036 6.67e-4,0.12855 0,0.125 -6.67e-4,-0.0035 0.03217,0.159743 0.03125,0.15625 -9.2e-4,-0.0035 0.06367,0.128418 0.0625,0.125 a 1.0998724,1.0998724 0 0 0 0,0.0625 l 0.0625,0.125 c -0.0096,0.03516 -0.06315,0.09648 -0.0625,0.09375 8.1e-4,-0.0034 -0.03182,0.159712 -0.03125,0.15625 5.7e-4,-0.0035 -3.28e-4,0.128493 0,0.125 3.28e-4,-0.0035 -8.3e-5,0.159758 0,0.15625 8.3e-5,-0.0035 1.61e-4,0.128505 0,0.125 -1.61e-4,-0.0035 4.05e-4,0.159735 0,0.15625 -4.05e-4,-0.0035 0.0319,0.128449 0.03125,0.125 -6.47e-4,-0.0034 0.03214,0.159645 0.03125,0.15625 -8.86e-4,-0.0034 0.03237,0.128325 0.03125,0.125 -2.7e-4,-8.03e-4 0.02676,0.01936 0.03125,0.03125 0.0064,0.01698 -0.0086,0.03962 0,0.0625 -0.0039,0.03006 -1.44e-4,0.06395 0,0.0625 2.88e-4,-0.0029 -1.21e-4,0.127905 0,0.125 1.21e-4,-0.0029 4.7e-5,0.127907 0,0.125 -4.7e-5,-0.0029 2.15e-4,0.09665 0,0.09375 -2.15e-4,-0.0029 3.82e-4,0.127882 0,0.125 -3.82e-4,-0.0029 0.0318,0.127855 0.03125,0.125 -5.48e-4,-0.0029 0.03196,0.127819 0.03125,0.125 -2.85e-4,-0.0011 0.02491,0.0089 0.03125,0.03125 0.0095,0.03352 5.24e-4,0.06416 0,0.0625 -0.0035,0.06007 -0.03129,0.128315 -0.03125,0.125 5.3e-5,-0.0049 0.03167,0.223638 0.03125,0.21875 -4.25e-4,-0.0049 0.03215,0.192324 0.03125,0.1875 -8.99e-4,-0.0048 0.03261,0.192213 0.03125,0.1875 -0.0014,-0.0047 0.06432,0.192058 0.0625,0.1875 -0.0018,-0.0046 0.096,0.19186 0.09375,0.1875 0,0 3.830935,7.438542 10.65625,11.875 6.157422,4.002322 15.907487,10.921717 30.5625,9.0625 7.721999,-0.979658 11.766069,-6.041633 13.53125,-10.625 1.759428,-4.56843 1.5625,-8.84375 1.5625,-8.84375 a 1.0998724,1.0998724 0 0 0 0,-0.03125 c 2.05e-4,0.0042 -5.54e-4,-0.160411 0,-0.15625 5.54e-4,0.0042 -0.03215,-0.1916 -0.03125,-0.1875 8.99e-4,0.0041 -0.06374,-0.160261 -0.0625,-0.15625 0.0012,0.004 -0.06407,-0.160144 -0.0625,-0.15625 0.0016,0.0039 -0.06439,-0.16 -0.0625,-0.15625 0.0019,0.0037 -0.06469,-0.15983 -0.0625,-0.15625 0.0022,0.0036 -0.09623,-0.128385 -0.09375,-0.125 0.0025,0.0034 -0.127755,-0.159416 -0.125,-0.15625 0.0028,0.0032 -0.12801,-0.127926 -0.125,-0.125 0.003,0.0029 -0.128243,-0.09642 -0.125,-0.09375 0.0032,0.0027 -0.128454,-0.09613 -0.125,-0.09375 0.0035,0.0024 -0.15989,-0.09584 -0.15625,-0.09375 0.0036,0.0021 -0.160052,-0.09553 -0.15625,-0.09375 0.0038,0.0018 -0.160187,-0.06396 -0.15625,-0.0625 0.0039,0.0015 -0.160294,-0.06362 -0.15625,-0.0625 0.004,0.0011 -0.160374,-0.03203 -0.15625,-0.03125 0.0041,7.82e-4 -0.191675,-0.03169 -0.1875,-0.03125 0.0042,4.36e-4 -0.160446,-8.7e-5 -0.15625,0 0.0042,8.7e-5 -0.160439,2.63e-4 -0.15625,0 0.0042,-2.63e-4 -0.191652,0.03186 -0.1875,0.03125 0.0042,-6.11e-4 -0.160337,0.0322 -0.15625,0.03125 0.0041,-9.55e-4 -0.191493,0.03254 -0.1875,0.03125 0.004,-0.0013 -0.160122,0.06412 -0.15625,0.0625 0.0039,-0.0016 -0.159973,0.06444 -0.15625,0.0625 0.0037,-0.0019 -0.128549,0.09599 -0.125,0.09375 0.0035,-0.0022 -0.1596,0.09628 -0.15625,0.09375 0.0033,-0.0025 -0.128128,0.127799 -0.125,0.125 0.0031,-0.0028 -0.127884,0.0968 -0.125,0.09375 0.0029,-0.0031 -0.12762,0.159529 -0.125,0.15625 0.0026,-0.0033 -0.09609,0.128486 -0.09375,0.125 0.0023,-0.0035 -0.09579,0.159919 -0.09375,0.15625 0.002,-0.0037 -0.06423,0.160076 -0.0625,0.15625 -2.314431,5.232625 -4.44339,7.87411 -6.375,8.75 -1.95019,0.884316 -4.436798,0.501382 -8.625,-1.5625 C 57.055128,63.051451 50.281701,59.328501 44.90625,56.28125 42.223621,54.760513 39.896538,53.414337 38.21875,52.4375 36.55691,51.469949 35.625,50.875 35.625,50.875 a 1.0998724,1.0998724 0 0 0 -0.03125,0 c 0.0029,0.0017 -0.128007,-0.06402 -0.125,-0.0625 0.003,0.0015 -0.128102,-0.06382 -0.125,-0.0625 0.0031,0.0013 -0.128183,-0.06361 -0.125,-0.0625 0.0032,0.0011 -0.12825,-0.03214 -0.125,-0.03125 0.0033,8.92e-4 -0.128303,-0.03192 -0.125,-0.03125 0.0033,6.73e-4 -0.15959,-0.0317 -0.15625,-0.03125 0.0033,4.5e-4 -0.128363,-2.26e-4 -0.125,0 0.0034,2.26e-4 -0.12837,0 -0.125,0 0.0034,0 -0.159613,2.26e-4 -0.15625,0 l -0.03125,0 -0.125,-0.125 A 1.0998724,1.0998724 0 0 0 34.21875,50.4375 c 0.0038,0.0032 -0.160298,-0.127773 -0.15625,-0.125 0.004,0.0028 -0.191799,-0.09612 -0.1875,-0.09375 0.0043,0.0024 -0.192009,-0.09569 -0.1875,-0.09375 C 33.692,50.1269 33.495324,50.06101 33.5,50.0625 33.5047,50.064 33.307701,49.99897 33.3125,50 c 0.0016,3.33e-4 -0.03399,0.0046 -0.0625,0 -0.01425,-0.0023 -0.01489,0.0027 -0.03125,0 -0.03051,-0.01805 -0.160202,-0.127102 -0.15625,-0.125 0.0045,0.0024 -0.192184,-0.06442 -0.1875,-0.0625 0.0047,0.0019 -0.192352,-0.06394 -0.1875,-0.0625 0.0017,5.03e-4 -0.03,-0.02341 -0.0625,-0.03125 0.0027,0.0022 -0.127804,-0.09579 -0.125,-0.09375 0.0028,0.002 -0.09669,-0.06434 -0.09375,-0.0625 0.0029,0.0018 -0.128057,-0.09538 -0.125,-0.09375 0.0031,0.0016 -0.128162,-0.06392 -0.125,-0.0625 0.0032,0.0014 -0.128252,-0.03245 -0.125,-0.03125 0.0033,0.0012 -0.159576,-0.06347 -0.15625,-0.0625 0.0033,9.7e-4 -0.128385,-0.03199 -0.125,-0.03125 0.0034,7.39e-4 -0.159678,-0.03175 -0.15625,-0.03125 0.0017,2.52e-4 -0.0266,0.004 -0.0625,0 0.0014,7.62e-4 -0.03397,0.01448 -0.0625,0 -0.01902,-0.0097 -0.03222,-0.03171 -0.03125,-0.03125 0.0024,0.0011 -0.09622,-0.06352 -0.09375,-0.0625 0.0025,10e-4 -0.09627,-0.03213 -0.09375,-0.03125 0.0025,8.82e-4 -0.09631,-0.032 -0.09375,-0.03125 0.0026,7.47e-4 -0.127599,-0.03186 -0.125,-0.03125 0.0026,6.11e-4 -0.09638,-4.72e-4 -0.09375,0 0.0026,4.72e-4 -0.127649,-0.03158 -0.125,-0.03125 0.0026,3.32e-4 -0.09641,-1.91e-4 -0.09375,0 0.0027,1.91e-4 -0.127669,-5e-5 -0.125,0 0.0027,5e-5 -0.09642,9.2e-5 -0.09375,0 0.0027,-9.2e-5 -0.09641,2.33e-4 -0.09375,0 0.002,-1.75e-4 -0.06314,-0.0035 -0.09375,0 -0.0102,0.0012 -0.03191,9.3e-5 -0.03125,0 z" fill="#000000" fill-opacity="1" fill-rule="evenodd" stroke="none" opacity="0.05" inkscape:connector-curvature="0"/>
    <path d="m 30.4375,50.125 a 0.94878648,0.94878648 0 0 0 -0.78125,0.625 0.94878648,0.94878648 0 0 0 -0.46875,0.1875 0.94878648,0.94878648 0 0 0 -0.03125,0 A 0.94878648,0.94878648 0 0 0 28.375,51 0.94878648,0.94878648 0 0 0 28.34375,51 0.94878648,0.94878648 0 0 0 27.5625,51.1875 0.94878648,0.94878648 0 0 0 26.53125,52.3125 0.94878648,0.94878648 0 0 0 26,53 a 0.94878648,0.94878648 0 0 0 0,0.03125 0.94878648,0.94878648 0 0 0 -0.25,1 l 0.21875,0.53125 a 0.94878648,0.94878648 0 0 0 -0.09375,1 l 0.09375,0.21875 a 0.94878648,0.94878648 0 0 0 0.0625,0.84375 0.94878648,0.94878648 0 0 0 0.0625,0.71875 c 0,0 3.771574,7.206208 10.28125,11.4375 6.19825,4.02886 15.584168,10.7153 29.84375,8.90625 7.30889,-0.927249 10.957663,-5.608188 12.625,-9.9375 1.667337,-4.329312 1.5,-8.40625 1.5,-8.40625 A 0.94878648,0.94878648 0 0 0 78.53125,59 c -2.355657,5.325832 -4.526958,8.233608 -6.90625,9.3125 -2.379292,1.078892 -5.293114,0.556788 -9.59375,-1.5625 -5.514533,-2.717477 -12.271798,-6.447646 -17.65625,-9.5 -2.689905,-1.524862 -5.042225,-2.898898 -6.71875,-3.875 -1.671516,-0.973185 -2.625,-1.5625 -2.625,-1.5625 a 0.94878648,0.94878648 0 0 0 -0.96875,0 L 33.5,51.28125 A 0.94878648,0.94878648 0 0 0 32.8125,51.0625 L 32.78125,51.03125 A 0.94878648,0.94878648 0 0 0 32.09375,50.75 0.94878648,0.94878648 0 0 0 31.1875,50.34375 0.94878648,0.94878648 0 0 0 30.4375,50.125 z" fill="#000000" fill-opacity="1" fill-rule="evenodd" stroke="none" opacity="0.1" inkscape:connector-curvature="0"/>
    <path d="m 30.5625,51.0625 0,1.15625 -0.8125,-0.53125 0,0.625 -0.9375,-0.5 0.21875,0.5 -0.84375,-0.40625 0.09375,1.03125 -0.8125,-0.8125 0.3125,1.4375 -0.84375,-0.40625 0.71875,1.875 -1.03125,-1.34375 0.71875,1.84375 -0.625,-0.40625 0.84375,1.65625 -0.71875,-0.625 0.8125,1.15625 -0.71875,-0.40625 c 0,0 3.734997,7.041808 9.96875,11.09375 6.233753,4.051937 15.265454,10.516228 29.1875,8.75 C 80.015795,74.983768 79.40625,59.375 79.40625,59.375 74.627039,70.180168 70.424475,71.929998 61.625,67.59375 56.07754,64.860047 49.29859,61.119326 43.90625,58.0625 41.21008,56.534087 38.862911,55.162953 37.1875,54.1875 35.512089,53.212047 34.53125,52.625 34.53125,52.625 l -0.125,0.75 L 32.875,52 l 0,0.4375 -0.75,-0.75 -0.09375,0.625 -0.71875,-1.03125 0,0.84375 -0.75,-1.0625 z" fill="#000000" fill-opacity="1" fill-rule="evenodd" stroke="none" opacity="0.3" inkscape:connector-curvature="0"/>
    <path d="m 78.475753,61.716374 c 0,0 0.599453,14.9861 -12.788133,16.684526 C 52.300039,80.099323 43.608102,73.905069 37.613659,70.008682 31.619217,66.112292 28.022555,59.318599 28.022555,59.318599 l 0.69935,0.399626 -0.799258,-1.098978 0.699352,0.599442 -0.799258,-1.598521 0.599442,0.39963 -0.699352,-1.79833 0.999074,1.298797 -0.69935,-1.798333 0.799257,0.39963 -0.299723,-1.398702 0.799259,0.799256 -0.0999,-0.999072 0.799258,0.399629 -0.199812,-0.499534 0.899164,0.499534 0,-0.599441 0.799259,0.499531 0,-1.098977 0.699352,0.999074 0,-0.799261 0.699348,0.999074 0.09991,-0.599441 0.699353,0.699347 0,-0.399629 1.498606,1.298796 0.09991,-0.699354 c 0,0 15.406826,9.129146 26.075815,14.386661 8.461668,4.169781 12.488413,2.497681 17.084148,-7.892679 z" fill="url(#radialGradient3370)" fill-opacity="1" fill-rule="evenodd" stroke="none" inkscape:connector-curvature="0"/>
    <use xlink:href="#SVGCleanerId_3" fill="url(#linearGradient3367)" inkscape:connector-curvature="0"/>
    <use xlink:href="#SVGCleanerId_3" fill="url(#radialGradient3364)" inkscape:connector-curvature="0"/>
    <path d="m 30.83815,57.839065 c 0.177004,1.895413 7.002717,6.651391 7.002717,6.651391 0,0 -4.817621,-3.021524 -5.96038,-7.373039 0.715938,2.459187 6.584068,6.004312 6.584068,6.004312 0,0 -3.378518,-2.193481 -5.464816,-7.019098 1.495106,2.09268 5.957616,5.668922 5.957616,5.668922 0,0 -4.77768,-4.626556 -4.796681,-7.335101 1.989946,3.931601 5.682141,5.929263 5.682141,5.929263 0,0 -2.571265,-1.112267 -4.66371,-6.193085 2.431118,3.711621 6.588131,5.306736 6.588131,5.306736 0,0 -4.153216,-2.744706 -5.69137,-6.000376 4.951846,3.904474 26.729406,15.284948 34.15887,15.980363 -4.152042,0.679761 -15.869569,-2.832171 -15.869569,-2.832171 0,0 9.101012,3.900177 14.630213,3.196759 -5.478225,0.824225 -17.369612,-2.346791 -17.369612,-2.346791 0,0 11.928249,3.767751 16.467946,3.02049 -4.651921,0.81003 -19.830725,-2.170516 -19.830725,-2.170516 0,0 14.746165,3.200658 17.327041,3.399678 -5.253775,0.698685 -19.699911,-2.912126 -19.699911,-2.912126 0,0 15.147628,4.196056 17.64706,3.5447 -4.64377,1.515153 -20.176738,-3.248029 -20.176738,-3.248029 0,0 14.258681,5.237734 15.993054,4.416989 C 49.533374,75.436937 34.572398,67.19771 30.83815,57.839065 z" fill="url(#radialGradient3361)" fill-opacity="1" fill-rule="evenodd" stroke="none" inkscape:connector-curvature="0"/>
    <path d="M 26.9375,52.15625 27,52.3125 27.34375,52.53125 27.25,52.3125 26.9375,52.15625 z m -0.3125,0.53125 0.53125,1.34375 0.5,0.28125 -0.8125,-1.15625 0.4375,0.375 L 26.625,52.6875 z m 0.09375,1.4375 0.84375,1.65625 -0.71875,-0.625 0.8125,1.15625 -0.71875,-0.40625 c 0,0 3.735,7.041808 9.96875,11.09375 C 43.14,71.051937 52.1717,77.516228 66.09375,75.75 80.01579,73.983768 79.40625,58.375 79.40625,58.375 79.3726,58.45109 79.3461,58.518558 79.3125,58.59375 78.902296,62.941579 76.780461,72.394221 66.09375,73.75 52.1717,75.516228 43.14,69.051937 36.90625,65 31.467278,61.464664 28.094685,55.924395 27.28125,54.5 l -0.5625,-0.375 z" fill="#000000" fill-opacity="1" fill-rule="evenodd" stroke="none" opacity="0.1" inkscape:connector-curvature="0"/>
    <path d="m 27.46875,51.125 0.0625,0.3125 0.25,0.125 L 27.75,51.40625 27.46875,51.125 z M 27,52.1875 27.65625,53.03125 27.40625,52.375 27,52.1875 z m -0.375,0.5 0.1875,0.5 0.375,0.25 -0.5625,-0.75 z m 0.40625,1.09375 0.3125,0.75 -0.28125,-0.1875 0.5,0.4375 -0.53125,-1 z m -0.3125,0.34375 0.46875,0.9375 0.46875,0.25 -0.75,-1.0625 -0.1875,-0.125 z m 0.125,1.03125 0.8125,1.15625 -0.71875,-0.40625 c 0,0 3.735,7.041808 9.96875,11.09375 6.23375,4.051937 15.26545,10.516228 29.1875,8.75 13.92204,-1.766232 13.3125,-17.375 13.3125,-17.375 -0.0099,0.02235 -0.02137,0.04022 -0.03125,0.0625 C 79.237268,61.874501 77.908829,73.251069 66.09375,74.75 52.1717,76.516228 43.14,70.051937 36.90625,66 31.597638,62.549399 28.264644,57.185524 27.34375,55.59375 l -0.5,-0.4375 z" fill="#000000" fill-opacity="1" fill-rule="evenodd" stroke="none" opacity="0.2" inkscape:connector-curvature="0"/>
    <path d="m 30.5625,50.0625 0,1 0.75,1.0625 0,-0.84375 0.71875,1.03125 0.09375,-0.625 0.75,0.75 0,-0.4375 1.53125,1.375 0.125,-0.75 c 0,0 15.99888,9.501345 27.09375,14.96875 8.781276,4.327278 12.983036,2.589189 17.75,-8.15625 0.02456,-0.612914 0.03125,-1.0625 0.03125,-1.0625 C 74.62704,69.180168 70.42448,70.929998 61.625,66.59375 50.53013,61.126345 34.53125,51.625 34.53125,51.625 l -0.125,0.75 L 32.875,51 l 0,0.4375 -0.75,-0.75 -0.09375,0.625 -0.71875,-1.03125 0,0.84375 -0.75,-1.0625 z m -0.8125,0.625 0,0.625 -0.9375,-0.5 0.21875,0.5 -0.84375,-0.40625 0.09375,1.03125 0.75,0.375 -0.21875,-0.5 0.9375,0.5 0,-0.625 0.8125,0.53125 0,-1 L 29.75,50.6875 z m -1.46875,1.25 -0.8125,-0.8125 0.28125,1.28125 0.53125,0.53125 -0.09375,-1.03125 0.09375,0.03125 z m -1.34375,0.21875 0.46875,1.21875 0.375,0.1875 -0.25,-1.125 -0.59375,-0.28125 z m -0.3125,0.53125 0.71875,1.84375 -0.15625,-0.09375 0.46875,0.59375 -0.71875,-1.875 0.0625,0.03125 -0.375,-0.5 z m 0.09375,1.4375 0.3125,0.65625 L 26.8125,54.1875 26.71875,54.125 z m 0.125,1.03125 0.0625,0.09375 0.15625,0.09375 -0.21875,-0.1875 z m 0.09375,0.75 c 0,0 0.245765,0.4101 0.40625,0.6875 l 0.21875,0.1875 -0.375,-0.71875 -0.25,-0.15625 z" fill="#ffffff" fill-opacity="1" fill-rule="evenodd" stroke="none" opacity="0.3" inkscape:connector-curvature="0"/>
    <path d="m 70.40625,2.5 c -0.64469,0.021557 -1.47388,0.3780012 -1.875,1.875 -0.23526,-1.1496689 -2.75,-0.875 -2.75,-0.875 0,0 0.83313,0.5887005 0.8125,1.03125 C 66.1618,4.580141 65.73337,4.6600707 65.3125,4.75 65.1301,4.3440195 65.365,3.531026 65.25,2.96875 64.89339,3.5088707 64.72896,4.286296 64.65625,4.90625 64.24669,5.0167609 63.86107,5.1599398 63.46875,5.3125 61.99827,2.8103745 59.58766,1.7030242 56.6875,3.5 55.11256,4.4758538 54.3729,6.020331 54.15625,7.75 49.55758,8.706163 44.36253,9.53125 39.8125,9.53125 c -11.13548,0 -17.4586,7.35433 -17.5625,19.40625 -0.1039,12.051924 1.66964,14.959418 2.8125,15.375 1.14285,0.415583 0.4375,-0.40625 0.4375,-0.40625 l 0.8125,0.53125 0,-0.53125 0.71875,0.09375 0.4375,-0.8125 0.9375,0 c 0,0 0.82265,-0.410313 0.71875,-1.96875 -0.10389,-1.55844 0.83117,-1.88921 0,-3.34375 -0.83116,-1.454543 -1.75608,-14.118104 -0.09375,-15.46875 1.66233,-1.350645 6.73946,-4.460228 10.6875,-5.1875 3.94804,-0.727272 6.76342,-1.787333 15.90625,-0.125 0.005,0.610928 0.0573,1.318855 0.15625,2.21875 0.52346,4.758769 2.1329,5.512224 4.28125,9.28125 2.61248,4.667419 6.36266,5.4722 10.90625,2.9375 3.74504,-2.189893 5.5408,-2.047165 8.375,-5.90625 0.58102,-0.791125 0.99353,-1.412331 1.3125,-1.96875 0.68098,-0.503482 1.35537,-1.018361 2,-1.4375 3.15491,-2.117052 6.89126,-6.567686 4.78125,-10.5 C 85.73146,8.5392847 82.87079,8.4757071 80.21875,10.1875 79.97692,9.8468274 79.7185,9.5332159 79.4375,9.21875 79.6371,8.801182 79.9332,8.0853867 79.90625,7.5 79.50048,7.9751958 79.37648,9.1003384 78.71875,8.4375 78.06103,7.7746601 79.375,7.65625 79.375,7.65625 c 0,0 -1.36521,-1.0398425 -1.90625,-0.40625 0.51093,-1.9068216 -1.03125,-2.03125 -1.03125,-2.03125 0,0 0.63883,0.6658989 0.40625,1.1875 C 76.76595,6.5805256 76.58866,6.6620442 76.375,6.6875 76.13953,6.5461869 75.90062,6.4102443 75.65625,6.28125 c -0.0549,-0.1555402 -0.0683,-0.3377612 0,-0.59375 C 75.24927,5.5424893 74.91638,5.650944 74.6875,5.84375 74.50967,5.764646 74.33733,5.6664995 74.15625,5.59375 L 74.5,3.9375 73.5625,5.375 C 73.42463,5.325803 73.29555,5.295519 73.15625,5.25 73.11335,4.6658326 72.85553,3.9843265 71.9375,3.8125 71.78188,4.39331 71.48707,4.6478411 71.15625,4.71875 70.91938,4.673438 70.67574,4.628388 70.4375,4.59375 70.11519,4.416771 69.87638,4.1205673 69.90625,3.8125 c 0.077,-0.7943371 1.375,-1.125 1.375,-1.125 0,0 -0.10893,-0.076821 -0.3125,-0.125 C 70.81608,2.526366 70.62115,2.492814 70.40625,2.5 z" fill="#000000" fill-opacity="1" fill-rule="evenodd" stroke="none" opacity="0.3" inkscape:connector-curvature="0"/>
    <path d="M 69.81226,5.6702611 C 69.19232,5.6909881 68.398533,6.0301829 68.012812,7.4697124 67.78658,6.3641788 65.364753,6.6313321 65.364753,6.6313321 c 0,0 0.796874,0.5457338 0.777038,0.9712949 -9.6e-5,0.00204 1.29e-4,0.0082 0,0.010225 -0.415369,0.047016 -0.822193,0.1077839 -1.226899,0.1942612 -0.1754,-0.3903951 0.0493,-1.1667438 -0.06135,-1.707434 -0.342932,0.5193854 -0.492418,1.2544182 -0.562329,1.850572 -0.394607,0.106477 -0.787591,0.2312226 -1.165555,0.3782946 -1.415643,-2.3832929 -3.705873,-3.448076 -6.482112,-1.7278831 -1.516543,0.9396674 -2.226124,2.4441262 -2.433351,4.1101113 -4.41904,0.918298 -9.431443,1.686986 -13.802612,1.686986 -10.707997,0 -16.780176,7.100508 -16.880083,18.68976 -0.09991,11.589256 1.308892,13.510591 2.407873,13.910221 1.098979,0.399628 0.398742,-0.398746 0.398742,-0.398746 l 0.797484,0.490761 0,-0.490761 0.695242,0.09203 0.408967,-0.797487 0.889502,0 c -10e-7,0 0.951028,-1.266771 0.851119,-2.765381 -0.0999,-1.498612 1.52752,-1.65581 0.72826,-3.05451 -0.799257,-1.398708 -1.889068,-11.66306 -0.830503,-13.429855 5.055842,-8.438429 18.888811,-8.344253 25.726493,-4.945977 0.493136,0.245083 0.05029,1.262212 0.143141,2.106176 0.503363,4.576081 2.0749,5.321802 4.140783,8.946137 2.512186,4.488239 6.110595,5.249038 10.479758,2.811643 3.601276,-2.105824 5.321018,-1.973695 8.046412,-5.684631 0.55467,-0.755244 0.961753,-1.35904 1.267795,-1.89147 0.656808,-0.485641 1.310629,-0.965788 1.932366,-1.370036 3.033795,-2.035779 6.619648,-6.309889 4.590647,-10.091244 -1.641311,-3.058837 -4.390969,-3.110502 -6.942202,-1.462054 -0.234293,-0.330795 -0.483923,-0.65593 -0.756587,-0.961071 0.19194,-0.401538 0.465551,-1.072952 0.439637,-1.635865 -0.390187,0.456953 -0.502404,1.547342 -1.134879,0.909949 -0.632475,-0.637394 0.654346,-0.756587 0.654346,-0.756587 0,-1e-6 -1.340537,-1.0182356 -1.860796,-0.408966 0.491319,-1.8336203 -0.991742,-1.9528143 -0.991742,-1.9528143 0,0 0.632611,0.6333044 0.408962,1.1348811 -0.07472,0.167586 -0.264853,0.282247 -0.470314,0.3067256 C 75.32157,9.5627 75.097988,9.4238846 74.862995,9.2998426 c -0.05281,-0.1495696 -0.06593,-0.3468401 0,-0.5930021 -0.391358,-0.1394472 -0.689859,-0.032049 -0.90995,0.1533572 -0.171002,-0.076067 -0.347297,-0.1447495 -0.52143,-0.2147074 l 0.31695,-1.6051925 -0.879282,1.3802611 C 72.736707,8.3732529 72.604485,8.3314164 72.470542,8.2876457 72.429307,7.7259034 72.177552,7.072614 71.294763,6.907384 71.145115,7.465897 70.846076,7.7184748 70.527956,7.7866618 70.300176,7.7430846 70.072029,7.7075035 69.842936,7.6741959 69.532995,7.5040114 69.313231,7.2036253 69.341954,6.907384 c 0.07406,-0.7638425 1.329139,-1.0837608 1.329139,-1.0837608 0,0 -0.121198,-0.055915 -0.316948,-0.1022422 C 70.207327,5.686636 70.018912,5.663351 69.81226,5.670264 z" fill="url(#radialGradient3580)" fill-opacity="1" fill-rule="evenodd" stroke="none" inkscape:connector-curvature="0"/>
    <path d="m 66.315706,3.6332407 c 0,0 -15.285846,4.8831054 -26.493446,4.8831054 -11.135484,0 -17.454505,7.3766069 -17.558401,19.4285269 -0.103897,12.051924 1.662334,14.961007 2.805189,15.376589 1.142854,0.415583 0.415583,-0.415582 0.415583,-0.415582 l 0.831166,0.519476 0,-0.519476 0.727271,0.103894 0.415584,-0.831166 0.935062,0 c 0,0 0.831168,-0.415583 0.72727,-1.97402 -0.103893,-1.55844 0.831168,-1.87013 0,-3.32467 -0.831166,-1.454543 -1.766227,-14.129839 -0.103893,-15.480485 1.662332,-1.350645 6.753231,-4.467521 10.701274,-5.194793 3.94804,-0.727272 6.753231,-1.766229 15.896066,-0.103896 C 64.757268,17.763078 67.45856,4.8799907 66.315706,3.6332407 z" fill="url(#radialGradient3577)" fill-opacity="1" fill-rule="evenodd" stroke="none" inkscape:connector-curvature="0"/>
    <path d="m 66.46875,3.96875 c -0.561084,3.999753 -3.764368,11.41216 -10.84375,10.125 -9.142835,-1.662333 -11.95821,-0.602272 -15.90625,0.125 -3.948043,0.727272 -9.025168,3.836855 -10.6875,5.1875 -0.753569,0.612275 -0.968561,3.552324 -0.90625,6.71875 0.05661,-2.322509 0.316624,-4.239679 0.90625,-4.71875 1.662332,-1.350645 6.739457,-4.460228 10.6875,-5.1875 3.94804,-0.727272 6.763415,-1.787333 15.90625,-0.125 8.611984,1.565815 11.49152,-9.760974 10.84375,-12.125 z m -44.1875,23.4375 c -0.0044,0.180889 -0.02967,0.348194 -0.03125,0.53125 -0.103897,12.051924 1.669645,14.959418 2.8125,15.375 1.142854,0.415583 0.4375,-0.40625 0.4375,-0.40625 l 0.8125,0.53125 0,-0.53125 0.71875,0.09375 0.4375,-0.8125 0.9375,0 c 0,0 0.822648,-0.410313 0.71875,-1.96875 -0.09823,-1.473492 0.70544,-1.86083 0.09375,-3.125 -0.07731,0.302538 -0.124172,0.668657 -0.09375,1.125 0.103898,1.558437 -0.71875,1.96875 -0.71875,1.96875 l -0.9375,0 -0.4375,0.8125 -0.71875,-0.09375 0,0.53125 L 25.5,40.90625 c 0,0 0.705354,0.821833 -0.4375,0.40625 -1.091985,-0.397084 -2.726168,-3.155887 -2.78125,-13.90625 z" fill="#000000" fill-opacity="1" fill-rule="evenodd" stroke="none" opacity="0.1" inkscape:connector-curvature="0"/>
    <path d="M 66.53125,4.375 C 66.214362,8.1855633 63.053555,16.444396 55.625,15.09375 c -9.142835,-1.662333 -11.95821,-0.602272 -15.90625,0.125 -3.948043,0.727272 -9.025168,3.836855 -10.6875,5.1875 -0.688457,0.559371 -0.948171,3.063574 -0.9375,5.90625 0.04614,-2.413183 0.330924,-4.413407 0.9375,-4.90625 1.662332,-1.350645 6.739457,-4.460228 10.6875,-5.1875 3.94804,-0.727272 6.763415,-1.787333 15.90625,-0.125 C 63.835021,17.586481 66.828841,7.3819994 66.53125,4.375 z M 22.3125,31.0625 c 0.206368,9.396824 1.715378,11.873775 2.75,12.25 1.142854,0.415583 0.4375,-0.40625 0.4375,-0.40625 l 0.8125,0.53125 0,-0.53125 0.71875,0.09375 0.4375,-0.8125 0.9375,0 c 0,0 0.822648,-0.410313 0.71875,-1.96875 -0.01146,-0.171887 -0.01006,-0.32399 0,-0.46875 -0.08949,1.123576 -0.71875,1.4375 -0.71875,1.4375 l -0.9375,0 -0.4375,0.8125 -0.71875,-0.09375 0,0.53125 L 25.5,41.90625 c 0,0 0.705354,0.821833 -0.4375,0.40625 -0.999998,-0.363634 -2.46591,-2.613654 -2.75,-11.25 z m 7.09375,6.46875 c -0.117967,0.446124 -0.332163,0.923784 -0.28125,1.6875 0.01146,0.171886 0.0089,0.323693 0,0.46875 0.07849,-0.899731 0.491888,-1.365394 0.28125,-2.15625 z" fill="#000000" fill-opacity="1" fill-rule="evenodd" stroke="none" opacity="0.2" inkscape:connector-curvature="0"/>
    <path d="m 26.736669,21.79735 c 2.045503,29.211129 -4.569551,19.588579 -4.149556,5.594815 0.0069,4.56976 -0.07746,9.246173 1.240231,13.637665 0.296601,0.733046 0.595542,1.65042 1.372069,2.006832 -1.074281,-1.454087 0.86358,0.189729 0.960167,-0.469884 1.038097,0.556161 0.818157,-1.205025 1.925567,-0.701988 0.711853,-0.07534 0.740186,-1.089748 0.722656,-1.650386 -0.153642,-1.123214 0.814338,-2.251557 -0.0097,-3.286129 -0.826366,-2.709161 -0.841713,-5.619109 -0.995072,-8.442088 0.03274,-2.322541 -0.209174,-4.804172 0.721633,-6.982679 1.170389,-1.250214 2.803025,-2.012931 4.248774,-2.891677 2.76222,-1.579128 5.780389,-2.663299 8.942019,-3.120373 4.804557,-1.09862 9.785032,-0.467526 14.563044,0.391944 C 39.99379,11.324291 30.900923,18.352086 26.736687,21.79735 z" fill="url(#linearGradient3572)" fill-opacity="1" fill-rule="evenodd" stroke="none" inkscape:connector-curvature="0"/>
    <path d="m 56.702763,2.4883168 c -3.793474,2.3504831 -2.790348,8.0635412 -1.116639,11.4744162 1.753947,3.447041 3.273185,8.986946 5.558099,7.174158 7.447022,-7.447023 3.292302,-23.4405096 -4.44146,-18.6485742 z" fill="url(#radialGradient3569)" fill-opacity="1" fill-rule="evenodd" stroke="none" inkscape:connector-curvature="0"/>
    <path d="m 87.438519,10.723939 c 2.110012,3.932314 -1.615255,8.378402 -4.770166,10.495454 -3.242481,2.108253 -7.328131,6.146332 -8.400529,3.433955 -2.725799,-10.172821 8.869031,-21.94623 13.170695,-13.929409 z" fill="url(#radialGradient3566)" fill-opacity="1" fill-rule="evenodd" stroke="none" inkscape:connector-curvature="0"/>
    <path d="M 70.960911,1.5729027 C 70.350205,1.4283663 69.063157,1.3891516 68.528332,3.38515 68.293071,2.2354811 65.774464,2.5131988 65.774464,2.5131988 c 0,0 0.827699,0.5716489 0.80707,1.0141984 -9.9e-5,0.00211 -0.0013,0.00388 -0.0017,0.00599 -0.431952,0.048891 -0.859926,0.1158709 -1.280789,0.2058002 -0.182403,-0.4059805 0.05523,-1.2156192 -0.05983,-1.7778952 -0.356617,0.5401207 -0.514667,1.3100845 -0.587372,1.9300385 -3.170254,0.8554261 -5.886096,2.9520693 -7.188277,6.5768103 -1.342245,3.103429 -2.219703,3.072589 -1.696238,7.831356 0.52346,4.758769 2.152408,5.528784 4.300764,9.29781 2.612481,4.667419 6.355786,5.455179 10.899377,2.920479 3.745045,-2.189893 5.539277,-2.042672 8.373477,-5.901757 2.834207,-3.859082 2.061862,-4.270307 2.452648,-7.628678 0.75364,-3.482027 -0.311253,-6.48578 -2.35913,-8.7775504 0.199601,-0.417568 0.484963,-1.1239688 0.458017,-1.7093555 -0.405771,0.4751958 -0.521873,1.6107109 -1.179601,0.9478725 -0.65772,-0.6628399 0.67736,-0.7888035 0.67736,-0.7888035 0,0 -1.388802,-1.054938 -1.929837,-0.4213455 0.51093,-1.9068216 -1.03225,-2.0320693 -1.03225,-2.0320693 0,0 0.65536,0.664121 0.422781,1.1857221 C 76.773181,5.566097 76.579213,5.676784 76.365553,5.7022398 76.130082,5.5609267 75.889931,5.4212625 75.645555,5.2922682 75.590637,5.136728 75.581248,4.9365892 75.64963,4.6806004 75.242648,4.5355897 74.930633,4.6423582 74.701751,4.835164 74.523924,4.7560602 74.343723,4.680473 74.162636,4.6077235 L 74.486749,2.9454725 73.57269,4.3794269 C 73.43482,4.3302297 73.295487,4.2878138 73.156195,4.2422948 73.113326,3.6581274 72.856972,2.977219 71.938942,2.8053925 71.783319,3.3862025 71.47508,3.651439 71.144263,3.7223479 70.907392,3.6770357 70.668098,3.6357817 70.429859,3.6011442 70.107549,3.4241652 69.87348,3.1106264 69.903347,2.8025591 c 0.07701,-0.7943371 1.385951,-1.1223902 1.385951,-1.1223902 0,0 -0.125179,-0.059058 -0.328748,-0.1072372 z" fill="#ffffff" fill-opacity="1" fill-rule="evenodd" stroke="none" inkscape:connector-curvature="0"/>
    <path d="m 80.563813,21.001931 3.611349,-2.60825 -1.008258,0.100548 1.895936,-1.483445 -1.74562,0.423877 2.798843,-1.755147 -2.48297,0.747193 2.753647,-2.045846 -2.136883,0.440183 2.347385,-1.619294 -2.317424,0.79881 1.745382,-1.9453 -2.091694,0.730885 0.782302,-1.554043 -1.188793,0.459174 0.556576,-1.48612 -0.963074,0.39125 0.36107,-0.7172527 -3.009583,1.4128337 c 0,0 0.846761,1.647049 1.084143,3.933938 0.237374,2.286886 -0.992334,5.776007 -0.992334,5.776007 z" fill="#ffffff" fill-opacity="1" fill-rule="evenodd" stroke="none" inkscape:connector-curvature="0"/>
    <path d="m 57.517442,14.826674 -1.823399,-4.064484 0.822909,0.591205 -0.90021,-2.232668 1.299811,1.239896 -1.546294,-2.9194216 1.776718,1.8885708 -1.361806,-3.1485756 1.630509,1.4496521 -1.223255,-2.5760456 1.607544,1.8505013 -0.538894,-2.5573681 1.446021,1.6788123 0.09952,-1.736995 0.79994,0.9920553 0.261047,-1.5653053 0.638423,0.8203669 0.04594,-0.8016915 1.899957,2.7283407 c 0,0 -1.556841,1.0030047 -2.905864,2.8648187 C 58.197038,11.19015 57.51744,14.826674 57.51744,14.826674 z" fill="#ffffff" fill-opacity="1" fill-rule="evenodd" stroke="none" inkscape:connector-curvature="0"/>
    <path d="m 60.24898,11.820403 c 0,0 5.770173,0.635005 4.249223,6.311265 -5.382957,-1.442359 1.234109,-4.842009 -4.249223,-6.311265 z" fill="#729fcf" fill-opacity="1" fill-rule="evenodd" stroke="none" inkscape:connector-curvature="0"/>
    <use xlink:href="#SVGCleanerId_4" fill="#000000" inkscape:connector-curvature="0" transform="matrix(0.25443 0.06818 -0.06818 0.25443 26.498 -40.758)"/>
    <use xlink:href="#SVGCleanerId_4" fill="url(#linearGradient5020)" inkscape:connector-curvature="0" transform="matrix(0.10032 0.02688 -0.01252 0.04671 45.22 3.531)"/>
    <use xlink:href="#SVGCleanerId_4" fill="url(#radialGradient5022)" inkscape:connector-curvature="0" transform="matrix(0.15839 0.04244 -0.02389 0.08915 36.951 -8.626)"/>
    <path d="m 78.337652,16.667252 c 0,0 -5.314617,-2.335157 -6.835565,3.341104 5.382955,1.442358 1.352233,-4.810359 6.835565,-3.341104 z" fill="#729fcf" fill-opacity="1" fill-rule="evenodd" stroke="none" inkscape:connector-curvature="0"/>
    <use xlink:href="#SVGCleanerId_4" fill="#000000" inkscape:connector-curvature="0" transform="matrix(-0.25443 -0.06818 -0.06818 0.25443 133.86 -11.992)"/>
    <use xlink:href="#SVGCleanerId_4" fill="url(#linearGradient5020)" inkscape:connector-curvature="0" transform="matrix(-0.10032 -0.02688 -0.01252 0.04671 95.5 17)"/>
    <use xlink:href="#SVGCleanerId_4" fill="url(#radialGradient5022)" inkscape:connector-curvature="0" transform="matrix(-0.15839 -0.04244 -0.02389 0.08915 108.74 10.609)"/>
    <path d="m 56.554843,14.201515 c -0.26572,-0.03913 -0.568127,0.131422 -0.732718,0.46794 -0.131485,0.835229 -0.126912,1.917483 0.06061,3.622279 0.518772,4.716145 2.133128,5.479262 4.262243,9.214531 0.402001,0.718206 0.8313,1.347033 1.286107,1.881921 -0.07413,-0.370741 0.06367,-0.906857 -0.114257,-1.226302 -0.761612,-0.03579 -0.317132,-0.550971 0.125709,-0.776094 0.825669,-0.689789 -0.329,0.09862 -0.636551,0.03821 0.211596,-1.003297 1.085223,-1.707338 1.732556,-2.452224 0.881479,-0.721303 -0.231952,-1.513564 -1.000381,-1.508023 -0.398358,-0.307469 -1.84466,0.292838 -1.444017,-0.513451 0.308535,-0.646773 0.528792,-1.203441 1.098259,-1.666901 -0.371157,-0.0377 -1.783419,1.027513 -1.27773,-7.48e-4 0.468397,-0.867009 -0.789833,-0.165283 -1.075461,0.04713 -0.915675,0.512114 -0.199271,-0.533629 0.125714,-0.776091 0.619813,-0.475767 0.05525,-0.907496 -0.495673,-0.581991 -1.121312,0.275463 0.288872,-0.530185 0.627119,-0.711329 -0.268983,-0.166609 -0.916109,0.348376 -1.357236,0.319579 -0.0074,-0.444891 0.782032,-0.706016 1.086511,-1.056389 0.862452,-0.649105 -0.394395,-0.49307 -0.798741,-0.277289 -0.85507,0.221688 0.04535,-0.413306 0.35842,-0.511291 0.782887,-0.503037 -0.456037,-0.247442 -0.734771,-0.114646 -1.270962,0.429079 -0.5367,-0.936013 -0.01026,-1.331278 0.514283,-0.956568 -0.530101,0.413836 -0.848197,-0.06911 -0.540256,-0.599297 0.549642,-0.991707 0.261845,-1.378582 -0.05415,-0.401458 -0.262954,-0.605085 -0.499148,-0.639856 z m 24.112101,6.460819 c -0.202847,-0.03483 -0.439617,0.05664 -0.651861,0.331445 -0.44268,0.191144 0.304992,1.075927 -0.462529,1.324807 -0.516952,0.2592 -0.736212,-1.4498 -0.76912,-0.364246 0.25832,0.605552 0.211666,2.154889 -0.67448,1.147813 -0.17499,-0.254368 -1.120133,-1.095184 -0.693657,-0.268106 0.22214,0.241397 0.678524,1.239944 0.04886,0.620423 -0.24228,-0.389046 -1.246822,-1.151017 -0.824469,-0.157651 0.0885,0.45567 0.635667,1.074926 0.406846,1.456533 -0.396421,-0.195624 -0.693452,-0.963597 -1.009707,-0.953798 0.202358,0.325996 1.014892,1.727218 0.181535,0.928008 -0.314356,-0.557355 -1.013245,-0.464171 -0.714356,0.257762 0.16021,0.37247 0.257762,1.636311 -0.279176,0.734972 -0.141156,-0.326768 -0.879947,-1.563597 -0.90782,-0.578546 -0.07618,1.143339 -0.772529,-0.486882 -1.112818,-0.639804 0.261444,0.6861 0.17386,1.278319 0.117674,1.992709 -0.05614,0.898587 -1.002657,-0.342866 -1.501377,-0.275767 -0.662701,-0.389015 -2.023094,-0.25961 -1.620359,0.805795 0.188163,0.968758 0.586822,2.013708 0.268418,2.988386 -0.296549,-0.101461 -0.896416,-1.359991 -0.526261,-0.349782 0.270956,0.416383 0.398292,1.084783 -0.279176,0.734971 -0.27346,0.163551 -0.422233,0.58876 -0.622603,0.883356 0.617622,-0.223963 1.254377,-0.517384 1.906232,-0.881032 3.711505,-2.170278 5.489665,-2.024374 8.298476,-5.848892 1.076958,-1.4664 1.628389,-2.430529 1.920882,-3.249501 -0.0298,-0.343284 -0.237538,-0.594946 -0.499143,-0.639855 z m -18.661636,9.132767 c -0.08796,0.0026 -0.157692,-0.0062 -0.221983,-0.02153 0.118936,0.124321 0.237933,0.243174 0.360143,0.355883 -0.03419,-0.131178 -0.07455,-0.251542 -0.13816,-0.33436 z m 6.239043,1.671747 c -0.0598,0.02474 -0.122124,0.05943 -0.181201,0.109606 0.08821,-0.02176 0.175997,-0.04331 0.264996,-0.06817 -0.02766,-0.01375 -0.05426,-0.02326 -0.08379,-0.04143 z m -4.995349,-0.528724 c -0.0149,-0.004 -0.03413,8.84e-4 -0.05038,-8.17e-4 0.07303,0.04504 0.144694,0.08669 0.218706,0.128193 -0.04492,-0.06027 -0.09804,-0.108696 -0.168321,-0.127344 z" fill="url(#radialGradient3550)" fill-opacity="1" fill-rule="evenodd" stroke="none" inkscape:connector-curvature="0"/>
    <path d="m 64.214774,26.278816 c -1.236344,0.07076 -1.52466,0.237687 -1.31111,1.256832 0.213547,1.019142 0.802197,2.454504 2.165303,2.819747 1.363105,0.365244 2.592097,-0.583082 3.287117,-1.358776 0.695018,-0.775695 0.879446,-0.805519 -0.50704,-1.744005 -1.386483,-0.938485 -2.397922,-1.044557 -3.63427,-0.973798 z" fill="#000000" fill-opacity="1" fill-rule="evenodd" stroke="none" inkscape:connector-curvature="0"/>
    <path d="m 64.396435,26.548549 c -1.079349,0.06177 -1.331055,0.207506 -1.144623,1.097235 0.186431,0.889732 2.814586,-0.987621 1.890347,2.461692 0.921343,-3.438498 2.26295,-0.509043 2.869714,-1.186237 0.606761,-0.677195 0.76777,-0.703231 -0.442655,-1.522545 -1.210429,-0.819315 -2.093433,-0.911916 -3.172783,-0.850145 z" fill="url(#radialGradient3546)" fill-opacity="1" fill-rule="evenodd" stroke="none" inkscape:connector-curvature="0"/>
    <path d="m 69.352283,12.977559 c 0,0 1.452848,0.660946 1.002304,2.849316 1.84457,-1.81484 0.950805,-3.548444 0.950805,-3.548444 0,0 2.052535,0.957464 1.416447,2.824458 1.683888,-1.722066 0.790113,-3.455669 0.790113,-3.455669 0,0 2.00283,0.129167 2.204133,1.405567 -0.03151,-1.91005 -1.47527,-3.1118753 -1.47527,-3.1118753 0,0 3.455673,0.7901143 2.853539,2.5303783 1.321893,-2.9056927 -1.212704,-3.5848374 -1.212704,-3.5848374 0,0 1.724499,-0.3528942 2.778959,1.2879364 -0.402612,-2.5527994 -2.12477,-3.0265921 -2.12477,-3.0265921 1.792715,0.7726444 2.491605,2.1125609 2.350938,4.7171391 -0.108535,-1.115712 -1.561029,-1.9278261 -1.561029,-1.9278261 0,0 1.354608,0.9124661 -0.347468,3.7162881 0.154024,-1.588676 -1.488362,-2.291158 -1.488362,-2.291158 0,0 1.236364,1.664914 -0.215273,3.338036 0.246792,-1.427987 -0.893775,-1.7336 -0.893775,-1.7336 0,0 0.115189,2.611615 -2.48066,3.681832 0.466295,-1.233343 -0.124295,-2.070736 -0.124295,-2.070736 0,0 0.201311,1.276399 -2.32663,2.093157 0.880445,-1.258203 -0.097,-3.69337 -0.097,-3.69337 z" fill="url(#radialGradient3543)" fill-opacity="1" fill-rule="evenodd" stroke="none" inkscape:connector-curvature="0"/>
    <path d="m 70.3125,1.5 c 0.04273,0.030413 0.07818,0.06804 0.125,0.09375 0.238239,0.034638 0.481879,0.079688 0.71875,0.125 C 71.18684,1.71219 71.22011,1.697309 71.25,1.6875 71.23293,1.676113 71.15477,1.606526 70.96875,1.5625 70.816074,1.526366 70.621148,1.492814 70.40625,1.5 70.37706,1.5009762 70.34239,1.49758 70.3125,1.5 z m 9.59375,5 C 79.86411,6.549347 79.84947,6.6268648 79.8125,6.6875 79.836,6.716365 79.85182,6.75216 79.875,6.78125 79.8841,6.688739 79.9103,6.588067 79.90625,6.5 z m -25.75,0.34375 c -0.269271,2.4129901 0.470794,5.154937 1.4375,7.125 0.01005,0.01976 0.02087,0.04204 0.03125,0.0625 -0.0016,-0.678569 0.05674,-1.224919 0.15625,-1.6875 -0.05981,-0.123118 -0.12718,-0.256449 -0.1875,-0.375 -0.707967,-1.442775 -1.277042,-3.2882947 -1.4375,-5.125 z m 33.8125,5.3125 c -0.50734,2.851397 -3.0609,5.551597 -5.3125,7.0625 -0.64463,0.419139 -1.31902,0.934018 -2,1.4375 -0.31897,0.556419 -0.731478,1.177625 -1.3125,1.96875 -2.8342,3.859085 -4.629955,3.716357 -8.375,5.90625 -4.543591,2.5347 -8.293769,1.729919 -10.90625,-2.9375 -2.148356,-3.769026 -3.75779,-4.522481 -4.28125,-9.28125 -0.05101,-0.463688 -0.100008,-0.87072 -0.125,-1.25 -0.07699,0.784581 -0.0356,1.790038 0.125,3.25 0.52346,4.758769 2.132894,5.512224 4.28125,9.28125 2.612481,4.667419 6.362659,5.4722 10.90625,2.9375 3.745045,-2.189893 5.5408,-2.047165 8.375,-5.90625 0.581022,-0.791125 0.99353,-1.412331 1.3125,-1.96875 0.68098,-0.503482 1.35537,-1.018361 2,-1.4375 2.77601,-1.862798 6.01506,-5.529097 5.3125,-9.0625 z" fill="#000000" fill-opacity="1" fill-rule="evenodd" stroke="none" opacity="0.1" inkscape:connector-curvature="0"/>
    <path d="M 68.830498,4.5943198 C 68.309759,4.3637763 66.720574,4.0337067 65.545915,4.4382277 c 1.544382,-0.6394289 3.338228,1.2455538 3.338228,1.2455538 0,0 -2.552018,-0.5693053 -3.530111,0.6352379 2.784385,-0.8403516 3.652508,1.5093421 3.652508,1.5093421 0,0 -1.868604,-1.1014617 -3.132718,0.083693 1.2401,-0.512883 3.060645,1.0776068 3.060645,1.0776068 0,0 -1.155331,0.041515 -1.885196,1.4843267 0.922835,-0.454891 2.233162,-0.220818 2.233162,-0.220818 -1.06876,0.136964 -1.599226,0.316026 -2.894656,1.115076 0.855591,-1.6723483 1.715177,-2.1408161 1.715177,-2.1408161 0,0 -2.260277,-1.4009649 -3.326272,-0.4641359 1.7518,-1.9755276 3.173477,-1.353565 3.173477,-1.353565 0,0 -2.333646,-1.2738115 -3.4336,-0.2102539 1.089485,-1.842037 3.183963,-1.694661 3.183963,-1.694661 0,0 -0.89657,-0.9962601 -2.792237,-0.7811237 2.410313,-1.3915939 4.44295,0.1011726 3.922213,-0.1293706 z" fill="url(#radialGradient3539)" fill-opacity="1" fill-rule="evenodd" stroke="none" inkscape:connector-curvature="0"/>
    <path d="m 70.40625,1.5 c -0.141711,0.00474 -0.284466,0.048093 -0.4375,0.09375 -0.02759,0.067724 -0.05512,0.142626 -0.0625,0.21875 -0.01867,0.1925421 0.07272,0.3741876 0.21875,0.53125 0.389033,-0.4531634 1.15625,-0.65625 1.15625,-0.65625 0,0 -0.108931,-0.076821 -0.3125,-0.125 C 70.816074,1.5263659 70.621148,1.4928143 70.40625,1.5 z M 65.25,1.96875 c -0.01286,0.2065358 0.0064,0.3984741 0.03125,0.5625 0.0077,-0.1959016 0.0032,-0.3939416 -0.03125,-0.5625 z m 0.9375,0.5 C 65.948067,2.4765366 65.78125,2.5 65.78125,2.5 c 0,0 0.09986,0.1123581 0.15625,0.15625 0.219561,-0.038661 0.434282,-0.099876 0.65625,-0.125 9.92e-4,-0.021276 0.0028,-0.04063 0,-0.0625 -0.13893,-0.00307 -0.295226,-0.00361 -0.40625,0 z M 74.5,2.9375 74.1875,3.40625 74.15625,3.59375 c 0.06464,0.025967 0.124445,0.063332 0.1875,0.09375 L 74.5,2.9375 z m 1.9375,1.28125 c 0,0 0.133835,0.1619169 0.25,0.34375 0.0624,-0.043062 0.123853,-0.083635 0.15625,-0.15625 0.01018,-0.02282 0.02428,-0.039195 0.03125,-0.0625 -0.232233,-0.1098483 -0.4375,-0.125 -0.4375,-0.125 z M 77.5,5.0625 C 77.48641,5.129231 77.48796,5.1783194 77.46875,5.25 77.48471,5.231313 77.51391,5.234596 77.53125,5.21875 77.520328,5.1637371 77.515907,5.1116061 77.5,5.0625 z m 1.0625,1.125 c 0.0224,0.074618 0.0607,0.1537091 0.15625,0.25 0.232473,0.2342791 0.396122,0.2298043 0.53125,0.125 C 79.116623,6.469309 78.878541,6.3181657 78.5625,6.1875 z M 79.90625,6.5 c -0.176209,0.2063567 -0.300781,0.5294066 -0.4375,0.78125 0.08412,0.094971 0.16977,0.1853862 0.25,0.28125 C 79.837368,7.2207613 79.921767,6.837102 79.90625,6.5 z M 54.125,7.34375 c -0.125786,2.2858311 0.567463,4.788254 1.46875,6.625 0.01609,0.03161 0.04569,0.06051 0.0625,0.09375 0.02566,-0.261527 0.07734,-0.497224 0.125,-0.71875 -0.05981,-0.123118 -0.12718,-0.256449 -0.1875,-0.375 -0.772422,-1.574129 -1.382286,-3.6283172 -1.46875,-5.625 z m 33.90625,5.375 c -0.308574,3.009923 -3.008817,5.912211 -5.375,7.5 -0.644633,0.419139 -1.319018,0.934018 -2,1.4375 -0.318975,0.556419 -0.731478,1.177625 -1.3125,1.96875 -2.8342,3.859085 -4.629955,3.716357 -8.375,5.90625 -4.543591,2.5347 -8.293769,1.729919 -10.90625,-2.9375 -2.148356,-3.769026 -3.75779,-4.522481 -4.28125,-9.28125 -0.0787,-0.71547 -0.107,-1.288196 -0.125,-1.8125 -0.03465,0.720337 -0.0089,1.595555 0.125,2.8125 0.52346,4.758769 2.132894,5.512224 4.28125,9.28125 2.612481,4.667419 6.362659,5.4722 10.90625,2.9375 3.745045,-2.189893 5.5408,-2.047165 8.375,-5.90625 0.581022,-0.791125 0.993525,-1.412331 1.3125,-1.96875 0.680982,-0.503482 1.355367,-1.018361 2,-1.4375 2.629092,-1.76421 5.658145,-5.14511 5.375,-8.5 z" fill="#000000" fill-opacity="1" fill-rule="evenodd" stroke="none" opacity="0.2" inkscape:connector-curvature="0"/>
   </g>
  </g>
  <rect x="-96" rx="25" y="958.36" clip-path="url(#clipPath3009)" fill="#ffffff" fill-opacity="1" height="92" opacity="0.15" width="92" transform="matrix(1 0 0 1 98 0)"/>
 </g>
</svg>
