<?xml version="1.0" encoding="UTF-8" standalone="no"?>
<!-- Created with Inkscape (http://www.inkscape.org/) -->

<svg
   xmlns:dc="http://purl.org/dc/elements/1.1/"
   xmlns:cc="http://creativecommons.org/ns#"
   xmlns:rdf="http://www.w3.org/1999/02/22-rdf-syntax-ns#"
   xmlns:svg="http://www.w3.org/2000/svg"
   xmlns="http://www.w3.org/2000/svg"
   xmlns:xlink="http://www.w3.org/1999/xlink"
   xmlns:sodipodi="http://sodipodi.sourceforge.net/DTD/sodipodi-0.dtd"
   xmlns:inkscape="http://www.inkscape.org/namespaces/inkscape"
   id="svg11037"
   height="96"
   width="96"
   version="1.1"
   inkscape:version="0.48.5 r10040"
   sodipodi:docname="im-chooser.svg">
  <sodipodi:namedview
     pagecolor="#ffffff"
     bordercolor="#666666"
     borderopacity="1"
     objecttolerance="10"
     gridtolerance="10"
     guidetolerance="10"
     inkscape:pageopacity="0"
     inkscape:pageshadow="2"
     inkscape:window-width="640"
     inkscape:window-height="480"
     id="namedview9770" />
  <defs
     id="defs11039">
    <linearGradient
       id="linearGradient11642"
       y2="1046.1"
       gradientUnits="userSpaceOnUse"
       y1="962.62"
       gradientTransform="matrix(1.15 0 0 1.15 -7.1999 -150.65)"
       x2="48"
       x1="48">
      <stop
         id="stop3643"
         style="stop-color:#b4b4b4"
         offset="0" />
      <stop
         id="stop3645"
         style="stop-color:#dcdcdc"
         offset="1" />
    </linearGradient>
    <linearGradient
       id="linearGradient3875"
       y2="6"
       xlink:href="#linearGradient3825"
       gradientUnits="userSpaceOnUse"
       x2="32.071"
       gradientTransform="matrix(.21429 0 0 .21429 14.714 18.714)"
       y1="90"
       x1="63.536" />
    <linearGradient
       id="linearGradient3825">
      <stop
         id="stop3827"
         style="stop-color:#b3b3b3"
         offset="0" />
      <stop
         id="stop3829"
         style="stop-color:#d2d2d2"
         offset="1" />
    </linearGradient>
    <linearGradient
       id="linearGradient3872"
       y2="84.286"
       xlink:href="#linearGradient3672"
       gradientUnits="userSpaceOnUse"
       x2="48"
       gradientTransform="matrix(-.21429 0 0 -.21429 35.286 39.286)"
       y1="48"
       x1="13.321" />
    <linearGradient
       id="linearGradient3672">
      <stop
         id="stop3674"
         style="stop-color:#fff;stop-opacity:0"
         offset="0" />
      <stop
         id="stop3676"
         style="stop-color:#fff;stop-opacity:0"
         offset="0.3" />
      <stop
         id="stop3678"
         style="stop-color:#fff;stop-opacity:.61240"
         offset=".5" />
      <stop
         id="stop3680"
         style="stop-color:#fff;stop-opacity:0"
         offset=".75265" />
      <stop
         id="stop3682"
         style="stop-color:#fff;stop-opacity:0"
         offset="1" />
    </linearGradient>
    <linearGradient
       id="linearGradient3868"
       y2="84.286"
       xlink:href="#linearGradient3672"
       gradientUnits="userSpaceOnUse"
       x2="48"
       gradientTransform="matrix(.21429 0 0 -.21429 14.714 39.286)"
       y1="48"
       x1="13.321" />
    <linearGradient
       id="linearGradient3865"
       y2="81.071"
       xlink:href="#linearGradient3650-2"
       gradientUnits="userSpaceOnUse"
       x2="48"
       gradientTransform="matrix(.21429 0 0 .21429 14.714 18.714)"
       y1="48"
       x1="6" />
    <linearGradient
       id="linearGradient3650-2">
      <stop
         id="stop3652"
         style="stop-opacity:0"
         offset="0" />
      <stop
         id="stop3660"
         style="stop-opacity:0"
         offset="0.3" />
      <stop
         id="stop3658"
         style="stop-opacity:.11765"
         offset=".5" />
      <stop
         id="stop3662"
         style="stop-opacity:0"
         offset="0.7" />
      <stop
         id="stop3654-5"
         style="stop-opacity:0"
         offset="1" />
    </linearGradient>
    <linearGradient
       id="linearGradient3862"
       y2="81.071"
       xlink:href="#linearGradient3650-2"
       gradientUnits="userSpaceOnUse"
       x2="48"
       gradientTransform="matrix(-.21429 0 0 .21429 35.286 18.714)"
       y1="48"
       x1="6" />
    <linearGradient
       id="linearGradient3882"
       y2="46"
       xlink:href="#linearGradient3622"
       gradientUnits="userSpaceOnUse"
       x2="80"
       gradientTransform="matrix(.21875 0 0 .21875 18.5 -35.062)"
       y1="46"
       x1="16" />
    <linearGradient
       id="linearGradient3622">
      <stop
         id="stop3624"
         style="stop-color:#d6d6d6"
         offset="0" />
      <stop
         id="stop3626"
         style="stop-color:#eaeaea"
         offset="1" />
    </linearGradient>
    <linearGradient
       id="linearGradient3900"
       y2="21.964"
       xlink:href="#linearGradient3737-4"
       gradientUnits="userSpaceOnUse"
       x2="25"
       y1="36"
       x1="25" />
    <linearGradient
       id="linearGradient3737-4">
      <stop
         id="stop3739-4"
         style="stop-color:#fff"
         offset="0" />
      <stop
         id="stop3741-9"
         style="stop-color:#fff;stop-opacity:0"
         offset="1" />
    </linearGradient>
    <linearGradient
       id="linearGradient4213"
       y2="6"
       xlink:href="#linearGradient3825"
       gradientUnits="userSpaceOnUse"
       x2="32.071"
       gradientTransform="matrix(.21429 0 0 .21429 16.714 58.714)"
       y1="90"
       x1="63.536" />
    <linearGradient
       id="linearGradient4210"
       y2="84.286"
       xlink:href="#linearGradient3672"
       gradientUnits="userSpaceOnUse"
       x2="48"
       gradientTransform="matrix(-.21429 0 0 -.21429 57.286 79.286)"
       y1="48"
       x1="13.321" />
    <linearGradient
       id="linearGradient4207"
       y2="84.286"
       xlink:href="#linearGradient3672"
       gradientUnits="userSpaceOnUse"
       x2="48"
       gradientTransform="matrix(.21429 0 0 -.21429 16.714 79.286)"
       y1="48"
       x1="13.321" />
    <linearGradient
       id="linearGradient4204"
       y2="81.071"
       xlink:href="#linearGradient3650-2"
       gradientUnits="userSpaceOnUse"
       x2="48"
       gradientTransform="matrix(.21429 0 0 .21429 16.714 58.714)"
       y1="48"
       x1="6" />
    <linearGradient
       id="linearGradient4201"
       y2="81.071"
       xlink:href="#linearGradient3650-2"
       gradientUnits="userSpaceOnUse"
       x2="48"
       gradientTransform="matrix(-.21429 0 0 .21429 57.286 58.714)"
       y1="48"
       x1="6" />
    <linearGradient
       id="linearGradient4198"
       y2="46"
       xlink:href="#linearGradient3622"
       gradientUnits="userSpaceOnUse"
       x2="80"
       gradientTransform="matrix(.21875 0 0 .21875 58.5 -37.062)"
       y1="46"
       x1="16" />
    <linearGradient
       id="linearGradient4195"
       y2="21.964"
       xlink:href="#linearGradient3737-4"
       gradientUnits="userSpaceOnUse"
       x2="25"
       gradientTransform="translate(2,40)"
       y1="36"
       x1="25" />
    <linearGradient
       id="linearGradient3947"
       y2="14"
       gradientUnits="userSpaceOnUse"
       x2="72"
       gradientTransform="translate(-20,-4)"
       y1="50"
       x1="72">
      <stop
         id="stop3943"
         style="stop-color:#51c200"
         offset="0" />
      <stop
         id="stop3945"
         style="stop-color:#94df22"
         offset="1" />
    </linearGradient>
    <clipPath
       id="clipPath3009"
       clipPathUnits="userSpaceOnUse">
      <path
         id="path3011"
         style="opacity:.15;fill:#fff"
         d="m-2 956.36h-96v33.562l96 25.687v-59.25z" />
    </clipPath>
  </defs>
  <metadata
     id="metadata11042">
    <rdf:RDF>
      <cc:Work
         rdf:about="">
        <dc:format>image/svg+xml</dc:format>
        <dc:type
           rdf:resource="http://purl.org/dc/dcmitype/StillImage" />
        <dc:title />
      </cc:Work>
    </rdf:RDF>
  </metadata>
  <g
     id="layer1"
     transform="translate(0 -956.36)">
    <rect
       id="rect3867"
       style="fill:url(#linearGradient11642)"
       rx="25"
       ry="25"
       height="92"
       width="92"
       y="958.36"
       x="2" />
    <g
       id="g3222"
       transform="translate(0 956.36)">
      <g
         id="layer3">
        <path
           id="rect3914"
           d="m17 18c-1.662 0-3 1.338-3 3v16c0 1.662 1.338 3 3 3h3v1 1 15 1h-1c-1.662 0-3 1.338-3 3v16c0 1.662 1.338 3 3 3h56c1.662 0 3-1.338 3-3v-16-1h1c1.662 0 3-1.338 3-3v-16c0-1.662-1.338-3-3-3h-3v-1-1-15c0-1.662-1.338-3-3-3h-56z"
           style="opacity:.7;color:#000000" />
        <g
           id="g3959">
          <rect
             id="rect2419-0"
             style="fill:url(#linearGradient3875)"
             rx="1.2857"
             ry="1.2857"
             height="18"
             width="18"
             y="20"
             x="16" />
          <path
             id="path3684"
             d="m34 29v-7.7143c0-0.713-0.573-1.286-1.286-1.286h-7.714v9h9z"
             style="fill:url(#linearGradient3872)" />
          <path
             id="path3668"
             d="m16 29v-7.7143c0-0.713 0.573-1.286 1.286-1.286h7.714v9h-9z"
             style="fill:url(#linearGradient3868)" />
          <path
             id="rect3643"
             d="m16 29v7.7143c0 0.713 0.573 1.286 1.286 1.286h7.714v-9h-9z"
             style="fill:url(#linearGradient3865)" />
          <path
             id="path3664"
             d="m34 29v7.7143c0 0.713-0.573 1.286-1.286 1.286h-7.714v-9h9z"
             style="fill:url(#linearGradient3862)" />
          <rect
             id="rect3877"
             style="fill:url(#linearGradient3882)"
             rx="1.2727"
             ry="1.2727"
             transform="rotate(90)"
             width="14"
             y="-32"
             x="22"
             height="14" />
          <path
             id="rect3886"
             d="m19.281 22c-0.705 0-1.281 0.576-1.281 1.281v11.438c0 0.705 0.576 1.281 1.281 1.281h11.438c0.705 0 1.281-0.576 1.281-1.281v-11.438c0-0.705-0.576-1.281-1.281-1.281h-11.438zm0 1.0938h11.438c0.11617 0 0.1875 0.07133 0.1875 0.1875v11.438c0 0.11617-0.07133 0.1875-0.1875 0.1875h-11.438c-0.11617 0-0.1875-0.07133-0.1875-0.1875v-11.438c0-0.11617 0.07133-0.1875 0.1875-0.1875z"
             style="fill:url(#linearGradient3900)" />
          <path
             id="path3915"
             d="m17.281 19c-1.245 0-2.281 1.036-2.281 2.281v15.438c0 1.245 1.036 2.281 2.281 2.281h15.438c1.245 0 2.281-1.036 2.281-2.281v-15.438c0-1.245-1.036-2.281-2.281-2.281h-15.438zm0 1h15.438c0.712 0 1.281 0.569 1.281 1.281v15.438c0 0.712-0.569 1.281-1.281 1.281h-15.438c-0.712 0-1.281-0.569-1.281-1.281v-15.438c0-0.712 0.569-1.281 1.281-1.281z"
             style="opacity:.2;fill:#fff" />
        </g>
        <g
           id="g3969"
           transform="translate(20)">
          <rect
             id="rect3971"
             style="fill:url(#linearGradient3875)"
             rx="1.2857"
             ry="1.2857"
             height="18"
             width="18"
             y="20"
             x="16" />
          <path
             id="path3973"
             d="m34 29v-7.7143c0-0.713-0.573-1.286-1.286-1.286h-7.714v9h9z"
             style="fill:url(#linearGradient3872)" />
          <path
             id="path3975"
             d="m16 29v-7.7143c0-0.713 0.573-1.286 1.286-1.286h7.714v9h-9z"
             style="fill:url(#linearGradient3868)" />
          <path
             id="path3977"
             d="m16 29v7.7143c0 0.713 0.573 1.286 1.286 1.286h7.714v-9h-9z"
             style="fill:url(#linearGradient3865)" />
          <path
             id="path3979"
             d="m34 29v7.7143c0 0.713-0.573 1.286-1.286 1.286h-7.714v-9h9z"
             style="fill:url(#linearGradient3862)" />
          <rect
             id="rect3981"
             style="fill:url(#linearGradient3882)"
             rx="1.2727"
             ry="1.2727"
             transform="rotate(90)"
             width="14"
             y="-32"
             x="22"
             height="14" />
          <path
             id="path3983"
             d="m19.281 22c-0.705 0-1.281 0.576-1.281 1.281v11.438c0 0.705 0.576 1.281 1.281 1.281h11.438c0.705 0 1.281-0.576 1.281-1.281v-11.438c0-0.705-0.576-1.281-1.281-1.281h-11.438zm0 1.0938h11.438c0.11617 0 0.1875 0.07133 0.1875 0.1875v11.438c0 0.11617-0.07133 0.1875-0.1875 0.1875h-11.438c-0.11617 0-0.1875-0.07133-0.1875-0.1875v-11.438c0-0.11617 0.07133-0.1875 0.1875-0.1875z"
             style="fill:url(#linearGradient3900)" />
          <path
             id="path3985"
             d="m17.281 19c-1.245 0-2.281 1.036-2.281 2.281v15.438c0 1.245 1.036 2.281 2.281 2.281h15.438c1.245 0 2.281-1.036 2.281-2.281v-15.438c0-1.245-1.036-2.281-2.281-2.281h-15.438zm0 1h15.438c0.712 0 1.281 0.569 1.281 1.281v15.438c0 0.712-0.569 1.281-1.281 1.281h-15.438c-0.712 0-1.281-0.569-1.281-1.281v-15.438c0-0.712 0.569-1.281 1.281-1.281z"
             style="opacity:.2;fill:#fff" />
        </g>
        <g
           id="g4001"
           transform="translate(40)">
          <rect
             id="rect4003"
             style="fill:url(#linearGradient3875)"
             rx="1.2857"
             ry="1.2857"
             height="18"
             width="18"
             y="20"
             x="16" />
          <path
             id="path4005"
             d="m34 29v-7.7143c0-0.713-0.573-1.286-1.286-1.286h-7.714v9h9z"
             style="fill:url(#linearGradient3872)" />
          <path
             id="path4007"
             d="m16 29v-7.7143c0-0.713 0.573-1.286 1.286-1.286h7.714v9h-9z"
             style="fill:url(#linearGradient3868)" />
          <path
             id="path4009"
             d="m16 29v7.7143c0 0.713 0.573 1.286 1.286 1.286h7.714v-9h-9z"
             style="fill:url(#linearGradient3865)" />
          <path
             id="path4011"
             d="m34 29v7.7143c0 0.713-0.573 1.286-1.286 1.286h-7.714v-9h9z"
             style="fill:url(#linearGradient3862)" />
          <rect
             id="rect4013"
             style="fill:url(#linearGradient3882)"
             rx="1.2727"
             ry="1.2727"
             transform="rotate(90)"
             width="14"
             y="-32"
             x="22"
             height="14" />
          <path
             id="path4015"
             d="m19.281 22c-0.705 0-1.281 0.576-1.281 1.281v11.438c0 0.705 0.576 1.281 1.281 1.281h11.438c0.705 0 1.281-0.576 1.281-1.281v-11.438c0-0.705-0.576-1.281-1.281-1.281h-11.438zm0 1.0938h11.438c0.11617 0 0.1875 0.07133 0.1875 0.1875v11.438c0 0.11617-0.07133 0.1875-0.1875 0.1875h-11.438c-0.11617 0-0.1875-0.07133-0.1875-0.1875v-11.438c0-0.11617 0.07133-0.1875 0.1875-0.1875z"
             style="fill:url(#linearGradient3900)" />
          <path
             id="path4017"
             d="m17.281 19c-1.245 0-2.281 1.036-2.281 2.281v15.438c0 1.245 1.036 2.281 2.281 2.281h15.438c1.245 0 2.281-1.036 2.281-2.281v-15.438c0-1.245-1.036-2.281-2.281-2.281h-15.438zm0 1h15.438c0.712 0 1.281 0.569 1.281 1.281v15.438c0 0.712-0.569 1.281-1.281 1.281h-15.438c-0.712 0-1.281-0.569-1.281-1.281v-15.438c0-0.712 0.569-1.281 1.281-1.281z"
             style="opacity:.2;fill:#fff" />
        </g>
        <g
           id="g4033"
           transform="translate(6,20)">
          <rect
             id="rect4035"
             style="fill:url(#linearGradient3875)"
             rx="1.2857"
             ry="1.2857"
             height="18"
             width="18"
             y="20"
             x="16" />
          <path
             id="path4037"
             d="m34 29v-7.7143c0-0.713-0.573-1.286-1.286-1.286h-7.714v9h9z"
             style="fill:url(#linearGradient3872)" />
          <path
             id="path4039"
             d="m16 29v-7.7143c0-0.713 0.573-1.286 1.286-1.286h7.714v9h-9z"
             style="fill:url(#linearGradient3868)" />
          <path
             id="path4041"
             d="m16 29v7.7143c0 0.713 0.573 1.286 1.286 1.286h7.714v-9h-9z"
             style="fill:url(#linearGradient3865)" />
          <path
             id="path4043"
             d="m34 29v7.7143c0 0.713-0.573 1.286-1.286 1.286h-7.714v-9h9z"
             style="fill:url(#linearGradient3862)" />
          <rect
             id="rect4045"
             style="fill:url(#linearGradient3882)"
             rx="1.2727"
             ry="1.2727"
             transform="rotate(90)"
             width="14"
             y="-32"
             x="22"
             height="14" />
          <path
             id="path4047"
             d="m19.281 22c-0.705 0-1.281 0.576-1.281 1.281v11.438c0 0.705 0.576 1.281 1.281 1.281h11.438c0.705 0 1.281-0.576 1.281-1.281v-11.438c0-0.705-0.576-1.281-1.281-1.281h-11.438zm0 1.0938h11.438c0.11617 0 0.1875 0.07133 0.1875 0.1875v11.438c0 0.11617-0.07133 0.1875-0.1875 0.1875h-11.438c-0.11617 0-0.1875-0.07133-0.1875-0.1875v-11.438c0-0.11617 0.07133-0.1875 0.1875-0.1875z"
             style="fill:url(#linearGradient3900)" />
          <path
             id="path4049"
             d="m17.281 19c-1.245 0-2.281 1.036-2.281 2.281v15.438c0 1.245 1.036 2.281 2.281 2.281h15.438c1.245 0 2.281-1.036 2.281-2.281v-15.438c0-1.245-1.036-2.281-2.281-2.281h-15.438zm0 1h15.438c0.712 0 1.281 0.569 1.281 1.281v15.438c0 0.712-0.569 1.281-1.281 1.281h-15.438c-0.712 0-1.281-0.569-1.281-1.281v-15.438c0-0.712 0.569-1.281 1.281-1.281z"
             style="opacity:.2;fill:#fff" />
        </g>
        <g
           id="g4051"
           transform="translate(26,20)">
          <rect
             id="rect4053"
             style="fill:url(#linearGradient3875)"
             rx="1.2857"
             ry="1.2857"
             height="18"
             width="18"
             y="20"
             x="16" />
          <path
             id="path4055"
             d="m34 29v-7.7143c0-0.713-0.573-1.286-1.286-1.286h-7.714v9h9z"
             style="fill:url(#linearGradient3872)" />
          <path
             id="path4057"
             d="m16 29v-7.7143c0-0.713 0.573-1.286 1.286-1.286h7.714v9h-9z"
             style="fill:url(#linearGradient3868)" />
          <path
             id="path4059"
             d="m16 29v7.7143c0 0.713 0.573 1.286 1.286 1.286h7.714v-9h-9z"
             style="fill:url(#linearGradient3865)" />
          <path
             id="path4061"
             d="m34 29v7.7143c0 0.713-0.573 1.286-1.286 1.286h-7.714v-9h9z"
             style="fill:url(#linearGradient3862)" />
          <rect
             id="rect4063"
             style="fill:url(#linearGradient3882)"
             rx="1.2727"
             ry="1.2727"
             transform="rotate(90)"
             width="14"
             y="-32"
             x="22"
             height="14" />
          <path
             id="path4065"
             d="m19.281 22c-0.705 0-1.281 0.576-1.281 1.281v11.438c0 0.705 0.576 1.281 1.281 1.281h11.438c0.705 0 1.281-0.576 1.281-1.281v-11.438c0-0.705-0.576-1.281-1.281-1.281h-11.438zm0 1.0938h11.438c0.11617 0 0.1875 0.07133 0.1875 0.1875v11.438c0 0.11617-0.07133 0.1875-0.1875 0.1875h-11.438c-0.11617 0-0.1875-0.07133-0.1875-0.1875v-11.438c0-0.11617 0.07133-0.1875 0.1875-0.1875z"
             style="fill:url(#linearGradient3900)" />
          <path
             id="path4067"
             d="m17.281 19c-1.245 0-2.281 1.036-2.281 2.281v15.438c0 1.245 1.036 2.281 2.281 2.281h15.438c1.245 0 2.281-1.036 2.281-2.281v-15.438c0-1.245-1.036-2.281-2.281-2.281h-15.438zm0 1h15.438c0.712 0 1.281 0.569 1.281 1.281v15.438c0 0.712-0.569 1.281-1.281 1.281h-15.438c-0.712 0-1.281-0.569-1.281-1.281v-15.438c0-0.712 0.569-1.281 1.281-1.281z"
             style="opacity:.2;fill:#fff" />
        </g>
        <g
           id="g4069"
           transform="translate(46,20)">
          <rect
             id="rect4071"
             style="fill:url(#linearGradient3875)"
             rx="1.2857"
             ry="1.2857"
             height="18"
             width="18"
             y="20"
             x="16" />
          <path
             id="path4073"
             d="m34 29v-7.7143c0-0.713-0.573-1.286-1.286-1.286h-7.714v9h9z"
             style="fill:url(#linearGradient3872)" />
          <path
             id="path4075"
             d="m16 29v-7.7143c0-0.713 0.573-1.286 1.286-1.286h7.714v9h-9z"
             style="fill:url(#linearGradient3868)" />
          <path
             id="path4077"
             d="m16 29v7.7143c0 0.713 0.573 1.286 1.286 1.286h7.714v-9h-9z"
             style="fill:url(#linearGradient3865)" />
          <path
             id="path4079"
             d="m34 29v7.7143c0 0.713-0.573 1.286-1.286 1.286h-7.714v-9h9z"
             style="fill:url(#linearGradient3862)" />
          <rect
             id="rect4081"
             style="fill:url(#linearGradient3882)"
             rx="1.2727"
             ry="1.2727"
             transform="rotate(90)"
             width="14"
             y="-32"
             x="22"
             height="14" />
          <path
             id="path4083"
             d="m19.281 22c-0.705 0-1.281 0.576-1.281 1.281v11.438c0 0.705 0.576 1.281 1.281 1.281h11.438c0.705 0 1.281-0.576 1.281-1.281v-11.438c0-0.705-0.576-1.281-1.281-1.281h-11.438zm0 1.0938h11.438c0.11617 0 0.1875 0.07133 0.1875 0.1875v11.438c0 0.11617-0.07133 0.1875-0.1875 0.1875h-11.438c-0.11617 0-0.1875-0.07133-0.1875-0.1875v-11.438c0-0.11617 0.07133-0.1875 0.1875-0.1875z"
             style="fill:url(#linearGradient3900)" />
          <path
             id="path4085"
             d="m17.281 19c-1.245 0-2.281 1.036-2.281 2.281v15.438c0 1.245 1.036 2.281 2.281 2.281h15.438c1.245 0 2.281-1.036 2.281-2.281v-15.438c0-1.245-1.036-2.281-2.281-2.281h-15.438zm0 1h15.438c0.712 0 1.281 0.569 1.281 1.281v15.438c0 0.712-0.569 1.281-1.281 1.281h-15.438c-0.712 0-1.281-0.569-1.281-1.281v-15.438c0-0.712 0.569-1.281 1.281-1.281z"
             style="opacity:.2;fill:#fff" />
        </g>
        <g
           id="g4129"
           transform="translate(42,40)">
          <rect
             id="rect4131"
             style="fill:url(#linearGradient3875)"
             rx="1.2857"
             ry="1.2857"
             height="18"
             width="18"
             y="20"
             x="16" />
          <path
             id="path4133"
             d="m34 29v-7.7143c0-0.713-0.573-1.286-1.286-1.286h-7.714v9h9z"
             style="fill:url(#linearGradient3872)" />
          <path
             id="path4135"
             d="m16 29v-7.7143c0-0.713 0.573-1.286 1.286-1.286h7.714v9h-9z"
             style="fill:url(#linearGradient3868)" />
          <path
             id="path4137"
             d="m16 29v7.7143c0 0.713 0.573 1.286 1.286 1.286h7.714v-9h-9z"
             style="fill:url(#linearGradient3865)" />
          <path
             id="path4139"
             d="m34 29v7.7143c0 0.713-0.573 1.286-1.286 1.286h-7.714v-9h9z"
             style="fill:url(#linearGradient3862)" />
          <rect
             id="rect4141"
             style="fill:url(#linearGradient3882)"
             rx="1.2727"
             ry="1.2727"
             transform="rotate(90)"
             width="14"
             y="-32"
             x="22"
             height="14" />
          <path
             id="path4143"
             d="m19.281 22c-0.705 0-1.281 0.576-1.281 1.281v11.438c0 0.705 0.576 1.281 1.281 1.281h11.438c0.705 0 1.281-0.576 1.281-1.281v-11.438c0-0.705-0.576-1.281-1.281-1.281h-11.438zm0 1.0938h11.438c0.11617 0 0.1875 0.07133 0.1875 0.1875v11.438c0 0.11617-0.07133 0.1875-0.1875 0.1875h-11.438c-0.11617 0-0.1875-0.07133-0.1875-0.1875v-11.438c0-0.11617 0.07133-0.1875 0.1875-0.1875z"
             style="fill:url(#linearGradient3900)" />
          <path
             id="path4145"
             d="m17.281 19c-1.245 0-2.281 1.036-2.281 2.281v15.438c0 1.245 1.036 2.281 2.281 2.281h15.438c1.245 0 2.281-1.036 2.281-2.281v-15.438c0-1.245-1.036-2.281-2.281-2.281h-15.438zm0 1h15.438c0.712 0 1.281 0.569 1.281 1.281v15.438c0 0.712-0.569 1.281-1.281 1.281h-15.438c-0.712 0-1.281-0.569-1.281-1.281v-15.438c0-0.712 0.569-1.281 1.281-1.281z"
             style="opacity:.2;fill:#fff" />
        </g>
        <path
           id="rect4163"
           d="m19.286 60h35.429c0.712 0 1.285 0.573 1.285 1.286v15.429c0 0.712-0.573 1.285-1.286 1.285h-35.428c-0.713 0-1.286-0.573-1.286-1.286v-15.428c0-0.713 0.573-1.286 1.286-1.286z"
           style="fill:url(#linearGradient4213)" />
        <path
           id="path4165"
           d="m56 69v-7.7143c0-0.713-0.573-1.286-1.286-1.286h-7.714v9h9z"
           style="fill:url(#linearGradient4210)" />
        <path
           id="path4167"
           d="m18 69v-7.7143c0-0.713 0.573-1.286 1.286-1.286h7.714v9h-9z"
           style="fill:url(#linearGradient4207)" />
        <path
           id="path4169"
           d="m18 69v7.7143c0 0.713 0.573 1.286 1.286 1.286h7.714v-9h-9z"
           style="fill:url(#linearGradient4204)" />
        <path
           id="path4171"
           d="m56 69v7.7143c0 0.713-0.573 1.286-1.286 1.286h-7.714v-9h9z"
           style="fill:url(#linearGradient4201)" />
        <path
           id="rect4173"
           d="m63.273-54h11.455c0.704 0 1.272 0.568 1.272 1.273v31.455c0 0.704-0.568 1.272-1.273 1.272h-11.455c-0.704 0-1.272-0.568-1.272-1.273v-31.455c0-0.704 0.568-1.272 1.273-1.272z"
           style="fill:url(#linearGradient4198)"
           transform="rotate(90)" />
        <path
           id="path4175"
           d="m21.281 62c-0.705 0-1.281 0.576-1.281 1.281v11.438c0 0.705 0.576 1.281 1.281 1.281h31.438c0.705 0 1.281-0.576 1.281-1.281v-11.438c0-0.705-0.576-1.281-1.281-1.281h-31.438zm0 1.0938h31.438c0.11617 0 0.1875 0.07133 0.1875 0.1875v11.438c0 0.11617-0.07133 0.1875-0.1875 0.1875h-31.438c-0.11617 0-0.1875-0.07133-0.1875-0.1875v-11.438c0-0.11617 0.07133-0.1875 0.1875-0.1875z"
           style="fill:url(#linearGradient4195)" />
        <path
           id="path4177"
           d="m19.281 59c-1.245 0-2.281 1.036-2.281 2.281v15.438c0 1.245 1.036 2.281 2.281 2.281h35.438c1.245 0 2.281-1.036 2.281-2.281v-15.438c0-1.245-1.036-2.281-2.281-2.281h-35.438zm0 1h35.438c0.712 0 1.281 0.569 1.281 1.281v15.438c0 0.712-0.569 1.281-1.281 1.281h-35.438c-0.712 0-1.281-0.569-1.281-1.281v-15.438c0-0.712 0.569-1.281 1.281-1.281z"
           style="opacity:.2;fill:#fff" />
        <path
           id="path4227"
           d="m14 37v1c0 1.662 1.338 3 3 3h3v-1h-3c-1.662 0-3-1.338-3-3zm68 20c0 1.662-1.338 3-3 3h-1v1h1c1.662 0 3-1.338 3-3v-1zm-66 20v1c0 1.662 1.338 3 3 3h56c1.662 0 3-1.338 3-3v-1c0 1.662-1.338 3-3 3h-56c-1.662 0-3-1.338-3-3z"
           style="opacity:.6;color:#000000;fill:#fff" />
        <g
           id="text4232"
           style="fill:#333">
          <path
             id="path4316"
             d="m27.363 32.44-0.78613-2.0117h-3.1348l-0.79102 2.0117h-0.9668l2.8076-6.8799h1.0596l2.7637 6.8799h-0.95215m-1.9482-5.0098c-0.05209-0.1302-0.10254-0.26204-0.15137-0.39551-0.04558-0.13346-0.08627-0.2539-0.12207-0.36133-0.03581-0.11067-0.06674-0.20182-0.09277-0.27344-0.02279-0.07486-0.03581-0.12044-0.03906-0.13672-0.0065 0.01628-0.02116 0.06186-0.04395 0.13672-0.02279 0.07488-0.05371 0.16765-0.09277 0.27832-0.03581 0.11068-0.07813 0.23275-0.12695 0.36621-0.04558 0.13347-0.09278 0.2653-0.1416 0.39551l-0.87891 2.2607h2.5732l-0.88379-2.2705" />
        </g>
        <g
           id="text4236"
           style="fill:#333">
          <path
             id="path4292"
             d="m27.167 66.354c-0.39063 0.000006-0.73731 0.06511-1.04 0.19531-0.29948 0.13021-0.55176 0.31576-0.75684 0.55664-0.20182 0.24089-0.35482 0.5306-0.45898 0.86914-0.10417 0.33855-0.15625 0.71452-0.15625 1.1279-0.000002 0.41342 0.05534 0.79265 0.16602 1.1377 0.11393 0.3418 0.27506 0.6364 0.4834 0.88379 0.21159 0.2474 0.46875 0.43946 0.77148 0.57617 0.30599 0.13672 0.64941 0.20508 1.0303 0.20508 0.26692 0.000001 0.50944-0.03418 0.72754-0.10254 0.22135-0.07161 0.41992-0.1709 0.5957-0.29785 0.17903-0.12695 0.33854-0.27669 0.47852-0.44922 0.13997-0.17578 0.26367-0.36946 0.37109-0.58106l0.76172 0.38086c-0.1237 0.25716-0.2767 0.49642-0.45898 0.71777-0.1823 0.22136-0.39714 0.41341-0.64453 0.57617-0.24415 0.16276-0.52247 0.29134-0.83496 0.38574-0.30925 0.09115-0.65593 0.13672-1.04 0.13672-0.55664 0-1.0449-0.08789-1.4648-0.26367-0.41667-0.17904-0.7666-0.42643-1.0498-0.74219-0.27995-0.31901-0.48991-0.69661-0.62988-1.1328-0.13997-0.4362-0.20996-0.91308-0.20996-1.4307 0-0.5371 0.07324-1.0221 0.21973-1.4551 0.14974-0.43294 0.36621-0.80078 0.64941-1.1035 0.28646-0.30598 0.63802-0.54036 1.0547-0.70312 0.41666-0.16601 0.89192-0.24902 1.4258-0.24902 0.73242 0.000007 1.3444 0.14324 1.8359 0.42969 0.49153 0.28646 0.85286 0.71127 1.084 1.2744l-0.88379 0.29297c-0.06511-0.16276-0.153-0.31738-0.26367-0.46387-0.11068-0.14973-0.24903-0.28157-0.41504-0.39551-0.16602-0.11393-0.36133-0.20507-0.58594-0.27344-0.22136-0.06835-0.47526-0.10253-0.76172-0.10254" />
          <path
             id="path4294"
             d="m33.231 72.535c-0.13347 0.03581-0.27018 0.06348-0.41016 0.08301-0.13672 0.02279-0.29623 0.03418-0.47852 0.03418-0.70313 0-1.0547-0.39876-1.0547-1.1963v-3.5254h-0.61035v-0.63965h0.64453l0.25879-1.1816h0.58594v1.1816h0.97656v0.63965h-0.97656v3.335c-0.000001 0.25391 0.04069 0.43294 0.12207 0.53711 0.08463 0.10091 0.22949 0.15137 0.43457 0.15137 0.08463 0 0.16601-0.0065 0.24414-0.01953 0.08138-0.01302 0.16927-0.0293 0.26367-0.04883v0.64941" />
          <path
             id="path4296"
             d="m33.993 72.574v-4.0527c-0.000001-0.11067-0.0016-0.22298-0.0049-0.33691 0-0.11718-0.0016-0.22949-0.0049-0.33691s-0.0065-0.20833-0.0098-0.30273-0.0065-0.17903-0.0098-0.25391h0.83008c0.0033 0.07488 0.0065 0.16114 0.0098 0.25879 0.0065 0.09441 0.01139 0.19206 0.01465 0.29297 0.0065 0.10092 0.0098 0.19857 0.0098 0.29297 0.0033 0.09115 0.0049 0.16928 0.0049 0.23438h0.01953c0.06185-0.20182 0.12695-0.37597 0.19531-0.52246 0.07161-0.14973 0.15462-0.2718 0.24902-0.36621 0.0944-0.09765 0.2067-0.16926 0.33691-0.21484 0.13021-0.04882 0.28808-0.07324 0.47363-0.07324 0.07161 0.000006 0.13997 0.0065 0.20508 0.01953 0.0651 0.0098 0.11556 0.01954 0.15137 0.0293v0.80566c-0.0586-0.01627-0.12696-0.02766-0.20508-0.03418-0.07813-0.0098-0.16602-0.01464-0.26367-0.01465-0.20182 0.000005-0.37435 0.04558-0.51758 0.13672-0.13998 0.09115-0.25554 0.2181-0.34668 0.38086-0.08789 0.15951-0.153 0.35157-0.19531 0.57617-0.04232 0.22136-0.06348 0.46387-0.06348 0.72754v2.7539h-0.87891" />
          <path
             id="path4298"
             d="m37.313 72.574v-7.2461h0.87891v7.2461h-0.87891" />
        </g>
        <g
           id="text4254"
           style="fill:#333">
          <path
             id="path4313"
             d="m47.744 32.44h-5.4785v-0.69824l4.1895-5.4199h-3.833v-0.76172h4.8926v0.67871l-4.1895 5.4395h4.4189v0.76172" />
        </g>
        <g
           id="text4258"
           style="fill:#333">
          <path
             id="path4310"
             d="m62.485 32.44v-6.8799h5.2197v0.76172h-4.2871v2.207h3.9941v0.75195h-3.9941v2.3975h4.4873v0.76172h-5.4199" />
        </g>
        <g
           id="text4262"
           style="fill:#333">
          <path
             id="path4307"
             d="m34.418 48.968c-0.000008 0.48503-0.06348 0.92936-0.19043 1.333-0.1237 0.40039-0.30437 0.75195-0.54199 1.0547-0.23438 0.30274-0.5241 0.55013-0.86914 0.74219-0.3418 0.1888-0.7308 0.3125-1.167 0.37109 0.06836 0.20833 0.14485 0.38574 0.22949 0.53223 0.08789 0.14648 0.18717 0.2653 0.29785 0.35644 0.11067 0.0944 0.23274 0.16276 0.36621 0.20508 0.13671 0.04557 0.28808 0.06836 0.4541 0.06836 0.09114-0.000002 0.1888-0.0065 0.29297-0.01953 0.10416-0.01302 0.19368-0.02767 0.26856-0.04395v0.6543c-0.1237 0.02929-0.26042 0.05371-0.41016 0.07324-0.14649 0.02279-0.29948 0.03418-0.45898 0.03418-0.27995-0.000002-0.52409-0.04232-0.73242-0.12695-0.208-0.081-0.392-0.2-0.552-0.356-0.156-0.153-0.291-0.342-0.405-0.566-0.11394-0.22461-0.21485-0.47852-0.30273-0.76172-0.51433-0.02604-0.9668-0.13184-1.3574-0.31738-0.38737-0.1888-0.71126-0.43945-0.97168-0.75195-0.25716-0.31575-0.45085-0.68359-0.58106-1.1035-0.13021-0.42318-0.19531-0.88216-0.19531-1.377-0.000001-0.53711 0.07487-1.0221 0.22461-1.4551 0.14974-0.43294 0.36946-0.80078 0.65918-1.1035 0.28971-0.30598 0.64616-0.54036 1.0693-0.70312 0.42643-0.16601 0.91471-0.24902 1.4648-0.24902 0.54687 0.000007 1.0319 0.08301 1.4551 0.24902 0.42643 0.16602 0.78287 0.40202 1.0693 0.70801 0.28971 0.306 0.50943 0.67546 0.65918 1.1084 0.14973 0.43295 0.2246 0.91472 0.22461 1.4453m-0.95215 0c-0.000006-0.41341-0.05372-0.78938-0.16113-1.1279-0.10417-0.33854-0.26042-0.62825-0.46875-0.86914-0.20508-0.24088-0.46062-0.42643-0.7666-0.55664-0.30599-0.1302-0.65918-0.19531-1.0596-0.19531-0.41016 0.000007-0.76986 0.06511-1.0791 0.19531-0.30925 0.13021-0.56804 0.31576-0.77637 0.55664-0.20508 0.24089-0.3597 0.5306-0.46387 0.86914-0.10091 0.33855-0.15137 0.71452-0.15137 1.1279-0.000001 0.41341 0.05208 0.79265 0.15625 1.1377 0.10742 0.3418 0.26367 0.63802 0.46875 0.88867 0.20833 0.2474 0.46549 0.44108 0.77148 0.58106 0.30924 0.13672 0.66406 0.20508 1.0645 0.20508 0.42968 0 0.79915-0.06999 1.1084-0.20996 0.3125-0.13997 0.56803-0.33366 0.7666-0.58106 0.20182-0.25065 0.34993-0.5485 0.44434-0.89356 0.09765-0.34505 0.14648-0.72102 0.14648-1.1279" />
        </g>
        <g
           id="text4266"
           style="fill:#333">
          <path
             id="path4304"
             d="m53.876 50.541c-0.000007 0.28972-0.05697 0.55664-0.1709 0.80078-0.11068 0.24414-0.28321 0.45573-0.51758 0.63476-0.23438 0.17578-0.5306 0.31413-0.88867 0.41504-0.35482 0.09766-0.77637 0.14648-1.2646 0.14648-0.85612 0-1.5234-0.14974-2.002-0.44922-0.478-0.3-0.783-0.733-0.913-1.299l0.90332-0.18066c0.04557 0.17904 0.11556 0.3418 0.20996 0.48828 0.0944 0.14649 0.22135 0.27344 0.38086 0.38086 0.16276 0.10417 0.36295 0.18555 0.60059 0.24414 0.23763 0.05859 0.52246 0.08789 0.85449 0.08789 0.27669 0 0.5306-0.02279 0.76172-0.06836 0.23112-0.04883 0.42968-0.12207 0.5957-0.21973 0.16601-0.09766 0.29459-0.22298 0.38574-0.37598 0.0944-0.15625 0.1416-0.3418 0.1416-0.55664-0.000005-0.22461-0.05209-0.4069-0.15625-0.54688-0.10092-0.13997-0.24415-0.25553-0.42969-0.34668-0.18555-0.09114-0.4069-0.16764-0.66406-0.22949s-0.542-0.12858-0.85449-0.2002c-0.19206-0.04231-0.38574-0.08789-0.58106-0.13672-0.19206-0.05208-0.37761-0.1123-0.55664-0.18066-0.17578-0.07161-0.3418-0.15462-0.49805-0.24902s-0.29134-0.2067-0.40527-0.33691c-0.11393-0.13346-0.20345-0.28645-0.26856-0.45898-0.0651-0.17578-0.09766-0.3776-0.09766-0.60547-0.000001-0.32552 0.0651-0.60384 0.19531-0.83496 0.13346-0.23437 0.31738-0.42643 0.55176-0.57617 0.23437-0.14973 0.51106-0.25878 0.83008-0.32715 0.31901-0.06835 0.66406-0.10253 1.0352-0.10254 0.42643 0.000007 0.79101 0.03419 1.0938 0.10254 0.30273 0.06511 0.55826 0.16439 0.7666 0.29785 0.20833 0.13347 0.37434 0.29949 0.49805 0.49805 0.12695 0.19532 0.22786 0.42318 0.30274 0.68359l-0.91797 0.16113c-0.04558-0.16601-0.11231-0.31412-0.2002-0.44434-0.08464-0.1302-0.19694-0.23925-0.33691-0.32715-0.13998-0.08788-0.31088-0.15462-0.5127-0.2002-0.19857-0.04557-0.43295-0.06835-0.70312-0.06836-0.31901 0.000006-0.58757 0.0293-0.80566 0.08789-0.21485 0.05535-0.389 0.13184-0.52246 0.22949-0.13021 0.09766-0.22461 0.21322-0.2832 0.34668-0.05534 0.13021-0.08301 0.27182-0.08301 0.4248-0.000001 0.20508 0.05045 0.37435 0.15137 0.50781 0.10416 0.13021 0.24414 0.23926 0.41992 0.32715s0.37923 0.16114 0.61035 0.21973c0.23112 0.0586 0.47688 0.11719 0.7373 0.17578 0.21158 0.04883 0.42154 0.09929 0.62988 0.15137 0.21158 0.04883 0.41341 0.10905 0.60547 0.18066 0.19205 0.06836 0.37109 0.14974 0.53711 0.24414 0.16926 0.09441 0.31575 0.20996 0.43945 0.34668 0.12369 0.13672 0.21972 0.29785 0.28809 0.4834 0.07161 0.18555 0.10742 0.40365 0.10742 0.6543" />
        </g>
        <g
           id="text4270"
           style="fill:#333">
          <path
             id="path4301"
             d="m74.135 48.929c-0.000007 0.57292-0.08627 1.0791-0.25879 1.5186-0.17253 0.4362-0.40854 0.80241-0.70801 1.0986-0.29948 0.29297-0.6543 0.51595-1.0645 0.66894-0.40691 0.14974-0.84636 0.22461-1.3184 0.22461h-2.5732v-6.8799h2.2754c0.5306 0.000006 1.0189 0.06674 1.4648 0.2002 0.44921 0.13022 0.83496 0.33366 1.1572 0.61035 0.32226 0.27344 0.57291 0.62175 0.75195 1.0449 0.18228 0.42318 0.27343 0.92774 0.27344 1.5137m-0.9375 0c-0.000006-0.46549-0.06674-0.86263-0.2002-1.1914-0.13347-0.33203-0.32064-0.60384-0.56152-0.81543-0.24089-0.21158-0.52898-0.3662-0.86426-0.46387-0.33529-0.1009-0.70313-0.15136-1.1035-0.15137h-1.3232v5.3857h1.5332c0.36132 0.000001 0.69498-0.05859 1.001-0.17578 0.30924-0.11719 0.57617-0.29134 0.80078-0.52246 0.2246-0.23112 0.40038-0.5192 0.52734-0.86426 0.12695-0.34505 0.19042-0.74544 0.19043-1.2012" />
        </g>
        <path
           id="rect4274"
           d="m67 64-4 4h2v4 1h4v-1-4h2l-4-4zm0 1 2 2h-1v1 4h-2v-4-1h-1l2-2z"
           style="color:#000000;fill:#333" />
      </g>
      <g
         id="layer6">
        <path
           id="rect3164"
           d="m45.75 10c-0.97 0-1.75 0.892-1.75 2v20h-6l13 14 13-14h-6v-20c0-1.108-0.7805-2-1.75-2h-10.5z"
           style="color:#000000;fill:url(#linearGradient3947)" />
        <path
           id="path3974"
           d="m45.75 10c-0.97 0-1.75 0.892-1.75 2v1c0-1.108 0.7805-2 1.75-2h10.5c0.9695 0 1.75 0.892 1.75 2v-1c0-1.108-0.7805-2-1.75-2h-10.5zm-7.75 22 0.938 1h5.062v-1h-6zm20 0v1h5.0625l0.938-1h-6z"
           style="opacity:.3;color:#000000;fill:#fff" />
      </g>
    </g>
    <rect
       id="rect3003"
       style="opacity:.15;fill:#fff"
       transform="translate(98 3.8281e-7)"
       clip-path="url(#clipPath3009)"
       rx="25"
       ry="25"
       height="92"
       width="92"
       y="958.36"
       x="-96" />
  </g>
</svg>
