<svg height="96" width="96" xmlns="http://www.w3.org/2000/svg" xmlns:sodipodi="http://sodipodi.sourceforge.net/DTD/sodipodi-0.dtd" xmlns:inkscape="http://www.inkscape.org/namespaces/inkscape">
 <defs>
  <clipPath clipPathUnits="userSpaceOnUse" id="clipPath3009">
   <path d="m-2 956.36h-96v33.562l96 25.687v-59.25z"/>
  </clipPath>
 </defs>
 <g transform="matrix(1 0 0 1 0 -956.36)">
  <rect x="2" rx="25" y="958.36" fill="#999" height="92" width="92"/>
  <path d="m18 974.36v60h60v-60h-60zm5 5h50v29.583h-6.8229l-6.6406-20.208-1.9271-5.8334-2.0312 5.8074-4.1927 11.979-3.8542-11.51-2.2135-6.6667-1.7708 6.7969-5.8333 22.318-4.375-14.531-0.46875-1.4844h-9.8698v-16.25zm34.505 16.51 5.1823 15.807 0.46875 1.4323h9.8437v16.25h-50v-29.583h6.7708l6.0938 20.156 2.1354 7.0833 1.875-7.1614 5.9375-22.682 3.5417 10.651 1.9271 5.7812 2.0312-5.7552 4.1927-11.979z" fill="#fff"/>
  <rect x="-96" rx="25" y="958.36" clip-path="url(#clipPath3009)" fill="#fff" height="92" opacity="0.15" width="92" transform="matrix(1 0 0 1 98 0)"/>
 </g>
</svg>
