<svg height="96" width="96" xmlns="http://www.w3.org/2000/svg" xmlns:xlink="http://www.w3.org/1999/xlink" xmlns:sodipodi="http://sodipodi.sourceforge.net/DTD/sodipodi-0.dtd" xmlns:inkscape="http://www.inkscape.org/namespaces/inkscape">
 <defs>
  <linearGradient x2="0" y1="90" y2="5.988" gradientUnits="userSpaceOnUse" id="linearGradient3617">
   <stop stop-color="#f57900"/>
   <stop stop-color="#fab234" offset="1"/>
  </linearGradient>
  <radialGradient cy="48" r="42" gradientUnits="userSpaceOnUse" id="radialGradient3914" cx="48">
   <stop stop-color="#d45500" stop-opacity="0.344"/>
   <stop stop-color="#e65c00" offset="1"/>
  </radialGradient>
  <linearGradient x1="96" x2="16" y1="16" y2="64" gradientUnits="userSpaceOnUse" id="linearGradient3063">
   <stop stop-color="#fff"/>
   <stop stop-color="#fff" stop-opacity="0" offset="1"/>
  </linearGradient>
  <linearGradient x2="0" xlink:href="#linearGradient3063" y1="20.221" y2="138.66" gradientUnits="userSpaceOnUse" id="linearGradient3613"/>
  <clipPath id="clipPath3613">
   <use xlink:href="#SVGCleanerId_0"/>
  </clipPath>
  <filter x="-0.192" y="-0.192" height="1.384" color-interpolation-filters="sRGB" id="filter3794" width="1.384">
   <feGaussianBlur stdDeviation="5.28"/>
  </filter>
  <clipPath clipPathUnits="userSpaceOnUse" id="clipPath3830">
   <rect x="6" rx="22.826" y="6" height="84" width="84"/>
  </clipPath>
  <clipPath clipPathUnits="userSpaceOnUse" id="clipPath3009">
   <path d="m-2 956.36h-96v33.562l96 25.687v-59.25z"/>
  </clipPath>
  <rect x="6" rx="6" y="6" height="84" id="SVGCleanerId_0" width="84"/>
 </defs>
 <g transform="matrix(1 0 0 1 0 -956.36)">
  <g clip-path="url(#clipPath3830)" transform="matrix(1.0952 0 0 1.0952 -4.571 951.79)">
   <use xlink:href="#SVGCleanerId_0" fill="url(#linearGradient3617)"/>
   <path d="m6 75.125 40.656-25.781-26.156 40.656h18.5l9-40.219 8.75 40.219h18.375l-25.781-40.656 40.656 26.156v-18.5l-40.219-9 40.219-8.75v-18.375l-40.656 25.781 26.156-40.656h-18.5l-9 40.219-8.75-40.219h-18.375l25.781 40.656-40.656-26.156v18.5l40.219 9-40.219 8.75v18.375z" fill="url(#radialGradient3914)" opacity="0.5"/>
   <path d="m12 6c-3.324 0-6 2.676-6 6v42.875c17.609-11.522 44.229-18.875 74-18.875 3.378 0 6.712 0.09685 10 0.28125v-24.281c0-3.324-2.676-6-6-6z" fill="url(#linearGradient3063)" opacity="0.4"/>
   <rect x="15" stroke-width="0.5" rx="12" y="15" clip-path="url(#clipPath3613)" fill="url(#linearGradient3613)" stroke="#fff" height="66" filter="url(#filter3794)" opacity="0.1" width="66" stroke-linecap="round"/>
   <path d="m55.504 82.924c-0.88045-0.000018-2.1697-0.09435-3.8677-0.283-1.7609-0.18868-3.396-0.53457-4.9054-1.0377l1.8867-11.414c0.94334 0.31444 1.8238 0.53455 2.6413 0.66034 0.75467 0.12577 1.7295 0.18866 2.9243 0.18867 2.2011-0.000004 3.7419-0.66034 4.6224-1.981 0.88044-1.3207 1.3207-3.2388 1.3207-5.7544v-44.302l14.056-3.1477v47.827c-0.00002 6.5405-1.6037 11.383-4.811 14.527-3.2074 3.1444-7.8297 4.7167-13.867 4.7167" fill="#2b1100" opacity="0.3"/>
   <path d="m55.504 81.924c-0.88045-0.000018-2.1697-0.09435-3.8677-0.283-1.7609-0.18868-3.396-0.53457-4.9054-1.0377l1.8867-11.414c0.94334 0.31444 1.8238 0.53455 2.6413 0.66034 0.75467 0.12577 1.7295 0.18866 2.9243 0.18867 2.2011-0.000004 3.7419-0.66034 4.6224-1.981 0.88044-1.3207 1.3207-3.2388 1.3207-5.7544v-44.302l14.056-3.1477v47.827c-0.00002 6.5405-1.6037 11.383-4.811 14.527-3.2074 3.1444-7.8297 4.7167-13.867 4.7167" fill="#fff"/>
  </g>
  <rect x="-96" rx="25" y="958.36" clip-path="url(#clipPath3009)" fill="#fff" height="92" opacity="0.15" width="92" transform="matrix(1 0 0 1 98 0)"/>
 </g>
</svg>
