<?xml version="1.0" encoding="UTF-8" standalone="no"?>
<!-- Created with Inkscape (http://www.inkscape.org/) -->

<svg
   xmlns:dc="http://purl.org/dc/elements/1.1/"
   xmlns:cc="http://creativecommons.org/ns#"
   xmlns:rdf="http://www.w3.org/1999/02/22-rdf-syntax-ns#"
   xmlns:svg="http://www.w3.org/2000/svg"
   xmlns="http://www.w3.org/2000/svg"
   xmlns:xlink="http://www.w3.org/1999/xlink"
   xmlns:sodipodi="http://sodipodi.sourceforge.net/DTD/sodipodi-0.dtd"
   xmlns:inkscape="http://www.inkscape.org/namespaces/inkscape"
   id="svg11037"
   height="96"
   width="96"
   version="1.1"
   inkscape:version="0.48.5 r10040"
   sodipodi:docname="jokosher.svg">
  <sodipodi:namedview
     pagecolor="#ffffff"
     bordercolor="#666666"
     borderopacity="1"
     objecttolerance="10"
     gridtolerance="10"
     guidetolerance="10"
     inkscape:pageopacity="0"
     inkscape:pageshadow="2"
     inkscape:window-width="640"
     inkscape:window-height="480"
     id="namedview36181" />
  <defs
     id="defs11039">
    <linearGradient
       id="linearGradient3617"
       y2="5.9877"
       xlink:href="#linearGradient3700"
       gradientUnits="userSpaceOnUse"
       x2="48"
       y1="90"
       x1="48" />
    <linearGradient
       id="linearGradient3700">
      <stop
         id="stop3702"
         style="stop-color:#f57900"
         offset="0" />
      <stop
         id="stop3704"
         style="stop-color:#fab234"
         offset="1" />
    </linearGradient>
    <radialGradient
       id="radialGradient3914"
       gradientUnits="userSpaceOnUse"
       cy="48"
       cx="48"
       r="42">
      <stop
         id="stop3910"
         style="stop-color:#d45500;stop-opacity:.34351"
         offset="0" />
      <stop
         id="stop3912"
         style="stop-color:#e65c00"
         offset="1" />
    </radialGradient>
    <linearGradient
       id="linearGradient3063"
       y2="64"
       gradientUnits="userSpaceOnUse"
       x2="16"
       y1="16"
       x1="96">
      <stop
         id="stop3699"
         style="stop-color:#fff"
         offset="0" />
      <stop
         id="stop3701"
         style="stop-color:#fff;stop-opacity:0"
         offset="1" />
    </linearGradient>
    <linearGradient
       id="linearGradient3613"
       y2="138.66"
       gradientUnits="userSpaceOnUse"
       x2="48"
       y1="20.221"
       x1="48">
      <stop
         id="stop3739"
         style="stop-color:#fff"
         offset="0" />
      <stop
         id="stop3741"
         style="stop-color:#fff;stop-opacity:0"
         offset="1" />
    </linearGradient>
    <clipPath
       id="clipPath3613">
      <rect
         id="rect3615"
         style="fill:#fff"
         rx="6"
         ry="6"
         height="84"
         width="84"
         y="6"
         x="6" />
    </clipPath>
    <filter
       id="filter3794"
       height="1.384"
       width="1.384"
       color-interpolation-filters="sRGB"
       y="-.192"
       x="-.192">
      <feGaussianBlur
         id="feGaussianBlur3796"
         stdDeviation="5.28" />
    </filter>
    <clipPath
       id="clipPath3830"
       clipPathUnits="userSpaceOnUse">
      <rect
         id="rect3832"
         style="fill:url(#linearGradient3834)"
         rx="22.826"
         ry="22.826"
         height="84"
         width="84"
         y="6"
         x="6" />
    </clipPath>
    <linearGradient
       id="linearGradient3834"
       y2="1046.1"
       xlink:href="#linearGradient3700"
       gradientUnits="userSpaceOnUse"
       x2="48"
       gradientTransform="matrix(1.05 0 0 1.05 -2.4 -1006.6)"
       y1="962.62"
       x1="48" />
    <clipPath
       id="clipPath3009"
       clipPathUnits="userSpaceOnUse">
      <path
         id="path3011"
         style="opacity:.15;fill:#fff"
         d="m-2 956.36h-96v33.562l96 25.687v-59.25z" />
    </clipPath>
  </defs>
  <metadata
     id="metadata11042">
    <rdf:RDF>
      <cc:Work
         rdf:about="">
        <dc:format>image/svg+xml</dc:format>
        <dc:type
           rdf:resource="http://purl.org/dc/dcmitype/StillImage" />
        <dc:title />
      </cc:Work>
    </rdf:RDF>
  </metadata>
  <g
     id="layer1"
     transform="translate(0 -956.36)">
    <g
       id="g3047"
       clip-path="url(#clipPath3830)"
       transform="matrix(1.0952 0 0 1.0952 -4.5714 951.79)">
      <rect
         id="rect2419"
         style="fill:url(#linearGradient3617)"
         rx="6"
         ry="6"
         height="84"
         width="84"
         y="6"
         x="6" />
      <path
         id="path4141"
         d="m6 75.125 40.656-25.781-26.156 40.656h18.5l9-40.219 8.75 40.219h18.375l-25.781-40.656 40.656 26.156v-18.5l-40.219-9 40.219-8.75v-18.375l-40.656 25.781 26.156-40.656h-18.5l-9 40.219-8.75-40.219h-18.375l25.781 40.656-40.656-26.156v18.5l40.219 9-40.219 8.75v18.375z"
         style="opacity:.5;fill:url(#radialGradient3914)" />
      <path
         id="rect3690"
         d="m12 6c-3.324 0-6 2.676-6 6v42.875c17.609-11.522 44.229-18.875 74-18.875 3.378 0 6.712 0.09685 10 0.28125v-24.281c0-3.324-2.676-6-6-6z"
         style="opacity:.4;fill:url(#linearGradient3063)" />
      <g
         id="layer5">
        <rect
           id="rect3171"
           style="opacity:.1;filter:url(#filter3794);stroke:#fff;stroke-linecap:round;stroke-width:.5;fill:url(#linearGradient3613)"
           clip-path="url(#clipPath3613)"
           rx="12"
           ry="12"
           height="66"
           width="66"
           y="15"
           x="15" />
      </g>
      <g
         id="layer4">
        <path
           id="path3891"
           d="m55.504 82.924c-0.88045-0.000018-2.1697-0.09435-3.8677-0.283-1.7609-0.18868-3.396-0.53457-4.9054-1.0377l1.8867-11.414c0.94334 0.31444 1.8238 0.53455 2.6413 0.66034 0.75467 0.12577 1.7295 0.18866 2.9243 0.18867 2.2011-0.000004 3.7419-0.66034 4.6224-1.981 0.88044-1.3207 1.3207-3.2388 1.3207-5.7544v-44.302l14.056-3.1477v47.827c-0.00002 6.5405-1.6037 11.383-4.811 14.527-3.2074 3.1444-7.8297 4.7167-13.867 4.7167"
           style="opacity:.3;fill:#2b1100" />
        <path
           id="path3884"
           d="m55.504 81.924c-0.88045-0.000018-2.1697-0.09435-3.8677-0.283-1.7609-0.18868-3.396-0.53457-4.9054-1.0377l1.8867-11.414c0.94334 0.31444 1.8238 0.53455 2.6413 0.66034 0.75467 0.12577 1.7295 0.18866 2.9243 0.18867 2.2011-0.000004 3.7419-0.66034 4.6224-1.981 0.88044-1.3207 1.3207-3.2388 1.3207-5.7544v-44.302l14.056-3.1477v47.827c-0.00002 6.5405-1.6037 11.383-4.811 14.527-3.2074 3.1444-7.8297 4.7167-13.867 4.7167"
           style="fill:#fff" />
      </g>
    </g>
    <rect
       id="rect3003"
       style="opacity:.15;fill:#fff"
       transform="translate(98 3.8281e-7)"
       clip-path="url(#clipPath3009)"
       rx="25"
       ry="25"
       height="92"
       width="92"
       y="958.36"
       x="-96" />
  </g>
</svg>
