<?xml version="1.0" encoding="UTF-8" standalone="no"?>
<!-- Created with Inkscape (http://www.inkscape.org/) -->

<svg
   xmlns:dc="http://purl.org/dc/elements/1.1/"
   xmlns:cc="http://creativecommons.org/ns#"
   xmlns:rdf="http://www.w3.org/1999/02/22-rdf-syntax-ns#"
   xmlns:svg="http://www.w3.org/2000/svg"
   xmlns="http://www.w3.org/2000/svg"
   xmlns:xlink="http://www.w3.org/1999/xlink"
   xmlns:sodipodi="http://sodipodi.sourceforge.net/DTD/sodipodi-0.dtd"
   xmlns:inkscape="http://www.inkscape.org/namespaces/inkscape"
   id="svg11037"
   height="96"
   width="96"
   version="1.1"
   inkscape:version="0.48.5 r10040"
   sodipodi:docname="kdenlive.svg">
  <sodipodi:namedview
     pagecolor="#ffffff"
     bordercolor="#666666"
     borderopacity="1"
     objecttolerance="10"
     gridtolerance="10"
     guidetolerance="10"
     inkscape:pageopacity="0"
     inkscape:pageshadow="2"
     inkscape:window-width="640"
     inkscape:window-height="480"
     id="namedview36723" />
  <defs
     id="defs11039">
    <clipPath
       id="clipPath3009"
       clipPathUnits="userSpaceOnUse">
      <path
         id="path3011"
         style="opacity:.15;fill:#fff"
         d="m-2 956.36h-96v33.562l96 25.687v-59.25z" />
    </clipPath>
    <linearGradient
       id="linearGradient3885"
       y2="5.9877"
       gradientUnits="userSpaceOnUse"
       x2="48"
       gradientTransform="matrix(1.0172 0 0 1.0172 -1.1034 -1.1034)"
       y1="90"
       x1="48">
      <stop
         id="stop3189"
         offset="0" />
      <stop
         id="stop3191"
         style="stop-color:#515151"
         offset="1" />
    </linearGradient>
    <radialGradient
       id="radialGradient4142"
       xlink:href="#linearGradient4136"
       gradientUnits="userSpaceOnUse"
       cy="47.498"
       cx="46.832"
       gradientTransform="matrix(1.3924 0 0 1.6729 -18.378 -31.962)"
       r="23.735" />
    <linearGradient
       id="linearGradient4136">
      <stop
         id="stop4138"
         style="stop-color:#fff"
         offset="0" />
      <stop
         id="stop4140"
         style="stop-color:#fff;stop-opacity:0"
         offset="1" />
    </linearGradient>
    <clipPath
       id="clipPath3613"
       clipPathUnits="userSpaceOnUse">
      <rect
         id="rect3615"
         style="fill:#fff"
         rx="6"
         ry="6"
         height="84"
         width="84"
         y="6"
         x="6" />
    </clipPath>
    <filter
       id="filter3794"
       width="1.384"
       y="-.192"
       x="-.192"
       height="1.384"
       color-interpolation-filters="sRGB">
      <feGaussianBlur
         id="feGaussianBlur3796"
         stdDeviation="5.28" />
    </filter>
    <linearGradient
       id="linearGradient3259"
       y2="138.66"
       gradientUnits="userSpaceOnUse"
       y1="20.221"
       x2="48"
       x1="48">
      <stop
         id="stop3739"
         style="stop-color:#fff"
         offset="0" />
      <stop
         id="stop3741"
         style="stop-color:#fff;stop-opacity:0"
         offset="1" />
    </linearGradient>
    <clipPath
       id="clipPath3090"
       clipPathUnits="userSpaceOnUse">
      <rect
         id="rect3092"
         style="opacity:.6"
         rx="21.875"
         ry="21.875"
         height="80.5"
         width="80.5"
         y="7.75"
         x="7.75" />
    </clipPath>
  </defs>
  <metadata
     id="metadata11042">
    <rdf:RDF>
      <cc:Work
         rdf:about="">
        <dc:format>image/svg+xml</dc:format>
        <dc:type
           rdf:resource="http://purl.org/dc/dcmitype/StillImage" />
        <dc:title />
      </cc:Work>
    </rdf:RDF>
  </metadata>
  <g
     id="layer1"
     transform="translate(0 -956.36)">
    <g
       id="g3182"
       clip-path="url(#clipPath3090)"
       transform="matrix(1.1429 0 0 1.1429 -6.8571 949.51)">
      <path
         id="rect2419"
         d="m12 6c-3.324 0-6 2.676-6 6v72c0 3.324 2.676 6 6 6h72c3.324 0 6-2.676 6-6v-72c0-3.324-2.676-6-6-6h-72zm-2 4h6v4h-6v-4zm70 0h6v4h-6v-4zm-70 8h6v4h-6v-4zm70 0h6v4h-6v-4zm-70 8h6v4h-6v-4zm70 0h6v4h-6v-4zm-70 8h6v4h-6v-4zm70 0h6v4h-6v-4zm-70 8h6v4h-6v-4zm70 0h6v4h-6v-4zm-70 8h6v4h-6v-4zm70 0h6v4h-6v-4zm-70 8h6v4h-6v-4zm70 0h6v4h-6v-4zm-70 8h6v4h-6v-4zm70 0h6v4h-6v-4zm-70 8h6v4h-6v-4zm70 0h6v4h-6v-4zm-70 8h6v4h-6v-4zm70 0h6v4h-6v-4z"
         style="fill:url(#linearGradient3885)" />
      <g
         id="g4156"
         style="opacity:0.08;stroke:#fff;stroke-width:4;fill:#fff"
         transform="translate(1.1676 .50186)">
        <rect
           id="rect4158"
           style="stroke:#fff;stroke-width:4;fill:#fff"
           height="57.031"
           width="11.414"
           y="18.983"
           x="23.098" />
        <path
           id="path4160"
           style="stroke:#fff;stroke-width:4;fill:#fff"
           d="m56.834 18.983h6.8663 6.8663l-19.576 28.515 19.576 28.515h-6.8663-6.8663l-19.576-28.515z" />
      </g>
      <g
         id="g3364"
         style="fill:url(#radialGradient4142)"
         transform="translate(1.1676 .50186)">
        <rect
           id="rect3359"
           style="fill:url(#radialGradient4142)"
           height="57.031"
           width="11.414"
           y="18.983"
           x="23.098" />
        <path
           id="rect3361"
           style="fill:url(#radialGradient4142)"
           d="m56.834 18.983h6.8663 6.8663l-19.576 28.515 19.576 28.515h-6.8663-6.8663l-19.576-28.515z" />
      </g>
      <g
         id="g4144"
         style="opacity:.2;stroke:#fff;stroke-width:2;fill:#fff"
         transform="translate(1.1676 .50186)">
        <rect
           id="rect4146"
           style="stroke:#fff;stroke-width:2;fill:#fff"
           height="57.031"
           width="11.414"
           y="18.983"
           x="23.098" />
        <path
           id="path4148"
           d="m56.834 18.983h6.8663 6.8663l-19.576 28.515 19.576 28.515h-6.8663-6.8663l-19.576-28.515z"
           style="stroke:#fff;stroke-width:2;fill:#fff" />
      </g>
      <g
         id="g4150"
         style="opacity:.2;fill:#fff"
         transform="translate(1.1676 -.49814)">
        <rect
           id="rect4152"
           style="fill:#fff"
           height="57.031"
           width="11.414"
           y="18.983"
           x="23.098" />
        <path
           id="path4154"
           style="fill:#fff"
           d="m56.834 18.983h6.8663 6.8663l-19.576 28.515 19.576 28.515h-6.8663-6.8663l-19.576-28.515z" />
      </g>
      <rect
         id="rect3171"
         style="opacity:.1;filter:url(#filter3794);stroke:#fff;stroke-linecap:round;stroke-width:.5;fill:url(#linearGradient3259)"
         clip-path="url(#clipPath3613)"
         rx="12"
         ry="12"
         height="66"
         width="66"
         y="15"
         x="15" />
    </g>
    <rect
       id="rect3003"
       style="opacity:.15;fill:#fff"
       transform="translate(98)"
       clip-path="url(#clipPath3009)"
       rx="25"
       ry="25"
       height="92"
       width="92"
       y="958.36"
       x="-96" />
  </g>
</svg>
