<svg height="96" width="96" xmlns="http://www.w3.org/2000/svg" xmlns:xlink="http://www.w3.org/1999/xlink" xmlns:sodipodi="http://sodipodi.sourceforge.net/DTD/sodipodi-0.dtd" xmlns:inkscape="http://www.inkscape.org/namespaces/inkscape">
 <defs>
  <clipPath clipPathUnits="userSpaceOnUse" id="clipPath3009">
   <path d="m-2 956.36h-96v33.562l96 25.687v-59.25z"/>
  </clipPath>
  <linearGradient x2="0" y1="90" y2="5.988" gradientUnits="userSpaceOnUse" id="linearGradient3885" gradientTransform="matrix(1.0172 0 0 1.0172 -1.103 -1.103)">
   <stop/>
   <stop stop-color="#515151" offset="1"/>
  </linearGradient>
  <radialGradient cy="47.5" r="23.735" gradientUnits="userSpaceOnUse" id="radialGradient4142" cx="46.832" gradientTransform="matrix(1.3924 0 0 1.6729 -18.378 -31.962)">
   <stop stop-color="#fff"/>
   <stop stop-color="#fff" stop-opacity="0" offset="1"/>
  </radialGradient>
  <clipPath clipPathUnits="userSpaceOnUse" id="clipPath3613">
   <rect x="6" rx="6" y="6" height="84" width="84"/>
  </clipPath>
  <filter x="-0.192" y="-0.192" height="1.384" color-interpolation-filters="sRGB" id="filter3794" width="1.384">
   <feGaussianBlur stdDeviation="5.28"/>
  </filter>
  <linearGradient x2="0" xlink:href="#radialGradient4142" y1="20.221" y2="138.66" gradientUnits="userSpaceOnUse" id="linearGradient3259"/>
  <clipPath clipPathUnits="userSpaceOnUse" id="clipPath3090">
   <rect x="7.75" rx="21.875" y="7.75" height="80.5" width="80.5"/>
  </clipPath>
  <rect x="23.1" y="18.983" height="57.03" id="SVGCleanerId_0" width="11.414"/>
  <path d="m56.834 18.983h6.8663 6.8663l-19.576 28.515 19.576 28.515h-6.8663-6.8663l-19.576-28.515z" id="SVGCleanerId_1"/>
 </defs>
 <g transform="matrix(1 0 0 1 0 -956.36)">
  <g clip-path="url(#clipPath3090)" transform="matrix(1.1429 0 0 1.1429 -6.857 949.51)">
   <path d="m12 6c-3.324 0-6 2.676-6 6v72c0 3.324 2.676 6 6 6h72c3.324 0 6-2.676 6-6v-72c0-3.324-2.676-6-6-6h-72zm-2 4h6v4h-6v-4zm70 0h6v4h-6v-4zm-70 8h6v4h-6v-4zm70 0h6v4h-6v-4zm-70 8h6v4h-6v-4zm70 0h6v4h-6v-4zm-70 8h6v4h-6v-4zm70 0h6v4h-6v-4zm-70 8h6v4h-6v-4zm70 0h6v4h-6v-4zm-70 8h6v4h-6v-4zm70 0h6v4h-6v-4zm-70 8h6v4h-6v-4zm70 0h6v4h-6v-4zm-70 8h6v4h-6v-4zm70 0h6v4h-6v-4zm-70 8h6v4h-6v-4zm70 0h6v4h-6v-4zm-70 8h6v4h-6v-4zm70 0h6v4h-6v-4z" fill="url(#linearGradient3885)"/>
   <g stroke-width="4" fill="#fff" stroke="#fff" opacity="0.08" transform="matrix(1 0 0 1 1.168 0.502)">
    <use xlink:href="#SVGCleanerId_0"/>
    <use xlink:href="#SVGCleanerId_1"/>
   </g>
   <g fill="url(#radialGradient4142)" transform="matrix(1 0 0 1 1.168 0.502)">
    <use xlink:href="#SVGCleanerId_0"/>
    <use xlink:href="#SVGCleanerId_1"/>
   </g>
   <g stroke-width="2" fill="#fff" stroke="#fff" opacity="0.2" transform="matrix(1 0 0 1 1.168 0.502)">
    <use xlink:href="#SVGCleanerId_0"/>
    <use xlink:href="#SVGCleanerId_1"/>
   </g>
   <g fill="#fff" opacity="0.2" transform="matrix(1 0 0 1 1.168 -0.498)">
    <use xlink:href="#SVGCleanerId_0"/>
    <use xlink:href="#SVGCleanerId_1"/>
   </g>
   <rect x="15" stroke-width="0.5" rx="12" y="15" clip-path="url(#clipPath3613)" fill="url(#linearGradient3259)" stroke="#fff" height="66" filter="url(#filter3794)" opacity="0.1" width="66" stroke-linecap="round"/>
  </g>
  <rect x="-96" rx="25" y="958.36" clip-path="url(#clipPath3009)" fill="#fff" height="92" opacity="0.15" width="92" transform="matrix(1 0 0 1 98 0)"/>
 </g>
</svg>
