<?xml version="1.0" encoding="UTF-8" standalone="no"?>
<!-- Created with Inkscape (http://www.inkscape.org/) -->

<svg
   xmlns:dc="http://purl.org/dc/elements/1.1/"
   xmlns:cc="http://creativecommons.org/ns#"
   xmlns:rdf="http://www.w3.org/1999/02/22-rdf-syntax-ns#"
   xmlns:svg="http://www.w3.org/2000/svg"
   xmlns="http://www.w3.org/2000/svg"
   xmlns:xlink="http://www.w3.org/1999/xlink"
   xmlns:sodipodi="http://sodipodi.sourceforge.net/DTD/sodipodi-0.dtd"
   xmlns:inkscape="http://www.inkscape.org/namespaces/inkscape"
   id="svg11037"
   height="96"
   width="96"
   version="1.1"
   inkscape:version="0.48.5 r10040"
   sodipodi:docname="kgeography.svg">
  <sodipodi:namedview
     pagecolor="#ffffff"
     bordercolor="#666666"
     borderopacity="1"
     objecttolerance="10"
     gridtolerance="10"
     guidetolerance="10"
     inkscape:pageopacity="0"
     inkscape:pageshadow="2"
     inkscape:window-width="640"
     inkscape:window-height="480"
     id="namedview37356" />
  <defs
     id="defs11039">
    <clipPath
       id="clipPath3009"
       clipPathUnits="userSpaceOnUse">
      <path
         id="path3011"
         style="opacity:.15;fill:#fff"
         d="m-2 956.36h-96v33.562l96 25.687v-59.25z" />
    </clipPath>
    <linearGradient
       id="linearGradient3196"
       y2="5.9877"
       gradientUnits="userSpaceOnUse"
       y1="90"
       gradientTransform="matrix(1.1429 0 0 1.1429 -6.8571 949.51)"
       x2="48"
       x1="48">
      <stop
         id="stop3702"
         style="stop-color:#126692"
         offset="0" />
      <stop
         id="stop3704"
         style="stop-color:#2e80ab"
         offset="1" />
    </linearGradient>
    <clipPath
       id="clipPath3018"
       clipPathUnits="userSpaceOnUse">
      <rect
         id="rect3020"
         style="opacity:.6"
         rx="25"
         ry="25"
         height="92"
         width="92"
         y="958.36"
         x="2" />
    </clipPath>
    <clipPath
       id="clipPath3775"
       clipPathUnits="userSpaceOnUse">
      <rect
         id="rect3777"
         style="fill:#f00"
         rx="6"
         ry="6"
         height="84"
         width="84"
         y="-14"
         x="-34" />
    </clipPath>
    <filter
       id="filter3779"
       color-interpolation-filters="sRGB">
      <feGaussianBlur
         id="feGaussianBlur3781"
         stdDeviation="1.6519426" />
    </filter>
    <linearGradient
       id="linearGradient4136">
      <stop
         id="stop4138"
         style="stop-color:#fff"
         offset="0" />
      <stop
         id="stop4140"
         style="stop-color:#fff;stop-opacity:0"
         offset="1" />
    </linearGradient>
    <radialGradient
       id="radialGradient3149"
       gradientUnits="userSpaceOnUse"
       cy="41.752"
       cx="48"
       gradientTransform="matrix(1.7146 6.6255e-8 -4.2857e-8 1.1091 -34.302 -5.0824)"
       r="42">
      <stop
         id="stop4051"
         style="stop-color:#a7d8f1"
         offset="0" />
      <stop
         id="stop4053"
         style="stop-color:#3299cf"
         offset="1" />
    </radialGradient>
    <radialGradient
       id="radialGradient3151"
       xlink:href="#linearGradient4136"
       gradientUnits="userSpaceOnUse"
       cy="47.498"
       cx="46.832"
       gradientTransform="matrix(1.3924 0 0 1.6729 -18.378 -31.962)"
       r="23.735" />
  </defs>
  <metadata
     id="metadata11042">
    <rdf:RDF>
      <cc:Work
         rdf:about="">
        <dc:format>image/svg+xml</dc:format>
        <dc:type
           rdf:resource="http://purl.org/dc/dcmitype/StillImage" />
        <dc:title />
      </cc:Work>
    </rdf:RDF>
  </metadata>
  <g
     id="layer1"
     transform="translate(0 -956.36)">
    <rect
       id="rect2419"
       style="fill:url(#linearGradient3196)"
       clip-path="url(#clipPath3018)"
       rx="6.8571"
       ry="6.8571"
       height="96"
       width="96"
       y="956.36"
       x="0" />
    <g
       id="g3198"
       transform="matrix(.95238 0 0 .95238 2.2857 960.65)">
      <path
         id="path3767"
         style="opacity:.5;filter:url(#filter3779);fill:#00344f"
         d="m-3.7261-13.918c1.6501 2.2167 0.11258 5.9183 2.6015 5.8816 1.2119 1.714-2.4154 0.5113 0.20359 1.8323 1.5061 1.1866-1.5934 1.8645 0.27179 2.9294-2.1497 1.1097 0.34845 5.804 1.9451 6.9788 2.628 2.2132 1.1622-4.6857 4.0945-5.0446 1.5934-1.8197 4.3918-2.9878 6.3793-4.8184-1.9423-0.15774-3.0765-1.3671-1.237-2.1163 3.3855 3.4704 0.84891-1.6435-1.0251-2.4532 1.8134-0.57705 3.577-0.15448 3.3254-1.6514 1.9163-1.4025-1.8423-1.8553-3.1839-1.5383h-13.375zm-27.802 1.4478c-2.4498 0.6982-2.6206 6.5549-0.15835 3.3027 0.60434-1.3354 3.3971-2.9447 0.15835-3.3027zm11.446 0.20359c-1.4123 2.2153 0.20491 3.9915 1.3799 1.2894 0.83171-1.1283-0.61793-1.2481-1.3799-1.2894zm3.529 0.49767c-2.7288 1.2652-0.6726 4.2156-0.60506 4.8717 2.8746 0.99483 4.4732-0.65044 5.5607 2.1615 2.7352 1.5769-0.0538 4.3171-1.0806 5.0307 1.8493-1.6112 5.4042 4.3805 4.4722 1.2149-1.1118-0.81208 2.9852 1.3046 0.85962-1.3347-1.9561-3.1527 0.15527-1.4114 0.97995-0.67561 2.8049-2.5161-3.1736-2.8202-1.6812-5.4096-1.3078-1.0596-3.0229-4.2695-5.3387-3.6421-1.5502 2.0056-0.21416-4.37-2.4886-1.1796-0.11789 1.7834-0.0429 4.0465-0.70571 0.95682-0.44407-0.54087 0.764-1.7983 0.0273-1.9942zm-5.5649 0.02262c-1.8316 0.61085-1.7332 3.0865 0.51896 3.3519 0.77143-0.87963 0.30649-3.1853-0.51896-3.3519zm-7.1484 0.79175c-2.3791 0.56388-1.408 2.4829-0.67958 3.0233-2.9449 0.73792 4.4957 0.94313 0.79269 1.4105-3.0808 1.2308 2.9667 2.6809 3.9588 1.2216 3.8044 0.93074 0.13691-3.0465-0.19704-5.2025-1.6128-1.7315-0.0637 3.9915-1.5219 0.18441-0.50878 1.1305-2.1265 0.1666-2.353-0.63725zm75.601 0.24884c-3.1924 1.2499 1.9842 5.9664 0.69764 1.6755-0.12817-0.51812 0.2882-1.8871-0.69764-1.6755zm-66.666 1.9002c-2.2941 2.1567 2.916 3.9402-0.6589 5.5469-0.53601-2.0029-1.4583 1.0021-3.5035-0.61542-3.5159 1.4645-5.3139-0.76283-8.2575-2.2896-1.768-0.22016-1.1038 1.6805-1.2209 3.4602v14.755c1.7335 1.8245 0.67633 0.80498 0 0.30175 0.95147 3.2416-0.41957 7.9802 3.3308 9.8658 0.63757 1.183 3.3129 6.2231 3.4362 4.715-1.3412-1.4051-2.7174-5.6174-0.44789-1.863 2.0328 3.5688 4.7748 5.8835 8.7805 6.7328 2.1901 0.74522 3.9912 3.307 5.9171 2.7433 1.089 2.872-3.2274 5.6299 0.14491 8.3086 1.7605 2.7118 4.7162 4.4904 3.116 8.2976-1.1191 3.7183-0.63992 7.7697-1.6078 11.234-0.3004 2.1087 2.938 7.461 2.6575 3.1751 0.94557-2.9784 0.92064-6.2556 3.1476-8.3648 3.0471 0.02413 0.58237-3.2778 3.607-2.8464 1.8456-2.4201 2.3802-5.3071 5.4949-6.2681 0.37204-2.9376 5.1788-7.4366 0.21313-8.5803-1.3496-0.66545-4.8245-0.90473-4.559-1.2331 0.53804-2.9149-4.4935-3.7447-6.6342-4.9373-2.8108-1.9958-7.0342 3.3156-8.0245-1.261-0.59087-1.4399-2.7513-1.4633-1.7584-3.6852-1.7894 1.7803-5.2893 1.2392-4.373-2.1989 1.3916-2.8956 6.7356-3.0326 7.6463 0.45028-1.2644-3.8412 2.4439-6.8314 4.5025-9.5642 0.41916-1.3062 2.9097-2.4284 2.0527-0.69242 1.4602-0.05269 3.6733-2.6886 1.0794-1.472-0.0367-2.4039-2.273-1.7203-2.998-1.3789 1.3438-2.1336 8.245-0.96713 5.3551-4.4546-2.2393-0.90768-2.053-6.2044-4.318-3.2536 0.19059-1.8181-4.61-5.3771-4.5053-2.3283 0.58599 2.7281 0.10714 5.8709-1.1399 7.6591-0.26025-3.9976-7.0757-3.1141-6.1994-7.374 1.2694-2.0303 2.7528-4.8379 2.8942-4.5853 2.275-0.86894 4.1046-3.3965 1.4678-5.0581-0.14091 1.4482-1.983 4.4361-1.7237 0.82232-1.7058 2.0232-1.3162-3.2194-2.9138-3.7631zm54.45 1.4025c-3.9959 0.97784-5.5801 4.7958-7.5568 7.9582-2.9139 1.3142-2.8029 6.9583 0.45241 5.1557 0.87128 1.5223-0.60951 3.9217 1.9283 1.9312 2.047-2.7099 0.35794-7.0928 3.8414-8.8015 0.25373 1.3286-3.2133 6.2899 0.837 5.4744 3.6616 0.13821-2.6619 0.36497-0.88101 2.7047-1.8503-1.0982-0.88882 2.9993-3.304 2.0458-2.0923 1.1385-3.4643-0.52863-2.985-2.355-1.646 0.96057 0.51769 3.6704-2.3396 3.8333-0.64004 2.2737-5.9034 1.931-2.9102 4.2462 1.3289 3.4454-4.9515 0.21599-3.1685 4.3505 1.5254 4.0884 4.7224-1.3547 6.0194-2.4063 2.5025-1.9419 6.2107 3.3111 3.9588 3.5063 2.5251-0.33891 2.0062-2.7412-0.017-3.6713-1.0927-2.8349 3.459 1.3903 3.2066 2.8117 1.6059 3.0083 0.94461-3.0801 2.5788-0.38456-0.1908 2.8434 6.5742 0.66856 3.3444 4.2924-2.7769 0.55951-5.5101-0.71614-7.9008 0.10093-2.2251-0.01969-2.1135-2.398-2.9236-2.9935-2.8304 0.23004-6.3279 0.20403-8.2228 2.4914-2.049 2.8123-5.0038 6.7438-2.7705 10.335 2.2349 5.3215 7.7772 0.27603 10.963 3.4188 0.94693 1.3104-0.8206 2.868 1.2967 4.2874 0.7967 3.0235-0.90449 5.8943 1.0523 8.7846 1.0118 2.7182 1.6398 6.7866 5.4058 4.3028 3.9858-2.3994 2.9242-6.8227 6.2129-9.2726-2.6023-5.0381 3.1836-7.2471 4.6272-11.337-3.1539 0.46191-5.9638-2.6838-6.7258-5.8499-1.3249-1.5379-0.98367-3.8055 0.49633-0.91647 2.0343 1.9719 2.0782 7.8231 5.8413 4.813 1.7204-0.71984 6.4186-3.4657 2.6751-4.7153-2.413 1.7484-5.0752-5.2243-1.5318-1.18 2.576 1.0933 4.38 1.7447 4.38-1.8801v-29.497c-0.8024 0.82028-2.8638 2.3352-3.9043 1.3286-1.7904 0.24941-4.1539 3.7343-3.5912 0.36554-1.5562-0.10309-0.27859 3.0205-2.4166 3.1079-0.21529 1.6059-2.1599 0.29738-1.4294 1.8224-1.5006-1.0649-2.7707-4.427 0.18614-2.3167 4.391-1.3178-2.8956-4.2904-3.458-5.0089 0.94545-0.22662-1.0286-1.2122-1.2668-0.88224zm-36.24 0.88224c-1.4615 1.2182 2.7785 1.4476 0 0zm-19.522 0.65602c-1.6346 1.7105 2.6033 1.5724 0 0zm9.4784 1.6966c-1.2379 2.0286 1.829 0.74894 0 0zm27.101 2.3979c-1.4492 1.6691-3.362-0.43926-3.3932 0.99535 0.26265 0.43347 1.3147 3.5273 3.6194 1.2442 1.237-0.52171 0.74997-1.8369-0.22621-2.2395zm-30.856 0.99535c-2.7488 2.4015 4.6683 2.6227 0.58232 0.27543l-0.58232-0.27543zm36.263 6.6488c-1.979 1.2911 0.95 4.0328-0.043 5.3205-1.24 2.162 4.608-0.152 1.485-1.8765-0.223-1.4816-1.83-3.2894-1.442-3.444zm-1.3347 2.6015c-2.7574 0.77986-0.62597 4.8062 0.35065 1.014 0.055-0.21986 0.12936-1.0214-0.35065-1.014zm-22.078 2.918c-2.5652 1.7498-0.39843 3.4964 1.4816 2.7091-0.38595-1.0558-1.4642-1.721-1.4816-2.7091zm48.455 2.9408c1.28 0.6462-2.3455 1.7501-0.0498 2.8874 1.336 1.5717 0.83231 4.9455-1.3392 2.5576 0.40344-2.666-2.9436-4.657 1.389-5.445zm-6.5829 0.02262c-0.17366 1.7128 3.694 4.3751-0.47504 3.5063-2.2048 0.25872-5.507-0.06739-2.7294-2.8157 0.87765-0.52708 3.1821 1.8185 1.9829-0.37395 0.42514-0.02713 0.82107-0.18767 1.2216-0.3167zm-12.736 3.7099c-1.6081 1.0364 1.112 1.8311 0 0zm-40.379 9.659c-0.2711 0.9048 5.086 1.8218 1.3893 0.37215l-0.55107-0.19405-0.83824-0.1781zm4.1624 1.2894c-1.6249 1.6502 3.3478 0.49302 0 0zm54.337 15.134c-3.5307 0.09113-3.0613 9.2016-0.60013 3.8108 0.2334-1.1698 1.1689-2.7138 0.60013-3.8108z"
         clip-path="url(#clipPath3775)"
         transform="translate(40,20)" />
      <path
         id="path3522"
         d="m36.274 6.0817c1.6501 2.2167 0.11258 5.9183 2.6015 5.8816 1.2119 1.714-2.4154 0.5113 0.20359 1.8323 1.5061 1.1866-1.5934 1.8645 0.27179 2.9294-2.1497 1.1097 0.34845 5.804 1.9451 6.9788 2.628 2.2132 1.1622-4.6857 4.0945-5.0446 1.5934-1.8197 4.3918-2.9878 6.3793-4.8184-1.9423-0.15774-3.0765-1.3671-1.237-2.1163 3.3855 3.4704 0.84891-1.6435-1.0251-2.4532 1.8134-0.57705 3.577-0.15448 3.3254-1.6514 1.9163-1.4025-1.8423-1.8553-3.1839-1.5383h-13.375zm-27.802 1.4478c-2.4497 0.6982-2.6206 6.5545-0.1583 3.3025 0.6043-1.3351 3.3973-2.9445 0.1583-3.3025zm11.446 0.20359c-1.4123 2.2153 0.20491 3.9915 1.3799 1.2894 0.83171-1.1283-0.61793-1.2481-1.3799-1.2894zm3.529 0.49767c-2.7288 1.2652-0.6726 4.2156-0.60506 4.8717 2.8746 0.99483 4.4732-0.65044 5.5607 2.1615 2.7352 1.5769-0.0538 4.3171-1.0806 5.0307 1.8493-1.6112 5.4042 4.3805 4.4722 1.2149-1.1118-0.81208 2.9852 1.3046 0.85962-1.3347-1.9561-3.1527 0.15527-1.4114 0.97995-0.67561 2.8049-2.5161-3.1736-2.8202-1.6812-5.4096-1.3078-1.0596-3.0229-4.2695-5.3387-3.6421-1.5502 2.0056-0.21416-4.37-2.4886-1.1796-0.11789 1.7834-0.0429 4.0465-0.70571 0.95682-0.44407-0.54087 0.764-1.7983 0.0273-1.9942zm-5.5649 0.022621c-1.8316 0.61085-1.7332 3.0865 0.51896 3.3519 0.77143-0.87963 0.30649-3.1853-0.51896-3.3519zm-7.1484 0.79175c-2.3791 0.56388-1.408 2.4829-0.67958 3.0233-2.9449 0.73792 4.4957 0.94313 0.79269 1.4105-3.0808 1.2308 2.9667 2.6809 3.9588 1.2216 3.8044 0.93074 0.13691-3.0465-0.19704-5.2025-1.6128-1.7315-0.0637 3.9915-1.5219 0.18441-0.50878 1.1305-2.1265 0.1666-2.353-0.63725zm75.601 0.24884c-3.1924 1.2499 1.9842 5.9664 0.69764 1.6755-0.12817-0.51812 0.2882-1.8871-0.69764-1.6755zm-66.665 1.9c-2.2941 2.1567 2.916 3.9402-0.6589 5.5469-0.53601-2.0029-1.4583 1.0021-3.5035-0.61542-3.5159 1.4645-5.3139-0.76283-8.2575-2.2896-1.768-0.22016-1.1038 1.6805-1.2209 3.4602v14.755c1.7335 1.8245 0.67633 0.80498 0 0.30175 0.95147 3.2416-0.41957 7.9802 3.3308 9.8658 0.63757 1.183 3.3129 6.2231 3.4362 4.715-1.3412-1.4051-2.7174-5.6174-0.44789-1.863 2.0328 3.5688 4.7748 5.8835 8.7805 6.7328 2.1901 0.74522 3.9912 3.307 5.9171 2.7433 1.089 2.872-3.2274 5.6299 0.14491 8.3086 1.7605 2.7118 4.7162 4.4904 3.116 8.2976-1.1191 3.7183-0.63992 7.7697-1.6078 11.234-0.3004 2.1087 2.938 7.461 2.6575 3.1751 0.94557-2.9784 0.92064-6.2556 3.1476-8.3648 3.0471 0.02413 0.58237-3.2778 3.607-2.8464 1.8456-2.4201 2.3802-5.3071 5.4949-6.2681 0.37204-2.9376 5.1788-7.4366 0.21313-8.5803-1.3496-0.66545-4.8245-0.90473-4.559-1.2331 0.53804-2.9149-4.4935-3.7447-6.6342-4.9373-2.8108-1.9958-7.0342 3.3156-8.0245-1.261-0.59087-1.4399-2.7513-1.4633-1.7584-3.6852-1.7894 1.7803-5.2893 1.2392-4.373-2.1989 1.3916-2.8956 6.7356-3.0326 7.6463 0.45028-1.2644-3.8412 2.4439-6.8314 4.5025-9.5642 0.41916-1.3062 2.9097-2.4284 2.0527-0.69242 1.4602-0.05269 3.6733-2.6886 1.0794-1.472-0.0367-2.4039-2.273-1.7203-2.998-1.3789 1.3438-2.1336 8.245-0.96713 5.3551-4.4546-2.2393-0.90768-2.053-6.2044-4.318-3.2536 0.19059-1.8181-4.61-5.3771-4.5053-2.3283 0.58599 2.7281 0.10714 5.8709-1.1399 7.6591-0.26025-3.9976-7.0757-3.1141-6.1994-7.374 1.2694-2.0303 2.7528-4.8379 2.8942-4.5853 2.275-0.86894 4.1046-3.3965 1.4678-5.0581-0.14091 1.4482-1.983 4.4361-1.7237 0.82232-1.7058 2.0232-1.3162-3.2194-2.9138-3.7631zm54.45 1.4025c-3.9959 0.97784-5.5801 4.7958-7.5568 7.9582-2.9139 1.3142-2.8029 6.9583 0.45241 5.1557 0.87128 1.5223-0.60951 3.9217 1.9283 1.9312 2.047-2.7099 0.35794-7.0928 3.8414-8.8015 0.25373 1.3286-3.2133 6.2899 0.837 5.4744 3.6616 0.13821-2.6619 0.36497-0.88101 2.7047-1.8503-1.0982-0.88882 2.9993-3.304 2.0458-2.0923 1.1385-3.4643-0.52863-2.985-2.355-1.646 0.96057 0.51769 3.6704-2.3396 3.8333-0.64004 2.2737-5.9034 1.931-2.9102 4.2462 1.3289 3.4454-4.9515 0.21599-3.1685 4.3505 1.5254 4.0884 4.7224-1.3547 6.0194-2.4063 2.5025-1.9419 6.2107 3.3111 3.9588 3.5063 2.5251-0.33891 2.0062-2.7412-0.017-3.6713-1.0927-2.8349 3.459 1.3903 3.2066 2.8117 1.6059 3.0083 0.94461-3.0801 2.5788-0.38456-0.1908 2.8434 6.5742 0.66856 3.3444 4.2924-2.7769 0.55951-5.5101-0.71614-7.9008 0.10093-2.2251-0.01969-2.1135-2.398-2.9236-2.9935-2.8304 0.23004-6.3279 0.20403-8.2228 2.4914-2.049 2.8123-5.0038 6.7438-2.7705 10.335 2.2349 5.3215 7.7772 0.27603 10.963 3.4188 0.94693 1.3104-0.8206 2.868 1.2967 4.2874 0.7967 3.0235-0.90449 5.8943 1.0523 8.7846 1.0118 2.7182 1.6398 6.7866 5.4058 4.3028 3.9858-2.3994 2.9242-6.8227 6.2129-9.2726-2.6023-5.0381 3.1836-7.2471 4.6272-11.337-3.1539 0.46191-5.9638-2.6838-6.7258-5.8499-1.3249-1.5379-0.98367-3.8055 0.49633-0.91647 2.0343 1.9719 2.0782 7.8231 5.8413 4.813 1.7204-0.71984 6.4186-3.4657 2.6751-4.7153-2.413 1.7484-5.0752-5.2243-1.5318-1.18 2.576 1.0933 4.38 1.7447 4.38-1.8801v-29.497c-0.8024 0.82028-2.8638 2.3352-3.9043 1.3286-1.7904 0.24941-4.1539 3.7343-3.5912 0.36554-1.5562-0.10309-0.27859 3.0205-2.4166 3.1079-0.21529 1.6059-2.1599 0.29738-1.4294 1.8224-1.5006-1.0649-2.7707-4.427 0.18614-2.3167 4.391-1.3178-2.8956-4.2904-3.458-5.0089 0.94545-0.22662-1.0286-1.2122-1.2668-0.88224zm-36.24 0.88224c-1.4615 1.2182 2.7785 1.4476 0 0zm-19.522 0.65602c-1.6346 1.7105 2.6033 1.5724 0 0zm9.4784 1.6966c-1.2379 2.0286 1.829 0.74894 0 0zm27.101 2.3979c-1.4492 1.6691-3.362-0.43926-3.3932 0.99535 0.26265 0.43347 1.3147 3.5273 3.6194 1.2442 1.237-0.52171 0.74997-1.8369-0.22621-2.2395zm-30.856 0.99535c-2.7488 2.4015 4.6683 2.6227 0.58232 0.27543l-0.58232-0.27543zm36.262 6.6507c-1.9791 1.291 0.94944 4.0328-0.0431 5.3207-1.2401 2.1615 4.6083-0.15226 1.4846-1.8768-0.22257-1.4816-1.83-3.2894-1.4415-3.444zm-1.3347 2.6015c-2.7574 0.77986-0.62597 4.8062 0.35065 1.014 0.055-0.21986 0.12936-1.0214-0.35065-1.014zm-22.078 2.919c-2.5652 1.7498-0.39843 3.4964 1.4816 2.7091-0.38595-1.0558-1.4642-1.721-1.4816-2.7091zm48.455 2.9408c1.28 0.6462-2.3455 1.7501-0.0498 2.8874 1.336 1.5717 0.83231 4.9455-1.3392 2.5576 0.40344-2.666-2.9436-4.657 1.389-5.445zm-6.5829 0.02262c-0.17366 1.7128 3.694 4.3751-0.47504 3.5063-2.2048 0.25872-5.507-0.06739-2.7294-2.8157 0.87765-0.52708 3.1821 1.8185 1.9829-0.37395 0.42514-0.02713 0.82107-0.18767 1.2216-0.3167zm-12.736 3.7099c-1.6081 1.0364 1.112 1.8311 0 0zm-40.379 9.659c-0.2711 0.9048 5.086 1.8218 1.3893 0.37215l-0.551-0.194-0.838-0.178zm4.1624 1.2894c-1.6249 1.6502 3.3478 0.49302 0 0zm54.337 15.134c-3.5307 0.09113-3.0613 9.2016-0.60013 3.8108 0.2334-1.1698 1.1689-2.7138 0.60013-3.8108z"
         style="fill:url(#radialGradient3149)" />
      <g
         id="g4029"
         transform="translate(66.523 -18.57)">
        <g
           id="g4156"
           style="opacity:0.08;stroke:#fff;stroke-width:4;fill:#fff"
           transform="translate(-65.356 19.072)">
          <rect
             id="rect4158"
             style="stroke:#fff;stroke-width:4;fill:#fff"
             height="57.031"
             width="11.414"
             y="18.983"
             x="23.098" />
          <path
             id="path4160"
             d="m56.834 18.983h6.8663 6.8663l-19.576 28.515 19.576 28.515h-6.8663-6.8663l-19.576-28.515z"
             style="stroke:#fff;stroke-width:4;fill:#fff" />
        </g>
        <g
           id="g3364"
           style="fill:url(#radialGradient3151)"
           transform="translate(-65.356 19.072)">
          <rect
             id="rect3359"
             style="fill:url(#radialGradient3151)"
             height="57.031"
             width="11.414"
             y="18.983"
             x="23.098" />
          <path
             id="rect3361"
             d="m56.834 18.983h6.8663 6.8663l-19.576 28.515 19.576 28.515h-6.8663-6.8663l-19.576-28.515z"
             style="fill:url(#radialGradient3151)" />
        </g>
        <g
           id="g4144"
           style="opacity:.2;stroke:#fff;stroke-width:2;fill:#fff"
           transform="translate(-65.356 19.072)">
          <rect
             id="rect4146"
             style="stroke:#fff;stroke-width:2;fill:#fff"
             height="57.031"
             width="11.414"
             y="18.983"
             x="23.098" />
          <path
             id="path4148"
             style="stroke:#fff;stroke-width:2;fill:#fff"
             d="m56.834 18.983h6.8663 6.8663l-19.576 28.515 19.576 28.515h-6.8663-6.8663l-19.576-28.515z" />
        </g>
        <g
           id="g4150"
           style="opacity:.2;fill:#fff"
           transform="translate(-65.356 18.072)">
          <rect
             id="rect4152"
             style="fill:#fff"
             height="57.031"
             width="11.414"
             y="18.983"
             x="23.098" />
          <path
             id="path4154"
             d="m56.834 18.983h6.8663 6.8663l-19.576 28.515 19.576 28.515h-6.8663-6.8663l-19.576-28.515z"
             style="fill:#fff" />
        </g>
      </g>
      <g
         id="g3162"
         transform="translate(66.562 -18.532)">
        <g
           id="g3164"
           style="opacity:0.08;stroke:#fff;stroke-width:4;fill:#fff"
           transform="translate(-65.356 19.072)">
          <rect
             id="rect3166"
             style="stroke:#fff;stroke-width:4;fill:#fff"
             height="57.031"
             width="11.414"
             y="18.983"
             x="23.098" />
          <path
             id="path3168"
             style="stroke:#fff;stroke-width:4;fill:#fff"
             d="m56.834 18.983h6.8663 6.8663l-19.576 28.515 19.576 28.515h-6.8663-6.8663l-19.576-28.515z" />
        </g>
        <g
           id="g3170"
           style="fill:url(#radialGradient3151)"
           transform="translate(-65.356 19.072)">
          <rect
             id="rect3172"
             style="fill:url(#radialGradient3151)"
             height="57.031"
             width="11.414"
             y="18.983"
             x="23.098" />
          <path
             id="path3174"
             style="fill:url(#radialGradient3151)"
             d="m56.834 18.983h6.8663 6.8663l-19.576 28.515 19.576 28.515h-6.8663-6.8663l-19.576-28.515z" />
        </g>
        <g
           id="g3176"
           style="opacity:.2;stroke:#fff;stroke-width:2;fill:#fff"
           transform="translate(-65.356 19.072)">
          <rect
             id="rect3178"
             style="stroke:#fff;stroke-width:2;fill:#fff"
             height="57.031"
             width="11.414"
             y="18.983"
             x="23.098" />
          <path
             id="path3180"
             d="m56.834 18.983h6.8663 6.8663l-19.576 28.515 19.576 28.515h-6.8663-6.8663l-19.576-28.515z"
             style="stroke:#fff;stroke-width:2;fill:#fff" />
        </g>
        <g
           id="g3182"
           style="opacity:.2;fill:#fff"
           transform="translate(-65.356 18.072)">
          <rect
             id="rect3184"
             style="fill:#fff"
             height="57.031"
             width="11.414"
             y="18.983"
             x="23.098" />
          <path
             id="path3186"
             style="fill:#fff"
             d="m56.834 18.983h6.8663 6.8663l-19.576 28.515 19.576 28.515h-6.8663-6.8663l-19.576-28.515z" />
        </g>
      </g>
    </g>
    <rect
       id="rect3003"
       style="opacity:.15;fill:#fff"
       transform="translate(98)"
       clip-path="url(#clipPath3009)"
       rx="25"
       ry="25"
       height="92"
       width="92"
       y="958.36"
       x="-96" />
  </g>
</svg>
