<svg height="96" width="96" xmlns="http://www.w3.org/2000/svg" xmlns:xlink="http://www.w3.org/1999/xlink" xmlns:sodipodi="http://sodipodi.sourceforge.net/DTD/sodipodi-0.dtd" xmlns:inkscape="http://www.inkscape.org/namespaces/inkscape">
 <defs>
  <clipPath clipPathUnits="userSpaceOnUse" id="clipPath3009">
   <path d="m -2,956.36218 -96,0 0,33.5624 96,25.68742 0,-59.24982 z" inkscape:connector-curvature="0"/>
  </clipPath>
  <radialGradient cy="-7.214" r="42" gradientUnits="userSpaceOnUse" id="radialGradient4559" cx="48.555" inkscape:collect="always" gradientTransform="matrix(2.39643 0 0 2.25179 -67.804 9.03)">
   <stop stop-color="#67C5D5"/>
   <stop stop-color="#66C2D3" offset="0.16"/>
   <stop stop-color="#62B9CE" offset="0.28"/>
   <stop stop-color="#5CA8C6" offset="0.385"/>
   <stop stop-color="#5392BA" offset="0.483"/>
   <stop stop-color="#4874AA" offset="0.576"/>
   <stop stop-color="#3A5097" offset="0.665"/>
   <stop stop-color="#2A2781" offset="0.749"/>
   <stop stop-color="#1B006D" offset="0.815"/>
   <stop stop-color="#596AAD" offset="1"/>
  </radialGradient>
  <radialGradient cy="-0.572" r="61.09" gradientUnits="userSpaceOnUse" id="radialGradient4711" cx="46.43" inkscape:collect="always" gradientTransform="matrix(1.245 0 0 0.99172 -11.375 8.864)">
   <stop stop-color="#0F80BC"/>
   <stop stop-color="#0A5F9E" offset="0.338"/>
   <stop stop-color="#00145A" offset="1"/>
  </radialGradient>
  <clipPath clipPathUnits="userSpaceOnUse" id="clipPath4717">
   <use xlink:href="#SVGCleanerId_0" transform="matrix(1 0 0 -1 0 0)"/>
  </clipPath>
  <clipPath clipPathUnits="userSpaceOnUse" id="clipPath3861">
   <rect x="-102.89" rx="8.907" y="-295.9" height="124.69" width="124.69" transform="matrix(0.93972 -0.34196 -0.34196 -0.93972 0 0)"/>
  </clipPath>
  <radialGradient cy="345.82" r="193.54" fx="357.26" fy="344.57" gradientUnits="userSpaceOnUse" id="radialGradient3870" cx="339.7" inkscape:collect="always" gradientTransform="matrix(0.33777 0.07138 -0.08928 0.75255 -35.562 -65.4)">
   <stop stop-color="#fff6d6"/>
   <stop stop-color="#fbea04" offset="0.325"/>
   <stop stop-color="#fbcd15" offset="0.601"/>
   <stop stop-color="#bc9b0a" offset="0.823"/>
   <stop stop-color="#947a05" offset="0.939"/>
   <stop stop-color="#725f00" offset="1"/>
  </radialGradient>
  <radialGradient cy="467.6" r="196" fx="273.84" fy="461.12" gradientUnits="userSpaceOnUse" id="radialGradient3872" cx="279.1" inkscape:collect="always" gradientTransform="matrix(0.23192 0.1649 -0.25062 0.38536 83.22 10.222)">
   <stop stop-color="#ff9933"/>
   <stop stop-color="#ff9933" offset="0.924"/>
   <stop stop-color="#620f0f" offset="0.971"/>
   <stop stop-color="#350a00" offset="1"/>
  </radialGradient>
  <clipPath clipPathUnits="userSpaceOnUse" id="clipPath3218">
   <rect x="7.75" rx="21.875" y="7.75" height="80.5" width="80.5"/>
  </clipPath>
  <rect x="6" rx="6" y="-90" height="84" id="SVGCleanerId_0" width="84"/>
 </defs>
 <g inkscape:label="Layer 1" inkscape:groupmode="layer" transform="matrix(1 0 0 1 0 -956.36)">
  <g display="inline" clip-path="url(#clipPath3218)" transform="matrix(1.14286 0 0 1.14286 -6.857 949.51)">
   <use xlink:href="#SVGCleanerId_0" fill="url(#radialGradient4559)" fill-opacity="1" fill-rule="nonzero" stroke="none" transform="matrix(1 0 0 -1 0 0)"/>
   <g clip-path="url(#clipPath4717)" fill="url(#radialGradient4711)" fill-opacity="1">
    <path d="m 45.420529,30.607216 c -0.373153,0.972682 1.217661,2.55316 2.016686,2.044595 0.801092,-0.511666 1.948464,-1.531895 1.948464,-1.531895 0,0 1.216626,0.976816 0.7246,1.673508 -0.495127,0.694624 -2.466331,1.476077 0.386591,1.159774 2.926314,-0.323537 3.459687,-0.927199 3.445216,-1.48538 -0.0155,-0.556114 0.145746,-2.552125 0.652243,-2.690636 0.0155,-1.023333 -1.989809,-0.928235 -1.295185,-1.9526 0.694625,-1.019195 -0.935469,-2.693737 -0.935469,-2.693737 0,0 -1.269344,0.743207 -1.428529,1.951564 -0.160218,1.206291 -1.347902,0.556113 -1.910217,0.833137 0.145746,0.603661 -0.02688,1.252804 -0.02688,1.252804 l -0.734937,-0.650176 c 10e-4,-10e-4 -2.65756,1.207323 -2.842586,2.089042 z" inkscape:connector-curvature="0"/>
    <path d="m 70.69463,79.653563 c -0.08176,-0.358856 -0.973227,-1.40022 -1.655735,-1.633023 -0.680237,-0.232802 -1.349118,1.00389 -1.787468,-1.049314 -1.437695,0.824461 -2.057746,-0.227124 -2.057746,-0.227124 0,0 -1.550122,0.09086 -1.849925,1.988473 -0.738154,0.873293 -2.630099,4.049623 -1.625073,0.746103 1.011838,-3.323963 -1.067485,-0.261193 -1.260539,1.408168 -0.361128,0.741562 -0.970957,0.816512 -0.587117,-2.518805 -1.332083,-0.459927 -2.012319,-3.551087 -1.282117,-3.610139 -0.848307,-1.182182 -0.181698,-2.99009 0.524659,-2.893562 0.706356,0.09086 1.919199,-1.544445 1.881724,-1.923743 -0.03749,-0.378161 0.547369,-0.10788 0.511029,-2.65281 -0.03749,-2.55174 0.96187,-3.183144 1.043634,-1.049313 0.08629,2.125882 1.355934,-0.696136 1.225335,-1.778384 -0.131728,-1.077704 0.127191,-3.513612 0.900548,-2.073643 -0.900548,-3.562443 -0.189648,-3.703259 0.350907,-1.332084 1.354796,0.106756 1.401356,0.829005 1.401356,0.829005 1.500156,-0.369077 2.219004,0.760865 2.334837,1.394542 1.39,-1.640974 2.793628,0.128329 2.793628,0.128329 0,0 0.968684,-0.321381 0.505351,1.362744 -0.465605,1.678447 2.012319,0.769952 1.420662,-0.436078 1.218521,-0.616643 3.027565,1.251454 3.597646,2.52562 0.570083,1.279845 -0.976634,3.092295 0.229397,3.530644 1.212842,0.436081 0.681372,2.546064 0.681372,2.546064 0,0 2.534706,1.405899 0.775629,2.613062 l -0.599608,1.436562 c 0,0 1.146977,1.279845 1.537631,0.517842 0.390654,-0.763137 0.529198,0.775631 0.529198,0.775631 -0.146494,-0.272551 0.281635,1.585326 1.862419,1.975979 1.587597,0.387247 2.592623,2.895834 0.830139,2.92763 -1.755669,0.02839 -1.891945,-0.01931 -2.367768,1.006161 -0.473555,1.020923 -2.715271,1.057264 -3.875876,-0.264599 -1.234421,0.417908 -3.43071,-0.12038 -2.784543,-1.108366 -1.065211,0.621184 -2.071372,-1.047043 -1.238962,-1.790874 0.832411,-0.741561 -0.467875,-1.702297 -0.905088,-0.639355 -0.432673,1.061807 -2.730034,1.585326 -2.569911,-0.221446 0.0477,-0.536014 1.271896,-0.849444 1.287794,-0.402011 0.223717,0.516708 0.314567,-0.04088 0.222581,-0.107879 z" inkscape:connector-curvature="0"/>
    <path d="m 72.065656,55.144186 c 0.439425,0.435158 1.304052,0.338456 1.783295,0.20478 0.482087,-0.137942 0.413826,-0.479243 0.829075,-0.612919 0.408139,-0.137942 1.986653,0.612919 1.574248,2.252583 -0.957063,0.133676 -1.304052,1.296941 -1.304052,1.296941 0,0 -0.957063,0.408139 -1.440572,0.20478 -0.480664,-0.20478 -0.480664,-0.137942 -1.167531,-0.0711 -0.686867,0.0711 -2.336486,-0.884537 -0.550347,-0.884537 1.787561,0 -0.203358,-0.820543 -0.959907,-0.820543 -0.753705,0 -0.137943,-0.75086 0.756549,-0.54608 -0.620029,-1.023901 -0.277307,-1.779028 0.479242,-1.023901 z" inkscape:connector-curvature="0"/>
    <path d="m 78.039192,60.8149 c -0.479242,0.474976 0.06968,1.911282 0.686867,1.840178 0.615763,-0.06684 1.578514,-0.338456 1.578514,-0.338456 0,0 0.479243,0.955641 0,1.231525 -0.479242,0.270196 -1.87573,0.150741 -0.06684,0.817699 1.854399,0.681179 2.33222,0.474976 2.470162,0.133676 0.137942,-0.338456 0.753705,-1.498878 1.099272,-1.430617 0.274462,-0.612919 -0.96133,-1.159 -0.273041,-1.571404 0.681179,-0.409561 0.13652,-1.90986 0.13652,-1.90986 0,0 -0.962751,0.06684 -1.373734,0.750861 -0.412404,0.6826 -0.958485,-0.06684 -1.370889,-0.06684 -0.06968,0.408138 -0.345567,0.749438 -0.345567,0.749438 l -0.274462,-0.617185 c -0.0014,-0.0014 -1.925503,-0.06684 -2.266804,0.410983 z" inkscape:connector-curvature="0"/>
    <path d="m 34.811564,53.581841 c -0.03594,-0.105206 0.3285,-0.530387 0.230977,0.02052 -0.224132,0.391803 0.90508,0.744254 1.221602,0.307968 1.06163,-1.454289 -1.000892,-2.15748 -1.895709,-1.481664 -0.903368,0.681806 -1.401249,-0.780183 -0.363572,-0.988059 1.034256,-0.20959 1.121513,-2.078778 -0.01796,-2.085623 1.006027,-0.496167 -0.387525,-1.982962 -1.538979,-2.237035 -0.185634,-1.599716 -1.872609,-2.616862 -2.759725,-2.036003 -0.89567,0.58257 -0.972661,0.479914 -2.284943,-0.316522 -1.307148,-0.793014 -1.936769,1.649334 -0.975229,2.716097 0.96753,1.074462 0.26605,2.806776 0.306258,2.510783 0,0 -0.364428,0.655287 -0.340476,0.900805 -1.106969,0.375549 -1.430334,-1.183104 -2.117273,-1.527857 -0.500444,0.65272 -1.308859,1.000892 -1.308859,1.000892 l 0.06074,-1.328536 c 0,0 -3.436394,-1.871753 -4.492038,-1.347353 -1.301161,0.402066 -1.609127,3.414154 -0.42773,3.854717 1.183103,0.445697 -1.484232,1.555234 1.191657,4.376553 2.748606,2.896598 3.811091,2.979578 4.372277,2.508218 0.138582,-0.118915 0.378114,-0.296847 0.670682,-0.494456 0.02651,0.111207 0.07099,0.218141 0.13945,0.319086 0.687793,1.034255 -1.598863,1.849511 -1.917949,3.331174 -0.324221,1.497916 -0.02567,4.283306 1.3311,4.378263 0.258351,-1.48423 2.797365,-0.959831 1.415793,0.384959 -1.40638,1.371308 -0.420034,1.613404 -0.420034,1.613404 0,0 0.06673,2.568957 2.217362,1.747711 -0.06244,0.147146 -0.112928,0.335342 -0.142867,0.540654 -0.60139,-0.121474 -2.071076,-0.305401 -2.430371,0.719443 -0.453395,1.293463 -2.373058,-0.437995 -3.716133,0.142868 -1.337091,0.576583 -3.288403,2.469725 -2.631407,3.800825 1.262663,-0.598824 2.229337,2.101019 0.465373,1.546678 -1.769956,-0.556051 -1.426057,0.498735 -1.426057,0.498735 0,0 -1.842668,1.453433 -0.117208,3.000965 -0.662986,0.100939 -1.84096,0.83921 -1.444025,2.458603 0,0 -0.757084,0.02737 -0.858884,1.47653 -2.469723,0.497879 -2.319162,1.264376 1.396971,0.424311 -1.499627,0.778472 1.048799,1.14461 2.178011,1.041099 1.13092,-0.10266 4.099382,1.361041 1.869187,1.375583 -2.234471,0.01379 -1.568921,1.106971 1.106971,1.159154 2.671611,0.05477 2.391019,0.674106 2.787953,0.64673 0.396937,-0.02738 2.124972,1.335379 2.030871,2.090754 -0.09666,0.756229 1.810162,1.54069 3.050583,0.674105 0.0633,0.786171 3.324332,0.172805 3.806814,-1.244698 3.531353,0.539796 3.450082,-0.118915 2.663912,-0.538089 -1.768241,-0.270325 -5.013014,-2.620283 -1.493638,-1.411513 3.501412,1.20706 0.128314,-0.949566 -0.794727,-1.778509 -2.010337,-0.390948 -2.112995,-2.0668 -2.112995,-2.0668 0,0 1.110393,-0.632188 0.234397,-2.212229 2.172024,-0.402924 0.860596,-1.166851 1.104404,-1.89485 0.243806,-0.730566 1.3465,-1.661311 1.724615,-1.736593 0.07186,-0.09838 0.662984,0.01967 0.114634,0.242097 -0.473927,0.0053 -0.137743,1.339656 0.429443,1.408093 1.917949,0.233542 1.356763,-2.2704 0.23012,-2.774269 -1.129212,-0.508143 -0.115487,-1.88544 0.677525,-0.958119 0.793016,0.925612 2.560403,-0.113781 1.897419,-1.286618 1.053931,0.730567 1.62196,-1.633079 1.173696,-2.989843 1.409804,-1.222457 1.364464,-3.659673 0.273749,-4.204604 -0.536377,-0.26776 -0.795582,-0.441418 -0.925613,-0.774194 0.647588,-0.306256 1.506473,-0.532099 1.843524,-0.23012 0.548353,0.495313 2.074499,-0.870861 1.977832,-2.468012 0.642452,0.35245 1.665588,-2.904299 0.796437,-4.043776 1.989808,-2.781967 1.453432,-3.03433 0.787881,-2.568102 -1.000892,1.387564 -4.288438,3.048016 -1.740011,0.588558 2.474,-2.387598 -0.657852,-0.577436 -1.705796,-0.189912 -1.232722,1.544111 -2.540726,0.802424 -2.540726,0.802424 0,0 0.05562,-1.265229 -1.536413,-1.290892 0.735705,-2.03002 -0.449968,-1.296889 -0.864867,-1.851229 -0.415755,-0.553485 -0.565462,-1.906828 -0.437998,-2.253292 z" inkscape:connector-curvature="0"/>
    <path d="m 52.868659,66.351431 c 0.588584,0.583346 -0.08733,2.345608 -0.843581,2.263519 -0.757999,-0.08558 -1.938661,-0.419169 -1.938661,-0.419169 0,0 -0.588585,1.173676 0,1.510759 0.592076,0.331843 2.303689,0.188625 0.08558,1.004262 -2.275744,0.83834 -2.867822,0.586838 -3.037236,0.167668 -0.165922,-0.419171 -0.923922,-1.844349 -1.346585,-1.762262 -0.340575,-0.752759 1.180663,-1.421686 0.337082,-1.924691 -0.843579,-0.508243 -0.172907,-2.350845 -0.172907,-2.350845 0,0 1.180662,0.08383 1.68716,0.923921 0.506497,0.836594 1.180663,-0.08558 1.68716,-0.08558 0.08558,0.503004 0.41917,0.922175 0.41917,0.922175 l 0.337081,-0.752761 c 0.0017,0 2.364819,-0.08383 2.785736,0.503005 z" inkscape:connector-curvature="0"/>
    <path d="m 65.061,1.002 c -0.912,0.203 0.613,3.503 0.613,3.503 0,0 -0.055,2.216 0.321,2.329 0.374,0.113 2.852,0.733 4.147,2.345 1.301,1.614 0.625,2.463 -0.458,1.997 -1.084,-0.465 -0.797,0.959 -0.797,0.959 0,0 3.27,1.063 0.8,0.995 -2.475,-0.066 1.666,1.741 1.393,1.93 -0.273,0.191 -0.429,1.231 -0.429,1.231 0,0 -2.183,0.182 -0.333,0.959 6.26,2.637 -0.669,1.925 -0.669,1.925 l -0.884,1.087 1.749,2.194 1.345,0.962 c 0,0 2.833,-0.945 3.716,-1.093 0.884,-0.146 3.114,-1.815 3.114,-1.815 0,0 0.669,0.478 0.169,-0.497 -0.501,-0.976 1.841,-0.54 2.425,0.186 l 4.134,1.867 c 0.054,0.144 0.146,0.274 0.292,0.375 0.806,0.565 -0.729,1.535 -0.573,2.562 0.156,1.016 1.093,2.704 2.121,2.526 -0.18,-0.969 1.851,-1.086 1.144,-0.006 -0.706,1.077 0.077,1.056 0.077,1.056 0,0 0.653,1.521 2.034,0.676 -0.056,0.464 0.227,1.397 1.413,1.459 0,0 -0.126,0.506 0.848,0.865 -0.132,1.737 0.424,1.792 0.561,-0.846 0.245,1.157 0.992,-0.471 1.141,-1.25 0.15,-0.784 1.756,-2.505 1.322,-0.984 -0.431,1.508 4.735,2.06 5.308,0.259 0.578,-1.815 2.637,-2.763 2.699,-3.038 0.062,-0.281 -4.583,-0.712 -4.07,-0.493 0.514,0.219 1.47,-0.948 1.115,-1.986 0.576,0.116 0.83,-2.301 -0.083,-2.927 1.143,-2.405 0.651,-2.48 0.182,-2.001 -0.57,1.205 -2.922,3.023 -1.327,0.783 1.609,-2.263 -0.653,-0.284 -1.438,0.208 -0.689,1.341 -1.899,1.08 -1.899,1.08 0,0 -0.222,-0.911 -1.516,-0.607 0.151,-1.612 -0.653,-0.838 -1.12,-1.154 -0.285,-0.193 -0.558,-0.627 -0.726,-0.999 1.115,0.452 2.612,0.933 2.354,0.104 -0.167,-0.542 2.112,0.643 2.192,0.396 l 2.848,-0.396 2.769,-1.75 C 85.388,0.164 65.061,1.002 65.061,1.002 z" clip-path="url(#XMLID_68_)" inkscape:connector-curvature="0" transform="matrix(1.42208 0 0 1.42208 -43.63 -5.15)"/>
    <path d="m 38.752,6.095 c -10.573,4.747 -18.551,14.531 -18.551,14.531 0,0 0.938,2.145 1.265,1.987 0.33,-0.156 -2.361,5.628 -0.386,5.954 1.985,0.325 7.696,-3.578 6.637,-3.22 -1.056,0.356 0.595,-2.112 0.595,-2.112 0,0 2.972,-1.318 1.214,0.202 -1.743,1.511 2.318,0.187 2.255,0.496 -0.064,0.311 0.525,1.147 0.525,1.147 0,0 -1.393,1.494 0.406,0.892 6.172,-2.075 0.812,1.779 0.812,1.779 l 0.106,1.312 2.67,0.464 1.578,-0.15 c 0,0 1.381,-2.436 1.914,-3.098 0.535,-0.663 1.028,-3.284 1.028,-3.284 0,0 0.803,-0.084 -0.213,-0.468 -1.016,-0.385 0.972,-1.583 1.886,-1.434 l 4.303,-1.336 c 0.138,0.068 0.292,0.103 0.47,0.082 0.985,-0.114 0.489,1.603 1.294,2.25 0.796,0.644 2.627,1.264 3.283,0.469 -0.784,-0.594 0.674,-2.011 0.86,-0.751 0.187,1.249 0.767,0.723 0.767,0.723 0,0 1.543,-2.654 2.036,-4.177 0.27,0.377 2.788,-3.309 2.025,-5.067 -0.771,-1.78 0.479,-3.456 0.34,-3.715 -0.143,-0.256 -0.896,0.528 -0.34,0.34 0.561,-0.192 -1.589,0.772 -1.874,-2.061 -0.288,-2.89 -0.707,0.243 -0.985,1.169 0.377,1.508 4.29,-6.093 4.29,-6.093 l 5.044,-2.057 c 0,0.004 -11.481,-0.957 -25.254,5.226 z" clip-path="url(#XMLID_68_)" inkscape:connector-curvature="0" transform="matrix(1.55421 0 0 1.55421 -49.592 -7.384)"/>
   </g>
   <g clip-path="url(#clipPath3861)" transform="matrix(0.63304 0.23036 -0.23036 0.63304 75.31 -109.33)">
    <g transform="matrix(1.10677 -0.09056 0.09056 1.10677 -29.717 -25.22)">
     <path d="m 54.278287,275.47713 1.433585,7.25867 -5.07719,-5.30593 4.436482,7.16386 -9.22864,1.08143 11.54774,1.50023 1.942498,10.01838 c 0,0 0.73105,-6.08247 0.873662,-6.05826 0.142618,0.0242 5.818246,4.07802 5.762503,3.72801 -0.05575,-0.35002 -3.366642,-4.80277 -3.366642,-4.80277 0,0 8.290627,2.39475 7.79508,2.11483 -0.495545,-0.27993 -11.608727,-6.45709 -11.608727,-6.45709 l -4.510351,-10.24136 0,0 z" fill="#ffff9f" fill-opacity="0.941" inkscape:connector-curvature="0"/>
     <path d="m 74.907708,170.98091 c 29.777992,7.6066 28.413752,32.89544 27.716962,37.69094 0.88036,-3.45907 2.0341,-7.44243 1.1896,-14.0869 17.66194,30.64115 -0.72399,43.32323 -2.17308,45.07969 3.25106,-0.47523 11.52194,-6.01105 11.70187,-13.30488 3.61825,26.65528 -10.66806,30.66891 -18.055179,33.04178 3.340395,0.54085 14.484039,-3.75851 15.897899,-5.09477 -2.29493,4.16621 -9.37945,15.04534 -28.685164,12.10955 3.770422,2.81541 23.204584,0.29626 23.169264,-1.56891 -6.606625,10.50646 -16.668544,16.83889 -34.624219,11.49297 9.119484,5.22276 17.61732,2.76026 27.169891,1.19876 -6.107841,4.22653 -8.555535,12.74916 -28.245636,5.68803 4.589108,3.08212 13.368466,4.91226 16.503349,8.27917 -5.474358,-1.74847 -13.607525,-4.06723 -31.621557,-2.43415 1.51028,-5.91861 3.129918,-10.59272 -8.965429,-25.92908 0.292857,-1.69649 12.635101,7.98328 15.020192,13.78123 -0.05737,-7.86985 -11.232416,-10.40651 -10.971992,-35.00748 6.281589,15.67948 17.306131,24.44521 20.822098,25.56784 -9.390919,-8.08588 -23.64457,-30.11467 -6.366502,-59.53591 2.774507,10.08878 0.831939,12.86308 8.401472,21.91559 -6.259507,-24.12827 -3.478551,-30.20155 1.513575,-47.88451 2.748446,7.40433 2.191634,9.88554 7.050387,18.36415 2.357251,-13.54853 -2.982777,-28.49552 -6.447801,-29.36311 z" fill="url(#radialGradient3870)" inkscape:connector-curvature="0"/>
     <path d="m 92.67144,203.1938 c 5.135261,47.6325 -22.496279,73.72331 -47.105496,99.74144 -2.194565,-2.11224 -7.827568,-0.23005 -13.566161,1.06873 C 50.011911,292.05972 93.257744,260.23591 92.67144,203.1938 z" fill="url(#radialGradient3872)" inkscape:connector-curvature="0"/>
    </g>
   </g>
  </g>
  <rect x="-96" rx="25" y="958.36" clip-path="url(#clipPath3009)" fill="#ffffff" fill-opacity="1" height="92" opacity="0.15" width="92" transform="matrix(1 0 0 1 98 0)"/>
 </g>
</svg>
