<svg height="96" width="96" xmlns="http://www.w3.org/2000/svg" xmlns:xlink="http://www.w3.org/1999/xlink" xmlns:sodipodi="http://sodipodi.sourceforge.net/DTD/sodipodi-0.dtd" xmlns:inkscape="http://www.inkscape.org/namespaces/inkscape">
 <defs>
  <clipPath id="clipPath-474838890">
   <use xlink:href="#SVGCleanerId_0" transform="matrix(1 0 0 1 0 -1004.36)"/>
  </clipPath>
  <clipPath id="clipPath-460569460">
   <use xlink:href="#SVGCleanerId_0" transform="matrix(1 0 0 1 0 -1004.36)"/>
  </clipPath>
  <rect x="1" rx="4" y="1005.36" fill="#1890d0" height="46" id="SVGCleanerId_0" width="46"/>
  <path d="m 23.953,34.17 -3.035,-2.605 c -1.563,-0.52 -2.566,1.156 -2.098,2.441 0.848,2.27 4.449,2.395 5.133,0.164 m 0,0" fill-opacity="1" stroke="none" fill-rule="nonzero" id="SVGCleanerId_1"/>
  <path d="m 21.938,18.637 1.039,0 2.59,-1.488 c -0.395,-4.93 -4.957,-2.863 -3.629,1.488 m 0,0" fill-opacity="1" stroke="none" fill-rule="nonzero" id="SVGCleanerId_2"/>
  <path d="m 12.453,24.504 c 0.34,4.113 5.629,3.055 6.242,-0.473 0.246,-1.434 -1.223,-3.836 -2.988,-2.797 m -3.254,3.27" fill-opacity="1" stroke="none" fill-rule="nonzero" id="SVGCleanerId_3"/>
  <path d="m 35.992,21.613 -5.03,-4.289 c -2.594,-0.891 -4.254,1.918 -3.477,4.02 1.398,3.77 7.375,3.973 8.504,0.27 m 0,0" fill-opacity="1" stroke="none" fill-rule="nonzero" id="SVGCleanerId_4"/>
  <path d="m 12.08,36 c 3.918,-0.996 5.195,-2.125 4.855,-4.785 -2.746,-0.238 -3.316,0.926 -4.938,4.078 l 0.984,-0.777 M 12.079,36" fill-opacity="1" stroke="none" fill-rule="nonzero" id="SVGCleanerId_5"/>
  <path d="m 16.926,31.33 c 4.887,0.855 17.04,-15.664 19.07,-19.313 -3.855,1.977 -20.15,14.602 -19.07,19.313 m 0,0" fill-opacity="1" stroke="none" fill-rule="nonzero" id="SVGCleanerId_6"/>
  <path d="m 16.926,31.33 c 1.32,0.23 3.172,-0.852 5.211,-2.563 l -2.82,-2.637 c -1.66,2.066 -2.676,3.922 -2.391,5.199 m 0,0" fill-opacity="1" stroke="none" fill-rule="nonzero" id="SVGCleanerId_7"/>
  <path d="m 33.01,30.566 c -0.898,-1.539 -2.211,-2.402 -4.16,-2.215 -2.621,0.93 -0.191,3.195 -0.426,3.738 1.02,2.77 4.977,-0.102 4.586,-1.523 m 0,0" fill-opacity="1" stroke="none" fill-rule="nonzero" id="SVGCleanerId_8"/>
 </defs>
 <rect x="8" rx="10.769" y="8" fill="#e6e6e6" fill-opacity="1" stroke="none" height="80" width="80"/>
 <g transform="matrix(2.40163 0 0 2.40163 150.48 -100.26)">
  <g clip-path="url(#clipPath-460569460)" transform="matrix(1 0 0 1 -67.12 38.14)">
   <g opacity="0.1">
    <use xlink:href="#SVGCleanerId_1" fill="black" inkscape:connector-curvature="0"/>
    <use xlink:href="#SVGCleanerId_2" fill="black" inkscape:connector-curvature="0"/>
    <use xlink:href="#SVGCleanerId_3" fill="black" inkscape:connector-curvature="0"/>
    <use xlink:href="#SVGCleanerId_4" fill="black" inkscape:connector-curvature="0"/>
    <use xlink:href="#SVGCleanerId_5" fill="black" inkscape:connector-curvature="0"/>
    <use xlink:href="#SVGCleanerId_6" fill="black" inkscape:connector-curvature="0"/>
    <use xlink:href="#SVGCleanerId_7" fill="black" inkscape:connector-curvature="0"/>
    <use xlink:href="#SVGCleanerId_8" fill="black" inkscape:connector-curvature="0"/>
   </g>
  </g>
  <g clip-path="url(#clipPath-474838890)" transform="matrix(1 0 0 1 -67.12 38.14)">
   <g transform="matrix(1 0 0 1 0 -1)">
    <use xlink:href="#SVGCleanerId_1" fill="#36b24b" inkscape:connector-curvature="0"/>
    <use xlink:href="#SVGCleanerId_2" fill="#db1f27" inkscape:connector-curvature="0"/>
    <use xlink:href="#SVGCleanerId_3" fill="#2753a3" inkscape:connector-curvature="0"/>
    <use xlink:href="#SVGCleanerId_4" fill="#f8de45" inkscape:connector-curvature="0"/>
    <use xlink:href="#SVGCleanerId_5" fill="#f4b219" inkscape:connector-curvature="0"/>
    <use xlink:href="#SVGCleanerId_6" fill="#533c36" inkscape:connector-curvature="0"/>
    <use xlink:href="#SVGCleanerId_7" fill="#f9f9f9" inkscape:connector-curvature="0"/>
    <use xlink:href="#SVGCleanerId_8" fill="#353535" inkscape:connector-curvature="0"/>
   </g>
  </g>
 </g>
</svg>
