<svg height="96" width="96" xmlns="http://www.w3.org/2000/svg" xmlns:xlink="http://www.w3.org/1999/xlink" xmlns:sodipodi="http://sodipodi.sourceforge.net/DTD/sodipodi-0.dtd" xmlns:inkscape="http://www.inkscape.org/namespaces/inkscape">
 <defs>
  <clipPath clipPathUnits="userSpaceOnUse" id="clipPath3009">
   <path d="m-2 956.36h-96v33.562l96 25.687v-59.25z"/>
  </clipPath>
  <linearGradient x2="0" y1="90" y2="5.988" gradientUnits="userSpaceOnUse" id="linearGradient3084" gradientTransform="matrix(1.1429 0 0 1.1429 -6.857 949.51)">
   <stop stop-color="#667981"/>
   <stop stop-color="#a4b2b8" offset="1"/>
  </linearGradient>
  <clipPath clipPathUnits="userSpaceOnUse" id="clipPath3018">
   <rect x="2" rx="25" y="958.36" height="92" width="92"/>
  </clipPath>
  <linearGradient x1="633.39" x2="595.7" y1="677.13" y2="1481.8" spreadMethod="reflect" gradientUnits="userSpaceOnUse" id="linearGradient1791" gradientTransform="matrix(0.96412 0 0 1.0372 0 0)">
   <stop stop-color="#e66eed"/>
   <stop stop-color="#3757d5" stop-opacity="0" offset="1"/>
  </linearGradient>
  <linearGradient x2="0" y1="303.12" y2="1061.7" gradientUnits="userSpaceOnUse" id="linearGradient1792" gradientTransform="matrix(0.96513 0 0 1.0361 0 0)">
   <stop stop-color="#f0f0f0"/>
   <stop stop-color="#7f309f" offset="1"/>
  </linearGradient>
  <linearGradient x1="-775.59" x2="-968.44" xlink:href="#linearGradient1722" y1="594.76" y2="430.7" spreadMethod="reflect" gradientUnits="userSpaceOnUse" id="linearGradient3213" gradientTransform="matrix(-0.18822 0 0 0.21222 6.754 -27.742)"/>
  <linearGradient id="linearGradient1722">
   <stop stop-color="#fff" stop-opacity="0.688"/>
   <stop stop-color="#fff" stop-opacity="0" offset="1"/>
  </linearGradient>
  <linearGradient x1="579.24" x2="458.54" xlink:href="#linearGradient1722" y1="460.85" y2="213.73" spreadMethod="reflect" gradientUnits="userSpaceOnUse" id="linearGradient3210" gradientTransform="matrix(0.13366 0 0 0.29885 6.754 -27.742)"/>
  <path d="m375.61 167.52c-0.9739-0.0646-1.7384 0.33306-2.3412 1.0797-11.927 1.0562-51.898 56.424-140.26 50.853-109.03-6.87-142.71-41.24-150.73-34.37-10.094 8.66-109.04 29.21-22.455 333.37 83.196 292.27 301.7 414.9 316.6 400.82 33.094-0.014 233.77-124.53 312.7-401.82 86.582-304.16-12.325-324.72-22.419-333.37-8.0169-6.8737-41.698 27.496-150.73 34.37-88.587 5.5849-128.55-50.141-140.37-50.925z" id="SVGCleanerId_0"/>
 </defs>
 <g transform="matrix(1 0 0 1 0 -956.36)">
  <rect rx="6.857" y="956.36" clip-path="url(#clipPath3018)" fill="url(#linearGradient3084)" height="96" width="96"/>
  <g transform="matrix(0.51676 0 0 0.47725 6.605 968.27)">
   <use xlink:href="#SVGCleanerId_0" transform="matrix(0.20282 0 0 0.20282 4.155 -30.14)"/>
   <use stroke-width="16.456" xlink:href="#SVGCleanerId_0" fill="url(#linearGradient1791)" stroke="url(#linearGradient1792)" stroke-linecap="square" stroke-linejoin="round" transform="matrix(0.20282 0 0 0.20282 4.155 -30.14)"/>
   <path d="m80.456 16.186c0.16698-0.01162 0.2956 0.0604 0.39896 0.19456 2.0449 0.18978 8.9012 10.139 24.051 9.1377 18.693-1.2351 24.469-7.4155 25.843-6.1804 1.7306 1.5551 18.691 5.2517 3.8467 59.904-14.264 52.515-54.406 71.989-54.456 71.986v-134.95c0.11196-0.045 0.22379-0.09089 0.3156-0.09728z" fill="url(#linearGradient3213)" opacity="0.759"/>
   <path d="m79.825 16.089c-0.16698-0.01162-0.2956 0.06041-0.39896 0.19456-2.0449 0.18978-8.9012 10.139-24.051 9.1377-18.693-1.2351-24.469-7.4155-25.843-6.1804-1.7306 1.5551-18.691 5.2517-3.8467 59.904 14.264 52.515 54.406 71.989 54.456 71.986v-134.95c-0.11196-0.045-0.22379-0.09089-0.3156-0.09728z" fill="url(#linearGradient3210)" opacity="0.759"/>
   <path d="m373.99 558.67c0.98046-0.88672 1.6875-1.5469 2.1211-1.9805l1.0781-1.0781c0.28515-0.28515 0.45507-0.46874 0.50976-0.55078v-0.38086l0.0586-0.0469c0.29687 0.0156 0.62108 0.0234 0.97265 0.0234 0.0781 0.00001 0.38671-0.006 0.92578-0.0176l0.0586 0.0527v0.27539l-0.0469 0.0469c-0.36329 0-0.61133 0.0215-0.74414 0.0644-0.13282 0.0391-0.32813 0.16407-0.58594 0.375-0.25391 0.20704-0.54688 0.4629-0.8789 0.76758l-2.373 2.168 3.5274 3.2637c0.56639 0.52734 0.8828 0.81445 0.94921 0.86133 0.0703 0.0469 0.21289 0.0742 0.42774 0.082l0.041 0.0469v0.2461l-0.041 0.0469c-0.22657-0.0156-0.46095-0.0234-0.70313-0.0234-0.14454 0-0.46094 0.008-0.94922 0.0234-0.35547-0.33594-0.66797-0.63281-0.9375-0.89062-0.26563-0.25782-1.4023-1.3047-3.4102-3.1406v1.248l0.006 1.1426c0.004 0.4414 0.0156 0.72656 0.0351 0.85547 0.0195 0.1289 0.0469 0.21484 0.082 0.25781 0.0391 0.043 0.11132 0.0801 0.21679 0.11133 0.10547 0.0273 0.36523 0.0488 0.7793 0.0645l0.0469 0.0352v0.29296l-0.0469 0.0469c-0.0195 0-0.36329-0.0117-1.0312-0.0352-0.27735-0.008-0.49414-0.0117-0.65039-0.0117-0.1211 0-0.67969 0.0156-1.6758 0.0469l-0.0469-0.0469v-0.29296l0.0469-0.0352c0.36328-0.0156 0.60547-0.0352 0.72656-0.0586s0.20117-0.0527 0.24023-0.0879c0.043-0.0391 0.0762-0.11914 0.0996-0.24023 0.0273-0.12109 0.043-0.39062 0.0469-0.80859l0.006-1.2363v-2.7129l-0.0117-1.1426c-0.004-0.44531-0.0156-0.73242-0.0352-0.86133-0.0156-0.1289-0.043-0.21483-0.082-0.25781-0.0352-0.043-0.10547-0.0781-0.21094-0.10547-0.10547-0.0273-0.36523-0.0488-0.77929-0.0644l-0.0469-0.041v-0.29297l0.0469-0.041 0.73242 0.0234c0.48047 0.0156 0.79492 0.0235 0.94336 0.0234 0.13281 0.00001 0.69336-0.0156 1.6816-0.0469l0.0469 0.041v0.29297l-0.0469 0.041c-0.26954 0.008-0.47852 0.0195-0.62695 0.0352-0.14454 0.0156-0.25001 0.0449-0.31641 0.0879s-0.11133 0.14454-0.13477 0.30469c-0.0195 0.15626-0.0293 0.37501-0.0293 0.65625l-0.0117 1.3477v1.2305" fill-opacity="0.417" transform="matrix(9.4689 0 0 9.4689 -3477.1 -5217.6)"/>
   <path d="m295.16 512.38c45.775-41.399 78.784-72.219 99.028-92.463l50.335-50.335c13.313-13.313 21.246-21.884 23.799-25.714v-17.781l2.7359-2.1882c13.86 0.72972 28.997 1.0944 45.41 1.0939 3.6472 0.00047 18.054-0.27312 43.222-0.8203l2.7359 2.4618v12.857l-2.1887 2.1887c-16.961 0-28.541 1.0033-34.742 3.009-6.201 1.8241-15.319 7.66-27.356 17.508-11.854 9.6661-25.532 21.612-41.033 35.836l-110.8 101.22 164.69 152.37c26.443 24.62 41.216 38.024 44.316 40.213 3.2826 2.1882 9.9392 3.4651 19.97 3.8298l1.9146 2.1882v11.49l-1.9146 2.1882c-10.578-0.72926-21.52-1.0944-32.827-1.0944-6.7482 0-21.52 0.36509-44.316 1.0944-16.596-15.684-31.186-29.544-43.769-41.581-12.41-12.04-65.48-60.92-159.22-146.63v58.268l0.27358 53.344c0.18209 20.608 0.72926 33.921 1.6411 39.94 0.9118 6.018 2.1887 10.03 3.8302 12.036 1.8236 2.0062 5.1972 3.7387 10.121 5.1977 4.9241 1.2764 17.052 2.2793 36.383 3.009l2.1882 1.6415v13.678l-2.1882 2.1887c-0.91227 0-16.961-0.54718-48.146-1.6415-12.949-0.36462-23.07-0.54717-30.365-0.54717-5.6538 0-31.733 0.72972-78.238 2.1887l-2.1887-2.1887v-13.678l2.1887-1.6415c16.961-0.72972 28.268-1.6415 33.921-2.7354 5.6534-1.0944 9.3921-2.4623 11.216-4.1038 2.0062-1.8236 3.5562-5.5623 4.6505-11.216 1.2769-5.6534 2.0062-18.237 2.1887-37.751l0.27359-57.721v-126.66l-0.54718-53.344c-0.18254-20.79-0.72972-34.195-1.6415-40.213-0.72925-6.018-2.0062-10.03-3.8298-12.036-1.6415-2.0057-4.9241-3.6472-9.8482-4.9241-4.9241-1.2764-17.052-2.2793-36.383-3.009l-2.1887-1.9151v-13.678l2.1887-1.9146 34.195 1.0939c22.432 0.73019 37.113 1.0948 44.043 1.0944 6.2005 0.00047 32.371-0.72879 78.511-2.1882l2.1882 1.9146v13.678l-2.1882 1.9151c-12.584 0.36509-22.341 0.91226-29.271 1.641-6.7482 0.73019-11.672 2.0977-14.772 4.1033-3.1005 2.0066-5.1977 6.7482-6.292 14.225-0.9118 7.2954-1.3679 17.508-1.3675 30.639l-0.54717 62.919v57.447" fill="#fff" transform="matrix(0.20282 0 0 0.20282 4.155 -35.391)"/>
   <text x="357.01" font-size="12" y="522.6" fill="#000000" font-family="Bitstream Vera Sans"><tspan x="357.01" y="522.6"/>
   </text>
  </g>
  <rect x="-96" rx="25" y="958.36" clip-path="url(#clipPath3009)" fill="#fff" height="92" opacity="0.15" width="92" transform="matrix(1 0 0 1 98 0)"/>
 </g>
</svg>
