<svg height="96" width="96" xmlns="http://www.w3.org/2000/svg" xmlns:sodipodi="http://sodipodi.sourceforge.net/DTD/sodipodi-0.dtd" xmlns:inkscape="http://www.inkscape.org/namespaces/inkscape">
 <defs>
  <linearGradient x2="0" y1="962.62" y2="1046.1" gradientUnits="userSpaceOnUse" id="linearGradient11642" inkscape:collect="always" gradientTransform="matrix(1.15 0 0 1.15 -7.2 -150.65)">
   <stop stop-color="#6a2700" stop-opacity="1"/>
   <stop stop-color="#c04700" stop-opacity="1" offset="1"/>
  </linearGradient>
  <linearGradient x1="373" x2="375.8" y1="597.84" y2="477.87" gradientUnits="userSpaceOnUse" id="linearGradient4015-2" gradientTransform="matrix(0.21272 0 0 0.21526 -31.94 -59.16)">
   <stop stop-color="#ff9d60" stop-opacity="1"/>
   <stop stop-color="#ffe1ba" stop-opacity="1" offset="1"/>
  </linearGradient>
  <radialGradient cy="503.76" r="14.664" gradientUnits="userSpaceOnUse" id="radialGradient4012-8" cx="370.52" gradientTransform="matrix(1.1494 0 0 1.08672 -380.63 -516.48)">
   <stop stop-color="#fbffce" stop-opacity="0.728"/>
   <stop stop-color="#ffb058" stop-opacity="0" offset="1"/>
  </radialGradient>
  <radialGradient cy="505.23" r="14.664" gradientUnits="userSpaceOnUse" id="radialGradient3991-6" cx="373.03" gradientTransform="matrix(-0.24424 -0.10895 0.11715 -0.26009 87.89 216.92)">
   <stop stop-color="#fbffce" stop-opacity="1"/>
   <stop stop-color="#fbffce" stop-opacity="0" offset="1"/>
  </radialGradient>
  <radialGradient cy="505.23" r="14.664" gradientUnits="userSpaceOnUse" id="radialGradient3988-1" cx="373.03" gradientTransform="matrix(-0.13975 -0.05416 0.06703 -0.12931 57.32 111.89)">
   <stop stop-color="#fbffce" stop-opacity="0.64"/>
   <stop stop-color="#fbffce" stop-opacity="0" offset="1"/>
  </radialGradient>
  <clipPath clipPathUnits="userSpaceOnUse" id="clipPath3009">
   <path d="m -2,956.36218 -96,0 0,33.5624 96,25.68742 0,-59.24982 z" inkscape:connector-curvature="0"/>
  </clipPath>
 </defs>
 <g inkscape:label="Layer 1" inkscape:groupmode="layer" transform="matrix(1 0 0 1 0 -956.36)">
  <rect x="2" rx="25" y="958.36" fill="url(#linearGradient11642)" fill-opacity="1" height="92" width="92"/>
  <g transform="matrix(1 0 0 1 0 956.36)">
   <path stroke-width="4.618" d="M 47.996681,17 C 42.20452,17 36.557927,19.375652 32.461399,23.531751 28.364871,27.68785 26,33.434089 26,39.31291 c 0,5.878823 2.364871,11.618329 6.461399,15.774428 3.470672,3.521139 8.0543,5.767621 12.896203,6.370312 l 0,1.088587 -7.930504,0 0,5.368004 7.930504,0 1.6117,15.085759 2.061396,0 1.611701,-15.085759 7.930493,0 0,-5.368004 -7.930493,0 0,-1.088587 C 55.492131,60.854959 60.101176,58.608477 63.571836,55.087338 67.668364,50.931239 70,45.191733 70,39.31291 70,33.434089 67.668364,27.68785 63.571836,23.531751 59.475309,19.375652 53.788841,17 47.996681,17 z m 0,2.116488 c 4.345408,0 8.87411,1.739983 11.825956,4.971129 6.741525,7.379432 6.461936,19.881542 0,27.232687 -2.888909,3.286444 -7.480548,4.964408 -11.825956,4.964408 -4.336106,0 -8.715127,-1.859995 -11.786071,-4.964408 l -0.03325,0 c -6.62164,-7.494046 -6.279044,-19.711584 0,-27.232687 3.071812,-3.116486 7.473907,-4.971129 11.819316,-4.971129 l 1.2e-5,0 z" display="inline" fill="#ff9955" color="#000000" fill-opacity="1" stroke="none" visibility="visible" opacity="0.3" inkscape:connector-curvature="0"/>
   <path stroke-width="4.618" d="M 47.996681,15 C 42.20452,15 36.557927,17.375652 32.461399,21.531751 28.364871,25.68785 26,31.434089 26,37.31291 c 0,5.878823 2.364871,11.618329 6.461399,15.774428 3.470672,3.521139 8.0543,5.767621 12.896203,6.370312 l 0,1.088587 -7.930504,0 0,5.368004 7.930504,0 1.6117,15.085759 2.061396,0 1.611701,-15.085759 7.930493,0 0,-5.368004 -7.930493,0 0,-1.088587 C 55.492131,58.854959 60.101176,56.608477 63.571836,53.087338 67.668364,48.931239 70,43.191733 70,37.31291 70,31.434089 67.668364,25.68785 63.571836,21.531751 59.475309,17.375652 53.788841,15 47.996681,15 z m 0,2.116488 c 4.345408,0 8.87411,1.739983 11.825956,4.971129 6.741525,7.379432 6.461936,19.881542 0,27.232687 -2.888909,3.286444 -7.480548,4.964408 -11.825956,4.964408 -4.336106,0 -8.715127,-1.859995 -11.786071,-4.964408 l -0.03325,0 c -6.62164,-7.494046 -6.279044,-19.711584 0,-27.232687 3.071812,-3.116486 7.473907,-4.971129 11.819316,-4.971129 l 1.2e-5,0 z" display="inline" fill="#552200" color="#000000" fill-opacity="1" stroke="none" visibility="visible" inkscape:connector-curvature="0"/>
   <path stroke-width="4.618" d="M 47.996681,16 C 42.20452,16 36.557927,18.375652 32.461399,22.531751 28.364871,26.68785 26,32.434089 26,38.31291 c 0,5.878823 2.364871,11.618329 6.461399,15.774428 3.470672,3.521139 8.0543,5.767621 12.896203,6.370312 l 0,1.088587 -7.930504,0 0,5.368004 7.930504,0 1.6117,15.085759 2.061396,0 1.611701,-15.085759 7.930493,0 0,-5.368004 -7.930493,0 0,-1.088587 C 55.492131,59.854959 60.101176,57.608477 63.571836,54.087338 67.668364,49.931239 70,44.191733 70,38.31291 70,32.434089 67.668364,26.68785 63.571836,22.531751 59.475309,18.375652 53.788841,16 47.996681,16 z m 0,2.116488 c 4.345408,0 8.87411,1.739983 11.825956,4.971129 6.741525,7.379432 6.461936,19.881542 0,27.232687 -2.888909,3.286444 -7.480548,4.964408 -11.825956,4.964408 -4.336106,0 -8.715127,-1.859995 -11.786071,-4.964408 l -0.03325,0 c -6.62164,-7.494046 -6.279044,-19.711584 0,-27.232687 3.071812,-3.116486 7.473907,-4.971129 11.819316,-4.971129 l 1.2e-5,0 z" display="inline" fill="url(#linearGradient4015-2)" color="#000000" fill-opacity="1" stroke="none" visibility="visible" inkscape:connector-curvature="0"/>
   <path d="m 46.547015,50.910865 c -1.069973,-0.129936 -2.951984,-0.534032 -3.80896,-0.817816 -2.480804,-0.821494 -5.111655,-2.446353 -6.753184,-4.170898 -1.244807,-1.307727 -2.855229,-4.066593 -3.547301,-6.076999 -2.194995,-6.376138 -1.240739,-9.746146 2.451238,-15.225654 1.818353,-2.698726 5.476925,-5.02168 9.44481,-5.996848 1.686159,-0.414392 6.152917,-0.38629 7.789738,0.0491 6.441559,1.713124 10.400235,5.733518 12.202633,12.392894 1.060475,3.918166 0.817274,4.871396 -0.614107,8.793125 -1.808318,4.954472 -4.833171,8.232733 -9.155162,9.922141 -2.334392,0.912487 -5.790687,1.400541 -8.009705,1.131036 l 0,-4.7e-5 z" fill="url(#radialGradient4012-8)" fill-opacity="1" stroke="none" inkscape:connector-curvature="0"/>
   <path d="m 58.018851,41.229015 c 0.215148,0.128451 0.577449,0.390219 0.733035,0.530378 0.449855,0.405862 0.858008,0.990958 1.046004,1.503566 0.142089,0.388417 0.227539,1.112535 0.186963,1.594275 -0.128186,1.528065 -1.035665,3.002208 -2.331139,3.786618 -0.637921,0.386449 -1.632065,0.520455 -2.566163,0.346219 -0.396675,-0.07416 -1.343431,-0.503227 -1.650643,-0.748582 -1.208829,-0.965375 -1.675282,-2.172695 -1.437207,-3.722211 0.139951,-0.91165 0.671048,-1.952798 1.340916,-2.629053 0.846083,-0.854499 1.794944,-1.246018 2.870687,-1.186303 0.581032,0.03212 1.361009,0.258902 1.807403,0.525038 z" display="inline" fill="url(#radialGradient3991-6)" fill-opacity="1" stroke="none" inkscape:connector-curvature="0"/>
   <path d="m 40.229066,24.546215 c 0.122987,0.06378 0.330428,0.1941 0.419434,0.263676 0.257414,0.201743 0.490941,0.492656 0.598511,0.747498 0.08132,0.193111 0.130233,0.553122 0.106867,0.792624 -0.07335,0.759705 -0.59259,1.492576 -1.333847,1.882557 -0.365005,0.192139 -0.933832,0.258762 -1.468316,0.172289 -0.226986,-0.03684 -0.768681,-0.250169 -0.944446,-0.372164 -0.691719,-0.479974 -0.95859,-1.080182 -0.822365,-1.850537 0.08006,-0.453267 0.383969,-0.97087 0.76725,-1.307054 0.484113,-0.424858 1.027019,-0.619509 1.642559,-0.589817 0.332456,0.01649 0.778731,0.128673 1.034174,0.261037 z" display="inline" fill="url(#radialGradient3988-1)" fill-opacity="1" stroke="none" inkscape:connector-curvature="0"/>
   <path stroke-width="4.618" d="M 48,16 C 42.207839,16 36.565278,18.375151 32.46875,22.53125 28.372222,26.687349 26,32.433679 26,38.3125 c 0,5.878823 2.372222,11.625151 6.46875,15.78125 3.470672,3.521139 8.033097,5.772309 12.875,6.375 l 0,1.0625 -7.90625,0 0,5.375 7.90625,0 1.625,15.09375 2.0625,0 1.625,-15.09375 7.90625,0 0,-5.375 -7.90625,0 0,-1.0625 c 4.849732,-0.602691 9.43559,-2.853861 12.90625,-6.375 C 67.659028,49.937651 70,44.191323 70,38.3125 70,32.433679 67.659028,26.687349 63.5625,22.53125 59.465973,18.375151 53.79216,16 48,16 z m 0,1 c 5.51877,0 10.937578,2.255775 14.84375,6.21875 C 66.750477,27.182288 69,32.699163 69,38.3125 c 0,5.613339 -2.249523,11.130212 -6.15625,15.09375 -3.311086,3.359244 -7.688643,5.487879 -12.3125,6.0625 a 1.0001536,1.0001536 0 0 0 -0.875,1 l 0,1.0625 a 1.0001536,1.0001536 0 0 0 1,1 l 6.90625,0 0,3.375 -6.90625,0 a 1.0001536,1.0001536 0 0 0 -1,0.90625 L 48.125,81 47.875,81 46.34375,66.8125 a 1.0001536,1.0001536 0 0 0 -1,-0.90625 l -6.90625,0 0,-3.375 6.90625,0 a 1.0001536,1.0001536 0 0 0 1,-1 l 0,-1.0625 a 1.0001536,1.0001536 0 0 0 -0.875,-1 C 40.853339,58.894251 36.500178,56.767098 33.1875,53.40625 29.278988,49.440901 27,43.922295 27,38.3125 27,32.702707 29.278988,27.184099 33.1875,23.21875 37.095458,19.253964 42.481229,17 48,17 z m 0,0.125 c -4.629596,0 -9.263712,1.966191 -12.53125,5.28125 a 1.0001536,1.0001536 0 0 0 -0.0625,0.03125 c -6.608646,7.915904 -6.958426,20.620679 0.03125,28.53125 a 1.0001536,1.0001536 0 0 0 0.0625,0.0625 1.0001536,1.0001536 0 0 0 0.21875,0.15625 c 3.251323,3.184909 7.747969,5.09375 12.28125,5.09375 4.603519,0 9.439421,-1.759662 12.5625,-5.3125 6.823289,-7.762222 7.129753,-20.758105 0,-28.5625 C 57.388553,18.931988 52.612003,17.125 48,17.125 z m 0,1 c 4.345408,0 8.860654,1.737604 11.8125,4.96875 6.741525,7.379432 6.461936,19.867605 0,27.21875 -2.888909,3.286444 -7.467092,4.96875 -11.8125,4.96875 -4.336106,0 -8.710306,-1.864337 -11.78125,-4.96875 l -0.03125,0 c -6.62164,-7.494046 -6.279044,-19.697647 0,-27.21875 C 39.259312,19.977264 43.654591,18.125 48,18.125 z" display="inline" fill="#a14505" color="#000000" fill-opacity="1" stroke="none" visibility="visible" opacity="0.2" inkscape:connector-curvature="0"/>
  </g>
  <rect x="-96" rx="25" y="958.36" clip-path="url(#clipPath3009)" fill="#ffffff" fill-opacity="1" height="92" opacity="0.15" width="92" transform="matrix(1 0 0 1 98 0)"/>
 </g>
</svg>
