<svg height="96" width="96" xmlns="http://www.w3.org/2000/svg" xmlns:sodipodi="http://sodipodi.sourceforge.net/DTD/sodipodi-0.dtd" xmlns:inkscape="http://www.inkscape.org/namespaces/inkscape">
 <defs>
  <linearGradient x2="0" y1="962.62" y2="1046.1" gradientUnits="userSpaceOnUse" id="linearGradient11642" gradientTransform="matrix(1.15 0 0 1.15 -7.2 -150.65)">
   <stop stop-color="#ca0019"/>
   <stop stop-color="#e68995" offset="1"/>
  </linearGradient>
  <clipPath clipPathUnits="userSpaceOnUse" id="clipPath3009">
   <path d="m-2 956.36h-96v33.562l96 25.687v-59.25z"/>
  </clipPath>
 </defs>
 <g transform="matrix(1 0 0 1 0 -956.36)">
  <rect x="2" rx="25" y="958.36" fill="url(#linearGradient11642)" height="92" width="92"/>
  <path d="m33.199 1022.2c-1.1953-0.1606-3.3373-0.8366-4.76-1.5022-9.277-4.3409-13.073-15.254-8.5039-24.447 5.2266-10.514 19.472-13.195 28.042-5.2771 2.4752 2.2868 3.5855 4.2445 7.3076 12.885 3.8935 9.0384 4.6173 10.476 5.8818 11.678 1.3478 1.2817 2.5976 1.7082 5.0055 1.7082 3.9399 0 6.751-2.3661 6.751-5.6823 0-2.7946-1.0149-3.6997-6.1703-5.503-7.8503-2.746-10.394-5.2511-10.399-10.242-0.0032-2.6776 0.69849-4.4754 2.4595-6.3027 2.5349-2.6304 6.9101-3.5205 10.78-2.1933 1.6396 0.56226 5.0928 3.5476 5.0928 4.4029 0 0.41395-1.9974 1.6828-3.1081 1.9744-0.58211 0.15285-1.0878-0.0404-1.7629-0.6737-1.3722-1.2872-2.3009-1.6845-3.938-1.6845-2.8313 0-4.5893 1.6642-4.5893 4.3442 0 2.673 1.1235 3.5811 6.6992 5.4147 7.6972 2.5313 9.9565 4.8133 10.012 10.113 0.048 4.5694-2.0567 7.8659-6.2655 9.8134-1.9156 0.8864-2.559 0.9989-5.6859 0.994-4.4471-0.01-6.4495-0.8017-8.9459-3.5506-1.6768-1.8465-3.3834-5.3136-8.8389-17.956-2.2616-5.2411-5.1712-7.8009-10.011-8.8072-2.4427-0.50787-5.8593-0.0407-8.0942 1.1068-2.1555 1.1067-4.5957 3.6064-5.7407 5.8805-0.93719 1.8615-1.0327 2.3796-1.0327 5.5999 0 3.077 0.12117 3.8078 0.91192 5.5002 1.1982 2.5644 3.5538 4.9513 6.1549 6.2366 1.8743 0.9262 2.4612 1.0379 5.4501 1.0379 2.8803 0 3.6265-0.1306 5.3262-0.9327 1.9585-0.9243 4.5917-3.2126 5.6643-4.9224l0.55654-0.8871 1.102 2.4444c0.6061 1.3443 1.102 2.6293 1.102 2.8555 0 0.6678-2.4837 2.8976-4.76 4.2734-3.4609 2.0918-7.4324 2.8733-11.693 2.3011z" fill="#fff"/>
  <rect x="-96" rx="25" y="958.36" clip-path="url(#clipPath3009)" fill="#fff" height="92" opacity="0.15" width="92" transform="matrix(1 0 0 1 98 0)"/>
 </g>
</svg>
