<?xml version="1.0" encoding="UTF-8" standalone="no"?>
<svg
   xmlns:dc="http://purl.org/dc/elements/1.1/"
   xmlns:cc="http://creativecommons.org/ns#"
   xmlns:rdf="http://www.w3.org/1999/02/22-rdf-syntax-ns#"
   xmlns:svg="http://www.w3.org/2000/svg"
   xmlns="http://www.w3.org/2000/svg"
   xmlns:sodipodi="http://sodipodi.sourceforge.net/DTD/sodipodi-0.dtd"
   xmlns:inkscape="http://www.inkscape.org/namespaces/inkscape"
   height="96"
   width="96"
   id="svg2"
   version="1.1"
   inkscape:version="0.91 r13725"
   sodipodi:docname="libreoffice-impress.svg">
  <metadata
     id="metadata18">
    <rdf:RDF>
      <cc:Work
         rdf:about="">
        <dc:format>image/svg+xml</dc:format>
        <dc:type
           rdf:resource="http://purl.org/dc/dcmitype/StillImage" />
      </cc:Work>
    </rdf:RDF>
  </metadata>
  <defs
     id="defs16">
    <linearGradient
       id="linearGradient3766">
      <stop
         id="stop3768"
         offset="0"
         style="stop-color:#ff6d00;stop-opacity:1;" />
      <stop
         id="stop3770"
         offset="1"
         style="stop-color:#ff7f1f;stop-opacity:1;" />
    </linearGradient>
  </defs>
  <sodipodi:namedview
     pagecolor="#ffffff"
     bordercolor="#666666"
     borderopacity="1"
     objecttolerance="10"
     gridtolerance="10"
     guidetolerance="10"
     inkscape:pageopacity="0"
     inkscape:pageshadow="2"
     inkscape:window-width="1366"
     inkscape:window-height="716"
     id="namedview14"
     showgrid="false"
     inkscape:zoom="2.4583333"
     inkscape:cx="-7.3220339"
     inkscape:cy="48"
     inkscape:window-x="0"
     inkscape:window-y="24"
     inkscape:window-maximized="1"
     inkscape:current-layer="g4" />
  <g
     inkscape:label="Layer 1"
     inkscape:groupmode="layer"
     transform="matrix(1 0 0 1 0 -956.36)"
     id="g4">
    <rect
       x="8"
       rx="10.769"
       y="964.35999"
       height="80"
       width="80"
       id="rect6"
       style="fill:#ff6f03;fill-opacity:1;stroke:none" />
    <g
       id="g3032"
       transform="translate(8.949153,1008.2056)" />
    <g
       id="g4182"
       transform="matrix(2,0,0,2,77.101694,-1055.0512)">
      <path
         inkscape:connector-curvature="0"
         style="opacity:0.2;fill:black;fill-opacity:1;stroke:none"
         d="m -24.050847,1018.2056 c -1.108,0 -2,0.892 -2,2 l 0,20 c 0,1.108 0.892,2 2,2 l 20,0 c 1.108,0 2,-0.892 2,-2 l 0,-20 c 0,-1.108 -0.892,-2 -2,-2 l -20,0 z m 0,2 20,0 0,20 -20,0 0,-20 z m 8,6 0,12 3,0 0,-12 -3,0 z m 5,5 0,7 3,0 0,-7 -3,0 z m -10,2 0,5 3,0 0,-5 -3,0 z"
         id="path3789" />
      <path
         id="rect3774"
         d="m -25.050847,1017.2056 c -1.108,0 -2,0.892 -2,2 l 0,20 c 0,1.108 0.892,2 2,2 l 20,0 c 1.108,0 2,-0.892 2,-2 l 0,-20 c 0,-1.108 -0.892,-2 -2,-2 l -20,0 z m 0,2 20,0 0,20 -20,0 0,-20 z m 8,6 0,12 3,0 0,-12 -3,0 z m 5,5 0,7 3,0 0,-7 -3,0 z m -10,2 0,5 3,0 0,-5 -3,0 z"
         style="fill:white;fill-opacity:1;stroke:none"
         inkscape:connector-curvature="0" />
    </g>
  </g>
</svg>
