<svg height="96" width="96" xmlns="http://www.w3.org/2000/svg" xmlns:xlink="http://www.w3.org/1999/xlink" xmlns:sodipodi="http://sodipodi.sourceforge.net/DTD/sodipodi-0.dtd" xmlns:inkscape="http://www.inkscape.org/namespaces/inkscape">
 <defs>
  <clipPath clipPathUnits="userSpaceOnUse" id="clipPath3009">
   <path d="m -2,956.36218 -96,0 0,33.5624 96,25.68742 0,-59.24982 z" inkscape:connector-curvature="0"/>
  </clipPath>
  <linearGradient x2="0" y1="90" y2="5.988" gradientUnits="userSpaceOnUse" id="linearGradient4139" inkscape:collect="always">
   <stop stop-color="#f57900" stop-opacity="1"/>
   <stop stop-color="#c05f00" stop-opacity="1" offset="1"/>
  </linearGradient>
  <linearGradient x1="5" x2="11.227" gradientUnits="userSpaceOnUse" id="linearGradient4120" inkscape:collect="always" gradientTransform="matrix(1 0 0 1 1 -15.321)">
   <stop stop-color="#383838" stop-opacity="1"/>
   <stop stop-color="#494949" stop-opacity="0" offset="1"/>
  </linearGradient>
  <linearGradient x1="5" x2="21" gradientUnits="userSpaceOnUse" id="linearGradient4091" inkscape:collect="always" gradientTransform="matrix(1.125 0 0 1 0.375 -4)">
   <stop stop-color="#171717" stop-opacity="1"/>
   <stop stop-color="#4d4d4d" stop-opacity="0" offset="1"/>
  </linearGradient>
  <linearGradient x1="5" x2="21" gradientUnits="userSpaceOnUse" id="linearGradient4093" inkscape:collect="always" gradientTransform="matrix(1.125 0 0 1 0.375 -10)">
   <stop stop-color="#919191" stop-opacity="1"/>
   <stop stop-color="#919191" stop-opacity="0" offset="1"/>
  </linearGradient>
  <radialGradient cy="48" r="11.438" gradientUnits="userSpaceOnUse" id="radialGradient5122" cx="56.813" inkscape:collect="always" gradientTransform="matrix(0.87878 0 0 3.21301 7.07 -106.22)">
   <stop stop-color="#505050" stop-opacity="1"/>
   <stop stop-color="#000000" stop-opacity="1" offset="1"/>
  </radialGradient>
  <linearGradient x1="42.654" x2="63.37" y1="61.6" y2="56.4" gradientUnits="userSpaceOnUse" id="linearGradient5114" inkscape:collect="always" gradientTransform="matrix(1 0 0 1 0.187 0)">
   <stop stop-color="#f0f0f0" stop-opacity="1"/>
   <stop stop-color="#8c8c8c" stop-opacity="1" offset="1"/>
  </linearGradient>
  <clipPath clipPathUnits="userSpaceOnUse" id="clipPath3152">
   <rect x="7.75" rx="21.875" y="7.75" height="80.5" width="80.5"/>
  </clipPath>
  <path stroke-opacity="1" d="m 56.855182,31.423976 c 5.005485,-0.09993 9.614195,3.499401 10.055833,8.448797 0.274587,3.077374 -1.560753,7.217502 -5.301504,8.358665 l 3.888407,16.346616 -18.072336,-0.11723 4.848954,-16.373712 c -3.555192,-1.096001 -5.477921,-5.38257 -5.182776,-8.390952 0.521182,-5.312232 5.083196,-8.178785 9.763422,-8.272184 z" fill-opacity="1" stroke-dasharray="none" id="SVGCleanerId_0" stroke-linecap="butt" stroke-linejoin="miter" stroke-miterlimit="4"/>
  <rect x="6" y="20" fill="url(#linearGradient4091)" fill-opacity="1" stroke="none" fill-rule="nonzero" height="2" id="SVGCleanerId_1" width="18"/>
  <rect x="6" y="16" fill="url(#linearGradient4093)" fill-opacity="1" stroke="none" fill-rule="nonzero" height="2" id="SVGCleanerId_2" width="18"/>
 </defs>
 <g inkscape:label="Layer 1" inkscape:groupmode="layer" transform="matrix(1 0 0 1 0 -956.36)">
  <g clip-path="url(#clipPath3152)" transform="matrix(1.14286 0 0 1.14286 -6.857 949.51)">
   <rect x="6" rx="6" y="6" fill="url(#linearGradient4139)" fill-opacity="1" fill-rule="nonzero" stroke="none" height="84" width="84"/>
   <path d="M 12,6 C 8.676,6 6,8.676 6,12 l 0,72 c 0,3.324 2.676,6 6,6 L 24,90 24,6 12,6 z" display="inline" fill="#555753" fill-opacity="1" fill-rule="nonzero" stroke="none" inkscape:connector-curvature="0"/>
   <path d="M 12,6 C 8.676,6 6,8.676 6,12 l 0,72 c 0,3.324 2.676,6 6,6 l 9.125,0 0,-84 L 12,6 z" display="inline" fill="url(#linearGradient4120)" fill-opacity="1" fill-rule="nonzero" stroke="none" inkscape:connector-curvature="0"/>
   <g transform="matrix(1 0 0 1 0 2)">
    <use xlink:href="#SVGCleanerId_1"/>
    <use xlink:href="#SVGCleanerId_2"/>
   </g>
   <path d="m 31.68508,32.825603 0,30.348794 16.403173,16.361986 17.823494,0 16.403173,-16.361986 0,-30.348794 -16.403173,-16.361986 -17.823494,0 z" fill="#555753" stroke="none" opacity="0.876" sodipodi:nodetypes="ccccccccc" inkscape:connector-curvature="0"/>
   <use stroke-width="8" xlink:href="#SVGCleanerId_0" fill="#000000" stroke="#ce5c00" sodipodi:nodetypes="csccccss" inkscape:connector-curvature="0"/>
   <g transform="matrix(1 0 0 1 0 20)">
    <use xlink:href="#SVGCleanerId_1"/>
    <use xlink:href="#SVGCleanerId_2"/>
   </g>
   <g transform="matrix(1 0 0 1 0 56)">
    <use xlink:href="#SVGCleanerId_1"/>
    <use xlink:href="#SVGCleanerId_2"/>
   </g>
   <g transform="matrix(1 0 0 1 0 38)">
    <use xlink:href="#SVGCleanerId_1"/>
    <use xlink:href="#SVGCleanerId_2"/>
   </g>
   <rect x="24" y="6" fill="#ffffff" fill-opacity="1" stroke="none" height="84" opacity="0.1" width="1"/>
   <rect x="23" y="6" fill="#000000" fill-opacity="1" stroke="none" height="84" opacity="0.1" width="1"/>
   <use stroke-width="3" xlink:href="#SVGCleanerId_0" fill="url(#radialGradient5122)" stroke="url(#linearGradient5114)" sodipodi:nodetypes="csccccss" inkscape:connector-curvature="0"/>
   <path d="m 24.625,8 0,80 47.28125,0 5.53125,0 7.46875,0 C 87.174323,88 89,86.174323 89,83.90625 l 0,-6.5 0,-6.5 0,-45.8125 0,-13 C 89,9.825677 87.174323,8 84.90625,8 L 78.03125,8 24.625,8 z m 2.59375,3.25 34.15625,0 13.78125,0 11.0625,0 0,11.0625 0,16.71875 0,17.9375 0,16.71875 0,11.0625 -11.0625,0 -13.78125,0 -34.15625,0 0,-73.5 z" fill="#555753" fill-opacity="1" stroke="none" opacity="0.45" inkscape:connector-curvature="0"/>
   <path d="m 28,10 0,0.498361 0,5.201639 0,0.498361 0.49948,0 4.557752,0 0,4.142623 -1.498439,0 0,-2.118033 0,-0.498361 -0.49948,0 -2.559833,0 -0.49948,0 0,0.498361 0,2.616393 0,0.498361 0.49948,0 2.060354,0 0,53.32459 -2.060354,0 -0.49948,0 0,0.498361 0,2.647541 0,0.49836 0.49948,0 2.559833,0 0.49948,0 0,-0.49836 0,-2.149181 1.498439,0 0,4.142623 -4.557752,0 -0.49948,0 L 28,80.3 28,85.501639 28,86 l 0.49948,0 5.057232,0 0.499479,0 0,-0.498361 0,-4.703278 4.245578,0 0,1.650819 -2.154006,0 -0.49948,0 0,0.498361 0,2.554098 0,0.498361 0.49948,0 2.653486,0 0.499479,0 0,-0.498361 0,-2.055737 35.398544,0 0,2.055737 0,0.498361 0.499479,0 2.684704,0 0.499479,0 0,-0.498361 0,-2.554098 0,-0.498361 -0.499479,0 -2.185224,0 0,-1.650819 4.245578,0 0,4.703278 0,0.498361 0.499479,0 5.057232,0 L 86,86 86,85.501639 86,80.3 l 0,-0.498361 -0.49948,0 -4.557752,0 0,-4.142623 1.529657,0 0,2.149181 0,0.49836 0.499479,0 2.528616,0 0.49948,0 0,-0.49836 0,-2.647541 0,-0.498361 -0.49948,0 -2.029136,0 0,-53.32459 2.029136,0 0.49948,0 0,-0.498361 0,-2.616393 0,-0.498361 -0.49948,0 -2.528616,0 -0.499479,0 0,0.498361 0,2.118033 -1.529657,0 0,-4.142623 4.557752,0 0.49948,0 L 86,15.7 86,10.498361 86,10 l -0.49948,0 -5.057232,0 -0.499479,0 0,0.498361 0,4.703278 -4.245578,0 0,-1.650819 2.185224,0 0.499479,0 0,-0.467213 0,-2.585246 0,-0.498361 -0.499479,0 -2.684704,0 -0.499479,0 0,0.498361 0,2.086885 -35.398544,0 0,-2.086885 0,-0.498361 -0.499479,0 -2.653486,0 -0.49948,0 0,0.498361 0,2.585246 0,0.467213 0.49948,0 2.154006,0 0,1.650819 -4.245578,0 0,-4.703278 0,-0.498361 -0.499479,0 L 28.49948,10 28,10 z m 0.998959,0.996721 4.058273,0 0,4.204918 -4.058273,0 0,-4.204918 z m 7.648283,0 1.654527,0 0,1.588525 -1.654527,0 0,-1.588525 z m 39.050989,0 1.685744,0 0,1.588525 -1.685744,0 0,-1.588525 z m 5.244537,0 4.058273,0 0,4.204918 -4.058273,0 0,-4.204918 z m -41.64204,2.554099 35.398544,0 0,1.650819 -2.091572,0 -0.499479,0 0,0.498361 0,2.585246 0,0.467213 0.499479,0 2.591051,0 0.49948,0 0,-0.467213 0,-2.086885 4.245578,0 0,4.142623 -2.154007,0 -0.499479,0 0,0.49836 0,2.585246 0,0.467213 0.499479,0 2.653486,0 0.49948,0 0,-0.467213 0,-2.086885 1.529657,0 0,53.32459 -1.529657,0 0,-2.055738 0,-0.49836 -0.49948,0 -2.653486,0 -0.499479,0 0,0.49836 0,2.554099 0,0.49836 0.499479,0 2.154007,0 0,4.142623 -4.245578,0 0,-2.055737 0,-0.498361 -0.49948,0 -2.591051,0 -0.499479,0 0,0.498361 0,2.554098 0,0.498361 0.499479,0 2.091572,0 0,1.650819 -35.398544,0 0,-1.650819 2.122789,0 0.49948,0 0,-0.498361 0,-2.554098 0,-0.498361 -0.49948,0 -2.622268,0 -0.49948,0 0,0.498361 0,2.055737 -4.245578,0 0,-4.142623 2.185224,0 0.49948,0 0,-0.49836 0,-2.554099 0,-0.49836 -0.49948,0 -2.684703,0 -0.49948,0 0,0.49836 0,2.055738 -1.498439,0 0,-53.32459 1.498439,0 0,2.086885 0,0.467213 0.49948,0 2.684703,0 0.49948,0 0,-0.467213 0,-2.585246 0,-0.49836 -0.49948,0 -2.185224,0 0,-4.142623 4.245578,0 0,2.086885 0,0.467213 0.49948,0 2.622268,0 0.49948,0 0,-0.467213 0,-2.585246 0,-0.498361 -0.49948,0 -2.122789,0 0,-1.650819 z m 0,2.647541 1.623309,0 0,1.588524 -1.623309,0 0,-1.588524 z m 33.806452,0 1.592092,0 0,1.588524 -1.592092,0 0,-1.588524 z m -44.108221,2.491803 1.560875,0 0,1.65082 -1.560875,0 0,-1.65082 z m 54.472425,0 1.529657,0 0,1.65082 -1.529657,0 0,-1.65082 z m -49.415193,2.647541 1.685744,0 0,1.588525 -1.685744,0 0,-1.588525 z m 44.233091,0 1.654527,0 0,1.588525 -1.654527,0 0,-1.588525 z m -44.233091,51.767213 1.685744,0 0,1.557377 -1.685744,0 0,-1.557377 z m 44.233091,0 1.654527,0 0,1.557377 -1.654527,0 0,-1.557377 z m -49.290323,2.554098 1.560875,0 0,1.65082 -1.560875,0 0,-1.65082 z m 54.472425,0 1.529657,0 0,1.65082 -1.529657,0 0,-1.65082 z m -44.170656,2.585246 1.623309,0 0,1.557377 -1.623309,0 0,-1.557377 z m 33.806452,0 1.592092,0 0,1.557377 -1.592092,0 0,-1.557377 z m -44.108221,2.554099 4.058273,0 0,4.204918 -4.058273,0 0,-4.204918 z m 51.943809,0 4.058273,0 0,4.204918 -4.058273,0 0,-4.204918 z m -44.295526,2.647541 1.654527,0 0,1.557377 -1.654527,0 0,-1.557377 z m 39.050989,0 1.685744,0 0,1.557377 -1.685744,0 0,-1.557377 z" display="inline" fill="#fcaf3e" fill-opacity="1" fill-rule="evenodd" stroke="none" opacity="0.8" inkscape:connector-curvature="0"/>
   <path d="m 48.09375,16.46875 -2,2 17.8125,0 16.40625,16.34375 0,30.375 2,-2 0,-30.375 -16.40625,-16.34375 -17.8125,0 z" fill="#eeeeec" stroke="none" opacity="0.116" inkscape:connector-curvature="0"/>
   <path d="m 33.6875,30.8125 -2,2 0,30.375 16.40625,16.34375 17.8125,0 2,-2 -17.8125,0 -16.40625,-16.34375 0,-30.375 z" fill="#2e3436" stroke="none" opacity="0.116" inkscape:connector-curvature="0"/>
  </g>
  <rect x="-96" rx="25" y="958.36" clip-path="url(#clipPath3009)" fill="#ffffff" fill-opacity="1" height="92" opacity="0.15" width="92" transform="matrix(1 0 0 1 98 0)"/>
 </g>
</svg>
