<?xml version="1.0" encoding="UTF-8" standalone="no"?>
<!-- Created with Inkscape (http://www.inkscape.org/) -->

<svg
   xmlns:dc="http://purl.org/dc/elements/1.1/"
   xmlns:cc="http://creativecommons.org/ns#"
   xmlns:rdf="http://www.w3.org/1999/02/22-rdf-syntax-ns#"
   xmlns:svg="http://www.w3.org/2000/svg"
   xmlns="http://www.w3.org/2000/svg"
   xmlns:xlink="http://www.w3.org/1999/xlink"
   xmlns:sodipodi="http://sodipodi.sourceforge.net/DTD/sodipodi-0.dtd"
   xmlns:inkscape="http://www.inkscape.org/namespaces/inkscape"
   width="96"
   height="96"
   id="svg11037"
   version="1.1"
   inkscape:version="0.48.5 r10040"
   sodipodi:docname="lifeograph.svg">
  <defs
     id="defs11039">
    <clipPath
       clipPathUnits="userSpaceOnUse"
       id="clipPath3009">
      <path
         id="path3011"
         d="m -2,956.36218 -96,0 0,33.5624 96,25.68742 0,-59.24982 z"
         style="opacity:0.15;fill:#ffffff;fill-opacity:1;stroke:none"
         inkscape:connector-curvature="0" />
    </clipPath>
    <linearGradient
       inkscape:collect="always"
       xlink:href="#ButtonColor"
       id="linearGradient4139"
       gradientUnits="userSpaceOnUse"
       x1="48"
       y1="90"
       x2="48"
       y2="5.9877172" />
    <linearGradient
       x1="58.650177"
       y1="122"
       x2="58.650177"
       y2="5.4252338"
       id="ButtonColor"
       gradientUnits="userSpaceOnUse"
       gradientTransform="matrix(1.0172414,0,0,1.0172414,-1.1034483,-1.1034483)">
      <stop
         id="stop3189"
         style="stop-color:#f57900;stop-opacity:1;"
         offset="0" />
      <stop
         id="stop3191"
         style="stop-color:#c05f00;stop-opacity:1;"
         offset="1" />
    </linearGradient>
    <linearGradient
       inkscape:collect="always"
       xlink:href="#linearGradient3294"
       id="linearGradient4120"
       gradientUnits="userSpaceOnUse"
       gradientTransform="translate(1,-15.321429)"
       x1="5"
       y1="64"
       x2="11.227473"
       y2="64" />
    <linearGradient
       id="linearGradient3294">
      <stop
         id="stop3296"
         style="stop-color:#383838;stop-opacity:1;"
         offset="0" />
      <stop
         id="stop3298"
         style="stop-color:#494949;stop-opacity:0;"
         offset="1" />
    </linearGradient>
    <linearGradient
       inkscape:collect="always"
       xlink:href="#linearGradient3238"
       id="linearGradient4091"
       gradientUnits="userSpaceOnUse"
       gradientTransform="matrix(1.125,0,0,1,0.375,-4.0000007)"
       x1="5"
       y1="28"
       x2="21"
       y2="28" />
    <linearGradient
       id="linearGradient3238">
      <stop
         id="stop3240"
         style="stop-color:#171717;stop-opacity:1;"
         offset="0" />
      <stop
         id="stop3242"
         style="stop-color:#4d4d4d;stop-opacity:0;"
         offset="1" />
    </linearGradient>
    <linearGradient
       inkscape:collect="always"
       xlink:href="#linearGradient3250"
       id="linearGradient4093"
       gradientUnits="userSpaceOnUse"
       gradientTransform="matrix(1.125,0,0,1,0.375,-9.9999997)"
       x1="5"
       y1="27"
       x2="21"
       y2="27" />
    <linearGradient
       id="linearGradient3250">
      <stop
         id="stop3252"
         style="stop-color:#919191;stop-opacity:1;"
         offset="0" />
      <stop
         id="stop3254"
         style="stop-color:#919191;stop-opacity:0;"
         offset="1" />
    </linearGradient>
    <linearGradient
       inkscape:collect="always"
       xlink:href="#linearGradient3238"
       id="linearGradient4097"
       gradientUnits="userSpaceOnUse"
       gradientTransform="matrix(1.125,0,0,1,0.375,-4.0000007)"
       x1="5"
       y1="28"
       x2="21"
       y2="28" />
    <linearGradient
       inkscape:collect="always"
       xlink:href="#linearGradient3250"
       id="linearGradient4099"
       gradientUnits="userSpaceOnUse"
       gradientTransform="matrix(1.125,0,0,1,0.375,-9.9999997)"
       x1="5"
       y1="27"
       x2="21"
       y2="27" />
    <linearGradient
       inkscape:collect="always"
       xlink:href="#linearGradient3238"
       id="linearGradient4101"
       gradientUnits="userSpaceOnUse"
       gradientTransform="matrix(1.125,0,0,1,0.375,-4.0000007)"
       x1="5"
       y1="28"
       x2="21"
       y2="28" />
    <linearGradient
       inkscape:collect="always"
       xlink:href="#linearGradient3250"
       id="linearGradient4103"
       gradientUnits="userSpaceOnUse"
       gradientTransform="matrix(1.125,0,0,1,0.375,-9.9999997)"
       x1="5"
       y1="27"
       x2="21"
       y2="27" />
    <linearGradient
       inkscape:collect="always"
       xlink:href="#linearGradient3238"
       id="linearGradient4105"
       gradientUnits="userSpaceOnUse"
       gradientTransform="matrix(1.125,0,0,1,0.375,-4.0000007)"
       x1="5"
       y1="28"
       x2="21"
       y2="28" />
    <linearGradient
       inkscape:collect="always"
       xlink:href="#linearGradient3250"
       id="linearGradient4107"
       gradientUnits="userSpaceOnUse"
       gradientTransform="matrix(1.125,0,0,1,0.375,-9.9999997)"
       x1="5"
       y1="27"
       x2="21"
       y2="27" />
    <radialGradient
       inkscape:collect="always"
       xlink:href="#linearGradient5116"
       id="radialGradient5122"
       cx="56.8125"
       cy="48"
       fx="56.8125"
       fy="48"
       r="11.437873"
       gradientTransform="matrix(0.87877744,0,1.6087873e-8,3.21301,7.0744559,-106.22448)"
       gradientUnits="userSpaceOnUse" />
    <linearGradient
       id="linearGradient5116">
      <stop
         style="stop-color:#505050;stop-opacity:1;"
         offset="0"
         id="stop5118" />
      <stop
         style="stop-color:#000000;stop-opacity:1;"
         offset="1"
         id="stop5120" />
    </linearGradient>
    <linearGradient
       inkscape:collect="always"
       xlink:href="#linearGradient5108"
       id="linearGradient5114"
       x1="42.653927"
       y1="61.603489"
       x2="63.366215"
       y2="56.404747"
       gradientUnits="userSpaceOnUse"
       gradientTransform="translate(0.18749972,2.1034725e-7)" />
    <linearGradient
       id="linearGradient5108">
      <stop
         style="stop-color:#f0f0f0;stop-opacity:1;"
         offset="0"
         id="stop5110" />
      <stop
         style="stop-color:#8c8c8c;stop-opacity:1;"
         offset="1"
         id="stop5112" />
    </linearGradient>
    <clipPath
       clipPathUnits="userSpaceOnUse"
       id="clipPath3152">
      <rect
         x="7.75"
         y="7.75"
         width="80.5"
         height="80.5"
         style="opacity:0.6;fill:#000000;fill-opacity:1"
         id="rect3154"
         rx="21.875"
         ry="21.875" />
    </clipPath>
  </defs>
  <sodipodi:namedview
     id="base"
     pagecolor="#ffffff"
     bordercolor="#666666"
     borderopacity="1.0"
     inkscape:pageopacity="0.0"
     inkscape:pageshadow="2"
     inkscape:zoom="3.959798"
     inkscape:cx="29.118614"
     inkscape:cy="59.964634"
     inkscape:document-units="px"
     inkscape:current-layer="layer1"
     showgrid="false"
     inkscape:window-width="1366"
     inkscape:window-height="684"
     inkscape:window-x="0"
     inkscape:window-y="26"
     inkscape:window-maximized="1"
     showguides="true"
     inkscape:guide-bbox="true">
    <sodipodi:guide
       orientation="0,1"
       position="-24.748737,0"
       id="guide11064" />
    <sodipodi:guide
       orientation="0,1"
       position="-23.233509,96"
       id="guide11066" />
    <sodipodi:guide
       orientation="1,0"
       position="0,54.800776"
       id="guide11068" />
    <sodipodi:guide
       orientation="1,0"
       position="96,51.012704"
       id="guide11070" />
    <sodipodi:guide
       orientation="0,1"
       position="-18.94036,48"
       id="guide11072" />
    <sodipodi:guide
       orientation="1,0"
       position="48,79.296975"
       id="guide11074" />
    <sodipodi:guide
       orientation="1,0"
       position="2,75.508903"
       id="guide11076" />
    <sodipodi:guide
       orientation="0,1"
       position="-77.27667,2"
       id="guide11078" />
    <sodipodi:guide
       orientation="1,0"
       position="94,77.781746"
       id="guide11080" />
    <sodipodi:guide
       orientation="0,1"
       position="-65.912454,94"
       id="guide11082" />
  </sodipodi:namedview>
  <metadata
     id="metadata11042">
    <rdf:RDF>
      <cc:Work
         rdf:about="">
        <dc:format>image/svg+xml</dc:format>
        <dc:type
           rdf:resource="http://purl.org/dc/dcmitype/StillImage" />
        <dc:title />
      </cc:Work>
    </rdf:RDF>
  </metadata>
  <g
     inkscape:label="Layer 1"
     inkscape:groupmode="layer"
     id="layer1"
     transform="translate(0,-956.36218)">
    <g
       transform="matrix(1.1428571,0,0,1.1428571,-6.8571426,949.50504)"
       id="g3176"
       clip-path="url(#clipPath3152)">
      <rect
         width="84"
         height="84"
         rx="6"
         ry="6"
         x="6"
         y="6"
         id="rect2419"
         style="fill:url(#linearGradient4139);fill-opacity:1;fill-rule:nonzero;stroke:none" />
      <path
         d="M 12,6 C 8.676,6 6,8.676 6,12 l 0,72 c 0,3.324 2.676,6 6,6 L 24,90 24,6 12,6 z"
         inkscape:connector-curvature="0"
         id="rect3170"
         style="fill:#555753;fill-opacity:1;fill-rule:nonzero;stroke:none;display:inline" />
      <path
         d="M 12,6 C 8.676,6 6,8.676 6,12 l 0,72 c 0,3.324 2.676,6 6,6 l 9.125,0 0,-84 L 12,6 z"
         inkscape:connector-curvature="0"
         id="path3292"
         style="fill:url(#linearGradient4120);fill-opacity:1;fill-rule:nonzero;stroke:none;display:inline" />
      <g
         transform="translate(0,2)"
         id="g3903">
        <rect
           width="18"
           height="2"
           x="6"
           y="20"
           id="rect3236"
           style="fill:url(#linearGradient4091);fill-opacity:1;fill-rule:nonzero;stroke:none" />
        <rect
           width="18"
           height="2"
           x="6"
           y="16"
           id="rect3246"
           style="fill:url(#linearGradient4093);fill-opacity:1;fill-rule:nonzero;stroke:none" />
      </g>
      <path
         sodipodi:nodetypes="ccccccccc"
         inkscape:connector-curvature="0"
         id="path5060"
         d="m 31.68508,32.825603 0,30.348794 16.403173,16.361986 17.823494,0 16.403173,-16.361986 0,-30.348794 -16.403173,-16.361986 -17.823494,0 z"
         style="opacity:0.87601079;fill:#555753;stroke:none" />
      <path
         inkscape:connector-curvature="0"
         style="fill:#000000;fill-opacity:1;stroke:#ce5c00;stroke-width:8;stroke-linecap:butt;stroke-linejoin:miter;stroke-miterlimit:4;stroke-opacity:1;stroke-dasharray:none"
         d="m 56.855182,31.423976 c 5.005485,-0.09993 9.614195,3.499401 10.055833,8.448797 0.274587,3.077374 -1.560753,7.217502 -5.301504,8.358665 l 3.888407,16.346616 -18.072336,-0.11723 4.848954,-16.373712 c -3.555192,-1.096001 -5.477921,-5.38257 -5.182776,-8.390952 0.521182,-5.312232 5.083196,-8.178785 9.763422,-8.272184 z"
         id="path5074"
         sodipodi:nodetypes="csccccss" />
      <g
         transform="translate(0,20)"
         id="g3907">
        <rect
           width="18"
           height="2"
           x="6"
           y="20"
           id="rect3909"
           style="fill:url(#linearGradient4097);fill-opacity:1;fill-rule:nonzero;stroke:none" />
        <rect
           width="18"
           height="2"
           x="6"
           y="16"
           id="rect3911"
           style="fill:url(#linearGradient4099);fill-opacity:1;fill-rule:nonzero;stroke:none" />
      </g>
      <g
         transform="translate(0,56)"
         id="g3917">
        <rect
           width="18"
           height="2"
           x="6"
           y="20"
           id="rect3919"
           style="fill:url(#linearGradient4101);fill-opacity:1;fill-rule:nonzero;stroke:none" />
        <rect
           width="18"
           height="2"
           x="6"
           y="16"
           id="rect3921"
           style="fill:url(#linearGradient4103);fill-opacity:1;fill-rule:nonzero;stroke:none" />
      </g>
      <g
         transform="translate(0,38)"
         id="g3927">
        <rect
           width="18"
           height="2"
           x="6"
           y="20"
           id="rect3929"
           style="fill:url(#linearGradient4105);fill-opacity:1;fill-rule:nonzero;stroke:none" />
        <rect
           width="18"
           height="2"
           x="6"
           y="16"
           id="rect3931"
           style="fill:url(#linearGradient4107);fill-opacity:1;fill-rule:nonzero;stroke:none" />
      </g>
      <rect
         width="1"
         height="84"
         x="24"
         y="6"
         id="rect3941"
         style="opacity:0.1;fill:#ffffff;fill-opacity:1;stroke:none" />
      <rect
         width="1"
         height="84"
         x="23"
         y="6"
         id="rect3943"
         style="opacity:0.1;fill:#000000;fill-opacity:1;stroke:none" />
      <path
         sodipodi:nodetypes="csccccss"
         id="path4060"
         d="m 56.855182,31.423976 c 5.005485,-0.09993 9.614195,3.499401 10.055833,8.448797 0.274587,3.077374 -1.560753,7.217502 -5.301504,8.358665 l 3.888407,16.346616 -18.072336,-0.11723 4.848954,-16.373712 c -3.555192,-1.096001 -5.477921,-5.38257 -5.182776,-8.390952 0.521182,-5.312232 5.083196,-8.178785 9.763422,-8.272184 z"
         style="fill:url(#radialGradient5122);fill-opacity:1;stroke:url(#linearGradient5114);stroke-width:3;stroke-linecap:butt;stroke-linejoin:miter;stroke-miterlimit:4;stroke-opacity:1;stroke-dasharray:none"
         inkscape:connector-curvature="0" />
      <path
         inkscape:connector-curvature="0"
         id="rect5015"
         d="m 24.625,8 0,80 47.28125,0 5.53125,0 7.46875,0 C 87.174323,88 89,86.174323 89,83.90625 l 0,-6.5 0,-6.5 0,-45.8125 0,-13 C 89,9.825677 87.174323,8 84.90625,8 L 78.03125,8 24.625,8 z m 2.59375,3.25 34.15625,0 13.78125,0 11.0625,0 0,11.0625 0,16.71875 0,17.9375 0,16.71875 0,11.0625 -11.0625,0 -13.78125,0 -34.15625,0 0,-73.5 z"
         style="opacity:0.45;fill:#555753;fill-opacity:1;stroke:none" />
      <path
         d="m 28,10 0,0.498361 0,5.201639 0,0.498361 0.49948,0 4.557752,0 0,4.142623 -1.498439,0 0,-2.118033 0,-0.498361 -0.49948,0 -2.559833,0 -0.49948,0 0,0.498361 0,2.616393 0,0.498361 0.49948,0 2.060354,0 0,53.32459 -2.060354,0 -0.49948,0 0,0.498361 0,2.647541 0,0.49836 0.49948,0 2.559833,0 0.49948,0 0,-0.49836 0,-2.149181 1.498439,0 0,4.142623 -4.557752,0 -0.49948,0 L 28,80.3 28,85.501639 28,86 l 0.49948,0 5.057232,0 0.499479,0 0,-0.498361 0,-4.703278 4.245578,0 0,1.650819 -2.154006,0 -0.49948,0 0,0.498361 0,2.554098 0,0.498361 0.49948,0 2.653486,0 0.499479,0 0,-0.498361 0,-2.055737 35.398544,0 0,2.055737 0,0.498361 0.499479,0 2.684704,0 0.499479,0 0,-0.498361 0,-2.554098 0,-0.498361 -0.499479,0 -2.185224,0 0,-1.650819 4.245578,0 0,4.703278 0,0.498361 0.499479,0 5.057232,0 L 86,86 86,85.501639 86,80.3 l 0,-0.498361 -0.49948,0 -4.557752,0 0,-4.142623 1.529657,0 0,2.149181 0,0.49836 0.499479,0 2.528616,0 0.49948,0 0,-0.49836 0,-2.647541 0,-0.498361 -0.49948,0 -2.029136,0 0,-53.32459 2.029136,0 0.49948,0 0,-0.498361 0,-2.616393 0,-0.498361 -0.49948,0 -2.528616,0 -0.499479,0 0,0.498361 0,2.118033 -1.529657,0 0,-4.142623 4.557752,0 0.49948,0 L 86,15.7 86,10.498361 86,10 l -0.49948,0 -5.057232,0 -0.499479,0 0,0.498361 0,4.703278 -4.245578,0 0,-1.650819 2.185224,0 0.499479,0 0,-0.467213 0,-2.585246 0,-0.498361 -0.499479,0 -2.684704,0 -0.499479,0 0,0.498361 0,2.086885 -35.398544,0 0,-2.086885 0,-0.498361 -0.499479,0 -2.653486,0 -0.49948,0 0,0.498361 0,2.585246 0,0.467213 0.49948,0 2.154006,0 0,1.650819 -4.245578,0 0,-4.703278 0,-0.498361 -0.499479,0 L 28.49948,10 28,10 z m 0.998959,0.996721 4.058273,0 0,4.204918 -4.058273,0 0,-4.204918 z m 7.648283,0 1.654527,0 0,1.588525 -1.654527,0 0,-1.588525 z m 39.050989,0 1.685744,0 0,1.588525 -1.685744,0 0,-1.588525 z m 5.244537,0 4.058273,0 0,4.204918 -4.058273,0 0,-4.204918 z m -41.64204,2.554099 35.398544,0 0,1.650819 -2.091572,0 -0.499479,0 0,0.498361 0,2.585246 0,0.467213 0.499479,0 2.591051,0 0.49948,0 0,-0.467213 0,-2.086885 4.245578,0 0,4.142623 -2.154007,0 -0.499479,0 0,0.49836 0,2.585246 0,0.467213 0.499479,0 2.653486,0 0.49948,0 0,-0.467213 0,-2.086885 1.529657,0 0,53.32459 -1.529657,0 0,-2.055738 0,-0.49836 -0.49948,0 -2.653486,0 -0.499479,0 0,0.49836 0,2.554099 0,0.49836 0.499479,0 2.154007,0 0,4.142623 -4.245578,0 0,-2.055737 0,-0.498361 -0.49948,0 -2.591051,0 -0.499479,0 0,0.498361 0,2.554098 0,0.498361 0.499479,0 2.091572,0 0,1.650819 -35.398544,0 0,-1.650819 2.122789,0 0.49948,0 0,-0.498361 0,-2.554098 0,-0.498361 -0.49948,0 -2.622268,0 -0.49948,0 0,0.498361 0,2.055737 -4.245578,0 0,-4.142623 2.185224,0 0.49948,0 0,-0.49836 0,-2.554099 0,-0.49836 -0.49948,0 -2.684703,0 -0.49948,0 0,0.49836 0,2.055738 -1.498439,0 0,-53.32459 1.498439,0 0,2.086885 0,0.467213 0.49948,0 2.684703,0 0.49948,0 0,-0.467213 0,-2.585246 0,-0.49836 -0.49948,0 -2.185224,0 0,-4.142623 4.245578,0 0,2.086885 0,0.467213 0.49948,0 2.622268,0 0.49948,0 0,-0.467213 0,-2.585246 0,-0.498361 -0.49948,0 -2.122789,0 0,-1.650819 z m 0,2.647541 1.623309,0 0,1.588524 -1.623309,0 0,-1.588524 z m 33.806452,0 1.592092,0 0,1.588524 -1.592092,0 0,-1.588524 z m -44.108221,2.491803 1.560875,0 0,1.65082 -1.560875,0 0,-1.65082 z m 54.472425,0 1.529657,0 0,1.65082 -1.529657,0 0,-1.65082 z m -49.415193,2.647541 1.685744,0 0,1.588525 -1.685744,0 0,-1.588525 z m 44.233091,0 1.654527,0 0,1.588525 -1.654527,0 0,-1.588525 z m -44.233091,51.767213 1.685744,0 0,1.557377 -1.685744,0 0,-1.557377 z m 44.233091,0 1.654527,0 0,1.557377 -1.654527,0 0,-1.557377 z m -49.290323,2.554098 1.560875,0 0,1.65082 -1.560875,0 0,-1.65082 z m 54.472425,0 1.529657,0 0,1.65082 -1.529657,0 0,-1.65082 z m -44.170656,2.585246 1.623309,0 0,1.557377 -1.623309,0 0,-1.557377 z m 33.806452,0 1.592092,0 0,1.557377 -1.592092,0 0,-1.557377 z m -44.108221,2.554099 4.058273,0 0,4.204918 -4.058273,0 0,-4.204918 z m 51.943809,0 4.058273,0 0,4.204918 -4.058273,0 0,-4.204918 z m -44.295526,2.647541 1.654527,0 0,1.557377 -1.654527,0 0,-1.557377 z m 39.050989,0 1.685744,0 0,1.557377 -1.685744,0 0,-1.557377 z"
         inkscape:connector-curvature="0"
         id="path3189"
         style="opacity:0.8;fill:#fcaf3e;fill-opacity:1;fill-rule:evenodd;stroke:none;display:inline" />
      <path
         inkscape:connector-curvature="0"
         id="path5140"
         d="m 48.09375,16.46875 -2,2 17.8125,0 16.40625,16.34375 0,30.375 2,-2 0,-30.375 -16.40625,-16.34375 -17.8125,0 z"
         style="opacity:0.11590295;fill:#eeeeec;stroke:none" />
      <path
         inkscape:connector-curvature="0"
         id="path5150"
         d="m 33.6875,30.8125 -2,2 0,30.375 16.40625,16.34375 17.8125,0 2,-2 -17.8125,0 -16.40625,-16.34375 0,-30.375 z"
         style="opacity:0.11590295;fill:#2e3436;stroke:none" />
    </g>
    <rect
       ry="25"
       rx="25"
       id="rect3003"
       style="opacity:0.15;fill:#ffffff;fill-opacity:1"
       height="92"
       width="92"
       y="958.36218"
       x="-96"
       clip-path="url(#clipPath3009)"
       transform="translate(98,0)" />
  </g>
</svg>
