<svg height="96" width="96" xmlns="http://www.w3.org/2000/svg" xmlns:sodipodi="http://sodipodi.sourceforge.net/DTD/sodipodi-0.dtd" xmlns:inkscape="http://www.inkscape.org/namespaces/inkscape">
 <defs>
  <clipPath clipPathUnits="userSpaceOnUse" id="clipPath3009">
   <path d="m-2 956.36h-96v33.562l96 25.687v-59.25z"/>
  </clipPath>
  <linearGradient x2="0" y1="90" y2="8" gradientUnits="userSpaceOnUse" id="linearGradient3103">
   <stop stop-color="#69c4eb"/>
   <stop stop-color="#29aae2" offset="1"/>
  </linearGradient>
  <clipPath clipPathUnits="userSpaceOnUse" id="clipPath3105">
   <rect x="7.75" rx="21.875" y="7.75" height="80.5" width="80.5"/>
  </clipPath>
 </defs>
 <g transform="matrix(1 0 0 1 0 -956.36)">
  <g clip-path="url(#clipPath3105)" transform="matrix(1.1429 0 0 1.1429 -6.857 949.51)">
   <rect x="6" rx="6" y="6" fill="url(#linearGradient3103)" height="84" width="84"/>
   <g transform="matrix(0.56665 0 0 0.56665 84.84 -64.81)">
    <g transform="matrix(1 0 0 1 -193.34 137.73)">
     <path d="m124.28 10.335c0 5.5228-4.4772 10-10 10s-10-4.4772-10-10 4.4772-10 10-10 10 4.4772 10 10z" fill="#fff"/>
     <path d="m149.61 10c0 5.5228-4.4772 10-10 10s-10-4.4772-10-10 4.4772-10 10-10 10 4.4772 10 10z" fill="#fff"/>
    </g>
    <path d="m126.42 24.906c-16.061 0.162-30.552 7.196-39.236 20.915-7.67 12.116-9.111 27.837-5.282 41.478 4.06 14.461 14.838 25.804 29.094 30.463 15.53 5.076 33.615 1.679 46.006-8.884 14.374-12.252 18.58-33.677 13.679-51.324-5.627-20.263-23.637-32.441-44.261-32.648-6.451-0.065-6.445 9.935 0 10 14.639 0.147 27.712 7.472 33.298 21.396 5.004 12.474 3.672 27.057-3.529 38.379-8.21 12.908-24.446 17.367-38.892 14.402-14.08-2.89-23.506-13.99-26.567-27.654-2.375-10.605-0.264-22.11 5.525-31.254 6.572-10.381 18.226-15.146 30.161-15.266 6.445-0.065 6.452-10.065 0-10z" fill="#fff" transform="matrix(1 0 0 1 -193.34 137.73)"/>
   </g>
  </g>
  <rect x="-96" rx="25" y="958.36" clip-path="url(#clipPath3009)" fill="#fff" height="92" opacity="0.15" width="92" transform="matrix(1 0 0 1 98 0)"/>
 </g>
</svg>
