<?xml version="1.0" encoding="UTF-8" standalone="no"?>
<!-- Created with Inkscape (http://www.inkscape.org/) -->

<svg
   xmlns:dc="http://purl.org/dc/elements/1.1/"
   xmlns:cc="http://creativecommons.org/ns#"
   xmlns:rdf="http://www.w3.org/1999/02/22-rdf-syntax-ns#"
   xmlns:svg="http://www.w3.org/2000/svg"
   xmlns="http://www.w3.org/2000/svg"
   xmlns:sodipodi="http://sodipodi.sourceforge.net/DTD/sodipodi-0.dtd"
   xmlns:inkscape="http://www.inkscape.org/namespaces/inkscape"
   id="svg11037"
   height="96"
   width="96"
   version="1.1"
   inkscape:version="0.48.5 r10040"
   sodipodi:docname="love.svg">
  <sodipodi:namedview
     pagecolor="#ffffff"
     bordercolor="#666666"
     borderopacity="1"
     objecttolerance="10"
     gridtolerance="10"
     guidetolerance="10"
     inkscape:pageopacity="0"
     inkscape:pageshadow="2"
     inkscape:window-width="640"
     inkscape:window-height="480"
     id="namedview41876" />
  <defs
     id="defs11039">
    <clipPath
       id="clipPath3009"
       clipPathUnits="userSpaceOnUse">
      <path
         id="path3011"
         style="opacity:.15;fill:#fff"
         d="m-2 956.36h-96v33.562l96 25.687v-59.25z" />
    </clipPath>
    <linearGradient
       id="linearGradient3103"
       y2="8"
       gradientUnits="userSpaceOnUse"
       x2="49.034"
       y1="90"
       x1="49.034">
      <stop
         id="stop4441"
         style="stop-color:#69c4eb"
         offset="0" />
      <stop
         id="stop4443"
         style="stop-color:#29aae2"
         offset="1" />
    </linearGradient>
    <clipPath
       id="clipPath3105"
       clipPathUnits="userSpaceOnUse">
      <rect
         id="rect3107"
         style="opacity:.6"
         rx="21.875"
         ry="21.875"
         height="80.5"
         width="80.5"
         y="7.75"
         x="7.75" />
    </clipPath>
  </defs>
  <metadata
     id="metadata11042">
    <rdf:RDF>
      <cc:Work
         rdf:about="">
        <dc:format>image/svg+xml</dc:format>
        <dc:type
           rdf:resource="http://purl.org/dc/dcmitype/StillImage" />
        <dc:title />
      </cc:Work>
    </rdf:RDF>
  </metadata>
  <g
     id="layer1"
     transform="translate(0 -956.36)">
    <g
       id="g3129"
       clip-path="url(#clipPath3105)"
       transform="matrix(1.1429 0 0 1.1429 -6.8571 949.51)">
      <rect
         id="rect2419"
         style="fill:url(#linearGradient3103)"
         rx="6"
         ry="6"
         height="84"
         width="84"
         y="6"
         x="6" />
      <g
         id="g3245"
         transform="matrix(.56665 0 0 .56665 84.844 -64.81)">
        <g
           id="g3126"
           transform="translate(-193.34 137.73)">
          <path
             id="circle3128"
             d="m124.28 10.335c0 5.5228-4.4772 10-10 10s-10-4.4772-10-10 4.4772-10 10-10 10 4.4772 10 10z"
             style="fill:#fff" />
          <path
             id="circle3130"
             d="m149.61 10c0 5.5228-4.4772 10-10 10s-10-4.4772-10-10 4.4772-10 10-10 10 4.4772 10 10z"
             style="fill:#fff" />
        </g>
        <g
           id="g3138"
           transform="translate(-193.34 137.73)">
          <g
             id="g3140">
            <path
               id="path3142"
               style="fill:none"
               d="m126.42 29.906c-55.287 0-55.475 85.041-0.353 85.041 55.04 0 55.854-85.041 0.353-85.041" />
            <path
               id="path3144"
               style="fill:#fff"
               d="m126.42 24.906c-16.061 0.162-30.552 7.196-39.236 20.915-7.67 12.116-9.111 27.837-5.282 41.478 4.06 14.461 14.838 25.804 29.094 30.463 15.53 5.076 33.615 1.679 46.006-8.884 14.374-12.252 18.58-33.677 13.679-51.324-5.627-20.263-23.637-32.441-44.261-32.648-6.451-0.065-6.445 9.935 0 10 14.639 0.147 27.712 7.472 33.298 21.396 5.004 12.474 3.672 27.057-3.529 38.379-8.21 12.908-24.446 17.367-38.892 14.402-14.08-2.89-23.506-13.99-26.567-27.654-2.375-10.605-0.264-22.11 5.525-31.254 6.572-10.381 18.226-15.146 30.161-15.266 6.445-0.065 6.452-10.065 0-10z" />
          </g>
        </g>
      </g>
    </g>
    <rect
       id="rect3003"
       style="opacity:.15;fill:#fff"
       transform="translate(98)"
       clip-path="url(#clipPath3009)"
       rx="25"
       ry="25"
       height="92"
       width="92"
       y="958.36"
       x="-96" />
  </g>
</svg>
