<?xml version="1.0" encoding="UTF-8" standalone="no"?>
<svg
   xmlns:dc="http://purl.org/dc/elements/1.1/"
   xmlns:cc="http://creativecommons.org/ns#"
   xmlns:rdf="http://www.w3.org/1999/02/22-rdf-syntax-ns#"
   xmlns:svg="http://www.w3.org/2000/svg"
   xmlns="http://www.w3.org/2000/svg"
   xmlns:sodipodi="http://sodipodi.sourceforge.net/DTD/sodipodi-0.dtd"
   xmlns:inkscape="http://www.inkscape.org/namespaces/inkscape"
   height="96"
   width="96"
   id="svg2"
   version="1.1"
   inkscape:version="0.48.5 r10040"
   sodipodi:docname="luckybackup.svg">
  <metadata
     id="metadata21">
    <rdf:RDF>
      <cc:Work
         rdf:about="">
        <dc:format>image/svg+xml</dc:format>
        <dc:type
           rdf:resource="http://purl.org/dc/dcmitype/StillImage" />
      </cc:Work>
    </rdf:RDF>
  </metadata>
  <sodipodi:namedview
     pagecolor="#ffffff"
     bordercolor="#666666"
     borderopacity="1"
     objecttolerance="10"
     gridtolerance="10"
     guidetolerance="10"
     inkscape:pageopacity="0"
     inkscape:pageshadow="2"
     inkscape:window-width="640"
     inkscape:window-height="480"
     id="namedview19"
     showgrid="false"
     inkscape:zoom="2.4583333"
     inkscape:cx="-2.0338983"
     inkscape:cy="48"
     inkscape:window-x="173"
     inkscape:window-y="90"
     inkscape:window-maximized="0"
     inkscape:current-layer="g11" />
  <defs
     id="defs4" />
  <g
     inkscape:label="Layer 1"
     inkscape:groupmode="layer"
     transform="matrix(1 0 0 1 0 -956.36)"
     id="g11">
    <rect
       x="8"
       rx="10.769"
       y="964.35999"
       height="80"
       width="80"
       id="rect13"
       style="fill:#e6e6e6;fill-opacity:1;stroke:none" />
    <path
       d="m 50.86201,975.93205 c -14.977768,0 -27.125755,12.69484 -27.137692,28.37165 H 18 l 9.469656,17.1996 9.505466,-17.1996 h -6.113013 c 0.01268,-11.51159 8.96607,-20.85964 20.000199,-20.85964 11.04159,0 19.999453,9.37789 19.999453,20.93654 0,11.5586 -8.957863,20.9357 -19.999453,20.9357 v 7.4717 C 65.847537,1032.788 78,1020.0671 78,1004.3806 78,988.69329 65.847537,975.97233 50.862308,975.97233 z m -0.0707,11.83688 c -1.252847,0 -2.261437,1.05507 -2.261437,2.36708 v 14.20409 c 0,1.3116 1.00859,2.3669 2.261437,2.3669 h 11.307185 c 1.252848,0 2.261437,-1.0553 2.261437,-2.3669 0,-1.3117 -1.008589,-2.3678 -2.261437,-2.3678 h -9.045897 v -11.83614 c 0,-1.31201 -1.008589,-2.36708 -2.261437,-2.36708 z"
       inkscape:connector-curvature="0"
       id="path17"
       style="fill:#666;fill-rule:evenodd" />
  </g>
</svg>
