<svg height="96" width="96" xmlns="http://www.w3.org/2000/svg" xmlns:xlink="http://www.w3.org/1999/xlink" xmlns:sodipodi="http://sodipodi.sourceforge.net/DTD/sodipodi-0.dtd" xmlns:inkscape="http://www.inkscape.org/namespaces/inkscape">
 <defs>
  <clipPath clipPathUnits="userSpaceOnUse" id="clipPath3009">
   <path d="m-2 956.36h-96v33.562l96 25.687v-59.25z"/>
  </clipPath>
  <linearGradient x2="0" y1="90" y2="5.988" gradientUnits="userSpaceOnUse" id="linearGradient3216" gradientTransform="matrix(1.1429 0 0 1.1429 -6.857 949.51)">
   <stop stop-color="#8f758e"/>
   <stop stop-color="#917790" offset="1"/>
  </linearGradient>
  <clipPath clipPathUnits="userSpaceOnUse" id="clipPath3018">
   <rect x="2" rx="25" y="958.36" height="92" width="92"/>
  </clipPath>
  <linearGradient x1="168.68" x2="174.75" y1="14.697" y2="-2.273" gradientUnits="userSpaceOnUse" id="linearGradient16769" gradientTransform="matrix(2.2118 0 0 1.9205 -331.2 20.242)">
   <stop stop-color="#675042"/>
   <stop stop-color="#7d6150" offset="1"/>
  </linearGradient>
  <radialGradient cy="26.814" r="3.049" gradientUnits="userSpaceOnUse" id="radialGradient17147" cx="172.3" gradientTransform="matrix(1 0 0 0.51282 0 13.06)">
   <stop/>
   <stop stop-opacity="0" offset="1"/>
  </radialGradient>
  <radialGradient cy="20.406" r="5.445" gradientUnits="userSpaceOnUse" id="radialGradient16950" cx="145.8" gradientTransform="matrix(1 0 0 0.45178 0 11.187)">
   <stop stop-color="#ead1a4"/>
   <stop stop-color="#ead1a4" stop-opacity="0" offset="1"/>
  </radialGradient>
  <radialGradient cy="20.406" r="5.445" gradientUnits="userSpaceOnUse" id="radialGradient16902" cx="145.8" gradientTransform="matrix(1 0 0 0.45178 0 11.187)">
   <stop stop-color="#a68864"/>
   <stop stop-color="#a68864" stop-opacity="0" offset="1"/>
  </radialGradient>
  <radialGradient cy="20.406" r="5.445" gradientUnits="userSpaceOnUse" id="radialGradient16851" cx="145.8" gradientTransform="matrix(1 0 0 0.45178 0 11.187)">
   <stop stop-color="#29201b"/>
   <stop stop-color="#29201b" stop-opacity="0" offset="1"/>
  </radialGradient>
  <radialGradient cy="20.406" r="5.445" gradientUnits="userSpaceOnUse" id="radialGradient16823" cx="145.8" gradientTransform="matrix(1 0 0 0.45178 0 11.187)">
   <stop stop-color="#44352c"/>
   <stop stop-color="#44352c" stop-opacity="0" offset="1"/>
  </radialGradient>
  <radialGradient cy="20.406" r="5.445" gradientUnits="userSpaceOnUse" id="radialGradient16811" cx="145.8" gradientTransform="matrix(1 0 0 0.45178 0 11.187)">
   <stop stop-color="#6f5439"/>
   <stop stop-color="#6f5439" stop-opacity="0" offset="1"/>
  </radialGradient>
  <linearGradient x1="164.78" x2="165.84" y1="20.301" y2="19.638" gradientUnits="userSpaceOnUse" id="linearGradient16942" gradientTransform="matrix(2.2118 0 0 1.9205 -331.2 20.242)">
   <stop stop-color="#251919"/>
   <stop stop-color="#675242" offset="1"/>
  </linearGradient>
  <linearGradient x1="169.47" x2="169.14" y1="16.479" y2="16.909" gradientUnits="userSpaceOnUse" id="linearGradient16926" gradientTransform="matrix(2.2118 0 0 1.9205 -331.2 20.242)">
   <stop stop-color="#342d23"/>
   <stop stop-color="#645543" offset="1"/>
  </linearGradient>
  <radialGradient cy="17.06" r="3.261" gradientUnits="userSpaceOnUse" id="radialGradient17047" cx="164.23" gradientTransform="matrix(1 0 0 0.86441 0 2.313)">
   <stop stop-color="#43271c"/>
   <stop stop-color="#43271c" stop-opacity="0" offset="1"/>
  </radialGradient>
  <linearGradient x1="176.2" x2="176.46" y1="21.93" y2="24.25" gradientUnits="userSpaceOnUse" id="linearGradient17137" gradientTransform="matrix(2.2118 0 0 1.9205 -331.2 20.242)">
   <stop stop-color="#1d1512"/>
   <stop stop-color="#2a1f1a" offset="1"/>
  </linearGradient>
  <linearGradient x1="175.82" x2="169.21" y1="23.99" y2="27.899" gradientUnits="userSpaceOnUse" id="linearGradient17099" gradientTransform="matrix(2.2118 0 0 1.9205 -331.2 20.242)">
   <stop stop-color="#fbfbfb"/>
   <stop stop-color="#fbfbfb" stop-opacity="0" offset="1"/>
  </linearGradient>
  <linearGradient x1="168.45" x2="168.26" y1="28.01" y2="25.974" gradientUnits="userSpaceOnUse" id="linearGradient17107" gradientTransform="matrix(2.2118 0 0 1.9205 -331.2 20.242)">
   <stop stop-color="#fff"/>
   <stop stop-color="#fff" stop-opacity="0" offset="1"/>
  </linearGradient>
  <linearGradient x1="177.28" x2="176.65" xlink:href="#linearGradient17107" y1="20.706" y2="19.729" gradientUnits="userSpaceOnUse" id="linearGradient17115" gradientTransform="matrix(2.2118 0 0 1.9205 -331.2 20.242)"/>
  <radialGradient cy="27.362" r="2.404" gradientUnits="userSpaceOnUse" id="radialGradient17125" cx="175.09" gradientTransform="matrix(1 0 0 0.17886 0 22.468)">
   <stop stop-color="#60473b"/>
   <stop stop-color="#60473b" stop-opacity="0" offset="1"/>
  </radialGradient>
  <path d="m151.24 20.406a5.445 2.4599 0 1 1 -10.89 0 5.445 2.4599 0 1 1 10.89 0z" id="SVGCleanerId_0"/>
  <path d="m167.49 17.062a3.2614 2.8192 0 1 1 -6.5229 0 3.2614 2.8192 0 1 1 6.5229 0z" fill="url(#radialGradient17047)" id="SVGCleanerId_1" opacity="0.471"/>
  <path d="m177.5 27.362a2.4039 0.42997 0 1 1 -4.8078 0 2.4039 0.42997 0 1 1 4.8078 0z" fill="url(#radialGradient17125)" id="SVGCleanerId_2"/>
 </defs>
 <g transform="matrix(1 0 0 1 0 -956.36)">
  <rect rx="6.857" y="956.36" clip-path="url(#clipPath3018)" fill="url(#linearGradient3216)" height="96" width="96"/>
  <g transform="matrix(1 0 0 1 0 956.36)">
   <path d="m31.34 19.275s7.5806 8.0683 7.8252 16.137c0.24452 8.0683-0.24454 9.13-0.24454 9.13s-10.271 10.404-6.6025 14.863c3.668 4.4588 7.0915 3.8218 7.0915 3.8218s-0.53089 5.9247-0.48906 7.0067c0.30566 7.9091 16.139 4.4588 18.34-3.3972 0.99772-3.5614-2.4454-16.986-0.48908-21.869 1.9563-4.8835 8.3142-15.924 7.5806-18.472-0.7336-2.5479-1.9563-5.9451-0.24454-8.2807 1.7117-2.3356-1.2227-5.7328-5.8689-2.5479s-5.3798 4.8835-5.6243 10.192c-0.24452 5.3081-2.4454 16.137-4.1571 16.137-1.7118 0-3.9126 1.2739-3.668-0.42465 0.24452-1.6986-2.2008-18.897-6.1134-22.506-3.9126-3.6095-4.8907-3.1849-6.3579-2.3356s-0.97815 2.5479-0.97815 2.5479z" fill="url(#linearGradient16769)"/>
   <path d="m175.35 26.814a3.0489 1.5635 0 1 1 -6.0977 0 3.0489 1.5635 0 1 1 6.0977 0z" fill="url(#radialGradient17147)" opacity="0.824" transform="matrix(3.2611 0 0 3.0728 -516.22 -10.806)"/>
   <use xlink:href="#SVGCleanerId_0" fill="url(#radialGradient16950)" opacity="0.299" transform="matrix(0.1784 -1.1672 1.0813 0.31197 4.643 228.44)"/>
   <use xlink:href="#SVGCleanerId_0" fill="url(#radialGradient16902)" opacity="0.769" transform="matrix(1.205 -0.30312 0.47067 0.96082 -142.1 70.01)"/>
   <use xlink:href="#SVGCleanerId_0" fill="url(#radialGradient16851)" opacity="0.624" transform="matrix(0.44101 -1.4629 1.8252 0.65684 -52.49 264.83)"/>
   <use xlink:href="#SVGCleanerId_0" fill="url(#radialGradient16851)" opacity="0.778" transform="matrix(0.44101 -1.4629 1.8252 0.65684 -55.43 264.73)"/>
   <use xlink:href="#SVGCleanerId_0" fill="url(#radialGradient16851)" opacity="0.57" transform="matrix(1.4592 -0.50403 0.56999 1.5977 -178.2 99.57)"/>
   <use xlink:href="#SVGCleanerId_0" fill="url(#radialGradient16851)" opacity="0.769" transform="matrix(1.3818 -0.43148 0.53976 1.3677 -167.1 96.4)"/>
   <use xlink:href="#SVGCleanerId_0" fill="url(#radialGradient16823)" opacity="0.769" transform="matrix(1.3818 -0.43148 0.53976 1.3677 -170.89 94.59)"/>
   <use xlink:href="#SVGCleanerId_0" fill="url(#radialGradient16950)" opacity="0.769" transform="matrix(1.2666 -0.64524 0.82085 1.2579 -159.33 117.49)"/>
   <use xlink:href="#SVGCleanerId_0" fill="url(#radialGradient16811)" opacity="0.769" transform="matrix(1.3818 -0.43148 0.53976 1.3677 -169.67 91.3)"/>
   <use xlink:href="#SVGCleanerId_0" fill="url(#radialGradient16902)" opacity="0.769" transform="matrix(1.3818 -0.43148 0.53976 1.3677 -171.74 89.28)"/>
   <use xlink:href="#SVGCleanerId_0" fill="url(#radialGradient16902)" opacity="0.769" transform="matrix(0.51667 -1.1935 1.5496 0.52906 -70.981 217.07)"/>
   <use xlink:href="#SVGCleanerId_0" fill="url(#radialGradient16902)" opacity="0.937" transform="matrix(1.2666 -0.64524 0.82085 1.2579 -160.67 116.85)"/>
   <use xlink:href="#SVGCleanerId_0" fill="url(#radialGradient16950)" opacity="0.932" transform="matrix(1.1161 -0.75593 0.72337 1.4737 -136.06 130.44)"/>
   <path d="m31.838 58.673s3.6424-1.1249 3.9618-0.88267c0.31932 0.24219-2.1337 3.0218-2.1337 3.0218s-0.72754-0.584-1.1677-1.1724c-0.44022-0.58844-0.6603-0.96673-0.6603-0.96673z" fill="url(#linearGradient16942)"/>
   <path d="m43.554 49.724s-2.2068 0.08131-1.9714 1.8157c0.23541 1.7344 2.0597 2.5475 3.4721 0.97562 1.4124-1.5718 1.0593-2.4933 0.29424-2.6559-0.76504-0.16261-1.7949-0.13551-1.7949-0.13551z" fill="#251919" opacity="0.878"/>
   <path d="m43.83 49.798s-1.9593 0.07131-1.7503 1.5925c0.20902 1.5212 1.8287 2.2342 3.0826 0.85566 1.254-1.3786 0.94046-2.1867 0.26124-2.3293-0.67924-0.14262-1.5936-0.11886-1.5936-0.11886z" fill="url(#linearGradient16926)"/>
   <path d="m170.26 15.763a0.26258 0.27639 0 1 1 -0.52515 0 0.26258 0.27639 0 1 1 0.52515 0z" fill="#fff" opacity="0.882" transform="matrix(2.2118 0 0 1.9205 -331.59 20.371)"/>
   <use xlink:href="#SVGCleanerId_1" transform="matrix(1.837 0 0 1.5628 -258.26 32.03)"/>
   <use xlink:href="#SVGCleanerId_0" fill="url(#radialGradient16851)" opacity="0.778" transform="matrix(0.43571 -1.31 1.8033 0.58821 -57.08 244.48)"/>
   <use xlink:href="#SVGCleanerId_0" fill="url(#radialGradient16851)" opacity="0.701" transform="matrix(0.42542 -1.2718 1.7607 0.57106 -46.889 228.54)"/>
   <use xlink:href="#SVGCleanerId_0" fill="url(#radialGradient16851)" opacity="0.805" transform="matrix(0.29837 -1.2623 1.2348 0.56677 -15.432 218.16)"/>
   <use xlink:href="#SVGCleanerId_0" fill="url(#radialGradient16851)" opacity="0.715" transform="matrix(0.56808 -1.1905 1.089 0.75942 -49.824 198.44)"/>
   <use xlink:href="#SVGCleanerId_0" fill="url(#radialGradient16851)" opacity="0.57" transform="matrix(0.56808 -1.1905 1.089 0.75942 -48.11 193.99)"/>
   <use xlink:href="#SVGCleanerId_0" fill="url(#radialGradient16851)" opacity="0.57" transform="matrix(0.51605 -1.2082 1.1212 0.72327 -38.859 193.81)"/>
   <use xlink:href="#SVGCleanerId_0" fill="url(#radialGradient16851)" opacity="0.57" transform="matrix(0.51605 -1.4528 1.1212 0.86971 -43.627 228.92)"/>
   <use xlink:href="#SVGCleanerId_0" fill="url(#radialGradient16851)" opacity="0.452" transform="matrix(1.017 -0.14048 0.26541 0.60218 -108.25 51.808)"/>
   <use xlink:href="#SVGCleanerId_0" fill="url(#radialGradient16851)" opacity="0.452" transform="matrix(0.84208 -0.61471 0.54349 0.52475 -83.89 123.33)"/>
   <use xlink:href="#SVGCleanerId_0" fill="url(#radialGradient16851)" opacity="0.584" transform="matrix(0.69949 -0.193 0.25994 0.33868 -65.02 70.04)"/>
   <use xlink:href="#SVGCleanerId_0" fill="url(#radialGradient16851)" opacity="0.584" transform="matrix(0.40417 -0.44688 0.41037 0.11857 -27.419 112.77)"/>
   <use xlink:href="#SVGCleanerId_0" fill="url(#radialGradient16950)" opacity="0.317" transform="matrix(0.1784 -1.1672 1.0813 0.31197 6.722 227.91)"/>
   <use xlink:href="#SVGCleanerId_0" fill="url(#radialGradient16851)" opacity="0.452" transform="matrix(0.49725 -0.40556 0.32093 0.34621 -36.05 96.42)"/>
   <use xlink:href="#SVGCleanerId_0" fill="url(#radialGradient16851)" opacity="0.697" transform="matrix(-0.38637 -1.0284 0.95157 0.2193 75.26 172.73)"/>
   <use xlink:href="#SVGCleanerId_0" fill="url(#radialGradient16851)" opacity="0.697" transform="matrix(0.01321 -1.0817 0.8206 0.4723 21.512 180.22)"/>
   <use xlink:href="#SVGCleanerId_0" fill="url(#radialGradient16851)" opacity="0.584" transform="matrix(0.23072 -0.24363 0.23426 0.06464 0.301 85.35)"/>
   <use xlink:href="#SVGCleanerId_0" fill="url(#radialGradient16851)" opacity="0.733" transform="matrix(0.29194 -0.35977 0.29641 0.09545 -7.08 101.76)"/>
   <use xlink:href="#SVGCleanerId_0" fill="url(#radialGradient16851)" opacity="0.376" transform="matrix(0.56741 -0.54366 0.57611 0.14424 -55.824 131.56)"/>
   <use xlink:href="#SVGCleanerId_0" fill="url(#radialGradient16950)" opacity="0.29" transform="matrix(-0.22852 -0.95475 0.71229 -0.5469 60.743 182.81)"/>
   <use xlink:href="#SVGCleanerId_0" fill="url(#radialGradient16950)" opacity="0.262" transform="matrix(-0.22852 -0.95475 0.71229 -0.5469 61.48 189.08)"/>
   <use xlink:href="#SVGCleanerId_0" fill="url(#radialGradient16950)" opacity="0.262" transform="matrix(-0.0396 -0.97454 0.80841 -0.43464 30.749 190.31)"/>
   <use xlink:href="#SVGCleanerId_0" fill="url(#radialGradient16950)" opacity="0.262" transform="matrix(-0.53947 -0.85528 0.49747 -0.70358 108.26 163.23)"/>
   <use xlink:href="#SVGCleanerId_0" fill="url(#radialGradient16950)" opacity="0.262" transform="matrix(-0.67722 -0.77791 0.3741 -0.75901 128.78 149.68)"/>
   <use xlink:href="#SVGCleanerId_0" fill="url(#radialGradient16851)" opacity="0.471" transform="matrix(-0.53879 -0.97537 0.97652 0.10873 94.04 162.48)"/>
   <use xlink:href="#SVGCleanerId_0" fill="url(#radialGradient16851)" opacity="0.57" transform="matrix(0.45119 -1.6956 0.67408 1.0491 -21.41 252.53)"/>
   <use xlink:href="#SVGCleanerId_0" fill="url(#radialGradient16950)" opacity="0.262" transform="matrix(-0.04566 -1.2134 0.93193 -0.54118 48.735 216.32)"/>
   <use xlink:href="#SVGCleanerId_0" fill="url(#radialGradient16950)" opacity="0.262" transform="matrix(0.1549 -1.2066 1.0116 -0.41975 11.511 211.36)"/>
   <use xlink:href="#SVGCleanerId_0" fill="url(#radialGradient16950)" opacity="0.262" transform="matrix(0.60761 -0.92899 1.0146 -0.0482 -51.682 155.34)"/>
   <use xlink:href="#SVGCleanerId_0" fill="url(#radialGradient16950)" opacity="0.262" transform="matrix(0.23115 -0.95923 0.89722 -0.27794 10.125 164.97)"/>
   <use xlink:href="#SVGCleanerId_1" transform="matrix(1.0497 0 0 2.1653 -122 27.691)"/>
   <use xlink:href="#SVGCleanerId_0" fill="url(#radialGradient16851)" opacity="0.439" transform="matrix(0.1766 -0.42169 0.73089 0.18934 0.072 112.01)"/>
   <use xlink:href="#SVGCleanerId_0" fill="url(#radialGradient16851)" opacity="0.778" transform="matrix(0.69707 -0.46058 0.93769 0.86851 -80.46 109.98)"/>
   <path d="m56.633 58.212s5.8689 0.21233 5.6243 1.3801c-0.24454 1.1678-1.1004 5.4143-1.1004 5.4143s1.2227-0.53081 1.5895-0.42465c0.36681 0.10617 0.24454 7.1129 0.24454 7.1129s-11.79 5.7843-20.296 4.565c-1.6095-0.23071-0.01111-3.291 0.7336-3.291 1.1004-0.000004 6.7247-1.274 8.3142-2.3356s3.9126-3.5034 5.7466-4.3527-1.1004 0.95547-1.1004 0.95547z" fill="url(#linearGradient17137)"/>
   <path d="m39.3 68.307s2.905 4.2834 2.905 5.5568 0.11634 2.4311-0.81338 1.8523c-0.9296-0.57883-3.9508 0.35636-3.8346-2.6626 0.11634-1.968-0.34856-4.8622 0.46482-4.8622 0.81339 0 1.2782 0.11577 1.2782 0.11577z" fill="#342721"/>
   <path d="m62.694 64.833s-5.4547 1.4782-7.6946 3.5282c-3.1989 2.9277-3.7837 3.0157-6.0087 3.7159-1.7348 0.54591-5.6629 1.2762-5.6629 1.2762" stroke-width="0.618" fill="none" stroke="url(#linearGradient17099)" opacity="0.471" stroke-linecap="round"/>
   <path d="m41.945 73.466s-1.4698-3.0027-1.9885-3.6783" stroke-width="0.412" fill="none" stroke="url(#linearGradient17107)" opacity="0.249" stroke-linecap="round"/>
   <path d="m61.986 59.23s-2.5038-0.81674-4.4735-0.84524" stroke-width="0.412" fill="none" stroke="url(#linearGradient17115)" opacity="0.828" stroke-linecap="round"/>
   <use xlink:href="#SVGCleanerId_2" opacity="0.294" transform="matrix(2.299 -0.74201 0.81881 2.0833 -375.11 146.22)"/>
   <use xlink:href="#SVGCleanerId_2" opacity="0.493" transform="matrix(0.65251 0.74442 -0.83461 0.5671 -51.15 -72.883)"/>
  </g>
  <rect x="-96" rx="25" y="958.36" clip-path="url(#clipPath3009)" fill="#fff" height="92" opacity="0.15" width="92" transform="matrix(1 0 0 1 98 0)"/>
 </g>
</svg>
