<?xml version="1.0" encoding="UTF-8" standalone="no"?>
<!-- Created with Inkscape (http://www.inkscape.org/) -->

<svg
   xmlns:dc="http://purl.org/dc/elements/1.1/"
   xmlns:cc="http://creativecommons.org/ns#"
   xmlns:rdf="http://www.w3.org/1999/02/22-rdf-syntax-ns#"
   xmlns:svg="http://www.w3.org/2000/svg"
   xmlns="http://www.w3.org/2000/svg"
   xmlns:sodipodi="http://sodipodi.sourceforge.net/DTD/sodipodi-0.dtd"
   xmlns:inkscape="http://www.inkscape.org/namespaces/inkscape"
   id="svg11037"
   height="96"
   width="96"
   version="1.1"
   inkscape:version="0.48.5 r10040"
   sodipodi:docname="mad_skills_motocross.svg">
  <sodipodi:namedview
     pagecolor="#ffffff"
     bordercolor="#666666"
     borderopacity="1"
     objecttolerance="10"
     gridtolerance="10"
     guidetolerance="10"
     inkscape:pageopacity="0"
     inkscape:pageshadow="2"
     inkscape:window-width="640"
     inkscape:window-height="480"
     id="namedview42487" />
  <defs
     id="defs11039">
    <clipPath
       id="clipPath3009"
       clipPathUnits="userSpaceOnUse">
      <path
         id="path3011"
         style="opacity:.15;fill:#fff"
         d="m-2 956.36h-96v33.562l96 25.687v-59.25z" />
    </clipPath>
    <linearGradient
       id="linearGradient3106"
       y2="2327"
       gradientUnits="userSpaceOnUse"
       y1="2507.5"
       gradientTransform="matrix(.53194 0 0 .53195 -521.24 -281.5)"
       x2="1070.1"
       x1="1070.1">
      <stop
         id="stop48"
         style="stop-color:#A8A51D"
         offset="0" />
      <stop
         id="stop50"
         style="stop-color:#898A25"
         offset="1" />
    </linearGradient>
    <clipPath
       id="clipPath3016"
       clipPathUnits="userSpaceOnUse">
      <rect
         id="rect3018"
         style="opacity:.6"
         rx="25"
         ry="25"
         height="92"
         width="92"
         y="958.36"
         x="2" />
    </clipPath>
  </defs>
  <metadata
     id="metadata11042">
    <rdf:RDF>
      <cc:Work
         rdf:about="">
        <dc:format>image/svg+xml</dc:format>
        <dc:type
           rdf:resource="http://purl.org/dc/dcmitype/StillImage" />
        <dc:title />
      </cc:Work>
    </rdf:RDF>
  </metadata>
  <g
     id="layer1"
     transform="translate(0 -956.36)">
    <path
       id="rect2419_1_"
       d="m6.8573 956.36h82.285c3.7858 0 6.8578 3.0704 6.8578 6.8573v82.285c0 3.7859-3.0704 6.8573-6.8578 6.8573h-82.285c-3.785 0-6.857-3.1-6.857-6.9v-82.286c0.00053-3.7864 3.072-6.8568 6.8573-6.8568z"
       style="fill:url(#linearGradient3106)"
       clip-path="url(#clipPath3016)" />
    <g
       id="g3127"
       transform="matrix(.45473 0 0 .45473 -86.786 960.94)">
      <g
         id="g3091"
         transform="matrix(.9375 0 0 .9375 201.73 2.3368)">
        <g
           id="g99">
          <path
             id="path101"
             style="fill:#3d3e0a"
             d="m13.136 102.71c-0.082 0.2-0.163 0.399-0.244 0.599 0.03 0.222 0.245 0.437 0.492 0.65 0.176 0.8 0.378 1.588 0.606 2.36-0.191 0.516-0.367 0.967-0.009 1.559 0.259 0.248 0.519 0.495 0.777 0.741 0.302 0.809 0.631 1.596 0.987 2.364-0.094 0.395-0.142 0.769 0.126 1.104 0.173 0.071 0.348 0.141 0.521 0.212 0.404 0.78 0.839 1.538 1.3 2.272-0.067 0.386 0.022 0.758 0.82 1.242 0.361 0.52 0.735 1.026 1.124 1.518-0.048 0.119-0.096 0.239-0.144 0.356 3.305 4.495 6.882 6.683 12.175 8.745 0.322 0.177 1.339 0.392 2.515 0.587 2.48 0.619 5.069 0.844 7.714 0.618 2.312-0.197 4.525-0.729 6.608-1.548 0.7-0.117 1.335-0.286 1.957-0.874 0.511-0.256 1.013-0.528 1.507-0.819 0.152 0.062 0.305 0.124 0.457 0.188 1.301-1.222 2.915-1.825 4.094-2.801 0.183-0.45 0.367-0.901 0.55-1.353 0.436-0.435 0.859-0.884 1.268-1.351 0.303-0.092 0.602-0.198 0.748-0.376 0.064-0.253 0.128-0.503 0.194-0.756 0.357-0.451 0.703-0.913 1.035-1.39 0.098 0.006 0.196 0.011 0.294 0.016 0.62-0.565 0.814-1.263 0.956-1.968 0.164-0.279 0.323-0.561 0.479-0.846 0.159-0.237 0.289-0.495 0.404-0.764 0.1-0.196 0.198-0.395 0.293-0.593 0.078-0.008 0.155-0.015 0.233-0.021 0.436-0.529 0.476-1.016 0.423-1.424 0.336-0.797 0.644-1.615 0.918-2.448 0.504-0.383 0.986-0.772 0.942-1.729 0-0.03-0.16-0.216-0.313-0.417 0.158-0.619 0.296-1.243 0.422-1.874 0.256-0.492 0.514-0.982 0.77-1.475 0.009-0.307-0.208-0.894-0.329-1.463 0.053-0.501 0.095-1.007 0.125-1.515 0.211-0.507 0.486-0.92 0.362-1.429l-0.297-0.261c0.007-0.611 0-1.228-0.023-1.845 0.091-0.335 0.185-0.67 0.276-1.006-0.017-0.322-0.185-0.603-0.4-0.869-0.22-2.371-0.668-4.656-1.32-6.831 0.085-0.215 0.165-0.445 0.267-0.799-0.11-0.112-0.217-0.23-0.32-0.354 0 0-0.002-0.01-0.002-0.014 0.947-0.519 2.14-1.525 2.879-2.303 1.056 0.096 2.112 0.191 3.167 0.289 0.769-1.583 0.954-3.8 3.167-4.03v0.575c0.761 1.167 0.349 2.519 0.863 4.031 0.233 0.684 1.222 1.616 1.44 2.303-0.096 3.55-0.192 7.102-0.288 10.651 0.739 0.521 0.471 0.699 1.729 0.865 1.438 0.548 4.843-0.837 6.333 0.288 0.217 0.308 0.172 0.271 0.288 0.863-0.919 1.011-2.59 3.974-3.167 5.183v1.152c-0.114 0.178-1.032 0.397-1.151 0.574v1.152h-0.577v1.152c-0.191 0.096-0.384 0.191-0.575 0.286-0.918 2.051-0.321 4.077 1.727 4.32 0.277 0.17 0.55 0.029 1.439 0 0.652-0.937 1.85-2.331 3.167-2.592-0.084 1.312-0.613 2.777-0.29 3.456 0.295 0.231 0.08 0.101 0.578 0.287v-0.864h1.151c0.262 0.312-0.022 0.024 0.287 0.288 0.165 4.717 5.855 11.578 8.925 13.531 0.725 0.461 1.44 0.309 2.016 0.864 0.391 0.376 0.405 1.12 0.864 1.438 0.752 0.523 4.312 2.682 4.894 2.88 1.378 0.468 4.022 0.564 5.471 0.576 0.354-0.519 0.747-0.716 1.152-1.152 2.861 1.025 8.637 9.354 11.316 12.173-0.812 3.974-0.718 8.254 0.319 12.495-0.058 0.186-0.102 0.403-0.121 0.667 0.118 0.069 0.236 0.141 0.354 0.211 0.241 0.871 0.521 1.74 0.843 2.604-0.015 0.117-0.03 0.235-0.044 0.353 0.059 0.206 0.21 0.388 0.398 0.556 0.335 0.825 0.707 1.642 1.116 2.449-0.025 0.15-0.049 0.3-0.074 0.449 0.112 0.423 0.472 0.641 0.575 1.44 0.201 0.039 0.4 0.08 0.601 0.121 0.269 0.449 0.546 0.895 0.84 1.337v0.845c0.132 0.221 0.52 0.333 0.899 0.449 0.366 0.499 0.743 0.986 1.131 1.46 0.035 0.595-0.048 1.115 0.562 1.547 0.402 0.15 0.806 0.302 1.209 0.453 0.467 0.484 0.942 0.952 1.429 1.401 0.062 0.415 0.127 0.811 0.529 1.023h0.636c0.604 0.504 1.218 0.981 1.845 1.434 0.074 0.352 0.271 0.64 1.135 0.779 0.516 0.338 1.036 0.658 1.565 0.961v0.28c2.66 1.556 5.118 2.402 7.791 2.822 2.744 0.644 5.521 0.849 8.226 0.59 0.132 0.014 0.263 0.028 0.394 0.043 0.158-0.036 0.326-0.086 0.501-0.147 2.563-0.347 5.05-1.119 7.36-2.343 0.271-0.097 0.532-0.223 0.775-0.389 0.06-0.04 0.115-0.09 0.173-0.143 0.559-0.332 1.105-0.691 1.641-1.081 2.871-2.085 5.084-4.774 6.631-7.832 0.174-0.241 0.34-0.483 0.481-0.733v-0.271c0.775-1.733 1.343-3.572 1.706-5.478 0.007-0.004 0.014-0.007 0.021-0.009 0.25-0.502 0.274-0.985 0.217-1.461 0.121-0.917 0.195-1.849 0.222-2.788 0.045-0.022 0.091-0.047 0.138-0.069 0.192-0.588 0.055-1.007-0.135-1.329-0.015-0.755-0.058-1.514-0.134-2.272 0.325-0.529 0.675-1.032 0.27-1.869-0.016-0.032-0.33-0.18-0.577-0.331-0.062-0.354-0.131-0.707-0.206-1.062 0.069-0.687 0.138-1.375 0.206-2.062-0.152-0.383-0.955-1.108-1.15-1.728-0.251-0.789 0.135-1.462-0.288-2.017-0.232-0.077-0.464-0.153-0.696-0.231-0.069-0.162-0.148-0.322-0.222-0.483-0.077-0.625-0.155-1.249-0.234-1.875-0.198-0.409-0.686-0.611-1.144-0.821-0.381-0.668-0.78-1.329-1.215-1.98 0.064-0.376 0.166-0.553-0.669-0.966-0.045-0.061-0.085-0.125-0.131-0.188-0.362-0.498-0.736-0.982-1.12-1.455 0.019-0.403 0.022-0.651-0.04-1.213-2.227-0.915-4.203-3.438-6.046-5.469h-1.272c-0.282-0.187-0.565-0.367-0.853-0.544-0.059-0.298-0.118-0.598-0.178-0.896-0.359-0.12-1.05-0.078-1.677-0.153-0.42-0.218-0.845-0.425-1.27-0.622-0.352-0.37-0.688-0.819-1.084-0.953-0.421-0.142-0.754-0.052-1.054 0.067-0.566-0.211-1.138-0.399-1.711-0.571-0.128-0.165-0.259-0.306-0.401-0.358h-0.917c-5.364-1.318-10.875-0.954-15.715 1.284-0.532-0.009-1.04-0.046-1.507-0.133v-6.334c-0.713-1.032-0.855-2.818-0.864-4.509 10.764 7.133 14.862 7.676 15.979 7.676 1.15 0 12.955-9.213 14.396-10.651 1.438-1.44 3.741-2.016 7.483-0.577 1.894 0.729 4.892 1.897 7.766 2.803 2.042 0.811 4.237 1.447 6.774 1.517 0.132-0.13 0.274-0.246 0.421-0.354 2.653-0.628 3.465-2.266 3.465-3.101-13.3-10.75-30.979-17.462-42.169-20.943-0.126-0.119-0.228-0.24-0.296-0.361 1.017-0.548 2.543-0.985 3.455-1.728 1.764-1.435 8.78-6.046 9.213-12.956 0 0-1.084-8.753-1.151-8.925-0.265-0.675-1.327-1.294-0.865-2.878 0.167-0.574 1-1.565 1.152-2.304 0.342-1.662-9.19-26.903-12.235-29.078-1.106-0.789-2.643-1.286-3.536-1.47 0.386-0.041-0.256-2.257-0.806-2.089 0.873-3.045 0.51-9.605-3.946-13.08-0.69-0.457-2.043-0.96-3.084-1.209-5.487-1.319-11.438-0.146-15.832 2.878-0.812 0.558-1.482 1.724-2.306 2.303-1.649 1.162-5.015 2.076-5.47 4.319 0.288 0.097 0.576 0.192 0.864 0.288 1.557 1.18 4.87 0.559 6.621 0.864 1.062 2.173 1.726 4.065 1.728 7.485-1.081 0.741-1.155 1.537-2.879 1.728-0.31 0.217-0.271 0.173-0.864 0.288-0.195 1.629-0.086 2.875 0 4.606 1.587 1.125 2.494 3.134 4.03 4.318v0.288c-1.934 0.419-3.216 1.593-4.605 2.302-0.891 0.456-1.997-0.364-2.591-0.287-2.82 0.366-6.211 1.37-8.925 2.015-3.714 0.883-8.948-1.095-13.242 0.288-1.773 0.571-3.437 1.856-4.895 2.591-0.672 0.095-1.344 0.192-2.015 0.288-2.046 1.204-2.479 3.247-5.758 3.455-0.708-1.477-2.206-1.919-3.455-2.879-3.75-2.88-11.851-8.151-18.142-6.909-1.571 0.311-4.063-0.042-5.182-0.288-3.385-0.743-5.979 1.297-7.484 2.59 0.181 0.504 0.055 0.28 0.286 0.576 0.522 1.297 6.009 3.573 7.486 4.03 2.235 0.692 3.893-1.194 5.758-0.575 3.611 1.196 10.881 8.08 12.509 11.704l-11.503 8.822c-0.143-0.154-0.287-0.309-0.432-0.459-0.211-0.543-0.35-1.203-0.703-1.521-0.397-0.353-0.81-0.36-1.188-0.348-0.392-0.344-0.802-0.679-1.239-0.999-0.07-0.322-0.141-0.643-0.306-0.798-0.757-0.309-1.514-0.617-2.271-0.924-0.666-0.403-1.346-0.775-2.042-1.115-1.023-0.569-2.143-1.042-3.32-1.759-0.268 0.007-0.661 0.033-1.154 0.08-2.602-0.695-5.33-0.958-8.116-0.719-11.924 1.02-21.243 10.888-23.553 23.58-0.137 0.168-0.272 0.375-0.402 0.64 0.081 0.112 0.16 0.224 0.241 0.335-0.159 1.042-0.27 2.101-0.332 3.175-0.036 0.063-0.073 0.127-0.106 0.191-0.021 0.167 0.012 0.341 0.073 0.517-0.042 1.107-0.03 2.227 0.035 3.358-0.048 0.079-0.096 0.158-0.143 0.237-0.064 0.477 0.195 0.844-0.039 1.702 0.126 0.085 0.25 0.171 0.377 0.256 0.085 0.704 0.188 1.397 0.313 2.081zm133.39 33.152c0.866 0.672 2.211 0.294 3.743 0.864 1.769 0.656 5.237 2.542 6.62 3.741 6.62 5.736 10.577 18.336 4.031 27.062-2.325 3.101-8.267 6.485-13.004 5.375-1.535-0.288-2.016-0.48-3.406-0.769-4.377-1.926-12.301-7.588-12.956-12.955 0.437-0.153 0.488-0.193 1.152-0.287 0.644 1.84 2.533 1.937 3.741 3.166 1.518 1.542 2.763 3.397 4.896 4.318 2.669 1.151 7.2 0.642 9.211-0.576 0.778-0.47 1.04-1.773 1.729-2.303 0.492-0.38 1.398-0.388 1.729-0.863 0.095-0.767 0.191-1.536 0.287-2.304h0.577c1.025-1.032 2.558-2.375 3.166-3.742-0.426-1.199 0.486-4.857-0.287-6.909-0.534-1.416-1.866-3.003-2.879-4.03-0.289-0.095-0.577-0.191-0.864-0.288-0.189-0.301-0.489-4.474-0.576-4.896-1.553-0.478-2.517-1.505-4.318-1.727-0.151 0.362-0.345 0.872-0.577 1.151-0.478-0.238-0.743-0.068-1.726 0-1.193-1.498-3.271-2.079-4.319-3.742 0.461-0.161 0.691-0.231 1.439-0.288 0.406 0.204 1.484 0.041 2.591 0.002zm-8.637 11.516c-1.465-0.438-5.012-3.793-5.182-5.47 0.191-0.096 0.385-0.191 0.575-0.288 0.546-0.439 1.034-0.515 2.017-0.576 1.366 1.94 4.668 2.521 4.894 5.471-0.65 0.246-2.034 1.204-2.304 0.863zm2.303 0.287c0.189 0.541 0.275 1.127 0.287 2.017h-0.575c-0.353-0.657-0.471-0.648-0.575-1.727 0.288-0.097 0.575-0.192 0.863-0.29zm-35.7-84.64c-0.234-1.539-1.621-2.364-2.015-3.742h0.289v-0.289c5.144-0.025 9.287-1.375 14.683-1.439-0.193 0.864-0.386 1.728-0.577 2.592 0.602 0.321 0.528 0.412 1.44 0.575 2.043-2.071 6.732-2.279 10.077-2.303 1.583 6.045 7.256 5.489 8.203 12.09-3.486 0.316-12.313-0.086-16.554 0.866h-2.879c-2.247 0.536-4.614 1.423-6.908 2.015-1.004-2.164-4.06-1.758-4.608-4.319 0.839-1.603-0.822-1.447-1.438-2.303-0.914-1.269 0.468-2.576 0.287-3.743zm-8.636-0.865c1.61-0.181 0.896-0.565 1.729-1.151 1.343-0.287 2.687-0.576 4.03-0.862 1.121 1.229 2.352 2.398 1.729 4.317-0.233 0.294-0.103 0.078-0.289 0.576-0.934 0.293-1.811-0.26-2.878 0.288-0.477 0.243-0.827 1.28-1.44 1.439-2.229 0.577-2.799-2.946-2.881-4.607zm-54.702 56.803c-10.508 0.9-19.861-8.141-20.894-20.193-1.032-12.053 6.65-22.553 17.156-23.452 2.008-0.172 3.974 0.022 5.847 0.527 0.164 0.033 0.327 0.075 0.484 0.135 0.022 0.008 0.046 0.018 0.07 0.027 2.807 0.859 5.394 2.423 7.582 4.533l-9.507 7.221c-1.546-0.898-3.31-1.334-5.141-1.178-5.356 0.458-9.27 5.81-8.743 11.952 0.526 6.142 5.292 10.75 10.648 10.291 4.328-0.37 7.714-3.937 8.575-8.534l10.553-8.194c0.249 1.101 0.429 2.237 0.528 3.402 1.03 12.053-6.649 22.553-17.157 23.452zm30.034-51.77c0.34 0.559 0.568 0.794 0.728 1.604l-12.318 9.471c-0.005 0.001-0.01 0.002-0.015 0.004-0.351-0.654-0.47-0.649-0.574-1.712l0.149-0.115c0.604-0.396 1.171-0.845 1.717-1.32l10.313-7.932z" />
        </g>
        <g
           id="g103">
          <path
             id="path105"
             style="stroke:#fff;stroke-width:.5;stroke-miterlimit:10;fill:none"
             stroke-miterlimit="10"
             d="m13.085 98.933c-0.091 0.196-0.18 0.392-0.27 0.587 0.021 0.223 0.226 0.447 0.463 0.671 0.141 0.807 0.309 1.603 0.503 2.384-0.213 0.507-0.409 0.95-0.077 1.557 0.248 0.26 0.497 0.518 0.744 0.774 0.267 0.821 0.562 1.622 0.883 2.405-0.111 0.39-0.175 0.762 0.079 1.107 0.17 0.079 0.342 0.156 0.511 0.234 0.37 0.798 0.772 1.573 1.201 2.327-0.084 0.383-0.011 0.758 0.766 1.276 0.338 0.535 0.69 1.058 1.057 1.565-0.054 0.116-0.106 0.234-0.16 0.35 3.106 4.634 6.586 6.975 11.784 9.266 0.314 0.19 1.321 0.449 2.487 0.695 2.451 0.727 5.028 1.062 7.68 0.952 2.318-0.097 4.553-0.531 6.669-1.26 0.704-0.086 1.346-0.228 1.993-0.788 0.522-0.233 1.035-0.483 1.542-0.753 0.149 0.068 0.299 0.138 0.448 0.207 1.354-1.164 2.992-1.696 4.212-2.62 0.202-0.442 0.406-0.885 0.608-1.327 0.454-0.416 0.897-0.846 1.325-1.295 0.307-0.078 0.61-0.172 0.764-0.343 0.076-0.25 0.15-0.497 0.227-0.747 0.377-0.435 0.742-0.882 1.095-1.343 0.097 0.01 0.195 0.019 0.293 0.028 0.644-0.538 0.868-1.227 1.041-1.925 0.176-0.271 0.347-0.546 0.515-0.824 0.169-0.23 0.311-0.481 0.437-0.745 0.108-0.191 0.215-0.386 0.319-0.579 0.078-0.005 0.155-0.009 0.234-0.012 0.458-0.51 0.519-0.994 0.484-1.404 0.37-0.781 0.713-1.586 1.023-2.406 0.52-0.36 1.019-0.729 1.016-1.687 0.001-0.03-0.15-0.223-0.295-0.431 0.185-0.611 0.35-1.229 0.503-1.854 0.277-0.48 0.556-0.959 0.833-1.44 0.023-0.306-0.169-0.901-0.265-1.475 0.075-0.499 0.138-1.002 0.19-1.508 0.233-0.498 0.525-0.898 0.423-1.412-0.095-0.091-0.19-0.183-0.285-0.273 0.034-0.611 0.053-1.227 0.057-1.845 0.105-0.331 0.214-0.661 0.32-0.993-0.003-0.322-0.159-0.61-0.362-0.885-0.117-2.378-0.466-4.681-1.023-6.881 0.094-0.212 0.185-0.438 0.302-0.787-0.105-0.117-0.207-0.239-0.304-0.367 0 0-0.001-0.01-0.001-0.014 0.968-0.477 2.204-1.431 2.977-2.176 1.051 0.142 2.102 0.283 3.152 0.426 0.837-1.547 1.118-3.754 3.339-3.889-0.008 0.191-0.017 0.382-0.025 0.574 0.709 1.198 0.239 2.531 0.687 4.064 0.203 0.693 1.151 1.667 1.338 2.363l-0.75 10.629c0.716 0.553 0.44 0.719 1.689 0.939 1.413 0.61 4.875-0.626 6.314 0.562 0.203 0.317 0.16 0.279 0.25 0.875-0.962 0.97-2.76 3.858-3.389 5.041-0.017 0.384-0.033 0.766-0.05 1.151-0.121 0.173-1.048 0.353-1.175 0.523-0.017 0.384-0.033 0.768-0.05 1.151-0.192-0.009-0.384-0.017-0.576-0.025-0.017 0.385-0.033 0.769-0.05 1.151-0.195 0.088-0.392 0.175-0.587 0.261-1.006 2.01-0.498 4.06 1.538 4.392 0.269 0.182 0.548 0.053 1.438 0.062 0.692-0.907 1.95-2.249 3.277-2.452-0.141 1.307-0.733 2.748-0.439 3.44 0.285 0.244 0.076 0.104 0.564 0.312 0.013-0.286 0.025-0.575 0.038-0.863 0.384 0.017 0.766 0.033 1.15 0.05 0.248 0.324-0.023 0.023 0.274 0.301-0.041 4.72 5.347 11.821 8.329 13.906 0.705 0.491 1.426 0.37 1.977 0.95 0.374 0.393 0.356 1.137 0.8 1.475 0.729 0.556 4.191 2.866 4.764 3.09 1.356 0.527 3.994 0.738 5.44 0.813 0.377-0.503 0.777-0.683 1.201-1.102 2.814 1.148 8.223 9.72 10.777 12.652-0.984 3.935-1.075 8.215-0.224 12.498-0.065 0.183-0.119 0.398-0.149 0.66 0.115 0.075 0.229 0.151 0.344 0.227 0.203 0.881 0.444 1.761 0.729 2.638-0.02 0.116-0.04 0.233-0.059 0.351 0.05 0.208 0.192 0.396 0.374 0.572 0.299 0.839 0.635 1.671 1.009 2.495-0.032 0.149-0.062 0.298-0.094 0.445 0.094 0.428 0.443 0.661 0.512 1.465 0.199 0.047 0.396 0.097 0.595 0.146 0.249 0.461 0.507 0.918 0.781 1.372-0.012 0.283-0.024 0.563-0.036 0.844 0.122 0.227 0.504 0.355 0.879 0.488 0.344 0.515 0.699 1.018 1.066 1.508 0.009 0.596-0.097 1.112 0.493 1.569 0.396 0.168 0.792 0.337 1.188 0.506 0.445 0.504 0.9 0.991 1.366 1.462 0.044 0.417 0.092 0.815 0.484 1.045 0.212 0.01 0.424 0.019 0.636 0.027 0.581 0.53 1.174 1.034 1.78 1.513 0.06 0.354 0.244 0.651 1.101 0.828 0.5 0.359 1.006 0.702 1.521 1.027-0.004 0.094-0.008 0.188-0.012 0.28 2.59 1.67 5.009 2.622 7.661 3.158 2.714 0.762 5.479 1.087 8.192 0.946 0.131 0.02 0.261 0.039 0.391 0.06 0.16-0.029 0.33-0.071 0.508-0.125 2.575-0.235 5.093-0.899 7.455-2.021 0.275-0.085 0.541-0.199 0.791-0.354 0.062-0.037 0.119-0.085 0.179-0.135 0.573-0.308 1.135-0.643 1.687-1.009 2.959-1.959 5.286-4.55 6.964-7.537 0.185-0.233 0.361-0.468 0.514-0.712 0.004-0.091 0.008-0.181 0.012-0.271 0.85-1.697 1.496-3.51 1.942-5.397 0.007-0.004 0.014-0.007 0.021-0.009 0.271-0.49 0.316-0.972 0.28-1.449 0.16-0.911 0.275-1.839 0.342-2.776 0.046-0.021 0.093-0.043 0.141-0.063 0.218-0.579 0.099-1.003-0.076-1.333 0.018-0.755 0.008-1.516-0.035-2.276 0.348-0.515 0.719-1.002 0.351-1.855-0.015-0.033-0.322-0.194-0.562-0.356-0.046-0.355-0.101-0.712-0.16-1.069 0.1-0.683 0.197-1.367 0.296-2.051-0.136-0.389-0.906-1.148-1.075-1.775-0.216-0.8 0.198-1.455-0.2-2.027-0.229-0.087-0.456-0.174-0.686-0.262-0.062-0.165-0.134-0.328-0.2-0.492-0.05-0.628-0.101-1.255-0.152-1.884-0.181-0.417-0.659-0.641-1.107-0.87-0.352-0.684-0.722-1.361-1.128-2.031 0.081-0.373 0.19-0.545-0.626-0.994-0.042-0.062-0.079-0.128-0.122-0.192-0.341-0.514-0.693-1.014-1.057-1.503 0.036-0.402 0.051-0.649 0.013-1.213-2.185-1.011-4.05-3.618-5.803-5.727-0.423-0.019-0.848-0.037-1.271-0.055-0.273-0.199-0.549-0.392-0.828-0.581-0.045-0.3-0.092-0.602-0.139-0.902-0.354-0.136-1.045-0.123-1.668-0.226-0.41-0.236-0.826-0.461-1.241-0.677-0.336-0.385-0.652-0.849-1.042-0.999-0.414-0.16-0.751-0.085-1.056 0.021-0.557-0.235-1.119-0.448-1.685-0.646-0.12-0.17-0.245-0.316-0.386-0.375-0.306-0.014-0.609-0.026-0.916-0.04-5.302-1.55-10.823-1.425-15.756 0.601-0.531-0.031-1.036-0.091-1.499-0.198 0.092-2.11 0.184-4.22 0.274-6.327-0.667-1.062-0.732-2.854-0.667-4.543 10.443 7.594 14.515 8.314 15.631 8.362 1.149 0.051 13.343-8.642 14.845-10.016 1.499-1.377 3.825-1.852 7.501-0.252 1.86 0.81 4.805 2.107 7.637 3.137 2.005 0.898 4.17 1.63 6.702 1.81 0.138-0.124 0.285-0.234 0.436-0.336 2.679-0.512 3.561-2.113 3.597-2.947-12.82-11.317-30.191-18.791-41.221-22.754-0.12-0.125-0.217-0.25-0.279-0.373 1.039-0.504 2.583-0.874 3.526-1.576 1.824-1.357 9.035-5.659 9.767-12.544 0 0-0.703-8.792-0.763-8.966-0.235-0.686-1.27-1.35-0.739-2.913 0.191-0.566 1.066-1.521 1.251-2.251 0.414-1.646-8.014-27.276-10.961-29.582-1.071-0.836-2.585-1.399-3.47-1.622 0.388-0.024-0.157-2.267-0.714-2.123 1.004-3.004 0.926-9.574-3.375-13.239-0.67-0.486-1.999-1.047-3.028-1.342-5.425-1.557-11.422-0.643-15.942 2.188-0.835 0.522-1.556 1.657-2.403 2.2-1.698 1.089-5.1 1.856-5.652 4.077 0.284 0.109 0.567 0.217 0.852 0.325 1.504 1.247 4.841 0.77 6.577 1.151 0.967 2.217 1.548 4.136 1.401 7.553-1.112 0.693-1.222 1.485-2.951 1.602-0.319 0.203-0.279 0.161-0.876 0.25-0.267 1.619-0.211 2.868-0.2 4.602 1.536 1.193 2.355 3.24 3.839 4.489-0.004 0.096-0.009 0.192-0.013 0.288-1.95 0.335-3.282 1.452-4.701 2.1-0.909 0.417-1.979-0.45-2.575-0.399-2.834 0.243-6.265 1.099-9.004 1.625-3.75 0.721-8.892-1.482-13.243-0.287-1.796 0.493-3.514 1.705-5.003 2.376-0.676 0.066-1.351 0.134-2.025 0.2-2.097 1.114-2.617 3.136-5.903 3.201-0.644-1.506-2.121-2.013-3.327-3.026-3.622-3.04-11.485-8.658-17.824-7.69-1.583 0.242-4.058-0.219-5.165-0.513-3.35-0.889-6.029 1.037-7.589 2.263 0.159 0.512 0.042 0.282 0.261 0.587 0.465 1.319 5.848 3.83 7.304 4.352 2.203 0.788 3.94-1.024 5.777-0.325 3.556 1.352 10.52 8.544 11.989 12.236l-11.851 8.32c-0.111-0.161-0.248-0.321-0.387-0.478-0.188-0.552-0.297-1.217-0.636-1.549-0.382-0.37-0.794-0.396-1.171-0.399-0.376-0.361-0.771-0.713-1.195-1.052-0.056-0.325-0.113-0.649-0.271-0.811-0.743-0.341-1.485-0.682-2.229-1.022-0.647-0.432-1.311-0.833-1.991-1.203-0.997-0.612-2.096-1.134-3.241-1.901-0.268-0.004-0.661 0.004-1.157 0.029-2.569-0.807-5.283-1.188-8.077-1.07-11.958 0.501-21.695 9.956-24.555 22.535-0.144 0.162-0.289 0.363-0.429 0.622 0.076 0.116 0.15 0.231 0.227 0.346-0.205 1.034-0.361 2.087-0.469 3.158-0.038 0.062-0.078 0.124-0.115 0.187-0.028 0.166-0.003 0.341 0.05 0.519-0.09 1.104-0.127 2.224-0.111 3.356-0.052 0.077-0.103 0.154-0.153 0.23-0.084 0.473 0.158 0.851-0.113 1.699 0.123 0.09 0.243 0.182 0.365 0.272 0.053 0.705 0.125 1.402 0.221 2.091zm131.82 38.911c0.836 0.709 2.196 0.39 3.702 1.026 1.738 0.732 5.122 2.767 6.451 4.024 6.365 6.019 9.771 18.778 2.853 27.213-2.457 2.996-8.54 6.12-13.225 4.805-1.521-0.354-1.993-0.567-3.369-0.915-4.29-2.114-11.96-8.115-12.382-13.506 0.442-0.134 0.496-0.172 1.164-0.236 0.562 1.866 2.446 2.044 3.6 3.325 1.449 1.606 2.613 3.514 4.704 4.526 2.616 1.267 7.165 0.954 9.227-0.176 0.798-0.436 1.116-1.727 1.827-2.226 0.508-0.357 1.414-0.326 1.765-0.787 0.128-0.762 0.258-1.526 0.387-2.289 0.191 0.009 0.384 0.017 0.576 0.025 1.069-0.987 2.658-2.262 3.325-3.602-0.373-1.217 0.697-4.832 0.014-6.915-0.473-1.438-1.734-3.081-2.701-4.151-0.285-0.107-0.568-0.217-0.852-0.325-0.176-0.309-0.294-4.491-0.362-4.916-1.531-0.545-2.449-1.613-4.239-1.912-0.167 0.355-0.383 0.855-0.627 1.125-0.467-0.259-0.739-0.101-1.724-0.075-1.128-1.548-3.178-2.219-4.153-3.926 0.468-0.142 0.701-0.201 1.451-0.226 0.396 0.22 1.48 0.105 2.588 0.114zm-9.13 11.13c-1.444-0.501-4.842-4.007-4.938-5.689 0.195-0.087 0.393-0.175 0.587-0.263 0.564-0.415 1.056-0.47 2.04-0.488 1.28 1.998 4.554 2.721 4.651 5.678-0.66 0.217-2.084 1.114-2.34 0.762zm2.289 0.386c0.166 0.549 0.227 1.138 0.2 2.027-0.191-0.008-0.384-0.017-0.575-0.024-0.323-0.673-0.442-0.669-0.5-1.75 0.292-0.084 0.583-0.168 0.875-0.253zm-31.98-86.11c-0.167-1.548-1.517-2.432-1.85-3.826 0.096 0.004 0.191 0.008 0.288 0.013 0.005-0.096 0.009-0.193 0.013-0.289 5.14 0.198 9.338-0.97 14.731-0.8-0.23 0.854-0.46 1.709-0.689 2.564 0.587 0.347 0.511 0.435 1.414 0.637 2.131-1.98 6.825-1.984 10.168-1.864 1.319 6.109 7.011 5.799 7.671 12.435-3.497 0.165-12.299-0.62-16.576 0.146-0.958-0.042-1.916-0.083-2.876-0.125-2.269 0.438-4.672 1.222-6.989 1.713-0.909-2.206-3.979-1.933-4.417-4.515 0.908-1.565-0.758-1.482-1.336-2.363-0.858-1.307 0.578-2.551 0.448-3.726zm-8.59-1.238c1.616-0.111 0.92-0.525 1.777-1.075 1.354-0.229 2.71-0.458 4.063-0.687 1.066 1.277 2.245 2.498 1.539 4.388-0.245 0.284-0.105 0.074-0.313 0.563-0.945 0.252-1.798-0.338-2.888 0.163-0.486 0.222-0.882 1.243-1.501 1.375-2.25 0.48-2.667-3.064-2.677-4.727zm-57.12 54.378c-10.537 0.44-19.489-9-19.998-21.085-0.508-12.087 7.623-22.243 18.158-22.685 2.014-0.085 3.97 0.194 5.818 0.781 0.163 0.04 0.324 0.089 0.478 0.156 0.022 0.009 0.046 0.02 0.069 0.03 2.767 0.98 5.283 2.655 7.377 4.858l-9.812 6.801c-1.507-0.953-3.25-1.466-5.086-1.389-5.371 0.226-9.513 5.402-9.254 11.562 0.259 6.159 4.821 10.969 10.191 10.743 4.34-0.182 7.878-3.598 8.938-8.154l10.898-7.729c0.201 1.111 0.332 2.254 0.38 3.422 0.508 12.086-7.62 22.242-18.157 22.686zm32.251-50.41c0.315 0.573 0.534 0.818 0.658 1.634l-12.717 8.927-0.015 0.003c-0.322-0.669-0.441-0.669-0.5-1.736l0.154-0.108c0.621-0.37 1.207-0.793 1.773-1.245l10.647-7.475z" />
        </g>
        <g
           id="g107">
          <path
             id="path109"
             style="stroke:#c9d02b;stroke-width:.5;stroke-miterlimit:10;fill:none"
             stroke-miterlimit="10"
             d="m13.219 104.51c-0.078 0.202-0.155 0.402-0.232 0.604 0.035 0.221 0.254 0.432 0.505 0.64 0.193 0.797 0.412 1.58 0.655 2.348-0.18 0.52-0.347 0.974 0.023 1.558 0.264 0.244 0.529 0.485 0.792 0.726 0.319 0.803 0.665 1.583 1.036 2.344-0.085 0.396-0.126 0.771 0.149 1.1 0.175 0.068 0.351 0.135 0.525 0.201 0.42 0.772 0.871 1.521 1.347 2.245-0.06 0.388 0.038 0.758 0.846 1.226 0.372 0.512 0.756 1.011 1.155 1.494-0.046 0.119-0.091 0.24-0.137 0.359 3.397 4.425 7.02 6.537 12.354 8.49 0.326 0.17 1.348 0.363 2.526 0.534 2.493 0.568 5.085 0.738 7.726 0.458 2.307-0.245 4.509-0.822 6.575-1.686 0.697-0.131 1.329-0.312 1.938-0.914 0.506-0.267 1.001-0.549 1.49-0.85 0.153 0.059 0.308 0.118 0.46 0.178 1.276-1.249 2.877-1.885 4.036-2.885 0.173-0.455 0.348-0.909 0.522-1.364 0.426-0.444 0.841-0.901 1.239-1.377 0.302-0.098 0.598-0.211 0.74-0.391 0.06-0.255 0.118-0.506 0.178-0.761 0.348-0.457 0.684-0.927 1.006-1.41 0.098 0.004 0.196 0.006 0.295 0.01 0.607-0.578 0.787-1.279 0.915-1.987 0.158-0.282 0.312-0.567 0.461-0.855 0.154-0.241 0.279-0.501 0.388-0.772 0.096-0.197 0.19-0.398 0.281-0.598 0.078-0.01 0.154-0.019 0.233-0.027 0.424-0.538 0.455-1.025 0.394-1.432 0.319-0.804 0.61-1.629 0.867-2.468 0.496-0.393 0.97-0.792 0.906-1.748 0-0.03-0.165-0.212-0.322-0.411 0.145-0.621 0.271-1.248 0.383-1.882 0.246-0.497 0.493-0.992 0.739-1.49 0.003-0.307-0.227-0.889-0.359-1.455 0.042-0.503 0.074-1.009 0.093-1.518 0.201-0.511 0.466-0.93 0.332-1.436-0.101-0.084-0.201-0.17-0.302-0.254-0.005-0.612-0.025-1.228-0.061-1.845 0.084-0.337 0.171-0.673 0.255-1.011-0.023-0.321-0.197-0.599-0.418-0.86-0.27-2.366-0.765-4.642-1.462-6.801 0.081-0.218 0.156-0.449 0.25-0.804-0.113-0.11-0.221-0.226-0.327-0.347 0 0-0.002-0.01-0.002-0.014 0.936-0.538 2.108-1.569 2.831-2.362 1.058 0.074 2.116 0.148 3.173 0.223 0.736-1.598 0.875-3.818 3.083-4.095 0.004 0.191 0.008 0.383 0.012 0.575 0.785 1.15 0.401 2.511 0.946 4.012 0.248 0.679 1.255 1.59 1.487 2.272-0.021 3.552-0.045 7.104-0.066 10.655 0.75 0.506 0.485 0.689 1.746 0.829 1.449 0.518 4.825-0.938 6.337 0.156 0.223 0.304 0.178 0.268 0.306 0.857-0.898 1.03-2.507 4.027-3.059 5.248 0.008 0.384 0.016 0.767 0.024 1.152-0.11 0.181-1.024 0.419-1.139 0.598 0.008 0.384 0.016 0.769 0.024 1.152-0.192 0.004-0.384 0.008-0.577 0.012 0.008 0.385 0.016 0.769 0.024 1.152-0.189 0.1-0.38 0.199-0.569 0.298-0.875 2.07-0.236 4.083 1.817 4.283 0.28 0.164 0.55 0.018 1.439-0.029 0.632-0.95 1.801-2.369 3.113-2.657-0.057 1.312-0.555 2.789-0.217 3.461 0.299 0.226 0.082 0.1 0.583 0.275-0.006-0.287-0.012-0.576-0.018-0.864 0.384-0.008 0.767-0.016 1.15-0.024 0.269 0.308-0.021 0.025 0.293 0.283 0.262 4.712 6.094 11.454 9.204 13.343 0.735 0.445 1.447 0.278 2.034 0.822 0.398 0.367 0.428 1.111 0.893 1.42 0.763 0.508 4.366 2.592 4.952 2.777 1.388 0.439 4.033 0.481 5.481 0.463 0.345-0.525 0.732-0.73 1.128-1.176 2.883 0.966 8.83 9.172 11.567 11.935-0.73 3.99-0.546 8.268 0.578 12.487-0.054 0.187-0.093 0.405-0.106 0.668 0.119 0.067 0.238 0.137 0.357 0.204 0.259 0.866 0.557 1.729 0.896 2.586-0.013 0.117-0.025 0.235-0.036 0.354 0.062 0.204 0.217 0.383 0.41 0.547 0.352 0.818 0.74 1.627 1.166 2.425-0.022 0.151-0.042 0.302-0.064 0.451 0.121 0.421 0.484 0.631 0.604 1.429 0.202 0.034 0.401 0.071 0.603 0.108 0.278 0.443 0.564 0.883 0.868 1.318 0.006 0.284 0.012 0.564 0.018 0.845 0.137 0.218 0.526 0.322 0.908 0.431 0.377 0.492 0.764 0.971 1.161 1.437 0.047 0.594-0.025 1.116 0.593 1.534 0.405 0.143 0.812 0.286 1.219 0.429 0.477 0.475 0.962 0.932 1.457 1.371 0.07 0.414 0.144 0.809 0.551 1.012 0.212-0.004 0.424-0.009 0.636-0.013 0.614 0.491 1.238 0.956 1.874 1.395 0.082 0.351 0.285 0.635 1.151 0.756 0.521 0.327 1.049 0.637 1.584 0.928 0.002 0.094 0.004 0.188 0.007 0.28 2.691 1.501 5.166 2.296 7.848 2.661 2.757 0.586 5.538 0.732 8.236 0.419 0.132 0.011 0.263 0.021 0.394 0.034 0.158-0.04 0.324-0.093 0.499-0.157 2.555-0.4 5.024-1.225 7.31-2.496 0.27-0.103 0.527-0.233 0.767-0.404 0.06-0.041 0.113-0.093 0.17-0.146 0.552-0.344 1.091-0.715 1.618-1.115 2.827-2.145 4.983-4.88 6.466-7.969 0.17-0.244 0.331-0.489 0.467-0.743-0.002-0.091-0.003-0.181-0.005-0.271 0.738-1.748 1.268-3.599 1.592-5.511 0.007-0.005 0.014-0.008 0.02-0.01 0.24-0.507 0.254-0.99 0.188-1.465 0.101-0.919 0.156-1.853 0.163-2.792 0.044-0.023 0.09-0.049 0.136-0.073 0.181-0.592 0.034-1.007-0.161-1.325-0.031-0.754-0.09-1.513-0.182-2.27 0.314-0.535 0.653-1.046 0.231-1.874-0.017-0.032-0.334-0.173-0.585-0.319-0.068-0.352-0.146-0.704-0.228-1.057 0.055-0.688 0.108-1.377 0.163-2.065-0.16-0.38-0.978-1.088-1.187-1.703-0.267-0.784 0.104-1.465-0.33-2.011-0.233-0.071-0.466-0.144-0.701-0.217-0.071-0.161-0.154-0.319-0.231-0.479-0.09-0.623-0.181-1.246-0.272-1.87-0.207-0.404-0.699-0.597-1.161-0.797-0.395-0.66-0.808-1.312-1.256-1.955 0.058-0.377 0.155-0.556-0.688-0.952-0.046-0.06-0.087-0.122-0.134-0.184-0.373-0.491-0.757-0.968-1.151-1.433 0.011-0.403 0.01-0.651-0.064-1.211-2.245-0.868-4.273-3.351-6.158-5.343-0.423 0.009-0.849 0.018-1.272 0.027-0.286-0.182-0.573-0.355-0.863-0.527-0.064-0.296-0.131-0.594-0.196-0.892-0.362-0.112-1.051-0.056-1.68-0.117-0.424-0.21-0.854-0.407-1.282-0.597-0.359-0.362-0.705-0.805-1.104-0.93-0.424-0.133-0.755-0.036-1.052 0.089-0.571-0.199-1.146-0.375-1.723-0.536-0.131-0.161-0.265-0.3-0.409-0.35-0.306 0.007-0.609 0.014-0.917 0.02-5.39-1.207-10.892-0.728-15.685 1.609-0.532 0.003-1.04-0.024-1.509-0.102-0.044-2.111-0.087-4.223-0.132-6.332-0.733-1.018-0.914-2.8-0.957-4.49 10.909 6.908 15.018 7.366 16.135 7.343 1.15-0.023 12.762-9.48 14.172-10.947 1.408-1.471 3.698-2.094 7.47-0.732 1.908 0.688 4.93 1.795 7.822 2.64 2.058 0.769 4.266 1.359 6.804 1.376 0.13-0.132 0.27-0.252 0.413-0.363 2.641-0.682 3.418-2.337 3.4-3.172-13.52-10.472-31.334-16.815-42.595-20.063-0.128-0.117-0.232-0.235-0.303-0.354 1.004-0.57 2.521-1.038 3.418-1.799 1.733-1.471 8.653-6.227 8.941-13.145 0 0-1.266-8.729-1.336-8.899-0.279-0.669-1.354-1.266-0.925-2.859 0.155-0.577 0.967-1.586 1.104-2.327 0.308-1.669-9.747-26.707-12.836-28.818-1.123-0.766-2.669-1.23-3.566-1.396 0.385-0.049-0.303-2.252-0.849-2.072 0.809-3.063 0.31-9.614-4.218-12.996-0.699-0.442-2.062-0.917-3.107-1.145-5.514-1.206-11.439 0.091-15.77 3.206-0.8 0.575-1.446 1.754-2.257 2.35-1.625 1.196-4.971 2.18-5.38 4.431 0.291 0.091 0.58 0.18 0.871 0.27 1.581 1.147 4.88 0.458 6.638 0.727 1.106 2.15 1.81 4.028 1.883 7.447-1.065 0.763-1.124 1.56-2.843 1.788-0.306 0.223-0.269 0.178-0.858 0.305-0.162 1.633-0.026 2.876 0.096 4.605 1.609 1.092 2.559 3.082 4.119 4.234 0.002 0.096 0.003 0.192 0.006 0.288-1.925 0.459-3.183 1.66-4.557 2.397-0.881 0.474-2.005-0.322-2.596-0.233-2.812 0.424-6.182 1.498-8.881 2.2-3.696 0.959-8.969-0.909-13.234 0.562-1.761 0.607-3.397 1.927-4.84 2.692-0.67 0.109-1.339 0.22-2.008 0.33-2.021 1.246-2.411 3.297-5.685 3.573-0.739-1.462-2.246-1.873-3.515-2.807-3.809-2.801-12.017-7.903-18.281-6.531-1.564 0.343-4.063 0.042-5.187-0.18-3.4-0.672-5.951 1.421-7.429 2.745 0.191 0.5 0.061 0.278 0.298 0.569 0.549 1.287 6.081 3.447 7.568 3.875 2.249 0.645 3.867-1.275 5.745-0.695 3.635 1.121 11.046 7.852 12.749 11.442l-11.297 9.059c-0.146-0.151-0.293-0.303-0.442-0.451-0.222-0.539-0.374-1.195-0.734-1.505-0.405-0.345-0.817-0.344-1.194-0.323-0.399-0.336-0.816-0.663-1.26-0.973-0.077-0.321-0.154-0.64-0.323-0.792-0.763-0.293-1.526-0.585-2.29-0.876-0.673-0.39-1.362-0.747-2.064-1.073-1.034-0.547-2.164-0.998-3.356-1.689-0.268 0.013-0.66 0.047-1.152 0.104-2.616-0.641-5.349-0.847-8.129-0.55-11.902 1.266-21.013 11.326-23.06 24.063-0.133 0.171-0.265 0.381-0.389 0.647 0.083 0.111 0.165 0.221 0.249 0.331-0.138 1.045-0.227 2.106-0.266 3.182-0.034 0.063-0.07 0.128-0.103 0.193-0.018 0.167 0.019 0.34 0.083 0.515-0.019 1.107 0.016 2.227 0.105 3.356-0.047 0.08-0.093 0.16-0.138 0.24-0.054 0.478 0.212 0.839-0.004 1.702 0.128 0.082 0.254 0.166 0.382 0.248 0.101 0.698 0.218 1.389 0.358 2.07zm134.05 30.376c0.879 0.653 2.217 0.248 3.76 0.787 1.782 0.619 5.289 2.432 6.696 3.602 6.738 5.599 10.956 18.113 4.592 26.975-2.26 3.147-8.13 6.655-12.889 5.643-1.541-0.256-2.025-0.438-3.421-0.697-4.417-1.835-12.456-7.331-13.223-12.684 0.433-0.162 0.483-0.203 1.146-0.311 0.681 1.826 2.572 1.883 3.806 3.088 1.549 1.51 2.833 3.339 4.984 4.215 2.692 1.097 7.212 0.492 9.196-0.768 0.769-0.485 1.003-1.794 1.681-2.338 0.483-0.389 1.391-0.416 1.711-0.898 0.078-0.769 0.159-1.54 0.238-2.31 0.192-0.003 0.385-0.008 0.577-0.012 1.004-1.054 2.508-2.427 3.087-3.807-0.45-1.19 0.386-4.867-0.43-6.902-0.563-1.404-1.929-2.963-2.962-3.97-0.291-0.089-0.581-0.18-0.87-0.27-0.195-0.297-0.582-4.463-0.678-4.883-1.562-0.445-2.547-1.452-4.353-1.636-0.145 0.365-0.327 0.878-0.554 1.163-0.482-0.229-0.744-0.054-1.725 0.035-1.226-1.473-3.313-2.011-4.396-3.651 0.457-0.171 0.687-0.246 1.434-0.318 0.411 0.194 1.485 0.009 2.593-0.053zm-8.398 11.692c-1.474-0.407-5.089-3.688-5.293-5.361 0.189-0.099 0.38-0.199 0.568-0.3 0.537-0.45 1.023-0.536 2.005-0.618 1.405 1.912 4.719 2.424 5.006 5.368-0.644 0.26-2.008 1.246-2.286 0.911zm2.309 0.239c0.201 0.537 0.3 1.121 0.33 2.01-0.191 0.005-0.384 0.009-0.575 0.013-0.366-0.65-0.484-0.639-0.611-1.714 0.285-0.103 0.571-0.205 0.856-0.309zm-37.45-83.881c-0.266-1.534-1.669-2.33-2.091-3.7 0.096-0.001 0.191-0.004 0.288-0.006-0.001-0.096-0.004-0.193-0.006-0.289 5.142-0.132 9.257-1.566 14.65-1.743-0.176 0.868-0.35 1.735-0.524 2.603 0.608 0.309 0.538 0.401 1.452 0.545 2-2.113 6.685-2.418 10.027-2.512 1.709 6.012 7.368 5.337 8.453 11.917-3.479 0.388-12.313 0.17-16.532 1.209-0.959 0.02-1.918 0.04-2.879 0.06-2.235 0.582-4.584 1.519-6.864 2.158-1.049-2.143-4.096-1.673-4.698-4.222 0.807-1.62-0.851-1.43-1.484-2.273-0.94-1.248 0.414-2.583 0.208-3.747zm-8.652-0.689c1.606-0.215 0.885-0.583 1.704-1.187 1.337-0.315 2.675-0.631 4.011-0.946 1.146 1.206 2.4 2.349 1.817 4.281-0.227 0.299-0.101 0.08-0.276 0.582-0.928 0.312-1.816-0.222-2.872 0.348-0.471 0.253-0.8 1.297-1.41 1.469-2.215 0.622-2.858-2.887-2.974-4.547zm-53.511 57.93c-10.487 1.12-20.026-7.73-21.309-19.76-1.283-12.027 6.18-22.684 16.665-23.801 2.004-0.214 3.974-0.061 5.856 0.406 0.165 0.029 0.329 0.068 0.487 0.125 0.022 0.007 0.047 0.016 0.07 0.025 2.824 0.801 5.443 2.311 7.674 4.375l-9.355 7.417c-1.565-0.854-3.337-1.254-5.165-1.06-5.345 0.57-9.146 6.001-8.493 12.131 0.653 6.129 5.515 10.637 10.859 10.067 4.32-0.46 7.631-4.096 8.396-8.71l10.38-8.412c0.272 1.096 0.476 2.228 0.599 3.391 1.283 12.028-6.177 22.685-16.664 23.803zm28.951-52.375c0.352 0.552 0.585 0.782 0.761 1.589l-12.119 9.725c-0.005 0.002-0.01 0.002-0.014 0.004-0.364-0.647-0.483-0.64-0.61-1.7l0.146-0.118c0.596-0.409 1.153-0.869 1.689-1.355l10.147-8.145z" />
        </g>
      </g>
    </g>
    <rect
       id="rect3003"
       style="opacity:.15;fill:#fff"
       transform="translate(98)"
       clip-path="url(#clipPath3009)"
       rx="25"
       ry="25"
       height="92"
       width="92"
       y="958.36"
       x="-96" />
  </g>
</svg>
