<svg height="96" width="96" xmlns="http://www.w3.org/2000/svg" xmlns:xlink="http://www.w3.org/1999/xlink" xmlns:sodipodi="http://sodipodi.sourceforge.net/DTD/sodipodi-0.dtd" xmlns:inkscape="http://www.inkscape.org/namespaces/inkscape">
 <defs>
  <clipPath clipPathUnits="userSpaceOnUse" id="clipPath3009">
   <path d="m-2 956.36h-96v33.562l96 25.687v-59.25z"/>
  </clipPath>
  <linearGradient id="linearGradient3737-1">
   <stop stop-color="#fff"/>
   <stop stop-color="#fff" stop-opacity="0" offset="1"/>
  </linearGradient>
  <radialGradient cy="89.69" r="42" xlink:href="#linearGradient3737-1" gradientUnits="userSpaceOnUse" id="radialGradient2986" cx="47.967" gradientTransform="matrix(1.3341 0 0 0.95759 -16.03 2.111)"/>
  <clipPath id="clipPath4146">
   <rect x="16" y="26" height="64" width="64"/>
  </clipPath>
  <clipPath id="clipPath3613">
   <rect x="6" rx="6" y="6" height="84" width="84"/>
  </clipPath>
  <filter x="-0.192" y="-0.192" height="1.384" color-interpolation-filters="sRGB" id="filter3794" width="1.384">
   <feGaussianBlur stdDeviation="5.28"/>
  </filter>
  <linearGradient id="linearGradient4272-8">
   <stop stop-color="#ffecad"/>
   <stop stop-color="#ffecad" stop-opacity="0" offset="1"/>
  </linearGradient>
  <linearGradient id="linearGradient4402-1">
   <stop stop-color="#371100"/>
   <stop stop-color="#371100" stop-opacity="0.37" offset="1"/>
  </linearGradient>
  <clipPath id="clipPath4728-2">
   <use xlink:href="#SVGCleanerId_0"/>
  </clipPath>
  <linearGradient x2="0" y1="90" y2="5.988" gradientUnits="userSpaceOnUse" id="linearGradient4680">
   <stop stop-color="#dcdcdc"/>
   <stop stop-color="#f5f5f5" offset="1"/>
  </linearGradient>
  <linearGradient x2="0" xlink:href="#linearGradient3737-1" y1="6" y2="74.09" gradientUnits="userSpaceOnUse" id="linearGradient4682"/>
  <linearGradient x2="0" xlink:href="#linearGradient3737-1" y1="80" y2="16" gradientUnits="userSpaceOnUse" id="linearGradient4684"/>
  <linearGradient x2="0" y1="78.923" y2="16.641" gradientUnits="userSpaceOnUse" id="linearGradient4686">
   <stop stop-color="#4d81cf"/>
   <stop stop-color="#9cb8e4" offset="1"/>
  </linearGradient>
  <linearGradient x1="39.819" x2="44.586" xlink:href="#linearGradient3737-1" y1="13.06" y2="29.471" gradientUnits="userSpaceOnUse" id="linearGradient4688" gradientTransform="matrix(-0.96032 0.27889 0.27889 0.96032 111.44 15.295)"/>
  <linearGradient x1="35.838" x2="35.98" xlink:href="#linearGradient3737-1" y1="59.2" y2="80.75" gradientUnits="userSpaceOnUse" id="linearGradient4690" gradientTransform="matrix(1 0 0 1 -10 -3)"/>
  <linearGradient x2="0" xlink:href="#linearGradient3737-1" y1="28.946" y2="48.09" gradientUnits="userSpaceOnUse" id="linearGradient4692" gradientTransform="matrix(1 0 0 1 44.28 16.233)"/>
  <linearGradient x2="0" xlink:href="#linearGradient3737-1" y1="27.41" y2="56.865" gradientUnits="userSpaceOnUse" id="linearGradient4694" gradientTransform="matrix(-1 0 0 1 80.942 38.33)"/>
  <linearGradient x2="0" xlink:href="#linearGradient3737-1" y1="63.14" y2="76.55" gradientUnits="userSpaceOnUse" id="linearGradient4696" gradientTransform="matrix(-1 0 0 1 85.59 12)"/>
  <linearGradient x2="0" xlink:href="#linearGradient3737-1" y1="59.2" y2="87.45" gradientUnits="userSpaceOnUse" id="linearGradient4698" gradientTransform="matrix(-1 0 0 1 113.91 7)"/>
  <linearGradient x2="0" xlink:href="#linearGradient3737-1" y1="28.946" y2="48.09" gradientUnits="userSpaceOnUse" id="linearGradient4700" gradientTransform="matrix(1 0 0 1 54.28 38.23)"/>
  <linearGradient x2="0" xlink:href="#linearGradient3737-1" y1="20.221" y2="138.66" gradientUnits="userSpaceOnUse" id="linearGradient4702"/>
  <radialGradient cy="-26" r="4" gradientUnits="userSpaceOnUse" id="radialGradient4704" cx="143" gradientTransform="matrix(1.035 -0.0176 0.01791 1.053 -4.533 3.895)">
   <stop stop-color="#f7d997"/>
   <stop stop-color="#ffce5a" offset="0.376"/>
   <stop stop-color="#bc8711" offset="0.729"/>
   <stop stop-color="#6e3600" offset="1"/>
  </radialGradient>
  <linearGradient x1="120" x2="162.55" y1="-4" y2="-3.697" gradientUnits="userSpaceOnUse" id="linearGradient4706">
   <stop stop-color="#f0bc47"/>
   <stop stop-color="#ffce5a" offset="0.558"/>
   <stop stop-color="#bc8711" offset="0.729"/>
   <stop stop-color="#6e3600" offset="1"/>
  </linearGradient>
  <radialGradient cy="-7.829" r="2.474" xlink:href="#linearGradient4272-8" gradientUnits="userSpaceOnUse" id="radialGradient4708" cx="150.95" gradientTransform="matrix(1 0 0 4.4898 0 27.323)"/>
  <linearGradient x1="148.41" x2="167.39" y1="-23.07" y2="10.863" gradientUnits="userSpaceOnUse" id="linearGradient4710">
   <stop stop-color="#f0bd48"/>
   <stop stop-color="#f0bd48" stop-opacity="0" offset="1"/>
  </linearGradient>
  <linearGradient x2="0" y1="-23.998" y2="-19.957" gradientUnits="userSpaceOnUse" id="linearGradient4712">
   <stop stop-color="#6a3200"/>
   <stop stop-color="#6a3200" stop-opacity="0" offset="1"/>
  </linearGradient>
  <linearGradient x1="126.95" x2="145.84" gradientUnits="userSpaceOnUse" id="linearGradient4714">
   <stop stop-color="#a97400"/>
   <stop stop-color="#a97400" stop-opacity="0" offset="1"/>
  </linearGradient>
  <linearGradient x1="125.41" x2="163.23" y1="5.445" y2="5.23" spreadMethod="reflect" gradientUnits="userSpaceOnUse" id="linearGradient4716" gradientTransform="matrix(1 0 0 1 -0.285 -1.5)">
   <stop stop-color="#a06a00"/>
   <stop stop-color="#cb971f" offset="0.144"/>
   <stop stop-color="#733d00" offset="0.159"/>
   <stop stop-color="#9a6000" offset="0.468"/>
   <stop stop-color="#d7a32b" offset="0.48"/>
   <stop stop-color="#d8a42c" offset="0.48"/>
   <stop stop-color="#5a2900" offset="0.838"/>
   <stop stop-color="#0f0000" offset="0.849"/>
   <stop stop-color="#0d0000" offset="1"/>
  </linearGradient>
  <radialGradient cy="-21.11" r="4.798" xlink:href="#linearGradient4272-8" gradientUnits="userSpaceOnUse" id="radialGradient4720" cx="144.08" gradientTransform="matrix(1 0 0 0.26316 0 -15.555)"/>
  <linearGradient x1="130.57" x2="157.64" y1="5.731" y2="5.302" gradientUnits="userSpaceOnUse" id="linearGradient4722" gradientTransform="matrix(1 0 0 1 -0.285 -1.509)">
   <stop stop-color="#eecb7b" stop-opacity="0"/>
   <stop stop-color="#eec243" stop-opacity="0.512" offset="0.229"/>
   <stop stop-color="#efd17e" offset="0.458"/>
   <stop stop-color="#ffffc4" offset="0.471"/>
   <stop stop-color="#ffffd4" stop-opacity="0" offset="1"/>
  </linearGradient>
  <linearGradient x1="144.03" x2="165.13" xlink:href="#linearGradient4402-1" spreadMethod="reflect" gradientUnits="userSpaceOnUse" id="linearGradient4724"/>
  <linearGradient x1="139.7" x2="116.76" y1="-23.48" y2="30.353" gradientUnits="userSpaceOnUse" id="linearGradient4728">
   <stop stop-color="#7c4400"/>
   <stop stop-color="#7c4400" stop-opacity="0" offset="1"/>
  </linearGradient>
  <linearGradient x1="135.64" x2="132.87" xlink:href="#linearGradient4402-1" y1="-23.02" y2="-2.044" spreadMethod="reflect" gradientUnits="userSpaceOnUse" id="linearGradient4730"/>
  <linearGradient x1="120" x2="168" gradientUnits="userSpaceOnUse" id="linearGradient4732">
   <stop stop-color="#421900"/>
   <stop stop-color="#c4901a" offset="1"/>
  </linearGradient>
  <linearGradient x1="79.83" x2="167.88" gradientUnits="userSpaceOnUse" id="linearGradient4734">
   <stop stop-color="#fea"/>
   <stop stop-color="#fea" stop-opacity="0" offset="1"/>
  </linearGradient>
  <linearGradient x1="120" x2="168" xlink:href="#linearGradient4402-1" gradientUnits="userSpaceOnUse" id="linearGradient4736" gradientTransform="matrix(0.82746 0 0 0.8889 24.846 -4.445)"/>
  <linearGradient x2="0" y1="23.548" y2="7.149" gradientUnits="userSpaceOnUse" id="linearGradient4738">
   <stop stop-color="#ffce5a"/>
   <stop stop-color="#a8730d" offset="1"/>
  </linearGradient>
  <radialGradient cy="37.21" r="24" xlink:href="#linearGradient3737-1" gradientUnits="userSpaceOnUse" id="radialGradient4740" cx="152.79" gradientTransform="matrix(0.7313 -0.09628 0.04351 0.33048 39.435 25.483)"/>
  <radialGradient cy="-26.692" r="4" gradientUnits="userSpaceOnUse" id="radialGradient4746" cx="144" gradientTransform="matrix(4.593 0 0 0.95479 -509.77 37.585)">
   <stop stop-color="#2b0f00" stop-opacity="0"/>
   <stop stop-color="#2b0f00" stop-opacity="0.228" offset="0.388"/>
   <stop stop-color="#2b0f00" offset="1"/>
  </radialGradient>
  <clipPath clipPathUnits="userSpaceOnUse" id="clipPath4750">
   <rect x="6" rx="22.826" y="6" height="84" width="84"/>
  </clipPath>
  <path d="m168 16a24 8 0 1 1 -48 0 24 8 0 1 1 48 0z" id="SVGCleanerId_0"/>
  <path d="m148-25a4 4 0 1 1 -8 0 4 4 0 1 1 8 0z" color="#000000" id="SVGCleanerId_1"/>
  <path d="m153.42-7.8293a2.4745 11.11 0 1 1 -4.9491 0 2.4745 11.11 0 1 1 4.9491 0z" fill="url(#radialGradient4708)" color="#000000" id="SVGCleanerId_2"/>
  <path d="m144 8c-13.255 0-24 3.5817-24 8s10.745 8 24 8 24-3.5817 24-8-10.745-8-24-8zm0 0.21875c12.89 0 23.344 3.2762 23.344 7.3438s-10.454 7.375-23.344 7.375-23.344-3.3074-23.344-7.375 10.454-7.3438 23.344-7.3438z" color="#000000" id="SVGCleanerId_3" opacity="0.5"/>
 </defs>
 <g transform="matrix(1 0 0 1 0 -956.36)">
  <g clip-path="url(#clipPath4750)" transform="matrix(1.0952 0 0 1.0952 -4.571 951.79)">
   <path d="m12 6c-3.1577 0-5.7192 2.4087-5.9688 5.5 2.4695 0.017 4.4688 2.027 4.4688 4.5 0 2.484-2.016 4.5-4.5 4.5v7c2.484 0 4.5 2.016 4.5 4.5s-2.016 4.5-4.5 4.5v7c2.484 0 4.5 2.016 4.5 4.5s-2.016 4.5-4.5 4.5v7c2.484 0 4.5 2.016 4.5 4.5s-2.016 4.5-4.5 4.5v7c2.484-0.000004 4.5 2.016 4.5 4.5 0 2.4734-1.9993 4.4829-4.4688 4.5 0.2496 3.091 2.8111 5.5 5.9688 5.5 0-2.484 2.016-4.5 4.5-4.5s4.5 2.016 4.5 4.5h7c0-2.484 2.016-4.5 4.5-4.5s4.5 2.016 4.5 4.5h7c0-2.484 2.016-4.5 4.5-4.5s4.5 2.016 4.5 4.5h7c0-2.484 2.016-4.5 4.5-4.5s4.5 2.016 4.5 4.5h7c-0.000004-2.484 2.016-4.5 4.5-4.5 2.4522 0 4.4493 1.9661 4.5 4.4062 2.689-0.445 4.746-2.647 4.969-5.406-2.47-0.017-4.469-2.027-4.469-4.5 0-2.484 2.016-4.5 4.5-4.5v-7c-2.484 0.000001-4.5-2.016-4.5-4.5s2.016-4.5 4.5-4.5v-7c-2.484 0.000001-4.5-2.016-4.5-4.5s2.016-4.5 4.5-4.5v-7c-2.484 0.000001-4.5-2.016-4.5-4.5s2.016-4.5 4.5-4.5v-7c-2.484 0.000001-4.5-2.016-4.5-4.5 0-2.4734 1.9993-4.4829 4.4688-4.5-0.223-2.7593-2.28-4.9611-4.969-5.4062-0.051 2.4401-2.048 4.4062-4.5 4.4062-2.484 0-4.5-2.016-4.5-4.5h-7c0.000001 2.484-2.016 4.5-4.5 4.5s-4.5-2.016-4.5-4.5h-7c0.000001 2.484-2.016 4.5-4.5 4.5s-4.5-2.016-4.5-4.5h-7c0.000001 2.484-2.016 4.5-4.5 4.5s-4.5-2.016-4.5-4.5h-7c0.000001 2.484-2.016 4.5-4.5 4.5s-4.5-2.016-4.5-4.5z" fill="url(#linearGradient4680)"/>
   <path d="m12 6c-3.1577 0-5.7192 2.4087-5.9688 5.5 0.38756 0.0027 0.76651 0.06132 1.125 0.15625 0.5061-1.9477 2.0913-3.3645 4.1248-3.656 0.51358 2.4581 2.6136 4.375 5.2188 4.375 2.6501 0 4.7867-1.9789 5.25-4.5h5.5c0.46326 2.5211 2.5999 4.5 5.25 4.5s4.7867-1.9789 5.25-4.5h5.5c0.46326 2.5211 2.5999 4.5 5.25 4.5s4.7867-1.9789 5.25-4.5h5.5c0.46326 2.5211 2.5999 4.5 5.25 4.5s4.7867-1.9789 5.25-4.5h5.5c0.46326 2.5211 2.5999 4.5 5.25 4.5 2.5338 0 4.5992-1.7976 5.1875-4.1562 1.5651 0.55239 2.7347 1.8127 3.1562 3.4375 0.35849-0.09493 0.73744-0.15357 1.125-0.15625-0.223-2.7593-2.28-4.9611-4.969-5.4062-0.051 2.4401-2.048 4.4062-4.5 4.4062-2.484 0-4.5-2.016-4.5-4.5h-7c0.000001 2.484-2.016 4.5-4.5 4.5s-4.5-2.016-4.5-4.5h-7c0.000001 2.484-2.016 4.5-4.5 4.5s-4.5-2.016-4.5-4.5h-7c0.000001 2.484-2.016 4.5-4.5 4.5s-4.5-2.016-4.5-4.5h-7c0.000001 2.484-2.016 4.5-4.5 4.5s-4.5-2.016-4.5-4.5zm-3.9688 6c1.4653 0.742 2.4688 2.246 2.4688 4 0 2.484-2.016 4.5-4.5 4.5v7c0.32107 0 0.63541 0.02973 0.9375 0.09375v-5.4062c2.5211-0.46326 4.5-2.5999 4.5-5.25 0-2.2513-1.4321-4.1336-3.4062-4.9375zm79.938 0c-1.9742 0.80387-3.4062 2.6862-3.4062 4.9375 0 2.6501 1.9789 4.7867 4.5 5.25v5.4062c0.302-0.064 0.616-0.094 0.937-0.094v-7c-2.484 0.000001-4.5-2.016-4.5-4.5 0-1.7538 1.0035-3.2576 2.4688-4zm-79.782 16.094c1.3692 0.772 2.3125 2.223 2.3125 3.906 0 2.484-2.016 4.5-4.5 4.5v7c0.32107 0 0.63541 0.02973 0.9375 0.09375v-5.4062c2.5211-0.46326 4.5-2.5999 4.5-5.25 0-2.1892-1.3591-4.0092-3.25-4.8438zm79.625 0c-1.8909 0.83456-3.25 2.6546-3.25 4.8438 0 2.6501 1.9789 4.7867 4.5 5.25v5.4062c0.303-0.064 0.617-0.094 0.938-0.094v-7c-2.484 0.000001-4.5-2.016-4.5-4.5 0-1.6828 0.94331-3.1343 2.3125-3.9062zm-79.625 16c1.3697 0.772 2.313 2.223 2.313 3.906 0 2.484-2.016 4.5-4.5 4.5v7c0.32107 0 0.63541 0.02973 0.9375 0.09375v-5.4062c2.5211-0.46326 4.5-2.5999 4.5-5.25 0-2.1892-1.3591-4.0092-3.25-4.8438zm79.625 0c-1.8909 0.83456-3.25 2.6546-3.25 4.8438 0 2.6501 1.9789 4.7867 4.5 5.25v5.4062c0.303-0.064 0.617-0.094 0.938-0.094v-7c-2.484 0.000001-4.5-2.016-4.5-4.5 0-1.6828 0.94331-3.1343 2.3125-3.9062zm-79.625 16c1.3697 0.772 2.313 2.223 2.313 3.906 0 2.484-2.016 4.5-4.5 4.5v7c0.32107-0.000001 0.63541 0.02973 0.9375 0.09375v-5.4062c2.5211-0.46326 4.5-2.5999 4.5-5.25 0-2.1892-1.3591-4.0092-3.25-4.8438zm79.625 0c-1.8909 0.83456-3.25 2.6546-3.25 4.8438 0 2.6501 1.9789 4.7867 4.5 5.25v5.4062c0.303-0.064 0.617-0.094 0.938-0.094v-7c-2.484 0.000001-4.5-2.016-4.5-4.5 0-1.6828 0.94331-3.1343 2.3125-3.9062zm-79.625 16c1.3697 0.772 2.313 2.223 2.313 3.906 0 2.473-1.9993 4.483-4.4688 4.5 0.2496 3.091 2.8111 5.5 5.9688 5.5 0-2.1629 1.5274-3.975 3.5625-4.4062-2.1542 0.40051-3.8319 2.1304-4.2812 4.2812-2.0542-0.29442-3.6355-1.7406-4.125-3.7188 2.4131-0.54808 4.2812-2.6458 4.2812-5.2188 0-2.1892-1.3591-4.0092-3.25-4.8438zm79.625 0c-1.8909 0.83456-3.25 2.6546-3.25 4.8438 0 2.5729 1.8681 4.6707 4.2812 5.2188-0.40866 1.6533-1.5722 2.9409-3.1562 3.5-0.51472-2.0638-2.1492-3.6862-4.25-4.0625 2.0106 0.42121 3.5184 2.1881 3.5625 4.3125 2.689-0.446 4.746-2.648 4.969-5.407-2.47-0.017-4.469-2.027-4.469-4.5 0-1.6828 0.94331-3.1343 2.3125-3.9062zm-70.344 9.5c2.021 0.442 3.532 2.254 3.532 4.406h0.75c-0.40535-2.2059-2.0906-3.993-4.2812-4.4062zm14.062 0c-2.189 0.413-3.875 2.2-4.28 4.406h0.75c0-2.1524 1.5111-3.9637 3.5312-4.4062zm1.9375 0c2.021 0.442 3.532 2.254 3.532 4.406h0.75c-0.40535-2.2059-2.0906-3.993-4.2812-4.4062zm14.062 0c-2.189 0.413-3.875 2.2-4.28 4.406h0.75c0-2.1524 1.5111-3.9637 3.5312-4.4062zm1.9375 0c2.021 0.442 3.532 2.254 3.532 4.406h0.75c-0.40535-2.2059-2.0906-3.993-4.2812-4.4062zm14.062 0c-2.189 0.413-3.875 2.2-4.28 4.406h0.75c0-2.1524 1.5111-3.9637 3.5312-4.4062zm1.9375 0c2.021 0.442 3.532 2.254 3.532 4.406h0.75c-0.40535-2.2059-2.0906-3.993-4.2812-4.4062zm14.062 0c-2.189 0.413-3.875 2.2-4.28 4.406h0.75c-0.000003-2.1524 1.5111-3.9637 3.5312-4.4062z" fill="url(#linearGradient4682)" opacity="0.8"/>
   <path d="m6.5312 9.5625c-0.266 0.6015-0.4444 1.2485-0.5 1.9375 2.1261 0.015 3.8906 1.507 4.3438 3.5 0.074-0.323 0.125-0.655 0.125-1 0-2.302-1.7373-4.172-3.9688-4.4375zm82.938 0c-2.232 0.2655-3.969 2.1355-3.969 4.4375 0 0.34535 0.05123 0.6769 0.125 1 0.45319-1.993 2.2177-3.4853 4.3438-3.5-0.05569-0.68982-0.23378-1.3361-0.5-1.9375zm-83.469 15.938v2c2.1387 0 3.9181 1.4991 4.375 3.5 0.07377-0.3231 0.125-0.65465 0.125-1 0-2.484-2.016-4.5-4.5-4.5zm84 0c-2.484 0-4.5 2.016-4.5 4.5 0 0.34535 0.05123 0.6769 0.125 1 0.45687-2.0009 2.2363-3.5 4.375-3.5v-2zm-84 16v2c2.1387 0 3.9181 1.4991 4.375 3.5 0.07377-0.3231 0.125-0.65465 0.125-1 0-2.484-2.016-4.5-4.5-4.5zm84 0c-2.484 0-4.5 2.016-4.5 4.5 0 0.34535 0.05123 0.6769 0.125 1 0.45687-2.0009 2.2363-3.5 4.375-3.5v-2zm-84 16v2c2.1387 0 3.9181 1.4991 4.375 3.5 0.07377-0.3231 0.125-0.65465 0.125-1 0-2.484-2.016-4.5-4.5-4.5zm84 0c-2.484 0-4.5 2.016-4.5 4.5 0 0.34535 0.05123 0.6769 0.125 1 0.45687-2.0009 2.2363-3.5 4.375-3.5v-2zm-84 16v2c2.1387-0.000003 3.9181 1.4991 4.375 3.5 0.07318-0.32183 0.125-0.65612 0.125-1 0-2.484-2.016-4.5-4.5-4.5zm84 0c-2.484 0-4.5 2.016-4.5 4.5 0 0.34388 0.05182 0.67817 0.125 1 0.45687-2.0009 2.2363-3.5 4.375-3.5v-2zm-73.5 10c-2.484 0-4.5 2.016-4.5 4.5-2.4543 0-4.5404-1.463-5.4688-3.562-0.1656 0.019-0.3293 0.061-0.5 0.062 0.2496 3.091 2.8111 5.5 5.9688 5.5 0-2.484 2.016-4.5 4.5-4.5s4.5 2.016 4.5 4.5h7c0-2.484 2.016-4.5 4.5-4.5s4.5 2.016 4.5 4.5h7c0-2.484 2.016-4.5 4.5-4.5s4.5 2.016 4.5 4.5h7c0-2.484 2.016-4.5 4.5-4.5s4.5 2.016 4.5 4.5h7c-0.000004-2.484 2.016-4.5 4.5-4.5 2.4522 0 4.4493 1.9661 4.5 4.4062 2.6885-0.44512 4.746-2.647 4.9688-5.4062-0.17068-0.0012-0.33432-0.04279-0.5-0.0625-0.799 1.804-2.453 3.134-4.469 3.468-0.051-2.44-2.048-4.406-4.5-4.406-2.484 0-4.5 2.016-4.5 4.5h-7c0-2.484-2.016-4.5-4.5-4.5s-4.5 2.016-4.5 4.5h-7c0-2.484-2.016-4.5-4.5-4.5s-4.5 2.016-4.5 4.5h-7c0-2.484-2.016-4.5-4.5-4.5s-4.5 2.016-4.5 4.5h-7c0-2.484-2.016-4.5-4.5-4.5z" fill="url(#radialGradient2986)" opacity="0.3"/>
   <rect x="15" y="15" fill="url(#linearGradient4684)" height="66" opacity="0.3" width="66"/>
   <rect x="16" y="16" fill="url(#linearGradient4686)" height="64" width="64"/>
   <g clip-path="url(#clipPath4146)" opacity="0.8" transform="matrix(1 0 0 1 0 -10)">
    <path d="m63.176 37.577c1.3695-0.39771 2.8078 0.36799 3.2055 1.7375 0.26277 0.90483 0.01648 1.8361-0.58162 2.4793 0.58655 0.47866 1.0897 1.0561 1.5055 1.7105 0.67528-0.47186 1.3964-0.88205 2.1926-1.19-0.06956-0.13999-0.14562-0.27731-0.19075-0.43272-0.40846-1.4065 0.40358-2.8832 1.8101-3.2917 1.0305-0.29927 2.09 0.06539 2.7465 0.82944 0.71646-1.3394 1.9296-2.4116 3.4859-2.8997-0.36546-1.2584 0.35998-2.5777 1.6184-2.9431 1.1849-0.34412 2.4063 0.29254 2.8521 1.4171 0.32427-0.23589 0.70211-0.43169 1.1094-0.54996 1.8877-0.54819 3.8665 0.53996 4.4147 2.4276 0.01796 0.06184 0.0078 0.1268 0.02228 0.18878 0.5619-0.24483 1.1335-0.45935 1.7357-0.63424 1.6025-0.46537 3.1983-0.63221 4.7794-0.57446 0.79208-1.3548 2.0873-2.4285 3.7134-2.9007 3.3682-0.97815 6.8831 0.9547 7.8612 4.3229 0.14672 0.50522 0.22646 1.0197 0.24699 1.5228 2.1491-0.3304 4.2499 0.9638 4.8726 3.1082 0.12227 0.42102 0.17183 0.83567 0.16855 1.2527 0.2622 0.12185 0.51679 0.24917 0.76579 0.39589 0.63234-0.96454 1.5939-1.732 2.8112-2.0855 2.6279-0.76317 5.3354 0.66766 6.0663 3.1845 0.73092 2.5169-0.78897 5.1754-3.4169 5.9385-0.39479 0.11465-0.79196 0.1614-1.184 0.18113 0.12908 3.8894-2.3625 7.5197-6.2725 8.6552-1.2289 0.3569-2.4795 0.42203-3.669 0.252-1.92 2.7901-4.7482 4.9584-8.2544 5.9767-4.7374 1.3758-9.6028 0.33061-13.287-2.3892-0.58501 0.61766-1.3331 1.103-2.2091 1.3574-2.331 0.67695-4.7547-0.41753-5.8058-2.5117-0.02951 0.0088-0.06039 0.01754-0.09003 0.02614-3.47 1.0077-7.0196 0.12201-9.6027-2.0274-0.85466 1.6019-2.3363 2.8588-4.2177 3.4051-3.3969 0.98648-6.954-0.7078-8.3443-3.8572-0.39834 0.22718-0.80841 0.43002-1.2682 0.56353-3.1461 0.91365-6.4442-0.89994-7.3578-4.046-0.91365-3.1461 0.89994-6.4442 4.046-7.3578 0.32887-0.09551 0.65822-0.15163 0.98647-0.18886 0.33617-0.60813 0.87158-1.0666 1.5527-1.2644 0.70433-0.20454 1.4424-0.08217 2.0659 0.27864-0.12887-3.2244 1.9287-6.2548 5.1671-7.1953 0.70473-0.20466 1.4091-0.26407 2.1065-0.25381-0.06387-1.1722 0.66728-2.2764 1.843-2.6179z" fill="url(#linearGradient4688)" color="#000000"/>
    <path d="m20.5 50.312c-0.95045 0-1.8285 0.30559-2.5312 0.8125-0.58004-0.08942-1.1762-0.15625-1.7812-0.15625-2.6437 0-5.0504 0.91554-7 2.4062-0.2257-0.035-0.4522-0.062-0.688-0.062-2.3125 0-4.1875 1.7719-4.1875 3.9688 0 0.82384 0.26727 1.5839 0.71875 2.2188-0.268 0.97769-0.40625 1.9997-0.40625 3.0625 0 1.0735 0.13301 2.1073 0.40625 3.0938-0.6199-0.279-1.3073-0.437-2.0312-0.437-2.7365 0-4.9375 2.201-4.9375 4.9375s2.201 4.9688 4.9375 4.9688c0.36612 0 0.719-0.04965 1.0625-0.125-0.000643 0.04129 0 0.08355 0 0.125 0 4.3167 3.4958 7.8125 7.8125 7.8125 2.786 0 5.2097-1.4621 6.5938-3.6562 2.0411 1.841 4.7536 2.9688 7.7188 2.9688 4.015 0 7.533-2.072 9.5938-5.1875 1.2942 0.97115 2.8824 1.5625 4.625 1.5625 2.725 0 5.1192-1.4353 6.5-3.5625 0.69317 0.55616 1.5421 0.90625 2.5 0.90625 1.3093 0 2.4789-0.6295 3.2188-1.5938 0.32267 0.20323 0.71549 0.34375 1.125 0.34375 1.1563 0 2.0938-0.93749 2.0938-2.0938s-0.93749-2.0938-2.0938-2.0938c-0.18067 0-0.36401 0.01947-0.53125 0.0625-0.509-1.456-1.821-2.527-3.408-2.688-0.086-1.348-1.192-2.406-2.562-2.406-0.3812 0-0.73681 0.07047-1.0625 0.21875-1.4183-1.5835-3.4881-2.5938-5.7812-2.5938-1.0245 0-1.9799 0.20126-2.875 0.5625-0.22426-2.3734-2.2241-4.25-4.6562-4.25-0.28018 0-0.54588 0.04651-0.8125 0.09375 0.03207-0.21766 0.0625-0.42967 0.0625-0.65625 0-2.5052-2.0573-4.5312-4.5625-4.5312-0.93946 0-1.8073 0.2609-2.5312 0.75-0.12466-0.14758-0.24323-0.29637-0.375-0.4375 0.01212-0.12327 0.03125-0.24872 0.03125-0.375 0-2.1969-1.875-3.9688-4.1875-3.9688z" fill="url(#linearGradient4690)" color="#000000"/>
    <path d="m94.09 34.889c-1.7951 0-3.2871 1.3348-3.5312 3.0625-0.99024 0.39781-1.8962 0.90849-2.7188 1.5625-0.48316-0.50848-1.1494-0.84375-1.9062-0.84375-1.4646 0-2.6562 1.1917-2.6562 2.6562 0 0.01073-0.00013 0.02055 0 0.03125-1.0357 0.06809-2.0271 0.26679-2.9688 0.59375-0.55027-0.63705-1.3734-1.0312-2.2813-1.0312-1.6368 0-2.9673 1.3085-3 2.9375-0.04347-0.0022-0.08097-0.03125-0.125-0.03125-1.2037 0-2.2233 0.86986-2.4688 2-2.4536 0.16605-4.5626 1.5198-5.7812 3.5-0.4926-0.20835-1.0253-0.3125-1.5938-0.3125-2.274 0-4.125 1.851-4.125 4.125s1.851 4.0938 4.125 4.0938c0.53425 0 1.0316-0.09607 1.5-0.28125 1.2861 2.1833 3.6578 3.625 6.375 3.625 0.87777 0 1.7188-0.15691 2.5-0.4375 2.0858 2.4103 5.156 3.9375 8.5938 3.9375 3.5742 0 6.7584-1.6406 8.8438-4.2188 1.215 1.3833 2.9829 2.2812 4.9688 2.2812 1.5447 0 2.9666-0.55175 4.0938-1.4375 1.0575 0.54918 2.2573 0.875 3.5312 0.875 1.5489 0 2.9813-0.46094 4.1875-1.25 0.49805 0.25713 1.0571 0.40625 1.6562 0.40625 1.7433 0 3.213-1.236 3.5625-2.875 0.23611 1.5401 1.5501 2.7188 3.1562 2.7188 1.7729 0 3.2188-1.4146 3.2188-3.1875 0-1.6151-1.1974-2.9623-2.75-3.1875 0.0458-0.25866 0.0937-0.54069 0.0937-0.8125 0-2.5052-2.026-4.5312-4.5312-4.5312-0.84008 0-1.6378 0.25822-2.3125 0.65625-0.22398-0.31986-0.44981-0.65593-0.71875-0.9375 0.10594-0.25048 0.15625-0.52343 0.15625-0.8125 0-1.1563-0.93749-2.0938-2.0938-2.0938-0.0932 0-0.1913 0.01945-0.28125 0.03125-0.0172-1.7967-1.4805-3.25-3.2812-3.25-0.47744 0-0.93457 0.09784-1.3438 0.28125-1.4251-2.523-3.8275-4.4148-6.6875-5.1875-0.40134-1.5259-1.7544-2.6562-3.4062-2.6562z" fill="url(#linearGradient4692)" color="#000000"/>
    <path d="m10.661 61.763c3.0264 0.30734 5.375 2.8925 5.375 6 0 0.50225-0.07128 0.97124-0.1875 1.4375 1.3556-0.82923 2.9508-1.3125 4.6562-1.3125 0.69713 0 1.3801 0.09893 2.0312 0.25 0.47506-1.3625 1.7568-2.3438 3.2812-2.3438 1.9271 0 3.4688 1.5729 3.4688 3.5 0 0.92305-0.35225 1.751-0.9375 2.375 0.19649-0.02238 0.39127 0 0.59375 0 2.8907 0 5.25 2.3281 5.25 5.2188s-2.3593 5.25-5.25 5.25c-0.40398 0-0.77855-0.0696-1.1562-0.15625-1.0117 1.427-2.4356 2.5193-4.0938 3.1562 0.0042 0.11543 0.03125 0.22731 0.03125 0.34375 0 5.2417-4.2583 9.4688-9.5 9.4688-1.5304 0-2.9698-0.3566-4.25-1-2.6246 1.7834-5.8064 2.8438-9.2188 2.8438-6.8387 0-12.693-4.2051-15.156-10.156-4.7852-0.5966-8.5-4.647-8.5-9.5937 0-5.3573 4.3302-9.7188 9.6875-9.7188 1.1595 0 2.2818 0.22061 3.3125 0.59375 0.85422-0.73119 1.7894-1.3932 2.7812-1.9375-0.0827-0.23333-0.15625-0.48833-0.15625-0.75 0-1.2333 1.0166-2.2188 2.25-2.2188 0.94828 0 1.7699 0.57244 2.0938 1.4062 1.0568-0.24278 2.1573-0.40621 3.2813-0.4375 0.31043-1.2856 1.4628-2.2188 2.8438-2.2188 1.1744 0 2.1886 0.6901 2.6562 1.6875 1.0788-1.0542 2.5545-1.6875 4.1875-1.6875 0.20716 0 0.42324-0.02049 0.625 0z" fill="url(#linearGradient4694)" color="#000000" opacity="0.8"/>
    <path d="m7.6562 74.656c3.5005 0 6.464 2.1862 7.625 5.2812 2.9227 0.05208 5.2812 2.4399 5.2812 5.375 0 2.9677-2.4073 5.375-5.375 5.375-1.1753 0-2.2405-0.3911-3.125-1.0312-1.2736 0.82112-2.7782 1.3125-4.4062 1.3125-0.41217 0-0.82299-0.0348-1.2188-0.0937-0.4608 0.55836-1.157 0.9375-1.9375 0.9375-1.11 0-2.0426-0.72039-2.375-1.7188-0.573 0.1721-1.1834 0.28125-1.8125 0.28125-3.4688 0-6.2812-2.8125-6.2812-6.2812 0-2.9051 1.9776-5.3448 4.6562-6.0625-0.02473-0.15323-0.0625-0.30854-0.0625-0.46875 0-1.6188 1.3187-2.9062 2.9375-2.9062 0.86619 0 1.6509 0.37137 2.1875 0.96875 1.1569-0.62848 2.4971-0.96875 3.9062-0.96875z" fill="url(#linearGradient4696)" color="#000000" opacity="0.8"/>
    <path d="m83.406 60.312c0.95045 0 1.8285 0.30559 2.5312 0.8125 0.58004-0.08942 1.1762-0.15625 1.7812-0.15625 2.6437 0 5.0504 0.91554 7 2.4062 0.2252-0.03559 0.45167-0.0625 0.6875-0.0625 2.3125 0 4.1875 1.7719 4.1875 3.9688 0 0.82384-0.26727 1.5839-0.71875 2.2188 0.268 0.97769 0.40625 1.9997 0.40625 3.0625 0 1.0735-0.13301 2.1073-0.40625 3.0938 0.61992-0.27902 1.3073-0.4375 2.0312-0.4375 2.7365 0 4.9375 2.201 4.9375 4.9375s-2.201 4.9688-4.9375 4.9688c-0.36612 0-0.719-0.0496-1.0625-0.125 0.00064 0.0413 0 0.0836 0 0.125 0 4.3167-3.4958 7.8125-7.8125 7.8125-2.786 0-5.2097-1.4621-6.5938-3.6562-2.0411 1.841-4.7536 2.9688-7.7188 2.9688-4.015 0-7.533-2.072-9.5938-5.1875-1.2942 0.97115-2.8824 1.5625-4.625 1.5625-2.725 0-5.1192-1.4353-6.5-3.5625-0.69317 0.55616-1.5421 0.90625-2.5 0.90625-1.3093 0-2.4789-0.6295-3.2188-1.5938-0.32267 0.20323-0.71549 0.34375-1.125 0.34375-1.1563 0-2.0938-0.93749-2.0938-2.0938s0.93749-2.0938 2.0938-2.0938c0.18067 0 0.36401 0.0195 0.53125 0.0625 0.50733-1.456 1.8198-2.5264 3.4062-2.6875 0.08623-1.3481 1.1927-2.4062 2.5625-2.4062 0.3812 0 0.73681 0.07047 1.0625 0.21875 1.419-1.584 3.489-2.594 5.782-2.594 1.0245 0 1.9799 0.20126 2.875 0.5625 0.22426-2.3734 2.2241-4.25 4.6562-4.25 0.28018 0 0.54588 0.04651 0.8125 0.09375-0.03207-0.21766-0.0625-0.42967-0.0625-0.65625 0-2.5052 2.0573-4.5312 4.5625-4.5312 0.93946 0 1.8073 0.2609 2.5312 0.75 0.12466-0.14758 0.24323-0.29637 0.375-0.4375-0.01212-0.12327-0.03125-0.24872-0.03125-0.375 0-2.1969 1.875-3.9688 4.1875-3.9688z" fill="url(#linearGradient4698)" color="#000000" opacity="0.5"/>
    <path d="m104.09 56.889c-1.7951 0-3.2871 1.3348-3.5312 3.0625-0.99024 0.39781-1.8962 0.90849-2.7188 1.5625-0.48316-0.50848-1.1494-0.84375-1.9062-0.84375-1.4646 0-2.6562 1.1916-2.6562 2.6562 0 0.01073-0.00013 0.02055 0 0.03125-1.0357 0.06809-2.0271 0.26679-2.9688 0.59375-0.55027-0.63705-1.3734-1.0312-2.2813-1.0312-1.6368 0-2.9673 1.3085-3 2.9375-0.04347-0.0022-0.08097-0.03125-0.125-0.03125-1.2037 0-2.2233 0.86986-2.4688 2-2.4536 0.16605-4.5626 1.5198-5.7812 3.5-0.4926-0.20835-1.0253-0.3125-1.5938-0.3125-2.274 0-4.125 1.851-4.125 4.125s1.851 4.0938 4.125 4.0938c0.53425 0 1.0316-0.09607 1.5-0.28125 1.2861 2.1833 3.6578 3.625 6.375 3.625 0.87777 0 1.7188-0.15691 2.5-0.4375 2.0858 2.4103 5.156 3.9375 8.5938 3.9375 3.5742 0 6.7584-1.6406 8.8438-4.2188 1.215 1.3833 2.9829 2.2812 4.9688 2.2812 1.5447 0 2.9666-0.55175 4.0938-1.4375 1.0575 0.54918 2.2573 0.875 3.5312 0.875 1.5489 0 2.9813-0.46094 4.1875-1.25 0.49805 0.25713 1.0571 0.40625 1.6562 0.40625 1.7433 0 3.213-1.236 3.5625-2.875 0.23611 1.5401 1.5501 2.7188 3.1562 2.7188 1.7729 0 3.2188-1.4146 3.2188-3.1875 0-1.6151-1.1974-2.9623-2.75-3.1875 0.0458-0.25866 0.0937-0.54069 0.0937-0.8125 0-2.5052-2.026-4.5312-4.5312-4.5312-0.84008 0-1.6378 0.25822-2.3125 0.65625-0.22398-0.31986-0.44981-0.65593-0.71875-0.9375 0.10594-0.25048 0.15625-0.52343 0.15625-0.8125 0-1.1563-0.93749-2.0938-2.0938-2.0938-0.0932 0-0.1913 0.01945-0.28125 0.03125-0.0172-1.7967-1.4805-3.25-3.2812-3.25-0.47744 0-0.93457 0.09784-1.3438 0.28125-1.4251-2.523-3.8275-4.4148-6.6875-5.1875-0.40134-1.5259-1.7544-2.6562-3.4062-2.6562z" fill="url(#linearGradient4700)" color="#000000" opacity="0.8"/>
   </g>
   <path d="m16 16v64h64v-64h-64zm2 2h60v60h-60v-60z" fill="#3365a8" opacity="0.15"/>
   <path d="m16.438 16c-0.03654 0.0073-0.06024 0.01707-0.09375 0.03125-0.07367 0.02998-0.13462 0.06872-0.1875 0.125-0.09518 0.1013-0.15946 0.22767-0.15625 0.375v62.906 0.03125c0.0019 0.05425 0.01433 0.10669 0.03125 0.15625 0.01558 0.04455 0.03654 0.08657 0.0625 0.125 0.01089 0.01749 0.01848 0.04637 0.03125 0.0625 0.0088 0.01017 0.02176 0.02176 0.03125 0.03125 0.05288 0.05628 0.11383 0.09502 0.1875 0.125 0.02947 0.01199 0.06172 0.02443 0.09375 0.03125 0.03461 0.0069 0.05711-0.000004 0.09375 0h16.062 3.8125 1.6562 27.969 13.438c0.07531-0.000007 0.12225-0.0036 0.1875-0.03125 0.19576-0.08281 0.34373-0.27407 0.34375-0.5 0.000591-0.0104-0.000001-0.02071 0-0.03125v-62.906c-0.000007-0.07531-0.0036-0.12225-0.03125-0.1875-0.08281-0.19576-0.27407-0.34373-0.5-0.34375h-13.438-27.969-1.6562-3.8125-16.062c-0.03777-0.004-0.05597-0.004-0.09375 0zm0.65625 1.0938h14.688 4.1562 1.125 30.75 11.094v61.812h-11.094-30.75-1.125-4.1562-14.688v-61.812z" fill="#3365a8" opacity="0.3"/>
   <rect x="15" stroke-width="0.5" rx="12" y="15" clip-path="url(#clipPath3613)" fill="url(#linearGradient4702)" stroke="#fff" height="66" filter="url(#filter3794)" opacity="0.1" width="66" stroke-linecap="round"/>
   <path d="m63.281 25.656c-1.1208 0.07921-2.1772 0.70374-2.7812 1.75-0.18459 0.31972-0.2997 0.65768-0.375 1-0.09428-0.03487-0.1858-0.09355-0.28125-0.125-0.50411-0.16609-1.0466-0.26509-1.6562-0.34375-0.07397-0.0096-0.14222-0.02286-0.21875-0.03125-0.08143-0.009-0.16542-0.02356-0.25-0.03125-0.14844-0.01319-0.3407-0.02192-0.5-0.03125-0.35416-0.01998-0.73746-0.02894-1.1562-0.03125-0.20308-0.0011-0.40612 0.0166-0.625 0.0625-0.04267 0.0086-0.08178 0.02092-0.125 0.03125-0.0326 0.008-0.06085 0.02229-0.09375 0.03125-0.2266 0.05995-0.44718 0.11521-0.6875 0.21875-0.08035 0.03462-0.16823 0.0858-0.25 0.125-3.8115 1.8272-9.1389 8.5723-13.25 12.938-1.3414 1.4243-3.185 2.3961-5.125 3.2812-0.16336 0.07288-0.33547 0.14533-0.5 0.21875-1.8694 0.83442-3.7758 1.6096-5.375 2.625-0.04519 0.02873-0.08031 0.06469-0.125 0.09375-0.75937 0.49395-1.4334 1.0442-2 1.6875-0.20166 0.17912-0.36824 0.36554-0.5 0.59375-1.933 3.348 4.6434 10.764 14.688 16.562 10.044 5.799 19.755 7.7855 21.688 4.4375 0.12081-0.20925 0.19443-0.41661 0.25-0.65625 0.85978-2.4629 0.44639-5.4283 0.125-8.4062-0.0044-0.0063 0.0045-0.02493 0-0.03125-0.02563-0.23698-0.07033-0.48197-0.09375-0.71875-0.21442-2.1754-0.29521-4.3307 0.28125-6.25 1.6848-5.6095 4.7227-13.341 4.5625-17.625 0.01107 0.0096 0.0202 0.02161 0.03125 0.03125-0.0071-0.22604-0.03588-0.4182-0.0625-0.625-0.0226-0.19264-0.05436-0.35689-0.09375-0.53125-0.03697-0.1561-0.07403-0.32839-0.125-0.46875-0.009-0.024-0.024-0.042-0.032-0.064-0.06-0.158-0.108-0.302-0.187-0.437-0.183-0.313-0.362-0.581-0.532-0.844-0.03-0.047-0.063-0.08-0.094-0.125-0.141-0.216-0.269-0.407-0.406-0.594-0.055-0.075-0.101-0.148-0.156-0.219-0.115-0.15-0.229-0.272-0.344-0.406-0.074-0.086-0.143-0.169-0.218-0.25-0.261-0.284-0.529-0.546-0.813-0.781 0.25949-0.23669 0.50252-0.49211 0.6875-0.8125 0.9665-1.674 0.39277-3.8148-1.2812-4.7812-0.25865-0.14933-0.53763-0.23508-0.8125-0.3125-0.088-0.034-0.18-0.044-0.281-0.063-0.301-0.058-0.607-0.115-0.907-0.094z" color="#000000" opacity="0.3"/>
   <g transform="matrix(0.75777 0.4375 -0.4375 0.75777 -56.53 -15.903)">
    <use xlink:href="#SVGCleanerId_1" fill="url(#radialGradient4704)"/>
    <path d="m141.26-26.921s-1.3988 2.8601 2.3755 3.0436c4.9304 0.2397 3.0685-3.9032 3.0685-3.9032 2.2353 2.3877 0.42979 5.2291 0.42979 5.2291l-5.8738 0.07163s-1.8624-1.2894 0-4.4412z" fill="#2a0a00" opacity="0.611"/>
    <path d="m144-24c-3.4844 0-4.8297 0.04133-8.1562 1.9375-3.7393 2.1315-5.3807 14.058-7.2188 21.844-1.36 5.8026-8.12 10.559-8.62 16.218h24 24c-0.5-5.659-7.26-10.415-8.62-16.219-1.84-7.7857-3.48-19.712-7.22-21.843-3.33-1.897-4.68-1.938-8.16-1.938z" fill="url(#linearGradient4706)"/>
    <use xlink:href="#SVGCleanerId_2" transform="matrix(1.4286 0 0 0.97636 -66.26 -2)"/>
    <path d="m145.28-23.969c2.0043 0.10051 3.3801 0.48412 5.875 1.9062 3.7393 2.1315 5.3807 14.058 7.2188 21.844 1.37 5.8036 8.13 10.56 8.63 16.219h1c-0.50142-5.6589-7.255-10.415-8.625-16.219-1.838-7.786-3.4794-19.712-7.2188-21.844-2.8594-1.6299-4.3265-1.8655-6.875-1.9062z" fill="url(#linearGradient4710)" opacity="0.694"/>
    <path d="m144-24c-3.4844 0-4.8297 0.04133-8.1562 1.9375-0.54033 0.30799-1.0404 0.82502-1.5 1.5 2.8528-0.45874 5.8183-0.6875 8.875-0.6875 3.6979 0 7.2686 0.33674 10.656 1-0.51685-0.83359-1.0962-1.4576-1.7188-1.8125-3.33-1.897-4.68-1.938-8.16-1.938z" fill="url(#linearGradient4712)" opacity="0.5"/>
    <path d="m142-23.969c-1.3532 0.40038-3.9736 1.0594-4.7933 2-2.6539 3.0454-2.6266 12.37-3.8005 17.125-1.1738 4.7546-2.7841 4.6514-2 5.919 0.73962 1.1957 4.0212 0.2909 4.0312 1.1875 0.0229 2.0929-5.453 1.0729-5.6562 2.7494l2.8438 0.09375s-6.0603 3.1141-5.6562 6.1441l18.875-3.2188c-2.72-1.212-7.84-0.3769-8.06-2.0312-0.25871-1.9651 4.6699-0.010978 5.25-1.9062 0.66373-2.1684-2.7236-2.9541-3.875-7.5s-0.49377-14.385 1.125-18.375c0.35356-0.87137 1.6921-1.7002 2.5312-2.1875-0.26684 0.0037-0.56816-0.0094-0.8125 0z" fill="url(#linearGradient4714)"/>
    <path d="m143.72 3c-7.2733 0-13.762 1.0796-18.156 2.7812-0.16384 0.2318-0.33271 0.45683-0.5 0.6875 4.4-1.8195 11.1-2.9687 18.66-2.9687 8.0293 0 15.118 1.2941 19.469 3.3125-0.16772-0.22946-0.33474-0.45708-0.5-0.6875-4.38-1.8977-11.23-3.125-18.97-3.125z" fill="url(#linearGradient4716)" color="#000000" opacity="0.8"/>
    <use xlink:href="#SVGCleanerId_2" transform="matrix(1.0512 0 0 0.69932 -19.577 -6.402)"/>
    <path d="m148.88-21.111a4.7976 1.2625 0 1 1 -9.5951 0 4.7976 1.2625 0 1 1 9.5951 0z" fill="url(#radialGradient4720)" color="#000000" transform="matrix(1 0.00162 -0.00162 1 0.393 27.11)"/>
    <path d="m143.72 2.5c-7.03 0-13.33 1.0173-17.72 2.625-0.15 0.2181-0.28 0.4394-0.44 0.6562 4.4-1.7016 10.89-2.7812 18.16-2.7812 7.746 0 14.587 1.2273 18.969 3.125-0.16672-0.23246-0.33776-0.45373-0.5-0.6875-4.4-1.779-11.02-2.9375-18.47-2.9375z" fill="url(#linearGradient4722)" color="#000000"/>
    <path d="m144.03-23.686s5.226 0.44332 8.2234 2.323c2.9466 2.2861 5.3841 19.38 7.2134 23.853 0.42463 1.0383 4.8603 6.5897 5.5715 8.1646 1.3543 2.402-12.301-2.0616-12.301-2.0616 7.4486-0.34434 4.3484-4.2626 4.3484-4.2626 1.4861-0.86991-2.5484-1.5518-0.75886-3.2709 0.77485-0.74438-2.2894-18.293-4.7249-21.732-0.85958-2.0057-7.5715-3.0136-7.5715-3.0136z" fill="url(#linearGradient4724)" opacity="0.8"/>
    <path d="m148.77-21.111a4.6921 1.2625 0 1 1 -9.3842 0 4.6921 1.2625 0 1 1 9.3842 0z" fill="url(#radialGradient4720)" color="#000000" transform="matrix(1.4453 0 0 1 -64.58 0)"/>
    <path d="m141.72-23.969c-2.0043 0.10051-3.3801 0.48412-5.875 1.9062-3.7393 2.1315-5.3807 14.058-7.2188 21.844-1.37 5.8036-8.13 10.56-8.63 16.219h1c0.50142-5.6589 7.255-10.415 8.625-16.219 1.838-7.786 3.4794-19.712 7.2188-21.844 2.4949-1.4221 3.8707-1.8057 5.875-1.9062-0.32486 0.0052-0.70719-0.01468-1 0z" fill="url(#linearGradient4728)" opacity="0.6"/>
    <path d="m141.97-23.969c-1.3534 0.40595-4.1524 1.2704-4.9653 2.2032-2.6539 3.0454-2.4234 12.167-3.5972 16.922-1.1738 4.7546-2.7841 4.6514-2 5.919 0.73962 1.1957 4.0212 0.2909 4.0312 1.1875 0.0229 2.0929-5.453 1.0729-5.6562 2.7494l2.8438 0.09375s-6.0603 3.1141-5.6562 6.1441l1-0.15625c-0.17-2.97 5.66-5.9881 5.66-5.9881l-2.8438-0.09375c0.20321-1.6765 5.6792-0.65645 5.6562-2.7494-0.01-0.8966-3.2916 0.00822-4.0312-1.1875-0.78409-1.2676 0.8262-1.1644 2-5.919s0.7909-13.826 3.4448-16.871c0.72883-0.83634 3.4137-1.714 4.7114-2.129 0.12922-0.07821 0.13523-0.05775 0.25-0.125-0.2771 0.0038-0.59079-0.01001-0.84375 0z" fill="url(#linearGradient4730)" opacity="0.8"/>
    <use xlink:href="#SVGCleanerId_0" fill="url(#linearGradient4732)" color="#000000"/>
    <path d="m143.34 7.5938c-9.6965 0-18.067 1.8548-22.094 4.5625-0.51874 0.99432-0.92525 1.993-1.125 3.0312 1.23-4.035 11.45-7.188 23.88-7.188 12.426 0 22.646 3.1535 23.875 7.1875-0.0399-0.20743-0.10122-0.41973-0.15625-0.625-1.8084-3.937-12.034-6.9688-24.375-6.9688z" fill="url(#linearGradient4734)"/>
    <path d="m144 8c-1.0096 0-1.9921 0.026485-2.9688 0.0625-0.69921 0.028687-1.3832 0.076709-2.0625 0.125-5.8638 0.41688-10.924 1.5351-14.344 3.0938 1.9281 3.2042 9.8494 5.5938 19.375 5.5938s17.447-2.3896 19.375-5.5938c-3.42-1.5584-8.48-2.6766-14.35-3.0935-0.68-0.0434-1.36-0.0992-2.06-0.125-0.98-0.036-1.96-0.0625-2.97-0.0625z" fill="url(#linearGradient4736)" color="#000000" opacity="0.5"/>
    <use xlink:href="#SVGCleanerId_3" fill="url(#linearGradient4738)"/>
    <use xlink:href="#SVGCleanerId_3" fill="url(#radialGradient4740)"/>
    <use xlink:href="#SVGCleanerId_2" transform="matrix(0.39757 0.34382 -0.13362 0.15451 81.28 -77.63)"/>
    <path d="m144.73-28.557s1.5061 0.36815 1.7655 1.8015c0.22886 1.2645-0.90076 2.1258-0.90076 2.1258 1.0449-2.7743-0.86473-3.9273-0.86473-3.9273z" fill="#ffe9a5" opacity="0.611"/>
    <g clip-path="url(#clipPath4728-2)">
     <use xlink:href="#SVGCleanerId_1" fill="#2b0d00" opacity="0.3" transform="matrix(1.4022 0 0 1.4022 -50.02 49.09)"/>
     <use xlink:href="#SVGCleanerId_1" fill="url(#radialGradient4704)" transform="matrix(1.4022 0 0 1.4022 -50.31 48.664)"/>
     <path d="m155.65 15.785s-1.0653 2.6686-3.8728 2.8156c-2.4767 0.12972-3.8562-2.1314-3.8562-2.1314 5.064 2.5428 7.7291-0.6842 7.7291-0.6842z" fill="#441b00" opacity="0.5"/>
     <path d="m151.59 8c-2.6609 0-4.8337 1.8582-5.4062 4.3438 2.5798-2.1672 8.1649-2.3484 10.875 0.03125-0.56-2.5038-2.79-4.375-5.47-4.375z" fill="url(#radialGradient4746)" color="#000000"/>
     <use xlink:href="#SVGCleanerId_2" transform="matrix(1.0546 0.04644 -0.02402 0.30799 -9.99 8.287)"/>
    </g>
   </g>
  </g>
  <rect x="-96" rx="25" y="958.36" clip-path="url(#clipPath3009)" fill="#fff" height="92" opacity="0.15" width="92" transform="matrix(1 0 0 1 98 0)"/>
 </g>
</svg>
