<svg height="96" width="96" xmlns="http://www.w3.org/2000/svg" xmlns:sodipodi="http://sodipodi.sourceforge.net/DTD/sodipodi-0.dtd" xmlns:inkscape="http://www.inkscape.org/namespaces/inkscape">
 <defs>
  <linearGradient x1="53.06" x2="50.45" y1="1042.44" y2="965.46" gradientUnits="userSpaceOnUse" id="linearGradient5160" inkscape:collect="always">
   <stop stop-color="#bcb5ac"/>
   <stop stop-color="#e9e7e4" offset="1"/>
  </linearGradient>
 </defs>
 <g inkscape:label="Layer 1" inkscape:groupmode="layer" transform="matrix(1 0 0 1 0 -956.36)">
  <rect x="8.751" rx="10.769" y="964.14" fill="url(#linearGradient5160)" fill-opacity="1" stroke="none" height="80" width="80"/>
  <path d="m 8.75125,1031.3354 0,2.0133 c 0,5.966 4.793063,10.7905 10.758946,10.7905 l 58.450649,0 c 5.965883,0 10.790405,-4.8245 10.790405,-10.7905 l 0,-2.0133 c 0,5.9659 -4.824522,10.7904 -10.790405,10.7904 l -58.450649,0 c -5.965883,0 -10.758946,-4.8245 -10.758946,-10.7904 z" fill="#000000" fill-opacity="1" stroke="none" opacity="0.3" inkscape:connector-curvature="0"/>
  <path d="M 47.625 48.4375 C 38.449505 48.4375 32.64851 55.8426 34.5625 65.0625 C 35.440941 69.2955 38.688201 73.02775 42.59375 74.28125 C 45.645359 75.26065 50.906184 75.02165 53.875 73.78125 C 56.350194 72.74675 59.447264 69.61325 60.5 67.09375 C 60.957526 65.99865 61.36356 63.4814 61.375 61.5 C 61.423189 53.1185 56.48082 48.4375 47.625 48.4375 z M 47.21875 54 C 50.758869 53.849951 54.438285 56.183437 55.21875 60.34375 C 55.706973 62.94615 54.484693 66.21375 52.46875 67.71875 C 50.475567 69.20705 46.319806 69.58565 44.34375 68.46875 C 40.650584 66.38095 39.266796 60.5937 41.625 57.125 C 43.02017 55.072813 45.094679 54.090029 47.21875 54 z " fill="#800000" transform="matrix(1 0 0 1 0 956.36)"/>
  <path d="m 55.131539,999.75639 c 1.011803,-4.0313 7.860099,-16.10223 9.48983,-16.72753 1.251299,-0.48015 4.183247,2.84393 4.173028,4.73115 -0.01359,2.50678 -0.823632,3.35225 -3.067052,3.20117 -2.320814,-0.15629 -4.337105,1.60111 -8.035439,7.00373 -2.521932,3.68389 -3.144678,4.11969 -2.560367,1.79154 z" inkscape:connector-curvature="0"/>
  <path d="m 51.073178,997.55013 c 1.054709,-9.20592 3.329598,-17.3749 5.175252,-18.58428 2.75028,-1.80205 7.132613,1.47559 5.657843,4.23156 -0.346824,0.648 -1.93077,1.97826 -3.519917,2.95604 -2.8556,1.75705 -2.910698,1.84745 -4.722562,7.74862 -2.220835,7.23303 -3.151471,8.54343 -2.590616,3.64823 z" inkscape:connector-curvature="0"/>
  <path d="m 47.897322,987.91225 c -0.0029,-5.56164 -0.168181,-11.47024 -0.367564,-13.12958 -0.351515,-2.92609 -0.314258,-3.02978 1.227495,-3.41675 2.222751,-0.55784 5.396459,1.04885 5.880269,2.977 0.475252,1.89356 -0.601845,4.35139 -2.07586,4.73685 -1.242126,0.32484 -1.709331,2.12567 -3.195132,12.315 -0.484966,3.32577 -1.012791,6.17812 -1.173035,6.33836 -0.160192,0.16019 -0.293532,-4.25919 -0.296307,-9.82077 z" inkscape:connector-curvature="0"/>
 </g>
</svg>
