<svg height="96" width="96" xmlns="http://www.w3.org/2000/svg" xmlns:xlink="http://www.w3.org/1999/xlink" xmlns:sodipodi="http://sodipodi.sourceforge.net/DTD/sodipodi-0.dtd" xmlns:inkscape="http://www.inkscape.org/namespaces/inkscape">
 <defs>
  <linearGradient x1="53.06" x2="50.45" y1="1042.44" y2="965.46" gradientUnits="userSpaceOnUse" id="linearGradient5160" inkscape:collect="always">
   <stop stop-color="#bcb5ac"/>
   <stop stop-color="#e9e7e4" offset="1"/>
  </linearGradient>
  <path d="m 117.85,85.382 c 0.14906,-0.06618 0.37655,-0.04899 0.50552,0.03826 0.12896,0.08723 0.35644,0.10445 0.50551,0.03826 0.14907,-0.06618 0.36773,-0.05492 0.48593,0.02503 0.11819,0.07995 0.33277,0.1226 0.47684,0.09479 0.14408,-0.02784 0.36451,0.01879 0.48988,0.1036 0.12535,0.08479 0.34989,0.10002 0.49895,0.03385 0.14907,-0.06618 0.36774,-0.05492 0.48594,0.02503 0.11819,0.07995 0.31987,0.13096 0.44817,0.11335 0.1283,-0.01757 0.32999,-0.04526 0.44821,-0.06139 0.11823,-0.0162 0.42395,-0.09975 0.67939,-0.18574 0.29866,-0.10053 0.5564,-0.09414 0.72204,0.01788 0.16346,0.11056 0.46567,0.12078 0.82699,0.02799 0.31317,-0.08044 0.6565,-0.08734 0.76297,-0.01537 0.20413,0.13807 0.26763,0.13665 1.3578,-0.0305 0.40577,-0.06223 0.79084,-0.03446 0.94224,0.06793 0.14082,0.09525 0.28163,0.13534 0.31292,0.08909 0.14719,-0.21763 1.0772,-0.3635 1.3106,-0.20558 0.13902,0.09403 0.37063,0.14821 0.5147,0.1204 0.14407,-0.02784 0.36452,0.01879 0.48988,0.1036 0.12536,0.0848 0.34989,0.10002 0.49895,0.03385 0.22204,-0.09859 0.38385,-0.04404 0.89517,0.30183 0.59574,0.40295 0.63213,0.41034 0.7997,0.16262 0.0992,-0.14672 0.30436,-0.25484 0.47189,-0.24874 0.21972,0.008 0.37266,-0.10201 0.59144,-0.42546 0.16835,-0.2489 0.40759,-0.45798 0.55703,-0.48683 0.17005,-0.03286 0.39944,-0.25385 0.65391,-0.63006 0.31565,-0.46668 0.44965,-0.57739 0.68831,-0.56869 0.16299,0.0061 0.36975,-0.09771 0.45946,-0.23034 0.23582,-0.34865 2.326,-0.73514 2.6801,-0.49559 0.14642,0.09904 0.29649,0.13532 0.33347,0.08064 0.1431,-0.21157 0.96587,-0.26457 1.239,-0.07983 0.16991,0.11492 0.39087,0.1432 0.55375,0.0709 0.14907,-0.06618 0.36774,-0.05492 0.48593,0.02503 0.1182,0.07994 0.33277,0.1226 0.47684,0.09478 0.1987,-0.03834 0.51924,0.12346 1.3275,0.67014 1.1006,0.74441 1.2669,0.96165 1.0181,1.3295 -0.0705,0.10431 -0.0361,0.60895 0.0765,1.1214 0.11265,0.51247 0.14691,1.0174 0.0761,1.122 -0.0708,0.10463 -0.10591,0.30811 -0.0781,0.45218 0.0278,0.14407 -0.0188,0.36452 -0.1036,0.48987 -0.0848,0.12536 -0.10002,0.34989 -0.0339,0.49896 0.0883,0.19879 0.044,0.38384 -0.16595,0.69428 -0.16051,0.23732 -0.26405,0.5383 -0.2357,0.68518 0.0374,0.1934 -0.11272,0.50335 -0.57351,1.1846 -0.46078,0.68124 -0.69261,0.93588 -0.88601,0.97322 -0.15644,0.0302 -0.39168,0.24237 -0.58405,0.52677 l -0.32209,0.47621 0.52828,0.35733 c 0.3307,0.22368 0.62627,0.33842 0.79023,0.30676 0.18426,-0.0355 0.48404,0.0996 1.0107,0.45591 0.63596,0.43015 0.78962,0.48833 1.0198,0.38612 0.24033,-0.1067 0.38384,-0.044 1.2672,0.55347 0.74659,0.50499 1.0618,0.66113 1.2581,0.62323 0.15398,-0.0298 0.4521,0.078 0.72327,0.26148 l 0.46133,0.31203 1.2513,-1.85 c 1.175,-1.7372 1.244,-1.8665 1.131,-2.121 -0.0883,-0.19878 -0.044,-0.38385 0.16593,-0.69427 0.16053,-0.23732 0.26407,-0.53831 0.23572,-0.68518 -0.0279,-0.14407 0.0188,-0.36451 0.1036,-0.48987 0.0848,-0.12536 0.10001,-0.34989 0.0339,-0.49896 -0.0662,-0.14907 -0.049,-0.37655 0.0383,-0.50551 0.0872,-0.12897 0.10445,-0.35645 0.0383,-0.50552 -0.0695,-0.1565 -0.044,-0.38385 0.0602,-0.53801 0.0993,-0.14684 0.15783,-0.38486 0.13002,-0.52893 -0.0278,-0.14407 0.0188,-0.36452 0.1036,-0.48987 0.0848,-0.12536 0.10002,-0.3499 0.0339,-0.49896 -0.0662,-0.14906 -0.0558,-0.36636 0.023,-0.48288 0.15074,-0.22286 0.15347,-0.46135 0.0124,-1.0846 -0.0471,-0.20814 -0.0197,-0.4759 0.0608,-0.59503 0.0806,-0.11912 0.0924,-0.33854 0.0262,-0.48761 -0.0662,-0.14906 -0.0549,-0.36773 0.025,-0.48592 0.0799,-0.1182 0.1226,-0.33277 0.0948,-0.47684 -0.0278,-0.14407 0.015,-0.3589 0.0952,-0.4774 0.0802,-0.1185 0.10683,-0.33471 0.0593,-0.48046 -0.0823,-0.25238 -0.0733,-0.26588 0.19168,-0.28339 0.15298,-0.01012 0.34454,-0.11656 0.42571,-0.23656 0.21047,-0.31118 0.98129,-0.42718 1.3193,-0.19855 0.1699,0.11492 0.39087,0.1432 0.55375,0.0709 0.14907,-0.06618 0.37655,-0.04899 0.50551,0.03826 0.12897,0.08724 0.35645,0.10446 0.50552,0.03826 0.19878,-0.08826 0.38384,-0.04404 0.69427,0.16594 0.23732,0.16052 0.53831,0.26406 0.68518,0.2357 0.38383,-0.07409 3.4379,1.9917 3.512,2.3755 0.0284,0.14688 0.23649,0.3877 0.47381,0.54822 0.31042,0.20997 0.42036,0.36527 0.41244,0.58263 -0.0139,0.38107 0.28251,0.58156 0.54876,0.37117 0.11387,-0.08999 0.25075,-0.13404 0.30419,-0.0979 0.0534,0.03613 0.17007,-0.04214 0.25921,-0.17388 0.20835,-0.30802 0.51603,-0.36455 0.82965,-0.15243 0.15304,0.10352 0.46716,0.1119 0.81787,0.02183 0.31318,-0.08044 0.66669,-0.08046 0.7856,-3e-5 0.11891,0.08043 0.33817,0.09209 0.48723,0.02586 0.19879,-0.08826 0.38385,-0.04404 0.69428,0.16595 0.23732,0.16052 0.53831,0.26406 0.68518,0.2357 0.14407,-0.02784 0.36452,0.01879 0.48988,0.10361 0.12536,0.08479 0.34989,0.10002 0.49895,0.03385 0.14908,-0.06618 0.36774,-0.05492 0.48593,0.02503 0.1182,0.07995 0.33278,0.1226 0.47685,0.09479 0.14406,-0.02784 0.38795,0.03469 0.54195,0.13883 0.1672,0.1131 0.38921,0.14091 0.55105,0.06907 0.14906,-0.06618 0.37655,-0.04899 0.50551,0.03826 0.12898,0.08724 0.35646,0.10446 0.50552,0.03826 0.14907,-0.06618 0.36773,-0.05492 0.48593,0.02503 0.11819,0.07994 0.33277,0.1226 0.47684,0.09478 0.14407,-0.02784 0.35022,0.0091 0.45812,0.08213 0.2535,0.17147 1.0464,0.01841 1.2179,-0.2351 0.0729,-0.10789 0.25055,-0.21892 0.39462,-0.24673 0.17006,-0.03286 0.39945,-0.25386 0.65392,-0.63006 0.31565,-0.46668 0.44964,-0.5774 0.68831,-0.56869 0.23532,0.0086 0.37265,-0.10201 0.66692,-0.53707 l 0.37058,-0.54788 -0.54789,-0.37058 c -0.43506,-0.29427 -0.60368,-0.3458 -0.8189,-0.25024 -0.24303,0.10791 -0.38385,0.04404 -1.363,-0.6183 -0.97922,-0.66232 -1.0909,-0.76924 -1.0812,-1.035 0.006,-0.16298 -0.0784,-0.35669 -0.18743,-0.43044 -0.22162,-0.1499 -0.48512,-1.2107 -0.35094,-1.4128 0.0471,-0.07181 0.21973,-0.12521 0.38272,-0.11926 0.22111,0.0081 0.37265,-0.10201 0.59693,-0.4336 0.23895,-0.35326 0.38987,-0.45385 0.73596,-0.49053 0.23946,-0.02533 0.60132,-0.0876 0.80416,-0.1383 0.20282,-0.05074 0.45605,-0.03317 0.56272,0.03902 0.18813,0.12725 0.45293,0.13678 0.9005,0.03241 0.22399,-0.05226 0.57618,-0.12129 1.5594,-0.30577 0.31499,-0.05911 0.74774,-0.14218 0.96166,-0.1846 0.21392,-0.04245 0.48954,-0.09637 0.61248,-0.11986 0.12294,-0.02351 0.39586,-0.07804 0.60647,-0.1212 0.21061,-0.04313 0.61388,-0.10904 0.89613,-0.14643 0.28227,-0.03735 0.57487,-0.15912 0.65023,-0.27053 0.0754,-0.11142 0.25489,-0.22533 0.39896,-0.25314 0.14408,-0.02784 0.31858,-0.1343 0.38781,-0.23664 0.0692,-0.10235 0.28239,-0.21925 0.47371,-0.25979 1.1976,-0.2538 1.6404,-0.39669 1.7552,-0.56636 0.0714,-0.10558 0.24771,-0.21472 0.39178,-0.24253 0.14407,-0.02784 0.32735,-0.14726 0.4073,-0.26546 0.0799,-0.11819 0.27871,-0.21003 0.4417,-0.20409 0.24054,0.0087 0.37266,-0.10201 0.70156,-0.58827 0.3289,-0.48627 0.46102,-0.59705 0.70156,-0.58828 0.24448,0.0089 0.37265,-0.10201 0.73235,-0.6338 0.29362,-0.43409 0.52155,-0.66112 0.69795,-0.69517 0.15643,-0.0302 0.39169,-0.24238 0.58405,-0.52678 0.31258,-0.46214 0.31262,-0.48262 0.002,-0.69262 -0.17598,-0.11903 -0.43784,-0.19367 -0.5819,-0.16586 -0.17144,0.03309 -0.46668,-0.08791 -0.85447,-0.3502 -0.4797,-0.32447 -0.64412,-0.37787 -0.86355,-0.28044 -0.19879,0.08826 -0.38385,0.04404 -0.69427,-0.16594 -0.23732,-0.16052 -0.53831,-0.26406 -0.6852,-0.2357 -0.19356,0.03735 -0.50376,-0.113 -1.1884,-0.57605 -0.85941,-0.5813 -0.93071,-0.65735 -0.98591,-1.0516 -0.0327,-0.23374 -0.0969,-0.59694 -0.14267,-0.8071 -0.0457,-0.21017 -0.01,-0.49086 0.0803,-0.62376 0.13752,-0.20331 0.10959,-0.27807 -0.1761,-0.4713 -0.22672,-0.15334 -0.42959,-0.18967 -0.61056,-0.10931 -0.14907,0.06618 -0.36774,0.05492 -0.48594,-0.02503 -0.11819,-0.07994 -0.33277,-0.1226 -0.47685,-0.09479 -0.33779,0.06519 -0.94672,-0.34665 -1.0119,-0.68446 -0.0278,-0.14407 -0.13095,-0.31632 -0.22922,-0.38279 -0.0983,-0.06649 -0.23245,-0.37927 -0.29819,-0.69514 -0.0942,-0.45261 -0.0627,-0.6588 0.14861,-0.97312 0.14706,-0.21965 0.2454,-0.5167 0.21759,-0.66077 -0.0278,-0.14407 0.0188,-0.36452 0.1036,-0.48987 0.0848,-0.12536 0.10002,-0.3499 0.0339,-0.49896 -0.11468,-0.25826 -0.044,-0.38385 1.499,-2.6652 1.5431,-2.2813 1.6333,-2.3937 1.9157,-2.3834 0.24448,0.0089 0.37265,-0.102 0.73235,-0.6338 0.29361,-0.43409 0.52156,-0.66112 0.69795,-0.69517 0.14407,-0.02784 0.35933,-0.19455 0.47836,-0.37052 l 0.21641,-0.31995 -0.61759,-0.41773 c -0.41006,-0.27736 -0.63456,-0.50574 -0.66814,-0.67967 -0.0278,-0.14407 -0.13096,-0.31632 -0.22922,-0.38279 -0.23948,-0.16198 -0.45018,-1.2208 -0.2905,-1.4599 0.0695,-0.10505 0.10448,-0.30836 0.0767,-0.45243 -0.0278,-0.14407 0.0188,-0.36451 0.1036,-0.48987 0.0848,-0.12536 0.10001,-0.34989 0.0339,-0.49896 -0.0966,-0.21749 -0.044,-0.38385 0.266,-0.8422 0.31002,-0.45836 0.44487,-0.56905 0.68268,-0.56037 0.19788,0.0068 0.37265,-0.10201 0.52601,-0.32873 l 0.22965,-0.33953 -0.67779,-0.45846 c -0.60602,-0.40991 -0.68268,-0.50456 -0.72392,-0.89383 -0.0254,-0.23946 -0.0876,-0.60132 -0.13831,-0.80415 -0.0507,-0.20283 -0.0332,-0.45606 0.039,-0.56273 0.1391,-0.20566 0.13917,-0.45311 3.8e-4,-1.0667 -0.0471,-0.20814 -0.0197,-0.4759 0.0609,-0.59502 0.0806,-0.11912 0.0923,-0.33854 0.0262,-0.48761 -0.0883,-0.19879 -0.044,-0.38385 0.16593,-0.69427 0.16053,-0.23732 0.26407,-0.53831 0.23572,-0.68518 -0.0362,-0.18742 0.10357,-0.48983 0.49113,-1.0628 0.46538,-0.68804 0.52473,-0.83904 0.42135,-1.0719 -0.068,-0.15322 -0.044,-0.38385 0.0552,-0.53058 0.10907,-0.16126 0.11638,-0.29956 0.0193,-0.36523 -0.0971,-0.06565 -0.22273,-0.0076 -0.33181,0.15385 -0.0992,0.14673 -0.30437,0.25484 -0.4719,0.24874 -0.17969,-0.0068 -0.37266,0.10201 -0.49018,0.27576 -0.11752,0.17375 -0.3105,0.28231 -0.49017,0.27576 -0.20933,-0.0076 -0.37266,0.10201 -0.55621,0.37337 -0.14292,0.2113 -0.37773,0.40694 -0.5218,0.43475 -0.14407,0.02784 -0.32736,0.14727 -0.4073,0.26546 -0.0799,0.1182 -0.27872,0.21004 -0.4417,0.20409 -0.17809,-0.0068 -0.37266,0.10201 -0.48758,0.27192 -0.18474,0.27313 -0.96813,0.53017 -1.1797,0.38707 -0.0547,-0.03697 -0.17298,0.04146 -0.26287,0.17439 -0.0899,0.1329 -0.33585,0.26925 -0.54657,0.303 -0.61999,0.09931 -0.85077,0.1916 -0.98855,0.39529 -0.16843,0.24902 -0.49624,0.30844 -0.75098,0.13614 -0.11113,-0.07516 -0.32132,-0.09777 -0.46707,-0.05021 -0.25238,0.08235 -0.26587,0.07318 -0.2834,-0.19168 -0.0106,-0.15993 -0.15739,-0.37216 -0.34546,-0.49937 -0.27913,-0.18879 -0.35279,-0.18318 -0.50262,0.03834 -0.0992,0.14673 -0.30437,0.25484 -0.47189,0.24874 -0.17095,-0.0061 -0.37266,0.102 -0.47669,0.25581 -0.21299,0.3149 -0.52319,0.3991 -0.7944,0.21566 -0.10722,-0.0725 -0.31282,-0.10911 -0.45689,-0.0813 -0.14407,0.02784 -0.36451,-0.01879 -0.48987,-0.1036 -0.12536,-0.08479 -0.3499,-0.10002 -0.49895,-0.03385 -0.22901,0.10167 -0.38386,0.04404 -0.99847,-0.37169 -0.61461,-0.41572 -0.72575,-0.53799 -0.71662,-0.78837 0.006,-0.16299 -0.0917,-0.36572 -0.21711,-0.45051 -0.12537,-0.08479 -0.25069,-0.27204 -0.2785,-0.41612 -0.0279,-0.14407 -0.13829,-0.32128 -0.24551,-0.3938 -0.26634,-0.18014 -0.30948,-0.50125 -0.10748,-0.79991 0.0926,-0.13692 0.12242,-0.40826 0.0663,-0.603 -0.20312,-0.70419 -0.285,-0.64488 -1.4142,1.0245 -0.97999,1.4489 -1.0777,1.5609 -1.3526,1.5509 -0.26782,-0.0098 -0.37265,0.102 -1.0891,1.1612 -0.71643,1.0592 -0.82126,1.171 -1.0891,1.1612 -0.2546,-0.0093 -0.37266,0.10201 -0.83804,0.79006 -0.37681,0.5571 -0.61802,0.8156 -0.79245,0.84927 -0.13791,0.02663 -0.40129,0.23926 -0.58529,0.47251 -0.44067,0.55861 -0.81684,0.56667 -0.93281,0.02001 -0.045,-0.21234 -0.16078,-0.74926 -0.2572,-1.1931 -0.10919,-0.50271 -0.11457,-0.89685 -0.0142,-1.0452 0.0886,-0.13096 0.1069,-0.36007 0.0407,-0.50913 -0.0662,-0.14907 -0.0549,-0.36774 0.025,-0.48593 0.0799,-0.11819 0.1226,-0.33277 0.0948,-0.47684 -0.0288,-0.14945 0.0762,-0.44931 0.24452,-0.69822 0.21878,-0.32345 0.26396,-0.50636 0.17475,-0.7073 -0.0897,-0.20198 -0.044,-0.38384 0.17919,-0.71386 0.22321,-0.33001 0.26886,-0.51187 0.17918,-0.71386 -0.0838,-0.18865 -0.044,-0.38385 0.13071,-0.64218 0.13808,-0.20414 0.2283,-0.48904 0.20048,-0.6331 -0.0288,-0.14945 0.0762,-0.44932 0.24452,-0.69822 0.21878,-0.32345 0.26397,-0.50636 0.17476,-0.7073 -0.0883,-0.19879 -0.044,-0.38384 0.16593,-0.69427 0.16052,-0.23732 0.26406,-0.53831 0.2357,-0.68518 -0.0288,-0.14945 0.0762,-0.44932 0.24453,-0.69822 0.21878,-0.32345 0.26397,-0.50636 0.17475,-0.7073 -0.0662,-0.14907 -0.0549,-0.36773 0.025,-0.48593 0.08,-0.11819 0.12261,-0.33277 0.0948,-0.47684 -0.0278,-0.14407 0.0188,-0.36451 0.10361,-0.48987 0.0848,-0.12536 0.10001,-0.34989 0.0339,-0.49896 -0.0662,-0.14907 -0.06,-0.36036 0.0139,-0.46955 0.0739,-0.10918 0.0845,-0.47843 0.0236,-0.82056 -0.0609,-0.34212 -0.0396,-0.7271 0.0472,-0.85551 0.0869,-0.12841 0.10377,-0.35543 0.0376,-0.5045 -0.068,-0.15322 -0.044,-0.38384 0.0552,-0.53057 0.0965,-0.14275 0.13183,-0.28911 0.0784,-0.32526 -0.0534,-0.03613 -0.0635,-0.1796 -0.0224,-0.31878 0.0514,-0.17397 -0.0167,-0.31495 -0.21794,-0.45107 -0.16101,-0.1089 -0.30354,-0.30779 -0.31673,-0.44197 -0.0371,-0.37783 -0.2892,-0.47032 -0.48655,-0.17855 -0.0992,0.14672 -0.30437,0.25484 -0.4719,0.24874 -0.20932,-0.0076 -0.37265,0.10201 -0.5562,0.37337 -0.14292,0.2113 -0.37773,0.40694 -0.5218,0.43475 -0.14407,0.02784 -0.34321,0.17071 -0.44253,0.31755 -0.10428,0.15417 -0.30581,0.26242 -0.47693,0.25618 -0.16299,-0.0061 -0.36339,0.08831 -0.44533,0.20945 -0.17887,0.26445 -1.1003,0.37997 -1.4022,0.17579 -0.1184,-0.0801 -0.33725,-0.09147 -0.48631,-0.02526 -0.14907,0.06618 -0.37655,0.04899 -0.50552,-0.03826 -0.12897,-0.08723 -0.35645,-0.10444 -0.50552,-0.03826 -0.19878,0.08826 -0.38384,0.04405 -0.69426,-0.16594 -0.23732,-0.16052 -0.53831,-0.26406 -0.68519,-0.2357 -0.33281,0.06428 -0.53102,-0.06983 -0.59526,-0.40263 -0.0278,-0.14407 -0.1383,-0.32128 -0.24552,-0.3938 -0.26633,-0.18015 -0.30948,-0.50125 -0.10747,-0.79991 0.1658,-0.24514 0.0739,-0.87798 -0.15099,-1.04 -0.0633,-0.04557 -0.22104,-0.05203 -0.35049,-0.01438 -0.1551,0.04519 -0.42387,-0.05895 -0.78811,-0.30532 -0.35243,-0.23838 -0.57106,-0.46879 -0.60331,-0.63581 -0.0278,-0.14407 -0.14727,-0.32736 -0.26547,-0.4073 -0.11819,-0.07994 -0.21003,-0.27871 -0.20409,-0.4417 0.006,-0.16299 -0.0917,-0.36573 -0.21712,-0.45051 -0.12535,-0.0848 -0.25067,-0.27204 -0.27848,-0.41612 -0.0284,-0.14688 -0.23649,-0.3877 -0.47381,-0.54822 -0.31042,-0.20996 -0.42036,-0.36526 -0.41243,-0.58262 0.006,-0.16299 -0.0947,-0.36772 -0.22368,-0.45495 -0.12897,-0.08723 -0.22962,-0.29196 -0.22368,-0.45495 0.006,-0.16299 -0.0918,-0.36573 -0.21712,-0.45051 -0.12536,-0.0848 -0.25068,-0.27204 -0.27849,-0.41612 -0.0278,-0.14407 -0.14727,-0.32736 -0.26547,-0.4073 -0.11819,-0.07994 -0.21003,-0.27871 -0.20408,-0.4417 0.006,-0.16299 -0.0918,-0.36572 -0.21713,-0.45051 -0.12536,-0.08479 -0.25068,-0.27204 -0.27849,-0.41611 -0.0278,-0.14407 -0.16248,-0.33765 -0.29926,-0.43016 -0.1533,-0.10368 -0.27793,-0.39183 -0.32489,-0.75115 -0.0419,-0.32061 -0.17354,-0.64878 -0.29253,-0.72926 -0.11899,-0.08048 -0.21148,-0.27969 -0.20553,-0.44268 0.006,-0.16299 -0.0947,-0.36772 -0.22368,-0.45495 -0.12897,-0.08723 -0.22963,-0.29196 -0.22368,-0.45495 0.006,-0.17695 -0.10201,-0.37266 -0.26921,-0.48575 -0.154,-0.10416 -0.30277,-0.30726 -0.33057,-0.45134 -0.0278,-0.14407 -0.14727,-0.32736 -0.26547,-0.40731 -0.11819,-0.07994 -0.21003,-0.27871 -0.20409,-0.4417 0.006,-0.16299 -0.0918,-0.36573 -0.21711,-0.45051 -0.12537,-0.0848 -0.25069,-0.27204 -0.2785,-0.41612 -0.0284,-0.14688 -0.23649,-0.3877 -0.47381,-0.54822 -0.31042,-0.20996 -0.42036,-0.36527 -0.41243,-0.58262 0.008,-0.22085 -0.10201,-0.37266 -0.43201,-0.59587 -0.33001,-0.22321 -0.44008,-0.37502 -0.43202,-0.59587 0.006,-0.16299 -0.0482,-0.33628 -0.12039,-0.38508 -0.19429,-0.1314 -0.8595,0.89723 -0.7953,1.2298 0.0288,0.14944 -0.0762,0.44931 -0.24452,0.69822 -0.21877,0.32345 -0.26397,0.50635 -0.17475,0.7073 0.0977,0.21999 0.044,0.38385 -0.28487,0.87011 -0.32891,0.48626 -0.38255,0.65012 -0.28488,0.87011 0.1067,0.24033 0.044,0.38384 -0.55347,1.2672 -0.50499,0.7466 -0.66113,1.0618 -0.62323,1.2581 0.0376,0.19482 -0.11532,0.50719 -0.59682,1.2191 -0.57108,0.8443 -0.6332,0.98906 -0.52705,1.2281 0.0988,0.22262 0.044,0.38385 -0.30686,0.90261 -0.28578,0.42251 -0.41046,0.71829 -0.37663,0.89353 0.0376,0.19482 -0.11531,0.50719 -0.59681,1.2191 -0.57108,0.8443 -0.63321,0.98906 -0.52705,1.2281 0.11364,0.25597 0.044,0.38385 -1.2524,2.3006 -1.2965,1.9167 -1.3892,2.029 -1.6691,2.0188 -0.17095,-0.0061 -0.37266,0.102 -0.47668,0.25581 -0.27192,0.402 -0.53897,0.38844 -1.2036,-0.06116 l -0.60419,-0.40866 -0.65666,0.97083 c -0.5892,0.8711 -0.69628,0.97752 -1.0423,1.0359 -0.21209,0.03575 -0.58408,0.10594 -0.82665,0.15592 -1.1027,0.22721 -1.1276,0.22488 -1.6934,-0.15781 -0.35059,-0.23714 -0.64584,-0.35409 -0.81261,-0.3219 -0.17393,0.03355 -0.46947,-0.08979 -0.87953,-0.36716 -0.52152,-0.35276 -0.637,-0.38903 -0.74237,-0.23324 -0.11918,0.1762 -0.0991,0.38161 0.13868,1.4224 0.058,0.25377 0.0465,0.54852 -0.0255,0.65498 -0.17109,0.25294 0.35458,2.9805 0.60738,3.1515 0.10708,0.07242 0.226,0.33129 0.26427,0.57522 0.18109,1.1547 0.42038,2.0135 0.59365,2.1307 0.14054,0.09507 0.33036,0.83344 0.64936,2.526 0.48927,2.5959 0.56599,3.1419 0.46294,3.2942 -0.1172,0.17327 -0.12377,0.44512 -0.0214,0.8842 0.20287,0.86998 0.2301,1.0519 0.17062,1.1399 -0.037,0.05469 0.0502,0.17888 0.19376,0.27598 0.3044,0.2059 0.78129,2.2326 0.54981,2.3367 -0.0876,0.03941 -0.62121,-0.25936 -1.3793,-0.7721 -0.96018,-0.64945 -1.2478,-0.89485 -1.287,-1.0983 -0.0379,-0.19632 -0.30014,-0.43076 -1.0467,-0.93575 -0.88336,-0.59749 -0.99495,-0.70736 -0.98537,-0.97015 0.006,-0.16299 -0.0867,-0.36227 -0.20578,-0.44284 -0.11912,-0.08057 -0.24017,-0.31618 -0.26901,-0.52357 -0.0288,-0.20739 -0.1069,-0.51458 -0.17348,-0.68264 -0.0666,-0.16806 -0.0912,-0.40674 -0.0546,-0.53038 0.0488,-0.1652 -0.0422,-0.2983 -0.34322,-0.50191 -0.36431,-0.24642 -0.4286,-0.24909 -0.58077,-0.02412 -0.0941,0.13914 -0.289,0.27574 -0.43307,0.30355 -0.18665,0.03606 -0.41509,0.277 -0.79482,0.8384 -0.45658,0.67502 -0.57533,0.78629 -0.82924,0.77703 -0.16299,-0.0061 -0.36571,0.09176 -0.45051,0.21711 -0.0848,0.12536 -0.27204,0.25068 -0.41611,0.2785 -0.14407,0.02784 -0.33399,0.15709 -0.42206,0.28729 -0.21311,0.31506 -2.3157,0.69146 -2.6394,0.4725 -0.12833,-0.0868 -0.35529,-0.10366 -0.50436,-0.0375 -0.22581,0.10026 -0.38384,0.04405 -0.94725,-0.33706 -0.59404,-0.4018 -0.69244,-0.43342 -0.80961,-0.26019 -0.0733,0.10845 -0.0762,0.2791 -0.006,0.3792 0.11738,0.16806 0.10483,0.187 -0.16366,0.24715 -0.15994,0.03583 -0.49839,0.11262 -0.75213,0.17063 l -0.46133,0.1055 -1.8629,-1.26 c -1.517,-1.0261 -1.8723,-1.3087 -1.9134,-1.522 -0.0278,-0.14407 -0.14727,-0.32736 -0.26547,-0.4073 -0.11819,-0.07995 -0.21003,-0.27872 -0.20409,-0.4417 0.006,-0.16299 -0.0894,-0.36411 -0.21181,-0.44692 -0.12243,-0.08282 -0.23341,-0.26036 -0.2466,-0.39454 -0.0132,-0.13419 -0.11201,-0.30351 -0.21958,-0.37627 -0.29452,-0.19921 -0.91727,0.74445 -0.74594,1.1303 0.0897,0.20198 0.044,0.38385 -0.1792,0.71386 -0.22321,0.33001 -0.26886,0.51188 -0.17918,0.71386 0.0662,0.14906 0.0549,0.36773 -0.025,0.48592 -0.0799,0.1182 -0.12261,0.33277 -0.0948,0.47684 0.0278,0.14407 -0.0188,0.36452 -0.10359,0.48987 -0.0848,0.12536 -0.10002,0.3499 -0.0339,0.49896 0.0681,0.15328 0.044,0.38384 -0.0553,0.53072 -0.11794,0.17438 -0.11759,0.5109 7.6e-4,1.0243 0.19207,0.83088 0.20129,0.87851 0.5651,2.9205 0.16976,0.95276 0.32307,1.4378 0.49019,1.5508 0.14952,0.10113 0.25387,0.35291 0.27095,0.65374 0.0153,0.26909 0.0521,0.58439 0.0819,0.70066 0.18164,0.70957 0.23345,1.047 0.1742,1.1346 -0.037,0.0547 0.064,0.18821 0.22442,0.29672 0.338,0.22862 0.42852,0.53371 0.24073,0.81135 -0.0725,0.10722 -0.10911,0.31283 -0.0813,0.4569 0.0716,0.37068 -1.0184,1.9821 -1.3891,2.0536 -0.14407,0.02784 -0.33714,0.16173 -0.42904,0.2976 -0.2149,0.31772 -0.51927,0.37321 -0.84363,0.15382 -0.31219,-0.21116 -0.82405,-0.15741 -1.0017,0.10517 -0.12165,0.17986 -0.007,0.27553 1.7897,1.4907 1.5675,1.0602 1.929,1.3465 1.9703,1.5604 0.0284,0.14688 0.23649,0.3877 0.47381,0.54822 0.31042,0.20997 0.42035,0.36527 0.41243,0.58263 -0.008,0.22085 0.102,0.37266 0.43201,0.59586 0.33001,0.22322 0.44008,0.37502 0.43202,0.59587 -0.008,0.21972 0.10201,0.37266 0.42547,0.59144 0.24889,0.16835 0.45798,0.40759 0.48683,0.55703 0.0278,0.14407 0.20461,0.36614 0.39289,0.49349 0.19878,0.13446 0.37322,0.37745 0.41599,0.57949 0.0405,0.19136 0.1892,0.85894 0.33041,1.4835 l 0.25676,1.1356 -0.45805,0.67722 c -0.26233,0.38782 -0.54762,0.6945 -0.66763,0.71767 -0.11864,0.0229 -0.49428,-0.15214 -0.86583,-0.40344 l -0.65627,-0.4439 -0.26489,0.39162 c -0.18858,0.27881 -0.23022,0.4697 -0.14456,0.66265 0.0662,0.14907 0.049,0.37655 -0.0383,0.50552 -0.0872,0.12896 -0.10445,0.35644 -0.0383,0.50551 0.0662,0.14907 0.0733,0.34055 0.0158,0.42552 -0.0574,0.08497 -0.23785,0.14963 -0.40084,0.14368 -0.16299,-0.0061 -0.36771,0.09472 -0.45495,0.22368 -0.0872,0.12897 -0.29195,0.22962 -0.45495,0.22368 -0.16299,-0.0061 -0.36572,0.09176 -0.45051,0.21712 -0.0848,0.12536 -0.27204,0.25068 -0.41611,0.2785 -0.14407,0.02784 -0.33401,0.15709 -0.42207,0.28729 -0.10661,0.15762 -0.54424,0.29833 -1.3096,0.42108 -0.63226,0.1014 -1.3072,0.21188 -1.4999,0.24551 -0.19269,0.03362 -0.43876,0.0015 -0.54683,-0.07174 -0.25937,-0.17543 -0.77755,-0.09479 -0.94069,0.1464 -0.18922,0.27975 0.45159,0.6948 0.8201,0.53118 0.19879,-0.08826 0.38386,-0.04404 0.69428,0.16594 0.23732,0.16052 0.5383,0.26406 0.68518,0.2357 0.14407,-0.02784 0.43483,0.06641 0.64613,0.20929 0.27136,0.18355 0.46377,0.22452 0.65521,0.13952 0.19878,-0.08826 0.38385,-0.04404 0.69427,0.16594 0.23732,0.16052 0.53831,0.26406 0.68519,0.2357 0.14944,-0.02883 0.44931,0.07617 0.69821,0.24452 0.32345,0.21878 0.50635,0.26397 0.7073,0.17475 0.19878,-0.08826 0.38384,-0.04404 0.69427,0.16594 0.23731,0.16052 0.5383,0.26406 0.68518,0.2357 0.18741,-0.03621 0.48982,0.10357 1.0628,0.49113 0.68805,0.46539 0.83904,0.52474 1.0719,0.42136 0.24494,-0.10875 0.38385,-0.04404 1.443,0.6724 1.0592,0.71643 1.1981,0.78116 1.443,0.6724 0.22899,-0.10167 0.38385,-0.04404 0.99846,0.37169 0.61461,0.41572 0.72575,0.53799 0.71661,0.78837 -0.006,0.163 0.0865,0.36216 0.2054,0.44259 0.11891,0.08043 0.25048,0.40855 0.29238,0.72916 0.0469,0.35905 0.17162,0.64748 0.32466,0.75099 0.35363,0.23919 0.37008,0.52702 0.0566,0.99047 -0.15003,0.22181 -0.25003,0.52117 -0.22222,0.66523 0.0278,0.14407 -0.0558,0.41932 -0.18598,0.61166 -0.13009,0.19234 -0.35441,0.37247 -0.49848,0.40028 -0.14407,0.02784 -0.32736,0.14726 -0.4073,0.26546 -0.0799,0.11819 -0.27871,0.21003 -0.4417,0.20409 -0.16299,-0.0061 -0.36772,0.09471 -0.45495,0.22368 -0.0872,0.12896 -0.29196,0.22962 -0.45495,0.22367 -0.16299,-0.0061 -0.35213,0.07166 -0.42032,0.17248 -0.18699,0.27646 0.56439,0.75519 0.93031,0.59272 z" id="SVGCleanerId_0"/>
 </defs>
 <g inkscape:label="Layer 1" inkscape:groupmode="layer" transform="matrix(1 0 0 1 0 -956.36)">
  <rect x="8.751" rx="10.769" y="964.14" fill="url(#linearGradient5160)" fill-opacity="1" stroke="none" height="80" width="80"/>
  <path d="m 8.75125,1031.3354 0,2.0133 c 0,5.966 4.793063,10.7905 10.758946,10.7905 l 58.450649,0 c 5.965883,0 10.790405,-4.8245 10.790405,-10.7905 l 0,-2.0133 c 0,5.9659 -4.824522,10.7904 -10.790405,10.7904 l -58.450649,0 c -5.965883,0 -10.758946,-4.8245 -10.758946,-10.7904 z" fill="#000000" fill-opacity="1" stroke="none" opacity="0.3" inkscape:connector-curvature="0"/>
  <g fill="#800000" transform="matrix(0.71349 0 0 0.71349 -55.945 963.54)">
   <use xlink:href="#SVGCleanerId_0" inkscape:connector-curvature="0"/>
   <use xlink:href="#SVGCleanerId_0" inkscape:connector-curvature="0"/>
  </g>
 </g>
</svg>
