<svg height="96" width="96" xmlns="http://www.w3.org/2000/svg" xmlns:sodipodi="http://sodipodi.sourceforge.net/DTD/sodipodi-0.dtd" xmlns:inkscape="http://www.inkscape.org/namespaces/inkscape">
 <defs>
  <linearGradient x2="0" y1="90" y2="5.988" gradientUnits="userSpaceOnUse" id="linearGradient3617" gradientTransform="matrix(1 0 0 1 0 -96)">
   <stop stop-color="#fdb245"/>
   <stop stop-color="#f57900" offset="1"/>
  </linearGradient>
  <clipPath id="clipPath4000">
   <rect x="36" rx="6" y="-90" height="84" width="84" transform="matrix(1 0 0 -1 0 0)"/>
  </clipPath>
  <radialGradient cy="48" r="42" gradientUnits="userSpaceOnUse" id="radialGradient4004" cx="48" gradientTransform="matrix(1 0 0 1 30 0)">
   <stop stop-color="#a4c1e0"/>
   <stop stop-color="#3465a4" offset="1"/>
  </radialGradient>
  <linearGradient x2="0" y1="-1.478" y2="20.914" gradientUnits="userSpaceOnUse" id="linearGradient3978" gradientTransform="matrix(2.3333 0 0 2.4511 -3.333 -3.737)">
   <stop stop-color="#fff"/>
   <stop stop-color="#fff" stop-opacity="0" offset="1"/>
  </linearGradient>
  <clipPath clipPathUnits="userSpaceOnUse" id="clipPath3822">
   <rect x="6" rx="22.826" y="6" height="84" width="84"/>
  </clipPath>
  <clipPath clipPathUnits="userSpaceOnUse" id="clipPath3009">
   <path d="m-2 956.36h-96v33.562l96 25.687v-59.25z"/>
  </clipPath>
 </defs>
 <g transform="matrix(1 0 0 1 0 -956.36)">
  <g clip-path="url(#clipPath3822)" transform="matrix(1.0952 0 0 1.0952 -4.571 951.79)">
   <rect x="6" rx="6" y="-90" fill="url(#linearGradient3617)" height="84" width="84" transform="matrix(1 0 0 -1 0 0)"/>
   <g clip-path="url(#clipPath4000)" transform="matrix(1 0 0 1 -30 0)">
    <path d="m61.812 6c-10.565 7.4797-17.814 19.08-17.219 33.062 0.61551 14.47 12.417 28.991 28.5 27.25 9.1883-0.99477 16.536-9.73 11.844-17.188-1.4905-2.369-5.1102-2.5732-6.8125-1.4375 8.1795-0.23077 4.1866 9.5126-3 11-9.8172 2.0318-17.351-7.4544-18.031-16.281-1.2708-16.495 14.681-28.178 29.938-28.125 14.389 0.05043 26.06 8.2959 32.969 19.75v-22.03c0-3.324-2.676-6-6-6h-52.188zm24.031 23.531c-0.47014-0.006-0.95892 0.0088-1.4375 0.03125-0.49402 0.02315-0.99741 0.07059-1.5 0.125-9.1883 0.99477-16.536 9.73-11.844 17.188 1.4905 2.369 5.1102 2.5732 6.8125 1.4375-8.1795 0.23077-4.1866-9.5126 3-11 9.8172-2.0318 17.351 7.4544 18.031 16.281 1.2708 16.495-14.681 28.178-29.938 28.125-14.387-0.051-26.058-8.296-32.967-19.75v22.031c0 3.324 2.676 6 6 6h52.188c10.562-7.48 17.812-19.08 17.222-33.062-0.58-13.58-10.99-27.22-25.566-27.407z" fill="url(#radialGradient4004)"/>
    <path d="m87.031 14.281c-14.887-0.05217-30.435 11.074-30 26.938 0.2294-15.328 15.429-25.989 30-25.938 14.389 0.05043 26.06 8.2959 32.969 19.75v-1c-6.909-11.454-18.58-19.7-32.969-19.75zm-3.4688 22.75c-0.87646-0.0019-1.7671 0.09076-2.6875 0.28125-4.6524 0.96289-7.9604 5.3756-7.5 8.3125 0.2901-2.8549 3.3492-6.4534 7.5-7.3125 9.8172-2.0318 17.351 7.4544 18.031 16.281 0.03081 0.39995 0.05168 0.79331 0.0625 1.1875 0.01079-0.72085-0.0054-1.4466-0.0625-2.1875-0.616-7.999-6.871-16.543-15.344-16.562zm-38.968 2.031c0.0053 0.33408-0.01433 0.66313 0 1 0.61551 14.47 12.417 28.991 28.5 27.25 7.4525-0.80684 13.692-6.6958 13.281-12.875-0.28988 5.7949-6.2402 11.113-13.281 11.875-16.083 1.7412-27.884-12.78-28.5-27.25zm25.031 3.532c-0.08184 1.7576 0.34734 3.5485 1.4375 5.2812 1.4905 2.369 5.1102 2.5732 6.8125 1.4375-1.0224 0.02885-1.8404-0.09651-2.5-0.34375-1.6071 0.0092-3.381-0.61311-4.3125-2.0938-0.87972-1.3983-1.3371-2.8526-1.4375-4.2812zm11 5.4375c-0.96424 0.0055-1.8616 0.23036-2.5 0.65625 2.8117-0.07933 4.2003 1.0251 4.5 2.5625 0.1032-1.4159-0.47597-2.6475-2-3.2188zm30.815 11.656c-0.4 12.752-7.39 23.329-17.252 30.312h-52.188c-3.324 0-6-2.676-6-6v1c0 3.324 2.676 6 6 6h52.188c10.12-7.1643 17.194-18.115 17.25-31.312z" fill="#fff" opacity="0.3"/>
    <path d="m31.812 5c-10.119 7.164-17.193 18.115-17.25 31.312 0.398-12.752 7.386-23.329 17.25-30.312h52.188c3.324 0 6 2.676 6 6v-1c0-3.324-2.676-6-6-6h-52.188zm24.031 23.531c-0.47014-0.006-0.95892 0.0088-1.4375 0.03125-0.49402 0.02315-0.99741 0.07059-1.5 0.125-7.4525 0.80684-13.692 6.6958-13.281 12.875 0.28988-5.7949 6.2402-11.113 13.281-11.875 0.50259-0.05441 1.006-0.10185 1.5-0.125 0.47858-0.02245 0.96736-0.03725 1.4375-0.03125 14.574 0.1864 24.985 13.826 25.562 27.406-0.0053-0.33408 0.01433-0.66313 0-1-0.576-13.579-10.987-27.219-25.561-27.406zm-28.812 11.688c-0.01079 0.72085 0.0054 1.4466 0.0625 2.1875 0.68003 8.8269 8.2141 18.313 18.031 16.281 4.6524-0.96289 7.9604-5.3756 7.5-8.3125-0.2901 2.8549-3.3492 6.4534-7.5 7.3125-9.8172 2.0318-17.351-7.4544-18.031-16.281-0.03081-0.39995-0.05168-0.79331-0.0625-1.1875zm16.344 4.531c-0.1032 1.4159 0.47597 2.6475 2 3.2188 0.96424-0.0055 1.8616-0.23036 2.5-0.65625-2.8117 0.07933-4.2003-1.0251-4.5-2.5625zm7.25 1.2812c-0.96424 0.0055-1.8616 0.23036-2.5 0.65625 1.0224-0.02885 1.8404 0.09651 2.5 0.34375 1.6071-0.0092 3.381 0.61311 4.3125 2.0938 0.87972 1.3983 1.3371 2.8526 1.4375 4.2812 0.08184-1.7576-0.34734-3.5485-1.4375-5.2812-0.93154-1.4806-2.7054-2.103-4.3125-2.0938zm18.344 8.75c-0.2294 15.328-15.429 25.989-30 25.938-14.389-0.051-26.06-8.296-32.969-19.75v1c6.909 11.454 18.58 19.7 32.969 19.75 14.887 0.05217 30.435-11.074 30-26.938z" fill="#ce5c00" transform="matrix(1 0 0 1 30 0)"/>
    <path d="m31.812 6c-10.119 7.164-17.193 18.115-17.25 31.312 0.398-12.752 7.386-23.329 17.25-30.312l2.0182-1zm24.031 23.531c-0.47014-0.006-0.95892 0.0088-1.4375 0.03125-0.49402 0.02315-0.99741 0.07059-1.5 0.125-7.4525 0.80684-13.692 6.6958-13.281 12.875 0.28988-5.7949 6.2402-11.113 13.281-11.875 0.50259-0.05441 1.006-0.10185 1.5-0.125 0.47858-0.02245 0.96736-0.03725 1.4375-0.03125 14.574 0.1864 24.985 13.826 25.562 27.406-0.0053-0.33408 0.01433-0.66313 0-1-0.576-13.579-10.987-27.219-25.561-27.406zm-28.812 11.688c-0.01079 0.72085 0.0054 1.4466 0.0625 2.1875 0.68003 8.8269 8.2141 18.313 18.031 16.281 4.6524-0.96289 7.9604-5.3756 7.5-8.3125-0.2901 2.8549-3.3492 6.4534-7.5 7.3125-9.8172 2.0318-17.351-7.4544-18.031-16.281-0.03081-0.39995-0.05168-0.79331-0.0625-1.1875zm16.344 4.531c-0.1032 1.4159 0.47597 2.6475 2 3.2188 0.96424-0.0055 1.8616-0.23036 2.5-0.65625-2.8117 0.07933-4.2003-1.0251-4.5-2.5625zm7.25 1.2812c-0.96424 0.0055-1.8616 0.23036-2.5 0.65625 1.0224-0.02885 1.8404 0.09651 2.5 0.34375 1.6071-0.0092 3.381 0.61311 4.3125 2.0938 0.87972 1.3983 1.3371 2.8526 1.4375 4.2812 0.08184-1.7576-0.34734-3.5485-1.4375-5.2812-0.93154-1.4806-2.7054-2.103-4.3125-2.0938zm18.344 8.75c-0.2294 15.328-15.429 25.989-30 25.938-14.389-0.051-26.06-8.296-32.969-19.75v1c6.909 11.454 18.58 19.7 32.969 19.75 14.887 0.05217 30.435-11.074 30-26.938z" opacity="0.3" transform="matrix(1 0 0 1 30 0)"/>
   </g>
   <path d="m12 6c-3.324 0-6 2.676-6 6v23c9.2974 2.8578 34.541 6.7296 55.5 4.9062 9.117-0.793 19.861-3.055 28.5-6.031v-21.875c0-3.324-2.676-6-6-6h-72z" fill="url(#linearGradient3978)" color="#000000" fill-rule="evenodd" opacity="0.743"/>
  </g>
  <rect x="-96" rx="25" y="958.36" clip-path="url(#clipPath3009)" fill="#fff" height="92" opacity="0.15" width="92" transform="matrix(1 0 0 1 98 0)"/>
 </g>
</svg>
