<svg height="96" width="96" xmlns="http://www.w3.org/2000/svg" xmlns:sodipodi="http://sodipodi.sourceforge.net/DTD/sodipodi-0.dtd" xmlns:inkscape="http://www.inkscape.org/namespaces/inkscape">
 <g inkscape:label="Layer 1" inkscape:groupmode="layer" transform="matrix(1 0 0 1 -0.751 -956.14)">
  <rect x="8.751" rx="10.769" y="964.14" fill="#e6e6e6" fill-opacity="1" stroke="none" height="80" width="80"/>
  <rect x="8.751" stroke-width="1.5" display="inline" y="1017.48" fill="#08a" color="black" fill-opacity="1" fill-rule="nonzero" stroke="none" height="13.333" visibility="visible" width="80"/>
  <g fill="#666" fill-opacity="1" stroke="none" transform="matrix(0.8642 0 0 0.8642 2.381 958.87)">
   <path d="m 28.532227,15.902344 -0.726563,0 0,-5.710938 2.964844,0 0,0.640625 -2.238281,0 0,2.015625 2.089843,0 0,0.640625 -2.089843,0 0,2.414063" inkscape:connector-curvature="0"/>
   <path d="m 32.356445,15.902344 -0.710937,0 0,-4.289063 0.710937,0 0,4.289063 M 31.59082,10.453125 c 0,-0.156244 0.03906,-0.269526 0.117188,-0.339844 0.08073,-0.07031 0.179686,-0.105463 0.296875,-0.105468 0.05729,5e-6 0.110676,0.0091 0.160156,0.02734 0.05208,0.01563 0.09635,0.04167 0.132813,0.07813 0.03906,0.03646 0.06901,0.08334 0.08984,0.140625 0.02344,0.05469 0.03515,0.1211 0.03516,0.199219 -2e-6,0.151047 -0.04167,0.264328 -0.125,0.339844 -0.08073,0.07292 -0.178387,0.10938 -0.292969,0.109375 -0.117189,5e-6 -0.216147,-0.03645 -0.296875,-0.109375 -0.07813,-0.07291 -0.117188,-0.186193 -0.117188,-0.339844" inkscape:connector-curvature="0"/>
   <path d="m 34.43457,15.902344 -0.710937,0 0,-6.0781252 0.710937,0 0,6.0781252" inkscape:connector-curvature="0"/>
   <path d="m 37.49707,15.980469 c -0.28646,0 -0.548179,-0.04818 -0.785156,-0.144531 -0.23698,-0.09636 -0.441407,-0.236979 -0.613281,-0.421875 -0.169272,-0.184896 -0.300782,-0.414062 -0.394531,-0.6875 -0.09375,-0.273437 -0.140626,-0.585936 -0.140625,-0.9375 -10e-7,-0.354165 0.04297,-0.670571 0.128906,-0.949219 0.08594,-0.278643 0.20703,-0.51432 0.363281,-0.707031 0.156249,-0.195309 0.342447,-0.343746 0.558594,-0.445313 0.218748,-0.101558 0.459633,-0.152339 0.722656,-0.152344 0.25781,5e-6 0.489581,0.04688 0.695313,0.140625 0.205726,0.09115 0.380205,0.221358 0.523437,0.390625 0.143226,0.166671 0.252601,0.368493 0.328125,0.605469 0.07812,0.234378 0.117184,0.494794 0.117188,0.78125 l 0,0.441406 -2.703125,0 c 0.01302,0.502606 0.118488,0.872397 0.316406,1.109375 0.200519,0.23698 0.497394,0.35547 0.890625,0.355469 0.13281,10e-7 0.255206,-0.0065 0.367187,-0.01953 0.114581,-0.01302 0.223956,-0.03125 0.328125,-0.05469 0.106768,-0.02604 0.209632,-0.05729 0.308594,-0.09375 0.09895,-0.03906 0.199215,-0.08203 0.300781,-0.128906 l 0,0.632813 c -0.10417,0.04948 -0.207034,0.09245 -0.308593,0.128906 -0.09896,0.03646 -0.201827,0.06641 -0.308594,0.08984 -0.10417,0.02344 -0.213545,0.04036 -0.328125,0.05078 -0.111982,0.01042 -0.234378,0.01563 -0.367188,0.01563 M 37.321289,12.125 c -0.296877,4e-6 -0.532554,0.101566 -0.707031,0.304688 -0.171877,0.203128 -0.272137,0.4987 -0.300781,0.886718 l 1.921875,0 c -4e-6,-0.17708 -0.01823,-0.338538 -0.05469,-0.484375 -0.03386,-0.148434 -0.08855,-0.274736 -0.164062,-0.378906 -0.07292,-0.104163 -0.16667,-0.184892 -0.28125,-0.242187 -0.114586,-0.05729 -0.252607,-0.08593 -0.414063,-0.08594" inkscape:connector-curvature="0"/>
   <path d="m 44.618164,15.902344 -1.730469,-5 -0.03125,0 c 0.01562,0.192713 0.02864,0.384119 0.03906,0.574219 0.01042,0.164066 0.01823,0.337243 0.02344,0.519531 0.0078,0.179691 0.01172,0.343753 0.01172,0.492187 l 0,3.414063 -0.671875,0 0,-5.710938 1.078125,0 1.609375,4.65625 0.02344,0 1.617187,-4.65625 1.078125,0 0,5.710938 -0.726562,0 0,-3.464844 c -6e-6,-0.135413 0.0026,-0.290361 0.0078,-0.464844 0.0052,-0.174475 0.01171,-0.341141 0.01953,-0.5 0.01041,-0.184891 0.01953,-0.372391 0.02734,-0.5625 l -0.03125,0 -1.746094,4.992188 -0.597656,0" inkscape:connector-curvature="0"/>
   <path d="m 51.547852,15.902344 -0.144532,-0.59375 -0.03125,0 c -0.08594,0.117188 -0.171877,0.21875 -0.257812,0.304687 -0.08594,0.08333 -0.17969,0.152344 -0.28125,0.207032 -0.101565,0.05469 -0.214846,0.09505 -0.339844,0.121093 -0.125002,0.02604 -0.269533,0.03906 -0.433594,0.03906 -0.179689,0 -0.345053,-0.02604 -0.496093,-0.07813 -0.151043,-0.04948 -0.282553,-0.126302 -0.394532,-0.230469 -0.109375,-0.10677 -0.195313,-0.239583 -0.257812,-0.398437 -0.0625,-0.161458 -0.09375,-0.351562 -0.09375,-0.570313 -10e-7,-0.427082 0.149739,-0.755206 0.449219,-0.984375 0.302082,-0.229164 0.760415,-0.354164 1.375,-0.375 l 0.71875,-0.02734 0,-0.269531 c -3e-6,-0.174476 -0.01953,-0.320309 -0.05859,-0.4375 -0.03646,-0.117184 -0.09115,-0.210934 -0.164063,-0.28125 -0.07032,-0.07291 -0.158856,-0.124996 -0.265625,-0.15625 -0.104169,-0.03125 -0.22396,-0.04687 -0.359375,-0.04687 -0.216147,4e-6 -0.41797,0.03125 -0.605468,0.09375 -0.184898,0.0625 -0.363283,0.138024 -0.535157,0.226563 l -0.25,-0.535157 c 0.192708,-0.104162 0.407551,-0.192704 0.644532,-0.265625 0.236977,-0.07291 0.485675,-0.10937 0.746093,-0.109375 0.265623,5e-6 0.494789,0.02735 0.6875,0.08203 0.19531,0.05209 0.355466,0.136722 0.480469,0.253906 0.127601,0.114587 0.222653,0.261722 0.285156,0.441406 0.0625,0.179691 0.09375,0.397139 0.09375,0.652344 l 0,2.9375 -0.511718,0 M 50.243164,15.40625 c 0.158852,0 0.305988,-0.02474 0.441406,-0.07422 0.135415,-0.04948 0.252602,-0.123697 0.351563,-0.222656 0.09896,-0.101562 0.175778,-0.227864 0.230469,-0.378906 0.05729,-0.153645 0.08593,-0.333332 0.08594,-0.539063 l 0,-0.386718 -0.558594,0.02734 c -0.234377,0.01042 -0.430991,0.03646 -0.589843,0.07813 -0.158856,0.04167 -0.28646,0.100263 -0.382813,0.175782 -0.09375,0.07292 -0.161459,0.162762 -0.203125,0.269531 -0.04167,0.104168 -0.0625,0.222657 -0.0625,0.355469 -10e-7,0.239584 0.0625,0.415365 0.1875,0.527343 0.127603,0.11198 0.294269,0.167969 0.5,0.167969" inkscape:connector-curvature="0"/>
   <path d="m 56.05957,15.902344 0,-2.761719 c -3e-6,-0.338539 -0.06901,-0.592445 -0.207031,-0.761719 -0.13542,-0.169267 -0.348961,-0.253902 -0.640625,-0.253906 -0.21094,4e-6 -0.388023,0.03386 -0.53125,0.101563 -0.143231,0.06771 -0.259116,0.167972 -0.347656,0.300781 -0.08594,0.132815 -0.148439,0.295576 -0.1875,0.488281 -0.03646,0.192711 -0.05469,0.414065 -0.05469,0.664063 l 0,2.222656 -0.710937,0 0,-4.289063 0.578125,0 0.101562,0.578125 0.03906,0 c 0.0651,-0.111975 0.141925,-0.208329 0.230469,-0.289062 0.09114,-0.08333 0.190102,-0.15234 0.296875,-0.207031 0.106768,-0.05468 0.220049,-0.09505 0.339843,-0.121094 0.11979,-0.02604 0.242185,-0.03906 0.367188,-0.03906 0.476559,5e-6 0.834632,0.125004 1.074219,0.375 0.242183,0.2474 0.363277,0.644535 0.363281,1.191407 l 0,2.800781 -0.710938,0" inkscape:connector-curvature="0"/>
   <path d="m 60.516602,15.902344 -0.144532,-0.59375 -0.03125,0 c -0.08594,0.117188 -0.171877,0.21875 -0.257812,0.304687 -0.08594,0.08333 -0.17969,0.152344 -0.28125,0.207032 -0.101565,0.05469 -0.214846,0.09505 -0.339844,0.121093 -0.125002,0.02604 -0.269533,0.03906 -0.433594,0.03906 -0.179689,0 -0.345053,-0.02604 -0.496093,-0.07813 -0.151043,-0.04948 -0.282553,-0.126302 -0.394532,-0.230469 -0.109375,-0.10677 -0.195313,-0.239583 -0.257812,-0.398437 -0.0625,-0.161458 -0.09375,-0.351562 -0.09375,-0.570313 -10e-7,-0.427082 0.149739,-0.755206 0.449219,-0.984375 0.302082,-0.229164 0.760415,-0.354164 1.375,-0.375 l 0.71875,-0.02734 0,-0.269531 c -3e-6,-0.174476 -0.01953,-0.320309 -0.05859,-0.4375 -0.03646,-0.117184 -0.09115,-0.210934 -0.164063,-0.28125 -0.07032,-0.07291 -0.158856,-0.124996 -0.265625,-0.15625 -0.104169,-0.03125 -0.22396,-0.04687 -0.359375,-0.04687 -0.216147,4e-6 -0.41797,0.03125 -0.605468,0.09375 -0.184898,0.0625 -0.363283,0.138024 -0.535157,0.226563 l -0.25,-0.535157 c 0.192708,-0.104162 0.407551,-0.192704 0.644532,-0.265625 0.236977,-0.07291 0.485675,-0.10937 0.746093,-0.109375 0.265623,5e-6 0.494789,0.02735 0.6875,0.08203 0.19531,0.05209 0.355466,0.136722 0.480469,0.253906 0.127601,0.114587 0.222653,0.261722 0.285156,0.441406 0.0625,0.179691 0.09375,0.397139 0.09375,0.652344 l 0,2.9375 -0.511718,0 M 59.211914,15.40625 c 0.158852,0 0.305988,-0.02474 0.441406,-0.07422 0.135415,-0.04948 0.252602,-0.123697 0.351563,-0.222656 0.09896,-0.101562 0.175778,-0.227864 0.230469,-0.378906 0.05729,-0.153645 0.08593,-0.333332 0.08594,-0.539063 l 0,-0.386718 -0.558594,0.02734 c -0.234377,0.01042 -0.430991,0.03646 -0.589843,0.07813 -0.158856,0.04167 -0.28646,0.100263 -0.382813,0.175782 -0.09375,0.07292 -0.161459,0.162762 -0.203125,0.269531 -0.04167,0.104168 -0.0625,0.222657 -0.0625,0.355469 -10e-7,0.239584 0.0625,0.415365 0.1875,0.527343 0.127603,0.11198 0.294269,0.167969 0.5,0.167969" inkscape:connector-curvature="0"/>
   <path d="m 65.65332,11.613281 0,0.441407 -0.769531,0.105468 c 0.07291,0.09115 0.134111,0.208337 0.183594,0.351563 0.04948,0.140628 0.07421,0.300784 0.07422,0.480469 -4e-6,0.197919 -0.03125,0.381512 -0.09375,0.550781 -0.0599,0.166669 -0.152347,0.3112 -0.277344,0.433594 -0.122399,0.122397 -0.274743,0.218751 -0.457031,0.289062 -0.182295,0.06771 -0.394534,0.101564 -0.636719,0.101563 -0.05729,10e-7 -0.114585,10e-7 -0.171875,0 -0.05729,-0.0026 -0.104169,-0.0078 -0.140625,-0.01563 -0.04427,0.02604 -0.08854,0.05599 -0.132813,0.08984 -0.04167,0.03125 -0.08073,0.06771 -0.117187,0.109375 -0.03386,0.04167 -0.0625,0.08854 -0.08594,0.140625 -0.02083,0.05208 -0.03125,0.109376 -0.03125,0.171875 -1e-6,0.07031 0.01562,0.127605 0.04687,0.171875 0.03125,0.04167 0.07292,0.07422 0.125,0.09766 0.05469,0.02344 0.118488,0.03906 0.191407,0.04687 0.07291,0.0078 0.149737,0.01172 0.230468,0.01172 l 0.6875,0 c 0.242185,1e-6 0.446612,0.03125 0.613282,0.09375 0.166663,0.0599 0.302079,0.141928 0.40625,0.246094 0.106767,0.104167 0.18359,0.227865 0.230468,0.371094 0.04687,0.140625 0.07031,0.290364 0.07031,0.449218 -4e-6,0.229166 -0.04297,0.434895 -0.128906,0.617188 -0.08334,0.18229 -0.212244,0.335936 -0.386719,0.460937 -0.174483,0.127603 -0.395837,0.225259 -0.664063,0.292969 -0.265627,0.06771 -0.579429,0.101561 -0.941406,0.101563 -0.278647,-2e-6 -0.522137,-0.02735 -0.730469,-0.08203 C 62.538727,17.687491 62.36555,17.608065 62.22753,17.5039 62.089509,17.399732 61.985342,17.27343 61.91503,17.124994 61.84732,16.97916 61.813467,16.813795 61.813468,16.6289 c -10e-7,-0.15625 0.02474,-0.294271 0.07422,-0.414062 0.05208,-0.117188 0.121094,-0.21875 0.207032,-0.304688 0.08594,-0.08594 0.184895,-0.15625 0.296875,-0.210937 0.114582,-0.05469 0.233072,-0.09635 0.355468,-0.125 -0.109376,-0.04948 -0.199219,-0.127604 -0.269531,-0.234375 -0.07031,-0.10677 -0.105469,-0.229166 -0.105469,-0.367188 0,-0.158853 0.04167,-0.295571 0.125,-0.410156 0.08333,-0.117186 0.214843,-0.230467 0.394532,-0.339844 -0.111981,-0.04687 -0.214845,-0.110675 -0.308594,-0.191406 -0.09115,-0.08333 -0.169272,-0.177081 -0.234375,-0.28125 -0.0625,-0.106769 -0.11198,-0.222654 -0.148438,-0.347656 -0.03385,-0.124998 -0.05078,-0.253904 -0.05078,-0.386719 0,-0.231768 0.03255,-0.438799 0.09766,-0.621094 0.0651,-0.182288 0.161458,-0.337235 0.289063,-0.464843 0.127603,-0.127601 0.286457,-0.225257 0.476562,-0.292969 0.190103,-0.0677 0.411457,-0.101558 0.664063,-0.101563 0.09635,5e-6 0.19531,0.0078 0.296875,0.02344 0.104164,0.01303 0.191404,0.03125 0.261719,0.05469 l 1.417968,0 m -3.167968,4.992188 c -10e-7,0.09635 0.01693,0.186197 0.05078,0.269531 0.03385,0.08333 0.08854,0.154947 0.164062,0.214844 0.07812,0.05989 0.179687,0.106769 0.304688,0.140625 0.127603,0.03646 0.285154,0.05469 0.472656,0.05469 0.484373,-10e-7 0.846352,-0.07552 1.085938,-0.226562 0.242184,-0.148439 0.363278,-0.363282 0.363281,-0.644532 -3e-6,-0.119792 -0.01563,-0.217448 -0.04687,-0.292968 -0.03125,-0.07552 -0.08334,-0.135417 -0.15625,-0.179688 -0.07032,-0.04167 -0.164066,-0.07031 -0.28125,-0.08594 -0.11719,-0.01563 -0.260419,-0.02344 -0.429688,-0.02344 l -0.6875,0 c -0.09115,0 -0.186199,0.01042 -0.285156,0.03125 -0.09896,0.02083 -0.190105,0.0599 -0.273437,0.117188 -0.08073,0.05729 -0.148439,0.135416 -0.203125,0.234375 -0.05208,0.101562 -0.07813,0.23177 -0.07813,0.390625 m 0.359375,-3.613281 c -2e-6,0.299481 0.07031,0.522137 0.210937,0.667968 0.140624,0.145836 0.339842,0.218752 0.597656,0.21875 0.260415,2e-6 0.457029,-0.07161 0.589844,-0.214843 0.135414,-0.145831 0.203122,-0.373696 0.203125,-0.683594 -3e-6,-0.32031 -0.06901,-0.555986 -0.207031,-0.707031 -0.135419,-0.151038 -0.333336,-0.226559 -0.59375,-0.226563 -0.257814,4e-6 -0.455731,0.07813 -0.59375,0.234375 -0.138022,0.156253 -0.207033,0.393232 -0.207031,0.710938" inkscape:connector-curvature="0"/>
   <path d="m 68.18457,15.980469 c -0.28646,0 -0.548179,-0.04818 -0.785156,-0.144531 -0.23698,-0.09636 -0.441407,-0.236979 -0.613281,-0.421875 -0.169272,-0.184896 -0.300782,-0.414062 -0.394531,-0.6875 -0.09375,-0.273437 -0.140626,-0.585936 -0.140625,-0.9375 -1e-6,-0.354165 0.04297,-0.670571 0.128906,-0.949219 0.08594,-0.278643 0.20703,-0.51432 0.363281,-0.707031 0.156249,-0.195309 0.342447,-0.343746 0.558594,-0.445313 0.218748,-0.101558 0.459633,-0.152339 0.722656,-0.152344 0.25781,5e-6 0.489581,0.04688 0.695313,0.140625 0.205726,0.09115 0.380205,0.221358 0.523437,0.390625 0.143226,0.166671 0.252601,0.368493 0.328125,0.605469 0.07812,0.234378 0.117184,0.494794 0.117188,0.78125 l 0,0.441406 -2.703125,0 c 0.01302,0.502606 0.118488,0.872397 0.316406,1.109375 0.200519,0.23698 0.497394,0.35547 0.890625,0.355469 0.13281,10e-7 0.255206,-0.0065 0.367187,-0.01953 0.114581,-0.01302 0.223956,-0.03125 0.328125,-0.05469 0.106768,-0.02604 0.209632,-0.05729 0.308594,-0.09375 0.09896,-0.03906 0.199215,-0.08203 0.300781,-0.128906 l 0,0.632813 c -0.10417,0.04948 -0.207034,0.09245 -0.308593,0.128906 -0.09896,0.03646 -0.201827,0.06641 -0.308594,0.08984 -0.10417,0.02344 -0.213545,0.04036 -0.328125,0.05078 -0.111982,0.01042 -0.234378,0.01563 -0.367188,0.01563 M 68.008789,12.125 c -0.296877,4e-6 -0.532554,0.101566 -0.707031,0.304688 -0.171877,0.203128 -0.272137,0.4987 -0.300781,0.886718 l 1.921875,0 c -4e-6,-0.17708 -0.01823,-0.338538 -0.05469,-0.484375 -0.03386,-0.148434 -0.08854,-0.274736 -0.164062,-0.378906 -0.07292,-0.104163 -0.16667,-0.184892 -0.28125,-0.242187 -0.114586,-0.05729 -0.252607,-0.08593 -0.414063,-0.08594" inkscape:connector-curvature="0"/>
   <path d="m 72.625977,11.535156 c 0.07552,5e-6 0.160153,0.0039 0.253906,0.01172 0.09375,0.0052 0.174476,0.01433 0.242187,0.02734 l -0.09375,0.65625 c -0.07292,-0.01302 -0.14844,-0.02343 -0.226562,-0.03125 -0.07552,-0.01041 -0.147138,-0.01562 -0.214844,-0.01563 -0.164065,3e-6 -0.313804,0.03386 -0.449219,0.101562 -0.135418,0.06511 -0.252606,0.16016 -0.351562,0.285157 -0.09636,0.122399 -0.171877,0.270836 -0.226563,0.445312 -0.05208,0.171878 -0.07813,0.363284 -0.07813,0.574219 l 0,2.3125 -0.710937,0 0,-4.289063 0.578125,0 0.08594,0.785157 0.03125,0 c 0.0651,-0.111976 0.134113,-0.220049 0.207032,-0.324219 0.07552,-0.104163 0.158852,-0.195309 0.25,-0.273438 0.09375,-0.08073 0.197914,-0.144527 0.3125,-0.191406 0.114581,-0.04947 0.244789,-0.07421 0.390625,-0.07422" inkscape:connector-curvature="0"/>
  </g>
  <g fill="#666" fill-opacity="1" stroke="none" transform="matrix(0.8642 0 0 0.8642 2.381 960.74)">
   <path d="m 27.805664,24.191406 1.558594,0 c 0.33333,6e-6 0.626299,0.02605 0.878906,0.07813 0.255205,0.04949 0.467444,0.131516 0.636719,0.246094 0.171871,0.111984 0.300777,0.260422 0.386719,0.445312 0.08593,0.182297 0.128901,0.407557 0.128906,0.675782 -5e-6,0.161462 -0.02605,0.312504 -0.07813,0.453125 -0.04948,0.140628 -0.1224,0.264326 -0.21875,0.371093 -0.09636,0.106775 -0.21615,0.196618 -0.359375,0.269532 -0.140629,0.07032 -0.300785,0.11719 -0.480469,0.140625 l 0,0.03906 c 0.179684,0.03125 0.347653,0.07683 0.503906,0.136719 0.158851,0.05729 0.296871,0.138024 0.414063,0.242187 0.117183,0.101566 0.209631,0.230472 0.277344,0.386719 0.0677,0.156252 0.101558,0.346356 0.101562,0.570313 -4e-6,0.260418 -0.04297,0.49349 -0.128906,0.699218 -0.08334,0.203126 -0.205734,0.376303 -0.367188,0.519532 -0.158858,0.140625 -0.352868,0.248698 -0.582031,0.324218 -0.22917,0.07552 -0.488284,0.113282 -0.777344,0.113282 l -1.894531,0 0,-5.710938 m 0.726563,2.421875 0.953125,0 c 0.218747,4e-6 0.40234,-0.01953 0.550781,-0.05859 0.148434,-0.03906 0.268226,-0.09635 0.359375,-0.171875 0.09114,-0.07812 0.156246,-0.174475 0.195312,-0.289062 0.04166,-0.117184 0.0625,-0.2526 0.0625,-0.40625 -3e-6,-0.312495 -0.100264,-0.536454 -0.300781,-0.671875 -0.200524,-0.135412 -0.51693,-0.20312 -0.949219,-0.203125 l -0.871093,0 0,1.800781 m 0,0.609375 0,2.0625 1.039062,0 c 0.229164,1e-6 0.42057,-0.02604 0.574219,-0.07813 0.156247,-0.05208 0.281246,-0.124999 0.375,-0.21875 0.09635,-0.09375 0.165361,-0.205728 0.207031,-0.335937 0.04166,-0.132811 0.0625,-0.278645 0.0625,-0.4375 -4e-6,-0.145832 -0.02214,-0.279946 -0.06641,-0.402344 -0.04167,-0.122394 -0.111983,-0.22656 -0.210938,-0.3125 -0.09636,-0.08854 -0.225263,-0.156247 -0.386718,-0.203125 -0.161462,-0.04948 -0.361982,-0.07422 -0.601563,-0.07422 l -0.992187,0" inkscape:connector-curvature="0"/>
   <path d="m 34.532227,25.535156 c 0.07552,5e-6 0.160153,0.0039 0.253906,0.01172 0.09375,0.0052 0.174476,0.01433 0.242187,0.02734 l -0.09375,0.65625 c -0.07292,-0.01302 -0.14844,-0.02343 -0.226562,-0.03125 -0.07552,-0.01041 -0.147138,-0.01562 -0.214844,-0.01563 -0.164065,3e-6 -0.313804,0.03386 -0.449219,0.101562 -0.135418,0.06511 -0.252606,0.16016 -0.351562,0.285156 -0.09636,0.1224 -0.171877,0.270837 -0.226563,0.445313 -0.05208,0.171878 -0.07813,0.363284 -0.07813,0.574219 l 0,2.3125 -0.710937,0 0,-4.289063 0.578125,0 0.08594,0.785156 0.03125,0 c 0.0651,-0.111975 0.134113,-0.220048 0.207032,-0.324218 0.07552,-0.104163 0.158852,-0.195309 0.25,-0.273438 0.09375,-0.08073 0.197914,-0.144527 0.3125,-0.191406 0.114581,-0.04948 0.244789,-0.07421 0.390625,-0.07422" inkscape:connector-curvature="0"/>
   <path d="m 39.360352,27.75 c -5e-6,0.356773 -0.04427,0.674481 -0.132813,0.953125 -0.08594,0.276043 -0.210941,0.509115 -0.375,0.699219 -0.161462,0.1875 -0.358076,0.330729 -0.589844,0.429687 -0.231773,0.09896 -0.49219,0.148438 -0.78125,0.148438 -0.268231,0 -0.515626,-0.04948 -0.742187,-0.148438 -0.226564,-0.09896 -0.423178,-0.242187 -0.589844,-0.429687 -0.164063,-0.190104 -0.292969,-0.423176 -0.386719,-0.699219 -0.09115,-0.278644 -0.136719,-0.596352 -0.136718,-0.953125 -10e-7,-0.354164 0.04297,-0.667966 0.128906,-0.941406 0.08854,-0.276039 0.213541,-0.507809 0.375,-0.695313 0.161457,-0.1901 0.358071,-0.333329 0.589844,-0.429687 0.234373,-0.09895 0.496091,-0.148433 0.785156,-0.148438 0.268226,5e-6 0.515622,0.04948 0.742187,0.148438 0.22656,0.09636 0.421872,0.239587 0.585938,0.429687 0.166663,0.187504 0.295569,0.419274 0.386719,0.695313 0.09374,0.27344 0.14062,0.587242 0.140625,0.941406 m -3,0 c -2e-6,0.544272 0.08854,0.954428 0.265625,1.230469 0.179685,0.273438 0.47005,0.410157 0.871093,0.410156 0.401039,1e-6 0.688799,-0.136718 0.863282,-0.410156 0.17708,-0.276041 0.265621,-0.686197 0.265625,-1.230469 -4e-6,-0.544268 -0.08985,-0.950518 -0.269532,-1.21875 -0.177086,-0.27083 -0.466148,-0.406246 -0.867187,-0.40625 -0.401044,4e-6 -0.690106,0.13542 -0.867188,0.40625 -0.17448,0.268232 -0.26172,0.674482 -0.261718,1.21875" inkscape:connector-curvature="0"/>
   <path d="m 43.74707,29.902344 -0.65625,-2.40625 c -0.01042,-0.04687 -0.02344,-0.09896 -0.03906,-0.15625 -0.01563,-0.05989 -0.03125,-0.122393 -0.04687,-0.1875 -0.01563,-0.0651 -0.03256,-0.131508 -0.05078,-0.199219 -0.01563,-0.06771 -0.03125,-0.134112 -0.04687,-0.199219 -0.03646,-0.151038 -0.07422,-0.307288 -0.113282,-0.46875 l -0.02344,0 c -0.03646,0.164066 -0.07162,0.321618 -0.105469,0.472656 -0.02865,0.130212 -0.0599,0.264326 -0.09375,0.402344 -0.03125,0.138024 -0.0612,0.255211 -0.08984,0.351563 l -0.671875,2.390625 -0.824218,0 -1.097657,-4.289063 0.746094,0 0.511719,2.28125 c 0.02604,0.11719 0.05208,0.244794 0.07813,0.382813 0.02604,0.135418 0.05078,0.270834 0.07422,0.40625 0.02344,0.132813 0.04427,0.259115 0.0625,0.378906 0.01823,0.117188 0.03255,0.213542 0.04297,0.289062 l 0.02344,0 c 0.01302,-0.06771 0.02995,-0.157551 0.05078,-0.269531 0.02344,-0.114582 0.04818,-0.234374 0.07422,-0.359375 0.02864,-0.127603 0.05729,-0.252602 0.08594,-0.375 0.02864,-0.124998 0.05599,-0.230467 0.08203,-0.316406 l 0.699218,-2.417969 0.765625,0 0.671875,2.417969 c 0.02343,0.08854 0.04948,0.19271 0.07813,0.3125 0.03125,0.119793 0.06119,0.242189 0.08984,0.367187 0.02864,0.122397 0.05468,0.240887 0.07813,0.355469 0.02343,0.114584 0.04036,0.209636 0.05078,0.285156 l 0.02344,0 c 0.0078,-0.06771 0.01953,-0.157551 0.03516,-0.269531 0.01823,-0.114582 0.03906,-0.239582 0.0625,-0.375 0.02343,-0.135415 0.04817,-0.273436 0.07422,-0.414062 0.02864,-0.143228 0.05729,-0.27604 0.08594,-0.398438 l 0.535157,-2.28125 0.726562,0 -1.109375,4.289063 -0.839844,0" inkscape:connector-curvature="0"/>
   <path d="m 49.024414,28.726562 c -3e-6,0.208335 -0.03776,0.390626 -0.113281,0.546875 -0.07552,0.156251 -0.184899,0.287761 -0.328125,0.394532 -0.140628,0.104167 -0.311201,0.182291 -0.511719,0.234375 -0.200523,0.05208 -0.425783,0.07813 -0.675781,0.07813 -0.283856,0 -0.527345,-0.02344 -0.730469,-0.07031 -0.203126,-0.04427 -0.381511,-0.110677 -0.535156,-0.199219 l 0,-0.648437 c 0.08073,0.04167 0.170572,0.08333 0.269531,0.125 0.09896,0.03906 0.203124,0.07422 0.3125,0.105469 0.109374,0.03125 0.221353,0.05729 0.335938,0.07813 0.117186,0.01823 0.233071,0.02734 0.347656,0.02734 0.169269,10e-7 0.312498,-0.01432 0.429687,-0.04297 0.11979,-0.02865 0.216144,-0.06901 0.289063,-0.121094 0.07552,-0.05469 0.130206,-0.119791 0.164062,-0.195313 0.03385,-0.07812 0.05078,-0.164061 0.05078,-0.257812 -3e-6,-0.08073 -0.01302,-0.153645 -0.03906,-0.21875 -0.02604,-0.0651 -0.07422,-0.128905 -0.144531,-0.191406 -0.06771,-0.0651 -0.161461,-0.130207 -0.28125,-0.195313 -0.119794,-0.0651 -0.27344,-0.138019 -0.460938,-0.21875 -0.187501,-0.08073 -0.356772,-0.160154 -0.507812,-0.238281 -0.148439,-0.07812 -0.274741,-0.165362 -0.378906,-0.261719 -0.104168,-0.09635 -0.184897,-0.207028 -0.242188,-0.332031 -0.05469,-0.127601 -0.08203,-0.278643 -0.08203,-0.453125 -1e-6,-0.182288 0.03516,-0.343746 0.105469,-0.484375 0.07292,-0.143225 0.174478,-0.263017 0.304687,-0.359375 0.130207,-0.09635 0.286457,-0.169267 0.46875,-0.21875 0.18229,-0.04948 0.385415,-0.07421 0.609375,-0.07422 0.252602,5e-6 0.483071,0.02735 0.691406,0.08203 0.210935,0.05469 0.410154,0.126307 0.597657,0.214844 L 48.723633,26.40625 C 48.554359,26.330733 48.37988,26.265629 48.200195,26.210937 48.02311,26.15365 47.84212,26.125004 47.657227,26.125 c -0.265627,4e-6 -0.462241,0.04427 -0.589844,0.132812 -0.127606,0.08594 -0.191408,0.209639 -0.191406,0.371094 -2e-6,0.09115 0.01432,0.170576 0.04297,0.238281 0.03125,0.06771 0.08333,0.131514 0.15625,0.191407 0.07292,0.0599 0.170572,0.121096 0.292969,0.183593 0.122394,0.0599 0.274738,0.127607 0.457031,0.203125 0.187498,0.07813 0.354165,0.156253 0.5,0.234375 0.148435,0.07813 0.274737,0.166669 0.378907,0.265625 0.104163,0.09636 0.18359,0.207033 0.238281,0.332032 0.05468,0.125001 0.08203,0.274741 0.08203,0.449218" inkscape:connector-curvature="0"/>
   <path d="m 51.762695,29.980469 c -0.28646,0 -0.548179,-0.04818 -0.785156,-0.144532 -0.23698,-0.09635 -0.441407,-0.236978 -0.613281,-0.421875 -0.169272,-0.184895 -0.300782,-0.414061 -0.394531,-0.6875 -0.09375,-0.273436 -0.140626,-0.585935 -0.140625,-0.9375 -10e-7,-0.354164 0.04297,-0.67057 0.128906,-0.949218 0.08594,-0.278643 0.20703,-0.51432 0.363281,-0.707032 0.156249,-0.195308 0.342447,-0.343745 0.558594,-0.445312 0.218748,-0.101558 0.459633,-0.152339 0.722656,-0.152344 0.25781,5e-6 0.489581,0.04688 0.695313,0.140625 0.205726,0.09115 0.380205,0.221358 0.523437,0.390625 0.143226,0.166671 0.252601,0.368493 0.328125,0.605469 0.07812,0.234378 0.117184,0.494794 0.117188,0.78125 l 0,0.441406 -2.703125,0 c 0.01302,0.502606 0.118488,0.872397 0.316406,1.109375 0.200519,0.23698 0.497394,0.35547 0.890625,0.355469 0.13281,1e-6 0.255206,-0.0065 0.367187,-0.01953 0.114581,-0.01302 0.223956,-0.03125 0.328125,-0.05469 0.106768,-0.02604 0.209632,-0.05729 0.308594,-0.09375 0.09895,-0.03906 0.199215,-0.08203 0.300781,-0.128906 l 0,0.632812 c -0.10417,0.04948 -0.207034,0.09245 -0.308593,0.128907 -0.09896,0.03646 -0.201827,0.06641 -0.308594,0.08984 -0.10417,0.02344 -0.213545,0.04036 -0.328125,0.05078 -0.111982,0.01042 -0.234378,0.01563 -0.367188,0.01563 M 51.586914,26.125 c -0.296877,4e-6 -0.532554,0.101566 -0.707031,0.304687 -0.171877,0.203129 -0.272137,0.498701 -0.300781,0.886719 l 1.921875,0 c -4e-6,-0.17708 -0.01823,-0.338538 -0.05469,-0.484375 -0.03386,-0.148434 -0.08855,-0.274736 -0.164062,-0.378906 -0.07292,-0.104163 -0.16667,-0.184892 -0.28125,-0.242188 -0.114586,-0.05729 -0.252607,-0.08593 -0.414063,-0.08594" inkscape:connector-curvature="0"/>
   <path d="m 56.204102,25.535156 c 0.07552,5e-6 0.160153,0.0039 0.253906,0.01172 0.09375,0.0052 0.174476,0.01433 0.242187,0.02734 l -0.09375,0.65625 c -0.07292,-0.01302 -0.14844,-0.02343 -0.226562,-0.03125 -0.07552,-0.01041 -0.147138,-0.01562 -0.214844,-0.01563 -0.164065,3e-6 -0.313804,0.03386 -0.449219,0.101562 -0.135418,0.06511 -0.252606,0.16016 -0.351562,0.285156 -0.09636,0.1224 -0.171877,0.270837 -0.226563,0.445313 -0.05208,0.171878 -0.07813,0.363284 -0.07813,0.574219 l 0,2.3125 -0.710937,0 0,-4.289063 0.578125,0 0.08594,0.785156 0.03125,0 c 0.0651,-0.111975 0.134113,-0.220048 0.207032,-0.324218 0.07552,-0.104163 0.158852,-0.195309 0.25,-0.273438 0.09375,-0.08073 0.197914,-0.144527 0.3125,-0.191406 0.114581,-0.04948 0.244789,-0.07421 0.390625,-0.07422" inkscape:connector-curvature="0"/>
  </g>
  <g fill="#666" fill-opacity="1" stroke="none" transform="matrix(0.8642 0 0 0.8642 2.381 962.14)">
   <path d="m 30.165039,43.902344 -1.730469,-5 -0.03125,0 c 0.01562,0.192713 0.02865,0.384119 0.03906,0.574218 0.01042,0.164067 0.01823,0.337244 0.02344,0.519532 0.0078,0.179691 0.01172,0.343753 0.01172,0.492187 l 0,3.414063 -0.671875,0 0,-5.710938 1.078125,0 1.609375,4.65625 0.02344,0 1.617187,-4.65625 1.078125,0 0,5.710938 -0.726562,0 0,-3.464844 c -6e-6,-0.135413 0.0026,-0.290361 0.0078,-0.464844 0.0052,-0.174475 0.01171,-0.341141 0.01953,-0.5 0.01041,-0.184891 0.01953,-0.372391 0.02734,-0.5625 l -0.03125,0 -1.746094,4.992188 -0.597656,0" inkscape:connector-curvature="0"/>
   <path d="m 37.094727,43.902344 -0.144532,-0.59375 -0.03125,0 c -0.08594,0.117188 -0.171877,0.21875 -0.257812,0.304687 -0.08594,0.08333 -0.17969,0.152344 -0.28125,0.207031 -0.101565,0.05469 -0.214846,0.09505 -0.339844,0.121094 -0.125002,0.02604 -0.269533,0.03906 -0.433594,0.03906 -0.179689,0 -0.345053,-0.02604 -0.496093,-0.07813 -0.151043,-0.04948 -0.282553,-0.126302 -0.394532,-0.230469 -0.109375,-0.10677 -0.195313,-0.239583 -0.257812,-0.398438 -0.0625,-0.161457 -0.09375,-0.351561 -0.09375,-0.570312 -10e-7,-0.427082 0.149739,-0.755206 0.449219,-0.984375 0.302082,-0.229164 0.760415,-0.354164 1.375,-0.375 l 0.71875,-0.02734 0,-0.269531 c -3e-6,-0.174476 -0.01953,-0.320309 -0.05859,-0.4375 -0.03646,-0.117184 -0.09115,-0.210934 -0.164063,-0.28125 -0.07032,-0.07291 -0.158856,-0.124996 -0.265625,-0.15625 -0.104169,-0.03125 -0.22396,-0.04687 -0.359375,-0.04687 -0.216147,4e-6 -0.41797,0.03125 -0.605468,0.09375 -0.184898,0.0625 -0.363283,0.138024 -0.535157,0.226562 l -0.25,-0.535156 c 0.192708,-0.104162 0.407551,-0.192704 0.644532,-0.265625 0.236977,-0.07291 0.485675,-0.10937 0.746093,-0.109375 0.265623,5e-6 0.494789,0.02735 0.6875,0.08203 0.19531,0.05209 0.355466,0.136723 0.480469,0.253907 0.127601,0.114587 0.222653,0.261722 0.285156,0.441406 0.0625,0.179691 0.09375,0.397139 0.09375,0.652344 l 0,2.9375 -0.511718,0 M 35.790039,43.40625 c 0.158852,0 0.305988,-0.02474 0.441406,-0.07422 0.135415,-0.04948 0.252602,-0.123697 0.351563,-0.222656 0.09896,-0.101562 0.175778,-0.227864 0.230469,-0.378906 0.05729,-0.153645 0.08593,-0.333332 0.08594,-0.539063 l 0,-0.386719 -0.558594,0.02734 c -0.234377,0.01042 -0.430991,0.03646 -0.589843,0.07813 -0.158856,0.04167 -0.28646,0.100263 -0.382813,0.175781 -0.09375,0.07292 -0.161459,0.162763 -0.203125,0.269532 -0.04167,0.104168 -0.0625,0.222657 -0.0625,0.355468 -10e-7,0.239585 0.0625,0.415366 0.1875,0.527344 0.127603,0.11198 0.294269,0.167969 0.5,0.167969" inkscape:connector-curvature="0"/>
   <path d="m 39.637695,43.902344 -0.710937,0 0,-4.289063 0.710937,0 0,4.289063 M 38.87207,38.453125 c 0,-0.156244 0.03906,-0.269526 0.117188,-0.339844 0.08073,-0.07031 0.179686,-0.105463 0.296875,-0.105469 0.05729,6e-6 0.110676,0.0091 0.160156,0.02734 0.05208,0.01563 0.09635,0.04167 0.132813,0.07813 0.03906,0.03646 0.06901,0.08334 0.08984,0.140625 0.02344,0.05469 0.03515,0.1211 0.03516,0.199219 -2e-6,0.151047 -0.04167,0.264328 -0.125,0.339844 -0.08073,0.07292 -0.178387,0.10938 -0.292969,0.109375 -0.117189,5e-6 -0.216147,-0.03645 -0.296875,-0.109375 -0.07813,-0.07291 -0.117188,-0.186193 -0.117188,-0.339844" inkscape:connector-curvature="0"/>
   <path d="m 41.71582,43.902344 -0.710937,0 0,-6.078125 0.710937,0 0,6.078125" inkscape:connector-curvature="0"/>
   <path d="m 46.801758,43.980469 c -0.263023,0 -0.509117,-0.04037 -0.738281,-0.121094 -0.229168,-0.08333 -0.428387,-0.213541 -0.597657,-0.390625 -0.169271,-0.179687 -0.302084,-0.407551 -0.398437,-0.683594 -0.09636,-0.278644 -0.144532,-0.613279 -0.144531,-1.003906 -10e-7,-0.408852 0.04948,-0.755205 0.148437,-1.039063 0.09896,-0.286454 0.234374,-0.518225 0.40625,-0.695312 0.174478,-0.179683 0.377603,-0.309892 0.609375,-0.390625 0.231769,-0.08073 0.480467,-0.121089 0.746094,-0.121094 0.203122,5e-6 0.401039,0.02214 0.59375,0.06641 0.195309,0.04428 0.358069,0.09896 0.488281,0.164063 l -0.210937,0.601562 c -0.0599,-0.02604 -0.126306,-0.05078 -0.199219,-0.07422 -0.07292,-0.02604 -0.148441,-0.04817 -0.226563,-0.06641 -0.07813,-0.02083 -0.15495,-0.03645 -0.230468,-0.04687 -0.07552,-0.01302 -0.147138,-0.01953 -0.214844,-0.01953 -0.408856,4e-6 -0.707033,0.131514 -0.894531,0.394531 -0.187502,0.26042 -0.281252,0.66667 -0.28125,1.21875 -2e-6,0.549481 0.09375,0.951825 0.28125,1.207032 0.190102,0.252605 0.477862,0.378907 0.863281,0.378906 0.210935,10e-7 0.401039,-0.02344 0.570312,-0.07031 0.171872,-0.04948 0.328122,-0.10677 0.46875,-0.171875 l 0,0.632813 c -0.140628,0.07552 -0.291669,0.132813 -0.453125,0.171875 -0.158857,0.03906 -0.354169,0.05859 -0.585937,0.05859" inkscape:connector-curvature="0"/>
   <path d="m 49.575195,43.902344 -0.710937,0 0,-6.078125 0.710937,0 0,6.078125" inkscape:connector-curvature="0"/>
   <path d="m 51.65332,43.902344 -0.710937,0 0,-4.289063 0.710937,0 0,4.289063 m -0.765625,-5.449219 c 0,-0.156244 0.03906,-0.269526 0.117188,-0.339844 0.08073,-0.07031 0.179686,-0.105463 0.296875,-0.105469 0.05729,6e-6 0.110676,0.0091 0.160156,0.02734 0.05208,0.01563 0.09635,0.04167 0.132813,0.07813 0.03906,0.03646 0.06901,0.08334 0.08984,0.140625 0.02344,0.05469 0.03515,0.1211 0.03516,0.199219 -2e-6,0.151047 -0.04167,0.264328 -0.125,0.339844 -0.08073,0.07292 -0.178387,0.10938 -0.292969,0.109375 -0.117189,5e-6 -0.216147,-0.03645 -0.296875,-0.109375 -0.07813,-0.07291 -0.117188,-0.186193 -0.117188,-0.339844" inkscape:connector-curvature="0"/>
   <path d="m 54.71582,43.980469 c -0.28646,0 -0.548179,-0.04818 -0.785156,-0.144532 -0.23698,-0.09635 -0.441407,-0.236978 -0.613281,-0.421875 -0.169272,-0.184895 -0.300782,-0.414061 -0.394531,-0.6875 -0.09375,-0.273436 -0.140626,-0.585935 -0.140625,-0.9375 -10e-7,-0.354164 0.04297,-0.67057 0.128906,-0.949218 0.08594,-0.278643 0.20703,-0.51432 0.363281,-0.707032 0.156249,-0.195308 0.342447,-0.343745 0.558594,-0.445312 0.218748,-0.101558 0.459633,-0.152339 0.722656,-0.152344 0.25781,5e-6 0.489581,0.04688 0.695313,0.140625 0.205726,0.09115 0.380205,0.221358 0.523437,0.390625 0.143226,0.166671 0.252601,0.368493 0.328125,0.605469 0.07812,0.234378 0.117184,0.494794 0.117188,0.78125 l 0,0.441406 -2.703125,0 c 0.01302,0.502606 0.118488,0.872397 0.316406,1.109375 0.200519,0.23698 0.497394,0.35547 0.890625,0.355469 0.13281,10e-7 0.255206,-0.0065 0.367187,-0.01953 0.114581,-0.01302 0.223956,-0.03125 0.328125,-0.05469 0.106768,-0.02604 0.209632,-0.05729 0.308594,-0.09375 0.09895,-0.03906 0.199215,-0.08203 0.300781,-0.128906 l 0,0.632812 c -0.10417,0.04948 -0.207034,0.09245 -0.308593,0.128907 -0.09896,0.03646 -0.201827,0.06641 -0.308594,0.08984 -0.10417,0.02344 -0.213545,0.04037 -0.328125,0.05078 -0.111982,0.01042 -0.234378,0.01563 -0.367188,0.01563 M 54.540039,40.125 c -0.296877,4e-6 -0.532554,0.101566 -0.707031,0.304687 -0.171877,0.203129 -0.272137,0.498701 -0.300781,0.886719 l 1.921875,0 c -4e-6,-0.17708 -0.01823,-0.338538 -0.05469,-0.484375 -0.03386,-0.148434 -0.08855,-0.274736 -0.164062,-0.378906 -0.07292,-0.104163 -0.16667,-0.184892 -0.28125,-0.242188 -0.114586,-0.05729 -0.252607,-0.08593 -0.414063,-0.08594" inkscape:connector-curvature="0"/>
   <path d="m 59.981445,43.902344 0,-2.761719 c -3e-6,-0.338539 -0.06901,-0.592445 -0.207031,-0.761719 -0.13542,-0.169267 -0.348961,-0.253902 -0.640625,-0.253906 -0.21094,4e-6 -0.388023,0.03386 -0.53125,0.101562 -0.143231,0.06771 -0.259116,0.167973 -0.347656,0.300782 -0.08594,0.132815 -0.148439,0.295576 -0.1875,0.488281 -0.03646,0.192711 -0.05469,0.414065 -0.05469,0.664062 l 0,2.222657 -0.710937,0 0,-4.289063 0.578125,0 0.101562,0.578125 0.03906,0 c 0.0651,-0.111975 0.141925,-0.208329 0.230469,-0.289062 0.09114,-0.08333 0.190102,-0.15234 0.296875,-0.207032 0.106768,-0.05468 0.220049,-0.09505 0.339843,-0.121093 0.11979,-0.02604 0.242185,-0.03906 0.367188,-0.03906 0.476559,5e-6 0.834632,0.125004 1.074219,0.375 0.242183,0.2474 0.363277,0.644535 0.363281,1.191406 l 0,2.800782 -0.710938,0" inkscape:connector-curvature="0"/>
   <path d="m 63.317383,43.398437 c 0.04687,10e-7 0.09896,-0.0026 0.15625,-0.0078 0.05989,-0.0052 0.117185,-0.01172 0.171875,-0.01953 0.05468,-0.0078 0.104164,-0.01693 0.148437,-0.02734 0.04687,-0.01042 0.08203,-0.01953 0.105469,-0.02734 l 0,0.539063 c -0.03386,0.01563 -0.07682,0.03125 -0.128906,0.04687 -0.05209,0.01563 -0.109378,0.02865 -0.171875,0.03906 -0.0625,0.01302 -0.127606,0.02214 -0.195313,0.02734 -0.06771,0.0078 -0.134116,0.01172 -0.199218,0.01172 -0.16146,0 -0.3112,-0.02083 -0.449219,-0.0625 -0.138022,-0.04167 -0.257814,-0.113281 -0.359375,-0.214844 -0.09896,-0.101562 -0.177084,-0.238281 -0.234375,-0.410156 -0.05729,-0.174479 -0.08594,-0.393228 -0.08594,-0.65625 l 0,-2.488282 -0.605468,0 0,-0.316406 0.605468,-0.304687 0.304688,-0.898438 0.410156,0 0,0.984375 1.078125,0 0,0.535156 -1.078125,0 0,2.488282 c -10e-7,0.252605 0.04036,0.442709 0.121094,0.570312 0.08333,0.127605 0.218748,0.191407 0.40625,0.191406" inkscape:connector-curvature="0"/>
  </g>
  <g fill="#666" fill-opacity="1" stroke="none" transform="matrix(0.8642 0 0 0.8642 2.381 963.37)">
   <path d="m 29.469727,57.902344 -0.730469,0 0,-5.070313 -1.632813,0 0,-0.640625 3.992188,0 0,0.640625 -1.628906,0 0,5.070313" inkscape:connector-curvature="0"/>
   <path d="m 33.075195,57.980469 c -0.28646,0 -0.548179,-0.04818 -0.785156,-0.144532 -0.23698,-0.09635 -0.441407,-0.236978 -0.613281,-0.421875 -0.169272,-0.184895 -0.300782,-0.414061 -0.394531,-0.6875 -0.09375,-0.273436 -0.140626,-0.585935 -0.140625,-0.9375 -10e-7,-0.354164 0.04297,-0.67057 0.128906,-0.949218 0.08594,-0.278643 0.20703,-0.51432 0.363281,-0.707032 0.156249,-0.195308 0.342447,-0.343745 0.558594,-0.445312 0.218748,-0.101558 0.459633,-0.152339 0.722656,-0.152344 0.25781,5e-6 0.489581,0.04688 0.695313,0.140625 0.205726,0.09115 0.380205,0.221358 0.523437,0.390625 0.143226,0.166671 0.252601,0.368493 0.328125,0.605469 0.07812,0.234378 0.117184,0.494794 0.117188,0.78125 l 0,0.441406 -2.703125,0 c 0.01302,0.502606 0.118488,0.872397 0.316406,1.109375 0.200519,0.23698 0.497394,0.35547 0.890625,0.355469 0.13281,10e-7 0.255206,-0.0065 0.367187,-0.01953 0.114581,-0.01302 0.223956,-0.03125 0.328125,-0.05469 0.106768,-0.02604 0.209632,-0.05729 0.308594,-0.09375 0.09895,-0.03906 0.199215,-0.08203 0.300781,-0.128906 l 0,0.632812 c -0.10417,0.04948 -0.207034,0.09245 -0.308593,0.128907 -0.09896,0.03646 -0.201827,0.06641 -0.308594,0.08984 -0.10417,0.02344 -0.213545,0.04037 -0.328125,0.05078 -0.111982,0.01042 -0.234378,0.01563 -0.367188,0.01563 M 32.899414,54.125 c -0.296877,4e-6 -0.532554,0.101566 -0.707031,0.304687 -0.171877,0.203129 -0.272137,0.498701 -0.300781,0.886719 l 1.921875,0 c -4e-6,-0.17708 -0.01823,-0.338538 -0.05469,-0.484375 -0.03386,-0.148434 -0.08855,-0.274736 -0.164062,-0.378906 -0.07292,-0.104163 -0.16667,-0.184892 -0.28125,-0.242188 -0.114586,-0.05729 -0.252607,-0.08593 -0.414063,-0.08594" inkscape:connector-curvature="0"/>
   <path d="m 36.575195,55.703125 -1.378906,-2.089844 0.808594,0 0.976562,1.601563 0.976563,-1.601563 0.808594,0 -1.386719,2.089844 1.457031,2.199219 -0.808594,0 -1.046875,-1.703125 -1.054687,1.703125 -0.808594,0 1.457031,-2.199219" inkscape:connector-curvature="0"/>
   <path d="m 40.958008,57.398437 c 0.04687,10e-7 0.09896,-0.0026 0.15625,-0.0078 0.05989,-0.0052 0.117185,-0.01172 0.171875,-0.01953 0.05468,-0.0078 0.104164,-0.01693 0.148437,-0.02734 0.04687,-0.01042 0.08203,-0.01953 0.105469,-0.02734 l 0,0.539063 c -0.03386,0.01563 -0.07682,0.03125 -0.128906,0.04687 -0.05209,0.01563 -0.109378,0.02865 -0.171875,0.03906 -0.0625,0.01302 -0.127606,0.02214 -0.195313,0.02734 -0.06771,0.0078 -0.134116,0.01172 -0.199218,0.01172 -0.16146,0 -0.3112,-0.02083 -0.449219,-0.0625 -0.138022,-0.04167 -0.257814,-0.113281 -0.359375,-0.214844 -0.09896,-0.101562 -0.177084,-0.238281 -0.234375,-0.410156 -0.05729,-0.174479 -0.08594,-0.393228 -0.08594,-0.65625 l 0,-2.488282 -0.605468,0 0,-0.316406 0.605468,-0.304687 0.304688,-0.898438 0.410156,0 0,0.984375 1.078125,0 0,0.535156 -1.078125,0 0,2.488282 c -10e-7,0.252605 0.04036,0.442709 0.121094,0.570312 0.08333,0.127605 0.218748,0.191407 0.40625,0.191406" inkscape:connector-curvature="0"/>
   <path d="m 46.15332,57.980469 c -0.28646,0 -0.548179,-0.04818 -0.785156,-0.144532 -0.23698,-0.09635 -0.441407,-0.236978 -0.613281,-0.421875 -0.169272,-0.184895 -0.300782,-0.414061 -0.394531,-0.6875 -0.09375,-0.273436 -0.140626,-0.585935 -0.140625,-0.9375 -10e-7,-0.354164 0.04297,-0.67057 0.128906,-0.949218 0.08594,-0.278643 0.20703,-0.51432 0.363281,-0.707032 0.156249,-0.195308 0.342447,-0.343745 0.558594,-0.445312 0.218748,-0.101558 0.459633,-0.152339 0.722656,-0.152344 0.25781,5e-6 0.489581,0.04688 0.695313,0.140625 0.205726,0.09115 0.380205,0.221358 0.523437,0.390625 0.143226,0.166671 0.252601,0.368493 0.328125,0.605469 0.07812,0.234378 0.117184,0.494794 0.117188,0.78125 l 0,0.441406 -2.703125,0 c 0.01302,0.502606 0.118488,0.872397 0.316406,1.109375 0.200519,0.23698 0.497394,0.35547 0.890625,0.355469 0.13281,10e-7 0.255206,-0.0065 0.367187,-0.01953 0.114581,-0.01302 0.223956,-0.03125 0.328125,-0.05469 0.106768,-0.02604 0.209632,-0.05729 0.308594,-0.09375 0.09895,-0.03906 0.199215,-0.08203 0.300781,-0.128906 l 0,0.632812 c -0.10417,0.04948 -0.207034,0.09245 -0.308593,0.128907 -0.09896,0.03646 -0.201827,0.06641 -0.308594,0.08984 -0.10417,0.02344 -0.213545,0.04037 -0.328125,0.05078 -0.111982,0.01042 -0.234378,0.01563 -0.367188,0.01563 M 45.977539,54.125 c -0.296877,4e-6 -0.532554,0.101566 -0.707031,0.304687 -0.171877,0.203129 -0.272137,0.498701 -0.300781,0.886719 l 1.921875,0 c -4e-6,-0.17708 -0.01823,-0.338538 -0.05469,-0.484375 -0.03386,-0.148434 -0.08855,-0.274736 -0.164062,-0.378906 -0.07292,-0.104163 -0.16667,-0.184892 -0.28125,-0.242188 -0.114586,-0.05729 -0.252607,-0.08593 -0.414063,-0.08594" inkscape:connector-curvature="0"/>
   <path d="m 51.387695,57.328125 -0.03125,0 c -0.0573,0.08854 -0.125003,0.173177 -0.203125,0.253906 -0.07552,0.07813 -0.164065,0.147136 -0.265625,0.207031 -0.09896,0.0599 -0.21094,0.106771 -0.335937,0.140625 -0.125003,0.03385 -0.265627,0.05078 -0.421875,0.05078 -0.24219,0 -0.463543,-0.04687 -0.664063,-0.140625 -0.200522,-0.09375 -0.372397,-0.233073 -0.515625,-0.417969 -0.14323,-0.187499 -0.253907,-0.41927 -0.332031,-0.695313 -0.07813,-0.27604 -0.117188,-0.596352 -0.117187,-0.960937 -10e-7,-0.367185 0.03906,-0.688799 0.117187,-0.964844 0.07812,-0.278642 0.188801,-0.511715 0.332031,-0.699219 0.143228,-0.187496 0.315103,-0.32812 0.515625,-0.421875 0.20052,-0.09635 0.421873,-0.144526 0.664063,-0.144531 0.153643,5e-6 0.292966,0.01693 0.417969,0.05078 0.124997,0.03386 0.236976,0.07943 0.335937,0.136719 0.10156,0.0573 0.191403,0.123702 0.269531,0.199219 0.07812,0.07552 0.14583,0.154952 0.203125,0.238281 l 0.04687,0 c -0.0078,-0.08854 -0.01563,-0.173173 -0.02344,-0.253906 -0.0052,-0.0677 -0.01042,-0.136715 -0.01563,-0.207031 -0.0052,-0.07291 -0.0078,-0.130204 -0.0078,-0.171875 l 0,-1.703125 0.710938,0 0,6.078125 -0.574219,0 -0.105469,-0.574219 m -1.121093,0.0625 c 0.197914,10e-7 0.36458,-0.02995 0.5,-0.08984 0.138018,-0.05989 0.248695,-0.151041 0.332031,-0.273437 0.08593,-0.122395 0.148434,-0.274739 0.1875,-0.457032 0.04166,-0.184894 0.0651,-0.399737 0.07031,-0.644531 l 0,-0.160156 c -3e-6,-0.263018 -0.01823,-0.496091 -0.05469,-0.699219 -0.03386,-0.205726 -0.09375,-0.377601 -0.179688,-0.515625 -0.08334,-0.140621 -0.195315,-0.24609 -0.335937,-0.316406 -0.140628,-0.07291 -0.316409,-0.109371 -0.527344,-0.109375 -0.351564,4e-6 -0.610679,0.141931 -0.777344,0.425781 -0.164063,0.283857 -0.246095,0.691409 -0.246093,1.222656 -2e-6,0.544273 0.08203,0.950523 0.246093,1.21875 0.166665,0.265626 0.428384,0.398439 0.785157,0.398438" inkscape:connector-curvature="0"/>
   <path d="m 54.137695,57.902344 -0.710937,0 0,-4.289063 0.710937,0 0,4.289063 M 53.37207,52.453125 c 0,-0.156244 0.03906,-0.269526 0.117188,-0.339844 0.08073,-0.07031 0.179686,-0.105463 0.296875,-0.105469 0.05729,6e-6 0.110676,0.0091 0.160156,0.02734 0.05208,0.01563 0.09635,0.04167 0.132813,0.07813 0.03906,0.03646 0.06901,0.08334 0.08984,0.140625 0.02344,0.05469 0.03515,0.1211 0.03516,0.199219 -2e-6,0.151047 -0.04167,0.264328 -0.125,0.339844 -0.08073,0.07292 -0.178387,0.10938 -0.292969,0.109375 -0.117189,5e-6 -0.216147,-0.03645 -0.296875,-0.109375 -0.07813,-0.07291 -0.117188,-0.186193 -0.117188,-0.339844" inkscape:connector-curvature="0"/>
   <path d="m 56.801758,57.398437 c 0.04687,10e-7 0.09896,-0.0026 0.15625,-0.0078 0.05989,-0.0052 0.117185,-0.01172 0.171875,-0.01953 0.05468,-0.0078 0.104164,-0.01693 0.148437,-0.02734 0.04687,-0.01042 0.08203,-0.01953 0.105469,-0.02734 l 0,0.539063 c -0.03386,0.01563 -0.07682,0.03125 -0.128906,0.04687 -0.05209,0.01563 -0.109378,0.02865 -0.171875,0.03906 -0.0625,0.01302 -0.127606,0.02214 -0.195313,0.02734 -0.06771,0.0078 -0.134116,0.01172 -0.199218,0.01172 -0.16146,0 -0.3112,-0.02083 -0.449219,-0.0625 -0.138022,-0.04167 -0.257814,-0.113281 -0.359375,-0.214844 -0.09896,-0.101562 -0.177084,-0.238281 -0.234375,-0.410156 -0.05729,-0.174479 -0.08594,-0.393228 -0.08594,-0.65625 l 0,-2.488282 -0.605468,0 0,-0.316406 0.605468,-0.304687 0.304688,-0.898438 0.410156,0 0,0.984375 1.078125,0 0,0.535156 -1.078125,0 0,2.488282 c -10e-7,0.252605 0.04036,0.442709 0.121094,0.570312 0.08333,0.127605 0.218748,0.191407 0.40625,0.191406" inkscape:connector-curvature="0"/>
   <path d="m 61.719727,55.75 c -5e-6,0.356773 -0.04427,0.674481 -0.132813,0.953125 -0.08594,0.276043 -0.210941,0.509115 -0.375,0.699219 -0.161462,0.1875 -0.358076,0.330729 -0.589844,0.429687 -0.231773,0.09896 -0.49219,0.148438 -0.78125,0.148438 -0.268231,0 -0.515626,-0.04948 -0.742187,-0.148438 -0.226564,-0.09896 -0.423178,-0.242187 -0.589844,-0.429687 C 58.344726,57.21224 58.21582,56.979168 58.12207,56.703125 58.030924,56.424481 57.985351,56.106773 57.985352,55.75 c -10e-7,-0.354164 0.04297,-0.667966 0.128906,-0.941406 0.08854,-0.276039 0.213541,-0.507809 0.375,-0.695313 0.161457,-0.1901 0.358071,-0.333329 0.589844,-0.429687 0.234373,-0.09895 0.496091,-0.148433 0.785156,-0.148438 0.268226,5e-6 0.515622,0.04948 0.742187,0.148438 0.22656,0.09636 0.421872,0.239587 0.585938,0.429687 0.166663,0.187504 0.295569,0.419274 0.386719,0.695313 0.09374,0.27344 0.14062,0.587242 0.140625,0.941406 m -3,0 c -2e-6,0.544272 0.08854,0.954428 0.265625,1.230469 0.179685,0.273438 0.47005,0.410157 0.871093,0.410156 0.401039,10e-7 0.688799,-0.136718 0.863282,-0.410156 0.17708,-0.276041 0.265621,-0.686197 0.265625,-1.230469 -4e-6,-0.544268 -0.08985,-0.950518 -0.269532,-1.21875 -0.177086,-0.27083 -0.466148,-0.406246 -0.867187,-0.40625 -0.401044,4e-6 -0.690106,0.13542 -0.867188,0.40625 -0.17448,0.268232 -0.26172,0.674482 -0.261718,1.21875" inkscape:connector-curvature="0"/>
   <path d="m 64.704102,53.535156 c 0.07552,5e-6 0.160153,0.0039 0.253906,0.01172 0.09375,0.0052 0.174476,0.01433 0.242187,0.02734 l -0.09375,0.65625 c -0.07292,-0.01302 -0.14844,-0.02343 -0.226562,-0.03125 -0.07552,-0.01041 -0.147138,-0.01562 -0.214844,-0.01563 -0.164065,3e-6 -0.313804,0.03386 -0.449219,0.101562 -0.135418,0.06511 -0.252606,0.16016 -0.351562,0.285156 -0.09636,0.1224 -0.171877,0.270837 -0.226563,0.445313 -0.05208,0.171878 -0.07813,0.363284 -0.07813,0.574219 l 0,2.3125 -0.710937,0 0,-4.289063 0.578125,0 0.08594,0.785156 0.03125,0 c 0.0651,-0.111975 0.134113,-0.220048 0.207032,-0.324218 0.07552,-0.104163 0.158852,-0.195309 0.25,-0.273438 0.09375,-0.08073 0.197914,-0.144527 0.3125,-0.191406 0.114581,-0.04948 0.244789,-0.07421 0.390625,-0.07422" inkscape:connector-curvature="0"/>
  </g>
  <g fill="white" fill-opacity="1" stroke="none" transform="matrix(0.8642 0 0 0.8642 2.381 964.61)">
   <path d="m 31.227539,67.863281 c -4e-6,0.236983 -0.03646,0.464848 -0.109375,0.683594 -0.07032,0.218753 -0.187504,0.412763 -0.351562,0.582031 -0.164067,0.16667 -0.381514,0.300784 -0.652344,0.402344 -0.268232,0.09896 -0.600263,0.14844 -0.996094,0.148437 l -0.585937,0 0,2.222657 -0.726563,0 0,-5.710938 1.414063,0 c 0.348955,6e-6 0.649736,0.03777 0.902343,0.113281 0.252601,0.07292 0.460934,0.180995 0.625,0.324219 0.164059,0.14063 0.285153,0.315109 0.363282,0.523438 0.07812,0.208338 0.117183,0.445317 0.117187,0.710937 m -2.695312,1.199219 0.503906,0 c 0.242185,3e-6 0.453122,-0.02083 0.632812,-0.0625 0.182289,-0.04166 0.332029,-0.10807 0.449219,-0.199219 0.119789,-0.09375 0.209632,-0.213538 0.269531,-0.359375 0.05989,-0.148434 0.08984,-0.328121 0.08984,-0.539062 -3e-6,-0.369788 -0.106774,-0.643225 -0.320312,-0.820313 -0.213545,-0.179682 -0.546878,-0.269526 -1,-0.269531 l -0.625,0 0,2.25" inkscape:connector-curvature="0"/>
   <path d="m 34.99707,71.902344 0,-2.761719 c -3e-6,-0.338539 -0.06901,-0.592445 -0.207031,-0.761719 -0.13542,-0.169267 -0.348961,-0.253902 -0.640625,-0.253906 -0.21094,4e-6 -0.388023,0.03386 -0.53125,0.101562 -0.143231,0.06771 -0.259116,0.167973 -0.347656,0.300782 -0.08594,0.132815 -0.148439,0.295576 -0.1875,0.488281 -0.03646,0.192711 -0.05469,0.414065 -0.05469,0.664062 l 0,2.222657 -0.710937,0 0,-6.078125 0.710937,0 0,1.804687 -0.03125,0.5625 0.03906,0 c 0.0651,-0.111975 0.141925,-0.208329 0.230469,-0.289062 0.09114,-0.08333 0.190102,-0.15234 0.296875,-0.207032 0.106768,-0.05468 0.220049,-0.09505 0.339843,-0.121093 0.11979,-0.02604 0.242185,-0.03906 0.367188,-0.03906 0.476559,5e-6 0.834632,0.125004 1.074219,0.375 0.242183,0.2474 0.363277,0.644535 0.363281,1.191406 l 0,2.800782 -0.710938,0" inkscape:connector-curvature="0"/>
   <path d="m 40.532227,69.75 c -5e-6,0.356773 -0.04427,0.674481 -0.132813,0.953125 -0.08594,0.276043 -0.210941,0.509115 -0.375,0.699219 -0.161462,0.1875 -0.358076,0.330729 -0.589844,0.429687 -0.231773,0.09896 -0.49219,0.148438 -0.78125,0.148438 -0.268231,0 -0.515626,-0.04948 -0.742187,-0.148438 -0.226564,-0.09896 -0.423178,-0.242187 -0.589844,-0.429687 C 37.157226,71.21224 37.02832,70.979168 36.93457,70.703125 36.843424,70.424481 36.797851,70.106773 36.797852,69.75 c -10e-7,-0.354164 0.04297,-0.667966 0.128906,-0.941406 0.08854,-0.276039 0.213541,-0.507809 0.375,-0.695313 0.161457,-0.1901 0.358071,-0.333329 0.589844,-0.429687 0.234373,-0.09895 0.496091,-0.148433 0.785156,-0.148438 0.268226,5e-6 0.515622,0.04948 0.742187,0.148438 0.22656,0.09636 0.421872,0.239587 0.585938,0.429687 0.166663,0.187504 0.295569,0.419274 0.386719,0.695313 0.09374,0.27344 0.14062,0.587242 0.140625,0.941406 m -3,0 c -2e-6,0.544272 0.08854,0.954428 0.265625,1.230469 0.179685,0.273438 0.47005,0.410157 0.871093,0.410156 0.401039,10e-7 0.688799,-0.136718 0.863282,-0.410156 0.17708,-0.276041 0.265621,-0.686197 0.265625,-1.230469 -4e-6,-0.544268 -0.08985,-0.950518 -0.269532,-1.21875 -0.177086,-0.27083 -0.466148,-0.406246 -0.867187,-0.40625 -0.401044,4e-6 -0.690106,0.13542 -0.867188,0.40625 -0.17448,0.268232 -0.26172,0.674482 -0.261718,1.21875" inkscape:connector-curvature="0"/>
   <path d="m 42.958008,71.398437 c 0.04687,10e-7 0.09896,-0.0026 0.15625,-0.0078 0.05989,-0.0052 0.117185,-0.01172 0.171875,-0.01953 0.05468,-0.0078 0.104164,-0.01693 0.148437,-0.02734 0.04687,-0.01042 0.08203,-0.01953 0.105469,-0.02734 l 0,0.539063 c -0.03386,0.01563 -0.07682,0.03125 -0.128906,0.04687 -0.05209,0.01563 -0.109378,0.02865 -0.171875,0.03906 -0.0625,0.01302 -0.127606,0.02214 -0.195313,0.02734 -0.06771,0.0078 -0.134116,0.01172 -0.199218,0.01172 -0.16146,0 -0.3112,-0.02083 -0.449219,-0.0625 -0.138022,-0.04167 -0.257814,-0.113281 -0.359375,-0.214844 -0.09896,-0.101562 -0.177084,-0.238281 -0.234375,-0.410156 -0.05729,-0.174479 -0.08594,-0.393228 -0.08594,-0.65625 l 0,-2.488282 -0.605468,0 0,-0.316406 0.605468,-0.304687 0.304688,-0.898438 0.410156,0 0,0.984375 1.078125,0 0,0.535156 -1.078125,0 0,2.488282 c -10e-7,0.252605 0.04036,0.442709 0.121094,0.570312 0.08333,0.127605 0.218748,0.191407 0.40625,0.191406" inkscape:connector-curvature="0"/>
   <path d="m 47.875977,69.75 c -5e-6,0.356773 -0.04427,0.674481 -0.132813,0.953125 -0.08594,0.276043 -0.210941,0.509115 -0.375,0.699219 -0.161462,0.1875 -0.358076,0.330729 -0.589844,0.429687 -0.231773,0.09896 -0.49219,0.148438 -0.78125,0.148438 -0.268231,0 -0.515626,-0.04948 -0.742187,-0.148438 -0.226564,-0.09896 -0.423178,-0.242187 -0.589844,-0.429687 C 44.500976,71.21224 44.37207,70.979168 44.27832,70.703125 44.187174,70.424481 44.141601,70.106773 44.141602,69.75 c -10e-7,-0.354164 0.04297,-0.667966 0.128906,-0.941406 0.08854,-0.276039 0.213541,-0.507809 0.375,-0.695313 0.161457,-0.1901 0.358071,-0.333329 0.589844,-0.429687 0.234373,-0.09895 0.496091,-0.148433 0.785156,-0.148438 0.268226,5e-6 0.515622,0.04948 0.742187,0.148438 0.22656,0.09636 0.421872,0.239587 0.585938,0.429687 0.166663,0.187504 0.295569,0.419274 0.386719,0.695313 0.09374,0.27344 0.14062,0.587242 0.140625,0.941406 m -3,0 c -2e-6,0.544272 0.08854,0.954428 0.265625,1.230469 0.179685,0.273438 0.47005,0.410157 0.871093,0.410156 0.401039,10e-7 0.688799,-0.136718 0.863282,-0.410156 0.17708,-0.276041 0.265621,-0.686197 0.265625,-1.230469 -4e-6,-0.544268 -0.08985,-0.950518 -0.269532,-1.21875 -0.177086,-0.27083 -0.466148,-0.406246 -0.867187,-0.40625 -0.401044,4e-6 -0.690106,0.13542 -0.867188,0.40625 -0.17448,0.268232 -0.26172,0.674482 -0.261718,1.21875" inkscape:connector-curvature="0"/>
   <path d="m 52.77832,71.980469 c -0.28646,0 -0.548179,-0.04818 -0.785156,-0.144532 -0.23698,-0.09635 -0.441407,-0.236978 -0.613281,-0.421875 -0.169272,-0.184895 -0.300782,-0.414061 -0.394531,-0.6875 -0.09375,-0.273436 -0.140626,-0.585935 -0.140625,-0.9375 -10e-7,-0.354164 0.04297,-0.67057 0.128906,-0.949218 0.08594,-0.278643 0.20703,-0.51432 0.363281,-0.707032 0.156249,-0.195308 0.342447,-0.343745 0.558594,-0.445312 0.218748,-0.101558 0.459633,-0.152339 0.722656,-0.152344 0.25781,5e-6 0.489581,0.04688 0.695313,0.140625 0.205726,0.09115 0.380205,0.221358 0.523437,0.390625 0.143226,0.166671 0.252601,0.368493 0.328125,0.605469 0.07812,0.234378 0.117184,0.494794 0.117188,0.78125 l 0,0.441406 -2.703125,0 c 0.01302,0.502606 0.118488,0.872397 0.316406,1.109375 0.200519,0.23698 0.497394,0.35547 0.890625,0.355469 0.13281,10e-7 0.255206,-0.0065 0.367187,-0.01953 0.114581,-0.01302 0.223956,-0.03125 0.328125,-0.05469 0.106768,-0.02604 0.209632,-0.05729 0.308594,-0.09375 0.09895,-0.03906 0.199215,-0.08203 0.300781,-0.128906 l 0,0.632812 c -0.10417,0.04948 -0.207034,0.09245 -0.308593,0.128907 -0.09896,0.03646 -0.201827,0.06641 -0.308594,0.08984 -0.10417,0.02344 -0.213545,0.04036 -0.328125,0.05078 -0.111982,0.01042 -0.234378,0.01563 -0.367188,0.01563 M 52.602539,68.125 c -0.296877,4e-6 -0.532554,0.101566 -0.707031,0.304687 -0.171877,0.203129 -0.272137,0.498701 -0.300781,0.886719 l 1.921875,0 c -4e-6,-0.17708 -0.01823,-0.338538 -0.05469,-0.484375 -0.03386,-0.148434 -0.08855,-0.274736 -0.164062,-0.378906 -0.07292,-0.104163 -0.16667,-0.184892 -0.28125,-0.242188 -0.114586,-0.05729 -0.252607,-0.08593 -0.414063,-0.08594" inkscape:connector-curvature="0"/>
   <path d="m 58.012695,71.328125 -0.03125,0 c -0.0573,0.08854 -0.125003,0.173177 -0.203125,0.253906 -0.07552,0.07813 -0.164065,0.147136 -0.265625,0.207031 -0.09896,0.0599 -0.21094,0.106771 -0.335937,0.140625 -0.125003,0.03386 -0.265627,0.05078 -0.421875,0.05078 -0.24219,0 -0.463543,-0.04687 -0.664063,-0.140625 -0.200522,-0.09375 -0.372397,-0.233073 -0.515625,-0.417969 -0.14323,-0.187499 -0.253907,-0.41927 -0.332031,-0.695313 -0.07813,-0.27604 -0.117188,-0.596352 -0.117187,-0.960937 -10e-7,-0.367185 0.03906,-0.688799 0.117187,-0.964844 0.07812,-0.278642 0.188801,-0.511715 0.332031,-0.699219 0.143228,-0.187496 0.315103,-0.32812 0.515625,-0.421875 0.20052,-0.09635 0.421873,-0.144526 0.664063,-0.144531 0.153643,5e-6 0.292966,0.01693 0.417969,0.05078 0.124997,0.03386 0.236976,0.07943 0.335937,0.136719 0.10156,0.0573 0.191403,0.123702 0.269531,0.199219 0.07812,0.07552 0.14583,0.154952 0.203125,0.238281 l 0.04687,0 c -0.0078,-0.08854 -0.01563,-0.173173 -0.02344,-0.253906 -0.0052,-0.0677 -0.01042,-0.136715 -0.01563,-0.207031 -0.0052,-0.07291 -0.0078,-0.130204 -0.0078,-0.171875 l 0,-1.703125 0.710938,0 0,6.078125 -0.574219,0 -0.105469,-0.574219 m -1.121093,0.0625 c 0.197914,1e-6 0.36458,-0.02995 0.5,-0.08984 0.138018,-0.05989 0.248695,-0.151041 0.332031,-0.273437 0.08593,-0.122395 0.148434,-0.274739 0.1875,-0.457032 0.04166,-0.184894 0.0651,-0.399737 0.07031,-0.644531 l 0,-0.160156 c -3e-6,-0.263018 -0.01823,-0.496091 -0.05469,-0.699219 -0.03386,-0.205726 -0.09375,-0.377601 -0.179688,-0.515625 -0.08334,-0.140621 -0.195315,-0.24609 -0.335937,-0.316406 -0.140628,-0.07291 -0.316409,-0.109371 -0.527344,-0.109375 -0.351564,4e-6 -0.610679,0.141931 -0.777344,0.425781 -0.164063,0.283857 -0.246095,0.691409 -0.246093,1.222656 -2e-6,0.544273 0.08203,0.950523 0.246093,1.21875 0.166665,0.265626 0.428384,0.398439 0.785157,0.398438" inkscape:connector-curvature="0"/>
   <path d="m 60.762695,71.902344 -0.710937,0 0,-4.289063 0.710937,0 0,4.289063 M 59.99707,66.453125 c 0,-0.156244 0.03906,-0.269526 0.117188,-0.339844 0.08073,-0.07031 0.179686,-0.105463 0.296875,-0.105469 0.05729,6e-6 0.110676,0.0091 0.160156,0.02734 0.05208,0.01563 0.09635,0.04167 0.132813,0.07813 0.03906,0.03646 0.06901,0.08334 0.08984,0.140625 0.02344,0.05469 0.03515,0.1211 0.03516,0.199219 -2e-6,0.151047 -0.04167,0.264328 -0.125,0.339844 -0.08073,0.07292 -0.178387,0.10938 -0.292969,0.109375 -0.117189,5e-6 -0.216147,-0.03645 -0.296875,-0.109375 -0.07813,-0.07291 -0.117188,-0.186193 -0.117188,-0.339844" inkscape:connector-curvature="0"/>
   <path d="m 63.426758,71.398437 c 0.04687,10e-7 0.09896,-0.0026 0.15625,-0.0078 0.05989,-0.0052 0.117185,-0.01172 0.171875,-0.01953 0.05468,-0.0078 0.104164,-0.01693 0.148437,-0.02734 0.04687,-0.01042 0.08203,-0.01953 0.105469,-0.02734 l 0,0.539063 c -0.03386,0.01563 -0.07682,0.03125 -0.128906,0.04687 -0.05209,0.01563 -0.109378,0.02865 -0.171875,0.03906 -0.0625,0.01302 -0.127606,0.02214 -0.195313,0.02734 -0.06771,0.0078 -0.134116,0.01172 -0.199218,0.01172 -0.16146,0 -0.3112,-0.02083 -0.449219,-0.0625 -0.138022,-0.04167 -0.257814,-0.113281 -0.359375,-0.214844 -0.09896,-0.101562 -0.177084,-0.238281 -0.234375,-0.410156 -0.05729,-0.174479 -0.08594,-0.393228 -0.08594,-0.65625 l 0,-2.488282 -0.605468,0 0,-0.316406 0.605468,-0.304687 0.304688,-0.898438 0.410156,0 0,0.984375 1.078125,0 0,0.535156 -1.078125,0 0,2.488282 c -10e-7,0.252605 0.04036,0.442709 0.121094,0.570312 0.08333,0.127605 0.218748,0.191407 0.40625,0.191406" inkscape:connector-curvature="0"/>
   <path d="m 68.344727,69.75 c -5e-6,0.356773 -0.04427,0.674481 -0.132813,0.953125 -0.08594,0.276043 -0.210941,0.509115 -0.375,0.699219 -0.161462,0.1875 -0.358076,0.330729 -0.589844,0.429687 -0.231773,0.09896 -0.49219,0.148438 -0.78125,0.148438 -0.268231,0 -0.515626,-0.04948 -0.742187,-0.148438 -0.226564,-0.09896 -0.423178,-0.242187 -0.589844,-0.429687 C 64.969726,71.21224 64.84082,70.979168 64.74707,70.703125 64.655924,70.424481 64.610351,70.106773 64.610352,69.75 c -1e-6,-0.354164 0.04297,-0.667966 0.128906,-0.941406 0.08854,-0.276039 0.213541,-0.507809 0.375,-0.695313 0.161457,-0.1901 0.358071,-0.333329 0.589844,-0.429687 0.234373,-0.09895 0.496091,-0.148433 0.785156,-0.148438 0.268226,5e-6 0.515622,0.04948 0.742187,0.148438 0.22656,0.09636 0.421872,0.239587 0.585938,0.429687 0.166663,0.187504 0.295569,0.419274 0.386719,0.695313 0.09374,0.27344 0.14062,0.587242 0.140625,0.941406 m -3,0 c -2e-6,0.544272 0.08854,0.954428 0.265625,1.230469 0.179685,0.273438 0.47005,0.410157 0.871093,0.410156 0.401039,10e-7 0.688799,-0.136718 0.863282,-0.410156 0.17708,-0.276041 0.265621,-0.686197 0.265625,-1.230469 -4e-6,-0.544268 -0.08985,-0.950518 -0.269532,-1.21875 -0.177086,-0.27083 -0.466148,-0.406246 -0.867187,-0.40625 -0.401044,4e-6 -0.690106,0.13542 -0.867188,0.40625 -0.17448,0.268232 -0.26172,0.674482 -0.261718,1.21875" inkscape:connector-curvature="0"/>
   <path d="m 71.329102,67.535156 c 0.07552,5e-6 0.160153,0.0039 0.253906,0.01172 0.09375,0.0052 0.174476,0.01433 0.242187,0.02734 l -0.09375,0.65625 c -0.07292,-0.01302 -0.14844,-0.02343 -0.226562,-0.03125 -0.07552,-0.01041 -0.147138,-0.01562 -0.214844,-0.01563 -0.164065,3e-6 -0.313804,0.03386 -0.449219,0.101562 -0.135418,0.06511 -0.252606,0.16016 -0.351562,0.285156 -0.09636,0.1224 -0.171877,0.270837 -0.226563,0.445313 -0.05208,0.171878 -0.07813,0.363284 -0.07813,0.574219 l 0,2.3125 -0.710937,0 0,-4.289063 0.578125,0 0.08594,0.785156 0.03125,0 c 0.0651,-0.111975 0.134113,-0.220048 0.207032,-0.324218 0.07552,-0.104163 0.158852,-0.195309 0.25,-0.273438 0.09375,-0.08073 0.197914,-0.144527 0.3125,-0.191406 0.114581,-0.04948 0.244789,-0.07421 0.390625,-0.07422" inkscape:connector-curvature="0"/>
  </g>
  <g fill="#666" fill-opacity="1" stroke="none" transform="matrix(0.8642 0 0 0.8642 2.381 965.85)">
   <path d="m 29.469727,85.902344 -0.730469,0 0,-5.070313 -1.632813,0 0,-0.640625 3.992188,0 0,0.640625 -1.628906,0 0,5.070313" inkscape:connector-curvature="0"/>
   <path d="m 33.075195,85.980469 c -0.28646,0 -0.548179,-0.04818 -0.785156,-0.144532 -0.23698,-0.09635 -0.441407,-0.236978 -0.613281,-0.421875 -0.169272,-0.184895 -0.300782,-0.414061 -0.394531,-0.6875 -0.09375,-0.273436 -0.140626,-0.585935 -0.140625,-0.9375 -10e-7,-0.354164 0.04297,-0.67057 0.128906,-0.949218 0.08594,-0.278643 0.20703,-0.51432 0.363281,-0.707032 0.156249,-0.195308 0.342447,-0.343745 0.558594,-0.445312 0.218748,-0.101558 0.459633,-0.152339 0.722656,-0.152344 0.25781,5e-6 0.489581,0.04688 0.695313,0.140625 0.205726,0.09115 0.380205,0.221358 0.523437,0.390625 0.143226,0.166671 0.252601,0.368493 0.328125,0.605469 0.07812,0.234378 0.117184,0.494794 0.117188,0.78125 l 0,0.441406 -2.703125,0 c 0.01302,0.502606 0.118488,0.872397 0.316406,1.109375 0.200519,0.23698 0.497394,0.35547 0.890625,0.355469 0.13281,10e-7 0.255206,-0.0065 0.367187,-0.01953 0.114581,-0.01302 0.223956,-0.03125 0.328125,-0.05469 0.106768,-0.02604 0.209632,-0.05729 0.308594,-0.09375 0.09895,-0.03906 0.199215,-0.08203 0.300781,-0.128906 l 0,0.632812 c -0.10417,0.04948 -0.207034,0.09245 -0.308593,0.128907 -0.09896,0.03646 -0.201827,0.06641 -0.308594,0.08984 -0.10417,0.02344 -0.213545,0.04036 -0.328125,0.05078 -0.111982,0.01042 -0.234378,0.01563 -0.367188,0.01563 M 32.899414,82.125 c -0.296877,4e-6 -0.532554,0.101566 -0.707031,0.304687 -0.171877,0.203129 -0.272137,0.498701 -0.300781,0.886719 l 1.921875,0 c -4e-6,-0.17708 -0.01823,-0.338538 -0.05469,-0.484375 -0.03386,-0.148434 -0.08855,-0.274736 -0.164062,-0.378906 -0.07292,-0.104163 -0.16667,-0.184892 -0.28125,-0.242188 -0.114586,-0.05729 -0.252607,-0.08593 -0.414063,-0.08594" inkscape:connector-curvature="0"/>
   <path d="m 37.516602,81.535156 c 0.07552,5e-6 0.160153,0.0039 0.253906,0.01172 0.09375,0.0052 0.174476,0.01433 0.242187,0.02734 l -0.09375,0.65625 c -0.07292,-0.01302 -0.14844,-0.02343 -0.226562,-0.03125 -0.07552,-0.01041 -0.147138,-0.01562 -0.214844,-0.01563 -0.164065,3e-6 -0.313804,0.03386 -0.449219,0.101562 -0.135418,0.06511 -0.252606,0.16016 -0.351562,0.285156 -0.09636,0.1224 -0.171877,0.270837 -0.226563,0.445313 -0.05208,0.171878 -0.07813,0.363284 -0.07813,0.574219 l 0,2.3125 -0.710937,0 0,-4.289063 0.578125,0 0.08594,0.785156 0.03125,0 c 0.0651,-0.111975 0.134113,-0.220048 0.207032,-0.324218 0.07552,-0.104163 0.158852,-0.195309 0.25,-0.273438 0.09375,-0.08073 0.197914,-0.144527 0.3125,-0.191406 0.114581,-0.04948 0.244789,-0.07421 0.390625,-0.07422" inkscape:connector-curvature="0"/>
   <path d="m 43.985352,85.902344 0,-2.761719 c -6e-6,-0.338539 -0.06511,-0.592445 -0.195313,-0.761719 -0.130214,-0.169267 -0.332036,-0.253902 -0.605469,-0.253906 -0.190109,4e-6 -0.351567,0.03125 -0.484375,0.09375 -0.132817,0.0599 -0.242191,0.149743 -0.328125,0.269531 -0.08334,0.117191 -0.144535,0.264326 -0.183593,0.441406 -0.03907,0.174482 -0.0586,0.376305 -0.05859,0.605469 l 0,2.367188 -0.714844,0 0,-2.761719 c -3e-6,-0.338539 -0.06511,-0.592445 -0.195312,-0.761719 -0.127608,-0.169267 -0.328128,-0.253902 -0.601563,-0.253906 -0.200523,4e-6 -0.368492,0.03386 -0.503906,0.101562 -0.135419,0.06771 -0.244794,0.167973 -0.328125,0.300782 -0.08073,0.132815 -0.139325,0.295576 -0.175781,0.488281 -0.03386,0.192711 -0.05078,0.414065 -0.05078,0.664062 l 0,2.222657 -0.710937,0 0,-4.289063 0.578125,0 0.101562,0.578125 0.03906,0 c 0.0625,-0.111975 0.136717,-0.208329 0.222656,-0.289062 0.08594,-0.08333 0.179686,-0.15234 0.28125,-0.207032 0.104165,-0.05468 0.21354,-0.09505 0.328125,-0.121093 0.117185,-0.02604 0.235675,-0.03906 0.355469,-0.03906 0.312497,5e-6 0.571611,0.0573 0.777344,0.171875 0.208329,0.114588 0.361975,0.294275 0.460937,0.539063 l 0.03125,0 c 0.0677,-0.122392 0.148434,-0.227861 0.242188,-0.316407 0.09635,-0.08854 0.200516,-0.161454 0.3125,-0.21875 0.114578,-0.05989 0.23437,-0.104162 0.359375,-0.132812 0.124995,-0.02864 0.252599,-0.04296 0.382812,-0.04297 0.455724,5e-6 0.798171,0.125004 1.027344,0.375 0.231764,0.2474 0.34765,0.644535 0.347656,1.191406 l 0,2.800782 -0.710937,0" inkscape:connector-curvature="0"/>
   <path d="m 46.731445,85.902344 -0.710937,0 0,-4.289063 0.710937,0 0,4.289063 M 45.96582,80.453125 c 0,-0.156244 0.03906,-0.269526 0.117188,-0.339844 0.08073,-0.07031 0.179686,-0.105463 0.296875,-0.105469 0.05729,6e-6 0.110676,0.0091 0.160156,0.02734 0.05208,0.01563 0.09635,0.04167 0.132813,0.07813 0.03906,0.03646 0.06901,0.08334 0.08984,0.140625 0.02344,0.05469 0.03515,0.1211 0.03516,0.199219 -2e-6,0.151047 -0.04167,0.264328 -0.125,0.339844 -0.08073,0.07292 -0.178387,0.10938 -0.292969,0.109375 -0.117189,5e-6 -0.216147,-0.03645 -0.296875,-0.109375 -0.07813,-0.07291 -0.117188,-0.186193 -0.117188,-0.339844" inkscape:connector-curvature="0"/>
   <path d="m 50.77832,85.902344 0,-2.761719 c -3e-6,-0.338539 -0.06901,-0.592445 -0.207031,-0.761719 -0.13542,-0.169267 -0.348961,-0.253902 -0.640625,-0.253906 -0.21094,4e-6 -0.388023,0.03386 -0.53125,0.101562 -0.143231,0.06771 -0.259116,0.167973 -0.347656,0.300782 -0.08594,0.132815 -0.148439,0.295576 -0.1875,0.488281 -0.03646,0.192711 -0.05469,0.414065 -0.05469,0.664062 l 0,2.222657 -0.710937,0 0,-4.289063 0.578125,0 0.101562,0.578125 0.03906,0 c 0.0651,-0.111975 0.141925,-0.208329 0.230469,-0.289062 0.09114,-0.08333 0.190102,-0.15234 0.296875,-0.207032 0.106768,-0.05468 0.220049,-0.09505 0.339843,-0.121093 0.11979,-0.02604 0.242185,-0.03906 0.367188,-0.03906 0.476559,5e-6 0.834632,0.125004 1.074219,0.375 0.242183,0.2474 0.363277,0.644535 0.363281,1.191406 l 0,2.800782 -0.710938,0" inkscape:connector-curvature="0"/>
   <path d="m 55.235352,85.902344 -0.144532,-0.59375 -0.03125,0 c -0.08594,0.117188 -0.171877,0.21875 -0.257812,0.304687 -0.08594,0.08333 -0.17969,0.152344 -0.28125,0.207031 -0.101565,0.05469 -0.214846,0.09505 -0.339844,0.121094 -0.125002,0.02604 -0.269533,0.03906 -0.433594,0.03906 -0.179689,0 -0.345053,-0.02604 -0.496093,-0.07813 -0.151043,-0.04948 -0.282553,-0.126302 -0.394532,-0.230469 -0.109375,-0.10677 -0.195313,-0.239583 -0.257812,-0.398438 -0.0625,-0.161457 -0.09375,-0.351561 -0.09375,-0.570312 -10e-7,-0.427082 0.149739,-0.755206 0.449219,-0.984375 0.302082,-0.229164 0.760415,-0.354164 1.375,-0.375 l 0.71875,-0.02734 0,-0.269531 c -3e-6,-0.174476 -0.01953,-0.320309 -0.05859,-0.4375 -0.03646,-0.117184 -0.09115,-0.210934 -0.164063,-0.28125 -0.07032,-0.07291 -0.158856,-0.124996 -0.265625,-0.15625 -0.104169,-0.03125 -0.22396,-0.04687 -0.359375,-0.04687 -0.216147,4e-6 -0.41797,0.03125 -0.605468,0.09375 -0.184898,0.0625 -0.363283,0.138024 -0.535157,0.226562 l -0.25,-0.535156 c 0.192708,-0.104162 0.407551,-0.192704 0.644532,-0.265625 0.236977,-0.07291 0.485675,-0.10937 0.746093,-0.109375 0.265623,5e-6 0.494789,0.02735 0.6875,0.08203 0.19531,0.05209 0.355466,0.136723 0.480469,0.253907 0.127601,0.114587 0.222653,0.261722 0.285156,0.441406 0.0625,0.179691 0.09375,0.397139 0.09375,0.652344 l 0,2.9375 -0.511718,0 M 53.930664,85.40625 c 0.158852,0 0.305988,-0.02474 0.441406,-0.07422 0.135415,-0.04948 0.252602,-0.123697 0.351563,-0.222656 0.09896,-0.101562 0.175778,-0.227864 0.230469,-0.378906 0.05729,-0.153645 0.08593,-0.333332 0.08594,-0.539063 l 0,-0.386719 -0.558594,0.02734 c -0.234377,0.01042 -0.430991,0.03646 -0.589843,0.07813 -0.158856,0.04167 -0.28646,0.100263 -0.382813,0.175781 -0.09375,0.07292 -0.161459,0.162763 -0.203125,0.269532 -0.04167,0.104168 -0.0625,0.222657 -0.0625,0.355468 -10e-7,0.239585 0.0625,0.415366 0.1875,0.527344 0.127603,0.11198 0.294269,0.167969 0.5,0.167969" inkscape:connector-curvature="0"/>
   <path d="m 57.77832,85.902344 -0.710937,0 0,-6.078125 0.710937,0 0,6.078125" inkscape:connector-curvature="0"/>
  </g>
  <path d="m 81.540175,1024.1514 -2.529381,-4.5556 -0.322049,0.577 2.227474,4.0188 -2.200631,3.9786 0.295206,0.5367 2.529381,-4.5555 z" fill="white" fill-opacity="1" stroke="none" inkscape:connector-curvature="0"/>
  <path d="m 81.540175,1037.493 -2.529381,-4.5556 -0.322049,0.577 2.227474,4.0188 -2.200631,3.9786 0.295206,0.5367 2.529381,-4.5555 z" fill="#4d4d4d" fill-opacity="1" stroke="none" inkscape:connector-curvature="0"/>
  <path d="m 81.540175,1010.8181 -2.529381,-4.5556 -0.322049,0.577 2.227474,4.0188 -2.200631,3.9786 0.295206,0.5367 2.529381,-4.5555 z" fill="#4d4d4d" fill-opacity="1" stroke="none" inkscape:connector-curvature="0"/>
  <path d="m 81.540175,997.48487 -2.529381,-4.5556 -0.322049,0.577 2.227474,4.0188 -2.200631,3.97853 0.295206,0.5367 2.529381,-4.55543 z" fill="#4d4d4d" fill-opacity="1" stroke="none" inkscape:connector-curvature="0"/>
  <path d="m 81.540175,984.15156 -2.529381,-4.5556 -0.322049,0.577 2.227474,4.0188 -2.200631,3.97858 0.295206,0.5367 2.529381,-4.55548 z" fill="#4d4d4d" fill-opacity="1" stroke="none" inkscape:connector-curvature="0"/>
  <path d="m 81.540175,971.63369 -2.529381,-4.5556 -0.322049,0.577 2.227474,4.0188 -2.200631,3.97858 0.295206,0.5367 2.529381,-4.55548 z" fill="#4d4d4d" fill-opacity="1" stroke="none" inkscape:connector-curvature="0"/>
 </g>
</svg>
