<svg height="96" width="96" xmlns="http://www.w3.org/2000/svg" xmlns:sodipodi="http://sodipodi.sourceforge.net/DTD/sodipodi-0.dtd" xmlns:inkscape="http://www.inkscape.org/namespaces/inkscape">
 <defs>
  <linearGradient x2="0" y1="90" y2="5.988" gradientUnits="userSpaceOnUse" id="linearGradient3706">
   <stop stop-color="#3b8132"/>
   <stop stop-color="#55c845" offset="1"/>
  </linearGradient>
  <radialGradient cy="61.949" r="58.02" gradientUnits="userSpaceOnUse" id="radialGradient5232-9" cx="63.98" gradientTransform="matrix(1.09 0 0 0.84045 -21.739 -5.488)">
   <stop stop-color="#88f07b"/>
   <stop stop-color="#b5f2bc" stop-opacity="0.122" offset="1"/>
  </radialGradient>
  <linearGradient x1="59" x2="69" gradientUnits="userSpaceOnUse" id="linearGradient4578">
   <stop stop-color="#ff7c53"/>
   <stop stop-color="#f21919" offset="0.5"/>
   <stop stop-color="#db1414" offset="0.5"/>
   <stop stop-color="#9b1818" offset="1"/>
  </linearGradient>
  <linearGradient x1="59" x2="69" gradientUnits="userSpaceOnUse" id="linearGradient4580">
   <stop stop-color="#f0f0f0"/>
   <stop stop-color="#e6e6e6" offset="0.5"/>
   <stop stop-color="#d2d2d2" offset="0.5"/>
   <stop stop-color="#bebebe" offset="1"/>
  </linearGradient>
  <radialGradient cy="63.28" r="1.74" gradientUnits="userSpaceOnUse" id="radialGradient4582" cx="63.34" gradientTransform="matrix(0.644 0 0 0.644 22.699 22.756)">
   <stop stop-color="#c1c1c1"/>
   <stop stop-color="#3f3f3f" offset="1"/>
  </radialGradient>
  <clipPath clipPathUnits="userSpaceOnUse" id="clipPath3844">
   <rect x="6" rx="22.826" y="6" height="84" width="84"/>
  </clipPath>
  <clipPath clipPathUnits="userSpaceOnUse" id="clipPath3009">
   <path d="m-2 956.36h-96v33.562l96 25.687v-59.25z"/>
  </clipPath>
 </defs>
 <g transform="matrix(1 0 0 1 0 -956.36)">
  <g clip-path="url(#clipPath3844)" transform="matrix(1.0952 0 0 1.0952 -4.571 951.79)">
   <rect x="6" rx="6" y="6" fill="url(#linearGradient3706)" height="84" width="84"/>
   <path d="m36.274 6.0964c1.6501 2.2156 0.11259 5.9154 2.6015 5.8787 1.2119 1.7132-2.4154 0.51104 0.2036 1.8314 1.5061 1.186-1.5934 1.8636 0.27178 2.9279-2.1497 1.1091 0.34844 5.8011 1.9451 6.9754 2.628 2.2121 1.1622-4.6834 4.0945-5.0421 1.5934-1.8188 4.3918-2.9863 6.3793-4.816-1.9423-0.15766-3.0765-1.3665-1.237-2.1153 3.3854 3.4687 0.8489-1.6427-1.0251-2.452 1.8134-0.57676 3.577-0.1544 3.3254-1.6505 1.9163-1.4018-1.8423-1.8544-3.1839-1.5375h-13.375zm-27.802 1.447c-2.4497 0.6979-2.6206 6.5516-0.1583 3.3016 0.6043-1.3352 3.3973-2.9437 0.1583-3.3016zm11.447 0.2035c-1.4123 2.2142 0.20491 3.9895 1.3799 1.2888 0.83171-1.1278-0.61793-1.2475-1.3799-1.2888zm3.529 0.49743c-2.7288 1.2646-0.6726 4.2135-0.60506 4.8693 2.8746 0.99433 4.4732-0.65011 5.5607 2.1604 2.7352 1.5762-0.0538 4.3149-1.0805 5.0282 1.8493-1.6104 5.4042 4.3783 4.4723 1.2143-1.1118-0.81167 2.9852 1.3039 0.85962-1.334-1.9561-3.1511 0.15527-1.4107 0.97995-0.67527 2.8049-2.5148-3.1736-2.8188-1.6812-5.4069-1.309-1.059-3.024-4.267-5.34-3.64-1.55 2.005-0.214-4.3676-2.488-1.1788-0.11789 1.7825-0.0429 4.0444-0.70571 0.95635-0.44407-0.54061 0.764-1.7974 0.0273-1.9932zm-5.5649 0.022612c-1.832 0.6106-1.734 3.0851 0.519 3.3501 0.771-0.879 0.306-3.1835-0.519-3.35zm-7.149 0.7914c-2.3791 0.5636-1.408 2.4816-0.67957 3.0218-2.9449 0.73756 4.4957 0.94266 0.79268 1.4098-3.0808 1.2302 2.9667 2.6796 3.9588 1.221 3.8044 0.93027 0.13691-3.045-0.19704-5.1999-1.6128-1.7306-0.06365 3.9896-1.5219 0.18432-0.50879 1.13-2.1265 0.16652-2.353-0.63694zm75.601 0.2487c-3.1924 1.2492 1.9842 5.9635 0.69765 1.6747-0.12817-0.51787 0.28819-1.8862-0.69765-1.6747zm-66.665 1.899c-2.2941 2.1556 2.916 3.9382-0.65889 5.5442-0.53602-2.0019-1.4583 1.0016-3.5035-0.61511-3.5159 1.4637-5.3139-0.76245-8.2575-2.2884-1.768-0.22006-1.1038 1.6797-1.2209 3.4585v14.748c1.7335 1.8236 0.67633 0.80458 0 0.3016 0.95147 3.24-0.41957 7.9763 3.3309 9.8609 0.63756 1.1824 3.3129 6.22 3.4362 4.7127-1.3412-1.4044-2.7174-5.6146-0.4479-1.8621 2.0328 3.567 4.7748 5.8806 8.7805 6.7294 2.1901 0.74486 3.9912 3.3053 5.9171 2.742 1.089 2.8705-3.2274 5.6271 0.14491 8.3045 1.7605 2.7104 4.7162 4.4882 3.116 8.2934-1.1191 3.7164-0.63993 7.7659-1.6078 11.229-0.30039 2.1077 2.938 7.4573 2.6575 3.1735 0.94557-2.9769 0.92064-6.2525 3.1476-8.3607 3.0471 0.02412 0.58237-3.2761 3.607-2.845 1.8456-2.4189 2.3802-5.3045 5.4949-6.265 0.37205-2.9361 5.1788-7.4329 0.21314-8.5761-1.3496-0.66512-4.8245-0.90428-4.5589-1.2325 0.53803-2.9134-4.4935-3.7428-6.6342-4.9348-2.8108-1.9949-7.0342 3.3139-8.0245-1.2604-0.59088-1.4392-2.7513-1.4626-1.7584-3.6834-1.7894 1.7794-5.2893 1.2386-4.373-2.1978 1.3916-2.8942 6.7356-3.0311 7.6463 0.45006-1.2644-3.8393 2.4439-6.828 4.5025-9.5595 0.41916-1.3056 2.9097-2.4272 2.0527-0.69208 1.4602-0.05266 3.6733-2.6873 1.0794-1.4713-0.0367-2.4027-2.273-1.7194-2.998-1.3782 1.3438-2.1325 8.245-0.96665 5.3551-4.4524-2.2393-0.90723-2.053-6.2014-4.318-3.252 0.1906-1.8172-4.61-5.3745-4.5052-2.3272 0.58599 2.7268 0.10714 5.868-1.1399 7.6553-0.26025-3.9956-7.0757-3.1125-6.1994-7.3703 1.2695-2.0293 2.7529-4.8355 2.8942-4.5831 2.275-0.86851 4.1046-3.3948 1.4678-5.0556-0.14092 1.4475-1.983 4.4339-1.7237 0.82192-1.7058 2.0222-1.3162-3.2178-2.9138-3.7613zm54.45 1.4018c-3.9959 0.97735-5.5801 4.7935-7.5568 7.9542-2.9139 1.3136-2.8029 6.9549 0.45241 5.1531 0.87128 1.5215-0.60951 3.9197 1.9283 1.9303 2.047-2.7086 0.35794-7.0892 3.8414-8.7971 0.25374 1.328-3.2133 6.2867 0.83699 5.4717 3.6616 0.13814-2.6618 0.36479-0.88099 2.7034-1.8503-1.0977-0.88884 2.9978-3.304 2.0448-2.0923 1.138-3.4643-0.52837-2.985-2.3538-1.646 0.9601 0.5177 3.6686-2.3396 3.8314-0.64005 2.2725-5.9034 1.93-2.9102 4.244 1.3289 3.4436-4.9515 0.21588-3.1685 4.3484 1.5254 4.0864 4.7224-1.354 6.0194-2.4052 2.5025-1.9409 6.2107 3.3094 3.9588 3.5046 2.5251-0.33874 2.0062-2.7399-0.0169-3.6695-1.0927-2.8335 3.459 1.3896 3.2066 2.8103 1.606 3.0069 0.94462-3.0786 2.5788-0.38437-0.1908 2.842 6.5742 0.66822 3.3444 4.2903-2.7769 0.55924-5.5101-0.71579-7.9008 0.10088-2.2251-0.01969-2.1135-2.3968-2.9236-2.9921-2.8304 0.22993-6.3279 0.20393-8.2228 2.4902-2.049 2.8109-5.0038 6.7404-2.7705 10.33 2.2349 5.3188 7.7772 0.27589 10.963 3.4171 0.94693 1.3097-0.8206 2.8666 1.2967 4.2853 0.79672 3.022-0.90448 5.8914 1.0523 8.7803 1.0118 2.7168 1.6398 6.7833 5.4058 4.3007 3.9858-2.3983 2.9242-6.8193 6.2129-9.268-2.6023-5.0356 3.1836-7.2435 4.6272-11.331-3.154 0.46168-5.9638-2.6824-6.7258-5.847-1.3249-1.5371-0.98368-3.8036 0.49633-0.91601 2.0343 1.9709 2.0782 7.8192 5.8413 4.8106 1.7204-0.71948 6.4186-3.464 2.6751-4.713-2.413 1.7475-5.0752-5.2217-1.5318-1.1794 2.576 1.0928 4.38 1.7438 4.38-1.8792v-29.482c-0.8024 0.81987-2.8638 2.3341-3.9043 1.3279-1.7904 0.24928-4.1539 3.7324-3.5912 0.36536-1.5562-0.10304-0.27858 3.019-2.4166 3.1063-0.21529 1.6051-2.1599 0.29723-1.4294 1.8215-1.5006-1.0643-2.7707-4.4248 0.18614-2.3156 4.391-1.3172-2.8956-4.2883-3.458-5.0064 0.94545-0.2265-1.0286-1.2116-1.2668-0.8818zm-36.24 0.8818c-1.4615 1.2176 2.7785 1.4469 0 0zm-19.522 0.6557c-1.6346 1.7097 2.6033 1.5717 0 0zm9.4784 1.6958c-1.2379 2.0276 1.829 0.74857 0 0zm27.101 2.3967c-1.4492 1.6682-3.362-0.43904-3.3932 0.99485 0.26265 0.43326 1.3147 3.5255 3.6194 1.2436 1.237-0.52145 0.74995-1.836-0.22622-2.2384zm-30.856 0.99485c-2.7488 2.4003 4.6683 2.6214 0.58232 0.27529l-0.58232-0.27529zm36.262 6.6474c-1.9791 1.2904 0.94943 4.0308-0.0431 5.3181-1.2401 2.1604 4.6083-0.15218 1.4846-1.8758-0.22257-1.4809-1.83-3.2877-1.4415-3.4423zm-1.3347 2.6002c-2.7574 0.77947-0.62595 4.8038 0.35067 1.0135 0.0549-0.21975 0.12936-1.0208-0.35067-1.0135zm-22.079 2.9167c-2.5652 1.749-0.39843 3.4947 1.4816 2.7078-0.38596-1.0552-1.4642-1.7201-1.4816-2.7078zm48.455 2.9393c1.28 0.64588-2.3455 1.7492-0.0498 2.8859 1.336 1.5709 0.83231 4.943-1.3392 2.5564 0.40344-2.6647-2.9436-4.6547 1.389-5.4423zm-6.5829 0.02261c-0.17366 1.7119 3.694 4.373-0.47504 3.5046-2.2048 0.2586-5.507-0.06736-2.7294-2.8143 0.87765-0.52682 3.1821 1.8176 1.9829-0.37376 0.42513-0.02712 0.82107-0.18758 1.2216-0.31654zm-12.735 3.707c-1.6081 1.0359 1.112 1.8302 0 0zm-40.379 9.6546c-0.27111 0.90435 5.086 1.8208 1.3893 0.37196l-0.55107-0.19395-0.83822-0.17801zm4.1624 1.2888c-1.6249 1.6494 3.3478 0.49277 0 0zm54.337 15.126c-3.5307 0.09109-3.0613 9.197-0.60013 3.8089 0.2334-1.1692 1.1689-2.7124 0.60013-3.8089z" fill="url(#radialGradient5232-9)" opacity="0.8"/>
   <path d="m48 16-4.625 16.688c-1.7501 0.5289-3.3722 1.3505-4.8125 2.4062l-7.5312-4.0625 4.0625 7.5312c-1.0558 1.4403-1.8774 3.0624-2.4062 4.8125l-16.687 4.624 16.688 4.625c0.5289 1.7501 1.3505 3.3722 2.4062 4.8125l-4.0625 7.5312 7.5312-4.0625c1.4403 1.0558 3.0624 1.8774 4.8125 2.4062l4.624 16.687 4.625-16.688c1.7501-0.5289 3.3722-1.3505 4.8125-2.4062l7.5312 4.0625-4.0625-7.5312c1.0558-1.4403 1.8774-3.0624 2.4062-4.8125l16.687-4.624-16.688-4.625c-0.5289-1.7501-1.3505-3.3722-2.4062-4.8125l4.0625-7.5312-7.5312 4.0625c-1.44-1.055-3.062-1.877-4.812-2.405l-4.625-16.688zm0 20c6.6274 0 12 5.3726 12 12s-5.3726 12-12 12-12-5.3726-12-12 5.3726-12 12-12z" fill="#fff" color="#000000"/>
   <path d="m74.156 22.875-29.656 22.656-22.656 29.657 29.656-22.657 22.656-29.656z" fill-rule="evenodd" opacity="0.3"/>
   <g transform="matrix(0.70711 0.70711 -0.70711 0.70711 48.02 -19.873)">
    <g transform="matrix(0.98984 0 0 0.77049 -15.35 -1.283)">
     <path d="m69 64h-10l5-48 5 48z" fill="url(#linearGradient4578)" fill-rule="evenodd"/>
     <path d="m69 64h-10l5 48 5-48z" fill="url(#linearGradient4580)" fill-rule="evenodd"/>
    </g>
    <path d="m65.503 63.921a1.7404 1.7404 0 1 1 -3.4808 0 1.7404 1.7404 0 1 1 3.4808 0z" fill="url(#radialGradient4582)" fill-rule="evenodd" transform="matrix(0.88541 0 0 0.88541 -8.457 -8.567)"/>
   </g>
  </g>
  <rect x="-96" rx="25" y="958.36" clip-path="url(#clipPath3009)" fill="#fff" height="92" opacity="0.15" width="92" transform="matrix(1 0 0 1 98 0)"/>
 </g>
</svg>
