<svg height="96" width="96" xmlns="http://www.w3.org/2000/svg" xmlns:xlink="http://www.w3.org/1999/xlink" xmlns:sodipodi="http://sodipodi.sourceforge.net/DTD/sodipodi-0.dtd" xmlns:inkscape="http://www.inkscape.org/namespaces/inkscape">
 <defs>
  <clipPath clipPathUnits="userSpaceOnUse" id="clipPath3009">
   <path d="m-2 956.36h-96v33.562l96 25.687v-59.25z"/>
  </clipPath>
  <radialGradient cy="11.685" r="43.796" gradientUnits="userSpaceOnUse" id="radialGradient4480" cx="47.706" gradientTransform="matrix(1.5319 0.0118 -0.01375 1.7861 -25.01 -10.949)">
   <stop stop-color="#fff"/>
   <stop stop-color="#3e9f30" offset="1"/>
  </radialGradient>
  <clipPath clipPathUnits="userSpaceOnUse" id="clipPath3332">
   <rect x="5.939" rx="22.811" ry="22.824" y="4.694" height="83.991" width="83.943"/>
  </clipPath>
  <rect x="-39.594" rx="0.214" y="10.11" ry="0" fill-opacity="0.513" height="24.786" id="SVGCleanerId_0" width="3.105"/>
  <rect x="39.594" rx="0.145" y="10.11" ry="0" fill-opacity="0.267" height="24.786" id="SVGCleanerId_1" width="2.11"/>
  <rect x="-43.925" rx="0.153" y="10.11" ry="0" fill-opacity="0.118" height="24.786" id="SVGCleanerId_2" width="2.221"/>
  <rect x="43.925" rx="0.164" y="10.11" ry="0" fill-opacity="0.032" height="24.786" id="SVGCleanerId_3" width="2.375"/>
  <rect x="-34.27" rx="0" y="31.908" fill="#b6e7af" fill-opacity="0.567" height="19.09" id="SVGCleanerId_4" width="19.269"/>
  <rect x="-34.27" rx="0" y="51" fill="#fff" fill-opacity="0.567" height="19.09" id="SVGCleanerId_5" width="19.269"/>
 </defs>
 <g transform="matrix(1 0 0 1 0 -956.36)">
  <g clip-path="url(#clipPath3332)" transform="matrix(1.096 0 0 1.0954 -4.509 953.22)">
   <rect x="4.114" rx="6.257" ry="6.325" y="1.956" fill="url(#radialGradient4480)" height="88.56" width="87.59"/>
   <g opacity="0.557" transform="matrix(1.1275 0 0 1.6458 -126.48 -60.12)">
    <g transform="matrix(0.6 0 0 0.68 98 31.52)">
     <g transform="matrix(0.57201 0 0 0.61037 53.58 -6.782)">
      <use xlink:href="#SVGCleanerId_4"/>
      <use xlink:href="#SVGCleanerId_5"/>
     </g>
     <g transform="matrix(0.64872 0 0 0.65473 54.731 15.11)">
      <use xlink:href="#SVGCleanerId_4"/>
      <use xlink:href="#SVGCleanerId_5"/>
     </g>
     <g transform="matrix(-0.64872 0 0 -0.65473 35.27 56.891)">
      <use xlink:href="#SVGCleanerId_4"/>
      <use xlink:href="#SVGCleanerId_5"/>
     </g>
     <g transform="matrix(0.57201 0 0 0.60793 53.58 41.602)">
      <use xlink:href="#SVGCleanerId_4"/>
      <use xlink:href="#SVGCleanerId_5"/>
     </g>
     <g transform="matrix(-0.64872 0 0 -0.65473 35.27 81.89)">
      <use xlink:href="#SVGCleanerId_4"/>
      <use xlink:href="#SVGCleanerId_5"/>
     </g>
     <g transform="matrix(-0.64872 0 0 -0.65473 35.27 106.89)">
      <use xlink:href="#SVGCleanerId_4"/>
      <use xlink:href="#SVGCleanerId_5"/>
     </g>
    </g>
    <g transform="matrix(0.6 0 0 0.68 113 31.52)">
     <g transform="matrix(0.64872 0 0 0.65473 54.731 -9.891)">
      <use xlink:href="#SVGCleanerId_4"/>
      <use xlink:href="#SVGCleanerId_5"/>
     </g>
     <g transform="matrix(0.64872 0 0 0.65473 54.731 15.11)">
      <use xlink:href="#SVGCleanerId_4"/>
      <use xlink:href="#SVGCleanerId_5"/>
     </g>
     <g transform="matrix(-0.64872 0 0 -0.65473 35.27 56.891)">
      <use xlink:href="#SVGCleanerId_4"/>
      <use xlink:href="#SVGCleanerId_5"/>
     </g>
     <g transform="matrix(0.64872 0 0 0.65473 54.731 40.11)">
      <use xlink:href="#SVGCleanerId_4"/>
      <use xlink:href="#SVGCleanerId_5"/>
     </g>
     <g transform="matrix(-0.64872 0 0 -0.65473 35.27 81.89)">
      <use xlink:href="#SVGCleanerId_4"/>
      <use xlink:href="#SVGCleanerId_5"/>
     </g>
     <g transform="matrix(-0.64872 0 0 -0.65473 35.27 106.89)">
      <use xlink:href="#SVGCleanerId_4"/>
      <use xlink:href="#SVGCleanerId_5"/>
     </g>
    </g>
    <g transform="matrix(0.6 0 0 0.68 128 31.52)">
     <g transform="matrix(0.64872 0 0 0.65473 54.731 -9.891)">
      <use xlink:href="#SVGCleanerId_4"/>
      <use xlink:href="#SVGCleanerId_5"/>
     </g>
     <g transform="matrix(0.64872 0 0 0.65473 54.731 15.11)">
      <use xlink:href="#SVGCleanerId_4"/>
      <use xlink:href="#SVGCleanerId_5"/>
     </g>
     <g transform="matrix(-0.64872 0 0 -0.65473 35.27 56.891)">
      <use xlink:href="#SVGCleanerId_4"/>
      <use xlink:href="#SVGCleanerId_5"/>
     </g>
     <g transform="matrix(0.64872 0 0 0.65473 54.731 40.11)">
      <use xlink:href="#SVGCleanerId_4"/>
      <use xlink:href="#SVGCleanerId_5"/>
     </g>
     <g transform="matrix(-0.64872 0 0 -0.65473 35.27 81.89)">
      <use xlink:href="#SVGCleanerId_4"/>
      <use xlink:href="#SVGCleanerId_5"/>
     </g>
     <g transform="matrix(-0.64872 0 0 -0.65473 35.27 106.89)">
      <use xlink:href="#SVGCleanerId_4"/>
      <use xlink:href="#SVGCleanerId_5"/>
     </g>
    </g>
    <g transform="matrix(0.6 0 0 0.68 143 31.52)">
     <g transform="matrix(0.64872 0 0 0.65473 54.731 -9.891)">
      <use xlink:href="#SVGCleanerId_4"/>
      <use xlink:href="#SVGCleanerId_5"/>
     </g>
     <g transform="matrix(0.64872 0 0 0.65473 54.731 15.11)">
      <use xlink:href="#SVGCleanerId_4"/>
      <use xlink:href="#SVGCleanerId_5"/>
     </g>
     <g transform="matrix(-0.64872 0 0 -0.65473 35.27 56.891)">
      <use xlink:href="#SVGCleanerId_4"/>
      <use xlink:href="#SVGCleanerId_5"/>
     </g>
     <g transform="matrix(0.64872 0 0 0.65473 54.731 40.11)">
      <use xlink:href="#SVGCleanerId_4"/>
      <use xlink:href="#SVGCleanerId_5"/>
     </g>
     <g transform="matrix(-0.64872 0 0 -0.65473 35.27 81.89)">
      <use xlink:href="#SVGCleanerId_4"/>
      <use xlink:href="#SVGCleanerId_5"/>
     </g>
     <g transform="matrix(-0.64872 0 0 -0.65473 35.27 106.89)">
      <use xlink:href="#SVGCleanerId_4"/>
      <use xlink:href="#SVGCleanerId_5"/>
     </g>
    </g>
    <g transform="matrix(0.6 0 0 0.68 157.5 31.52)">
     <g transform="matrix(0.64872 0 0 0.65473 54.731 -9.891)">
      <use xlink:href="#SVGCleanerId_4"/>
      <use xlink:href="#SVGCleanerId_5"/>
     </g>
     <g transform="matrix(0.64872 0 0 0.65473 54.731 15.11)">
      <use xlink:href="#SVGCleanerId_4"/>
      <use xlink:href="#SVGCleanerId_5"/>
     </g>
     <g transform="matrix(-0.64872 0 0 -0.65473 35.27 56.891)">
      <use xlink:href="#SVGCleanerId_4"/>
      <rect x="-31.99" rx="0" ry="1.237" y="51" fill="#fff" fill-opacity="0.567" height="16.448" width="16.99"/>
     </g>
     <g transform="matrix(0.64872 0 0 0.65473 54.731 40.11)">
      <use xlink:href="#SVGCleanerId_4"/>
      <use xlink:href="#SVGCleanerId_5"/>
     </g>
     <g transform="matrix(-0.64872 0 0 -0.65473 35.27 81.89)">
      <use xlink:href="#SVGCleanerId_4"/>
      <use xlink:href="#SVGCleanerId_5"/>
     </g>
     <g transform="matrix(-0.64872 0 0 -0.65473 35.27 106.89)">
      <rect x="-29.711" rx="0" y="34.638" fill="#b6e7af" fill-opacity="0.567" height="16.362" width="14.711"/>
      <use xlink:href="#SVGCleanerId_5"/>
     </g>
    </g>
   </g>
   <g transform="matrix(1 0 0 0.99287 43.38 0.073)">
    <use xlink:href="#SVGCleanerId_0" transform="matrix(-1 0 0 1 0 0)"/>
    <use xlink:href="#SVGCleanerId_1"/>
    <use xlink:href="#SVGCleanerId_2" transform="matrix(-1 0 0 1 0 0)"/>
    <use xlink:href="#SVGCleanerId_3"/>
   </g>
   <g transform="matrix(-1 0 0 0.99287 52.27 0.25)">
    <use xlink:href="#SVGCleanerId_0" transform="matrix(-1 0 0 1 0 0)"/>
    <use xlink:href="#SVGCleanerId_1"/>
    <use xlink:href="#SVGCleanerId_2" transform="matrix(-1 0 0 1 0 0)"/>
    <use xlink:href="#SVGCleanerId_3"/>
   </g>
   <g transform="matrix(1 0 0 0.87876 1.835 52.38)">
    <use xlink:href="#SVGCleanerId_0" transform="matrix(-1 0 0 1 0 0)"/>
    <use xlink:href="#SVGCleanerId_1"/>
    <use xlink:href="#SVGCleanerId_2" transform="matrix(-1 0 0 1 0 0)"/>
    <use xlink:href="#SVGCleanerId_3"/>
   </g>
   <g transform="matrix(-1 0 0 0.85871 92.87 53.14)">
    <use xlink:href="#SVGCleanerId_0" transform="matrix(-1 0 0 1 0 0)"/>
    <use xlink:href="#SVGCleanerId_1"/>
    <use xlink:href="#SVGCleanerId_2" transform="matrix(-1 0 0 1 0 0)"/>
    <use xlink:href="#SVGCleanerId_3"/>
   </g>
   <g transform="matrix(1 0 0 1.4564 34.91 32.28)">
    <use xlink:href="#SVGCleanerId_0" transform="matrix(-1 0 0 1 0 0)"/>
    <use xlink:href="#SVGCleanerId_1"/>
    <use xlink:href="#SVGCleanerId_2" transform="matrix(-1 0 0 1 0 0)"/>
    <use xlink:href="#SVGCleanerId_3"/>
   </g>
   <g transform="matrix(1 0 0 1 21.75 25.25)">
    <use xlink:href="#SVGCleanerId_0" transform="matrix(-1 0 0 1 0 0)"/>
    <use xlink:href="#SVGCleanerId_1"/>
    <use xlink:href="#SVGCleanerId_2" transform="matrix(-1 0 0 1 0 0)"/>
    <use xlink:href="#SVGCleanerId_3"/>
   </g>
   <g transform="matrix(-1 0 0 1 73.67 24.75)">
    <use xlink:href="#SVGCleanerId_0" transform="matrix(-1 0 0 1 0 0)"/>
    <use xlink:href="#SVGCleanerId_1"/>
    <use xlink:href="#SVGCleanerId_2" transform="matrix(-1 0 0 1 0 0)"/>
    <use xlink:href="#SVGCleanerId_3"/>
   </g>
   <g transform="matrix(-1 0 0 1 95.42 0.125)">
    <use xlink:href="#SVGCleanerId_0" transform="matrix(-1 0 0 1 0 0)"/>
    <use xlink:href="#SVGCleanerId_1"/>
    <use xlink:href="#SVGCleanerId_2" transform="matrix(-1 0 0 1 0 0)"/>
    <use xlink:href="#SVGCleanerId_3"/>
   </g>
   <use xlink:href="#SVGCleanerId_0" transform="matrix(-1 0 0 1 0 0)"/>
   <rect x="56.4" rx="1.054" ry="0" y="50.995" fill="#fff" fill-opacity="0.84" height="32.13" width="15.306"/>
   <rect x="23.03" rx="1.059" ry="0" y="50.12" fill="#fff" fill-opacity="0.84" height="32.88" width="15.369"/>
   <rect x="37.02" rx="1.464" ry="0" y="35.712" fill="#fff" fill-opacity="0.786" height="31.643" width="21.244"/>
   <rect x="15.63" rx="1.522" ry="0" y="13.954" fill="#fff" fill-opacity="0.824" height="20.911" width="22.1"/>
   <rect x="14.669" rx="0.261" ry="0" y="25.13" fill="#fff" fill-opacity="0.93" height="9.763" width="3.789"/>
   <rect x="15.63" rx="1.522" ry="0" y="10.08" height="21.04" width="22.1"/>
   <rect x="77.5" rx="0.248" ry="0" y="25.11" fill="#fff" fill-opacity="0.947" height="9.794" width="3.593"/>
   <rect x="58.26" rx="1.522" ry="0" y="14.329" fill="#fff" fill-opacity="0.834" height="20.558" width="22.1"/>
   <rect x="36.843" rx="1.498" ry="0" y="30.585" height="31.643" width="21.744"/>
   <rect x="58.23" rx="1.522" ry="0" y="10.168" height="21.302" width="22.1"/>
   <rect x="56.33" rx="1.063" ry="0" y="46.974" height="32.527" width="15.431"/>
   <rect x="23.03" rx="1.059" ry="0" y="46.37" height="32.88" width="15.369"/>
   <use xlink:href="#SVGCleanerId_1"/>
   <use xlink:href="#SVGCleanerId_2" transform="matrix(-1 0 0 1 0 0)"/>
   <use xlink:href="#SVGCleanerId_3"/>
   <g transform="matrix(-1 0 0 1.4841 59.54 31.29)">
    <use xlink:href="#SVGCleanerId_0" transform="matrix(-1 0 0 1 0 0)"/>
    <use xlink:href="#SVGCleanerId_1"/>
    <use xlink:href="#SVGCleanerId_2" transform="matrix(-1 0 0 1 0 0)"/>
    <use xlink:href="#SVGCleanerId_3"/>
   </g>
  </g>
  <rect x="-96" rx="25" y="958.36" clip-path="url(#clipPath3009)" fill="#fff" height="92" opacity="0.15" width="92" transform="matrix(1 0 0 1 98 0)"/>
 </g>
</svg>
