<svg height="96" width="96" xmlns="http://www.w3.org/2000/svg" xmlns:xlink="http://www.w3.org/1999/xlink" xmlns:sodipodi="http://sodipodi.sourceforge.net/DTD/sodipodi-0.dtd" xmlns:inkscape="http://www.inkscape.org/namespaces/inkscape">
 <defs>
  <linearGradient x2="0" y1="962.62" y2="1046.1" gradientUnits="userSpaceOnUse" id="linearGradient11642" gradientTransform="matrix(1.15 0 0 1.15 -7.2 -150.65)">
   <stop stop-color="#5a5a5a"/>
   <stop stop-color="#737373" offset="1"/>
  </linearGradient>
  <linearGradient x2="0" y1="17.684" y2="69.871" gradientUnits="userSpaceOnUse" id="linearGradient3888" gradientTransform="matrix(1 0 0 1 -80 0)">
   <stop stop-color="#272727"/>
   <stop stop-color="#737373" offset="1"/>
  </linearGradient>
  <clipPath clipPathUnits="userSpaceOnUse" id="clipPath5265">
   <use xlink:href="#SVGCleanerId_0"/>
  </clipPath>
  <filter x="-0.134" y="-0.155" height="1.31" color-interpolation-filters="sRGB" id="filter3925" width="1.269">
   <feGaussianBlur stdDeviation="3.36"/>
  </filter>
  <linearGradient x2="0" y1="81.18" y2="73.45" gradientUnits="userSpaceOnUse" id="linearGradient4099">
   <stop stop-color="#fff"/>
   <stop stop-color="#fff" stop-opacity="0" offset="1"/>
  </linearGradient>
  <linearGradient x2="0" xlink:href="#linearGradient11642" y1="72.25" y2="79.84" gradientUnits="userSpaceOnUse" id="linearGradient4101"/>
  <linearGradient x2="0" xlink:href="#linearGradient3237" y1="103.13" y2="108.68" gradientUnits="userSpaceOnUse" id="linearGradient3785"/>
  <linearGradient id="linearGradient3237">
   <stop stop-color="#737373"/>
   <stop stop-color="#fff" offset="1"/>
  </linearGradient>
  <linearGradient x2="0" xlink:href="#linearGradient3237" y1="112.61" y2="99.67" gradientUnits="userSpaceOnUse" id="linearGradient3787"/>
  <linearGradient x1="21.03" x2="35.11" gradientUnits="userSpaceOnUse" id="linearGradient3789">
   <stop stop-color="#3e3e3e"/>
   <stop stop-color="#bbb" stop-opacity="0" offset="1"/>
  </linearGradient>
  <linearGradient x2="0" y1="73.25" y2="180.67" gradientUnits="userSpaceOnUse" id="linearGradient4216" gradientTransform="matrix(0.0877 0 0 0.0906 23.55 33.645)">
   <stop stop-color="#fff"/>
   <stop stop-color="#dfdfdf" offset="0.994"/>
  </linearGradient>
  <linearGradient x2="0" y2="218.48" gradientUnits="userSpaceOnUse" id="linearGradient4220" gradientTransform="matrix(0.09532 0 0 0.09532 22 32.786)">
   <stop stop-color="#ED2828" offset="0.006"/>
   <stop stop-color="#EF3B39" offset="0.5"/>
   <stop stop-color="#C02126" offset="0.994"/>
  </linearGradient>
  <mask x="227.16" y="6.116" height="206.25" id="SVGID_2_" width="312.27" maskUnits="userSpaceOnUse">
   <g filter="url(#Adobe_OpacityMaskFilter)">
    <path d="m537.27 48.947-0.0195-0.23291v-0.23438c0-22.167-18.275-40.204-40.74-40.204h-0.12695l-0.12696-0.00586c-35.87-1.4976-73.87-2.2203-112.97-2.149-39.08-0.0713-77.08 0.6514-112.96 2.1489l-0.12744 0.00586h-0.12793c-6.1802 0-12.039 1.3716-17.292 3.8125l281.46 173.06c1.9375-4.6777 3.0137-9.791 3.0137-15.15v-0.23438l0.0195-0.23242c1.4863-19.398 2.209-39.679 2.1484-60.312 0.0605-20.597-0.66211-40.877-2.1484-60.274zm-41.014 161.26 0.12696-0.004h0.12695c6.5137 0 12.67-1.5254 18.137-4.2188l-87.156 6.1074c23.566-0.33008 46.574-0.95703 68.766-1.8848z" fill="url(#SVGID_3_)"/>
   </g>
  </mask>
  <clipPath clipPathUnits="userSpaceOnUse" id="clipPath3009">
   <path d="m-2 956.36h-96v33.562l96 25.687v-59.25z"/>
  </clipPath>
  <linearGradient x1="461.13" x2="352.87" y1="-18.516" y2="169.01" gradientUnits="userSpaceOnUse" id="SVGID_3_">
   <stop stop-color="#fff" offset="0.006"/>
   <stop stop-color="#F6F6F6" offset="0.013"/>
   <stop stop-color="#C8C8C8" offset="0.053"/>
   <stop stop-color="#9D9D9D" offset="0.098"/>
   <stop stop-color="#777" offset="0.146"/>
   <stop stop-color="#575757" offset="0.198"/>
   <stop stop-color="#3B3B3B" offset="0.257"/>
   <stop stop-color="#252525" offset="0.322"/>
   <stop stop-color="#141414" offset="0.399"/>
   <stop stop-color="#090909" offset="0.493"/>
   <stop stop-color="#020202" offset="0.626"/>
   <stop offset="0.994"/>
  </linearGradient>
  <path d="m138 78c-0.60457 0-1.1929 0.01496-1.7812 0.03125-0.0141 0.000146-0.0484-0.00015-0.0625 0-8.3454 0.08895-12.216 0.77855-16.875 2.0312-11.3 2.572-11.28 7.6-11.28 23.938 0 16.16-0.0295 20.465 11.281 23.938 4.6588 1.2527 8.5296 1.9423 16.875 2.0312 0.0141 0.00015 0.0484-0.00015 0.0625 0 0.58839 0.0163 1.1767 0.0312 1.7812 0.0312 0.60457 0 1.1929-0.015 1.7812-0.0312 0.0141-0.00015 0.0484 0.00015 0.0625 0 8.3454-0.0889 12.216-0.77855 16.875-2.0312 11.31-3.47 11.28-7.78 11.28-23.94 0-16.338 0.0205-21.366-11.281-23.938-4.6588-1.2527-8.5296-1.9423-16.875-2.0312-0.0141-0.00015-0.0484 0.000146-0.0625 0-0.59-0.016-1.18-0.031-1.78-0.031z" id="SVGCleanerId_0"/>
  <path d="m23.865 79.206a5.051 5.051 0 1 1 -10.102 0 5.051 5.051 0 1 1 10.102 0z" id="SVGCleanerId_1"/>
  <path d="m30.983 106.14a4.6224 4.6224 0 1 1 -9.2449 0 4.6224 4.6224 0 1 1 9.2449 0z" id="SVGCleanerId_2" stroke-linecap="square"/>
 </defs>
 <g transform="matrix(1 0 0 1 0 -956.36)">
  <rect x="2" rx="25" y="958.36" fill="url(#linearGradient11642)" height="92" width="92"/>
  <g transform="matrix(1 0 0 1 0 956.36)">
   <path d="m48 18c-0.60457 0-1.1929 0.01496-1.7812 0.03125-0.0141 0.000146-0.0484-0.00015-0.0625 0-8.345 0.089-12.216 0.779-16.875 2.031-11.301 2.572-11.281 7.6-11.281 23.938 0 16.16-0.0295 20.465 11.281 23.938 4.6588 1.2527 8.5296 1.9423 16.875 2.0312 0.0141 0.00015 0.0484-0.00015 0.0625 0 0.58839 0.0163 1.1767 0.0312 1.7812 0.0312 0.60457 0 1.1929-0.015 1.7812-0.0312 0.0141-0.00015 0.0484 0.00015 0.0625 0 8.3454-0.0889 12.216-0.77855 16.875-2.0312 11.313-3.473 11.283-7.778 11.283-23.938 0-16.338 0.02-21.366-11.281-23.938-4.6588-1.2527-8.5296-1.9423-16.875-2.0312-0.0141-0.00015-0.0484 0.000146-0.0625 0-0.588-0.016-1.176-0.031-1.781-0.031z" fill="url(#linearGradient3888)"/>
   <use stroke-width="5" xlink:href="#SVGCleanerId_0" clip-path="url(#clipPath5265)" fill="none" stroke="#000" filter="url(#filter3925)" opacity="0.7" transform="matrix(1 0 0 1 -90 -60)"/>
   <path d="m45 70.969c-1.1004 0-2.0312 0.93088-2.0312 2.0312v0.875c-0.078-1.033-0.919-1.906-1.969-1.906-1.1004 0-2.0312 0.93088-2.0312 2.0312v0.875c-0.078-1.033-0.919-1.906-1.969-1.906-1.1004 0-2.0312 0.93088-2.0312 2.0312v2c0 1.1004 0.93088 2.0312 2.0312 2.0312 1.0505 0 1.8907-0.87306 1.9688-1.9062v0.875c0 1.1004 0.93088 2.0312 2.0312 2.0312 1.0505 0 1.8907-0.87306 1.9688-1.9062v0.875c0 1.1004 0.93088 2.0312 2.0312 2.0312 1.0754 0 1.9597-0.90181 2-1.9688 0.04031 1.0669 0.92459 1.9688 2 1.9688s1.9597-0.90181 2-1.9688c0.04031 1.0669 0.92459 1.9688 2 1.9688 1.1004 0 2.0312-0.93088 2.0312-2.0312v-0.875c0.07803 1.0332 0.91829 1.9062 1.9688 1.9062 1.1004 0 2.0312-0.93088 2.0312-2.0312v-0.875c0.07803 1.0332 0.91829 1.9062 1.9688 1.9062 1.1004 0 2.0312-0.93088 2.0312-2.0312v-2c0-1.1004-0.93088-2.0312-2.0312-2.0312-1.0505 0-1.8907 0.87306-1.9688 1.9062v-0.875c0-1.1004-0.93088-2.0312-2.0312-2.0312-1.0505 0-1.8907 0.87306-1.9688 1.9062v-0.875c0-1.1004-0.93088-2.0312-2.0312-2.0312-1.0754 0-1.9597 0.90181-2 1.9688-0.04031-1.0669-0.92459-1.9688-2-1.9688s-1.9597 0.90181-2 1.9688c-0.04031-1.0669-0.92459-1.9688-2-1.9688z" fill="url(#linearGradient4099)" opacity="0.6"/>
   <path d="m45 72c-0.554 0-1 0.446-1 1v6c0 0.554 0.446 1 1 1s1-0.446 1-1v-6c0-0.554-0.446-1-1-1z" fill="url(#linearGradient4101)"/>
   <path d="m49 72c-0.554 0-1 0.446-1 1v6c0 0.554 0.446 1 1 1s1-0.446 1-1v-6c0-0.554-0.446-1-1-1z" fill="url(#linearGradient4101)"/>
   <path d="m53 72c-0.554 0-1 0.446-1 1v6c0 0.554 0.446 1 1 1s1-0.446 1-1v-6c0-0.554-0.446-1-1-1z" fill="url(#linearGradient4101)"/>
   <path d="m41 73c-0.554 0-1 0.446-1 1v4c0 0.554 0.446 1 1 1s1-0.446 1-1v-4c0-0.554-0.446-1-1-1z" fill="url(#linearGradient4101)"/>
   <path d="m57 73c-0.554 0-1 0.446-1 1v4c0 0.554 0.446 1 1 1s1-0.446 1-1v-4c0-0.554-0.446-1-1-1z" fill="url(#linearGradient4101)"/>
   <path d="m37 74c-0.554 0-1 0.446-1 1v2c0 0.554 0.446 1 1 1s1-0.446 1-1v-2c0-0.554-0.446-1-1-1z" fill="url(#linearGradient4101)"/>
   <path d="m61 74c-0.554 0-1 0.446-1 1v2c0 0.554 0.446 1 1 1s1-0.446 1-1v-2c0-0.554-0.446-1-1-1z" fill="url(#linearGradient4101)"/>
   <use xlink:href="#SVGCleanerId_1" opacity="0.2" transform="matrix(1.1879 0 0 1.1879 0.65 -19.09)"/>
   <use xlink:href="#SVGCleanerId_1" opacity="0.6" transform="matrix(0.98995 0 0 0.98995 4.375 -3.41)"/>
   <use stroke-width="3.962" xlink:href="#SVGCleanerId_2" fill="url(#linearGradient3785)" stroke="url(#linearGradient3787)" transform="matrix(0.75718 0 0 0.75718 3.041 -6.365)"/>
   <use stroke-width="1.317" xlink:href="#SVGCleanerId_2" fill="none" stroke="url(#linearGradient3789)" transform="matrix(0 -0.7591 0.7591 0 -57.57 94.01)"/>
   <use xlink:href="#SVGCleanerId_1" opacity="0.2" transform="matrix(1.1879 0 0 1.1879 50.65 -19.09)"/>
   <use xlink:href="#SVGCleanerId_1" opacity="0.6" transform="matrix(0.98995 0 0 0.98995 54.38 -3.41)"/>
   <use stroke-width="3.962" xlink:href="#SVGCleanerId_2" fill="url(#linearGradient3785)" stroke="url(#linearGradient3787)" transform="matrix(0.75718 0 0 0.75718 53.04 -6.365)"/>
   <use stroke-width="1.317" xlink:href="#SVGCleanerId_2" fill="none" stroke="url(#linearGradient3789)" transform="matrix(0 -0.7591 0.7591 0 -7.569 94.01)"/>
   <path d="m21.062 47.469c0.05668 5.9742 0.2876 9.9446 1.1562 12.125 1.0239 2.5702 2.6285 3.7937 7.8438 5.4062 0.01012 0.0027 0.02114-0.0027 0.03125 0 0.03047 0.0094 0.03178 0.02182 0.0625 0.03125 4.4735 1.1986 7.9017 1.8196 16.031 1.9062-0.08089-0.000862-0.04497-0.0011 0.0625 0a3.0324 3.0324 0 0 1 0.0625 0c0.5839 0.01616 1.133 0.03125 1.6875 0.03125 0.55452 0 1.1036-0.01509 1.6875-0.03125a3.0324 3.0324 0 0 1 0.0625 0c0.10747-0.0011 0.14339-0.000862 0.0625 0 8.1295-0.08665 11.558-0.70762 16.031-1.9062 0.03237-0.0087 0.06127-0.02252 0.09375-0.03125 5.2152-1.6126 6.8198-2.8361 7.8438-5.4062 0.86865-2.1804 1.0996-6.1508 1.1562-12.125-0.09203 4.9149-0.38199 8.1815-1.1562 10.125-1.0239 2.5702-2.6285 3.7937-7.8438 5.4062-0.03248 0.0087-0.06138 0.02258-0.09375 0.03125-4.4735 1.1986-7.9017 1.8196-16.031 1.9062 0.08089-0.000862 0.04497-0.0011-0.0625 0a3.0324 3.0324 0 0 0 -0.0625 0c-0.5839 0.01616-1.133 0.03125-1.6875 0.03125-0.55452 0-1.1036-0.01509-1.6875-0.03125a3.0324 3.0324 0 0 0 -0.0625 0c-0.10747-0.0011-0.14339-0.000862-0.0625 0-8.13-0.086-11.558-0.707-16.032-1.906-0.03-0.009-0.032-0.022-0.062-0.031-0.01-0.003-0.021 0.003-0.032 0-5.215-1.613-6.819-2.836-7.843-5.406-0.775-1.944-1.064-5.21-1.157-10.125z" fill="#fff" opacity="0.3"/>
   <path d="m48 18c-0.60457 0-1.1929 0.01496-1.7812 0.03125-0.0141 0.000146-0.0484-0.00015-0.0625 0-8.345 0.089-12.216 0.779-16.875 2.031-11.301 2.572-11.281 7.6-11.281 23.938 0 16.16-0.0295 20.465 11.281 23.938 4.6588 1.2527 8.5296 1.9423 16.875 2.0312 0.0141 0.00015 0.0484-0.000146 0.0625 0 0.589 0.016 1.177 0.031 1.782 0.031 0.60457 0 1.1929-0.01497 1.7812-0.03125 0.0141-0.000146 0.0484 0.00015 0.0625 0 8.345-0.089 12.216-0.779 16.875-2.031 11.311-3.473 11.281-7.778 11.281-23.938 0-16.338 0.02-21.366-11.281-23.938-4.6588-1.2527-8.5296-1.9423-16.875-2.0312-0.0141-0.00015-0.0484 0.000146-0.0625 0-0.588-0.016-1.176-0.031-1.781-0.031z" opacity="0.6"/>
   <path d="m41.388 40.282v9.5933h-1.7266v-1.059c-0.31825 0.39017-0.64931 0.68761-0.99348 0.89163-0.34416 0.20367-0.67839 0.30594-1.0021 0.30594-0.39915 0-0.7001-0.14262-0.90257-0.42839-0.202-0.286-0.303-0.714-0.303-1.285v-8.0183h1.7266v7.3539c0 0.22755 0.03614 0.39194 0.10843 0.49368 0.07228 0.10174 0.18936 0.15271 0.35148 0.15271 0.12731 0 0.2876-0.06724 0.48141-0.2019 0.19381-0.13483 0.37166-0.30682 0.53382-0.51651v-7.2819h1.7266zm-11.406 2.1932c0-0.74295 0.23231-1.3344 0.69723-1.7749 0.46492-0.44051 1.0896-0.66076 1.8743-0.66076 0.71453 0 1.2999 0.23242 1.7562 0.69673 0.45627 0.46431 0.68438 1.062 0.68438 1.7931v4.9549c0 0.82103-0.22396 1.4651-0.67128 1.9324-0.44736 0.46732-1.0634 0.70106-1.8479 0.70106-0.75539 0-1.3599-0.24136-1.813-0.72353-0.453-0.482-0.68-1.131-0.68-1.946v-4.9731zm1.7769 5.1527c0 0.26418 0.06128 0.46785 0.18439 0.61188 0.12282 0.14386 0.2983 0.21552 0.52671 0.21552 0.23415 0 0.41987-0.07325 0.55763-0.22012 0.1375-0.14704 0.2064-0.34929 0.2064-0.60728v-5.2247c0-0.20968-0.07049-0.37906-0.21086-0.50784-0.14037-0.12882-0.32476-0.19345-0.55318-0.19345-0.2106 0-0.38189 0.06463-0.51361 0.19345-0.13176 0.12877-0.1975 0.29816-0.1975 0.50784v5.2247zm-8.2096-10.757h1.9584l1.2616 5.1982h0.12209l1.203-5.1982h1.9757l-2.263 7.6084v5.3962h-1.9445v-5.1533l-2.3133-7.8514z" fill="url(#linearGradient4216)"/>
   <g transform="matrix(0.96508 0 0 0.96508 1.876 1.934)">
    <path d="m73.793 37.408c0-2.4375-2.0008-4.4153-4.4664-4.4153-3.519-0.14689-7.1197-0.21209-10.792-0.20539-3.6726-0.0067-7.2731 0.0585-10.792 0.20539-2.4654 0-4.4663 1.9778-4.4663 4.4153-0.148 1.9305-0.21223 3.861-0.20646 5.7915-0.0057 1.9305 0.05846 3.861 0.20651 5.7915 0 2.4375 2.0009 4.4154 4.4664 4.4154 3.5191 0.14689 7.1196 0.21205 10.792 0.20516 3.6726 0.0069 7.2733-0.05828 10.792-0.20516 2.4656 0 4.4664-1.9779 4.4664-4.4154 0.14801-1.9306 0.21223-3.8611 0.20646-5.7915 0.0057-1.9305-0.05845-3.8611-0.20646-5.7915z" fill="url(#linearGradient4220)"/>
    <path d="m496.26 8.27 0.12696 0.00586h0.12695c22.465 0 40.74 18.036 40.74 40.204v0.23438l0.0195 0.23291c1.4863 19.397 2.209 39.678 2.1484 60.274 0.0605 20.634-0.66211 40.914-2.1484 60.312l-0.0195 0.23242v0.23438c0 22.17-18.275 40.205-40.74 40.205h-0.12695l-0.12696 0.004c-35.881 1.498-73.887 2.2207-112.96 2.1484-39.094 0.0723-77.098-0.65039-112.98-2.1484l-0.12744-0.004h-0.12744c-22.465 0-40.741-18.035-40.741-40.205v-0.23438l-0.0181-0.23242c-1.4868-19.389-2.21-39.668-2.1489-60.277-0.0615-20.635 0.66113-40.915 2.1484-60.31l0.0181-0.23291v-0.23438c0-22.167 18.276-40.204 40.74-40.204h0.12793l0.13-0.01c35.876-1.4976 73.882-2.2202 112.96-2.1489 39.1-0.071289 77.105 0.65137 112.98 2.1489z" fill="#fff" mask="url(#SVGID_2_)" transform="matrix(0.09532 0 0 0.09532 22 32.786)"/>
    <g transform="matrix(0.09532 0 0 0.09532 22 32.786)">
     <path d="m314.23 33.879h-68.045v20.834h22.937v122.71h22.171v-122.71h22.938v-20.828zm36.238 118.03c-1.8476 2.3145-3.877 4.2148-6.0859 5.7012-2.2109 1.4883-4.0391 2.2285-5.4902 2.2285-1.8476 0-3.1836-0.5625-4.0078-1.6855-0.82422-1.1211-1.2363-2.9375-1.2363-5.4492v-81.162h-19.688v88.506c0 6.3047 1.1543 11.033 3.4629 14.188 2.3086 3.1523 5.7402 4.7266 10.291 4.7266 3.6914 0 7.502-1.1289 11.426-3.377 3.9258-2.252 7.6992-5.5352 11.328-9.8418v11.689h19.688v-105.9h-19.688v80.377zm76.277-81.715c-3.0527 0-6.0684 0.84228-9.0527 2.5239-2.9824 1.6841-5.7988 4.1392-8.4512 7.3706v-46.211h-19.879v143.54h19.879v-8.1406c2.5859 3.2246 5.3887 5.6113 8.4043 7.1582s6.4473 2.3203 10.295 2.3203c5.832 0 10.291-1.9941 13.373-5.9902s4.627-9.7578 4.627-17.287v-58.74c0-8.6489-1.6426-15.237-4.9258-19.759-3.2812-4.5215-8.0391-6.7856-14.27-6.7856zm-1.0664 82.41c0 3.375-0.57031 5.8105-1.7051 7.2969-1.1348 1.4883-2.9062 2.2305-5.3105 2.2305-1.6719 0-3.2578-0.37891-4.7617-1.1406-1.5059-0.75782-3.0586-2-4.6602-3.7207v-65.986c1.3359-1.4541 2.6875-2.5293 4.0586-3.2251 1.3691-0.69287 2.7578-1.0425 4.1602-1.0425 2.6699 0 4.7109 0.92871 6.1133 2.7803 1.4043 1.852 2.1055 4.5635 2.1055 8.1357v54.674zm93.027-25.643v-26.959c0-10.049-2.4199-17.752-7.252-23.109-4.8359-5.3579-11.756-8.0371-20.762-8.0371-8.8105 0-15.996 2.894-21.557 8.6787-5.5644 5.7881-8.3457 13.275-8.3457 22.468v47.527c0 10.193 2.5332 18.201 7.5977 24.025 5.0664 5.8223 12.004 8.7344 20.814 8.7344 9.8008 0 17.17-2.748 22.104-8.2402 4.9336-5.4922 7.4004-13.666 7.4004-24.52v-7.9531h-20.262v7.3594c0 6.2305-0.65039 10.26-1.9492 12.08-1.2988 1.8223-3.582 2.7344-6.8457 2.7344-3.1367 0-5.3516-1.0762-6.6504-3.2324-1.2988-2.1523-1.9473-6.0156-1.9473-11.582v-19.975h37.654zm-37.66-27.152c0-4.4321 0.67969-7.6099 2.0488-9.5303 1.3652-1.9175 3.6133-2.8789 6.7461-2.8789 2.998 0 5.1816 0.96142 6.5488 2.8789 1.3652 1.9204 2.0488 5.0981 2.0488 9.5303v10.722h-17.39v-10.721z"/>
     <path d="m314.23 35.409h-68.045v20.834h22.937v122.71h22.171v-122.71h22.938v-20.828zm36.238 118.03c-1.8476 2.3144-3.877 4.2148-6.0859 5.7012-2.2109 1.4883-4.0391 2.2285-5.4902 2.2285-1.8476 0-3.1836-0.5625-4.0078-1.6856-0.82422-1.123-1.2363-2.9375-1.2363-5.4492v-81.167h-19.688v88.506c0 6.3047 1.1543 11.033 3.4629 14.188 2.3086 3.1523 5.7402 4.7266 10.291 4.7266 3.6914 0 7.502-1.1289 11.426-3.377 3.9258-2.252 7.6992-5.5352 11.328-9.8418v11.689h19.688v-105.9h-19.688v80.377zm76.277-81.715c-3.0527 0-6.0684 0.84228-9.0527 2.5234-2.9824 1.6846-5.7988 4.1396-8.4512 7.3711v-46.211h-19.879v143.54h19.879v-8.1406c2.5859 3.2246 5.3887 5.6113 8.4043 7.1582s6.4473 2.3203 10.295 2.3203c5.832 0 10.291-1.9941 13.373-5.9902s4.627-9.7578 4.627-17.287v-58.74c0-8.6489-1.6426-15.237-4.9258-19.759-3.2812-4.5215-8.0391-6.7852-14.27-6.7852zm-1.0664 82.41c0 3.375-0.57031 5.8086-1.7051 7.2969-1.1348 1.4863-2.9062 2.2305-5.3105 2.2305-1.6719 0-3.2578-0.37891-4.7617-1.1406-1.5059-0.75781-3.0586-2-4.6602-3.7207v-65.997c1.3359-1.4546 2.6875-2.5298 4.0586-3.2256 1.3691-0.69287 2.7578-1.042 4.1602-1.042 2.6699 0 4.7109 0.92871 6.1133 2.7803 1.4043 1.8516 2.1055 4.5635 2.1055 8.1353v54.674zm93.027-25.643v-26.959c0-10.05-2.4199-17.752-7.252-23.11-4.8359-5.3579-11.756-8.0366-20.762-8.0366-8.8105 0-15.996 2.894-21.557 8.6787-5.5644 5.7881-8.3457 13.275-8.3457 22.468v47.527c0 10.193 2.5332 18.201 7.5977 24.025 5.0664 5.8223 12.004 8.7344 20.814 8.7344 9.8008 0 17.17-2.748 22.104-8.2402 4.9336-5.4922 7.4004-13.666 7.4004-24.52v-7.9531h-20.262v7.3594c0 6.2305-0.65039 10.26-1.9492 12.08-1.2988 1.8223-3.582 2.7324-6.8457 2.7324-3.1367 0-5.3516-1.0742-6.6504-3.2305-1.2988-2.1543-1.9473-6.0156-1.9473-11.582v-19.975h37.654zm-37.654-27.156c0-4.4316 0.67969-7.6094 2.0488-9.5298 1.3652-1.9175 3.6133-2.8789 6.7461-2.8789 2.998 0 5.1816 0.96143 6.5488 2.8789 1.3652 1.9204 2.0488 5.0981 2.0488 9.5298v10.719h-17.4v-10.719z" fill="#fff"/>
    </g>
   </g>
  </g>
  <rect x="-96" rx="25" y="958.36" clip-path="url(#clipPath3009)" fill="#fff" height="92" opacity="0.15" width="92" transform="matrix(1 0 0 1 98 0)"/>
 </g>
</svg>
