<svg height="96" width="96" xmlns="http://www.w3.org/2000/svg" xmlns:xlink="http://www.w3.org/1999/xlink" xmlns:sodipodi="http://sodipodi.sourceforge.net/DTD/sodipodi-0.dtd" xmlns:inkscape="http://www.inkscape.org/namespaces/inkscape">
 <defs>
  <clipPath clipPathUnits="userSpaceOnUse" id="clipPath3721">
   <path d="m 76.014,47.513 a 28.2845,28.2845 0 1 1 -56.569,0 28.2845,28.2845 0 1 1 56.569,0 z" inkscape:connector-curvature="0" transform="matrix(1.3435 0 0 1.3435 -16.12 74.17)"/>
  </clipPath>
  <filter color-interpolation-filters="sRGB" id="filter3751">
   <feGaussianBlur stdDeviation="1.44"/>
  </filter>
  <clipPath clipPathUnits="userSpaceOnUse" id="clipPath4031">
   <path d="M 48,32 C 28.118,32 12,48.118 12,68 12,87.882 28.118,104 48,104 67.882,104 84,87.882 84,68 84,48.118 67.882,32 48,32 z m 0,24 c 6.6274,0 12,5.3726 12,12 0,6.6274 -5.3726,12 -12,12 -6.6274,0 -12,-5.3726 -12,-12 0,-6.6274 5.3726,-12 12,-12 z" inkscape:connector-curvature="0"/>
  </clipPath>
  <filter x="-0.19" y="-0.171" height="1.341" color-interpolation-filters="sRGB" id="filter4035" width="1.381">
   <feGaussianBlur stdDeviation="4.94766"/>
  </filter>
  <clipPath clipPathUnits="userSpaceOnUse" id="clipPath4187">
   <use xlink:href="#SVGCleanerId_0" inkscape:connector-curvature="0"/>
  </clipPath>
  <filter x="-0.18" y="-0.18" height="1.36" color-interpolation-filters="sRGB" id="filter4195" width="1.36">
   <feGaussianBlur stdDeviation="5.216"/>
  </filter>
  <filter color-interpolation-filters="sRGB" id="filter3810">
   <feGaussianBlur stdDeviation="0.42"/>
  </filter>
  <linearGradient id="linearGradient3816">
   <stop stop-color="#51acff"/>
   <stop stop-color="#6abaee" stop-opacity="0.675" offset="0.5"/>
   <stop stop-color="#318fe4" stop-opacity="0" offset="1"/>
  </linearGradient>
  <linearGradient id="linearGradient3934">
   <stop stop-color="#003d9e"/>
   <stop stop-color="#003d9e" stop-opacity="0" offset="1"/>
  </linearGradient>
  <linearGradient id="linearGradient3894">
   <stop stop-color="#93ddf7"/>
   <stop stop-color="#93ddf7" stop-opacity="0" offset="1"/>
  </linearGradient>
  <linearGradient x2="0" y1="89.67" y2="4.788" gradientUnits="userSpaceOnUse" id="linearGradient4081" inkscape:collect="always">
   <stop stop-color="#a0a0a0" stop-opacity="0.541"/>
   <stop stop-color="#a0a0a0" stop-opacity="0.345" offset="1"/>
  </linearGradient>
  <radialGradient cy="47.765" r="35.86" gradientUnits="userSpaceOnUse" id="radialGradient4083" cx="46.47" inkscape:collect="always">
   <stop stop-opacity="0"/>
   <stop stop-opacity="0" offset="0.93"/>
   <stop offset="1"/>
  </radialGradient>
  <linearGradient x1="25.22" x2="94.57" gradientUnits="userSpaceOnUse" id="linearGradient4085" inkscape:collect="always">
   <stop stop-color="#4d4d4d"/>
   <stop stop-color="#fff" offset="1"/>
  </linearGradient>
  <radialGradient cy="61.922" r="33.714" gradientUnits="userSpaceOnUse" id="radialGradient4087" cx="59.894" inkscape:collect="always" gradientTransform="matrix(1 0 0 0.83754 0 10.06)">
   <stop stop-opacity="0"/>
   <stop stop-opacity="0" offset="0.85"/>
   <stop offset="1"/>
  </radialGradient>
  <linearGradient x1="26.18" x2="93.61" gradientUnits="userSpaceOnUse" id="linearGradient4089" inkscape:collect="always">
   <stop stop-color="#fff" stop-opacity="0.203"/>
   <stop stop-color="#fff" stop-opacity="0.68" offset="1"/>
  </linearGradient>
  <radialGradient cy="24.634" r="19.01" gradientUnits="userSpaceOnUse" id="radialGradient4091" cx="61" inkscape:collect="always" gradientTransform="matrix(1.2626 -0.21044 0.09521 0.57124 -18.366 22.765)">
   <stop stop-color="#0a85ff"/>
   <stop stop-color="#006ad3" stop-opacity="0" offset="1"/>
  </radialGradient>
  <radialGradient cy="36.957" r="19" xlink:href="#linearGradient3816" gradientUnits="userSpaceOnUse" id="radialGradient4093" cx="41.753" inkscape:collect="always" gradientTransform="matrix(3.3631 -0.59089 0.30096 1.713 -109.79 2.681)"/>
  <linearGradient x1="80" x2="77" gradientUnits="userSpaceOnUse" id="linearGradient4095" inkscape:collect="always" gradientTransform="matrix(1 0 0 1 0 3)">
   <stop stop-color="#002767"/>
   <stop stop-color="#003180" stop-opacity="0.364" offset="0.5"/>
   <stop stop-color="#002767" stop-opacity="0" offset="1"/>
  </linearGradient>
  <linearGradient x1="52" x2="51.631" y1="10" y2="8.08" gradientUnits="userSpaceOnUse" id="linearGradient4097" inkscape:collect="always" gradientTransform="matrix(1 0 0 1 0 3)">
   <stop stop-color="#a2d7fb"/>
   <stop stop-color="#a2d7fb" stop-opacity="0" offset="1"/>
  </linearGradient>
  <radialGradient cy="39.11" r="19" xlink:href="#linearGradient3816" gradientUnits="userSpaceOnUse" id="radialGradient4099" cx="40.28" inkscape:collect="always" gradientTransform="matrix(3.373 -0.53175 0.18746 1.1891 -71.61 16.442)"/>
  <radialGradient cy="50.609" r="1.5" xlink:href="#linearGradient4095" gradientUnits="userSpaceOnUse" id="radialGradient4101" cx="46" inkscape:collect="always" gradientTransform="matrix(2.6667 0 0 30.667 -76.67 -1477)"/>
  <radialGradient cy="69.844" r="11" gradientUnits="userSpaceOnUse" id="radialGradient4103" cx="39.769" inkscape:collect="always" gradientTransform="matrix(1.1598 -0.14009 0.07244 0.58349 -11.414 33.34)">
   <stop stop-color="#01a3f1"/>
   <stop stop-color="#01a3f1" stop-opacity="0" offset="1"/>
  </radialGradient>
  <linearGradient x1="40" x2="41.884" xlink:href="#linearGradient3934" y1="70" y2="62.968" gradientUnits="userSpaceOnUse" id="linearGradient4105" inkscape:collect="always"/>
  <linearGradient x1="40" x2="42" xlink:href="#linearGradient3934" y1="69" y2="64" gradientUnits="userSpaceOnUse" id="linearGradient4107" inkscape:collect="always"/>
  <linearGradient x1="31" x2="36" xlink:href="#linearGradient3894" y1="61" y2="70" gradientUnits="userSpaceOnUse" id="linearGradient4109" inkscape:collect="always" gradientTransform="matrix(1 0 0 1 0 3)"/>
  <linearGradient x1="40" x2="41.884" xlink:href="#linearGradient3934" y1="70" y2="62.968" gradientUnits="userSpaceOnUse" id="linearGradient4113" inkscape:collect="always" gradientTransform="matrix(1 0 0 1 34 -5)"/>
  <linearGradient x1="40" x2="42" xlink:href="#linearGradient3934" y1="69" y2="64" gradientUnits="userSpaceOnUse" id="linearGradient4115" inkscape:collect="always" gradientTransform="matrix(1 0 0 1 34 -5)"/>
  <linearGradient x1="31" x2="36" xlink:href="#linearGradient3894" y1="61" y2="70" gradientUnits="userSpaceOnUse" id="linearGradient4117" inkscape:collect="always" gradientTransform="matrix(1 0 0 1 34 -2)"/>
  <clipPath clipPathUnits="userSpaceOnUse" id="clipPath4119">
   <rect x="42.11" rx="25" y="-2" height="92" width="92"/>
  </clipPath>
  <clipPath clipPathUnits="userSpaceOnUse" id="clipPath3009">
   <path d="m -2,956.36218 -96,0 0,33.5624 96,25.68742 0,-59.24982 z" inkscape:connector-curvature="0"/>
  </clipPath>
  <path d="m 48,102 c -19.882,0 -36,16.118 -36,36 0,19.882 16.118,36 36,36 19.882,0 36,-16.118 36,-36 0,-19.882 -16.118,-36 -36,-36 z m 0,24 c 6.6274,0 12,5.3726 12,12 0,6.6274 -5.3726,12 -12,12 -6.6274,0 -12,-5.3726 -12,-12 0,-6.6274 5.3726,-12 12,-12 z" id="SVGCleanerId_0"/>
  <path d="m 92.58,61.922 a 32.686,27.208 0 1 1 -65.371,0 32.686,27.208 0 1 1 65.371,0 z" id="SVGCleanerId_1" stroke-linecap="round"/>
  <path d="m 60.947,57.784 a 20.708,18.814 0 0 1 -2.6155,2.9059 l -14.643,-13.304 z" fill="#7137c8" id="SVGCleanerId_2"/>
  <path d="m 60.779,58.011 a 20.708,18.814 0 0 1 -3.384,3.4788 L 43.689,47.3858 z" fill="#00ccff" id="SVGCleanerId_3"/>
  <path d="m 62.724,54.796 a 20.708,18.814 0 0 1 -2.2597,3.6221 l -16.775,-11.032 z" fill="#ffcc00" id="SVGCleanerId_4"/>
  <path d="m 61.623,56.793 a 20.708,18.814 0 0 1 -1.6993,2.2728 l -16.235,-11.68 z" fill="#ff0000" id="SVGCleanerId_5"/>
  <path d="m 63.123,53.883 a 20.708,18.814 0 0 1 -2.37,4.1619 L 43.689,47.3859 z" fill="#00ff00" id="SVGCleanerId_6"/>
  <path d="m 51,65 a 11,8 0 1 1 -22,0 11,8 0 1 1 22,0 z" fill="url(#radialGradient4103)" color="#000000" id="SVGCleanerId_7"/>
 </defs>
 <g inkscape:label="Layer 1" inkscape:groupmode="layer" transform="matrix(1 0 0 1 0 -956.36)">
  <g clip-path="url(#clipPath4119)" transform="matrix(1 0 0 1 -40.11 960.36)">
   <g transform="matrix(1.09524 0 0 1.09524 35.542 -8.571)">
    <rect x="6" rx="6" y="6" fill="url(#linearGradient4081)" height="84" width="84"/>
    <path d="m 82.327,47.765 a 35.8605,35.8605 0 1 1 -71.721,0 35.8605,35.8605 0 1 1 71.721,0 z" fill="url(#radialGradient4083)" opacity="0.4" inkscape:connector-curvature="0" transform="matrix(1.0597 0 0 1.0597 -1.239 -2.615)"/>
    <use xlink:href="#SVGCleanerId_0" clip-path="url(#clipPath3721)" filter="url(#filter3751)" opacity="0.8" inkscape:connector-curvature="0" transform="matrix(1 0 0 1 0 -90)"/>
    <path d="M 48,12 C 28.118,12 12,28.118 12,48 12,67.882 28.118,84 48,84 67.882,84 84,67.882 84,48 84,28.118 67.882,12 48,12 z m 0,24 c 6.6274,0 12,5.3726 12,12 0,6.6274 -5.3726,12 -12,12 -6.6274,0 -12,-5.3726 -12,-12 0,-6.6274 5.3726,-12 12,-12 z" fill="#bbb1bf" inkscape:connector-curvature="0"/>
    <path d="m 48,36 c -6.6274,0 -12,5.3726 -12,12 0,6.6274 5.3726,12 12,12 6.6274,0 12,-5.3726 12,-12 0,-6.6274 -5.3726,-12 -12,-12 z m 0,7 c 2.7614,0 5,2.2386 5,5 0,2.7614 -2.2386,5 -5,5 -2.7614,0 -5,-2.2386 -5,-5 0,-2.7614 2.2386,-5 5,-5 z" fill="#ffffff" opacity="0.3" inkscape:connector-curvature="0"/>
    <use stroke-width="5.422" xlink:href="#SVGCleanerId_1" fill="none" stroke="url(#linearGradient4085)" opacity="0.6" inkscape:connector-curvature="0" transform="matrix(0 0.16827 -0.20214 0 60.52 37.922)"/>
    <use stroke-width="3.139" xlink:href="#SVGCleanerId_1" fill="url(#radialGradient4087)" fill-rule="evenodd" stroke="url(#linearGradient4089)" opacity="0.5" inkscape:connector-curvature="0" transform="matrix(0 0.29065 -0.34916 0 69.62 30.592)"/>
    <path d="M 57.312,33.219 48,68 79.188,50 C 74.414,41.731 66.535,35.69 57.312,33.219 z M 48,68 16.812,86 c 4.7739,8.2686 12.653,14.31 21.875,16.781 L 48,68.001 z" clip-path="url(#clipPath4031)" fill="#ffffff" filter="url(#filter4035)" opacity="0.8" inkscape:connector-curvature="0" transform="matrix(1 0 0 1 0 -20)"/>
    <g clip-path="url(#clipPath4187)" filter="url(#filter4195)" opacity="0.6" transform="matrix(1 0 0 1 0 -90)">
     <use xlink:href="#SVGCleanerId_2" inkscape:connector-curvature="0" transform="matrix(1.5055 0.86922 -0.95673 1.6571 27.56 21.5)"/>
     <use xlink:href="#SVGCleanerId_3" inkscape:connector-curvature="0" transform="matrix(1.6792 0.44994 -0.49524 1.8483 -1.896 30.76)"/>
     <use xlink:href="#SVGCleanerId_4" inkscape:connector-curvature="0" transform="matrix(1.7384 0 0 1.9135 -27.951 47.33)"/>
     <use xlink:href="#SVGCleanerId_5" inkscape:connector-curvature="0" transform="matrix(1.6792 -0.44994 0.49524 1.8483 -48.831 70.08)"/>
     <use xlink:href="#SVGCleanerId_6" inkscape:connector-curvature="0" transform="matrix(1.6792 0.44994 -0.49524 1.8483 -1.896 30.76)"/>
     <use xlink:href="#SVGCleanerId_2" inkscape:connector-curvature="0" transform="matrix(-1.5055 -0.86922 0.95673 -1.6571 68.44 254.5)"/>
     <use xlink:href="#SVGCleanerId_3" inkscape:connector-curvature="0" transform="matrix(-1.6792 -0.44994 0.49524 -1.8483 97.9 245.24)"/>
     <use xlink:href="#SVGCleanerId_4" inkscape:connector-curvature="0" transform="matrix(-1.7384 0 0 -1.9135 123.95 228.67)"/>
     <use xlink:href="#SVGCleanerId_5" inkscape:connector-curvature="0" transform="matrix(-1.6792 0.44994 -0.49524 -1.8483 144.83 205.92)"/>
     <use xlink:href="#SVGCleanerId_6" inkscape:connector-curvature="0" transform="matrix(-1.6792 -0.44994 0.49524 -1.8483 97.9 245.24)"/>
    </g>
    <path d="m 48,33.5 c -8.0081,0 -14.5,6.4919 -14.5,14.5 0,8.0081 6.4919,14.5 14.5,14.5 8.0081,0 14.5,-6.4919 14.5,-14.5 0,-8.0081 -6.4919,-14.5 -14.5,-14.5 z m 0,2.5 c 6.6274,0 12,5.3726 12,12 0,6.6274 -5.3726,12 -12,12 -6.6274,0 -12,-5.3726 -12,-12 0,-6.6274 5.3726,-12 12,-12 z" opacity="0.2" inkscape:connector-curvature="0"/>
    <path d="m 48,12 c -19.882,0 -36,16.118 -36,36 0,0.33707 0.022,0.66516 0.0312,1 0.534,-19.416 16.424,-35 35.969,-35 19.545,0 35.435,15.584 35.969,35 0.009,-0.335 0.031,-0.663 0.031,-1 0,-19.882 -16.118,-36 -36,-36 z" fill="#ffffff" opacity="0.4" inkscape:connector-curvature="0"/>
    <g transform="matrix(1 0 0 1 -8 6)">
     <path d="m 80,7 -40,7 v 49.438 c -2.3193,-0.62616 -5.062,-0.58889 -7.7812,0.28125 -5.8766,1.8805 -9.3783,6.8875 -7.8438,11.188 1.5345,4.3 7.5296,6.2555 13.406,4.375 5.02,-1.607 8.288,-5.502 8.188,-9.282 H 46 v -40 l 28,-5 v 33.438 c -2.3193,-0.62616 -5.062,-0.58889 -7.7812,0.28125 -5.8766,1.8805 -9.3783,6.8875 -7.8438,11.188 1.5345,4.3 7.5296,6.2555 13.406,4.375 5.02,-1.607 8.288,-5.502 8.188,-9.282 H 80 v -58 z" opacity="0.3" inkscape:connector-curvature="0"/>
     <path d="m 80,6 -40,7 v 49.438 c -2.3193,-0.62616 -5.062,-0.58889 -7.7812,0.28125 -5.8766,1.8805 -9.3783,6.8875 -7.8438,11.188 1.5345,4.3 7.5296,6.2555 13.406,4.375 5.02,-1.607 8.288,-5.502 8.188,-9.282 H 46 v -40 l 28,-5 v 33.438 c -2.3193,-0.62616 -5.062,-0.58889 -7.7812,0.28125 -5.8766,1.8805 -9.3783,6.8875 -7.8438,11.188 1.5345,4.3 7.5296,6.2555 13.406,4.375 5.02,-1.607 8.288,-5.502 8.188,-9.282 H 80 v -58 z" fill="#0046b5" inkscape:connector-curvature="0"/>
     <path d="M 42,16 V 29 L 78,22 V 9 l -36,7 z" fill="url(#radialGradient4091)" filter="url(#filter3810)" inkscape:connector-curvature="0"/>
     <path d="m 79,8 -38,7 v 47.75 c 0.72261,0.27229 1.4026,0.59025 2,1 V 30 c 0,-4 0.41719,-5.5006 4,-7 10.867,-4.5478 27,-2 32,-15 z" fill="url(#radialGradient4093)" inkscape:connector-curvature="0"/>
     <path d="m 80,6 -3,0.5312 v 63.719 c 1.917,-1.807 3.028,-4.043 2.969,-6.25 H 80 v -58 z" fill="url(#linearGradient4095)" inkscape:connector-curvature="0"/>
     <path d="m 40,13 1,2 38,-7 1,-2 -40,7 z" fill="url(#linearGradient4097)" inkscape:connector-curvature="0"/>
     <path d="M 77.062,23.438 75,23.781 V 57.75 c 0.72261,0.27229 1.4026,0.59025 2,1 V 25 c 0,-0.57949 0.03663,-1.0803 0.0625,-1.5625 z" fill="url(#radialGradient4099)" inkscape:connector-curvature="0"/>
     <path d="m 46,29 -3,0.531 V 75.25 C 44.917,73.443 46.028,71.207 45.969,69 H 46 V 29 z" fill="url(#radialGradient4101)" inkscape:connector-curvature="0"/>
     <use xlink:href="#SVGCleanerId_7" inkscape:connector-curvature="0" transform="matrix(0.96732 -0.30953 0.34731 0.97324 -26.27 19.621)"/>
     <path d="m 36.594,62 c -1.414,0.013 -2.906,0.249 -4.375,0.719 -5.877,1.88 -9.379,6.887 -7.844,11.187 1.535,4.3 7.53,6.256 13.406,4.375 5.877,-1.88 9.379,-6.887 7.844,-11.187 C 44.474,63.869 40.835,61.96 36.594,62 z m 0.094,1.844 c 1.225,-0.011 2.347,0.175 3.343,0.5 1.992,0.65 3.313,1.823 3.844,3.312 0.531,1.489 0.261,3.183 -0.906,4.844 -1.167,1.661 -3.222,3.202 -5.813,4.031 -2.591,0.829 -5.195,0.776 -7.187,0.125 -1.992,-0.65 -3.313,-1.823 -3.844,-3.312 -0.531,-1.489 -0.261,-3.183 0.906,-4.844 1.167,-1.661 3.222,-3.202 5.813,-4.031 1.295,-0.415 2.618,-0.614 3.844,-0.625 z" fill="url(#linearGradient4105)" color="#000000" opacity="0.2" inkscape:connector-curvature="0"/>
     <path d="m 36.594,62 c -1.414,0.013 -2.906,0.249 -4.375,0.719 -5.877,1.88 -9.379,6.887 -7.844,11.187 1.535,4.3 7.53,6.256 13.406,4.375 5.877,-1.88 9.379,-6.887 7.844,-11.187 C 44.474,63.869 40.835,61.96 36.594,62 z m 0.031,1.031 c 1.308,-0.011 2.561,0.174 3.656,0.531 2.19,0.715 3.768,2.056 4.407,3.844 0.638,1.789 0.22,3.768 -1.063,5.594 -1.283,1.826 -3.439,3.433 -6.187,4.312 -2.749,0.88 -5.53,0.84 -7.719,0.126 -2.19,-0.715 -3.768,-2.056 -4.407,-3.844 -0.638,-1.789 -0.22,-3.768 1.063,-5.594 1.283,-1.826 3.439,-3.433 6.187,-4.312 1.375,-0.44 2.755,-0.646 4.063,-0.657 z" fill="url(#linearGradient4107)" color="#000000" opacity="0.5" inkscape:connector-curvature="0"/>
     <path d="m 40,65 c 1.2209,2.4769 -1.4442,5.1714 -5.4072,7.1248 -3.963,1.9534 -7.7233,2.426 -8.9441,-0.05091 -1.2209,-2.4769 1.0021,-6.0683 4.9651,-8.0217 3.963,-1.9534 8.1654,-1.529 9.3862,0.94786 z" fill="url(#linearGradient4109)" color="#000000" inkscape:connector-curvature="0"/>
     <use xlink:href="#SVGCleanerId_7" inkscape:connector-curvature="0" transform="matrix(0.96732 -0.30953 0.34731 0.97324 7.732 14.621)"/>
     <path d="m 70.594,57 c -1.4136,0.01337 -2.9058,0.24864 -4.375,0.71875 -5.8766,1.8805 -9.3783,6.8875 -7.8438,11.188 1.5345,4.3 7.5296,6.2555 13.406,4.375 5.8766,-1.8805 9.3783,-6.8875 7.8438,-11.188 -1.151,-3.225 -4.79,-5.134 -9.031,-5.094 z m 0.09375,1.8438 c 1.2256,-0.01097 2.3477,0.17481 3.3438,0.5 1.9921,0.65038 3.3123,1.8234 3.8438,3.3125 0.5314,1.4891 0.26089,3.1825 -0.90625,4.8438 -1.16714,1.6613 -3.2216,3.2022 -5.8125,4.0312 -2.5909,0.82905 -5.1954,0.77538 -7.1875,0.125 -1.9921,-0.65038 -3.3123,-1.8234 -3.8438,-3.3125 -0.5314,-1.4891 -0.26089,-3.1825 0.90625,-4.8438 1.16714,-1.6613 3.2216,-3.2022 5.8125,-4.0312 1.2954,-0.41452 2.6182,-0.61403 3.8438,-0.625 z" fill="url(#linearGradient4113)" color="#000000" opacity="0.2" inkscape:connector-curvature="0"/>
     <path d="m 70.594,57 c -1.4136,0.01337 -2.9058,0.24864 -4.375,0.71875 -5.8766,1.8805 -9.3783,6.8875 -7.8438,11.188 1.5345,4.3 7.5296,6.2555 13.406,4.375 5.8766,-1.8805 9.3783,-6.8875 7.8438,-11.188 -1.151,-3.225 -4.79,-5.134 -9.031,-5.094 z m 0.03125,1.0312 c 1.3081,-0.01099 2.5614,0.17381 3.6562,0.53125 2.1896,0.71488 3.768,2.0554 4.4062,3.8438 0.63821,1.7884 0.22039,3.7677 -1.0625,5.5938 -1.28289,1.8261 -3.4393,3.4331 -6.1875,4.3125 -2.7482,0.8794 -5.5291,0.83988 -7.7188,0.125 -2.19,-0.714 -3.768,-2.055 -4.407,-3.843 -0.638,-1.789 -0.22,-3.768 1.063,-5.594 1.2829,-1.8261 3.4393,-3.4331 6.1875,-4.3125 1.3741,-0.4397 2.7544,-0.64526 4.0625,-0.65625 z" fill="url(#linearGradient4115)" color="#000000" opacity="0.5" inkscape:connector-curvature="0"/>
     <path d="m 74,60 c 1.2209,2.4769 -1.4442,5.1714 -5.4072,7.1248 -3.963,1.9534 -7.7233,2.426 -8.9441,-0.05091 -1.2209,-2.4769 1.0021,-6.0683 4.9651,-8.0217 3.963,-1.9534 8.1654,-1.529 9.3862,0.94786 z" fill="url(#linearGradient4117)" color="#000000" inkscape:connector-curvature="0"/>
    </g>
   </g>
  </g>
  <rect x="-96" rx="25" y="958.36" clip-path="url(#clipPath3009)" fill="#ffffff" fill-opacity="1" height="92" opacity="0.15" width="92" transform="matrix(1 0 0 1 98 0)"/>
 </g>
</svg>
