<?xml version="1.0" encoding="UTF-8" standalone="no"?>
<!-- Created with Inkscape (http://www.inkscape.org/) -->

<svg
   xmlns:dc="http://purl.org/dc/elements/1.1/"
   xmlns:cc="http://creativecommons.org/ns#"
   xmlns:rdf="http://www.w3.org/1999/02/22-rdf-syntax-ns#"
   xmlns:svg="http://www.w3.org/2000/svg"
   xmlns="http://www.w3.org/2000/svg"
   xmlns:xlink="http://www.w3.org/1999/xlink"
   xmlns:sodipodi="http://sodipodi.sourceforge.net/DTD/sodipodi-0.dtd"
   xmlns:inkscape="http://www.inkscape.org/namespaces/inkscape"
   width="96"
   height="96"
   id="svg11037"
   version="1.1"
   inkscape:version="0.48.5 r10040"
   sodipodi:docname="minitunes.svg">
  <defs
     id="defs11039">
    <linearGradient
       id="linearGradient3795">
      <stop
         style="stop-color:#13a6fd;stop-opacity:1;"
         offset="0"
         id="stop3797" />
      <stop
         style="stop-color:#2975b6;stop-opacity:1;"
         offset="1"
         id="stop3799" />
    </linearGradient>
    <linearGradient
       id="linearGradient4584"
       y2="4.7880001"
       gradientUnits="userSpaceOnUse"
       x2="47.921001"
       y1="89.668999"
       x1="47.921001">
      <stop
         id="stop4580"
         style="stop-color:#a0a0a0;stop-opacity:.54118"
         offset="0" />
      <stop
         id="stop4582"
         style="stop-color:#a0a0a0;stop-opacity:.34510"
         offset="1" />
    </linearGradient>
    <radialGradient
       id="radialGradient4646"
       gradientUnits="userSpaceOnUse"
       cy="47.764999"
       cx="46.466999"
       r="35.860001">
      <stop
         id="stop4642"
         style="stop-opacity:0"
         offset="0" />
      <stop
         id="stop4648"
         style="stop-opacity:0"
         offset="0.93" />
      <stop
         id="stop4644"
         offset="1" />
    </radialGradient>
    <clipPath
       id="clipPath3721"
       clipPathUnits="userSpaceOnUse">
      <path
         inkscape:connector-curvature="0"
         id="path3723"
         style="fill:#ff0000"
         d="m 76.014,47.513 a 28.2845,28.2845 0 1 1 -56.569,0 28.2845,28.2845 0 1 1 56.569,0 z"
         transform="matrix(1.3435,0,0,1.3435,-16.125,74.167)" />
    </clipPath>
    <filter
       color-interpolation-filters="sRGB"
       id="filter3751">
      <feGaussianBlur
         id="feGaussianBlur3753"
         stdDeviation="1.44" />
    </filter>
    <linearGradient
       id="linearGradient4004"
       y2="61.922001"
       gradientUnits="userSpaceOnUse"
       x2="94.568001"
       y1="61.922001"
       x1="25.219999">
      <stop
         id="stop3364"
         style="stop-color:#4d4d4d"
         offset="0" />
      <stop
         id="stop3366"
         style="stop-color:#fff"
         offset="1" />
    </linearGradient>
    <radialGradient
       id="radialGradient4012"
       gradientUnits="userSpaceOnUse"
       cy="61.922001"
       cx="59.894001"
       gradientTransform="matrix(1,0,0,0.83754,0,10.06)"
       r="33.714001">
      <stop
         id="stop3344"
         style="stop-opacity:0"
         offset="0" />
      <stop
         id="stop3350"
         style="stop-opacity:0"
         offset="0.85" />
      <stop
         id="stop3346"
         offset="1" />
    </radialGradient>
    <linearGradient
       id="linearGradient4014"
       y2="61.922001"
       gradientUnits="userSpaceOnUse"
       x2="93.608002"
       y1="61.922001"
       x1="26.18">
      <stop
         id="stop3332"
         style="stop-color:#fff;stop-opacity:.20312"
         offset="0" />
      <stop
         id="stop3334"
         style="stop-color:#fff;stop-opacity:.67969"
         offset="1" />
    </linearGradient>
    <clipPath
       id="clipPath4031"
       clipPathUnits="userSpaceOnUse">
      <path
         inkscape:connector-curvature="0"
         id="path4033"
         style="fill:#bbb1bf"
         d="M 48,32 C 28.118,32 12,48.118 12,68 12,87.882 28.118,104 48,104 67.882,104 84,87.882 84,68 84,48.118 67.882,32 48,32 z m 0,24 c 6.6274,0 12,5.3726 12,12 0,6.6274 -5.3726,12 -12,12 -6.6274,0 -12,-5.3726 -12,-12 0,-6.6274 5.3726,-12 12,-12 z" />
    </clipPath>
    <filter
       id="filter4035"
       height="1.3414"
       width="1.3807"
       color-interpolation-filters="sRGB"
       y="-0.1707"
       x="-0.19036999">
      <feGaussianBlur
         id="feGaussianBlur4037"
         stdDeviation="4.9476562" />
    </filter>
    <clipPath
       id="clipPath4187"
       clipPathUnits="userSpaceOnUse">
      <path
         inkscape:connector-curvature="0"
         id="path4189"
         style="fill:#bbb1bf"
         d="m 48,102 c -19.882,0 -36,16.118 -36,36 0,19.882 16.118,36 36,36 19.882,0 36,-16.118 36,-36 0,-19.882 -16.118,-36 -36,-36 z m 0,24 c 6.6274,0 12,5.3726 12,12 0,6.6274 -5.3726,12 -12,12 -6.6274,0 -12,-5.3726 -12,-12 0,-6.6274 5.3726,-12 12,-12 z" />
    </clipPath>
    <filter
       id="filter4195"
       height="1.36"
       width="1.36"
       color-interpolation-filters="sRGB"
       y="-0.18000001"
       x="-0.18000001">
      <feGaussianBlur
         id="feGaussianBlur4197"
         stdDeviation="5.2159999" />
    </filter>
    <radialGradient
       id="radialGradient3887"
       gradientUnits="userSpaceOnUse"
       cy="24.634001"
       cx="61"
       gradientTransform="matrix(1.2626,-0.21044,0.095207,0.57124,-18.366,22.765)"
       r="19.007999">
      <stop
         id="stop3800"
         style="stop-color:#0a85ff"
         offset="0" />
      <stop
         id="stop3802"
         style="stop-color:#006ad3;stop-opacity:0"
         offset="1" />
    </radialGradient>
    <filter
       color-interpolation-filters="sRGB"
       id="filter3810">
      <feGaussianBlur
         id="feGaussianBlur3812"
         stdDeviation="0.42" />
    </filter>
    <linearGradient
       id="linearGradient3816">
      <stop
         id="stop3818"
         style="stop-color:#51acff"
         offset="0" />
      <stop
         id="stop3824"
         style="stop-color:#6abaee;stop-opacity:.67451"
         offset=".5" />
      <stop
         id="stop3820"
         style="stop-color:#318fe4;stop-opacity:0"
         offset="1" />
    </linearGradient>
    <linearGradient
       id="linearGradient3866"
       y2="37"
       gradientUnits="userSpaceOnUse"
       x2="77"
       gradientTransform="translate(0,3)"
       y1="37"
       x1="80">
      <stop
         id="stop3862"
         style="stop-color:#002767"
         offset="0" />
      <stop
         id="stop3868"
         style="stop-color:#003180;stop-opacity:.36434"
         offset=".5" />
      <stop
         id="stop3864"
         style="stop-color:#002767;stop-opacity:0"
         offset="1" />
    </linearGradient>
    <linearGradient
       id="linearGradient3834"
       y2="8.0840998"
       gradientUnits="userSpaceOnUse"
       x2="51.631001"
       gradientTransform="translate(0,3)"
       y1="10"
       x1="52">
      <stop
         id="stop3830"
         style="stop-color:#a2d7fb"
         offset="0" />
      <stop
         id="stop3832"
         style="stop-color:#a2d7fb;stop-opacity:0"
         offset="1" />
    </linearGradient>
    <radialGradient
       id="radialGradient3877"
       gradientUnits="userSpaceOnUse"
       cy="50.609001"
       cx="46"
       gradientTransform="matrix(2.6667,-6.9565e-8,8e-7,30.667,-76.667,-1477)"
       r="1.5">
      <stop
         id="stop3881"
         style="stop-color:#002767"
         offset="0" />
      <stop
         id="stop3883"
         style="stop-color:#003180;stop-opacity:.36434"
         offset=".5" />
      <stop
         id="stop3885"
         style="stop-color:#002767;stop-opacity:0"
         offset="1" />
    </radialGradient>
    <linearGradient
       id="linearGradient3958">
      <stop
         id="stop3960"
         style="stop-color:#01a3f1"
         offset="0" />
      <stop
         id="stop3962"
         style="stop-color:#01a3f1;stop-opacity:0"
         offset="1" />
    </linearGradient>
    <linearGradient
       id="linearGradient3934">
      <stop
         id="stop3936"
         style="stop-color:#003d9e"
         offset="0" />
      <stop
         id="stop3938"
         style="stop-color:#003d9e;stop-opacity:0"
         offset="1" />
    </linearGradient>
    <linearGradient
       id="linearGradient3894">
      <stop
         id="stop3896"
         style="stop-color:#93ddf7"
         offset="0" />
      <stop
         id="stop3898"
         style="stop-color:#93ddf7;stop-opacity:0"
         offset="1" />
    </linearGradient>
    <linearGradient
       inkscape:collect="always"
       xlink:href="#linearGradient4584"
       id="linearGradient4081"
       gradientUnits="userSpaceOnUse"
       x1="47.921001"
       y1="89.668999"
       x2="47.921001"
       y2="4.7880001" />
    <radialGradient
       inkscape:collect="always"
       xlink:href="#radialGradient4646"
       id="radialGradient4083"
       gradientUnits="userSpaceOnUse"
       cx="46.466999"
       cy="47.764999"
       r="35.860001" />
    <linearGradient
       inkscape:collect="always"
       xlink:href="#linearGradient4004"
       id="linearGradient4085"
       gradientUnits="userSpaceOnUse"
       x1="25.219999"
       y1="61.922001"
       x2="94.568001"
       y2="61.922001" />
    <radialGradient
       inkscape:collect="always"
       xlink:href="#radialGradient4012"
       id="radialGradient4087"
       gradientUnits="userSpaceOnUse"
       gradientTransform="matrix(1,0,0,0.83754,0,10.06)"
       cx="59.894001"
       cy="61.922001"
       r="33.714001" />
    <linearGradient
       inkscape:collect="always"
       xlink:href="#linearGradient4014"
       id="linearGradient4089"
       gradientUnits="userSpaceOnUse"
       x1="26.18"
       y1="61.922001"
       x2="93.608002"
       y2="61.922001" />
    <radialGradient
       inkscape:collect="always"
       xlink:href="#radialGradient3887"
       id="radialGradient4091"
       gradientUnits="userSpaceOnUse"
       gradientTransform="matrix(1.2626,-0.21044,0.095207,0.57124,-18.366,22.765)"
       cx="61"
       cy="24.634001"
       r="19.007999" />
    <radialGradient
       inkscape:collect="always"
       xlink:href="#linearGradient3816"
       id="radialGradient4093"
       gradientUnits="userSpaceOnUse"
       gradientTransform="matrix(3.3631,-0.59089,0.30096,1.713,-109.79,2.6806)"
       cx="41.752998"
       cy="36.957001"
       r="19" />
    <linearGradient
       inkscape:collect="always"
       xlink:href="#linearGradient3866"
       id="linearGradient4095"
       gradientUnits="userSpaceOnUse"
       gradientTransform="translate(0,3)"
       x1="80"
       y1="37"
       x2="77"
       y2="37" />
    <linearGradient
       inkscape:collect="always"
       xlink:href="#linearGradient3834"
       id="linearGradient4097"
       gradientUnits="userSpaceOnUse"
       gradientTransform="translate(0,3)"
       x1="52"
       y1="10"
       x2="51.631001"
       y2="8.0840998" />
    <radialGradient
       inkscape:collect="always"
       xlink:href="#linearGradient3816"
       id="radialGradient4099"
       gradientUnits="userSpaceOnUse"
       gradientTransform="matrix(3.373,-0.53175,0.18746,1.1891,-71.605,16.442)"
       cx="40.285"
       cy="39.105999"
       r="19" />
    <radialGradient
       inkscape:collect="always"
       xlink:href="#radialGradient3877"
       id="radialGradient4101"
       gradientUnits="userSpaceOnUse"
       gradientTransform="matrix(2.6667,-6.9565e-8,8e-7,30.667,-76.667,-1477)"
       cx="46"
       cy="50.609001"
       r="1.5" />
    <radialGradient
       inkscape:collect="always"
       xlink:href="#linearGradient3958"
       id="radialGradient4103"
       gradientUnits="userSpaceOnUse"
       gradientTransform="matrix(1.1598,-0.14009,0.072442,0.58349,-11.414,33.341)"
       cx="39.769001"
       cy="69.844002"
       r="11" />
    <linearGradient
       inkscape:collect="always"
       xlink:href="#linearGradient3934"
       id="linearGradient4105"
       gradientUnits="userSpaceOnUse"
       x1="40"
       y1="70"
       x2="41.883999"
       y2="62.967999" />
    <linearGradient
       inkscape:collect="always"
       xlink:href="#linearGradient3934"
       id="linearGradient4107"
       gradientUnits="userSpaceOnUse"
       x1="40"
       y1="69"
       x2="42"
       y2="64" />
    <linearGradient
       inkscape:collect="always"
       xlink:href="#linearGradient3894"
       id="linearGradient4109"
       gradientUnits="userSpaceOnUse"
       gradientTransform="translate(0,3)"
       x1="31"
       y1="61"
       x2="36"
       y2="70" />
    <radialGradient
       inkscape:collect="always"
       xlink:href="#linearGradient3958"
       id="radialGradient4111"
       gradientUnits="userSpaceOnUse"
       gradientTransform="matrix(1.1598,-0.14009,0.072442,0.58349,-11.414,33.341)"
       cx="39.769001"
       cy="69.844002"
       r="11" />
    <linearGradient
       inkscape:collect="always"
       xlink:href="#linearGradient3934"
       id="linearGradient4113"
       gradientUnits="userSpaceOnUse"
       gradientTransform="translate(34,-5)"
       x1="40"
       y1="70"
       x2="41.883999"
       y2="62.967999" />
    <linearGradient
       inkscape:collect="always"
       xlink:href="#linearGradient3934"
       id="linearGradient4115"
       gradientUnits="userSpaceOnUse"
       gradientTransform="translate(34,-5)"
       x1="40"
       y1="69"
       x2="42"
       y2="64" />
    <linearGradient
       inkscape:collect="always"
       xlink:href="#linearGradient3894"
       id="linearGradient4117"
       gradientUnits="userSpaceOnUse"
       gradientTransform="translate(34,-2)"
       x1="31"
       y1="61"
       x2="36"
       y2="70" />
    <clipPath
       clipPathUnits="userSpaceOnUse"
       id="clipPath4119">
      <rect
         x="42.112953"
         y="-1.9999974"
         width="92"
         height="92"
         style="fill:url(#linearGradient4123);fill-opacity:1"
         id="rect4121"
         rx="25"
         ry="25" />
    </clipPath>
    <linearGradient
       inkscape:collect="always"
       xlink:href="#linearGradient3795"
       id="linearGradient4123"
       gradientUnits="userSpaceOnUse"
       gradientTransform="matrix(1.15,0,0,1.15,32.913007,-1111.0151)"
       x1="47.999954"
       y1="962.62189"
       x2="47.999954"
       y2="1046.1001" />
    <clipPath
       clipPathUnits="userSpaceOnUse"
       id="clipPath3009">
      <path
         id="path3011-2"
         d="m -2,956.36218 -96,0 0,33.5624 96,25.68742 0,-59.24982 z"
         style="opacity:0.15;fill:#ffffff;fill-opacity:1;stroke:none"
         inkscape:connector-curvature="0" />
    </clipPath>
  </defs>
  <sodipodi:namedview
     id="base"
     pagecolor="#ffffff"
     bordercolor="#666666"
     borderopacity="1.0"
     inkscape:pageopacity="0.0"
     inkscape:pageshadow="2"
     inkscape:zoom="3.959798"
     inkscape:cx="33.538031"
     inkscape:cy="59.964634"
     inkscape:document-units="px"
     inkscape:current-layer="layer1"
     showgrid="false"
     inkscape:window-width="1280"
     inkscape:window-height="750"
     inkscape:window-x="0"
     inkscape:window-y="22"
     inkscape:window-maximized="1"
     showguides="true"
     inkscape:guide-bbox="true">
    <sodipodi:guide
       orientation="0,1"
       position="-24.748737,0"
       id="guide11064" />
    <sodipodi:guide
       orientation="0,1"
       position="-23.233509,96"
       id="guide11066" />
    <sodipodi:guide
       orientation="1,0"
       position="0,54.800776"
       id="guide11068" />
    <sodipodi:guide
       orientation="1,0"
       position="96,51.012704"
       id="guide11070" />
    <sodipodi:guide
       orientation="0,1"
       position="-18.94036,48"
       id="guide11072" />
    <sodipodi:guide
       orientation="1,0"
       position="48,79.296975"
       id="guide11074" />
    <sodipodi:guide
       orientation="1,0"
       position="2,75.508903"
       id="guide11076" />
    <sodipodi:guide
       orientation="0,1"
       position="-77.27667,2"
       id="guide11078" />
    <sodipodi:guide
       orientation="1,0"
       position="94,77.781746"
       id="guide11080" />
    <sodipodi:guide
       orientation="0,1"
       position="-65.912454,94"
       id="guide11082" />
  </sodipodi:namedview>
  <metadata
     id="metadata11042">
    <rdf:RDF>
      <cc:Work
         rdf:about="">
        <dc:format>image/svg+xml</dc:format>
        <dc:type
           rdf:resource="http://purl.org/dc/dcmitype/StillImage" />
        <dc:title />
      </cc:Work>
    </rdf:RDF>
  </metadata>
  <g
     inkscape:label="Layer 1"
     inkscape:groupmode="layer"
     id="layer1"
     transform="translate(0,-956.36218)">
    <g
       transform="translate(-40.112953,960.36218)"
       id="g3241"
       clip-path="url(#clipPath4119)">
      <g
         id="g4038"
         transform="matrix(1.0952381,0,0,1.0952381,35.541524,-8.5714286)">
        <g
           id="layer7">
          <rect
             id="rect4576"
             style="fill:url(#linearGradient4081)"
             rx="6"
             ry="6"
             height="84"
             width="84"
             y="6"
             x="6" />
          <path
             id="path4630"
             style="opacity:0.4;fill:url(#radialGradient4083)"
             d="m 82.327,47.765 a 35.8605,35.8605 0 1 1 -71.721,0 35.8605,35.8605 0 1 1 71.721,0 z"
             transform="matrix(1.0597,0,0,1.0597,-1.2394,-2.6151)"
             inkscape:connector-curvature="0" />
          <path
             id="path3724"
             style="opacity:0.8;filter:url(#filter3751)"
             clip-path="url(#clipPath3721)"
             transform="translate(0,-90)"
             d="m 48,102 c -19.882,0 -36,16.118 -36,36 0,19.882 16.118,36 36,36 19.882,0 36,-16.118 36,-36 0,-19.882 -16.118,-36 -36,-36 z m 0,24 c 6.6274,0 12,5.3726 12,12 0,6.6274 -5.3726,12 -12,12 -6.6274,0 -12,-5.3726 -12,-12 0,-6.6274 5.3726,-12 12,-12 z"
             inkscape:connector-curvature="0" />
        </g>
        <g
           id="layer6">
          <g
             id="g3221">
            <path
               d="M 48,12 C 28.118,12 12,28.118 12,48 12,67.882 28.118,84 48,84 67.882,84 84,67.882 84,48 84,28.118 67.882,12 48,12 z m 0,24 c 6.6274,0 12,5.3726 12,12 0,6.6274 -5.3726,12 -12,12 -6.6274,0 -12,-5.3726 -12,-12 0,-6.6274 5.3726,-12 12,-12 z"
               style="fill:#bbb1bf"
               id="path3978"
               inkscape:connector-curvature="0" />
            <path
               d="m 48,36 c -6.6274,0 -12,5.3726 -12,12 0,6.6274 5.3726,12 12,12 6.6274,0 12,-5.3726 12,-12 0,-6.6274 -5.3726,-12 -12,-12 z m 0,7 c 2.7614,0 5,2.2386 5,5 0,2.7614 -2.2386,5 -5,5 -2.7614,0 -5,-2.2386 -5,-5 0,-2.7614 2.2386,-5 5,-5 z"
               style="opacity:0.3;fill:#ffffff"
               id="path3992"
               inkscape:connector-curvature="0" />
            <path
               transform="matrix(0,0.16827,-0.20214,0,60.517,37.922)"
               d="m 92.58,61.922 a 32.686,27.208 0 1 1 -65.371,0 32.686,27.208 0 1 1 65.371,0 z"
               style="opacity:0.6;fill:none;stroke:url(#linearGradient4085);stroke-width:5.42210007;stroke-linecap:round"
               id="path4002"
               inkscape:connector-curvature="0" />
            <path
               transform="matrix(0,0.29065,-0.34916,0,69.621,30.592)"
               d="m 92.58,61.922 a 32.686,27.208 0 1 1 -65.371,0 32.686,27.208 0 1 1 65.371,0 z"
               style="opacity:0.5;fill:url(#radialGradient4087);fill-rule:evenodd;stroke:url(#linearGradient4089);stroke-width:3.13910007;stroke-linecap:round"
               id="path4010"
               inkscape:connector-curvature="0" />
            <path
               transform="translate(0,-20)"
               d="M 57.312,33.219 48,68 79.188,50 C 74.414,41.731 66.535,35.69 57.312,33.219 z M 48,68 16.812,86 c 4.7739,8.2686 12.653,14.31 21.875,16.781 L 48,68.001 z"
               clip-path="url(#clipPath4031)"
               style="opacity:0.8;fill:#ffffff;filter:url(#filter4035)"
               id="path4018"
               inkscape:connector-curvature="0" />
            <g
               clip-path="url(#clipPath4187)"
               transform="translate(0,-90)"
               style="opacity:0.6;filter:url(#filter4195)"
               id="g4175">
              <path
                 transform="matrix(1.5055,0.86922,-0.95673,1.6571,27.56,21.5)"
                 d="m 60.947,57.784 a 20.708,18.814 0 0 1 -2.6155,2.9059 l -14.643,-13.304 z"
                 style="fill:#7137c8"
                 id="path4039"
                 inkscape:connector-curvature="0" />
              <path
                 transform="matrix(1.6792,0.44994,-0.49524,1.8483,-1.8956,30.76)"
                 d="m 60.779,58.011 a 20.708,18.814 0 0 1 -3.384,3.4788 L 43.689,47.3858 z"
                 style="fill:#00ccff"
                 id="path4041"
                 inkscape:connector-curvature="0" />
              <path
                 transform="matrix(1.7384,0,-6.0266e-8,1.9135,-27.951,47.328)"
                 d="m 62.724,54.796 a 20.708,18.814 0 0 1 -2.2597,3.6221 l -16.775,-11.032 z"
                 style="fill:#ffcc00"
                 id="path4043"
                 inkscape:connector-curvature="0" />
              <path
                 transform="matrix(1.6792,-0.44994,0.49524,1.8483,-48.831,70.075)"
                 d="m 61.623,56.793 a 20.708,18.814 0 0 1 -1.6993,2.2728 l -16.235,-11.68 z"
                 style="fill:#ff0000"
                 id="path4045"
                 inkscape:connector-curvature="0" />
              <path
                 transform="matrix(1.6792,0.44994,-0.49524,1.8483,-1.8956,30.76)"
                 d="m 63.123,53.883 a 20.708,18.814 0 0 1 -2.37,4.1619 L 43.689,47.3859 z"
                 style="fill:#00ff00"
                 id="path4144"
                 inkscape:connector-curvature="0" />
              <path
                 transform="matrix(-1.5055,-0.86922,0.95673,-1.6571,68.44,254.5)"
                 d="m 60.947,57.784 a 20.708,18.814 0 0 1 -2.6155,2.9059 l -14.643,-13.304 z"
                 style="fill:#7137c8"
                 id="path4155"
                 inkscape:connector-curvature="0" />
              <path
                 transform="matrix(-1.6792,-0.44994,0.49524,-1.8483,97.896,245.24)"
                 d="m 60.779,58.011 a 20.708,18.814 0 0 1 -3.384,3.4788 L 43.689,47.3858 z"
                 style="fill:#00ccff"
                 id="path4157"
                 inkscape:connector-curvature="0" />
              <path
                 transform="matrix(-1.7384,0,6.0266e-8,-1.9135,123.95,228.67)"
                 d="m 62.724,54.796 a 20.708,18.814 0 0 1 -2.2597,3.6221 l -16.775,-11.032 z"
                 style="fill:#ffcc00"
                 id="path4159"
                 inkscape:connector-curvature="0" />
              <path
                 transform="matrix(-1.6792,0.44994,-0.49524,-1.8483,144.83,205.92)"
                 d="m 61.623,56.793 a 20.708,18.814 0 0 1 -1.6993,2.2728 l -16.235,-11.68 z"
                 style="fill:#ff0000"
                 id="path4161"
                 inkscape:connector-curvature="0" />
              <path
                 transform="matrix(-1.6792,-0.44994,0.49524,-1.8483,97.896,245.24)"
                 d="m 63.123,53.883 a 20.708,18.814 0 0 1 -2.37,4.1619 L 43.689,47.3859 z"
                 style="fill:#00ff00"
                 id="path4163"
                 inkscape:connector-curvature="0" />
            </g>
            <path
               d="m 48,33.5 c -8.0081,0 -14.5,6.4919 -14.5,14.5 0,8.0081 6.4919,14.5 14.5,14.5 8.0081,0 14.5,-6.4919 14.5,-14.5 0,-8.0081 -6.4919,-14.5 -14.5,-14.5 z m 0,2.5 c 6.6274,0 12,5.3726 12,12 0,6.6274 -5.3726,12 -12,12 -6.6274,0 -12,-5.3726 -12,-12 0,-6.6274 5.3726,-12 12,-12 z"
               style="opacity:0.2"
               id="path3986"
               inkscape:connector-curvature="0" />
            <path
               d="m 48,12 c -19.882,0 -36,16.118 -36,36 0,0.33707 0.022,0.66516 0.0312,1 0.534,-19.416 16.424,-35 35.969,-35 19.545,0 35.435,15.584 35.969,35 0.009,-0.335 0.031,-0.663 0.031,-1 0,-19.882 -16.118,-36 -36,-36 z"
               style="opacity:0.4;fill:#ffffff"
               id="path4199"
               inkscape:connector-curvature="0" />
          </g>
        </g>
        <g
           transform="translate(-8,6)"
           id="layer4">
          <path
             id="path3987"
             style="opacity:0.3"
             d="m 80,7 -40,7 v 49.438 c -2.3193,-0.62616 -5.062,-0.58889 -7.7812,0.28125 -5.8766,1.8805 -9.3783,6.8875 -7.8438,11.188 1.5345,4.3 7.5296,6.2555 13.406,4.375 5.02,-1.607 8.288,-5.502 8.188,-9.282 H 46 v -40 l 28,-5 v 33.438 c -2.3193,-0.62616 -5.062,-0.58889 -7.7812,0.28125 -5.8766,1.8805 -9.3783,6.8875 -7.8438,11.188 1.5345,4.3 7.5296,6.2555 13.406,4.375 5.02,-1.607 8.288,-5.502 8.188,-9.282 H 80 v -58 z"
             inkscape:connector-curvature="0" />
          <path
             id="path3011"
             style="fill:#0046b5"
             d="m 80,6 -40,7 v 49.438 c -2.3193,-0.62616 -5.062,-0.58889 -7.7812,0.28125 -5.8766,1.8805 -9.3783,6.8875 -7.8438,11.188 1.5345,4.3 7.5296,6.2555 13.406,4.375 5.02,-1.607 8.288,-5.502 8.188,-9.282 H 46 v -40 l 28,-5 v 33.438 c -2.3193,-0.62616 -5.062,-0.58889 -7.7812,0.28125 -5.8766,1.8805 -9.3783,6.8875 -7.8438,11.188 1.5345,4.3 7.5296,6.2555 13.406,4.375 5.02,-1.607 8.288,-5.502 8.188,-9.282 H 80 v -58 z"
             inkscape:connector-curvature="0" />
          <path
             id="path3796"
             style="fill:url(#radialGradient4091);filter:url(#filter3810)"
             d="M 42,16 V 29 L 78,22 V 9 l -36,7 z"
             inkscape:connector-curvature="0" />
          <path
             id="path3814"
             style="fill:url(#radialGradient4093)"
             d="m 79,8 -38,7 v 47.75 c 0.72261,0.27229 1.4026,0.59025 2,1 V 30 c 0,-4 0.41719,-5.5006 4,-7 10.867,-4.5478 27,-2 32,-15 z"
             inkscape:connector-curvature="0" />
          <path
             id="path3850"
             style="fill:url(#linearGradient4095)"
             d="m 80,6 -3,0.5312 v 63.719 c 1.917,-1.807 3.028,-4.043 2.969,-6.25 H 80 v -58 z"
             inkscape:connector-curvature="0" />
          <path
             id="path3826"
             style="fill:url(#linearGradient4097)"
             d="m 40,13 1,2 38,-7 1,-2 -40,7 z"
             inkscape:connector-curvature="0" />
          <path
             id="path3841"
             style="fill:url(#radialGradient4099)"
             d="M 77.062,23.438 75,23.781 V 57.75 c 0.72261,0.27229 1.4026,0.59025 2,1 V 25 c 0,-0.57949 0.03663,-1.0803 0.0625,-1.5625 z"
             inkscape:connector-curvature="0" />
          <path
             id="path3870"
             style="fill:url(#radialGradient4101)"
             d="m 46,29 -3,0.531 V 75.25 C 44.917,73.443 46.028,71.207 45.969,69 H 46 V 29 z"
             inkscape:connector-curvature="0" />
          <path
             id="path3906"
             style="color:#000000;fill:url(#radialGradient4103)"
             d="m 51,65 a 11,8 0 1 1 -22,0 11,8 0 1 1 22,0 z"
             transform="matrix(0.96732,-0.30953,0.34731,0.97324,-26.268,19.621)"
             inkscape:connector-curvature="0" />
          <path
             id="path3927"
             style="opacity:0.2;color:#000000;fill:url(#linearGradient4105)"
             d="m 36.594,62 c -1.414,0.013 -2.906,0.249 -4.375,0.719 -5.877,1.88 -9.379,6.887 -7.844,11.187 1.535,4.3 7.53,6.256 13.406,4.375 5.877,-1.88 9.379,-6.887 7.844,-11.187 C 44.474,63.869 40.835,61.96 36.594,62 z m 0.094,1.844 c 1.225,-0.011 2.347,0.175 3.343,0.5 1.992,0.65 3.313,1.823 3.844,3.312 0.531,1.489 0.261,3.183 -0.906,4.844 -1.167,1.661 -3.222,3.202 -5.813,4.031 -2.591,0.829 -5.195,0.776 -7.187,0.125 -1.992,-0.65 -3.313,-1.823 -3.844,-3.312 -0.531,-1.489 -0.261,-3.183 0.906,-4.844 1.167,-1.661 3.222,-3.202 5.813,-4.031 1.295,-0.415 2.618,-0.614 3.844,-0.625 z"
             inkscape:connector-curvature="0" />
          <path
             id="path3920"
             style="opacity:0.5;color:#000000;fill:url(#linearGradient4107)"
             d="m 36.594,62 c -1.414,0.013 -2.906,0.249 -4.375,0.719 -5.877,1.88 -9.379,6.887 -7.844,11.187 1.535,4.3 7.53,6.256 13.406,4.375 5.877,-1.88 9.379,-6.887 7.844,-11.187 C 44.474,63.869 40.835,61.96 36.594,62 z m 0.031,1.031 c 1.308,-0.011 2.561,0.174 3.656,0.531 2.19,0.715 3.768,2.056 4.407,3.844 0.638,1.789 0.22,3.768 -1.063,5.594 -1.283,1.826 -3.439,3.433 -6.187,4.312 -2.749,0.88 -5.53,0.84 -7.719,0.126 -2.19,-0.715 -3.768,-2.056 -4.407,-3.844 -0.638,-1.789 -0.22,-3.768 1.063,-5.594 1.283,-1.826 3.439,-3.433 6.187,-4.312 1.375,-0.44 2.755,-0.646 4.063,-0.657 z"
             inkscape:connector-curvature="0" />
          <path
             id="path3891"
             style="color:#000000;fill:url(#linearGradient4109)"
             d="m 40,65 c 1.2209,2.4769 -1.4442,5.1714 -5.4072,7.1248 -3.963,1.9534 -7.7233,2.426 -8.9441,-0.05091 -1.2209,-2.4769 1.0021,-6.0683 4.9651,-8.0217 3.963,-1.9534 8.1654,-1.529 9.3862,0.94786 z"
             inkscape:connector-curvature="0" />
          <path
             id="path3966"
             style="color:#000000;fill:url(#radialGradient4111)"
             d="m 51,65 a 11,8 0 1 1 -22,0 11,8 0 1 1 22,0 z"
             transform="matrix(0.96732,-0.30953,0.34731,0.97324,7.732,14.621)"
             inkscape:connector-curvature="0" />
          <path
             id="path3968"
             style="opacity:0.2;color:#000000;fill:url(#linearGradient4113)"
             d="m 70.594,57 c -1.4136,0.01337 -2.9058,0.24864 -4.375,0.71875 -5.8766,1.8805 -9.3783,6.8875 -7.8438,11.188 1.5345,4.3 7.5296,6.2555 13.406,4.375 5.8766,-1.8805 9.3783,-6.8875 7.8438,-11.188 -1.151,-3.225 -4.79,-5.134 -9.031,-5.094 z m 0.09375,1.8438 c 1.2256,-0.01097 2.3477,0.17481 3.3438,0.5 1.9921,0.65038 3.3123,1.8234 3.8438,3.3125 0.5314,1.4891 0.26089,3.1825 -0.90625,4.8438 -1.16714,1.6613 -3.2216,3.2022 -5.8125,4.0312 -2.5909,0.82905 -5.1954,0.77538 -7.1875,0.125 -1.9921,-0.65038 -3.3123,-1.8234 -3.8438,-3.3125 -0.5314,-1.4891 -0.26089,-3.1825 0.90625,-4.8438 1.16714,-1.6613 3.2216,-3.2022 5.8125,-4.0312 1.2954,-0.41452 2.6182,-0.61403 3.8438,-0.625 z"
             inkscape:connector-curvature="0" />
          <path
             id="path3970"
             style="opacity:0.5;color:#000000;fill:url(#linearGradient4115)"
             d="m 70.594,57 c -1.4136,0.01337 -2.9058,0.24864 -4.375,0.71875 -5.8766,1.8805 -9.3783,6.8875 -7.8438,11.188 1.5345,4.3 7.5296,6.2555 13.406,4.375 5.8766,-1.8805 9.3783,-6.8875 7.8438,-11.188 -1.151,-3.225 -4.79,-5.134 -9.031,-5.094 z m 0.03125,1.0312 c 1.3081,-0.01099 2.5614,0.17381 3.6562,0.53125 2.1896,0.71488 3.768,2.0554 4.4062,3.8438 0.63821,1.7884 0.22039,3.7677 -1.0625,5.5938 -1.28289,1.8261 -3.4393,3.4331 -6.1875,4.3125 -2.7482,0.8794 -5.5291,0.83988 -7.7188,0.125 -2.19,-0.714 -3.768,-2.055 -4.407,-3.843 -0.638,-1.789 -0.22,-3.768 1.063,-5.594 1.2829,-1.8261 3.4393,-3.4331 6.1875,-4.3125 1.3741,-0.4397 2.7544,-0.64526 4.0625,-0.65625 z"
             inkscape:connector-curvature="0" />
          <path
             id="path3972"
             style="color:#000000;fill:url(#linearGradient4117)"
             d="m 74,60 c 1.2209,2.4769 -1.4442,5.1714 -5.4072,7.1248 -3.963,1.9534 -7.7233,2.426 -8.9441,-0.05091 -1.2209,-2.4769 1.0021,-6.0683 4.9651,-8.0217 3.963,-1.9534 8.1654,-1.529 9.3862,0.94786 z"
             inkscape:connector-curvature="0" />
        </g>
      </g>
    </g>
    <rect
       ry="25"
       rx="25"
       id="rect3003"
       style="opacity:0.15;fill:#ffffff;fill-opacity:1"
       height="92"
       width="92"
       y="958.36218"
       x="-96"
       clip-path="url(#clipPath3009)"
       transform="translate(98,3.8281269e-7)" />
  </g>
</svg>
