<?xml version="1.0" encoding="UTF-8" standalone="no"?>
<!-- Created with Inkscape (http://www.inkscape.org/) -->

<svg
   xmlns:dc="http://purl.org/dc/elements/1.1/"
   xmlns:cc="http://creativecommons.org/ns#"
   xmlns:rdf="http://www.w3.org/1999/02/22-rdf-syntax-ns#"
   xmlns:svg="http://www.w3.org/2000/svg"
   xmlns="http://www.w3.org/2000/svg"
   xmlns:xlink="http://www.w3.org/1999/xlink"
   xmlns:sodipodi="http://sodipodi.sourceforge.net/DTD/sodipodi-0.dtd"
   xmlns:inkscape="http://www.inkscape.org/namespaces/inkscape"
   id="svg11037"
   height="96"
   width="96"
   version="1.1"
   inkscape:version="0.48.5 r10040"
   sodipodi:docname="minitube.svg">
  <sodipodi:namedview
     pagecolor="#ffffff"
     bordercolor="#666666"
     borderopacity="1"
     objecttolerance="10"
     gridtolerance="10"
     guidetolerance="10"
     inkscape:pageopacity="0"
     inkscape:pageshadow="2"
     inkscape:window-width="640"
     inkscape:window-height="480"
     id="namedview44233" />
  <defs
     id="defs11039">
    <linearGradient
       id="linearGradient11642"
       y2="1046.1"
       gradientUnits="userSpaceOnUse"
       y1="962.62"
       gradientTransform="matrix(1.15 0 0 1.15 -7.1999 -150.65)"
       x2="48"
       x1="48">
      <stop
         id="stop3950"
         style="stop-color:#5a5a5a"
         offset="0" />
      <stop
         id="stop3952"
         style="stop-color:#737373"
         offset="1" />
    </linearGradient>
    <linearGradient
       id="linearGradient3888"
       x1="123.97"
       gradientUnits="userSpaceOnUse"
       y1="17.684"
       gradientTransform="translate(-80)"
       x2="123.97"
       y2="69.871">
      <stop
         id="stop3779"
         style="stop-color:#272727"
         offset="0" />
      <stop
         id="stop3781"
         style="stop-color:#737373"
         offset="1" />
    </linearGradient>
    <clipPath
       id="clipPath5265"
       clipPathUnits="userSpaceOnUse">
      <path
         id="path5267"
         d="m138 78c-0.60457 0-1.1929 0.01496-1.7812 0.03125-0.0141 0.000146-0.0484-0.00015-0.0625 0-8.3454 0.08895-12.216 0.77855-16.875 2.0312-11.3 2.572-11.28 7.6-11.28 23.938 0 16.16-0.0295 20.465 11.281 23.938 4.6588 1.2527 8.5296 1.9423 16.875 2.0312 0.0141 0.00015 0.0484-0.00015 0.0625 0 0.58839 0.0163 1.1767 0.0312 1.7812 0.0312 0.60457 0 1.1929-0.015 1.7812-0.0312 0.0141-0.00015 0.0484 0.00015 0.0625 0 8.3454-0.0889 12.216-0.77855 16.875-2.0312 11.31-3.47 11.28-7.78 11.28-23.94 0-16.338 0.0205-21.366-11.281-23.938-4.6588-1.2527-8.5296-1.9423-16.875-2.0312-0.0141-0.00015-0.0484 0.000146-0.0625 0-0.59-0.016-1.18-0.031-1.78-0.031z"
         style="fill:#f00" />
    </clipPath>
    <filter
       id="filter3925"
       height="1.3102"
       width="1.2688"
       y="-.15508"
       x="-.1344"
       color-interpolation-filters="sRGB">
      <feGaussianBlur
         id="feGaussianBlur3927"
         stdDeviation="3.3599985" />
    </filter>
    <linearGradient
       id="linearGradient4099"
       x1="49.385"
       gradientUnits="userSpaceOnUse"
       x2="49.385"
       y1="81.177"
       y2="73.448">
      <stop
         id="stop3739-2"
         style="stop-color:#fff"
         offset="0" />
      <stop
         id="stop3741-7"
         style="stop-color:#fff;stop-opacity:0"
         offset="1" />
    </linearGradient>
    <linearGradient
       id="linearGradient4101"
       x1="48.179"
       xlink:href="#linearGradient3948-1"
       gradientUnits="userSpaceOnUse"
       x2="48.179"
       y1="72.25"
       y2="79.84" />
    <linearGradient
       id="linearGradient3948-1">
      <stop
         id="stop3950-9"
         style="stop-color:#5a5a5a"
         offset="0" />
      <stop
         id="stop3952-1"
         style="stop-color:#737373"
         offset="1" />
    </linearGradient>
    <linearGradient
       id="linearGradient4103"
       x1="48.179"
       xlink:href="#linearGradient3948-1"
       gradientUnits="userSpaceOnUse"
       y1="72.25"
       gradientTransform="translate(1)"
       x2="48.179"
       y2="79.84" />
    <linearGradient
       id="linearGradient4105"
       x1="48.179"
       xlink:href="#linearGradient3948-1"
       gradientUnits="userSpaceOnUse"
       y1="72.25"
       gradientTransform="translate(2)"
       x2="48.179"
       y2="79.84" />
    <linearGradient
       id="linearGradient4107"
       x1="48.179"
       xlink:href="#linearGradient3948-1"
       gradientUnits="userSpaceOnUse"
       y1="72.25"
       gradientTransform="translate(-1)"
       x2="48.179"
       y2="79.84" />
    <linearGradient
       id="linearGradient4109"
       x1="48.179"
       xlink:href="#linearGradient3948-1"
       gradientUnits="userSpaceOnUse"
       y1="72.25"
       gradientTransform="translate(3)"
       x2="48.179"
       y2="79.84" />
    <linearGradient
       id="linearGradient4111"
       x1="48.179"
       xlink:href="#linearGradient3948-1"
       gradientUnits="userSpaceOnUse"
       y1="72.25"
       gradientTransform="translate(-2)"
       x2="48.179"
       y2="79.84" />
    <linearGradient
       id="linearGradient4113"
       x1="48.179"
       xlink:href="#linearGradient3948-1"
       gradientUnits="userSpaceOnUse"
       y1="72.25"
       gradientTransform="translate(4)"
       x2="48.179"
       y2="79.84" />
    <linearGradient
       id="linearGradient3785"
       x1="26.36"
       xlink:href="#linearGradient3237"
       gradientUnits="userSpaceOnUse"
       x2="26.36"
       y1="103.13"
       y2="108.68" />
    <linearGradient
       id="linearGradient3237">
      <stop
         id="stop3239"
         style="stop-color:#737373"
         offset="0" />
      <stop
         id="stop3241"
         style="stop-color:#fff"
         offset="1" />
    </linearGradient>
    <linearGradient
       id="linearGradient3787"
       x1="26.36"
       xlink:href="#linearGradient3237"
       gradientUnits="userSpaceOnUse"
       x2="26.36"
       y1="112.61"
       y2="99.666" />
    <linearGradient
       id="linearGradient3789"
       x1="21.026"
       xlink:href="#linearGradient3767"
       gradientUnits="userSpaceOnUse"
       x2="35.109"
       y1="106.14"
       y2="106.14" />
    <linearGradient
       id="linearGradient3767">
      <stop
         id="stop3769"
         style="stop-color:#3e3e3e"
         offset="0" />
      <stop
         id="stop3771"
         style="stop-color:#bbb;stop-opacity:0"
         offset="1" />
    </linearGradient>
    <linearGradient
       id="linearGradient4216"
       x1="175.31"
       gradientUnits="userSpaceOnUse"
       y1="73.254"
       gradientTransform="matrix(.0877 0 0 .090597 23.55 33.645)"
       x2="175.31"
       y2="180.67">
      <stop
         id="stop4194"
         style="stop-color:#fff"
         offset="0" />
      <stop
         id="stop4196"
         style="stop-color:#dfdfdf"
         offset=".99438" />
    </linearGradient>
    <linearGradient
       id="linearGradient4220"
       y2="218.48"
       gradientUnits="userSpaceOnUse"
       gradientTransform="matrix(.095319 0 0 .095319 22 32.786)"
       x2="383.29"
       x1="383.29">
      <stop
         id="stop3143"
         style="stop-color:#ED2828"
         offset=".005618" />
      <stop
         id="stop3145"
         style="stop-color:#EF3B39"
         offset=".5" />
      <stop
         id="stop3147"
         style="stop-color:#C02126"
         offset=".99438" />
    </linearGradient>
    <mask
       id="SVGID_2_"
       height="206.246582"
       width="312.2680664"
       y="6.1162109"
       x="227.1552734"
       maskUnits="userSpaceOnUse">
      <g
         id="g3157"
         style="filter:url(#Adobe_OpacityMaskFilter)">
        <linearGradient
           id="SVGID_3_"
           y2="169.01"
           gradientUnits="userSpaceOnUse"
           y1="-18.516"
           x2="352.87"
           x1="461.13">
          <stop
             id="stop3160"
             style="stop-color:#fff"
             offset=".005618" />
          <stop
             id="stop3162"
             style="stop-color:#F6F6F6"
             offset=".012915" />
          <stop
             id="stop3164"
             style="stop-color:#C8C8C8"
             offset=".052759" />
          <stop
             id="stop3166"
             style="stop-color:#9D9D9D"
             offset=".097662" />
          <stop
             id="stop3168"
             style="stop-color:#777"
             offset=".14592" />
          <stop
             id="stop3170"
             style="stop-color:#575757"
             offset=".19845" />
          <stop
             id="stop3172"
             style="stop-color:#3B3B3B"
             offset=".25651" />
          <stop
             id="stop3174"
             style="stop-color:#252525"
             offset=".32203" />
          <stop
             id="stop3176"
             style="stop-color:#141414"
             offset=".39858" />
          <stop
             id="stop3178"
             style="stop-color:#090909"
             offset=".49318" />
          <stop
             id="stop3180"
             style="stop-color:#020202"
             offset=".62593" />
          <stop
             id="stop3182"
             offset=".99438" />
        </linearGradient>
        <path
           id="path3184"
           d="m537.27 48.947-0.0195-0.23291v-0.23438c0-22.167-18.275-40.204-40.74-40.204h-0.12695l-0.12696-0.00586c-35.87-1.4976-73.87-2.2203-112.97-2.149-39.08-0.0713-77.08 0.6514-112.96 2.1489l-0.12744 0.00586h-0.12793c-6.1802 0-12.039 1.3716-17.292 3.8125l281.46 173.06c1.9375-4.6777 3.0137-9.791 3.0137-15.15v-0.23438l0.0195-0.23242c1.4863-19.398 2.209-39.679 2.1484-60.312 0.0605-20.597-0.66211-40.877-2.1484-60.274zm-41.014 161.26 0.12696-0.004h0.12695c6.5137 0 12.67-1.5254 18.137-4.2188l-87.156 6.1074c23.566-0.33008 46.574-0.95703 68.766-1.8848z"
           style="fill:url(#SVGID_3_)" />
      </g>
    </mask>
    <clipPath
       id="clipPath3009"
       clipPathUnits="userSpaceOnUse">
      <path
         id="path3011"
         style="opacity:.15;fill:#fff"
         d="m-2 956.36h-96v33.562l96 25.687v-59.25z" />
    </clipPath>
  </defs>
  <metadata
     id="metadata11042">
    <rdf:RDF>
      <cc:Work
         rdf:about="">
        <dc:format>image/svg+xml</dc:format>
        <dc:type
           rdf:resource="http://purl.org/dc/dcmitype/StillImage" />
        <dc:title />
      </cc:Work>
    </rdf:RDF>
  </metadata>
  <g
     id="layer1"
     transform="translate(0 -956.36)">
    <rect
       id="rect3867"
       style="fill:url(#linearGradient11642)"
       rx="25"
       ry="25"
       height="92"
       width="92"
       y="958.36"
       x="2" />
    <g
       id="g3179"
       transform="translate(3e-7 956.36)">
      <path
         id="path5249"
         style="fill:url(#linearGradient3888)"
         d="m48 18c-0.60457 0-1.1929 0.01496-1.7812 0.03125-0.0141 0.000146-0.0484-0.00015-0.0625 0-8.345 0.089-12.216 0.779-16.875 2.031-11.301 2.572-11.281 7.6-11.281 23.938 0 16.16-0.0295 20.465 11.281 23.938 4.6588 1.2527 8.5296 1.9423 16.875 2.0312 0.0141 0.00015 0.0484-0.00015 0.0625 0 0.58839 0.0163 1.1767 0.0312 1.7812 0.0312 0.60457 0 1.1929-0.015 1.7812-0.0312 0.0141-0.00015 0.0484 0.00015 0.0625 0 8.3454-0.0889 12.216-0.77855 16.875-2.0312 11.313-3.473 11.283-7.778 11.283-23.938 0-16.338 0.02-21.366-11.281-23.938-4.6588-1.2527-8.5296-1.9423-16.875-2.0312-0.0141-0.00015-0.0484 0.000146-0.0625 0-0.588-0.016-1.176-0.031-1.781-0.031z" />
      <path
         id="path5259"
         style="opacity:.7;filter:url(#filter3925);stroke:#000;stroke-width:5;fill:none"
         d="m138 78c-0.60457 0-1.1929 0.01496-1.7812 0.03125-0.0141 0.000146-0.0484-0.00015-0.0625 0-8.3454 0.08895-12.216 0.77855-16.875 2.0312-11.3 2.572-11.28 7.6-11.28 23.938 0 16.16-0.0295 20.465 11.281 23.938 4.6588 1.2527 8.5296 1.9423 16.875 2.0312 0.0141 0.00015 0.0484-0.00015 0.0625 0 0.58839 0.0163 1.1767 0.0312 1.7812 0.0312 0.60457 0 1.1929-0.015 1.7812-0.0312 0.0141-0.00015 0.0484 0.00015 0.0625 0 8.3454-0.0889 12.216-0.77855 16.875-2.0312 11.31-3.47 11.28-7.78 11.28-23.94 0-16.338 0.0205-21.366-11.281-23.938-4.6588-1.2527-8.5296-1.9423-16.875-2.0312-0.0141-0.00015-0.0484 0.000146-0.0625 0-0.59-0.016-1.18-0.031-1.78-0.031z"
         clip-path="url(#clipPath5265)"
         transform="translate(-90,-60)" />
      <path
         id="path4097"
         style="opacity:.6;fill:url(#linearGradient4099)"
         d="m45 70.969c-1.1004 0-2.0312 0.93088-2.0312 2.0312v0.875c-0.078-1.033-0.919-1.906-1.969-1.906-1.1004 0-2.0312 0.93088-2.0312 2.0312v0.875c-0.078-1.033-0.919-1.906-1.969-1.906-1.1004 0-2.0312 0.93088-2.0312 2.0312v2c0 1.1004 0.93088 2.0312 2.0312 2.0312 1.0505 0 1.8907-0.87306 1.9688-1.9062v0.875c0 1.1004 0.93088 2.0312 2.0312 2.0312 1.0505 0 1.8907-0.87306 1.9688-1.9062v0.875c0 1.1004 0.93088 2.0312 2.0312 2.0312 1.0754 0 1.9597-0.90181 2-1.9688 0.04031 1.0669 0.92459 1.9688 2 1.9688s1.9597-0.90181 2-1.9688c0.04031 1.0669 0.92459 1.9688 2 1.9688 1.1004 0 2.0312-0.93088 2.0312-2.0312v-0.875c0.07803 1.0332 0.91829 1.9062 1.9688 1.9062 1.1004 0 2.0312-0.93088 2.0312-2.0312v-0.875c0.07803 1.0332 0.91829 1.9062 1.9688 1.9062 1.1004 0 2.0312-0.93088 2.0312-2.0312v-2c0-1.1004-0.93088-2.0312-2.0312-2.0312-1.0505 0-1.8907 0.87306-1.9688 1.9062v-0.875c0-1.1004-0.93088-2.0312-2.0312-2.0312-1.0505 0-1.8907 0.87306-1.9688 1.9062v-0.875c0-1.1004-0.93088-2.0312-2.0312-2.0312-1.0754 0-1.9597 0.90181-2 1.9688-0.04031-1.0669-0.92459-1.9688-2-1.9688s-1.9597 0.90181-2 1.9688c-0.04031-1.0669-0.92459-1.9688-2-1.9688z" />
      <g
         id="g4026">
        <path
           id="path4010"
           style="fill:url(#linearGradient4101)"
           d="m45 72c-0.554 0-1 0.446-1 1v6c0 0.554 0.446 1 1 1s1-0.446 1-1v-6c0-0.554-0.446-1-1-1z" />
        <path
           id="path4008"
           style="fill:url(#linearGradient4103)"
           d="m49 72c-0.554 0-1 0.446-1 1v6c0 0.554 0.446 1 1 1s1-0.446 1-1v-6c0-0.554-0.446-1-1-1z" />
        <path
           id="path4006"
           style="fill:url(#linearGradient4105)"
           d="m53 72c-0.554 0-1 0.446-1 1v6c0 0.554 0.446 1 1 1s1-0.446 1-1v-6c0-0.554-0.446-1-1-1z" />
        <path
           id="path4004"
           style="fill:url(#linearGradient4107)"
           d="m41 73c-0.554 0-1 0.446-1 1v4c0 0.554 0.446 1 1 1s1-0.446 1-1v-4c0-0.554-0.446-1-1-1z" />
        <path
           id="path4002"
           style="fill:url(#linearGradient4109)"
           d="m57 73c-0.554 0-1 0.446-1 1v4c0 0.554 0.446 1 1 1s1-0.446 1-1v-4c0-0.554-0.446-1-1-1z" />
        <path
           id="path4000"
           style="fill:url(#linearGradient4111)"
           d="m37 74c-0.554 0-1 0.446-1 1v2c0 0.554 0.446 1 1 1s1-0.446 1-1v-2c0-0.554-0.446-1-1-1z" />
        <path
           id="rect3933"
           style="fill:url(#linearGradient4113)"
           d="m61 74c-0.554 0-1 0.446-1 1v2c0 0.554 0.446 1 1 1s1-0.446 1-1v-2c0-0.554-0.446-1-1-1z" />
      </g>
      <g
         id="g3779"
         transform="translate(0,-1)">
        <path
           id="path3777"
           d="m23.865 79.206a5.051 5.051 0 1 1 -10.102 0 5.051 5.051 0 1 1 10.102 0z"
           style="opacity:.2"
           transform="matrix(1.1879 0 0 1.1879 .65 -18.092)" />
        <path
           id="path3775"
           d="m23.865 79.206a5.051 5.051 0 1 1 -10.102 0 5.051 5.051 0 1 1 10.102 0z"
           style="opacity:.6"
           transform="matrix(.98995 0 0 .98995 4.375 -2.4102)" />
        <path
           id="path3235"
           d="m30.983 106.14a4.6224 4.6224 0 1 1 -9.2449 0 4.6224 4.6224 0 1 1 9.2449 0z"
           style="stroke:url(#linearGradient3787);stroke-width:3.9621;stroke-linecap:square;fill:url(#linearGradient3785)"
           transform="matrix(.75718 0 0 .75718 3.0405 -5.3647)" />
        <path
           id="path2993"
           d="m30.983 106.14a4.6224 4.6224 0 1 1 -9.2449 0 4.6224 4.6224 0 1 1 9.2449 0z"
           style="stroke:url(#linearGradient3789);stroke-width:1.3174;stroke-linecap:square;fill:none"
           transform="matrix(0 -.7591 .7591 0 -57.569 95.01)" />
      </g>
      <g
         id="g3791"
         transform="translate(50,-1)">
        <path
           id="path3793"
           d="m23.865 79.206a5.051 5.051 0 1 1 -10.102 0 5.051 5.051 0 1 1 10.102 0z"
           style="opacity:.2"
           transform="matrix(1.1879 0 0 1.1879 .65 -18.092)" />
        <path
           id="path3795"
           d="m23.865 79.206a5.051 5.051 0 1 1 -10.102 0 5.051 5.051 0 1 1 10.102 0z"
           style="opacity:.6"
           transform="matrix(.98995 0 0 .98995 4.375 -2.4102)" />
        <path
           id="path3797"
           d="m30.983 106.14a4.6224 4.6224 0 1 1 -9.2449 0 4.6224 4.6224 0 1 1 9.2449 0z"
           style="stroke:url(#linearGradient3787);stroke-width:3.9621;stroke-linecap:square;fill:url(#linearGradient3785)"
           transform="matrix(.75718 0 0 .75718 3.0405 -5.3647)" />
        <path
           id="path3800"
           d="m30.983 106.14a4.6224 4.6224 0 1 1 -9.2449 0 4.6224 4.6224 0 1 1 9.2449 0z"
           style="stroke:url(#linearGradient3789);stroke-width:1.3174;stroke-linecap:square;fill:none"
           transform="matrix(0 -.7591 .7591 0 -57.569 95.01)" />
      </g>
      <path
         id="path3914"
         style="opacity:.3;fill:#fff"
         d="m21.062 47.469c0.05668 5.9742 0.2876 9.9446 1.1562 12.125 1.0239 2.5702 2.6285 3.7937 7.8438 5.4062 0.01012 0.0027 0.02114-0.0027 0.03125 0 0.03047 0.0094 0.03178 0.02182 0.0625 0.03125 4.4735 1.1986 7.9017 1.8196 16.031 1.9062-0.08089-0.000862-0.04497-0.0011 0.0625 0a3.0324 3.0324 0 0 1 0.0625 0c0.5839 0.01616 1.133 0.03125 1.6875 0.03125 0.55452 0 1.1036-0.01509 1.6875-0.03125a3.0324 3.0324 0 0 1 0.0625 0c0.10747-0.0011 0.14339-0.000862 0.0625 0 8.1295-0.08665 11.558-0.70762 16.031-1.9062 0.03237-0.0087 0.06127-0.02252 0.09375-0.03125 5.2152-1.6126 6.8198-2.8361 7.8438-5.4062 0.86865-2.1804 1.0996-6.1508 1.1562-12.125-0.09203 4.9149-0.38199 8.1815-1.1562 10.125-1.0239 2.5702-2.6285 3.7937-7.8438 5.4062-0.03248 0.0087-0.06138 0.02258-0.09375 0.03125-4.4735 1.1986-7.9017 1.8196-16.031 1.9062 0.08089-0.000862 0.04497-0.0011-0.0625 0a3.0324 3.0324 0 0 0 -0.0625 0c-0.5839 0.01616-1.133 0.03125-1.6875 0.03125-0.55452 0-1.1036-0.01509-1.6875-0.03125a3.0324 3.0324 0 0 0 -0.0625 0c-0.10747-0.0011-0.14339-0.000862-0.0625 0-8.13-0.086-11.558-0.707-16.032-1.906-0.03-0.009-0.032-0.022-0.062-0.031-0.01-0.003-0.021 0.003-0.032 0-5.215-1.613-6.819-2.836-7.843-5.406-0.775-1.944-1.064-5.21-1.157-10.125z" />
      <path
         id="path3391"
         style="opacity:.6"
         d="m48 18c-0.60457 0-1.1929 0.01496-1.7812 0.03125-0.0141 0.000146-0.0484-0.00015-0.0625 0-8.345 0.089-12.216 0.779-16.875 2.031-11.301 2.572-11.281 7.6-11.281 23.938 0 16.16-0.0295 20.465 11.281 23.938 4.6588 1.2527 8.5296 1.9423 16.875 2.0312 0.0141 0.00015 0.0484-0.000146 0.0625 0 0.589 0.016 1.177 0.031 1.782 0.031 0.60457 0 1.1929-0.01497 1.7812-0.03125 0.0141-0.000146 0.0484 0.00015 0.0625 0 8.345-0.089 12.216-0.779 16.875-2.031 11.311-3.473 11.281-7.778 11.281-23.938 0-16.338 0.02-21.366-11.281-23.938-4.6588-1.2527-8.5296-1.9423-16.875-2.0312-0.0141-0.00015-0.0484 0.000146-0.0625 0-0.588-0.016-1.176-0.031-1.781-0.031z" />
      <g
         id="layer6">
        <path
           id="path3209"
           style="fill:url(#linearGradient4216)"
           d="m41.388 40.282v9.5933h-1.7266v-1.059c-0.31825 0.39017-0.64931 0.68761-0.99348 0.89163-0.34416 0.20367-0.67839 0.30594-1.0021 0.30594-0.39915 0-0.7001-0.14262-0.90257-0.42839-0.202-0.286-0.303-0.714-0.303-1.285v-8.0183h1.7266v7.3539c0 0.22755 0.03614 0.39194 0.10843 0.49368 0.07228 0.10174 0.18936 0.15271 0.35148 0.15271 0.12731 0 0.2876-0.06724 0.48141-0.2019 0.19381-0.13483 0.37166-0.30682 0.53382-0.51651v-7.2819h1.7266zm-11.406 2.1932c0-0.74295 0.23231-1.3344 0.69723-1.7749 0.46492-0.44051 1.0896-0.66076 1.8743-0.66076 0.71453 0 1.2999 0.23242 1.7562 0.69673 0.45627 0.46431 0.68438 1.062 0.68438 1.7931v4.9549c0 0.82103-0.22396 1.4651-0.67128 1.9324-0.44736 0.46732-1.0634 0.70106-1.8479 0.70106-0.75539 0-1.3599-0.24136-1.813-0.72353-0.453-0.482-0.68-1.131-0.68-1.946v-4.9731zm1.7769 5.1527c0 0.26418 0.06128 0.46785 0.18439 0.61188 0.12282 0.14386 0.2983 0.21552 0.52671 0.21552 0.23415 0 0.41987-0.07325 0.55763-0.22012 0.1375-0.14704 0.2064-0.34929 0.2064-0.60728v-5.2247c0-0.20968-0.07049-0.37906-0.21086-0.50784-0.14037-0.12882-0.32476-0.19345-0.55318-0.19345-0.2106 0-0.38189 0.06463-0.51361 0.19345-0.13176 0.12877-0.1975 0.29816-0.1975 0.50784v5.2247zm-8.2096-10.757h1.9584l1.2616 5.1982h0.12209l1.203-5.1982h1.9757l-2.263 7.6084v5.3962h-1.9445v-5.1533l-2.3133-7.8514z" />
        <g
           id="g4222"
           transform="matrix(.96508 0 0 .96508 1.876 1.9343)">
          <path
             id="path3149"
             style="fill:url(#linearGradient4220)"
             d="m73.793 37.408c0-2.4375-2.0008-4.4153-4.4664-4.4153-3.519-0.14689-7.1197-0.21209-10.792-0.20539-3.6726-0.0067-7.2731 0.0585-10.792 0.20539-2.4654 0-4.4663 1.9778-4.4663 4.4153-0.148 1.9305-0.21223 3.861-0.20646 5.7915-0.0057 1.9305 0.05846 3.861 0.20651 5.7915 0 2.4375 2.0009 4.4154 4.4664 4.4154 3.5191 0.14689 7.1196 0.21205 10.792 0.20516 3.6726 0.0069 7.2733-0.05828 10.792-0.20516 2.4656 0 4.4664-1.9779 4.4664-4.4154 0.14801-1.9306 0.21223-3.8611 0.20646-5.7915 0.0057-1.9305-0.05845-3.8611-0.20646-5.7915z" />
          <path
             id="path3186"
             style="fill:#fff"
             d="m496.26 8.27 0.12696 0.00586h0.12695c22.465 0 40.74 18.036 40.74 40.204v0.23438l0.0195 0.23291c1.4863 19.397 2.209 39.678 2.1484 60.274 0.0605 20.634-0.66211 40.914-2.1484 60.312l-0.0195 0.23242v0.23438c0 22.17-18.275 40.205-40.74 40.205h-0.12695l-0.12696 0.004c-35.881 1.498-73.887 2.2207-112.96 2.1484-39.094 0.0723-77.098-0.65039-112.98-2.1484l-0.12744-0.004h-0.12744c-22.465 0-40.741-18.035-40.741-40.205v-0.23438l-0.0181-0.23242c-1.4868-19.389-2.21-39.668-2.1489-60.277-0.0615-20.635 0.66113-40.915 2.1484-60.31l0.0181-0.23291v-0.23438c0-22.167 18.276-40.204 40.74-40.204h0.12793l0.13-0.01c35.876-1.4976 73.882-2.2202 112.96-2.1489 39.1-0.071289 77.105 0.65137 112.98 2.1489z"
             mask="url(#SVGID_2_)"
             transform="matrix(.095319 0 0 .095319 22 32.786)" />
          <g
             id="g3211"
             transform="matrix(.095319 0 0 .095319 22 32.786)">
            <path
               id="path3213"
               d="m314.23 33.879h-68.045v20.834h22.937v122.71h22.171v-122.71h22.938v-20.828zm36.238 118.03c-1.8476 2.3145-3.877 4.2148-6.0859 5.7012-2.2109 1.4883-4.0391 2.2285-5.4902 2.2285-1.8476 0-3.1836-0.5625-4.0078-1.6855-0.82422-1.1211-1.2363-2.9375-1.2363-5.4492v-81.162h-19.688v88.506c0 6.3047 1.1543 11.033 3.4629 14.188 2.3086 3.1523 5.7402 4.7266 10.291 4.7266 3.6914 0 7.502-1.1289 11.426-3.377 3.9258-2.252 7.6992-5.5352 11.328-9.8418v11.689h19.688v-105.9h-19.688v80.377zm76.277-81.715c-3.0527 0-6.0684 0.84228-9.0527 2.5239-2.9824 1.6841-5.7988 4.1392-8.4512 7.3706v-46.211h-19.879v143.54h19.879v-8.1406c2.5859 3.2246 5.3887 5.6113 8.4043 7.1582s6.4473 2.3203 10.295 2.3203c5.832 0 10.291-1.9941 13.373-5.9902s4.627-9.7578 4.627-17.287v-58.74c0-8.6489-1.6426-15.237-4.9258-19.759-3.2812-4.5215-8.0391-6.7856-14.27-6.7856zm-1.0664 82.41c0 3.375-0.57031 5.8105-1.7051 7.2969-1.1348 1.4883-2.9062 2.2305-5.3105 2.2305-1.6719 0-3.2578-0.37891-4.7617-1.1406-1.5059-0.75782-3.0586-2-4.6602-3.7207v-65.986c1.3359-1.4541 2.6875-2.5293 4.0586-3.2251 1.3691-0.69287 2.7578-1.0425 4.1602-1.0425 2.6699 0 4.7109 0.92871 6.1133 2.7803 1.4043 1.852 2.1055 4.5635 2.1055 8.1357v54.674zm93.027-25.643v-26.959c0-10.049-2.4199-17.752-7.252-23.109-4.8359-5.3579-11.756-8.0371-20.762-8.0371-8.8105 0-15.996 2.894-21.557 8.6787-5.5644 5.7881-8.3457 13.275-8.3457 22.468v47.527c0 10.193 2.5332 18.201 7.5977 24.025 5.0664 5.8223 12.004 8.7344 20.814 8.7344 9.8008 0 17.17-2.748 22.104-8.2402 4.9336-5.4922 7.4004-13.666 7.4004-24.52v-7.9531h-20.262v7.3594c0 6.2305-0.65039 10.26-1.9492 12.08-1.2988 1.8223-3.582 2.7344-6.8457 2.7344-3.1367 0-5.3516-1.0762-6.6504-3.2324-1.2988-2.1523-1.9473-6.0156-1.9473-11.582v-19.975h37.654zm-37.66-27.152c0-4.4321 0.67969-7.6099 2.0488-9.5303 1.3652-1.9175 3.6133-2.8789 6.7461-2.8789 2.998 0 5.1816 0.96142 6.5488 2.8789 1.3652 1.9204 2.0488 5.0981 2.0488 9.5303v10.722h-17.39v-10.721z" />
            <path
               id="path3215"
               style="fill:#fff"
               d="m314.23 35.409h-68.045v20.834h22.937v122.71h22.171v-122.71h22.938v-20.828zm36.238 118.03c-1.8476 2.3144-3.877 4.2148-6.0859 5.7012-2.2109 1.4883-4.0391 2.2285-5.4902 2.2285-1.8476 0-3.1836-0.5625-4.0078-1.6856-0.82422-1.123-1.2363-2.9375-1.2363-5.4492v-81.167h-19.688v88.506c0 6.3047 1.1543 11.033 3.4629 14.188 2.3086 3.1523 5.7402 4.7266 10.291 4.7266 3.6914 0 7.502-1.1289 11.426-3.377 3.9258-2.252 7.6992-5.5352 11.328-9.8418v11.689h19.688v-105.9h-19.688v80.377zm76.277-81.715c-3.0527 0-6.0684 0.84228-9.0527 2.5234-2.9824 1.6846-5.7988 4.1396-8.4512 7.3711v-46.211h-19.879v143.54h19.879v-8.1406c2.5859 3.2246 5.3887 5.6113 8.4043 7.1582s6.4473 2.3203 10.295 2.3203c5.832 0 10.291-1.9941 13.373-5.9902s4.627-9.7578 4.627-17.287v-58.74c0-8.6489-1.6426-15.237-4.9258-19.759-3.2812-4.5215-8.0391-6.7852-14.27-6.7852zm-1.0664 82.41c0 3.375-0.57031 5.8086-1.7051 7.2969-1.1348 1.4863-2.9062 2.2305-5.3105 2.2305-1.6719 0-3.2578-0.37891-4.7617-1.1406-1.5059-0.75781-3.0586-2-4.6602-3.7207v-65.997c1.3359-1.4546 2.6875-2.5298 4.0586-3.2256 1.3691-0.69287 2.7578-1.042 4.1602-1.042 2.6699 0 4.7109 0.92871 6.1133 2.7803 1.4043 1.8516 2.1055 4.5635 2.1055 8.1353v54.674zm93.027-25.643v-26.959c0-10.05-2.4199-17.752-7.252-23.11-4.8359-5.3579-11.756-8.0366-20.762-8.0366-8.8105 0-15.996 2.894-21.557 8.6787-5.5644 5.7881-8.3457 13.275-8.3457 22.468v47.527c0 10.193 2.5332 18.201 7.5977 24.025 5.0664 5.8223 12.004 8.7344 20.814 8.7344 9.8008 0 17.17-2.748 22.104-8.2402 4.9336-5.4922 7.4004-13.666 7.4004-24.52v-7.9531h-20.262v7.3594c0 6.2305-0.65039 10.26-1.9492 12.08-1.2988 1.8223-3.582 2.7324-6.8457 2.7324-3.1367 0-5.3516-1.0742-6.6504-3.2305-1.2988-2.1543-1.9473-6.0156-1.9473-11.582v-19.975h37.654zm-37.654-27.156c0-4.4316 0.67969-7.6094 2.0488-9.5298 1.3652-1.9175 3.6133-2.8789 6.7461-2.8789 2.998 0 5.1816 0.96143 6.5488 2.8789 1.3652 1.9204 2.0488 5.0981 2.0488 9.5298v10.719h-17.4v-10.719z" />
          </g>
        </g>
      </g>
    </g>
    <rect
       id="rect3003"
       style="opacity:.15;fill:#fff"
       transform="translate(98 3.8281e-7)"
       clip-path="url(#clipPath3009)"
       rx="25"
       ry="25"
       height="92"
       width="92"
       y="958.36"
       x="-96" />
  </g>
</svg>
