<svg height="96" width="96" xmlns="http://www.w3.org/2000/svg" xmlns:sodipodi="http://sodipodi.sourceforge.net/DTD/sodipodi-0.dtd" xmlns:inkscape="http://www.inkscape.org/namespaces/inkscape">
 <defs>
  <linearGradient x1="53.06" x2="50.45" y1="1042.44" y2="965.46" gradientUnits="userSpaceOnUse" id="linearGradient5160" inkscape:collect="always">
   <stop stop-color="#bcb5ac"/>
   <stop stop-color="#e9e7e4" offset="1"/>
  </linearGradient>
 </defs>
 <g inkscape:label="Layer 1" inkscape:groupmode="layer" transform="matrix(1 0 0 1 0 -956.36)">
  <rect x="8.751" rx="10.769" y="964.14" fill="url(#linearGradient5160)" fill-opacity="1" stroke="none" height="80" width="80"/>
  <path d="m 8.75125,1031.3354 0,2.0133 c 0,5.966 4.793063,10.7905 10.758946,10.7905 l 58.450649,0 c 5.965883,0 10.790405,-4.8245 10.790405,-10.7905 l 0,-2.0133 c 0,5.9659 -4.824522,10.7904 -10.790405,10.7904 l -58.450649,0 c -5.965883,0 -10.758946,-4.8245 -10.758946,-10.7904 z" fill="#000000" fill-opacity="1" stroke="none" opacity="0.3" inkscape:connector-curvature="0"/>
  <g transform="matrix(1 0 0 1 141.52 0.799)">
   <path d="m -119.77077,1009.1172 c 4.6363,-9.21994 12.58,-20.44904 23.03,-26.58804 10.45,-6.138 23.409,-7.1846 30.967,4.3586 0.29186,35.10304 -18.372,38.04604 -25.084,37.75504 -16.936,-0.7316 -28.912,-15.526 -28.912,-15.526 z" fill="#800000" fill-opacity="1" inkscape:connector-curvature="0"/>
   <path d="m -103.37077,991.91716 v 18.99304 h 6.1701 v -12.86704 c 0,-0.9349 0.72355,-1.6875 1.6172,-1.6875 h 1.2832 c 0.89365,0 1.6084,0.7526 1.6084,1.6875 v 12.86704 h 5.9592 v -12.86704 c 0,-0.9349 0.72355,-1.6875 1.6172,-1.6875 h 1.2744 c 0.89365,0 1.6172,0.7526 1.6172,1.6875 v 12.86704 h 6.1701 v -13.36804 c 0,-3.1163 -2.5088,-5.6251 -5.625,-5.6251 h -21.69 z" fill="#ffffff" inkscape:connector-curvature="0"/>
  </g>
 </g>
</svg>
