<svg height="96" width="96" xmlns="http://www.w3.org/2000/svg" xmlns:sodipodi="http://sodipodi.sourceforge.net/DTD/sodipodi-0.dtd" xmlns:inkscape="http://www.inkscape.org/namespaces/inkscape">
 <defs>
  <linearGradient x2="0" y1="962.62" y2="1046.1" gradientUnits="userSpaceOnUse" id="linearGradient11642" gradientTransform="matrix(1.15 0 0 1.15 -7.2 -150.65)">
   <stop stop-color="#269ebf"/>
   <stop stop-color="#67c7e1" offset="1"/>
  </linearGradient>
  <linearGradient x1="15" x2="130.71" gradientUnits="userSpaceOnUse" id="linearGradient3732">
   <stop stop-color="#08a"/>
   <stop stop-color="#08a" stop-opacity="0" offset="1"/>
  </linearGradient>
  <linearGradient x2="0" y1="56" y2="24.984" gradientUnits="userSpaceOnUse" id="linearGradient3832">
   <stop stop-color="#005b59"/>
   <stop stop-color="#00555b" stop-opacity="0" offset="1"/>
  </linearGradient>
  <clipPath clipPathUnits="userSpaceOnUse" id="clipPath3009">
   <path d="m-2 956.36h-96v33.562l96 25.687v-59.25z"/>
  </clipPath>
 </defs>
 <g transform="matrix(1 0 0 1 0 -956.36)">
  <rect x="2" rx="25" y="958.36" fill="url(#linearGradient11642)" height="92" width="92"/>
  <g transform="matrix(1 0 0 1 0 956.36)">
   <path d="m48 17c-18.225 0-33 12.088-33 27 0 9.4984 5.9998 17.843 15.062 22.656-0.34462 2.5088-1.914 8.6498-9.3438 10.75 9.6229 1.0458 16.014-3.6463 19.406-7.1875 2.525 0.506 5.162 0.782 7.876 0.782 18.225 0 33-12.088 33-27s-14.775-27-33-27z" fill="url(#linearGradient3732)" opacity="0.6"/>
   <path d="m15 44.406c-0.0053 0.20007 0 0.39263 0 0.59375 0 9.4416 5.9343 17.737 14.906 22.562 0.06714-0.3293 0.12055-0.64637 0.15625-0.90625-8.933-4.744-14.894-12.919-15.062-22.25zm66 0.094c-0.33 14.678-14.982 26.5-33 26.5-2.7139 0-5.3515-0.27575-7.875-0.78125-3.1139 3.2502-8.7477 7.4495-17.094 7.3125-0.70061 0.3324-1.4669 0.63597-2.3125 0.875 9.6229 1.0458 16.014-3.6463 19.406-7.1875 2.525 0.505 5.162 0.781 7.876 0.781 18.225 0 33-12.088 33-27 0-0.16936 0.0038-0.33138 0-0.5z" fill="#fff" opacity="0.2"/>
   <path d="m48 17c-18.225 0-33 12.088-33 27 0 9.4984 5.9998 17.843 15.062 22.656-0.34462 2.5088-1.914 8.6498-9.3438 10.75 9.6229 1.0458 16.014-3.6463 19.406-7.1875 2.525 0.506 5.162 0.782 7.876 0.782 18.225 0 33-12.088 33-27s-14.775-27-33-27zm0 1.0625c17.757 0 31.938 11.725 31.938 25.938 0 14.212-14.18 25.938-31.938 25.938-2.6422 0-5.1994-0.25784-7.6562-0.75a1.0589 1.0589 0 0 0 -0.969 0.312c-2.6438 2.7595-7.2489 6.0491-13.781 6.7188 1.4426-1.0373 2.5503-2.2407 3.3438-3.4688 1.4817-2.2934 2.0015-4.5838 2.1875-5.9375a1.0589 1.0589 0 0 0 -0.564 -1.093c-8.785-4.666-14.5-12.666-14.5-21.719 0-14.212 14.181-25.938 31.938-25.938z" fill="#045" opacity="0.15"/>
   <path d="m40 33c-6.6274 0-12 5.3726-12 12v8c0 2.216 1.784 4 4 4s4-1.784 4-4v-8c0-2.2091 1.7909-4 4-4s4 1.7909 4 4v8c0 2.216 1.784 4 4 4s4-1.784 4-4v-8c0-2.2091 1.7909-4 4-4s4 1.7909 4 4v8c0 2.216 1.784 4 4 4s4-1.784 4-4v-8c0-6.627-5.373-12-12-12-3.075 0-5.877 1.161-8 3.062-2.123-1.901-4.925-3.062-8-3.062z" fill="#006680" color="#000000"/>
   <path d="m40 32c-6.6274 0-12 5.3726-12 12v8c0 2.216 1.784 4 4 4s4-1.784 4-4v-8c0-2.2091 1.7909-4 4-4s4 1.7909 4 4v8c0 2.216 1.784 4 4 4s4-1.784 4-4v-8c0-2.2091 1.7909-4 4-4s4 1.7909 4 4v8c0 2.216 1.784 4 4 4s4-1.784 4-4v-8c0-6.627-5.373-12-12-12-3.075 0-5.877 1.161-8 3.062-2.123-1.901-4.925-3.062-8-3.062z" fill="#fff" color="#000000"/>
   <path d="m40 39c-2.2091 0-4 1.7909-4 4v1c0-2.2091 1.7909-4 4-4s4 1.7909 4 4v-1c0-2.2091-1.7909-4-4-4zm16 0c-2.2091 0-4 1.7909-4 4v1c0-2.2091 1.7909-4 4-4s4 1.7909 4 4v-1c0-2.2091-1.7909-4-4-4zm-28 12v1c0 2.216 1.784 4 4 4s4-1.784 4-4v-1c0 2.216-1.784 4-4 4s-4-1.784-4-4zm16 0v1c0 2.216 1.784 4 4 4s4-1.784 4-4v-1c0 2.216-1.784 4-4 4s-4-1.784-4-4zm16 0v1c0 2.216 1.784 4 4 4s4-1.784 4-4v-1c0 2.216-1.784 4-4 4s-4-1.784-4-4z" fill="#003737" color="#000000" opacity="0.2"/>
   <path d="m40 32c-6.6274 0-12 5.3726-12 12v8c0 2.216 1.784 4 4 4s4-1.784 4-4v-8c0-2.2091 1.7909-4 4-4s4 1.7909 4 4v8c0 2.216 1.784 4 4 4s4-1.784 4-4v-8c0-2.2091 1.7909-4 4-4s4 1.7909 4 4v8c0 2.216 1.784 4 4 4s4-1.784 4-4v-8c0-6.627-5.373-12-12-12-3.075 0-5.877 1.161-8 3.062-2.123-1.901-4.925-3.062-8-3.062zm0 1.9688c2.5773 0 4.9102 0.97067 6.6875 2.5625a1.9778 1.9778 0 0 0 2.625 0c1.7773-1.5918 4.1102-2.5625 6.6875-2.5625 5.5586 0 10.031 4.4726 10.031 10.031v8c0 1.1546-0.87664 2.0312-2.0312 2.0312s-2.0312-0.87664-2.0312-2.0312v-8c0-3.2779-2.6908-5.9688-5.9688-5.9688-3.2779 0-5.9688 2.6908-5.9688 5.9688v8c0 1.1546-0.87664 2.0312-2.0312 2.0312s-2.0312-0.87664-2.0312-2.0312v-8c0-3.2779-2.6908-5.9688-5.9688-5.9688-3.2779 0-5.9688 2.6908-5.9688 5.9688v8c0 1.1546-0.87664 2.0312-2.0312 2.0312s-2.0312-0.87664-2.0312-2.0312v-8c0-5.5586 4.4726-10.031 10.031-10.031z" fill="url(#linearGradient3832)" color="#000000" opacity="0.1"/>
   <path d="m40 32c-6.6274 0-12 5.3726-12 12v8c0 2.216 1.784 4 4 4s4-1.784 4-4v-8c0-2.2091 1.7909-4 4-4s4 1.7909 4 4v8c0 2.216 1.784 4 4 4s4-1.784 4-4v-8c0-2.2091 1.7909-4 4-4s4 1.7909 4 4v8c0 2.216 1.784 4 4 4s4-1.784 4-4v-8c0-6.627-5.373-12-12-12-3.075 0-5.877 1.161-8 3.062-2.123-1.901-4.925-3.062-8-3.062zm0 0.9375c2.8376 0 5.4167 1.0585 7.375 2.8125a0.94323 0.94323 0 0 0 1.25 0c1.9583-1.754 4.5374-2.8125 7.375-2.8125 6.1177 0 11.062 4.9448 11.062 11.062v8c0 1.7098-1.3527 3.0625-3.0625 3.0625s-3.0625-1.3527-3.0625-3.0625v-8c0-2.7188-2.2187-4.9375-4.9375-4.9375s-4.9375 2.2187-4.9375 4.9375v8c0 1.7098-1.3527 3.0625-3.0625 3.0625s-3.0625-1.3527-3.0625-3.0625v-8c0-2.7188-2.2187-4.9375-4.9375-4.9375s-4.9375 2.2187-4.9375 4.9375v8c0 1.7098-1.3527 3.0625-3.0625 3.0625s-3.0625-1.3527-3.0625-3.0625v-8c0-6.1177 4.9448-11.062 11.062-11.062z" fill="url(#linearGradient3832)" color="#000000" opacity="0.2"/>
  </g>
  <rect x="-96" rx="25" y="958.36" clip-path="url(#clipPath3009)" fill="#fff" height="92" opacity="0.15" width="92" transform="matrix(1 0 0 1 98 0)"/>
 </g>
</svg>
