<?xml version="1.0" encoding="UTF-8" standalone="no"?>
<!-- Created with Inkscape (http://www.inkscape.org/) -->

<svg
   xmlns:dc="http://purl.org/dc/elements/1.1/"
   xmlns:cc="http://creativecommons.org/ns#"
   xmlns:rdf="http://www.w3.org/1999/02/22-rdf-syntax-ns#"
   xmlns:svg="http://www.w3.org/2000/svg"
   xmlns="http://www.w3.org/2000/svg"
   xmlns:sodipodi="http://sodipodi.sourceforge.net/DTD/sodipodi-0.dtd"
   xmlns:inkscape="http://www.inkscape.org/namespaces/inkscape"
   id="svg11037"
   height="96"
   width="96"
   version="1.1"
   inkscape:version="0.48.5 r10040"
   sodipodi:docname="applications-monodevelopment.svg">
  <sodipodi:namedview
     pagecolor="#ffffff"
     bordercolor="#666666"
     borderopacity="1"
     objecttolerance="10"
     gridtolerance="10"
     guidetolerance="10"
     inkscape:pageopacity="0"
     inkscape:pageshadow="2"
     inkscape:window-width="640"
     inkscape:window-height="480"
     id="namedview2078" />
  <defs
     id="defs11039">
    <linearGradient
       id="linearGradient11642"
       y2="1046.1"
       gradientUnits="userSpaceOnUse"
       y1="962.62"
       gradientTransform="matrix(1.15 0 0 1.15 -7.1999 -150.65)"
       x2="48"
       x1="48">
      <stop
         id="stop3746-5"
         style="stop-color:#6189bb"
         offset="0" />
      <stop
         id="stop3748-38"
         style="stop-color:#b6cce9"
         offset="1" />
    </linearGradient>
    <linearGradient
       id="linearGradient3071"
       x1="2128.6"
       gradientUnits="userSpaceOnUse"
       y1="15027"
       gradientTransform="matrix(-.25635 0 0 .25321 593.66 -3728)"
       x2="2128.6"
       y2="14845">
      <stop
         id="stop7991"
         style="stop-color:#42699a"
         offset="0" />
      <stop
         id="stop7989-5"
         style="stop-color:#99b8e1"
         offset="1" />
    </linearGradient>
    <clipPath
       id="clipPath3009"
       clipPathUnits="userSpaceOnUse">
      <path
         id="path3011"
         style="opacity:.15;fill:#fff"
         d="m-2 956.36h-96v33.562l96 25.687v-59.25z" />
    </clipPath>
  </defs>
  <metadata
     id="metadata11042">
    <rdf:RDF>
      <cc:Work
         rdf:about="">
        <dc:format>image/svg+xml</dc:format>
        <dc:type
           rdf:resource="http://purl.org/dc/dcmitype/StillImage" />
        <dc:title />
      </cc:Work>
    </rdf:RDF>
  </metadata>
  <g
     id="layer1"
     transform="translate(0 -956.36)">
    <rect
       id="rect3867"
       style="fill:url(#linearGradient11642)"
       rx="25"
       ry="25"
       height="92"
       width="92"
       y="958.36"
       x="2" />
    <g
       id="g3073"
       transform="matrix(.81795 0 0 .81795 8.74 964.9)">
      <path
         id="path3603"
         d="m71.964 20c-4.313 1.766-18.146 7.515-18.491 7.658-3.87-3.15-8.904-5.598-14.117-5.874-12.646-0.793-24.278 10.401-24.315 22.819-0.555 11.179 4.565 21.519 9.189 31.397 3.8691-1.6089 17.938-7.4537 18.293-7.6016 3.7983 3.1637 8.6629 5.4951 13.734 5.8605 12.443 1.041 24.008-9.674 24.641-21.8 0.903-11.343-4.343-21.835-8.749-31.978-0.064-0.158-0.121-0.323-0.185-0.481z"
         style="fill:url(#linearGradient3071);fill-rule:evenodd" />
      <path
         id="path3607"
         d="m27.115 68.755c-2.729-6.585-6.347-12.387-6.427-23.141-0.083-11.11 9.479-18.303 17.036-18.304 9.1497-0.0011 17.2 7.7003 17.624 14.079 0.38309 5.7568-1.6722 14.129-12.281 14.067-5.065-0.029-10.329-4.421-10.356-10.956-0.03-7.0513 8.8324-7.7392 11.067-5.9441 0.86812 0.6973 0.84157 2.0772 0.07355 1.8281-4.7718-1.5486-7.7197 1.5034-7.5008 4.5398 0.29719 4.1199 2.7495 6.5711 7.1454 6.7795 6.3411 0.30022 8.1163-5.8466 7.9542-8.3414-0.197-3.0332-2.8503-9.2718-11.104-10.411-3.8972-0.53757-7.1271 0.6259-9.4864 2.9058-2.3592 2.2801-3.6856 4.6378-3.8794 8.5054-0.20042 4.0004 0.67584 6.3476 3.0763 11.596 0.85744 1.8745 3.2525 5.6563 5.1072 9.4432l-8.0492 3.3537z"
         style="fill:#eeeeec;fill-rule:evenodd" />
      <path
         id="path3871"
         d="m68.885 28.31c2.7291 6.585 6.347 12.387 6.4275 23.141 0.08308 11.11-9.4788 18.303-17.036 18.304-9.1497 0.0015-17.2-7.7001-17.624-14.078-0.38308-5.7574 1.6722-14.13 12.281-14.067 5.0654 0.02929 10.329 4.4214 10.356 10.956 0.03 7.0511-8.8325 7.7394-11.067 5.9441-0.8681-0.6973-0.8416-2.0769-0.07355-1.8281 4.7718 1.5488 7.7197-1.5037 7.5008-4.5399-0.29718-4.1199-2.7495-6.5706-7.1454-6.7791-6.3411-0.30022-8.1163 5.8468-7.9542 8.3411 0.197 3.0332 2.8503 9.2722 11.104 10.411 3.8972 0.5378 7.1271-0.62567 9.4863-2.9055 2.3593-2.2803 3.6857-4.638 3.8794-8.5049 0.20042-4.0006-0.67587-6.3476-3.0763-11.596-0.85742-1.8751-3.2525-5.6561-5.1072-9.4435l8.0492-3.3542z"
         style="opacity:.2;fill-rule:evenodd" />
      <path
         id="path3611"
         d="m68.885 27.31c2.7291 6.585 6.347 12.387 6.4275 23.141 0.08308 11.11-9.4788 18.303-17.036 18.304-9.1497 0.0015-17.2-7.7001-17.624-14.078-0.38308-5.7574 1.6722-14.13 12.281-14.067 5.0654 0.02929 10.329 4.4214 10.356 10.956 0.03 7.0511-8.8325 7.7394-11.067 5.9441-0.8681-0.6973-0.8416-2.0769-0.07355-1.8281 4.7718 1.5488 7.7197-1.5037 7.5008-4.5399-0.29718-4.1199-2.7495-6.5706-7.1454-6.7791-6.3411-0.30022-8.1163 5.8468-7.9542 8.3411 0.197 3.0332 2.8503 9.2722 11.104 10.411 3.8972 0.5378 7.1271-0.62567 9.4863-2.9055 2.3593-2.2803 3.6857-4.638 3.8794-8.5049 0.20042-4.0006-0.67587-6.3476-3.0763-11.596-0.85742-1.8751-3.2525-5.6561-5.1072-9.4435l8.0492-3.3542z"
         style="fill:#a9c4e3;fill-rule:evenodd" />
      <path
         id="path3613"
         d="m37.711 27.286c-7.5573 0.000858-17.104 7.1963-17.021 18.307 0.08047 10.754 3.7138 16.562 6.4428 23.147l8.029-3.355c-0.716-1.464-1.501-2.865-2.259-4.217h-1.779v-3.2108c-0.43703-0.78468-0.81709-1.4866-1.0578-2.0128-2.4005-5.2485-3.2776-7.597-3.0772-11.597 0.19378-3.8676 1.5353-6.2023 3.8945-8.4824 2.3593-2.2799 5.5747-3.4609 9.4719-2.9233 3.9032 0.53898 6.5391 2.228 8.2699 4.1693h1.6347v2.3961c0.74417 1.432 1.1356 2.812 1.202 3.8338 0.07201 1.1084-0.27873 2.9362-1.202 4.6006v5.7028c4.385-2.767 5.369-8.177 5.096-12.268-0.424-6.379-8.496-14.091-17.645-14.09z"
         style="fill:#eeeeec;fill-rule:evenodd" />
      <path
         id="path3838"
         d="m15 46.938c-0.105 10.667 4.78 20.581 9.219 30.062 3.8691-1.6089 17.958-7.4458 18.312-7.5938 3.7983 3.1637 8.648 5.4784 13.719 5.8438 12.444 1.0407 24.024-9.6555 24.656-21.781 0.07667-0.9628 0.10142-1.9241 0.09375-2.875-0.01358 0.62059-0.04393 1.2493-0.09375 1.875-0.632 12.126-12.212 22.822-24.656 21.781-5.071-0.365-9.92-2.68-13.719-5.844-0.354 0.148-14.443 5.985-18.312 7.594-4.301-9.186-9.024-18.774-9.219-29.062z"
         style="opacity:.4;fill:#fff;fill-rule:evenodd" />
      <path
         id="path3847"
         d="m71.969 20c-4.3137 1.7655-18.155 7.5128-18.5 7.6562-3.8701-3.1502-8.9115-5.5981-14.125-5.875-12.646-0.79267-24.276 10.395-24.312 22.812-0.55518 11.18 4.5627 21.529 9.1875 31.406 3.8691-1.6089 17.958-7.4458 18.312-7.5938 3.7983 3.1637 8.648 5.4784 13.719 5.8438 12.444 1.0407 24.024-9.6555 24.656-21.781 0.90325-11.343-4.3443-21.858-8.75-32-0.064-0.157-0.123-0.31-0.187-0.468zm-0.375 0.96875c4.3954 10.099 9.4702 20.432 8.5938 31.438a0.72935 0.72935 0 0 0 0 0.03125c-0.61 11.685-11.883 22.096-23.876 21.093-4.883-0.352-9.614-2.607-13.312-5.687a0.72935 0.72935 0 0 0 -0.75 -0.125c-0.301 0.125-13.242 5.478-17.656 7.312-4.544-9.688-9.375-19.708-8.844-30.406a0.72935 0.72935 0 0 0 0 -0.03125c0.035-11.964 11.372-22.858 23.562-22.094 5.011 0.266 9.915 2.648 13.688 5.719a0.72935 0.72935 0 0 0 0.75 0.125c0.32081-0.13346 13.062-5.4126 17.844-7.375z"
         style="opacity:.15;fill-rule:evenodd" />
      <path
         id="path3862"
         d="m71.969 20c-4.3137 1.7655-18.155 7.5128-18.5 7.6562-3.8701-3.1502-8.9115-5.5981-14.125-5.875-12.646-0.79267-24.276 10.395-24.312 22.812-0.01657 0.33365 0.0066 0.66784 0 1 0.03623-12.418 11.666-23.605 24.312-22.812 5.2135 0.27686 10.255 2.7248 14.125 5.875 0.34489-0.14348 14.186-5.8907 18.5-7.6562 0.064 0.15825 0.12334 0.31052 0.1875 0.46875 3.855 8.8745 8.3532 18.035 8.8125 27.781-0.185-10.121-4.826-19.604-8.813-28.781-0.064-0.158-0.123-0.311-0.187-0.469z"
         style="opacity:.2;fill-rule:evenodd" />
    </g>
    <rect
       id="rect3003"
       style="opacity:.15;fill:#fff"
       transform="translate(98 3.8281e-7)"
       clip-path="url(#clipPath3009)"
       rx="25"
       ry="25"
       height="92"
       width="92"
       y="958.36"
       x="-96" />
  </g>
</svg>
