<svg height="96" width="96" xmlns="http://www.w3.org/2000/svg" xmlns:sodipodi="http://sodipodi.sourceforge.net/DTD/sodipodi-0.dtd" xmlns:inkscape="http://www.inkscape.org/namespaces/inkscape">
 <rect x="8" rx="10.769" y="8" fill="#2672a9" fill-opacity="1" stroke="none" height="80" width="80"/>
 <g transform="matrix(1.4114 0 0 1.4114 -274.41 -1427.65)">
  <rect x="213.44" rx="3.75" y="1030.5" fill="white" fill-rule="evenodd" height="30" opacity="0.3" width="30"/>
  <path d="m 220.58,1034.5 v 22 l 18,-11 z" fill="white" fill-rule="evenodd" inkscape:connector-curvature="0"/>
  <path d="m 233.81,1026.4 c -0.71993,-0.05 -1.4503,0.1105 -2.125,0.5 l -6.281,3.625 h 12.719 l -1.313,-2.25 c -0.64922,-1.1245 -1.8001,-1.7911 -3,-1.875 z m -20.375,9.437 -2.25,1.313 c -1.7992,1.0388 -2.4138,3.3258 -1.375,5.125 l 3.625,6.281 v -12.719 z m 30,6.6562 v 12.719 l 2.25,-1.3125 c 1.7992,-1.0388 2.4138,-3.3258 1.375,-5.125 l -3.625,-6.28 z m -24.688,18.032 1.313,2.25 c 1.0388,1.7992 3.3258,2.4138 5.125,1.375 l 6.281,-3.625 h -12.719 z" fill="#0a3859" fill-rule="evenodd" opacity="0.5" inkscape:connector-curvature="0"/>
 </g>
</svg>
