<?xml version="1.0" encoding="UTF-8" standalone="no"?>
<!-- Created with Inkscape (http://www.inkscape.org/) -->

<svg
   xmlns:dc="http://purl.org/dc/elements/1.1/"
   xmlns:cc="http://creativecommons.org/ns#"
   xmlns:rdf="http://www.w3.org/1999/02/22-rdf-syntax-ns#"
   xmlns:svg="http://www.w3.org/2000/svg"
   xmlns="http://www.w3.org/2000/svg"
   xmlns:xlink="http://www.w3.org/1999/xlink"
   xmlns:sodipodi="http://sodipodi.sourceforge.net/DTD/sodipodi-0.dtd"
   xmlns:inkscape="http://www.inkscape.org/namespaces/inkscape"
   id="svg11037"
   height="96"
   width="96"
   version="1.1"
   inkscape:version="0.48.5 r10040"
   sodipodi:docname="mplayer.svg">
  <sodipodi:namedview
     pagecolor="#ffffff"
     bordercolor="#666666"
     borderopacity="1"
     objecttolerance="10"
     gridtolerance="10"
     guidetolerance="10"
     inkscape:pageopacity="0"
     inkscape:pageshadow="2"
     inkscape:window-width="1366"
     inkscape:window-height="716"
     id="namedview22750"
     showgrid="false"
     inkscape:zoom="2.4583333"
     inkscape:cx="111.86441"
     inkscape:cy="31.728814"
     inkscape:window-x="0"
     inkscape:window-y="24"
     inkscape:window-maximized="1"
     inkscape:current-layer="svg11037" />
  <defs
     id="defs11039">
    <linearGradient
       id="linearGradient11642"
       y2="1046.1"
       gradientUnits="userSpaceOnUse"
       y1="962.62"
       gradientTransform="matrix(1.15,0,0,1.15,-7.1999,-150.65)"
       x2="48"
       x1="48">
      <stop
         id="stop3226-2"
         style="stop-color:#44b0ff"
         offset="0" />
      <stop
         id="stop3228-5"
         style="stop-color:#0a3859"
         offset="1" />
    </linearGradient>
    <linearGradient
       inkscape:collect="always"
       xlink:href="#linearGradient11642"
       id="linearGradient3008"
       gradientUnits="userSpaceOnUse"
       gradientTransform="matrix(1.15,0,0,1.15,122.56281,-1109.4507)"
       x1="48"
       y1="962.62"
       x2="48"
       y2="1046.1" />
  </defs>
  <metadata
     id="metadata11042">
    <rdf:RDF>
      <cc:Work
         rdf:about="">
        <dc:format>image/svg+xml</dc:format>
        <dc:type
           rdf:resource="http://purl.org/dc/dcmitype/StillImage" />
        <dc:title />
      </cc:Work>
    </rdf:RDF>
  </metadata>
  <rect
     style="fill:#2672a9;fill-opacity:1;stroke:none"
     id="rect2985"
     width="80"
     height="80"
     x="8"
     y="8"
     rx="10.769231"
     ry="10.769231" />
  <g
     transform="translate(-182.18616,-996.78146)"
     id="g6779">
    <g
       transform="matrix(1.4114,0,0,1.4114,-92.227,-430.87)"
       id="g6737">
      <rect
         x="213.44"
         y="1030.5"
         width="30"
         height="30"
         ry="3.75"
         rx="3.75"
         style="opacity:0.3;fill:white;fill-rule:evenodd"
         id="rect3530" />
      <path
         inkscape:connector-curvature="0"
         style="fill:white;fill-rule:evenodd"
         d="m 220.58,1034.5 v 22 l 18,-11 z"
         id="path3496" />
      <path
         inkscape:connector-curvature="0"
         style="opacity:0.5;fill:#0a3859;fill-rule:evenodd"
         d="m 233.81,1026.4 c -0.71993,-0.05 -1.4503,0.1105 -2.125,0.5 l -6.281,3.625 h 12.719 l -1.313,-2.25 c -0.64922,-1.1245 -1.8001,-1.7911 -3,-1.875 z m -20.375,9.437 -2.25,1.313 c -1.7992,1.0388 -2.4138,3.3258 -1.375,5.125 l 3.625,6.281 v -12.719 z m 30,6.6562 v 12.719 l 2.25,-1.3125 c 1.7992,-1.0388 2.4138,-3.3258 1.375,-5.125 l -3.625,-6.28 z m -24.688,18.032 1.313,2.25 c 1.0388,1.7992 3.3258,2.4138 5.125,1.375 l 6.281,-3.625 h -12.719 z"
         id="rect3873" />
    </g>
  </g>
</svg>
