<svg height="96" width="96" xmlns="http://www.w3.org/2000/svg" xmlns:sodipodi="http://sodipodi.sourceforge.net/DTD/sodipodi-0.dtd" xmlns:inkscape="http://www.inkscape.org/namespaces/inkscape">
 <defs>
  <clipPath clipPathUnits="userSpaceOnUse" id="clipPath3009">
   <path d="m-2 956.36h-96v33.562l96 25.687v-59.25z"/>
  </clipPath>
  <linearGradient x2="0" y1="113.95" y2="5.988" gradientUnits="userSpaceOnUse" id="linearGradient3122" gradientTransform="matrix(1.1429 0 0 1.1429 -6.857 -1059.2)">
   <stop stop-color="#6e6e6e"/>
   <stop offset="1"/>
  </linearGradient>
  <clipPath clipPathUnits="userSpaceOnUse" id="clipPath3018">
   <rect x="2" rx="25" y="958.36" height="92" width="92" transform="matrix(1 0 0 -1 0 0)"/>
  </clipPath>
  <radialGradient cy="37.907" r="33.06" gradientUnits="userSpaceOnUse" id="radialGradient3139" cx="54.49" gradientTransform="matrix(1.4102 -0.3132 0.42735 1.9241 -39.841 929.12)">
   <stop stop-color="#fbfbfb"/>
   <stop stop-color="#ababab" offset="1"/>
  </radialGradient>
 </defs>
 <g transform="matrix(1 0 0 1 0 -956.36)">
  <rect rx="6.857" y="-1052.4" clip-path="url(#clipPath3018)" fill="url(#linearGradient3122)" height="96" width="96" transform="matrix(1 0 0 -1 0 0)"/>
  <path d="m29.163 973.97c-5.9852 1.3293-9.78 7.3345-8.4506 13.32l2.1139 9.5176 0.29379 1.3228c-6.3938 3.0721-9.7923 11.852-7.7418 21.084 2.184 9.8333 9.7802 16.613 17.352 15.782l-7.9897-35.973 1.0647-0.23647 7.8105 35.167c0.09624 0.4333 0.55459 0.7232 1.018 0.6202l1.1937-0.2651c0.46338-0.1029 0.75594-0.5595 0.6597-0.9929l-8.09-36.425c-0.0513-0.23097-0.18618-0.41805-0.38708-0.52341l-0.15048-0.67752-2.1139-9.5176c-0.73063-3.2896 1.2458-6.4382 4.5355-7.1688l22.842-5.0733c3.2896-0.73063 6.4454 1.2781 7.176 4.5677l2.1139 9.5176 0.08599 0.38715c-0.21478 0.19158-0.33193 0.48709-0.26894 0.77068l8.09 36.425c0.09624 0.4333 0.57025 0.6859 1.0431 0.5809l1.1937-0.2651c-0.06342 0.089-0.09634 0.1841-0.17568 0.276-0.57772 0.6688-1.1411 1.2909-1.7424 1.9104-0.53985 0.5563-1.103 1.1766-1.6707 1.6237-0.44672 0.3518-0.8783 0.4659-0.8783 0.4659l-7.0979 1.5764c-0.02138 0-0.04389 0.01-0.06452 0.014-0.88671-1.528-3.6372-2.239-6.6136-1.578-3.3555 0.7453-5.7431 2.951-5.3095 4.9032 0.4336 1.9523 3.5304 2.9399 6.8859 2.1947 2.7123-0.6024 4.7988-2.1409 5.2628-3.7418 0.07512 0 0.15604-0.0008 0.23301-0.018l7.485-1.6624c0.17226-0.038 0.75574-0.336 1.0898-0.5806 0.83288-0.6099 1.3074-1.2859 2.2299-2.1542 0.96941-0.9737 2.696-3.104 2.696-3.104 0.20298-0.2063 0.26558-0.4988 0.20441-0.7563 6.8767-2.7214 10.642-11.835 8.5125-21.425-2.0506-9.2327-8.8532-15.78-15.946-15.857l-0.24363-1.0969-2.1139-9.5176c-1.3293-5.9852-7.3094-9.8194-13.295-8.4901l-22.842 5.0732zm-1.2627 8.0331 3.5613 16.035 3.6135-0.80255-2.2357-10.066-0.15048-0.67752 0.19358-0.043 0.31179 0.64169 4.7199 9.5143 1.6777-0.37261 0.24858-10.618-0.02143-0.70618 0.22584-0.0502 0.15048 0.67752 2.2357 10.066 3.6135-0.80255-3.5613-16.035-4.7749 1.0605-0.66408 7.8325-0.000106 0.91409-0.06452 0.0143-0.38705-0.8281-3.9173-6.8149-4.7749 1.0605zm18.132-4.0271 2.8304 12.744s0.72428 3.4616 5.9611 2.2985 4.4599-4.613 4.4599-4.613l-2.8304-12.744-3.9038 0.86704 2.8304 12.744s0.30758 1.1504-1.0648 1.4553c-1.3724 0.30481-1.5485-0.87484-1.5485-0.87484l-2.8304-12.744-3.9038 0.86704zm19.456 11.997 1.1292-0.25079 7.7389 34.844c-0.1181-0.027-0.25751-0.043-0.37639-0.018-0.136 0.029-0.58522 0.057-0.78148 0.1397l-7.7102-34.715zm-33.654 9.7428 2.8161 12.679 3.6135-0.8026-1.7699-7.9689-0.12182-0.5485 0.19358-0.043 0.28313 0.5127 4.2542 7.4172 1.6777-0.3727 0.71434-8.5207 0.0072-0.5771 0.22584-0.05 0.12182 0.5485 1.7699 7.9689 3.6135-0.8025-2.8161-12.679-4.7749 1.0605-1.0009 6.3161-0.05027 0.6883-0.06452 0.014-0.33689-0.6023-3.5805-5.2986-4.7749 1.0605zm18.164-4.0342 2.8161 12.679 4.8072-1.0676c4.6398-1.1209 5.6511-3.0603 5.2378-4.9212-0.55873-2.5157-3.4052-2.5276-3.4052-2.5276 1.7058-1.1925 2.0995-1.979 1.8393-3.1507-0.55873-2.5157-3.1841-2.8137-7.8431-1.7789l-3.4521 0.76672zm4.3123 0.97195c0.72232-0.16042 2.8969-0.67524 3.2834 1.065 0.38652 1.7403-1.8087 2.1622-2.5311 2.3226l-0.75239-3.3877zm1.1322 5.0976c0.72232-0.1604 2.8706-0.794 3.3336 1.2909 0.46306 2.0849-1.7443 2.4525-2.4666 2.6129l-0.86704-3.9038zm-20.642 11.322 3.9626 17.842 12.905-2.8663-0.53742-2.4197-7.356 1.6337-3.4252-15.422-5.5492 1.2325zm16.131-3.5828 3.9626 17.841 12.712-2.8232-0.60191-2.7101-7.1624 1.5908-1.0892-4.904 5.1621-1.1465-0.63774-2.8714-5.1621 1.1465-1.039-4.6782 7.1624-1.5907-0.59475-2.6779-12.712 2.8233z" fill="url(#radialGradient3139)" fill-rule="evenodd" opacity="0.967"/>
  <rect x="-96" rx="25" y="958.36" clip-path="url(#clipPath3009)" fill="#fff" height="92" opacity="0.15" width="92" transform="matrix(1 0 0 1 98 0)"/>
 </g>
</svg>
