<?xml version="1.0" encoding="UTF-8" standalone="no"?>
<!-- Created with Inkscape (http://www.inkscape.org/) -->

<svg
   xmlns:dc="http://purl.org/dc/elements/1.1/"
   xmlns:cc="http://creativecommons.org/ns#"
   xmlns:rdf="http://www.w3.org/1999/02/22-rdf-syntax-ns#"
   xmlns:svg="http://www.w3.org/2000/svg"
   xmlns="http://www.w3.org/2000/svg"
   xmlns:sodipodi="http://sodipodi.sourceforge.net/DTD/sodipodi-0.dtd"
   xmlns:inkscape="http://www.inkscape.org/namespaces/inkscape"
   id="svg11037"
   height="96"
   width="96"
   version="1.1"
   inkscape:version="0.48.5 r10040"
   sodipodi:docname="netbeans.svg">
  <sodipodi:namedview
     pagecolor="#ffffff"
     bordercolor="#666666"
     borderopacity="1"
     objecttolerance="10"
     gridtolerance="10"
     guidetolerance="10"
     inkscape:pageopacity="0"
     inkscape:pageshadow="2"
     inkscape:window-width="640"
     inkscape:window-height="480"
     id="namedview45890" />
  <defs
     id="defs11039">
    <linearGradient
       id="linearGradient11642"
       y2="1046.1"
       gradientUnits="userSpaceOnUse"
       y1="962.62"
       gradientTransform="matrix(1.15 0 0 1.15 -7.1999 -150.65)"
       x2="48"
       x1="48">
      <stop
         id="stop3702"
         style="stop-color:#a12225"
         offset="0" />
      <stop
         id="stop3704"
         style="stop-color:#ce1b1f"
         offset="1" />
    </linearGradient>
    <clipPath
       id="clipPath3009"
       clipPathUnits="userSpaceOnUse">
      <path
         id="path3011"
         style="opacity:.15;fill:#fff"
         d="m-2 956.36h-96v33.562l96 25.687v-59.25z" />
    </clipPath>
  </defs>
  <metadata
     id="metadata11042">
    <rdf:RDF>
      <cc:Work
         rdf:about="">
        <dc:format>image/svg+xml</dc:format>
        <dc:type
           rdf:resource="http://purl.org/dc/dcmitype/StillImage" />
        <dc:title />
      </cc:Work>
    </rdf:RDF>
  </metadata>
  <g
     id="layer1"
     transform="translate(0 -956.36)">
    <rect
       id="rect3867"
       style="fill:url(#linearGradient11642)"
       rx="25"
       ry="25"
       height="92"
       width="92"
       y="958.36"
       x="2" />
    <g
       id="layer4"
       transform="translate(1.4778e-7 956.36)">
      <path
         id="path3866"
         style="opacity:.3;fill:#500;fill-rule:evenodd"
         d="m41.312 16c-0.05991-0.0097-0.11385 0.01142-0.15625 0.03125-0.33923 0.18058-1.7097 0.17414-1.0312 1.375 0.70169 1.1996 1.3851 0.67847 1.9062 0 0.455-0.595-0.299-1.338-0.719-1.406zm3.3125 0.1875c-2.2405 0-1.2328 1.8819-0.375 2.0625 0.86034 0.18187 3.0843 0.87823 6.3438 1.2188 3.2595 0.33923 7.2205 1.1931 8.7812 1.375 1.5401 0.15866 4.2761 1.1851 5.6562 1.3438 1.3814 0.18187 7.048 0.87823 8.4062 1.2188 1.3814 0.36245 1.8916-1.7 1.0312-2.0625-0.859-0.339-2.741-0.692-5.842-1.032-3.078-0.34-4.627-1.028-5.125-1.187-0.521-0.181-2.923-0.185-3.625-0.344-0.68-0.182-4.115-0.689-5.813-1.187-1.72-0.521-7.22-1.406-9.437-1.406zm-6.25 1.4375c-0.26585-0.0057-0.5263 0.04019-0.65625 0.125-0.5211 0.33923-3.2334 1.8827-4.0938 2.5625-0.86034 0.67976-3.0817 2.0657-4.2812 2.4062-1.1996 0.34052-6.1946 3.4554-8.5938 4.6562-2.4224 1.1996 0.51918 1.3649 1.7188 0.84375 1.1996-0.5211 7.0338-3.5897 9.0938-4.8125 2.0599-1.2009 4.9726-2.8998 7.0312-4.2812 1.544-1.0361 0.57881-1.483-0.21875-1.5zm2.7812 1.75c-0.49531 0.12721-0.93404 0.59827-0.84375 0.9375 0.18187 0.67976 0.6875 3.2558 0.6875 5.6562s0.34375 6.0512 0.34375 7.75c0 0.61956 0.07107 1.5672 0.1875 2.5938-1.515-0.432-3.093-0.898-4.968-1.47-4.594-1.404-12.231-3.72-14.156-4.219-1.9245-0.49789-2.2863 0.19196-1.7188 0.9375 0.56625 0.77005 1.5575 0.7887 5.5625 2.125 4.0282 1.3582 11.853 3.6431 14.344 4.5938 0.41189 0.16113 0.8086 0.33511 1.2188 0.5 0.11343 1.0235 0.21875 1.9835 0.21875 2.6562 0 1.8793 0.14658 2.75 1.1875 2.75 1.019 0 0.6875-1.3873 0.6875-2.4062 0-0.3809-0.01208-1.3412-0.03125-2.2188 1.3402 0.49972 2.6123 0.91808 3.7812 1.0312 2.1051 0.18187 2.3182-1.9175-0.375-2.6875-0.99162-0.27723-2.2143-0.59897-3.4375-0.9375 0.009-0.40292 0.02679-0.73167 0.0625-0.84375 0.18058-0.5211-0.16188-3.4522-0.34375-4.3125-0.18058-0.86034-0.5-3.5918-0.5-5.3125s-0.34827-3.9388-0.6875-6c-0.17026-1.03-0.72344-1.2522-1.2188-1.125zm35.938 2.5625c-0.51739-0.0032-0.90625 0.20345-0.90625 1.4062 0 1.9013 1.3619 1.9087 2.3125 1.3438 0.95063-0.56625 0.57563-2.6562-0.375-2.6562-0.35649 0-0.72081-0.09184-1.0312-0.09375zm-2.125 2.8125c-0.34893-0.0288-0.84834 0.14351-1.2812 0.5-1.1312 0.97385-4.595 3.0918-7.0625 4.8125-2.4894 1.7207-7.0793 4.7612-8.4375 5.5312-1.335 0.77005-3.0643 1.7356-4.2188 2.6875-1.1312 0.97385-0.71939 2.6832 1 2.0938 1.7207-0.56496 3.438-1.5005 4.5938-2.6562 1.1312-1.1557 2.2831-1.9394 3.4375-2.6875 1.1544-0.77005 9.9356-7.2818 11.656-8.4375 1.0746-1.1883 0.89405-1.7957 0.3125-1.8438zm2.5625 1.2812c-0.76876 0-0.96875 0.96119-0.96875 2.5v12.062c0 1.5169-0.0056 2.293-0.1875 4.2188-0.2038 1.9013-0.1875 9.9493-0.1875 11.469 0 1.5388 0.0112 2.4837 0.78125 2.6875 0.76876 0.18058 0.95245-0.75616 1.1562-2.0938 0.18058-1.3582 0.5625-4.6043 0.5625-7.0938 0-2.492-0.38438-4.0181 0-4.9688 0.387-0.951 0.371-2.117 0.189-4.812-0.203-2.673-0.579-10.149-0.375-11.281 0.18058-1.1544-0.22192-2.6875-0.96875-2.6875zm-59.188 2.875c-1.019 0.18187-1.2151 0.51226-1.375 1.5312-0.18058 1.0422 1.0147 1.5767 1.875 0.875 0.86034-0.67976 0.54092-2.5649-0.5-2.4062zm0.46875 4.5312c-0.4924 0.08497-0.96875 0.52521-0.96875 1.125 0 1.1996 0.66317 8.2347 0.84375 9.0938 0.15865 0.86034 0.84375 4.4623 0.84375 5.8438 0 1.3814 0.69202 3.2634 1.0312 4.125 0.33923 0.85905 0.01015 4.1364 0.53125 6.7188 0.49789 2.5604 1.3494 0.33038 1.5312-0.53125 0.18058-0.86163-0.1875-2.5817-0.1875-3.7812 0-1.2009-0.13063-3.2635-0.3125-4.2812-0.15865-1.0422-1.0369-4.4855-1.2188-5.8438-0.15736-1.3814-0.31942-3.2513-0.5-5.3125-0.15865-2.0599-0.34135-4.6474-0.5-6.1875-0.09029-0.78101-0.60134-1.0537-1.0938-0.96875zm32.312 5.625c-1.7426 0.2038-1.7457 1.5387-1.1562 2.875 0.38438 0.95063 2.3031 0.54567 2.6875-0.40625 0.38438-0.95063 0.18814-2.6506-1.5312-2.4688zm0.0625 4.25c-0.38418 0.07373-0.6818 0.41725-0.75 1.0625-0.0992 1.0621-0.005 2.6848 0.125 4-1.3412-0.50904-2.5992-0.93263-3.0625-1.0938-1.019-0.34052-1.5211 0.1722-1 1.0312 0.5211 0.86034 1.6998 0.85149 2.7188 1.5312 0.32357 0.21812 0.97875 0.62423 1.7188 1.0625 0.24483 1.3876 0.66375 4.1871 0.53125 6.3438-0.18058 2.5823 0.0032 5.8418 0.34375 7.5625 0.33923 1.7207 0.53125 6.1754 0.53125 7.375 0 1.2022 0.31942 2.722 0.5 3.0625 0.15865 0.36245 1.2163 1.9306 1.375-0.3125 0.18058-2.2199-0.02433-6.6823 0.15625-8.0625 0.15865-1.3802-0.16077-4.6601-0.5-8.7812-0.19046-2.305-0.31947-4.2392-0.40625-5.8125 1.0272 0.51827 2.0555 1.0041 2.8125 1.1875 2.0586 0.52239 6.3554 2.5817 9.0938 3.7812 2.7384 1.2022 7.0237 3.5809 8.5625 4.2812 1.5388 0.68105 1.3972-1.9071 0.71875-2.4062-0.70169-0.51852-6.1811-2.5759-7.5625-3.4375-1.38-0.862-8.422-3.765-11.342-5.126-0.732-0.348-1.57-0.714-2.406-1.062 0-1.019 0.33472-3.5841-0.34375-4.625-0.32488-1.0762-1.1722-1.6854-1.8125-1.5625zm-7.2812 2.7188c-0.53666 0.02654-1.0521 0.31209-1.1875 1.0938-0.15994 1.019 1.0403 1.183 1.7188 0.84375 0.67847-0.34052 0.67847-1.7257 0-1.9062-0.16962-0.03966-0.35236-0.0401-0.53125-0.03125zm-2.093 2.594c-0.301 0.031-0.597 0.16-0.812 0.375-0.86034 0.86034-5.4828 3.9676-8.0625 6.1875-2.5797 2.2418-7.0549 4.6174-8.5938 6.1562-1.5388 1.5414 0.54351 2.424 1.5625 1.4062 1.0422-1.0435 6.1519-4.4666 8.0312-6.0312 1.9013-1.5388 6.3707-4.8024 8.25-6.3438 1.4259-1.1541 0.52897-1.8435-0.375-1.75zm35.157 11.875c-1.1544 0.2038-1.7294 0.98429-1.3438 1.9375 0.38438 0.94934 1.7163 1.1494 2.2812 0.5625 0.58818-0.56754 0.21693-2.6819-0.9375-2.5zm-54.125 2.3125c-0.54208-0.0019-1.1371 0.3435-1.25 0.78125-0.15865 0.68105-0.004 2.2224 1.2188 2.0625 1.1996-0.178 1.3636-1.5446 0.84375-2.4062-0.18719-0.32214-0.48725-0.43634-0.8125-0.4375zm51.062 1.0312c-0.26668-0.01272-0.55195 0.06584-0.8125 0.28125-1.0177 0.83841-2.4056 1.6854-4.125 3.25-1.7207 1.5388-6.5192 5.3235-7.7188 6.3438-1.1983 1.0409-1.7189 0.35777-3.9375 2.9375-2.2418 2.5823 0.14206 2.9261 0.84375 2.4062 0.67976-0.52239 1.3584-1.0345 2.2188-1.375 0.85905-0.36245 1.7424-1.5524 3.2812-3.0938 1.5401-1.5401 2.7668-1.0814 4.125-2.9375 1.3802-1.8587 4.8049-5.2382 6.3438-6.1875 1.1531-0.71491 0.58129-1.5868-0.21875-1.625zm-48.531 1.313c-0.9911 0.13229-0.81132 1.0735 0.34375 1.7188 1.562 0.85905 6.3698 3.414 7.75 4.0938 1.3582 0.67976 2.731 0.88532 3.75 1.5625 1.0409 0.68105 4.2959 2.3851 5.1562 2.9062 0.86034 0.52239 6.1823 3.2577 7.5625 3.9375 1.3582 0.70298 2.0524-1.1883 1.5312-1.6875-0.519-0.52-1.387-0.696-2.406-1.217-1.04-0.497-4.804-2.232-6.343-3.094-1.54-0.862-4.812-2.57-6.531-3.25-1.72-0.678-7.039-4.135-9.438-4.813-0.6-0.175-1.045-0.2-1.375-0.156zm28.313 13.219c-0.49789 0.15607-1.5454 1.2041-0.84375 2.4062 0.67847 1.1996 1.7046 1.8539 2.4062 0.3125 0.67847-1.5388-1.0414-2.9006-1.5625-2.7188z" />
      <path
         id="path2875"
         style="fill:#fff;fill-rule:evenodd"
         d="m41.312 15c-0.05991-0.0097-0.11385 0.01142-0.15625 0.03125-0.33923 0.18058-1.7097 0.17414-1.0312 1.375 0.70169 1.1996 1.3851 0.67847 1.9062 0 0.455-0.595-0.299-1.338-0.719-1.406zm3.3125 0.1875c-2.2405 0-1.2328 1.8819-0.375 2.0625 0.86034 0.18187 3.0843 0.87823 6.3438 1.2188 3.2595 0.33923 7.2205 1.1931 8.7812 1.375 1.5401 0.15866 4.2761 1.1851 5.6562 1.3438 1.3814 0.18187 7.048 0.87823 8.4062 1.2188 1.3814 0.36245 1.8916-1.7 1.0312-2.0625-0.859-0.339-2.741-0.692-5.842-1.032-3.078-0.34-4.627-1.028-5.125-1.187-0.521-0.181-2.923-0.185-3.625-0.344-0.68-0.182-4.115-0.689-5.813-1.187-1.72-0.521-7.22-1.406-9.437-1.406zm-6.25 1.4375c-0.26585-0.0057-0.5263 0.04019-0.65625 0.125-0.5211 0.33923-3.2334 1.8827-4.0938 2.5625-0.86034 0.67976-3.0817 2.0657-4.2812 2.4062-1.1996 0.34052-6.1946 3.4554-8.5938 4.6562-2.4224 1.1996 0.51918 1.3649 1.7188 0.84375 1.1996-0.5211 7.0338-3.5897 9.0938-4.8125 2.0599-1.2009 4.9726-2.8998 7.0312-4.2812 1.544-1.0361 0.57881-1.483-0.21875-1.5zm2.7812 1.75c-0.49531 0.12721-0.93404 0.59827-0.84375 0.9375 0.18187 0.67976 0.6875 3.2558 0.6875 5.6562s0.34375 6.0512 0.34375 7.75c0 0.61956 0.07107 1.5672 0.1875 2.5938-1.515-0.432-3.093-0.898-4.968-1.47-4.594-1.404-12.231-3.72-14.156-4.219-1.9245-0.49789-2.2863 0.19196-1.7188 0.9375 0.56625 0.77005 1.5575 0.7887 5.5625 2.125 4.0282 1.3582 11.853 3.6431 14.344 4.5938 0.41189 0.16113 0.8086 0.33511 1.2188 0.5 0.11343 1.0235 0.21875 1.9835 0.21875 2.6562 0 1.8793 0.14658 2.75 1.1875 2.75 1.019 0 0.6875-1.3873 0.6875-2.4062 0-0.3809-0.01208-1.3412-0.03125-2.2188 1.3402 0.49972 2.6123 0.91808 3.7812 1.0312 2.1051 0.18187 2.3182-1.9175-0.375-2.6875-0.99162-0.27723-2.2143-0.59897-3.4375-0.9375 0.009-0.40292 0.02679-0.73167 0.0625-0.84375 0.18058-0.5211-0.16188-3.4522-0.34375-4.3125-0.18058-0.86034-0.5-3.5918-0.5-5.3125s-0.34827-3.9388-0.6875-6c-0.17026-1.03-0.72344-1.2522-1.2188-1.125zm35.938 2.5625c-0.51739-0.0032-0.90625 0.20345-0.90625 1.4062 0 1.9013 1.3619 1.9087 2.3125 1.3438 0.95063-0.56625 0.57563-2.6562-0.375-2.6562-0.35649 0-0.72081-0.09184-1.0312-0.09375zm-2.125 2.8125c-0.34893-0.0288-0.84834 0.14351-1.2812 0.5-1.1312 0.97385-4.595 3.0918-7.0625 4.8125-2.4894 1.7207-7.0793 4.7612-8.4375 5.5312-1.335 0.77005-3.0643 1.7356-4.2188 2.6875-1.1312 0.97385-0.71939 2.6832 1 2.0938 1.7207-0.56496 3.438-1.5005 4.5938-2.6562 1.1312-1.1557 2.2831-1.9394 3.4375-2.6875 1.1544-0.77005 9.9356-7.2818 11.656-8.4375 1.0746-1.1883 0.89405-1.7957 0.3125-1.8438zm2.5625 1.2812c-0.76876 0-0.96875 0.96119-0.96875 2.5v12.062c0 1.5169-0.0056 2.293-0.1875 4.2188-0.2038 1.9013-0.1875 9.9493-0.1875 11.469 0 1.5388 0.0112 2.4837 0.78125 2.6875 0.76876 0.18058 0.95245-0.75616 1.1562-2.0938 0.18058-1.3582 0.5625-4.6043 0.5625-7.0938 0-2.492-0.38438-4.0181 0-4.9688 0.387-0.951 0.371-2.117 0.189-4.812-0.203-2.673-0.579-10.149-0.375-11.281 0.18058-1.1544-0.22192-2.6875-0.96875-2.6875zm-59.188 2.875c-1.019 0.18187-1.2151 0.51226-1.375 1.5312-0.18058 1.0422 1.0147 1.5767 1.875 0.875 0.86034-0.67976 0.54092-2.5649-0.5-2.4062zm0.46875 4.5312c-0.4924 0.08497-0.96875 0.52521-0.96875 1.125 0 1.1996 0.66317 8.2347 0.84375 9.0938 0.15865 0.86034 0.84375 4.4623 0.84375 5.8438 0 1.3814 0.69202 3.2634 1.0312 4.125 0.33923 0.85905 0.01015 4.1364 0.53125 6.7188 0.49789 2.5604 1.3494 0.33038 1.5312-0.53125 0.18058-0.86163-0.1875-2.5817-0.1875-3.7812 0-1.2009-0.13063-3.2635-0.3125-4.2812-0.15865-1.0422-1.0369-4.4855-1.2188-5.8438-0.15736-1.3814-0.31942-3.2513-0.5-5.3125-0.15865-2.0599-0.34135-4.6474-0.5-6.1875-0.09029-0.78101-0.60134-1.0537-1.0938-0.96875zm32.312 5.625c-1.7426 0.2038-1.7457 1.5387-1.1562 2.875 0.38438 0.95063 2.3031 0.54567 2.6875-0.40625 0.38438-0.95063 0.18814-2.6506-1.5312-2.4688zm0.0625 4.25c-0.38418 0.07373-0.6818 0.41725-0.75 1.0625-0.0992 1.0621-0.005 2.6848 0.125 4-1.3412-0.50904-2.5992-0.93263-3.0625-1.0938-1.019-0.34052-1.5211 0.1722-1 1.0312 0.5211 0.86034 1.6998 0.85149 2.7188 1.5312 0.32357 0.21812 0.97875 0.62423 1.7188 1.0625 0.24483 1.3876 0.66375 4.1871 0.53125 6.3438-0.18058 2.5823 0.0032 5.8418 0.34375 7.5625 0.33923 1.7207 0.53125 6.1754 0.53125 7.375 0 1.2022 0.31942 2.722 0.5 3.0625 0.15865 0.36245 1.2163 1.9306 1.375-0.3125 0.18058-2.2199-0.02433-6.6823 0.15625-8.0625 0.15865-1.3802-0.16077-4.6601-0.5-8.7812-0.19046-2.305-0.31947-4.2392-0.40625-5.8125 1.0272 0.51827 2.0555 1.0041 2.8125 1.1875 2.0586 0.52239 6.3554 2.5817 9.0938 3.7812 2.7384 1.2022 7.0237 3.5809 8.5625 4.2812 1.5388 0.68105 1.3972-1.9071 0.71875-2.4062-0.70169-0.51852-6.1811-2.5759-7.5625-3.4375-1.38-0.862-8.422-3.765-11.342-5.126-0.732-0.348-1.57-0.714-2.406-1.062 0-1.019 0.33472-3.5841-0.34375-4.625-0.32488-1.0762-1.1722-1.6854-1.8125-1.5625zm-7.2812 2.7188c-0.53666 0.02654-1.0521 0.31209-1.1875 1.0938-0.15994 1.019 1.0403 1.183 1.7188 0.84375 0.67847-0.34052 0.67847-1.7257 0-1.9062-0.16962-0.03966-0.35236-0.0401-0.53125-0.03125zm-2.093 2.594c-0.301 0.031-0.597 0.16-0.812 0.375-0.86034 0.86034-5.4828 3.9676-8.0625 6.1875-2.5797 2.2418-7.0549 4.6174-8.5938 6.1562-1.5388 1.5414 0.54351 2.424 1.5625 1.4062 1.0422-1.0435 6.1519-4.4666 8.0312-6.0312 1.9013-1.5388 6.3707-4.8024 8.25-6.3438 1.4259-1.1541 0.52897-1.8435-0.375-1.75zm35.157 11.875c-1.1544 0.2038-1.7294 0.98429-1.3438 1.9375 0.38438 0.94934 1.7163 1.1494 2.2812 0.5625 0.58818-0.56754 0.21693-2.6819-0.9375-2.5zm-54.125 2.3125c-0.54208-0.0019-1.1371 0.3435-1.25 0.78125-0.15865 0.68105-0.004 2.2224 1.2188 2.0625 1.1996-0.178 1.3636-1.5446 0.84375-2.4062-0.18719-0.32214-0.48725-0.43634-0.8125-0.4375zm51.062 1.0312c-0.26668-0.01272-0.55195 0.06584-0.8125 0.28125-1.0177 0.83841-2.4056 1.6854-4.125 3.25-1.7207 1.5388-6.5192 5.3235-7.7188 6.3438-1.1983 1.0409-1.7189 0.35777-3.9375 2.9375-2.2418 2.5823 0.14206 2.9261 0.84375 2.4062 0.67976-0.52239 1.3584-1.0345 2.2188-1.375 0.85905-0.36245 1.7424-1.5524 3.2812-3.0938 1.5401-1.5401 2.7668-1.0814 4.125-2.9375 1.3802-1.8587 4.8049-5.2382 6.3438-6.1875 1.1531-0.71491 0.58129-1.5868-0.21875-1.625zm-48.531 1.313c-0.9911 0.13229-0.81132 1.0735 0.34375 1.7188 1.562 0.85905 6.3698 3.414 7.75 4.0938 1.3582 0.67976 2.731 0.88532 3.75 1.5625 1.0409 0.68105 4.2959 2.3851 5.1562 2.9062 0.86034 0.52239 6.1823 3.2577 7.5625 3.9375 1.3582 0.70298 2.0524-1.1883 1.5312-1.6875-0.519-0.52-1.387-0.696-2.406-1.217-1.04-0.497-4.804-2.232-6.343-3.094-1.54-0.862-4.812-2.57-6.531-3.25-1.72-0.678-7.039-4.135-9.438-4.813-0.6-0.175-1.045-0.2-1.375-0.156zm28.313 13.219c-0.49789 0.15607-1.5454 1.2041-0.84375 2.4062 0.67847 1.1996 1.7046 1.8539 2.4062 0.3125 0.67847-1.5388-1.0414-2.9006-1.5625-2.7188z" />
    </g>
    <rect
       id="rect3003"
       style="opacity:.15;fill:#fff"
       transform="translate(98 3.8281e-7)"
       clip-path="url(#clipPath3009)"
       rx="25"
       ry="25"
       height="92"
       width="92"
       y="958.36"
       x="-96" />
  </g>
</svg>
