<svg height="96" width="96" xmlns="http://www.w3.org/2000/svg" xmlns:sodipodi="http://sodipodi.sourceforge.net/DTD/sodipodi-0.dtd" xmlns:inkscape="http://www.inkscape.org/namespaces/inkscape">
 <defs>
  <clipPath clipPathUnits="userSpaceOnUse" id="clipPath3009">
   <path d="m -2,956.36218 -96,0 0,33.5624 96,25.68742 0,-59.24982 z" inkscape:connector-curvature="0"/>
  </clipPath>
  <linearGradient x2="0" y1="90" y2="5.988" gradientUnits="userSpaceOnUse" id="linearGradient3117" inkscape:collect="always" gradientTransform="matrix(1.14286 0 0 1.14286 -6.857 949.51)">
   <stop stop-color="#2f2f2f" stop-opacity="1"/>
   <stop stop-color="#4f4f4f" stop-opacity="1" offset="1"/>
  </linearGradient>
  <clipPath clipPathUnits="userSpaceOnUse" id="clipPath3018">
   <rect x="2" rx="25" y="958.36" height="92" width="92"/>
  </clipPath>
  <linearGradient x2="0" y1="36.588" y2="-36.78" gradientUnits="userSpaceOnUse" id="linearGradient2434" gradientTransform="matrix(0.61684 0 0 0.38274 274.81 52.749)">
   <stop stop-color="#b9b9b9" stop-opacity="1"/>
   <stop stop-color="#ffffff" stop-opacity="1" offset="1"/>
  </linearGradient>
  <filter color-interpolation-filters="sRGB" id="filter4134">
   <feGaussianBlur stdDeviation="0.07137"/>
  </filter>
  <linearGradient x2="0" y1="0.232" y2="10.738" gradientUnits="userSpaceOnUse" id="linearGradient2432">
   <stop stop-color="#ffffff" stop-opacity="1"/>
   <stop stop-color="#fafafa" stop-opacity="1" offset="0.23"/>
   <stop stop-color="#dfdfdf" stop-opacity="1" offset="0.67"/>
   <stop stop-color="#d2d2d2" stop-opacity="1" offset="1"/>
  </linearGradient>
 </defs>
 <g inkscape:label="Layer 1" inkscape:groupmode="layer" transform="matrix(1 0 0 1 0 -956.36)">
  <rect rx="6.857" y="956.36" clip-path="url(#clipPath3018)" fill="url(#linearGradient3117)" fill-opacity="1" fill-rule="nonzero" stroke="none" height="96" width="96"/>
  <path stroke-opacity="1" d="M 2.71875,0.34375 C 2.688418,0.34450061 2.655957,0.353653 2.625,0.375 2.594043,0.3963469 2.568646,0.435437 2.5625,0.46875 2.550207,0.535376 2.56522,0.5672638 2.59375,0.625 c 0.1314626,0.23687467 0.2614206,0.4216777 0.3125,0.5625 0.08775,0.1952706 0.086505,0.376743 0.0625,0.5 L 2.8125,2.4375 C 2.0236174,2.6201857 1.2621836,2.8048245 0.5,3.0625 0.35165124,3.1099492 0.23863413,3.1577155 0.125,3.21875 0.1146528,3.21705 0.1040972,3.21705 0.09375,3.21875 0.05381847,3.2425338 0.05195078,3.277549 0.03125,3.3125 0.02089961,3.3299755 0.00286584,3.3503389 0,3.375 -0.00286584,3.399661 0.00882604,3.439925 0.03125,3.46875 0.09780837,3.560459 0.18728388,3.5983637 0.3125,3.65625 0.43771612,3.714136 0.58154157,3.7738331 0.6875,3.8125 1.2175812,4.0059491 1.8992405,4.1623385 2.4375,4.21875 2.2925598,4.8726437 2.1525159,5.5190379 1.9375,6.15625 1.8851541,6.3113822 1.8184218,6.4729655 1.75,6.625 1.553482,7.0616761 1.3042288,7.4603266 1.0625,7.84375 0.80716262,8.2017666 0.59199664,8.5507627 0.3125,8.875 0.2603615,8.9302096 0.17620569,8.9774969 0.125,9.03125 0.09939715,9.0581266 0.0811414,9.1011639 0.0625,9.125 0.0531793,9.136918 0.03922569,9.141779 0.03125,9.15625 c -0.0079757,0.014471 -0.0030483,0.02206 0,0.0625 -0.0017011,0.010347 -0.0017011,0.020903 0,0.03125 0.0078538,0.012698 0.01855202,0.023396 0.03125,0.03125 0.0078538,0.012698 0.01855202,0.023396 0.03125,0.03125 0.01034722,0.0017 0.02090278,0.0017 0.03125,0 C 0.1808274,9.321 0.22703847,9.29814 0.28125,9.28125 0.3354615,9.26436 0.372756,9.249129 0.4375,9.21875 0.566988,9.1579928 0.73401682,9.0891814 0.875,9 1.0775389,8.8718796 1.2269642,8.7416005 1.34375,8.65625 1.5495591,8.5058386 2.0130479,8.074397 2.25,7.78125 2.5222486,7.4714555 2.8121153,7.1390774 3.03125,6.71875 3.03545,6.71069 3.02708,6.69563 3.03125,6.6875 3.046196,6.661725 3.1327665,6.4960908 3.15625,6.4375 3.203217,6.3203184 3.2346334,6.2040418 3.25,6.15625 L 3.9375,4.0625 6.34375,3.5 C 6.2840591,4.0049041 6.217099,4.4939943 6.15625,5 6.109879,5.4171322 6.078209,5.585101 6.03125,6.03125 c -0.0014,0.01333 0.00144,0.017393 0,0.03125 C 6.004599,6.2000007 5.9270819,6.5862654 5.90625,6.6875 5.7465265,7.4636992 5.5749329,8.1675068 5.21875,8.78125 5.1335334,8.9009667 5.0349489,9.026863 4.9375,9.125 4.838944,9.0771878 4.700674,9.0105798 4.5,9 4.49653,8.9995665 4.478387,9.0003702 4.46875,9 4.458403,8.9983 4.447847,8.9983 4.4375,9 4.4371306,9.0001406 4.406467,9.031033 4.40625,9.03125 4.393552,9.0391 4.382854,9.049802 4.375,9.0625 4.361744,9.133468 4.385617,9.1883384 4.40625,9.25 c 0.020633,0.061662 0.037451,0.130797 0.0625,0.1875 0.1806805,0.4089828 0.3926938,0.761463 0.59375,1.125 0.00785,0.0127 0.018552,0.0234 0.03125,0.03125 0.00785,0.0127 0.018552,0.0234 0.03125,0.03125 0.010347,0.0017 0.020903,0.0017 0.03125,0 0.010347,0.0017 0.020903,0.0017 0.03125,0 C 5.200198,10.6171 5.210896,10.60645 5.21875,10.59375 5.5189496,10.309209 5.8714654,9.8510932 6.125,9.46875 6.6236637,8.7207907 7.0452816,7.8846287 7.34375,6.9375 7.3883474,6.7901664 7.4246901,6.6410374 7.46875,6.46875 L 8.40625,2.875 C 8.4458883,2.7161831 8.4917163,2.5396654 8.5,2.40625 8.5017,2.395903 8.5017,2.385347 8.5,2.375 8.4806041,2.3287353 8.4381745,2.3045885 8.40625,2.28125 8.3743255,2.2579115 8.3528501,2.2388916 8.3125,2.21875 8.2317998,2.1784669 8.1248958,2.1291882 8.03125,2.09375 7.5815732,1.9422864 7.0928287,1.8060249 6.5625,1.6875 6.5057755,1.6628339 6.4671119,1.6529551 6.40625,1.65625 6.3453881,1.6595449 6.2553445,1.6748233 6.1875,1.6875 6.0518109,1.7128533 5.9120761,1.7601366 5.8125,1.78125 L 4.5625,2.0625 C 4.6156969,1.8963176 4.7020625,1.6513847 4.625,1.34375 4.5183085,0.99456299 4.2430719,0.7908664 3.9375,0.6875 3.6772283,0.59945684 3.4230752,0.52110038 3.15625,0.4375 3.1130397,0.42396246 2.9166652,0.3545568 2.71875,0.34375 z" stroke-width="0.225" fill="url(#linearGradient2432)" fill-opacity="1" stroke="#383838" stroke-dasharray="none" stroke-linecap="round" stroke-linejoin="miter" stroke-miterlimit="2" inkscape:connector-curvature="0" transform="matrix(6.4972 0 0 6.61836 20.384 968.06)"/>
  <path d="m 154.58256,43.911604 -3.89328,0.07805 c 0.7189,0.979296 2.05121,3.939536 1.87322,7.854098 -0.17799,3.914562 -2.0246,10.734168 -3.3646,13.589494 l 3.84638,-0.923685 c 0.86694,-1.701545 2.88651,-7.777354 3.15625,-12.371534 0.19709,-3.356923 -0.96155,-7.746776 -1.61797,-8.226421 z" fill="url(#linearGradient2434)" fill-opacity="1" fill-rule="evenodd" stroke="none" filter="url(#filter4134)" inkscape:connector-curvature="0" transform="matrix(0.30156 0 0 0.30156 2.789 963.23)"/>
  <path d="m 62.576944,989.25533 -16.869471,4.06878 -0.325396,1.07105 17.083661,-4.0782 0.11119,-1.06163 z" fill="#b9b9b9" fill-opacity="1" fill-rule="evenodd" stroke="none" inkscape:connector-curvature="0"/>
  <path d="m 73.704008,984.68837 c -3.764984,15.69473 -5.867756,25.13243 -8.53926,32.58333 -2.671503,7.4509 -7.669216,14.5558 -11.156627,18.6809 l -0.08688,1.6498 c 5.833179,-6.7752 9.52465,-12.4284 12.232975,-19.982 2.70833,-7.5537 5.008793,-17.78283 8.772219,-33.47112 l -1.222437,0.53909 z" fill="#b9b9b9" fill-opacity="1" fill-rule="evenodd" stroke="none" inkscape:connector-curvature="0"/>
  <path d="m 23.02634,990.55765 -1.884258,0.002 c 0.534326,1.17962 7.718804,3.98622 15.96775,4.76944 l 0.202112,-0.93379 c -6.247262,-0.79131 -10.700869,-2.19546 -14.285592,-3.83777 z" fill="#b9b9b9" fill-opacity="1" fill-rule="evenodd" stroke="none" inkscape:connector-curvature="0"/>
  <path d="m 44.544382,993.62343 c -3.921244,12.52307 -4.819661,21.17797 -18.515224,31.79507 l -4.669911,3.4806 c 5.794824,-1.2232 14.542718,-10.1661 18.094231,-16.7067 1.53641,-2.8295 5.55331,-15.92362 6.237932,-18.85854 l -1.147028,0.28956 z" fill="#b9b9b9" fill-opacity="1" fill-rule="evenodd" stroke="none" inkscape:connector-curvature="0"/>
  <rect x="-96" rx="25" y="958.36" clip-path="url(#clipPath3009)" fill="#ffffff" fill-opacity="1" height="92" opacity="0.15" width="92" transform="matrix(1 0 0 1 98 0)"/>
 </g>
</svg>
