<svg height="96" width="96" xmlns="http://www.w3.org/2000/svg" xmlns:xlink="http://www.w3.org/1999/xlink" xmlns:sodipodi="http://sodipodi.sourceforge.net/DTD/sodipodi-0.dtd" xmlns:inkscape="http://www.inkscape.org/namespaces/inkscape">
 <defs>
  <clipPath clipPathUnits="userSpaceOnUse" id="clipPath3009">
   <path d="m-2 956.36h-96v33.562l96 25.687v-59.25z"/>
  </clipPath>
  <linearGradient x2="0" y1="90" y2="5.988" gradientUnits="userSpaceOnUse" id="linearGradient3050" gradientTransform="matrix(1.1429 0 0 1.1429 -6.857 949.51)">
   <stop stop-color="#dcdbd3"/>
   <stop stop-color="#c4c2ba" offset="1"/>
  </linearGradient>
  <clipPath clipPathUnits="userSpaceOnUse" id="clipPath3018">
   <rect x="2" rx="25" y="958.36" height="92" width="92"/>
  </clipPath>
  <path d="m44.749 79.002-27.165-29.14-35.652 17.777 19.32-34.84-27.925-28.413 39.105 7.608l18.394-35.338 4.8485 39.542 39.292 6.5734-36.109 16.83z" fill="none" id="SVGCleanerId_0" stroke-linecap="round" stroke-linejoin="round"/>
 </defs>
 <g transform="matrix(1 0 0 1 0 -956.36)">
  <rect rx="6.857" y="956.36" clip-path="url(#clipPath3018)" fill="url(#linearGradient3050)" height="96" width="96"/>
  <use stroke-width="13.584" xlink:href="#SVGCleanerId_0" stroke="#000" opacity="0.2" transform="matrix(0.66779 0 0 0.66779 31.874 985.78)"/>
  <use stroke-width="10.188" xlink:href="#SVGCleanerId_0" stroke="#fbe10e" transform="matrix(0.6678 0 0 0.6678 31.875 985.78)"/>
  <rect x="-96" rx="25" y="958.36" clip-path="url(#clipPath3009)" fill="#fff" height="92" opacity="0.15" width="92" transform="matrix(1 0 0 1 98 0)"/>
 </g>
</svg>
