<svg height="96" width="96" xmlns="http://www.w3.org/2000/svg" xmlns:sodipodi="http://sodipodi.sourceforge.net/DTD/sodipodi-0.dtd" xmlns:inkscape="http://www.inkscape.org/namespaces/inkscape">
 <defs>
  <linearGradient x2="0" y1="90" y2="5.988" gradientUnits="userSpaceOnUse" id="linearGradient3617">
   <stop stop-color="#222"/>
   <stop stop-color="#333" offset="1"/>
  </linearGradient>
  <clipPath id="clipPath3805">
   <rect x="7.829" rx="6" ry="4.42" y="28.32" height="41.669" width="80.31"/>
  </clipPath>
  <filter color-interpolation-filters="sRGB" id="filter3795">
   <feGaussianBlur stdDeviation="1.215"/>
  </filter>
  <linearGradient x2="0" y1="6" y2="90" gradientUnits="userSpaceOnUse" id="linearGradient3762">
   <stop stop-color="#dbff9a"/>
   <stop stop-color="#dfffa7" offset="0.176"/>
   <stop stop-color="#c1ff53" offset="0.293"/>
   <stop stop-color="#82c50c" offset="0.493"/>
   <stop stop-color="#609501" offset="0.755"/>
   <stop stop-color="#7cbf06" offset="1"/>
  </linearGradient>
  <linearGradient x1="-41" x2="-35" gradientUnits="userSpaceOnUse" id="linearGradient3829" gradientTransform="matrix(0.5 0 0 1 61.5 0)">
   <stop stop-color="#fff"/>
   <stop stop-color="#fff" stop-opacity="0" offset="1"/>
  </linearGradient>
  <linearGradient x1="-41" x2="-35" gradientUnits="userSpaceOnUse" id="linearGradient3825" gradientTransform="matrix(0.66667 0 0 1 -13.667 0)">
   <stop/>
   <stop stop-opacity="0" offset="1"/>
  </linearGradient>
  <clipPath clipPathUnits="userSpaceOnUse" id="clipPath3838">
   <rect x="6" rx="22.826" y="6" height="84" width="84"/>
  </clipPath>
  <clipPath clipPathUnits="userSpaceOnUse" id="clipPath3009">
   <path d="m-2 956.36h-96v33.562l96 25.687v-59.25z"/>
  </clipPath>
 </defs>
 <g transform="matrix(1 0 0 1 0 -956.36)">
  <g clip-path="url(#clipPath3838)" transform="matrix(1.0952 0 0 1.0952 -4.571 951.79)">
   <rect x="6" rx="6" y="6" fill="url(#linearGradient3617)" height="84" width="84"/>
   <path d="m41.094 7v23.156c0.45785-0.03541 0.91464-0.07808 1.375-0.09375 17.731-0.597 29.281 14.563 29.281 14.563s-13.269 16.125-27.094 16.125c-1.267 0-2.4484-0.11538-3.5625-0.3125v4.3125c0.95268 0.12096 1.938 0.1875 2.9688 0.1875 12.865 0 22.179-6.5678 31.188-14.344 1.4936 1.1962 7.618 4.1008 8.875 5.375-8.5653 7.1711-28.527 12.969-39.844 12.969-1.0909 0-2.1577-0.08816-3.1875-0.1875v22.25h42.906c3.324 0 6-2.676 6-6v-72c0-3.324-2.676-6-6-6h-42.906zm0 61.75v-4c-15.744-1.9809-21.125-19.344-21.125-19.344s7.0439-10.393 21.125-11.469v-3.7812c-15.597 1.253-29.094 14.469-29.094 14.469s7.6407 22.1 29.094 24.125zm0-34.812v4.6562c0.83391-0.08932 1.7053-0.15625 2.5938-0.15625 8.1676 0 13 6.3438 13 6.3438l-6.625 5.625c-2.985-4.976-4.005-7.182-8.969-7.782v14.125c1.125 0.37825 2.387 0.625 3.7812 0.625 9.6878 0 18.719-12.562 18.719-12.562s-8.3742-11.338-21.125-10.938c-0.46631 0.01473-0.92185 0.03085-1.375 0.0625zm0 22.812c-6.7082-2.2538-8.875-10.062-8.875-10.062s3.8951-4.6601 8.875-4.0625v-4.0312c-9.4882 1.026-15.188 7.3438-15.188 7.3438s3.2891 12.379 15.188 14.5v-3.6875z" stroke-width="0" clip-path="url(#clipPath3805)" filter="url(#filter3795)" stroke-miterlimit="10"/>
   <path d="m41.094 6v23.156c0.45785-0.03541 0.91464-0.07808 1.375-0.09375 17.731-0.597 29.281 14.563 29.281 14.563s-13.269 16.125-27.094 16.125c-1.267 0-2.4484-0.11538-3.5625-0.3125v4.3125c0.95268 0.12096 1.938 0.1875 2.9688 0.1875 12.865 0 22.179-6.5678 31.188-14.344 1.4936 1.1962 7.618 4.1008 8.875 5.375-8.5653 7.1711-28.527 12.969-39.844 12.969-1.0909 0-2.1577-0.08816-3.1875-0.1875v22.25h42.906c3.324 0 6-2.676 6-6v-72c0-3.324-2.676-6-6-6h-42.906zm0 61.75v-4c-15.744-1.9809-21.125-19.344-21.125-19.344s7.0439-10.393 21.125-11.469v-3.7812c-15.597 1.253-29.094 14.469-29.094 14.469s7.6407 22.1 29.094 24.125zm0-34.812v4.6562c0.83391-0.08932 1.7053-0.15625 2.5938-0.15625 8.1676 0 13 6.3438 13 6.3438l-6.625 5.625c-2.985-4.976-4.005-7.182-8.969-7.782v14.125c1.125 0.37825 2.387 0.625 3.7812 0.625 9.6878 0 18.719-12.562 18.719-12.562s-8.3742-11.338-21.125-10.938c-0.46631 0.01473-0.92185 0.03085-1.375 0.0625zm0 22.812c-6.7082-2.2538-8.875-10.062-8.875-10.062s3.8951-4.6601 8.875-4.0625v-4.0312c-9.4882 1.026-15.188 7.3438-15.188 7.3438s3.2891 12.379 15.188 14.5v-3.6875z" stroke-width="0" fill="url(#linearGradient3762)" stroke-miterlimit="10"/>
   <path d="m41.094 29.156c-15.597 1.253-29.094 14.469-29.094 14.469s0.13377 0.37718 0.28125 0.75c1.3919-1.3215 14.088-13.036 28.812-14.219v-1zm1.375 3.7188c-0.46631 0.01473-0.92185 0.03085-1.375 0.0625v1c0.45315-0.03165 0.90869-0.04777 1.375-0.0625 11.157-0.35044 18.973 8.2728 20.75 10.438 0.23311-0.30279 0.375-0.5 0.375-0.5s-8.3742-11.338-21.125-10.938zm-1.375 4.7188c-9.4882 1.026-15.188 7.3438-15.188 7.3438s0.06756 0.30706 0.21875 0.75c1.0983-1.1147 6.5275-6.181 14.969-7.0938v-1zm0 4.0312v1c4.964 0.59981 5.9844 2.8063 8.9688 7.7812l6.625-5.625s-0.19894-0.26001-0.5-0.59375l-6.125 5.2188c-2.985-4.975-4.005-7.181-8.969-7.781zm30.25 2.4688c-1.987 2.303-14.043 15.656-26.688 15.656-1.267 0-2.4484-0.11538-3.5625-0.3125v1c1.1141 0.19712 2.2955 0.3125 3.5625 0.3125 13.824 0 27.094-16.125 27.094-16.125s-0.18518-0.26422-0.40625-0.53125zm-51.156 1c-0.10314 0.13984-0.21875 0.3125-0.21875 0.3125s5.3814 17.363 21.125 19.344v-1c-13.948-1.755-19.761-15.525-20.906-18.656zm12.281 1.3438c-0.05952 0.06661-0.25 0.25-0.25 0.25s2.1668 7.8087 8.875 10.062v-1c-5.4931-1.8456-7.9184-7.3551-8.625-9.3125zm51.031 9c-8.8618 6.9489-28.154 12.5-39.219 12.5-1.0909 0-2.1577-0.08816-3.1875-0.1875v1c1.0298 0.09934 2.0966 0.1875 3.1875 0.1875 11.317 0 31.278-5.7977 39.844-12.969-0.146-0.146-0.366-0.345-0.626-0.53z" stroke-width="0" fill="#fff" opacity="0.6" stroke-miterlimit="10"/>
   <path d="m41.094 6v23.156c0.45785-0.03541 0.91464-0.07808 1.375-0.09375 0.5123-0.01727 1.0294-0.0083 1.5312 0v-23.062h-2.906zm0 23.156c-0.03076 0.0025-0.063-0.0026-0.09375 0v3.7812c0.03108-0.0025 0.0626 0.0024 0.09375 0v-3.7812zm0 3.7812v4.6562c0.83391-0.08932 1.7053-0.15625 2.5938-0.15625 0.10616 0 0.20746-0.0021 0.3125 0v-4.5312c-0.50249-0.02084-1.0141-0.04749-1.5312-0.03125-0.46631 0.01473-0.92185 0.03085-1.375 0.0625zm0 4.6562c-0.03168 0.0034-0.06216-0.0035-0.09375 0v4.0312c0.03196 0.0034 0.06171-0.0038 0.09375 0v-4.0312zm0 4.0312v14.125c0.88636 0.298 1.8522 0.51535 2.9062 0.59375v-14c-0.808-0.333-1.738-0.577-2.906-0.718zm0 14.125c-0.032-0.01-0.063-0.019-0.094-0.03v3.6875c0.03256 0.006 0.06106 0.02542 0.09375 0.03125v-3.6875zm0 3.6875v4.3125c0.93287 0.11845 1.8988 0.1848 2.9062 0.1875v-4.2188c-1.017-0.031-1.99-0.117-2.906-0.279zm0 4.3125c-0.032-0.002-0.063 0.006-0.094 0.002v4c0.03136 0.0031 0.06233-0.003 0.09375 0v-4zm0 4v22.25l2.906 0.002v-22.062c-0.993-0.014-1.965-0.097-2.906-0.188z" fill="url(#linearGradient3829)" opacity="0.6"/>
   <rect x="-41" y="6" fill="url(#linearGradient3825)" height="84" opacity="0.6" width="4" transform="matrix(-1 0 0 1 0 0)"/>
  </g>
  <rect x="-96" rx="25" y="958.36" clip-path="url(#clipPath3009)" fill="#fff" height="92" opacity="0.15" width="92" transform="matrix(1 0 0 1 98 0)"/>
 </g>
</svg>
