<svg height="96" width="96" xmlns="http://www.w3.org/2000/svg" xmlns:sodipodi="http://sodipodi.sourceforge.net/DTD/sodipodi-0.dtd" xmlns:inkscape="http://www.inkscape.org/namespaces/inkscape">
 <defs>
  <linearGradient x1="53.06" x2="50.45" y1="1042.44" y2="965.46" gradientUnits="userSpaceOnUse" id="linearGradient5160" inkscape:collect="always">
   <stop stop-color="#bcb5ac"/>
   <stop stop-color="#e9e7e4" offset="1"/>
  </linearGradient>
 </defs>
 <g inkscape:label="Layer 1" inkscape:groupmode="layer" transform="matrix(1 0 0 1 0 -956.36)">
  <rect x="8.751" rx="10.769" y="964.14" fill="url(#linearGradient5160)" fill-opacity="1" stroke="none" height="80" width="80"/>
  <path d="m 8.75125,1031.3354 0,2.0133 c 0,5.966 4.793063,10.7905 10.758946,10.7905 l 58.450649,0 c 5.965883,0 10.790405,-4.8245 10.790405,-10.7905 l 0,-2.0133 c 0,5.9659 -4.824522,10.7904 -10.790405,10.7904 l -58.450649,0 c -5.965883,0 -10.758946,-4.8245 -10.758946,-10.7904 z" fill="#000000" fill-opacity="1" stroke="none" opacity="0.3" inkscape:connector-curvature="0"/>
  <path d="m 51.537331,964.13946 h 12.506917 c 0,0 -34.163896,39.65434 -16.166534,55.82194 17.996342,16.1665 40.873532,-12.507 40.873532,-12.507 v 11.5915 c 0,0 -20.412301,16.4133 -43.010178,4.8806 -23.152424,-11.8158 -9.196952,-43.12946 5.796263,-59.78734 z" fill="#328dc2" inkscape:connector-curvature="0"/>
  <path d="m 77.232897,1009.2605 -13.031161,3.7157 0.376949,1.4 13.132841,-3.5764 z" fill="#4d4d4d" inkscape:connector-curvature="0"/>
  <path d="m 12.10385,1026.977 12.412159,-3.2309 0.269248,1.3462 -12.905398,3.386 z" fill="#4d4d4d" inkscape:connector-curvature="0"/>
  <path d="m 65.120428,1014.5114 c -36.43195,11.9813 -37.203474,13.503 -48.494471,24.934 -1.26726,1.283 -1.826503,2.5185 -3.712498,0.971 -1.174499,-0.9637 -0.145448,-1.3332 1.880911,-3.5735 12.443376,-13.7581 27.42163,-17.4159 49.637039,-24.1687 0.625656,-0.1902 1.408721,1.6001 0.68868,1.8369 z" fill="#4d4d4d" inkscape:connector-curvature="0"/>
  <path d="m 24.840673,1025.4001 c 37.495136,-8.0585 38.929366,-7.1348 54.448132,-2.9702 1.74177,0.4674 2.848393,1.2513 3.69466,-1.0369 0.52699,-1.4249 -0.547737,-1.2241 -3.428061,-2.1343 -17.68795,-5.5898 -32.463734,-1.1829 -55.048404,4.2082 -0.636047,0.1519 -0.407774,2.0926 0.333298,1.9333 z" fill="#4d4d4d" inkscape:connector-curvature="0"/>
  <path d="m 68.821956,1005.8926 c -2.199867,0.055 -4.674004,0.3811 -7.299948,1.0758 -7.545586,1.9962 -10.608667,4.6736 -11.967975,8.0299 -5.083847,-0.6774 -7.145464,0.4361 -10.181431,2.9199 -3.534914,-1.7607 -5.824688,-3.7104 -16.616737,-0.6531 -7.585366,2.1487 -11.423003,5.9351 -10.988631,9.6819 l -3.0159866,0.5379 0.5570933,2.0171 2.9583683,-0.5379 c 1.53261,4.6136 7.635314,8.5521 19.498576,3.8421 10.557827,-4.1919 10.110968,-10.3027 8.260383,-14.0426 0,0 3.902034,-3.7512 9.297523,-2.5742 1.189484,6.9517 5.559338,10.6613 18.173163,7.0885 8.43868,-2.3898 11.354324,-6.1983 10.853949,-12.2373 l 2.785511,-0.6724 -0.422625,-2.1323 -2.747069,0.6147 c -0.797559,-1.8379 -4.304386,-3.0794 -9.144111,-2.9583 z m 0.941347,1.0758 c 3.693143,0.046 7.03647,0.9066 7.434362,3.4194 0.67152,4.2409 0.199392,9.128 -10.066371,12.083 -8.463743,2.4365 -14.164809,1.7425 -16.232313,-3.9381 -1.879663,-5.1641 3.138003,-8.5425 10.853949,-10.6042 2.055195,-0.5491 5.138255,-0.9962 8.010641,-0.9605 z m -38.362988,9.6052 c 5.667707,0.023 8.398097,2.7217 8.721512,4.6105 0.540941,3.1602 0.137822,7.7071 -10.64256,11.5265 -9.169086,3.2481 -14.505529,0.1502 -16.06017,-3.6692 -1.683437,-4.1375 0.669584,-8.5194 11.315079,-11.4685 2.566808,-0.7111 4.776754,-1.0067 6.66596,-0.9989 z" fill="#4d4d4d" inkscape:connector-curvature="0"/>
 </g>
</svg>
