<?xml version="1.0" encoding="UTF-8" standalone="no"?>
<!-- Created with Inkscape (http://www.inkscape.org/) -->

<svg
   xmlns:dc="http://purl.org/dc/elements/1.1/"
   xmlns:cc="http://creativecommons.org/ns#"
   xmlns:rdf="http://www.w3.org/1999/02/22-rdf-syntax-ns#"
   xmlns:svg="http://www.w3.org/2000/svg"
   xmlns="http://www.w3.org/2000/svg"
   xmlns:xlink="http://www.w3.org/1999/xlink"
   xmlns:sodipodi="http://sodipodi.sourceforge.net/DTD/sodipodi-0.dtd"
   xmlns:inkscape="http://www.inkscape.org/namespaces/inkscape"
   id="svg11037"
   height="96"
   width="96"
   version="1.1"
   inkscape:version="0.48.5 r10040"
   sodipodi:docname="onboard.svg">
  <sodipodi:namedview
     pagecolor="#ffffff"
     bordercolor="#666666"
     borderopacity="1"
     objecttolerance="10"
     gridtolerance="10"
     guidetolerance="10"
     inkscape:pageopacity="0"
     inkscape:pageshadow="2"
     inkscape:window-width="640"
     inkscape:window-height="480"
     id="namedview46785" />
  <defs
     id="defs11039">
    <linearGradient
       id="linearGradient8096"
       y2="5.9877"
       xlink:href="#linearGradient3977"
       gradientUnits="userSpaceOnUse"
       x2="48"
       gradientTransform="matrix(.5 0 0 .5 3 45)"
       y1="90"
       x1="48" />
    <linearGradient
       id="linearGradient3977">
      <stop
         id="stop3979"
         style="stop-color:#e1e1e1"
         offset="0" />
      <stop
         id="stop3981"
         style="stop-color:#f5f5f5"
         offset="1" />
    </linearGradient>
    <linearGradient
       id="linearGradient3975"
       y2="5.9877"
       gradientUnits="userSpaceOnUse"
       x2="48"
       gradientTransform="matrix(.5 0 0 .5 45 45)"
       y1="90"
       x1="48">
      <stop
         id="stop4943"
         style="stop-color:#2d88c8"
         offset="0" />
      <stop
         id="stop4945"
         style="stop-color:#539fd5"
         offset="1" />
    </linearGradient>
    <linearGradient
       id="linearGradient3987"
       y2="5.9877"
       xlink:href="#linearGradient3977"
       gradientUnits="userSpaceOnUse"
       x2="48"
       gradientTransform="matrix(.5 0 0 .5 45 3)"
       y1="90"
       x1="48" />
    <linearGradient
       id="linearGradient3986"
       y2="27"
       gradientUnits="userSpaceOnUse"
       x2="48"
       gradientTransform="translate(-54 -.0000038147)"
       y1="27"
       x1="6">
      <stop
         id="stop3982"
         style="stop-color:#fac217"
         offset="0" />
      <stop
         id="stop3984"
         style="stop-color:#f8de72"
         offset="1" />
    </linearGradient>
    <linearGradient
       id="linearGradient4003"
       y2="88"
       xlink:href="#linearGradient3997"
       gradientUnits="userSpaceOnUse"
       x2="24"
       y1="48"
       x1="24" />
    <linearGradient
       id="linearGradient3997">
      <stop
         id="stop3999"
         style="stop-color:#fff"
         offset="0" />
      <stop
         id="stop4001"
         style="stop-color:#fff;stop-opacity:0"
         offset="1" />
    </linearGradient>
    <linearGradient
       id="linearGradient4007"
       y2="88"
       xlink:href="#linearGradient3997"
       gradientUnits="userSpaceOnUse"
       x2="24"
       gradientTransform="translate(42,-42)"
       y1="48"
       x1="24" />
    <linearGradient
       id="linearGradient4011"
       y2="88"
       xlink:href="#linearGradient3997"
       gradientUnits="userSpaceOnUse"
       x2="24"
       gradientTransform="translate(0,-42)"
       y1="48"
       x1="24" />
    <linearGradient
       id="linearGradient4015"
       y2="88"
       xlink:href="#linearGradient3997"
       gradientUnits="userSpaceOnUse"
       x2="24"
       gradientTransform="translate(42)"
       y1="48"
       x1="24" />
    <radialGradient
       id="radialGradient4028"
       xlink:href="#linearGradient4022"
       gradientUnits="userSpaceOnUse"
       cy="69"
       cx="48"
       gradientTransform="matrix(1.1429 0 0 .95238 -6.8571 -17.714)"
       r="42" />
    <linearGradient
       id="linearGradient4022">
      <stop
         id="stop4024"
         offset="0" />
      <stop
         id="stop4026"
         style="stop-opacity:0"
         offset="1" />
    </linearGradient>
    <radialGradient
       id="radialGradient4032"
       xlink:href="#linearGradient4022"
       gradientUnits="userSpaceOnUse"
       cy="69"
       cx="48"
       gradientTransform="matrix(1.1429 0 0 .95238 -6.8571 24.286)"
       r="42" />
    <clipPath
       id="clipPath3122"
       clipPathUnits="userSpaceOnUse">
      <rect
         id="rect3124"
         style="fill:url(#linearGradient3126)"
         rx="22.826"
         ry="22.826"
         height="84"
         width="84"
         y="6"
         x="6" />
    </clipPath>
    <linearGradient
       id="linearGradient3126"
       y2="1046.1"
       gradientUnits="userSpaceOnUse"
       x2="48"
       gradientTransform="matrix(1.05 0 0 1.05 -2.4 -1006.6)"
       y1="962.62"
       x1="48">
      <stop
         id="stop3797"
         style="stop-color:#13a6fd"
         offset="0" />
      <stop
         id="stop3799"
         style="stop-color:#2975b6"
         offset="1" />
    </linearGradient>
    <clipPath
       id="clipPath3009"
       clipPathUnits="userSpaceOnUse">
      <path
         id="path3011"
         style="opacity:.15;fill:#fff"
         d="m-2 956.36h-96v33.562l96 25.687v-59.25z" />
    </clipPath>
  </defs>
  <metadata
     id="metadata11042">
    <rdf:RDF>
      <cc:Work
         rdf:about="">
        <dc:format>image/svg+xml</dc:format>
        <dc:type
           rdf:resource="http://purl.org/dc/dcmitype/StillImage" />
        <dc:title />
      </cc:Work>
    </rdf:RDF>
  </metadata>
  <g
     id="layer1"
     transform="translate(0 -956.36)">
    <g
       id="g3077"
       clip-path="url(#clipPath3122)"
       transform="matrix(1.0952 0 0 1.0952 -4.5714 951.79)">
      <g
         id="layer3">
        <rect
           id="rect8039"
           style="fill:url(#linearGradient8096)"
           rx="6"
           ry="6"
           height="42"
           width="42"
           y="48"
           x="6" />
        <path
           id="rect8166"
           d="m12 48c-3.324 0-6 2.676-6 6v30c0 3.324 2.676 6 6 6h30c3.324 0 6-2.676 6-6v-30c0-3.324-2.676-6-6-6h-30zm0 1h30c2.7789 0 5 2.2211 5 5v30c0 2.7789-2.2211 5-5 5h-30c-2.7789 0.000003-5-2.2211-5-5v-30c0-2.7789 2.2211-5 5-5z"
           style="opacity:.3;fill:#fff" />
        <rect
           id="rect3971"
           style="fill:url(#linearGradient3975)"
           rx="6"
           ry="6"
           height="42"
           width="42"
           y="48"
           x="48" />
        <path
           id="path3973"
           d="m54 48c-3.324 0-6 2.676-6 6v30c0 3.324 2.676 6 6 6h30c3.324 0 6-2.676 6-6v-30c0-3.324-2.676-6-6-6h-30zm0 1h30c2.7789 0 5 2.2211 5 5v30c0 2.7789-2.2211 5-5 5h-30c-2.7789 0.000003-5-2.2211-5-5v-30c0-2.7789 2.2211-5 5-5z"
           style="opacity:.2;fill:#fff" />
        <rect
           id="rect3983"
           style="fill:url(#linearGradient3987)"
           rx="6"
           ry="6"
           height="42"
           width="42"
           y="6"
           x="48" />
        <path
           id="path3985"
           d="m54 6c-3.324 0-6 2.676-6 6v30c0 3.324 2.676 6 6 6h30c3.324 0 6-2.676 6-6v-30c0-3.324-2.676-6-6-6h-30zm0 1h30c2.7789 0 5 2.2211 5 5v30c0 2.7789-2.2211 5-5 5h-30c-2.7789 0.000003-5-2.2211-5-5v-30c0-2.7789 2.2211-5 5-5z"
           style="opacity:.3;fill:#fff" />
        <rect
           id="rect3989"
           style="fill:url(#linearGradient3986)"
           rx="6"
           ry="6"
           transform="rotate(-90)"
           width="42"
           y="6"
           x="-48"
           height="42" />
        <path
           id="path3991"
           d="m12 6c-3.324 0-6 2.676-6 6v30c0 3.324 2.676 6 6 6h30c3.324 0 6-2.676 6-6v-30c0-3.324-2.676-6-6-6h-30zm0 1h30c2.7789 0 5 2.2211 5 5v30c0 2.7789-2.2211 5-5 5h-30c-2.7789 0.000003-5-2.2211-5-5v-30c0-2.7789 2.2211-5 5-5z"
           style="opacity:.2;fill:#fff" />
        <path
           id="path3995"
           d="m12 48c-3.324 0-6 2.676-6 6v30c0 2.9849 2.1528 5.4349 5 5.9062-2.2868-0.463-4-2.474-4-4.906v-30c0-2.7789 2.2211-5 5-5h30c2.7789 0 5 2.2211 5 5v30c0 2.4316-1.7132 4.4431-4 4.9062 2.847-0.471 5-2.921 5-5.906v-30c0-3.324-2.676-6-6-6h-30z"
           style="opacity:.4;fill:url(#linearGradient4003)" />
        <path
           id="path4005"
           d="m54 6c-3.324 0-6 2.676-6 6v30c0 2.9849 2.1528 5.4349 5 5.9062-2.287-0.463-4-2.474-4-4.906v-30c0-2.7789 2.2211-5 5-5h30c2.7789 0 5 2.2211 5 5v30c0 2.4316-1.7132 4.4431-4 4.9062 2.847-0.471 5-2.921 5-5.906v-30c0-3.324-2.676-6-6-6h-30z"
           style="opacity:.4;fill:url(#linearGradient4007)" />
        <path
           id="path4009"
           d="m12 6c-3.324 0-6 2.676-6 6v30c0 2.9849 2.1528 5.4349 5 5.9062-2.2868-0.463-4-2.474-4-4.906v-30c0-2.779 2.2211-5 5-5h30c2.7789 0 5 2.2211 5 5v30c0 2.4316-1.7132 4.4431-4 4.9062 2.847-0.471 5-2.921 5-5.906v-30c0-3.324-2.676-6-6-6h-30z"
           style="opacity:.35;fill:url(#linearGradient4011)" />
        <path
           id="path4013"
           d="m54 48c-3.324 0-6 2.676-6 6v30c0 2.9849 2.1528 5.4349 5 5.9062-2.287-0.463-4-2.474-4-4.906v-30c0-2.7789 2.2211-5 5-5h30c2.7789 0 5 2.2211 5 5v30c0 2.4316-1.7132 4.4431-4 4.9062 2.847-0.471 5-2.921 5-5.906v-30c0-3.324-2.676-6-6-6h-30z"
           style="opacity:.2;fill:url(#linearGradient4015)" />
        <path
           id="path4011"
           d="m12 6c-3.324 0-6 2.676-6 6v30c0 3.324 2.676 6 6 6h30c3.324 0 6-2.676 6-6 0 3.324 2.676 6 6 6h30c3.324 0 6-2.676 6-6v-30c0-3.324-2.676-6-6-6h-30c-3.324 0-6 2.676-6 6 0-3.324-2.676-6-6-6h-30zm0 1h30c2.7861 0 5 2.2139 5 5v30c0 2.7861-2.2139 5-5 5h-30c-2.7861 0-5-2.214-5-5v-30c0-2.7861 2.2139-5 5-5zm42 0h30c2.7861 0 5 2.2139 5 5v30c0 2.7861-2.2139 5-5 5h-30c-2.7861 0-5-2.2139-5-5v-30c0-2.7861 2.2139-5 5-5z"
           style="opacity:.3;fill:url(#radialGradient4028)" />
        <path
           id="path4030"
           d="m12 48c-3.324 0-6 2.676-6 6v30c0 3.324 2.676 6 6 6h30c3.324 0 6-2.676 6-6 0 3.324 2.676 6 6 6h30c3.324 0 6-2.676 6-6v-30c0-3.324-2.676-6-6-6h-30c-3.324 0-6 2.676-6 6 0-3.324-2.676-6-6-6h-30zm0 1h30c2.7861 0 5 2.2139 5 5v30c0 2.7861-2.2139 5-5 5h-30c-2.7861 0-5-2.214-5-5v-30c0-2.7861 2.2139-5 5-5zm42 0h30c2.7861 0 5 2.2139 5 5v30c0 2.7861-2.2139 5-5 5h-30c-2.7861 0-5-2.2139-5-5v-30c0-2.7861 2.2139-5 5-5z"
           style="opacity:.3;fill:url(#radialGradient4032)" />
        <path
           id="path4054"
           d="m20.781 9.9688c-2.01 0-3.875 0.4732-5.406 1.5312a0.97741 0.97741 0 0 0 0 0.03125 0.97741 0.97741 0 0 0 -0.0625 0.03125 0.97741 0.97741 0 0 0 -0.15625 0.15625 0.97741 0.97741 0 0 0 -0.03125 0.0625c-1.2373 0.93073-2.278 2.0722-3.0312 3.4375-0.76666 1.3896-1.3561 2.8981-1.6875 4.5312a0.97741 0.97741 0 0 0 0 0.03125 0.97741 0.97741 0 0 0 0 0.15625c-0.27319 1.4934-0.4375 2.9658-0.4375 4.375 0 1.3689 0.19022 2.7621 0.5 4.1875-0.000011 0.000723-0.000011 0.03053 0 0.03125a0.97741 0.97741 0 0 0 0.032 0.218c0.34968 1.4424 0.92072 2.7605 1.625 4 0.0047 0.0083-0.0047 0.02294 0 0.03125a0.97741 0.97741 0 0 0 0.125 0.3125 0.97741 0.97741 0 0 0 0 0.03125c0.85574 1.3843 1.979 2.563 3.3125 3.4688a0.97741 0.97741 0 0 0 0.0625 0 0.97741 0.97741 0 0 0 0.03125 0.03125 0.97741 0.97741 0 0 0 0.28125 0.125c0.0082 0.0048 0.02307-0.0048 0.03125 0 1.411 0.82758 3.0264 1.2812 4.7812 1.2812 1.9439 0 3.7667-0.45905 5.2812-1.4688a0.97741 0.97741 0 0 0 0.03125 0c1.365-0.935 2.479-2.146 3.313-3.562 0.7941-1.3717 1.3942-2.8794 1.75-4.4688 0.34115-1.5239 0.49998-3.0097 0.5-4.4688-0.000021-0.96573-0.09635-1.9544-0.25-2.9375 0.03354 0.25148 0.03691 0.24176 0-0.03125-0.13894-1.0272-0.36661-2.0558-0.6875-3.0312-0.0053-0.02078 0.007-0.0084 0-0.03125-0.31467-1.033-0.75759-2.0091-1.2812-2.9375-0.55103-0.97676-1.2254-1.8711-2.0312-2.625-0.86134-0.80572-1.8439-1.3825-2.9062-1.8125-1.129-0.46806-2.3744-0.68747-3.6875-0.6875zm0.03125 7c0.75264 0.000017 1.0837 0.1232 1.4375 0.40625 0.48398 0.3872 0.8902 0.85467 1.1875 1.4375a0.97741 0.97741 0 0 0 0 0.03125 0.97741 0.97741 0 0 0 0.0625 0.125c0.34651 0.70956 0.59094 1.4873 0.75 2.4062 0.16686 0.94567 0.24998 1.8801 0.25 2.7188-0.000014 0.8625-0.08228 1.7683-0.25 2.7188-0.15833 0.89708-0.40046 1.6592-0.75 2.375-0.28885 0.57769-0.69874 1.04-1.25 1.4688-0.35991 0.27764-0.72492 0.4375-1.5 0.4375-0.70502 0.000002-1.0764-0.1482-1.4375-0.40625-0.49004-0.37802-0.86967-0.81378-1.1875-1.375-0.0077-0.01362-0.02361-0.01746-0.03125-0.03125-0.0016-0.0041 0.000053-0.03114 0-0.03125-0.34351-0.6759-0.61019-1.4231-0.78125-2.25 0.05855 0.31886 0.06179 0.30868 0-0.03125-0.16266-0.89491-0.25-1.7378-0.25-2.5625-0.000007-0.53356 0.02316-1.1528 0.0625-1.7812 0.03756-0.61965 0.11424-1.21 0.21875-1.75 0.10524-0.56128 0.23032-1.0834 0.40625-1.5312 0.16205-0.42723 0.35662-0.74566 0.5625-1 0.40656-0.50037 0.79625-0.8609 1.1875-1.0938 0.0056-0.0034 0.02561 0.0033 0.03125 0 0.3377-0.18611 0.71668-0.28123 1.2812-0.28125zm33.031 35c-0.0023 0.000178-0.18524 0.03086-0.1875 0.03125-0.0023 0.000392-0.18529 0.03065-0.1875 0.03125-0.0022 0.000602-0.18536 0.06169-0.1875 0.0625-0.0021 0.000808-0.18544 0.06149-0.1875 0.0625-0.0021 0.001-0.1543 0.09255-0.15625 0.09375-0.002 0.0012-0.15442 0.12363-0.15625 0.125-0.0018 0.0014-0.15455 0.09221-0.15625 0.09375-0.0017 0.0015-0.12346 0.15456-0.125 0.15625-0.0015 0.0017-0.12362 0.12317-0.125 0.125-0.0014 0.0018-0.1238 0.18555-0.125 0.1875-0.0012 0.002-0.09274 0.15419-0.09375 0.15625-0.001 0.0021-0.06169 0.18536-0.0625 0.1875-0.000812 0.0021-0.06189 0.15404-0.0625 0.15625-0.000607 0.0022-0.03085 0.18524-0.03125 0.1875-0.000396 0.0023-0.03107 0.18522-0.03125 0.1875-0.000182 0.0023-0.000034 0.18521 0 0.1875v24c-0.000014 0.0012-0.000046 0.09254 0 0.09375 0.000046 0.0012-0.000106 0.09254 0 0.09375 0.000106 0.0012-0.000166 0.09255 0 0.09375s0.03102 0.09256 0.03125 0.09375c0.000226 0.0012 0.03097 0.12382 0.03125 0.125 0.000285 0.0012-0.000343 0.09259 0 0.09375 0.000343 0.0012 0.03085 0.09261 0.03125 0.09375 0.000401 0.0011 0.06204 0.09263 0.0625 0.09375 0.000457 0.0011 0.03074 0.09265 0.03125 0.09375 0.000512 0.0011 0.03068 0.09268 0.03125 0.09375 0.000566 0.0011 0.06188 0.09271 0.0625 0.09375 0.000619 0.001 0.06183 0.06149 0.0625 0.0625 0.00067 0.001 0.03053 0.09278 0.03125 0.09375 0.000719 0.000975 0.06173 0.06156 0.0625 0.0625 0.000767 0.000937 0.06169 0.09285 0.0625 0.09375 0.000813 0.000898 0.09289 0.06164 0.09375 0.0625 0.000857 0.000857 0.0616 0.09294 0.0625 0.09375 0.000898 0.000813 0.09281 0.06173 0.09375 0.0625 0.000937 0.000767 0.06153 0.06178 0.0625 0.0625 0.000975 0.000719 0.09274 0.03058 0.09375 0.03125 0.001 0.00067 0.06146 0.06188 0.0625 0.0625 0.001 0.000619 0.09268 0.06193 0.09375 0.0625 0.0011 0.000566 0.09265 0.03074 0.09375 0.03125 0.0011 0.000512 0.09263 0.03079 0.09375 0.03125 0.0011 0.000457 0.09261 0.0621 0.09375 0.0625 0.0011 0.000401 0.09259 0.03091 0.09375 0.03125 0.0012 0.000343 0.09257-0.000285 0.09375 0 0.0012 0.000285 0.12381 0.03102 0.125 0.03125 0.0012 0.000226 0.09255 0.03108 0.09375 0.03125 0.0012 0.000166 0.09254-0.000106 0.09375 0 0.0012 0.000106 0.09254-0.000046 0.09375 0 0.0012 0.000046 0.09254 0.000014 0.09375 0h7.3125c2.6443 0 5.0122-0.7195 6.75-2.3125 1.8261-1.6465 2.625-4.0919 2.625-6.8438-0.000019-1.4814-0.35415-2.8958-1-4.1875-0.36461-0.7609-0.95771-1.2725-1.5312-1.8125 0.27297-0.315 0.56639-0.53878 0.78125-1.0625 0.45866-1.0792 0.71873-2.2319 0.71875-3.4375-0.000017-2.3287-0.77575-4.3829-2.25-5.9062-0.06124-0.10634-0.11306-0.19827-0.125-0.21875-0.0064-0.0062-0.02484 0.0062-0.03125 0-1.5535-1.5008-3.6804-2.2812-6.0312-2.2812h-7.1875c-0.000434-0.000019-0.01965 0.000012-0.03125 0-0.0464-0.000047-0.12326-0.000078-0.125 0a0.97741 0.97741 0 0 0 -0.03125 0zm5.2812 7.125h1.3125c0.65294 0.000019 1.1659 0.03807 1.5 0.09375 0.22251 0.03709 0.24489 0.0656 0.28125 0.09375 0.0037 0.0028 0.02797-0.0026 0.03125 0a0.97741 0.97741 0 0 0 0.0625 0.0625c0.061 0.043 0.022-0.048 0.096 0.156a0.97741 0.97741 0 0 0 0.03125 0.03125 0.97741 0.97741 0 0 0 0 0.0625c0.01141 0.05382 0.09375 0.43099 0.09375 1-0.00001 1.0212-0.34061 1.2413-0.09375 1.0625-0.03052 0.0221-0.64652 0.28126-1.7188 0.28125h-1.5938v-2.8438zm0 10h1.875c1.1748 0.000011 1.7993 0.24789 2.0938 0.46875 0.14012 0.10509 0.34374 0.29413 0.34375 1.4375-0.000009 1.1075-0.31028 1.502-0.34375 1.5312-0.17263 0.15105-0.65392 0.40625-1.75 0.40625h-2.2188v-3.8438z"
           style="opacity:.05;fill:#fff"
           transform="translate(2,2)" />
        <path
           id="path4050"
           d="m20.781 10.938c-1.8533 0.000029-3.4989 0.44582-4.8438 1.375a1.0502 1.0502 0 0 0 0 0.03125c-1.2518 0.8809-2.2589 2.0006-3 3.3438-0.72112 1.3071-1.2509 2.7144-1.5625 4.25a1.0502 1.0502 0 0 0 0 0.03125c-0.28241 1.499-0.4375 2.9576-0.4375 4.3438 0 1.3582 0.17165 2.7428 0.5 4.1875a1.0502 1.0502 0 0 0 0 0.03125c0.35689 1.4722 0.91125 2.8208 1.6562 4.0625a1.0502 1.0502 0 0 0 0 0.03125c0.78341 1.2673 1.8068 2.3246 3.0312 3.1562a1.0502 1.0502 0 0 0 0.03125 0c1.3119 0.85034 2.8665 1.2812 4.5938 1.2812 1.788 0 3.4227-0.42761 4.75-1.3125 1.2475-0.85476 2.2673-1.9536 3.0312-3.25 0.74298-1.2834 1.2902-2.692 1.625-4.1875 0.32791-1.4648 0.49998-2.8723 0.5-4.25-0.00002-0.90479-0.09883-1.8519-0.25-2.8125-0.0014-0.01015 0.0014-0.0211 0-0.03125-0.1327-0.98112-0.35111-1.9535-0.65625-2.875-0.0028-0.0092 0.0028-0.02204 0-0.03125-0.29228-0.95952-0.6958-1.8783-1.1875-2.75-0.50773-0.90001-1.1164-1.6946-1.8438-2.375-0.75664-0.70779-1.6482-1.2296-2.625-1.625-0.99981-0.41452-2.1138-0.62497-3.3125-0.625zm0.031 5.062c0.897 0.00002 1.5297 0.19878 2.0625 0.625 0.61251 0.49003 1.1304 1.1007 1.5 1.875a1.0502 1.0502 0 0 0 0 0.03125c0.39096 0.80057 0.67104 1.6897 0.84375 2.6875 0.17776 1.0074 0.24997 1.9836 0.25 2.875-0.000015 0.9137-0.07183 1.8653-0.25 2.875-0.17232 0.97635-0.4514 1.8528-0.84375 2.6562-0.36381 0.7276-0.8914 1.3148-1.5312 1.8125-0.52795 0.40727-1.1658 0.625-2.0938 0.625-0.87374 0.000003-1.5009-0.2072-2.0312-0.59375-0.60502-0.46672-1.1072-1.0247-1.5-1.75-0.0043-0.0084 0.0043-0.02288 0-0.03125-0.38101-0.74967-0.6857-1.5849-0.875-2.5-0.002-0.01075 0.002-0.0205 0-0.03125-0.17327-0.95326-0.25-1.8686-0.25-2.75-0.000007-0.55924 0.02203-1.1973 0.0625-1.8438 0.03911-0.6451 0.10262-1.275 0.21875-1.875 0.11401-0.60803 0.2652-1.1694 0.46875-1.6875 0.19576-0.51612 0.44284-0.9404 0.71875-1.2812 0.469-0.57722 0.95186-1.0091 1.4688-1.3125 0.0084-0.0047 0.02286 0.0046 0.03125 0 0.49484-0.27272 1.0595-0.40623 1.75-0.40625zm33.188 36.938a1.0502 1.0502 0 0 0 -1.062 1.062v24a1.0502 1.0502 0 0 0 1.062 1.062h7.3125c2.468 0 4.5722-0.66778 6.0938-2.0625 1.5763-1.4212 2.3125-3.5602 2.3125-6.125-0.000017-1.323-0.32166-2.5808-0.90625-3.75-0.4261-0.88922-1.09-1.5869-1.875-2.1875 0.38837-0.48763 0.85145-0.9094 1.0938-1.5 0.41536-0.97735 0.65623-2.0054 0.65625-3.0625-0.000016-2.1997-0.71815-4.0702-2.0938-5.4062-0.0063-0.0062 0.0064-0.02511 0-0.03125-1.3542-1.3177-3.2209-2-5.375-2h-7.2188zm4.1562 5.1875h2.2812c0.6735 0.00002 1.2214 0.02128 1.6562 0.09375 0.3642 0.06071 0.60304 0.16995 0.78125 0.3125a1.0502 1.0502 0 0 0 0.03125 0.03125c0.17592 0.13196 0.2928 0.2818 0.40625 0.59375a1.0502 1.0502 0 0 0 0.03125 0.03125c0.10078 0.26458 0.15625 0.74713 0.15625 1.4062-0.000011 1.1735-0.27424 1.6803-0.5 1.8438-0.34903 0.25275-1.0908 0.46876-2.2812 0.46875h-2.5625v-4.7812zm0 10h2.8438c1.3029 0.000012 2.154 0.25614 2.6875 0.65625 0.43966 0.32975 0.71874 0.93387 0.71875 2.2188-0.00001 1.2553-0.28494 1.9564-0.65625 2.2812-0.43349 0.3793-1.1797 0.625-2.4062 0.625h-3.1875v-5.7812z"
           style="opacity:.05;fill:#fff"
           transform="translate(2,2)" />
        <path
           id="path4041"
           d="m22.781 14c-1.6897 0.000026-3.1027 0.39483-4.25 1.1875-1.1265 0.79272-2.02 1.7901-2.6875 3-0.66754 1.2099-1.1455 2.5294-1.4375 3.9688-0.271 1.44-0.406 2.842-0.406 4.156 0 1.2725 0.15584 2.592 0.46875 3.9688 0.33377 1.3768 0.84285 2.6339 1.5312 3.7812 0.70925 1.1473 1.6131 2.0928 2.7188 2.8438 1.126 0.73 2.466 1.094 4.031 1.094 1.6271 0 3.0298-0.37402 4.1562-1.125 1.1265-0.77184 2.0303-1.7381 2.7188-2.9062 0.68838-1.189 1.1871-2.4773 1.5-3.875 0.31289-1.3976 0.46873-2.7379 0.46875-4.0312 0-0.856-0.073-1.77-0.219-2.688-0.125-0.939-0.333-1.843-0.625-2.719-0.271-0.897-0.635-1.749-1.094-2.562-0.459-0.814-1.009-1.52-1.656-2.125s-1.436-1.083-2.312-1.438c-0.856-0.354-1.822-0.531-2.907-0.531zm0.03125 2.9375c1.0847 0.000024 1.9886 0.29092 2.7188 0.875 0.7301 0.58411 1.3432 1.3322 1.7812 2.25 0.43806 0.89702 0.74974 1.884 0.9375 2.9688 0.18772 1.0639 0.28122 2.1029 0.28125 3.0625-0.000016 0.98045-0.09352 1.9986-0.28125 3.0625-0.18778 1.0639-0.49944 2.0405-0.9375 2.9375-0.43808 0.87615-1.0615 1.6034-1.8125 2.1875-0.73013 0.56324-1.6444 0.84375-2.75 0.84375-1.0639 0.000004-1.9574-0.27012-2.6875-0.8125-0.73012-0.56323-1.3223-1.2697-1.7812-2.125-0.43808-0.85527-0.76015-1.7903-0.96875-2.8125-0.18774-1.0222-0.28125-2.0092-0.28125-2.9688-0.000007-0.58408 0.02071-1.2387 0.0625-1.9062 0.04173-0.68838 0.12483-1.3533 0.25-2 0.12516-0.66752 0.30178-1.2909 0.53125-1.875 0.22945-0.60494 0.52037-1.1244 0.875-1.5625 0.54237-0.66752 1.1346-1.187 1.7812-1.5625 0.66753-0.37547 1.426-0.56248 2.2812-0.5625zm33.188 39.062v24h7.3125c2.2857 0 4.0812-0.59526 5.375-1.7812 1.3154-1.186 1.9687-2.9718 1.9688-5.3438-0.000015-1.1644-0.26373-2.2462-0.78125-3.2812-0.49597-1.035-1.2968-1.8456-2.375-2.4062 0.69001-0.60376 1.2175-1.3153 1.5625-2.1562 0.36656-0.86252 0.56248-1.7506 0.5625-2.6562-0.000015-2.0054-0.58559-3.5662-1.75-4.6875-1.143-1.122-2.694-1.688-4.656-1.688h-7.219zm3.0938 3.0625h3.3438c0.71158 0.000021 1.3262 0.03875 1.8438 0.125 0.51751 0.08626 0.92654 0.27252 1.25 0.53125 0.345 0.25879 0.60873 0.61938 0.78125 1.0938 0.17249 0.45285 0.25 1.0481 0.25 1.7812-0.000012 1.3369-0.31217 2.2347-0.9375 2.6875-0.62535 0.45284-1.5909 0.68751-2.9062 0.6875h-3.625v-6.9062zm0 10h3.9062c1.4447 0.000013 2.5362 0.29279 3.3125 0.875 0.77627 0.58222 1.1562 1.5962 1.1562 3.0625-0.000011 1.4232-0.34123 2.4587-1.0312 3.0625-0.69004 0.60378-1.7137 0.90625-3.0938 0.90625h-4.25v-7.9062z"
           style="opacity:.6" />
      </g>
    </g>
    <rect
       id="rect3003"
       style="opacity:.15;fill:#fff"
       transform="translate(98 3.8281e-7)"
       clip-path="url(#clipPath3009)"
       rx="25"
       ry="25"
       height="92"
       width="92"
       y="958.36"
       x="-96" />
  </g>
</svg>
