<?xml version="1.0" encoding="UTF-8" standalone="no"?>
<!-- Created with Inkscape (http://www.inkscape.org/) -->

<svg
   xmlns:dc="http://purl.org/dc/elements/1.1/"
   xmlns:cc="http://creativecommons.org/ns#"
   xmlns:rdf="http://www.w3.org/1999/02/22-rdf-syntax-ns#"
   xmlns:svg="http://www.w3.org/2000/svg"
   xmlns="http://www.w3.org/2000/svg"
   xmlns:xlink="http://www.w3.org/1999/xlink"
   xmlns:sodipodi="http://sodipodi.sourceforge.net/DTD/sodipodi-0.dtd"
   xmlns:inkscape="http://www.inkscape.org/namespaces/inkscape"
   width="96"
   height="96"
   id="svg11037"
   version="1.1"
   inkscape:version="0.48.5 r10040"
   sodipodi:docname="openofficeorg-math.svg">
  <defs
     id="defs11039">
    <linearGradient
       x1="48"
       y1="90"
       x2="48"
       y2="5.9877172"
       id="linearGradient3706"
       xlink:href="#linearGradient3700"
       gradientUnits="userSpaceOnUse"
       gradientTransform="translate(12,0)" />
    <linearGradient
       id="linearGradient3700">
      <stop
         id="stop3702"
         style="stop-color:#7e8c9a;stop-opacity:1"
         offset="0" />
      <stop
         id="stop3704"
         style="stop-color:#c9d2de;stop-opacity:1"
         offset="1" />
    </linearGradient>
    <linearGradient
       x1="18.637215"
       y1="89.20327"
       x2="18.637215"
       y2="6"
       id="linearGradient3708"
       xlink:href="#linearGradient3513"
       gradientUnits="userSpaceOnUse" />
    <linearGradient
       id="linearGradient3513">
      <stop
         id="stop3515"
         style="stop-color:#102340;stop-opacity:1"
         offset="0" />
      <stop
         id="stop3517"
         style="stop-color:#27599c;stop-opacity:1"
         offset="1" />
    </linearGradient>
    <filter
       x="-0.25"
       y="-0.23076923"
       width="1.5"
       height="1.4615386"
       color-interpolation-filters="sRGB"
       id="filter3660">
      <feGaussianBlur
         id="feGaussianBlur3662"
         stdDeviation="2.5" />
    </filter>
    <radialGradient
       cx="48.193913"
       cy="58.66795"
       r="33.906048"
       fx="48.193913"
       fy="58.66795"
       id="radialGradient3787-1"
       xlink:href="#linearGradient3601-2"
       gradientUnits="userSpaceOnUse"
       gradientTransform="matrix(0.9473764,-0.3327843,0.2051643,0.5840656,-9.5004368,28.453781)" />
    <linearGradient
       id="linearGradient3601-2">
      <stop
         id="stop3603-8"
         style="stop-color:#b8d9f4;stop-opacity:1"
         offset="0" />
      <stop
         id="stop3605-5"
         style="stop-color:#ebf4fc;stop-opacity:1"
         offset="1" />
    </linearGradient>
    <radialGradient
       cx="48.241459"
       cy="38.667461"
       r="25.550245"
       fx="48.241459"
       fy="38.667461"
       id="radialGradient3789-7"
       xlink:href="#linearGradient3601-2"
       gradientUnits="userSpaceOnUse"
       gradientTransform="matrix(0.8476225,-0.3415184,0.2499426,0.620338,-2.3137345,16.411146)" />
    <clipPath
       clipPathUnits="userSpaceOnUse"
       id="clipPath3842">
      <rect
         x="6"
         y="6.0000038"
         width="84"
         height="84"
         style="fill:url(#linearGradient3846);fill-opacity:1"
         id="rect3844"
         rx="22.826086"
         ry="22.826086" />
    </clipPath>
    <linearGradient
       inkscape:collect="always"
       xlink:href="#linearGradient3700"
       id="linearGradient3846"
       gradientUnits="userSpaceOnUse"
       gradientTransform="matrix(1.05,0,0,1.05,-2.3999508,-1006.579)"
       x1="47.999954"
       y1="962.62189"
       x2="47.999954"
       y2="1046.1001" />
    <clipPath
       clipPathUnits="userSpaceOnUse"
       id="clipPath3009">
      <path
         id="path3011"
         d="m -2,956.36218 -96,0 0,33.5624 96,25.68742 0,-59.24982 z"
         style="opacity:0.15;fill:#ffffff;fill-opacity:1;stroke:none"
         inkscape:connector-curvature="0" />
    </clipPath>
  </defs>
  <sodipodi:namedview
     id="base"
     pagecolor="#ffffff"
     bordercolor="#666666"
     borderopacity="1.0"
     inkscape:pageopacity="0.0"
     inkscape:pageshadow="2"
     inkscape:zoom="3.959798"
     inkscape:cx="33.538031"
     inkscape:cy="59.964634"
     inkscape:document-units="px"
     inkscape:current-layer="layer1"
     showgrid="false"
     inkscape:window-width="1280"
     inkscape:window-height="750"
     inkscape:window-x="0"
     inkscape:window-y="22"
     inkscape:window-maximized="1"
     showguides="true"
     inkscape:guide-bbox="true">
    <sodipodi:guide
       orientation="0,1"
       position="-24.748737,0"
       id="guide11064" />
    <sodipodi:guide
       orientation="0,1"
       position="-23.233509,96"
       id="guide11066" />
    <sodipodi:guide
       orientation="1,0"
       position="0,54.800776"
       id="guide11068" />
    <sodipodi:guide
       orientation="1,0"
       position="96,51.012704"
       id="guide11070" />
    <sodipodi:guide
       orientation="0,1"
       position="-18.94036,48"
       id="guide11072" />
    <sodipodi:guide
       orientation="1,0"
       position="48,79.296975"
       id="guide11074" />
    <sodipodi:guide
       orientation="1,0"
       position="2,75.508903"
       id="guide11076" />
    <sodipodi:guide
       orientation="0,1"
       position="-77.27667,2"
       id="guide11078" />
    <sodipodi:guide
       orientation="1,0"
       position="94,77.781746"
       id="guide11080" />
    <sodipodi:guide
       orientation="0,1"
       position="-65.912454,94"
       id="guide11082" />
  </sodipodi:namedview>
  <metadata
     id="metadata11042">
    <rdf:RDF>
      <cc:Work
         rdf:about="">
        <dc:format>image/svg+xml</dc:format>
        <dc:type
           rdf:resource="http://purl.org/dc/dcmitype/StillImage" />
        <dc:title />
      </cc:Work>
    </rdf:RDF>
  </metadata>
  <g
     inkscape:label="Layer 1"
     inkscape:groupmode="layer"
     id="layer1"
     transform="translate(0,-956.36218)">
    <g
       transform="matrix(1.0952381,0,0,1.0952381,-4.5714286,951.79075)"
       id="g3068"
       clip-path="url(#clipPath3842)">
      <g
         id="layer1-3">
        <rect
           style="fill:url(#linearGradient3706);fill-opacity:1;fill-rule:nonzero;stroke:none"
           id="rect2419"
           y="6"
           x="18"
           ry="6"
           rx="6"
           height="84"
           width="72" />
        <path
           style="fill:url(#linearGradient3708);fill-opacity:1;stroke:none;display:inline"
           id="path2400"
           inkscape:connector-curvature="0"
           d="M 12,6 C 8.676,6 6,8.676 6,12 L 6,12.53125 6,83.46875 6,84 c 0,3.324 2.676,6 6,6 l 0.53125,0 1.75,0 13.4375,0 c 7.39089,-14.512671 8.1682,-26.256563 4,-41.8125 C 27.15238,31.145588 26.38061,21.149961 34.5625,6.03125 L 35.0625,6 15.53125,6 l -3,0 L 12,6 z" />
        <path
           style="opacity:0.3;fill:#000000;fill-opacity:1;stroke:none;display:inline"
           id="path3755"
           inkscape:connector-curvature="0"
           d="M 32.53125,8 C 32.859458,7.3483329 33.199493,6.7020232 33.5625,6.03125 L 34.0625,6 32.53125,8 z M 31.875,9.34375 c -7.430268,14.387763 -6.587556,24.305905 -2.15625,40.84375 3.907688,14.583691 3.472539,25.819738 -2.6875,39.125 7.069338,-14.199366 7.789946,-25.81446 3.6875,-41.125 C 26.494557,32.422609 25.520732,22.682512 31.875,9.34375 z" />
        <path
           style="fill:#0c1b2f;fill-opacity:1;stroke:none;display:inline"
           id="path3521"
           inkscape:connector-curvature="0"
           d="m 34.0625,6 -0.5,0.03125 c -8.18189,15.118711 -7.41012,25.114338 -2.84375,42.15625 4.1682,15.555937 3.39089,27.299829 -4,41.8125 l 1,0 c 7.39089,-14.512671 8.1682,-26.256563 4,-41.8125 C 27.15238,31.145588 26.38061,21.149961 34.5625,6.03125 L 35.0625,6 l -1,0 z" />
        <path
           style="fill:#6d8092;fill-opacity:1;fill-rule:nonzero;stroke:none;filter:url(#filter3660)"
           id="path3669"
           inkscape:connector-curvature="0"
           d="m 54,56 0,3.84375 0,0.15625 0.15625,0 9,9 -9,9 L 54,78 54,78.15625 54,82 78,82 78,78 59.84375,78 68.90625,69.0625 68.84375,69 68.90625,68.9375 59.84375,60 78,60 78,56 54,56 z" />
        <path
           style="fill:#b4bec7;fill-opacity:1;fill-rule:nonzero;stroke:none"
           id="path3220"
           inkscape:connector-curvature="0"
           d="m 54,56 0,3.84375 0,0.15625 0.15625,0 9,9 -9,9 L 54,78 54,78.15625 54,82 78,82 78,78 59.84375,78 68.90625,69.0625 68.84375,69 68.90625,68.9375 59.84375,60 78,60 78,56 54,56 z" />
        <path
           style="opacity:0.2;fill:#ffffff;fill-opacity:1;fill-rule:nonzero;stroke:none"
           id="path3762"
           inkscape:connector-curvature="0"
           d="m 36.625,6 -2.0625,0.03125 c -8.18189,15.118711 -7.41012,25.114338 -2.84375,42.15625 4.1682,15.555937 3.39089,27.299829 -4,41.8125 l 1.96875,0 C 36.15288,76.392953 36.69339,65.021045 32.71875,50.1875 28.15238,33.145588 27.38061,23.149961 35.5625,8.03125 L 36.625,6 z" />
      </g>
      <g
         id="g3051">
        <path
           d="m 60.96875,13.09375 c -4.652392,0.05053 -10.376947,1.537521 -14.90625,6.59375 -19.154119,-7.088229 -28.215328,6.312485 -27.625,7 0.672915,0.783707 14.321535,-9.769365 29.25,-1.125 C 55.935879,13.388182 70.130221,16.313382 69.5,15 69.216303,14.408766 65.621142,13.043223 60.96875,13.09375 z m 9.25,14.78125 C 63.157454,27.88655 52.754642,30.172228 46.0625,39.90625 21.844932,33.008441 9.239756,52.36476 10.03125,53.15625 10.933475,54.058475 28.825082,39.054674 48,48.28125 57.734026,29.981289 78.681956,30.778811 77.78125,29.21875 77.477152,28.692038 74.455528,27.868071 70.21875,27.875 z"
           inkscape:connector-curvature="0"
           id="path2948"
           style="opacity:0.3;fill:#000000;fill-opacity:1;fill-rule:evenodd;stroke:none" />
        <path
           d="M 10.037308,52.159801 C 9.245814,51.368311 21.835629,32.023724 46.053197,38.921533 56.760624,23.347098 76.975179,26.809542 77.786108,28.214106 78.686814,29.774167 57.734026,28.992825 48,47.292786 28.825082,38.06621 10.939533,53.062026 10.037308,52.159801 z"
           inkscape:connector-curvature="0"
           id="path3597"
           style="fill:url(#radialGradient3787-1);fill-opacity:1;fill-rule:evenodd;stroke:none" />
        <path
           d="M 18.432554,25.696015 C 17.842226,25.0085 26.90898,11.589679 46.063099,18.677908 55.121705,8.5654504 68.918272,12.828338 69.485666,14.010807 70.115887,15.324189 55.942554,12.395003 47.694175,24.569321 32.76571,15.924956 19.105469,26.479722 18.432554,25.696015 z"
           inkscape:connector-curvature="0"
           id="path3599"
           style="fill:url(#radialGradient3789-7);fill-opacity:1;fill-rule:evenodd;stroke:none" />
        <path
           d="m 60.96875,12.09375 c -4.652392,0.05053 -10.376947,1.537521 -14.90625,6.59375 -19.154119,-7.088229 -28.215328,6.312486 -27.625,7 0.04696,0.0547 0.174251,0.04538 0.34375,0 1.873215,-3.130367 10.87228,-12.072351 27.28125,-6 7.836774,-8.748481 19.20455,-6.748387 22.5,-5.28125 C 69.228385,14.332875 69.608713,14.226558 69.5,14 69.216303,13.408765 65.621142,12.043223 60.96875,12.09375 z"
           inkscape:connector-curvature="0"
           id="path3617"
           style="fill:#ffffff;fill-opacity:1;fill-rule:evenodd;stroke:none" />
        <path
           d="m 70.21875,26.875 c -7.061296,0.01155 -17.464107,2.297229 -24.15625,12.03125 -24.217568,-6.897809 -36.8227437,12.45851 -36.03125,13.25 0.189082,0.189082 1.276032,-0.411865 2.8125,-1.25 4.257341,-5.426257 15.906619,-15.215783 34.21875,-10 8.229009,-11.969463 22.038769,-12.693014 28.375,-11.75 1.616413,-0.354649 2.5453,-0.588406 2.34375,-0.9375 -0.304098,-0.526712 -3.325722,-1.350679 -7.5625,-1.34375 z"
           inkscape:connector-curvature="0"
           id="path3622"
           style="fill:#ffffff;fill-opacity:1;fill-rule:evenodd;stroke:none" />
        <path
           d="m 77,27.78125 c -3.821437,1.140091 -20.586914,2.683405 -29,18.5 -18.123985,-8.720888 -35.088431,4.19453 -37.65625,4.875 -0.284707,0.548175 -0.4070987,0.905402 -0.3125,1 C 10.933475,53.058475 28.825082,38.054674 48,47.28125 57.734026,28.981289 78.681954,29.778811 77.78125,28.21875 77.70435,28.085559 77.401211,27.933464 77,27.78125 z"
           inkscape:connector-curvature="0"
           id="path3627"
           style="opacity:0.5;fill:#ffffff;fill-opacity:1;fill-rule:evenodd;stroke:none" />
        <path
           d="m 68.5625,13.40625 c -3.194317,0.351988 -14.049466,0.082 -20.875,10.15625 -13.886583,-8.04106 -26.647102,0.520169 -28.90625,1.125 -0.313381,0.523697 -0.428355,0.901466 -0.34375,1 0.672915,0.783707 14.321534,-9.769365 29.25,-1.125 C 55.935879,12.388182 70.130223,15.313382 69.5,14 69.42347,13.840508 69.076294,13.634991 68.5625,13.40625 z"
           inkscape:connector-curvature="0"
           id="path3633"
           style="opacity:0.3;fill:#ffffff;fill-opacity:1;fill-rule:evenodd;stroke:none" />
      </g>
    </g>
    <rect
       ry="25"
       rx="25"
       id="rect3003"
       style="opacity:0.15;fill:#ffffff;fill-opacity:1"
       height="92"
       width="92"
       y="958.36218"
       x="-96"
       clip-path="url(#clipPath3009)"
       transform="translate(98,3.8281269e-7)" />
  </g>
</svg>
