<svg height="96" width="96" xmlns="http://www.w3.org/2000/svg" xmlns:xlink="http://www.w3.org/1999/xlink" xmlns:sodipodi="http://sodipodi.sourceforge.net/DTD/sodipodi-0.dtd" xmlns:inkscape="http://www.inkscape.org/namespaces/inkscape">
 <defs>
  <linearGradient x2="0" y1="90" y2="5.988" gradientUnits="userSpaceOnUse" id="linearGradient3706" gradientTransform="matrix(1 0 0 1 12 0)">
   <stop stop-color="#305276"/>
   <stop stop-color="#4d93db" offset="1"/>
  </linearGradient>
  <linearGradient x2="0" y1="89.2" y2="6" gradientUnits="userSpaceOnUse" id="linearGradient3708">
   <stop stop-color="#102340"/>
   <stop stop-color="#27599c" offset="1"/>
  </linearGradient>
  <radialGradient cy="58.668" r="33.906" xlink:href="#linearGradient3601" gradientUnits="userSpaceOnUse" id="radialGradient3787" cx="48.19" gradientTransform="matrix(0.94738 -0.33278 0.20516 0.58407 -9.5 28.454)"/>
  <linearGradient id="linearGradient3601">
   <stop stop-color="#b8d9f4"/>
   <stop stop-color="#ebf4fc" offset="1"/>
  </linearGradient>
  <radialGradient cy="38.667" r="25.55" xlink:href="#linearGradient3601" gradientUnits="userSpaceOnUse" id="radialGradient3789" cx="48.24" gradientTransform="matrix(0.84762 -0.34152 0.24994 0.62034 -2.314 16.411)"/>
  <clipPath clipPathUnits="userSpaceOnUse" id="clipPath3832">
   <rect x="6" rx="22.826" y="6" height="84" width="84"/>
  </clipPath>
  <clipPath clipPathUnits="userSpaceOnUse" id="clipPath3009">
   <path d="m-2 956.36h-96v33.562l96 25.687v-59.25z"/>
  </clipPath>
 </defs>
 <g transform="matrix(1 0 0 1 0 -956.36)">
  <g clip-path="url(#clipPath3832)" transform="matrix(1.0952 0 0 1.0952 -4.571 951.79)">
   <rect x="18" rx="6" y="6" fill="url(#linearGradient3706)" height="84" width="72"/>
   <path d="m12 6c-3.324 0-6 2.676-6 6v0.531 70.938 0.531c0 3.324 2.676 6 6 6h0.53125 1.75 13.438c7.3909-14.513 8.1682-26.257 4-41.812-4.567-17.042-5.338-27.038 2.843-42.157l0.5-0.031h-19.531-3-0.531z" fill="url(#linearGradient3708)"/>
   <path d="m32.531 8c0.328-0.6517 0.668-1.298 1.031-1.9688l0.5-0.0312-1.531 2zm-0.656 1.3438c-7.4303 14.388-6.5876 24.306-2.1562 40.844 3.9077 14.584 3.4725 25.82-2.6875 39.125 7.0693-14.199 7.7899-25.814 3.6875-41.125-4.224-15.765-5.198-25.505 1.156-38.844z" opacity="0.3"/>
   <path d="m34.062 6-0.5 0.03125c-8.1819 15.119-7.4101 25.114-2.8438 42.156 4.1682 15.556 3.3909 27.3-4 41.812h1c7.3909-14.513 8.1682-26.257 4-41.812-4.566-17.041-5.337-27.037 2.844-42.156l0.5-0.031h-1z" fill="#0c1b2f"/>
   <path d="m36.625 6-2.0625 0.03125c-8.1819 15.119-7.4101 25.114-2.8438 42.156 4.1682 15.556 3.3909 27.3-4 41.812h1.9688c6.466-13.606 7.006-24.978 3.032-39.811-4.567-17.042-5.338-27.038 2.843-42.157l1.063-2.031z" fill="#fff" opacity="0.2"/>
   <path d="m60.969 13.094c-4.6524 0.05053-10.377 1.5375-14.906 6.5938-19.154-7.0882-28.215 6.3125-27.625 7 0.67292 0.78371 14.322-9.7694 29.25-1.125 8.248-12.175 22.442-9.25 21.812-10.563-0.284-0.591-3.879-1.957-8.531-1.906zm9.25 14.781c-7.062 0.012-17.464 2.297-24.157 12.031-24.217-6.898-36.822 12.459-36.031 13.25 0.902 0.902 18.794-14.101 37.969-4.875 9.734-18.3 30.682-17.502 29.781-19.062-0.304-0.527-3.325-1.351-7.562-1.344z" fill-rule="evenodd" opacity="0.3"/>
   <path d="m10.037 52.16c-0.7912-0.792 11.799-20.136 36.016-13.238 10.708-15.575 30.922-12.112 31.733-10.708 0.901 1.56-20.052 0.779-29.786 19.079-19.175-9.227-37.06 5.769-37.963 4.867z" fill="url(#radialGradient3787)" fill-rule="evenodd"/>
   <path d="m18.433 25.696c-0.591-0.688 8.476-14.106 27.63-7.018 9.059-10.113 22.855-5.85 23.423-4.667 0.63 1.313-13.543-1.616-21.792 10.558-14.928-8.644-28.589 1.911-29.261 1.127z" fill="url(#radialGradient3789)" fill-rule="evenodd"/>
   <path d="m60.969 12.094c-4.6524 0.05053-10.377 1.5375-14.906 6.5938-19.154-7.0882-28.215 6.3125-27.625 7 0.04696 0.0547 0.17425 0.04538 0.34375 0 1.8732-3.1304 10.872-12.072 27.281-6 7.8368-8.7485 19.205-6.7484 22.5-5.2812 0.665-0.074 1.046-0.18 0.937-0.407-0.284-0.591-3.879-1.957-8.531-1.906z" fill="#fff" fill-rule="evenodd"/>
   <path d="m70.219 26.875c-7.0613 0.01155-17.464 2.2972-24.156 12.031-24.218-6.8978-36.823 12.459-36.031 13.25 0.18908 0.18908 1.276-0.41186 2.8125-1.25 4.2573-5.4263 15.907-15.216 34.219-10 8.229-11.969 22.039-12.693 28.375-11.75 1.6164-0.35465 2.5453-0.58841 2.3438-0.9375-0.3041-0.52671-3.3257-1.3507-7.5625-1.3438z" fill="#fff" fill-rule="evenodd"/>
   <path d="m77 27.781c-3.8214 1.1401-20.587 2.6834-29 18.5-18.124-8.7209-35.088 4.1945-37.656 4.875-0.28471 0.54818-0.4071 0.9054-0.3125 1 0.901 0.902 18.793-14.101 37.968-4.875 9.734-18.3 30.682-17.502 29.781-19.062-0.077-0.133-0.38-0.286-0.781-0.438z" fill="#fff" fill-rule="evenodd" opacity="0.5"/>
   <path d="m68.562 13.406c-3.1943 0.35199-14.049 0.082-20.875 10.156-13.887-8.0411-26.647 0.52017-28.906 1.125-0.31338 0.5237-0.42836 0.90147-0.34375 1 0.67292 0.78371 14.322-9.7694 29.25-1.125 8.249-12.174 22.443-9.249 21.813-10.562-0.077-0.159-0.424-0.365-0.938-0.594z" fill="#fff" fill-rule="evenodd" opacity="0.3"/>
  </g>
  <rect x="-96" rx="25" y="958.36" clip-path="url(#clipPath3009)" fill="#fff" height="92" opacity="0.15" width="92" transform="matrix(1 0 0 1 98 0)"/>
 </g>
</svg>
