<?xml version="1.0" encoding="UTF-8" standalone="no"?>
<!-- Created with Inkscape (http://www.inkscape.org/) -->

<svg
   xmlns:dc="http://purl.org/dc/elements/1.1/"
   xmlns:cc="http://creativecommons.org/ns#"
   xmlns:rdf="http://www.w3.org/1999/02/22-rdf-syntax-ns#"
   xmlns:svg="http://www.w3.org/2000/svg"
   xmlns="http://www.w3.org/2000/svg"
   xmlns:xlink="http://www.w3.org/1999/xlink"
   xmlns:sodipodi="http://sodipodi.sourceforge.net/DTD/sodipodi-0.dtd"
   xmlns:inkscape="http://www.inkscape.org/namespaces/inkscape"
   width="96"
   height="96"
   id="svg11037"
   version="1.1"
   inkscape:version="0.48.5 r10040"
   sodipodi:docname="openofficeorg-printeradmin.svg">
  <defs
     id="defs11039">
    <linearGradient
       id="linearGradient3795">
      <stop
         style="stop-color:#13a6fd;stop-opacity:1;"
         offset="0"
         id="stop3797" />
      <stop
         style="stop-color:#2975b6;stop-opacity:1;"
         offset="1"
         id="stop3799" />
    </linearGradient>
    <linearGradient
       x1="48"
       y1="61.848045"
       x2="48"
       y2="11.465083"
       id="linearGradient3642"
       xlink:href="#linearGradient4129"
       gradientUnits="userSpaceOnUse"
       gradientTransform="matrix(0.903795,0,0,0.903795,4.6178402,4.6178402)" />
    <linearGradient
       id="linearGradient4129">
      <stop
         id="stop4131"
         style="stop-color:#0c0c0c;stop-opacity:1"
         offset="0" />
      <stop
         id="stop4133"
         style="stop-color:#2c2c2c;stop-opacity:1"
         offset="0.08692967" />
      <stop
         id="stop4135"
         style="stop-color:#353535;stop-opacity:1"
         offset="0.09783975" />
      <stop
         id="stop4137"
         style="stop-color:#383838;stop-opacity:1"
         offset="0.5971998" />
      <stop
         id="stop4139"
         style="stop-color:#484848;stop-opacity:1"
         offset="0.60162377" />
      <stop
         id="stop4141"
         style="stop-color:#151515;stop-opacity:1"
         offset="1" />
    </linearGradient>
    <linearGradient
       x1="11"
       y1="84"
       x2="11"
       y2="46.896225"
       id="linearGradient3765"
       xlink:href="#linearGradient3759"
       gradientUnits="userSpaceOnUse"
       gradientTransform="matrix(1,0,0,0.58611805,10,-14.334166)" />
    <linearGradient
       id="linearGradient3759">
      <stop
         id="stop3761"
         style="stop-color:#000000;stop-opacity:1"
         offset="0" />
      <stop
         id="stop3763"
         style="stop-color:#000000;stop-opacity:0"
         offset="1" />
    </linearGradient>
    <linearGradient
       x1="19"
       y1="54"
       x2="19"
       y2="15.672464"
       id="linearGradient4039"
       xlink:href="#linearGradient4033"
       gradientUnits="userSpaceOnUse" />
    <linearGradient
       id="linearGradient4033">
      <stop
         id="stop4035"
         style="stop-color:#ffffff;stop-opacity:1"
         offset="0" />
      <stop
         id="stop4037"
         style="stop-color:#ffffff;stop-opacity:0"
         offset="1" />
    </linearGradient>
    <linearGradient
       x1="48"
       y1="20.220806"
       x2="48"
       y2="138.66119"
       id="linearGradient3613"
       xlink:href="#linearGradient3737"
       gradientUnits="userSpaceOnUse" />
    <linearGradient
       id="linearGradient3737">
      <stop
         id="stop3739"
         style="stop-color:#ffffff;stop-opacity:1"
         offset="0" />
      <stop
         id="stop3741"
         style="stop-color:#ffffff;stop-opacity:0"
         offset="1" />
    </linearGradient>
    <clipPath
       id="clipPath3613">
      <rect
         width="84"
         height="84"
         rx="6"
         ry="6"
         x="6"
         y="6"
         id="rect3615"
         style="fill:#ffffff;fill-opacity:1;fill-rule:nonzero;stroke:none" />
    </clipPath>
    <filter
       x="-0.192"
       y="-0.192"
       width="1.3839999"
       height="1.3839999"
       color-interpolation-filters="sRGB"
       id="filter3794">
      <feGaussianBlur
         id="feGaussianBlur3796"
         stdDeviation="5.28" />
    </filter>
    <clipPath
       id="clipPath3782">
      <path
         d="M 20.15625,18 C 18.969107,18 18,18.892 18,20 l 0,70 60,0 0,-70 c 0,-1.108 -0.969107,-2 -2.15625,-2 l -55.6875,0 z"
         inkscape:connector-curvature="0"
         id="path3784"
         style="fill:#ff00ff;fill-opacity:1;stroke:none" />
    </clipPath>
    <filter
       x="-0.112"
       y="-0.083999999"
       width="1.224"
       height="1.168"
       color-interpolation-filters="sRGB"
       id="filter4143">
      <feGaussianBlur
         id="feGaussianBlur4145"
         stdDeviation="2.8" />
    </filter>
    <linearGradient
       x1="48"
       y1="90"
       x2="48"
       y2="5.9877172"
       id="linearGradient3251"
       xlink:href="#linearGradient3622"
       gradientUnits="userSpaceOnUse" />
    <linearGradient
       id="linearGradient3622">
      <stop
         id="stop3624"
         style="stop-color:#bebebe;stop-opacity:1"
         offset="0" />
      <stop
         id="stop3626"
         style="stop-color:#e6e6e6;stop-opacity:1"
         offset="1" />
    </linearGradient>
    <linearGradient
       x1="48"
       y1="66.468658"
       x2="48"
       y2="51.892151"
       id="linearGradient3254"
       xlink:href="#linearGradient3819"
       gradientUnits="userSpaceOnUse" />
    <linearGradient
       id="linearGradient3819">
      <stop
         id="stop3821"
         style="stop-color:#969696;stop-opacity:1"
         offset="0" />
      <stop
         id="stop3823"
         style="stop-color:#808080;stop-opacity:0"
         offset="1" />
    </linearGradient>
    <linearGradient
       x1="36.357143"
       y1="6"
       x2="36.357143"
       y2="63.893143"
       id="linearGradient3188"
       xlink:href="#linearGradient3737"
       gradientUnits="userSpaceOnUse" />
    <radialGradient
       cx="48"
       cy="90.171875"
       r="42"
       fx="48"
       fy="90.171875"
       id="radialGradient3619"
       xlink:href="#linearGradient3737"
       gradientUnits="userSpaceOnUse"
       gradientTransform="matrix(1.1573129,0,0,0.99590774,-7.5510206,0.19713193)" />
    <linearGradient
       x1="6"
       y1="73"
       x2="24"
       y2="73"
       id="linearGradient4186"
       xlink:href="#linearGradient3236"
       gradientUnits="userSpaceOnUse" />
    <linearGradient
       id="linearGradient3236">
      <stop
         id="stop3238"
         style="stop-color:#818181;stop-opacity:1"
         offset="0" />
      <stop
         id="stop3242"
         style="stop-color:#f9f9f9;stop-opacity:1"
         offset="0.2" />
      <stop
         id="stop3240"
         style="stop-color:#dcdcdc;stop-opacity:0"
         offset="1" />
    </linearGradient>
    <linearGradient
       x1="58.92857"
       y1="72.178574"
       x2="58.92857"
       y2="61.399658"
       id="linearGradient4088"
       xlink:href="#linearGradient4082"
       gradientUnits="userSpaceOnUse" />
    <linearGradient
       id="linearGradient4082">
      <stop
         id="stop4084"
         style="stop-color:#000000;stop-opacity:1"
         offset="0" />
      <stop
         id="stop4086"
         style="stop-color:#1f1f1f;stop-opacity:1"
         offset="1" />
    </linearGradient>
    <linearGradient
       x1="6"
       y1="73"
       x2="24"
       y2="73"
       id="linearGradient4188"
       xlink:href="#linearGradient3236"
       gradientUnits="userSpaceOnUse"
       gradientTransform="matrix(-1,0,0,1,96,0)" />
    <linearGradient
       x1="27.321428"
       y1="61.39732"
       x2="27.321428"
       y2="69.628479"
       id="linearGradient3977"
       xlink:href="#linearGradient3737"
       gradientUnits="userSpaceOnUse"
       gradientTransform="translate(1,0.53571429)" />
    <linearGradient
       x1="27.828682"
       y1="65.136421"
       x2="27.828682"
       y2="56.170937"
       id="linearGradient4078"
       xlink:href="#linearGradient3759"
       gradientUnits="userSpaceOnUse" />
    <radialGradient
       cx="48"
       cy="62.5"
       r="28"
       fx="48"
       fy="62.5"
       id="radialGradient4115"
       xlink:href="#linearGradient3737"
       gradientUnits="userSpaceOnUse"
       gradientTransform="matrix(1,0,0,0.03061224,0.17857143,60.829592)" />
    <radialGradient
       cx="12"
       cy="64.020409"
       r="4"
       fx="12"
       fy="64.020409"
       id="radialGradient3886"
       xlink:href="#linearGradient3880"
       gradientUnits="userSpaceOnUse"
       gradientTransform="matrix(1.0714286,0,0,0.4375,-0.85714286,4.4375)" />
    <linearGradient
       id="linearGradient3880">
      <stop
         id="stop3882"
         style="stop-color:#59d338;stop-opacity:1"
         offset="0" />
      <stop
         id="stop3884"
         style="stop-color:#289140;stop-opacity:1"
         offset="1" />
    </linearGradient>
    <linearGradient
       x1="15.999999"
       y1="85.0625"
       x2="20.178572"
       y2="85.0625"
       id="linearGradient3556"
       xlink:href="#linearGradient3376-2"
       gradientUnits="userSpaceOnUse" />
    <linearGradient
       id="linearGradient3376-2">
      <stop
         id="stop3378-8"
         style="stop-color:#767676;stop-opacity:1"
         offset="0" />
      <stop
         id="stop3380-0"
         style="stop-color:#fdfdfd;stop-opacity:1"
         offset="1" />
    </linearGradient>
    <radialGradient
       cx="18.089285"
       cy="85.0625"
       r="2.0892856"
       fx="18.089285"
       fy="85.0625"
       id="radialGradient2984"
       xlink:href="#linearGradient3366-5"
       gradientUnits="userSpaceOnUse"
       gradientTransform="matrix(1,0,0,1.0042736,0,-0.3635233)" />
    <linearGradient
       id="linearGradient3366-5">
      <stop
         id="stop3368-6"
         style="stop-color:#c1ff97;stop-opacity:1"
         offset="0" />
      <stop
         id="stop3370-5"
         style="stop-color:#30c700;stop-opacity:1"
         offset="1" />
    </linearGradient>
    <radialGradient
       cx="48.193913"
       cy="58.66795"
       r="33.906048"
       fx="48.193913"
       fy="58.66795"
       id="radialGradient3787"
       xlink:href="#linearGradient3601"
       gradientUnits="userSpaceOnUse"
       gradientTransform="matrix(0.9473764,-0.3327843,0.2051643,0.5840656,-9.5004368,36.453781)" />
    <linearGradient
       id="linearGradient3601">
      <stop
         id="stop3603"
         style="stop-color:#b8d9f4;stop-opacity:1"
         offset="0" />
      <stop
         id="stop3605"
         style="stop-color:#ebf4fc;stop-opacity:1"
         offset="1" />
    </linearGradient>
    <radialGradient
       cx="48.241459"
       cy="38.667461"
       r="25.550245"
       fx="48.241459"
       fy="38.667461"
       id="radialGradient3789"
       xlink:href="#linearGradient3601"
       gradientUnits="userSpaceOnUse"
       gradientTransform="matrix(0.8476225,-0.3415184,0.2499426,0.620338,-2.3137345,24.411146)" />
    <clipPath
       clipPathUnits="userSpaceOnUse"
       id="clipPath3330">
      <rect
         x="6"
         y="6.0000038"
         width="84"
         height="84"
         style="fill:url(#linearGradient3334);fill-opacity:1"
         id="rect3332"
         rx="22.826086"
         ry="22.826086" />
    </clipPath>
    <linearGradient
       inkscape:collect="always"
       xlink:href="#linearGradient3795"
       id="linearGradient3334"
       gradientUnits="userSpaceOnUse"
       gradientTransform="matrix(1.05,0,0,1.05,-2.3999508,-1006.579)"
       x1="47.999954"
       y1="962.62189"
       x2="47.999954"
       y2="1046.1001" />
    <clipPath
       clipPathUnits="userSpaceOnUse"
       id="clipPath3009">
      <path
         id="path3011"
         d="m -2,956.36218 -96,0 0,33.5624 96,25.68742 0,-59.24982 z"
         style="opacity:0.15;fill:#ffffff;fill-opacity:1;stroke:none"
         inkscape:connector-curvature="0" />
    </clipPath>
  </defs>
  <sodipodi:namedview
     id="base"
     pagecolor="#ffffff"
     bordercolor="#666666"
     borderopacity="1.0"
     inkscape:pageopacity="0.0"
     inkscape:pageshadow="2"
     inkscape:zoom="3.959798"
     inkscape:cx="37.957448"
     inkscape:cy="59.964634"
     inkscape:document-units="px"
     inkscape:current-layer="layer1"
     showgrid="false"
     inkscape:window-width="1280"
     inkscape:window-height="750"
     inkscape:window-x="0"
     inkscape:window-y="22"
     inkscape:window-maximized="1"
     showguides="true"
     inkscape:guide-bbox="true">
    <sodipodi:guide
       orientation="0,1"
       position="-24.748737,0"
       id="guide11064" />
    <sodipodi:guide
       orientation="0,1"
       position="-23.233509,96"
       id="guide11066" />
    <sodipodi:guide
       orientation="1,0"
       position="0,54.800776"
       id="guide11068" />
    <sodipodi:guide
       orientation="1,0"
       position="96,51.012704"
       id="guide11070" />
    <sodipodi:guide
       orientation="0,1"
       position="-18.94036,48"
       id="guide11072" />
    <sodipodi:guide
       orientation="1,0"
       position="48,79.296975"
       id="guide11074" />
    <sodipodi:guide
       orientation="1,0"
       position="2,75.508903"
       id="guide11076" />
    <sodipodi:guide
       orientation="0,1"
       position="-77.27667,2"
       id="guide11078" />
    <sodipodi:guide
       orientation="1,0"
       position="94,77.781746"
       id="guide11080" />
    <sodipodi:guide
       orientation="0,1"
       position="-65.912454,94"
       id="guide11082" />
  </sodipodi:namedview>
  <metadata
     id="metadata11042">
    <rdf:RDF>
      <cc:Work
         rdf:about="">
        <dc:format>image/svg+xml</dc:format>
        <dc:type
           rdf:resource="http://purl.org/dc/dcmitype/StillImage" />
        <dc:title />
      </cc:Work>
    </rdf:RDF>
  </metadata>
  <g
     inkscape:label="Layer 1"
     inkscape:groupmode="layer"
     id="layer1"
     transform="translate(0,-956.36218)">
    <g
       transform="matrix(1.0952381,0,0,1.0952381,-4.5714286,951.79075)"
       id="g3355"
       clip-path="url(#clipPath3330)">
      <g
         style="opacity:0.98000004;display:inline"
         id="layer1-0">
        <rect
           style="fill:url(#linearGradient3642);fill-opacity:1;fill-rule:nonzero;stroke:none"
           id="rect3631"
           y="10.04061"
           x="10.04061"
           ry="5.42277"
           rx="5.42277"
           height="75.918777"
           width="75.918777" />
        <path
           style="opacity:0.2;fill:url(#linearGradient3765);fill-opacity:1;stroke:none"
           id="rect3662"
           inkscape:connector-curvature="0"
           d="M 21,13.7995 21,56 l 1,0 0,-42.2005 -1,0 z m 3,0 0,42.2005 1,0 0,-42.2005 -1,0 z m 3,0 0,42.2005 1,0 0,-42.2005 -1,0 z m 3,0 0,42.2005 1,0 0,-42.2005 -1,0 z m 3,0 0,42.2005 1,0 0,-42.2005 -1,0 z m 3,0 0,42.2005 1,0 0,-42.2005 -1,0 z m 3,0 0,42.2005 1,0 0,-42.2005 -1,0 z m 3,0 0,42.2005 1,0 0,-42.2005 -1,0 z m 3,0 0,42.2005 1,0 0,-42.2005 -1,0 z m 3,0 0,42.2005 1,0 0,-42.2005 -1,0 z m 3,0 0,42.2005 1,0 0,-42.2005 -1,0 z m 3,0 0,42.2005 1,0 0,-42.2005 -1,0 z m 3,0 0,42.2005 1,0 0,-42.2005 -1,0 z m 3,0 0,42.2005 1,0 0,-42.2005 -1,0 z m 3,0 0,42.2005 1,0 0,-42.2005 -1,0 z m 3,0 0,42.2005 1,0 0,-42.2005 -1,0 z m 3,0 0,42.2005 1,0 0,-42.2005 -1,0 z m 3,0 0,42.2005 1,0 0,-42.2005 -1,0 z m 3,0 0,42.2005 1,0 0,-42.2005 -1,0 z" />
        <path
           style="opacity:0.1;fill:url(#linearGradient4039);fill-opacity:1;stroke:none"
           id="rect3658"
           inkscape:connector-curvature="0"
           d="m 19,14 0,42 1,0 0,-42 -1,0 z m 3,0 0,42 1,0 0,-42 -1,0 z m 3,0 0,42 1,0 0,-42 -1,0 z m 3,0 0,42 1,0 0,-42 -1,0 z m 3,0 0,42 1,0 0,-42 -1,0 z m 3,0 0,42 1,0 0,-42 -1,0 z m 3,0 0,42 1,0 0,-42 -1,0 z m 3,0 0,42 1,0 0,-42 -1,0 z m 3,0 0,42 1,0 0,-42 -1,0 z m 3,0 0,42 1,0 0,-42 -1,0 z m 3,0 0,42 1,0 0,-42 -1,0 z m 3,0 0,42 1,0 0,-42 -1,0 z m 3,0 0,42 1,0 0,-42 -1,0 z m 3,0 0,42 1,0 0,-42 -1,0 z m 3,0 0,42 1,0 0,-42 -1,0 z m 3,0 0,42 1,0 0,-42 -1,0 z m 3,0 0,42 1,0 0,-42 -1,0 z m 3,0 0,42 1,0 0,-42 -1,0 z m 3,0 0,42 1,0 0,-42 -1,0 z m 3,0 0,42 1,0 0,-42 -1,0 z" />
        <rect
           style="fill:#111111;fill-opacity:1;stroke:none"
           id="rect3650"
           y="48"
           x="15"
           height="1"
           width="66" />
        <rect
           style="fill:#111111;fill-opacity:1;stroke:none"
           id="rect3804"
           y="49"
           x="44"
           height="4"
           width="8" />
        <rect
           style="fill:#000000;fill-opacity:1;stroke:none"
           id="rect4199"
           y="16"
           x="21"
           ry="0.5"
           rx="0.5"
           height="1"
           width="54" />
      </g>
      <g
         style="display:inline"
         id="layer5">
        <rect
           style="opacity:0.1;fill:url(#linearGradient3613);fill-opacity:1;fill-rule:nonzero;stroke:#ffffff;stroke-width:0.5;stroke-linecap:round;stroke-linejoin:miter;stroke-miterlimit:4;stroke-opacity:1;stroke-dasharray:none;stroke-dashoffset:0;filter:url(#filter3794)"
           id="rect3171"
           clip-path="url(#clipPath3613)"
           y="15"
           x="15"
           ry="12"
           rx="12"
           height="66"
           width="66" />
      </g>
      <g
         style="display:inline"
         id="layer4">
        <rect
           style="opacity:0.7;fill:none;stroke:#000000;stroke-width:2;stroke-miterlimit:4;stroke-dasharray:none;display:inline;filter:url(#filter4143)"
           id="rect3774"
           clip-path="url(#clipPath3782)"
           transform="translate(0,-4)"
           y="18"
           x="18"
           ry="2"
           rx="2.1428571"
           height="80"
           width="60" />
      </g>
      <path
         style="fill:url(#linearGradient3251);fill-opacity:1;fill-rule:nonzero;stroke:none;display:inline"
         id="rect2419"
         inkscape:connector-curvature="0"
         d="M 12,6 C 8.676,6 6,8.676 6,12 l 0,38 0,24 c 0,3.324 2.676,6 6,6 l 72,0 c 3.324,0 6,-2.676 6,-6 L 90,50 90,12 C 90,8.676 87.324,6 84,6 L 12,6 z m 8.15625,8 55.6875,0 C 77.030893,14 78,14.892 78,16 l 0,32 -2,2 0,6 0,6 -56,0 0,-6 0,-6 -2,-2 0,-32 c 0,-1.108 0.969107,-2 2.15625,-2 z" />
      <path
         style="opacity:0.98000004;fill:url(#linearGradient3254);fill-opacity:1;fill-rule:nonzero;stroke:none;display:inline"
         id="path3237"
         inkscape:connector-curvature="0"
         d="m 6,50 0,24 c 0,3.324 2.676,6 6,6 l 72,0 c 3.324,0 6,-2.676 6,-6 l 0,-24 c 0,3.324 -2.676,6 -6,6 l -4,0 -4,0 0,6 -56,0 0,-6 -4,0 -4,0 C 8.676,56 6,53.324 6,50 z" />
      <path
         style="opacity:0.5;fill:url(#linearGradient3188);fill-opacity:1;fill-rule:nonzero;stroke:none;display:inline"
         id="rect3728"
         inkscape:connector-curvature="0"
         d="M 12,6 C 8.676,6 6,8.676 6,12 l 0,2 0,68 0,2 c 0,0.334721 0.04135,0.6507 0.09375,0.96875 0.0487,0.295596 0.09704,0.596915 0.1875,0.875 0.00988,0.03038 0.020892,0.0636 0.03125,0.09375 0.098865,0.287771 0.2348802,0.547452 0.375,0.8125 0.1445918,0.273507 0.3156161,0.535615 0.5,0.78125 0.1843839,0.245635 0.3737765,0.473472 0.59375,0.6875 0.439947,0.428056 0.94291,0.814526 1.5,1.09375 0.278545,0.139612 0.5734731,0.246947 0.875,0.34375 -0.2562018,-0.100222 -0.4867109,-0.236272 -0.71875,-0.375 -0.00741,-0.0044 -0.023866,0.0045 -0.03125,0 -0.031933,-0.0193 -0.062293,-0.04251 -0.09375,-0.0625 -0.120395,-0.0767 -0.2310226,-0.163513 -0.34375,-0.25 -0.1061728,-0.0808 -0.2132809,-0.161112 -0.3125,-0.25 C 8.4783201,88.557317 8.3087904,88.373362 8.15625,88.1875 8.0486711,88.057245 7.9378561,87.922215 7.84375,87.78125 7.818661,87.74287 7.805304,87.69538 7.78125,87.65625 7.716487,87.553218 7.6510225,87.451733 7.59375,87.34375 7.4927417,87.149044 7.3880752,86.928049 7.3125,86.71875 7.30454,86.69694 7.288911,86.6782 7.28125,86.65625 7.2494249,86.5643 7.2454455,86.469419 7.21875,86.375 7.1884177,86.268382 7.1483606,86.171969 7.125,86.0625 7.0521214,85.720988 7,85.364295 7,85 L 7,83 7,15 7,13 C 7,10.218152 9.2181517,8 12,8 l 2,0 68,0 2,0 c 2.781848,0 5,2.218152 5,5 l 0,2 0,68 0,2 c 0,0.364295 -0.05212,0.720988 -0.125,1.0625 -0.04415,0.206893 -0.08838,0.397658 -0.15625,0.59375 -0.0077,0.02195 -0.0233,0.04069 -0.03125,0.0625 -0.06274,0.173739 -0.138383,0.367449 -0.21875,0.53125 -0.04158,0.0828 -0.07904,0.169954 -0.125,0.25 -0.0546,0.09721 -0.126774,0.18835 -0.1875,0.28125 -0.09411,0.140965 -0.204921,0.275995 -0.3125,0.40625 -0.143174,0.17445 -0.303141,0.346998 -0.46875,0.5 -0.01117,0.0102 -0.01998,0.02115 -0.03125,0.03125 -0.138386,0.125556 -0.285091,0.234436 -0.4375,0.34375 -0.102571,0.07315 -0.204318,0.153364 -0.3125,0.21875 -0.0074,0.0045 -0.02384,-0.0044 -0.03125,0 -0.232039,0.138728 -0.462548,0.274778 -0.71875,0.375 0.301527,-0.0968 0.596455,-0.204138 0.875,-0.34375 0.55709,-0.279224 1.060053,-0.665694 1.5,-1.09375 0.219973,-0.214028 0.409366,-0.441865 0.59375,-0.6875 0.184384,-0.245635 0.355408,-0.507743 0.5,-0.78125 0.14012,-0.265048 0.276135,-0.524729 0.375,-0.8125 0.01041,-0.03078 0.02133,-0.06274 0.03125,-0.09375 0.09046,-0.278085 0.1388,-0.579404 0.1875,-0.875 C 89.95865,84.6507 90,84.334721 90,84 l 0,-2 0,-68 0,-2 C 90,8.676 87.324,6 84,6 L 12,6 z" />
      <path
         style="opacity:0.98000004;fill:#424242;fill-opacity:1;fill-rule:nonzero;stroke:none;display:inline"
         id="path4028"
         inkscape:connector-curvature="0"
         d="m 6,72 0,12 c 0,3.324 2.676,6 6,6 l 72,0 c 3.324,0 6,-2.676 6,-6 l 0,-12 c 0,3.324 -2.676,6 -6,6 L 12,78 C 8.676,78 6,75.324 6,72 z" />
      <path
         style="opacity:0.2;fill:url(#radialGradient3619);fill-opacity:1;fill-rule:nonzero;stroke:none;display:inline"
         id="path3615"
         inkscape:connector-curvature="0"
         d="M 12,90 C 8.676,90 6,87.324 6,84 L 6,82 6,14 6,12 c 0,-0.334721 0.04135,-0.6507 0.09375,-0.96875 0.0487,-0.295596 0.09704,-0.596915 0.1875,-0.875 C 6.29113,10.12587 6.302142,10.09265 6.3125,10.0625 6.411365,9.774729 6.5473802,9.515048 6.6875,9.25 6.8320918,8.976493 7.0031161,8.714385 7.1875,8.46875 7.3718839,8.223115 7.5612765,7.995278 7.78125,7.78125 8.221197,7.353194 8.72416,6.966724 9.28125,6.6875 9.559795,6.547888 9.8547231,6.440553 10.15625,6.34375 9.9000482,6.443972 9.6695391,6.580022 9.4375,6.71875 c -0.00741,0.0044 -0.023866,-0.0045 -0.03125,0 -0.031933,0.0193 -0.062293,0.04251 -0.09375,0.0625 -0.120395,0.0767 -0.2310226,0.163513 -0.34375,0.25 -0.1061728,0.0808 -0.2132809,0.161112 -0.3125,0.25 C 8.4783201,7.442683 8.3087904,7.626638 8.15625,7.8125 8.0486711,7.942755 7.9378561,8.077785 7.84375,8.21875 7.818661,8.25713 7.805304,8.30462 7.78125,8.34375 7.716487,8.446782 7.6510225,8.548267 7.59375,8.65625 7.4927417,8.850956 7.3880752,9.071951 7.3125,9.28125 7.30454,9.30306 7.288911,9.3218 7.28125,9.34375 7.2494249,9.4357 7.2454455,9.530581 7.21875,9.625 7.1884177,9.731618 7.1483606,9.828031 7.125,9.9375 7.0521214,10.279012 7,10.635705 7,11 l 0,2 0,68 0,2 c 0,2.781848 2.2181517,5 5,5 l 2,0 68,0 2,0 c 2.781848,0 5,-2.218152 5,-5 l 0,-2 0,-68 0,-2 C 89,10.635705 88.94788,10.279012 88.875,9.9375 88.83085,9.730607 88.78662,9.539842 88.71875,9.34375 88.71105,9.3218 88.69545,9.30306 88.6875,9.28125 88.62476,9.107511 88.549117,8.913801 88.46875,8.75 88.42717,8.6672 88.38971,8.580046 88.34375,8.5 88.28915,8.40279 88.216976,8.31165 88.15625,8.21875 88.06214,8.077785 87.951329,7.942755 87.84375,7.8125 87.700576,7.63805 87.540609,7.465502 87.375,7.3125 87.36383,7.3023 87.35502,7.29135 87.34375,7.28125 87.205364,7.155694 87.058659,7.046814 86.90625,6.9375 86.803679,6.86435 86.701932,6.784136 86.59375,6.71875 c -0.0074,-0.0045 -0.02384,0.0044 -0.03125,0 -0.232039,-0.138728 -0.462548,-0.274778 -0.71875,-0.375 0.301527,0.0968 0.596455,0.204138 0.875,0.34375 0.55709,0.279224 1.060053,0.665694 1.5,1.09375 0.219973,0.214028 0.409366,0.441865 0.59375,0.6875 0.184384,0.245635 0.355408,0.507743 0.5,0.78125 0.14012,0.265048 0.276135,0.524729 0.375,0.8125 0.01041,0.03078 0.02133,0.06274 0.03125,0.09375 0.09046,0.278085 0.1388,0.579404 0.1875,0.875 C 89.95865,11.3493 90,11.665279 90,12 l 0,2 0,68 0,2 c 0,3.324 -2.676,6 -6,6 l -72,0 z" />
      <path
         style="opacity:0.6;fill:#ffffff;fill-opacity:1;fill-rule:nonzero;stroke:none;display:inline"
         id="path3837"
         inkscape:connector-curvature="0"
         d="M 19.15625,13 C 17.969107,13 17,13.892 17,15 l 0,32 1,1 0,-32 c 0,-1.108 0.969107,-2 2.15625,-2 l 55.6875,0 C 77.030893,14 78,14.892 78,16 l 0,32 1,-1 0,-32 c 0,-1.108 -0.969107,-2 -2.15625,-2 l -57.6875,0 z M 19,49 l 0,6 -1,1 2,0 0,-6 -1,-1 z m 58,0 -1,1 0,6 2,0 -1,-1 0,-6 z" />
      <path
         style="opacity:0.15;fill:url(#linearGradient4186);fill-opacity:1;fill-rule:nonzero;stroke:none;display:inline"
         id="rect3222"
         inkscape:connector-curvature="0"
         d="m 6,50 0,34 c 0,3.324 2.676,6 6,6 l 12,0 0,-34 -4,0 -4,0 -4,0 C 8.676,56 6,53.324 6,50 z" />
      <path
         style="fill:url(#linearGradient4088);fill-opacity:1;stroke:none;display:inline"
         id="path4080"
         inkscape:connector-curvature="0"
         d="m 20,62 c 0,5.54 12.488,10 28,10 15.512,0 28,-4.46 28,-10 l -56,0 z" />
      <path
         style="opacity:0.15;fill:url(#linearGradient4188);fill-opacity:1;fill-rule:nonzero;stroke:none;display:inline"
         id="path3244"
         inkscape:connector-curvature="0"
         d="m 90,50 c 0,3.324 -2.676,6 -6,6 l -4,0 -4,0 -4,0 0,34 12,0 c 3.324,0 6,-2.676 6,-6 l 0,-34 z" />
      <path
         style="opacity:0.6;fill:url(#linearGradient3977);fill-opacity:1;stroke:none;display:inline"
         id="path4090"
         inkscape:connector-curvature="0"
         d="m 21,62.535714 c 0,2.232915 2.062272,4.276793 5.5,5.9375 6.264007,-2.593359 14.151673,-4.646346 23.0625,-5.9375 l -28.5625,0 z" />
      <path
         style="fill:url(#linearGradient4078);fill-opacity:1;stroke:none;display:inline"
         id="path4060"
         inkscape:connector-curvature="0"
         d="m 20,56 0,6 c 0,5.54 12.488,10 28,10 15.512,0 28,-4.46 28,-10 l 0,-6 -1,0 0,1 0,0.4375 L 75,62 c 0,1.005494 -0.569544,2.045504 -1.84375,3.125 -1.274206,1.079496 -3.233962,2.123736 -5.6875,3 C 62.561673,69.877527 55.659187,71 48,71 40.340813,71 33.438327,69.877527 28.53125,68.125 c -2.453538,-0.876264 -4.413294,-1.920504 -5.6875,-3 C 21.569544,64.045504 21,63.005494 21,62 L 21,57.4375 21,57 l 0,-1 -1,0 z" />
      <rect
         style="fill:#000000;fill-opacity:1;stroke:none;display:inline"
         id="rect4070"
         y="61"
         x="21"
         height="1"
         width="54" />
      <path
         style="opacity:0.4;fill:#ffffff;fill-opacity:1;stroke:none;display:inline"
         id="path4117"
         inkscape:connector-curvature="0"
         d="m 19,56 0,7 c 0,5.54 12.934,10 29,10 16.066,0 29,-4.46 29,-10 l 0,-7 -1,0 0,6 C 76,67.54 63.512,72 48,72 32.488,72 20,67.54 20,62 l 0,-6 -1,0 z" />
      <path
         style="opacity:0.3;fill:#000000;fill-opacity:1;fill-rule:nonzero;stroke:none;display:inline"
         id="path4123"
         inkscape:connector-curvature="0"
         d="m 6,71 0,2 c 0,3.324 2.676,6 6,6 l 72,0 c 3.324,0 6,-2.676 6,-6 l 0,-2 c 0,3.324 -2.676,6 -6,6 L 12,77 C 8.676,77 6,74.324 6,71 z" />
      <path
         style="opacity:0.5;fill:#ffffff;fill-opacity:1;fill-rule:nonzero;stroke:none;display:inline"
         id="path3974"
         inkscape:connector-curvature="0"
         d="m 6,49 0,1 c 0,3.324 2.676,6 6,6 l 8,0 0,-1 -8,0 C 8.676,55 6,52.324 6,49 z m 84,0 c 0,3.324 -2.676,6 -6,6 l -8,0 0,1 8,0 c 3.324,0 6,-2.676 6,-6 l 0,-1 z" />
      <path
         style="fill:url(#radialGradient4115);fill-opacity:1;stroke:none;display:inline"
         id="path4104"
         inkscape:connector-curvature="0"
         d="m 20.178571,61.885714 c 0,0.576113 0.06646,1.153092 0.15625,1.714286 l 55.6875,0 c 0.08979,-0.561194 0.15625,-1.138173 0.15625,-1.714286 l -56,0 z" />
      <g
         style="display:inline"
         id="layer7">
        <rect
           style="opacity:0.4;fill:#ffffff;fill-opacity:1;stroke:none;display:inline"
           id="rect3888"
           y="31"
           x="8"
           ry="1"
           rx="1"
           height="4"
           width="8" />
        <rect
           style="fill:url(#radialGradient3886);fill-opacity:1;stroke:#008033;stroke-width:0.5;stroke-miterlimit:4;stroke-dasharray:none;stroke-dashoffset:0;display:inline"
           id="rect3878"
           y="30.25"
           x="8.25"
           ry="0.4375"
           rx="0.53571433"
           height="3.5"
           width="7.5" />
        <path
           style="opacity:0.1837607;fill:#000000;fill-opacity:1;stroke:none;display:inline"
           id="rect3987"
           inkscape:connector-curvature="0"
           d="M 8.75,36 C 8.3345,36 8,36.3345 8,36.75 l 0,2.5 C 8,39.6655 8.3345,40 8.75,40 8.3345,40 8,40.3345 8,40.75 l 0,2.5 C 8,43.6655 8.3345,44 8.75,44 l 2.5,0 C 11.6655,44 12,43.6655 12,43.25 12,43.6655 12.3345,44 12.75,44 l 2.5,0 C 15.6655,44 16,43.6655 16,43.25 l 0,-2.5 C 16,40.3345 15.6655,40 15.25,40 15.6655,40 16,39.6655 16,39.25 l 0,-2.5 C 16,36.3345 15.6655,36 15.25,36 l -2.5,0 C 12.3345,36 12,36.3345 12,36.75 12,36.3345 11.6655,36 11.25,36 l -2.5,0 z M 12,39.25 C 12,39.6655 12.3345,40 12.75,40 12.3345,40 12,40.3345 12,40.75 12,40.3345 11.6655,40 11.25,40 11.6655,40 12,39.6655 12,39.25 z" />
        <rect
           style="fill:#ffffff;fill-opacity:1;stroke:none;display:inline"
           id="rect4019"
           transform="matrix(0,-1,1,0,0,0)"
           y="8"
           x="-43"
           ry="0.5"
           rx="0.5"
           height="3"
           width="3" />
        <g
           style="display:inline"
           id="g3318"
           transform="matrix(0.99997954,0,0,1,-7.4996751,-34.5)">
          <path
             inkscape:connector-curvature="0"
             style="fill:url(#linearGradient3556);fill-opacity:1;fill-rule:nonzero;stroke:none"
             id="path3374"
             transform="matrix(0,1.6709402,1.6638297,0,-122.03844,53.282815)"
             d="m 20.178571,85.0625 a 2.089286,2.0982148 0 1 1 -4.178572,0 2.089286,2.0982148 0 1 1 4.178572,0 z" />
          <path
             inkscape:connector-curvature="0"
             style="fill:url(#radialGradient2984);fill-opacity:1;fill-rule:nonzero;stroke:#000000;stroke-width:0.84050846;stroke-linecap:square;stroke-linejoin:miter;stroke-miterlimit:4;stroke-opacity:0.53181823;stroke-dasharray:none;stroke-dashoffset:0"
             id="path3364"
             transform="matrix(1.1923077,0,0,1.1872339,-2.0769275,-17.480158)"
             d="m 20.178571,85.0625 a 2.089286,2.0982148 0 1 1 -4.178572,0 2.089286,2.0982148 0 1 1 4.178572,0 z" />
        </g>
        <rect
           style="fill:#ff7600;fill-opacity:1;stroke:none;display:inline"
           id="rect4080"
           y="25"
           x="8"
           height="1"
           width="1" />
        <g
           style="font-size:1.31367779px;font-style:normal;font-variant:normal;font-weight:bold;font-stretch:normal;text-align:start;line-height:125%;writing-mode:lr-tb;text-anchor:start;fill:#4d4d4d;fill-opacity:1;stroke:none;display:inline;font-family:Liberation Sans;-inkscape-font-specification:Abandoned Bitplane Bold"
           id="text4082"
           transform="translate(0,-26)">
          <path
             id="path4110"
             inkscape:connector-curvature="0"
             d="M 10.638237,52 10.24439,51.304033 c 0.0021,0.01882 0.0041,0.03763 0.0058,0.05645 0.0017,0.01625 0.003,0.03378 0.0038,0.0526 0.0013,0.01882 0.0019,0.03678 0.0019,0.05388 l 0,0.53304 -0.168058,0 0,-0.903795 0.216167,0 0.399619,0.70174 c -0.0021,-0.01796 -0.0041,-0.03678 -0.0058,-0.05645 -0.0017,-0.01668 -0.0032,-0.03549 -0.0045,-0.05645 -8.56e-4,-0.02095 -0.0013,-0.04212 -0.0013,-0.0635 l 0,-0.525343 0.168059,0 0,0.903795 -0.22194,0" />
          <path
             id="path4112"
             inkscape:connector-curvature="0"
             d="m 11.325224,52.012829 c -0.05003,0 -0.09515,-0.0073 -0.135345,-0.02181 -0.03977,-0.01497 -0.07377,-0.03742 -0.10199,-0.06735 -0.02822,-0.03036 -0.04982,-0.06821 -0.06479,-0.113535 -0.01497,-0.04576 -0.02245,-0.09921 -0.02245,-0.160362 0,-0.06628 0.0088,-0.122087 0.0263,-0.167416 0.01796,-0.04533 0.04191,-0.08189 0.07184,-0.109687 0.03036,-0.02822 0.06521,-0.04854 0.104555,-0.06094 0.03934,-0.0124 0.08082,-0.0186 0.124441,-0.0186 0.05474,10e-7 0.101347,0.0096 0.139834,0.02886 0.03891,0.01882 0.07077,0.04533 0.09558,0.07954 0.0248,0.03421 0.04298,0.07526 0.05452,0.123157 0.01155,0.04747 0.01732,0.100065 0.01732,0.157795 l 0,0.0051 -0.445162,0 c 0,0.02908 0.0026,0.05623 0.0077,0.08146 0.0051,0.0248 0.01347,0.0464 0.02502,0.06479 0.01154,0.01796 0.02651,0.03229 0.0449,0.04298 0.01839,0.01026 0.04062,0.01539 0.06671,0.01539 0.03164,0 0.05752,-0.0066 0.07761,-0.01988 0.0201,-0.01368 0.03442,-0.03464 0.04298,-0.06286 l 0.169982,0.01475 c -0.0077,0.01967 -0.0186,0.04062 -0.03271,0.06286 -0.01369,0.02224 -0.03207,0.04276 -0.05517,0.06158 -0.02309,0.01839 -0.05196,0.03378 -0.08659,0.04618 -0.03421,0.01197 -0.0759,0.01796 -0.125081,0.01796 m 0,-0.606165 c -0.01839,10e-7 -0.03571,0.0032 -0.05196,0.0096 -0.01582,0.006 -0.02972,0.01582 -0.04169,0.02951 -0.01155,0.01326 -0.02095,0.03058 -0.02822,0.05196 -0.0073,0.02138 -0.01133,0.04704 -0.01219,0.07697 l 0.269407,0 c -0.0034,-0.05602 -0.01689,-0.09793 -0.04041,-0.125723 -0.02352,-0.02822 -0.05517,-0.04233 -0.09493,-0.04234" />
          <path
             id="path4114"
             inkscape:connector-curvature="0"
             d="m 11.949991,52.011546 c -0.05303,0 -0.09387,-0.01433 -0.122516,-0.04298 -0.02865,-0.02908 -0.04298,-0.07291 -0.04298,-0.131496 l 0,-0.409241 -0.08788,0 0,-0.121875 0.09686,0 0.05645,-0.162926 0.112894,0 0,0.162926 0.131496,0 0,0.121875 -0.131496,0 0,0.360491 c 0,0.03378 0.0064,0.0588 0.01924,0.07505 0.01283,0.01582 0.03271,0.02373 0.05965,0.02373 0.01112,0 0.02117,-8.55e-4 0.03015,-0.0026 0.009,-0.0017 0.01903,-0.0038 0.03015,-0.0064 l 0,0.111611 c -0.02224,0.0073 -0.04576,0.01262 -0.07056,0.01604 -0.0248,0.0038 -0.05196,0.0058 -0.08146,0.0058" />
          <path
             id="path4116"
             inkscape:connector-curvature="0"
             d="m 12.961548,52 -0.190509,0 -0.110328,-0.423353 c -0.0034,-0.01326 -0.0068,-0.02801 -0.01026,-0.04426 -0.0034,-0.01668 -0.0066,-0.03229 -0.0096,-0.04682 l -0.01026,-0.05132 c -0.0038,0.01711 -0.0077,0.03421 -0.01155,0.05132 -0.0034,0.01454 -0.0071,0.03015 -0.0109,0.04682 -0.0038,0.01668 -0.0075,0.03186 -0.0109,0.04554 L 12.485596,52 l -0.190508,0 -0.179605,-0.694043 0.169341,0 0.08788,0.407959 c 0.0026,0.01155 0.0053,0.02459 0.0083,0.03913 0.003,0.01411 0.0058,0.02737 0.0083,0.03977 0.003,0.01454 0.0062,0.02908 0.0096,0.04362 0.003,-0.01625 0.006,-0.03207 0.009,-0.04747 0.0026,-0.01326 0.0053,-0.02673 0.0083,-0.04041 0.003,-0.01368 0.0056,-0.02523 0.0077,-0.03464 l 0.109045,-0.407959 0.193075,0 0.10648,0.407959 c 0.003,0.01112 0.006,0.02373 0.009,0.03785 0.003,0.01411 0.0058,0.02737 0.0083,0.03977 0.003,0.01454 0.006,0.02951 0.009,0.0449 0.0034,-0.0154 0.0066,-0.03036 0.0096,-0.0449 0.0026,-0.0124 0.0053,-0.02566 0.0083,-0.03977 0.003,-0.01411 0.0058,-0.02673 0.0083,-0.03785 l 0.09173,-0.407959 0.166775,0 L 12.961548,52" />
          <path
             id="path4118"
             inkscape:connector-curvature="0"
             d="m 13.891642,51.652337 c -10e-7,0.05303 -0.0075,0.101562 -0.02245,0.145608 -0.01454,0.04405 -0.03656,0.0821 -0.06607,0.114177 -0.02951,0.03165 -0.06628,0.05645 -0.110328,0.07441 -0.04405,0.01753 -0.09536,0.0263 -0.153947,0.0263 -0.05645,0 -0.106266,-0.0088 -0.149457,-0.0263 -0.04319,-0.01753 -0.07954,-0.04212 -0.109045,-0.07377 -0.02908,-0.03165 -0.0511,-0.06949 -0.06607,-0.113536 -0.01497,-0.04447 -0.02245,-0.09344 -0.02245,-0.146891 0,-0.05174 0.0071,-0.09942 0.02117,-0.143042 0.01454,-0.04405 0.03635,-0.0821 0.06543,-0.114177 0.02908,-0.03207 0.06564,-0.05709 0.109687,-0.07505 0.04405,-0.01796 0.09557,-0.02694 0.154588,-0.02694 0.06243,10e-7 0.115673,0.009 0.159719,0.02694 0.04405,0.01796 0.07997,0.04298 0.107763,0.07505 0.02822,0.03165 0.04875,0.06949 0.06158,0.113536 0.01326,0.04362 0.01988,0.09151 0.01988,0.143683 m -0.188584,0 c -1e-6,-0.08253 -0.01347,-0.1424 -0.04041,-0.179604 -0.02694,-0.0372 -0.06607,-0.0558 -0.117385,-0.05581 -0.05303,10e-7 -0.09365,0.01882 -0.121874,0.05645 -0.02822,0.03763 -0.04234,0.09729 -0.04233,0.178963 -1e-6,0.04148 0.0036,0.07719 0.0109,0.107121 0.0077,0.02993 0.01839,0.05452 0.03207,0.07377 0.01368,0.01924 0.03015,0.03357 0.04939,0.04298 0.01924,0.009 0.04041,0.01347 0.0635,0.01347 0.02651,0 0.05003,-0.0045 0.07056,-0.01347 0.02095,-0.0094 0.03849,-0.02373 0.0526,-0.04298 0.01411,-0.01924 0.0248,-0.04383 0.03207,-0.07377 0.0073,-0.02993 0.0109,-0.06564 0.01091,-0.107121" />
          <path
             id="path4120"
             inkscape:connector-curvature="0"
             d="m 14.035326,52 0,-0.531116 c 0,-0.01497 -2.14e-4,-0.03079 -6.42e-4,-0.04747 0,-0.01668 -4.27e-4,-0.0325 -0.0013,-0.04747 -4.27e-4,-0.01539 -8.55e-4,-0.02908 -0.0013,-0.04105 -4.28e-4,-0.0124 -0.0011,-0.02138 -0.0019,-0.02694 l 0.171907,0 c 8.55e-4,0.0051 0.0017,0.01411 0.0026,0.02694 8.55e-4,0.0124 0.0017,0.02609 0.0026,0.04105 8.55e-4,0.01497 0.0015,0.02994 0.0019,0.0449 8.55e-4,0.01454 0.0013,0.0263 0.0013,0.03528 l 0.0026,0 c 0.009,-0.02523 0.01796,-0.04768 0.02694,-0.06735 0.009,-0.0201 0.01946,-0.03699 0.03143,-0.05067 0.0124,-0.01411 0.02715,-0.0248 0.04426,-0.03207 0.0171,-0.0077 0.03827,-0.01154 0.0635,-0.01155 0.01069,10e-7 0.02117,0.0011 0.03143,0.0032 0.01069,0.0017 0.01882,0.0038 0.02438,0.0064 l 0,0.150739 c -0.01155,-0.0026 -0.02331,-0.0047 -0.03528,-0.0064 -0.01155,-0.0021 -0.02544,-0.0032 -0.04169,-0.0032 -0.0449,10e-7 -0.07997,0.01817 -0.105197,0.05452 -0.0248,0.03635 -0.0372,0.09023 -0.0372,0.161644 l 0,0.340607 -0.180246,0" />
          <path
             id="path4122"
             inkscape:connector-curvature="0"
             d="m 14.989153,52 -0.185377,-0.314308 -0.07761,0.05388 0,0.260426 -0.180246,0 0,-0.951903 0.180246,0 0,0.545227 0.247598,-0.287367 0.193716,0 -0.243749,0.27069 L 15.186077,52 14.989153,52" />
        </g>
        <rect
           style="fill:#ff0000;fill-opacity:1;stroke:none;display:inline"
           id="rect4086"
           y="27"
           x="8"
           height="1"
           width="1" />
        <g
           style="font-size:1.31367779px;font-style:normal;font-variant:normal;font-weight:bold;font-stretch:normal;text-align:start;line-height:125%;writing-mode:lr-tb;text-anchor:start;fill:#4d4d4d;fill-opacity:1;stroke:none;display:inline;font-family:Liberation Sans;-inkscape-font-specification:Abandoned Bitplane Bold"
           id="text4088"
           transform="translate(0,-26)">
          <path
             id="path4099"
             inkscape:connector-curvature="0"
             d="m 10.087878,54 0,-0.903795 0.71072,0 0,0.146249 -0.521494,0 0,0.227072 0.482366,0 0,0.146249 -0.482366,0 0,0.237976 0.547793,0 0,0.146249 -0.737019,0" />
          <path
             id="path4101"
             inkscape:connector-curvature="0"
             d="m 10.969222,54 0,-0.531116 c 0,-0.01497 -2.14e-4,-0.03079 -6.41e-4,-0.04747 0,-0.01668 -4.28e-4,-0.0325 -0.0013,-0.04747 -4.28e-4,-0.01539 -8.55e-4,-0.02908 -0.0013,-0.04105 -4.28e-4,-0.0124 -0.0011,-0.02138 -0.0019,-0.02694 l 0.171907,0 c 8.55e-4,0.0051 0.0017,0.01411 0.0026,0.02694 8.55e-4,0.0124 0.0017,0.02609 0.0026,0.04105 8.55e-4,0.01497 0.0015,0.02994 0.0019,0.0449 8.55e-4,0.01454 0.0013,0.0263 0.0013,0.03528 l 0.0026,0 c 0.009,-0.02523 0.01796,-0.04768 0.02694,-0.06735 0.009,-0.0201 0.01946,-0.03699 0.03143,-0.05067 0.0124,-0.01411 0.02715,-0.0248 0.04426,-0.03207 0.01711,-0.0077 0.03827,-0.01154 0.0635,-0.01155 0.01069,10e-7 0.02117,0.0011 0.03143,0.0032 0.01069,0.0017 0.01882,0.0038 0.02438,0.0064 l 0,0.150739 c -0.01155,-0.0026 -0.02331,-0.0047 -0.03528,-0.0064 -0.01155,-0.0021 -0.02544,-0.0032 -0.04169,-0.0032 -0.0449,10e-7 -0.07997,0.01817 -0.105197,0.05452 -0.0248,0.03635 -0.0372,0.09023 -0.0372,0.161644 l 0,0.340607 -0.180246,0" />
          <path
             id="path4103"
             inkscape:connector-curvature="0"
             d="m 11.479812,54 0,-0.531116 c 0,-0.01497 -2.14e-4,-0.03079 -6.42e-4,-0.04747 0,-0.01668 -4.27e-4,-0.0325 -0.0013,-0.04747 -4.28e-4,-0.01539 -8.56e-4,-0.02908 -0.0013,-0.04105 -4.28e-4,-0.0124 -0.0011,-0.02138 -0.0019,-0.02694 l 0.171907,0 c 8.55e-4,0.0051 0.0017,0.01411 0.0026,0.02694 8.55e-4,0.0124 0.0017,0.02609 0.0026,0.04105 8.55e-4,0.01497 0.0015,0.02994 0.0019,0.0449 8.55e-4,0.01454 0.0013,0.0263 0.0013,0.03528 l 0.0026,0 c 0.009,-0.02523 0.01796,-0.04768 0.02694,-0.06735 0.009,-0.0201 0.01946,-0.03699 0.03143,-0.05067 0.0124,-0.01411 0.02715,-0.0248 0.04426,-0.03207 0.0171,-0.0077 0.03827,-0.01154 0.0635,-0.01155 0.01069,10e-7 0.02117,0.0011 0.03143,0.0032 0.01069,0.0017 0.01882,0.0038 0.02437,0.0064 l 0,0.150739 c -0.01155,-0.0026 -0.02331,-0.0047 -0.03528,-0.0064 -0.01155,-0.0021 -0.02544,-0.0032 -0.04169,-0.0032 -0.0449,10e-7 -0.07997,0.01817 -0.105197,0.05452 -0.0248,0.03635 -0.0372,0.09023 -0.0372,0.161644 l 0,0.340607 -0.180246,0" />
          <path
             id="path4105"
             inkscape:connector-curvature="0"
             d="m 12.649806,53.652337 c -10e-7,0.05303 -0.0075,0.101562 -0.02245,0.145608 -0.01454,0.04405 -0.03656,0.0821 -0.06607,0.114177 -0.02951,0.03165 -0.06628,0.05645 -0.110329,0.07441 -0.04405,0.01753 -0.09536,0.0263 -0.153946,0.0263 -0.05645,0 -0.106266,-0.0088 -0.149457,-0.0263 -0.04319,-0.01753 -0.07954,-0.04212 -0.109045,-0.07377 -0.02908,-0.03165 -0.0511,-0.06949 -0.06607,-0.113536 -0.01497,-0.04447 -0.02245,-0.09344 -0.02245,-0.146891 -1e-6,-0.05174 0.0071,-0.09942 0.02117,-0.143042 0.01454,-0.04405 0.03635,-0.0821 0.06543,-0.114177 0.02908,-0.03207 0.06564,-0.05709 0.109687,-0.07505 0.04405,-0.01796 0.09558,-0.02694 0.154588,-0.02694 0.06243,10e-7 0.115674,0.009 0.15972,0.02694 0.04405,0.01796 0.07997,0.04298 0.107763,0.07505 0.02822,0.03165 0.04875,0.06949 0.06158,0.113536 0.01326,0.04362 0.01988,0.09151 0.01989,0.143683 m -0.188584,0 c -10e-7,-0.08253 -0.01347,-0.1424 -0.04041,-0.179604 -0.02694,-0.0372 -0.06607,-0.0558 -0.117385,-0.05581 -0.05303,10e-7 -0.09365,0.01882 -0.121874,0.05645 -0.02822,0.03763 -0.04234,0.09729 -0.04233,0.178963 -10e-7,0.04148 0.0036,0.07719 0.0109,0.107121 0.0077,0.02993 0.01839,0.05452 0.03207,0.07377 0.01368,0.01924 0.03015,0.03357 0.04939,0.04298 0.01924,0.009 0.04041,0.01347 0.0635,0.01347 0.02651,0 0.05003,-0.0045 0.07056,-0.01347 0.02095,-0.0094 0.03849,-0.02373 0.0526,-0.04298 0.01411,-0.01924 0.0248,-0.04383 0.03207,-0.07377 0.0073,-0.02993 0.0109,-0.06564 0.0109,-0.107121" />
          <path
             id="path4107"
             inkscape:connector-curvature="0"
             d="m 12.79349,54 0,-0.531116 c 0,-0.01497 -2.14e-4,-0.03079 -6.42e-4,-0.04747 0,-0.01668 -4.27e-4,-0.0325 -0.0013,-0.04747 -4.27e-4,-0.01539 -8.55e-4,-0.02908 -0.0013,-0.04105 -4.27e-4,-0.0124 -0.0011,-0.02138 -0.0019,-0.02694 l 0.171907,0 c 8.55e-4,0.0051 0.0017,0.01411 0.0026,0.02694 8.55e-4,0.0124 0.0017,0.02609 0.0026,0.04105 8.55e-4,0.01497 0.0015,0.02994 0.0019,0.0449 8.55e-4,0.01454 0.0013,0.0263 0.0013,0.03528 l 0.0026,0 c 0.009,-0.02523 0.01796,-0.04768 0.02694,-0.06735 0.009,-0.0201 0.01946,-0.03699 0.03143,-0.05067 0.0124,-0.01411 0.02715,-0.0248 0.04426,-0.03207 0.01711,-0.0077 0.03827,-0.01154 0.0635,-0.01155 0.01069,10e-7 0.02117,0.0011 0.03143,0.0032 0.01069,0.0017 0.01882,0.0038 0.02437,0.0064 l 0,0.150739 c -0.01155,-0.0026 -0.02331,-0.0047 -0.03528,-0.0064 -0.01155,-0.0021 -0.02544,-0.0032 -0.04169,-0.0032 -0.0449,10e-7 -0.07997,0.01817 -0.105197,0.05452 -0.0248,0.03635 -0.0372,0.09023 -0.0372,0.161644 l 0,0.340607 -0.180246,0" />
        </g>
        <rect
           style="fill:#ff7600;fill-opacity:1;stroke:none;display:inline"
           id="rect4092"
           y="23"
           x="8"
           height="1"
           width="1" />
        <g
           style="font-size:1.31367779px;font-style:normal;font-variant:normal;font-weight:bold;font-stretch:normal;text-align:start;line-height:125%;writing-mode:lr-tb;text-anchor:start;fill:#4d4d4d;fill-opacity:1;stroke:none;display:inline;font-family:Liberation Sans;-inkscape-font-specification:Abandoned Bitplane Bold"
           id="text4094"
           transform="translate(0,-26)">
          <path
             id="path4125"
             inkscape:connector-curvature="0"
             d="m 10.831312,49.382289 c -1e-6,0.03892 -0.0066,0.07655 -0.01989,0.112894 -0.01283,0.03592 -0.03271,0.06778 -0.05965,0.09558 -0.02694,0.0278 -0.06115,0.05003 -0.102631,0.06671 -0.04148,0.01625 -0.09066,0.02437 -0.147533,0.02437 l -0.224505,0 0,0.318156 -0.189226,0 0,-0.903795 0.406034,0 c 0.05773,10e-7 0.107762,0.0071 0.150098,0.02117 0.04233,0.01369 0.0774,0.03314 0.105197,0.05837 0.02779,0.02523 0.04832,0.05538 0.06158,0.09044 0.01368,0.03507 0.02052,0.07377 0.02053,0.116101 m -0.190509,0.0032 c -1e-6,-0.04661 -0.01411,-0.08189 -0.04234,-0.105838 -0.0278,-0.02437 -0.0697,-0.03656 -0.125723,-0.03656 l -0.19564,0 0,0.29314 0.200772,0 c 0.02822,0 0.05238,-0.0036 0.07248,-0.01091 0.02053,-0.0073 0.03742,-0.01753 0.05067,-0.03079 0.01368,-0.01326 0.02373,-0.02908 0.03015,-0.04747 0.0064,-0.01881 0.0096,-0.03934 0.0096,-0.06158" />
          <path
             id="path4127"
             inkscape:connector-curvature="0"
             d="m 11.628627,49.652337 c -10e-7,0.05303 -0.0075,0.101562 -0.02245,0.145608 -0.01454,0.04405 -0.03656,0.0821 -0.06607,0.114177 -0.02951,0.03165 -0.06628,0.05645 -0.110329,0.07441 -0.04405,0.01753 -0.09536,0.0263 -0.153946,0.0263 -0.05645,0 -0.106267,-0.0088 -0.149457,-0.0263 -0.04319,-0.01753 -0.07954,-0.04212 -0.109045,-0.07377 -0.02908,-0.03165 -0.0511,-0.06949 -0.06607,-0.113536 -0.01497,-0.04447 -0.02245,-0.09344 -0.02245,-0.146891 0,-0.05174 0.0071,-0.09942 0.02117,-0.143042 0.01454,-0.04405 0.03635,-0.0821 0.06543,-0.114177 0.02908,-0.03207 0.06564,-0.05709 0.109687,-0.07505 0.04405,-0.01796 0.09558,-0.02694 0.154588,-0.02694 0.06243,10e-7 0.115673,0.009 0.15972,0.02694 0.04405,0.01796 0.07997,0.04298 0.107762,0.07505 0.02822,0.03165 0.04875,0.06949 0.06158,0.113536 0.01326,0.04362 0.01988,0.09151 0.01989,0.143683 m -0.188585,0 c 0,-0.08253 -0.01347,-0.1424 -0.04041,-0.179604 -0.02694,-0.0372 -0.06607,-0.0558 -0.117384,-0.05581 -0.05303,10e-7 -0.09365,0.01882 -0.121874,0.05645 -0.02822,0.03763 -0.04234,0.09729 -0.04234,0.178963 0,0.04148 0.0036,0.07719 0.01091,0.107121 0.0077,0.02993 0.01839,0.05452 0.03207,0.07377 0.01368,0.01924 0.03015,0.03357 0.04939,0.04298 0.01924,0.009 0.04041,0.01347 0.0635,0.01347 0.02651,0 0.05003,-0.0045 0.07056,-0.01347 0.02095,-0.0094 0.03849,-0.02373 0.0526,-0.04298 0.01411,-0.01924 0.0248,-0.04383 0.03207,-0.07377 0.0073,-0.02993 0.0109,-0.06564 0.0109,-0.107121" />
          <path
             id="path4129"
             inkscape:connector-curvature="0"
             d="m 12.5228,50 -0.190509,0 -0.110328,-0.423353 c -0.0034,-0.01326 -0.0068,-0.02801 -0.01026,-0.04426 -0.0034,-0.01668 -0.0066,-0.03229 -0.0096,-0.04682 l -0.01026,-0.05132 c -0.0038,0.01711 -0.0077,0.03421 -0.01155,0.05132 -0.0034,0.01454 -0.0071,0.03015 -0.0109,0.04682 -0.0038,0.01668 -0.0075,0.03186 -0.0109,0.04554 L 12.046849,50 l -0.190509,0 -0.179605,-0.694043 0.169342,0 0.08788,0.407959 c 0.0026,0.01155 0.0053,0.02459 0.0083,0.03913 0.003,0.01411 0.0058,0.02737 0.0083,0.03977 0.003,0.01454 0.0062,0.02908 0.0096,0.04362 0.003,-0.01625 0.006,-0.03207 0.009,-0.04747 0.0026,-0.01326 0.0053,-0.02673 0.0083,-0.04041 0.003,-0.01368 0.0056,-0.02523 0.0077,-0.03464 l 0.109045,-0.407959 0.193075,0 0.10648,0.407959 c 0.003,0.01112 0.006,0.02373 0.009,0.03785 0.003,0.01411 0.0058,0.02737 0.0083,0.03977 0.003,0.01454 0.006,0.02951 0.009,0.0449 0.0034,-0.0154 0.0066,-0.03036 0.0096,-0.0449 0.0026,-0.0124 0.0053,-0.02566 0.0083,-0.03977 0.003,-0.01411 0.0058,-0.02673 0.0083,-0.03785 l 0.09173,-0.407959 0.166775,0 L 12.5228,50" />
          <path
             id="path4131"
             inkscape:connector-curvature="0"
             d="m 13.077649,50.012829 c -0.05003,0 -0.09515,-0.0073 -0.135344,-0.02181 -0.03977,-0.01497 -0.07377,-0.03742 -0.10199,-0.06735 -0.02822,-0.03036 -0.04982,-0.06821 -0.06479,-0.113535 -0.01497,-0.04576 -0.02245,-0.09921 -0.02245,-0.160362 0,-0.06628 0.0088,-0.122087 0.0263,-0.167416 0.01796,-0.04533 0.04191,-0.08189 0.07184,-0.109687 0.03036,-0.02822 0.06521,-0.04854 0.104555,-0.06094 0.03934,-0.0124 0.08082,-0.0186 0.12444,-0.0186 0.05474,10e-7 0.101348,0.0096 0.139835,0.02886 0.03891,0.01882 0.07077,0.04533 0.09558,0.07954 0.0248,0.03421 0.04298,0.07526 0.05452,0.123157 0.01154,0.04747 0.01732,0.100065 0.01732,0.157795 l 0,0.0051 -0.445162,0 c -1e-6,0.02908 0.0026,0.05623 0.0077,0.08146 0.0051,0.0248 0.01347,0.0464 0.02502,0.06479 0.01155,0.01796 0.02651,0.03229 0.0449,0.04298 0.01839,0.01026 0.04063,0.01539 0.06671,0.01539 0.03164,0 0.05752,-0.0066 0.07761,-0.01988 0.0201,-0.01368 0.03442,-0.03464 0.04298,-0.06286 l 0.169983,0.01475 c -0.0077,0.01967 -0.0186,0.04062 -0.03271,0.06286 -0.01368,0.02224 -0.03207,0.04276 -0.05516,0.06158 -0.02309,0.01839 -0.05196,0.03378 -0.0866,0.04618 -0.03421,0.01197 -0.07591,0.01796 -0.125082,0.01796 m 0,-0.606165 c -0.01839,10e-7 -0.03571,0.0032 -0.05196,0.0096 -0.01582,0.006 -0.02972,0.01582 -0.04169,0.02951 -0.01155,0.01326 -0.02095,0.03058 -0.02822,0.05196 -0.0073,0.02138 -0.01133,0.04704 -0.01219,0.07697 l 0.269406,0 c -0.0034,-0.05602 -0.01689,-0.09793 -0.04041,-0.125723 -0.02352,-0.02822 -0.05516,-0.04233 -0.09493,-0.04234" />
          <path
             id="path4133"
             inkscape:connector-curvature="0"
             d="m 13.524736,50 0,-0.531116 c 0,-0.01497 -2.14e-4,-0.03079 -6.41e-4,-0.04747 0,-0.01668 -4.28e-4,-0.0325 -0.0013,-0.04747 -4.28e-4,-0.01539 -8.56e-4,-0.02908 -0.0013,-0.04105 -4.28e-4,-0.0124 -0.0011,-0.02138 -0.0019,-0.02694 l 0.171907,0 c 8.55e-4,0.0051 0.0017,0.01411 0.0026,0.02694 8.55e-4,0.0124 0.0017,0.02609 0.0026,0.04105 8.55e-4,0.01497 0.0015,0.02994 0.0019,0.0449 8.55e-4,0.01454 0.0013,0.0263 0.0013,0.03528 l 0.0026,0 c 0.009,-0.02523 0.01796,-0.04768 0.02694,-0.06735 0.009,-0.0201 0.01946,-0.03699 0.03143,-0.05067 0.0124,-0.01411 0.02715,-0.0248 0.04426,-0.03207 0.01711,-0.0077 0.03827,-0.01154 0.0635,-0.01155 0.01069,10e-7 0.02117,0.0011 0.03143,0.0032 0.01069,0.0017 0.01882,0.0038 0.02437,0.0064 l 0,0.150739 c -0.01155,-0.0026 -0.02331,-0.0047 -0.03528,-0.0064 -0.01155,-0.0021 -0.02544,-0.0032 -0.04169,-0.0032 -0.0449,10e-7 -0.07997,0.01817 -0.105197,0.05452 -0.0248,0.03635 -0.0372,0.09023 -0.0372,0.161644 l 0,0.340607 -0.180246,0" />
        </g>
        <rect
           style="fill:#ffffff;fill-opacity:1;stroke:none;display:inline"
           id="rect3995"
           transform="matrix(0,-1,1,0,0,0)"
           y="12"
           x="-43"
           ry="0.5"
           rx="0.5"
           height="3"
           width="3" />
        <rect
           style="fill:#ffffff;fill-opacity:1;stroke:none;display:inline"
           id="rect3999"
           transform="matrix(0,-1,1,0,0,0)"
           y="8"
           x="-39"
           ry="0.5"
           rx="0.5"
           height="3"
           width="3" />
        <rect
           style="fill:#ffffff;fill-opacity:1;stroke:none;display:inline"
           id="rect4004"
           transform="matrix(0,-1,1,0,0,0)"
           y="12"
           x="-39"
           ry="0.5"
           rx="0.5"
           height="3"
           width="3" />
      </g>
      <g
         id="layer9">
        <path
           inkscape:connector-curvature="0"
           style="opacity:0.05;fill:#000000;fill-opacity:1;fill-rule:evenodd;stroke:none"
           id="path3741"
           transform="translate(0,8)"
           d="M 60.96875,10.125 C 55.177231,10.164713 49.477697,12.476746 45.28125,16.5 36.97073,13.758797 26.987056,14.02251 19.9375,20 a 1.0216974,1.0216974 0 0 0 -0.0625,0.03125 c -0.889734,0.85338 -2.237955,1.970869 -3.21875,3.34375 -0.980795,1.372881 -1.582315,3.254174 -0.625,5.0625 a 1.0216974,1.0216974 0 0 0 0.25,0.3125 c 0.76419,0.628575 1.667333,0.897124 2.5,0.875 0.832667,-0.02212 1.58723,-0.27533 2.28125,-0.59375 1.388039,-0.63684 2.665043,-1.475736 3.5625,-1.6875 a 1.0216974,1.0216974 0 0 0 0.15625,-0.0625 C 31.496508,24.405653 39.559831,24.196479 45.875,27.9375 l 0.03125,-0.03125 c 0.94975,0.68611 2.140473,0.735537 3.03125,0.3125 0.86623,-0.411379 1.506656,-1.155655 1.90625,-2 L 50.875,26.25 c 3.770546,-5.233473 10.393693,-7.611864 16.8125,-7.78125 1.956527,0.370232 3.722452,-0.716627 4.40625,-2.21875 0.360326,-0.791542 0.436353,-1.7569 0.0625,-2.625 -0.362604,-0.841979 -1.150125,-1.510886 -2.21875,-1.875 -0.03064,-0.01385 -0.06305,-0.01761 -0.09375,-0.03125 -2.841739,-1.261939 -5.926815,-1.598731 -8.875,-1.59375 z m 9.25,14.78125 C 60.645062,24.865971 50.920542,28.945317 44.9375,36.65625 34.36837,34.006245 22.529318,36.126072 14.125,43.3125 a 1.0216974,1.0216974 0 0 0 -0.03125,0 c -2.710812,2.389267 -5.5818756,5.18231 -6.96875,8.875 a 1.0216974,1.0216974 0 0 0 -0.0625,0.28125 c -0.075487,1.164515 0.2522028,2.172728 0.9375,2.8125 0.6852972,0.639772 1.5716377,0.793199 2.40625,0.75 1.604753,-0.08306 3.168497,-0.832081 4.28125,-1.75 0.04471,-0.03688 0.113137,-0.05637 0.15625,-0.09375 8.299187,-4.653996 18.224685,-7.640614 27.4375,-4.9375 a 1.0216974,1.0216974 0 0 0 0.15625,0.03125 c 0.792566,0.0904 1.700362,0.546673 2.71875,1.03125 1.018388,0.484577 2.222925,1.007666 3.625,0.8125 a 1.0216974,1.0216974 0 0 0 0.3125,-0.09375 c 1.202178,-0.6001 1.80778,-1.671872 2.28125,-2.59375 0.47347,-0.921878 0.857619,-1.744306 1.375,-2.25 a 1.0216974,1.0216974 0 0 0 0.125,-0.125 c 5.16595,-7.276132 13.867553,-11.213913 22.59375,-12.875 l 0,-0.0625 c 1.841408,0.147664 3.579592,-0.696039 4.5625,-2.0625 0.523622,-0.727952 0.858351,-1.669154 0.625,-2.625 -0.233351,-0.955846 -0.996607,-1.761536 -2.125,-2.28125 A 1.0216974,1.0216974 0 0 0 78.4375,26.125 c -2.689408,-1.010632 -5.521791,-1.19708 -8.21875,-1.21875 z" />
        <path
           style="opacity:0.1;fill:#000000;fill-opacity:1;fill-rule:evenodd;stroke:none"
           id="path3735"
           inkscape:connector-curvature="0"
           d="m 60.96875,19.15625 c -5.721092,0.03923 -11.410438,2.353956 -15.4375,6.4375 -8.158387,-2.855226 -18.078363,-2.608454 -24.928206,3.199695 -1.863973,1.787812 -5.173892,4.326102 -3.665544,7.175305 2.370051,1.949455 5.033352,-1.044583 7.447069,-1.614123 6.970329,-2.984823 15.353704,-3.23235 22.008973,0.710142 1.345342,1.104322 3.075852,-0.03529 3.644107,-1.417814 4.014085,-5.571503 10.965803,-8.033894 17.618601,-8.209455 3.192891,0.862781 5.510476,-3.59722 1.875,-4.75 -2.66913,-1.206816 -5.660951,-1.536152 -8.5625,-1.53125 z m 9.25,14.78125 C 60.72378,33.89755 51.027682,37.997279 45.3125,45.75 34.894419,42.930364 23.073384,45.024139 14.788662,52.108302 c -2.682742,2.364526 -5.4274204,5.004929 -6.7082098,8.415157 -0.2520905,3.888924 4.2666508,2.460679 6.1006568,0.87069 8.469558,-4.782514 18.717145,-7.949246 28.373312,-5.116049 2.119087,0.241693 3.932002,2.144586 6.070579,1.8469 1.780098,-0.888584 2.001594,-3.272496 3.419121,-4.658003 5.378051,-7.574872 14.34364,-11.586565 23.237129,-13.279497 2.975243,0.47385 6.585371,-3.372532 2.815327,-5.108933 C 75.591713,34.137283 72.871603,33.958816 70.21875,33.9375 z" />
        <path
           inkscape:connector-curvature="0"
           style="opacity:0.15;fill:#000000;fill-opacity:1;fill-rule:evenodd;stroke:none"
           id="path3731"
           transform="translate(0,8)"
           d="m 60.96875,12.09375 c -4.708676,0.05114 -10.512391,1.586787 -15.1875,6.5 -9.493493,-3.323402 -16.729783,-1.836649 -21.4375,0.78125 -2.408176,1.339154 -4.17055,2.950194 -5.3125,4.28125 -0.570975,0.665528 -0.974482,1.245933 -1.25,1.75 -0.137759,0.252033 -0.240642,0.469046 -0.3125,0.71875 -0.03593,0.124852 -0.0608,0.253007 -0.0625,0.4375 -0.0017,0.184493 -0.0053,0.483918 0.25,0.78125 0.250452,0.291688 0.605945,0.391524 0.8125,0.40625 0.206555,0.01473 0.340807,-0.03326 0.46875,-0.0625 0.255886,-0.05849 0.461752,-0.141712 0.71875,-0.25 0.513996,-0.216576 1.17435,-0.538528 1.96875,-0.90625 1.5888,-0.735443 3.745646,-1.667731 6.34375,-2.375 5.196209,-1.414537 12.025191,-1.884198 19.21875,2.28125 a 1.0135596,1.0135596 0 0 0 1.34375,-0.3125 c 3.951629,-5.832466 9.250593,-8.016286 13.59375,-8.9375 2.171578,-0.460607 4.094371,-0.586569 5.46875,-0.6875 0.68719,-0.05046 1.219508,-0.09295 1.6875,-0.1875 0.233996,-0.04728 0.46066,-0.07127 0.78125,-0.3125 0.160295,-0.120616 0.358705,-0.320314 0.4375,-0.625 0.07879,-0.304686 -0.0017,-0.62077 -0.09375,-0.8125 -0.183138,-0.381665 -0.389393,-0.513741 -0.59375,-0.65625 -0.204357,-0.142509 -0.425731,-0.252525 -0.6875,-0.375 -0.523537,-0.244949 -1.196458,-0.501949 -2,-0.71875 -1.607084,-0.433603 -3.728082,-0.745121 -6.15625,-0.71875 z m 9.25,14.78125 C 63.08698,26.886663 52.593923,29.208819 45.65625,38.78125 33.603046,35.566516 24.249,38.685962 18.09375,42.8125 14.956632,44.915653 12.636557,47.259353 11.125,49.15625 10.369221,50.104698 9.8258334,50.925766 9.46875,51.59375 9.2902083,51.927742 9.1496498,52.207847 9.0625,52.5 9.018925,52.646076 8.973432,52.797247 8.96875,53 c -0.00468,0.202753 0.017575,0.548827 0.34375,0.875 0.3003644,0.300364 0.6603593,0.349555 0.875,0.34375 0.214641,-0.0058 0.355503,-0.04846 0.5,-0.09375 0.288993,-0.09059 0.578822,-0.242865 0.90625,-0.40625 0.654856,-0.32677 1.487402,-0.780319 2.53125,-1.34375 2.087696,-1.126862 4.958709,-2.596758 8.375,-3.8125 6.832581,-2.431483 15.779431,-3.841822 25.0625,0.625 A 1.0135596,1.0135596 0 0 0 48.90625,48.75 c 4.722596,-8.878477 12.114573,-13.080944 18.3125,-15.3125 3.098963,-1.115778 5.887014,-1.725982 7.875,-2.15625 0.993993,-0.215134 1.772309,-0.399168 2.375,-0.59375 0.301345,-0.09729 0.569228,-0.163755 0.875,-0.40625 0.152886,-0.121248 0.34084,-0.304622 0.4375,-0.625 0.09666,-0.320378 0.0071,-0.708653 -0.125,-0.9375 -0.382189,-0.66197 -0.748885,-0.693869 -1.21875,-0.875 -0.469865,-0.181131 -1.048307,-0.356287 -1.75,-0.5 -1.403387,-0.287425 -3.284268,-0.472323 -5.46875,-0.46875 z" />
        <path
           style="opacity:0.3;fill:#000000;fill-opacity:1;fill-rule:evenodd;stroke:none"
           id="path2948"
           inkscape:connector-curvature="0"
           d="m 60.96875,21.09375 c -4.652392,0.05053 -10.376947,1.537521 -14.90625,6.59375 -19.154119,-7.088229 -28.215328,6.312485 -27.625,7 0.672915,0.783707 14.321535,-9.769365 29.25,-1.125 C 55.935879,21.388182 70.130221,24.313382 69.5,23 69.216303,22.408766 65.621142,21.043223 60.96875,21.09375 z m 9.25,14.78125 C 63.157454,35.88655 52.754642,38.172228 46.0625,47.90625 21.844932,41.008441 9.239756,60.36476 10.03125,61.15625 10.933475,62.058475 28.825082,47.054674 48,56.28125 57.734026,37.981289 78.681956,38.778811 77.78125,37.21875 77.477152,36.692038 74.455528,35.868071 70.21875,35.875 z" />
        <path
           style="fill:url(#radialGradient3787);fill-opacity:1;fill-rule:evenodd;stroke:none"
           id="path3597"
           inkscape:connector-curvature="0"
           d="M 10.037308,60.159801 C 9.245814,59.368311 21.835629,40.023724 46.053197,46.921533 56.760624,31.347098 76.975179,34.809542 77.786108,36.214106 78.686814,37.774167 57.734026,36.992825 48,55.292786 28.825082,46.06621 10.939533,61.062026 10.037308,60.159801 z" />
        <path
           style="fill:url(#radialGradient3789);fill-opacity:1;fill-rule:evenodd;stroke:none"
           id="path3599"
           inkscape:connector-curvature="0"
           d="M 18.432554,33.696015 C 17.842226,33.0085 26.90898,19.589679 46.063099,26.677908 55.121705,16.56545 68.918272,20.828338 69.485666,22.010807 70.115887,23.324189 55.942554,20.395003 47.694175,32.569321 32.76571,23.924956 19.105469,34.479722 18.432554,33.696015 z" />
        <path
           style="fill:#ffffff;fill-opacity:1;fill-rule:evenodd;stroke:none"
           id="path3617"
           inkscape:connector-curvature="0"
           d="m 60.96875,20.09375 c -4.652392,0.05053 -10.376947,1.537521 -14.90625,6.59375 -19.154119,-7.088229 -28.215328,6.312486 -27.625,7 0.04696,0.0547 0.174251,0.04538 0.34375,0 1.873215,-3.130367 10.87228,-12.072351 27.28125,-6 7.836774,-8.748481 19.20455,-6.748387 22.5,-5.28125 C 69.228385,22.332875 69.608713,22.226558 69.5,22 69.216303,21.408765 65.621142,20.043223 60.96875,20.09375 z" />
        <path
           style="fill:#ffffff;fill-opacity:1;fill-rule:evenodd;stroke:none"
           id="path3622"
           inkscape:connector-curvature="0"
           d="m 70.21875,34.875 c -7.061296,0.01155 -17.464107,2.297229 -24.15625,12.03125 -24.217568,-6.897809 -36.8227437,12.45851 -36.03125,13.25 0.189082,0.189082 1.276032,-0.411865 2.8125,-1.25 4.257341,-5.426257 15.906619,-15.215783 34.21875,-10 8.229009,-11.969463 22.038769,-12.693014 28.375,-11.75 1.616413,-0.354649 2.5453,-0.588406 2.34375,-0.9375 -0.304098,-0.526712 -3.325722,-1.350679 -7.5625,-1.34375 z" />
        <path
           style="opacity:0.5;fill:#ffffff;fill-opacity:1;fill-rule:evenodd;stroke:none"
           id="path3627"
           inkscape:connector-curvature="0"
           d="m 77,35.78125 c -3.821437,1.140091 -20.586914,2.683405 -29,18.5 -18.123985,-8.720888 -35.088431,4.19453 -37.65625,4.875 -0.284707,0.548175 -0.4070987,0.905402 -0.3125,1 C 10.933475,61.058475 28.825082,46.054674 48,55.28125 57.734026,36.981289 78.681954,37.778811 77.78125,36.21875 77.70435,36.085559 77.401211,35.933464 77,35.78125 z" />
        <path
           style="opacity:0.3;fill:#ffffff;fill-opacity:1;fill-rule:evenodd;stroke:none"
           id="path3633"
           inkscape:connector-curvature="0"
           d="m 68.5625,21.40625 c -3.194317,0.351988 -14.049466,0.082 -20.875,10.15625 -13.886583,-8.04106 -26.647102,0.520169 -28.90625,1.125 -0.313381,0.523697 -0.428355,0.901466 -0.34375,1 0.672915,0.783707 14.321534,-9.769365 29.25,-1.125 C 55.935879,20.388182 70.130223,23.313382 69.5,22 69.42347,21.840508 69.076294,21.634991 68.5625,21.40625 z" />
      </g>
    </g>
    <rect
       ry="25"
       rx="25"
       id="rect3003"
       style="opacity:0.15;fill:#ffffff;fill-opacity:1"
       height="92"
       width="92"
       y="958.36218"
       x="-96"
       clip-path="url(#clipPath3009)"
       transform="translate(98,3.8281269e-7)" />
  </g>
</svg>
