<?xml version="1.0" encoding="UTF-8" standalone="no"?>
<!-- Created with Inkscape (http://www.inkscape.org/) -->

<svg
   xmlns:dc="http://purl.org/dc/elements/1.1/"
   xmlns:cc="http://creativecommons.org/ns#"
   xmlns:rdf="http://www.w3.org/1999/02/22-rdf-syntax-ns#"
   xmlns:svg="http://www.w3.org/2000/svg"
   xmlns="http://www.w3.org/2000/svg"
   xmlns:xlink="http://www.w3.org/1999/xlink"
   xmlns:sodipodi="http://sodipodi.sourceforge.net/DTD/sodipodi-0.dtd"
   xmlns:inkscape="http://www.inkscape.org/namespaces/inkscape"
   id="svg11037"
   height="96"
   width="96"
   version="1.1"
   inkscape:version="0.48.5 r10040"
   sodipodi:docname="openshot.svg">
  <sodipodi:namedview
     pagecolor="#ffffff"
     bordercolor="#666666"
     borderopacity="1"
     objecttolerance="10"
     gridtolerance="10"
     guidetolerance="10"
     inkscape:pageopacity="0"
     inkscape:pageshadow="2"
     inkscape:window-width="640"
     inkscape:window-height="480"
     id="namedview49691" />
  <defs
     id="defs11039">
    <linearGradient
       id="linearGradient3885"
       y2="5.9877"
       xlink:href="#ButtonColor"
       gradientUnits="userSpaceOnUse"
       x2="48"
       y1="90"
       x1="48" />
    <linearGradient
       id="ButtonColor"
       y2="5.4252"
       gradientUnits="userSpaceOnUse"
       x2="58.65"
       gradientTransform="matrix(1.0172 0 0 1.0172 -1.1034 -1.1034)"
       y1="122"
       x1="58.65">
      <stop
         id="stop3189"
         style="stop-color:#141414"
         offset="0" />
      <stop
         id="stop3191"
         style="stop-color:#464646"
         offset="1" />
    </linearGradient>
    <linearGradient
       id="linearGradient3613"
       y2="138.66"
       gradientUnits="userSpaceOnUse"
       x2="48"
       y1="20.221"
       x1="48">
      <stop
         id="stop3739"
         style="stop-color:#0097f9"
         offset="0" />
      <stop
         id="stop3741"
         style="stop-color:#fff;stop-opacity:0"
         offset="1" />
    </linearGradient>
    <clipPath
       id="clipPath3613">
      <rect
         id="rect3615"
         style="fill:#fff"
         rx="6"
         ry="6"
         height="84"
         width="84"
         y="6"
         x="6" />
    </clipPath>
    <filter
       id="filter3794"
       height="1.384"
       width="1.384"
       color-interpolation-filters="sRGB"
       y="-.192"
       x="-.192">
      <feGaussianBlur
         id="feGaussianBlur3796"
         stdDeviation="5.28" />
    </filter>
    <linearGradient
       id="linearGradient3819"
       y2="48"
       gradientUnits="userSpaceOnUse"
       x2="80"
       y1="48"
       x1="16">
      <stop
         id="stop3815"
         style="stop-color:#89b5fe"
         offset="0" />
      <stop
         id="stop3817"
         style="stop-color:#89b5fe;stop-opacity:.38760"
         offset="1" />
    </linearGradient>
    <radialGradient
       id="radialGradient3759"
       gradientUnits="userSpaceOnUse"
       cy="70.879"
       cx="48"
       gradientTransform="matrix(1.2187 -8.6867e-8 8.0716e-8 1.1324 -10.496 -9.382)"
       r="32">
      <stop
         id="stop3755"
         style="stop-color:#f8fcfe"
         offset="0" />
      <stop
         id="stop3761"
         style="stop-color:#85cfed"
         offset=".17041" />
      <stop
         id="stop3763"
         style="stop-color:#629dce"
         offset=".43049" />
      <stop
         id="stop3757"
         style="stop-color:#1048a0"
         offset="1" />
    </radialGradient>
    <linearGradient
       id="linearGradient3776"
       y2="48"
       gradientUnits="userSpaceOnUse"
       x2="63.597"
       gradientTransform="matrix(0,1,-1,0,96,0)"
       y1="48"
       x1="20">
      <stop
         id="stop3772"
         style="stop-color:#07337d"
         offset="0" />
      <stop
         id="stop3774"
         style="stop-color:#07337d;stop-opacity:0"
         offset="1" />
    </linearGradient>
    <linearGradient
       id="linearGradient3793"
       y2="48"
       gradientUnits="userSpaceOnUse"
       x2="48"
       y1="24"
       x1="48">
      <stop
         id="stop3797-9"
         style="stop-color:#fff"
         offset="0" />
      <stop
         id="stop3801"
         style="stop-color:#fff;stop-opacity:.37984"
         offset=".5" />
      <stop
         id="stop3799-8"
         style="stop-color:#fff;stop-opacity:0"
         offset="1" />
    </linearGradient>
    <linearGradient
       id="linearGradient3838"
       y2="50.727"
       gradientUnits="userSpaceOnUse"
       x2="117.41"
       y1="40.413"
       x1="122.02">
      <stop
         id="stop3834"
         style="stop-color:#fff"
         offset="0" />
      <stop
         id="stop3836"
         style="stop-color:#9e9e9e"
         offset="1" />
    </linearGradient>
    <clipPath
       id="clipPath3876"
       clipPathUnits="userSpaceOnUse">
      <rect
         id="rect3878"
         style="fill:url(#linearGradient3880)"
         rx="22.826"
         ry="22.826"
         height="84"
         width="84"
         y="6"
         x="6" />
    </clipPath>
    <linearGradient
       id="linearGradient3880"
       y2="1046.1"
       xlink:href="#ButtonColor"
       gradientUnits="userSpaceOnUse"
       x2="48"
       gradientTransform="matrix(1.05 0 0 1.05 -2.4 -1006.6)"
       y1="962.62"
       x1="48" />
    <clipPath
       id="clipPath3009"
       clipPathUnits="userSpaceOnUse">
      <path
         id="path3011"
         style="opacity:.15;fill:#fff"
         d="m-2 956.36h-96v33.562l96 25.687v-59.25z" />
    </clipPath>
  </defs>
  <metadata
     id="metadata11042">
    <rdf:RDF>
      <cc:Work
         rdf:about="">
        <dc:format>image/svg+xml</dc:format>
        <dc:type
           rdf:resource="http://purl.org/dc/dcmitype/StillImage" />
        <dc:title />
      </cc:Work>
    </rdf:RDF>
  </metadata>
  <g
     id="layer1"
     transform="translate(0 -956.36)">
    <g
       id="g3064"
       clip-path="url(#clipPath3876)"
       transform="matrix(1.0952 0 0 1.0952 -4.5714 951.79)">
      <g
         id="layer1-7">
        <path
           id="rect2419"
           d="m12 6c-3.324 0-6 2.676-6 6v72c0 3.324 2.676 6 6 6h72c3.324 0 6-2.676 6-6v-72c0-3.324-2.676-6-6-6h-72zm-2 4h6v4h-6v-4zm70 0h6v4h-6v-4zm-70 8h6v4h-6v-4zm70 0h6v4h-6v-4zm-70 8h6v4h-6v-4zm70 0h6v4h-6v-4zm-70 8h6v4h-6v-4zm70 0h6v4h-6v-4zm-70 8h6v4h-6v-4zm70 0h6v4h-6v-4zm-70 8h6v4h-6v-4zm70 0h6v4h-6v-4zm-70 8h6v4h-6v-4zm70 0h6v4h-6v-4zm-70 8h6v4h-6v-4zm70 0h6v4h-6v-4zm-70 8h6v4h-6v-4zm70 0h6v4h-6v-4zm-70 8h6v4h-6v-4zm70 0h6v4h-6v-4z"
           style="fill:url(#linearGradient3885)" />
      </g>
      <g
         id="layer5">
        <rect
           id="rect3171"
           style="opacity:.15;filter:url(#filter3794);stroke:#fff;stroke-linecap:round;stroke-width:.5;fill:url(#linearGradient3613)"
           clip-path="url(#clipPath3613)"
           rx="12"
           ry="12"
           height="66"
           width="66"
           y="15"
           x="15" />
      </g>
      <g
         id="layer4">
        <path
           id="path3811"
           d="m48 13.969c-18.774 0-34.031 15.257-34.031 34.031s15.257 34.031 34.031 34.031 34.031-15.257 34.031-34.031-15.257-34.031-34.031-34.031z"
           style="opacity:0.08;color:#000000"
           transform="matrix(.9375 0 0 .9375 3 4)" />
        <path
           id="path3807"
           d="m48 14.844c-18.299 0-33.156 14.857-33.156 33.156s14.857 33.156 33.156 33.156 33.156-14.857 33.156-33.156-14.857-33.156-33.156-33.156z"
           style="opacity:.1;color:#000000"
           transform="matrix(.9375 0 0 .9375 3 4)" />
        <path
           id="path3803"
           d="m80 48a32 32 0 1 1 -64 0 32 32 0 1 1 64 0z"
           style="opacity:.3;color:#000000"
           transform="matrix(.9375 0 0 .9375 3 4)" />
        <path
           id="path3749"
           d="m80 48a32 32 0 1 1 -64 0 32 32 0 1 1 64 0z"
           style="color:#000000;fill:url(#linearGradient3819)"
           transform="matrix(0 .9375 -.9375 0 93 3)" />
        <path
           id="path3751"
           d="m80 48a32 32 0 1 1 -64 0 32 32 0 1 1 64 0z"
           style="color:#000000;fill:url(#radialGradient3759)"
           transform="matrix(.875 0 0 .875 6 6)" />
        <path
           id="path3765"
           d="m76 48c0-15.464-12.536-28-28-28s-28 12.536-28 28 12.536 28 28 28 28-12.536 28-28zm-1 0c0 14.912-12.088 27-27 27s-27-12.088-27-27 12.088-27 27-27 27 12.088 27 27z"
           style="color:#000000;fill:url(#linearGradient3776)" />
        <path
           id="path3778"
           d="m48 22c-13.163 0-24.028 9.778-25.75 22.469 7.711-2.859 16.462-4.469 25.75-4.469s18.039 1.61 25.75 4.469c-1.722-12.691-12.587-22.469-25.75-22.469z"
           style="opacity:.9;color:#000000;fill:url(#linearGradient3793)" />
        <path
           id="path3821"
           d="m48 18c-16.569 0-30 13.431-30 30 0 0.169-0.0028 0.33167 0 0.5 0.27-16.335 13.6-29.5 30-29.5s29.73 13.165 30 29.5c0.003-0.168 0-0.331 0-0.5 0-16.569-13.431-30-30-30z"
           style="opacity:.5;color:#000000;fill:#fff" />
        <path
           id="path3846"
           d="m117.47 32.344c-0.27561-0.02085-0.5653 0.05315-0.90625 0.25-0.68178 0.39362-0.74553 0.88519-0.90625 1.4688-0.16072 0.58356-0.27813 1.3004-0.375 2.125-0.19 1.649-0.28 3.729-0.28 5.812 0 2.0825 0.0875 4.1634 0.28125 5.8125 0.0969 0.82457 0.21428 1.5414 0.375 2.125 0.16072 0.58356 0.22447 1.0751 0.90625 1.4688 0.6819 0.3937 1.1328 0.21508 1.7188 0.0625 0.5859-0.15258 1.2684-0.42162 2.0312-0.75 1.5257-0.65677 3.3831-1.615 5.1875-2.6562 1.8044-1.0413 3.5743-2.1639 4.9062-3.1562 0.66599-0.49617 1.1998-0.94405 1.625-1.375 0.42522-0.43095 0.84375-0.74371 0.84375-1.5312 0-0.78754-0.41853-1.1003-0.84375-1.5312-0.42522-0.43095-0.95901-0.87883-1.625-1.375-1.332-0.99235-3.1019-2.115-4.9062-3.1562-1.8044-1.0413-3.6618-1.9995-5.1875-2.6562-0.76285-0.32838-1.4454-0.59742-2.0312-0.75-0.29295-0.07629-0.53689-0.16665-0.8125-0.1875z"
           style="opacity:.1;color:#000000;fill:#00086e"
           transform="matrix(1.3023 0 0 1.2604 -111.91 -3.9381)" />
        <path
           id="path3840"
           d="m132 42c0 1.7321-13.5 9.5263-15 8.6603-1.5-0.86602-1.5-16.454 0-17.321 1.5-0.86602 15 6.9282 15 8.6603z"
           style="opacity:.3;color:#000000;fill:#00086e"
           transform="matrix(1.3023 0 0 1.2604 -111.91 -3.9381)" />
        <path
           id="path3830"
           d="m132 42c0 1.7321-13.5 9.5263-15 8.6603-1.5-0.86602-1.5-16.454 0-17.321 1.5-0.86602 15 6.9282 15 8.6603z"
           style="color:#000000;fill:url(#linearGradient3838)"
           transform="matrix(1.3023 0 0 1.2604 -111.91 -4.9381)" />
      </g>
    </g>
    <rect
       id="rect3003"
       style="opacity:.15;fill:#fff"
       transform="translate(98 3.8281e-7)"
       clip-path="url(#clipPath3009)"
       rx="25"
       ry="25"
       height="92"
       width="92"
       y="958.36"
       x="-96" />
  </g>
</svg>
