<svg height="96" width="96" xmlns="http://www.w3.org/2000/svg" xmlns:sodipodi="http://sodipodi.sourceforge.net/DTD/sodipodi-0.dtd" xmlns:inkscape="http://www.inkscape.org/namespaces/inkscape">
 <defs>
  <linearGradient x1="53.06" x2="50.45" y1="1042.44" y2="965.46" gradientUnits="userSpaceOnUse" id="linearGradient5160" inkscape:collect="always">
   <stop stop-color="#bcb5ac"/>
   <stop stop-color="#e9e7e4" offset="1"/>
  </linearGradient>
  <radialGradient cy="48" r="32" gradientUnits="userSpaceOnUse" id="radialGradient6399" cx="48" inkscape:collect="always" gradientTransform="matrix(1 0 0 1 -114.82 964.06)">
   <stop stop-color="#fff"/>
   <stop stop-color="#fff" stop-opacity="0.498" offset="0.7"/>
   <stop stop-color="#fff" stop-opacity="0" offset="1"/>
  </radialGradient>
 </defs>
 <g inkscape:label="Layer 1" inkscape:groupmode="layer" transform="matrix(1 0 0 1 0 -956.36)">
  <rect x="8.751" rx="10.769" y="964.14" fill="url(#linearGradient5160)" fill-opacity="1" stroke="none" height="80" width="80"/>
  <path d="m 8.75125,1031.3354 0,2.0133 c 0,5.966 4.793063,10.7905 10.758946,10.7905 l 58.450649,0 c 5.965883,0 10.790405,-4.8245 10.790405,-10.7905 l 0,-2.0133 c 0,5.9659 -4.824522,10.7904 -10.790405,10.7904 l -58.450649,0 c -5.965883,0 -10.758946,-4.8245 -10.758946,-10.7904 z" fill="#000000" fill-opacity="1" stroke="none" opacity="0.3" inkscape:connector-curvature="0"/>
  <path d="m -34.82159,1012.0571 a 32,32 0 0 1 -64,0 32,32 0 1 1 64,0 z" fill="url(#radialGradient6399)" color="#000000" inkscape:connector-curvature="0"/>
  <path d="m 48.75125,972.13933 c -3.2715,0 -6.427406,0.52608 -9.375,1.49419 v 28.50568 c 0,5.1776 4.197375,9.375 9.375,9.375 5.177625,0 9.375,-4.1974 9.375,-9.375 0,-5.17783 -4.197188,-9.37504 -9.375,-9.37504 v -9.37502 c 10.355625,0 18.75,8.39442 18.75,18.75006 0,10.3556 -8.394375,18.75 -18.75,18.75 -10.355625,0 -18.75,-8.3944 -18.75,-18.75 v -23.4085 c -6.853125,5.49844 -11.25,13.93876 -11.25,23.4085 0,16.5684 13.431563,30 30,30 16.568438,0 30,-13.4316 30,-30 0,-16.5685 -13.431562,-30.00006 -30,-30.00006 z" fill="#6aaa3f" color="#000000" fill-opacity="1" inkscape:connector-curvature="0"/>
  <path d="m -66.82159,992.0571 v 1 c 10.878,0 19.735,8.6854 20,19.5 0.0041,-0.1662 0,-0.3328 0,-0.5 0,-11.046 -8.954,-20 -20,-20 z m -10,20 v 1 c 0,5.5228 4.4772,10 10,10 5.5228,0 10,-4.4772 10,-10 0,-0.1674 -0.02312,-0.3346 -0.03125,-0.5 -0.26,5.291 -4.614,9.5 -9.969,9.5 -5.523,0 -10,-4.477 -10,-10 z m 42,0.5 c -0.267,17.443 -14.494,31.5 -32,31.5 -17.465,0 -31.668,-13.99 -32,-31.375 -0.0015,0.1258 0,0.2489 0,0.375 0,17.673 14.327,32 32,32 17.673,0 32,-14.327 32,-32 0,-0.1667 0.0025,-0.3339 0,-0.5 z" fill="#ffffff" color="#000000" opacity="0.7" inkscape:connector-curvature="0"/>
 </g>
</svg>
