<svg height="96" width="96" xmlns="http://www.w3.org/2000/svg" xmlns:xlink="http://www.w3.org/1999/xlink" xmlns:sodipodi="http://sodipodi.sourceforge.net/DTD/sodipodi-0.dtd" xmlns:inkscape="http://www.inkscape.org/namespaces/inkscape">
 <defs>
  <linearGradient x2="0" y1="90" y2="5.988" gradientUnits="userSpaceOnUse" id="linearGradient3885">
   <stop stop-color="#141414"/>
   <stop stop-color="#464646" offset="1"/>
  </linearGradient>
  <linearGradient x2="0" y1="20.221" y2="138.66" gradientUnits="userSpaceOnUse" id="linearGradient3613">
   <stop stop-color="#0097f9"/>
   <stop stop-color="#fff" stop-opacity="0" offset="1"/>
  </linearGradient>
  <clipPath id="clipPath3613">
   <rect x="6" rx="6" y="6" height="84" width="84"/>
  </clipPath>
  <filter x="-0.192" y="-0.192" height="1.384" color-interpolation-filters="sRGB" id="filter3794" width="1.384">
   <feGaussianBlur stdDeviation="5.28"/>
  </filter>
  <linearGradient x1="16" x2="80" gradientUnits="userSpaceOnUse" id="linearGradient3819">
   <stop stop-color="#89b5fe"/>
   <stop stop-color="#89b5fe" stop-opacity="0.388" offset="1"/>
  </linearGradient>
  <radialGradient cy="70.879" r="32" gradientUnits="userSpaceOnUse" id="radialGradient3759" cx="48" gradientTransform="matrix(1.2187 0 0 1.1324 -10.496 -9.382)">
   <stop stop-color="#f8fcfe"/>
   <stop stop-color="#85cfed" offset="0.17"/>
   <stop stop-color="#629dce" offset="0.43"/>
   <stop stop-color="#1048a0" offset="1"/>
  </radialGradient>
  <linearGradient x1="20" x2="63.6" gradientUnits="userSpaceOnUse" id="linearGradient3776" gradientTransform="matrix(0 1 -1 0 96 0)">
   <stop stop-color="#07337d"/>
   <stop stop-color="#07337d" stop-opacity="0" offset="1"/>
  </linearGradient>
  <linearGradient x2="0" y1="24" y2="48" gradientUnits="userSpaceOnUse" id="linearGradient3793">
   <stop stop-color="#fff"/>
   <stop stop-color="#fff" stop-opacity="0.38" offset="0.5"/>
   <stop stop-color="#fff" stop-opacity="0" offset="1"/>
  </linearGradient>
  <linearGradient x1="122.02" x2="117.41" y1="40.41" y2="50.727" gradientUnits="userSpaceOnUse" id="linearGradient3838">
   <stop stop-color="#fff"/>
   <stop stop-color="#9e9e9e" offset="1"/>
  </linearGradient>
  <clipPath clipPathUnits="userSpaceOnUse" id="clipPath3876">
   <rect x="6" rx="22.826" y="6" height="84" width="84"/>
  </clipPath>
  <clipPath clipPathUnits="userSpaceOnUse" id="clipPath3009">
   <path d="m-2 956.36h-96v33.562l96 25.687v-59.25z"/>
  </clipPath>
  <path d="m80 48a32 32 0 1 1 -64 0 32 32 0 1 1 64 0z" color="#000000" id="SVGCleanerId_0"/>
  <path d="m132 42c0 1.7321-13.5 9.5263-15 8.6603-1.5-0.86602-1.5-16.454 0-17.321 1.5-0.86602 15 6.9282 15 8.6603z" color="#000000" id="SVGCleanerId_1"/>
 </defs>
 <g transform="matrix(1 0 0 1 0 -956.36)">
  <g clip-path="url(#clipPath3876)" transform="matrix(1.0952 0 0 1.0952 -4.571 951.79)">
   <path d="m12 6c-3.324 0-6 2.676-6 6v72c0 3.324 2.676 6 6 6h72c3.324 0 6-2.676 6-6v-72c0-3.324-2.676-6-6-6h-72zm-2 4h6v4h-6v-4zm70 0h6v4h-6v-4zm-70 8h6v4h-6v-4zm70 0h6v4h-6v-4zm-70 8h6v4h-6v-4zm70 0h6v4h-6v-4zm-70 8h6v4h-6v-4zm70 0h6v4h-6v-4zm-70 8h6v4h-6v-4zm70 0h6v4h-6v-4zm-70 8h6v4h-6v-4zm70 0h6v4h-6v-4zm-70 8h6v4h-6v-4zm70 0h6v4h-6v-4zm-70 8h6v4h-6v-4zm70 0h6v4h-6v-4zm-70 8h6v4h-6v-4zm70 0h6v4h-6v-4zm-70 8h6v4h-6v-4zm70 0h6v4h-6v-4z" fill="url(#linearGradient3885)"/>
   <rect x="15" stroke-width="0.5" rx="12" y="15" clip-path="url(#clipPath3613)" fill="url(#linearGradient3613)" stroke="#fff" height="66" filter="url(#filter3794)" opacity="0.15" width="66" stroke-linecap="round"/>
   <path d="m48 13.969c-18.774 0-34.031 15.257-34.031 34.031s15.257 34.031 34.031 34.031 34.031-15.257 34.031-34.031-15.257-34.031-34.031-34.031z" color="#000000" opacity="0.08" transform="matrix(0.9375 0 0 0.9375 3 4)"/>
   <path d="m48 14.844c-18.299 0-33.156 14.857-33.156 33.156s14.857 33.156 33.156 33.156 33.156-14.857 33.156-33.156-14.857-33.156-33.156-33.156z" color="#000000" opacity="0.1" transform="matrix(0.9375 0 0 0.9375 3 4)"/>
   <use xlink:href="#SVGCleanerId_0" opacity="0.3" transform="matrix(0.9375 0 0 0.9375 3 4)"/>
   <use xlink:href="#SVGCleanerId_0" fill="url(#linearGradient3819)" transform="matrix(0 0.9375 -0.9375 0 93 3)"/>
   <use xlink:href="#SVGCleanerId_0" fill="url(#radialGradient3759)" transform="matrix(0.875 0 0 0.875 6 6)"/>
   <path d="m76 48c0-15.464-12.536-28-28-28s-28 12.536-28 28 12.536 28 28 28 28-12.536 28-28zm-1 0c0 14.912-12.088 27-27 27s-27-12.088-27-27 12.088-27 27-27 27 12.088 27 27z" fill="url(#linearGradient3776)" color="#000000"/>
   <path d="m48 22c-13.163 0-24.028 9.778-25.75 22.469 7.711-2.859 16.462-4.469 25.75-4.469s18.039 1.61 25.75 4.469c-1.722-12.691-12.587-22.469-25.75-22.469z" fill="url(#linearGradient3793)" color="#000000" opacity="0.9"/>
   <path d="m48 18c-16.569 0-30 13.431-30 30 0 0.169-0.0028 0.33167 0 0.5 0.27-16.335 13.6-29.5 30-29.5s29.73 13.165 30 29.5c0.003-0.168 0-0.331 0-0.5 0-16.569-13.431-30-30-30z" fill="#fff" color="#000000" opacity="0.5"/>
   <path d="m117.47 32.344c-0.27561-0.02085-0.5653 0.05315-0.90625 0.25-0.68178 0.39362-0.74553 0.88519-0.90625 1.4688-0.16072 0.58356-0.27813 1.3004-0.375 2.125-0.19 1.649-0.28 3.729-0.28 5.812 0 2.0825 0.0875 4.1634 0.28125 5.8125 0.0969 0.82457 0.21428 1.5414 0.375 2.125 0.16072 0.58356 0.22447 1.0751 0.90625 1.4688 0.6819 0.3937 1.1328 0.21508 1.7188 0.0625 0.5859-0.15258 1.2684-0.42162 2.0312-0.75 1.5257-0.65677 3.3831-1.615 5.1875-2.6562 1.8044-1.0413 3.5743-2.1639 4.9062-3.1562 0.66599-0.49617 1.1998-0.94405 1.625-1.375 0.42522-0.43095 0.84375-0.74371 0.84375-1.5312 0-0.78754-0.41853-1.1003-0.84375-1.5312-0.42522-0.43095-0.95901-0.87883-1.625-1.375-1.332-0.99235-3.1019-2.115-4.9062-3.1562-1.8044-1.0413-3.6618-1.9995-5.1875-2.6562-0.76285-0.32838-1.4454-0.59742-2.0312-0.75-0.29295-0.07629-0.53689-0.16665-0.8125-0.1875z" fill="#00086e" color="#000000" opacity="0.1" transform="matrix(1.3023 0 0 1.2604 -111.91 -3.938)"/>
   <use xlink:href="#SVGCleanerId_1" fill="#00086e" opacity="0.3" transform="matrix(1.3023 0 0 1.2604 -111.91 -3.938)"/>
   <use xlink:href="#SVGCleanerId_1" fill="url(#linearGradient3838)" transform="matrix(1.3023 0 0 1.2604 -111.91 -4.938)"/>
  </g>
  <rect x="-96" rx="25" y="958.36" clip-path="url(#clipPath3009)" fill="#fff" height="92" opacity="0.15" width="92" transform="matrix(1 0 0 1 98 0)"/>
 </g>
</svg>
