<svg height="96" width="96" xmlns="http://www.w3.org/2000/svg" xmlns:sodipodi="http://sodipodi.sourceforge.net/DTD/sodipodi-0.dtd" xmlns:inkscape="http://www.inkscape.org/namespaces/inkscape">
 <defs>
  <linearGradient x1="53.06" x2="50.45" y1="1042.44" y2="965.46" gradientUnits="userSpaceOnUse" id="linearGradient5160" inkscape:collect="always">
   <stop stop-color="#bcb5ac"/>
   <stop stop-color="#e9e7e4" offset="1"/>
  </linearGradient>
 </defs>
 <g inkscape:label="Layer 1" inkscape:groupmode="layer" transform="matrix(1 0 0 1 0 -956.36)">
  <rect x="8.751" rx="10.769" y="964.14" fill="url(#linearGradient5160)" fill-opacity="1" stroke="none" height="80" width="80"/>
  <path d="m 8.75125,1031.3354 0,2.0133 c 0,5.966 4.793063,10.7905 10.758946,10.7905 l 58.450649,0 c 5.965883,0 10.790405,-4.8245 10.790405,-10.7905 l 0,-2.0133 c 0,5.9659 -4.824522,10.7904 -10.790405,10.7904 l -58.450649,0 c -5.965883,0 -10.758946,-4.8245 -10.758946,-10.7904 z" fill="#000000" fill-opacity="1" stroke="none" opacity="0.3" inkscape:connector-curvature="0"/>
  <g transform="matrix(1.02743 0 0 1.02743 129.94 946.6)">
   <path d="m -86.682,70.021 c 0,0 -2.2303,1.2982 1.5891,1.7362 4.6278,0.52836 6.9927,0.45227 12.091,-0.51144 0,0 1.3431,0.84021 3.2156,1.5679 -11.433,4.8982 -25.875,-0.28382 -16.896,-2.7927 z" fill="#0074bd" fill-rule="evenodd" inkscape:connector-curvature="0"/>
   <path d="m -88.08,63.628 c 0,0 -2.5019,1.8524 1.3204,2.2474 4.944,0.5104 8.8468,0.55226 15.604,-0.74823 0,0 0.93244,0.94717 2.4009,1.4648 -13.821,4.0426 -29.214,0.31805 -19.326,-2.964 z" fill="#0074bd" fill-rule="evenodd" inkscape:connector-curvature="0"/>
   <path d="m -76.304,52.781 c 2.8185,3.2444 -0.73906,6.1616 -0.73906,6.1616 0,0 7.1525,-3.6917 3.8684,-8.3168 -3.0684,-4.3112 -5.4208,-6.4528 7.3147,-13.839 1.29e-4,0 -19.992,4.9918 -10.444,15.994 z" fill="#ea2d2e" fill-rule="evenodd" inkscape:connector-curvature="0"/>
   <path d="m -61.183,74.75 c 0,0 1.6511,1.3611 -1.8185,2.4137 -6.5975,1.9983 -27.465,2.6011 -33.261,0.07996 -2.082,-0.90686 1.8242,-2.1638 3.0532,-2.4293 1.2815,-0.27723 2.0132,-0.22659 2.0132,-0.22659 -2.3172,-1.6317 -14.977,3.2046 -6.4297,4.5917 23.308,3.7781 42.488,-1.7017 36.442,-4.4294 z" fill="#0074bd" fill-rule="evenodd" inkscape:connector-curvature="0"/>
   <path d="m -85.609,57.003 c 0,0 -10.613,2.5215 -3.7582,3.4379 2.8952,0.38742 8.6634,0.29828 14.04,-0.15282 4.393,-0.36869 8.8016,-1.1572 8.8016,-1.1572 0,0 -1.5479,0.664 -2.6685,1.4288 -10.78,2.8352 -31.6,1.5148 -25.605,-1.3838 5.0675,-2.4515 9.1898,-2.1729 9.1898,-2.1729 z" fill="#0074bd" fill-rule="evenodd" inkscape:connector-curvature="0"/>
   <path d="m -66.569,67.644 c 10.957,-5.6922 5.8904,-11.163 2.3541,-10.426 -0.86475,0.18047 -1.2527,0.33678 -1.2527,0.33678 0,0 0.32218,-0.50472 0.93567,-0.72187 6.9959,-2.4584 12.375,7.2531 -2.256,11.099 -1.3e-4,0 0.1682,-0.15244 0.21896,-0.28808 z" fill="#0074bd" fill-rule="evenodd" inkscape:connector-curvature="0"/>
   <path d="m -73.174,24.859 c 0,0 6.0668,6.0703 -5.756,15.402 -9.4811,7.4886 -2.1617,11.757 -0.0034,16.636 -5.5348,-4.9933 -9.5945,-9.3895 -6.8715,-13.48 3.9987,-6.0043 15.078,-8.9163 12.631,-18.558 z" fill="#ea2d2e" fill-rule="evenodd" inkscape:connector-curvature="0"/>
   <path d="m -84.532,83.074 c 10.515,0.67227 26.667,-0.37411 27.049,-5.3501 0,0 -0.73479,1.8863 -8.6909,3.383 -8.9758,1.6898 -20.049,1.4931 -26.614,0.40912 0,0 1.3449,1.1132 8.2557,1.5579 z" fill="#0074bd" fill-rule="evenodd" inkscape:connector-curvature="0"/>
  </g>
 </g>
</svg>
