<svg height="96" width="96" xmlns="http://www.w3.org/2000/svg" xmlns:xlink="http://www.w3.org/1999/xlink" xmlns:sodipodi="http://sodipodi.sourceforge.net/DTD/sodipodi-0.dtd" xmlns:inkscape="http://www.inkscape.org/namespaces/inkscape">
 <defs>
  <linearGradient x2="0" y1="90" y2="5.988" gradientUnits="userSpaceOnUse" id="linearGradient3706">
   <stop stop-color="#780000"/>
   <stop stop-color="#e62929" offset="1"/>
  </linearGradient>
  <radialGradient cy="46.582" r="42" gradientUnits="userSpaceOnUse" id="radialGradient3677" cx="48" gradientTransform="matrix(1.7146 0 0 1.1091 -34.3 -5.082)">
   <stop stop-color="#ff8080"/>
   <stop stop-color="#ff8080" stop-opacity="0" offset="1"/>
  </radialGradient>
  <linearGradient x2="0" y1="20.221" y2="138.66" gradientUnits="userSpaceOnUse" id="linearGradient2885">
   <stop stop-color="#fff"/>
   <stop stop-color="#fff" stop-opacity="0" offset="1"/>
  </linearGradient>
  <clipPath id="clipPath3613">
   <use xlink:href="#SVGCleanerId_0"/>
  </clipPath>
  <filter x="-0.192" y="-0.192" height="1.384" color-interpolation-filters="sRGB" id="filter3794" width="1.384">
   <feGaussianBlur stdDeviation="5.28"/>
  </filter>
  <linearGradient x2="0" y1="32.19" y2="106.1" gradientUnits="userSpaceOnUse" id="linearGradient3147" gradientTransform="matrix(0.79257 0 0 0.79257 -12.632 -6.799)">
   <stop stop-color="#fafafa"/>
   <stop stop-color="#dcdcdc" offset="0.5"/>
   <stop stop-color="#c8c8c8" offset="0.5"/>
   <stop stop-color="#ebebeb" offset="1"/>
  </linearGradient>
  <clipPath clipPathUnits="userSpaceOnUse" id="clipPath3838">
   <rect x="6" rx="22.826" y="6" height="84" width="84"/>
  </clipPath>
  <clipPath clipPathUnits="userSpaceOnUse" id="clipPath3009">
   <path d="m-2 956.36h-96v33.562l96 25.687v-59.25z"/>
  </clipPath>
  <rect x="6" rx="6" y="6" height="84" id="SVGCleanerId_0" width="84"/>
 </defs>
 <g transform="matrix(1 0 0 1 0 -956.36)">
  <g clip-path="url(#clipPath3838)" transform="matrix(1.0952 0 0 1.0952 -4.571 951.79)">
   <use xlink:href="#SVGCleanerId_0" fill="url(#linearGradient3706)"/>
   <path d="m36.274 6.0817c1.6501 2.2167 0.11258 5.9183 2.6015 5.8816 1.2119 1.714-2.4155 0.5113 0.20359 1.8323 1.5061 1.1866-1.5934 1.8645 0.27179 2.9294-2.1497 1.1097 0.34844 5.804 1.9451 6.9788 2.628 2.2132 1.1622-4.6857 4.0945-5.0446 1.5934-1.8197 4.3918-2.9878 6.3793-4.8184-1.9423-0.15774-3.0765-1.3671-1.237-2.1163 3.3855 3.4704 0.8489-1.6435-1.0251-2.4532 1.8134-0.57705 3.577-0.15448 3.3254-1.6514 1.9163-1.4025-1.8423-1.8553-3.1839-1.5383h-13.375zm-27.802 1.4478c-2.4497 0.6982-2.6206 6.5545-0.1583 3.3025 0.6043-1.3351 3.3973-2.9445 0.1583-3.3025zm11.446 0.20359c-1.4123 2.2153 0.20492 3.9915 1.3799 1.2894 0.83171-1.1283-0.61793-1.2481-1.3799-1.2894zm3.529 0.49767c-2.7288 1.2652-0.6726 4.2156-0.60506 4.8717 2.8746 0.99483 4.4732-0.65044 5.5607 2.1615 2.7352 1.5769-0.05382 4.3171-1.0805 5.0307 1.8493-1.6112 5.4042 4.3805 4.4722 1.2149-1.1118-0.81208 2.9852 1.3046 0.85962-1.3347-1.9561-3.1527 0.15527-1.4114 0.97995-0.67561 2.8049-2.5161-3.1736-2.8202-1.6812-5.4096-1.3078-1.0596-3.0229-4.2695-5.3387-3.6421-1.5502 2.0056-0.21415-4.37-2.4886-1.1796-0.11789 1.7834-0.04285 4.0465-0.70571 0.95682-0.44407-0.54087 0.764-1.7983 0.0273-1.9942zm-5.5649 0.022621c-1.8316 0.61085-1.7332 3.0865 0.51896 3.3519 0.77144-0.87963 0.30649-3.1853-0.51896-3.3519zm-7.1484 0.79175c-2.3791 0.56388-1.408 2.4829-0.67957 3.0233-2.9449 0.73792 4.4957 0.94313 0.79268 1.4105-3.0808 1.2308 2.9667 2.6809 3.9588 1.2216 3.8044 0.93074 0.13691-3.0465-0.19704-5.2025-1.6128-1.7315-0.06366 3.9915-1.5219 0.18441-0.50879 1.1305-2.1265 0.1666-2.353-0.63725zm75.601 0.24884c-3.1924 1.2499 1.9842 5.9664 0.69764 1.6755-0.12816-0.51812 0.2882-1.8871-0.69764-1.6755zm-66.665 1.9c-2.2941 2.1567 2.916 3.9402-0.6589 5.5469-0.53602-2.0029-1.4583 1.0021-3.5035-0.61542-3.5159 1.4645-5.3139-0.76283-8.2575-2.2896-1.768-0.22016-1.1038 1.6805-1.2209 3.4602v14.755c1.7335 1.8245 0.67633 0.80498 0 0.30175 0.95147 3.2416-0.41957 7.9802 3.3309 9.8658 0.63756 1.183 3.3129 6.2231 3.4362 4.715-1.3412-1.4051-2.7174-5.6174-0.4479-1.863 2.0328 3.5688 4.7747 5.8835 8.7805 6.7328 2.1901 0.74522 3.9912 3.307 5.9171 2.7433 1.0891 2.872-3.2274 5.6299 0.14491 8.3086 1.7605 2.7118 4.7162 4.4904 3.116 8.2976-1.1191 3.7183-0.63993 7.7697-1.6078 11.234-0.30039 2.1087 2.938 7.461 2.6575 3.1751 0.94557-2.9784 0.92064-6.2556 3.1476-8.3648 3.0471 0.02413 0.58238-3.2778 3.607-2.8464 1.8456-2.4201 2.3802-5.3071 5.4949-6.2681 0.37204-2.9376 5.1788-7.4366 0.21314-8.5803-1.3496-0.66545-4.8245-0.90473-4.559-1.2331 0.53803-2.9149-4.4935-3.7447-6.6342-4.9373-2.8108-1.9958-7.0342 3.3156-8.0245-1.261-0.59088-1.4399-2.7513-1.4633-1.7584-3.6852-1.7894 1.7803-5.2893 1.2392-4.373-2.1989 1.3916-2.8956 6.7356-3.0326 7.6463 0.45028-1.2644-3.8412 2.4439-6.8314 4.5025-9.5642 0.41916-1.3062 2.9097-2.4284 2.0527-0.69242 1.4602-0.05269 3.6733-2.6886 1.0794-1.472-0.03668-2.4039-2.273-1.7203-2.998-1.3789 1.3438-2.1336 8.245-0.96713 5.3551-4.4546-2.2393-0.90768-2.053-6.2044-4.318-3.2536 0.1906-1.8181-4.61-5.3771-4.5053-2.3283 0.58599 2.7281 0.10713 5.8709-1.1399 7.6591-0.26024-3.9976-7.0757-3.1141-6.1994-7.374 1.2694-2.0303 2.7529-4.8379 2.8942-4.5853 2.275-0.86894 4.1046-3.3965 1.4678-5.0581-0.14092 1.4482-1.983 4.4361-1.7237 0.82232-1.7058 2.0232-1.3162-3.2194-2.9138-3.7631zm54.45 1.4025c-3.9959 0.97784-5.5801 4.7958-7.5568 7.9582-2.9139 1.3142-2.8029 6.9583 0.45241 5.1557 0.87128 1.5223-0.6095 3.9217 1.9283 1.9312 2.047-2.7099 0.35794-7.0928 3.8414-8.8015 0.25373 1.3286-3.2133 6.2899 0.83699 5.4744 3.6616 0.13821-2.6619 0.36497-0.881 2.7047-1.8503-1.0982-0.88883 2.9993-3.304 2.0458-2.0923 1.1385-3.4643-0.52863-2.985-2.355-1.646 0.96057 0.5177 3.6704-2.3396 3.8333-0.64004 2.2737-5.9034 1.931-2.9102 4.2462 1.3289 3.4454-4.9515 0.21599-3.1685 4.3505 1.5254 4.0884 4.7224-1.3547 6.0194-2.4063 2.5025-1.9419 6.2107 3.3111 3.9588 3.5063 2.5251-0.33891 2.0062-2.7412-0.01696-3.6713-1.0927-2.8349 3.459 1.3903 3.2066 2.8117 1.6059 3.0083 0.94462-3.0801 2.5789-0.38456-0.19081 2.8434 6.5742 0.66856 3.3444 4.2924-2.7769 0.55951-5.5101-0.71614-7.9008 0.10093-2.2251-0.01969-2.1135-2.398-2.9236-2.9935-2.8304 0.23004-6.3279 0.20403-8.2228 2.4914-2.049 2.8123-5.0038 6.7438-2.7705 10.335 2.2349 5.3215 7.7772 0.27603 10.963 3.4188 0.94694 1.3104-0.82059 2.868 1.2967 4.2874 0.7967 3.0235-0.90449 5.8943 1.0523 8.7846 1.0118 2.7182 1.6398 6.7866 5.4058 4.3028 3.9858-2.3994 2.9242-6.8227 6.2129-9.2726-2.6023-5.0381 3.1836-7.2471 4.6272-11.337-3.1539 0.46191-5.9638-2.6838-6.7258-5.8499-1.3249-1.5379-0.98368-3.8055 0.49633-0.91647 2.0343 1.9719 2.0782 7.8231 5.8413 4.813 1.7203-0.71984 6.4186-3.4657 2.6751-4.7153-2.414 1.748-5.076-5.225-1.533-1.181 2.576 1.094 4.38 1.745 4.38-1.88v-29.497c-0.8024 0.82028-2.8638 2.3352-3.9043 1.3286-1.7904 0.24941-4.1539 3.7343-3.5912 0.36554-1.5562-0.10309-0.27858 3.0205-2.4166 3.1079-0.21529 1.6059-2.1599 0.29738-1.4294 1.8224-1.5006-1.0649-2.7707-4.427 0.18615-2.3167 4.391-1.3178-2.8956-4.2904-3.458-5.0089 0.94546-0.22662-1.0286-1.2122-1.2668-0.88224zm-36.24 0.88224c-1.4615 1.2182 2.7785 1.4476 0 0zm-19.522 0.65602c-1.6347 1.7105 2.6033 1.5724 0 0zm9.4784 1.6966c-1.2379 2.0286 1.829 0.74894 0 0zm27.101 2.3979c-1.4492 1.6691-3.3621-0.43926-3.3932 0.99535 0.26264 0.43347 1.3147 3.5273 3.6194 1.2442 1.237-0.52171 0.74996-1.8369-0.22621-2.2395zm-30.856 0.99535c-2.7488 2.4015 4.6683 2.6227 0.58232 0.27543l-0.58232-0.27543zm36.262 6.6507c-1.9791 1.291 0.94943 4.0328-0.04308 5.3207-1.24 2.162 4.608-0.152 1.485-1.877-0.223-1.481-1.83-3.289-1.442-3.443zm-1.3347 2.6015c-2.7574 0.77986-0.62596 4.8062 0.35066 1.014 0.05497-0.21986 0.12936-1.0214-0.35066-1.014zm-22.078 2.919c-2.5652 1.7498-0.39843 3.4964 1.4816 2.7091-0.38596-1.0558-1.4642-1.721-1.4816-2.7091zm48.455 2.9408c1.2799 0.6462-2.3455 1.7501-0.04983 2.8874 1.336 1.5717 0.83231 4.9455-1.3392 2.5576 0.40344-2.666-2.9436-4.657 1.389-5.445zm-6.5829 0.02262c-0.17367 1.7128 3.694 4.3751-0.47505 3.5063-2.2047 0.25872-5.507-0.06739-2.7294-2.8157 0.87765-0.52708 3.1821 1.8185 1.9829-0.37395 0.42514-0.02713 0.82108-0.18767 1.2216-0.3167zm-12.736 3.7099c-1.6081 1.0364 1.112 1.8311 0 0zm-40.379 9.659c-0.2711 0.9048 5.086 1.8218 1.3893 0.37215l-0.551-0.194-0.838-0.178zm4.1624 1.2894c-1.6249 1.6502 3.3478 0.49302 0 0zm54.337 15.134c-3.5307 0.09113-3.0613 9.2016-0.60014 3.8108 0.23341-1.1698 1.1689-2.7138 0.60014-3.8108z" fill="url(#radialGradient3677)" opacity="0.7"/>
   <rect x="15" stroke-width="0.5" rx="12" y="15" clip-path="url(#clipPath3613)" fill="url(#linearGradient2885)" stroke="#fff" height="66" filter="url(#filter3794)" opacity="0.15" width="66" stroke-linecap="round"/>
   <path d="m48 19.703c-13.243 0-24 13.109-24 29.273s10.757 29.32 24 29.32 24-13.156 24-29.32c0-16.163-10.757-29.273-24-29.273zm0 3.75c10.971 0 12.023 11.424 12.023 25.523 0 14.1-1.458 25.547-12.023 25.547-10.751 0-12.023-11.447-12.023-25.546 0-14.1 1.238-25.524 12.023-25.524z" opacity="0.3"/>
   <path d="m48 18.703c-13.243 0-24 13.109-24 29.273s10.757 29.32 24 29.32 24-13.156 24-29.32c0-16.163-10.757-29.273-24-29.273zm0 3.75c10.971 0 12.023 11.424 12.023 25.523 0 14.1-1.458 25.547-12.023 25.547-10.751 0-12.023-11.447-12.023-25.546 0-14.1 1.238-25.524 12.023-25.524z" fill="url(#linearGradient3147)"/>
   <path d="m48 21.438c-10.785 0-12.031 11.432-12.031 25.531 0 0.17085-0.000388 0.32995 0 0.5 0.031-13.862 1.377-25.031 12.031-25.031 9.5998 0 11.617 8.7741 11.969 20.406-0.271-12.117-2.102-21.406-11.969-21.406zm-24 26.031c-0.0023 0.16763 0 0.3317 0 0.5 0 16.164 10.757 29.344 24 29.344s24-13.18 24-29.344c0-0.1683 0.0023-0.33237 0-0.5-0.221 15.932-10.895 28.843-24 28.843s-23.779-12.911-24-28.843z" opacity="0.15"/>
   <path d="m48 18.688c-13.243 0-24 13.117-24 29.281 0 0.1683-0.0023 0.33236 0 0.5 0.22078-15.932 10.895-28.781 24-28.781s23.779 12.85 24 28.781c0.0023-0.16764 0-0.3317 0-0.5 0-16.164-10.757-29.281-24-29.281zm-12.031 29.781c-0.000383 0.17108 0 0.32811 0 0.5 0 14.1 1.2798 25.562 12.031 25.562 10.156 0 11.881-10.594 12-23.938-0.19891 12.875-2.0952 22.938-12 22.938-10.621 0-12-11.199-12.031-25.062z" fill="#fff" opacity="0.75"/>
  </g>
  <rect x="-96" rx="25" y="958.36" clip-path="url(#clipPath3009)" fill="#fff" height="92" opacity="0.15" width="92" transform="matrix(1 0 0 1 98 0)"/>
 </g>
</svg>
