<svg height="96" width="96" xmlns="http://www.w3.org/2000/svg" xmlns:xlink="http://www.w3.org/1999/xlink" xmlns:sodipodi="http://sodipodi.sourceforge.net/DTD/sodipodi-0.dtd" xmlns:inkscape="http://www.inkscape.org/namespaces/inkscape">
 <defs>
  <linearGradient x2="0" xlink:href="#linearGradient3737" y1="6" y2="63.893" gradientUnits="userSpaceOnUse" id="linearGradient3188"/>
  <linearGradient id="linearGradient3737">
   <stop stop-color="#fff"/>
   <stop stop-color="#fff" stop-opacity="0" offset="1"/>
  </linearGradient>
  <linearGradient x1="6" x2="32.03" gradientUnits="userSpaceOnUse" id="linearGradient3287" gradientTransform="matrix(-1 0 0 1 96.03 0)">
   <stop stop-color="#7a7a7a"/>
   <stop stop-color="#f9f9f9" offset="0.146"/>
   <stop stop-color="#c9c9c9" offset="0.373"/>
   <stop stop-color="#dedede" stop-opacity="0" offset="1"/>
  </linearGradient>
  <linearGradient x1="6" x2="32" gradientUnits="userSpaceOnUse" id="linearGradient3279">
   <stop stop-color="#7a7a7a"/>
   <stop stop-color="#f9f9f9" offset="0.203"/>
   <stop stop-color="#c9c9c9" offset="0.43"/>
   <stop stop-color="#dedede" stop-opacity="0" offset="1"/>
  </linearGradient>
  <linearGradient x2="0" xlink:href="#linearGradient3448" y1="77.09" y2="90" gradientUnits="userSpaceOnUse" id="linearGradient3460"/>
  <linearGradient id="linearGradient3448">
   <stop/>
   <stop stop-opacity="0" offset="1"/>
  </linearGradient>
  <linearGradient x1="16" x2="20.18" gradientUnits="userSpaceOnUse" id="linearGradient3556">
   <stop stop-color="#767676"/>
   <stop stop-color="#fdfdfd" offset="1"/>
  </linearGradient>
  <radialGradient cy="85.06" r="2.089" gradientUnits="userSpaceOnUse" id="radialGradient3558" cx="18.09" gradientTransform="matrix(1 0 0 1.0043 0 -0.364)">
   <stop stop-color="#ffbf67"/>
   <stop stop-color="#c70000" offset="1"/>
  </radialGradient>
  <linearGradient x2="0" xlink:href="#linearGradient3737" y1="80" y2="88.01" gradientUnits="userSpaceOnUse" id="linearGradient4239"/>
  <linearGradient x2="0" y1="80" y2="88.01" gradientUnits="userSpaceOnUse" id="linearGradient4231" gradientTransform="matrix(1 0 0 1 -2 0)">
   <stop/>
   <stop stop-color="#484848" offset="1"/>
  </linearGradient>
  <linearGradient x1="-1.857" x2="88" y1="86.21" y2="8.607" gradientUnits="userSpaceOnUse" id="linearGradient3179">
   <stop stop-color="#e6e6e6"/>
   <stop stop-color="#c3c3c3" offset="0.26"/>
   <stop stop-color="#b9b9b9" offset="0.492"/>
   <stop stop-color="#c8c8c8" offset="0.759"/>
   <stop stop-color="#e6e6e6" offset="1"/>
  </linearGradient>
  <linearGradient x1="6" x2="45.22" xlink:href="#linearGradient3448" gradientUnits="userSpaceOnUse" id="linearGradient3454" gradientTransform="matrix(-1 0 0 1 96 0)"/>
  <filter x="-0.295" y="-0.462" height="1.923" color-interpolation-filters="sRGB" id="filter3179" width="1.59">
   <feGaussianBlur stdDeviation="6.69643"/>
  </filter>
  <linearGradient x2="0" xlink:href="#linearGradient3448" y1="73" y2="-60.3" gradientUnits="userSpaceOnUse" id="linearGradient3527" gradientTransform="matrix(1.0278 0 0 1.05 -0.306 -2.65)"/>
  <linearGradient x2="0" y1="12" y2="72.11" gradientUnits="userSpaceOnUse" id="linearGradient3547">
   <stop stop-color="#f0f0f0"/>
   <stop stop-color="#b4b4b4" offset="1"/>
  </linearGradient>
  <linearGradient x1="41.04" x2="48" xlink:href="#linearGradient3737" y1="72" y2="19.16" gradientUnits="userSpaceOnUse" id="linearGradient3517"/>
  <linearGradient x1="15.656" x2="46.595" y1="69.39" y2="39.821" gradientUnits="userSpaceOnUse" id="linearGradient3540">
   <stop stop-color="#fff"/>
   <stop stop-color="#bfbfbf" stop-opacity="0" offset="1"/>
  </linearGradient>
  <clipPath id="clipPath3306">
   <use xlink:href="#SVGCleanerId_0"/>
  </clipPath>
  <filter x="-0.123" y="-0.18" height="1.36" color-interpolation-filters="sRGB" id="filter3642" width="1.245">
   <feGaussianBlur stdDeviation="3.1783"/>
  </filter>
  <clipPath id="clipPath3788">
   <path d="m-84 12c-2.216 0-4 1.784-4 4v52c0 2.216 1.784 4 4 4h64c2.216 0 4-1.784 4-4v-52c0-2.216-1.784-4-4-4h-64zm24.969 14c2.8316-0.01228 5.6827 0.92281 7.8438 2.8438 4.3032 3.8251 4.3032 10.05 0 13.875-4.3032 3.8251-11.291 3.8251-15.594 0-2.8814-2.5613-3.8211-6.2034-2.8438-9.4688l6.75 6 7.7812-6.9375-6.75-5.9688c0.91839-0.21718 1.8686-0.33966 2.8125-0.34375zm12.875 14.25 10.531 9.375c2.1583 1.9185 2.1583 5.019 0 6.9375s-5.623 1.9185-7.7812 0l-10.562-9.375c1.7121-0.59717 3.3352-1.5201 4.7188-2.75s2.4219-2.6656 3.0938-4.1875zm6.656 10.406c-0.70501 0-1.4308 0.24061-1.9688 0.71875-1.0758 0.95627-1.0758 2.5125 0 3.4688 1.0758 0.95627 2.8304 0.95627 3.9062 0 1.0758-0.95628 1.0758-2.5125 0-3.4688-0.5379-0.47814-1.2325-0.71875-1.9375-0.71875z"/>
  </clipPath>
  <filter x="-0.227" y="-0.255" height="1.51" color-interpolation-filters="sRGB" id="filter3784" width="1.453">
   <feGaussianBlur stdDeviation="3.4"/>
  </filter>
  <linearGradient x2="0" y1="58.697" y2="26.07" gradientUnits="userSpaceOnUse" id="linearGradient3761">
   <stop stop-color="#4d4d4d" stop-opacity="0.707"/>
   <stop stop-color="#4d4d4d" stop-opacity="0.252" offset="1"/>
  </linearGradient>
  <clipPath clipPathUnits="userSpaceOnUse" id="clipPath3204">
   <rect x="6" rx="22.869" y="5.981" height="84.16" width="84.16"/>
  </clipPath>
  <clipPath clipPathUnits="userSpaceOnUse" id="clipPath3009">
   <path d="m-2 956.36h-96v33.562l96 25.687v-59.25z"/>
  </clipPath>
  <rect x="12" rx="4" y="12" height="60" id="SVGCleanerId_0" width="72"/>
  <path d="m90 64.188v19.812c0 3.324-2.676 6-6 6h-72c-3.324 0-6-2.676-6-6v-19.812h84z" id="SVGCleanerId_1"/>
  <path d="m20.179 85.062a2.0893 2.0982 0 1 1 -4.1786 0 2.0893 2.0982 0 1 1 4.1786 0z" id="SVGCleanerId_2"/>
 </defs>
 <g transform="matrix(1 0 0 1 0 -956.36)">
  <g clip-path="url(#clipPath3204)" transform="matrix(1.0932 0 0 1.0932 -4.559 951.82)">
   <path d="m12 6c-3.324 0-6 2.676-6 6v2 68 2c0 0.33472 0.04135 0.6507 0.09375 0.96875 0.0487 0.2956 0.09704 0.59692 0.1875 0.875 0.00988 0.03038 0.020892 0.0636 0.03125 0.09375 0.098865 0.28777 0.23488 0.54745 0.375 0.8125 0.14459 0.27351 0.31562 0.53562 0.5 0.78125 0.18438 0.24564 0.37378 0.47347 0.59375 0.6875 0.43995 0.42806 0.94291 0.81453 1.5 1.0938 0.27854 0.13961 0.57347 0.24695 0.875 0.34375-0.2562-0.10022-0.48671-0.23627-0.71875-0.375-0.00741-0.0044-0.023866 0.0045-0.03125 0-0.031933-0.0193-0.062293-0.04251-0.09375-0.0625-0.1204-0.0767-0.23102-0.16351-0.34375-0.25-0.10617-0.0808-0.21328-0.16111-0.3125-0.25-0.1778-0.162-0.3473-0.346-0.4999-0.531-0.1075-0.131-0.2183-0.266-0.3124-0.407-0.0251-0.038-0.0385-0.086-0.0626-0.125-0.0647-0.103-0.1302-0.204-0.1874-0.312-0.1011-0.195-0.2057-0.416-0.2813-0.625-0.008-0.022-0.0236-0.041-0.0313-0.063-0.0318-0.092-0.0358-0.187-0.0624-0.281-0.0304-0.107-0.0704-0.203-0.0938-0.313-0.0729-0.341-0.125-0.698-0.125-1.062v-2-68-2c0-2.782 2.2182-5 5-5h2 68 2c2.7818 0 5 2.2182 5 5v2 68 2c0 0.3643-0.05212 0.72099-0.125 1.0625-0.04415 0.20689-0.08838 0.39766-0.15625 0.59375-0.0077 0.02195-0.0233 0.04069-0.03125 0.0625-0.06274 0.17374-0.13838 0.36745-0.21875 0.53125-0.04158 0.0828-0.07904 0.16995-0.125 0.25-0.0546 0.09721-0.12677 0.18835-0.1875 0.28125-0.09411 0.14096-0.20492 0.276-0.3125 0.40625-0.14317 0.17445-0.30314 0.347-0.46875 0.5-0.01117 0.0102-0.01998 0.02115-0.03125 0.03125-0.13839 0.12556-0.28509 0.23444-0.4375 0.34375-0.10257 0.07315-0.20432 0.15336-0.3125 0.21875-0.0074 0.0045-0.02384-0.0044-0.03125 0-0.23204 0.13873-0.46255 0.27478-0.71875 0.375 0.30153-0.0968 0.59646-0.20414 0.875-0.34375 0.55709-0.27922 1.0601-0.66569 1.5-1.0938 0.21997-0.21403 0.40937-0.44186 0.59375-0.6875s0.35541-0.50774 0.5-0.78125c0.14012-0.26505 0.27614-0.52473 0.375-0.8125 0.01041-0.03078 0.02133-0.06274 0.03125-0.09375 0.09046-0.27808 0.1388-0.5794 0.1875-0.875 0.053-0.318 0.094-0.634 0.094-0.969v-2-68-2c0-3.324-2.676-6-6-6h-72z" fill="url(#linearGradient3188)" opacity="0.5"/>
   <use xlink:href="#SVGCleanerId_1" fill="#cacaca"/>
   <path d="m90.031 64.188v19.812c0 3.324-2.676 6-6 6h-20.031v-25.812h26.031z" fill="url(#linearGradient3287)" opacity="0.8"/>
   <path d="m6 64.188v19.812c0 3.324 2.676 6 6 6h20v-25.812h-26z" fill="url(#linearGradient3279)" opacity="0.8"/>
   <use xlink:href="#SVGCleanerId_1" fill="url(#linearGradient3460)" opacity="0.2"/>
   <use xlink:href="#SVGCleanerId_2" fill="url(#linearGradient3556)" transform="matrix(0 1.6709 1.6638 0 -122.04 53.28)"/>
   <use stroke-opacity="0.532" stroke-width="0.841" xlink:href="#SVGCleanerId_2" fill="url(#radialGradient3558)" stroke="#000" stroke-linecap="square" transform="matrix(1.1923 0 0 1.1872 -2.077 -17.48)"/>
   <path d="m57 79.5c-0.81756 0-1.5 0.68244-1.5 1.5v6c0 0.81756 0.68244 1.5 1.5 1.5s1.5-0.68244 1.5-1.5v-6c0-0.81756-0.68244-1.5-1.5-1.5zm4 0c-0.81756 0-1.5 0.68244-1.5 1.5v6c0 0.81756 0.68244 1.5 1.5 1.5s1.5-0.68244 1.5-1.5v-6c0-0.81756-0.68244-1.5-1.5-1.5zm4 0c-0.81756 0-1.5 0.68244-1.5 1.5v6c0 0.81756 0.68244 1.5 1.5 1.5s1.5-0.68244 1.5-1.5v-6c0-0.81756-0.68244-1.5-1.5-1.5zm4 0c-0.81756 0-1.5 0.68244-1.5 1.5v6c0 0.81756 0.68244 1.5 1.5 1.5s1.5-0.68244 1.5-1.5v-6c0-0.81756-0.68244-1.5-1.5-1.5zm4 0c-0.81756 0-1.5 0.68244-1.5 1.5v6c0 0.81756 0.68244 1.5 1.5 1.5s1.5-0.68244 1.5-1.5v-6c0-0.81756-0.68244-1.5-1.5-1.5zm4 0c-0.81756 0-1.5 0.68244-1.5 1.5v6c0 0.81756 0.68244 1.5 1.5 1.5s1.5-0.68244 1.5-1.5v-6c0-0.81756-0.68244-1.5-1.5-1.5zm4 0c-0.81756 0-1.5 0.68244-1.5 1.5v6c0 0.81756 0.68244 1.5 1.5 1.5s1.5-0.68244 1.5-1.5v-6c0-0.81756-0.68244-1.5-1.5-1.5z" fill="url(#linearGradient4239)" transform="matrix(1 0 0 -1 -2 168)"/>
   <path d="m55 80c-0.554 0-1 0.446-1 1v6c0 0.554 0.446 1 1 1s1-0.446 1-1v-6c0-0.554-0.446-1-1-1zm4 0c-0.554 0-1 0.446-1 1v6c0 0.554 0.446 1 1 1s1-0.446 1-1v-6c0-0.554-0.446-1-1-1zm4 0c-0.554 0-1 0.446-1 1v6c0 0.554 0.446 1 1 1s1-0.446 1-1v-6c0-0.554-0.446-1-1-1zm4 0c-0.554 0-1 0.446-1 1v6c0 0.554 0.446 1 1 1s1-0.446 1-1v-6c0-0.554-0.446-1-1-1zm4 0c-0.554 0-1 0.446-1 1v6c0 0.554 0.446 1 1 1s1-0.446 1-1v-6c0-0.554-0.446-1-1-1zm4 0c-0.554 0-1 0.446-1 1v6c0 0.554 0.446 1 1 1s1-0.446 1-1v-6c0-0.554-0.446-1-1-1zm4 0c-0.554 0-1 0.446-1 1v6c0 0.554 0.446 1 1 1s1-0.446 1-1v-6c0-0.554-0.446-1-1-1z" fill="url(#linearGradient4231)"/>
   <rect x="6" rx="6" y="6" fill="url(#linearGradient3179)" height="72" width="84"/>
   <path d="m90 72v1c0 3.324-2.676 6-6 6h-72c-3.324 0-6-2.676-6-6v-1c0 2.9849 2.1528 5.4349 5 5.9062 0.327 0.066 0.652 0.094 1 0.094h72c0.1663 0 0.33719-0.01811 0.5-0.03125 0.04161-0.0041 0.08371 0.0051 0.125 0 0.128-0.013 0.25-0.042 0.375-0.063 2.847-0.471 5-2.921 5-5.906z" fill="url(#linearGradient3454)" opacity="0.1"/>
   <rect x="13.306" rx="9" y="13.888" fill="#fff" height="34.821" filter="url(#filter3179)" opacity="0.15" width="54.46" transform="matrix(1.0881 0 0 1.1015 -1.172 -1.41)"/>
   <rect x="11" rx="4.111" ry="4.2" y="11" fill="url(#linearGradient3527)" height="63" opacity="0.6" width="74"/>
   <use xlink:href="#SVGCleanerId_0" fill="url(#linearGradient3547)"/>
   <path d="m16 12c-2.216 0-4 1.784-4 4v52c0 2.216 1.784 4 4 4h64c2.216 0 4-1.784 4-4v-52c0-2.216-1.784-4-4-4h-64zm0 0.125h64c1.64 0 2.9375 1.2975 2.9375 2.9375v52c0 1.64-1.298 2.938-2.938 2.938h-64c-1.64 0-2.9375-1.2975-2.9375-2.9375v-52c0-1.64 1.2975-2.9375 2.9375-2.9375z" fill="url(#linearGradient3517)" opacity="0.5"/>
   <path d="m64.467 70.746c-31.605-1.483-35.941-11.416-14.842-33.81-23.873 7.552-35.167 18.171-43.557 25.412-8.9114 7.758-0.5293 17.769 9.273 16.938 10.159-0.007 41.021-1.879 49.126-8.54z" clip-path="url(#clipPath3306)" fill="url(#linearGradient3540)" fill-rule="evenodd" filter="url(#filter3642)" opacity="0.4" transform="matrix(1.1166 0 0 1.1166 -0.267 -9.247)"/>
   <path d="m-69.626 33.258c-0.97733 3.2654-0.0407 6.8898 2.8407 9.451 4.3032 3.8251 11.28 3.8251 15.583 0 4.3032-3.8251 4.3032-10.027 0-13.852-2.8814-2.5613-6.9588-3.3938-10.632-2.5251l6.7366 5.9881-7.7917 6.9259-6.7366-5.9881zm15.665 13.924 10.551 9.3789c2.1583 1.9185 5.6334 1.9185 7.7917 0s2.1583-5.0075 0-6.9259l-10.551-9.3789c-0.67182 1.5219-1.7006 2.9546-3.0842 4.1844-1.3836 1.2299-2.9954 2.1444-4.7075 2.7415zm12.499 4.1844c1.0758-0.95627 2.82-0.95627 3.8958 0s1.0758 2.5067 0 3.463c-1.0758 0.95627-2.82 0.95627-3.8958 0-1.0758-0.95628-1.0758-2.5067 0-3.463z" clip-path="url(#clipPath3788)" fill="#fff" filter="url(#filter3784)" opacity="0.8" transform="matrix(1 0 0 1 100 0)"/>
   <path d="m30.374 33.258c-0.97733 3.2654-0.0407 6.8898 2.8407 9.451 4.3032 3.8251 11.28 3.8251 15.583 0 4.3032-3.8251 4.3032-10.027 0-13.852-2.882-2.561-6.959-3.393-10.633-2.525l6.7366 5.9881-7.7917 6.9259-6.7366-5.9881zm15.665 13.924 10.551 9.3789c2.1583 1.9185 5.6334 1.9185 7.7917 0s2.1583-5.0075 0-6.9259l-10.551-9.3789c-0.67182 1.5219-1.7006 2.9546-3.0842 4.1844-1.3836 1.2299-2.9954 2.1444-4.7075 2.7415zm12.499 4.1844c1.0758-0.95627 2.82-0.95627 3.8958 0s1.0758 2.5067 0 3.463c-1.0758 0.95627-2.82 0.95627-3.8958 0-1.0758-0.95628-1.0758-2.5067 0-3.463z" fill="url(#linearGradient3761)"/>
   <path d="m40.969 26c-0.94388 0.0041-1.8941 0.12656-2.8125 0.34375l0.9375 0.84375c3.4195-0.53684 7.077 0.30802 9.7188 2.6562 2.0082 1.7851 3.0537 4.1003 3.1875 6.4375 0.15296-2.671-0.89248-5.3975-3.1875-7.4375-2.161-1.921-5.012-2.856-7.843-2.844zm3.375 6.8125-7.2188 6.4375-6.75-6c-0.29315 0.97947-0.39583 1.9943-0.34375 3 0.04208-0.67058 0.14824-1.3468 0.34375-2l6.75 6 7.7812-6.9375-0.5625-0.5zm9.5 7.4375c-0.67182 1.5219-1.7102 2.9576-3.0938 4.1875s-3.0067 2.1528-4.7188 2.75l0.78125 0.6875c1.4217-0.58802 2.7655-1.3957 3.9375-2.4375 1.3836-1.2299 2.4219-2.6656 3.0938-4.1875l10.532 9.374c0.92658 0.82363 1.4628 1.8676 1.5938 2.9375 0.152-1.403-0.38-2.858-1.594-3.937l-10.531-9.375zm3.9375 13.375c-0.1681 0.77174 0.07762 1.6211 0.75 2.2188 1.0758 0.95627 2.8304 0.95627 3.9062 0 0.67238-0.59767 0.9181-1.447 0.75-2.2188-0.10844 0.44282-0.36271 0.87449-0.75 1.2188-1.0758 0.95627-2.8304 0.95627-3.9062 0-0.38729-0.34426-0.64156-0.77593-0.75-1.2188z" opacity="0.4"/>
  </g>
  <rect x="-96" rx="25" y="958.36" clip-path="url(#clipPath3009)" fill="#fff" height="92" opacity="0.15" width="92" transform="matrix(1 0 0 1 98 0)"/>
 </g>
</svg>
