<?xml version="1.0" encoding="UTF-8" standalone="no"?>
<!-- Created with Inkscape (http://www.inkscape.org/) -->

<svg
   xmlns:dc="http://purl.org/dc/elements/1.1/"
   xmlns:cc="http://creativecommons.org/ns#"
   xmlns:rdf="http://www.w3.org/1999/02/22-rdf-syntax-ns#"
   xmlns:svg="http://www.w3.org/2000/svg"
   xmlns="http://www.w3.org/2000/svg"
   xmlns:xlink="http://www.w3.org/1999/xlink"
   xmlns:sodipodi="http://sodipodi.sourceforge.net/DTD/sodipodi-0.dtd"
   xmlns:inkscape="http://www.inkscape.org/namespaces/inkscape"
   id="svg11037"
   height="96"
   width="96"
   version="1.1"
   inkscape:version="0.48.5 r10040"
   sodipodi:docname="palimpsest.svg">
  <sodipodi:namedview
     pagecolor="#ffffff"
     bordercolor="#666666"
     borderopacity="1"
     objecttolerance="10"
     gridtolerance="10"
     guidetolerance="10"
     inkscape:pageopacity="0"
     inkscape:pageshadow="2"
     inkscape:window-width="640"
     inkscape:window-height="480"
     id="namedview20825" />
  <defs
     id="defs11039">
    <linearGradient
       id="linearGradient3188"
       y2="63.893"
       xlink:href="#linearGradient3737"
       gradientUnits="userSpaceOnUse"
       x2="36.357"
       y1="6"
       x1="36.357" />
    <linearGradient
       id="linearGradient3737">
      <stop
         id="stop3739"
         style="stop-color:#fff"
         offset="0" />
      <stop
         id="stop3741"
         style="stop-color:#fff;stop-opacity:0"
         offset="1" />
    </linearGradient>
    <linearGradient
       id="linearGradient3287"
       y2="77.094"
       gradientUnits="userSpaceOnUse"
       x2="32.031"
       gradientTransform="matrix(-1 0 0 1 96.031 0)"
       y1="77.094"
       x1="6">
      <stop
         id="stop3275"
         style="stop-color:#7a7a7a"
         offset="0" />
      <stop
         id="stop3281"
         style="stop-color:#f9f9f9"
         offset=".14636" />
      <stop
         id="stop3283"
         style="stop-color:#c9c9c9"
         offset=".37254" />
      <stop
         id="stop3277"
         style="stop-color:#dedede;stop-opacity:0"
         offset="1" />
    </linearGradient>
    <linearGradient
       id="linearGradient3279"
       y2="77.094"
       gradientUnits="userSpaceOnUse"
       x2="32"
       y1="77.094"
       x1="6">
      <stop
         id="stop3324"
         style="stop-color:#7a7a7a"
         offset="0" />
      <stop
         id="stop3326"
         style="stop-color:#f9f9f9"
         offset=".20320" />
      <stop
         id="stop3328"
         style="stop-color:#c9c9c9"
         offset=".42969" />
      <stop
         id="stop3330"
         style="stop-color:#dedede;stop-opacity:0"
         offset="1" />
    </linearGradient>
    <linearGradient
       id="linearGradient3460"
       y2="90"
       xlink:href="#linearGradient3448"
       gradientUnits="userSpaceOnUse"
       x2="48"
       y1="77.094"
       x1="48" />
    <linearGradient
       id="linearGradient3448">
      <stop
         id="stop3450"
         offset="0" />
      <stop
         id="stop3452"
         style="stop-opacity:0"
         offset="1" />
    </linearGradient>
    <linearGradient
       id="linearGradient3556"
       y2="85.062"
       gradientUnits="userSpaceOnUse"
       x2="20.179"
       y1="85.062"
       x1="16">
      <stop
         id="stop3378"
         style="stop-color:#767676"
         offset="0" />
      <stop
         id="stop3380"
         style="stop-color:#fdfdfd"
         offset="1" />
    </linearGradient>
    <radialGradient
       id="radialGradient3558"
       gradientUnits="userSpaceOnUse"
       cy="85.062"
       cx="18.089"
       gradientTransform="matrix(1 0 0 1.0043 0 -.36352)"
       r="2.0893">
      <stop
         id="stop3735"
         style="stop-color:#ffbf67"
         offset="0" />
      <stop
         id="stop3737"
         style="stop-color:#c70000"
         offset="1" />
    </radialGradient>
    <linearGradient
       id="linearGradient4239"
       y2="88.011"
       xlink:href="#linearGradient3737"
       gradientUnits="userSpaceOnUse"
       x2="67.071"
       y1="80"
       x1="67.071" />
    <linearGradient
       id="linearGradient4231"
       y2="88.011"
       gradientUnits="userSpaceOnUse"
       x2="67.071"
       gradientTransform="translate(-2)"
       y1="80"
       x1="67.071">
      <stop
         id="stop4227"
         offset="0" />
      <stop
         id="stop4229"
         style="stop-color:#484848"
         offset="1" />
    </linearGradient>
    <linearGradient
       id="linearGradient3179"
       y2="8.6071"
       gradientUnits="userSpaceOnUse"
       x2="88"
       y1="86.214"
       x1="-1.8571">
      <stop
         id="stop3175"
         style="stop-color:#e6e6e6"
         offset="0" />
      <stop
         id="stop3189"
         style="stop-color:#c3c3c3"
         offset=".26003" />
      <stop
         id="stop3187"
         style="stop-color:#b9b9b9"
         offset=".49180" />
      <stop
         id="stop3191"
         style="stop-color:#c8c8c8"
         offset=".75914" />
      <stop
         id="stop3177"
         style="stop-color:#e6e6e6"
         offset="1" />
    </linearGradient>
    <linearGradient
       id="linearGradient3454"
       y2="75.5"
       xlink:href="#linearGradient3448"
       gradientUnits="userSpaceOnUse"
       x2="45.219"
       gradientTransform="matrix(-1,0,0,1,96,0)"
       y1="75.5"
       x1="6" />
    <filter
       id="filter3179"
       height="1.9231"
       width="1.5902"
       color-interpolation-filters="sRGB"
       y="-.46154"
       x="-.29508">
      <feGaussianBlur
         id="feGaussianBlur3181"
         stdDeviation="6.6964288" />
    </filter>
    <linearGradient
       id="linearGradient3527"
       y2="-60.296"
       xlink:href="#linearGradient3448"
       gradientUnits="userSpaceOnUse"
       x2="38.766"
       gradientTransform="matrix(1.0278 0 0 1.05 -.30556 -2.65)"
       y1="73"
       x1="38.766" />
    <linearGradient
       id="linearGradient3547"
       y2="72.112"
       gradientUnits="userSpaceOnUse"
       x2="44.325"
       y1="12"
       x1="44.325">
      <stop
         id="stop4329"
         style="stop-color:#f0f0f0"
         offset="0" />
      <stop
         id="stop4331"
         style="stop-color:#b4b4b4"
         offset="1" />
    </linearGradient>
    <linearGradient
       id="linearGradient3517"
       y2="19.161"
       xlink:href="#linearGradient3737"
       gradientUnits="userSpaceOnUse"
       x2="48"
       y1="72"
       x1="41.042" />
    <linearGradient
       id="linearGradient3540"
       y2="39.821"
       gradientUnits="userSpaceOnUse"
       x2="46.595"
       y1="69.394"
       x1="15.656">
      <stop
         id="stop3222"
         style="stop-color:#fff"
         offset="0" />
      <stop
         id="stop3224"
         style="stop-color:#bfbfbf;stop-opacity:0"
         offset="1" />
    </linearGradient>
    <clipPath
       id="clipPath3306">
      <rect
         id="rect3308"
         style="fill:#fff"
         rx="4"
         ry="4"
         height="60"
         width="72"
         y="12"
         x="12" />
    </clipPath>
    <filter
       id="filter3642"
       height="1.3598"
       width="1.2454"
       color-interpolation-filters="sRGB"
       y="-.17991"
       x="-.12268">
      <feGaussianBlur
         id="feGaussianBlur3644"
         stdDeviation="3.178304" />
    </filter>
    <clipPath
       id="clipPath3788">
      <path
         id="path3790"
         style="fill:#803300"
         d="m-84 12c-2.216 0-4 1.784-4 4v52c0 2.216 1.784 4 4 4h64c2.216 0 4-1.784 4-4v-52c0-2.216-1.784-4-4-4h-64zm24.969 14c2.8316-0.01228 5.6827 0.92281 7.8438 2.8438 4.3032 3.8251 4.3032 10.05 0 13.875-4.3032 3.8251-11.291 3.8251-15.594 0-2.8814-2.5613-3.8211-6.2034-2.8438-9.4688l6.75 6 7.7812-6.9375-6.75-5.9688c0.91839-0.21718 1.8686-0.33966 2.8125-0.34375zm12.875 14.25 10.531 9.375c2.1583 1.9185 2.1583 5.019 0 6.9375s-5.623 1.9185-7.7812 0l-10.562-9.375c1.7121-0.59717 3.3352-1.5201 4.7188-2.75s2.4219-2.6656 3.0938-4.1875zm6.656 10.406c-0.70501 0-1.4308 0.24061-1.9688 0.71875-1.0758 0.95627-1.0758 2.5125 0 3.4688 1.0758 0.95627 2.8304 0.95627 3.9062 0 1.0758-0.95628 1.0758-2.5125 0-3.4688-0.5379-0.47814-1.2325-0.71875-1.9375-0.71875z" />
    </clipPath>
    <filter
       id="filter3784"
       height="1.51"
       width="1.4533"
       color-interpolation-filters="sRGB"
       y="-.255"
       x="-.22667">
      <feGaussianBlur
         id="feGaussianBlur3786"
         stdDeviation="3.4" />
    </filter>
    <linearGradient
       id="linearGradient3761"
       y2="26.072"
       gradientUnits="userSpaceOnUse"
       x2="47.495"
       y1="58.697"
       x1="47.495">
      <stop
         id="stop3769"
         style="stop-color:#4d4d4d;stop-opacity:.70732"
         offset="0" />
      <stop
         id="stop3771"
         style="stop-color:#4d4d4d;stop-opacity:.25203"
         offset="1" />
    </linearGradient>
    <clipPath
       id="clipPath3204"
       clipPathUnits="userSpaceOnUse">
      <rect
         id="rect3206"
         style="fill:url(#linearGradient3208)"
         rx="22.869"
         ry="22.869"
         height="84.158"
         width="84.158"
         y="5.9809"
         x="6" />
    </clipPath>
    <linearGradient
       id="linearGradient3208"
       y2="1046.1"
       gradientUnits="userSpaceOnUse"
       x2="48"
       gradientTransform="matrix(1.052 0 0 1.052 -2.4157 -1008.5)"
       y1="962.62"
       x1="48">
      <stop
         id="stop3797"
         style="stop-color:#13a6fd"
         offset="0" />
      <stop
         id="stop3799"
         style="stop-color:#2975b6"
         offset="1" />
    </linearGradient>
    <clipPath
       id="clipPath3009"
       clipPathUnits="userSpaceOnUse">
      <path
         id="path3011"
         style="opacity:.15;fill:#fff"
         d="m-2 956.36h-96v33.562l96 25.687v-59.25z" />
    </clipPath>
  </defs>
  <metadata
     id="metadata11042">
    <rdf:RDF>
      <cc:Work
         rdf:about="">
        <dc:format>image/svg+xml</dc:format>
        <dc:type
           rdf:resource="http://purl.org/dc/dcmitype/StillImage" />
        <dc:title />
      </cc:Work>
    </rdf:RDF>
  </metadata>
  <g
     id="layer1"
     transform="translate(0 -956.36)">
    <g
       id="g3102"
       clip-path="url(#clipPath3204)"
       transform="matrix(1.0932 0 0 1.0932 -4.5591 951.82)">
      <g
         id="layer1-3">
        <path
           id="rect3728"
           d="m12 6c-3.324 0-6 2.676-6 6v2 68 2c0 0.33472 0.04135 0.6507 0.09375 0.96875 0.0487 0.2956 0.09704 0.59692 0.1875 0.875 0.00988 0.03038 0.020892 0.0636 0.03125 0.09375 0.098865 0.28777 0.23488 0.54745 0.375 0.8125 0.14459 0.27351 0.31562 0.53562 0.5 0.78125 0.18438 0.24564 0.37378 0.47347 0.59375 0.6875 0.43995 0.42806 0.94291 0.81453 1.5 1.0938 0.27854 0.13961 0.57347 0.24695 0.875 0.34375-0.2562-0.10022-0.48671-0.23627-0.71875-0.375-0.00741-0.0044-0.023866 0.0045-0.03125 0-0.031933-0.0193-0.062293-0.04251-0.09375-0.0625-0.1204-0.0767-0.23102-0.16351-0.34375-0.25-0.10617-0.0808-0.21328-0.16111-0.3125-0.25-0.1778-0.162-0.3473-0.346-0.4999-0.531-0.1075-0.131-0.2183-0.266-0.3124-0.407-0.0251-0.038-0.0385-0.086-0.0626-0.125-0.0647-0.103-0.1302-0.204-0.1874-0.312-0.1011-0.195-0.2057-0.416-0.2813-0.625-0.008-0.022-0.0236-0.041-0.0313-0.063-0.0318-0.092-0.0358-0.187-0.0624-0.281-0.0304-0.107-0.0704-0.203-0.0938-0.313-0.0729-0.341-0.125-0.698-0.125-1.062v-2-68-2c0-2.782 2.2182-5 5-5h2 68 2c2.7818 0 5 2.2182 5 5v2 68 2c0 0.3643-0.05212 0.72099-0.125 1.0625-0.04415 0.20689-0.08838 0.39766-0.15625 0.59375-0.0077 0.02195-0.0233 0.04069-0.03125 0.0625-0.06274 0.17374-0.13838 0.36745-0.21875 0.53125-0.04158 0.0828-0.07904 0.16995-0.125 0.25-0.0546 0.09721-0.12677 0.18835-0.1875 0.28125-0.09411 0.14096-0.20492 0.276-0.3125 0.40625-0.14317 0.17445-0.30314 0.347-0.46875 0.5-0.01117 0.0102-0.01998 0.02115-0.03125 0.03125-0.13839 0.12556-0.28509 0.23444-0.4375 0.34375-0.10257 0.07315-0.20432 0.15336-0.3125 0.21875-0.0074 0.0045-0.02384-0.0044-0.03125 0-0.23204 0.13873-0.46255 0.27478-0.71875 0.375 0.30153-0.0968 0.59646-0.20414 0.875-0.34375 0.55709-0.27922 1.0601-0.66569 1.5-1.0938 0.21997-0.21403 0.40937-0.44186 0.59375-0.6875s0.35541-0.50774 0.5-0.78125c0.14012-0.26505 0.27614-0.52473 0.375-0.8125 0.01041-0.03078 0.02133-0.06274 0.03125-0.09375 0.09046-0.27808 0.1388-0.5794 0.1875-0.875 0.053-0.318 0.094-0.634 0.094-0.969v-2-68-2c0-3.324-2.676-6-6-6h-72z"
           style="opacity:.5;fill:url(#linearGradient3188)" />
        <path
           id="rect3243"
           d="m90 64.188v19.812c0 3.324-2.676 6-6 6h-72c-3.324 0-6-2.676-6-6v-19.812h84z"
           style="fill:#cacaca" />
        <path
           id="path3285"
           d="m90.031 64.188v19.812c0 3.324-2.676 6-6 6h-20.031v-25.812h26.031z"
           style="opacity:.8;fill:url(#linearGradient3287)" />
        <path
           id="path3263"
           d="m6 64.188v19.812c0 3.324 2.676 6 6 6h20v-25.812h-26z"
           style="opacity:.8;fill:url(#linearGradient3279)" />
        <path
           id="path3299"
           d="m90 64.188v19.812c0 3.324-2.676 6-6 6h-72c-3.324 0-6-2.676-6-6v-19.812h84z"
           style="opacity:.2;fill:url(#linearGradient3460)" />
        <g
           id="g3318">
          <path
             id="path3374"
             d="m20.179 85.062a2.0893 2.0982 0 1 1 -4.1786 0 2.0893 2.0982 0 1 1 4.1786 0z"
             style="fill:url(#linearGradient3556)"
             transform="matrix(0 1.6709 1.6638 0 -122.04 53.283)" />
          <path
             id="path3364"
             d="m20.179 85.062a2.0893 2.0982 0 1 1 -4.1786 0 2.0893 2.0982 0 1 1 4.1786 0z"
             style="stroke-opacity:.53182;stroke:#000;stroke-linecap:square;stroke-width:.84050;fill:url(#radialGradient3558)"
             transform="matrix(1.1923 0 0 1.1872 -2.0769 -17.48)" />
        </g>
        <path
           id="path4237"
           d="m57 79.5c-0.81756 0-1.5 0.68244-1.5 1.5v6c0 0.81756 0.68244 1.5 1.5 1.5s1.5-0.68244 1.5-1.5v-6c0-0.81756-0.68244-1.5-1.5-1.5zm4 0c-0.81756 0-1.5 0.68244-1.5 1.5v6c0 0.81756 0.68244 1.5 1.5 1.5s1.5-0.68244 1.5-1.5v-6c0-0.81756-0.68244-1.5-1.5-1.5zm4 0c-0.81756 0-1.5 0.68244-1.5 1.5v6c0 0.81756 0.68244 1.5 1.5 1.5s1.5-0.68244 1.5-1.5v-6c0-0.81756-0.68244-1.5-1.5-1.5zm4 0c-0.81756 0-1.5 0.68244-1.5 1.5v6c0 0.81756 0.68244 1.5 1.5 1.5s1.5-0.68244 1.5-1.5v-6c0-0.81756-0.68244-1.5-1.5-1.5zm4 0c-0.81756 0-1.5 0.68244-1.5 1.5v6c0 0.81756 0.68244 1.5 1.5 1.5s1.5-0.68244 1.5-1.5v-6c0-0.81756-0.68244-1.5-1.5-1.5zm4 0c-0.81756 0-1.5 0.68244-1.5 1.5v6c0 0.81756 0.68244 1.5 1.5 1.5s1.5-0.68244 1.5-1.5v-6c0-0.81756-0.68244-1.5-1.5-1.5zm4 0c-0.81756 0-1.5 0.68244-1.5 1.5v6c0 0.81756 0.68244 1.5 1.5 1.5s1.5-0.68244 1.5-1.5v-6c0-0.81756-0.68244-1.5-1.5-1.5z"
           style="fill:url(#linearGradient4239)"
           transform="matrix(1,0,0,-1,-2,168)" />
        <path
           id="rect4210"
           d="m55 80c-0.554 0-1 0.446-1 1v6c0 0.554 0.446 1 1 1s1-0.446 1-1v-6c0-0.554-0.446-1-1-1zm4 0c-0.554 0-1 0.446-1 1v6c0 0.554 0.446 1 1 1s1-0.446 1-1v-6c0-0.554-0.446-1-1-1zm4 0c-0.554 0-1 0.446-1 1v6c0 0.554 0.446 1 1 1s1-0.446 1-1v-6c0-0.554-0.446-1-1-1zm4 0c-0.554 0-1 0.446-1 1v6c0 0.554 0.446 1 1 1s1-0.446 1-1v-6c0-0.554-0.446-1-1-1zm4 0c-0.554 0-1 0.446-1 1v6c0 0.554 0.446 1 1 1s1-0.446 1-1v-6c0-0.554-0.446-1-1-1zm4 0c-0.554 0-1 0.446-1 1v6c0 0.554 0.446 1 1 1s1-0.446 1-1v-6c0-0.554-0.446-1-1-1zm4 0c-0.554 0-1 0.446-1 1v6c0 0.554 0.446 1 1 1s1-0.446 1-1v-6c0-0.554-0.446-1-1-1z"
           style="fill:url(#linearGradient4231)" />
      </g>
      <rect
         id="rect3171"
         style="fill:url(#linearGradient3179)"
         rx="6"
         ry="6"
         height="72"
         width="84"
         y="6"
         x="6" />
      <path
         id="path3443"
         d="m90 72v1c0 3.324-2.676 6-6 6h-72c-3.324 0-6-2.676-6-6v-1c0 2.9849 2.1528 5.4349 5 5.9062 0.327 0.066 0.652 0.094 1 0.094h72c0.1663 0 0.33719-0.01811 0.5-0.03125 0.04161-0.0041 0.08371 0.0051 0.125 0 0.128-0.013 0.25-0.042 0.375-0.063 2.847-0.471 5-2.921 5-5.906z"
         style="opacity:.1;fill:url(#linearGradient3454)" />
      <rect
         id="rect2399"
         style="opacity:.15;filter:url(#filter3179);fill:#fff"
         rx="9"
         ry="9"
         transform="matrix(1.0881 0 0 1.1015 -1.1723 -1.4101)"
         width="54.464"
         y="13.888"
         x="13.306"
         height="34.821" />
      <rect
         id="rect3492"
         style="opacity:.6;fill:url(#linearGradient3527)"
         rx="4.1111"
         ry="4.2"
         height="63"
         width="74"
         y="11"
         x="11" />
      <rect
         id="rect3519"
         style="fill:url(#linearGradient3547)"
         rx="4"
         ry="4"
         height="60"
         width="72"
         y="12"
         x="12" />
      <path
         id="rect3490"
         d="m16 12c-2.216 0-4 1.784-4 4v52c0 2.216 1.784 4 4 4h64c2.216 0 4-1.784 4-4v-52c0-2.216-1.784-4-4-4h-64zm0 0.125h64c1.64 0 2.9375 1.2975 2.9375 2.9375v52c0 1.64-1.298 2.938-2.938 2.938h-64c-1.64 0-2.9375-1.2975-2.9375-2.9375v-52c0-1.64 1.2975-2.9375 2.9375-2.9375z"
         style="opacity:.5;fill:url(#linearGradient3517)" />
      <path
         id="path3295"
         style="opacity:.4;fill-rule:evenodd;filter:url(#filter3642);fill:url(#linearGradient3540)"
         d="m64.467 70.746c-31.605-1.483-35.941-11.416-14.842-33.81-23.873 7.552-35.167 18.171-43.557 25.412-8.9114 7.758-0.5293 17.769 9.273 16.938 10.159-0.007 41.021-1.879 49.126-8.54z"
         clip-path="url(#clipPath3306)"
         transform="matrix(1.1166 0 0 1.1166 -.26673 -9.2473)" />
      <g
         id="layer4">
        <path
           id="path3780"
           style="opacity:.8;filter:url(#filter3784);fill:#fff"
           d="m-69.626 33.258c-0.97733 3.2654-0.0407 6.8898 2.8407 9.451 4.3032 3.8251 11.28 3.8251 15.583 0 4.3032-3.8251 4.3032-10.027 0-13.852-2.8814-2.5613-6.9588-3.3938-10.632-2.5251l6.7366 5.9881-7.7917 6.9259-6.7366-5.9881zm15.665 13.924 10.551 9.3789c2.1583 1.9185 5.6334 1.9185 7.7917 0s2.1583-5.0075 0-6.9259l-10.551-9.3789c-0.67182 1.5219-1.7006 2.9546-3.0842 4.1844-1.3836 1.2299-2.9954 2.1444-4.7075 2.7415zm12.499 4.1844c1.0758-0.95627 2.82-0.95627 3.8958 0s1.0758 2.5067 0 3.463c-1.0758 0.95627-2.82 0.95627-3.8958 0-1.0758-0.95628-1.0758-2.5067 0-3.463z"
           clip-path="url(#clipPath3788)"
           transform="translate(100)" />
        <path
           id="path3739"
           d="m30.374 33.258c-0.97733 3.2654-0.0407 6.8898 2.8407 9.451 4.3032 3.8251 11.28 3.8251 15.583 0 4.3032-3.8251 4.3032-10.027 0-13.852-2.882-2.561-6.959-3.393-10.633-2.525l6.7366 5.9881-7.7917 6.9259-6.7366-5.9881zm15.665 13.924 10.551 9.3789c2.1583 1.9185 5.6334 1.9185 7.7917 0s2.1583-5.0075 0-6.9259l-10.551-9.3789c-0.67182 1.5219-1.7006 2.9546-3.0842 4.1844-1.3836 1.2299-2.9954 2.1444-4.7075 2.7415zm12.499 4.1844c1.0758-0.95627 2.82-0.95627 3.8958 0s1.0758 2.5067 0 3.463c-1.0758 0.95627-2.82 0.95627-3.8958 0-1.0758-0.95628-1.0758-2.5067 0-3.463z"
           style="fill:url(#linearGradient3761)" />
        <path
           id="path3763"
           d="m40.969 26c-0.94388 0.0041-1.8941 0.12656-2.8125 0.34375l0.9375 0.84375c3.4195-0.53684 7.077 0.30802 9.7188 2.6562 2.0082 1.7851 3.0537 4.1003 3.1875 6.4375 0.15296-2.671-0.89248-5.3975-3.1875-7.4375-2.161-1.921-5.012-2.856-7.843-2.844zm3.375 6.8125-7.2188 6.4375-6.75-6c-0.29315 0.97947-0.39583 1.9943-0.34375 3 0.04208-0.67058 0.14824-1.3468 0.34375-2l6.75 6 7.7812-6.9375-0.5625-0.5zm9.5 7.4375c-0.67182 1.5219-1.7102 2.9576-3.0938 4.1875s-3.0067 2.1528-4.7188 2.75l0.78125 0.6875c1.4217-0.58802 2.7655-1.3957 3.9375-2.4375 1.3836-1.2299 2.4219-2.6656 3.0938-4.1875l10.532 9.374c0.92658 0.82363 1.4628 1.8676 1.5938 2.9375 0.152-1.403-0.38-2.858-1.594-3.937l-10.531-9.375zm3.9375 13.375c-0.1681 0.77174 0.07762 1.6211 0.75 2.2188 1.0758 0.95627 2.8304 0.95627 3.9062 0 0.67238-0.59767 0.9181-1.447 0.75-2.2188-0.10844 0.44282-0.36271 0.87449-0.75 1.2188-1.0758 0.95627-2.8304 0.95627-3.9062 0-0.38729-0.34426-0.64156-0.77593-0.75-1.2188z"
           style="opacity:.4" />
      </g>
    </g>
    <rect
       id="rect3003"
       style="opacity:.15;fill:#fff"
       transform="translate(98 3.8281e-7)"
       clip-path="url(#clipPath3009)"
       rx="25"
       ry="25"
       height="92"
       width="92"
       y="958.36"
       x="-96" />
  </g>
</svg>
