<svg height="96" width="96" xmlns="http://www.w3.org/2000/svg" xmlns:xlink="http://www.w3.org/1999/xlink" xmlns:sodipodi="http://sodipodi.sourceforge.net/DTD/sodipodi-0.dtd" xmlns:inkscape="http://www.inkscape.org/namespaces/inkscape">
 <defs>
  <clipPath clipPathUnits="userSpaceOnUse" id="clipPath3009">
   <path d="m-2 956.36h-96v33.562l96 25.687v-59.25z"/>
  </clipPath>
  <linearGradient x2="0" y1="90" y2="5.988" gradientUnits="userSpaceOnUse" id="linearGradient3706">
   <stop stop-color="#e0880b"/>
   <stop stop-color="#f7ce50" offset="1"/>
  </linearGradient>
  <clipPath id="clipPath3672">
   <rect x="11.498" rx="7.946" ry="7.943" y="11.194" height="111.21" width="111.24"/>
  </clipPath>
  <filter color-interpolation-filters="sRGB" id="filter3666">
   <feGaussianBlur stdDeviation="1.83514"/>
  </filter>
  <radialGradient cy="90.17" r="42" gradientUnits="userSpaceOnUse" id="radialGradient3162" cx="48" gradientTransform="matrix(1.1573 0 0 0.99591 -7.551 0.197)">
   <stop stop-color="#fff"/>
   <stop stop-color="#fff" stop-opacity="0" offset="1"/>
  </radialGradient>
  <clipPath clipPathUnits="userSpaceOnUse" id="clipPath3040">
   <rect x="7.75" rx="21.875" y="7.75" height="80.5" width="80.5"/>
  </clipPath>
  <linearGradient x1="31.382" x2="224.62" y1="38.38" y2="231.62" gradientUnits="userSpaceOnUse" id="XMLID_11_">
   <stop stop-color="#f30"/>
   <stop stop-color="#7c0000" offset="1"/>
  </linearGradient>
  <linearGradient x1="98.07" x2="157.93" y1="246.71" y2="23.287" gradientUnits="userSpaceOnUse" id="XMLID_12_">
   <stop stop-color="#fff030" offset="0.006"/>
   <stop stop-color="#ff6d00" offset="0.714"/>
  </linearGradient>
  <linearGradient x2="0" y1="-0.002" y2="109.99" gradientUnits="userSpaceOnUse" id="XMLID_13_">
   <stop stop-color="#ff6d00"/>
   <stop stop-color="#ffa700" offset="0.792"/>
   <stop stop-color="#ffbc50" offset="1"/>
  </linearGradient>
  <linearGradient x1="60.02" x2="195.98" y1="65.56" y2="201.53" gradientUnits="userSpaceOnUse" id="XMLID_14_">
   <stop stop-color="#0053bd"/>
   <stop stop-color="#00008d" offset="1"/>
  </linearGradient>
  <linearGradient x1="63.52" x2="192.48" y1="198.03" y2="69.06" gradientUnits="userSpaceOnUse" id="XMLID_15_">
   <stop stop-color="#c9e6ff"/>
   <stop stop-color="#428aff" offset="1"/>
  </linearGradient>
  <linearGradient x1="100.63" x2="249.75" y1="106.18" y2="255.29" gradientUnits="userSpaceOnUse" id="XMLID_16_">
   <stop stop-color="#fff"/>
   <stop stop-color="#94caff" offset="1"/>
  </linearGradient>
  <linearGradient x1="95.96" x2="160.04" y1="18.232" y2="82.31" gradientUnits="userSpaceOnUse" id="XMLID_17_">
   <stop stop-color="#366"/>
   <stop stop-color="#060" offset="0.371"/>
   <stop stop-color="#005313" offset="0.49"/>
   <stop stop-color="#004125" offset="0.644"/>
   <stop stop-color="#003630" offset="0.809"/>
   <stop stop-color="#033" offset="1"/>
  </linearGradient>
  <linearGradient x2="0" y1="21.944" y2="73.5" gradientUnits="userSpaceOnUse" id="XMLID_18_">
   <stop stop-color="#6c3"/>
   <stop stop-color="#090" offset="0.477"/>
   <stop stop-color="#060" offset="1"/>
  </linearGradient>
  <linearGradient x2="0" y1="21.519" y2="67.67" gradientUnits="userSpaceOnUse" id="XMLID_19_">
   <stop stop-color="#fff"/>
   <stop stop-color="#cfc" offset="0.107"/>
   <stop stop-color="#3c3" offset="0.573"/>
   <stop stop-color="#20b933" offset="0.654"/>
   <stop stop-color="#0ea733" offset="0.759"/>
   <stop stop-color="#039c33" offset="0.87"/>
   <stop stop-color="#093" offset="1"/>
  </linearGradient>
  <linearGradient x1="100.55" x2="124.46" xlink:href="#XMLID_19_" y1="22.818" y2="46.734" gradientUnits="userSpaceOnUse" id="XMLID_20_"/>
 </defs>
 <g transform="matrix(1 0 0 1 0 -956.36)">
  <g clip-path="url(#clipPath3040)" transform="matrix(1.1429 0 0 1.1429 -6.857 949.51)">
   <rect x="6" rx="6" y="6" fill="url(#linearGradient3706)" height="84" width="84"/>
   <path d="m3.2716 125c36.599-2.9745 74.207 0.75124 109.81-10.08 17.05-3.94 33.98-17.92 41.79-38.31m-153.85 41.79c36.042-4.2475 73.274-2.0836 108.26-13.796 16.872-4.5481 33.519-18.496 41.53-38.584m-152.05 45.77c35.485-5.5206 72.342-4.9185 106.7-17.512 16.691-5.1597 33.052-19.072 41.268-38.856m-150.22 49.758c34.928-6.791 71.408-7.751 105.15-21.226 16.51-5.771 32.59-19.647 41.01-39.128m-148.42 53.75c34.372-8.066 70.476-10.588 103.6-24.944 16.326-6.383 32.116-20.223 40.746-39.401m-146.6 57.739c33.815-9.34 69.543-13.423 102.05-28.661 16.14-6.994 31.65-20.797 40.48-39.672m-144.78 61.727c33.258-10.613 68.61-16.258 100.5-32.377 15.964-7.606 31.184-21.373 40.214-39.945m-142.97 65.716c32.702-11.886 67.677-19.093 98.944-36.093 15.785-8.218 30.725-21.949 39.955-40.217m-141.15 69.703c32.145-13.159 66.744-21.927 97.392-39.808 15.603-8.83 30.251-22.524 39.701-40.49m-139.35 73.692c31.588-14.432 65.811-24.762 95.84-43.525 15.422-9.441 29.787-23.099 39.437-40.762m-137.53 77.681c31.032-15.705 64.879-27.598 94.288-47.241 15.241-10.053 29.324-23.675 39.174-41.034m-135.72 81.669c30.474-16.978 63.945-30.433 92.736-50.957 15.059-10.665 28.86-24.25 38.91-41.307m-133.9 85.657c29.917-18.251 63.012-33.267 91.184-54.673 14.878-11.276 28.39-24.825 38.646-41.578m-132.09 89.646c29.366-19.525 62.085-36.103 89.638-58.39 14.696-11.888 27.923-25.401 38.382-41.851" stroke-width="5.388" clip-path="url(#clipPath3672)" fill="none" stroke="#fff" filter="url(#filter3666)" opacity="0.2" transform="matrix(0.75512 0 0 0.75536 -2.683 -2.455)"/>
   <path d="m12 90c-3.324 0-6-2.676-6-6v-2-68-2c0-0.33472 0.04135-0.6507 0.09375-0.96875 0.0487-0.2956 0.09704-0.59692 0.1875-0.875 0.0099-0.03 0.0209-0.063 0.0313-0.094 0.0989-0.2873 0.2349-0.547 0.375-0.812 0.1446-0.2735 0.3156-0.5356 0.5-0.7812 0.1844-0.2457 0.3738-0.4735 0.5937-0.6876 0.44-0.428 0.943-0.8145 1.5-1.0937 0.2786-0.1396 0.5735-0.2469 0.8748-0.3437-0.256 0.1002-0.4865 0.2362-0.7185 0.375-0.00741 0.0044-0.023866-0.0045-0.03125 0-0.031933 0.0193-0.062293 0.04251-0.09375 0.0625-0.1204 0.0767-0.23102 0.16351-0.34375 0.25-0.10617 0.0808-0.21328 0.16111-0.3125 0.25-0.1779 0.1614-0.3474 0.3453-0.5 0.5312-0.1075 0.1303-0.2183 0.2653-0.3124 0.4063-0.0251 0.0383-0.0385 0.0858-0.0626 0.125-0.0647 0.103-0.1302 0.2045-0.1874 0.3124-0.1011 0.1948-0.2057 0.4158-0.2813 0.625-0.008 0.0219-0.0236 0.0406-0.0313 0.0626-0.0318 0.0919-0.0358 0.1868-0.0624 0.2812-0.0304 0.1066-0.0704 0.203-0.0938 0.3125-0.0729 0.3415-0.125 0.6985-0.125 1.0625v2 68 2c0 2.7818 2.2182 5 5 5h2 68 2c2.7818 0 5-2.2182 5-5v-2-68-2c0-0.364-0.052-0.721-0.125-1.0625-0.044-0.2069-0.088-0.3977-0.156-0.5937-0.008-0.022-0.024-0.0407-0.031-0.0626-0.063-0.1737-0.139-0.3674-0.219-0.5312-0.042-0.0828-0.079-0.17-0.125-0.25-0.055-0.0972-0.127-0.1884-0.188-0.2812-0.094-0.141-0.205-0.276-0.312-0.4063-0.143-0.1745-0.303-0.347-0.469-0.5-0.011-0.0102-0.02-0.0211-0.031-0.0313-0.139-0.1255-0.285-0.2344-0.438-0.3437-0.102-0.0731-0.204-0.1534-0.312-0.2187-0.0074-0.0045-0.02384 0.0044-0.03125 0-0.23204-0.13873-0.46255-0.27478-0.71875-0.375 0.30153 0.0968 0.59646 0.20414 0.875 0.34375 0.55709 0.27922 1.0601 0.66569 1.5 1.0938 0.21997 0.21403 0.40937 0.44186 0.59375 0.6875s0.35541 0.50774 0.5 0.78125c0.14012 0.26505 0.27614 0.52473 0.375 0.8125 0.01041 0.03078 0.02133 0.06274 0.03125 0.09375 0.09046 0.27808 0.1388 0.5794 0.1875 0.875 0.053 0.318 0.094 0.634 0.094 0.969v2 68 2c0 3.324-2.676 6-6 6h-72z" fill="url(#radialGradient3162)" opacity="0.2"/>
  </g>
  <g transform="matrix(0.27727 0 0 0.29442 12.98 965.58)">
   <path d="m43.164 31.043c-5.78 0-10.482 4.538-10.482 10.116v187.68c0 5.576 4.702 10.115 10.482 10.115h169.67c5.781 0 10.484-4.539 10.484-10.115v-187.68c0-5.578-4.703-10.116-10.484-10.116h-169.67z" fill="url(#XMLID_11_)"/>
   <path d="m43.164 38.116c-1.754 0-3.181 1.365-3.181 3.043v187.68c0 1.676 1.427 3.041 3.181 3.041h169.67c1.756 0 3.184-1.365 3.184-3.041v-187.68c0-1.678-1.428-3.043-3.184-3.043h-169.67z" fill="#fc6"/>
   <path d="m211.32 38.59h-3.824c1.646 0 2.984 1.259 2.984 2.807v173.11c0 1.545-1.339 2.805-2.984 2.805h-159c-1.644 0-2.981-1.26-2.981-2.805v-173.11c0-1.548 1.337-2.807 2.981-2.807h-3.823c-1.722 0-3.124 1.32-3.124 2.942v181.44c0 1.622 1.402 2.94 3.124 2.94h166.65c1.724 0 3.126-1.318 3.126-2.94v-181.44c-0.01-1.63-1.41-2.95-3.14-2.95z" fill="#ffffde"/>
   <path d="m212.83 38.116h-3.721c1.678 0 3.043 1.305 3.043 2.91v179.45c0 1.604-1.365 2.908-3.043 2.908h-162.23c-1.677 0-3.041-1.305-3.041-2.908v-179.45c0-1.605 1.364-2.91 3.041-2.91h-3.722c-1.754 0-3.181 1.365-3.181 3.043v187.68c0 1.676 1.427 3.041 3.181 3.041h169.67c1.756 0 3.184-1.365 3.184-3.041v-187.68c0-1.678-1.428-3.043-3.184-3.043z" fill="url(#XMLID_12_)"/>
   <path d="m204.7 87.786v-42.937c0-1.507-1.252-2.733-2.792-2.733h-148.82c-1.538 0-2.79 1.226-2.79 2.733v112.06c1.681-1.064 3.256-2.248 4.65-3.615 42.363-39.016 93.217-68.195 149.75-65.507z" fill="url(#XMLID_13_)"/>
   <path d="m72.633 58.117c-6.897 0-12.509 5.611-12.509 12.509v125.84c0 6.896 5.612 12.507 12.509 12.507h110.74c6.896 0 12.509-5.611 12.509-12.507v-125.84c0-6.897-5.612-12.509-12.509-12.509h-110.74z" fill="url(#XMLID_14_)"/>
   <path d="m65.083 196.46c0 4.167 3.38 7.549 7.549 7.549h110.74c4.17 0 7.55-3.382 7.55-7.549v-125.84c0-4.17-3.38-7.551-7.55-7.551h-110.73c-4.169 0-7.549 3.381-7.549 7.551v125.84h-0.001z" fill="url(#XMLID_15_)"/>
   <path d="m72.633 66.221c-2.427 0-4.404 1.976-4.404 4.405v125.84c0 2.425 1.977 4.402 4.404 4.402h110.74c2.428 0 4.403-1.978 4.403-4.402v-125.84c0-2.429-1.976-4.405-4.403-4.405h-110.74z" fill="url(#XMLID_16_)"/>
   <path d="m150.02 119.7c11.698-10.968 25.757-16.363 40.896-19.043v-30.033c0-4.17-3.38-7.551-7.55-7.551h-110.73c-4.169 0-7.549 3.381-7.549 7.551v90.141c31.194 2.353 60.7-19.354 84.937-41.065z" fill="#fff" opacity="0.4"/>
   <path d="m105.48 11.043c-2.177 0-4.205 1.311-5.294 3.42l-22.049 42.729c-1.089 2.109-1.089 4.731 0 6.841 1.089 2.109 3.117 3.42 5.294 3.42h89.13c2.178 0 4.207-1.311 5.295-3.421 1.09-2.11 1.09-4.732 0-6.841l-22.04-42.728c-1.088-2.109-3.117-3.42-5.295-3.42h-45.041z" fill="url(#XMLID_17_)"/>
   <polygon fill="url(#XMLID_18_)" points="172.56 60.613 172.56 60.613 150.52 17.885 105.48 17.885 83.435 60.613"/>
   <polygon fill="url(#XMLID_19_)" points="167.9 56.137 167.9 56.137 148.16 17.885 107.84 17.885 88.104 56.137"/>
   <polygon fill="url(#XMLID_20_)" points="150.52 17.885 105.48 17.885 83.435 60.613 86.853 60.613 107.95 19.726 107.95 19.726 151.47 19.726"/>
   <text x="74.7" font-size="170.67" y="196.06" fill="#000000" font-family="Bitstream Vera Sans"><tspan x="74.7" y="196.06">P</tspan>
   </text>
  </g>
  <rect x="-96" rx="25" y="958.36" clip-path="url(#clipPath3009)" fill="#fff" height="92" opacity="0.15" width="92" transform="matrix(1 0 0 1 98 0)"/>
 </g>
</svg>
