<svg height="96" width="96" xmlns="http://www.w3.org/2000/svg" xmlns:sodipodi="http://sodipodi.sourceforge.net/DTD/sodipodi-0.dtd" xmlns:inkscape="http://www.inkscape.org/namespaces/inkscape">
 <defs>
  <linearGradient x2="0" y1="962.62" y2="1046.1" gradientUnits="userSpaceOnUse" id="linearGradient11642" gradientTransform="matrix(1.15 0 0 1.15 -7.2 -150.65)">
   <stop stop-color="#73004b"/>
   <stop stop-color="#a20069" offset="1"/>
  </linearGradient>
  <clipPath clipPathUnits="userSpaceOnUse" id="clipPath3009">
   <path d="m-2 956.36h-96v33.562l96 25.687v-59.25z"/>
  </clipPath>
 </defs>
 <g transform="matrix(1 0 0 1 0 -956.36)">
  <rect x="2" rx="25" y="958.36" fill="url(#linearGradient11642)" height="92" width="92"/>
  <g transform="matrix(1 0 0 1 0 956.36)">
   <path d="m48 17c-17.673 0-32 14.327-32 32s14.327 32 32 32 32-14.327 32-32-14.327-32-32-32zm0 8c13.255 0 24 10.745 24 24s-10.745 24-24 24-24-10.745-24-24 10.745-24 24-24zm0 6c-9.9411 0-18 8.0589-18 18s8.0589 18 18 18 18-8.0589 18-18-8.0589-18-18-18z" color="#000000" opacity="0.3"/>
   <path d="m72 48a24 24 0 1 1 -48 0 24 24 0 1 1 48 0z" fill="#fff" color="#000000" transform="matrix(0.75 0 0 0.75 12 12)"/>
   <path d="m48 16c-17.673 0-32 14.327-32 32s14.327 32 32 32 32-14.327 32-32-14.327-32-32-32zm0 8c13.255 0 24 10.745 24 24s-10.745 24-24 24-24-10.745-24-24 10.745-24 24-24z" fill="#fff" color="#000000"/>
  </g>
  <rect x="-96" rx="25" y="958.36" clip-path="url(#clipPath3009)" fill="#fff" height="92" opacity="0.15" width="92" transform="matrix(1 0 0 1 98 0)"/>
 </g>
</svg>
