<?xml version="1.0" encoding="UTF-8" standalone="no"?>
<!-- Created with Inkscape (http://www.inkscape.org/) -->

<svg
   xmlns:dc="http://purl.org/dc/elements/1.1/"
   xmlns:cc="http://creativecommons.org/ns#"
   xmlns:rdf="http://www.w3.org/1999/02/22-rdf-syntax-ns#"
   xmlns:svg="http://www.w3.org/2000/svg"
   xmlns="http://www.w3.org/2000/svg"
   xmlns:xlink="http://www.w3.org/1999/xlink"
   xmlns:sodipodi="http://sodipodi.sourceforge.net/DTD/sodipodi-0.dtd"
   xmlns:inkscape="http://www.inkscape.org/namespaces/inkscape"
   width="96"
   height="96"
   id="svg11037"
   version="1.1"
   inkscape:version="0.48.5 r10040"
   sodipodi:docname="pdfshuffler.svg">
  <defs
     id="defs11039">
    <clipPath
       clipPathUnits="userSpaceOnUse"
       id="clipPath3009">
      <path
         id="path3011"
         d="m -2,956.36218 -96,0 0,33.5624 96,25.68742 0,-59.24982 z"
         style="opacity:0.15;fill:#ffffff;fill-opacity:1;stroke:none"
         inkscape:connector-curvature="0" />
    </clipPath>
    <linearGradient
       id="linearGradient3700">
      <stop
         id="stop3702"
         style="stop-color:#e6e6e6;stop-opacity:1"
         offset="0" />
      <stop
         id="stop3704"
         style="stop-color:#f5f5f5;stop-opacity:1"
         offset="1" />
    </linearGradient>
    <linearGradient
       id="linearGradient3737-9">
      <stop
         id="stop3739-2"
         style="stop-color:#ffffff;stop-opacity:1"
         offset="0" />
      <stop
         id="stop3741-1"
         style="stop-color:#ffffff;stop-opacity:0"
         offset="1" />
    </linearGradient>
    <clipPath
       id="clipPath3613">
      <rect
         width="84"
         height="84"
         rx="6"
         ry="6"
         x="6"
         y="6"
         id="rect3615"
         style="fill:#ffffff;fill-opacity:1;fill-rule:nonzero;stroke:none" />
    </clipPath>
    <filter
       x="-0.192"
       y="-0.192"
       width="1.3839999"
       height="1.3839999"
       color-interpolation-filters="sRGB"
       id="filter3794">
      <feGaussianBlur
         id="feGaussianBlur3796"
         stdDeviation="5.28" />
    </filter>
    <linearGradient
       id="linearGradient3174">
      <stop
         id="stop3176"
         style="stop-color:#c30000;stop-opacity:1"
         offset="0" />
      <stop
         id="stop3178"
         style="stop-color:#f12300;stop-opacity:1"
         offset="1" />
    </linearGradient>
    <linearGradient
       id="linearGradient4325">
      <stop
         id="stop4327"
         style="stop-color:#d88215;stop-opacity:1"
         offset="0" />
      <stop
         id="stop4329"
         style="stop-color:#efc259;stop-opacity:1"
         offset="1" />
    </linearGradient>
    <linearGradient
       id="linearGradient3485">
      <stop
         id="stop3487"
         style="stop-color:#e6605b;stop-opacity:1"
         offset="0" />
      <stop
         id="stop3489"
         style="stop-color:#f08682;stop-opacity:1"
         offset="1" />
    </linearGradient>
    <filter
       x="-0.42857143"
       y="-0.16666667"
       width="1.8571428"
       height="1.3333333"
       color-interpolation-filters="sRGB"
       id="filter3495">
      <feGaussianBlur
         stdDeviation="0.55242721"
         id="feGaussianBlur3497" />
    </filter>
    <filter
       x="-0.18344349"
       y="-0.17668343"
       width="1.366887"
       height="1.3533669"
       color-interpolation-filters="sRGB"
       id="filter3509">
      <feGaussianBlur
         stdDeviation="0.65925"
         id="feGaussianBlur3511" />
    </filter>
    <linearGradient
       id="linearGradient3339">
      <stop
         id="stop3341"
         style="stop-color:#000000;stop-opacity:1"
         offset="0" />
      <stop
         id="stop3347"
         style="stop-color:#000000;stop-opacity:0.49803922"
         offset="0.69999999" />
      <stop
         id="stop3343"
         style="stop-color:#000000;stop-opacity:0"
         offset="1" />
    </linearGradient>
    <linearGradient
       id="linearGradient3278">
      <stop
         id="stop3280"
         style="stop-color:#000000;stop-opacity:1"
         offset="0" />
      <stop
         id="stop3290"
         style="stop-color:#282828;stop-opacity:1"
         offset="0.25" />
      <stop
         id="stop3286"
         style="stop-color:#3c3c3c;stop-opacity:1"
         offset="0.30000001" />
      <stop
         id="stop3288"
         style="stop-color:#646464;stop-opacity:1"
         offset="0.69999999" />
      <stop
         id="stop3292"
         style="stop-color:#787878;stop-opacity:1"
         offset="0.75" />
      <stop
         id="stop3282"
         style="stop-color:#a0a0a0;stop-opacity:1"
         offset="1" />
    </linearGradient>
    <linearGradient
       id="linearGradient3254">
      <stop
         id="stop3256"
         style="stop-color:#000000;stop-opacity:1"
         offset="0" />
      <stop
         id="stop3266"
         style="stop-color:#000000;stop-opacity:1"
         offset="0.06588447" />
      <stop
         id="stop3264"
         style="stop-color:#ad5f1b;stop-opacity:1"
         offset="0.07" />
      <stop
         id="stop3268"
         style="stop-color:#ad601a;stop-opacity:1"
         offset="0.1913653" />
      <stop
         id="stop3262"
         style="stop-color:#000000;stop-opacity:1"
         offset="0.20983393" />
      <stop
         id="stop3258"
         style="stop-color:#000000;stop-opacity:1"
         offset="1" />
    </linearGradient>
    <linearGradient
       id="linearGradient3394">
      <stop
         id="stop3396"
         style="stop-color:#000000;stop-opacity:1"
         offset="0" />
      <stop
         id="stop3402"
         style="stop-color:#7d7d7d;stop-opacity:1"
         offset="0.5" />
      <stop
         id="stop3398"
         style="stop-color:#000000;stop-opacity:1"
         offset="1" />
    </linearGradient>
    <linearGradient
       id="linearGradient3308">
      <stop
         id="stop3310"
         style="stop-color:#da8539;stop-opacity:1"
         offset="0" />
      <stop
         id="stop3312"
         style="stop-color:#fadfc7;stop-opacity:1"
         offset="1" />
    </linearGradient>
    <linearGradient
       id="linearGradient5452">
      <stop
         id="stop5454"
         style="stop-color:#ffffff;stop-opacity:1"
         offset="0" />
      <stop
         id="stop5456"
         style="stop-color:#ffffff;stop-opacity:0"
         offset="1" />
    </linearGradient>
    <filter
       x="-0.43161276"
       y="-0.11371106"
       width="1.8632255"
       height="1.2274221"
       color-interpolation-filters="sRGB"
       id="filter3382">
      <feGaussianBlur
         stdDeviation="0.73914765"
         id="feGaussianBlur3384" />
    </filter>
    <filter
       x="-0.60979599"
       y="-0.1494"
       width="2.2195919"
       height="1.2988"
       color-interpolation-filters="sRGB"
       id="filter3390">
      <feGaussianBlur
         stdDeviation="0.77812506"
         id="feGaussianBlur3392" />
    </filter>
    <linearGradient
       id="linearGradient3401">
      <stop
         id="stop3403"
         style="stop-color:#404040;stop-opacity:1"
         offset="0" />
      <stop
         id="stop3447"
         style="stop-color:#808080;stop-opacity:1"
         offset="0.2" />
      <stop
         id="stop3410"
         style="stop-color:#efefef;stop-opacity:1"
         offset="0.69999999" />
      <stop
         id="stop3405"
         style="stop-color:#dcdcdc;stop-opacity:1"
         offset="1" />
    </linearGradient>
    <linearGradient
       id="linearGradient3461">
      <stop
         id="stop3463"
         style="stop-color:#444542;stop-opacity:1"
         offset="0" />
      <stop
         id="stop3465"
         style="stop-color:#71746e;stop-opacity:1"
         offset="1" />
    </linearGradient>
    <linearGradient
       id="linearGradient3355">
      <stop
         id="stop3357"
         style="stop-color:#ffffff;stop-opacity:1"
         offset="0" />
      <stop
         id="stop3359"
         style="stop-color:#ffffff;stop-opacity:0.49803922"
         offset="0.69999999" />
      <stop
         id="stop3361"
         style="stop-color:#ffffff;stop-opacity:0"
         offset="1" />
    </linearGradient>
    <linearGradient
       id="linearGradient3439">
      <stop
         id="stop3441"
         style="stop-color:#3d3d3d;stop-opacity:1"
         offset="0" />
      <stop
         id="stop3443"
         style="stop-color:#ffffff;stop-opacity:1"
         offset="1" />
    </linearGradient>
    <filter
       x="-1.0349605"
       y="-0.13573837"
       width="3.069921"
       height="1.2714767"
       color-interpolation-filters="sRGB"
       id="filter3451">
      <feGaussianBlur
         stdDeviation="0.9498173"
         id="feGaussianBlur3453" />
    </filter>
    <filter
       x="-0.93333328"
       y="-0.13770492"
       width="2.8666666"
       height="1.2754098"
       color-interpolation-filters="sRGB"
       id="filter3457">
      <feGaussianBlur
         stdDeviation="0.92807767"
         id="feGaussianBlur3459" />
    </filter>
    <linearGradient
       inkscape:collect="always"
       xlink:href="#linearGradient3485"
       id="linearGradient3443"
       gradientUnits="userSpaceOnUse"
       x1="136.41356"
       y1="115.49392"
       x2="149.52968"
       y2="115.49392" />
    <linearGradient
       inkscape:collect="always"
       xlink:href="#linearGradient3339"
       id="linearGradient3445"
       gradientUnits="userSpaceOnUse"
       gradientTransform="matrix(1.0893815,0,0,1,-13.275943,0)"
       x1="137.40625"
       y1="116.46875"
       x2="148.53125"
       y2="116.46875" />
    <linearGradient
       inkscape:collect="always"
       xlink:href="#linearGradient3278"
       id="linearGradient3447"
       gradientUnits="userSpaceOnUse"
       gradientTransform="translate(-23.73343,0)"
       x1="136"
       y1="60"
       x2="150"
       y2="60" />
    <linearGradient
       inkscape:collect="always"
       xlink:href="#linearGradient3254"
       id="linearGradient3449"
       gradientUnits="userSpaceOnUse"
       gradientTransform="translate(-23.73343,0)"
       x1="143"
       y1="2.4000001e-06"
       x2="143"
       y2="120.01752" />
    <linearGradient
       inkscape:collect="always"
       xlink:href="#linearGradient3394"
       id="linearGradient3451"
       gradientUnits="userSpaceOnUse"
       gradientTransform="translate(-23.73343,0)"
       x1="141.25002"
       y1="4.9218717"
       x2="144.81252"
       y2="4.9218717" />
    <linearGradient
       inkscape:collect="always"
       xlink:href="#linearGradient3308"
       id="linearGradient3453"
       gradientUnits="userSpaceOnUse"
       gradientTransform="translate(-23.73343,0)"
       x1="136.98804"
       y1="17.043356"
       x2="148.99513"
       y2="17.043356" />
    <linearGradient
       inkscape:collect="always"
       xlink:href="#linearGradient5452"
       id="linearGradient3455"
       gradientUnits="userSpaceOnUse"
       gradientTransform="matrix(1,0,0,1.2653524,-23.73343,-54.364173)"
       x1="146.10596"
       y1="118.94019"
       x2="146.07562"
       y2="66" />
    <linearGradient
       inkscape:collect="always"
       xlink:href="#linearGradient5452"
       id="linearGradient3457"
       gradientUnits="userSpaceOnUse"
       gradientTransform="matrix(1,0,0,1.2653524,-29.85843,-54.364173)"
       x1="146.10596"
       y1="118.94019"
       x2="146.07562"
       y2="66" />
    <linearGradient
       inkscape:collect="always"
       xlink:href="#linearGradient3401"
       id="linearGradient3459"
       gradientUnits="userSpaceOnUse"
       x1="136"
       y1="106"
       x2="150"
       y2="106" />
    <linearGradient
       inkscape:collect="always"
       xlink:href="#linearGradient3461"
       id="linearGradient3462"
       gradientUnits="userSpaceOnUse"
       x1="136"
       y1="106"
       x2="150"
       y2="106" />
    <linearGradient
       inkscape:collect="always"
       xlink:href="#linearGradient3339"
       id="linearGradient3464"
       gradientUnits="userSpaceOnUse"
       gradientTransform="translate(0.04225159,1.5494389)"
       spreadMethod="reflect"
       x1="142.95775"
       y1="98.950562"
       x2="148.95775"
       y2="98.950562" />
    <linearGradient
       inkscape:collect="always"
       xlink:href="#linearGradient3355"
       id="linearGradient3466"
       gradientUnits="userSpaceOnUse"
       gradientTransform="translate(0.04225159,2.5494389)"
       spreadMethod="reflect"
       x1="142.95775"
       y1="98.950562"
       x2="148.95775"
       y2="98.950562" />
    <linearGradient
       inkscape:collect="always"
       xlink:href="#linearGradient3339"
       id="linearGradient3468"
       gradientUnits="userSpaceOnUse"
       gradientTransform="translate(0.04225159,3.5494389)"
       spreadMethod="reflect"
       x1="142.95775"
       y1="98.950562"
       x2="148.95775"
       y2="98.950562" />
    <linearGradient
       inkscape:collect="always"
       xlink:href="#linearGradient3355"
       id="linearGradient3470"
       gradientUnits="userSpaceOnUse"
       gradientTransform="translate(0.04225159,4.5494389)"
       spreadMethod="reflect"
       x1="142.95775"
       y1="98.950562"
       x2="148.95775"
       y2="98.950562" />
    <linearGradient
       inkscape:collect="always"
       xlink:href="#linearGradient3339"
       id="linearGradient3472"
       gradientUnits="userSpaceOnUse"
       gradientTransform="translate(0.04225159,9.5494389)"
       spreadMethod="reflect"
       x1="142.95775"
       y1="98.950562"
       x2="148.95775"
       y2="98.950562" />
    <linearGradient
       inkscape:collect="always"
       xlink:href="#linearGradient3355"
       id="linearGradient3474"
       gradientUnits="userSpaceOnUse"
       gradientTransform="translate(0.04225159,10.549439)"
       spreadMethod="reflect"
       x1="142.95775"
       y1="98.950562"
       x2="148.95775"
       y2="98.950562" />
    <linearGradient
       inkscape:collect="always"
       xlink:href="#linearGradient3339"
       id="linearGradient3476"
       gradientUnits="userSpaceOnUse"
       gradientTransform="translate(0.04225159,11.549439)"
       spreadMethod="reflect"
       x1="142.95775"
       y1="98.950562"
       x2="148.95775"
       y2="98.950562" />
    <linearGradient
       inkscape:collect="always"
       xlink:href="#linearGradient3355"
       id="linearGradient3478"
       gradientUnits="userSpaceOnUse"
       gradientTransform="translate(0.04225159,12.549439)"
       spreadMethod="reflect"
       x1="142.95775"
       y1="98.950562"
       x2="148.95775"
       y2="98.950562" />
    <linearGradient
       inkscape:collect="always"
       xlink:href="#linearGradient3439"
       id="linearGradient3480"
       gradientUnits="userSpaceOnUse"
       spreadMethod="repeat"
       x1="137"
       y1="106"
       x2="139.03125"
       y2="106" />
    <linearGradient
       inkscape:collect="always"
       xlink:href="#linearGradient4325"
       id="linearGradient3482"
       gradientUnits="userSpaceOnUse"
       gradientTransform="matrix(1.4999999,0,0,1.4999999,-42.36488,906.47289)"
       x1="66"
       y1="84"
       x2="66"
       y2="55" />
    <linearGradient
       inkscape:collect="always"
       xlink:href="#linearGradient3174"
       id="linearGradient3484"
       gradientUnits="userSpaceOnUse"
       x1="56.633896"
       y1="89.164001"
       x2="56.633896"
       y2="6.398416" />
    <linearGradient
       inkscape:collect="always"
       xlink:href="#linearGradient3737-9"
       id="linearGradient3486"
       gradientUnits="userSpaceOnUse"
       x1="48"
       y1="20.220806"
       x2="48"
       y2="138.66119" />
    <linearGradient
       inkscape:collect="always"
       xlink:href="#linearGradient3700"
       id="linearGradient3488"
       gradientUnits="userSpaceOnUse"
       x1="48"
       y1="90"
       x2="48"
       y2="5.9877172" />
    <clipPath
       clipPathUnits="userSpaceOnUse"
       id="clipPath3490">
      <rect
         ry="38.688347"
         rx="38.688347"
         id="rect3492"
         style="opacity:0.6;fill:#000000;fill-opacity:1"
         height="142.37311"
         width="142.37311"
         y="-187.53699"
         x="26.486042"
         transform="matrix(0.93852384,-0.34521442,-0.34521442,-0.93852384,0,0)" />
    </clipPath>
    <clipPath
       clipPathUnits="userSpaceOnUse"
       id="clipPath3494">
      <rect
         ry="25"
         rx="25"
         id="rect3496"
         style="opacity:0.6;fill:#000000;fill-opacity:1"
         height="92"
         width="92"
         y="958.36218"
         x="2" />
    </clipPath>
    <clipPath
       clipPathUnits="userSpaceOnUse"
       id="clipPath3498">
      <rect
         ry="25"
         rx="25"
         id="rect3500"
         style="opacity:0.6;fill:#000000;fill-opacity:1"
         height="92"
         width="92"
         y="958.36218"
         x="2" />
    </clipPath>
    <clipPath
       clipPathUnits="userSpaceOnUse"
       id="clipPath3502">
      <rect
         ry="25"
         rx="25"
         id="rect3504"
         style="opacity:0.6;fill:#000000;fill-opacity:1"
         height="92"
         width="92"
         y="958.36218"
         x="2" />
    </clipPath>
    <clipPath
       clipPathUnits="userSpaceOnUse"
       id="clipPath3506">
      <rect
         ry="21.875"
         rx="21.875"
         id="rect3508"
         style="opacity:0.6;fill:#000000;fill-opacity:1"
         height="80.5"
         width="80.5"
         y="7.75"
         x="6.3675675" />
    </clipPath>
    <clipPath
       clipPathUnits="userSpaceOnUse"
       id="clipPath3510">
      <rect
         ry="21.875"
         rx="21.875"
         id="rect3512"
         style="opacity:0.6;fill:#000000;fill-opacity:1"
         height="80.5"
         width="80.5"
         y="7.75"
         x="6.3675675" />
    </clipPath>
    <clipPath
       clipPathUnits="userSpaceOnUse"
       id="clipPath3514">
      <rect
         ry="21.875"
         rx="21.875"
         id="rect3516"
         style="opacity:0.6;fill:#000000;fill-opacity:1"
         height="80.5"
         width="80.5"
         y="7.75"
         x="6.3675675" />
    </clipPath>
  </defs>
  <sodipodi:namedview
     id="base"
     pagecolor="#ffffff"
     bordercolor="#666666"
     borderopacity="1.0"
     inkscape:pageopacity="0.0"
     inkscape:pageshadow="2"
     inkscape:zoom="3.959798"
     inkscape:cx="11.940359"
     inkscape:cy="49.863109"
     inkscape:document-units="px"
     inkscape:current-layer="layer1"
     showgrid="false"
     inkscape:window-width="1366"
     inkscape:window-height="684"
     inkscape:window-x="0"
     inkscape:window-y="26"
     inkscape:window-maximized="1"
     showguides="true"
     inkscape:guide-bbox="true">
    <sodipodi:guide
       orientation="0,1"
       position="-24.748737,0"
       id="guide11064" />
    <sodipodi:guide
       orientation="0,1"
       position="-23.233509,96"
       id="guide11066" />
    <sodipodi:guide
       orientation="1,0"
       position="0,54.800776"
       id="guide11068" />
    <sodipodi:guide
       orientation="1,0"
       position="96,51.012704"
       id="guide11070" />
    <sodipodi:guide
       orientation="0,1"
       position="-18.94036,48"
       id="guide11072" />
    <sodipodi:guide
       orientation="1,0"
       position="48,79.296975"
       id="guide11074" />
    <sodipodi:guide
       orientation="1,0"
       position="2,75.508903"
       id="guide11076" />
    <sodipodi:guide
       orientation="0,1"
       position="-77.27667,2"
       id="guide11078" />
    <sodipodi:guide
       orientation="1,0"
       position="94,77.781746"
       id="guide11080" />
    <sodipodi:guide
       orientation="0,1"
       position="-65.912454,94"
       id="guide11082" />
  </sodipodi:namedview>
  <metadata
     id="metadata11042">
    <rdf:RDF>
      <cc:Work
         rdf:about="">
        <dc:format>image/svg+xml</dc:format>
        <dc:type
           rdf:resource="http://purl.org/dc/dcmitype/StillImage" />
        <dc:title />
      </cc:Work>
    </rdf:RDF>
  </metadata>
  <g
     inkscape:label="Layer 1"
     inkscape:groupmode="layer"
     id="layer1"
     transform="translate(0,-956.36218)">
    <g
       id="layer1-5"
       transform="matrix(1.1428571,0,0,1.1428571,-5.27722,949.50504)"
       clip-path="url(#clipPath3514)">
      <rect
         width="84"
         height="84"
         rx="6"
         ry="6"
         x="6"
         y="6"
         id="rect2419"
         style="fill:url(#linearGradient3488);fill-opacity:1;fill-rule:nonzero;stroke:none" />
    </g>
    <g
       id="layer5"
       transform="matrix(1.1428571,0,0,1.1428571,-5.27722,949.50504)"
       clip-path="url(#clipPath3510)">
      <rect
         width="66"
         height="66"
         rx="12"
         ry="12"
         x="15"
         y="15"
         clip-path="url(#clipPath3613)"
         id="rect3171"
         style="opacity:0.5;fill:url(#linearGradient3486);fill-opacity:1;fill-rule:nonzero;stroke:#ffffff;stroke-width:0.5;stroke-linecap:round;stroke-linejoin:miter;stroke-miterlimit:4;stroke-opacity:1;stroke-dasharray:none;stroke-dashoffset:0;display:inline;filter:url(#filter3794)" />
    </g>
    <g
       id="layer3"
       transform="matrix(1.1428571,0,0,1.1428571,-5.27722,949.50504)"
       clip-path="url(#clipPath3506)">
      <path
         d="M 12,12 12,29.9375 20.09375,12 12,12 z M 21.90625,12 30,29.9375 30,12 21.90625,12 z M 21,19.03125 l -3.03125,7 2.928571,0 1.71875,3.96875 3.227679,0 -2.375,-5.28125 -0.0625,-0.125 L 21,19.03125 z"
         inkscape:connector-curvature="0"
         id="rect3362"
         style="opacity:0.5;fill:#999999;fill-opacity:1;fill-rule:nonzero;stroke:none" />
      <path
         d="M 90,28.6875 C 66.483285,59.017616 30.249279,63.158806 6,58.78125 l 0,4.90625 c 22.767532,4.109913 50.946157,3.417984 71.3125,-5.09375 -4.387217,6.352052 -6.223842,13.463734 -6.65625,19.9375 -0.278127,4.163964 0.003,8.088332 0.46875,11.46875 l 4.03125,0 c -0.478649,-3.261833 -0.772231,-7.111813 -0.5,-11.1875 C 75.286755,69.372953 78.723322,58.984232 90,51.84375 L 90,28.6875 z"
         inkscape:connector-curvature="0"
         id="path3192"
         style="opacity:0.1;fill:#000000;fill-opacity:1;fill-rule:evenodd;stroke:none" />
      <path
         d="M 58.762131,6.0005672 C 54.813987,14.692463 51.82222,23.633779 49.837199,32.644132 48.806861,33.464064 47.759914,34.230151 46.687219,35.006616 34.448967,43.86517 19.768492,49.65331 6,49.312763 l 0,6.562455 C 18.183497,57.025416 26.288573,59.087281 31.806074,66.42514 37.263113,73.682589 40.318537,80.858914 40.318537,90 l 4.199972,0 c 0,-9.113789 -3.95447,-19.939986 -9.299958,-26.068593 C 29.93589,57.874832 23.264186,55.069699 14.268692,52.987738 26.298245,51.377178 38.242322,46.028524 48.524707,38.681591 45.55928,55.902052 46.04264,73.389567 49.705946,90 L 78.712,90 C 64.218349,76.858849 57.948589,53.302841 57.974636,31.069143 66.147448,23.461052 72.49871,14.738119 75.824519,6.0005672 l -4.46247,0 C 68.596865,12.400983 63.962095,18.968932 58.10589,25.031685 58.462461,18.332933 59.531125,11.920825 60.993371,6.0005672 l -2.23124,0 z"
         inkscape:connector-curvature="0"
         id="path4144"
         style="fill:url(#linearGradient3484);fill-opacity:1;fill-rule:evenodd;stroke:none;display:inline" />
      <path
         d="M 58.75,6 C 54.801856,14.691896 51.828771,23.645897 49.84375,32.65625 48.813412,33.476182 47.760195,34.223535 46.6875,35 34.449248,43.858554 19.768492,49.653047 6,49.3125 l 0,1 C 19.768492,50.653047 34.449248,44.858554 46.6875,36 47.760195,35.223535 48.813412,34.476182 49.84375,33.65625 51.828771,24.645897 54.801856,15.691896 58.75,7 l 2,0 C 60.828988,6.6670557 60.918512,6.3299248 61,6 l -2.25,0 z m 12.625,0 c -2.750591,6.366638 -7.375043,12.901458 -13.1875,18.9375 -0.02373,0.36488 -0.07423,0.727119 -0.09375,1.09375 C 63.949955,19.968497 68.609816,13.400416 71.375,7 l 4.03125,0 C 75.54317,6.6637659 75.684478,6.3363402 75.8125,6 L 71.375,6 z M 58.03125,35.25 c 0.535584,20.715555 6.558943,42.08726 19.625,54.75 l 1.0625,0 C 65.130952,77.680171 58.751682,56.206067 58.03125,35.25 z m -9.5,4.4375 c -0.06075,0.04341 -0.126632,0.08173 -0.1875,0.125 -1.048187,6.416674 -1.61151,12.856525 -1.71875,19.28125 0.156241,-6.472447 0.794215,-12.948577 1.90625,-19.40625 z M 16.75,53.625 c -0.822927,0.14489 -1.644513,0.264648 -2.46875,0.375 8.995494,2.081961 15.654839,4.880925 20.9375,10.9375 C 40.369893,70.84329 44.226175,81.105736 44.5,90 l 0.03125,0 c 0,-9.113789 -3.967012,-19.933893 -9.3125,-26.0625 C 30.438061,58.456437 24.498696,55.654163 16.75,53.625 z"
         inkscape:connector-curvature="0"
         id="path3683"
         style="opacity:0.6;fill:#550000;fill-opacity:1;fill-rule:evenodd;stroke:none;display:inline" />
      <path
         d="m 60.75,7 c -1.338401,5.641496 -2.31955,11.705807 -2.65625,18.03125 0.03091,-0.032 0.06291,-0.06173 0.09375,-0.09375 C 58.597335,18.635619 59.617784,12.596235 61,7 l -0.25,0 z m 14.65625,0 c -3.420027,8.398562 -9.579289,16.747272 -17.4375,24.0625 -3.89e-4,0.331772 -0.0024,0.667678 0,1 C 66.141562,24.454409 72.486691,15.737552 75.8125,7 l -0.40625,0 z m -26.875,31.6875 C 38.248865,46.034433 26.310803,51.38944 14.28125,53 c 0.854775,0.197833 1.655137,0.411938 2.46875,0.625 11.11655,-1.957259 22.058519,-7.034282 31.59375,-13.8125 0.0615,-0.376516 0.122704,-0.748727 0.1875,-1.125 z M 6,55.875 l 0,1 c 12.183497,1.150198 20.294999,3.224641 25.8125,10.5625 5.254879,6.988591 8.252476,13.898377 8.46875,22.5625 l 0.03125,0 c 0,-9.141086 -3.042961,-16.305051 -8.5,-23.5625 C 26.294999,59.099641 18.183497,57.025198 6,55.875 z m 40.625,8.6875 C 46.768504,73.158773 47.734334,81.686962 49.5,90 l 0.21875,0 C 47.887097,81.694783 46.833075,73.163241 46.625,64.5625 z"
         inkscape:connector-curvature="0"
         id="path3671"
         style="opacity:0.8;fill:#ffffff;fill-opacity:1;fill-rule:evenodd;stroke:none;display:inline" />
    </g>
    <path
       d="m 83.635115,969.47289 -95.999995,63.00001 95.999995,0 0,-63.00001 z m -11.765624,21.75 0,29.48441 -44.953124,0 44.953124,-29.48441 z"
       inkscape:connector-curvature="0"
       id="path4318"
       style="fill:url(#linearGradient3482);fill-opacity:1;stroke:none"
       clip-path="url(#clipPath3502)" />
    <path
       d="m 71.861642,990.08003 0,1.14286 -43.17857,28.35711 -1.75,0 44.92857,-29.49997 z m 11.785713,41.24997 0,1.1429 -95.999995,0 1.75,-1.1429 94.249995,0 z"
       inkscape:connector-curvature="0"
       id="path4964"
       style="fill:#a0672c;fill-opacity:1;stroke:none"
       clip-path="url(#clipPath3498)" />
    <path
       d="m 83.647355,969.47289 0,1.14286 -94.249995,61.85715 -1.75,0 95.999995,-63.00001 z m -11.785713,51.25001 0,1.1428 -44.92857,0 1.75,-1.1428 43.17857,0 z"
       inkscape:connector-curvature="0"
       id="path4955"
       style="opacity:0.5;fill:#ffe680;fill-opacity:1;stroke:none"
       clip-path="url(#clipPath3494)" />
    <g
       transform="matrix(0.60646419,-0.22307391,-0.22307391,-0.60646419,-15.115,1079.5466)"
       id="g3643"
       style="display:inline"
       clip-path="url(#clipPath3490)">
      <g
         id="g3537">
        <rect
           width="12.116117"
           height="16"
           rx="3"
           ry="3"
           x="136.91356"
           y="107.49392"
           id="rect3483"
           style="fill:url(#linearGradient3443);fill-opacity:1;stroke:#df453f;stroke-width:1.32645738;stroke-linecap:butt;stroke-linejoin:round;stroke-miterlimit:4;stroke-opacity:1;stroke-dasharray:none" />
        <path
           inkscape:connector-curvature="0"
           d="m 141.24458,118.1889 a 1.5467962,3.9774759 0 1 1 -3.09359,0 1.5467962,3.9774759 0 1 1 3.09359,0 z"
           transform="matrix(1.8857143,0,0,1,-123.51329,-1.9445437)"
           id="path3493"
           style="opacity:0.3;fill:#701300;fill-opacity:1;stroke:none;filter:url(#filter3495)" />
        <path
           d="m 146.31251,113.125 c -0.85193,9.50672 -3.9375,8.3125 -6.5,8.9375 4.07634,0.0625 8.625,-0.0625 8.625,-0.0625 -2.4375,-0.5625 -1.8125,-2.375 -2.125,-8.875 z"
           inkscape:connector-curvature="0"
           id="path3499"
           style="opacity:0.8;fill:#ffffff;fill-opacity:1;fill-rule:evenodd;stroke:none;filter:url(#filter3509)" />
        <rect
           width="12.119369"
           height="1"
           x="136.41188"
           y="115.96875"
           id="rect3525"
           style="opacity:0.2;fill:url(#linearGradient3445);fill-opacity:1;stroke:none" />
      </g>
      <g
         transform="translate(23.73343,0)"
         id="g3311">
        <path
           d="m 112.76657,24.500002 6.5,-23.9999996 6.5,23.9999996 0,71.999997 -13,0 0,-71.999997 z"
           inkscape:connector-curvature="0"
           id="rect2480"
           style="fill:url(#linearGradient3447);fill-opacity:1;stroke:url(#linearGradient3449);stroke-width:1.32645738;stroke-linecap:butt;stroke-linejoin:round;stroke-miterlimit:4;stroke-opacity:1;stroke-dasharray:none" />
        <path
           d="m 117.69336,8.0716529 3.14265,0.022097 -1.58237,-5.7913293"
           inkscape:connector-curvature="0"
           id="path3272"
           style="fill:url(#linearGradient3451);fill-opacity:1;fill-rule:evenodd;stroke:none" />
        <path
           d="M 117.73213,8.0901517 113.96457,22 c 0,0 -0.46779,1.653465 -0.698,2.60832 -0.19122,0.64228 1.95886,1.611283 3.0182,-1.60832 1.21534,4.513809 5.57589,3.437953 5.98831,0.01105 0.3425,1.701476 1.75396,2.949961 2.98863,1.521937 -0.23478,-0.908743 -0.43641,-1.521937 -0.43641,-1.521937 l -4.02168,-14.9208973 -3.07149,0 z"
           inkscape:connector-curvature="0"
           id="path3274"
           style="fill:url(#linearGradient3453);fill-opacity:1;fill-rule:evenodd;stroke:none" />
        <path
           d="m 122.37252,96.304856 0,-67.217294"
           inkscape:connector-curvature="0"
           id="path3294"
           style="opacity:0.3;fill:none;stroke:url(#linearGradient3455);stroke-width:1.76860964px;stroke-linecap:butt;stroke-linejoin:miter;stroke-opacity:1" />
        <path
           d="m 116.24752,96.304856 0,-67.217294"
           inkscape:connector-curvature="0"
           id="path3304"
           style="opacity:0.4;fill:none;stroke:url(#linearGradient3457);stroke-width:1.76860964px;stroke-linecap:butt;stroke-linejoin:miter;stroke-opacity:1" />
        <path
           d="m 118.7044,5.9798798 -4.77297,17.8986412 1.98873,-0.839689 2.78424,-17.0589522 z"
           inkscape:connector-curvature="0"
           id="path3372"
           style="opacity:0.4;fill:#ac4311;fill-opacity:1;fill-rule:evenodd;stroke:none;filter:url(#filter3382)" />
        <path
           d="m 113.07908,24.624995 c 0,0 1.48667,1.76491 3.25,-1.53125 2,5.25 5.16858,2.087146 5.93749,-0.03125 1.375,3.4375 3.12501,1.4375 3.12501,1.4375"
           inkscape:connector-curvature="0"
           id="path3386"
           style="opacity:0.15;fill:none;stroke:#4d2600;stroke-width:1.76860964px;stroke-linecap:butt;stroke-linejoin:miter;stroke-opacity:1" />
        <path
           d="m 144.06251,8.9374939 -0.375,12.5000011 3.0625,-0.3125 -2.6875,-12.1875011 z"
           inkscape:connector-curvature="0"
           transform="matrix(1.122449,0,0,1.345,-41.70282,-4.7709353)"
           id="path3388"
           style="opacity:0.8;fill:#ffffff;fill-opacity:1;fill-rule:evenodd;stroke:none;filter:url(#filter3390)" />
      </g>
      <g
         id="g3620">
        <rect
           width="13"
           height="19"
           x="136.5"
           y="96.5"
           id="rect3333"
           style="fill:url(#linearGradient3459);fill-opacity:1;stroke:url(#linearGradient3462);stroke-width:1.32645738;stroke-linecap:butt;stroke-linejoin:round;stroke-miterlimit:4;stroke-opacity:1;stroke-dasharray:none" />
        <rect
           width="12"
           height="1"
           x="137"
           y="100"
           id="rect3337"
           style="opacity:0.4;fill:url(#linearGradient3464);fill-opacity:1;stroke:none" />
        <rect
           width="12"
           height="1"
           x="137"
           y="101"
           id="rect3351"
           style="opacity:0.6;fill:url(#linearGradient3466);fill-opacity:1;stroke:none" />
        <rect
           width="12"
           height="1"
           x="137"
           y="102"
           id="rect3369"
           style="opacity:0.4;fill:url(#linearGradient3468);fill-opacity:1;stroke:none" />
        <rect
           width="12"
           height="1"
           x="137"
           y="103"
           id="rect3371"
           style="opacity:0.6;fill:url(#linearGradient3470);fill-opacity:1;stroke:none" />
        <rect
           width="12"
           height="1"
           x="137"
           y="108"
           id="rect3379"
           style="opacity:0.4;fill:url(#linearGradient3472);fill-opacity:1;stroke:none" />
        <rect
           width="12"
           height="1"
           x="137"
           y="109"
           id="rect3381"
           style="opacity:0.6;fill:url(#linearGradient3474);fill-opacity:1;stroke:none" />
        <rect
           width="12"
           height="1"
           x="137"
           y="110"
           id="rect3385"
           style="opacity:0.4;fill:url(#linearGradient3476);fill-opacity:1;stroke:none" />
        <rect
           width="12"
           height="1"
           x="137"
           y="111"
           id="rect3387"
           style="opacity:0.6;fill:url(#linearGradient3478);fill-opacity:1;stroke:none" />
        <rect
           width="12"
           height="4"
           x="137"
           y="104"
           id="rect3437"
           style="opacity:0.3;fill:url(#linearGradient3480);fill-opacity:1;stroke:none" />
        <path
           inkscape:connector-curvature="0"
           d="m 140.00001,106.07969 a 1.10128,8.3968973 0 1 1 -2.20256,0 1.10128,8.3968973 0 1 1 2.20256,0 z"
           transform="matrix(1.2553848,0,0,1,-35.75387,0)"
           id="path3449"
           style="opacity:0.6;fill:#000000;fill-opacity:1;stroke:none;filter:url(#filter3451)" />
        <path
           inkscape:connector-curvature="0"
           d="m 147.34339,106.03549 a 1.193245,8.0875489 0 1 1 -2.38649,0 1.193245,8.0875489 0 1 1 2.38649,0 z"
           id="path3455"
           style="opacity:0.8;fill:#ffffff;fill-opacity:1;stroke:none;filter:url(#filter3457)" />
      </g>
    </g>
    <rect
       ry="25"
       rx="25"
       id="rect3003"
       style="opacity:0.15;fill:#ffffff;fill-opacity:1"
       height="92"
       width="92"
       y="958.36218"
       x="-96"
       clip-path="url(#clipPath3009)"
       transform="translate(98,0)" />
  </g>
</svg>
