<?xml version="1.0" encoding="UTF-8" standalone="no"?>
<!-- Created with Inkscape (http://www.inkscape.org/) -->

<svg
   xmlns:dc="http://purl.org/dc/elements/1.1/"
   xmlns:cc="http://creativecommons.org/ns#"
   xmlns:rdf="http://www.w3.org/1999/02/22-rdf-syntax-ns#"
   xmlns:svg="http://www.w3.org/2000/svg"
   xmlns="http://www.w3.org/2000/svg"
   xmlns:xlink="http://www.w3.org/1999/xlink"
   xmlns:sodipodi="http://sodipodi.sourceforge.net/DTD/sodipodi-0.dtd"
   xmlns:inkscape="http://www.inkscape.org/namespaces/inkscape"
   width="96"
   height="96"
   id="svg11037"
   version="1.1"
   inkscape:version="0.48.5 r10040"
   sodipodi:docname="pgadmin3.svg">
  <defs
     id="defs11039">
    <clipPath
       clipPathUnits="userSpaceOnUse"
       id="clipPath3009">
      <path
         id="path3011"
         d="m -2,956.36218 -96,0 0,33.5624 96,25.68742 0,-59.24982 z"
         style="opacity:0.15;fill:#ffffff;fill-opacity:1;stroke:none"
         inkscape:connector-curvature="0" />
    </clipPath>
    <linearGradient
       inkscape:collect="always"
       xlink:href="#linearGradient3700"
       id="linearGradient3880"
       gradientUnits="userSpaceOnUse"
       gradientTransform="translate(122.96629,-10.426966)"
       x1="48"
       y1="90"
       x2="48"
       y2="5.9877172" />
    <linearGradient
       id="linearGradient3700">
      <stop
         id="stop3702"
         style="stop-color:#146d96;stop-opacity:0.97254902;"
         offset="0" />
      <stop
         id="stop3704"
         style="stop-color:#3cade2;stop-opacity:0.99607843"
         offset="1" />
    </linearGradient>
    <filter
       color-interpolation-filters="sRGB"
       inkscape:collect="always"
       id="filter3876">
      <feGaussianBlur
         inkscape:collect="always"
         stdDeviation="8.1232254"
         id="feGaussianBlur3878" />
    </filter>
    <linearGradient
       inkscape:collect="always"
       xlink:href="#linearGradient3666"
       id="linearGradient3842"
       gradientUnits="userSpaceOnUse"
       gradientTransform="matrix(0.78377237,0,0,0.78377237,-100.26507,-839.17248)"
       x1="234.08568"
       y1="437.60461"
       x2="231.29059"
       y2="42.805531" />
    <linearGradient
       id="linearGradient3666">
      <stop
         id="stop3668"
         style="stop-color:#115575;stop-opacity:1"
         offset="0" />
      <stop
         id="stop3670"
         style="stop-color:#197ba9;stop-opacity:1"
         offset="1" />
    </linearGradient>
    <clipPath
       clipPathUnits="userSpaceOnUse"
       id="clipPath3058">
      <rect
         x="130.71629"
         y="-2.676964"
         width="80.5"
         height="80.5"
         style="opacity:0.6;fill:#000000;fill-opacity:1"
         id="rect3060"
         rx="21.875"
         ry="21.875" />
    </clipPath>
  </defs>
  <sodipodi:namedview
     id="base"
     pagecolor="#ffffff"
     bordercolor="#666666"
     borderopacity="1.0"
     inkscape:pageopacity="0.0"
     inkscape:pageshadow="2"
     inkscape:zoom="3.959798"
     inkscape:cx="29.118614"
     inkscape:cy="59.964634"
     inkscape:document-units="px"
     inkscape:current-layer="layer1"
     showgrid="false"
     inkscape:window-width="1366"
     inkscape:window-height="684"
     inkscape:window-x="0"
     inkscape:window-y="26"
     inkscape:window-maximized="1"
     showguides="true"
     inkscape:guide-bbox="true">
    <sodipodi:guide
       orientation="0,1"
       position="-24.748737,0"
       id="guide11064" />
    <sodipodi:guide
       orientation="0,1"
       position="-23.233509,96"
       id="guide11066" />
    <sodipodi:guide
       orientation="1,0"
       position="0,54.800776"
       id="guide11068" />
    <sodipodi:guide
       orientation="1,0"
       position="96,51.012704"
       id="guide11070" />
    <sodipodi:guide
       orientation="0,1"
       position="-18.94036,48"
       id="guide11072" />
    <sodipodi:guide
       orientation="1,0"
       position="48,79.296975"
       id="guide11074" />
    <sodipodi:guide
       orientation="1,0"
       position="2,75.508903"
       id="guide11076" />
    <sodipodi:guide
       orientation="0,1"
       position="-77.27667,2"
       id="guide11078" />
    <sodipodi:guide
       orientation="1,0"
       position="94,77.781746"
       id="guide11080" />
    <sodipodi:guide
       orientation="0,1"
       position="-65.912454,94"
       id="guide11082" />
  </sodipodi:namedview>
  <metadata
     id="metadata11042">
    <rdf:RDF>
      <cc:Work
         rdf:about="">
        <dc:format>image/svg+xml</dc:format>
        <dc:type
           rdf:resource="http://purl.org/dc/dcmitype/StillImage" />
        <dc:title />
      </cc:Work>
    </rdf:RDF>
  </metadata>
  <g
     inkscape:label="Layer 1"
     inkscape:groupmode="layer"
     id="layer1"
     transform="translate(0,-956.36218)">
    <g
       id="layer1-0"
       transform="matrix(1.1428571,0,0,1.1428571,-147.39005,961.42157)"
       clip-path="url(#clipPath3058)">
      <rect
         width="84"
         height="84"
         rx="6"
         ry="6"
         x="128.96629"
         y="-4.4269662"
         id="rect2419"
         style="fill:url(#linearGradient3880);fill-opacity:1;fill-rule:nonzero;stroke:none" />
      <g
         transform="matrix(0.20349602,0,0,0.20349602,44.767746,192.76627)"
         id="orginal"
         style="fill-rule:nonzero;stroke:#000000;stroke-miterlimit:4" />
      <g
         transform="matrix(0.20349602,0,0,0.20349602,155.37631,171.95486)"
         id="Layer_x0020_3"
         style="fill:none;stroke:#ffffff;stroke-width:12.46510029;stroke-linecap:round;stroke-linejoin:round;stroke-miterlimit:4">
        <path
           inkscape:connector-curvature="0"
           style="fill:#000000;stroke:#000000;stroke-width:29.30940437;stroke-linecap:butt;stroke-linejoin:miter;stroke-opacity:0.17916667;filter:url(#filter3876)"
           d="m 153.05409,-585.05231 c 2.22042,-18.49782 1.555,-21.21045 15.33294,-18.2141 l 3.49797,0.30725 c 10.59425,0.48202 24.45292,-1.70392 32.59474,-5.48641 17.52672,-8.13242 27.91954,-21.71049 10.63736,-18.14276 -39.42139,8.13242 -42.13169,-5.21601 -42.13169,-5.21601 41.62694,-61.76361 59.02826,-140.16671 44.00805,-159.35817 -40.96779,-52.34737 -111.88194,-27.59348 -113.06857,-26.95079 l -0.37778,0.0697 c -7.78913,-1.61615 -16.506247,-2.58174 -26.298699,-2.74007 -17.839443,-0.29313 -31.375975,4.67677 -41.644177,12.46511 0,0 -126.50713,-52.11929 -120.62179,65.54532 1.25169,25.03056 35.87875,189.40251 77.1780714,139.75445 15.094673,-18.15451 29.6822436,-33.5047 29.6822436,-33.5047 7.243623,4.81236 15.916066,7.26714 25.011744,6.3854 l 0.703043,-0.59959 c -0.220239,2.25413 -0.123052,4.45888 0.281375,7.06884 -10.637359,11.88748 -7.511674,13.97466 -28.782474,18.35281 -21.5200366,4.43537 -8.877005,12.33188 -0.624666,14.39555 10.007206,2.50259 33.157491,6.04759 48.803938,-15.85101 l -0.623099,2.49867 c 4.173588,3.33887 3.89143,23.99832 4.483178,38.75911 0.592532,14.76156 1.580869,28.53637 4.589771,36.65781 3.008903,8.11988 6.559392,29.03877 34.514201,23.04761 23.36347,-5.00674 41.22642,-12.21273 42.85432,-79.24487"
           id="path6" />
        <path
           inkscape:connector-curvature="0"
           style="fill:url(#linearGradient3842);fill-opacity:1;stroke:none"
           d="m 215.12102,-626.5899 c -39.42531,8.13242 -42.13561,-5.216 -42.13561,-5.216 41.62694,-61.76754 59.02826,-140.17221 44.01118,-159.36131 -40.96778,-52.34424 -111.88507,-27.58878 -113.06857,-26.94609 l -0.38091,0.0682 c -7.78913,-1.61691 -16.506247,-2.58017 -26.303401,-2.74007 -17.839443,-0.29234 -31.371273,4.67678 -41.639475,12.46356 0,0 -126.50948,-52.11695 -120.6257,65.54688 1.25168,25.03213 35.87796,189.40408 77.1788464,139.75602 15.095456,-18.15452 29.6806756,-33.50471 29.6806756,-33.50471 7.244407,4.81237 15.91685,7.26715 25.008609,6.3854 l 0.706179,-0.59958 c -0.219456,2.25412 -0.119134,4.45887 0.282941,7.06884 -10.639709,11.88748 -7.513241,13.97466 -28.782473,18.35281 -21.5216046,4.43537 -8.878573,12.33188 -0.623882,14.39555 10.007205,2.50258 33.159058,6.04758 48.80237,-15.85102 l -0.623882,2.49867 c 4.168885,3.33888 7.096275,21.71912 6.605633,38.38055 -0.490641,16.66222 -0.818258,28.10138 2.466532,37.03638 3.28479,8.93501 6.558607,29.03877 34.518907,23.04761 23.36347,-5.00674 35.4704,-17.9813 37.15472,-39.62361 1.19525,-15.38623 3.90005,-13.11173 4.07092,-26.86771 l 2.16947,-6.51237 c 2.50181,-20.85697 0.39738,-27.58566 14.79136,-24.45605 l 3.49797,0.30723 c 10.59426,0.48202 24.45997,-1.70392 32.59788,-5.4864 17.52358,-8.13243 27.91641,-21.7105 10.63815,-18.14276 z"
           id="path8" />
        <path
           inkscape:connector-curvature="0"
           d="m 68.924749,-614.63423 c -1.085525,38.80927 0.272753,77.88894 4.07013,87.3867 3.799728,9.49775 11.931367,27.97126 39.894011,21.98089 23.36113,-5.0083 31.86113,-14.70043 35.54956,-36.0935 2.71656,-15.73972 7.95372,-59.45227 8.62542,-68.40844"
           id="path10"
           style="stroke-width:9.76980114" />
        <path
           inkscape:connector-curvature="0"
           d="m 35.409075,-809.18848 c 0,0 -126.595691,-51.74152 -120.710351,65.92231 1.25168,25.03212 35.88031,189.40956 77.1804174,139.75915 15.092321,-18.15687 28.7417166,-32.39723 28.7417166,-32.39723"
           id="path12"
           style="stroke-width:9.76980114" />
        <path
           inkscape:connector-curvature="0"
           d="m 103.7893,-818.63216 c -4.382076,1.37396 70.42037,-27.34504 112.9314,26.97509 15.01629,19.18989 -2.38502,97.59456 -44.01117,159.36365"
           id="path14"
           style="stroke-width:9.76980114" />
        <path
           inkscape:connector-curvature="0"
           style="stroke-width:9.76980114;stroke-linejoin:bevel"
           d="m 172.70875,-632.29342 c 0,0 2.71263,13.35235 42.13874,5.21444 17.27434,-3.56773 6.87839,10.01191 -10.64128,18.14826 -14.3783,6.67303 -46.61408,8.38322 -47.14077,-0.83786 -1.35515,-23.7914 16.96631,-16.56346 15.64409,-22.52484 -1.19526,-5.36884 -9.38881,-10.63814 -14.80859,-23.77807 -4.73164,-11.46895 -64.893218,-99.42075 16.68416,-86.3584 2.98852,-0.6184 -21.27629,-77.59503 -97.621198,-78.84671 -76.3276726,-1.25169 -73.8235196,93.86614 -73.8235196,93.86614"
           id="path16" />
        <path
           inkscape:connector-curvature="0"
           d="m 47.557546,-624.15707 c -10.641277,11.88669 -7.511674,13.97388 -28.782473,18.35359 -21.5216046,4.43616 -8.8770046,12.3311 -0.624666,14.39398 10.007205,2.50416 33.159058,6.04916 48.80237,-15.85493 4.763769,-6.66912 -0.02822,-17.31039 -6.571931,-20.02303 -3.161737,-1.30969 -7.389405,-2.95091 -12.8233,3.13039 z"
           id="path18"
           style="stroke-width:9.76980114" />
        <path
           inkscape:connector-curvature="0"
           d="m 46.860773,-624.36477 c -1.072201,-6.9889 2.296453,-15.30551 5.906508,-25.03526 5.425272,-14.59854 17.942902,-29.19944 7.929426,-75.50785 -7.463865,-34.50871 -57.5257566,-7.1817 -57.5571076,-2.50258 -0.03057,4.67755 2.264318,23.71696 -0.836286,45.88831 -4.045832,28.93138 18.4092456,53.39998 44.2666806,50.89661"
           id="path20"
           style="stroke-width:9.76980114" />
        <path
           inkscape:connector-curvature="0"
           style="fill:#ffffff;stroke-width:3.25657415;stroke-linecap:butt;stroke-linejoin:miter"
           d="m 34.949,-728.11194 c -0.225726,1.59812 2.925823,5.86262 7.035142,6.43243 4.102264,0.57215 7.613565,-2.76045 7.836156,-4.357 0.222592,-1.59811 -2.925039,-3.35846 -7.035925,-3.93062 -4.104616,-0.57293 -7.617484,0.261 -7.834589,1.85519 z"
           id="path22" />
        <path
           inkscape:connector-curvature="0"
           style="fill:#ffffff;stroke-width:1.62828708;stroke-linecap:butt;stroke-linejoin:miter"
           d="m 159.90112,-731.37008 c 0.2226,1.59811 -2.92504,5.86262 -7.03514,6.43242 -4.1054,0.57215 -7.6167,-2.76045 -7.84163,-4.35699 -0.21711,-1.59811 2.93129,-3.35847 7.03748,-3.93061 4.10619,-0.57216 7.6167,0.26099 7.83929,1.85597 z"
           id="path24" />
        <path
           inkscape:connector-curvature="0"
           d="m 174.5851,-742.42989 c 0.67639,12.53565 -2.7001,21.07407 -3.12569,34.41858 -0.63015,19.3968 9.24773,41.59794 -5.63611,63.82651"
           id="path26"
           style="stroke-width:9.76980114" />
        <path
           inkscape:connector-curvature="0"
           style="stroke-width:2.35131717"
           d="M -100.26507,-791.9643"
           id="path28" />
      </g>
    </g>
    <rect
       ry="25"
       rx="25"
       id="rect3003"
       style="opacity:0.15;fill:#ffffff;fill-opacity:1"
       height="92"
       width="92"
       y="958.36218"
       x="-96"
       clip-path="url(#clipPath3009)"
       transform="translate(98,0)" />
  </g>
</svg>
