<?xml version="1.0" encoding="UTF-8" standalone="no"?>
<!-- Created with Inkscape (http://www.inkscape.org/) -->

<svg
   xmlns:dc="http://purl.org/dc/elements/1.1/"
   xmlns:cc="http://creativecommons.org/ns#"
   xmlns:rdf="http://www.w3.org/1999/02/22-rdf-syntax-ns#"
   xmlns:svg="http://www.w3.org/2000/svg"
   xmlns="http://www.w3.org/2000/svg"
   xmlns:sodipodi="http://sodipodi.sourceforge.net/DTD/sodipodi-0.dtd"
   xmlns:inkscape="http://www.inkscape.org/namespaces/inkscape"
   id="svg11037"
   height="96"
   width="96"
   version="1.1"
   inkscape:version="0.48.5 r10040"
   sodipodi:docname="phatch.svg">
  <sodipodi:namedview
     pagecolor="#ffffff"
     bordercolor="#666666"
     borderopacity="1"
     objecttolerance="10"
     gridtolerance="10"
     guidetolerance="10"
     inkscape:pageopacity="0"
     inkscape:pageshadow="2"
     inkscape:window-width="640"
     inkscape:window-height="480"
     id="namedview52158" />
  <defs
     id="defs11039">
    <linearGradient
       id="linearGradient11642"
       y2="1046.1"
       gradientUnits="userSpaceOnUse"
       y1="962.62"
       gradientTransform="matrix(1.15 0 0 1.15 -7.1999 -150.65)"
       x2="48"
       x1="48">
      <stop
         id="stop4174"
         style="stop-color:#828283"
         offset="0" />
      <stop
         id="stop4176"
         style="stop-color:#c0c0c0"
         offset="1" />
    </linearGradient>
    <linearGradient
       id="linearGradient3286"
       y2="675.35"
       gradientUnits="userSpaceOnUse"
       x2="141"
       gradientTransform="matrix(.74080 0 0 .74080 -44.275 -471.73)"
       y1="723.35"
       x1="141.71">
      <stop
         id="stop4562"
         style="stop-color:#444"
         offset="0" />
      <stop
         id="stop4564"
         style="stop-color:#888"
         offset="1" />
    </linearGradient>
    <linearGradient
       id="linearGradient3282"
       y2="678.83"
       gradientUnits="userSpaceOnUse"
       x2="120.5"
       gradientTransform="matrix(.72670 0 0 .72620 -42.886 -460.98)"
       y1="706.88"
       x1="120.5">
      <stop
         id="stop3835"
         style="stop-color:#8fd400"
         offset="0" />
      <stop
         id="stop3837"
         style="stop-color:#daff31"
         offset="1" />
    </linearGradient>
    <clipPath
       id="clipPath3009"
       clipPathUnits="userSpaceOnUse">
      <path
         id="path3011"
         style="opacity:.15;fill:#fff"
         d="m-2 956.36h-96v33.562l96 25.687v-59.25z" />
    </clipPath>
  </defs>
  <metadata
     id="metadata11042">
    <rdf:RDF>
      <cc:Work
         rdf:about="">
        <dc:format>image/svg+xml</dc:format>
        <dc:type
           rdf:resource="http://purl.org/dc/dcmitype/StillImage" />
        <dc:title />
      </cc:Work>
    </rdf:RDF>
  </metadata>
  <g
     id="layer1"
     transform="translate(0 -956.36)">
    <rect
       id="rect3867"
       style="fill:url(#linearGradient11642)"
       rx="25"
       ry="25"
       height="92"
       width="92"
       y="958.36"
       x="2" />
    <g
       id="g3060"
       transform="translate(0 956.36)">
      <path
         id="path3610"
         d="m10 55.188c1.654 2.153 15.758 12.18 34.297 12.18s37.232-8.579 41.703-12.907c-2.77-4.147-18.71-26.218-41.582-25.824-24.586 0.425-34.066 24.976-34.418 26.551z"
         style="fill:url(#linearGradient3286)" />
      <path
         id="path4093"
         d="m85.562 54.844c-5.098 4.426-23.221 12.531-41.25 12.531-17.902 0-31.649-9.326-34.062-11.906-0.123 0.336-0.225 0.605-0.25 0.719 1.654 2.153 15.774 12.187 34.312 12.187 18.539 0 37.217-8.579 41.688-12.906-0.09288-0.13904-0.31526-0.44719-0.4375-0.625z"
         style="opacity:.2;fill:#fff" />
      <path
         id="path4061"
         d="m44.011 33c-0.9274 0-1.8456 0.08677-2.7299 0.23816v3.3992c-1.4573 0.32356-2.8085 0.91135-4.0298 1.6888l-2.4265-2.4249c-1.5155 1.0625-2.8326 2.3858-3.8998 3.8972l2.4265 2.4249c-0.77794 1.2205-1.3661 2.5707-1.6899 4.0271h-3.4232c-0.155 0.896-0.237 1.81-0.237 2.75 0 0.94043 0.08247 1.8754 0.23832 2.7713h3.4232c0.32376 1.4564 0.91197 2.8066 1.6899 4.0271l-2.4265 2.4249c1.0689 1.5138 2.403 2.8122 3.9215 3.8755l2.4049-2.4033c1.2213 0.7774 2.5725 1.3652 4.0298 1.6888v3.3775c0.884 0.151 1.802 0.238 2.73 0.238 0.95359-0.000009 1.8871-0.0783 2.7949-0.23816v-3.3775c1.4573-0.32354 2.8085-0.91134 4.0298-1.6888l2.3615 2.3816c1.5148-1.0682 2.8574-2.3797 3.9215-3.8972l-2.3832-2.3816c0.77794-1.2205 1.3661-2.5707 1.6899-4.0271h3.3365c0.154-0.896 0.236-1.831 0.236-2.771s-0.082-1.854-0.238-2.75h-3.3365c-0.32377-1.4564-0.91197-2.8066-1.6899-4.0271l2.3832-2.3816c-1.063-1.515-2.388-2.851-3.9-3.918l-2.3832 2.4032c-1.2213-0.77741-2.5725-1.3652-4.0298-1.6888v-3.3775c-0.908-0.16-1.842-0.26-2.795-0.26zm-0.02167 8.6387c4.0679 0.000018 7.3879 3.2962 7.3879 7.3613s-3.3201 7.3613-7.3879 7.3613c-4.0679 0.000018-7.3663-3.2962-7.3663-7.3613s3.2984-7.3613 7.3663-7.3613z"
         style="opacity:.3" />
      <path
         id="path3614"
         d="m44.011 32c-0.9274 0-1.8456 0.08677-2.7299 0.23816v3.3992c-1.4573 0.32356-2.8085 0.91135-4.0298 1.6888l-2.4265-2.4249c-1.5155 1.0625-2.8326 2.3858-3.8998 3.8972l2.4265 2.4249c-0.77794 1.2205-1.3661 2.5707-1.6899 4.0271h-3.4232c-0.155 0.896-0.237 1.81-0.237 2.75 0 0.94043 0.08247 1.8754 0.23832 2.7713h3.4232c0.32376 1.4564 0.91197 2.8066 1.6899 4.0271l-2.4265 2.4249c1.0689 1.5138 2.403 2.8122 3.9215 3.8755l2.4049-2.4033c1.2213 0.7774 2.5725 1.3652 4.0298 1.6888v3.3775c0.884 0.151 1.802 0.238 2.73 0.238 0.95359-0.000009 1.8871-0.0783 2.7949-0.23816v-3.3775c1.4573-0.32354 2.8085-0.91134 4.0298-1.6888l2.3615 2.3816c1.5148-1.0682 2.8574-2.3797 3.9215-3.8972l-2.3832-2.3816c0.77794-1.2205 1.3661-2.5707 1.6899-4.0271h3.3365c0.154-0.896 0.236-1.831 0.236-2.771s-0.082-1.854-0.238-2.75h-3.3365c-0.32377-1.4564-0.91197-2.8066-1.6899-4.0271l2.3832-2.3816c-1.063-1.515-2.388-2.851-3.9-3.918l-2.3832 2.4032c-1.2213-0.77741-2.5725-1.3652-4.0298-1.6888v-3.3775c-0.908-0.16-1.842-0.26-2.795-0.26zm-0.02167 8.6387c4.0679 0.000018 7.3879 3.2962 7.3879 7.3613s-3.3201 7.3613-7.3879 7.3613c-4.0679 0.000018-7.3663-3.2962-7.3663-7.3613s3.2984-7.3613 7.3663-7.3613z"
         style="fill:url(#linearGradient3282)" />
      <path
         id="path4065"
         d="m44 32c-0.9274 0-1.8345 0.09861-2.7188 0.25v1c0.885-0.151 1.792-0.25 2.719-0.25 0.95359 0 1.9047 0.09014 2.8125 0.25v-1c-0.907-0.16-1.858-0.25-2.812-0.25zm-9.1875 2.9062c-1.5155 1.0625-2.8078 2.3949-3.875 3.9062l0.438 0.438c0.98661-1.2773 2.114-2.4159 3.4375-3.3438l2.438 2.406c1.2213-0.77742 2.5739-1.3639 4.0312-1.6875v-1c-1.4573 0.32356-2.8099 0.91008-4.0312 1.6875l-2.4375-2.4062zm18.406 0.03125-2.375 2.375c-1.221-0.777-2.573-1.363-4.031-1.687v1c1.4573 0.32355 2.8099 0.91009 4.0312 1.6875l2.375-2.375c1.317 0.92972 2.4853 2.0655 3.4688 3.3438l0.4375-0.4375c-1.061-1.515-2.393-2.839-3.905-3.906zm-20.25 6.9062c-0.59135 1.0501-1.0435 2.1961-1.3125 3.4062h-3.4062c-0.156 0.897-0.25 1.811-0.25 2.751 0 0.16732 0.02608 0.33321 0.03125 0.5 0.02389-0.76543 0.09063-1.5135 0.21875-2.25h3.4062c0.32376-1.4563 0.90956-2.8107 1.6875-4.0312l-0.375-0.375zm22.156 0-0.375 0.375c0.77794 1.2205 1.3637 2.5749 1.6875 4.0312h3.3125c0.1281 0.7365 0.19486 1.4846 0.21875 2.25 0.007-0.166 0.033-0.332 0.033-0.499 0-0.94-0.094-1.854-0.25-2.75h-3.3125c-0.27-1.21-0.722-2.356-1.313-3.406zm-18.468 6.657c-0.011 0.167-0.031 0.33-0.031 0.5 0 4.0651 3.3071 7.375 7.375 7.375s7.375-3.3099 7.375-7.375c0-0.16953-0.01989-0.33333-0.03125-0.5-0.261 3.83-3.446 6.875-7.344 6.875s-7.084-3.045-7.344-6.875zm-3.656 6.656l-2.0625 2.0625c0.13786 0.19523 0.291 0.37448 0.4375 0.5625l1.968-1.968c-0.131-0.204-0.225-0.444-0.344-0.656zm22.094 0c-0.12 0.212-0.214 0.452-0.344 0.656l1.9375 1.9375c0.14626-0.18877 0.30027-0.3668 0.4375-0.5625l-2.0312-2.0312z"
         style="opacity:.4;fill:#fff" />
      <path
         id="path4136"
         d="m44.406 28.625c-24.586 0.424-34.054 24.988-34.406 26.563 0.05674 0.07386 0.16428 0.18958 0.25 0.28125 1.581-4.317 11.349-25.45 34.156-25.844 22.105-0.382 37.632 20.093 41.156 25.219 0.145-0.126 0.315-0.256 0.438-0.375-2.77-4.148-18.722-26.239-41.594-25.844z"
         style="opacity:.3" />
      <path
         id="path4145"
         d="m44.406 28.625c-24.586 0.424-34.054 24.988-34.406 26.563 1.654 2.153 15.774 12.187 34.312 12.187 18.539 0 37.217-8.579 41.688-12.906-2.77-4.148-18.722-26.239-41.594-25.844zm0.03125 0.96875c11.124-0.19202 20.601 5.0973 27.688 11 6.6183 5.513 10.837 11.237 12.5 13.656-2.3053 1.9534-7.5178 4.9212-14.5 7.4062-7.4632 2.6563-16.691 4.75-25.812 4.75-9.0966 0-17.138-2.4547-23.094-5.1875-2.9781-1.3664-5.4176-2.7867-7.2188-4-1.5907-1.0715-2.4759-1.8921-2.875-2.3125 0.08281-0.24702 0.129-0.41851 0.34375-0.9375 0.32959-0.79654 0.79049-1.8544 1.4375-3.0938 1.294-2.4786 3.2544-5.6547 5.9375-8.7812 5.3663-6.2532 13.617-12.293 25.594-12.5z"
         style="opacity:.15" />
    </g>
    <rect
       id="rect3003"
       style="opacity:.15;fill:#fff"
       transform="translate(98 3.8281e-7)"
       clip-path="url(#clipPath3009)"
       rx="25"
       ry="25"
       height="92"
       width="92"
       y="958.36"
       x="-96" />
  </g>
</svg>
