<svg height="96" width="96" xmlns="http://www.w3.org/2000/svg" xmlns:sodipodi="http://sodipodi.sourceforge.net/DTD/sodipodi-0.dtd" xmlns:inkscape="http://www.inkscape.org/namespaces/inkscape">
 <rect x="8" rx="10.769" y="-88" fill="#a13fe9" fill-opacity="1" stroke="none" height="80" width="80" transform="matrix(0 1 -1 0 0 0)"/>
 <path d="m 28.807201,31.269067 0,29 29.000002,0 0,11 11,-11 0,-29 -40.000002,0 z m 8.5,11 c 1.933,0 3.5,1.567003 3.5,3.5 0,1.932997 -1.567,3.5 -3.5,3.5 -1.933,0 -3.5,-1.567003 -3.5,-3.5 0,-1.932997 1.567,-3.5 3.5,-3.5 z m 11.5,0 c 1.933,0 3.5,1.567003 3.5,3.5 0,1.932997 -1.567,3.5 -3.5,3.5 -1.933,0 -3.5,-1.567003 -3.5,-3.5 0,-1.932997 1.567,-3.5 3.5,-3.5 z m 11.500002,0 c 1.933,0 3.5,1.567003 3.5,3.5 0,1.932997 -1.567,3.5 -3.5,3.5 -1.933,0 -3.5,-1.567003 -3.5,-3.5 0,-1.932997 1.567,-3.5 3.5,-3.5 z" fill="#ffffff" fill-opacity="1" stroke="none" inkscape:connector-curvature="0"/>
</svg>
