<svg height="96" width="96" xmlns="http://www.w3.org/2000/svg" xmlns:xlink="http://www.w3.org/1999/xlink" xmlns:sodipodi="http://sodipodi.sourceforge.net/DTD/sodipodi-0.dtd" xmlns:inkscape="http://www.inkscape.org/namespaces/inkscape">
 <defs>
  <clipPath clipPathUnits="userSpaceOnUse" id="clipPath3009">
   <path d="m -2,956.36218 -96,0 0,33.5624 96,25.68742 0,-59.24982 z" inkscape:connector-curvature="0"/>
  </clipPath>
  <linearGradient x1="44.51" x2="44.67" y1="13.08" y2="70.62" gradientUnits="userSpaceOnUse" id="linearGradient13098-2">
   <stop stop-color="#aeedf5" stop-opacity="1"/>
   <stop stop-color="#0a91e4" stop-opacity="1" offset="1"/>
  </linearGradient>
  <radialGradient cy="90.17" r="42" xlink:href="#linearGradient3737-1-2" gradientUnits="userSpaceOnUse" id="radialGradient12925-7" cx="48" gradientTransform="matrix(1.15731 0 0 0.99591 -7.551 0.197)"/>
  <linearGradient id="linearGradient3737-1-2">
   <stop stop-color="#ffffff" stop-opacity="1"/>
   <stop stop-color="#ffffff" stop-opacity="0" offset="1"/>
  </linearGradient>
  <radialGradient cy="49.905" r="42.11" gradientUnits="userSpaceOnUse" id="radialGradient4069" cx="50.07" gradientTransform="matrix(1.23972 0.00179 -0.00198 0.7444 -10.777 12.1)">
   <stop stop-color="#595959" stop-opacity="1"/>
   <stop stop-color="#151202" stop-opacity="1" offset="1"/>
  </radialGradient>
  <linearGradient x1="739.89" x2="740.8" y1="279.12" y2="274.29" gradientUnits="userSpaceOnUse" id="linearGradient4064" gradientTransform="matrix(1.45455 0 0 1.43541 -1035.85 -331.73)">
   <stop stop-color="#ffac04" stop-opacity="1"/>
   <stop stop-color="#ffc859" stop-opacity="1" offset="1"/>
  </linearGradient>
  <linearGradient x2="0" y1="18.5" y2="7.5" gradientUnits="userSpaceOnUse" id="linearGradient13150" gradientTransform="matrix(0.78049 0 0 0.73333 692.84 229.53)">
   <stop stop-color="#5b5438" stop-opacity="1"/>
   <stop stop-color="#8a7f55" stop-opacity="1" offset="1"/>
  </linearGradient>
  <linearGradient x1="72.69" x2="72.794" y1="19.463" y2="22.588" gradientUnits="userSpaceOnUse" id="linearGradient13152" gradientTransform="matrix(0.73333 0 0 0.73333 695.46 230.27)">
   <stop stop-color="#585238" stop-opacity="1"/>
   <stop stop-color="#706a45" stop-opacity="1" offset="1"/>
  </linearGradient>
  <linearGradient x1="47.25" x2="47.12" y1="80.58" y2="84.7" gradientUnits="userSpaceOnUse" id="linearGradient13154" gradientTransform="matrix(0.40973 0 0 0.70374 21.853 -30.898)">
   <stop stop-color="#ffffff" stop-opacity="1"/>
   <stop stop-color="#e9e9e9" stop-opacity="1" offset="1"/>
  </linearGradient>
  <radialGradient cy="61.31" r="5.533" xlink:href="#linearGradient4122" gradientUnits="userSpaceOnUse" id="radialGradient4128" cx="38.31" gradientTransform="matrix(1 0 0 0.28106 0 44.08)"/>
  <linearGradient id="linearGradient4122">
   <stop stop-color="#8d8d8d" stop-opacity="1"/>
   <stop stop-color="#8d8d8d" stop-opacity="0" offset="1"/>
  </linearGradient>
  <radialGradient cy="61.31" r="3.188" xlink:href="#linearGradient4122" gradientUnits="userSpaceOnUse" id="radialGradient4160" cx="38.31" gradientTransform="matrix(1 0 0 0.2549 0 45.684)"/>
  <radialGradient cy="61.31" r="3.188" xlink:href="#linearGradient4122" gradientUnits="userSpaceOnUse" id="radialGradient4136" cx="38.31" gradientTransform="matrix(1 0 0 0.25322 0 45.787)"/>
  <radialGradient cy="61.31" r="3.188" xlink:href="#linearGradient4122" gradientUnits="userSpaceOnUse" id="radialGradient4144" cx="38.31" gradientTransform="matrix(1 0 0 0.44929 0 33.765)"/>
  <linearGradient x1="51.47" x2="55.63" y1="21.602" y2="9.08" gradientUnits="userSpaceOnUse" id="linearGradient13158" gradientTransform="matrix(0.94251 0 0 0.95005 76.54 3.048)">
   <stop stop-color="#161616" stop-opacity="1"/>
   <stop stop-color="#6b6b6b" stop-opacity="1" offset="1"/>
  </linearGradient>
  <linearGradient x1="47.986" x2="60.12" xlink:href="#linearGradient8117" y1="63.31" y2="53.666" gradientUnits="userSpaceOnUse" id="linearGradient13160" gradientTransform="matrix(1.01976 -0.12063 0.11623 1.04782 48.36 2.731)"/>
  <linearGradient id="linearGradient8117">
   <stop stop-color="#545454" stop-opacity="1"/>
   <stop stop-color="#121212" stop-opacity="1" offset="1"/>
  </linearGradient>
  <linearGradient x1="47.986" x2="60.12" xlink:href="#linearGradient8117" y1="63.31" y2="53.666" gradientUnits="userSpaceOnUse" id="linearGradient13162" gradientTransform="matrix(0.98278 0.31528 -0.30376 1.0041 90.41 -17.14)"/>
  <linearGradient x1="147.25" x2="147.75" y1="78.11" y2="73.988" gradientUnits="userSpaceOnUse" id="linearGradient13164" gradientTransform="matrix(1 0 0 1 -38.25 4.75)">
   <stop stop-color="#9d7015" stop-opacity="1"/>
   <stop stop-color="#feac05" stop-opacity="1" offset="1"/>
  </linearGradient>
  <linearGradient x1="147.25" x2="147.75" y1="78.11" y2="73.988" gradientUnits="userSpaceOnUse" id="linearGradient13166" gradientTransform="matrix(1 0 0 1 -20.625 5.375)">
   <stop stop-color="#9d7015" stop-opacity="1"/>
   <stop stop-color="#fbab08" stop-opacity="1" offset="1"/>
  </linearGradient>
  <linearGradient x1="740.85" x2="740.8" xlink:href="#linearGradient3737-1-2" y1="280.09" y2="284.92" gradientUnits="userSpaceOnUse" id="linearGradient13393-1" gradientTransform="matrix(1 0 0 1 -1.59 -5.156)"/>
  <linearGradient x1="735.87" x2="736.03" y1="285.2" y2="281.34" gradientUnits="userSpaceOnUse" id="linearGradient13415-0">
   <stop stop-color="#5c3f03" stop-opacity="1"/>
   <stop stop-color="#5c3f03" stop-opacity="0" offset="1"/>
  </linearGradient>
  <linearGradient x1="743.06" x2="743.1" y1="277.09" y2="283.65" gradientUnits="userSpaceOnUse" id="linearGradient3679" inkscape:collect="always" gradientTransform="matrix(1.36454 0 0 1.21438 -972.99 -254.92)">
   <stop stop-color="#f6d024" stop-opacity="1"/>
   <stop stop-color="#f6d024" stop-opacity="0" offset="1"/>
  </linearGradient>
  <clipPath clipPathUnits="userSpaceOnUse" id="clipPath3446">
   <rect x="6.236" rx="22.863" y="5.174" ry="22.882" height="84.2" width="84.14"/>
  </clipPath>
  <path d="m 62.225396,19.809244 a 3.005204,3.712311 0 1 1 -6.010408,0 3.005204,3.712311 0 1 1 6.010408,0 z" fill-opacity="1" stroke="none" id="SVGCleanerId_0"/>
  <path d="m 108.23448,49.54809 c 0,0 4.02834,-7.959036 5.46048,-12.635415 1.43215,-4.676378 -0.23853,-13.312127 -0.42801,-14.894189 -0.18948,-1.582061 1.68799,-11.319354 11.19078,-10.987769 10.17955,0.355198 12.77686,6.369131 12.59985,10.942653 -0.17701,4.573522 -2.80947,14.431121 -0.62614,16.257806 2.18334,1.826684 8.35204,12.37624 7.73867,20.918703 -0.61337,8.542464 -0.62587,24.552157 -7.5101,24.180292 -4.24008,-0.229036 -17.67873,2.170666 -21.93263,-1.415016 -17.35293,-14.627054 -6.4929,-32.367065 -6.4929,-32.367065 z" fill="url(#linearGradient13158)" fill-opacity="1" stroke="none" id="SVGCleanerId_1"/>
  <path d="m 110.72973,27.92503 c 0,0 1.50778,2.569628 8.341,2.674696 6.83321,0.105067 11.7814,-2.731759 11.7814,-2.731759 z" fill="#d29007" fill-opacity="1" stroke="none" id="SVGCleanerId_2"/>
  <path d="m 120.52254,24.096693 c 0,0 -9.4989,0.633577 -12.20516,2.161974 -6.34036,3.622466 4.96486,0.864468 20.5867,1.950239 3.99875,-0.167946 1.82125,-1.758295 0.95089,-2.281683 -2.64908,-1.593018 -9.33243,-1.83053 -9.33243,-1.83053 z" fill="#ffac04" fill-opacity="1" stroke="none" id="SVGCleanerId_3"/>
  <path d="m 111.80879,44.590061 c 0,0 -7.75822,5.796942 -8.81197,16.05527 -1.05375,10.258327 -4.504074,8.789884 2.06783,8.763091 6.57191,-0.02679 14.29299,-19.330903 14.29299,-19.330903 z" fill="url(#linearGradient13160)" fill-opacity="1" stroke="none" id="SVGCleanerId_4"/>
  <path d="m 112.96987,44.019187 c 0,0 -6.24841,3.471133 -6.74088,17.019162 -0.28352,7.799725 6.63503,18.025693 8.75568,19.688277 2.12065,1.662584 4.70317,-6.458124 5.6279,-20.321106 1.20097,-18.004215 -7.6427,-16.386333 -7.6427,-16.386333 z" fill="#f9f9f9" fill-opacity="1" stroke="none" id="SVGCleanerId_5" opacity="0.995"/>
  <path d="m 132.22184,47.496425 c 0,0 -9.38782,2.051114 -14.3723,10.967088 -4.98448,8.915973 -7.57468,6.137795 -1.53511,8.854217 6.03956,2.716424 20.68351,-11.66853 20.68351,-11.66853 z" fill="url(#linearGradient13162)" fill-opacity="1" stroke="none" id="SVGCleanerId_6"/>
  <path d="m 105.32,81.817547 c 0,0 5.17,-5.988354 9.895,-3.181677 4.725,2.806677 5.535,5.23913 5.535,5.23913 l -16.875,-0.374224 z" fill="url(#linearGradient13164)" fill-opacity="1" stroke="none" id="SVGCleanerId_7"/>
  <path d="m 122.945,82.442547 c 0,0 5.17,-5.988354 9.895,-3.181677 4.725,2.806677 5.535,5.23913 5.535,5.23913 L 121.5,84.125776 z" fill="url(#linearGradient13166)" fill-opacity="1" stroke="none" id="SVGCleanerId_8"/>
  <path d="m 41.5,61.3125 a 3.1875,0.8125 0 1 1 -6.375,0 3.1875,0.8125 0 1 1 6.375,0 z" fill-opacity="1" stroke="none" id="SVGCleanerId_9"/>
 </defs>
 <g inkscape:label="Layer 1" inkscape:groupmode="layer" transform="matrix(1 0 0 1 0 -956.36)">
  <g clip-path="url(#clipPath3446)" transform="matrix(1.09347 0 0 1.09258 -4.818 952.71)">
   <g display="inline" transform="matrix(1.04277 0 0 1.04036 -1.677 -2.899)">
    <rect x="6" rx="6" y="6" fill="url(#linearGradient13098-2)" fill-opacity="1" fill-rule="nonzero" stroke="none" height="84" width="84"/>
    <path d="M 12,90 C 8.676,90 6,87.324 6,84 L 6,82 6,14 6,12 c 0,-0.334721 0.04135,-0.6507 0.09375,-0.96875 0.0487,-0.295596 0.09704,-0.596915 0.1875,-0.875 C 6.29113,10.12587 6.302142,10.09265 6.3125,10.0625 6.411365,9.774729 6.5473802,9.515048 6.6875,9.25 6.8320918,8.976493 7.0031161,8.714385 7.1875,8.46875 7.3718839,8.223115 7.5612765,7.995278 7.78125,7.78125 8.221197,7.353194 8.72416,6.966724 9.28125,6.6875 9.559795,6.547888 9.8547231,6.440553 10.15625,6.34375 9.9000482,6.443972 9.6695391,6.580022 9.4375,6.71875 c -0.00741,0.0044 -0.023866,-0.0045 -0.03125,0 -0.031933,0.0193 -0.062293,0.04251 -0.09375,0.0625 -0.120395,0.0767 -0.2310226,0.163513 -0.34375,0.25 -0.1061728,0.0808 -0.2132809,0.161112 -0.3125,0.25 C 8.4783201,7.442683 8.3087904,7.626638 8.15625,7.8125 8.0486711,7.942755 7.9378561,8.077785 7.84375,8.21875 7.818661,8.25713 7.805304,8.30462 7.78125,8.34375 7.716487,8.446782 7.6510225,8.548267 7.59375,8.65625 7.4927417,8.850956 7.3880752,9.071951 7.3125,9.28125 7.30454,9.30306 7.288911,9.3218 7.28125,9.34375 7.2494249,9.4357 7.2454455,9.530581 7.21875,9.625 7.1884177,9.731618 7.1483606,9.828031 7.125,9.9375 7.0521214,10.279012 7,10.635705 7,11 l 0,2 0,68 0,2 c 0,2.781848 2.2181517,5 5,5 l 2,0 68,0 2,0 c 2.781848,0 5,-2.218152 5,-5 l 0,-2 0,-68 0,-2 C 89,10.635705 88.94788,10.279012 88.875,9.9375 88.83085,9.730607 88.78662,9.539842 88.71875,9.34375 88.71105,9.3218 88.69545,9.30306 88.6875,9.28125 88.62476,9.107511 88.549117,8.913801 88.46875,8.75 88.42717,8.6672 88.38971,8.580046 88.34375,8.5 88.28915,8.40279 88.216976,8.31165 88.15625,8.21875 88.06214,8.077785 87.951329,7.942755 87.84375,7.8125 87.700576,7.63805 87.540609,7.465502 87.375,7.3125 87.36383,7.3023 87.35502,7.29135 87.34375,7.28125 87.205364,7.155694 87.058659,7.046814 86.90625,6.9375 86.803679,6.86435 86.701932,6.784136 86.59375,6.71875 c -0.0074,-0.0045 -0.02384,0.0044 -0.03125,0 -0.232039,-0.138728 -0.462548,-0.274778 -0.71875,-0.375 0.301527,0.0968 0.596455,0.204138 0.875,0.34375 0.55709,0.279224 1.060053,0.665694 1.5,1.09375 0.219973,0.214028 0.409366,0.441865 0.59375,0.6875 0.184384,0.245635 0.355408,0.507743 0.5,0.78125 0.14012,0.265048 0.276135,0.524729 0.375,0.8125 0.01041,0.03078 0.02133,0.06274 0.03125,0.09375 0.09046,0.278085 0.1388,0.579404 0.1875,0.875 C 89.95865,11.3493 90,11.665279 90,12 l 0,2 0,68 0,2 c 0,3.324 -2.676,6 -6,6 l -72,0 z" fill="url(#radialGradient12925-7)" fill-opacity="1" fill-rule="nonzero" stroke="none" opacity="0.2" inkscape:connector-curvature="0"/>
   </g>
   <path d="m 15.444386,77.438838 c 0,0 0.629091,-36.80197 31.96237,-37.023498 33.369758,-0.235924 31.864479,36.318839 31.864479,36.318839 l 12.902254,10.094249 c 0,0 0.374298,1.165944 -1.681411,2.582784 -2.13568,1.471989 -3.187724,1.463735 -3.187724,1.463735 l -76.999037,0.03158 c 0,0 -2.3018761,0.341528 -3.8710834,-1.223432 C 4.8068155,88.060115 4.4065101,86.69251 4.4065101,86.69251 z" fill="url(#radialGradient4069)" fill-opacity="1" stroke="none" inkscape:connector-curvature="0"/>
   <use xlink:href="#SVGCleanerId_0" fill="#ececec" inkscape:connector-curvature="0" transform="matrix(2.19034 -0.036 0.08813 1.85091 -73.23 19.616)"/>
   <path d="m 12.304095,69.961248 c 0,0 12.469702,8.008349 28.842617,7.98508 16.372872,-0.02325 21.344072,-7.346479 21.344072,-7.346479 z" fill="#dc9708" fill-opacity="1" stroke="none" inkscape:connector-curvature="0"/>
   <path d="m 39.158174,62.950369 c 0,0 -24.872042,2.38085 -31.1816859,6.060534 9.2027339,1.232088 12.3869379,3.04048 49.8879259,2.46264 9.555737,-0.549965 4.355258,-4.603661 2.022763,-5.371665 C 44.128298,60.912985 39.158174,62.950369 39.158174,62.950369 z" fill="url(#linearGradient4064)" fill-opacity="1" stroke="none" inkscape:connector-curvature="0"/>
   <path d="m 16.179717,90.795999 c 0,0 13.385716,-10.320069 31.791097,-10.732865 C 66.37618,79.650323 81.01682,91.208796 81.01682,91.208796 z" fill="#fffdf5" fill-opacity="1" stroke="none" inkscape:connector-curvature="0"/>
   <g transform="matrix(1.45455 0 0 1.43541 -1035.44 -333.79)">
    <rect x="733.23" y="235.4" fill="url(#linearGradient13150)" fill-opacity="1" stroke="none" height="8.07" opacity="0.954" width="24.2"/>
    <path d="m 733.18686,243.45748 5.81677,3.29762 11.70254,0 6.75663,-3.33146 z" fill="url(#linearGradient13152)" fill-opacity="1" stroke="none" inkscape:connector-curvature="0"/>
    <path d="m 738.30636,243.77687 3.41382,2.42407 6.82766,0 4.00242,-2.56666 z" fill="#272417" fill-opacity="1" stroke="none" inkscape:connector-curvature="0"/>
    <rect x="733.23" rx="0" y="235.4" ry="0.366" fill="#5a553a" fill-opacity="1" stroke="none" height="0.733" opacity="0.917" width="24.11"/>
    <rect x="733.23" rx="0" y="238.24" ry="0.366" fill="#5a543a" fill-opacity="1" stroke="none" height="0.733" opacity="0.917" width="24.11"/>
    <rect x="733.32" rx="0" y="240.53" ry="0.366" fill="#575238" fill-opacity="1" stroke="none" height="0.733" opacity="0.917" width="24.11"/>
    <rect x="734.61" rx="0" y="235.86" fill="#575238" fill-opacity="1" stroke="none" height="2.475" opacity="0.917" width="0.917"/>
    <rect x="736.35" rx="0" y="238.88" fill="#575238" fill-opacity="1" stroke="none" height="1.65" opacity="0.917" width="0.825"/>
    <rect x="740.01" rx="0" y="238.88" fill="#575238" fill-opacity="1" stroke="none" height="1.65" opacity="0.917" width="0.825"/>
    <rect x="737.63" rx="0" y="235.77" fill="#575238" fill-opacity="1" stroke="none" height="2.475" opacity="0.917" width="0.917"/>
    <rect x="733.29" rx="0" y="235.45" fill="#575238" fill-opacity="1" stroke="none" height="7.453" opacity="0.917" width="0.477"/>
    <rect x="756.88" rx="0" y="235.4" fill="#575238" fill-opacity="1" stroke="none" height="7.975" opacity="0.917" width="0.458"/>
    <rect x="741.48" rx="0" y="235.77" fill="#575238" fill-opacity="1" stroke="none" height="2.475" opacity="0.917" width="0.917"/>
    <rect x="744.51" rx="0" y="235.77" fill="#575238" fill-opacity="1" stroke="none" height="2.475" opacity="0.917" width="0.917"/>
    <rect x="747.9" rx="0" y="235.86" fill="#575238" fill-opacity="1" stroke="none" height="2.475" opacity="0.917" width="0.917"/>
    <rect x="750.92" rx="0" y="235.77" fill="#575238" fill-opacity="1" stroke="none" height="2.475" opacity="0.917" width="0.917"/>
    <rect x="754.77" rx="0" y="235.77" fill="#575238" fill-opacity="1" stroke="none" height="2.475" opacity="0.917" width="0.917"/>
    <rect x="743.5" rx="0" y="238.97" fill="#575238" fill-opacity="1" stroke="none" height="1.65" opacity="0.917" width="0.825"/>
    <rect x="747.16" rx="0" y="238.97" fill="#575238" fill-opacity="1" stroke="none" height="1.65" opacity="0.917" width="0.825"/>
    <rect x="752.39" rx="0" y="238.79" fill="#575238" fill-opacity="1" stroke="none" height="2.02" opacity="0.917" width="0.825"/>
    <rect x="733.23" rx="0" y="242.46" ry="0.504" fill="#575238" fill-opacity="1" stroke="none" height="1.01" opacity="0.917" width="24.11"/>
    <rect x="738.27" rx="0" y="240.81" fill="#575238" fill-opacity="1" stroke="none" height="1.65" opacity="0.917" width="0.825"/>
    <rect x="741.94" rx="0" y="240.81" fill="#575238" fill-opacity="1" stroke="none" height="1.65" opacity="0.917" width="0.825"/>
    <rect x="745.42" rx="0" y="240.9" fill="#575238" fill-opacity="1" stroke="none" height="1.65" opacity="0.917" width="0.825"/>
    <rect x="749.09" rx="0" y="240.9" fill="#575238" fill-opacity="1" stroke="none" height="1.65" opacity="0.917" width="0.825"/>
    <rect x="754.31" rx="0" y="240.72" fill="#575238" fill-opacity="1" stroke="none" height="2.02" opacity="0.917" width="0.825"/>
    <g transform="matrix(0.73332 0 0 -0.33989 714.78 245.16)">
     <path d="m 25.489703,28.345254 c 0,0 -0.102431,0.950954 1.33161,1.109446 1.434042,0.158492 29.551497,0 29.551497,0 0,0 1.434042,-0.713215 1.536473,-2.139646 0.102432,-1.42643 0.05122,0.701459 0.05122,-1.049159 0,-1.936894 -4.404556,-0.456517 -5.838598,-0.218779 -1.434041,0.237738 -1.587688,1.426431 -4.558203,0.237738 -2.970514,-1.188691 -5.172792,-0.194893 -7.887228,-0.194893 -2.714435,0 -3.431456,-1.707013 -6.145892,-0.835306 -2.714435,0.871708 -4.404555,2.773614 -5.377655,2.615122 -0.973099,-0.158492 -2.509572,0.07925 -2.509572,0.07925 z" fill="url(#linearGradient13154)" fill-opacity="1" stroke="none" inkscape:connector-curvature="0"/>
     <use xlink:href="#SVGCleanerId_9" fill="url(#radialGradient4128)" opacity="0.22" inkscape:connector-curvature="0" transform="matrix(1.06744 -0.05811 0.06592 1.7945 -0.202 -80.02)"/>
     <use xlink:href="#SVGCleanerId_9" fill="url(#radialGradient4160)" opacity="0.266" inkscape:connector-curvature="0" transform="matrix(1.01836 -0.41027 0.10966 1.75418 8.702 -64.45)"/>
     <use xlink:href="#SVGCleanerId_9" fill="url(#radialGradient4160)" opacity="0.174" inkscape:connector-curvature="0" transform="matrix(0.94414 -0.49479 0.18174 0.64851 -16.16 6.916)"/>
    </g>
    <g transform="matrix(-0.73332 0 0 -0.12977 775.93 246.53)">
     <path d="m 25.489703,28.345254 c 0,0 -0.102431,0.950954 1.33161,1.109446 1.434042,0.158492 29.551497,0 29.551497,0 0,0 1.434042,-0.713215 1.536473,-2.139646 0.102432,-1.42643 0.05122,0.701459 0.05122,-1.049159 0,-1.936894 -4.404556,-0.456517 -5.838598,-0.218779 -1.434041,0.237738 -1.613893,-1.061017 -4.558203,-2.89357 -1.909836,-1.188691 -5.172792,2.936415 -7.887228,2.936415 -2.714435,0 -3.431456,-1.707013 -6.145892,-0.835306 -2.714435,0.871708 -4.404555,2.773614 -5.377655,2.615122 -0.973099,-0.158492 -2.509572,0.07925 -2.509572,0.07925 z" fill="url(#linearGradient13154)" fill-opacity="1" stroke="none" inkscape:connector-curvature="0"/>
     <path d="m 41.5,61.3125 a 3.1875,0.80714804 0 1 1 -6.375,0 3.1875,0.80714804 0 1 1 6.375,0 z" fill="url(#radialGradient4136)" fill-opacity="1" stroke="none" opacity="0.627" inkscape:connector-curvature="0" transform="matrix(1.06744 -0.06261 0.06592 1.93348 -0.202 -90.21)"/>
     <path d="m 41.5,61.3125 a 3.1875,1.4321198 0 1 1 -6.375,0 3.1875,1.4321198 0 1 1 6.375,0 z" fill="url(#radialGradient4144)" fill-opacity="1" stroke="none" opacity="0.627" inkscape:connector-curvature="0" transform="matrix(1.01836 -0.16667 0.10966 0.71261 8.702 -10.768)"/>
     <use xlink:href="#SVGCleanerId_9" fill="url(#radialGradient4160)" opacity="0.627" inkscape:connector-curvature="0" transform="matrix(0.94414 -0.49479 0.18174 0.64851 -16.16 6.916)"/>
    </g>
   </g>
   <g transform="matrix(-0.16052 -0.00711 -0.00594 0.15355 68.17 22.13)">
    <use xlink:href="#SVGCleanerId_1" inkscape:connector-curvature="0"/>
    <use xlink:href="#SVGCleanerId_0" fill="#ffffff" inkscape:connector-curvature="0" transform="matrix(0.91479 0 0 0.79171 75.43 4.421)"/>
    <use xlink:href="#SVGCleanerId_0" fill="#ffffff" inkscape:connector-curvature="0" transform="matrix(0.901 0 0 0.68914 66 6.256)"/>
    <use xlink:href="#SVGCleanerId_2" inkscape:connector-curvature="0"/>
    <use xlink:href="#SVGCleanerId_3" inkscape:connector-curvature="0"/>
    <use xlink:href="#SVGCleanerId_0" fill="#000000" inkscape:connector-curvature="0" transform="matrix(0.52276 0 0 0.43982 97.59 11.986)"/>
    <use xlink:href="#SVGCleanerId_0" fill="#000000" inkscape:connector-curvature="0" transform="matrix(0.52673 0 0 0.40291 87.12 12.581)"/>
    <use xlink:href="#SVGCleanerId_4" inkscape:connector-curvature="0"/>
    <use xlink:href="#SVGCleanerId_5" inkscape:connector-curvature="0" transform="matrix(1.29223 0.01111 0.00888 1.05274 -31.32 -3.245)"/>
    <use xlink:href="#SVGCleanerId_6" inkscape:connector-curvature="0"/>
    <use xlink:href="#SVGCleanerId_7" inkscape:connector-curvature="0"/>
    <use xlink:href="#SVGCleanerId_8" inkscape:connector-curvature="0"/>
   </g>
   <g transform="matrix(-0.14318 -0.07196 -0.06973 0.13739 85.07 40.813)">
    <use xlink:href="#SVGCleanerId_1" inkscape:connector-curvature="0"/>
    <use xlink:href="#SVGCleanerId_0" fill="#ffffff" inkscape:connector-curvature="0" transform="matrix(0.91479 0 0 0.79171 75.43 4.421)"/>
    <use xlink:href="#SVGCleanerId_0" fill="#ffffff" inkscape:connector-curvature="0" transform="matrix(0.901 0 0 0.68914 66 6.256)"/>
    <use xlink:href="#SVGCleanerId_2" inkscape:connector-curvature="0"/>
    <use xlink:href="#SVGCleanerId_3" inkscape:connector-curvature="0"/>
    <use xlink:href="#SVGCleanerId_0" fill="#000000" inkscape:connector-curvature="0" transform="matrix(0.52276 0 0 0.43982 97.59 11.986)"/>
    <use xlink:href="#SVGCleanerId_0" fill="#000000" inkscape:connector-curvature="0" transform="matrix(0.52673 0 0 0.40291 87.12 12.581)"/>
    <use xlink:href="#SVGCleanerId_4" inkscape:connector-curvature="0"/>
    <use xlink:href="#SVGCleanerId_5" inkscape:connector-curvature="0" transform="matrix(1.29223 0.01111 0.00888 1.05274 -31.32 -3.245)"/>
    <use xlink:href="#SVGCleanerId_6" inkscape:connector-curvature="0"/>
    <use xlink:href="#SVGCleanerId_7" inkscape:connector-curvature="0"/>
    <use xlink:href="#SVGCleanerId_8" inkscape:connector-curvature="0"/>
   </g>
   <g transform="matrix(-0.11333 0.02865 0.02946 0.10595 43.674 32.02)">
    <use xlink:href="#SVGCleanerId_1" inkscape:connector-curvature="0"/>
    <use xlink:href="#SVGCleanerId_0" fill="#ffffff" inkscape:connector-curvature="0" transform="matrix(0.91479 0 0 0.79171 75.43 4.421)"/>
    <use xlink:href="#SVGCleanerId_0" fill="#ffffff" inkscape:connector-curvature="0" transform="matrix(0.901 0 0 0.68914 66 6.256)"/>
    <use xlink:href="#SVGCleanerId_2" inkscape:connector-curvature="0"/>
    <use xlink:href="#SVGCleanerId_3" inkscape:connector-curvature="0"/>
    <use xlink:href="#SVGCleanerId_0" fill="#000000" inkscape:connector-curvature="0" transform="matrix(0.52276 0 0 0.43982 97.59 11.986)"/>
    <use xlink:href="#SVGCleanerId_0" fill="#000000" inkscape:connector-curvature="0" transform="matrix(0.52673 0 0 0.40291 87.12 12.581)"/>
    <use xlink:href="#SVGCleanerId_4" inkscape:connector-curvature="0"/>
    <use xlink:href="#SVGCleanerId_5" inkscape:connector-curvature="0" transform="matrix(1.29223 0.01111 0.00888 1.05274 -31.32 -3.245)"/>
    <use xlink:href="#SVGCleanerId_6" inkscape:connector-curvature="0"/>
    <use xlink:href="#SVGCleanerId_7" inkscape:connector-curvature="0"/>
    <use xlink:href="#SVGCleanerId_8" inkscape:connector-curvature="0"/>
   </g>
   <use xlink:href="#SVGCleanerId_0" fill="#ececec" inkscape:connector-curvature="0" transform="matrix(2.19034 -0.036 0.08813 1.85091 -94.05 18.691)"/>
   <use xlink:href="#SVGCleanerId_0" fill="#000000" inkscape:connector-curvature="0" transform="matrix(1.02108 -0.01683 0.03994 0.84137 -26.343 36.12)"/>
   <use xlink:href="#SVGCleanerId_0" fill="#000000" inkscape:connector-curvature="0" transform="matrix(1.02108 -0.01683 0.03994 0.84137 -5.067 36.583)"/>
   <path d="m 738.43533,275.2818 c 0,0 -17.09953,1.65865 -21.43741,4.22215 6.32688,0.85835 8.51602,2.11819 34.29795,1.71563 6.56957,-0.38314 2.99424,-3.2072 1.39065,-3.74224 -10.83423,-3.61491 -14.25119,-2.19554 -14.25119,-2.19554 z" fill="url(#linearGradient13393-1)" fill-opacity="1" stroke="none" inkscape:connector-curvature="0" transform="matrix(1.45455 0 0 1.25621 -1035.85 -282.58)"/>
   <path d="m 720.60913,279.84379 c 0,0 8.57292,5.57912 19.8293,5.56291 11.25635,-0.0162 14.67405,-5.11802 14.67405,-5.11802 z" fill="url(#linearGradient13415-0)" fill-opacity="1" stroke="none" opacity="0.665" inkscape:connector-curvature="0" transform="matrix(1.46334 0 0 0.96052 -1041.65 -196.36)"/>
   <path d="m 18.239585,89.262725 c 0,0 12.557428,-8.730933 29.823911,-9.080164 17.26647,-0.349245 31.001169,9.429397 31.001169,9.429397 z" fill="url(#linearGradient3679)" fill-opacity="1" stroke="none" opacity="0.797" inkscape:connector-curvature="0"/>
  </g>
  <rect x="-96" rx="25" y="958.36" clip-path="url(#clipPath3009)" fill="#ffffff" fill-opacity="1" height="92" opacity="0.15" width="92" transform="matrix(1 0 0 1 98 0)"/>
 </g>
</svg>
