<svg height="96" width="96" xmlns="http://www.w3.org/2000/svg" xmlns:xlink="http://www.w3.org/1999/xlink" xmlns:sodipodi="http://sodipodi.sourceforge.net/DTD/sodipodi-0.dtd" xmlns:inkscape="http://www.inkscape.org/namespaces/inkscape">
 <defs>
  <linearGradient x2="0" y1="90" y2="5.988" gradientUnits="userSpaceOnUse" id="linearGradient3885">
   <stop stop-color="#000000" stop-opacity="1"/>
   <stop stop-color="#515151" stop-opacity="1" offset="1"/>
  </linearGradient>
  <radialGradient cy="48" r="28" xlink:href="#linearGradient3806" gradientUnits="userSpaceOnUse" id="radialGradient3804" cx="48" gradientTransform="matrix(1.14286 0 0 0.85714 -6.857 3.857)"/>
  <linearGradient id="linearGradient3806">
   <stop stop-color="#f7e0c0" stop-opacity="1"/>
   <stop stop-color="#b67e35" stop-opacity="1" offset="1"/>
  </linearGradient>
  <radialGradient cy="48" r="28" xlink:href="#linearGradient3806" gradientUnits="userSpaceOnUse" id="radialGradient3834" cx="48" gradientTransform="matrix(1.14286 0 0 0.85714 -6.857 57.857)"/>
  <radialGradient cy="48" r="28" xlink:href="#linearGradient3806" gradientUnits="userSpaceOnUse" id="radialGradient3832" cx="48" gradientTransform="matrix(1.14286 0 0 -0.85714 -6.857 38.14)"/>
  <clipPath id="clipPath3972">
   <path d="m 22,24 c -1.108,0 -2,0.93035 -2,2.09375 L 20,36 76,36 76,26.09375 C 76,24.93035 75.108,24 74,24 l -52,0 z" inkscape:connector-curvature="0"/>
  </clipPath>
  <linearGradient x2="0" y1="90.43" y2="52.39" gradientUnits="userSpaceOnUse" id="linearGradient3968">
   <stop stop-color="#6b3715" stop-opacity="1"/>
   <stop stop-color="#6b3715" stop-opacity="0" offset="1"/>
  </linearGradient>
  <clipPath id="clipPath4000">
   <path d="m 22,72 c -1.108,0 -2,-0.93035 -2,-2.09375 L 20,60 l 56,0 0,9.90625 C 76,71.06965 75.108,72 74,72 l -52,0 z" inkscape:connector-curvature="0"/>
  </clipPath>
  <linearGradient x2="0" xlink:href="#linearGradient3737" y1="20.221" y2="138.66" gradientUnits="userSpaceOnUse" id="linearGradient3613"/>
  <linearGradient id="linearGradient3737">
   <stop stop-color="#ffffff" stop-opacity="1"/>
   <stop stop-color="#ffffff" stop-opacity="0" offset="1"/>
  </linearGradient>
  <clipPath id="clipPath3613">
   <rect x="6" rx="6" y="6" height="84" width="84"/>
  </clipPath>
  <filter x="-0.192" y="-0.192" height="1.384" color-interpolation-filters="sRGB" id="filter3794" width="1.384">
   <feGaussianBlur stdDeviation="5.28"/>
  </filter>
  <radialGradient cy="90.17" r="42" xlink:href="#linearGradient3737" gradientUnits="userSpaceOnUse" id="radialGradient3619" cx="48" gradientTransform="matrix(1.15731 0 0 0.99591 -7.551 0.197)"/>
  <clipPath clipPathUnits="userSpaceOnUse" id="clipPath3162">
   <rect x="6" rx="22.826" y="6" height="84" width="84"/>
  </clipPath>
  <clipPath clipPathUnits="userSpaceOnUse" id="clipPath3009">
   <path d="m -2,956.36218 -96,0 0,33.5624 96,25.68742 0,-59.24982 z" inkscape:connector-curvature="0"/>
  </clipPath>
  <path d="m 82.204286,73.387573 a 9.1021435,9.1021435 0 1 1 -18.204287,0 9.1021435,9.1021435 0 1 1 18.204287,0 z" display="inline" fill-opacity="1" stroke="none" fill-rule="evenodd" id="SVGCleanerId_0"/>
  <path d="M 64.5625,48.84375 A 0.14527817,0.14527817 0 0 0 64.53125,48.875 0.14527817,0.14527817 0 0 0 64.5,48.90625 0.14527817,0.14527817 0 0 0 64.46875,48.9375 0.14527817,0.14527817 0 0 0 64.4375,48.96875 0.14527817,0.14527817 0 0 0 64.4375,49 l 0,7.15625 0,7.125 a 0.14527817,0.14527817 0 0 0 0.03125,0.0625 0.14527817,0.14527817 0 0 0 0,0.03125 0.14527817,0.14527817 0 0 0 0.03125,0.03125 0.14527817,0.14527817 0 0 0 0.03125,0 0.14527817,0.14527817 0 0 0 0.0625,0.03125 0.14527817,0.14527817 0 0 0 0.03125,0 0.14527817,0.14527817 0 0 0 0.03125,-0.03125 L 65.5,62.9375 c 2.032547,-1.136687 4.850936,-2.76706 7.15625,-4.125 1.152657,-0.67897 2.167703,-1.300142 2.90625,-1.75 0.369274,-0.224929 0.668444,-0.39842 0.875,-0.53125 0.103278,-0.06641 0.192816,-0.115717 0.25,-0.15625 0.02859,-0.02027 0.04307,-0.0462 0.0625,-0.0625 0.0097,-0.0082 0.02015,-0.01907 0.03125,-0.03125 0.0056,-0.0061 0.02316,0.01299 0.03125,0 0.004,-0.0065 -2.27e-4,-0.03066 0,-0.03125 2.27e-4,-5.89e-4 0.03124,-0.06204 0.03125,-0.0625 0.0019,-0.100253 -0.04772,-0.162917 -0.09375,-0.25 -0.04603,-0.08708 -0.108762,-0.195997 -0.1875,-0.3125 -0.157477,-0.233006 -0.376177,-0.50341 -0.625,-0.8125 -0.497647,-0.61818 -1.121415,-1.307514 -1.625,-1.78125 -2.309707,-2.172806 -5.375663,-3.660811 -8.28125,-3.96875 -0.406537,-0.04308 -0.881133,-0.122141 -1.0625,-0.15625 L 64.625,48.84375 a 0.14527817,0.14527817 0 0 0 -0.03125,0 0.14527817,0.14527817 0 0 0 -0.03125,0 z" display="inline" fill="#f2ece2" fill-opacity="1" stroke="none" fill-rule="nonzero" id="SVGCleanerId_1" opacity="0.6"/>
  <path stroke-opacity="1" d="M 59.5,47.999999 C 59.5,54.347999 54.348,59.5 48,59.5 41.652,59.5 36.5,54.347999 36.5,47.999999 36.5,41.651999 41.652,36.5 48,36.5 c 6.348,0 11.5,5.151999 11.5,11.499999 z" stroke-width="1" display="inline" fill="none" stroke="#2b1100" stroke-dasharray="none" id="SVGCleanerId_2" stroke-dashoffset="0" opacity="0.5" stroke-linecap="butt" stroke-linejoin="round" stroke-miterlimit="4"/>
  <path d="m 48,24 0,48 1,0 0,-48 -1,0 z" display="inline" fill="#2b1100" fill-opacity="1" stroke="none" fill-rule="evenodd" id="SVGCleanerId_3" opacity="0.5"/>
  <path d="m 76,47 -56,0 0,1 56,0 0,-1 z" display="inline" fill="#2b1100" fill-opacity="1" stroke="none" fill-rule="evenodd" id="SVGCleanerId_4" opacity="0.5"/>
  <path d="M 60.93717,40.3125 47.62467,48 l 0.375,0.65625 13.359375,-7.710938 C 61.209248,40.741446 61.061257,40.531889 60.93717,40.3125 z" display="inline" fill="#2b1100" fill-opacity="1" stroke="none" fill-rule="evenodd" id="SVGCleanerId_5" opacity="0.5"/>
  <path d="m 51.307151,54.001482 c -7e-6,0.936001 -0.308007,1.668001 -0.924,2.196 -0.584005,0.488 -1.352005,0.731999 -2.304,0.732 -0.936003,-10e-7 -1.696002,-0.244 -2.28,-0.732 -0.632001,-0.519999 -0.948001,-1.235999 -0.948,-2.148 -1e-6,-0.151998 0.008,-0.303997 0.024,-0.456 l 2.208,0 c -0.024,0.128003 -0.036,0.252002 -0.036,0.372 -3e-6,0.328002 0.092,0.592002 0.276,0.792 0.183997,0.200001 0.439997,0.300001 0.768,0.3 0.311996,10e-7 0.563996,-0.107999 0.756,-0.324 0.191995,-0.223998 0.287995,-0.491998 0.288,-0.804 -5e-6,-0.335997 -0.108005,-0.603997 -0.324,-0.804 -0.208004,-0.199997 -0.480004,-0.295997 -0.816,-0.288 l 0,-1.62 c 0.311996,0.008 0.571996,-0.07999 0.78,-0.264 0.215995,-0.183994 0.323995,-0.427994 0.324,-0.732 -5e-6,-0.295994 -0.096,-0.535993 -0.288,-0.72 -0.192004,-0.183993 -0.436004,-0.275993 -0.732,-0.276 -0.296003,7e-6 -0.536003,0.08801 -0.72,0.264 -0.176003,0.168007 -0.272003,0.396006 -0.288,0.684 l -2.028,0 c -1e-6,-0.839993 0.295999,-1.511992 0.888,-2.016 0.559998,-0.479991 1.267997,-0.719991 2.124,-0.72 0.839995,9e-6 1.547995,0.236009 2.124,0.708 0.623994,0.496008 0.935993,1.156007 0.936,1.98 -7e-6,0.832005 -0.304006,1.444005 -0.912,1.836 0.735993,0.408004 1.103993,1.088003 1.104,2.04" fill-opacity="1" stroke="none" id="SVGCleanerId_6"/>
 </defs>
 <g inkscape:label="Layer 1" inkscape:groupmode="layer" transform="matrix(1 0 0 1 0 -956.36)">
  <g clip-path="url(#clipPath3162)" transform="matrix(1.09524 0 0 1.09524 -4.571 951.79)">
   <path d="M 12,6 C 8.676,6 6,8.676 6,12 l 0,72 c 0,3.324 2.676,6 6,6 l 72,0 c 3.324,0 6,-2.676 6,-6 L 90,12 C 90,8.676 87.324,6 84,6 L 12,6 z m -2,4 6,0 0,4 -6,0 0,-4 z m 70,0 6,0 0,4 -6,0 0,-4 z m -70,8 6,0 0,4 -6,0 0,-4 z m 70,0 6,0 0,4 -6,0 0,-4 z m -70,8 6,0 0,4 -6,0 0,-4 z m 70,0 6,0 0,4 -6,0 0,-4 z m -70,8 6,0 0,4 -6,0 0,-4 z m 70,0 6,0 0,4 -6,0 0,-4 z m -70,8 6,0 0,4 -6,0 0,-4 z m 70,0 6,0 0,4 -6,0 0,-4 z m -70,8 6,0 0,4 -6,0 0,-4 z m 70,0 6,0 0,4 -6,0 0,-4 z m -70,8 6,0 0,4 -6,0 0,-4 z m 70,0 6,0 0,4 -6,0 0,-4 z m -70,8 6,0 0,4 -6,0 0,-4 z m 70,0 6,0 0,4 -6,0 0,-4 z m -70,8 6,0 0,4 -6,0 0,-4 z m 70,0 6,0 0,4 -6,0 0,-4 z m -70,8 6,0 0,4 -6,0 0,-4 z m 70,0 6,0 0,4 -6,0 0,-4 z" display="inline" fill="url(#linearGradient3885)" fill-opacity="1" fill-rule="nonzero" stroke="none" inkscape:connector-curvature="0"/>
   <rect x="20" rx="2" y="24" ry="2.1" fill="url(#radialGradient3804)" fill-opacity="1" stroke="none" height="48" width="56"/>
   <path d="m 22,78 c -1.108,0 -2,0.93035 -2,2.09375 L 20,90 76,90 76,80.09375 C 76,78.93035 75.108,78 74,78 l -52,0 z" fill="url(#radialGradient3834)" fill-opacity="1" stroke="none" inkscape:connector-curvature="0"/>
   <path d="m 22,18 c -1.108,0 -2,-0.93035 -2,-2.09375 L 20,6 76,6 76,15.90625 C 76,17.06965 75.108,18 74,18 l -52,0 z" fill="url(#radialGradient3832)" fill-opacity="1" stroke="none" inkscape:connector-curvature="0"/>
   <use xlink:href="#SVGCleanerId_0" fill="#915b22" inkscape:connector-curvature="0" transform="matrix(2.08742 0 0 2.08742 -104.6 -105.19)"/>
   <use xlink:href="#SVGCleanerId_0" fill="#bc8946" inkscape:connector-curvature="0" transform="matrix(1.86769 0 0 1.86769 -88.53 -89.07)"/>
   <use xlink:href="#SVGCleanerId_0" fill="#d5c5aa" opacity="0.6" inkscape:connector-curvature="0" transform="matrix(1.64796 0 0 1.64796 -72.47 -72.94)"/>
   <use xlink:href="#SVGCleanerId_1" inkscape:connector-curvature="0" transform="matrix(0.93434 0 0 0.98915 -11.272 -15.312)"/>
   <use xlink:href="#SVGCleanerId_2" inkscape:connector-curvature="0"/>
   <use xlink:href="#SVGCleanerId_3" inkscape:connector-curvature="0"/>
   <use xlink:href="#SVGCleanerId_4" inkscape:connector-curvature="0"/>
   <use xlink:href="#SVGCleanerId_5" inkscape:connector-curvature="0"/>
   <use xlink:href="#SVGCleanerId_6" fill="#20130b" inkscape:connector-curvature="0" transform="matrix(1.68563 0 0 1.68563 -33.04 -39.962)"/>
   <g clip-path="url(#clipPath3972)" transform="matrix(1 0 0 1 0 54)">
    <use xlink:href="#SVGCleanerId_0" fill="#915b22" inkscape:connector-curvature="0" transform="matrix(2.08742 0 0 2.08742 -104.6 -105.19)"/>
    <use xlink:href="#SVGCleanerId_0" fill="#bc8946" inkscape:connector-curvature="0" transform="matrix(1.86769 0 0 1.86769 -88.53 -89.07)"/>
    <use xlink:href="#SVGCleanerId_0" fill="#d5c5aa" opacity="0.6" inkscape:connector-curvature="0" transform="matrix(1.64796 0 0 1.64796 -72.47 -72.94)"/>
    <use xlink:href="#SVGCleanerId_1" inkscape:connector-curvature="0" transform="matrix(0.93434 0 0 0.98915 -11.272 -15.312)"/>
    <use xlink:href="#SVGCleanerId_2" inkscape:connector-curvature="0"/>
    <use xlink:href="#SVGCleanerId_3" inkscape:connector-curvature="0"/>
    <use xlink:href="#SVGCleanerId_4" inkscape:connector-curvature="0"/>
    <use xlink:href="#SVGCleanerId_5" inkscape:connector-curvature="0"/>
    <use xlink:href="#SVGCleanerId_6" fill="#000000" inkscape:connector-curvature="0" transform="matrix(1.68563 0 0 1.68563 -33.04 -39.962)"/>
   </g>
   <path d="m 20,48 0,21.90625 C 20,71.06965 20.892,72 22,72 l 52,0 c 1.108,0 2,-0.93035 2,-2.09375 L 76,48 20,48 z m 2,30 c -1.108,0 -2,0.93035 -2,2.09375 L 20,90 76,90 76,80.09375 C 76,78.93035 75.108,78 74,78 l -52,0 z" fill="url(#linearGradient3968)" fill-opacity="1" stroke="none" opacity="0.6" inkscape:connector-curvature="0"/>
   <g clip-path="url(#clipPath4000)" transform="matrix(1 0 0 1 0 -54)">
    <use xlink:href="#SVGCleanerId_0" fill="#915b22" inkscape:connector-curvature="0" transform="matrix(2.08742 0 0 2.08742 -104.6 -105.19)"/>
    <use xlink:href="#SVGCleanerId_0" fill="#bc8946" inkscape:connector-curvature="0" transform="matrix(1.86769 0 0 1.86769 -88.53 -89.07)"/>
    <use xlink:href="#SVGCleanerId_0" fill="#d5c5aa" opacity="0.6" inkscape:connector-curvature="0" transform="matrix(1.64796 0 0 1.64796 -72.47 -72.94)"/>
    <use xlink:href="#SVGCleanerId_1" inkscape:connector-curvature="0" transform="matrix(0.93434 0 0 0.98915 -11.272 -15.312)"/>
    <use xlink:href="#SVGCleanerId_2" inkscape:connector-curvature="0"/>
    <use xlink:href="#SVGCleanerId_3" inkscape:connector-curvature="0"/>
    <use xlink:href="#SVGCleanerId_4" inkscape:connector-curvature="0"/>
    <use xlink:href="#SVGCleanerId_5" inkscape:connector-curvature="0"/>
    <use xlink:href="#SVGCleanerId_6" fill="#000000" inkscape:connector-curvature="0" transform="matrix(1.68563 0 0 1.68563 -33.04 -39.962)"/>
   </g>
   <g display="inline">
    <rect stroke="#ffffff" stroke-dasharray="none" clip-path="url(#clipPath3613)" stroke-dashoffset="0" stroke-linecap="round" height="66" stroke-linejoin="miter" stroke-miterlimit="4" stroke-opacity="1" stroke-width="0.5" width="66" fill="url(#linearGradient3613)" fill-opacity="1" opacity="0.1" x="15" fill-rule="nonzero" filter="url(#filter3794)" y="15" rx="12"/>
    <path d="M 12,90 C 8.676,90 6,87.324 6,84 L 6,82 6,14 6,12 c 0,-0.334721 0.04135,-0.6507 0.09375,-0.96875 0.0487,-0.295596 0.09704,-0.596915 0.1875,-0.875 C 6.29113,10.12587 6.302142,10.09265 6.3125,10.0625 6.411365,9.774729 6.5473802,9.515048 6.6875,9.25 6.8320918,8.976493 7.0031161,8.714385 7.1875,8.46875 7.3718839,8.223115 7.5612765,7.995278 7.78125,7.78125 8.221197,7.353194 8.72416,6.966724 9.28125,6.6875 9.559795,6.547888 9.8547231,6.440553 10.15625,6.34375 9.9000482,6.443972 9.6695391,6.580022 9.4375,6.71875 c -0.00741,0.0044 -0.023866,-0.0045 -0.03125,0 -0.031933,0.0193 -0.062293,0.04251 -0.09375,0.0625 -0.120395,0.0767 -0.2310226,0.163513 -0.34375,0.25 -0.1061728,0.0808 -0.2132809,0.161112 -0.3125,0.25 C 8.4783201,7.442683 8.3087904,7.626638 8.15625,7.8125 8.0486711,7.942755 7.9378561,8.077785 7.84375,8.21875 7.818661,8.25713 7.805304,8.30462 7.78125,8.34375 7.716487,8.446782 7.6510225,8.548267 7.59375,8.65625 7.4927417,8.850956 7.3880752,9.071951 7.3125,9.28125 7.30454,9.30306 7.288911,9.3218 7.28125,9.34375 7.2494249,9.4357 7.2454455,9.530581 7.21875,9.625 7.1884177,9.731618 7.1483606,9.828031 7.125,9.9375 7.0521214,10.279012 7,10.635705 7,11 l 0,2 0,68 0,2 c 0,2.781848 2.2181517,5 5,5 l 2,0 68,0 2,0 c 2.781848,0 5,-2.218152 5,-5 l 0,-2 0,-68 0,-2 C 89,10.635705 88.94788,10.279012 88.875,9.9375 88.83085,9.730607 88.78662,9.539842 88.71875,9.34375 88.71105,9.3218 88.69545,9.30306 88.6875,9.28125 88.62476,9.107511 88.549117,8.913801 88.46875,8.75 88.42717,8.6672 88.38971,8.580046 88.34375,8.5 88.28915,8.40279 88.216976,8.31165 88.15625,8.21875 88.06214,8.077785 87.951329,7.942755 87.84375,7.8125 87.700576,7.63805 87.540609,7.465502 87.375,7.3125 87.36383,7.3023 87.35502,7.29135 87.34375,7.28125 87.205364,7.155694 87.058659,7.046814 86.90625,6.9375 86.803679,6.86435 86.701932,6.784136 86.59375,6.71875 c -0.0074,-0.0045 -0.02384,0.0044 -0.03125,0 -0.232039,-0.138728 -0.462548,-0.274778 -0.71875,-0.375 0.301527,0.0968 0.596455,0.204138 0.875,0.34375 0.55709,0.279224 1.060053,0.665694 1.5,1.09375 0.219973,0.214028 0.409366,0.441865 0.59375,0.6875 0.184384,0.245635 0.355408,0.507743 0.5,0.78125 0.14012,0.265048 0.276135,0.524729 0.375,0.8125 0.01041,0.03078 0.02133,0.06274 0.03125,0.09375 0.09046,0.278085 0.1388,0.579404 0.1875,0.875 C 89.95865,11.3493 90,11.665279 90,12 l 0,2 0,68 0,2 c 0,3.324 -2.676,6 -6,6 l -72,0 z" fill="url(#radialGradient3619)" fill-opacity="1" fill-rule="nonzero" stroke="none" opacity="0.15" inkscape:connector-curvature="0"/>
   </g>
  </g>
  <rect x="-96" rx="25" y="958.36" clip-path="url(#clipPath3009)" fill="#ffffff" fill-opacity="1" height="92" opacity="0.15" width="92" transform="matrix(1 0 0 1 98 0)"/>
 </g>
</svg>
