<svg height="96" width="96" xmlns="http://www.w3.org/2000/svg" xmlns:sodipodi="http://sodipodi.sourceforge.net/DTD/sodipodi-0.dtd" xmlns:inkscape="http://www.inkscape.org/namespaces/inkscape">
 <defs>
  <clipPath clipPathUnits="userSpaceOnUse" id="clipPath3329">
   <rect x="-110.75" rx="10.769" y="976.54" height="80" width="80"/>
  </clipPath>
 </defs>
 <g inkscape:label="Layer 1" inkscape:groupmode="layer" transform="matrix(1 0 0 1 0 -956.36)">
  <rect x="8" rx="10.769" y="964.36" fill="#4773aa" fill-opacity="1" stroke="none" height="80" width="80"/>
  <g clip-path="url(#clipPath3329)" transform="matrix(1 0 0 1 118.75 -12.179)">
   <path d="m -110.35714,971.5646 c -1.82029,0 -3.46698,0.72888 -4.65476,1.91668 l 44.083332,44.08332 44.08333,-44.08332 c -1.18778,-1.1878 -2.834471,-1.91668 -4.654761,-1.91668 l -78.857141,0 z" fill="#75c624" fill-opacity="1" stroke="none" inkscape:connector-curvature="0"/>
   <path d="m -114.72619,973.1955 c -1.18779,1.18778 -1.91667,2.83447 -1.91667,4.65476 l 0,78.85714 c 0,1.8203 0.72888,3.467 1.91667,4.6548 l 44.083332,-44.0834 -44.083332,-44.0833 z" fill="#ef2929" fill-opacity="1" stroke="none" inkscape:connector-curvature="0"/>
   <path d="m -26.773811,973.35027 -44.08333,44.08323 44.08333,44.0834 c 1.18779,-1.1878 1.91667,-2.8345 1.91667,-4.6548 l 0,-78.85707 c 0,-1.82029 -0.72888,-3.46698 -1.91667,-4.65476 z" fill="#f3db44" fill-opacity="1" stroke="none" inkscape:connector-curvature="0"/>
  </g>
  <path d="m 47.285699,974.29076 a 30,30 0 0 1 0,60.00004 30,30 0 1 1 0,-60.00004 z" fill="#e6e6e6" fill-opacity="1" stroke="none" inkscape:connector-curvature="0"/>
  <path d="m 52.689239,1021.0825 c -0.383657,-0.118 -0.723586,-0.3532 -1.064613,-0.7365 -0.480552,-0.54 -0.540982,-0.5684 -1.480744,-0.6949 -1.178868,-0.1587 -4.697923,-0.1667 -5.886945,-0.013 -0.470111,0.061 -0.953627,0.1997 -1.07448,0.3091 -0.120859,0.1093 -0.295719,0.1988 -0.388583,0.1988 -0.09287,0 -0.470699,0.2079 -0.83963,0.462 -1.019942,0.7025 -1.730697,0.7148 -3.357208,0.058 -0.689803,-0.2785 -1.732499,-0.6175 -2.317111,-0.7533 -2.239343,-0.5204 -4.383886,-1.1155 -4.566957,-1.2674 -0.266271,-0.221 -0.24021,-0.5295 0.136933,-1.6213 0.304288,-0.8809 0.320389,-1.0339 0.224989,-2.1386 -0.158102,-1.831 -0.125759,-2.1412 0.25759,-2.4709 0.268325,-0.2308 0.479952,-0.2846 1.119325,-0.2846 1.148964,0 1.502661,-0.1641 1.961633,-0.91 0.368268,-0.5985 0.382867,-0.667 0.236666,-1.1099 -0.222801,-0.6751 -0.06835,-1.5198 0.429054,-2.3467 0.719952,-1.1969 1.065961,-1.9666 1.599249,-3.5578 0.655944,-1.9571 0.631764,-1.9131 1.982668,-3.6066 1.361318,-1.70643 1.939584,-2.56073 2.054384,-3.03493 0.04661,-0.1926 0.0239,-1.3199 -0.05053,-2.505 -0.218902,-3.4865 -0.191416,-5.15419 0.09993,-6.06437 0.626977,-1.95869 1.765451,-2.95731 3.73266,-3.27412 1.626972,-0.26202 3.786003,0.44693 4.971551,1.63249 0.673898,0.6739 1.273898,1.83133 1.461135,2.81863 0.06758,0.35644 0.186748,1.65257 0.264782,2.88017 0.122446,1.9263 0.188928,2.3539 0.48529,3.1215 0.556308,1.4408 1.929059,3.6709 3.080084,5.00383 0.928064,1.0748 1.121988,1.3861 1.550686,2.4897 0.855711,2.2027 1.033527,2.913 1.106299,4.4189 0.04186,0.8662 0.01048,1.6958 -0.08188,2.1652 -0.145082,0.7374 -0.139798,0.7728 0.170618,1.1417 0.240273,0.2856 0.320348,0.5224 0.320348,0.9471 0,0.3116 0.09274,0.7619 0.206098,1.0008 0.263587,0.5554 1.163179,1.456 1.865911,1.8678 0.650807,0.3814 0.782813,0.6923 0.490322,1.1549 -0.321242,0.508 -0.627444,0.7261 -1.998713,1.4235 -1.35565,0.6896 -1.819542,1.015 -3.068602,2.1526 -1.362478,1.241 -2.327916,1.5449 -3.63222,1.1436 z" fill="#4d4d4d" inkscape:connector-curvature="0"/>
 </g>
</svg>
