<svg height="96" width="96" xmlns="http://www.w3.org/2000/svg" xmlns:xlink="http://www.w3.org/1999/xlink" xmlns:sodipodi="http://sodipodi.sourceforge.net/DTD/sodipodi-0.dtd" xmlns:inkscape="http://www.inkscape.org/namespaces/inkscape">
 <defs>
  <linearGradient x2="0" y1="962.62" y2="1046.1" gradientUnits="userSpaceOnUse" id="linearGradient11642" gradientTransform="matrix(1.15 0 0 1.15 -7.2 -150.65)">
   <stop stop-color="#ddbef2"/>
   <stop stop-color="#eddef7" offset="1"/>
  </linearGradient>
  <linearGradient x2="0" y1="13.405" y2="75.68" gradientUnits="userSpaceOnUse" id="linearGradient3728">
   <stop stop-color="#ead7f5"/>
   <stop stop-color="#fff" stop-opacity="0" offset="1"/>
  </linearGradient>
  <linearGradient x2="0" y1="32" y2="80" gradientUnits="userSpaceOnUse" id="linearGradient3736" gradientTransform="matrix(1 0 0 1 -60 0)">
   <stop stop-color="#b5a7c0"/>
   <stop stop-color="#b5a7c0" stop-opacity="0" offset="1"/>
  </linearGradient>
  <linearGradient x2="0" y1="37" y2="69.06" gradientUnits="userSpaceOnUse" id="linearGradient3705">
   <stop stop-color="#d4aeee"/>
   <stop stop-color="#d9b7f0" stop-opacity="0" offset="1"/>
  </linearGradient>
  <linearGradient x2="0" y1="31.991" y2="72.01" gradientUnits="userSpaceOnUse" id="linearGradient3713" gradientTransform="matrix(1 0 0 1 -30 0)">
   <stop stop-color="#82619a"/>
   <stop stop-color="#82619a" stop-opacity="0" offset="1"/>
  </linearGradient>
  <linearGradient x2="0" y1="25" y2="56" gradientUnits="userSpaceOnUse" id="linearGradient3682">
   <stop stop-color="#ac65df"/>
   <stop stop-color="#ac65df" stop-opacity="0" offset="1"/>
  </linearGradient>
  <linearGradient x2="0" y1="25" y2="56" gradientUnits="userSpaceOnUse" id="linearGradient3674" gradientTransform="matrix(1 0 0 1 -30 0)">
   <stop stop-color="#6d3c8d"/>
   <stop stop-color="#6d3c8d" stop-opacity="0" offset="1"/>
  </linearGradient>
  <radialGradient cy="45" r="8" gradientUnits="userSpaceOnUse" id="radialGradient3747" cx="48" gradientTransform="matrix(1.25 0 0 1 -12 0)">
   <stop stop-color="#513162"/>
   <stop stop-color="#340d42" offset="0.411"/>
   <stop stop-color="#0e0c0f" offset="1"/>
  </radialGradient>
  <radialGradient cy="40" r="8" gradientUnits="userSpaceOnUse" id="radialGradient3761" cx="42" gradientTransform="matrix(2 0 0 1.5 -42 -20)">
   <stop stop-color="#dcbff1"/>
   <stop stop-color="#594b88" stop-opacity="0" offset="1"/>
  </radialGradient>
  <linearGradient x2="0" y1="83" y2="48.868" gradientUnits="userSpaceOnUse" id="linearGradient3781" gradientTransform="matrix(1 0 0 1 -30 0)">
   <stop stop-color="#07060b"/>
   <stop stop-color="#37243e" offset="1"/>
  </linearGradient>
  <radialGradient cy="55" r="9" gradientUnits="userSpaceOnUse" id="radialGradient3789" cx="78" gradientTransform="matrix(1 0 0 0.44752 -30 29.414)">
   <stop stop-color="#ae96ba"/>
   <stop stop-color="#755584" offset="0.836"/>
   <stop stop-color="#664e70" stop-opacity="0" offset="1"/>
  </radialGradient>
  <linearGradient x2="0" y1="50" y2="58" gradientUnits="userSpaceOnUse" id="linearGradient3822" gradientTransform="matrix(1 0 0 0.72177 -30 13.973)">
   <stop/>
   <stop stop-opacity="0" offset="1"/>
  </linearGradient>
  <linearGradient x1="77.998" x2="87" spreadMethod="reflect" gradientUnits="userSpaceOnUse" id="linearGradient3862" gradientTransform="matrix(1 0 0 1 -30 -1)">
   <stop stop-color="#fff"/>
   <stop stop-color="#fff" stop-opacity="0" offset="1"/>
  </linearGradient>
  <linearGradient x2="0" y1="61" y2="79" gradientUnits="userSpaceOnUse" id="linearGradient3879" gradientTransform="matrix(1 0 0 1 -30 0)">
   <stop stop-color="#4d3557"/>
   <stop stop-color="#4d3557" stop-opacity="0" offset="1"/>
  </linearGradient>
  <radialGradient cy="83" r="8" xlink:href="#linearGradient3822" gradientUnits="userSpaceOnUse" id="radialGradient3889" cx="48" gradientTransform="matrix(1 0 0 0.25 0 62.25)"/>
  <clipPath clipPathUnits="userSpaceOnUse" id="clipPath3009">
   <path d="m-2 956.36h-96v33.562l96 25.687v-59.25z"/>
  </clipPath>
  <path d="m56 40a8 8 0 1 1 -16 0 8 8 0 1 1 16 0z" color="#000000" id="SVGCleanerId_0"/>
 </defs>
 <g transform="matrix(1 0 0 1 0 -956.36)">
  <rect x="2" rx="25" y="958.36" fill="url(#linearGradient11642)" height="92" width="92"/>
  <g transform="matrix(1 0 0 1 0 956.36)">
   <path d="m80 48a32 32 0 1 1 -64 0 32 32 0 1 1 64 0z" fill="url(#linearGradient3728)" color="#000000" transform="matrix(1.1562 0 0 1.1562 -7.5 -7.5)"/>
   <path d="m48 11c-20.435 0-37 16.565-37 37s16.565 37 37 37 37-16.565 37-37-16.565-37-37-37zm0 3c19.33 0 35 15.67 35 35s-15.67 35-35 35-35-15.67-35-35 15.67-35 35-35z" fill="url(#linearGradient3736)" color="#000000"/>
   <path d="m73 40a25 25 0 1 1 -50 0 25 25 0 1 1 50 0z" fill="url(#linearGradient3705)" color="#000000" transform="matrix(1 0 0 1 0 3)"/>
   <path d="m48 18c-13.807 0-25 11.193-25 25s11.193 25 25 25 25-11.193 25-25-11.193-25-25-25zm0 3c12.703 0 23 10.297 23 23s-10.297 23-23 23-23-10.297-23-23 10.297-23 23-23z" fill="url(#linearGradient3713)" color="#000000"/>
   <path d="m63 40a15 15 0 1 1 -30 0 15 15 0 1 1 30 0z" fill="url(#linearGradient3682)" color="#000000"/>
   <path d="m48 25c-8.2843 0-15 6.7157-15 15s6.7157 15 15 15 15-6.7157 15-15-6.7157-15-15-15zm0 3c7.1797 0 13 5.8203 13 13s-5.8203 13-13 13-13-5.8203-13-13 5.8203-13 13-13z" fill="url(#linearGradient3674)" color="#000000"/>
   <use xlink:href="#SVGCleanerId_0" fill="url(#radialGradient3747)"/>
   <use xlink:href="#SVGCleanerId_0" fill="url(#radialGradient3761)" transform="matrix(0 0.5 -0.75 0 78 13)"/>
   <path d="m48 32c-4.4183 0-8 3.5817-8 8s3.5817 8 8 8 8-3.5817 8-8-3.5817-8-8-8zm0 1c3.866 0 7 3.134 7 7s-3.134 7-7 7-7-3.134-7-7 3.134-7 7-7z" fill="#18061e" color="#000000"/>
   <path d="m44 83h8c2.2596 0 6-22.981 6-28 0-5-6.3454-6-10-6s-10 1-10 6c0 6 3.816 28 6 28z" fill="url(#linearGradient3781)"/>
   <path d="m57 54.028c0 2.2244-4.0294 4.0277-9 4.0277s-9-1.8033-9-4.0277c0-2.225 4.029-4.028 9-4.028 4.9706 0 9 1.8033 9 4.0277z" fill="url(#radialGradient3789)" color="#000000"/>
   <path d="m53 52.227c0 1.1073-2.2386 2.0049-5 2.0049s-5-0.89763-5-2.0049 2.2386-2.0049 5-2.0049 5 0.89763 5 2.0049z" fill="url(#linearGradient3822)" color="#000000" opacity="0.4"/>
   <path d="m39.062 53.531c-0.045 0.165-0.062 0.33-0.062 0.5 0 2.2244 4.0294 4.0312 9 4.0312s9-1.8068 9-4.0312c0-0.17056-0.01651-0.33502-0.0625-0.5-0.55377 1.9867-4.3481 3.5312-8.9375 3.5312s-8.3837-1.5445-8.9375-3.5312z" fill="url(#linearGradient3862)" color="#000000" opacity="0.6"/>
   <path d="m41.094 59.594c-0.532 0.35-0.826 1.028-0.719 1.656 0 5.6539 3 20 3 20 0.11525 0.77153 0.84492 1.403 1.625 1.4062h6c0.78008-0.0033 1.5098-0.63472 1.625-1.4062 0 0 3-13.853 3-20 0.09479-0.61822-0.19758-1.2792-0.71875-1.625-1.6509 0.88372-4.131 1.4375-6.9062 1.4375-2.7821 0-5.2554-0.58122-6.9062-1.4688z" fill="url(#linearGradient3879)"/>
   <path d="m56 83a8 2 0 1 1 -16 0 8 2 0 1 1 16 0z" fill="url(#radialGradient3889)" color="#000000" opacity="0.6" transform="matrix(1.25 0 0 1.25 -12 -21.25)"/>
  </g>
  <rect x="-96" rx="25" y="958.36" clip-path="url(#clipPath3009)" fill="#fff" height="92" opacity="0.15" width="92" transform="matrix(1 0 0 1 98 0)"/>
 </g>
</svg>
