<?xml version="1.0" encoding="UTF-8" standalone="no"?>
<!-- Created with Inkscape (http://www.inkscape.org/) -->

<svg
   xmlns:dc="http://purl.org/dc/elements/1.1/"
   xmlns:cc="http://creativecommons.org/ns#"
   xmlns:rdf="http://www.w3.org/1999/02/22-rdf-syntax-ns#"
   xmlns:svg="http://www.w3.org/2000/svg"
   xmlns="http://www.w3.org/2000/svg"
   xmlns:sodipodi="http://sodipodi.sourceforge.net/DTD/sodipodi-0.dtd"
   xmlns:inkscape="http://www.inkscape.org/namespaces/inkscape"
   id="svg11037"
   height="96"
   width="96"
   version="1.1"
   inkscape:version="0.48.5 r10040"
   sodipodi:docname="podcast.svg">
  <sodipodi:namedview
     pagecolor="#ffffff"
     bordercolor="#666666"
     borderopacity="1"
     objecttolerance="10"
     gridtolerance="10"
     guidetolerance="10"
     inkscape:pageopacity="0"
     inkscape:pageshadow="2"
     inkscape:window-width="640"
     inkscape:window-height="480"
     id="namedview28924" />
  <defs
     id="defs11039">
    <linearGradient
       id="linearGradient11642"
       y2="1046.1"
       gradientUnits="userSpaceOnUse"
       y1="962.62"
       gradientTransform="matrix(1.15 0 0 1.15 -7.1999 -150.65)"
       x2="48"
       x1="48">
      <stop
         id="stop3702"
         style="stop-color:#ddbef2"
         offset="0" />
      <stop
         id="stop3704"
         style="stop-color:#eddef7"
         offset="1" />
    </linearGradient>
    <linearGradient
       id="linearGradient3728"
       y2="75.676"
       gradientUnits="userSpaceOnUse"
       x2="51.459"
       y1="13.405"
       x1="51.459">
      <stop
         id="stop3724"
         style="stop-color:#ead7f5"
         offset="0" />
      <stop
         id="stop3726"
         style="stop-color:#fff;stop-opacity:0"
         offset="1" />
    </linearGradient>
    <linearGradient
       id="linearGradient3736"
       y2="80"
       gradientUnits="userSpaceOnUse"
       x2="112"
       gradientTransform="translate(-60)"
       y1="32"
       x1="112">
      <stop
         id="stop3732"
         style="stop-color:#b5a7c0"
         offset="0" />
      <stop
         id="stop3734"
         style="stop-color:#b5a7c0;stop-opacity:0"
         offset="1" />
    </linearGradient>
    <linearGradient
       id="linearGradient3705"
       y2="69.062"
       gradientUnits="userSpaceOnUse"
       x2="50"
       y1="37"
       x1="50">
      <stop
         id="stop3701"
         style="stop-color:#d4aeee"
         offset="0" />
      <stop
         id="stop3703"
         style="stop-color:#d9b7f0;stop-opacity:0"
         offset="1" />
    </linearGradient>
    <linearGradient
       id="linearGradient3713"
       y2="72.012"
       gradientUnits="userSpaceOnUse"
       x2="79"
       gradientTransform="translate(-30)"
       y1="31.991"
       x1="79">
      <stop
         id="stop3709"
         style="stop-color:#82619a"
         offset="0" />
      <stop
         id="stop3711"
         style="stop-color:#82619a;stop-opacity:0"
         offset="1" />
    </linearGradient>
    <linearGradient
       id="linearGradient3682"
       y2="56"
       gradientUnits="userSpaceOnUse"
       x2="48"
       y1="25"
       x1="48">
      <stop
         id="stop3678"
         style="stop-color:#ac65df"
         offset="0" />
      <stop
         id="stop3680"
         style="stop-color:#ac65df;stop-opacity:0"
         offset="1" />
    </linearGradient>
    <linearGradient
       id="linearGradient3674"
       y2="56"
       gradientUnits="userSpaceOnUse"
       x2="78"
       gradientTransform="translate(-30)"
       y1="25"
       x1="78">
      <stop
         id="stop3670"
         style="stop-color:#6d3c8d"
         offset="0" />
      <stop
         id="stop3672"
         style="stop-color:#6d3c8d;stop-opacity:0"
         offset="1" />
    </linearGradient>
    <radialGradient
       id="radialGradient3747"
       gradientUnits="userSpaceOnUse"
       cy="45"
       cx="48"
       gradientTransform="matrix(1.25,0,0,1,-12,0)"
       r="8">
      <stop
         id="stop3743"
         style="stop-color:#513162"
         offset="0" />
      <stop
         id="stop3749"
         style="stop-color:#340d42"
         offset=".41123" />
      <stop
         id="stop3745"
         style="stop-color:#0e0c0f"
         offset="1" />
    </radialGradient>
    <radialGradient
       id="radialGradient3761"
       gradientUnits="userSpaceOnUse"
       cy="40"
       cx="42"
       gradientTransform="matrix(2,0,0,1.5,-42,-20)"
       r="8">
      <stop
         id="stop3755"
         style="stop-color:#dcbff1"
         offset="0" />
      <stop
         id="stop3757"
         style="stop-color:#594b88;stop-opacity:0"
         offset="1" />
    </radialGradient>
    <linearGradient
       id="linearGradient3781"
       y2="48.868"
       gradientUnits="userSpaceOnUse"
       x2="78"
       gradientTransform="translate(-30)"
       y1="83"
       x1="78">
      <stop
         id="stop4013"
         style="stop-color:#07060b"
         offset="0" />
      <stop
         id="stop4015"
         style="stop-color:#37243e"
         offset="1" />
    </linearGradient>
    <radialGradient
       id="radialGradient3789"
       gradientUnits="userSpaceOnUse"
       cy="55"
       cx="78"
       gradientTransform="matrix(1 0 0 .44752 -30 29.414)"
       r="9">
      <stop
         id="stop3785"
         style="stop-color:#ae96ba"
         offset="0" />
      <stop
         id="stop3791"
         style="stop-color:#755584"
         offset=".83590" />
      <stop
         id="stop3787"
         style="stop-color:#664e70;stop-opacity:0"
         offset="1" />
    </radialGradient>
    <linearGradient
       id="linearGradient3822"
       y2="58"
       gradientUnits="userSpaceOnUse"
       x2="78"
       gradientTransform="matrix(1 0 0 .72177 -30 13.973)"
       y1="50"
       x1="78">
      <stop
         id="stop3818"
         offset="0" />
      <stop
         id="stop3820"
         style="stop-opacity:0"
         offset="1" />
    </linearGradient>
    <linearGradient
       id="linearGradient3862"
       y2="56.797"
       spreadMethod="reflect"
       gradientUnits="userSpaceOnUse"
       x2="87"
       gradientTransform="translate(-30,-1)"
       y1="56.797"
       x1="77.998">
      <stop
         id="stop3804"
         style="stop-color:#fff"
         offset="0" />
      <stop
         id="stop3806"
         style="stop-color:#fff;stop-opacity:0"
         offset="1" />
    </linearGradient>
    <linearGradient
       id="linearGradient3879"
       y2="79"
       gradientUnits="userSpaceOnUse"
       x2="80"
       gradientTransform="translate(-30)"
       y1="61"
       x1="80">
      <stop
         id="stop3837"
         style="stop-color:#4d3557"
         offset="0" />
      <stop
         id="stop3839"
         style="stop-color:#4d3557;stop-opacity:0"
         offset="1" />
    </linearGradient>
    <radialGradient
       id="radialGradient3889"
       gradientUnits="userSpaceOnUse"
       cy="83"
       cx="48"
       gradientTransform="matrix(1 0 0 .25 0 62.25)"
       r="8">
      <stop
         id="stop3885"
         offset="0" />
      <stop
         id="stop3887"
         style="stop-opacity:0"
         offset="1" />
    </radialGradient>
    <clipPath
       id="clipPath3009"
       clipPathUnits="userSpaceOnUse">
      <path
         id="path3011"
         style="opacity:.15;fill:#fff"
         d="m-2 956.36h-96v33.562l96 25.687v-59.25z" />
    </clipPath>
  </defs>
  <metadata
     id="metadata11042">
    <rdf:RDF>
      <cc:Work
         rdf:about="">
        <dc:format>image/svg+xml</dc:format>
        <dc:type
           rdf:resource="http://purl.org/dc/dcmitype/StillImage" />
        <dc:title />
      </cc:Work>
    </rdf:RDF>
  </metadata>
  <g
     id="layer1"
     transform="translate(0 -956.36)">
    <rect
       id="rect3867"
       style="fill:url(#linearGradient11642)"
       rx="25"
       ry="25"
       height="92"
       width="92"
       y="958.36"
       x="2" />
    <g
       id="g3115"
       transform="translate(0 956.36)">
      <g
         id="layer4">
        <path
           id="path3715"
           d="m80 48a32 32 0 1 1 -64 0 32 32 0 1 1 64 0z"
           style="color:#000000;fill:url(#linearGradient3728)"
           transform="matrix(1.1562 0 0 1.1562 -7.5 -7.5)" />
        <path
           id="path3717"
           d="m48 11c-20.435 0-37 16.565-37 37s16.565 37 37 37 37-16.565 37-37-16.565-37-37-37zm0 3c19.33 0 35 15.67 35 35s-15.67 35-35 35-35-15.67-35-35 15.67-35 35-35z"
           style="color:#000000;fill:url(#linearGradient3736)" />
        <path
           id="path3696"
           d="m73 40a25 25 0 1 1 -50 0 25 25 0 1 1 50 0z"
           style="color:#000000;fill:url(#linearGradient3705)"
           transform="translate(0,3)" />
        <path
           id="path3690"
           d="m48 18c-13.807 0-25 11.193-25 25s11.193 25 25 25 25-11.193 25-25-11.193-25-25-25zm0 3c12.703 0 23 10.297 23 23s-10.297 23-23 23-23-10.297-23-23 10.297-23 23-23z"
           style="color:#000000;fill:url(#linearGradient3713)" />
        <path
           id="path3661"
           d="m63 40a15 15 0 1 1 -30 0 15 15 0 1 1 30 0z"
           style="color:#000000;fill:url(#linearGradient3682)" />
        <path
           id="path3663"
           d="m48 25c-8.2843 0-15 6.7157-15 15s6.7157 15 15 15 15-6.7157 15-15-6.7157-15-15-15zm0 3c7.1797 0 13 5.8203 13 13s-5.8203 13-13 13-13-5.8203-13-13 5.8203-13 13-13z"
           style="color:#000000;fill:url(#linearGradient3674)" />
      </g>
      <g
         id="layer7">
        <path
           id="path3739"
           d="m56 40a8 8 0 1 1 -16 0 8 8 0 1 1 16 0z"
           style="color:#000000;fill:url(#radialGradient3747)" />
        <path
           id="path3751"
           d="m56 40a8 8 0 1 1 -16 0 8 8 0 1 1 16 0z"
           style="color:#000000;fill:url(#radialGradient3761)"
           transform="matrix(0 .5 -.75 0 78 13)" />
        <path
           id="path3763"
           d="m48 32c-4.4183 0-8 3.5817-8 8s3.5817 8 8 8 8-3.5817 8-8-3.5817-8-8-8zm0 1c3.866 0 7 3.134 7 7s-3.134 7-7 7-7-3.134-7-7 3.134-7 7-7z"
           style="color:#000000;fill:#18061e" />
        <path
           id="path3768"
           d="m44 83h8c2.2596 0 6-22.981 6-28 0-5-6.3454-6-10-6s-10 1-10 6c0 6 3.816 28 6 28z"
           style="fill:url(#linearGradient3781)" />
        <path
           id="path3771"
           d="m57 54.028c0 2.2244-4.0294 4.0277-9 4.0277s-9-1.8033-9-4.0277c0-2.225 4.029-4.028 9-4.028 4.9706 0 9 1.8033 9 4.0277z"
           style="color:#000000;fill:url(#radialGradient3789)" />
        <path
           id="path3812"
           d="m53 52.227c0 1.1073-2.2386 2.0049-5 2.0049s-5-0.89763-5-2.0049 2.2386-2.0049 5-2.0049 5 0.89763 5 2.0049z"
           style="opacity:.4;color:#000000;fill:url(#linearGradient3822)" />
        <path
           id="path3845"
           d="m39.062 53.531c-0.045 0.165-0.062 0.33-0.062 0.5 0 2.2244 4.0294 4.0312 9 4.0312s9-1.8068 9-4.0312c0-0.17056-0.01651-0.33502-0.0625-0.5-0.55377 1.9867-4.3481 3.5312-8.9375 3.5312s-8.3837-1.5445-8.9375-3.5312z"
           style="opacity:.6;color:#000000;fill:url(#linearGradient3862)" />
        <path
           id="path3866"
           d="m41.094 59.594c-0.532 0.35-0.826 1.028-0.719 1.656 0 5.6539 3 20 3 20 0.11525 0.77153 0.84492 1.403 1.625 1.4062h6c0.78008-0.0033 1.5098-0.63472 1.625-1.4062 0 0 3-13.853 3-20 0.09479-0.61822-0.19758-1.2792-0.71875-1.625-1.6509 0.88372-4.131 1.4375-6.9062 1.4375-2.7821 0-5.2554-0.58122-6.9062-1.4688z"
           style="fill:url(#linearGradient3879)" />
        <path
           id="path3881"
           d="m56 83a8 2 0 1 1 -16 0 8 2 0 1 1 16 0z"
           style="opacity:.6;color:#000000;fill:url(#radialGradient3889)"
           transform="matrix(1.25,0,0,1.25,-12,-21.25)" />
      </g>
    </g>
    <rect
       id="rect3003"
       style="opacity:.15;fill:#fff"
       transform="translate(98 3.8281e-7)"
       clip-path="url(#clipPath3009)"
       rx="25"
       ry="25"
       height="92"
       width="92"
       y="958.36"
       x="-96" />
  </g>
</svg>
