<svg height="96" width="96" xmlns="http://www.w3.org/2000/svg" xmlns:xlink="http://www.w3.org/1999/xlink" xmlns:sodipodi="http://sodipodi.sourceforge.net/DTD/sodipodi-0.dtd" xmlns:inkscape="http://www.inkscape.org/namespaces/inkscape">
 <defs>
  <linearGradient id="linearGradient4370">
   <stop stop-color="#8a5b30"/>
   <stop stop-color="#8a5b30" stop-opacity="0" offset="1"/>
  </linearGradient>
  <linearGradient id="linearGradient3737">
   <stop stop-color="#fff"/>
   <stop stop-color="#fff" stop-opacity="0" offset="1"/>
  </linearGradient>
  <filter x="-0.312" y="-0.426" height="1.853" color-interpolation-filters="sRGB" id="filter4362" width="1.623">
   <feGaussianBlur stdDeviation="6.21244"/>
  </filter>
  <linearGradient id="linearGradient4295">
   <stop stop-color="#b88f56"/>
   <stop stop-color="#d9bd98" offset="1"/>
  </linearGradient>
  <linearGradient id="linearGradient4414">
   <stop stop-color="#dac3a2"/>
   <stop stop-color="#dac3a2" stop-opacity="0" offset="1"/>
  </linearGradient>
  <linearGradient x2="0" xlink:href="#linearGradient4370" y1="38.13" y2="71.877" gradientUnits="userSpaceOnUse" id="linearGradient3603"/>
  <linearGradient x2="0" y1="90" y2="39.853" gradientUnits="userSpaceOnUse" id="linearGradient3605">
   <stop stop-color="#996c3b"/>
   <stop stop-color="#c19e6d" offset="1"/>
  </linearGradient>
  <radialGradient cy="73.15" r="42" gradientUnits="userSpaceOnUse" id="radialGradient3607" cx="48" gradientTransform="matrix(0.86776 0 0 0.09524 6.347 36.19)">
   <stop stop-color="#71461e"/>
   <stop stop-color="#71461e" stop-opacity="0" offset="1"/>
  </radialGradient>
  <linearGradient x2="0" xlink:href="#linearGradient4370" y1="38.13" y2="87.03" gradientUnits="userSpaceOnUse" id="linearGradient3609" gradientTransform="matrix(-1 0 0 1 96 0)"/>
  <linearGradient x2="0" xlink:href="#linearGradient3737" y1="40.26" y2="89.67" gradientUnits="userSpaceOnUse" id="linearGradient3611" gradientTransform="matrix(-1 0 0 1 96 0)"/>
  <linearGradient x2="0" xlink:href="#linearGradient3737" y1="40.26" y2="89.67" gradientUnits="userSpaceOnUse" id="linearGradient3613"/>
  <linearGradient x1="47.08" x2="6.596" y1="32.783" y2="9.41" gradientUnits="userSpaceOnUse" id="linearGradient3615">
   <stop stop-color="#be9f6a"/>
   <stop stop-color="#e5d2b2" offset="1"/>
  </linearGradient>
  <linearGradient x1="48" x2="6.781" xlink:href="#linearGradient4295" y1="42" y2="18.202" gradientUnits="userSpaceOnUse" id="linearGradient3617"/>
  <linearGradient x1="47.23" x2="6.33" xlink:href="#linearGradient4295" y1="29.04" y2="18.08" gradientUnits="userSpaceOnUse" id="linearGradient3619" gradientTransform="matrix(-1 0 0 1 96 0)"/>
  <linearGradient x2="0" y1="19.882" y2="47.3" gradientUnits="userSpaceOnUse" id="linearGradient3621">
   <stop stop-color="#d8cab2"/>
   <stop stop-color="#d2b98c" offset="0.457"/>
   <stop stop-color="#f9f7ef" offset="0.486"/>
   <stop stop-color="#fff" offset="0.491"/>
   <stop stop-color="#fbf9f4" offset="0.492"/>
   <stop stop-color="#efe7d0" offset="0.495"/>
   <stop stop-color="#e4d6b0" offset="0.498"/>
   <stop stop-color="#dac894" offset="0.501"/>
   <stop stop-color="#c7a572" offset="0.505"/>
   <stop stop-color="#d7c198" offset="1"/>
  </linearGradient>
  <linearGradient x1="23.14" x2="66.964" xlink:href="#linearGradient3737" y1="42" y2="6" gradientUnits="userSpaceOnUse" id="linearGradient3623"/>
  <linearGradient x2="0" xlink:href="#linearGradient4414" y1="44.04" y2="52.26" gradientUnits="userSpaceOnUse" id="linearGradient3625"/>
  <linearGradient x2="0" xlink:href="#linearGradient4414" y1="44.04" y2="52.26" gradientUnits="userSpaceOnUse" id="linearGradient3627" gradientTransform="matrix(-1 0 0 1 96.09 0)"/>
  <clipPath clipPathUnits="userSpaceOnUse" id="clipPath3629">
   <rect x="5.067" rx="23.333" y="4.133" height="85.87" width="85.87"/>
  </clipPath>
  <clipPath id="clipPath3871">
   <path d="m0 96v60h96v-60h-96zm68 20c9.9411 0 18 8.0589 18 18s-8.0589 18-18 18-18-8.0589-18-18 8.0589-18 18-18z"/>
  </clipPath>
  <linearGradient x1="51.43" x2="90.71" gradientUnits="userSpaceOnUse" id="linearGradient3483">
   <stop stop-color="#c3c3c3"/>
   <stop stop-color="#ebebeb" offset="1"/>
  </linearGradient>
  <linearGradient x2="0" xlink:href="#linearGradient3737" y1="55.31" y2="84.89" gradientUnits="userSpaceOnUse" id="linearGradient3485" gradientTransform="matrix(1 0 0 1 -2 0)"/>
  <clipPath clipPathUnits="userSpaceOnUse" id="clipPath3009">
   <path d="m-2 956.36h-96v33.562l96 25.687v-59.25z"/>
  </clipPath>
 </defs>
 <g transform="matrix(1 0 0 1 0 -956.36)">
  <g clip-path="url(#clipPath3629)" transform="matrix(1.0714 0 0 1.0714 -3.429 953.93)">
   <path d="m6 36v48c0 1.7818 0.77457 3.3717 2 4.4688v-52.469h-2z" fill="url(#linearGradient3603)"/>
   <rect x="6" rx="6" y="6" fill="url(#linearGradient3605)" height="84" width="84"/>
   <path d="m6 36v2c0 3.324 2.676 6 6 6h72c3.324 0 6-2.676 6-6v-2c0 3.324-2.676 6-6 6h-72c-3.324 0-6-2.676-6-6z" fill="url(#radialGradient3607)"/>
   <path d="m90 36v48c0 1.7818-0.77457 3.3717-2 4.4688v-52.469h2z" fill="url(#linearGradient3609)"/>
   <rect x="6" rx="6" y="18" fill="#3c2510" height="24" width="84"/>
   <path d="m88 36v52.469c-0.57686 0.51642-1.2549 0.92309-2 1.1875v-53.656h2z" fill="url(#linearGradient3611)" opacity="0.3"/>
   <path d="m8 36v52.469c0.57686 0.51642 1.2549 0.92309 2 1.1875v-53.656h-2z" fill="url(#linearGradient3613)" opacity="0.3"/>
   <path d="m12 6c-3.2266 0-6 2.2593-6 7v2 20.656l42 0.035v-29.691h-34-2z" fill="url(#linearGradient3615)"/>
   <rect x="12.753" rx="6" y="41.957" fill="#dac7a8" height="34.977" filter="url(#filter4362)" opacity="0.3" width="47.856" transform="matrix(1 0 0 0.8556 10 8.584)"/>
   <path d="m12 6c-3.324 0-6 2.676-6 6v24c0 3.324 2.676 6 6 6l36-2v-36l-36 2z" fill="url(#linearGradient3617)"/>
   <path d="m54.12 7h-12.12l0.06 24.062 0.135 28.938 5.6868-0.49473 6.0439-0.52533 0.03264-5.5512 0.10201-22.367 0.06018-24.062z" fill="#3a240f" opacity="0.5"/>
   <path d="m84 6c3.324 0 6 2.676 6 6v24c0 3.324-2.676 6-6 6l-36-2v-36l36 2z" fill="url(#linearGradient3619)"/>
   <path d="m58.191-1.3603-5.941-0.4332-5.941 0.4332 0.059 25.188 0.132 28.369l5.575-0.485 5.925-0.515 0.032-5.442 0.1-21.927 0.059-25.188z" fill="url(#linearGradient3621)" transform="matrix(1.0201 0 0 1.0201 -5.298 5.756)"/>
   <path d="m12 6c-3.324 0-6 2.676-6 6v24c0 3.324 2.676 6 6 6l36-2 36 2c3.324 0 6-2.676 6-6v-24c0-3.324-2.676-6-6-6l-36-2-36 2zm0 2 36-2 36 2c2.2458 0 4 1.7542 4 4v24c0 2.2458-1.7542 4-4 4l-36-2-36 2c-2.2458 0-4-1.754-4-4v-24c0-2.2458 1.7542-4 4-4z" fill="url(#linearGradient3623)" opacity="0.3"/>
   <rect x="47" y="4.125" fill="#8d6137" height="35.714" opacity="0.2" width="1"/>
   <rect x="48" y="4.125" fill="#fff" height="35.714" opacity="0.2" width="1"/>
   <path d="m6.1872 37.285c2.3991 5.5558 1.894 16.036 1.894 16.036l1.8309-0.252c-0.2525-8.208 0.4419-11.238 4.9879-11.365-7.1692-1.195-8.7128-4.419-8.7128-4.419z" fill="url(#linearGradient3625)" fill-rule="evenodd"/>
   <path d="m89.9 37.285c-2.3991 5.5558-1.894 16.036-1.894 16.036l-1.831-0.252c0.252-8.208-0.442-11.238-4.988-11.365 7.169-1.195 8.713-4.419 8.713-4.419z" fill="url(#linearGradient3627)" fill-rule="evenodd"/>
   <g transform="matrix(1 0 0 1 0 -2)">
    <rect x="15.5" rx="1.867" ry="2" y="49.5" fill="none" stroke="#825023" height="19" width="14"/>
    <path d="m18.25 66v-9.25h-1.25l2.5-4.75 2.5 4.75h-1.25v9.25h-2.5z" fill="#825023"/>
    <path d="m24.25 66v-9.25h-1.25l2.5-4.75 2.5 4.75h-1.25v9.25h-2.5z" fill="#825023"/>
   </g>
   <g fill="#553417">
    <path d="m15.11 81.514v-1.0737h0.14209v0.53247l0.5332-0.53247h0.19263l-0.45044 0.43506 0.47022 0.63867h-0.1875l-0.38232-0.54346-0.17578 0.17139v0.37207h-0.14209"/>
    <path d="m16.633 81.263 0.13623 0.01685c-0.02149 0.07959-0.06128 0.14136-0.11938 0.1853-0.05811 0.04395-0.13232 0.06592-0.22266 0.06592-0.11377 0-0.2041-0.03491-0.271-0.10474-0.06641-0.07031-0.09961-0.1687-0.09961-0.29517 0-0.13086 0.03369-0.23242 0.10107-0.30469 0.06738-0.07226 0.15478-0.1084 0.26221-0.1084 0.104 0.000001 0.18896 0.0354 0.25488 0.1062s0.09888 0.17041 0.09888 0.29883c-0.000001 0.0078-0.000245 0.01953-0.000733 0.03516h-0.58008c0.0049 0.08545 0.02905 0.15088 0.07251 0.19629s0.09766 0.06812 0.1626 0.06812c0.04834 0 0.0896-0.0127 0.12378-0.03809s0.06128-0.06592 0.0813-0.12158m-0.43286-0.21314h0.43433c-0.0059-0.06543-0.02246-0.1145-0.0498-0.14722-0.04199-0.05078-0.09644-0.07617-0.16333-0.07617-0.06055 0.000001-0.11157 0.02026-0.15308 0.06079-0.04102 0.04053-0.06372 0.09473-0.06812 0.1626"/>
    <path d="m17.468 81.263 0.13623 0.01685c-0.02149 0.07959-0.06128 0.14136-0.11938 0.1853-0.05811 0.04395-0.13232 0.06592-0.22266 0.06592-0.11377 0-0.2041-0.03491-0.271-0.10474-0.06641-0.07031-0.09961-0.1687-0.09961-0.29517 0-0.13086 0.03369-0.23242 0.10107-0.30469 0.06738-0.07226 0.15478-0.1084 0.26221-0.1084 0.104 0.000001 0.18896 0.0354 0.25488 0.1062s0.09888 0.17041 0.09888 0.29883c-0.000001 0.0078-0.000245 0.01953-0.000733 0.03516h-0.58008c0.0049 0.08545 0.02905 0.15088 0.07251 0.19629s0.09766 0.06812 0.1626 0.06812c0.04834 0 0.0896-0.0127 0.12378-0.03809s0.06128-0.06592 0.0813-0.12158m-0.43286-0.21314h0.43433c-0.0059-0.06543-0.02246-0.1145-0.0498-0.14722-0.04199-0.05078-0.09644-0.07617-0.16333-0.07617-0.06055 0.000001-0.11157 0.02026-0.15308 0.06079-0.04102 0.04053-0.06372 0.09473-0.06812 0.1626"/>
    <path d="m17.771 81.812v-1.0759h0.12012v0.10107c0.02832-0.03955 0.0603-0.06909 0.09595-0.08862 0.03564-0.02002 0.07886-0.03003 0.12964-0.03003 0.06641 0.000001 0.125 0.01709 0.17578 0.05127s0.08911 0.08252 0.11499 0.14502c0.02588 0.06201 0.03882 0.13013 0.03882 0.20435-0.000001 0.07959-0.01441 0.15137-0.04321 0.21533-0.02832 0.06348-0.06983 0.1123-0.12451 0.14648-0.0542 0.03369-0.11133 0.05054-0.17139 0.05054-0.04395 0-0.0835-0.0093-0.11865-0.02783-0.03467-0.01855-0.06323-0.04199-0.08569-0.07031v0.37866h-0.13184m0.11938-0.68262c0 0.1001 0.02026 0.17407 0.06079 0.22192s0.0896 0.07178 0.14722 0.07178c0.05859 0 0.10864-0.02466 0.15015-0.07398 0.04199-0.0498 0.06299-0.12671 0.06299-0.23071 0-0.09912-0.02051-0.17334-0.06152-0.22266-0.04053-0.04932-0.08911-0.07397-0.14575-0.07398-0.05615 0.000001-0.10596 0.02637-0.14941 0.0791-0.04297 0.05225-0.06445 0.12842-0.06445 0.22852"/>
    <path d="m19.022 80.592v-0.15161h0.13184v0.15161h-0.13184m0 0.92212v-0.77783h0.13184v0.77783h-0.13184"/>
    <path d="m19.356 81.514v-0.77783h0.11865v0.1106c0.05713-0.08545 0.13965-0.12817 0.24756-0.12817 0.04687 0.000001 0.08984 0.0085 0.12891 0.02564 0.03955 0.0166 0.06909 0.03857 0.08862 0.06592 0.01953 0.02734 0.0332 0.05982 0.04102 0.09741 0.0049 0.02441 0.0073 0.06714 0.0073 0.12817v0.47827h-0.13184v-0.47314c-0.000001-0.05371-0.0051-0.09375-0.01538-0.12012-0.01025-0.02685-0.02857-0.0481-0.05493-0.06372-0.02588-0.01611-0.0564-0.02417-0.09155-0.02417-0.05615 0-0.10474 0.01782-0.14575 0.05347-0.04053 0.03565-0.06079 0.10327-0.06079 0.20288v0.4248h-0.13184"/>
    <path d="m21.114 81.418c-0.04883 0.0415-0.09595 0.0708-0.14136 0.08789-0.04492 0.01709-0.09326 0.02563-0.14502 0.02563-0.08545 0-0.15112-0.02075-0.19702-0.06226-0.0459-0.04199-0.06885-0.09546-0.06885-0.1604 0-0.03809 0.0085-0.07275 0.02563-0.104 0.01758-0.03174 0.04028-0.05713 0.06812-0.07617 0.02832-0.01904 0.06006-0.03345 0.09521-0.04321 0.02588-0.0068 0.06494-0.01343 0.11719-0.01977 0.10644-0.0127 0.18481-0.02783 0.23511-0.04541 0.000488-0.01807 0.000732-0.02954 0.000733-0.03442-0.000001-0.05371-0.01245-0.09155-0.03735-0.11352-0.03369-0.02979-0.08374-0.04468-0.15015-0.04468-0.06201 0.000001-0.10791 0.01099-0.1377 0.03296-0.0293 0.02148-0.05103 0.05982-0.06519 0.11499l-0.12891-0.01758c0.01172-0.05517 0.03101-0.09961 0.05786-0.1333 0.02686-0.03418 0.06567-0.0603 0.11646-0.07837 0.05078-0.01855 0.10962-0.02783 0.17651-0.02783 0.06641 0.000001 0.12036 0.0078 0.16186 0.02344 0.0415 0.01563 0.07202 0.0354 0.09155 0.05933 0.01953 0.02344 0.0332 0.05322 0.04102 0.08935 0.0044 0.02246 0.0066 0.06299 0.0066 0.12158v0.17578c0 0.12256 0.0027 0.2002 0.0081 0.23291 0.0059 0.03223 0.01709 0.06323 0.03369 0.09302h-0.1377c-0.01367-0.02734-0.02246-0.05933-0.02637-0.09595m-0.01099-0.29443c-0.04785 0.01953-0.11963 0.03613-0.21533 0.04981-0.0542 0.0078-0.09253 0.0166-0.11499 0.02637-0.02246 0.0098-0.0398 0.02417-0.052 0.04321-0.01221 0.01855-0.01831 0.03931-0.01831 0.06226 0 0.03516 0.01318 0.06445 0.03955 0.08789 0.02686 0.02344 0.06592 0.03516 0.11719 0.03516 0.05078 0 0.09595-0.01099 0.1355-0.03296 0.03955-0.02246 0.0686-0.05298 0.08716-0.09155 0.01416-0.02978 0.02124-0.07373 0.02124-0.13184v-0.04834"/>
    <path d="m21.805 81.282 0.13037-0.02051c0.0073 0.05225 0.02759 0.09229 0.06079 0.12012 0.03369 0.02783 0.08057 0.04175 0.14062 0.04175 0.06055 0 0.10547-0.01221 0.13476-0.03662 0.0293-0.0249 0.04395-0.05395 0.04395-0.08716-0.000001-0.02979-0.01294-0.05322-0.03882-0.07031-0.01807-0.01172-0.06299-0.02661-0.13476-0.04468-0.09668-0.02441-0.16382-0.04541-0.20142-0.06299-0.03711-0.01807-0.06543-0.04272-0.08496-0.07398-0.01904-0.03174-0.02857-0.06665-0.02857-0.10474 0-0.03467 0.0078-0.06665 0.02344-0.09595 0.01611-0.02978 0.03784-0.05444 0.06518-0.07397 0.02051-0.01514 0.04834-0.02783 0.0835-0.03809 0.03564-0.01074 0.07373-0.01611 0.11426-0.01611 0.06104 0.000001 0.1145 0.0088 0.1604 0.02637 0.04639 0.01758 0.08057 0.04151 0.10254 0.07178 0.02197 0.02979 0.03711 0.06982 0.04541 0.12012l-0.12891 0.01758c-0.0059-0.04004-0.02295-0.07129-0.05127-0.09375-0.02783-0.02246-0.06738-0.03369-0.11865-0.03369-0.06055 0.000001-0.10376 0.01001-0.12964 0.03003s-0.03882 0.04346-0.03882 0.07031c0 0.01709 0.0054 0.03247 0.01611 0.04614 0.01074 0.01416 0.02759 0.02588 0.05054 0.03516 0.01318 0.0049 0.052 0.01611 0.11646 0.03369 0.09326 0.0249 0.1582 0.04541 0.19482 0.06152 0.03711 0.01563 0.06616 0.03858 0.08716 0.06885s0.03149 0.06787 0.03149 0.11279c-0.000001 0.04395-0.01294 0.08545-0.03882 0.12451-0.02539 0.03858-0.06226 0.0686-0.1106 0.09009-0.04834 0.021-0.10303 0.03149-0.16406 0.03149-0.10107 0-0.17822-0.021-0.23144-0.06299-0.05274-0.04199-0.08643-0.10425-0.10107-0.18677"/>
    <path d="m23.115 81.418c-0.04883 0.0415-0.09595 0.0708-0.14136 0.08789-0.04492 0.01709-0.09326 0.02563-0.14502 0.02563-0.08545 0-0.15112-0.02075-0.19702-0.06226-0.0459-0.04199-0.06885-0.09546-0.06885-0.1604 0-0.03809 0.0085-0.07275 0.02563-0.104 0.01758-0.03174 0.04028-0.05713 0.06812-0.07617 0.02832-0.01904 0.06006-0.03345 0.09521-0.04321 0.02588-0.0068 0.06494-0.01343 0.11719-0.01977 0.10644-0.0127 0.18481-0.02783 0.23511-0.04541 0.000488-0.01807 0.000732-0.02954 0.000732-0.03442 0-0.05371-0.01245-0.09155-0.03735-0.11352-0.03369-0.02979-0.08374-0.04468-0.15015-0.04468-0.06201 0.000001-0.10791 0.01099-0.1377 0.03296-0.0293 0.02148-0.05102 0.05982-0.06518 0.11499l-0.12891-0.01758c0.01172-0.05517 0.03101-0.09961 0.05786-0.1333 0.02686-0.03418 0.06567-0.0603 0.11646-0.07837 0.05078-0.01855 0.10962-0.02783 0.17651-0.02783 0.06641 0.000001 0.12036 0.0078 0.16187 0.02344 0.0415 0.01563 0.07202 0.0354 0.09155 0.05933 0.01953 0.02344 0.0332 0.05322 0.04102 0.08935 0.0044 0.02246 0.0066 0.06299 0.0066 0.12158v0.17578c-0.000001 0.12256 0.0027 0.2002 0.0081 0.23291 0.0059 0.03223 0.01709 0.06323 0.03369 0.09302h-0.1377c-0.01367-0.02734-0.02246-0.05933-0.02637-0.09595m-0.01099-0.29443c-0.04785 0.01953-0.11963 0.03613-0.21533 0.04981-0.0542 0.0078-0.09253 0.0166-0.11499 0.02637-0.02246 0.0098-0.03979 0.02417-0.052 0.04321-0.01221 0.01855-0.01831 0.03931-0.01831 0.06226 0 0.03516 0.01318 0.06445 0.03955 0.08789 0.02686 0.02344 0.06592 0.03516 0.11719 0.03516 0.05078 0 0.09595-0.01099 0.1355-0.03296 0.03955-0.02246 0.0686-0.05298 0.08716-0.09155 0.01416-0.02978 0.02124-0.07373 0.02124-0.13184v-0.04834"/>
    <path d="m23.474 81.514v-0.67529h-0.11646v-0.10254h0.11646v-0.08276c0-0.05224 0.0046-0.09106 0.01392-0.11646 0.0127-0.03418 0.03491-0.06177 0.06665-0.08276 0.03223-0.02148 0.07715-0.03223 0.13477-0.03223 0.03711 0.000001 0.07813 0.0044 0.12305 0.01318l-0.01977 0.11499c-0.02735-0.0049-0.05322-0.0073-0.07764-0.0073-0.04004 0.000001-0.06836 0.0085-0.08496 0.02564-0.0166 0.01709-0.0249 0.04907-0.0249 0.09595v0.07178h0.15161v0.10254h-0.15161v0.67529h-0.1311"/>
    <path d="m24.391 81.263 0.13623 0.01685c-0.02148 0.07959-0.06128 0.14136-0.11938 0.1853-0.05811 0.04395-0.13232 0.06592-0.22266 0.06592-0.11377 0-0.2041-0.03491-0.271-0.10474-0.06641-0.07031-0.09961-0.1687-0.09961-0.29517 0-0.13086 0.03369-0.23242 0.10107-0.30469 0.06738-0.07226 0.15478-0.1084 0.26221-0.1084 0.104 0.000001 0.18896 0.0354 0.25488 0.1062s0.09888 0.17041 0.09888 0.29883c0 0.0078-0.000245 0.01953-0.000732 0.03516h-0.58008c0.0049 0.08545 0.02905 0.15088 0.07251 0.19629s0.09766 0.06812 0.1626 0.06812c0.04834 0 0.0896-0.0127 0.12378-0.03809s0.06128-0.06592 0.0813-0.12158m-0.43286-0.21314h0.43433c-0.0059-0.06543-0.02246-0.1145-0.0498-0.14722-0.04199-0.05078-0.09644-0.07617-0.16333-0.07617-0.06055 0.000001-0.11157 0.02026-0.15308 0.06079-0.04102 0.04053-0.06372 0.09473-0.06811 0.1626"/>
    <path d="m25.11 81.812v-1.0759h0.12012v0.10107c0.02832-0.03955 0.0603-0.06909 0.09595-0.08862 0.03564-0.02002 0.07886-0.03003 0.12964-0.03003 0.06641 0.000001 0.125 0.01709 0.17578 0.05127s0.08911 0.08252 0.11499 0.14502c0.02588 0.06201 0.03882 0.13013 0.03882 0.20435-0.000001 0.07959-0.01441 0.15137-0.04321 0.21533-0.02832 0.06348-0.06983 0.1123-0.12451 0.14648-0.0542 0.03369-0.11133 0.05054-0.17139 0.05054-0.04395 0-0.0835-0.0093-0.11865-0.02783-0.03467-0.01855-0.06323-0.04199-0.08569-0.07031v0.37866h-0.13184m0.11938-0.68262c0 0.1001 0.02026 0.17407 0.06079 0.22192s0.0896 0.07178 0.14722 0.07178c0.05859 0 0.10864-0.02466 0.15015-0.07398 0.04199-0.0498 0.06299-0.12671 0.06299-0.23071 0-0.09912-0.02051-0.17334-0.06152-0.22266-0.04053-0.04932-0.08911-0.07397-0.14575-0.07398-0.05615 0.000001-0.10596 0.02637-0.14941 0.0791-0.04297 0.05225-0.06445 0.12842-0.06445 0.22852"/>
    <path d="m25.942 81.514v-1.0737h0.13184v1.0737h-0.13184"/>
    <path d="m26.786 81.418c-0.04883 0.0415-0.09595 0.0708-0.14136 0.08789-0.04492 0.01709-0.09326 0.02563-0.14502 0.02563-0.08545 0-0.15112-0.02075-0.19702-0.06226-0.0459-0.04199-0.06885-0.09546-0.06885-0.1604 0-0.03809 0.0085-0.07275 0.02563-0.104 0.01758-0.03174 0.04028-0.05713 0.06812-0.07617 0.02832-0.01904 0.06006-0.03345 0.09521-0.04321 0.02588-0.0068 0.06494-0.01343 0.11719-0.01977 0.10644-0.0127 0.18481-0.02783 0.23511-0.04541 0.000488-0.01807 0.000732-0.02954 0.000733-0.03442-0.000001-0.05371-0.01245-0.09155-0.03735-0.11352-0.03369-0.02979-0.08374-0.04468-0.15015-0.04468-0.06201 0.000001-0.10791 0.01099-0.1377 0.03296-0.0293 0.02148-0.05103 0.05982-0.06519 0.11499l-0.12891-0.01758c0.01172-0.05517 0.03101-0.09961 0.05786-0.1333 0.02686-0.03418 0.06567-0.0603 0.11646-0.07837 0.05078-0.01855 0.10962-0.02783 0.17651-0.02783 0.06641 0.000001 0.12036 0.0078 0.16186 0.02344 0.0415 0.01563 0.07202 0.0354 0.09155 0.05933 0.01953 0.02344 0.0332 0.05322 0.04102 0.08935 0.0044 0.02246 0.0066 0.06299 0.0066 0.12158v0.17578c0 0.12256 0.0027 0.2002 0.0081 0.23291 0.0059 0.03223 0.01709 0.06323 0.03369 0.09302h-0.1377c-0.01367-0.02734-0.02246-0.05933-0.02637-0.09595m-0.01099-0.29443c-0.04785 0.01953-0.11963 0.03613-0.21533 0.04981-0.0542 0.0078-0.09253 0.0166-0.11499 0.02637-0.02246 0.0098-0.0398 0.02417-0.052 0.04321-0.01221 0.01855-0.01831 0.03931-0.01831 0.06226 0 0.03516 0.01318 0.06445 0.03955 0.08789 0.02686 0.02344 0.06592 0.03516 0.11719 0.03516 0.05078 0 0.09595-0.01099 0.1355-0.03296 0.03955-0.02246 0.0686-0.05298 0.08716-0.09155 0.01416-0.02978 0.02124-0.07373 0.02124-0.13184v-0.04834"/>
    <path d="m27.621 81.229 0.12964 0.01685c-0.01416 0.08936-0.05054 0.15942-0.10913 0.2102-0.05811 0.05029-0.12964 0.07544-0.2146 0.07544-0.10645 0-0.19214-0.03467-0.25708-0.104-0.06445-0.06982-0.09668-0.16968-0.09668-0.29956 0-0.08398 0.01392-0.15747 0.04175-0.22046s0.07007-0.11011 0.12671-0.14136c0.05713-0.03174 0.11914-0.04761 0.18604-0.04761 0.08447 0.000001 0.15356 0.02149 0.20728 0.06445 0.05371 0.04248 0.08813 0.10303 0.10327 0.18164l-0.12817 0.01978c-0.01221-0.05224-0.03394-0.09155-0.06518-0.11792-0.03076-0.02637-0.06812-0.03955-0.11206-0.03955-0.06641 0.000001-0.12036 0.02393-0.16186 0.07178-0.0415 0.04736-0.06226 0.12256-0.06226 0.22559 0 0.10449 0.02002 0.18042 0.06006 0.22778s0.09229 0.07104 0.15674 0.07104c0.05176 0 0.09497-0.01587 0.12964-0.04761s0.05664-0.08057 0.06592-0.14648"/>
    <path d="m28.396 81.263 0.13623 0.01685c-0.02149 0.07959-0.06128 0.14136-0.11938 0.1853-0.05811 0.04395-0.13232 0.06592-0.22266 0.06592-0.11377 0-0.2041-0.03491-0.271-0.10474-0.06641-0.07031-0.09961-0.1687-0.09961-0.29517 0-0.13086 0.03369-0.23242 0.10107-0.30469 0.06738-0.07226 0.15478-0.1084 0.26221-0.1084 0.104 0.000001 0.18896 0.0354 0.25488 0.1062s0.09888 0.17041 0.09888 0.29883c-0.000001 0.0078-0.000245 0.01953-0.000732 0.03516h-0.58008c0.0049 0.08545 0.02905 0.15088 0.07251 0.19629s0.09766 0.06812 0.1626 0.06812c0.04834 0 0.0896-0.0127 0.12378-0.03809s0.06128-0.06592 0.0813-0.12158m-0.43286-0.21314h0.43433c-0.0059-0.06543-0.02246-0.1145-0.0498-0.14722-0.04199-0.05078-0.09644-0.07617-0.16333-0.07617-0.06055 0.000001-0.11157 0.02026-0.15308 0.06079-0.04102 0.04053-0.06372 0.09473-0.06811 0.1626"/>
    <path d="m16.077 83.389h-0.23584l-0.09375-0.2439h-0.4292l-0.08862 0.2439h-0.22998l0.41821-1.0737h0.22925l0.42993 1.0737m-0.39917-0.4248-0.14795-0.39844-0.14502 0.39844h0.29297"/>
    <path d="m16.905 83.389h-0.19116v-0.11426c-0.03174 0.04443-0.06934 0.07764-0.11279 0.09961-0.04297 0.02148-0.08643 0.03223-0.13037 0.03223-0.08936 0-0.16602-0.03589-0.22998-0.10767-0.06348-0.07227-0.09521-0.17285-0.09521-0.30176 0-0.13184 0.03101-0.23193 0.09302-0.30029 0.06201-0.06885 0.14038-0.10327 0.23511-0.10327 0.08691 0.000001 0.16211 0.03613 0.22559 0.1084v-0.38672h0.20581v1.0737m-0.54932-0.40576c0 0.08301 0.01147 0.14307 0.03442 0.18018 0.0332 0.05371 0.07959 0.08057 0.13916 0.08057 0.04736 0 0.08765-0.02002 0.12085-0.06006 0.0332-0.04053 0.0498-0.10083 0.0498-0.18091 0-0.08935-0.01611-0.15356-0.04834-0.19263-0.03223-0.03955-0.07349-0.05933-0.12378-0.05933-0.04883 0-0.08984 0.01953-0.12305 0.05859-0.03271 0.03858-0.04907 0.09644-0.04907 0.17358"/>
    <path d="m17.093 82.611h0.1897v0.1062c0.06787-0.08252 0.14868-0.12378 0.24243-0.12378 0.0498 0.000001 0.09302 0.01026 0.12964 0.03076 0.03662 0.02051 0.06665 0.05151 0.09009 0.09302 0.03418-0.0415 0.07104-0.07251 0.1106-0.09302 0.03955-0.02051 0.08179-0.03076 0.12671-0.03076 0.05713 0.000001 0.10547 0.01172 0.14502 0.03516 0.03955 0.02295 0.06909 0.05689 0.08862 0.10181 0.01416 0.0332 0.02124 0.08691 0.02124 0.16113v0.49731h-0.20581v-0.44458c-0.000001-0.07715-0.0071-0.12695-0.02124-0.14941-0.01904-0.0293-0.04834-0.04395-0.08789-0.04395-0.02881 0-0.05591 0.0088-0.0813 0.02637-0.02539 0.01758-0.0437 0.04346-0.05493 0.07764-0.01123 0.03369-0.01685 0.08716-0.01685 0.1604v0.37354h-0.20581v-0.42627c-0.000001-0.07568-0.0037-0.12451-0.01099-0.14648-0.0073-0.02197-0.0188-0.03833-0.03442-0.04907-0.01514-0.01074-0.03589-0.01611-0.06226-0.01611-0.03174 0-0.0603 0.0085-0.08569 0.02563-0.02539 0.01709-0.0437 0.04175-0.05493 0.07397-0.01074 0.03223-0.01611 0.08569-0.01611 0.1604v0.37793h-0.20581v-0.77783"/>
    <path d="m18.442 82.506v-0.19043h0.20581v0.19043h-0.20581m0 0.8833v-0.77783h0.20581v0.77783h-0.20581"/>
    <path d="m19.565 83.389h-0.20581v-0.39697c-0.000001-0.08398-0.0044-0.13818-0.01318-0.1626-0.0088-0.0249-0.02319-0.04419-0.04321-0.05786-0.01953-0.01367-0.04321-0.02051-0.07105-0.02051-0.03564 0-0.06763 0.0098-0.09595 0.0293-0.02832 0.01953-0.04785 0.04541-0.05859 0.07764-0.01026 0.03223-0.01538 0.0918-0.01538 0.17871v0.3523h-0.20581v-0.77783h0.19116v0.11426c0.06787-0.08789 0.15332-0.13184 0.25635-0.13184 0.04541 0.000001 0.08691 0.0083 0.12451 0.0249 0.0376 0.01611 0.06592 0.03687 0.08496 0.06226 0.01953 0.02539 0.03296 0.0542 0.04028 0.08643 0.0078 0.03223 0.01172 0.07837 0.01172 0.13843v0.4834"/>
    <path d="m19.775 82.506v-0.19043h0.20581v0.19043h-0.20581m0 0.8833v-0.77783h0.20581v0.77783h-0.20581"/>
    <path d="m20.118 83.167 0.20654-0.03149c0.0088 0.04004 0.02661 0.07056 0.05347 0.09155 0.02685 0.02051 0.06445 0.03076 0.11279 0.03076 0.05322 0 0.09326-0.0098 0.12012-0.0293 0.01807-0.01367 0.0271-0.03198 0.0271-0.05493-0.000001-0.01563-0.0049-0.02856-0.01465-0.03882-0.01025-0.0098-0.0332-0.0188-0.06885-0.0271-0.16602-0.03662-0.27124-0.07007-0.31567-0.10034-0.06152-0.04199-0.09229-0.10034-0.09229-0.17505-0.000001-0.06738 0.02661-0.12402 0.07983-0.16992s0.13574-0.06885 0.24756-0.06885c0.10644 0.000001 0.18555 0.01734 0.2373 0.052 0.05176 0.03467 0.0874 0.08594 0.10693 0.15381l-0.19409 0.03589c-0.0083-0.03027-0.02417-0.05347-0.04761-0.06958-0.02295-0.01611-0.05591-0.02417-0.09888-0.02417-0.0542 0.000001-0.09302 0.0076-0.11646 0.0227-0.01563 0.01074-0.02344 0.02466-0.02344 0.04175-0.000001 0.01465 0.0068 0.0271 0.02051 0.03735 0.01855 0.01367 0.08252 0.03296 0.1919 0.05786 0.10986 0.0249 0.18652 0.05542 0.22998 0.09155 0.04297 0.03662 0.06445 0.08765 0.06445 0.15308-0.000001 0.07129-0.02979 0.13257-0.08936 0.18384s-0.14771 0.0769-0.2644 0.0769c-0.10596 0-0.18994-0.02148-0.25195-0.06445-0.06152-0.04297-0.10181-0.10132-0.12085-0.17505"/>
    <path d="m21.382 82.611v0.16406h-0.14062v0.31348c0 0.06348 0.0012 0.10059 0.0037 0.11133 0.0029 0.01025 0.009 0.0188 0.01831 0.02563 0.0098 0.0068 0.02148 0.01025 0.03516 0.01025 0.01904 0 0.04663-0.0066 0.08276-0.01977l0.01758 0.15967c-0.04785 0.02051-0.10205 0.03076-0.1626 0.03076-0.03711 0-0.07056-0.0061-0.10034-0.01831-0.02979-0.0127-0.05176-0.02881-0.06592-0.04834-0.01367-0.02002-0.02319-0.04687-0.02856-0.08057-0.0044-0.02393-0.0066-0.07227-0.0066-0.14502v-0.33911h-0.09448v-0.16406h0.09448v-0.15454l0.20654-0.12012v0.27466h0.14062"/>
    <path d="m21.724 83.389h-0.20581v-0.77783h0.19116v0.1106c0.03271-0.05225 0.06201-0.08667 0.08789-0.10327 0.02637-0.0166 0.05615-0.0249 0.08936-0.0249 0.04687 0.000001 0.09204 0.01294 0.1355 0.03882l-0.06372 0.17944c-0.03467-0.02246-0.06689-0.03369-0.09668-0.03369-0.02881 0.000001-0.05322 0.0081-0.07324 0.02417-0.02002 0.01563-0.03589 0.04419-0.04761 0.08569-0.01123 0.0415-0.01685 0.12842-0.01685 0.26074v0.24023"/>
    <path d="m22.263 82.848-0.18677-0.03369c0.021-0.07519 0.05713-0.13086 0.1084-0.16699s0.12744-0.0542 0.22852-0.0542c0.0918 0.000001 0.16016 0.01099 0.20508 0.03296 0.04492 0.02148 0.07642 0.04907 0.09448 0.08276 0.01855 0.0332 0.02783 0.09448 0.02783 0.18384l-0.0022 0.24023c-0.000001 0.06836 0.0032 0.1189 0.0095 0.15161 0.0068 0.03223 0.01929 0.0669 0.03735 0.104h-0.20361c-0.0054-0.01367-0.01196-0.03393-0.01977-0.06079-0.0034-0.01221-0.0059-0.02026-0.0073-0.02417-0.03516 0.03418-0.07276 0.05982-0.11279 0.0769-0.04004 0.01709-0.08276 0.02563-0.12817 0.02563-0.08008 0-0.14331-0.02173-0.1897-0.06518-0.0459-0.04346-0.06885-0.09839-0.06885-0.1648 0-0.04395 0.0105-0.08301 0.03149-0.11719 0.021-0.03467 0.05029-0.06103 0.08789-0.0791 0.03809-0.01855 0.09277-0.03467 0.16406-0.04834 0.09619-0.01807 0.16284-0.03491 0.19995-0.05054v-0.02051c0-0.03955-0.0098-0.06763-0.0293-0.08423-0.01953-0.01709-0.0564-0.02563-0.1106-0.02563-0.03662 0-0.06519 0.0073-0.08569 0.02197-0.02051 0.01416-0.03711 0.03931-0.0498 0.07544m0.27539 0.16699c-0.02637 0.0088-0.06811 0.01929-0.12524 0.03149-0.05713 0.01221-0.09448 0.02417-0.11206 0.03589-0.02686 0.01904-0.04028 0.04321-0.04028 0.07251 0 0.02881 0.01074 0.05371 0.03223 0.07471 0.02148 0.021 0.04883 0.03149 0.08203 0.03149 0.03711 0 0.07251-0.01221 0.1062-0.03662 0.0249-0.01855 0.04126-0.04126 0.04907-0.06812 0.0054-0.01758 0.0081-0.05102 0.0081-0.10034v-0.04102"/>
    <path d="m23.301 82.611v0.16406h-0.14062v0.31348c-0.000001 0.06348 0.0012 0.10059 0.0037 0.11133 0.0029 0.01025 0.009 0.0188 0.01831 0.02563 0.0098 0.0068 0.02148 0.01025 0.03516 0.01025 0.01904 0 0.04663-0.0066 0.08276-0.01977l0.01758 0.15967c-0.04785 0.02051-0.10205 0.03076-0.1626 0.03076-0.03711 0-0.07056-0.0061-0.10034-0.01831-0.02979-0.0127-0.05176-0.02881-0.06592-0.04834-0.01367-0.02002-0.02319-0.04687-0.02857-0.08057-0.0044-0.02393-0.0066-0.07227-0.0066-0.14502v-0.33911h-0.09448v-0.16406h0.09448v-0.15454l0.20654-0.12012v0.27466h0.14062"/>
    <path d="m23.398 82.989c0-0.06836 0.01685-0.13452 0.05054-0.19849 0.03369-0.06396 0.0813-0.11279 0.14282-0.14648 0.06201-0.03369 0.1311-0.05054 0.20728-0.05054 0.11768 0.000001 0.21411 0.03833 0.28931 0.11499 0.07519 0.07617 0.11279 0.17261 0.11279 0.28931-0.000001 0.11768-0.03809 0.21533-0.11426 0.29297-0.07568 0.07715-0.17114 0.11572-0.28638 0.11572-0.07129 0-0.1394-0.01611-0.20435-0.04834-0.06445-0.03223-0.11352-0.07935-0.14722-0.14136-0.03369-0.0625-0.05054-0.13843-0.05054-0.22778m0.21094 0.01099c-0.000001 0.07715 0.01831 0.13623 0.05493 0.17725s0.08179 0.06152 0.1355 0.06152 0.09863-0.02051 0.13477-0.06152c0.03662-0.04102 0.05493-0.10058 0.05493-0.17871-0.000001-0.07617-0.01831-0.13476-0.05493-0.17578-0.03613-0.04102-0.08105-0.06152-0.13477-0.06152-0.05371 0-0.09888 0.02051-0.1355 0.06152-0.03662 0.04102-0.05493 0.1001-0.05493 0.17725"/>
    <path d="m24.56 83.389h-0.20581v-0.77783h0.19116v0.1106c0.03271-0.05225 0.06201-0.08667 0.08789-0.10327 0.02637-0.0166 0.05615-0.0249 0.08936-0.0249 0.04687 0.000001 0.09204 0.01294 0.1355 0.03882l-0.06372 0.17944c-0.03467-0.02246-0.0669-0.03369-0.09668-0.03369-0.02881 0.000001-0.05322 0.0081-0.07324 0.02417-0.02002 0.01563-0.03589 0.04419-0.04761 0.08569-0.01123 0.0415-0.01685 0.12842-0.01685 0.26074v0.24023"/>
    <path d="m24.873 83.167 0.20654-0.03149c0.0088 0.04004 0.02661 0.07056 0.05347 0.09155 0.02685 0.02051 0.06445 0.03076 0.11279 0.03076 0.05322 0 0.09326-0.0098 0.12012-0.0293 0.01807-0.01367 0.0271-0.03198 0.0271-0.05493 0-0.01563-0.0049-0.02856-0.01465-0.03882-0.01025-0.0098-0.0332-0.0188-0.06885-0.0271-0.16602-0.03662-0.27124-0.07007-0.31567-0.10034-0.06152-0.04199-0.09229-0.10034-0.09229-0.17505 0-0.06738 0.02661-0.12402 0.07983-0.16992s0.13574-0.06885 0.24756-0.06885c0.10644 0.000001 0.18555 0.01734 0.2373 0.052 0.05176 0.03467 0.0874 0.08594 0.10693 0.15381l-0.19409 0.03589c-0.0083-0.03027-0.02417-0.05347-0.04761-0.06958-0.02295-0.01611-0.05591-0.02417-0.09888-0.02417-0.0542 0.000001-0.09302 0.0076-0.11646 0.0227-0.01563 0.01074-0.02344 0.02466-0.02344 0.04175 0 0.01465 0.0068 0.0271 0.02051 0.03735 0.01855 0.01367 0.08252 0.03296 0.1919 0.05786 0.10986 0.0249 0.18652 0.05542 0.22998 0.09155 0.04297 0.03662 0.06445 0.08765 0.06445 0.15308 0 0.07129-0.02979 0.13257-0.08936 0.18384s-0.14771 0.0769-0.2644 0.0769c-0.10596 0-0.18994-0.02148-0.25195-0.06445-0.06152-0.04297-0.10181-0.10132-0.12085-0.17505"/>
    <path d="m26.149 82.989c0-0.06836 0.01685-0.13452 0.05054-0.19849 0.03369-0.06396 0.0813-0.11279 0.14282-0.14648 0.06201-0.03369 0.1311-0.05054 0.20728-0.05054 0.11768 0.000001 0.21411 0.03833 0.28931 0.11499 0.0752 0.07617 0.11279 0.17261 0.11279 0.28931-0.000001 0.11768-0.03809 0.21533-0.11426 0.29297-0.07568 0.07715-0.17114 0.11572-0.28638 0.11572-0.07129 0-0.1394-0.01611-0.20434-0.04834-0.06445-0.03223-0.11353-0.07935-0.14722-0.14136-0.03369-0.0625-0.05054-0.13843-0.05054-0.22778m0.21094 0.01099c0 0.07715 0.01831 0.13623 0.05493 0.17725s0.08179 0.06152 0.1355 0.06152 0.09863-0.02051 0.13477-0.06152c0.03662-0.04102 0.05493-0.10058 0.05493-0.17871 0-0.07617-0.01831-0.13476-0.05493-0.17578-0.03613-0.04102-0.08106-0.06152-0.13477-0.06152s-0.09888 0.02051-0.1355 0.06152c-0.03662 0.04102-0.05493 0.1001-0.05493 0.17725"/>
    <path d="m27.821 83.389h-0.20581v-0.39697c0-0.08398-0.0044-0.13818-0.01318-0.1626-0.0088-0.0249-0.02319-0.04419-0.04321-0.05786-0.01953-0.01367-0.04321-0.02051-0.07105-0.02051-0.03564 0-0.06763 0.0098-0.09595 0.0293-0.02832 0.01953-0.04785 0.04541-0.05859 0.07764-0.01025 0.03223-0.01538 0.0918-0.01538 0.17871v0.3523h-0.20581v-0.77783h0.19116v0.11426c0.06787-0.08789 0.15332-0.13184 0.25635-0.13184 0.04541 0.000001 0.08691 0.0083 0.12451 0.0249 0.0376 0.01611 0.06592 0.03687 0.08496 0.06226 0.01953 0.02539 0.03296 0.0542 0.04028 0.08643 0.0078 0.03223 0.01172 0.07837 0.01172 0.13843v0.4834"/>
    <path d="m28.031 83.389v-1.0737h0.20581v1.0737h-0.20581"/>
    <path d="m28.349 82.611h0.21899l0.18604 0.55225 0.18164-0.55225h0.21314l-0.27466 0.74854-0.04907 0.1355c-0.01807 0.04541-0.0354 0.08008-0.052 0.104-0.01611 0.02393-0.03491 0.04321-0.0564 0.05786-0.021 0.01514-0.04712 0.02685-0.07837 0.03516-0.03076 0.0083-0.06567 0.01245-0.10474 0.01245-0.03955 0-0.07837-0.0042-0.11646-0.01245l-0.01831-0.16113c0.03223 0.0063 0.06128 0.0095 0.08716 0.0095 0.04785 0 0.08325-0.01416 0.1062-0.04248 0.02295-0.02783 0.04053-0.06348 0.05273-0.10693l-0.2959-0.78003"/>
   </g>
   <g fill="#553417">
    <path d="m15.052 78.159 0.31567-0.01978c0.0068 0.05127 0.02075 0.09033 0.04175 0.11719 0.03418 0.04346 0.08301 0.06518 0.14648 0.06518 0.04736 0 0.08374-0.01099 0.10913-0.03296 0.02588-0.02246 0.03882-0.04834 0.03882-0.07764 0-0.02783-0.01221-0.05273-0.03662-0.07471-0.02441-0.02197-0.08106-0.04272-0.16992-0.06226-0.14551-0.03271-0.24927-0.07617-0.31128-0.13037-0.0625-0.0542-0.09375-0.12329-0.09375-0.20728 0-0.05517 0.01587-0.10718 0.04761-0.15601 0.03223-0.04932 0.08032-0.08789 0.14429-0.11572 0.06445-0.02832 0.15259-0.04248 0.2644-0.04248 0.13721 0.000001 0.2417 0.02564 0.31348 0.0769 0.07226 0.05078 0.11523 0.13184 0.12891 0.24316l-0.31274 0.01831c-0.0083-0.04834-0.02588-0.0835-0.05273-0.10547-0.02637-0.02197-0.06299-0.03296-0.10986-0.03296-0.03857 0.000001-0.06763 0.0083-0.08716 0.0249-0.01953 0.01611-0.0293 0.03589-0.0293 0.05933 0 0.01709 0.0081 0.03247 0.02417 0.04614 0.01562 0.01416 0.05273 0.02734 0.11133 0.03955 0.14502 0.03125 0.24878 0.06299 0.31128 0.09521 0.06299 0.03174 0.10864 0.07129 0.13696 0.11865 0.02881 0.04736 0.04321 0.10034 0.04321 0.15894-0.000001 0.06885-0.01904 0.13232-0.05713 0.19043-0.03809 0.0581-0.09131 0.1023-0.15967 0.13257-0.06836 0.02978-0.15454 0.04468-0.25854 0.04468-0.18262 0-0.30908-0.03516-0.37939-0.10547s-0.11011-0.15967-0.11938-0.26807"/>
    <path d="m16.137 78.127c0-0.11865 0.04004-0.21631 0.12012-0.29297 0.08008-0.07715 0.18823-0.11572 0.32446-0.11572 0.15576 0.000001 0.27344 0.04517 0.35303 0.1355 0.06396 0.07275 0.09595 0.16235 0.09595 0.2688-0.000001 0.11963-0.0398 0.21777-0.11938 0.29443-0.0791 0.07617-0.18872 0.11426-0.32886 0.11426-0.125 0-0.22608-0.03174-0.30322-0.09521-0.09473-0.07861-0.14209-0.18164-0.14209-0.30908m0.29883-0.000732c0 0.06934 0.01392 0.12061 0.04175 0.15381 0.02832 0.0332 0.06372 0.0498 0.1062 0.0498 0.04297 0 0.07812-0.01636 0.10547-0.04907 0.02783-0.03271 0.04175-0.0852 0.04175-0.15747 0-0.06738-0.01392-0.11743-0.04175-0.15015-0.02783-0.0332-0.06226-0.0498-0.10327-0.04981-0.04346 0.000001-0.07935 0.01685-0.10767 0.05054-0.02832 0.0332-0.04248 0.08398-0.04248 0.15234"/>
    <path d="m17.508 77.736h0.14209v0.21826h-0.14209v0.55957h-0.29883v-0.55957h-0.11133v-0.21826h0.11133v-0.03516c0-0.03174 0.0034-0.06665 0.01025-0.10474 0.0068-0.03809 0.01953-0.06909 0.03809-0.09302 0.01904-0.02441 0.04541-0.04394 0.0791-0.05859 0.03418-0.01514 0.08398-0.0227 0.14941-0.02271 0.05224 0.000001 0.12817 0.0061 0.22778 0.01831l-0.03296 0.18018c-0.03564-0.0059-0.06445-0.0088-0.08643-0.0088-0.02686 0.000001-0.04614 0.0046-0.05786 0.01392-0.01172 0.0088-0.02002 0.02295-0.0249 0.04248-0.0024 0.01074-0.0037 0.03345-0.0037 0.06811"/>
    <path d="m18.119 77.44v0.2959h0.16406v0.21753h-0.16406v0.27612c0 0.0332 0.0032 0.05518 0.0095 0.06592 0.0098 0.0166 0.02685 0.0249 0.05127 0.0249 0.02197 0 0.05273-0.0063 0.09229-0.01904l0.02197 0.20581c-0.07373 0.01611-0.14258 0.02417-0.20654 0.02417-0.07422 0-0.12891-0.0095-0.16406-0.02856-0.03516-0.01904-0.06128-0.04785-0.07837-0.08643-0.0166-0.03906-0.0249-0.10205-0.0249-0.18896v-0.27393h-0.10986v-0.21753h0.10986v-0.14282l0.29883-0.15308"/>
    <path d="m18.336 77.736h0.28857l0.12524 0.48999 0.1582-0.48999h0.2688l0.16406 0.48999 0.12524-0.48999h0.28638l-0.28638 0.77783h-0.26514l-0.15747-0.46802-0.15234 0.46802h-0.2666l-0.28857-0.77783"/>
    <path d="m20.093 77.988-0.28491-0.03003c0.01074-0.0498 0.02612-0.08887 0.04614-0.11719 0.02051-0.02881 0.0498-0.05371 0.08789-0.07471 0.02734-0.01514 0.06494-0.02685 0.11279-0.03516 0.04785-0.0083 0.09961-0.01245 0.15527-0.01245 0.08936 0.000001 0.16113 0.0051 0.21533 0.01538 0.0542 0.0098 0.09936 0.03052 0.1355 0.06226 0.02539 0.02197 0.04541 0.05322 0.06006 0.09375 0.01465 0.04004 0.02197 0.07837 0.02197 0.11499v0.34351c-0.000001 0.03662 0.0022 0.06543 0.0066 0.08643 0.0049 0.02051 0.01514 0.04687 0.03076 0.0791h-0.27978c-0.01123-0.02002-0.01855-0.03516-0.02197-0.04541-0.0034-0.01074-0.0068-0.02734-0.01025-0.0498-0.03906 0.0376-0.07788 0.06445-0.11646 0.08057-0.05273 0.02148-0.11401 0.03223-0.18384 0.03223-0.09277 0-0.16333-0.02148-0.21167-0.06445-0.04785-0.04297-0.07178-0.09595-0.07178-0.15894 0-0.05908 0.01733-0.10767 0.052-0.14575 0.03467-0.03809 0.09863-0.06641 0.1919-0.08496 0.11182-0.02246 0.18432-0.03809 0.21753-0.04687 0.0332-0.0093 0.06836-0.02124 0.10547-0.03589-0.000001-0.03662-0.0076-0.06226-0.02271-0.0769-0.01514-0.01465-0.04175-0.02197-0.07983-0.02197-0.04883 0.000001-0.08545 0.0078-0.10986 0.02344-0.01904 0.01221-0.03442 0.03516-0.04614 0.06885m0.25854 0.15674c-0.04102 0.01465-0.08374 0.02759-0.12817 0.03882-0.06055 0.01611-0.09888 0.03198-0.11499 0.04761-0.0166 0.01611-0.0249 0.03442-0.0249 0.05493 0 0.02344 0.0081 0.04273 0.02417 0.05786 0.0166 0.01465 0.04077 0.02197 0.07251 0.02197 0.0332 0 0.06396-0.0081 0.09228-0.02417 0.02881-0.01611 0.04907-0.03564 0.06079-0.05859 0.01221-0.02344 0.01831-0.05371 0.01831-0.09082v-0.04761"/>
    <path d="m20.826 77.736h0.27905v0.12744c0.02686-0.05518 0.05444-0.09302 0.08276-0.11353 0.02881-0.02099 0.06421-0.03149 0.1062-0.03149 0.04394 0.000001 0.09204 0.01367 0.14429 0.04102l-0.09229 0.2124c-0.03516-0.01465-0.06299-0.02197-0.0835-0.02197-0.03906 0.000001-0.06934 0.01611-0.09082 0.04834-0.03076 0.04541-0.04614 0.13037-0.04614 0.25488v0.26074h-0.29956v-0.77783"/>
    <path d="m22.375 78.199h-0.59766c0.0054 0.04785 0.01831 0.0835 0.03882 0.10693 0.02881 0.03369 0.06641 0.05054 0.11279 0.05054 0.0293 0.000001 0.05713-0.0073 0.0835-0.02197 0.01611-0.0093 0.03345-0.02564 0.052-0.04907l0.2937 0.0271c-0.04492 0.07813-0.09912 0.13428-0.1626 0.16846-0.06348 0.03369-0.15454 0.05054-0.27319 0.05054-0.10303 0-0.18408-0.0144-0.24316-0.04321-0.05908-0.0293-0.10815-0.07544-0.14722-0.13843-0.03858-0.06348-0.05786-0.13794-0.05786-0.22339 0-0.12158 0.03882-0.21997 0.11646-0.29517 0.07813-0.0752 0.18579-0.11279 0.323-0.11279 0.11133 0.000001 0.19922 0.01685 0.26367 0.05054s0.11352 0.08252 0.14722 0.14648c0.03369 0.06397 0.05054 0.14722 0.05054 0.24976v0.03369m-0.303-0.143c-0.0059-0.05762-0.02148-0.09888-0.04687-0.12378-0.0249-0.0249-0.05786-0.03735-0.09888-0.03735-0.04736 0-0.08521 0.0188-0.11353 0.0564-0.01807 0.02344-0.02954 0.05835-0.03442 0.10474h0.2937"/>
    <path d="m23.017 77.736h0.27832v0.11353c0.04004-0.04736 0.08032-0.08105 0.12085-0.10108 0.04101-0.02002 0.09033-0.03003 0.14795-0.03003 0.06201 0.000001 0.11108 0.01099 0.14722 0.03296 0.03613 0.02197 0.06567 0.05469 0.08862 0.09815 0.04687-0.05078 0.0896-0.08521 0.12817-0.10327 0.03857-0.01855 0.08618-0.02783 0.14282-0.02783 0.08349 0.000001 0.14868 0.0249 0.19556 0.07471 0.04687 0.04932 0.07031 0.12671 0.07031 0.23218v0.48852h-0.29883v-0.44312c-0.000001-0.03516-0.0068-0.06128-0.02051-0.07837-0.02002-0.02685-0.04492-0.04028-0.07471-0.04028-0.03516 0-0.06348 0.0127-0.08496 0.03809-0.02149 0.02539-0.03223 0.06616-0.03223 0.12231v0.40137h-0.29883v-0.42847c0-0.03418-0.002-0.05737-0.0059-0.06958-0.0063-0.01953-0.01733-0.03516-0.03296-0.04687-0.01563-0.01221-0.03394-0.01831-0.05493-0.01831-0.03418 0-0.06226 0.01294-0.08423 0.03882s-0.03296 0.06836-0.03296 0.12744v0.39697h-0.29883v-0.77783"/>
    <path d="m24.787 77.988-0.28491-0.03003c0.01074-0.0498 0.02612-0.08887 0.04614-0.11719 0.02051-0.02881 0.0498-0.05371 0.08789-0.07471 0.02734-0.01514 0.06494-0.02685 0.11279-0.03516 0.04785-0.0083 0.09961-0.01245 0.15527-0.01245 0.08935 0.000001 0.16113 0.0051 0.21533 0.01538 0.0542 0.0098 0.09936 0.03052 0.1355 0.06226 0.02539 0.02197 0.04541 0.05322 0.06006 0.09375 0.01465 0.04004 0.02197 0.07837 0.02197 0.11499v0.34351c-0.000001 0.03662 0.0022 0.06543 0.0066 0.08643 0.0049 0.02051 0.01514 0.04687 0.03076 0.0791h-0.27978c-0.01123-0.02002-0.01855-0.03516-0.02197-0.04541-0.0034-0.01074-0.0068-0.02734-0.01025-0.0498-0.03906 0.0376-0.07788 0.06445-0.11646 0.08057-0.05274 0.02148-0.11401 0.03223-0.18384 0.03223-0.09277 0-0.16333-0.02148-0.21167-0.06445-0.04785-0.04297-0.07178-0.09595-0.07178-0.15894 0-0.05908 0.01733-0.10767 0.052-0.14575 0.03467-0.03809 0.09863-0.06641 0.1919-0.08496 0.11182-0.02246 0.18433-0.03809 0.21753-0.04687 0.0332-0.0093 0.06836-0.02124 0.10547-0.03589-0.000001-0.03662-0.0076-0.06226-0.0227-0.0769-0.01514-0.01465-0.04175-0.02197-0.07983-0.02197-0.04883 0.000001-0.08545 0.0078-0.10986 0.02344-0.01904 0.01221-0.03443 0.03516-0.04614 0.06885m0.25854 0.15674c-0.04102 0.01465-0.08374 0.02759-0.12817 0.03882-0.06055 0.01611-0.09888 0.03198-0.11499 0.04761-0.0166 0.01611-0.0249 0.03442-0.0249 0.05493-0.000001 0.02344 0.0081 0.04273 0.02417 0.05786 0.0166 0.01465 0.04077 0.02197 0.07251 0.02197 0.0332 0 0.06396-0.0081 0.09229-0.02417 0.02881-0.01611 0.04907-0.03564 0.06079-0.05859 0.01221-0.02344 0.01831-0.05371 0.01831-0.09082v-0.04761"/>
    <path d="m25.517 77.736h0.27759v0.12671c0.0415-0.05176 0.0835-0.08862 0.12598-0.1106 0.04248-0.02246 0.09424-0.03369 0.15527-0.03369 0.08252 0.000001 0.14697 0.02466 0.19336 0.07398 0.04687 0.04883 0.07031 0.12451 0.07031 0.22705v0.49438h-0.29956v-0.42773c-0.000001-0.04883-0.009-0.08325-0.0271-0.10327-0.01807-0.02051-0.04346-0.03076-0.07617-0.03076-0.03613 0-0.06543 0.01367-0.08789 0.04102-0.02246 0.02734-0.03369 0.07642-0.03369 0.14722v0.37354h-0.2981v-0.77783"/>
    <path d="m26.791 77.988-0.28491-0.03003c0.01074-0.0498 0.02612-0.08887 0.04614-0.11719 0.02051-0.02881 0.0498-0.05371 0.08789-0.07471 0.02734-0.01514 0.06494-0.02685 0.11279-0.03516 0.04785-0.0083 0.09961-0.01245 0.15527-0.01245 0.08936 0.000001 0.16113 0.0051 0.21533 0.01538 0.0542 0.0098 0.09936 0.03052 0.1355 0.06226 0.02539 0.02197 0.04541 0.05322 0.06006 0.09375 0.01465 0.04004 0.02197 0.07837 0.02197 0.11499v0.34351c-0.000001 0.03662 0.0022 0.06543 0.0066 0.08643 0.0049 0.02051 0.01514 0.04687 0.03076 0.0791h-0.27978c-0.01123-0.02002-0.01856-0.03516-0.02197-0.04541-0.0034-0.01074-0.0068-0.02734-0.01025-0.0498-0.03906 0.0376-0.07788 0.06445-0.11646 0.08057-0.05274 0.02148-0.11401 0.03223-0.18384 0.03223-0.09277 0-0.16333-0.02148-0.21167-0.06445-0.04785-0.04297-0.07178-0.09595-0.07178-0.15894 0-0.05908 0.01733-0.10767 0.052-0.14575 0.03467-0.03809 0.09863-0.06641 0.19189-0.08496 0.11182-0.02246 0.18433-0.03809 0.21753-0.04687 0.0332-0.0093 0.06836-0.02124 0.10547-0.03589 0-0.03662-0.0076-0.06226-0.0227-0.0769-0.01514-0.01465-0.04175-0.02197-0.07983-0.02197-0.04883 0.000001-0.08545 0.0078-0.10986 0.02344-0.01904 0.01221-0.03442 0.03516-0.04614 0.06885m0.25854 0.15674c-0.04102 0.01465-0.08374 0.02759-0.12817 0.03882-0.06055 0.01611-0.09888 0.03198-0.11499 0.04761-0.0166 0.01611-0.0249 0.03442-0.0249 0.05493 0 0.02344 0.0081 0.04273 0.02417 0.05786 0.0166 0.01465 0.04077 0.02197 0.07251 0.02197 0.0332 0 0.06396-0.0081 0.09229-0.02417 0.02881-0.01611 0.04907-0.03564 0.06079-0.05859 0.01221-0.02344 0.01831-0.05371 0.01831-0.09082v-0.04761"/>
    <path d="m28.085 77.736h0.27905v0.73462l0.000732 0.03442c-0.000001 0.04883-0.0105 0.09521-0.03149 0.13916-0.02051 0.04443-0.0481 0.08032-0.08276 0.10767-0.03418 0.02734-0.07788 0.04712-0.1311 0.05933-0.05273 0.01221-0.11328 0.01831-0.18164 0.01831-0.15625 0-0.26367-0.02344-0.32226-0.07031-0.05811-0.04687-0.08716-0.10962-0.08716-0.18823 0-0.0098 0.000488-0.02295 0.0015-0.03955l0.28931 0.03296c0.0073 0.02686 0.01855 0.04541 0.03369 0.05566 0.02197 0.01514 0.04956 0.02271 0.08276 0.02271 0.04297 0 0.07495-0.01147 0.09595-0.03442 0.02148-0.02295 0.03223-0.06299 0.03223-0.12012v-0.11792c-0.0293 0.03467-0.05859 0.05982-0.08789 0.07544-0.0459 0.02441-0.09546 0.03662-0.14868 0.03662-0.104 0-0.18799-0.04541-0.25195-0.13623-0.04541-0.06445-0.06812-0.14966-0.06812-0.25562 0-0.12109 0.0293-0.21338 0.08789-0.27686s0.13525-0.09521 0.22998-0.09522c0.06055 0.000001 0.11035 0.01026 0.14942 0.03076 0.03955 0.02051 0.07642 0.05444 0.1106 0.10181v-0.11499m-0.28052 0.3772c-0.000001 0.05615 0.01196 0.0979 0.03589 0.12524 0.02393 0.02685 0.05542 0.04028 0.09448 0.04028 0.03711 0 0.06811-0.01392 0.09302-0.04175 0.02539-0.02832 0.03809-0.0708 0.03809-0.12744s-0.01318-0.09985-0.03955-0.12964c-0.02637-0.03027-0.05859-0.04541-0.09668-0.04541-0.03809 0.000001-0.0686 0.01392-0.09155 0.04175-0.02246 0.02734-0.03369 0.073-0.03369 0.13696"/>
    <path d="m29.41 78.199h-0.59766c0.0054 0.04785 0.01831 0.0835 0.03882 0.10693 0.02881 0.03369 0.06641 0.05054 0.11279 0.05054 0.0293 0.000001 0.05713-0.0073 0.0835-0.02197 0.01611-0.0093 0.03345-0.02564 0.052-0.04907l0.2937 0.0271c-0.04492 0.07813-0.09912 0.13428-0.1626 0.16846-0.06348 0.03369-0.15454 0.05054-0.27319 0.05054-0.10303 0-0.18408-0.0144-0.24316-0.04321-0.05908-0.0293-0.10815-0.07544-0.14722-0.13843-0.03857-0.06348-0.05786-0.13794-0.05786-0.22339 0-0.12158 0.03882-0.21997 0.11646-0.29517 0.07813-0.0752 0.18579-0.11279 0.323-0.11279 0.11133 0.000001 0.19922 0.01685 0.26367 0.05054s0.11352 0.08252 0.14722 0.14648c0.03369 0.06397 0.05054 0.14722 0.05054 0.24976v0.03369m-0.304-0.143c-0.0059-0.05762-0.02149-0.09888-0.04687-0.12378-0.0249-0.0249-0.05786-0.03735-0.09888-0.03735-0.04736 0-0.0852 0.0188-0.11352 0.0564-0.01807 0.02344-0.02954 0.05835-0.03442 0.10474h0.2937"/>
    <path d="m29.551 77.736h0.27905v0.12744c0.02686-0.05518 0.05444-0.09302 0.08276-0.11353 0.02881-0.02099 0.06421-0.03149 0.1062-0.03149 0.04395 0.000001 0.09204 0.01367 0.14429 0.04102l-0.09228 0.2124c-0.03516-0.01465-0.06299-0.02197-0.0835-0.02197-0.03906 0.000001-0.06934 0.01611-0.09082 0.04834-0.03076 0.04541-0.04614 0.13037-0.04614 0.25488v0.26074h-0.29956v-0.77783"/>
   </g>
  </g>
  <g transform="matrix(1 0 0 1 -19.996 929.36)">
   <rect x="50" rx="18" y="118" clip-path="url(#clipPath3871)" height="36" opacity="0.31" width="36" transform="matrix(1 0 0 1 0 -61)"/>
   <path d="m90.714 72.786a19.643 19.643 0 1 1 -39.286 0 19.643 19.643 0 1 1 39.286 0z" fill="url(#linearGradient3483)" transform="matrix(0 -0.91636 0.91636 0 1.302 139.13)"/>
   <path d="m68 56c-9.9411 0-18 8.0589-18 18 0 3.6617 1.0907 7.064 2.9688 9.9062-1.247-2.364-1.969-5.047-1.969-7.906 0-9.3888 7.6112-17 17-17s17 7.6112 17 17c0 2.8588-0.72212 5.5418-1.9688 7.9062 1.878-2.842 2.969-6.244 2.969-9.906 0-9.941-8.059-18-18-18z" fill="url(#linearGradient3485)" opacity="0.2"/>
   <path d="m68 56c-9.9411 0-18 8.0589-18 18 0 0.16859 0.02664 0.33252 0.03125 0.5 0.267-9.708 8.196-17.5 17.969-17.5 9.7305 0 17.637 7.7253 17.969 17.375v-1c-0.332-9.65-8.238-17.375-17.969-17.375z" fill="#fff" opacity="0.3"/>
   <path d="m59.53 76.487 0.000001-8.4741 7.3388-4.237 7.3388 4.237-0.000001 8.4741-7.3388 4.237z" fill="#f8c300" color="#000000" transform="matrix(0.81758 0 0 0.81758 13.329 14.93)"/>
   <path d="m69 59.594v6l5.6875 3.375 5.312-2.969-11-6.406z" fill="#8fb635"/>
   <path d="m80.976 67.663-5.1962 3-0.07909 6.613 5.2273 3.1164 0.04798-12.729z" fill="#d18c3b"/>
   <path d="m79.976 82.069-5.1962-3-5.7666 3.238-0.08524 6.0851 11.048-6.3232z" fill="#a02c35"/>
   <path d="m67 88.406-0.000001-6l-5.687-3.375-5.313 2.969 11 6.406z" fill="#bb3a84"/>
   <path d="m55.024 80.337 5.1962-3 0.07909-6.613-5.2273-3.1164-0.04798 12.729z" fill="#3941bf"/>
   <path d="m56.024 65.931 5.1962 3 5.7666-3.238 0.08524-6.0851-11.048 6.3232z" fill="#3895bd"/>
  </g>
  <rect x="-96" rx="25" y="958.36" clip-path="url(#clipPath3009)" fill="#fff" height="92" opacity="0.15" width="92" transform="matrix(1 0 0 1 98 0)"/>
 </g>
</svg>
