<svg height="96" width="96" xmlns="http://www.w3.org/2000/svg" xmlns:xlink="http://www.w3.org/1999/xlink" xmlns:sodipodi="http://sodipodi.sourceforge.net/DTD/sodipodi-0.dtd" xmlns:inkscape="http://www.inkscape.org/namespaces/inkscape">
 <defs>
  <filter x="-0.12" y="-0.12" color-interpolation-filters="sRGB" height="1.24" id="filter4161" width="1.24">
   <feGaussianBlur stdDeviation="2.82705"/>
  </filter>
  <clipPath id="clipPath4157">
   <use xlink:href="#SVGCleanerId_0" inkscape:connector-curvature="0"/>
  </clipPath>
  <clipPath id="clipPath4083">
   <use xlink:href="#SVGCleanerId_1" inkscape:connector-curvature="0"/>
  </clipPath>
  <clipPath id="clipPath4071">
   <use xlink:href="#SVGCleanerId_2" inkscape:connector-curvature="0"/>
  </clipPath>
  <filter x="-0.079" y="-0.246" color-interpolation-filters="sRGB" height="1.493" id="filter4137" width="1.159">
   <feGaussianBlur stdDeviation="2.6406"/>
  </filter>
  <clipPath id="clipPath4133">
   <use xlink:href="#SVGCleanerId_3" inkscape:connector-curvature="0"/>
  </clipPath>
  <clipPath id="clipPath4197">
   <use xlink:href="#SVGCleanerId_4" inkscape:connector-curvature="0"/>
  </clipPath>
  <clipPath id="clipPath4181">
   <use xlink:href="#SVGCleanerId_5" inkscape:connector-curvature="0"/>
  </clipPath>
  <filter x="-0.247" y="-0.079" color-interpolation-filters="sRGB" height="1.159" id="filter4149" width="1.494">
   <feGaussianBlur stdDeviation="2.64259"/>
  </filter>
  <clipPath id="clipPath4145">
   <use xlink:href="#SVGCleanerId_6" inkscape:connector-curvature="0"/>
  </clipPath>
  <clipPath id="clipPath4169">
   <use xlink:href="#SVGCleanerId_7" inkscape:connector-curvature="0"/>
  </clipPath>
  <path d="m 269.47,688.53 c 15.602,15.625 19.169,37.385 19.169,37.385 0,0 -21.729,-3.5724 -37.33,-19.197 -15.602,-15.625 -19.169,-37.385 -19.169,-37.385 0,0 21.729,3.5724 37.33,19.197 z" id="SVGCleanerId_0"/>
  <path d="m 515.87,745.01 c 15.602,15.625 19.169,37.385 19.169,37.385 0,0 -21.729,-3.5724 -37.33,-19.197 -15.602,-15.625 -19.169,-37.385 -19.169,-37.385 0,0 21.729,3.5724 37.33,19.197 z" id="SVGCleanerId_1"/>
  <path d="m 515.87,706.72 c -15.602,15.625 -37.33,19.197 -37.33,19.197 0,0 3.5672,-21.76 19.169,-37.385 15.6018,-15.625 37.33,-19.197 37.33,-19.197 0,0 -3.5672,21.76 -19.169,37.385 z" id="SVGCleanerId_2"/>
  <path d="m 538.47,738.73 c -22.064,0 -39.951,-12.861 -39.951,-12.861 0,0 17.887,-12.861 39.951,-12.861 22.064,0 39.951,12.861 39.951,12.861 0,0 -17.887,12.861 -39.951,12.861 z" id="SVGCleanerId_3"/>
  <path d="m 299.47,763.2 c -15.602,15.625 -37.33,19.197 -37.33,19.197 0,0 3.5672,-21.76 19.169,-37.385 15.6018,-15.625 37.33,-19.197 37.33,-19.197 0,0 -3.5672,21.76 -19.169,37.385 z" id="SVGCleanerId_4"/>
  <path d="m 348.71,698.73 c -22.064,0 -39.951,-12.861 -39.951,-12.861 0,0 17.887,-12.861 39.951,-12.861 22.064,0 39.951,12.861 39.951,12.861 0,0 -17.887,12.861 -39.951,12.861 z" id="SVGCleanerId_5"/>
  <path d="m 401.43,865.8 c 0,22.097 -12.842,40.01 -12.842,40.01 0,0 -12.842,-17.913 -12.842,-40.01 0,-22.097 12.842,-40.01 12.842,-40.01 0,0 12.842,17.913 12.842,40.01 z" id="SVGCleanerId_6"/>
  <path d="m 471.43,685.93 c 0,22.097 -12.842,40.01 -12.842,40.01 0,0 -12.842,-17.913 -12.842,-40.01 0,-22.097 12.842,-40.01 12.842,-40.01 0,0 12.842,17.913 12.842,40.01 z" id="SVGCleanerId_7"/>
 </defs>
 <g inkscape:label="Layer 1" inkscape:groupmode="layer" transform="matrix(1 0 0 1 0 -956.36)">
  <rect x="8" rx="10.769" y="964.36" fill="#e6e6e6" fill-opacity="1" stroke="none" height="80" width="80"/>
  <g transform="matrix(1.09136 0 0 1.09136 -5.203 -89.35)">
   <path d="m 53.1658,988.41678 c 0,7.59613 -4.414241,13.75402 -4.414241,13.75402 0,0 -4.41424,-6.15789 -4.41424,-13.75402 0,-7.59613 4.41424,-13.75402 4.41424,-13.75402 0,0 4.414241,6.15789 4.414241,13.75402 z" fill="#d5be00" color="#000000" fill-rule="evenodd" inkscape:connector-curvature="0"/>
   <use xlink:href="#SVGCleanerId_7" clip-path="url(#clipPath4169)" fill="#edd400" color="#000000" fill-rule="evenodd" filter="url(#filter4149)" inkscape:connector-curvature="0" transform="matrix(0.34373 0 0 0.34378 -108.88 752.62)"/>
   <path d="m 53.1658,1015.8745 c 0,7.5961 -4.414241,13.754 -4.414241,13.754 0,0 -4.41424,-6.1579 -4.41424,-13.754 0,-7.5961 4.41424,-13.754 4.41424,-13.754 0,0 4.414241,6.1579 4.414241,13.754 z" fill="#23446e" color="#000000" fill-rule="evenodd" inkscape:connector-curvature="0"/>
   <path d="m 62.457483,1006.569 c -7.584246,0 -13.732455,-4.4211 -13.732455,-4.4211 0,0 6.148209,-4.4212 13.732455,-4.4212 7.584248,0 13.732458,4.4212 13.732458,4.4212 0,0 -6.14821,4.4211 -13.732458,4.4211 z" fill="#56aa07" color="#000000" fill-rule="evenodd" inkscape:connector-curvature="0"/>
   <path d="m 35.04287,1006.569 c -7.584247,0 -13.732457,-4.4211 -13.732457,-4.4211 0,0 6.14821,-4.4212 13.732457,-4.4212 7.584248,0 13.732457,4.4212 13.732457,4.4212 0,0 -6.148209,4.4211 -13.732457,4.4211 z" fill="#ca0f0f" color="#000000" fill-rule="evenodd" inkscape:connector-curvature="0"/>
   <path d="m 61.564797,995.5638 c -5.362755,5.3713 -12.831755,6.5993 -12.831755,6.5993 0,0 1.22616,-7.48066 6.589026,-12.85198 5.362866,-5.37132 12.831755,-6.59953 12.831755,-6.59953 0,0 -1.22616,7.48061 -6.589026,12.85193 z" fill="#85b912" color="#000000" fill-rule="evenodd" inkscape:connector-curvature="0"/>
   <use xlink:href="#SVGCleanerId_6" clip-path="url(#clipPath4145)" fill="#3465a4" color="#000000" fill-rule="evenodd" filter="url(#filter4149)" inkscape:connector-curvature="0" transform="matrix(0.34373 0 0 0.34378 -84.82 718.24)"/>
   <use xlink:href="#SVGCleanerId_5" clip-path="url(#clipPath4181)" fill="#ef2929" color="#000000" fill-rule="evenodd" filter="url(#filter4137)" inkscape:connector-curvature="0" transform="matrix(0.34373 0 0 0.34378 -84.82 766.37)"/>
   <path d="m 42.179944,1014.9818 c -5.362754,5.3713 -12.831754,6.5993 -12.831754,6.5993 0,0 1.226159,-7.4806 6.589026,-12.852 5.362865,-5.3713 12.831755,-6.5995 12.831755,-6.5995 0,0 -1.22616,7.4806 -6.589027,12.8519 z" fill="#593d5e" color="#000000" fill-rule="evenodd" inkscape:connector-curvature="0"/>
   <path d="m 42.179944,989.31223 c 5.362757,5.37132 6.589027,12.85197 6.589027,12.85197 0,0 -7.468723,-1.2281 -12.831755,-6.59929 -5.363585,-5.36994 -6.589856,-12.85055 -6.589856,-12.85055 0,0 7.468724,1.22809 12.831756,6.59953 z" fill="#c96300" color="#000000" fill-rule="evenodd" inkscape:connector-curvature="0"/>
   <use xlink:href="#SVGCleanerId_4" clip-path="url(#clipPath4197)" fill="#75507b" color="#000000" fill-rule="evenodd" filter="url(#filter4161)" inkscape:connector-curvature="0" transform="matrix(0.34373 0 0 0.34378 -60.758 752.62)"/>
   <path d="m 61.564797,1008.7275 c 5.362755,5.3713 6.589026,12.8519 6.589026,12.8519 0,0 -7.468723,-1.2281 -12.831755,-6.5992 -5.362756,-5.3714 -6.589026,-12.852 -6.589026,-12.852 0,0 7.468724,1.2281 12.831755,6.5996 z" fill="#3f7bba" color="#000000" fill-rule="evenodd" inkscape:connector-curvature="0"/>
   <use xlink:href="#SVGCleanerId_3" clip-path="url(#clipPath4133)" fill="#65c808" color="#000000" fill-rule="evenodd" filter="url(#filter4137)" inkscape:connector-curvature="0" transform="matrix(0.34373 0 0 0.34378 -122.63 752.62)"/>
   <use xlink:href="#SVGCleanerId_2" clip-path="url(#clipPath4071)" fill="#afea2c" color="#000000" fill-rule="evenodd" filter="url(#filter4161)" inkscape:connector-curvature="0" transform="matrix(0.34373 0 0 0.34378 -115.76 752.62)"/>
   <use xlink:href="#SVGCleanerId_1" clip-path="url(#clipPath4083)" fill="#729fcf" color="#000000" fill-rule="evenodd" filter="url(#filter4161)" inkscape:connector-curvature="0" transform="matrix(0.34373 0 0 0.34378 -115.76 752.62)"/>
   <use xlink:href="#SVGCleanerId_0" clip-path="url(#clipPath4157)" fill="#f57900" color="#000000" fill-rule="evenodd" filter="url(#filter4161)" inkscape:connector-curvature="0" transform="matrix(0.34373 0 0 0.34378 -50.45 752.62)"/>
   <path d="m 54.610063,1002.0695 c 0,3.3829 -2.734449,6.1252 -6.107721,6.1252 -3.373271,0 -6.107721,-2.7423 -6.107721,-6.1252 0,-3.383 2.73445,-6.1253 6.107721,-6.1253 3.373272,0 6.107721,2.7423 6.107721,6.1253 z" fill="#ffffff" color="#000000" fill-rule="evenodd" opacity="0.1" inkscape:connector-curvature="0"/>
   <path d="m 61.645366,1001.9936 c 0,7.2823 -5.8865,13.1855 -13.148204,13.1855 -7.261704,0 -13.148203,-5.9032 -13.148203,-13.1855 0,-7.28229 5.886499,-13.18549 13.148203,-13.18549 7.261704,0 13.148204,5.9032 13.148204,13.18549 z" fill="#ffffff" color="#000000" fill-rule="evenodd" opacity="0.1" inkscape:connector-curvature="0"/>
   <path d="m 48.506139,982.32633 c -1.147034,0 -2.266375,0.10488 -3.359599,0.29365 -0.477629,1.7618 -0.811847,3.72303 -0.811847,5.79528 0,1.39289 0.146237,2.74033 0.388636,4.00742 -0.723242,-1.06788 -1.564219,-2.12407 -2.547833,-3.10921 -1.484542,-1.48686 -3.12938,-2.65332 -4.732901,-3.56688 -1.986602,1.35691 -3.711974,3.06803 -5.086934,5.04382 0.915184,1.61731 2.089276,3.2789 3.584291,4.77602 0.98179,0.98331 2.027753,1.82434 3.092069,2.54783 -1.26231,-0.24172 -2.602916,-0.38864 -3.990284,-0.38864 -2.116442,0 -4.117139,0.34989 -5.907488,0.8464 -0.203062,1.13722 -0.319543,2.31068 -0.319543,3.50658 0,1.2505 0.123861,2.4674 0.345467,3.6534 1.783717,0.4926 3.775541,0.8378 5.88151,0.8378 1.384161,0 2.721645,-0.1479 3.981438,-0.3887 -1.061026,0.7221 -2.104364,1.5674 -3.083225,2.5479 -1.47133,1.4736 -2.632265,3.1053 -3.5409,4.6983 1.393725,1.9858 3.143752,3.6985 5.156028,5.0524 1.567261,-0.9038 3.171388,-2.0463 4.620693,-3.4978 0.983586,-0.9851 1.824564,-2.0413 2.547834,-3.1092 -0.242413,1.2671 -0.388637,2.6145 -0.388637,4.0074 0,2.011 0.313822,3.9185 0.768651,5.6397 1.10696,0.1937 2.240616,0.3023 3.402713,0.3023 1.338477,0 2.648931,-0.142 3.912346,-0.3973 0.441065,-1.6962 0.742754,-3.571 0.742754,-5.5446 0,-1.3929 -0.146216,-2.7403 -0.388636,-4.0074 0.723325,1.0681 1.564081,2.1239 2.547833,3.1092 1.367663,1.3698 2.869865,2.4719 4.352886,3.351 2.049753,-1.4182 3.821696,-3.2095 5.207986,-5.2856 -0.873561,-1.4708 -1.962391,-2.9622 -3.316484,-4.3183 -0.978916,-0.9805 -2.030905,-1.8258 -3.092069,-2.5479 1.262309,0.2417 2.594265,0.3887 3.98144,0.3887 1.90952,0 3.728281,-0.2801 5.380719,-0.6996 0.238801,-1.2291 0.36274,-2.4923 0.36274,-3.7916 0,-1.2445 -0.117259,-2.46395 -0.336843,-3.64479 -1.659376,-0.42323 -3.486731,-0.7082 -5.406423,-0.7082 -1.393366,0 -2.731567,0.14503 -3.998852,0.38863 1.066195,-0.72437 2.125618,-1.56267 3.109205,-2.54783 1.377696,-1.37988 2.478547,-2.90054 3.359598,-4.396 -1.366252,-2.06457 -3.108651,-3.85624 -5.130048,-5.27708 -1.522045,0.89075 -3.068853,2.01302 -4.473937,3.42012 -0.983753,0.98528 -1.824509,2.04116 -2.547835,3.10921 0.242435,-1.26712 0.388637,-2.61447 0.388637,-4.00742 0,-2.0348 -0.322224,-3.96292 -0.785951,-5.70021 -1.250232,-0.24964 -2.545845,-0.38863 -3.869232,-0.38863 z" fill="#ffffff" color="#000000" fill-rule="evenodd" opacity="0.1" inkscape:connector-curvature="0"/>
  </g>
 </g>
</svg>
