<svg height="96" width="96" xmlns="http://www.w3.org/2000/svg" xmlns:sodipodi="http://sodipodi.sourceforge.net/DTD/sodipodi-0.dtd" xmlns:inkscape="http://www.inkscape.org/namespaces/inkscape">
 <rect x="8" rx="10.769" y="8" fill="#245eb1" fill-opacity="1" stroke="none" height="80" width="80"/>
 <path d="m 40.623968,29.593218 c -9.2132,0 -18.417,3.5241 -25.446,10.554 l 4.2321,4.2322 c 11.716,-11.716 30.713,-11.716 42.429,0 l 4.2321,-4.2322 c -7.03,-6.98 -16.233,-10.51 -25.447,-10.51 z m 0,12 c -6.1421,0 -12.296,2.3316 -16.982,7.0178 l 4.2589,4.259 c 7.0294,-7.0295 18.417,-7.0295 25.446,0 l 4.2589,-4.259 c -4.6863,-4.6862 -10.84,-7.0178 -16.982,-7.0178 z m 0,12 c -3.0711,0 -6.1479,1.1658 -8.4911,3.5089 l 8.4911,8.4911 8.4911,-8.4911 c -2.3431,-2.3431 -5.42,-3.5089 -8.4911,-3.5089 z" fill="#e6e6e6" inkscape:connector-curvature="0"/>
 <path d="m 73.451349,15.016649 c -0.919862,-0.01992 -1.676423,0.704533 -1.696381,1.624451 l -0.03709,1.712265 c -0.679751,0.123121 -1.255838,0.571218 -1.531139,1.18674 -0.05507,0.1231 -0.08172,0.252146 -0.112205,0.386907 l -0.882085,-0.01912 -0.503529,23.245955 0.830195,0.01798 -0.01798,0.830195 -0.04497,2.075507 c -0.01482,0.684142 0.294755,1.289719 0.794196,1.678388 -0.04551,2.456663 -0.07973,4.848251 -0.103232,7.161531 -3.93e-4,0.036 -0.0018,0.06779 -0.0022,0.103771 -0.02207,2.207672 -0.03444,4.344184 -0.0345,6.384367 -2.35e-4,0.0093 -5.58e-4,0.01696 -5.64e-4,0.02597 -5.8e-5,0.0084 -5.34e-4,0.01764 -5.63e-4,0.02597 3.9e-5,0.612928 0.01152,1.169608 0.01364,1.765258 1.47e-4,0.04379 -0.003,0.08604 -0.0028,0.129716 2.93e-4,0.06984 -0.0048,0.137923 -0.0045,0.207551 -0.0026,0.409419 -0.0032,0.830968 -4.95e-4,1.219948 0.08243,11.831748 0.628273,19.89542 1.826379,19.921437 1.268342,0.02747 2.116289,-8.006506 2.687597,-19.823824 0.174956,-3.618469 0.336084,-7.492649 0.461778,-11.722327 0.02732,-0.92048 0.03661,-1.911163 0.06186,-2.85381 0.02153,-0.805589 0.05874,-1.617986 0.07875,-2.438174 0.515827,-0.366665 0.851341,-0.958243 0.866149,-1.642451 l 0.557025,-25.736118 c 0.0218,-1.006082 -0.673268,-1.84618 -1.616564,-2.059541 l 0.03709,-1.712265 c 0.01993,-0.919858 -0.704533,-1.676423 -1.624452,-1.696381 z" fill="#e6e6e6" inkscape:connector-curvature="0"/>
</svg>
