<svg height="96" width="96" xmlns="http://www.w3.org/2000/svg" xmlns:sodipodi="http://sodipodi.sourceforge.net/DTD/sodipodi-0.dtd" xmlns:inkscape="http://www.inkscape.org/namespaces/inkscape">
 <g inkscape:label="Layer 1" inkscape:groupmode="layer" transform="matrix(1 0 0 1 0 -956.36)">
  <rect x="8" rx="10.769" y="964.36" fill="#e6e6e6" fill-opacity="1" stroke="none" height="80" width="80"/>
  <g transform="matrix(1 0 0 1 -0.751 0.678)">
   <path d="m 21.478523,973.68463 c -1.510909,0 -2.727273,1.21636 -2.727273,2.72727 v 22.72727 2.72723 29.0909 c 0,1.5109 1.216364,2.7273 2.727273,2.7273 h 45.454545 c 1.510909,0 2.727273,-1.2164 2.727273,-2.7273 v -26.3636 h 6.363636 c 1.51091,0 2.727273,-1.2163 2.727273,-2.7273 v -25.4545 c 0,-1.51091 -1.216363,-2.72727 -2.727273,-2.72727 H 21.478523 z" fill="#4d4d4d" color="#000000" opacity="0.7" inkscape:connector-curvature="0"/>
   <rect x="20.569" rx="1.948" y="975.5" fill="#e6e6e6" height="27.27" width="27.27"/>
   <path d="m 27.363,32.44 -0.78613,-2.0117 h -3.1348 L 22.65105,32.44 h -0.9668 l 2.8076,-6.8799 h 1.0596 l 2.7637,6.8799 H 27.363 M 25.4148,27.4302 C 25.36271,27.3 25.31226,27.16816 25.26343,27.03469 25.21785,26.90123 25.17716,26.78079 25.14136,26.67336 25.10555,26.56269 25.07462,26.47154 25.04859,26.39992 25.0258,26.32506 25.01278,26.27948 25.00953,26.2632 c -0.0065,0.01628 -0.02116,0.06186 -0.04395,0.13672 -0.02279,0.07488 -0.05371,0.16765 -0.09277,0.27832 -0.03581,0.11068 -0.07813,0.23275 -0.12695,0.36621 -0.04558,0.13347 -0.09278,0.2653 -0.1416,0.39551 l -0.87891,2.2607 h 2.5732 l -0.88379,-2.2705" fill="#4d4d4d" inkscape:connector-curvature="0" transform="matrix(1.51518 0 0 1.51518 -3.673 945.2)"/>
   <rect x="49.66" rx="1.948" y="975.5" fill="#e6e6e6" height="27.27" width="27.27"/>
   <path d="m 22.517614,1004.5937 h 43.376363 c 1.079091,0 1.948182,0.8691 1.948182,1.9482 v 23.3763 c 0,1.0791 -0.869091,1.9482 -1.948182,1.9482 H 22.517614 c -1.079091,0 -1.948182,-0.8691 -1.948182,-1.9482 v -23.3763 c 0,-1.0791 0.869091,-1.9482 1.948182,-1.9482 z" fill="#e6e6e6" inkscape:connector-curvature="0"/>
   <path d="m 47.744,32.44 h -5.4785 v -0.69824 l 4.1895,-5.4199 h -3.833 v -0.76172 h 4.8926 v 0.67871 l -4.1895,5.4395 h 4.4189 v 0.76172" fill="#4d4d4d" inkscape:connector-curvature="0" transform="matrix(1.51427 0 0 1.51427 -4.854 945.22)"/>
   <g fill="#4d4d4d" transform="matrix(1.41864 0 0 1.41864 -4.318 920.34)">
    <path d="m 27.167,66.354 c -0.39063,6e-6 -0.73731,0.06511 -1.04,0.19531 -0.29948,0.13021 -0.55176,0.31576 -0.75684,0.55664 -0.20182,0.24089 -0.35482,0.5306 -0.45898,0.86914 -0.10417,0.33855 -0.15625,0.71452 -0.15625,1.1279 -2e-6,0.41342 0.05534,0.79265 0.16602,1.1377 0.11393,0.3418 0.27506,0.6364 0.4834,0.88379 0.21159,0.2474 0.46875,0.43946 0.77148,0.57617 0.30599,0.13672 0.64941,0.20508 1.0303,0.20508 0.26692,10e-7 0.50944,-0.03418 0.72754,-0.10254 0.22135,-0.07161 0.41992,-0.1709 0.5957,-0.29785 0.17903,-0.12695 0.33854,-0.27669 0.47852,-0.44922 0.13997,-0.17578 0.26367,-0.36946 0.37109,-0.58106 l 0.76172,0.38086 c -0.1237,0.25716 -0.2767,0.49642 -0.45898,0.71777 -0.1823,0.22136 -0.39714,0.41341 -0.64453,0.57617 -0.24415,0.16276 -0.52247,0.29134 -0.83496,0.38574 -0.30925,0.09115 -0.65593,0.13672 -1.04,0.13672 -0.55664,0 -1.0449,-0.08789 -1.4648,-0.26367 -0.41667,-0.17904 -0.7666,-0.42643 -1.0498,-0.74219 -0.27995,-0.31901 -0.48991,-0.69661 -0.62988,-1.1328 -0.13997,-0.4362 -0.20996,-0.91308 -0.20996,-1.4307 0,-0.5371 0.07324,-1.0221 0.21973,-1.4551 0.14974,-0.43294 0.36621,-0.80078 0.64941,-1.1035 0.28646,-0.30598 0.63802,-0.54036 1.0547,-0.70312 0.41666,-0.16601 0.89192,-0.24902 1.4258,-0.24902 0.73242,7e-6 1.3444,0.14324 1.8359,0.42969 0.49153,0.28646 0.85286,0.71127 1.084,1.2744 l -0.88379,0.29297 C 29.12843,67.42652 29.04054,67.2719 28.92987,67.12541 28.81919,66.97568 28.68084,66.84384 28.51483,66.7299 28.34881,66.61597 28.1535,66.52483 27.92889,66.45646 27.70753,66.38811 27.45363,66.35393 27.16717,66.35392" inkscape:connector-curvature="0"/>
    <path d="m 33.231,72.535 c -0.13347,0.03581 -0.27018,0.06348 -0.41016,0.08301 -0.13672,0.02279 -0.29623,0.03418 -0.47852,0.03418 -0.70313,0 -1.0547,-0.39876 -1.0547,-1.1963 v -3.5254 h -0.61035 v -0.63965 h 0.64453 l 0.25879,-1.1816 h 0.58594 v 1.1816 h 0.97656 v 0.63965 h -0.97656 v 3.335 c -1e-6,0.25391 0.04069,0.43294 0.12207,0.53711 0.08463,0.10091 0.22949,0.15137 0.43457,0.15137 0.08463,0 0.16601,-0.0065 0.24414,-0.01953 0.08138,-0.01302 0.16927,-0.0293 0.26367,-0.04883 v 0.64941" inkscape:connector-curvature="0"/>
    <path d="m 33.993,72.574 v -4.0527 c -1e-6,-0.11067 -0.0016,-0.22298 -0.0049,-0.33691 0,-0.11718 -0.0016,-0.22949 -0.0049,-0.33691 -0.0033,-0.10742 -0.0065,-0.20833 -0.0098,-0.30273 -0.0033,-0.0944 -0.0065,-0.17903 -0.0098,-0.25391 h 0.83008 c 0.0033,0.07488 0.0065,0.16114 0.0098,0.25879 0.0065,0.09441 0.01139,0.19206 0.01465,0.29297 0.0065,0.10092 0.0098,0.19857 0.0098,0.29297 0.0033,0.09115 0.0049,0.16928 0.0049,0.23438 h 0.01953 c 0.06185,-0.20182 0.12695,-0.37597 0.19531,-0.52246 0.07161,-0.14973 0.15462,-0.2718 0.24902,-0.36621 0.0944,-0.09765 0.2067,-0.16926 0.33691,-0.21484 0.13021,-0.04882 0.28808,-0.07324 0.47363,-0.07324 0.07161,6e-6 0.13997,0.0065 0.20508,0.01953 0.0651,0.0098 0.11556,0.01954 0.15137,0.0293 v 0.80566 c -0.0586,-0.01627 -0.12696,-0.02766 -0.20508,-0.03418 -0.07813,-0.0098 -0.16602,-0.01464 -0.26367,-0.01465 -0.20182,5e-6 -0.37435,0.04558 -0.51758,0.13672 -0.13998,0.09115 -0.25554,0.2181 -0.34668,0.38086 -0.08789,0.15951 -0.153,0.35157 -0.19531,0.57617 -0.04232,0.22136 -0.06348,0.46387 -0.06348,0.72754 v 2.7539 h -0.87891" inkscape:connector-curvature="0"/>
    <path d="m 37.313,72.574 v -7.2461 h 0.87891 V 72.574 H 37.313" inkscape:connector-curvature="0"/>
   </g>
  </g>
 </g>
</svg>
