<svg height="96" width="96" xmlns="http://www.w3.org/2000/svg" xmlns:xlink="http://www.w3.org/1999/xlink" xmlns:sodipodi="http://sodipodi.sourceforge.net/DTD/sodipodi-0.dtd" xmlns:inkscape="http://www.inkscape.org/namespaces/inkscape">
 <defs>
  <clipPath clipPathUnits="userSpaceOnUse" id="clipPath3392">
   <rect x="-113.93" rx="12.384" y="16.238" height="92" width="92"/>
  </clipPath>
  <clipPath clipPathUnits="userSpaceOnUse" id="clipPath3396">
   <rect x="2" rx="12.384" y="2" height="92" width="92"/>
  </clipPath>
  <path d="m 73.959,99.266 a 3.7479,3.7479 0 1 1 -7.4958,0 3.7479,3.7479 0 1 1 7.4958,0 z" id="SVGCleanerId_0"/>
 </defs>
 <g clip-path="url(#clipPath3396)" transform="matrix(0.8696 0 0 0.8696 6.261 6.26)">
  <rect x="2" rx="6.571" y="2" fill="#514e4d" height="92" width="92"/>
  <path d="m 16.188116,2.0012 32.549344,82.14 31.070824,-82.14 H 16.188116 z" fill="#e6e6e6" inkscape:connector-curvature="0"/>
  <path d="m 39.559684,10.283568 8.611558,2.536702 8.367328,-2.536702 1.907838,4.717245 -10.275166,12.261859 -11.282751,-12.89598 2.671193,-4.083124 z" fill="#ff0000" fill-rule="evenodd" inkscape:connector-curvature="0"/>
  <path d="M 44.996257,23.446995 32.49893,62.936622 63.789889,63.318847 51.314466,23.404283 l -6.318209,0.04271 z" fill="#ff0000" fill-rule="evenodd" inkscape:connector-curvature="0"/>
  <path d="m 44.805692,23.446995 c 3.243106,1.335378 6.486322,0.09538 6.486322,0.09538 0,0 6.157872,19.471561 11.385699,36.819529 C 59.305592,56.450946 51.989656,26.21576 50.529755,25.831344 48.990999,25.427216 51.4322,42.571476 50.272383,43.573584 48.078697,24.115166 45.950724,23.256529 44.615675,25.164368 l 0.04165,-0.374822 c 0.05613,-0.505215 0.149123,-1.342167 0.149123,-1.342167 z" fill="#800000" fill-rule="evenodd" opacity="0.4" inkscape:connector-curvature="0"/>
  <path d="m 28.554019,2.0012 -1.386523,2.557073 7.596307,17.226401 c 0,0 3.704733,-7.719956 13.212493,-14.7140122 C 42.943852,6.2713848 38.491864,4.0127538 35.336593,2.000981 h -6.782245 z" fill="#b3b3b3" fill-rule="evenodd" inkscape:connector-curvature="0"/>
  <path d="M 60.681711,2.0012 C 57.52644,4.0129729 53.074452,6.2716038 48.042008,7.0708808 57.549439,14.065266 61.254501,21.784893 61.254501,21.784893 L 68.829452,4.558492 67.442162,2.001419 H 60.68193 z" fill="#b3b3b3" fill-rule="evenodd" inkscape:connector-curvature="0"/>
 </g>
 <g clip-path="url(#clipPath3392)" transform="matrix(0.8696 0 0 0.8696 107.08 -6.121)">
  <path d="m -107.3612,16.238488 c -3.64044,0 -6.5712,2.930755 -6.5712,6.5712 v 0.581551 77.691301 0.58155 c 0,3.64044 2.93076,6.5712 6.5712,6.5712 h 0.58155 8.18005 33.917249 c 0,0 0.27001,-20.630284 0,-23.854553 C -65.215714,78.02091 -80.343711,41.858502 -88.1952,16.238488 h -10.4044 -8.18005 -0.58155 z" fill="#002255" inkscape:connector-curvature="0"/>
  <path d="m -88.179867,16.238488 c 0.78056,2.547107 1.673246,5.041315 2.631218,7.479559 8.61101,22.084708 20.375101,54.938518 20.854798,60.665318 0.0066,0.07842 0.0184,0.395192 0.02431,0.511634 l -0.146144,0.950174 c -1.947265,-8.960927 -33.125419,-38.95736 -40.443545,-48.141707 2.4342,-1.578731 4.9226,-5.172191 7.382195,-7.430932 l -6.310105,-7.18725 c 2.15339,-4.306655 3.95576,-6.100921 5.140651,-6.846204 h 10.866136 z" fill="#003380" fill-rule="evenodd" inkscape:connector-curvature="0"/>
  <path d="m -88.179867,16.238488 c 0.78056,2.547107 1.673246,5.041315 2.631218,7.479559 8.61101,22.084708 20.375101,54.938518 20.854798,60.665318 0.0066,0.07842 0.0184,0.395192 0.02431,0.511634 l -0.146144,0.950174 c -0.289133,-1.332859 -1.091914,-2.850806 -2.264873,-4.506748 -2.866139,-7.574404 -12.607943,-38.591563 -20.026828,-57.620663 -0.9583,-2.437915 -1.850888,-4.932014 -2.631765,-7.479121 h 1.559236 z" fill="#525252" fill-rule="evenodd" opacity="0.2" inkscape:connector-curvature="0"/>
  <path d="m -71.832912,84.382927 c -0.270022,3.224488 0,23.657413 0,23.657413 H -28.36771 C -27.039232,77.447026 -67.499206,54.717245 -71.832912,84.382927 z" opacity="0.3" inkscape:connector-curvature="0"/>
  <path d="m -47.6728,16.238488 c -7.851489,25.620014 -22.979486,61.782422 -23.512849,68.142249 -0.27001,3.224488 0,23.854553 0,23.854553 h 33.917249 8.180049 0.581551 c 3.640445,0 6.5712,-2.93076 6.5712,-6.5712 v -0.58155 -77.691301 -0.581551 c 0,-3.640445 -2.930755,-6.5712 -6.5712,-6.5712 h -0.581551 -8.180049 -10.4044 z" fill="#002255" inkscape:connector-curvature="0"/>
  <path d="m -47.688133,16.238488 c -0.78056,2.547107 -1.673246,5.041315 -2.631218,7.479559 -8.61101,22.084708 -20.375101,54.938518 -20.854798,60.665318 -0.0066,0.07842 -0.0184,0.395192 -0.02431,0.511634 l 0.146144,0.950174 c 1.948032,-8.960817 33.126514,-38.958455 40.443545,-48.142802 -2.434191,-1.578731 -4.922595,-5.172191 -7.382195,-7.430932 l 6.310214,-7.18725 c -2.154259,-4.30545 -3.956958,-6.099716 -5.141964,-6.845 h -10.866137 z" fill="#003380" fill-rule="evenodd" inkscape:connector-curvature="0"/>
  <g fill="#00112b" stroke="none" id="g4970" transform="matrix(0.77963 0 0 0.77963 -117.83 15.459)">
   <use xlink:href="#SVGCleanerId_0" inkscape:connector-curvature="0" transform="matrix(-0.66033 -0.66033 0.66033 -0.66033 48.813 203.91)"/>
   <use xlink:href="#SVGCleanerId_0" inkscape:connector-curvature="0" transform="matrix(0.51891 0.51891 -0.51891 0.51891 83.08 4.056)"/>
  </g>
  <use xlink:href="#g4970" height="128" width="128" transform="matrix(1 0 0 1 0 12.474)"/>
  <path d="m -87.342039,19.853634 c -1.491663,1.465487 -8.055196,7.158337 -14.317551,14.197077 9.014592,-8.321329 13.709715,-11.068091 15.299945,-11.864301 -0.387701,-0.995537 -0.619883,-1.319716 -0.982394,-2.332886 z" fill-rule="evenodd" opacity="0.3" inkscape:connector-curvature="0"/>
  <path d="m -49.022086,19.578191 c 1.491114,1.465706 8.054429,7.157899 14.317549,14.197078 -9.01481,-8.32133 -13.709713,-11.069187 -15.299944,-11.865397 0.388062,-0.995066 0.620343,-1.31895 0.982975,-2.332338 z" fill-rule="evenodd" opacity="0.3" inkscape:connector-curvature="0"/>
  <path d="m -48.870949,85.835162 c 0.194803,-1.168797 0,-9.155652 0,-9.155652 l 26.882779,-3.506393 -25.087746,5.259589 -1.794814,7.402456 z" fill="#00112b" fill-rule="evenodd" inkscape:connector-curvature="0"/>
 </g>
</svg>
