<?xml version="1.0" encoding="UTF-8" standalone="no"?>
<!-- Created with Inkscape (http://www.inkscape.org/) -->

<svg
   xmlns:dc="http://purl.org/dc/elements/1.1/"
   xmlns:cc="http://creativecommons.org/ns#"
   xmlns:rdf="http://www.w3.org/1999/02/22-rdf-syntax-ns#"
   xmlns:svg="http://www.w3.org/2000/svg"
   xmlns="http://www.w3.org/2000/svg"
   xmlns:xlink="http://www.w3.org/1999/xlink"
   xmlns:sodipodi="http://sodipodi.sourceforge.net/DTD/sodipodi-0.dtd"
   xmlns:inkscape="http://www.inkscape.org/namespaces/inkscape"
   id="svg11037"
   height="96"
   width="96"
   version="1.1"
   inkscape:version="0.48.5 r10040"
   sodipodi:docname="vinagre.svg">
  <sodipodi:namedview
     pagecolor="#ffffff"
     bordercolor="#666666"
     borderopacity="1"
     objecttolerance="10"
     gridtolerance="10"
     guidetolerance="10"
     inkscape:pageopacity="0"
     inkscape:pageshadow="2"
     inkscape:window-width="640"
     inkscape:window-height="480"
     id="namedview16621" />
  <defs
     id="defs11039">
    <linearGradient
       id="linearGradient11642"
       y2="1046.1"
       gradientUnits="userSpaceOnUse"
       y1="962.62"
       gradientTransform="matrix(1.15 0 0 1.15 -7.1999 -150.65)"
       x2="48"
       x1="48">
      <stop
         id="stop3177"
         style="stop-color:#4490e6"
         offset="0" />
      <stop
         id="stop3179"
         style="stop-color:#103d8f"
         offset="1" />
    </linearGradient>
    <linearGradient
       id="linearGradient4593"
       y2="44.224"
       xlink:href="#linearGradient7175"
       gradientUnits="userSpaceOnUse"
       x2="94.681"
       gradientTransform="matrix(.98006 -.19871 .19871 .98006 -12.276 20.87)"
       y1="64.485"
       x1="24.79" />
    <linearGradient
       id="linearGradient7175">
      <stop
         id="stop7177"
         offset="0" />
      <stop
         id="stop7179"
         style="stop-opacity:0"
         offset="1" />
    </linearGradient>
    <linearGradient
       id="linearGradient4589"
       y2="51.636"
       xlink:href="#linearGradient7175"
       gradientUnits="userSpaceOnUse"
       x2="89.898"
       gradientTransform="translate(0,15)"
       y1="51.636"
       x1="23.205" />
    <linearGradient
       id="linearGradient4531"
       xlink:href="#linearGradient4304"
       gradientUnits="userSpaceOnUse"
       x2="-27"
       x1="-31" />
    <linearGradient
       id="linearGradient4304">
      <stop
         id="stop4306"
         style="stop-color:#1a1a1a"
         offset="0" />
      <stop
         id="stop4312"
         style="stop-color:#666"
         offset=".30357" />
      <stop
         id="stop4308"
         offset="1" />
    </linearGradient>
    <linearGradient
       id="linearGradient4533"
       y2="-2.5"
       xlink:href="#linearGradient7175"
       gradientUnits="userSpaceOnUse"
       x2="-29"
       x1="-29" />
    <linearGradient
       id="linearGradient4535"
       y2="56.094"
       xlink:href="#linearGradient4304"
       gradientUnits="userSpaceOnUse"
       x2="-26"
       y1="56.094"
       x1="-32" />
    <linearGradient
       id="linearGradient4537"
       y2="74.234"
       xlink:href="#linearGradient7175"
       gradientUnits="userSpaceOnUse"
       x2="-29.237"
       y1="35.764"
       x1="-29" />
    <linearGradient
       id="linearGradient4539"
       y2="17.75"
       gradientUnits="userSpaceOnUse"
       x2="-25"
       y1="17.75"
       x1="-33">
      <stop
         id="stop4296"
         style="stop-color:#999"
         offset="0" />
      <stop
         id="stop4302"
         style="stop-color:#e6e6e6"
         offset=".35268" />
      <stop
         id="stop4298"
         style="stop-color:#1f1f1f"
         offset="1" />
    </linearGradient>
    <linearGradient
       id="linearGradient4541"
       gradientUnits="userSpaceOnUse"
       x2="-29"
       y1="35.5"
       x1="-29">
      <stop
         id="stop4318"
         style="stop-opacity:.76818"
         offset="0" />
      <stop
         id="stop4326"
         style="stop-opacity:0"
         offset=".061763" />
      <stop
         id="stop4324"
         style="stop-color:#fff;stop-opacity:0"
         offset=".93853" />
      <stop
         id="stop4320"
         style="stop-color:#fff"
         offset="1" />
    </linearGradient>
    <filter
       id="filter4459"
       height="1.0514"
       width="1.72"
       color-interpolation-filters="sRGB"
       y="-.025714"
       x="-0.36">
      <feGaussianBlur
         id="feGaussianBlur4461"
         stdDeviation="0.3" />
    </filter>
    <linearGradient
       id="linearGradient4543"
       y2="16"
       gradientUnits="userSpaceOnUse"
       x2="-32"
       gradientTransform="matrix(-1,0,0,1,-66,0)"
       y1="16"
       x1="-36">
      <stop
         id="stop4492"
         style="stop-color:#ececec;stop-opacity:0"
         offset="0" />
      <stop
         id="stop4498"
         style="stop-color:#ccc"
         offset=".23398" />
      <stop
         id="stop4496"
         style="stop-color:#e6e6e6"
         offset=".50230" />
      <stop
         id="stop4494"
         style="stop-color:#aaa"
         offset="1" />
    </linearGradient>
    <clipPath
       id="clipPath3009"
       clipPathUnits="userSpaceOnUse">
      <path
         id="path3011"
         style="opacity:.15;fill:#fff"
         d="m-2 956.36h-96v33.562l96 25.687v-59.25z" />
    </clipPath>
  </defs>
  <metadata
     id="metadata11042">
    <rdf:RDF>
      <cc:Work
         rdf:about="">
        <dc:format>image/svg+xml</dc:format>
        <dc:type
           rdf:resource="http://purl.org/dc/dcmitype/StillImage" />
        <dc:title />
      </cc:Work>
    </rdf:RDF>
  </metadata>
  <g
     id="layer1"
     transform="translate(0 -956.36)">
    <rect
       id="rect3867"
       style="fill:url(#linearGradient11642)"
       rx="25"
       ry="25"
       height="92"
       width="92"
       y="958.36"
       x="2" />
    <path
       id="path3717"
       style="opacity:.6;enable-background:new;fill:#fff"
       d="m47.946 986.36c-9.2132 0-18.417 3.5241-25.446 10.554l4.2321 4.2322c11.716-11.716 30.713-11.716 42.429 0l4.2321-4.2322c-7.03-6.98-16.233-10.51-25.447-10.51zm0 12c-6.1421 0-12.296 2.3316-16.982 7.0178l4.2589 4.259c7.0294-7.0295 18.417-7.0295 25.446 0l4.2589-4.259c-4.6863-4.6862-10.84-7.0178-16.982-7.0178zm0 12c-3.0711 0-6.1479 1.1658-8.4911 3.5089l8.4911 8.4911 8.4911-8.4911c-2.3431-2.3431-5.42-3.5089-8.4911-3.5089z" />
    <g
       id="layer4"
       style="enable-background:new"
       transform="translate(-6 956.36)">
      <path
         id="path4591"
         style="opacity:.3;fill:url(#linearGradient4593)"
         d="m98.313 41.452c-0.49373-0.99192-1.6897-1.393-2.6817-0.89928l-1.8464 0.91904c-0.51182-0.65583-1.3121-1.0192-2.1225-0.96814-0.16208 0.0102-0.31459 0.05403-0.47534 0.09697l-0.47344-0.95119-25.067 12.477 0.4456 0.89523-0.89523 0.4456-2.2381 1.114c-0.73774 0.3672-1.2101 1.0363-1.3449 1.7864-2.6448 1.3268-5.2139 2.6292-7.6935 3.8992-0.03863 0.01974-0.07332 0.03598-0.1119 0.0557-2.3662 1.2124-4.6511 2.3953-6.8264 3.5374-0.0096 0.005-0.01837 0.0089-0.02798 0.01393-0.0089 0.0046-0.01913 0.0093-0.02798 0.01393-0.65349 0.34318-1.2406 0.66707-1.8745 1.0028-0.04657 0.02467-0.09341 0.045-0.13988 0.06962-0.07435 0.03941-0.14974 0.0721-0.22381 0.1114-0.43795 0.2265-0.88777 0.46181-1.301 0.68244-12.569 6.7117-20.861 11.808-20.218 13.1 0.68077 1.3677 9.7214-2.2259 22.641-8.2325 3.956-1.8392 8.1769-3.8363 12.757-6.0702 0.99672-0.48619 2.0582-1.0309 3.0774-1.5317 0.87098-0.42804 1.758-0.84317 2.6437-1.281 0.67972 0.34471 1.4983 0.37125 2.2361 0.004l27.752-13.814c1.0849-0.54 1.5915-1.7514 1.2909-2.8766l1.8464-0.91904c0.99192-0.49372 1.393-1.6897 0.89928-2.6817z" />
      <path
         id="rect4284"
         style="opacity:.6;fill:url(#linearGradient4589)"
         d="m104.29 57.146c-0.28678-1.0702-1.3792-1.701-2.4495-1.4142l-1.9922 0.53381c-0.3713-0.74445-1.0834-1.2596-1.8878-1.3706-0.16088-0.0222-0.31906-0.0096-0.48513 0.000581l-0.275-1.0263-27.046 7.2469 0.25882 0.96592-0.96592 0.25882-2.4148 0.64705c-0.796 0.21329-1.3919 0.77518-1.673 1.4836-2.8557 0.7748-5.6324 1.5407-8.3149 2.2927-0.04178 0.01167-0.07901 0.0207-0.12074 0.03235-2.5599 0.71801-5.0343 1.4233-7.3932 2.1104-0.01042 0.003-0.01977 0.0051-0.03019 0.0081-0.0096 0.0028-0.0206 0.0053-0.03019 0.0081-0.70865 0.20649-1.3484 0.40725-2.0364 0.61036-0.05055 0.01492-0.10049 0.02554-0.15092 0.04044-0.0807 0.02385-0.16108 0.04091-0.24148 0.0647-0.47422 0.13496-0.96183 0.27619-1.4106 0.41033-13.652 4.0803-22.792 7.4276-22.418 8.8216 0.39542 1.4757 9.9699-0.24982 23.826-3.5694 4.2426-1.0164 8.7762-2.135 13.708-3.4143 1.0735-0.27844 2.222-0.60132 3.3204-0.88969 0.93866-0.24644 1.8905-0.47702 2.8455-0.7301 0.59767 0.47291 1.3947 0.66157 2.1907 0.44829l29.944-8.0234c1.1706-0.31366 1.9077-1.4002 1.8368-2.5627l1.9922-0.53382c1.0702-0.28677 1.701-1.3792 1.4142-2.4495z" />
      <g
         id="g4511"
         transform="matrix(.5 .86603 -.86603 .5 106.88 63.996)">
        <rect
           id="rect4513"
           style="opacity:.73307;fill:url(#linearGradient4531)"
           rx="2"
           ry="2"
           height="8"
           width="4"
           y="-4"
           x="-31" />
        <rect
           id="rect4515"
           style="opacity:.73307;fill:url(#linearGradient4533)"
           rx="2"
           ry="2"
           height="8"
           width="4"
           y="-4"
           x="-31" />
        <path
           id="path4517"
           style="fill:url(#linearGradient4535)"
           d="m-32 32.25c0.01081 26.348 0.84562 47.688 3 47.688 2.2806-0.000001 2.9892-21.339 3-47.688h-6z" />
        <path
           id="path4519"
           style="opacity:.8;fill:url(#linearGradient4537)"
           d="m-32 32.25c0.01081 26.348 0.84562 47.688 3 47.688 2.2806-0.000001 2.9892-21.339 3-47.688h-6z" />
        <path
           id="path4521"
           style="fill:url(#linearGradient4539)"
           d="m-30.5 0c-1.385 0-2.5 1.115-2.5 2.5v31c0 0.82408 0.38852 1.5451 1 2h6c0.61148-0.45491 1-1.1759 1-2v-31c0-1.385-1.115-2.5-2.5-2.5h-3z" />
        <path
           id="path4523"
           style="fill:url(#linearGradient4541)"
           d="m-30.5 6.5548e-8c-1.385 0-2.5 1.115-2.5 2.5v31c0 0.82408 0.38852 1.5451 1 2h6c0.61148-0.45491 1-1.1759 1-2v-31c0-1.385-1.115-2.5-2.5-2.5h-3z" />
        <path
           id="path4525"
           style="opacity:.10757;fill:#fff"
           d="m-31.969 40.062c0.0049 0.67057 0.02557 1.2787 0.03125 1.9375h5.875c0.0056-0.65882 0.02695-1.2669 0.03125-1.9375h-5.9375zm0.03125 4.0625c0.02845 2.7336 0.07305 5.3584 0.125 7.875h5.625c0.05199-2.5166 0.09557-5.1414 0.125-7.875h-5.875zm0.1875 10c0.01507 0.61155 0.01413 1.2773 0.03125 1.875h5.4375c0.01593-0.59769 0.01671-1.2634 0.03125-1.875h-5.5z" />
        <rect
           id="rect4527"
           style="opacity:.4;filter:url(#filter4459)"
           height="28"
           width="2"
           y="3"
           x="-33" />
        <path
           id="path4529"
           style="fill:url(#linearGradient4543)"
           d="m-34 2v28h2v-22h2v-4h-2v-2h-2z" />
      </g>
    </g>
    <rect
       id="rect3003"
       style="opacity:.15;fill:#fff"
       transform="translate(98 3.8281e-7)"
       clip-path="url(#clipPath3009)"
       rx="25"
       ry="25"
       height="92"
       width="92"
       y="958.36"
       x="-96" />
  </g>
</svg>
