<?xml version="1.0" encoding="UTF-8" standalone="no"?>
<!-- Created with Inkscape (http://www.inkscape.org/) -->

<svg
   xmlns:dc="http://purl.org/dc/elements/1.1/"
   xmlns:cc="http://creativecommons.org/ns#"
   xmlns:rdf="http://www.w3.org/1999/02/22-rdf-syntax-ns#"
   xmlns:svg="http://www.w3.org/2000/svg"
   xmlns="http://www.w3.org/2000/svg"
   xmlns:sodipodi="http://sodipodi.sourceforge.net/DTD/sodipodi-0.dtd"
   xmlns:inkscape="http://www.inkscape.org/namespaces/inkscape"
   id="svg11037"
   height="96"
   width="96"
   version="1.1"
   inkscape:version="0.48.5 r10040"
   sodipodi:docname="preferences-desktop-accessibility.svg">
  <sodipodi:namedview
     pagecolor="#ffffff"
     bordercolor="#666666"
     borderopacity="1"
     objecttolerance="10"
     gridtolerance="10"
     guidetolerance="10"
     inkscape:pageopacity="0"
     inkscape:pageshadow="2"
     inkscape:window-width="640"
     inkscape:window-height="480"
     id="namedview270" />
  <defs
     id="defs11039">
    <linearGradient
       id="linearGradient11642"
       y2="1046.1"
       gradientUnits="userSpaceOnUse"
       y1="962.62"
       gradientTransform="matrix(1.15 0 0 1.15 -7.1999 -150.65)"
       x2="48"
       x1="48">
      <stop
         id="stop3189"
         style="stop-color:#1d5282"
         offset="0" />
      <stop
         id="stop3191"
         style="stop-color:#568ec2"
         offset="1" />
    </linearGradient>
    <clipPath
       id="clipPath3009"
       clipPathUnits="userSpaceOnUse">
      <path
         id="path3011"
         style="opacity:.15;fill:#fff"
         d="m-2 956.36h-96v33.562l96 25.687v-59.25z" />
    </clipPath>
  </defs>
  <metadata
     id="metadata11042">
    <rdf:RDF>
      <cc:Work
         rdf:about="">
        <dc:format>image/svg+xml</dc:format>
        <dc:type
           rdf:resource="http://purl.org/dc/dcmitype/StillImage" />
        <dc:title />
      </cc:Work>
    </rdf:RDF>
  </metadata>
  <g
     id="layer1"
     transform="translate(0 -956.36)">
    <rect
       id="rect3867"
       style="fill:url(#linearGradient11642)"
       rx="25"
       ry="25"
       height="92"
       width="92"
       y="958.36"
       x="2" />
    <path
       id="path6668"
       style="fill:#fff"
       d="m54.566 982.77c0 3.5397-2.8086 6.4124-6.2691 6.4124s-6.2691-2.8728-6.2691-6.4124c0-3.5397 2.8086-6.4124 6.2691-6.4124s6.2691 2.8728 6.2691 6.4124zm15.647 6.8185c-0.28996 0.048-0.5367 0.12777-0.82626 0.17625l-21.387 3.5807-21.299-3.735c-0.67525-0.11841-1.3247-0.25855-1.9399 0.0447-0.61521 0.30325-1.0185 1.022-1.027 1.706-0.0078 0.68404 0.41945 1.274 1.027 1.5922l16.69 5.4156-0.11415 12.432-5.8892 18.62c-0.5672 0.8479-0.39432 1.9368 0.45645 2.502 0.85081 0.5654 2.0573 0.3931 2.6246-0.4548l9.5039-20.098 9.3245 20.063c0.5042 0.8794 1.6281 1.1849 2.5105 0.6824 0.88232-0.5025 1.1889-1.6226 0.68467-2.5021l-5.7799-18.7-0.0082-12.254 16.704-5.7729c0.6838-0.47792 0.98087-1.3827 0.68469-2.1608-0.29619-0.77824-1.1102-1.2317-1.9399-1.1374h0.000055z" />
    <rect
       id="rect3003"
       style="opacity:.15;fill:#fff"
       transform="translate(98 3.8281e-7)"
       clip-path="url(#clipPath3009)"
       rx="25"
       ry="25"
       height="92"
       width="92"
       y="958.36"
       x="-96" />
  </g>
</svg>
