<svg height="96" width="96" xmlns="http://www.w3.org/2000/svg" xmlns:xlink="http://www.w3.org/1999/xlink" xmlns:sodipodi="http://sodipodi.sourceforge.net/DTD/sodipodi-0.dtd" xmlns:inkscape="http://www.inkscape.org/namespaces/inkscape">
 <defs>
  <linearGradient x2="0" y1="962.62" y2="1046.1" gradientUnits="userSpaceOnUse" id="linearGradient11642" gradientTransform="matrix(1.15 0 0 1.15 -7.2 -150.65)">
   <stop stop-color="#917896"/>
   <stop stop-color="#3c356e" offset="0.5"/>
   <stop stop-color="#121132" offset="1"/>
  </linearGradient>
  <radialGradient cy="65.12" r="16.06" gradientUnits="userSpaceOnUse" id="radialGradient3241" cx="65.796" gradientTransform="matrix(0.72247 0 0 0.8033 -0.377 -4.463)">
   <stop stop-color="#ffa727"/>
   <stop stop-color="#ffe680" offset="1"/>
  </radialGradient>
  <radialGradient cy="34.05" r="4.248" gradientUnits="userSpaceOnUse" id="radialGradient3282" cx="30.23">
   <stop stop-color="#fff"/>
   <stop stop-color="#fff" offset="0.15"/>
   <stop stop-color="#fff" stop-opacity="0.438" offset="0.3"/>
   <stop stop-color="#412788" stop-opacity="0" offset="1"/>
  </radialGradient>
  <radialGradient cy="34.05" r="4.248" gradientUnits="userSpaceOnUse" id="radialGradient3298" cx="30.23">
   <stop stop-color="#fff"/>
   <stop stop-color="#fff" stop-opacity="0.617" offset="0.3"/>
   <stop stop-color="#fff" stop-opacity="0.219" offset="0.6"/>
   <stop stop-color="#fff" stop-opacity="0" offset="1"/>
  </radialGradient>
  <linearGradient x2="0" xlink:href="#linearGradient3418" y1="71.48" y2="86.23" gradientUnits="userSpaceOnUse" id="linearGradient4000" gradientTransform="matrix(0.72247 0 0 0.72247 3.623 3.601)"/>
  <linearGradient id="linearGradient3418">
   <stop stop-color="#fff"/>
   <stop stop-color="#98b7e5" offset="1"/>
  </linearGradient>
  <linearGradient x2="0" y1="78.78" y2="73.28" gradientUnits="userSpaceOnUse" id="linearGradient3450">
   <stop stop-color="#fff" stop-opacity="0"/>
   <stop stop-color="#aac2e7" offset="1"/>
  </linearGradient>
  <linearGradient x2="0" xlink:href="#linearGradient3418" y1="85.3" y2="92.01" gradientUnits="userSpaceOnUse" id="linearGradient3992" gradientTransform="matrix(0.72247 0 0 0.72247 1.623 6.601)"/>
  <linearGradient x2="0" xlink:href="#linearGradient3418" y1="49.562" y2="56.03" gradientUnits="userSpaceOnUse" id="linearGradient4008" gradientTransform="matrix(0.72247 0 0 0.72247 1.623 3.601)"/>
  <clipPath clipPathUnits="userSpaceOnUse" id="clipPath3009">
   <path d="m-2 956.36h-96v33.562l96 25.687v-59.25z"/>
  </clipPath>
  <path d="m34.481 34.052a4.2476 4.2476 0 1 1 -8.4953 0 4.2476 4.2476 0 1 1 8.4953 0z" id="SVGCleanerId_0"/>
  <path d="m86.202 76.029a4.7474 2.7485 0 1 1 -9.4947 0 4.7474 2.7485 0 1 1 9.4947 0z" fill="url(#linearGradient3450)" id="SVGCleanerId_1"/>
 </defs>
 <g transform="matrix(1 0 0 1 0 -956.36)">
  <rect x="2" rx="25" y="958.36" fill="url(#linearGradient11642)" height="92" width="92"/>
  <g enable-background="new" transform="matrix(1 0 0 1 0 956.36)">
   <path d="m36.812 33c-2.4306-0.49322-3.6511 2.6043-5.7166 2.1701-2.616-0.27339-3.237 2.7935-5.1967 3.3096-2.9649 0.92196-3.9431 5.2116-1.4098 7.1703 2.4008 2.2059 6.6095 2.038 8.6668-0.55626 2.4172 0.05757 3.6667 2.6401 6.3933 2.1474 2.5456 0.17774 3.8664-2.9019 6.4638-1.6007 2.2581 0.61478 5.4939-0.25562 6.1116-2.7654 0.13252-1.359-1.4568-2.423-2.6562-1.7812-1.5431-0.4339-1.872-3.9374-4.2077-4.2171-1.9411 0.28102-3.2424-0.16092-4.1354-2.0505-1.11-1.163-2.704-1.837-4.313-1.826zm6.375 5.8438c2.137 0.60247-0.72417 0.71032-0.5625 0.21875 0.15167-0.14479 0.36153-0.19614 0.5625-0.21875zm23.719 12.344c-2.4838-0.1957-3.5799 2.909-6 1.5312-3.299-0.29467-4.7787 2.8577-7.9064 2.8851-3.3631 0.84373-3.0425 5.9741 0.40636 6.3024-0.1425 2.727 2.9756 3.091 4.7899 3.879 2.0726 1.6378 5.0283 1.3748 7.2367 1.4434 2.0949 2.153 6.0124 1.0434 6.9734-1.6973 2.2672-0.91489 4.9114-0.69201 7.033-2.088 1.32-0.357 2.3-1.989 1.311-3.163-1.109-1.528-3.063 0.112-4.438-0.562-0.909-1.473-1.703-3.257-3.565-3.766-1.359-1.803-2.472-5.06-5.841-4.765zm-17.656 14.124c-2.2482 0.9788-5.2583-0.64652-6.801 2.0826-2.2888 0.62627-4.1379 3.7029-2.1165 5.812 1.8222 2.2834 5.1127 2.2713 7.5638 1.524 2.1131 0.65362 4.4137 1.3725 6.2752-0.28642 1.8945-0.52164 3.707-1.1731 5.3228-2.3593 1.6002-2.4504-1.6088-4.3724-3.7531-4.5456-2.248-0.311-3.9-2.634-6.491-2.227z" opacity="0.05"/>
   <path d="m36.812 33.906c-1.8427 0-3.3472 1.0128-4.2812 2.4062-0.34406-0.09913-0.65807-0.25-1.0625-0.25-1.8092 0-3.4016 1.1338-3.7188 2.75-0.89818 0.1379-1.7169 0.43612-2.375 0.9375-0.85156 0.64874-1.4687 1.6105-1.4688 2.7188 0 1.131 0.62198 2.1243 1.5 2.7812 0.87802 0.65693 2.0323 1.0312 3.2812 1.0312 1.8243 0 3.4502-0.81642 4.25-2.1562 0.55726 0.19068 1.072 0.46875 1.75 0.46875 0.3144 0 0.55673-0.11196 0.84375-0.15625 0.23285 0.52925 0.60467 0.9954 1.0938 1.2812 0.71842 0.41989 1.6016 0.625 2.5625 0.625 0.85337 0 1.6443-0.16718 2.3125-0.5 0.4777-0.23794 0.86262-0.62176 1.1562-1.0625 0.46222-0.06137 0.91225-0.14407 1.3125-0.3125 0.8136-0.07582 1.8814 0.28216 3.125 0.4375s2.8126-0.13296 3.9375-1.5938a0.93431 0.93431 0 0 0 -1.155 -1.408c-0.60329 0.27898-0.93701 0.28532-1.125 0.25s-0.29965-0.09883-0.46875-0.3125c-0.30083-0.38013-0.60757-1.2219-1.0312-2-0.05262-0.09664-0.06648-0.15442-0.125-0.25l-0.031 0.031c-0.44383-1.1817-1.5629-2-2.875-2-0.52051 0-0.99908 0.15212-1.4375 0.375-0.08833-0.09529-0.08974-0.26878-0.1875-0.34375-0.26366-0.20219-0.5904-0.26799-0.90625-0.375-0.69402-1.9671-2.602-3.375-4.875-3.375zm6.5312 5.4062h0.03125c-0.03129 0.36058-0.20188 0.45618-0.1875 0.4375 0.01056-0.01371 0.09977-0.22577 0.15625-0.4375zm23.562 12.781c-1.5827 0-2.8639 0.88509-3.6562 2.0938-0.72668-0.27483-1.4658-0.5625-2.3438-0.5625-1.1943 0-2.2944 0.2815-3.1562 0.78125-0.6068 0.35186-1.0204 0.89864-1.2812 1.5312-0.13843-0.0093-0.25936-0.03125-0.40625-0.03125-1.153 0-2.1926 0.22137-3.0312 0.65625-0.83868 0.43488-1.5938 1.1753-1.5938 2.1875s0.75507 1.7526 1.5938 2.1875c0.43262 0.22433 1.0326 0.23193 1.5625 0.34375-0.10995 0.23536-0.3125 0.41225-0.3125 0.6875 0 0.91826 0.65567 1.5804 1.375 1.9688 0.63376 0.34214 1.4354 0.50961 2.2812 0.59375 1.3119 1.1175 3.1637 1.8125 5.25 1.8125 0.78933 0 1.4963-0.16622 2.1875-0.34375 0.67813 0.84977 1.6514 1.4688 2.8438 1.4688 1.6654 0 3.0764-1.0704 3.5-2.5625 0.0062-0.02189 0.02549-0.04042 0.03125-0.0625 0.6104-0.09829 1.1748-0.32728 1.6562-0.65625v0.0625c1.7849-0.47456 3.3653-0.15961 6.4375-2.0625a0.93431 0.93431 0 0 0 -0.719 -1.688c-1.64 0.39299-2.5082 0.34669-2.9375 0.1875-0.42934-0.15919-0.65363-0.4495-1.0625-1.1562l-0.03125 0.03125c-0.49882-1.7126-1.9755-3.0025-3.8125-3.0625 0.005-0.0788 0.0625-0.13867 0.0625-0.21875 0-2.3277-2.0265-4.1875-4.4375-4.1875zm-17.625 14.125c-0.87388 0.02717-1.5939 0.3413-2.2812 0.6875-0.31953-0.14796-0.62395-0.33098-0.96875-0.375-1.3614-0.17383-2.7491 0.55631-3.0938 1.8438-0.47744 0.12519-0.98709 0.23653-1.375 0.5-0.5975 0.40582-1.089 1.0096-1.1875 1.7812-0.12718 0.99608 0.41944 1.895 1.1562 2.5 0.73681 0.60495 1.7115 1.0157 2.8125 1.1562 1.1979 0.15296 2.2931-0.12857 3.1875-0.625 0.29224 0.09565 0.56866 0.2069 0.90625 0.25 0.32277 0.04121 0.63241 0.01496 0.9375 0 0.42728 0.37598 0.93367 0.70096 1.5625 0.78125 1.0368 0.13239 1.9433-0.38843 2.5312-1.1562 0.56291 0.05392 1.1163 0.03005 1.5938-0.125 0.43911-0.14259 0.8817-0.49078 1.0938-1.0312 0.42315-0.02154 0.89322-0.0093 1.25-0.09375 0.32985-0.07811 0.64622-0.18612 0.9375-0.375s0.62571-0.51605 0.6875-1c0.07092-0.55548-0.21977-1.0102-0.5-1.2812-0.28023-0.27104-0.6273-0.45147-1-0.625-0.74539-0.34706-1.6801-0.61339-2.75-0.75-0.265-0.034-0.494-0.021-0.718-0.031-0.80073-1.0205-2.0481-1.7674-3.625-1.9688-0.36399-0.04648-0.75882-0.07487-1.1562-0.0625z" opacity="0.1"/>
   <path d="m49.609 34.058c3.0542 2.1191 5.0799 5.6442 5.0799 9.6405-0.000002 6.477-5.2632 11.74-11.74 11.74-1.4373-0.000001-2.8135-0.27147-4.0865-0.74505 2.3554 3.1363 6.0965 5.1702 10.318 5.1702 7.1247 0 12.892-5.7895 12.892-12.914 0-6.9788-5.5395-12.662-12.463-12.892z" fill="url(#radialGradient3241)"/>
   <use xlink:href="#SVGCleanerId_0" fill="url(#radialGradient3282)" transform="matrix(0.72247 0 0 0.72247 1.623 0.601)"/>
   <use xlink:href="#SVGCleanerId_0" fill="url(#radialGradient3282)" transform="matrix(1.02 0 0 1.02 34.51 -7.432)"/>
   <use xlink:href="#SVGCleanerId_0" fill="url(#radialGradient3298)" transform="matrix(0.48873 0 0 0.48873 4.283 45.23)"/>
   <use xlink:href="#SVGCleanerId_0" fill="url(#radialGradient3298)" transform="matrix(0.48873 0 0 0.48873 56.2 27.548)"/>
   <use xlink:href="#SVGCleanerId_0" fill="url(#radialGradient3298)" transform="matrix(0.36464 0 0 0.36464 66.09 26.21)"/>
   <use xlink:href="#SVGCleanerId_0" fill="url(#radialGradient3298)" transform="matrix(0.36464 0 0 0.36464 45.958 9.183)"/>
   <use xlink:href="#SVGCleanerId_0" fill="url(#radialGradient3298)" transform="matrix(0.36464 0 0 0.36464 6.786 23.985)"/>
   <use xlink:href="#SVGCleanerId_0" fill="url(#radialGradient3282)" transform="matrix(0.72247 0 0 0.72247 14.172 49.577)"/>
   <use xlink:href="#SVGCleanerId_0" fill="url(#radialGradient3298)" transform="matrix(0.36464 0 0 0.36464 31.549 7.05)"/>
   <use xlink:href="#SVGCleanerId_0" fill="url(#radialGradient3298)" transform="matrix(0.48873 0 0 0.48873 35.22 11.853)"/>
   <use xlink:href="#SVGCleanerId_0" fill="url(#radialGradient3282)" transform="matrix(1.2003 0 0 1.2003 -9.329 11.135)"/>
   <path d="m36.812 34.844c-1.7877 0-3.3283 1.0287-3.9688 2.4688-0.411-0.181-0.873-0.313-1.374-0.313-1.6051 0-2.9062 1.0508-2.9062 2.3438 0 0.08081-0.0099 0.17129 0 0.25 0.000419 0.0033-0.000436 0.02793 0 0.03125-2.0696 0.0414-3.7187 1.2871-3.7188 2.8438 0 1.5828 1.726 2.875 3.8438 2.875 1.8339 0 3.3716-0.96394 3.75-2.25 0.54829 0.33914 1.339 0.5625 2.25 0.5625 0.57609 0 1.106-0.10097 1.5625-0.25-0.01788 0.07908-0.03125 0.16796-0.03125 0.25 0 0.98087 1.3414 1.75 2.9688 1.75 1.4423 0 2.6516-0.61245 2.9062-1.4375 0.66524-0.01618 1.2714-0.17901 1.7812-0.4375 2.2081-0.20576 4.5226 1.6648 6.4062-0.78125-2.8626 1.3237-3.1192-1.3198-3.9375-2.6562-0.23828-0.8935-1.1053-1.5312-2.125-1.5312-0.65026 0-1.2253 0.2607-1.625 0.6875-0.04926-0.0068-0.10643-0.02534-0.15625-0.03125 0.002-0.02305 0.03125-0.03913 0.03125-0.0625 0-0.57904-0.65565-1.0446-1.5-1.1875-0.41696-1.7827-2.1045-3.125-4.1562-3.125zm30.094 18.188c-1.5276 0-2.8286 0.90441-3.3125 2.1562-0.68654-0.39087-1.6458-0.625-2.6875-0.625-2.0971 0-3.7812 0.98167-3.7812 2.1875 0 0.05954-0.0081 0.12916 0 0.1875-0.33754-0.05197-0.6921-0.09375-1.0625-0.09375-2.0447 0-3.6875 0.8577-3.6875 1.9062 0 1.0486 1.6428 1.9062 3.6875 1.9062 0.18142 0 0.35678-0.01831 0.53125-0.03125-0.8431 0.31238-1.375 0.78877-1.375 1.3438 0 0.87486 1.3508 1.5868 3.0938 1.6875 1.108 1.0487 2.8755 1.75 4.875 1.75 0.88736 0 1.7397-0.16561 2.5-0.40625 0.41185 0.89898 1.3807 1.5312 2.5312 1.5312 1.4615 0 2.6595-1.0226 2.75-2.3125 0.11185-0.059 0.23681-0.10358 0.34375-0.15625 0.70218-0.02886 1.3264-0.29952 1.8438-0.71875 1.9932-0.52994 3.2715-0.13137 6.1875-1.9375-3.431 0.821-4.164 0.089-5.031-1.408-0.33224-1.4719-1.6258-2.5938-3.1562-2.5938-0.37399 0-0.72834 0.06695-1.0625 0.1875 0.19912-0.40495 0.3125-0.8395 0.3125-1.3125 0-1.7825-1.5602-3.25-3.5-3.25zm-17.594 14.125c-0.95933 0.02983-1.7898 0.2761-2.375 0.6875-0.2824-0.20059-0.64191-0.32529-1.0312-0.375-1.0632-0.13575-2.0145 0.44714-2.125 1.3125-0.01236 0.09681-0.0089 0.18664 0 0.28125-1.3228 0.14533-2.3517 0.80225-2.4688 1.7188-0.15153 1.1868 1.2719 2.3532 3.1562 2.5938 1.2272 0.15669 2.3513-0.12034 3.0312-0.65625 0.32627 0.13153 0.67309 0.23153 1.0625 0.28125 0.38942 0.04972 0.77615 0.0453 1.125 0 0.30018 0.3957 0.78779 0.70627 1.375 0.78125 0.99198 0.12666 1.8881-0.4161 2.0625-1.2188 0.10147 0.02133 0.20492 0.04876 0.3125 0.0625 1.0137 0.12943 1.8775-0.15523 1.9375-0.625 0.02062-0.16148-0.06641-0.31852-0.21875-0.46875 1.6061 0.08913 2.8696-0.18695 2.9375-0.71875 0.07892-0.61812-1.4595-1.3412-3.4375-1.5938-0.3215-0.04105-0.63781-0.04949-0.9375-0.0625-0.47326-0.93767-1.7797-1.7298-3.4062-1.9375-0.33808-0.04317-0.68022-0.07245-1-0.0625z" opacity="0.3"/>
   <path d="m66.892 52.327c-1.5276 0-2.8184 0.89821-3.3023 2.1501-0.68654-0.39087-1.631-0.62957-2.6727-0.62957-2.0971 0-3.8012 0.97986-3.8012 2.1857 0 0.05954 0.0038 0.11984 0.01188 0.17818-0.33754-0.05197-0.6868-0.08315-1.0572-0.08315-2.0447 0-3.7062 0.85205-3.7062 1.9006s1.6615 1.9006 3.7062 1.9006c0.18142 0 0.36008-0.01082 0.53454-0.02376-0.8431 0.31238-1.3898 0.7992-1.3898 1.3542 0 0.87486 1.3574 1.5861 3.1004 1.6868 1.108 1.0487 2.8708 1.7343 4.8703 1.7343 0.88736 0 1.7343-0.15136 2.4945-0.392 0.41185 0.89898 1.3915 1.5324 2.5421 1.5324 1.4615 0 2.6534-1.0264 2.744-2.3164 0.11185-0.059 0.22567-0.11364 0.3326-0.1663 0.70218-0.02886 1.3476-0.28162 1.865-0.70085 1.9932-0.52994 3.2729-0.15386 6.1888-1.96-3.4314 0.82226-4.1823 0.09561-5.0485-1.4017-0.33224-1.4719-1.6055-2.5777-3.136-2.5777-0.37399 0-0.73492 0.06951-1.0691 0.19006 0.19912-0.40495 0.30885-0.85742 0.30885-1.3304 0-1.7825-1.5763-3.231-3.5161-3.231z" fill="url(#linearGradient4000)"/>
   <use xlink:href="#SVGCleanerId_1" transform="matrix(0.72247 0 0 0.72247 2.72 3.601)"/>
   <use xlink:href="#SVGCleanerId_1" transform="matrix(0.95062 0 0 0.95235 -10.09 -11.8)"/>
   <use xlink:href="#SVGCleanerId_1" transform="matrix(0.72116 0 0 0.72247 4.265 7.03)"/>
   <use xlink:href="#SVGCleanerId_1" transform="matrix(0.74149 0 0 0.95235 6.532 -17.396)"/>
   <path d="m50.313 66.491c-1.3523-0.17267-2.6047 0.10099-3.3851 0.64952-0.2824-0.20059-0.63093-0.34245-1.0203-0.39216-1.0632-0.13575-2.0169 0.45714-2.1274 1.3225-0.01236 0.09681-0.01107 0.18978-0.0022 0.28439-1.3228 0.14533-2.3462 0.8072-2.4633 1.7237-0.15153 1.1868 1.2582 2.3469 3.1425 2.5875 1.2272 0.15669 2.3535-0.12434 3.0334-0.66025 0.32627 0.13154 0.69142 0.22492 1.0808 0.27464 0.38942 0.04972 0.76631 0.05108 1.1152 0.0058 0.30018 0.3957 0.79492 0.6936 1.3821 0.76858 0.99198 0.12666 1.8826-0.41497 2.057-1.2176 0.10147 0.02133 0.20326 0.04872 0.31085 0.06247 1.0137 0.12943 1.8862-0.14713 1.9462-0.61689 0.02062-0.16148-0.06076-0.32106-0.2131-0.47129 1.6061 0.08913 2.8494-0.20021 2.9173-0.73201 0.07892-0.61812-1.4642-1.3256-3.4422-1.5782-0.3215-0.04105-0.62476-0.05948-0.92445-0.07249-0.47326-0.93767-1.781-1.7304-3.4076-1.9381z" fill="url(#linearGradient3992)"/>
   <use xlink:href="#SVGCleanerId_1" transform="matrix(0.66544 0 0 0.75531 -9.165 13.04)"/>
   <use xlink:href="#SVGCleanerId_1" transform="matrix(0.87762 0 0 0.75531 -22.01 11.235)"/>
   <use xlink:href="#SVGCleanerId_0" fill="url(#radialGradient3298)" transform="matrix(0.48873 0 0 0.48873 17.822 24.11)"/>
   <path d="m36.798 34.115c-1.7877 0-3.3094 1.0248-3.9498 2.4648-0.41199-0.18036-0.88237-0.28285-1.384-0.28285-1.6051 0-2.9093 1.0507-2.9093 2.3436 0 0.08081 0.01027 0.16373 0.0202 0.24244 0.000419 0.0033-0.000437 0.0068 0 0.01011-2.0696 0.0414-3.7276 1.3022-3.7276 2.8588 0 1.5828 1.7108 2.8689 3.8286 2.8689 1.8339 0 3.3693-0.96665 3.7478-2.2527 0.54829 0.33914 1.3619 0.5556 2.2729 0.5556 0.57609 0 1.1093-0.09342 1.5658-0.24244-0.01788 0.07908-0.03031 0.16041-0.03031 0.24244 0 0.98087 1.3224 1.7779 2.9497 1.7779 1.4423 0 2.6446-0.62961 2.8992-1.4547 0.66524-0.01618 1.2782-0.17589 1.788-0.43438 2.2081-0.20576 4.531 1.6682 6.4147-0.77784-2.8626 1.3237-3.1215-1.3102-3.9397-2.6467-0.23828-0.8935-1.0916-1.5557-2.1113-1.5557-0.65026 0-1.2368 0.27022-1.6365 0.69703-0.04926-0.0068-0.10171-0.0143-0.15153-0.02021 0.002-0.02305 0.0101-0.04734 0.0101-0.07071 0-0.57904-0.63052-1.0592-1.4749-1.2021-0.41697-1.7827-2.1304-3.1215-4.1822-3.1215z" fill="url(#linearGradient4008)"/>
   <use xlink:href="#SVGCleanerId_1" transform="matrix(0.95062 0 0 0.95235 -43.14 -32.56)"/>
   <use xlink:href="#SVGCleanerId_1" transform="matrix(0.57037 0 0 0.62395 -7.45 -6.509)"/>
   <use xlink:href="#SVGCleanerId_1" transform="matrix(0.68445 0 0 0.75531 -27.03 -16.316)"/>
   <use xlink:href="#SVGCleanerId_1" transform="matrix(0.77951 0 0 0.95235 -26.581 -35.809)"/>
  </g>
  <rect x="-96" rx="25" y="958.36" clip-path="url(#clipPath3009)" fill="#fff" height="92" opacity="0.15" width="92" transform="matrix(1 0 0 1 98 0)"/>
 </g>
</svg>
