<svg height="96" width="96" xmlns="http://www.w3.org/2000/svg" xmlns:sodipodi="http://sodipodi.sourceforge.net/DTD/sodipodi-0.dtd" xmlns:inkscape="http://www.inkscape.org/namespaces/inkscape">
 <g transform="matrix(1 0 0 1 0 0)">
  <rect x="8" rx="10.769" y="-88" fill="#107028" fill-opacity="0.992" stroke="none" height="80" opacity="0.99" width="80" transform="matrix(0 1 -1 0 0 0)"/>
  <path d="m 27.145704,16.832008 c -0.558253,1.938155 -0.866502,3.982362 -0.866502,6.100172 0,12.156419 9.852716,22.009136 22.009135,22.009136 12.15642,0 22.009137,-9.852717 22.009137,-22.009136 0,-2.11781 -0.308253,-4.162017 -0.866502,-6.100172 l -42.285268,0 z" fill="#ffffff" fill-opacity="1" stroke="none" inkscape:connector-curvature="0"/>
  <g fill="#ffffff" transform="matrix(0.63358 0 0 0.63358 17.877 20.936)">
   <path d="m 47.381232,84.942232 -5.873914,-51.602778 6.271826,-13.19513 6.713537,12.975964 z" fill-opacity="1" stroke="none" sodipodi:nodetypes="ccccc" inkscape:connector-curvature="0"/>
   <path d="m 48,78.178836 c -8.010027,0 -15.078101,3.965679 -19.375,10.043004 l 38.75,0 C 63.078101,82.144515 56.010027,78.178836 48,78.178836 z" fill-opacity="1" stroke="none" inkscape:connector-curvature="0"/>
  </g>
  <path d="m 27.873561,24.298324 c 0.09266,10.204423 9.19999,18.456482 20.414778,18.456482 11.214784,0 20.322117,-8.252059 20.414774,-18.456482 l -40.829552,0 z" fill="#d92026" fill-opacity="1" stroke="none" inkscape:connector-curvature="0"/>
  <path d="m 65.72797,44.780473 c -1.936935,0 -3.471094,0.741594 -4.574542,2.279266 -1.307164,1.822743 -1.974264,4.7094 -1.974264,8.603609 0,3.61216 0.474469,6.361998 1.428544,8.249924 0.939919,1.858111 2.303362,2.967522 4.044831,3.338605 0.378941,1.837528 0.964098,3.079917 1.765566,3.723902 0.605716,0.487889 1.412534,0.738327 2.407671,0.738327 0.300746,0 0.62799,-0.02042 0.963035,-0.06453 l 1.139633,-0.160588 v -2.487882 c -0.175429,0.02042 -0.343825,0.0147 -0.497593,0.0147 -0.53167,0 -0.929954,-0.105779 -1.187825,-0.337022 -0.332317,-0.301163 -0.58938,-0.869346 -0.754386,-1.717454 1.637732,-0.560586 2.843283,-1.777246 3.627516,-3.627598 0.770722,-1.824703 1.155724,-4.28947 1.155724,-7.431629 0,-3.430417 -0.517425,-6.042947 -1.57304,-7.865037 -1.07494,-1.863176 -2.729418,-2.947592 -5.007949,-3.210201 -0.330331,-0.03921 -0.653067,-0.04819 -0.963035,-0.04819 z m 10.449632,1.348331 -0.914925,3.868316 -1.444635,-0.0963 v 2.584268 l 1.187825,0.06453 v 9.791271 c 0,1.281516 0.250577,2.211225 0.770445,2.792886 0.446174,0.502101 1.104101,0.754418 1.958254,0.754418 0.127678,0 0.264602,-0.0082 0.401282,-0.01552 0.943268,-0.08087 1.894051,-0.340943 2.873179,-0.770429 v -2.231073 c -0.576115,0.262527 -1.102795,0.421154 -1.58905,0.449416 h -0.09626 c -0.317483,0 -0.55299,-0.101531 -0.706251,-0.305002 -0.169899,-0.222176 -0.256817,-0.708186 -0.256817,-1.476736 v -8.843755 l 2.471873,0.112313 v -2.407671 l -2.471873,-0.176434 v -3.852225 l -2.182963,-0.240799 z m -9.694886,1.58905 c 0.06535,0 0.140248,0.0098 0.208608,0.01552 0.893361,0.07841 1.561033,0.697241 2.006365,1.845777 0.445194,1.142901 0.658099,3.215429 0.658099,6.243886 0,3.374627 -0.225696,5.637149 -0.674157,6.789606 -0.451426,1.164056 -1.107042,1.773978 -1.990356,1.829849 -0.03996,0 -0.08922,0.0147 -0.128429,0.0147 -0.882007,0 -1.541592,-0.638266 -1.990355,-1.910143 -0.475751,-1.335426 -0.722318,-3.599908 -0.722318,-6.805616 0,-3.316796 0.242033,-5.507437 0.722318,-6.564897 0.44338,-0.970061 1.08221,-1.460645 1.910061,-1.460645 z" fill="#ffffff" inkscape:connector-curvature="0"/>
 </g>
</svg>
