<svg height="96" width="96" xmlns="http://www.w3.org/2000/svg" xmlns:xlink="http://www.w3.org/1999/xlink" xmlns:sodipodi="http://sodipodi.sourceforge.net/DTD/sodipodi-0.dtd" xmlns:inkscape="http://www.inkscape.org/namespaces/inkscape">
 <defs>
  <clipPath clipPathUnits="userSpaceOnUse" id="clipPath3009">
   <path d="m -2,956.36218 -96,0 0,33.5624 96,25.68742 0,-59.24982 z" inkscape:connector-curvature="0"/>
  </clipPath>
  <linearGradient x2="0" y1="4.969" y2="91" gradientUnits="userSpaceOnUse" id="linearGradient3827" inkscape:collect="always" gradientTransform="matrix(1.14286 0 0 1.14286 -6.857 949.51)">
   <stop stop-color="#509528" stop-opacity="1"/>
   <stop stop-color="#78cd46" stop-opacity="1" offset="1"/>
  </linearGradient>
  <clipPath clipPathUnits="userSpaceOnUse" id="clipPath3018">
   <rect x="2" rx="25" y="958.36" height="92" width="92"/>
  </clipPath>
  <clipPath clipPathUnits="userSpaceOnUse" id="clipPath6216-0">
   <rect x="9.865" rx="6" y="1.985" height="87.7" width="87.7" transform="matrix(0.99692 0.07844 -0.07844 0.99692 0 0)"/>
  </clipPath>
  <linearGradient id="linearGradient3645-4">
   <stop stop-color="#505854" stop-opacity="1"/>
   <stop stop-color="#888888" stop-opacity="1" offset="0.572"/>
   <stop stop-color="#505854" stop-opacity="1" offset="1"/>
  </linearGradient>
  <linearGradient id="linearGradient3665-4">
   <stop stop-color="#eff4f6" stop-opacity="1"/>
   <stop stop-color="#3e403e" stop-opacity="1" offset="0.431"/>
   <stop stop-color="#e4e1e6" stop-opacity="1" offset="0.648"/>
   <stop stop-color="#bebdbd" stop-opacity="1" offset="0.804"/>
   <stop stop-color="#f4f3f3" stop-opacity="1" offset="1"/>
  </linearGradient>
  <linearGradient x1="309.73" x2="307.4" y1="519.21" y2="573.93" gradientUnits="userSpaceOnUse" id="linearGradient4110" inkscape:collect="always" gradientTransform="matrix(0.22381 -0.27787 0.44128 0.32776 -344.88 47.785)">
   <stop stop-color="#2d2d2d" stop-opacity="1"/>
   <stop stop-color="#b9b9b9" stop-opacity="1" offset="0.345"/>
   <stop stop-color="#3e3e3e" stop-opacity="1" offset="1"/>
  </linearGradient>
  <linearGradient x1="309.73" x2="307.4" y1="519.21" y2="573.93" gradientUnits="userSpaceOnUse" id="linearGradient4112" inkscape:collect="always" gradientTransform="matrix(0.22381 -0.27787 0.44128 0.32776 -344.88 47.785)">
   <stop stop-color="#000000" stop-opacity="1"/>
   <stop stop-color="#484848" stop-opacity="1" offset="0.345"/>
   <stop stop-color="#000000" stop-opacity="1" offset="1"/>
  </linearGradient>
  <linearGradient x1="309.73" x2="307.4" y1="519.21" y2="573.93" gradientUnits="userSpaceOnUse" id="linearGradient4114" inkscape:collect="always" gradientTransform="matrix(0.28671 -0.37068 0.56542 0.43734 -415.88 1.131)">
   <stop stop-color="#161616" stop-opacity="1"/>
   <stop stop-color="#f8f8f8" stop-opacity="1" offset="0.345"/>
   <stop stop-color="#040404" stop-opacity="1" offset="1"/>
  </linearGradient>
  <linearGradient x1="313.28" x2="323.49" y1="448.29" y2="462.03" gradientUnits="userSpaceOnUse" id="linearGradient4116" inkscape:collect="always">
   <stop stop-color="#c4c3c4" stop-opacity="1"/>
   <stop stop-color="#e6e6e4" stop-opacity="1" offset="1"/>
  </linearGradient>
  <linearGradient x1="313.72" x2="327.61" xlink:href="#linearGradient3645-4" y1="448.89" y2="460.21" gradientUnits="userSpaceOnUse" id="linearGradient4118" inkscape:collect="always"/>
  <linearGradient x1="305.41" x2="343.72" xlink:href="#linearGradient3665-4" y1="450.6" y2="459.09" gradientUnits="userSpaceOnUse" id="linearGradient4120" inkscape:collect="always" gradientTransform="matrix(0.34449 0.25534 -0.21886 0.38752 20.637 -190.23)"/>
  <linearGradient x1="305.41" x2="343.72" xlink:href="#linearGradient3645-4" y1="450.6" y2="459.09" gradientUnits="userSpaceOnUse" id="linearGradient4122" inkscape:collect="always" gradientTransform="matrix(0.34449 0.25534 -0.21886 0.38752 20.637 -190.23)"/>
  <linearGradient x1="313.28" x2="323.49" y1="448.29" y2="462.03" gradientUnits="userSpaceOnUse" id="linearGradient4124" inkscape:collect="always">
   <stop stop-color="#acacac" stop-opacity="1"/>
   <stop stop-color="#989898" stop-opacity="1" offset="1"/>
  </linearGradient>
  <linearGradient x1="438.25" x2="438.09" xlink:href="#linearGradient3665-4" y1="433.28" y2="442.19" gradientUnits="userSpaceOnUse" id="linearGradient4128" inkscape:collect="always" gradientTransform="matrix(0.11989 -0.14559 0.14346 0.12167 51.575 56.28)"/>
  <linearGradient x1="374.01" x2="381.92" xlink:href="#linearGradient3665-4" y1="381.69" y2="384.92" gradientUnits="userSpaceOnUse" id="linearGradient4130" inkscape:collect="always" gradientTransform="matrix(0.18693 0.00356 -0.00343 0.18578 101.6 -32.04)"/>
  <linearGradient x1="385.99" x2="393.08" y1="370.01" y2="377.4" gradientUnits="userSpaceOnUse" id="linearGradient4132" inkscape:collect="always" gradientTransform="matrix(0.18693 0.00356 -0.00351 0.1897 101.65 -33.569)">
   <stop stop-color="#eff4f6" stop-opacity="1"/>
   <stop stop-color="#3e403e" stop-opacity="1" offset="0.453"/>
   <stop stop-color="#e4e1e6" stop-opacity="1" offset="0.648"/>
   <stop stop-color="#bebdbd" stop-opacity="1" offset="0.804"/>
   <stop stop-color="#f4f3f3" stop-opacity="1" offset="1"/>
  </linearGradient>
  <radialGradient cy="39.06" r="1.034" gradientUnits="userSpaceOnUse" id="radialGradient4134" cx="172.06" inkscape:collect="always" gradientTransform="matrix(2.37204 0.10963 -0.10283 2.22483 -232.07 -66.772)">
   <stop stop-color="#ffffff" stop-opacity="1"/>
   <stop stop-color="#757575" stop-opacity="1" offset="1"/>
  </radialGradient>
  <radialGradient cy="48" r="42" gradientUnits="userSpaceOnUse" id="radialGradient4652" cx="48" inkscape:collect="always" gradientTransform="matrix(1.95052 0 0 1.97622 -45.36 909.77)">
   <stop stop-color="#ffffff" stop-opacity="1"/>
   <stop stop-color="#ffffff" stop-opacity="0" offset="1"/>
  </radialGradient>
  <path stroke-opacity="1" d="m 342.27105,456.27069 c 0,7.88836 -10.32551,14.28313 -23.06268,14.28313 -12.73716,0 -23.06267,-6.39477 -23.06267,-14.28313 0,-7.88836 10.32551,-14.28313 23.06267,-14.28313 12.73717,0 23.06268,6.39477 23.06268,14.28313 z" display="inline" color="#000000" fill-opacity="1" stroke="url(#linearGradient4118)" fill-rule="nonzero" stroke-dasharray="none" id="SVGCleanerId_0" visibility="visible" stroke-dashoffset="0" stroke-linecap="round" stroke-linejoin="round" stroke-miterlimit="4"/>
 </defs>
 <g inkscape:label="Layer 1" inkscape:groupmode="layer" transform="matrix(1 0 0 1 0 -956.36)">
  <rect rx="6.857" y="956.36" clip-path="url(#clipPath3018)" fill="url(#linearGradient3827)" fill-opacity="1" fill-rule="nonzero" stroke="none" height="96" width="96"/>
  <path d="m 17.434729,956.89046 29.302143,46.20854 -46.208596,-29.7283 0,21.02651 45.711347,10.22919 -45.711347,9.9449 0,20.8844 46.208596,-29.3021 -29.728357,46.2086 21.026506,0 10.229114,-45.7114 9.944972,45.7114 20.88444,0 L 49.791399,1006.1536 96,1035.882 96,1014.8554 50.288647,1004.6264 96,994.68135 l 0,-20.88444 -46.208601,29.30209 29.728362,-46.20854 -21.026512,0 -10.229114,45.71134 -9.944972,-45.71134 -20.884434,0 z" fill="url(#radialGradient4652)" fill-opacity="1" stroke="none" opacity="0.45" inkscape:connector-curvature="0"/>
  <rect x="-96" rx="25" y="958.36" clip-path="url(#clipPath3009)" fill="#ffffff" fill-opacity="1" height="92" opacity="0.15" width="92" transform="matrix(1 0 0 1 98 -2)"/>
  <g transform="matrix(0.91148 0 0 0.91148 138.88 877.93)">
   <g clip-path="url(#clipPath6216-0)" transform="matrix(0.9549 -0.07514 0.07514 0.9549 -139.11 103.28)">
    <path d="m -46.257036,143.12573 25.432099,-28.15537 c 3.114987,-3.44854 4.440389,-7.94002 5.830165,-11.64038 -2.584324,8.53058 15.6328842,12.54359 15.50410313,15.44673 -4.50750423,1.90523 -8.51799473,3.44603 -11.12792313,6.1037 l -26.897456,27.38943 c -3.692475,2.9712 -11.768323,-6.09612 -8.740988,-9.14411 z" stroke-width="0.2" display="inline" fill="url(#linearGradient4110)" color="#000000" fill-opacity="1" fill-rule="nonzero" stroke="none" visibility="visible" sodipodi:nodetypes="csccscc" inkscape:connector-curvature="0"/>
    <path d="m -21.037911,115.31758 3.592454,-12.59332 c -2.584323,8.53059 19.9049352,13.30649 19.7761541,16.20963 l -12.6782511,5.75529 c -4.024497,3.43033 -12.486675,-6.56633 -10.690357,-9.3716 z" stroke-width="0.2" display="inline" fill="url(#linearGradient4112)" color="#000000" fill-opacity="1" fill-rule="nonzero" stroke="none" visibility="visible" sodipodi:nodetypes="ccccc" inkscape:connector-curvature="0"/>
    <path d="M -17.445457,102.72426 18.350627,59.906624 C 15.040833,71.286936 40.60642,75.244673 40.441861,79.117756 L 2.3306971,118.93389 C -10.408274,125.32454 -21.323654,106.79015 -17.445457,102.72426 z" stroke-width="0.2" display="inline" fill="url(#linearGradient4114)" color="#000000" fill-opacity="1" fill-rule="nonzero" stroke="none" visibility="visible" sodipodi:nodetypes="ccccc" inkscape:connector-curvature="0"/>
    <use stroke-width="2.327" xlink:href="#SVGCleanerId_0" fill="url(#linearGradient4116)" sodipodi:type="arc" sodipodi:cx="319.20837" sodipodi:cy="456.27069" sodipodi:rx="23.062674" sodipodi:ry="14.283133" transform="matrix(0.48633 0.36046 -0.30897 0.54707 15.292 -295.39)"/>
    <path stroke-opacity="1" stroke-width="0.288" d="m 28.190835,56.571134 -3.58442,3.905037 -0.299192,0.150646 c -0.643658,0.362013 -1.117217,0.985949 -1.493438,1.652066 -1.726409,3.056904 0.437916,8.119554 4.825718,11.371808 3.01665,2.235924 6.225392,2.951354 8.54524,2.223143 1.054481,-0.330999 2.001736,-0.999336 2.541239,-1.954619 0.112577,-0.198924 0.217999,-0.384837 0.297932,-0.600064 l 4.631801,-4.357396 -15.46488,-12.390621 z" display="inline" fill="url(#linearGradient4120)" color="#000000" fill-opacity="1" stroke="url(#linearGradient4122)" fill-rule="nonzero" stroke-dasharray="none" stroke-dashoffset="0" visibility="visible" stroke-linecap="round" stroke-linejoin="round" stroke-miterlimit="4" inkscape:connector-curvature="0"/>
    <use stroke-width="0.661" xlink:href="#SVGCleanerId_0" fill="url(#linearGradient4124)" sodipodi:type="arc" sodipodi:cx="319.20837" sodipodi:cy="456.27069" sodipodi:rx="23.062674" sodipodi:ry="14.283133" transform="matrix(0.34449 0.25534 -0.21886 0.38752 26.03 -195.81)"/>
   </g>
   <g transform="matrix(6.45539 -0.29836 0.29836 6.45539 -1180.01 -96.22)">
    <path stroke-opacity="1" stroke-width="0.044" d="m 164.36438,46.522023 5.33413,-6.378667 0.76895,-0.301012 0.3088,-1.008447 c 0.11332,-0.13761 0.62867,-0.223149 0.96626,-0.239318 0.67985,0.203152 0.71884,0.217524 0.91448,0.893962 0.0321,0.315556 0.0422,0.785036 -0.0711,0.922646 l -0.88826,0.424454 -0.13817,0.885982 -5.47877,6.13279 c -0.53997,0.680583 -2.06363,-0.176037 -1.71635,-1.33239 z" display="inline" fill="url(#linearGradient4128)" color="#000000" fill-opacity="1" stroke="#c1bec1" fill-rule="nonzero" stroke-dashoffset="0" visibility="visible" stroke-linecap="round" stroke-linejoin="round" stroke-miterlimit="4" sodipodi:nodetypes="cccccccccccc" inkscape:connector-curvature="0"/>
    <path d="m 169.72859,40.223806 0.75675,-0.353146 c 0.0997,0.618659 0.38953,1.038404 1.16611,1.063274 l -0.14068,0.846483 c -1.47821,-0.146092 -1.55244,-0.845836 -1.78218,-1.556611 z" fill="url(#linearGradient4130)" fill-opacity="1" stroke="none" sodipodi:nodetypes="ccccc" inkscape:connector-curvature="0"/>
    <path d="m 170.47459,39.86242 0.32701,-1.035652 c 0.31297,0.847336 0.84773,1.441841 1.79299,1.568395 l -0.9505,0.512361 c -0.90608,0.05063 -1.09139,-0.455811 -1.1695,-1.045104 z" fill="url(#linearGradient4132)" fill-opacity="1" stroke="none" sodipodi:nodetypes="ccccc" inkscape:connector-curvature="0"/>
    <path stroke-opacity="1" d="m 170.80198,38.806107 c 0.29032,1.014139 0.96037,1.480458 1.85695,1.577169 0.42984,-1.735786 -0.84727,-2.139372 -1.85695,-1.577169 z" stroke-width="0.044" fill="url(#radialGradient4134)" fill-opacity="1" stroke="#d3d2d4" stroke-dasharray="none" stroke-miterlimit="4" sodipodi:nodetypes="ccc" inkscape:connector-curvature="0"/>
    <path d="m 168.42611,41.679647 0.55092,-0.673533 c 0.36417,0.751921 0.99897,1.293424 1.84439,1.533407 l -0.62535,0.70553 c -0.75893,-0.281837 -1.44508,-0.72455 -1.76996,-1.565404 z" fill="#000000" fill-opacity="1" stroke="none" sodipodi:nodetypes="ccccc" inkscape:connector-curvature="0"/>
    <path d="m 167.01308,43.320048 0.31589,-0.343144 c 0.34022,0.758826 0.92657,1.308421 1.71842,1.549596 l -0.36666,0.396059 c -0.71075,-0.283559 -1.36437,-0.753824 -1.66765,-1.602511 z" fill="#000000" fill-opacity="1" stroke="none" sodipodi:nodetypes="ccccc" inkscape:connector-curvature="0"/>
   </g>
  </g>
  <path d="m -123.74022,-224.79711 c -4.69615,4e-5 -8.49077,1.70852 -11.375,5.125 -3.291,3.89327 -4.9375,9.16965 -4.9375,15.84375 0,4.96589 0.95217,9.28263 2.875,12.9375 2.92121,5.4426 7.41016,8.15625 13.4375,8.15625 1.30231,5.81601 4.89454,8.87526 13.34375,7.59375 l 0,-4.21875 c -3.93328,0.36252 -4.78719,-1.79929 -5.09375,-5.625 l 0,-0.25 c 1.18325,-0.75481 2.25731,-1.69166 3.21875,-2.84375 3.14305,-3.77405 4.71872,-9.03613 4.71875,-15.75 -3e-5,-5.00557 -1.00325,-9.31384 -3,-12.96875 -2.95823,-5.32337 -7.34508,-7.99996 -13.1875,-8 z m 31.65625,1.6875 -5.9375,0.15625 -1.96875,9.3125 -4.21875,0 0,6.96875 3.875,0 0,13.34375 c 0,3.65489 0.521303,6.21761 1.53125,7.6875 1.271776,1.94662 3.972996,2.90625 8.125,2.90625 1.383983,0 3.098938,-0.188 5.15625,-0.625 l 0,-6.625 c -1.421426,0.0795 -2.476816,0.12501 -3.1875,0.125 -1.159579,1e-5 -1.982496,-0.19647 -2.46875,-0.59375 -0.5985,-0.47672 -0.906263,-1.70962 -0.90625,-3.65625 l 0,-12.5625 6.125,0 0,-6.96875 -6.125,0 0,-9.46875 z m -31.65625,6.125 c 4.58519,3e-5 6.87498,4.39939 6.875,13.21875 -2e-5,8.8194 -2.28981,13.25001 -6.875,13.25 -4.65917,1e-5 -7.00001,-4.45338 -7,-13.3125 -1e-5,-0.35752 -1e-5,-0.70494 0,-1.0625 0.22185,-8.06454 2.56269,-12.09372 7,-12.09375 z" fill="#ffffff" fill-opacity="1" stroke="none" inkscape:connector-curvature="0" transform="matrix(0.6485 0 0 0.6485 103.46 1117.73)"/>
 </g>
</svg>
