<?xml version="1.0" encoding="UTF-8" standalone="no"?>
<!-- Created with Inkscape (http://www.inkscape.org/) -->

<svg
   xmlns:dc="http://purl.org/dc/elements/1.1/"
   xmlns:cc="http://creativecommons.org/ns#"
   xmlns:rdf="http://www.w3.org/1999/02/22-rdf-syntax-ns#"
   xmlns:svg="http://www.w3.org/2000/svg"
   xmlns="http://www.w3.org/2000/svg"
   xmlns:xlink="http://www.w3.org/1999/xlink"
   xmlns:sodipodi="http://sodipodi.sourceforge.net/DTD/sodipodi-0.dtd"
   xmlns:inkscape="http://www.inkscape.org/namespaces/inkscape"
   id="svg11037"
   height="96"
   width="96"
   version="1.1"
   inkscape:version="0.48.5 r10040"
   sodipodi:docname="qtdesigner.svg">
  <sodipodi:namedview
     pagecolor="#ffffff"
     bordercolor="#666666"
     borderopacity="1"
     objecttolerance="10"
     gridtolerance="10"
     guidetolerance="10"
     inkscape:pageopacity="0"
     inkscape:pageshadow="2"
     inkscape:window-width="640"
     inkscape:window-height="480"
     id="namedview7897" />
  <defs
     id="defs11039">
    <linearGradient
       id="linearGradient11642"
       y2="1046.1"
       gradientUnits="userSpaceOnUse"
       y1="962.62"
       gradientTransform="matrix(1.15 0 0 1.15 -7.1999 -150.65)"
       x2="48"
       x1="48">
      <stop
         id="stop3702"
         style="stop-color:#509528"
         offset="0" />
      <stop
         id="stop3704"
         style="stop-color:#78cd46"
         offset="1" />
    </linearGradient>
    <linearGradient
       id="linearGradient3171"
       y2="18.868"
       gradientUnits="userSpaceOnUse"
       x2="117.36"
       y1="121.33"
       x1="61.295">
      <stop
         id="stop3953"
         offset="0" />
      <stop
         id="stop3955"
         style="stop-opacity:0"
         offset="1" />
    </linearGradient>
    <filter
       id="filter3963"
       color-interpolation-filters="sRGB">
      <feGaussianBlur
         id="feGaussianBlur3965"
         stdDeviation="0.91605611" />
    </filter>
    <linearGradient
       id="linearGradient3522"
       y2="115.49"
       gradientUnits="userSpaceOnUse"
       x2="149.53"
       y1="115.49"
       x1="136.41">
      <stop
         id="stop3487"
         style="stop-color:#e6605b"
         offset="0" />
      <stop
         id="stop3489"
         style="stop-color:#f08682"
         offset="1" />
    </linearGradient>
    <filter
       id="filter3495"
       height="1.3333"
       width="1.8571"
       color-interpolation-filters="sRGB"
       y="-.16667"
       x="-.42857">
      <feGaussianBlur
         id="feGaussianBlur3497"
         stdDeviation="0.55242721" />
    </filter>
    <filter
       id="filter3509"
       height="1.3534"
       width="1.3669"
       color-interpolation-filters="sRGB"
       y="-.17668"
       x="-.18344">
      <feGaussianBlur
         id="feGaussianBlur3511"
         stdDeviation="0.65925" />
    </filter>
    <linearGradient
       id="linearGradient3524"
       y2="116.47"
       xlink:href="#linearGradient3339"
       gradientUnits="userSpaceOnUse"
       x2="148.53"
       gradientTransform="matrix(1.0894 0 0 1 -13.276 0)"
       y1="116.47"
       x1="137.41" />
    <linearGradient
       id="linearGradient3339">
      <stop
         id="stop3341"
         offset="0" />
      <stop
         id="stop3347"
         style="stop-opacity:.49804"
         offset="0.7" />
      <stop
         id="stop3343"
         style="stop-opacity:0"
         offset="1" />
    </linearGradient>
    <linearGradient
       id="linearGradient3526"
       y2="60"
       gradientUnits="userSpaceOnUse"
       x2="150"
       gradientTransform="translate(-23.733)"
       y1="60"
       x1="136">
      <stop
         id="stop3280"
         style="stop-color:#945a00"
         offset="0" />
      <stop
         id="stop3290"
         style="stop-color:#e28e0a"
         offset=".25" />
      <stop
         id="stop3286"
         style="stop-color:#ffba14"
         offset="0.3" />
      <stop
         id="stop3288"
         style="stop-color:#f3ac00"
         offset="0.7" />
      <stop
         id="stop3292"
         style="stop-color:#ffd314"
         offset=".75" />
      <stop
         id="stop3282"
         style="stop-color:#ffed94"
         offset="1" />
    </linearGradient>
    <linearGradient
       id="linearGradient3528"
       y2="120.02"
       gradientUnits="userSpaceOnUse"
       x2="143"
       gradientTransform="translate(-23.733)"
       y1="0.0000024"
       x1="143">
      <stop
         id="stop3256"
         offset="0" />
      <stop
         id="stop3266"
         offset=".065884" />
      <stop
         id="stop3264"
         style="stop-color:#ad5f1b"
         offset=".07" />
      <stop
         id="stop3268"
         style="stop-color:#ad601a"
         offset=".19137" />
      <stop
         id="stop3262"
         style="stop-color:#785800"
         offset=".20983" />
      <stop
         id="stop3258"
         style="stop-color:#785700"
         offset="1" />
    </linearGradient>
    <linearGradient
       id="linearGradient3530"
       y2="4.9219"
       gradientUnits="userSpaceOnUse"
       x2="144.81"
       gradientTransform="translate(-23.733)"
       y1="4.9219"
       x1="141.25">
      <stop
         id="stop3396"
         offset="0" />
      <stop
         id="stop3402"
         style="stop-color:#7d7d7d"
         offset=".5" />
      <stop
         id="stop3398"
         offset="1" />
    </linearGradient>
    <linearGradient
       id="linearGradient3532"
       y2="17.043"
       gradientUnits="userSpaceOnUse"
       x2="149"
       gradientTransform="translate(-23.733)"
       y1="17.043"
       x1="136.99">
      <stop
         id="stop3310"
         style="stop-color:#da8539"
         offset="0" />
      <stop
         id="stop3312"
         style="stop-color:#fadfc7"
         offset="1" />
    </linearGradient>
    <linearGradient
       id="linearGradient3534"
       y2="66"
       xlink:href="#linearGradient5452"
       gradientUnits="userSpaceOnUse"
       x2="146.08"
       gradientTransform="matrix(1 0 0 1.2654 -23.733 -54.364)"
       y1="118.94"
       x1="146.11" />
    <linearGradient
       id="linearGradient5452">
      <stop
         id="stop5454"
         style="stop-color:#fff"
         offset="0" />
      <stop
         id="stop5456"
         style="stop-color:#fff;stop-opacity:0"
         offset="1" />
    </linearGradient>
    <linearGradient
       id="linearGradient3536"
       y2="66"
       xlink:href="#linearGradient5452"
       gradientUnits="userSpaceOnUse"
       x2="146.08"
       gradientTransform="matrix(1 0 0 1.2654 -29.858 -54.364)"
       y1="118.94"
       x1="146.11" />
    <filter
       id="filter3382"
       height="1.2274"
       width="1.8632"
       color-interpolation-filters="sRGB"
       y="-.11371"
       x="-.43161">
      <feGaussianBlur
         id="feGaussianBlur3384"
         stdDeviation="0.73914765" />
    </filter>
    <filter
       id="filter3390"
       height="1.2988"
       width="2.2196"
       color-interpolation-filters="sRGB"
       y="-.1494"
       x="-.60980">
      <feGaussianBlur
         id="feGaussianBlur3392"
         stdDeviation="0.77812506" />
    </filter>
    <linearGradient
       id="linearGradient3538"
       y2="106"
       gradientUnits="userSpaceOnUse"
       x2="150"
       y1="106"
       x1="136">
      <stop
         id="stop3403"
         style="stop-color:#404040"
         offset="0" />
      <stop
         id="stop3447"
         style="stop-color:#808080"
         offset=".2" />
      <stop
         id="stop3410"
         style="stop-color:#efefef"
         offset="0.7" />
      <stop
         id="stop3405"
         style="stop-color:#dcdcdc"
         offset="1" />
    </linearGradient>
    <linearGradient
       id="linearGradient3540"
       y2="106"
       gradientUnits="userSpaceOnUse"
       x2="150"
       y1="106"
       x1="136">
      <stop
         id="stop3463"
         style="stop-color:#444542"
         offset="0" />
      <stop
         id="stop3465"
         style="stop-color:#71746e"
         offset="1" />
    </linearGradient>
    <linearGradient
       id="linearGradient3542"
       y2="98.951"
       xlink:href="#linearGradient3339"
       spreadMethod="reflect"
       gradientUnits="userSpaceOnUse"
       x2="148.96"
       gradientTransform="translate(.042252 1.5494)"
       y1="98.951"
       x1="142.96" />
    <linearGradient
       id="linearGradient3544"
       y2="98.951"
       xlink:href="#linearGradient3355"
       spreadMethod="reflect"
       gradientUnits="userSpaceOnUse"
       x2="148.96"
       gradientTransform="translate(.042252 2.5494)"
       y1="98.951"
       x1="142.96" />
    <linearGradient
       id="linearGradient3355">
      <stop
         id="stop3357"
         style="stop-color:#fff"
         offset="0" />
      <stop
         id="stop3359"
         style="stop-color:#fff;stop-opacity:.49804"
         offset="0.7" />
      <stop
         id="stop3361"
         style="stop-color:#fff;stop-opacity:0"
         offset="1" />
    </linearGradient>
    <linearGradient
       id="linearGradient3546"
       y2="98.951"
       xlink:href="#linearGradient3339"
       spreadMethod="reflect"
       gradientUnits="userSpaceOnUse"
       x2="148.96"
       gradientTransform="translate(.042252 3.5494)"
       y1="98.951"
       x1="142.96" />
    <linearGradient
       id="linearGradient3548"
       y2="98.951"
       xlink:href="#linearGradient3355"
       spreadMethod="reflect"
       gradientUnits="userSpaceOnUse"
       x2="148.96"
       gradientTransform="translate(.042252 4.5494)"
       y1="98.951"
       x1="142.96" />
    <linearGradient
       id="linearGradient3550"
       y2="98.951"
       xlink:href="#linearGradient3339"
       spreadMethod="reflect"
       gradientUnits="userSpaceOnUse"
       x2="148.96"
       gradientTransform="translate(.042252 9.5494)"
       y1="98.951"
       x1="142.96" />
    <linearGradient
       id="linearGradient3552"
       y2="98.951"
       xlink:href="#linearGradient3355"
       spreadMethod="reflect"
       gradientUnits="userSpaceOnUse"
       x2="148.96"
       gradientTransform="translate(.042252 10.549)"
       y1="98.951"
       x1="142.96" />
    <linearGradient
       id="linearGradient3554"
       y2="98.951"
       xlink:href="#linearGradient3339"
       spreadMethod="reflect"
       gradientUnits="userSpaceOnUse"
       x2="148.96"
       gradientTransform="translate(.042252 11.549)"
       y1="98.951"
       x1="142.96" />
    <linearGradient
       id="linearGradient3556"
       y2="98.951"
       xlink:href="#linearGradient3355"
       spreadMethod="reflect"
       gradientUnits="userSpaceOnUse"
       x2="148.96"
       gradientTransform="translate(.042252 12.549)"
       y1="98.951"
       x1="142.96" />
    <linearGradient
       id="linearGradient3558"
       y2="106"
       spreadMethod="repeat"
       gradientUnits="userSpaceOnUse"
       x2="139.03"
       y1="106"
       x1="137">
      <stop
         id="stop3441"
         style="stop-color:#3d3d3d"
         offset="0" />
      <stop
         id="stop3443"
         style="stop-color:#fff"
         offset="1" />
    </linearGradient>
    <filter
       id="filter3451"
       height="1.2715"
       width="3.0699"
       color-interpolation-filters="sRGB"
       y="-.13574"
       x="-1.035">
      <feGaussianBlur
         id="feGaussianBlur3453"
         stdDeviation="0.9498173" />
    </filter>
    <filter
       id="filter3457"
       height="1.2754"
       width="2.8667"
       color-interpolation-filters="sRGB"
       y="-.13770"
       x="-.93333">
      <feGaussianBlur
         id="feGaussianBlur3459"
         stdDeviation="0.92807767" />
    </filter>
    <clipPath
       id="clipPath3009"
       clipPathUnits="userSpaceOnUse">
      <path
         id="path3011"
         style="opacity:.15;fill:#fff"
         d="m-2 956.36h-96v33.562l96 25.687v-59.25z" />
    </clipPath>
  </defs>
  <metadata
     id="metadata11042">
    <rdf:RDF>
      <cc:Work
         rdf:about="">
        <dc:format>image/svg+xml</dc:format>
        <dc:type
           rdf:resource="http://purl.org/dc/dcmitype/StillImage" />
        <dc:title />
      </cc:Work>
    </rdf:RDF>
  </metadata>
  <g
     id="layer1"
     transform="translate(0 -956.36)">
    <rect
       id="rect3867"
       style="fill:url(#linearGradient11642)"
       rx="25"
       ry="25"
       height="92"
       width="92"
       y="958.36"
       x="2" />
    <g
       id="g3072"
       transform="translate(0 956.36)">
      <path
         id="path3698"
         d="m30.406 15.062c-4.6962 0.000042-8.4908 1.7085-11.375 5.125-3.291 3.8933-4.9375 9.1696-4.9375 15.844-0.000002 4.9659 0.95217 9.2826 2.875 12.938 2.9212 5.4426 7.4102 8.1562 13.438 8.1562 1.3023 5.816 4.8945 8.8753 13.344 7.5938v-4.2188c-3.9333 0.36252-4.7872-1.7993-5.0938-5.625v-0.25c1.1833-0.75481 2.2573-1.6917 3.2188-2.8438 3.1431-3.7741 4.7187-9.0361 4.7188-15.75-0.000035-5.0056-1.0032-9.3138-3-12.969-2.9582-5.3234-7.3451-8-13.188-8zm31.656 1.6875-5.9375 0.15625-1.9688 9.3125h-4.2188v6.9688h3.875v13.344c-0.000005 3.6549 0.5213 6.2176 1.5312 7.6875 1.2718 1.9466 3.973 2.9062 8.125 2.9062 1.384-0.000003 3.0989-0.188 5.1562-0.625v-6.625c-1.4214 0.07946-2.4768 0.12501-3.1875 0.125-1.1596 0.000007-1.9825-0.19647-2.4688-0.59375-0.597-0.476-0.905-1.709-0.905-3.656v-12.562h6.125v-6.9688h-6.125v-9.4688zm-31.656 6.125c4.5852 0.000034 6.875 4.3994 6.875 13.219-0.000025 8.8194-2.2898 13.25-6.875 13.25-4.6592 0.000008-7-4.4534-7-13.312-0.000012-0.35752-0.000012-0.70494 0-1.0625 0.22185-8.0645 2.5627-12.094 7-12.094z"
         style="opacity:.3" />
      <path
         id="path3665"
         d="m30.406 14.062c-4.6962 0.000042-8.4908 1.7085-11.375 5.125-3.291 3.8933-4.9375 9.1696-4.9375 15.844-0.000002 4.9659 0.95217 9.2826 2.875 12.938 2.9212 5.4426 7.4102 8.1562 13.438 8.1562 1.3023 5.816 4.8945 8.8753 13.344 7.5938v-4.2188c-3.9333 0.36252-4.7872-1.7993-5.0938-5.625v-0.25c1.1833-0.75481 2.2573-1.6917 3.2188-2.8438 3.1431-3.7741 4.7187-9.0361 4.7188-15.75-0.000035-5.0056-1.0032-9.3138-3-12.969-2.9582-5.3234-7.3451-8-13.188-8zm31.656 1.6875-5.9375 0.15625-1.9688 9.3125h-4.2188v6.9688h3.875v13.344c-0.000005 3.6549 0.5213 6.2176 1.5312 7.6875 1.2718 1.9466 3.973 2.9062 8.125 2.9062 1.384-0.000003 3.0989-0.188 5.1562-0.625v-6.625c-1.4214 0.07946-2.4768 0.12501-3.1875 0.125-1.1596 0.000007-1.9825-0.19647-2.4688-0.59375-0.597-0.476-0.905-1.709-0.905-3.656v-12.562h6.125v-6.9688h-6.125v-9.4688zm-31.656 6.125c4.5852 0.000034 6.875 4.3994 6.875 13.219-0.000025 8.8194-2.2898 13.25-6.875 13.25-4.6592 0.000008-7-4.4534-7-13.312-0.000012-0.35752-0.000012-0.70494 0-1.0625 0.22185-8.0645 2.5627-12.094 7-12.094z"
         style="fill:#fff" />
      <g
         id="layer6">
        <path
           id="path3589"
           style="opacity:.3;filter:url(#filter3963);fill:url(#linearGradient3171)"
           transform="matrix(.55070 .096685 -.096685 .55070 26.931 12.279)"
           d="m118.38 11.031c-0.52336-0.06895-1.0579-0.0102-1.5625 0.125-1.0064 0.26967-1.8855 0.91897-2.4375 1.875l-2.0625 3.5625a1.0492 1.0492 0 0 0 -0.84375 0.53125l-9.5 16.469-36 62.344a1.0492 1.0492 0 0 0 -0.09375 0.25l-6.386 24.032a1.0492 1.0492 0 0 0 1.75 1.03l17.625-17.53a1.0492 1.0492 0 0 0 0.156 -0.22l36-62.344 9.5-16.469a1.0492 1.0492 0 0 0 0.0625 -0.90625l2.0938-3.625c1.1113-1.9248 0.4576-4.4191-1.4688-5.5312l-5.3125-3.0625c-0.47927-0.2767-1.0079-0.4623-1.5312-0.53125z" />
        <g
           id="g3643"
           transform="matrix(-.48421 -.27956 .27956 -.48421 117.64 125.45)">
          <g
             id="g3537">
            <rect
               id="rect3483"
               style="stroke-linejoin:round;stroke:#df453f;stroke-width:1.7885;fill:url(#linearGradient3522)"
               rx="3"
               ry="3"
               height="16"
               width="12.116"
               y="107.49"
               x="136.91" />
            <path
               id="path3493"
               style="opacity:.3;filter:url(#filter3495);fill:#701300"
               transform="matrix(1.8857 0 0 1 -123.51 -1.9445)"
               d="m141.24 118.19a1.5468 3.9775 0 1 1 -3.0936 0 1.5468 3.9775 0 1 1 3.0936 0z" />
            <path
               id="path3499"
               style="opacity:.8;filter:url(#filter3509);fill:#fff;fill-rule:evenodd"
               d="m146.31 113.12c-0.85193 9.5067-3.9375 8.3125-6.5 8.9375 4.0763 0.0625 8.625-0.0625 8.625-0.0625-2.4375-0.5625-1.8125-2.375-2.125-8.875z" />
            <rect
               id="rect3525"
               style="opacity:.2;fill:url(#linearGradient3524)"
               height="1"
               width="12.119"
               y="115.97"
               x="136.41" />
          </g>
          <g
             id="g3311"
             transform="translate(23.733)">
            <path
               id="rect2480"
               style="stroke-linejoin:round;stroke:url(#linearGradient3528);stroke-width:1.7885;fill:url(#linearGradient3526)"
               d="m112.77 24.5 6.5-24 6.5 24v72h-13v-72z" />
            <path
               id="path3272"
               style="fill:url(#linearGradient3530);fill-rule:evenodd"
               d="m117.69 8.0717 3.1426 0.022097-1.5824-5.7913" />
            <path
               id="path3274"
               style="fill:url(#linearGradient3532);fill-rule:evenodd"
               d="m117.73 8.0902-3.77 13.91s-0.46779 1.6535-0.698 2.6083c-0.19122 0.64228 1.9589 1.6113 3.0182-1.6083 1.2153 4.5138 5.5759 3.438 5.9883 0.01105 0.3425 1.7015 1.754 2.95 2.9886 1.5219-0.23478-0.90874-0.43641-1.5219-0.43641-1.5219l-4.0217-14.921h-3.0715z" />
            <path
               id="path3294"
               style="opacity:.5;stroke:url(#linearGradient3534);stroke-width:1.7885px;fill:none"
               d="m122.37 96.305v-67.217" />
            <path
               id="path3304"
               style="opacity:.5;stroke:url(#linearGradient3536);stroke-width:1.7885px;fill:none"
               d="m116.25 96.305v-67.217" />
            <path
               id="path3372"
               style="opacity:.4;filter:url(#filter3382);fill:#ac4311;fill-rule:evenodd"
               d="m118.7 5.9799-4.773 17.899 1.9887-0.83969 2.7842-17.059z" />
            <path
               id="path3386"
               style="opacity:.15;stroke:#4d2600;stroke-width:1.7885px;fill:none"
               d="m113.08 24.625s1.4867 1.7649 3.25-1.5312c2 5.25 5.1686 2.0871 5.9375-0.03125 1.375 3.4375 3.125 1.4375 3.125 1.4375" />
            <path
               id="path3388"
               style="opacity:.8;filter:url(#filter3390);fill:#fff;fill-rule:evenodd"
               transform="matrix(1.1224 0 0 1.345 -41.703 -4.7709)"
               d="m144.06 8.9375-0.375 12.5 3.0625-0.3125-2.6875-12.188z" />
          </g>
          <g
             id="g3620">
            <rect
               id="rect3333"
               style="stroke-linejoin:round;stroke:url(#linearGradient3540);stroke-width:1.7885;fill:url(#linearGradient3538)"
               height="19"
               width="13"
               y="96.5"
               x="136.5" />
            <rect
               id="rect3337"
               style="opacity:.4;fill:url(#linearGradient3542)"
               height="1"
               width="12"
               y="100"
               x="137" />
            <rect
               id="rect3351"
               style="opacity:.6;fill:url(#linearGradient3544)"
               height="1"
               width="12"
               y="101"
               x="137" />
            <rect
               id="rect3369"
               style="opacity:.4;fill:url(#linearGradient3546)"
               height="1"
               width="12"
               y="102"
               x="137" />
            <rect
               id="rect3371"
               style="opacity:.6;fill:url(#linearGradient3548)"
               height="1"
               width="12"
               y="103"
               x="137" />
            <rect
               id="rect3379"
               style="opacity:.4;fill:url(#linearGradient3550)"
               height="1"
               width="12"
               y="108"
               x="137" />
            <rect
               id="rect3381"
               style="opacity:.6;fill:url(#linearGradient3552)"
               height="1"
               width="12"
               y="109"
               x="137" />
            <rect
               id="rect3385"
               style="opacity:.4;fill:url(#linearGradient3554)"
               height="1"
               width="12"
               y="110"
               x="137" />
            <rect
               id="rect3387"
               style="opacity:.6;fill:url(#linearGradient3556)"
               height="1"
               width="12"
               y="111"
               x="137" />
            <rect
               id="rect3437"
               style="opacity:.3;fill:url(#linearGradient3558)"
               height="4"
               width="12"
               y="104"
               x="137" />
            <path
               id="path3449"
               style="opacity:.6;filter:url(#filter3451)"
               transform="matrix(1.2554 0 0 1 -35.754 0)"
               d="m140 106.08a1.1013 8.3969 0 1 1 -2.2026 0 1.1013 8.3969 0 1 1 2.2026 0z" />
            <path
               id="path3455"
               style="opacity:.8;filter:url(#filter3457);fill:#fff"
               d="m147.34 106.04a1.1932 8.0875 0 1 1 -2.3865 0 1.1932 8.0875 0 1 1 2.3865 0z" />
          </g>
        </g>
      </g>
    </g>
    <rect
       id="rect3003"
       style="opacity:.15;fill:#fff"
       transform="translate(98 3.8281e-7)"
       clip-path="url(#clipPath3009)"
       rx="25"
       ry="25"
       height="92"
       width="92"
       y="958.36"
       x="-96" />
  </g>
</svg>
