<svg height="96" width="96" xmlns="http://www.w3.org/2000/svg" xmlns:xlink="http://www.w3.org/1999/xlink" xmlns:sodipodi="http://sodipodi.sourceforge.net/DTD/sodipodi-0.dtd" xmlns:inkscape="http://www.inkscape.org/namespaces/inkscape">
 <defs>
  <linearGradient x2="0" y1="962.62" y2="1046.1" gradientUnits="userSpaceOnUse" id="linearGradient11642" gradientTransform="matrix(1.15 0 0 1.15 -7.2 -150.65)">
   <stop stop-color="#509528"/>
   <stop stop-color="#78cd46" offset="1"/>
  </linearGradient>
  <linearGradient x1="61.3" x2="117.36" y1="121.33" y2="18.868" gradientUnits="userSpaceOnUse" id="linearGradient3171">
   <stop/>
   <stop stop-opacity="0" offset="1"/>
  </linearGradient>
  <filter color-interpolation-filters="sRGB" id="filter3963">
   <feGaussianBlur stdDeviation="0.91606"/>
  </filter>
  <linearGradient x1="136.41" x2="149.53" gradientUnits="userSpaceOnUse" id="linearGradient3522">
   <stop stop-color="#e6605b"/>
   <stop stop-color="#f08682" offset="1"/>
  </linearGradient>
  <filter x="-0.429" y="-0.167" height="1.333" color-interpolation-filters="sRGB" id="filter3495" width="1.857">
   <feGaussianBlur stdDeviation="0.55243"/>
  </filter>
  <filter x="-0.183" y="-0.177" height="1.353" color-interpolation-filters="sRGB" id="filter3509" width="1.367">
   <feGaussianBlur stdDeviation="0.65925"/>
  </filter>
  <linearGradient x1="137.41" x2="148.53" xlink:href="#linearGradient3339" gradientUnits="userSpaceOnUse" id="linearGradient3524" gradientTransform="matrix(1.0894 0 0 1 -13.276 0)"/>
  <linearGradient id="linearGradient3339">
   <stop/>
   <stop stop-opacity="0.498" offset="0.7"/>
   <stop stop-opacity="0" offset="1"/>
  </linearGradient>
  <linearGradient x1="136" x2="150" gradientUnits="userSpaceOnUse" id="linearGradient3526" gradientTransform="matrix(1 0 0 1 -23.733 0)">
   <stop stop-color="#945a00"/>
   <stop stop-color="#e28e0a" offset="0.25"/>
   <stop stop-color="#ffba14" offset="0.3"/>
   <stop stop-color="#f3ac00" offset="0.7"/>
   <stop stop-color="#ffd314" offset="0.75"/>
   <stop stop-color="#ffed94" offset="1"/>
  </linearGradient>
  <linearGradient x2="0" y1="0" y2="120.02" gradientUnits="userSpaceOnUse" id="linearGradient3528" gradientTransform="matrix(1 0 0 1 -23.733 0)">
   <stop/>
   <stop offset="0.066"/>
   <stop stop-color="#ad5f1b" offset="0.07"/>
   <stop stop-color="#ad601a" offset="0.191"/>
   <stop stop-color="#785800" offset="0.21"/>
   <stop stop-color="#785700" offset="1"/>
  </linearGradient>
  <linearGradient x1="141.25" x2="144.81" gradientUnits="userSpaceOnUse" id="linearGradient3530" gradientTransform="matrix(1 0 0 1 -23.733 0)">
   <stop/>
   <stop stop-color="#7d7d7d" offset="0.5"/>
   <stop offset="1"/>
  </linearGradient>
  <linearGradient x1="136.99" x2="149" gradientUnits="userSpaceOnUse" id="linearGradient3532" gradientTransform="matrix(1 0 0 1 -23.733 0)">
   <stop stop-color="#da8539"/>
   <stop stop-color="#fadfc7" offset="1"/>
  </linearGradient>
  <linearGradient x1="146.11" x2="146.08" xlink:href="#linearGradient5452" y1="118.94" y2="66" gradientUnits="userSpaceOnUse" id="linearGradient3534" gradientTransform="matrix(1 0 0 1.2654 -23.733 -54.36)"/>
  <linearGradient id="linearGradient5452">
   <stop stop-color="#fff"/>
   <stop stop-color="#fff" stop-opacity="0" offset="1"/>
  </linearGradient>
  <linearGradient x1="146.11" x2="146.08" xlink:href="#linearGradient5452" y1="118.94" y2="66" gradientUnits="userSpaceOnUse" id="linearGradient3536" gradientTransform="matrix(1 0 0 1.2654 -29.858 -54.36)"/>
  <filter x="-0.432" y="-0.114" height="1.227" color-interpolation-filters="sRGB" id="filter3382" width="1.863">
   <feGaussianBlur stdDeviation="0.73915"/>
  </filter>
  <filter x="-0.61" y="-0.149" height="1.299" color-interpolation-filters="sRGB" id="filter3390" width="2.22">
   <feGaussianBlur stdDeviation="0.77813"/>
  </filter>
  <linearGradient x1="136" x2="150" gradientUnits="userSpaceOnUse" id="linearGradient3538">
   <stop stop-color="#404040"/>
   <stop stop-color="#808080" offset="0.2"/>
   <stop stop-color="#efefef" offset="0.7"/>
   <stop stop-color="#dcdcdc" offset="1"/>
  </linearGradient>
  <linearGradient x1="136" x2="150" gradientUnits="userSpaceOnUse" id="linearGradient3540">
   <stop stop-color="#444542"/>
   <stop stop-color="#71746e" offset="1"/>
  </linearGradient>
  <linearGradient x1="142.96" x2="148.96" xlink:href="#linearGradient3339" spreadMethod="reflect" gradientUnits="userSpaceOnUse" id="linearGradient3542" gradientTransform="matrix(1 0 0 1 0.042 1.549)"/>
  <linearGradient x1="142.96" x2="148.96" spreadMethod="reflect" gradientUnits="userSpaceOnUse" id="linearGradient3544" gradientTransform="matrix(1 0 0 1 0.042 2.549)">
   <stop stop-color="#fff"/>
   <stop stop-color="#fff" stop-opacity="0.498" offset="0.7"/>
   <stop stop-color="#fff" stop-opacity="0" offset="1"/>
  </linearGradient>
  <linearGradient x1="137" x2="139.03" spreadMethod="repeat" gradientUnits="userSpaceOnUse" id="linearGradient3558">
   <stop stop-color="#3d3d3d"/>
   <stop stop-color="#fff" offset="1"/>
  </linearGradient>
  <filter x="-1.035" y="-0.136" height="1.272" color-interpolation-filters="sRGB" id="filter3451" width="3.07">
   <feGaussianBlur stdDeviation="0.94982"/>
  </filter>
  <filter x="-0.933" y="-0.138" height="1.275" color-interpolation-filters="sRGB" id="filter3457" width="2.867">
   <feGaussianBlur stdDeviation="0.92808"/>
  </filter>
  <clipPath clipPathUnits="userSpaceOnUse" id="clipPath3009">
   <path d="m-2 956.36h-96v33.562l96 25.687v-59.25z"/>
  </clipPath>
 </defs>
 <g transform="matrix(1 0 0 1 0 -956.36)">
  <rect x="2" rx="25" y="958.36" fill="url(#linearGradient11642)" height="92" width="92"/>
  <g transform="matrix(1 0 0 1 0 956.36)">
   <path d="m30.406 15.062c-4.6962 0.000042-8.4908 1.7085-11.375 5.125-3.291 3.8933-4.9375 9.1696-4.9375 15.844-0.000002 4.9659 0.95217 9.2826 2.875 12.938 2.9212 5.4426 7.4102 8.1562 13.438 8.1562 1.3023 5.816 4.8945 8.8753 13.344 7.5938v-4.2188c-3.9333 0.36252-4.7872-1.7993-5.0938-5.625v-0.25c1.1833-0.75481 2.2573-1.6917 3.2188-2.8438 3.1431-3.7741 4.7187-9.0361 4.7188-15.75-0.000035-5.0056-1.0032-9.3138-3-12.969-2.9582-5.3234-7.3451-8-13.188-8zm31.656 1.6875-5.9375 0.15625-1.9688 9.3125h-4.2188v6.9688h3.875v13.344c-0.000005 3.6549 0.5213 6.2176 1.5312 7.6875 1.2718 1.9466 3.973 2.9062 8.125 2.9062 1.384-0.000003 3.0989-0.188 5.1562-0.625v-6.625c-1.4214 0.07946-2.4768 0.12501-3.1875 0.125-1.1596 0.000007-1.9825-0.19647-2.4688-0.59375-0.597-0.476-0.905-1.709-0.905-3.656v-12.562h6.125v-6.9688h-6.125v-9.4688zm-31.656 6.125c4.5852 0.000034 6.875 4.3994 6.875 13.219-0.000025 8.8194-2.2898 13.25-6.875 13.25-4.6592 0.000008-7-4.4534-7-13.312-0.000012-0.35752-0.000012-0.70494 0-1.0625 0.22185-8.0645 2.5627-12.094 7-12.094z" opacity="0.3"/>
   <path d="m30.406 14.062c-4.6962 0.000042-8.4908 1.7085-11.375 5.125-3.291 3.8933-4.9375 9.1696-4.9375 15.844-0.000002 4.9659 0.95217 9.2826 2.875 12.938 2.9212 5.4426 7.4102 8.1562 13.438 8.1562 1.3023 5.816 4.8945 8.8753 13.344 7.5938v-4.2188c-3.9333 0.36252-4.7872-1.7993-5.0938-5.625v-0.25c1.1833-0.75481 2.2573-1.6917 3.2188-2.8438 3.1431-3.7741 4.7187-9.0361 4.7188-15.75-0.000035-5.0056-1.0032-9.3138-3-12.969-2.9582-5.3234-7.3451-8-13.188-8zm31.656 1.6875-5.9375 0.15625-1.9688 9.3125h-4.2188v6.9688h3.875v13.344c-0.000005 3.6549 0.5213 6.2176 1.5312 7.6875 1.2718 1.9466 3.973 2.9062 8.125 2.9062 1.384-0.000003 3.0989-0.188 5.1562-0.625v-6.625c-1.4214 0.07946-2.4768 0.12501-3.1875 0.125-1.1596 0.000007-1.9825-0.19647-2.4688-0.59375-0.597-0.476-0.905-1.709-0.905-3.656v-12.562h6.125v-6.9688h-6.125v-9.4688zm-31.656 6.125c4.5852 0.000034 6.875 4.3994 6.875 13.219-0.000025 8.8194-2.2898 13.25-6.875 13.25-4.6592 0.000008-7-4.4534-7-13.312-0.000012-0.35752-0.000012-0.70494 0-1.0625 0.22185-8.0645 2.5627-12.094 7-12.094z" fill="#fff"/>
   <path d="m118.38 11.031c-0.52336-0.06895-1.0579-0.0102-1.5625 0.125-1.0064 0.26967-1.8855 0.91897-2.4375 1.875l-2.0625 3.5625a1.0492 1.0492 0 0 0 -0.84375 0.53125l-9.5 16.469-36 62.344a1.0492 1.0492 0 0 0 -0.09375 0.25l-6.386 24.032a1.0492 1.0492 0 0 0 1.75 1.03l17.625-17.53a1.0492 1.0492 0 0 0 0.156 -0.22l36-62.344 9.5-16.469a1.0492 1.0492 0 0 0 0.0625 -0.90625l2.0938-3.625c1.1113-1.9248 0.4576-4.4191-1.4688-5.5312l-5.3125-3.0625c-0.47927-0.2767-1.0079-0.4623-1.5312-0.53125z" fill="url(#linearGradient3171)" filter="url(#filter3963)" opacity="0.3" transform="matrix(0.5507 0.09668 -0.09668 0.5507 26.931 12.279)"/>
   <g transform="matrix(-0.48421 -0.27956 0.27956 -0.48421 117.64 125.45)">
    <rect x="136.91" stroke-width="1.788" rx="3" y="107.49" fill="url(#linearGradient3522)" stroke="#df453f" height="16" width="12.12" stroke-linejoin="round"/>
    <path d="m141.24 118.19a1.5468 3.9775 0 1 1 -3.0936 0 1.5468 3.9775 0 1 1 3.0936 0z" fill="#701300" filter="url(#filter3495)" opacity="0.3" transform="matrix(1.8857 0 0 1 -123.51 -1.944)"/>
    <path d="m146.31 113.12c-0.85193 9.5067-3.9375 8.3125-6.5 8.9375 4.0763 0.0625 8.625-0.0625 8.625-0.0625-2.4375-0.5625-1.8125-2.375-2.125-8.875z" fill="#fff" fill-rule="evenodd" filter="url(#filter3509)" opacity="0.8"/>
    <rect x="136.41" y="115.97" fill="url(#linearGradient3524)" height="1" opacity="0.2" width="12.12"/>
    <g transform="matrix(1 0 0 1 23.733 0)">
     <path d="m112.77 24.5 6.5-24 6.5 24v72h-13v-72z" stroke-width="1.788" fill="url(#linearGradient3526)" stroke="url(#linearGradient3528)" stroke-linejoin="round"/>
     <path d="m117.69 8.0717 3.1426 0.022097-1.5824-5.7913" fill="url(#linearGradient3530)" fill-rule="evenodd"/>
     <path d="m117.73 8.0902-3.77 13.91s-0.46779 1.6535-0.698 2.6083c-0.19122 0.64228 1.9589 1.6113 3.0182-1.6083 1.2153 4.5138 5.5759 3.438 5.9883 0.01105 0.3425 1.7015 1.754 2.95 2.9886 1.5219-0.23478-0.90874-0.43641-1.5219-0.43641-1.5219l-4.0217-14.921h-3.0715z" fill="url(#linearGradient3532)" fill-rule="evenodd"/>
     <path d="m122.37 96.305v-67.217" stroke-width="1.788" fill="none" stroke="url(#linearGradient3534)" opacity="0.5"/>
     <path d="m116.25 96.305v-67.217" stroke-width="1.788" fill="none" stroke="url(#linearGradient3536)" opacity="0.5"/>
     <path d="m118.7 5.9799-4.773 17.899 1.9887-0.83969 2.7842-17.059z" fill="#ac4311" fill-rule="evenodd" filter="url(#filter3382)" opacity="0.4"/>
     <path d="m113.08 24.625s1.4867 1.7649 3.25-1.5312c2 5.25 5.1686 2.0871 5.9375-0.03125 1.375 3.4375 3.125 1.4375 3.125 1.4375" stroke-width="1.788" fill="none" stroke="#4d2600" opacity="0.15"/>
     <path d="m144.06 8.9375-0.375 12.5 3.0625-0.3125-2.6875-12.188z" fill="#fff" fill-rule="evenodd" filter="url(#filter3390)" opacity="0.8" transform="matrix(1.1224 0 0 1.345 -41.703 -4.771)"/>
    </g>
    <rect x="136.5" stroke-width="1.788" y="96.5" fill="url(#linearGradient3538)" stroke="url(#linearGradient3540)" height="19" width="13" stroke-linejoin="round"/>
    <rect x="137" y="100" fill="url(#linearGradient3542)" height="1" opacity="0.4" width="12"/>
    <rect x="137" y="101" fill="url(#linearGradient3544)" height="1" opacity="0.6" width="12"/>
    <rect x="137" y="102" fill="url(#linearGradient3542)" height="1" opacity="0.4" width="12"/>
    <rect x="137" y="103" fill="url(#linearGradient3544)" height="1" opacity="0.6" width="12"/>
    <rect x="137" y="108" fill="url(#linearGradient3542)" height="1" opacity="0.4" width="12"/>
    <rect x="137" y="109" fill="url(#linearGradient3544)" height="1" opacity="0.6" width="12"/>
    <rect x="137" y="110" fill="url(#linearGradient3542)" height="1" opacity="0.4" width="12"/>
    <rect x="137" y="111" fill="url(#linearGradient3544)" height="1" opacity="0.6" width="12"/>
    <rect x="137" y="104" fill="url(#linearGradient3558)" height="4" opacity="0.3" width="12"/>
    <path d="m140 106.08a1.1013 8.3969 0 1 1 -2.2026 0 1.1013 8.3969 0 1 1 2.2026 0z" filter="url(#filter3451)" opacity="0.6" transform="matrix(1.2554 0 0 1 -35.754 0)"/>
    <path d="m147.34 106.04a1.1932 8.0875 0 1 1 -2.3865 0 1.1932 8.0875 0 1 1 2.3865 0z" fill="#fff" filter="url(#filter3457)" opacity="0.8"/>
   </g>
  </g>
  <rect x="-96" rx="25" y="958.36" clip-path="url(#clipPath3009)" fill="#fff" height="92" opacity="0.15" width="92" transform="matrix(1 0 0 1 98 0)"/>
 </g>
</svg>
