<svg height="96" width="96" xmlns="http://www.w3.org/2000/svg" xmlns:sodipodi="http://sodipodi.sourceforge.net/DTD/sodipodi-0.dtd" xmlns:inkscape="http://www.inkscape.org/namespaces/inkscape">
 <defs>
  <linearGradient x2="0" y1="962.62" y2="1046.1" gradientUnits="userSpaceOnUse" id="linearGradient11642" gradientTransform="matrix(1.15 0 0 1.15 -7.2 -150.65)">
   <stop stop-color="#509528"/>
   <stop stop-color="#78cd46" offset="1"/>
  </linearGradient>
  <linearGradient x2="0" y1="81.33" y2="53.33" gradientUnits="userSpaceOnUse" id="linearGradient3865" gradientTransform="matrix(1 0 0 1 2 0)">
   <stop stop-color="#8dd35f"/>
   <stop stop-color="#a1ed6f" offset="1"/>
  </linearGradient>
  <clipPath clipPathUnits="userSpaceOnUse" id="clipPath3009">
   <path d="m-2 956.36h-96v33.562l96 25.687v-59.25z"/>
  </clipPath>
 </defs>
 <g transform="matrix(1 0 0 1 0 -956.36)">
  <rect x="2" rx="25" y="958.36" fill="url(#linearGradient11642)" height="92" width="92"/>
  <g transform="matrix(1 0 0 1 0 956.36)">
   <path d="m30.406 15.062c-4.6962 0.000042-8.4908 1.7085-11.375 5.125-3.291 3.8933-4.9375 9.1696-4.9375 15.844-0.000002 4.9659 0.95217 9.2826 2.875 12.938 2.9212 5.4426 7.4102 8.1562 13.438 8.1562 1.3023 5.816 4.8945 8.8753 13.344 7.5938v-4.2188c-3.9333 0.36252-4.7872-1.7993-5.0938-5.625v-0.25c1.1833-0.75481 2.2573-1.6917 3.2188-2.8438 3.1431-3.7741 4.7187-9.0361 4.7188-15.75-0.000035-5.0056-1.0032-9.3138-3-12.969-2.9582-5.3234-7.3451-8-13.188-8zm31.656 1.6875-5.9375 0.15625-1.9688 9.3125h-4.2188v6.9688h3.875v13.344c-0.000005 3.6549 0.5213 6.2176 1.5312 7.6875 1.2718 1.9466 3.973 2.9062 8.125 2.9062 1.384-0.000003 3.0989-0.188 5.1562-0.625v-6.625c-1.4214 0.07946-2.4768 0.12501-3.1875 0.125-1.1596 0.000007-1.9825-0.19647-2.4688-0.59375-0.597-0.476-0.905-1.709-0.905-3.656v-12.562h6.125v-6.9688h-6.125v-9.4688zm-31.656 6.125c4.5852 0.000034 6.875 4.3994 6.875 13.219-0.000025 8.8194-2.2898 13.25-6.875 13.25-4.6592 0.000008-7-4.4534-7-13.312-0.000012-0.35752-0.000012-0.70494 0-1.0625 0.22185-8.0645 2.5627-12.094 7-12.094z" opacity="0.3"/>
   <path d="m30.406 14.062c-4.6962 0.000042-8.4908 1.7085-11.375 5.125-3.291 3.8933-4.9375 9.1696-4.9375 15.844-0.000002 4.9659 0.95217 9.2826 2.875 12.938 2.9212 5.4426 7.4102 8.1562 13.438 8.1562 1.3023 5.816 4.8945 8.8753 13.344 7.5938v-4.2188c-3.9333 0.36252-4.7872-1.7993-5.0938-5.625v-0.25c1.1833-0.75481 2.2573-1.6917 3.2188-2.8438 3.1431-3.7741 4.7187-9.0361 4.7188-15.75-0.000035-5.0056-1.0032-9.3138-3-12.969-2.9582-5.3234-7.3451-8-13.188-8zm31.656 1.6875-5.9375 0.15625-1.9688 9.3125h-4.2188v6.9688h3.875v13.344c-0.000005 3.6549 0.5213 6.2176 1.5312 7.6875 1.2718 1.9466 3.973 2.9062 8.125 2.9062 1.384-0.000003 3.0989-0.188 5.1562-0.625v-6.625c-1.4214 0.07946-2.4768 0.12501-3.1875 0.125-1.1596 0.000007-1.9825-0.19647-2.4688-0.59375-0.597-0.476-0.905-1.709-0.905-3.656v-12.562h6.125v-6.9688h-6.125v-9.4688zm-31.656 6.125c4.5852 0.000034 6.875 4.3994 6.875 13.219-0.000025 8.8194-2.2898 13.25-6.875 13.25-4.6592 0.000008-7-4.4534-7-13.312-0.000012-0.35752-0.000012-0.70494 0-1.0625 0.22185-8.0645 2.5627-12.094 7-12.094z" fill="#fff"/>
   <g transform="matrix(1 0 0 1 0 6)">
    <path d="m69.226 53.944c-9.513 0-17.226 6.311-17.226 14.095 0 4.9583 3.132 9.3145 7.8628 11.827-0.1799 1.3096-0.99914 4.5153-4.8776 5.6117 5.0233 0.54594 8.3593-1.9034 10.13-3.752 1.3173 0.26388 2.6942 0.40782 4.1109 0.40782 9.5139 0 17.226-6.3103 17.226-14.094 0-7.7841-7.7126-14.094-17.226-14.094z" opacity="0.3"/>
    <path d="m69.226 52.944c-9.513 0-17.226 6.311-17.226 14.095 0 4.9583 3.132 9.3145 7.8628 11.827-0.1799 1.3096-0.99914 4.5153-4.8776 5.6117 5.0233 0.54594 8.3593-1.9034 10.13-3.752 1.3173 0.26388 2.6942 0.40782 4.1109 0.40782 9.5139 0 17.226-6.3103 17.226-14.094 0-7.7841-7.7126-14.094-17.226-14.094z" fill="url(#linearGradient3865)"/>
    <path d="m69.219 52.938c-9.514 0-17.219 6.309-17.219 14.093 0 0.21703 0.01938 0.44163 0.03125 0.65625 0.22616-7.623 7.816-13.75 17.188-13.75 9.3069 0 16.862 6.044 17.188 13.594 0.0072-0.16791 0.03125-0.33064 0.03125-0.5 0-7.7841-7.7048-14.094-17.219-14.094zm-9.563 26.812c-0.4 1.527-1.475 3.82-4.656 4.719 0.72129 0.07839 1.3792 0.09698 2.0312 0.0625 2.14-1.4262 2.7014-3.6203 2.8438-4.6562-0.07392-0.03925-0.14562-0.08485-0.21875-0.125z" fill="#fff" opacity="0.3"/>
   </g>
  </g>
  <rect x="-96" rx="25" y="958.36" clip-path="url(#clipPath3009)" fill="#fff" height="92" opacity="0.15" width="92" transform="matrix(1 0 0 1 98 0)"/>
 </g>
</svg>
