<svg height="96" width="96" xmlns="http://www.w3.org/2000/svg" xmlns:xlink="http://www.w3.org/1999/xlink" xmlns:sodipodi="http://sodipodi.sourceforge.net/DTD/sodipodi-0.dtd" xmlns:inkscape="http://www.inkscape.org/namespaces/inkscape">
 <defs>
  <clipPath clipPathUnits="userSpaceOnUse" id="clipPath3009">
   <path d="m-2 956.36h-96v33.562l96 25.687v-59.25z"/>
  </clipPath>
  <radialGradient cy="50.08" r="42" gradientUnits="userSpaceOnUse" id="radialGradient3142" cx="26.358" gradientTransform="matrix(1.4481 0.82895 -0.86573 1.6239 27.424 -53.685)">
   <stop stop-color="#c5df43"/>
   <stop offset="1"/>
  </radialGradient>
  <linearGradient x1="706.64" x2="700.23" xlink:href="#linearGradient6749" y1="239.56" y2="233.09" gradientUnits="userSpaceOnUse" id="linearGradient3144" gradientTransform="matrix(1.4458 0 0 1.503 -973.16 -336.59)"/>
  <linearGradient id="linearGradient6749">
   <stop stop-color="#dce21f"/>
   <stop stop-color="#dce21f" stop-opacity="0" offset="1"/>
  </linearGradient>
  <linearGradient x1="706.64" x2="700.23" xlink:href="#linearGradient6749" y1="239.56" y2="233.09" gradientUnits="userSpaceOnUse" id="linearGradient3150" gradientTransform="matrix(1.4458 0 0 1.503 -972.33 -335.79)"/>
  <linearGradient x1="706.64" x2="700.23" xlink:href="#linearGradient6749" y1="239.56" y2="233.09" gradientUnits="userSpaceOnUse" id="linearGradient3152" gradientTransform="matrix(1.4458 0 0 1.503 -971.49 -334.94)"/>
  <linearGradient x1="706.64" x2="700.23" xlink:href="#linearGradient6749" y1="239.56" y2="233.09" gradientUnits="userSpaceOnUse" id="linearGradient3154" gradientTransform="matrix(1.4458 0 0 1.503 -970.07 -334.3)"/>
  <linearGradient x1="706.64" x2="700.23" xlink:href="#linearGradient6749" y1="239.56" y2="233.09" gradientUnits="userSpaceOnUse" id="linearGradient3156" gradientTransform="matrix(1.4458 0 0 1.503 -968.79 -333.57)"/>
  <linearGradient x1="706.64" x2="700.23" xlink:href="#linearGradient6749" y1="239.56" y2="233.09" gradientUnits="userSpaceOnUse" id="linearGradient3238" gradientTransform="matrix(1.4458 0 0 1.503 -968.79 -332.29)"/>
  <clipPath clipPathUnits="userSpaceOnUse" id="clipPath3090">
   <rect x="6.282" rx="22.714" ry="22.566" y="6.616" height="83.04" width="83.59"/>
  </clipPath>
 </defs>
 <g transform="matrix(1 0 0 1 0 -956.36)">
  <g clip-path="url(#clipPath3090)" transform="matrix(1.1006 0 0 1.1079 -4.915 951.03)">
   <rect x="4.465" rx="6.251" ry="6.756" y="4.096" height="86.64" width="83.35"/>
   <path d="m10.858 3.6085c-3.4454 0-6.2351 2.7904-6.2351 6.2468v46.17c7.1228 4.142 14.142 5.2605 14.142 5.2605l-0.45182-10.333 4.0803-9.4407 3.6007 9.2059-0.20165 10.453s6.4342 1.1484 16.332-6.5551c12.19-9.488 14.414-16 11.927-30.717-2.305-13.642-16.039-19.68-16.039-19.68s5.2647 0.067484 14.684 10.756c14.132 16.036 3.2531 35.743 3.2531 35.743l1.3103 2.7712-5.2411 7.3741-3.7501-0.18788-3.479 2.5363-0.22591 2.9121-9.8497 4.0393-1.3103-1.503-7.6357 1.2682 0.27109 17.097-0.90364 3.9454h60.363c3.4454 0 6.1899-2.7904 6.1899-6.2468v-74.868c0-3.4565-2.7445-6.2468-6.1899-6.2468zm-6.2347 64.254v16.862c0 3.4565 2.7897 6.2468 6.2351 6.2468h8.8105l-1.1295-4.556s0.68652-16.697-0.40664-16.486c-1.4581-0.03262-5.9188-1.2682-5.9188-1.2682l-2.3946 1.6909z" fill="url(#radialGradient3142)"/>
   <path d="m39.981 4.7168s15.512 5.477 18.696 20.352c3.8827 18.138-2.1689 25.543-2.1689 25.543l1.2459 2.9337-5.6508 7.944-3.4559-0.54786-3.9732 3.2316 0.60138 2.1881-10.524 4.258-1.6923-1.6418-6.9101 1.2879 0.44628 17.086-0.78167 3.0166" stroke-width="1.179" fill="none" stroke="url(#linearGradient3144)" stroke-linecap="round"/>
   <path d="m34.626 30.531a12.084 11.619 0 1 1 -24.168 0 12.084 11.619 0 1 1 24.168 0z" stroke-width="1.465" fill="none" stroke="#d2e66d" opacity="0.212"/>
   <path d="m24.505 30.717a1.5879 1.3897 0 1 1 -3.1758 0 1.5879 1.3897 0 1 1 3.1758 0z" fill="#f2fac9" opacity="0.313"/>
   <path d="m31.747 30.531a9.205 9.1343 0 1 1 -18.41 0 9.205 9.1343 0 1 1 18.41 0z" stroke-width="3.02" fill="none" stroke="#d2e66d" opacity="0.101"/>
   <path d="m26.818 30.717a4.0886 3.6852 0 1 1 -8.1772 0 4.0886 3.6852 0 1 1 8.1772 0z" stroke-width="1.224" fill="none" stroke="#d2e66d" opacity="0.12"/>
   <path d="m40.81 5.5155s15.275 5.5299 18.696 20.352c4.1869 18.138-1.7431 24.447-1.7431 24.447l0.82011 4.0301-5.8941 8.3704-3.5776-0.60878-3.3041 2.6834 0.84468 2.1881-12.227 4.9889-1.6923-1.7636-5.7543 0.86154 0.44628 17.086-1.025 2.2247" stroke-width="1.179" fill="none" stroke="url(#linearGradient3150)" opacity="0.735" stroke-linecap="round"/>
   <path d="m43.048 5.1421s13.759 6.7757 17.297 21.57c4.3085 18.017-1.3173 23.777-1.3173 23.777l0.82011 4.0301-6.6849 9.5277-3.6992-0.79151-2.3917 1.9524 1.0272 2.4317-14.052 5.659-1.7531-1.8245-4.4769 0.43515 0.44628 17.086-0.78171 1.4938" stroke-width="1.179" fill="none" stroke="url(#linearGradient3152)" opacity="0.547" stroke-linecap="round"/>
   <path d="m43.621 6.2108s15.098 6.241 18.149 21.143c3.7137 18.138-1.4894 23.389-1.4894 23.389l0.82011 4.0301-7.4591 10.561-3.8283-0.83458-1.3594 1.1341 1.0702 2.6471-15.687 6.3912-2.0542-1.9968-2.7995 0.30593 0.44628 16.311-0.65268 1.2784" stroke-width="1.179" fill="none" stroke="url(#linearGradient3154)" opacity="0.381" stroke-linecap="round"/>
   <path d="m44.351 7.7336s15.983 5.3837 18.696 20.352c3.288 18.138-1.4894 22.902-1.4894 22.902l0.75928 4.0301-8.189 11.719-3.8283-1.0782-0.50783 0.2813 1.0094 3.0735-17.451 6.9394-1.8109-2.1795-1.4004 0.1232 0.44628 15.824-0.77433 1.0347" stroke-width="1.179" fill="none" stroke="url(#linearGradient3156)" opacity="0.193" stroke-linecap="round"/>
   <path d="m45.324 7.0635s16.226 7.5766 18.94 22.544c3.288 18.138-1.5502 21.683-1.5502 21.683l0.94177 3.7865-9.5272 12.937-3.0375-1.2001 0.22211 0.03765 0.76604 2.5253-19.275 7.7922-1.8109-2.3014 0.24192 0.18411 0.56794 14.91-0.83516 0.91292" stroke-width="1.179" fill="none" stroke="url(#linearGradient3238)" opacity="0.063" stroke-linecap="round"/>
  </g>
  <rect x="-96" rx="25" y="958.36" clip-path="url(#clipPath3009)" fill="#fff" height="92" opacity="0.15" width="92" transform="matrix(1 0 0 1 98 0)"/>
 </g>
</svg>
