<svg height="96" width="96" xmlns="http://www.w3.org/2000/svg" xmlns:xlink="http://www.w3.org/1999/xlink" xmlns:sodipodi="http://sodipodi.sourceforge.net/DTD/sodipodi-0.dtd" xmlns:inkscape="http://www.inkscape.org/namespaces/inkscape">
 <defs>
  <clipPath clipPathUnits="userSpaceOnUse" id="clipPath3009">
   <path d="m-2 956.36h-96v33.562l96 25.687v-59.25z"/>
  </clipPath>
  <radialGradient cy="275.05" r="28.823" gradientUnits="userSpaceOnUse" id="radialGradient3381" cx="768.82" gradientTransform="matrix(1.0432 0 0 1.0203 -767.69 -242.61)">
   <stop stop-color="#e60017"/>
   <stop stop-color="#e60017" stop-opacity="0" offset="1"/>
  </radialGradient>
  <linearGradient x1="685.07" x2="685" y1="223.76" y2="266.7" gradientUnits="userSpaceOnUse" id="linearGradient3378" gradientTransform="matrix(1.4328 0 0 1.4495 -935.65 -320.66)">
   <stop stop-color="#e4e3e4"/>
   <stop stop-color="#adabac" offset="1"/>
  </linearGradient>
  <radialGradient cy="260.94" r="15.307" gradientUnits="userSpaceOnUse" id="radialGradient3371" cx="352.54" gradientTransform="matrix(4.1234 -0.02617 0.02213 3.4767 -1414.8 -856.11)">
   <stop stop-color="#fff"/>
   <stop stop-color="#fff" stop-opacity="0" offset="1"/>
  </radialGradient>
  <radialGradient cy="262.31" r="2.349" xlink:href="#radialGradient3371" gradientUnits="userSpaceOnUse" id="radialGradient3366" cx="342.16" gradientTransform="matrix(3.0476 0.19418 -1.4889 23.302 -620.88 -6132.2)"/>
  <radialGradient cy="272.48" r="2.295" xlink:href="#radialGradient3371" gradientUnits="userSpaceOnUse" id="radialGradient3363" cx="341.79" gradientTransform="matrix(2.9392 0.04134 -0.18575 13.168 -931.61 -3543.2)"/>
  <filter color-interpolation-filters="sRGB" id="filter7538">
   <feGaussianBlur stdDeviation="0.10159"/>
  </filter>
  <filter color-interpolation-filters="sRGB" id="filter7532">
   <feGaussianBlur stdDeviation="0.0834"/>
  </filter>
  <filter color-interpolation-filters="sRGB" id="filter7544">
   <feGaussianBlur stdDeviation="0.06095"/>
  </filter>
  <linearGradient x1="80.48" x2="85.23" gradientUnits="userSpaceOnUse" id="linearGradient3348" gradientTransform="matrix(1.0028 0 0 1.0014 0 -0.137)">
   <stop stop-color="#eee"/>
   <stop stop-color="#eee" stop-opacity="0" offset="1"/>
  </linearGradient>
  <linearGradient x1="63.21" x2="65.28" xlink:href="#linearGradient3348" gradientUnits="userSpaceOnUse" id="linearGradient3345" gradientTransform="matrix(1.0028 0 0 1.0014 0 -0.137)"/>
  <linearGradient x1="41.31" x2="43.39" xlink:href="#linearGradient3348" gradientUnits="userSpaceOnUse" id="linearGradient3513" gradientTransform="matrix(1.0028 0 0 1.0014 0 -0.137)"/>
  <clipPath clipPathUnits="userSpaceOnUse" id="clipPath3132">
   <rect x="6.122" rx="22.819" ry="23.04" y="5.439" height="84.78" width="83.974"/>
  </clipPath>
 </defs>
 <g transform="matrix(1 0 0 1 0 -956.36)">
  <g clip-path="url(#clipPath3132)" transform="matrix(1.0956 0 0 1.0851 -4.707 952.46)">
   <rect x="5.04" rx="6.163" ry="6.303" y="3.036" fill="#641a21" height="88.25" width="86.28"/>
   <path d="m64.436 38.033a30.07 29.394 0 1 1 -60.139 0 30.07 29.394 0 1 1 60.139 0z" fill="url(#radialGradient3381)" opacity="0.76"/>
   <path d="m11.2 3.0508c-3.4142 0-6.1788 2.8042-6.1788 6.2964v22.377c8.9252 0.87505 17.73 0.90595 17.73 0.90595s-2.0245 50.714-2.1939 51.821c-0.16944 1.1065-1.0298 1.3136-1.0298 1.3136s-1.2-44.298-3.4028-44.482c-1.0313-0.08639-5.6943-0.95093-11.104-2.2196v45.932c0 3.4921 2.7645 6.2964 6.1788 6.2964h73.966c3.4142 0 6.134-2.8042 6.134-6.2964v-75.647c0-3.4921-2.7197-6.2964-6.134-6.2964h-55.251c0.71656 15.014 1.9253 37.144 1.9253 37.144s-1.884 49.222-2.7312 50.144c-0.84726 0.92212-0.83487 0.66156-1.3432-3.4879-0.674-5.512-2.685-46.838-2.685-46.838l1.925-36.963zm53.281 10.962c0.18872-0.04218 0.48686-0.0072 0.98502 0.13582 5.7406 1.656 11.015 4.2519 12.716 8.2895 1.864 4.4261-0.91331 8.3074-6.5817 11.098-7.4023 3.6442-26.094 7.3803-28.297 7.5647-2.2028 0.18442-3.4028 44.437-3.4028 44.437s-0.86034-0.20712-1.0298-1.3136c-0.16945-1.1065-2.1939-51.821-2.1939-51.821s25.893-1.0366 33.968-4.6382c7.0399-3.2565 5.441-5.8969 2.3065-8.8121-4.3369-4.0336-8.47-4.769-8.47-4.769s-0.62715-0.04493-0.06103-0.17151z" fill="url(#linearGradient3378)"/>
   <path d="m63.693 55.742-22.41 0.03073" stroke-width="0.708" fill="none" stroke="#fff" opacity="0.65"/>
   <path d="m63.746 54.562-22.371 0.152" stroke-width="1.487" fill="#7c7b7c" stroke="#646464" opacity="0.677"/>
   <path d="m42.595 31.772v-28.639" stroke-width="1.441" fill="#7f7e7e" stroke="#7f7e7e" opacity="0.714"/>
   <path d="m85.3 49.38-0.017-46.34" stroke-width="1.139" fill="none" stroke="#fff" opacity="0.419"/>
   <path d="m42.83 41.24s26.847-5.2882 33.245-10.409c2.7124-2.1709 4.3594-6.1548 1.9118-9.0037-3.5943-4.1837-5.7586-5.1724-5.7586-5.1724s-9.5851-3.3923-7.4046-2.8506c6.8547 1.7029 15.398 5.8237 15.598 10.373 0.23981 5.4557-1.9166 7.2557-6.593 10.125-7.5785 4.6503-26.208 8.5676-28.604 8.7572-2.3963 0.18964-4.1337 41.236-4.1337 41.236s-0.99456 1.6293-1.0206 0.47698c-0.52939-23.449 2.7599-43.534 2.7599-43.534z" fill="url(#radialGradient3371)" opacity="0.774"/>
   <path d="m64.93 91.348 0.519-39.203 25.788-0.122" stroke-width="0.756" fill="none" stroke="#ececec" opacity="0.728"/>
   <path d="m30.677 3.4395 1.855 38.234-2.383 48.391" stroke-width="1.587" fill="none" stroke="url(#radialGradient3366)" opacity="0.747"/>
   <path d="m23.458 32.677 0.03595 5.7716-2.2273 46.836" stroke-width="1.587" fill="none" stroke="url(#radialGradient3363)" opacity="0.747"/>
   <rect x="62.87" y="60.769" fill="#e5e5e5" height="5.117" filter="url(#filter7538)" width="3.863" transform="matrix(1.0326 0 0 1.0925 -1.99 -6.138)"/>
   <path d="m63.943 91.339 0.54327-40.25h26.715" stroke-width="1.449" fill="none" stroke="#141414" opacity="0.372"/>
   <path d="m84.074 50.764 0.298-47.63" stroke-width="1.441" fill="none" stroke="#6f6f6f" opacity="0.737"/>
   <rect x="78.51" y="49.883" fill="#ececec" fill-opacity="0.655" height="4.515" filter="url(#filter7532)" width="7.772" transform="matrix(1.0028 0 0 1.0014 0 -0.137)"/>
   <rect x="62.56" y="60.11" fill="#7d7d7d" height="5.125" width="3.874"/>
   <rect x="79.25" y="48.956" fill="#7f7f7f" height="4.522" width="7.449"/>
   <path d="m43.369 32.023-0.026-29.146" stroke-width="0.731" fill="none" stroke="#fff" opacity="0.548"/>
   <rect x="40.883" y="9.415" fill="#eee" height="5.117" filter="url(#filter7544)" width="3.863" transform="matrix(1.0638 0 0 1.1404 -2.728 -2.157)"/>
   <rect x="40.509" y="8.56" fill="#9c9c9c" height="5.125" width="3.874"/>
   <rect x="80.71" y="49.93" fill="url(#linearGradient3348)" height="2.573" opacity="0.304" width="4.765"/>
   <rect x="63.39" y="61.14" fill="url(#linearGradient3345)" height="3.06" opacity="0.304" width="2.081"/>
   <rect x="41.43" y="8.996" fill="url(#linearGradient3513)" height="3.791" opacity="0.304" width="2.081"/>
  </g>
  <rect x="-96" rx="25" y="958.36" clip-path="url(#clipPath3009)" fill="#fff" height="92" opacity="0.15" width="92" transform="matrix(1 0 0 1 98 0)"/>
 </g>
</svg>
