<?xml version="1.0" encoding="UTF-8" standalone="no"?>
<!-- Created with Inkscape (http://www.inkscape.org/) -->

<svg
   xmlns:dc="http://purl.org/dc/elements/1.1/"
   xmlns:cc="http://creativecommons.org/ns#"
   xmlns:rdf="http://www.w3.org/1999/02/22-rdf-syntax-ns#"
   xmlns:svg="http://www.w3.org/2000/svg"
   xmlns="http://www.w3.org/2000/svg"
   xmlns:sodipodi="http://sodipodi.sourceforge.net/DTD/sodipodi-0.dtd"
   xmlns:inkscape="http://www.inkscape.org/namespaces/inkscape"
   id="svg11037"
   height="96"
   width="96"
   version="1.1"
   inkscape:version="0.48.5 r10040"
   sodipodi:docname="quake.svg">
  <sodipodi:namedview
     pagecolor="#ffffff"
     bordercolor="#666666"
     borderopacity="1"
     objecttolerance="10"
     gridtolerance="10"
     guidetolerance="10"
     inkscape:pageopacity="0"
     inkscape:pageshadow="2"
     inkscape:window-width="640"
     inkscape:window-height="480"
     id="namedview56586" />
  <defs
     id="defs11039">
    <clipPath
       id="clipPath3009"
       clipPathUnits="userSpaceOnUse">
      <path
         id="path3011"
         style="opacity:.15;fill:#fff"
         d="m-2 956.36h-96v33.562l96 25.687v-59.25z" />
    </clipPath>
    <radialGradient
       id="radialGradient14580"
       gradientUnits="userSpaceOnUse"
       cy="62.533"
       cx="64.537"
       gradientTransform="matrix(.60532 -.014679 .014761 .97373 6.5531 -2.45)"
       r="40.178">
      <stop
         id="stop6508"
         style="stop-color:#d3aa98"
         offset="0" />
      <stop
         id="stop6685"
         style="stop-color:#c78d73"
         offset=".5" />
      <stop
         id="stop6510"
         style="stop-color:#bc704f"
         offset="1" />
    </radialGradient>
    <radialGradient
       id="radialGradient14582"
       gradientUnits="userSpaceOnUse"
       cy="56.522"
       cx="92.926"
       gradientTransform="matrix(1.0254 .0078477 -.010947 1.4181 .082940 -22.571)"
       r="41.971">
      <stop
         id="stop4984-0"
         style="stop-color:#434343"
         offset="0" />
      <stop
         id="stop4986-0"
         style="stop-color:#151515"
         offset="1" />
    </radialGradient>
    <radialGradient
       id="radialGradient14588"
       gradientUnits="userSpaceOnUse"
       cy="56.554"
       cx="51.01"
       gradientTransform="matrix(1.3984 .32374 -.25361 1.0955 -6.5342 -22.038)"
       r="6.3614">
      <stop
         id="stop6630-0"
         style="stop-color:#ddbdaf"
         offset="0" />
      <stop
         id="stop6632-7"
         style="stop-color:#fff;stop-opacity:0"
         offset="1" />
    </radialGradient>
    <radialGradient
       id="radialGradient3340"
       gradientUnits="userSpaceOnUse"
       cx="51.743"
       cy="57.14"
       r="6.3614"
       gradientTransform="matrix(1.3703 .45457 -.31614 .90128 -7.9347 -20.226)">
      <stop
         id="stop6616-5"
         style="stop-color:#e7d1c7"
         offset="0" />
      <stop
         id="stop6618-8"
         style="stop-color:#d3aa97;stop-opacity:0"
         offset="1" />
    </radialGradient>
    <clipPath
       id="clipPath3066"
       clipPathUnits="userSpaceOnUse">
      <rect
         id="rect3068"
         style="opacity:.6"
         rx="22.412"
         ry="22.408"
         height="82.463"
         width="82.477"
         y="6.0881"
         x="7.6367" />
    </clipPath>
  </defs>
  <metadata
     id="metadata11042">
    <rdf:RDF>
      <cc:Work
         rdf:about="">
        <dc:format>image/svg+xml</dc:format>
        <dc:type
           rdf:resource="http://purl.org/dc/dcmitype/StillImage" />
        <dc:title />
      </cc:Work>
    </rdf:RDF>
  </metadata>
  <g
     id="layer1"
     transform="translate(0 -956.36)">
    <g
       id="g3288"
       clip-path="url(#clipPath3066)"
       transform="matrix(1.1155 0 0 1.1157 -6.5185 951.57)">
      <rect
         id="rect6670-9"
         style="fill:url(#radialGradient14580)"
         rx="4.435"
         ry="6.1024"
         height="78.26"
         width="59.133"
         y="4.7746"
         x="5.8442" />
      <rect
         id="rect6350"
         style="fill:#bc704f"
         rx="0"
         ry="6.1024"
         height="10.931"
         width="16.871"
         y="79.287"
         x="15.446" />
      <path
         id="rect5790-8"
         d="m12 3.7812c-3.4062 0-6.1562 2.7626-6.1562 6.1875v45.75c6.927 5.2479 13.75 5.0938 13.75 5.0938s0.06847-7.2621 0.03125-10.281c-0.03722-3.0192-4.6562-4.25-4.6562-4.25l0.0625-0.625 15.968 0.031-0.031 0.718s-3.9656 0.86013-4 4.0625c-0.03436 3.2024 0.0625 10.5 0.0625 10.5s8.4646 0.51911 16.688-5.8438c11.428-8.843 13.783-16.83 11-31.25-2.5981-13.46-15.875-19.5-15.875-19.5s5.2189 0.065458 14.531 10.656c13.972 15.89 4.3438 34.062 4.3438 34.062-3.5834 6.22-6.7949 9.8326-12.156 13.75-6.2883 4.3298-11.268 5.383-18.531 6.8125v11l-2.282 9.596 24.219 0.03125 3.7188-6.5938 1.8438 6.5938h0.34375l2.8125-5.0625 1.375 5.0625 26.719 0.0625c3.4062 0.0041 6.125-2.7626 6.125-6.1875v-32.469l-4-3.0312 4-0.84375v-0.53125l-3.9688-2.9062 3.9688-0.8125v-33.594c0-3.4249-2.7188-6.1875-6.125-6.1875h-8.0625l-1.0312 3.1562-1.6562-3.1562h-4.6875l-0.656 4.0945-3.063-4.0938h-54.625zm-6.1562 61.719v18.656c0 3.4249 2.75 6.1875 6.1562 6.1875h10l-2.375-9.7812v-10.969c-1.4416-0.03237-6.2812-1.375-6.2812-1.375-2.723-0.812-4.4236-1.242-7.5002-2.719z"
         style="fill:url(#radialGradient14582)" />
      <path
         id="path6662-3"
         d="m26.726 85.928-1.9999-2.6742 3.6848 0.86443z"
         style="fill:#151515" />
      <path
         id="path6664-9"
         d="m17.791 56.617a1.2673 0.9505 0 1 0 0.0206 -0.1706"
         style="fill:#181818" />
      <path
         id="path6660-0"
         d="m28.246 52.33a1.1089 0.79208 0 1 1 -0.018 -0.14217"
         style="fill:#181818" />
      <path
         id="path6658-9"
         d="m28.022 59.212a1.2673 0.9505 0 1 1 -0.0206 -0.1706"
         style="fill:#181818" />
      <path
         id="path6656-2"
         d="m50.986 43.231 3.4321 2.6125-3.7699-0.33642z"
         style="fill:#181818" />
      <path
         id="path6653-6"
         d="m42.887 65.853-0.0767-4.3127 2.0723 3.1671z"
         style="fill:#151515" />
      <path
         id="path6612-7"
         d="m44.596 63.087s7.2871-4.2772 11.723-13.307"
         style="stroke:url(#radialGradient14588);stroke-linecap:round;stroke-width:1px;fill:none" />
      <path
         id="path6624-9"
         d="m37.2 59.712s7.9012-3.1075 13.657-11.235"
         style="stroke:url(#radialGradient3340);stroke-linecap:round;stroke-width:.99469px;fill:none" />
    </g>
    <rect
       id="rect3003"
       style="opacity:.15;fill:#fff"
       transform="translate(98)"
       clip-path="url(#clipPath3009)"
       rx="25"
       ry="25"
       height="92"
       width="92"
       y="958.36"
       x="-96" />
  </g>
</svg>
