<svg height="96" width="96" xmlns="http://www.w3.org/2000/svg" xmlns:xlink="http://www.w3.org/1999/xlink" xmlns:sodipodi="http://sodipodi.sourceforge.net/DTD/sodipodi-0.dtd" xmlns:inkscape="http://www.inkscape.org/namespaces/inkscape">
 <defs>
  <clipPath clipPathUnits="userSpaceOnUse" id="clipPath3009">
   <path d="m-2 956.36h-96v33.562l96 25.687v-59.25z"/>
  </clipPath>
  <linearGradient x2="0" y1="90" y2="5.988" gradientUnits="userSpaceOnUse" id="linearGradient3617">
   <stop stop-color="#410264"/>
   <stop stop-color="#be47eb" offset="1"/>
  </linearGradient>
  <clipPath clipPathUnits="userSpaceOnUse" id="clipPath3936">
   <use xlink:href="#SVGCleanerId_0"/>
  </clipPath>
  <clipPath clipPathUnits="userSpaceOnUse" id="clipPath3032">
   <rect x="7.75" rx="21.875" y="7.75" height="80.5" width="80.5"/>
  </clipPath>
  <rect x="6" rx="6" y="6" height="84" id="SVGCleanerId_0" width="84"/>
  <path d="m25.094 21.297v4 20.344h-28.719v4.7188h28.719v20.344 4l3.5-1.9375 37.594-20.781v18.719 2.3438h4.7188v-2.3438-20.344h28.719v-4.7188h-28.719v-20.344-2.375h-4.7188v2.375 18.688l-37.594-20.75-3.5-1.9375zm4.7188 8 29.625 16.344h-29.625v-16.344zm0 21.062h29.562l-29.562 16.344v-16.344z" fill="#fff" color="#000000" id="SVGCleanerId_1"/>
 </defs>
 <g transform="matrix(1 0 0 1 0 -956.36)">
  <g clip-path="url(#clipPath3032)" transform="matrix(1.1429 0 0 1.1429 -6.857 949.51)">
   <use xlink:href="#SVGCleanerId_0" fill="url(#linearGradient3617)"/>
   <g clip-path="url(#clipPath3936)">
    <use stroke-width="6" xlink:href="#SVGCleanerId_1" stroke="#fff" opacity="0.15"/>
    <use stroke-width="4" xlink:href="#SVGCleanerId_1" stroke="#fff" opacity="0.08"/>
    <use xlink:href="#SVGCleanerId_1"/>
    <use stroke-width="2" xlink:href="#SVGCleanerId_1" stroke="#fff" opacity="0.4"/>
   </g>
  </g>
  <rect x="-96" rx="25" y="958.36" clip-path="url(#clipPath3009)" fill="#fff" height="92" opacity="0.15" width="92" transform="matrix(1 0 0 1 98 0)"/>
 </g>
</svg>
