<svg height="96" width="96" xmlns="http://www.w3.org/2000/svg" xmlns:sodipodi="http://sodipodi.sourceforge.net/DTD/sodipodi-0.dtd" xmlns:inkscape="http://www.inkscape.org/namespaces/inkscape">
 <defs>
  <clipPath clipPathUnits="userSpaceOnUse" id="clipPath3009">
   <path d="m-2 956.36h-96v33.562l96 25.687v-59.25z"/>
  </clipPath>
 </defs>
 <g transform="matrix(1 0 0 1 0 -956.36)">
  <rect x="2" rx="25" y="958.36" height="92" opacity="0.6" width="92"/>
  <path d="m-131.33 1058.9h33.983s-0.79772-8.4557 0.15955-14.838c1.9145-6.2221 3.829-14.678 18.507-22.974 2.074-17.869-8.6153-54.085-6.0626-60.786 3.6695-7.6581 15.861-4.03 16.273-22.017-1.2763-18.744-25.527-24.729-33.185-11.806 0 0-40.843 104.34-41.002 107.69 0.15954 6.7009 12.444 14.2 11.328 24.729z" fill="#fb8b00" transform="matrix(0.53918 0 0 0.53918 104.92 470.95)"/>
  <rect x="-96" rx="25" y="958.36" clip-path="url(#clipPath3009)" fill="#fff" height="92" opacity="0.15" width="92" transform="matrix(1 0 0 1 98 0)"/>
 </g>
</svg>
