<svg height="96" width="96" xmlns="http://www.w3.org/2000/svg" xmlns:xlink="http://www.w3.org/1999/xlink" xmlns:sodipodi="http://sodipodi.sourceforge.net/DTD/sodipodi-0.dtd" xmlns:inkscape="http://www.inkscape.org/namespaces/inkscape">
 <defs>
  <linearGradient id="linearGradient11508">
   <stop/>
   <stop stop-opacity="0" offset="1"/>
  </linearGradient>
  <linearGradient x1="43.7" x2="77.924" xlink:href="#linearGradient11508" y1="82.47" y2="16.212" gradientUnits="userSpaceOnUse" id="linearGradient3209" inkscape:collect="always" gradientTransform="matrix(0.86655 0.18119 -0.27629 0.5683 79.87 -3.287)"/>
  <linearGradient x1="43.7" x2="87.73" xlink:href="#linearGradient11508" y1="82.47" y2="6.208" gradientUnits="userSpaceOnUse" id="linearGradient3211" inkscape:collect="always" gradientTransform="matrix(0.84443 0.12131 -0.12943 0.79144 68.64 -19.303)"/>
  <linearGradient x1="60.899" x2="68.22" y1="35.606" y2="39.534" gradientUnits="userSpaceOnUse" id="linearGradient3213" inkscape:collect="always" gradientTransform="matrix(0.81423 0 0 0.81423 59.2 -16.05)">
   <stop stop-color="#1a1a1a"/>
   <stop stop-color="#636363" offset="0.352"/>
   <stop stop-color="#c7c7c7" offset="0.5"/>
   <stop stop-color="#636363" offset="0.65"/>
   <stop offset="1"/>
  </linearGradient>
  <linearGradient x1="119.91" x2="141" gradientUnits="userSpaceOnUse" id="linearGradient3215" inkscape:collect="always" gradientTransform="matrix(0.78109 0 0 1.2803 0 0)">
   <stop/>
   <stop stop-opacity="0" offset="0.5"/>
   <stop stop-color="#fff" offset="1"/>
  </linearGradient>
  <linearGradient x1="10" x2="18" xlink:href="#linearGradient3215" gradientUnits="userSpaceOnUse" id="linearGradient3217" inkscape:collect="always" gradientTransform="matrix(0 1 1 0 -10 10)"/>
  <radialGradient cy="41.704" r="18.18" gradientUnits="userSpaceOnUse" id="radialGradient3219" cx="59.852" inkscape:collect="always" gradientTransform="matrix(0.37707 -0.72166 0.09021 0.04713 86.33 54.2)">
   <stop stop-color="#fff"/>
   <stop stop-color="#fff" stop-opacity="0" offset="1"/>
  </radialGradient>
  <rect x="15.405" rx="2.2" y="974.58" ry="1.4" fill-opacity="1" stroke="none" height="3.536" id="SVGCleanerId_0" width="11.11"/>
  <rect x="15.405" rx="2.2" y="1032.92" ry="1.4" fill-opacity="1" stroke="none" height="3.536" id="SVGCleanerId_1" width="11.11"/>
  <rect x="15.405" rx="2.2" y="1024.58" ry="1.4" fill-opacity="1" stroke="none" height="3.536" id="SVGCleanerId_2" width="11.11"/>
  <rect x="15.405" rx="2.2" y="1016.25" ry="1.4" fill-opacity="1" stroke="none" height="3.536" id="SVGCleanerId_3" width="11.11"/>
  <rect x="15.405" rx="2.2" y="1007.92" ry="1.4" fill-opacity="1" stroke="none" height="3.536" id="SVGCleanerId_4" width="11.11"/>
  <rect x="15.405" rx="2.2" y="999.58" ry="1.4" fill-opacity="1" stroke="none" height="3.536" id="SVGCleanerId_5" width="11.11"/>
  <rect x="15.405" rx="2.2" y="991.25" ry="1.4" fill-opacity="1" stroke="none" height="3.536" id="SVGCleanerId_6" width="11.11"/>
  <rect x="15.405" rx="2.2" y="982.91" ry="1.4" fill-opacity="1" stroke="none" height="3.536" id="SVGCleanerId_7" width="11.11"/>
 </defs>
 <rect x="8" rx="10.769" y="8" fill="#a02c2c" fill-opacity="1" stroke="none" height="80" width="80"/>
 <path d="M 18.781248,7.9999988 C 12.81509,7.9999988 8,12.815095 8,18.781248 l 0,58.437501 c 0,5.966154 4.81509,10.78125 10.781248,10.78125 l 1.9375,0 0,-80.0000002 -1.9375,0 z" fill="#1a1a1a" fill-opacity="1" stroke="none" inkscape:connector-curvature="0"/>
 <g fill="black" opacity="0.5" transform="matrix(1 0 0 1 0 -955.88)">
  <use xlink:href="#SVGCleanerId_0"/>
  <use xlink:href="#SVGCleanerId_1"/>
  <use xlink:href="#SVGCleanerId_2"/>
  <use xlink:href="#SVGCleanerId_3"/>
  <use xlink:href="#SVGCleanerId_4"/>
  <use xlink:href="#SVGCleanerId_5"/>
  <use xlink:href="#SVGCleanerId_6"/>
  <use xlink:href="#SVGCleanerId_7"/>
 </g>
 <g transform="matrix(1 0 0 1 0 -956.36)">
  <use xlink:href="#SVGCleanerId_0" fill="#b3b3b3"/>
  <use xlink:href="#SVGCleanerId_1" fill="#b3b3b3"/>
  <use xlink:href="#SVGCleanerId_2" fill="#b3b3b3"/>
  <use xlink:href="#SVGCleanerId_3" fill="#b3b3b3"/>
  <use xlink:href="#SVGCleanerId_4" fill="#b3b3b3"/>
  <use xlink:href="#SVGCleanerId_5" fill="#b3b3b3"/>
  <use xlink:href="#SVGCleanerId_6" fill="#b3b3b3"/>
  <use xlink:href="#SVGCleanerId_7" fill="#b3b3b3"/>
 </g>
 <g transform="matrix(0.74738 0 0 0.74738 -17.334 45.44)">
  <path d="m 132.48,22.095 c -3.6858,2.0006 -7.2847,3.9883 -10.534,6.2085 -4.365,2.9824 -7.4244,5.9688 -8.8294,8.2441 -0.006,0.01041 -0.0191,0.01507 -0.0254,0.02544 -0.85525,0.51272 -6.9873,4.2125 -10.102,6.3612 -3.4,2.3458 -9.1347,8.3459 -9.1347,8.3459 l 0.66156,0.40712 c 5.6356,-2.6277 16.972,-5.2416 16.972,-5.2416 l 0.38167,-0.10178 -0.10178,-0.25445 c 0,0 -0.0496,-0.10618 0,-0.43256 0.0496,-0.32638 0.21762,-0.83976 0.63612,-1.5267 0.90936,-1.4926 3.2069,-3.0679 4.7582,-4.0203 3.5779,-0.88322 8.6396,-3.2387 13.359,-6.463 0.67025,-0.45796 1.3132,-0.92542 1.9592,-1.3995 v -10.152 z" fill="url(#linearGradient3209)" opacity="0.3" inkscape:connector-curvature="0"/>
  <path d="m 132.48,-3.3242 c -5.8298,7.2724 -12.578,13.153 -17.76,20.127 -3.3838,4.5536 -5.5404,8.9528 -6.3358,12.163 -0.004,0.01466 -0.0219,0.03627 -0.0254,0.05089 -0.67899,0.79721 -5.5292,6.4943 -7.9388,9.7708 -2.635,3.576 -6.62,12.314 -6.62,12.314 l 0.71245,0.45801 c 4.642,-4.257 14.558,-9.262 14.558,-9.262 l 0.33078,-0.17811 -0.12722,-0.33078 c 0,0 -0.075,-0.14566 -0.10178,-0.58523 -0.0268,-0.43957 -0.006,-1.1437 0.229,-2.1119 0.51038,-2.1039 2.3102,-4.5039 3.5368,-5.9795 3.1223,-1.6622 7.2831,-5.4587 10.941,-10.381 3.1444,-4.2314 5.7662,-8.8272 8.6003,-13.562 v -12.493 z" fill="url(#linearGradient3211)" opacity="0.2" inkscape:connector-curvature="0"/>
  <path d="m 117.36,18.047 c -4.0496,8.2509 -9.7641,14.119 -11.845,13.001 -2.2191,-1.1922 -1.1463,-8.7964 3.0089,-17.262 4.1542,-8.4641 10.627,-15.8 14.882,-25.25 0.81079,-1.801 2.3809,-4.4618 4.61,-3.3316 2.3106,1.1714 1.6837,3.3635 0.46295,5.8534 -4.7142,9.6155 -7.0695,18.739 -11.119,26.99 z" fill="url(#linearGradient3213)" stroke="black" inkscape:connector-curvature="0"/>
  <path d="m 110.14,26.452 a 3.3364,2.6238 29.388 1 1 -5.6492,1.5131 3.3364,2.6238 29.388 1 1 5.6492,-1.5131 z" stroke-width="1.969" fill="none" stroke="#2e3436" stroke-linecap="round" inkscape:connector-curvature="0"/>
  <path d="m 94.162,51.193 c 0,0 2.4075,-9.3899 4.2814,-13.255 1.8738,-3.8654 6.3041,-11.555 6.3041,-11.555 0,0 1.2782,-1.912 3.3416,-0.89501 2.0634,1.01699 1.4678,2.9704 1.4678,2.9704 0,0 -3.1117,4.6864 -3.3706,8.3025 -0.14922,2.0844 0.33941,2.9362 0.33941,2.9362 0,0 -8.5696,6.4436 -12.364,11.496 z" fill="url(#linearGradient3215)" fill-rule="evenodd" stroke="#c17d11" inkscape:connector-curvature="0"/>
  <path d="M 100.43,37.866 A 0.5447282,1.2425415 27.633 1 1 99.4261,37.43601 0.5447282,1.2425415 27.633 0 1 100.43,37.866 z" stroke-width="0.335" fill-opacity="0.6" stroke="#c17d11" stroke-linecap="round" inkscape:connector-curvature="0"/>
  <path d="m 94.21,50.956 c 1.6988,-4.3791 2.9113,-8.0673 5.0356,-12.112" stroke-width="0.343" fill="#c17d11" fill-rule="evenodd" stroke="#c17d11" inkscape:connector-curvature="0"/>
  <path d="m 107.79,26.828 c -0.17821,0.1447 -0.29683,0.29517 -0.30534,0.30534 -5e-5,8.7e-5 -0.0254,-1.01e-4 -0.0254,0 -0.0614,0.10662 -4.405,7.6789 -6.2085,11.399 -0.6145,1.2676 -1.3455,3.3136 -2.0101,5.4197 2.7493,-2.4747 5.1081,-4.2482 5.7505,-4.7327 -0.12267,-0.60323 -0.20766,-1.4465 -0.12723,-2.5699 0.15355,-2.1448 1.0634,-4.3076 1.9084,-6.005 0.76484,-1.5364 1.367,-2.4403 1.5012,-2.6463 0.009,-0.03587 0.0442,-0.17192 0,-0.43256 -0.041,-0.2416 -0.0862,-0.47758 -0.48346,-0.7379 z" fill="url(#linearGradient3217)" fill-rule="evenodd" inkscape:connector-curvature="0"/>
  <path d="m 119.51,-0.14628 a 1.8506,14.805 27.587 1 1 -13.71,26.243 1.8506,14.805 27.587 0 1 13.71,-26.243 z" fill="url(#radialGradient3219)" inkscape:connector-curvature="0"/>
 </g>
</svg>
