<svg height="96" width="96" xmlns="http://www.w3.org/2000/svg" xmlns:xlink="http://www.w3.org/1999/xlink" xmlns:sodipodi="http://sodipodi.sourceforge.net/DTD/sodipodi-0.dtd" xmlns:inkscape="http://www.inkscape.org/namespaces/inkscape">
 <defs>
  <linearGradient id="linearGradient9871">
   <stop stop-color="#e3e3e3"/>
   <stop stop-color="#e3e3e3" stop-opacity="0" offset="1"/>
  </linearGradient>
  <filter x="-0.316" y="-0.013" height="1.025" color-interpolation-filters="sRGB" id="filter9887" width="1.633">
   <feGaussianBlur stdDeviation="0.03295"/>
  </filter>
  <linearGradient x1="44" x2="44.5" xlink:href="#linearGradient9871" y1="77.25" y2="81.75" gradientUnits="userSpaceOnUse" id="linearGradient3778" inkscape:collect="always" gradientTransform="matrix(1 0 0 1 1.125 0)"/>
  <linearGradient x1="44" x2="44.5" xlink:href="#linearGradient9871" y1="77.25" y2="81.75" gradientUnits="userSpaceOnUse" id="linearGradient3922" inkscape:collect="always" gradientTransform="matrix(-0.16037 0.76762 -1.96099 -0.40564 224.03 36.853)"/>
  <linearGradient x1="391.25" x2="389.52" y1="61.27" y2="26.516" gradientUnits="userSpaceOnUse" id="linearGradient3933" inkscape:collect="always" gradientTransform="matrix(0.40623 0 0 0.41517 -108.99 23.18)">
   <stop stop-color="#a5230e"/>
   <stop stop-color="#e8aa27" offset="1"/>
  </linearGradient>
  <linearGradient x1="445.75" x2="451.71" y1="35.38" y2="38.38" gradientUnits="userSpaceOnUse" id="linearGradient3936" inkscape:collect="always" gradientTransform="matrix(0.40623 0 0 0.41517 -121.99 27.85)">
   <stop stop-color="#631a00"/>
   <stop stop-color="#ff5b20" offset="1"/>
  </linearGradient>
  <linearGradient x1="8" x2="88" gradientUnits="userSpaceOnUse" id="linearGradient4732" inkscape:collect="always" gradientTransform="matrix(1 0 0 1 0 -96)">
   <stop stop-color="#006680" stop-opacity="1"/>
   <stop stop-color="#003341" stop-opacity="1" offset="1"/>
  </linearGradient>
  <linearGradient x1="47.59" x2="48.11" y1="20.18" y2="76.27" gradientUnits="userSpaceOnUse" id="linearGradient4740" inkscape:collect="always">
   <stop stop-color="#333333" stop-opacity="1"/>
   <stop stop-color="#0f0f0f" stop-opacity="1" offset="1"/>
  </linearGradient>
  <filter id="filter4746" inkscape:collect="always">
   <feGaussianBlur stdDeviation="0.96145" inkscape:collect="always"/>
  </filter>
 </defs>
 <rect x="8" rx="10.769" y="-88" fill="url(#linearGradient4732)" fill-opacity="1" stroke="none" height="80" width="80" transform="matrix(0 1 -1 0 0 0)"/>
 <path d="m 8,75.1962 0,2.0133 C 8,83.1755 12.793063,88 18.758946,88 l 58.450649,0 C 83.175478,88 88,83.1755 88,77.2095 l 0,-2.0133 c 0,5.9659 -4.824522,10.7904 -10.790405,10.7904 l -58.450649,0 C 12.793063,85.9866 8,81.1621 8,75.1962 z" fill="#000000" fill-opacity="1" stroke="none" opacity="0.3" inkscape:connector-curvature="0"/>
 <path d="m 22.802381,24.076416 c 0,0 -4.933066,2.546123 -4.799726,7.256367 0.133326,4.710245 5.222564,28.898264 5.222564,28.898264 l 22.24261,16.167647 c 0,0 3.733153,1.400344 5.866296,0.127306 2.13322,-1.273062 22.398768,-16.295314 22.532185,-17.313579 0.133325,-1.018419 4.133098,-27.752332 4.133098,-27.752332 0,0 0.133333,-5.346813 -3.599813,-6.874441 -3.733146,-1.527628 -22.078871,-6.14912 -26.798471,-5.60138 -4.719221,0.547748 -24.131662,4.837604 -24.131662,4.837604 z" filter="url(#filter4746)" opacity="0.544" inkscape:connector-curvature="0"/>
 <path d="m 23.760552,24.495565 c 0,0 -4.772739,2.479291 -4.643719,7.06602 0.128989,4.586729 5.052837,28.139949 5.052837,28.139949 l 21.519432,15.743882 c 0,0 3.611791,1.363583 5.675649,0.123961 2.063858,-1.239684 21.671042,-15.867704 21.79991,-16.859051 0.128989,-0.991732 3.998773,-27.02478 3.998773,-27.02478 0,0 0.128997,-5.206533 -3.48277,-6.694169 -3.61179,-1.487559 -21.36176,-5.987843 -25.927476,-5.454485 -4.565867,0.533382 -23.347842,4.710706 -23.347842,4.710706 z" fill="url(#linearGradient4740)" fill-opacity="1" inkscape:connector-curvature="0"/>
 <path d="m 48.254736,24.975845 c 0,0 -15.355172,0.139754 -17.960579,6.090143 -2.6048,5.950313 1.165192,21.281044 1.165192,21.281044 l 16.14837,-7.282209 z" fill="#1c1913" fill-opacity="1" opacity="0.908" sodipodi:nodetypes="ccccc" inkscape:connector-curvature="0"/>
 <path d="m 48.268964,24.991623 15.608184,2.727243 c 0,0 4.643718,2.603266 4.127792,7.189996 -0.312793,2.780616 -1.934915,16.983642 -1.934915,16.983642 l -13.157418,7.685823 c 0,0 -1.805896,1.115708 -5.675649,0.371898 C 43.367206,59.20643 31.446085,52.337003 31.446085,52.337003 l 16.122898,-7.722355 z" fill="#4e4435" fill-opacity="1" opacity="0.82" inkscape:connector-curvature="0"/>
 <path d="m 59.465315,27.823384 a 0.58566721,0.51397786 0 0 1 -1.171334,0 0.58566721,0.51397786 0 1 1 1.171334,0 z" fill="#000000" opacity="0.594" inkscape:connector-curvature="0"/>
 <path d="m 59.366769,30.076795 a 0.58566721,0.51397786 0 0 1 -1.171334,0 0.58566721,0.51397786 0 1 1 1.171334,0 z" fill="#000000" opacity="0.594" inkscape:connector-curvature="0"/>
 <path d="m 56.752265,40.720893 c 0,0 3.859141,0.934127 4.366957,1.556853 0.507785,0.622749 1.726451,1.349277 0.406229,2.283405 -1.320222,0.934128 -4.773193,1.453104 -4.773193,1.453104 z" fill="url(#linearGradient3936)" inkscape:connector-curvature="0"/>
 <path d="m 48.323543,29.51152 c 0,0 -9.960735,2.395844 -11.476071,3.944084 -1.117133,1.141702 -1.320214,1.556853 -1.320214,4.255409 0,2.387231 0.812474,12.35146 1.320214,12.662169 0.507785,0.311371 9.647662,6.331239 11.171336,6.435065 1.523371,0.103787 3.554481,0.518953 6.296564,-1.245529 2.742083,-1.764428 7.976927,-4.377846 8.124746,-4.98196 0.406229,-1.66068 0.304674,-5.812262 -0.101556,-6.746389 -0.406229,-0.934128 -5.585667,1.660679 -5.585667,1.660679 0,0 0.507785,-7.265366 -1.117134,-9.133621 -1.624919,-1.868254 -7.007461,-4.047834 -7.007461,-4.047834 0,0 1.624949,1.037877 2.437348,1.66068 0.812475,0.622749 4.366956,1.764428 4.366956,2.906131 0,1.141702 0.203112,-1.037877 0.203112,-1.037877 0,0 0.406229,-5.500937 -1.929609,-6.019914 -2.335846,-0.518953 -5.382511,-0.311371 -5.382511,-0.311371 z" fill="url(#linearGradient3933)" inkscape:connector-curvature="0"/>
 <path d="m 59.169677,32.527091 a 0.58566721,0.51397786 0 0 1 -1.171335,0 0.58566721,0.51397786 0 1 1 1.171335,0 z" fill="#000000" opacity="0.594" inkscape:connector-curvature="0"/>
 <path d="m 48.830676,31.171968 c 0,0 3.554482,-1.556853 4.468534,-1.453104 0.914053,0.103788 2.234268,1.037876 2.335846,2.07583 0.101555,1.037876 0,2.283405 0,2.283405 0,0 -0.203111,-0.726537 -2.234268,-1.245529 -2.03111,-0.518953 -4.570036,-1.660679 -4.570036,-1.660679 z" fill="#5c4109" inkscape:connector-curvature="0"/>
 <g stroke-width="1.063" fill="none" stroke="#ffffff" transform="matrix(0.41542 0 0 0.40088 -134.95 32.21)">
  <path d="m 443.36,-9.7125 -38.19,10.253 4.24,47.376 34.3,17.678 34.65,-19.445 1.41,-44.901 z" inkscape:connector-curvature="0"/>
  <path d="m 479.77,1.2399 -37.47,13.089 1.06,51.619 -1.42,-51.972 -36.38,-12.893" inkscape:connector-curvature="0"/>
 </g>
 <path d="m 45.375,76.326 0.25,6.424" stroke-width="0.5" fill="none" stroke="url(#linearGradient3778)" filter="url(#filter9887)" opacity="0.198" inkscape:connector-curvature="0" transform="matrix(0.78791 0 0 1.993 21.77 -125.57)"/>
 <path d="M 67.40813,39.857982 54.62367,37.445372" stroke-width="0.627" fill="none" stroke="url(#linearGradient3922)" opacity="0.23" inkscape:connector-curvature="0"/>
 <path d="m 41.887725,65.379976 a 0.58566697,0.51397764 0 0 1 -1.171333,0 0.58566697,0.51397764 0 1 1 1.171333,0 z" fill="#000000" opacity="0.59" inkscape:connector-curvature="0"/>
 <path d="m 41.887725,63.024277 a 0.58566697,0.51397764 0 0 1 -1.171333,0 0.58566697,0.51397764 0 1 1 1.171333,0 z" fill="#000000" opacity="0.59" inkscape:connector-curvature="0"/>
 <path d="m 41.887725,61.083882 a 0.58566697,0.51397764 0 0 1 -1.171333,0 0.58566697,0.51397764 0 1 1 1.171333,0 z" fill="#000000" opacity="0.59" inkscape:connector-curvature="0"/>
 <path d="m 41.749003,58.865849 a 0.58566697,0.51397764 0 0 1 -1.171334,0 0.58566697,0.51397764 0 1 1 1.171334,0 z" fill="#000000" opacity="0.59" inkscape:connector-curvature="0"/>
 <path d="m 55.679629,65.55225 a 0.51399433,0.58566446 86.669571 1 0 1.169211,-0.07039 0.51399433,0.58566446 86.669571 0 0 -1.169211,0.07039 z" fill="#000000" opacity="0.604" inkscape:connector-curvature="0"/>
 <path d="m 55.537117,63.200397 a 0.5139943,0.58566442 86.669571 1 0 1.16921,-0.07039 0.5139943,0.58566442 86.669571 1 0 -1.16921,0.07039 z" fill="#000000" opacity="0.604" inkscape:connector-curvature="0"/>
 <path d="m 55.418861,61.263848 a 0.51399452,0.58566467 86.66957 0 0 1.169212,-0.07039 0.51399452,0.58566467 86.66957 1 0 -1.169212,0.07039 z" fill="#000000" opacity="0.604" inkscape:connector-curvature="0"/>
 <path d="m 55.42341,59.041969 a 0.5139945,0.58566464 86.66957 1 0 1.16921,-0.07039 0.5139945,0.58566464 86.66957 0 0 -1.16921,0.07039 z" fill="#000000" opacity="0.88" inkscape:connector-curvature="0"/>
 <path d="m 47.459369,71.062724 a 0.58566697,0.51397764 0 0 1 -1.171333,0 0.58566697,0.51397764 0 1 1 1.171333,0 z" fill="#000000" opacity="0.521" inkscape:connector-curvature="0"/>
 <path d="m 47.459369,73.834497 a 0.58566697,0.51397764 0 0 1 -1.171333,0 0.58566697,0.51397764 0 1 1 1.171333,0 z" fill="#000000" opacity="0.571" inkscape:connector-curvature="0"/>
 <path d="m 51.35952,71.062724 a 0.58566697,0.51397764 0 0 1 -1.171333,0 0.58566697,0.51397764 0 1 1 1.171333,0 z" fill="#000000" opacity="0.594" inkscape:connector-curvature="0"/>
 <path d="m 51.35952,73.834497 a 0.58566697,0.51397764 0 0 1 -1.171333,0 0.58566697,0.51397764 0 1 1 1.171333,0 z" fill="#000000" opacity="0.594" inkscape:connector-curvature="0"/>
 <path d="m 25.890663,57.280002 a 0.51406838,0.58557281 79.638177 1 1 -1.150715,0.217697 0.51406838,0.58557281 79.638177 1 1 1.150715,-0.217697 z" fill="#000000" opacity="0.53" inkscape:connector-curvature="0"/>
 <path d="m 25.447964,54.965065 a 0.51406838,0.58557281 79.638177 1 1 -1.150715,0.217696 0.51406838,0.58557281 79.638177 1 1 1.150715,-0.217696 z" fill="#000000" opacity="0.53" inkscape:connector-curvature="0"/>
 <path d="m 25.084102,53.059279 a 0.51406838,0.58557281 79.638177 1 1 -1.150716,0.217696 0.51406838,0.58557281 79.638177 1 1 1.150716,-0.217696 z" fill="#000000" opacity="0.53" inkscape:connector-curvature="0"/>
 <path d="m 24.530727,50.906618 a 0.51406838,0.58557281 79.638177 1 1 -1.150715,0.217696 0.51406838,0.58557281 79.638177 1 1 1.150715,-0.217696 z" fill="#000000" opacity="0.53" inkscape:connector-curvature="0"/>
 <path d="m 23.951579,48.364801 a 0.51406838,0.58557281 79.638177 1 1 -1.150714,0.217696 0.51406838,0.58557281 79.638177 1 1 1.150714,-0.217696 z" fill="#000000" opacity="0.53" inkscape:connector-curvature="0"/>
 <path d="m 23.440656,46.309813 a 0.51400162,0.58565837 85.689891 0 1 -1.167771,0.09105 0.51400162,0.58565837 85.689891 1 1 1.167771,-0.09105 z" fill="#000000" opacity="0.53" inkscape:connector-curvature="0"/>
 <path d="m 23.091196,44.277129 a 0.51400155,0.58565829 85.689891 1 1 -1.16777,0.09105 0.51400155,0.58565829 85.689891 1 1 1.16777,-0.09105 z" fill="#000000" opacity="0.53" inkscape:connector-curvature="0"/>
 <path d="m 22.778123,42.27367 a 0.5140016,0.58565835 85.689891 1 1 -1.167771,0.09105 0.5140016,0.58565835 85.689891 1 1 1.167771,-0.09105 z" fill="#000000" opacity="0.53" inkscape:connector-curvature="0"/>
 <path d="m 22.590885,40.524777 a 0.51400155,0.58565829 85.689891 1 1 -1.16777,0.09105 0.51400155,0.58565829 85.689891 1 1 1.16777,-0.09105 z" fill="#000000" opacity="0.53" inkscape:connector-curvature="0"/>
 <path d="m 22.258103,38.273673 a 0.51400162,0.58565837 85.689891 0 1 -1.167771,0.09105 0.51400162,0.58565837 85.689891 1 1 1.167771,-0.09105 z" fill="#000000" opacity="0.53" inkscape:connector-curvature="0"/>
 <path d="m 22.105735,36.338662 a 0.51400155,0.58565829 85.689891 1 1 -1.16777,0.09105 0.51400155,0.58565829 85.689891 1 1 1.16777,-0.09105 z" fill="#000000" opacity="0.53" inkscape:connector-curvature="0"/>
 <path d="m 21.842693,33.992193 a 0.51400162,0.58565837 85.689891 0 1 -1.167771,0.09105 0.51400162,0.58565837 85.689891 1 1 1.167771,-0.09105 z" fill="#000000" opacity="0.53" inkscape:connector-curvature="0"/>
 <path d="m 58.602658,30.942013 -14.96536,5.091324" stroke-width="0.24" fill="none" stroke="#eeeeee" inkscape:connector-curvature="0"/>
 <path d="M 53.306942,29.443071 38.515175,34.465332" stroke-width="0.24" fill="none" stroke="#eeeeee" inkscape:connector-curvature="0"/>
 <path d="m 59.696519,34.247528 -14.44534,-5.02826" stroke-width="0.231" fill="none" stroke="#eeeeee" inkscape:connector-curvature="0"/>
 <path d="M 53.571501,36.199458 38.79641,31.041224" stroke-width="0.231" fill="none" stroke="#eeeeee" inkscape:connector-curvature="0"/>
 <path d="m 67.40434,32.950855 a 0.58566721,0.51397786 0 0 1 -1.171335,0 0.58566721,0.51397786 0 1 1 1.171335,0 z" fill="#000000" opacity="0.594" inkscape:connector-curvature="0"/>
 <path d="m 67.305793,35.205035 a 0.58566721,0.51397786 0 0 1 -1.171334,0 0.58566721,0.51397786 0 1 1 1.171334,0 z" fill="#000000" opacity="0.594" inkscape:connector-curvature="0"/>
 <path d="m 67.108701,37.655331 a 0.58566721,0.51397786 0 0 1 -1.171334,0 0.58566721,0.51397786 0 1 1 1.171334,0 z" fill="#000000" opacity="0.594" inkscape:connector-curvature="0"/>
</svg>
