<?xml version="1.0" encoding="UTF-8" standalone="no"?>
<!-- Created with Inkscape (http://www.inkscape.org/) -->

<svg
   xmlns:dc="http://purl.org/dc/elements/1.1/"
   xmlns:cc="http://creativecommons.org/ns#"
   xmlns:rdf="http://www.w3.org/1999/02/22-rdf-syntax-ns#"
   xmlns:svg="http://www.w3.org/2000/svg"
   xmlns="http://www.w3.org/2000/svg"
   xmlns:sodipodi="http://sodipodi.sourceforge.net/DTD/sodipodi-0.dtd"
   xmlns:inkscape="http://www.inkscape.org/namespaces/inkscape"
   id="svg11037"
   height="96"
   width="96"
   version="1.1"
   inkscape:version="0.48.5 r10040"
   sodipodi:docname="scidavis.svg">
  <sodipodi:namedview
     pagecolor="#ffffff"
     bordercolor="#666666"
     borderopacity="1"
     objecttolerance="10"
     gridtolerance="10"
     guidetolerance="10"
     inkscape:pageopacity="0"
     inkscape:pageshadow="2"
     inkscape:window-width="640"
     inkscape:window-height="480"
     id="namedview58424" />
  <defs
     id="defs11039">
    <clipPath
       id="clipPath3009"
       clipPathUnits="userSpaceOnUse">
      <path
         id="path3011"
         style="opacity:.15;fill:#fff"
         d="m-2 956.36h-96v33.562l96 25.687v-59.25z" />
    </clipPath>
    <clipPath
       id="clipPath3613">
      <rect
         id="rect3615"
         style="fill:#fff"
         rx="6"
         ry="6"
         height="84"
         width="84"
         y="6"
         x="6" />
    </clipPath>
    <filter
       id="filter3794"
       height="1.384"
       width="1.384"
       color-interpolation-filters="sRGB"
       y="-.192"
       x="-.192">
      <feGaussianBlur
         id="feGaussianBlur3796"
         stdDeviation="5.28" />
    </filter>
    <linearGradient
       id="linearGradient3434"
       y2="138.66"
       gradientUnits="userSpaceOnUse"
       y1="20.221"
       x2="48"
       x1="48">
      <stop
         id="stop3739"
         style="stop-color:#fff"
         offset="0" />
      <stop
         id="stop3741"
         style="stop-color:#fff;stop-opacity:0"
         offset="1" />
    </linearGradient>
    <linearGradient
       id="linearGradient3617"
       y2="5.9877"
       gradientUnits="userSpaceOnUse"
       x2="48"
       y1="90"
       x1="48">
      <stop
         id="stop3780"
         style="stop-color:#911935"
         offset="0" />
      <stop
         id="stop3782"
         style="stop-color:#dd6876"
         offset="1" />
    </linearGradient>
    <clipPath
       id="clipPath3613-9">
      <rect
         id="rect3615-3"
         style="fill:#fff"
         rx="6"
         ry="6"
         height="84"
         width="84"
         y="6"
         x="6" />
    </clipPath>
    <filter
       id="filter3794-5"
       height="1.384"
       width="1.384"
       color-interpolation-filters="sRGB"
       y="-.192"
       x="-.192">
      <feGaussianBlur
         id="feGaussianBlur3796-2"
         stdDeviation="5.28" />
    </filter>
    <clipPath
       id="clipPath3094"
       clipPathUnits="userSpaceOnUse">
      <rect
         id="rect3096"
         style="opacity:.6"
         rx="21.875"
         ry="21.875"
         height="80.5"
         width="80.5"
         y="7.75"
         x="7.75" />
    </clipPath>
  </defs>
  <metadata
     id="metadata11042">
    <rdf:RDF>
      <cc:Work
         rdf:about="">
        <dc:format>image/svg+xml</dc:format>
        <dc:type
           rdf:resource="http://purl.org/dc/dcmitype/StillImage" />
        <dc:title />
      </cc:Work>
    </rdf:RDF>
  </metadata>
  <g
     id="layer1"
     transform="translate(0 -956.36)">
    <g
       id="g3436"
       clip-path="url(#clipPath3094)"
       transform="matrix(1.1429 0 0 1.1429 -6.8571 949.51)">
      <g
         id="layer1-6">
        <rect
           id="rect2419"
           style="fill:url(#linearGradient3617)"
           rx="6"
           ry="6"
           height="84"
           width="84"
           y="6"
           x="6" />
      </g>
      <g
         id="layer5-4">
        <rect
           id="rect3171-6"
           style="opacity:.1;filter:url(#filter3794-5);stroke:#fff;stroke-linecap:round;stroke-width:.5;fill:url(#linearGradient3434)"
           clip-path="url(#clipPath3613-9)"
           rx="12"
           ry="12"
           height="66"
           width="66"
           y="15"
           x="15" />
      </g>
    </g>
    <g
       id="layer5"
       transform="translate(0 956.36)">
      <rect
         id="rect3171"
         style="opacity:.1;filter:url(#filter3794);stroke:#fff;stroke-linecap:round;stroke-width:.5;fill:url(#linearGradient3434)"
         clip-path="url(#clipPath3613)"
         rx="12"
         ry="12"
         height="66"
         width="66"
         y="15"
         x="15" />
    </g>
    <g
       id="g4047"
       transform="matrix(1.2664 0 0 1.2664 4.2383 944.4)">
      <path
         id="path4029"
         style="fill:#c7d6f3"
         d="m33.73 71.279h-12v-4.5-4.5h3.5 3.5v-1.941-1.941l-0.89522-0.55327-0.89522-0.55327-0.59772 1.5576-0.59772 1.5576-1.0071-0.6224-1.0071-0.6224v0.96119 0.96119l-3.1149 1.0858-3.1149 1.0858-0.81603-0.50434-0.81603-0.50434-0.62812 1.0163-0.62812 1.0163h-2.4985-2.4985l0.3075-4.25 0.3075-4.25 3.25 0.0097 3.25 0.0097v-0.66184c0-0.36401 1.2375-1.1698 2.75-1.7907 1.5125-0.62086 3.6601-1.6774 4.7725-2.3478l2.0225-1.2191-0.33288-1.6829-0.33288-1.6829 1.5604-3.0175 1.5604-3.0175v-4.0497-4.0497h-3.5-3.5v-4.5-4.5h12 12v4.5 4.5h-3.5-3.5v1.941 1.941l0.89522 0.55327 0.89522 0.55327 0.59772-1.5576 0.59772-1.5576 1.0071 0.6224 1.0071 0.6224v-0.96119-0.96119l3.1149-1.0858 3.1149-1.0858 0.81603 0.50434 0.81603 0.50434 0.62812-1.0163 0.62812-1.0163h2.4985 2.4985l-0.3075 4.25-0.3075 4.25-3.25-0.0097-3.25-0.0097v0.69228c0 0.38075-1.0125 1.0008-2.25 1.3779-1.2375 0.37712-3.0207 1.362-3.9628 2.1887l-1.7128 1.503-1.5226-0.58428-1.5226-0.58428 1.1945 1.9128 1.1945 1.9128-1.7092 3.5842-1.7092 3.5842v3.9661 3.9661h3.5 3.5v4.5 4.5h-12zm-4.3958-15.271 0.60417-0.60417-0.52522-1.3125-0.52522-1.3125-0.07895 1.9167-0.07895 1.9167 0.60417-0.60417zm4.3958-0.72917h1.3333l-0.66667-0.66667-0.66667-0.66667-0.66667 0.66667-0.66667 0.66667h1.3333zm4.6042-14.271 0.60417-0.60417-0.52522-1.3125-0.52522-1.3125-0.07895 1.9167-0.07895 1.9167 0.60417-0.60417zm-4.6042-0.72917h1.3333l-0.66667-0.66667-0.66667-0.66667-0.66667 0.66667-0.66667 0.66667h1.3333z" />
      <path
         id="path4027"
         style="fill:#b8cbf0"
         d="m33.73 71.279h-11v-4.5-4.5h3.5 3.5v-2.5-2.5h-1.393-1.393l-0.59993 1.5634-0.59993 1.5634-1.0071-0.6224-1.0071-0.6224v0.99163 0.99163l-2.25 0.72362c-1.2375 0.39799-3.15 0.87222-4.25 1.0538-1.1 0.18163-3.2375 0.61378-4.75 0.96035l-2.75 0.63012v-4.1166-4.1166l1.75-0.17105c0.9625-0.09408 2.425-0.22617 3.25-0.29354s3.7875-1.4121 6.5833-2.9882l5.0833-2.8657v-2.8278-2.8278l1.6667-1.8416 1.6667-1.8416v-4.1713-4.1713h-3.5-3.5v-4.5-4.5h11 11v4.5 4.5h-3.5-3.5v2.5 2.5h1.393 1.393l0.59993-1.5634 0.59993-1.5634 1.0071 0.6224 1.0071 0.6224v-0.99163-0.99163l2.25-0.72362c1.2375-0.39799 3.15-0.87222 4.25-1.0538 1.1-0.18163 3.2375-0.61378 4.75-0.96035l2.75-0.63012v4.1166 4.1166l-1.75 0.17105c-0.9625 0.09408-2.4458 0.22258-3.2962 0.28556-0.85043 0.06298-3.6692 1.3587-6.264 2.8793l-4.718 2.765-1.0858-0.67104-1.0858-0.67104 1.0999 2.0552 1.0999 2.0552-0.93846 2.4683c-0.51615 1.3576-1.4162 2.7636-2.0001 3.1245l-1.0617 0.65616v4.441 4.441h3.5 3.5v4.5 4.5h-11zm-4.3958-15.271 0.60417-0.60417-0.52522-1.3125-0.52522-1.3125-0.07895 1.9167-0.07895 1.9167 0.60417-0.60417zm4.3958-0.72917h1.3333l-0.66667-0.66667-0.66667-0.66667-0.66667 0.66667-0.66667 0.66667h1.3333zm4.6042-14.271 0.60417-0.60417-0.52522-1.3125-0.52522-1.3125-0.07895 1.9167-0.07895 1.9167 0.60417-0.60417zm-4.6042-0.72917h1.3333l-0.66667-0.66667-0.66667-0.66667-0.66667 0.66667-0.66667 0.66667h1.3333z" />
      <path
         id="path4025"
         style="fill:#a3bbec"
         d="m33.73 71.279h-11v-4-4h3.5 3.5v-3-3h-1.393-1.393l-0.59993 1.5634-0.59993 1.5634-1.0071-0.6224-1.0071-0.6224v0.99163 0.99163l-2.25 0.72362c-1.2375 0.39799-3.15 0.87222-4.25 1.0538-1.1 0.18163-3.2375 0.61378-4.75 0.96035l-2.75 0.63012v-4.1166-4.1166l1.75-0.17105c0.9625-0.09408 2.425-0.22617 3.25-0.29354s3.7875-1.4121 6.5833-2.9882l5.0833-2.8657v-2.8278-2.8278l1.6667-1.8416 1.6667-1.8416v-4.6713-4.6713h-3.5-3.5v-4-4h11 11v4 4h-3.5-3.5v3 3h1.393 1.393l0.59993-1.5634 0.59993-1.5634 1.0071 0.6224 1.0071 0.6224v-0.99163-0.99163l2.25-0.72362c1.2375-0.39799 3.15-0.87222 4.25-1.0538 1.1-0.18163 3.2375-0.61378 4.75-0.96035l2.75-0.63012v4.1166 4.1166l-1.75 0.17105c-0.9625 0.09408-2.4458 0.22258-3.2962 0.28556-0.85043 0.06298-3.6692 1.3587-6.264 2.8793l-4.718 2.765-1.0858-0.67104-1.0858-0.67104 1.0999 2.0552 1.0999 2.0552-0.93846 2.4683c-0.51615 1.3576-1.4162 2.7636-2.0001 3.1245l-1.0617 0.65616v4.941 4.941h3.5 3.5v4 4h-11zm-4.3958-15.271 0.60417-0.60417-0.52522-1.3125-0.52522-1.3125-0.07895 1.9167-0.07895 1.9167 0.60417-0.60417zm4.3958-0.72917h1.3333l-0.66667-0.66667-0.66667-0.66667-0.66667 0.66667-0.66667 0.66667h1.3333zm4.6042-14.271 0.60417-0.60417-0.52522-1.3125-0.52522-1.3125-0.07895 1.9167-0.07895 1.9167 0.60417-0.60417zm-4.6042-0.72917h1.3333l-0.66667-0.66667-0.66667-0.66667-0.66667 0.66667-0.66667 0.66667h1.3333z" />
      <path
         id="path4023"
         style="fill:#ed9a9a"
         d="m33.962 70.064-10.268 0.286-0.567-1.477c-0.311-0.812-0.412-2.291-0.224-3.285l0.34289-1.8084 3.7417-0.31036 3.7417-0.31037v-4.3806-4.3806l-1-0.61803-1-0.61803v1.6008 1.6008l-2 2.1467c-1.1 1.1807-2 1.8048-2 1.3868v-0.75999l-1.5714 1.5714c-0.86428 0.86429-2.1018 1.6289-2.75 1.6991-0.64821 0.07019-2.0786 0.28132-3.1786 0.46917s-3.2375 0.63288-4.75 0.98895l-2.75 0.64741v-4.1166-4.1166l1.75-0.17105c0.9625-0.09408 2.425-0.22617 3.25-0.29354s3.7875-1.4121 6.5833-2.9882l5.0833-2.8657v-2.8489-2.8489l2.1667-2.3063 2.1667-2.3063v-4.1252-4.1252l-3.75-0.31037-3.75-0.31036v-3-3h10.5 10.5v3 3l-3.75 0.31036-3.75 0.31037v4.3806 4.3806l1 0.61803 1 0.61803v-1.6008-1.6008l2-2.1467c1.1-1.1807 2-1.8048 2-1.3868v0.75999l1.5714-1.5714c0.86428-0.86429 2.1018-1.6289 2.75-1.6991 0.64821-0.07019 2.0786-0.28132 3.1786-0.46917s3.2375-0.63288 4.75-0.98895l2.75-0.64741v4.1166 4.1166l-1.75 0.17105c-0.9625 0.09408-2.4458 0.22258-3.2962 0.28556-0.85043 0.06298-3.6692 1.3587-6.264 2.8793l-4.717 2.764-1.0858-0.67104-1.0858-0.67104 1.0999 2.0552 1.0999 2.0552-0.89597 2.3566c-0.49278 1.2961-1.6178 2.9557-2.5001 3.6879l-1.6042 1.3313v4.3172 4.3172l3.75 0.31037 3.75 0.31036v3 3l-10.268 0.28518zm-0.23212-14.785h1.3333l-0.66667-0.66667-0.66667-0.66667-0.66667 0.66667-0.66667 0.66667h1.3333zm0-15h1.3333l-0.66667-0.66667-0.66667-0.66667-0.66667 0.66667-0.66667 0.66667h1.3333z" />
      <path
         id="path4021"
         style="fill:#8eaae5"
         d="m33.962 70.064-10.268 0.286-0.567-1.477c-0.311-0.812-0.412-2.291-0.224-3.285l0.34289-1.8084 3.7417-0.31036 3.7417-0.31037v-4.3806-4.3806l-1-0.61803-1-0.61803v1.6008 1.6008l-2 2.1467c-1.1 1.1807-2 1.8048-2 1.3868v-0.75999l-1.5714 1.5714c-0.86428 0.86429-2.1018 1.6289-2.75 1.6991-0.64821 0.07019-2.0786 0.28132-3.1786 0.46917s-3.2375 0.63288-4.75 0.98895l-2.75 0.64741v-4.1166-4.1166l1.75-0.17105c0.9625-0.09408 2.425-0.22617 3.25-0.29354s3.862-1.4529 6.749-3.0789l5.249-2.9565 0.001-3.095 0.001-3.095 2-1.81 2-1.81v-4.2846-4.2846l-3.75-0.31037-3.75-0.31036v-3-3h10.5 10.5v3 3l-3.75 0.31036-3.75 0.31037v4.3806 4.3806l1 0.61803 1 0.61803v-1.6008-1.6008l2-2.1467c1.1-1.1807 2-1.8048 2-1.3868v0.75999l1.5714-1.5714c0.86428-0.86429 2.1018-1.6289 2.75-1.6991 0.64821-0.07019 2.0786-0.28132 3.1786-0.46917s3.2375-0.63288 4.75-0.98895l2.75-0.64741v4.1166 4.1166l-1.75 0.17105c-0.9625 0.09408-2.4458 0.22258-3.2962 0.28556-0.85043 0.06298-3.6692 1.3587-6.264 2.8793l-4.717 2.764-0.80505-0.49755-0.80505-0.49755 0.4449 3.0313 0.4449 3.0313-2.1258 2.8754-2.1258 2.8754v3.9801 3.9801l3.75 0.31037 3.75 0.31036v3 3l-10.268 0.28518zm-0.23212-14.785h1.3333l-0.66667-0.66667-0.66667-0.66667-0.66667 0.66667-0.66667 0.66667h1.3333zm2.908-6.2173 1.592-0.3031 0.32014-2.2443 0.32014-2.2443-1.6477-0.63227-1.6477-0.63227-1.5866 1.5866-1.5866 1.5866 1.3221 1.5931 1.3221 1.5931 1.592-0.3031zm-2.908-8.7827h1.3333l-0.66667-0.66667-0.66667-0.66667-0.66667 0.66667-0.66667 0.66667h1.3333z" />
      <path
         id="path4019"
         style="fill:#a7a7a7"
         d="m33.73 70.279h-10v-3-3h3.5 3.5v-4.941-4.941l-1-0.61803-1-0.61803v1.6008 1.6008l-2 2.1467c-1.1 1.1807-2 1.8048-2 1.3868v-0.75999l-1.5714 1.5714c-0.86428 0.86429-2.1018 1.6289-2.75 1.6991-0.64821 0.07019-2.0786 0.28132-3.1786 0.46917s-3.2375 0.63288-4.75 0.98895l-2.75 0.64741v-4.1166-4.1166l1.75-0.17105c0.9625-0.09408 2.425-0.22617 3.25-0.29354s3.862-1.4529 6.749-3.0789l5.249-2.9565 0.001-3.095 0.001-3.095 2-1.81 2-1.81v-4.845-4.845h-3.5-3.5v-3-3h10 10v3 3h-3.5-3.5v4.941 4.941l1 0.61803 1 0.61803v-1.6008-1.6008l2-2.1467c1.1-1.1807 2-1.8048 2-1.3868v0.75999l1.5714-1.5714c0.86428-0.86429 2.1018-1.6289 2.75-1.6991 0.64821-0.07019 2.0786-0.28132 3.1786-0.46917s3.2375-0.63288 4.75-0.98895l2.75-0.64741v4.1166 4.1166l-1.75 0.17105c-0.9625 0.09408-2.4458 0.22258-3.2962 0.28556-0.85043 0.06298-3.6692 1.3587-6.264 2.8793l-4.718 2.764-0.80505-0.49755-0.80505-0.49755 0.4449 3.0313 0.4449 3.0313-2.1258 2.8754-2.1258 2.8754v4.5405 4.5405h3.5 3.5v3 3h-10zm0-15h1.3333l-0.66667-0.66667-0.66667-0.66667-0.66667 0.66667-0.66667 0.66667h1.3333zm2.908-6.2173 1.592-0.3031 0.32014-2.2443 0.32014-2.2443-1.6477-0.63227-1.6477-0.63227-1.5866 1.5866-1.5866 1.5866 1.3221 1.5931 1.3221 1.5931 1.592-0.3031zm-2.908-8.7827h1.3333l-0.66667-0.66667-0.66667-0.66667-0.66667 0.66667-0.66667 0.66667h1.3333z" />
      <path
         id="path4017"
         style="fill:#658bd6"
         d="m33.73 70.279h-10v-3-3h3.5 3.5v-4.941-4.941l-1-0.61803-1-0.61803v1.6304 1.6304l-1.2683 1.1786c-0.69757 0.64821-2.7404 2.0021-4.5397 3.0085l-3.2714 1.83-4.9603 0.53326-4.9603 0.53326v-3.6132-3.6132l2.5-0.125c1.375-0.06875 2.8375-0.19135 3.25-0.27244s3.1125-1.4464 6-3.0339l5.25-2.8865v-3.1861-3.1861l2-1.81 2-1.81v-4.845-4.845h-3.5-3.5v-3-3h10 10v3 3h-3.5-3.5v5.5 5.5h1 1v-1.5714c0-0.86428 0.57074-2.1018 1.2683-2.75 0.69757-0.64821 2.7404-2.0021 4.5397-3.0085l3.2714-1.83 4.9603-0.53326 4.9603-0.53326v3.6132 3.6132h-2.5c-1.375 0-2.6125-0.05466-2.75-0.12146s-2.6442 1.2902-5.5704 3.0155l-5.3204 3.137-0.7487-0.46272-0.7487-0.46272 0.4449 3.0313 0.4449 3.0313-2.1258 2.8754-2.1258 2.8754v4.5405 4.5405h3.5 3.5v3 3h-10zm0-15h1.3333l-0.66667-0.66667-0.66667-0.66667-0.66667 0.66667-0.66667 0.66667h1.3333zm2.908-6.2173 1.592-0.3031 0.32014-2.2443 0.32014-2.2443-1.6477-0.63227-1.6477-0.63227-1.5866 1.5866-1.5866 1.5866 1.3221 1.5931 1.3221 1.5931 1.592-0.3031zm-2.908-8.7827h1.3333l-0.66667-0.66667-0.66667-0.66667-0.66667 0.66667-0.66667 0.66667h1.3333z" />
      <path
         id="path4015"
         style="fill:#dd5e5e"
         d="m33.73 69.279h-10v-2.5-2.5h3.5 3.5v-4.941-4.941l-1-0.61803-1-0.61803v1.6304 1.6304l-1.2683 1.1786c-0.69757 0.64821-2.7404 2.0021-4.5397 3.0085l-3.2714 1.83-4.9603 0.53326-4.9603 0.53326v-3.6132-3.6132l2.5-0.125c1.375-0.06875 2.8375-0.19135 3.25-0.27244s3.1125-1.4464 6-3.0339l5.25-2.8865v-3.1861-3.1861l2-1.81 2-1.81v-4.845-4.845h-3.5-3.5v-2.5-2.5h10 10v2.5 2.5h-3.5-3.5v5.5 5.5h1 1v-1.5714c0-0.86428 0.57074-2.1018 1.2683-2.75 0.69757-0.64821 2.7404-2.0021 4.5397-3.0085l3.2714-1.83 4.9603-0.53326 4.9603-0.53326v3.6132 3.6132h-2.5c-1.375 0-2.8375 0.07801-3.25 0.17335s-2.9192 1.4523-5.5704 3.0155l-4.8204 2.8422-0.7487-0.46272-0.7487-0.46272 0.4449 3.0313 0.4449 3.0313-2.1258 2.8754-2.1258 2.8754v4.5405 4.5405h3.5 3.5v2.5 2.5h-10zm0-14h1.3333l-0.66667-0.66667-0.66667-0.66667-0.66667 0.66667-0.66667 0.66667h1.3333zm2.908-6.2173 1.592-0.3031 0.32014-2.2443 0.32014-2.2443-1.6477-0.63227-1.6477-0.63227-1.5866 1.5866-1.5866 1.5866 1.3221 1.5931 1.3221 1.5931 1.592-0.3031zm-2.908-8.7827h1.3333l-0.66667-0.66667-0.66667-0.66667-0.66667 0.66667-0.66667 0.66667h1.3333z" />
      <path
         id="path4013"
         style="fill:#3564c4"
         d="m33.73 69.279h-10v-2.5-2.5h3.5 3.5v-5.5-5.5h-1-1v1.5714c0 0.86428-0.57074 2.1018-1.2683 2.75-0.69757 0.64821-2.7404 2.0021-4.5397 3.0085l-3.2714 1.83-4.9603 0.53326-4.9603 0.53326v-3.6132-3.6132l2.5-0.125c1.375-0.06875 2.8375-0.19135 3.25-0.27244s3.1125-1.4464 6-3.0339l5.25-2.8865v-2.8411-2.8411l2-2 2-2v-5-5h-3.5-3.5v-2.5-2.5h10 10v2.5 2.5h-3.5-3.5v5.0248 5.0248l-2.4144 0.91796-2.4144 0.91796-0.65296 2.0573-0.65296 2.0573 0.63404 1.9977 0.63404 1.9977 2.4311 0.61017 2.4311 0.61017 1.4513-0.55692 1.4513-0.55692-0.55606 1.4491c-0.30583 0.79699-0.95792 1.4491-1.4491 1.4491h-0.89301v5.5 5.5h3.5 3.5v2.5 2.5h-10zm0-14h1.3333l-0.66667-0.66667-0.66667-0.66667-0.66667 0.66667-0.66667 0.66667h1.3333zm0-15h1.3333l-0.66667-0.66667-0.66667-0.66667-0.66667 0.66667-0.66667 0.66667h1.3333zm7.656 4c-0.1408 0-0.79599-0.54-1.456-1.2l-1.2-1.2v-1.8714-1.8714l1.2683-1.1786c0.69757-0.64821 2.7404-2.0021 4.5397-3.0085l3.2714-1.83 4.9603-0.53326 4.9603-0.53326v3.6132 3.6132h-2.5c-1.375 0-2.8375 0.07801-3.25 0.17335s-2.9073 1.4453-5.544 3-4.9092 2.8266-5.05 2.8266z" />
      <path
         id="path4011"
         style="fill:#2659bf"
         d="m33.73 69.279h-10v-2.5-2.5h4.0523 4.0523l-0.30226-5.1714-0.30226-5.1714-1.25-0.41194-1.25-0.41194v1.6548 1.6548l-1.2683 1.1786c-0.69757 0.64821-2.7404 2.0021-4.5397 3.0085l-3.2714 1.83-4.9603 0.53326-4.9603 0.53326v-3.6132-3.6132l2.5-0.125c1.375-0.06875 2.8375-0.19135 3.25-0.27244s3.1125-1.4464 6-3.0339l5.25-2.8865v-2.8888-2.8888l2.5-2.3169 2.5-2.3169v-4.6353-4.6353h-4-4v-2.5-2.5h10 10v2.5 2.5h-4-4v4.5 4.5l-1.75 0.07028-1.75 0.07029 2 0.85943 2 0.85943-1.7148 0.07029-1.7148 0.07028-1.1202 2.0931-1.1202 2.0931 0.60026 2.3916 0.60026 2.3916 2.4825 0.62308 2.4825 0.62308 1.4513-0.55692 1.4513-0.55692-0.52639 1.3718c-0.28952 0.75446-1.1666 1.6174-1.9491 1.9177l-1.4227 0.54593v5.0314 5.0314h4 4v2.5 2.5h-10zm0-14h1.3333l-0.66667-0.66667-0.66667-0.66667-0.66667 0.66667-0.66667 0.66667h1.3333zm7.656-11c-0.1408 0-0.79599-0.54-1.456-1.2l-1.2-1.2v-1.8714-1.8714l1.2683-1.1786c0.69757-0.64821 2.7404-2.0021 4.5397-3.0085l3.2714-1.83 4.9603-0.53326 4.9603-0.53326v3.6132 3.6132h-2.5c-1.375 0-2.8375 0.07801-3.25 0.17335s-2.9073 1.4453-5.544 3-4.9092 2.8266-5.05 2.8266z" />
      <path
         id="path4009"
         style="fill:#616163"
         d="m14.69 62.972-4.9603 0.53326v-3.6132-3.6132l2.5-0.125c1.375-0.06875 2.8375-0.19135 3.25-0.27244s3.1125-1.4464 6-3.0339l5.25-2.8865v-2.8411-2.8411l2-2 2-2 2.75 0.06339 2.75 0.06339-2.1621 0.87186-2.1621 0.87186-0.65533 2.0648-0.65533 2.0647 0.63404 1.9977 0.63404 1.9977 2.4311 0.61017 2.4311 0.61017 1.4513-0.55692 1.4513-0.55692-0.55937 1.4577-0.55937 1.4577-2.3897 0.59978-2.3897 0.59978-2.5-0.62746-2.5-0.62746v1.5905c0 0.87476-0.57074 2.1208-1.2683 2.7691-0.69757 0.64821-2.7404 2.0021-4.5397 3.0085l-3.2714 1.83-4.9603 0.53326zm26.696-18.693c-0.1408 0-0.79599-0.54-1.456-1.2l-1.2-1.2v-1.8714-1.8714l1.2683-1.1786c0.69757-0.64821 2.7404-2.0021 4.5397-3.0085l3.2714-1.83 4.9603-0.53326 4.9603-0.53326v3.6132 3.6132h-2.5c-1.375 0-2.8375 0.07801-3.25 0.17335s-2.9073 1.4453-5.544 3-4.9092 2.8266-5.05 2.8266z" />
      <path
         id="path4007"
         style="fill:#c91515"
         d="m11.98 63.274-2.25 0.0056v-3.5-3.5h3.0398 3.0398l3.7102-1.9775c2.0406-1.0876 4.4977-2.5997 5.4602-3.3602l1.75-1.3828v-2.6398-2.6398l2-2 2-2 2.75 0.06339 2.75 0.06339-2.1621 0.87186-2.1621 0.87186-0.65533 2.0648-0.65533 2.0647 0.63404 1.9977 0.63404 1.9977 2.4311 0.61017 2.4311 0.61017 1.4513-0.55692 1.4513-0.55692-0.55937 1.4577-0.55937 1.4577-2.3897 0.59978-2.3897 0.59978-2.5-0.62746-2.5-0.62746-0.01238 1.7691-0.01238 1.7691-3.3395 2.1621c-1.8367 1.1892-5.0937 2.6491-7.2376 3.2444-2.144 0.59528-4.9106 1.0848-6.1481 1.0879zm29.891-18.995c-0.40754 0-1.281-0.54-1.941-1.2l-1.2-1.2 0.01238-2.05 0.01238-2.05 3.3395-2.1621c1.8367-1.1892 5.0937-2.6491 7.2376-3.2444 2.144-0.59528 4.9106-1.0848 6.1481-1.0879l2.25-0.0056v3.5 3.5h-3.0398-3.0398l-3.8923 1.9857c-2.1408 1.0921-4.1744 2.4421-4.5192 3-0.34478 0.55786-0.96031 1.0143-1.3678 1.0143z" />
      <path
         id="path4005"
         style="fill:#020202"
         d="m11.98 63.274-2.25 0.0056v-3.5-3.5h3.0398 3.0398l3.7102-2.0105c2.0406-1.1058 4.5105-2.5683 5.4886-3.25l1.7785-1.2395 0.95622 1.5c0.52592 0.825 0.95754 2.4 0.95916 3.5l0.0029 2-3.3395 2.1621c-1.8367 1.1892-5.0936 2.6491-7.2376 3.2444-2.144 0.59528-4.9106 1.0848-6.1481 1.0879zm29.891-18.995c-0.40754 0-1.281-0.54-1.941-1.2l-1.2-1.2 0.01238-2.05 0.01238-2.05 3.3395-2.1621c1.8367-1.1892 5.0937-2.6491 7.2376-3.2444 2.144-0.59528 4.9106-1.0848 6.1481-1.0879l2.25-0.0056v3.5 3.5h-3.0398-3.0398l-3.8923 1.9857c-2.1408 1.0921-4.1744 2.4421-4.5192 3-0.34478 0.55786-0.96031 1.0143-1.3678 1.0143z" />
    </g>
    <rect
       id="rect3003"
       style="opacity:.15;fill:#fff"
       transform="translate(98)"
       clip-path="url(#clipPath3009)"
       rx="25"
       ry="25"
       height="92"
       width="92"
       y="958.36"
       x="-96" />
  </g>
</svg>
