<?xml version="1.0" encoding="UTF-8" standalone="no"?>
<!-- Created with Inkscape (http://www.inkscape.org/) -->

<svg
   xmlns:dc="http://purl.org/dc/elements/1.1/"
   xmlns:cc="http://creativecommons.org/ns#"
   xmlns:rdf="http://www.w3.org/1999/02/22-rdf-syntax-ns#"
   xmlns:svg="http://www.w3.org/2000/svg"
   xmlns="http://www.w3.org/2000/svg"
   xmlns:sodipodi="http://sodipodi.sourceforge.net/DTD/sodipodi-0.dtd"
   xmlns:inkscape="http://www.inkscape.org/namespaces/inkscape"
   id="svg11037"
   height="96"
   width="96"
   version="1.1"
   inkscape:version="0.48.5 r10040"
   sodipodi:docname="scilab.svg">
  <sodipodi:namedview
     pagecolor="#ffffff"
     bordercolor="#666666"
     borderopacity="1"
     objecttolerance="10"
     gridtolerance="10"
     guidetolerance="10"
     inkscape:pageopacity="0"
     inkscape:pageshadow="2"
     inkscape:window-width="640"
     inkscape:window-height="480"
     id="namedview58449" />
  <defs
     id="defs11039">
    <clipPath
       id="clipPath3009"
       clipPathUnits="userSpaceOnUse">
      <path
         id="path3011"
         style="opacity:.15;fill:#fff"
         d="m-2 956.36h-96v33.562l96 25.687v-59.25z" />
    </clipPath>
    <clipPath
       id="clipPath3014"
       clipPathUnits="userSpaceOnUse">
      <rect
         id="rect3016"
         style="opacity:.6"
         rx="21.875"
         ry="21.875"
         height="80.5"
         width="80.5"
         y="7.75"
         x="7.75" />
    </clipPath>
  </defs>
  <metadata
     id="metadata11042">
    <rdf:RDF>
      <cc:Work
         rdf:about="">
        <dc:format>image/svg+xml</dc:format>
        <dc:type
           rdf:resource="http://purl.org/dc/dcmitype/StillImage" />
        <dc:title />
      </cc:Work>
    </rdf:RDF>
  </metadata>
  <g
     id="layer1"
     transform="translate(0 -956.36)">
    <g
       id="layer1-8"
       clip-path="url(#clipPath3014)"
       transform="matrix(1.1429 0 0 1.1429 -6.8571 949.51)">
      <rect
         id="rect2419"
         rx="6"
         ry="6"
         height="84"
         width="84"
         y="6"
         x="6" />
      <path
         id="rect3728"
         style="opacity:.35"
         d="m12 6c-3.324 0-6 2.676-6 6v2 68 2c0 0.33472 0.04135 0.6507 0.09375 0.96875 0.0487 0.2956 0.09704 0.59692 0.1875 0.875 0.00988 0.03038 0.020892 0.0636 0.03125 0.09375 0.098865 0.28777 0.23488 0.54745 0.375 0.8125 0.14459 0.27351 0.31562 0.53562 0.5 0.78125 0.18438 0.24564 0.37378 0.47347 0.59375 0.6875 0.43995 0.42806 0.94291 0.81453 1.5 1.0938 0.27854 0.13961 0.57347 0.24695 0.875 0.34375-0.2562-0.10022-0.48671-0.23627-0.71875-0.375-0.00741-0.0044-0.023866 0.0045-0.03125 0-0.031933-0.0193-0.062293-0.04251-0.09375-0.0625-0.1204-0.0767-0.23102-0.16351-0.34375-0.25-0.10617-0.0808-0.21328-0.16111-0.3125-0.25-0.1778-0.162-0.3473-0.346-0.4999-0.531-0.1075-0.131-0.2183-0.266-0.3124-0.407-0.0251-0.038-0.0385-0.086-0.0626-0.125-0.0647-0.103-0.1302-0.204-0.1874-0.312-0.1011-0.195-0.2057-0.416-0.2813-0.625-0.008-0.022-0.0236-0.041-0.0313-0.063-0.0318-0.092-0.0358-0.187-0.0624-0.281-0.0304-0.107-0.0704-0.203-0.0938-0.313-0.0729-0.341-0.125-0.698-0.125-1.062v-2-68-2c0-2.782 2.2182-5 5-5h2 68 2c2.7818 0 5 2.2182 5 5v2 68 2c0 0.3643-0.05212 0.72099-0.125 1.0625-0.04415 0.20689-0.08838 0.39766-0.15625 0.59375-0.0077 0.02195-0.0233 0.04069-0.03125 0.0625-0.06274 0.17374-0.13838 0.36745-0.21875 0.53125-0.04158 0.0828-0.07904 0.16995-0.125 0.25-0.0546 0.09721-0.12677 0.18835-0.1875 0.28125-0.09411 0.14096-0.20492 0.276-0.3125 0.40625-0.14317 0.17445-0.30314 0.347-0.46875 0.5-0.01117 0.0102-0.01998 0.02115-0.03125 0.03125-0.13839 0.12556-0.28509 0.23444-0.4375 0.34375-0.10257 0.07315-0.20432 0.15336-0.3125 0.21875-0.0074 0.0045-0.02384-0.0044-0.03125 0-0.23204 0.13873-0.46255 0.27478-0.71875 0.375 0.30153-0.0968 0.59646-0.20414 0.875-0.34375 0.55709-0.27922 1.0601-0.66569 1.5-1.0938 0.21997-0.21403 0.40937-0.44186 0.59375-0.6875s0.35541-0.50774 0.5-0.78125c0.14012-0.26505 0.27614-0.52473 0.375-0.8125 0.01041-0.03078 0.02133-0.06274 0.03125-0.09375 0.09046-0.27808 0.1388-0.5794 0.1875-0.875 0.053-0.318 0.094-0.634 0.094-0.969v-2-68-2c0-3.324-2.676-6-6-6h-72z" />
      <path
         id="path3615"
         style="opacity:.2"
         d="m12 90c-3.324 0-6-2.676-6-6v-2-68-2c0-0.33472 0.04135-0.6507 0.09375-0.96875 0.0487-0.2956 0.09704-0.59692 0.1875-0.875 0.0099-0.03 0.0209-0.063 0.0313-0.094 0.0989-0.2873 0.2349-0.547 0.375-0.812 0.1446-0.2735 0.3156-0.5356 0.5-0.7812 0.1844-0.2457 0.3738-0.4735 0.5937-0.6876 0.44-0.428 0.943-0.8145 1.5-1.0937 0.2786-0.1396 0.5735-0.2469 0.8748-0.3437-0.256 0.1002-0.4865 0.2362-0.7185 0.375-0.00741 0.0044-0.023866-0.0045-0.03125 0-0.031933 0.0193-0.062293 0.04251-0.09375 0.0625-0.1204 0.0767-0.23102 0.16351-0.34375 0.25-0.10617 0.0808-0.21328 0.16111-0.3125 0.25-0.1779 0.1614-0.3474 0.3453-0.5 0.5312-0.1075 0.1303-0.2183 0.2653-0.3124 0.4063-0.0251 0.0383-0.0385 0.0858-0.0626 0.125-0.0647 0.103-0.1302 0.2045-0.1874 0.3124-0.1011 0.1948-0.2057 0.4158-0.2813 0.625-0.008 0.0219-0.0236 0.0406-0.0313 0.0626-0.0318 0.0919-0.0358 0.1868-0.0624 0.2812-0.0304 0.1066-0.0704 0.203-0.0938 0.3125-0.0729 0.3415-0.125 0.6985-0.125 1.0625v2 68 2c0 2.7818 2.2182 5 5 5h2 68 2c2.7818 0 5-2.2182 5-5v-2-68-2c0-0.364-0.052-0.721-0.125-1.0625-0.044-0.2069-0.088-0.3977-0.156-0.5937-0.008-0.022-0.024-0.0407-0.031-0.0626-0.063-0.1737-0.139-0.3674-0.219-0.5312-0.042-0.0828-0.079-0.17-0.125-0.25-0.055-0.0972-0.127-0.1884-0.188-0.2812-0.094-0.141-0.205-0.276-0.312-0.4063-0.143-0.1745-0.303-0.347-0.469-0.5-0.011-0.0102-0.02-0.0211-0.031-0.0313-0.139-0.1255-0.285-0.2344-0.438-0.3437-0.102-0.0731-0.204-0.1534-0.312-0.2187-0.0074-0.0045-0.02384 0.0044-0.03125 0-0.23204-0.13873-0.46255-0.27478-0.71875-0.375 0.30153 0.0968 0.59646 0.20414 0.875 0.34375 0.55709 0.27922 1.0601 0.66569 1.5 1.0938 0.21997 0.21403 0.40937 0.44186 0.59375 0.6875s0.35541 0.50774 0.5 0.78125c0.14012 0.26505 0.27614 0.52473 0.375 0.8125 0.01041 0.03078 0.02133 0.06274 0.03125 0.09375 0.09046 0.27808 0.1388 0.5794 0.1875 0.875 0.053 0.318 0.094 0.634 0.094 0.969v2 68 2c0 3.324-2.676 6-6 6h-72z" />
    </g>
    <g
       id="g3100"
       transform="translate(-4.8238e-7 956.36)">
      <path
         id="path3763"
         style="fill:#f00"
         d="m8.4565 17.153c0 1.2472-1.0111 2.2583-2.2583 2.2583s-2.2583-1.0111-2.2583-2.2583 1.0111-2.2583 2.2583-2.2583 2.2583 1.0111 2.2583 2.2583z"
         transform="matrix(2.5865 0 0 2.5865 5.9776 10.495)" />
      <path
         id="path3763-2"
         style="fill:#f33"
         d="m8.4565 17.153c0 1.2472-1.0111 2.2583-2.2583 2.2583s-2.2583-1.0111-2.2583-2.2583 1.0111-2.2583 2.2583-2.2583 2.2583 1.0111 2.2583 2.2583z"
         transform="matrix(2.5865 0 0 2.5865 16.541 21.307)" />
      <path
         id="path3763-9"
         style="fill:#f99"
         d="m8.4565 17.153c0 1.2472-1.0111 2.2583-2.2583 2.2583s-2.2583-1.0111-2.2583-2.2583 1.0111-2.2583 2.2583-2.2583 2.2583 1.0111 2.2583 2.2583z"
         transform="matrix(2.5865 0 0 2.5865 39.159 20.313)" />
      <path
         id="path3763-0"
         style="fill:#f66"
         d="m8.4565 17.153c0 1.2472-1.0111 2.2583-2.2583 2.2583s-2.2583-1.0111-2.2583-2.2583 1.0111-2.2583 2.2583-2.2583 2.2583 1.0111 2.2583 2.2583z"
         transform="matrix(2.5865 0 0 2.5865 32.697 7.6369)" />
      <path
         id="path3763-28"
         style="fill:#f33"
         d="m8.4565 17.153c0 1.2472-1.0111 2.2583-2.2583 2.2583s-2.2583-1.0111-2.2583-2.2583 1.0111-2.2583 2.2583-2.2583 2.2583 1.0111 2.2583 2.2583z"
         transform="matrix(2.5865 0 0 2.5865 25.489 -4.7907)" />
      <path
         id="path3763-3"
         style="fill:#f63"
         d="m8.4565 17.153c0 1.2472-1.0111 2.2583-2.2583 2.2583s-2.2583-1.0111-2.2583-2.2583 1.0111-2.2583 2.2583-2.2583 2.2583 1.0111 2.2583 2.2583z"
         transform="matrix(2.5865 0 0 2.5865 44.876 -16.473)" />
      <path
         id="path3763-8"
         style="fill:#f99"
         d="m8.4565 17.153c0 1.2472-1.0111 2.2583-2.2583 2.2583s-2.2583-1.0111-2.2583-2.2583 1.0111-2.2583 2.2583-2.2583 2.2583 1.0111 2.2583 2.2583z"
         transform="matrix(2.5865 0 0 2.5865 49.35 -3.2994)" />
      <path
         id="path3763-04"
         style="fill:#fcc"
         d="m8.4565 17.153c0 1.2472-1.0111 2.2583-2.2583 2.2583s-2.2583-1.0111-2.2583-2.2583 1.0111-2.2583 2.2583-2.2583 2.2583 1.0111 2.2583 2.2583z"
         transform="matrix(2.5865 0 0 2.5865 53.327 9.6253)" />
      <path
         id="path3763-09"
         style="fill:#fff"
         d="m8.4565 17.153c0 1.2472-1.0111 2.2583-2.2583 2.2583s-2.2583-1.0111-2.2583-2.2583 1.0111-2.2583 2.2583-2.2583 2.2583 1.0111 2.2583 2.2583z"
         transform="matrix(2.5865 0 0 2.5865 56.806 23.047)" />
    </g>
    <rect
       id="rect3003"
       style="opacity:.15;fill:#fff"
       transform="translate(98)"
       clip-path="url(#clipPath3009)"
       rx="25"
       ry="25"
       height="92"
       width="92"
       y="958.36"
       x="-96" />
  </g>
</svg>
