<svg height="96" width="96" xmlns="http://www.w3.org/2000/svg" xmlns:sodipodi="http://sodipodi.sourceforge.net/DTD/sodipodi-0.dtd" xmlns:inkscape="http://www.inkscape.org/namespaces/inkscape">
 <defs>
  <linearGradient x2="0" y1="962.62" y2="1046.1" gradientUnits="userSpaceOnUse" id="linearGradient11642" gradientTransform="matrix(1.15 0 0 1.15 -7.2 -150.65)">
   <stop stop-color="#d7c000"/>
   <stop stop-color="#ebd93c" offset="1"/>
  </linearGradient>
  <linearGradient x2="0" y1="24" y2="-16" gradientUnits="userSpaceOnUse" id="linearGradient3862">
   <stop stop-color="#665400"/>
   <stop stop-color="#665400" stop-opacity="0" offset="1"/>
  </linearGradient>
  <clipPath clipPathUnits="userSpaceOnUse" id="clipPath3009">
   <path d="m-2 956.36h-96v33.562l96 25.687v-59.25z"/>
  </clipPath>
 </defs>
 <g transform="matrix(1 0 0 1 0 -956.36)">
  <rect x="2" rx="25" y="958.36" fill="url(#linearGradient11642)" height="92" width="92"/>
  <g transform="matrix(1 0 0 1 0 956.36)">
   <path d="m15.781 9.9062c-0.0011 0.0000542-0.09269 0.031142-0.09375 0.03125a1.0152 1.0152 0 0 0 -0.125 0c-0.001 0.0005-0.185 0.0621-0.187 0.0626-0.0017 0.000534-0.1546 0.06182-0.15625 0.0625-0.0017 0.000677-0.15466 0.06169-0.15625 0.0625-0.0016 0.000815-0.15474 0.0928-0.15625 0.09375-0.0015 0.000947-0.15482 0.09268-0.15625 0.09375-0.0014 0.0011-0.12367 0.12381-0.125 0.125-0.0013 0.0012-0.12378 0.1237-0.125 0.125-0.0012 0.0013-0.12389 0.1236-0.125 0.125-0.0011 0.0014-0.09276 0.15476-0.09375 0.15625-0.000987 0.0015-0.09289 0.15468-0.09375 0.15625-0.000857 0.0016-0.09303 0.15462-0.09375 0.15625-0.000721 0.0016-0.06192 0.15456-0.0625 0.15625-0.00058 0.0017-0.03082 0.15452-0.03125 0.15625-0.000434 0.0017-0.06221 0.18574-0.0625 0.1875-0.000286 0.0018 0.000135 0.18572 0 0.1875-0.000135 0.0018-0.000017 0.15446 0 0.15625v24c0.000029 0.002-0.000223 0.21674 0 0.21875 0.000223 0.002 0.03083 0.18552 0.03125 0.1875 0.000416 0.002 0.0619 0.21682 0.0625 0.21875 0.000604 0.0019 0.06171 0.18564 0.0625 0.1875 0.000787 0.0019 0.09279 0.15447 0.09375 0.15625 0.000963 0.0018 0.09262 0.18582 0.09375 0.1875 0.0011 0.0017 0.12371 0.15469 0.125 0.15625 0.0013 0.0016 0.12357 0.15482 0.125 0.15625 0.0014 0.0014 0.15469 0.12371 0.15625 0.125 0.0016 0.0013 0.15457 0.12387 0.15625 0.125 0.0017 0.0011 0.18572 0.09279 0.1875 0.09375 0.0018 0.000963 0.15439 0.09296 0.15625 0.09375 0.0019 0.000787 0.18557 0.0619 0.1875 0.0625 0.0019 0.000604 0.21677 0.06208 0.21875 0.0625 0.002 0.000416 0.18549 0.03103 0.1875 0.03125 0.002 0.000223 0.21673-0.000029 0.21875 0h0.1875c-2.094 0.16-4.015 1.092-5.186 2.844-1.2525 1.879-1.6563 4.268-1.6562 7.094-0.000001 2.8189 0.40108 5.2327 1.6562 7.125 1.2833 1.9105 3.4184 2.9375 5.7188 2.9375 2.2987 0 4.439-1.0179 5.7188-2.9375 1.257-1.88 1.687-4.292 1.687-7.124 0-2.839-0.433-5.226-1.687-7.094-1.168-1.76-3.093-2.684-5.188-2.844h0.75c0.002-0.000029 0.21674 0.000223 0.21875 0 0.002-0.000223 0.18552-0.03083 0.1875-0.03125 0.002-0.000416 0.21682-0.0619 0.21875-0.0625 0.0019-0.000604 0.18564-0.06171 0.1875-0.0625 0.0019-0.000787 0.15447-0.09279 0.15625-0.09375 0.0018-0.000963 0.18582-0.09262 0.1875-0.09375 0.0017-0.0011 0.15469-0.12371 0.15625-0.125 0.0016-0.0013 0.15482-0.12357 0.15625-0.125 0.0014-0.0014 0.12371-0.15469 0.125-0.15625 0.0013-0.0016 0.12387-0.15457 0.125-0.15625 0.0011-0.0017 0.09279-0.18572 0.09375-0.1875 0.000963-0.0018 0.09296-0.15439 0.09375-0.15625 0.000787-0.0019 0.0619-0.18557 0.0625-0.1875 0.000604-0.0019 0.06208-0.21677 0.0625-0.21875 0.000416-0.002 0.03103-0.18549 0.03125-0.1875 0.000223-0.002-0.000029-0.21673 0-0.21875v-11.281c0.01719 0.04686 0.03086 0.09282 0.03125 0.09375 0.000787 0.0019 0.09279 0.15447 0.09375 0.15625 0.000963 0.0018 0.09262 0.18582 0.09375 0.1875 0.0011 0.0017 0.12371 0.15469 0.125 0.15625 0.0013 0.0016 0.12357 0.15482 0.125 0.15625 0.0014 0.0014 0.15469 0.12371 0.15625 0.125 0.0016 0.0013 0.15457 0.12387 0.15625 0.125 0.0017 0.0011 0.18572 0.09279 0.1875 0.09375 0.0018 0.000963 0.15439 0.09296 0.15625 0.09375 0.0019 0.000787 0.18557 0.0619 0.1875 0.0625 0.0019 0.000604 0.21677 0.06208 0.21875 0.0625 0.002 0.000416 0.18549 0.03103 0.1875 0.03125 0.002 0.000223 0.21673-0.000029 0.21875 0h2c0.002-0.000029 0.21674 0.000223 0.21875 0 0.002-0.000223 0.18552-0.03083 0.1875-0.03125 0.002-0.000416 0.21682-0.0619 0.21875-0.0625 0.0019-0.000604 0.18564-0.06171 0.1875-0.0625 0.0019-0.000787 0.15447-0.09279 0.15625-0.09375 0.0018-0.000963 0.18582-0.09262 0.1875-0.09375 0.0017-0.0011 0.15469-0.12371 0.15625-0.125 0.0016-0.0013 0.15482-0.12357 0.15625-0.125 0.0014-0.0014 0.12371-0.15469 0.125-0.15625 0.0013-0.0016 0.12387-0.15457 0.125-0.15625 0.0011-0.0017 0.09279-0.18572 0.09375-0.1875 0.000963-0.0018 0.09296-0.15439 0.09375-0.15625 0.000787-0.0019 0.0619-0.18557 0.0625-0.1875 0.000342-0.0011 0.01723-0.07126 0.03125-0.125 0.01402 0.05374 0.03091 0.12391 0.03125 0.125 0.000604 0.0019 0.06171 0.18564 0.0625 0.1875 0.000787 0.0019 0.09279 0.15447 0.09375 0.15625 0.000963 0.0018 0.09262 0.18582 0.09375 0.1875 0.0011 0.0017 0.12371 0.15469 0.125 0.15625 0.0013 0.0016 0.12357 0.15482 0.125 0.15625 0.0014 0.0014 0.15469 0.12371 0.15625 0.125 0.0016 0.0013 0.15457 0.12387 0.15625 0.125 0.0017 0.0011 0.18572 0.09279 0.1875 0.09375 0.0018 0.000963 0.15439 0.09296 0.15625 0.09375 0.0019 0.000787 0.18557 0.0619 0.1875 0.0625 0.0019 0.000604 0.21677 0.06208 0.21875 0.0625 0.002 0.000416 0.18549 0.03103 0.1875 0.03125 0.002 0.000223 0.21673-0.000029 0.21875 0h2c0.002-0.000029 0.21674 0.000223 0.21875 0 0.002-0.000223 0.18552-0.03083 0.1875-0.03125 0.002-0.000416 0.21682-0.0619 0.21875-0.0625 0.0019-0.000604 0.18564-0.06171 0.1875-0.0625 0.0019-0.000787 0.15447-0.09279 0.15625-0.09375 0.0018-0.000963 0.18582-0.09262 0.1875-0.09375 0.0017-0.0011 0.15469-0.12371 0.15625-0.125 0.0016-0.0013 0.15482-0.12357 0.15625-0.125 0.0014-0.0014 0.12371-0.15469 0.125-0.15625 0.0013-0.0016 0.12387-0.15457 0.125-0.15625 0.0011-0.0017 0.09279-0.18572 0.09375-0.1875 0.000963-0.0018 0.09296-0.15439 0.09375-0.15625 0.000787-0.0019 0.0619-0.18557 0.0625-0.1875 0.000342-0.0011 0.01723-0.07126 0.03125-0.125 0.01402 0.05374 0.03091 0.12391 0.03125 0.125 0.000604 0.0019 0.06171 0.18564 0.0625 0.1875 0.000787 0.0019 0.09279 0.15447 0.09375 0.15625 0.000963 0.0018 0.09262 0.18582 0.09375 0.1875 0.0011 0.0017 0.12371 0.15469 0.125 0.15625 0.0013 0.0016 0.12357 0.15482 0.125 0.15625 0.0014 0.0014 0.15469 0.12371 0.15625 0.125 0.0016 0.0013 0.15457 0.12387 0.15625 0.125 0.0017 0.0011 0.18572 0.09279 0.1875 0.09375 0.0018 0.000963 0.15439 0.09296 0.15625 0.09375 0.0019 0.000787 0.18557 0.0619 0.1875 0.0625 0.0019 0.000604 0.21677 0.06208 0.21875 0.0625 0.002 0.000416 0.18549 0.03103 0.1875 0.03125 0.002 0.000223 0.21673-0.000029 0.21875 0h2c0.002-0.000029 0.21674 0.000223 0.21875 0 0.002-0.000223 0.18552-0.03083 0.1875-0.03125 0.002-0.000416 0.21682-0.0619 0.21875-0.0625 0.0019-0.000604 0.18564-0.06171 0.1875-0.0625 0.0019-0.000787 0.15447-0.09279 0.15625-0.09375 0.0018-0.000963 0.18582-0.09262 0.1875-0.09375 0.0017-0.0011 0.15469-0.12371 0.15625-0.125 0.0016-0.0013 0.15482-0.12357 0.15625-0.125 0.0014-0.0014 0.12371-0.15469 0.125-0.15625 0.0013-0.0016 0.12387-0.15457 0.125-0.15625 0.0011-0.0017 0.09279-0.18572 0.09375-0.1875 0.000963-0.0018 0.09296-0.15439 0.09375-0.15625 0.000787-0.0019 0.0619-0.18557 0.0625-0.1875 0.000342-0.0011 0.01723-0.07126 0.03125-0.125 0.01402 0.05374 0.03091 0.12391 0.03125 0.125 0.000604 0.0019 0.06171 0.18564 0.0625 0.1875 0.000787 0.0019 0.09279 0.15447 0.09375 0.15625 0.000963 0.0018 0.09262 0.18582 0.09375 0.1875 0.0011 0.0017 0.12371 0.15469 0.125 0.15625 0.0013 0.0016 0.12357 0.15482 0.125 0.15625 0.0014 0.0014 0.15469 0.12371 0.15625 0.125 0.0016 0.0013 0.15457 0.12387 0.15625 0.125 0.0017 0.0011 0.18572 0.09279 0.1875 0.09375 0.0018 0.000963 0.15439 0.09296 0.15625 0.09375 0.0019 0.000787 0.18557 0.0619 0.1875 0.0625 0.0019 0.000604 0.21677 0.06208 0.21875 0.0625 0.002 0.000416 0.18549 0.03103 0.1875 0.03125 0.002 0.000223 0.21673-0.000029 0.21875 0h2c0.002-0.000029 0.21674 0.000223 0.21875 0 0.002-0.000223 0.18552-0.03083 0.1875-0.03125 0.002-0.000416 0.21682-0.0619 0.21875-0.0625 0.0019-0.000604 0.18564-0.06171 0.1875-0.0625 0.0019-0.000787 0.15447-0.09279 0.15625-0.09375 0.0018-0.000963 0.18582-0.09262 0.1875-0.09375 0.0017-0.0011 0.15469-0.12371 0.15625-0.125 0.0016-0.0013 0.15482-0.12357 0.15625-0.125 0.0014-0.0014 0.12371-0.15469 0.125-0.15625 0.0013-0.0016 0.12387-0.15457 0.125-0.15625 0.0011-0.0017 0.09279-0.18572 0.09375-0.1875 0.000963-0.0018 0.09296-0.15439 0.09375-0.15625 0.000394-0.000931 0.01406-0.04689 0.03125-0.09375v5.2812c0.000029 0.002-0.000223 0.21674 0 0.21875 0.000223 0.002 0.03083 0.18552 0.03125 0.1875 0.000416 0.002 0.0619 0.21682 0.0625 0.21875 0.000604 0.0019 0.06171 0.18564 0.0625 0.1875 0.000787 0.0019 0.09279 0.15447 0.09375 0.15625 0.000963 0.0018 0.09262 0.18582 0.09375 0.1875 0.0011 0.0017 0.12371 0.15469 0.125 0.15625 0.0013 0.0016 0.12357 0.15482 0.125 0.15625 0.0014 0.0014 0.15469 0.12371 0.15625 0.125 0.0016 0.0013 0.15457 0.12387 0.15625 0.125 0.0017 0.0011 0.18572 0.09279 0.1875 0.09375 0.0018 0.000963 0.15439 0.09296 0.15625 0.09375 0.0019 0.000787 0.18557 0.0619 0.1875 0.0625 0.0019 0.000604 0.21677 0.06208 0.21875 0.0625 0.002 0.000416 0.18549 0.03103 0.1875 0.03125 0.002 0.000223 0.21673-0.000029 0.21875 0h2c0.002-0.000029 0.21674 0.000223 0.21875 0 0.002-0.000223 0.18552-0.03083 0.1875-0.03125 0.002-0.000416 0.21682-0.0619 0.21875-0.0625 0.0019-0.000604 0.18564-0.06171 0.1875-0.0625 0.0019-0.000787 0.15447-0.09279 0.15625-0.09375 0.0018-0.000963 0.18582-0.09262 0.1875-0.09375 0.0017-0.0011 0.15469-0.12371 0.15625-0.125 0.0016-0.0013 0.15482-0.12357 0.15625-0.125 0.0014-0.0014 0.12371-0.15469 0.125-0.15625 0.0013-0.0016 0.12387-0.15457 0.125-0.15625 0.0011-0.0017 0.09279-0.18572 0.09375-0.1875 0.000963-0.0018 0.09296-0.15439 0.09375-0.15625 0.000787-0.0019 0.0619-0.18557 0.0625-0.1875 0.000604-0.0019 0.06208-0.21677 0.0625-0.21875 0.000416-0.002 0.03103-0.18549 0.03125-0.1875 0.000223-0.002-0.000029-0.21673 0-0.21875v-5.2812c0.01719 0.04686 0.03086 0.09282 0.03125 0.09375 0.000787 0.0019 0.09279 0.15447 0.09375 0.15625 0.000963 0.0018 0.09262 0.18582 0.09375 0.1875 0.0011 0.0017 0.12371 0.15469 0.125 0.15625 0.0013 0.0016 0.12357 0.15482 0.125 0.15625 0.0014 0.0014 0.15469 0.12371 0.15625 0.125 0.0016 0.0013 0.15457 0.12387 0.15625 0.125 0.0017 0.0011 0.18572 0.09279 0.1875 0.09375 0.0018 0.000963 0.15439 0.09296 0.15625 0.09375 0.0019 0.000787 0.18557 0.0619 0.1875 0.0625 0.0019 0.000604 0.21677 0.06208 0.21875 0.0625 0.002 0.000416 0.18549 0.03103 0.1875 0.03125 0.002 0.000223 0.21673-0.000029 0.21875 0h2c0.002-0.000029 0.21674 0.000223 0.21875 0 0.002-0.000223 0.18552-0.03083 0.1875-0.03125 0.002-0.000416 0.21682-0.0619 0.21875-0.0625 0.0019-0.000604 0.18564-0.06171 0.1875-0.0625 0.0019-0.000787 0.15447-0.09279 0.15625-0.09375 0.0018-0.000963 0.18582-0.09262 0.1875-0.09375 0.0017-0.0011 0.15469-0.12371 0.15625-0.125 0.0016-0.0013 0.15482-0.12357 0.15625-0.125 0.0014-0.0014 0.12371-0.15469 0.125-0.15625 0.0013-0.0016 0.12387-0.15457 0.125-0.15625 0.0011-0.0017 0.09279-0.18572 0.09375-0.1875 0.000963-0.0018 0.09296-0.15439 0.09375-0.15625 0.000787-0.0019 0.0619-0.18557 0.0625-0.1875 0.000342-0.0011 0.01723-0.07126 0.03125-0.125 0.01402 0.05374 0.03091 0.12391 0.03125 0.125 0.000604 0.0019 0.06171 0.18564 0.0625 0.1875 0.000787 0.0019 0.09279 0.15447 0.09375 0.15625 0.000963 0.0018 0.09262 0.18582 0.09375 0.1875 0.0011 0.0017 0.12371 0.15469 0.125 0.15625 0.0013 0.0016 0.12357 0.15482 0.125 0.15625 0.0014 0.0014 0.15469 0.12371 0.15625 0.125 0.0016 0.0013 0.15457 0.12387 0.15625 0.125 0.0017 0.0011 0.18572 0.09279 0.1875 0.09375 0.0018 0.000963 0.15439 0.09296 0.15625 0.09375 0.0019 0.000787 0.18557 0.0619 0.1875 0.0625 0.0019 0.000604 0.21677 0.06208 0.21875 0.0625 0.002 0.000416 0.18549 0.03103 0.1875 0.03125 0.002 0.000223 0.21673-0.000029 0.21875 0h2c0.002-0.000029 0.21674 0.000223 0.21875 0 0.002-0.000223 0.18552-0.03083 0.1875-0.03125 0.002-0.000416 0.21682-0.0619 0.21875-0.0625 0.0019-0.000604 0.18564-0.06171 0.1875-0.0625 0.0019-0.000787 0.15447-0.09279 0.15625-0.09375 0.0018-0.000963 0.18582-0.09262 0.1875-0.09375 0.0017-0.0011 0.15469-0.12371 0.15625-0.125 0.0016-0.0013 0.15482-0.12357 0.15625-0.125 0.0014-0.0014 0.12371-0.15469 0.125-0.15625 0.0013-0.0016 0.12387-0.15457 0.125-0.15625 0.0011-0.0017 0.09279-0.18572 0.09375-0.1875 0.000963-0.0018 0.09296-0.15439 0.09375-0.15625 0.000787-0.0019 0.0619-0.18557 0.0625-0.1875 0.000342-0.0011 0.01723-0.07126 0.03125-0.125 0.01402 0.05374 0.03091 0.12391 0.03125 0.125 0.000604 0.0019 0.06171 0.18564 0.0625 0.1875 0.000787 0.0019 0.09279 0.15447 0.09375 0.15625 0.000963 0.0018 0.09262 0.18582 0.09375 0.1875 0.0011 0.0017 0.12371 0.15469 0.125 0.15625 0.0013 0.0016 0.12357 0.15482 0.125 0.15625 0.0014 0.0014 0.15469 0.12371 0.15625 0.125 0.0016 0.0013 0.15457 0.12387 0.15625 0.125 0.0017 0.0011 0.18572 0.09279 0.1875 0.09375 0.0018 0.000963 0.15439 0.09296 0.15625 0.09375 0.0019 0.000787 0.18557 0.0619 0.1875 0.0625 0.0019 0.000604 0.21677 0.06208 0.21875 0.0625 0.002 0.000416 0.18549 0.03103 0.1875 0.03125 0.002 0.000223 0.21673-0.000029 0.21875 0h2c0.002-0.000029 0.21674 0.000223 0.21875 0 0.002-0.000223 0.18552-0.03083 0.1875-0.03125 0.002-0.000416 0.21682-0.0619 0.21875-0.0625 0.0019-0.000604 0.18564-0.06171 0.1875-0.0625 0.0019-0.000787 0.15447-0.09279 0.15625-0.09375 0.0018-0.000963 0.18582-0.09262 0.1875-0.09375 0.0017-0.0011 0.15469-0.12371 0.15625-0.125 0.0016-0.0013 0.15482-0.12357 0.15625-0.125 0.0014-0.0014 0.12371-0.15469 0.125-0.15625 0.0013-0.0016 0.12387-0.15457 0.125-0.15625 0.0011-0.0017 0.09279-0.18572 0.09375-0.1875 0.000963-0.0018 0.09296-0.15439 0.09375-0.15625 0.000787-0.0019 0.0619-0.18557 0.0625-0.1875 0.000342-0.0011 0.01723-0.07126 0.03125-0.125 0.01402 0.05374 0.03091 0.12391 0.03125 0.125 0.000604 0.0019 0.06171 0.18564 0.0625 0.1875 0.000787 0.0019 0.09279 0.15447 0.09375 0.15625 0.000963 0.0018 0.09262 0.18582 0.09375 0.1875 0.0011 0.0017 0.12371 0.15469 0.125 0.15625 0.0013 0.0016 0.12357 0.15482 0.125 0.15625 0.0014 0.0014 0.15469 0.12371 0.15625 0.125 0.0016 0.0013 0.15457 0.12387 0.15625 0.125 0.0017 0.0011 0.18572 0.09279 0.1875 0.09375 0.0018 0.000963 0.15439 0.09296 0.15625 0.09375 0.0019 0.000787 0.18557 0.0619 0.1875 0.0625 0.0019 0.000604 0.21677 0.06208 0.21875 0.0625 0.002 0.000416 0.18549 0.03103 0.1875 0.03125 0.002 0.000223 0.21673-0.000029 0.21875 0h2c0.002-0.000029 0.21674 0.000223 0.21875 0 0.002-0.000223 0.18552-0.03083 0.1875-0.03125 0.002-0.000416 0.21682-0.0619 0.21875-0.0625 0.0019-0.000604 0.18564-0.06171 0.1875-0.0625 0.0019-0.000787 0.15447-0.09279 0.15625-0.09375 0.0018-0.000963 0.18582-0.09262 0.1875-0.09375 0.0017-0.0011 0.15469-0.12371 0.15625-0.125 0.0016-0.0013 0.15482-0.12357 0.15625-0.125 0.0014-0.0014 0.12371-0.15469 0.125-0.15625 0.0013-0.0016 0.12387-0.15457 0.125-0.15625 0.0011-0.0017 0.09279-0.18572 0.09375-0.1875 0.000963-0.0018 0.09296-0.15439 0.09375-0.15625 0.000394-0.000931 0.01406-0.04689 0.03125-0.09375v11.281c0.000029 0.002-0.000223 0.21674 0 0.21875 0.000223 0.002 0.03083 0.18552 0.03125 0.1875 0.000416 0.002 0.0619 0.21682 0.0625 0.21875 0.000604 0.0019 0.06171 0.18564 0.0625 0.1875 0.000787 0.0019 0.09279 0.15447 0.09375 0.15625 0.000963 0.0018 0.09262 0.18582 0.09375 0.1875 0.0011 0.0017 0.12371 0.15469 0.125 0.15625 0.0013 0.0016 0.12357 0.15482 0.125 0.15625 0.0014 0.0014 0.15469 0.12371 0.15625 0.125 0.0016 0.0013 0.15457 0.12387 0.15625 0.125 0.0017 0.0011 0.18572 0.09279 0.1875 0.09375 0.0018 0.000963 0.15439 0.09296 0.15625 0.09375 0.0019 0.000787 0.18557 0.0619 0.1875 0.0625 0.0019 0.000604 0.21677 0.06208 0.21875 0.0625 0.002 0.000416 0.18549 0.03103 0.1875 0.03125 0.002 0.000223 0.21673-0.000029 0.21875 0h2c0.002-0.000029 0.21674 0.000223 0.21875 0 0.002-0.000223 0.18552-0.03083 0.1875-0.03125 0.002-0.000416 0.21682-0.0619 0.21875-0.0625 0.0019-0.000604 0.18564-0.06171 0.1875-0.0625 0.0019-0.000787 0.15447-0.09279 0.15625-0.09375 0.0018-0.000963 0.18582-0.09262 0.1875-0.09375 0.0017-0.0011 0.15469-0.12371 0.15625-0.125 0.0016-0.0013 0.15482-0.12357 0.15625-0.125 0.0014-0.0014 0.12371-0.15469 0.125-0.15625 0.0013-0.0016 0.12387-0.15457 0.125-0.15625 0.0011-0.0017 0.09279-0.18572 0.09375-0.1875 0.000963-0.0018 0.09296-0.15439 0.09375-0.15625 0.000787-0.0019 0.0619-0.18557 0.0625-0.1875 0.000604-0.0019 0.06208-0.21677 0.0625-0.21875 0.000416-0.002 0.03103-0.18549 0.03125-0.1875 0.000223-0.002-0.000029-0.21673 0-0.21875v-11.281c0.01719 0.04686 0.03086 0.09282 0.03125 0.09375 0.000787 0.0019 0.09279 0.15447 0.09375 0.15625 0.000963 0.0018 0.09262 0.18582 0.09375 0.1875 0.0011 0.0017 0.12371 0.15469 0.125 0.15625 0.0013 0.0016 0.12357 0.15482 0.125 0.15625 0.0014 0.0014 0.15469 0.12371 0.15625 0.125 0.0016 0.0013 0.15457 0.12387 0.15625 0.125 0.0017 0.0011 0.18572 0.09279 0.1875 0.09375 0.0018 0.000963 0.15439 0.09296 0.15625 0.09375 0.0019 0.000787 0.18557 0.0619 0.1875 0.0625 0.0019 0.000604 0.21677 0.06208 0.21875 0.0625 0.002 0.000416 0.18549 0.03103 0.1875 0.03125 0.002 0.000223 0.21673-0.000029 0.21875 0h2c0.002-0.000029 0.21674 0.000223 0.21875 0 0.002-0.000223 0.18552-0.03083 0.1875-0.03125 0.002-0.000416 0.21682-0.0619 0.21875-0.0625 0.0019-0.000604 0.18564-0.06171 0.1875-0.0625 0.0019-0.000787 0.15447-0.09279 0.15625-0.09375 0.0018-0.000963 0.18582-0.09262 0.1875-0.09375 0.0017-0.0011 0.15469-0.12371 0.15625-0.125 0.0016-0.0013 0.15482-0.12357 0.15625-0.125 0.0014-0.0014 0.12371-0.15469 0.125-0.15625 0.0013-0.0016 0.12387-0.15457 0.125-0.15625 0.0011-0.0017 0.09279-0.18572 0.09375-0.1875 0.000963-0.0018 0.09296-0.15439 0.09375-0.15625 0.000787-0.0019 0.0619-0.18557 0.0625-0.1875 0.000604-0.0019 0.06208-0.21677 0.0625-0.21875 0.000416-0.002 0.03103-0.18549 0.03125-0.1875 0.000223-0.002-0.000029-0.21673 0-0.21875v-12c-0.000029-0.002 0.000223-0.21674 0-0.21875-0.000223-0.002-0.03083-0.18552-0.03125-0.1875-0.000416-0.002-0.0619-0.21682-0.0625-0.21875-0.000604-0.0019-0.06171-0.18564-0.0625-0.1875-0.000787-0.0019-0.09279-0.15447-0.09375-0.15625-0.000963-0.0018-0.09262-0.18582-0.09375-0.1875-0.0011-0.0017-0.12371-0.15469-0.125-0.15625-0.0013-0.0016-0.12357-0.15482-0.125-0.15625-0.0014-0.0014-0.15469-0.12371-0.15625-0.125-0.0016-0.0013-0.15457-0.12387-0.15625-0.125-0.0017-0.0011-0.18572-0.09279-0.1875-0.09375-0.0018-0.000963-0.15439-0.09296-0.15625-0.09375-0.0019-0.000787-0.18557-0.0619-0.1875-0.0625-0.0019-0.000604-0.21677-0.062084-0.21875-0.0625-0.002-0.0004157-0.18549-0.031027-0.1875-0.03125-0.002-0.0002233-0.21673 0.0000289-0.21875 0h-1.9062c0.004-0.0012-0.088-0.0323-0.089-0.0324-0.0011-0.0000542-0.12393 0-0.125 0-0.0011 0-0.09269-0.0000542-0.09375 0-0.0011 0.0000542-0.09269 0.031142-0.09375 0.03125a1.0152 1.0152 0 0 0 -0.125 0c-0.002 0.0005-0.186 0.0621-0.188 0.0626-0.0017 0.000534-0.1546 0.06182-0.15625 0.0625-0.0017 0.000677-0.15466 0.06169-0.15625 0.0625-0.0016 0.000815-0.15474 0.0928-0.15625 0.09375-0.0015 0.000947-0.15482 0.09268-0.15625 0.09375-0.0014 0.0011-0.12367 0.12381-0.125 0.125-0.0013 0.0012-0.12378 0.1237-0.125 0.125-0.0012 0.0013-0.12389 0.1236-0.125 0.125-0.0011 0.0014-0.09276 0.15476-0.09375 0.15625-0.000987 0.0015-0.09289 0.15468-0.09375 0.15625-0.000857 0.0016-0.09303 0.15462-0.09375 0.15625-0.000721 0.0016-0.06192 0.15456-0.0625 0.15625-0.00058 0.0017-0.03082 0.15452-0.03125 0.15625-0.01076-0.0412-0.03099-0.09291-0.03125-0.09375-0.000604-0.0019-0.06171-0.18564-0.0625-0.1875-0.000787-0.0019-0.09279-0.15447-0.09375-0.15625-0.000963-0.0018-0.09262-0.18582-0.09375-0.1875-0.0011-0.0017-0.12371-0.15469-0.125-0.15625-0.0013-0.0016-0.12357-0.15482-0.125-0.15625-0.0014-0.0014-0.15469-0.12371-0.15625-0.125-0.0016-0.0013-0.15457-0.12387-0.15625-0.125-0.0017-0.0011-0.18572-0.09279-0.1875-0.09375-0.0018-0.000963-0.15439-0.09296-0.15625-0.09375-0.0019-0.000787-0.18557-0.0619-0.1875-0.0625-0.0019-0.000604-0.21677-0.062084-0.21875-0.0625-0.002-0.0004157-0.18549-0.031027-0.1875-0.03125-0.002-0.0002233-0.21673 0.0000289-0.21875 0h-1.9062c-0.001 0.0002-0.093-0.0309-0.094-0.031-0.0011-0.0000542-0.12393 0-0.125 0-0.0011 0-0.09269-0.0000542-0.09375 0-0.0011 0.0000542-0.09269 0.031142-0.09375 0.03125a1.0152 1.0152 0 0 0 -0.125 0c-0.002 0.0005-0.186 0.0621-0.188 0.0626-0.0017 0.000534-0.1546 0.06182-0.15625 0.0625-0.0017 0.000677-0.15466 0.06169-0.15625 0.0625-0.0016 0.000815-0.15474 0.0928-0.15625 0.09375-0.0015 0.000947-0.15482 0.09268-0.15625 0.09375-0.0014 0.0011-0.12367 0.12381-0.125 0.125-0.0013 0.0012-0.12378 0.1237-0.125 0.125-0.0012 0.0013-0.12389 0.1236-0.125 0.125-0.0011 0.0014-0.09276 0.15476-0.09375 0.15625-0.000987 0.0015-0.09289 0.15468-0.09375 0.15625-0.000857 0.0016-0.09303 0.15462-0.09375 0.15625-0.000721 0.0016-0.06192 0.15456-0.0625 0.15625-0.00058 0.0017-0.03082 0.15452-0.03125 0.15625-0.01076-0.0412-0.03099-0.09291-0.03125-0.09375-0.000604-0.0019-0.06171-0.18564-0.0625-0.1875-0.000787-0.0019-0.09279-0.15447-0.09375-0.15625-0.000963-0.0018-0.09262-0.18582-0.09375-0.1875-0.0011-0.0017-0.12371-0.15469-0.125-0.15625-0.0013-0.0016-0.12357-0.15482-0.125-0.15625-0.0014-0.0014-0.15469-0.12371-0.15625-0.125-0.0016-0.0013-0.15457-0.12387-0.15625-0.125-0.0017-0.0011-0.18572-0.09279-0.1875-0.09375-0.0018-0.000963-0.15439-0.09296-0.15625-0.09375-0.0019-0.000787-0.18557-0.0619-0.1875-0.0625-0.0019-0.000604-0.21677-0.062084-0.21875-0.0625-0.002-0.0004157-0.18549-0.031027-0.1875-0.03125-0.002-0.0002233-0.21673 0.0000289-0.21875 0h-1.9062c-0.001 0.0002-0.093-0.0309-0.094-0.031-0.0011-0.0000542-0.12393 0-0.125 0-0.0011 0-0.09269-0.0000542-0.09375 0-0.0011 0.0000542-0.09269 0.031142-0.09375 0.03125a1.0152 1.0152 0 0 0 -0.125 0c-0.002 0.0005-0.186 0.0621-0.188 0.0626-0.0017 0.000534-0.1546 0.06182-0.15625 0.0625-0.0017 0.000677-0.15466 0.06169-0.15625 0.0625-0.0016 0.000815-0.15474 0.0928-0.15625 0.09375-0.0015 0.000947-0.15482 0.09268-0.15625 0.09375-0.0014 0.0011-0.12367 0.12381-0.125 0.125-0.0013 0.0012-0.12378 0.1237-0.125 0.125-0.0012 0.0013-0.12389 0.1236-0.125 0.125-0.0011 0.0014-0.09276 0.15476-0.09375 0.15625-0.000987 0.0015-0.09289 0.15468-0.09375 0.15625-0.000857 0.0016-0.09303 0.15462-0.09375 0.15625-0.000721 0.0016-0.06192 0.15456-0.0625 0.15625-0.00058 0.0017-0.03082 0.15452-0.03125 0.15625-0.01076-0.0412-0.03099-0.09291-0.03125-0.09375-0.000604-0.0019-0.06171-0.18564-0.0625-0.1875-0.000787-0.0019-0.09279-0.15447-0.09375-0.15625-0.000963-0.0018-0.09262-0.18582-0.09375-0.1875-0.0011-0.0017-0.12371-0.15469-0.125-0.15625-0.0013-0.0016-0.12357-0.15482-0.125-0.15625-0.0014-0.0014-0.15469-0.12371-0.15625-0.125-0.0016-0.0013-0.15457-0.12387-0.15625-0.125-0.0017-0.0011-0.18572-0.09279-0.1875-0.09375-0.0018-0.000963-0.15439-0.09296-0.15625-0.09375-0.0019-0.000787-0.18557-0.0619-0.1875-0.0625-0.0019-0.000604-0.21677-0.062084-0.21875-0.0625-0.002-0.0004157-0.18549-0.031027-0.1875-0.03125-0.002-0.0002233-0.21673 0.0000289-0.21875 0h-1.9062c-0.001 0.0002-0.093-0.0309-0.094-0.031-0.0011-0.0000542-0.12393 0-0.125 0-0.0011 0-0.09269-0.0000542-0.09375 0-0.0011 0.0000542-0.09269 0.031142-0.09375 0.03125a1.0152 1.0152 0 0 0 -0.125 0c-0.002 0.0005-0.186 0.0621-0.188 0.0626-0.0017 0.000534-0.1546 0.06182-0.15625 0.0625-0.0017 0.000677-0.15466 0.06169-0.15625 0.0625-0.0016 0.000815-0.15474 0.0928-0.15625 0.09375-0.0015 0.000947-0.15482 0.09268-0.15625 0.09375-0.0014 0.0011-0.12367 0.12381-0.125 0.125-0.0013 0.0012-0.12378 0.1237-0.125 0.125-0.0012 0.0013-0.12389 0.1236-0.125 0.125-0.0011 0.0014-0.09276 0.15476-0.09375 0.15625-0.000987 0.0015-0.09289 0.15468-0.09375 0.15625-0.000857 0.0016-0.09303 0.15462-0.09375 0.15625-0.000721 0.0016-0.06192 0.15456-0.0625 0.15625-0.00058 0.0017-0.03082 0.15452-0.03125 0.15625-0.01076-0.0412-0.03099-0.09291-0.03125-0.09375-0.000604-0.0019-0.06171-0.18564-0.0625-0.1875-0.000787-0.0019-0.09279-0.15447-0.09375-0.15625-0.000963-0.0018-0.09262-0.18582-0.09375-0.1875-0.0011-0.0017-0.12371-0.15469-0.125-0.15625-0.0013-0.0016-0.12357-0.15482-0.125-0.15625-0.0014-0.0014-0.15469-0.12371-0.15625-0.125-0.0016-0.0013-0.15457-0.12387-0.15625-0.125-0.0017-0.0011-0.18572-0.09279-0.1875-0.09375-0.0018-0.000963-0.15439-0.09296-0.15625-0.09375-0.0019-0.000787-0.18557-0.0619-0.1875-0.0625-0.0019-0.000604-0.21677-0.062084-0.21875-0.0625-0.002-0.0004157-0.18549-0.031027-0.1875-0.03125-0.002-0.0002233-0.21673 0.0000289-0.21875 0h-1.9062c-0.001 0.0002-0.093-0.0309-0.094-0.031-0.0011-0.0000542-0.12393 0-0.125 0-0.0011 0-0.09269-0.0000542-0.09375 0-0.0011 0.0000542-0.09269 0.031142-0.09375 0.03125a1.0152 1.0152 0 0 0 -0.125 0c-0.002 0.0005-0.186 0.0621-0.188 0.0626-0.0017 0.000534-0.1546 0.06182-0.15625 0.0625-0.0017 0.000677-0.15466 0.06169-0.15625 0.0625-0.0016 0.000815-0.15474 0.0928-0.15625 0.09375-0.0015 0.000947-0.15482 0.09268-0.15625 0.09375-0.0014 0.0011-0.12367 0.12381-0.125 0.125-0.0013 0.0012-0.12378 0.1237-0.125 0.125-0.0012 0.0013-0.12389 0.1236-0.125 0.125-0.0011 0.0014-0.09276 0.15476-0.09375 0.15625-0.000987 0.0015-0.09289 0.15468-0.09375 0.15625-0.000857 0.0016-0.09303 0.15462-0.09375 0.15625-0.000721 0.0016-0.06192 0.15456-0.0625 0.15625-0.00058 0.0017-0.03082 0.15452-0.03125 0.15625-0.01076-0.0412-0.03099-0.09291-0.03125-0.09375-0.000604-0.0019-0.06171-0.18564-0.0625-0.1875-0.000787-0.0019-0.09279-0.15447-0.09375-0.15625-0.000963-0.0018-0.09262-0.18582-0.09375-0.1875-0.0011-0.0017-0.12371-0.15469-0.125-0.15625-0.0013-0.0016-0.12357-0.15482-0.125-0.15625-0.0014-0.0014-0.15469-0.12371-0.15625-0.125-0.0016-0.0013-0.15457-0.12387-0.15625-0.125-0.0017-0.0011-0.18572-0.09279-0.1875-0.09375-0.0018-0.000963-0.15439-0.09296-0.15625-0.09375-0.0019-0.000787-0.18557-0.0619-0.1875-0.0625-0.0019-0.000604-0.21677-0.062084-0.21875-0.0625-0.002-0.0004157-0.18549-0.031027-0.1875-0.03125-0.002-0.0002233-0.21673 0.0000289-0.21875 0h-1.9062c-0.001 0.0002-0.093-0.0309-0.094-0.031-0.0011-0.0000542-0.12393 0-0.125 0-0.0011 0-0.09269-0.0000542-0.09375 0-0.0011 0.0000542-0.09269 0.031142-0.09375 0.03125a1.0152 1.0152 0 0 0 -0.125 0c-0.002 0.0005-0.186 0.0621-0.188 0.0626-0.0017 0.000534-0.1546 0.06182-0.15625 0.0625-0.0017 0.000677-0.15466 0.06169-0.15625 0.0625-0.0016 0.000815-0.15474 0.0928-0.15625 0.09375-0.0015 0.000947-0.15482 0.09268-0.15625 0.09375-0.0014 0.0011-0.12367 0.12381-0.125 0.125-0.0013 0.0012-0.12378 0.1237-0.125 0.125-0.0012 0.0013-0.12389 0.1236-0.125 0.125-0.0011 0.0014-0.09276 0.15476-0.09375 0.15625-0.000987 0.0015-0.09289 0.15468-0.09375 0.15625-0.000857 0.0016-0.09303 0.15462-0.09375 0.15625-0.000721 0.0016-0.06192 0.15456-0.0625 0.15625-0.00058 0.0017-0.03082 0.15452-0.03125 0.15625-0.01076-0.0412-0.03099-0.09291-0.03125-0.09375-0.000604-0.0019-0.06171-0.18564-0.0625-0.1875-0.000787-0.0019-0.09279-0.15447-0.09375-0.15625-0.000963-0.0018-0.09262-0.18582-0.09375-0.1875-0.0011-0.0017-0.12371-0.15469-0.125-0.15625-0.0013-0.0016-0.12357-0.15482-0.125-0.15625-0.0014-0.0014-0.15469-0.12371-0.15625-0.125-0.0016-0.0013-0.15457-0.12387-0.15625-0.125-0.0017-0.0011-0.18572-0.09279-0.1875-0.09375-0.0018-0.000963-0.15439-0.09296-0.15625-0.09375-0.0019-0.000787-0.18557-0.0619-0.1875-0.0625-0.0019-0.000604-0.21677-0.062084-0.21875-0.0625-0.002-0.0004157-0.18549-0.031027-0.1875-0.03125-0.002-0.0002233-0.21673 0.0000289-0.21875 0h-1.9062c-0.001 0.0002-0.093-0.0309-0.094-0.031-0.0011-0.0000542-0.12393 0-0.125 0-0.0011 0-0.09269-0.0000542-0.09375 0-0.0011 0.0000542-0.09269 0.031142-0.09375 0.03125a1.0152 1.0152 0 0 0 -0.125 0c-0.002 0.0005-0.186 0.0621-0.188 0.0626-0.0017 0.000534-0.1546 0.06182-0.15625 0.0625-0.0017 0.000677-0.15466 0.06169-0.15625 0.0625-0.0016 0.000815-0.15474 0.0928-0.15625 0.09375-0.0015 0.000947-0.15482 0.09268-0.15625 0.09375-0.0014 0.0011-0.12367 0.12381-0.125 0.125-0.0013 0.0012-0.12378 0.1237-0.125 0.125-0.0012 0.0013-0.12389 0.1236-0.125 0.125-0.0011 0.0014-0.09276 0.15476-0.09375 0.15625-0.000987 0.0015-0.09289 0.15468-0.09375 0.15625-0.000857 0.0016-0.09303 0.15462-0.09375 0.15625-0.000721 0.0016-0.06192 0.15456-0.0625 0.15625-0.00058 0.0017-0.03082 0.15452-0.03125 0.15625-0.01076-0.0412-0.03099-0.09291-0.03125-0.09375-0.000604-0.0019-0.06171-0.18564-0.0625-0.1875-0.000787-0.0019-0.09279-0.15447-0.09375-0.15625-0.000963-0.0018-0.09262-0.18582-0.09375-0.1875-0.0011-0.0017-0.12371-0.15469-0.125-0.15625-0.0013-0.0016-0.12357-0.15482-0.125-0.15625-0.0014-0.0014-0.15469-0.12371-0.15625-0.125-0.0016-0.0013-0.15457-0.12387-0.15625-0.125-0.0017-0.0011-0.18572-0.09279-0.1875-0.09375-0.0018-0.000963-0.15439-0.09296-0.15625-0.09375-0.0019-0.000787-0.18557-0.0619-0.1875-0.0625-0.0019-0.000604-0.21677-0.062084-0.21875-0.0625-0.002-0.0004157-0.18549-0.031027-0.1875-0.03125-0.002-0.0002233-0.21673 0.0000289-0.21875 0h-1.9062c-0.001 0.0002-0.093-0.0309-0.094-0.031-0.0011-0.0000542-0.12393 0-0.125 0-0.0011 0-0.09269-0.0000542-0.09375 0-0.0011 0.0000542-0.09269 0.031142-0.09375 0.03125a1.0152 1.0152 0 0 0 -0.125 0c-0.002 0.0005-0.186 0.0621-0.188 0.0626-0.0017 0.000534-0.1546 0.06182-0.15625 0.0625-0.0017 0.000677-0.15466 0.06169-0.15625 0.0625-0.0016 0.000815-0.15474 0.0928-0.15625 0.09375-0.0015 0.000947-0.15482 0.09268-0.15625 0.09375-0.0014 0.0011-0.12367 0.12381-0.125 0.125-0.0013 0.0012-0.12378 0.1237-0.125 0.125-0.0012 0.0013-0.12389 0.1236-0.125 0.125-0.0011 0.0014-0.09276 0.15476-0.09375 0.15625-0.000987 0.0015-0.09289 0.15468-0.09375 0.15625-0.000857 0.0016-0.09303 0.15462-0.09375 0.15625-0.000721 0.0016-0.06192 0.15456-0.0625 0.15625-0.00058 0.0017-0.03082 0.15452-0.03125 0.15625-0.01076-0.0412-0.03099-0.09291-0.03125-0.09375-0.000604-0.0019-0.06171-0.18564-0.0625-0.1875-0.000787-0.0019-0.09279-0.15447-0.09375-0.15625-0.000963-0.0018-0.09262-0.18582-0.09375-0.1875-0.0011-0.0017-0.12371-0.15469-0.125-0.15625-0.0013-0.0016-0.12357-0.15482-0.125-0.15625-0.0014-0.0014-0.15469-0.12371-0.15625-0.125-0.0016-0.0013-0.15457-0.12387-0.15625-0.125-0.0017-0.0011-0.18572-0.09279-0.1875-0.09375-0.0018-0.000963-0.15439-0.09296-0.15625-0.09375-0.0019-0.000787-0.18557-0.0619-0.1875-0.0625-0.0019-0.000604-0.21677-0.062084-0.21875-0.0625-0.002-0.0004157-0.18549-0.031027-0.1875-0.03125-0.002-0.0002233-0.21673 0.0000289-0.21875 0h-1.9062c-0.001 0.0002-0.093-0.0309-0.094-0.031-0.0011-0.0000542-0.12393 0-0.125 0-0.0011 0-0.09269-0.0000542-0.09375 0-0.0011 0.0000542-0.09269 0.031142-0.09375 0.03125a1.0152 1.0152 0 0 0 -0.125 0c-0.002 0.0005-0.186 0.0621-0.188 0.0626-0.0017 0.000534-0.1546 0.06182-0.15625 0.0625-0.0017 0.000677-0.15466 0.06169-0.15625 0.0625-0.0016 0.000815-0.15474 0.0928-0.15625 0.09375-0.0015 0.000947-0.15482 0.09268-0.15625 0.09375-0.0014 0.0011-0.12367 0.12381-0.125 0.125-0.0013 0.0012-0.12378 0.1237-0.125 0.125-0.0012 0.0013-0.12389 0.1236-0.125 0.125-0.0011 0.0014-0.09276 0.15476-0.09375 0.15625-0.000987 0.0015-0.09289 0.15468-0.09375 0.15625-0.000857 0.0016-0.09303 0.15462-0.09375 0.15625-0.000721 0.0016-0.06192 0.15456-0.0625 0.15625-0.00058 0.0017-0.03082 0.15452-0.03125 0.15625-0.01076-0.0412-0.03099-0.09291-0.03125-0.09375-0.000604-0.0019-0.06171-0.18564-0.0625-0.1875-0.000787-0.0019-0.09279-0.15447-0.09375-0.15625-0.000963-0.0018-0.09262-0.18582-0.09375-0.1875-0.0011-0.0017-0.12371-0.15469-0.125-0.15625-0.0013-0.0016-0.12357-0.15482-0.125-0.15625-0.0014-0.0014-0.15469-0.12371-0.15625-0.125-0.0016-0.0013-0.15457-0.12387-0.15625-0.125-0.0017-0.0011-0.18572-0.09279-0.1875-0.09375-0.0018-0.000963-0.15439-0.09296-0.15625-0.09375-0.0019-0.000787-0.18557-0.0619-0.1875-0.0625-0.0019-0.000604-0.21677-0.062084-0.21875-0.0625-0.002-0.0004157-0.18549-0.031027-0.1875-0.03125-0.002-0.0002233-0.21673 0.0000289-0.21875 0h-1.9062c-0.001 0.0002-0.093-0.0309-0.094-0.031-0.0011-0.0000542-0.12393 0-0.125 0-0.0011 0-0.09268-0.0000542-0.09375 0-0.0011 0.0000542-0.09269 0.031142-0.09375 0.03125a1.0152 1.0152 0 0 0 -0.125 0c-0.002 0.0005-0.186 0.0621-0.188 0.0626-0.0017 0.000534-0.1546 0.06182-0.15625 0.0625-0.0017 0.000677-0.15466 0.06169-0.15625 0.0625-0.0016 0.000815-0.15474 0.0928-0.15625 0.09375-0.0015 0.000947-0.15482 0.09268-0.15625 0.09375-0.0014 0.0011-0.12367 0.12381-0.125 0.125-0.0013 0.0012-0.12378 0.1237-0.125 0.125-0.0012 0.0013-0.12389 0.1236-0.125 0.125-0.0011 0.0014-0.09276 0.15476-0.09375 0.15625-0.000987 0.0015-0.09289 0.15468-0.09375 0.15625-0.000857 0.0016-0.09303 0.15462-0.09375 0.15625-0.000721 0.0016-0.06192 0.15456-0.0625 0.15625-0.00058 0.0017-0.03082 0.15452-0.03125 0.15625-0.01076-0.0412-0.03099-0.09291-0.03125-0.09375-0.000604-0.0019-0.06171-0.18564-0.0625-0.1875-0.000787-0.0019-0.09279-0.15447-0.09375-0.15625-0.000963-0.0018-0.09262-0.18582-0.09375-0.1875-0.0011-0.0017-0.12371-0.15469-0.125-0.15625-0.0013-0.0016-0.12357-0.15482-0.125-0.15625-0.0014-0.0014-0.15469-0.12371-0.15625-0.125-0.0016-0.0013-0.15457-0.12387-0.15625-0.125-0.0017-0.0011-0.18572-0.09279-0.1875-0.09375-0.0018-0.000963-0.15439-0.09296-0.15625-0.09375-0.0019-0.000787-0.18557-0.0619-0.1875-0.0625-0.0019-0.000604-0.21677-0.062084-0.21875-0.0625-0.002-0.0004157-0.18549-0.031027-0.1875-0.03125-0.002-0.0002233-0.21673 0.0000289-0.21875 0h-1.9062c-0.001 0.0002-0.093-0.0309-0.094-0.031-0.0011-0.0000542-0.12393 0-0.125 0-0.0011 0-0.09268-0.0000542-0.09375 0-0.0011 0.0000542-0.09269 0.031142-0.09375 0.03125a1.0152 1.0152 0 0 0 -0.125 0c-0.002 0.0005-0.186 0.0621-0.188 0.0626-0.0017 0.000534-0.1546 0.06182-0.15625 0.0625-0.0017 0.000677-0.15466 0.06169-0.15625 0.0625-0.0016 0.000815-0.15474 0.0928-0.15625 0.09375-0.0015 0.000947-0.15482 0.09268-0.15625 0.09375-0.0014 0.0011-0.12367 0.12381-0.125 0.125-0.0013 0.0012-0.12378 0.1237-0.125 0.125-0.0012 0.0013-0.12389 0.1236-0.125 0.125-0.0011 0.0014-0.09276 0.15476-0.09375 0.15625-0.000987 0.0015-0.09289 0.15468-0.09375 0.15625-0.000857 0.0016-0.09303 0.15462-0.09375 0.15625-0.000721 0.0016-0.06192 0.15456-0.0625 0.15625-0.00058 0.0017-0.03082 0.15452-0.03125 0.15625-0.01076-0.0412-0.03099-0.09291-0.03125-0.09375-0.000604-0.0019-0.06171-0.18564-0.0625-0.1875-0.000787-0.0019-0.09279-0.15447-0.09375-0.15625-0.000963-0.0018-0.09262-0.18582-0.09375-0.1875-0.0011-0.0017-0.12371-0.15469-0.125-0.15625-0.0013-0.0016-0.12357-0.15482-0.125-0.15625-0.0014-0.0014-0.15469-0.12371-0.15625-0.125-0.0016-0.0013-0.15457-0.12387-0.15625-0.125-0.0017-0.0011-0.18572-0.09279-0.1875-0.09375-0.0018-0.000963-0.15439-0.09296-0.15625-0.09375-0.0019-0.000787-0.18557-0.0619-0.1875-0.0625-0.0019-0.000604-0.21677-0.062084-0.21875-0.0625-0.002-0.0004157-0.18549-0.031027-0.1875-0.03125-0.002-0.0002233-0.21673 0.0000289-0.21875 0h-1.9062c-0.001 0.0002-0.093-0.0309-0.094-0.031-0.0011-0.0000542-0.12393 0-0.125 0-0.0011 0-0.09268-0.0000542-0.09375 0zm59.875 28.594c-0.0011 0.000054-0.09269 0.03114-0.09375 0.03125a1.0152 1.0152 0 0 0 -0.09375 0l-3.687 0.719a1.0152 1.0152 0 0 0 -0.03125 0c-0.0017 0.000388-0.1858 0.06197-0.1875 0.0625-0.0017 0.000534-0.1546 0.06182-0.15625 0.0625-0.0017 0.000677-0.15466 0.06168-0.15625 0.0625-0.0016 0.000815-0.15474 0.0928-0.15625 0.09375-0.0015 0.000947-0.15482 0.09268-0.15625 0.09375-0.0014 0.0011-0.12367 0.12381-0.125 0.125-0.0013 0.0012-0.12378 0.1237-0.125 0.125-0.0012 0.0013-0.12389 0.1236-0.125 0.125-0.0011 0.0014-0.09276 0.15476-0.09375 0.15625-0.000987 0.0015-0.09289 0.15468-0.09375 0.15625-0.000857 0.0016-0.09303 0.15462-0.09375 0.15625-0.000721 0.0016-0.06192 0.15456-0.0625 0.15625-0.00058 0.0017-0.03082 0.15452-0.03125 0.15625-0.000434 0.0017-0.06221 0.18574-0.0625 0.1875-0.000286 0.0018 0.000135 0.18572 0 0.1875-0.000135 0.0018-0.000017 0.15446 0 0.15625v1.9062c-0.000004 0.0012-0.00006 0.12384 0 0.125 0.00006 0.0012-0.000123 0.0926 0 0.09375 0.000123 0.0012-0.000186 0.12386 0 0.125 0.000186 0.0011 0.031 0.12387 0.03125 0.125 0.000249 0.0011 0.03094 0.09264 0.03125 0.09375 0.000311 0.0011 0.03088 0.1239 0.03125 0.125 0.000372 0.0011 0.03082 0.09268 0.03125 0.09375 0.000431 0.0011 0.06201 0.0927 0.0625 0.09375 0.00049 0.001 0.0307 0.12398 0.03125 0.125 0.000547 0.001 0.0619 0.09276 0.0625 0.09375 0.000602 0.000987 0.06184 0.0928 0.0625 0.09375 0.000656 0.000953 0.06179 0.09284 0.0625 0.09375 0.000707 0.000915 0.09299 0.09287 0.09375 0.09375 0.000757 0.000875 0.0617 0.09292 0.0625 0.09375 0.000804 0.000832 0.0929 0.06171 0.09375 0.0625 0.000848 0.000786 0.09286 0.09301 0.09375 0.09375 0.00089 0.000738 0.09282 0.06181 0.09375 0.0625 0.00093 0.000688 0.09278 0.06186 0.09375 0.0625 0.000966 0.000636 0.09275 0.06192 0.09375 0.0625 0.001 0.000582 0.09272 0.06197 0.09375 0.0625 0.001 0.000526 0.09269 0.03078 0.09375 0.03125 0.0011 0.000468 0.12392 0.06209 0.125 0.0625 0.0011 0.000409 0.09265 0.0309 0.09375 0.03125 0.0011 0.000349 0.12388 0.03096 0.125 0.03125 0.0011 0.000288 0.09262 0.03102 0.09375 0.03125 0.0011 0.000225 0.12386-0.000163 0.125 0 0.0011 0.000163 0.12385 0.03115 0.125 0.03125 0.0012 0.000099 0.09259-0.000036 0.09375 0 0.0012 0.000036 0.12384 0.000028 0.125 0 0.0012-0.000028 0.12385 0.000092 0.125 0 0.0012-0.000092 0.0926-0.0311 0.09375-0.03125 0.0011-0.000155 0.12386 0.000218 0.125 0a1.0152 1.0152 0 0 0 0.03125 0l1.2188-0.25v7.1562h-1.3438c-0.002 0.000029-0.21674-0.000223-0.21875 0-0.002 0.000223-0.18552 0.03083-0.1875 0.03125-0.002 0.000416-0.21682 0.0619-0.21875 0.0625-0.0019 0.000604-0.18564 0.06171-0.1875 0.0625-0.0019 0.000787-0.15447 0.09279-0.15625 0.09375-0.0018 0.000963-0.18582 0.09262-0.1875 0.09375-0.0017 0.0011-0.15469 0.12371-0.15625 0.125-0.0016 0.0013-0.15482 0.12357-0.15625 0.125-0.0014 0.0014-0.12371 0.15469-0.125 0.15625-0.0013 0.0016-0.12387 0.15457-0.125 0.15625-0.0011 0.0017-0.09279 0.18572-0.09375 0.1875-0.000963 0.0018-0.09296 0.15439-0.09375 0.15625-0.000787 0.0019-0.0619 0.18557-0.0625 0.1875-0.000604 0.0019-0.06208 0.21677-0.0625 0.21875-0.000416 0.002-0.03103 0.18549-0.03125 0.1875-0.000223 0.002 0.000029 0.21673 0 0.21875v1.75c0.000029 0.002-0.000223 0.21674 0 0.21875 0.000223 0.002 0.03083 0.18552 0.03125 0.1875 0.000416 0.002 0.0619 0.21682 0.0625 0.21875 0.000604 0.0019 0.06171 0.18564 0.0625 0.1875 0.000787 0.0019 0.09279 0.15447 0.09375 0.15625 0.000963 0.0018 0.09262 0.18582 0.09375 0.1875 0.0011 0.0017 0.12371 0.15469 0.125 0.15625 0.0013 0.0016 0.12357 0.15482 0.125 0.15625 0.0014 0.0014 0.15469 0.12371 0.15625 0.125 0.0016 0.0013 0.15457 0.12387 0.15625 0.125 0.0017 0.0011 0.18572 0.09279 0.1875 0.09375 0.0018 0.000963 0.15439 0.09296 0.15625 0.09375 0.0019 0.000787 0.18557 0.0619 0.1875 0.0625 0.0019 0.000604 0.21677 0.06208 0.21875 0.0625 0.002 0.000416 0.18549 0.03103 0.1875 0.03125 0.002 0.000223 0.21673-0.000029 0.21875 0h8.875c0.002-0.000029 0.21674 0.000223 0.21875 0 0.002-0.000223 0.18552-0.03083 0.1875-0.03125 0.002-0.000416 0.21682-0.0619 0.21875-0.0625 0.0019-0.000604 0.18564-0.06171 0.1875-0.0625 0.0019-0.000787 0.15447-0.09279 0.15625-0.09375 0.0018-0.000963 0.18582-0.09262 0.1875-0.09375 0.0017-0.0011 0.15469-0.12371 0.15625-0.125 0.0016-0.0013 0.15482-0.12357 0.15625-0.125 0.0014-0.0014 0.12371-0.15469 0.125-0.15625 0.0013-0.0016 0.12387-0.15457 0.125-0.15625 0.0011-0.0017 0.09279-0.18572 0.09375-0.1875 0.000963-0.0018 0.09296-0.15439 0.09375-0.15625 0.000787-0.0019 0.0619-0.18557 0.0625-0.1875 0.000604-0.0019 0.06208-0.21677 0.0625-0.21875 0.000416-0.002 0.03103-0.18549 0.03125-0.1875 0.000223-0.002-0.000029-0.21673 0-0.21875v-1.75c-0.000029-0.002 0.000223-0.21674 0-0.21875-0.000223-0.002-0.03083-0.18552-0.03125-0.1875-0.000416-0.002-0.0619-0.21682-0.0625-0.21875-0.000604-0.0019-0.06171-0.18564-0.0625-0.1875-0.000787-0.0019-0.09279-0.15447-0.09375-0.15625-0.000963-0.0018-0.09262-0.18582-0.09375-0.1875-0.0011-0.0017-0.12371-0.15469-0.125-0.15625-0.0013-0.0016-0.12357-0.15482-0.125-0.15625-0.0014-0.0014-0.15469-0.12371-0.15625-0.125-0.0016-0.0013-0.15457-0.12387-0.15625-0.125-0.0017-0.0011-0.18572-0.09279-0.1875-0.09375-0.0018-0.000963-0.15439-0.09296-0.15625-0.09375-0.0019-0.000787-0.18557-0.0619-0.1875-0.0625-0.0019-0.000604-0.21677-0.06208-0.21875-0.0625-0.002-0.000416-0.18549-0.03103-0.1875-0.03125-0.002-0.000223-0.21673 0.000029-0.21875 0h-1.3438v-11.594c-0.000029-0.002 0.000223-0.21674 0-0.21875 0-0.001-0.031-0.185-0.031-0.186-0.000416-0.002-0.0619-0.21682-0.0625-0.21875-0.000604-0.0019-0.06171-0.18564-0.0625-0.1875-0.000787-0.0019-0.09279-0.15447-0.09375-0.15625-0.000963-0.0018-0.09262-0.18582-0.09375-0.1875-0.0011-0.0017-0.12371-0.15469-0.125-0.15625-0.001-0.002-0.123-0.156-0.124-0.157-0.002-0.001-0.155-0.124-0.157-0.125-0.001-0.001-0.154-0.124-0.156-0.125-0.0017-0.0011-0.18572-0.09279-0.1875-0.09375-0.0018-0.000963-0.15439-0.09296-0.15625-0.09375-0.0019-0.000787-0.18557-0.0619-0.1875-0.0625-0.0019-0.000604-0.21677-0.06208-0.21875-0.0625-0.002-0.000416-0.18549-0.03103-0.1875-0.03125-0.002-0.000223-0.21673 0.000029-0.21875 0h-2c-0.001 0-0.093-0.031-0.094-0.031-0.0011-0.000054-0.12393 0-0.125 0-0.0011 0-0.09269-0.000054-0.09375 0zm-58.938 5.2188c0.25392 0.000003 0.26569 0.0516 0.28125 0.0625s0.11317 0.10566 0.28125 0.4375c0.27719 0.53685 0.62499 1.8544 0.625 3.7812-0.000009 1.9188-0.35231 3.2809-0.625 3.8125-0.165 0.325-0.273 0.432-0.28 0.437-0.007 0.0048-0.0084 0.03125-0.28125 0.03125-0.27574 0-0.25675-0.03593-0.25-0.03125 0.0067 0.0047-0.10275-0.09179-0.28125-0.4375-0.27647-0.54585-0.625-1.8968-0.625-3.8125-0.000003-1.9237 0.34411-3.2303 0.625-3.7812 0.18037-0.3516 0.27877-0.46697 0.28125-0.46875 0.0025-0.0018-0.0067-0.03125 0.25-0.03125z" fill="#fff" color="#000000" opacity="0.05"/>
   <path d="m15.781 10.938a1.078 1.078 0 0 0 -0.843 1.062v24a1.078 1.078 0 0 0 1.062 1.062h2a1.078 1.078 0 0 0 1.062 -1.062v-24a1.078 1.078 0 0 0 -1.062 -1.062h-2a1.078 1.078 0 0 0 -0.21875 0zm6 0a1.078 1.078 0 0 0 -0.843 1.062v12a1.078 1.078 0 0 0 1.062 1.062h2a1.078 1.078 0 0 0 1.062 -1.062v-12a1.078 1.078 0 0 0 -1.062 -1.062h-2a1.078 1.078 0 0 0 -0.21875 0zm6 0a1.078 1.078 0 0 0 -0.843 1.062v12a1.078 1.078 0 0 0 1.062 1.062h2a1.078 1.078 0 0 0 1.062 -1.062v-12a1.078 1.078 0 0 0 -1.062 -1.062h-2a1.078 1.078 0 0 0 -0.21875 0zm6 0a1.078 1.078 0 0 0 -0.843 1.062v12a1.078 1.078 0 0 0 1.062 1.062h2a1.078 1.078 0 0 0 1.062 -1.062v-12a1.078 1.078 0 0 0 -1.062 -1.062h-2a1.078 1.078 0 0 0 -0.21875 0zm6 0a1.078 1.078 0 0 0 -0.843 1.062v12a1.078 1.078 0 0 0 1.062 1.062h2a1.078 1.078 0 0 0 1.062 -1.062v-12a1.078 1.078 0 0 0 -1.062 -1.062h-2a1.078 1.078 0 0 0 -0.21875 0zm6 0a1.078 1.078 0 0 0 -0.843 1.062v18a1.078 1.078 0 0 0 1.062 1.062h2a1.078 1.078 0 0 0 1.062 -1.062v-18a1.078 1.078 0 0 0 -1.062 -1.062h-2a1.078 1.078 0 0 0 -0.21875 0zm6 0a1.078 1.078 0 0 0 -0.843 1.062v12a1.078 1.078 0 0 0 1.062 1.062h2a1.078 1.078 0 0 0 1.062 -1.062v-12a1.078 1.078 0 0 0 -1.062 -1.062h-2a1.078 1.078 0 0 0 -0.21875 0zm6 0a1.078 1.078 0 0 0 -0.843 1.062v12a1.078 1.078 0 0 0 1.062 1.062h2a1.078 1.078 0 0 0 1.062 -1.062v-12a1.078 1.078 0 0 0 -1.062 -1.062h-2a1.078 1.078 0 0 0 -0.21875 0zm6 0a1.078 1.078 0 0 0 -0.843 1.062v12a1.078 1.078 0 0 0 1.062 1.062h2a1.078 1.078 0 0 0 1.062 -1.062v-12a1.078 1.078 0 0 0 -1.062 -1.062h-2a1.078 1.078 0 0 0 -0.21875 0zm6 0a1.078 1.078 0 0 0 -0.843 1.062v12a1.078 1.078 0 0 0 1.062 1.062h2a1.078 1.078 0 0 0 1.062 -1.062v-12a1.078 1.078 0 0 0 -1.062 -1.062h-2a1.078 1.078 0 0 0 -0.21875 0zm6 0a1.078 1.078 0 0 0 -0.843 1.062v24a1.078 1.078 0 0 0 1.062 1.062h2a1.078 1.078 0 0 0 1.062 -1.062v-24a1.078 1.078 0 0 0 -1.062 -1.062h-2a1.078 1.078 0 0 0 -0.21875 0zm6 0a1.078 1.078 0 0 0 -0.843 1.062v12a1.078 1.078 0 0 0 1.062 1.062h2a1.078 1.078 0 0 0 1.062 -1.062v-12a1.078 1.078 0 0 0 -1.062 -1.062h-2a1.078 1.078 0 0 0 -0.21875 0zm-65.062 28c-2.0162 0.000019-3.7855 0.90118-4.875 2.5312-1.0869 1.6304-1.5 3.8083-1.5 6.5312-0.000001 2.7164 0.41118 4.921 1.5 6.5625 1.0932 1.6275 2.8689 2.5 4.875 2.5s3.7867-0.86751 4.875-2.5c1.0929-1.6353 1.5312-3.8393 1.5312-6.5625-0.000013-2.7297-0.44027-4.907-1.5312-6.5312-1.0846-1.635-2.8588-2.5312-4.875-2.5312zm58.938 0.59375-3.6875 0.71875a1.078 1.078 0 0 0 -0.845 1.061v1.9062a1.078 1.078 0 0 0 1.2812 1.0625l2.4375-0.5v9.4062h-2.3438a1.078 1.078 0 0 0 -1.062 1.064v1.75a1.078 1.078 0 0 0 1.062 1.062h8.875a1.078 1.078 0 0 0 1.063 -1.062v-1.75a1.078 1.078 0 0 0 -1.063 -1.062h-2.3438v-12.594a1.078 1.078 0 0 0 -1.0625 -1.0625h-2.0938a1.078 1.078 0 0 0 -0.21875 0zm-58.938 3.1875c0.72666 0.000009 1.0654 0.23498 1.4688 1.0312 0.40936 0.79284 0.71874 2.22 0.71875 4.25-0.00001 2.0228-0.31083 3.486-0.71875 4.2812-0.39949 0.7836-0.7259 1-1.4688 1-0.73382 0.000001-1.0233-0.19772-1.4375-1-0.407-0.802-0.72-2.262-0.72-4.282-0.000003-2.0276 0.3114-3.451 0.71875-4.25 0.41804-0.81491 0.71998-1.0312 1.4375-1.0312z" fill="#fff" color="#000000" opacity="0.2"/>
   <path d="m16 12v24h2v-24h-2zm6 0v12h2v-12h-2zm6 0v12h2v-12h-2zm6 0v12h2v-12h-2zm6 0v12h2v-12h-2zm6 0v18h2v-18h-2zm6 0v12h2v-12h-2zm6 0v12h2v-12h-2zm6 0v12h2v-12h-2zm6 0v12h2v-12h-2zm6 0v24h2v-24h-2zm6 0v12h2v-12h-2z" fill="url(#linearGradient3862)" color="#000000"/>
   <path d="m16.73 41.653c-1.0742 0.000014-1.8834 0.53025-2.4274 1.5907-0.53712 1.0536-0.80568 2.6409-0.80568 4.7618-0.000003 2.1141 0.26856 3.7013 0.80568 4.7618 0.544 1.0536 1.3531 1.5804 2.4274 1.5804 1.0811 0.000001 1.8902-0.52679 2.4274-1.5804 0.544-1.0605 0.816-2.6477 0.81601-4.7618-0.00001-2.1209-0.27201-3.7082-0.81601-4.7618-0.53713-1.0605-1.3463-1.5907-2.4274-1.5907m0-1.6527c1.7284 0.000016 3.0471 0.68519 3.9561 2.0555 0.91585 1.3635 1.3738 3.3467 1.3738 5.9496-0.000012 2.5961-0.45794 4.5793-1.3738 5.9496-0.909 1.363-2.228 2.045-3.956 2.045-1.729 0-3.051-0.682-3.967-2.045-0.909-1.371-1.363-3.354-1.363-5.95-0.000001-2.603 0.45448-4.5862 1.3635-5.9496 0.91586-1.3703 2.238-2.0555 3.9664-2.0555" fill="#665400"/>
   <path d="m72.5 54.244h3.4086v-11.765l-3.7082 0.74371v-1.9006l3.6875-0.74371h2.0865v13.666h3.4087v1.756h-8.8832v-1.756" fill="#665400"/>
  </g>
  <rect x="-96" rx="25" y="958.36" clip-path="url(#clipPath3009)" fill="#fff" height="92" opacity="0.15" width="92" transform="matrix(1 0 0 1 98 0)"/>
 </g>
</svg>
