<svg height="96" width="96" xmlns="http://www.w3.org/2000/svg" xmlns:xlink="http://www.w3.org/1999/xlink" xmlns:sodipodi="http://sodipodi.sourceforge.net/DTD/sodipodi-0.dtd" xmlns:inkscape="http://www.inkscape.org/namespaces/inkscape">
 <defs>
  <clipPath clipPathUnits="userSpaceOnUse" id="clipPath3009">
   <path d="m-2 956.36h-96v33.562l96 25.687v-59.25z"/>
  </clipPath>
  <radialGradient cy="-15.871" r="35.938" gradientUnits="userSpaceOnUse" id="radialGradient3503" cx="56.07" gradientTransform="matrix(-0.00302 -1.6491 1.8491 0 77.52 1127.7)">
   <stop stop-color="#1863c6"/>
   <stop stop-color="#799ee1" offset="1"/>
  </radialGradient>
  <clipPath clipPathUnits="userSpaceOnUse" id="clipPath3187">
   <rect x="2" rx="25" y="958.36" height="92" width="92"/>
  </clipPath>
  <linearGradient id="linearGradient5561">
   <stop stop-color="#edd400"/>
   <stop stop-color="#edd400" offset="1"/>
  </linearGradient>
  <linearGradient x2="0" xlink:href="#linearGradient5561" y1="11.07" y2="14.625" gradientUnits="userSpaceOnUse" id="linearGradient3270" gradientTransform="matrix(2.5869 0 0 2.6994 -9.04 2.09)"/>
  <linearGradient x2="0" xlink:href="#linearGradient5561" y1="11.07" y2="14.625" gradientUnits="userSpaceOnUse" id="linearGradient3272" gradientTransform="matrix(2.5869 0 0 2.6994 2.766 7.995)"/>
  <linearGradient x1="24.486" x2="26" y1="15.859" y2="20.411" gradientUnits="userSpaceOnUse" id="linearGradient3274" gradientTransform="matrix(4.0449 0 0 4.0449 -40.829 -19.12)">
   <stop stop-color="#fff"/>
   <stop stop-color="#fff" stop-opacity="0" offset="1"/>
  </linearGradient>
  <path d="m20.241 11.671c0 0.29289-0.21765 0.53033-0.48614 0.53033-0.26848 0-0.48614-0.23744-0.48614-0.53033s0.21765-0.53033 0.48614-0.53033 0.48614 0.23744 0.48614 0.53033z" color="#000000" fill-rule="evenodd" id="SVGCleanerId_0"/>
  <path d="m28.698 19.145c0 1.4112-1.1088 2.5553-2.4767 2.5553-1.3678 0-2.4767-1.144-2.4767-2.5553 0-1.4112 1.1088-2.5553 2.4767-2.5553 1.3678 0 2.4767 1.144 2.4767 2.5553z" color="#000000" fill-rule="evenodd" id="SVGCleanerId_1"/>
  <path d="m46.375 54.719c0 0.39696-0.3218 0.71875-0.71875 0.71875-0.39696 0-0.71875-0.3218-0.71875-0.71875 0-0.39696 0.3218-0.71875 0.71875-0.71875 0.39696 0 0.71875 0.3218 0.71875 0.71875z" color="#000000" fill-rule="evenodd" id="SVGCleanerId_2"/>
 </defs>
 <g transform="matrix(1 0 0 1 0 -956.36)">
  <path d="m96 1052.4v-96h-96v96h96z" clip-path="url(#clipPath3187)" fill="url(#radialGradient3503)"/>
  <g enable-background="new" transform="matrix(1 0 0 1 0 956.36)">
   <path d="m26.386 28.873 13.258 1.6871 0.32336 14.509-13.258 0.33742-0.32336-16.534z" fill-opacity="0.263" fill-rule="evenodd"/>
   <path d="m24.91 27.396 13.258 1.6871 0.32336 14.509-13.258 0.33742-0.32336-16.534z" stroke-width="1.181" fill="url(#linearGradient3270)" fill-rule="evenodd" stroke="#c4a000"/>
   <use xlink:href="#SVGCleanerId_0" fill="#c00" transform="matrix(5.2652 0 0 5.2652 -72.27 -31.28)"/>
   <use xlink:href="#SVGCleanerId_0" fill="#ef2929" transform="matrix(3.9879 0 0 3.5089 -46.883 -11.322)"/>
   <path d="m38.196 34.778 13.258 1.687 0.323 14.509-13.258 0.337-0.323-16.533z" fill-opacity="0.263" fill-rule="evenodd"/>
   <path d="m36.719 33.301 13.258 1.688 0.324 14.509-13.258 0.337-0.324-16.534z" stroke-width="1.181" fill="url(#linearGradient3272)" fill-rule="evenodd" stroke="#c4a000"/>
   <use xlink:href="#SVGCleanerId_0" fill="#c00" transform="matrix(4.9498 0 0 4.9498 -54.23 -21.691)"/>
   <use xlink:href="#SVGCleanerId_0" fill="#ef2929" transform="matrix(3.749 0 0 3.2987 -30.51 -3.102)"/>
  </g>
  <g enable-background="new" transform="matrix(1 0 0 1 0 956.36)">
   <use xlink:href="#SVGCleanerId_1" fill-opacity="0.242" transform="matrix(3.9428 0 0 4.1238 -36.38 -18.918)"/>
   <use stroke-width="0.401" xlink:href="#SVGCleanerId_1" fill="#d3d7cf" stroke="#888a85" transform="matrix(3.9428 0 0 4.1238 -37.899 -20.435)"/>
   <path d="m65.147 52.874v6.9611l6.5729-0.8938" stroke-width="1.618" fill="none" stroke="#555753" stroke-linecap="round"/>
   <path d="m65.147 49.006c-4.9282 0-8.8987 3.9345-8.8987 8.8303 0 1.3988 0.34317 2.7594 0.92454 3.9364 3.4117-4.8948 8.9279-8.2532 15.255-9.043-1.62-2.2488-4.2869-3.7236-7.2808-3.7236z" fill="url(#linearGradient3274)" color="#000000" fill-rule="evenodd" opacity="0.528"/>
  </g>
  <g enable-background="new" transform="matrix(1 0 0 1 0 956.36)">
   <use xlink:href="#SVGCleanerId_2" fill-opacity="0.256" transform="matrix(2.6817 0 0 2.7682 -90.16 -84.67)"/>
   <use stroke-width="0.354" xlink:href="#SVGCleanerId_2" fill="#888a85" stroke="#555753" transform="matrix(2.6817 0 0 2.7682 -90.64 -85.66)"/>
   <use xlink:href="#SVGCleanerId_2" fill-opacity="0.256" transform="matrix(2.6817 0 0 2.7682 -84.32 -84.67)"/>
   <use stroke-width="0.354" xlink:href="#SVGCleanerId_2" fill="#888a85" stroke="#555753" transform="matrix(2.6817 0 0 2.7682 -84.77 -85.66)"/>
   <use xlink:href="#SVGCleanerId_2" fill-opacity="0.256" transform="matrix(2.6817 0 0 2.7682 -78.47 -84.67)"/>
   <use stroke-width="0.354" xlink:href="#SVGCleanerId_2" fill="#888a85" stroke="#555753" transform="matrix(2.6817 0 0 2.7682 -78.919 -85.66)"/>
   <use xlink:href="#SVGCleanerId_2" fill-opacity="0.256" transform="matrix(2.6817 0 0 2.7682 -72.38 -84.67)"/>
   <use stroke-width="0.354" xlink:href="#SVGCleanerId_2" fill="#888a85" stroke="#555753" transform="matrix(2.6817 0 0 2.7682 -72.833 -85.66)"/>
   <path d="m21.017 64.744 7.2459-0.14817-0.1396 5.3463-7.2665 0.07217z" fill-opacity="0.249" color="#000000" fill-rule="evenodd"/>
   <path d="m20.448 63.126 6.4302-0.03185-0.13933 5.3463-6.4511 0.07243z" stroke-width="1.291" fill="#73d216" color="#000000" fill-rule="evenodd" stroke="#4e9a06" stroke-linecap="round"/>
  </g>
  <rect x="-96" rx="25" y="958.36" clip-path="url(#clipPath3009)" fill="#fff" height="92" opacity="0.15" width="92" transform="matrix(1 0 0 1 98 0)"/>
 </g>
</svg>
