<?xml version="1.0" encoding="UTF-8" standalone="no"?>
<!-- Created with Inkscape (http://www.inkscape.org/) -->

<svg
   xmlns:dc="http://purl.org/dc/elements/1.1/"
   xmlns:cc="http://creativecommons.org/ns#"
   xmlns:rdf="http://www.w3.org/1999/02/22-rdf-syntax-ns#"
   xmlns:svg="http://www.w3.org/2000/svg"
   xmlns="http://www.w3.org/2000/svg"
   xmlns:xlink="http://www.w3.org/1999/xlink"
   xmlns:sodipodi="http://sodipodi.sourceforge.net/DTD/sodipodi-0.dtd"
   xmlns:inkscape="http://www.inkscape.org/namespaces/inkscape"
   id="svg11037"
   height="96"
   width="96"
   version="1.1"
   inkscape:version="0.48.5 r10040"
   sodipodi:docname="scribes.svg">
  <sodipodi:namedview
     pagecolor="#ffffff"
     bordercolor="#666666"
     borderopacity="1"
     objecttolerance="10"
     gridtolerance="10"
     guidetolerance="10"
     inkscape:pageopacity="0"
     inkscape:pageshadow="2"
     inkscape:window-width="640"
     inkscape:window-height="480"
     id="namedview58827" />
  <defs
     id="defs11039">
    <linearGradient
       id="linearGradient11642"
       y2="1046.1"
       gradientUnits="userSpaceOnUse"
       y1="962.62"
       gradientTransform="matrix(1.15 0 0 1.15 -7.1999 -150.65)"
       x2="48"
       x1="48">
      <stop
         id="stop3702"
         style="stop-color:#f57900"
         offset="0" />
      <stop
         id="stop3704"
         style="stop-color:#f89d44"
         offset="1" />
    </linearGradient>
    <linearGradient
       id="linearGradient3176"
       y2="30.336"
       xlink:href="#linearGradient3936"
       gradientUnits="userSpaceOnUse"
       x2="142.17"
       gradientTransform="matrix(.98565 .16878 -.16878 .98565 -45.009 -15.895)"
       y1="78.68"
       x1="102.76" />
    <linearGradient
       id="linearGradient3936">
      <stop
         id="stop3938"
         offset="0" />
      <stop
         id="stop3940"
         style="stop-opacity:0"
         offset="1" />
    </linearGradient>
    <radialGradient
       id="radialGradient4043"
       gradientUnits="userSpaceOnUse"
       cy="356.62"
       cx="425.51"
       gradientTransform="matrix(-.018982 -.015227 .20232 -.25221 8.7962 136.46)"
       r="143.34">
      <stop
         id="stop3296"
         style="stop-color:#a1bfe1"
         offset="0" />
      <stop
         id="stop3302"
         style="stop-color:#407dc1"
         offset=".50094" />
      <stop
         id="stop3298"
         style="stop-color:#224367"
         offset="1" />
    </radialGradient>
    <radialGradient
       id="radialGradient4040"
       xlink:href="#linearGradient3202"
       gradientUnits="userSpaceOnUse"
       cy="390.45"
       cx="289.44"
       gradientTransform="matrix(.078083 .062145 -.095254 .11968 71.516 -1.9903)"
       r="17.677" />
    <linearGradient
       id="linearGradient3202">
      <stop
         id="stop3204"
         style="stop-color:#2b2b2b"
         offset="0" />
      <stop
         id="stop3250"
         style="stop-color:#828383"
         offset=".5" />
      <stop
         id="stop3206"
         style="stop-color:#dadbdb"
         offset="1" />
    </linearGradient>
    <radialGradient
       id="radialGradient4037"
       xlink:href="#linearGradient3202"
       gradientUnits="userSpaceOnUse"
       cy="382.15"
       cx="283.51"
       gradientTransform="matrix(.078083 .062145 -.095254 .11968 90.619 -23.62)"
       r="17.677" />
    <radialGradient
       id="radialGradient4034"
       gradientUnits="userSpaceOnUse"
       cy="181.19"
       cx="418.46"
       gradientTransform="matrix(-.012345 -.011245 .31766 -.34874 38.558 90.465)"
       r="63.069">
      <stop
         id="stop3244"
         style="stop-color:#282828"
         offset="0" />
      <stop
         id="stop3252"
         style="stop-color:#969696"
         offset=".39253" />
      <stop
         id="stop3246"
         style="stop-color:#e3e3e3"
         offset="1" />
    </radialGradient>
    <linearGradient
       id="linearGradient3946"
       y2="41.356"
       xlink:href="#linearGradient3936"
       gradientUnits="userSpaceOnUse"
       x2="134.49"
       gradientTransform="matrix(.84816 .52974 -.52974 .84816 -2.1584 -41.321)"
       y1="79.295"
       x1="103.95" />
    <clipPath
       id="clipPath3009"
       clipPathUnits="userSpaceOnUse">
      <path
         id="path3011"
         style="opacity:.15;fill:#fff"
         d="m-2 956.36h-96v33.562l96 25.687v-59.25z" />
    </clipPath>
  </defs>
  <metadata
     id="metadata11042">
    <rdf:RDF>
      <cc:Work
         rdf:about="">
        <dc:format>image/svg+xml</dc:format>
        <dc:type
           rdf:resource="http://purl.org/dc/dcmitype/StillImage" />
        <dc:title />
      </cc:Work>
    </rdf:RDF>
  </metadata>
  <g
     id="layer1"
     transform="translate(0 -956.36)">
    <rect
       id="rect3867"
       style="fill:url(#linearGradient11642)"
       rx="25"
       ry="25"
       height="92"
       width="92"
       y="958.36"
       x="2" />
    <g
       id="g3082"
       transform="translate(1.6635e-8 956.36)">
      <path
         id="path3889"
         d="m47.938 23.031c-13.648 0.115-24.719 11.232-24.719 24.907 0 0.07206-0.000843 0.15463 0 0.25 0.000105 0.01192-0.000174 0.01922 0 0.03125-0.12688 2.9278-1.5825 4.288-3.0938 5.0938-1.5172 0.80889-3.0312 0.90625-3.0312 0.90625a0.90182 0.90182 0 0 0 -0.844 0.906v16.406a0.90182 0.90182 0 0 0 0.90625 0.90625c8.7618 0 14.924-3.5763 18.812-8.125 3.8887-4.5487 5.5625-10.011 5.5625-14.031v-2.3438-0.125-0.03125c0.09208-3.5062 2.9252-6.3102 6.4375-6.4062a0.90182 0.90182 0 0 0 0.46875 -0.15625 0.90182 0.90182 0 0 0 0.5 0.21875c3.2795 0.38775 5.7812 3.1088 5.7812 6.5 0 3.6144-2.8747 6.5249-6.4688 6.5938-0.03125 0.000578-0.03384 0-0.09375 0h-6.5a0.90182 0.90182 0 0 0 -0.906 0.906v16.5a0.90182 0.90182 0 0 0 0.90625 0.90625h6.1875c0.11186 0.0013 0.22248 0 0.3125 0 13.745 0 24.906-11.161 24.906-24.906 0-13.438-10.678-24.392-24-24.875a0.90182 0.90182 0 0 0 -0.562 0.156 0.90182 0.90182 0 0 0 -0.562 -0.188z"
         style="opacity:.3;color:#000000;fill:#ff780b" />
      <path
         id="path3864"
         d="m47.939 23.952c-13.163 0.11087-23.805 10.801-23.805 23.99 0 0.08977-0.0013 0.17847 0 0.26816-0.258 6.52-6.972 6.911-6.972 6.911v16.399c17.04 0 23.475-13.719 23.475-21.247v-2.331-0.16502c0.08612-3.9967 3.3104-7.1931 7.3023-7.3023zm1.0933 0.02063v16.544c3.7203 0.43987 6.6009 3.5852 6.6009 7.426 0 4.0943-3.2682 7.4305-7.3435 7.5086-0.04864 0.000899-0.09555 0-0.1444 0h-6.4772v16.502h6.1884c0.09657 0.0011 0.19195 0 0.28879 0 13.258 0 24.011-10.753 24.011-24.011 0-12.961-10.276-23.504-23.124-23.97z"
         style="color:#000000;fill:#fff" />
      <g
         id="layer6"
         transform="translate(-4,6)">
        <path
           id="path3902-5"
           d="m103.1 26.998s-0.25105 0.20389-0.25781 0.20949c-2.2199-0.04859-8.0462 2.1053-23.243 15.201-0.0172-0.01668-0.13818-0.11878-0.13818-0.11878l-0.59831 0.53165c0.08481 0.07708 0.16193 0.15479 0.24557 0.23228-10.186 8.3603-21.075 18.131-21.944 18.911-0.000799-0.0012-0.02549-0.03603-0.02548-0.03607l-0.0202-0.06687-0.0413 0.05634c-0.000764-0.0014-0.02548-0.03607-0.02548-0.03607l-0.78924 0.72089c0.0081 0.01173 0.01734 0.02434 0.02548 0.03607l-0.03602 0.02554 0.02548 0.03607c0.000042 0.000058 0.04775 0.06716 0.05106 0.07216-9.3181 9.4955-15.122 16.652-14.884 17.489 0.31962 1.1263 18.764-11.737 19.526-12.382 0.03176 0.02607 0.19441 0.16002 0.19452 0.16013l0.03076 0.0053 0.86667-0.80274-0.02548-0.03607c-0.000153-0.00011-0.07489-0.07217-0.08181-0.07742 1.8428-1.4121 11.909-9.174 22.46-18.221 0.17083 0.22573 0.33186 0.46899 0.33186 0.46899l0.59831-0.53164c-0.02268-0.03404-0.05293-0.07361-0.07653-0.10822 0.7902-0.61736 17.456-13.665 19.33-19.01 0.21345-0.15748 0.30053-0.23332 0.51035-0.38819 0 0-0.0316-1.8278-2.0086-2.3414z"
           style="opacity:.25;fill:url(#linearGradient3176)" />
        <path
           id="path4824"
           d="m58.811 64.807c-0.0013-0.000753-1.402-0.77423-3.164-2.1467-1.521-1.183-2.549-2.299-2.55-2.301l-0.02297-0.02504 0.68649-0.87911 0.02956-0.0386 0.03182 0.03709c0.0032 0.0019 1.0167 1.1853 2.5842 2.4063 1.4899 1.1593 3.1244 1.9932 3.1278 1.9949l0.04312 0.02203-0.73639 0.94633-0.02956-0.01638zm-3.1146-2.2099c1.6089 1.2532 2.9126 2.0041 3.1235 2.1229l0.6349-0.81604c-0.268-0.14-1.742-0.926-3.098-1.981-1.4129-1.1005-2.3794-2.1715-2.5633-2.3809l-0.61457 0.78779c0.15986 0.1704 1.1316 1.19 2.5174 2.2672z"
           style="fill:#4d4d4d" />
        <path
           id="path3254"
           d="m58.801 64.465s10.022-10.752 19.832-22.591l0.42849 0.1323s20.344-22.296 15.368-24.101c0 0-2.4881-4.9275-22.003 18.783l-0.03753 0.35581c-9.004 10.384-19.008 23.045-19.008 23.045-7.727 11.108-12.316 19.318-11.936 20.112 0.516 1.078 17.387-15.628 17.357-15.736z"
           style="fill-rule:evenodd;stroke:#13345c;stroke-width:.5;fill:url(#radialGradient4043)" />
        <path
           id="path2430"
           d="m53.052 60.296c2.1906 2.2423 5.7611 4.5192 5.7611 4.5192l0.7072-0.89693c-2.422-1.266-5.795-4.485-5.795-4.485l-0.6727 0.86243z"
           style="fill:url(#radialGradient4040);fill-rule:evenodd" />
        <path
           id="path3236"
           d="m72 36.975c3.8637 2.4666 6.8995 5.4506 6.8995 5.4506l0.51746-0.6037c-2.061-2.18-6.908-5.479-6.908-5.479l-0.50945 0.63229z"
           style="fill:url(#radialGradient4037);fill-rule:evenodd" />
        <path
           id="path3240"
           d="m93.225 17.277c2.0354 0.17248 2.3803 1.9664 2.3803 1.9664-9.2798 9.6593-22.872 23.7-22.872 23.7l-0.68995-0.58646c11.971-14.351 21.182-25.08 21.182-25.08"
           style="fill:url(#radialGradient4034);fill-rule:evenodd" />
        <path
           id="path3944"
           d="m118.64 54.503s-0.30959 0.09354-0.31797 0.09616c-2.0359-0.8863-8.2438-1.1012-27.27 5.2585-0.0096-0.02195-0.08286-0.16229-0.08286-0.16229l-0.75517 0.26523c0.04927 0.10347 0.09119 0.20462 0.13922 0.30802-12.595 3.8761-26.374 8.7909-27.474 9.1839-0.000272-0.0014-0.0099-0.043-0.0099-0.04304l0.0067-0.06954-0.05957 0.03648c-0.000162-0.0016-0.0099-0.04303-0.0099-0.04303l-1.0036 0.36799c0.0031 0.01393 0.0069 0.02909 0.0099 0.04304l-0.04302 0.01002 0.0099 0.04303c0.000016 0.00007 0.01874 0.08025 0.01991 0.08613-12.222 5.2557-20.304 9.6783-20.402 10.543-0.13108 1.1634 21.812-3.7498 22.762-4.0581 0.0195 0.03615 0.11926 0.22176 0.11932 0.2219l0.02646 0.01655 1.1062-0.4144-0.0099-0.04304c-0.000099-0.000161-0.04196-0.09517-0.04636-0.10264 2.2405-0.60838 14.498-3.976 27.69-8.3492 0.07254 0.27363 0.12936 0.55977 0.12936 0.55977l0.75517-0.26523c-0.0081-0.04009-0.02109-0.08818-0.0298-0.12915 0.96523-0.27182 21.332-6.0301 25.092-10.266 0.25721-0.06483 0.36653-0.10202 0.6194-0.16581 0 0 0.66347-1.7034-0.97145-2.928z"
           style="opacity:.4;fill:url(#linearGradient3946)" />
      </g>
    </g>
    <rect
       id="rect3003"
       style="opacity:.15;fill:#fff"
       transform="translate(98 3.8281e-7)"
       clip-path="url(#clipPath3009)"
       rx="25"
       ry="25"
       height="92"
       width="92"
       y="958.36"
       x="-96" />
  </g>
</svg>
