<svg height="96" width="96" xmlns="http://www.w3.org/2000/svg" xmlns:xlink="http://www.w3.org/1999/xlink" xmlns:sodipodi="http://sodipodi.sourceforge.net/DTD/sodipodi-0.dtd" xmlns:inkscape="http://www.inkscape.org/namespaces/inkscape">
 <defs>
  <linearGradient x2="0" y1="962.62" y2="1046.1" gradientUnits="userSpaceOnUse" id="linearGradient11642" gradientTransform="matrix(1.15 0 0 1.15 -7.2 -150.65)">
   <stop stop-color="#3767a3"/>
   <stop stop-color="#6593c6" offset="1"/>
  </linearGradient>
  <linearGradient x1="43.7" x2="77.924" xlink:href="#linearGradient11508" y1="82.47" y2="16.212" gradientUnits="userSpaceOnUse" id="linearGradient10458" gradientTransform="matrix(1.0643 0.22253 -0.33932 0.69796 25.39 15.671)"/>
  <linearGradient id="linearGradient11508">
   <stop/>
   <stop stop-opacity="0" offset="1"/>
  </linearGradient>
  <linearGradient x1="43.7" x2="87.73" xlink:href="#linearGradient11508" y1="82.47" y2="6.208" gradientUnits="userSpaceOnUse" id="linearGradient10454" gradientTransform="matrix(1.0371 0.14899 -0.15896 0.972 11.602 -3.999)"/>
  <linearGradient x2="0" y1="81.5" y2="6.28" gradientUnits="userSpaceOnUse" id="linearGradient8202" gradientTransform="matrix(1 0 0 1 0.758 1.768)">
   <stop stop-color="#fff"/>
   <stop stop-color="#50caff" stop-opacity="0" offset="1"/>
  </linearGradient>
  <linearGradient x1="60.899" x2="68.22" y1="35.606" y2="39.534" gradientUnits="userSpaceOnUse" id="linearGradient10400">
   <stop stop-color="#1a1a1a"/>
   <stop stop-color="#636363" offset="0.352"/>
   <stop stop-color="#c7c7c7" offset="0.5"/>
   <stop stop-color="#636363" offset="0.65"/>
   <stop offset="1"/>
  </linearGradient>
  <linearGradient x1="24.25" x2="13.406" y1="77.5" y2="67.67" gradientUnits="userSpaceOnUse" id="linearGradient8183" gradientTransform="matrix(0.72549 -0.19431 0.19481 0.72675 26.25 18.268)">
   <stop stop-color="#c38125"/>
   <stop stop-color="#c68d31" offset="0.63"/>
   <stop stop-color="#fffce6" offset="1"/>
  </linearGradient>
  <linearGradient x1="58.652" x2="47.45" y1="68.17" y2="57.993" gradientUnits="userSpaceOnUse" id="linearGradient10392">
   <stop stop-color="#fff"/>
   <stop stop-color="#fff" stop-opacity="0" offset="1"/>
  </linearGradient>
  <radialGradient cy="41.704" r="18.18" xlink:href="#linearGradient10392" gradientUnits="userSpaceOnUse" id="radialGradient10416" cx="59.852" gradientTransform="matrix(1 0 0 0.125 0 36.491)"/>
  <clipPath clipPathUnits="userSpaceOnUse" id="clipPath3009">
   <path d="m-2 956.36h-96v33.562l96 25.687v-59.25z"/>
  </clipPath>
 </defs>
 <g transform="matrix(1 0 0 1 0 -956.36)">
  <rect x="2" rx="25" y="958.36" fill="url(#linearGradient11642)" height="92" width="92"/>
  <g transform="matrix(1 0 0 1 0 964.36)">
   <path d="m90 46.844c-4.5267 2.4571-8.9467 4.8983-12.938 7.625-5.3609 3.6629-9.1183 7.3305-10.844 10.125-0.0078 0.01278-0.02345 0.01851-0.03125 0.03125-1.0504 0.6297-8.5814 5.1735-12.406 7.8125-4.1757 2.881-11.219 10.25-11.219 10.25l0.8125 0.5c6.922-3.228 20.845-6.438 20.845-6.438l0.46875-0.125-0.125-0.3125s-0.06096-0.1304 0-0.53125c0.06098-0.40085 0.26727-1.0314 0.78125-1.875 1.1168-1.8332 3.9385-3.7679 5.8438-4.9375 4.3942-1.0847 10.611-3.9776 16.406-7.9375 0.823-0.562 1.613-1.136 2.406-1.719v-12.469z" fill="url(#linearGradient10458)" opacity="0.3"/>
   <path d="m90 15.625c-7.1598 8.9315-15.448 16.154-21.812 24.719-4.1558 5.5925-6.8044 10.995-7.7812 14.938-0.0044 0.01801-0.02686 0.04455-0.03125 0.0625-0.8339 0.97909-6.7907 7.976-9.75 12-3.2308 4.3931-8.125 15.125-8.125 15.125l0.875 0.5625c5.7009-5.2289 17.875-11.375 17.875-11.375l0.405-0.219-0.156-0.407s-0.09207-0.17889-0.125-0.71875c-0.03294-0.53986-0.0072-1.4046 0.28125-2.5938 0.627-2.583 2.838-5.531 4.344-7.343 3.835-2.041 8.945-6.704 13.438-12.75 3.861-5.197 7.081-10.841 10.562-16.656v-15.344z" fill="url(#linearGradient10454)" opacity="0.2"/>
   <path d="m24.156 6c16.029 21.143-17.582 35.38-13.062 52.25 4.4 16.423 24.273 15.596 31.437 24.531-4.945-9.603-11.708-9.118-14.375-18.125-6.78-22.902 63.704-34.344 40.813-58.656h-44.812z" fill="url(#linearGradient8202)"/>
   <path d="m71.441 41.872c-4.974 10.134-11.992 17.34-14.547 15.967-2.725-1.464-1.408-10.803 3.695-21.201 5.102-10.395 13.052-19.404 18.277-31.011 0.99577-2.2119 2.9241-5.4797 5.6618-4.0917 2.8377 1.4387 2.0678 4.1309 0.56856 7.1888-5.789 11.81-8.682 23.015-13.655 33.148z" fill="url(#linearGradient10400)" stroke="#000"/>
   <path d="m60.458 78.052a5.4801 7.7782 0 1 1 -10.96 0 5.4801 7.7782 0 1 1 10.96 0z" stroke-width="3.538" fill="none" stroke="#2e3436" stroke-linecap="round" transform="matrix(0.63303 -0.16955 0.23046 0.42763 6.312 29.07)"/>
   <path d="m42.944 82.581s2.9568-11.532 5.2581-16.279c2.3013-4.7473 7.7424-14.191 7.7424-14.191s1.5699-2.3482 4.104-1.0992 1.8027 3.6481 1.8027 3.6481-3.8216 5.7556-4.1396 10.197c-0.18327 2.56 0.41684 3.6061 0.41684 3.6061s-10.525 7.9137-15.184 14.119z" fill="url(#linearGradient8183)" fill-rule="evenodd" stroke="#c17d11"/>
   <path d="m-27.931 71.865a1.2374 3.0052 0 1 1 -2.4749 0 1.2374 3.0052 0 1 1 2.4749 0z" stroke-width="0.639" fill-opacity="0.6" stroke="#c17d11" stroke-linecap="round" transform="matrix(0.49816 0.21338 -0.22865 0.4531 80.994 39.611)"/>
   <path d="m43.003 82.289c2.0864-5.3782 3.5755-9.9079 6.1844-14.875" stroke-width="0.343" fill="#c17d11" fill-rule="evenodd" stroke="#c17d11"/>
   <path d="m59.688 52.656c-0.21887 0.17772-0.36455 0.36252-0.375 0.375-0.000061 0.000107-0.03118-0.000123-0.03125 0-0.07544 0.13095-5.41 9.4309-7.625 14-0.7547 1.5568-1.6525 4.0696-2.4688 6.6562 3.3766-3.0393 6.2735-5.2175 7.0625-5.8125-0.15066-0.74086-0.25503-1.7765-0.15625-3.1562 0.18858-2.6341 1.306-5.2903 2.3438-7.375 0.93934-1.8869 1.6789-2.9971 1.8438-3.25 0.011-0.04406 0.05429-0.21114 0-0.53125-0.05032-0.29673-0.10584-0.58654-0.59375-0.90625z" fill="url(#linearGradient10392)" fill-rule="evenodd"/>
   <path d="m78.034 41.704a18.183 2.2728 0 1 1 -36.365 0 18.183 2.2728 0 1 1 36.365 0z" fill="url(#radialGradient10416)" transform="matrix(0.4631 -0.88631 0.88631 0.4631 0.98 69.38)"/>
   <path d="m66.656 29.344c-0.77115 0-1.5229 0.13397-2.25 0.34375-0.34567 0.57819-0.66489 1.1683-1 1.75 0.4105-0.06213 0.827-0.09375 1.25-0.09375 3.5615 0 6.7571 2.358 8.8438 6.0312 0.43947-1.0278 0.86359-2.0781 1.2812-3.125-2.0657-3.0196-4.9425-4.9062-8.125-4.9062z" fill="#fff" opacity="0.6"/>
  </g>
  <rect x="-96" rx="25" y="958.36" clip-path="url(#clipPath3009)" fill="#fff" height="92" opacity="0.15" width="92" transform="matrix(1 0 0 1 98 0)"/>
 </g>
</svg>
