<?xml version="1.0" encoding="UTF-8" standalone="no"?>
<!-- Created with Inkscape (http://www.inkscape.org/) -->

<svg
   xmlns:dc="http://purl.org/dc/elements/1.1/"
   xmlns:cc="http://creativecommons.org/ns#"
   xmlns:rdf="http://www.w3.org/1999/02/22-rdf-syntax-ns#"
   xmlns:svg="http://www.w3.org/2000/svg"
   xmlns="http://www.w3.org/2000/svg"
   xmlns:xlink="http://www.w3.org/1999/xlink"
   xmlns:sodipodi="http://sodipodi.sourceforge.net/DTD/sodipodi-0.dtd"
   xmlns:inkscape="http://www.inkscape.org/namespaces/inkscape"
   id="svg11037"
   height="96"
   width="96"
   version="1.1"
   inkscape:version="0.48.5 r10040"
   sodipodi:docname="seamonkey.svg">
  <sodipodi:namedview
     pagecolor="#ffffff"
     bordercolor="#666666"
     borderopacity="1"
     objecttolerance="10"
     gridtolerance="10"
     guidetolerance="10"
     inkscape:pageopacity="0"
     inkscape:pageshadow="2"
     inkscape:window-width="640"
     inkscape:window-height="480"
     id="namedview59282" />
  <defs
     id="defs11039">
    <clipPath
       id="clipPath3009"
       clipPathUnits="userSpaceOnUse">
      <path
         id="path3011"
         style="opacity:.15;fill:#fff"
         d="m-2 956.36h-96v33.562l96 25.687v-59.25z" />
    </clipPath>
    <linearGradient
       id="linearGradient3617"
       y2="5.9877"
       gradientUnits="userSpaceOnUse"
       x2="48"
       gradientTransform="translate(0,-96)"
       y1="90"
       x1="48">
      <stop
         id="stop7670"
         style="stop-color:#6464be"
         offset="0" />
      <stop
         id="stop4010"
         style="stop-color:#0e0e82"
         offset=".45547" />
      <stop
         id="stop4008"
         style="stop-color:#4a4aeb"
         offset=".51111" />
      <stop
         id="stop7672"
         style="stop-color:#1d1de3"
         offset="1" />
    </linearGradient>
    <linearGradient
       id="linearGradient3923"
       y2="-98.456"
       xlink:href="#linearGradient5697"
       gradientUnits="userSpaceOnUse"
       x2="1300.6"
       gradientTransform="matrix(.15465 0 0 .15465 -144.19 31.092)"
       y1="222.57"
       x1="1194" />
    <linearGradient
       id="linearGradient5697">
      <stop
         id="stop5701"
         style="stop-color:#daecff;stop-opacity:.65098"
         offset="0" />
      <stop
         id="stop5703"
         style="stop-color:#bbdeff;stop-opacity:.65882"
         offset=".48713" />
      <stop
         id="stop5705"
         style="stop-color:#e0effe;stop-opacity:.65098"
         offset="1" />
    </linearGradient>
    <linearGradient
       id="linearGradient3919"
       y2="230.35"
       gradientUnits="userSpaceOnUse"
       x2="1167.6"
       gradientTransform="matrix(.15465 0 0 .15465 -144.19 31.092)"
       y1="-101.99"
       x1="1385">
      <stop
         id="stop5719"
         style="stop-color:#fff"
         offset="0" />
      <stop
         id="stop5721"
         style="stop-color:#fff;stop-opacity:0"
         offset="1" />
    </linearGradient>
    <linearGradient
       id="linearGradient3916"
       y2="284.48"
       xlink:href="#linearGradient5697"
       gradientUnits="userSpaceOnUse"
       x2="1156.8"
       gradientTransform="matrix(.15465 0 0 .15465 -144.19 31.092)"
       y1="-26.645"
       x1="1403.3" />
    <linearGradient
       id="linearGradient3613"
       y2="138.66"
       gradientUnits="userSpaceOnUse"
       x2="48"
       y1="20.221"
       x1="48">
      <stop
         id="stop3739"
         style="stop-color:#fff"
         offset="0" />
      <stop
         id="stop3741"
         style="stop-color:#fff;stop-opacity:0"
         offset="1" />
    </linearGradient>
    <clipPath
       id="clipPath3613">
      <rect
         id="rect3615"
         style="fill:#fff"
         rx="6"
         ry="6"
         height="84"
         width="84"
         y="6"
         x="6" />
    </clipPath>
    <filter
       id="filter3979"
       width="1.6367"
       y="-.31837"
       x="-.31837"
       height="1.6367"
       color-interpolation-filters="sRGB">
      <feGaussianBlur
         id="feGaussianBlur3981"
         stdDeviation="8.755102" />
    </filter>
    <clipPath
       id="clipPath3090"
       clipPathUnits="userSpaceOnUse">
      <rect
         id="rect3092"
         style="opacity:.6"
         rx="22.073"
         ry="21.875"
         height="80.5"
         width="81.23"
         y="7.75"
         x="7.0044" />
    </clipPath>
  </defs>
  <metadata
     id="metadata11042">
    <rdf:RDF>
      <cc:Work
         rdf:about="">
        <dc:format>image/svg+xml</dc:format>
        <dc:type
           rdf:resource="http://purl.org/dc/dcmitype/StillImage" />
        <dc:title />
      </cc:Work>
    </rdf:RDF>
  </metadata>
  <g
     id="layer1"
     transform="translate(0 -956.36)">
    <g
       id="g3105"
       clip-path="url(#clipPath3090)"
       transform="matrix(1.1326 0 0 1.1429 -5.9331 949.51)">
      <rect
         id="back"
         style="fill:url(#linearGradient3617)"
         rx="6"
         ry="6"
         transform="scale(1,-1)"
         width="84"
         y="-90"
         x="6"
         height="84" />
      <g
         id="bird">
        <path
           id="path3909"
           d="m6.0768 43.17c8.5008-1.3184 17.873-2.825 26.601-1.2091 7.0829 1.3114 15.374 6.0904 23.492 6.6023 16.139 1.0177 22.425-5.5208 33.817-7.0245v6.7942s-17.747-1.2628-30.286 2.687c-7.6173 2.3995-15.993 4.4521-23.799 2.7637-8.2331-1.7808-17.135-6.224-29.825-6.3336z"
           style="opacity:.58921;fill:#fff" />
        <path
           id="path3911"
           d="m6.0768 52.939s11.335 2.4639 20.199-1.8836c26.806 9.7664 31.897-2.3915 47.705-0.64981 5.4509 0.60057 16.007 3.8001 16.007 3.8001v-12.667c-4.7897 0.62695-11.456 3.0866-14.977 4.4148-6.8373 2.5796-9.3052 0.57827-16.307-2.1501-12.589-4.9053-14.878 2.2085-25.777 2.0053-1.291-0.02409-5.1623-0.52247-8.8642-1.8897-5.46-2.016-10.084-2.181-17.986-0.784z"
           style="opacity:.50207;fill:#fff" />
        <path
           id="path5759"
           style="stroke:#f00;stroke-width:.15465px;fill:none"
           d="m30.257 71.676c5.0107-4.8923 15.054-9.5021 21.762-15.35 15.402-13.224 11.168-26.151 11.03-31.331 5.7327-0.77739 9.8617 0.76784 11.652 5.6998 2.8981 11.233 1.5667 23.946-12.053 31.984-14.649 7.8089-22.334 7.0109-32.391 8.9976z" />
        <path
           id="path5761"
           style="fill:#fff"
           d="m6.9662 83.654c14.722-5.876 25.239-16.357 34.058-29.578 4.2623-6.4215 7.4104-13.575 9.4223-21.028 1.4301-5.2298 3.1637-10.783 6.5945-14.753 2.6548-3.0724 6.3103-5.167 11.075-5.0722 1.36 0 3.671 0.25857 4.8169 2.6835 1.1459 2.425-1.6954 6.1988-3.6434 7.9954 9.4388 1.5704 9.3896 18.767 5.7756 27.534-4.444 10.778-19.127 18.713-42.607 21.4-7.828 5.804-14.057 11.114-22.475 13.391-4.9247 1.331-6.1664-1.315-3.0178-2.572z" />
        <path
           id="path5763"
           d="m8.0915 84.626c14.146-5.646 25.43-17.104 33.906-29.809 4.095-6.17 7.432-13.218 9.365-20.379 1.374-5.025 3.305-10.967 5.955-14.523 2.4447-3.2804 6.4796-5.4157 11.058-5.3246 1.3069 0 2.6542 0.57933 3.4154 1.6774 0.72752 2.8158-1.9064 4.9513-3.5703 6.851 2.8996 9.4819 2.2509 19.456-1.4872 26.042-6.381 12.9-23.631 13.743-34.296 21.895-6.0116 3.8536-11.673 11.251-24.522 14.193 0 0-2.8497 0.58524 0.17577-0.62236z"
           style="fill:#51a8ff" />
        <path
           id="path5765"
           style="fill:url(#linearGradient3923)"
           d="m66.467 24.372c-0.23578-1.9468 1.1279-2.9717 2.2528-4.3324 0.86899-1.0037 1.5224-2.1691 1.7784-3.4827-1.9725-1.6492-4.6341-0.78136-6.7634-0.04045-3.9802 1.3849-6.5881 5.1236-8.2684 9.0129-3.0365 7.0285-4.136 15.084-7.6396 21.816-2.4746 4.7545-4.7366 9.688-8.1789 13.844-1.6302 2.1422-4.5223 5.4367-6.4033 7.4166 8.1255-3.658 23.875-10.848 28.928-16.567 7.0444-7.7055 6.7525-21.987 4.2945-27.667z" />
        <path
           id="path5767"
           d="m65.616 24.804c-0.81464 0.004-1.6705 0.07184-2.5662 0.19331 0.13849 5.1801 4.3685 18.106-11.033 31.331-6.708 5.847-16.751 10.456-21.762 15.348 10.057-1.986 17.745-1.189 32.394-8.998 13.62-8.038 14.951-20.75 12.053-31.983-1.511-4.162-4.687-5.913-9.086-5.891zm-11.204 35.592c0.36078 1.7511 0.90195 5.2264 0.66 5.3229-1.3002 0.51869-2.5435 0.96784-3.7413 1.3608 0 0-0.01036-3.2437-0.16178-4.8562-0.12891-1.3733-0.83955-3.9305-0.63428-4.0892 0.91499-0.707 1.786-1.4243 2.5941-2.1512 0 0 0.97415 2.9124 1.2832 4.4128zm-3.9706 2.1603c0.12584 1.5855 0.37446 4.6904 0.12016 4.7701-1.2414 0.38895-2.4349 0.71875-3.5937 1.005 0 0-0.0798-2.4988-0.01683-3.7458 0.07793-1.543-0.1913-3.7299 0.02103-3.8752 1.0078-0.68946 1.9944-1.3902 2.9402-2.1017 0 0 0.42401 2.6242 0.52906 3.9476zm-4.0921 2.0248c-0.04816 1.327-0.0015 3.9009-0.3082 3.9718-1.2238 0.28307-2.4118 0.52084-3.5801 0.73252 0 0 0.17389-1.9073 0.26864-2.8602 0.10405-1.0463 0.08393-2.9799 0.32932-3.137 1.0948-0.70108 2.1938-1.4159 3.2736-2.1436 0 0 0.05836 2.2918 0.01683 3.4365zm-4.3716 2.0173c-0.13703 0.95494-0.15496 2.8009-0.47218 2.8554-1.2167 0.20878-2.4167 0.3946-3.6186 0.57972 0 0 0.13955-0.93852 0.20497-1.3886 0.1445-0.99413 0.28734-2.3861 0.60056-2.5856 1.1756-0.7488 2.3973-1.5165 3.6312-2.3019 0 0-0.21044 1.8966-0.34596 2.8409zm-4.5354 1.792c-0.12293 0.61218-0.20958 1.7438-0.53726 1.7945-1.7689 0.27373-3.5532 0.55899-5.4123 0.92625 1.6184-1.3911 3.8187-2.8806 6.2705-4.4573 0 0-0.20219 1.145-0.32096 1.7365zm17.642-8.2157c-0.33282-1.6256-1.5518-4.5797-1.3165-4.8006 0.97916-0.91909 1.87-1.8309 2.6801-2.7335 0 0 1.2203 3.4343 1.7066 5.189 0.54275 1.9586 1.529 5.86 1.3479 5.9463-1.2855 0.61281-2.5157 1.1584-3.6987 1.6462 0 0-0.36522-3.5178-0.71933-5.2474zm3.6286-2.908c-0.54388-1.6725-1.948-4.9827-1.7941-5.1604 0.85945-0.99268 1.6222-1.9739 2.2982-2.9412 0 0 2.3525 3.7397 3.3703 5.6975 0.95472 1.8365 2.8329 5.4493 2.5583 5.6579-0.64155 0.48736-1.3171 0.96356-2.0277 1.4278-1.058 0.56398-2.0799 1.0841-3.0691 1.5646 0 0-0.27161-2.9731-1.336-6.2461zm4.2897-3.624c-0.97666-1.8352-3.3812-5.0663-3.1909-5.3587 0.65275-1.0025 1.2141-1.9892 1.6956-2.9571 0 0 3.606 2.3474 5.1383 3.8382 1.6672 1.6221 4.527 5.1991 4.3279 5.4741-1.3368 1.8469-2.9968 3.6071-5.0226 5.2494 0 0-1.8668-4.2135-2.9484-6.246zm4.3747-5.0174c-1.6343-1.6107-5.5648-3.927-5.4245-4.2383 0.52073-1.1553 0.9302-2.282 1.2489-3.3754 0 0 4.2732 1.3329 6.2597 2.3409 1.8683 0.94808 5.3436 3.1153 5.253 3.4514-0.65153 2.4164-1.6824 4.7689-3.1651 7.0045 0 0-2.5925-3.6263-4.1721-5.1832zm2.5129-6.1831c-2.0441-1.0154-6.5293-1.9953-6.4586-2.2743 0.31967-1.2601 0.52195-2.4729 0.63962-3.6305 0 0 4.011 0.48742 5.9356 1.0684 1.9467 0.58768 5.6019 1.9965 5.5991 2.422-0.01253 1.939-0.21499 3.8689-0.64149 5.7645 0 0-3.2591-2.4484-5.0743-3.3501zm0.17696-5.6474c-1.9402-0.51276-5.9458-0.79272-5.9271-1.0558 0.09413-1.3297 0.08195-2.5809 0.01662-3.7411 0 0 3.2521-0.09125 4.8591 0.11457 2.0268 0.25958 5.9009 1.0595 5.967 1.4046 0.33244 1.7352 0.54224 3.4857 0.60439 5.2334 0 0-3.6328-1.4568-5.52-1.9555zm-0.19189-5.3095c-1.9125-0.24905-5.7543-0.05764-5.7763-0.33414-0.08362-1.0539-0.20296-2.0235-0.31302-2.8985 0 0 2.8255-0.2828 4.2428-0.27813 1.6563 0.0055 4.6606-0.03086 4.956 0.3577 0.57716 0.7593 1.0593 1.6679 1.4467 2.735 0.12138 0.47048 0.23443 0.94277 0.33865 1.4165 0 0-3.2436-0.78336-4.8948-0.99839zm-1.3532-4.3345c-1.6153 0.0181-3.3365 0.22255-4.8375 0.29074-0.09246-0.75569-0.16448-1.4267-0.17993-2.0045 0.86783-0.11768 1.6903-0.17456 2.4647-0.17398 2.5086 0.0019 4.5259 0.63933 6.0547 2.0195 0 0-2.3339-0.14489-3.5019-0.1318z"
           style="fill:#2a94fe" />
        <path
           id="path5769"
           style="fill:url(#linearGradient3919)"
           d="m47.827 47.346c-1.6101 3.0935-3.1302 6.2628-4.944 9.2445v0.000773c3.6915-5.3741 6.9397-10.262 9.2487-17.883 2.2739-7.5044 4.0505-17.133 10.951-20.964 2.1702-1.2047 5.9417-1.1909 7.2452-0.50874 0.06848-0.22145 0.12568-0.44754 0.17062-0.6782-1.9725-1.6492-4.6475-0.8188-6.7634-0.04045-4.0622 1.4943-6.5881 5.1236-8.2684 9.0129-3.0365 7.0285-4.136 15.084-7.6396 21.816" />
        <path
           id="path5771"
           d="m31.491 71.111c4.927-4.234 15.057-9.41 21.557-15.075 14.994-13.534 10.591-25.579 10.456-30.598 5.5542-0.75318 9.1938 0.85214 10.929 5.6305 2.8079 10.883 1.1572 22.731-11.317 30.879-14.193 7.5657-21.881 7.2389-31.624 9.1638z"
           style="fill:url(#linearGradient3916)" />
      </g>
      <g
         id="blurity"
         transform="translate(-137.38 9.0539)">
        <rect
           id="rect3171"
           style="opacity:.22822;filter:url(#filter3979);stroke:#fff;stroke-linecap:round;stroke-width:.5;fill:url(#linearGradient3613)"
           clip-path="url(#clipPath3613)"
           rx="12"
           transform="translate(137.38 -9.0539)"
           ry="12"
           width="66"
           y="15"
           x="15"
           height="66" />
      </g>
    </g>
    <rect
       id="rect3003"
       style="opacity:.15;fill:#fff"
       transform="translate(98)"
       clip-path="url(#clipPath3009)"
       rx="25"
       ry="25"
       height="92"
       width="92"
       y="958.36"
       x="-96" />
  </g>
</svg>
