<svg height="96" width="96" xmlns="http://www.w3.org/2000/svg" xmlns:sodipodi="http://sodipodi.sourceforge.net/DTD/sodipodi-0.dtd" xmlns:inkscape="http://www.inkscape.org/namespaces/inkscape">
 <rect x="8" rx="10.769" y="8" fill="#148fb9" fill-opacity="1" stroke="none" height="80" width="80"/>
 <path d="M 36.260871,19.30435 C 26.175673,19.30435 18,27.480015 18,37.565221 c 0,4.272832 1.474903,8.200356 3.933423,11.311141 0.462174,14.001731 11.95242,25.210588 26.066576,25.210588 0.727256,0 1.448124,-0.0435 2.160323,-0.1019 2.783139,1.71626 6.069017,2.7106 9.578803,2.7106 C 69.824324,76.69565 78,68.519982 78,58.434783 78,54.161952 76.52509,50.234427 74.066573,47.123642 73.604392,33.121913 62.114153,21.913046 47.999999,21.913046 c -0.727257,0 -1.448125,0.04353 -2.160324,0.1019 -2.783139,-1.716252 -6.069018,-2.710596 -9.578804,-2.710596 z" fill="#eeeeec" fill-opacity="1" stroke="none" inkscape:connector-curvature="0"/>
 <path d="m 62.559999,80.216001 c 3.263979,7e-6 5.639976,-0.551993 7.128,-1.656 1.487973,-1.10399 2.231973,-2.663989 2.232,-4.68 -2.7e-5,-1.199986 -0.264027,-2.231985 -0.792,-3.096 -0.480026,-0.863983 -1.200025,-1.631982 -2.16,-2.304 -0.912024,-0.719981 -2.040022,-1.36798 -3.384,-1.944 -1.34402,-0.623979 -2.880018,-1.223978 -4.608,-1.8 -1.728015,-0.623977 -3.408013,-1.295976 -5.04,-2.016 -1.58401,-0.767975 -3.000008,-1.703974 -4.248,-2.808 -1.200006,-1.103972 -2.184005,-2.42397 -2.952,-3.96 -0.720004,-1.535967 -1.080003,-3.383965 -1.08,-5.544 -3e-6,-4.511959 1.559995,-8.039955 4.68,-10.584 3.119989,-2.59195 7.367985,-3.887949 12.744,-3.888 3.119976,5.1e-5 5.879973,0.360051 8.28,1.08 2.447969,0.672049 4.367967,1.416049 5.76,2.232 3.242932,3.311013 0.350357,6.562767 -2.808,7.344 -1.63203,-0.911959 -3.432028,-1.607958 -5.4,-2.088 -1.920025,-0.479957 -3.912023,-0.719957 -5.976,-0.72 -2.448018,4.3e-5 -4.368016,0.504043 -5.76,1.512 -1.344013,1.008041 -2.016013,2.424039 -2.016,4.248 -1.3e-5,1.104036 0.215987,2.064036 0.648,2.88 0.479986,0.768034 1.127986,1.464033 1.944,2.088 0.863984,0.624032 1.847983,1.200031 2.952,1.728 1.151981,0.52803 2.399979,1.03203 3.744,1.512 2.351976,0.864029 4.439974,1.752028 6.264,2.664 1.87197,0.864026 3.431968,1.920025 4.68,3.168 1.295966,1.200022 2.279965,2.640021 2.952,4.32 0.671963,1.632018 1.007963,3.624016 1.008,5.976 -3.7e-5,4.512009 -1.608035,8.016005 -4.824,10.512 -3.168029,2.448 -7.824024,3.671999 -13.968,3.672 -2.064016,-1e-6 -3.960014,-0.144001 -5.688,-0.432 -1.680011,-0.24 -3.192009,-0.552 -4.536,-0.936 -1.296007,-0.383999 -2.424005,-0.767999 -3.384,-1.152 -0.960004,-0.431998 -1.996315,-0.560392 -2.304,-1.152 -1.313181,-2.524949 -3.187859,-6.35267 2.664,-7.416 1.458684,-0.265055 3.047992,1.440009 5.256,2.16 2.207988,0.720007 4.871985,1.080007 7.992,1.08" fill="#079fd0" fill-opacity="1" stroke="none" sodipodi:nodetypes="csccccccccsccccccccccccccccccscccsssc" inkscape:connector-curvature="0" transform="matrix(0.65217 0 0 0.65217 6.705 7.565)"/>
</svg>
