<svg height="96" width="96" xmlns="http://www.w3.org/2000/svg" xmlns:xlink="http://www.w3.org/1999/xlink" xmlns:sodipodi="http://sodipodi.sourceforge.net/DTD/sodipodi-0.dtd" xmlns:inkscape="http://www.inkscape.org/namespaces/inkscape">
 <defs>
  <linearGradient x2="0" y1="962.62" y2="1046.1" gradientUnits="userSpaceOnUse" id="linearGradient11642" gradientTransform="matrix(1.15 0 0 1.15 -7.2 -150.65)">
   <stop stop-color="#6bd0f5"/>
   <stop stop-color="#c6eefd" offset="1"/>
  </linearGradient>
  <linearGradient x1="56" x2="51.52" y1="80" y2="53.768" gradientUnits="userSpaceOnUse" id="linearGradient3746">
   <stop stop-color="#9ee1f9"/>
   <stop stop-color="#00aff0" offset="1"/>
  </linearGradient>
  <linearGradient x1="32" x2="64" xlink:href="#linearGradient3737" y1="24" y2="64" gradientUnits="userSpaceOnUse" id="linearGradient3738"/>
  <linearGradient id="linearGradient3737">
   <stop stop-color="#fff"/>
   <stop stop-color="#fff" stop-opacity="0" offset="1"/>
  </linearGradient>
  <linearGradient x1="16" x2="48" xlink:href="#linearGradient3737" y1="16" y2="48" gradientUnits="userSpaceOnUse" id="linearGradient3781"/>
  <linearGradient x1="80" x2="48" xlink:href="#linearGradient3737" y1="80" y2="48" gradientUnits="userSpaceOnUse" id="linearGradient3773"/>
  <clipPath clipPathUnits="userSpaceOnUse" id="clipPath3009">
   <path d="m-2 956.36h-96v33.562l96 25.687v-59.25z"/>
  </clipPath>
 </defs>
 <g transform="matrix(1 0 0 1 0 -956.36)">
  <rect x="2" rx="25" y="958.36" fill="url(#linearGradient11642)" height="92" width="92"/>
  <g transform="matrix(1 0 0 1 0 956.36)">
   <path d="m33.406 13.031c-11.201 0-20.375 9.174-20.375 20.375 0 3.0781 0.81359 5.943 2.0312 8.5312-0.36216 1.9699-0.625 3.9843-0.625 6.0625 0 18.491 15.072 33.562 33.562 33.562 2.0782 0 4.0926-0.26284 6.0625-0.625 2.5932 1.2252 5.4487 2.0312 8.5312 2.0312 11.201 0 20.375-9.174 20.375-20.375 0-3.0826-0.80604-5.9381-2.0312-8.5312 0.36216-1.9699 0.625-3.9843 0.625-6.0625 0-18.491-15.072-33.562-33.562-33.562-2.1185 0-4.1356 0.32069-6.0625 0.6875-2.5622-1.2185-5.4179-2.0938-8.5312-2.0938z" fill="#028dc0" opacity="0.1"/>
   <path d="m33.406 14.031c-10.663 0-19.375 8.7122-19.375 19.375 0 3.0389 0.77865 5.8806 2.0312 8.4375-0.38296 2.0108-0.625 4.0575-0.625 6.1562 0 17.955 14.607 32.562 32.562 32.562 2.0988 0 4.1455-0.24204 6.1562-0.625 2.5621 1.261 5.3918 2.0312 8.4375 2.0312 10.663 0 19.375-8.7122 19.375-19.375 0-3.0457-0.77022-5.8754-2.0312-8.4375 0.384-2.01 0.626-4.056 0.626-6.155 0-17.955-14.607-32.562-32.562-32.562-2.1229 0-4.1814 0.30251-6.1562 0.6875-2.5383-1.2527-5.3733-2.0938-8.4375-2.0938z" fill="#0088ba" opacity="0.15"/>
   <path d="m33.406 16c-9.6 0-17.406 7.806-17.406 17.406 0 2.9652 0.72093 5.7437 2.0312 8.1875-0.43745 2.0593-0.625 4.2172-0.625 6.4062 0 16.896 13.698 30.594 30.594 30.594 2.189 0 4.347-0.18755 6.4062-0.625 2.452 1.322 5.208 2.031 8.188 2.031 9.6 0 17.406-7.806 17.406-17.406 0-2.98-0.709-5.736-2.031-8.188 0.437-2.059 0.625-4.217 0.625-6.406 0-16.896-13.698-30.594-30.594-30.594-2.1896 0-4.3465 0.24984-6.4062 0.6875-2.444-1.311-5.222-2.094-8.188-2.094z" fill="url(#linearGradient3746)"/>
   <path d="m33.406 16c-9.6 0-17.406 7.806-17.406 17.406 0 2.9652 0.72093 5.7437 2.0312 8.1875-0.43745 2.0593-0.625 4.2172-0.625 6.4062 0 4.3817 0.93294 8.5426 2.5938 12.312 16.555-13.711 43.222-18.149 57.75-19.593-3.269-13.387-15.361-23.313-29.75-23.313-2.1896 0-4.3465 0.24984-6.4062 0.6875-2.444-1.311-5.222-2.094-8.188-2.094z" fill="url(#linearGradient3738)" opacity="0.6"/>
   <path d="m33.406 15.062c-10.104 0-18.344 8.2401-18.344 18.344 0 2.9972 0.74773 5.8076 2.0312 8.3125-0.40864 2.0419-0.625 4.1454-0.625 6.2812 0 17.398 14.133 31.531 31.531 31.531 2.1358 0 4.2393-0.21636 6.2812-0.625 2.511 1.2931 5.3055 2.0312 8.3125 2.0312 10.104 0 18.344-8.2401 18.344-18.344 0-3.007-0.73818-5.8015-2.0312-8.3125 0.40864-2.0419 0.625-4.1454 0.625-6.2812 0-17.398-14.133-31.531-31.531-31.531-2.1532 0-4.2541 0.27619-6.2812 0.6875-2.495-1.283-5.303-2.0938-8.3125-2.0938zm0 0.9375c-0.6 0-1.1967 0.03423-1.7812 0.09375-0.49975 0.05089-0.98231 0.12635-1.4688 0.21875 0.48778-0.0922 0.96772-0.16804 1.4688-0.21875 0.585-0.059 1.181-0.094 1.781-0.094zm3.4062 0.34375c0.64612 0.13139 1.2859 0.29786 1.9062 0.5-0.61832-0.20328-1.2599-0.36655-1.9062-0.5zm-7.1562 0.0625c-0.47838 0.10565-0.94344 0.23078-1.4062 0.375 0.45955-0.14201 0.93146-0.27078 1.4062-0.375zm-1.625 0.4375c-0.47068 0.15341-0.95405 0.33971-1.4062 0.53125 0.46235-0.19546 0.92461-0.37551 1.4062-0.53125zm18.344 0.594c-0.54231 0.03026-1.0898 0.09767-1.625 0.15625 0.54057-0.0614 1.0801-0.125 1.625-0.15625zm-12.969 0.5c2.6228 0 5.094 0.70209 7.2812 1.875a1.9466 1.9466 0 0 0 1.313 0.187c1.9368-0.41154 3.9585-0.65625 6-0.65625 15.844 0 28.656 12.812 28.656 28.656 0 2.0779-0.19023 4.1005-0.59375 6a1.9466 1.9466 0 0 0 0.1875 1.3438c1.171 2.1718 1.8125 4.5795 1.8125 7.25 0 8.5448-6.9239 15.469-15.469 15.469-2.6705 0-5.0782-0.64156-7.25-1.8125a1.9466 1.9466 0 0 0 -1.344 -0.188c-1.8995 0.40352-3.9221 0.59375-6 0.59375-15.844 0-28.656-12.812-28.656-28.656 0-2.0779 0.19023-4.1005 0.59375-6a1.9466 1.9466 0 0 0 -0.188 -1.312c-1.1605-2.1643-1.8125-4.6316-1.8125-7.2812 0-8.5448 6.9239-15.469 15.469-15.469zm-8.281 0.156c-0.49323 0.26823-0.97443 0.56193-1.4375 0.875-0.40779 0.2757-0.80524 0.56667-1.1875 0.875 0.38072-0.30562 0.78143-0.60172 1.1875-0.875 0.46302-0.3116 0.94431-0.60813 1.4375-0.875zm34.781 1.7188c0.91539 0.38739 1.8201 0.80986 2.6875 1.2812-0.86698-0.47098-1.7725-0.89421-2.6875-1.2812zm-37.562 0.15625c-0.42998 0.35498-0.85605 0.73106-1.25 1.125-0.29 0.29-0.575 0.596-0.844 0.906 0.27183-0.31322 0.55037-0.61332 0.84375-0.90625 0.39793-0.3973 0.8151-0.7676 1.25-1.125zm43.969 3.5c0.78574 0.58774 1.5251 1.2161 2.25 1.875-0.72441-0.65841-1.4647-1.2877-2.25-1.875zm4.3438 3.9688c0.65888 0.72488 1.2873 1.4643 1.875 2.25-0.58729-0.78529-1.2166-1.5256-1.875-2.25zm-53.875 0.8125c-0.16675 0.53514-0.32249 1.0692-0.4375 1.625 0.11385-0.55592 0.27193-1.0897 0.4375-1.625zm58.125 5.1562c0.47139 0.86739 0.89386 1.7721 1.2812 2.6875-0.38704-0.91504-0.81027-1.8205-1.2812-2.6875zm-55.094 26.5c0.38704 0.91504 0.81027 1.8205 1.2812 2.6875-0.47139-0.86739-0.89386-1.7721-1.2812-2.6875zm60.093 4.469c-0.0595 0.58452-0.1339 1.1526-0.25 1.7188 0.1161-0.5661 0.19048-1.1342 0.25-1.7188zm-0.25 1.75c-0.11501 0.55577-0.27075 1.0899-0.4375 1.625 0.16675-0.53514 0.32249-1.0692 0.4375-1.625zm-56.188 0.1875c0.58729 0.78529 1.2166 1.5256 1.875 2.25-0.65888-0.72488-1.2873-1.4643-1.875-2.25zm3.9688 4.3438c0.72441 0.65841 1.4647 1.2877 2.25 1.875-0.78574-0.58774-1.5251-1.2161-2.25-1.875zm5.9688 4.25c0.86698 0.47098 1.7725 0.89421 2.6875 1.2812-0.91539-0.38739-1.8201-0.80986-2.6875-1.2812z" fill="#00aff0"/>
   <path d="m47.438 26.938c-5.0422 0-9.2277 1.0918-12.25 3.4062-3.0331 2.3227-4.7188 5.8749-4.7188 10.031 0 4.7993 3.2604 7.9544 7.0312 9.75 3.7278 1.7751 8.0845 2.5495 11.375 3 0.0181 0.0025 0.04446-0.0025 0.0625 0 2.774 0.75966 4.1578 1.5121 4.4062 1.75 0.21567 0.20653 0.18926 0.17454 0.25 0.4375 0.0508 0.21993 0.09375 0.65574 0.09375 1.2812 0 0.47596-0.11398 0.76908-0.34375 1.0625s-0.60698 0.5885-1.1562 0.875c-1.0406 0.5428-2.6187 0.875-3.75 0.875-3.8749 0-5.1029-1.1263-6.4688-2.5625-0.66411-0.69834-1.3058-1.5363-2.2188-2.2812-0.93494-0.76298-2.2054-1.375-3.7812-1.375-1.3757 0-2.8122 0.21198-3.875 1.25-1.0647 1.0398-1.375 2.5508-1.375 4.25 0 1.2992 0.57295 2.5197 1.4375 3.6562 0.86256 1.1339 2.0548 2.2591 3.5625 3.25 3.0127 1.9801 7.2774 3.4688 12.406 3.4688 5.0074 0 9.2674-0.93592 12.406-3.0625 3.156-2.1382 5-5.5595 5-9.75 0-4.3067-1.9307-7.4543-4.9062-9.5-2.845-1.956-6.558-3.044-10.562-4.125-0.023-0.006-0.039-0.025-0.062-0.031s-0.039-0.025-0.062-0.032a0.63709 0.63709 0 0 0 -0.03125 0 0.63709 0.63709 0 0 0 -0.03125 -0.03125c-0.000129-0.000062-0.0179 0.0061-0.03125 0s0.000131-0.03119 0-0.03125c-0.000263-0.000113-0.06223 0.0001-0.0625 0-0.000267-0.0001-0.06223-0.03116-0.0625-0.03125-0.000272-0.000088-0.06222 0.000076-0.0625 0-0.000165-0.000045-0.01485-0.02715-0.03125-0.03125-0.01109-0.0027-0.02018 0.0027-0.03125 0-2.7278-0.66293-4.8879-1.2636-6.0312-1.8438-0.55874-0.28351-0.84861-0.57726-1.0312-0.8125-0.20329-0.26183-0.21875-0.2314-0.21875-0.59375 0-1.0765 0.35101-1.4686 1.25-2 0.83292-0.49231 2.194-0.8125 3.3438-0.8125 1.9616 0 3.1616 0.28141 3.9688 0.65625 0.80708 0.37479 1.2592 0.85664 1.7812 1.4688 0.48533 0.56908 1.0086 1.3455 1.8438 2.0625 0.87801 0.75375 2.1065 1.2812 3.625 1.2812 1.266 0 2.6385-0.06937 3.8125-0.9375 1.2241-0.90518 1.7188-2.4389 1.7188-4.2188 0-2.3804-1.6724-4.7218-4.4062-6.5625-2.7473-1.8498-6.7198-3.1875-11.812-3.1875z" fill="#00aff0" fill-rule="evenodd" opacity="0.1" transform="matrix(1.0261 0 0 1.0261 -1.253 -1.253)"/>
   <path d="m47.438 27.562c-4.9494 0-9.0023 1.0814-11.875 3.2812-2.8763 2.2026-4.4688 5.5445-4.4688 9.5312 0 4.5128 3.0445 7.4528 6.6875 9.1875 3.636 1.7314 7.9745 2.4908 11.25 2.9375 2.8623 0.7773 4.2721 1.4486 4.75 1.9062 0.25836 0.24741 0.35976 0.41344 0.4375 0.75 0.07593 0.32874 0.09375 0.80012 0.09375 1.4375 0 1.1872-0.65758 1.8813-1.8438 2.5-1.1713 0.61094-2.7884 0.9375-4.0312 0.9375-4.0104 0-5.5391-1.2795-6.9375-2.75-0.69414-0.72993-1.3126-1.5302-2.1562-2.2188-0.85284-0.69599-1.9661-1.25-3.375-1.25-1.3023 0-2.548 0.22502-3.4375 1.0938-0.88989 0.8691-1.1875 2.16-1.1875 3.7812 0 1.1076 0.49993 2.213 1.3125 3.2812 0.81281 1.0686 1.9533 2.1388 3.4062 3.0938 2.9049 1.9092 7.0581 3.375 12.062 3.375 4.926 0 9.0741-0.94413 12.062-2.9688 2.9939-2.0284 4.7188-5.211 4.7188-9.2188 0-4.1192-1.8187-7.018-4.6562-8.9688-2.7626-1.8992-6.442-3.0005-10.5-4.0938a0.65581 0.65581 0 0 0 -0.03125 -0.03125c-0.01009-0.0027-0.02116 0.0027-0.03125 0a0.65581 0.65581 0 0 0 -0.218 -0.094c-2.7534-0.66845-4.9196-1.2629-6.1875-1.9062-0.62803-0.31867-1.0066-0.65524-1.25-0.96875-0.24422-0.31454-0.34375-0.54479-0.34375-1 0-1.2652 0.56228-1.9713 1.5625-2.5625 0.98373-0.58145 2.4067-0.875 3.6562-0.875 2.0231 0 3.3338 0.29327 4.25 0.71875 0.91624 0.42548 1.4626 0.99485 2 1.625 0.52605 0.61683 0.99667 1.3533 1.75 2 0.76718 0.65861 1.8444 1.125 3.2188 1.125 1.2392 0 2.4442-0.07797 3.4375-0.8125 1.0129-0.74899 1.4688-2.0552 1.4688-3.7188 0-2.073-1.5002-4.264-4.125-6.0312-2.63-1.77-6.49-3.094-11.469-3.094z" fill="#00aff0" fill-rule="evenodd" opacity="0.3" transform="matrix(1.0261 0 0 1.0261 -1.253 -1.253)"/>
   <path d="m47.438 28.219c-4.8526 0-8.7497 1.0741-11.469 3.1562-2.719 2.0822-4.2188 5.1851-4.2188 9 0 4.2236 2.7943 6.9184 6.3125 8.5938 3.5182 1.6753 7.8094 2.4314 11.062 2.875 2.9534 0.79605 4.4512 1.4485 5.125 2.0938 0.34012 0.3257 0.49734 0.6451 0.59375 1.0625s0.125 0.93733 0.125 1.5938c0 1.4532-0.88452 2.4141-2.1875 3.0938-1.303 0.67963-2.9969 1-4.3438 1-4.1629 0-5.964-1.4522-7.4062-2.9688-0.72112-0.75829-1.3234-1.5275-2.0938-2.1562s-1.7231-1.0938-2.9688-1.0938c-1.2266 0-2.2584 0.21254-2.9688 0.90625-0.71031 0.69371-1 1.7735-1 3.3125 0 0.89967 0.42782 1.8763 1.1875 2.875 0.75968 0.99869 1.8521 2.0188 3.25 2.9375 2.7957 1.8375 6.8125 3.2812 11.688 3.2812 4.8424 0 8.8563-0.9256 11.688-2.8438 2.8312-1.9181 4.4375-4.8634 4.4375-8.6875 0-3.9332-1.673-6.5799-4.375-8.4375s-6.3963-2.9774-10.562-4.0938a0.46759 0.46759 0 0 0 0 -0.03125c-2.759-0.67-4.925-1.234-6.313-1.938-0.694-0.352-1.182-0.747-1.5-1.156s-0.469-0.836-0.469-1.406c0-1.4842 0.74352-2.4562 1.875-3.125 1.1315-0.66878 2.6531-0.96875 4-0.96875 4.1766 0 5.6268 1.2455 6.75 2.5625 0.5616 0.65852 1.0241 1.368 1.6875 1.9375 0.6634 0.56951 1.5484 0.96875 2.7812 0.96875 1.2038 0 2.2649-0.09769 3.0625-0.6875 0.79764-0.58981 1.1875-1.6337 1.1875-3.1875 0-1.7367-1.3359-3.8115-3.8438-5.5-2.5078-1.6885-6.229-2.9688-11.094-2.9688z" fill="#00aff0" fill-rule="evenodd" opacity="0.6" transform="matrix(1.0261 0 0 1.0261 -1.253 -1.253)"/>
   <path d="m47.42 28.169c-9.8149 0-15.615 4.4167-15.615 12.001 0 8.2502 10.754 10.381 17.399 11.287 6.2199 1.6666 6.4243 2.6366 6.4243 5.3536 0 3.3862-4.2761 4.6844-7.1827 4.6844-8.7757 0-8.1278-6.3797-12.804-6.3797-2.4091 0-3.569 0.80304-3.569 3.8367s6.2458 8.878 16.061 8.878c9.8149 0 16.061-3.7921 16.061-11.376 0-7.8078-6.4601-10.117-14.99-12.402-5.6738-1.3775-8.8334-2.3689-8.8334-5.0859 0-3.3862 3.6069-4.6844 6.5135-4.6844 8.7757 0 6.834 5.6213 11.51 5.6213 2.4091 0 3.8813-0.49074 3.8813-3.5244s-5.0413-8.2088-14.856-8.2088z" fill="#fff" fill-rule="evenodd"/>
   <path d="m33.406 16c-9.601 0-17.406 7.805-17.406 17.406 0 2.8437 0.68416 5.5212 1.9062 7.9062 0.09573 0.18024 0.12928 0.39278 0.09375 0.59375-0.39701 1.9838-0.59375 4.0203-0.59375 6.0938 0 8.4253 3.4288 16.03 8.9375 21.562-4.938-5.432-7.938-12.641-7.938-20.562 0-0.16581-0.0025-0.33467 0-0.5-0.0027-0.16603 0-0.33332 0-0.5 0-1.9241 0.19127-3.7969 0.53125-5.5938 0.000176-0.01042 0.000176-0.02083 0-0.03125-0.009-0.021-0.02-0.042-0.031-0.063-1.222-2.385-1.906-5.062-1.906-7.906 0-0.12654 0.02855-0.2491 0.03125-0.375-0.008-0.21-0.031-0.412-0.031-0.625 0-9.043 7.363-16.406 16.406-16.406 0.21131 0 0.41564 0.02261 0.625 0.03125 0.126-0.002 0.249-0.031 0.375-0.031 2.8437 0 5.4898 0.7422 7.875 1.9688 0.02043 0.0112 0.04128 0.02163 0.0625 0.03125 0.01042 0.000176 0.02083 0.000176 0.03125 0 1.6431-0.32128 3.3369-0.52498 5.0625-0.5625 0.18618-0.004 0.37574-0.03125 0.5625-0.03125 0.16668 0 0.33397-0.0027 0.5 0 0.16537-0.0032 0.33412 0 0.5 0 7.921 0 15.13 2.9997 20.562 7.9375-5.532-5.509-13.137-8.938-21.562-8.938-2.0743 0-4.1094 0.25364-6.0938 0.65625-0.2107 0.04282-0.43613 0.009-0.625-0.09375-2.385-1.226-5.031-1.968-7.875-1.968z" fill="url(#linearGradient3781)"/>
   <path d="m62.594 80c9.601 0 17.406-7.805 17.406-17.406 0-2.844-0.684-5.521-1.906-7.906-0.096-0.181-0.13-0.393-0.094-0.594 0.397-1.984 0.594-4.021 0.594-6.094 0-8.4253-3.4288-16.03-8.9375-21.562 4.9378 5.4329 7.9375 12.641 7.9375 20.562 0 0.16581 0.0025 0.33467 0 0.5 0.0027 0.16603 0 0.33332 0 0.5 0 1.9241-0.19127 3.7969-0.53125 5.5938-0.000176 0.01042-0.000176 0.02083 0 0.03125 0.0096 0.02122 0.02005 0.04207 0.03125 0.0625 1.222 2.385 1.906 5.062 1.906 7.906 0 0.12654-0.02855 0.2491-0.03125 0.375 0.008 0.21 0.031 0.412 0.031 0.625 0 9.043-7.363 16.406-16.406 16.406-0.212 0-0.416-0.023-0.625-0.031-0.126 0.002-0.249 0.031-0.375 0.031-2.844 0-5.49-0.742-7.875-1.969-0.021-0.011-0.042-0.021-0.063-0.031-0.01042-0.000176-0.02083-0.000176-0.03125 0-1.6431 0.32128-3.3369 0.52498-5.0625 0.5625-0.18618 0.004-0.37574 0.03125-0.5625 0.03125-0.16668 0-0.33397 0.0027-0.5 0-0.16537 0.0032-0.33412 0-0.5 0-7.921 0-15.13-2.9997-20.562-7.9375 5.5324 5.5087 13.137 8.9375 21.562 8.9375 2.0743 0 4.1094-0.25364 6.0938-0.65625 0.2107-0.04282 0.43613-0.009 0.625 0.09375 2.385 1.227 5.031 1.969 7.875 1.969z" fill="url(#linearGradient3773)"/>
   <path d="m33.406 16.938c-8.5448 0-15.469 6.9239-15.469 15.469 0 0.21747 0.02255 0.44131 0.03125 0.65625 0.18354-8.3853 7.0081-15.125 15.438-15.125 2.6228 0 5.094 0.70209 7.2812 1.875a1.9466 1.9466 0 0 0 1.313 0.187c1.9368-0.41154 3.9585-0.65625 6-0.65625 15.676 0 28.388 12.546 28.656 28.156 0.0024-0.16542 0-0.33384 0-0.5 0-15.844-12.812-28.656-28.656-28.656-2.0415 0-4.0632 0.24471-6 0.65625a1.9466 1.9466 0 0 1 -1.3125 -0.1875c-2.1872-1.1729-4.6584-1.875-7.2812-1.875zm-18.312 16.125c-0.0022 0.11551-0.03125 0.22774-0.03125 0.34375 0 2.8901 0.70577 5.5949 1.9062 8.0312 0.04255-0.24084 0.07713-0.47955 0.125-0.71875-1.1899-2.3222-1.8999-4.9036-2-7.6562zm4.8125 8.0312c-0.38975 1.8718-0.5625 3.8632-0.5625 5.9062 0 0.16848-0.0029 0.33222 0 0.5 0.02813-1.9032 0.2225-3.7524 0.59375-5.5a1.9466 1.9466 0 0 0 -0.031 -0.906zm-3.437 6.406c-0.0026 0.16704 0 0.33255 0 0.5 0 17.398 14.133 31.531 31.531 31.531 2.1358 0 4.2393-0.21636 6.2812-0.625 2.511 1.2931 5.3055 2.0312 8.3125 2.0312 10.104 0 18.344-8.2401 18.344-18.344 0-0.21938-0.02346-0.43916-0.03125-0.65625-0.18622 9.9445-8.3249 18-18.312 18-3.007 0-5.8015-0.7382-8.3125-2.0312-2.0419 0.40864-4.1454 0.625-6.2812 0.625-17.231 0-31.263-13.864-31.531-31.031zm63.062 0c-0.03113 1.9635-0.2484 3.8994-0.625 5.7812 0.0462 0.08972 0.08022 0.19081 0.125 0.28125 0.32071-1.8151 0.5-3.6769 0.5-5.5625 0-0.16723 0.0026-0.33338 0-0.5zm-3.4375 6.4062c-0.007 0.032-0.025 0.062-0.032 0.094a1.9466 1.9466 0 0 0 0.1875 1.3438c1.0748 1.9936 1.6853 4.1818 1.7812 6.5938 0.0025-0.1148 0.03125-0.22834 0.03125-0.34375 0-2.6705-0.64155-5.0782-1.8125-7.25a1.9466 1.9466 0 0 1 -0.15625 -0.4375z" fill="#0088ba"/>
  </g>
  <rect x="-96" rx="25" y="958.36" clip-path="url(#clipPath3009)" fill="#fff" height="92" opacity="0.15" width="92" transform="matrix(1 0 0 1 98 0)"/>
 </g>
</svg>
