<svg height="96" width="96" xmlns="http://www.w3.org/2000/svg" xmlns:xlink="http://www.w3.org/1999/xlink" xmlns:sodipodi="http://sodipodi.sourceforge.net/DTD/sodipodi-0.dtd" xmlns:inkscape="http://www.inkscape.org/namespaces/inkscape">
 <defs>
  <clipPath clipPathUnits="userSpaceOnUse" id="clipPath3009">
   <path d="m-2 956.36h-96v33.562l96 25.687v-59.25z"/>
  </clipPath>
  <linearGradient x2="0" y1="90" y2="5.988" gradientUnits="userSpaceOnUse" id="linearGradient3063" gradientTransform="matrix(1.1429 0 0 1.1429 -6.857 949.51)">
   <stop stop-color="#92daf4"/>
   <stop stop-color="#cfedfc" offset="1"/>
  </linearGradient>
  <clipPath clipPathUnits="userSpaceOnUse" id="clipPath3018">
   <rect x="2" rx="25" y="958.36" height="92" width="92"/>
  </clipPath>
  <radialGradient cy="29.937" r="29.14" gradientUnits="userSpaceOnUse" id="radialGradient3838" cx="32.07" gradientTransform="matrix(1.6904 0 0 0.86287 -22.14 5.922)">
   <stop stop-color="#bfecfc"/>
   <stop stop-color="#0aa0d3" offset="1"/>
  </radialGradient>
  <path d="m334.66 205.43c0 5.682-5.2153 10.288-11.649 10.288-6.4334 0-11.649-4.6062-11.649-10.288 0-5.682 5.2153-10.288 11.649-10.288 6.4334 0 11.649 4.6062 11.649 10.288z" fill="#eeeeec" id="SVGCleanerId_0"/>
 </defs>
 <g transform="matrix(1 0 0 1 0 -956.36)">
  <rect rx="6.857" y="956.36" clip-path="url(#clipPath3018)" fill="url(#linearGradient3063)" height="96" width="96"/>
  <g transform="matrix(1.2011 0 0 1.2011 -7.917 948.75)">
   <rect x="19.418" stroke-width="4" rx="15.887" ry="15.194" y="20.05" fill="url(#radialGradient3838)" stroke="#000" height="46.28" width="54.27" stroke-linecap="round" stroke-linejoin="round"/>
   <use xlink:href="#SVGCleanerId_0" transform="matrix(1.0613 0 0 1.1806 -299.48 -201.99)"/>
   <rect x="27.437" stroke-width="4" rx="6.098" ry="5.407" y="55.13" fill="#eeeeec" stroke="#000" height="17.427" width="38.23" stroke-linecap="round" stroke-linejoin="round"/>
   <g transform="matrix(1 0 0 1 -404.19 29.23)">
    <rect x="454.07" rx="2" y="24.644" height="11.843" width="4.441"/>
    <rect x="442.98" rx="2" y="24.644" height="11.843" width="4.441"/>
   </g>
   <use xlink:href="#SVGCleanerId_0" transform="matrix(-0.03729 -0.5694 0.77454 0.37199 -83.41 137.27)"/>
   <use xlink:href="#SVGCleanerId_0" transform="matrix(0.57436 -0.1503 0.28775 0.60272 -180.56 -27.945)"/>
   <use xlink:href="#SVGCleanerId_0" transform="matrix(0.43839 -0.5098 0.3323 0.13486 -182.07 165.14)"/>
   <use xlink:href="#SVGCleanerId_0" transform="matrix(-0.08301 -0.52887 0.37333 -0.12168 -24.685 243.34)"/>
  </g>
  <rect x="-96" rx="25" y="958.36" clip-path="url(#clipPath3009)" fill="#fff" height="92" opacity="0.15" width="92" transform="matrix(1 0 0 1 98 0)"/>
 </g>
</svg>
