<svg height="96" width="96" xmlns="http://www.w3.org/2000/svg" xmlns:xlink="http://www.w3.org/1999/xlink" xmlns:sodipodi="http://sodipodi.sourceforge.net/DTD/sodipodi-0.dtd" xmlns:inkscape="http://www.inkscape.org/namespaces/inkscape">
 <defs>
  <filter x="-0.132" y="-0.132" height="1.264" id="filter4209" width="1.264" inkscape:collect="always">
   <feGaussianBlur stdDeviation="1.09995" inkscape:collect="always"/>
  </filter>
  <path d="m 52.999841,39.340386 c -4.78011,-2.759771 -10.89926,-1.120144 -13.65903,3.659866 -2.75977,4.780112 -1.1202,10.899435 3.65986,13.659376 4.78011,2.759771 10.89927,1.12011 13.65921,-3.660036 2.75909,-4.780112 1.11855,-10.899435 -3.66071,-13.659206 z m -3.22007,5.577334 c 1.70139,0.982292 2.28507,3.160247 1.30277,4.861631 -0.98229,1.701384 -3.16041,2.285065 -4.8618,1.302773 -1.70138,-0.982291 -2.28506,-3.160415 -1.30277,-4.8618 0.98229,-1.701384 3.16042,-2.284895 4.8618,-1.302604 z" fill-rule="evenodd" id="SVGCleanerId_0"/>
 </defs>
 <rect x="8.02" rx="10.769" y="-88" fill="#a37847" fill-opacity="0.992" stroke="none" height="80" opacity="0.99" width="80" transform="matrix(1 0 0 -1 0 0)"/>
 <path d="m 78.018692,8 -60,0 30.930193,3.431727 0,36.568273 0,36.568273 L 18.018692,88 l 60,0 -30.930193,-3.431727 0,-36.568273 0,-36.568273 z" fill="#6e431c" fill-opacity="1" stroke="none" sodipodi:nodetypes="ccccccccccc" inkscape:connector-curvature="0"/>
 <rect x="8" stroke-width="0.5" display="inline" y="40.5" fill="#e4cda5" color="#000000" fill-opacity="1" fill-rule="nonzero" stroke="none" height="15" visibility="visible" width="80"/>
 <use xlink:href="#SVGCleanerId_0" fill="#1a1a1a" filter="url(#filter4209)" opacity="0.365" inkscape:connector-curvature="0"/>
 <use xlink:href="#SVGCleanerId_0" fill="#e6e6e6" inkscape:connector-curvature="0"/>
</svg>
