<?xml version="1.0" encoding="UTF-8" standalone="no"?>
<!-- Created with Inkscape (http://www.inkscape.org/) -->

<svg
   xmlns:dc="http://purl.org/dc/elements/1.1/"
   xmlns:cc="http://creativecommons.org/ns#"
   xmlns:rdf="http://www.w3.org/1999/02/22-rdf-syntax-ns#"
   xmlns:svg="http://www.w3.org/2000/svg"
   xmlns="http://www.w3.org/2000/svg"
   xmlns:xlink="http://www.w3.org/1999/xlink"
   xmlns:sodipodi="http://sodipodi.sourceforge.net/DTD/sodipodi-0.dtd"
   xmlns:inkscape="http://www.inkscape.org/namespaces/inkscape"
   id="svg11037"
   height="96"
   width="96"
   version="1.1"
   inkscape:version="0.48.5 r10040"
   sodipodi:docname="soundconverter.svg">
  <sodipodi:namedview
     pagecolor="#ffffff"
     bordercolor="#666666"
     borderopacity="1"
     objecttolerance="10"
     gridtolerance="10"
     guidetolerance="10"
     inkscape:pageopacity="0"
     inkscape:pageshadow="2"
     inkscape:window-width="640"
     inkscape:window-height="480"
     id="namedview46584" />
  <defs
     id="defs11039">
    <linearGradient
       id="linearGradient11642"
       y2="1046.1"
       gradientUnits="userSpaceOnUse"
       y1="962.62"
       gradientTransform="matrix(1.15 0 0 1.15 -7.1999 -150.65)"
       x2="48"
       x1="48">
      <stop
         id="stop3698"
         style="stop-color:#2458a6"
         offset="0" />
      <stop
         id="stop3700"
         style="stop-color:#598ad4"
         offset="1" />
    </linearGradient>
    <linearGradient
       id="linearGradient3805-6"
       y2="13.593"
       gradientUnits="userSpaceOnUse"
       x2="56.037"
       y1="49.333"
       x1="56.037">
      <stop
         id="stop3801-3"
         style="stop-color:#1a1a1a"
         offset="0" />
      <stop
         id="stop3803-2"
         offset="1" />
    </linearGradient>
    <radialGradient
       id="radialGradient3755-8"
       gradientUnits="userSpaceOnUse"
       cy="69.609"
       cx="49.171"
       gradientTransform="matrix(.85252 .16517 -.12915 .69789 15.599 11.45)"
       r="10">
      <stop
         id="stop3786-4"
         style="stop-color:#828282"
         offset="0" />
      <stop
         id="stop3790-2"
         style="stop-color:#1a1a1a"
         offset="1" />
    </radialGradient>
    <linearGradient
       id="linearGradient3775-9"
       y2="72.839"
       xlink:href="#linearGradient3769-3"
       gradientUnits="userSpaceOnUse"
       x2="50.134"
       y1="55.024"
       x1="49.659" />
    <linearGradient
       id="linearGradient3769-3">
      <stop
         id="stop3771-7"
         style="stop-color:#fff"
         offset="0" />
      <stop
         id="stop3773-8"
         style="stop-color:#fff;stop-opacity:0"
         offset="1" />
    </linearGradient>
    <radialGradient
       id="radialGradient3817-3"
       xlink:href="#linearGradient3769-3"
       gradientUnits="userSpaceOnUse"
       cy="36"
       cx="55.5"
       gradientTransform="matrix(1,0,0,26,1,-900)" />
    <linearGradient
       id="linearGradient3830-8"
       y2="19"
       xlink:href="#linearGradient3769-3"
       gradientUnits="userSpaceOnUse"
       x2="57"
       gradientTransform="translate(1)"
       y1="35"
       x1="67" />
    <linearGradient
       id="linearGradient4113"
       y2="32"
       xlink:href="#linearGradient4099"
       gradientUnits="userSpaceOnUse"
       x2="40"
       y1="62.984"
       x1="22.111" />
    <linearGradient
       id="linearGradient4099">
      <stop
         id="stop4101"
         style="stop-color:#9ebe1c"
         offset="0" />
      <stop
         id="stop4103"
         style="stop-color:#dae54d"
         offset="1" />
    </linearGradient>
    <linearGradient
       id="linearGradient4105"
       y2="49"
       xlink:href="#linearGradient4099"
       gradientUnits="userSpaceOnUse"
       x2="70"
       y1="74"
       x1="38" />
    <linearGradient
       id="linearGradient4128"
       y2="71.021"
       xlink:href="#linearGradient3769-3"
       gradientUnits="userSpaceOnUse"
       x2="47.979"
       y1="47"
       x1="72" />
    <linearGradient
       id="linearGradient3202"
       y2="57"
       xlink:href="#linearGradient3769-3"
       gradientUnits="userSpaceOnUse"
       y1="29"
       x2="26"
       x1="37" />
    <clipPath
       id="clipPath3009"
       clipPathUnits="userSpaceOnUse">
      <path
         id="path3011"
         style="opacity:.15;fill:#fff"
         d="m-2 956.36h-96v33.562l96 25.687v-59.25z" />
    </clipPath>
  </defs>
  <metadata
     id="metadata11042">
    <rdf:RDF>
      <cc:Work
         rdf:about="">
        <dc:format>image/svg+xml</dc:format>
        <dc:type
           rdf:resource="http://purl.org/dc/dcmitype/StillImage" />
        <dc:title />
      </cc:Work>
    </rdf:RDF>
  </metadata>
  <g
     id="layer1"
     transform="translate(0 -956.36)">
    <rect
       id="rect3867"
       style="fill:url(#linearGradient11642)"
       rx="25"
       ry="25"
       height="92"
       width="92"
       y="958.36"
       x="2" />
    <g
       id="g3117"
       transform="translate(0 956.36)">
      <path
         id="path4140"
         d="m48 31c-2.2616 0.0035-4.5145 0.28438-6.7188 0.875-13.87 3.716-22.122 17.974-18.406 31.844l-4.8125 1.3125 11.281 7.3125 6.094-11.969-4.813 1.281c-2.573-9.602 3.116-19.458 12.719-22.031 1.526-0.409 3.09-0.624 4.656-0.625v-8zm22 16-9 10h5c0 9.9411-8.0589 18-18 18-3.1597 0-6.2637-0.82642-9-2.4062l-4 6.9375c3.952 2.281 8.436 3.468 13 3.468 14.359 0 26-11.641 26-26h5l-9-10z"
         style="opacity:.3;color:#000000" />
      <path
         id="path3261"
         d="m54.156 10v39.438c1.3216 0.82593 2.4028 1.9142 3.125 3.25 0.26664 0.49324 0.56622 1.0127 0.71875 1.5312v-33.031c3.7268 2.6581 12.671 12.968 8.3438 25.125 2.396-6.238 2.614-12.927 1.718-16.532-1.084-4.361-4.745-8.857-8.531-12.906-3.977-4.254-5.375-6.875-5.375-6.875z"
         style="fill:url(#linearGradient3805-6)" />
      <path
         id="path3688"
         d="m60 63a10 8 0 1 1 -20 0 10 8 0 1 1 20 0z"
         style="color:#000000;fill:url(#radialGradient3755-8)"
         transform="matrix(.92961 -.42062 .45976 .85046 -27.446 23.452)" />
      <path
         id="path3777"
         d="m49.188 48c-1.6003 0.07229-3.2706 0.46156-4.875 1.1875-5.1341 2.323-7.6251 7.2737-5.5938 11.031 2.0314 3.7576 7.8346 4.9168 12.969 2.5938 5.1341-2.323 7.6251-7.2737 5.5938-11.031-1.397-2.583-4.574-3.94-8.094-3.781zm0.03125 0.9375c3.1801-0.15006 5.9974 1.0485 7.1875 3.25 1.7311 3.2021-0.44196 7.6341-5.1875 9.7812-4.7455 2.1472-9.8939 1.0459-11.625-2.1562s0.44196-7.6341 5.1875-9.7812c1.483-0.671 2.992-1.0255 4.4375-1.0938z"
         style="color:#000000;fill:#1a1a1a" />
      <path
         id="path3765"
         d="m60 63a10 8 0 1 1 -20 0 10 8 0 1 1 20 0z"
         style="opacity:.8;color:#000000;fill:url(#linearGradient3775-9)"
         transform="matrix(0.6 -.27148 .29674 .54891 -1.9918 33.113)" />
      <path
         id="path3794"
         d="m56.844 54c-0.20231 2.5957-2.2271 5.3547-5.6562 6.9062-4.7034 2.1281-9.8015 0.98569-11.5-2.1562-0.29795-0.55115-0.46132-1.141-0.53125-1.75-0.07518 0.96458 0.07107 1.8988 0.53125 2.75 1.6985 3.1419 6.7966 4.2844 11.5 2.1562 3.878-1.755 5.984-5.043 5.656-7.906z"
         style="opacity:.2;color:#000000;fill:#fff" />
      <rect
         id="rect3809"
         style="opacity:.2;color:#000000;fill:url(#radialGradient3817-3)"
         rx="6"
         ry="6"
         height="26"
         width="1"
         y="23"
         x="56" />
      <path
         id="path3821"
         d="m56.25 13.406v5.5312s2.3851 0.38512 3.375 1.375c2.07 1.4764 5.2782 4.7882 7.5312 9.4062 0.46361 0.95028 0.86398 1.9755 1.2188 3.0312-0.069-1.022-0.193-1.987-0.375-2.718-0.988-3.974-4.5-8.395-8.25-12.406-1.642-1.757-2.627-3.054-3.5-4.219z"
         style="opacity:.3;fill:url(#linearGradient3830-8)" />
      <path
         id="path4085"
         d="m48 30c-2.2616 0.0035-4.5145 0.28438-6.7188 0.875-13.87 3.716-22.122 17.974-18.406 31.844l-4.8125 1.3125 11.281 7.3125 6.094-11.969-4.813 1.281c-2.573-9.602 3.116-19.458 12.719-22.031 1.526-0.409 3.09-0.624 4.656-0.625v-8z"
         style="color:#000000;fill:url(#linearGradient4113)" />
      <path
         id="path3732"
         d="m70 46-9 10h5c0 9.9411-8.0589 18-18 18-3.1597 0-6.2637-0.82642-9-2.4062l-4 6.9375c3.952 2.281 8.436 3.468 13 3.468 14.359 0 26-11.641 26-26h5l-9-10z"
         style="color:#000000;fill:url(#linearGradient4105)" />
      <path
         id="path4115"
         d="m70 46-9 10h5c0 9.9411-8.0589 18-18 18-3.1597 0-6.2637-0.82642-9-2.4062l-4 6.9375c3.952 2.281 8.436 3.468 13 3.468 14.359 0 26-11.641 26-26h5l-9-10zm0 0.96875 7.5625 8.375h-3.5625a0.64754 0.64754 0 0 0 -0.656 0.656c0 14.009-11.334 25.344-25.344 25.344-4.2328 0-8.3827-1.0785-12.094-3.0938l3.375-5.8438c2.6932 1.4316 5.6629 2.25 8.7188 2.25 10.291 0 18.656-8.3652 18.656-18.656a0.64754 0.64754 0 0 0 -0.656 -0.656h-3.5625l7.5625-8.375z"
         style="opacity:.6;color:#000000;fill:url(#linearGradient4128)" />
      <path
         id="path4142"
         d="m48 30c-2.2616 0.0035-4.5145 0.28438-6.7188 0.875-13.87 3.716-22.122 17.974-18.406 31.844l-4.8125 1.3125 11.281 7.3125 6.094-11.969-4.813 1.281c-2.573-9.602 3.116-19.458 12.719-22.031 1.526-0.409 3.09-0.624 4.656-0.625v-8zm-0.90625 1.0312v6.1875c-1.339 0.069-2.668 0.183-3.969 0.532-10.072 2.699-16.074 13.053-13.375 23.125a0.90087 0.90087 0 0 0 1.0938 0.65625l2.875-0.75-4.719 9.25-8.75-5.656 2.875-0.781a0.90087 0.90087 0 0 0 0.625 -1.094c-3.59-13.399 4.35-27.159 17.75-30.75 1.8284-0.48992 3.7151-0.65094 5.5938-0.71875z"
         style="opacity:.6;color:#000000;fill:url(#linearGradient3202)" />
    </g>
    <rect
       id="rect3003"
       style="opacity:.15;fill:#fff"
       transform="translate(98 3.8281e-7)"
       clip-path="url(#clipPath3009)"
       rx="25"
       ry="25"
       height="92"
       width="92"
       y="958.36"
       x="-96" />
  </g>
</svg>
