<svg height="96" width="96" xmlns="http://www.w3.org/2000/svg" xmlns:xlink="http://www.w3.org/1999/xlink" xmlns:sodipodi="http://sodipodi.sourceforge.net/DTD/sodipodi-0.dtd" xmlns:inkscape="http://www.inkscape.org/namespaces/inkscape">
 <defs>
  <clipPath id="clipPath3146">
   <rect x="-8.01" rx="10.286" y="-32.01" height="144.01" width="144.01"/>
  </clipPath>
  <radialGradient cy="65.949" r="42" gradientUnits="userSpaceOnUse" id="radialGradient3153" cx="47.581" gradientTransform="matrix(1.9763 0 0 1.9962 -30.753 -110.38)">
   <stop stop-color="#bdd84a" stop-opacity="1"/>
   <stop stop-color="#96be2c" stop-opacity="0.996" offset="0.611"/>
   <stop stop-color="#6fa40f" stop-opacity="0.996" offset="1"/>
  </radialGradient>
  <clipPath id="clipPath4252">
   <path d="m 0,35.999999 0,26.412313 c -0.00781333,1.760677 0,3.640398 0,5.643657 l 0,23.888059 c 0,2.003266 -0.00781333,3.882974 0,5.643657 L 0,124 l 26.375,0 43.25,0 26.375,0 0,-26.412315 c 0.0078,-1.760683 0,-3.640391 0,-5.643657 l 0,-23.888059 c 0,-2.003259 0.0078,-3.88298 0,-5.643657 l 0,-26.412313 -26.375,0 -43.25,0 -26.375,0 z" inkscape:connector-curvature="0"/>
  </clipPath>
  <filter color-interpolation-filters="sRGB" id="filter4205">
   <feGaussianBlur stdDeviation="0.58616"/>
  </filter>
  <linearGradient x1="48.866" x2="68.41" y1="87.35" y2="93.22" spreadMethod="reflect" gradientUnits="userSpaceOnUse" id="linearGradient3155">
   <stop stop-color="#6d931d" stop-opacity="1"/>
   <stop stop-color="#547d11" stop-opacity="1" offset="1"/>
  </linearGradient>
  <linearGradient x1="48.811" x2="78.64" y1="72.18" y2="75.955" spreadMethod="reflect" gradientUnits="userSpaceOnUse" id="linearGradient3157">
   <stop stop-color="#5d891a" stop-opacity="1"/>
   <stop stop-color="#3b660d" stop-opacity="1" offset="1"/>
  </linearGradient>
  <linearGradient x1="51.07" x2="84.61" y1="57.54" y2="66.53" spreadMethod="reflect" gradientUnits="userSpaceOnUse" id="linearGradient3159">
   <stop stop-color="#4d8217" stop-opacity="1"/>
   <stop stop-color="#305e0b" stop-opacity="1" offset="1"/>
  </linearGradient>
  <radialGradient cy="114.75" r="54.625" gradientUnits="userSpaceOnUse" id="radialGradient3161" cx="3.986" gradientTransform="matrix(0.77877 0 0 0.74469 38.02 21.82)">
   <stop stop-color="#295a08" stop-opacity="1"/>
   <stop stop-color="#153903" stop-opacity="0.996" offset="1"/>
  </radialGradient>
  <clipPath id="clipPath4194">
   <use xlink:href="#SVGCleanerId_0" inkscape:connector-curvature="0"/>
  </clipPath>
  <clipPath clipPathUnits="userSpaceOnUse" id="clipPath3856">
   <rect x="6" rx="22.826" y="6" height="84" width="84"/>
  </clipPath>
  <clipPath clipPathUnits="userSpaceOnUse" id="clipPath3009">
   <path d="m -2,956.36218 -96,0 0,33.5624 96,25.68742 0,-59.24982 z" inkscape:connector-curvature="0"/>
  </clipPath>
  <path d="m 36.75,47.375001 c -7.098447,0.116755 -14.605643,0.938733 -22.21875,2.84375 a 5.0004998,5.0004998 0 1 0 2.4375,9.6875 c 30.881003,-7.727311 61.3125,4.8125 61.3125,4.8125 a 5.0144324,5.0144324 0 1 0 3.875,-9.25 c 0,0 -18.462624,-7.836962 -42.375,-8.09375 -0.996349,-0.0107 -2.017186,-0.01668 -3.03125,0 z m 1.03125,18 c -6.273659,0.03688 -13.053152,0.696379 -20.1875,2.40625 a 4.0135573,4.0135573 0 1 0 1.84375,7.8125 c 29.691876,-7.116174 52.71875,4.90625 52.71875,4.90625 a 4.0004,4.0004 0 1 0 3.6875,-7.09375 c 0,0 -14.428844,-7.553625 -35.40625,-8.03125 -0.874059,-0.0199 -1.760013,-0.0053 -2.65625,0 z m -0.46875,16.90625 c -5.506265,-0.02531 -11.565887,0.507181 -18.03125,1.9375 a 3.009912,3.009912 0 1 0 1.3125,5.875 c 27.495824,-6.082848 46.03125,4.78125 46.03125,4.78125 a 3.0041069,3.0041069 0 1 0 3.03125,-5.1875 c 0,0 -11.708641,-6.761304 -30.03125,-7.375 -0.763442,-0.02557 -1.525891,-0.02763 -2.3125,-0.03125 z m -0.875,16.4375 c -25.108554,0 -46.125,19.575999 -46.125,44.093749 0,24.51775 21.016446,44.09375 46.125,44.09375 25.108555,0 46.125,-19.576 46.125,-44.09375 0,-24.51774 -21.016445,-44.093749 -46.125,-44.093749 z m 0,15.687499 c 14.430156,0 25.5625,12.47664 25.5625,27.5 0,15.02335 -11.132344,27.53125 -25.5625,27.53125 -14.43015,0 -25.5625,-12.5079 -25.5625,-27.53125 0,-15.02336 11.13235,-27.5 25.5625,-27.5 z" id="SVGCleanerId_0"/>
 </defs>
 <g inkscape:label="Layer 1" inkscape:groupmode="layer" transform="matrix(1 0 0 1 0 -956.36)">
  <g clip-path="url(#clipPath3856)" transform="matrix(1.09524 0 0 1.09524 -4.571 951.79)">
   <g clip-path="url(#clipPath3146)" transform="matrix(0.58329 0 0 0.58329 10.669 24.671)">
    <path d="m -8,-39.144096 0,57.362846 c -0.01172,2.68103 0,5.543333 0,8.59375 l 0,36.375 c 0,3.050428 -0.01172,5.91271 0,8.59375 L -8,112 31.5625,112 96.437501,112 136,112 136,71.78125 c 0.0117,-2.68104 0,-5.543322 0,-8.59375 l 0,-36.375 c 0,-3.050417 0.0117,-5.91272 0,-8.59375 l 0,-57.362846 -39.562499,0 -64.875001,0 z" fill="url(#radialGradient3153)" fill-opacity="1" stroke="none" inkscape:connector-curvature="0"/>
    <g clip-path="url(#clipPath4252)" transform="matrix(1.5 0 0 1.52273 -8 -76.82)">
     <use stroke-width="1.714" display="inline" xlink:href="#SVGCleanerId_0" fill="#ffffff" color="#000000" fill-opacity="1" stroke="#ffffff" stroke-dasharray="none" filter="url(#filter4205)" visibility="visible" opacity="0.3" stroke-miterlimit="4" inkscape:connector-curvature="0"/>
     <g transform="matrix(1.08405 0 0 1.08405 -7.248 -9.106)">
      <path stroke-width="5.535" d="m 43.25,84.34375 c -5.634008,-0.188705 -11.965146,0.242087 -18.78125,1.75 A 2.7709606,2.7709606 0 1 0 25.6875,91.5 c 25.364021,-5.611233 42.46875,4.40625 42.46875,4.40625 A 2.7676811,2.7676811 0 1 0 70.9375,91.125 c 0,0 -10.785477,-6.215135 -27.6875,-6.78125 z" display="inline" fill="url(#linearGradient3155)" color="#000000" fill-opacity="1" stroke="none" visibility="visible" inkscape:connector-curvature="0"/>
      <path stroke-width="7.38" d="M 44,68.71875 C 37.549671,68.571885 30.427631,69.13487 22.90625,70.9375 A 3.695073,3.695073 0 1 0 24.625,78.125 C 52.014809,71.560556 73.25,82.65625 73.25,82.65625 A 3.6902415,3.6902415 0 1 0 76.65625,76.125 c 0,0 -13.305262,-6.965656 -32.65625,-7.40625 z" display="inline" fill="url(#linearGradient3157)" color="#000000" fill-opacity="1" stroke="none" visibility="visible" inkscape:connector-curvature="0"/>
      <path stroke-width="9.225" d="m 43.375,52.09375 c -7.352802,-0.07896 -15.255137,0.616637 -23.28125,2.625 a 4.6128017,4.6128017 0 1 0 2.25,8.9375 c 28.486741,-7.128198 56.5625,4.4375 56.5625,4.4375 a 4.6225976,4.6225976 0 1 0 3.5625,-8.53125 c 0,0 -17.035345,-7.231871 -39.09375,-7.46875 z" display="inline" fill="url(#linearGradient3159)" color="#000000" fill-opacity="1" stroke="none" visibility="visible" inkscape:connector-curvature="0"/>
      <path stroke-width="20.687" d="m 40.304777,99.46603 c -23.161841,0 -42.5404367,18.04967 -42.5404367,40.66651 0,22.61684 19.3785957,40.69086 42.5404367,40.69086 23.161842,0 42.540436,-18.07402 42.540436,-40.69086 0,-22.61683 -19.378594,-40.66651 -42.540436,-40.66651 z m 0,14.4803 c 13.311359,0 23.582198,11.5002 23.582198,25.35877 0,13.85856 -10.270839,25.40744 -23.582198,25.40744 -13.311353,0 -23.582199,-11.54888 -23.582199,-25.40744 0,-13.85857 10.270846,-25.35877 23.582199,-25.35877 z" display="inline" fill="url(#radialGradient3161)" color="#000000" fill-opacity="1" stroke="none" visibility="visible" inkscape:connector-curvature="0"/>
     </g>
     <use stroke-width="1.714" display="inline" xlink:href="#SVGCleanerId_0" clip-path="url(#clipPath4194)" fill="none" color="#000000" stroke="#000000" stroke-dasharray="none" filter="url(#filter4205)" visibility="visible" opacity="0.4" stroke-miterlimit="4" inkscape:connector-curvature="0"/>
    </g>
   </g>
  </g>
  <rect x="-96" rx="25" y="958.36" clip-path="url(#clipPath3009)" fill="#ffffff" fill-opacity="1" height="92" opacity="0.15" width="92" transform="matrix(1 0 0 1 98 0)"/>
 </g>
</svg>
