<?xml version="1.0" encoding="UTF-8" standalone="no"?>
<!-- Created with Inkscape (http://www.inkscape.org/) -->

<svg
   xmlns:dc="http://purl.org/dc/elements/1.1/"
   xmlns:cc="http://creativecommons.org/ns#"
   xmlns:rdf="http://www.w3.org/1999/02/22-rdf-syntax-ns#"
   xmlns:svg="http://www.w3.org/2000/svg"
   xmlns="http://www.w3.org/2000/svg"
   xmlns:xlink="http://www.w3.org/1999/xlink"
   xmlns:sodipodi="http://sodipodi.sourceforge.net/DTD/sodipodi-0.dtd"
   xmlns:inkscape="http://www.inkscape.org/namespaces/inkscape"
   width="96"
   height="96"
   id="svg11037"
   version="1.1"
   inkscape:version="0.48.5 r10040"
   sodipodi:docname="spotify.svg">
  <defs
     id="defs11039">
    <clipPath
       id="clipPath3146">
      <rect
         width="144.01041"
         height="144.01041"
         rx="10.286458"
         ry="10.286458"
         x="-8.0052099"
         y="-32.01041"
         id="rect3148"
         style="fill:#ff00ff;fill-opacity:1;fill-rule:nonzero;stroke:none" />
    </clipPath>
    <radialGradient
       cx="47.58062"
       cy="65.949036"
       r="42.000011"
       fx="47.58062"
       fy="65.949036"
       id="radialGradient3153"
       xlink:href="#linearGradient3915"
       gradientUnits="userSpaceOnUse"
       gradientTransform="matrix(1.9762999,0,0,1.9962029,-30.752597,-110.3786)" />
    <linearGradient
       id="linearGradient3915">
      <stop
         id="stop3917"
         style="stop-color:#bdd84a;stop-opacity:1"
         offset="0" />
      <stop
         id="stop4331"
         style="stop-color:#96be2c;stop-opacity:0.99607843"
         offset="0.6111111" />
      <stop
         id="stop3919"
         style="stop-color:#6fa40f;stop-opacity:0.99607843"
         offset="1" />
    </linearGradient>
    <clipPath
       id="clipPath4252">
      <path
         d="m 0,35.999999 0,26.412313 c -0.00781333,1.760677 0,3.640398 0,5.643657 l 0,23.888059 c 0,2.003266 -0.00781333,3.882974 0,5.643657 L 0,124 l 26.375,0 43.25,0 26.375,0 0,-26.412315 c 0.0078,-1.760683 0,-3.640391 0,-5.643657 l 0,-23.888059 c 0,-2.003259 0.0078,-3.88298 0,-5.643657 l 0,-26.412313 -26.375,0 -43.25,0 -26.375,0 z"
         inkscape:connector-curvature="0"
         id="path4254"
         style="fill:#ff00ff;fill-opacity:1;stroke:none" />
    </clipPath>
    <filter
       color-interpolation-filters="sRGB"
       id="filter4205">
      <feGaussianBlur
         id="feGaussianBlur4207"
         stdDeviation="0.58615815" />
    </filter>
    <linearGradient
       x1="48.866333"
       y1="87.345551"
       x2="68.408249"
       y2="93.217575"
       id="linearGradient3155"
       xlink:href="#linearGradient3978"
       gradientUnits="userSpaceOnUse"
       spreadMethod="reflect" />
    <linearGradient
       id="linearGradient3978">
      <stop
         id="stop3980"
         style="stop-color:#6d931d;stop-opacity:1"
         offset="0" />
      <stop
         id="stop3982"
         style="stop-color:#547d11;stop-opacity:1"
         offset="1" />
    </linearGradient>
    <linearGradient
       x1="48.811367"
       y1="72.18055"
       x2="78.640907"
       y2="75.955421"
       id="linearGradient3157"
       xlink:href="#linearGradient3970"
       gradientUnits="userSpaceOnUse"
       spreadMethod="reflect" />
    <linearGradient
       id="linearGradient3970">
      <stop
         id="stop3972"
         style="stop-color:#5d891a;stop-opacity:1"
         offset="0" />
      <stop
         id="stop3974"
         style="stop-color:#3b660d;stop-opacity:1"
         offset="1" />
    </linearGradient>
    <linearGradient
       x1="51.072086"
       y1="57.542301"
       x2="84.610764"
       y2="66.528961"
       id="linearGradient3159"
       xlink:href="#linearGradient3962"
       gradientUnits="userSpaceOnUse"
       spreadMethod="reflect" />
    <linearGradient
       id="linearGradient3962">
      <stop
         id="stop3964"
         style="stop-color:#4d8217;stop-opacity:1"
         offset="0" />
      <stop
         id="stop3966"
         style="stop-color:#305e0b;stop-opacity:1"
         offset="1" />
    </linearGradient>
    <radialGradient
       cx="3.9860761"
       cy="114.75382"
       r="54.625"
       fx="3.9860761"
       fy="114.75382"
       id="radialGradient3161"
       xlink:href="#linearGradient3946"
       gradientUnits="userSpaceOnUse"
       gradientTransform="matrix(0.77877229,0,0,0.74468987,38.017133,21.820474)" />
    <linearGradient
       id="linearGradient3946">
      <stop
         id="stop3948"
         style="stop-color:#295a08;stop-opacity:1"
         offset="0" />
      <stop
         id="stop3950"
         style="stop-color:#153903;stop-opacity:0.99607843"
         offset="1" />
    </linearGradient>
    <clipPath
       id="clipPath4194">
      <path
         d="m 36.75,47.375001 c -7.098447,0.116755 -14.605643,0.938733 -22.21875,2.84375 a 5.0004998,5.0004998 0 1 0 2.4375,9.6875 c 30.881003,-7.727311 61.3125,4.8125 61.3125,4.8125 a 5.0144324,5.0144324 0 1 0 3.875,-9.25 c 0,0 -18.462624,-7.836962 -42.375,-8.09375 -0.996349,-0.0107 -2.017186,-0.01668 -3.03125,0 z m 1.03125,18 c -6.273659,0.03688 -13.053152,0.696379 -20.1875,2.40625 a 4.0135573,4.0135573 0 1 0 1.84375,7.8125 c 29.691876,-7.116174 52.71875,4.90625 52.71875,4.90625 a 4.0004,4.0004 0 1 0 3.6875,-7.09375 c 0,0 -14.428844,-7.553625 -35.40625,-8.03125 -0.874059,-0.0199 -1.760013,-0.0053 -2.65625,0 z m -0.46875,16.90625 c -5.506265,-0.02531 -11.565887,0.507181 -18.03125,1.9375 a 3.009912,3.009912 0 1 0 1.3125,5.875 c 27.495824,-6.082848 46.03125,4.78125 46.03125,4.78125 a 3.0041069,3.0041069 0 1 0 3.03125,-5.1875 c 0,0 -11.708641,-6.761304 -30.03125,-7.375 -0.763442,-0.02557 -1.525891,-0.02763 -2.3125,-0.03125 z m -0.875,16.4375 c -25.108554,0 -46.125,19.575999 -46.125,44.093749 0,24.51775 21.016446,44.09375 46.125,44.09375 25.108555,0 46.125,-19.576 46.125,-44.09375 0,-24.51774 -21.016445,-44.093749 -46.125,-44.093749 z m 0,15.687499 c 14.430156,0 25.5625,12.47664 25.5625,27.5 0,15.02335 -11.132344,27.53125 -25.5625,27.53125 -14.43015,0 -25.5625,-12.5079 -25.5625,-27.53125 0,-15.02336 11.13235,-27.5 25.5625,-27.5 z"
         inkscape:connector-curvature="0"
         id="path4196"
         style="font-size:medium;font-style:normal;font-variant:normal;font-weight:normal;font-stretch:normal;text-indent:0;text-align:start;text-decoration:none;line-height:normal;letter-spacing:normal;word-spacing:normal;text-transform:none;direction:ltr;block-progression:tb;writing-mode:lr-tb;text-anchor:start;baseline-shift:baseline;color:#000000;fill:#ff00ff;fill-opacity:1;stroke:none;stroke-width:5.53480864;marker:none;visibility:visible;display:inline;overflow:visible;enable-background:accumulate;font-family:Sans;-inkscape-font-specification:Sans" />
    </clipPath>
    <filter
       color-interpolation-filters="sRGB"
       id="filter4190">
      <feGaussianBlur
         id="feGaussianBlur4192"
         stdDeviation="0.58615815" />
    </filter>
    <clipPath
       clipPathUnits="userSpaceOnUse"
       id="clipPath3856">
      <rect
         x="6.0000005"
         y="6.0000038"
         width="84"
         height="84"
         style="fill:url(#linearGradient3860);fill-opacity:1"
         id="rect3858"
         rx="22.826086"
         ry="22.826086" />
    </clipPath>
    <linearGradient
       inkscape:collect="always"
       xlink:href="#linearGradient3915"
       id="linearGradient3860"
       gradientUnits="userSpaceOnUse"
       gradientTransform="matrix(1.05,0,0,1.05,-2.3999504,-1006.579)"
       x1="47.999954"
       y1="962.62189"
       x2="47.999954"
       y2="1046.1001" />
    <clipPath
       clipPathUnits="userSpaceOnUse"
       id="clipPath3009">
      <path
         id="path3011"
         d="m -2,956.36218 -96,0 0,33.5624 96,25.68742 0,-59.24982 z"
         style="opacity:0.15;fill:#ffffff;fill-opacity:1;stroke:none"
         inkscape:connector-curvature="0" />
    </clipPath>
  </defs>
  <sodipodi:namedview
     id="base"
     pagecolor="#ffffff"
     bordercolor="#666666"
     borderopacity="1.0"
     inkscape:pageopacity="0.0"
     inkscape:pageshadow="2"
     inkscape:zoom="3.959798"
     inkscape:cx="33.538031"
     inkscape:cy="59.964634"
     inkscape:document-units="px"
     inkscape:current-layer="layer1"
     showgrid="false"
     inkscape:window-width="1280"
     inkscape:window-height="750"
     inkscape:window-x="0"
     inkscape:window-y="22"
     inkscape:window-maximized="1"
     showguides="true"
     inkscape:guide-bbox="true">
    <sodipodi:guide
       orientation="0,1"
       position="-24.748737,0"
       id="guide11064" />
    <sodipodi:guide
       orientation="0,1"
       position="-23.233509,96"
       id="guide11066" />
    <sodipodi:guide
       orientation="1,0"
       position="0,54.800776"
       id="guide11068" />
    <sodipodi:guide
       orientation="1,0"
       position="96,51.012704"
       id="guide11070" />
    <sodipodi:guide
       orientation="0,1"
       position="-18.94036,48"
       id="guide11072" />
    <sodipodi:guide
       orientation="1,0"
       position="48,79.296975"
       id="guide11074" />
    <sodipodi:guide
       orientation="1,0"
       position="2,75.508903"
       id="guide11076" />
    <sodipodi:guide
       orientation="0,1"
       position="-77.27667,2"
       id="guide11078" />
    <sodipodi:guide
       orientation="1,0"
       position="94,77.781746"
       id="guide11080" />
    <sodipodi:guide
       orientation="0,1"
       position="-65.912454,94"
       id="guide11082" />
  </sodipodi:namedview>
  <metadata
     id="metadata11042">
    <rdf:RDF>
      <cc:Work
         rdf:about="">
        <dc:format>image/svg+xml</dc:format>
        <dc:type
           rdf:resource="http://purl.org/dc/dcmitype/StillImage" />
        <dc:title />
      </cc:Work>
    </rdf:RDF>
  </metadata>
  <g
     inkscape:label="Layer 1"
     inkscape:groupmode="layer"
     id="layer1"
     transform="translate(0,-956.36218)">
    <g
       transform="matrix(1.0952381,0,0,1.0952381,-4.5714291,951.79075)"
       id="g3065"
       clip-path="url(#clipPath3856)">
      <g
         id="g3142"
         clip-path="url(#clipPath3146)"
         transform="matrix(0.58329117,0,0,0.58329117,10.669368,24.67139)">
        <path
           style="fill:url(#radialGradient3153);fill-opacity:1;stroke:none"
           id="path8459"
           inkscape:connector-curvature="0"
           d="m -8,-39.144096 0,57.362846 c -0.01172,2.68103 0,5.543333 0,8.59375 l 0,36.375 c 0,3.050428 -0.01172,5.91271 0,8.59375 L -8,112 31.5625,112 96.437501,112 136,112 136,71.78125 c 0.0117,-2.68104 0,-5.543322 0,-8.59375 l 0,-36.375 c 0,-3.050417 0.0117,-5.91272 0,-8.59375 l 0,-57.362846 -39.562499,0 -64.875001,0 z" />
        <g
           id="g4209"
           clip-path="url(#clipPath4252)"
           transform="matrix(1.5,0,0,1.5227273,-8,-76.818182)">
          <path
             style="font-size:medium;font-style:normal;font-variant:normal;font-weight:normal;font-stretch:normal;text-indent:0;text-align:start;text-decoration:none;line-height:normal;letter-spacing:normal;word-spacing:normal;text-transform:none;direction:ltr;block-progression:tb;writing-mode:lr-tb;text-anchor:start;baseline-shift:baseline;opacity:0.3;color:#000000;fill:#ffffff;fill-opacity:1;stroke:#ffffff;stroke-width:1.71440959;stroke-miterlimit:4;stroke-dasharray:none;marker:none;visibility:visible;display:inline;overflow:visible;filter:url(#filter4205);enable-background:accumulate;font-family:Sans;-inkscape-font-specification:Sans"
             id="path4153-5"
             inkscape:connector-curvature="0"
             d="m 36.75,47.375001 c -7.098447,0.116755 -14.605643,0.938733 -22.21875,2.84375 a 5.0004998,5.0004998 0 1 0 2.4375,9.6875 c 30.881003,-7.727311 61.3125,4.8125 61.3125,4.8125 a 5.0144324,5.0144324 0 1 0 3.875,-9.25 c 0,0 -18.462624,-7.836962 -42.375,-8.09375 -0.996349,-0.0107 -2.017186,-0.01668 -3.03125,0 z m 1.03125,18 c -6.273659,0.03688 -13.053152,0.696379 -20.1875,2.40625 a 4.0135573,4.0135573 0 1 0 1.84375,7.8125 c 29.691876,-7.116174 52.71875,4.90625 52.71875,4.90625 a 4.0004,4.0004 0 1 0 3.6875,-7.09375 c 0,0 -14.428844,-7.553625 -35.40625,-8.03125 -0.874059,-0.0199 -1.760013,-0.0053 -2.65625,0 z m -0.46875,16.90625 c -5.506265,-0.02531 -11.565887,0.507181 -18.03125,1.9375 a 3.009912,3.009912 0 1 0 1.3125,5.875 c 27.495824,-6.082848 46.03125,4.78125 46.03125,4.78125 a 3.0041069,3.0041069 0 1 0 3.03125,-5.1875 c 0,0 -11.708641,-6.761304 -30.03125,-7.375 -0.763442,-0.02557 -1.525891,-0.02763 -2.3125,-0.03125 z m -0.875,16.4375 c -25.108554,0 -46.125,19.575999 -46.125,44.093749 0,24.51775 21.016446,44.09375 46.125,44.09375 25.108555,0 46.125,-19.576 46.125,-44.09375 0,-24.51774 -21.016445,-44.093749 -46.125,-44.093749 z m 0,15.687499 c 14.430156,0 25.5625,12.47664 25.5625,27.5 0,15.02335 -11.132344,27.53125 -25.5625,27.53125 -14.43015,0 -25.5625,-12.5079 -25.5625,-27.53125 0,-15.02336 11.13235,-27.5 25.5625,-27.5 z" />
          <g
             id="g4180"
             transform="matrix(1.0840483,0,0,1.0840483,-7.2484432,-9.1057811)">
            <path
               style="font-size:medium;font-style:normal;font-variant:normal;font-weight:normal;font-stretch:normal;text-indent:0;text-align:start;text-decoration:none;line-height:normal;letter-spacing:normal;word-spacing:normal;text-transform:none;direction:ltr;block-progression:tb;writing-mode:lr-tb;text-anchor:start;baseline-shift:baseline;color:#000000;fill:url(#linearGradient3155);fill-opacity:1;stroke:none;stroke-width:5.53480864;marker:none;visibility:visible;display:inline;overflow:visible;enable-background:accumulate;font-family:Sans;-inkscape-font-specification:Sans"
               id="path3767"
               inkscape:connector-curvature="0"
               d="m 43.25,84.34375 c -5.634008,-0.188705 -11.965146,0.242087 -18.78125,1.75 A 2.7709606,2.7709606 0 1 0 25.6875,91.5 c 25.364021,-5.611233 42.46875,4.40625 42.46875,4.40625 A 2.7676811,2.7676811 0 1 0 70.9375,91.125 c 0,0 -10.785477,-6.215135 -27.6875,-6.78125 z" />
            <path
               style="font-size:medium;font-style:normal;font-variant:normal;font-weight:normal;font-stretch:normal;text-indent:0;text-align:start;text-decoration:none;line-height:normal;letter-spacing:normal;word-spacing:normal;text-transform:none;direction:ltr;block-progression:tb;writing-mode:lr-tb;text-anchor:start;baseline-shift:baseline;color:#000000;fill:url(#linearGradient3157);fill-opacity:1;stroke:none;stroke-width:7.37974501;marker:none;visibility:visible;display:inline;overflow:visible;enable-background:accumulate;font-family:Sans;-inkscape-font-specification:Sans"
               id="path37"
               inkscape:connector-curvature="0"
               d="M 44,68.71875 C 37.549671,68.571885 30.427631,69.13487 22.90625,70.9375 A 3.695073,3.695073 0 1 0 24.625,78.125 C 52.014809,71.560556 73.25,82.65625 73.25,82.65625 A 3.6902415,3.6902415 0 1 0 76.65625,76.125 c 0,0 -13.305262,-6.965656 -32.65625,-7.40625 z" />
            <path
               style="font-size:medium;font-style:normal;font-variant:normal;font-weight:normal;font-stretch:normal;text-indent:0;text-align:start;text-decoration:none;line-height:normal;letter-spacing:normal;word-spacing:normal;text-transform:none;direction:ltr;block-progression:tb;writing-mode:lr-tb;text-anchor:start;baseline-shift:baseline;color:#000000;fill:url(#linearGradient3159);fill-opacity:1;stroke:none;stroke-width:9.2246809;marker:none;visibility:visible;display:inline;overflow:visible;enable-background:accumulate;font-family:Sans;-inkscape-font-specification:Sans"
               id="path39"
               inkscape:connector-curvature="0"
               d="m 43.375,52.09375 c -7.352802,-0.07896 -15.255137,0.616637 -23.28125,2.625 a 4.6128017,4.6128017 0 1 0 2.25,8.9375 c 28.486741,-7.128198 56.5625,4.4375 56.5625,4.4375 a 4.6225976,4.6225976 0 1 0 3.5625,-8.53125 c 0,0 -17.035345,-7.231871 -39.09375,-7.46875 z" />
            <path
               style="font-size:medium;font-style:normal;font-variant:normal;font-weight:normal;font-stretch:normal;text-indent:0;text-align:start;text-decoration:none;line-height:normal;letter-spacing:normal;word-spacing:normal;text-transform:none;direction:ltr;block-progression:tb;writing-mode:lr-tb;text-anchor:start;baseline-shift:baseline;color:#000000;fill:url(#radialGradient3161);fill-opacity:1;stroke:none;stroke-width:20.68722153;marker:none;visibility:visible;display:inline;overflow:visible;enable-background:accumulate;font-family:Sans;-inkscape-font-specification:Sans"
               id="path3943"
               inkscape:connector-curvature="0"
               d="m 40.304777,99.46603 c -23.161841,0 -42.5404367,18.04967 -42.5404367,40.66651 0,22.61684 19.3785957,40.69086 42.5404367,40.69086 23.161842,0 42.540436,-18.07402 42.540436,-40.69086 0,-22.61683 -19.378594,-40.66651 -42.540436,-40.66651 z m 0,14.4803 c 13.311359,0 23.582198,11.5002 23.582198,25.35877 0,13.85856 -10.270839,25.40744 -23.582198,25.40744 -13.311353,0 -23.582199,-11.54888 -23.582199,-25.40744 0,-13.85857 10.270846,-25.35877 23.582199,-25.35877 z" />
          </g>
          <path
             style="font-size:medium;font-style:normal;font-variant:normal;font-weight:normal;font-stretch:normal;text-indent:0;text-align:start;text-decoration:none;line-height:normal;letter-spacing:normal;word-spacing:normal;text-transform:none;direction:ltr;block-progression:tb;writing-mode:lr-tb;text-anchor:start;baseline-shift:baseline;opacity:0.4;color:#000000;fill:none;stroke:#000000;stroke-width:1.71440959;stroke-miterlimit:4;stroke-dasharray:none;marker:none;visibility:visible;display:inline;overflow:visible;filter:url(#filter4190);enable-background:accumulate;font-family:Sans;-inkscape-font-specification:Sans"
             id="path4153"
             clip-path="url(#clipPath4194)"
             inkscape:connector-curvature="0"
             d="m 36.75,47.375001 c -7.098447,0.116755 -14.605643,0.938733 -22.21875,2.84375 a 5.0004998,5.0004998 0 1 0 2.4375,9.6875 c 30.881003,-7.727311 61.3125,4.8125 61.3125,4.8125 a 5.0144324,5.0144324 0 1 0 3.875,-9.25 c 0,0 -18.462624,-7.836962 -42.375,-8.09375 -0.996349,-0.0107 -2.017186,-0.01668 -3.03125,0 z m 1.03125,18 c -6.273659,0.03688 -13.053152,0.696379 -20.1875,2.40625 a 4.0135573,4.0135573 0 1 0 1.84375,7.8125 c 29.691876,-7.116174 52.71875,4.90625 52.71875,4.90625 a 4.0004,4.0004 0 1 0 3.6875,-7.09375 c 0,0 -14.428844,-7.553625 -35.40625,-8.03125 -0.874059,-0.0199 -1.760013,-0.0053 -2.65625,0 z m -0.46875,16.90625 c -5.506265,-0.02531 -11.565887,0.507181 -18.03125,1.9375 a 3.009912,3.009912 0 1 0 1.3125,5.875 c 27.495824,-6.082848 46.03125,4.78125 46.03125,4.78125 a 3.0041069,3.0041069 0 1 0 3.03125,-5.1875 c 0,0 -11.708641,-6.761304 -30.03125,-7.375 -0.763442,-0.02557 -1.525891,-0.02763 -2.3125,-0.03125 z m -0.875,16.4375 c -25.108554,0 -46.125,19.575999 -46.125,44.093749 0,24.51775 21.016446,44.09375 46.125,44.09375 25.108555,0 46.125,-19.576 46.125,-44.09375 0,-24.51774 -21.016445,-44.093749 -46.125,-44.093749 z m 0,15.687499 c 14.430156,0 25.5625,12.47664 25.5625,27.5 0,15.02335 -11.132344,27.53125 -25.5625,27.53125 -14.43015,0 -25.5625,-12.5079 -25.5625,-27.53125 0,-15.02336 11.13235,-27.5 25.5625,-27.5 z" />
        </g>
      </g>
    </g>
    <rect
       ry="25"
       rx="25"
       id="rect3003"
       style="opacity:0.15;fill:#ffffff;fill-opacity:1"
       height="92"
       width="92"
       y="958.36218"
       x="-96"
       clip-path="url(#clipPath3009)"
       transform="translate(98,3.8281269e-7)" />
  </g>
</svg>
