<svg height="96" width="96" xmlns="http://www.w3.org/2000/svg" xmlns:sodipodi="http://sodipodi.sourceforge.net/DTD/sodipodi-0.dtd" xmlns:inkscape="http://www.inkscape.org/namespaces/inkscape">
 <defs>
  <clipPath clipPathUnits="userSpaceOnUse" id="clipPath3313">
   <rect x="12.957" rx="9.833" y="-90" height="73.04" width="73.04" transform="matrix(0 1 -1 0 0 0)"/>
  </clipPath>
  <linearGradient x1="41.14" x2="44.619" y1="33.26" y2="59.651" gradientUnits="userSpaceOnUse" id="linearGradient3129" inkscape:collect="always" gradientTransform="matrix(0.88656 0 0 0.88656 2.98 958.31)">
   <stop stop-color="#f5f5f5" stop-opacity="1"/>
   <stop stop-color="#dcdcdc" stop-opacity="1" offset="1"/>
  </linearGradient>
 </defs>
 <g inkscape:label="Layer 1" inkscape:groupmode="layer" transform="matrix(1 0 0 1 0.12 -956.36)">
  <rect x="964.36" rx="10.769" y="-87.88" fill="#1a1a1a" fill-opacity="1" stroke="none" height="80" opacity="0.99" width="80" transform="matrix(0 1 -1 0 0 0)"/>
  <g clip-path="url(#clipPath3313)" fill="#ffda27" fill-opacity="1" transform="matrix(1.09524 0 0 1.09524 -10.692 950.17)">
   <path d="m 12,70 -8,16 12,0 8,-16 -12,0 z m 24,0 -8,16 12,0 8,-16 -12,0 z m 24,0 -8,16 12,0 8,-16 -12,0 z m 24,0 -8,16 12,0 8,-16 -12,0 z" stroke="none" inkscape:connector-curvature="0"/>
   <path d="m 90,78 c 0,3.324 -2.676,6 -6,6 l -7,0 -1,2 8,0 c 3.324,0 6,-2.676 6,-6 l 0,-2 z M 6.65625,80.71875 6.21875,81.5625 C 6.9042791,84.122095 9.218293,86 12,86 l 4,0 1,-2 -5,0 C 9.6553088,84 7.6443242,82.669941 6.65625,80.71875 z M 29,84 l -1,2 12,0 1,-2 -12,0 z m 24,0 -1,2 12,0 1,-2 -12,0 z" fill-rule="nonzero" stroke="none" opacity="0.2" inkscape:connector-curvature="0"/>
   <path d="m 90,69 c 0,3.324 -2.676,6 -6,6 l -7.5,0 -0.5,1 8,0 c 3.324,0 6,-2.676 6,-6 l 0,-1 z M 6.4375,71.15625 6.21875,71.5625 C 6.9042791,74.122095 9.218293,76 12,76 l 4,0 1,-2 -0.5,0 -0.5,1 -4,0 C 9.4386363,75 7.2995747,73.406743 6.4375,71.15625 z M 40.5,74 40,75 28.5,75 28,76 l 12,0 1,-2 -0.5,0 z m 24,0 -0.5,1 -11.5,0 -0.5,1 12,0 1,-2 -0.5,0 z" fill-rule="nonzero" stroke="none" opacity="0.3" inkscape:connector-curvature="0" transform="matrix(1 0 0 1 0 10)"/>
  </g>
  <path d="m 67.254874,983.63098 c -4.329387,0.19434 -7.698722,3.76118 -7.757359,8.06216 l -5.457857,7.5634 c -0.09188,10e-5 -0.18435,0 -0.277048,0 -1.115225,0.05 -2.139595,0.4099 -3.019829,0.96966 l -22.77339,-9.72436 c -0.597742,-2.80162 -3.044626,-4.90381 -6.011953,-4.90381 -3.41471,0 -6.178183,2.77252 -6.178183,6.20591 0,3.4334 2.763473,6.2336 6.178183,6.2336 1.225157,0 2.364646,-0.3765 3.324582,-0.9974 L 48,1006.7645 c 0.619401,2.9178 3.253924,5.0413 6.316707,4.9038 3.272231,-0.1469 5.833516,-2.8219 5.901134,-6.0674 l 7.424901,-5.5964 c 0.120474,-10e-5 0.238625,0.01 0.360163,0 4.492415,-0.20156 7.960114,-4.04376 7.757359,-8.56076 -0.202755,-4.51695 -4.012975,-8.01441 -8.50539,-7.81276 z m 0.138524,2.57656 c 3.075753,-0.13807 5.679203,2.25447 5.818019,5.347 0.138818,3.0926 -2.243578,5.7077 -5.319331,5.8458 -3.075754,0.138 -5.679203,-2.2545 -5.81802,-5.3471 -0.138817,-3.09254 2.243579,-5.70764 5.319332,-5.8457 z m -45.934648,0.69262 c 0.164686,-0.0168 0.329586,0 0.498688,0 2.007613,0 3.730101,1.20507 4.488186,2.93668 l -3.102944,-1.3298 a 3.5465759,3.5465759 0 0 0 -1.745406,-0.30475 3.5465759,3.5465759 0 0 0 -1.052784,6.81535 l 3.213763,1.3853 c -0.555356,0.2198 -1.168418,0.3324 -1.800815,0.3324 -2.705643,0 -4.90376,-2.211 -4.90376,-4.9314 0,-2.55043 1.934721,-4.65153 4.405072,-4.90378 z m 45.990058,0.80344 c -2.255574,0.10125 -4.008187,2.02634 -3.906384,4.29424 0.101802,2.2679 2.010973,4.0354 4.266547,3.9341 2.255574,-0.1012 4.008188,-2.0263 3.906384,-4.2942 -0.101803,-2.26796 -2.010974,-4.03539 -4.266547,-3.93414 z m -13.630788,12.8273 c 2.702947,-0.1213 5.003408,1.9921 5.125398,4.7099 0.12199,2.7177 -1.979173,5.0317 -4.68212,5.1531 -2.08869,0.094 -3.928833,-1.1417 -4.709826,-2.9645 l 3.019829,1.2745 a 3.5465759,3.5465759 0 1 0 2.79819,-6.5107 l -3.102943,-1.3298 c 0.48468,-0.1912 1.001471,-0.3078 1.551472,-0.3325 z" stroke-width="1.5" display="inline" fill="url(#linearGradient3129)" color="#000000" fill-opacity="1" fill-rule="nonzero" stroke="none" visibility="visible" inkscape:connector-curvature="0"/>
 </g>
</svg>
