<svg height="96" width="96" xmlns="http://www.w3.org/2000/svg" xmlns:xlink="http://www.w3.org/1999/xlink" xmlns:sodipodi="http://sodipodi.sourceforge.net/DTD/sodipodi-0.dtd" xmlns:inkscape="http://www.inkscape.org/namespaces/inkscape">
 <defs>
  <clipPath clipPathUnits="userSpaceOnUse" id="clipPath3009">
   <path d="m-2 956.36h-96v33.562l96 25.687v-59.25z"/>
  </clipPath>
  <linearGradient x1="66.3" x2="48" y1="88.42" y2="5.988" gradientUnits="userSpaceOnUse" id="linearGradient3129">
   <stop stop-color="#dd0500"/>
   <stop stop-color="#ff514a" offset="1"/>
  </linearGradient>
  <clipPath clipPathUnits="userSpaceOnUse" id="clipPath3020">
   <rect x="7.75" rx="21.875" y="7.75" height="80.5" width="80.5"/>
  </clipPath>
  <linearGradient x2="0" y1="20.221" y2="138.66" gradientUnits="userSpaceOnUse" id="linearGradient3613">
   <stop stop-color="#fff"/>
   <stop stop-color="#fff" stop-opacity="0" offset="1"/>
  </linearGradient>
  <clipPath id="clipPath3613">
   <use xlink:href="#SVGCleanerId_0"/>
  </clipPath>
  <filter x="-0.192" y="-0.192" height="1.384" color-interpolation-filters="sRGB" id="filter3794" width="1.384">
   <feGaussianBlur stdDeviation="5.28"/>
  </filter>
  <rect x="6" rx="6" y="6" height="84" id="SVGCleanerId_0" width="84"/>
 </defs>
 <g transform="matrix(1 0 0 1 0 -956.36)">
  <g clip-path="url(#clipPath3020)" transform="matrix(1.1429 0 0 1.1429 -6.857 949.51)">
   <use xlink:href="#SVGCleanerId_0" fill="url(#linearGradient3129)"/>
  </g>
  <g transform="matrix(1 0 0 1 0 956.36)">
   <rect x="15" stroke-width="0.5" rx="12" y="15" clip-path="url(#clipPath3613)" fill="url(#linearGradient3613)" stroke="#fff" height="66" filter="url(#filter3794)" opacity="0.1" width="66" stroke-linecap="round"/>
   <path d="m13.2 65.692 0.45719-0.07772c1.4312-0.2433 3.5627-0.88121 5.0082-1.4989 4.6011-1.9661 8.6866-5.6007 12.094-10.759 0.92537-1.4009 1.8519-3.5198 2.5235-5.7708 1.6655-5.5825 2.6044-13.685 2.6068-22.496l0.00054-2.4892h3.883l-0.0448 5.9097c-0.09822 12.956-0.45164 18.39-1.5 23.071-0.88362 3.9458-2.6348 7.7245-4.8853 10.541-0.74684 0.93478-2.9266 3.1248-3.9552 3.9738-4.0117 3.3114-8.4491 5.6311-12.917 6.7528-0.9908 0.24872-2.6894 0.55099-3.0964 0.55099h-0.17455zm31.109-43.092h7.3829v50.8h-7.3829zm37.34 50.689c-7.0802-1.078-15.202-6.0284-19.612-11.954-1.8711-2.5141-3.4914-6.2179-4.2929-9.8128-1.0626-4.7658-1.4914-11.894-1.4943-24.841l-0.002-4.0809h3.8608v2.7611c0 12.588 1.879 22.965 5.0518 27.902 1.8366 2.8578 4.3465 5.6755 6.8185 7.6548 2.9497 2.3618 6.6637 4.4955 10.363 4.6953l0.4572 0.07875v7.7077l-0.25399-0.0067c-0.13971-0.0036-0.54356-0.05073-0.89748-0.10462z" stroke-width="1.977" fill="#fff" stroke="#fff"/>
  </g>
  <rect x="-96" rx="25" y="958.36" clip-path="url(#clipPath3009)" fill="#fff" height="92" opacity="0.15" width="92" transform="matrix(1 0 0 1 98 0)"/>
 </g>
</svg>
