<?xml version="1.0" encoding="UTF-8" standalone="no"?>
<!-- Created with Inkscape (http://www.inkscape.org/) -->

<svg
   xmlns:dc="http://purl.org/dc/elements/1.1/"
   xmlns:cc="http://creativecommons.org/ns#"
   xmlns:rdf="http://www.w3.org/1999/02/22-rdf-syntax-ns#"
   xmlns:svg="http://www.w3.org/2000/svg"
   xmlns="http://www.w3.org/2000/svg"
   xmlns:sodipodi="http://sodipodi.sourceforge.net/DTD/sodipodi-0.dtd"
   xmlns:inkscape="http://www.inkscape.org/namespaces/inkscape"
   id="svg11037"
   height="96"
   width="96"
   version="1.1"
   inkscape:version="0.48.5 r10040"
   sodipodi:docname="stella.svg">
  <sodipodi:namedview
     pagecolor="#ffffff"
     bordercolor="#666666"
     borderopacity="1"
     objecttolerance="10"
     gridtolerance="10"
     guidetolerance="10"
     inkscape:pageopacity="0"
     inkscape:pageshadow="2"
     inkscape:window-width="640"
     inkscape:window-height="480"
     id="namedview61956" />
  <defs
     id="defs11039">
    <clipPath
       id="clipPath3009"
       clipPathUnits="userSpaceOnUse">
      <path
         id="path3011"
         style="opacity:.15;fill:#fff"
         d="m-2 956.36h-96v33.562l96 25.687v-59.25z" />
    </clipPath>
    <linearGradient
       id="linearGradient3129"
       y2="5.9877"
       gradientUnits="userSpaceOnUse"
       y1="88.416"
       x2="48"
       x1="66.299">
      <stop
         id="stop3189"
         style="stop-color:#dd0500"
         offset="0" />
      <stop
         id="stop3191"
         style="stop-color:#ff514a"
         offset="1" />
    </linearGradient>
    <clipPath
       id="clipPath3020"
       clipPathUnits="userSpaceOnUse">
      <rect
         id="rect3022"
         style="opacity:.6"
         rx="21.875"
         ry="21.875"
         height="80.5"
         width="80.5"
         y="7.75"
         x="7.75" />
    </clipPath>
    <linearGradient
       id="linearGradient3613"
       y2="138.66"
       gradientUnits="userSpaceOnUse"
       x2="48"
       y1="20.221"
       x1="48">
      <stop
         id="stop3739"
         style="stop-color:#fff"
         offset="0" />
      <stop
         id="stop3741"
         style="stop-color:#fff;stop-opacity:0"
         offset="1" />
    </linearGradient>
    <clipPath
       id="clipPath3613">
      <rect
         id="rect3615"
         style="fill:#fff"
         rx="6"
         ry="6"
         height="84"
         width="84"
         y="6"
         x="6" />
    </clipPath>
    <filter
       id="filter3794"
       height="1.384"
       width="1.384"
       color-interpolation-filters="sRGB"
       y="-.192"
       x="-.192">
      <feGaussianBlur
         id="feGaussianBlur3796"
         stdDeviation="5.28" />
    </filter>
  </defs>
  <metadata
     id="metadata11042">
    <rdf:RDF>
      <cc:Work
         rdf:about="">
        <dc:format>image/svg+xml</dc:format>
        <dc:type
           rdf:resource="http://purl.org/dc/dcmitype/StillImage" />
        <dc:title />
      </cc:Work>
    </rdf:RDF>
  </metadata>
  <g
     id="layer1"
     transform="translate(0 -956.36)">
    <g
       id="background"
       clip-path="url(#clipPath3020)"
       transform="matrix(1.1429 0 0 1.1429 -6.8571 949.51)">
      <rect
         id="rect2419"
         style="fill:url(#linearGradient3129)"
         rx="6"
         ry="6"
         height="84"
         width="84"
         y="6"
         x="6" />
    </g>
    <g
       id="g3131"
       transform="translate(0 956.36)">
      <g
         id="blur">
        <rect
           id="rect3171"
           style="opacity:.1;filter:url(#filter3794);stroke:#fff;stroke-linecap:round;stroke-width:.5;fill:url(#linearGradient3613)"
           clip-path="url(#clipPath3613)"
           rx="12"
           ry="12"
           height="66"
           width="66"
           y="15"
           x="15" />
      </g>
      <path
         id="path4022"
         style="stroke:#fff;stroke-width:1.977;fill:#fff"
         d="m13.2 65.692 0.45719-0.07772c1.4312-0.2433 3.5627-0.88121 5.0082-1.4989 4.6011-1.9661 8.6866-5.6007 12.094-10.759 0.92537-1.4009 1.8519-3.5198 2.5235-5.7708 1.6655-5.5825 2.6044-13.685 2.6068-22.496l0.00054-2.4892h3.883l-0.0448 5.9097c-0.09822 12.956-0.45164 18.39-1.5 23.071-0.88362 3.9458-2.6348 7.7245-4.8853 10.541-0.74684 0.93478-2.9266 3.1248-3.9552 3.9738-4.0117 3.3114-8.4491 5.6311-12.917 6.7528-0.9908 0.24872-2.6894 0.55099-3.0964 0.55099h-0.17455zm31.109-43.092h7.3829v50.8h-7.3829zm37.34 50.689c-7.0802-1.078-15.202-6.0284-19.612-11.954-1.8711-2.5141-3.4914-6.2179-4.2929-9.8128-1.0626-4.7658-1.4914-11.894-1.4943-24.841l-0.002-4.0809h3.8608v2.7611c0 12.588 1.879 22.965 5.0518 27.902 1.8366 2.8578 4.3465 5.6755 6.8185 7.6548 2.9497 2.3618 6.6637 4.4955 10.363 4.6953l0.4572 0.07875v7.7077l-0.25399-0.0067c-0.13971-0.0036-0.54356-0.05073-0.89748-0.10462z" />
    </g>
    <rect
       id="rect3003"
       style="opacity:.15;fill:#fff"
       transform="translate(98)"
       clip-path="url(#clipPath3009)"
       rx="25"
       ry="25"
       height="92"
       width="92"
       y="958.36"
       x="-96" />
  </g>
</svg>
