<svg height="96" width="96" xmlns="http://www.w3.org/2000/svg" xmlns:xlink="http://www.w3.org/1999/xlink" xmlns:sodipodi="http://sodipodi.sourceforge.net/DTD/sodipodi-0.dtd" xmlns:inkscape="http://www.inkscape.org/namespaces/inkscape">
 <defs>
  <filter x="-0.3" y="-0.075" height="1.15" color-interpolation-filters="sRGB" id="filter3901" width="1.6">
   <feGaussianBlur stdDeviation="0.75"/>
  </filter>
  <linearGradient id="linearGradient4120">
   <stop stop-color="#ffffff" stop-opacity="1"/>
   <stop stop-color="#989898" stop-opacity="1" offset="1"/>
  </linearGradient>
  <linearGradient x1="24.12" x2="36.618" xlink:href="#linearGradient4120" gradientUnits="userSpaceOnUse" id="linearGradient3902" inkscape:collect="always" gradientTransform="matrix(0 1.05137 1.05137 0 -10.948 961.48)"/>
  <linearGradient x1="27" x2="33" xlink:href="#linearGradient4120" gradientUnits="userSpaceOnUse" id="linearGradient3904" inkscape:collect="always" gradientTransform="matrix(1.09524 0 0 1.09524 -3.476 951.79)"/>
  <linearGradient x1="28.805" x2="36.618" y1="36.796" y2="38.36" gradientUnits="userSpaceOnUse" id="linearGradient3906" inkscape:collect="always" gradientTransform="matrix(0.70092 0 0 0.70092 8.096 966.52)">
   <stop stop-color="#e4e4e4" stop-opacity="1"/>
   <stop stop-color="#989898" stop-opacity="1" offset="1"/>
  </linearGradient>
  <linearGradient x1="27" x2="35" y1="52.36" y2="52" gradientUnits="userSpaceOnUse" id="linearGradient3908" inkscape:collect="always" gradientTransform="matrix(1.09524 0 0 1.09524 -3.476 951.79)">
   <stop stop-color="#ffffff" stop-opacity="1"/>
   <stop stop-color="#ffffff" stop-opacity="0" offset="1"/>
  </linearGradient>
 </defs>
 <g inkscape:label="Layer 1" inkscape:groupmode="layer" transform="matrix(1 0 0 1 0 -956.36)">
  <rect x="8" rx="10.769" y="964.36" fill="#e6e6e6" fill-opacity="1" stroke="none" height="80" width="80"/>
  <g transform="matrix(1.1766 0 0 1.1766 -6.544 -177.89)">
   <rect x="32" rx="1" y="42" fill="black" fill-opacity="1" stroke="none" height="24" filter="url(#filter3901)" opacity="0.1" width="6" transform="matrix(1.09524 0 0 1.09524 -4.571 951.79)"/>
   <path d="m 29.380953,1001.0765 a 7.666685,7.666685 0 0 0 0,-15.33337 7.666685,7.666685 0 1 0 0,15.33337 z" fill="black" fill-opacity="1" stroke="none" opacity="0.15" inkscape:connector-curvature="0"/>
   <path d="m 29.380952,1001.0765 a 6.571445,6.571445 0 0 0 0,-13.14289 6.571445,6.571445 0 1 0 0,13.14289 z" fill="black" fill-opacity="1" stroke="none" opacity="0.4" inkscape:connector-curvature="0"/>
   <rect x="44.714" rx="2.19" display="inline" y="983.55" fill="#b3b3b3" fill-opacity="1" stroke="none" height="10.952" width="26.29"/>
   <rect x="46.36" stroke-opacity="1" stroke-width="1.095" rx="1.095" display="inline" y="985.2" fill="#006680" fill-opacity="1" stroke="#045" height="7.667" stroke-dasharray="none" width="23" stroke-miterlimit="4"/>
   <rect x="45.81" rx="0.548" y="-1002.17" fill="#164450" fill-opacity="1" stroke="none" height="4.381" width="6.571" transform="matrix(1 0 0 -1 0 0)"/>
   <text x="48.4" font-size="2.13" font-stretch="normal" font-style="normal" font-variant="normal" y="990.07" font-weight="normal" text-anchor="start" line-height="125%" fill="black" fill-opacity="1" stroke="none" opacity="0.4" writing-mode="lr-tb" font-family="Lilliput Steps" sodipodi:linespacing="125%"><tspan x="48.4" y="990.07">ENTER CODE</tspan>
   </text>
   <path d="m 45.809524,1001.6241 0,1.0952 c 0,0.3034 0.244238,0.5476 0.547619,0.5476 l 5.476191,0 c 0.303381,0 0.547619,-0.2442 0.547619,-0.5476 l 0,-1.0952 c 0,0.3034 -0.244238,0.5476 -0.547619,0.5476 l -5.476191,0 c -0.303381,0 -0.547619,-0.2442 -0.547619,-0.5476 z" fill="black" fill-opacity="1" stroke="none" opacity="0.2" inkscape:connector-curvature="0"/>
   <text x="49.1" font-size="3.773" font-stretch="normal" font-style="normal" y="1001.28" font-variant="normal" font-weight="normal" text-anchor="middle" line-height="125%" fill="white" fill-opacity="1" stroke="none" writing-mode="lr-tb" font-family="Liberation Sans" sodipodi:linespacing="125%"><tspan x="49.1" y="1001.28">7</tspan>
   </text>
   <rect x="54.57" rx="0.548" y="-1002.17" fill="#164450" fill-opacity="1" stroke="none" height="4.381" width="6.571" transform="matrix(1 0 0 -1 0 0)"/>
   <path d="m 54.571429,1001.6241 0,1.0952 c 0,0.3034 0.244238,0.5476 0.547619,0.5476 l 5.47619,0 c 0.303381,0 0.547619,-0.2442 0.547619,-0.5476 l 0,-1.0952 c 0,0.3034 -0.244238,0.5476 -0.547619,0.5476 l -5.47619,0 c -0.303381,0 -0.547619,-0.2442 -0.547619,-0.5476 z" fill="black" fill-opacity="1" stroke="none" opacity="0.2" inkscape:connector-curvature="0"/>
   <text x="57.859" font-size="3.773" font-stretch="normal" font-style="normal" y="1001.28" font-variant="normal" font-weight="normal" text-anchor="middle" line-height="125%" fill="white" fill-opacity="1" stroke="none" writing-mode="lr-tb" font-family="Liberation Sans" sodipodi:linespacing="125%"><tspan x="57.859" y="1001.28">8</tspan>
   </text>
   <rect x="63.33" rx="0.548" y="-1002.17" fill="#164450" fill-opacity="1" stroke="none" height="4.381" width="6.571" transform="matrix(1 0 0 -1 0 0)"/>
   <path d="m 63.333334,1001.6241 0,1.0952 c 0,0.3034 0.244238,0.5476 0.547619,0.5476 l 5.47619,0 c 0.303381,0 0.547619,-0.2442 0.547619,-0.5476 l 0,-1.0952 c 0,0.3034 -0.244238,0.5476 -0.547619,0.5476 l -5.47619,0 c -0.303381,0 -0.547619,-0.2442 -0.547619,-0.5476 z" fill="black" fill-opacity="1" stroke="none" opacity="0.2" inkscape:connector-curvature="0"/>
   <text x="66.62" font-size="3.773" font-stretch="normal" font-style="normal" y="1001.28" font-variant="normal" font-weight="normal" text-anchor="middle" line-height="125%" fill="white" fill-opacity="1" stroke="none" writing-mode="lr-tb" font-family="Liberation Sans" sodipodi:linespacing="125%"><tspan x="66.62" y="1001.28">9</tspan>
   </text>
   <rect x="45.81" rx="0.548" y="-1008.74" fill="#164450" fill-opacity="1" stroke="none" height="4.381" width="6.571" transform="matrix(1 0 0 -1 0 0)"/>
   <path d="m 45.809524,1008.1955 0,1.0953 c 0,0.3033 0.244238,0.5476 0.547619,0.5476 l 5.476191,0 c 0.303381,0 0.547619,-0.2443 0.547619,-0.5476 l 0,-1.0953 c 0,0.3034 -0.244238,0.5476 -0.547619,0.5476 l -5.476191,0 c -0.303381,0 -0.547619,-0.2442 -0.547619,-0.5476 z" fill="black" fill-opacity="1" stroke="none" opacity="0.2" inkscape:connector-curvature="0"/>
   <text x="49.1" font-size="3.773" font-stretch="normal" font-style="normal" y="1007.85" font-variant="normal" font-weight="normal" text-anchor="middle" line-height="125%" fill="white" fill-opacity="1" stroke="none" writing-mode="lr-tb" font-family="Liberation Sans" sodipodi:linespacing="125%"><tspan x="49.1" y="1007.85">4</tspan>
   </text>
   <rect x="54.57" rx="0.548" y="-1008.74" fill="#164450" fill-opacity="1" stroke="none" height="4.381" width="6.571" transform="matrix(1 0 0 -1 0 0)"/>
   <path d="m 54.571429,1008.1955 0,1.0953 c 0,0.3033 0.244238,0.5476 0.547619,0.5476 l 5.47619,0 c 0.303381,0 0.547619,-0.2443 0.547619,-0.5476 l 0,-1.0953 c 0,0.3034 -0.244238,0.5476 -0.547619,0.5476 l -5.47619,0 c -0.303381,0 -0.547619,-0.2442 -0.547619,-0.5476 z" fill="black" fill-opacity="1" stroke="none" opacity="0.2" inkscape:connector-curvature="0"/>
   <text x="57.859" font-size="3.773" font-stretch="normal" font-style="normal" y="1007.85" font-variant="normal" font-weight="normal" text-anchor="middle" line-height="125%" fill="white" fill-opacity="1" stroke="none" writing-mode="lr-tb" font-family="Liberation Sans" sodipodi:linespacing="125%"><tspan x="57.859" y="1007.85">5</tspan>
   </text>
   <rect x="63.33" rx="0.548" y="-1008.74" fill="#164450" fill-opacity="1" stroke="none" height="4.381" width="6.571" transform="matrix(1 0 0 -1 0 0)"/>
   <path d="m 63.333334,1008.1955 0,1.0953 c 0,0.3033 0.244238,0.5476 0.547619,0.5476 l 5.47619,0 c 0.303381,0 0.547619,-0.2443 0.547619,-0.5476 l 0,-1.0953 c 0,0.3034 -0.244238,0.5476 -0.547619,0.5476 l -5.47619,0 c -0.303381,0 -0.547619,-0.2442 -0.547619,-0.5476 z" fill="black" fill-opacity="1" stroke="none" opacity="0.2" inkscape:connector-curvature="0"/>
   <text x="66.62" font-size="3.773" font-stretch="normal" font-style="normal" y="1007.85" font-variant="normal" font-weight="normal" text-anchor="middle" line-height="125%" fill="white" fill-opacity="1" stroke="none" writing-mode="lr-tb" font-family="Liberation Sans" sodipodi:linespacing="125%"><tspan x="66.62" y="1007.85">6</tspan>
   </text>
   <rect x="45.81" rx="0.548" y="-1015.31" fill="#164450" fill-opacity="1" stroke="none" height="4.381" width="6.571" transform="matrix(1 0 0 -1 0 0)"/>
   <path d="m 45.809524,1014.7669 0,1.0953 c 0,0.3034 0.244238,0.5476 0.547619,0.5476 l 5.476191,0 c 0.303381,0 0.547619,-0.2442 0.547619,-0.5476 l 0,-1.0953 c 0,0.3034 -0.244238,0.5477 -0.547619,0.5477 l -5.476191,0 c -0.303381,0 -0.547619,-0.2443 -0.547619,-0.5477 z" fill="black" fill-opacity="1" stroke="none" opacity="0.2" inkscape:connector-curvature="0"/>
   <text x="49.1" font-size="3.773" font-stretch="normal" font-style="normal" y="1014.42" font-variant="normal" font-weight="normal" text-anchor="middle" line-height="125%" fill="white" fill-opacity="1" stroke="none" writing-mode="lr-tb" font-family="Liberation Sans" sodipodi:linespacing="125%"><tspan x="49.1" y="1014.42">1</tspan>
   </text>
   <rect x="54.57" rx="0.548" y="-1015.31" fill="#164450" fill-opacity="1" stroke="none" height="4.381" width="6.571" transform="matrix(1 0 0 -1 0 0)"/>
   <path d="m 54.571429,1014.7669 0,1.0953 c 0,0.3034 0.244238,0.5476 0.547619,0.5476 l 5.47619,0 c 0.303381,0 0.547619,-0.2442 0.547619,-0.5476 l 0,-1.0953 c 0,0.3034 -0.244238,0.5477 -0.547619,0.5477 l -5.47619,0 c -0.303381,0 -0.547619,-0.2443 -0.547619,-0.5477 z" fill="black" fill-opacity="1" stroke="none" opacity="0.2" inkscape:connector-curvature="0"/>
   <text x="57.859" font-size="3.773" font-stretch="normal" font-style="normal" y="1014.42" font-variant="normal" font-weight="normal" text-anchor="middle" line-height="125%" fill="white" fill-opacity="1" stroke="none" writing-mode="lr-tb" font-family="Liberation Sans" sodipodi:linespacing="125%"><tspan x="57.859" y="1014.42">2</tspan>
   </text>
   <rect x="63.33" rx="0.548" y="-1015.31" fill="#164450" fill-opacity="1" stroke="none" height="4.381" width="6.571" transform="matrix(1 0 0 -1 0 0)"/>
   <path d="m 63.333334,1014.7669 0,1.0953 c 0,0.3034 0.244238,0.5476 0.547619,0.5476 l 5.47619,0 c 0.303381,0 0.547619,-0.2442 0.547619,-0.5476 l 0,-1.0953 c 0,0.3034 -0.244238,0.5477 -0.547619,0.5477 l -5.47619,0 c -0.303381,0 -0.547619,-0.2443 -0.547619,-0.5477 z" fill="black" fill-opacity="1" stroke="none" opacity="0.2" inkscape:connector-curvature="0"/>
   <text x="66.62" font-size="3.773" font-stretch="normal" font-style="normal" y="1014.42" font-variant="normal" font-weight="normal" text-anchor="middle" line-height="125%" fill="white" fill-opacity="1" stroke="none" writing-mode="lr-tb" font-family="Liberation Sans" sodipodi:linespacing="125%"><tspan x="66.62" y="1014.42">3</tspan>
   </text>
   <rect x="45.81" rx="0.548" y="-1021.89" fill="#164450" fill-opacity="1" stroke="none" height="4.381" width="6.571" transform="matrix(1 0 0 -1 0 0)"/>
   <path d="m 45.809524,1021.3384 0,1.0952 c 0,0.3034 0.244238,0.5476 0.547619,0.5476 l 5.476191,0 c 0.303381,0 0.547619,-0.2442 0.547619,-0.5476 l 0,-1.0952 c 0,0.3034 -0.244238,0.5476 -0.547619,0.5476 l -5.476191,0 c -0.303381,0 -0.547619,-0.2442 -0.547619,-0.5476 z" fill="black" fill-opacity="1" stroke="none" opacity="0.2" inkscape:connector-curvature="0"/>
   <text x="49.1" font-size="3.773" font-stretch="normal" font-style="normal" y="1020.99" font-variant="normal" font-weight="normal" text-anchor="middle" line-height="125%" fill="white" fill-opacity="1" stroke="none" writing-mode="lr-tb" font-family="Liberation Sans" sodipodi:linespacing="125%"><tspan x="49.1" y="1020.99">*</tspan>
   </text>
   <rect x="54.57" rx="0.548" y="-1021.89" fill="#164450" fill-opacity="1" stroke="none" height="4.381" width="6.571" transform="matrix(1 0 0 -1 0 0)"/>
   <path d="m 54.571429,1021.3384 0,1.0952 c 0,0.3034 0.244238,0.5476 0.547619,0.5476 l 5.47619,0 c 0.303381,0 0.547619,-0.2442 0.547619,-0.5476 l 0,-1.0952 c 0,0.3034 -0.244238,0.5476 -0.547619,0.5476 l -5.47619,0 c -0.303381,0 -0.547619,-0.2442 -0.547619,-0.5476 z" fill="black" fill-opacity="1" stroke="none" opacity="0.2" inkscape:connector-curvature="0"/>
   <text x="57.859" font-size="3.773" font-stretch="normal" font-style="normal" y="1020.99" font-variant="normal" font-weight="normal" text-anchor="middle" line-height="125%" fill="white" fill-opacity="1" stroke="none" writing-mode="lr-tb" font-family="Liberation Sans" sodipodi:linespacing="125%"><tspan x="57.859" y="1020.99">0</tspan>
   </text>
   <rect x="63.33" rx="0.548" y="-1021.89" fill="#164450" fill-opacity="1" stroke="none" height="4.381" width="6.571" transform="matrix(1 0 0 -1 0 0)"/>
   <path d="m 63.333334,1021.3384 0,1.0952 c 0,0.3034 0.244238,0.5476 0.547619,0.5476 l 5.47619,0 c 0.303381,0 0.547619,-0.2442 0.547619,-0.5476 l 0,-1.0952 c 0,0.3034 -0.244238,0.5476 -0.547619,0.5476 l -5.47619,0 c -0.303381,0 -0.547619,-0.2442 -0.547619,-0.5476 z" fill="black" fill-opacity="1" stroke="none" opacity="0.2" inkscape:connector-curvature="0"/>
   <text x="66.62" font-size="3.773" font-stretch="normal" font-style="normal" y="1020.99" font-variant="normal" font-weight="normal" text-anchor="middle" line-height="125%" fill="white" fill-opacity="1" stroke="none" writing-mode="lr-tb" font-family="Liberation Sans" sodipodi:linespacing="125%"><tspan x="66.62" y="1020.99">#</tspan>
   </text>
   <path d="m 29.380952,999.98123 a 6.57143,6.57143 0 0 0 0,-13.14286 6.57143,6.57143 0 1 0 0,13.14286 z" fill="url(#linearGradient3902)" fill-opacity="1" stroke="none" inkscape:connector-curvature="0"/>
   <path d="m 30.476191,989.02885 c -2.055635,0 -3.77168,1.41027 -4.244048,3.31994 C 25.539549,992.44944 25,992.94549 25,993.58093 l 0,28.13397 c 0,0.7078 0.66271,1.2663 1.471726,1.2663 l 1.095238,0 4.723215,0 1.095238,0 c 0.809016,0 1.471726,-0.5585 1.471726,-1.2663 l 0,-28.13397 c 0,-0.0248 0.0015,-0.044 0,-0.0684 7.91e-4,-0.0342 0,-0.0683 0,-0.10268 0,-2.41954 -1.961419,-4.38095 -4.380952,-4.38095 z" fill="black" fill-opacity="1" stroke="none" opacity="0.15" inkscape:connector-curvature="0"/>
   <path d="m 26.471726,992.31456 c -0.0828,0 -0.160614,0.0227 -0.239583,0.0342 -0.08362,0.33805 -0.136905,0.69711 -0.136905,1.06101 0,0.0344 -7.91e-4,0.0684 0,0.10268 -0.0015,0.0244 0,0.0437 0,0.0684 l 0,28.13395 c 0,0.7078 0.66271,1.2663 1.471726,1.2663 l 4.723215,0 c 0.809016,0 1.471726,-0.5585 1.471726,-1.2663 l 0,-28.13395 c 0,-0.70789 -0.66271,-1.26637 -1.471726,-1.26637 l -5.818453,0 z" fill="black" fill-opacity="1" stroke="none" opacity="0.4" inkscape:connector-curvature="0"/>
   <rect x="26.1" rx="1.095" y="995.6" fill="url(#linearGradient3904)" fill-opacity="1" stroke="none" height="26.29" width="6.571"/>
   <path d="m 33.761905,993.4098 a 4.3809525,4.3809525 0 0 1 -8.761905,0 4.3809525,4.3809525 0 1 1 8.761905,0 z" fill="url(#linearGradient3906)" fill-opacity="1" stroke="none" inkscape:connector-curvature="0"/>
   <path d="m 26.163691,996.38748 c -0.03151,0.10242 -0.06845,0.19501 -0.06845,0.30803 l 0,24.09529 c 0,0.6067 0.488476,1.0952 1.095238,1.0952 l 4.380953,0 c 0.606762,0 1.095238,-0.4885 1.095238,-1.0952 l 0,-24.09529 c 0,-0.11302 -0.03695,-0.20561 -0.06845,-0.30803 -0.297421,0.32182 -0.645238,0.566 -1.026785,0.7872 l 0,23.06842 c 0,0.3034 -0.244238,0.5477 -0.547619,0.5477 l -3.285715,0 c -0.303381,0 -0.547619,-0.2443 -0.547619,-0.5477 l 0,-23.06842 c -0.381547,-0.2212 -0.729364,-0.46538 -1.026785,-0.7872 z" fill="url(#linearGradient3908)" fill-opacity="1" stroke="none" inkscape:connector-curvature="0"/>
   <path d="M 29.380952,989.02885 C 26.961419,989.02885 25,990.99026 25,993.4098 c 0,0.18632 0.04588,0.36742 0.06845,0.54762 0.270597,-2.15986 2.079289,-3.83334 4.3125,-3.83334 2.233212,0 4.041904,1.67348 4.312501,3.83334 0.02258,-0.1802 0.06845,-0.3613 0.06845,-0.54762 0,-2.41954 -1.961419,-4.38095 -4.380953,-4.38095 z" fill="black" fill-opacity="1" stroke="none" opacity="0.2" inkscape:connector-curvature="0"/>
  </g>
 </g>
</svg>
