<?xml version="1.0" encoding="UTF-8" standalone="no"?>
<!-- Created with Inkscape (http://www.inkscape.org/) -->

<svg
   xmlns:dc="http://purl.org/dc/elements/1.1/"
   xmlns:cc="http://creativecommons.org/ns#"
   xmlns:rdf="http://www.w3.org/1999/02/22-rdf-syntax-ns#"
   xmlns:svg="http://www.w3.org/2000/svg"
   xmlns="http://www.w3.org/2000/svg"
   xmlns:xlink="http://www.w3.org/1999/xlink"
   xmlns:sodipodi="http://sodipodi.sourceforge.net/DTD/sodipodi-0.dtd"
   xmlns:inkscape="http://www.inkscape.org/namespaces/inkscape"
   width="96"
   height="96"
   id="svg11037"
   version="1.1"
   inkscape:version="0.48.5 r10040"
   sodipodi:docname="stock_keyring.svg">
  <defs
     id="defs11039">
    <linearGradient
       id="linearGradient3795">
      <stop
         style="stop-color:#13a6fd;stop-opacity:1;"
         offset="0"
         id="stop3797" />
      <stop
         style="stop-color:#2975b6;stop-opacity:1;"
         offset="1"
         id="stop3799" />
    </linearGradient>
    <linearGradient
       x1="48"
       y1="90"
       x2="48"
       y2="5.9877172"
       id="linearGradient3617"
       xlink:href="#linearGradient3614"
       gradientUnits="userSpaceOnUse" />
    <linearGradient
       id="linearGradient3614">
      <stop
         id="stop3616"
         style="stop-color:#b9b9b9;stop-opacity:1"
         offset="0" />
      <stop
         id="stop3618"
         style="stop-color:#dedede;stop-opacity:1"
         offset="1" />
    </linearGradient>
    <linearGradient
       x1="15"
       y1="48"
       x2="81"
       y2="48"
       id="linearGradient3628"
       xlink:href="#linearGradient3859"
       gradientUnits="userSpaceOnUse"
       gradientTransform="matrix(0.96969697,0,0,0.96969697,-94.545455,1.4545455)" />
    <linearGradient
       id="linearGradient3859">
      <stop
         id="stop3861"
         style="stop-color:#808080;stop-opacity:1"
         offset="0" />
      <stop
         id="stop3863"
         style="stop-color:#d0d0d0;stop-opacity:1"
         offset="1" />
    </linearGradient>
    <linearGradient
       x1="38.75"
       y1="15"
       x2="38.75"
       y2="104.19522"
       id="linearGradient3761"
       xlink:href="#linearGradient3755"
       gradientUnits="userSpaceOnUse" />
    <linearGradient
       id="linearGradient3755">
      <stop
         id="stop3757"
         style="stop-color:#ffffff;stop-opacity:1"
         offset="0" />
      <stop
         id="stop3759"
         style="stop-color:#ffffff;stop-opacity:0"
         offset="1" />
    </linearGradient>
    <linearGradient
       x1="82"
       y1="76"
       x2="88"
       y2="76"
       id="linearGradient3867"
       xlink:href="#linearGradient3763"
       gradientUnits="userSpaceOnUse"
       gradientTransform="matrix(0.66666667,0,0,1.5,23.333333,-84)" />
    <linearGradient
       id="linearGradient3763">
      <stop
         id="stop3765"
         style="stop-color:#dadada;stop-opacity:1"
         offset="0" />
      <stop
         id="stop3767"
         style="stop-color:#ffffff;stop-opacity:1"
         offset="0.39128959" />
      <stop
         id="stop3769"
         style="stop-color:#b9b9b9;stop-opacity:1"
         offset="1" />
    </linearGradient>
    <linearGradient
       x1="82"
       y1="76"
       x2="88"
       y2="76"
       id="linearGradient3779"
       xlink:href="#linearGradient3763"
       gradientUnits="userSpaceOnUse"
       gradientTransform="matrix(0.66666667,0,0,1.5,23.333333,-48)" />
    <linearGradient
       x1="48"
       y1="20.220806"
       x2="48"
       y2="138.66119"
       id="linearGradient3613"
       xlink:href="#linearGradient3737"
       gradientUnits="userSpaceOnUse" />
    <linearGradient
       id="linearGradient3737">
      <stop
         id="stop3739"
         style="stop-color:#ffffff;stop-opacity:1"
         offset="0" />
      <stop
         id="stop3741"
         style="stop-color:#ffffff;stop-opacity:0"
         offset="1" />
    </linearGradient>
    <clipPath
       id="clipPath3613">
      <rect
         width="84"
         height="84"
         rx="6"
         ry="6"
         x="6"
         y="6"
         id="rect3615"
         style="fill:#ffffff;fill-opacity:1;fill-rule:nonzero;stroke:none" />
    </clipPath>
    <filter
       x="-0.192"
       y="-0.192"
       width="1.3839999"
       height="1.3839999"
       color-interpolation-filters="sRGB"
       id="filter3794">
      <feGaussianBlur
         id="feGaussianBlur3796"
         stdDeviation="5.28" />
    </filter>
    <filter
       x="-0.30000001"
       y="-0.075000003"
       width="1.6"
       height="1.15"
       color-interpolation-filters="sRGB"
       id="filter3901">
      <feGaussianBlur
         id="feGaussianBlur3903"
         stdDeviation="0.75" />
    </filter>
    <linearGradient
       x1="55.732872"
       y1="40.798225"
       x2="55.732872"
       y2="30.783098"
       id="linearGradient3822"
       xlink:href="#linearGradient3824"
       gradientUnits="userSpaceOnUse"
       gradientTransform="translate(0,-2)" />
    <linearGradient
       id="linearGradient3824">
      <stop
         id="stop3826"
         style="stop-color:#e4e4e4;stop-opacity:1"
         offset="0" />
      <stop
         id="stop3828"
         style="stop-color:#989898;stop-opacity:1"
         offset="1" />
    </linearGradient>
    <radialGradient
       cx="57"
       cy="43.639278"
       r="11"
       fx="57"
       fy="43.639278"
       id="radialGradient3816"
       xlink:href="#linearGradient3738"
       gradientUnits="userSpaceOnUse"
       gradientTransform="matrix(1.4247695,-5.0547426e-8,1.8199729e-8,0.51299189,-24.211861,14.391327)" />
    <linearGradient
       id="linearGradient3738">
      <stop
         id="stop3740"
         style="stop-color:#9ae8fb;stop-opacity:1"
         offset="0" />
      <stop
         id="stop3742"
         style="stop-color:#50bad4;stop-opacity:1"
         offset="1" />
    </linearGradient>
    <linearGradient
       x1="49.914341"
       y1="32.338196"
       x2="49.928932"
       y2="39.282997"
       id="linearGradient3837"
       xlink:href="#linearGradient3831"
       gradientUnits="userSpaceOnUse"
       gradientTransform="translate(0,-2)" />
    <linearGradient
       id="linearGradient3831">
      <stop
         id="stop3833"
         style="stop-color:#267387;stop-opacity:1"
         offset="0" />
      <stop
         id="stop3835"
         style="stop-color:#5bb9d2;stop-opacity:1"
         offset="1" />
    </linearGradient>
    <linearGradient
       x1="48.90419"
       y1="46.020306"
       x2="48.90419"
       y2="41.967209"
       id="linearGradient3860"
       xlink:href="#linearGradient2949"
       gradientUnits="userSpaceOnUse"
       gradientTransform="translate(0,-88)" />
    <linearGradient
       id="linearGradient2949">
      <stop
         id="stop2951"
         style="stop-color:#323232;stop-opacity:1"
         offset="0" />
      <stop
         id="stop2953"
         style="stop-color:#505050;stop-opacity:1"
         offset="1" />
    </linearGradient>
    <linearGradient
       x1="48.90419"
       y1="46.020306"
       x2="48.90419"
       y2="41.967209"
       id="linearGradient3980"
       xlink:href="#linearGradient2949"
       gradientUnits="userSpaceOnUse"
       gradientTransform="translate(8,-88)" />
    <linearGradient
       x1="48.90419"
       y1="46.020306"
       x2="48.90419"
       y2="41.967209"
       id="linearGradient3990"
       xlink:href="#linearGradient2949"
       gradientUnits="userSpaceOnUse"
       gradientTransform="translate(16,-88)" />
    <linearGradient
       x1="48.90419"
       y1="46.020306"
       x2="48.90419"
       y2="41.967209"
       id="linearGradient4016"
       xlink:href="#linearGradient2949"
       gradientUnits="userSpaceOnUse"
       gradientTransform="translate(0,-94)" />
    <linearGradient
       x1="48.90419"
       y1="46.020306"
       x2="48.90419"
       y2="41.967209"
       id="linearGradient4018"
       xlink:href="#linearGradient2949"
       gradientUnits="userSpaceOnUse"
       gradientTransform="translate(8,-94)" />
    <linearGradient
       x1="48.90419"
       y1="46.020306"
       x2="48.90419"
       y2="41.967209"
       id="linearGradient4020"
       xlink:href="#linearGradient2949"
       gradientUnits="userSpaceOnUse"
       gradientTransform="translate(16,-94)" />
    <linearGradient
       x1="48.90419"
       y1="46.020306"
       x2="48.90419"
       y2="41.967209"
       id="linearGradient4046"
       xlink:href="#linearGradient2949"
       gradientUnits="userSpaceOnUse"
       gradientTransform="translate(0,-100)" />
    <linearGradient
       x1="48.90419"
       y1="46.020306"
       x2="48.90419"
       y2="41.967209"
       id="linearGradient4048"
       xlink:href="#linearGradient2949"
       gradientUnits="userSpaceOnUse"
       gradientTransform="translate(8,-100)" />
    <linearGradient
       x1="48.90419"
       y1="46.020306"
       x2="48.90419"
       y2="41.967209"
       id="linearGradient4051"
       xlink:href="#linearGradient2949"
       gradientUnits="userSpaceOnUse"
       gradientTransform="translate(16,-100)" />
    <linearGradient
       x1="48.90419"
       y1="46.020306"
       x2="48.90419"
       y2="41.967209"
       id="linearGradient4077"
       xlink:href="#linearGradient2949"
       gradientUnits="userSpaceOnUse"
       gradientTransform="translate(0,-106)" />
    <linearGradient
       x1="48.90419"
       y1="46.020306"
       x2="48.90419"
       y2="41.967209"
       id="linearGradient4079"
       xlink:href="#linearGradient2949"
       gradientUnits="userSpaceOnUse"
       gradientTransform="translate(8,-106)" />
    <linearGradient
       x1="48.90419"
       y1="46.020306"
       x2="48.90419"
       y2="41.967209"
       id="linearGradient4081"
       xlink:href="#linearGradient2949"
       gradientUnits="userSpaceOnUse"
       gradientTransform="translate(16,-106)" />
    <linearGradient
       x1="24.117392"
       y1="38.35817"
       x2="36.618031"
       y2="38.35817"
       id="linearGradient3820"
       xlink:href="#linearGradient4120"
       gradientUnits="userSpaceOnUse" />
    <linearGradient
       id="linearGradient4120">
      <stop
         id="stop4122"
         style="stop-color:#ffffff;stop-opacity:1"
         offset="0" />
      <stop
         id="stop4124"
         style="stop-color:#989898;stop-opacity:1"
         offset="1" />
    </linearGradient>
    <linearGradient
       x1="27"
       y1="52"
       x2="33"
       y2="52"
       id="linearGradient3849"
       xlink:href="#linearGradient4120"
       gradientUnits="userSpaceOnUse"
       gradientTransform="translate(1,0)" />
    <linearGradient
       x1="28.80513"
       y1="36.795589"
       x2="36.618031"
       y2="38.35817"
       id="linearGradient3891"
       xlink:href="#linearGradient3824"
       gradientUnits="userSpaceOnUse" />
    <linearGradient
       x1="27"
       y1="52.359375"
       x2="35"
       y2="52"
       id="linearGradient3841"
       xlink:href="#linearGradient3677"
       gradientUnits="userSpaceOnUse"
       gradientTransform="translate(1,0)" />
    <linearGradient
       id="linearGradient3677">
      <stop
         id="stop3679"
         style="stop-color:#ffffff;stop-opacity:1"
         offset="0" />
      <stop
         id="stop3681"
         style="stop-color:#ffffff;stop-opacity:0"
         offset="1" />
    </linearGradient>
    <radialGradient
       cx="53"
       cy="47"
       r="3"
       fx="53"
       fy="47"
       id="radialGradient3916"
       xlink:href="#linearGradient3677"
       gradientUnits="userSpaceOnUse" />
    <radialGradient
       cx="53"
       cy="47"
       r="3"
       fx="53"
       fy="47"
       id="radialGradient3920"
       xlink:href="#linearGradient3677"
       gradientUnits="userSpaceOnUse"
       gradientTransform="translate(8,0)" />
    <radialGradient
       cx="53"
       cy="47"
       r="3"
       fx="53"
       fy="47"
       id="radialGradient3926"
       xlink:href="#linearGradient3677"
       gradientUnits="userSpaceOnUse"
       gradientTransform="translate(0,6)" />
    <radialGradient
       cx="53"
       cy="47"
       r="3"
       fx="53"
       fy="47"
       id="radialGradient3928"
       xlink:href="#linearGradient3677"
       gradientUnits="userSpaceOnUse"
       gradientTransform="translate(8,6)" />
    <radialGradient
       cx="53"
       cy="47"
       r="3"
       fx="53"
       fy="47"
       id="radialGradient3934"
       xlink:href="#linearGradient3677"
       gradientUnits="userSpaceOnUse"
       gradientTransform="translate(0,12)" />
    <radialGradient
       cx="53"
       cy="47"
       r="3"
       fx="53"
       fy="47"
       id="radialGradient3936"
       xlink:href="#linearGradient3677"
       gradientUnits="userSpaceOnUse"
       gradientTransform="translate(8,12)" />
    <clipPath
       clipPathUnits="userSpaceOnUse"
       id="clipPath3438">
      <rect
         x="6"
         y="6.0000038"
         width="84"
         height="84"
         style="fill:url(#linearGradient3442);fill-opacity:1"
         id="rect3440"
         rx="22.826086"
         ry="22.826086" />
    </clipPath>
    <linearGradient
       inkscape:collect="always"
       xlink:href="#linearGradient3795"
       id="linearGradient3442"
       gradientUnits="userSpaceOnUse"
       gradientTransform="matrix(1.05,0,0,1.05,-2.3999508,-1006.579)"
       x1="47.999954"
       y1="962.62189"
       x2="47.999954"
       y2="1046.1001" />
    <clipPath
       clipPathUnits="userSpaceOnUse"
       id="clipPath3009">
      <path
         id="path3011"
         d="m -2,956.36218 -96,0 0,33.5624 96,25.68742 0,-59.24982 z"
         style="opacity:0.15;fill:#ffffff;fill-opacity:1;stroke:none"
         inkscape:connector-curvature="0" />
    </clipPath>
  </defs>
  <sodipodi:namedview
     id="base"
     pagecolor="#ffffff"
     bordercolor="#666666"
     borderopacity="1.0"
     inkscape:pageopacity="0.0"
     inkscape:pageshadow="2"
     inkscape:zoom="3.959798"
     inkscape:cx="37.957448"
     inkscape:cy="59.964634"
     inkscape:document-units="px"
     inkscape:current-layer="layer1"
     showgrid="false"
     inkscape:window-width="1280"
     inkscape:window-height="750"
     inkscape:window-x="0"
     inkscape:window-y="22"
     inkscape:window-maximized="1"
     showguides="true"
     inkscape:guide-bbox="true">
    <sodipodi:guide
       orientation="0,1"
       position="-24.748737,0"
       id="guide11064" />
    <sodipodi:guide
       orientation="0,1"
       position="-23.233509,96"
       id="guide11066" />
    <sodipodi:guide
       orientation="1,0"
       position="0,54.800776"
       id="guide11068" />
    <sodipodi:guide
       orientation="1,0"
       position="96,51.012704"
       id="guide11070" />
    <sodipodi:guide
       orientation="0,1"
       position="-18.94036,48"
       id="guide11072" />
    <sodipodi:guide
       orientation="1,0"
       position="48,79.296975"
       id="guide11074" />
    <sodipodi:guide
       orientation="1,0"
       position="2,75.508903"
       id="guide11076" />
    <sodipodi:guide
       orientation="0,1"
       position="-77.27667,2"
       id="guide11078" />
    <sodipodi:guide
       orientation="1,0"
       position="94,77.781746"
       id="guide11080" />
    <sodipodi:guide
       orientation="0,1"
       position="-65.912454,94"
       id="guide11082" />
  </sodipodi:namedview>
  <metadata
     id="metadata11042">
    <rdf:RDF>
      <cc:Work
         rdf:about="">
        <dc:format>image/svg+xml</dc:format>
        <dc:type
           rdf:resource="http://purl.org/dc/dcmitype/StillImage" />
        <dc:title />
      </cc:Work>
    </rdf:RDF>
  </metadata>
  <g
     inkscape:label="Layer 1"
     inkscape:groupmode="layer"
     id="layer1"
     transform="translate(0,-956.36218)">
    <g
       transform="matrix(1.0952381,0,0,1.0952381,-4.5714286,951.79075)"
       id="g3181"
       clip-path="url(#clipPath3438)">
      <g
         style="display:inline"
         id="layer1-1">
        <rect
           style="fill:url(#linearGradient3617);fill-opacity:1;fill-rule:nonzero;stroke:none"
           id="rect2419"
           y="6"
           x="6"
           ry="6"
           rx="6"
           height="84"
           width="84" />
      </g>
      <rect
         style="opacity:0.4;fill:#000000;fill-opacity:1;fill-rule:nonzero;stroke:none;display:inline"
         id="rect3736"
         transform="matrix(0,-1,1,0,0,0)"
         y="15"
         x="-81"
         ry="2"
         rx="2"
         height="66"
         width="66" />
      <rect
         style="fill:url(#linearGradient3628);fill-opacity:1;fill-rule:nonzero;stroke:none;display:inline"
         id="rect3620"
         transform="matrix(0,-1,1,0,0,0)"
         y="16"
         x="-80"
         height="64"
         width="64" />
      <rect
         style="opacity:0.4;fill:#000000;fill-opacity:1;stroke:none;display:inline"
         id="rect3771"
         y="23"
         x="77"
         ry="2"
         rx="2"
         height="14"
         width="6" />
      <path
         style="opacity:0.5;fill:url(#linearGradient3761);fill-opacity:1;fill-rule:nonzero;stroke:none;display:inline"
         id="rect3750"
         inkscape:connector-curvature="0"
         d="m 16,16 0,64 64,0 0,-64 -64,0 z m 2,2 60,0 0,60 -60,0 0,-60 z" />
      <rect
         style="fill:url(#linearGradient3867);fill-opacity:1;stroke:none;display:inline"
         id="rect3789"
         y="24"
         x="78"
         ry="1"
         rx="1"
         height="12"
         width="4" />
      <rect
         style="opacity:0.4;fill:#000000;fill-opacity:1;stroke:none;display:inline"
         id="rect3775"
         y="59"
         x="77"
         ry="2"
         rx="2"
         height="14"
         width="6" />
      <rect
         style="fill:url(#linearGradient3779);fill-opacity:1;stroke:none;display:inline"
         id="rect3777"
         y="60"
         x="78"
         ry="1"
         rx="1"
         height="12"
         width="4" />
      <rect
         style="opacity:0.2;fill:#000000;fill-opacity:1;stroke:none;display:inline"
         id="rect3912"
         y="30"
         x="78"
         height="1"
         width="4" />
      <rect
         style="opacity:0.2;fill:#000000;fill-opacity:1;stroke:none;display:inline"
         id="rect3914"
         y="66"
         x="78"
         height="1"
         width="4" />
      <path
         style="fill:#ffffff;fill-opacity:1;stroke:none;display:inline"
         id="rect3916"
         inkscape:connector-curvature="0"
         d="m 79,24 c -0.554,0 -1,0.446 -1,1 l 0,1 c 0,-0.554 0.446,-1 1,-1 l 2,0 c 0.554,0 1,0.446 1,1 l 0,-1 c 0,-0.554 -0.446,-1 -1,-1 l -2,0 z" />
      <path
         style="fill:#ffffff;fill-opacity:1;stroke:none;display:inline"
         id="path3926"
         inkscape:connector-curvature="0"
         d="m 79,60 c -0.554,0 -1,0.446 -1,1 l 0,1 c 0,-0.554 0.446,-1 1,-1 l 2,0 c 0.554,0 1,0.446 1,1 l 0,-1 c 0,-0.554 -0.446,-1 -1,-1 l -2,0 z" />
      <g
         style="display:inline"
         id="layer5">
        <rect
           style="opacity:0.1;fill:url(#linearGradient3613);fill-opacity:1;fill-rule:nonzero;stroke:#ffffff;stroke-width:0.5;stroke-linecap:round;stroke-linejoin:miter;stroke-miterlimit:4;stroke-opacity:1;stroke-dasharray:none;stroke-dashoffset:0;filter:url(#filter3794)"
           id="rect3171"
           clip-path="url(#clipPath3613)"
           y="15"
           x="15"
           ry="12"
           rx="12"
           height="66"
           width="66" />
      </g>
      <g
         style="display:inline"
         id="layer3">
        <rect
           style="opacity:0.1;fill:#000000;fill-opacity:1;stroke:none;filter:url(#filter3901)"
           id="rect3893"
           y="42"
           x="32"
           ry="1"
           rx="1"
           height="24"
           width="6" />
        <path
           inkscape:connector-curvature="0"
           style="opacity:0.15;fill:#000000;fill-opacity:1;stroke:none"
           id="path3865"
           transform="matrix(0,1.1199429,1.1199429,0,-11.958959,3.9898994)"
           d="m 36.618029,38.35817 a 6.250319,6.250319 0 1 1 -12.500638,0 6.250319,6.250319 0 1 1 12.500638,0 z" />
        <path
           inkscape:connector-curvature="0"
           style="opacity:0.4;fill:#000000;fill-opacity:1;stroke:none"
           id="path3871"
           transform="matrix(0,0.959951,0.959951,0,-5.8219633,9.8484866)"
           d="m 36.618029,38.35817 a 6.250319,6.250319 0 1 1 -12.500638,0 6.250319,6.250319 0 1 1 12.500638,0 z" />
        <rect
           style="fill:url(#linearGradient3822);fill-opacity:1;stroke:none;display:inline"
           id="rect3818"
           y="29"
           x="45"
           ry="2"
           rx="2"
           height="10"
           width="24" />
        <rect
           style="fill:url(#radialGradient3816);fill-opacity:1;stroke:url(#linearGradient3837);stroke-width:0.99999988;stroke-miterlimit:4;stroke-opacity:1;stroke-dasharray:none;display:inline"
           id="rect3718"
           y="30.5"
           x="46.5"
           ry="1"
           rx="1"
           height="7"
           width="21" />
        <rect
           style="fill:url(#linearGradient3860);fill-opacity:1;stroke:none"
           id="rect3760"
           transform="scale(1,-1)"
           y="-46"
           x="46"
           ry="0.5"
           rx="0.5"
           height="4"
           width="6" />
        <text
           sodipodi:linespacing="125%"
           style="font-size:1.94439244px;font-style:normal;font-variant:normal;font-weight:normal;font-stretch:normal;text-align:start;line-height:125%;writing-mode:lr-tb;text-anchor:start;opacity:0.4;fill:#000000;fill-opacity:1;stroke:none;font-family:Lilliput Steps;-inkscape-font-specification:Lilliput Steps"
           xml:space="preserve"
           id="text3812"
           y="34.94722"
           x="48.368675"><tspan
             id="tspan3814"
             y="34.94722"
             x="48.368675">ENTER CODE</tspan></text>
        <path
           style="opacity:0.2;fill:#000000;fill-opacity:1;stroke:none"
           id="rect3950"
           inkscape:connector-curvature="0"
           d="m 46,45.5 0,1 c 0,0.277 0.223,0.5 0.5,0.5 l 5,0 c 0.277,0 0.5,-0.223 0.5,-0.5 l 0,-1 c 0,0.277 -0.223,0.5 -0.5,0.5 l -5,0 C 46.223,46 46,45.777 46,45.5 z" />
        <text
           sodipodi:linespacing="125%"
           style="font-size:3.44449735px;font-style:normal;font-variant:normal;font-weight:normal;font-stretch:normal;text-align:center;line-height:125%;writing-mode:lr-tb;text-anchor:middle;fill:#ffffff;fill-opacity:1;stroke:none;font-family:Liberation Sans;-inkscape-font-specification:Liberation Sans"
           xml:space="preserve"
           id="text3968"
           y="45.18573"
           x="49.001682"><tspan
             id="tspan3970"
             y="45.18573"
             x="49.001682">7</tspan></text>
        <rect
           style="fill:url(#linearGradient3980);fill-opacity:1;stroke:none"
           id="rect3972"
           transform="scale(1,-1)"
           y="-46"
           x="54"
           ry="0.5"
           rx="0.5"
           height="4"
           width="6" />
        <path
           style="opacity:0.2;fill:#000000;fill-opacity:1;stroke:none"
           id="path3974"
           inkscape:connector-curvature="0"
           d="m 54,45.5 0,1 c 0,0.277 0.223,0.5 0.5,0.5 l 5,0 c 0.277,0 0.5,-0.223 0.5,-0.5 l 0,-1 c 0,0.277 -0.223,0.5 -0.5,0.5 l -5,0 C 54.223,46 54,45.777 54,45.5 z" />
        <text
           sodipodi:linespacing="125%"
           style="font-size:3.44449735px;font-style:normal;font-variant:normal;font-weight:normal;font-stretch:normal;text-align:center;line-height:125%;writing-mode:lr-tb;text-anchor:middle;fill:#ffffff;fill-opacity:1;stroke:none;font-family:Liberation Sans;-inkscape-font-specification:Liberation Sans"
           xml:space="preserve"
           id="text3976"
           y="45.18573"
           x="57.001682"><tspan
             id="tspan3978"
             y="45.18573"
             x="57.001682">8</tspan></text>
        <rect
           style="fill:url(#linearGradient3990);fill-opacity:1;stroke:none"
           id="rect3982"
           transform="scale(1,-1)"
           y="-46"
           x="62"
           ry="0.5"
           rx="0.5"
           height="4"
           width="6" />
        <path
           style="opacity:0.2;fill:#000000;fill-opacity:1;stroke:none"
           id="path3984"
           inkscape:connector-curvature="0"
           d="m 62,45.5 0,1 c 0,0.277 0.223,0.5 0.5,0.5 l 5,0 c 0.277,0 0.5,-0.223 0.5,-0.5 l 0,-1 c 0,0.277 -0.223,0.5 -0.5,0.5 l -5,0 C 62.223,46 62,45.777 62,45.5 z" />
        <text
           sodipodi:linespacing="125%"
           style="font-size:3.44449735px;font-style:normal;font-variant:normal;font-weight:normal;font-stretch:normal;text-align:center;line-height:125%;writing-mode:lr-tb;text-anchor:middle;fill:#ffffff;fill-opacity:1;stroke:none;font-family:Liberation Sans;-inkscape-font-specification:Liberation Sans"
           xml:space="preserve"
           id="text3986"
           y="45.18573"
           x="65.001678"><tspan
             id="tspan3988"
             y="45.18573"
             x="65.001678">9</tspan></text>
        <rect
           style="fill:url(#linearGradient4016);fill-opacity:1;stroke:none"
           id="rect3992"
           transform="scale(1,-1)"
           y="-52"
           x="46"
           ry="0.5"
           rx="0.5"
           height="4"
           width="6" />
        <path
           style="opacity:0.2;fill:#000000;fill-opacity:1;stroke:none"
           id="path3994"
           inkscape:connector-curvature="0"
           d="m 46,51.5 0,1 c 0,0.277 0.223,0.5 0.5,0.5 l 5,0 c 0.277,0 0.5,-0.223 0.5,-0.5 l 0,-1 c 0,0.277 -0.223,0.5 -0.5,0.5 l -5,0 C 46.223,52 46,51.777 46,51.5 z" />
        <text
           sodipodi:linespacing="125%"
           style="font-size:3.44449735px;font-style:normal;font-variant:normal;font-weight:normal;font-stretch:normal;text-align:center;line-height:125%;writing-mode:lr-tb;text-anchor:middle;fill:#ffffff;fill-opacity:1;stroke:none;font-family:Liberation Sans;-inkscape-font-specification:Liberation Sans"
           xml:space="preserve"
           id="text3996"
           y="51.18573"
           x="49.001682"><tspan
             id="tspan3998"
             y="51.18573"
             x="49.001682">4</tspan></text>
        <rect
           style="fill:url(#linearGradient4018);fill-opacity:1;stroke:none"
           id="rect4000"
           transform="scale(1,-1)"
           y="-52"
           x="54"
           ry="0.5"
           rx="0.5"
           height="4"
           width="6" />
        <path
           style="opacity:0.2;fill:#000000;fill-opacity:1;stroke:none"
           id="path4002"
           inkscape:connector-curvature="0"
           d="m 54,51.5 0,1 c 0,0.277 0.223,0.5 0.5,0.5 l 5,0 c 0.277,0 0.5,-0.223 0.5,-0.5 l 0,-1 c 0,0.277 -0.223,0.5 -0.5,0.5 l -5,0 C 54.223,52 54,51.777 54,51.5 z" />
        <text
           sodipodi:linespacing="125%"
           style="font-size:3.44449735px;font-style:normal;font-variant:normal;font-weight:normal;font-stretch:normal;text-align:center;line-height:125%;writing-mode:lr-tb;text-anchor:middle;fill:#ffffff;fill-opacity:1;stroke:none;font-family:Liberation Sans;-inkscape-font-specification:Liberation Sans"
           xml:space="preserve"
           id="text4004"
           y="51.18573"
           x="57.001682"><tspan
             id="tspan4006"
             y="51.18573"
             x="57.001682">5</tspan></text>
        <rect
           style="fill:url(#linearGradient4020);fill-opacity:1;stroke:none"
           id="rect4008"
           transform="scale(1,-1)"
           y="-52"
           x="62"
           ry="0.5"
           rx="0.5"
           height="4"
           width="6" />
        <path
           style="opacity:0.2;fill:#000000;fill-opacity:1;stroke:none"
           id="path4010"
           inkscape:connector-curvature="0"
           d="m 62,51.5 0,1 c 0,0.277 0.223,0.5 0.5,0.5 l 5,0 c 0.277,0 0.5,-0.223 0.5,-0.5 l 0,-1 c 0,0.277 -0.223,0.5 -0.5,0.5 l -5,0 C 62.223,52 62,51.777 62,51.5 z" />
        <text
           sodipodi:linespacing="125%"
           style="font-size:3.44449735px;font-style:normal;font-variant:normal;font-weight:normal;font-stretch:normal;text-align:center;line-height:125%;writing-mode:lr-tb;text-anchor:middle;fill:#ffffff;fill-opacity:1;stroke:none;font-family:Liberation Sans;-inkscape-font-specification:Liberation Sans"
           xml:space="preserve"
           id="text4012"
           y="51.18573"
           x="65.001678"><tspan
             id="tspan4014"
             y="51.18573"
             x="65.001678">6</tspan></text>
        <rect
           style="fill:url(#linearGradient4046);fill-opacity:1;stroke:none"
           id="rect4022"
           transform="scale(1,-1)"
           y="-58"
           x="46"
           ry="0.5"
           rx="0.5"
           height="4"
           width="6" />
        <path
           style="opacity:0.2;fill:#000000;fill-opacity:1;stroke:none"
           id="path4024"
           inkscape:connector-curvature="0"
           d="m 46,57.5 0,1 c 0,0.277 0.223,0.5 0.5,0.5 l 5,0 c 0.277,0 0.5,-0.223 0.5,-0.5 l 0,-1 c 0,0.277 -0.223,0.5 -0.5,0.5 l -5,0 C 46.223,58 46,57.777 46,57.5 z" />
        <text
           sodipodi:linespacing="125%"
           style="font-size:3.44449735px;font-style:normal;font-variant:normal;font-weight:normal;font-stretch:normal;text-align:center;line-height:125%;writing-mode:lr-tb;text-anchor:middle;fill:#ffffff;fill-opacity:1;stroke:none;font-family:Liberation Sans;-inkscape-font-specification:Liberation Sans"
           xml:space="preserve"
           id="text4026"
           y="57.18573"
           x="49.001682"><tspan
             id="tspan4028"
             y="57.18573"
             x="49.001682">1</tspan></text>
        <rect
           style="fill:url(#linearGradient4048);fill-opacity:1;stroke:none"
           id="rect4030"
           transform="scale(1,-1)"
           y="-58"
           x="54"
           ry="0.5"
           rx="0.5"
           height="4"
           width="6" />
        <path
           style="opacity:0.2;fill:#000000;fill-opacity:1;stroke:none"
           id="path4032"
           inkscape:connector-curvature="0"
           d="m 54,57.5 0,1 c 0,0.277 0.223,0.5 0.5,0.5 l 5,0 c 0.277,0 0.5,-0.223 0.5,-0.5 l 0,-1 c 0,0.277 -0.223,0.5 -0.5,0.5 l -5,0 C 54.223,58 54,57.777 54,57.5 z" />
        <text
           sodipodi:linespacing="125%"
           style="font-size:3.44449735px;font-style:normal;font-variant:normal;font-weight:normal;font-stretch:normal;text-align:center;line-height:125%;writing-mode:lr-tb;text-anchor:middle;fill:#ffffff;fill-opacity:1;stroke:none;font-family:Liberation Sans;-inkscape-font-specification:Liberation Sans"
           xml:space="preserve"
           id="text4034"
           y="57.18573"
           x="57.001682"><tspan
             id="tspan4036"
             y="57.18573"
             x="57.001682">2</tspan></text>
        <rect
           style="fill:url(#linearGradient4051);fill-opacity:1;stroke:none"
           id="rect4038"
           transform="scale(1,-1)"
           y="-58"
           x="62"
           ry="0.5"
           rx="0.5"
           height="4"
           width="6" />
        <path
           style="opacity:0.2;fill:#000000;fill-opacity:1;stroke:none"
           id="path4040"
           inkscape:connector-curvature="0"
           d="m 62,57.5 0,1 c 0,0.277 0.223,0.5 0.5,0.5 l 5,0 c 0.277,0 0.5,-0.223 0.5,-0.5 l 0,-1 c 0,0.277 -0.223,0.5 -0.5,0.5 l -5,0 C 62.223,58 62,57.777 62,57.5 z" />
        <text
           sodipodi:linespacing="125%"
           style="font-size:3.44449735px;font-style:normal;font-variant:normal;font-weight:normal;font-stretch:normal;text-align:center;line-height:125%;writing-mode:lr-tb;text-anchor:middle;fill:#ffffff;fill-opacity:1;stroke:none;font-family:Liberation Sans;-inkscape-font-specification:Liberation Sans"
           xml:space="preserve"
           id="text4042"
           y="57.18573"
           x="65.001678"><tspan
             id="tspan4044"
             y="57.18573"
             x="65.001678">3</tspan></text>
        <rect
           style="fill:url(#linearGradient4077);fill-opacity:1;stroke:none"
           id="rect4053"
           transform="scale(1,-1)"
           y="-64"
           x="46"
           ry="0.5"
           rx="0.5"
           height="4"
           width="6" />
        <path
           style="opacity:0.2;fill:#000000;fill-opacity:1;stroke:none"
           id="path4055"
           inkscape:connector-curvature="0"
           d="m 46,63.5 0,1 c 0,0.277 0.223,0.5 0.5,0.5 l 5,0 c 0.277,0 0.5,-0.223 0.5,-0.5 l 0,-1 c 0,0.277 -0.223,0.5 -0.5,0.5 l -5,0 C 46.223,64 46,63.777 46,63.5 z" />
        <text
           sodipodi:linespacing="125%"
           style="font-size:3.44449735px;font-style:normal;font-variant:normal;font-weight:normal;font-stretch:normal;text-align:center;line-height:125%;writing-mode:lr-tb;text-anchor:middle;fill:#ffffff;fill-opacity:1;stroke:none;font-family:Liberation Sans;-inkscape-font-specification:Liberation Sans"
           xml:space="preserve"
           id="text4057"
           y="63.18573"
           x="49.001682"><tspan
             id="tspan4059"
             y="63.18573"
             x="49.001682">*</tspan></text>
        <rect
           style="fill:url(#linearGradient4079);fill-opacity:1;stroke:none"
           id="rect4061"
           transform="scale(1,-1)"
           y="-64"
           x="54"
           ry="0.5"
           rx="0.5"
           height="4"
           width="6" />
        <path
           style="opacity:0.2;fill:#000000;fill-opacity:1;stroke:none"
           id="path4063"
           inkscape:connector-curvature="0"
           d="m 54,63.5 0,1 c 0,0.277 0.223,0.5 0.5,0.5 l 5,0 c 0.277,0 0.5,-0.223 0.5,-0.5 l 0,-1 c 0,0.277 -0.223,0.5 -0.5,0.5 l -5,0 C 54.223,64 54,63.777 54,63.5 z" />
        <text
           sodipodi:linespacing="125%"
           style="font-size:3.44449735px;font-style:normal;font-variant:normal;font-weight:normal;font-stretch:normal;text-align:center;line-height:125%;writing-mode:lr-tb;text-anchor:middle;fill:#ffffff;fill-opacity:1;stroke:none;font-family:Liberation Sans;-inkscape-font-specification:Liberation Sans"
           xml:space="preserve"
           id="text4065"
           y="63.18573"
           x="57.001682"><tspan
             id="tspan4067"
             y="63.18573"
             x="57.001682">0</tspan></text>
        <rect
           style="fill:url(#linearGradient4081);fill-opacity:1;stroke:none"
           id="rect4069"
           transform="scale(1,-1)"
           y="-64"
           x="62"
           ry="0.5"
           rx="0.5"
           height="4"
           width="6" />
        <path
           style="opacity:0.2;fill:#000000;fill-opacity:1;stroke:none"
           id="path4071"
           inkscape:connector-curvature="0"
           d="m 62,63.5 0,1 c 0,0.277 0.223,0.5 0.5,0.5 l 5,0 c 0.277,0 0.5,-0.223 0.5,-0.5 l 0,-1 c 0,0.277 -0.223,0.5 -0.5,0.5 l -5,0 C 62.223,64 62,63.777 62,63.5 z" />
        <text
           sodipodi:linespacing="125%"
           style="font-size:3.44449735px;font-style:normal;font-variant:normal;font-weight:normal;font-stretch:normal;text-align:center;line-height:125%;writing-mode:lr-tb;text-anchor:middle;fill:#ffffff;fill-opacity:1;stroke:none;font-family:Liberation Sans;-inkscape-font-specification:Liberation Sans"
           xml:space="preserve"
           id="text4073"
           y="63.18573"
           x="65.001678"><tspan
             id="tspan4075"
             y="63.18573"
             x="65.001678">#</tspan></text>
        <path
           inkscape:connector-curvature="0"
           style="fill:url(#linearGradient3820);fill-opacity:1;stroke:none"
           id="path3806"
           transform="matrix(0,0.959951,0.959951,0,-5.8219633,8.8484866)"
           d="m 36.618029,38.35817 a 6.250319,6.250319 0 1 1 -12.500638,0 6.250319,6.250319 0 1 1 12.500638,0 z" />
        <path
           style="opacity:0.15;fill:#000000;fill-opacity:1;stroke:none"
           id="path3880"
           inkscape:connector-curvature="0"
           d="m 32,34 c -1.876884,0 -3.443707,1.287639 -3.875,3.03125 -0.632368,0.0919 -1.125,0.544818 -1.125,1.125 l 0,25.6875 C 27,64.490083 27.605083,65 28.34375,65 l 1,0 4.3125,0 1,0 C 35.394917,65 36,64.490083 36,63.84375 l 0,-25.6875 c 0,-0.02262 0.0014,-0.0402 0,-0.0625 7.22e-4,-0.03127 0,-0.06231 0,-0.09375 0,-2.209139 -1.790861,-4 -4,-4 z" />
        <path
           style="opacity:0.4;fill:#000000;fill-opacity:1;stroke:none"
           id="rect3875"
           inkscape:connector-curvature="0"
           d="M 28.34375,37 C 28.26815,37 28.197102,37.02077 28.125,37.03125 28.048651,37.339912 28,37.667745 28,38 c 0,0.03144 -7.22e-4,0.06248 0,0.09375 -0.0014,0.0223 0,0.03988 0,0.0625 l 0,25.6875 C 28,64.490083 28.605083,65 29.34375,65 l 4.3125,0 C 34.394917,65 35,64.490083 35,63.84375 l 0,-25.6875 C 35,37.509917 34.394917,37 33.65625,37 l -5.3125,0 z" />
        <rect
           style="fill:url(#linearGradient3849);fill-opacity:1;stroke:none"
           id="rect3808"
           y="40"
           x="28"
           ry="1"
           rx="1"
           height="24"
           width="6" />
        <path
           inkscape:connector-curvature="0"
           style="fill:url(#linearGradient3891);fill-opacity:1;stroke:none"
           id="path3811"
           transform="matrix(0.63996732,0,0,0.63996732,11.565658,13.452025)"
           d="m 36.618029,38.35817 a 6.250319,6.250319 0 1 1 -12.500638,0 6.250319,6.250319 0 1 1 12.500638,0 z" />
        <path
           style="fill:url(#linearGradient3841);fill-opacity:1;stroke:none"
           id="rect3822"
           inkscape:connector-curvature="0"
           d="M 28.0625,40.71875 C 28.033734,40.812267 28,40.896804 28,41 l 0,22 c 0,0.554 0.446,1 1,1 l 4,0 c 0.554,0 1,-0.446 1,-1 L 34,41 C 34,40.896804 33.966266,40.812267 33.9375,40.71875 33.665941,41.012591 33.348369,41.235538 33,41.4375 L 33,62.5 c 0,0.277 -0.223,0.5 -0.5,0.5 l -3,0 C 29.223,63 29,62.777 29,62.5 l 0,-21.0625 c -0.348369,-0.201962 -0.665941,-0.424909 -0.9375,-0.71875 z" />
        <path
           style="opacity:0.2;fill:#000000;fill-opacity:1;stroke:none"
           id="path3886"
           inkscape:connector-curvature="0"
           d="m 31,34 c -2.209139,0 -4,1.790861 -4,4 0,0.17012 0.04189,0.335468 0.0625,0.5 C 27.309566,36.527954 28.960981,35 31,35 c 2.039019,0 3.690434,1.527954 3.9375,3.5 C 34.958113,38.335468 35,38.17012 35,38 35,35.790861 33.209139,34 31,34 z" />
        <path
           style="opacity:0.4;fill:url(#radialGradient3916);fill-opacity:1;stroke:none"
           id="rect3905"
           inkscape:connector-curvature="0"
           d="m 52,44 0,3 -2,0 0,1 2,0 0,2 2,0 0,-2 2,0 0,-1 -2,0 0,-3 -2,0 z" />
        <path
           style="opacity:0.4;fill:url(#radialGradient3920);fill-opacity:1;stroke:none"
           id="path3918"
           inkscape:connector-curvature="0"
           d="m 60,44 0,3 -2,0 0,1 2,0 0,2 2,0 0,-2 2,0 0,-1 -2,0 0,-3 -2,0 z" />
        <path
           style="opacity:0.4;fill:url(#radialGradient3926);fill-opacity:1;stroke:none"
           id="path3922"
           inkscape:connector-curvature="0"
           d="m 52,50 0,3 -2,0 0,1 2,0 0,2 2,0 0,-2 2,0 0,-1 -2,0 0,-3 -2,0 z" />
        <path
           style="opacity:0.4;fill:url(#radialGradient3928);fill-opacity:1;stroke:none"
           id="path3924"
           inkscape:connector-curvature="0"
           d="m 60,50 0,3 -2,0 0,1 2,0 0,2 2,0 0,-2 2,0 0,-1 -2,0 0,-3 -2,0 z" />
        <path
           style="opacity:0.4;fill:url(#radialGradient3934);fill-opacity:1;stroke:none"
           id="path3930"
           inkscape:connector-curvature="0"
           d="m 52,56 0,3 -2,0 0,1 2,0 0,2 2,0 0,-2 2,0 0,-1 -2,0 0,-3 -2,0 z" />
        <path
           style="opacity:0.4;fill:url(#radialGradient3936);fill-opacity:1;stroke:none"
           id="path3932"
           inkscape:connector-curvature="0"
           d="m 60,56 0,3 -2,0 0,1 2,0 0,2 2,0 0,-2 2,0 0,-1 -2,0 0,-3 -2,0 z" />
      </g>
    </g>
    <rect
       ry="25"
       rx="25"
       id="rect3003"
       style="opacity:0.15;fill:#ffffff;fill-opacity:1"
       height="92"
       width="92"
       y="958.36218"
       x="-96"
       clip-path="url(#clipPath3009)"
       transform="translate(98,3.8281269e-7)" />
  </g>
</svg>
