<svg height="96" width="96" xmlns="http://www.w3.org/2000/svg" xmlns:xlink="http://www.w3.org/1999/xlink" xmlns:sodipodi="http://sodipodi.sourceforge.net/DTD/sodipodi-0.dtd" xmlns:inkscape="http://www.inkscape.org/namespaces/inkscape">
 <defs>
  <filter x="-0.146" y="-0.34" color-interpolation-filters="sRGB" height="1.68" id="filter12102" width="1.291">
   <feGaussianBlur stdDeviation="9.30454"/>
  </filter>
  <clipPath clipPathUnits="userSpaceOnUse" id="clipPath3422">
   <use xlink:href="#SVGCleanerId_0" transform="matrix(0 1 -1 0 0 0)"/>
  </clipPath>
  <clipPath clipPathUnits="userSpaceOnUse" id="clipPath3430">
   <use xlink:href="#SVGCleanerId_0" transform="matrix(0 1 -1 0 0 0)"/>
  </clipPath>
  <clipPath clipPathUnits="userSpaceOnUse" id="clipPath3434">
   <use xlink:href="#SVGCleanerId_0" transform="matrix(0 1 -1 0 0 0)"/>
  </clipPath>
  <clipPath clipPathUnits="userSpaceOnUse" id="clipPath3438">
   <use xlink:href="#SVGCleanerId_0" transform="matrix(0 1 -1 0 0 0)"/>
  </clipPath>
  <clipPath clipPathUnits="userSpaceOnUse" id="clipPath3442">
   <use xlink:href="#SVGCleanerId_0" transform="matrix(0 1 -1 0 0 0)"/>
  </clipPath>
  <clipPath clipPathUnits="userSpaceOnUse" id="clipPath3446">
   <use xlink:href="#SVGCleanerId_0" transform="matrix(0 1 -1 0 0 0)"/>
  </clipPath>
  <clipPath clipPathUnits="userSpaceOnUse" id="clipPath3450">
   <use xlink:href="#SVGCleanerId_2" transform="matrix(0 1 -1 0 0 0)"/>
  </clipPath>
  <clipPath clipPathUnits="userSpaceOnUse" id="clipPath3454">
   <use xlink:href="#SVGCleanerId_0" transform="matrix(0 1 -1 0 0 0)"/>
  </clipPath>
  <clipPath clipPathUnits="userSpaceOnUse" id="clipPath3458">
   <use xlink:href="#SVGCleanerId_0" transform="matrix(0 1 -1 0 0 0)"/>
  </clipPath>
  <clipPath clipPathUnits="userSpaceOnUse" id="clipPath3462">
   <use xlink:href="#SVGCleanerId_0"/>
  </clipPath>
  <linearGradient x1="-101.29" x2="-21.288" gradientUnits="userSpaceOnUse" id="linearGradient3479" inkscape:collect="always" gradientTransform="matrix(1 0 0 1 1065.65 -107.12)">
   <stop stop-color="#4d4d4d" stop-opacity="1"/>
   <stop stop-color="#3e3e3e" stop-opacity="1" offset="1"/>
  </linearGradient>
  <linearGradient x2="0" y1="221.91" y2="347.07" gradientUnits="userSpaceOnUse" id="linearGradient3481" inkscape:collect="always" gradientTransform="matrix(0.48616 0 0 0.48616 -46.29 935.69)">
   <stop stop-color="#c3c3c3" stop-opacity="1"/>
   <stop stop-color="#a0a0a0" stop-opacity="1" offset="1"/>
  </linearGradient>
  <linearGradient x1="156.37" x2="228.69" gradientUnits="userSpaceOnUse" id="linearGradient3483" inkscape:collect="always" gradientTransform="matrix(0.48616 0 0 0.48616 -46.29 935.69)">
   <stop stop-color="#d99600" stop-opacity="1"/>
   <stop stop-color="#dfa800" stop-opacity="1" offset="1"/>
  </linearGradient>
  <linearGradient x1="157.37" x2="227.69" gradientUnits="userSpaceOnUse" id="linearGradient3485" inkscape:collect="always" gradientTransform="matrix(0.48616 0 0 0.48616 -46.29 935.69)">
   <stop stop-color="#d99600" stop-opacity="1"/>
   <stop stop-color="#deae00" stop-opacity="1" offset="1"/>
  </linearGradient>
  <rect x="964.36" rx="10.769" y="-88" height="80" id="SVGCleanerId_0" width="80"/>
  <path d="m 46.886152,1004.908 c -7.519853,0 -15.694312,4.596 -16.301443,6.791 -0.558619,2.0196 0.913016,4.0138 1.595201,4.8464 0.688481,0.8402 10.451553,12.163 11.439876,13.0654 0.988323,0.9024 1.732327,1.6408 3.451149,1.6408 0.788099,0 -0.279453,0 0.505379,0 1.718822,0 2.438655,-0.7384 3.426978,-1.6408 0.988322,-0.9024 10.736202,-12.2252 11.424683,-13.0654 0.682185,-0.8326 2.169013,-2.8268 1.610394,-4.8464 -0.607132,-2.195 -8.78159,-6.791 -16.301443,-6.791 l -0.850774,0 z" id="SVGCleanerId_1"/>
  <rect x="58.974" rx="22.15" y="-276.23" height="164.56" id="SVGCleanerId_2" width="164.56"/>
 </defs>
 <g inkscape:label="Layer 1" inkscape:groupmode="layer" transform="matrix(1 0 0 1 0 -956.36)">
  <use xlink:href="#SVGCleanerId_0" clip-path="url(#clipPath3462)" fill="url(#linearGradient3479)" fill-opacity="1" stroke="none" opacity="0.99" transform="matrix(0 1 -1 0 0 0)"/>
  <path stroke-opacity="1" d="m 47.159615,941.37337 c -29.096228,0.50731 -49.9968464,22.67614 -52.58089,44.20988 -2.6141232,21.78435 -1.086643,26.13915 -6.532731,43.78445 -5.446088,17.6454 -7.840824,20.0424 -3.919639,36.5985 3.921185,16.5561 21.3543328,49.8767 62.744604,49.8767 0.597176,0 0.979737,0 1.595202,0 41.390272,0 58.823419,-33.3206 62.744609,-49.8767 3.92118,-16.5561 1.52644,-18.9531 -3.91964,-36.5985 -5.44609,-17.6453 -3.91861,-22.0001 -6.53273,-43.78445 -2.584049,-21.53374 -23.484666,-43.70257 -52.580894,-44.20988 -0.37756,0 -0.549965,0 -1.017891,0 z" stroke-width="2.917" clip-path="url(#clipPath3458)" fill="#1a1a1a" stroke="#000000" stroke-dasharray="none" stroke-linecap="butt" stroke-linejoin="miter" stroke-miterlimit="4" inkscape:connector-curvature="0" transform="matrix(1 0 0 1 0 0)"/>
  <path d="m 47.554617,1005.0295 c -37.9860025,0 -52.4137733,37.8169 -52.4137733,62.9117 0,33 23.2618953,47.8713 52.2466573,47.8713 0.344933,0 0.480405,0 0.820389,0 28.984762,0 52.24666,-14.8713 52.24666,-47.8713 0,-25.0948 -14.442966,-62.9117 -52.428968,-62.9117 -0.160845,0 -0.272025,0 -0.470965,0 z" clip-path="url(#clipPath3454)" fill="url(#linearGradient3481)" fill-opacity="1" stroke="none" inkscape:connector-curvature="0" transform="matrix(1 0 0 1 0 0)"/>
  <path d="m 117.21875,133 c 3.86328,15.28234 13.55573,28.89702 28.4375,33.9375 4.88727,1.71766 9.86999,2.04823 14.6875,1.3125 1.40518,1.76541 2.91584,3.38972 4.1875,4.78125 7.82566,7.97672 13.86312,18.16465 23.03125,24.59375 6.38583,2.99458 13.20452,-0.8042 16.875,-6.125 7.67576,-9.63597 17.21378,-18.03335 23.65625,-28.5 1.00969,-1.75724 1.28581,-3.57044 1.0625,-5.3125 3.50296,0.2916 7.036,0.11556 10.5,-0.5625 13.59576,-1.77777 25.78588,-11.56212 30.8125,-24.125 l -75.84375,0 c 1.0648,2.75486 2.48586,5.33579 4.1875,7.71875 -2.22604,-0.27085 -4.47175,-0.39284 -6.71875,-0.375 0.9466,-2.37615 1.71886,-4.83848 2.34375,-7.34375 l -77.21875,0 z" stroke-width="1.969" display="inline" clip-path="url(#clipPath3450)" fill="#000000" color="#000000" fill-opacity="1" stroke="none" filter="url(#filter12102)" visibility="visible" inkscape:connector-curvature="0" transform="matrix(0.48616 0 0 0.48616 -46.29 935.69)"/>
  <path stroke-opacity="1" stroke-width="0.972" d="m 85.398918,994.2616 a 18.618513,17.148712 0 0 1 -37.237026,0 18.618513,17.148712 0 1 1 37.237026,0 z" display="inline" clip-path="url(#clipPath3446)" fill="#d7d7d7" color="#000000" fill-opacity="1" stroke="none" stroke-dasharray="none" stroke-dashoffset="0" visibility="visible" stroke-linecap="round" stroke-linejoin="round" stroke-miterlimit="4" inkscape:connector-curvature="0" transform="matrix(1 0 0 1 0 0)"/>
  <path stroke-opacity="1" stroke-width="0.972" d="m 58.60209,995.5577 a 4.6408114,7.1975401 0 1 1 -9.28162,0 4.6408114,7.1975401 0 1 1 9.28162,0 z" display="inline" clip-path="url(#clipPath3442)" fill="#000000" color="#000000" stroke="#000000" stroke-dasharray="none" stroke-dashoffset="0" visibility="visible" stroke-linecap="round" stroke-linejoin="round" stroke-miterlimit="4" inkscape:connector-curvature="0" transform="matrix(1 0 0 1 0 0)"/>
  <path d="m 48,992.95854 a 18.692208,23.676906 0 1 1 -37.384413,0 18.692208,23.676906 0 1 1 37.384413,0 z" stroke-width="1.969" display="inline" clip-path="url(#clipPath3438)" fill="#d7d7d7" color="#000000" fill-opacity="1" stroke="none" visibility="visible" inkscape:connector-curvature="0" transform="matrix(1 0 0 1 0 0)"/>
  <path stroke-opacity="1" stroke-width="0.972" d="m 46.398746,995.27868 a 4.8127087,8.1214448 0 1 1 -9.625417,0 4.8127087,8.1214448 0 1 1 9.625417,0 z" display="inline" clip-path="url(#clipPath3434)" fill="#000000" color="#000000" stroke="#000000" stroke-dasharray="none" stroke-dashoffset="0" visibility="visible" stroke-linecap="round" stroke-linejoin="round" stroke-miterlimit="4" inkscape:connector-curvature="0" transform="matrix(1 0 0 1 0 0)"/>
  <use xlink:href="#SVGCleanerId_1" clip-path="url(#clipPath3430)" fill="url(#linearGradient3483)" fill-opacity="1" stroke="none" inkscape:connector-curvature="0" transform="matrix(1 0 0 1 0 0)"/>
  <use stroke-opacity="1" stroke-width="1.458" xlink:href="#SVGCleanerId_1" clip-path="url(#clipPath3422)" fill="none" stroke="url(#linearGradient3485)" stroke-dasharray="none" stroke-miterlimit="4" inkscape:connector-curvature="0" transform="matrix(1 0 0 1 0 0)"/>
 </g>
</svg>
