<?xml version="1.0" encoding="UTF-8" standalone="no"?>
<!-- Created with Inkscape (http://www.inkscape.org/) -->

<svg
   xmlns:dc="http://purl.org/dc/elements/1.1/"
   xmlns:cc="http://creativecommons.org/ns#"
   xmlns:rdf="http://www.w3.org/1999/02/22-rdf-syntax-ns#"
   xmlns:svg="http://www.w3.org/2000/svg"
   xmlns="http://www.w3.org/2000/svg"
   xmlns:xlink="http://www.w3.org/1999/xlink"
   xmlns:sodipodi="http://sodipodi.sourceforge.net/DTD/sodipodi-0.dtd"
   xmlns:inkscape="http://www.inkscape.org/namespaces/inkscape"
   id="svg11037"
   height="96"
   width="96"
   version="1.1"
   inkscape:version="0.48.5 r10040"
   sodipodi:docname="synaptic.svg">
  <sodipodi:namedview
     pagecolor="#ffffff"
     bordercolor="#666666"
     borderopacity="1"
     objecttolerance="10"
     gridtolerance="10"
     guidetolerance="10"
     inkscape:pageopacity="0"
     inkscape:pageshadow="2"
     inkscape:window-width="1366"
     inkscape:window-height="716"
     id="namedview159"
     showgrid="false"
     inkscape:zoom="4"
     inkscape:cx="99.930897"
     inkscape:cy="37.880338"
     inkscape:window-x="0"
     inkscape:window-y="24"
     inkscape:window-maximized="1"
     inkscape:current-layer="svg11037"
     showguides="true"
     inkscape:guide-bbox="true" />
  <defs
     id="defs11039">
    <linearGradient
       x1="54.187"
       y1="90"
       x2="54.187"
       gradientUnits="userSpaceOnUse"
       y2="39.853"
       id="linearGradient3706">
      <stop
         offset="0"
         style="stop-color:#996c3b"
         id="stop4291-2" />
      <stop
         offset="1"
         style="stop-color:#c19e6d"
         id="stop4293-1" />
    </linearGradient>
    <linearGradient
       inkscape:collect="always"
       xlink:href="#linearGradient3706"
       id="linearGradient3419"
       gradientUnits="userSpaceOnUse"
       gradientTransform="translate(-111.84572,-93.559316)"
       x1="49.012192"
       y1="8.7555733"
       x2="51.230446"
       y2="87.597977" />
    <linearGradient
       inkscape:collect="always"
       xlink:href="#linearGradient3706"
       id="linearGradient3002"
       gradientUnits="userSpaceOnUse"
       gradientTransform="translate(0.01869,-95.999993)"
       x1="49.012192"
       y1="8.7555733"
       x2="51.230446"
       y2="87.597977" />
  </defs>
  <metadata
     id="metadata11042">
    <rdf:RDF>
      <cc:Work
         rdf:about="">
        <dc:format>image/svg+xml</dc:format>
        <dc:type
           rdf:resource="http://purl.org/dc/dcmitype/StillImage" />
        <dc:title />
      </cc:Work>
    </rdf:RDF>
  </metadata>
  <g
     id="g3792">
    <rect
       transform="scale(1,-1)"
       ry="10.769231"
       rx="10.769231"
       y="-87.999985"
       x="8.018692"
       height="80"
       width="80"
       id="rect2985"
       style="opacity:0.98999999;fill:url(#linearGradient3002);fill-opacity:1;stroke:none" />
    <path
       style="fill:#c09d6c;fill-opacity:0.99215686;stroke:none"
       d="m 8.018692,25.292877 0,20 7.746277,-9.49201 32.253723,0 32.253723,0 7.746277,9.49201 0,-20 -7.746277,9.49201 -32.253723,0 -32.253723,0 z"
       id="path3012"
       inkscape:connector-curvature="0"
       sodipodi:nodetypes="ccccccccccc" />
    <path
       sodipodi:nodetypes="ccccccccccc"
       inkscape:connector-curvature="0"
       id="path3006"
       d="m 8.018692,25.999985 0,20 7.746277,-9.49201 32.253723,0 32.253723,0 7.746277,9.49201 0,-20 -7.746277,9.49201 -32.253723,0 -32.253723,0 z"
       style="fill:#6e431c;fill-opacity:1;stroke:none" />
    <path
       sodipodi:nodetypes="ccccccccccc"
       inkscape:connector-curvature="0"
       d="m 54.530955,7.9999847 -6.636912,0 -6.636912,0 0.06571,29.2668293 0.147852,32.682084 6.228183,-0.558741 6.61928,-0.593301 0.03575,-6.269431 0.111721,-25.260905 0.06591,-29.2665353 z"
       style="opacity:0.8;fill:#d4bf9b;fill-opacity:1"
       id="polygon120-3" />
    <rect
       x="47.078972"
       y="7.9999881"
       width="1.0951999"
       height="53.163601"
       style="opacity:0.2;fill:#ffffff"
       id="rect4365-5" />
    <path
       inkscape:connector-curvature="0"
       id="rect3755"
       d="m 7.89433,75.196213 0,2.0133 c 0,5.966 4.793066,10.7905 10.758949,10.7905 l 58.450649,0 c 5.965883,0 10.790405,-4.8245 10.790405,-10.7905 l 0,-2.0133 c 0,5.9659 -4.824522,10.7904 -10.790405,10.7904 l -58.450649,0 c -5.965883,0 -10.758949,-4.8245 -10.758949,-10.7904 z"
       style="opacity:0.3;fill:#000000;fill-opacity:1;stroke:none" />
  </g>
  <path
     id="path3836"
     d="m 70.876786,50.912794 a 10,10 0 0 1 0,20 10,10 0 1 1 0,-20 z"
     style="fill:#7fc622;fill-opacity:1"
     inkscape:connector-curvature="0" />
  <path
     id="path3867"
     d="m 67.543463,53.27393 v 7.638864 h -2.777768 l 6.111091,7.638863 6.111091,-7.638863 H 74.210108 V 53.27393 h -6.666645 z"
     style="fill:#ffffff;fill-opacity:1"
     inkscape:connector-curvature="0" />
</svg>
