<svg height="96" width="96" xmlns="http://www.w3.org/2000/svg" xmlns:sodipodi="http://sodipodi.sourceforge.net/DTD/sodipodi-0.dtd" xmlns:inkscape="http://www.inkscape.org/namespaces/inkscape">
 <defs>
  <linearGradient x1="49.01" x2="51.23" y1="8.756" y2="87.6" gradientUnits="userSpaceOnUse" id="linearGradient3001" inkscape:collect="always" gradientTransform="matrix(1 0 0 1 0.019 -96)">
   <stop stop-color="#996c3b"/>
   <stop stop-color="#c19e6d" offset="1"/>
  </linearGradient>
 </defs>
 <rect x="8.02" rx="10.769" y="-88" fill="url(#linearGradient3001)" fill-opacity="1" stroke="none" height="80" opacity="0.99" width="80" transform="matrix(1 0 0 -1 0 0)"/>
 <path d="m 8.018692,25.999985 0,20 7.746277,-9.49201 32.253723,0 32.253723,0 7.746277,9.49201 0,-20 -7.746277,9.49201 -32.253723,0 -32.253723,0 z" fill="#6e431c" fill-opacity="1" stroke="none" sodipodi:nodetypes="ccccccccccc" inkscape:connector-curvature="0"/>
 <path d="m 54.530955,7.9999847 -6.636912,0 -6.636912,0 0.06571,29.2668293 0.147852,32.682084 6.228183,-0.558741 6.61928,-0.593301 0.03575,-6.269431 0.111721,-25.260905 0.06591,-29.2665353 z" fill="#d4bf9b" fill-opacity="1" opacity="0.8" sodipodi:nodetypes="ccccccccccc" inkscape:connector-curvature="0"/>
 <rect x="47.08" y="8" fill="white" height="53.16" opacity="0.2" width="1.095"/>
 <path d="m 70.876786,50.912794 a 10,10 0 0 1 0,20 10,10 0 1 1 0,-20 z" fill="#7fc622" fill-opacity="1" inkscape:connector-curvature="0"/>
 <path d="m 67.543463,53.27393 v 7.638864 h -2.777768 l 6.111091,7.638863 6.111091,-7.638863 H 74.210108 V 53.27393 h -6.666645 z" fill="#ffffff" fill-opacity="1" inkscape:connector-curvature="0"/>
</svg>
