<svg height="96" width="96" xmlns="http://www.w3.org/2000/svg" xmlns:xlink="http://www.w3.org/1999/xlink" xmlns:sodipodi="http://sodipodi.sourceforge.net/DTD/sodipodi-0.dtd" xmlns:inkscape="http://www.inkscape.org/namespaces/inkscape">
 <defs>
  <filter x="227.16" y="6.116" color-interpolation-filters="sRGB" height="206.25" id="Adobe_OpacityMaskFilter-5" width="312.27" filterUnits="userSpaceOnUse">
   <feColorMatrix values="1 0 0 0 0  0 1 0 0 0  0 0 1 0 0  0 0 0 1 0" type="matrix"/>
  </filter>
  <mask id="SVGID_2_-7">
   <g filter="url(#Adobe_OpacityMaskFilter-5)">
    <path d="m537.27 48.947-0.0195-0.23291v-0.23438c0-22.167-18.275-40.204-40.74-40.204h-0.12695l-0.12696-0.00586c-35.87-1.4976-73.87-2.2203-112.97-2.149-39.08-0.0713-77.08 0.6514-112.96 2.1489l-0.12744 0.00586h-0.12793c-6.1802 0-12.039 1.3716-17.292 3.8125l281.46 173.06c1.9375-4.6777 3.0137-9.791 3.0137-15.15v-0.23438l0.0195-0.23242c1.4863-19.398 2.209-39.679 2.1484-60.312 0.0605-20.597-0.66211-40.877-2.1484-60.274zm-41.014 161.26 0.12696-0.004h0.12695c6.5137 0 12.67-1.5254 18.137-4.2188l-87.156 6.1074c23.566-0.33008 46.574-0.95703 68.766-1.8848z" fill="url(#SVGID_3_-2)"/>
   </g>
  </mask>
  <linearGradient id="linearGradient3892">
   <stop/>
   <stop stop-opacity="0" offset="1"/>
  </linearGradient>
  <linearGradient x1="80" x2="32" xlink:href="#linearGradient3892" y1="40" y2="64" gradientUnits="userSpaceOnUse" id="linearGradient21199" inkscape:collect="always" gradientTransform="matrix(-0.74372 0.57068 -0.57068 -0.74372 111.84 1012.45)"/>
  <linearGradient x1="80" x2="32" xlink:href="#linearGradient3892" y1="40" y2="64" gradientUnits="userSpaceOnUse" id="linearGradient21202" inkscape:collect="always" gradientTransform="matrix(0.74372 -0.57068 0.57068 0.74372 -14.34 995.83)"/>
  <linearGradient x1="461.13" x2="352.87" y1="-18.516" y2="169.01" gradientUnits="userSpaceOnUse" id="SVGID_3_-2">
   <stop stop-color="#fff" offset="0.006"/>
   <stop stop-color="#f6f6f6" offset="0.013"/>
   <stop stop-color="#c8c8c8" offset="0.053"/>
   <stop stop-color="#9d9d9d" offset="0.098"/>
   <stop stop-color="#777" offset="0.146"/>
   <stop stop-color="#575757" offset="0.198"/>
   <stop stop-color="#3b3b3b" offset="0.257"/>
   <stop stop-color="#252525" offset="0.322"/>
   <stop stop-color="#141414" offset="0.399"/>
   <stop stop-color="#090909" offset="0.493"/>
   <stop stop-color="#020202" offset="0.626"/>
   <stop offset="0.994"/>
  </linearGradient>
 </defs>
 <g inkscape:label="Layer 1" inkscape:groupmode="layer" transform="matrix(1 0 0 1 0 -956.36)">
  <rect x="8.751" rx="10.769" y="964.14" fill="#e6e6e6" fill-opacity="1" stroke="none" height="80" width="80"/>
  <path d="m 496.26,8.27 0.12696,0.00586 h 0.12695 c 22.465,0 40.74,18.036 40.74,40.204 v 0.23438 l 0.0195,0.23291 c 1.4863,19.397 2.209,39.678 2.1484,60.274 0.0605,20.634 -0.66211,40.914 -2.1484,60.312 l -0.0195,0.23242 v 0.23438 c 0,22.17 -18.275,40.205 -40.74,40.205 h -0.12695 l -0.12696,0.004 c -35.881,1.498 -73.887,2.2207 -112.96,2.1484 -39.094,0.0723 -77.098,-0.65039 -112.98,-2.1484 l -0.12744,-0.004 h -0.12744 c -22.465,0 -40.741,-18.035 -40.741,-40.205 v -0.23438 l -0.0181,-0.23242 c -1.4868,-19.389 -2.21,-39.668 -2.1489,-60.277 -0.0615,-20.635 0.66113,-40.915 2.1484,-60.31 l 0.0181,-0.23291 v -0.23438 c 0,-22.167 18.276,-40.204 40.74,-40.204 h 0.12793 L 270.31899,8.269 c 35.876,-1.4976 73.882,-2.2202 112.96,-2.1489 39.1,-0.071289 77.105,0.65137 112.98,2.1489 z" fill="#ffffff" mask="url(#SVGID_2_-7)" inkscape:connector-curvature="0" transform="matrix(0.17334 0 0 0.17163 -16.983 997.92)"/>
  <path d="m 62.727154,979.23553 0.154638,14.06049 3.718582,-2.8534 c 7.564219,9.85768 5.704848,23.98128 -4.153037,31.54558 -4.733903,3.6325 -10.716835,5.2332 -16.632392,4.4544 l -0.9788,7.4345 c 7.887895,1.0385 15.864706,-1.0959 22.177062,-5.9392 13.143793,-10.086 15.623387,-28.91695 5.537383,-42.06075 l 3.718581,-2.85339 -13.541402,-3.78855 z" fill="url(#linearGradient21202)" color="#000000" opacity="0.2" inkscape:connector-curvature="0"/>
  <path d="m 34.774629,1029.0428 -0.154671,-14.0605 -3.718581,2.853 c -7.564301,-9.8577 -5.70501,-23.98134 4.153441,-31.54564 4.734065,-3.63193 10.716835,-5.23289 16.632392,-4.45387 l 0.9788,-7.43457 c -7.888219,-1.03857 -15.865515,1.09565 -22.177062,5.93904 -13.143792,10.086 -15.622577,28.91694 -5.537382,42.06074 l -3.718582,2.8534 13.541402,3.7886 z" fill="url(#linearGradient21199)" color="#000000" opacity="0.2" inkscape:connector-curvature="0"/>
  <g transform="matrix(0.71829 0 0 0.71829 105.51 957.21)">
   <path d="m -86.682,70.021 c 0,0 -2.2303,1.2982 1.5891,1.7362 4.6278,0.52836 6.9927,0.45227 12.091,-0.51144 0,0 1.3431,0.84021 3.2156,1.5679 -11.433,4.8982 -25.875,-0.28382 -16.896,-2.7927 z" fill="#0074bd" fill-rule="evenodd" inkscape:connector-curvature="0"/>
   <path d="m -88.08,63.628 c 0,0 -2.5019,1.8524 1.3204,2.2474 4.944,0.5104 8.8468,0.55226 15.604,-0.74823 0,0 0.93244,0.94717 2.4009,1.4648 -13.821,4.0426 -29.214,0.31805 -19.326,-2.964 z" fill="#0074bd" fill-rule="evenodd" inkscape:connector-curvature="0"/>
   <path d="m -76.304,52.781 c 2.8185,3.2444 -0.73906,6.1616 -0.73906,6.1616 0,0 7.1525,-3.6917 3.8684,-8.3168 -3.0684,-4.3112 -5.4208,-6.4528 7.3147,-13.839 1.29e-4,0 -19.992,4.9918 -10.444,15.994 z" fill="#ea2d2e" fill-rule="evenodd" inkscape:connector-curvature="0"/>
   <path d="m -61.183,74.75 c 0,0 1.6511,1.3611 -1.8185,2.4137 -6.5975,1.9983 -27.465,2.6011 -33.261,0.07996 -2.082,-0.90686 1.8242,-2.1638 3.0532,-2.4293 1.2815,-0.27723 2.0132,-0.22659 2.0132,-0.22659 -2.3172,-1.6317 -14.977,3.2046 -6.4297,4.5917 23.308,3.7781 42.488,-1.7017 36.442,-4.4294 z" fill="#0074bd" fill-rule="evenodd" inkscape:connector-curvature="0"/>
   <path d="m -85.609,57.003 c 0,0 -10.613,2.5215 -3.7582,3.4379 2.8952,0.38742 8.6634,0.29828 14.04,-0.15282 4.393,-0.36869 8.8016,-1.1572 8.8016,-1.1572 0,0 -1.5479,0.664 -2.6685,1.4288 -10.78,2.8352 -31.6,1.5148 -25.605,-1.3838 5.0675,-2.4515 9.1898,-2.1729 9.1898,-2.1729 z" fill="#0074bd" fill-rule="evenodd" inkscape:connector-curvature="0"/>
   <path d="m -66.569,67.644 c 10.957,-5.6922 5.8904,-11.163 2.3541,-10.426 -0.86475,0.18047 -1.2527,0.33678 -1.2527,0.33678 0,0 0.32218,-0.50472 0.93567,-0.72187 6.9959,-2.4584 12.375,7.2531 -2.256,11.099 -1.3e-4,0 0.1682,-0.15244 0.21896,-0.28808 z" fill="#0074bd" fill-rule="evenodd" inkscape:connector-curvature="0"/>
   <path d="m -73.174,24.859 c 0,0 6.0668,6.0703 -5.756,15.402 -9.4811,7.4886 -2.1617,11.757 -0.0034,16.636 -5.5348,-4.9933 -9.5945,-9.3895 -6.8715,-13.48 3.9987,-6.0043 15.078,-8.9163 12.631,-18.558 z" fill="#ea2d2e" fill-rule="evenodd" inkscape:connector-curvature="0"/>
   <path d="m -84.532,83.074 c 10.515,0.67227 26.667,-0.37411 27.049,-5.3501 0,0 -0.73479,1.8863 -8.6909,3.383 -8.9758,1.6898 -20.049,1.4931 -26.614,0.40912 0,0 1.3449,1.1132 8.2557,1.5579 z" fill="#0074bd" fill-rule="evenodd" inkscape:connector-curvature="0"/>
  </g>
 </g>
</svg>
