<svg height="96" width="96" xmlns="http://www.w3.org/2000/svg" xmlns:sodipodi="http://sodipodi.sourceforge.net/DTD/sodipodi-0.dtd" xmlns:inkscape="http://www.inkscape.org/namespaces/inkscape">
 <defs>
  <linearGradient x1="47.51" x2="48.13" y1="965.64" y2="1042.64" gradientUnits="userSpaceOnUse" id="linearGradient3867" inkscape:collect="always">
   <stop stop-color="#37aee2" stop-opacity="1"/>
   <stop stop-color="#1e96c8" stop-opacity="1" offset="1"/>
  </linearGradient>
  <linearGradient x1="135" x2="160" y1="120" y2="160" gradientUnits="userSpaceOnUse" id="linearGradient3876" inkscape:collect="always" gradientTransform="matrix(0.33333 0 0 0.33333 110.72 951.11)">
   <stop stop-color="#eff7fc" stop-opacity="1"/>
   <stop stop-color="#ffffff" stop-opacity="1" offset="1"/>
  </linearGradient>
 </defs>
 <g inkscape:label="Layer 1" inkscape:groupmode="layer" transform="matrix(1 0 0 1 0 -956.36)">
  <rect x="8.751" rx="10.769" y="964.14" fill="url(#linearGradient3867)" fill-opacity="1" stroke="none" height="80" width="80"/>
  <g transform="matrix(1 0 0 1 -100.03 10.724)">
   <path d="m 143.38939,1009.4476 c -1.29588,0 -1.07567,-0.4894 -1.5226,-1.7232 l -3.81356,-12.54238 23.60169,-14.74577 2.75424,0.72034 -2.28813,6.27119 z" fill="#c8daea" fill-opacity="1" stroke="none" sodipodi:nodetypes="ccccccc" inkscape:connector-curvature="0"/>
   <path d="m 143.38939,1009.4476 c 1,0 1.44329,-0.4559 2,-1 0.85945,-0.8402 12,-11.66671 12,-11.66671 l -6.82398,-1.65171 -6.33333,4 -0.84269,9.98502 z" fill="#a9c9dd" fill-opacity="1" stroke="none" sodipodi:nodetypes="csccccc" inkscape:connector-curvature="0"/>
   <path d="m 144.07018,999.24981 16.12005,11.90959 c 1.83951,1.015 3.16714,0.4895 3.62542,-1.7078 l 6.56171,-30.92096 c 0.67181,-2.69341 -1.02669,-3.91506 -2.78648,-3.11606 l -38.53132,14.86123 c -2.63003,1.0549 -2.61471,2.5222 -0.4794,3.17599 l 9.88751,3.0861 22.89109,-14.44176 c 1.08062,-0.65529 2.07242,-0.303 1.25841,0.41947 z" fill="url(#linearGradient3876)" fill-opacity="1" stroke="none" sodipodi:nodetypes="ccccccccccc" inkscape:connector-curvature="0"/>
  </g>
 </g>
</svg>
