<?xml version="1.0" encoding="UTF-8" standalone="no"?>
<!-- Created with Inkscape (http://www.inkscape.org/) -->

<svg
   xmlns:dc="http://purl.org/dc/elements/1.1/"
   xmlns:cc="http://creativecommons.org/ns#"
   xmlns:rdf="http://www.w3.org/1999/02/22-rdf-syntax-ns#"
   xmlns:svg="http://www.w3.org/2000/svg"
   xmlns="http://www.w3.org/2000/svg"
   xmlns:xlink="http://www.w3.org/1999/xlink"
   xmlns:sodipodi="http://sodipodi.sourceforge.net/DTD/sodipodi-0.dtd"
   xmlns:inkscape="http://www.inkscape.org/namespaces/inkscape"
   id="svg11037"
   height="96"
   width="96"
   version="1.1"
   inkscape:version="0.48.5 r10040"
   sodipodi:docname="telepathy.svg">
  <sodipodi:namedview
     pagecolor="#ffffff"
     bordercolor="#666666"
     borderopacity="1"
     objecttolerance="10"
     gridtolerance="10"
     guidetolerance="10"
     inkscape:pageopacity="0"
     inkscape:pageshadow="2"
     inkscape:window-width="640"
     inkscape:window-height="480"
     id="namedview65656" />
  <defs
     id="defs11039">
    <linearGradient
       id="linearGradient11642"
       y2="1046.1"
       gradientUnits="userSpaceOnUse"
       y1="962.62"
       gradientTransform="matrix(1.15 0 0 1.15 -7.1999 -150.65)"
       x2="48"
       x1="48">
      <stop
         id="stop2301"
         style="stop-color:#729fcf"
         offset="0" />
      <stop
         id="stop2303"
         style="stop-color:#204a87"
         offset="1" />
    </linearGradient>
    <radialGradient
       id="radialGradient3811"
       xlink:href="#linearGradient3803"
       gradientUnits="userSpaceOnUse"
       cy="45.022"
       cx="68.396"
       gradientTransform="matrix(1.4977 0 0 1.2397 -34.039 -11.7)"
       r="12.252" />
    <linearGradient
       id="linearGradient3803">
      <stop
         id="stop3805"
         style="stop-color:#336bbe"
         offset="0" />
      <stop
         id="stop3807"
         style="stop-color:#254d89"
         offset="1" />
    </linearGradient>
    <radialGradient
       id="radialGradient3809"
       xlink:href="#linearGradient3803"
       gradientUnits="userSpaceOnUse"
       cy="51.751"
       cx="35.144"
       gradientTransform="matrix(1.5602 -6.3737e-8 5.5656e-8 1.3624 -19.963 -20.52)"
       r="17.011" />
    <clipPath
       id="clipPath3009"
       clipPathUnits="userSpaceOnUse">
      <path
         id="path3011"
         style="opacity:.15;fill:#fff"
         d="m-2 956.36h-96v33.562l96 25.687v-59.25z" />
    </clipPath>
  </defs>
  <metadata
     id="metadata11042">
    <rdf:RDF>
      <cc:Work
         rdf:about="">
        <dc:format>image/svg+xml</dc:format>
        <dc:type
           rdf:resource="http://purl.org/dc/dcmitype/StillImage" />
        <dc:title />
      </cc:Work>
    </rdf:RDF>
  </metadata>
  <g
     id="layer1"
     transform="translate(0 -956.36)">
    <rect
       id="rect3867"
       style="fill:url(#linearGradient11642)"
       rx="25"
       ry="25"
       height="92"
       width="92"
       y="958.36"
       x="2" />
    <g
       id="g3072"
       transform="translate(-3.4214e-7 956.36)">
      <path
         id="path3801"
         d="m67.812 33.625c-5.2272-0.03617-9.9363 3.5947-11.062 8.9062 2.2645 2.7534-3.1587 7.6942-2.125 9.3125 1.5501 2.4267 4.0548 0.83758 3.7188 2.7812-0.25533 1.4769-0.17339 2.879 1.0938 3.7188-0.90298 2.7368 2.2637 5.2407 3.7812 5.5625 6.07 1.286 14.244-10.649 15.531-16.719 1.287-6.071-2.586-12.026-8.656-13.313-0.759-0.161-1.535-0.245-2.282-0.25z"
         style="fill:url(#radialGradient3811)" />
      <path
         id="path2286"
         d="m34.469 36.719c-1.0342 0.0072-2.0741 0.12093-3.125 0.34375-8.4073 1.7825-13.783 10.061-12 18.469 1.7825 8.4073 13.061 25.126 21.469 23.344 2.1018-0.44564 6.5319-4.147 5.2812-7.9375 1.755-1.163 1.8536-3.0795 1.5-5.125-0.4654-2.6919 3.1032-0.26413 5.25-3.625 1.431-2.243-6.168-9.313-3.032-13.127-1.559-7.356-8.104-12.393-15.343-12.343z"
         style="fill:url(#radialGradient3809)" />
      <path
         id="path3791"
         d="m67.812 33.625c-5.2272-0.03617-9.9363 3.5947-11.062 8.9062 2.2645 2.7534-3.1587 7.6942-2.125 9.3125 1.5501 2.4267 4.0548 0.83758 3.7188 2.7812-0.25533 1.4769-0.17339 2.879 1.0938 3.7188-0.90298 2.7368 2.2637 5.2407 3.7812 5.5625 6.07 1.286 14.244-10.649 15.531-16.719 1.287-6.071-2.586-12.026-8.656-13.313-0.759-0.161-1.535-0.245-2.282-0.25zm-33.344 3.0938c-1.0342 0.0072-2.0741 0.12093-3.125 0.34375-8.4073 1.7825-13.783 10.061-12 18.469 1.7825 8.4073 13.061 25.126 21.469 23.344 2.1018-0.44564 6.5319-4.147 5.2812-7.9375 1.755-1.163 1.8536-3.0795 1.5-5.125-0.4654-2.6919 3.1032-0.26413 5.25-3.625 1.432-2.243-6.167-9.313-3.031-13.127-1.559-7.356-8.104-12.393-15.343-12.343zm33.313 0.281c0.54422 0.0038 1.1511 0.06715 1.7188 0.1875 4.5466 0.96397 7.4014 5.3602 6.4375 9.9062-0.46596 2.1977-2.6881 6.6272-5.375 9.875-1.3434 1.6239-2.802 2.9875-4.0625 3.7812-1.2187 0.76744-2.1114 0.92964-2.625 0.84375 0.007-0.04987-0.87335-0.46393-1.2812-0.9375-0.466-0.541-0.461-0.74-0.406-0.906a2.8871 2.8871 0 0 0 -1.063 -3.25c-0.01351-0.09281-0.02406-0.37432 0.0625-0.875 0.08766-0.50703 0.12726-1.1023-0.0625-1.8125-0.18976-0.71024-0.70449-1.4883-1.25-1.9062-1.0485-0.80334-1.6824-0.75301-2.0625-0.8125 0.25157-0.47742 0.51001-0.9358 0.875-1.625 0.51696-0.97618 1.0985-2.107 1.375-3.5 0.17159-0.86439 0.05803-1.8992-0.25-2.9375 1.066-3.618 4.304-6.057 7.969-6.032zm-33.281 3.094c5.6757-0.03927 10.742 3.8084 12.25 9.4688-0.47374 1.3376-0.64514 2.7223-0.40625 3.9062 0.35172 1.7431 1.0728 3.248 1.7812 4.5938 0.70841 1.3458 1.4309 2.557 1.7812 3.3438 0.04731 0.10624 0.02957 0.10039 0.0625 0.1875-0.22046 0.15639-0.47453 0.19294-1.125 0.28125-0.51779 0.07029-1.2773-0.03046-2.5312 0.8125-0.62696 0.42148-1.2697 1.2353-1.5 2.0312-0.23029 0.79594-0.16722 1.488-0.0625 2.0938 0.14336 0.82921 0.12946 1.4551 0.0625 1.75-0.06696 0.29495-0.02287 0.27681-0.3125 0.46875a2.8871 2.8871 0 0 0 -1.1562 3.3125c0.21993 0.66658-0.01351 1.4737-0.84375 2.4688-0.83024 0.99503-2.4142 1.7782-2.2812 1.75-1.078 0.22856-2.6116-0.13777-4.5-1.3438s-3.9645-3.194-5.875-5.5312c-3.8209-4.6744-6.9719-10.875-7.6875-14.25-1.4585-6.8792 2.9039-13.604 9.7812-15.062 0.86792-0.18402 1.7264-0.27543 2.5625-0.28125z"
         style="opacity:.05" />
      <path
         id="path3655"
         d="m56.938 42.812c-0.06738 0.23903-0.13524 0.47228-0.1875 0.71875 0.26738 0.32511 0.42369 0.68548 0.5 1.0625 0.07872-0.63978 0.01544-1.2443-0.3125-1.7812zm22.031 2.625c-0.03031 0.58375-0.09364 1.1599-0.21875 1.75-1.287 6.0703-9.4609 18.006-15.531 16.719-1.233-0.26143-3.5633-1.9655-3.9062-4.0625-0.39057 2.5314 2.4835 4.7608 3.9062 5.0625 6.0703 1.287 14.244-10.648 15.531-16.719 0.19664-0.92748 0.25245-1.8441 0.21875-2.75zm-29.344 3.907c-0.479 0.718-0.61 1.534-0.531 2.406 0.082-0.608 0.298-1.177 0.718-1.688-0.052-0.246-0.124-0.477-0.187-0.718zm4.969 2.406c-0.12991 0.44315-0.14542 0.81718 0.03125 1.0938 1.3162 2.0606 3.3184 1.2338 3.6875 2.125 0.01546-0.11458 0.01124-0.22801 0.03125-0.34375 0.336-1.944-2.169-0.355-3.719-2.781-0.017-0.028-0.017-0.065-0.031-0.094zm-35.562 1.0625c-0.03805 1.224 0.04733 2.4681 0.3125 3.7188 1.7825 8.4073 13.061 25.126 21.469 23.344 1.9344-0.41014 5.8335-3.5743 5.4688-7.0312-0.377 3.043-3.727 5.661-5.471 6.031-8.407 1.783-19.686-14.936-21.468-23.344-0.194-0.914-0.283-1.816-0.313-2.719zm39.219 3.5c-0.10184 1.1465 0.11036 2.1971 1.0312 2.9062 0.0088-0.29137 0.05743-0.57549 0.15625-0.875-0.763-0.505-1.099-1.224-1.188-2.031zm-5.3125 5.6562c-0.0277 0.07923-0.04901 0.14871-0.09375 0.21875-2.1468 3.3609-5.7154 0.93305-5.25 3.625 0.01111 0.06425 0.02107 0.12352 0.03125 0.1875 0.45032-1.3097 3.3604 0.09676 5.2188-2.8125 0.20091-0.31453 0.1939-0.73638 0.09375-1.2188zm-5.219 6.157c-0.11354 1.1227-0.55885 2.106-1.625 2.8125 0.09578 0.2903 0.12351 0.58716 0.15625 0.875 1.2324-0.9072 1.5424-2.2212 1.4688-3.6875z"
         style="opacity:.2;fill:#fff" />
      <g
         id="g3055">
        <path
           id="path2296"
           style="fill:#fff"
           d="m61.665 30.132c0 0.8734-0.70803 1.5814-1.5814 1.5814-0.8734 0-1.5814-0.70803-1.5814-1.5814 0-0.8734 0.70803-1.5814 1.5814-1.5814 0.8734 0 1.5814 0.70803 1.5814 1.5814zm-3.4504-6.8822c0 1.191-0.9655 2.1565-2.1565 2.1565s-2.1565-0.96549-2.1565-2.1565 0.9655-2.1565 2.1565-2.1565 2.1565 0.9655 2.1565 2.1565zm-8.052-3.413c0 1.6674-1.3517 3.0191-3.0191 3.0191s-3.0191-1.3517-3.0191-3.0191 1.3517-3.0191 3.0191-3.0191 3.0191 1.3517 3.0191 3.0191zm-9.7761 2.5878c0 1.985-1.6092 3.5941-3.5941 3.5941-1.985 0-3.5941-1.6092-3.5941-3.5941 0-1.985 1.6092-3.5941 3.5941-3.5941 1.985 0 3.5941 1.6092 3.5941 3.5941zm-7.713 7.7075c0 1.06-0.85931 1.9193-1.9193 1.9193s-1.9193-0.85931-1.9193-1.9193 0.85931-1.9193 1.9193-1.9193 1.9193 0.85931 1.9193 1.9193z" />
        <path
           id="path3745"
           style="opacity:.1"
           d="m67.812 33.625c-5.2272-0.03617-9.9363 3.5947-11.062 8.9062 2.2645 2.7534-3.1587 7.6942-2.125 9.3125 1.5501 2.4267 4.0548 0.83758 3.7188 2.7812-0.25533 1.4769-0.17339 2.879 1.0938 3.7188-0.90298 2.7368 2.2637 5.2407 3.7812 5.5625 6.07 1.286 14.244-10.649 15.531-16.719 1.287-6.071-2.586-12.026-8.656-13.313-0.759-0.161-1.535-0.245-2.282-0.25zm0 2.25c0.62393 0.0043 1.2634 0.08245 1.9062 0.21875 5.1463 1.0911 8.4036 6.0727 7.3125 11.219-0.53585 2.5273-2.7981 6.9957-5.5938 10.375-1.3978 1.6896-2.9339 3.1434-4.3438 4.0312-1.4099 0.88787-2.5974 1.1601-3.5 0.96875-0.098-0.022-1.218-0.588-1.843-1.313s-0.867-1.329-0.656-1.969a1.7507 1.7507 0 0 0 -0.688 -2.031c-0.27411-0.18166-0.30888-0.24324-0.375-0.53125s-0.07522-0.7904 0.03125-1.4062c0.06969-0.40309 0.09931-0.85509-0.03125-1.3438-0.13056-0.48866-0.47128-0.99586-0.84375-1.2812-0.74494-0.57078-1.2781-0.55256-1.6562-0.625-0.617-0.11819-0.90048-0.18871-1.2188-0.5625 0.03092-0.09952 0.0479-0.13984 0.125-0.3125 0.25833-0.5785 0.75083-1.4324 1.25-2.375 0.49917-0.94259 1.0139-1.9981 1.25-3.1875 0.16608-0.83664 0.04128-1.8038-0.3125-2.7188 1.1012-4.277 4.9124-7.1858 9.1875-7.1562zm-33.344 0.84375c-1.0342 0.0072-2.0741 0.12093-3.125 0.34375-8.4073 1.7825-13.783 10.061-12 18.469 1.7825 8.4073 13.061 25.126 21.469 23.344 2.1018-0.44564 6.5319-4.147 5.2812-7.9375 1.755-1.163 1.8536-3.0795 1.5-5.125-0.4654-2.6919 3.1032-0.26413 5.25-3.625 1.432-2.243-6.167-9.313-3.031-13.127-1.559-7.356-8.104-12.393-15.343-12.343zm0 2.25c6.2993-0.04359 11.977 4.2831 13.5 10.625-0.53871 1.1994-0.76719 2.4869-0.53125 3.6562 0.3113 1.5428 0.99641 2.9684 1.6875 4.2812 0.69109 1.3129 1.4182 2.5208 1.8125 3.4062 0.18387 0.41287 0.27826 0.7302 0.3125 0.90625-0.67977 0.97304-1.2446 1.051-2.25 1.1875-0.53093 0.07208-1.183 0.0025-2.0625 0.59375-0.43975 0.29562-0.86908 0.84574-1.0312 1.4062-0.16217 0.56051-0.11765 1.094-0.03125 1.5938 0.15653 0.90539 0.18176 1.6622 0.0625 2.1875s-0.29148 0.81096-0.8125 1.1562a1.7507 1.7507 0 0 0 -0.686 2.031c0.37949 1.1502-0.08124 2.3552-1.0625 3.5312s-2.6045 2.0544-2.9375 2.125c-1.481 0.314-3.3061-0.16747-5.3438-1.4688-2.0376-1.3013-4.1922-3.3784-6.1562-5.7812-3.9282-4.8057-7.0903-11.049-7.875-14.75-1.5861-7.4807 3.1767-14.789 10.656-16.375 0.93994-0.19929 1.8359-0.30614 2.75-0.3125z" />
      </g>
      <path
         id="path3715"
         d="m67.812 33.625c-5.2272-0.03617-9.9363 3.5947-11.062 8.9062 2.2645 2.7534-3.1587 7.6942-2.125 9.3125 1.5501 2.4267 4.0548 0.83758 3.7188 2.7812-0.25533 1.4769-0.17339 2.879 1.0938 3.7188-0.90298 2.7368 2.2637 5.2407 3.7812 5.5625 6.07 1.286 14.244-10.649 15.531-16.719 1.287-6.071-2.586-12.026-8.656-13.313-0.759-0.161-1.535-0.245-2.282-0.25zm0 1.375c0.68458 0.0047 1.3936 0.10156 2.0938 0.25 5.6026 1.1879 9.1566 6.6475 7.9688 12.25-0.58902 2.7781-2.9029 7.2707-5.7812 10.75-1.4392 1.7396-3.0077 3.2281-4.5312 4.1875-1.5236 0.95944-2.95 1.3495-4.1562 1.0938-0.42491-0.09009-1.5675-0.72882-2.3125-1.5938-0.745-0.86493-1.1422-1.8131-0.8125-2.8125a0.88616 0.88616 0 0 0 -0.343 -1.032c-0.45162-0.29929-0.64396-0.60062-0.75-1.0625s-0.08569-1.0736 0.03125-1.75c0.056-0.325 0.054-0.649-0.031-0.97-0.086-0.32-0.291-0.627-0.532-0.812-0.481-0.369-0.929-0.395-1.312-0.469-0.767-0.147-1.358-0.199-1.969-1.156 0.02044 0.032-0.02524 0.0096 0-0.15625 0.02524-0.16587 0.13496-0.42241 0.28125-0.75 0.29257-0.65519 0.79561-1.5205 1.2812-2.4375 0.48564-0.91703 0.9509-1.903 1.1562-2.9375 0.1677-0.84478 0.02811-1.7461-0.40625-2.5625 1.1135-4.7917 5.3777-8.0641 10.125-8.0312zm-33.344 1.7188c-1.0342 0.0072-2.0741 0.12093-3.125 0.34375-8.4073 1.7825-13.783 10.061-12 18.469 1.7825 8.4073 13.061 25.126 21.469 23.344 2.1018-0.44564 6.5319-4.147 5.2812-7.9375 1.755-1.163 1.8536-3.0795 1.5-5.125-0.4654-2.6919 3.1032-0.26413 5.25-3.625 1.432-2.243-6.167-9.313-3.031-13.127-1.559-7.356-8.104-12.393-15.343-12.343zm0 1.375c6.7602-0.04678 12.86 4.6312 14.406 11.469-0.64051 1.0902-0.83422 2.3395-0.59375 3.5312 0.28054 1.3904 0.94709 2.7434 1.625 4.0312 0.67791 1.2879 1.3847 2.5082 1.8125 3.4688 0.2139 0.4803 0.36152 0.90014 0.40625 1.1875 0.04474 0.28736-0.0049 0.39623-0.03125 0.4375-0.90139 1.4112-1.8869 1.5094-2.9688 1.6562-0.54092 0.07343-1.1241 0.069-1.7188 0.46875-0.29732 0.19988-0.5459 0.5561-0.65625 0.9375s-0.10371 0.76837-0.03125 1.1875c0.16654 0.96334 0.22155 1.8307 0.0625 2.5312-0.15905 0.70055-0.49045 1.2256-1.1875 1.6875a0.88616 0.88616 0 0 0 -0.342 1.031c0.50088 1.5181-0.1226 3.0613-1.2188 4.375-1.0961 1.3137-2.7187 2.2605-3.4062 2.4062-1.7876 0.379-3.8488-0.21997-6-1.5938s-4.3388-3.4847-6.3438-5.9375c-4.0098-4.9055-7.2252-11.176-8.0625-15.125-1.6831-7.9383 3.3748-15.723 11.312-17.406 0.99474-0.21091 1.9641-0.33697 2.9375-0.34375z"
         style="opacity:.2" />
      <path
         id="path3731"
         d="m67.812 33.625c-5.2272-0.03617-9.9363 3.5947-11.062 8.9062 0.0756 0.09192 0.12851 0.18466 0.1875 0.28125 1.3847-4.9123 5.8904-8.222 10.875-8.1875 0.74674 0.0052 1.5225 0.08912 2.2812 0.25 5.1429 1.0904 8.6881 5.5395 8.875 10.562 0.2815-5.4212-3.3948-10.401-8.875-11.562-0.75879-0.16088-1.5345-0.24483-2.2812-0.25zm-33.344 3.0938c-1.0342 0.0072-2.0741 0.12093-3.125 0.34375-7.4931 1.5887-12.557 8.3488-12.312 15.75 0.21773-7.0041 5.1559-13.233 12.312-14.75 1.0509-0.22282 2.0908-0.33655 3.125-0.34375 6.9972-0.04842 13.331 4.6679 15.156 11.625 0.06197-0.09285 0.11399-0.19187 0.1875-0.28125-1.559-7.357-8.104-12.394-15.343-12.344zm22.782 7.875c-0.324 2.634-3.283 5.835-2.656 7.156 0.54-1.844 3.116-4.886 2.656-7.156zm-8.156 7.156c-0.44495 3.2829 3.303 7.6876 3.8438 10.188 0.62722-1.953-3.5156-6.5318-3.8438-10.188zm9.2188 3.2188c-0.06307 0.46748-0.10968 0.91531-0.0625 1.3438 0.02017-0.22704 0.05353-0.45484 0.09375-0.6875 0.05069-0.29323 0.03433-0.49791-0.03125-0.65625zm0.96875 4.25c-0.0063 0.20785-0.0017 0.42352 0.03125 0.625 0.02604-0.16876 0.06856-0.32895 0.125-0.5-0.05953-0.03945-0.10186-0.08311-0.15625-0.125zm-11.657 6.781c-0.0699 0.20331-0.09379 0.45077-0.03125 0.8125 0.07728 0.44701 0.10349 0.88433 0.125 1.3125 0.067-0.667 0.023-1.39-0.094-2.125zm-1.375 5.8125c-0.05445 0.04008-0.09822 0.08655-0.15625 0.125 0.09963 0.30196 0.15592 0.60702 0.1875 0.90625 0.0424-0.3439 0.0088-0.67891-0.03125-1.0312z"
         style="opacity:0.29" />
    </g>
    <rect
       id="rect3003"
       style="opacity:.15;fill:#fff"
       transform="translate(98 3.8281e-7)"
       clip-path="url(#clipPath3009)"
       rx="25"
       ry="25"
       height="92"
       width="92"
       y="958.36"
       x="-96" />
  </g>
</svg>
