<?xml version="1.0" encoding="UTF-8" standalone="no"?>
<!-- Created with Inkscape (http://www.inkscape.org/) -->

<svg
   xmlns:dc="http://purl.org/dc/elements/1.1/"
   xmlns:cc="http://creativecommons.org/ns#"
   xmlns:rdf="http://www.w3.org/1999/02/22-rdf-syntax-ns#"
   xmlns:svg="http://www.w3.org/2000/svg"
   xmlns="http://www.w3.org/2000/svg"
   xmlns:xlink="http://www.w3.org/1999/xlink"
   xmlns:sodipodi="http://sodipodi.sourceforge.net/DTD/sodipodi-0.dtd"
   xmlns:inkscape="http://www.inkscape.org/namespaces/inkscape"
   width="96"
   height="96"
   id="svg11037"
   version="1.1"
   inkscape:version="0.48.5 r10040"
   sodipodi:docname="terminator.svg">
  <defs
     id="defs11039">
    <linearGradient
       id="linearGradient3795">
      <stop
         style="stop-color:#13a6fd;stop-opacity:1;"
         offset="0"
         id="stop3797" />
      <stop
         style="stop-color:#2975b6;stop-opacity:1;"
         offset="1"
         id="stop3799" />
    </linearGradient>
    <radialGradient
       cx="47.098362"
       cy="78.286942"
       r="38.957481"
       fx="47.098362"
       fy="78.286942"
       id="radialGradient3205"
       xlink:href="#linearGradient3916"
       gradientUnits="userSpaceOnUse"
       gradientTransform="matrix(1.3830053,-1.0350102e-8,0,1.3123934,-18.038924,-24.218731)" />
    <linearGradient
       id="linearGradient3916">
      <stop
         id="stop3918"
         style="stop-color:#300b0b;stop-opacity:1"
         offset="0" />
      <stop
         id="stop3920"
         style="stop-color:#3f0000;stop-opacity:1"
         offset="1" />
    </linearGradient>
    <linearGradient
       x1="18"
       y1="47.5"
       x2="78"
       y2="47.5"
       id="linearGradient3914"
       xlink:href="#linearGradient2198"
       gradientUnits="userSpaceOnUse"
       gradientTransform="matrix(0,1,1,0,0,0)" />
    <linearGradient
       id="linearGradient2198">
      <stop
         id="stop2200"
         style="stop-color:#ff0000;stop-opacity:1"
         offset="0" />
      <stop
         id="stop2202"
         style="stop-color:#5a0000;stop-opacity:1"
         offset="1" />
    </linearGradient>
    <linearGradient
       x1="48"
       y1="64"
       x2="48"
       y2="80"
       id="linearGradient3946"
       xlink:href="#linearGradient3940"
       gradientUnits="userSpaceOnUse"
       spreadMethod="reflect" />
    <linearGradient
       id="linearGradient3940">
      <stop
         id="stop3942"
         style="stop-color:#ffedb8;stop-opacity:1"
         offset="0" />
      <stop
         id="stop3944"
         style="stop-color:#ffffff;stop-opacity:0"
         offset="1" />
    </linearGradient>
    <linearGradient
       x1="48"
       y1="64"
       x2="48"
       y2="80"
       id="linearGradient3950"
       xlink:href="#linearGradient3940"
       gradientUnits="userSpaceOnUse"
       gradientTransform="translate(0,-32)"
       spreadMethod="reflect" />
    <linearGradient
       x1="48"
       y1="90"
       x2="48"
       y2="5.9877172"
       id="linearGradient3427"
       xlink:href="#linearGradient3187"
       gradientUnits="userSpaceOnUse" />
    <linearGradient
       id="linearGradient3187">
      <stop
         id="stop3189"
         style="stop-color:#b4b4b4;stop-opacity:1"
         offset="0" />
      <stop
         id="stop3191"
         style="stop-color:#e6e6e6;stop-opacity:1"
         offset="1" />
    </linearGradient>
    <linearGradient
       x1="43.17857"
       y1="13"
       x2="43.17857"
       y2="83.294571"
       id="linearGradient3279"
       xlink:href="#linearGradient3465"
       gradientUnits="userSpaceOnUse"
       gradientTransform="matrix(1.0294118,0,0,1.0294118,-1.4117647,-1.411765)" />
    <linearGradient
       id="linearGradient3465">
      <stop
         id="stop3467"
         style="stop-color:#919191;stop-opacity:1"
         offset="0" />
      <stop
         id="stop3469"
         style="stop-color:#fdfdfd;stop-opacity:1"
         offset="1" />
    </linearGradient>
    <linearGradient
       id="linearGradient3737-4">
      <stop
         id="stop3739-8"
         style="stop-color:#ffffff;stop-opacity:1"
         offset="0" />
      <stop
         id="stop3741-71"
         style="stop-color:#ffffff;stop-opacity:0"
         offset="1" />
    </linearGradient>
    <clipPath
       id="clipPath3613">
      <rect
         width="84"
         height="84"
         rx="6"
         ry="6"
         x="6"
         y="6"
         id="rect3615"
         style="fill:#ffffff;fill-opacity:1;fill-rule:nonzero;stroke:none" />
    </clipPath>
    <filter
       x="-0.192"
       y="-0.192"
       width="1.3839999"
       height="1.3839999"
       color-interpolation-filters="sRGB"
       id="filter3794">
      <feGaussianBlur
         id="feGaussianBlur3796"
         stdDeviation="5.28" />
    </filter>
    <linearGradient
       y2="138.66119"
       x2="48"
       y1="20.220806"
       x1="48"
       gradientUnits="userSpaceOnUse"
       id="linearGradient3172"
       xlink:href="#linearGradient3737-4"
       inkscape:collect="always" />
    <clipPath
       clipPathUnits="userSpaceOnUse"
       id="clipPath3114">
      <rect
         x="6"
         y="6.0000038"
         width="84"
         height="84"
         style="fill:url(#linearGradient3118);fill-opacity:1"
         id="rect3116"
         rx="22.826086"
         ry="22.826086" />
    </clipPath>
    <linearGradient
       inkscape:collect="always"
       xlink:href="#linearGradient3795"
       id="linearGradient3118"
       gradientUnits="userSpaceOnUse"
       gradientTransform="matrix(1.05,0,0,1.05,-2.3999508,-1006.579)"
       x1="47.999954"
       y1="962.62189"
       x2="47.999954"
       y2="1046.1001" />
    <clipPath
       clipPathUnits="userSpaceOnUse"
       id="clipPath3009">
      <path
         id="path3011"
         d="m -2,956.36218 -96,0 0,33.5624 96,25.68742 0,-59.24982 z"
         style="opacity:0.15;fill:#ffffff;fill-opacity:1;stroke:none"
         inkscape:connector-curvature="0" />
    </clipPath>
  </defs>
  <sodipodi:namedview
     id="base"
     pagecolor="#ffffff"
     bordercolor="#666666"
     borderopacity="1.0"
     inkscape:pageopacity="0.0"
     inkscape:pageshadow="2"
     inkscape:zoom="3.959798"
     inkscape:cx="37.957448"
     inkscape:cy="59.964634"
     inkscape:document-units="px"
     inkscape:current-layer="layer1"
     showgrid="false"
     inkscape:window-width="1280"
     inkscape:window-height="750"
     inkscape:window-x="0"
     inkscape:window-y="22"
     inkscape:window-maximized="1"
     showguides="true"
     inkscape:guide-bbox="true">
    <sodipodi:guide
       orientation="0,1"
       position="-24.748737,0"
       id="guide11064" />
    <sodipodi:guide
       orientation="0,1"
       position="-23.233509,96"
       id="guide11066" />
    <sodipodi:guide
       orientation="1,0"
       position="0,54.800776"
       id="guide11068" />
    <sodipodi:guide
       orientation="1,0"
       position="96,51.012704"
       id="guide11070" />
    <sodipodi:guide
       orientation="0,1"
       position="-18.94036,48"
       id="guide11072" />
    <sodipodi:guide
       orientation="1,0"
       position="48,79.296975"
       id="guide11074" />
    <sodipodi:guide
       orientation="1,0"
       position="2,75.508903"
       id="guide11076" />
    <sodipodi:guide
       orientation="0,1"
       position="-77.27667,2"
       id="guide11078" />
    <sodipodi:guide
       orientation="1,0"
       position="94,77.781746"
       id="guide11080" />
    <sodipodi:guide
       orientation="0,1"
       position="-65.912454,94"
       id="guide11082" />
  </sodipodi:namedview>
  <metadata
     id="metadata11042">
    <rdf:RDF>
      <cc:Work
         rdf:about="">
        <dc:format>image/svg+xml</dc:format>
        <dc:type
           rdf:resource="http://purl.org/dc/dcmitype/StillImage" />
        <dc:title />
      </cc:Work>
    </rdf:RDF>
  </metadata>
  <g
     inkscape:label="Layer 1"
     inkscape:groupmode="layer"
     id="layer1"
     transform="translate(0,-956.36218)">
    <g
       transform="matrix(1.0952381,0,0,1.0952381,-4.5714286,951.79075)"
       style="display:inline"
       id="g3082"
       clip-path="url(#clipPath3114)">
      <g
         id="layer3">
        <rect
           style="fill:url(#radialGradient3205);fill-opacity:1;stroke:none"
           id="rect3461"
           y="8.2544327"
           x="8.1408806"
           ry="6.1732869"
           rx="5.8527675"
           height="78.516495"
           width="77.914963" />
        <path
           style="color:#000000;fill:url(#linearGradient3914);fill-opacity:1;fill-rule:nonzero;stroke:none;stroke-width:1;marker:none;visibility:visible;display:inline;overflow:visible;enable-background:accumulate"
           id="path3717"
           inkscape:connector-curvature="0"
           d="m 18,20 c 0,-1.108 0.892,-2 2,-2 l 24,0 c 1.108,0 2,0.892 2,2 l 0,24 c 0,1.108 -0.892,2 -2,2 l -24,0 c -1.108,0 -2,-0.892 -2,-2 l 0,-24 z m 0,32 c 0,-1.108 0.892,-2 2,-2 l 24,0 c 1.108,0 2,0.892 2,2 l 0,24 c 0,1.108 -0.892,2 -2,2 l -24,0 c -1.108,0 -2,-0.892 -2,-2 L 18,52 z M 50,20 c 0,-1.108 0.892,-2 2,-2 l 24,0 c 1.108,0 2,0.892 2,2 l 0,24 c 0,1.108 -0.892,2 -2,2 l -24,0 c -1.108,0 -2,-0.892 -2,-2 l 0,-24 z m 0,32 c 0,-1.108 0.892,-2 2,-2 l 24,0 c 1.108,0 2,0.892 2,2 l 0,24 c 0,1.108 -0.892,2 -2,2 l -24,0 c -1.108,0 -2,-0.892 -2,-2 l 0,-24 z" />
        <path
           style="font-size:48px;font-style:normal;font-variant:normal;font-weight:bold;font-stretch:normal;text-align:start;line-height:125%;writing-mode:lr-tb;text-anchor:start;fill:#ffffff;fill-opacity:1;stroke:none;display:inline;font-family:MgOpen Canonica;-inkscape-font-specification:MgOpen Canonica Bold"
           id="path3213"
           inkscape:connector-curvature="0"
           d="m 24,23 0,2.001086 4.005823,1.546558 L 24,28.063879 24,30 29.973363,27.541763 30,25.62071 24,23 z" />
        <path
           style="font-size:48px;font-style:normal;font-variant:normal;font-weight:bold;font-stretch:normal;text-align:start;line-height:125%;writing-mode:lr-tb;text-anchor:start;fill:#ffffff;fill-opacity:1;stroke:none;display:inline;font-family:MgOpen Canonica;-inkscape-font-specification:MgOpen Canonica Bold"
           id="path3557"
           inkscape:connector-curvature="0"
           d="m 30,30 0,2 6,0 0,-2 -6,0 z" />
        <path
           style="font-size:medium;font-style:normal;font-variant:normal;font-weight:normal;font-stretch:normal;text-indent:0;text-align:start;text-decoration:none;line-height:normal;letter-spacing:normal;word-spacing:normal;text-transform:none;direction:ltr;block-progression:tb;writing-mode:lr-tb;text-anchor:start;opacity:0.15;color:#000000;fill:#000000;fill-opacity:1;stroke:none;stroke-width:4;marker:none;visibility:visible;display:inline;overflow:visible;enable-background:accumulate;font-family:Abandoned Bitplane;-inkscape-font-specification:Abandoned Bitplane"
           id="rect3222-3"
           inkscape:connector-curvature="0"
           d="m 19,13 c -3.289406,0 -6,2.710594 -6,6 l 0,58 c 0,3.289406 2.710594,6 6,6 l 58,0 c 3.289406,0 6,-2.710594 6,-6 l 0,-58 c 0,-3.289406 -2.710594,-6 -6,-6 l -58,0 z m 0,4 58,0 c 1.142594,0 2,0.857406 2,2 l 0,58 c 0,1.142594 -0.857406,2 -2,2 l -58,0 c -1.142594,0 -2,-0.857406 -2,-2 l 0,-58 c 0,-1.142594 0.857406,-2 2,-2 z" />
        <path
           style="opacity:0.3;color:#000000;fill:#000000;fill-opacity:1;fill-rule:nonzero;stroke:none;stroke-width:1;marker:none;visibility:visible;display:inline;overflow:visible;enable-background:accumulate"
           id="rect3981"
           inkscape:connector-curvature="0"
           d="m 17,14 c -1.662,0 -3,1.338 -3,3 l 0,62 c 0,1.662 1.338,3 3,3 l 62,0 c 1.662,0 3,-1.338 3,-3 l 0,-62 c 0,-1.662 -1.338,-3 -3,-3 l -62,0 z m 0,1.9375 62,0 c 0.618163,0 1.0625,0.444337 1.0625,1.0625 l 0,62 c 0,0.618163 -0.444337,1.0625 -1.0625,1.0625 l -62,0 c -0.618163,0 -1.0625,-0.444337 -1.0625,-1.0625 l 0,-62 c 0,-0.618163 0.444337,-1.0625 1.0625,-1.0625 z" />
        <path
           style="opacity:0.6;color:#000000;fill:#000000;fill-opacity:1;fill-rule:nonzero;stroke:none;stroke-width:1;marker:none;visibility:visible;display:inline;overflow:visible;enable-background:accumulate"
           id="rect3977"
           inkscape:connector-curvature="0"
           d="m 17,14 c -1.662,0 -3,1.338 -3,3 l 0,62 c 0,1.662 1.338,3 3,3 l 62,0 c 1.662,0 3,-1.338 3,-3 l 0,-62 c 0,-1.662 -1.338,-3 -3,-3 l -62,0 z m 0,0.96875 62,0 c 1.140081,0 2.03125,0.891169 2.03125,2.03125 l 0,62 c 0,1.140081 -0.891169,2.03125 -2.03125,2.03125 l -62,0 c -1.140081,0 -2.03125,-0.891169 -2.03125,-2.03125 l 0,-62 c 0,-1.140081 0.891169,-2.03125 2.03125,-2.03125 z" />
        <path
           style="font-size:48px;font-style:normal;font-variant:normal;font-weight:bold;font-stretch:normal;text-align:start;line-height:125%;writing-mode:lr-tb;text-anchor:start;fill:#ffffff;fill-opacity:1;stroke:none;display:inline;font-family:MgOpen Canonica;-inkscape-font-specification:MgOpen Canonica Bold"
           id="path3729"
           inkscape:connector-curvature="0"
           d="m 56,23 0,2.001086 4.005823,1.546558 L 56,28.063879 56,30 61.973363,27.541763 62,25.62071 56,23 z" />
        <path
           style="font-size:48px;font-style:normal;font-variant:normal;font-weight:bold;font-stretch:normal;text-align:start;line-height:125%;writing-mode:lr-tb;text-anchor:start;fill:#ffffff;fill-opacity:1;stroke:none;display:inline;font-family:MgOpen Canonica;-inkscape-font-specification:MgOpen Canonica Bold"
           id="path3731"
           inkscape:connector-curvature="0"
           d="m 62,30 0,2 6,0 0,-2 -6,0 z" />
        <path
           style="font-size:48px;font-style:normal;font-variant:normal;font-weight:bold;font-stretch:normal;text-align:start;line-height:125%;writing-mode:lr-tb;text-anchor:start;fill:#ffffff;fill-opacity:1;stroke:none;display:inline;font-family:MgOpen Canonica;-inkscape-font-specification:MgOpen Canonica Bold"
           id="path3733"
           inkscape:connector-curvature="0"
           d="m 24,55 0,2.001086 4.005823,1.546558 L 24,60.063879 24,62 29.973363,59.541763 30,57.62071 24,55 z" />
        <path
           style="font-size:48px;font-style:normal;font-variant:normal;font-weight:bold;font-stretch:normal;text-align:start;line-height:125%;writing-mode:lr-tb;text-anchor:start;fill:#ffffff;fill-opacity:1;stroke:none;display:inline;font-family:MgOpen Canonica;-inkscape-font-specification:MgOpen Canonica Bold"
           id="path3735"
           inkscape:connector-curvature="0"
           d="m 30,62 0,2 6,0 0,-2 -6,0 z" />
        <path
           style="font-size:48px;font-style:normal;font-variant:normal;font-weight:bold;font-stretch:normal;text-align:start;line-height:125%;writing-mode:lr-tb;text-anchor:start;fill:#ffffff;fill-opacity:1;stroke:none;display:inline;font-family:MgOpen Canonica;-inkscape-font-specification:MgOpen Canonica Bold"
           id="path3737"
           inkscape:connector-curvature="0"
           d="m 56,55 0,2.001086 4.005823,1.546558 L 56,60.063879 56,62 61.973363,59.541763 62,57.62071 56,55 z" />
        <path
           style="font-size:48px;font-style:normal;font-variant:normal;font-weight:bold;font-stretch:normal;text-align:start;line-height:125%;writing-mode:lr-tb;text-anchor:start;fill:#ffffff;fill-opacity:1;stroke:none;display:inline;font-family:MgOpen Canonica;-inkscape-font-specification:MgOpen Canonica Bold"
           id="path3739"
           inkscape:connector-curvature="0"
           d="m 62,62 0,2 6,0 0,-2 -6,0 z" />
        <path
           style="opacity:0.3;color:#000000;fill:#2b0000;fill-opacity:1;fill-rule:nonzero;stroke:none;stroke-width:1;marker:none;visibility:visible;display:inline;overflow:visible;enable-background:accumulate"
           id="path3741"
           inkscape:connector-curvature="0"
           d="m 20,18 c -1.108,0 -2,0.892 -2,2 l 0,24 c 0,1.108 0.892,2 2,2 l 24,0 c 1.108,0 2,-0.892 2,-2 l 0,-24 c 0,-1.108 -0.892,-2 -2,-2 l -24,0 z m 32,0 c -1.108,0 -2,0.892 -2,2 l 0,24 c 0,1.108 0.892,2 2,2 l 24,0 c 1.108,0 2,-0.892 2,-2 l 0,-24 c 0,-1.108 -0.892,-2 -2,-2 l -24,0 z m -32,1.28125 24,0 c 0.41998,0 0.71875,0.29877 0.71875,0.71875 l 0,24 c 0,0.41998 -0.29877,0.71875 -0.71875,0.71875 l -24,0 c -0.41998,0 -0.71875,-0.29877 -0.71875,-0.71875 l 0,-24 c 0,-0.41998 0.29877,-0.71875 0.71875,-0.71875 z m 32,0 24,0 c 0.41998,0 0.71875,0.29877 0.71875,0.71875 l 0,24 c 0,0.41998 -0.29877,0.71875 -0.71875,0.71875 l -24,0 c -0.41998,0 -0.71875,-0.29877 -0.71875,-0.71875 l 0,-24 c 0,-0.41998 0.29877,-0.71875 0.71875,-0.71875 z M 20,50 c -1.108,0 -2,0.892 -2,2 l 0,24 c 0,1.108 0.892,2 2,2 l 24,0 c 1.108,0 2,-0.892 2,-2 l 0,-24 c 0,-1.108 -0.892,-2 -2,-2 l -24,0 z m 32,0 c -1.108,0 -2,0.892 -2,2 l 0,24 c 0,1.108 0.892,2 2,2 l 24,0 c 1.108,0 2,-0.892 2,-2 l 0,-24 c 0,-1.108 -0.892,-2 -2,-2 l -24,0 z m -32,1.28125 24,0 c 0.41998,0 0.71875,0.29877 0.71875,0.71875 l 0,24 c 0,0.41998 -0.29877,0.71875 -0.71875,0.71875 l -24,0 c -0.41998,0 -0.71875,-0.29877 -0.71875,-0.71875 l 0,-24 c 0,-0.41998 0.29877,-0.71875 0.71875,-0.71875 z m 32,0 24,0 c 0.41998,0 0.71875,0.29877 0.71875,0.71875 l 0,24 c 0,0.41998 -0.29877,0.71875 -0.71875,0.71875 l -24,0 c -0.41998,0 -0.71875,-0.29877 -0.71875,-0.71875 l 0,-24 c 0,-0.41998 0.29877,-0.71875 0.71875,-0.71875 z" />
        <path
           style="opacity:0.3;color:#000000;fill:url(#linearGradient3946);fill-opacity:1;fill-rule:nonzero;stroke:none;stroke-width:1;marker:none;visibility:visible;display:inline;overflow:visible;enable-background:accumulate"
           id="rect3922"
           inkscape:connector-curvature="0"
           d="M 18.28125,51 C 18.11087,51.294551 18,51.633901 18,52 l 28,0 c 0,-0.366099 -0.11087,-0.705449 -0.28125,-1 l -27.4375,0 z m 32,0 C 50.11087,51.294551 50,51.633901 50,52 l 28,0 c 0,-0.366099 -0.11087,-0.705449 -0.28125,-1 l -27.4375,0 z M 18,55 l 0,1 28,0 0,-1 -28,0 z m 32,0 0,1 28,0 0,-1 -28,0 z m -32,4 0,1 28,0 0,-1 -28,0 z m 32,0 0,1 28,0 0,-1 -28,0 z m -32,4 0,1 28,0 0,-1 -28,0 z m 32,0 0,1 28,0 0,-1 -28,0 z m -32,4 0,1 28,0 0,-1 -28,0 z m 32,0 0,1 28,0 0,-1 -28,0 z m -32,4 0,1 28,0 0,-1 -28,0 z m 32,0 0,1 28,0 0,-1 -28,0 z m -32,4 0,1 28,0 0,-1 -28,0 z m 32,0 0,1 28,0 0,-1 -28,0 z" />
        <path
           style="opacity:0.3;color:#000000;fill:url(#linearGradient3950);fill-opacity:1;fill-rule:nonzero;stroke:none;stroke-width:1;marker:none;visibility:visible;display:inline;overflow:visible;enable-background:accumulate"
           id="path3948"
           inkscape:connector-curvature="0"
           d="M 18.28125,19 C 18.11087,19.294551 18,19.633901 18,20 l 28,0 c 0,-0.366099 -0.11087,-0.705449 -0.28125,-1 l -27.4375,0 z m 32,0 C 50.11087,19.294551 50,19.633901 50,20 l 28,0 c 0,-0.366099 -0.11087,-0.705449 -0.28125,-1 l -27.4375,0 z M 18,23 l 0,1 28,0 0,-1 -28,0 z m 32,0 0,1 28,0 0,-1 -28,0 z m -32,4 0,1 28,0 0,-1 -28,0 z m 32,0 0,1 28,0 0,-1 -28,0 z m -32,4 0,1 28,0 0,-1 -28,0 z m 32,0 0,1 28,0 0,-1 -28,0 z m -32,4 0,1 28,0 0,-1 -28,0 z m 32,0 0,1 28,0 0,-1 -28,0 z m -32,4 0,1 28,0 0,-1 -28,0 z m 32,0 0,1 28,0 0,-1 -28,0 z m -32,4 0,1 28,0 0,-1 -28,0 z m 32,0 0,1 28,0 0,-1 -28,0 z" />
        <path
           style="opacity:0.2;fill:#ffccaa;fill-opacity:1;stroke:none"
           id="rect3256"
           inkscape:connector-curvature="0"
           d="m 14,8.25 c -3.242433,0 -5.84375,2.7675 -5.84375,6.1875 l 0,44.0625 C 26.980304,44.641102 53.967914,34.706343 86.0625,36.71875 l 0,-22.28125 c 0,-3.420001 -2.63257,-6.1875 -5.875,-6.1875 L 14,8.25 z" />
      </g>
      <path
         style="fill:url(#linearGradient3427);fill-opacity:1;fill-rule:nonzero;stroke:none"
         id="rect2419"
         inkscape:connector-curvature="0"
         d="M 12,6 C 8.676,6 6,8.676 6,12 l 0,72 c 0,3.324 2.676,6 6,6 l 72,0 c 3.324,0 6,-2.676 6,-6 L 90,12 C 90,8.676 87.324,6 84,6 L 12,6 z m 5,7 62,0 c 2.216001,0 4,1.784 4,4 l 0,62 c 10e-7,2.216001 -1.784,4 -4,4 l -62,0 c -2.215999,10e-7 -4,-1.784 -4,-4 l 0,-62 c 0,-2.215999 1.784,-4 4,-4 z" />
      <path
         style="fill:url(#linearGradient3279);fill-opacity:1;fill-rule:nonzero;stroke:none"
         id="rect3425"
         inkscape:connector-curvature="0"
         d="m 17,12 c -2.752703,0 -5,2.247297 -5,5 l 0,62 c 0,2.752703 2.247298,5 5,5 l 62,0 c 2.752703,0 5.000001,-2.247297 5,-5 l 0,-62 c 0,-2.752703 -2.247297,-5 -5,-5 l -62,0 z m 0,2 62,0 c 1.679298,0 3,1.320703 3,3 l 0,62 c 10e-7,1.679297 -1.320703,3 -3,3 l -62,0 c -1.679296,0 -3,-1.320703 -3,-3 l 0,-62 c 0,-1.679297 1.320703,-3 3,-3 z" />
      <rect
         style="opacity:0.1;fill:url(#linearGradient3172);fill-opacity:1;fill-rule:nonzero;stroke:#ffffff;stroke-width:0.5;stroke-linecap:round;stroke-linejoin:miter;stroke-miterlimit:4;stroke-opacity:1;stroke-dasharray:none;stroke-dashoffset:0;filter:url(#filter3794)"
         id="rect3171"
         clip-path="url(#clipPath3613)"
         y="15"
         x="15"
         ry="12"
         rx="12"
         height="66"
         width="66" />
    </g>
    <rect
       ry="25"
       rx="25"
       id="rect3003"
       style="opacity:0.15;fill:#ffffff;fill-opacity:1"
       height="92"
       width="92"
       y="958.36218"
       x="-96"
       clip-path="url(#clipPath3009)"
       transform="translate(98,3.8281269e-7)" />
  </g>
</svg>
