<svg height="96" width="96" xmlns="http://www.w3.org/2000/svg" xmlns:xlink="http://www.w3.org/1999/xlink" xmlns:sodipodi="http://sodipodi.sourceforge.net/DTD/sodipodi-0.dtd" xmlns:inkscape="http://www.inkscape.org/namespaces/inkscape">
 <defs>
  <radialGradient cy="78.29" r="38.957" gradientUnits="userSpaceOnUse" id="radialGradient3205" cx="47.1" gradientTransform="matrix(1.38301 0 0 1.31239 -18.04 -24.22)">
   <stop stop-color="#300b0b" stop-opacity="1"/>
   <stop stop-color="#3f0000" stop-opacity="1" offset="1"/>
  </radialGradient>
  <linearGradient x1="18" x2="78" gradientUnits="userSpaceOnUse" id="linearGradient3914" gradientTransform="matrix(0 1 1 0 0 0)">
   <stop stop-color="#ff0000" stop-opacity="1"/>
   <stop stop-color="#5a0000" stop-opacity="1" offset="1"/>
  </linearGradient>
  <linearGradient x2="0" xlink:href="#linearGradient3940" y1="64" y2="80" spreadMethod="reflect" gradientUnits="userSpaceOnUse" id="linearGradient3946"/>
  <linearGradient id="linearGradient3940">
   <stop stop-color="#ffedb8" stop-opacity="1"/>
   <stop stop-color="#ffffff" stop-opacity="0" offset="1"/>
  </linearGradient>
  <linearGradient x2="0" xlink:href="#linearGradient3940" y1="64" y2="80" spreadMethod="reflect" gradientUnits="userSpaceOnUse" id="linearGradient3950" gradientTransform="matrix(1 0 0 1 0 -32)"/>
  <linearGradient x2="0" y1="90" y2="5.988" gradientUnits="userSpaceOnUse" id="linearGradient3427">
   <stop stop-color="#b4b4b4" stop-opacity="1"/>
   <stop stop-color="#e6e6e6" stop-opacity="1" offset="1"/>
  </linearGradient>
  <linearGradient x2="0" y1="13" y2="83.29" gradientUnits="userSpaceOnUse" id="linearGradient3279" gradientTransform="matrix(1.02941 0 0 1.02941 -1.412 -1.412)">
   <stop stop-color="#919191" stop-opacity="1"/>
   <stop stop-color="#fdfdfd" stop-opacity="1" offset="1"/>
  </linearGradient>
  <clipPath id="clipPath3613">
   <rect x="6" rx="6" y="6" height="84" width="84"/>
  </clipPath>
  <filter x="-0.192" y="-0.192" height="1.384" color-interpolation-filters="sRGB" id="filter3794" width="1.384">
   <feGaussianBlur stdDeviation="5.28"/>
  </filter>
  <linearGradient x2="0" y1="20.221" y2="138.66" gradientUnits="userSpaceOnUse" id="linearGradient3172" inkscape:collect="always">
   <stop stop-color="#ffffff" stop-opacity="1"/>
   <stop stop-color="#ffffff" stop-opacity="0" offset="1"/>
  </linearGradient>
  <clipPath clipPathUnits="userSpaceOnUse" id="clipPath3114">
   <rect x="6" rx="22.826" y="6" height="84" width="84"/>
  </clipPath>
  <clipPath clipPathUnits="userSpaceOnUse" id="clipPath3009">
   <path d="m -2,956.36218 -96,0 0,33.5624 96,25.68742 0,-59.24982 z" inkscape:connector-curvature="0"/>
  </clipPath>
 </defs>
 <g inkscape:label="Layer 1" inkscape:groupmode="layer" transform="matrix(1 0 0 1 0 -956.36)">
  <g display="inline" clip-path="url(#clipPath3114)" transform="matrix(1.09524 0 0 1.09524 -4.571 951.79)">
   <rect x="8.141" rx="5.853" y="8.254" ry="6.173" fill="url(#radialGradient3205)" fill-opacity="1" stroke="none" height="78.52" width="77.915"/>
   <path d="m 18,20 c 0,-1.108 0.892,-2 2,-2 l 24,0 c 1.108,0 2,0.892 2,2 l 0,24 c 0,1.108 -0.892,2 -2,2 l -24,0 c -1.108,0 -2,-0.892 -2,-2 l 0,-24 z m 0,32 c 0,-1.108 0.892,-2 2,-2 l 24,0 c 1.108,0 2,0.892 2,2 l 0,24 c 0,1.108 -0.892,2 -2,2 l -24,0 c -1.108,0 -2,-0.892 -2,-2 L 18,52 z M 50,20 c 0,-1.108 0.892,-2 2,-2 l 24,0 c 1.108,0 2,0.892 2,2 l 0,24 c 0,1.108 -0.892,2 -2,2 l -24,0 c -1.108,0 -2,-0.892 -2,-2 l 0,-24 z m 0,32 c 0,-1.108 0.892,-2 2,-2 l 24,0 c 1.108,0 2,0.892 2,2 l 0,24 c 0,1.108 -0.892,2 -2,2 l -24,0 c -1.108,0 -2,-0.892 -2,-2 l 0,-24 z" stroke-width="1" fill="url(#linearGradient3914)" color="#000000" fill-opacity="1" fill-rule="nonzero" stroke="none" visibility="visible" inkscape:connector-curvature="0"/>
   <path d="m 24,23 0,2.001086 4.005823,1.546558 L 24,28.063879 24,30 29.973363,27.541763 30,25.62071 24,23 z" fill="#ffffff" fill-opacity="1" stroke="none" inkscape:connector-curvature="0"/>
   <path d="m 30,30 0,2 6,0 0,-2 -6,0 z" fill="#ffffff" fill-opacity="1" stroke="none" inkscape:connector-curvature="0"/>
   <path stroke-width="4" d="m 19,13 c -3.289406,0 -6,2.710594 -6,6 l 0,58 c 0,3.289406 2.710594,6 6,6 l 58,0 c 3.289406,0 6,-2.710594 6,-6 l 0,-58 c 0,-3.289406 -2.710594,-6 -6,-6 l -58,0 z m 0,4 58,0 c 1.142594,0 2,0.857406 2,2 l 0,58 c 0,1.142594 -0.857406,2 -2,2 l -58,0 c -1.142594,0 -2,-0.857406 -2,-2 l 0,-58 c 0,-1.142594 0.857406,-2 2,-2 z" fill="#000000" color="#000000" fill-opacity="1" stroke="none" visibility="visible" opacity="0.15" inkscape:connector-curvature="0"/>
   <path d="m 17,14 c -1.662,0 -3,1.338 -3,3 l 0,62 c 0,1.662 1.338,3 3,3 l 62,0 c 1.662,0 3,-1.338 3,-3 l 0,-62 c 0,-1.662 -1.338,-3 -3,-3 l -62,0 z m 0,1.9375 62,0 c 0.618163,0 1.0625,0.444337 1.0625,1.0625 l 0,62 c 0,0.618163 -0.444337,1.0625 -1.0625,1.0625 l -62,0 c -0.618163,0 -1.0625,-0.444337 -1.0625,-1.0625 l 0,-62 c 0,-0.618163 0.444337,-1.0625 1.0625,-1.0625 z" stroke-width="1" fill="#000000" color="#000000" fill-opacity="1" fill-rule="nonzero" stroke="none" opacity="0.3" visibility="visible" inkscape:connector-curvature="0"/>
   <path d="m 17,14 c -1.662,0 -3,1.338 -3,3 l 0,62 c 0,1.662 1.338,3 3,3 l 62,0 c 1.662,0 3,-1.338 3,-3 l 0,-62 c 0,-1.662 -1.338,-3 -3,-3 l -62,0 z m 0,0.96875 62,0 c 1.140081,0 2.03125,0.891169 2.03125,2.03125 l 0,62 c 0,1.140081 -0.891169,2.03125 -2.03125,2.03125 l -62,0 c -1.140081,0 -2.03125,-0.891169 -2.03125,-2.03125 l 0,-62 c 0,-1.140081 0.891169,-2.03125 2.03125,-2.03125 z" stroke-width="1" fill="#000000" color="#000000" fill-opacity="1" fill-rule="nonzero" stroke="none" opacity="0.6" visibility="visible" inkscape:connector-curvature="0"/>
   <path d="m 56,23 0,2.001086 4.005823,1.546558 L 56,28.063879 56,30 61.973363,27.541763 62,25.62071 56,23 z" fill="#ffffff" fill-opacity="1" stroke="none" inkscape:connector-curvature="0"/>
   <path d="m 62,30 0,2 6,0 0,-2 -6,0 z" fill="#ffffff" fill-opacity="1" stroke="none" inkscape:connector-curvature="0"/>
   <path d="m 24,55 0,2.001086 4.005823,1.546558 L 24,60.063879 24,62 29.973363,59.541763 30,57.62071 24,55 z" fill="#ffffff" fill-opacity="1" stroke="none" inkscape:connector-curvature="0"/>
   <path d="m 30,62 0,2 6,0 0,-2 -6,0 z" fill="#ffffff" fill-opacity="1" stroke="none" inkscape:connector-curvature="0"/>
   <path d="m 56,55 0,2.001086 4.005823,1.546558 L 56,60.063879 56,62 61.973363,59.541763 62,57.62071 56,55 z" fill="#ffffff" fill-opacity="1" stroke="none" inkscape:connector-curvature="0"/>
   <path d="m 62,62 0,2 6,0 0,-2 -6,0 z" fill="#ffffff" fill-opacity="1" stroke="none" inkscape:connector-curvature="0"/>
   <path d="m 20,18 c -1.108,0 -2,0.892 -2,2 l 0,24 c 0,1.108 0.892,2 2,2 l 24,0 c 1.108,0 2,-0.892 2,-2 l 0,-24 c 0,-1.108 -0.892,-2 -2,-2 l -24,0 z m 32,0 c -1.108,0 -2,0.892 -2,2 l 0,24 c 0,1.108 0.892,2 2,2 l 24,0 c 1.108,0 2,-0.892 2,-2 l 0,-24 c 0,-1.108 -0.892,-2 -2,-2 l -24,0 z m -32,1.28125 24,0 c 0.41998,0 0.71875,0.29877 0.71875,0.71875 l 0,24 c 0,0.41998 -0.29877,0.71875 -0.71875,0.71875 l -24,0 c -0.41998,0 -0.71875,-0.29877 -0.71875,-0.71875 l 0,-24 c 0,-0.41998 0.29877,-0.71875 0.71875,-0.71875 z m 32,0 24,0 c 0.41998,0 0.71875,0.29877 0.71875,0.71875 l 0,24 c 0,0.41998 -0.29877,0.71875 -0.71875,0.71875 l -24,0 c -0.41998,0 -0.71875,-0.29877 -0.71875,-0.71875 l 0,-24 c 0,-0.41998 0.29877,-0.71875 0.71875,-0.71875 z M 20,50 c -1.108,0 -2,0.892 -2,2 l 0,24 c 0,1.108 0.892,2 2,2 l 24,0 c 1.108,0 2,-0.892 2,-2 l 0,-24 c 0,-1.108 -0.892,-2 -2,-2 l -24,0 z m 32,0 c -1.108,0 -2,0.892 -2,2 l 0,24 c 0,1.108 0.892,2 2,2 l 24,0 c 1.108,0 2,-0.892 2,-2 l 0,-24 c 0,-1.108 -0.892,-2 -2,-2 l -24,0 z m -32,1.28125 24,0 c 0.41998,0 0.71875,0.29877 0.71875,0.71875 l 0,24 c 0,0.41998 -0.29877,0.71875 -0.71875,0.71875 l -24,0 c -0.41998,0 -0.71875,-0.29877 -0.71875,-0.71875 l 0,-24 c 0,-0.41998 0.29877,-0.71875 0.71875,-0.71875 z m 32,0 24,0 c 0.41998,0 0.71875,0.29877 0.71875,0.71875 l 0,24 c 0,0.41998 -0.29877,0.71875 -0.71875,0.71875 l -24,0 c -0.41998,0 -0.71875,-0.29877 -0.71875,-0.71875 l 0,-24 c 0,-0.41998 0.29877,-0.71875 0.71875,-0.71875 z" stroke-width="1" fill="#2b0000" color="#000000" fill-opacity="1" fill-rule="nonzero" stroke="none" opacity="0.3" visibility="visible" inkscape:connector-curvature="0"/>
   <path d="M 18.28125,51 C 18.11087,51.294551 18,51.633901 18,52 l 28,0 c 0,-0.366099 -0.11087,-0.705449 -0.28125,-1 l -27.4375,0 z m 32,0 C 50.11087,51.294551 50,51.633901 50,52 l 28,0 c 0,-0.366099 -0.11087,-0.705449 -0.28125,-1 l -27.4375,0 z M 18,55 l 0,1 28,0 0,-1 -28,0 z m 32,0 0,1 28,0 0,-1 -28,0 z m -32,4 0,1 28,0 0,-1 -28,0 z m 32,0 0,1 28,0 0,-1 -28,0 z m -32,4 0,1 28,0 0,-1 -28,0 z m 32,0 0,1 28,0 0,-1 -28,0 z m -32,4 0,1 28,0 0,-1 -28,0 z m 32,0 0,1 28,0 0,-1 -28,0 z m -32,4 0,1 28,0 0,-1 -28,0 z m 32,0 0,1 28,0 0,-1 -28,0 z m -32,4 0,1 28,0 0,-1 -28,0 z m 32,0 0,1 28,0 0,-1 -28,0 z" stroke-width="1" fill="url(#linearGradient3946)" color="#000000" fill-opacity="1" fill-rule="nonzero" stroke="none" opacity="0.3" visibility="visible" inkscape:connector-curvature="0"/>
   <path d="M 18.28125,19 C 18.11087,19.294551 18,19.633901 18,20 l 28,0 c 0,-0.366099 -0.11087,-0.705449 -0.28125,-1 l -27.4375,0 z m 32,0 C 50.11087,19.294551 50,19.633901 50,20 l 28,0 c 0,-0.366099 -0.11087,-0.705449 -0.28125,-1 l -27.4375,0 z M 18,23 l 0,1 28,0 0,-1 -28,0 z m 32,0 0,1 28,0 0,-1 -28,0 z m -32,4 0,1 28,0 0,-1 -28,0 z m 32,0 0,1 28,0 0,-1 -28,0 z m -32,4 0,1 28,0 0,-1 -28,0 z m 32,0 0,1 28,0 0,-1 -28,0 z m -32,4 0,1 28,0 0,-1 -28,0 z m 32,0 0,1 28,0 0,-1 -28,0 z m -32,4 0,1 28,0 0,-1 -28,0 z m 32,0 0,1 28,0 0,-1 -28,0 z m -32,4 0,1 28,0 0,-1 -28,0 z m 32,0 0,1 28,0 0,-1 -28,0 z" stroke-width="1" fill="url(#linearGradient3950)" color="#000000" fill-opacity="1" fill-rule="nonzero" stroke="none" opacity="0.3" visibility="visible" inkscape:connector-curvature="0"/>
   <path d="m 14,8.25 c -3.242433,0 -5.84375,2.7675 -5.84375,6.1875 l 0,44.0625 C 26.980304,44.641102 53.967914,34.706343 86.0625,36.71875 l 0,-22.28125 c 0,-3.420001 -2.63257,-6.1875 -5.875,-6.1875 L 14,8.25 z" fill="#ffccaa" fill-opacity="1" stroke="none" opacity="0.2" inkscape:connector-curvature="0"/>
   <path d="M 12,6 C 8.676,6 6,8.676 6,12 l 0,72 c 0,3.324 2.676,6 6,6 l 72,0 c 3.324,0 6,-2.676 6,-6 L 90,12 C 90,8.676 87.324,6 84,6 L 12,6 z m 5,7 62,0 c 2.216001,0 4,1.784 4,4 l 0,62 c 10e-7,2.216001 -1.784,4 -4,4 l -62,0 c -2.215999,10e-7 -4,-1.784 -4,-4 l 0,-62 c 0,-2.215999 1.784,-4 4,-4 z" fill="url(#linearGradient3427)" fill-opacity="1" fill-rule="nonzero" stroke="none" inkscape:connector-curvature="0"/>
   <path d="m 17,12 c -2.752703,0 -5,2.247297 -5,5 l 0,62 c 0,2.752703 2.247298,5 5,5 l 62,0 c 2.752703,0 5.000001,-2.247297 5,-5 l 0,-62 c 0,-2.752703 -2.247297,-5 -5,-5 l -62,0 z m 0,2 62,0 c 1.679298,0 3,1.320703 3,3 l 0,62 c 10e-7,1.679297 -1.320703,3 -3,3 l -62,0 c -1.679296,0 -3,-1.320703 -3,-3 l 0,-62 c 0,-1.679297 1.320703,-3 3,-3 z" fill="url(#linearGradient3279)" fill-opacity="1" fill-rule="nonzero" stroke="none" inkscape:connector-curvature="0"/>
   <rect stroke="#ffffff" stroke-dasharray="none" clip-path="url(#clipPath3613)" stroke-dashoffset="0" stroke-linecap="round" height="66" stroke-linejoin="miter" stroke-miterlimit="4" stroke-opacity="1" stroke-width="0.5" width="66" fill="url(#linearGradient3172)" fill-opacity="1" opacity="0.1" x="15" fill-rule="nonzero" filter="url(#filter3794)" y="15" rx="12"/>
  </g>
  <rect x="-96" rx="25" y="958.36" clip-path="url(#clipPath3009)" fill="#ffffff" fill-opacity="1" height="92" opacity="0.15" width="92" transform="matrix(1 0 0 1 98 0)"/>
 </g>
</svg>
