<svg height="96" width="96" xmlns="http://www.w3.org/2000/svg" xmlns:xlink="http://www.w3.org/1999/xlink" xmlns:sodipodi="http://sodipodi.sourceforge.net/DTD/sodipodi-0.dtd" xmlns:inkscape="http://www.inkscape.org/namespaces/inkscape">
 <defs>
  <linearGradient x2="0" y1="962.62" y2="1046.1" gradientUnits="userSpaceOnUse" id="linearGradient11642" gradientTransform="matrix(1.15 0 0 1.15 -7.2 -150.65)">
   <stop stop-color="#1f1f1f"/>
   <stop stop-color="#2f2f2f" offset="1"/>
  </linearGradient>
  <linearGradient x1="16" x2="80" gradientUnits="userSpaceOnUse" id="linearGradient3879">
   <stop stop-color="#f0f0f0"/>
   <stop stop-color="#b4b4b4" offset="1"/>
  </linearGradient>
  <radialGradient cy="48" r="32" xlink:href="#linearGradient3674" gradientUnits="userSpaceOnUse" id="radialGradient3682" cx="48"/>
  <linearGradient id="linearGradient3674">
   <stop stop-color="#fff"/>
   <stop stop-color="#fff" offset="0.3"/>
   <stop stop-color="#f0f0f0" offset="0.9"/>
   <stop stop-color="#d2d2d2" offset="1"/>
  </linearGradient>
  <filter color-interpolation-filters="sRGB" id="filter3944">
   <feGaussianBlur stdDeviation="0.43594"/>
  </filter>
  <radialGradient cy="46.06" r="3" gradientUnits="userSpaceOnUse" id="radialGradient3901" cx="48">
   <stop stop-color="#fff"/>
   <stop stop-color="#a2a2a2" offset="1"/>
  </radialGradient>
  <linearGradient x1="13" x2="83" gradientUnits="userSpaceOnUse" id="linearGradient3905" gradientTransform="matrix(0 1 -1 0 96 0)">
   <stop stop-color="#fff"/>
   <stop stop-color="#fff" stop-opacity="0.412" offset="0.5"/>
   <stop stop-color="#868686" offset="1"/>
  </linearGradient>
  <linearGradient x1="17" x2="120" gradientUnits="userSpaceOnUse" id="linearGradient3923" gradientTransform="matrix(0 1 -1 0 96 0)">
   <stop/>
   <stop stop-opacity="0" offset="1"/>
  </linearGradient>
  <linearGradient x1="43" x2="53" gradientUnits="userSpaceOnUse" id="linearGradient3973">
   <stop stop-color="#fff"/>
   <stop stop-color="#868686" offset="1"/>
  </linearGradient>
  <radialGradient cy="60" r="5" xlink:href="#linearGradient3674" gradientUnits="userSpaceOnUse" id="radialGradient3979" cx="48"/>
  <clipPath clipPathUnits="userSpaceOnUse" id="clipPath3009">
   <path d="m-2 956.36h-96v33.562l96 25.687v-59.25z"/>
  </clipPath>
  <path d="m80 48a32 32 0 1 1 -64 0 32 32 0 1 1 64 0z" color="#000000" id="SVGCleanerId_0"/>
  <path d="m51 48a3 3 0 1 1 -6 0 3 3 0 1 1 6 0z" color="#000000" id="SVGCleanerId_1"/>
  <path d="m49 24a1 1 0 1 1 -2 0 1 1 0 1 1 2 0z" color="#000000" id="SVGCleanerId_2" opacity="0.5"/>
  <path d="m53 60a5 5 0 1 1 -10 0 5 5 0 1 1 10 0z" color="#000000" id="SVGCleanerId_3"/>
 </defs>
 <g transform="matrix(1 0 0 1 0 -956.36)">
  <rect x="2" rx="25" y="958.36" fill="url(#linearGradient11642)" height="92" width="92"/>
  <g transform="matrix(1 0 0 1 0 956.36)">
   <use xlink:href="#SVGCleanerId_0" transform="matrix(0 1.0938 -1.0938 0 100.5 -3.5)"/>
   <use xlink:href="#SVGCleanerId_0" fill="url(#linearGradient3879)" transform="matrix(0 1.0938 -1.0938 0 100.5 -4.5)"/>
   <use xlink:href="#SVGCleanerId_0" fill="url(#radialGradient3682)" transform="matrix(0 0.96875 -0.96875 0 94.5 1.5)"/>
   <path d="m36.938 28.844-0.875 0.5 9.6875 16.781-12.969-6.7812-0.75 1.3125 13.875 8.8125-2.4062 3.5l0.531 0.532 4.188-2.844 4.781 1.656 0.375-0.624-3.219-2.782 15.344-16.344-1.062-1.062-16.688 15.656-0.312-0.156-10.5-18.156z" filter="url(#filter3944)" opacity="0.3"/>
   <path d="m64.438 30.5-15.594 14.656c-0.274-0.082-0.544-0.156-0.844-0.156-1.6569 0-3 1.3431-3 3 0 0.47347 0.11716 0.91429 0.3125 1.3125l-1.812 2.657 0.531 0.531 2.657-1.812c0.398 0.195 0.839 0.312 1.312 0.312 1.6569 0 3-1.3431 3-3 0-0.3003-0.07413-0.57019-0.15625-0.84375l14.656-15.594-1.062-1.062z"/>
   <g transform="matrix(1 0 0 1 0 2)">
    <path d="m46.196 24h-0.71207v-3.6939c-0.000003-0.11598-0.000003-0.24005 0-0.37222 0.0027-0.13216 0.0054-0.26298 0.0081-0.39245 0.0054-0.13216 0.0094-0.25758 0.01214-0.37626 0.0054-0.12137 0.0094-0.22791 0.01214-0.31962-0.04586 0.04856-0.08631 0.09036-0.12138 0.12542-0.03507 0.03507-0.07148 0.06878-0.10924 0.10115-0.03507 0.03237-0.07283 0.06744-0.11328 0.10519-0.04046 0.03507-0.08901 0.07688-0.14565 0.12542l-0.59879 0.48955-0.3884-0.49764 1.5496-1.2097h0.60688v5.915"/>
    <path d="m51.961 24h-3.6898v-0.63115l1.416-1.5415c0.20229-0.21847 0.383-0.41807 0.54214-0.59879 0.15913-0.18071 0.294-0.35738 0.40458-0.53001 0.11328-0.17262 0.19959-0.34524 0.25894-0.51787 0.05934-0.17532 0.08901-0.36547 0.08901-0.57046-0.000003-0.15913-0.02293-0.29939-0.06878-0.42077-0.04586-0.12137-0.11194-0.22387-0.19825-0.30748-0.08362-0.08631-0.18341-0.15104-0.29939-0.1942-0.11598-0.04315-0.24545-0.06473-0.3884-0.06473-0.25624 0.000006-0.4882 0.0526-0.69589 0.15779-0.20499 0.1025-0.40054 0.23466-0.58665 0.39649l-0.41268-0.48146c0.10789-0.09709 0.22387-0.18745 0.34794-0.27107 0.12407-0.08631 0.25758-0.16048 0.40054-0.22252 0.14295-0.06203 0.294-0.11058 0.45314-0.14565 0.15914-0.03776 0.32636-0.05664 0.50169-0.05664 0.25893 0.000006 0.49224 0.03642 0.69993 0.10924 0.21038 0.07283 0.3884 0.17802 0.53405 0.31558 0.14565 0.13487 0.25758 0.30075 0.33581 0.49764 0.08091 0.1942 0.12137 0.41403 0.12138 0.65947-0.000004 0.22927-0.03642 0.44774-0.10924 0.65543-0.07013 0.20769-0.16858 0.41268-0.29535 0.61497-0.12408 0.1996-0.27377 0.40054-0.44909 0.60283-0.17263 0.20229-0.36008 0.41268-0.56237 0.63115l-1.1369 1.2097v0.03237h2.7876v0.67161"/>
   </g>
   <path d="m46.058 75.471c-0.000001-0.28321 0.01349-0.56507 0.04046-0.84558 0.02967-0.28051 0.07957-0.54888 0.1497-0.80512 0.07282-0.25893 0.17127-0.49898 0.29535-0.72016 0.12407-0.22117 0.28186-0.41267 0.47336-0.57451 0.1915-0.16453 0.42077-0.29264 0.6878-0.38436 0.26702-0.0944 0.5799-0.1416 0.93864-0.1416 0.05124 0.000006 0.10789 0.0014 0.16993 0.004 0.06203 0.0027 0.12407 0.0081 0.18611 0.01618 0.06473 0.0054 0.12542 0.01349 0.18206 0.02428 0.05934 0.0081 0.11193 0.01889 0.15779 0.03237v0.62711c-0.09441-0.03236-0.20095-0.05664-0.31962-0.07283-0.11868-0.01618-0.23601-0.02427-0.35199-0.02428-0.24275 0.000005-0.45718 0.02968-0.64329 0.08901-0.18341 0.05665-0.34255 0.13756-0.47741 0.24275-0.13486 0.1052-0.24815 0.23062-0.33985 0.37626-0.08901 0.14566-0.16184 0.30749-0.21848 0.4855-0.05664 0.17532-0.09845 0.36278-0.12542 0.56237-0.02697 0.1996-0.04451 0.40729-0.0526 0.62306h0.04855c0.05394-0.0971 0.11868-0.18746 0.1942-0.27107 0.07822-0.08631 0.16858-0.15913 0.27107-0.21848 0.10249-0.06203 0.21712-0.11058 0.3439-0.14565 0.12946-0.03506 0.27377-0.05259 0.43291-0.0526 0.25624 0.000003 0.4882 0.04046 0.69589 0.12138 0.20768 0.07822 0.38435 0.1942 0.53001 0.34794 0.14565 0.15374 0.25758 0.34255 0.33581 0.56642 0.08091 0.22118 0.12137 0.47472 0.12138 0.76062-0.000004 0.30749-0.04181 0.58395-0.12542 0.8294-0.08362 0.24545-0.20364 0.45448-0.36008 0.62711-0.15644 0.16993-0.34525 0.30074-0.56642 0.39245-0.22118 0.09171-0.46932 0.13756-0.74444 0.13756-0.26973 0-0.52327-0.0526-0.76062-0.15779-0.23466-0.10519-0.4383-0.26568-0.61092-0.48146s-0.30883-0.48685-0.40863-0.81322c-0.0998-0.32636-0.1497-0.71207-0.1497-1.1571m1.9218 1.9906c0.16183 0 0.30883-0.02697 0.441-0.08092 0.13486-0.05664 0.25084-0.14026 0.34794-0.25084 0.0971-0.11328 0.17127-0.25489 0.22252-0.42482 0.05394-0.17262 0.08091-0.37626 0.08092-0.61092-0.000003-0.1888-0.02293-0.35738-0.06878-0.50573-0.04316-0.15104-0.10924-0.27916-0.19825-0.38436-0.08901-0.10519-0.20095-0.18611-0.33581-0.24275-0.13217-0.05664-0.28726-0.08496-0.46527-0.08496-0.18072 0.000003-0.3466 0.03237-0.49764 0.0971-0.14835 0.06204-0.27512 0.1443-0.38031 0.2468-0.10519 0.0998-0.18746 0.21443-0.2468 0.3439-0.05664 0.12947-0.08496 0.25894-0.08496 0.3884-0.000001 0.18072 0.02427 0.36143 0.07283 0.54214 0.05125 0.17802 0.12542 0.3385 0.22252 0.48146 0.0998 0.14296 0.22387 0.26028 0.37222 0.35199 0.14835 0.08901 0.32097 0.13351 0.51787 0.13351" transform="matrix(1 0 0 1 0 -2)"/>
   <path d="m76.489 46.469c-0.000004 0.1969-0.03102 0.37627-0.09305 0.5381-0.06204 0.16184-0.1497 0.30209-0.26298 0.42077-0.11059 0.11868-0.2441 0.21713-0.40054 0.29535-0.15644 0.07553-0.33041 0.12947-0.52192 0.16183v0.02428c0.47741 0.05934 0.84018 0.21174 1.0883 0.45718 0.24814 0.24275 0.37221 0.55968 0.37222 0.95078-0.000005 0.25894-0.04451 0.49629-0.13351 0.71207-0.08631 0.21578-0.21848 0.40189-0.39649 0.55833-0.17802 0.15644-0.40324 0.27782-0.67566 0.36413s-0.59474 0.12947-0.96696 0.12947c-0.294 0-0.57182-0.02293-0.83345-0.06878-0.25894-0.04585-0.50304-0.12947-0.7323-0.25084v-0.6878c0.23466 0.12407 0.4882 0.21982 0.76062 0.28726 0.27512 0.06743 0.5381 0.10115 0.78894 0.10115 0.24814 0 0.46257-0.02697 0.64329-0.08092 0.18071-0.05395 0.32906-0.13082 0.44504-0.23061 0.11868-0.0998 0.20499-0.22252 0.25893-0.36817 0.05664-0.14565 0.08496-0.30883 0.08496-0.48955-0.000003-0.18341-0.03642-0.33985-0.10924-0.46932-0.07013-0.13216-0.17128-0.24005-0.30344-0.32367-0.13217-0.08631-0.294-0.14969-0.4855-0.19016-0.18881-0.04046-0.40324-0.06068-0.64329-0.06069h-0.5381v-0.61092h0.5381c0.21847 0.000004 0.41268-0.02697 0.5826-0.08092 0.16992-0.05394 0.31153-0.13081 0.42481-0.23061 0.11598-0.09979 0.20364-0.21847 0.26298-0.35604 0.05934-0.13755 0.08901-0.2886 0.08901-0.45314-0.000003-0.14025-0.02428-0.26567-0.07283-0.37626-0.04855-0.11058-0.11733-0.20364-0.20634-0.27916-0.08901-0.07822-0.19555-0.13755-0.31962-0.17802-0.12408-0.04045-0.26163-0.06068-0.41268-0.06069-0.28861 0.000006-0.54349 0.04586-0.76467 0.13756-0.21848 0.08901-0.42751 0.20634-0.62711 0.35199l-0.371-0.505c0.10249-0.08361 0.21578-0.16183 0.33985-0.23466 0.12677-0.07282 0.26433-0.1362 0.41268-0.19016 0.14835-0.05664 0.30614-0.10114 0.47336-0.13351 0.16992-0.03236 0.34929-0.04854 0.5381-0.04855 0.2913 0.000006 0.54619 0.03642 0.76467 0.10924 0.22117 0.07283 0.40593 0.17533 0.55428 0.30748 0.14834 0.12947 0.26028 0.28456 0.33581 0.46527 0.07552 0.17802 0.11328 0.37357 0.11328 0.58665" transform="matrix(1 0 0 1 -2 0)"/>
   <path d="m22.76 47.61c-0.000004 0.28321-0.01484 0.56642-0.0445 0.84963-0.02698 0.28052-0.07688 0.54889-0.1497 0.80512-0.07013 0.25624-0.16723 0.49629-0.2913 0.72016-0.12408 0.22117-0.28186 0.41268-0.47336 0.57451-0.19151 0.16183-0.42077 0.28995-0.6878 0.38436-0.26703 0.09171-0.57991 0.13756-0.93864 0.13756-0.05125 0-0.10789-0.0013-0.16993-0.004s-0.12407-0.0081-0.18611-0.01618c-0.06204-0.0054-0.12272-0.01214-0.18206-0.02023-0.05934-0.0081-0.11194-0.01888-0.15779-0.03237v-0.63115c0.0944 0.03506 0.20094 0.06069 0.31962 0.07687s0.23601 0.02428 0.35199 0.02428c0.36412 0 0.66352-0.06338 0.89818-0.19016 0.23466-0.12677 0.42077-0.29804 0.55833-0.51382 0.13756-0.21848 0.23466-0.47202 0.2913-0.76062 0.05934-0.2886 0.09575-0.59339 0.10924-0.91436h-0.0526c-0.05395 0.0971-0.11868 0.18746-0.1942 0.27107-0.07552 0.08362-0.16453 0.15644-0.26703 0.21848s-0.21848 0.11059-0.34794 0.14565c-0.12947 0.03507-0.27377 0.0526-0.43291 0.0526-0.25624 0.000003-0.4882-0.03911-0.69589-0.11733-0.208-0.081-0.384-0.199-0.53-0.352-0.146-0.154-0.259-0.342-0.34-0.563-0.078-0.224-0.117-0.479-0.117-0.764-0.000001-0.30748 0.04181-0.58395 0.12542-0.8294 0.08631-0.24814 0.20634-0.45718 0.36008-0.62711 0.15644-0.17262 0.34524-0.30478 0.56642-0.39649 0.22387-0.0917 0.47336-0.13755 0.74848-0.13756 0.27242 0.000006 0.52596 0.0526 0.76062 0.15779 0.23466 0.1052 0.4383 0.26568 0.61092 0.48146s0.30883 0.4882 0.40863 0.81726c0.09979 0.32637 0.14969 0.71072 0.1497 1.1531m-1.9218-1.9865c-0.16184 0.000006-0.31018 0.02698-0.44504 0.08092-0.13217 0.05395-0.2468 0.13756-0.3439 0.25084-0.0971 0.11329-0.17262 0.25624-0.22657 0.42886-0.05125 0.16993-0.07687 0.37222-0.07687 0.60688-0.000001 0.18881 0.02158 0.35874 0.06473 0.50978 0.04585 0.14835 0.11328 0.27512 0.20229 0.38031 0.08901 0.1052 0.19959 0.18611 0.33176 0.24275 0.13486 0.05664 0.2913 0.08497 0.46932 0.08496 0.18341 0.000003 0.34929-0.03101 0.49764-0.09305 0.14834-0.06473 0.27512-0.147 0.38031-0.2468 0.10519-0.10249 0.18611-0.21847 0.24275-0.34794 0.05934-0.12946 0.08901-0.25893 0.08901-0.3884-0.000004-0.18071-0.02563-0.36008-0.07687-0.5381-0.04855-0.18071-0.12273-0.34254-0.22252-0.4855-0.0971-0.14565-0.21983-0.26298-0.36817-0.35199-0.14835-0.089-0.32097-0.13351-0.51787-0.13351" transform="matrix(1 0 0 1 2 0)"/>
   <path d="m47.25 49.299-15.213-9.6495 0.75-1.299 15.963 8.3505 4.6337 3.9743-0.375 0.64952l-5.759-2.027z"/>
   <use xlink:href="#SVGCleanerId_1" transform="matrix(0.66667 0 0 0.66667 16 16)"/>
   <use xlink:href="#SVGCleanerId_1" fill="#f00" transform="matrix(0.5 0 0 0.5 24 24)"/>
   <path d="m36.938 27.844-0.875 0.5 10.531 18.25c-0.362 0.362-0.594 0.854-0.594 1.406 0 1.1046 0.89543 2 2 2s2-0.89543 2-2-0.89543-2-2-2c-0.18294 0-0.3629 0.01649-0.53125 0.0625l-10.531-18.218z" fill="#f00" color="#000000"/>
   <use xlink:href="#SVGCleanerId_1" fill="url(#radialGradient3901)" transform="matrix(0.66667 0 0 0.66667 16 16)"/>
   <path d="m83 48c0-19.33-15.67-35-35-35s-35 15.67-35 35 15.67 35 35 35 35-15.67 35-35zm-1 0c0 18.778-15.222 34-34 34s-34-15.222-34-34 15.222-34 34-34 34 15.222 34 34z" fill="url(#linearGradient3905)" color="#000000"/>
   <path d="m79 48c0-17.121-13.879-31-31-31s-31 13.879-31 31 13.879 31 31 31 31-13.879 31-31zm-1 0c0 16.569-13.431 30-30 30s-30-13.431-30-30 13.431-30 30-30 30 13.431 30 30z" fill="url(#linearGradient3923)" color="#000000" opacity="0.3"/>
   <use xlink:href="#SVGCleanerId_2" transform="matrix(0.86603 0.5 -0.5 0.86603 30.931 -18.435)"/>
   <use xlink:href="#SVGCleanerId_2" transform="matrix(0.5 0.86603 -0.86603 0.5 66.44 -18.07)"/>
   <use xlink:href="#SVGCleanerId_2" transform="matrix(-0.5 0.86603 -0.86603 -0.5 114.44 30.931)"/>
   <use xlink:href="#SVGCleanerId_2" transform="matrix(-0.86603 0.5 -0.5 -0.86603 114.07 66.44)"/>
   <use xlink:href="#SVGCleanerId_2" transform="matrix(-0.86603 -0.5 0.5 -0.86603 65.07 114.44)"/>
   <use xlink:href="#SVGCleanerId_2" transform="matrix(-0.5 -0.86603 0.86603 -0.5 29.565 114.07)"/>
   <use xlink:href="#SVGCleanerId_2" transform="matrix(0.5 -0.86603 0.86603 0.5 -18.435 65.07)"/>
   <use xlink:href="#SVGCleanerId_2" transform="matrix(0.86603 -0.5 0.5 0.86603 -18.07 29.565)"/>
   <use xlink:href="#SVGCleanerId_3" fill="url(#linearGradient3973)" opacity="0.6" transform="matrix(0 -1.2 1.2 0 -24 118.6)"/>
   <use xlink:href="#SVGCleanerId_3" fill="url(#radialGradient3979)" transform="matrix(0 -1 1 0 -12 109)"/>
   <g opacity="0.4" transform="matrix(0.73723 0 0 0.73723 -48.957 43.732)">
    <path d="m130.96 26h-3.6898v-0.63115l1.416-1.5415c0.20229-0.21847 0.38301-0.41807 0.54215-0.59879 0.15913-0.18071 0.29399-0.35738 0.40458-0.53001 0.11328-0.17262 0.19959-0.34524 0.25894-0.51787 0.0593-0.17532 0.089-0.36547 0.089-0.57046-0.00001-0.15913-0.0229-0.29939-0.0688-0.42077-0.0459-0.12137-0.11194-0.22387-0.19825-0.30748-0.0836-0.08631-0.18342-0.15104-0.29939-0.1942-0.11599-0.04315-0.24545-0.06473-0.38841-0.06473-0.25624 0.000006-0.4882 0.0526-0.69588 0.15779-0.20499 0.1025-0.40054 0.23466-0.58665 0.39649l-0.41268-0.48146c0.10789-0.09709 0.22387-0.18745 0.34794-0.27107 0.12408-0.08631 0.25759-0.16048 0.40054-0.22252 0.14296-0.06203 0.294-0.11058 0.45314-0.14565 0.15913-0.03776 0.32636-0.05664 0.50169-0.05664 0.25893 0.000006 0.49224 0.03642 0.69993 0.10924 0.21038 0.07283 0.3884 0.17802 0.53405 0.31558 0.14565 0.13487 0.25758 0.30075 0.33581 0.49764 0.0809 0.1942 0.12137 0.41403 0.12137 0.65947 0 0.22927-0.0364 0.44774-0.10924 0.65543-0.0701 0.20769-0.16858 0.41268-0.29534 0.61497-0.12408 0.1996-0.27378 0.40054-0.44909 0.60283-0.17263 0.20229-0.36009 0.41268-0.56238 0.63115l-1.1369 1.2097v0.03237h2.7876v0.67161"/>
    <path d="m135.6 22.529c-0.00001 0.28321-0.0148 0.56642-0.0445 0.84963-0.027 0.28052-0.0769 0.54889-0.1497 0.80512-0.0701 0.25624-0.16723 0.49629-0.2913 0.72016-0.12408 0.22117-0.28187 0.41268-0.47337 0.57451s-0.42077 0.28995-0.68779 0.38436c-0.26703 0.09171-0.57991 0.13756-0.93864 0.13756-0.0512 0-0.10789-0.0013-0.16993-0.004-0.062-0.0027-0.12407-0.0081-0.1861-0.01618-0.062-0.0054-0.12273-0.01214-0.18207-0.02023-0.0593-0.0081-0.11193-0.01888-0.15779-0.03237v-0.63115c0.0944 0.03506 0.20095 0.06069 0.31963 0.07687 0.11867 0.01618 0.236 0.02428 0.35199 0.02428 0.36412 0 0.66351-0.06338 0.89817-0.19016 0.23466-0.12677 0.42077-0.29804 0.55833-0.51382 0.13756-0.21848 0.23466-0.47202 0.2913-0.76062 0.0593-0.2886 0.0958-0.59339 0.10924-0.91436h-0.0526c-0.054 0.0971-0.11868 0.18746-0.1942 0.27107-0.0755 0.08362-0.16453 0.15644-0.26702 0.21848-0.1025 0.06204-0.21848 0.11059-0.34795 0.14565-0.12947 0.03507-0.27377 0.0526-0.4329 0.0526-0.25624 0.000003-0.48821-0.03911-0.69589-0.11733-0.20769-0.08097-0.38436-0.1983-0.53001-0.35204s-0.25893-0.3412-0.33985-0.56237c-0.0782-0.22387-0.11733-0.47876-0.11733-0.76467 0-0.30748 0.0418-0.58395 0.12542-0.8294 0.0863-0.24814 0.20634-0.45718 0.36008-0.62711 0.15644-0.17262 0.34525-0.30478 0.56642-0.39649 0.22387-0.0917 0.47337-0.13755 0.74848-0.13756 0.27242 0.000006 0.52596 0.0526 0.76063 0.15779 0.23465 0.1052 0.43829 0.26568 0.61092 0.48146 0.17262 0.21578 0.30883 0.4882 0.40863 0.81726 0.0998 0.32637 0.14969 0.71072 0.1497 1.1531m-1.9218-1.9865c-0.16184 0.000006-0.31019 0.02698-0.44505 0.08092-0.13216 0.05395-0.24679 0.13756-0.34389 0.25084-0.0971 0.11329-0.17263 0.25624-0.22657 0.42886-0.0512 0.16993-0.0769 0.37222-0.0769 0.60688 0 0.18881 0.0216 0.35874 0.0647 0.50978 0.0459 0.14835 0.11328 0.27512 0.20229 0.38031 0.089 0.1052 0.1996 0.18611 0.33176 0.24275 0.13486 0.05664 0.2913 0.08497 0.46932 0.08496 0.18341 0.000003 0.34929-0.03101 0.49764-0.09305 0.14834-0.06473 0.27512-0.147 0.38031-0.2468 0.10519-0.10249 0.18611-0.21847 0.24275-0.34794 0.0593-0.12946 0.089-0.25893 0.089-0.3884 0-0.18071-0.0256-0.36008-0.0769-0.5381-0.0486-0.18071-0.12273-0.34254-0.22252-0.4855-0.0971-0.14565-0.21983-0.26298-0.36817-0.35199-0.14835-0.089-0.32098-0.13351-0.51787-0.13351"/>
   </g>
  </g>
  <rect x="-96" rx="25" y="958.36" clip-path="url(#clipPath3009)" fill="#fff" height="92" opacity="0.15" width="92" transform="matrix(1 0 0 1 98 0)"/>
 </g>
</svg>
