<svg height="96" width="96" xmlns="http://www.w3.org/2000/svg" xmlns:xlink="http://www.w3.org/1999/xlink" xmlns:sodipodi="http://sodipodi.sourceforge.net/DTD/sodipodi-0.dtd" xmlns:inkscape="http://www.inkscape.org/namespaces/inkscape">
 <defs>
  <clipPath clipPathUnits="userSpaceOnUse" id="clipPath3009">
   <path d="m-2 956.36h-96v33.562l96 25.687v-59.25z"/>
  </clipPath>
  <radialGradient cy="9.453" r="41.971" gradientUnits="userSpaceOnUse" id="radialGradient3235" cx="43.495" gradientTransform="matrix(1.2203 0.00221 -0.0028 1.5441 -10.414 946.04)">
   <stop stop-color="#eddda5"/>
   <stop stop-color="#b19638" offset="1"/>
  </radialGradient>
  <clipPath clipPathUnits="userSpaceOnUse" id="clipPath3018">
   <rect x="2" rx="25" y="958.36" height="92" width="92"/>
  </clipPath>
  <linearGradient x1="38.472" x2="38.16" y1="46.695" y2="58.89" gradientUnits="userSpaceOnUse" id="linearGradient13522">
   <stop stop-color="#fff"/>
   <stop stop-color="#fff" stop-opacity="0" offset="1"/>
  </linearGradient>
  <linearGradient x1="80.38" x2="81.38" y1="47.17" y2="73.843" gradientUnits="userSpaceOnUse" id="linearGradient13814" gradientTransform="matrix(0.95833 0 0 0.96302 1.585 -0.623)">
   <stop stop-color="#e3d4a0"/>
   <stop stop-color="#e3d4a0" stop-opacity="0" offset="1"/>
  </linearGradient>
  <linearGradient x1="28.02" x2="28.688" xlink:href="#linearGradient13601-7" y1="41.563" y2="18.52" gradientUnits="userSpaceOnUse" id="linearGradient13810" gradientTransform="matrix(1.0493 0 0 1.0954 -5.366 -10.431)"/>
  <linearGradient id="linearGradient13601-7">
   <stop stop-color="#4e4e4e"/>
   <stop stop-color="#b4b4b4" offset="1"/>
  </linearGradient>
  <linearGradient x1="28.867" x2="28.326" xlink:href="#linearGradient13581-2" y1="40.39" y2="20.11" gradientUnits="userSpaceOnUse" id="linearGradient13807" gradientTransform="matrix(0.84457 0 0 0.87322 0.568 -3.923)"/>
  <linearGradient id="linearGradient13581-2">
   <stop stop-color="#d1d1d1"/>
   <stop stop-color="#ebebeb" offset="1"/>
  </linearGradient>
  <linearGradient x1="47.49" x2="47.69" y1="37.907" y2="33.06" gradientUnits="userSpaceOnUse" id="linearGradient13788" gradientTransform="matrix(0.90178 0 0 0.88692 -3.271 7.699)">
   <stop stop-color="#2a2a2a"/>
   <stop stop-color="#3f3f3f" offset="1"/>
  </linearGradient>
  <linearGradient x1="28.02" x2="28.688" xlink:href="#linearGradient13601-7" y1="41.563" y2="18.52" gradientUnits="userSpaceOnUse" id="linearGradient13780" gradientTransform="matrix(1.0493 0 0 1.0954 28.02 -10.431)"/>
  <linearGradient x1="28.867" x2="28.326" xlink:href="#linearGradient13581-2" y1="40.39" y2="20.11" gradientUnits="userSpaceOnUse" id="linearGradient13777" gradientTransform="matrix(0.84457 0 0 0.87322 33.86 -3.923)"/>
  <linearGradient x1="74.35" x2="75.46" xlink:href="#linearGradient13759-6" y1="1.046" y2="12.424" gradientUnits="userSpaceOnUse" id="linearGradient13760" gradientTransform="matrix(0.89191 0 0 0.89715 4.683 9.708)"/>
  <linearGradient id="linearGradient13759-6">
   <stop stop-color="#666"/>
   <stop stop-color="#666" stop-opacity="0" offset="1"/>
  </linearGradient>
  <radialGradient cy="59.55" r="24.786" gradientUnits="userSpaceOnUse" id="radialGradient14755" cx="39.57" gradientTransform="matrix(1.2146 -0.0156 0.01953 1.5201 -9.762 -29.663)">
   <stop stop-color="#8a8a8a"/>
   <stop stop-color="#8a8a8a" stop-opacity="0" offset="1"/>
  </radialGradient>
  <radialGradient cy="63.65" r="6.541" xlink:href="#linearGradient13675-3" gradientUnits="userSpaceOnUse" id="radialGradient13756" cx="48.26" gradientTransform="matrix(1.0192 0 0 0.99832 -9.784 -3.32)"/>
  <linearGradient id="linearGradient13675-3">
   <stop stop-color="#a6a6a6"/>
   <stop stop-color="#a6a6a6" stop-opacity="0" offset="1"/>
  </linearGradient>
  <linearGradient x1="74.35" x2="75.46" xlink:href="#linearGradient13759-6" y1="1.046" y2="12.424" gradientUnits="userSpaceOnUse" id="linearGradient13753" gradientTransform="matrix(0.89164 0 0 0.8968 -94.18 72.795)"/>
  <linearGradient x1="74.35" x2="75.46" xlink:href="#linearGradient13759-6" y1="1.046" y2="12.424" gradientUnits="userSpaceOnUse" id="linearGradient13750" gradientTransform="matrix(0.90177 0 0 0.88692 -107.78 -55.17)"/>
  <linearGradient x1="80.29" x2="84.73" gradientUnits="userSpaceOnUse" id="linearGradient13743" gradientTransform="matrix(0.95833 0 0 0.94792 2.051 5.954)">
   <stop stop-color="#8b8b8b"/>
   <stop stop-color="#202020" offset="1"/>
  </linearGradient>
  <radialGradient cy="60.866" r="6.541" xlink:href="#linearGradient13675-3" gradientUnits="userSpaceOnUse" id="radialGradient13739" cx="47.18" gradientTransform="matrix(0.93677 0 0 0.88598 35.37 10.449)"/>
  <radialGradient cy="53.737" r="7.867" gradientUnits="userSpaceOnUse" id="radialGradient13736" cx="78.47" gradientTransform="matrix(0.55288 0 0 0.54688 37.445 23.11)">
   <stop/>
   <stop stop-opacity="0" offset="1"/>
  </radialGradient>
  <linearGradient x1="78.16" x2="78.63" xlink:href="#linearGradient13522" y1="6.616" y2="27.411" gradientUnits="userSpaceOnUse" id="linearGradient3549" gradientTransform="matrix(1 0 0 1 -40.651 23.765)"/>
  <path d="m48.79 55.783a10.695 11.402 0 1 1 -21.39 0 10.695 11.402 0 1 1 21.39 0z" id="SVGCleanerId_0"/>
  <rect x="59.04" rx="0.589" y="42.613" height="23.511" id="SVGCleanerId_1" width="7.248"/>
  <rect x="85.38" rx="0.589" y="-15.196" height="23.511" id="SVGCleanerId_2" width="7.248"/>
  <rect x="16.925" rx="0.589" y="94.03" height="23.511" id="SVGCleanerId_3" width="7.248"/>
  <path d="m62.689 39.021c-16.334 0-29.594 12.287-29.594 27.438 0 15.15 13.26 27.438 29.594 27.438s29.562-12.287 29.562-27.438c0-15.15-13.229-27.438-29.562-27.438zm-0.09375 5.3125c12.672 0 22.938 9.8002 22.938 21.875s-10.265 21.844-22.938 21.844c-12.672 0-22.938-9.769-22.938-21.844s10.265-21.875 22.938-21.875z" id="SVGCleanerId_4"/>
 </defs>
 <g transform="matrix(1 0 0 1 0 -956.36)">
  <rect rx="6.857" y="956.36" clip-path="url(#clipPath3018)" fill="url(#radialGradient3235)" height="96" width="96"/>
  <g transform="matrix(1 0 0 1 0 956.36)">
   <g transform="matrix(1.0343 0 0 1.0328 -108.78 -8.176)">
    <g opacity="0.1" transform="matrix(0.51471 0 0 0.52836 95.83 -5.02)">
     <use xlink:href="#SVGCleanerId_4"/>
     <use xlink:href="#SVGCleanerId_0" transform="matrix(0.79339 0 0 0.75969 32 23.22)"/>
     <use xlink:href="#SVGCleanerId_1"/>
     <use xlink:href="#SVGCleanerId_2" transform="matrix(0.55066 0.83473 -0.83473 0.55066 0 0)"/>
     <use xlink:href="#SVGCleanerId_3" transform="matrix(-0.55067 0.83473 0.83473 0.55067 0 0)"/>
    </g>
    <g opacity="0.2" transform="matrix(0.49862 0 0 0.51857 96.87 -4.506)">
     <use xlink:href="#SVGCleanerId_4"/>
     <use xlink:href="#SVGCleanerId_0" transform="matrix(0.79339 0 0 0.75969 32 23.22)"/>
     <use xlink:href="#SVGCleanerId_1"/>
     <use xlink:href="#SVGCleanerId_2" transform="matrix(0.55066 0.83473 -0.83473 0.55066 0 0)"/>
     <use xlink:href="#SVGCleanerId_3" transform="matrix(-0.55067 0.83473 0.83473 0.55067 0 0)"/>
    </g>
    <g opacity="0.3" transform="matrix(0.48145 0 0 0.50633 97.95 -3.76)">
     <use xlink:href="#SVGCleanerId_4"/>
     <use xlink:href="#SVGCleanerId_0" transform="matrix(0.79339 0 0 0.75969 32 23.22)"/>
     <use xlink:href="#SVGCleanerId_1"/>
     <use xlink:href="#SVGCleanerId_2" transform="matrix(0.55066 0.83473 -0.83473 0.55066 0 0)"/>
     <use xlink:href="#SVGCleanerId_3" transform="matrix(-0.55067 0.83473 0.83473 0.55067 0 0)"/>
    </g>
    <g opacity="0.45" transform="matrix(0.46536 0 0 0.49042 98.99 -2.736)">
     <use xlink:href="#SVGCleanerId_4"/>
     <use xlink:href="#SVGCleanerId_0" transform="matrix(0.79339 0 0 0.75969 32 23.22)"/>
     <use xlink:href="#SVGCleanerId_1"/>
     <use xlink:href="#SVGCleanerId_2" transform="matrix(0.55066 0.83473 -0.83473 0.55066 0 0)"/>
     <use xlink:href="#SVGCleanerId_3" transform="matrix(-0.55067 0.83473 0.83473 0.55067 0 0)"/>
    </g>
   </g>
   <path d="m49.11 54.043a9.6186 7.9298 0 1 1 -19.237 0 9.6186 7.9298 0 1 1 19.237 0z" fill="url(#linearGradient13522)" opacity="0.529"/>
   <path d="m47.944 54.321a8.4527 7.3733 0 1 1 -16.905 0 8.4527 7.3733 0 1 1 16.905 0z"/>
   <rect x="33.17" rx="4.516" ry="2.883" y="47.39" fill="#292929" height="18.618" width="12.223"/>
   <g opacity="0.3" transform="matrix(0.90668 0 0 0.91316 -17.13 0.728)">
    <use xlink:href="#SVGCleanerId_0" transform="matrix(0.79339 0 0 0.75969 32 23.22)"/>
    <use xlink:href="#SVGCleanerId_1"/>
    <use xlink:href="#SVGCleanerId_2" transform="matrix(0.55066 0.83473 -0.83473 0.55066 0 0)"/>
    <use xlink:href="#SVGCleanerId_3" transform="matrix(-0.55067 0.83473 0.83473 0.55067 0 0)"/>
   </g>
   <rect x="74.65" rx="1.753" y="43.22" fill="url(#linearGradient13814)" height="34.48" width="12.44"/>
   <path d="m37.297 22.498a13.541 12.974 0 0 1 -27.082 0 13.541 12.974 0 1 1 27.082 0z" fill="url(#linearGradient13810)"/>
   <path d="m35.356 22.485a11.503 10.634 0 0 1 -23.007 0 11.503 10.634 0 1 1 23.007 0z" stroke-width="1.042" fill="none" stroke="#000" opacity="0.457"/>
   <path d="m34.907 22.328a10.899 10.342 0 0 1 -21.798 0 10.899 10.342 0 1 1 21.798 0z" fill="url(#linearGradient13807)"/>
   <rect x="23.664" rx="0" y="13.13" height="2.551" width="0.428"/>
   <path d="m31.004 26.916s3.4191-4.1705 1.1026-7.7388" stroke-width="1.084" fill="none" stroke="#ff1d1d"/>
   <rect x="22.647" rx="0" y="-33.405" height="2.853" width="0.412" transform="matrix(0 1 -1 0 0 0)"/>
   <rect x="22.467" rx="0" y="-17.594" height="2.786" width="0.412" transform="matrix(0 1 -1 0 0 0)"/>
   <rect x="-3.308" rx="0" y="-25.05" height="1.676" width="0.42" transform="matrix(-0.74687 0.66497 -0.69306 -0.72088 0 0)"/>
   <rect x="0.996" rx="0" y="-41.535" height="1.684" width="0.418" transform="matrix(-0.66224 0.74929 -0.77384 -0.63338 0 0)"/>
   <rect x="31.33" rx="0" y="-9.344" height="1.678" width="0.42" transform="matrix(0.73211 0.68118 -0.70876 0.70545 0 0)"/>
   <rect x="31.348" rx="0" y="3.134" height="1.686" width="0.418" transform="matrix(0.63226 0.77475 -0.79779 0.60294 0 0)"/>
   <rect x="10.777" rx="0" y="-23.578" height="1.7" width="0.414" transform="matrix(-0.41109 0.9116 -0.92276 -0.38537 0 0)"/>
   <rect x="31.18" rx="0" y="18.16" height="1.697" width="0.415" transform="matrix(0.47649 0.87918 0.89374 -0.44858 0 0)"/>
   <path d="m39.789 37.884c-13.687 0-24.799 10.434-24.799 23.299s11.112 23.299 24.799 23.299 24.773-10.434 24.773-23.299-11.086-23.299-24.773-23.299zm-0.07856 4.5111c10.619 0 19.221 8.3219 19.221 18.575s-8.6019 18.549-19.221 18.549-19.221-8.2953-19.221-18.549c0-10.253 8.6019-18.575 19.221-18.575z" fill="url(#linearGradient13788)"/>
   <path d="m25.024 22.64a1.2351 1.2713 0 1 1 -2.4702 0 1.2351 1.2713 0 1 1 2.4702 0z"/>
   <rect x="29.692" rx="0.549" ry="0.369" y="3.256" fill="#ff1d1d" height="9.973" width="1.099" transform="matrix(0.93557 0.35315 -0.3467 0.93798 0 0)"/>
   <rect x="22.05" rx="0.547" y="26.315" height="5.361" width="3.493"/>
   <path d="m32.311 26.103v0.72949h-0.68119v-0.72949h-1.6293v-0.53631l1.5124-2.3156h0.79812v2.3206h0.47785v0.53123h-0.47785m-0.68119-1.703c-0.000002-0.0288-0.000002-0.06608 0-0.11184 0.0017-0.04744 0.0034-0.09574 0.0051-0.14488 0.0034-0.04914 0.0059-0.09574 0.0076-0.1398 0.0034-0.04575 0.0068-0.08133 0.01017-0.10675-0.0085 0.01864-0.02203 0.04575-0.04067 0.08134-0.01864 0.03389-0.03982 0.07117-0.06354 0.11184-0.02203 0.03898-0.04575 0.07795-0.07117 0.11692-0.02372 0.03898-0.04491 0.07287-0.06354 0.10167l-0.83116 1.2633h1.0472v-1.1718" fill="#ff1d1d" transform="matrix(0.98752 0 0 1.0964 -7.318 1.342)"/>
   <g transform="matrix(1.0343 0 0 1.0328 -75.44 -8.02)">
    <g opacity="0.1" transform="matrix(0.51471 0 0 0.52836 95.83 -5.02)">
     <use xlink:href="#SVGCleanerId_4"/>
     <use xlink:href="#SVGCleanerId_0" transform="matrix(0.79339 0 0 0.75969 32 23.22)"/>
     <use xlink:href="#SVGCleanerId_1"/>
     <use xlink:href="#SVGCleanerId_2" transform="matrix(0.55066 0.83473 -0.83473 0.55066 0 0)"/>
     <use xlink:href="#SVGCleanerId_3" transform="matrix(-0.55067 0.83473 0.83473 0.55067 0 0)"/>
    </g>
    <g opacity="0.2" transform="matrix(0.49862 0 0 0.51857 96.87 -4.506)">
     <use xlink:href="#SVGCleanerId_4"/>
     <use xlink:href="#SVGCleanerId_0" transform="matrix(0.79339 0 0 0.75969 32 23.22)"/>
     <use xlink:href="#SVGCleanerId_1"/>
     <use xlink:href="#SVGCleanerId_2" transform="matrix(0.55066 0.83473 -0.83473 0.55066 0 0)"/>
     <use xlink:href="#SVGCleanerId_3" transform="matrix(-0.55067 0.83473 0.83473 0.55067 0 0)"/>
    </g>
    <g opacity="0.3" transform="matrix(0.48145 0 0 0.50633 97.95 -3.76)">
     <use xlink:href="#SVGCleanerId_4"/>
     <use xlink:href="#SVGCleanerId_0" transform="matrix(0.79339 0 0 0.75969 32 23.22)"/>
     <use xlink:href="#SVGCleanerId_1"/>
     <use xlink:href="#SVGCleanerId_2" transform="matrix(0.55066 0.83473 -0.83473 0.55066 0 0)"/>
     <use xlink:href="#SVGCleanerId_3" transform="matrix(-0.55067 0.83473 0.83473 0.55067 0 0)"/>
    </g>
    <g opacity="0.45" transform="matrix(0.46536 0 0 0.49042 98.99 -2.736)">
     <use xlink:href="#SVGCleanerId_4"/>
     <use xlink:href="#SVGCleanerId_0" transform="matrix(0.79339 0 0 0.75969 32 23.22)"/>
     <use xlink:href="#SVGCleanerId_1"/>
     <use xlink:href="#SVGCleanerId_2" transform="matrix(0.55066 0.83473 -0.83473 0.55066 0 0)"/>
     <use xlink:href="#SVGCleanerId_3" transform="matrix(-0.55067 0.83473 0.83473 0.55067 0 0)"/>
    </g>
   </g>
   <path d="m70.682 22.498a13.541 12.974 0 0 1 -27.082 0 13.541 12.974 0 1 1 27.082 0z" fill="url(#linearGradient13780)"/>
   <path d="m68.651 22.485a11.496 10.94 0 0 1 -22.992 0 11.496 10.94 0 1 1 22.992 0z" stroke-width="1.056" fill="none" stroke="#000" opacity="0.457"/>
   <path d="m68.199 22.328a10.899 10.342 0 0 1 -21.798 0 10.899 10.342 0 1 1 21.798 0z" fill="url(#linearGradient13777)"/>
   <rect x="56.955" rx="0" y="13.13" height="2.551" width="0.428"/>
   <rect x="22.647" rx="0" y="-66.7" height="2.853" width="0.412" transform="matrix(0 1 -1 0 0 0)"/>
   <rect x="22.467" rx="0" y="-50.885" height="2.786" width="0.412" transform="matrix(0 1 -1 0 0 0)"/>
   <rect x="-27.325" rx="0" y="-47.2" height="1.676" width="0.42" transform="matrix(-0.74687 0.66497 -0.69306 -0.72088 0 0)"/>
   <rect x="-20.11" rx="0" y="-66.5" height="1.684" width="0.418" transform="matrix(-0.66224 0.74929 -0.77384 -0.63338 0 0)"/>
   <rect x="54.834" rx="0" y="-32.04" height="1.678" width="0.42" transform="matrix(0.73211 0.68118 -0.70876 0.70545 0 0)"/>
   <rect x="51.44" rx="0" y="-22.676" height="1.686" width="0.418" transform="matrix(0.63226 0.77475 -0.79779 0.60294 0 0)"/>
   <rect x="-2.057" rx="0" y="-53.939" height="1.7" width="0.414" transform="matrix(-0.41109 0.9116 -0.92276 -0.38537 0 0)"/>
   <rect x="46.12" rx="0" y="47.45" height="1.697" width="0.415" transform="matrix(0.47649 0.87918 0.89374 -0.44858 0 0)"/>
   <path d="m58.316 22.64a1.2351 1.2713 0 1 1 -2.4702 0 1.2351 1.2713 0 1 1 2.4702 0z"/>
   <rect x="21.839" rx="0.552" ry="0.368" y="-66.56" fill="#ff1d1d" height="9.934" width="1.104" transform="matrix(-0.00709 0.99997 -1 -0.00315 0 0)"/>
   <path d="m46.511 60.449a7.1105 7.3554 0 0 1 -14.221 0 7.1105 7.3554 0 1 1 14.221 0z" fill="#2a2a2a"/>
   <rect x="36.734" rx="0.5" y="40.935" fill="#2a2a2a" height="19.965" width="6.074"/>
   <rect x="69.08" rx="0.495" y="0.486" fill="#2a2a2a" height="19.782" width="6.13" transform="matrix(0.54559 0.83805 -0.83135 0.55575 0 0)"/>
   <rect x="70.31" rx="0.287" y="10.695" fill="url(#linearGradient13760)" height="11.466" opacity="0.688" width="3.481" transform="matrix(0.58437 0.81149 -0.83301 0.55326 0 0)"/>
   <rect x="25.346" rx="0.495" y="71.03" fill="#2a2a2a" height="19.782" width="6.13" transform="matrix(-0.54559 0.83805 0.83135 0.55575 0 0)"/>
   <path d="m39.945 37.728c-13.687 0-24.799 10.434-24.799 23.299s11.112 23.299 24.799 23.299 24.773-10.434 24.773-23.299-11.086-23.299-24.773-23.299zm-0.07856 4.5111c10.619 0 19.221 8.3219 19.221 18.575s-8.6019 18.549-19.221 18.549-19.221-8.2953-19.221-18.549c0-10.253 8.6019-18.575 19.221-18.575z" fill="url(#radialGradient14755)" opacity="0.507"/>
   <path d="m46.066 60.224a6.6661 6.5298 0 1 1 -13.332 0 6.6661 6.5298 0 1 1 13.332 0z" fill="url(#radialGradient13756)" opacity="0.602"/>
   <rect x="-28.572" rx="0.287" y="73.78" fill="url(#linearGradient13753)" height="11.461" opacity="0.656" width="3.479" transform="matrix(0.56831 -0.82281 0.81898 0.57383 0 0)"/>
   <rect x="-41.43" rx="0.284" y="-54.19" fill="url(#linearGradient13750)" height="11.335" opacity="0.719" width="3.519" transform="matrix(-0.99978 0.0209 0.00106 -1 0 0)"/>
   <rect x="-33.599" rx="0" y="-58.57" height="1.686" width="0.418" transform="matrix(-0.84573 0.53362 -0.56552 -0.82473 0 0)"/>
   <rect x="60.4" rx="0" y="6.637" height="1.69" width="0.417" transform="matrix(0.92693 0.37523 -0.41054 0.91184 0 0)"/>
   <rect x="56.757" rx="0" y="29.09" height="2.551" width="0.428"/>
   <rect x="76.16" rx="1.623" y="44.709" height="31.911" width="9.569"/>
   <rect x="78.995" rx="1.753" y="52.781" fill="url(#linearGradient13743)" height="10.9" width="4.253"/>
   <path d="m87.287 66.756a6.425 6.4227 0 0 1 -12.85 0 6.425 6.4227 0 1 1 12.85 0z" fill="#353535"/>
   <path d="m86.701 66.842a6.1272 5.7949 0 1 1 -12.254 0 6.1272 5.7949 0 1 1 12.254 0z" fill="url(#radialGradient13739)" opacity="0.842"/>
   <path d="m85.181 52.494a4.3498 4.3025 0 1 1 -8.6996 0 4.3498 4.3025 0 1 1 8.6996 0z" fill="url(#radialGradient13736)"/>
   <path d="m39.633 37.728c-13.687 0-24.799 10.434-24.799 23.299s11.112 23.299 24.799 23.299 24.773-10.434 24.773-23.299-11.086-23.299-24.773-23.299zm-0.07856 4.5111c10.619 0 19.221 8.3219 19.221 18.575s-8.6019 18.549-19.221 18.549-19.221-8.2953-19.221-18.549c0-10.253 8.6019-18.575 19.221-18.575z" fill="url(#linearGradient3549)" opacity="0.507"/>
  </g>
  <rect x="-96" rx="25" y="958.36" clip-path="url(#clipPath3009)" fill="#fff" height="92" opacity="0.15" width="92" transform="matrix(1 0 0 1 98 0)"/>
 </g>
</svg>
