<?xml version="1.0" encoding="UTF-8" standalone="no"?>
<!-- Created with Inkscape (http://www.inkscape.org/) -->

<svg
   xmlns:dc="http://purl.org/dc/elements/1.1/"
   xmlns:cc="http://creativecommons.org/ns#"
   xmlns:rdf="http://www.w3.org/1999/02/22-rdf-syntax-ns#"
   xmlns:svg="http://www.w3.org/2000/svg"
   xmlns="http://www.w3.org/2000/svg"
   xmlns:xlink="http://www.w3.org/1999/xlink"
   xmlns:sodipodi="http://sodipodi.sourceforge.net/DTD/sodipodi-0.dtd"
   xmlns:inkscape="http://www.inkscape.org/namespaces/inkscape"
   id="svg11037"
   height="96"
   width="96"
   version="1.1"
   inkscape:version="0.48.5 r10040"
   sodipodi:docname="totem.svg">
  <sodipodi:namedview
     pagecolor="#ffffff"
     bordercolor="#666666"
     borderopacity="1"
     objecttolerance="10"
     gridtolerance="10"
     guidetolerance="10"
     inkscape:pageopacity="0"
     inkscape:pageshadow="2"
     inkscape:window-width="640"
     inkscape:window-height="480"
     id="namedview36425" />
  <defs
     id="defs11039">
    <linearGradient
       id="linearGradient3617"
       y2="5.9877"
       gradientUnits="userSpaceOnUse"
       x2="48"
       y1="90"
       x1="48">
      <stop
         id="stop3189"
         style="stop-color:#282828"
         offset="0" />
      <stop
         id="stop3191"
         style="stop-color:#5a5a5a"
         offset="1" />
    </linearGradient>
    <radialGradient
       id="radialGradient4116"
       xlink:href="#linearGradient3386"
       gradientUnits="userSpaceOnUse"
       cy="66.598"
       cx="53.419"
       gradientTransform="matrix(1.0199 0 0 .85846 -19.686 -9.2682)"
       r="47.725" />
    <linearGradient
       id="linearGradient3386">
      <stop
         id="stop3388"
         style="stop-color:#eeeeec"
         offset="0" />
      <stop
         id="stop3390"
         style="stop-color:#eeeeec;stop-opacity:0"
         offset="1" />
    </linearGradient>
    <radialGradient
       id="radialGradient3904"
       xlink:href="#linearGradient3386"
       gradientUnits="userSpaceOnUse"
       cy="66.598"
       cx="53.419"
       gradientTransform="matrix(1.0164 0 0 1.2415 -19.338 -31.113)"
       r="47.725" />
    <radialGradient
       id="radialGradient3929"
       xlink:href="#linearGradient3386"
       gradientUnits="userSpaceOnUse"
       cy="66.598"
       cx="53.419"
       gradientTransform="matrix(1.0221 0 0 1.2415 -19.896 -47.863)"
       r="47.725" />
    <radialGradient
       id="radialGradient3933"
       xlink:href="#linearGradient3386"
       gradientUnits="userSpaceOnUse"
       cy="66.598"
       cx="53.419"
       gradientTransform="matrix(1.475 0 0 .84786 -55.737 -9.8942)"
       r="47.725" />
    <radialGradient
       id="radialGradient4114"
       xlink:href="#linearGradient3386"
       gradientUnits="userSpaceOnUse"
       cy="66.598"
       cx="53.419"
       gradientTransform="matrix(1.0199 0 0 .85846 -19.873 -11.927)"
       r="47.725" />
    <radialGradient
       id="radialGradient3937"
       xlink:href="#linearGradient3386"
       gradientUnits="userSpaceOnUse"
       cy="66.598"
       cx="53.419"
       gradientTransform="matrix(1.475 0 0 .84786 -77.737 -9.8942)"
       r="47.725" />
    <radialGradient
       id="radialGradient3619"
       xlink:href="#linearGradient3737"
       gradientUnits="userSpaceOnUse"
       cy="90.172"
       cx="48"
       gradientTransform="matrix(1.1573 0 0 .99591 -7.551 .19713)"
       r="42" />
    <linearGradient
       id="linearGradient3737">
      <stop
         id="stop3739"
         style="stop-color:#fff"
         offset="0" />
      <stop
         id="stop3741"
         style="stop-color:#fff;stop-opacity:0"
         offset="1" />
    </linearGradient>
    <linearGradient
       id="linearGradient3613"
       y2="138.66"
       xlink:href="#linearGradient3737"
       gradientUnits="userSpaceOnUse"
       x2="48"
       y1="20.221"
       x1="48" />
    <clipPath
       id="clipPath3613">
      <rect
         id="rect3615"
         style="fill:#fff"
         rx="6"
         ry="6"
         height="84"
         width="84"
         y="6"
         x="6" />
    </clipPath>
    <filter
       id="filter3794"
       height="1.384"
       width="1.384"
       color-interpolation-filters="sRGB"
       y="-.192"
       x="-.192">
      <feGaussianBlur
         id="feGaussianBlur3796"
         stdDeviation="5.28" />
    </filter>
    <linearGradient
       id="linearGradient4262"
       y2="34.001"
       xlink:href="#linearGradient3260"
       gradientUnits="userSpaceOnUse"
       x2="43.477"
       gradientTransform="matrix(.72414 0 0 .75 1.6552 4.5)"
       y1="26"
       x1="43.477" />
    <linearGradient
       id="linearGradient3260"
       gradientUnits="userSpaceOnUse">
      <stop
         id="stop3262"
         offset="0" />
      <stop
         id="stop3266"
         style="stop-opacity:.35484"
         offset=".2" />
      <stop
         id="stop3268"
         style="stop-opacity:0"
         offset=".55255" />
      <stop
         id="stop3264"
         style="stop-opacity:0"
         offset="1" />
    </linearGradient>
    <linearGradient
       id="linearGradient4320"
       y2="20.33"
       gradientUnits="userSpaceOnUse"
       x2="50.464"
       gradientTransform="translate(0 -.67857)"
       y1="16.036"
       x1="50.464">
      <stop
         id="stop4316"
         style="stop-color:#fff"
         offset="0" />
      <stop
         id="stop4322"
         style="stop-color:#fff;stop-opacity:.49804"
         offset="0.3" />
      <stop
         id="stop4318"
         style="stop-color:#fff;stop-opacity:0"
         offset="1" />
    </linearGradient>
    <linearGradient
       id="linearGradient4310"
       y2="11.925"
       xlink:href="#linearGradient3260"
       gradientUnits="userSpaceOnUse"
       x2="48"
       gradientTransform="matrix(1 0 0 1.25 0 -4.5982)"
       y1="16"
       x1="48" />
    <linearGradient
       id="linearGradient4326"
       y2="11.925"
       xlink:href="#linearGradient3260"
       gradientUnits="userSpaceOnUse"
       x2="48"
       gradientTransform="matrix(1 0 0 1.25 0 4.4018)"
       y1="16"
       x1="48" />
    <linearGradient
       id="linearGradient4371"
       y2="24"
       gradientUnits="userSpaceOnUse"
       x2="16"
       gradientTransform="matrix(.81331 0 0 .81133 3.9935 2.0282)"
       y1="10.442"
       x1="11">
      <stop
         id="stop3275"
         style="stop-color:#5d5d5d"
         offset="0" />
      <stop
         id="stop3277"
         style="stop-color:#171717"
         offset="1" />
    </linearGradient>
    <linearGradient
       id="linearGradient4373"
       y2="24.5"
       gradientUnits="userSpaceOnUse"
       x2="19.25"
       gradientTransform="matrix(.81331 0 0 .81133 3.9935 2.0282)"
       y1="9.9419"
       x1="13.125">
      <stop
         id="stop3291"
         style="stop-color:#919191"
         offset="0" />
      <stop
         id="stop3293"
         style="stop-color:#232323"
         offset="1" />
    </linearGradient>
    <radialGradient
       id="radialGradient4379"
       xlink:href="#linearGradient3299"
       gradientUnits="userSpaceOnUse"
       cy="14.938"
       cx="11.312"
       r="1.4375" />
    <linearGradient
       id="linearGradient3299">
      <stop
         id="stop3301"
         style="stop-color:#dfdfdf"
         offset="0" />
      <stop
         id="stop3303"
         style="stop-color:#434343"
         offset="1" />
    </linearGradient>
    <linearGradient
       id="linearGradient3188"
       y2="63.893"
       xlink:href="#linearGradient3737"
       gradientUnits="userSpaceOnUse"
       x2="36.357"
       y1="6"
       x1="36.357" />
    <radialGradient
       id="radialGradient4037"
       gradientUnits="userSpaceOnUse"
       cy="55.926"
       cx="47.988"
       r="30.645">
      <stop
         id="stop4033"
         style="stop-color:#fff"
         offset="0" />
      <stop
         id="stop4035"
         style="stop-color:#fff;stop-opacity:0"
         offset="1" />
    </radialGradient>
    <linearGradient
       id="linearGradient4164"
       y2="4.9502"
       xlink:href="#linearGradient4015"
       gradientUnits="userSpaceOnUse"
       x2="8.9718"
       y1="15.022"
       x1="8.9718" />
    <linearGradient
       id="linearGradient4015">
      <stop
         id="stop4017"
         style="stop-color:#a3a3a3"
         offset="0" />
      <stop
         id="stop4166"
         style="stop-color:#c7c7c7"
         offset=".32695" />
      <stop
         id="stop4168"
         style="stop-color:#dedede"
         offset="0.675" />
      <stop
         id="stop4019"
         style="stop-color:#f5f5f5"
         offset="1" />
    </linearGradient>
    <linearGradient
       id="linearGradient4162"
       y2="75.76"
       gradientUnits="userSpaceOnUse"
       x2="46.098"
       y1="52.77"
       x1="42.628">
      <stop
         id="stop4158"
         style="stop-color:#fff"
         offset="0" />
      <stop
         id="stop4160"
         style="stop-color:#545454"
         offset="1" />
    </linearGradient>
    <linearGradient
       id="linearGradient4236"
       y2="62.338"
       gradientUnits="userSpaceOnUse"
       x2="42.985"
       y1="52.656"
       x1="42.985">
      <stop
         id="stop4232"
         offset="0" />
      <stop
         id="stop4234"
         style="stop-opacity:0"
         offset="1" />
    </linearGradient>
    <clipPath
       id="clipPath3374"
       clipPathUnits="userSpaceOnUse">
      <rect
         id="rect3376"
         style="fill:url(#linearGradient3378)"
         rx="22.872"
         ry="22.872"
         height="84.17"
         width="84.17"
         y="5.8298"
         x="6" />
    </clipPath>
    <linearGradient
       id="linearGradient3378"
       y2="1046.1"
       gradientUnits="userSpaceOnUse"
       x2="48"
       gradientTransform="matrix(1.0521 0 0 1.0521 -2.417 -1008.8)"
       y1="962.62"
       x1="48">
      <stop
         id="stop3797"
         style="stop-color:#13a6fd"
         offset="0" />
      <stop
         id="stop3799"
         style="stop-color:#2975b6"
         offset="1" />
    </linearGradient>
    <clipPath
       id="clipPath3009"
       clipPathUnits="userSpaceOnUse">
      <path
         id="path3011"
         style="opacity:.15;fill:#fff"
         d="m-2 956.36h-96v33.562l96 25.687v-59.25z" />
    </clipPath>
  </defs>
  <metadata
     id="metadata11042">
    <rdf:RDF>
      <cc:Work
         rdf:about="">
        <dc:format>image/svg+xml</dc:format>
        <dc:type
           rdf:resource="http://purl.org/dc/dcmitype/StillImage" />
        <dc:title />
      </cc:Work>
    </rdf:RDF>
  </metadata>
  <g
     id="layer1"
     transform="translate(0 -956.36)">
    <g
       id="g3120"
       clip-path="url(#clipPath3374)"
       transform="matrix(1.093 0 0 1.093 -4.5581 951.99)">
      <g
         id="layer1-4">
        <rect
           id="rect2419"
           style="fill:url(#linearGradient3617)"
           rx="6"
           ry="6"
           height="84"
           width="84"
           y="6"
           x="6" />
        <path
           id="path3890"
           d="m36.562 32.062c-0.3193 0.000003-0.56595 0.04413-0.75 0.125-0.18266 0.07948-0.31423 0.17168-0.40625 0.3125-0.09063 0.13944-0.15625 0.31119-0.15625 0.46875 0 0.23983 0.10278 0.40773 0.28125 0.5625 0.17708 0.15477 0.45949 0.28158 0.875 0.375 0.25377 0.05577 0.43028 0.12476 0.5 0.1875 0.07 0.063 0.094 0.14 0.094 0.219-0.000002 0.08366-0.01985 0.15461-0.09375 0.21875-0.07251 0.06275-0.17725 0.09375-0.3125 0.09375-0.18126 0.000001-0.3399-0.0634-0.4375-0.1875-0.05996-0.07669-0.10548-0.19734-0.125-0.34375l-0.875 0.0625c0.02649 0.30954 0.11172 0.58047 0.3125 0.78125s0.57227 0.28125 1.0938 0.28125c0.29699 0 0.55479-0.03995 0.75-0.125 0.1952-0.08645 0.32874-0.20907 0.4375-0.375 0.10876-0.16592 0.1875-0.33465 0.1875-0.53125-0.000003-0.16732-0.04274-0.3335-0.125-0.46875-0.08087-0.13525-0.22638-0.25312-0.40625-0.34375-0.17848-0.09202-0.46088-0.16076-0.875-0.25-0.167-0.035-0.268-0.085-0.312-0.125-0.046-0.039-0.094-0.076-0.094-0.125 0-0.06693 0.03798-0.14148 0.09375-0.1875 0.05577-0.0474 0.13985-0.0625 0.25-0.0625 0.13385 0 0.2372 0.03101 0.3125 0.09375 0.07669 0.06275 0.13254 0.17446 0.15625 0.3125l0.875-0.0625c-0.04-0.317-0.138-0.542-0.344-0.687-0.205-0.146-0.515-0.218-0.907-0.219zm14.969 0c-0.49778 0.000003-0.87738 0.12739-1.1562 0.40625-0.27887 0.27887-0.4375 0.68694-0.4375 1.1875 0 0.35834 0.07792 0.63657 0.21875 0.875s0.33662 0.4211 0.5625 0.53125c0.22728 0.11015 0.49795 0.15625 0.84375 0.15625 0.34022 0 0.61647-0.06062 0.84375-0.1875 0.22867-0.12828 0.41134-0.30258 0.53125-0.53125 0.1213-0.23006 0.1875-0.51666 0.1875-0.875-0.000004-0.49359-0.13018-0.88296-0.40625-1.1562-0.27608-0.27468-0.67718-0.40625-1.1875-0.40625zm3.375 0c-0.3193 0.000003-0.5972 0.04413-0.78125 0.125-0.18266 0.07948-0.31422 0.17168-0.40625 0.3125-0.09063 0.13944-0.125 0.31119-0.125 0.46875 0 0.23983 0.07153 0.40773 0.25 0.5625 0.17708 0.15477 0.49074 0.28158 0.90625 0.375 0.25377 0.05577 0.39903 0.12476 0.46875 0.1875 0.06972 0.06275 0.125 0.13927 0.125 0.21875-0.000002 0.08366-0.0511 0.15461-0.125 0.21875-0.072 0.063-0.177 0.094-0.312 0.094-0.181 0-0.308-0.063-0.406-0.187-0.06-0.077-0.105-0.198-0.125-0.344l-0.90625 0.0625c0.02649 0.30954 0.14297 0.58047 0.34375 0.78125s0.57227 0.28125 1.0938 0.28125c0.29699 0 0.52354-0.03995 0.71875-0.125 0.1952-0.08645 0.35999-0.20907 0.46875-0.375 0.10876-0.16592 0.15625-0.33465 0.15625-0.53125-0.000003-0.16732-0.04274-0.3335-0.125-0.46875-0.081-0.134-0.195-0.252-0.375-0.343-0.178-0.092-0.492-0.161-0.906-0.25-0.168-0.035-0.268-0.085-0.313-0.125-0.04602-0.03903-0.0625-0.0762-0.0625-0.125 0-0.06693 0.03798-0.14148 0.09375-0.1875 0.05577-0.0474 0.13985-0.0625 0.25-0.0625 0.13386 0 0.2372 0.03101 0.3125 0.09375 0.07669 0.06275 0.10129 0.17446 0.125 0.3125l0.90625-0.0625c-0.03905-0.3179-0.16864-0.54249-0.375-0.6875-0.20497-0.1464-0.4832-0.21875-0.875-0.21875zm-39.906 0.063v3.0625h0.9375v-1.25h1.1875v-0.625h-1.1875v-0.53125h1.4062v-0.65625h-2.3438zm3.3125 0-1.1562 3.0625h0.96875l0.125-0.53125h1.0938l0.15625 0.53125h0.96875l-1.125-3.0625h-1.0312zm2.4688 0v3.0625h2.5938v-0.71875h-1.6562v-0.59375h1.5v-0.625h-1.5v-0.5h1.5938v-0.625h-2.5312zm3.0938 0v3.0625h0.90625v-1.6875l1.1562 1.6875h0.875v-3.0625h-0.875v1.6875l-1.1562-1.6875h-0.90625zm3.5 0v0.625h1.5312l-1.6875 1.7812v0.65625h2.9062v-0.65625h-1.7812l1.7188-1.8125v-0.59375h-2.6875zm4.0312 0-1.1562 3.0625h0.96875l0.125-0.53125h1.0938l0.15625 0.53125h0.96875l-1.125-3.0625h-1.0312zm6.7812 0v0.75h0.96875v2.3125h0.9375v-2.3125h0.96875v-0.75h-2.875zm3.3125 0v1.8125c0 0.15059 0.03519 0.33604 0.09375 0.53125 0.03625 0.12131 0.0899 0.22942 0.1875 0.34375 0.099 0.11434 0.22523 0.18726 0.34375 0.25 0.11852 0.06135 0.26181 0.10409 0.4375 0.125 0.17708 0.02091 0.3508 0.03125 0.5 0.03125 0.25795 0 0.4722-0.02543 0.65625-0.09375 0.13246-0.0488 0.25508-0.13009 0.375-0.25 0.1213-0.12131 0.19422-0.27715 0.25-0.4375 0.05716-0.16174 0.09375-0.31874 0.09375-0.5v-1.8125h-0.9375v1.8438c-0.000002 0.17011-0.06283 0.31283-0.15625 0.40625-0.09203 0.09203-0.21186 0.125-0.375 0.125-0.16453 0-0.28158-0.03158-0.375-0.125-0.09203-0.09481-0.15625-0.23893-0.15625-0.40625v-1.8438h-0.9375zm3.5938 0v3.0625h1.4062c0.16871 0 0.35474-0.03798 0.5625-0.09375 0.15198-0.04044 0.27379-0.12869 0.40625-0.25 0.13246-0.1227 0.2386-0.25763 0.3125-0.4375 0.07529-0.18126 0.125-0.45358 0.125-0.78125 0-0.20915-0.01231-0.40691-0.0625-0.59375-0.0502-0.18684-0.13846-0.35917-0.25-0.5-0.11155-0.14082-0.266-0.2372-0.4375-0.3125-0.17-0.076-0.379-0.094-0.656-0.094h-1.4062zm3.3438 0v3.0625h0.9375v-3.0625h-0.9375zm3.0938 0.65625c0.19939 0.000003 0.35302 0.05365 0.46875 0.1875 0.11713 0.13246 0.1875 0.33638 0.1875 0.625-0.000002 0.34301-0.07596 0.58629-0.1875 0.71875-0.11155 0.13246-0.26518 0.21875-0.46875 0.21875-0.198 0-0.35302-0.0835-0.46875-0.21875-0.11433-0.13525-0.15625-0.34671-0.15625-0.65625-0.000001-0.31233 0.04052-0.55225 0.15625-0.6875 0.11573-0.13524 0.27772-0.1875 0.46875-0.1875zm-5.5 0.03125h0.25c0.2454 0.000003 0.39403 0.03634 0.5 0.15625 0.10596 0.11992 0.1875 0.36262 0.1875 0.6875 0 0.2454-0.04634 0.4211-0.09375 0.53125-0.04741 0.10876-0.10384 0.17413-0.1875 0.21875-0.08366 0.04323-0.23951 0.0625-0.4375 0.0625h-0.21875v-1.6562zm-27.22 0.094 0.344 1.094h-0.6875l0.34375-1.0938zm13.094 0l0.344 1.094h-0.6875l0.34375-1.0938zm-8.875 4.9688c-0.36464 0.000002-0.64928 0.05669-0.84375 0.21875s-0.3125 0.41759-0.3125 0.71875c0 0.24039 0.07964 0.4207 0.21875 0.5625 0.14045 0.14181 0.35373 0.24767 0.65625 0.3125l0.3125 0.0625c0.18367 0.04051 0.31423 0.07369 0.375 0.125 0.06213 0.05132 0.09375 0.12421 0.09375 0.21875-0.000002 0.10534-0.06576 0.19328-0.15625 0.25-0.09049 0.05671-0.20484 0.09375-0.375 0.09375-0.16746 0-0.35028-0.04243-0.53125-0.09375-0.17962-0.05267-0.36938-0.11611-0.5625-0.21875v0.65625c0.193 0.072 0.401 0.12 0.594 0.157 0.193 0.036 0.371 0.062 0.562 0.062 0.4065 0 0.70907-0.08794 0.90625-0.25 0.19852-0.16341 0.3125-0.41642 0.3125-0.75-0.000003-0.2539-0.07695-0.42475-0.21875-0.5625-0.14181-0.13775-0.38247-0.24497-0.71875-0.3125l-0.343-0.063c-0.15801-0.03241-0.25173-0.08043-0.3125-0.125-0.05942-0.04592-0.09375-0.10647-0.09375-0.1875 0-0.10804 0.03586-0.19869 0.125-0.25 0.08913-0.05131 0.21988-0.0625 0.40625-0.0625 0.14045 0 0.31074-0.0065 0.46875 0.03125 0.15801 0.03782 0.30263 0.11322 0.46875 0.1875v-0.65625c-0.18772-0.04997-0.35568-0.06943-0.53125-0.09375-0.17557-0.02566-0.33389-0.03125-0.5-0.03125zm2.7812 0c-0.36464 0.000003-0.64928 0.05669-0.84375 0.21875s-0.28125 0.41759-0.28125 0.71875c-0.000001 0.2404 0.07965 0.4207 0.21875 0.5625 0.14045 0.14181 0.35373 0.24767 0.65625 0.3125l0.313 0.062c0.18367 0.04051 0.28298 0.07368 0.34375 0.125 0.06212 0.05132 0.09375 0.12421 0.09375 0.21875-0.000001 0.10534-0.03451 0.19329-0.125 0.25s-0.20484 0.09375-0.375 0.09375c-0.16747 0-0.35028-0.04243-0.53125-0.09375-0.17962-0.05267-0.36937-0.11611-0.5625-0.21875v0.65625c0.19313 0.07158 0.36938 0.11979 0.5625 0.15625 0.192 0.037 0.401 0.063 0.593 0.063 0.4065 0 0.70907-0.08794 0.90625-0.25 0.19852-0.16341 0.28125-0.41642 0.28125-0.75-0.000002-0.2539-0.0457-0.42475-0.1875-0.5625-0.14181-0.13775-0.38247-0.24497-0.71875-0.3125l-0.344-0.063c-0.158-0.032-0.251-0.08-0.312-0.124-0.059-0.046-0.094-0.107-0.094-0.188-0.000002-0.10804 0.03586-0.19869 0.125-0.25 0.08913-0.05131 0.21988-0.0625 0.40625-0.0625 0.14045 0 0.31074-0.0066 0.46875 0.03125 0.15801 0.03782 0.30263 0.11322 0.46875 0.1875v-0.656c-0.188-0.05-0.356-0.069-0.531-0.094-0.176-0.025-0.365-0.031-0.532-0.031zm6.2812 0c-0.34945 0.05242-0.61889 0.19658-0.84375 0.40625-0.29982 0.27956-0.4375 0.66871-0.4375 1.1562 0 0.48214 0.14309 0.87399 0.4375 1.1562 0.295 0.281 0.685 0.406 1.189 0.406 0.22283 0 0.44692-0.01524 0.65625-0.0625 0.20933-0.04727 0.39927-0.12421 0.59375-0.21875v-1.4688h-1.2188v0.53125h0.46875v0.59375c-0.05537 0.0216-0.11727 0.02045-0.1875 0.03125-0.06888 0.0095-0.13772 0.03125-0.21875 0.03125-0.29847 0.000001-0.52544-0.07578-0.6875-0.25s-0.25-0.42992-0.25-0.75c-0.000001-0.32277 0.08254-0.57713 0.25-0.75 0.16881-0.17422 0.40813-0.25 0.71875-0.25 0.16746 0 0.33388 0.01524 0.5 0.0625 0.16746 0.04727 0.36243 0.12286 0.53125 0.21875v-0.625c-0.164-0.075-0.346-0.15-0.532-0.188-0.183-0.038-0.392-0.031-0.593-0.031-0.13033 0.000001-0.25852-0.01747-0.375 0zm-17.093 0.031v3.0312h0.75v-2.2188l0.6875 1.6562h0.5l0.6875-1.6562v2.2188h0.75v-3.0312h-1l-0.6875 1.625-0.6875-1.625h-1zm4.125 0v3.0312h2.1562v-0.59375h-1.375v-0.6875h1.25v-0.59375h-1.25v-0.5625h1.3438v-0.59375h-2.125zm15.25 0v3.0312h2.1562v-0.59375h-1.375v-0.6875h1.25v-0.59375h-1.25v-0.5625h1.3125v-0.59375h-2.0938zm-5.8438 0.03125-1.125 3.0312h0.78125l0.1875-0.5625h1.2188l0.1875 0.5625h0.78125l-1.125-3.0312h-0.90625zm0.469 0.688l0.40625 1.2188h-0.84375l0.438-1.219z"
           style="opacity:.8;fill:url(#radialGradient4116)" />
        <path
           id="path3842"
           d="m40 39h41v1h-41v-1z"
           style="opacity:.8;fill:url(#radialGradient3904)" />
        <path
           id="path3840"
           d="m15 69h66v1h-66v-1z"
           style="opacity:.8;fill:url(#radialGradient3929)" />
        <path
           id="text3348"
           d="m59 70v14h-1v-14h1z"
           style="opacity:.8;fill:url(#radialGradient3933)" />
        <path
           id="path3870"
           d="m41.781 62.875c-0.36464 0.000003-0.64928 0.05669-0.84375 0.21875s-0.28125 0.41759-0.28125 0.71875c0 0.2404 0.07964 0.4207 0.21875 0.5625 0.14045 0.1418 0.35373 0.24767 0.65625 0.3125l0.3125 0.0625c0.18367 0.04051 0.28298 0.07368 0.34375 0.125 0.06212 0.05132 0.09375 0.12421 0.09375 0.21875-0.000002 0.10534-0.03452 0.19328-0.125 0.25-0.09049 0.05671-0.20484 0.09375-0.375 0.09375-0.16747 0-0.35028-0.04243-0.53125-0.09375-0.17962-0.05267-0.36938-0.11611-0.5625-0.21875v0.65625c0.19312 0.07157 0.36938 0.11979 0.5625 0.15625 0.19312 0.03647 0.40197 0.0625 0.59375 0.0625 0.4065 0 0.70907-0.08794 0.90625-0.25 0.19852-0.16341 0.28125-0.41642 0.28125-0.75-0.000003-0.2539-0.0457-0.42474-0.1875-0.5625-0.142-0.137-0.383-0.244-0.719-0.312l-0.344-0.063c-0.158-0.032-0.251-0.08-0.312-0.124-0.06-0.046-0.094-0.107-0.094-0.188 0-0.10804 0.03586-0.19868 0.125-0.25 0.08913-0.05131 0.21988-0.0625 0.40625-0.0625 0.14045 0 0.31074-0.0066 0.46875 0.03125 0.15801 0.03782 0.30263 0.11322 0.46875 0.1875v-0.65625c-0.188-0.05-0.356-0.069-0.532-0.094-0.175-0.025-0.365-0.031-0.531-0.031zm3.0625 0c-0.339 0.053-0.623 0.195-0.844 0.406-0.29441 0.28091-0.4375 0.67276-0.4375 1.1562 0 0.48214 0.14309 0.87399 0.4375 1.1562 0.294 0.282 0.684 0.407 1.188 0.407 0.16881 0 0.34469-0.02468 0.5-0.0625 0.15531-0.03781 0.29434-0.08197 0.4375-0.15625v-0.625c-0.14451 0.09859-0.2658 0.17283-0.40625 0.21875-0.14046 0.04592-0.31344 0.0625-0.46875 0.0625-0.27821 0.000001-0.49689-0.10298-0.65625-0.28125s-0.21875-0.40678-0.21875-0.71875c-0.000001-0.31332 0.05939-0.57173 0.21875-0.75 0.15936-0.17826 0.37804-0.25 0.65625-0.25 0.15531 0 0.32829 0.01659 0.46875 0.0625 0.14045 0.04592 0.26174 0.12016 0.40625 0.21875v-0.625c-0.14316-0.07428-0.28219-0.14969-0.4375-0.1875-0.15531-0.0378-0.33119-0.03125-0.5-0.03125-0.12594 0.000001-0.2309-0.01764-0.34375 0zm-18.875 0.03125v0.59375h1v2.4375h0.78125v-2.4375h1v-0.59375h-2.7812zm3.1875 0v3.0312h2.1562v-0.59375h-1.375v-0.6875h1.25v-0.59375h-1.25v-0.5625h1.3125v-0.59375h-2.0938zm17.625 0v3.0312h2.1562v-0.59375h-1.375v-0.6875h1.25v-0.59375h-1.25v-0.5625h1.3125v-0.59375h-2.0938zm2.8438 0v3.0312h0.71875v-2.0625l1.125 2.0625h0.84375v-3.0312h-0.71875v2.0938l-1.0938-2.0938h-0.875zm3.4688 0v3.0312h2.1562v-0.59375h-1.375v-0.6875h1.25v-0.59375h-1.25v-0.5625h1.3125v-0.59375h-2.0938zm11.656 0v0.59375h1v2.4375h0.78125v-2.4375h1v-0.59375h-2.7812zm6.0938 0v3.0312h0.78125v-1.1875l1.1875 1.1875h0.96875l-1.5938-1.5938 1.4375-1.4375h-0.90625l-1.0938 1.125v-1.125h-0.78125zm3.1875 0v3.0312h2.1562v-0.59375h-1.375v-0.6875h1.25v-0.59375h-1.25v-0.5625h1.3438v-0.59375h-2.125zm-54.032 0.032v3.0312h0.8125c0.45377 0 0.80436-0.06017 1.0312-0.125 0.22688-0.06618 0.43168-0.15584 0.59375-0.3125 0.1418-0.1364 0.24362-0.29048 0.3125-0.46875 0.06887-0.17962 0.09375-0.39676 0.09375-0.625-0.000002-0.22554-0.02487-0.41548-0.09375-0.59375-0.068-0.179-0.17-0.333-0.311-0.469-0.161-0.157-0.369-0.279-0.594-0.344-0.224-0.066-0.572-0.093-1.032-0.093h-0.8125zm4.1875 0-1.0938 3.0312h0.78125l0.1875-0.5625h1.2188l0.1875 0.5625h0.78125l-1.125-3.0312h-0.9375zm44.188 0-1.125 3.0312h0.78125l0.21875-0.5625h1.2188l0.1875 0.5625h0.78125l-1.125-3.0312h-0.9375zm-47.594 0.59375h0.28125c0.32007 0.000002 0.55128 0.06209 0.71875 0.21875 0.16746 0.15666 0.25 0.38769 0.25 0.6875-0.000003 0.30117-0.08119 0.52949-0.25 0.6875-0.16747 0.15802-0.40003 0.25-0.71875 0.25h-0.28125v-1.8438zm3.875 0.09375 0.4375 1.2188h-0.84375l0.40625-1.2188zm44.188 0 0.40625 1.2188h-0.8125l0.40625-1.2188z"
           style="opacity:.8;fill:url(#radialGradient4114)" />
        <path
           id="path3935"
           d="m37 70v14h-1v-14h1z"
           style="opacity:.8;fill:url(#radialGradient3937)" />
      </g>
      <g
         id="layer5">
        <path
           id="path3615"
           d="m12 90c-3.324 0-6-2.676-6-6v-2-68-2c0-0.33472 0.04135-0.6507 0.09375-0.96875 0.0487-0.2956 0.09704-0.59692 0.1875-0.875 0.0099-0.03 0.0209-0.063 0.0313-0.094 0.0989-0.2873 0.2349-0.547 0.375-0.812 0.1446-0.2735 0.3156-0.5356 0.5-0.7812 0.1844-0.2457 0.3738-0.4735 0.5937-0.6876 0.44-0.428 0.943-0.8145 1.5-1.0937 0.2786-0.1396 0.5735-0.2469 0.8748-0.3437-0.256 0.1002-0.4865 0.2362-0.7185 0.375-0.00741 0.0044-0.023866-0.0045-0.03125 0-0.031933 0.0193-0.062293 0.04251-0.09375 0.0625-0.1204 0.0767-0.23102 0.16351-0.34375 0.25-0.10617 0.0808-0.21328 0.16111-0.3125 0.25-0.1779 0.1614-0.3474 0.3453-0.5 0.5312-0.1075 0.1303-0.2183 0.2653-0.3124 0.4063-0.0251 0.0383-0.0385 0.0858-0.0626 0.125-0.0647 0.103-0.1302 0.2045-0.1874 0.3124-0.1011 0.1948-0.2057 0.4158-0.2813 0.625-0.008 0.0219-0.0236 0.0406-0.0313 0.0626-0.0318 0.0919-0.0358 0.1868-0.0624 0.2812-0.0304 0.1066-0.0704 0.203-0.0938 0.3125-0.0729 0.3415-0.125 0.6985-0.125 1.0625v2 68 2c0 2.7818 2.2182 5 5 5h2 68 2c2.7818 0 5-2.2182 5-5v-2-68-2c0-0.364-0.052-0.721-0.125-1.0625-0.044-0.2069-0.088-0.3977-0.156-0.5937-0.008-0.022-0.024-0.0407-0.031-0.0626-0.063-0.1737-0.139-0.3674-0.219-0.5312-0.042-0.0828-0.079-0.17-0.125-0.25-0.055-0.0972-0.127-0.1884-0.188-0.2812-0.094-0.141-0.205-0.276-0.312-0.4063-0.143-0.1745-0.303-0.347-0.469-0.5-0.011-0.0102-0.02-0.0211-0.031-0.0313-0.139-0.1255-0.285-0.2344-0.438-0.3437-0.102-0.0731-0.204-0.1534-0.312-0.2187-0.0074-0.0045-0.02384 0.0044-0.03125 0-0.23204-0.13873-0.46255-0.27478-0.71875-0.375 0.30153 0.0968 0.59646 0.20414 0.875 0.34375 0.55709 0.27922 1.0601 0.66569 1.5 1.0938 0.21997 0.21403 0.40937 0.44186 0.59375 0.6875s0.35541 0.50774 0.5 0.78125c0.14012 0.26505 0.27614 0.52473 0.375 0.8125 0.01041 0.03078 0.02133 0.06274 0.03125 0.09375 0.09046 0.27808 0.1388 0.5794 0.1875 0.875 0.053 0.318 0.094 0.634 0.094 0.969v2 68 2c0 3.324-2.676 6-6 6h-72z"
           style="opacity:.2;fill:url(#radialGradient3619)" />
        <rect
           id="rect3171"
           style="opacity:.1;filter:url(#filter3794);stroke:#fff;stroke-linecap:round;stroke-width:.5;fill:url(#linearGradient3613)"
           clip-path="url(#clipPath3613)"
           rx="12"
           ry="12"
           height="66"
           width="66"
           y="15"
           x="15" />
      </g>
      <g
         id="layer3">
        <path
           id="rect4237"
           d="m12 6c-3.324 0-6 2.676-6 6v12h84v-12c0-3.324-2.676-6-6-6h-72z" />
        <rect
           id="rect3250"
           style="opacity:.8;fill:url(#linearGradient4262);fill-rule:evenodd"
           height="6"
           width="84"
           y="24"
           x="6" />
        <rect
           id="rect4289"
           style="opacity:.3;fill:url(#linearGradient4320);fill-rule:evenodd"
           height="5"
           width="84"
           y="15"
           x="6" />
        <g
           id="g4299"
           transform="translate(1)">
          <path
             id="path4293"
             d="m28.333 6-5.333 9 5.333 9h10.667l-5.333-9 5.333-9h-10.667z"
             style="fill:#f0f0f0;fill-rule:evenodd" />
          <path
             id="path4295"
             d="m50.333 6-5.333 9 5.333 9h10.667l-5.333-9 5.333-9h-10.667z"
             style="fill:#f0f0f0;fill-rule:evenodd" />
          <path
             id="path4297"
             d="m72.333 6-5.333 9 5.333 9h10.667l-5.333-9 5.333-9h-10.667z"
             style="fill:#f0f0f0;fill-rule:evenodd" />
        </g>
        <rect
           id="rect4291"
           style="opacity:.7;fill:url(#linearGradient4310);fill-rule:evenodd"
           height="5"
           width="84"
           y="10"
           x="6" />
        <rect
           id="rect4324"
           style="opacity:.7;fill:url(#linearGradient4326);fill-rule:evenodd"
           height="5"
           width="84"
           y="19"
           x="6" />
        <path
           id="path4333"
           d="m12.005 10.5c1.1095 0 1.7702 0.98369 6.03 4.3027 4.3044 3.3537 5.4775 3.7265 5.4775 5.0746 0 1.3484-1.0882 1.6227-2.4399 1.6227h-8.1331c-1.352 0-2.44-1.086-2.44-2.434v-6.4906c0-1.348 0.468-2.075 1.505-2.075z"
           style="stroke-linejoin:round;fill-rule:evenodd;stroke:url(#linearGradient4373);fill:url(#linearGradient4371)" />
        <path
           id="path4335"
           d="m12.75 14.938a1.4375 1.4375 0 1 1 -2.875 0 1.4375 1.4375 0 1 1 2.875 0z"
           style="fill:url(#radialGradient4379);fill-rule:evenodd"
           transform="matrix(.81331 0 0 .81133 3.5869 1.0747)" />
        <path
           id="path4337"
           d="m12.75 14.938a1.4375 1.4375 0 1 1 -2.875 0 1.4375 1.4375 0 1 1 2.875 0z"
           style="fill-rule:evenodd;fill:url(#radialGradient4379)"
           transform="matrix(.81331 0 0 .81133 3.5869 7.099)" />
        <path
           id="path4339"
           d="m12.75 14.938a1.4375 1.4375 0 1 1 -2.875 0 1.4375 1.4375 0 1 1 2.875 0z"
           style="fill-rule:evenodd;fill:url(#radialGradient4379)"
           transform="matrix(.81331 0 0 .81133 11.618 7.099)" />
      </g>
      <g
         id="layer4">
        <path
           id="rect3728"
           d="m12 6c-3.324 0-6 2.676-6 6v2 68 2c0 0.33472 0.04135 0.6507 0.09375 0.96875 0.0487 0.2956 0.09704 0.59692 0.1875 0.875 0.00988 0.03038 0.020892 0.0636 0.03125 0.09375 0.098865 0.28777 0.23488 0.54745 0.375 0.8125 0.14459 0.27351 0.31562 0.53562 0.5 0.78125 0.18438 0.24564 0.37378 0.47347 0.59375 0.6875 0.43995 0.42806 0.94291 0.81453 1.5 1.0938 0.27854 0.13961 0.57347 0.24695 0.875 0.34375-0.2562-0.10022-0.48671-0.23627-0.71875-0.375-0.00741-0.0044-0.023866 0.0045-0.03125 0-0.031933-0.0193-0.062293-0.04251-0.09375-0.0625-0.1204-0.0767-0.23102-0.16351-0.34375-0.25-0.10617-0.0808-0.21328-0.16111-0.3125-0.25-0.1778-0.162-0.3473-0.346-0.4999-0.531-0.1075-0.131-0.2183-0.266-0.3124-0.407-0.0251-0.038-0.0385-0.086-0.0626-0.125-0.0647-0.103-0.1302-0.204-0.1874-0.312-0.1011-0.195-0.2057-0.416-0.2813-0.625-0.008-0.022-0.0236-0.041-0.0313-0.063-0.0318-0.092-0.0358-0.187-0.0624-0.281-0.0304-0.107-0.0704-0.203-0.0938-0.313-0.0729-0.341-0.125-0.698-0.125-1.062v-2-68-2c0-2.782 2.2182-5 5-5h2 68 2c2.7818 0 5 2.2182 5 5v2 68 2c0 0.3643-0.05212 0.72099-0.125 1.0625-0.04415 0.20689-0.08838 0.39766-0.15625 0.59375-0.0077 0.02195-0.0233 0.04069-0.03125 0.0625-0.06274 0.17374-0.13838 0.36745-0.21875 0.53125-0.04158 0.0828-0.07904 0.16995-0.125 0.25-0.0546 0.09721-0.12677 0.18835-0.1875 0.28125-0.09411 0.14096-0.20492 0.276-0.3125 0.40625-0.14317 0.17445-0.30314 0.347-0.46875 0.5-0.01117 0.0102-0.01998 0.02115-0.03125 0.03125-0.13839 0.12556-0.28509 0.23444-0.4375 0.34375-0.10257 0.07315-0.20432 0.15336-0.3125 0.21875-0.0074 0.0045-0.02384-0.0044-0.03125 0-0.23204 0.13873-0.46255 0.27478-0.71875 0.375 0.30153-0.0968 0.59646-0.20414 0.875-0.34375 0.55709-0.27922 1.0601-0.66569 1.5-1.0938 0.21997-0.21403 0.40937-0.44186 0.59375-0.6875s0.35541-0.50774 0.5-0.78125c0.14012-0.26505 0.27614-0.52473 0.375-0.8125 0.01041-0.03078 0.02133-0.06274 0.03125-0.09375 0.09046-0.27808 0.1388-0.5794 0.1875-0.875 0.053-0.318 0.094-0.634 0.094-0.969v-2-68-2c0-3.324-2.676-6-6-6h-72z"
           style="opacity:.3;fill:url(#linearGradient3188)" />
      </g>
      <g
         id="layer6">
        <path
           id="path4186"
           d="m32.094 32.031c-0.1521-0.011-0.34145-0.0247-0.59375 0.03125-0.12615 0.02797-0.2703 0.05727-0.4375 0.1875-0.05993 0.04668-0.07301 0.15101-0.125 0.21875-0.34523 0.14018-0.73198 0.22999-0.9375 0.46875-0.32337 0.37568-0.52221 0.76008-0.6875 1.0938a0.85684 0.85684 0 0 0 -0.0625 0.375v44.5 0.03125c-0.04588 1.3112 0.67956 2.3506 1.6875 2.7812v0.03125c0.0075 0.0031 0.02375-0.0031 0.03125 0 0.47934 0.21182 0.97609 0.28689 1.4688 0.21875 0.41391-0.05725 0.80566-0.29687 1.1562-0.59375l0.031 0.032 0.219-0.156 35.562-21.688a0.85684 0.85684 0 0 0 0.0625 -0.03125c0.66794-0.46785 1.2835-1.2494 1.3438-2.3438 0.000605-0.011-0.000488-0.02019 0-0.03125 0.08764-1.1716-0.49897-2.0666-1.1562-2.5312a0.85684 0.85684 0 0 0 -0.0625 -0.03125c-11.571-7.157-23.195-14.223-34.782-21.344a0.85684 0.85684 0 0 0 0 -0.03125c-0.635-0.379-1.09-0.671-1.656-1.031a0.85684 0.85684 0 0 0 -0.6875 -0.09375c0.139-0.039 0.055-0.025-0.03-0.032-0.086-0.006-0.192-0.02-0.344-0.031z"
           style="opacity:.05;color:#000000" />
        <path
           id="path4180"
           d="m32.681 32.902c0.55684 0.35505 1.041 0.66363 1.6955 1.0535 11.589 7.1222 23.213 14.193 34.78 21.348 0.48149 0.34037 0.90304 0.93159 0.8255 1.8328-0.039 0.88298-0.41788 1.2863-1.0057 1.6981l-35.781 21.855c-0.3938 0.4575-1.3117 0.55471-1.9294 0.27229-0.61862-0.25171-1.2005-1.0757-1.1576-2.0348v-44.527c0.33696-0.6802 0.60846-1.3034 1.4149-1.3615 0.06635-0.3076 0.86272-0.05269 1.1576-0.13614z"
           style="opacity:0.08;color:#000000" />
        <path
           id="path4176"
           d="m10.844 4.7188a0.22122 0.22122 0 0 0 -0.063 0.0312l-8.75 5.0625a0.22122 0.22122 0 0 0 -0.031 0.0313 0.22122 0.22122 0 0 0 -0.0312 0.0312 0.22122 0.22122 0 0 0 -0.0313 0.0625 0.22122 0.22122 0 0 0 0 0.0625 0.22122 0.22122 0 0 0 0 0.0625 0.22122 0.22122 0 0 0 0.0313 0.063 0.22122 0.22122 0 0 0 0.0312 0.031 0.22122 0.22122 0 0 0 0.0312 0.032l8.75 5.0625a0.22122 0.22122 0 0 0 0.0625 0.03125 0.22122 0.22122 0 0 0 0.09375 0 0.22122 0.22122 0 0 0 0.09375 -0.03125 0.22122 0.22122 0 0 0 0.03125 -0.03125 0.22122 0.22122 0 0 0 0.0625 -0.125 0.22122 0.22122 0 0 0 0 -0.03125v-10.125a0.22122 0.22122 0 0 0 0 -0.03125 0.22122 0.22122 0 0 0 -0.0625 -0.125 0.22122 0.22122 0 0 0 -0.03125 -0.03125 0.22122 0.22122 0 0 0 -0.125 -0.03125 0.22122 0.22122 0 0 0 -0.0625 0z"
           style="opacity:0.12;color:#000000"
           transform="matrix(-4.116 0 0 4.3566 76.928 13.434)" />
        <path
           id="path4170"
           d="m10.915 15.05-8.746-5.05 8.746-5.0498z"
           style="opacity:.3;color:#000000"
           transform="matrix(-4.116 0 0 4.3566 76.928 13.434)" />
        <path
           id="path4029"
           d="m78.633 55.926a30.645 30.645 0 1 1 -61.29 0 30.645 30.645 0 1 1 61.29 0z"
           style="opacity:.2;color:#000000;fill:url(#radialGradient4037)" />
        <path
           id="path4013"
           d="m10.915 15.05-8.746-5.05 8.746-5.0498z"
           style="color:#000000;fill:url(#linearGradient4164)"
           transform="matrix(-4.116 0 0 4.3566 76.928 12.434)" />
        <path
           id="path4143"
           d="m32 34v44l36-22-36-22zm0.938 1.594 33.312 20.406-33.312 20.406v-40.812z"
           style="opacity:.6;color:#000000;fill:url(#linearGradient4162)" />
        <path
           id="path4188"
           d="m10.915 15.05-8.746-5.05 8.746-5.0498z"
           style="opacity:.3;color:#000000;fill:url(#linearGradient4164)"
           transform="matrix(-2.2866 0 0 2.4204 46.96 31.796)" />
        <path
           id="path4192"
           d="m10.915 15.05-8.746-5.05 8.746-5.0498z"
           style="opacity:.15;color:#000000;fill:url(#linearGradient4164)"
           transform="matrix(-1.6007 0 0 1.6943 31.472 39.057)" />
        <path
           id="path4196"
           d="m10.915 15.05-8.746-5.05 8.746-5.0498z"
           style="opacity:0.07;color:#000000;fill:url(#linearGradient4164)"
           transform="matrix(-.91466 0 0 .96814 17.984 46.319)" />
        <path
           id="path4200"
           d="m10.915 15.05-8.746-5.05 8.746-5.0498z"
           style="opacity:.2;color:#000000;fill:url(#linearGradient4164)"
           transform="matrix(-2.2866 0 0 2.4204 82.96 31.796)" />
        <path
           id="path4202"
           d="m10.915 15.05-8.746-5.05 8.746-5.0498z"
           style="opacity:.1;color:#000000;fill:url(#linearGradient4164)"
           transform="matrix(-1.6007 0 0 1.6943 89.472 39.057)" />
        <path
           id="path4204"
           d="m10.915 15.05-8.746-5.05 8.746-5.0498z"
           style="opacity:.05;color:#000000;fill:url(#linearGradient4164)"
           transform="matrix(-.91466 0 0 .96814 93.984 46.319)" />
        <path
           id="path4217"
           d="m41.062 54c-0.16 0.00001-0.33697 0.01602-0.53125 0.03125-0.19 0.012-0.375 0.025-0.531 0.063v3.906h0.5625v-1.4688h0.4375c0.27809 0 0.52905-0.01678 0.75-0.0625 0.22095-0.04571 0.41012-0.1197 0.5625-0.21875 0.15619-0.10286 0.26375-0.24625 0.34375-0.40625 0.0838-0.16381 0.125-0.36518 0.125-0.59375-0.000003-0.41904-0.13655-0.72797-0.4375-0.9375-0.297-0.213-0.725-0.312-1.282-0.312zm2.438 0.031v3.969h2.375v-0.46875h-1.8125v-3.5h-0.5625zm4.2812 0c-0.13714 0.28572-0.24929 0.58167-0.375 0.875-0.125 0.29-0.276 0.587-0.406 0.906-0.126 0.321-0.242 0.674-0.375 1.032-0.133 0.354-0.285 0.737-0.437 1.156h0.59375l0.34375-1h1.8125c0.06095 0.17143 0.0991 0.33238 0.15625 0.5 0.05714 0.16381 0.12273 0.32857 0.1875 0.5h0.625c-0.15238-0.41905-0.30417-0.80196-0.4375-1.1562-0.13334-0.35809-0.27673-0.71125-0.40625-1.0312-0.12572-0.32-0.24929-0.61672-0.375-0.90625-0.12572-0.29333-0.23786-0.58928-0.375-0.875h-0.53125zm1.7812 0c0.20571 0.38096 0.42387 0.79131 0.65625 1.1875s0.48714 0.77988 0.75 1.1875v1.5938h0.53125v-1.5938c0.25904-0.40381 0.51762-0.79512 0.75-1.1875 0.23238-0.39619 0.45053-0.80654 0.65625-1.1875h-0.625c-0.147 0.313-0.32 0.645-0.499 0.969-0.179 0.32-0.344 0.609-0.531 0.906-0.19-0.297-0.383-0.586-0.562-0.906-0.18-0.324-0.324-0.656-0.469-0.969h-0.65625zm-9 0.46875c0.12571-0.01144 0.29506 0.000004 0.53125 0 0.14857 0.00001 0.30416 0.0084 0.4375 0.03125 0.13333 0.02286 0.24471 0.06406 0.34375 0.125 0.10286 0.05715 0.16161 0.11971 0.21875 0.21875 0.06095 0.09905 0.09375 0.22262 0.09375 0.375 0 0.16-0.0054 0.3034-0.0625 0.40625-0.05715 0.10286-0.14334 0.18905-0.25 0.25-0.10286 0.05714-0.22262 0.09833-0.375 0.125-0.15238 0.02286-0.34078 0.03125-0.53125 0.03125h-0.40625v-1.5625zm7.4688 0.1875c0.12952 0.28572 0.2569 0.56262 0.375 0.875 0.1219 0.30857 0.25309 0.63732 0.375 0.96875h-1.5c0.11809-0.33143 0.2569-0.66018 0.375-0.96875 0.1219-0.31238 0.24166-0.58928 0.375-0.875z"
           style="opacity:.6;fill:url(#linearGradient4236)" />
        <path
           id="path4238"
           d="m40.562 54.5v0.46875c0.12571-0.01144 0.29506 0.000004 0.53125 0 0.14857 0.00001 0.30416 0.0084 0.4375 0.03125 0.13333 0.02286 0.24471 0.06406 0.34375 0.125 0.10286 0.05715 0.16161 0.11971 0.21875 0.21875 0.03048 0.04953 0.04668 0.12518 0.0625 0.1875 0.01916-0.08551 0.03125-0.17325 0.03125-0.28125-0.000003-0.15238-0.0328-0.27595-0.09375-0.375-0.05714-0.09904-0.1159-0.1616-0.21875-0.21875-0.09904-0.06094-0.21042-0.10214-0.34375-0.125-0.13334-0.02285-0.28893-0.03124-0.4375-0.03125-0.23619 0.000004-0.40554-0.01144-0.53125 0zm9 0c0.20571 0.38096 0.42387 0.79131 0.65625 1.1875s0.48714 0.77988 0.75 1.1875v-0.46875c-0.26286-0.40762-0.51762-0.79131-0.75-1.1875-0.141-0.24-0.274-0.476-0.406-0.718h-0.25zm3.0938 0c-0.13127 0.24175-0.26485 0.47768-0.40625 0.71875-0.23238 0.39238-0.49096 0.78369-0.75 1.1875v0.46875c0.25904-0.40381 0.51762-0.79512 0.75-1.1875 0.23238-0.39619 0.45053-0.80654 0.65625-1.1875h-0.25zm-4.625 0.1875c-0.13334 0.28572-0.2531 0.56262-0.375 0.875-0.1181 0.30857-0.25691 0.63732-0.375 0.96875h0.1875c0.06602-0.1669 0.1268-0.34138 0.1875-0.5 0.1219-0.31238 0.24166-0.58928 0.375-0.875 0.12952 0.28572 0.2569 0.56262 0.375 0.875 0.06266 0.15862 0.12245 0.3331 0.1875 0.5h0.1875c-0.12191-0.33143-0.2531-0.66018-0.375-0.96875-0.1181-0.31238-0.24548-0.58928-0.375-0.875zm-5.281 0.874c-0.02077 0.09939-0.05185 0.19935-0.09375 0.28125-0.08 0.16-0.18756 0.3034-0.34375 0.40625-0.15238 0.09905-0.34155 0.17304-0.5625 0.21875-0.06476 0.0134-0.1489 0.02252-0.21875 0.03125-0.01107 0.0022-0.01982-0.002-0.03125 0-0.16019 0.01845-0.31492 0.03125-0.5 0.03125-0.01114 0.000059-0.02008 0-0.03125 0h-0.40625v0.46875h0.437c0.27809 0 0.52905-0.01678 0.75-0.0625 0.22095-0.04571 0.41012-0.1197 0.5625-0.21875 0.15619-0.10286 0.26375-0.24625 0.34375-0.40625 0.0838-0.16381 0.125-0.36518 0.125-0.59375 0-0.05877-0.0258-0.10178-0.03125-0.15625zm4.375 1.438-0.344 1h-0.406c-0.0608 0.15956-0.12528 0.29765-0.1875 0.46875h0.59375l0.34375-1h1.8125c0.06095 0.17143 0.0991 0.33238 0.15625 0.5 0.05714 0.16381 0.12273 0.32857 0.1875 0.5h0.625c-0.063-0.171-0.127-0.309-0.188-0.469h-0.4375c-0.066-0.171-0.131-0.336-0.188-0.5-0.057-0.168-0.096-0.329-0.156-0.5h-0.15625-1.5-0.15625zm-7.125 1v0.46875h0.5625v-0.469h-0.562zm3.5 0v0.46875h2.375v-0.46875h-1.8125-0.5625zm7.4688 0v0.46875h0.53125v-0.46875h-0.53125z"
           style="opacity:.8;fill:#fff" />
      </g>
    </g>
    <rect
       id="rect3003"
       style="opacity:.15;fill:#fff"
       transform="translate(98 3.8281e-7)"
       clip-path="url(#clipPath3009)"
       rx="25"
       ry="25"
       height="92"
       width="92"
       y="958.36"
       x="-96" />
  </g>
</svg>
