<?xml version="1.0" encoding="UTF-8" standalone="no"?>
<!-- Created with Inkscape (http://www.inkscape.org/) -->

<svg
   xmlns:dc="http://purl.org/dc/elements/1.1/"
   xmlns:cc="http://creativecommons.org/ns#"
   xmlns:rdf="http://www.w3.org/1999/02/22-rdf-syntax-ns#"
   xmlns:svg="http://www.w3.org/2000/svg"
   xmlns="http://www.w3.org/2000/svg"
   xmlns:xlink="http://www.w3.org/1999/xlink"
   xmlns:sodipodi="http://sodipodi.sourceforge.net/DTD/sodipodi-0.dtd"
   xmlns:inkscape="http://www.inkscape.org/namespaces/inkscape"
   id="svg11037"
   height="96"
   width="96"
   version="1.1"
   inkscape:version="0.48.5 r10040"
   sodipodi:docname="transmission.svg">
  <sodipodi:namedview
     pagecolor="#ffffff"
     bordercolor="#666666"
     borderopacity="1"
     objecttolerance="10"
     gridtolerance="10"
     guidetolerance="10"
     inkscape:pageopacity="0"
     inkscape:pageshadow="2"
     inkscape:window-width="640"
     inkscape:window-height="480"
     id="namedview67471" />
  <defs
     id="defs11039">
    <linearGradient
       id="linearGradient5321"
       y2="6.3465"
       gradientUnits="userSpaceOnUse"
       x2="47.754"
       y1="90.218"
       x1="47.754">
      <stop
         id="stop3621"
         style="stop-color:#d2d2d2"
         offset="0" />
      <stop
         id="stop3623"
         style="stop-color:#f0f0f0"
         offset="1" />
    </linearGradient>
    <clipPath
       id="clipPath3750">
      <rect
         id="rect3752"
         style="fill:#fff"
         rx="6"
         ry="6"
         height="84"
         width="84"
         y="6"
         x="6" />
    </clipPath>
    <filter
       id="filter3766"
       height="1.4046"
       width="1.5721"
       color-interpolation-filters="sRGB"
       y="-.20228"
       x="-.28604">
      <feGaussianBlur
         id="feGaussianBlur3768"
         stdDeviation="7.6983673" />
    </filter>
    <clipPath
       id="clipPath5288">
      <rect
         id="rect5290"
         style="fill:#fff"
         rx="6"
         ry="6"
         height="84"
         width="84"
         y="6"
         x="16" />
    </clipPath>
    <filter
       id="filter5300"
       height="1.24"
       width="1.24"
       color-interpolation-filters="sRGB"
       y="-.12"
       x="-.12">
      <feGaussianBlur
         id="feGaussianBlur5302"
         stdDeviation="4.2" />
    </filter>
    <linearGradient
       id="linearGradient5239"
       y2="6.3465"
       gradientUnits="userSpaceOnUse"
       x2="47.754"
       y1="90.218"
       x1="47.754">
      <stop
         id="stop5136"
         style="stop-color:#5a5a5a"
         offset="0" />
      <stop
         id="stop5138"
         style="stop-color:#909090"
         offset="1" />
    </linearGradient>
    <filter
       id="filter3772"
       height="1.4036"
       width="1.5707"
       color-interpolation-filters="sRGB"
       y="-.20179"
       x="-.28534">
      <feGaussianBlur
         id="feGaussianBlur3774"
         stdDeviation="7.6796946" />
    </filter>
    <linearGradient
       id="linearGradient5313"
       y2="-5.7325"
       xlink:href="#linearGradient3737"
       gradientUnits="userSpaceOnUse"
       x2="49.979"
       y1="82.682"
       x1="49.979" />
    <linearGradient
       id="linearGradient3737">
      <stop
         id="stop3739"
         style="stop-color:#fff"
         offset="0" />
      <stop
         id="stop3741"
         style="stop-color:#fff;stop-opacity:0"
         offset="1" />
    </linearGradient>
    <linearGradient
       id="linearGradient5356"
       y2="18.07"
       xlink:href="#linearGradient3737"
       gradientUnits="userSpaceOnUse"
       x2="48.961"
       y1="78.065"
       x1="48.961" />
    <linearGradient
       id="linearGradient5371"
       y2="75.616"
       gradientUnits="userSpaceOnUse"
       x2="50.253"
       y1="20.249"
       x1="50.253">
      <stop
         id="stop5422"
         style="stop-color:#525252"
         offset="0" />
      <stop
         id="stop5498"
         style="stop-color:#cecece"
         offset=".21238" />
      <stop
         id="stop5424"
         style="stop-color:#fdfdfd"
         offset=".60427" />
      <stop
         id="stop5428"
         style="stop-color:#7c7c7c"
         offset=".74340" />
      <stop
         id="stop5426"
         style="stop-color:#040404"
         offset="1" />
    </linearGradient>
    <filter
       id="filter3775"
       color-interpolation-filters="sRGB">
      <feGaussianBlur
         id="feGaussianBlur3777"
         stdDeviation="0.4875" />
    </filter>
    <linearGradient
       id="linearGradient5502"
       y2="36.257"
       gradientUnits="userSpaceOnUse"
       x2="46.797"
       gradientTransform="matrix(.86667 0 0 1.7455 -14.6 -14.982)"
       y1="31.772"
       x1="46.797">
      <stop
         id="stop5435"
         style="stop-color:#8d8d8d"
         offset="0" />
      <stop
         id="stop5441"
         style="stop-color:#fff"
         offset="0.325" />
      <stop
         id="stop5443"
         style="stop-color:#686868"
         offset=".58021" />
      <stop
         id="stop5437"
         style="stop-color:#b3b3b3"
         offset="1" />
    </linearGradient>
    <linearGradient
       id="linearGradient5469"
       y2="46.011"
       gradientUnits="userSpaceOnUse"
       x2="34.154"
       gradientTransform="matrix(.97917 0 0 1 1.4896 3)"
       y1="33.946"
       x1="34.154">
      <stop
         id="stop5465"
         style="stop-color:#d40000"
         offset="0" />
      <stop
         id="stop5471"
         style="stop-color:#ff8c67"
         offset=".33869" />
      <stop
         id="stop5473"
         style="stop-color:#d40000"
         offset=".60885" />
      <stop
         id="stop5467"
         style="stop-color:#6e0000"
         offset="1" />
    </linearGradient>
    <linearGradient
       id="linearGradient5439"
       y2="42.515"
       gradientUnits="userSpaceOnUse"
       x2="46.797"
       gradientTransform="matrix(.86667 0 0 1.3636 6.4 -6.4545)"
       y1="31.658"
       x1="46.797">
      <stop
         id="stop3695"
         style="stop-color:#8d8d8d"
         offset="0" />
      <stop
         id="stop3697"
         style="stop-color:#fff"
         offset=".25844" />
      <stop
         id="stop3699"
         style="stop-color:#686868"
         offset=".54386" />
      <stop
         id="stop3711"
         style="stop-color:#b1b1b1"
         offset="1" />
    </linearGradient>
    <linearGradient
       id="linearGradient3738"
       y2="53.954"
       gradientUnits="userSpaceOnUse"
       x2="50.498"
       gradientTransform="matrix(1 0 0 .88235 0 4.2941)"
       y1="42.384"
       x1="50.498">
      <stop
         id="stop3733"
         style="stop-color:#4d4d4d"
         offset="0" />
      <stop
         id="stop3735"
         style="stop-color:#878787"
         offset="1" />
    </linearGradient>
    <linearGradient
       id="linearGradient5488"
       y2="35.702"
       xlink:href="#linearGradient5274"
       gradientUnits="userSpaceOnUse"
       x2="39.929"
       gradientTransform="matrix(.13333 0 0 1.0909 33.6 2.6364)"
       y1="35.702"
       x1="55.62" />
    <linearGradient
       id="linearGradient5274">
      <stop
         id="stop5276"
         offset="0" />
      <stop
         id="stop5278"
         style="stop-opacity:0"
         offset="1" />
    </linearGradient>
    <linearGradient
       id="linearGradient5492"
       y2="35.702"
       xlink:href="#linearGradient5274"
       gradientUnits="userSpaceOnUse"
       x2="39.929"
       gradientTransform="matrix(-.13333 0 0 1.0909 62.356 2.6364)"
       y1="35.702"
       x1="55.62" />
    <clipPath
       id="clipPath5560">
      <path
         id="path5562"
         style="fill:#fff"
         d="m12 6c-3.324 0-6 2.676-6 6v72c0 3.324 2.676 6 6 6h72c3.324 0 6-2.676 6-6v-72c0-3.324-2.676-6-6-6h-72zm7.5 9h57c2.493 0 4.5 2.007 4.5 4.5v57c0 2.493-2.007 4.5-4.5 4.5h-57c-2.493 0-4.5-2.007-4.5-4.5v-57c0-2.493 2.007-4.5 4.5-4.5z" />
    </clipPath>
    <clipPath
       id="clipPath3230"
       clipPathUnits="userSpaceOnUse">
      <rect
         id="rect3232"
         style="fill:url(#linearGradient3234)"
         rx="25"
         ry="25"
         height="92"
         width="92"
         y="958.36"
         x="2" />
    </clipPath>
    <linearGradient
       id="linearGradient3234"
       y2="1046.1"
       gradientUnits="userSpaceOnUse"
       x2="48"
       gradientTransform="matrix(1.15 0 0 1.15 -7.1999 -150.65)"
       y1="962.62"
       x1="48">
      <stop
         id="stop3797"
         style="stop-color:#13a6fd"
         offset="0" />
      <stop
         id="stop3799"
         style="stop-color:#2975b6"
         offset="1" />
    </linearGradient>
    <clipPath
       id="clipPath3009"
       clipPathUnits="userSpaceOnUse">
      <path
         id="path3011"
         style="opacity:.15;fill:#fff"
         d="m-2 956.36h-96v33.562l96 25.687v-59.25z" />
    </clipPath>
  </defs>
  <metadata
     id="metadata11042">
    <rdf:RDF>
      <cc:Work
         rdf:about="">
        <dc:format>image/svg+xml</dc:format>
        <dc:type
           rdf:resource="http://purl.org/dc/dcmitype/StillImage" />
        <dc:title />
      </cc:Work>
    </rdf:RDF>
  </metadata>
  <g
     id="layer1"
     transform="translate(0 -956.36)">
    <g
       id="g3201"
       clip-path="url(#clipPath3230)">
      <g
         id="g3119"
         transform="matrix(1.0952 0 0 1.0952 -4.5714 951.79)">
        <g
           id="layer1-4">
          <path
             id="path5319"
             style="fill:url(#linearGradient5321)"
             d="m12 11.656c-0.28154 0-0.34375 0.06221-0.34375 0.34375v72c0 0.28154 0.06221 0.34375 0.34375 0.34375h72c0.28154 0 0.34375-0.06221 0.34375-0.34375v-72c0-0.28154-0.06221-0.34375-0.34375-0.34375h-72z" />
          <path
             id="path3770"
             style="filter:url(#filter3766);fill:#fff"
             clip-path="url(#clipPath3750)"
             d="m47.844 2.4062c-11.917 0.0266-23.568 4.7236-32.219 13.375l32.313 32.281 11.812-44.093c-3.939-1.0558-7.934-1.5716-11.906-1.5628zm0.094 45.656-11.844 44.126c15.757 4.2222 32.59-0.27727 44.125-11.812l-32.281-32.314z" />
          <path
             id="path5282"
             style="opacity:.7;filter:url(#filter5300)"
             d="m22 6c-3.324 0-6 2.676-6 6v72c0 3.324 2.676 6 6 6h72c3.324 0 6-2.676 6-6v-72c0-3.324-2.676-6-6-6h-72zm8 10h56c2.216 0 4 1.784 4 4v56c0 2.216-1.784 4-4 4h-56c-2.216 0-4-1.784-4-4v-56c0-2.216 1.784-4 4-4z"
             clip-path="url(#clipPath5288)"
             transform="translate(-10)" />
          <path
             id="rect2841"
             style="fill:url(#linearGradient5239)"
             d="m12 6c-3.324 0-6 2.676-6 6v72c0 3.324 2.676 6 6 6h72c3.324 0 6-2.676 6-6v-72c0-3.324-2.676-6-6-6h-72zm8 10h56c2.216 0 4 1.784 4 4v56c0 2.216-1.784 4-4 4h-56c-2.216 0-4-1.784-4-4v-56c0-2.216 1.784-4 4-4z" />
          <path
             id="path3740"
             style="opacity:.4;filter:url(#filter3772);fill:#fff"
             clip-path="url(#clipPath3750)"
             d="m47.844 2.4062c-11.917 0.0266-23.568 4.7236-32.219 13.375l32.313 32.281 11.812-44.093c-3.939-1.0558-7.934-1.5716-11.906-1.5628zm0.094 45.656-11.844 44.126c15.757 4.2222 32.59-0.27727 44.125-11.812l-32.281-32.314z" />
          <path
             id="path5246"
             style="opacity:.8;fill:#333"
             d="m20 14.969c-2.7663 0-5.0312 2.2649-5.0312 5.0312v56c0 2.7663 2.2649 5.0312 5.0312 5.0312h56c2.7663 0 5.0312-2.2649 5.0312-5.0312v-56c0-2.7663-2.2649-5.0312-5.0312-5.0312h-56zm0 1.031h56c2.216 0 4 1.784 4 4v56c0 2.216-1.784 4-4 4h-56c-2.216 0-4-1.784-4-4v-56c0-2.216 1.784-4 4-4z" />
          <path
             id="path5253"
             style="opacity:.4;fill:url(#linearGradient5313)"
             d="m20 13.031c-3.8143 0-6.9688 3.1544-6.9688 6.9688v56c0 3.8143 3.1544 6.9688 6.9688 6.9688h56c3.8143 0 6.9688-3.1544 6.9688-6.9688v-56c0-3.8143-3.1544-6.9688-6.9688-6.9688h-56zm0 2h56c2.7326 0 4.9688 2.2362 4.9688 4.9688v56c0 2.7326-2.2362 4.9688-4.9688 4.9688h-56c-2.7326 0-4.9688-2.2362-4.9688-4.9688v-56c0-2.7326 2.2362-4.9688 4.9688-4.9688z" />
          <path
             id="path5304"
             style="opacity:.2"
             d="m20 16c-2.216 0-4 1.784-4 4v1c0-2.216 1.784-4 4-4h56c2.216 0 4 1.784 4 4v-1c0-2.216-1.784-4-4-4h-56z" />
          <path
             id="path5311"
             style="opacity:.1"
             d="m20 17c-2.216 0-4 1.784-4 4v1c0-2.216 1.784-4 4-4h56c2.216 0 4 1.784 4 4v-1c0-2.216-1.784-4-4-4h-56z" />
        </g>
        <g
           id="layer4">
          <path
             id="path5348"
             style="fill:url(#linearGradient5356)"
             d="m47.75 18.094a1.9113 1.9113 0 0 0 -0.938 0.406l-7.5 6-7.5 6a1.9113 1.9113 0 0 0 1.188 3.406h5.0938v28.188h-5.0938a1.9113 1.9113 0 0 0 -1.188 3.406l7.5 6 7.5 6a1.9113 1.9113 0 0 0 2.375 0l7.5-6 7.5-6a1.9113 1.9113 0 0 0 -1.187 -3.406h-5.0938v-28.188h5.0938a1.9113 1.9113 0 0 0 1.188 -3.406l-7.5-6-7.5-6a1.9113 1.9113 0 0 0 -1.438 -0.406z" />
          <path
             id="path5323"
             style="fill:url(#linearGradient5371)"
             d="m48 20-7.5 6-7.5 6h7v32h-7l7.5 6 7.5 6 7.5-6 7.5-6h-7v-32h7l-7.5-6-7.5-6z" />
          <path
             id="path3794"
             style="opacity:.1"
             d="m48 20-7.5 6-7.5 6h7v32h-7l7.5 6 7.5 6 7.5-6 7.5-6h-7v-32h7l-7.5-6-7.5-6zm0 3.0312 6.0312 4.8125 2.2812 1.8125h-0.3125a2.3529 2.3529 0 0 0 -2.344 2.344v32a2.3529 2.3529 0 0 0 2.344 2.344h0.3125l-2.2812 1.8125-6.0312 4.8125-6.0312-4.8125-2.2812-1.8125h0.3125a2.3529 2.3529 0 0 0 2.344 -2.344v-32a2.3529 2.3529 0 0 0 -2.344 -2.344h-0.3125l2.2812-1.8125 6.031-4.813z" />
          <path
             id="path3787"
             style="opacity:.15"
             d="m48 20-7.5 6-7.5 6h7v32h-7l7.5 6 7.5 6 7.5-6 7.5-6h-7v-32h7l-7.5-6-7.5-6zm0 1.9688 6.5312 5.2188 4.0938 3.2812h-2.625a1.5277 1.5277 0 0 0 -1.531 1.531v32a1.5277 1.5277 0 0 0 1.531 1.531h2.625l-4.094 3.281-6.531 5.219-6.531-5.219-4.094-3.281h2.625a1.5277 1.5277 0 0 0 1.531 -1.531v-32a1.5277 1.5277 0 0 0 -1.531 -1.531h-2.625l4.094-3.281 6.531-5.219z" />
          <path
             id="path3779"
             style="opacity:.3"
             d="m48 20-7.5 6-7.5 6h7v32h-7l7.5 6 7.5 6 7.5-6 7.5-6h-7v-32h7l-7.5-6-7.5-6zm0 1.0312 7 5.5938 5.6875 4.5625h-4.6875a0.79909 0.79909 0 0 0 -0.812 0.812v32a0.79909 0.79909 0 0 0 0.812 0.812h4.6875l-5.688 4.563-7 5.594-7-5.594-5.688-4.563h4.688a0.79909 0.79909 0 0 0 0.812 -0.812v-32a0.79909 0.79909 0 0 0 -0.812 -0.812h-4.6875l5.688-4.563 7-5.594z" />
        </g>
        <g
           id="layer6">
          <path
             id="rect5504"
             style="opacity:.15;filter:url(#filter3775)"
             d="m43.5 47c-5.5568 0-10.573 0.29423-14.219 0.75-1.8231 0.22789-3.2866 0.4678-4.3438 0.78125-0.52856 0.15673-0.95096 0.32846-1.2812 0.53125-0.33 0.203-0.656 0.497-0.656 0.938h-1.5c-1.376 0-2.5 1.124-2.5 2.5v1c0 1.3764 1.1236 2.5 2.5 2.5h1.5c0 0.44148 0.32596 0.73471 0.65625 0.9375s0.75269 0.37452 1.2812 0.53125c1.0571 0.31346 2.5207 0.55336 4.3438 0.78125 3.646 0.456 8.662 0.75 14.219 0.75h8c5.5568 0 10.573-0.29423 14.219-0.75 1.8231-0.22789 3.2866-0.4678 4.3438-0.78125 0.52856-0.15673 0.95096-0.32846 1.2812-0.53125 0.33-0.203 0.656-0.497 0.656-0.938v-6c0-0.441-0.326-0.735-0.656-0.938-0.331-0.202-0.753-0.374-1.282-0.531-1.057-0.313-2.52-0.553-4.343-0.781-3.646-0.456-8.662-0.75-14.219-0.75h-8z" />
          <rect
             id="rect3725"
             style="fill:#333"
             height="6"
             width="16"
             y="46"
             x="40" />
          <rect
             id="rect5500"
             style="stroke:#474747;fill:url(#linearGradient5502)"
             rx="2"
             height="6"
             width="13"
             y="40"
             x="20.5" />
          <rect
             id="rect5461"
             style="stroke:#800000;fill:url(#linearGradient5469)"
             rx="19.583"
             ry="2.5"
             height="11"
             width="47"
             y="37.5"
             x="24.5" />
          <rect
             id="rect5431"
             style="stroke:url(#linearGradient3738);fill:url(#linearGradient5439)"
             height="15"
             width="13"
             y="36.5"
             x="41.5" />
          <path
             id="rect5475"
             style="opacity:.6;fill:url(#linearGradient5488)"
             d="m38.956 37.105 2.044-0.105v12l-2-0.105-0.044-11.79z" />
          <path
             id="path5490"
             style="opacity:.6;fill:url(#linearGradient5492)"
             d="m57 37.105-2.044-0.105v12l2-0.10457 0.044-11.79z" />
        </g>
      </g>
      <g
         id="layer3"
         transform="matrix(1.0952 0 0 1.0952 -42.69 946.75)">
        <path
           id="path5077"
           style="opacity:.1"
           d="m61-47-111 111 2 2 111-111-2-2zm4 4-111 111 2 2 111-111-2-2zm4 4-111 111 2 2 111-111-2-2zm4 4-111 111 2 2 111-111-2-2zm4 4-111 111 2 2 111-111-2-2zm4 4-111 111 2 2 111-111-2-2zm4 4-111 111 2 2 111-111-2-2zm4 4-111 111 2 2 111-111-2-2zm4 4-111 111 2 2 111-111-2-2zm4 4-111 111 2 2 111-111-2-2zm4 4-111 111 2 2 111-111-2-2zm4 4-111 111 2 2 111-111-2-2zm4 4-111 111 2 2 111-111-2-2zm4 4-111 111 2 2 111-111-2-2zm4 4-111 111 2 2 111-111-2-2zm4 4-111 111 2 2 111-111-2-2zm4 4-111 111 2 2 111-111-2-2zm4 4-111 111 2 2 111-111-2-2zm4 4-111 111 2 2 111-111-2-2zm4 4-111 111 2 2 111-111-2-2zm4 4-111 111 2 2 111-111-2-2z"
           clip-path="url(#clipPath5560)"
           transform="translate(34.804 4.6022)" />
      </g>
    </g>
    <rect
       id="rect3003"
       style="opacity:.15;fill:#fff"
       transform="translate(98 3.8281e-7)"
       clip-path="url(#clipPath3009)"
       rx="25"
       ry="25"
       height="92"
       width="92"
       y="958.36"
       x="-96" />
  </g>
</svg>
