<svg height="96" width="96" xmlns="http://www.w3.org/2000/svg" xmlns:xlink="http://www.w3.org/1999/xlink" xmlns:sodipodi="http://sodipodi.sourceforge.net/DTD/sodipodi-0.dtd" xmlns:inkscape="http://www.inkscape.org/namespaces/inkscape">
 <defs>
  <linearGradient x2="0" y1="962.62" y2="1046.1" gradientUnits="userSpaceOnUse" id="linearGradient11642" gradientTransform="matrix(1.15 0 0 1.15 -7.2 -150.65)">
   <stop stop-color="#013289"/>
   <stop stop-color="#1044a3" offset="1"/>
  </linearGradient>
  <radialGradient cy="20" r="4" gradientUnits="userSpaceOnUse" id="radialGradient5487" cx="20">
   <stop stop-color="#98bbff"/>
   <stop stop-color="#4589ff" offset="0.3"/>
   <stop stop-color="#0b56ca" offset="0.6"/>
   <stop stop-color="#0f54bf" offset="0.65"/>
   <stop stop-color="#1050b2" stop-opacity="0.736" offset="0.68"/>
   <stop stop-color="#1560d4" stop-opacity="0.369" offset="0.8"/>
   <stop stop-color="#165ecf" stop-opacity="0" offset="1"/>
  </radialGradient>
  <radialGradient cy="20" r="4" gradientUnits="userSpaceOnUse" id="radialGradient4522-7" cx="20">
   <stop stop-color="#fff"/>
   <stop stop-color="#dfebff" offset="0.4"/>
   <stop stop-color="#71a6f7" offset="0.6"/>
   <stop stop-color="#5b96f1" offset="0.65"/>
   <stop stop-color="#75a1ff" stop-opacity="0.51" offset="0.68"/>
   <stop stop-color="#fff" stop-opacity="0.233" offset="0.8"/>
   <stop stop-color="#fff" stop-opacity="0" offset="1"/>
  </radialGradient>
  <clipPath clipPathUnits="userSpaceOnUse" id="clipPath3009">
   <path d="m-2 956.36h-96v33.562l96 25.687v-59.25z"/>
  </clipPath>
  <path d="m24 20a4 4 0 1 1 -8 0 4 4 0 1 1 8 0z" color="#000000" id="SVGCleanerId_0"/>
 </defs>
 <g transform="matrix(1 0 0 1 0 -956.36)">
  <rect x="2" rx="25" y="958.36" fill="url(#linearGradient11642)" height="92" width="92"/>
  <use xlink:href="#SVGCleanerId_0" fill="url(#radialGradient5487)" transform="matrix(1.5 0 0 1.5 -12 944.36)"/>
  <use xlink:href="#SVGCleanerId_0" fill="url(#radialGradient5487)" transform="matrix(1.5 0 0 1.5 -2 944.36)"/>
  <use xlink:href="#SVGCleanerId_0" fill="url(#radialGradient5487)" transform="matrix(1.5 0 0 1.5 38 944.36)"/>
  <use xlink:href="#SVGCleanerId_0" fill="url(#radialGradient5487)" transform="matrix(1.5 0 0 1.5 48 944.36)"/>
  <use xlink:href="#SVGCleanerId_0" fill="url(#radialGradient5487)" transform="matrix(1.5 0 0 1.5 -12 954.36)"/>
  <use xlink:href="#SVGCleanerId_0" fill="url(#radialGradient5487)" transform="matrix(1.5 0 0 1.5 8 954.36)"/>
  <use xlink:href="#SVGCleanerId_0" fill="url(#radialGradient5487)" transform="matrix(1.5 0 0 1.5 18 954.36)"/>
  <use xlink:href="#SVGCleanerId_0" fill="url(#radialGradient5487)" transform="matrix(1.5 0 0 1.5 28 954.36)"/>
  <use xlink:href="#SVGCleanerId_0" fill="url(#radialGradient5487)" transform="matrix(1.5 0 0 1.5 48 954.36)"/>
  <use xlink:href="#SVGCleanerId_0" fill="url(#radialGradient5487)" transform="matrix(1.5 0 0 1.5 -12 964.36)"/>
  <use xlink:href="#SVGCleanerId_0" fill="url(#radialGradient5487)" transform="matrix(1.5 0 0 1.5 -2 964.36)"/>
  <use xlink:href="#SVGCleanerId_0" fill="url(#radialGradient5487)" transform="matrix(1.5 0 0 1.5 38 964.36)"/>
  <use xlink:href="#SVGCleanerId_0" fill="url(#radialGradient5487)" transform="matrix(1.5 0 0 1.5 48 964.36)"/>
  <use xlink:href="#SVGCleanerId_0" fill="url(#radialGradient5487)" transform="matrix(1.5 0 0 1.5 -12 974.36)"/>
  <use xlink:href="#SVGCleanerId_0" fill="url(#radialGradient5487)" transform="matrix(1.5 0 0 1.5 -2 974.36)"/>
  <use xlink:href="#SVGCleanerId_0" fill="url(#radialGradient5487)" transform="matrix(1.5 0 0 1.5 8 974.36)"/>
  <use xlink:href="#SVGCleanerId_0" fill="url(#radialGradient5487)" transform="matrix(1.5 0 0 1.5 28 974.36)"/>
  <use xlink:href="#SVGCleanerId_0" fill="url(#radialGradient5487)" transform="matrix(1.5 0 0 1.5 38 974.36)"/>
  <use xlink:href="#SVGCleanerId_0" fill="url(#radialGradient5487)" transform="matrix(1.5 0 0 1.5 48 974.36)"/>
  <use xlink:href="#SVGCleanerId_0" fill="url(#radialGradient5487)" transform="matrix(1.5 0 0 1.5 -12 984.36)"/>
  <use xlink:href="#SVGCleanerId_0" fill="url(#radialGradient5487)" transform="matrix(1.5 0 0 1.5 -2 984.36)"/>
  <use xlink:href="#SVGCleanerId_0" fill="url(#radialGradient5487)" transform="matrix(1.5 0 0 1.5 8 984.36)"/>
  <use xlink:href="#SVGCleanerId_0" fill="url(#radialGradient5487)" transform="matrix(1.5 0 0 1.5 28 984.36)"/>
  <use xlink:href="#SVGCleanerId_0" fill="url(#radialGradient5487)" transform="matrix(1.5 0 0 1.5 38 984.36)"/>
  <use xlink:href="#SVGCleanerId_0" fill="url(#radialGradient5487)" transform="matrix(1.5 0 0 1.5 48 984.36)"/>
  <use xlink:href="#SVGCleanerId_0" fill="url(#radialGradient5487)" transform="matrix(1.5 0 0 1.5 -12 994.36)"/>
  <use xlink:href="#SVGCleanerId_0" fill="url(#radialGradient5487)" transform="matrix(1.5 0 0 1.5 -2 994.36)"/>
  <use xlink:href="#SVGCleanerId_0" fill="url(#radialGradient5487)" transform="matrix(1.5 0 0 1.5 8 994.36)"/>
  <use xlink:href="#SVGCleanerId_0" fill="url(#radialGradient5487)" transform="matrix(1.5 0 0 1.5 28 994.36)"/>
  <use xlink:href="#SVGCleanerId_0" fill="url(#radialGradient5487)" transform="matrix(1.5 0 0 1.5 38 994.36)"/>
  <use xlink:href="#SVGCleanerId_0" fill="url(#radialGradient5487)" transform="matrix(1.5 0 0 1.5 48 994.36)"/>
  <use xlink:href="#SVGCleanerId_0" fill="url(#radialGradient5487)" transform="matrix(1.5 0 0 1.5 -12 1004.36)"/>
  <use xlink:href="#SVGCleanerId_0" fill="url(#radialGradient5487)" transform="matrix(1.5 0 0 1.5 -2 1004.36)"/>
  <use xlink:href="#SVGCleanerId_0" fill="url(#radialGradient5487)" transform="matrix(1.5 0 0 1.5 28 1004.36)"/>
  <use xlink:href="#SVGCleanerId_0" fill="url(#radialGradient5487)" transform="matrix(1.5 0 0 1.5 38 1004.36)"/>
  <use xlink:href="#SVGCleanerId_0" fill="url(#radialGradient5487)" transform="matrix(1.5 0 0 1.5 48 1004.36)"/>
  <use xlink:href="#SVGCleanerId_0" fill="url(#radialGradient4522-7)" transform="matrix(1.5 0 0 1.5 8 944.36)"/>
  <use xlink:href="#SVGCleanerId_0" fill="url(#radialGradient4522-7)" transform="matrix(1.5 0 0 1.5 18 944.36)"/>
  <use xlink:href="#SVGCleanerId_0" fill="url(#radialGradient4522-7)" transform="matrix(1.5 0 0 1.5 28 944.36)"/>
  <use xlink:href="#SVGCleanerId_0" fill="url(#radialGradient4522-7)" transform="matrix(1.5 0 0 1.5 8 964.36)"/>
  <use xlink:href="#SVGCleanerId_0" fill="url(#radialGradient4522-7)" transform="matrix(1.5 0 0 1.5 18 964.36)"/>
  <use xlink:href="#SVGCleanerId_0" fill="url(#radialGradient4522-7)" transform="matrix(1.5 0 0 1.5 28 964.36)"/>
  <use xlink:href="#SVGCleanerId_0" fill="url(#radialGradient4522-7)" transform="matrix(1.5 0 0 1.5 38 954.36)"/>
  <use xlink:href="#SVGCleanerId_0" fill="url(#radialGradient4522-7)" transform="matrix(1.5 0 0 1.5 -2 954.36)"/>
  <use xlink:href="#SVGCleanerId_0" fill="url(#radialGradient4522-7)" transform="matrix(1.5 0 0 1.5 18 974.36)"/>
  <use xlink:href="#SVGCleanerId_0" fill="url(#radialGradient4522-7)" transform="matrix(1.5 0 0 1.5 18 984.36)"/>
  <use xlink:href="#SVGCleanerId_0" fill="url(#radialGradient4522-7)" transform="matrix(1.5 0 0 1.5 18 994.36)"/>
  <use xlink:href="#SVGCleanerId_0" fill="url(#radialGradient4522-7)" transform="matrix(1.5 0 0 1.5 18 1004.36)"/>
  <use xlink:href="#SVGCleanerId_0" fill="url(#radialGradient4522-7)" transform="matrix(1.5 0 0 1.5 8 1004.36)"/>
  <rect x="-96" rx="25" y="958.36" clip-path="url(#clipPath3009)" fill="#fff" height="92" opacity="0.15" width="92" transform="matrix(1 0 0 1 98 0)"/>
 </g>
</svg>
