<?xml version="1.0" encoding="UTF-8" standalone="no"?>
<!-- Created with Inkscape (http://www.inkscape.org/) -->

<svg
   xmlns:dc="http://purl.org/dc/elements/1.1/"
   xmlns:cc="http://creativecommons.org/ns#"
   xmlns:rdf="http://www.w3.org/1999/02/22-rdf-syntax-ns#"
   xmlns:svg="http://www.w3.org/2000/svg"
   xmlns="http://www.w3.org/2000/svg"
   xmlns:xlink="http://www.w3.org/1999/xlink"
   xmlns:sodipodi="http://sodipodi.sourceforge.net/DTD/sodipodi-0.dtd"
   xmlns:inkscape="http://www.inkscape.org/namespaces/inkscape"
   id="svg11037"
   height="96"
   width="96"
   version="1.1"
   inkscape:version="0.48.5 r10040"
   sodipodi:docname="truecrypt.svg">
  <sodipodi:namedview
     pagecolor="#ffffff"
     bordercolor="#666666"
     borderopacity="1"
     objecttolerance="10"
     gridtolerance="10"
     guidetolerance="10"
     inkscape:pageopacity="0"
     inkscape:pageshadow="2"
     inkscape:window-width="640"
     inkscape:window-height="480"
     id="namedview67552" />
  <defs
     id="defs11039">
    <linearGradient
       id="linearGradient11642"
       y2="1046.1"
       gradientUnits="userSpaceOnUse"
       y1="962.62"
       gradientTransform="matrix(1.15 0 0 1.15 -7.1999 -150.65)"
       x2="48"
       x1="48">
      <stop
         id="stop3702"
         style="stop-color:#013289"
         offset="0" />
      <stop
         id="stop3704"
         style="stop-color:#1044a3"
         offset="1" />
    </linearGradient>
    <radialGradient
       id="radialGradient5487"
       xlink:href="#linearGradient3663-8"
       gradientUnits="userSpaceOnUse"
       cy="20"
       cx="20"
       r="4" />
    <linearGradient
       id="linearGradient3663-8">
      <stop
         id="stop3665-4"
         style="stop-color:#98bbff"
         offset="0" />
      <stop
         id="stop3671-1"
         style="stop-color:#4589ff"
         offset="0.3" />
      <stop
         id="stop3673-5"
         style="stop-color:#0b56ca"
         offset="0.6" />
      <stop
         id="stop6609"
         style="stop-color:#0f54bf"
         offset="0.65" />
      <stop
         id="stop6611"
         style="stop-color:#1050b2;stop-opacity:.73643"
         offset="0.68" />
      <stop
         id="stop6613"
         style="stop-color:#1560d4;stop-opacity:.36863"
         offset="0.8" />
      <stop
         id="stop3667-9"
         style="stop-color:#165ecf;stop-opacity:0"
         offset="1" />
    </linearGradient>
    <radialGradient
       id="radialGradient4522-7"
       xlink:href="#linearGradient6591"
       gradientUnits="userSpaceOnUse"
       cy="20"
       cx="20"
       r="4" />
    <linearGradient
       id="linearGradient6591">
      <stop
         id="stop6593"
         style="stop-color:#fff"
         offset="0" />
      <stop
         id="stop6595"
         style="stop-color:#dfebff"
         offset="0.4" />
      <stop
         id="stop6597"
         style="stop-color:#71a6f7"
         offset="0.6" />
      <stop
         id="stop6599"
         style="stop-color:#5b96f1"
         offset="0.65" />
      <stop
         id="stop6601"
         style="stop-color:#75a1ff;stop-opacity:.50980"
         offset="0.68" />
      <stop
         id="stop6607"
         style="stop-color:#fff;stop-opacity:.23256"
         offset="0.8" />
      <stop
         id="stop6603"
         style="stop-color:#fff;stop-opacity:0"
         offset="1" />
    </linearGradient>
    <clipPath
       id="clipPath3009"
       clipPathUnits="userSpaceOnUse">
      <path
         id="path3011"
         style="opacity:.15;fill:#fff"
         d="m-2 956.36h-96v33.562l96 25.687v-59.25z" />
    </clipPath>
  </defs>
  <metadata
     id="metadata11042">
    <rdf:RDF>
      <cc:Work
         rdf:about="">
        <dc:format>image/svg+xml</dc:format>
        <dc:type
           rdf:resource="http://purl.org/dc/dcmitype/StillImage" />
        <dc:title />
      </cc:Work>
    </rdf:RDF>
  </metadata>
  <g
     id="layer1"
     transform="translate(0 -956.36)">
    <rect
       id="rect3867"
       style="fill:url(#linearGradient11642)"
       rx="25"
       ry="25"
       height="92"
       width="92"
       y="958.36"
       x="2" />
    <g
       id="layer4"
       transform="translate(0 956.36)">
      <path
         id="path3661"
         style="color:#000000;fill:url(#radialGradient5487)"
         transform="matrix(1.5,0,0,1.5,-12,-12)"
         d="m24 20a4 4 0 1 1 -8 0 4 4 0 1 1 8 0z" />
      <path
         id="path6363"
         style="color:#000000;fill:url(#radialGradient5487)"
         transform="matrix(1.5,0,0,1.5,-2,-12)"
         d="m24 20a4 4 0 1 1 -8 0 4 4 0 1 1 8 0z" />
      <path
         id="path6375"
         style="color:#000000;fill:url(#radialGradient5487)"
         transform="matrix(1.5,0,0,1.5,38,-12)"
         d="m24 20a4 4 0 1 1 -8 0 4 4 0 1 1 8 0z" />
      <path
         id="path6377"
         style="color:#000000;fill:url(#radialGradient5487)"
         transform="matrix(1.5,0,0,1.5,48,-12)"
         d="m24 20a4 4 0 1 1 -8 0 4 4 0 1 1 8 0z" />
      <path
         id="path6383"
         style="color:#000000;fill:url(#radialGradient5487)"
         transform="matrix(1.5,0,0,1.5,-12,-2)"
         d="m24 20a4 4 0 1 1 -8 0 4 4 0 1 1 8 0z" />
      <path
         id="path6391"
         style="color:#000000;fill:url(#radialGradient5487)"
         transform="matrix(1.5,0,0,1.5,8,-2)"
         d="m24 20a4 4 0 1 1 -8 0 4 4 0 1 1 8 0z" />
      <path
         id="path6393"
         style="color:#000000;fill:url(#radialGradient5487)"
         transform="matrix(1.5,0,0,1.5,18,-2)"
         d="m24 20a4 4 0 1 1 -8 0 4 4 0 1 1 8 0z" />
      <path
         id="path6399"
         style="color:#000000;fill:url(#radialGradient5487)"
         transform="matrix(1.5,0,0,1.5,28,-2)"
         d="m24 20a4 4 0 1 1 -8 0 4 4 0 1 1 8 0z" />
      <path
         id="path6407"
         style="color:#000000;fill:url(#radialGradient5487)"
         transform="matrix(1.5,0,0,1.5,48,-2)"
         d="m24 20a4 4 0 1 1 -8 0 4 4 0 1 1 8 0z" />
      <path
         id="path6411"
         style="color:#000000;fill:url(#radialGradient5487)"
         transform="matrix(1.5,0,0,1.5,-12,8)"
         d="m24 20a4 4 0 1 1 -8 0 4 4 0 1 1 8 0z" />
      <path
         id="path6413"
         style="color:#000000;fill:url(#radialGradient5487)"
         transform="matrix(1.5,0,0,1.5,-2,8)"
         d="m24 20a4 4 0 1 1 -8 0 4 4 0 1 1 8 0z" />
      <path
         id="path6421"
         style="color:#000000;fill:url(#radialGradient5487)"
         transform="matrix(1.5,0,0,1.5,38,8)"
         d="m24 20a4 4 0 1 1 -8 0 4 4 0 1 1 8 0z" />
      <path
         id="path6423"
         style="color:#000000;fill:url(#radialGradient5487)"
         transform="matrix(1.5,0,0,1.5,48,8)"
         d="m24 20a4 4 0 1 1 -8 0 4 4 0 1 1 8 0z" />
      <path
         id="path6439"
         style="color:#000000;fill:url(#radialGradient5487)"
         transform="matrix(1.5,0,0,1.5,-12,18)"
         d="m24 20a4 4 0 1 1 -8 0 4 4 0 1 1 8 0z" />
      <path
         id="path6441"
         style="color:#000000;fill:url(#radialGradient5487)"
         transform="matrix(1.5,0,0,1.5,-2,18)"
         d="m24 20a4 4 0 1 1 -8 0 4 4 0 1 1 8 0z" />
      <path
         id="path6443"
         style="color:#000000;fill:url(#radialGradient5487)"
         transform="matrix(1.5,0,0,1.5,8,18)"
         d="m24 20a4 4 0 1 1 -8 0 4 4 0 1 1 8 0z" />
      <path
         id="path6447"
         style="color:#000000;fill:url(#radialGradient5487)"
         transform="matrix(1.5,0,0,1.5,28,18)"
         d="m24 20a4 4 0 1 1 -8 0 4 4 0 1 1 8 0z" />
      <path
         id="path6449"
         style="color:#000000;fill:url(#radialGradient5487)"
         transform="matrix(1.5,0,0,1.5,38,18)"
         d="m24 20a4 4 0 1 1 -8 0 4 4 0 1 1 8 0z" />
      <path
         id="path6451"
         style="color:#000000;fill:url(#radialGradient5487)"
         transform="matrix(1.5,0,0,1.5,48,18)"
         d="m24 20a4 4 0 1 1 -8 0 4 4 0 1 1 8 0z" />
      <path
         id="path6467"
         style="color:#000000;fill:url(#radialGradient5487)"
         transform="matrix(1.5,0,0,1.5,-12,28)"
         d="m24 20a4 4 0 1 1 -8 0 4 4 0 1 1 8 0z" />
      <path
         id="path6469"
         style="color:#000000;fill:url(#radialGradient5487)"
         transform="matrix(1.5,0,0,1.5,-2,28)"
         d="m24 20a4 4 0 1 1 -8 0 4 4 0 1 1 8 0z" />
      <path
         id="path6471"
         style="color:#000000;fill:url(#radialGradient5487)"
         transform="matrix(1.5,0,0,1.5,8,28)"
         d="m24 20a4 4 0 1 1 -8 0 4 4 0 1 1 8 0z" />
      <path
         id="path6475"
         style="color:#000000;fill:url(#radialGradient5487)"
         transform="matrix(1.5,0,0,1.5,28,28)"
         d="m24 20a4 4 0 1 1 -8 0 4 4 0 1 1 8 0z" />
      <path
         id="path6477"
         style="color:#000000;fill:url(#radialGradient5487)"
         transform="matrix(1.5,0,0,1.5,38,28)"
         d="m24 20a4 4 0 1 1 -8 0 4 4 0 1 1 8 0z" />
      <path
         id="path6479"
         style="color:#000000;fill:url(#radialGradient5487)"
         transform="matrix(1.5,0,0,1.5,48,28)"
         d="m24 20a4 4 0 1 1 -8 0 4 4 0 1 1 8 0z" />
      <path
         id="path6495"
         style="color:#000000;fill:url(#radialGradient5487)"
         transform="matrix(1.5,0,0,1.5,-12,38)"
         d="m24 20a4 4 0 1 1 -8 0 4 4 0 1 1 8 0z" />
      <path
         id="path6497"
         style="color:#000000;fill:url(#radialGradient5487)"
         transform="matrix(1.5,0,0,1.5,-2,38)"
         d="m24 20a4 4 0 1 1 -8 0 4 4 0 1 1 8 0z" />
      <path
         id="path6499"
         style="color:#000000;fill:url(#radialGradient5487)"
         transform="matrix(1.5,0,0,1.5,8,38)"
         d="m24 20a4 4 0 1 1 -8 0 4 4 0 1 1 8 0z" />
      <path
         id="path6503"
         style="color:#000000;fill:url(#radialGradient5487)"
         transform="matrix(1.5,0,0,1.5,28,38)"
         d="m24 20a4 4 0 1 1 -8 0 4 4 0 1 1 8 0z" />
      <path
         id="path6505"
         style="color:#000000;fill:url(#radialGradient5487)"
         transform="matrix(1.5,0,0,1.5,38,38)"
         d="m24 20a4 4 0 1 1 -8 0 4 4 0 1 1 8 0z" />
      <path
         id="path6507"
         style="color:#000000;fill:url(#radialGradient5487)"
         transform="matrix(1.5,0,0,1.5,48,38)"
         d="m24 20a4 4 0 1 1 -8 0 4 4 0 1 1 8 0z" />
      <path
         id="path6523"
         style="color:#000000;fill:url(#radialGradient5487)"
         transform="matrix(1.5,0,0,1.5,-12,48)"
         d="m24 20a4 4 0 1 1 -8 0 4 4 0 1 1 8 0z" />
      <path
         id="path6525"
         style="color:#000000;fill:url(#radialGradient5487)"
         transform="matrix(1.5,0,0,1.5,-2,48)"
         d="m24 20a4 4 0 1 1 -8 0 4 4 0 1 1 8 0z" />
      <path
         id="path6531"
         style="color:#000000;fill:url(#radialGradient5487)"
         transform="matrix(1.5,0,0,1.5,28,48)"
         d="m24 20a4 4 0 1 1 -8 0 4 4 0 1 1 8 0z" />
      <path
         id="path6533"
         style="color:#000000;fill:url(#radialGradient5487)"
         transform="matrix(1.5,0,0,1.5,38,48)"
         d="m24 20a4 4 0 1 1 -8 0 4 4 0 1 1 8 0z" />
      <path
         id="path6535"
         style="color:#000000;fill:url(#radialGradient5487)"
         transform="matrix(1.5,0,0,1.5,48,48)"
         d="m24 20a4 4 0 1 1 -8 0 4 4 0 1 1 8 0z" />
      <path
         id="path4078"
         style="color:#000000;fill:url(#radialGradient4522-7)"
         transform="matrix(1.5,0,0,1.5,8,-12)"
         d="m24 20a4 4 0 1 1 -8 0 4 4 0 1 1 8 0z" />
      <path
         id="path6367"
         style="color:#000000;fill:url(#radialGradient4522-7)"
         transform="matrix(1.5,0,0,1.5,18,-12)"
         d="m24 20a4 4 0 1 1 -8 0 4 4 0 1 1 8 0z" />
      <path
         id="path6371"
         style="color:#000000;fill:url(#radialGradient4522-7)"
         transform="matrix(1.5,0,0,1.5,28,-12)"
         d="m24 20a4 4 0 1 1 -8 0 4 4 0 1 1 8 0z" />
      <path
         id="path6551"
         style="color:#000000;fill:url(#radialGradient4522-7)"
         transform="matrix(1.5,0,0,1.5,8,8)"
         d="m24 20a4 4 0 1 1 -8 0 4 4 0 1 1 8 0z" />
      <path
         id="path6553"
         style="color:#000000;fill:url(#radialGradient4522-7)"
         transform="matrix(1.5,0,0,1.5,18,8)"
         d="m24 20a4 4 0 1 1 -8 0 4 4 0 1 1 8 0z" />
      <path
         id="path6555"
         style="color:#000000;fill:url(#radialGradient4522-7)"
         transform="matrix(1.5,0,0,1.5,28,8)"
         d="m24 20a4 4 0 1 1 -8 0 4 4 0 1 1 8 0z" />
      <path
         id="path6563"
         style="color:#000000;fill:url(#radialGradient4522-7)"
         transform="matrix(1.5,0,0,1.5,38,-2)"
         d="m24 20a4 4 0 1 1 -8 0 4 4 0 1 1 8 0z" />
      <path
         id="path6567"
         style="color:#000000;fill:url(#radialGradient4522-7)"
         transform="matrix(1.5,0,0,1.5,-2,-2)"
         d="m24 20a4 4 0 1 1 -8 0 4 4 0 1 1 8 0z" />
      <path
         id="path6571"
         style="color:#000000;fill:url(#radialGradient4522-7)"
         transform="matrix(1.5,0,0,1.5,18,18)"
         d="m24 20a4 4 0 1 1 -8 0 4 4 0 1 1 8 0z" />
      <path
         id="path6575"
         style="color:#000000;fill:url(#radialGradient4522-7)"
         transform="matrix(1.5,0,0,1.5,18,28)"
         d="m24 20a4 4 0 1 1 -8 0 4 4 0 1 1 8 0z" />
      <path
         id="path6579"
         style="color:#000000;fill:url(#radialGradient4522-7)"
         transform="matrix(1.5,0,0,1.5,18,38)"
         d="m24 20a4 4 0 1 1 -8 0 4 4 0 1 1 8 0z" />
      <path
         id="path6583"
         style="color:#000000;fill:url(#radialGradient4522-7)"
         transform="matrix(1.5,0,0,1.5,18,48)"
         d="m24 20a4 4 0 1 1 -8 0 4 4 0 1 1 8 0z" />
      <path
         id="path6587"
         style="color:#000000;fill:url(#radialGradient4522-7)"
         transform="matrix(1.5,0,0,1.5,8,48)"
         d="m24 20a4 4 0 1 1 -8 0 4 4 0 1 1 8 0z" />
    </g>
    <rect
       id="rect3003"
       style="opacity:.15;fill:#fff"
       transform="translate(98 3.8281e-7)"
       clip-path="url(#clipPath3009)"
       rx="25"
       ry="25"
       height="92"
       width="92"
       y="958.36"
       x="-96" />
  </g>
</svg>
