<svg height="96" width="96" xmlns="http://www.w3.org/2000/svg" xmlns:xlink="http://www.w3.org/1999/xlink" xmlns:sodipodi="http://sodipodi.sourceforge.net/DTD/sodipodi-0.dtd" xmlns:inkscape="http://www.inkscape.org/namespaces/inkscape">
 <defs>
  <clipPath clipPathUnits="userSpaceOnUse" id="clipPath3009">
   <path d="m-2 956.36h-96v33.562l96 25.687v-59.25z"/>
  </clipPath>
  <linearGradient x2="0" y1="90" y2="5.988" gradientUnits="userSpaceOnUse" id="linearGradient3416" gradientTransform="matrix(1 0 0 1 0 -95.97)">
   <stop stop-color="#e8e8e8"/>
   <stop stop-color="#a1a1a1" offset="1"/>
  </linearGradient>
  <linearGradient x2="0" y1="90" y2="5.988" gradientUnits="userSpaceOnUse" id="linearGradient5252" gradientTransform="matrix(1 0 0 -1 0 96)">
   <stop stop-color="#ee5151"/>
   <stop stop-color="#791515" offset="1"/>
  </linearGradient>
  <linearGradient x1="247.89" x2="232.94" y1="59.46" y2="21.19" gradientUnits="userSpaceOnUse" id="linearGradient5248" gradientTransform="matrix(1 0 0 1 -177.84 12.906)">
   <stop stop-color="#262a2c"/>
   <stop stop-color="#434b4e" offset="1"/>
  </linearGradient>
  <radialGradient cy="53.929" r="40.19" gradientUnits="userSpaceOnUse" id="radialGradient5244" cx="293.65" gradientTransform="matrix(-1.601 -0.03394 0.05165 -2.437 490.68 176.05)">
   <stop stop-color="#fff"/>
   <stop stop-color="#fff" stop-opacity="0" offset="1"/>
  </radialGradient>
  <linearGradient x1="249" x2="255.94" gradientUnits="userSpaceOnUse" id="linearGradient5145">
   <stop stop-color="#fff"/>
   <stop stop-color="#3c3c3c" offset="1"/>
  </linearGradient>
  <linearGradient x2="0" y1="67.05" y2="62.796" gradientUnits="userSpaceOnUse" id="linearGradient5147">
   <stop stop-color="#a8a8a8"/>
   <stop stop-color="#353535" offset="1"/>
  </linearGradient>
  <linearGradient x2="0" y1="11.375" y2="27.13" gradientUnits="userSpaceOnUse" id="linearGradient5173" gradientTransform="matrix(0.82748 0 0 0.82748 -142.49 15.665)">
   <stop stop-color="#babdb6"/>
   <stop stop-color="#b7bab3" offset="1"/>
  </linearGradient>
  <linearGradient x1="193.38" x2="194.53" gradientUnits="userSpaceOnUse" id="linearGradient5170" gradientTransform="matrix(0.82748 0 0 0.82748 -142.49 15.665)">
   <stop stop-color="#888a85"/>
   <stop stop-color="#383937" offset="1"/>
  </linearGradient>
  <clipPath clipPathUnits="userSpaceOnUse" id="clipPath3280">
   <rect x="7.667" rx="21.92" ry="21.883" y="7.719" height="80.53" width="80.67"/>
  </clipPath>
  <rect x="6" rx="6" y="-89.97" fill="url(#linearGradient3416)" height="84" id="SVGCleanerId_0" width="84"/>
  <path d="m55.1 19.053c1.4737 9.4824 11.225 19.658 17.562 6.7286 7.8406 17.349-2.872 23.077-2 34.25 0.5 4.5625 4.375 11.875 4.375 11.875s-4.3125 2.25-7.9375 0.9375c-24.885-9.1826-28.212 5.8002-39.5-0.0625 2.6041-15.191 4.6972-26.87-3.75-40.875 6.735 1.4169 13.771-5.1313 17.125-10.625z" id="SVGCleanerId_1"/>
  <path d="m255.94 65.688c0 1.9157-1.553 3.4688-3.4688 3.4688-1.9157 0-3.4688-1.553-3.4688-3.4688 0-1.9157 1.553-3.4688 3.4688-3.4688 1.9157 0 3.4688 1.553 3.4688 3.4688z" id="SVGCleanerId_2"/>
  <path d="m250.75 77.062c0 1.536-1.2452 2.7812-2.7812 2.7812s-2.7812-1.2452-2.7812-2.7812 1.2452-2.7812 2.7812-2.7812 2.7812 1.2452 2.7812 2.7812z" id="SVGCleanerId_3"/>
  <rect x="216.81" rx="2" y="16" ry="2.594" fill="#656861" height="5.188" id="SVGCleanerId_4" width="18.13"/>
  <rect x="216.81" rx="2" y="21.19" ry="2.594" fill="#656861" height="5.188" id="SVGCleanerId_5" width="18.13"/>
  <path d="m220.38 23.781c0 0.50051-0.40574 0.90625-0.90625 0.90625s-0.90625-0.40574-0.90625-0.90625 0.40574-0.90625 0.90625-0.90625 0.90625 0.40574 0.90625 0.90625z" fill="#eeeeec" id="SVGCleanerId_6" opacity="0.5"/>
 </defs>
 <g transform="matrix(1 0 0 1 0 -956.36)">
  <g clip-path="url(#clipPath3280)" transform="matrix(1.1405 0 0 1.1424 -6.744 949.54)">
   <use xlink:href="#SVGCleanerId_0" transform="matrix(1 0 0 -1 0 0)"/>
   <use xlink:href="#SVGCleanerId_0" transform="matrix(1 0 0 -1 0 0)"/>
   <path d="m19.438 6c-9.105 4.957-14.269 17.337-13.438 26.188 0.8309 8.8504 10.007 11.139 10.538 19.094-0.30046 5.4607-2.3409 8.7797-4.6213 14.252-2.1924 5.2605-4.6066 12.662-5.91 18.467 0 3.324 2.676 6 6 6h72c3.2618 0 5.9025-2.5752 6-5.8125l-0.0625-0.1875c-1.295-5.766-3.685-13.134-5.866-18.361-2.298-5.509-4.363-8.862-4.665-14.358 0.53-7.955 9.756-10.243 10.587-19.094 0.831-8.85-4.333-21.23-13.438-26.187l1.0625 4.9688c2.811 15.39-21.686 17.664-21.118-4.969h-17.094c0.569 22.633-23.847 20.359-21.037 4.969z" fill="url(#linearGradient5252)"/>
   <use xlink:href="#SVGCleanerId_1" stroke="#272727"/>
   <use xlink:href="#SVGCleanerId_1" fill="url(#linearGradient5248)"/>
   <path d="m41.381 8.125c0.46206 8.9229-7.3459 18.873-16.938 16.25-6.3526-0.92592-9.0953-9.0094-8.3125-13.438-6.8808 7.1527-12.322 20.66-4.1562 28.812 5.0408 4.3035 8.3686 11.158 5.4688 17.625-3.2778 9.0488-8.4191 18.185-9.2188 27.875 1.6935 4.0445 5.0084 2.62 14.781 2.75 20.896-0.26824 41.942 0.52466 62.75-0.375 4.838-3.015-0.178-9.25-0.628-13.354-1.973-9.051-10.176-17.613-6.715-27.207 3.201-6.344 11.556-10.749 9.531-19.032-0.623-6.476-3.738-12.935-8.344-17.312 2.3557 8.3195-6.4015 16.442-14.5 13.562-7.0042-1.9488-10.538-9.5029-10.562-16.281-4.3362 0.0825-9.031-0.1653-13.156 0.125z" fill="url(#radialGradient5244)" opacity="0.246"/>
   <path d="m55.1 19.063-14.125 2.2188c-3.3537 5.4937-10.39 12.042-17.125 10.625 8.4472 14.005 6.3541 25.684 3.75 40.875 1.4964 0.77724 2.8396 1.1944 4.125 1.3438 2.5482-14.863 4.4465-26.423-3.875-40.219 6.735 1.4169 13.771-5.1313 17.125-10.625l10.719-1.6875c-0.25486-0.83994-0.4623-1.6854-0.59375-2.5312z" fill="#babdb6" opacity="0.1"/>
   <path d="m39.381 6v16.594c0 0.554 0.44428 1 1 1h15.5c0.55572 0 1-0.446 1-1v-16.594h-17.5z" fill="#615139"/>
   <use xlink:href="#SVGCleanerId_2" fill="url(#linearGradient5145)" transform="matrix(0.8018 0 0 0.8018 -132.3 33.3)"/>
   <use xlink:href="#SVGCleanerId_2" fill="#bcbfb9" transform="matrix(0.49534 0 0 0.49534 -54.927 53.43)"/>
   <g fill="#2e3436" transform="matrix(1.0507 0 0 1.0507 -189.66 9.631)">
    <rect x="214.25" rx="2" ry="2.344" y="62.25" height="4.688" width="24.13"/>
    <use xlink:href="#SVGCleanerId_3" transform="matrix(0.92696 0 0 0.92696 7.236 -6.874)"/>
    <use xlink:href="#SVGCleanerId_3" transform="matrix(0.92696 0 0 0.92696 -14.327 -6.874)"/>
    <use xlink:href="#SVGCleanerId_3" transform="matrix(0.5586 0 0 0.5586 77.02 21.513)"/>
    <use xlink:href="#SVGCleanerId_3" transform="matrix(0.56125 0 0 0.56125 97.92 21.309)"/>
   </g>
   <path d="m215.19 61.969c-1.4238 0-2.5625 1.1699-2.5625 2.5938s1.1386 2.5625 2.5625 2.5625c0.35596 0 0.69156-0.05704 1-0.1875h19.562c0.30844 0.13046 0.64404 0.1875 1 0.1875 1.4238 0 2.5625-1.1386 2.5625-2.5625s-1.1386-2.5938-2.5625-2.5938c-0.40525 0-0.78382 0.11464-1.125 0.28125h-19.312c-0.34118-0.16661-0.71975-0.28125-1.125-0.28125z" fill="url(#linearGradient5147)" transform="matrix(1 0 0 1 -177.84 12.906)"/>
   <use xlink:href="#SVGCleanerId_3" fill="#363634" transform="matrix(0.5586 0 0 0.5586 -101.16 34.419)"/>
   <use xlink:href="#SVGCleanerId_3" fill="#363634" transform="matrix(0.56125 0 0 0.56125 -80.26 34.22)"/>
   <g transform="matrix(1 0 0 1 -177.84 12.906)">
    <use xlink:href="#SVGCleanerId_4" stroke="#2e3436"/>
    <use xlink:href="#SVGCleanerId_5" stroke="#2e3436"/>
    <use xlink:href="#SVGCleanerId_5"/>
    <use xlink:href="#SVGCleanerId_6" transform="matrix(1 0 0 1 -0.062 0)"/>
    <use xlink:href="#SVGCleanerId_6" transform="matrix(1 0 0 1 2.525 0)"/>
    <use xlink:href="#SVGCleanerId_6" transform="matrix(1 0 0 1 5.112 0)"/>
    <use xlink:href="#SVGCleanerId_6" transform="matrix(1 0 0 1 7.7 0)"/>
    <use xlink:href="#SVGCleanerId_6" transform="matrix(1 0 0 1 10.287 0)"/>
    <use xlink:href="#SVGCleanerId_6" transform="matrix(1 0 0 1 12.875 0)"/>
    <use xlink:href="#SVGCleanerId_4"/>
    <use xlink:href="#SVGCleanerId_6" transform="matrix(1 0 0 1 -0.062 -5.188)"/>
    <use xlink:href="#SVGCleanerId_6" transform="matrix(1 0 0 1 2.525 -5.188)"/>
    <use xlink:href="#SVGCleanerId_6" transform="matrix(1 0 0 1 5.112 -5.188)"/>
    <use xlink:href="#SVGCleanerId_6" transform="matrix(1 0 0 1 7.7 -5.188)"/>
    <use xlink:href="#SVGCleanerId_6" transform="matrix(1 0 0 1 10.287 -5.188)"/>
    <use xlink:href="#SVGCleanerId_6" transform="matrix(1 0 0 1 12.875 -5.188)"/>
   </g>
   <path d="m39.631 6v16.25c0 0.53985 0.4289 0.96875 0.96875 0.96875h15.062c0.53985 0 0.96875-0.4289 0.96875-0.96875v-16.25h-17z" fill="#382401"/>
   <rect x="39.06" rx="1.041" ry="0.619" y="17.248" fill="#d3d7cf" height="1.237" width="18.14"/>
   <rect x="39.06" rx="1.041" ry="0.619" y="9.94" fill="#d3d7cf" height="1.237" width="18.14"/>
   <g transform="matrix(1 0 0 1 -177.84 33.976)">
    <use xlink:href="#SVGCleanerId_4" stroke="#2e3436"/>
    <use xlink:href="#SVGCleanerId_5" stroke="#2e3436"/>
    <use xlink:href="#SVGCleanerId_5"/>
    <use xlink:href="#SVGCleanerId_6" transform="matrix(1 0 0 1 -0.062 0)"/>
    <use xlink:href="#SVGCleanerId_6" transform="matrix(1 0 0 1 2.525 0)"/>
    <use xlink:href="#SVGCleanerId_6" transform="matrix(1 0 0 1 5.112 0)"/>
    <use xlink:href="#SVGCleanerId_6" transform="matrix(1 0 0 1 7.7 0)"/>
    <use xlink:href="#SVGCleanerId_6" transform="matrix(1 0 0 1 10.287 0)"/>
    <use xlink:href="#SVGCleanerId_6" transform="matrix(1 0 0 1 12.875 0)"/>
    <use xlink:href="#SVGCleanerId_4"/>
    <use xlink:href="#SVGCleanerId_6" transform="matrix(1 0 0 1 -0.062 -5.188)"/>
    <use xlink:href="#SVGCleanerId_6" transform="matrix(1 0 0 1 2.525 -5.188)"/>
    <use xlink:href="#SVGCleanerId_6" transform="matrix(1 0 0 1 5.112 -5.188)"/>
    <use xlink:href="#SVGCleanerId_6" transform="matrix(1 0 0 1 7.7 -5.188)"/>
    <use xlink:href="#SVGCleanerId_6" transform="matrix(1 0 0 1 10.287 -5.188)"/>
    <use xlink:href="#SVGCleanerId_6" transform="matrix(1 0 0 1 12.875 -5.188)"/>
   </g>
   <g transform="matrix(1 0 0 0.63814 -177.84 36.21)">
    <rect x="219" y="-47.34" fill="#888a85" height="111.75" width="0.75"/>
    <rect x="221.31" y="-47.34" fill="#888a85" height="111.75" width="0.75"/>
    <rect x="224.03" y="-47.34" fill="#888a85" height="111.75" width="0.75"/>
    <rect x="226.75" y="-47.34" fill="#888a85" height="111.75" width="0.75"/>
    <rect x="229.47" y="-47.34" fill="#888a85" height="111.75" width="0.75"/>
    <rect x="232.19" y="-47.34" fill="#888a85" height="111.75" width="0.75"/>
   </g>
   <rect x="38.904" rx="1.041" ry="0.839" y="76.73" fill="#383a37" height="1.678" width="18.455"/>
   <path d="m16.131 10.938c-6.8808 7.1527-12.322 20.66-4.1562 28.812 5.0408 4.3035 8.3686 11.158 5.4688 17.625-3.2778 9.0488-8.4191 18.185-9.2188 27.875 1.2913 3.0839 3.5544 3.0056 8.875 2.8438-2.2016-0.17723-3.4466-0.85027-4.2812-2.8438 0.79963-9.6895 5.941-18.826 9.2188-27.875 2.8998-6.4671-0.42791-13.322-5.4688-17.625-6.3966-6.3865-4.4231-16.045 0.0312-23.375-0.56751-1.9468-0.73784-3.9153-0.46875-5.4375z" fill="#fff" opacity="0.306"/>
   <rect x="16.366" rx="1.127" ry="0.858" y="24.838" fill="#464944" height="13.512" opacity="0.7" width="2.844"/>
   <rect x="16.702" rx="0.861" ry="0.827" y="25.08" fill="url(#linearGradient5173)" height="13.03" width="2.172"/>
   <rect x="17.09" rx="0.554" ry="0.755" y="25.646" fill="url(#linearGradient5170)" height="11.895" opacity="0.83" width="1.396"/>
   <path d="m80.004 10.938c6.8808 7.1527 12.322 20.66 4.1562 28.812-5.0408 4.3035-8.3686 11.158-5.4688 17.625 3.2778 9.0488 8.4191 18.185 9.2188 27.875-1.2913 3.0839-3.5544 3.0056-8.875 2.8438 2.2016-0.17723 3.4466-0.85027 4.2812-2.8438-0.79963-9.6895-5.941-18.826-9.2188-27.875-2.8998-6.4671 0.42791-13.322 5.4688-17.625 6.3966-6.3865 4.4231-16.045-0.0312-23.375 0.56751-1.9468 0.73784-3.9153 0.46875-5.4375z" opacity="0.18"/>
   <use xlink:href="#SVGCleanerId_2" fill="url(#linearGradient5145)" transform="matrix(1 0 0 1 -177.97 11.966)"/>
   <use xlink:href="#SVGCleanerId_2" fill="#bcbfb9" transform="matrix(0.61778 0 0 0.61778 -81.47 37.07)"/>
   <use xlink:href="#SVGCleanerId_2" fill="url(#linearGradient5145)" transform="matrix(0.8018 0 0 0.8018 -121.67 31.24)"/>
   <use xlink:href="#SVGCleanerId_2" fill="#bcbfb9" transform="matrix(0.49534 0 0 0.49534 -44.3 51.37)"/>
   <use xlink:href="#SVGCleanerId_2" fill="url(#linearGradient5145)" transform="matrix(0.49534 0 0 0.49534 -107.27 0.074)"/>
   <use xlink:href="#SVGCleanerId_2" fill="#a1a59e" transform="matrix(0.30601 0 0 0.30601 -59.47 12.51)"/>
  </g>
  <rect x="-96" rx="25" y="958.36" clip-path="url(#clipPath3009)" fill="#fff" height="92" opacity="0.15" width="92" transform="matrix(1 0 0 1 98 0)"/>
 </g>
</svg>
