<svg height="96" width="96" xmlns="http://www.w3.org/2000/svg" xmlns:sodipodi="http://sodipodi.sourceforge.net/DTD/sodipodi-0.dtd" xmlns:inkscape="http://www.inkscape.org/namespaces/inkscape">
 <defs>
  <clipPath clipPathUnits="userSpaceOnUse" id="clipPath3371">
   <rect x="8" rx="10.769" y="-88" height="80" width="80" transform="matrix(0 1 -1 0 0 0)"/>
  </clipPath>
 </defs>
 <rect x="2" rx="25" y="2" clip-path="url(#clipPath3371)" fill="#e6e6e6" fill-opacity="1" height="92" width="92" transform="matrix(1 0 0 1 0 0)"/>
 <path d="M 55.468391,22.508663 C 50.636042,23.97524 45.985899,30.501322 47.444642,37.884214 31.4063,36.91837 24.32287,28.323873 20.064136,24.211434 c -4.341041,7.663312 0.110662,15.111639 3.999161,17.522994 -2.052122,0.112915 -4.534335,-0.774176 -5.766283,-1.54587 -0.468159,7.069812 5.292689,11.970731 10.193728,13.241362 -1.566717,0.467328 -3.043296,0.530233 -5.567325,0.154611 2.149372,7.110545 7.92397,9.013599 12.225483,9.326798 -5.53768,4.805477 -12.188127,5.853169 -19.418576,5.49972 18.748556,11.470506 37.681487,4.413467 46.896693,-4.588202 7.738149,-7.559193 11.197437,-18.878702 11.317101,-29.006151 1.771097,-1.439462 5.35234,-4.49035 6.325558,-6.878327 -1.412468,0.543381 -4.206675,1.836052 -7.122474,1.952221 2.401352,-1.573466 5.153261,-4.726665 5.441515,-7.191886 -2.658878,1.448138 -5.735795,2.702862 -8.371053,3.103067 -4.967922,-4.795836 -9.805453,-4.791618 -14.748912,-3.29142 z" fill="#34b8eb" fill-opacity="1" inkscape:connector-curvature="0"/>
</svg>
