<?xml version="1.0" encoding="UTF-8" standalone="no"?>
<!-- Created with Inkscape (http://www.inkscape.org/) -->

<svg
   xmlns:dc="http://purl.org/dc/elements/1.1/"
   xmlns:cc="http://creativecommons.org/ns#"
   xmlns:rdf="http://www.w3.org/1999/02/22-rdf-syntax-ns#"
   xmlns:svg="http://www.w3.org/2000/svg"
   xmlns="http://www.w3.org/2000/svg"
   xmlns:xlink="http://www.w3.org/1999/xlink"
   xmlns:sodipodi="http://sodipodi.sourceforge.net/DTD/sodipodi-0.dtd"
   xmlns:inkscape="http://www.inkscape.org/namespaces/inkscape"
   id="svg11037"
   height="96"
   width="96"
   version="1.1"
   inkscape:version="0.48.5 r10040"
   sodipodi:docname="ubuntuone.svg">
  <sodipodi:namedview
     pagecolor="#ffffff"
     bordercolor="#666666"
     borderopacity="1"
     objecttolerance="10"
     gridtolerance="10"
     guidetolerance="10"
     inkscape:pageopacity="0"
     inkscape:pageshadow="2"
     inkscape:window-width="640"
     inkscape:window-height="480"
     id="namedview67891" />
  <defs
     id="defs11039">
    <linearGradient
       id="linearGradient3196"
       y2="5.9877"
       xlink:href="#linearGradient3700"
       gradientUnits="userSpaceOnUse"
       x2="48"
       y1="90"
       x1="48" />
    <linearGradient
       id="linearGradient3700">
      <stop
         id="stop3702"
         style="stop-color:#da4714"
         offset="0" />
      <stop
         id="stop3704"
         style="stop-color:#ee743e"
         offset="1" />
    </linearGradient>
    <linearGradient
       id="linearGradient4218"
       y2="24.628"
       gradientUnits="userSpaceOnUse"
       x2="20.055"
       gradientTransform="matrix(1.8236 0 0 2.8764 4.1473 -10.571)"
       y1="15.298"
       x1="16.626">
      <stop
         id="stop2687-1-9-3-0-3"
         style="stop-color:#fff"
         offset="0" />
      <stop
         id="stop2689-5-4-9-8-5"
         style="stop-color:#fff;stop-opacity:0"
         offset="1" />
    </linearGradient>
    <linearGradient
       id="linearGradient3613"
       y2="138.66"
       gradientUnits="userSpaceOnUse"
       x2="48"
       y1="20.221"
       x1="48">
      <stop
         id="stop3739"
         style="stop-color:#fffac8"
         offset="0" />
      <stop
         id="stop3741"
         style="stop-color:#feff67;stop-opacity:0"
         offset="1" />
    </linearGradient>
    <clipPath
       id="clipPath3613">
      <rect
         id="rect3615"
         style="fill:#fff"
         rx="6"
         ry="6"
         height="84"
         width="84"
         y="6"
         x="6" />
    </clipPath>
    <filter
       id="filter3794"
       height="1.384"
       width="1.384"
       color-interpolation-filters="sRGB"
       y="-.192"
       x="-.192">
      <feGaussianBlur
         id="feGaussianBlur3796"
         stdDeviation="5.28" />
    </filter>
    <linearGradient
       id="linearGradient3842"
       y2="16"
       gradientUnits="userSpaceOnUse"
       x2="56"
       y1="80"
       x1="56">
      <stop
         id="stop5107-4"
         style="stop-color:#f5f5f5"
         offset="0" />
      <stop
         id="stop5109-4"
         style="stop-color:#ebebeb"
         offset="1" />
    </linearGradient>
    <clipPath
       id="clipPath3828"
       clipPathUnits="userSpaceOnUse">
      <rect
         id="rect3830"
         style="fill:url(#linearGradient3832)"
         rx="22.826"
         ry="22.826"
         height="84"
         width="84"
         y="6"
         x="6" />
    </clipPath>
    <linearGradient
       id="linearGradient3832"
       y2="1046.1"
       xlink:href="#linearGradient3700"
       gradientUnits="userSpaceOnUse"
       x2="48"
       gradientTransform="matrix(1.05 0 0 1.05 -2.4 -1006.6)"
       y1="962.62"
       x1="48" />
    <clipPath
       id="clipPath3009"
       clipPathUnits="userSpaceOnUse">
      <path
         id="path3011"
         style="opacity:.15;fill:#fff"
         d="m-2 956.36h-96v33.562l96 25.687v-59.25z" />
    </clipPath>
  </defs>
  <metadata
     id="metadata11042">
    <rdf:RDF>
      <cc:Work
         rdf:about="">
        <dc:format>image/svg+xml</dc:format>
        <dc:type
           rdf:resource="http://purl.org/dc/dcmitype/StillImage" />
        <dc:title />
      </cc:Work>
    </rdf:RDF>
  </metadata>
  <g
     id="layer1"
     transform="translate(0 -956.36)">
    <g
       id="g3045"
       clip-path="url(#clipPath3828)"
       transform="matrix(1.0952 0 0 1.0952 -4.5714 951.79)">
      <g
         id="layer1-1">
        <rect
           id="rect2419"
           style="fill:url(#linearGradient3196)"
           rx="6"
           ry="6"
           height="84"
           width="84"
           y="6"
           x="6" />
        <path
           id="path5237-7"
           d="m12 6c-3.3136 0-5.9834 2.6592-6 5.969-0.0001 0.01 0 0.021 0 0.031l0.0312 46.906c2.4166-0.053 82.135-19.53 83.969-20.468v-26.438c0-3.324-2.676-6-6-6h-72z"
           style="opacity:.2;fill-rule:evenodd;enable-background:new;fill:url(#linearGradient4218)" />
      </g>
      <g
         id="layer5">
        <rect
           id="rect3171"
           style="opacity:.1;filter:url(#filter3794);stroke:#fff;stroke-linecap:round;stroke-width:.5;fill:url(#linearGradient3613)"
           clip-path="url(#clipPath3613)"
           rx="12"
           ry="12"
           height="66"
           width="66"
           y="15"
           x="15" />
      </g>
      <path
         id="path3865"
         d="m24 20.04v18.96c0 15.766 0.55381 19.54 1.1704 22.122 2.3181 9.7087 8.5542 15.274 18.604 16.617 5.4401 0.72715 16.427-0.11879 25.068-1.9199l3.158-0.648v-55.131l-16-0.04v44h-16v-31h-6l8-13z"
         style="fill:url(#linearGradient3842)" />
      <path
         id="path3844"
         d="m42 20-18 0.03125v1l17.375-0.031 0.625-1zm14 0v1l16 0.03125v-1l-16-0.031zm-21.375 13-0.625 1h6v-1h-5.375zm5.375 31v1h16v-1h-16z"
         style="fill:#fff" />
    </g>
    <rect
       id="rect3003"
       style="opacity:.15;fill:#fff"
       transform="translate(98 3.8281e-7)"
       clip-path="url(#clipPath3009)"
       rx="25"
       ry="25"
       height="92"
       width="92"
       y="958.36"
       x="-96" />
  </g>
</svg>
