<svg height="96" width="96" xmlns="http://www.w3.org/2000/svg" xmlns:xlink="http://www.w3.org/1999/xlink" xmlns:sodipodi="http://sodipodi.sourceforge.net/DTD/sodipodi-0.dtd" xmlns:inkscape="http://www.inkscape.org/namespaces/inkscape">
 <defs>
  <linearGradient x2="0" y1="90" y2="5.988" gradientUnits="userSpaceOnUse" id="linearGradient3196">
   <stop stop-color="#da4714"/>
   <stop stop-color="#ee743e" offset="1"/>
  </linearGradient>
  <linearGradient x1="16.626" x2="20.05" y1="15.298" y2="24.628" gradientUnits="userSpaceOnUse" id="linearGradient4218" gradientTransform="matrix(1.8236 0 0 2.8764 4.147 -10.571)">
   <stop stop-color="#fff"/>
   <stop stop-color="#fff" stop-opacity="0" offset="1"/>
  </linearGradient>
  <linearGradient x2="0" y1="20.221" y2="138.66" gradientUnits="userSpaceOnUse" id="linearGradient3613">
   <stop stop-color="#fffac8"/>
   <stop stop-color="#feff67" stop-opacity="0" offset="1"/>
  </linearGradient>
  <clipPath id="clipPath3613">
   <use xlink:href="#SVGCleanerId_0"/>
  </clipPath>
  <filter x="-0.192" y="-0.192" height="1.384" color-interpolation-filters="sRGB" id="filter3794" width="1.384">
   <feGaussianBlur stdDeviation="5.28"/>
  </filter>
  <linearGradient x2="0" y1="80" y2="16" gradientUnits="userSpaceOnUse" id="linearGradient3842">
   <stop stop-color="#f5f5f5"/>
   <stop stop-color="#ebebeb" offset="1"/>
  </linearGradient>
  <clipPath clipPathUnits="userSpaceOnUse" id="clipPath3828">
   <rect x="6" rx="22.826" y="6" height="84" width="84"/>
  </clipPath>
  <clipPath clipPathUnits="userSpaceOnUse" id="clipPath3009">
   <path d="m-2 956.36h-96v33.562l96 25.687v-59.25z"/>
  </clipPath>
  <rect x="6" rx="6" y="6" height="84" id="SVGCleanerId_0" width="84"/>
 </defs>
 <g transform="matrix(1 0 0 1 0 -956.36)">
  <g clip-path="url(#clipPath3828)" transform="matrix(1.0952 0 0 1.0952 -4.571 951.79)">
   <use xlink:href="#SVGCleanerId_0" fill="url(#linearGradient3196)"/>
   <path d="m12 6c-3.3136 0-5.9834 2.6592-6 5.969-0.0001 0.01 0 0.021 0 0.031l0.0312 46.906c2.4166-0.053 82.135-19.53 83.969-20.468v-26.438c0-3.324-2.676-6-6-6h-72z" fill="url(#linearGradient4218)" fill-rule="evenodd" opacity="0.2"/>
   <rect x="15" stroke-width="0.5" rx="12" y="15" clip-path="url(#clipPath3613)" fill="url(#linearGradient3613)" stroke="#fff" height="66" filter="url(#filter3794)" opacity="0.1" width="66" stroke-linecap="round"/>
   <path d="m24 20.04v18.96c0 15.766 0.55381 19.54 1.1704 22.122 2.3181 9.7087 8.5542 15.274 18.604 16.617 5.4401 0.72715 16.427-0.11879 25.068-1.9199l3.158-0.648v-55.131l-16-0.04v44h-16v-31h-6l8-13z" fill="url(#linearGradient3842)"/>
   <path d="m42 20-18 0.03125v1l17.375-0.031 0.625-1zm14 0v1l16 0.03125v-1l-16-0.031zm-21.375 13-0.625 1h6v-1h-5.375zm5.375 31v1h16v-1h-16z" fill="#fff"/>
  </g>
  <rect x="-96" rx="25" y="958.36" clip-path="url(#clipPath3009)" fill="#fff" height="92" opacity="0.15" width="92" transform="matrix(1 0 0 1 98 0)"/>
 </g>
</svg>
