<?xml version="1.0" encoding="UTF-8" standalone="no"?>
<!-- Created with Inkscape (http://www.inkscape.org/) -->

<svg
   xmlns:dc="http://purl.org/dc/elements/1.1/"
   xmlns:cc="http://creativecommons.org/ns#"
   xmlns:rdf="http://www.w3.org/1999/02/22-rdf-syntax-ns#"
   xmlns:svg="http://www.w3.org/2000/svg"
   xmlns="http://www.w3.org/2000/svg"
   xmlns:sodipodi="http://sodipodi.sourceforge.net/DTD/sodipodi-0.dtd"
   xmlns:inkscape="http://www.inkscape.org/namespaces/inkscape"
   id="svg11037"
   height="96"
   width="96"
   version="1.1"
   inkscape:version="0.48.5 r10040"
   sodipodi:docname="ubuntu-tweak.svg">
  <sodipodi:namedview
     pagecolor="#ffffff"
     bordercolor="#666666"
     borderopacity="1"
     objecttolerance="10"
     gridtolerance="10"
     guidetolerance="10"
     inkscape:pageopacity="0"
     inkscape:pageshadow="2"
     inkscape:window-width="640"
     inkscape:window-height="480"
     id="namedview68060" />
  <defs
     id="defs11039">
    <linearGradient
       id="linearGradient3617"
       y2="5.9877"
       gradientUnits="userSpaceOnUse"
       x2="48"
       y1="90"
       x1="48">
      <stop
         id="stop3678"
         style="stop-color:#68d003"
         offset="0" />
      <stop
         id="stop3680"
         style="stop-color:#c0f988"
         offset="1" />
    </linearGradient>
    <linearGradient
       id="linearGradient3613"
       y2="138.66"
       gradientUnits="userSpaceOnUse"
       x2="48"
       y1="20.221"
       x1="48">
      <stop
         id="stop3739"
         style="stop-color:#fff"
         offset="0" />
      <stop
         id="stop3741"
         style="stop-color:#fff;stop-opacity:0"
         offset="1" />
    </linearGradient>
    <clipPath
       id="clipPath3613">
      <rect
         id="rect3615"
         style="fill:#fff"
         rx="6"
         ry="6"
         height="84"
         width="84"
         y="6"
         x="6" />
    </clipPath>
    <filter
       id="filter3794"
       height="1.384"
       width="1.384"
       color-interpolation-filters="sRGB"
       y="-.192"
       x="-.192">
      <feGaussianBlur
         id="feGaussianBlur3796"
         stdDeviation="5.28" />
    </filter>
    <linearGradient
       id="linearGradient3709"
       y2="48"
       gradientUnits="userSpaceOnUse"
       x2="83.25"
       gradientTransform="matrix(0,-1,1,0,0,96)"
       y1="48"
       x1="12.75">
      <stop
         id="stop3705"
         style="stop-color:#a8e66c"
         offset="0" />
      <stop
         id="stop3707"
         style="stop-color:#dbfabd"
         offset="1" />
    </linearGradient>
    <radialGradient
       id="radialGradient3773"
       gradientUnits="userSpaceOnUse"
       cy="48"
       cx="48"
       r="35.25">
      <stop
         id="stop3769"
         style="stop-color:#6bd107"
         offset="0" />
      <stop
         id="stop3771"
         style="stop-color:#6bd107;stop-opacity:0"
         offset="1" />
    </radialGradient>
    <clipPath
       id="clipPath3068"
       clipPathUnits="userSpaceOnUse">
      <rect
         id="rect3070"
         style="fill:url(#linearGradient3072)"
         rx="22.826"
         ry="22.826"
         height="84"
         width="84"
         y="6"
         x="6" />
    </clipPath>
    <linearGradient
       id="linearGradient3072"
       y2="1046.1"
       gradientUnits="userSpaceOnUse"
       x2="48"
       gradientTransform="matrix(1.05 0 0 1.05 -2.4 -1006.6)"
       y1="962.62"
       x1="48">
      <stop
         id="stop3797"
         style="stop-color:#13a6fd"
         offset="0" />
      <stop
         id="stop3799"
         style="stop-color:#2975b6"
         offset="1" />
    </linearGradient>
    <clipPath
       id="clipPath3009"
       clipPathUnits="userSpaceOnUse">
      <path
         id="path3011"
         style="opacity:.15;fill:#fff"
         d="m-2 956.36h-96v33.562l96 25.687v-59.25z" />
    </clipPath>
  </defs>
  <metadata
     id="metadata11042">
    <rdf:RDF>
      <cc:Work
         rdf:about="">
        <dc:format>image/svg+xml</dc:format>
        <dc:type
           rdf:resource="http://purl.org/dc/dcmitype/StillImage" />
        <dc:title />
      </cc:Work>
    </rdf:RDF>
  </metadata>
  <g
     id="layer1"
     transform="translate(0 -956.36)">
    <g
       id="g3064"
       clip-path="url(#clipPath3068)"
       transform="matrix(1.0952 0 0 1.0952 -4.5714 951.79)">
      <g
         id="g3041">
        <rect
           id="rect2419"
           style="fill:url(#linearGradient3617)"
           rx="6"
           ry="6"
           height="84"
           width="84"
           y="6"
           x="6" />
      </g>
      <g
         id="layer5">
        <rect
           id="rect3171"
           style="opacity:.1;filter:url(#filter3794);stroke:#fff;stroke-linecap:round;stroke-width:.5;fill:url(#linearGradient3613)"
           clip-path="url(#clipPath3613)"
           rx="12"
           ry="12"
           height="66"
           width="66"
           y="15"
           x="15" />
      </g>
      <g
         id="layer4">
        <path
           id="path3738"
           d="m40.625 13.75c-4.4789 0.9333-8.6446 2.7274-12.344 5.1562 0.10781 2.6954-0.85119 5.4137-2.9062 7.4688-2.0551 2.0551-4.7733 3.0141-7.4688 2.9062-2.429 3.699-4.223 7.865-5.156 12.344 1.998 1.828 3.25 4.453 3.25 7.375 0 2.9219-1.2518 5.5466-3.25 7.375 0.9333 4.4789 2.7274 8.6446 5.1562 12.344 2.6954-0.10781 5.4137 0.85119 7.4688 2.9062 2.0551 2.0551 3.0141 4.7733 2.9062 7.4688 3.699 2.429 7.865 4.223 12.344 5.156 1.828-1.998 4.453-3.25 7.375-3.25 2.9219 0 5.5466 1.2518 7.375 3.25 4.4644-0.93028 8.6222-2.7083 12.312-5.125-0.0063-0.14435 0-0.29318 0-0.4375 0-2.5592 0.98488-5.1099 2.9375-7.0625 2.0551-2.0551 4.7733-3.0141 7.4688-2.9062 2.43-3.699 4.224-7.865 5.157-12.344-1.998-1.828-3.25-4.453-3.25-7.375s1.252-5.547 3.25-7.375c-0.933-4.479-2.727-8.645-5.156-12.344-2.696 0.108-5.414-0.851-7.469-2.906-1.9526-1.9526-2.9375-4.5033-2.9375-7.0625 0-0.14432-0.0063-0.29315 0-0.4375-3.691-2.417-7.849-4.195-12.313-5.125-1.828 1.998-4.453 3.25-7.375 3.25s-5.547-1.252-7.375-3.25zm7.375 27.25c4.4183 0 8 3.5817 8 8s-3.5817 8-8 8-8-3.5817-8-8 3.5817-8 8-8z"
           style="opacity:.3;color:#000000" />
        <path
           id="path3683"
           d="m40.625 12.75c-4.4789 0.9333-8.6446 2.7274-12.344 5.1562 0.10781 2.6954-0.85119 5.4137-2.9062 7.4688-2.0551 2.0551-4.7733 3.0141-7.4688 2.9062-2.429 3.699-4.223 7.865-5.156 12.344 1.998 1.828 3.25 4.453 3.25 7.375 0 2.9219-1.2518 5.5466-3.25 7.375 0.9333 4.4789 2.7274 8.6446 5.1562 12.344 2.6954-0.10781 5.4137 0.85119 7.4688 2.9062 2.0551 2.0551 3.0141 4.7733 2.9062 7.4688 3.699 2.429 7.865 4.223 12.344 5.156 1.828-1.998 4.453-3.25 7.375-3.25 2.9219 0 5.5466 1.2518 7.375 3.25 4.4644-0.93028 8.6222-2.7083 12.312-5.125-0.0063-0.14435 0-0.29318 0-0.4375 0-2.5592 0.98488-5.1099 2.9375-7.0625 2.0551-2.0551 4.7733-3.0141 7.4688-2.9062 2.43-3.699 4.224-7.865 5.157-12.344-1.998-1.828-3.25-4.453-3.25-7.375s1.252-5.547 3.25-7.375c-0.933-4.479-2.727-8.645-5.156-12.344-2.696 0.108-5.414-0.851-7.469-2.906-1.9526-1.9526-2.9375-4.5033-2.9375-7.0625 0-0.14432-0.0063-0.29315 0-0.4375-3.691-2.417-7.849-4.195-12.313-5.125-1.828 1.998-4.453 3.25-7.375 3.25s-5.547-1.252-7.375-3.25zm7.375 27.25c4.4183 0 8 3.5817 8 8s-3.5817 8-8 8-8-3.5817-8-8 3.5817-8 8-8z"
           style="color:#000000;fill:url(#linearGradient3709)" />
        <path
           id="path3765"
           d="m40.625 12.75c-4.4789 0.9333-8.6446 2.7274-12.344 5.1562 0.10781 2.6954-0.85119 5.4137-2.9062 7.4688-2.0551 2.0551-4.7733 3.0141-7.4688 2.9062-2.429 3.699-4.223 7.865-5.156 12.344 1.998 1.828 3.25 4.453 3.25 7.375 0 2.9219-1.2518 5.5466-3.25 7.375 0.9333 4.4789 2.7274 8.6446 5.1562 12.344 2.6954-0.10781 5.4137 0.85119 7.4688 2.9062 2.0551 2.0551 3.0141 4.7733 2.9062 7.4688 3.699 2.429 7.865 4.223 12.344 5.156 1.828-1.998 4.453-3.25 7.375-3.25 2.9219 0 5.5466 1.2518 7.375 3.25 4.4644-0.93028 8.6222-2.7083 12.312-5.125-0.0063-0.14435 0-0.29318 0-0.4375 0-2.5592 0.98488-5.1099 2.9375-7.0625 2.0551-2.0551 4.7733-3.0141 7.4688-2.9062 2.43-3.699 4.224-7.865 5.157-12.344-1.998-1.828-3.25-4.453-3.25-7.375s1.252-5.547 3.25-7.375c-0.933-4.479-2.727-8.645-5.156-12.344-2.696 0.108-5.414-0.851-7.469-2.906-1.9526-1.9526-2.9375-4.5033-2.9375-7.0625 0-0.14432-0.0063-0.29315 0-0.4375-3.691-2.417-7.849-4.195-12.313-5.125-1.828 1.998-4.453 3.25-7.375 3.25s-5.547-1.252-7.375-3.25zm7.375 27.25c4.4183 0 8 3.5817 8 8s-3.5817 8-8 8-8-3.5817-8-8 3.5817-8 8-8z"
           style="color:#000000;fill:url(#radialGradient3773)" />
        <path
           id="path3324"
           d="m58.193 25.127c-2.6251 0-4.7507 2.1372-4.7507 4.7719s2.1256 4.7719 4.7507 4.7719 4.7507-2.1372 4.7507-4.7719-2.1256-4.7719-4.7507-4.7719zm-10.033 3.738c-2.9298 0.000382-5.9002 0.74311-8.5712 2.0689-0.09498 0.04732-0.15422 0.13131-0.18272 0.23359-0.02887 0.10228-0.023 0.21026 0.03323 0.30033l3.8537 6.1234c0.09764 0.15571 0.29603 0.22153 0.4651 0.15016 1.4263-0.60567 2.9064-0.90099 4.4019-0.90099 5.5009 0 10.3 4.0944 11.162 9.5271 0.02887 0.18243 0.18192 0.31702 0.36544 0.31702h7.2423c0.10562 0 0.21133-0.03817 0.28238-0.1168 0.07105-0.07862 0.10954-0.17755 0.09967-0.28365-0.39059-4.0309-2.1062-7.9337-4.8171-10.962-0.12234-0.13739-0.32708-0.15043-0.48172-0.05006-1.0931 0.7091-2.3333 1.0845-3.5879 1.0845-3.66 0-6.6273-2.9868-6.6277-6.6406 0.00038-0.0019 0-0.12737 0-0.13348 0-0.18204-0.13589-0.35246-0.3156-0.38376-1.1444-0.19922-2.2553-0.3337-3.3222-0.3337zm-11.628 4.0044c-0.05015 0.01236-0.10827 0.03449-0.1495 0.06673-3.1414 2.4303-5.4973 5.8482-6.6443 9.6273-0.04483 0.1477-0.0049 0.30427 0.11628 0.40044 1.5787 1.256 2.5248 3.1893 2.5248 5.1724 0 1.983-0.94578 3.9164-2.5248 5.1724-0.12044 0.0958-0.16111 0.25236-0.11628 0.40044 1.1379 3.7474 3.4752 7.1522 6.5779 9.5772 0.08321 0.06526 0.17828 0.10175 0.28238 0.08342 0.10373-0.01793 0.19255-0.09461 0.24916-0.18353l3.8869-6.1067c0.09916-0.15609 0.07224-0.36136-0.06645-0.48387-2.4351-2.1521-3.8371-5.2378-3.8371-8.4593 0-3.2455 1.4098-6.3398 3.8703-8.4927 0.13868-0.12175 0.18146-0.32701 0.08305-0.48387l-3.8537-6.1234c-0.05623-0.08931-0.14544-0.14853-0.24916-0.16685-0.05186-0.0092-0.09934-0.01236-0.1495 0zm-10.713 10.478c-2.6866 0-4.867 2.192-4.867 4.8887s2.1804 4.872 4.867 4.872 4.867-2.1754 4.867-4.872c0-2.6967-2.1804-4.8887-4.867-4.8887zm41.112 6.3069-7.2423 0.01669c-0.18275 0.000382-0.35279 0.13612-0.38205 0.31702-0.87426 5.3923-5.6602 9.4604-11.146 9.4604-1.5129 0-3.0094-0.31381-4.4517-0.93436-0.1687-0.07213-0.36594-0.02108-0.4651 0.13348l-3.8869 6.1234c-0.05661 0.08969-0.06133 0.19767-0.03323 0.30033 0.0281 0.10228 0.08811 0.18627 0.18272 0.23359 2.6919 1.3537 5.6906 2.0689 8.6542 2.0689 1.0992 0 2.2468-0.11054 3.4052-0.31702 0.16262-0.02862 0.27962-0.15253 0.299-0.31702 0.38603-3.3489 3.2056-5.8731 6.5613-5.8731 1.0403 0 2.111 0.26374 3.073 0.76751 0.14628 0.07671 0.316 0.05195 0.43188-0.06674 3.0339-3.1077 4.9518-7.2051 5.3819-11.513 0.01064-0.10572-0.02824-0.20464-0.09966-0.28364-0.07144-0.079-0.17676-0.11718-0.28238-0.1168zm-8.5546 12.898c-2.6866 0-4.867 2.1726-4.867 4.8553 0 2.6828 2.1804 4.8553 4.867 4.8553s4.867-2.1726 4.867-4.8553c0-2.6828-2.1804-4.8553-4.867-4.8553z" />
        <path
           id="path3711"
           d="m40.625 12.75c-4.4789 0.9333-8.6446 2.7274-12.344 5.1562 0.10781 2.6954-0.85119 5.4137-2.9062 7.4688-2.0551 2.0551-4.7733 3.0141-7.4688 2.9062-2.429 3.699-4.223 7.865-5.156 12.344 1.998 1.828 3.25 4.453 3.25 7.375 0 2.9219-1.2518 5.5466-3.25 7.375 0.9333 4.4789 2.7274 8.6446 5.1562 12.344 2.6954-0.10781 5.4137 0.85119 7.4688 2.9062 2.0551 2.0551 3.0141 4.7733 2.9062 7.4688 3.699 2.429 7.865 4.223 12.344 5.156 1.828-1.998 4.453-3.25 7.375-3.25 2.9219 0 5.5466 1.2518 7.375 3.25 4.4644-0.93028 8.6222-2.7083 12.312-5.125-0.0063-0.14435 0-0.29318 0-0.4375 0-2.5592 0.98488-5.1099 2.9375-7.0625 2.0551-2.0551 4.7733-3.0141 7.4688-2.9062 2.43-3.699 4.224-7.865 5.157-12.344-1.998-1.828-3.25-4.453-3.25-7.375s1.252-5.547 3.25-7.375c-0.933-4.479-2.727-8.645-5.156-12.344-2.696 0.108-5.414-0.851-7.469-2.906-1.9526-1.9526-2.9375-4.5033-2.9375-7.0625 0-0.14432-0.0063-0.29315 0-0.4375-3.691-2.417-7.849-4.195-12.313-5.125-1.828 1.998-4.453 3.25-7.375 3.25s-5.547-1.252-7.375-3.25zm-0.15625 1.1562c1.9784 1.8771 4.5935 3.125 7.5312 3.125s5.5528-1.2479 7.5312-3.125c4.0206 0.88744 7.7821 2.4801 11.156 4.625 0.05544 2.7515 1.0945 5.5008 3.1875 7.5938 2.0783 2.0783 4.805 2.9928 7.5312 3.0625 2.1837 3.405 3.7897 7.2154 4.6875 11.281-1.8771 1.9784-3.125 4.5935-3.125 7.5312s1.2479 5.5528 3.125 7.5312c-0.89781 4.0658-2.5038 7.8763-4.6875 11.281-2.7263 0.06969-5.4529 0.98416-7.5312 3.0625-2.093 2.093-3.1321 4.8423-3.1875 7.5938-3.3742 2.1449-7.1356 3.7376-11.156 4.625-1.9784-1.8771-4.5935-3.125-7.5312-3.125s-5.5528 1.2479-7.5312 3.125c-4.0658-0.89781-7.8763-2.5038-11.281-4.6875-0.06969-2.7263-0.98416-5.4529-3.0625-7.5312s-4.805-2.9928-7.5312-3.0625c-2.1837-3.405-3.7897-7.2154-4.6875-11.281 1.8771-1.9784 3.125-4.5935 3.125-7.5312s-1.2479-5.5528-3.125-7.5312c0.89781-4.0658 2.5038-7.8763 4.6875-11.281 2.7263-0.06969 5.4529-0.98416 7.5312-3.0625s2.9928-4.805 3.0625-7.5312c3.405-2.1837 7.2154-3.7897 11.281-4.6875zm7.531 25.094c-4.9706 0-9 4.0294-9 9s4.0294 9 9 9 9-4.0294 9-9-4.0294-9-9-9zm0 1c4.4183 0 8 3.5817 8 8s-3.5817 8-8 8-8-3.5817-8-8 3.5817-8 8-8z"
           style="opacity:.4;color:#000000;fill:#fff" />
        <path
           id="rect3756"
           d="m12 6c-3.324 0-6 2.676-6 6v72c0 3.324 2.676 6 6 6h17.625l11.25-84h-28.875z"
           style="opacity:.2;fill:#fff" />
      </g>
    </g>
    <rect
       id="rect3003"
       style="opacity:.15;fill:#fff"
       transform="translate(98 3.8281e-7)"
       clip-path="url(#clipPath3009)"
       rx="25"
       ry="25"
       height="92"
       width="92"
       y="958.36"
       x="-96" />
  </g>
</svg>
