<?xml version="1.0" encoding="UTF-8" standalone="no"?>
<!-- Created with Inkscape (http://www.inkscape.org/) -->

<svg
   xmlns:dc="http://purl.org/dc/elements/1.1/"
   xmlns:cc="http://creativecommons.org/ns#"
   xmlns:rdf="http://www.w3.org/1999/02/22-rdf-syntax-ns#"
   xmlns:svg="http://www.w3.org/2000/svg"
   xmlns="http://www.w3.org/2000/svg"
   xmlns:sodipodi="http://sodipodi.sourceforge.net/DTD/sodipodi-0.dtd"
   xmlns:inkscape="http://www.inkscape.org/namespaces/inkscape"
   id="svg11037"
   height="96"
   width="96"
   version="1.1"
   inkscape:version="0.48.5 r10040"
   sodipodi:docname="uck.svg">
  <sodipodi:namedview
     pagecolor="#ffffff"
     bordercolor="#666666"
     borderopacity="1"
     objecttolerance="10"
     gridtolerance="10"
     guidetolerance="10"
     inkscape:pageopacity="0"
     inkscape:pageshadow="2"
     inkscape:window-width="640"
     inkscape:window-height="480"
     id="namedview68118" />
  <defs
     id="defs11039">
    <clipPath
       id="clipPath3009"
       clipPathUnits="userSpaceOnUse">
      <path
         id="path3011"
         style="opacity:.15;fill:#fff"
         d="m-2 956.36h-96v33.562l96 25.687v-59.25z" />
    </clipPath>
    <linearGradient
       id="linearGradient3199"
       y2="4.788"
       gradientUnits="userSpaceOnUse"
       y1="89.669"
       gradientTransform="matrix(1.1429 0 0 1.1429 -6.8571 949.51)"
       x2="47.921"
       x1="47.921">
      <stop
         id="stop4580"
         style="stop-color:#a0a0a0;stop-opacity:.54118"
         offset="0" />
      <stop
         id="stop4582"
         style="stop-color:#a0a0a0;stop-opacity:.34510"
         offset="1" />
    </linearGradient>
    <clipPath
       id="clipPath3018"
       clipPathUnits="userSpaceOnUse">
      <rect
         id="rect3020"
         style="opacity:.6;fill:#fff"
         rx="25"
         ry="25"
         height="92"
         width="92"
         y="958.36"
         x="2" />
    </clipPath>
    <radialGradient
       id="radialGradient4646"
       gradientUnits="userSpaceOnUse"
       cy="47.765"
       cx="46.467"
       r="35.86">
      <stop
         id="stop4642"
         style="stop-opacity:0"
         offset="0" />
      <stop
         id="stop4648"
         style="stop-opacity:0"
         offset="0.93" />
      <stop
         id="stop4644"
         offset="1" />
    </radialGradient>
    <clipPath
       id="clipPath3721">
      <path
         id="path3723"
         style="fill:#f00"
         transform="matrix(1.3435 0 0 1.3435 -16.125 74.167)"
         d="m76.014 47.513a28.284 28.284 0 1 1 -56.569 0 28.284 28.284 0 1 1 56.569 0z" />
    </clipPath>
    <filter
       id="filter3751"
       color-interpolation-filters="sRGB">
      <feGaussianBlur
         id="feGaussianBlur3753"
         stdDeviation="1.44" />
    </filter>
    <radialGradient
       id="radialGradient4755"
       gradientUnits="userSpaceOnUse"
       cy="47.295"
       cx="42.865"
       gradientTransform="matrix(3.0929 0 0 3.0927 148.31 121.82)"
       r="36">
      <stop
         id="stop3940"
         style="stop-color:#fff;stop-opacity:0"
         offset="0" />
      <stop
         id="stop3915"
         style="stop-color:#fff;stop-opacity:0.276"
         offset=".32766" />
      <stop
         id="stop3942"
         style="stop-color:#fff;stop-opacity:0.928"
         offset="1" />
    </radialGradient>
    <linearGradient
       id="linearGradient4088"
       y2="61.922"
       gradientUnits="userSpaceOnUse"
       x2="94.568"
       gradientTransform="matrix(0 .16827 -.20214 0 60.517 37.922)"
       y1="61.922"
       x1="25.22">
      <stop
         id="stop3364"
         style="stop-color:#4d4d4d"
         offset="0" />
      <stop
         id="stop3366"
         style="stop-color:#fff"
         offset="1" />
    </linearGradient>
    <radialGradient
       id="radialGradient4083"
       gradientUnits="userSpaceOnUse"
       cy="61.922"
       cx="59.894"
       gradientTransform="matrix(0 .29065 -.29243 0 66.108 30.592)"
       r="33.714">
      <stop
         id="stop3344"
         style="stop-opacity:0"
         offset="0" />
      <stop
         id="stop3350"
         style="stop-opacity:0"
         offset="0.85" />
      <stop
         id="stop3346"
         offset="1" />
    </radialGradient>
    <linearGradient
       id="linearGradient4085"
       y2="61.922"
       gradientUnits="userSpaceOnUse"
       x2="93.608"
       gradientTransform="matrix(0 .29065 -.34916 0 69.621 30.592)"
       y1="61.922"
       x1="26.18">
      <stop
         id="stop3332"
         style="stop-color:#fff;stop-opacity:.20312"
         offset="0" />
      <stop
         id="stop3334"
         style="stop-color:#fff;stop-opacity:.67969"
         offset="1" />
    </linearGradient>
  </defs>
  <metadata
     id="metadata11042">
    <rdf:RDF>
      <cc:Work
         rdf:about="">
        <dc:format>image/svg+xml</dc:format>
        <dc:type
           rdf:resource="http://purl.org/dc/dcmitype/StillImage" />
        <dc:title />
      </cc:Work>
    </rdf:RDF>
  </metadata>
  <g
     id="layer1"
     transform="translate(0 -956.36)">
    <rect
       id="rect4576"
       style="fill:url(#linearGradient3199)"
       clip-path="url(#clipPath3018)"
       rx="6.8571"
       ry="6.8571"
       height="96"
       width="96"
       y="956.36"
       x="0" />
    <g
       id="g3201"
       transform="translate(-1.2305e-7 956.36)">
      <g
         id="layer7">
        <path
           id="path4630"
           d="m82.327 47.765a35.86 35.86 0 1 1 -71.721 0 35.86 35.86 0 1 1 71.721 0z"
           style="opacity:.4;fill:url(#radialGradient4646)"
           transform="matrix(1.0597 0 0 1.0597 -1.2394 -2.6151)" />
        <path
           id="path3724"
           style="opacity:.8;filter:url(#filter3751)"
           d="m48 102c-19.882 0-36 16.118-36 36s16.118 36 36 36 36-16.118 36-36-16.118-36-36-36zm0 24c6.6274 0 12 5.3726 12 12s-5.3726 12-12 12-12-5.3726-12-12 5.3726-12 12-12z"
           clip-path="url(#clipPath3721)"
           transform="translate(0,-90)" />
      </g>
      <g
         id="g4731"
         transform="translate(-235.41 -220.67)">
        <g
           id="g4733">
          <path
             id="path4735"
             style="fill:#f57900"
             d="m301.39 299.87a36 36 0 0 0 13.123 -49.146l-20.73 11.969a12 12 0 0 1 -4.3923 16.392l12 20.785z" />
          <path
             id="path4737"
             d="m301.4 237.51a36 36 0 0 0 -49.123 13.208 36 36 0 0 0 13.123 49.146l12-20.785a12 12 0 0 1 -4.3923 -16.392 12 12 0 0 1 16.392 -4.3923l12-20.785z"
             style="fill:#e9b913" />
          <path
             id="path4739"
             style="fill:#a40000"
             d="m247.4 268.69a36 36 0 0 0 36 35.938v-23.938a12 12 0 0 1 -12 -12h-24z" />
          <path
             id="path4741"
             style="fill:#a40000"
             d="m247.42 268.69a36 36 0 0 0 36 35.937 36 36 0 0 0 36 -35.937h-24a12 12 0 0 1 -12 12 12 12 0 0 1 -12 -12h-24z" />
          <path
             id="path4743"
             style="fill:#f57900"
             d="m301.42 299.92a36 36 0 0 0 13.123 -49.146 36 36 0 0 0 -49.123 -13.208l12 20.785a12 12 0 0 1 16.392 4.3923 12 12 0 0 1 -4.3923 16.392l12 20.785z" />
          <path
             id="path4745"
             style="fill:#a40000"
             d="m295.4 268.69a12 12 0 0 1 -12 12v23.938a36 36 0 0 0 36 -35.938h-8.4688c1.1522 1.017 1.875 2.4986 1.875 4.1562 0 3.0651-2.4661 5.5312-5.5312 5.5312s-5.5625-2.4661-5.5625-5.5312c0-1.6521 0.72942-3.1396 1.875-4.1562h-8.1875z" />
          <path
             id="path4747"
             style="fill:#e9b913"
             d="m301.4 237.51a36 36 0 0 0 -49.123 13.208l20.73 11.969a12 12 0 0 1 16.392 -4.3923l12-20.785z" />
          <path
             id="path4749"
             style="fill:#f57900"
             d="m277.39 258.3a12 12 0 0 1 16.392 4.3923l20.73-11.969a36 36 0 0 0 -49.123 -13.208l4.2344 7.3342c0.3046-1.5063 1.2264-2.8731 2.6619-3.7019 2.6545-1.5326 6.0233-0.62992 7.5558 2.0246 1.5326 2.6545 0.64554 6.0503-2.009 7.5829-1.4308 0.82607-3.0836 0.93808-4.5369 0.45432l4.0938 7.0906z" />
          <path
             id="path4751"
             style="fill:#e9b913"
             d="m277.4 279.08a12 12 0 0 1 -4.3923 -16.392l-20.73-11.969a36 36 0 0 0 13.123 49.146l4.2344-7.3342c-1.4568 0.48938-3.1014 0.37449-4.5369-0.45433-2.6545-1.5326-3.5571-4.9013-2.0246-7.5558 1.5326-2.6545 4.917-3.5842 7.5714-2.0516 1.4308 0.82607 2.3542 2.2015 2.6619 3.7019l4.0938-7.0906z" />
        </g>
        <path
           id="path4753"
           style="fill:url(#radialGradient4755)"
           d="m284.44 232.69a36 36 0 0 0 -37.031 36 36 36 0 0 0 72 0 36 36 0 0 0 -34.969 -36zm-0.6875 24a12 12 0 0 1 11.656 12 12 12 0 0 1 -24 0 12 12 0 0 1 12.344 -12z" />
      </g>
      <path
         id="path3992"
         style="opacity:.3;fill:#fff"
         d="m48 36c-6.6274 0-12 5.3726-12 12s5.3726 12 12 12 12-5.3726 12-12-5.3726-12-12-12zm0 7c2.7614 0 5 2.2386 5 5s-2.2386 5-5 5-5-2.2386-5-5 2.2386-5 5-5z" />
      <path
         id="path4002"
         style="opacity:.6;stroke:url(#linearGradient4088);stroke-linecap:round;fill:none"
         d="m48 53.5a5.5 5.5 0 1 1 0 -11 5.5 5.5 0 1 1 0 11z" />
      <path
         id="path4010"
         style="opacity:.5;fill-rule:evenodd;stroke:url(#linearGradient4085);stroke-linecap:round;fill:url(#radialGradient4083)"
         d="m48 57.5a9.5 9.4999 0 1 1 0 -19 9.5 9.4999 0 1 1 0 19z" />
      <path
         id="path3986"
         style="opacity:.2"
         d="m48 33.5c-8.0081 0-14.5 6.4919-14.5 14.5s6.4919 14.5 14.5 14.5 14.5-6.4919 14.5-14.5-6.4919-14.5-14.5-14.5zm0 2.5c6.6274 0 12 5.3726 12 12s-5.3726 12-12 12-12-5.3726-12-12 5.3726-12 12-12z" />
      <path
         id="path4199"
         style="opacity:.4;fill:#fff"
         d="m48 12c-19.882 0-36 16.118-36 36 0 0.33707 0.022 0.66516 0.0312 1 0.534-19.416 16.424-35 35.969-35s35.435 15.584 35.969 35c0.009-0.335 0.031-0.663 0.031-1 0-19.882-16.118-36-36-36z" />
    </g>
    <rect
       id="rect3003"
       style="opacity:.15;fill:#fff"
       transform="translate(98)"
       clip-path="url(#clipPath3009)"
       rx="25"
       ry="25"
       height="92"
       width="92"
       y="958.36"
       x="-96" />
  </g>
</svg>
