<svg height="96" width="96" xmlns="http://www.w3.org/2000/svg" xmlns:sodipodi="http://sodipodi.sourceforge.net/DTD/sodipodi-0.dtd" xmlns:inkscape="http://www.inkscape.org/namespaces/inkscape">
 <defs>
  <clipPath clipPathUnits="userSpaceOnUse" id="clipPath3009">
   <path d="m-2 956.36h-96v33.562l96 25.687v-59.25z"/>
  </clipPath>
  <linearGradient x2="0" y1="89.67" y2="4.788" gradientUnits="userSpaceOnUse" id="linearGradient3199" gradientTransform="matrix(1.1429 0 0 1.1429 -6.857 949.51)">
   <stop stop-color="#a0a0a0" stop-opacity="0.541"/>
   <stop stop-color="#a0a0a0" stop-opacity="0.345" offset="1"/>
  </linearGradient>
  <clipPath clipPathUnits="userSpaceOnUse" id="clipPath3018">
   <rect x="2" rx="25" y="958.36" height="92" width="92"/>
  </clipPath>
  <radialGradient cy="47.765" r="35.86" gradientUnits="userSpaceOnUse" id="radialGradient4646" cx="46.47">
   <stop stop-opacity="0"/>
   <stop stop-opacity="0" offset="0.93"/>
   <stop offset="1"/>
  </radialGradient>
  <clipPath id="clipPath3721">
   <path d="m76.014 47.513a28.284 28.284 0 1 1 -56.569 0 28.284 28.284 0 1 1 56.569 0z" transform="matrix(1.3435 0 0 1.3435 -16.12 74.17)"/>
  </clipPath>
  <filter color-interpolation-filters="sRGB" id="filter3751">
   <feGaussianBlur stdDeviation="1.44"/>
  </filter>
  <radialGradient cy="47.3" r="36" gradientUnits="userSpaceOnUse" id="radialGradient4755" cx="42.865" gradientTransform="matrix(3.0929 0 0 3.0927 148.31 121.82)">
   <stop stop-color="#fff" stop-opacity="0"/>
   <stop stop-color="#fff" stop-opacity="0.276" offset="0.328"/>
   <stop stop-color="#fff" stop-opacity="0.928" offset="1"/>
  </radialGradient>
  <linearGradient x1="25.22" x2="94.57" gradientUnits="userSpaceOnUse" id="linearGradient4088" gradientTransform="matrix(0 0.16827 -0.20214 0 60.52 37.922)">
   <stop stop-color="#4d4d4d"/>
   <stop stop-color="#fff" offset="1"/>
  </linearGradient>
  <radialGradient cy="61.922" r="33.714" gradientUnits="userSpaceOnUse" id="radialGradient4083" cx="59.894" gradientTransform="matrix(0 0.29065 -0.29243 0 66.11 30.592)">
   <stop stop-opacity="0"/>
   <stop stop-opacity="0" offset="0.85"/>
   <stop offset="1"/>
  </radialGradient>
  <linearGradient x1="26.18" x2="93.61" gradientUnits="userSpaceOnUse" id="linearGradient4085" gradientTransform="matrix(0 0.29065 -0.34916 0 69.62 30.592)">
   <stop stop-color="#fff" stop-opacity="0.203"/>
   <stop stop-color="#fff" stop-opacity="0.68" offset="1"/>
  </linearGradient>
 </defs>
 <g transform="matrix(1 0 0 1 0 -956.36)">
  <rect rx="6.857" y="956.36" clip-path="url(#clipPath3018)" fill="url(#linearGradient3199)" height="96" width="96"/>
  <g transform="matrix(1 0 0 1 0 956.36)">
   <path d="m82.327 47.765a35.86 35.86 0 1 1 -71.721 0 35.86 35.86 0 1 1 71.721 0z" fill="url(#radialGradient4646)" opacity="0.4" transform="matrix(1.0597 0 0 1.0597 -1.239 -2.615)"/>
   <path d="m48 102c-19.882 0-36 16.118-36 36s16.118 36 36 36 36-16.118 36-36-16.118-36-36-36zm0 24c6.6274 0 12 5.3726 12 12s-5.3726 12-12 12-12-5.3726-12-12 5.3726-12 12-12z" clip-path="url(#clipPath3721)" filter="url(#filter3751)" opacity="0.8" transform="matrix(1 0 0 1 0 -90)"/>
   <g transform="matrix(1 0 0 1 -235.41 -220.67)">
    <path d="m301.39 299.87a36 36 0 0 0 13.123 -49.146l-20.73 11.969a12 12 0 0 1 -4.3923 16.392l12 20.785z" fill="#f57900"/>
    <path d="m301.4 237.51a36 36 0 0 0 -49.123 13.208 36 36 0 0 0 13.123 49.146l12-20.785a12 12 0 0 1 -4.3923 -16.392 12 12 0 0 1 16.392 -4.3923l12-20.785z" fill="#e9b913"/>
    <path d="m247.4 268.69a36 36 0 0 0 36 35.938v-23.938a12 12 0 0 1 -12 -12h-24z" fill="#a40000"/>
    <path d="m247.42 268.69a36 36 0 0 0 36 35.937 36 36 0 0 0 36 -35.937h-24a12 12 0 0 1 -12 12 12 12 0 0 1 -12 -12h-24z" fill="#a40000"/>
    <path d="m301.42 299.92a36 36 0 0 0 13.123 -49.146 36 36 0 0 0 -49.123 -13.208l12 20.785a12 12 0 0 1 16.392 4.3923 12 12 0 0 1 -4.3923 16.392l12 20.785z" fill="#f57900"/>
    <path d="m295.4 268.69a12 12 0 0 1 -12 12v23.938a36 36 0 0 0 36 -35.938h-8.4688c1.1522 1.017 1.875 2.4986 1.875 4.1562 0 3.0651-2.4661 5.5312-5.5312 5.5312s-5.5625-2.4661-5.5625-5.5312c0-1.6521 0.72942-3.1396 1.875-4.1562h-8.1875z" fill="#a40000"/>
    <path d="m301.4 237.51a36 36 0 0 0 -49.123 13.208l20.73 11.969a12 12 0 0 1 16.392 -4.3923l12-20.785z" fill="#e9b913"/>
    <path d="m277.39 258.3a12 12 0 0 1 16.392 4.3923l20.73-11.969a36 36 0 0 0 -49.123 -13.208l4.2344 7.3342c0.3046-1.5063 1.2264-2.8731 2.6619-3.7019 2.6545-1.5326 6.0233-0.62992 7.5558 2.0246 1.5326 2.6545 0.64554 6.0503-2.009 7.5829-1.4308 0.82607-3.0836 0.93808-4.5369 0.45432l4.0938 7.0906z" fill="#f57900"/>
    <path d="m277.4 279.08a12 12 0 0 1 -4.3923 -16.392l-20.73-11.969a36 36 0 0 0 13.123 49.146l4.2344-7.3342c-1.4568 0.48938-3.1014 0.37449-4.5369-0.45433-2.6545-1.5326-3.5571-4.9013-2.0246-7.5558 1.5326-2.6545 4.917-3.5842 7.5714-2.0516 1.4308 0.82607 2.3542 2.2015 2.6619 3.7019l4.0938-7.0906z" fill="#e9b913"/>
    <path d="m284.44 232.69a36 36 0 0 0 -37.031 36 36 36 0 0 0 72 0 36 36 0 0 0 -34.969 -36zm-0.6875 24a12 12 0 0 1 11.656 12 12 12 0 0 1 -24 0 12 12 0 0 1 12.344 -12z" fill="url(#radialGradient4755)"/>
   </g>
   <path d="m48 36c-6.6274 0-12 5.3726-12 12s5.3726 12 12 12 12-5.3726 12-12-5.3726-12-12-12zm0 7c2.7614 0 5 2.2386 5 5s-2.2386 5-5 5-5-2.2386-5-5 2.2386-5 5-5z" fill="#fff" opacity="0.3"/>
   <path d="m48 53.5a5.5 5.5 0 1 1 0 -11 5.5 5.5 0 1 1 0 11z" fill="none" stroke="url(#linearGradient4088)" opacity="0.6" stroke-linecap="round"/>
   <path d="m48 57.5a9.5 9.4999 0 1 1 0 -19 9.5 9.4999 0 1 1 0 19z" fill="url(#radialGradient4083)" fill-rule="evenodd" stroke="url(#linearGradient4085)" opacity="0.5" stroke-linecap="round"/>
   <path d="m48 33.5c-8.0081 0-14.5 6.4919-14.5 14.5s6.4919 14.5 14.5 14.5 14.5-6.4919 14.5-14.5-6.4919-14.5-14.5-14.5zm0 2.5c6.6274 0 12 5.3726 12 12s-5.3726 12-12 12-12-5.3726-12-12 5.3726-12 12-12z" opacity="0.2"/>
   <path d="m48 12c-19.882 0-36 16.118-36 36 0 0.33707 0.022 0.66516 0.0312 1 0.534-19.416 16.424-35 35.969-35s35.435 15.584 35.969 35c0.009-0.335 0.031-0.663 0.031-1 0-19.882-16.118-36-36-36z" fill="#fff" opacity="0.4"/>
  </g>
  <rect x="-96" rx="25" y="958.36" clip-path="url(#clipPath3009)" fill="#fff" height="92" opacity="0.15" width="92" transform="matrix(1 0 0 1 98 0)"/>
 </g>
</svg>
