<svg height="96" width="96" xmlns="http://www.w3.org/2000/svg" xmlns:sodipodi="http://sodipodi.sourceforge.net/DTD/sodipodi-0.dtd" xmlns:inkscape="http://www.inkscape.org/namespaces/inkscape">
 <defs>
  <clipPath clipPathUnits="userSpaceOnUse" id="clipPath3009">
   <path d="m-2 956.36h-96v33.562l96 25.687v-59.25z"/>
  </clipPath>
  <linearGradient x2="0" y1="90" y2="5.988" gradientUnits="userSpaceOnUse" id="linearGradient3067" gradientTransform="matrix(1.1429 0 0 1.1429 -6.857 949.51)">
   <stop stop-color="#d52811"/>
   <stop stop-color="#f6e443" offset="1"/>
  </linearGradient>
  <clipPath clipPathUnits="userSpaceOnUse" id="clipPath3018">
   <rect x="2" rx="25" y="958.36" height="92" width="92"/>
  </clipPath>
 </defs>
 <g transform="matrix(1 0 0 1 0 -956.36)">
  <rect rx="6.857" y="956.36" clip-path="url(#clipPath3018)" fill="url(#linearGradient3067)" height="96" width="96"/>
  <path d="m29.267 972.21-10.082 12.586 1.5459 1.2631 2.4139-0.24301 3.7645 37.394c0.03698 0.3673-0.01379-0.3887 0.0232-0.021 1.2387 12.305 13.429 17.952 26.126 16.674 17.314-1.7431 24.986-8.5523 23.599-22.326l-3.6982-36.735 2.5456-0.25627 1.2631-1.5458-12.389-10.324-10.082 12.586 1.5459 1.2631 2.5456-0.25627 3.5227 36.753c1.2572 12.488-5.318 14.456-9.4533 14.873-4.1168 0.4144-9.8967 0.3396-11.219-12.792l-3.6982-36.735 2.8528-0.2872 1.2631-1.5458-12.389-10.324z" fill="#fff"/>
  <rect x="-96" rx="25" y="958.36" clip-path="url(#clipPath3009)" fill="#fff" height="92" opacity="0.15" width="92" transform="matrix(1 0 0 1 98 0)"/>
 </g>
</svg>
