<?xml version="1.0" encoding="UTF-8" standalone="no"?>
<!-- Created with Inkscape (http://www.inkscape.org/) -->

<svg
   xmlns:dc="http://purl.org/dc/elements/1.1/"
   xmlns:cc="http://creativecommons.org/ns#"
   xmlns:rdf="http://www.w3.org/1999/02/22-rdf-syntax-ns#"
   xmlns:svg="http://www.w3.org/2000/svg"
   xmlns="http://www.w3.org/2000/svg"
   xmlns:sodipodi="http://sodipodi.sourceforge.net/DTD/sodipodi-0.dtd"
   xmlns:inkscape="http://www.inkscape.org/namespaces/inkscape"
   id="svg11037"
   height="96"
   width="96"
   version="1.1"
   inkscape:version="0.48.5 r10040"
   sodipodi:docname="unison-gtk.svg">
  <sodipodi:namedview
     pagecolor="#ffffff"
     bordercolor="#666666"
     borderopacity="1"
     objecttolerance="10"
     gridtolerance="10"
     guidetolerance="10"
     inkscape:pageopacity="0"
     inkscape:pageshadow="2"
     inkscape:window-width="640"
     inkscape:window-height="480"
     id="namedview68468" />
  <defs
     id="defs11039">
    <clipPath
       id="clipPath3009"
       clipPathUnits="userSpaceOnUse">
      <path
         id="path3011"
         style="opacity:.15;fill:#fff"
         d="m-2 956.36h-96v33.562l96 25.687v-59.25z" />
    </clipPath>
    <linearGradient
       id="linearGradient3067"
       y2="5.9877"
       gradientUnits="userSpaceOnUse"
       y1="90"
       gradientTransform="matrix(1.1429 0 0 1.1429 -6.8571 949.51)"
       x2="48"
       x1="48">
      <stop
         id="stop3818"
         style="stop-color:#d52811"
         offset="0" />
      <stop
         id="stop3820"
         style="stop-color:#f6e443"
         offset="1" />
    </linearGradient>
    <clipPath
       id="clipPath3018"
       clipPathUnits="userSpaceOnUse">
      <rect
         id="rect3020"
         style="opacity:.6"
         rx="25"
         ry="25"
         height="92"
         width="92"
         y="958.36"
         x="2" />
    </clipPath>
  </defs>
  <metadata
     id="metadata11042">
    <rdf:RDF>
      <cc:Work
         rdf:about="">
        <dc:format>image/svg+xml</dc:format>
        <dc:type
           rdf:resource="http://purl.org/dc/dcmitype/StillImage" />
        <dc:title />
      </cc:Work>
    </rdf:RDF>
  </metadata>
  <g
     id="layer1"
     transform="translate(0 -956.36)">
    <rect
       id="rect2419"
       style="fill:url(#linearGradient3067)"
       clip-path="url(#clipPath3018)"
       rx="6.8571"
       ry="6.8571"
       height="96"
       width="96"
       y="956.36"
       x="0" />
    <path
       id="path3050"
       style="fill:#fff"
       d="m29.267 972.21-10.082 12.586 1.5459 1.2631 2.4139-0.24301 3.7645 37.394c0.03698 0.3673-0.01379-0.3887 0.0232-0.021 1.2387 12.305 13.429 17.952 26.126 16.674 17.314-1.7431 24.986-8.5523 23.599-22.326l-3.6982-36.735 2.5456-0.25627 1.2631-1.5458-12.389-10.324-10.082 12.586 1.5459 1.2631 2.5456-0.25627 3.5227 36.753c1.2572 12.488-5.318 14.456-9.4533 14.873-4.1168 0.4144-9.8967 0.3396-11.219-12.792l-3.6982-36.735 2.8528-0.2872 1.2631-1.5458-12.389-10.324z" />
    <rect
       id="rect3003"
       style="opacity:.15;fill:#fff"
       transform="translate(98)"
       clip-path="url(#clipPath3009)"
       rx="25"
       ry="25"
       height="92"
       width="92"
       y="958.36"
       x="-96" />
  </g>
</svg>
