<svg height="96" width="96" xmlns="http://www.w3.org/2000/svg" xmlns:sodipodi="http://sodipodi.sourceforge.net/DTD/sodipodi-0.dtd" xmlns:inkscape="http://www.inkscape.org/namespaces/inkscape">
 <defs>
  <linearGradient x1="49.01" x2="51.23" y1="8.756" y2="87.6" gradientUnits="userSpaceOnUse" id="linearGradient3002" inkscape:collect="always" gradientTransform="matrix(1 0 0 1 0.019 -96)">
   <stop stop-color="#996c3b"/>
   <stop stop-color="#c19e6d" offset="1"/>
  </linearGradient>
 </defs>
 <rect x="8.02" rx="10.769" y="-88" fill="url(#linearGradient3002)" fill-opacity="1" stroke="none" height="80" opacity="0.99" width="80" transform="matrix(1 0 0 -1 0 0)"/>
 <path d="m 8.018692,25.292877 0,20 7.746277,-9.49201 32.253723,0 32.253723,0 7.746277,9.49201 0,-20 -7.746277,9.49201 -32.253723,0 -32.253723,0 z" fill="#c09d6c" fill-opacity="0.992" stroke="none" sodipodi:nodetypes="ccccccccccc" inkscape:connector-curvature="0"/>
 <path d="m 8.018692,25.999985 0,20 7.746277,-9.49201 32.253723,0 32.253723,0 7.746277,9.49201 0,-20 -7.746277,9.49201 -32.253723,0 -32.253723,0 z" fill="#6e431c" fill-opacity="1" stroke="none" sodipodi:nodetypes="ccccccccccc" inkscape:connector-curvature="0"/>
 <path d="m 54.530955,7.9999847 -6.636912,0 -6.636912,0 0.06571,29.2668293 0.147852,32.682084 6.228183,-0.558741 6.61928,-0.593301 0.03575,-6.269431 0.111721,-25.260905 0.06591,-29.2665353 z" fill="#d4bf9b" fill-opacity="1" opacity="0.8" sodipodi:nodetypes="ccccccccccc" inkscape:connector-curvature="0"/>
 <rect x="47.08" y="8" fill="#ffffff" height="53.16" opacity="0.2" width="1.095"/>
 <path d="m 7.89433,75.196213 0,2.0133 c 0,5.966 4.793066,10.7905 10.758949,10.7905 l 58.450649,0 c 5.965883,0 10.790405,-4.8245 10.790405,-10.7905 l 0,-2.0133 c 0,5.9659 -4.824522,10.7904 -10.790405,10.7904 l -58.450649,0 c -5.965883,0 -10.758949,-4.8245 -10.758949,-10.7904 z" fill="#000000" fill-opacity="1" stroke="none" opacity="0.3" inkscape:connector-curvature="0"/>
 <path d="m 72.073518,48.728526 c -5.527594,0 -10.008619,4.481025 -10.008619,10.008618 0,5.527594 4.481025,10.008619 10.008619,10.008619 5.410492,0 9.806778,-4.295532 9.991381,-9.661097 v -0.695043 c -0.184603,-5.365732 -4.580611,-9.661097 -9.991381,-9.661097 z" fill="#2b7bb4" fill-opacity="1" inkscape:connector-curvature="0"/>
 <path d="m 73.429129,48.83306 -2.72846,19.808169 c 0.444271,0.06061 0.895215,0.104534 1.355612,0.104534 5.527537,0 10.008618,-4.481081 10.008618,-10.008619 0,-5.061024 -3.758792,-9.234062 -8.63577,-9.904084 z" fill="#d02b2b" fill-opacity="1" inkscape:connector-curvature="0"/>
 <path d="m 65.733444,52.800883 5.784981,-1.073147 -1.052573,5.897857 -1.543774,-1.573911 c -1.830076,2.027468 -2.150852,5.664322 0.819595,8.378882 -0.913342,-0.283711 -1.77653,-0.79246 -2.498151,-1.528149 -2.316551,-2.361701 -2.310601,-6.207568 -0.05614,-8.619089 l -1.453975,-1.482332 z" fill="#ffffff" inkscape:connector-curvature="0"/>
 <path d="m 78.874515,63.981254 -5.784982,1.073146 1.052573,-5.897856 1.543774,1.573911 c 1.830076,-2.027468 2.150852,-5.664322 -0.819595,-8.378882 0.913342,0.283711 1.77653,0.79246 2.498151,1.528149 2.316551,2.3617 2.310601,6.207568 0.05614,8.619089 l 1.453974,1.482332 z" fill="#ffffff" inkscape:connector-curvature="0"/>
</svg>
