<svg height="96" width="96" xmlns="http://www.w3.org/2000/svg" xmlns:xlink="http://www.w3.org/1999/xlink" xmlns:sodipodi="http://sodipodi.sourceforge.net/DTD/sodipodi-0.dtd" xmlns:inkscape="http://www.inkscape.org/namespaces/inkscape">
 <defs>
  <clipPath clipPathUnits="userSpaceOnUse" id="clipPath3009">
   <path d="m -2,956.36218 -96,0 0,33.5624 96,25.68742 0,-59.24982 z" inkscape:connector-curvature="0"/>
  </clipPath>
  <radialGradient cy="88.2" r="43.38" gradientUnits="userSpaceOnUse" id="radialGradient6775" cx="45.935" gradientTransform="matrix(2.40005 0.01172 -0.00679 1.37266 -64.854 -33.01)">
   <stop stop-color="#334c63" stop-opacity="1"/>
   <stop stop-color="#7093b4" stop-opacity="1" offset="1"/>
  </radialGradient>
  <radialGradient cy="77.54" r="4.836" gradientUnits="userSpaceOnUse" id="radialGradient6682" cx="64.45" gradientTransform="matrix(1 0 0 0.97484 0 1.951)">
   <stop stop-color="#130f03" stop-opacity="1"/>
   <stop stop-color="#130f03" stop-opacity="0" offset="1"/>
  </radialGradient>
  <linearGradient x2="0" y1="-40.36" y2="-41.966" gradientUnits="userSpaceOnUse" id="linearGradient6684" gradientTransform="matrix(1.28647 0 0 1.58893 -16.687 30.21)">
   <stop stop-color="#2c2410" stop-opacity="1"/>
   <stop stop-color="#5e4d23" stop-opacity="1" offset="1"/>
  </linearGradient>
  <linearGradient x1="48.2" x2="58.56" xlink:href="#linearGradient5673" y1="54.627" y2="54.698" gradientUnits="userSpaceOnUse" id="linearGradient6686" gradientTransform="matrix(1.31044 0 0 1.33418 -18 -20.05)"/>
  <linearGradient id="linearGradient5673">
   <stop stop-color="#6d5513" stop-opacity="1"/>
   <stop stop-color="#efdaa2" stop-opacity="1" offset="1"/>
  </linearGradient>
  <linearGradient x1="45.38" x2="61.678" xlink:href="#linearGradient5673" gradientUnits="userSpaceOnUse" id="linearGradient6688"/>
  <linearGradient x1="52.39" x2="52.4" y1="66.26" y2="64.57" gradientUnits="userSpaceOnUse" id="linearGradient6690" gradientTransform="matrix(1.31044 0 0 1.33418 -18 -20.05)">
   <stop stop-color="#4d3c0d" stop-opacity="1"/>
   <stop stop-color="#312608" stop-opacity="0" offset="1"/>
  </linearGradient>
  <linearGradient x1="71.41" x2="71.53" xlink:href="#linearGradient5512" y1="36.27" y2="57.679" gradientUnits="userSpaceOnUse" id="linearGradient6696" gradientTransform="matrix(0.02447 0.72527 -0.76699 0.02433 82.84 22.01)"/>
  <linearGradient id="linearGradient5512">
   <stop stop-color="#737373" stop-opacity="1"/>
   <stop stop-color="#b1b1b1" stop-opacity="1" offset="1"/>
  </linearGradient>
  <linearGradient x1="71.41" x2="71.53" xlink:href="#linearGradient5512" y1="36.27" y2="57.679" gradientUnits="userSpaceOnUse" id="linearGradient6720" gradientTransform="matrix(0.96825 0 0 0.94017 0.401 -13.598)"/>
  <clipPath clipPathUnits="userSpaceOnUse" id="clipPath3636">
   <rect x="6.643" rx="22.874" y="8.171" ry="22.24" height="81.83" width="84.18"/>
  </clipPath>
  <path d="m 45.075269,66.752686 a 12.55914,2.5806451 0 1 1 -0.06481,-0.261841" fill="#000000" fill-opacity="1" stroke="none" id="SVGCleanerId_0"/>
  <path d="M 69.281255,77.539192 A 4.8356981,4.714045 0 1 1 69.256299,77.06089" fill="url(#radialGradient6682)" fill-opacity="1" stroke="none" id="SVGCleanerId_1"/>
  <path d="m 83.210502,47.460541 a 9.7322226,10.09718 0 1 1 -19.464445,0 9.7322226,10.09718 0 1 1 19.464445,0 z" fill="#ffffff" fill-opacity="1" stroke="none" id="SVGCleanerId_2"/>
  <path d="m 91.239582,48.798721 a 43.308388,41.605251 0 1 1 -86.6167755,0 43.308388,41.605251 0 1 1 86.6167755,0 z" fill="#000000" fill-opacity="1" stroke="none" id="SVGCleanerId_3"/>
  <rect x="41.78" rx="1.565" y="-39.23" ry="2.255" fill="url(#linearGradient6684)" fill-opacity="1" stroke="none" height="6.801" id="SVGCleanerId_4" opacity="0.9" width="18.15"/>
  <rect x="41.555" rx="1.913" y="36.14" ry="2.11" fill-opacity="1" stroke="none" height="32.594" id="SVGCleanerId_5" width="18.487"/>
  <rect x="-56.44" y="36.19" fill="#ffffff" fill-opacity="1" stroke="none" height="32.14" id="SVGCleanerId_6" opacity="0.119" width="9.02"/>
  <rect x="-55.724" y="36.464" fill="#ffffff" fill-opacity="1" stroke="none" height="32.403" id="SVGCleanerId_7" opacity="0.329" width="7.263"/>
  <rect x="50.35" y="36.19" fill="#ffffff" fill-opacity="1" stroke="none" height="32.14" id="SVGCleanerId_8" opacity="0.752" width="3.044"/>
  <rect x="-54.51" y="36.33" fill="#ffffff" fill-opacity="1" stroke="none" height="32.404" id="SVGCleanerId_9" opacity="0.538" width="5.111"/>
  <path d="m 61.677958,41.438728 a 8.150736,2.0072708 0 1 1 -16.301472,0 8.150736,2.0072708 0 1 1 16.301472,0 z" fill="url(#linearGradient6688)" fill-opacity="1" stroke="none" id="SVGCleanerId_10"/>
  <rect x="-56.44" y="-34.12" fill="#ffffff" fill-opacity="1" stroke="none" height="2.295" id="SVGCleanerId_11" opacity="0.119" width="9.02"/>
  <rect x="-55.54" y="-34.12" fill="#ffffff" fill-opacity="1" stroke="none" height="2.295" id="SVGCleanerId_12" opacity="0.329" width="7.214"/>
  <rect x="50.35" y="-34.12" fill="#ffffff" fill-opacity="1" stroke="none" height="2.295" id="SVGCleanerId_13" opacity="0.752" width="3.044"/>
  <rect x="-54.41" y="-34.12" fill="#ffffff" fill-opacity="1" stroke="none" height="2.295" id="SVGCleanerId_14" opacity="0.538" width="5.073"/>
  <path d="m 62.95863,20.042746 1.88009,-3.877544 2.131789,1.939213 3.008849,-1.817293 3.260316,2.545283 8.651207,-0.483487 0.752012,-1.696437 2.257537,4.241682 -2.256428,2.665672 4.639797,4.363204 -3.008949,1.211385 1.505312,4.605118 -2.632924,0.48435 1.630695,4.605134 -4.011918,1.695968 0.126022,3.999013 -4.012365,-1.091209 c 0,0 -9.779773,-0.364948 -10.155839,0.119725 -0.376064,0.484673 -2.131728,-1.575667 -2.131728,-1.575667 l -2.257286,-2.666321 -4.764321,0.968772 2.632418,-3.635071 -4.137961,-2.424225 2.256467,-2.423312 -2.633525,-3.272282 3.510413,-1.574856 -0.753005,-4.48383 -7.09e-4,-4.604902 2.507932,1.939265 z" fill="#ffffff" fill-opacity="1" stroke="none" id="SVGCleanerId_15" opacity="0.576"/>
  <path d="m 63.890601,21.415503 1.766861,-3.659982 2.002444,1.829991 2.826979,-1.715616 3.06256,2.401863 8.127564,-0.457498 0.706745,-1.601242 2.120233,4.003105 -2.120233,2.516236 4.358259,4.117479 -2.826979,1.143744 1.41349,4.346228 -2.473607,0.457498 1.531281,4.346227 -3.769305,1.601241 0.117789,3.774356 -3.769305,-1.029369 c 0,0 -9.187681,-0.343124 -9.541054,0.114374 -0.353371,0.457498 -2.002443,-1.486867 -2.002443,-1.486867 l -2.120234,-2.516238 -4.47605,0.914996 2.473607,-3.431233 -3.887096,-2.287487 2.120234,-2.287489 -2.473606,-3.088109 3.298142,-1.486867 -0.706745,-4.231854 0,-4.346227 2.355816,1.82999 z" fill="url(#linearGradient6720)" fill-opacity="1" stroke="none" id="SVGCleanerId_16"/>
 </defs>
 <g inkscape:label="Layer 1" inkscape:groupmode="layer" transform="matrix(1 0 0 1 0 -956.36)">
  <g clip-path="url(#clipPath3636)" transform="matrix(1.09296 0 0 1.12425 -5.26 949.18)">
   <path d="m 11.312836,5.1260081 c -3.6045739,0 -6.5,3.0070917 -6.5,6.7499999 l 0,46.90625 1.09375,-0.1875 3.5625,-0.125 -1.4375,1.8125 -0.15625,1.40625 3.03125,1.25 -1.4375,1.53125 1.46875,2.09375 -1.875,2.34375 0.5625,6.0625 1.34375,0.5 -3.21875,1.6875 -2.09375,-1.53125 -0.84375,0.875 0,8.5 c 0,3.742908 2.8954261,6.78125 6.5,6.78125 l 73.75,0 c 3.604574,0 6.5,-3.038342 6.5,-6.78125 l 0,-71.1875 -2.8125,2.90625 -1,-2.0625 -3.5,1.15625 -0.4375,-1.84375 -3.5,1.25 -1.40625,-2.78125 -3.09375,0.1875 0.75,-2.8437499 c 0,0 0.0154,-2.5802177 -0.0625,-4.65625 l -26.09375,0 -1.09375,0.46875 -2.40625,5.5937499 0.90625,1.0625 -3.625,-0.0625 -1.125,-2.3437499 -4.46875,1.4062499 0.125,-2.3124999 -3.625,-0.65625 0.5,-1.8125 -3.6875,-0.59375 0.03125,-0.75 -20.625,0 z" fill="url(#radialGradient6775)" fill-opacity="1" stroke="none" inkscape:connector-curvature="0"/>
   <use xlink:href="#SVGCleanerId_0" opacity="0.052" inkscape:connector-curvature="0" transform="matrix(0.74687 0.02091 -0.01638 0.58168 21.923 18.215)"/>
   <use xlink:href="#SVGCleanerId_0" opacity="0.262" inkscape:connector-curvature="0" transform="matrix(0.69041 0.01933 -0.0148 0.52561 23.657 21.864)"/>
   <use xlink:href="#SVGCleanerId_0" opacity="0.186" inkscape:connector-curvature="0" transform="matrix(0.65191 0.01825 -0.01322 0.46955 24.84 25.498)"/>
   <use xlink:href="#SVGCleanerId_0" opacity="0.314" inkscape:connector-curvature="0" transform="matrix(0.60571 0.01696 -0.01184 0.42049 26.25 28.688)"/>
   <g opacity="0.514" transform="matrix(-1.24453 0.01332 0.01852 0.89515 151.62 3.658)">
    <use xlink:href="#SVGCleanerId_0" opacity="0.052" inkscape:connector-curvature="0" transform="matrix(0.83219 0 0 0.65 31.736 21.256)"/>
    <use xlink:href="#SVGCleanerId_0" opacity="0.262" inkscape:connector-curvature="0" transform="matrix(0.76928 0 0 0.58735 33.782 25.276)"/>
    <use xlink:href="#SVGCleanerId_0" opacity="0.186" inkscape:connector-curvature="0" transform="matrix(0.72638 0 0 0.5247 35.21 29.3)"/>
    <use xlink:href="#SVGCleanerId_0" opacity="0.314" inkscape:connector-curvature="0" transform="matrix(0.6749 0 0 0.46988 36.886 32.815)"/>
   </g>
   <use xlink:href="#SVGCleanerId_0" opacity="0.052" inkscape:connector-curvature="0" transform="matrix(0.6992 0 0 0.58191 5.168 30.11)"/>
   <use xlink:href="#SVGCleanerId_0" opacity="0.262" inkscape:connector-curvature="0" transform="matrix(0.64634 0 0 0.52582 6.887 33.705)"/>
   <use xlink:href="#SVGCleanerId_0" opacity="0.186" inkscape:connector-curvature="0" transform="matrix(0.6103 0 0 0.46973 8.089 37.3)"/>
   <use xlink:href="#SVGCleanerId_0" opacity="0.314" inkscape:connector-curvature="0" transform="matrix(0.63555 0 0 0.42066 7.784 40.454)"/>
   <use xlink:href="#SVGCleanerId_1" opacity="0.619" inkscape:connector-curvature="0" transform="matrix(2.30822 -0.90595 0.58716 1.40693 -152.71 27.78)"/>
   <g transform="matrix(-0.84656 -0.16996 0.16304 -0.85578 82.27 93.26)">
    <use xlink:href="#SVGCleanerId_4" transform="matrix(1 0 0 -1 0 0)"/>
    <use xlink:href="#SVGCleanerId_5" fill="url(#linearGradient6686)"/>
    <use xlink:href="#SVGCleanerId_6" transform="matrix(-1 0 0 1 0 0)"/>
    <use xlink:href="#SVGCleanerId_7" transform="matrix(-0.99999 0.00479 -0.00479 0.99999 0 0)"/>
    <use xlink:href="#SVGCleanerId_8"/>
    <use xlink:href="#SVGCleanerId_9" transform="matrix(-1 0.00238 -0.00238 1 0 0)"/>
    <use xlink:href="#SVGCleanerId_10" inkscape:connector-curvature="0" transform="matrix(1.11485 0 0 0.60645 -8.864 7.949)"/>
    <use xlink:href="#SVGCleanerId_11" transform="matrix(-1 0 0 -1 0 0)"/>
    <use xlink:href="#SVGCleanerId_12" transform="matrix(-1 0 0 -1 0 0)"/>
    <use xlink:href="#SVGCleanerId_13" transform="matrix(1 0 0 -1 0 0)"/>
    <use xlink:href="#SVGCleanerId_14" transform="matrix(-1 0 0 -1 0 0)"/>
    <use xlink:href="#SVGCleanerId_5" fill="url(#linearGradient6690)" opacity="0.781"/>
   </g>
   <use xlink:href="#SVGCleanerId_1" opacity="0.486" inkscape:connector-curvature="0" transform="matrix(1.94314 0 0 3.26468 -78.64 -179.65)"/>
   <use xlink:href="#SVGCleanerId_1" opacity="0.643" inkscape:connector-curvature="0" transform="matrix(1.94314 0 0 2.72057 -71.75 -133.68)"/>
   <path d="m 56.979741,69.741199 3.210822,1.307911 -1.528149,1.646997 1.558585,2.206726 -1.994067,2.508001 0.613037,6.467627 1.402962,0.519382 -3.403335,1.800781 -2.231682,-1.621172 -3.442276,3.588346 -1.064285,-2.222484 -3.718835,1.246737 -0.461665,-1.959642 -3.71568,1.340655 -1.484954,-2.96121 -3.259225,0.1979 0.788825,-3.033684 c 0,0 0.0506,-7.334932 -0.354299,-7.604078 -0.404901,-0.269144 1.231569,-1.637542 1.231569,-1.637542 l 2.118155,-1.759818 -0.910717,-3.543615 3.032023,1.877714 1.87313,-3.162262 2.033965,1.627474 2.602994,-2.057323 1.373478,2.588696 3.638897,-0.680087 3.756678,-0.119716 -1.518687,1.928745 z" fill="#ffffff" fill-opacity="1" stroke="none" opacity="0.576" inkscape:connector-curvature="0"/>
   <path d="m 55.88339,70.474817 3.030474,1.228729 -1.442314,1.547284 1.47104,2.07313 -1.882061,2.35616 0.578603,6.076067 1.324158,0.48794 -3.212172,1.691759 -2.106331,-1.523023 -3.248926,3.3711 -1.004505,-2.08793 -3.509952,1.171257 -0.435734,-1.841001 -3.506974,1.259489 -1.401544,-2.781934 -3.076158,0.185918 0.744517,-2.85002 c 0,0 0.04776,-6.890865 -0.334398,-7.143716 -0.382158,-0.252849 1.162392,-1.538403 1.162392,-1.538403 l 1.99918,-1.653276 -0.859561,-3.329079 2.861717,1.764034 1.767918,-2.970814 1.919718,1.528944 2.456786,-1.932769 1.296332,2.431972 3.434503,-0.638913 3.545668,-0.112491 -1.433383,1.811976 z" fill="url(#linearGradient6696)" fill-opacity="1" stroke="none" inkscape:connector-curvature="0"/>
   <use xlink:href="#SVGCleanerId_2" opacity="0.048" inkscape:connector-curvature="0" transform="matrix(0.02874 0.85204 -0.80843 0.02565 83.34 12.663)"/>
   <use xlink:href="#SVGCleanerId_2" opacity="0.4" inkscape:connector-curvature="0" transform="matrix(0.02724 0.80756 -0.79369 0.02518 83.44 15.908)"/>
   <use xlink:href="#SVGCleanerId_2" opacity="0.181" inkscape:connector-curvature="0" transform="matrix(0.02787 0.82629 -0.80106 0.02541 83.42 14.531)"/>
   <use xlink:href="#SVGCleanerId_2" opacity="0.643" inkscape:connector-curvature="0" transform="matrix(0.0263 0.77947 -0.77649 0.02463 82.87 17.993)"/>
   <use xlink:href="#SVGCleanerId_2" opacity="0.881" inkscape:connector-curvature="0" transform="matrix(0.02527 0.74904 -0.747 0.0237 81.64 20.293)"/>
   <use xlink:href="#SVGCleanerId_3" opacity="0.039" inkscape:connector-curvature="0" transform="matrix(0.00585 0.17351 -0.18686 0.00593 57.789 67.8)"/>
   <use xlink:href="#SVGCleanerId_3" opacity="0.132" inkscape:connector-curvature="0" transform="matrix(0.00559 0.16558 -0.18029 0.00572 57.49 68.18)"/>
   <use xlink:href="#SVGCleanerId_3" opacity="0.298" inkscape:connector-curvature="0" transform="matrix(0.00541 0.16023 -0.17469 0.00554 57.23 68.45)"/>
   <use xlink:href="#SVGCleanerId_3" opacity="0.461" inkscape:connector-curvature="0" transform="matrix(0.0052 0.15417 -0.16737 0.00531 56.88 68.73)"/>
   <use xlink:href="#SVGCleanerId_3" opacity="0.719" inkscape:connector-curvature="0" transform="matrix(0.00497 0.14718 -0.15952 0.00506 56.49 69.06)"/>
   <use xlink:href="#SVGCleanerId_3" inkscape:connector-curvature="0" transform="matrix(0.0047 0.13927 -0.15168 0.00481 56.14 69.43)"/>
   <g transform="matrix(-0.5412 -0.68479 0.64268 -0.57665 70.39 110.16)">
    <use xlink:href="#SVGCleanerId_4" transform="matrix(1 0 0 -1 0 0)"/>
    <use xlink:href="#SVGCleanerId_5" fill="url(#linearGradient6686)"/>
    <use xlink:href="#SVGCleanerId_6" transform="matrix(-1 0 0 1 0 0)"/>
    <use xlink:href="#SVGCleanerId_7" transform="matrix(-0.99999 0.00479 -0.00479 0.99999 0 0)"/>
    <use xlink:href="#SVGCleanerId_8"/>
    <use xlink:href="#SVGCleanerId_9" transform="matrix(-1 0.00238 -0.00238 1 0 0)"/>
    <use xlink:href="#SVGCleanerId_10" inkscape:connector-curvature="0" transform="matrix(1.11485 0 0 0.60645 -8.864 7.949)"/>
    <use xlink:href="#SVGCleanerId_11" transform="matrix(-1 0 0 -1 0 0)"/>
    <use xlink:href="#SVGCleanerId_12" transform="matrix(-1 0 0 -1 0 0)"/>
    <use xlink:href="#SVGCleanerId_13" transform="matrix(1 0 0 -1 0 0)"/>
    <use xlink:href="#SVGCleanerId_14" transform="matrix(-1 0 0 -1 0 0)"/>
    <use xlink:href="#SVGCleanerId_5" fill="url(#linearGradient6690)" opacity="0.781"/>
   </g>
   <g transform="matrix(-0.83495 0.22001 -0.23029 -0.84019 78.51 83.32)">
    <use xlink:href="#SVGCleanerId_4" transform="matrix(1 0 0 -1 0 0)"/>
    <use xlink:href="#SVGCleanerId_5" fill="url(#linearGradient6686)"/>
    <use xlink:href="#SVGCleanerId_6" transform="matrix(-1 0 0 1 0 0)"/>
    <use xlink:href="#SVGCleanerId_7" transform="matrix(-0.99999 0.00479 -0.00479 0.99999 0 0)"/>
    <use xlink:href="#SVGCleanerId_8"/>
    <use xlink:href="#SVGCleanerId_9" transform="matrix(-1 0.00238 -0.00238 1 0 0)"/>
    <use xlink:href="#SVGCleanerId_10" inkscape:connector-curvature="0" transform="matrix(1.11485 0 0 0.60645 -8.864 7.949)"/>
    <use xlink:href="#SVGCleanerId_11" transform="matrix(-1 0 0 -1 0 0)"/>
    <use xlink:href="#SVGCleanerId_12" transform="matrix(-1 0 0 -1 0 0)"/>
    <use xlink:href="#SVGCleanerId_13" transform="matrix(1 0 0 -1 0 0)"/>
    <use xlink:href="#SVGCleanerId_14" transform="matrix(-1 0 0 -1 0 0)"/>
    <use xlink:href="#SVGCleanerId_5" fill="url(#linearGradient6690)" opacity="0.781"/>
   </g>
   <g transform="matrix(0.43082 0.47801 -0.47954 0.4322 84.07 8.952)">
    <use xlink:href="#SVGCleanerId_1" opacity="0.619" inkscape:connector-curvature="0" transform="matrix(2.0172 -0.81639 0.51312 1.26784 -98.62 33.15)"/>
    <use xlink:href="#SVGCleanerId_1" opacity="0.486" inkscape:connector-curvature="0" transform="matrix(1.69811 0 0 2.94194 -33.889 -153.77)"/>
    <use xlink:href="#SVGCleanerId_1" opacity="0.643" inkscape:connector-curvature="0" transform="matrix(1.69811 0 0 2.45161 -27.868 -112.34)"/>
    <g transform="matrix(0.02208 0.67499 -0.71293 0.02332 97.53 28)">
     <use xlink:href="#SVGCleanerId_15" inkscape:connector-curvature="0"/>
     <use xlink:href="#SVGCleanerId_16" inkscape:connector-curvature="0"/>
     <use xlink:href="#SVGCleanerId_2" opacity="0.048" inkscape:connector-curvature="0" transform="matrix(1.1375 0 0 0.99096 -12.05 -14.587)"/>
     <use xlink:href="#SVGCleanerId_2" opacity="0.4" inkscape:connector-curvature="0" transform="matrix(1.07813 0 0 0.97289 -7.714 -14.58)"/>
     <use xlink:href="#SVGCleanerId_2" opacity="0.181" inkscape:connector-curvature="0" transform="matrix(1.10312 0 0 0.98193 -9.551 -14.614)"/>
     <use xlink:href="#SVGCleanerId_2" opacity="0.643" inkscape:connector-curvature="0" transform="matrix(1.04062 0 0 0.95181 -4.958 -13.793)"/>
     <use xlink:href="#SVGCleanerId_2" opacity="0.881" inkscape:connector-curvature="0" transform="matrix(1 0 0 0.91566 -1.943 -12.199)"/>
     <use xlink:href="#SVGCleanerId_3" opacity="0.039" inkscape:connector-curvature="0" transform="matrix(0.23164 0 0 0.22905 60.4 18.971)"/>
     <use xlink:href="#SVGCleanerId_3" opacity="0.132" inkscape:connector-curvature="0" transform="matrix(0.22105 0 0 0.221 60.893 19.35)"/>
     <use xlink:href="#SVGCleanerId_3" opacity="0.298" inkscape:connector-curvature="0" transform="matrix(0.21391 0 0 0.21413 61.25 19.686)"/>
     <use xlink:href="#SVGCleanerId_3" opacity="0.461" inkscape:connector-curvature="0" transform="matrix(0.20582 0 0 0.20516 61.61 20.12)"/>
     <use xlink:href="#SVGCleanerId_3" opacity="0.719" inkscape:connector-curvature="0" transform="matrix(0.1965 0 0 0.19554 62.03 20.62)"/>
     <use xlink:href="#SVGCleanerId_3" inkscape:connector-curvature="0" transform="matrix(0.18592 0 0 0.18592 62.51 21.06)"/>
    </g>
   </g>
   <g transform="matrix(0.03206 0.89382 -0.88697 0.04352 135.08 -51.782)">
    <use xlink:href="#SVGCleanerId_1" opacity="0.619" inkscape:connector-curvature="0" transform="matrix(2.0172 -0.81639 0.51312 1.26784 -98.62 33.15)"/>
    <use xlink:href="#SVGCleanerId_1" opacity="0.486" inkscape:connector-curvature="0" transform="matrix(1.69811 0 0 2.94194 -33.889 -153.77)"/>
    <use xlink:href="#SVGCleanerId_1" opacity="0.643" inkscape:connector-curvature="0" transform="matrix(1.69811 0 0 2.45161 -27.868 -112.34)"/>
    <g transform="matrix(0.02208 0.67499 -0.71293 0.02332 97.53 28)">
     <use xlink:href="#SVGCleanerId_15" inkscape:connector-curvature="0"/>
     <use xlink:href="#SVGCleanerId_16" inkscape:connector-curvature="0"/>
     <use xlink:href="#SVGCleanerId_2" opacity="0.048" inkscape:connector-curvature="0" transform="matrix(1.1375 0 0 0.99096 -12.05 -14.587)"/>
     <use xlink:href="#SVGCleanerId_2" opacity="0.4" inkscape:connector-curvature="0" transform="matrix(1.07813 0 0 0.97289 -7.714 -14.58)"/>
     <use xlink:href="#SVGCleanerId_2" opacity="0.181" inkscape:connector-curvature="0" transform="matrix(1.10312 0 0 0.98193 -9.551 -14.614)"/>
     <use xlink:href="#SVGCleanerId_2" opacity="0.643" inkscape:connector-curvature="0" transform="matrix(1.04062 0 0 0.95181 -4.958 -13.793)"/>
     <use xlink:href="#SVGCleanerId_2" opacity="0.881" inkscape:connector-curvature="0" transform="matrix(1 0 0 0.91566 -1.943 -12.199)"/>
     <use xlink:href="#SVGCleanerId_3" opacity="0.039" inkscape:connector-curvature="0" transform="matrix(0.23164 0 0 0.22905 60.4 18.971)"/>
     <use xlink:href="#SVGCleanerId_3" opacity="0.132" inkscape:connector-curvature="0" transform="matrix(0.22105 0 0 0.221 60.893 19.35)"/>
     <use xlink:href="#SVGCleanerId_3" opacity="0.298" inkscape:connector-curvature="0" transform="matrix(0.21391 0 0 0.21413 61.25 19.686)"/>
     <use xlink:href="#SVGCleanerId_3" opacity="0.461" inkscape:connector-curvature="0" transform="matrix(0.20582 0 0 0.20516 61.61 20.12)"/>
     <use xlink:href="#SVGCleanerId_3" opacity="0.719" inkscape:connector-curvature="0" transform="matrix(0.1965 0 0 0.19554 62.03 20.62)"/>
     <use xlink:href="#SVGCleanerId_3" inkscape:connector-curvature="0" transform="matrix(0.18592 0 0 0.18592 62.51 21.06)"/>
    </g>
   </g>
   <g transform="matrix(0.28022 0.33068 -0.33684 0.29144 17.01 -18.458)">
    <use xlink:href="#SVGCleanerId_1" opacity="0.619" inkscape:connector-curvature="0" transform="matrix(2.0172 -0.81639 0.51312 1.26784 -98.62 33.15)"/>
    <use xlink:href="#SVGCleanerId_1" opacity="0.486" inkscape:connector-curvature="0" transform="matrix(1.69811 0 0 2.94194 -33.889 -153.77)"/>
    <use xlink:href="#SVGCleanerId_1" opacity="0.643" inkscape:connector-curvature="0" transform="matrix(1.69811 0 0 2.45161 -27.868 -112.34)"/>
    <g transform="matrix(0.02208 0.67499 -0.71293 0.02332 97.53 28)">
     <use xlink:href="#SVGCleanerId_15" inkscape:connector-curvature="0"/>
     <use xlink:href="#SVGCleanerId_16" inkscape:connector-curvature="0"/>
     <use xlink:href="#SVGCleanerId_2" opacity="0.048" inkscape:connector-curvature="0" transform="matrix(1.1375 0 0 0.99096 -12.05 -14.587)"/>
     <use xlink:href="#SVGCleanerId_2" opacity="0.4" inkscape:connector-curvature="0" transform="matrix(1.07813 0 0 0.97289 -7.714 -14.58)"/>
     <use xlink:href="#SVGCleanerId_2" opacity="0.181" inkscape:connector-curvature="0" transform="matrix(1.10312 0 0 0.98193 -9.551 -14.614)"/>
     <use xlink:href="#SVGCleanerId_2" opacity="0.643" inkscape:connector-curvature="0" transform="matrix(1.04062 0 0 0.95181 -4.958 -13.793)"/>
     <use xlink:href="#SVGCleanerId_2" opacity="0.881" inkscape:connector-curvature="0" transform="matrix(1 0 0 0.91566 -1.943 -12.199)"/>
     <use xlink:href="#SVGCleanerId_3" opacity="0.039" inkscape:connector-curvature="0" transform="matrix(0.23164 0 0 0.22905 60.4 18.971)"/>
     <use xlink:href="#SVGCleanerId_3" opacity="0.132" inkscape:connector-curvature="0" transform="matrix(0.22105 0 0 0.221 60.893 19.35)"/>
     <use xlink:href="#SVGCleanerId_3" opacity="0.298" inkscape:connector-curvature="0" transform="matrix(0.21391 0 0 0.21413 61.25 19.686)"/>
     <use xlink:href="#SVGCleanerId_3" opacity="0.461" inkscape:connector-curvature="0" transform="matrix(0.20582 0 0 0.20516 61.61 20.12)"/>
     <use xlink:href="#SVGCleanerId_3" opacity="0.719" inkscape:connector-curvature="0" transform="matrix(0.1965 0 0 0.19554 62.03 20.62)"/>
     <use xlink:href="#SVGCleanerId_3" inkscape:connector-curvature="0" transform="matrix(0.18592 0 0 0.18592 62.51 21.06)"/>
    </g>
   </g>
   <g transform="matrix(-0.21153 -0.37832 0.38652 -0.22136 4.504 62.848)">
    <use xlink:href="#SVGCleanerId_1" opacity="0.619" inkscape:connector-curvature="0" transform="matrix(2.0172 -0.81639 0.51312 1.26784 -98.62 33.15)"/>
    <use xlink:href="#SVGCleanerId_1" opacity="0.486" inkscape:connector-curvature="0" transform="matrix(1.69811 0 0 2.94194 -33.889 -153.77)"/>
    <use xlink:href="#SVGCleanerId_1" opacity="0.643" inkscape:connector-curvature="0" transform="matrix(1.69811 0 0 2.45161 -27.868 -112.34)"/>
    <g transform="matrix(0.02208 0.67499 -0.71293 0.02332 97.53 28)">
     <use xlink:href="#SVGCleanerId_15" inkscape:connector-curvature="0"/>
     <use xlink:href="#SVGCleanerId_16" inkscape:connector-curvature="0"/>
     <use xlink:href="#SVGCleanerId_2" opacity="0.048" inkscape:connector-curvature="0" transform="matrix(1.1375 0 0 0.99096 -12.05 -14.587)"/>
     <use xlink:href="#SVGCleanerId_2" opacity="0.4" inkscape:connector-curvature="0" transform="matrix(1.07813 0 0 0.97289 -7.714 -14.58)"/>
     <use xlink:href="#SVGCleanerId_2" opacity="0.181" inkscape:connector-curvature="0" transform="matrix(1.10312 0 0 0.98193 -9.551 -14.614)"/>
     <use xlink:href="#SVGCleanerId_2" opacity="0.643" inkscape:connector-curvature="0" transform="matrix(1.04062 0 0 0.95181 -4.958 -13.793)"/>
     <use xlink:href="#SVGCleanerId_2" opacity="0.881" inkscape:connector-curvature="0" transform="matrix(1 0 0 0.91566 -1.943 -12.199)"/>
     <use xlink:href="#SVGCleanerId_3" opacity="0.039" inkscape:connector-curvature="0" transform="matrix(0.23164 0 0 0.22905 60.4 18.971)"/>
     <use xlink:href="#SVGCleanerId_3" opacity="0.132" inkscape:connector-curvature="0" transform="matrix(0.22105 0 0 0.221 60.893 19.35)"/>
     <use xlink:href="#SVGCleanerId_3" opacity="0.298" inkscape:connector-curvature="0" transform="matrix(0.21391 0 0 0.21413 61.25 19.686)"/>
     <use xlink:href="#SVGCleanerId_3" opacity="0.461" inkscape:connector-curvature="0" transform="matrix(0.20582 0 0 0.20516 61.61 20.12)"/>
     <use xlink:href="#SVGCleanerId_3" opacity="0.719" inkscape:connector-curvature="0" transform="matrix(0.1965 0 0 0.19554 62.03 20.62)"/>
     <use xlink:href="#SVGCleanerId_3" inkscape:connector-curvature="0" transform="matrix(0.18592 0 0 0.18592 62.51 21.06)"/>
    </g>
   </g>
   <g transform="matrix(0.01608 0.43315 -0.44492 0.02109 64.3 -21.08)">
    <use xlink:href="#SVGCleanerId_1" opacity="0.619" inkscape:connector-curvature="0" transform="matrix(2.0172 -0.81639 0.51312 1.26784 -98.62 33.15)"/>
    <use xlink:href="#SVGCleanerId_1" opacity="0.486" inkscape:connector-curvature="0" transform="matrix(1.69811 0 0 2.94194 -33.889 -153.77)"/>
    <use xlink:href="#SVGCleanerId_1" opacity="0.643" inkscape:connector-curvature="0" transform="matrix(1.69811 0 0 2.45161 -27.868 -112.34)"/>
    <g transform="matrix(0.02208 0.67499 -0.71293 0.02332 97.53 28)">
     <use xlink:href="#SVGCleanerId_15" inkscape:connector-curvature="0"/>
     <use xlink:href="#SVGCleanerId_16" inkscape:connector-curvature="0"/>
     <use xlink:href="#SVGCleanerId_2" opacity="0.048" inkscape:connector-curvature="0" transform="matrix(1.1375 0 0 0.99096 -12.05 -14.587)"/>
     <use xlink:href="#SVGCleanerId_2" opacity="0.4" inkscape:connector-curvature="0" transform="matrix(1.07813 0 0 0.97289 -7.714 -14.58)"/>
     <use xlink:href="#SVGCleanerId_2" opacity="0.181" inkscape:connector-curvature="0" transform="matrix(1.10312 0 0 0.98193 -9.551 -14.614)"/>
     <use xlink:href="#SVGCleanerId_2" opacity="0.643" inkscape:connector-curvature="0" transform="matrix(1.04062 0 0 0.95181 -4.958 -13.793)"/>
     <use xlink:href="#SVGCleanerId_2" opacity="0.881" inkscape:connector-curvature="0" transform="matrix(1 0 0 0.91566 -1.943 -12.199)"/>
     <use xlink:href="#SVGCleanerId_3" opacity="0.039" inkscape:connector-curvature="0" transform="matrix(0.23164 0 0 0.22905 60.4 18.971)"/>
     <use xlink:href="#SVGCleanerId_3" opacity="0.132" inkscape:connector-curvature="0" transform="matrix(0.22105 0 0 0.221 60.893 19.35)"/>
     <use xlink:href="#SVGCleanerId_3" opacity="0.298" inkscape:connector-curvature="0" transform="matrix(0.21391 0 0 0.21413 61.25 19.686)"/>
     <use xlink:href="#SVGCleanerId_3" opacity="0.461" inkscape:connector-curvature="0" transform="matrix(0.20582 0 0 0.20516 61.61 20.12)"/>
     <use xlink:href="#SVGCleanerId_3" opacity="0.719" inkscape:connector-curvature="0" transform="matrix(0.1965 0 0 0.19554 62.03 20.62)"/>
     <use xlink:href="#SVGCleanerId_3" inkscape:connector-curvature="0" transform="matrix(0.18592 0 0 0.18592 62.51 21.06)"/>
    </g>
   </g>
  </g>
  <rect x="-96" rx="25" y="958.36" clip-path="url(#clipPath3009)" fill="#ffffff" fill-opacity="1" height="92" opacity="0.15" width="92" transform="matrix(1 0 0 1 98 0)"/>
 </g>
</svg>
