<svg height="96" width="96" xmlns="http://www.w3.org/2000/svg" xmlns:xlink="http://www.w3.org/1999/xlink" xmlns:sodipodi="http://sodipodi.sourceforge.net/DTD/sodipodi-0.dtd" xmlns:inkscape="http://www.inkscape.org/namespaces/inkscape">
 <defs>
  <linearGradient x2="0" y1="6" y2="63.893" gradientUnits="userSpaceOnUse" id="linearGradient3188-8">
   <stop stop-color="#ffffff" stop-opacity="1"/>
   <stop stop-color="#ffffff" stop-opacity="0" offset="1"/>
  </linearGradient>
  <linearGradient x1="6" x2="32.03" gradientUnits="userSpaceOnUse" id="linearGradient3287-8" gradientTransform="matrix(-1 0 0 1 96.03 0)">
   <stop stop-color="#7a7a7a" stop-opacity="1"/>
   <stop stop-color="#f9f9f9" stop-opacity="1" offset="0.146"/>
   <stop stop-color="#c9c9c9" stop-opacity="1" offset="0.373"/>
   <stop stop-color="#dedede" stop-opacity="0" offset="1"/>
  </linearGradient>
  <linearGradient x1="6" x2="32" gradientUnits="userSpaceOnUse" id="linearGradient3279-1">
   <stop stop-color="#7a7a7a" stop-opacity="1"/>
   <stop stop-color="#f9f9f9" stop-opacity="1" offset="0.203"/>
   <stop stop-color="#c9c9c9" stop-opacity="1" offset="0.43"/>
   <stop stop-color="#dedede" stop-opacity="0" offset="1"/>
  </linearGradient>
  <linearGradient x2="0" xlink:href="#linearGradient3448-6" y1="77.09" y2="90" gradientUnits="userSpaceOnUse" id="linearGradient3460-9"/>
  <linearGradient id="linearGradient3448-6">
   <stop stop-color="#000000" stop-opacity="1"/>
   <stop stop-color="#000000" stop-opacity="0" offset="1"/>
  </linearGradient>
  <linearGradient x2="0" xlink:href="#linearGradient3448-6" y1="80.14" y2="82" gradientUnits="userSpaceOnUse" id="linearGradient4196-5"/>
  <linearGradient x2="0" y1="6" y2="78" gradientUnits="userSpaceOnUse" id="linearGradient3179-9">
   <stop stop-color="#f0f0f0" stop-opacity="1"/>
   <stop stop-color="#b4b4b4" stop-opacity="1" offset="1"/>
  </linearGradient>
  <linearGradient x1="18.743" x2="109.19" xlink:href="#linearGradient3220-8" y1="8.05" y2="68.52" gradientUnits="userSpaceOnUse" id="linearGradient3551-7" gradientTransform="matrix(1 0 0 -1 0 84)"/>
  <linearGradient id="linearGradient3220-8">
   <stop stop-color="#ffffff" stop-opacity="1"/>
   <stop stop-color="#bfbfbf" stop-opacity="0" offset="1"/>
  </linearGradient>
  <linearGradient x1="6" x2="45.22" xlink:href="#linearGradient3448-6" gradientUnits="userSpaceOnUse" id="linearGradient3454-9" gradientTransform="matrix(-1 0 0 1 96 -2)"/>
  <linearGradient x1="15.656" x2="46.595" xlink:href="#linearGradient3220-8" y1="69.39" y2="39.821" gradientUnits="userSpaceOnUse" id="linearGradient3781-8" gradientTransform="matrix(1.11656 0 0 1.11656 0.805 -5.676)"/>
  <clipPath id="clipPath3785-6">
   <rect x="6" rx="6" y="6" height="72" width="84"/>
  </clipPath>
  <filter x="-0.123" y="-0.18" height="1.36" color-interpolation-filters="sRGB" id="filter3829-8" width="1.245">
   <feGaussianBlur stdDeviation="3.54877"/>
  </filter>
  <filter x="-0.114" y="-1.415" height="3.83" color-interpolation-filters="sRGB" id="filter4180-3" width="1.229">
   <feGaussianBlur stdDeviation="3.53729"/>
  </filter>
  <radialGradient cy="84" r="30" gradientUnits="userSpaceOnUse" id="radialGradient4138-5" cx="48" gradientTransform="matrix(1.06667 0 0 0.06667 -3.2 77.4)">
   <stop stop-color="#ffcf29" stop-opacity="1"/>
   <stop stop-color="#ff1313" stop-opacity="0.651" offset="0.672"/>
   <stop stop-color="#ff0000" stop-opacity="0" offset="1"/>
  </radialGradient>
  <linearGradient x1="105.56" x2="24.668" gradientUnits="userSpaceOnUse" id="linearGradient3816-3" gradientTransform="matrix(0 0.67664 -0.84794 0 101.4 -4.692)">
   <stop stop-color="#4d4d4d" stop-opacity="0.707"/>
   <stop stop-color="#4d4d4d" stop-opacity="0.252" offset="1"/>
  </linearGradient>
  <clipPath id="clipPath3520-8">
   <path d="m 9.9375,33.6875 c -3.2232728,0 -5.84375,1.784 -5.84375,4 l 0,67.71875 c 0,2.216 2.6204767,4 5.84375,4 l 77.625,0 c 3.223273,0 5.843753,-1.784 5.84375,-4 l 0,-67.71875 c 0,-2.216 -2.62048,-4 -5.84375,-4 l -77.625,0 z M 47.90625,42 c 3.431866,0 6.21875,2.198129 6.21875,4.9375 0,2.181733 -1.764187,4.054067 -4.21875,4.71875 l 0,3.5625 c 0.01488,0.497551 0.298693,1.06729 0.6875,1.46875 0.09978,0.07533 8.192442,6.200116 8.21875,6.21875 0.0084,0.0065 0.02327,-0.0068 0.03125,0 0.02396,0.01835 0.04599,0.04881 0.0625,0.0625 0.0042,0.0036 0.02447,-0.006 0.03125,0 0.0068,0.006 0.03104,0.06226 0.03125,0.0625 2.6e-5,2.9e-5 0.06248,0.06248 0.0625,0.0625 0,0 10e-7,0.03125 0,0.03125 0.01173,0.01044 0.01956,0.02072 0.03125,0.03125 1.096118,0.988597 2.000001,2.355113 2,3.8125 l 0,4.09375 C 62.785851,71.690189 64,73.086119 64,74.71875 c 0,2.220106 -2.20417,4.031251 -4.9375,4.03125 -2.733338,0 -4.96875,-1.811144 -4.96875,-4.03125 0,-1.655395 1.236126,-3.071778 3,-3.6875 -2.35e-4,-1.047382 -10e-7,-2.379418 0,-4.09375 -0.01444,-0.497879 -0.297358,-1.034548 -0.6875,-1.4375 l -6.5,-4.9375 0,28.125 4.46875,0 L 48,98 l -6.375,-9.3125 4.3125,0 0,-21.96875 -6.53125,4.9375 c -0.394904,0.406057 -0.673191,0.908993 -0.6875,1.40625 0,2.101393 0,2.980142 0,3.8125 l 2.8125,0 0,7.90625 -9.53125,0 0,-7.90625 2.78125,0 0,-3.75 c 0,-1.44207 0.88924,-2.794493 1.96875,-3.78125 0,0 0.0213,-0.01152 0.03125,-0.03125 0.0043,-0.0039 -0.0044,-0.02734 0,-0.03125 0,0 0.03125,-0.03125 0.03125,-0.03125 1.5e-5,-2.1e-5 0.03122,-0.03122 0.03125,-0.03125 2.03e-4,-2.43e-4 0.05499,-0.08694 0.0625,-0.09375 0.0047,-0.004 -0.0046,-0.02742 0,-0.03125 0.01531,-0.01278 0.07133,-0.01367 0.09375,-0.03125 0.0079,-0.01061 0.02312,-0.02513 0.03125,-0.03125 0.01626,-0.01224 0.03151,-0.0079 0.0625,-0.03125 0.06197,-0.04673 0.166883,-0.13246 0.28125,-0.21875 0.228732,-0.172571 0.516577,-0.424672 0.90625,-0.71875 0.779348,-0.588157 1.839188,-1.343188 2.875,-2.125 2.046308,-1.544518 4.044131,-3.087545 4.09375,-3.125 0.392715,-0.403164 0.671626,-0.909306 0.6875,-1.40625 l 0,-6.15625 c -0.003,-0.04389 -4.59e-4,-0.02213 0,-0.03125 4.59e-4,-0.0091 -10e-7,-0.03827 0,-0.03125 l 0,-3.53125 C 43.481518,50.991635 41.687502,49.119667 41.6875,46.9375 41.6875,44.198126 44.473344,42 47.90625,42 z" inkscape:connector-curvature="0"/>
  </clipPath>
  <filter x="-0.242" y="-0.143" height="1.287" color-interpolation-filters="sRGB" id="filter3536-4" width="1.483">
   <feGaussianBlur stdDeviation="3.525"/>
  </filter>
  <clipPath clipPathUnits="userSpaceOnUse" id="clipPath3380">
   <rect x="5.905" rx="22.789" y="6.167" height="83.86" width="83.86"/>
  </clipPath>
  <clipPath clipPathUnits="userSpaceOnUse" id="clipPath3009">
   <path d="m -2,956.36218 -96,0 0,33.5624 96,25.68742 0,-59.24982 z" inkscape:connector-curvature="0"/>
  </clipPath>
  <path d="M 90,64.1875 90,84 c 0,3.324 -2.676,6 -6,6 L 12,90 C 8.676,90 6,87.324 6,84 l 0,-19.8125 84,0 z" fill-opacity="1" stroke="none" fill-rule="nonzero" id="SVGCleanerId_0"/>
 </defs>
 <g inkscape:label="Layer 1" inkscape:groupmode="layer" transform="matrix(1 0 0 1 0 -956.36)">
  <g clip-path="url(#clipPath3380)" transform="matrix(1.097 0 0 1.097 -4.478 951.6)">
   <path d="M 12,6 C 8.676,6 6,8.676 6,12 l 0,2 0,68 0,2 c 0,0.334721 0.04135,0.6507 0.09375,0.96875 0.0487,0.295596 0.09704,0.596915 0.1875,0.875 0.00988,0.03038 0.020892,0.0636 0.03125,0.09375 0.098865,0.287771 0.2348802,0.547452 0.375,0.8125 0.1445918,0.273507 0.3156161,0.535615 0.5,0.78125 0.1843839,0.245635 0.3737765,0.473472 0.59375,0.6875 0.439947,0.428056 0.94291,0.814526 1.5,1.09375 0.278545,0.139612 0.5734731,0.246947 0.875,0.34375 -0.2562018,-0.100222 -0.4867109,-0.236272 -0.71875,-0.375 -0.00741,-0.0044 -0.023866,0.0045 -0.03125,0 -0.031933,-0.0193 -0.062293,-0.04251 -0.09375,-0.0625 -0.120395,-0.0767 -0.2310226,-0.163513 -0.34375,-0.25 -0.1061728,-0.0808 -0.2132809,-0.161112 -0.3125,-0.25 C 8.4783201,88.557317 8.3087904,88.373362 8.15625,88.1875 8.0486711,88.057245 7.9378561,87.922215 7.84375,87.78125 7.818661,87.74287 7.805304,87.69538 7.78125,87.65625 7.716487,87.553218 7.6510225,87.451733 7.59375,87.34375 7.4927417,87.149044 7.3880752,86.928049 7.3125,86.71875 7.30454,86.69694 7.288911,86.6782 7.28125,86.65625 7.2494249,86.5643 7.2454455,86.469419 7.21875,86.375 7.1884177,86.268382 7.1483606,86.171969 7.125,86.0625 7.0521214,85.720988 7,85.364295 7,85 L 7,83 7,15 7,13 C 7,10.218152 9.2181517,8 12,8 l 2,0 68,0 2,0 c 2.781848,0 5,2.218152 5,5 l 0,2 0,68 0,2 c 0,0.364295 -0.05212,0.720988 -0.125,1.0625 -0.04415,0.206893 -0.08838,0.397658 -0.15625,0.59375 -0.0077,0.02195 -0.0233,0.04069 -0.03125,0.0625 -0.06274,0.173739 -0.138383,0.367449 -0.21875,0.53125 -0.04158,0.0828 -0.07904,0.169954 -0.125,0.25 -0.0546,0.09721 -0.126774,0.18835 -0.1875,0.28125 -0.09411,0.140965 -0.204921,0.275995 -0.3125,0.40625 -0.143174,0.17445 -0.303141,0.346998 -0.46875,0.5 -0.01117,0.0102 -0.01998,0.02115 -0.03125,0.03125 -0.138386,0.125556 -0.285091,0.234436 -0.4375,0.34375 -0.102571,0.07315 -0.204318,0.153364 -0.3125,0.21875 -0.0074,0.0045 -0.02384,-0.0044 -0.03125,0 -0.232039,0.138728 -0.462548,0.274778 -0.71875,0.375 0.301527,-0.0968 0.596455,-0.204138 0.875,-0.34375 0.55709,-0.279224 1.060053,-0.665694 1.5,-1.09375 0.219973,-0.214028 0.409366,-0.441865 0.59375,-0.6875 0.184384,-0.245635 0.355408,-0.507743 0.5,-0.78125 0.14012,-0.265048 0.276135,-0.524729 0.375,-0.8125 0.01041,-0.03078 0.02133,-0.06274 0.03125,-0.09375 0.09046,-0.278085 0.1388,-0.579404 0.1875,-0.875 C 89.95865,84.6507 90,84.334721 90,84 l 0,-2 0,-68 0,-2 C 90,8.676 87.324,6 84,6 L 12,6 z" fill="url(#linearGradient3188-8)" fill-opacity="1" fill-rule="nonzero" stroke="none" opacity="0.5" inkscape:connector-curvature="0"/>
   <use xlink:href="#SVGCleanerId_0" fill="#cacaca" inkscape:connector-curvature="0"/>
   <path d="m 6,73 0,1 c 0,3.324 2.676,6 6,6 l 72,0 c 3.324,0 6,-2.676 6,-6 l 0,-1 c 0,3.324 -2.676,6 -6,6 L 12,79 C 8.676,79 6,76.324 6,73 z" fill="#999999" fill-opacity="1" fill-rule="nonzero" stroke="none" inkscape:connector-curvature="0"/>
   <path d="m 90.030615,64.1875 0,19.8125 c 0,3.324 -2.676,6 -6,6 L 64,90 l 0,-25.8125 26.030615,0 z" fill="url(#linearGradient3287-8)" fill-opacity="1" fill-rule="nonzero" stroke="none" opacity="0.8" inkscape:connector-curvature="0"/>
   <path d="M 6,64.1875 6,84 c 0,3.324 2.676,6 6,6 l 20,0 0,-25.8125 -26,0 z" fill="url(#linearGradient3279-1)" fill-opacity="1" fill-rule="nonzero" stroke="none" opacity="0.8" inkscape:connector-curvature="0"/>
   <use xlink:href="#SVGCleanerId_0" fill="url(#linearGradient3460-9)" opacity="0.2" inkscape:connector-curvature="0"/>
   <path d="m 6,74 0,6 c 0,3.324 2.676,6 6,6 l 72,0 c 3.324,0 6,-2.676 6,-6 l 0,-6 c 0,3.324 -2.676,6 -6,6 L 12,80 C 8.676,80 6,77.324 6,74 z" fill="#252525" fill-opacity="1" fill-rule="nonzero" stroke="none" inkscape:connector-curvature="0"/>
   <path d="m 6,80 0,1 c 0,3.324 2.676,6 6,6 l 72,0 c 3.324,0 6,-2.676 6,-6 l 0,-1 c 0,3.324 -2.676,6 -6,6 L 12,86 C 8.676,86 6,83.324 6,80 z" fill="#ececec" fill-opacity="1" fill-rule="nonzero" stroke="none" inkscape:connector-curvature="0"/>
   <path d="m 6,74 0,2 c 0,3.324 2.676,6 6,6 l 72,0 c 3.324,0 6,-2.676 6,-6 l 0,-2 c 0,3.324 -2.676,6 -6,6 L 12,80 C 8.676,80 6,77.324 6,74 z" fill="url(#linearGradient4196-5)" fill-opacity="1" fill-rule="nonzero" stroke="none" inkscape:connector-curvature="0"/>
   <g display="inline">
    <rect x="6" rx="6" y="6" fill="url(#linearGradient3179-9)" fill-opacity="1" fill-rule="nonzero" stroke="none" height="70" width="84"/>
    <path d="M 12,76 C 8.676,76 6,73.324 6,70 L 6,12 C 6,8.676 8.676,6 12,6 l 72,0 c 3.324,0 6,2.676 6,6 l 0,58 c 0,3.324 -2.676,6 -6,6 l -72,0 z m 0,-2 72,0 c 2.781848,0 5,-2.195392 5,-4.9375 l 0,-57.125 C 89,9.195393 86.781848,6.999999 84,7 L 12,7 C 9.2181517,7 7,9.195389 7,11.9375 l 0,57.125 C 7,71.804608 9.2181517,74 12,74 z" fill="url(#linearGradient3551-7)" fill-opacity="1" fill-rule="nonzero" stroke="none" opacity="0.7" inkscape:connector-curvature="0"/>
    <path d="m 90,70 0,1 c 0,3.324 -2.676,6 -6,6 L 12,77 C 8.676,77 6,74.324 6,71 l 0,-1 c 0,2.984862 2.152831,5.43487 5,5.90625 C 11.326884,75.971636 11.652269,76 12,76 l 72,0 c 0.166304,0 0.337194,-0.01811 0.5,-0.03125 0.04161,-0.0041 0.08371,0.0051 0.125,0 C 84.752873,75.95584 84.874673,75.927 85,75.90625 87.847169,75.43487 90,72.984862 90,70 z" fill="url(#linearGradient3454-9)" fill-opacity="1" fill-rule="nonzero" stroke="none" opacity="0.1" inkscape:connector-curvature="0"/>
    <path d="M 72.785673,73.316552 C 37.497632,71.660468 32.655921,60.569503 56.214438,35.565764 29.558784,43.997531 16.947902,55.85465 7.5798689,63.939487 -2.370079,72.601777 6.9889853,83.779979 17.934257,82.851623 c 11.343001,-0.0075 45.801874,-2.097861 54.851416,-9.535071 z" clip-path="url(#clipPath3785-6)" fill="url(#linearGradient3781-8)" fill-opacity="1" fill-rule="evenodd" stroke="none" filter="url(#filter3829-8)" opacity="0.3" inkscape:connector-curvature="0" transform="matrix(1 0 0 1 0 -2)"/>
   </g>
   <g display="inline">
    <rect x="10.911" rx="6.744" y="80" ry="3" fill="#ff0000" fill-opacity="1" fill-rule="nonzero" stroke="none" height="6" filter="url(#filter4180-3)" opacity="0.6" width="74.18"/>
    <rect x="16" rx="5.818" y="81" ry="2" fill="url(#radialGradient4138-5)" fill-opacity="1" fill-rule="nonzero" stroke="none" height="4" width="64"/>
   </g>
   <path d="m 64,44.713066 c 0,-1.632631 -1.214678,-3.031399 -2.938029,-3.659088 l 0,-4.076707 c 0,-1.457386 -0.911529,-2.829584 -2.007647,-3.818181 -0.01169,-0.01054 -0.01276,-0.02933 -0.02449,-0.03977 0,0 0,-0.01989 0,-0.01989 -1.7e-5,-2.1e-5 -0.04894,-0.05963 -0.04897,-0.05966 -2.1e-4,-2.41e-4 -0.04218,-0.05362 -0.04897,-0.05966 -0.0068,-0.006 -0.0203,0.0036 -0.02448,0 -0.0042,-0.0036 0.0041,-0.01646 0,-0.01988 -0.01651,-0.01369 -0.04949,-0.02143 -0.07345,-0.03977 -0.008,-0.0068 -0.01614,-0.01341 -0.02449,-0.01989 -0.02631,-0.01864 -8.126685,-6.149101 -8.226466,-6.224432 -0.388808,-0.40146 -0.670662,-0.954154 -0.685543,-1.451705 l 0,-3.559659 c 2.454562,-0.664683 4.235656,-2.531335 4.235656,-4.713068 C 54.133129,14.212331 51.346174,12 47.914308,12 c -3.432907,0 -6.218825,2.21233 -6.218825,4.951704 3e-6,2.182165 1.779675,4.048453 4.235657,4.713068 l 0,3.519886 c 0,-0.007 4.59e-4,0.03066 0,0.03977 -4.58e-4,0.0091 -0.003,-0.0041 0,0.03977 l 0,6.144886 c -0.01587,0.496942 -0.292826,1.008768 -0.685541,1.411932 -0.04962,0.03746 -2.042443,1.557754 -4.088751,3.102272 -1.035811,0.781812 -2.085229,1.559571 -2.864577,2.147728 -0.389673,0.294078 -0.701642,0.543337 -0.930374,0.715908 -0.114367,0.08629 -0.20735,0.152136 -0.26932,0.198864 -0.03098,0.02336 -0.05719,0.02753 -0.07345,0.03977 -0.0081,0.0061 -0.0166,0.02917 -0.02448,0.03977 -0.02242,0.01758 -0.05814,0.027 -0.07345,0.03977 -0.0046,0.0038 0.0047,0.01588 0,0.01989 -0.0047,0.004 -0.01698,-0.0068 -0.02448,0 -0.0075,0.0068 -0.04876,0.0793 -0.04897,0.07955 -2.7e-5,3.1e-5 -0.04895,0.03975 -0.04897,0.03977 0,0 0,0.01989 0,0.01989 0,0 -0.02448,0.01989 -0.02448,0.01989 -0.0044,0.0039 0.0043,0.01597 0,0.01989 -0.0099,0.01973 -0.02448,0.03977 -0.02448,0.03977 -1.07951,0.986759 -1.983169,2.336337 -1.983169,3.778407 l 0,3.738637 -2.76664,0 0,7.93466 9.517343,0 0,-7.93466 -2.784368,0 c 0,-0.832356 0,-1.696898 0,-3.798291 0.01431,-0.497258 0.290637,-1.005878 0.685541,-1.411935 l 6.512624,-4.931818 0,21.97443 -4.295589,0 L 48.000303,68 l 6.366392,-9.306822 -4.469222,0 0,-28.119315 6.512624,4.911931 c 0.39014,0.402952 0.671099,0.953826 0.68554,1.451705 0,1.714333 -2.35e-4,3.049209 0,4.096591 -1.763873,0.61572 -3.011477,2.023581 -3.011477,3.678976 0,2.220106 2.236826,4.036935 4.970164,4.036935 C 61.787655,48.750001 64,46.933172 64,44.713066 z" display="inline" fill="url(#linearGradient3816-3)" fill-opacity="1" stroke="none" inkscape:connector-curvature="0"/>
   <path d="m 47.90625,12 c -3.432906,0 -6.21875,2.198126 -6.21875,4.9375 0,0.136983 0.04875,0.271976 0.0625,0.40625 C 42.123316,14.889905 44.729193,13 47.90625,13 c 3.204424,0 5.851363,1.920565 6.1875,4.40625 C 54.111832,17.252641 54.125,17.094713 54.125,16.9375 54.125,14.198127 51.338116,12 47.90625,12 z m 2,13.21875 0,1 c 0.01488,0.497551 0.298693,1.06729 0.6875,1.46875 0.09978,0.07533 8.192442,6.200116 8.21875,6.21875 0.0084,0.0065 0.02327,-0.0068 0.03125,0 0.02396,0.01835 0.04599,0.04881 0.0625,0.0625 0.0042,0.0036 0.02447,-0.006 0.03125,0 0.0068,0.006 0.03104,0.06226 0.03125,0.0625 2.6e-5,2.9e-5 0.06248,0.06248 0.0625,0.0625 0,0 10e-7,0.03125 0,0.03125 0.01173,0.01044 0.01956,0.02072 0.03125,0.03125 1.096118,0.988597 2.000001,2.355113 2,3.8125 l 0,-1 c 10e-7,-1.457387 -0.903882,-2.823903 -2,-3.8125 -0.01169,-0.01053 -0.01952,-0.02081 -0.03125,-0.03125 10e-7,10e-7 0,-0.03125 0,-0.03125 -1.6e-5,-2.1e-5 -0.06247,-0.06247 -0.0625,-0.0625 -2.08e-4,-2.41e-4 -0.02446,-0.05646 -0.03125,-0.0625 -0.0068,-0.006 -0.02707,0.0036 -0.03125,0 -0.01651,-0.01369 -0.03854,-0.04415 -0.0625,-0.0625 -0.008,-0.0068 -0.0229,0.0065 -0.03125,0 -0.02631,-0.01863 -8.118969,-6.143419 -8.21875,-6.21875 -0.388807,-0.40146 -0.672619,-0.971199 -0.6875,-1.46875 z m -3.96875,6.1875 c -0.01587,0.496942 -0.294785,1.003086 -0.6875,1.40625 -0.04962,0.03746 -2.047442,1.580482 -4.09375,3.125 -1.035812,0.781812 -2.095652,1.536843 -2.875,2.125 -0.389673,0.294078 -0.677518,0.546179 -0.90625,0.71875 -0.114367,0.08629 -0.21928,0.172022 -0.28125,0.21875 -0.03099,0.02336 -0.04624,0.01901 -0.0625,0.03125 -0.0081,0.0061 -0.02336,0.02064 -0.03125,0.03125 -0.02242,0.01758 -0.07844,0.01847 -0.09375,0.03125 -0.0046,0.0038 0.0047,0.02724 0,0.03125 -0.0075,0.0068 -0.0623,0.09351 -0.0625,0.09375 -2.8e-5,3.1e-5 -0.03124,0.03123 -0.03125,0.03125 0,10e-7 -0.03125,0.03125 -0.03125,0.03125 -0.0044,0.0039 0.0043,0.02733 0,0.03125 -0.0099,0.01973 -0.03125,0.03125 -0.03125,0.03125 -1.07951,0.986761 -1.96875,2.33918 -1.96875,3.78125 l 0,1 c 0,-1.44207 0.88924,-2.794489 1.96875,-3.78125 0,0 0.0213,-0.01152 0.03125,-0.03125 0.0043,-0.0039 -0.0044,-0.02734 0,-0.03125 0,0 0.03125,-0.03125 0.03125,-0.03125 1.5e-5,-2.1e-5 0.03122,-0.03122 0.03125,-0.03125 2.03e-4,-2.43e-4 0.05499,-0.08693 0.0625,-0.09375 0.0047,-0.004 -0.0046,-0.02742 0,-0.03125 0.01531,-0.01278 0.07133,-0.01367 0.09375,-0.03125 0.0079,-0.01061 0.02312,-0.02513 0.03125,-0.03125 0.01626,-0.01224 0.03151,-0.0079 0.0625,-0.03125 0.06197,-0.04673 0.166883,-0.132464 0.28125,-0.21875 0.228732,-0.172571 0.516577,-0.424672 0.90625,-0.71875 0.779348,-0.588157 1.839188,-1.343188 2.875,-2.125 2.046308,-1.544518 4.044131,-3.087545 4.09375,-3.125 0.392715,-0.403164 0.671626,-0.909306 0.6875,-1.40625 l 0,-1 z m 11.15625,9.625 c -1.763874,0.615722 -3,2.032105 -3,3.6875 0,0.182068 0.03337,0.355386 0.0625,0.53125 0.20676,-1.453138 1.339535,-2.660943 2.9375,-3.21875 -5.7e-5,-0.255849 1.2e-5,-0.708501 0,-1 z m 3.96875,0.03125 0,1 c 1.552786,0.565565 2.664589,1.762907 2.875,3.1875 C 63.966325,45.074136 64,44.900818 64,44.71875 64,43.086119 62.785851,41.690189 61.0625,41.0625 z M 32,46.875 l 0,1 2.78125,0 0,-1 -2.78125,0 z m 6.71875,0 c 0,0.24449 0,0.781678 0,1 l 2.8125,0 0,-1 -2.8125,0 z m 2.90625,11.8125 0.6875,1 3.625,0 0,-1 -4.3125,0 z m 8.28125,0 0,1 3.78125,0 0.6875,-1 -4.46875,0 z" display="inline" fill="#000000" fill-opacity="1" stroke="none" opacity="0.4" inkscape:connector-curvature="0"/>
   <path stroke-opacity="1" d="m 64,74.713066 c 0,-1.632631 -1.214678,-3.031399 -2.938029,-3.659088 l 0,-4.076707 c 0,-1.457386 -0.911529,-2.829584 -2.007647,-3.818181 -0.01169,-0.01054 -0.01276,-0.02933 -0.02449,-0.03977 0,0 0,-0.01989 0,-0.01989 -1.7e-5,-2.1e-5 -0.04894,-0.05963 -0.04897,-0.05966 -2.1e-4,-2.41e-4 -0.04218,-0.05362 -0.04897,-0.05966 -0.0068,-0.006 -0.0203,0.0036 -0.02448,0 -0.0042,-0.0036 0.0041,-0.01646 0,-0.01988 -0.01651,-0.01369 -0.04949,-0.02143 -0.07345,-0.03977 -0.008,-0.0068 -0.01614,-0.01341 -0.02449,-0.01989 -0.02631,-0.01864 -8.126685,-6.149101 -8.226466,-6.224432 -0.388808,-0.40146 -0.670662,-0.954154 -0.685543,-1.451705 l 0,-3.559659 c 2.454562,-0.664683 4.235656,-2.531335 4.235656,-4.713068 C 54.133129,44.212331 51.346174,42 47.914308,42 c -3.432907,0 -6.218825,2.21233 -6.218825,4.951704 3e-6,2.182165 1.779675,4.048453 4.235657,4.713068 l 0,3.519886 c 0,-0.007 4.59e-4,0.03066 0,0.03977 -4.58e-4,0.0091 -0.003,-0.0041 0,0.03977 l 0,6.144886 c -0.01587,0.496942 -0.292826,1.008768 -0.685541,1.411932 -0.04962,0.03746 -2.042443,1.557754 -4.088751,3.102272 -1.035811,0.781812 -2.085229,1.559571 -2.864577,2.147728 -0.389673,0.294078 -0.701642,0.543337 -0.930374,0.715908 -0.114367,0.08629 -0.20735,0.152136 -0.26932,0.198864 -0.03098,0.02336 -0.05719,0.02753 -0.07345,0.03977 -0.0081,0.0061 -0.0166,0.02917 -0.02448,0.03977 -0.02242,0.01758 -0.05814,0.027 -0.07345,0.03977 -0.0046,0.0038 0.0047,0.01588 0,0.01989 -0.0047,0.004 -0.01698,-0.0068 -0.02448,0 -0.0075,0.0068 -0.04876,0.0793 -0.04897,0.07955 -2.7e-5,3.1e-5 -0.04895,0.03975 -0.04897,0.03977 0,0 0,0.01989 0,0.01989 0,0 -0.02448,0.01989 -0.02448,0.01989 -0.0044,0.0039 0.0043,0.01597 0,0.01989 -0.0099,0.01973 -0.02448,0.03977 -0.02448,0.03977 -1.07951,0.986759 -1.983169,2.336337 -1.983169,3.778407 l 0,3.738637 -2.76664,0 0,7.93466 9.517343,0 0,-7.93466 -2.784368,0 c 0,-0.832356 0,-1.696898 0,-3.798291 0.01431,-0.497258 0.290637,-1.005878 0.685541,-1.411935 l 6.512624,-4.931818 0,21.97443 -4.295589,0 L 48.000303,98 l 6.366392,-9.306822 -4.469222,0 0,-28.119315 6.512624,4.911931 c 0.39014,0.402952 0.671099,0.953826 0.68554,1.451705 0,1.714333 -2.35e-4,3.049209 0,4.096591 -1.763873,0.61572 -3.011477,2.023581 -3.011477,3.678976 0,2.220106 2.236826,4.036935 4.970164,4.036935 C 61.787655,78.750001 64,76.933172 64,74.713066 z" stroke-width="3" display="inline" clip-path="url(#clipPath3520-8)" fill="none" stroke="#ffffff" stroke-dasharray="none" filter="url(#filter3536-4)" opacity="0.8" stroke-miterlimit="4" inkscape:connector-curvature="0" transform="matrix(1 0 0 1 0 -30)"/>
  </g>
  <rect x="-96" rx="25" y="958.36" clip-path="url(#clipPath3009)" fill="#ffffff" fill-opacity="1" height="92" opacity="0.15" width="92" transform="matrix(1 0 0 1 98 0)"/>
 </g>
</svg>
