<svg height="96" width="96" xmlns="http://www.w3.org/2000/svg" xmlns:sodipodi="http://sodipodi.sourceforge.net/DTD/sodipodi-0.dtd" xmlns:inkscape="http://www.inkscape.org/namespaces/inkscape">
 <rect x="8" rx="10.769" y="8" fill="#00222b" fill-opacity="1" stroke="none" height="80" opacity="0.99" width="80"/>
 <rect x="12.915" y="17.02" fill="#e6e6e6" fill-opacity="1" stroke="none" height="32.542" width="26.441"/>
 <path d="m 26.135593,21.691062 c -2.383957,0 -4.316535,1.787935 -4.316535,3.993465 0.0058,0.252758 0.0095,0.541355 0.03597,0.855743 -0.37728,0.199361 -0.426457,0.978998 -0.08993,1.764968 0.129768,0.303074 0.306761,0.549331 0.485609,0.748773 0.0059,0.0067 0.01199,0.01131 0.01799,0.01781 0.04269,0.207663 0.07427,0.37191 0.125899,0.606151 0.159942,0.475627 0.820869,1.37027 1.402875,2.139356 0.05805,0.593297 0.06281,1.179247 -0.05397,1.85411 -1.675214,1.377673 -5.959643,1.996733 -5.953221,3.422969 l -0.575536,3.708218 c 0,0.759746 1.144982,1.455377 2.967617,1.925419 l 0.251799,1.016196 a 0.62681829,0.62132586 0 0 0 0.395682,0.410043 c 0.0809,0.03103 0.137991,0.09664 0.359711,0.160451 1.167952,0.336113 2.946363,0.570492 4.94603,0.570492 1.999669,0 3.796062,-0.234379 4.964015,-0.570492 0.22172,-0.06381 0.278811,-0.129438 0.359711,-0.160451 a 0.62681829,0.62132586 0 0 0 0.377697,-0.392216 l 0.305755,-1.069678 c 1.778104,-0.4693 2.91366,-1.140717 2.91366,-1.889764 l -0.575538,-3.708215 c -0.0068,-1.220669 -4.316536,-1.996732 -5.971209,-3.422973 -0.06699,-0.546328 -0.07008,-1.084238 -0.03598,-1.622341 0.529152,-0.809098 1.225807,-1.844575 1.402874,-2.371122 0.06507,-0.272683 0.09335,-0.461141 0.143883,-0.695291 0.156259,-0.189316 0.298322,-0.408064 0.413668,-0.677462 0.319585,-0.746391 0.289747,-1.469142 -0.03597,-1.711485 0.02276,-0.324315 0.04444,-0.632045 0.05396,-0.909226 3e-6,-2.20553 -1.932574,-3.993465 -4.316531,-3.993465 z" display="inline" fill="#006680" fill-opacity="1" stroke="none" inkscape:connector-curvature="0"/>
 <g fill="#e6e6e6" fill-opacity="1" stroke="none" transform="matrix(1.01695 0 0 1.01695 -1.516 -9.07)">
  <path d="m 50.409668,29.60392 0,-1.474609 -1.499023,0 0,1.474609 -0.720215,0 0,-3.439941 0.720215,0 0,1.369628 1.499023,0 0,-1.369628 0.720215,0 0,3.439941 -0.720215,0" inkscape:connector-curvature="0"/>
  <path d="m 55.148437,27.86808 c -3e-6,0.268556 -0.03988,0.512697 -0.119628,0.732422 -0.07976,0.219727 -0.194502,0.407715 -0.344239,0.563965 -0.149742,0.15625 -0.332848,0.276693 -0.549316,0.361328 -0.214846,0.08464 -0.458173,0.126953 -0.729981,0.126953 -0.288087,0 -0.540366,-0.04394 -0.756836,-0.131836 -0.214844,-0.08952 -0.394694,-0.213216 -0.53955,-0.371094 -0.144858,-0.159504 -0.253907,-0.348306 -0.327149,-0.566406 -0.07161,-0.218098 -0.107422,-0.456541 -0.107422,-0.715332 0,-0.268553 0.03744,-0.511065 0.112305,-0.727539 0.0765,-0.216469 0.187988,-0.400388 0.334473,-0.551758 0.148111,-0.152991 0.329589,-0.270179 0.544433,-0.351562 0.21647,-0.08301 0.46468,-0.124508 0.744629,-0.124512 0.279946,4e-6 0.527342,0.04151 0.742188,0.124512 0.216468,0.08301 0.397946,0.201012 0.544433,0.354004 0.148109,0.152997 0.260414,0.33773 0.336914,0.554199 0.07649,0.214846 0.114743,0.455731 0.114746,0.722656 m -0.734863,0 c -3e-6,-0.180662 -0.02197,-0.343422 -0.06592,-0.488281 -0.04232,-0.146482 -0.105797,-0.271808 -0.190429,-0.375977 -0.08464,-0.104164 -0.189619,-0.183916 -0.314942,-0.239257 -0.1237,-0.05696 -0.267743,-0.08545 -0.432129,-0.08545 -0.167645,3e-6 -0.314943,0.02849 -0.441894,0.08545 -0.125327,0.05534 -0.230308,0.135093 -0.314942,0.239257 -0.08464,0.104169 -0.148113,0.229495 -0.190429,0.375977 -0.04232,0.144859 -0.06348,0.307619 -0.06348,0.488281 -10e-7,0.179038 0.02116,0.343426 0.06348,0.493164 0.04394,0.148113 0.108234,0.27588 0.192871,0.383301 0.08463,0.107423 0.189614,0.191244 0.314941,0.251465 0.125324,0.06022 0.270181,0.09033 0.43457,0.09033 0.17578,0 0.327147,-0.03011 0.454102,-0.09033 0.126951,-0.06185 0.231117,-0.146484 0.3125,-0.253906 0.08301,-0.109049 0.14404,-0.23763 0.183105,-0.385743 0.03906,-0.149738 0.05859,-0.312498 0.05859,-0.488281" inkscape:connector-curvature="0"/>
  <path d="m 55.69043,29.60392 0,-3.439941 0.720215,0 0,2.8833 1.845703,0 0,0.556641 -2.565918,0" inkscape:connector-curvature="0"/>
  <path d="m 61.603516,29.60392 0,-2.084961 c -4e-6,-0.08301 8.1e-4,-0.168455 0.0024,-0.256348 0.0033,-0.08789 0.0065,-0.168454 0.0098,-0.241699 0.0049,-0.08626 0.0089,-0.170082 0.01221,-0.251465 -0.03418,0.128584 -0.06674,0.250654 -0.09766,0.366211 -0.01302,0.04883 -0.02686,0.09929 -0.0415,0.151367 -0.01465,0.05209 -0.0293,0.102542 -0.04395,0.151368 -0.01302,0.04883 -0.02604,0.0944 -0.03906,0.136718 -0.01302,0.04232 -0.02442,0.07894 -0.03418,0.109864 l -0.620117,1.918945 -0.512695,0 -0.620118,-1.918945 c -0.0098,-0.03092 -0.02116,-0.06754 -0.03418,-0.109864 -0.0114,-0.04231 -0.02442,-0.08789 -0.03906,-0.136718 -0.01302,-0.04883 -0.02686,-0.09928 -0.0415,-0.151368 -0.01465,-0.05208 -0.0293,-0.102536 -0.04395,-0.151367 -0.03255,-0.115557 -0.06673,-0.237627 -0.102539,-0.366211 0.0049,0.0944 0.0098,0.187177 0.01465,0.278321 0.0033,0.07813 0.0065,0.160321 0.0098,0.246582 0.0033,0.08626 0.0049,0.161135 0.0049,0.224609 l 0,2.084961 -0.639649,0 0,-3.439941 0.964356,0 0.615234,1.923828 c 0.01627,0.05046 0.03336,0.112306 0.05127,0.185547 0.01953,0.07324 0.03825,0.144044 0.05615,0.212402 0.01953,0.07975 0.04069,0.162761 0.06348,0.249023 0.02278,-0.08463 0.04476,-0.166014 0.06592,-0.24414 0.0098,-0.03418 0.01953,-0.06917 0.0293,-0.104981 0.0098,-0.03581 0.01953,-0.0708 0.0293,-0.10498 0.0098,-0.03418 0.01953,-0.06673 0.0293,-0.09766 0.0098,-0.03092 0.01872,-0.05859 0.02686,-0.08301 l 0.605468,-1.936035 0.959473,0 0,3.439941 -0.639648,0" inkscape:connector-curvature="0"/>
  <path d="m 62.916992,29.60392 0,-3.439941 2.705078,0 0,0.55664 -1.984863,0 0,0.864258 1.835938,0 0,0.556641 -1.835938,0 0,0.905761 2.084961,0 0,0.556641 -2.805176,0" inkscape:connector-curvature="0"/>
  <path d="m 69.062012,28.612709 c -3e-6,0.156251 -0.02849,0.298666 -0.08545,0.427246 -0.05697,0.126954 -0.145673,0.236003 -0.266113,0.327149 -0.118818,0.09115 -0.271812,0.161946 -0.458984,0.212402 -0.185549,0.04883 -0.406903,0.07324 -0.664063,0.07324 -0.227866,0 -0.428875,-0.02034 -0.603027,-0.06104 -0.174155,-0.04069 -0.323894,-0.100911 -0.449219,-0.180664 -0.123698,-0.07975 -0.22461,-0.178222 -0.302734,-0.29541 -0.0765,-0.118815 -0.131836,-0.25472 -0.166016,-0.407715 l 0.695801,-0.114746 c 0.01953,0.0765 0.04801,0.146485 0.08545,0.209961 0.03743,0.06348 0.0887,0.118816 0.153809,0.166015 0.06673,0.04557 0.148924,0.08138 0.246582,0.107422 0.09928,0.02442 0.218911,0.03662 0.358887,0.03662 0.244138,1e-6 0.430499,-0.03662 0.559082,-0.109863 0.130206,-0.07487 0.19531,-0.191243 0.195312,-0.349121 -2e-6,-0.0944 -0.02604,-0.171711 -0.07813,-0.231934 -0.05209,-0.06022 -0.121259,-0.109862 -0.207519,-0.148925 -0.08626,-0.03906 -0.185549,-0.07161 -0.297852,-0.09766 -0.112306,-0.02604 -0.229494,-0.05127 -0.351562,-0.07568 -0.09766,-0.02279 -0.195314,-0.04639 -0.292969,-0.0708 -0.09766,-0.02441 -0.191245,-0.05371 -0.280762,-0.08789 -0.08789,-0.03418 -0.170085,-0.07487 -0.246582,-0.12207 -0.0765,-0.0472 -0.14323,-0.104979 -0.200195,-0.17334 -0.05534,-0.06998 -0.09928,-0.151365 -0.131836,-0.24414 -0.03092,-0.09277 -0.04639,-0.201821 -0.04639,-0.327149 0,-0.170896 0.03418,-0.31738 0.102539,-0.439453 0.06836,-0.122067 0.16276,-0.221351 0.283203,-0.297852 0.12207,-0.07812 0.266926,-0.135087 0.434571,-0.170898 0.167641,-0.0358 0.350747,-0.05371 0.549316,-0.05371 0.224607,4e-6 0.416665,0.01791 0.576172,0.05371 0.16113,0.03418 0.295407,0.08708 0.402832,0.158691 0.109047,0.07162 0.194496,0.16195 0.256348,0.270996 0.06347,0.107425 0.10986,0.233564 0.13916,0.378418 l -0.698243,0.09521 c -0.03581,-0.148109 -0.109051,-0.2596 -0.219726,-0.334472 -0.109052,-0.07487 -0.266115,-0.112302 -0.471191,-0.112305 -0.126955,3e-6 -0.232749,0.0114 -0.317383,0.03418 -0.08301,0.02116 -0.149741,0.05046 -0.200196,0.08789 -0.04883,0.03744 -0.08382,0.08138 -0.10498,0.131836 -0.02116,0.04883 -0.03174,0.100914 -0.03174,0.15625 -10e-7,0.08464 0.02034,0.154625 0.06104,0.209961 0.04069,0.05371 0.09765,0.09929 0.170898,0.136719 0.07324,0.03581 0.160318,0.06673 0.261231,0.09277 0.102537,0.02442 0.214842,0.04964 0.336914,0.07568 0.10742,0.02279 0.214028,0.0472 0.319824,0.07324 0.105792,0.02442 0.206703,0.05371 0.302734,0.08789 0.09603,0.03418 0.185545,0.07569 0.268555,0.124511 0.08301,0.04883 0.15462,0.109052 0.214844,0.180665 0.06185,0.06999 0.10986,0.15381 0.144043,0.251464 0.0358,0.09766 0.05371,0.213218 0.05371,0.34668" inkscape:connector-curvature="0"/>
 </g>
 <g fill="#e6e6e6" fill-opacity="1" stroke="none" transform="matrix(1.01695 0 0 1.01695 -1.322 -9.07)">
  <path d="m 50.995605,34.612709 c -3e-6,0.156251 -0.02849,0.298666 -0.08545,0.427246 -0.05697,0.126954 -0.145673,0.236003 -0.266113,0.327149 -0.118818,0.09115 -0.271812,0.161946 -0.458984,0.212402 -0.185549,0.04883 -0.406903,0.07324 -0.664063,0.07324 -0.227866,0 -0.428875,-0.02035 -0.603027,-0.06104 -0.174155,-0.04069 -0.323894,-0.100911 -0.449219,-0.180664 -0.123698,-0.07975 -0.22461,-0.178222 -0.302734,-0.29541 C 48.089518,34.996824 48.03418,34.860919 48,34.707924 l 0.695801,-0.114746 c 0.01953,0.0765 0.04801,0.146485 0.08545,0.209961 0.03743,0.06348 0.0887,0.118816 0.153809,0.166015 0.06673,0.04557 0.148924,0.08138 0.246582,0.107422 0.09928,0.02441 0.218911,0.03662 0.358886,0.03662 0.244139,10e-7 0.4305,-0.03662 0.559082,-0.109863 0.130206,-0.07487 0.19531,-0.191243 0.195313,-0.349121 -3e-6,-0.0944 -0.02604,-0.171711 -0.07813,-0.231934 -0.05209,-0.06022 -0.121259,-0.109862 -0.20752,-0.148925 -0.08626,-0.03906 -0.185548,-0.07161 -0.297851,-0.09766 -0.112307,-0.02604 -0.229494,-0.05127 -0.351563,-0.07568 -0.09766,-0.02278 -0.195314,-0.04639 -0.292968,-0.0708 -0.09766,-0.02441 -0.191245,-0.05371 -0.280762,-0.08789 -0.08789,-0.03418 -0.170086,-0.07487 -0.246582,-0.12207 -0.0765,-0.0472 -0.14323,-0.104979 -0.200196,-0.17334 -0.05534,-0.06999 -0.09928,-0.151365 -0.131835,-0.24414 -0.03093,-0.09277 -0.04639,-0.201821 -0.04639,-0.327149 0,-0.170896 0.03418,-0.31738 0.102539,-0.439453 0.06836,-0.122067 0.16276,-0.221351 0.283203,-0.297852 0.122069,-0.07812 0.266926,-0.135087 0.43457,-0.170898 0.167642,-0.0358 0.350748,-0.05371 0.549317,-0.05371 0.224607,4e-6 0.416664,0.01791 0.576172,0.05371 0.16113,0.03418 0.295407,0.08708 0.402832,0.158691 0.109046,0.07162 0.194495,0.16195 0.256347,0.270996 0.06347,0.107425 0.109861,0.233564 0.13916,0.378418 l -0.698242,0.09522 c -0.03581,-0.148109 -0.109051,-0.2596 -0.219726,-0.334472 -0.109052,-0.07487 -0.266115,-0.112302 -0.471192,-0.112305 -0.126954,3e-6 -0.232749,0.0114 -0.317383,0.03418 -0.08301,0.02116 -0.14974,0.05046 -0.200195,0.08789 -0.04883,0.03744 -0.08382,0.08138 -0.10498,0.131836 -0.02116,0.04883 -0.03174,0.100914 -0.03174,0.15625 -1e-6,0.08464 0.02034,0.154625 0.06104,0.209961 0.04069,0.05371 0.09766,0.09929 0.170898,0.136719 0.07324,0.03581 0.160318,0.06673 0.26123,0.09277 0.102538,0.02442 0.214843,0.04964 0.336915,0.07568 0.107419,0.02279 0.214027,0.0472 0.319824,0.07324 0.105792,0.02442 0.206703,0.05371 0.302734,0.08789 0.09603,0.03418 0.185544,0.07569 0.268555,0.124511 0.08301,0.04883 0.154619,0.109052 0.214844,0.180665 0.06185,0.06999 0.10986,0.15381 0.144043,0.251464 0.0358,0.09766 0.05371,0.213218 0.05371,0.34668" inkscape:connector-curvature="0"/>
  <path d="m 52.221191,33.489662 c 0.09277,-0.20182 0.209146,-0.348305 0.349121,-0.439453 0.139973,-0.09114 0.306802,-0.136716 0.500489,-0.136719 0.159503,3e-6 0.29378,0.02604 0.402832,0.07813 0.110675,0.05209 0.200193,0.123701 0.268554,0.214844 0.06998,0.09115 0.120441,0.19857 0.151368,0.322266 0.03092,0.1237 0.04638,0.257163 0.04639,0.40039 l 0,1.674805 -0.683593,0 0,-1.479492 c -2e-6,-0.102538 -0.0081,-0.196125 -0.02441,-0.280762 -0.01628,-0.08626 -0.04313,-0.159503 -0.08057,-0.219726 -0.03744,-0.06185 -0.08626,-0.109862 -0.146484,-0.144043 -0.06022,-0.03418 -0.133465,-0.05127 -0.219727,-0.05127 -0.08301,2e-6 -0.158693,0.01872 -0.227051,0.05615 -0.06673,0.03581 -0.124512,0.08789 -0.173339,0.15625 -0.04883,0.06673 -0.08708,0.1473 -0.114746,0.2417 -0.02604,0.09278 -0.03906,0.195314 -0.03906,0.307617 l 0,1.413574 -0.686035,0 0,-3.623047 0.686035,0 0,0.98877 c -10e-7,0.05209 -8.15e-4,0.104983 -0.0024,0.158691 -0.0016,0.05209 -0.0041,0.101728 -0.0073,0.148926 -0.0016,0.04557 -0.0033,0.08708 -0.0049,0.124512 -0.0016,0.03744 -0.0033,0.06673 -0.0049,0.08789 l 0.0098,0" inkscape:connector-curvature="0"/>
  <path d="m 55.683105,35.652748 c -0.19043,0 -0.362143,-0.02767 -0.515136,-0.08301 -0.151368,-0.05697 -0.280763,-0.142415 -0.388184,-0.256347 -0.107422,-0.11556 -0.189616,-0.259603 -0.246582,-0.432129 -0.05697,-0.174153 -0.08545,-0.377603 -0.08545,-0.610352 0,-0.252277 0.03337,-0.464679 0.100098,-0.637207 0.06836,-0.172524 0.159504,-0.311684 0.273437,-0.41748 0.115559,-0.10742 0.248209,-0.184731 0.397949,-0.231934 0.149739,-0.0472 0.307616,-0.0708 0.473633,-0.0708 0.208332,3e-6 0.38574,0.03662 0.532227,0.109864 0.14811,0.07162 0.269366,0.172528 0.363769,0.302734 0.0944,0.13021 0.163572,0.28646 0.20752,0.46875 0.04394,0.180666 0.06591,0.380861 0.06592,0.600586 l 0,0.01953 -1.694336,0 c -10e-7,0.110678 0.0098,0.214031 0.0293,0.310059 0.01953,0.0944 0.05127,0.176595 0.09521,0.246582 0.04395,0.06836 0.100911,0.122884 0.170899,0.163574 0.06999,0.03906 0.154621,0.05859 0.253906,0.05859 0.120441,0 0.218911,-0.02523 0.29541,-0.07568 0.0765,-0.05208 0.131021,-0.131835 0.163575,-0.239258 l 0.646972,0.05615 c -0.0293,0.07487 -0.0708,0.154623 -0.124512,0.239257 -0.05208,0.08464 -0.122072,0.162761 -0.20996,0.234375 -0.08789,0.06999 -0.197756,0.128581 -0.32959,0.175782 -0.13021,0.04557 -0.288902,0.06836 -0.476075,0.06836 m 0,-2.307129 c -0.06999,2e-6 -0.135906,0.01221 -0.197753,0.03662 -0.06022,0.02279 -0.11312,0.06022 -0.158692,0.112305 -0.04395,0.05046 -0.07975,0.116376 -0.107422,0.197754 -0.02767,0.08138 -0.04313,0.179038 -0.04639,0.292969 l 1.02539,0 c -0.01302,-0.213215 -0.06429,-0.37272 -0.153808,-0.478516 -0.08952,-0.10742 -0.209963,-0.161131 -0.361329,-0.161133" inkscape:connector-curvature="0"/>
  <path d="m 57.384766,35.60392 0,-2.021484 c -10e-7,-0.05696 -8.15e-4,-0.117186 -0.0024,-0.180664 0,-0.06348 -0.0016,-0.123696 -0.0049,-0.180665 -0.0016,-0.05859 -0.0033,-0.110674 -0.0049,-0.15625 -0.0016,-0.0472 -0.0041,-0.08138 -0.0073,-0.102539 l 0.654297,0 c 0.0033,0.01953 0.0065,0.05371 0.0098,0.102539 0.0033,0.0472 0.0065,0.09929 0.0098,0.15625 0.0033,0.05697 0.0057,0.113935 0.0073,0.170899 0.0033,0.05534 0.0049,0.1001 0.0049,0.134277 l 0.0098,0 c 0.03418,-0.09603 0.06836,-0.181475 0.102539,-0.256347 0.03418,-0.0765 0.07406,-0.140786 0.119629,-0.192871 0.0472,-0.05371 0.103352,-0.0944 0.168457,-0.122071 0.0651,-0.02929 0.145669,-0.04394 0.241699,-0.04395 0.04069,3e-6 0.08057,0.0041 0.119629,0.01221 0.04069,0.0065 0.07161,0.01465 0.09277,0.02441 l 0,0.57373 c -0.04395,-0.0098 -0.08871,-0.0179 -0.134278,-0.02441 -0.04395,-0.0081 -0.09684,-0.01221 -0.158691,-0.01221 -0.1709,2e-6 -0.304363,0.06918 -0.400391,0.20752 -0.0944,0.138348 -0.141602,0.343426 -0.141601,0.615234 l 0,1.296387 -0.686035,0" inkscape:connector-curvature="0"/>
  <path d="m 59.328125,35.60392 0,-3.623047 0.686035,0 0,3.623047 -0.686035,0" inkscape:connector-curvature="0"/>
  <path d="m 63.224609,34.280678 c -2e-6,0.201824 -0.02849,0.386557 -0.08545,0.554199 -0.05534,0.167644 -0.139163,0.3125 -0.251465,0.43457 -0.112307,0.120443 -0.252281,0.214844 -0.419922,0.283203 -0.167645,0.06673 -0.362957,0.100098 -0.585937,0.100098 -0.214845,0 -0.404461,-0.03337 -0.568848,-0.100098 -0.164389,-0.06673 -0.302735,-0.160318 -0.415039,-0.280761 -0.110677,-0.120443 -0.194499,-0.264485 -0.251465,-0.432129 -0.05697,-0.16927 -0.08545,-0.355631 -0.08545,-0.559082 0,-0.196939 0.02686,-0.378416 0.08057,-0.544434 0.05534,-0.167641 0.138346,-0.312498 0.249023,-0.43457 0.110676,-0.122068 0.249836,-0.217283 0.41748,-0.285645 0.167643,-0.06836 0.363769,-0.102536 0.588379,-0.102539 0.237629,3e-6 0.440265,0.03418 0.607911,0.102539 0.16764,0.06836 0.304359,0.163577 0.410156,0.285645 0.107419,0.120445 0.185544,0.264488 0.234375,0.432129 0.05045,0.166017 0.07568,0.348309 0.07568,0.546875 m -0.717773,0 c -2e-6,-0.314126 -0.05127,-0.541991 -0.153809,-0.683594 -0.102541,-0.141599 -0.251466,-0.2124 -0.446777,-0.212402 -0.201824,2e-6 -0.356446,0.07162 -0.463867,0.214843 -0.107423,0.143231 -0.161134,0.370282 -0.161133,0.681153 -10e-7,0.157879 0.01383,0.293783 0.0415,0.407715 0.0293,0.113933 0.06999,0.20752 0.12207,0.280761 0.05208,0.07324 0.114745,0.127768 0.187988,0.163575 0.07324,0.03418 0.153808,0.05127 0.2417,0.05127 0.10091,10e-7 0.190428,-0.01709 0.268554,-0.05127 0.07975,-0.03581 0.146483,-0.09033 0.200196,-0.163575 0.05371,-0.07324 0.0944,-0.166828 0.12207,-0.280761 0.02767,-0.113932 0.0415,-0.249836 0.0415,-0.407715" inkscape:connector-curvature="0"/>
  <path d="m 64.872559,35.652748 c -0.209963,0 -0.393882,-0.03255 -0.551758,-0.09766 -0.156251,-0.0651 -0.286459,-0.157064 -0.390625,-0.275879 -0.104167,-0.118815 -0.182292,-0.26123 -0.234375,-0.427246 -0.05208,-0.167642 -0.07813,-0.352375 -0.07813,-0.554199 0,-0.219725 0.02848,-0.415038 0.08545,-0.585938 0.05697,-0.172524 0.13916,-0.31738 0.246582,-0.43457 0.107421,-0.118813 0.239257,-0.209145 0.395508,-0.270996 0.157876,-0.06185 0.336913,-0.09277 0.537109,-0.09277 0.170897,3e-6 0.322264,0.02279 0.454102,0.06836 0.133461,0.04557 0.248207,0.108238 0.344238,0.187988 0.09603,0.07813 0.173337,0.170901 0.231934,0.27832 0.06022,0.107424 0.101722,0.222984 0.124511,0.34668 l -0.690918,0.03418 c -0.01953,-0.13509 -0.06836,-0.242511 -0.146484,-0.322266 -0.07813,-0.08138 -0.188804,-0.122068 -0.332031,-0.12207 -0.183921,2e-6 -0.318198,0.07569 -0.402832,0.22705 -0.08464,0.15137 -0.126954,0.371096 -0.126953,0.65918 -10e-7,0.608725 0.179849,0.913087 0.53955,0.913086 0.130207,10e-7 0.239257,-0.04069 0.327149,-0.12207 0.08789,-0.08301 0.142413,-0.205891 0.163574,-0.368653 l 0.688477,0.03174 c -0.01628,0.122071 -0.05371,0.239258 -0.112305,0.351562 -0.05697,0.110678 -0.135094,0.209148 -0.234375,0.29541 -0.09766,0.08464 -0.216473,0.152995 -0.356445,0.205079 -0.139976,0.05045 -0.300295,0.07568 -0.480957,0.07568" inkscape:connector-curvature="0"/>
  <path d="m 68.241699,35.60392 -0.705566,-1.196289 -0.29541,0.205078 0,0.991211 -0.686036,0 0,-3.623047 0.686036,0 0,2.075195 0.942382,-1.09375 0.737305,0 -0.927734,1.030274 0.998535,1.611328 -0.749512,0" inkscape:connector-curvature="0"/>
 </g>
 <g fill="#e6e6e6" fill-opacity="1" stroke="none" transform="matrix(1.01695 0 0 1.01695 -1.38 -9.865)">
  <path d="m 48.057129,43.60392 0,-0.248047 c 0.06641,-0.152343 0.147135,-0.286458 0.242187,-0.402344 0.09635,-0.117186 0.197265,-0.222655 0.302735,-0.316406 0.105468,-0.09505 0.209634,-0.182941 0.3125,-0.263672 0.104165,-0.08073 0.197915,-0.161457 0.28125,-0.242187 0.08333,-0.08073 0.150389,-0.165363 0.201172,-0.253907 0.05208,-0.08854 0.07812,-0.1888 0.07813,-0.300781 -2e-6,-0.07812 -0.01172,-0.146482 -0.03516,-0.205078 -0.02344,-0.05989 -0.05729,-0.110024 -0.101562,-0.150391 -0.04427,-0.04036 -0.09766,-0.07031 -0.160156,-0.08984 -0.0612,-0.02083 -0.129559,-0.03125 -0.205078,-0.03125 -0.07031,2e-6 -0.13672,0.0098 -0.199219,0.0293 -0.0612,0.01953 -0.115886,0.04883 -0.164063,0.08789 -0.04818,0.03906 -0.08789,0.08789 -0.11914,0.146485 -0.02995,0.05729 -0.04948,0.124351 -0.05859,0.201171 l -0.359375,-0.0332 c 0.01172,-0.09896 0.03906,-0.192055 0.08203,-0.279297 0.04297,-0.08724 0.102213,-0.163408 0.177735,-0.228515 0.07552,-0.0664 0.166015,-0.118487 0.271484,-0.15625 0.10677,-0.03776 0.229817,-0.05664 0.369141,-0.05664 0.136717,3e-6 0.258462,0.01628 0.365234,0.04883 0.106769,0.03255 0.196613,0.08073 0.269531,0.144532 0.07422,0.0638 0.130858,0.14258 0.169922,0.236328 0.03906,0.09375 0.05859,0.201825 0.05859,0.324218 -2e-6,0.09245 -0.01693,0.180341 -0.05078,0.263672 -0.03255,0.08333 -0.07682,0.162762 -0.132813,0.238282 -0.05469,0.07552 -0.118491,0.148438 -0.191406,0.21875 -0.07292,0.07031 -0.14909,0.139324 -0.228516,0.207031 -0.07943,0.06641 -0.159506,0.132813 -0.240234,0.199219 -0.08073,0.0651 -0.156902,0.13086 -0.228516,0.197265 -0.07031,0.06641 -0.133464,0.134115 -0.189453,0.203125 -0.05599,0.06771 -0.09961,0.138672 -0.130859,0.212891 l 1.435547,0 0,0.298828 -1.822266,0" inkscape:connector-curvature="0"/>
  <path d="m 50.283691,43.60392 0,-0.248047 c 0.06641,-0.152343 0.147135,-0.286458 0.242188,-0.402344 0.09635,-0.117186 0.197265,-0.222655 0.302734,-0.316406 0.105468,-0.09505 0.209635,-0.182941 0.3125,-0.263672 0.104166,-0.08073 0.197916,-0.161457 0.28125,-0.242187 0.08333,-0.08073 0.150389,-0.165363 0.201172,-0.253907 0.05208,-0.08854 0.07812,-0.1888 0.07813,-0.300781 -10e-7,-0.07812 -0.01172,-0.146482 -0.03516,-0.205078 -0.02344,-0.05989 -0.05729,-0.110024 -0.101563,-0.150391 -0.04427,-0.04036 -0.09766,-0.07031 -0.160156,-0.08984 -0.0612,-0.02083 -0.129558,-0.03125 -0.205078,-0.03125 -0.07031,2e-6 -0.13672,0.0098 -0.199219,0.0293 -0.0612,0.01953 -0.115886,0.04883 -0.164062,0.08789 -0.04818,0.03906 -0.08789,0.08789 -0.119141,0.146485 -0.02995,0.05729 -0.04948,0.124351 -0.05859,0.201171 l -0.359375,-0.0332 c 0.01172,-0.09896 0.03906,-0.192055 0.08203,-0.279297 0.04297,-0.08724 0.102213,-0.163408 0.177734,-0.228515 0.07552,-0.0664 0.166015,-0.118487 0.271484,-0.15625 0.10677,-0.03776 0.229817,-0.05664 0.369141,-0.05664 0.136718,3e-6 0.258462,0.01628 0.365234,0.04883 0.10677,0.03255 0.196613,0.08073 0.269532,0.144532 0.07422,0.0638 0.130857,0.14258 0.169922,0.236328 0.03906,0.09375 0.05859,0.201825 0.05859,0.324218 -2e-6,0.09245 -0.01693,0.180341 -0.05078,0.263672 -0.03255,0.08333 -0.07682,0.162762 -0.132812,0.238282 -0.05469,0.07552 -0.118492,0.148438 -0.191407,0.21875 -0.07292,0.07031 -0.14909,0.139324 -0.228515,0.207031 -0.07943,0.06641 -0.159507,0.132813 -0.240235,0.199219 -0.08073,0.0651 -0.156902,0.13086 -0.228515,0.197265 -0.07031,0.06641 -0.133465,0.134115 -0.189453,0.203125 -0.05599,0.06771 -0.09961,0.138672 -0.13086,0.212891 l 1.435547,0 0,0.298828 -1.822266,0" inkscape:connector-curvature="0"/>
  <path d="m 52.61377,43.60392 0,-0.298828 0.701171,0 0,-2.117188 -0.621093,0.44336 0,-0.332032 0.65039,-0.447265 0.324219,0 0,2.453125 0.669922,0 0,0.298828 -1.724609,0" inkscape:connector-curvature="0"/>
  <path d="m 56.592285,42.537514 c -2e-6,0.736979 -0.259116,1.105468 -0.777344,1.105468 -0.160157,0 -0.29362,-0.02865 -0.40039,-0.08594 -0.10547,-0.05859 -0.191407,-0.152344 -0.257813,-0.28125 l -0.0039,0 c -1e-6,0.03385 -0.0013,0.06901 -0.0039,0.105469 -0.0013,0.03646 -0.0033,0.07031 -0.0059,0.101562 -0.0013,0.03125 -0.0033,0.05794 -0.0059,0.08008 -0.0013,0.02214 -0.0026,0.03581 -0.0039,0.04102 l -0.339844,0 c 0.0013,-0.01172 0.0026,-0.03125 0.0039,-0.05859 0.0013,-0.02865 0.0026,-0.0625 0.0039,-0.101562 0.0013,-0.03906 0.002,-0.08203 0.002,-0.128907 0.0013,-0.04687 0.002,-0.0957 0.002,-0.146484 l 0,-2.462891 0.351562,0 0,0.826172 c 0,0.03906 -6.51e-4,0.07682 -0.002,0.113282 0,0.03516 -6.52e-4,0.06641 -0.002,0.09375 -0.0013,0.03255 -0.0026,0.06315 -0.0039,0.0918 l 0.0078,0 c 0.0651,-0.135414 0.151041,-0.232419 0.257813,-0.291015 0.108072,-0.05859 0.241535,-0.08789 0.40039,-0.08789 0.266926,2e-6 0.462889,0.08985 0.587891,0.269531 0.1263,0.17969 0.189451,0.451825 0.189453,0.816407 m -0.36914,0.01172 c -2e-6,-0.145832 -0.0091,-0.270832 -0.02734,-0.375 -0.01823,-0.104165 -0.04753,-0.189451 -0.08789,-0.255859 -0.04037,-0.06771 -0.0918,-0.117186 -0.154297,-0.148437 -0.0625,-0.03125 -0.138673,-0.04687 -0.228515,-0.04687 -0.09245,10e-7 -0.174481,0.01497 -0.246094,0.04492 -0.07031,0.02995 -0.129558,0.07813 -0.177734,0.144532 -0.04688,0.06641 -0.08268,0.153647 -0.107422,0.261718 -0.02474,0.108075 -0.03711,0.240236 -0.03711,0.396485 0,0.151042 0.01237,0.277995 0.03711,0.380859 0.02474,0.102865 0.06055,0.18685 0.107422,0.251953 0.04818,0.0638 0.107421,0.110027 0.177734,0.138672 0.07031,0.02734 0.15104,0.04102 0.242187,0.04102 0.08594,0 0.160155,-0.01497 0.222657,-0.04492 0.0625,-0.02995 0.114581,-0.07813 0.15625,-0.144531 0.04166,-0.06641 0.07226,-0.152343 0.0918,-0.257813 0.02083,-0.10677 0.03125,-0.235676 0.03125,-0.386719" inkscape:connector-curvature="0"/>
  <path d="m 60.328613,42.828529 c -2e-6,0.139324 -0.02735,0.258464 -0.08203,0.357422 -0.05469,0.09766 -0.128257,0.177735 -0.220703,0.240235 -0.09245,0.0612 -0.199872,0.106119 -0.322266,0.134765 -0.122397,0.02865 -0.251303,0.04297 -0.386718,0.04297 l -1.117188,0 0,-2.751953 1,0 c 0.152342,3e-6 0.28841,0.01302 0.408203,0.03906 0.11979,0.02474 0.221352,0.06446 0.304688,0.119141 0.08333,0.05469 0.146482,0.124351 0.189453,0.208984 0.04427,0.08334 0.0664,0.183596 0.06641,0.300782 -2e-6,0.07682 -0.01107,0.14909 -0.0332,0.216796 -0.02084,0.06771 -0.05339,0.12956 -0.09766,0.185547 -0.04297,0.05469 -0.09766,0.102215 -0.164063,0.142578 -0.06511,0.03906 -0.141278,0.06836 -0.228515,0.08789 0.110675,0.01302 0.208331,0.03841 0.292968,0.07617 0.08594,0.03776 0.15755,0.08594 0.214844,0.144531 0.05729,0.05859 0.100909,0.126954 0.130859,0.205078 0.02995,0.07682 0.04492,0.160157 0.04492,0.25 m -0.535156,-1.263672 c -2e-6,-0.148435 -0.05078,-0.254555 -0.152344,-0.318359 -0.101564,-0.0638 -0.248699,-0.0957 -0.441406,-0.0957 l -0.626953,0 0,0.871094 0.626953,0 c 0.109374,1e-6 0.201821,-0.01042 0.277344,-0.03125 0.07552,-0.02213 0.136717,-0.05273 0.183594,-0.0918 0.04687,-0.04036 0.08073,-0.08854 0.101562,-0.144531 0.02083,-0.05599 0.03125,-0.119139 0.03125,-0.189454 m 0.158203,1.234375 c -2e-6,-0.08724 -0.01628,-0.161457 -0.04883,-0.222656 -0.03125,-0.0612 -0.07682,-0.111327 -0.136719,-0.15039 -0.0599,-0.03906 -0.132163,-0.06771 -0.216797,-0.08594 -0.08333,-0.01823 -0.177084,-0.02734 -0.28125,-0.02734 l -0.695312,0 0,0.992188 0.724609,0 c 0.09505,0 0.18229,-0.0078 0.261719,-0.02344 0.08073,-0.01562 0.149738,-0.04297 0.207031,-0.08203 0.05859,-0.03906 0.104165,-0.09115 0.136719,-0.15625 0.03255,-0.0651 0.04883,-0.146484 0.04883,-0.244141" inkscape:connector-curvature="0"/>
  <path d="m 61.352051,43.642982 c -0.21224,0 -0.371745,-0.05599 -0.478516,-0.167968 -0.106771,-0.111979 -0.160156,-0.265625 -0.160156,-0.460938 0,-0.139322 0.02604,-0.253254 0.07813,-0.341797 0.05338,-0.08984 0.122395,-0.160155 0.207031,-0.210937 0.08594,-0.05078 0.183593,-0.08594 0.292969,-0.105469 0.109374,-0.01953 0.220702,-0.0306 0.333984,-0.0332 l 0.47461,-0.0078 0,-0.115234 c -2e-6,-0.08724 -0.0091,-0.161457 -0.02734,-0.222656 -0.01823,-0.0612 -0.04623,-0.110675 -0.08398,-0.148438 -0.03776,-0.03776 -0.08529,-0.0651 -0.142579,-0.08203 -0.05599,-0.01823 -0.122397,-0.02734 -0.199218,-0.02734 -0.06771,2e-6 -0.128908,0.0052 -0.183594,0.01563 -0.05469,0.0091 -0.102214,0.02669 -0.142578,0.05273 -0.04037,0.02474 -0.07292,0.05925 -0.09766,0.103515 -0.02474,0.04297 -0.04102,0.09766 -0.04883,0.164063 l -0.367187,-0.0332 c 0.01302,-0.08333 0.03776,-0.159504 0.07422,-0.228516 0.03646,-0.07031 0.08789,-0.130857 0.154297,-0.181641 0.06771,-0.05078 0.151692,-0.08984 0.251953,-0.117187 0.101561,-0.02864 0.223957,-0.04297 0.367187,-0.04297 0.265624,2e-6 0.465493,0.0612 0.59961,0.183594 0.134112,0.121096 0.201169,0.296877 0.201171,0.527344 l 0,0.910156 c -2e-6,0.104167 0.01367,0.182943 0.04102,0.236328 0.02734,0.05208 0.07943,0.07813 0.15625,0.07813 0.01953,0 0.03906,-0.0013 0.05859,-0.0039 0.01953,-0.0026 0.03841,-0.0059 0.05664,-0.0098 l 0,0.21875 c -0.04427,0.01042 -0.08854,0.01823 -0.132812,0.02344 -0.04297,0.0052 -0.0892,0.0078 -0.138672,0.0078 -0.06641,0 -0.1237,-0.0085 -0.171875,-0.02539 -0.04688,-0.01823 -0.08529,-0.04492 -0.115234,-0.08008 -0.02995,-0.03646 -0.05274,-0.08073 -0.06836,-0.132812 -0.01563,-0.05338 -0.02539,-0.115234 -0.0293,-0.185547 l -0.01172,0 c -0.03776,0.06771 -0.07943,0.128907 -0.125,0.183594 -0.04427,0.05469 -0.09636,0.101562 -0.15625,0.140625 -0.0599,0.03776 -0.128257,0.06706 -0.205078,0.08789 -0.07552,0.02083 -0.162762,0.03125 -0.261719,0.03125 m 0.08008,-0.263671 c 0.111978,0 0.209634,-0.02018 0.292969,-0.06055 0.08463,-0.04167 0.154295,-0.0944 0.208984,-0.158203 0.05599,-0.0638 0.09766,-0.133463 0.125,-0.208985 0.02734,-0.07552 0.04101,-0.147785 0.04102,-0.216797 l 0,-0.173828 -0.384766,0.0078 c -0.08594,0.0013 -0.16797,0.0078 -0.246094,0.01953 -0.07682,0.01042 -0.144532,0.0319 -0.203125,0.06445 -0.05859,0.03255 -0.105469,0.07813 -0.140625,0.136719 -0.03385,0.05859 -0.05078,0.135417 -0.05078,0.230469 -10e-7,0.114583 0.0306,0.203125 0.0918,0.265625 0.0625,0.0625 0.151041,0.09375 0.265625,0.09375" inkscape:connector-curvature="0"/>
  <path d="m 64.36377,43.60392 -0.714844,-0.964844 -0.257813,0.212891 0,0.751953 -0.351562,0 0,-2.898438 0.351562,0 0,1.810547 0.927735,-1.02539 0.412109,0 -0.857422,0.908203 0.902344,1.205078 -0.412109,0" inkscape:connector-curvature="0"/>
  <path d="m 65.309082,42.621498 c -10e-7,0.110678 0.01107,0.212892 0.0332,0.306641 0.02344,0.09245 0.05859,0.172526 0.105469,0.240234 0.04818,0.06641 0.109374,0.11849 0.183594,0.15625 0.07422,0.03646 0.16341,0.05469 0.267578,0.05469 0.152342,0 0.274087,-0.0306 0.365234,-0.0918 0.09245,-0.0612 0.154946,-0.138672 0.1875,-0.232422 l 0.308594,0.08789 c -0.02214,0.05859 -0.05339,0.117839 -0.09375,0.177735 -0.03906,0.05859 -0.0918,0.111979 -0.158203,0.160156 -0.06641,0.04687 -0.149741,0.08594 -0.25,0.117188 -0.09896,0.02995 -0.218751,0.04492 -0.359375,0.04492 -0.312501,0 -0.550782,-0.0931 -0.714844,-0.279296 -0.162761,-0.186198 -0.244141,-0.46289 -0.244141,-0.830079 0,-0.197915 0.02474,-0.365232 0.07422,-0.501953 0.04948,-0.138019 0.117187,-0.249998 0.203125,-0.335937 0.08594,-0.08594 0.186197,-0.147785 0.300781,-0.185547 0.114583,-0.03906 0.236979,-0.05859 0.367188,-0.05859 0.177082,2e-6 0.324868,0.02865 0.443359,0.08594 0.11979,0.05729 0.215493,0.13672 0.28711,0.238281 0.07291,0.100262 0.124347,0.218752 0.154297,0.355469 0.03125,0.13672 0.04687,0.284506 0.04687,0.443359 l 0,0.04687 -1.507813,0 m 1.144531,-0.269531 c -0.01953,-0.222655 -0.07617,-0.384764 -0.169922,-0.486328 -0.09375,-0.102863 -0.228517,-0.154295 -0.404296,-0.154297 -0.05859,2e-6 -0.120444,0.0098 -0.185547,0.0293 -0.0638,0.01823 -0.123048,0.05143 -0.177735,0.09961 -0.05469,0.04818 -0.100912,0.113934 -0.138672,0.197266 -0.03776,0.08203 -0.05925,0.18685 -0.06445,0.314453 l 1.140625,0" inkscape:connector-curvature="0"/>
  <path d="m 67.273926,43.60392 0,-1.621094 c 0,-0.04427 -6.52e-4,-0.08919 -0.002,-0.134765 -10e-7,-0.04687 -6.52e-4,-0.0918 -0.002,-0.134766 -0.0013,-0.04297 -0.0026,-0.08333 -0.0039,-0.121094 -0.0013,-0.03776 -0.0026,-0.07161 -0.0039,-0.101562 l 0.332031,0 c 0.0013,0.02995 0.0026,0.06445 0.0039,0.103515 0.0026,0.03776 0.0046,0.07682 0.0059,0.117188 0.0026,0.04037 0.0039,0.07943 0.0039,0.117187 0.0013,0.03646 0.002,0.06771 0.002,0.09375 l 0.0078,0 c 0.02474,-0.08073 0.05078,-0.150388 0.07813,-0.208984 0.02864,-0.05989 0.06185,-0.108722 0.09961,-0.146484 0.03776,-0.03906 0.08268,-0.06771 0.134766,-0.08594 0.05208,-0.01953 0.115233,-0.0293 0.189453,-0.0293 0.02864,2e-6 0.05599,0.0026 0.08203,0.0078 0.02604,0.0039 0.04622,0.0078 0.06055,0.01172 l 0,0.322266 c -0.02344,-0.0065 -0.05078,-0.01107 -0.08203,-0.01367 -0.03125,-0.0039 -0.06641,-0.0059 -0.105469,-0.0059 -0.08073,2e-6 -0.14974,0.01823 -0.207031,0.05469 -0.05599,0.03646 -0.102215,0.08724 -0.138672,0.152344 -0.03516,0.0638 -0.0612,0.140627 -0.07813,0.230469 -0.01693,0.08854 -0.02539,0.185548 -0.02539,0.291015 l 0,1.101563 -0.351562,0" inkscape:connector-curvature="0"/>
  <path d="m 71.92627,42.844154 c -3e-6,0.115886 -0.02279,0.222657 -0.06836,0.320313 -0.04427,0.09766 -0.113283,0.182292 -0.207031,0.253906 -0.09375,0.07031 -0.212242,0.125651 -0.355469,0.166016 -0.141929,0.03906 -0.310548,0.05859 -0.505859,0.05859 -0.342449,0 -0.609376,-0.0599 -0.800781,-0.179687 -0.191407,-0.119791 -0.313152,-0.292968 -0.365235,-0.519531 l 0.361328,-0.07227 c 0.01823,0.07161 0.04622,0.136719 0.08398,0.195313 0.03776,0.05859 0.08854,0.109375 0.152343,0.152343 0.0651,0.04167 0.145182,0.07422 0.240235,0.09766 0.09505,0.02344 0.208983,0.03516 0.341797,0.03516 0.110675,0 0.212238,-0.0091 0.304687,-0.02734 0.09245,-0.01953 0.171873,-0.04883 0.238281,-0.08789 0.0664,-0.03906 0.117837,-0.08919 0.154297,-0.15039 0.03776,-0.0625 0.05664,-0.136718 0.05664,-0.222656 -2e-6,-0.08984 -0.02084,-0.16276 -0.0625,-0.21875 -0.04037,-0.05599 -0.09766,-0.102213 -0.171875,-0.138672 -0.07422,-0.03646 -0.162762,-0.06706 -0.265625,-0.0918 -0.102866,-0.02474 -0.216798,-0.05143 -0.341797,-0.08008 -0.07682,-0.01693 -0.154298,-0.03516 -0.232422,-0.05469 -0.07682,-0.02083 -0.151042,-0.04492 -0.222656,-0.07227 -0.07031,-0.02865 -0.13672,-0.06185 -0.199219,-0.09961 -0.0625,-0.03776 -0.116537,-0.08268 -0.162109,-0.134765 -0.04557,-0.05338 -0.08138,-0.114582 -0.107422,-0.183594 -0.02604,-0.07031 -0.03906,-0.15104 -0.03906,-0.242188 0,-0.130206 0.02604,-0.241534 0.07813,-0.333984 0.05338,-0.09375 0.126953,-0.17057 0.220704,-0.230469 0.09375,-0.05989 0.204426,-0.103513 0.332031,-0.130859 0.127603,-0.02734 0.265624,-0.04101 0.414062,-0.04102 0.170572,3e-6 0.316405,0.01367 0.4375,0.04102 0.121092,0.02604 0.223306,0.06576 0.306641,0.11914 0.08333,0.05339 0.149737,0.119795 0.199219,0.199219 0.05078,0.07813 0.09114,0.169273 0.121093,0.273438 l -0.367187,0.06445 c -0.01823,-0.0664 -0.04492,-0.125649 -0.08008,-0.177735 -0.03386,-0.05208 -0.07878,-0.0957 -0.134766,-0.130859 -0.05599,-0.03515 -0.124351,-0.06185 -0.205078,-0.08008 -0.07943,-0.01823 -0.173179,-0.02734 -0.28125,-0.02734 -0.127605,3e-6 -0.235027,0.01172 -0.322266,0.03516 -0.08594,0.02214 -0.155599,0.05274 -0.208984,0.0918 -0.05208,0.03906 -0.08984,0.08529 -0.113281,0.138672 -0.02214,0.05209 -0.0332,0.108726 -0.0332,0.169922 -10e-7,0.08203 0.02018,0.149742 0.06055,0.203125 0.04166,0.05208 0.09766,0.0957 0.167968,0.130859 0.07031,0.03516 0.151692,0.06445 0.244141,0.08789 0.09245,0.02344 0.190754,0.04688 0.294922,0.07031 0.08463,0.01953 0.168618,0.03972 0.251953,0.06055 0.08463,0.01953 0.165363,0.04362 0.242187,0.07227 0.07682,0.02734 0.148436,0.0599 0.214844,0.09766 0.06771,0.03776 0.1263,0.08399 0.175781,0.138672 0.04948,0.05469 0.08789,0.119142 0.115235,0.19336 0.02864,0.07422 0.04297,0.161459 0.04297,0.261718" inkscape:connector-curvature="0"/>
  <path d="m 73.195801,43.588295 c -0.05339,0.01432 -0.108074,0.02539 -0.164063,0.0332 -0.05469,0.0091 -0.11849,0.01367 -0.191406,0.01367 -0.28125,0 -0.421875,-0.159505 -0.421875,-0.478516 l 0,-1.410156 -0.244141,0 0,-0.255859 0.257813,0 0.103516,-0.472657 0.234375,0 0,0.472657 0.390625,0 0,0.255859 -0.390625,0 0,1.333984 c -10e-7,0.101563 0.01627,0.173178 0.04883,0.214844 0.03385,0.04036 0.0918,0.06055 0.173828,0.06055 0.03385,0 0.06641,-0.0026 0.09766,-0.0078 0.03255,-0.0052 0.06771,-0.01172 0.105469,-0.01953 l 0,0.259766" inkscape:connector-curvature="0"/>
  <path d="m 73.588379,43.60392 0,-0.427734 0.380859,0 0,0.427734 -0.380859,0" inkscape:connector-curvature="0"/>
  <path d="m 49.969238,48.60392 -1.472656,-2.34375 c 0.0026,0.0638 0.0059,0.126955 0.0098,0.189453 0.0026,0.05339 0.0046,0.110028 0.0059,0.169922 0.0026,0.0586 0.0039,0.110679 0.0039,0.15625 l 0,1.828125 -0.332031,0 0,-2.751953 0.433594,0 1.488281,2.359375 c -0.0039,-0.0638 -0.0078,-0.127604 -0.01172,-0.191406 -0.0026,-0.05469 -0.0052,-0.113932 -0.0078,-0.177735 -0.0026,-0.0651 -0.0039,-0.126952 -0.0039,-0.185547 l 0,-1.804687 0.335937,0 0,2.751953 -0.449219,0" inkscape:connector-curvature="0"/>
  <path d="m 53.697754,48.60392 -0.445313,0 -0.476562,-1.748047 c -0.01433,-0.04948 -0.02995,-0.108071 -0.04687,-0.175781 -0.01563,-0.06771 -0.02995,-0.13216 -0.04297,-0.19336 -0.01563,-0.07161 -0.03125,-0.144529 -0.04687,-0.21875 -0.01693,0.07552 -0.0332,0.149091 -0.04883,0.220704 -0.01432,0.0625 -0.0293,0.126955 -0.04492,0.193359 -0.01563,0.06641 -0.0306,0.124351 -0.04492,0.173828 l -0.480468,1.748047 -0.445313,0 -0.810547,-2.751953 0.388672,0 0.494141,1.748047 c 0.02213,0.08203 0.04297,0.163412 0.0625,0.24414 0.02083,0.08073 0.03841,0.152996 0.05273,0.216797 0.01693,0.07552 0.03255,0.147136 0.04687,0.214844 0.01953,-0.08984 0.03971,-0.178385 0.06055,-0.265625 0.0091,-0.03646 0.01823,-0.07487 0.02734,-0.115234 0.0091,-0.04036 0.01823,-0.08008 0.02734,-0.119141 0.01042,-0.03906 0.02018,-0.07617 0.0293,-0.111328 0.01042,-0.03646 0.01953,-0.06966 0.02734,-0.09961 l 0.478516,-1.71289 0.357422,0 0.478515,1.71289 c 0.0078,0.02995 0.01627,0.06315 0.02539,0.09961 0.01041,0.03516 0.02018,0.07227 0.0293,0.111328 0.01041,0.03776 0.02018,0.07682 0.0293,0.117187 0.0091,0.04037 0.01823,0.07878 0.02734,0.115235 0.02083,0.08724 0.04101,0.176433 0.06055,0.267578 0.0013,0 0.0072,-0.02213 0.01758,-0.06641 0.01041,-0.04557 0.02344,-0.102213 0.03906,-0.169922 0.01562,-0.06771 0.03255,-0.140624 0.05078,-0.21875 0.01953,-0.07943 0.03906,-0.152994 0.05859,-0.220703 l 0.486328,-1.748047 0.388672,0 -0.810547,2.751953" inkscape:connector-curvature="0"/>
  <path d="m 54.824707,48.60392 0,-0.298828 0.701172,0 0,-2.117188 -0.621094,0.44336 0,-0.332032 0.650391,-0.447265 0.324219,0 0,2.453125 0.669921,0 0,0.298828 -1.724609,0" inkscape:connector-curvature="0"/>
  <path d="m 59.904785,47.703529 c -2e-6,0.138022 -0.01953,0.264975 -0.05859,0.38086 -0.03776,0.114583 -0.0944,0.213542 -0.169921,0.296875 -0.07422,0.08203 -0.166669,0.146484 -0.277344,0.193359 -0.110679,0.04557 -0.238283,0.06836 -0.382813,0.06836 -0.160157,0 -0.300131,-0.0306 -0.419922,-0.0918 -0.119792,-0.0612 -0.219401,-0.149089 -0.298828,-0.263672 -0.07943,-0.115885 -0.139323,-0.257161 -0.179687,-0.423828 -0.03906,-0.167968 -0.05859,-0.358723 -0.05859,-0.572266 0,-0.24479 0.02214,-0.459634 0.06641,-0.644531 0.04557,-0.184894 0.110677,-0.339191 0.195313,-0.462891 0.08463,-0.123695 0.187499,-0.216794 0.308594,-0.279297 0.122394,-0.0625 0.260415,-0.09375 0.414062,-0.09375 0.09375,3e-6 0.181639,0.0098 0.263672,0.0293 0.08203,0.01953 0.156248,0.05143 0.222656,0.0957 0.06771,0.04297 0.126951,0.100263 0.177735,0.171875 0.05078,0.07162 0.09114,0.159508 0.121093,0.263672 l -0.335937,0.06055 c -0.03646,-0.118487 -0.09505,-0.203774 -0.175781,-0.255859 -0.07943,-0.05338 -0.171877,-0.08008 -0.277344,-0.08008 -0.09636,3e-6 -0.183595,0.02279 -0.261719,0.06836 -0.07813,0.04557 -0.144532,0.113934 -0.199219,0.205078 -0.05469,0.08985 -0.09701,0.203127 -0.126953,0.339844 -0.02865,0.13672 -0.04297,0.296225 -0.04297,0.478515 0.0638,-0.118488 0.153646,-0.208331 0.269532,-0.269531 0.115884,-0.0625 0.248697,-0.09375 0.398437,-0.09375 0.124999,2e-6 0.23828,0.02018 0.339844,0.06055 0.101561,0.04037 0.188149,0.09896 0.259766,0.175781 0.07291,0.07552 0.128904,0.16797 0.167968,0.277344 0.04036,0.108074 0.06055,0.229819 0.06055,0.365234 m -0.357422,0.01563 c -10e-7,-0.09505 -0.01172,-0.180988 -0.03516,-0.257812 -0.02344,-0.07682 -0.05859,-0.141926 -0.105469,-0.195313 -0.04688,-0.05469 -0.104819,-0.09635 -0.173828,-0.125 -0.06901,-0.02995 -0.14909,-0.04492 -0.240234,-0.04492 -0.0638,2e-6 -0.128256,0.0098 -0.19336,0.0293 -0.0651,0.01823 -0.124349,0.04883 -0.177734,0.0918 -0.05208,0.04167 -0.09505,0.09701 -0.128906,0.166016 -0.03255,0.06901 -0.04883,0.152996 -0.04883,0.251953 -10e-7,0.101563 0.01302,0.196615 0.03906,0.285156 0.02604,0.08724 0.06315,0.163412 0.111328,0.228516 0.04948,0.0651 0.108723,0.116537 0.177735,0.154297 0.06901,0.03776 0.146483,0.05664 0.232422,0.05664 0.08463,10e-7 0.160154,-0.01432 0.226562,-0.04297 0.06771,-0.02995 0.124999,-0.07227 0.171875,-0.126954 0.04687,-0.05599 0.08268,-0.123697 0.107422,-0.203125 0.02474,-0.07943 0.03711,-0.168619 0.03711,-0.267578" inkscape:connector-curvature="0"/>
  <path d="m 62.254395,48.60392 -0.826172,-1.203125 -0.84375,1.203125 -0.41211,0 1.046875,-1.429688 -0.966797,-1.322265 0.41211,0 0.765625,1.080078 0.74414,-1.080078 0.41211,0 -0.941406,1.308594 1.021484,1.443359 -0.412109,0" inkscape:connector-curvature="0"/>
  <path d="m 63.08252,48.60392 0,-2.751953 2.08789,0 0,0.304687 -1.714844,0 0,0.882813 1.597657,0 0,0.300781 -1.597657,0 0,0.958984 1.794922,0 0,0.304688 -2.167968,0" inkscape:connector-curvature="0"/>
  <path d="m 48.184082,53.60392 0,-2.751953 0.373047,0 0,2.447265 1.390625,0 0,0.304688 -1.763672,0" inkscape:connector-curvature="0"/>
  <path d="m 52.13916,52.545326 c -2e-6,0.369793 -0.08138,0.645183 -0.24414,0.826172 -0.162763,0.18099 -0.39909,0.271484 -0.708985,0.271484 -0.147136,0 -0.278647,-0.02214 -0.394531,-0.06641 -0.115886,-0.04427 -0.214193,-0.111979 -0.294922,-0.203125 -0.07943,-0.09115 -0.140625,-0.205077 -0.183594,-0.341797 -0.04167,-0.13802 -0.0625,-0.300129 -0.0625,-0.486328 0,-0.729165 0.315755,-1.093748 0.947266,-1.09375 0.164061,2e-6 0.305337,0.02279 0.423828,0.06836 0.11979,0.04557 0.217446,0.113934 0.292969,0.205078 0.07682,0.09115 0.133461,0.20508 0.169922,0.341797 0.03646,0.13672 0.05468,0.296225 0.05469,0.478515 m -0.36914,0 c -2e-6,-0.164061 -0.01302,-0.299478 -0.03906,-0.40625 -0.02474,-0.106769 -0.06185,-0.192055 -0.111328,-0.255859 -0.04818,-0.0638 -0.107423,-0.108071 -0.177734,-0.132813 -0.07031,-0.02604 -0.149741,-0.03906 -0.238282,-0.03906 -0.08984,2e-6 -0.171225,0.01367 -0.24414,0.04102 -0.07162,0.02604 -0.132814,0.07162 -0.183594,0.136719 -0.05078,0.0638 -0.08984,0.14909 -0.117188,0.25586 -0.02604,0.106772 -0.03906,0.240235 -0.03906,0.40039 -10e-7,0.164064 0.01432,0.300131 0.04297,0.408203 0.02864,0.106772 0.06771,0.192058 0.117187,0.25586 0.05078,0.0638 0.110025,0.108724 0.177735,0.134765 0.06901,0.02604 0.143879,0.03906 0.224609,0.03906 0.08984,0 0.171223,-0.01237 0.244141,-0.03711 0.07291,-0.02604 0.134764,-0.07096 0.185546,-0.134765 0.05078,-0.0638 0.08984,-0.149739 0.117188,-0.257813 0.02734,-0.108072 0.04101,-0.244139 0.04102,-0.408203" inkscape:connector-curvature="0"/>
  <path d="m 53.92041,53.60392 0,-1.339844 c -10e-7,-0.102863 -0.0078,-0.1888 -0.02344,-0.257812 -0.01432,-0.06901 -0.03841,-0.124348 -0.07227,-0.166016 -0.03386,-0.04297 -0.07878,-0.07292 -0.134766,-0.08984 -0.05469,-0.01823 -0.123048,-0.02734 -0.205078,-0.02734 -0.08333,1e-6 -0.158855,0.01497 -0.226562,0.04492 -0.06641,0.02865 -0.123699,0.07097 -0.171875,0.126954 -0.04688,0.05469 -0.08333,0.123048 -0.109375,0.205078 -0.02604,0.08073 -0.03906,0.173829 -0.03906,0.279297 l 0,1.224609 -0.351562,0 0,-1.662109 c 0,-0.04427 -6.52e-4,-0.09049 -0.002,-0.138672 -1e-6,-0.04948 -6.52e-4,-0.0957 -0.002,-0.138672 -0.0013,-0.04427 -0.0026,-0.08203 -0.0039,-0.113281 -0.0013,-0.03125 -0.0026,-0.05143 -0.0039,-0.06055 l 0.332031,0 c 0.0013,0.0065 0.0026,0.02409 0.0039,0.05273 0.0013,0.02865 0.0026,0.06185 0.0039,0.09961 0.0026,0.03646 0.0046,0.07422 0.0059,0.113282 0.0013,0.03776 0.002,0.06966 0.002,0.0957 l 0.0059,0 c 0.03385,-0.0612 0.07096,-0.116535 0.111328,-0.166016 0.04036,-0.04948 0.08724,-0.09114 0.140625,-0.125 0.05338,-0.03515 0.114582,-0.06185 0.183594,-0.08008 0.06901,-0.01953 0.149087,-0.0293 0.240234,-0.0293 0.117186,2e-6 0.218097,0.01432 0.302734,0.04297 0.08463,0.02865 0.154295,0.07292 0.208985,0.132812 0.05468,0.0599 0.0944,0.137372 0.11914,0.232422 0.02604,0.09375 0.03906,0.205731 0.03906,0.335938 l 0,1.408203 -0.353516,0" inkscape:connector-curvature="0"/>
  <path d="m 56.13916,53.264076 c -0.06511,0.135417 -0.151694,0.232422 -0.259765,0.291016 -0.106773,0.05859 -0.239585,0.08789 -0.398438,0.08789 -0.266928,0 -0.463542,-0.08984 -0.589844,-0.269531 -0.125,-0.179687 -0.1875,-0.451822 -0.1875,-0.816406 0,-0.736977 0.259114,-1.105467 0.777344,-1.105469 0.160155,2e-6 0.293619,0.0293 0.400391,0.08789 0.106769,0.0586 0.192706,0.151694 0.257812,0.279297 l 0.0039,0 c -10e-7,-0.01302 -6.52e-4,-0.0332 -0.002,-0.06055 -1e-6,-0.02864 -6.52e-4,-0.05794 -0.002,-0.08789 -10e-7,-0.03125 -10e-7,-0.06055 0,-0.08789 -10e-7,-0.02734 -10e-7,-0.04687 0,-0.05859 l 0,-0.81836 0.351563,0 0,2.462891 c -2e-6,0.05078 -2e-6,0.09961 0,0.146484 0.0013,0.04688 0.0026,0.08984 0.0039,0.128907 0.0013,0.03906 0.0026,0.07292 0.0039,0.101562 0.0013,0.02734 0.0026,0.04687 0.0039,0.05859 l -0.335937,0 c -0.0026,-0.01302 -0.0052,-0.03125 -0.0078,-0.05469 -0.0013,-0.02474 -0.0033,-0.05273 -0.0059,-0.08398 -0.0013,-0.03125 -0.0026,-0.0638 -0.0039,-0.09766 -0.0013,-0.03516 -0.002,-0.06966 -0.002,-0.103516 l -0.0078,0 m -1.066406,-0.71875 c -1e-6,0.145834 0.0091,0.270834 0.02734,0.375 0.01823,0.104167 0.04753,0.190105 0.08789,0.257813 0.04036,0.06641 0.0918,0.115234 0.154297,0.146484 0.0625,0.03125 0.138671,0.04687 0.228516,0.04687 0.09245,0 0.173827,-0.01497 0.24414,-0.04492 0.07161,-0.02995 0.130858,-0.07812 0.177735,-0.144531 0.04818,-0.06771 0.08463,-0.155598 0.109375,-0.263672 0.02474,-0.108072 0.03711,-0.240233 0.03711,-0.396484 -1e-6,-0.149739 -0.01237,-0.276041 -0.03711,-0.378907 -0.02474,-0.104165 -0.0612,-0.188149 -0.109375,-0.251953 -0.04818,-0.0638 -0.107423,-0.109373 -0.177735,-0.136718 -0.06901,-0.02864 -0.149089,-0.04297 -0.240234,-0.04297 -0.08594,2e-6 -0.160157,0.01498 -0.222656,0.04492 -0.0625,0.02995 -0.114584,0.07813 -0.15625,0.144531 -0.04167,0.06641 -0.07292,0.152996 -0.09375,0.259766 -0.01953,0.10547 -0.0293,0.233725 -0.0293,0.384765" inkscape:connector-curvature="0"/>
  <path d="m 58.818848,52.545326 c -2e-6,0.369793 -0.08138,0.645183 -0.244141,0.826172 -0.162762,0.18099 -0.39909,0.271484 -0.708984,0.271484 -0.147137,0 -0.278647,-0.02214 -0.394532,-0.06641 -0.115886,-0.04427 -0.214193,-0.111979 -0.294921,-0.203125 -0.07943,-0.09115 -0.140626,-0.205077 -0.183594,-0.341797 -0.04167,-0.13802 -0.0625,-0.300129 -0.0625,-0.486328 0,-0.729165 0.315755,-1.093748 0.947265,-1.09375 0.164062,2e-6 0.305338,0.02279 0.423829,0.06836 0.11979,0.04557 0.217446,0.113934 0.292968,0.205078 0.07682,0.09115 0.133462,0.20508 0.169922,0.341797 0.03646,0.13672 0.05469,0.296225 0.05469,0.478515 m -0.369141,0 c -2e-6,-0.164061 -0.01302,-0.299478 -0.03906,-0.40625 -0.02474,-0.106769 -0.06185,-0.192055 -0.111329,-0.255859 -0.04818,-0.0638 -0.107423,-0.108071 -0.177734,-0.132813 -0.07031,-0.02604 -0.149741,-0.03906 -0.238281,-0.03906 -0.08985,2e-6 -0.171225,0.01367 -0.244141,0.04102 -0.07161,0.02604 -0.132813,0.07162 -0.183594,0.136719 -0.05078,0.0638 -0.08984,0.14909 -0.117187,0.25586 -0.02604,0.106772 -0.03906,0.240235 -0.03906,0.40039 0,0.164064 0.01432,0.300131 0.04297,0.408203 0.02865,0.106772 0.06771,0.192058 0.117188,0.25586 0.05078,0.0638 0.110025,0.108724 0.177734,0.134765 0.06901,0.02604 0.143879,0.03906 0.224609,0.03906 0.08984,0 0.171223,-0.01237 0.244141,-0.03711 0.07292,-0.02604 0.134764,-0.07096 0.185547,-0.134765 0.05078,-0.0638 0.08984,-0.149739 0.117187,-0.257813 0.02734,-0.108072 0.04101,-0.244139 0.04102,-0.408203" inkscape:connector-curvature="0"/>
  <path d="m 60.600098,53.60392 0,-1.339844 c -2e-6,-0.102863 -0.0078,-0.1888 -0.02344,-0.257812 -0.01432,-0.06901 -0.03841,-0.124348 -0.07226,-0.166016 -0.03386,-0.04297 -0.07878,-0.07292 -0.134766,-0.08984 -0.05469,-0.01823 -0.123048,-0.02734 -0.205078,-0.02734 -0.08334,1e-6 -0.158855,0.01497 -0.226563,0.04492 -0.06641,0.02865 -0.123698,0.07097 -0.171875,0.126954 -0.04687,0.05469 -0.08333,0.123048 -0.109375,0.205078 -0.02604,0.08073 -0.03906,0.173829 -0.03906,0.279297 l 0,1.224609 -0.351563,0 0,-1.662109 c 0,-0.04427 -6.51e-4,-0.09049 -0.002,-0.138672 0,-0.04948 -6.51e-4,-0.0957 -0.002,-0.138672 -0.0013,-0.04427 -0.0026,-0.08203 -0.0039,-0.113281 -0.0013,-0.03125 -0.0026,-0.05143 -0.0039,-0.06055 l 0.332031,0 c 0.0013,0.0065 0.0026,0.02409 0.0039,0.05273 0.0013,0.02865 0.0026,0.06185 0.0039,0.09961 0.0026,0.03646 0.0046,0.07422 0.0059,0.113282 0.0013,0.03776 0.002,0.06966 0.002,0.0957 l 0.0059,0 c 0.03385,-0.0612 0.07096,-0.116535 0.111328,-0.166016 0.04036,-0.04948 0.08724,-0.09114 0.140625,-0.125 0.05339,-0.03515 0.114583,-0.06185 0.183594,-0.08008 0.06901,-0.01953 0.149087,-0.0293 0.240234,-0.0293 0.117186,2e-6 0.218098,0.01432 0.302735,0.04297 0.08463,0.02865 0.154295,0.07292 0.208984,0.132812 0.05469,0.0599 0.0944,0.137372 0.119141,0.232422 0.02604,0.09375 0.03906,0.205731 0.03906,0.335938 l 0,1.408203 -0.353515,0" inkscape:connector-curvature="0"/>
  <path d="m 63.871582,51.115639 c -0.156251,2e-6 -0.294923,0.02604 -0.416016,0.07813 -0.119792,0.05208 -0.220704,0.126304 -0.302734,0.222656 -0.08073,0.09636 -0.141928,0.212242 -0.183594,0.347656 -0.04167,0.135419 -0.0625,0.285809 -0.0625,0.451172 0,0.165366 0.02214,0.317058 0.06641,0.455078 0.04557,0.13672 0.110025,0.254558 0.193359,0.353516 0.08463,0.09896 0.187499,0.175782 0.308594,0.230469 0.122394,0.05469 0.259764,0.08203 0.412109,0.08203 0.106769,0 0.203774,-0.01367 0.291016,-0.04102 0.08854,-0.02865 0.167966,-0.06836 0.238281,-0.11914 0.07161,-0.05078 0.135414,-0.110677 0.191406,-0.179688 0.05599,-0.07031 0.105467,-0.147786 0.148438,-0.232422 l 0.304687,0.152344 c -0.04948,0.102865 -0.11068,0.198568 -0.183594,0.287109 -0.07292,0.08854 -0.158856,0.165365 -0.257812,0.230469 -0.09766,0.0651 -0.208987,0.116537 -0.333984,0.154297 -0.1237,0.03646 -0.262372,0.05469 -0.416016,0.05469 -0.222658,0 -0.41797,-0.03516 -0.585938,-0.105468 -0.166667,-0.07162 -0.306641,-0.170573 -0.419921,-0.296875 -0.11198,-0.127604 -0.195964,-0.278645 -0.251954,-0.453125 -0.05599,-0.174478 -0.08398,-0.365233 -0.08398,-0.572266 0,-0.214842 0.0293,-0.408852 0.08789,-0.582031 0.05989,-0.173175 0.146484,-0.32031 0.259765,-0.441406 0.114583,-0.122394 0.255208,-0.216144 0.421875,-0.28125 0.166666,-0.0664 0.35677,-0.09961 0.570313,-0.09961 0.292967,3e-6 0.537758,0.05729 0.734375,0.171875 0.196612,0.114586 0.341143,0.284508 0.433594,0.509766 l -0.353516,0.117187 c -0.02604,-0.0651 -0.0612,-0.126951 -0.105469,-0.185547 -0.04427,-0.05989 -0.09961,-0.112627 -0.166015,-0.158203 -0.06641,-0.04557 -0.144534,-0.08203 -0.234375,-0.109375 -0.08854,-0.02734 -0.190106,-0.04101 -0.304688,-0.04102" inkscape:connector-curvature="0"/>
  <path d="m 65.48291,51.04142 0,-0.335938 0.351563,0 0,0.335938 -0.351563,0 m 0,2.5625 0,-2.113281 0.351563,0 0,2.113281 -0.351563,0" inkscape:connector-curvature="0"/>
  <path d="m 67.187988,53.588295 c -0.05339,0.01432 -0.108074,0.02539 -0.164062,0.0332 -0.05469,0.0091 -0.118491,0.01367 -0.191406,0.01367 -0.281251,0 -0.421876,-0.159505 -0.421875,-0.478516 l 0,-1.410156 -0.244141,0 0,-0.255859 0.257812,0 0.103516,-0.472657 0.234375,0 0,0.472657 0.390625,0 0,0.255859 -0.390625,0 0,1.333984 c -10e-7,0.101563 0.01627,0.173178 0.04883,0.214844 0.03385,0.04036 0.0918,0.06055 0.173828,0.06055 0.03385,0 0.06641,-0.0026 0.09766,-0.0078 0.03255,-0.0052 0.06771,-0.01172 0.105468,-0.01953 l 0,0.259766" inkscape:connector-curvature="0"/>
  <path d="m 68.39502,53.60392 c -0.04948,0.127604 -0.100262,0.242187 -0.152344,0.34375 -0.05078,0.102864 -0.108074,0.190104 -0.171875,0.261719 -0.0638,0.07292 -0.134767,0.128254 -0.212891,0.166015 -0.07813,0.03906 -0.167969,0.05859 -0.269531,0.05859 -0.04427,-10e-7 -0.08529,-0.0013 -0.123047,-0.0039 -0.03776,-0.0026 -0.07747,-0.0085 -0.119141,-0.01758 l 0,-0.263672 c 0.02474,0.0039 0.05273,0.0065 0.08398,0.0078 0.03125,0.0026 0.05794,0.0039 0.08008,0.0039 0.102864,-10e-7 0.198567,-0.03841 0.287109,-0.115235 0.08854,-0.07682 0.166015,-0.199219 0.232422,-0.367187 l 0.0332,-0.08398 -0.83789,-2.103515 0.375,0 0.445312,1.167968 c 0.01302,0.03516 0.0293,0.08203 0.04883,0.140625 0.02083,0.05859 0.04102,0.117189 0.06055,0.175782 0.02083,0.05859 0.03906,0.111328 0.05469,0.158203 0.01562,0.04687 0.02474,0.07617 0.02734,0.08789 0.0039,-0.01432 0.01302,-0.04232 0.02734,-0.08398 0.01562,-0.04297 0.03255,-0.09049 0.05078,-0.142578 0.01953,-0.05208 0.03906,-0.104817 0.05859,-0.158203 0.01953,-0.05338 0.03581,-0.09961 0.04883,-0.138672 l 0.414063,-1.207031 0.371094,0 -0.8125,2.113281" inkscape:connector-curvature="0"/>
 </g>
 <g fill="#e6e6e6" fill-opacity="1" stroke="none" transform="matrix(1.01695 0 0 1.01695 -1.359 -8.327)">
  <path d="m 49.251709,71.817894 c 0.09456,0 0.176024,-0.0131 0.244385,-0.03931 0.0695,-0.02734 0.129311,-0.06266 0.179443,-0.105957 0.05127,-0.04329 0.09342,-0.09228 0.126465,-0.146972 0.03418,-0.05469 0.06209,-0.109944 0.08374,-0.165772 l 0.439209,0.165772 c -0.03532,0.08659 -0.08146,0.171468 -0.138428,0.254638 -0.05697,0.08317 -0.128176,0.156657 -0.213623,0.220459 -0.08545,0.0638 -0.18742,0.115642 -0.305908,0.155518 -0.117352,0.03874 -0.255779,0.0581 -0.415283,0.0581 -0.208497,0 -0.38908,-0.03076 -0.541748,-0.09228 -0.15267,-0.06266 -0.279135,-0.149251 -0.379395,-0.259765 -0.09912,-0.111654 -0.173177,-0.243815 -0.222168,-0.396485 -0.04785,-0.152668 -0.07178,-0.319579 -0.07178,-0.500732 0,-0.187987 0.02393,-0.357746 0.07178,-0.509278 0.04899,-0.151528 0.122477,-0.280271 0.220459,-0.38623 0.09798,-0.107094 0.221598,-0.189125 0.37085,-0.246094 0.15039,-0.0581 0.326985,-0.08716 0.529785,-0.08716 0.157225,2e-6 0.294514,0.01652 0.411865,0.04956 0.118488,0.03304 0.220457,0.07975 0.305909,0.140136 0.08659,0.05925 0.157794,0.129885 0.213623,0.211914 0.05696,0.08089 0.101397,0.170331 0.1333,0.268311 l -0.444335,0.121338 c -0.01595,-0.05127 -0.04045,-0.100259 -0.07349,-0.146973 -0.03304,-0.04785 -0.0752,-0.09 -0.126465,-0.126465 -0.05013,-0.03646 -0.109376,-0.06551 -0.177734,-0.08716 -0.06836,-0.02278 -0.145835,-0.03418 -0.232422,-0.03418 -0.121909,2e-6 -0.226726,0.01994 -0.314453,0.05982 -0.08773,0.03874 -0.160076,0.09457 -0.217041,0.16748 -0.05583,0.07292 -0.09741,0.160647 -0.124756,0.263184 -0.0262,0.101401 -0.03931,0.215333 -0.03931,0.341797 0,0.125326 0.0131,0.240398 0.03931,0.345215 0.02734,0.103679 0.0695,0.193116 0.126465,0.26831 0.05696,0.0752 0.129882,0.133871 0.21875,0.176026 0.09,0.04216 0.197671,0.06323 0.322998,0.06323" inkscape:connector-curvature="0"/>
  <path d="m 52.423584,71.253929 c -2e-6,0.141277 -0.01994,0.27059 -0.05981,0.38794 -0.03874,0.11735 -0.09741,0.21875 -0.176026,0.304199 -0.07861,0.08431 -0.176597,0.150391 -0.293945,0.198242 -0.117352,0.04671 -0.25407,0.07007 -0.410156,0.07007 -0.150392,0 -0.283123,-0.02336 -0.398194,-0.07007 -0.115072,-0.04671 -0.211914,-0.112223 -0.290527,-0.196533 -0.07747,-0.08431 -0.136149,-0.18514 -0.176026,-0.30249 -0.03988,-0.118489 -0.05981,-0.248942 -0.05981,-0.391358 0,-0.137857 0.0188,-0.264891 0.0564,-0.381103 0.03874,-0.117349 0.09684,-0.218749 0.174316,-0.3042 0.07747,-0.08545 0.174885,-0.152097 0.292236,-0.199951 0.11735,-0.04785 0.254638,-0.07178 0.411865,-0.07178 0.16634,2e-6 0.308186,0.02393 0.425538,0.07178 0.117348,0.04785 0.213051,0.114504 0.287109,0.199951 0.07519,0.08431 0.129881,0.185142 0.164062,0.302491 0.03532,0.116212 0.05298,0.243816 0.05298,0.382812 m -0.502441,0 c -2e-6,-0.219888 -0.03589,-0.379393 -0.107666,-0.478515 -0.07178,-0.09912 -0.176027,-0.148681 -0.312745,-0.148682 -0.141277,10e-7 -0.249512,0.05013 -0.324707,0.15039 -0.0752,0.100262 -0.112793,0.259198 -0.112793,0.476807 0,0.110515 0.0097,0.205649 0.02905,0.285401 0.02051,0.07975 0.04899,0.145264 0.08545,0.196533 0.03646,0.05127 0.08032,0.08944 0.131592,0.114502 0.05127,0.02393 0.107665,0.03589 0.16919,0.03589 0.07064,10e-7 0.133299,-0.01196 0.187988,-0.03589 0.05582,-0.02506 0.102538,-0.06323 0.140137,-0.114502 0.0376,-0.05127 0.06608,-0.11678 0.08545,-0.196533 0.01937,-0.07975 0.02905,-0.174886 0.02905,-0.285401" inkscape:connector-curvature="0"/>
  <path d="m 54.004395,72.180199 0,-1.037354 c -2e-6,-0.07178 -0.0057,-0.137287 -0.01709,-0.196533 -0.0114,-0.06038 -0.03019,-0.111652 -0.0564,-0.153809 -0.02621,-0.04329 -0.06039,-0.0769 -0.102539,-0.10083 -0.04216,-0.02392 -0.09343,-0.03589 -0.153808,-0.03589 -0.05811,10e-7 -0.111085,0.0131 -0.158936,0.03931 -0.04671,0.02507 -0.08716,0.06152 -0.121338,0.109375 -0.03418,0.04671 -0.06095,0.10311 -0.08032,0.16919 -0.01823,0.06494 -0.02735,0.13672 -0.02734,0.215332 l 0,0.991211 -0.480225,0 0,-1.435547 c 0,-0.03987 -5.69e-4,-0.08089 -0.0017,-0.123047 0,-0.04215 -0.0011,-0.08203 -0.0034,-0.119629 -0.0011,-0.03874 -0.0023,-0.07291 -0.0034,-0.102539 -0.0011,-0.03076 -0.0028,-0.05355 -0.0051,-0.06836 l 0.458007,0 c 0.0023,0.01367 0.0046,0.03589 0.0068,0.06665 0.0023,0.02962 0.0046,0.06266 0.0068,0.09912 0.0023,0.03646 0.004,0.07292 0.0051,0.109375 0.0023,0.03646 0.0034,0.06722 0.0034,0.09229 l 0.0068,0 c 0.06494,-0.141274 0.146402,-0.243813 0.244385,-0.307617 0.09798,-0.0638 0.214761,-0.0957 0.350342,-0.0957 0.111652,2e-6 0.205646,0.01823 0.281982,0.05469 0.07747,0.03646 0.140135,0.08659 0.187988,0.150391 0.04899,0.0638 0.08431,0.138999 0.105957,0.225586 0.02165,0.08659 0.03247,0.180014 0.03247,0.280273 l 0,1.174073 -0.478515,0" inkscape:connector-curvature="0"/>
  <path d="m 56.504639,71.64016 c -2e-6,0.08887 -0.0188,0.16862 -0.0564,0.239257 -0.03646,0.07064 -0.09001,0.131023 -0.160644,0.181153 -0.07064,0.04899 -0.157228,0.08716 -0.259766,0.114502 -0.10254,0.0262 -0.219321,0.03931 -0.350342,0.03931 -0.117351,0 -0.223308,-0.0085 -0.317871,-0.02563 -0.09456,-0.01709 -0.177735,-0.045 -0.249512,-0.08374 -0.07064,-0.03988 -0.129883,-0.09114 -0.177734,-0.153808 -0.04785,-0.06266 -0.08374,-0.140137 -0.107666,-0.232422 l 0.422119,-0.06323 c 0.01367,0.05127 0.03247,0.09286 0.0564,0.124756 0.02392,0.0319 0.05355,0.0564 0.08887,0.07349 0.03532,0.01709 0.07633,0.02848 0.123047,0.03418 0.04785,0.0057 0.101968,0.0085 0.162353,0.0085 0.05469,10e-7 0.105387,-0.0028 0.1521,-0.0085 0.04785,-0.0068 0.08887,-0.01766 0.123047,-0.03247 0.03532,-0.01595 0.06266,-0.0376 0.08203,-0.06494 0.01937,-0.02848 0.02905,-0.0638 0.02905,-0.105957 -2e-6,-0.04785 -0.01424,-0.08545 -0.04273,-0.112793 -0.02734,-0.02848 -0.06551,-0.05127 -0.114502,-0.06836 -0.04785,-0.01823 -0.104819,-0.03361 -0.170898,-0.04614 -0.06494,-0.01367 -0.134441,-0.02905 -0.208496,-0.04614 -0.07747,-0.01709 -0.15381,-0.0376 -0.229004,-0.06152 -0.0752,-0.02393 -0.142416,-0.05639 -0.20166,-0.09741 -0.05925,-0.04101 -0.107097,-0.09285 -0.143555,-0.155517 -0.03646,-0.0638 -0.05469,-0.144124 -0.05469,-0.240967 0,-0.08773 0.01709,-0.16577 0.05127,-0.234131 0.03418,-0.0695 0.08431,-0.128172 0.150391,-0.176025 0.06608,-0.04899 0.147541,-0.08602 0.244384,-0.111084 0.09798,-0.0262 0.210205,-0.0393 0.33667,-0.03931 0.10026,2e-6 0.193684,0.0097 0.280274,0.02905 0.08659,0.01823 0.164061,0.04785 0.232422,0.08887 0.06836,0.03988 0.125323,0.09115 0.170898,0.153808 0.04671,0.06266 0.07918,0.13843 0.09741,0.227295 l -0.425537,0.04443 c -0.008,-0.04443 -0.02222,-0.08089 -0.04273,-0.109375 -0.02051,-0.02962 -0.04614,-0.05298 -0.0769,-0.07007 -0.02962,-0.01709 -0.06437,-0.02848 -0.104248,-0.03418 -0.03988,-0.0068 -0.08374,-0.01025 -0.131592,-0.01025 -0.113933,2e-6 -0.199382,0.01481 -0.256347,0.04443 -0.05697,0.02848 -0.08545,0.0769 -0.08545,0.145263 0,0.04216 0.01139,0.07577 0.03418,0.10083 0.02392,0.02507 0.05696,0.04614 0.09912,0.06323 0.04329,0.01595 0.09399,0.03019 0.1521,0.04272 0.05924,0.0114 0.123615,0.02564 0.193115,0.04273 0.08545,0.01823 0.169188,0.03988 0.251221,0.06494 0.08317,0.02393 0.156655,0.05754 0.220459,0.10083 0.06494,0.04216 0.116779,0.09684 0.155517,0.164063 0.03988,0.06722 0.05981,0.15267 0.05982,0.256348" inkscape:connector-curvature="0"/>
  <path d="m 57.347168,70.331078 0,1.037353 c -1e-6,0.07178 0.0057,0.137859 0.01709,0.198242 0.01139,0.05925 0.03019,0.110515 0.0564,0.153809 0.0262,0.04215 0.05981,0.0752 0.10083,0.09912 0.04215,0.02393 0.09342,0.03589 0.153809,0.03589 0.0581,0 0.110513,-0.01253 0.157227,-0.0376 0.04785,-0.0262 0.08886,-0.06266 0.123046,-0.109375 0.03418,-0.04785 0.06038,-0.104247 0.07861,-0.169189 0.01937,-0.06608 0.02905,-0.138427 0.02905,-0.217041 l 0,-0.991211 0.480225,0 0,1.435546 c -2e-6,0.03874 -2e-6,0.07975 0,0.123047 0.0011,0.04216 0.0023,0.0826 0.0034,0.121338 0.0023,0.0376 0.004,0.07178 0.0051,0.102539 0.0023,0.02962 0.004,0.05184 0.0051,0.06665 l -0.458008,0 c -0.0011,-0.01367 -0.0034,-0.03532 -0.0068,-0.06494 -0.0023,-0.03076 -0.0046,-0.06437 -0.0068,-0.10083 -0.0011,-0.03646 -0.0028,-0.07292 -0.0051,-0.109375 -0.0011,-0.03646 -0.0017,-0.06722 -0.0017,-0.09229 l -0.0085,0 c -0.0638,0.140137 -0.145265,0.242106 -0.244384,0.305908 -0.09798,0.0638 -0.214764,0.0957 -0.350342,0.0957 -0.110515,0 -0.204509,-0.01823 -0.281983,-0.05469 -0.07747,-0.03646 -0.140706,-0.08602 -0.189697,-0.148682 -0.04785,-0.0638 -0.0826,-0.138997 -0.104248,-0.225586 -0.02165,-0.08659 -0.03247,-0.180012 -0.03247,-0.280273 l 0,-1.174072 0.480225,0" inkscape:connector-curvature="0"/>
  <path d="m 59.033936,72.180199 0,-2.536133 0.480224,0 0,2.536133 -0.480224,0" inkscape:connector-curvature="0"/>
  <path d="m 60.478027,72.21096 c -0.141276,0 -0.250082,-0.03817 -0.326416,-0.114502 -0.07634,-0.07747 -0.114502,-0.194254 -0.114502,-0.350341 l 0,-1.090332 -0.23413,0 0,-0.324707 0.258056,0 0.150391,-0.434082 0.300781,0 0,0.434082 0.350342,0 0,0.324707 -0.350342,0 0,0.960449 c -10e-7,0.09001 0.01709,0.156657 0.05127,0.199951 0.03418,0.04215 0.08716,0.06323 0.158935,0.06323 0.02962,1e-6 0.0564,-0.0023 0.08032,-0.0068 0.02392,-0.0046 0.0507,-0.01025 0.08032,-0.01709 l 0,0.297363 c -0.05925,0.01937 -0.121909,0.03361 -0.187989,0.04273 -0.06608,0.01025 -0.138428,0.01538 -0.217041,0.01538" inkscape:connector-curvature="0"/>
  <path d="m 61.173584,69.997826 0,-0.35376 0.480225,0 0,0.35376 -0.480225,0 m 0,2.182373 0,-1.849121 0.480225,0 0,1.849121 -0.480225,0" inkscape:connector-curvature="0"/>
  <path d="m 63.342285,72.180199 0,-1.037354 c -10e-7,-0.07178 -0.0057,-0.137287 -0.01709,-0.196533 -0.01139,-0.06038 -0.03019,-0.111652 -0.0564,-0.153809 -0.02621,-0.04329 -0.06039,-0.0769 -0.102539,-0.10083 -0.04216,-0.02392 -0.09343,-0.03589 -0.153809,-0.03589 -0.05811,10e-7 -0.111085,0.0131 -0.158935,0.03931 -0.04671,0.02507 -0.08716,0.06152 -0.121338,0.109375 -0.03418,0.04671 -0.06095,0.10311 -0.08032,0.16919 -0.01823,0.06494 -0.02734,0.13672 -0.02734,0.215332 l 0,0.991211 -0.480225,0 0,-1.435547 c 0,-0.03987 -5.7e-4,-0.08089 -0.0017,-0.123047 0,-0.04215 -0.0011,-0.08203 -0.0034,-0.119629 -0.0011,-0.03874 -0.0023,-0.07291 -0.0034,-0.102539 -0.0011,-0.03076 -0.0028,-0.05355 -0.0051,-0.06836 l 0.458008,0 c 0.0023,0.01367 0.0046,0.03589 0.0068,0.06665 0.0023,0.02962 0.0046,0.06266 0.0068,0.09912 0.0023,0.03646 0.004,0.07292 0.0051,0.109375 0.0023,0.03646 0.0034,0.06722 0.0034,0.09229 l 0.0068,0 c 0.06494,-0.141274 0.146402,-0.243813 0.244385,-0.307617 0.09798,-0.0638 0.214761,-0.0957 0.350341,-0.0957 0.111653,2e-6 0.205647,0.01823 0.281983,0.05469 0.07747,0.03646 0.140135,0.08659 0.187988,0.150391 0.04899,0.0638 0.08431,0.138999 0.105957,0.225586 0.02164,0.08659 0.03247,0.180014 0.03247,0.280273 l 0,1.174073 -0.478516,0" inkscape:connector-curvature="0"/>
  <path d="m 65.058105,72.921898 c -0.121908,-10e-7 -0.229574,-0.01253 -0.322998,-0.0376 -0.09229,-0.02393 -0.171468,-0.05811 -0.237548,-0.102539 -0.06494,-0.0433 -0.117351,-0.0957 -0.157227,-0.157226 -0.03874,-0.06038 -0.06551,-0.127035 -0.08032,-0.199952 l 0.480224,-0.0564 c 0.01709,0.07406 0.05355,0.132161 0.109375,0.174316 0.05697,0.04216 0.131022,0.06323 0.222168,0.06323 0.05697,-10e-7 0.108805,-0.008 0.155518,-0.02393 0.04785,-0.01595 0.0883,-0.0433 0.121338,-0.08203 0.03418,-0.0376 0.06038,-0.08773 0.07861,-0.150391 0.01937,-0.06266 0.02905,-0.140137 0.02905,-0.232422 -2e-6,-0.0319 -2e-6,-0.06437 0,-0.09741 -2e-6,-0.03304 5.68e-4,-0.06323 0.0017,-0.09058 0.0011,-0.0319 0.0017,-0.06266 0.0017,-0.09229 l -0.0034,0 c -0.05583,0.119629 -0.134442,0.206217 -0.23584,0.259765 -0.100262,0.05355 -0.21989,0.08032 -0.358887,0.08032 -0.117351,0 -0.21875,-0.02279 -0.304199,-0.06836 -0.08431,-0.04671 -0.154379,-0.111083 -0.210205,-0.193115 -0.05583,-0.08317 -0.09741,-0.181721 -0.124756,-0.295654 -0.0262,-0.115071 -0.03931,-0.241536 -0.03931,-0.379395 0,-0.142414 0.01424,-0.271157 0.04273,-0.38623 0.02848,-0.11621 0.07178,-0.2159 0.129883,-0.299072 0.05924,-0.08317 0.1333,-0.146971 0.222168,-0.191407 0.09001,-0.04557 0.196532,-0.06836 0.31958,-0.06836 0.123046,2e-6 0.23299,0.02621 0.329834,0.07861 0.09798,0.05241 0.174315,0.13729 0.229004,0.254639 l 0.0085,0 c -2e-6,-0.02392 5.68e-4,-0.05127 0.0017,-0.08203 0.0023,-0.0319 0.0046,-0.06209 0.0068,-0.09058 0.0023,-0.02962 0.0046,-0.05582 0.0068,-0.07861 0.0034,-0.02278 0.0063,-0.03816 0.0085,-0.04614 l 0.454589,0 c -0.0023,0.04102 -0.0046,0.09855 -0.0068,0.172607 -0.0023,0.07406 -0.0034,0.158937 -0.0034,0.254639 l 0,1.365478 c -10e-7,0.13444 -0.01937,0.251221 -0.0581,0.350342 -0.03874,0.10026 -0.0957,0.18343 -0.170898,0.249512 -0.07406,0.06608 -0.165773,0.11564 -0.275147,0.148681 -0.108237,0.03304 -0.231853,0.04956 -0.37085,0.04956 m 0.401612,-1.691895 c -2e-6,-0.11621 -0.01139,-0.213052 -0.03418,-0.290527 -0.02279,-0.07747 -0.05241,-0.139566 -0.08887,-0.186279 -0.03646,-0.04671 -0.07861,-0.07975 -0.126465,-0.09912 -0.04671,-0.01937 -0.094,-0.02905 -0.141846,-0.02905 -0.06152,10e-7 -0.116211,0.01196 -0.164062,0.03589 -0.04671,0.02393 -0.08659,0.06096 -0.119629,0.111084 -0.03304,0.05013 -0.05811,0.113933 -0.07519,0.191406 -0.01709,0.07747 -0.02564,0.16976 -0.02564,0.276855 -1e-6,0.199383 0.0319,0.349773 0.0957,0.451172 0.0638,0.1014 0.158935,0.1521 0.2854,0.1521 0.04785,0 0.09513,-0.0091 0.141846,-0.02734 0.04785,-0.01937 0.09058,-0.05241 0.128174,-0.09912 0.0376,-0.04785 0.06779,-0.111084 0.09058,-0.189697 0.02278,-0.07861 0.03418,-0.177734 0.03418,-0.297364" inkscape:connector-curvature="0"/>
  <path d="m 68.592285,72.180199 c -0.0023,-0.0091 -0.0051,-0.02506 -0.0085,-0.04785 -0.0023,-0.02393 -0.0051,-0.0507 -0.0085,-0.08032 -0.0023,-0.02962 -0.0046,-0.05981 -0.0068,-0.09058 -0.0011,-0.03076 -0.0017,-0.05811 -0.0017,-0.08203 l -0.0068,0 c -0.05583,0.11963 -0.133871,0.205648 -0.23413,0.258057 -0.09912,0.05127 -0.218182,0.0769 -0.357178,0.0769 -0.116212,0 -0.217042,-0.02392 -0.30249,-0.07178 -0.08431,-0.04785 -0.154379,-0.114502 -0.210205,-0.199951 -0.05469,-0.08545 -0.0957,-0.186279 -0.123047,-0.30249 -0.02621,-0.11735 -0.03931,-0.244954 -0.03931,-0.382813 0,-0.140136 0.01367,-0.268879 0.04102,-0.38623 0.02848,-0.117349 0.07178,-0.218179 0.129882,-0.302491 0.05811,-0.08545 0.131592,-0.152097 0.220459,-0.199951 0.09001,-0.04785 0.196533,-0.07178 0.319581,-0.07178 0.06038,2e-6 0.118488,0.0063 0.174316,0.0188 0.05583,0.01253 0.107665,0.0319 0.155518,0.0581 0.04785,0.02621 0.09114,0.05982 0.129882,0.10083 0.03874,0.04102 0.07178,0.09058 0.09912,0.148682 l 0.0034,0 c -10e-7,-0.01139 -5.71e-4,-0.02791 -0.0017,-0.04956 -10e-7,-0.02278 -10e-7,-0.04842 0,-0.0769 -10e-7,-0.02848 -5.71e-4,-0.0581 -0.0017,-0.08887 -10e-7,-0.03076 -10e-7,-0.06038 0,-0.08887 l 0,-0.675049 0.480225,0 0,2.132812 c -2e-6,0.09001 0.0017,0.170329 0.0051,0.240967 0.0034,0.0695 0.0063,0.123617 0.0085,0.162354 l -0.464844,0 m -0.02222,-0.934815 c -1e-6,-0.121906 -0.01139,-0.222736 -0.03418,-0.30249 -0.02279,-0.08089 -0.05298,-0.144693 -0.09058,-0.191406 -0.03646,-0.04785 -0.07861,-0.08089 -0.126464,-0.09912 -0.04671,-0.01937 -0.09457,-0.02905 -0.143555,-0.02905 -0.06152,10e-7 -0.116212,0.01196 -0.164063,0.03589 -0.04671,0.02393 -0.08659,0.06152 -0.119628,0.112793 -0.0319,0.05127 -0.0564,0.116781 -0.07349,0.196533 -0.01595,0.07975 -0.02393,0.176026 -0.02393,0.288818 0,0.419271 0.125895,0.628907 0.377686,0.628906 0.04785,10e-7 0.0957,-0.01025 0.143555,-0.03076 0.04785,-0.02051 0.09057,-0.05526 0.128174,-0.104248 0.0376,-0.04899 0.06779,-0.114502 0.09058,-0.196534 0.02392,-0.08317 0.03589,-0.186278 0.03589,-0.309326" inkscape:connector-curvature="0"/>
  <path d="m 70.291016,72.214378 c -0.133302,0 -0.2535,-0.01937 -0.360596,-0.0581 -0.105958,-0.03988 -0.196534,-0.09969 -0.271729,-0.179443 -0.0752,-0.08089 -0.132731,-0.181722 -0.172607,-0.302491 -0.03988,-0.121907 -0.05982,-0.264322 -0.05981,-0.427246 -1e-6,-0.176594 0.02335,-0.325275 0.07007,-0.446045 0.04785,-0.120766 0.111653,-0.218178 0.191406,-0.292236 0.08089,-0.07519 0.173746,-0.129311 0.278565,-0.162354 0.104817,-0.03304 0.215331,-0.04956 0.331543,-0.04956 0.145832,2e-6 0.270018,0.02564 0.372558,0.0769 0.103677,0.05013 0.188557,0.12077 0.254639,0.211914 0.06608,0.09115 0.1145,0.200522 0.145263,0.328125 0.03076,0.126466 0.04614,0.266603 0.04614,0.42041 l 0,0.01367 -1.186035,0 c -1e-6,0.07748 0.0068,0.149822 0.02051,0.217041 0.01367,0.06608 0.03589,0.123617 0.06665,0.172608 0.03076,0.04785 0.07064,0.08602 0.119629,0.114502 0.04899,0.02734 0.108235,0.04102 0.177734,0.04102 0.08431,1e-6 0.153238,-0.01766 0.206788,-0.05298 0.05355,-0.03646 0.09171,-0.09228 0.114501,-0.167481 l 0.452881,0.03931 c -0.02051,0.05241 -0.04956,0.108236 -0.08716,0.16748 -0.03646,0.05924 -0.08545,0.113933 -0.146973,0.164063 -0.06152,0.04899 -0.138429,0.09001 -0.230712,0.123047 -0.09115,0.0319 -0.202231,0.04785 -0.333252,0.04785 m 0,-1.61499 c -0.04899,2e-6 -0.09513,0.0085 -0.138428,0.02563 -0.04216,0.01595 -0.07918,0.04216 -0.111084,0.07861 -0.03076,0.03532 -0.05583,0.08146 -0.0752,0.138428 -0.01937,0.05697 -0.03019,0.125327 -0.03247,0.205078 l 0.717773,0 c -0.0091,-0.14925 -0.045,-0.260904 -0.107666,-0.334961 -0.06266,-0.07519 -0.146973,-0.112791 -0.252929,-0.112793" inkscape:connector-curvature="0"/>
  <path d="m 71.955566,72.21096 c -0.141276,0 -0.250081,-0.03817 -0.326416,-0.114502 -0.07634,-0.07747 -0.114502,-0.194254 -0.114502,-0.350341 l 0,-1.090332 -0.23413,0 0,-0.324707 0.258056,0 0.150391,-0.434082 0.300781,0 0,0.434082 0.350342,0 0,0.324707 -0.350342,0 0,0.960449 c -10e-7,0.09001 0.01709,0.156657 0.05127,0.199951 0.03418,0.04215 0.08716,0.06323 0.158935,0.06323 0.02962,1e-6 0.0564,-0.0023 0.08032,-0.0068 0.02393,-0.0046 0.0507,-0.01025 0.08032,-0.01709 l 0,0.297363 c -0.05925,0.01937 -0.121909,0.03361 -0.187989,0.04273 -0.06608,0.01025 -0.138428,0.01538 -0.217041,0.01538" inkscape:connector-curvature="0"/>
  <path d="m 73.408203,72.214378 c -0.133302,0 -0.2535,-0.01937 -0.360596,-0.0581 -0.105957,-0.03988 -0.196533,-0.09969 -0.271728,-0.179443 -0.0752,-0.08089 -0.132731,-0.181722 -0.172608,-0.302491 -0.03988,-0.121907 -0.05981,-0.264322 -0.05981,-0.427246 0,-0.176594 0.02336,-0.325275 0.07007,-0.446045 0.04785,-0.120766 0.111654,-0.218178 0.191407,-0.292236 0.08089,-0.07519 0.173746,-0.129311 0.278564,-0.162354 0.104817,-0.03304 0.215331,-0.04956 0.331543,-0.04956 0.145832,2e-6 0.270018,0.02564 0.372559,0.0769 0.103677,0.05013 0.188556,0.12077 0.254638,0.211914 0.06608,0.09115 0.114501,0.200522 0.145264,0.328125 0.03076,0.126466 0.04614,0.266603 0.04614,0.42041 l 0,0.01367 -1.186036,0 c 0,0.07748 0.0068,0.149822 0.02051,0.217041 0.01367,0.06608 0.03589,0.123617 0.06665,0.172608 0.03076,0.04785 0.07064,0.08602 0.119629,0.114502 0.04899,0.02734 0.108234,0.04102 0.177734,0.04102 0.08431,1e-6 0.153238,-0.01766 0.206787,-0.05298 0.05355,-0.03646 0.09171,-0.09228 0.114502,-0.167481 l 0.452881,0.03931 c -0.02051,0.05241 -0.04956,0.108236 -0.08716,0.16748 -0.03646,0.05924 -0.08545,0.113933 -0.146973,0.164063 -0.06153,0.04899 -0.138429,0.09001 -0.230713,0.123047 -0.09115,0.0319 -0.202231,0.04785 -0.333252,0.04785 m 0,-1.61499 c -0.04899,2e-6 -0.09513,0.0085 -0.138428,0.02563 -0.04215,0.01595 -0.07918,0.04216 -0.111084,0.07861 -0.03076,0.03532 -0.05583,0.08146 -0.0752,0.138428 -0.01937,0.05697 -0.03019,0.125327 -0.03247,0.205078 l 0.717774,0 c -0.0091,-0.14925 -0.04501,-0.260904 -0.107666,-0.334961 -0.06266,-0.07519 -0.146974,-0.112791 -0.25293,-0.112793" inkscape:connector-curvature="0"/>
  <path d="m 75.370117,72.214378 c -0.146973,0 -0.275717,-0.02279 -0.38623,-0.06836 -0.109376,-0.04557 -0.200522,-0.109945 -0.273438,-0.193115 -0.07292,-0.08317 -0.127604,-0.182861 -0.164062,-0.299073 -0.03646,-0.117349 -0.05469,-0.246662 -0.05469,-0.387939 0,-0.153807 0.01994,-0.290526 0.05982,-0.410156 0.03988,-0.120767 0.09741,-0.222167 0.172607,-0.304199 0.0752,-0.08317 0.16748,-0.146402 0.276856,-0.189698 0.110513,-0.04329 0.235839,-0.06494 0.375976,-0.06494 0.119628,2e-6 0.225585,0.01595 0.317871,0.04785 0.09342,0.0319 0.173745,0.07577 0.240967,0.131592 0.06722,0.05469 0.121336,0.119631 0.162354,0.194824 0.04215,0.0752 0.0712,0.156089 0.08716,0.242676 l -0.483643,0.02393 c -0.01367,-0.09456 -0.04785,-0.169758 -0.102539,-0.225586 -0.05469,-0.05697 -0.132162,-0.08545 -0.232422,-0.08545 -0.128744,10e-7 -0.222738,0.05298 -0.281982,0.158935 -0.05925,0.105959 -0.08887,0.259767 -0.08887,0.461426 -10e-7,0.426107 0.125894,0.639161 0.377685,0.63916 0.09114,10e-7 0.167479,-0.02848 0.229004,-0.08545 0.06152,-0.0581 0.09969,-0.144124 0.114502,-0.258057 l 0.481934,0.02222 c -0.0114,0.08545 -0.0376,0.167481 -0.07861,0.246094 -0.03988,0.07747 -0.09457,0.146403 -0.164062,0.206787 -0.06836,0.05925 -0.151532,0.107097 -0.249512,0.143555 -0.09798,0.03532 -0.210206,0.05298 -0.33667,0.05298" inkscape:connector-curvature="0"/>
  <path d="m 77.020996,72.21096 c -0.141277,0 -0.250082,-0.03817 -0.326416,-0.114502 -0.07634,-0.07747 -0.114502,-0.194254 -0.114502,-0.350341 l 0,-1.090332 -0.234131,0 0,-0.324707 0.258057,0 0.150391,-0.434082 0.300781,0 0,0.434082 0.350342,0 0,0.324707 -0.350342,0 0,0.960449 c -10e-7,0.09001 0.01709,0.156657 0.05127,0.199951 0.03418,0.04215 0.08716,0.06323 0.158936,0.06323 0.02962,1e-6 0.05639,-0.0023 0.08032,-0.0068 0.02393,-0.0046 0.0507,-0.01025 0.08032,-0.01709 l 0,0.297363 c -0.05924,0.01937 -0.121908,0.03361 -0.187988,0.04273 -0.06608,0.01025 -0.138428,0.01538 -0.217041,0.01538" inkscape:connector-curvature="0"/>
  <path d="m 77.716553,69.997826 0,-0.35376 0.480224,0 0,0.35376 -0.480224,0 m 0,2.182373 0,-1.849121 0.480224,0 0,1.849121 -0.480224,0" inkscape:connector-curvature="0"/>
  <path d="m 79.692139,72.180199 -0.574219,0 -0.661377,-1.849121 0.507568,0 0.322998,1.033935 c 0.01025,0.03418 0.02108,0.07064 0.03247,0.109375 0.01139,0.0376 0.02222,0.0752 0.03247,0.112793 0.01025,0.0376 0.01994,0.07406 0.02905,0.109375 0.01025,0.03532 0.01937,0.06722 0.02734,0.0957 0.0068,-0.02734 0.01538,-0.0581 0.02564,-0.09229 0.01025,-0.03532 0.02051,-0.07178 0.03076,-0.109375 0.01139,-0.0376 0.02278,-0.07519 0.03418,-0.112793 0.01253,-0.0376 0.0245,-0.07349 0.03589,-0.107666 l 0.33667,-1.039062 0.502441,0 -0.681884,1.849121" inkscape:connector-curvature="0"/>
  <path d="m 81.392578,72.214378 c -0.133302,0 -0.2535,-0.01937 -0.360596,-0.0581 -0.105957,-0.03988 -0.196533,-0.09969 -0.271728,-0.179443 -0.0752,-0.08089 -0.132731,-0.181722 -0.172608,-0.302491 -0.03988,-0.121907 -0.05981,-0.264322 -0.05981,-0.427246 0,-0.176594 0.02336,-0.325275 0.07007,-0.446045 0.04785,-0.120766 0.111654,-0.218178 0.191407,-0.292236 0.08089,-0.07519 0.173746,-0.129311 0.278564,-0.162354 0.104817,-0.03304 0.215331,-0.04956 0.331543,-0.04956 0.145832,2e-6 0.270018,0.02564 0.372559,0.0769 0.103677,0.05013 0.188556,0.12077 0.254638,0.211914 0.06608,0.09115 0.114501,0.200522 0.145264,0.328125 0.03076,0.126466 0.04614,0.266603 0.04614,0.42041 l 0,0.01367 -1.186036,0 c 0,0.07748 0.0068,0.149822 0.02051,0.217041 0.01367,0.06608 0.03589,0.123617 0.06665,0.172608 0.03076,0.04785 0.07064,0.08602 0.119629,0.114502 0.04899,0.02734 0.108234,0.04102 0.177734,0.04102 0.08431,1e-6 0.153238,-0.01766 0.206787,-0.05298 0.05355,-0.03646 0.09171,-0.09228 0.114502,-0.167481 l 0.452881,0.03931 c -0.02051,0.05241 -0.04956,0.108236 -0.08716,0.16748 -0.03646,0.05924 -0.08545,0.113933 -0.146973,0.164063 -0.06153,0.04899 -0.138429,0.09001 -0.230713,0.123047 -0.09115,0.0319 -0.202231,0.04785 -0.333252,0.04785 m 0,-1.61499 c -0.04899,2e-6 -0.09513,0.0085 -0.138428,0.02563 -0.04215,0.01595 -0.07918,0.04216 -0.111084,0.07861 -0.03076,0.03532 -0.05583,0.08146 -0.0752,0.138428 -0.01937,0.05697 -0.03019,0.125327 -0.03247,0.205078 l 0.717774,0 c -0.0091,-0.14925 -0.04501,-0.260904 -0.107666,-0.334961 -0.06266,-0.07519 -0.146974,-0.112791 -0.25293,-0.112793" inkscape:connector-curvature="0"/>
 </g>
 <g fill="#e6e6e6" fill-opacity="1" stroke="none" transform="matrix(1.01695 0 0 1.01695 -1.505 -9.329)">
  <path d="m 50.042969,66.501732 c -2e-6,0.121908 -0.02393,0.226156 -0.07178,0.312744 -0.04785,0.08545 -0.112225,0.155518 -0.193115,0.210205 -0.08089,0.05355 -0.174888,0.09286 -0.281982,0.11792 -0.107098,0.02506 -0.219891,0.0376 -0.338379,0.0376 l -0.977539,0 0,-2.407959 0.875,0 c 0.133299,2e-6 0.252358,0.0114 0.357178,0.03418 0.104816,0.02165 0.193683,0.0564 0.266601,0.104248 0.07291,0.04785 0.128172,0.108808 0.165772,0.182862 0.03874,0.07292 0.0581,0.160646 0.0581,0.263183 -2e-6,0.06722 -0.0097,0.130455 -0.02905,0.189698 -0.01823,0.05925 -0.04671,0.113364 -0.08545,0.162353 -0.0376,0.04785 -0.08545,0.08944 -0.143555,0.124756 -0.05697,0.03418 -0.123618,0.05982 -0.199951,0.0769 0.09684,0.0114 0.18229,0.03361 0.256348,0.06665 0.07519,0.03304 0.137856,0.0752 0.187988,0.126465 0.05013,0.05127 0.0883,0.111084 0.114502,0.179443 0.0262,0.06722 0.0393,0.140137 0.03931,0.21875 m -0.468262,-1.105713 c -2e-6,-0.129881 -0.04443,-0.222736 -0.133301,-0.278564 -0.08887,-0.05583 -0.217612,-0.08374 -0.38623,-0.08374 l -0.548584,0 0,0.762207 0.548584,0 c 0.0957,2e-6 0.176593,-0.0091 0.242676,-0.02734 0.06608,-0.01937 0.119627,-0.04614 0.160644,-0.08032 0.04101,-0.03532 0.07064,-0.07747 0.08887,-0.126465 0.01823,-0.04899 0.02734,-0.104246 0.02734,-0.165771 m 0.138428,1.080078 c -2e-6,-0.07633 -0.01424,-0.141275 -0.04273,-0.194824 -0.02734,-0.05355 -0.06722,-0.09741 -0.119629,-0.131592 -0.05241,-0.03418 -0.115643,-0.05924 -0.189697,-0.0752 -0.07292,-0.01595 -0.154949,-0.02392 -0.246094,-0.02393 l -0.608398,0 0,0.868164 0.634033,0 c 0.08317,0 0.159504,-0.0068 0.229004,-0.02051 0.07064,-0.01367 0.13102,-0.0376 0.181152,-0.07178 0.05127,-0.03418 0.09114,-0.07975 0.119629,-0.136719 0.02848,-0.05696 0.04272,-0.128173 0.04273,-0.213623" inkscape:connector-curvature="0"/>
  <path d="m 50.473633,67.180199 0,-1.418457 c 0,-0.03874 -5.7e-4,-0.07804 -0.0017,-0.11792 0,-0.04101 -5.7e-4,-0.08032 -0.0017,-0.11792 -0.0011,-0.0376 -0.0023,-0.07292 -0.0034,-0.105957 -0.0011,-0.03304 -0.0023,-0.06266 -0.0034,-0.08887 l 0.290527,0 c 0.0011,0.02621 0.0023,0.0564 0.0034,0.09058 0.0023,0.03304 0.004,0.06722 0.0051,0.102539 0.0023,0.03532 0.0034,0.0695 0.0034,0.102539 0.0011,0.0319 0.0017,0.05925 0.0017,0.08203 l 0.0068,0 c 0.02165,-0.07064 0.04443,-0.13159 0.06836,-0.182861 0.02506,-0.05241 0.05412,-0.09513 0.08716,-0.128174 0.03304,-0.03418 0.07235,-0.05924 0.11792,-0.07519 0.04557,-0.01709 0.100829,-0.02563 0.165771,-0.02564 0.02506,2e-6 0.04899,0.0023 0.07178,0.0068 0.02279,0.0034 0.04044,0.0068 0.05298,0.01025 l 0,0.281982 c -0.02051,-0.0057 -0.04443,-0.0097 -0.07178,-0.01196 -0.02734,-0.0034 -0.05811,-0.0051 -0.09229,-0.0051 -0.07064,2e-6 -0.131023,0.01595 -0.181152,0.04785 -0.04899,0.0319 -0.08944,0.07634 -0.121338,0.133301 -0.03076,0.05583 -0.05355,0.123048 -0.06836,0.20166 -0.01481,0.07748 -0.02222,0.162354 -0.02222,0.254638 l 0,0.963868 -0.307617,0" inkscape:connector-curvature="0"/>
  <path d="m 51.634033,64.938011 0,-0.293945 0.307617,0 0,0.293945 -0.307617,0 m 0,2.242188 0,-1.849121 0.307617,0 0,1.849121 -0.307617,0" inkscape:connector-curvature="0"/>
  <path d="m 53.125977,67.166527 c -0.04671,0.01253 -0.09456,0.02222 -0.143555,0.02905 -0.04785,0.008 -0.103679,0.01196 -0.167481,0.01196 -0.246094,0 -0.36914,-0.139567 -0.36914,-0.418701 l 0,-1.233886 -0.213623,0 0,-0.223877 0.225586,0 0.09058,-0.413575 0.205078,0 0,0.413575 0.341797,0 0,0.223877 -0.341797,0 0,1.167236 c -10e-7,0.08887 0.01424,0.15153 0.04272,0.187988 0.02962,0.03532 0.08032,0.05298 0.152099,0.05298 0.02962,0 0.0581,-0.0023 0.08545,-0.0068 0.02848,-0.0046 0.05924,-0.01025 0.09229,-0.01709 l 0,0.227295" inkscape:connector-curvature="0"/>
  <path d="m 53.384033,64.938011 0,-0.293945 0.307617,0 0,0.293945 -0.307617,0 m 0,2.242188 0,-1.849121 0.307617,0 0,1.849121 -0.307617,0" inkscape:connector-curvature="0"/>
  <path d="m 55.552734,66.669212 c -10e-7,0.08659 -0.01709,0.164063 -0.05127,0.232422 -0.03304,0.06722 -0.08146,0.124187 -0.145264,0.170899 -0.0638,0.04557 -0.142416,0.08089 -0.23584,0.105957 -0.09229,0.02393 -0.198243,0.03589 -0.317871,0.03589 -0.107097,0 -0.203939,-0.0085 -0.290527,-0.02563 -0.08545,-0.01595 -0.160645,-0.04215 -0.225586,-0.07861 -0.06494,-0.03646 -0.119629,-0.08431 -0.164063,-0.143554 -0.04329,-0.06038 -0.0752,-0.13387 -0.0957,-0.220459 l 0.271729,-0.05298 c 0.0262,0.09912 0.08032,0.172038 0.162353,0.21875 0.08203,0.04557 0.195963,0.06836 0.341797,0.06836 0.06608,1e-6 0.126464,-0.0046 0.181153,-0.01367 0.05582,-0.0091 0.103677,-0.0245 0.143554,-0.04614 0.03987,-0.02279 0.07064,-0.05241 0.09228,-0.08887 0.02279,-0.0376 0.03418,-0.08374 0.03418,-0.138428 -10e-7,-0.05583 -0.0131,-0.101399 -0.03931,-0.136719 -0.0262,-0.03646 -0.06266,-0.06665 -0.109375,-0.09058 -0.04671,-0.02393 -0.103679,-0.04443 -0.170898,-0.06152 -0.06608,-0.01823 -0.138998,-0.03817 -0.21875,-0.05982 -0.07406,-0.01937 -0.147543,-0.04101 -0.220459,-0.06494 -0.07292,-0.02392 -0.138998,-0.05526 -0.198242,-0.09399 -0.05811,-0.03988 -0.105388,-0.08887 -0.141846,-0.146973 -0.03646,-0.0581 -0.05469,-0.131021 -0.05469,-0.21875 -10e-7,-0.168618 0.05981,-0.296792 0.179443,-0.384521 0.120768,-0.08887 0.296223,-0.133299 0.526367,-0.133301 0.203938,2e-6 0.365722,0.03589 0.485352,0.107666 0.120767,0.07178 0.197101,0.18685 0.229004,0.345215 l -0.276856,0.03418 c -0.01026,-0.04785 -0.02905,-0.08773 -0.0564,-0.119629 -0.02735,-0.03304 -0.06039,-0.05924 -0.09912,-0.07861 -0.03874,-0.02051 -0.0826,-0.03475 -0.131592,-0.04272 -0.04785,-0.0091 -0.09798,-0.01367 -0.150391,-0.01367 -0.138998,10e-7 -0.241537,0.02108 -0.307617,0.06323 -0.06608,0.04216 -0.09912,0.105959 -0.09912,0.191406 -10e-7,0.05013 0.01196,0.09172 0.03589,0.124756 0.02506,0.0319 0.05924,0.05925 0.102539,0.08203 0.04443,0.02165 0.09741,0.04102 0.158935,0.05811 0.06152,0.01595 0.129312,0.03304 0.203369,0.05127 0.04899,0.01253 0.09912,0.02621 0.150391,0.04102 0.05127,0.01367 0.100829,0.03076 0.148682,0.05127 0.04899,0.01937 0.09456,0.04272 0.136718,0.07007 0.04329,0.02621 0.08089,0.05811 0.112793,0.0957 0.0319,0.0376 0.05696,0.08146 0.0752,0.131592 0.01937,0.05013 0.02905,0.108236 0.02905,0.174316" inkscape:connector-curvature="0"/>
  <path d="m 56.220947,65.64724 c 0.03418,-0.06266 0.07121,-0.11564 0.111084,-0.158936 0.03988,-0.04443 0.08374,-0.08089 0.131592,-0.109375 0.04785,-0.02848 0.10026,-0.04899 0.157227,-0.06152 0.05697,-0.01367 0.120767,-0.02051 0.191406,-0.02051 0.118488,2e-6 0.215331,0.01595 0.290527,0.04785 0.07633,0.0319 0.136148,0.07691 0.179444,0.13501 0.04443,0.05697 0.07462,0.125327 0.09058,0.205078 0.01709,0.07975 0.02563,0.167482 0.02563,0.263184 l 0,1.232178 -0.309326,0 0,-1.172364 c -1e-6,-0.07861 -0.0051,-0.147541 -0.01538,-0.206787 -0.0091,-0.05924 -0.02734,-0.108234 -0.05469,-0.146972 -0.02735,-0.03988 -0.06608,-0.0695 -0.116211,-0.08887 -0.05013,-0.02051 -0.115073,-0.03076 -0.194824,-0.03076 -0.07292,10e-7 -0.138998,0.0131 -0.198242,0.03931 -0.05811,0.02621 -0.108237,0.06323 -0.150391,0.111084 -0.04102,0.04785 -0.07292,0.105959 -0.0957,0.174317 -0.02279,0.06836 -0.03418,0.145265 -0.03418,0.230713 l 0,1.090332 -0.307617,0 0,-2.536133 0.307617,0 0,0.659668 c 0,0.0376 -5.7e-4,0.0752 -0.0017,0.112793 -0.0011,0.0376 -0.0028,0.07235 -0.0051,0.104248 -0.0011,0.0319 -0.0023,0.05925 -0.0034,0.08203 -0.0011,0.02165 -0.0023,0.03646 -0.0034,0.04443 l 0.0051,0" inkscape:connector-curvature="0"/>
  <path d="m 60.22168,66.669212 c -2e-6,0.08659 -0.01709,0.164063 -0.05127,0.232422 -0.03304,0.06722 -0.08146,0.124187 -0.145264,0.170899 -0.0638,0.04557 -0.142416,0.08089 -0.235839,0.105957 -0.09229,0.02393 -0.198244,0.03589 -0.317871,0.03589 -0.107098,0 -0.20394,-0.0085 -0.290528,-0.02563 -0.08545,-0.01595 -0.160645,-0.04215 -0.225586,-0.07861 -0.06494,-0.03646 -0.119629,-0.08431 -0.164062,-0.143554 -0.0433,-0.06038 -0.0752,-0.13387 -0.0957,-0.220459 l 0.271728,-0.05298 c 0.0262,0.09912 0.08032,0.172038 0.162354,0.21875 0.08203,0.04557 0.195962,0.06836 0.341797,0.06836 0.06608,1e-6 0.126463,-0.0046 0.181152,-0.01367 0.05583,-0.0091 0.103677,-0.0245 0.143555,-0.04614 0.03988,-0.02279 0.07064,-0.05241 0.09228,-0.08887 0.02278,-0.0376 0.03418,-0.08374 0.03418,-0.138428 -1e-6,-0.05583 -0.0131,-0.101399 -0.03931,-0.136719 -0.02621,-0.03646 -0.06266,-0.06665 -0.109375,-0.09058 -0.04671,-0.02393 -0.10368,-0.04443 -0.170899,-0.06152 -0.06608,-0.01823 -0.138998,-0.03817 -0.21875,-0.05982 -0.07406,-0.01937 -0.147543,-0.04101 -0.220459,-0.06494 -0.07292,-0.02392 -0.138997,-0.05526 -0.198242,-0.09399 -0.05811,-0.03988 -0.105387,-0.08887 -0.141846,-0.146973 -0.03646,-0.0581 -0.05469,-0.131021 -0.05469,-0.21875 0,-0.168618 0.05981,-0.296792 0.179443,-0.384521 0.120768,-0.08887 0.296224,-0.133299 0.526368,-0.133301 0.203937,2e-6 0.365721,0.03589 0.485351,0.107666 0.120767,0.07178 0.197101,0.18685 0.229004,0.345215 l -0.276855,0.03418 c -0.01026,-0.04785 -0.02905,-0.08773 -0.0564,-0.119629 -0.02734,-0.03304 -0.06038,-0.05924 -0.09912,-0.07861 -0.03874,-0.02051 -0.0826,-0.03475 -0.131592,-0.04272 -0.04785,-0.0091 -0.09798,-0.01367 -0.15039,-0.01367 -0.138999,10e-7 -0.241538,0.02108 -0.307618,0.06323 -0.06608,0.04216 -0.09912,0.105959 -0.09912,0.191406 0,0.05013 0.01196,0.09172 0.03589,0.124756 0.02506,0.0319 0.05924,0.05925 0.102539,0.08203 0.04443,0.02165 0.09741,0.04102 0.158936,0.05811 0.06152,0.01595 0.129312,0.03304 0.203369,0.05127 0.04899,0.01253 0.09912,0.02621 0.15039,0.04102 0.05127,0.01367 0.100829,0.03076 0.148682,0.05127 0.04899,0.01937 0.09456,0.04272 0.136719,0.07007 0.04329,0.02621 0.08089,0.05811 0.112793,0.0957 0.0319,0.0376 0.05696,0.08146 0.0752,0.131592 0.01937,0.05013 0.02905,0.108236 0.02905,0.174316" inkscape:connector-curvature="0"/>
  <path d="m 60.884766,65.331078 0,1.172363 c -10e-7,0.09001 0.0063,0.165202 0.0188,0.225586 0.01367,0.06038 0.03532,0.109375 0.06494,0.146972 0.02962,0.03646 0.06836,0.06266 0.116211,0.07861 0.04899,0.01481 0.109374,0.02222 0.181152,0.02222 0.07292,0 0.138427,-0.01253 0.196533,-0.0376 0.05924,-0.0262 0.109374,-0.06323 0.150391,-0.111084 0.04215,-0.04899 0.07462,-0.108805 0.09741,-0.179443 0.02278,-0.07178 0.03418,-0.153808 0.03418,-0.246094 l 0,-1.071533 0.307617,0 0,1.454345 c -2e-6,0.03874 -2e-6,0.07975 0,0.123047 0.0011,0.04216 0.0023,0.0826 0.0034,0.121338 0.0011,0.0376 0.0023,0.07007 0.0034,0.09741 0.0011,0.02734 0.0023,0.045 0.0034,0.05298 l -0.290527,0 c -0.0011,-0.0057 -0.0023,-0.02108 -0.0034,-0.04614 -0.0011,-0.02506 -0.0028,-0.05355 -0.0051,-0.08545 -0.0011,-0.03304 -0.0023,-0.06608 -0.0034,-0.09912 -0.0011,-0.03418 -0.0017,-0.06266 -0.0017,-0.08545 l -0.0051,0 c -0.02962,0.05355 -0.06209,0.101969 -0.09741,0.145263 -0.03532,0.0433 -0.07634,0.08032 -0.123047,0.111084 -0.04671,0.02962 -0.100262,0.05241 -0.160645,0.06836 -0.06038,0.01709 -0.130453,0.02563 -0.210205,0.02563 -0.10254,0 -0.190837,-0.01253 -0.264892,-0.0376 -0.07406,-0.02507 -0.135011,-0.0638 -0.182862,-0.116211 -0.04785,-0.05241 -0.08317,-0.119629 -0.105957,-0.20166 -0.02165,-0.08203 -0.03247,-0.180583 -0.03247,-0.295655 l 0,-1.232177 0.309327,0" inkscape:connector-curvature="0"/>
  <path d="m 64.095947,66.247093 c -2e-6,0.644857 -0.226727,0.967285 -0.680176,0.967285 -0.140137,0 -0.256918,-0.02506 -0.350341,-0.07519 -0.09229,-0.05127 -0.167481,-0.133301 -0.225586,-0.246094 l -0.0034,0 c -10e-7,0.02962 -0.0011,0.06038 -0.0034,0.09228 -0.0011,0.0319 -0.0028,0.06152 -0.0051,0.08887 -0.0011,0.02734 -0.0028,0.0507 -0.0051,0.07007 -0.0011,0.01937 -0.0023,0.03133 -0.0034,0.03589 l -0.297363,0 c 0.0011,-0.01025 0.0023,-0.02734 0.0034,-0.05127 0.0011,-0.02506 0.0023,-0.05469 0.0034,-0.08887 0.0011,-0.03418 0.0017,-0.07178 0.0017,-0.112793 0.0011,-0.04102 0.0017,-0.08374 0.0017,-0.128174 l 0,-2.155029 0.307617,0 0,0.7229 c -10e-7,0.03418 -5.7e-4,0.06722 -0.0017,0.09912 -10e-7,0.03076 -5.7e-4,0.05811 -0.0017,0.08203 -0.0011,0.02848 -0.0023,0.05526 -0.0034,0.08032 l 0.0068,0 c 0.05696,-0.118488 0.132161,-0.203368 0.225586,-0.254639 0.09456,-0.05127 0.211343,-0.0769 0.350341,-0.0769 0.23356,2e-6 0.405028,0.07861 0.514405,0.23584 0.110512,0.157228 0.165769,0.395346 0.165771,0.714355 m -0.322998,0.01025 c -1e-6,-0.127603 -0.008,-0.236978 -0.02393,-0.328125 -0.01595,-0.09114 -0.04159,-0.16577 -0.0769,-0.223877 -0.03532,-0.05924 -0.08032,-0.102537 -0.13501,-0.129883 -0.05469,-0.02734 -0.121339,-0.04101 -0.199951,-0.04102 -0.08089,10e-7 -0.15267,0.0131 -0.215332,0.03931 -0.06152,0.02621 -0.113363,0.06836 -0.155517,0.126465 -0.04102,0.05811 -0.07235,0.134442 -0.09399,0.229004 -0.02165,0.09457 -0.03247,0.210206 -0.03247,0.346924 -10e-7,0.132162 0.01082,0.243246 0.03247,0.333252 0.02165,0.09001 0.05298,0.163493 0.09399,0.220459 0.04215,0.05583 0.09399,0.09627 0.155517,0.121338 0.06152,0.02393 0.132161,0.03589 0.211914,0.03589 0.07519,10e-7 0.140136,-0.0131 0.194824,-0.03931 0.05469,-0.0262 0.10026,-0.06836 0.136719,-0.126465 0.03646,-0.05811 0.06323,-0.1333 0.08032,-0.225586 0.01823,-0.09342 0.02734,-0.206217 0.02734,-0.338379" inkscape:connector-curvature="0"/>
  <path d="m 64.47876,64.938011 0,-0.293945 0.307617,0 0,0.293945 -0.307617,0 m 0.307617,2.471192 c -10e-7,0.07064 -0.0063,0.136148 -0.0188,0.196533 -0.01139,0.06038 -0.03247,0.112792 -0.06323,0.157226 -0.03076,0.04443 -0.07292,0.07918 -0.126465,0.104248 -0.05241,0.0262 -0.119629,0.03931 -0.20166,0.03931 -0.03874,-10e-7 -0.0769,-0.0011 -0.114502,-0.0034 -0.03646,-0.0023 -0.07064,-0.0063 -0.102539,-0.01196 l 0,-0.237549 c 0.01481,0.0023 0.03247,0.0046 0.05298,0.0068 0.02051,0.0023 0.03817,0.0034 0.05298,0.0034 0.04329,0 0.07861,-0.0057 0.105957,-0.01709 0.02848,-0.01139 0.0507,-0.02962 0.06665,-0.05469 0.01595,-0.02393 0.02677,-0.05526 0.03247,-0.09399 0.0057,-0.0376 0.0085,-0.0826 0.0085,-0.13501 l 0,-2.031982 0.307617,0 0,2.078125" inkscape:connector-curvature="0"/>
  <path d="m 65.495605,66.32058 c 0,0.09684 0.0097,0.186279 0.02905,0.26831 0.02051,0.08089 0.05127,0.150961 0.09229,0.210205 0.04215,0.05811 0.0957,0.103679 0.160645,0.136719 0.06494,0.0319 0.142984,0.04785 0.234131,0.04785 0.133299,10e-7 0.239826,-0.02677 0.31958,-0.08032 0.08089,-0.05355 0.135578,-0.121337 0.164062,-0.203369 l 0.27002,0.0769 c -0.01937,0.05127 -0.04671,0.103109 -0.08203,0.155518 -0.03418,0.05127 -0.08032,0.09798 -0.138428,0.140137 -0.05811,0.04101 -0.131024,0.07519 -0.21875,0.102539 -0.08659,0.0262 -0.191407,0.03931 -0.314453,0.03931 -0.273438,0 -0.481934,-0.08146 -0.625489,-0.244384 -0.142415,-0.162923 -0.213623,-0.405029 -0.213623,-0.726319 0,-0.173176 0.02165,-0.319579 0.06494,-0.439209 0.04329,-0.120766 0.102539,-0.218748 0.177734,-0.293945 0.07519,-0.07519 0.162923,-0.129311 0.263184,-0.162354 0.100259,-0.03418 0.207356,-0.05127 0.321289,-0.05127 0.154947,2e-6 0.28426,0.02507 0.387939,0.0752 0.104817,0.05013 0.188557,0.119631 0.251221,0.208496 0.0638,0.08773 0.108804,0.191408 0.13501,0.311035 0.02734,0.119631 0.04101,0.248944 0.04102,0.38794 l 0,0.04102 -1.319336,0 m 1.001465,-0.23584 c -0.01709,-0.194823 -0.06665,-0.336669 -0.148681,-0.425537 -0.08203,-0.09001 -0.199953,-0.135009 -0.35376,-0.13501 -0.05127,10e-7 -0.105388,0.0085 -0.162354,0.02564 -0.05583,0.01595 -0.107666,0.045 -0.155517,0.08716 -0.04785,0.04216 -0.0883,0.09969 -0.121338,0.172607 -0.03304,0.07178 -0.05184,0.163494 -0.0564,0.275147 l 0.998047,0" inkscape:connector-curvature="0"/>
  <path d="m 67.442139,66.247093 c -10e-7,0.105958 0.0074,0.20337 0.02222,0.292237 0.01595,0.08887 0.04216,0.165771 0.07861,0.230712 0.03646,0.0638 0.08431,0.113363 0.143554,0.148682 0.06038,0.03532 0.13444,0.05298 0.222168,0.05298 0.109374,0 0.20052,-0.02962 0.273438,-0.08887 0.07406,-0.05924 0.119627,-0.15039 0.136719,-0.273437 l 0.311035,0.02051 c -0.01026,0.07634 -0.03247,0.149821 -0.06665,0.220459 -0.03418,0.07064 -0.08089,0.132731 -0.140136,0.186279 -0.05811,0.05355 -0.129315,0.09684 -0.213623,0.129883 -0.08431,0.0319 -0.181723,0.04785 -0.292237,0.04785 -0.144694,0 -0.267741,-0.0245 -0.36914,-0.07349 -0.101401,-0.04899 -0.184001,-0.116211 -0.247803,-0.20166 -0.06266,-0.08659 -0.108236,-0.187988 -0.136719,-0.304199 -0.02848,-0.11735 -0.04272,-0.244384 -0.04272,-0.381104 -1e-6,-0.124185 0.01025,-0.23356 0.03076,-0.328125 0.02051,-0.0957 0.04899,-0.178872 0.08545,-0.249512 0.0376,-0.07178 0.08146,-0.13159 0.131591,-0.179443 0.05013,-0.04899 0.104248,-0.08773 0.162354,-0.116211 0.05924,-0.02962 0.121337,-0.0507 0.186279,-0.06323 0.06494,-0.01367 0.130452,-0.02051 0.196533,-0.02051 0.103678,2e-6 0.195963,0.01424 0.276856,0.04272 0.08089,0.02848 0.150389,0.06779 0.208496,0.11792 0.05924,0.04899 0.107095,0.107098 0.143555,0.174317 0.03646,0.06722 0.06209,0.139568 0.0769,0.217041 l -0.316162,0.02393 c -0.01595,-0.102538 -0.0564,-0.184 -0.121338,-0.244385 -0.06494,-0.06038 -0.157228,-0.09058 -0.276856,-0.09058 -0.08773,10e-7 -0.161215,0.01481 -0.220459,0.04443 -0.05811,0.02849 -0.105388,0.07235 -0.141845,0.131592 -0.03646,0.05811 -0.06266,0.131593 -0.07861,0.220459 -0.01481,0.08887 -0.02222,0.193116 -0.02222,0.312744" inkscape:connector-curvature="0"/>
  <path d="m 69.668945,67.166527 c -0.04671,0.01253 -0.09456,0.02222 -0.143554,0.02905 -0.04785,0.008 -0.103679,0.01196 -0.167481,0.01196 -0.246094,0 -0.369141,-0.139567 -0.36914,-0.418701 l 0,-1.233886 -0.213624,0 0,-0.223877 0.225586,0 0.09058,-0.413575 0.205078,0 0,0.413575 0.341797,0 0,0.223877 -0.341797,0 0,1.167236 c -10e-7,0.08887 0.01424,0.15153 0.04272,0.187988 0.02962,0.03532 0.08032,0.05298 0.1521,0.05298 0.02962,0 0.0581,-0.0023 0.08545,-0.0068 0.02848,-0.0046 0.05924,-0.01025 0.09228,-0.01709 l 0,0.227295" inkscape:connector-curvature="0"/>
 </g>
 <path d="m 47.491534,69.898304 c 0.02838,2.033865 0.03905,4.067652 0.03704,6.101691 l 0.92603,0 c -0.0037,-2.033912 -0.01548,-4.067803 -0.03175,-6.101691 l -0.931325,0 z m 1.582189,0 c 0.0094,2.033903 0.01029,4.067812 0.03175,6.101691 l 0.40216,0 c -0.01066,-2.033897 -0.02018,-4.067796 -0.03175,-6.101691 l -0.402164,0 z m 1.608664,0 c 0.158733,2.033015 0.05396,4.067743 0.02646,6.101691 l 1.444607,0 c -9.9e-5,-2.033905 -0.0039,-4.067799 -0.01586,-6.101691 l -1.455189,0 -9e-6,0 z m 2.608763,0 c 0.01702,2.033878 0.009,4.067817 0.02646,6.101691 l 0.941903,0 c 1.08e-4,-1.62629 -0.0087,-4.024972 -0.02116,-6.101691 l -0.947197,0 z m 2.169542,0 c -0.0283,0.538725 -0.02721,2.211961 0.0053,6.101691 l 0.354536,0 c 0.01316,-1.599738 8.47e-4,-4.011218 -0.02116,-6.101691 l -0.338664,0 10e-6,0 7.2e-5,0 -5.5e-5,0 z m 2.079597,0 c 0.0053,2.033907 0.008,4.067817 0.03175,6.101691 l 0.322788,0 c 0.02188,-2.033878 0.01605,-4.067796 0.01066,-6.101691 l -0.365121,0 -5.9e-5,0 -1.5e-5,0 z m 1.576903,0 c 0.0149,2.033888 0.01316,4.067838 0.04234,6.101691 l 0.931322,0 c -0.02389,-2.033881 -0.04031,-4.06778 -0.0529,-6.101691 l -0.920739,0 -1.3e-5,0 z m 2.111333,0 c 0.0028,2.033912 0.01257,4.067838 0.04234,6.101691 l 0.375704,0 c -0.0097,-2.0339 -0.02904,-4.06778 -0.03704,-6.101691 l -0.380997,0 z m 1.576905,4e-6 c 0.01939,2.248851 0.03452,4.950993 0.03703,6.02416 7.4e-5,0.03076 -9.1e-5,0.04762 0,0.07753 l 1.476356,0 c -0.01353,-2.033911 -0.02983,-4.067809 -0.0529,-6.101692 l -1.460483,0 z m 2.185431,-4e-6 c 0.0065,2.033904 0.01149,4.067812 0.03175,6.101691 l 0.899571,0 c -0.0025,-2.033904 -0.01029,-4.067798 -0.02116,-6.101691 l -0.910154,0 z m 1.613942,0 c -0.0081,2.033895 -0.0078,4.067796 0,6.101691 l 0.915448,0 c 0.0041,-2.033915 -0.01198,-4.067811 -0.03175,-6.101691 l -0.883697,0 z m 1.603372,0 c 0.01353,2.033895 0.0145,4.067815 0.03703,6.101691 l 0.888988,0 c -0.01856,-2.033895 -0.03689,-4.067788 -0.0529,-6.101691 l -0.873114,0 z m 2.629917,0 c 0.0065,2.033909 0.02753,4.067796 0.04233,6.101691 l 0.910154,0 c -0.0081,-2.033893 -0.0069,-4.067799 -0.01586,-6.101691 l -0.936611,0 -9e-6,0 -1.6e-5,0 z m 2.688126,0 c 0.02349,2.033847 -0.01914,4.067883 0.01585,6.101691 l 0.391578,0 c -0.0032,-2.03392 -0.02371,-4.067816 -0.04761,-6.101691 l -0.359829,0 9e-6,0 z m 1.037152,0 c 0.02901,2.03386 0.02715,4.067827 0.0529,6.101691 l 0.338663,0 c 0.01161,-1.55548 0.0072,-3.991551 -0.0053,-6.101691 l -0.386287,0 -8e-6,0 -5.6e-5,0 5.1e-5,0 z m 2.196008,0 c 0.0069,2.540774 0.02911,5.170662 0.05822,6.101691 l 0.894282,0 c -3.38e-4,-2.033903 -0.01701,-4.067796 -0.02647,-6.101691 l -0.926026,0 z m 2.698723,0 c 0.02504,2.033872 0.01741,4.067812 0.03704,6.101691 l 0.370413,0 c -0.0097,-2.0339 -0.02796,-4.067785 -0.03704,-6.101691 l -0.370413,0 z m 1.053019,0 c 0.01837,2.03389 0.03581,4.067785 0.04761,6.101691 l 1.45519,0 c -0.01818,-2.033884 -0.02625,-4.067785 -0.03175,-6.101691 l -1.471066,0 9e-6,0 z m 2.153691,0 c 0.01066,2.033908 0.03446,4.067787 0.04761,6.101691 l 1.386401,0 c 0.0056,-1.627806 0.0025,-4.022152 -0.0053,-6.101691 l -1.428732,0 -8e-6,0 -5.2e-5,0 4.5e-5,0 z" fill="#e6e6e6" fill-opacity="1" inkscape:connector-curvature="0"/>
 <rect x="47.49" rx="1.017" y="49.559" ry="0.678" fill="#e6e6e6" fill-opacity="1" stroke="none" height="2.034" opacity="0.1" width="36.61"/>
</svg>
