<svg height="96" width="96" xmlns="http://www.w3.org/2000/svg" xmlns:xlink="http://www.w3.org/1999/xlink" xmlns:sodipodi="http://sodipodi.sourceforge.net/DTD/sodipodi-0.dtd" xmlns:inkscape="http://www.inkscape.org/namespaces/inkscape">
 <defs>
  <linearGradient x2="0" y1="6" y2="63.893" gradientUnits="userSpaceOnUse" id="linearGradient3188">
   <stop stop-color="#ffffff" stop-opacity="1"/>
   <stop stop-color="#ffffff" stop-opacity="0" offset="1"/>
  </linearGradient>
  <linearGradient x1="6" x2="32.03" gradientUnits="userSpaceOnUse" id="linearGradient3287" gradientTransform="matrix(-1 0 0 1 96.03 0)">
   <stop stop-color="#7a7a7a" stop-opacity="1"/>
   <stop stop-color="#f9f9f9" stop-opacity="1" offset="0.146"/>
   <stop stop-color="#c9c9c9" stop-opacity="1" offset="0.373"/>
   <stop stop-color="#dedede" stop-opacity="0" offset="1"/>
  </linearGradient>
  <linearGradient x1="6" x2="32" gradientUnits="userSpaceOnUse" id="linearGradient3279">
   <stop stop-color="#7a7a7a" stop-opacity="1"/>
   <stop stop-color="#f9f9f9" stop-opacity="1" offset="0.203"/>
   <stop stop-color="#c9c9c9" stop-opacity="1" offset="0.43"/>
   <stop stop-color="#dedede" stop-opacity="0" offset="1"/>
  </linearGradient>
  <linearGradient x2="0" xlink:href="#linearGradient3448" y1="77.09" y2="90" gradientUnits="userSpaceOnUse" id="linearGradient3460"/>
  <linearGradient id="linearGradient3448">
   <stop stop-color="#000000" stop-opacity="1"/>
   <stop stop-color="#000000" stop-opacity="0" offset="1"/>
  </linearGradient>
  <linearGradient x2="0" xlink:href="#linearGradient3448" y1="80.14" y2="82" gradientUnits="userSpaceOnUse" id="linearGradient4196"/>
  <linearGradient x2="0" y1="6" y2="78" gradientUnits="userSpaceOnUse" id="linearGradient3179">
   <stop stop-color="#f0f0f0" stop-opacity="1"/>
   <stop stop-color="#b4b4b4" stop-opacity="1" offset="1"/>
  </linearGradient>
  <linearGradient x1="18.743" x2="109.19" xlink:href="#linearGradient3220" y1="8.05" y2="68.52" gradientUnits="userSpaceOnUse" id="linearGradient3551" gradientTransform="matrix(1 0 0 -1 0 84)"/>
  <linearGradient id="linearGradient3220">
   <stop stop-color="#ffffff" stop-opacity="1"/>
   <stop stop-color="#bfbfbf" stop-opacity="0" offset="1"/>
  </linearGradient>
  <linearGradient x1="6" x2="45.22" xlink:href="#linearGradient3448" gradientUnits="userSpaceOnUse" id="linearGradient3454" gradientTransform="matrix(-1 0 0 1 96 -2)"/>
  <linearGradient x1="15.656" x2="46.595" xlink:href="#linearGradient3220" y1="69.39" y2="39.821" gradientUnits="userSpaceOnUse" id="linearGradient3781" gradientTransform="matrix(1.11656 0 0 1.11656 0.805 -5.676)"/>
  <clipPath id="clipPath3785">
   <rect x="6" rx="6" y="6" height="72" width="84"/>
  </clipPath>
  <filter x="-0.123" y="-0.18" height="1.36" color-interpolation-filters="sRGB" id="filter3829" width="1.245">
   <feGaussianBlur stdDeviation="3.54877"/>
  </filter>
  <filter x="-0.114" y="-1.415" height="3.83" color-interpolation-filters="sRGB" id="filter4180" width="1.229">
   <feGaussianBlur stdDeviation="3.53729"/>
  </filter>
  <radialGradient cy="84" r="30" gradientUnits="userSpaceOnUse" id="radialGradient4138" cx="48" gradientTransform="matrix(1.06667 0 0 0.06667 -3.2 77.4)">
   <stop stop-color="#4dbeff" stop-opacity="1"/>
   <stop stop-color="#1379ff" stop-opacity="0.65" offset="0.672"/>
   <stop stop-color="#0066ff" stop-opacity="0" offset="1"/>
  </radialGradient>
  <clipPath id="clipPath3807">
   <path d="m 112,6 c -3.324,0 -6,2.676 -6,6 l 0,58 c 0,3.324 2.676,6 6,6 l 72,0 c 3.324,0 6,-2.676 6,-6 l 0,-58 c 0,-3.324 -2.676,-6 -6,-6 l -72,0 z m 36,18 16,18 -32,0 16,-18 z m -16,22 32,0 0,8 -32,0 0,-8 z" inkscape:connector-curvature="0"/>
  </clipPath>
  <filter x="-0.186" y="-0.198" height="1.397" color-interpolation-filters="sRGB" id="filter3813" width="1.372">
   <feGaussianBlur stdDeviation="2.48"/>
  </filter>
  <linearGradient x2="0" y1="51.959" y2="24" gradientUnits="userSpaceOnUse" id="linearGradient3761" gradientTransform="matrix(1 0 0 1 0 2)">
   <stop stop-color="#4d4d4d" stop-opacity="0.707"/>
   <stop stop-color="#4d4d4d" stop-opacity="0.252" offset="1"/>
  </linearGradient>
  <clipPath clipPathUnits="userSpaceOnUse" id="clipPath3168">
   <rect x="5.896" rx="22.789" y="6.151" height="83.86" width="83.86"/>
  </clipPath>
  <clipPath clipPathUnits="userSpaceOnUse" id="clipPath3009">
   <path d="m -2,956.36218 -96,0 0,33.5624 96,25.68742 0,-59.24982 z" inkscape:connector-curvature="0"/>
  </clipPath>
  <path d="M 90,64.1875 90,84 c 0,3.324 -2.676,6 -6,6 L 12,90 C 8.676,90 6,87.324 6,84 l 0,-19.8125 84,0 z" fill-opacity="1" stroke="none" fill-rule="nonzero" id="SVGCleanerId_0"/>
 </defs>
 <g inkscape:label="Layer 1" inkscape:groupmode="layer" transform="matrix(1 0 0 1 0 -956.36)">
  <g clip-path="url(#clipPath3168)" transform="matrix(1.097 0 0 1.097 -4.468 951.61)">
   <path d="M 12,6 C 8.676,6 6,8.676 6,12 l 0,2 0,68 0,2 c 0,0.334721 0.04135,0.6507 0.09375,0.96875 0.0487,0.295596 0.09704,0.596915 0.1875,0.875 0.00988,0.03038 0.020892,0.0636 0.03125,0.09375 0.098865,0.287771 0.2348802,0.547452 0.375,0.8125 0.1445918,0.273507 0.3156161,0.535615 0.5,0.78125 0.1843839,0.245635 0.3737765,0.473472 0.59375,0.6875 0.439947,0.428056 0.94291,0.814526 1.5,1.09375 0.278545,0.139612 0.5734731,0.246947 0.875,0.34375 -0.2562018,-0.100222 -0.4867109,-0.236272 -0.71875,-0.375 -0.00741,-0.0044 -0.023866,0.0045 -0.03125,0 -0.031933,-0.0193 -0.062293,-0.04251 -0.09375,-0.0625 -0.120395,-0.0767 -0.2310226,-0.163513 -0.34375,-0.25 -0.1061728,-0.0808 -0.2132809,-0.161112 -0.3125,-0.25 C 8.4783201,88.557317 8.3087904,88.373362 8.15625,88.1875 8.0486711,88.057245 7.9378561,87.922215 7.84375,87.78125 7.818661,87.74287 7.805304,87.69538 7.78125,87.65625 7.716487,87.553218 7.6510225,87.451733 7.59375,87.34375 7.4927417,87.149044 7.3880752,86.928049 7.3125,86.71875 7.30454,86.69694 7.288911,86.6782 7.28125,86.65625 7.2494249,86.5643 7.2454455,86.469419 7.21875,86.375 7.1884177,86.268382 7.1483606,86.171969 7.125,86.0625 7.0521214,85.720988 7,85.364295 7,85 L 7,83 7,15 7,13 C 7,10.218152 9.2181517,8 12,8 l 2,0 68,0 2,0 c 2.781848,0 5,2.218152 5,5 l 0,2 0,68 0,2 c 0,0.364295 -0.05212,0.720988 -0.125,1.0625 -0.04415,0.206893 -0.08838,0.397658 -0.15625,0.59375 -0.0077,0.02195 -0.0233,0.04069 -0.03125,0.0625 -0.06274,0.173739 -0.138383,0.367449 -0.21875,0.53125 -0.04158,0.0828 -0.07904,0.169954 -0.125,0.25 -0.0546,0.09721 -0.126774,0.18835 -0.1875,0.28125 -0.09411,0.140965 -0.204921,0.275995 -0.3125,0.40625 -0.143174,0.17445 -0.303141,0.346998 -0.46875,0.5 -0.01117,0.0102 -0.01998,0.02115 -0.03125,0.03125 -0.138386,0.125556 -0.285091,0.234436 -0.4375,0.34375 -0.102571,0.07315 -0.204318,0.153364 -0.3125,0.21875 -0.0074,0.0045 -0.02384,-0.0044 -0.03125,0 -0.232039,0.138728 -0.462548,0.274778 -0.71875,0.375 0.301527,-0.0968 0.596455,-0.204138 0.875,-0.34375 0.55709,-0.279224 1.060053,-0.665694 1.5,-1.09375 0.219973,-0.214028 0.409366,-0.441865 0.59375,-0.6875 0.184384,-0.245635 0.355408,-0.507743 0.5,-0.78125 0.14012,-0.265048 0.276135,-0.524729 0.375,-0.8125 0.01041,-0.03078 0.02133,-0.06274 0.03125,-0.09375 0.09046,-0.278085 0.1388,-0.579404 0.1875,-0.875 C 89.95865,84.6507 90,84.334721 90,84 l 0,-2 0,-68 0,-2 C 90,8.676 87.324,6 84,6 L 12,6 z" fill="url(#linearGradient3188)" fill-opacity="1" fill-rule="nonzero" stroke="none" opacity="0.5" inkscape:connector-curvature="0"/>
   <use xlink:href="#SVGCleanerId_0" fill="#cacaca" inkscape:connector-curvature="0"/>
   <path d="m 6,73 0,1 c 0,3.324 2.676,6 6,6 l 72,0 c 3.324,0 6,-2.676 6,-6 l 0,-1 c 0,3.324 -2.676,6 -6,6 L 12,79 C 8.676,79 6,76.324 6,73 z" fill="#999999" fill-opacity="1" fill-rule="nonzero" stroke="none" inkscape:connector-curvature="0"/>
   <path d="m 90.030615,64.1875 0,19.8125 c 0,3.324 -2.676,6 -6,6 L 64,90 l 0,-25.8125 26.030615,0 z" fill="url(#linearGradient3287)" fill-opacity="1" fill-rule="nonzero" stroke="none" opacity="0.8" inkscape:connector-curvature="0"/>
   <path d="M 6,64.1875 6,84 c 0,3.324 2.676,6 6,6 l 20,0 0,-25.8125 -26,0 z" fill="url(#linearGradient3279)" fill-opacity="1" fill-rule="nonzero" stroke="none" opacity="0.8" inkscape:connector-curvature="0"/>
   <use xlink:href="#SVGCleanerId_0" fill="url(#linearGradient3460)" opacity="0.2" inkscape:connector-curvature="0"/>
   <path d="m 6,74 0,6 c 0,3.324 2.676,6 6,6 l 72,0 c 3.324,0 6,-2.676 6,-6 l 0,-6 c 0,3.324 -2.676,6 -6,6 L 12,80 C 8.676,80 6,77.324 6,74 z" fill="#252525" fill-opacity="1" fill-rule="nonzero" stroke="none" inkscape:connector-curvature="0"/>
   <path d="m 6,80 0,1 c 0,3.324 2.676,6 6,6 l 72,0 c 3.324,0 6,-2.676 6,-6 l 0,-1 c 0,3.324 -2.676,6 -6,6 L 12,86 C 8.676,86 6,83.324 6,80 z" fill="#ececec" fill-opacity="1" fill-rule="nonzero" stroke="none" inkscape:connector-curvature="0"/>
   <path d="m 6,74 0,2 c 0,3.324 2.676,6 6,6 l 72,0 c 3.324,0 6,-2.676 6,-6 l 0,-2 c 0,3.324 -2.676,6 -6,6 L 12,80 C 8.676,80 6,77.324 6,74 z" fill="url(#linearGradient4196)" fill-opacity="1" fill-rule="nonzero" stroke="none" inkscape:connector-curvature="0"/>
   <g display="inline">
    <rect x="6" rx="6" y="6" fill="url(#linearGradient3179)" fill-opacity="1" fill-rule="nonzero" stroke="none" height="70" width="84"/>
    <path d="M 12,76 C 8.676,76 6,73.324 6,70 L 6,12 C 6,8.676 8.676,6 12,6 l 72,0 c 3.324,0 6,2.676 6,6 l 0,58 c 0,3.324 -2.676,6 -6,6 l -72,0 z m 0,-2 72,0 c 2.781848,0 5,-2.195392 5,-4.9375 l 0,-57.125 C 89,9.195393 86.781848,6.999999 84,7 L 12,7 C 9.2181517,7 7,9.195389 7,11.9375 l 0,57.125 C 7,71.804608 9.2181517,74 12,74 z" fill="url(#linearGradient3551)" fill-opacity="1" fill-rule="nonzero" stroke="none" opacity="0.7" inkscape:connector-curvature="0"/>
    <path d="m 90,70 0,1 c 0,3.324 -2.676,6 -6,6 L 12,77 C 8.676,77 6,74.324 6,71 l 0,-1 c 0,2.984862 2.152831,5.43487 5,5.90625 C 11.326884,75.971636 11.652269,76 12,76 l 72,0 c 0.166304,0 0.337194,-0.01811 0.5,-0.03125 0.04161,-0.0041 0.08371,0.0051 0.125,0 C 84.752873,75.95584 84.874673,75.927 85,75.90625 87.847169,75.43487 90,72.984862 90,70 z" fill="url(#linearGradient3454)" fill-opacity="1" fill-rule="nonzero" stroke="none" opacity="0.1" inkscape:connector-curvature="0"/>
    <path d="M 72.785673,73.316552 C 37.497632,71.660468 32.655921,60.569503 56.214438,35.565764 29.558784,43.997531 16.947902,55.85465 7.5798689,63.939487 -2.370079,72.601777 6.9889853,83.779979 17.934257,82.851623 c 11.343001,-0.0075 45.801874,-2.097861 54.851416,-9.535071 z" clip-path="url(#clipPath3785)" fill="url(#linearGradient3781)" fill-opacity="1" fill-rule="evenodd" stroke="none" filter="url(#filter3829)" opacity="0.3" inkscape:connector-curvature="0" transform="matrix(1 0 0 1 0 -2)"/>
   </g>
   <g display="inline">
    <rect x="10.911" rx="6.744" y="80" ry="3" fill="#0066ff" fill-opacity="1" fill-rule="nonzero" stroke="none" height="6" filter="url(#filter4180)" opacity="0.6" width="74.18"/>
    <rect x="16" rx="5.818" y="81" ry="2" fill="url(#radialGradient4138)" fill-opacity="1" fill-rule="nonzero" stroke="none" height="4" width="64"/>
   </g>
   <g display="inline">
    <path stroke-opacity="1" d="m 148,24 -16,18 32,0 -16,-18 z m -16,22 0,8 32,0 0,-8 -32,0 z" stroke-width="3" clip-path="url(#clipPath3807)" fill="none" stroke="#ffffff" stroke-dasharray="none" filter="url(#filter3813)" opacity="0.8" stroke-miterlimit="4" inkscape:connector-curvature="0" transform="matrix(1 0 0 1 -100 0)"/>
    <path d="M 48,24 32,42 64,42 48,24 z m -16,22 0,8 32,0 0,-8 -32,0 z" fill="url(#linearGradient3761)" fill-opacity="1" stroke="none" inkscape:connector-curvature="0"/>
    <path d="M 48,24 32,42 32.875,42 48,25 63.125,42 64,42 48,24 z m -16,22 0,1 32,0 0,-1 -32,0 z" fill="#000000" fill-opacity="1" stroke="none" opacity="0.4" inkscape:connector-curvature="0"/>
   </g>
  </g>
  <rect x="-96" rx="25" y="958.36" clip-path="url(#clipPath3009)" fill="#ffffff" fill-opacity="1" height="92" opacity="0.15" width="92" transform="matrix(1 0 0 1 98 0)"/>
 </g>
</svg>
