<svg height="96" width="96" xmlns="http://www.w3.org/2000/svg" xmlns:sodipodi="http://sodipodi.sourceforge.net/DTD/sodipodi-0.dtd" xmlns:inkscape="http://www.inkscape.org/namespaces/inkscape">
 <defs>
  <clipPath clipPathUnits="userSpaceOnUse" id="clipPath3009">
   <path d="m -2,956.36218 -96,0 0,33.5624 96,25.68742 0,-59.24982 z" inkscape:connector-curvature="0"/>
  </clipPath>
  <radialGradient cy="18.759" r="42" gradientUnits="userSpaceOnUse" id="radialGradient3085" cx="17.896" inkscape:collect="always" gradientTransform="matrix(1.78016 0 0 1.12995 -10.257 0)">
   <stop stop-color="#c5f0fe" stop-opacity="1"/>
   <stop stop-color="#18c3fc" stop-opacity="1" offset="1"/>
  </radialGradient>
  <clipPath clipPathUnits="userSpaceOnUse" id="clipPath3022">
   <rect x="7.75" rx="21.875" y="7.75" height="80.5" width="80.5"/>
  </clipPath>
 </defs>
 <g inkscape:label="Layer 1" inkscape:groupmode="layer" transform="matrix(1 0 0 1 0 -956.36)">
  <rect x="6" rx="6" y="6" clip-path="url(#clipPath3022)" fill="url(#radialGradient3085)" fill-opacity="1" fill-rule="nonzero" stroke="none" height="84" width="84" transform="matrix(1.14286 0 0 1.14286 -6.857 949.51)"/>
  <path stroke-width="7.296" d="m 58.978617,963.64343 -6.396073,1.09375 8.555786,63.68752 6.368384,0 8.555786,-63.68752 -6.396073,-1.09375 -5.343905,39.90627 -5.343905,-39.90627 z" display="inline" fill="#2c2c2c" color="#000000" fill-opacity="1" stroke="none" visibility="visible" inkscape:connector-curvature="0"/>
  <path d="m 10.003824,1025.4664 76.050894,0 c 3.240938,0 0.975011,2.6091 0.975011,5.85 l 0,6.8305 c 0,3.2409 -0.659108,4.875 -3.900046,4.875 l -69.225813,0 c -3.240938,0 -5.8500686,-1.6341 -5.8500686,-4.875 l 0,-6.8305 c 0,-3.2409 -1.2909151,-5.85 1.9500226,-5.85 z" fill="#2c2c2c" fill-opacity="1" stroke="none" sodipodi:nodetypes="sssssssss" inkscape:connector-curvature="0"/>
  <g fill="#25c6fc" fill-opacity="1" stroke="none" transform="matrix(0.88936 0 0 0.9724 3.391 960.23)">
   <path d="m 14.04986,85.021126 -5.3724554,-15.030572 3.2911414,0 3.803781,11.124264 3.680747,-11.124264 3.219372,0 -5.382708,15.030572 -3.239878,0" inkscape:connector-curvature="0"/>
   <path d="m 25.225387,77.454576 -2.614458,-0.471628 c 0.293911,-1.052609 0.799715,-1.831819 1.517411,-2.337633 0.717691,-0.505793 1.783979,-0.758694 3.198866,-0.758706 1.285008,1.2e-5 2.241933,0.153803 2.870778,0.461375 0.628828,0.300759 1.069697,0.686947 1.322608,1.158564 0.259727,0.464802 0.389596,1.322617 0.389606,2.573447 l -0.03076,3.362911 c -1.1e-5,0.956929 0.04442,1.66437 0.133286,2.122325 0.09568,0.451124 0.269979,0.936421 0.522891,1.455895 l -2.850272,0 c -0.0752,-0.191385 -0.16747,-0.475045 -0.276825,-0.850981 -0.04785,-0.170878 -0.08203,-0.283659 -0.102528,-0.338341 -0.49214,0.478463 -1.018449,0.83731 -1.578927,1.076541 -0.560491,0.239232 -1.158569,0.358847 -1.794236,0.358847 -1.120974,0 -2.006129,-0.304165 -2.65547,-0.912497 -0.642508,-0.60833 -0.963761,-1.377287 -0.963761,-2.306875 0,-0.615163 0.146956,-1.161977 0.44087,-1.640444 0.293911,-0.485293 0.704022,-0.854393 1.230333,-1.1073 0.533141,-0.259731 1.298681,-0.485292 2.296622,-0.676683 1.346526,-0.252896 2.279527,-0.488709 2.799008,-0.707442 l 0,-0.287078 c -7e-6,-0.553642 -0.136711,-0.946665 -0.410111,-1.179069 -0.273414,-0.239223 -0.78947,-0.358838 -1.548169,-0.358847 -0.512644,9e-6 -0.912502,0.102536 -1.199575,0.307583 -0.287082,0.198229 -0.519478,0.55024 -0.697189,1.056036 m 3.855044,2.337633 c -0.369107,0.123039 -0.953514,0.269995 -1.753225,0.44087 -0.799721,0.170884 -1.322612,0.338346 -1.568675,0.502386 -0.375939,0.266576 -0.563906,0.604917 -0.563902,1.015025 -4e-6,0.403279 0.15037,0.751873 0.451122,1.045783 0.300744,0.293915 0.683514,0.440871 1.148311,0.44087 0.519468,10e-7 1.015019,-0.170878 1.486653,-0.512639 0.348587,-0.259735 0.577566,-0.577571 0.686936,-0.953509 0.07518,-0.246063 0.112773,-0.714273 0.11278,-1.40463 l 0,-0.574156" inkscape:connector-curvature="0"/>
   <path d="m 37.518468,85.021126 -2.881031,0 0,-10.88845 2.675975,0 0,1.54817 c 0.457953,-0.731355 0.868064,-1.213235 1.230333,-1.445642 0.369095,-0.232385 0.78604,-0.348583 1.250839,-0.348595 0.656171,1.2e-5 1.288425,0.181144 1.896764,0.543398 l -0.891992,2.51193 c -0.485305,-0.31441 -0.936427,-0.471619 -1.353366,-0.471628 -0.403282,9e-6 -0.745041,0.112789 -1.025278,0.338342 -0.280248,0.218734 -0.502391,0.618592 -0.666431,1.199575 -0.157213,0.580997 -0.235818,1.797659 -0.235813,3.649989 l 0,3.362911" inkscape:connector-curvature="0"/>
   <path d="m 42.921683,72.656276 0,-2.665722 2.881031,0 0,2.665722 -2.881031,0 m 0,12.36485 0,-10.88845 2.881031,0 0,10.88845 -2.881031,0" inkscape:connector-curvature="0"/>
   <path d="m 58.382868,79.494879 2.942547,0.933002 c -0.451135,1.640448 -1.203005,2.860527 -2.255611,3.660242 -1.045794,0.792882 -2.375236,1.189322 -3.98833,1.189322 -1.99588,0 -3.636323,-0.6801 -4.921333,-2.040302 -1.285017,-1.367034 -1.927523,-3.233038 -1.927522,-5.598017 -10e-7,-2.501668 0.645923,-4.442858 1.937774,-5.823578 1.291846,-1.387528 2.990388,-2.081298 5.095631,-2.081313 1.838655,1.5e-5 3.332141,0.543412 4.480464,1.630191 0.683505,0.642521 1.196143,1.56527 1.537916,2.76825 l -3.004064,0.717695 c -0.177725,-0.779201 -0.550242,-1.394367 -1.117552,-1.8455 -0.560495,-0.45111 -1.244013,-0.676671 -2.050556,-0.676684 -1.114142,1.3e-5 -2.019803,0.399871 -2.716986,1.199575 -0.690358,0.799728 -1.035534,2.094994 -1.03553,3.885803 -4e-6,1.900187 0.341754,3.253552 1.025277,4.0601 0.683513,0.806554 1.572086,1.20983 2.665723,1.209828 0.806543,2e-6 1.500313,-0.256317 2.081313,-0.768959 0.580981,-0.512635 0.997926,-1.319186 1.250839,-2.419655" inkscape:connector-curvature="0"/>
   <path d="m 77.494045,85.021126 -3.301394,0 -1.312356,-3.414175 -6.008127,0 -1.240586,3.414175 -3.219372,0 5.854335,-15.030572 3.20912,0 6.01838,15.030572 m -5.587764,-5.946611 -2.071061,-5.577511 -2.03005,5.577511 4.101111,0" inkscape:connector-curvature="0"/>
   <path d="m 79.103735,69.990554 5.546752,0 c 1.250831,1.5e-5 2.204338,0.09571 2.860525,0.287078 0.881728,0.259751 1.637016,0.721126 2.265864,1.384125 0.628824,0.663025 1.107287,1.476412 1.435389,2.440161 0.328075,0.956936 0.492119,2.139421 0.492133,3.547461 -1.4e-5,1.237174 -0.153805,2.303462 -0.461375,3.198866 -0.375948,1.093633 -0.91251,1.978789 -1.609686,2.65547 -0.52632,0.51264 -1.237179,0.912498 -2.132577,1.199575 -0.669858,0.211891 -1.565266,0.317836 -2.686228,0.317836 l -5.710797,0 0,-15.030572 m 3.034822,2.542689 0,9.955447 2.265864,0 c 0.847555,2e-6 1.459303,-0.04784 1.835247,-0.143539 0.492124,-0.123031 0.898817,-0.331504 1.22008,-0.62542 0.328079,-0.293909 0.594651,-0.775789 0.799717,-1.445641 0.205045,-0.676678 0.307572,-1.59601 0.307583,-2.757997 -1.1e-5,-1.161973 -0.102538,-2.053964 -0.307583,-2.675975 -0.205066,-0.621991 -0.492143,-1.107289 -0.861233,-1.455895 -0.36911,-0.348582 -0.837319,-0.584396 -1.404631,-0.707441 -0.423789,-0.09568 -1.254263,-0.143527 -2.491425,-0.143539 l -1.363619,0" inkscape:connector-curvature="0"/>
  </g>
  <rect x="-96" rx="25" y="958.36" clip-path="url(#clipPath3009)" fill="#ffffff" fill-opacity="1" height="92" opacity="0.15" width="92" transform="matrix(1 0 0 1 98 0)"/>
 </g>
</svg>
