<svg height="96" width="96" xmlns="http://www.w3.org/2000/svg" xmlns:xlink="http://www.w3.org/1999/xlink" xmlns:sodipodi="http://sodipodi.sourceforge.net/DTD/sodipodi-0.dtd" xmlns:inkscape="http://www.inkscape.org/namespaces/inkscape">
 <defs>
  <linearGradient x2="0" y1="80" y2="15.502" gradientUnits="userSpaceOnUse" id="linearGradient20824" gradientTransform="matrix(1 0 0 1 110.75 891.61)">
   <stop stop-color="#c6c3c6"/>
   <stop stop-color="#eae9ea" offset="1"/>
  </linearGradient>
  <path d="m137.16 970.18c0.59537-0.0525 1.4008-0.78796 2.1012-1.5759l51.144-51.995c0.56033-0.61287 1.1705-1.3241 1.153-1.937l-0.10236-4.1598c0-0.54282-0.41891-0.93471-1.1018-0.89969l-20.8-0.0486c-0.89302-0.0351-1.681 0.50778-1.5759 1.4708v2.177c0.0351 1.3161 1.0495 1.5059 1.7674 1.4708l2.5348 0.003c0.6654 0.28018 0.91855 0.66939 0.95358 1.4749-0.0822 1.6583-0.11717 1.6298-1.7015 3.2316l-23.887 24.557-0.10236-28.751h2.7556c0.5078-0.0525 1.1678-0.62236 1.2554-1.2527v-3.2302c-0.0175-0.61284-0.40275-1.0681-1.1557-1.0506h-21.576c-0.78796-0.0351-1.3133 0.6654-1.2607 1.4708l-0.0512 2.3924c-0.003 0.80548 0.57651 1.444 1.3119 1.5141h3.3999l-0.0525 54.088c-0.0525 0.56034 0.0525 0.858 0.47278 1.0506l4.5177-0.00001z" stroke-width="0.25" fill="url(#linearGradient20824)" fill-rule="evenodd" id="SVGCleanerId_0"/>
  <linearGradient x1="102.04" x2="16.971" y1="22.845" y2="-62.23" gradientUnits="userSpaceOnUse" id="linearGradient3103" inkscape:collect="always" gradientTransform="matrix(0.66914 0 0 0.66914 22.655 0.144)">
   <stop/>
   <stop stop-opacity="0" offset="1"/>
  </linearGradient>
 </defs>
 <rect x="8" rx="10.769" y="8" fill="#008033" fill-opacity="1" stroke="none" height="80" width="80"/>
 <rect x="49.15" y="-18.776" fill="url(#linearGradient3103)" fill-rule="evenodd" height="37.852" opacity="0.4" width="37.852" transform="matrix(0.70711 0.70711 -0.70711 0.70711 0 0)"/>
 <path d="m 54.74243,24.416491 c -0.744327,0.0089 -1.345995,0.23707 -1.765106,0.664779 -0.419104,0.427708 -0.649393,1.053046 -0.64185,1.833855 l 0.02289,1.925571 h -0.02289 c 0.05981,0.859442 0.46874,1.366998 1.077392,1.696356 0.61435,0.332382 1.447667,0.47571 2.269391,0.504307 a 0.21786212,0.21786212 0 0 1 0.206307,0.252157 0.21786212,0.21786212 0 0 1 -0.04586,0.114621 L 41.744678,45.391342 A 0.21786212,0.21786212 0 0 1 41.354985,45.230877 V 30.926454 a 0.21786212,0.21786212 0 0 1 0.04586,-0.114614 0.21786212,0.21786212 0 0 1 0.114614,-0.09169 0.21786212,0.21786212 0 0 1 0.06875,0 c 0.602402,0.02079 1.106171,-0.153444 1.46707,-0.481393 0.36095,-0.327948 0.611334,-0.820998 0.64185,-1.535892 h -0.02289 l -0.02289,-1.948463 h 0.02289 c -0.04208,-0.909587 -0.275079,-1.42034 -0.6877,-1.742141 -0.412621,-0.321851 -1.065473,-0.474575 -2.040177,-0.504314 v 0.02297 l -15.358923,0.09169 v -0.02296 c -0.776449,0.06613 -1.389818,0.251583 -1.810964,0.596007 -0.421458,0.344722 -0.701158,0.875576 -0.802321,1.765106 h 0.02289 l -0.02289,1.329571 h -0.02289 c 0.04549,0.913221 0.239708,1.577825 0.618928,2.017285 0.37922,0.439452 0.961332,0.690548 1.902605,0.733571 l 0.802321,0.02296 a 0.21786212,0.21786212 0 0 1 0.229236,0.206307 l 0.04586,37.433651 h -0.02296 c 0.08341,0.672518 0.323334,1.20399 0.710621,1.581677 0.391844,0.382134 0.951303,0.606857 1.719249,0.618928 h 3.575997 v 0.02289 c 0.651791,-0.05683 1.285676,-0.566843 1.833856,-1.123249 L 71.933966,31.086547 c 0.638703,-0.6523 1.062494,-1.155661 1.008643,-2.040177 a 0.21786212,0.21786212 0 0 1 -0.02289,-0.02289 v -2.223534 c 0.0058,-1.030735 -0.102405,-1.631458 -0.3897,-1.948462 C 72.242729,24.53447 71.71803,24.41905 70.719053,24.415939 H 54.741674 z" fill="#4d4d4d" fill-rule="evenodd" inkscape:connector-curvature="0"/>
 <use xlink:href="#SVGCleanerId_0" height="96" width="96" transform="matrix(0.72674 0 0 0.72674 -68.44 -635.18)"/>
 <path d="m 50.570942,53.667776 c 0,1.541852 -1.14992,2.791772 -2.568444,2.791772 -1.418524,0 -2.568445,-1.24992 -2.568445,-2.791772 0,-1.541851 1.149921,-2.791771 2.568445,-2.791771 1.418524,0 2.568444,1.24992 2.568444,2.791771 z M 40.8319,68.477284 c 4.319088,-7.842978 3.683191,-8.505765 3.656665,-9.380033 -0.06177,-1.165909 0.194315,-1.616342 1.483857,-1.589889 l 1.960818,-0.05298 c 1.192362,-0.05298 1.589816,0.370958 1.271867,1.271868 -0.50903,1.374047 -4.353172,7.619869 -3.625633,8.88149 l 0.772961,0.963003 c 0.326015,0.684124 -0.434671,1.668014 -0.858135,1.677679 l -3.655575,0.03089 c -0.892073,0.01 -1.413218,-0.909734 -1.006898,-1.801807 z M 55.649402,57.132873 c -1.347304,-0.243872 -2.721133,-0.169774 -3.962478,-0.01613 -0.485774,-0.03539 -0.675846,0.752612 -0.499197,1.300211 l 0.515389,1.030735 c 0.06642,0.831609 0.483268,1.707403 -3.644528,9.203435 -0.406306,0.892074 0.138676,1.812708 1.030735,1.803842 l 3.644528,-0.03677 c 0.42345,-0.01 1.172668,-0.972451 0.846725,-1.656604 L 52.80747,67.804468 c -0.351502,-0.609531 0.397447,-2.40878 1.288438,-4.233551 1.288146,-1.691269 2.77542,-1.786981 3.718147,-1.803841 0.281183,0.06417 0.395325,0.386633 0.47858,0.73626 -0.476633,1.308059 -1.088003,2.842353 -2.908268,6.147784 -0.406292,0.892074 0.101903,1.812708 0.993962,1.803842 l 3.681301,-0.0367 c 0.42345,-0.01 1.172741,-0.97245 0.846725,-1.656604 l -0.773106,-0.957116 c -0.356597,-0.618354 0.416357,-2.454637 1.325283,-4.30717 1.1912,-1.707185 2.634287,-1.730223 3.534064,-1.730223 0.359191,0.110465 0.441604,0.564103 0.441764,1.030736 -0.497359,1.312492 -0.992872,2.709286 -2.724185,5.853309 -0.406291,0.892073 0.101903,1.812708 0.993962,1.803841 l 3.644456,-0.0367 c 0.423442,-0.01 1.209586,-0.972451 0.883498,-1.656604 l -0.773106,-0.957116 c -0.727612,-1.261621 2.197734,-4.937981 3.051218,-7.239494 0.52996,-1.642868 -1.288438,-3.079996 -2.295336,-3.397945 l -2.772513,-0.04273 c -0.500063,0.114061 -0.604793,0.402134 -0.742365,0.926157 l -1.896864,-0.01613 c 0.03735,-0.485099 -0.08911,-0.805518 -0.446407,-0.840838 l -2.904998,-0.04273 c -0.937131,-0.01926 -0.844472,0.317789 -0.964602,0.893817 l -2.828908,0.0015 c 0.156016,-0.304279 0.153044,-0.714567 -0.01,-0.912858 z" fill="#faa" fill-rule="evenodd" stroke="#4d4d4d" inkscape:connector-curvature="0"/>
</svg>
