<svg height="96" width="96" xmlns="http://www.w3.org/2000/svg" xmlns:xlink="http://www.w3.org/1999/xlink" xmlns:sodipodi="http://sodipodi.sourceforge.net/DTD/sodipodi-0.dtd" xmlns:inkscape="http://www.inkscape.org/namespaces/inkscape">
 <defs>
  <linearGradient x2="0" y1="962.62" y2="1046.1" gradientUnits="userSpaceOnUse" id="linearGradient11642" gradientTransform="matrix(1.15 0 0 1.15 -7.2 -150.65)">
   <stop stop-color="#0b700b"/>
   <stop stop-color="#28a528" offset="1"/>
  </linearGradient>
  <linearGradient x1="279.12" x2="275.04" xlink:href="#linearGradient854" y1="547.96" y2="543.91" gradientUnits="userSpaceOnUse" id="linearGradient20810" gradientTransform="matrix(1.6003 0 0 1.6187 -277.35 57)"/>
  <linearGradient id="linearGradient854">
   <stop/>
   <stop stop-color="#f5f5f5" offset="0.878"/>
   <stop stop-color="#fff" offset="1"/>
  </linearGradient>
  <linearGradient x1="737.87" x2="723.67" xlink:href="#linearGradient854" y1="197.22" y2="197.27" gradientUnits="userSpaceOnUse" id="linearGradient20812" gradientTransform="matrix(0.58267 0 0 4.4457 -277.35 57)"/>
  <linearGradient x1="247.92" x2="247.85" xlink:href="#linearGradient854" y1="577.1" y2="571.18" gradientUnits="userSpaceOnUse" id="linearGradient20814" gradientTransform="matrix(1.7368 0 0 1.4915 -277.35 57)"/>
  <linearGradient x1="432.78" x2="431.52" xlink:href="#linearGradient854" y1="444.34" y2="448.11" gradientUnits="userSpaceOnUse" id="linearGradient20816" gradientTransform="matrix(1.4044 0 0 1.8445 -433.84 93.82)"/>
  <linearGradient x1="196.8" x2="192.16" xlink:href="#linearGradient854" y1="764.65" y2="763.53" gradientUnits="userSpaceOnUse" id="linearGradient20818" gradientTransform="matrix(2.316 0 0 1.1185 -277.35 57)"/>
  <linearGradient x1="195.6" x2="193.06" xlink:href="#linearGradient854" y1="696.41" y2="694.71" gradientUnits="userSpaceOnUse" id="linearGradient20820" gradientTransform="matrix(2.1045 0 0 1.2309 -277.35 57)"/>
  <linearGradient x1="508.59" x2="508.46" xlink:href="#linearGradient854" y1="267.28" y2="269.14" gradientUnits="userSpaceOnUse" id="linearGradient20822" gradientTransform="matrix(0.80571 0 0 3.215 -277.35 57)"/>
  <linearGradient x2="0" xlink:href="#linearGradient3909" y1="80" y2="15.502" gradientUnits="userSpaceOnUse" id="linearGradient20824" gradientTransform="matrix(1 0 0 1 110.75 891.61)"/>
  <linearGradient id="linearGradient3909">
   <stop stop-color="#c6c3c6"/>
   <stop stop-color="#eae9ea" offset="1"/>
  </linearGradient>
  <linearGradient x2="0" xlink:href="#linearGradient3909" y1="527.42" y2="513.37" gradientUnits="userSpaceOnUse" id="linearGradient20828" gradientTransform="matrix(1.7078 0 0 1.7078 -495.13 70.859)"/>
  <linearGradient x1="102.04" x2="16.971" y1="22.845" y2="-62.23" gradientUnits="userSpaceOnUse" id="linearGradient3163" gradientTransform="matrix(0.66914 0 0 0.66914 698.9 676.39)">
   <stop/>
   <stop stop-opacity="0" offset="1"/>
  </linearGradient>
  <clipPath clipPathUnits="userSpaceOnUse" id="clipPath3009">
   <path d="m-2 956.36h-96v33.562l96 25.687v-59.25z"/>
  </clipPath>
  <path d="m137.16 970.18c0.59537-0.0525 1.4008-0.78796 2.1012-1.5759l51.144-51.995c0.56033-0.61287 1.1705-1.3241 1.153-1.937l-0.10236-4.1598c0-0.54282-0.41891-0.93471-1.1018-0.89969l-20.8-0.0486c-0.89302-0.0351-1.681 0.50778-1.5759 1.4708v2.177c0.0351 1.3161 1.0495 1.5059 1.7674 1.4708l2.5348 0.003c0.6654 0.28018 0.91855 0.66939 0.95358 1.4749-0.0822 1.6583-0.11717 1.6298-1.7015 3.2316l-23.887 24.557-0.10236-28.751h2.7556c0.5078-0.0525 1.1678-0.62236 1.2554-1.2527v-3.2302c-0.0175-0.61284-0.40275-1.0681-1.1557-1.0506h-21.576c-0.78796-0.0351-1.3133 0.6654-1.2607 1.4708l-0.0512 2.3924c-0.003 0.80548 0.57651 1.444 1.3119 1.5141h3.3999l-0.0525 54.088c-0.0525 0.56034 0.0525 0.858 0.47278 1.0506l4.5177-0.00001z" stroke-width="0.25" fill="url(#linearGradient20824)" fill-rule="evenodd" id="SVGCleanerId_0"/>
 </defs>
 <g transform="matrix(1 0 0 1 0 -956.36)">
  <rect x="2" rx="25" y="958.36" fill="url(#linearGradient11642)" height="92" width="92"/>
  <rect x="725.4" y="657.47" fill="url(#linearGradient3163)" fill-rule="evenodd" height="37.852" opacity="0.4" width="37.852" transform="matrix(0.70711 0.70711 -0.70711 0.70711 0 0)"/>
  <g transform="matrix(0.66914 0 0 0.66914 112.6 448.47)">
   <path d="m-96.5 790.11-40 40 40 40 40-40-40-40zm0 2.9062 37.062 37.094-37.062 37.062-37.094-37.062 37.09-37.09z" fill-rule="evenodd" opacity="0.05"/>
   <path d="m-96.5 790.11-40 40 40 40 40-40-40-40zm0 1.9375 38.031 38.062-38.031 38.03-38.06-38.03 38.06-38.06z" fill-rule="evenodd" opacity="0.1"/>
   <path d="m-136 830.61-0.5 0.5 40 40 40-40-0.5-0.5-39.5 39.5-39.5-39.5z" stroke-width="0" fill="#fff" fill-rule="evenodd" opacity="0.2"/>
   <path d="m-96.5 790.11-40 40 40 40 40-40-40-40zm0 1 38.969 39-38.969 38.969-39-38.969 39-39z" fill-rule="evenodd" opacity="0.15"/>
   <path d="m-96.5 790.11-40 40 0.5 0.5 39.5-39.5 39.5 39.5 0.5-0.5-40-40z" fill-rule="evenodd" opacity="0.2"/>
  </g>
  <g transform="matrix(0.72674 0 0 0.72674 -68.44 321.18)">
   <path d="m169.5 908.61c-1.0242 0.0123-1.8521 0.32621-2.4288 0.91474-0.57669 0.58853-0.89357 1.449-0.88319 2.5234l0.0315 2.6496h-0.0315c0.0823 1.1826 0.64499 1.881 1.4825 2.3342 0.84535 0.45736 1.992 0.65458 3.1227 0.69393a0.29978 0.29978 0 0 1 0.28388 0.34697 0.29978 0.29978 0 0 1 -0.0631 0.15772l-19.399 19.241a0.29978 0.29978 0 0 1 -0.53622 -0.2208v-19.683a0.29978 0.29978 0 0 1 0.0631 -0.15771 0.29978 0.29978 0 0 1 0.15771 -0.12617 0.29978 0.29978 0 0 1 0.0946 0c0.82891 0.0286 1.5221-0.21114 2.0187-0.6624 0.49667-0.45126 0.8412-1.1297 0.88319-2.1134h-0.0315l-0.0315-2.6811h0.0315c-0.0579-1.2516-0.37851-1.9544-0.94628-2.3972-0.56777-0.44287-1.4661-0.65302-2.8073-0.69394v0.0316l-21.134 0.12617v-0.0316c-1.0684 0.091-1.9124 0.34618-2.4919 0.82011-0.57993 0.47434-0.9648 1.2048-1.104 2.4288h0.0315l-0.0315 1.8295h-0.0315c0.0626 1.2566 0.32984 2.1711 0.85165 2.7758 0.52181 0.60469 1.3228 0.9502 2.618 1.0094l1.104 0.0316a0.29978 0.29978 0 0 1 0.31543 0.28388l0.0631 51.509h-0.0316c0.11477 0.92539 0.44491 1.6567 0.97782 2.1764 0.53918 0.52582 1.309 0.83504 2.3657 0.85165h4.9206v0.0315c0.89687-0.0782 1.7691-0.77998 2.5234-1.5456l51.698-53.276c0.87886-0.89757 1.462-1.5902 1.3879-2.8073a0.29978 0.29978 0 0 1 -0.0315 -0.0315v-3.0596c0.008-1.4183-0.14091-2.2449-0.53623-2.6811-0.39531-0.43621-1.1173-0.59503-2.4919-0.59931h-21.985z" fill-rule="evenodd" opacity="0.3"/>
   <path d="m169.5 907.61c-1.0242 0.0123-1.8521 0.32621-2.4288 0.91474-0.57669 0.58853-0.89357 1.449-0.88319 2.5234l0.0315 2.6496h-0.0315c0.0823 1.1826 0.64499 1.881 1.4825 2.3342 0.84535 0.45736 1.992 0.65458 3.1227 0.69393a0.29978 0.29978 0 0 1 0.28388 0.34697 0.29978 0.29978 0 0 1 -0.0631 0.15772l-19.399 19.241a0.29978 0.29978 0 0 1 -0.53622 -0.2208v-19.683a0.29978 0.29978 0 0 1 0.0631 -0.15771 0.29978 0.29978 0 0 1 0.15771 -0.12617 0.29978 0.29978 0 0 1 0.0946 0c0.82891 0.0286 1.5221-0.21114 2.0187-0.6624 0.49667-0.45126 0.8412-1.1297 0.88319-2.1134h-0.0315l-0.0315-2.6811h0.0315c-0.0579-1.2516-0.37851-1.9544-0.94628-2.3972-0.56777-0.44287-1.4661-0.65302-2.8073-0.69394v0.0316l-21.134 0.12617v-0.0316c-1.0684 0.091-1.9124 0.34618-2.4919 0.82011-0.57993 0.47434-0.9648 1.2048-1.104 2.4288h0.0315l-0.0315 1.8295h-0.0315c0.0626 1.2566 0.32984 2.1711 0.85165 2.7758 0.52181 0.60469 1.3228 0.9502 2.618 1.0094l1.104 0.0316a0.29978 0.29978 0 0 1 0.31543 0.28388l0.0631 51.509h-0.0316c0.11477 0.92539 0.44491 1.6567 0.97782 2.1764 0.53918 0.52582 1.309 0.83504 2.3657 0.85165h4.9206v0.0315c0.89687-0.0782 1.7691-0.77998 2.5234-1.5456l51.698-53.276c0.87886-0.89757 1.462-1.5902 1.3879-2.8073a0.29978 0.29978 0 0 1 -0.0315 -0.0315v-3.0596c0.008-1.4183-0.14091-2.2449-0.53623-2.6811-0.39531-0.43621-1.1173-0.59503-2.4919-0.59931h-21.985z" fill="#fff" fill-rule="evenodd"/>
   <path d="m193.41 907.89-61.886 62.312c0.59875 0.72017 1.2215 1.3346 2.4734 1.3542l4.9051 0.0501c1.0312-0.0748 1.9264-0.81355 2.7028-1.6017l51.454-53.056c0.88794-0.90682 1.5316-1.6887 1.4515-3.0031v-3.0532c0.01-1.6974-0.36554-2.5137-1.1012-3.0032z" stroke-width="0.375" fill="url(#linearGradient20810)" fill-opacity="0.75" fill-rule="evenodd"/>
   <path d="m147.43 944.32 3.7388-7.3868-0.10235-20.686-3.733-1.1906 0.0966 29.264z" stroke-width="0.375" fill="url(#linearGradient20812)" fill-opacity="0.75" fill-rule="evenodd"/>
   <path d="m153.36 908.37-8.3364 5.8988 6.2401 2.0963h0.0488c1.6974 0.038 2.937-0.96977 3.0225-2.9738v-2.6325c-0.0549-1.1855-0.4092-1.8906-0.97501-2.3888z" stroke-width="0.25" fill="url(#linearGradient20814)" fill-opacity="0.75" fill-rule="evenodd"/>
   <path d="m178.93 910.76-1.7603 1.1065 1.3077 0.50296 0.45266-1.6095zm-0.45266 1.6095-5.6331 3.4201c-0.43813-0.0315-0.92306-0.17905-1.4083-0.25147l-0.35207 0.25147c0.41798 0.0618 0.78132 0.23666 1.2071 0.25148l-4.2751 4.2248 7.0414 4.8284 3.4201-12.725z" stroke-width="0.125" fill="url(#linearGradient20816)" fill-opacity="0.75" fill-rule="evenodd"/>
   <path d="m172.16 911.61-5.8316 2.6145c0.42247 1.955 2.4073 2.4208 5.0431 2.5624l5.6762-3.4526-4.8877-1.7243z" stroke-width="0.375" fill="url(#linearGradient20818)" fill-opacity="0.75" fill-rule="evenodd"/>
   <path d="m131.62 911.74-5.6268 2.5121c0.42247 1.955 1.5881 2.5232 4.6335 2.5112l5.4714-5.91-4.4781 0.88679z" stroke-width="0.375" fill="url(#linearGradient20820)" fill-opacity="0.75" fill-rule="evenodd"/>
   <path d="m134 912.66-3.456 4.1736 0.18034 4.061c-0.0393 0.55961 0.85573 7.7177 1.6863 4.8903 0.83055-2.8274 1.0221-13.436 1.5893-13.125z" stroke-width="0.125" fill="url(#linearGradient20822)" fill-opacity="0.75" fill-rule="evenodd"/>
   <use xlink:href="#SVGCleanerId_0"/>
   <use xlink:href="#SVGCleanerId_0"/>
   <path d="m163.76 948.86c0 2.1216-1.5823 3.8415-3.5342 3.8415s-3.5342-1.7199-3.5342-3.8415 1.5823-3.8415 3.5342-3.8415 3.5342 1.7199 3.5342 3.8415zm-13.401 20.378c5.9431-10.792 5.0681-11.704 5.0316-12.907-0.085-1.6043 0.26738-2.2241 2.0418-2.1877l2.6981-0.0729c1.6407-0.0729 2.1876 0.51044 1.7501 1.7501-0.70043 1.8907-5.99 10.485-4.9889 12.221l1.0636 1.3251c0.4486 0.94136-0.59811 2.2952-1.1808 2.3085l-5.0301 0.0425c-1.2275 0.0137-1.9446-1.2518-1.3855-2.4793zm20.389-15.61c-1.8539-0.33557-3.7443-0.23361-5.4524-0.0222-0.66843-0.0487-0.92996 1.0356-0.68689 1.7891l0.70918 1.4183c0.0914 1.1443 0.66498 2.3494-5.0149 12.664-0.55908 1.2275 0.19082 2.4943 1.4183 2.4821l5.0149-0.0506c0.58267-0.0137 1.6136-1.3381 1.1651-2.2795l-1.0638-1.317c-0.48367-0.83872 0.54688-3.3145 1.7729-5.8254 1.7725-2.3272 3.819-2.4589 5.1162-2.4821 0.38691 0.0883 0.54396 0.53201 0.65853 1.0131-0.65585 1.7999-1.4971 3.9111-4.0018 8.4594-0.55906 1.2275 0.14022 2.4943 1.3677 2.4821l5.0655-0.0505c0.58267-0.0137 1.6137-1.3381 1.1651-2.2795l-1.0638-1.317c-0.49068-0.85086 0.57291-3.3776 1.8236-5.9267 1.6392-2.3491 3.6248-2.3808 4.8629-2.3808 0.49425 0.15199 0.60765 0.77621 0.60787 1.4183-0.68437 1.806-1.3662 3.728-3.7485 8.0542-0.55906 1.2275 0.14022 2.4943 1.3677 2.4821l5.0148-0.0506c0.58266-0.0137 1.6644-1.3381 1.2157-2.2795l-1.0638-1.317c-1.0012-1.736 3.0241-6.7947 4.1985-9.9616 0.72923-2.2606-1.7729-4.2381-3.1584-4.6756l-3.815-0.0588c-0.68809 0.15695-0.8322 0.55333-1.0215 1.2744l-2.6101-0.0222c0.0514-0.66749-0.12262-1.1084-0.61426-1.157l-3.9973-0.0587c-1.2895-0.0265-1.162 0.43728-1.3273 1.2299l-3.8926 0.002c0.21468-0.41869 0.21059-0.98325-0.0137-1.2561z" fill-rule="evenodd" opacity="0.3"/>
   <path d="m163.76 947.86c0 2.1216-1.5823 3.8415-3.5342 3.8415s-3.5342-1.7199-3.5342-3.8415 1.5823-3.8415 3.5342-3.8415 3.5342 1.7199 3.5342 3.8415zm-13.401 20.378c5.9431-10.792 5.0681-11.704 5.0316-12.907-0.085-1.6043 0.26738-2.2241 2.0418-2.1877l2.6981-0.0729c1.6407-0.0729 2.1876 0.51044 1.7501 1.7501-0.70043 1.8907-5.99 10.485-4.9889 12.221l1.0636 1.3251c0.4486 0.94136-0.59811 2.2952-1.1808 2.3085l-5.0301 0.0425c-1.2275 0.0137-1.9446-1.2518-1.3855-2.4793zm20.389-15.61c-1.8539-0.33557-3.7443-0.23361-5.4524-0.0222-0.66843-0.0487-0.92997 1.0356-0.6869 1.7891l0.70918 1.4183c0.0914 1.1443 0.66498 2.3494-5.0149 12.664-0.55908 1.2275 0.19082 2.4943 1.4183 2.4821l5.0149-0.0506c0.58267-0.0137 1.6136-1.3381 1.1651-2.2795l-1.0638-1.317c-0.48367-0.83872 0.54689-3.3145 1.7729-5.8254 1.7725-2.3272 3.819-2.4589 5.1162-2.4821 0.38691 0.0883 0.54397 0.53201 0.65853 1.0131-0.65585 1.7999-1.4971 3.9111-4.0018 8.4594-0.55906 1.2275 0.14022 2.4943 1.3677 2.4821l5.0655-0.0505c0.58267-0.0137 1.6137-1.3381 1.1651-2.2795l-1.0638-1.317c-0.49068-0.85086 0.57291-3.3776 1.8236-5.9267 1.6391-2.3491 3.6248-2.3808 4.8629-2.3808 0.49425 0.152 0.60765 0.77621 0.60787 1.4183-0.68437 1.806-1.3662 3.728-3.7485 8.0542-0.55906 1.2275 0.14022 2.4943 1.3677 2.4821l5.0148-0.0505c0.58266-0.0137 1.6644-1.3381 1.2157-2.2795l-1.0638-1.317c-1.0012-1.736 3.0241-6.7947 4.1985-9.9616 0.72923-2.2606-1.7729-4.2381-3.1584-4.6756l-3.815-0.0588c-0.68809 0.15695-0.8322 0.55334-1.0215 1.2744l-2.6101-0.0222c0.0514-0.6675-0.12262-1.1084-0.61426-1.157l-3.9973-0.0588c-1.2895-0.0265-1.162 0.43728-1.3273 1.2299l-3.8926 0.002c0.21468-0.41869 0.21059-0.98325-0.0137-1.2561z" fill="url(#linearGradient20828)" fill-rule="evenodd"/>
   <path d="m160.22 944.02c-1.9519 0-3.5312 1.7222-3.5312 3.8438 0 1.3695 0.66387 2.5698 1.6562 3.25-0.41846-0.63119-0.65625-1.4126-0.65625-2.25 0-2.1216 1.5794-3.8438 3.5312-3.8438 0.69196 0 1.33 0.22017 1.875 0.59375-0.64171-0.96792-1.6936-1.5938-2.875-1.5938zm7.75 8.375c-0.91785 0.01-1.8334 0.11304-2.6875 0.21875-0.66843-0.0487-0.93058 1.0277-0.6875 1.7812l0.71875 1.4062c0.0914 1.1443 0.67985 2.3731-5 12.688-0.4772 1.0477-0.007 2.0898 0.90625 2.375-0.13802-0.41685-0.1279-0.88836 0.0937-1.375 5.6798-10.314 5.0914-11.543 5-12.688l-0.71875-1.4062c-0.24308-0.75353 0.0191-1.8299 0.6875-1.7812 1.4425-0.17854 3.023-0.26894 4.5938-0.0937 0.0693-0.33878 0.0381-0.70778-0.125-0.90625-0.92696-0.16779-1.8634-0.22872-2.7812-0.21875zm16.25 0.21875c-0.68809 0.15695-0.84199 0.56015-1.0312 1.2812l-1.875-0.0312c0.22691 0.18518 0.31797 0.52322 0.28125 1l2.5938 0.0312c0.18926-0.7211 0.34316-1.1243 1.0312-1.2812l3.8125 0.0625c0.4309 0.13608 0.98389 0.41634 1.5 0.8125-0.71441-0.91248-1.7643-1.5802-2.5-1.8125l-3.8125-0.0625zm-8.25 0.0312c-1.2895-0.0265-1.1471 0.45738-1.3125 1.25h-2.7812c0.0857 0.29351 0.036 0.68598-0.125 1h3.9062c0.16539-0.79262 0.023-1.2765 1.3125-1.25l3.625 0.0625c0.01-0.56984-0.17726-0.95572-0.625-1l-4-0.0625zm-15.844 0.4375-2.6875 0.0625c-1.7744-0.0364-2.1476 0.58323-2.0625 2.1875 0.0365 1.2032 0.91185 2.1138-5.0312 12.906-0.47719 1.0478 0.00014 2.1222 0.90625 2.4062-0.13949-0.42104-0.13175-0.91113 0.0937-1.4062 5.9431-10.792 5.0677-11.703 5.0312-12.906-0.085-1.6043 0.28808-2.224 2.0625-2.1875l2.6875-0.0625c0.35466-0.0158 0.6527-0.0143 0.90625 0.0312 0.00091-0.74374-0.62478-1.0882-1.9062-1.0312zm14.594 6.9062c-0.10197 0.002-0.23302 0.0271-0.34375 0.0312-0.65584 1.7999-1.4953 3.9204-4 8.4688-0.48422 1.0632-0.0231 2.1407 0.90625 2.4062-0.13824-0.42266-0.13285-0.90871 0.0937-1.4062 2.5047-4.5484 3.3442-6.6689 4-8.4688-0.11456-0.4811-0.26934-0.94295-0.65625-1.0312zm9.875 0c-0.12206 0-0.27071 0.0284-0.40625 0.0312 0.0134 0.13291 0.0312 0.26703 0.0312 0.40625-0.68436 1.806-1.3677 3.7364-3.75 8.0625-0.47719 1.0477-0.0273 2.0898 0.875 2.375-0.12842-0.41685-0.0966-0.88836 0.125-1.375 2.3823-4.3262 3.0656-6.2565 3.75-8.0625-0.00022-0.64213-0.13075-1.2855-0.625-1.4375z" fill="#fff" fill-rule="evenodd" opacity="0.6"/>
   <path d="m162.09 944.61c0.41846 0.63118 0.65625 1.4126 0.65625 2.25 0 2.1216-1.5794 3.8438-3.5312 3.8438-0.69196 0-1.33-0.22017-1.875-0.59375 0.6417 0.96792 1.6936 1.5938 2.875 1.5938 1.9518 0 3.5312-1.7222 3.5312-3.8438 0-1.3694-0.66387-2.5698-1.6562-3.25zm7.7812 7.9062c-0.026 0.12692-0.0665 0.26089-0.125 0.375h1.125c-0.0286-0.0978-0.0689-0.21304-0.125-0.28125-0.28826-0.0522-0.5858-0.0615-0.875-0.0937zm9.7188 0.1875c-0.00093 0.0559 0.005 0.0967 0 0.15625h0.71875c-0.0908-0.0741-0.20328-0.14236-0.34375-0.15625h-0.375zm-18.562 0.40625c-0.00026 0.20851-0.0605 0.44731-0.15625 0.71875-0.70044 1.8907-6.0012 10.483-5 12.219l1.0625 1.3125c0.4486 0.94136-0.57359 2.2993-1.1562 2.3125l-5.0312 0.0312c-0.17977 0.002-0.34453-0.0138-0.5-0.0625 0.20633 0.62282 0.76761 1.0706 1.5 1.0625l5.0312-0.0312c0.58266-0.0132 1.6048-1.3711 1.1562-2.3125l-1.0625-1.3125c-1.0012-1.736 4.2996-10.328 5-12.219 0.34296-0.9717 0.0757-1.5535-0.84375-1.7188zm28.5 0.375c0.63108 0.80604 0.99828 1.8147 0.65625 2.875-1.1744 3.1669-5.1887 8.2015-4.1875 9.9375l1.0625 1.3125c0.44861 0.94141-0.63609 2.2676-1.2188 2.2812l-5.0312 0.0625c-0.17977 0.002-0.31394-0.0448-0.46875-0.0937 0.1955 0.6346 0.7279 1.1011 1.4688 1.0938l5.0312-0.0625c0.58266-0.0137 1.6674-1.3398 1.2188-2.2812l-1.06-1.32c-1.0012-1.736 3.013-6.7706 4.1875-9.9375 0.50244-1.5575-0.51284-2.9973-1.6562-3.875zm-16.812 4.5c-1.2972 0.0232-3.3525 0.17277-5.125 2.5-1.2261 2.5108-2.2337 4.9738-1.75 5.8125l1.0625 1.3125c0.44858 0.94139-0.60484 2.2676-1.1875 2.2812l-5 0.0625c-0.17977 0.002-0.34333-0.0448-0.5-0.0937 0.21012 0.6346 0.75913 1.1011 1.5 1.0938l5-0.0625c0.58266-0.0137 1.6361-1.3399 1.1875-2.2812l-1.0625-1.3125c-0.48368-0.83872 0.52394-3.3017 1.75-5.8125 1.6332-2.1443 3.4833-2.4198 4.7812-2.4688-0.11456-0.4811-0.26934-0.94295-0.65625-1.0312zm9.875 0c-1.2381 0-3.2046 0.0571-4.8438 2.4062-1.2507 2.549-2.3344 5.0554-1.8438 5.9062l1.0625 1.3125c0.4486 0.94139-0.57359 2.2676-1.1562 2.2812l-5.0625 0.0625c-0.16433 0.002-0.32511-0.0214-0.46875-0.0625 0.20282 0.6201 0.73879 1.0697 1.4688 1.0625l5.0625-0.0625c0.58266-0.0137 1.6048-1.3399 1.1562-2.2812l-1.0625-1.3125c-0.49068-0.85086 0.59307-3.3572 1.8438-5.9062 1.4776-2.1175 3.1982-2.3494 4.4375-2.375-0.0485-0.4801-0.20666-0.91221-0.59375-1.0312z" fill-rule="evenodd" opacity="0.2"/>
  </g>
  <rect x="-96" rx="25" y="958.36" clip-path="url(#clipPath3009)" fill="#fff" height="92" opacity="0.15" width="92" transform="matrix(1 0 0 1 98 0)"/>
 </g>
</svg>
