<svg height="96" width="96" xmlns="http://www.w3.org/2000/svg" xmlns:sodipodi="http://sodipodi.sourceforge.net/DTD/sodipodi-0.dtd" xmlns:inkscape="http://www.inkscape.org/namespaces/inkscape">
 <rect x="8" rx="10.769" y="8" fill="#2a7fff" fill-opacity="1" stroke="none" height="80" width="80"/>
 <path d="M 18,18 V 78 H 78 V 18 H 18 z m 5,5 h 50 v 29.583 h -6.8229 l -6.6406,-20.208 -1.9271,-5.8334 -2.0312,5.8074 -4.1927,11.979 -3.8542,-11.51 -2.2135,-6.6667 -1.7708,6.7969 -5.8333,22.318 -4.375,-14.531 -0.46875,-1.4844 h -1.5365 -8.3333 v -16.25 z m 34.505,16.51 5.1823,15.807 0.46875,1.4323 h 1.5104 8.3333 v 16.25 h -50 v -29.583 h 6.7708 l 6.0938,20.156 2.1354,7.0833 1.875,-7.1614 5.9375,-22.682 3.5417,10.651 1.9271,5.7812 2.0312,-5.7552 4.1927,-11.979 z" fill="white" inkscape:connector-curvature="0"/>
</svg>
