<svg height="96" width="96" xmlns="http://www.w3.org/2000/svg" xmlns:xlink="http://www.w3.org/1999/xlink" xmlns:sodipodi="http://sodipodi.sourceforge.net/DTD/sodipodi-0.dtd" xmlns:inkscape="http://www.inkscape.org/namespaces/inkscape">
 <defs>
  <clipPath clipPathUnits="userSpaceOnUse" id="clipPath3009">
   <path d="m-2 956.36h-96v33.562l96 25.687v-59.25z"/>
  </clipPath>
  <linearGradient id="linearGradient2776">
   <stop/>
   <stop stop-opacity="0" offset="1"/>
  </linearGradient>
  <clipPath id="clipPath3613-4">
   <rect x="6" rx="6" y="6" height="84" width="84"/>
  </clipPath>
  <filter x="-0.192" y="-0.192" height="1.384" color-interpolation-filters="sRGB" id="filter3794-9" width="1.384">
   <feGaussianBlur stdDeviation="5.28"/>
  </filter>
  <linearGradient x1="-33.408" x2="25.06" xlink:href="#linearGradient2776" y1="71.69" y2="73.78" gradientUnits="userSpaceOnUse" id="linearGradient4320" gradientTransform="matrix(1 0 0 1 -63.66 -52.18)"/>
  <linearGradient x1="-33.408" x2="25.06" xlink:href="#linearGradient2776" y1="71.69" y2="73.78" gradientUnits="userSpaceOnUse" id="linearGradient4322" gradientTransform="matrix(0.8302 0 0.5593 0.69309 -138.68 -13.12)"/>
  <rect x="2" rx="25" y="958.36" height="92" id="SVGCleanerId_0" width="92"/>
  <rect x="-96" rx="25" y="958.36" clip-path="url(#clipPath3009)" fill="#fff" height="92" id="SVGCleanerId_1" opacity="0.15" width="92"/>
  <path d="m146.16 265.18c0 8.4567-6.8555 15.312-15.312 15.312-8.4567 0-15.312-6.8555-15.312-15.312 0-8.4567 6.8555-15.312 15.312-15.312 8.4567 0 15.312 6.8555 15.312 15.312z" id="SVGCleanerId_2"/>
 </defs>
 <g transform="matrix(1 0 0 1 0 -956.36)">
  <use xlink:href="#SVGCleanerId_0" fill="#e6e6e6"/>
  <rect x="15" stroke-width="0.5" rx="12" y="15" clip-path="url(#clipPath3613-4)" fill="#1a1a1a" stroke="#fff" height="66" filter="url(#filter3794-9)" opacity="0.2" width="66" stroke-linecap="round" transform="matrix(1.0952 0 0 1.0952 -4.572 951.79)"/>
  <use xlink:href="#SVGCleanerId_1" transform="matrix(1 0 0 1 98 0)"/>
  <g transform="matrix(0.87169 0 0 0.87169 164.18 64.22)">
   <path d="m6.2203 17.125 23.728 7.603 24.708 86.652 151.41-1.39 19.01-84.78" stroke-width="11.82" fill="url(#linearGradient4320)" fill-rule="evenodd" stroke="#000" stroke-linecap="round" stroke-linejoin="round" transform="matrix(0.29839 0 0 0.29839 -167.79 1060.9)"/>
   <path d="m51.42 100.72 8.2055 36.662h143.88" stroke-width="11.82" fill="url(#linearGradient4322)" fill-rule="evenodd" stroke="#000" stroke-linecap="round" stroke-linejoin="round" transform="matrix(0.29839 0 0 0.29839 -167.79 1060.9)"/>
   <use xlink:href="#SVGCleanerId_2" transform="matrix(0.34551 0 0 0.34551 -195.6 1012.6)"/>
   <use xlink:href="#SVGCleanerId_2" transform="matrix(0.34551 0 0 0.34551 -154.38 1012.6)"/>
   <g transform="matrix(0.44727 0 0 0.44727 -150.77 619.18)">
    <use xlink:href="#SVGCleanerId_0"/>
    <g transform="matrix(0.90375 0 0 0.90375 4.353 96.41)">
     <path d="m69.671 1004.3c0 14.959-12.127 27.086-27.086 27.086s-27.086-12.127-27.086-27.086 12.127-27.086 27.086-27.086 27.086 12.127 27.086 27.086z" stroke-width="11.863" fill="none" stroke="#fff"/>
     <path d="m80.969 976.94h0.61572v55.466h-0.616z" stroke-width="10.875" fill="#a00" stroke="#f00" stroke-linecap="round" stroke-linejoin="round"/>
    </g>
    <use xlink:href="#SVGCleanerId_1" transform="matrix(1 0 0 1 98 0)"/>
   </g>
  </g>
  <use xlink:href="#SVGCleanerId_1" transform="matrix(1 0 0 1 98 0.002)"/>
 </g>
</svg>
