<?xml version="1.0" encoding="UTF-8" standalone="no"?>
<!-- Created with Inkscape (http://www.inkscape.org/) -->

<svg
   xmlns:dc="http://purl.org/dc/elements/1.1/"
   xmlns:cc="http://creativecommons.org/ns#"
   xmlns:rdf="http://www.w3.org/1999/02/22-rdf-syntax-ns#"
   xmlns:svg="http://www.w3.org/2000/svg"
   xmlns="http://www.w3.org/2000/svg"
   xmlns:xlink="http://www.w3.org/1999/xlink"
   xmlns:sodipodi="http://sodipodi.sourceforge.net/DTD/sodipodi-0.dtd"
   xmlns:inkscape="http://www.inkscape.org/namespaces/inkscape"
   id="svg11037"
   height="96"
   width="96"
   version="1.1"
   inkscape:version="0.48.5 r10040"
   sodipodi:docname="wine-winetricks.svg">
  <sodipodi:namedview
     pagecolor="#ffffff"
     bordercolor="#666666"
     borderopacity="1"
     objecttolerance="10"
     gridtolerance="10"
     guidetolerance="10"
     inkscape:pageopacity="0"
     inkscape:pageshadow="2"
     inkscape:window-width="640"
     inkscape:window-height="480"
     id="namedview72620" />
  <defs
     id="defs11039">
    <linearGradient
       id="linearGradient3617"
       y2="5.9877"
       gradientUnits="userSpaceOnUse"
       x2="48"
       y1="90"
       x1="48">
      <stop
         id="stop3780"
         style="stop-color:#911935"
         offset="0" />
      <stop
         id="stop3782"
         style="stop-color:#dd6876"
         offset="1" />
    </linearGradient>
    <linearGradient
       id="linearGradient3613"
       y2="138.66"
       gradientUnits="userSpaceOnUse"
       x2="48"
       y1="20.221"
       x1="48">
      <stop
         id="stop3739"
         style="stop-color:#fff"
         offset="0" />
      <stop
         id="stop3741"
         style="stop-color:#fff;stop-opacity:0"
         offset="1" />
    </linearGradient>
    <clipPath
       id="clipPath3613">
      <rect
         id="rect3615"
         style="fill:#fff"
         rx="6"
         ry="6"
         height="84"
         width="84"
         y="6"
         x="6" />
    </clipPath>
    <filter
       id="filter3794"
       height="1.384"
       width="1.384"
       color-interpolation-filters="sRGB"
       y="-.192"
       x="-.192">
      <feGaussianBlur
         id="feGaussianBlur3796"
         stdDeviation="5.28" />
    </filter>
    <linearGradient
       id="linearGradient4314"
       y2="35.918"
       xlink:href="#linearGradient4296"
       gradientUnits="userSpaceOnUse"
       x2="39.328"
       gradientTransform="matrix(.96593 .25882 -.25882 .96593 30.005 -25.916)"
       y1="106.04"
       x1="79.815" />
    <linearGradient
       id="linearGradient4296">
      <stop
         id="stop4298"
         offset="0" />
      <stop
         id="stop4300"
         style="stop-opacity:0"
         offset="1" />
    </linearGradient>
    <filter
       id="filter4304"
       color-interpolation-filters="sRGB">
      <feGaussianBlur
         id="feGaussianBlur4306"
         stdDeviation="0.53347418" />
    </filter>
    <radialGradient
       id="radialGradient4323"
       gradientUnits="userSpaceOnUse"
       cy="28.098"
       cx="39.049"
       gradientTransform="matrix(.025219 1.5993 -.98834 .015584 65.834 -34.797)"
       r="36.428">
      <stop
         id="stop4780"
         style="stop-color:#fff9b9"
         offset="0" />
      <stop
         id="stop4782"
         style="stop-color:#fff79e;stop-opacity:0"
         offset="1" />
    </radialGradient>
    <radialGradient
       id="radialGradient4333"
       xlink:href="#linearGradient4215"
       gradientUnits="userSpaceOnUse"
       cy="32"
       cx="32"
       r="8" />
    <linearGradient
       id="linearGradient4215">
      <stop
         id="stop4217"
         style="stop-color:#ffb800"
         offset="0" />
      <stop
         id="stop4219"
         style="stop-color:#ffb800;stop-opacity:0"
         offset="1" />
    </linearGradient>
    <radialGradient
       id="radialGradient3556"
       xlink:href="#linearGradient4223"
       gradientUnits="userSpaceOnUse"
       cy="31.602"
       cx="29.095"
       r="7.2449" />
    <linearGradient
       id="linearGradient4223">
      <stop
         id="stop4225"
         style="stop-color:#ffe375"
         offset="0" />
      <stop
         id="stop4227"
         style="stop-color:#ffa600"
         offset="1" />
    </linearGradient>
    <linearGradient
       id="linearGradient4238"
       y2="56"
       gradientUnits="userSpaceOnUse"
       x2="55.078"
       y1="56"
       x1="48">
      <stop
         id="stop4636"
         offset="0" />
      <stop
         id="stop4642"
         style="stop-color:#a5a5a5"
         offset="0.3" />
      <stop
         id="stop4644"
         style="stop-color:#4c4c4c"
         offset="0.6" />
      <stop
         id="stop4638"
         offset="1" />
    </linearGradient>
    <linearGradient
       id="linearGradient4240"
       y2="56"
       xlink:href="#linearGradient4654"
       gradientUnits="userSpaceOnUse"
       x2="56.154"
       y1="56"
       x1="48" />
    <linearGradient
       id="linearGradient4654">
      <stop
         id="stop4656"
         style="stop-color:#a5a5a5"
         offset="0" />
      <stop
         id="stop4658"
         style="stop-color:#fff"
         offset="0.3" />
      <stop
         id="stop4660"
         style="stop-color:#a5a5a5"
         offset="0.6" />
      <stop
         id="stop4662"
         style="stop-color:#636363"
         offset="1" />
    </linearGradient>
    <linearGradient
       id="linearGradient4242"
       y2="56"
       xlink:href="#linearGradient4654"
       gradientUnits="userSpaceOnUse"
       x2="55.869"
       gradientTransform="matrix(1,0,0,-1,0,112)"
       y1="56"
       x1="48" />
    <linearGradient
       id="linearGradient4244"
       y2="31.678"
       gradientUnits="userSpaceOnUse"
       x2="48"
       y1="96"
       x1="48">
      <stop
         id="stop4674"
         offset="0" />
      <stop
         id="stop4676"
         style="stop-opacity:0"
         offset="1" />
    </linearGradient>
    <clipPath
       id="clipPath3266"
       clipPathUnits="userSpaceOnUse">
      <rect
         id="rect3268"
         style="fill:url(#linearGradient3271)"
         rx="22.818"
         ry="22.818"
         height="83.971"
         width="83.971"
         y="6.1878"
         x="6" />
    </clipPath>
    <linearGradient
       id="linearGradient3271"
       y2="1046.1"
       gradientUnits="userSpaceOnUse"
       x2="48"
       gradientTransform="matrix(1.0496 0 0 1.0496 -2.397 -1006)"
       y1="962.62"
       x1="48">
      <stop
         id="stop3797"
         style="stop-color:#13a6fd"
         offset="0" />
      <stop
         id="stop3799"
         style="stop-color:#2975b6"
         offset="1" />
    </linearGradient>
    <clipPath
       id="clipPath3009"
       clipPathUnits="userSpaceOnUse">
      <path
         id="path3011"
         style="opacity:.15;fill:#fff"
         d="m-2 956.36h-96v33.562l96 25.687v-59.25z" />
    </clipPath>
  </defs>
  <metadata
     id="metadata11042">
    <rdf:RDF>
      <cc:Work
         rdf:about="">
        <dc:format>image/svg+xml</dc:format>
        <dc:type
           rdf:resource="http://purl.org/dc/dcmitype/StillImage" />
        <dc:title />
      </cc:Work>
    </rdf:RDF>
  </metadata>
  <g
     id="layer1"
     transform="translate(0 -956.36)">
    <g
       id="g3153"
       clip-path="url(#clipPath3266)"
       transform="matrix(1.0956 0 0 1.0956 -4.5737 951.58)">
      <g
         id="g3122">
        <rect
           id="rect2419"
           style="fill:url(#linearGradient3617)"
           rx="6"
           ry="6"
           height="84"
           width="84"
           y="6"
           x="6" />
        <g
           id="layer5">
          <rect
             id="rect3171"
             style="opacity:.1;filter:url(#filter3794);stroke:#fff;stroke-linecap:round;stroke-width:.5;fill:url(#linearGradient3613)"
             clip-path="url(#clipPath3613)"
             rx="12"
             ry="12"
             height="66"
             width="66"
             y="15"
             x="15" />
        </g>
      </g>
      <g
         id="layer3">
        <path
           id="path4312"
           d="m61.896 17.343c-0.13523-0.04214-0.28289-0.05044-0.41667-0.01459l-5.7872 1.5552c-0.53512 0.14339-0.80493 0.9157-0.58985 1.7184l3.2386 12.062 6.7336 25.098 4.3788 16.379 5.5853 20.811c0.21508 0.80269 0.82422 1.3488 1.3593 1.2054l5.7872-1.5552c0.53512-0.14339 0.80493-0.9157 0.58985-1.7184l-5.585-20.81-4.379-16.379-6.733-25.098-3.239-12.062c-0.161-0.602-0.537-1.064-0.942-1.191z"
           style="opacity:.1;color:#000000;filter:url(#filter4304);fill:url(#linearGradient4314)"
           transform="matrix(.82861 -.55983 .55983 .82861 -40.811 58.691)" />
        <path
           id="path4308"
           d="m61.896 17.343c-0.13523-0.04214-0.28289-0.05044-0.41667-0.01459l-5.7872 1.5552c-0.53512 0.14339-0.80493 0.9157-0.58985 1.7184l3.2386 12.062 6.7336 25.098 4.3788 16.379 5.5853 20.811c0.21508 0.80269 0.82422 1.3488 1.3593 1.2054l5.7872-1.5552c0.53512-0.14339 0.80493-0.9157 0.58985-1.7184l-5.585-20.81-4.379-16.379-6.733-25.098-3.239-12.062c-0.161-0.602-0.537-1.064-0.942-1.191z"
           style="opacity:.3;color:#000000;filter:url(#filter4304);fill:url(#linearGradient4314)"
           transform="matrix(.93864 -.34491 .34491 .93864 -28.481 31.914)" />
        <path
           id="rect4250"
           d="m61.896 17.343c-0.13523-0.04214-0.28289-0.05044-0.41667-0.01459l-5.7872 1.5552c-0.53512 0.14339-0.80493 0.9157-0.58985 1.7184l3.2386 12.062 6.7336 25.098 4.3788 16.379 5.5853 20.811c0.21508 0.80269 0.82422 1.3488 1.3593 1.2054l5.7872-1.5552c0.53512-0.14339 0.80493-0.9157 0.58985-1.7184l-5.585-20.81-4.379-16.379-6.733-25.098-3.239-12.062c-0.161-0.602-0.537-1.064-0.942-1.191z"
           style="opacity:0.12;color:#000000;filter:url(#filter4304);fill:url(#linearGradient4314)" />
        <path
           id="path4776"
           d="m73.344 6c-7.3603 25.499-22.654 54.408-36 50.031-14.048-4.606-5.119-23.279-0.656-27.875-5.255 4.927-18.401 25.282-1.626 34.188 12.933 6.865 39.734-8.785 54.938-29.969v-20.375c0-3.324-2.676-6-6-6h-10.656z"
           style="opacity:.4;fill:url(#radialGradient4323)" />
        <g
           id="g4201"
           style="enable-background:new;fill:#fc0"
           transform="matrix(1.1299 0 0 1.1299 7.4475 29.55)">
          <path
             id="path4203"
             d="m40 32a8 8 0 1 1 -16 0 8 8 0 1 1 16 0z"
             style="color:#000000;enable-background:accumulate;fill:url(#radialGradient4333)"
             transform="translate(-1,-1)" />
          <path
             id="path4205"
             d="m23.906 22.634 2.3835 8.2161-6.187 5.9312 8.187-2.4671 5.9915 6.2706-2.5274-8.2706 6.331-5.9079-8.331 2.4438-5.8476-6.2161z"
             style="opacity:.1;color:#000000;enable-background:accumulate;fill:#fc0"
             transform="matrix(.86603 .5 -.5 .86603 21.657 -10.862)" />
          <path
             id="path4207"
             d="m33.778 39.713-5.2168-6.034-7.577 2.606 6.0744-5.1503-2.6463-7.6434 5.1635 6.0648 7.6303-2.6368-6.0258 5.3543 2.5977 7.4395z"
             style="opacity:.2;color:#000000;enable-background:accumulate;fill:#fc0"
             transform="matrix(.86603 .5 -.5 .86603 21.657 -10.862)" />
          <path
             id="path4209"
             d="m33.278 38.847-4.5293-5.952-6.8985 2.8899 5.952-4.5293-2.8899-6.8985 4.5293 5.952 6.8985-2.8899-5.952 4.5293z"
             style="color:#000000;enable-background:accumulate;fill:url(#radialGradient3556)"
             transform="matrix(.86603 .5 -.5 .86603 21.657 -10.862)" />
        </g>
        <g
           id="g4345"
           style="enable-background:new;fill:#fc0"
           transform="matrix(.74836 0 0 .74836 49.786 23.154)">
          <path
             id="path4347"
             d="m40 32a8 8 0 1 1 -16 0 8 8 0 1 1 16 0z"
             style="color:#000000;enable-background:accumulate;fill:url(#radialGradient4333)"
             transform="translate(-1,-1)" />
          <path
             id="path4349"
             d="m23.906 22.634 2.3835 8.2161-6.187 5.9312 8.187-2.4671 5.9915 6.2706-2.5274-8.2706 6.331-5.9079-8.331 2.4438-5.8476-6.2161z"
             style="opacity:.1;color:#000000;enable-background:accumulate;fill:#fc0"
             transform="matrix(.86603 .5 -.5 .86603 21.657 -10.862)" />
          <path
             id="path4351"
             d="m33.778 39.713-5.2168-6.034-7.577 2.606 6.0744-5.1503-2.6463-7.6434 5.1635 6.0648 7.6303-2.6368-6.0258 5.3543 2.5977 7.4395z"
             style="opacity:.2;color:#000000;enable-background:accumulate;fill:#fc0"
             transform="matrix(.86603 .5 -.5 .86603 21.657 -10.862)" />
          <path
             id="path4353"
             d="m33.278 38.847-4.5293-5.952-6.8985 2.8899 5.952-4.5293-2.8899-6.8985 4.5293 5.952 6.8985-2.8899-5.952 4.5293z"
             style="color:#000000;enable-background:accumulate;fill:url(#radialGradient3556)"
             transform="matrix(.86603 .5 -.5 .86603 21.657 -10.862)" />
        </g>
        <g
           id="g4387"
           style="enable-background:new;fill:#fc0"
           transform="matrix(1.8398 0 0 1.8398 -31.185 -10.84)">
          <path
             id="path4389"
             d="m40 32a8 8 0 1 1 -16 0 8 8 0 1 1 16 0z"
             style="color:#000000;enable-background:accumulate;fill:url(#radialGradient4333)"
             transform="translate(-1,-1)" />
          <path
             id="path4391"
             d="m23.906 22.634 2.3835 8.2161-6.187 5.9312 8.187-2.4671 5.9915 6.2706-2.5274-8.2706 6.331-5.9079-8.331 2.4438-5.8476-6.2161z"
             style="opacity:.1;color:#000000;enable-background:accumulate;fill:#fc0"
             transform="matrix(.86603 .5 -.5 .86603 21.657 -10.862)" />
          <path
             id="path4393"
             d="m33.778 39.713-5.2168-6.034-7.577 2.606 6.0744-5.1503-2.6463-7.6434 5.1635 6.0648 7.6303-2.6368-6.0258 5.3543 2.5977 7.4395z"
             style="opacity:.2;color:#000000;enable-background:accumulate;fill:#fc0"
             transform="matrix(.86603 .5 -.5 .86603 21.657 -10.862)" />
          <path
             id="path4395"
             d="m33.278 38.847-4.5293-5.952-6.8985 2.8899 5.952-4.5293-2.8899-6.8985 4.5293 5.952 6.8985-2.8899-5.952 4.5293z"
             style="color:#000000;enable-background:accumulate;fill:url(#radialGradient3556)"
             transform="matrix(.86603 .5 -.5 .86603 21.657 -10.862)" />
        </g>
        <g
           id="g4471"
           style="enable-background:new;fill:#fc0"
           transform="matrix(.87788 0 0 .87788 3.9327 -6.3402)">
          <path
             id="path4473"
             d="m40 32a8 8 0 1 1 -16 0 8 8 0 1 1 16 0z"
             style="color:#000000;enable-background:accumulate;fill:url(#radialGradient4333)"
             transform="translate(-1,-1)" />
          <path
             id="path4475"
             d="m23.906 22.634 2.3835 8.2161-6.187 5.9312 8.187-2.4671 5.9915 6.2706-2.5274-8.2706 6.331-5.9079-8.331 2.4438-5.8476-6.2161z"
             style="opacity:.1;color:#000000;enable-background:accumulate;fill:#fc0"
             transform="matrix(.86603 .5 -.5 .86603 21.657 -10.862)" />
          <path
             id="path4477"
             d="m33.778 39.713-5.2168-6.034-7.577 2.606 6.0744-5.1503-2.6463-7.6434 5.1635 6.0648 7.6303-2.6368-6.0258 5.3543 2.5977 7.4395z"
             style="opacity:.2;color:#000000;enable-background:accumulate;fill:#fc0"
             transform="matrix(.86603 .5 -.5 .86603 21.657 -10.862)" />
          <path
             id="path4479"
             d="m33.278 38.847-4.5293-5.952-6.8985 2.8899 5.952-4.5293-2.8899-6.8985 4.5293 5.952 6.8985-2.8899-5.952 4.5293z"
             style="color:#000000;enable-background:accumulate;fill:url(#radialGradient3556)"
             transform="matrix(.86603 .5 -.5 .86603 21.657 -10.862)" />
        </g>
        <path
           id="path4901"
           d="m76.688-9.8438a1.4541 1.4541 0 0 0 -1.407 1.2188c-2.275 13.426-7.814 30.838-14.719 44.094-3.452 6.627-7.257 12.211-11.031 15.719-3.774 3.507-7.295 4.883-10.656 3.781-3.405-1.117-5.079-2.968-5.937-5.281-0.8585-2.3136-0.79091-5.2074-0.125-8.125s1.9077-5.8385 3.2188-8.1562 2.8206-4.0849 3.375-4.4688l-0.813-1.188-0.844-1.188c-1.3966 1.0113-3.2599 3.0347-5.25 5.7812s-4.0404 6.1669-5.375 9.875-1.9761 7.7425-1.0312 11.562c0.94484 3.82 3.5545 7.3344 8.2812 9.8438 4.9654 2.636 11.452 2.2353 18.344-0.09375 6.8917-2.3291 14.287-6.6334 21.25-12.219 13.926-11.169 26.161-27.462 28.311-43.811a1.4541 1.4541 0 0 0 -0.66 -1.4062l-24.12-15.688a1.4541 1.4541 0 0 0 -0.8125 -0.25z"
           style="opacity:0" />
        <g
           id="g4224"
           transform="matrix(.86603 -.5 .5 .86603 -74.655 72.268)">
          <g
             id="g4226"
             transform="translate(70)">
            <rect
               id="rect4228"
               style="color:#000000;fill:url(#linearGradient4238)"
               rx="1"
               ry="1.5"
               height="80"
               width="8"
               y="16"
               x="48" />
            <path
               id="path4230"
               d="m49 16c-0.554 0-1 0.669-1 1.5v12.5h8v-12.5c0-0.831-0.446-1.5-1-1.5z"
               style="color:#000000;fill:url(#linearGradient4240)" />
            <path
               id="path4232"
               d="m49 96c-0.554 0-1-0.669-1-1.5v-12.5h8v12.5c0 0.831-0.446 1.5-1 1.5z"
               style="color:#000000;fill:url(#linearGradient4242)" />
            <rect
               id="rect4234"
               style="opacity:.3;color:#000000;fill:url(#linearGradient4244)"
               rx="1"
               ry="1.5"
               height="80"
               width="8"
               y="16"
               x="48" />
            <path
               id="path4236"
               d="m49 16c-0.554 0-1 0.669-1 1.5v77c0 0.831 0.446 1.5 1 1.5h6c0.554 0 1-0.669 1-1.5v-77c0-0.831-0.446-1.5-1-1.5zm0.125 1h5.75c0.049 0.074 0.125 0.264 0.125 0.5v77c0 0.23568-0.07571 0.42606-0.125 0.5h-5.75c-0.049-0.074-0.125-0.264-0.125-0.5v-77c0-0.23568 0.07571-0.42606 0.125-0.5z"
               style="opacity:.2;color:#000000" />
          </g>
        </g>
      </g>
    </g>
    <rect
       id="rect3003"
       style="opacity:.15;fill:#fff"
       transform="translate(98 3.8281e-7)"
       clip-path="url(#clipPath3009)"
       rx="25"
       ry="25"
       height="92"
       width="92"
       y="958.36"
       x="-96" />
  </g>
</svg>
