<?xml version="1.0" encoding="UTF-8" standalone="no"?>
<!-- Created with Inkscape (http://www.inkscape.org/) -->

<svg
   xmlns:dc="http://purl.org/dc/elements/1.1/"
   xmlns:cc="http://creativecommons.org/ns#"
   xmlns:rdf="http://www.w3.org/1999/02/22-rdf-syntax-ns#"
   xmlns:svg="http://www.w3.org/2000/svg"
   xmlns="http://www.w3.org/2000/svg"
   xmlns:xlink="http://www.w3.org/1999/xlink"
   xmlns:sodipodi="http://sodipodi.sourceforge.net/DTD/sodipodi-0.dtd"
   xmlns:inkscape="http://www.inkscape.org/namespaces/inkscape"
   id="svg11037"
   height="96"
   width="96"
   version="1.1"
   inkscape:version="0.48.5 r10040"
   sodipodi:docname="wine-winecfg.svg">
  <sodipodi:namedview
     pagecolor="#ffffff"
     bordercolor="#666666"
     borderopacity="1"
     objecttolerance="10"
     gridtolerance="10"
     guidetolerance="10"
     inkscape:pageopacity="0"
     inkscape:pageshadow="2"
     inkscape:window-width="640"
     inkscape:window-height="480"
     id="namedview72526" />
  <defs
     id="defs11039">
    <linearGradient
       id="linearGradient3757"
       y2="5.9877"
       gradientUnits="userSpaceOnUse"
       x2="48"
       y1="90"
       x1="48">
      <stop
         id="stop3780"
         style="stop-color:#911935"
         offset="0" />
      <stop
         id="stop3782"
         style="stop-color:#dd6876"
         offset="1" />
    </linearGradient>
    <linearGradient
       id="linearGradient3613"
       y2="138.66"
       gradientUnits="userSpaceOnUse"
       x2="48"
       y1="20.221"
       x1="48">
      <stop
         id="stop3739"
         style="stop-color:#fff"
         offset="0" />
      <stop
         id="stop3741"
         style="stop-color:#fff;stop-opacity:0"
         offset="1" />
    </linearGradient>
    <clipPath
       id="clipPath3613">
      <rect
         id="rect3615"
         style="fill:#fff"
         rx="6"
         ry="6"
         height="84"
         width="84"
         y="6"
         x="6" />
    </clipPath>
    <filter
       id="filter3794"
       height="1.384"
       width="1.384"
       color-interpolation-filters="sRGB"
       y="-.192"
       x="-.192">
      <feGaussianBlur
         id="feGaussianBlur3796"
         stdDeviation="5.28" />
    </filter>
    <clipPath
       id="clipPath2973">
      <rect
         id="rect2975"
         style="fill:url(#linearGradient2977)"
         rx="6"
         ry="6"
         height="84"
         width="84"
         y="6"
         x="6" />
    </clipPath>
    <linearGradient
       id="linearGradient3617"
       y2="5.9877"
       xlink:href="#linearGradient3700"
       gradientUnits="userSpaceOnUse"
       x2="48"
       y1="90"
       x1="48" />
    <linearGradient
       id="linearGradient3700">
      <stop
         id="stop3702"
         style="stop-color:#70a83e"
         offset="0" />
      <stop
         id="stop3704"
         style="stop-color:#9fd058"
         offset="1" />
    </linearGradient>
    <linearGradient
       id="linearGradient3887"
       y2="66.807"
       xlink:href="#linearGradient5128"
       gradientUnits="userSpaceOnUse"
       x2="-6.5245"
       y1="62.879"
       x1="5.2745" />
    <linearGradient
       id="linearGradient5128">
      <stop
         id="stop5130"
         style="stop-color:#e5e5e5"
         offset="0" />
      <stop
         id="stop5132"
         style="stop-color:#ababab"
         offset="1" />
    </linearGradient>
    <linearGradient
       id="linearGradient3916"
       y2="66.807"
       xlink:href="#linearGradient5128"
       gradientUnits="userSpaceOnUse"
       x2="-6.5245"
       gradientTransform="matrix(.44989 0 0 .44989 -.0000077869 -94.533)"
       y1="62.879"
       x1="5.2745" />
    <linearGradient
       id="linearGradient3938"
       y2="45.618"
       gradientUnits="userSpaceOnUse"
       x2="42.662"
       gradientTransform="matrix(-1 0 0 -1 91.081 91.12)"
       y1="48.268"
       x1="45.312">
      <stop
         id="stop3934"
         offset="0" />
      <stop
         id="stop3936"
         style="stop-opacity:0"
         offset="1" />
    </linearGradient>
    <linearGradient
       id="linearGradient3879"
       y2="47.535"
       gradientUnits="userSpaceOnUse"
       x2="36.821"
       y1="21.65"
       x1="32.238">
      <stop
         id="stop3311"
         style="stop-color:#f6f6f6"
         offset="0" />
      <stop
         id="stop3313"
         style="stop-color:#d2d2d2"
         offset="1" />
    </linearGradient>
    <linearGradient
       id="linearGradient3800"
       y2="52.872"
       gradientUnits="userSpaceOnUse"
       x2="59.574"
       y1="71.888"
       x1="64.67">
      <stop
         id="stop3726"
         style="stop-color:#ffa92a"
         offset="0" />
      <stop
         id="stop3728"
         style="stop-color:#ffcf2a"
         offset="1" />
    </linearGradient>
    <linearGradient
       id="linearGradient3747"
       y2="64.308"
       gradientUnits="userSpaceOnUse"
       x2="54.767"
       y1="44.04"
       x1="52.515">
      <stop
         id="stop3743"
         style="stop-color:#fff"
         offset="0" />
      <stop
         id="stop3745"
         style="stop-color:#fff;stop-opacity:0"
         offset="1" />
    </linearGradient>
    <radialGradient
       id="radialGradient3791"
       gradientUnits="userSpaceOnUse"
       cy="53.891"
       cx="48.09"
       gradientTransform="matrix(-.011552 1.9831 -2.0306 -.022693 158.07 -40.252)"
       r="5.4927">
      <stop
         id="stop3779"
         style="stop-color:#f60"
         offset="0" />
      <stop
         id="stop3781"
         style="stop-color:#f60;stop-opacity:0"
         offset="1" />
    </radialGradient>
    <radialGradient
       id="radialGradient3811"
       gradientUnits="userSpaceOnUse"
       cy="54.106"
       cx="47.644"
       gradientTransform="matrix(2.3125 2.3348 1.2718 -1.2596 -125.15 4.5326)"
       r="4.8616">
      <stop
         id="stop3753"
         style="stop-color:#f89400"
         offset="0" />
      <stop
         id="stop3755"
         style="stop-color:#f89400;stop-opacity:0"
         offset="1" />
    </radialGradient>
    <linearGradient
       id="linearGradient3871"
       y2="69.231"
       gradientUnits="userSpaceOnUse"
       x2="69.694"
       gradientTransform="matrix(.5 .86603 -.86603 .5 91.524 -24.524)"
       y1="66.836"
       x1="60.756">
      <stop
         id="stop3867"
         style="stop-color:#ffe99d"
         offset="0" />
      <stop
         id="stop3869"
         style="stop-color:#ffe99d;stop-opacity:0"
         offset="1" />
    </linearGradient>
    <clipPath
       id="clipPath3204"
       clipPathUnits="userSpaceOnUse">
      <rect
         id="rect3206"
         style="fill:url(#linearGradient3208)"
         rx="22.826"
         ry="22.826"
         height="84"
         width="84"
         y="6"
         x="6" />
    </clipPath>
    <linearGradient
       id="linearGradient3208"
       y2="1046.1"
       gradientUnits="userSpaceOnUse"
       x2="48"
       gradientTransform="matrix(1.05 0 0 1.05 -2.4 -1006.6)"
       y1="962.62"
       x1="48">
      <stop
         id="stop3797"
         style="stop-color:#13a6fd"
         offset="0" />
      <stop
         id="stop3799"
         style="stop-color:#2975b6"
         offset="1" />
    </linearGradient>
    <clipPath
       id="clipPath3009"
       clipPathUnits="userSpaceOnUse">
      <path
         id="path3011"
         style="opacity:.15;fill:#fff"
         d="m-2 956.36h-96v33.562l96 25.687v-59.25z" />
    </clipPath>
  </defs>
  <metadata
     id="metadata11042">
    <rdf:RDF>
      <cc:Work
         rdf:about="">
        <dc:format>image/svg+xml</dc:format>
        <dc:type
           rdf:resource="http://purl.org/dc/dcmitype/StillImage" />
        <dc:title />
      </cc:Work>
    </rdf:RDF>
  </metadata>
  <g
     id="layer1"
     transform="translate(0 -956.36)">
    <g
       id="g3173"
       clip-path="url(#clipPath3204)"
       transform="matrix(1.0952 0 0 1.0952 -4.5714 951.79)">
      <g
         id="layer1-2">
        <rect
           id="rect2419"
           style="fill:url(#linearGradient3757)"
           rx="6"
           ry="6"
           height="84"
           width="84"
           y="6"
           x="6" />
      </g>
      <g
         id="layer5">
        <rect
           id="rect3171"
           style="opacity:.1;filter:url(#filter3794);stroke:#fff;stroke-linecap:round;stroke-width:.5;fill:url(#linearGradient3613)"
           clip-path="url(#clipPath3613)"
           rx="12"
           ry="12"
           height="66"
           width="66"
           y="15"
           x="15" />
      </g>
      <g
         id="layer7"
         style="opacity:.9">
        <g
           id="g3855"
           style="fill:#ffaae1"
           clip-path="url(#clipPath2973)">
          <path
             id="path3819"
             d="m48 48 24-56h16l-40 56z"
             style="opacity:.15;fill:#ffaae1" />
          <path
             id="path3821"
             d="m48 48 55.25 25.677-0.48 15.993-54.77-41.67z"
             style="opacity:.15;fill:#ffaae1" />
          <path
             id="path3823"
             d="m48 48-59.828 11.516-8.969-13.25 68.797 1.734z"
             style="opacity:.15;fill:#ffaae1" />
          <path
             id="path3825"
             d="m48 48-49.311-35.783 3.5359-15.604 45.775 51.387z"
             style="opacity:.15;fill:#ffaae1" />
          <path
             id="path3827"
             d="m48 48 17.519-62.073 30.436 12.714-47.955 49.359z"
             style="opacity:.15;fill:#ffaae1" />
          <path
             id="path3829"
             d="m48 48 61.64-19.001 5.85 32.461-67.49-13.46z"
             style="opacity:.15;fill:#ffaae1" />
          <path
             id="path3831"
             d="m48 48-31.246 56.42-26.723-19.331 57.969-37.089z"
             style="opacity:.15;fill:#ffaae1" />
          <path
             id="path3833"
             d="m48 48-62.812-14.651 11.304-30.988 51.508 45.639z"
             style="opacity:.15;fill:#ffaae1" />
          <path
             id="path3835"
             d="m48 48 45.81 45.403-3.692 9.027-42.118-54.43z"
             style="opacity:.15;fill:#ffaae1" />
          <path
             id="path3837"
             d="m48 48-2.9701 64.43-9.1685 3.31l12.138-67.74z"
             style="opacity:.15;fill:#ffaae1" />
          <path
             id="path3839"
             d="m48 48-44.859 46.343-9.0649-3.585 53.924-42.758z"
             style="opacity:.15;fill:#ffaae1" />
          <path
             id="path3841"
             d="m48 48-62.116 17.366-6.016-7.67 68.132-9.696z"
             style="opacity:.15;fill:#ffaae1" />
          <path
             id="path3843"
             d="m48 48-29.147-57.537 6.35-7.396 22.797 64.933z"
             style="opacity:.15;fill:#ffaae1" />
          <path
             id="path3845"
             d="m48 48 59.482-24.939 6.921 6.8641-66.403 18.074z"
             style="opacity:.15;fill:#ffaae1" />
          <path
             id="path3849"
             d="m48 48 40.187 45.793-6.897 14.437-33.29-60.23z"
             style="opacity:.15;fill:#ffaae1" />
          <path
             id="path3851"
             d="m48 48-35.958-49.184 8.152-13.767 27.806 62.951z"
             style="opacity:.15;fill:#ffaae1" />
        </g>
        <rect
           id="rect3873"
           style="fill:url(#linearGradient3617);display:none"
           rx="6"
           ry="6"
           height="84"
           width="84"
           y="6"
           x="6" />
        <rect
           id="rect3880"
           style="fill:url(#linearGradient3617);display:none"
           rx="6"
           ry="6"
           height="84"
           width="84"
           y="6"
           x="6" />
      </g>
      <g
         id="g3131">
        <path
           id="path3940"
           style="opacity:.3"
           d="m34.844 22c-1.626 0.006-3.2384 0.30516-4.7812 0.875l7.312 7.281-8.219 8.219-7.281-7.313c-1.8235 4.9373-0.77824 10.722 3.1875 14.688 3.9736 3.9736 9.7438 5.0261 14.688 3.1875l4.1875 4.1875c-0.90835 0.90835-0.90835 2.3729 0 3.2812l12.281 12.281 0.8125 0.84375 4.0938 4.0938c3.1792 3.1792 8.3208 3.1792 11.5 0s3.1792-8.3208 0-11.5l-4.095-4.095-0.843-0.812-12.282-12.281c-0.454-0.455-1.063-0.688-1.656-0.688-0.59272 0-1.1708 0.23332-1.625 0.6875l-4.187-4.188c1.838-4.944 0.786-10.714-3.188-14.688-2.726-2.726-6.329-4.075-9.906-4.062zm32.156 43c1.6568 0 3 1.3431 3 3s-1.3432 3-3 3-3-1.3431-3-3 1.3432-3 3-3z" />
        <rect
           id="rect3705"
           style="fill:url(#linearGradient3887)"
           transform="rotate(-45)"
           height="14.699"
           width="11.594"
           y="57.851"
           x="-5.7969" />
        <rect
           id="rect3914"
           style="fill:url(#linearGradient3916)"
           transform="rotate(135)"
           height="6.6131"
           width="5.2159"
           y="-68.507"
           x="-2.608" />
        <path
           id="path3922"
           style="opacity:.4;fill:url(#linearGradient3938)"
           d="m47.139 38.967-8.2706 8.2391 5.0102 4.947 8.3338-8.0812-5.0733-5.1049z" />
        <path
           id="rect3907"
           style="opacity:.2"
           d="m45 36.812-8.188 8.188 10.376 10.406 8.218-8.218-10.406-10.376zm0 1.438 8.969 8.938-6.781 6.781-8.938-8.969 6.75-6.75z" />
        <path
           id="path3707"
           style="fill:url(#linearGradient3879)"
           d="m21.864 30.062c-1.8235 4.9373-0.76335 10.714 3.2024 14.68 5.4332 5.4332 14.242 5.4332 19.675 0 5.4332-5.4332 5.4332-14.242 0-19.675-3.9657-3.9657-9.7425-5.0259-14.68-3.2024l7.3014 7.3014-8.1981 8.1981-7.3014-7.3014z" />
        <path
           id="path3709"
           style="fill:url(#linearGradient3800)"
           d="m53.75 43.25c-0.59272 0-1.1708 0.23332-1.625 0.6875l-8.1875 8.1875c-0.90835 0.90835-0.90835 2.3729 0 3.2812l12.281 12.281 0.8125 0.84375 4.0938 4.0938c3.1792 3.1792 8.3208 3.1792 11.5 0s3.1792-8.3208 0-11.5l-4.095-4.095-0.843-0.812-12.282-12.281c-0.454-0.455-1.063-0.688-1.656-0.688zm13.25 20.75c1.6569 0 3 1.3431 3 3s-1.3431 3-3 3-3-1.3431-3-3 1.3431-3 3-3z" />
        <path
           id="path3846"
           style="opacity:.8;fill:#f98d01"
           d="m73.125 62.625c0.23889 0.7333 0.375 1.5307 0.375 2.3438 0 4.1493-3.3507 7.5-7.5 7.5-2.5384 0-4.7962-1.26-6.1562-3.1875 0.9803 3.0092 3.8199 5.1875 7.1562 5.1875 4.1493 0 7.5-3.3507 7.5-7.5 0-1.6128-0.50997-3.1197-1.375-4.3438z" />
        <path
           id="path3717"
           style="fill:#d88100"
           d="m53.75 43.25c-0.59272 0-1.1708 0.23332-1.625 0.6875l-8.1875 8.1875c-0.90835 0.90835-0.90835 2.3729 0 3.2812l12.281 12.281 0.8125 0.84375 4.0938 4.0938c3.1792 3.1792 8.3208 3.1792 11.5 0s3.1792-8.3208 0-11.5l-4.095-4.095-0.843-0.812-12.282-12.281c-0.454-0.455-1.063-0.688-1.656-0.688zm0 1.3438c0.23912 0 0.52751 0.09001 0.71875 0.28125l12.281 12.281a1.3476 1.3476 0 0 0 0 0.03125l0.844 0.813 4.094 4.062c2.6656 2.6656 2.6656 6.9594 0 9.625s-6.9594 2.6656-9.625 0l-4.063-4.093-0.812-0.844a1.3476 1.3476 0 0 0 -0.03125 0l-12.282-12.281c-0.39629-0.39629-0.39629-1.01 0-1.4062l8.1875-8.1875c0.21308-0.21308 0.44838-0.28125 0.6875-0.28125z" />
        <path
           id="path3803"
           style="fill:#d88100"
           d="m67 63c-2.2091 0-4 1.7909-4 4s1.7909 4 4 4 4-1.7909 4-4-1.7909-4-4-4zm0 1c1.6569 0 3 1.3431 3 3s-1.3431 3-3 3-3-1.3431-3-3 1.3431-3 3-3z" />
        <path
           id="path3736"
           style="opacity:.6;fill:url(#linearGradient3747)"
           d="m53.75 44.562c-0.24745 0-0.46874 0.09374-0.6875 0.3125l-8.1875 8.1875c-0.40836 0.40836-0.40836 0.99789 0 1.4062l12.282 12.282a1.3158 1.3158 0 0 1 0 0.03125l0.8125 0.84375 4.0938 4.0625c2.6777 2.6777 6.9473 2.6777 9.625 0s2.6777-6.9473 0-9.625l-4.0625-4.0938-0.84375-0.8125a1.3158 1.3158 0 0 1 -0.03125 0l-12.281-12.281c-0.198-0.197-0.472-0.313-0.719-0.313zm0 1.625 12 11.969a2.7498 2.7498 0 0 0 0.03125 0.03125l0.8125 0.78125 0.031 0.032 4.0625 4.0625c2.1312 2.1312 2.1312 5.4938 0 7.625s-5.4938 2.1312-7.625 0l-4.063-4.062-0.031-0.031-0.781-0.813a2.7498 2.7498 0 0 0 -0.032 -0.031l-11.968-12 7.562-7.562z" />
        <path
           id="path3759"
           style="opacity:.6;fill:url(#radialGradient3791)"
           transform="matrix(.97938 .97938 -.70711 .70711 44.711 -39.03)"
           d="m59.094 53.889a10.985 10.985 0 0 1 -10.985 10.986v-10.985z" />
        <path
           id="path3749"
           style="stroke:url(#radialGradient3811);stroke-width:2;fill:none"
           d="m46.833 54.398 6.875-6.7857 11.753 11.511" />
        <path
           id="path3852"
           style="fill:url(#linearGradient3871)"
           d="m71.763 64.25c-1.519-2.631-4.882-3.532-7.513-2.013-2.6306 1.5188-3.5319 4.8825-2.0131 7.5131s4.8825 3.5319 7.5131 2.0131 3.5319-4.8825 2.0131-7.5131zm-0.86603 0.5c1.243 2.152 0.505 4.904-1.647 6.147s-4.904 0.505-6.147-1.647-0.505-4.904 1.647-6.147 4.904-0.505 6.147 1.647z" />
        <path
           id="path3889"
           style="opacity:.4;fill:#4d4d4d"
           d="m30.812 21.625c-0.25073 0.07675-0.50314 0.15883-0.75 0.25l7.2646 7.2649 0.5-0.5-7.015-7.015zm16.062 6.2188c1.9392 4.9856 0.90035 10.881-3.125 14.906-5.4332 5.4332-14.254 5.4332-19.688 0-0.80456-0.80456-1.4657-1.6935-2.0312-2.625 0.67746 1.6764 1.6732 3.2669 3.0312 4.625 5.4332 5.4332 14.254 5.4332 19.688 0 4.5843-4.5843 5.2767-11.571 2.125-16.906z" />
        <path
           id="path3897"
           style="opacity:.5;fill:#fff"
           d="m37.812 28.674-8.656 8.701-7.281-7.313c-0.62689 1.6973-0.89937 3.4932-0.84375 5.2812 0.05765-1.457 0.33278-2.8978 0.84375-4.2812l7.2812 7.3125 9.1562-9.2009-0.5-0.5z" />
      </g>
    </g>
    <rect
       id="rect3003"
       style="opacity:.15;fill:#fff"
       transform="translate(98 3.8281e-7)"
       clip-path="url(#clipPath3009)"
       rx="25"
       ry="25"
       height="92"
       width="92"
       y="958.36"
       x="-96" />
  </g>
</svg>
