<svg height="96" width="96" xmlns="http://www.w3.org/2000/svg" xmlns:sodipodi="http://sodipodi.sourceforge.net/DTD/sodipodi-0.dtd" xmlns:inkscape="http://www.inkscape.org/namespaces/inkscape">
 <g transform="matrix(1 0 0 1 0 0)">
  <rect x="8" rx="10.769" y="-88" fill="#d11f25" fill-opacity="0.992" stroke="none" height="80" opacity="0.99" width="80" transform="matrix(0 1 -1 0 0 0)"/>
  <path d="m 27.145704,16.832008 c -0.558253,1.938155 -0.866502,3.982362 -0.866502,6.100172 0,12.156419 9.852716,22.009136 22.009135,22.009136 12.15642,0 22.009137,-9.852717 22.009137,-22.009136 0,-2.11781 -0.308253,-4.162017 -0.866502,-6.100172 l -42.285268,0 z" fill="#ffffff" fill-opacity="1" stroke="none" inkscape:connector-curvature="0"/>
  <g fill="#ffffff" transform="matrix(0.63358 0 0 0.63358 17.877 20.936)">
   <path d="m 47.381232,84.942232 -5.873914,-51.602778 6.271826,-13.19513 6.713537,12.975964 z" fill-opacity="1" stroke="none" sodipodi:nodetypes="ccccc" inkscape:connector-curvature="0"/>
   <path d="m 48,78.178836 c -8.010027,0 -15.078101,3.965679 -19.375,10.043004 l 38.75,0 C 63.078101,82.144515 56.010027,78.178836 48,78.178836 z" fill-opacity="1" stroke="none" inkscape:connector-curvature="0"/>
  </g>
  <path d="m 27.873561,24.298324 c 0.09266,10.204423 9.19999,18.456482 20.414778,18.456482 11.214784,0 20.322117,-8.252059 20.414774,-18.456482 l -40.829552,0 z" fill="#d92026" fill-opacity="1" stroke="none" inkscape:connector-curvature="0"/>
 </g>
</svg>
