<svg height="96" width="96" xmlns="http://www.w3.org/2000/svg" xmlns:xlink="http://www.w3.org/1999/xlink" xmlns:sodipodi="http://sodipodi.sourceforge.net/DTD/sodipodi-0.dtd" xmlns:inkscape="http://www.inkscape.org/namespaces/inkscape">
 <defs>
  <clipPath clipPathUnits="userSpaceOnUse" id="clipPath3009">
   <path d="m-2 956.36h-96v33.562l96 25.687v-59.25z"/>
  </clipPath>
  <linearGradient x2="0" y1="90" y2="5.988" gradientUnits="userSpaceOnUse" id="linearGradient3422" gradientTransform="matrix(1 0 0 1 0 -0.363)">
   <stop stop-color="#656565"/>
   <stop stop-color="#c1c1c1" offset="1"/>
  </linearGradient>
  <clipPath id="clipPath2973-9">
   <use xlink:href="#SVGCleanerId_0"/>
  </clipPath>
  <linearGradient x2="0" y1="20.221" y2="138.66" gradientUnits="userSpaceOnUse" id="linearGradient5036">
   <stop stop-color="#fff"/>
   <stop stop-color="#fff" stop-opacity="0" offset="1"/>
  </linearGradient>
  <clipPath id="clipPath3613-7">
   <use xlink:href="#SVGCleanerId_0"/>
  </clipPath>
  <filter x="-0.192" y="-0.192" height="1.384" color-interpolation-filters="sRGB" id="filter3794-5" width="1.384">
   <feGaussianBlur stdDeviation="5.28"/>
  </filter>
  <clipPath clipPathUnits="userSpaceOnUse" id="clipPath3098">
   <rect x="7.75" rx="21.875" y="7.75" height="80.5" width="80.5"/>
  </clipPath>
  <linearGradient x1="-32.477" x2="-26.706" y1="10.728" y2="17.203" gradientUnits="userSpaceOnUse" id="linearGradient5615" gradientTransform="matrix(1 0 0 1 39.971 0)">
   <stop stop-color="#fff"/>
   <stop stop-opacity="0" offset="1"/>
  </linearGradient>
  <filter color-interpolation-filters="sRGB" id="filter4423">
   <feGaussianBlur stdDeviation="1.32449"/>
  </filter>
  <linearGradient x1="-100.23" x2="-42.572" xlink:href="#linearGradient5036" y1="40.06" y2="-41.784" gradientUnits="userSpaceOnUse" id="linearGradient5522"/>
  <linearGradient x1="-47.4" x2="-89.19" xlink:href="#linearGradient5036" gradientUnits="userSpaceOnUse" id="linearGradient5524"/>
  <rect x="6" rx="6" y="6" height="84" id="SVGCleanerId_0" width="84"/>
  <path d="m-79.241 7.6723v-56.783l49.176 28.392z" fill="none" id="SVGCleanerId_1" stroke-linecap="round" stroke-linejoin="round"/>
  <path d="m57.808-37.668v-39.852l32.234 19.926z" fill="none" id="SVGCleanerId_2" stroke-linecap="round" stroke-linejoin="round"/>
  <rect x="9.324" rx="1.468" y="13.12" fill="#1a1a1a" height="8.288" id="SVGCleanerId_3" width="8.288"/>
  <path d="m10.752 13.125c-0.81306 0-1.4687 0.65568-1.4687 1.4688v5.3438c0 0.6098 0.37914 1.1215 0.90625 1.3438v-6c0-0.81306 0.65568-1.4688 1.4688-1.4688h5.6875c-0.261-0.404-0.7-0.688-1.219-0.688h-5.375z" fill="url(#linearGradient5615)" id="SVGCleanerId_4"/>
 </defs>
 <g transform="matrix(1 0 0 1 0 -956.36)">
  <g clip-path="url(#clipPath3098)" transform="matrix(1.1429 0 0 1.1429 -6.857 949.51)">
   <rect x="6" rx="6" y="5.637" fill="url(#linearGradient3422)" height="84" width="84"/>
   <g clip-path="url(#clipPath2973-9)" fill="#acf" opacity="0.9">
    <path d="m48 48 24-56h16l-40 56z" opacity="0.15"/>
    <path d="m48 48 55.25 25.677-0.48 15.993-54.77-41.67z" opacity="0.15"/>
    <path d="m48 48-59.828 11.516-8.969-13.25 68.797 1.734z" opacity="0.15"/>
    <path d="m48 48-49.311-35.783 3.5359-15.604 45.775 51.387z" opacity="0.15"/>
    <path d="m48 48 17.519-62.073 30.436 12.714-47.955 49.359z" opacity="0.15"/>
    <path d="m48 48 61.64-19.001 5.85 32.461-67.49-13.46z" opacity="0.15"/>
    <path d="m48 48-31.246 56.42-26.723-19.331 57.969-37.089z" opacity="0.15"/>
    <path d="m48 48-62.812-14.651 11.304-30.988 51.508 45.639z" opacity="0.15"/>
    <path d="m48 48 45.81 45.403-3.692 9.027-42.118-54.43z" opacity="0.15"/>
    <path d="m48 48-2.9701 64.43-9.1685 3.31l12.138-67.74z" opacity="0.15"/>
    <path d="m48 48-44.859 46.343-9.0649-3.585 53.924-42.758z" opacity="0.15"/>
    <path d="m48 48-62.116 17.366-6.016-7.67 68.132-9.696z" opacity="0.15"/>
    <path d="m48 48-29.147-57.537 6.35-7.396 22.797 64.933z" opacity="0.15"/>
    <path d="m48 48 59.482-24.939 6.921 6.8641-66.403 18.074z" opacity="0.15"/>
    <path d="m48 48 40.187 45.793-6.897 14.437-33.29-60.23z" opacity="0.15"/>
    <path d="m48 48-35.958-49.184 8.152-13.767 27.806 62.951z" opacity="0.15"/>
   </g>
   <rect x="15" stroke-width="0.5" rx="12" y="15" clip-path="url(#clipPath3613-7)" fill="url(#linearGradient5036)" stroke="#fff" height="66" filter="url(#filter3794-5)" opacity="0.1" width="66" stroke-linecap="round"/>
  </g>
  <g transform="matrix(1 0 0 1 0 956.36)">
   <g transform="matrix(1 0 0 1 2 -1.5)">
    <g opacity="0.754" transform="matrix(1 0 0 1 0.716 0.734)">
     <use xlink:href="#SVGCleanerId_3"/>
     <use xlink:href="#SVGCleanerId_4"/>
    </g>
    <g opacity="0.754" transform="matrix(1 0 0 1 0.716 12.734)">
     <use xlink:href="#SVGCleanerId_3"/>
     <use xlink:href="#SVGCleanerId_4"/>
    </g>
    <g opacity="0.754" transform="matrix(1 0 0 1 0.716 24.734)">
     <use xlink:href="#SVGCleanerId_3"/>
     <use xlink:href="#SVGCleanerId_4"/>
    </g>
    <g opacity="0.754" transform="matrix(1 0 0 1 0.716 36.734)">
     <use xlink:href="#SVGCleanerId_3"/>
     <use xlink:href="#SVGCleanerId_4"/>
    </g>
    <g opacity="0.754" transform="matrix(1 0 0 1 0.716 48.734)">
     <use xlink:href="#SVGCleanerId_3"/>
     <use xlink:href="#SVGCleanerId_4"/>
    </g>
    <g opacity="0.754" transform="matrix(1 0 0 1 0.716 60.734)">
     <use xlink:href="#SVGCleanerId_3"/>
     <use xlink:href="#SVGCleanerId_4"/>
    </g>
   </g>
   <g transform="matrix(1 0 0 1 -28.854 101.4)">
    <use stroke-width="10.9" xlink:href="#SVGCleanerId_1" stroke="#1a1a1a" filter="url(#filter4423)" transform="matrix(0.65548 0 0 0.70183 126.84 -36.701)"/>
    <use stroke-width="10.9" xlink:href="#SVGCleanerId_1" stroke="#f60" transform="matrix(0.65548 0 0 0.70183 128.2 -38.4)"/>
    <use stroke-width="8.246" xlink:href="#SVGCleanerId_1" stroke="#c45105" transform="matrix(0.65548 0 0 0.70183 128.2 -38.4)"/>
    <use stroke-width="4.118" xlink:href="#SVGCleanerId_1" stroke="#983f03" transform="matrix(0.65548 0 0 0.70183 128.2 -38.4)"/>
    <use stroke-width="1.317" xlink:href="#SVGCleanerId_1" stroke="#8d3f0c" transform="matrix(0.65548 0 0 0.70183 128.2 -38.4)"/>
    <use stroke-width="10.9" xlink:href="#SVGCleanerId_1" stroke="url(#linearGradient5522)" transform="matrix(0.65548 0 0 0.70183 128.2 -38.4)"/>
    <use stroke-width="10.9" xlink:href="#SVGCleanerId_1" stroke="#1a1a1a" filter="url(#filter4423)" transform="matrix(0.65548 0 0 0.70183 108.39 -41.36)"/>
    <use stroke-width="7.393" xlink:href="#SVGCleanerId_2" stroke="#0054d4"/>
    <use stroke-width="5.6" xlink:href="#SVGCleanerId_2" stroke="#1a359c"/>
    <use stroke-width="3.4" xlink:href="#SVGCleanerId_2" stroke="#00237e"/>
    <use stroke-opacity="0.301" stroke-width="1.3" xlink:href="#SVGCleanerId_2" stroke="#00028f"/>
    <use stroke-width="10.9" xlink:href="#SVGCleanerId_1" stroke="url(#linearGradient5524)" opacity="0.46" transform="matrix(0.65548 0 0 0.70183 109.75 -43.05)"/>
   </g>
  </g>
  <rect x="-96" rx="25" y="958.36" clip-path="url(#clipPath3009)" fill="#fff" height="92" opacity="0.15" width="92" transform="matrix(1 0 0 1 98 0)"/>
 </g>
</svg>
