<?xml version="1.0" encoding="UTF-8" standalone="no"?>
<!-- Created with Inkscape (http://www.inkscape.org/) -->

<svg
   xmlns:dc="http://purl.org/dc/elements/1.1/"
   xmlns:cc="http://creativecommons.org/ns#"
   xmlns:rdf="http://www.w3.org/1999/02/22-rdf-syntax-ns#"
   xmlns:svg="http://www.w3.org/2000/svg"
   xmlns="http://www.w3.org/2000/svg"
   xmlns:sodipodi="http://sodipodi.sourceforge.net/DTD/sodipodi-0.dtd"
   xmlns:inkscape="http://www.inkscape.org/namespaces/inkscape"
   id="svg11037"
   height="96"
   width="96"
   version="1.1"
   inkscape:version="0.48.5 r10040"
   sodipodi:docname="wireshark.svg">
  <sodipodi:namedview
     pagecolor="#ffffff"
     bordercolor="#666666"
     borderopacity="1"
     objecttolerance="10"
     gridtolerance="10"
     guidetolerance="10"
     inkscape:pageopacity="0"
     inkscape:pageshadow="2"
     inkscape:window-width="640"
     inkscape:window-height="480"
     id="namedview32536" />
  <defs
     id="defs11039">
    <linearGradient
       id="linearGradient11642"
       y2="1046.1"
       gradientUnits="userSpaceOnUse"
       y1="962.62"
       gradientTransform="matrix(1.15 0 0 1.15 -7.1999 -150.65)"
       x2="48"
       x1="48">
      <stop
         id="stop3702"
         style="stop-color:#146d96;stop-opacity:.97255"
         offset="0" />
      <stop
         id="stop3704"
         style="stop-color:#3cade2;stop-opacity:.99608"
         offset="1" />
    </linearGradient>
    <linearGradient
       id="linearGradient3672"
       y2="22.993"
       gradientUnits="userSpaceOnUse"
       x2="46.796"
       y1="71.448"
       x1="46.796">
      <stop
         id="stop3668"
         style="stop-color:#115575"
         offset="0" />
      <stop
         id="stop3670"
         style="stop-color:#197ba9"
         offset="1" />
    </linearGradient>
    <clipPath
       id="clipPath3009"
       clipPathUnits="userSpaceOnUse">
      <path
         id="path3011"
         style="opacity:.15;fill:#fff"
         d="m-2 956.36h-96v33.562l96 25.687v-59.25z" />
    </clipPath>
  </defs>
  <metadata
     id="metadata11042">
    <rdf:RDF>
      <cc:Work
         rdf:about="">
        <dc:format>image/svg+xml</dc:format>
        <dc:type
           rdf:resource="http://purl.org/dc/dcmitype/StillImage" />
        <dc:title />
      </cc:Work>
    </rdf:RDF>
  </metadata>
  <g
     id="layer1"
     transform="translate(0 -956.36)">
    <rect
       id="rect3867"
       style="fill:url(#linearGradient11642)"
       rx="25"
       ry="25"
       height="92"
       width="92"
       y="958.36"
       x="2" />
    <g
       id="g3059"
       transform="translate(0 956.36)">
      <path
         id="path3660"
         d="m65.781 24c-19.318 1.441-29.489 12.984-34.219 23.812-3.632 8.317-4.193 14.897-4.343 18.188h-21.219v6h24a3.0003 3.0003 0 0 0 3 -3.0312s-0.08281-9.259 4.0625-18.75c3.717-8.509 10.464-16.944 24.188-19.531-8.051 20.962 2.125 39.781 2.125 39.781a3.0003 3.0003 0 0 0 2.625 1.531h24v-6h-22.062c-1.8-3.703-8.678-19.855 0.718-37.594a3.0003 3.0003 0 0 0 -2.875 -4.406z"
         style="block-progression:tb;text-indent:0;color:#000000;text-transform:none;fill:url(#linearGradient3672)" />
      <path
         id="path3696"
         d="m65.781 24c-19.318 1.441-29.489 12.984-34.219 23.812-3.632 8.317-4.193 14.897-4.343 18.188h-21.219v2h7v0.0625h14.219a2.062 2.062 0 0 0 2.0625 -1.9688c0.14486-3.1818 0.6524-9.4464 4.1562-17.469 4.5106-10.327 13.942-21.179 32.5-22.562 0.22484-0.01722-0.10013-0.01289 0.125 0s-0.09641-0.04277 0.125 0-0.08874-0.04064 0.125 0.03125-0.07725-0.03723 0.125 0.0625-0.09341-0.06329 0.09375 0.0625-0.07498-0.08711 0.09375 0.0625c0.16873 0.1496-0.05354-0.077 0.09375 0.09375s-0.06073-0.09511 0.0625 0.09375-0.03446-0.07859 0.0625 0.125-0.0065-0.0897 0.0625 0.125c0.06897 0.2147-0.0085-0.12822 0.03125 0.09375s-0.0098-0.10029 0 0.125 0.02029-0.09959 0 0.125 0.05003-0.09488 0 0.125 0.01638-0.08626-0.0625 0.125 0.07508-0.07386-0.03125 0.125c-9.8335 18.564-2.6763 35.504-0.75 39.469a2.062 2.062 0 0 0 1.845 1.157h15.062v-0.062h7v-2h-22.062c-1.8-3.703-8.678-19.855 0.718-37.594a3.0003 3.0003 0 0 0 -2.875 -4.406zm-4.625 4.625a2.062 2.062 0 0 0 -0.281 0.031c-14.405 2.716-21.805 11.861-25.687 20.75-4.347 9.951-4.25 19.594-4.25 19.594 0.0017 0.16673 0.01474-0.07234 0 0.09375s0.03105-0.07007 0 0.09375 0.01581-0.09746-0.03125 0.0625 0.03136-0.06079-0.03125 0.09375 0.0463-0.05386-0.03125 0.09375 0.02924-0.04548-0.0625 0.09375c-0.09174 0.13924 0.04253-0.067-0.0625 0.0625s0.05479-0.05601-0.0625 0.0625 0.06591-0.04386-0.0625 0.0625 0.07578-0.03068-0.0625 0.0625 0.05304-0.04783-0.09375 0.03125c-0.0367 0.01977-0.06178 0.0267-0.0625 0.03125 0.005 0.0055 0.01923 0.02322 0 0.03125-0.15388 0.06421 0.06571-0.01747-0.09375 0.03125s0.06974-0.03275-0.09375 0 0.07218 0.01479-0.09375 0.03125c-0.16592 0.01646 0.07299-0.000008-0.09375 0h-17v0.0625h-7v2h24a3.0003 3.0003 0 0 0 3 -3.0312s-0.08281-9.259 4.0625-18.75c3.717-8.509 10.464-16.944 24.188-19.531-8.051 20.962 2.125 39.781 2.125 39.781a3.0003 3.0003 0 0 0 2.625 1.531h24v-2h-7v-0.0625h-17c-0.22402 0.000668 0.09714 0.02899-0.125 0s0.09134 0.02689-0.125-0.03125 0.08174 0.05502-0.125-0.03125 0.09976 0.05038-0.09375-0.0625c-0.1935-0.11288 0.05186 0.075-0.125-0.0625s0.06335 0.06595-0.09375-0.09375 0.07208 0.08534-0.0625-0.09375c-0.10352-0.13776-0.05519-0.04003-0.0625-0.0625 0 0 0.000083-0.0311 0-0.03125-0.0399-0.07424-9.6786-18.038-2-38.031a2.062 2.062 0 0 0 -2.032 -2.813z"
         style="opacity:.15;block-progression:tb;text-indent:0;color:#000000;text-transform:none;fill:#124964" />
      <path
         id="path3674"
         d="m68.969 27.562a3.0003 3.0003 0 0 1 -0.3125 0.84375c-3.6637 6.9163-4.8627 13.585-4.8438 19.375 0.11677-5.5517 1.3902-11.855 4.8438-18.375a3.0003 3.0003 0 0 0 0.3125 -1.8438zm-7.719 3.126c-13.724 2.587-20.471 11.022-24.188 19.531-4.145 9.491-4.062 18.75-4.062 18.75a3.0003 3.0003 0 0 1 -3 3.031h-24v1h24a3.0003 3.0003 0 0 0 3 -3.0312s-0.08281-9.259 4.0625-18.75c3.6813-8.4287 10.348-16.766 23.812-19.438 0.1287-0.36184 0.2355-0.73054 0.375-1.0938zm-3.094 17.312c-0.167 13.504 5.219 23.469 5.219 23.469a3.0003 3.0003 0 0 0 2.625 1.531h24v-1h-24a3.0003 3.0003 0 0 1 -2.625 -1.5312s-5.118-9.4781-5.2188-22.469z"
         style="opacity:.3;block-progression:tb;text-indent:0;color:#000000;text-transform:none;fill:#fff" />
      <path
         id="path3683"
         d="m65.781 24c-19.318 1.441-29.489 12.984-34.219 23.812-3.632 8.317-4.193 14.897-4.343 18.188h-21.219v1h21.219c0.15-3.291 0.711-9.871 4.343-18.188 4.73-10.828 14.901-22.371 34.219-23.812a3.0003 3.0003 0 0 1 3.1875 2.5312 3.0003 3.0003 0 0 0 -3.187 -3.531zm-4.531 7.688c-0.12935 0.02439-0.24688 0.06833-0.375 0.09375-2.029 5.704-2.758 11.216-2.719 16.218 0.063-5.054 0.901-10.604 3.094-16.312zm2.5625 16.094c-0.2 9.553 2.988 16.876 4.126 19.218h22.062v-1h-22.062c-1.0977-2.2593-4.0954-9.1589-4.125-18.219z"
         style="opacity:.3;block-progression:tb;text-indent:0;color:#000000;text-transform:none" />
      <path
         id="path3692"
         d="m65.781 24c-11.514 0.673-22.872 6.183-29.593 15.719-5.454 7.631-8.503 16.933-8.969 26.281h-21.219v1h1 6c4.8377 0.01024 9.6717 0.01819 14.5-0.0625 1.3686-0.7151 0.4644-2.6891 0.90625-3.9062 1.5403-13.013 8.0726-26.212 19.781-32.875 5.3675-3.1189 11.491-4.738 17.656-5.1875 1.7546-0.19229 2.8676 2.0819 1.7188 3.4062-6.2291 11.75-6.2287 26.445-0.34375 38.312 1.084 0.72159 2.5769 0.11779 3.8125 0.3125l11.97 0.002h6 1v-1h-22.062c-5.6684-11.83-5.5188-26.345 0.84375-37.875 0.89276-1.977-0.84208-4.3616-3-4.125zm-4.781 5.719c-0.655 0.007-1.428 0.254-1.875 0.406-9.59 2.056-17.857 8.819-22.031 17.656-3.432 6.798-4.866 14.429-5.219 21.969-0.875 1.956-3.304 1.042-4.969 1.25h-13.906-6-1v1c8.1974-0.03998 16.403 0.07724 24.594-0.0625 2.5583-0.44822 2.5365-3.3957 2.5-5.4062 0.945-11.465 5.338-23.57 15.031-30.469 3.892-2.763 8.45-4.503 13.125-5.374-4.957 12.865-3.808 27.759 2.281 40.031 1.493 2.007 4.224 1.059 6.344 1.281h20.125v-1h-1c-1.997-0.011-4.002-0.004-6 0-5.85 0.011-11.696 0.047-17.531-0.062-1.835-0.616-1.97-3.043-2.813-4.532-4.387-11.321-4.834-24.269-0.437-35.656-0.028-0.808-0.564-1.039-1.219-1.031z"
         style="opacity:.4;block-progression:tb;text-indent:0;color:#000000;text-transform:none;fill:#124964" />
    </g>
    <rect
       id="rect3003"
       style="opacity:.15;fill:#fff"
       transform="translate(98 3.8281e-7)"
       clip-path="url(#clipPath3009)"
       rx="25"
       ry="25"
       height="92"
       width="92"
       y="958.36"
       x="-96" />
  </g>
</svg>
