<?xml version="1.0" encoding="UTF-8" standalone="no"?>
<!-- Created with Inkscape (http://www.inkscape.org/) -->

<svg
   xmlns:dc="http://purl.org/dc/elements/1.1/"
   xmlns:cc="http://creativecommons.org/ns#"
   xmlns:rdf="http://www.w3.org/1999/02/22-rdf-syntax-ns#"
   xmlns:svg="http://www.w3.org/2000/svg"
   xmlns="http://www.w3.org/2000/svg"
   xmlns:sodipodi="http://sodipodi.sourceforge.net/DTD/sodipodi-0.dtd"
   xmlns:inkscape="http://www.inkscape.org/namespaces/inkscape"
   id="svg11037"
   height="96"
   width="96"
   version="1.1"
   inkscape:version="0.48.5 r10040"
   sodipodi:docname="wmaker-meterbridge.svg">
  <sodipodi:namedview
     pagecolor="#ffffff"
     bordercolor="#666666"
     borderopacity="1"
     objecttolerance="10"
     gridtolerance="10"
     guidetolerance="10"
     inkscape:pageopacity="0"
     inkscape:pageshadow="2"
     inkscape:window-width="640"
     inkscape:window-height="480"
     id="namedview71158" />
  <defs
     id="defs11039">
    <clipPath
       id="clipPath3009"
       clipPathUnits="userSpaceOnUse">
      <path
         id="path3011"
         style="opacity:.15;fill:#fff"
         d="m-2 956.36h-96v33.562l96 25.687v-59.25z" />
    </clipPath>
    <linearGradient
       id="linearGradient3810"
       y2="30.797"
       gradientUnits="userSpaceOnUse"
       x2="9.283"
       gradientTransform="matrix(16.75 0 0 -16.75 2689.9 -277.29)"
       y1="54.566"
       x1="9.283">
      <stop
         id="stop3718-1"
         style="stop-color:#c83771"
         offset="0" />
      <stop
         id="stop3720-3"
         style="stop-color:#c83771;stop-opacity:0"
         offset="1" />
    </linearGradient>
    <linearGradient
       id="linearGradient3812"
       y2="40.422"
       gradientUnits="userSpaceOnUse"
       x2="16.536"
       gradientTransform="matrix(16.75 0 0 -16.75 2689.9 -277.29)"
       y1="62.395"
       x1="16.536">
      <stop
         id="stop3726-2"
         style="stop-color:#d35fbc"
         offset="0" />
      <stop
         id="stop3728-9"
         style="stop-color:#d35fbc;stop-opacity:0"
         offset="1" />
    </linearGradient>
    <linearGradient
       id="linearGradient3814"
       y2="32.08"
       gradientUnits="userSpaceOnUse"
       x2="22.525"
       gradientTransform="matrix(16.75 0 0 -16.75 2689.9 -277.29)"
       y1="66.206"
       x1="22.525">
      <stop
         id="stop3734-1"
         style="stop-color:#8d5fd3"
         offset="0" />
      <stop
         id="stop3736-7"
         style="stop-color:#8d5fd3;stop-opacity:0"
         offset="1" />
    </linearGradient>
    <linearGradient
       id="linearGradient3816"
       y2="23.204"
       gradientUnits="userSpaceOnUse"
       x2="29.778"
       gradientTransform="matrix(16.75 0 0 -16.75 2689.9 -277.29)"
       y1="54.061"
       x1="29.778">
      <stop
         id="stop3742-7"
         style="stop-color:#59f"
         offset="0" />
      <stop
         id="stop3744-5"
         style="stop-color:#59f;stop-opacity:0"
         offset="1" />
    </linearGradient>
    <linearGradient
       id="linearGradient3818"
       y2="46.717"
       gradientUnits="userSpaceOnUse"
       x2="37.03"
       gradientTransform="matrix(16.75 0 0 -16.75 2689.9 -277.29)"
       y1="68.961"
       x1="37.03">
      <stop
         id="stop3751-1"
         style="stop-color:#37abc8"
         offset="0" />
      <stop
         id="stop3753-8-3"
         style="stop-color:#37abc8;stop-opacity:0"
         offset="1" />
    </linearGradient>
    <linearGradient
       id="linearGradient3820"
       y2="37.392"
       gradientUnits="userSpaceOnUse"
       x2="44.283"
       gradientTransform="matrix(16.75 0 0 -16.75 2689.9 -277.29)"
       y1="64.162"
       x1="44.283">
      <stop
         id="stop3759-8-8"
         style="stop-color:#70e4cd"
         offset="0" />
      <stop
         id="stop3761-7-5"
         style="stop-color:#70e4cd;stop-opacity:0"
         offset="1" />
    </linearGradient>
    <linearGradient
       id="linearGradient3822"
       y2="12.37"
       gradientUnits="userSpaceOnUse"
       x2="51.283"
       gradientTransform="matrix(16.75 0 0 -16.75 2689.9 -277.29)"
       y1="60.879"
       x1="51.283">
      <stop
         id="stop3767-7"
         style="stop-color:#53df53"
         offset="0" />
      <stop
         id="stop3769-4"
         style="stop-color:#53df53;stop-opacity:0"
         offset="1" />
    </linearGradient>
    <linearGradient
       id="linearGradient3824"
       y2="27.465"
       gradientUnits="userSpaceOnUse"
       x2="57.525"
       gradientTransform="matrix(16.75 0 0 -16.75 2689.9 -277.29)"
       y1="65.678"
       x1="57.525">
      <stop
         id="stop3775-4"
         style="stop-color:#aad400"
         offset="0" />
      <stop
         id="stop3777-6"
         style="stop-color:#aad400;stop-opacity:0"
         offset="1" />
    </linearGradient>
    <linearGradient
       id="linearGradient3826"
       y2="35.095"
       gradientUnits="userSpaceOnUse"
       x2="64.778"
       gradientTransform="matrix(16.75 0 0 -16.75 2689.9 -277.29)"
       y1="63.91"
       x1="64.778">
      <stop
         id="stop3783-1"
         style="stop-color:#ffd42a"
         offset="0" />
      <stop
         id="stop3785-5"
         style="stop-color:#ffd42a;stop-opacity:0"
         offset="1" />
    </linearGradient>
    <linearGradient
       id="linearGradient3828"
       y2="18.954"
       gradientUnits="userSpaceOnUse"
       x2="72.788"
       gradientTransform="matrix(16.75 0 0 -16.75 2689.9 -277.29)"
       y1="60.122"
       x1="72.788">
      <stop
         id="stop3791-4"
         style="stop-color:#ff992a"
         offset="0" />
      <stop
         id="stop3793-5"
         style="stop-color:#ff992a;stop-opacity:0"
         offset="1" />
    </linearGradient>
    <linearGradient
       id="linearGradient3830"
       y2="40.421"
       gradientUnits="userSpaceOnUse"
       x2="78.273"
       gradientTransform="matrix(16.75 0 0 -16.75 2689.9 -277.29)"
       y1="58.354"
       x1="78.273">
      <stop
         id="stop3799-2"
         style="stop-color:#f60"
         offset="0" />
      <stop
         id="stop3801-9"
         style="stop-color:#f60;stop-opacity:0"
         offset="1" />
    </linearGradient>
    <linearGradient
       id="linearGradient3832"
       y2="34.361"
       gradientUnits="userSpaceOnUse"
       x2="85.525"
       gradientTransform="matrix(16.75 0 0 -16.75 2689.9 -277.29)"
       y1="60.879"
       x1="85.525">
      <stop
         id="stop3807-5"
         style="stop-color:#d40000"
         offset="0" />
      <stop
         id="stop3809-7"
         style="stop-color:#d40000;stop-opacity:0"
         offset="1" />
    </linearGradient>
  </defs>
  <metadata
     id="metadata11042">
    <rdf:RDF>
      <cc:Work
         rdf:about="">
        <dc:format>image/svg+xml</dc:format>
        <dc:type
           rdf:resource="http://purl.org/dc/dcmitype/StillImage" />
        <dc:title />
      </cc:Work>
    </rdf:RDF>
  </metadata>
  <g
     id="layer1"
     transform="translate(0 -956.36)">
    <rect
       id="rect3867"
       style="fill:#1a1a1a"
       rx="25"
       ry="25"
       height="92"
       width="92"
       y="958.36"
       x="2" />
    <rect
       id="rect3003"
       style="opacity:.15;fill:#fff"
       transform="translate(98)"
       clip-path="url(#clipPath3009)"
       rx="25"
       ry="25"
       height="92"
       width="92"
       y="958.36"
       x="-96" />
    <g
       id="g11119"
       transform="matrix(-.046755 0 0 -.046298 211.47 954.89)">
      <path
         id="path11121"
         style="fill:url(#linearGradient3810)"
         d="m2807.2-377.79c-9.2793 0-16.75-7.4704-16.75-16.75v-33.499c0-9.2793 7.4703-16.75 16.75-16.75h66.998c9.2793 0 16.75 7.4703 16.75 16.75v33.499c0 9.2793-7.4703 16.75-16.75 16.75h-66.998zm0-83.748c-9.2793 0-16.75-7.4704-16.75-16.75v-33.499c0-9.2793 7.4703-16.75 16.75-16.75h66.998c9.2793 0 16.75 7.4703 16.75 16.75v33.499c0 9.2793-7.4703 16.75-16.75 16.75h-66.998zm0-83.748c-9.2793 0-16.75-7.4704-16.75-16.75v-33.499c0-9.2793 7.4703-16.75 16.75-16.75h66.998c9.2793 0 16.75 7.4703 16.75 16.75v33.499c0 9.2793-7.4703 16.75-16.75 16.75h-66.998zm0-83.748c-9.2793 0-16.75-7.4703-16.75-16.75v-33.499c0-9.2793 7.4703-16.75 16.75-16.75h66.998c9.2793 0 16.75 7.4703 16.75 16.75v33.499c0 9.2793-7.4703 16.75-16.75 16.75h-66.998zm0-83.748c-9.2793 0-16.75-7.4703-16.75-16.75v-33.499c0-9.2793 7.4703-16.75 16.75-16.75h66.998c9.2793 0 16.75 7.4703 16.75 16.75v33.499c0 9.2793-7.4703 16.75-16.75 16.75h-66.998zm0-83.748c-9.2793 0-16.75-7.4703-16.75-16.75v-33.499c0-9.2793 7.4703-16.75 16.75-16.75h66.998c9.2793 0 16.75 7.4703 16.75 16.75v33.499c0 9.2793-7.4703 16.75-16.75 16.75h-66.998zm0-83.748c-9.2793 0-16.75-7.4703-16.75-16.75v-33.499c0-9.2793 7.4703-16.75 16.75-16.75h66.998c9.2793 0 16.75 7.4703 16.75 16.75v33.499c0 9.2793-7.4703 16.75-16.75 16.75h-66.998zm0-83.748c-9.2793 0-16.75-7.4703-16.75-16.75v-33.499c0-9.2793 7.4703-16.75 16.75-16.75h66.998c9.2793 0 16.75 7.4703 16.75 16.75v33.499c0 9.2793-7.4703 16.75-16.75 16.75h-66.998zm0-83.748c-9.2793 0-16.75-7.4703-16.75-16.75v-33.499c0-9.2793 7.4703-16.75 16.75-16.75h66.998c9.2793 0 16.75 7.4703 16.75 16.75v33.499c0 9.2793-7.4703 16.75-16.75 16.75h-66.998zm0-83.748c-9.2793 0-16.75-7.4703-16.75-16.75v-33.499c0-9.2793 7.4703-16.75 16.75-16.75h66.998c9.2793 0 16.75 7.4704 16.75 16.75v33.499c0 9.2793-7.4703 16.75-16.75 16.75h-66.998zm0-83.748c-9.2793 0-16.75-7.4703-16.75-16.75v-33.499c0-9.2793 7.4703-16.75 16.75-16.75h66.998c9.2793 0 16.75 7.4704 16.75 16.75v33.499c0 9.2793-7.4703 16.75-16.75 16.75h-66.998zm0-83.748c-9.2793 0-16.75-7.4703-16.75-16.75v-33.499c0-9.2793 7.4703-16.75 16.75-16.75h66.998c9.2793 0 16.75 7.4704 16.75 16.75v33.499c0 9.2793-7.4703 16.75-16.75 16.75h-66.998zm0-83.748c-9.2793 0-16.75-7.4703-16.75-16.75v-33.499c0-9.2793 7.4703-16.75 16.75-16.75h66.998c9.2793 0 16.75 7.4704 16.75 16.75v33.499c0 9.2793-7.4703 16.75-16.75 16.75h-66.998zm0-83.748c-9.2793 0-16.75-7.4703-16.75-16.75v-33.499c0-9.2793 7.4703-16.75 16.75-16.75h66.998c9.2793 0 16.75 7.4704 16.75 16.75v33.499c0 9.2793-7.4703 16.75-16.75 16.75h-66.998zm0-83.748c-9.2793 0-16.75-7.4703-16.75-16.75v-33.499c0-9.2792 7.4703-16.75 16.75-16.75h66.998c9.2793 0 16.75 7.4704 16.75 16.75v33.499c0 9.2793-7.4703 16.75-16.75 16.75h-66.998zm0-83.748c-9.2793 0-16.75-7.4703-16.75-16.75v-33.499c0-9.2792 7.4703-16.75 16.75-16.75h66.998c9.2793 0 16.75 7.4704 16.75 16.75v33.499c0 9.2793-7.4703 16.75-16.75 16.75h-66.998zm0-83.748c-9.2793 0-16.75-7.4703-16.75-16.75v-33.499c0-9.2793 7.4703-16.75 16.75-16.75h66.998c9.2793 0 16.75 7.4703 16.75 16.75v33.499c0 9.2793-7.4703 16.75-16.75 16.75h-66.998z" />
      <path
         id="path11123"
         style="fill:url(#linearGradient3812)"
         d="m2924.4-377.79c-9.2793 0-16.75-7.4704-16.75-16.75v-33.499c0-9.2793 7.4703-16.75 16.75-16.75h66.998c9.2793 0 16.75 7.4703 16.75 16.75v33.499c0 9.2793-7.4703 16.75-16.75 16.75h-66.998zm0-83.748c-9.2793 0-16.75-7.4704-16.75-16.75v-33.499c0-9.2793 7.4703-16.75 16.75-16.75h66.998c9.2793 0 16.75 7.4703 16.75 16.75v33.499c0 9.2793-7.4703 16.75-16.75 16.75h-66.998zm0-83.748c-9.2793 0-16.75-7.4704-16.75-16.75v-33.499c0-9.2793 7.4703-16.75 16.75-16.75h66.998c9.2793 0 16.75 7.4703 16.75 16.75v33.499c0 9.2793-7.4703 16.75-16.75 16.75h-66.998zm0-83.748c-9.2793 0-16.75-7.4703-16.75-16.75v-33.499c0-9.2793 7.4703-16.75 16.75-16.75h66.998c9.2793 0 16.75 7.4703 16.75 16.75v33.499c0 9.2793-7.4703 16.75-16.75 16.75h-66.998zm0-83.748c-9.2793 0-16.75-7.4703-16.75-16.75v-33.499c0-9.2793 7.4703-16.75 16.75-16.75h66.998c9.2793 0 16.75 7.4703 16.75 16.75v33.499c0 9.2793-7.4703 16.75-16.75 16.75h-66.998zm0-83.748c-9.2793 0-16.75-7.4703-16.75-16.75v-33.499c0-9.2793 7.4703-16.75 16.75-16.75h66.998c9.2793 0 16.75 7.4703 16.75 16.75v33.499c0 9.2793-7.4703 16.75-16.75 16.75h-66.998zm0-83.748c-9.2793 0-16.75-7.4703-16.75-16.75v-33.499c0-9.2793 7.4703-16.75 16.75-16.75h66.998c9.2793 0 16.75 7.4703 16.75 16.75v33.499c0 9.2793-7.4703 16.75-16.75 16.75h-66.998zm0-83.748c-9.2793 0-16.75-7.4703-16.75-16.75v-33.499c0-9.2793 7.4703-16.75 16.75-16.75h66.998c9.2793 0 16.75 7.4703 16.75 16.75v33.499c0 9.2793-7.4703 16.75-16.75 16.75h-66.998zm0-83.748c-9.2793 0-16.75-7.4703-16.75-16.75v-33.499c0-9.2793 7.4703-16.75 16.75-16.75h66.998c9.2793 0 16.75 7.4703 16.75 16.75v33.499c0 9.2793-7.4703 16.75-16.75 16.75h-66.998zm0-83.748c-9.2793 0-16.75-7.4703-16.75-16.75v-33.499c0-9.2793 7.4703-16.75 16.75-16.75h66.998c9.2793 0 16.75 7.4704 16.75 16.75v33.499c0 9.2793-7.4703 16.75-16.75 16.75h-66.998zm0-83.748c-9.2793 0-16.75-7.4703-16.75-16.75v-33.499c0-9.2793 7.4703-16.75 16.75-16.75h66.998c9.2793 0 16.75 7.4704 16.75 16.75v33.499c0 9.2793-7.4703 16.75-16.75 16.75h-66.998zm0-83.748c-9.2793 0-16.75-7.4703-16.75-16.75v-33.499c0-9.2793 7.4703-16.75 16.75-16.75h66.998c9.2793 0 16.75 7.4704 16.75 16.75v33.499c0 9.2793-7.4703 16.75-16.75 16.75h-66.998zm0-83.748c-9.2793 0-16.75-7.4703-16.75-16.75v-33.499c0-9.2793 7.4703-16.75 16.75-16.75h66.998c9.2793 0 16.75 7.4704 16.75 16.75v33.499c0 9.2793-7.4703 16.75-16.75 16.75h-66.998zm0-83.748c-9.2793 0-16.75-7.4703-16.75-16.75v-33.499c0-9.2793 7.4703-16.75 16.75-16.75h66.998c9.2793 0 16.75 7.4704 16.75 16.75v33.499c0 9.2793-7.4703 16.75-16.75 16.75h-66.998zm0-83.748c-9.2793 0-16.75-7.4703-16.75-16.75v-33.499c0-9.2792 7.4703-16.75 16.75-16.75h66.998c9.2793 0 16.75 7.4704 16.75 16.75v33.499c0 9.2793-7.4703 16.75-16.75 16.75h-66.998zm0-83.748c-9.2793 0-16.75-7.4703-16.75-16.75v-33.499c0-9.2792 7.4703-16.75 16.75-16.75h66.998c9.2793 0 16.75 7.4704 16.75 16.75v33.499c0 9.2793-7.4703 16.75-16.75 16.75h-66.998zm0-83.748c-9.2793 0-16.75-7.4703-16.75-16.75v-33.499c0-9.2793 7.4703-16.75 16.75-16.75h66.998c9.2793 0 16.75 7.4703 16.75 16.75v33.499c0 9.2793-7.4703 16.75-16.75 16.75h-66.998z" />
      <path
         id="path11125"
         style="fill:url(#linearGradient3814)"
         d="m3041.6-377.79c-9.2793 0-16.75-7.4704-16.75-16.75v-33.499c0-9.2793 7.4703-16.75 16.75-16.75h66.998c9.2793 0 16.75 7.4703 16.75 16.75v33.499c0 9.2793-7.4703 16.75-16.75 16.75h-66.998zm0-83.748c-9.2793 0-16.75-7.4704-16.75-16.75v-33.499c0-9.2793 7.4703-16.75 16.75-16.75h66.998c9.2793 0 16.75 7.4703 16.75 16.75v33.499c0 9.2793-7.4703 16.75-16.75 16.75h-66.998zm0-83.748c-9.2793 0-16.75-7.4704-16.75-16.75v-33.499c0-9.2793 7.4703-16.75 16.75-16.75h66.998c9.2793 0 16.75 7.4703 16.75 16.75v33.499c0 9.2793-7.4703 16.75-16.75 16.75h-66.998zm0-83.748c-9.2793 0-16.75-7.4703-16.75-16.75v-33.499c0-9.2793 7.4703-16.75 16.75-16.75h66.998c9.2793 0 16.75 7.4703 16.75 16.75v33.499c0 9.2793-7.4703 16.75-16.75 16.75h-66.998zm0-83.748c-9.2793 0-16.75-7.4703-16.75-16.75v-33.499c0-9.2793 7.4703-16.75 16.75-16.75h66.998c9.2793 0 16.75 7.4703 16.75 16.75v33.499c0 9.2793-7.4703 16.75-16.75 16.75h-66.998zm0-83.748c-9.2793 0-16.75-7.4703-16.75-16.75v-33.499c0-9.2793 7.4703-16.75 16.75-16.75h66.998c9.2793 0 16.75 7.4703 16.75 16.75v33.499c0 9.2793-7.4703 16.75-16.75 16.75h-66.998zm0-83.748c-9.2793 0-16.75-7.4703-16.75-16.75v-33.499c0-9.2793 7.4703-16.75 16.75-16.75h66.998c9.2793 0 16.75 7.4703 16.75 16.75v33.499c0 9.2793-7.4703 16.75-16.75 16.75h-66.998zm0-83.748c-9.2793 0-16.75-7.4703-16.75-16.75v-33.499c0-9.2793 7.4703-16.75 16.75-16.75h66.998c9.2793 0 16.75 7.4703 16.75 16.75v33.499c0 9.2793-7.4703 16.75-16.75 16.75h-66.998zm0-83.748c-9.2793 0-16.75-7.4703-16.75-16.75v-33.499c0-9.2793 7.4703-16.75 16.75-16.75h66.998c9.2793 0 16.75 7.4703 16.75 16.75v33.499c0 9.2793-7.4703 16.75-16.75 16.75h-66.998zm0-83.748c-9.2793 0-16.75-7.4703-16.75-16.75v-33.499c0-9.2793 7.4703-16.75 16.75-16.75h66.998c9.2793 0 16.75 7.4704 16.75 16.75v33.499c0 9.2793-7.4703 16.75-16.75 16.75h-66.998zm0-83.748c-9.2793 0-16.75-7.4703-16.75-16.75v-33.499c0-9.2793 7.4703-16.75 16.75-16.75h66.998c9.2793 0 16.75 7.4704 16.75 16.75v33.499c0 9.2793-7.4703 16.75-16.75 16.75h-66.998zm0-83.748c-9.2793 0-16.75-7.4703-16.75-16.75v-33.499c0-9.2793 7.4703-16.75 16.75-16.75h66.998c9.2793 0 16.75 7.4704 16.75 16.75v33.499c0 9.2793-7.4703 16.75-16.75 16.75h-66.998zm0-83.748c-9.2793 0-16.75-7.4703-16.75-16.75v-33.499c0-9.2793 7.4703-16.75 16.75-16.75h66.998c9.2793 0 16.75 7.4704 16.75 16.75v33.499c0 9.2793-7.4703 16.75-16.75 16.75h-66.998zm0-83.748c-9.2793 0-16.75-7.4703-16.75-16.75v-33.499c0-9.2793 7.4703-16.75 16.75-16.75h66.998c9.2793 0 16.75 7.4704 16.75 16.75v33.499c0 9.2793-7.4703 16.75-16.75 16.75h-66.998zm0-83.748c-9.2793 0-16.75-7.4703-16.75-16.75v-33.499c0-9.2792 7.4703-16.75 16.75-16.75h66.998c9.2793 0 16.75 7.4704 16.75 16.75v33.499c0 9.2793-7.4703 16.75-16.75 16.75h-66.998zm0-83.748c-9.2793 0-16.75-7.4703-16.75-16.75v-33.499c0-9.2792 7.4703-16.75 16.75-16.75h66.998c9.2793 0 16.75 7.4704 16.75 16.75v33.499c0 9.2793-7.4703 16.75-16.75 16.75h-66.998zm0-83.748c-9.2793 0-16.75-7.4703-16.75-16.75v-33.499c0-9.2793 7.4703-16.75 16.75-16.75h66.998c9.2793 0 16.75 7.4703 16.75 16.75v33.499c0 9.2793-7.4703 16.75-16.75 16.75h-66.998z" />
      <path
         id="path11127"
         style="fill:url(#linearGradient3816)"
         d="m3158.9-377.79c-9.2793 0-16.75-7.4704-16.75-16.75v-33.499c0-9.2793 7.4703-16.75 16.75-16.75h66.998c9.2793 0 16.75 7.4703 16.75 16.75v33.499c0 9.2793-7.4703 16.75-16.75 16.75h-66.998zm0-83.748c-9.2793 0-16.75-7.4704-16.75-16.75v-33.499c0-9.2793 7.4703-16.75 16.75-16.75h66.998c9.2793 0 16.75 7.4703 16.75 16.75v33.499c0 9.2793-7.4703 16.75-16.75 16.75h-66.998zm0-83.748c-9.2793 0-16.75-7.4704-16.75-16.75v-33.499c0-9.2793 7.4703-16.75 16.75-16.75h66.998c9.2793 0 16.75 7.4703 16.75 16.75v33.499c0 9.2793-7.4703 16.75-16.75 16.75h-66.998zm0-83.748c-9.2793 0-16.75-7.4703-16.75-16.75v-33.499c0-9.2793 7.4703-16.75 16.75-16.75h66.998c9.2793 0 16.75 7.4703 16.75 16.75v33.499c0 9.2793-7.4703 16.75-16.75 16.75h-66.998zm0-83.748c-9.2793 0-16.75-7.4703-16.75-16.75v-33.499c0-9.2793 7.4703-16.75 16.75-16.75h66.998c9.2793 0 16.75 7.4703 16.75 16.75v33.499c0 9.2793-7.4703 16.75-16.75 16.75h-66.998zm0-83.748c-9.2793 0-16.75-7.4703-16.75-16.75v-33.499c0-9.2793 7.4703-16.75 16.75-16.75h66.998c9.2793 0 16.75 7.4703 16.75 16.75v33.499c0 9.2793-7.4703 16.75-16.75 16.75h-66.998zm0-83.748c-9.2793 0-16.75-7.4703-16.75-16.75v-33.499c0-9.2793 7.4703-16.75 16.75-16.75h66.998c9.2793 0 16.75 7.4703 16.75 16.75v33.499c0 9.2793-7.4703 16.75-16.75 16.75h-66.998zm0-83.748c-9.2793 0-16.75-7.4703-16.75-16.75v-33.499c0-9.2793 7.4703-16.75 16.75-16.75h66.998c9.2793 0 16.75 7.4703 16.75 16.75v33.499c0 9.2793-7.4703 16.75-16.75 16.75h-66.998zm0-83.748c-9.2793 0-16.75-7.4703-16.75-16.75v-33.499c0-9.2793 7.4703-16.75 16.75-16.75h66.998c9.2793 0 16.75 7.4703 16.75 16.75v33.499c0 9.2793-7.4703 16.75-16.75 16.75h-66.998zm0-83.748c-9.2793 0-16.75-7.4703-16.75-16.75v-33.499c0-9.2793 7.4703-16.75 16.75-16.75h66.998c9.2793 0 16.75 7.4704 16.75 16.75v33.499c0 9.2793-7.4703 16.75-16.75 16.75h-66.998zm0-83.748c-9.2793 0-16.75-7.4703-16.75-16.75v-33.499c0-9.2793 7.4703-16.75 16.75-16.75h66.998c9.2793 0 16.75 7.4704 16.75 16.75v33.499c0 9.2793-7.4703 16.75-16.75 16.75h-66.998zm0-83.748c-9.2793 0-16.75-7.4703-16.75-16.75v-33.499c0-9.2793 7.4703-16.75 16.75-16.75h66.998c9.2793 0 16.75 7.4704 16.75 16.75v33.499c0 9.2793-7.4703 16.75-16.75 16.75h-66.998zm0-83.748c-9.2793 0-16.75-7.4703-16.75-16.75v-33.499c0-9.2793 7.4703-16.75 16.75-16.75h66.998c9.2793 0 16.75 7.4704 16.75 16.75v33.499c0 9.2793-7.4703 16.75-16.75 16.75h-66.998zm0-83.748c-9.2793 0-16.75-7.4703-16.75-16.75v-33.499c0-9.2793 7.4703-16.75 16.75-16.75h66.998c9.2793 0 16.75 7.4704 16.75 16.75v33.499c0 9.2793-7.4703 16.75-16.75 16.75h-66.998zm0-83.748c-9.2793 0-16.75-7.4703-16.75-16.75v-33.499c0-9.2792 7.4703-16.75 16.75-16.75h66.998c9.2793 0 16.75 7.4704 16.75 16.75v33.499c0 9.2793-7.4703 16.75-16.75 16.75h-66.998zm0-83.748c-9.2793 0-16.75-7.4703-16.75-16.75v-33.499c0-9.2792 7.4703-16.75 16.75-16.75h66.998c9.2793 0 16.75 7.4704 16.75 16.75v33.499c0 9.2793-7.4703 16.75-16.75 16.75h-66.998zm0-83.748c-9.2793 0-16.75-7.4703-16.75-16.75v-33.499c0-9.2793 7.4703-16.75 16.75-16.75h66.998c9.2793 0 16.75 7.4703 16.75 16.75v33.499c0 9.2793-7.4703 16.75-16.75 16.75h-66.998z" />
      <path
         id="path11129"
         style="fill:url(#linearGradient3818)"
         d="m3276.1-377.79c-9.2793 0-16.75-7.4704-16.75-16.75v-33.499c0-9.2793 7.4703-16.75 16.75-16.75h66.998c9.2793 0 16.75 7.4703 16.75 16.75v33.499c0 9.2793-7.4703 16.75-16.75 16.75h-66.998zm0-83.748c-9.2793 0-16.75-7.4704-16.75-16.75v-33.499c0-9.2793 7.4703-16.75 16.75-16.75h66.998c9.2793 0 16.75 7.4703 16.75 16.75v33.499c0 9.2793-7.4703 16.75-16.75 16.75h-66.998zm0-83.748c-9.2793 0-16.75-7.4704-16.75-16.75v-33.499c0-9.2793 7.4703-16.75 16.75-16.75h66.998c9.2793 0 16.75 7.4703 16.75 16.75v33.499c0 9.2793-7.4703 16.75-16.75 16.75h-66.998zm0-83.748c-9.2793 0-16.75-7.4703-16.75-16.75v-33.499c0-9.2793 7.4703-16.75 16.75-16.75h66.998c9.2793 0 16.75 7.4703 16.75 16.75v33.499c0 9.2793-7.4703 16.75-16.75 16.75h-66.998zm0-83.748c-9.2793 0-16.75-7.4703-16.75-16.75v-33.499c0-9.2793 7.4703-16.75 16.75-16.75h66.998c9.2793 0 16.75 7.4703 16.75 16.75v33.499c0 9.2793-7.4703 16.75-16.75 16.75h-66.998zm0-83.748c-9.2793 0-16.75-7.4703-16.75-16.75v-33.499c0-9.2793 7.4703-16.75 16.75-16.75h66.998c9.2793 0 16.75 7.4703 16.75 16.75v33.499c0 9.2793-7.4703 16.75-16.75 16.75h-66.998zm0-83.748c-9.2793 0-16.75-7.4703-16.75-16.75v-33.499c0-9.2793 7.4703-16.75 16.75-16.75h66.998c9.2793 0 16.75 7.4703 16.75 16.75v33.499c0 9.2793-7.4703 16.75-16.75 16.75h-66.998zm0-83.748c-9.2793 0-16.75-7.4703-16.75-16.75v-33.499c0-9.2793 7.4703-16.75 16.75-16.75h66.998c9.2793 0 16.75 7.4703 16.75 16.75v33.499c0 9.2793-7.4703 16.75-16.75 16.75h-66.998zm0-83.748c-9.2793 0-16.75-7.4703-16.75-16.75v-33.499c0-9.2793 7.4703-16.75 16.75-16.75h66.998c9.2793 0 16.75 7.4703 16.75 16.75v33.499c0 9.2793-7.4703 16.75-16.75 16.75h-66.998zm0-83.748c-9.2793 0-16.75-7.4703-16.75-16.75v-33.499c0-9.2793 7.4703-16.75 16.75-16.75h66.998c9.2793 0 16.75 7.4704 16.75 16.75v33.499c0 9.2793-7.4703 16.75-16.75 16.75h-66.998zm0-83.748c-9.2793 0-16.75-7.4703-16.75-16.75v-33.499c0-9.2793 7.4703-16.75 16.75-16.75h66.998c9.2793 0 16.75 7.4704 16.75 16.75v33.499c0 9.2793-7.4703 16.75-16.75 16.75h-66.998zm0-83.748c-9.2793 0-16.75-7.4703-16.75-16.75v-33.499c0-9.2793 7.4703-16.75 16.75-16.75h66.998c9.2793 0 16.75 7.4704 16.75 16.75v33.499c0 9.2793-7.4703 16.75-16.75 16.75h-66.998zm0-83.748c-9.2793 0-16.75-7.4703-16.75-16.75v-33.499c0-9.2793 7.4703-16.75 16.75-16.75h66.998c9.2793 0 16.75 7.4704 16.75 16.75v33.499c0 9.2793-7.4703 16.75-16.75 16.75h-66.998zm0-83.748c-9.2793 0-16.75-7.4703-16.75-16.75v-33.499c0-9.2793 7.4703-16.75 16.75-16.75h66.998c9.2793 0 16.75 7.4704 16.75 16.75v33.499c0 9.2793-7.4703 16.75-16.75 16.75h-66.998zm0-83.748c-9.2793 0-16.75-7.4703-16.75-16.75v-33.499c0-9.2792 7.4703-16.75 16.75-16.75h66.998c9.2793 0 16.75 7.4704 16.75 16.75v33.499c0 9.2793-7.4703 16.75-16.75 16.75h-66.998zm0-83.748c-9.2793 0-16.75-7.4703-16.75-16.75v-33.499c0-9.2792 7.4703-16.75 16.75-16.75h66.998c9.2793 0 16.75 7.4704 16.75 16.75v33.499c0 9.2793-7.4703 16.75-16.75 16.75h-66.998zm0-83.748c-9.2793 0-16.75-7.4703-16.75-16.75v-33.499c0-9.2793 7.4703-16.75 16.75-16.75h66.998c9.2793 0 16.75 7.4703 16.75 16.75v33.499c0 9.2793-7.4703 16.75-16.75 16.75h-66.998z" />
      <path
         id="path11131"
         style="fill:url(#linearGradient3820)"
         d="m3393.4-377.79c-9.2793 0-16.75-7.4704-16.75-16.75v-33.499c0-9.2793 7.4704-16.75 16.75-16.75h66.998c9.2792 0 16.75 7.4703 16.75 16.75v33.499c0 9.2793-7.4704 16.75-16.75 16.75h-66.998zm0-83.748c-9.2793 0-16.75-7.4704-16.75-16.75v-33.499c0-9.2793 7.4704-16.75 16.75-16.75h66.998c9.2792 0 16.75 7.4703 16.75 16.75v33.499c0 9.2793-7.4704 16.75-16.75 16.75h-66.998zm0-83.748c-9.2793 0-16.75-7.4704-16.75-16.75v-33.499c0-9.2793 7.4704-16.75 16.75-16.75h66.998c9.2792 0 16.75 7.4703 16.75 16.75v33.499c0 9.2793-7.4704 16.75-16.75 16.75h-66.998zm0-83.748c-9.2793 0-16.75-7.4703-16.75-16.75v-33.499c0-9.2793 7.4704-16.75 16.75-16.75h66.998c9.2792 0 16.75 7.4703 16.75 16.75v33.499c0 9.2793-7.4704 16.75-16.75 16.75h-66.998zm0-83.748c-9.2793 0-16.75-7.4703-16.75-16.75v-33.499c0-9.2793 7.4704-16.75 16.75-16.75h66.998c9.2792 0 16.75 7.4703 16.75 16.75v33.499c0 9.2793-7.4704 16.75-16.75 16.75h-66.998zm0-83.748c-9.2793 0-16.75-7.4703-16.75-16.75v-33.499c0-9.2793 7.4704-16.75 16.75-16.75h66.998c9.2792 0 16.75 7.4703 16.75 16.75v33.499c0 9.2793-7.4704 16.75-16.75 16.75h-66.998zm0-83.748c-9.2793 0-16.75-7.4703-16.75-16.75v-33.499c0-9.2793 7.4704-16.75 16.75-16.75h66.998c9.2792 0 16.75 7.4703 16.75 16.75v33.499c0 9.2793-7.4704 16.75-16.75 16.75h-66.998zm0-83.748c-9.2793 0-16.75-7.4703-16.75-16.75v-33.499c0-9.2793 7.4704-16.75 16.75-16.75h66.998c9.2792 0 16.75 7.4703 16.75 16.75v33.499c0 9.2793-7.4704 16.75-16.75 16.75h-66.998zm0-83.748c-9.2793 0-16.75-7.4703-16.75-16.75v-33.499c0-9.2793 7.4704-16.75 16.75-16.75h66.998c9.2792 0 16.75 7.4703 16.75 16.75v33.499c0 9.2793-7.4704 16.75-16.75 16.75h-66.998zm0-83.748c-9.2793 0-16.75-7.4703-16.75-16.75v-33.499c0-9.2793 7.4704-16.75 16.75-16.75h66.998c9.2792 0 16.75 7.4704 16.75 16.75v33.499c0 9.2793-7.4704 16.75-16.75 16.75h-66.998zm0-83.748c-9.2793 0-16.75-7.4703-16.75-16.75v-33.499c0-9.2793 7.4704-16.75 16.75-16.75h66.998c9.2792 0 16.75 7.4704 16.75 16.75v33.499c0 9.2793-7.4704 16.75-16.75 16.75h-66.998zm0-83.748c-9.2793 0-16.75-7.4703-16.75-16.75v-33.499c0-9.2793 7.4704-16.75 16.75-16.75h66.998c9.2792 0 16.75 7.4704 16.75 16.75v33.499c0 9.2793-7.4704 16.75-16.75 16.75h-66.998zm0-83.748c-9.2793 0-16.75-7.4703-16.75-16.75v-33.499c0-9.2793 7.4704-16.75 16.75-16.75h66.998c9.2792 0 16.75 7.4704 16.75 16.75v33.499c0 9.2793-7.4704 16.75-16.75 16.75h-66.998zm0-83.748c-9.2793 0-16.75-7.4703-16.75-16.75v-33.499c0-9.2793 7.4704-16.75 16.75-16.75h66.998c9.2792 0 16.75 7.4704 16.75 16.75v33.499c0 9.2793-7.4704 16.75-16.75 16.75h-66.998zm0-83.748c-9.2793 0-16.75-7.4703-16.75-16.75v-33.499c0-9.2792 7.4704-16.75 16.75-16.75h66.998c9.2792 0 16.75 7.4704 16.75 16.75v33.499c0 9.2793-7.4704 16.75-16.75 16.75h-66.998zm0-83.748c-9.2793 0-16.75-7.4703-16.75-16.75v-33.499c0-9.2792 7.4704-16.75 16.75-16.75h66.998c9.2792 0 16.75 7.4704 16.75 16.75v33.499c0 9.2793-7.4704 16.75-16.75 16.75h-66.998zm0-83.748c-9.2793 0-16.75-7.4703-16.75-16.75v-33.499c0-9.2793 7.4704-16.75 16.75-16.75h66.998c9.2792 0 16.75 7.4703 16.75 16.75v33.499c0 9.2793-7.4704 16.75-16.75 16.75h-66.998z" />
      <path
         id="path11133"
         style="fill:url(#linearGradient3822)"
         d="m3510.6-377.79c-9.2793 0-16.75-7.4704-16.75-16.75v-33.499c0-9.2793 7.4703-16.75 16.75-16.75h66.998c9.2793 0 16.75 7.4703 16.75 16.75v33.499c0 9.2793-7.4703 16.75-16.75 16.75h-66.998zm0-83.748c-9.2793 0-16.75-7.4704-16.75-16.75v-33.499c0-9.2793 7.4703-16.75 16.75-16.75h66.998c9.2793 0 16.75 7.4703 16.75 16.75v33.499c0 9.2793-7.4703 16.75-16.75 16.75h-66.998zm0-83.748c-9.2793 0-16.75-7.4704-16.75-16.75v-33.499c0-9.2793 7.4703-16.75 16.75-16.75h66.998c9.2793 0 16.75 7.4703 16.75 16.75v33.499c0 9.2793-7.4703 16.75-16.75 16.75h-66.998zm0-83.748c-9.2793 0-16.75-7.4703-16.75-16.75v-33.499c0-9.2793 7.4703-16.75 16.75-16.75h66.998c9.2793 0 16.75 7.4703 16.75 16.75v33.499c0 9.2793-7.4703 16.75-16.75 16.75h-66.998zm0-83.748c-9.2793 0-16.75-7.4703-16.75-16.75v-33.499c0-9.2793 7.4703-16.75 16.75-16.75h66.998c9.2793 0 16.75 7.4703 16.75 16.75v33.499c0 9.2793-7.4703 16.75-16.75 16.75h-66.998zm0-83.748c-9.2793 0-16.75-7.4703-16.75-16.75v-33.499c0-9.2793 7.4703-16.75 16.75-16.75h66.998c9.2793 0 16.75 7.4703 16.75 16.75v33.499c0 9.2793-7.4703 16.75-16.75 16.75h-66.998zm0-83.748c-9.2793 0-16.75-7.4703-16.75-16.75v-33.499c0-9.2793 7.4703-16.75 16.75-16.75h66.998c9.2793 0 16.75 7.4703 16.75 16.75v33.499c0 9.2793-7.4703 16.75-16.75 16.75h-66.998zm0-83.748c-9.2793 0-16.75-7.4703-16.75-16.75v-33.499c0-9.2793 7.4703-16.75 16.75-16.75h66.998c9.2793 0 16.75 7.4703 16.75 16.75v33.499c0 9.2793-7.4703 16.75-16.75 16.75h-66.998zm0-83.748c-9.2793 0-16.75-7.4703-16.75-16.75v-33.499c0-9.2793 7.4703-16.75 16.75-16.75h66.998c9.2793 0 16.75 7.4703 16.75 16.75v33.499c0 9.2793-7.4703 16.75-16.75 16.75h-66.998zm0-83.748c-9.2793 0-16.75-7.4703-16.75-16.75v-33.499c0-9.2793 7.4703-16.75 16.75-16.75h66.998c9.2793 0 16.75 7.4704 16.75 16.75v33.499c0 9.2793-7.4703 16.75-16.75 16.75h-66.998zm0-83.748c-9.2793 0-16.75-7.4703-16.75-16.75v-33.499c0-9.2793 7.4703-16.75 16.75-16.75h66.998c9.2793 0 16.75 7.4704 16.75 16.75v33.499c0 9.2793-7.4703 16.75-16.75 16.75h-66.998zm0-83.748c-9.2793 0-16.75-7.4703-16.75-16.75v-33.499c0-9.2793 7.4703-16.75 16.75-16.75h66.998c9.2793 0 16.75 7.4704 16.75 16.75v33.499c0 9.2793-7.4703 16.75-16.75 16.75h-66.998zm0-83.748c-9.2793 0-16.75-7.4703-16.75-16.75v-33.499c0-9.2793 7.4703-16.75 16.75-16.75h66.998c9.2793 0 16.75 7.4704 16.75 16.75v33.499c0 9.2793-7.4703 16.75-16.75 16.75h-66.998zm0-83.748c-9.2793 0-16.75-7.4703-16.75-16.75v-33.499c0-9.2793 7.4703-16.75 16.75-16.75h66.998c9.2793 0 16.75 7.4704 16.75 16.75v33.499c0 9.2793-7.4703 16.75-16.75 16.75h-66.998zm0-83.748c-9.2793 0-16.75-7.4703-16.75-16.75v-33.499c0-9.2792 7.4703-16.75 16.75-16.75h66.998c9.2793 0 16.75 7.4704 16.75 16.75v33.499c0 9.2793-7.4703 16.75-16.75 16.75h-66.998zm0-83.748c-9.2793 0-16.75-7.4703-16.75-16.75v-33.499c0-9.2792 7.4703-16.75 16.75-16.75h66.998c9.2793 0 16.75 7.4704 16.75 16.75v33.499c0 9.2793-7.4703 16.75-16.75 16.75h-66.998zm0-83.748c-9.2793 0-16.75-7.4703-16.75-16.75v-33.499c0-9.2793 7.4703-16.75 16.75-16.75h66.998c9.2793 0 16.75 7.4703 16.75 16.75v33.499c0 9.2793-7.4703 16.75-16.75 16.75h-66.998z" />
      <path
         id="path11135"
         style="fill:url(#linearGradient3824)"
         d="m3627.9-377.79c-9.2793 0-16.75-7.4704-16.75-16.75v-33.499c0-9.2793 7.4704-16.75 16.75-16.75h66.998c9.2793 0 16.75 7.4703 16.75 16.75v33.499c0 9.2793-7.4704 16.75-16.75 16.75h-66.998zm0-83.748c-9.2793 0-16.75-7.4704-16.75-16.75v-33.499c0-9.2793 7.4704-16.75 16.75-16.75h66.998c9.2793 0 16.75 7.4703 16.75 16.75v33.499c0 9.2793-7.4704 16.75-16.75 16.75h-66.998zm0-83.748c-9.2793 0-16.75-7.4704-16.75-16.75v-33.499c0-9.2793 7.4704-16.75 16.75-16.75h66.998c9.2793 0 16.75 7.4703 16.75 16.75v33.499c0 9.2793-7.4704 16.75-16.75 16.75h-66.998zm0-83.748c-9.2793 0-16.75-7.4703-16.75-16.75v-33.499c0-9.2793 7.4704-16.75 16.75-16.75h66.998c9.2793 0 16.75 7.4703 16.75 16.75v33.499c0 9.2793-7.4704 16.75-16.75 16.75h-66.998zm0-83.748c-9.2793 0-16.75-7.4703-16.75-16.75v-33.499c0-9.2793 7.4704-16.75 16.75-16.75h66.998c9.2793 0 16.75 7.4703 16.75 16.75v33.499c0 9.2793-7.4704 16.75-16.75 16.75h-66.998zm0-83.748c-9.2793 0-16.75-7.4703-16.75-16.75v-33.499c0-9.2793 7.4704-16.75 16.75-16.75h66.998c9.2793 0 16.75 7.4703 16.75 16.75v33.499c0 9.2793-7.4704 16.75-16.75 16.75h-66.998zm0-83.748c-9.2793 0-16.75-7.4703-16.75-16.75v-33.499c0-9.2793 7.4704-16.75 16.75-16.75h66.998c9.2793 0 16.75 7.4703 16.75 16.75v33.499c0 9.2793-7.4704 16.75-16.75 16.75h-66.998zm0-83.748c-9.2793 0-16.75-7.4703-16.75-16.75v-33.499c0-9.2793 7.4704-16.75 16.75-16.75h66.998c9.2793 0 16.75 7.4703 16.75 16.75v33.499c0 9.2793-7.4704 16.75-16.75 16.75h-66.998zm0-83.748c-9.2793 0-16.75-7.4703-16.75-16.75v-33.499c0-9.2793 7.4704-16.75 16.75-16.75h66.998c9.2793 0 16.75 7.4703 16.75 16.75v33.499c0 9.2793-7.4704 16.75-16.75 16.75h-66.998zm0-83.748c-9.2793 0-16.75-7.4703-16.75-16.75v-33.499c0-9.2793 7.4704-16.75 16.75-16.75h66.998c9.2793 0 16.75 7.4704 16.75 16.75v33.499c0 9.2793-7.4704 16.75-16.75 16.75h-66.998zm0-83.748c-9.2793 0-16.75-7.4703-16.75-16.75v-33.499c0-9.2793 7.4704-16.75 16.75-16.75h66.998c9.2793 0 16.75 7.4704 16.75 16.75v33.499c0 9.2793-7.4704 16.75-16.75 16.75h-66.998zm0-83.748c-9.2793 0-16.75-7.4703-16.75-16.75v-33.499c0-9.2793 7.4704-16.75 16.75-16.75h66.998c9.2793 0 16.75 7.4704 16.75 16.75v33.499c0 9.2793-7.4704 16.75-16.75 16.75h-66.998zm0-83.748c-9.2793 0-16.75-7.4703-16.75-16.75v-33.499c0-9.2793 7.4704-16.75 16.75-16.75h66.998c9.2793 0 16.75 7.4704 16.75 16.75v33.499c0 9.2793-7.4704 16.75-16.75 16.75h-66.998zm0-83.748c-9.2793 0-16.75-7.4703-16.75-16.75v-33.499c0-9.2793 7.4704-16.75 16.75-16.75h66.998c9.2793 0 16.75 7.4704 16.75 16.75v33.499c0 9.2793-7.4704 16.75-16.75 16.75h-66.998zm0-83.748c-9.2793 0-16.75-7.4703-16.75-16.75v-33.499c0-9.2792 7.4704-16.75 16.75-16.75h66.998c9.2793 0 16.75 7.4704 16.75 16.75v33.499c0 9.2793-7.4704 16.75-16.75 16.75h-66.998zm0-83.748c-9.2793 0-16.75-7.4703-16.75-16.75v-33.499c0-9.2792 7.4704-16.75 16.75-16.75h66.998c9.2793 0 16.75 7.4704 16.75 16.75v33.499c0 9.2793-7.4704 16.75-16.75 16.75h-66.998zm0-83.748c-9.2793 0-16.75-7.4703-16.75-16.75v-33.499c0-9.2793 7.4704-16.75 16.75-16.75h66.998c9.2793 0 16.75 7.4703 16.75 16.75v33.499c0 9.2793-7.4704 16.75-16.75 16.75h-66.998z" />
      <path
         id="path11137"
         style="fill:url(#linearGradient3826)"
         d="m3745.1-377.79c-9.2793 0-16.75-7.4704-16.75-16.75v-33.499c0-9.2793 7.4703-16.75 16.75-16.75h66.998c9.2793 0 16.75 7.4703 16.75 16.75v33.499c0 9.2793-7.4703 16.75-16.75 16.75h-66.998zm0-83.748c-9.2793 0-16.75-7.4704-16.75-16.75v-33.499c0-9.2793 7.4703-16.75 16.75-16.75h66.998c9.2793 0 16.75 7.4703 16.75 16.75v33.499c0 9.2793-7.4703 16.75-16.75 16.75h-66.998zm0-83.748c-9.2793 0-16.75-7.4704-16.75-16.75v-33.499c0-9.2793 7.4703-16.75 16.75-16.75h66.998c9.2793 0 16.75 7.4703 16.75 16.75v33.499c0 9.2793-7.4703 16.75-16.75 16.75h-66.998zm0-83.748c-9.2793 0-16.75-7.4703-16.75-16.75v-33.499c0-9.2793 7.4703-16.75 16.75-16.75h66.998c9.2793 0 16.75 7.4703 16.75 16.75v33.499c0 9.2793-7.4703 16.75-16.75 16.75h-66.998zm0-83.748c-9.2793 0-16.75-7.4703-16.75-16.75v-33.499c0-9.2793 7.4703-16.75 16.75-16.75h66.998c9.2793 0 16.75 7.4703 16.75 16.75v33.499c0 9.2793-7.4703 16.75-16.75 16.75h-66.998zm0-83.748c-9.2793 0-16.75-7.4703-16.75-16.75v-33.499c0-9.2793 7.4703-16.75 16.75-16.75h66.998c9.2793 0 16.75 7.4703 16.75 16.75v33.499c0 9.2793-7.4703 16.75-16.75 16.75h-66.998zm0-83.748c-9.2793 0-16.75-7.4703-16.75-16.75v-33.499c0-9.2793 7.4703-16.75 16.75-16.75h66.998c9.2793 0 16.75 7.4703 16.75 16.75v33.499c0 9.2793-7.4703 16.75-16.75 16.75h-66.998zm0-83.748c-9.2793 0-16.75-7.4703-16.75-16.75v-33.499c0-9.2793 7.4703-16.75 16.75-16.75h66.998c9.2793 0 16.75 7.4703 16.75 16.75v33.499c0 9.2793-7.4703 16.75-16.75 16.75h-66.998zm0-83.748c-9.2793 0-16.75-7.4703-16.75-16.75v-33.499c0-9.2793 7.4703-16.75 16.75-16.75h66.998c9.2793 0 16.75 7.4703 16.75 16.75v33.499c0 9.2793-7.4703 16.75-16.75 16.75h-66.998zm0-83.748c-9.2793 0-16.75-7.4703-16.75-16.75v-33.499c0-9.2793 7.4703-16.75 16.75-16.75h66.998c9.2793 0 16.75 7.4704 16.75 16.75v33.499c0 9.2793-7.4703 16.75-16.75 16.75h-66.998zm0-83.748c-9.2793 0-16.75-7.4703-16.75-16.75v-33.499c0-9.2793 7.4703-16.75 16.75-16.75h66.998c9.2793 0 16.75 7.4704 16.75 16.75v33.499c0 9.2793-7.4703 16.75-16.75 16.75h-66.998zm0-83.748c-9.2793 0-16.75-7.4703-16.75-16.75v-33.499c0-9.2793 7.4703-16.75 16.75-16.75h66.998c9.2793 0 16.75 7.4704 16.75 16.75v33.499c0 9.2793-7.4703 16.75-16.75 16.75h-66.998zm0-83.748c-9.2793 0-16.75-7.4703-16.75-16.75v-33.499c0-9.2793 7.4703-16.75 16.75-16.75h66.998c9.2793 0 16.75 7.4704 16.75 16.75v33.499c0 9.2793-7.4703 16.75-16.75 16.75h-66.998zm0-83.748c-9.2793 0-16.75-7.4703-16.75-16.75v-33.499c0-9.2793 7.4703-16.75 16.75-16.75h66.998c9.2793 0 16.75 7.4704 16.75 16.75v33.499c0 9.2793-7.4703 16.75-16.75 16.75h-66.998zm0-83.748c-9.2793 0-16.75-7.4703-16.75-16.75v-33.499c0-9.2792 7.4703-16.75 16.75-16.75h66.998c9.2793 0 16.75 7.4704 16.75 16.75v33.499c0 9.2793-7.4703 16.75-16.75 16.75h-66.998zm0-83.748c-9.2793 0-16.75-7.4703-16.75-16.75v-33.499c0-9.2792 7.4703-16.75 16.75-16.75h66.998c9.2793 0 16.75 7.4704 16.75 16.75v33.499c0 9.2793-7.4703 16.75-16.75 16.75h-66.998zm0-83.748c-9.2793 0-16.75-7.4703-16.75-16.75v-33.499c0-9.2793 7.4703-16.75 16.75-16.75h66.998c9.2793 0 16.75 7.4703 16.75 16.75v33.499c0 9.2793-7.4703 16.75-16.75 16.75h-66.998z" />
      <path
         id="path11139"
         style="fill:url(#linearGradient3828)"
         d="m3862.4-377.79c-9.2792 0-16.75-7.4704-16.75-16.75v-33.499c0-9.2793 7.4704-16.75 16.75-16.75h66.998c9.2793 0 16.75 7.4703 16.75 16.75v33.499c0 9.2793-7.4703 16.75-16.75 16.75h-66.998zm0-83.748c-9.2792 0-16.75-7.4704-16.75-16.75v-33.499c0-9.2793 7.4704-16.75 16.75-16.75h66.998c9.2793 0 16.75 7.4703 16.75 16.75v33.499c0 9.2793-7.4703 16.75-16.75 16.75h-66.998zm0-83.748c-9.2792 0-16.75-7.4704-16.75-16.75v-33.499c0-9.2793 7.4704-16.75 16.75-16.75h66.998c9.2793 0 16.75 7.4703 16.75 16.75v33.499c0 9.2793-7.4703 16.75-16.75 16.75h-66.998zm0-83.748c-9.2792 0-16.75-7.4703-16.75-16.75v-33.499c0-9.2793 7.4704-16.75 16.75-16.75h66.998c9.2793 0 16.75 7.4703 16.75 16.75v33.499c0 9.2793-7.4703 16.75-16.75 16.75h-66.998zm0-83.748c-9.2792 0-16.75-7.4703-16.75-16.75v-33.499c0-9.2793 7.4704-16.75 16.75-16.75h66.998c9.2793 0 16.75 7.4703 16.75 16.75v33.499c0 9.2793-7.4703 16.75-16.75 16.75h-66.998zm0-83.748c-9.2792 0-16.75-7.4703-16.75-16.75v-33.499c0-9.2793 7.4704-16.75 16.75-16.75h66.998c9.2793 0 16.75 7.4703 16.75 16.75v33.499c0 9.2793-7.4703 16.75-16.75 16.75h-66.998zm0-83.748c-9.2792 0-16.75-7.4703-16.75-16.75v-33.499c0-9.2793 7.4704-16.75 16.75-16.75h66.998c9.2793 0 16.75 7.4703 16.75 16.75v33.499c0 9.2793-7.4703 16.75-16.75 16.75h-66.998zm0-83.748c-9.2792 0-16.75-7.4703-16.75-16.75v-33.499c0-9.2793 7.4704-16.75 16.75-16.75h66.998c9.2793 0 16.75 7.4703 16.75 16.75v33.499c0 9.2793-7.4703 16.75-16.75 16.75h-66.998zm0-83.748c-9.2792 0-16.75-7.4703-16.75-16.75v-33.499c0-9.2793 7.4704-16.75 16.75-16.75h66.998c9.2793 0 16.75 7.4703 16.75 16.75v33.499c0 9.2793-7.4703 16.75-16.75 16.75h-66.998zm0-83.748c-9.2792 0-16.75-7.4703-16.75-16.75v-33.499c0-9.2793 7.4704-16.75 16.75-16.75h66.998c9.2793 0 16.75 7.4704 16.75 16.75v33.499c0 9.2793-7.4703 16.75-16.75 16.75h-66.998zm0-83.748c-9.2792 0-16.75-7.4703-16.75-16.75v-33.499c0-9.2793 7.4704-16.75 16.75-16.75h66.998c9.2793 0 16.75 7.4704 16.75 16.75v33.499c0 9.2793-7.4703 16.75-16.75 16.75h-66.998zm0-83.748c-9.2792 0-16.75-7.4703-16.75-16.75v-33.499c0-9.2793 7.4704-16.75 16.75-16.75h66.998c9.2793 0 16.75 7.4704 16.75 16.75v33.499c0 9.2793-7.4703 16.75-16.75 16.75h-66.998zm0-83.748c-9.2792 0-16.75-7.4703-16.75-16.75v-33.499c0-9.2793 7.4704-16.75 16.75-16.75h66.998c9.2793 0 16.75 7.4704 16.75 16.75v33.499c0 9.2793-7.4703 16.75-16.75 16.75h-66.998zm0-83.748c-9.2792 0-16.75-7.4703-16.75-16.75v-33.499c0-9.2793 7.4704-16.75 16.75-16.75h66.998c9.2793 0 16.75 7.4704 16.75 16.75v33.499c0 9.2793-7.4703 16.75-16.75 16.75h-66.998zm0-83.748c-9.2792 0-16.75-7.4703-16.75-16.75v-33.499c0-9.2792 7.4704-16.75 16.75-16.75h66.998c9.2793 0 16.75 7.4704 16.75 16.75v33.499c0 9.2793-7.4703 16.75-16.75 16.75h-66.998zm0-83.748c-9.2792 0-16.75-7.4703-16.75-16.75v-33.499c0-9.2792 7.4704-16.75 16.75-16.75h66.998c9.2793 0 16.75 7.4704 16.75 16.75v33.499c0 9.2793-7.4703 16.75-16.75 16.75h-66.998zm0-83.748c-9.2792 0-16.75-7.4703-16.75-16.75v-33.499c0-9.2793 7.4704-16.75 16.75-16.75h66.998c9.2793 0 16.75 7.4703 16.75 16.75v33.499c0 9.2793-7.4703 16.75-16.75 16.75h-66.998z" />
      <path
         id="path11141"
         style="fill:url(#linearGradient3830)"
         d="m3979.6-377.79c-9.2793 0-16.75-7.4704-16.75-16.75v-33.499c0-9.2793 7.4703-16.75 16.75-16.75h66.998c9.2793 0 16.75 7.4703 16.75 16.75v33.499c0 9.2793-7.4703 16.75-16.75 16.75h-66.998zm0-83.748c-9.2793 0-16.75-7.4704-16.75-16.75v-33.499c0-9.2793 7.4703-16.75 16.75-16.75h66.998c9.2793 0 16.75 7.4703 16.75 16.75v33.499c0 9.2793-7.4703 16.75-16.75 16.75h-66.998zm0-83.748c-9.2793 0-16.75-7.4704-16.75-16.75v-33.499c0-9.2793 7.4703-16.75 16.75-16.75h66.998c9.2793 0 16.75 7.4703 16.75 16.75v33.499c0 9.2793-7.4703 16.75-16.75 16.75h-66.998zm0-83.748c-9.2793 0-16.75-7.4703-16.75-16.75v-33.499c0-9.2793 7.4703-16.75 16.75-16.75h66.998c9.2793 0 16.75 7.4703 16.75 16.75v33.499c0 9.2793-7.4703 16.75-16.75 16.75h-66.998zm0-83.748c-9.2793 0-16.75-7.4703-16.75-16.75v-33.499c0-9.2793 7.4703-16.75 16.75-16.75h66.998c9.2793 0 16.75 7.4703 16.75 16.75v33.499c0 9.2793-7.4703 16.75-16.75 16.75h-66.998zm0-83.748c-9.2793 0-16.75-7.4703-16.75-16.75v-33.499c0-9.2793 7.4703-16.75 16.75-16.75h66.998c9.2793 0 16.75 7.4703 16.75 16.75v33.499c0 9.2793-7.4703 16.75-16.75 16.75h-66.998zm0-83.748c-9.2793 0-16.75-7.4703-16.75-16.75v-33.499c0-9.2793 7.4703-16.75 16.75-16.75h66.998c9.2793 0 16.75 7.4703 16.75 16.75v33.499c0 9.2793-7.4703 16.75-16.75 16.75h-66.998zm0-83.748c-9.2793 0-16.75-7.4703-16.75-16.75v-33.499c0-9.2793 7.4703-16.75 16.75-16.75h66.998c9.2793 0 16.75 7.4703 16.75 16.75v33.499c0 9.2793-7.4703 16.75-16.75 16.75h-66.998zm0-83.748c-9.2793 0-16.75-7.4703-16.75-16.75v-33.499c0-9.2793 7.4703-16.75 16.75-16.75h66.998c9.2793 0 16.75 7.4703 16.75 16.75v33.499c0 9.2793-7.4703 16.75-16.75 16.75h-66.998zm0-83.748c-9.2793 0-16.75-7.4703-16.75-16.75v-33.499c0-9.2793 7.4703-16.75 16.75-16.75h66.998c9.2793 0 16.75 7.4704 16.75 16.75v33.499c0 9.2793-7.4703 16.75-16.75 16.75h-66.998zm0-83.748c-9.2793 0-16.75-7.4703-16.75-16.75v-33.499c0-9.2793 7.4703-16.75 16.75-16.75h66.998c9.2793 0 16.75 7.4704 16.75 16.75v33.499c0 9.2793-7.4703 16.75-16.75 16.75h-66.998zm0-83.748c-9.2793 0-16.75-7.4703-16.75-16.75v-33.499c0-9.2793 7.4703-16.75 16.75-16.75h66.998c9.2793 0 16.75 7.4704 16.75 16.75v33.499c0 9.2793-7.4703 16.75-16.75 16.75h-66.998zm0-83.748c-9.2793 0-16.75-7.4703-16.75-16.75v-33.499c0-9.2793 7.4703-16.75 16.75-16.75h66.998c9.2793 0 16.75 7.4704 16.75 16.75v33.499c0 9.2793-7.4703 16.75-16.75 16.75h-66.998zm0-83.748c-9.2793 0-16.75-7.4703-16.75-16.75v-33.499c0-9.2793 7.4703-16.75 16.75-16.75h66.998c9.2793 0 16.75 7.4704 16.75 16.75v33.499c0 9.2793-7.4703 16.75-16.75 16.75h-66.998zm0-83.748c-9.2793 0-16.75-7.4703-16.75-16.75v-33.499c0-9.2792 7.4703-16.75 16.75-16.75h66.998c9.2793 0 16.75 7.4704 16.75 16.75v33.499c0 9.2793-7.4703 16.75-16.75 16.75h-66.998zm0-83.748c-9.2793 0-16.75-7.4703-16.75-16.75v-33.499c0-9.2792 7.4703-16.75 16.75-16.75h66.998c9.2793 0 16.75 7.4704 16.75 16.75v33.499c0 9.2793-7.4703 16.75-16.75 16.75h-66.998zm0-83.748c-9.2793 0-16.75-7.4703-16.75-16.75v-33.499c0-9.2793 7.4703-16.75 16.75-16.75h66.998c9.2793 0 16.75 7.4703 16.75 16.75v33.499c0 9.2793-7.4703 16.75-16.75 16.75h-66.998z" />
      <path
         id="path11143"
         style="fill:url(#linearGradient3832)"
         d="m4096.9-377.79c-9.2793 0-16.75-7.4704-16.75-16.75v-33.499c0-9.2793 7.4703-16.75 16.75-16.75h66.998c9.2793 0 16.75 7.4703 16.75 16.75v33.499c0 9.2793-7.4703 16.75-16.75 16.75h-66.998zm0-83.748c-9.2793 0-16.75-7.4704-16.75-16.75v-33.499c0-9.2793 7.4703-16.75 16.75-16.75h66.998c9.2793 0 16.75 7.4703 16.75 16.75v33.499c0 9.2793-7.4703 16.75-16.75 16.75h-66.998zm0-83.748c-9.2793 0-16.75-7.4704-16.75-16.75v-33.499c0-9.2793 7.4703-16.75 16.75-16.75h66.998c9.2793 0 16.75 7.4703 16.75 16.75v33.499c0 9.2793-7.4703 16.75-16.75 16.75h-66.998zm0-83.748c-9.2793 0-16.75-7.4703-16.75-16.75v-33.499c0-9.2793 7.4703-16.75 16.75-16.75h66.998c9.2793 0 16.75 7.4703 16.75 16.75v33.499c0 9.2793-7.4703 16.75-16.75 16.75h-66.998zm0-83.748c-9.2793 0-16.75-7.4703-16.75-16.75v-33.499c0-9.2793 7.4703-16.75 16.75-16.75h66.998c9.2793 0 16.75 7.4703 16.75 16.75v33.499c0 9.2793-7.4703 16.75-16.75 16.75h-66.998zm0-83.748c-9.2793 0-16.75-7.4703-16.75-16.75v-33.499c0-9.2793 7.4703-16.75 16.75-16.75h66.998c9.2793 0 16.75 7.4703 16.75 16.75v33.499c0 9.2793-7.4703 16.75-16.75 16.75h-66.998zm0-83.748c-9.2793 0-16.75-7.4703-16.75-16.75v-33.499c0-9.2793 7.4703-16.75 16.75-16.75h66.998c9.2793 0 16.75 7.4703 16.75 16.75v33.499c0 9.2793-7.4703 16.75-16.75 16.75h-66.998zm0-83.748c-9.2793 0-16.75-7.4703-16.75-16.75v-33.499c0-9.2793 7.4703-16.75 16.75-16.75h66.998c9.2793 0 16.75 7.4703 16.75 16.75v33.499c0 9.2793-7.4703 16.75-16.75 16.75h-66.998zm0-83.748c-9.2793 0-16.75-7.4703-16.75-16.75v-33.499c0-9.2793 7.4703-16.75 16.75-16.75h66.998c9.2793 0 16.75 7.4703 16.75 16.75v33.499c0 9.2793-7.4703 16.75-16.75 16.75h-66.998zm0-83.748c-9.2793 0-16.75-7.4703-16.75-16.75v-33.499c0-9.2793 7.4703-16.75 16.75-16.75h66.998c9.2793 0 16.75 7.4704 16.75 16.75v33.499c0 9.2793-7.4703 16.75-16.75 16.75h-66.998zm0-83.748c-9.2793 0-16.75-7.4703-16.75-16.75v-33.499c0-9.2793 7.4703-16.75 16.75-16.75h66.998c9.2793 0 16.75 7.4704 16.75 16.75v33.499c0 9.2793-7.4703 16.75-16.75 16.75h-66.998zm0-83.748c-9.2793 0-16.75-7.4703-16.75-16.75v-33.499c0-9.2793 7.4703-16.75 16.75-16.75h66.998c9.2793 0 16.75 7.4704 16.75 16.75v33.499c0 9.2793-7.4703 16.75-16.75 16.75h-66.998zm0-83.748c-9.2793 0-16.75-7.4703-16.75-16.75v-33.499c0-9.2793 7.4703-16.75 16.75-16.75h66.998c9.2793 0 16.75 7.4704 16.75 16.75v33.499c0 9.2793-7.4703 16.75-16.75 16.75h-66.998zm0-83.748c-9.2793 0-16.75-7.4703-16.75-16.75v-33.499c0-9.2793 7.4703-16.75 16.75-16.75h66.998c9.2793 0 16.75 7.4704 16.75 16.75v33.499c0 9.2793-7.4703 16.75-16.75 16.75h-66.998zm0-83.748c-9.2793 0-16.75-7.4703-16.75-16.75v-33.499c0-9.2792 7.4703-16.75 16.75-16.75h66.998c9.2793 0 16.75 7.4704 16.75 16.75v33.499c0 9.2793-7.4703 16.75-16.75 16.75h-66.998zm0-83.748c-9.2793 0-16.75-7.4703-16.75-16.75v-33.499c0-9.2792 7.4703-16.75 16.75-16.75h66.998c9.2793 0 16.75 7.4704 16.75 16.75v33.499c0 9.2793-7.4703 16.75-16.75 16.75h-66.998zm0-83.748c-9.2793 0-16.75-7.4703-16.75-16.75v-33.499c0-9.2793 7.4703-16.75 16.75-16.75h66.998c9.2793 0 16.75 7.4703 16.75 16.75v33.499c0 9.2793-7.4703 16.75-16.75 16.75h-66.998z" />
    </g>
  </g>
</svg>
