<svg height="96" width="96" xmlns="http://www.w3.org/2000/svg" xmlns:sodipodi="http://sodipodi.sourceforge.net/DTD/sodipodi-0.dtd" xmlns:inkscape="http://www.inkscape.org/namespaces/inkscape">
 <defs>
  <clipPath clipPathUnits="userSpaceOnUse" id="clipPath3009">
   <path d="m-2 956.36h-96v33.562l96 25.687v-59.25z"/>
  </clipPath>
  <linearGradient x2="0" y1="54.57" y2="30.797" gradientUnits="userSpaceOnUse" id="linearGradient3810" gradientTransform="matrix(16.75 0 0 -16.75 2689.9 -277.29)">
   <stop stop-color="#c83771"/>
   <stop stop-color="#c83771" stop-opacity="0" offset="1"/>
  </linearGradient>
  <linearGradient x2="0" y1="62.4" y2="40.42" gradientUnits="userSpaceOnUse" id="linearGradient3812" gradientTransform="matrix(16.75 0 0 -16.75 2689.9 -277.29)">
   <stop stop-color="#d35fbc"/>
   <stop stop-color="#d35fbc" stop-opacity="0" offset="1"/>
  </linearGradient>
  <linearGradient x2="0" y1="66.21" y2="32.08" gradientUnits="userSpaceOnUse" id="linearGradient3814" gradientTransform="matrix(16.75 0 0 -16.75 2689.9 -277.29)">
   <stop stop-color="#8d5fd3"/>
   <stop stop-color="#8d5fd3" stop-opacity="0" offset="1"/>
  </linearGradient>
  <linearGradient x2="0" y1="54.06" y2="23.2" gradientUnits="userSpaceOnUse" id="linearGradient3816" gradientTransform="matrix(16.75 0 0 -16.75 2689.9 -277.29)">
   <stop stop-color="#59f"/>
   <stop stop-color="#59f" stop-opacity="0" offset="1"/>
  </linearGradient>
  <linearGradient x2="0" y1="68.961" y2="46.717" gradientUnits="userSpaceOnUse" id="linearGradient3818" gradientTransform="matrix(16.75 0 0 -16.75 2689.9 -277.29)">
   <stop stop-color="#37abc8"/>
   <stop stop-color="#37abc8" stop-opacity="0" offset="1"/>
  </linearGradient>
  <linearGradient x2="0" y1="64.16" y2="37.39" gradientUnits="userSpaceOnUse" id="linearGradient3820" gradientTransform="matrix(16.75 0 0 -16.75 2689.9 -277.29)">
   <stop stop-color="#70e4cd"/>
   <stop stop-color="#70e4cd" stop-opacity="0" offset="1"/>
  </linearGradient>
  <linearGradient x2="0" y1="60.879" y2="12.37" gradientUnits="userSpaceOnUse" id="linearGradient3822" gradientTransform="matrix(16.75 0 0 -16.75 2689.9 -277.29)">
   <stop stop-color="#53df53"/>
   <stop stop-color="#53df53" stop-opacity="0" offset="1"/>
  </linearGradient>
  <linearGradient x2="0" y1="65.68" y2="27.465" gradientUnits="userSpaceOnUse" id="linearGradient3824" gradientTransform="matrix(16.75 0 0 -16.75 2689.9 -277.29)">
   <stop stop-color="#aad400"/>
   <stop stop-color="#aad400" stop-opacity="0" offset="1"/>
  </linearGradient>
  <linearGradient x2="0" y1="63.91" y2="35.09" gradientUnits="userSpaceOnUse" id="linearGradient3826" gradientTransform="matrix(16.75 0 0 -16.75 2689.9 -277.29)">
   <stop stop-color="#ffd42a"/>
   <stop stop-color="#ffd42a" stop-opacity="0" offset="1"/>
  </linearGradient>
  <linearGradient x2="0" y1="60.12" y2="18.954" gradientUnits="userSpaceOnUse" id="linearGradient3828" gradientTransform="matrix(16.75 0 0 -16.75 2689.9 -277.29)">
   <stop stop-color="#ff992a"/>
   <stop stop-color="#ff992a" stop-opacity="0" offset="1"/>
  </linearGradient>
  <linearGradient x2="0" y1="58.35" y2="40.42" gradientUnits="userSpaceOnUse" id="linearGradient3830" gradientTransform="matrix(16.75 0 0 -16.75 2689.9 -277.29)">
   <stop stop-color="#f60"/>
   <stop stop-color="#f60" stop-opacity="0" offset="1"/>
  </linearGradient>
  <linearGradient x2="0" y1="60.879" y2="34.36" gradientUnits="userSpaceOnUse" id="linearGradient3832" gradientTransform="matrix(16.75 0 0 -16.75 2689.9 -277.29)">
   <stop stop-color="#d40000"/>
   <stop stop-color="#d40000" stop-opacity="0" offset="1"/>
  </linearGradient>
 </defs>
 <g transform="matrix(1 0 0 1 0 -956.36)">
  <rect x="2" rx="25" y="958.36" fill="#1a1a1a" height="92" width="92"/>
  <rect x="-96" rx="25" y="958.36" clip-path="url(#clipPath3009)" fill="#fff" height="92" opacity="0.15" width="92" transform="matrix(1 0 0 1 98 0)"/>
  <g transform="matrix(-0.04675 0 0 -0.0463 211.47 954.89)">
   <path d="m2807.2-377.79c-9.2793 0-16.75-7.4704-16.75-16.75v-33.499c0-9.2793 7.4703-16.75 16.75-16.75h66.998c9.2793 0 16.75 7.4703 16.75 16.75v33.499c0 9.2793-7.4703 16.75-16.75 16.75h-66.998zm0-83.748c-9.2793 0-16.75-7.4704-16.75-16.75v-33.499c0-9.2793 7.4703-16.75 16.75-16.75h66.998c9.2793 0 16.75 7.4703 16.75 16.75v33.499c0 9.2793-7.4703 16.75-16.75 16.75h-66.998zm0-83.748c-9.2793 0-16.75-7.4704-16.75-16.75v-33.499c0-9.2793 7.4703-16.75 16.75-16.75h66.998c9.2793 0 16.75 7.4703 16.75 16.75v33.499c0 9.2793-7.4703 16.75-16.75 16.75h-66.998zm0-83.748c-9.2793 0-16.75-7.4703-16.75-16.75v-33.499c0-9.2793 7.4703-16.75 16.75-16.75h66.998c9.2793 0 16.75 7.4703 16.75 16.75v33.499c0 9.2793-7.4703 16.75-16.75 16.75h-66.998zm0-83.748c-9.2793 0-16.75-7.4703-16.75-16.75v-33.499c0-9.2793 7.4703-16.75 16.75-16.75h66.998c9.2793 0 16.75 7.4703 16.75 16.75v33.499c0 9.2793-7.4703 16.75-16.75 16.75h-66.998zm0-83.748c-9.2793 0-16.75-7.4703-16.75-16.75v-33.499c0-9.2793 7.4703-16.75 16.75-16.75h66.998c9.2793 0 16.75 7.4703 16.75 16.75v33.499c0 9.2793-7.4703 16.75-16.75 16.75h-66.998zm0-83.748c-9.2793 0-16.75-7.4703-16.75-16.75v-33.499c0-9.2793 7.4703-16.75 16.75-16.75h66.998c9.2793 0 16.75 7.4703 16.75 16.75v33.499c0 9.2793-7.4703 16.75-16.75 16.75h-66.998zm0-83.748c-9.2793 0-16.75-7.4703-16.75-16.75v-33.499c0-9.2793 7.4703-16.75 16.75-16.75h66.998c9.2793 0 16.75 7.4703 16.75 16.75v33.499c0 9.2793-7.4703 16.75-16.75 16.75h-66.998zm0-83.748c-9.2793 0-16.75-7.4703-16.75-16.75v-33.499c0-9.2793 7.4703-16.75 16.75-16.75h66.998c9.2793 0 16.75 7.4703 16.75 16.75v33.499c0 9.2793-7.4703 16.75-16.75 16.75h-66.998zm0-83.748c-9.2793 0-16.75-7.4703-16.75-16.75v-33.499c0-9.2793 7.4703-16.75 16.75-16.75h66.998c9.2793 0 16.75 7.4704 16.75 16.75v33.499c0 9.2793-7.4703 16.75-16.75 16.75h-66.998zm0-83.748c-9.2793 0-16.75-7.4703-16.75-16.75v-33.499c0-9.2793 7.4703-16.75 16.75-16.75h66.998c9.2793 0 16.75 7.4704 16.75 16.75v33.499c0 9.2793-7.4703 16.75-16.75 16.75h-66.998zm0-83.748c-9.2793 0-16.75-7.4703-16.75-16.75v-33.499c0-9.2793 7.4703-16.75 16.75-16.75h66.998c9.2793 0 16.75 7.4704 16.75 16.75v33.499c0 9.2793-7.4703 16.75-16.75 16.75h-66.998zm0-83.748c-9.2793 0-16.75-7.4703-16.75-16.75v-33.499c0-9.2793 7.4703-16.75 16.75-16.75h66.998c9.2793 0 16.75 7.4704 16.75 16.75v33.499c0 9.2793-7.4703 16.75-16.75 16.75h-66.998zm0-83.748c-9.2793 0-16.75-7.4703-16.75-16.75v-33.499c0-9.2793 7.4703-16.75 16.75-16.75h66.998c9.2793 0 16.75 7.4704 16.75 16.75v33.499c0 9.2793-7.4703 16.75-16.75 16.75h-66.998zm0-83.748c-9.2793 0-16.75-7.4703-16.75-16.75v-33.499c0-9.2792 7.4703-16.75 16.75-16.75h66.998c9.2793 0 16.75 7.4704 16.75 16.75v33.499c0 9.2793-7.4703 16.75-16.75 16.75h-66.998zm0-83.748c-9.2793 0-16.75-7.4703-16.75-16.75v-33.499c0-9.2792 7.4703-16.75 16.75-16.75h66.998c9.2793 0 16.75 7.4704 16.75 16.75v33.499c0 9.2793-7.4703 16.75-16.75 16.75h-66.998zm0-83.748c-9.2793 0-16.75-7.4703-16.75-16.75v-33.499c0-9.2793 7.4703-16.75 16.75-16.75h66.998c9.2793 0 16.75 7.4703 16.75 16.75v33.499c0 9.2793-7.4703 16.75-16.75 16.75h-66.998z" fill="url(#linearGradient3810)"/>
   <path d="m2924.4-377.79c-9.2793 0-16.75-7.4704-16.75-16.75v-33.499c0-9.2793 7.4703-16.75 16.75-16.75h66.998c9.2793 0 16.75 7.4703 16.75 16.75v33.499c0 9.2793-7.4703 16.75-16.75 16.75h-66.998zm0-83.748c-9.2793 0-16.75-7.4704-16.75-16.75v-33.499c0-9.2793 7.4703-16.75 16.75-16.75h66.998c9.2793 0 16.75 7.4703 16.75 16.75v33.499c0 9.2793-7.4703 16.75-16.75 16.75h-66.998zm0-83.748c-9.2793 0-16.75-7.4704-16.75-16.75v-33.499c0-9.2793 7.4703-16.75 16.75-16.75h66.998c9.2793 0 16.75 7.4703 16.75 16.75v33.499c0 9.2793-7.4703 16.75-16.75 16.75h-66.998zm0-83.748c-9.2793 0-16.75-7.4703-16.75-16.75v-33.499c0-9.2793 7.4703-16.75 16.75-16.75h66.998c9.2793 0 16.75 7.4703 16.75 16.75v33.499c0 9.2793-7.4703 16.75-16.75 16.75h-66.998zm0-83.748c-9.2793 0-16.75-7.4703-16.75-16.75v-33.499c0-9.2793 7.4703-16.75 16.75-16.75h66.998c9.2793 0 16.75 7.4703 16.75 16.75v33.499c0 9.2793-7.4703 16.75-16.75 16.75h-66.998zm0-83.748c-9.2793 0-16.75-7.4703-16.75-16.75v-33.499c0-9.2793 7.4703-16.75 16.75-16.75h66.998c9.2793 0 16.75 7.4703 16.75 16.75v33.499c0 9.2793-7.4703 16.75-16.75 16.75h-66.998zm0-83.748c-9.2793 0-16.75-7.4703-16.75-16.75v-33.499c0-9.2793 7.4703-16.75 16.75-16.75h66.998c9.2793 0 16.75 7.4703 16.75 16.75v33.499c0 9.2793-7.4703 16.75-16.75 16.75h-66.998zm0-83.748c-9.2793 0-16.75-7.4703-16.75-16.75v-33.499c0-9.2793 7.4703-16.75 16.75-16.75h66.998c9.2793 0 16.75 7.4703 16.75 16.75v33.499c0 9.2793-7.4703 16.75-16.75 16.75h-66.998zm0-83.748c-9.2793 0-16.75-7.4703-16.75-16.75v-33.499c0-9.2793 7.4703-16.75 16.75-16.75h66.998c9.2793 0 16.75 7.4703 16.75 16.75v33.499c0 9.2793-7.4703 16.75-16.75 16.75h-66.998zm0-83.748c-9.2793 0-16.75-7.4703-16.75-16.75v-33.499c0-9.2793 7.4703-16.75 16.75-16.75h66.998c9.2793 0 16.75 7.4704 16.75 16.75v33.499c0 9.2793-7.4703 16.75-16.75 16.75h-66.998zm0-83.748c-9.2793 0-16.75-7.4703-16.75-16.75v-33.499c0-9.2793 7.4703-16.75 16.75-16.75h66.998c9.2793 0 16.75 7.4704 16.75 16.75v33.499c0 9.2793-7.4703 16.75-16.75 16.75h-66.998zm0-83.748c-9.2793 0-16.75-7.4703-16.75-16.75v-33.499c0-9.2793 7.4703-16.75 16.75-16.75h66.998c9.2793 0 16.75 7.4704 16.75 16.75v33.499c0 9.2793-7.4703 16.75-16.75 16.75h-66.998zm0-83.748c-9.2793 0-16.75-7.4703-16.75-16.75v-33.499c0-9.2793 7.4703-16.75 16.75-16.75h66.998c9.2793 0 16.75 7.4704 16.75 16.75v33.499c0 9.2793-7.4703 16.75-16.75 16.75h-66.998zm0-83.748c-9.2793 0-16.75-7.4703-16.75-16.75v-33.499c0-9.2793 7.4703-16.75 16.75-16.75h66.998c9.2793 0 16.75 7.4704 16.75 16.75v33.499c0 9.2793-7.4703 16.75-16.75 16.75h-66.998zm0-83.748c-9.2793 0-16.75-7.4703-16.75-16.75v-33.499c0-9.2792 7.4703-16.75 16.75-16.75h66.998c9.2793 0 16.75 7.4704 16.75 16.75v33.499c0 9.2793-7.4703 16.75-16.75 16.75h-66.998zm0-83.748c-9.2793 0-16.75-7.4703-16.75-16.75v-33.499c0-9.2792 7.4703-16.75 16.75-16.75h66.998c9.2793 0 16.75 7.4704 16.75 16.75v33.499c0 9.2793-7.4703 16.75-16.75 16.75h-66.998zm0-83.748c-9.2793 0-16.75-7.4703-16.75-16.75v-33.499c0-9.2793 7.4703-16.75 16.75-16.75h66.998c9.2793 0 16.75 7.4703 16.75 16.75v33.499c0 9.2793-7.4703 16.75-16.75 16.75h-66.998z" fill="url(#linearGradient3812)"/>
   <path d="m3041.6-377.79c-9.2793 0-16.75-7.4704-16.75-16.75v-33.499c0-9.2793 7.4703-16.75 16.75-16.75h66.998c9.2793 0 16.75 7.4703 16.75 16.75v33.499c0 9.2793-7.4703 16.75-16.75 16.75h-66.998zm0-83.748c-9.2793 0-16.75-7.4704-16.75-16.75v-33.499c0-9.2793 7.4703-16.75 16.75-16.75h66.998c9.2793 0 16.75 7.4703 16.75 16.75v33.499c0 9.2793-7.4703 16.75-16.75 16.75h-66.998zm0-83.748c-9.2793 0-16.75-7.4704-16.75-16.75v-33.499c0-9.2793 7.4703-16.75 16.75-16.75h66.998c9.2793 0 16.75 7.4703 16.75 16.75v33.499c0 9.2793-7.4703 16.75-16.75 16.75h-66.998zm0-83.748c-9.2793 0-16.75-7.4703-16.75-16.75v-33.499c0-9.2793 7.4703-16.75 16.75-16.75h66.998c9.2793 0 16.75 7.4703 16.75 16.75v33.499c0 9.2793-7.4703 16.75-16.75 16.75h-66.998zm0-83.748c-9.2793 0-16.75-7.4703-16.75-16.75v-33.499c0-9.2793 7.4703-16.75 16.75-16.75h66.998c9.2793 0 16.75 7.4703 16.75 16.75v33.499c0 9.2793-7.4703 16.75-16.75 16.75h-66.998zm0-83.748c-9.2793 0-16.75-7.4703-16.75-16.75v-33.499c0-9.2793 7.4703-16.75 16.75-16.75h66.998c9.2793 0 16.75 7.4703 16.75 16.75v33.499c0 9.2793-7.4703 16.75-16.75 16.75h-66.998zm0-83.748c-9.2793 0-16.75-7.4703-16.75-16.75v-33.499c0-9.2793 7.4703-16.75 16.75-16.75h66.998c9.2793 0 16.75 7.4703 16.75 16.75v33.499c0 9.2793-7.4703 16.75-16.75 16.75h-66.998zm0-83.748c-9.2793 0-16.75-7.4703-16.75-16.75v-33.499c0-9.2793 7.4703-16.75 16.75-16.75h66.998c9.2793 0 16.75 7.4703 16.75 16.75v33.499c0 9.2793-7.4703 16.75-16.75 16.75h-66.998zm0-83.748c-9.2793 0-16.75-7.4703-16.75-16.75v-33.499c0-9.2793 7.4703-16.75 16.75-16.75h66.998c9.2793 0 16.75 7.4703 16.75 16.75v33.499c0 9.2793-7.4703 16.75-16.75 16.75h-66.998zm0-83.748c-9.2793 0-16.75-7.4703-16.75-16.75v-33.499c0-9.2793 7.4703-16.75 16.75-16.75h66.998c9.2793 0 16.75 7.4704 16.75 16.75v33.499c0 9.2793-7.4703 16.75-16.75 16.75h-66.998zm0-83.748c-9.2793 0-16.75-7.4703-16.75-16.75v-33.499c0-9.2793 7.4703-16.75 16.75-16.75h66.998c9.2793 0 16.75 7.4704 16.75 16.75v33.499c0 9.2793-7.4703 16.75-16.75 16.75h-66.998zm0-83.748c-9.2793 0-16.75-7.4703-16.75-16.75v-33.499c0-9.2793 7.4703-16.75 16.75-16.75h66.998c9.2793 0 16.75 7.4704 16.75 16.75v33.499c0 9.2793-7.4703 16.75-16.75 16.75h-66.998zm0-83.748c-9.2793 0-16.75-7.4703-16.75-16.75v-33.499c0-9.2793 7.4703-16.75 16.75-16.75h66.998c9.2793 0 16.75 7.4704 16.75 16.75v33.499c0 9.2793-7.4703 16.75-16.75 16.75h-66.998zm0-83.748c-9.2793 0-16.75-7.4703-16.75-16.75v-33.499c0-9.2793 7.4703-16.75 16.75-16.75h66.998c9.2793 0 16.75 7.4704 16.75 16.75v33.499c0 9.2793-7.4703 16.75-16.75 16.75h-66.998zm0-83.748c-9.2793 0-16.75-7.4703-16.75-16.75v-33.499c0-9.2792 7.4703-16.75 16.75-16.75h66.998c9.2793 0 16.75 7.4704 16.75 16.75v33.499c0 9.2793-7.4703 16.75-16.75 16.75h-66.998zm0-83.748c-9.2793 0-16.75-7.4703-16.75-16.75v-33.499c0-9.2792 7.4703-16.75 16.75-16.75h66.998c9.2793 0 16.75 7.4704 16.75 16.75v33.499c0 9.2793-7.4703 16.75-16.75 16.75h-66.998zm0-83.748c-9.2793 0-16.75-7.4703-16.75-16.75v-33.499c0-9.2793 7.4703-16.75 16.75-16.75h66.998c9.2793 0 16.75 7.4703 16.75 16.75v33.499c0 9.2793-7.4703 16.75-16.75 16.75h-66.998z" fill="url(#linearGradient3814)"/>
   <path d="m3158.9-377.79c-9.2793 0-16.75-7.4704-16.75-16.75v-33.499c0-9.2793 7.4703-16.75 16.75-16.75h66.998c9.2793 0 16.75 7.4703 16.75 16.75v33.499c0 9.2793-7.4703 16.75-16.75 16.75h-66.998zm0-83.748c-9.2793 0-16.75-7.4704-16.75-16.75v-33.499c0-9.2793 7.4703-16.75 16.75-16.75h66.998c9.2793 0 16.75 7.4703 16.75 16.75v33.499c0 9.2793-7.4703 16.75-16.75 16.75h-66.998zm0-83.748c-9.2793 0-16.75-7.4704-16.75-16.75v-33.499c0-9.2793 7.4703-16.75 16.75-16.75h66.998c9.2793 0 16.75 7.4703 16.75 16.75v33.499c0 9.2793-7.4703 16.75-16.75 16.75h-66.998zm0-83.748c-9.2793 0-16.75-7.4703-16.75-16.75v-33.499c0-9.2793 7.4703-16.75 16.75-16.75h66.998c9.2793 0 16.75 7.4703 16.75 16.75v33.499c0 9.2793-7.4703 16.75-16.75 16.75h-66.998zm0-83.748c-9.2793 0-16.75-7.4703-16.75-16.75v-33.499c0-9.2793 7.4703-16.75 16.75-16.75h66.998c9.2793 0 16.75 7.4703 16.75 16.75v33.499c0 9.2793-7.4703 16.75-16.75 16.75h-66.998zm0-83.748c-9.2793 0-16.75-7.4703-16.75-16.75v-33.499c0-9.2793 7.4703-16.75 16.75-16.75h66.998c9.2793 0 16.75 7.4703 16.75 16.75v33.499c0 9.2793-7.4703 16.75-16.75 16.75h-66.998zm0-83.748c-9.2793 0-16.75-7.4703-16.75-16.75v-33.499c0-9.2793 7.4703-16.75 16.75-16.75h66.998c9.2793 0 16.75 7.4703 16.75 16.75v33.499c0 9.2793-7.4703 16.75-16.75 16.75h-66.998zm0-83.748c-9.2793 0-16.75-7.4703-16.75-16.75v-33.499c0-9.2793 7.4703-16.75 16.75-16.75h66.998c9.2793 0 16.75 7.4703 16.75 16.75v33.499c0 9.2793-7.4703 16.75-16.75 16.75h-66.998zm0-83.748c-9.2793 0-16.75-7.4703-16.75-16.75v-33.499c0-9.2793 7.4703-16.75 16.75-16.75h66.998c9.2793 0 16.75 7.4703 16.75 16.75v33.499c0 9.2793-7.4703 16.75-16.75 16.75h-66.998zm0-83.748c-9.2793 0-16.75-7.4703-16.75-16.75v-33.499c0-9.2793 7.4703-16.75 16.75-16.75h66.998c9.2793 0 16.75 7.4704 16.75 16.75v33.499c0 9.2793-7.4703 16.75-16.75 16.75h-66.998zm0-83.748c-9.2793 0-16.75-7.4703-16.75-16.75v-33.499c0-9.2793 7.4703-16.75 16.75-16.75h66.998c9.2793 0 16.75 7.4704 16.75 16.75v33.499c0 9.2793-7.4703 16.75-16.75 16.75h-66.998zm0-83.748c-9.2793 0-16.75-7.4703-16.75-16.75v-33.499c0-9.2793 7.4703-16.75 16.75-16.75h66.998c9.2793 0 16.75 7.4704 16.75 16.75v33.499c0 9.2793-7.4703 16.75-16.75 16.75h-66.998zm0-83.748c-9.2793 0-16.75-7.4703-16.75-16.75v-33.499c0-9.2793 7.4703-16.75 16.75-16.75h66.998c9.2793 0 16.75 7.4704 16.75 16.75v33.499c0 9.2793-7.4703 16.75-16.75 16.75h-66.998zm0-83.748c-9.2793 0-16.75-7.4703-16.75-16.75v-33.499c0-9.2793 7.4703-16.75 16.75-16.75h66.998c9.2793 0 16.75 7.4704 16.75 16.75v33.499c0 9.2793-7.4703 16.75-16.75 16.75h-66.998zm0-83.748c-9.2793 0-16.75-7.4703-16.75-16.75v-33.499c0-9.2792 7.4703-16.75 16.75-16.75h66.998c9.2793 0 16.75 7.4704 16.75 16.75v33.499c0 9.2793-7.4703 16.75-16.75 16.75h-66.998zm0-83.748c-9.2793 0-16.75-7.4703-16.75-16.75v-33.499c0-9.2792 7.4703-16.75 16.75-16.75h66.998c9.2793 0 16.75 7.4704 16.75 16.75v33.499c0 9.2793-7.4703 16.75-16.75 16.75h-66.998zm0-83.748c-9.2793 0-16.75-7.4703-16.75-16.75v-33.499c0-9.2793 7.4703-16.75 16.75-16.75h66.998c9.2793 0 16.75 7.4703 16.75 16.75v33.499c0 9.2793-7.4703 16.75-16.75 16.75h-66.998z" fill="url(#linearGradient3816)"/>
   <path d="m3276.1-377.79c-9.2793 0-16.75-7.4704-16.75-16.75v-33.499c0-9.2793 7.4703-16.75 16.75-16.75h66.998c9.2793 0 16.75 7.4703 16.75 16.75v33.499c0 9.2793-7.4703 16.75-16.75 16.75h-66.998zm0-83.748c-9.2793 0-16.75-7.4704-16.75-16.75v-33.499c0-9.2793 7.4703-16.75 16.75-16.75h66.998c9.2793 0 16.75 7.4703 16.75 16.75v33.499c0 9.2793-7.4703 16.75-16.75 16.75h-66.998zm0-83.748c-9.2793 0-16.75-7.4704-16.75-16.75v-33.499c0-9.2793 7.4703-16.75 16.75-16.75h66.998c9.2793 0 16.75 7.4703 16.75 16.75v33.499c0 9.2793-7.4703 16.75-16.75 16.75h-66.998zm0-83.748c-9.2793 0-16.75-7.4703-16.75-16.75v-33.499c0-9.2793 7.4703-16.75 16.75-16.75h66.998c9.2793 0 16.75 7.4703 16.75 16.75v33.499c0 9.2793-7.4703 16.75-16.75 16.75h-66.998zm0-83.748c-9.2793 0-16.75-7.4703-16.75-16.75v-33.499c0-9.2793 7.4703-16.75 16.75-16.75h66.998c9.2793 0 16.75 7.4703 16.75 16.75v33.499c0 9.2793-7.4703 16.75-16.75 16.75h-66.998zm0-83.748c-9.2793 0-16.75-7.4703-16.75-16.75v-33.499c0-9.2793 7.4703-16.75 16.75-16.75h66.998c9.2793 0 16.75 7.4703 16.75 16.75v33.499c0 9.2793-7.4703 16.75-16.75 16.75h-66.998zm0-83.748c-9.2793 0-16.75-7.4703-16.75-16.75v-33.499c0-9.2793 7.4703-16.75 16.75-16.75h66.998c9.2793 0 16.75 7.4703 16.75 16.75v33.499c0 9.2793-7.4703 16.75-16.75 16.75h-66.998zm0-83.748c-9.2793 0-16.75-7.4703-16.75-16.75v-33.499c0-9.2793 7.4703-16.75 16.75-16.75h66.998c9.2793 0 16.75 7.4703 16.75 16.75v33.499c0 9.2793-7.4703 16.75-16.75 16.75h-66.998zm0-83.748c-9.2793 0-16.75-7.4703-16.75-16.75v-33.499c0-9.2793 7.4703-16.75 16.75-16.75h66.998c9.2793 0 16.75 7.4703 16.75 16.75v33.499c0 9.2793-7.4703 16.75-16.75 16.75h-66.998zm0-83.748c-9.2793 0-16.75-7.4703-16.75-16.75v-33.499c0-9.2793 7.4703-16.75 16.75-16.75h66.998c9.2793 0 16.75 7.4704 16.75 16.75v33.499c0 9.2793-7.4703 16.75-16.75 16.75h-66.998zm0-83.748c-9.2793 0-16.75-7.4703-16.75-16.75v-33.499c0-9.2793 7.4703-16.75 16.75-16.75h66.998c9.2793 0 16.75 7.4704 16.75 16.75v33.499c0 9.2793-7.4703 16.75-16.75 16.75h-66.998zm0-83.748c-9.2793 0-16.75-7.4703-16.75-16.75v-33.499c0-9.2793 7.4703-16.75 16.75-16.75h66.998c9.2793 0 16.75 7.4704 16.75 16.75v33.499c0 9.2793-7.4703 16.75-16.75 16.75h-66.998zm0-83.748c-9.2793 0-16.75-7.4703-16.75-16.75v-33.499c0-9.2793 7.4703-16.75 16.75-16.75h66.998c9.2793 0 16.75 7.4704 16.75 16.75v33.499c0 9.2793-7.4703 16.75-16.75 16.75h-66.998zm0-83.748c-9.2793 0-16.75-7.4703-16.75-16.75v-33.499c0-9.2793 7.4703-16.75 16.75-16.75h66.998c9.2793 0 16.75 7.4704 16.75 16.75v33.499c0 9.2793-7.4703 16.75-16.75 16.75h-66.998zm0-83.748c-9.2793 0-16.75-7.4703-16.75-16.75v-33.499c0-9.2792 7.4703-16.75 16.75-16.75h66.998c9.2793 0 16.75 7.4704 16.75 16.75v33.499c0 9.2793-7.4703 16.75-16.75 16.75h-66.998zm0-83.748c-9.2793 0-16.75-7.4703-16.75-16.75v-33.499c0-9.2792 7.4703-16.75 16.75-16.75h66.998c9.2793 0 16.75 7.4704 16.75 16.75v33.499c0 9.2793-7.4703 16.75-16.75 16.75h-66.998zm0-83.748c-9.2793 0-16.75-7.4703-16.75-16.75v-33.499c0-9.2793 7.4703-16.75 16.75-16.75h66.998c9.2793 0 16.75 7.4703 16.75 16.75v33.499c0 9.2793-7.4703 16.75-16.75 16.75h-66.998z" fill="url(#linearGradient3818)"/>
   <path d="m3393.4-377.79c-9.2793 0-16.75-7.4704-16.75-16.75v-33.499c0-9.2793 7.4704-16.75 16.75-16.75h66.998c9.2792 0 16.75 7.4703 16.75 16.75v33.499c0 9.2793-7.4704 16.75-16.75 16.75h-66.998zm0-83.748c-9.2793 0-16.75-7.4704-16.75-16.75v-33.499c0-9.2793 7.4704-16.75 16.75-16.75h66.998c9.2792 0 16.75 7.4703 16.75 16.75v33.499c0 9.2793-7.4704 16.75-16.75 16.75h-66.998zm0-83.748c-9.2793 0-16.75-7.4704-16.75-16.75v-33.499c0-9.2793 7.4704-16.75 16.75-16.75h66.998c9.2792 0 16.75 7.4703 16.75 16.75v33.499c0 9.2793-7.4704 16.75-16.75 16.75h-66.998zm0-83.748c-9.2793 0-16.75-7.4703-16.75-16.75v-33.499c0-9.2793 7.4704-16.75 16.75-16.75h66.998c9.2792 0 16.75 7.4703 16.75 16.75v33.499c0 9.2793-7.4704 16.75-16.75 16.75h-66.998zm0-83.748c-9.2793 0-16.75-7.4703-16.75-16.75v-33.499c0-9.2793 7.4704-16.75 16.75-16.75h66.998c9.2792 0 16.75 7.4703 16.75 16.75v33.499c0 9.2793-7.4704 16.75-16.75 16.75h-66.998zm0-83.748c-9.2793 0-16.75-7.4703-16.75-16.75v-33.499c0-9.2793 7.4704-16.75 16.75-16.75h66.998c9.2792 0 16.75 7.4703 16.75 16.75v33.499c0 9.2793-7.4704 16.75-16.75 16.75h-66.998zm0-83.748c-9.2793 0-16.75-7.4703-16.75-16.75v-33.499c0-9.2793 7.4704-16.75 16.75-16.75h66.998c9.2792 0 16.75 7.4703 16.75 16.75v33.499c0 9.2793-7.4704 16.75-16.75 16.75h-66.998zm0-83.748c-9.2793 0-16.75-7.4703-16.75-16.75v-33.499c0-9.2793 7.4704-16.75 16.75-16.75h66.998c9.2792 0 16.75 7.4703 16.75 16.75v33.499c0 9.2793-7.4704 16.75-16.75 16.75h-66.998zm0-83.748c-9.2793 0-16.75-7.4703-16.75-16.75v-33.499c0-9.2793 7.4704-16.75 16.75-16.75h66.998c9.2792 0 16.75 7.4703 16.75 16.75v33.499c0 9.2793-7.4704 16.75-16.75 16.75h-66.998zm0-83.748c-9.2793 0-16.75-7.4703-16.75-16.75v-33.499c0-9.2793 7.4704-16.75 16.75-16.75h66.998c9.2792 0 16.75 7.4704 16.75 16.75v33.499c0 9.2793-7.4704 16.75-16.75 16.75h-66.998zm0-83.748c-9.2793 0-16.75-7.4703-16.75-16.75v-33.499c0-9.2793 7.4704-16.75 16.75-16.75h66.998c9.2792 0 16.75 7.4704 16.75 16.75v33.499c0 9.2793-7.4704 16.75-16.75 16.75h-66.998zm0-83.748c-9.2793 0-16.75-7.4703-16.75-16.75v-33.499c0-9.2793 7.4704-16.75 16.75-16.75h66.998c9.2792 0 16.75 7.4704 16.75 16.75v33.499c0 9.2793-7.4704 16.75-16.75 16.75h-66.998zm0-83.748c-9.2793 0-16.75-7.4703-16.75-16.75v-33.499c0-9.2793 7.4704-16.75 16.75-16.75h66.998c9.2792 0 16.75 7.4704 16.75 16.75v33.499c0 9.2793-7.4704 16.75-16.75 16.75h-66.998zm0-83.748c-9.2793 0-16.75-7.4703-16.75-16.75v-33.499c0-9.2793 7.4704-16.75 16.75-16.75h66.998c9.2792 0 16.75 7.4704 16.75 16.75v33.499c0 9.2793-7.4704 16.75-16.75 16.75h-66.998zm0-83.748c-9.2793 0-16.75-7.4703-16.75-16.75v-33.499c0-9.2792 7.4704-16.75 16.75-16.75h66.998c9.2792 0 16.75 7.4704 16.75 16.75v33.499c0 9.2793-7.4704 16.75-16.75 16.75h-66.998zm0-83.748c-9.2793 0-16.75-7.4703-16.75-16.75v-33.499c0-9.2792 7.4704-16.75 16.75-16.75h66.998c9.2792 0 16.75 7.4704 16.75 16.75v33.499c0 9.2793-7.4704 16.75-16.75 16.75h-66.998zm0-83.748c-9.2793 0-16.75-7.4703-16.75-16.75v-33.499c0-9.2793 7.4704-16.75 16.75-16.75h66.998c9.2792 0 16.75 7.4703 16.75 16.75v33.499c0 9.2793-7.4704 16.75-16.75 16.75h-66.998z" fill="url(#linearGradient3820)"/>
   <path d="m3510.6-377.79c-9.2793 0-16.75-7.4704-16.75-16.75v-33.499c0-9.2793 7.4703-16.75 16.75-16.75h66.998c9.2793 0 16.75 7.4703 16.75 16.75v33.499c0 9.2793-7.4703 16.75-16.75 16.75h-66.998zm0-83.748c-9.2793 0-16.75-7.4704-16.75-16.75v-33.499c0-9.2793 7.4703-16.75 16.75-16.75h66.998c9.2793 0 16.75 7.4703 16.75 16.75v33.499c0 9.2793-7.4703 16.75-16.75 16.75h-66.998zm0-83.748c-9.2793 0-16.75-7.4704-16.75-16.75v-33.499c0-9.2793 7.4703-16.75 16.75-16.75h66.998c9.2793 0 16.75 7.4703 16.75 16.75v33.499c0 9.2793-7.4703 16.75-16.75 16.75h-66.998zm0-83.748c-9.2793 0-16.75-7.4703-16.75-16.75v-33.499c0-9.2793 7.4703-16.75 16.75-16.75h66.998c9.2793 0 16.75 7.4703 16.75 16.75v33.499c0 9.2793-7.4703 16.75-16.75 16.75h-66.998zm0-83.748c-9.2793 0-16.75-7.4703-16.75-16.75v-33.499c0-9.2793 7.4703-16.75 16.75-16.75h66.998c9.2793 0 16.75 7.4703 16.75 16.75v33.499c0 9.2793-7.4703 16.75-16.75 16.75h-66.998zm0-83.748c-9.2793 0-16.75-7.4703-16.75-16.75v-33.499c0-9.2793 7.4703-16.75 16.75-16.75h66.998c9.2793 0 16.75 7.4703 16.75 16.75v33.499c0 9.2793-7.4703 16.75-16.75 16.75h-66.998zm0-83.748c-9.2793 0-16.75-7.4703-16.75-16.75v-33.499c0-9.2793 7.4703-16.75 16.75-16.75h66.998c9.2793 0 16.75 7.4703 16.75 16.75v33.499c0 9.2793-7.4703 16.75-16.75 16.75h-66.998zm0-83.748c-9.2793 0-16.75-7.4703-16.75-16.75v-33.499c0-9.2793 7.4703-16.75 16.75-16.75h66.998c9.2793 0 16.75 7.4703 16.75 16.75v33.499c0 9.2793-7.4703 16.75-16.75 16.75h-66.998zm0-83.748c-9.2793 0-16.75-7.4703-16.75-16.75v-33.499c0-9.2793 7.4703-16.75 16.75-16.75h66.998c9.2793 0 16.75 7.4703 16.75 16.75v33.499c0 9.2793-7.4703 16.75-16.75 16.75h-66.998zm0-83.748c-9.2793 0-16.75-7.4703-16.75-16.75v-33.499c0-9.2793 7.4703-16.75 16.75-16.75h66.998c9.2793 0 16.75 7.4704 16.75 16.75v33.499c0 9.2793-7.4703 16.75-16.75 16.75h-66.998zm0-83.748c-9.2793 0-16.75-7.4703-16.75-16.75v-33.499c0-9.2793 7.4703-16.75 16.75-16.75h66.998c9.2793 0 16.75 7.4704 16.75 16.75v33.499c0 9.2793-7.4703 16.75-16.75 16.75h-66.998zm0-83.748c-9.2793 0-16.75-7.4703-16.75-16.75v-33.499c0-9.2793 7.4703-16.75 16.75-16.75h66.998c9.2793 0 16.75 7.4704 16.75 16.75v33.499c0 9.2793-7.4703 16.75-16.75 16.75h-66.998zm0-83.748c-9.2793 0-16.75-7.4703-16.75-16.75v-33.499c0-9.2793 7.4703-16.75 16.75-16.75h66.998c9.2793 0 16.75 7.4704 16.75 16.75v33.499c0 9.2793-7.4703 16.75-16.75 16.75h-66.998zm0-83.748c-9.2793 0-16.75-7.4703-16.75-16.75v-33.499c0-9.2793 7.4703-16.75 16.75-16.75h66.998c9.2793 0 16.75 7.4704 16.75 16.75v33.499c0 9.2793-7.4703 16.75-16.75 16.75h-66.998zm0-83.748c-9.2793 0-16.75-7.4703-16.75-16.75v-33.499c0-9.2792 7.4703-16.75 16.75-16.75h66.998c9.2793 0 16.75 7.4704 16.75 16.75v33.499c0 9.2793-7.4703 16.75-16.75 16.75h-66.998zm0-83.748c-9.2793 0-16.75-7.4703-16.75-16.75v-33.499c0-9.2792 7.4703-16.75 16.75-16.75h66.998c9.2793 0 16.75 7.4704 16.75 16.75v33.499c0 9.2793-7.4703 16.75-16.75 16.75h-66.998zm0-83.748c-9.2793 0-16.75-7.4703-16.75-16.75v-33.499c0-9.2793 7.4703-16.75 16.75-16.75h66.998c9.2793 0 16.75 7.4703 16.75 16.75v33.499c0 9.2793-7.4703 16.75-16.75 16.75h-66.998z" fill="url(#linearGradient3822)"/>
   <path d="m3627.9-377.79c-9.2793 0-16.75-7.4704-16.75-16.75v-33.499c0-9.2793 7.4704-16.75 16.75-16.75h66.998c9.2793 0 16.75 7.4703 16.75 16.75v33.499c0 9.2793-7.4704 16.75-16.75 16.75h-66.998zm0-83.748c-9.2793 0-16.75-7.4704-16.75-16.75v-33.499c0-9.2793 7.4704-16.75 16.75-16.75h66.998c9.2793 0 16.75 7.4703 16.75 16.75v33.499c0 9.2793-7.4704 16.75-16.75 16.75h-66.998zm0-83.748c-9.2793 0-16.75-7.4704-16.75-16.75v-33.499c0-9.2793 7.4704-16.75 16.75-16.75h66.998c9.2793 0 16.75 7.4703 16.75 16.75v33.499c0 9.2793-7.4704 16.75-16.75 16.75h-66.998zm0-83.748c-9.2793 0-16.75-7.4703-16.75-16.75v-33.499c0-9.2793 7.4704-16.75 16.75-16.75h66.998c9.2793 0 16.75 7.4703 16.75 16.75v33.499c0 9.2793-7.4704 16.75-16.75 16.75h-66.998zm0-83.748c-9.2793 0-16.75-7.4703-16.75-16.75v-33.499c0-9.2793 7.4704-16.75 16.75-16.75h66.998c9.2793 0 16.75 7.4703 16.75 16.75v33.499c0 9.2793-7.4704 16.75-16.75 16.75h-66.998zm0-83.748c-9.2793 0-16.75-7.4703-16.75-16.75v-33.499c0-9.2793 7.4704-16.75 16.75-16.75h66.998c9.2793 0 16.75 7.4703 16.75 16.75v33.499c0 9.2793-7.4704 16.75-16.75 16.75h-66.998zm0-83.748c-9.2793 0-16.75-7.4703-16.75-16.75v-33.499c0-9.2793 7.4704-16.75 16.75-16.75h66.998c9.2793 0 16.75 7.4703 16.75 16.75v33.499c0 9.2793-7.4704 16.75-16.75 16.75h-66.998zm0-83.748c-9.2793 0-16.75-7.4703-16.75-16.75v-33.499c0-9.2793 7.4704-16.75 16.75-16.75h66.998c9.2793 0 16.75 7.4703 16.75 16.75v33.499c0 9.2793-7.4704 16.75-16.75 16.75h-66.998zm0-83.748c-9.2793 0-16.75-7.4703-16.75-16.75v-33.499c0-9.2793 7.4704-16.75 16.75-16.75h66.998c9.2793 0 16.75 7.4703 16.75 16.75v33.499c0 9.2793-7.4704 16.75-16.75 16.75h-66.998zm0-83.748c-9.2793 0-16.75-7.4703-16.75-16.75v-33.499c0-9.2793 7.4704-16.75 16.75-16.75h66.998c9.2793 0 16.75 7.4704 16.75 16.75v33.499c0 9.2793-7.4704 16.75-16.75 16.75h-66.998zm0-83.748c-9.2793 0-16.75-7.4703-16.75-16.75v-33.499c0-9.2793 7.4704-16.75 16.75-16.75h66.998c9.2793 0 16.75 7.4704 16.75 16.75v33.499c0 9.2793-7.4704 16.75-16.75 16.75h-66.998zm0-83.748c-9.2793 0-16.75-7.4703-16.75-16.75v-33.499c0-9.2793 7.4704-16.75 16.75-16.75h66.998c9.2793 0 16.75 7.4704 16.75 16.75v33.499c0 9.2793-7.4704 16.75-16.75 16.75h-66.998zm0-83.748c-9.2793 0-16.75-7.4703-16.75-16.75v-33.499c0-9.2793 7.4704-16.75 16.75-16.75h66.998c9.2793 0 16.75 7.4704 16.75 16.75v33.499c0 9.2793-7.4704 16.75-16.75 16.75h-66.998zm0-83.748c-9.2793 0-16.75-7.4703-16.75-16.75v-33.499c0-9.2793 7.4704-16.75 16.75-16.75h66.998c9.2793 0 16.75 7.4704 16.75 16.75v33.499c0 9.2793-7.4704 16.75-16.75 16.75h-66.998zm0-83.748c-9.2793 0-16.75-7.4703-16.75-16.75v-33.499c0-9.2792 7.4704-16.75 16.75-16.75h66.998c9.2793 0 16.75 7.4704 16.75 16.75v33.499c0 9.2793-7.4704 16.75-16.75 16.75h-66.998zm0-83.748c-9.2793 0-16.75-7.4703-16.75-16.75v-33.499c0-9.2792 7.4704-16.75 16.75-16.75h66.998c9.2793 0 16.75 7.4704 16.75 16.75v33.499c0 9.2793-7.4704 16.75-16.75 16.75h-66.998zm0-83.748c-9.2793 0-16.75-7.4703-16.75-16.75v-33.499c0-9.2793 7.4704-16.75 16.75-16.75h66.998c9.2793 0 16.75 7.4703 16.75 16.75v33.499c0 9.2793-7.4704 16.75-16.75 16.75h-66.998z" fill="url(#linearGradient3824)"/>
   <path d="m3745.1-377.79c-9.2793 0-16.75-7.4704-16.75-16.75v-33.499c0-9.2793 7.4703-16.75 16.75-16.75h66.998c9.2793 0 16.75 7.4703 16.75 16.75v33.499c0 9.2793-7.4703 16.75-16.75 16.75h-66.998zm0-83.748c-9.2793 0-16.75-7.4704-16.75-16.75v-33.499c0-9.2793 7.4703-16.75 16.75-16.75h66.998c9.2793 0 16.75 7.4703 16.75 16.75v33.499c0 9.2793-7.4703 16.75-16.75 16.75h-66.998zm0-83.748c-9.2793 0-16.75-7.4704-16.75-16.75v-33.499c0-9.2793 7.4703-16.75 16.75-16.75h66.998c9.2793 0 16.75 7.4703 16.75 16.75v33.499c0 9.2793-7.4703 16.75-16.75 16.75h-66.998zm0-83.748c-9.2793 0-16.75-7.4703-16.75-16.75v-33.499c0-9.2793 7.4703-16.75 16.75-16.75h66.998c9.2793 0 16.75 7.4703 16.75 16.75v33.499c0 9.2793-7.4703 16.75-16.75 16.75h-66.998zm0-83.748c-9.2793 0-16.75-7.4703-16.75-16.75v-33.499c0-9.2793 7.4703-16.75 16.75-16.75h66.998c9.2793 0 16.75 7.4703 16.75 16.75v33.499c0 9.2793-7.4703 16.75-16.75 16.75h-66.998zm0-83.748c-9.2793 0-16.75-7.4703-16.75-16.75v-33.499c0-9.2793 7.4703-16.75 16.75-16.75h66.998c9.2793 0 16.75 7.4703 16.75 16.75v33.499c0 9.2793-7.4703 16.75-16.75 16.75h-66.998zm0-83.748c-9.2793 0-16.75-7.4703-16.75-16.75v-33.499c0-9.2793 7.4703-16.75 16.75-16.75h66.998c9.2793 0 16.75 7.4703 16.75 16.75v33.499c0 9.2793-7.4703 16.75-16.75 16.75h-66.998zm0-83.748c-9.2793 0-16.75-7.4703-16.75-16.75v-33.499c0-9.2793 7.4703-16.75 16.75-16.75h66.998c9.2793 0 16.75 7.4703 16.75 16.75v33.499c0 9.2793-7.4703 16.75-16.75 16.75h-66.998zm0-83.748c-9.2793 0-16.75-7.4703-16.75-16.75v-33.499c0-9.2793 7.4703-16.75 16.75-16.75h66.998c9.2793 0 16.75 7.4703 16.75 16.75v33.499c0 9.2793-7.4703 16.75-16.75 16.75h-66.998zm0-83.748c-9.2793 0-16.75-7.4703-16.75-16.75v-33.499c0-9.2793 7.4703-16.75 16.75-16.75h66.998c9.2793 0 16.75 7.4704 16.75 16.75v33.499c0 9.2793-7.4703 16.75-16.75 16.75h-66.998zm0-83.748c-9.2793 0-16.75-7.4703-16.75-16.75v-33.499c0-9.2793 7.4703-16.75 16.75-16.75h66.998c9.2793 0 16.75 7.4704 16.75 16.75v33.499c0 9.2793-7.4703 16.75-16.75 16.75h-66.998zm0-83.748c-9.2793 0-16.75-7.4703-16.75-16.75v-33.499c0-9.2793 7.4703-16.75 16.75-16.75h66.998c9.2793 0 16.75 7.4704 16.75 16.75v33.499c0 9.2793-7.4703 16.75-16.75 16.75h-66.998zm0-83.748c-9.2793 0-16.75-7.4703-16.75-16.75v-33.499c0-9.2793 7.4703-16.75 16.75-16.75h66.998c9.2793 0 16.75 7.4704 16.75 16.75v33.499c0 9.2793-7.4703 16.75-16.75 16.75h-66.998zm0-83.748c-9.2793 0-16.75-7.4703-16.75-16.75v-33.499c0-9.2793 7.4703-16.75 16.75-16.75h66.998c9.2793 0 16.75 7.4704 16.75 16.75v33.499c0 9.2793-7.4703 16.75-16.75 16.75h-66.998zm0-83.748c-9.2793 0-16.75-7.4703-16.75-16.75v-33.499c0-9.2792 7.4703-16.75 16.75-16.75h66.998c9.2793 0 16.75 7.4704 16.75 16.75v33.499c0 9.2793-7.4703 16.75-16.75 16.75h-66.998zm0-83.748c-9.2793 0-16.75-7.4703-16.75-16.75v-33.499c0-9.2792 7.4703-16.75 16.75-16.75h66.998c9.2793 0 16.75 7.4704 16.75 16.75v33.499c0 9.2793-7.4703 16.75-16.75 16.75h-66.998zm0-83.748c-9.2793 0-16.75-7.4703-16.75-16.75v-33.499c0-9.2793 7.4703-16.75 16.75-16.75h66.998c9.2793 0 16.75 7.4703 16.75 16.75v33.499c0 9.2793-7.4703 16.75-16.75 16.75h-66.998z" fill="url(#linearGradient3826)"/>
   <path d="m3862.4-377.79c-9.2792 0-16.75-7.4704-16.75-16.75v-33.499c0-9.2793 7.4704-16.75 16.75-16.75h66.998c9.2793 0 16.75 7.4703 16.75 16.75v33.499c0 9.2793-7.4703 16.75-16.75 16.75h-66.998zm0-83.748c-9.2792 0-16.75-7.4704-16.75-16.75v-33.499c0-9.2793 7.4704-16.75 16.75-16.75h66.998c9.2793 0 16.75 7.4703 16.75 16.75v33.499c0 9.2793-7.4703 16.75-16.75 16.75h-66.998zm0-83.748c-9.2792 0-16.75-7.4704-16.75-16.75v-33.499c0-9.2793 7.4704-16.75 16.75-16.75h66.998c9.2793 0 16.75 7.4703 16.75 16.75v33.499c0 9.2793-7.4703 16.75-16.75 16.75h-66.998zm0-83.748c-9.2792 0-16.75-7.4703-16.75-16.75v-33.499c0-9.2793 7.4704-16.75 16.75-16.75h66.998c9.2793 0 16.75 7.4703 16.75 16.75v33.499c0 9.2793-7.4703 16.75-16.75 16.75h-66.998zm0-83.748c-9.2792 0-16.75-7.4703-16.75-16.75v-33.499c0-9.2793 7.4704-16.75 16.75-16.75h66.998c9.2793 0 16.75 7.4703 16.75 16.75v33.499c0 9.2793-7.4703 16.75-16.75 16.75h-66.998zm0-83.748c-9.2792 0-16.75-7.4703-16.75-16.75v-33.499c0-9.2793 7.4704-16.75 16.75-16.75h66.998c9.2793 0 16.75 7.4703 16.75 16.75v33.499c0 9.2793-7.4703 16.75-16.75 16.75h-66.998zm0-83.748c-9.2792 0-16.75-7.4703-16.75-16.75v-33.499c0-9.2793 7.4704-16.75 16.75-16.75h66.998c9.2793 0 16.75 7.4703 16.75 16.75v33.499c0 9.2793-7.4703 16.75-16.75 16.75h-66.998zm0-83.748c-9.2792 0-16.75-7.4703-16.75-16.75v-33.499c0-9.2793 7.4704-16.75 16.75-16.75h66.998c9.2793 0 16.75 7.4703 16.75 16.75v33.499c0 9.2793-7.4703 16.75-16.75 16.75h-66.998zm0-83.748c-9.2792 0-16.75-7.4703-16.75-16.75v-33.499c0-9.2793 7.4704-16.75 16.75-16.75h66.998c9.2793 0 16.75 7.4703 16.75 16.75v33.499c0 9.2793-7.4703 16.75-16.75 16.75h-66.998zm0-83.748c-9.2792 0-16.75-7.4703-16.75-16.75v-33.499c0-9.2793 7.4704-16.75 16.75-16.75h66.998c9.2793 0 16.75 7.4704 16.75 16.75v33.499c0 9.2793-7.4703 16.75-16.75 16.75h-66.998zm0-83.748c-9.2792 0-16.75-7.4703-16.75-16.75v-33.499c0-9.2793 7.4704-16.75 16.75-16.75h66.998c9.2793 0 16.75 7.4704 16.75 16.75v33.499c0 9.2793-7.4703 16.75-16.75 16.75h-66.998zm0-83.748c-9.2792 0-16.75-7.4703-16.75-16.75v-33.499c0-9.2793 7.4704-16.75 16.75-16.75h66.998c9.2793 0 16.75 7.4704 16.75 16.75v33.499c0 9.2793-7.4703 16.75-16.75 16.75h-66.998zm0-83.748c-9.2792 0-16.75-7.4703-16.75-16.75v-33.499c0-9.2793 7.4704-16.75 16.75-16.75h66.998c9.2793 0 16.75 7.4704 16.75 16.75v33.499c0 9.2793-7.4703 16.75-16.75 16.75h-66.998zm0-83.748c-9.2792 0-16.75-7.4703-16.75-16.75v-33.499c0-9.2793 7.4704-16.75 16.75-16.75h66.998c9.2793 0 16.75 7.4704 16.75 16.75v33.499c0 9.2793-7.4703 16.75-16.75 16.75h-66.998zm0-83.748c-9.2792 0-16.75-7.4703-16.75-16.75v-33.499c0-9.2792 7.4704-16.75 16.75-16.75h66.998c9.2793 0 16.75 7.4704 16.75 16.75v33.499c0 9.2793-7.4703 16.75-16.75 16.75h-66.998zm0-83.748c-9.2792 0-16.75-7.4703-16.75-16.75v-33.499c0-9.2792 7.4704-16.75 16.75-16.75h66.998c9.2793 0 16.75 7.4704 16.75 16.75v33.499c0 9.2793-7.4703 16.75-16.75 16.75h-66.998zm0-83.748c-9.2792 0-16.75-7.4703-16.75-16.75v-33.499c0-9.2793 7.4704-16.75 16.75-16.75h66.998c9.2793 0 16.75 7.4703 16.75 16.75v33.499c0 9.2793-7.4703 16.75-16.75 16.75h-66.998z" fill="url(#linearGradient3828)"/>
   <path d="m3979.6-377.79c-9.2793 0-16.75-7.4704-16.75-16.75v-33.499c0-9.2793 7.4703-16.75 16.75-16.75h66.998c9.2793 0 16.75 7.4703 16.75 16.75v33.499c0 9.2793-7.4703 16.75-16.75 16.75h-66.998zm0-83.748c-9.2793 0-16.75-7.4704-16.75-16.75v-33.499c0-9.2793 7.4703-16.75 16.75-16.75h66.998c9.2793 0 16.75 7.4703 16.75 16.75v33.499c0 9.2793-7.4703 16.75-16.75 16.75h-66.998zm0-83.748c-9.2793 0-16.75-7.4704-16.75-16.75v-33.499c0-9.2793 7.4703-16.75 16.75-16.75h66.998c9.2793 0 16.75 7.4703 16.75 16.75v33.499c0 9.2793-7.4703 16.75-16.75 16.75h-66.998zm0-83.748c-9.2793 0-16.75-7.4703-16.75-16.75v-33.499c0-9.2793 7.4703-16.75 16.75-16.75h66.998c9.2793 0 16.75 7.4703 16.75 16.75v33.499c0 9.2793-7.4703 16.75-16.75 16.75h-66.998zm0-83.748c-9.2793 0-16.75-7.4703-16.75-16.75v-33.499c0-9.2793 7.4703-16.75 16.75-16.75h66.998c9.2793 0 16.75 7.4703 16.75 16.75v33.499c0 9.2793-7.4703 16.75-16.75 16.75h-66.998zm0-83.748c-9.2793 0-16.75-7.4703-16.75-16.75v-33.499c0-9.2793 7.4703-16.75 16.75-16.75h66.998c9.2793 0 16.75 7.4703 16.75 16.75v33.499c0 9.2793-7.4703 16.75-16.75 16.75h-66.998zm0-83.748c-9.2793 0-16.75-7.4703-16.75-16.75v-33.499c0-9.2793 7.4703-16.75 16.75-16.75h66.998c9.2793 0 16.75 7.4703 16.75 16.75v33.499c0 9.2793-7.4703 16.75-16.75 16.75h-66.998zm0-83.748c-9.2793 0-16.75-7.4703-16.75-16.75v-33.499c0-9.2793 7.4703-16.75 16.75-16.75h66.998c9.2793 0 16.75 7.4703 16.75 16.75v33.499c0 9.2793-7.4703 16.75-16.75 16.75h-66.998zm0-83.748c-9.2793 0-16.75-7.4703-16.75-16.75v-33.499c0-9.2793 7.4703-16.75 16.75-16.75h66.998c9.2793 0 16.75 7.4703 16.75 16.75v33.499c0 9.2793-7.4703 16.75-16.75 16.75h-66.998zm0-83.748c-9.2793 0-16.75-7.4703-16.75-16.75v-33.499c0-9.2793 7.4703-16.75 16.75-16.75h66.998c9.2793 0 16.75 7.4704 16.75 16.75v33.499c0 9.2793-7.4703 16.75-16.75 16.75h-66.998zm0-83.748c-9.2793 0-16.75-7.4703-16.75-16.75v-33.499c0-9.2793 7.4703-16.75 16.75-16.75h66.998c9.2793 0 16.75 7.4704 16.75 16.75v33.499c0 9.2793-7.4703 16.75-16.75 16.75h-66.998zm0-83.748c-9.2793 0-16.75-7.4703-16.75-16.75v-33.499c0-9.2793 7.4703-16.75 16.75-16.75h66.998c9.2793 0 16.75 7.4704 16.75 16.75v33.499c0 9.2793-7.4703 16.75-16.75 16.75h-66.998zm0-83.748c-9.2793 0-16.75-7.4703-16.75-16.75v-33.499c0-9.2793 7.4703-16.75 16.75-16.75h66.998c9.2793 0 16.75 7.4704 16.75 16.75v33.499c0 9.2793-7.4703 16.75-16.75 16.75h-66.998zm0-83.748c-9.2793 0-16.75-7.4703-16.75-16.75v-33.499c0-9.2793 7.4703-16.75 16.75-16.75h66.998c9.2793 0 16.75 7.4704 16.75 16.75v33.499c0 9.2793-7.4703 16.75-16.75 16.75h-66.998zm0-83.748c-9.2793 0-16.75-7.4703-16.75-16.75v-33.499c0-9.2792 7.4703-16.75 16.75-16.75h66.998c9.2793 0 16.75 7.4704 16.75 16.75v33.499c0 9.2793-7.4703 16.75-16.75 16.75h-66.998zm0-83.748c-9.2793 0-16.75-7.4703-16.75-16.75v-33.499c0-9.2792 7.4703-16.75 16.75-16.75h66.998c9.2793 0 16.75 7.4704 16.75 16.75v33.499c0 9.2793-7.4703 16.75-16.75 16.75h-66.998zm0-83.748c-9.2793 0-16.75-7.4703-16.75-16.75v-33.499c0-9.2793 7.4703-16.75 16.75-16.75h66.998c9.2793 0 16.75 7.4703 16.75 16.75v33.499c0 9.2793-7.4703 16.75-16.75 16.75h-66.998z" fill="url(#linearGradient3830)"/>
   <path d="m4096.9-377.79c-9.2793 0-16.75-7.4704-16.75-16.75v-33.499c0-9.2793 7.4703-16.75 16.75-16.75h66.998c9.2793 0 16.75 7.4703 16.75 16.75v33.499c0 9.2793-7.4703 16.75-16.75 16.75h-66.998zm0-83.748c-9.2793 0-16.75-7.4704-16.75-16.75v-33.499c0-9.2793 7.4703-16.75 16.75-16.75h66.998c9.2793 0 16.75 7.4703 16.75 16.75v33.499c0 9.2793-7.4703 16.75-16.75 16.75h-66.998zm0-83.748c-9.2793 0-16.75-7.4704-16.75-16.75v-33.499c0-9.2793 7.4703-16.75 16.75-16.75h66.998c9.2793 0 16.75 7.4703 16.75 16.75v33.499c0 9.2793-7.4703 16.75-16.75 16.75h-66.998zm0-83.748c-9.2793 0-16.75-7.4703-16.75-16.75v-33.499c0-9.2793 7.4703-16.75 16.75-16.75h66.998c9.2793 0 16.75 7.4703 16.75 16.75v33.499c0 9.2793-7.4703 16.75-16.75 16.75h-66.998zm0-83.748c-9.2793 0-16.75-7.4703-16.75-16.75v-33.499c0-9.2793 7.4703-16.75 16.75-16.75h66.998c9.2793 0 16.75 7.4703 16.75 16.75v33.499c0 9.2793-7.4703 16.75-16.75 16.75h-66.998zm0-83.748c-9.2793 0-16.75-7.4703-16.75-16.75v-33.499c0-9.2793 7.4703-16.75 16.75-16.75h66.998c9.2793 0 16.75 7.4703 16.75 16.75v33.499c0 9.2793-7.4703 16.75-16.75 16.75h-66.998zm0-83.748c-9.2793 0-16.75-7.4703-16.75-16.75v-33.499c0-9.2793 7.4703-16.75 16.75-16.75h66.998c9.2793 0 16.75 7.4703 16.75 16.75v33.499c0 9.2793-7.4703 16.75-16.75 16.75h-66.998zm0-83.748c-9.2793 0-16.75-7.4703-16.75-16.75v-33.499c0-9.2793 7.4703-16.75 16.75-16.75h66.998c9.2793 0 16.75 7.4703 16.75 16.75v33.499c0 9.2793-7.4703 16.75-16.75 16.75h-66.998zm0-83.748c-9.2793 0-16.75-7.4703-16.75-16.75v-33.499c0-9.2793 7.4703-16.75 16.75-16.75h66.998c9.2793 0 16.75 7.4703 16.75 16.75v33.499c0 9.2793-7.4703 16.75-16.75 16.75h-66.998zm0-83.748c-9.2793 0-16.75-7.4703-16.75-16.75v-33.499c0-9.2793 7.4703-16.75 16.75-16.75h66.998c9.2793 0 16.75 7.4704 16.75 16.75v33.499c0 9.2793-7.4703 16.75-16.75 16.75h-66.998zm0-83.748c-9.2793 0-16.75-7.4703-16.75-16.75v-33.499c0-9.2793 7.4703-16.75 16.75-16.75h66.998c9.2793 0 16.75 7.4704 16.75 16.75v33.499c0 9.2793-7.4703 16.75-16.75 16.75h-66.998zm0-83.748c-9.2793 0-16.75-7.4703-16.75-16.75v-33.499c0-9.2793 7.4703-16.75 16.75-16.75h66.998c9.2793 0 16.75 7.4704 16.75 16.75v33.499c0 9.2793-7.4703 16.75-16.75 16.75h-66.998zm0-83.748c-9.2793 0-16.75-7.4703-16.75-16.75v-33.499c0-9.2793 7.4703-16.75 16.75-16.75h66.998c9.2793 0 16.75 7.4704 16.75 16.75v33.499c0 9.2793-7.4703 16.75-16.75 16.75h-66.998zm0-83.748c-9.2793 0-16.75-7.4703-16.75-16.75v-33.499c0-9.2793 7.4703-16.75 16.75-16.75h66.998c9.2793 0 16.75 7.4704 16.75 16.75v33.499c0 9.2793-7.4703 16.75-16.75 16.75h-66.998zm0-83.748c-9.2793 0-16.75-7.4703-16.75-16.75v-33.499c0-9.2792 7.4703-16.75 16.75-16.75h66.998c9.2793 0 16.75 7.4704 16.75 16.75v33.499c0 9.2793-7.4703 16.75-16.75 16.75h-66.998zm0-83.748c-9.2793 0-16.75-7.4703-16.75-16.75v-33.499c0-9.2792 7.4703-16.75 16.75-16.75h66.998c9.2793 0 16.75 7.4704 16.75 16.75v33.499c0 9.2793-7.4703 16.75-16.75 16.75h-66.998zm0-83.748c-9.2793 0-16.75-7.4703-16.75-16.75v-33.499c0-9.2793 7.4703-16.75 16.75-16.75h66.998c9.2793 0 16.75 7.4703 16.75 16.75v33.499c0 9.2793-7.4703 16.75-16.75 16.75h-66.998z" fill="url(#linearGradient3832)"/>
  </g>
 </g>
</svg>
