<?xml version="1.0" encoding="UTF-8" standalone="no"?>
<!-- Created with Inkscape (http://www.inkscape.org/) -->

<svg
   xmlns:dc="http://purl.org/dc/elements/1.1/"
   xmlns:cc="http://creativecommons.org/ns#"
   xmlns:rdf="http://www.w3.org/1999/02/22-rdf-syntax-ns#"
   xmlns:svg="http://www.w3.org/2000/svg"
   xmlns="http://www.w3.org/2000/svg"
   xmlns:sodipodi="http://sodipodi.sourceforge.net/DTD/sodipodi-0.dtd"
   xmlns:inkscape="http://www.inkscape.org/namespaces/inkscape"
   id="svg11037"
   height="96"
   width="96"
   version="1.1"
   inkscape:version="0.48.5 r10040"
   sodipodi:docname="wordpress.svg">
  <sodipodi:namedview
     pagecolor="#ffffff"
     bordercolor="#666666"
     borderopacity="1"
     objecttolerance="10"
     gridtolerance="10"
     guidetolerance="10"
     inkscape:pageopacity="0"
     inkscape:pageshadow="2"
     inkscape:window-width="640"
     inkscape:window-height="480"
     id="namedview72901" />
  <defs
     id="defs11039">
    <linearGradient
       id="linearGradient11642"
       y2="1046.1"
       gradientUnits="userSpaceOnUse"
       y1="962.62"
       gradientTransform="matrix(1.15 0 0 1.15 -7.1999 -150.65)"
       x2="48"
       x1="48">
      <stop
         id="stop3647"
         style="stop-color:#0f466f"
         offset="0" />
      <stop
         id="stop3649"
         style="stop-color:#2e72a7"
         offset="1" />
    </linearGradient>
    <linearGradient
       id="linearGradient2928"
       y2="12"
       gradientUnits="userSpaceOnUse"
       x2="48"
       y1="84"
       x1="48">
      <stop
         id="stop4064"
         style="stop-color:#dfdfdf"
         offset="0" />
      <stop
         id="stop4066"
         style="stop-color:#fff"
         offset="1" />
    </linearGradient>
    <clipPath
       id="clipPath3009"
       clipPathUnits="userSpaceOnUse">
      <path
         id="path3011"
         style="opacity:.15;fill:#fff"
         d="m-2 956.36h-96v33.562l96 25.687v-59.25z" />
    </clipPath>
  </defs>
  <metadata
     id="metadata11042">
    <rdf:RDF>
      <cc:Work
         rdf:about="">
        <dc:format>image/svg+xml</dc:format>
        <dc:type
           rdf:resource="http://purl.org/dc/dcmitype/StillImage" />
        <dc:title />
      </cc:Work>
    </rdf:RDF>
  </metadata>
  <g
     id="layer1"
     transform="translate(0 -956.36)">
    <rect
       id="rect3867"
       style="fill:url(#linearGradient11642)"
       rx="25"
       ry="25"
       height="92"
       width="92"
       y="958.36"
       x="2" />
    <g
       id="layer4"
       transform="translate(0 956.36)">
      <path
         id="path4048"
         style="fill:url(#linearGradient2928)"
         d="m47.989 12c-19.848 0-35.989 16.162-35.989 36.011s16.141 35.989 35.989 35.989c19.85 0 36.011-16.14 36.011-35.989s-16.161-36.011-36.011-36.011zm0 3.6335c8.4263 0 16.108 3.2243 21.866 8.4998-0.13928-0.0087-0.26732-0.02163-0.41093-0.02163-3.1793 0-5.4503 2.7779-5.4503 5.7531 0 2.6672 1.5391 4.9243 3.1793 7.5915 1.2311 2.155 2.6819 4.9096 2.6819 8.9108 0 2.7693-0.82533 6.2626-2.4656 10.468l-3.244 10.793-11.679-34.8c1.9483-0.10208 3.6984-0.30279 3.6984-0.30279 1.7441-0.20676 1.5278-2.7623-0.21628-2.6603 0 0-5.2236 0.41093-8.608 0.41093-3.1802 0-8.5431-0.41093-8.5431-0.41093-1.745-0.10208-1.9396 2.5573-0.19465 2.6603 0 0 1.6515 0.20071 3.3956 0.30279l5.04 13.82-7.094 21.239-11.766-35.059c1.95-0.10208 3.6984-0.30279 3.6984-0.30279 1.7424-0.20676 1.5278-2.7623-0.21628-2.6603 0 0-5.2453 0.41093-8.6296 0.41093-0.60732 0-1.3167-0.01903-2.0763-0.04326 5.788-8.785 15.728-14.598 27.035-14.598zm28.419 16.848c2.5253 4.6094 3.9579 9.9022 3.9579 15.529 0 11.94-6.4694 22.356-16.091 27.965l9.884-28.571c1.847-4.6172 2.4656-8.3095 2.4656-11.593 0-1.1913-0.077-2.3004-0.21628-3.3307zm-57.963 2.357 15.421 42.305c-10.797-5.245-18.232-16.322-18.232-29.133 0-4.6924 1.0165-9.1461 2.8117-13.172zm30.128 16.005 9.9489 27.251c0.06575 0.16005 0.12977 0.29415 0.21628 0.43257-3.3636 1.1844-6.9798 1.8384-10.749 1.8384-3.1759 0-6.2272-0.46631-9.1271-1.3193l9.711-28.203z" />
      <path
         id="path4052"
         style="opacity:.4"
         d="m48 11c-19.849 0-36 16.151-36 36 0 0.16557 0.02901 0.33495 0.03125 0.5 0.271-19.617 16.289-35.5 35.969-35.5 19.681 0 35.698 15.883 35.969 35.5 0.002-0.165 0.031-0.334 0.031-0.5 0-19.849-16.151-36-36-36zm20.75 12.156c-2.817 0.364-4.75 2.962-4.75 5.719 0 0.15063 0.02169 0.28934 0.03125 0.4375 0.26114-2.7566 2.4256-5.1875 5.4062-5.1875 0.14361 0 0.26696-0.0087 0.40625 0-0.36-0.33-0.719-0.655-1.094-0.969zm-37.094 5.719s-5.2406 0.40625-8.625 0.40625c-0.40478 0-0.89488-0.01844-1.375-0.03125-0.23214 0.32559-0.46723 0.6344-0.6875 0.96875 0.75958 0.02423 1.4552 0.0625 2.0625 0.0625 3.3844 0 8.625-0.40625 8.625-0.40625 0.68036-0.03982 1.123 0.30942 1.3125 0.78125 0.28613-0.80606-0.17261-1.848-1.3125-1.7812zm6.8438 0c-0.91042 0.13062-1.2868 1.1147-1.0312 1.8438 0.17784-0.50083 0.64741-0.88449 1.3438-0.84375 0 0 5.3511 0.40625 8.5312 0.40625 3.3844 0 8.5938-0.40625 8.5938-0.40625 0.68289-0.03997 1.1553 0.30687 1.3438 0.78125 0.27853-0.80486-0.20859-1.8477-1.3438-1.7812 0 0-5.2094 0.40625-8.5938 0.40625-3.1802 0-8.5312-0.40625-8.5312-0.40625-0.10906-0.0064-0.21565-0.0139-0.3125 0zm37.906 3.5938c0.12284 0.90876 0.2029 1.9039 0.21875 2.9375 0.0045-0.1978 0-0.39894 0-0.59375 0-0.74428-0.03723-1.444-0.09375-2.125-0.0392-0.07289-0.08525-0.1462-0.125-0.21875zm-47.906 0.312c-0.11728 0.0069-0.19337 0.02501-0.3125 0.03125l11.75 35.063 7.093-21.219-0.187-0.468-6.906 20.687-11.438-34.094zm24.281 0c-0.1172 0.0069-0.19347 0.02501-0.3125 0.03125l11.688 34.813 3.219-10.781c1.6403-4.2054 2.4688-7.6995 2.4688-10.469 0-0.14155-0.02769-0.26779-0.03125-0.40625-0.10727 2.6698-0.91188 5.9636-2.4375 9.875l-3.219 10.781-11.375-33.844zm27.562 14.625c-0.14382 11.581-6.3623 21.678-15.625 27.281l-0.4375 1.2812c9.623-5.609 16.095-16.028 16.095-27.968 0-0.19959-0.02766-0.39501-0.03125-0.59375zm-64.688 0.0625c-0.002 0.178-0.03 0.354-0.03 0.532 0 12.811 7.4532 23.911 18.25 29.156l-0.4375-1.25c-10.424-5.265-17.606-16.002-17.782-28.437zm42.72 30.188c-3.258 1.103-6.744 1.719-10.375 1.719-3.0613 0-6.0067-0.42352-8.8125-1.2188l-0.313 0.906c2.8999 0.85301 5.9491 1.3125 9.125 1.3125 3.7693 0 7.3864-0.6594 10.75-1.8438-0.08651-0.13842-0.153-0.27745-0.21875-0.4375l-0.156-0.437z" />
      <path
         id="path4057"
         style="opacity:.3;fill:#fff"
         d="m48 15.625c-11.307 0-21.244 5.8084-27.031 14.594 0.25331 0.0081 0.44728 0.02484 0.6875 0.03125 5.868-8.229 15.467-13.625 26.344-13.625 7.8997 0 15.131 2.8301 20.75 7.5312 0.22245-0.02875 0.45478-0.03125 0.6875-0.03125 0.14361 0 0.26696-0.0087 0.40625 0-5.759-5.276-13.418-8.5-21.844-8.5zm16.031 14.719c-0.015 0.173-0.031 0.355-0.031 0.531 0 2.6672 1.5472 4.9266 3.1875 7.5938 1.1875 2.0788 2.528 4.7247 2.625 8.5 0.0081-0.20064 0.03125-0.40018 0.03125-0.59375 0-4.0012-1.4252-6.7512-2.6562-8.9062-1.5411-2.5058-2.9863-4.663-3.1562-7.125zm-31.062 1.3125c-0.15166 0.42726-0.49015 0.80337-1.0938 0.875 0 0-1.7375 0.17917-3.6875 0.28125l0.312 0.969c1.8023-0.10611 3.375-0.25 3.375-0.25 1.0627-0.12611 1.39-1.1373 1.0938-1.875zm24.312 0c-0.14941 0.43175-0.51607 0.80281-1.125 0.875 0 0-1.7392 0.17917-3.6875 0.28125l0.3125 0.96875c1.8011-0.10611 3.375-0.25 3.375-0.25 1.0612-0.12581 1.4179-1.1378 1.125-1.875zm-19.812 0.0625c-0.26781 0.7542 0.07638 1.7506 1.125 1.8125 0 0 1.6622 0.17917 3.4062 0.28125l4.8438 13.375 0.1875-0.53125-5.031-13.844c-1.7441-0.10208-3.4062-0.28125-3.4062-0.28125-0.61074-0.03603-0.97278-0.37814-1.125-0.8125zm38.938 0.75c0.05226 0.38662 0.09105 0.80978 0.125 1.2188 2.3633 4.3937 3.7165 9.403 3.8125 14.719 0.001-0.136 0.031-0.269 0.031-0.406 0-5.6268-1.4435-10.922-3.9688-15.531zm-57.969 2.375c-1.796 4.026-2.813 8.465-2.813 13.157 0 0.15614 0.02905 0.31313 0.03125 0.46875 0.07395-4.4965 1.0543-8.7525 2.7812-12.625l15 41.062c0.14876 0.07515 0.28743 0.17709 0.4375 0.25l-15.436-42.312zm58.188 1.5625c-0.07107 3.1357-0.73131 6.6568-2.4688 11l-9.875 28.562c0.15155-0.08835 0.28753-0.19053 0.4375-0.28125l9.4375-27.281c1.845-4.617 2.467-8.31 2.467-11.594 0-0.1406 0.0021-0.26793 0-0.40625zm-64.595 12.094c-0.002 0.168-0.031 0.332-0.031 0.5 0 19.849 16.151 36 36 36s36-16.151 36-36c0-0.168-0.029-0.332-0.031-0.5-0.267 19.622-16.285 35.5-35.969 35.5-19.683 0-35.703-15.878-35.969-35.5zm36.531 2.344-9.687 28.218c0.10464 0.03078 0.20747 0.06398 0.3125 0.09375l9.375-27.312 9.8125 26.812c0.12431-0.04209 0.25136-0.08147 0.375-0.125-0.08651-0.13842-0.153-0.27745-0.21875-0.4375l-9.9688-27.25z" />
    </g>
    <rect
       id="rect3003"
       style="opacity:.15;fill:#fff"
       transform="translate(98 3.8281e-7)"
       clip-path="url(#clipPath3009)"
       rx="25"
       ry="25"
       height="92"
       width="92"
       y="958.36"
       x="-96" />
  </g>
</svg>
