<svg height="96" width="96" xmlns="http://www.w3.org/2000/svg" xmlns:xlink="http://www.w3.org/1999/xlink" xmlns:sodipodi="http://sodipodi.sourceforge.net/DTD/sodipodi-0.dtd" xmlns:inkscape="http://www.inkscape.org/namespaces/inkscape">
 <defs>
  <linearGradient x2="0" y1="962.62" y2="1046.1" gradientUnits="userSpaceOnUse" id="linearGradient11642" gradientTransform="matrix(1.15 0 0 1.15 -7.2 -150.65)">
   <stop stop-color="#4490e6"/>
   <stop stop-color="#103d8f" offset="1"/>
  </linearGradient>
  <linearGradient x2="0" xlink:href="#linearGradient4134" y1="46" y2="-24" gradientUnits="userSpaceOnUse" id="linearGradient7182" gradientTransform="matrix(1 0 0 1 112.72 -1020.2)"/>
  <linearGradient id="linearGradient4134">
   <stop stop-color="#fff"/>
   <stop stop-color="#fff" stop-opacity="0" offset="1"/>
  </linearGradient>
  <linearGradient x2="0" xlink:href="#linearGradient4134" y1="46" y2="-24" gradientUnits="userSpaceOnUse" id="linearGradient7184" gradientTransform="matrix(1 0 0 1 112.72 -1052.2)"/>
  <clipPath clipPathUnits="userSpaceOnUse" id="clipPath3009">
   <path d="m-2 956.36h-96v33.562l96 25.687v-59.25z"/>
  </clipPath>
 </defs>
 <g transform="matrix(1 0 0 1 0 -956.36)">
  <rect x="2" rx="25" y="958.36" fill="url(#linearGradient11642)" height="92" width="92"/>
  <g transform="matrix(0.83333 0 0 0.83333 -85.93 167.56)">
   <rect x="130.72" rx="2" y="-1002.2" fill="url(#linearGradient7182)" height="28" opacity="0.3" width="28" transform="matrix(1 0 0 -1 0 0)"/>
   <path d="m132.72 974.16c-1.108 0-2 0.892-2 2v24c0 1.108 0.892 2 2 2h24c1.108 0 2-0.892 2-2v-24c0-1.108-0.892-2-2-2h-24zm0 1.0312h24c0.54712 0 0.96875 0.42163 0.96875 0.96875v24c0 0.5472-0.42163 0.9688-0.96875 0.9688h-24c-0.54712 0-0.96875-0.4216-0.96875-0.9688v-24c0-0.54712 0.42163-0.96875 0.96875-0.96875z" fill="#fff" opacity="0.3"/>
   <rect x="130.72" rx="2" y="-1034.2" fill="url(#linearGradient7184)" height="28" opacity="0.2" width="28" transform="matrix(1 0 0 -1 0 0)"/>
   <path d="m132.72 1006.2c-1.108 0-2 0.892-2 2v24c0 1.108 0.892 2 2 2h24c1.108 0 2-0.892 2-2v-24c0-1.108-0.892-2-2-2h-24zm0 1.0313h24c0.54712 0 0.96875 0.4216 0.96875 0.9687v24c0 0.5472-0.42163 0.9688-0.96875 0.9688h-24c-0.54712 0-0.96875-0.4216-0.96875-0.9688v-24c0-0.5471 0.42163-0.9687 0.96875-0.9687z" fill="#fff" opacity="0.3"/>
   <rect x="162.72" rx="2" y="-1034.2" fill="url(#linearGradient7184)" height="28" opacity="0.2" width="28" transform="matrix(1 0 0 -1 0 0)"/>
   <path d="m164.72 1006.2c-1.108 0-2 0.892-2 2v24c0 1.108 0.892 2 2 2h24c1.108 0 2-0.892 2-2v-24c0-1.108-0.892-2-2-2h-24zm0 1.0313h24c0.54712 0 0.96875 0.4216 0.96875 0.9687v24c0 0.5472-0.42163 0.9688-0.96875 0.9688h-24c-0.54712 0-0.96875-0.4216-0.96875-0.9688v-24c0-0.5471 0.42163-0.9687 0.96875-0.9687z" fill="#fff" opacity="0.3"/>
   <rect x="162.72" rx="2" y="-1002.2" fill="url(#linearGradient7182)" height="28" opacity="0.2" width="28" transform="matrix(1 0 0 -1 0 0)"/>
   <path d="m164.72 974.16c-1.108 0-2 0.892-2 2v24c0 1.108 0.892 2 2 2h24c1.108 0 2-0.892 2-2v-24c0-1.108-0.892-2-2-2h-24zm0 1.0312h24c0.54712 0 0.96875 0.42163 0.96875 0.96875v24c0 0.5472-0.42163 0.9688-0.96875 0.9688h-24c-0.54712 0-0.96875-0.4216-0.96875-0.9688v-24c0-0.54712 0.42163-0.96875 0.96875-0.96875z" fill="#fff" opacity="0.3"/>
  </g>
  <rect x="-96" rx="25" y="958.36" clip-path="url(#clipPath3009)" fill="#fff" height="92" opacity="0.15" width="92" transform="matrix(1 0 0 1 98 0)"/>
 </g>
</svg>
