<svg height="96" width="96" xmlns="http://www.w3.org/2000/svg" xmlns:xlink="http://www.w3.org/1999/xlink" xmlns:sodipodi="http://sodipodi.sourceforge.net/DTD/sodipodi-0.dtd" xmlns:inkscape="http://www.inkscape.org/namespaces/inkscape">
 <defs>
  <clipPath clipPathUnits="userSpaceOnUse" id="clipPath3009">
   <path d="m -2,956.36218 -96,0 0,33.5624 96,25.68742 0,-59.24982 z" inkscape:connector-curvature="0"/>
  </clipPath>
  <linearGradient x1="56.56" x2="56.766" y1="70.981" y2="9.816" gradientUnits="userSpaceOnUse" id="linearGradient4113" gradientTransform="matrix(1.05776 0 0 1.04578 -2.315 -2.209)">
   <stop stop-color="#005fff" stop-opacity="1"/>
   <stop stop-color="#5997ff" stop-opacity="1" offset="1"/>
  </linearGradient>
  <linearGradient x1="114.69" x2="122.48" y1="6.823" y2="20.611" gradientUnits="userSpaceOnUse" id="linearGradient4090" gradientTransform="matrix(0.8985 0 0 0.88722 -71.09 37.453)">
   <stop stop-color="#edf3ff" stop-opacity="1"/>
   <stop stop-color="#548dfc" stop-opacity="1" offset="1"/>
  </linearGradient>
  <radialGradient cy="23.345" r="7.778" gradientUnits="userSpaceOnUse" id="radialGradient7046" cx="142.13" gradientTransform="matrix(1 0 0 0.29545 0 16.447)">
   <stop stop-color="#2e6eec" stop-opacity="1"/>
   <stop stop-color="#2e6eec" stop-opacity="0" offset="1"/>
  </radialGradient>
  <radialGradient cy="23.345" r="8.356" gradientUnits="userSpaceOnUse" id="radialGradient7050" cx="142.13" gradientTransform="matrix(1 0 0 0.34415 0 15.311)">
   <stop stop-color="#edf3ff" stop-opacity="1"/>
   <stop stop-color="#edf3ff" stop-opacity="0" offset="1"/>
  </radialGradient>
  <radialGradient cy="21.762" r="25.08" xlink:href="#linearGradient6968" gradientUnits="userSpaceOnUse" id="radialGradient4077" cx="33.412" gradientTransform="matrix(0.91496 -0.0141 0.01149 0.72118 13.37 15.227)"/>
  <linearGradient id="linearGradient6968">
   <stop stop-color="#ffffff" stop-opacity="1"/>
   <stop stop-color="#ffffff" stop-opacity="0" offset="1"/>
  </linearGradient>
  <radialGradient cy="41.906" r="0.795" xlink:href="#linearGradient6968" gradientUnits="userSpaceOnUse" id="radialGradient3339" cx="45.17" inkscape:collect="always" gradientTransform="matrix(1 0 0 3.77778 0 -116.41)"/>
  <clipPath clipPathUnits="userSpaceOnUse" id="clipPath3152">
   <rect x="5.883" rx="23.14" y="5.896" ry="22.877" height="84.19" width="85.15"/>
  </clipPath>
  <path d="m 67.528698,43.674099 a 13.965359,13.435029 0 1 1 -27.930718,0 13.965359,13.435029 0 1 1 27.930718,0 z" id="SVGCleanerId_0"/>
  <path d="m 149.90664,23.344778 a 7.778175,2.2980973 0 1 1 -15.55635,0 7.778175,2.2980973 0 1 1 15.55635,0 z" fill-opacity="1" stroke="none" id="SVGCleanerId_1"/>
  <path d="m 44.861837,46.402456 c 0,0 -15.154957,-0.773056 -20.330668,-0.627361 -5.388789,0.151692 -8.576998,-9.410411 -1.588336,-18.50714 6.988671,-9.09673 14.295006,-10.665132 14.295006,-10.665132 0,0 -7.624007,7.528328 -7.624007,15.370337 0,7.842008 8.577007,11.919852 10.483006,10.03777 1.906,-1.882082 3.494327,-4.077844 5.082663,-3.764164 1.588336,0.313681 3.811999,5.018886 7.306335,2.195762 3.494335,-2.823122 8.5969,-6.878705 7.306335,-12.860894 -1.38241,-6.407931 -6.569531,-7.784756 -11.118334,-10.351451 -4.447336,-2.509442 -1.270673,-1.568401 2.858999,-1.254721 4.129663,0.313681 17.471669,6.900968 19.695331,14.742976 2.071656,7.305927 1.270664,12.860894 -2.858998,16.938738 -4.129672,4.077844 -11.118334,5.018886 -14.61267,3.136804 -3.494336,-1.882082 -8.894662,-4.391524 -8.894662,-4.391524 z" fill-opacity="1" stroke="none" id="SVGCleanerId_2"/>
  <path d="m 162.07113,33.281007 c 0,0 -10.81156,-3.899314 -21.62312,0 -10.81156,3.899315 -12.61349,6.59884 -15.91702,5.998945 -3.30353,-0.599894 -9.41558,1.253545 -7.50802,5.698998 1.68493,3.517199 4.77827,4.512783 3.97392,4.023557 -3.73705,2.630576 -0.10001,4.885802 2.83813,6.039065 4.12535,1.619261 9.47808,4.470617 12.10817,4.634794 4.80514,0.299947 3.60385,1.799684 6.60707,2.09963 3.00322,0.299948 8.70931,-1.499736 9.9106,-3.599367 1.20129,-2.09963 12.61349,-8.998417 13.81477,-11.098048 1.20128,-2.099631 1.20128,-4.499209 -0.30032,-6.898786 -1.5016,-2.399579 1.04625,-0.683789 2.15378,-4.002241 1.20128,-3.599367 -2.24174,-6.408061 -3.44302,-4.608378 -1.20129,1.799685 -2.61494,1.711831 -2.61494,1.711831 z" stroke="none" id="SVGCleanerId_3"/>
  <path d="m 138.64609,40.179795 c 0,0 -14.32745,-0.739211 -19.22056,-0.599895 -5.09454,0.14505 -8.10867,-8.998419 -1.5016,-17.696889 6.60706,-8.69847 13.51445,-10.198206 13.51445,-10.198206 0,0 -7.20771,7.198733 -7.20771,14.697415 0,7.498681 8.10868,11.397996 9.9106,9.598312 1.80193,-1.799684 3.30353,-3.899314 4.80514,-3.599367 1.50161,0.299948 3.60385,4.799157 6.90739,2.09963 3.30353,-2.699524 8.12748,-6.577551 6.90738,-12.297837 -1.30692,-6.127389 -6.21081,-7.443936 -10.51124,-9.898259 -4.2045,-2.3995785 -1.20129,-1.499737 2.70289,-1.199789 3.90417,0.299947 16.51767,6.598839 18.61991,14.09752 1.95854,6.98607 1.20128,12.297838 -2.70289,16.197152 -3.90418,3.899315 -10.51124,4.799157 -13.81477,2.999473 -3.30354,-1.799683 -8.40899,-4.19926 -8.40899,-4.19926 z" stroke="none" id="SVGCleanerId_4"/>
 </defs>
 <g inkscape:label="Layer 1" inkscape:groupmode="layer" transform="matrix(1 0 0 1 0 -956.36)">
  <g clip-path="url(#clipPath3152)" transform="matrix(1.08045 0 0 1.09282 -4.356 951.92)">
   <path d="m 10.378039,4.0658424 c -3.5159828,0 -6.3465394,2.7985207 -6.3465394,6.2747096 l 0,75.29652 c 0,3.47619 2.8305566,6.27471 6.3465394,6.27471 l 63.366229,0 c -1.419689,-1.413794 -2.280788,-3.35819 -2.280788,-5.490371 0,-4.331784 3.611002,-7.843387 8.065394,-7.843387 4.454393,0 8.065394,3.511603 8.065394,7.843387 0,2.132181 -0.861098,4.076577 -2.280787,5.490371 l 1.22303,0 c 3.515984,0 6.34654,-2.79852 6.34654,-6.27471 l 0,-75.29652 c 0,-3.4761889 -2.830556,-6.2747096 -6.34654,-6.2747096 l -29.220525,0 c 0.09335,0.425488 0.132221,0.8560038 0.132221,1.3072312 0,3.6098195 -3.137423,6.5361564 -7.007638,6.5361564 -3.870215,0 -7.007637,-2.9263369 -7.007637,-6.5361564 0,-0.4512274 0.03887,-0.8817432 0.132219,-1.3072312 l -33.187112,0 z m 25.253938,3.3988012 c 2.701849,0 4.892124,2.106963 4.892124,4.7060324 0,2.59907 -2.190275,4.706033 -4.892124,4.706033 -2.701849,0 -4.892124,-2.106963 -4.892124,-4.706033 0,-2.5990694 2.190275,-4.7060324 4.892124,-4.7060324 z m 42.310262,1.045785 c 4.746482,0 8.594272,3.7457114 8.594272,8.3662804 0,4.620569 -3.84779,8.36628 -8.594272,8.36628 -4.746481,0 -8.594272,-3.745711 -8.594272,-8.36628 0,-4.620569 3.847791,-8.3662804 8.594272,-8.3662804 z M 66.703576,84.852734 c 1.6065,0 2.908831,1.229062 2.908831,2.745185 0,1.516124 -1.302331,2.745186 -2.908831,2.745186 -1.606499,0 -2.90883,-1.229062 -2.90883,-2.745186 0,-1.516123 1.302331,-2.745185 2.90883,-2.745185 z" fill="url(#linearGradient4113)" fill-opacity="1" fill-rule="nonzero" stroke="none" inkscape:connector-curvature="0"/>
   <use stroke-opacity="1" stroke-width="3.302" xlink:href="#SVGCleanerId_0" fill="none" stroke="#100300" stroke-dasharray="none" opacity="0.319" stroke-miterlimit="4" inkscape:connector-curvature="0" transform="matrix(2.40831 0 0 2.42054 -77.56 -52.42)"/>
   <use xlink:href="#SVGCleanerId_0" fill="#80acff" fill-opacity="1" stroke="none" opacity="0.581" inkscape:connector-curvature="0" transform="matrix(1.05776 0 0 1.04578 -36.2 -16.442)"/>
   <use xlink:href="#SVGCleanerId_0" fill="#6197ff" fill-opacity="1" stroke="none" opacity="0.581" inkscape:connector-curvature="0" transform="matrix(1.05776 0 0 1.04578 19.07 16.778)"/>
   <use stroke-opacity="1" stroke-width="3.302" xlink:href="#SVGCleanerId_0" fill="none" stroke="#100300" stroke-dasharray="none" opacity="0.123" stroke-miterlimit="4" inkscape:connector-curvature="0" transform="matrix(2.40831 0 0 2.42054 -75.76 -50.829)"/>
   <use stroke-opacity="1" stroke-width="3.302" xlink:href="#SVGCleanerId_0" fill="none" stroke="#100300" stroke-dasharray="none" opacity="0.52" stroke-miterlimit="4" inkscape:connector-curvature="0" transform="matrix(2.40831 0 0 2.42054 -78.64 -53.48)"/>
   <use stroke-opacity="1" stroke-width="3.302" xlink:href="#SVGCleanerId_0" fill="none" stroke="#100300" stroke-dasharray="none" opacity="0.681" stroke-miterlimit="4" inkscape:connector-curvature="0" transform="matrix(2.40831 0 0 2.42054 -79.898 -54.36)"/>
   <use xlink:href="#SVGCleanerId_0" fill="#71a2ff" fill-opacity="1" stroke="none" opacity="0.581" inkscape:connector-curvature="0" transform="matrix(0.57574 0 0 0.59169 -15.945 45.56)"/>
   <use xlink:href="#SVGCleanerId_0" fill="#fea513" fill-opacity="1" stroke="none" inkscape:connector-curvature="0" transform="matrix(1.81817 0 0 1.8085 -48.641 -28.24)"/>
   <use stroke-opacity="1" stroke-width="3.302" xlink:href="#SVGCleanerId_0" fill="none" stroke="#ff3300" stroke-dasharray="none" stroke-miterlimit="4" inkscape:connector-curvature="0" transform="matrix(2.34616 0 0 2.41117 -77.12 -54.879)"/>
   <use stroke-opacity="1" stroke-width="2.521" xlink:href="#SVGCleanerId_0" fill="none" stroke="#ffffff" stroke-dasharray="none" stroke-miterlimit="4" inkscape:connector-curvature="0" transform="matrix(1.91447 0 0 1.95188 -53.953 -34.728)"/>
   <g fill="#222222" fill-opacity="1" opacity="0.304" transform="matrix(1.05776 0 0 1.04578 -97.76 7.276)">
    <use xlink:href="#SVGCleanerId_3" inkscape:connector-curvature="0"/>
    <use xlink:href="#SVGCleanerId_4" inkscape:connector-curvature="0"/>
   </g>
   <g fill="#222222" fill-opacity="1" opacity="0.549" transform="matrix(1.05776 0 0 1.04578 -98.84 6.746)">
    <use xlink:href="#SVGCleanerId_3" inkscape:connector-curvature="0"/>
    <use xlink:href="#SVGCleanerId_4" inkscape:connector-curvature="0"/>
   </g>
   <path d="M 56.372562,15.497425 C 51.026831,15.095927 42.812224,16.015319 37.697607,18.48108 11.560142,31.081974 10.463569,47.192341 18.889631,69.830485 c 0.462415,1.242355 0.823728,2.615181 1.410048,3.773339 -2.449058,-2.939607 -3.797,-5.328106 -5.413701,-9.044267 -8.12257,-18.670598 1.157885,-40.261718 18.75908,-47.02334 7.54384,-2.898018 15.515726,-4.457235 22.727504,-2.038792 z" fill="#ffffff" fill-opacity="1" stroke="none" opacity="0.382" inkscape:connector-curvature="0"/>
   <g fill="#222222" fill-opacity="1" opacity="0.802" transform="matrix(1.05776 0 0 1.04578 -99.92 5.862)">
    <use xlink:href="#SVGCleanerId_3" inkscape:connector-curvature="0"/>
    <use xlink:href="#SVGCleanerId_4" inkscape:connector-curvature="0"/>
   </g>
   <path stroke-opacity="1" d="m 69.639832,39.187808 c 0,0 -11.435997,-4.077844 -22.872004,0 -11.435998,4.077844 -13.341996,6.900967 -16.836333,6.273606 -3.494326,-0.62736 -9.959389,1.310939 -7.941653,5.959927 1.782241,3.678233 5.054243,4.719401 4.203439,4.207775 -3.952893,2.751017 -0.105785,5.109499 3.002049,6.315564 4.363622,1.693398 10.025501,4.675304 12.807499,4.846998 5.082662,0.31368 3.811999,1.882082 6.988671,2.195761 3.176672,0.313681 9.212335,-1.568401 10.482998,-3.764163 1.270672,-2.195762 13.342006,-9.41041 14.612669,-11.606173 1.270663,-2.195762 1.270663,-4.705205 -0.317663,-7.214647 -1.588336,-2.509444 1.106669,-0.715096 2.278166,-4.185483 1.270663,-3.764164 -2.371215,-6.701454 -3.641878,-4.819373 -1.270663,1.882083 -2.76596,1.790208 -2.76596,1.790208 z" stroke-width="1.314" fill="url(#linearGradient4090)" fill-opacity="1" stroke="#000000" stroke-dasharray="none" stroke-linecap="round" stroke-miterlimit="4" inkscape:connector-curvature="0"/>
   <use xlink:href="#SVGCleanerId_1" fill="url(#radialGradient7046)" opacity="0.825" inkscape:connector-curvature="0" transform="matrix(0.24205 1.01518 -2.0036 0.1315 83.3 -98.49)"/>
   <use xlink:href="#SVGCleanerId_1" fill="url(#radialGradient7046)" opacity="0.765" inkscape:connector-curvature="0" transform="matrix(0.88198 0.32121 -0.37139 0.95064 -64.52 -16.895)"/>
   <use xlink:href="#SVGCleanerId_2" fill="#021134" inkscape:connector-curvature="0"/>
   <path stroke-opacity="1" d="m 26.264307,55.557293 c 0,0 8.311096,2.218056 13.028206,0.443612 4.717109,-1.774444 7.4126,-2.218055 7.4126,-2.218055" stroke-width="0.893" fill="none" stroke="#000000" stroke-linecap="butt" stroke-linejoin="miter" inkscape:connector-curvature="0"/>
   <path stroke-opacity="1" d="m 44.327286,61.821666 c 0,0 7.861849,-3.327083 10.332714,-2.661666 2.470868,0.665417 3.369364,0.665417 3.369364,0.665417 l -1.347746,-1.552639" stroke-width="0.893" fill="none" stroke="#000000" stroke-linecap="round" stroke-linejoin="miter" inkscape:connector-curvature="0"/>
   <path stroke-opacity="1" d="m 54.172217,63.420929 c 0,0 -0.35621,0.174699 -1.928579,0.174699 -1.572371,0 -2.133931,1.331316 -2.133931,1.331316 0,0 2.358554,0 2.695491,-0.887223" stroke-width="1.031" fill="none" stroke="#000000" stroke-dasharray="none" stroke-linecap="round" stroke-linejoin="miter" stroke-miterlimit="4" inkscape:connector-curvature="0"/>
   <path stroke-opacity="1" d="m 74.598987,41.076651 c 0,0 -1.582047,0.963131 -1.979057,0.330938 -0.397,-0.632192 1.956388,-2.125472 1.956388,-2.125472" stroke-width="0.662" fill="none" stroke="#000000" stroke-linecap="butt" stroke-linejoin="miter" inkscape:connector-curvature="0"/>
   <use xlink:href="#SVGCleanerId_1" fill="url(#radialGradient7050)" opacity="0.327" inkscape:connector-curvature="0" transform="matrix(1.26317 -0.08027 0.09977 1.0163 -131.28 48.985)"/>
   <use xlink:href="#SVGCleanerId_1" fill="url(#radialGradient7050)" opacity="0.406" inkscape:connector-curvature="0" transform="matrix(1.03791 0.42028 -0.56181 0.95746 -103.29 -21.853)"/>
   <use xlink:href="#SVGCleanerId_1" fill="url(#radialGradient7046)" opacity="0.825" inkscape:connector-curvature="0" transform="matrix(1.03997 -0.13431 0.00693 1.52289 -110.33 38.32)"/>
   <use xlink:href="#SVGCleanerId_2" fill="url(#radialGradient4077)" inkscape:connector-curvature="0"/>
   <path d="m 78.955857,30.40298 c 2.30479,4.912441 0.30807,8.120207 1.653665,13.735741 5.585748,23.310853 -13.95262,40.170739 -38.243555,40.515677 -1.333059,0.01893 -2.830792,1.00703 -4.129493,0.877729 3.642859,1.237709 7.739302,0.860117 11.812933,0.860117 19.569984,0 35.424054,-15.519792 35.424054,-34.665468 0,-8.205801 -1.646384,-15.386372 -6.517604,-21.323796 z" fill="#b81f00" fill-opacity="1" stroke="none" opacity="0.774" inkscape:connector-curvature="0"/>
   <path d="m 45.961942,41.90633 a 0.79549515,3.005204 0 1 1 -1.59099,0 0.79549515,3.005204 0 1 1 1.59099,0 z" fill="url(#radialGradient3339)" fill-opacity="1" stroke="none" opacity="0.225" inkscape:connector-curvature="0" transform="matrix(2.82485 0 0 0.64706 -83.64 13.199)"/>
  </g>
  <rect x="-96" rx="25" y="958.36" clip-path="url(#clipPath3009)" fill="#ffffff" fill-opacity="1" height="92" opacity="0.15" width="92" transform="matrix(1 0 0 1 98 0)"/>
 </g>
</svg>
