<svg height="96" width="96" xmlns="http://www.w3.org/2000/svg" xmlns:xlink="http://www.w3.org/1999/xlink" xmlns:sodipodi="http://sodipodi.sourceforge.net/DTD/sodipodi-0.dtd" xmlns:inkscape="http://www.inkscape.org/namespaces/inkscape">
 <defs>
  <linearGradient x2="0" y1="962.62" y2="1046.1" gradientUnits="userSpaceOnUse" id="linearGradient11642" gradientTransform="matrix(1.15 0 0 1.15 -7.2 -150.65)">
   <stop stop-color="#722284"/>
   <stop stop-color="#c06fd5" offset="1"/>
  </linearGradient>
  <radialGradient cy="253.88" r="233.47" gradientUnits="userSpaceOnUse" id="RadialGray" cx="254.64" gradientTransform="matrix(1.0608 -0.06751 0.06227 0.97841 -31.59 22.765)">
   <stop stop-color="#434343"/>
   <stop stop-color="#434343" offset="0.629"/>
   <stop stop-color="#252525" offset="1"/>
  </radialGradient>
  <clipPath id="ClipBallRelief">
   <path d="m0 0v512h512v-512h-512zm258.75 58.438c18.849-0.16932 38.169 3.3445 49.031 7.6875 19.182 7.6693 48.471 16.694 28.406 46.062-20.18 29.538-30.717 88.162-13.469 120.53 17.328 32.52 23.773 38.497 48.219 50.312 24.446 11.816 55.193 11.722 78.125 8.8438 22.974-2.8831 11.417 34.925 4.5625 51.094-17.47 44.5-60.13 77.08-101.82 94.98-42 18.03-154.25 19.91-183.81 5.12-29.86-14.94-51.89-26.59-72.719-47.65-20.837-21.07-31.823-43.95-38.469-69.22-6.7357-25.619 21.573-10.006 54.656-4.4062 33.083 5.5994 69.622-20.349 84.312-37.375 14.691-17.026 36.199-68.119 37.5-100 1.3008-31.881 2.5145-54.669-9.5938-71.562-12.11-16.9-26.29-32.398-3.81-45.975 9.831-5.9399 24.214-8.3058 38.875-8.4375z"/>
  </clipPath>
  <clipPath id="ClipBallReflect">
   <use xlink:href="#SVGCleanerId_0"/>
  </clipPath>
  <radialGradient cy="181.85" r="81.905" xlink:href="#WhiteGradient" gradientUnits="userSpaceOnUse" id="RightWhite" cx="418.69" gradientTransform="matrix(0.94551 -0.40399 0.5143 1.2037 -69.782 131.21)"/>
  <linearGradient id="WhiteGradient">
   <stop stop-color="#fff"/>
   <stop stop-color="#fff" offset="0.674"/>
   <stop stop-color="#989898" offset="1"/>
  </linearGradient>
  <clipPath id="ClipRightRelief">
   <path d="m386 90.5s-28 28.5-34.5 50c-5.0228 16.614-9 51.5 13 79.5 19.452 24.757 56.5 45 87.5 34 31.89-11.316 42.077-41.718 45-66.5 2.9163-24.729 3.5-28 3.5-28l11.5 6 21.5 101-71.5 46-123.5-56.5-12.5-128.5 33.5-59 111 1.5 0.5 13.5-85 7z"/>
  </clipPath>
  <radialGradient cy="178.67" r="102.06" xlink:href="#WhiteGradient" gradientUnits="userSpaceOnUse" id="LeftWhite" cx="112.07" gradientTransform="matrix(0.8322 0.3616 -0.50719 1.1673 114.88 -60.5)"/>
  <clipPath id="ClipLeftRelief">
   <path d="m20.5 232.75s45.277 54.998 82.75 52.75c37.5-2.25 61.75-7.5 85.75-45s12.5-88.5 6.5-105.5c-5.84-16.56-28-46-60-58.5l-32-12.5 23.5-5.5 87 26 17.5 113-63 155.5-139.5-17.5-17-97 8.5-5.75z"/>
  </clipPath>
  <clipPath clipPathUnits="userSpaceOnUse" id="clipPath3009">
   <path d="m-2 956.36h-96v33.562l96 25.687v-59.25z"/>
  </clipPath>
  <path d="m255.03 37.844c-78.65 2.081-157.93 40.988-202.59 106.66-30.48 45.92-35.58 103.97-29.11 157.4 14.114 84.89 85.39 154.25 168.83 171.73 60.276 13.327 124.99 6.9968 181.79-16.977 53.47-24.376 93.594-75.067 104.63-132.86 13.32-56.37 15.41-119.51-15.6-170.77-41.39-73.236-124.79-116.12-207.95-115.16z" id="SVGCleanerId_0"/>
  <path d="m409.19 88.188c-15.36 0.79519-31.399 4.3208-42.775 15.414-15.948 15.15-22.144 37.36-26.71 58.186-6.6472 30.351 3.6973 63.336 25.982 84.872 18.749 19.28 46.565 31.054 73.55 25.796 20.362-3.8844 40.649-14.502 51.736-32.556 11.374-22.801 12.796-49.706 7.8601-74.411-4.0318-16.026-11.092-31.494-20.973-44.812-2.132-2.8736-4.3953-5.6471-6.7878-8.3045-11.97-13.314-29.03-21.158-46.69-23.144-5.03-0.79-10.12-0.724-15.19-1.038z" fill-rule="evenodd" id="SVGCleanerId_1"/>
  <path d="m448.16 153.81c-5.739 0.0561-11.541 2.0162-15.679 6.0963-9.0974 8.8355-11.048 24.189-4.3355 34.972 4.9522 7.8987 15.11 11.954 24.168 9.9503 6.3842-1.3519 12.753-4.5343 16.273-10.253 6.192-9.8889 4.6141-23.495-2.5154-32.48-4.2335-5.4245-11.011-8.669-17.911-8.2855z" fill="#070402" fill-rule="evenodd" id="SVGCleanerId_2"/>
  <path d="m124.59 72.375c-35.592 0.592-66.953 24.424-85.765 53.365-13.27 21.01-22.157 45.37-23.359 70.28 0.24939 21.214 4.9479 42.675 14.129 61.776 14.028 21.566 35.554 39.844 61.112 45.466 21.123 3.8253 43.698 0.56293 62.087-10.881 45.505-25.187 69.558-79.097 66.536-129.9-1.5212-23.788-7.6936-49.992-27.601-65.239-17.075-13.484-38.272-21.805-59.779-24.509-2.4496-0.17364-4.9041-0.2622-7.3575-0.36133z" fill-rule="evenodd" id="SVGCleanerId_3"/>
 </defs>
 <g transform="matrix(1 0 0 1 0 -956.36)">
  <rect x="2" rx="25" y="958.36" fill="url(#linearGradient11642)" height="92" width="92"/>
  <g transform="matrix(0.10677 0 0 0.10677 20.243 975.92)">
   <use xlink:href="#SVGCleanerId_0" fill="url(#RadialGray)"/>
   <use xlink:href="#SVGCleanerId_0" clip-path="url(#ClipBallRelief)" opacity="0.15"/>
   <path d="m73 413c98.712-23.703 195.4-65.93 271.05-134.85 50.739-46.018 86.519-108.83 95.973-176.99 13.254-65.4 24.176-131.45 41.935-195.82 3.9149-7.9565 5.2614 12.147 7.9667 16.264 23.02 76.135 46.05 152.27 69.07 228.4-10.333 118.33-20.667 236.67-31 355-156.33 3.6667-312.67 7.3333-469 11l-1-100 15-3z" clip-path="url(#ClipBallReflect)" fill-rule="evenodd" opacity="0.05"/>
   <path d="m271.94 131c-3.3901 0.18518-6.6645 3.3694-6.3125 7 0.36347 3.7488 1.6345 7 7 7 5.364 0 6.6239-2.6236 7-7 0.375-4.364-3.261-6.75-7-7-0.22591-0.0151-0.46149-0.0123-0.6875 0zm-22.375 25.5c-1.735-0.11664-3.0191 1.5186-3.0625 3.0625-0.0399 1.419 1.0999 2.847 3.0625 3.0938 1.8395 0.23128 3.1339-1.2658 3.0938-3.0938-0.0402-1.8295-1.2344-2.9375-3.0938-3.0625z" fill="#fff" fill-rule="evenodd" opacity="0.02"/>
   <use xlink:href="#SVGCleanerId_1" fill="url(#RightWhite)"/>
   <use xlink:href="#SVGCleanerId_2"/>
   <use xlink:href="#SVGCleanerId_1" clip-path="url(#ClipRightRelief)" opacity="0.08"/>
   <use xlink:href="#SVGCleanerId_2"/>
   <use xlink:href="#SVGCleanerId_3" fill="url(#LeftWhite)"/>
   <use xlink:href="#SVGCleanerId_3" clip-path="url(#ClipLeftRelief)" opacity="0.08"/>
   <path d="m90.507 153.18c-5.746-0.1256-11.228 2.3178-15.96 5.3729-9.1059 6.3974-12.433 18.711-10.02 29.256 1.8545 9.0925 8.4959 17.438 17.657 19.884 8.6782 2.5877 18.66 0.33409 25.198-5.9822 6.7495-5.2273 9.8898-14.215 8.6521-22.563-1.456-10.986-8.8797-21.648-19.706-25.048-1.8863-0.57036-3.8505-0.88518-5.8212-0.92052z" fill="#070402" fill-rule="evenodd"/>
  </g>
  <rect x="-96" rx="25" y="958.36" clip-path="url(#clipPath3009)" fill="#fff" height="92" opacity="0.15" width="92" transform="matrix(1 0 0 1 98 0)"/>
 </g>
</svg>
