<?xml version="1.0" encoding="UTF-8" standalone="no"?>
<!-- Created with Inkscape (http://www.inkscape.org/) -->

<svg
   xmlns:dc="http://purl.org/dc/elements/1.1/"
   xmlns:cc="http://creativecommons.org/ns#"
   xmlns:rdf="http://www.w3.org/1999/02/22-rdf-syntax-ns#"
   xmlns:svg="http://www.w3.org/2000/svg"
   xmlns="http://www.w3.org/2000/svg"
   xmlns:xlink="http://www.w3.org/1999/xlink"
   xmlns:sodipodi="http://sodipodi.sourceforge.net/DTD/sodipodi-0.dtd"
   xmlns:inkscape="http://www.inkscape.org/namespaces/inkscape"
   id="svg11037"
   height="96"
   width="96"
   version="1.1"
   inkscape:version="0.48.5 r10040"
   sodipodi:docname="WorldOfGoo.svg">
  <sodipodi:namedview
     pagecolor="#ffffff"
     bordercolor="#666666"
     borderopacity="1"
     objecttolerance="10"
     gridtolerance="10"
     guidetolerance="10"
     inkscape:pageopacity="0"
     inkscape:pageshadow="2"
     inkscape:window-width="640"
     inkscape:window-height="480"
     id="namedview72994" />
  <defs
     id="defs11039">
    <linearGradient
       id="linearGradient11642"
       y2="1046.1"
       gradientUnits="userSpaceOnUse"
       y1="962.62"
       gradientTransform="matrix(1.15 0 0 1.15 -7.1999 -150.65)"
       x2="48"
       x1="48">
      <stop
         id="stop3189-0"
         style="stop-color:#722284"
         offset="0" />
      <stop
         id="stop3191-3"
         style="stop-color:#c06fd5"
         offset="1" />
    </linearGradient>
    <radialGradient
       id="RadialGray"
       gradientUnits="userSpaceOnUse"
       cy="253.88"
       cx="254.64"
       gradientTransform="matrix(1.0608 -.067511 .06227 .97841 -31.59 22.765)"
       r="233.47">
      <stop
         id="GrayStop1"
         style="stop-color:#434343"
         offset="0" />
      <stop
         id="GrayStop2"
         style="stop-color:#434343"
         offset=".62869" />
      <stop
         id="GrayStop3"
         style="stop-color:#252525"
         offset="1" />
    </radialGradient>
    <clipPath
       id="ClipBallRelief">
      <path
         id="ClipBallReliefPath"
         d="m0 0v512h512v-512h-512zm258.75 58.438c18.849-0.16932 38.169 3.3445 49.031 7.6875 19.182 7.6693 48.471 16.694 28.406 46.062-20.18 29.538-30.717 88.162-13.469 120.53 17.328 32.52 23.773 38.497 48.219 50.312 24.446 11.816 55.193 11.722 78.125 8.8438 22.974-2.8831 11.417 34.925 4.5625 51.094-17.47 44.5-60.13 77.08-101.82 94.98-42 18.03-154.25 19.91-183.81 5.12-29.86-14.94-51.89-26.59-72.719-47.65-20.837-21.07-31.823-43.95-38.469-69.22-6.7357-25.619 21.573-10.006 54.656-4.4062 33.083 5.5994 69.622-20.349 84.312-37.375 14.691-17.026 36.199-68.119 37.5-100 1.3008-31.881 2.5145-54.669-9.5938-71.562-12.11-16.9-26.29-32.398-3.81-45.975 9.831-5.9399 24.214-8.3058 38.875-8.4375z"
         style="opacity:.5;fill-rule:evenodd" />
    </clipPath>
    <clipPath
       id="ClipBallReflect">
      <path
         id="ClipBallReflectPath"
         d="m255.03 37.844c-78.65 2.081-157.93 40.988-202.59 106.66-30.48 45.92-35.58 103.97-29.11 157.4 14.114 84.89 85.39 154.25 168.83 171.73 60.276 13.327 124.99 6.9968 181.79-16.977 53.47-24.376 93.594-75.067 104.63-132.86 13.32-56.37 15.41-119.51-15.6-170.77-41.39-73.236-124.79-116.12-207.95-115.16z" />
    </clipPath>
    <radialGradient
       id="RightWhite"
       xlink:href="#WhiteGradient"
       gradientUnits="userSpaceOnUse"
       cy="181.85"
       cx="418.69"
       gradientTransform="matrix(.94551 -.40399 .5143 1.2037 -69.782 131.21)"
       r="81.905" />
    <linearGradient
       id="WhiteGradient">
      <stop
         id="WhiteStop1"
         style="stop-color:#fff"
         offset="0" />
      <stop
         id="WhiteStop2"
         style="stop-color:#fff"
         offset=".67379" />
      <stop
         id="WhiteStop3"
         style="stop-color:#989898"
         offset="1" />
    </linearGradient>
    <clipPath
       id="ClipRightRelief">
      <path
         id="ClipRightReliefPath"
         d="m386 90.5s-28 28.5-34.5 50c-5.0228 16.614-9 51.5 13 79.5 19.452 24.757 56.5 45 87.5 34 31.89-11.316 42.077-41.718 45-66.5 2.9163-24.729 3.5-28 3.5-28l11.5 6 21.5 101-71.5 46-123.5-56.5-12.5-128.5 33.5-59 111 1.5 0.5 13.5-85 7z"
         style="opacity:.2;fill-rule:evenodd" />
    </clipPath>
    <radialGradient
       id="LeftWhite"
       xlink:href="#WhiteGradient"
       gradientUnits="userSpaceOnUse"
       cy="178.67"
       cx="112.07"
       gradientTransform="matrix(.8322 .3616 -.50719 1.1673 114.88 -60.5)"
       r="102.06" />
    <clipPath
       id="ClipLeftRelief">
      <path
         id="ClipLeftReliefPath"
         d="m20.5 232.75s45.277 54.998 82.75 52.75c37.5-2.25 61.75-7.5 85.75-45s12.5-88.5 6.5-105.5c-5.84-16.56-28-46-60-58.5l-32-12.5 23.5-5.5 87 26 17.5 113-63 155.5-139.5-17.5-17-97 8.5-5.75z"
         style="opacity:.2;stroke:#000;stroke-width:1px;fill-rule:evenodd" />
    </clipPath>
    <clipPath
       id="clipPath3009"
       clipPathUnits="userSpaceOnUse">
      <path
         id="path3011"
         style="opacity:.15;fill:#fff"
         d="m-2 956.36h-96v33.562l96 25.687v-59.25z" />
    </clipPath>
  </defs>
  <metadata
     id="metadata11042">
    <rdf:RDF>
      <cc:Work
         rdf:about="">
        <dc:format>image/svg+xml</dc:format>
        <dc:type
           rdf:resource="http://purl.org/dc/dcmitype/StillImage" />
        <dc:title />
      </cc:Work>
    </rdf:RDF>
  </metadata>
  <g
     id="layer1"
     transform="translate(0 -956.36)">
    <rect
       id="rect3867"
       style="fill:url(#linearGradient11642)"
       rx="25"
       ry="25"
       height="92"
       width="92"
       y="958.36"
       x="2" />
    <g
       id="g5754"
       transform="translate(1.8e-7 .0021801)">
      <g
         id="Logo"
         transform="matrix(.10677 0 0 .10677 20.243 975.92)">
        <g
           id="GooBall">
          <path
             id="Ball"
             d="m255.03 37.844c-78.65 2.081-157.93 40.988-202.59 106.66-30.48 45.92-35.58 103.97-29.11 157.4 14.114 84.89 85.39 154.25 168.83 171.73 60.276 13.327 124.99 6.9968 181.79-16.977 53.47-24.376 93.594-75.067 104.63-132.86 13.32-56.37 15.41-119.51-15.6-170.77-41.39-73.236-124.79-116.12-207.95-115.16z"
             style="fill:url(#RadialGray)" />
          <path
             id="BallRelief"
             d="m255.03 37.844c-78.65 2.081-157.93 40.988-202.59 106.66-30.48 45.92-35.58 103.97-29.11 157.4 14.114 84.89 85.39 154.25 168.83 171.73 60.276 13.327 124.99 6.9968 181.79-16.977 53.47-24.376 93.594-75.067 104.63-132.86 13.32-56.37 15.41-119.51-15.6-170.77-41.39-73.236-124.79-116.12-207.95-115.16z"
             style="opacity:.15"
             clip-path="url(#ClipBallRelief)" />
          <path
             id="BallReflect"
             d="m73 413c98.712-23.703 195.4-65.93 271.05-134.85 50.739-46.018 86.519-108.83 95.973-176.99 13.254-65.4 24.176-131.45 41.935-195.82 3.9149-7.9565 5.2614 12.147 7.9667 16.264 23.02 76.135 46.05 152.27 69.07 228.4-10.333 118.33-20.667 236.67-31 355-156.33 3.6667-312.67 7.3333-469 11l-1-100 15-3z"
             style="opacity:.05;fill-rule:evenodd"
             clip-path="url(#ClipBallReflect)" />
          <path
             id="Lights"
             d="m271.94 131c-3.3901 0.18518-6.6645 3.3694-6.3125 7 0.36347 3.7488 1.6345 7 7 7 5.364 0 6.6239-2.6236 7-7 0.375-4.364-3.261-6.75-7-7-0.22591-0.0151-0.46149-0.0123-0.6875 0zm-22.375 25.5c-1.735-0.11664-3.0191 1.5186-3.0625 3.0625-0.0399 1.419 1.0999 2.847 3.0625 3.0938 1.8395 0.23128 3.1339-1.2658 3.0938-3.0938-0.0402-1.8295-1.2344-2.9375-3.0938-3.0625z"
             style="opacity:0.02;fill:#fff;fill-rule:evenodd" />
        </g>
        <g
           id="RightEye">
          <path
             id="RightEyeball"
             d="m409.19 88.188c-15.36 0.79519-31.399 4.3208-42.775 15.414-15.948 15.15-22.144 37.36-26.71 58.186-6.6472 30.351 3.6973 63.336 25.982 84.872 18.749 19.28 46.565 31.054 73.55 25.796 20.362-3.8844 40.649-14.502 51.736-32.556 11.374-22.801 12.796-49.706 7.8601-74.411-4.0318-16.026-11.092-31.494-20.973-44.812-2.132-2.8736-4.3953-5.6471-6.7878-8.3045-11.97-13.314-29.03-21.158-46.69-23.144-5.03-0.79-10.12-0.724-15.19-1.038z"
             style="fill:url(#RightWhite);fill-rule:evenodd" />
          <path
             id="RightPupil"
             d="m448.16 153.81c-5.739 0.0561-11.541 2.0162-15.679 6.0963-9.0974 8.8355-11.048 24.189-4.3355 34.972 4.9522 7.8987 15.11 11.954 24.168 9.9503 6.3842-1.3519 12.753-4.5343 16.273-10.253 6.192-9.8889 4.6141-23.495-2.5154-32.48-4.2335-5.4245-11.011-8.669-17.911-8.2855z"
             style="fill:#070402;fill-rule:evenodd" />
          <path
             id="RightRelief"
             d="m409.19 88.188c-15.36 0.79519-31.399 4.3208-42.775 15.414-15.948 15.15-22.144 37.36-26.71 58.186-6.6472 30.351 3.6973 63.336 25.982 84.872 18.749 19.28 46.565 31.054 73.55 25.796 20.362-3.8844 40.649-14.502 51.736-32.556 11.374-22.801 12.796-49.706 7.8601-74.411-4.0318-16.026-11.092-31.494-20.973-44.812-2.132-2.8736-4.3953-5.6471-6.7878-8.3045-11.97-13.314-29.03-21.158-46.69-23.144-5.03-0.79-10.12-0.724-15.19-1.038z"
             style="opacity:0.08;fill-rule:evenodd"
             clip-path="url(#ClipRightRelief)" />
          <path
             id="path3747"
             d="m448.16 153.81c-5.739 0.0561-11.541 2.0162-15.679 6.0963-9.0974 8.8355-11.048 24.189-4.3355 34.972 4.9522 7.8987 15.11 11.954 24.168 9.9503 6.3842-1.3519 12.753-4.5343 16.273-10.253 6.192-9.8889 4.6141-23.495-2.5154-32.48-4.2335-5.4245-11.011-8.669-17.911-8.2855z"
             style="fill:#070402;fill-rule:evenodd" />
        </g>
        <g
           id="LeftEye">
          <path
             id="LeftEyeball"
             d="m124.59 72.375c-35.592 0.592-66.953 24.424-85.765 53.365-13.27 21.01-22.157 45.37-23.359 70.28 0.24939 21.214 4.9479 42.675 14.129 61.776 14.028 21.566 35.554 39.844 61.112 45.466 21.123 3.8253 43.698 0.56293 62.087-10.881 45.505-25.187 69.558-79.097 66.536-129.9-1.5212-23.788-7.6936-49.992-27.601-65.239-17.075-13.484-38.272-21.805-59.779-24.509-2.4496-0.17364-4.9041-0.2622-7.3575-0.36133z"
             style="fill:url(#LeftWhite);fill-rule:evenodd" />
          <path
             id="LeftRelief"
             d="m124.59 72.375c-35.592 0.592-66.953 24.424-85.765 53.365-13.27 21.01-22.157 45.37-23.359 70.28 0.24939 21.214 4.9479 42.675 14.129 61.776 14.028 21.566 35.554 39.844 61.112 45.466 21.123 3.8253 43.698 0.56293 62.087-10.881 45.505-25.187 69.558-79.097 66.536-129.9-1.5212-23.788-7.6936-49.992-27.601-65.239-17.075-13.484-38.272-21.805-59.779-24.509-2.4496-0.17364-4.9041-0.2622-7.3575-0.36133z"
             style="opacity:0.08;fill-rule:evenodd"
             clip-path="url(#ClipLeftRelief)" />
          <path
             id="LeftPupil"
             d="m90.507 153.18c-5.746-0.1256-11.228 2.3178-15.96 5.3729-9.1059 6.3974-12.433 18.711-10.02 29.256 1.8545 9.0925 8.4959 17.438 17.657 19.884 8.6782 2.5877 18.66 0.33409 25.198-5.9822 6.7495-5.2273 9.8898-14.215 8.6521-22.563-1.456-10.986-8.8797-21.648-19.706-25.048-1.8863-0.57036-3.8505-0.88518-5.8212-0.92052z"
             style="fill:#070402;fill-rule:evenodd" />
        </g>
      </g>
    </g>
    <rect
       id="rect3003"
       style="opacity:.15;fill:#fff"
       transform="translate(98 3.8281e-7)"
       clip-path="url(#clipPath3009)"
       rx="25"
       ry="25"
       height="92"
       width="92"
       y="958.36"
       x="-96" />
  </g>
</svg>
