<svg height="96" width="96" xmlns="http://www.w3.org/2000/svg" xmlns:xlink="http://www.w3.org/1999/xlink" xmlns:sodipodi="http://sodipodi.sourceforge.net/DTD/sodipodi-0.dtd" xmlns:inkscape="http://www.inkscape.org/namespaces/inkscape">
 <defs>
  <linearGradient x2="0" y1="90" y2="5.988" gradientUnits="userSpaceOnUse" id="linearGradient3617">
   <stop stop-color="#a9b075" stop-opacity="1"/>
   <stop stop-color="#ece8c7" stop-opacity="1" offset="1"/>
  </linearGradient>
  <linearGradient x2="0" xlink:href="#linearGradient3839" y1="48" y2="5.988" gradientUnits="userSpaceOnUse" id="linearGradient4696"/>
  <linearGradient id="linearGradient3839">
   <stop stop-color="#d5dc9d" stop-opacity="1"/>
   <stop stop-color="#f5f1cf" stop-opacity="1" offset="1"/>
  </linearGradient>
  <linearGradient x1="6" x2="32" xlink:href="#linearGradient4750" gradientUnits="userSpaceOnUse" id="linearGradient4756"/>
  <linearGradient id="linearGradient4750">
   <stop stop-color="#dde9af" stop-opacity="0.581"/>
   <stop stop-color="#fafcf3" stop-opacity="0.581" offset="0.154"/>
   <stop stop-color="#c7d2ad" stop-opacity="0" offset="1"/>
  </linearGradient>
  <linearGradient x1="6" x2="32" xlink:href="#linearGradient4750" gradientUnits="userSpaceOnUse" id="linearGradient4763" gradientTransform="matrix(-1 0 0 1 96 0)"/>
  <radialGradient cy="16" r="3.887" xlink:href="#linearGradient3898" gradientUnits="userSpaceOnUse" id="radialGradient4397" cx="13.5" gradientTransform="matrix(1 0 0 1.64312 0 -10.29)"/>
  <linearGradient id="linearGradient3898">
   <stop stop-color="#455a30" stop-opacity="1"/>
   <stop stop-color="#86b05c" stop-opacity="1" offset="1"/>
  </linearGradient>
  <radialGradient cy="38" r="4" xlink:href="#linearGradient3898" gradientUnits="userSpaceOnUse" id="radialGradient3912" cx="13.5" gradientTransform="matrix(1 0 0 1.375 0 -14.25)"/>
  <radialGradient cy="28" r="8.375" gradientUnits="userSpaceOnUse" id="radialGradient4403" cx="48" gradientTransform="matrix(1 0 0 1.47761 0 -13.373)">
   <stop stop-color="#829f66" stop-opacity="1"/>
   <stop stop-color="#546741" stop-opacity="1" offset="1"/>
  </radialGradient>
  <linearGradient x2="0" xlink:href="#linearGradient3839" y1="33.869" y2="15.761" gradientUnits="userSpaceOnUse" id="linearGradient4437" gradientTransform="matrix(1.11408 0 0 1.11408 -3.301 0.673)"/>
  <linearGradient x1="56" x2="72" gradientUnits="userSpaceOnUse" id="linearGradient4950">
   <stop stop-color="#d5b742" stop-opacity="1"/>
   <stop stop-color="#f5e6aa" stop-opacity="1" offset="0.188"/>
   <stop stop-color="#e0bf55" stop-opacity="1" offset="0.375"/>
   <stop stop-color="#8a6e24" stop-opacity="1" offset="1"/>
  </linearGradient>
  <radialGradient cy="68.802" r="8" gradientUnits="userSpaceOnUse" id="radialGradient4952" cx="64" gradientTransform="matrix(1.26271 0 0 1.21017 -16.814 -14.46)">
   <stop stop-color="#f8eec3" stop-opacity="1"/>
   <stop stop-color="#f0d57b" stop-opacity="1" offset="0.7"/>
   <stop stop-color="#dcb740" stop-opacity="1" offset="1"/>
  </radialGradient>
  <linearGradient x2="0" y1="78" y2="60" gradientUnits="userSpaceOnUse" id="linearGradient4954">
   <stop stop-color="#8f7227" stop-opacity="1"/>
   <stop stop-color="#8f7227" stop-opacity="0" offset="1"/>
  </linearGradient>
  <clipPath clipPathUnits="userSpaceOnUse" id="clipPath4748">
   <rect x="6" rx="22.826" y="5.522" height="84" width="84"/>
  </clipPath>
  <clipPath clipPathUnits="userSpaceOnUse" id="clipPath3009">
   <path d="m -2,956.36218 -96,0 0,33.5624 96,25.68742 0,-59.24982 z" inkscape:connector-curvature="0"/>
  </clipPath>
  <path stroke-opacity="1" d="m 17,16 a 3.5,6 0 1 1 -7,0 3.5,6 0 1 1 7,0 z" stroke-width="0.775" display="inline" fill="url(#radialGradient4397)" color="#000000" fill-opacity="1" stroke="#edecc5" fill-rule="nonzero" stroke-dasharray="none" id="SVGCleanerId_0" visibility="visible" stroke-miterlimit="4"/>
  <path d="m 15.93675,17.540833 1.61276,2.008677 -2.008677,-1.61276 0.392352,2.545945 L 15,18.081665 14.066815,20.482695 14.459167,17.93675 12.45049,19.54951 14.06325,17.540833 11.517305,17.933185 13.918335,17 11.517305,16.066815 14.06325,16.459167 12.45049,14.45049 14.459167,16.06325 14.066815,13.517305 15,15.918335 15.933185,13.517305 15.540833,16.06325 17.54951,14.45049 15.93675,16.459167 18.482695,16.066815 16.081665,17 l 2.40103,0.933185 z" stroke-width="1" display="inline" fill="#efedc7" color="#000000" fill-opacity="1" stroke="none" fill-rule="nonzero" id="SVGCleanerId_1" visibility="visible" opacity="0.4"/>
  <path d="m 14.75,12.96875 a 0.56885745,0.56885745 0 0 0 -0.09375,0.0625 l -2.21875,1.125 a 0.56885745,0.56885745 0 0 0 -0.3125,0.5 l 0,0.59375 a 0.56885745,0.56885745 0 0 0 0.75,0.53125 c 0.173765,-0.0619 0.281213,-0.08283 0.40625,-0.125 l 0,4.65625 c -10e-7,0.10895 0.01432,0.07692 0.03125,0.0625 0.0091,-0.0061 -0.0068,0.02134 -0.09375,0.03125 -0.113646,0.01296 -0.289058,0.02223 -0.5,0.03125 A 0.56885745,0.56885745 0 0 0 12.1875,21 l 0,0.5625 A 0.56885745,0.56885745 0 0 0 12.75,22.125 l 4.5,0 a 0.56885745,0.56885745 0 0 0 0.5625,-0.5625 l 0,-0.59375 A 0.56885745,0.56885745 0 0 0 17.25,20.40625 c -0.34702,0 -0.462959,-0.03656 -0.5,-0.03125 l 0,-6.8125 A 0.56885745,0.56885745 0 0 0 16.1875,13 l -1.28125,-0.03125 a 0.56885745,0.56885745 0 0 0 -0.15625,0 z" fill="#000000" fill-opacity="1" stroke="none" id="SVGCleanerId_2" opacity="0.15"/>
  <path d="m 17.245308,21.568421 -4.482878,0 0,-0.578134 c 0.437808,-0.01871 0.707229,-0.05051 0.808265,-0.09542 0.172128,-0.08232 0.258194,-0.271293 0.258196,-0.566908 l 0,-5.096563 c -2e-6,-0.123478 -0.0019,-0.190834 -0.0057,-0.202065 -0.01871,-0.07109 -0.07485,-0.106641 -0.16839,-0.106647 -0.04491,6e-6 -0.366714,0.106652 -0.965427,0.319939 l 0,-0.572521 2.222729,-1.128204 1.266657,0.01152 0,6.982223 c -4e-6,0.194583 0.07109,0.318068 0.213292,0.370455 0.123481,0.04865 0.40787,0.07297 0.853169,0.07297 l 0,0.58936" fill="#000000" fill-opacity="1" stroke="none" id="SVGCleanerId_3" opacity="0.3"/>
  <path d="m 17.245308,21.004608 -4.482878,0 0,-0.578134 c 0.437808,-0.01871 0.707229,-0.05051 0.808265,-0.09542 0.172128,-0.08232 0.258194,-0.271293 0.258196,-0.566908 l 0,-5.096563 c -2e-6,-0.123478 -0.0019,-0.190834 -0.0057,-0.202065 -0.01871,-0.07109 -0.07485,-0.106641 -0.16839,-0.106647 -0.04491,6e-6 -0.366714,0.106652 -0.965427,0.319939 l 0,-0.572521 2.222729,-1.128204 1.266657,0.01152 0,6.982223 c -4e-6,0.194583 0.07109,0.318068 0.213292,0.370455 0.123481,0.04865 0.40787,0.07297 0.853169,0.07297 l 0,0.58936" fill="#f1eeca" fill-opacity="1" stroke="none" id="SVGCleanerId_4"/>
  <path stroke-opacity="1" d="m 17,38 a 3.5,5 0 1 1 -7,0 3.5,5 0 1 1 7,0 z" stroke-width="0.75" display="inline" fill="url(#radialGradient3912)" color="#000000" fill-opacity="1" stroke="#edecc5" fill-rule="nonzero" stroke-dasharray="none" id="SVGCleanerId_5" visibility="visible" stroke-dashoffset="8.6" stroke-linecap="round" stroke-linejoin="miter" stroke-miterlimit="4"/>
  <path d="m 14.862581,41.450064 -2.705293,0 0,-0.348888 c 0.264205,-0.01129 0.426793,-0.03048 0.487766,-0.05758 0.103874,-0.04968 0.155813,-0.163718 0.155814,-0.342113 l 0,-3.075635 c -10e-7,-0.07451 -0.0011,-0.115163 -0.0034,-0.12194 -0.01129,-0.0429 -0.04517,-0.06435 -0.101619,-0.06436 -0.0271,4e-6 -0.221301,0.06436 -0.582608,0.193074 l 0,-0.3455 1.341355,-0.68084 0.764393,0.007 0,4.213578 c -3e-6,0.117425 0.0429,0.191945 0.128715,0.223559 0.07452,0.02936 0.246139,0.04404 0.514864,0.04404 l 0,0.355662" fill="#000000" fill-opacity="1" stroke="none" id="SVGCleanerId_6" opacity="0.3"/>
  <path d="m 14.862581,41.109819 -2.705293,0 0,-0.348888 c 0.264205,-0.01129 0.426793,-0.03048 0.487766,-0.05758 0.103874,-0.04968 0.155813,-0.163717 0.155814,-0.342113 l 0,-3.075634 c -10e-7,-0.07452 -0.0011,-0.115163 -0.0034,-0.121941 -0.01129,-0.0429 -0.04517,-0.06435 -0.101619,-0.06436 -0.0271,3e-6 -0.221301,0.06436 -0.582608,0.193074 l 0,-0.345501 1.341355,-0.680839 0.764393,0.007 0,4.213577 c -3e-6,0.117426 0.0429,0.191946 0.128715,0.22356 0.07452,0.02936 0.246139,0.04404 0.514864,0.04404 l 0,0.355663" fill="#f1eeca" fill-opacity="1" stroke="none" id="SVGCleanerId_7"/>
  <path d="m 58.09375,55.0625 c -0.03324,0.547684 -0.07947,1.065634 -0.1875,2.25 -0.182826,0.150613 -0.21875,0.202964 -0.21875,0.3125 0,0.143768 0.137986,0.25 0.3125,0.25 0.182826,0 0.34375,-0.130637 0.34375,-0.28125 0,-0.02738 -0.02294,-0.08392 -0.03125,-0.125 0.249307,-0.171152 0.596781,-0.25 0.9375,-0.25 0.623269,0 0.9375,0.385628 0.9375,1.125 0,0.828372 -0.366431,1.28125 -1.03125,1.28125 -0.373961,0 -0.71875,-0.168733 -0.71875,-0.3125 0,-0.04108 0.01896,-0.05953 0.09375,-0.09375 0.324099,-0.130074 0.4375,-0.267234 0.4375,-0.5 0,-0.335456 -0.263678,-0.53125 -0.6875,-0.53125 -0.481994,0 -0.8125,0.263046 -0.8125,0.6875 0,0.684605 0.759437,1.125 1.90625,1.125 1.362879,0 2.28125,-0.681132 2.28125,-1.6875 0,-0.889987 -0.865825,-1.5625 -2.0625,-1.5625 -0.390582,0 -0.639024,0.04462 -1.1875,0.25 l 0.125,-0.875 c 0.390582,0.06846 0.70715,0.125 1.03125,0.125 0.68975,0 1.246712,-0.195794 1.5625,-0.53125 0.157896,-0.171152 0.28125,-0.443138 0.28125,-0.59375 0,-0.04108 -0.02095,-0.0625 -0.0625,-0.0625 -0.03324,0 -0.07515,-0.01374 -0.125,0 -0.274238,0.05477 -0.851802,0.125 -1.5,0.125 -0.689751,0 -1.109766,-0.036 -1.625,-0.125 z m 6.28125,0 c -1.246537,0 -2.15625,1.044772 -2.15625,2.46875 0,1.423978 0.909713,2.46875 2.15625,2.46875 1.221605,0 2.15625,-1.047752 2.15625,-2.4375 0,-0.807833 -0.228446,-1.399642 -0.71875,-1.90625 C 65.421918,55.266025 64.931786,55.0625 64.375,55.0625 z m 0,0.34375 c 0.249308,0 0.439838,0.124677 0.53125,0.34375 0.108027,0.22592 0.1875,0.959724 0.1875,1.78125 0,0.698297 -0.08146,1.454734 -0.15625,1.6875 -0.09141,0.273842 -0.279951,0.4375 -0.5625,0.4375 -0.257616,0 -0.462778,-0.124676 -0.5625,-0.34375 -0.09972,-0.225919 -0.15625,-0.973416 -0.15625,-1.78125 0,-0.698296 0.05021,-1.454735 0.125,-1.6875 0.09141,-0.273842 0.302892,-0.4375 0.59375,-0.4375 z" fill="#917428" fill-opacity="1" stroke="none" id="SVGCleanerId_8" opacity="0.5"/>
  <path d="m 61.1875,55.625 c -0.02241,0.03042 -0.03812,0.06732 -0.0625,0.09375 -0.315788,0.335456 -0.87275,0.53125 -1.5625,0.53125 -0.3241,0 -0.640668,-0.05654 -1.03125,-0.125 L 58.40625,57 C 58.44592,56.98515 58.4633,56.98197 58.5,56.96875 l 0.03125,-0.28125 c 0.26824,0.04702 0.493914,0.07243 0.71875,0.09375 0.111236,-0.01318 0.217777,-0.03125 0.34375,-0.03125 0.149584,0 0.2993,0.01112 0.4375,0.03125 0.0097,-0.0014 0.02165,0.0015 0.03125,0 0.462436,-0.07079 0.825659,-0.248408 1.0625,-0.5 0.157896,-0.171152 0.28125,-0.443138 0.28125,-0.59375 0,-0.04108 -0.02095,-0.0625 -0.0625,-0.0625 -0.03324,0 -0.07515,-0.01374 -0.125,0 -0.0067,0.0013 -0.02419,-0.0014 -0.03125,0 z m 3.1875,0 c -0.189627,0 -0.359229,0.04774 -0.53125,0.09375 -0.02172,0.03927 -0.04727,0.07936 -0.0625,0.125 -0.07479,0.232765 -0.125,0.989204 -0.125,1.6875 0,0.10378 -0.0018,0.18044 0,0.28125 0.01141,-0.607518 0.0604,-1.205197 0.125,-1.40625 0.09141,-0.273842 0.302892,-0.4375 0.59375,-0.4375 0.249308,0 0.439838,0.124677 0.53125,0.34375 0.09448,0.197593 0.13952,0.806498 0.15625,1.5 0.0028,-0.0962 0.03125,-0.185737 0.03125,-0.28125 0,-0.821526 -0.07947,-1.55533 -0.1875,-1.78125 -0.0087,-0.02094 -0.02074,-0.04331 -0.03125,-0.0625 -0.159973,-0.03924 -0.326004,-0.0625 -0.5,-0.0625 z m -4.78125,1.6875 c -0.390582,0 -0.639024,0.04462 -1.1875,0.25 l 0.03125,-0.15625 c -0.04042,0.02116 -0.08846,0.03742 -0.125,0.0625 0.0083,0.04108 0.03125,0.09762 0.03125,0.125 0,0.150613 -0.160924,0.28125 -0.34375,0.28125 -0.03787,0 -0.06036,-0.02195 -0.09375,-0.03125 -0.0015,0.01608 0.0015,0.01491 0,0.03125 -0.182826,0.150613 -0.21875,0.202964 -0.21875,0.3125 0,0.05751 0.02484,0.115151 0.0625,0.15625 0.13789,-0.09219 0.320378,-0.15625 0.53125,-0.15625 0.02326,0 0.04022,-0.0012 0.0625,0 0.0018,-0.01102 0,-0.01995 0,-0.03125 0,-0.02738 -0.02294,-0.08392 -0.03125,-0.125 0.249307,-0.171152 0.596781,-0.25 0.9375,-0.25 0.54536,0 0.837583,0.305867 0.90625,0.875 0.01392,-0.100253 0.03125,-0.197589 0.03125,-0.3125 0,-0.518982 -0.160905,-0.871871 -0.46875,-1.03125 -0.04166,-0.0017 -0.08248,0 -0.125,0 z m 2.65625,0.5 c -0.0088,0.09642 -0.03125,0.180824 -0.03125,0.28125 0,1.423978 0.909713,2.46875 2.15625,2.46875 1.221605,0 2.15625,-1.047752 2.15625,-2.4375 0,-0.112475 -0.0223,-0.208047 -0.03125,-0.3125 -0.09087,1.064473 -0.734361,1.864454 -1.625,2.09375 -0.103084,0.196357 -0.264543,0.3125 -0.5,0.3125 -0.242462,0 -0.425892,-0.116864 -0.53125,-0.3125 C 62.964718,59.671128 62.347531,58.87528 62.25,57.8125 z m -0.625,0.875 c -0.1701,0.703935 -0.847955,1.170382 -1.8125,1.28125 -0.166462,0.14165 -0.388701,0.21875 -0.65625,0.21875 -0.373961,0 -0.71875,-0.168733 -0.71875,-0.3125 0,-0.01369 0.02567,-0.02116 0.03125,-0.03125 -0.467345,-0.13353 -0.811711,-0.335876 -0.9375,-0.65625 -0.03103,0.07761 -0.0625,0.155122 -0.0625,0.25 0,0.684605 0.759437,1.125 1.90625,1.125 1.362879,0 2.28125,-0.681132 2.28125,-1.6875 0,-0.06719 -0.02161,-0.122985 -0.03125,-0.1875 z M 58.875,59 c -0.06886,0.07964 -0.181701,0.153713 -0.34375,0.21875 -0.07479,0.03422 -0.09375,0.05267 -0.09375,0.09375 0,0.103078 0.168092,0.223896 0.40625,0.28125 0.01097,0.0026 0.02004,-0.0024 0.03125,0 0.07519,-0.08184 0.09375,-0.191325 0.09375,-0.3125 0,-0.1125 -0.03834,-0.202282 -0.09375,-0.28125 z" fill="#ffffff" fill-opacity="1" stroke="none" id="SVGCleanerId_9" opacity="0.3"/>
  <path d="m 64,66 c -3.627671,0 -6.675964,2.104024 -7.65625,5 L 56,71 l 0,2 c 0,3.865993 3.581722,7 8,7 4.418278,0 8,-3.134007 8,-7 l 0,-2 -0.34375,0 C 70.675964,68.104024 67.627671,66 64,66 z" stroke-width="0.873" display="inline" fill="url(#linearGradient4950)" color="#000000" fill-opacity="1" stroke="none" fill-rule="nonzero" id="SVGCleanerId_10" visibility="visible"/>
  <path d="m 72,72 a 8,8 0 1 1 -16,0 8,8 0 1 1 16,0 z" stroke-width="0.873" display="inline" fill="url(#radialGradient4952)" color="#000000" fill-opacity="1" stroke="none" fill-rule="nonzero" id="SVGCleanerId_11" visibility="visible"/>
  <path d="m 64,64 c -4.418278,0 -8,3.134007 -8,7 0,3.865993 3.581722,7 8,7 4.418278,0 8,-3.134007 8,-7 0,-3.865993 -3.581722,-7 -8,-7 z m -0.71875,1 c 0.231464,-0.02049 0.480985,0 0.71875,0 3.804239,0 6.875,2.671291 6.875,6 0,3.328709 -3.070761,6 -6.875,6 -3.804239,0 -6.875,-2.671291 -6.875,-6 0,-3.120665 2.68429,-5.692617 6.15625,-6 z" stroke-width="0.873" display="inline" fill="url(#linearGradient4954)" color="#000000" fill-opacity="1" stroke="none" fill-rule="nonzero" id="SVGCleanerId_12" visibility="visible" opacity="0.5"/>
  <path d="m 57.09375,70.625 c -0.0086,0.124258 -0.03125,0.248802 -0.03125,0.375 0,3.359707 3.097835,6.0625 6.9375,6.0625 3.839665,0 6.9375,-2.702793 6.9375,-6.0625 0,-0.126198 -0.02263,-0.250742 -0.03125,-0.375 -0.3544,3.066109 -3.306564,5.4375 -6.90625,5.4375 -3.599686,0 -6.55185,-2.371391 -6.90625,-5.4375 z" stroke-width="0.873" display="inline" fill="#ffffff" color="#000000" fill-opacity="1" stroke="none" fill-rule="nonzero" id="SVGCleanerId_13" visibility="visible" opacity="0.4"/>
 </defs>
 <g inkscape:label="Layer 1" inkscape:groupmode="layer" transform="matrix(1 0 0 1 0 -956.36)">
  <g clip-path="url(#clipPath4748)" transform="matrix(1.09524 0 0 1.09524 -4.571 952.31)">
   <rect x="6" rx="6" y="6" fill="url(#linearGradient3617)" fill-opacity="1" fill-rule="nonzero" stroke="none" height="84" width="84"/>
   <rect x="6" rx="6" y="6" fill="url(#linearGradient4696)" fill-opacity="1" fill-rule="nonzero" stroke="none" height="42" width="84"/>
   <path d="m 6,40 0,44 c 0,3.324 2.676,6 6,6 l 20,0 0,-50 -26,0 z" fill="url(#linearGradient4756)" fill-opacity="1" fill-rule="nonzero" stroke="none" opacity="0.8" inkscape:connector-curvature="0"/>
   <path d="m 90,40 0,44 c 0,3.324 -2.676,6 -6,6 l -20,0 0,-50 26,0 z" fill="url(#linearGradient4763)" fill-opacity="1" fill-rule="nonzero" stroke="none" opacity="0.4" inkscape:connector-curvature="0"/>
   <path d="m 74,11 c 0.552285,0 1,0.447715 1,1 0,0.552285 -0.447715,1 -1,1 -0.552285,0 -1,-0.447715 -1,-1 0,-0.552285 0.447715,-1 1,-1 z m 2.5,2 c 0.828427,0 1.5,0.671573 1.5,1.5 0,0.828427 -0.671573,1.5 -1.5,1.5 -0.182944,0 -0.369148,-0.03379 -0.53125,-0.09375 C 75.972297,15.940507 76,15.964805 76,16 c 0,0.552285 -0.447715,1 -1,1 -0.552285,0 -1,-0.447715 -1,-1 0,-0.552285 0.447715,-1 1,-1 0.0352,0 0.05949,0.0277 0.09375,0.03125 C 75.033792,14.869148 75,14.682944 75,14.5 75,13.671573 75.671573,13 76.5,13 z M 76,20 c 0.552285,0 1,0.447715 1,1 0,0.552285 -0.447715,1 -1,1 -0.552285,0 -1,-0.447715 -1,-1 0,-0.552285 0.447715,-1 1,-1 z m 6.5,3 c 1.380712,0 2.5,1.119288 2.5,2.5 0,1.380712 -1.119288,2.5 -2.5,2.5 -1.380712,0 -2.5,-1.119288 -2.5,-2.5 0,-0.172589 0.0292,-0.337256 0.0625,-0.5 -0.02132,0.0014 -0.04084,0 -0.0625,0 -0.552285,0 -1,-0.447715 -1,-1 0,-0.552285 0.447715,-1 1,-1 0.399263,0 0.714687,0.255422 0.875,0.59375 C 81.310956,23.223578 81.883282,23 82.5,23 z m -6,0 c 0.828427,0 1.5,0.671573 1.5,1.5 0,0.828427 -0.671573,1.5 -1.5,1.5 -0.182944,0 -0.369148,-0.03379 -0.53125,-0.09375 C 75.972297,25.940507 76,25.964805 76,26 c 0,0.552285 -0.447715,1 -1,1 -0.552285,0 -1,-0.447715 -1,-1 0,-0.552285 0.447715,-1 1,-1 0.0352,0 0.05949,0.0277 0.09375,0.03125 C 75.033792,24.869148 75,24.682944 75,24.5 75,23.671573 75.671573,23 76.5,23 z m 3,4 C 80.328427,27 81,27.671573 81,28.5 81,29.328427 80.328427,30 79.5,30 78.671573,30 78,29.328427 78,28.5 78,27.671573 78.671573,27 79.5,27 z m 3.5,3 c 0.552285,0 1,0.447715 1,1 0,0.552285 -0.447715,1 -1,1 -0.552285,0 -1,-0.447715 -1,-1 0,-0.552285 0.447715,-1 1,-1 z" stroke-width="0.873" display="inline" fill="#91a977" color="#000000" fill-opacity="1" fill-rule="nonzero" stroke="none" opacity="0.5" visibility="visible" inkscape:connector-curvature="0"/>
   <path d="m 22,11 c -0.552285,0 -1,0.447715 -1,1 0,0.552285 0.447715,1 1,1 0.552285,0 1,-0.447715 1,-1 0,-0.552285 -0.447715,-1 -1,-1 z m -2.5,2 c -0.828427,0 -1.5,0.671573 -1.5,1.5 0,0.828427 0.671573,1.5 1.5,1.5 0.182944,0 0.369148,-0.03379 0.53125,-0.09375 C 20.027703,15.940507 20,15.964805 20,16 c 0,0.552285 0.447715,1 1,1 0.552285,0 1,-0.447715 1,-1 0,-0.552285 -0.447715,-1 -1,-1 -0.0352,0 -0.05949,0.0277 -0.09375,0.03125 C 20.966208,14.869148 21,14.682944 21,14.5 21,13.671573 20.328427,13 19.5,13 z m 0.5,7 c -0.552285,0 -1,0.447715 -1,1 0,0.552285 0.447715,1 1,1 0.552285,0 1,-0.447715 1,-1 0,-0.552285 -0.447715,-1 -1,-1 z m -6.5,3 c -1.380712,0 -2.5,1.119288 -2.5,2.5 0,1.380712 1.119288,2.5 2.5,2.5 1.380712,0 2.5,-1.119288 2.5,-2.5 0,-0.172589 -0.0292,-0.337256 -0.0625,-0.5 0.02132,0.0014 0.04084,0 0.0625,0 0.552285,0 1,-0.447715 1,-1 0,-0.552285 -0.447715,-1 -1,-1 -0.399263,0 -0.714687,0.255422 -0.875,0.59375 C 14.689044,23.223578 14.116718,23 13.5,23 z m 6,0 c -0.828427,0 -1.5,0.671573 -1.5,1.5 0,0.828427 0.671573,1.5 1.5,1.5 0.182944,0 0.369148,-0.03379 0.53125,-0.09375 C 20.027703,25.940507 20,25.964805 20,26 c 0,0.552285 0.447715,1 1,1 0.552285,0 1,-0.447715 1,-1 0,-0.552285 -0.447715,-1 -1,-1 -0.0352,0 -0.05949,0.0277 -0.09375,0.03125 C 20.966208,24.869148 21,24.682944 21,24.5 21,23.671573 20.328427,23 19.5,23 z m -3,4 C 15.671573,27 15,27.671573 15,28.5 15,29.328427 15.671573,30 16.5,30 17.328427,30 18,29.328427 18,28.5 18,27.671573 17.328427,27 16.5,27 z M 13,30 c -0.552285,0 -1,0.447715 -1,1 0,0.552285 0.447715,1 1,1 0.552285,0 1,-0.447715 1,-1 0,-0.552285 -0.447715,-1 -1,-1 z" stroke-width="0.873" display="inline" fill="#91a977" color="#000000" fill-opacity="1" fill-rule="nonzero" stroke="none" opacity="0.5" visibility="visible" inkscape:connector-curvature="0"/>
   <path d="M 11.90625,8 C 9.6970701,8 8,9.722569 8,11.9375 l 0,30.125 C 8,44.277431 9.6970701,46 11.90625,46 l 72.1875,0 C 86.30293,46 88,44.277431 88,42.0625 l 0,-30.125 C 88,9.722569 86.30293,8 84.09375,8 l -72.1875,0 z m 3.625,2 64.9375,0 C 82.457012,10 84,11.51822 84,13.5 l 0,27 c 0,1.98178 -1.542988,3.5 -3.53125,3.5 l -64.9375,0 C 13.542988,44 12,42.48178 12,40.5 l 0,-27 C 12,11.51822 13.542988,10 15.53125,10 z" fill="#50643d" fill-opacity="1" fill-rule="nonzero" stroke="none" inkscape:connector-curvature="0"/>
   <path d="M 14,8 C 13.399153,8 12.866615,8.2680514 12.5,8.6875 12.225039,8.3729135 11.857944,8.1575511 11.4375,8.0625 11.4277,8.06028 11.41612,8.06457 11.40625,8.0625 10.343709,8.1916123 9.4556013,8.7097561 8.84375,9.5 8.9333695,9.649872 9,9.8126805 9,10 l 1,0 c 0,-0.5522847 0.447715,-1 1,-1 0.552285,0 1,0.4477153 1,1 l 1,0 c 0,-0.5522847 0.447715,-1 1,-1 0.552285,0 1,0.4477153 1,1 L 15.53125,10 16,10 c 0,-0.5522847 0.447715,-1 1,-1 0.552285,0 1,0.4477153 1,1 l 1,0 c 0,-0.5522847 0.447715,-1 1,-1 0.552285,0 1,0.4477153 1,1 l 1,0 c 0,-0.5522847 0.447715,-1 1,-1 0.552285,0 1,0.4477153 1,1 l 1,0 c 0,-0.5522847 0.447715,-1 1,-1 0.552285,0 1,0.4477153 1,1 l 1,0 c 0,-0.5522847 0.447715,-1 1,-1 0.552285,0 1,0.4477153 1,1 l 1,0 c 0,-0.5522847 0.447715,-1 1,-1 0.552285,0 1,0.4477153 1,1 l 1,0 c 0,-0.5522847 0.447715,-1 1,-1 0.552285,0 1,0.4477153 1,1 l 1,0 c 0,-0.5522847 0.447715,-1 1,-1 0.552285,0 1,0.4477153 1,1 l 1,0 c 0,-0.5522847 0.447715,-1 1,-1 0.552285,0 1,0.4477153 1,1 l 1,0 c 0,-0.5522847 0.447715,-1 1,-1 0.552285,0 1,0.4477153 1,1 l 1,0 c 0,-0.5522847 0.447715,-1 1,-1 0.552285,0 1,0.4477153 1,1 l 1,0 c 0,-0.5522847 0.447715,-1 1,-1 0.552285,0 1,0.4477153 1,1 l 1,0 c 0,-0.5522847 0.447715,-1 1,-1 0.552285,0 1,0.4477153 1,1 l 1,0 c 0,-0.5522847 0.447715,-1 1,-1 0.552285,0 1,0.4477153 1,1 l 1,0 c 0,-0.5522847 0.447715,-1 1,-1 0.552285,0 1,0.4477153 1,1 l 1,0 c 0,-0.5522847 0.447715,-1 1,-1 0.552285,0 1,0.4477153 1,1 l 1,0 c 0,-0.5522847 0.447715,-1 1,-1 0.552285,0 1,0.4477153 1,1 l 1,0 c 0,-0.5522847 0.447715,-1 1,-1 0.552285,0 1,0.4477153 1,1 l 1,0 c 0,-0.5522847 0.447715,-1 1,-1 0.552285,0 1,0.4477153 1,1 l 1,0 c 0,-0.5522847 0.447715,-1 1,-1 0.552285,0 1,0.4477153 1,1 l 1,0 C 76,9.8619288 76.043147,9.7446383 76.09375,9.625 76.245558,9.266085 76.585786,9 77,9 c 0.552285,0 1,0.4477153 1,1 l 1,0 c 0,-0.5522847 0.447715,-1 1,-1 0.552285,0 1,0.4477153 1,1 l 1,0 c 0,-0.5522847 0.447715,-1 1,-1 0.552285,0 1,0.4477153 1,1 l 1,0 c 0,-0.5522847 0.447715,-1 1,-1 0.552285,0 1,0.4477153 1,1 l 0.5,0 C 87.011849,9.1049274 86.194722,8.4718632 85.1875,8.1875 85.1776,8.1847 85.16621,8.19023 85.15625,8.1875 84.902183,8.3069439 84.683307,8.4777757 84.5,8.6875 84.133385,8.2680514 83.600847,8 83,8 82.399153,8 81.866615,8.2680514 81.5,8.6875 81.133385,8.2680514 80.600847,8 80,8 79.399153,8 78.866615,8.2680514 78.5,8.6875 78.480246,8.664899 78.458238,8.6466867 78.4375,8.625 78.3617,8.545356 78.275093,8.4727053 78.1875,8.40625 78.16337,8.388316 78.14995,8.360605 78.125,8.34375 78.04684,8.289671 77.960612,8.261382 77.875,8.21875 77.862427,8.2125806 77.85647,8.1934115 77.84375,8.1875 77.716716,8.127778 77.577648,8.0941837 77.4375,8.0625 77.295314,8.0304256 77.151878,8 77,8 76.699234,8 76.412149,8.0685747 76.15625,8.1875 76.142799,8.1938235 76.138285,8.2121348 76.125,8.21875 75.912432,8.3230517 75.7244,8.4556913 75.5625,8.625 75.542358,8.6461643 75.519242,8.6654847 75.5,8.6875 75.133385,8.2680514 74.600847,8 74,8 73.399153,8 72.866615,8.2680514 72.5,8.6875 72.133385,8.2680514 71.600847,8 71,8 70.399153,8 69.866615,8.2680514 69.5,8.6875 69.133385,8.2680514 68.600847,8 68,8 67.399153,8 66.866615,8.2680514 66.5,8.6875 66.133385,8.2680514 65.600847,8 65,8 64.399153,8 63.866615,8.2680514 63.5,8.6875 63.133385,8.2680514 62.600847,8 62,8 61.399153,8 60.866615,8.2680514 60.5,8.6875 60.133385,8.2680514 59.600847,8 59,8 58.399153,8 57.866615,8.2680514 57.5,8.6875 57.133385,8.2680514 56.600847,8 56,8 55.399153,8 54.866615,8.2680514 54.5,8.6875 54.133385,8.2680514 53.600847,8 53,8 52.399153,8 51.866615,8.2680514 51.5,8.6875 51.133385,8.2680514 50.600847,8 50,8 49.399153,8 48.866615,8.2680514 48.5,8.6875 48.133385,8.2680514 47.600847,8 47,8 46.399153,8 45.866615,8.2680514 45.5,8.6875 45.133385,8.2680514 44.600847,8 44,8 43.399153,8 42.866615,8.2680514 42.5,8.6875 42.133385,8.2680514 41.600847,8 41,8 40.399153,8 39.866615,8.2680514 39.5,8.6875 39.133385,8.2680514 38.600847,8 38,8 37.399153,8 36.866615,8.2680514 36.5,8.6875 36.133385,8.2680514 35.600847,8 35,8 34.399153,8 33.866615,8.2680514 33.5,8.6875 33.133385,8.2680514 32.600847,8 32,8 31.399153,8 30.866615,8.2680514 30.5,8.6875 30.133385,8.2680514 29.600847,8 29,8 28.399153,8 27.866615,8.2680514 27.5,8.6875 27.133385,8.2680514 26.600847,8 26,8 25.399153,8 24.866615,8.2680514 24.5,8.6875 24.133385,8.2680514 23.600847,8 23,8 22.399153,8 21.866615,8.2680514 21.5,8.6875 21.133385,8.2680514 20.600847,8 20,8 19.399153,8 18.866615,8.2680514 18.5,8.6875 18.133385,8.2680514 17.600847,8 17,8 16.399153,8 15.866615,8.2680514 15.5,8.6875 15.133385,8.2680514 14.600847,8 14,8 z" stroke-width="1" display="inline" fill="#78955e" color="#000000" fill-opacity="1" fill-rule="nonzero" stroke="none" visibility="visible" inkscape:connector-curvature="0"/>
   <path d="m 14,46 c -0.600847,0 -1.133385,-0.268051 -1.5,-0.6875 -0.274961,0.314586 -0.642056,0.529949 -1.0625,0.625 -0.0098,0.0022 -0.02138,-0.0021 -0.03125,0 C 10.343709,45.808388 9.4556013,45.290244 8.84375,44.5 8.9333695,44.350128 9,44.187319 9,44 l 1,0 c 0,0.552285 0.447715,1 1,1 0.552285,0 1,-0.447715 1,-1 l 1,0 c 0,0.552285 0.447715,1 1,1 0.552285,0 1,-0.447715 1,-1 L 15.53125,44 16,44 c 0,0.552285 0.447715,1 1,1 0.552285,0 1,-0.447715 1,-1 l 1,0 c 0,0.552285 0.447715,1 1,1 0.552285,0 1,-0.447715 1,-1 l 1,0 c 0,0.552285 0.447715,1 1,1 0.552285,0 1,-0.447715 1,-1 l 1,0 c 0,0.552285 0.447715,1 1,1 0.552285,0 1,-0.447715 1,-1 l 1,0 c 0,0.552285 0.447715,1 1,1 0.552285,0 1,-0.447715 1,-1 l 1,0 c 0,0.552285 0.447715,1 1,1 0.552285,0 1,-0.447715 1,-1 l 1,0 c 0,0.552285 0.447715,1 1,1 0.552285,0 1,-0.447715 1,-1 l 1,0 c 0,0.552285 0.447715,1 1,1 0.552285,0 1,-0.447715 1,-1 l 1,0 c 0,0.552285 0.447715,1 1,1 0.552285,0 1,-0.447715 1,-1 l 1,0 c 0,0.552285 0.447715,1 1,1 0.552285,0 1,-0.447715 1,-1 l 1,0 c 0,0.552285 0.447715,1 1,1 0.552285,0 1,-0.447715 1,-1 l 1,0 c 0,0.552285 0.447715,1 1,1 0.552285,0 1,-0.447715 1,-1 l 1,0 c 0,0.552285 0.447715,1 1,1 0.552285,0 1,-0.447715 1,-1 l 1,0 c 0,0.552285 0.447715,1 1,1 0.552285,0 1,-0.447715 1,-1 l 1,0 c 0,0.552285 0.447715,1 1,1 0.552285,0 1,-0.447715 1,-1 l 1,0 c 0,0.552285 0.447715,1 1,1 0.552285,0 1,-0.447715 1,-1 l 1,0 c 0,0.552285 0.447715,1 1,1 0.552285,0 1,-0.447715 1,-1 l 1,0 c 0,0.552285 0.447715,1 1,1 0.552285,0 1,-0.447715 1,-1 l 1,0 c 0,0.552285 0.447715,1 1,1 0.552285,0 1,-0.447715 1,-1 l 1,0 c 0,0.552285 0.447715,1 1,1 0.552285,0 1,-0.447715 1,-1 l 1,0 c 0,0.138071 0.04315,0.255362 0.09375,0.375 C 76.245558,44.733915 76.585786,45 77,45 c 0.552285,0 1,-0.447715 1,-1 l 1,0 c 0,0.552285 0.447715,1 1,1 0.552285,0 1,-0.447715 1,-1 l 1,0 c 0,0.552285 0.447715,1 1,1 0.552285,0 1,-0.447715 1,-1 l 1,0 c 0,0.552285 0.447715,1 1,1 0.552285,0 1,-0.447715 1,-1 l 0.5,0 c -0.488151,0.895073 -1.305278,1.528137 -2.3125,1.8125 -0.0099,0.0028 -0.02129,-0.0027 -0.03125,0 C 84.902183,45.693056 84.683307,45.522224 84.5,45.3125 84.133385,45.731949 83.600847,46 83,46 82.399153,46 81.866615,45.731949 81.5,45.3125 81.133385,45.731949 80.600847,46 80,46 c -0.600847,0 -1.133385,-0.268051 -1.5,-0.6875 -0.01975,0.0226 -0.04176,0.04081 -0.0625,0.0625 -0.0758,0.07964 -0.162407,0.152295 -0.25,0.21875 -0.02413,0.01793 -0.03755,0.04565 -0.0625,0.0625 -0.07816,0.05408 -0.164388,0.08237 -0.25,0.125 -0.01257,0.0062 -0.01853,0.02534 -0.03125,0.03125 -0.127034,0.05972 -0.266102,0.09332 -0.40625,0.125 C 77.295314,45.969574 77.151878,46 77,46 76.699234,46 76.412149,45.93143 76.15625,45.8125 76.1428,45.8062 76.13828,45.78787 76.125,45.78125 75.912432,45.676948 75.7244,45.544309 75.5625,45.375 75.542358,45.353836 75.519242,45.334515 75.5,45.3125 75.133385,45.731949 74.600847,46 74,46 73.399153,46 72.866615,45.731949 72.5,45.3125 72.133385,45.731949 71.600847,46 71,46 70.399153,46 69.866615,45.731949 69.5,45.3125 69.133385,45.731949 68.600847,46 68,46 67.399153,46 66.866615,45.731949 66.5,45.3125 66.133385,45.731949 65.600847,46 65,46 64.399153,46 63.866615,45.731949 63.5,45.3125 63.133385,45.731949 62.600847,46 62,46 61.399153,46 60.866615,45.731949 60.5,45.3125 60.133385,45.731949 59.600847,46 59,46 58.399153,46 57.866615,45.731949 57.5,45.3125 57.133385,45.731949 56.600847,46 56,46 55.399153,46 54.866615,45.731949 54.5,45.3125 54.133385,45.731949 53.600847,46 53,46 52.399153,46 51.866615,45.731949 51.5,45.3125 51.133385,45.731949 50.600847,46 50,46 49.399153,46 48.866615,45.731949 48.5,45.3125 48.133385,45.731949 47.600847,46 47,46 46.399153,46 45.866615,45.731949 45.5,45.3125 45.133385,45.731949 44.600847,46 44,46 43.399153,46 42.866615,45.731949 42.5,45.3125 42.133385,45.731949 41.600847,46 41,46 40.399153,46 39.866615,45.731949 39.5,45.3125 39.133385,45.731949 38.600847,46 38,46 37.399153,46 36.866615,45.731949 36.5,45.3125 36.133385,45.731949 35.600847,46 35,46 34.399153,46 33.866615,45.731949 33.5,45.3125 33.133385,45.731949 32.600847,46 32,46 31.399153,46 30.866615,45.731949 30.5,45.3125 30.133385,45.731949 29.600847,46 29,46 28.399153,46 27.866615,45.731949 27.5,45.3125 27.133385,45.731949 26.600847,46 26,46 25.399153,46 24.866615,45.731949 24.5,45.3125 24.133385,45.731949 23.600847,46 23,46 22.399153,46 21.866615,45.731949 21.5,45.3125 21.133385,45.731949 20.600847,46 20,46 19.399153,46 18.866615,45.731949 18.5,45.3125 18.133385,45.731949 17.600847,46 17,46 16.399153,46 15.866615,45.731949 15.5,45.3125 15.133385,45.731949 14.600847,46 14,46 z" stroke-width="1" display="inline" fill="#78955e" color="#000000" fill-opacity="1" fill-rule="nonzero" stroke="none" visibility="visible" inkscape:connector-curvature="0"/>
   <path d="m 86,8.5 0,0.6875 c 0.552285,0 1,0.447715 1,1 0,0.552285 -0.447715,1 -1,1 l 0,1 c 0.552285,0 1,0.447715 1,1 0,0.552285 -0.447715,1 -1,1 l 0,1 c 0.552285,0 1,0.447715 1,1 0,0.552285 -0.447715,1 -1,1 l 0,1 c 0.552285,0 1,0.447715 1,1 0,0.552285 -0.447715,1 -1,1 l 0,1 c 0.552285,0 1,0.447715 1,1 0,0.552285 -0.447715,1 -1,1 l 0,1 c 0.552285,0 1,0.447715 1,1 0,0.552285 -0.447715,1 -1,1 l 0,1 c 0.552285,0 1,0.447715 1,1 0,0.552285 -0.447715,1 -1,1 l 0,1 c 0.552285,0 1,0.447715 1,1 0,0.552285 -0.447715,1 -1,1 l 0,1 c 0.552285,0 1,0.447715 1,1 0,0.552285 -0.447715,1 -1,1 l 0,1 c 0.552285,0 1,0.447715 1,1 0,0.552285 -0.447715,1 -1,1 l 0,1 c 0.552285,0 1,0.447715 1,1 0,0.552285 -0.447715,1 -1,1 l 0,1 c 0.552285,0 1,0.447715 1,1 0,0.552285 -0.447715,1 -1,1 l 0,1 c 0.152691,0 0.276797,0.03256 0.40625,0.09375 0.77971,-0.561047 1.336134,-1.409581 1.53125,-2.40625 0.0058,-0.02972 -0.0052,-0.06377 0,-0.09375 -0.0021,-0.0099 0.0022,-0.02144 0,-0.03125 -0.09505,-0.420444 -0.310413,-0.787539 -0.625,-1.0625 0.419449,-0.366615 0.6875,-0.899153 0.6875,-1.5 0,-0.600847 -0.268051,-1.133385 -0.6875,-1.5 0.419449,-0.366615 0.6875,-0.899153 0.6875,-1.5 0,-0.600847 -0.268051,-1.133385 -0.6875,-1.5 0.419449,-0.366615 0.6875,-0.899153 0.6875,-1.5 0,-0.600847 -0.268051,-1.133385 -0.6875,-1.5 0.419449,-0.366615 0.6875,-0.899153 0.6875,-1.5 0,-0.600847 -0.268051,-1.133385 -0.6875,-1.5 0.419449,-0.366615 0.6875,-0.899153 0.6875,-1.5 0,-0.600847 -0.268051,-1.133385 -0.6875,-1.5 0.419449,-0.366615 0.6875,-0.899153 0.6875,-1.5 0,-0.600847 -0.268051,-1.133385 -0.6875,-1.5 0.419449,-0.366615 0.6875,-0.899153 0.6875,-1.5 0,-0.600847 -0.268051,-1.133385 -0.6875,-1.5 0.419449,-0.366615 0.6875,-0.899153 0.6875,-1.5 0,-0.600847 -0.268051,-1.133385 -0.6875,-1.5 0.419449,-0.366615 0.6875,-0.899153 0.6875,-1.5 0,-0.600847 -0.268051,-1.133385 -0.6875,-1.5 0.419449,-0.366615 0.6875,-0.899153 0.6875,-1.5 0,-0.600847 -0.268051,-1.133385 -0.6875,-1.5 0.241467,-0.211051 0.412386,-0.510097 0.53125,-0.8125 C 87.568764,9.8375503 86.907462,9.0000329 86,8.5 z" stroke-width="1" display="inline" fill="#78955e" color="#000000" fill-opacity="1" fill-rule="nonzero" stroke="none" visibility="visible" inkscape:connector-curvature="0"/>
   <path d="m 10,8.5 0,0.6875 c -0.552285,0 -1,0.447715 -1,1 0,0.552285 0.447715,1 1,1 l 0,1 c -0.552285,0 -1,0.447715 -1,1 0,0.552285 0.447715,1 1,1 l 0,1 c -0.552285,0 -1,0.447715 -1,1 0,0.552285 0.447715,1 1,1 l 0,1 c -0.552285,0 -1,0.447715 -1,1 0,0.552285 0.447715,1 1,1 l 0,1 c -0.552285,0 -1,0.447715 -1,1 0,0.552285 0.447715,1 1,1 l 0,1 c -0.552285,0 -1,0.447715 -1,1 0,0.552285 0.447715,1 1,1 l 0,1 c -0.552285,0 -1,0.447715 -1,1 0,0.552285 0.447715,1 1,1 l 0,1 c -0.552285,0 -1,0.447715 -1,1 0,0.552285 0.447715,1 1,1 l 0,1 c -0.552285,0 -1,0.447715 -1,1 0,0.552285 0.447715,1 1,1 l 0,1 c -0.552285,0 -1,0.447715 -1,1 0,0.552285 0.447715,1 1,1 l 0,1 c -0.552285,0 -1,0.447715 -1,1 0,0.552285 0.447715,1 1,1 l 0,1 c -0.552285,0 -1,0.447715 -1,1 0,0.552285 0.447715,1 1,1 l 0,1 c -0.152691,0 -0.276797,0.03256 -0.40625,0.09375 C 8.81404,44.720203 8.257616,43.871669 8.0625,42.875 c -0.0058,-0.02972 0.0052,-0.06377 0,-0.09375 0.0021,-0.0099 -0.0022,-0.02144 0,-0.03125 0.09505,-0.420444 0.310413,-0.787539 0.625,-1.0625 C 8.268051,41.320885 8,40.788347 8,40.1875 8,39.586653 8.268051,39.054115 8.6875,38.6875 8.268051,38.320885 8,37.788347 8,37.1875 8,36.586653 8.268051,36.054115 8.6875,35.6875 8.268051,35.320885 8,34.788347 8,34.1875 8,33.586653 8.268051,33.054115 8.6875,32.6875 8.268051,32.320885 8,31.788347 8,31.1875 8,30.586653 8.268051,30.054115 8.6875,29.6875 8.268051,29.320885 8,28.788347 8,28.1875 8,27.586653 8.268051,27.054115 8.6875,26.6875 8.268051,26.320885 8,25.788347 8,25.1875 8,24.586653 8.268051,24.054115 8.6875,23.6875 8.268051,23.320885 8,22.788347 8,22.1875 8,21.586653 8.268051,21.054115 8.6875,20.6875 8.268051,20.320885 8,19.788347 8,19.1875 8,18.586653 8.268051,18.054115 8.6875,17.6875 8.268051,17.320885 8,16.788347 8,16.1875 8,15.586653 8.268051,15.054115 8.6875,14.6875 8.268051,14.320885 8,13.788347 8,13.1875 8,12.586653 8.268051,12.054115 8.6875,11.6875 8.446033,11.476449 8.275114,11.177403 8.15625,10.875 8.431236,9.8375503 9.092538,9.0000329 10,8.5 z" stroke-width="1" display="inline" fill="#78955e" color="#000000" fill-opacity="1" fill-rule="nonzero" stroke="none" visibility="visible" inkscape:connector-curvature="0"/>
   <use xlink:href="#SVGCleanerId_0" inkscape:connector-curvature="0" transform="matrix(1.42857 0 0 1.16667 -4.286 -1.667)"/>
   <use xlink:href="#SVGCleanerId_1" inkscape:connector-curvature="0" transform="matrix(1.1767 0 0 1.68935 -2.65 -11.719)"/>
   <use xlink:href="#SVGCleanerId_2" inkscape:connector-curvature="0"/>
   <use xlink:href="#SVGCleanerId_3" inkscape:connector-curvature="0"/>
   <use xlink:href="#SVGCleanerId_4" inkscape:connector-curvature="0"/>
   <use xlink:href="#SVGCleanerId_5" inkscape:connector-curvature="0" transform="matrix(1 0 0 1 0 1)"/>
   <use xlink:href="#SVGCleanerId_2" inkscape:connector-curvature="0" transform="matrix(0.60347 0 0 0.60347 4.456 28.434)"/>
   <use xlink:href="#SVGCleanerId_6" inkscape:connector-curvature="0"/>
   <use xlink:href="#SVGCleanerId_7" inkscape:connector-curvature="0"/>
   <g transform="matrix(1 0 0 1 66 0)">
    <use xlink:href="#SVGCleanerId_0" inkscape:connector-curvature="0" transform="matrix(1.42857 0 0 1.16667 -4.286 -1.667)"/>
    <use xlink:href="#SVGCleanerId_1" inkscape:connector-curvature="0" transform="matrix(1.1767 0 0 1.68935 -2.65 -11.719)"/>
    <use xlink:href="#SVGCleanerId_2" inkscape:connector-curvature="0"/>
    <use xlink:href="#SVGCleanerId_3" inkscape:connector-curvature="0"/>
    <use xlink:href="#SVGCleanerId_4" inkscape:connector-curvature="0"/>
   </g>
   <g transform="matrix(1 0 0 1 69 0)">
    <use xlink:href="#SVGCleanerId_5" inkscape:connector-curvature="0" transform="matrix(1 0 0 1 0 1)"/>
    <use xlink:href="#SVGCleanerId_2" inkscape:connector-curvature="0" transform="matrix(0.60347 0 0 0.60347 4.456 28.434)"/>
    <use xlink:href="#SVGCleanerId_6" inkscape:connector-curvature="0"/>
    <use xlink:href="#SVGCleanerId_7" inkscape:connector-curvature="0"/>
   </g>
   <path d="m 35,33 c -0.552285,0 -1,0.447715 -1,1 0,0.552285 0.447715,1 1,1 0.552285,0 1,-0.447715 1,-1 0,-0.552285 -0.447715,-1 -1,-1 z m 1.5,2 C 35.671573,35 35,35.671573 35,36.5 35,37.328427 35.671573,38 36.5,38 37.328427,38 38,37.328427 38,36.5 38,35.671573 37.328427,35 36.5,35 z M 33,36 c -0.552285,0 -1,0.447715 -1,1 0,0.552285 0.447715,1 1,1 0.552285,0 1,-0.447715 1,-1 0,-0.552285 -0.447715,-1 -1,-1 z m 7,1 c -1.509109,0 -2.818827,0.828628 -3.5,2.0625 C 36.340241,39.021396 36.172589,39 36,39 c -1.104569,0 -2,0.895431 -2,2 0,1.104569 0.895431,2 2,2 0.172589,0 0.340241,-0.0214 0.5,-0.0625 C 37.181173,44.171372 38.490891,45 40,45 c 2.209139,0 4,-1.790861 4,-4 0,-2.209139 -1.790861,-4 -4,-4 z" stroke-width="0.873" display="inline" fill="#91a977" color="#000000" fill-opacity="1" fill-rule="nonzero" stroke="none" opacity="0.5" visibility="visible" inkscape:connector-curvature="0"/>
   <path d="m 40,16 0,2 c 1.108,0 2,0.892 2,2 l 0,18 c 0,1.108 -0.892,2 -2,2 l 16,0 c -1.108,0 -2,-0.892 -2,-2 l 0,-18 c 0,-1.108 0.892,-2 2,-2 l 0,-2 -16,0 z" stroke-width="0.75" display="inline" fill="#87a26b" color="#000000" fill-opacity="1" fill-rule="nonzero" stroke="none" opacity="0.4" visibility="visible" inkscape:connector-curvature="0"/>
   <path d="m 61,33 c 0.552285,0 1,0.447715 1,1 0,0.552285 -0.447715,1 -1,1 -0.552285,0 -1,-0.447715 -1,-1 0,-0.552285 0.447715,-1 1,-1 z m -1.5,2 C 60.328427,35 61,35.671573 61,36.5 61,37.328427 60.328427,38 59.5,38 58.671573,38 58,37.328427 58,36.5 58,35.671573 58.671573,35 59.5,35 z m 3.5,1 c 0.552285,0 1,0.447715 1,1 0,0.552285 -0.447715,1 -1,1 -0.552285,0 -1,-0.447715 -1,-1 0,-0.552285 0.447715,-1 1,-1 z m -7,1 c 1.509109,0 2.818827,0.828628 3.5,2.0625 C 59.659759,39.021396 59.827411,39 60,39 c 1.104569,0 2,0.895431 2,2 0,1.104569 -0.895431,2 -2,2 -0.172589,0 -0.340241,-0.0214 -0.5,-0.0625 C 58.818827,44.171372 57.509109,45 56,45 c -2.209139,0 -4,-1.790861 -4,-4 0,-2.209139 1.790861,-4 4,-4 z" stroke-width="0.873" display="inline" fill="#91a977" color="#000000" fill-opacity="1" fill-rule="nonzero" stroke="none" opacity="0.5" visibility="visible" inkscape:connector-curvature="0"/>
   <path stroke-opacity="1" d="m 56,28 a 8,12 0 1 1 -16,0 8,12 0 1 1 16,0 z" stroke-width="0.75" display="inline" fill="url(#radialGradient4403)" color="#000000" fill-opacity="1" fill-rule="nonzero" stroke="#f0eec9" stroke-dasharray="none" visibility="visible" stroke-miterlimit="4" inkscape:connector-curvature="0" transform="matrix(1.25 0 0 1.08333 -12 -0.333)"/>
   <path d="m 46,20 0,3.46875 c -2.158577,0.514601 -3.625,2.073648 -3.625,4.125 0,1.016042 0.403076,1.961064 1.125,2.65625 0.656652,0.634764 1.336448,0.995261 2.5,1.3125 l 0,3.125 c -0.954224,-0.586685 -1.792549,-1.569239 -2.53125,-3.03125 l -1.1875,0 0.125,4.625 1.125,0 1.03125,-0.5 C 44.97471,36.026347 45.477542,36.221195 46,36.375 l 0,3.625 1,0 0,-3.40625 c 0.442271,0.07114 0.887288,0.125 1.34375,0.125 0.224095,0 0.442057,-0.044 0.65625,-0.0625 L 49,40 l 1,0 0,-3.5 c 2.250066,-0.536038 3.71875,-2.135258 3.71875,-4.3125 0,-1.122993 -0.407588,-2.081552 -1.15625,-2.75 C 51.956302,28.901249 51.395674,28.655992 50,28.28125 L 50,25.5 c 0.64444,0.502322 1.228361,1.251414 1.84375,2.28125 l 1.25,0 -0.09375,-4.25 -1.15625,0 L 50.875,24.125 C 50.590767,23.960444 50.290087,23.834258 50,23.71875 L 50,20 l -1,0 0,3.40625 c -0.451956,-0.09226 -0.94619,-0.125 -1.46875,-0.125 -0.187166,0 -0.350886,0.01732 -0.53125,0.03125 L 47,20 46,20 z m 1.5625,4.65625 c 0.512107,0 0.993193,0.108384 1.4375,0.28125 l 0,3.09375 -2,-0.5 0,-2.8125 c 0.180333,-0.0285 0.362781,-0.0625 0.5625,-0.0625 z M 46,25.0625 l 0,2.125 c -0.484526,-0.232825 -0.6875,-0.507954 -0.6875,-0.96875 0,-0.467914 0.26822,-0.881048 0.6875,-1.15625 z m 1,6.75 1.78125,0.40625 c 0.0864,0.01901 0.138977,0.0421 0.21875,0.0625 l 0,3 c -0.204867,0.03293 -0.420065,0.0625 -0.65625,0.0625 -0.478808,0 -0.919088,-0.0601 -1.34375,-0.1875 l 0,-3.34375 z m 3,0.84375 c 0.45345,0.272574 0.65625,0.60706 0.65625,1.09375 0,0.494311 -0.237939,0.912732 -0.65625,1.1875 l 0,-2.28125 z" fill="url(#linearGradient4437)" fill-opacity="1" stroke="none" inkscape:connector-curvature="0"/>
   <g fill="#536741" fill-opacity="1" stroke="none">
    <path d="m 28.480926,12.059841 0,0.215425 0.05984,0 c 0.207447,0 0.291224,0.01596 0.327128,0.05585 0.02793,0.0359 0.02793,0.04787 0.02793,0.303192 l 0,1.731383 c 0,0.251329 0,0.267287 -0.02793,0.299202 -0.0359,0.04388 -0.119681,0.05984 -0.327128,0.05984 l -0.05984,0 0,0.215426 1.615692,0 c 0.414893,0 0.62633,-0.03191 0.829787,-0.119681 0.255319,-0.115691 0.422872,-0.367022 0.422872,-0.634309 0,-0.279255 -0.159575,-0.506649 -0.454787,-0.638297 -0.135638,-0.06383 -0.255319,-0.09574 -0.462766,-0.123671 0.195479,-0.03191 0.307181,-0.05984 0.418883,-0.111702 0.239361,-0.115691 0.367021,-0.307181 0.367021,-0.546542 0,-0.227394 -0.119681,-0.43883 -0.315159,-0.546543 C 30.683054,12.091755 30.495553,12.05984 30.02082,12.05984 l -1.539894,0 m 1.132979,1.292553 0,-0.845745 c 0,-0.115691 0.008,-0.147606 0.04787,-0.179521 0.03989,-0.0359 0.09973,-0.05186 0.175532,-0.05186 l 0.119681,0 c 0.351063,0 0.538564,0.175532 0.538564,0.506649 0,0.195479 -0.06782,0.351064 -0.195479,0.450798 -0.107713,0.08777 -0.243351,0.119681 -0.490691,0.119681 l -0.195479,0 m 0,0.219415 0.275266,0 c 0.251329,0 0.367021,0.02394 0.478723,0.09574 0.135638,0.09176 0.219415,0.267288 0.219415,0.474734 0,0.19149 -0.07181,0.367022 -0.1875,0.462766 -0.09973,0.08378 -0.231383,0.119681 -0.422872,0.119681 l -0.119681,0 c -0.139628,0 -0.207447,-0.02394 -0.231383,-0.07979 -0.01197,-0.03191 -0.01197,-0.04388 -0.01197,-0.175532 l 0,-0.897606" inkscape:connector-curvature="0"/>
    <path d="m 32.914478,12 -0.905585,2.114362 c -0.18351,0.430851 -0.331117,0.586436 -0.566489,0.610372 l 0,0.215426 1.152925,0 0,-0.215426 c -0.287233,-0.01596 -0.398936,-0.09175 -0.398936,-0.275266 0,-0.06782 0.01197,-0.111702 0.06383,-0.227393 l 0.06383,-0.151596 0.993351,0 0.151596,0.390957 c 0.03191,0.07181 0.04787,0.131649 0.04787,0.163564 0,0.07181 -0.05186,0.09575 -0.231383,0.09575 l -0.06782,0.004 0,0.215426 1.400266,0 0,-0.215426 c -0.227394,-0.008 -0.291224,-0.04787 -0.375,-0.25133 L 33.21767,12 32.914478,12 m -0.08378,0.849734 0.386968,0.953458 -0.789894,0 0.402926,-0.953458" inkscape:connector-curvature="0"/>
    <path d="m 35.62232,12.059841 -1.005319,0 0,0.219415 c 0.179521,0.004 0.323138,0.07979 0.422872,0.223404 l 0,1.571808 c 0,0.351064 -0.01995,0.450798 -0.103723,0.538564 -0.06383,0.06782 -0.155586,0.09973 -0.327128,0.107713 l 0,0.215425 1.136968,0 0,-0.215425 c -0.171542,-0.008 -0.271277,-0.03989 -0.335106,-0.107713 -0.08378,-0.08777 -0.103724,-0.1875 -0.103724,-0.538564 l 0,-1.3125 1.855054,2.206117 0.267287,0 0,-2.042553 c 0,-0.355053 0.01995,-0.454787 0.103723,-0.542553 0.06383,-0.06782 0.175532,-0.103724 0.335107,-0.107713 l 0,-0.215425 -1.136969,0 0,0.215425 c 0.155585,0.004 0.263298,0.03989 0.327128,0.107713 0.08378,0.08777 0.103724,0.19149 0.103724,0.542553 l 0,0.9375 -1.539894,-1.803191" inkscape:connector-curvature="0"/>
    <path d="m 39.400183,13.591756 0.55851,0.913563 c 0.03192,0.05585 0.04787,0.09176 0.04787,0.12766 0,0.06383 -0.08777,0.09175 -0.271277,0.09175 l -0.05186,0 0,0.215426 1.452128,0 0,-0.215426 c -0.219415,-0.01197 -0.235372,-0.01995 -0.418883,-0.307181 l -0.829787,-1.324468 0.331117,-0.347074 c 0.347074,-0.339096 0.546543,-0.454787 0.80984,-0.470745 l 0,-0.215425 -1.344415,0 0,0.215425 0.09575,0 c 0.195479,0 0.299202,0.04787 0.299202,0.139628 0,0.04388 -0.05984,0.139628 -0.131649,0.219415 l -0.881649,0.93351 0,-0.93351 c 0,-0.25133 0,-0.267288 0.02793,-0.299202 0.0359,-0.04388 0.12367,-0.05984 0.331117,-0.05984 l 0.05984,0 0,-0.215425 -1.551861,0 0,0.215425 0.05984,0 c 0.207447,0 0.291224,0.01596 0.327128,0.05984 0.02793,0.03191 0.02793,0.04787 0.02793,0.299202 l 0,1.731383 c 0,0.251329 0,0.267287 -0.02793,0.299202 -0.0359,0.04388 -0.119681,0.05984 -0.327128,0.05984 l -0.05984,0 0,0.215426 1.551861,0 0,-0.215426 -0.05984,0 c -0.207447,0 -0.295213,-0.01596 -0.331117,-0.05984 -0.02793,-0.03191 -0.02793,-0.04787 -0.02793,-0.299202 l 0,-0.422873 0.335107,-0.351063" inkscape:connector-curvature="0"/>
    <path d="m 43.930352,12 c -0.386967,0 -0.714096,0.111703 -0.973404,0.339096 -0.335106,0.287234 -0.534574,0.738032 -0.534574,1.204787 0,0.845744 0.622341,1.456117 1.488032,1.456117 0.406914,0 0.722074,-0.09973 0.989361,-0.31117 0.343085,-0.275266 0.534575,-0.682181 0.534575,-1.148936 0,-0.462766 -0.203458,-0.917554 -0.534575,-1.200798 C 44.63248,12.107713 44.321309,12 43.930352,12 m 0.004,0.207447 c 0.215425,0 0.382979,0.103724 0.49867,0.307181 0.131649,0.239361 0.203457,0.598405 0.203457,1.029255 0,0.80984 -0.247341,1.24867 -0.702127,1.24867 -0.231383,0 -0.398937,-0.09973 -0.510639,-0.30718 -0.131648,-0.247341 -0.203457,-0.598405 -0.203457,-1.017288 0,-0.43085 0.06782,-0.75 0.203457,-0.977393 0.115692,-0.195479 0.275267,-0.283245 0.510639,-0.283245" inkscape:connector-curvature="0"/>
    <path d="m 48.322578,12.059841 -2.640957,0 0,0.215425 0.05984,0 c 0.207447,0 0.291224,0.01596 0.327128,0.05984 0.02792,0.03191 0.02792,0.04787 0.02792,0.299202 l 0,1.731383 c 0,0.251329 0,0.267287 -0.02792,0.299202 -0.0359,0.04388 -0.119681,0.05984 -0.327128,0.05984 l -0.05984,0 0,0.215426 1.595745,0 0,-0.215426 -0.103724,0 c -0.211436,0 -0.295213,-0.01596 -0.331117,-0.05984 -0.02793,-0.03191 -0.02793,-0.04787 -0.02793,-0.299202 l 0,-0.805851 0.06782,0 c 0.315159,0 0.506649,0.199468 0.550532,0.566489 l 0.215425,0 0,-1.352394 -0.215425,0 c -0.04388,0.371011 -0.235373,0.56649 -0.550532,0.56649 l -0.06782,0 0,-0.722075 c 0,-0.163563 0.008,-0.207447 0.03989,-0.255319 0.04388,-0.05984 0.139628,-0.08777 0.303192,-0.08777 l 0.0758,0 c 0.295212,0 0.538564,0.107713 0.674202,0.295213 0.08378,0.115691 0.171542,0.31516 0.231383,0.526596 l 0.207447,0 -0.02394,-1.037234" inkscape:connector-curvature="0"/>
    <path d="m 52.350899,12.059841 -2.640958,0 0,0.215425 0.05984,0 c 0.207446,0 0.291223,0.01596 0.327127,0.05984 0.02793,0.03191 0.02793,0.04787 0.02793,0.299202 l 0,1.731383 c 0,0.251329 0,0.267287 -0.02793,0.299202 -0.0359,0.04388 -0.119681,0.05984 -0.327127,0.05984 l -0.05984,0 0,0.215426 1.595745,0 0,-0.215426 -0.103724,0 c -0.211435,0 -0.295212,-0.01596 -0.331117,-0.05984 -0.02793,-0.03191 -0.02793,-0.04787 -0.02793,-0.299202 l 0,-0.805851 0.06782,0 c 0.315159,0 0.506649,0.199468 0.550532,0.566489 l 0.215426,0 0,-1.352394 -0.215426,0 c -0.04388,0.371011 -0.235373,0.56649 -0.550532,0.56649 l -0.06782,0 0,-0.722075 c 0,-0.163563 0.008,-0.207447 0.03989,-0.255319 0.04388,-0.05984 0.139627,-0.08777 0.303191,-0.08777 l 0.0758,0 c 0.295212,0 0.538564,0.107713 0.674202,0.295213 0.08378,0.115691 0.171543,0.31516 0.231383,0.526596 l 0.207447,0 -0.02394,-1.037234" inkscape:connector-curvature="0"/>
    <path d="m 53.905378,12 -0.905585,2.114362 c -0.183511,0.430851 -0.331118,0.586436 -0.56649,0.610372 l 0,0.215426 1.152926,0 0,-0.215426 c -0.287234,-0.01596 -0.398936,-0.09175 -0.398936,-0.275266 0,-0.06782 0.01197,-0.111702 0.06383,-0.227393 l 0.06383,-0.151596 0.993351,0 0.151596,0.390957 c 0.03191,0.07181 0.04787,0.131649 0.04787,0.163564 0,0.07181 -0.05186,0.09575 -0.231383,0.09575 l -0.06782,0.004 0,0.215426 1.400266,0 0,-0.215426 c -0.227393,-0.008 -0.291223,-0.04787 -0.375,-0.25133 L 54.208569,12 53.905378,12 m -0.08378,0.849734 0.386968,0.953458 -0.789893,0 0.402925,-0.953458" inkscape:connector-curvature="0"/>
    <path d="m 58.276784,12.059841 -2.676861,0 0,0.215425 0.05984,0 c 0.207447,0 0.291223,0.01596 0.327128,0.05984 0.02793,0.03191 0.02793,0.04787 0.02793,0.299202 l 0,1.731383 c 0,0.251329 0,0.267287 -0.02793,0.299202 -0.0359,0.04388 -0.119681,0.05984 -0.327128,0.05984 l -0.05984,0 0,0.215426 2.708776,0 0.04787,-1.073139 -0.211437,0 c -0.167553,0.598404 -0.450798,0.857713 -0.93351,0.857713 l -0.119681,0 c -0.195479,0 -0.247341,-0.008 -0.295213,-0.05585 -0.05186,-0.04787 -0.06383,-0.09175 -0.06383,-0.223404 l 0,-0.885638 0.06782,0 c 0.31117,0 0.506649,0.199468 0.550532,0.566489 l 0.215426,0 0,-1.352394 -0.215426,0 c -0.04388,0.367021 -0.239362,0.56649 -0.550532,0.56649 l -0.06782,0 0,-0.722075 c 0,-0.163563 0.008,-0.207447 0.03989,-0.255319 0.04388,-0.05984 0.139628,-0.08777 0.303191,-0.08777 l 0.111703,0 c 0.295212,0 0.538564,0.107713 0.674202,0.295213 0.08378,0.119681 0.171542,0.319149 0.231383,0.526596 l 0.207446,0 -0.02394,-1.037234" inkscape:connector-curvature="0"/>
    <path d="m 59.6442,12.059841 -1.00532,0 0,0.219415 c 0.179522,0.004 0.323139,0.07979 0.422873,0.223404 l 0,1.571808 c 0,0.351064 -0.01995,0.450798 -0.103724,0.538564 -0.06383,0.06782 -0.155585,0.09973 -0.327127,0.107713 l 0,0.215425 1.136968,0 0,-0.215425 c -0.171543,-0.008 -0.271277,-0.03989 -0.335107,-0.107713 -0.08378,-0.08777 -0.103723,-0.1875 -0.103723,-0.538564 l 0,-1.3125 1.855053,2.206117 0.267287,0 0,-2.042553 c 0,-0.355053 0.01995,-0.454787 0.103724,-0.542553 0.06383,-0.06782 0.175532,-0.103724 0.335106,-0.107713 l 0,-0.215425 -1.136968,0 0,0.215425 c 0.155585,0.004 0.263298,0.03989 0.327128,0.107713 0.08378,0.08777 0.103723,0.19149 0.103723,0.542553 l 0,0.9375 -1.539893,-1.803191" inkscape:connector-curvature="0"/>
    <path d="m 64.423392,12.059841 -2.285905,0 -0.04787,1.005319 0.203458,0 c 0.06782,-0.215426 0.127659,-0.343085 0.215425,-0.462766 0.175532,-0.24734 0.363032,-0.323138 0.785904,-0.323138 l 0.295213,0 -1.599734,2.429521 0,0.231383 2.369681,0 0.06383,-1.101064 -0.211436,0 c -0.07181,0.382978 -0.259309,0.674202 -0.514628,0.801862 -0.12367,0.06383 -0.235373,0.07979 -0.518617,0.07979 l -0.355053,0 1.599734,-2.4375 0,-0.223404" inkscape:connector-curvature="0"/>
    <path d="m 65.959171,12 -0.905585,2.114362 c -0.183511,0.430851 -0.331118,0.586436 -0.56649,0.610372 l 0,0.215426 1.152926,0 0,-0.215426 c -0.287234,-0.01596 -0.398936,-0.09175 -0.398936,-0.275266 0,-0.06782 0.01197,-0.111702 0.06383,-0.227393 l 0.06383,-0.151596 0.993351,0 0.151596,0.390957 c 0.03191,0.07181 0.04787,0.131649 0.04787,0.163564 0,0.07181 -0.05186,0.09575 -0.231383,0.09575 l -0.06782,0.004 0,0.215426 1.400266,0 0,-0.215426 c -0.227393,-0.008 -0.291223,-0.04787 -0.375,-0.25133 L 66.262362,12 65.959171,12 m -0.08378,0.849734 0.386968,0.953458 -0.789894,0 0.402926,-0.953458" inkscape:connector-curvature="0"/>
   </g>
   <rect x="32" stroke-width="0.75" display="inline" rx="2" y="41" fill="#87a26b" color="#000000" fill-opacity="1" stroke="none" fill-rule="nonzero" height="4" visibility="visible" width="32"/>
   <path d="m 37,41.78125 c -0.352113,0 -0.659742,0.09633 -0.90625,0.3125 -0.322895,0.276766 -0.5,0.724908 -0.5,1.15625 0,0.782913 0.615139,1.34375 1.40625,1.34375 0.361767,0 0.655426,-0.08284 0.90625,-0.28125 0.321121,-0.257644 0.53125,-0.65582 0.53125,-1.09375 0,-0.437722 -0.219971,-0.858725 -0.53125,-1.125 C 37.655199,41.876422 37.354072,41.78125 37,41.78125 z m 11.8125,0 c -0.352113,0 -0.659742,0.09633 -0.90625,0.3125 -0.290295,0.248824 -0.438181,0.64317 -0.46875,1.03125 -0.01564,-0.453703 -0.186117,-0.838531 -0.53125,-1.0625 -0.230804,-0.15387 -0.519134,-0.21875 -1,-0.21875 l -1.1875,0 a 0.1562681,0.1562681 0 0 0 -0.03125,0 0.1562681,0.1562681 0 0 0 -0.0625,0.03125 0.1562681,0.1562681 0 0 0 -0.03125,0.03125 0.1562681,0.1562681 0 0 0 -0.03125,0.0625 0.1562681,0.1562681 0 0 0 0,0.03125 l 0,0.1875 a 0.1562681,0.1562681 0 0 0 0,0.03125 0.1562681,0.1562681 0 0 0 0.03125,0.0625 0.1562681,0.1562681 0 0 0 0.03125,0.03125 0.1562681,0.1562681 0 0 0 0.0625,0.03125 0.1562681,0.1562681 0 0 0 0.03125,0 l 0.03125,0 c 0.07337,0 0.121295,-0.0011 0.15625,0 0.0019,0.02417 0,0.04281 0,0.125 l 0,1.4375 c 0,0.102736 0.002,0.14252 0,0.15625 0.03193,-0.03903 9.97e-4,0 -0.15625,0 l -0.03125,0 a 0.1562681,0.1562681 0 0 0 -0.03125,0 0.1562681,0.1562681 0 0 0 -0.0625,0.03125 0.1562681,0.1562681 0 0 0 -0.03125,0.03125 0.1562681,0.1562681 0 0 0 -0.03125,0.0625 0.1562681,0.1562681 0 0 0 0,0.03125 l 0,0.1875 a 0.1562681,0.1562681 0 0 0 0,0.03125 0.1562681,0.1562681 0 0 0 0.03125,0.0625 0.1562681,0.1562681 0 0 0 0.03125,0.03125 0.1562681,0.1562681 0 0 0 0.0625,0.03125 0.1562681,0.1562681 0 0 0 0.03125,0 l 1.21875,0 c 0.437733,0 0.760441,-0.08385 1,-0.25 0.309534,-0.215631 0.440415,-0.574752 0.46875,-1 0.01498,0.361655 0.14309,0.68054 0.375,0.90625 0.24594,0.239365 0.604445,0.375 1,0.375 0.361767,0 0.681099,-0.07843 0.9375,-0.28125 0.325456,-0.261122 0.5,-0.664189 0.5,-1.09375 0,-0.429281 -0.184292,-0.854937 -0.5,-1.125 -0.251051,-0.217328 -0.552178,-0.3125 -0.90625,-0.3125 z m 7.28125,0 A 0.1562681,0.1562681 0 0 0 56.0625,41.8125 0.1562681,0.1562681 0 0 0 56.03125,41.84375 0.1562681,0.1562681 0 0 0 56,41.875 l -0.75,1.78125 C 55.176816,43.828073 55.113894,43.945761 55.0625,44 l 0.03125,-0.5 a 0.1562681,0.1562681 0 0 0 0,-0.03125 0.1562681,0.1562681 0 0 0 0,-0.03125 A 0.1562681,0.1562681 0 0 0 55.0625,43.40625 0.1562681,0.1562681 0 0 0 55.03125,43.375 0.1562681,0.1562681 0 0 0 55,43.34375 a 0.1562681,0.1562681 0 0 0 -0.03125,0 0.1562681,0.1562681 0 0 0 -0.03125,0 l -0.1875,0 a 0.1562681,0.1562681 0 0 0 -0.03125,0 0.1562681,0.1562681 0 0 0 -0.0625,0.03125 0.1562681,0.1562681 0 0 0 -0.03125,0.03125 0.1562681,0.1562681 0 0 0 -0.03125,0.0625 c -0.06358,0.219362 -0.113436,0.315728 -0.1875,0.40625 -0.107995,0.129068 -0.239903,0.1875 -0.4375,0.1875 l -0.0625,0 c -0.06737,0 -0.09796,4.45e-4 -0.125,0 a 0.1562681,0.1562681 0 0 0 -0.03125,0 c -6.75e-4,-0.0019 0,-0.0168 0,-0.0625 l 0,-1.53125 c 0,-0.08219 -0.0019,-0.100825 0,-0.125 0.03466,-0.0011 0.08152,0 0.15625,0 l 0.0625,0 a 0.1562681,0.1562681 0 0 0 0.03125,0 0.1562681,0.1562681 0 0 0 0.0625,-0.03125 0.1562681,0.1562681 0 0 0 0.03125,-0.03125 0.1562681,0.1562681 0 0 0 0.03125,-0.0625 0.1562681,0.1562681 0 0 0 0,-0.03125 l 0,-0.1875 a 0.1562681,0.1562681 0 0 0 0,-0.03125 0.1562681,0.1562681 0 0 0 -0.03125,-0.0625 A 0.1562681,0.1562681 0 0 0 54.0625,41.875 0.1562681,0.1562681 0 0 0 54,41.84375 a 0.1562681,0.1562681 0 0 0 -0.03125,0 l -1.3125,0 a 0.1562681,0.1562681 0 0 0 -0.03125,0 A 0.1562681,0.1562681 0 0 0 52.5625,41.875 0.1562681,0.1562681 0 0 0 52.53125,41.90625 0.1562681,0.1562681 0 0 0 52.5,41.96875 0.1562681,0.1562681 0 0 0 52.5,42 l 0,0.1875 a 0.1562681,0.1562681 0 0 0 0,0.03125 0.1562681,0.1562681 0 0 0 0.03125,0.0625 0.1562681,0.1562681 0 0 0 0.03125,0.03125 0.1562681,0.1562681 0 0 0 0.0625,0.03125 0.1562681,0.1562681 0 0 0 0.03125,0 l 0.0625,0 c 0.05869,0 0.09034,-4.47e-4 0.125,0 -0.0024,0.03587 0,0.06185 0,0.125 l 0,1.4375 c 0,0.08006 -0.0029,0.11936 0,0.15625 0.0024,-0.0087 7.97e-4,0 -0.125,0 l -0.0625,0 L 52.6875,43.5 a 0.1562681,0.1562681 0 0 0 0,-0.03125 0.1562681,0.1562681 0 0 0 -0.03125,-0.0625 0.1562681,0.1562681 0 0 0 -0.03125,-0.03125 0.1562681,0.1562681 0 0 0 -0.03125,-0.03125 0.1562681,0.1562681 0 0 0 -0.03125,0 0.1562681,0.1562681 0 0 0 -0.03125,0 l -0.1875,0 a 0.1562681,0.1562681 0 0 0 -0.03125,0 0.1562681,0.1562681 0 0 0 -0.0625,0.03125 0.1562681,0.1562681 0 0 0 -0.03125,0.03125 0.1562681,0.1562681 0 0 0 -0.03125,0.0625 C 52.123917,43.688112 52.074064,43.784478 52,43.875 c -0.107995,0.129068 -0.239903,0.1875 -0.4375,0.1875 l -0.0625,0 c -0.06737,0 -0.09796,4.45e-4 -0.125,0 3.41e-4,-0.01814 0,-0.02214 0,-0.0625 l 0,-1.53125 c 0,-0.06315 0.0024,-0.08913 0,-0.125 0.03463,-4.44e-4 0.06522,0 0.125,0 l 0.0625,0 a 0.1562681,0.1562681 0 0 0 0.03125,0 0.1562681,0.1562681 0 0 0 0.0625,-0.03125 0.1562681,0.1562681 0 0 0 0.03125,-0.03125 0.1562681,0.1562681 0 0 0 0.03125,-0.0625 0.1562681,0.1562681 0 0 0 0,-0.03125 l 0,-0.1875 a 0.1562681,0.1562681 0 0 0 0,-0.03125 0.1562681,0.1562681 0 0 0 -0.03125,-0.0625 0.1562681,0.1562681 0 0 0 -0.03125,-0.03125 0.1562681,0.1562681 0 0 0 -0.0625,-0.03125 0.1562681,0.1562681 0 0 0 -0.03125,0 l -1.3125,0 a 0.1562681,0.1562681 0 0 0 -0.03125,0 0.1562681,0.1562681 0 0 0 -0.0625,0.03125 0.1562681,0.1562681 0 0 0 -0.03125,0.03125 0.1562681,0.1562681 0 0 0 -0.03125,0.0625 0.1562681,0.1562681 0 0 0 0,0.03125 l 0,0.1875 a 0.1562681,0.1562681 0 0 0 0,0.03125 0.1562681,0.1562681 0 0 0 0.03125,0.0625 0.1562681,0.1562681 0 0 0 0.03125,0.03125 0.1562681,0.1562681 0 0 0 0.0625,0.03125 0.1562681,0.1562681 0 0 0 0.03125,0 l 0.0625,0 c 0.05869,0 0.09034,-4.47e-4 0.125,0 -0.0024,0.03587 0,0.06185 0,0.125 l 0,1.4375 c 0,0.08006 -0.0029,0.11936 0,0.15625 0.0024,-0.0087 7.97e-4,0 -0.125,0 l -0.0625,0 a 0.1562681,0.1562681 0 0 0 -0.03125,0 0.1562681,0.1562681 0 0 0 -0.0625,0.03125 0.1562681,0.1562681 0 0 0 -0.03125,0.03125 0.1562681,0.1562681 0 0 0 -0.03125,0.0625 0.1562681,0.1562681 0 0 0 0,0.03125 l 0,0.1875 a 0.1562681,0.1562681 0 0 0 0,0.03125 0.1562681,0.1562681 0 0 0 0.03125,0.0625 0.1562681,0.1562681 0 0 0 0.03125,0.03125 0.1562681,0.1562681 0 0 0 0.0625,0.03125 0.1562681,0.1562681 0 0 0 0.03125,0 l 2.25,0 a 0.1562681,0.1562681 0 0 0 0.03125,0 0.1562681,0.1562681 0 0 0 0.03125,-0.03125 0.1562681,0.1562681 0 0 0 0.03125,0 0.1562681,0.1562681 0 0 0 0.03125,0.03125 0.1562681,0.1562681 0 0 0 0.03125,0 l 2.21875,0 a 0.1562681,0.1562681 0 0 0 0.03125,0 0.1562681,0.1562681 0 0 0 0.03125,0 l 0.96875,0 a 0.1562681,0.1562681 0 0 0 0.03125,0 A 0.1562681,0.1562681 0 0 0 56,44.53125 0.1562681,0.1562681 0 0 0 56.03125,44.5 a 0.1562681,0.1562681 0 0 0 0.03125,-0.0625 0.1562681,0.1562681 0 0 0 0,-0.03125 l 0,-0.1875 a 0.1562681,0.1562681 0 0 0 0,-0.03125 A 0.1562681,0.1562681 0 0 0 56.03125,44.125 0.1562681,0.1562681 0 0 0 56,44.09375 0.1562681,0.1562681 0 0 0 55.9375,44.0625 a 0.1562681,0.1562681 0 0 0 -0.03125,0 c -0.10956,-0.0061 -0.172888,-0.0224 -0.1875,-0.03125 -0.01461,-0.0088 0,0.0097 0,-0.03125 0,-0.01049 -0.0062,-0.01455 0,-0.03125 0.0062,-0.0167 0.04019,-0.04399 0.0625,-0.09375 l -0.03125,0 0,-0.03125 0.625,0 0.09375,0.21875 -0.0625,0 a 0.1562681,0.1562681 0 0 0 -0.03125,0 0.1562681,0.1562681 0 0 0 -0.0625,0.03125 0.1562681,0.1562681 0 0 0 -0.03125,0.03125 0.1562681,0.1562681 0 0 0 -0.03125,0.0625 0.1562681,0.1562681 0 0 0 0,0.03125 l 0,0.1875 a 0.1562681,0.1562681 0 0 0 0,0.03125 0.1562681,0.1562681 0 0 0 0.03125,0.0625 0.1562681,0.1562681 0 0 0 0.03125,0.03125 0.1562681,0.1562681 0 0 0 0.0625,0.03125 0.1562681,0.1562681 0 0 0 0.03125,0 l 1.1875,0 1.34375,0 a 0.1562681,0.1562681 0 0 0 0.03125,0 0.1562681,0.1562681 0 0 0 0.0625,-0.03125 0.1562681,0.1562681 0 0 0 0.03125,-0.03125 0.1562681,0.1562681 0 0 0 0.03125,-0.0625 0.1562681,0.1562681 0 0 0 0,-0.03125 l 0,-0.09375 c 0.04087,0.06455 0.09436,0.113881 0.15625,0.15625 0.123776,0.08474 0.272052,0.125 0.4375,0.125 0.205467,0 0.398752,-0.06466 0.53125,-0.1875 0.132498,-0.122837 0.1875,-0.293732 0.1875,-0.5 l 0,-0.0625 a 0.1562681,0.1562681 0 0 0 0,-0.03125 0.1562681,0.1562681 0 0 0 -0.03125,-0.0625 0.1562681,0.1562681 0 0 0 -0.03125,-0.03125 0.1562681,0.1562681 0 0 0 -0.0625,-0.03125 0.1562681,0.1562681 0 0 0 -0.03125,0 l -0.1875,0 a 0.1562681,0.1562681 0 0 0 -0.03125,0 0.1562681,0.1562681 0 0 0 -0.0625,0.03125 0.1562681,0.1562681 0 0 0 -0.03125,0.03125 0.1562681,0.1562681 0 0 0 -0.03125,0.03125 l 0,-0.03125 a 0.1562681,0.1562681 0 0 0 0,-0.03125 C 59.87848,43.552135 59.81552,43.399199 59.71875,43.28125 59.70945,43.26991 59.6975,43.26068 59.6875,43.25 a 0.1562681,0.1562681 0 0 0 0,-0.03125 c 0.24832,-0.126195 0.40625,-0.356024 0.40625,-0.625 C 60.09375,42.337684 59.953039,42.132757 59.75,42 59.575675,41.8899 59.32125,41.84375 59,41.84375 l -1.40625,0 a 0.1562681,0.1562681 0 0 0 -0.03125,0 0.1562681,0.1562681 0 0 0 -0.0625,0.03125 0.1562681,0.1562681 0 0 0 -0.03125,0.03125 0.1562681,0.1562681 0 0 0 -0.03125,0.0625 0.1562681,0.1562681 0 0 0 0,0.03125 l 0,0.1875 a 0.1562681,0.1562681 0 0 0 0,0.03125 0.1562681,0.1562681 0 0 0 0.03125,0.0625 0.1562681,0.1562681 0 0 0 0.03125,0.03125 0.1562681,0.1562681 0 0 0 0.0625,0.03125 0.1562681,0.1562681 0 0 0 0.03125,0 l 0.0625,0 c 0.06963,0 0.09737,-0.0011 0.125,0 0.0018,0.02325 0,0.04146 0,0.125 l 0,1.4375 c 0,0.10443 0.0019,0.14409 0,0.15625 -0.01349,0.0042 -0.04738,0 -0.125,0 l -0.0625,0 c -0.08358,-0.0029 -0.117403,-0.02582 -0.125,-0.03125 -0.0076,-0.0054 9e-5,-0.01764 -0.03125,-0.09375 L 56.5625,41.875 A 0.1562681,0.1562681 0 0 0 56.53125,41.84375 0.1562681,0.1562681 0 0 0 56.5,41.8125 a 0.1562681,0.1562681 0 0 0 -0.0625,-0.03125 0.1562681,0.1562681 0 0 0 -0.03125,0 l -0.25,0 a 0.1562681,0.1562681 0 0 0 -0.03125,0 0.1562681,0.1562681 0 0 0 -0.03125,0 z m -17.6875,0.0625 A 0.1562681,0.1562681 0 0 0 38.375,41.875 a 0.1562681,0.1562681 0 0 0 -0.03125,0.03125 0.1562681,0.1562681 0 0 0 -0.03125,0.0625 0.1562681,0.1562681 0 0 0 0,0.03125 l 0,0.1875 a 0.1562681,0.1562681 0 0 0 0,0.03125 0.1562681,0.1562681 0 0 0 0.03125,0.0625 0.1562681,0.1562681 0 0 0 0.03125,0.03125 0.1562681,0.1562681 0 0 0 0.0625,0.03125 0.1562681,0.1562681 0 0 0 0.03125,0 c 0.08843,0.002 0.138002,0.03631 0.1875,0.09375 l 0,1.25 c 0,0.142015 -0.02181,0.240385 -0.03125,0.28125 -0.0094,0.04086 -0.0078,0.03795 -0.03125,0.0625 -0.01546,0.01643 -0.03264,0.0255 -0.15625,0.03125 a 0.1562681,0.1562681 0 0 0 -0.03125,0 0.1562681,0.1562681 0 0 0 -0.03125,0 0.1562681,0.1562681 0 0 0 -0.03125,0.03125 0.1562681,0.1562681 0 0 0 -0.03125,0.03125 0.1562681,0.1562681 0 0 0 -0.03125,0.03125 0.1562681,0.1562681 0 0 0 0,0.03125 0.1562681,0.1562681 0 0 0 0,0.03125 l 0,0.1875 a 0.1562681,0.1562681 0 0 0 0,0.03125 0.1562681,0.1562681 0 0 0 0.03125,0.0625 0.1562681,0.1562681 0 0 0 0.03125,0.03125 0.1562681,0.1562681 0 0 0 0.0625,0.03125 0.1562681,0.1562681 0 0 0 0.03125,0 l 0.96875,0 a 0.1562681,0.1562681 0 0 0 0.03125,0 A 0.1562681,0.1562681 0 0 0 39.5,44.53125 0.1562681,0.1562681 0 0 0 39.53125,44.5 a 0.1562681,0.1562681 0 0 0 0.03125,-0.0625 0.1562681,0.1562681 0 0 0 0,-0.03125 l 0,-0.1875 a 0.1562681,0.1562681 0 0 0 0,-0.03125 A 0.1562681,0.1562681 0 0 0 39.53125,44.125 0.1562681,0.1562681 0 0 0 39.5,44.09375 0.1562681,0.1562681 0 0 0 39.4375,44.0625 a 0.1562681,0.1562681 0 0 0 -0.03125,0 C 39.282638,44.0568 39.265463,44.04768 39.25,44.03125 39.22657,44.0067 39.22819,44.00961 39.21875,43.96875 39.20935,43.92789 39.1875,43.829515 39.1875,43.6875 l 0,-0.65625 1.28125,1.5 A 0.1562681,0.1562681 0 0 0 40.5,44.5625 a 0.1562681,0.1562681 0 0 0 0.0625,0.03125 0.1562681,0.1562681 0 0 0 0.03125,0 l 0.21875,0 a 0.1562681,0.1562681 0 0 0 0.03125,0 0.1562681,0.1562681 0 0 0 0.0625,-0.03125 0.1562681,0.1562681 0 0 0 0.03125,-0.03125 0.1562681,0.1562681 0 0 0 0.03125,-0.0625 0.1562681,0.1562681 0 0 0 0,-0.03125 l 0,-1.71875 c 0,-0.149226 -0.0048,-0.237035 0,-0.28125 0.0048,-0.04422 0.01504,-0.04552 0.03125,-0.0625 0.01088,-0.01156 0.04795,-0.02854 0.15625,-0.03125 a 0.1562681,0.1562681 0 0 0 0.03125,0 0.1562681,0.1562681 0 0 0 0.03125,0 l 0.0625,0 c 0.05869,0 0.09034,-4.47e-4 0.125,0 -0.0024,0.03587 0,0.06185 0,0.125 l 0,1.4375 c 0,0.07893 -0.0029,0.119389 0,0.15625 0.0024,-0.0087 7.97e-4,0 -0.125,0 l -0.0625,0 a 0.1562681,0.1562681 0 0 0 -0.03125,0 0.1562681,0.1562681 0 0 0 -0.0625,0.03125 0.1562681,0.1562681 0 0 0 -0.03125,0.03125 0.1562681,0.1562681 0 0 0 -0.03125,0.0625 0.1562681,0.1562681 0 0 0 0,0.03125 l 0,0.1875 a 0.1562681,0.1562681 0 0 0 0,0.03125 0.1562681,0.1562681 0 0 0 0.03125,0.0625 0.1562681,0.1562681 0 0 0 0.03125,0.03125 0.1562681,0.1562681 0 0 0 0.0625,0.03125 0.1562681,0.1562681 0 0 0 0.03125,0 l 2.25,0 a 0.1562681,0.1562681 0 0 0 0.03125,0 0.1562681,0.1562681 0 0 0 0.0625,-0.03125 0.1562681,0.1562681 0 0 0 0.03125,-0.03125 0.1562681,0.1562681 0 0 0 0.03125,-0.0625 0.1562681,0.1562681 0 0 0 0,-0.03125 L 43.6875,43.5 a 0.1562681,0.1562681 0 0 0 0,-0.03125 0.1562681,0.1562681 0 0 0 0,-0.03125 0.1562681,0.1562681 0 0 0 -0.03125,-0.03125 0.1562681,0.1562681 0 0 0 -0.03125,-0.03125 0.1562681,0.1562681 0 0 0 -0.03125,-0.03125 0.1562681,0.1562681 0 0 0 -0.03125,0 0.1562681,0.1562681 0 0 0 -0.03125,0 l -0.1875,0 a 0.1562681,0.1562681 0 0 0 -0.03125,0 0.1562681,0.1562681 0 0 0 -0.0625,0.03125 0.1562681,0.1562681 0 0 0 -0.03125,0.03125 0.1562681,0.1562681 0 0 0 -0.03125,0.0625 c -0.03608,0.128863 -0.109312,0.167766 -0.15625,0.25 l 0,-1.125 c 0.04595,0.08203 0.08628,0.17826 0.125,0.3125 a 0.1562681,0.1562681 0 0 0 0.03125,0.0625 0.1562681,0.1562681 0 0 0 0.03125,0.03125 0.1562681,0.1562681 0 0 0 0.0625,0.03125 0.1562681,0.1562681 0 0 0 0.03125,0 l 0.15625,0 a 0.1562681,0.1562681 0 0 0 0.03125,0 A 0.1562681,0.1562681 0 0 0 43.5625,43 a 0.1562681,0.1562681 0 0 0 0.03125,-0.03125 0.1562681,0.1562681 0 0 0 0.03125,-0.0625 0.1562681,0.1562681 0 0 0 0,-0.03125 l 0,-0.875 a 0.1562681,0.1562681 0 0 0 0,-0.03125 0.1562681,0.1562681 0 0 0 -0.03125,-0.0625 A 0.1562681,0.1562681 0 0 0 43.5625,41.875 0.1562681,0.1562681 0 0 0 43.5,41.84375 a 0.1562681,0.1562681 0 0 0 -0.03125,0 l -2.25,0 a 0.1562681,0.1562681 0 0 0 -0.03125,0 0.1562681,0.1562681 0 0 0 -0.03125,0 l -0.9375,0 a 0.1562681,0.1562681 0 0 0 -0.03125,0 0.1562681,0.1562681 0 0 0 -0.0625,0.03125 0.1562681,0.1562681 0 0 0 -0.03125,0.03125 0.1562681,0.1562681 0 0 0 -0.03125,0.0625 0.1562681,0.1562681 0 0 0 0,0.03125 l 0,0.1875 a 0.1562681,0.1562681 0 0 0 0,0.03125 0.1562681,0.1562681 0 0 0 0.03125,0.0625 0.1562681,0.1562681 0 0 0 0.03125,0.03125 0.1562681,0.1562681 0 0 0 0.0625,0.03125 0.1562681,0.1562681 0 0 0 0.03125,0 c 0.104461,0.0027 0.147599,0.02206 0.15625,0.03125 0.02343,0.02455 0.02181,0.02164 0.03125,0.0625 0.0094,0.04086 0.03125,0.139235 0.03125,0.28125 l 0,0.375 -1.03125,-1.1875 A 0.1562681,0.1562681 0 0 0 39.375,41.875 a 0.1562681,0.1562681 0 0 0 -0.0625,-0.03125 0.1562681,0.1562681 0 0 0 -0.03125,0 l -0.8125,0 a 0.1562681,0.1562681 0 0 0 -0.03125,0 0.1562681,0.1562681 0 0 0 -0.03125,0 z m -1.375,0.4375 c 0.132838,0 0.20425,0.02083 0.28125,0.15625 0.08507,0.154666 0.125,0.466961 0.125,0.8125 0,0.32327 -0.05221,0.552096 -0.125,0.6875 -0.07279,0.135404 -0.140733,0.1875 -0.28125,0.1875 -0.151151,0 -0.243791,-0.02865 -0.3125,-0.15625 -0.09568,-0.179767 -0.15625,-0.455396 -0.15625,-0.78125 0,-0.337437 0.06433,-0.595893 0.15625,-0.75 0.06942,-0.117296 0.146019,-0.15625 0.3125,-0.15625 z m 11.78125,0 c 0.132838,0 0.20425,0.02083 0.28125,0.15625 0.0911,0.165645 0.15625,0.476028 0.15625,0.8125 0,0.320858 -0.04572,0.551438 -0.125,0.6875 -0.07928,0.136062 -0.171983,0.1875 -0.3125,0.1875 -0.151151,0 -0.243791,-0.02865 -0.3125,-0.15625 -0.0899,-0.168903 -0.125,-0.44607 -0.125,-0.78125 0,-0.346503 0.03957,-0.606775 0.125,-0.75 0.06942,-0.117296 0.146019,-0.15625 0.3125,-0.15625 z m -6.5,0.0625 c 0.03121,-0.006 0.09293,0 0.15625,0 l 0.09375,0 c 0.125801,0 0.231685,0.04684 0.3125,0.09375 l -0.1875,0 a 0.1562681,0.1562681 0 0 0 -0.03125,0 0.1562681,0.1562681 0 0 0 -0.0625,0.03125 A 0.1562681,0.1562681 0 0 0 42.5625,42.5 0.1562681,0.1562681 0 0 0 42.53125,42.5625 c -0.01523,0.127354 -0.0444,0.232668 -0.09375,0.28125 -0.02793,0.0275 -0.08492,0.01879 -0.125,0.03125 l 0,-0.40625 c 0,-0.06637 -0.0024,-0.107781 0,-0.125 z m 3.5,0 c -0.02763,0.02763 -0.03942,0 0.03125,0 l 0.09375,0 c 0.196802,0 0.290469,0.03841 0.375,0.15625 0.08453,0.117838 0.15625,0.34146 0.15625,0.65625 0,0.332937 -0.09217,0.662615 -0.15625,0.75 -0.06478,0.09285 -0.187709,0.15625 -0.375,0.15625 l -0.09375,0 c -0.01696,0 -0.02147,9.19e-4 -0.03125,0 0.01982,0.02442 0,0.01833 0,-0.0625 l 0,-1.625 c 0,-0.07067 0.02763,-0.05888 0,-0.03125 z m 12.875,0 c -0.02278,0.01967 -0.0055,0 0.09375,0 l 0.0625,0 c 0.13185,0 0.21058,0.02658 0.25,0.0625 0.03942,0.03592 0.0625,0.09496 0.0625,0.21875 0,0.146263 -0.01848,0.187098 -0.0625,0.21875 -0.04402,0.03165 -0.165515,0.0625 -0.375,0.0625 l -0.03125,0 0,-0.5 c 0,-0.02817 -0.0015,-0.04853 0,-0.0625 z m -2.59375,0.75 0.0625,0.1875 -0.15625,0 0.09375,-0.1875 z m 2.59375,0.3125 0.03125,0 c 0.123087,0 0.176979,0.01956 0.1875,0.03125 0.01787,0.02123 0.02778,0.01286 0.03125,0.03125 0.0035,0.01839 -0.0068,0.05987 0,0.15625 0.01934,0.21597 0.05096,0.376922 0.0625,0.4375 a 0.1562681,0.1562681 0 0 0 -0.03125,0 0.1562681,0.1562681 0 0 0 -0.03125,0 l -0.09375,0 c -0.155244,0 -0.186699,-0.03383 -0.15625,0 -0.0019,-0.01216 0,-0.05182 0,-0.15625 l 0,-0.5 z m -16.375,0.03125 c 0.04008,0.01246 0.09707,0.0038 0.125,0.03125 0.04935,0.04858 0.07852,0.153896 0.09375,0.28125 a 0.1562681,0.1562681 0 0 0 0,0.03125 0.1562681,0.1562681 0 0 0 0.03125,0.03125 0.1562681,0.1562681 0 0 0 0.03125,0.03125 0.1562681,0.1562681 0 0 0 0.0625,0.03125 0.1562681,0.1562681 0 0 0 0.03125,0 l 0.1875,0 a 0.1562681,0.1562681 0 0 0 0.03125,0 0.1562681,0.1562681 0 0 0 0.0625,-0.03125 c -0.01698,0.0207 -0.01338,0.07731 -0.03125,0.09375 -0.09746,0.08965 -0.202366,0.125 -0.375,0.125 l -0.09375,0 c -0.06737,0 -0.09796,4.45e-4 -0.125,0 a 0.1562681,0.1562681 0 0 0 -0.03125,0 c -6.75e-4,-0.0019 0,-0.0168 0,-0.0625 l 0,-0.5625 z" fill="#536741" fill-opacity="1" stroke="none" inkscape:connector-curvature="0"/>
   <g fill="#e0e4b1" fill-opacity="1" stroke="none">
    <path d="m 37.012814,41.750001 c -0.322473,0 -0.59508,0.09309 -0.81117,0.28258 -0.279255,0.239362 -0.445479,0.615027 -0.445479,1.003989 0,0.704787 0.518618,1.213431 1.240026,1.213431 0.339096,0 0.601729,-0.08311 0.824469,-0.259308 0.285904,-0.229388 0.445478,-0.568485 0.445478,-0.957447 0,-0.385638 -0.169548,-0.764628 -0.445478,-1.000665 -0.22274,-0.192819 -0.482049,-0.28258 -0.807846,-0.28258 m 0.0033,0.172873 c 0.179521,0 0.319149,0.08644 0.415559,0.255984 0.109707,0.199468 0.169548,0.49867 0.169548,0.857712 0,0.674867 -0.206118,1.040559 -0.585107,1.040559 -0.192819,0 -0.332447,-0.08311 -0.425532,-0.255984 -0.109707,-0.206117 -0.169547,-0.498671 -0.169547,-0.847739 0,-0.359043 0.05652,-0.625001 0.169547,-0.814495 0.09641,-0.162899 0.229389,-0.236037 0.425532,-0.236037" inkscape:connector-curvature="0"/>
    <path d="m 39.296671,41.799868 -0.837766,0 0,0.182846 c 0.149601,0.0033 0.269282,0.06649 0.352394,0.18617 l 0,1.309841 c 0,0.292553 -0.01662,0.375665 -0.08644,0.448803 -0.05319,0.05652 -0.129655,0.08311 -0.272606,0.08976 l 0,0.179521 0.947473,0 0,-0.179521 c -0.142952,-0.0066 -0.226064,-0.03325 -0.279255,-0.08976 -0.06981,-0.07314 -0.08644,-0.15625 -0.08644,-0.448803 l 0,-1.09375 1.545878,1.838431 0.222739,0 0,-1.702128 c 0,-0.295877 0.01662,-0.37899 0.08644,-0.452128 0.05319,-0.05652 0.146276,-0.08644 0.279255,-0.08976 l 0,-0.179522 -0.947473,0 0,0.179522 c 0.129654,0.0033 0.219415,0.03324 0.272606,0.08976 0.06981,0.07314 0.08644,0.159575 0.08644,0.452128 l 0,0.78125 -1.283245,-1.50266" inkscape:connector-curvature="0"/>
    <path d="m 43.455529,41.799868 -2.230718,0 0,0.179522 0.04987,0 c 0.172872,0 0.242686,0.0133 0.272606,0.04987 0.02327,0.0266 0.02327,0.03989 0.02327,0.249335 l 0,1.442819 c 0,0.209441 0,0.222739 -0.02327,0.249335 -0.02992,0.03657 -0.09973,0.04987 -0.272606,0.04987 l -0.04987,0 0,0.179521 2.257314,0 0.03989,-0.894282 -0.176196,0 c -0.139628,0.49867 -0.375666,0.714761 -0.777926,0.714761 l -0.09973,0 c -0.162899,0 -0.206117,-0.0066 -0.246011,-0.04654 -0.04322,-0.03989 -0.05319,-0.07646 -0.05319,-0.18617 l 0,-0.738032 0.05652,0 c 0.259308,0 0.422207,0.166224 0.458776,0.472075 l 0.179522,0 0,-1.126995 -0.179522,0 c -0.03657,0.305851 -0.199468,0.472075 -0.458776,0.472075 l -0.05652,0 0,-0.601729 c 0,-0.136303 0.0066,-0.172873 0.03325,-0.212766 0.03657,-0.04987 0.116356,-0.07314 0.252659,-0.07314 l 0.09309,0 c 0.246011,0 0.448804,0.08976 0.561835,0.24601 0.06981,0.09973 0.142953,0.265958 0.192819,0.43883 l 0.172873,0 -0.01995,-0.864362" inkscape:connector-curvature="0"/>
    <path d="m 45.060832,43.721411 c 0,0.209441 0,0.222739 -0.02327,0.249335 -0.02992,0.03657 -0.09973,0.04987 -0.272607,0.04987 l -0.04987,0 0,0.179521 1.223404,0 c 0.418883,0 0.684841,-0.05984 0.890958,-0.202792 0.295877,-0.206117 0.458776,-0.568485 0.458776,-1.023936 0,-0.445479 -0.162899,-0.791224 -0.475398,-0.994016 -0.199468,-0.132979 -0.44548,-0.179522 -0.914229,-0.179522 l -1.183511,0 0,0.179522 0.04987,0 c 0.172872,0 0.242686,0.0133 0.272607,0.04987 0.02327,0.0266 0.02327,0.03989 0.02327,0.249335 l 0,1.442819 m 0.797872,0.299202 c -0.162899,0 -0.199468,-0.03989 -0.199468,-0.21609 l 0,-1.625665 c 0,-0.159575 0.03989,-0.199468 0.199468,-0.199468 l 0.08311,0 c 0.4621,0 0.68484,0.322474 0.68484,0.987367 0,0.355717 -0.06981,0.678191 -0.179521,0.827792 -0.09973,0.142952 -0.295878,0.226064 -0.518617,0.226064 l -0.06981,0" inkscape:connector-curvature="0"/>
    <path d="m 48.81078,41.750001 c -0.322473,0 -0.59508,0.09309 -0.81117,0.28258 -0.279255,0.239362 -0.445479,0.615027 -0.445479,1.003989 0,0.704787 0.518618,1.213431 1.240026,1.213431 0.339096,0 0.601729,-0.08311 0.824469,-0.259308 0.285904,-0.229388 0.445478,-0.568485 0.445478,-0.957447 0,-0.385638 -0.169548,-0.764628 -0.445478,-1.000665 -0.22274,-0.192819 -0.482049,-0.28258 -0.807846,-0.28258 m 0.0033,0.172873 c 0.179521,0 0.319149,0.08644 0.415559,0.255984 0.109707,0.199468 0.169548,0.49867 0.169548,0.857712 0,0.674867 -0.206118,1.040559 -0.585107,1.040559 -0.192819,0 -0.332447,-0.08311 -0.425532,-0.255984 -0.109707,-0.206117 -0.169547,-0.498671 -0.169547,-0.847739 0,-0.359043 0.05652,-0.625001 0.169547,-0.814495 0.09641,-0.162899 0.229389,-0.236037 0.425532,-0.236037" inkscape:connector-curvature="0"/>
    <path d="m 52.351286,43.305852 c -0.06649,0.229388 -0.12633,0.355719 -0.21609,0.465426 -0.136303,0.162899 -0.325798,0.249335 -0.561835,0.249335 l -0.06981,0 c -0.162899,0 -0.206117,-0.0066 -0.246011,-0.04654 -0.04322,-0.03989 -0.05319,-0.07646 -0.05319,-0.18617 l 0,-1.509308 c 0,-0.209442 0,-0.22274 0.02327,-0.249335 0.02992,-0.03657 0.09973,-0.04987 0.275931,-0.04987 l 0.07314,0 0,-0.179522 -1.316489,0 0,0.179522 0.04987,0 c 0.172872,0 0.242686,0.0133 0.272606,0.04987 0.02327,0.0266 0.02327,0.03989 0.02327,0.249335 l 0,1.439494 c 0,0.212766 0,0.226064 -0.02327,0.25266 -0.02992,0.03657 -0.09973,0.04987 -0.272606,0.04987 l -0.04987,0 0,0.179521 2.227394,0 0.03989,-0.894282 -0.176197,0" inkscape:connector-curvature="0"/>
    <path d="m 54.753733,43.305852 c -0.06649,0.229388 -0.12633,0.355719 -0.21609,0.465426 -0.136303,0.162899 -0.325798,0.249335 -0.561835,0.249335 l -0.06981,0 c -0.162899,0 -0.206117,-0.0066 -0.246011,-0.04654 -0.04322,-0.03989 -0.05319,-0.07646 -0.05319,-0.18617 l 0,-1.509308 c 0,-0.209442 0,-0.22274 0.02327,-0.249335 0.02992,-0.03657 0.09973,-0.04987 0.275931,-0.04987 l 0.07314,0 0,-0.179522 -1.316489,0 0,0.179522 0.04987,0 c 0.172872,0 0.242686,0.0133 0.272606,0.04987 0.02327,0.0266 0.02327,0.03989 0.02327,0.249335 l 0,1.439494 c 0,0.212766 0,0.226064 -0.02327,0.25266 -0.02992,0.03657 -0.09973,0.04987 -0.272606,0.04987 l -0.04987,0 0,0.179521 2.227393,0 0.03989,-0.894282 -0.176197,0" inkscape:connector-curvature="0"/>
    <path d="m 56.168815,41.750001 -0.754655,1.761968 c -0.152925,0.359043 -0.275931,0.488697 -0.472074,0.508644 l 0,0.179521 0.960771,0 0,-0.179521 c -0.239361,-0.0133 -0.332447,-0.07646 -0.332447,-0.229388 0,-0.05652 0.01,-0.09309 0.05319,-0.189495 l 0.05319,-0.12633 0.827793,0 0.12633,0.325798 c 0.0266,0.05984 0.03989,0.109708 0.03989,0.136303 0,0.05984 -0.04322,0.07979 -0.192819,0.07979 l -0.05652,0.0033 0,0.179521 1.166889,0 0,-0.179521 c -0.189495,-0.0066 -0.242687,-0.03989 -0.3125,-0.209441 l -0.854389,-2.061171 -0.252659,0 m -0.06981,0.708112 0.322473,0.794548 -0.658244,0 0.335771,-0.794548" inkscape:connector-curvature="0"/>
    <path d="m 58.538381,43.046544 0.18617,0 c 0.142952,0 0.236037,0.03325 0.295878,0.09973 0.05319,0.06316 0.06649,0.103059 0.07979,0.292553 0.01995,0.222739 0.03657,0.362367 0.04654,0.415559 0.05652,0.259308 0.242687,0.395611 0.531915,0.395611 0.359042,0 0.56516,-0.202793 0.56516,-0.555186 l 0,-0.03989 -0.179521,0 c -0.0033,0.209441 -0.05319,0.315824 -0.152926,0.315824 -0.03657,0 -0.07646,-0.01995 -0.09641,-0.04987 -0.01995,-0.0266 -0.02327,-0.04987 -0.03989,-0.15625 0,-0.0133 -0.0066,-0.04654 -0.0133,-0.09309 l -0.02327,-0.12633 c -0.04987,-0.299202 -0.176197,-0.448803 -0.465426,-0.545213 0.176197,-0.03324 0.262633,-0.05652 0.345745,-0.09641 0.202792,-0.103059 0.319149,-0.285905 0.319149,-0.501995 0,-0.199468 -0.09641,-0.369016 -0.269282,-0.482048 -0.12633,-0.07979 -0.34907,-0.119681 -0.65492,-0.119681 l -1.419548,0 0,0.179522 0.04987,0 c 0.172872,0 0.242686,0.0133 0.272606,0.04654 0.02327,0.02992 0.02327,0.03989 0.02327,0.25266 l 0,1.439494 c 0,0.212766 0,0.22274 -0.02327,0.25266 -0.02992,0.03325 -0.09973,0.04654 -0.272606,0.04654 l -0.04987,0 0,0.179521 1.329787,0 0,-0.179521 -0.08644,0 c -0.172872,0 -0.246011,-0.0133 -0.275931,-0.04654 -0.02327,-0.02992 -0.02327,-0.03989 -0.02327,-0.25266 l 0,-0.671542 m 0,-0.182846 0,-0.671542 c 0,-0.189495 0.02327,-0.212766 0.236037,-0.212766 l 0.07979,0 c 0.309175,0 0.448803,0.136303 0.448803,0.438829 0,0.339096 -0.139628,0.445479 -0.581782,0.445479 l -0.182845,0" inkscape:connector-curvature="0"/>
   </g>
   <path d="m 27.0625,22 -0.65625,1.09375 -1.15625,-0.5 -0.28125,1.21875 -1.25,-0.09375 0.09375,1.25 -1.21875,0.28125 0.5,1.15625 L 22,27.0625 22.84375,28 22,28.9375 l 1.09375,0.65625 -0.5,1.15625 1.21875,0.28125 -0.09375,1.25 1.25,-0.09375 0.28125,1.21875 1.15625,-0.5 L 27.0625,34 28,33.15625 28.9375,34 l 0.65625,-1.09375 1.15625,0.5 0.28125,-1.21875 1.25,0.09375 -0.09375,-1.25 1.21875,-0.28125 -0.5,-1.15625 L 34,28.9375 33.15625,28 34,27.0625 l -1.09375,-0.65625 0.5,-1.15625 -1.21875,-0.28125 0.09375,-1.25 -1.25,0.09375 -0.28125,-1.21875 -1.15625,0.5 L 28.9375,22 28,22.84375 27.0625,22 z M 28,24 c 2.209139,0 4,1.790861 4,4 0,2.209139 -1.790861,4 -4,4 -2.209139,0 -4,-1.790861 -4,-4 0,-2.209139 1.790861,-4 4,-4 z" stroke-width="0.873" display="inline" fill="#546841" color="#000000" fill-opacity="1" fill-rule="nonzero" stroke="none" opacity="0.8" visibility="visible" inkscape:connector-curvature="0"/>
   <path d="m 67.0625,22 -0.65625,1.09375 -1.15625,-0.5 -0.28125,1.21875 -1.25,-0.09375 0.09375,1.25 -1.21875,0.28125 0.5,1.15625 L 62,27.0625 62.84375,28 62,28.9375 l 1.09375,0.65625 -0.5,1.15625 1.21875,0.28125 -0.09375,1.25 1.25,-0.09375 0.28125,1.21875 1.15625,-0.5 L 67.0625,34 68,33.15625 68.9375,34 l 0.65625,-1.09375 1.15625,0.5 0.28125,-1.21875 1.25,0.09375 -0.09375,-1.25 1.21875,-0.28125 -0.5,-1.15625 L 74,28.9375 73.15625,28 74,27.0625 l -1.09375,-0.65625 0.5,-1.15625 -1.21875,-0.28125 0.09375,-1.25 -1.25,0.09375 -0.28125,-1.21875 -1.15625,0.5 L 68.9375,22 68,22.84375 67.0625,22 z M 68,25 c 1.656854,0 3,1.343146 3,3 0,1.656854 -1.343146,3 -3,3 -1.656854,0 -3,-1.343146 -3,-3 0,-1.656854 1.343146,-3 3,-3 z" stroke-width="0.873" display="inline" fill="#2ca02c" color="#000000" fill-opacity="1" fill-rule="nonzero" stroke="none" opacity="0.8" visibility="visible" inkscape:connector-curvature="0"/>
   <path d="m 72,28 a 4,4 0 1 1 -8,0 4,4 0 1 1 8,0 z" stroke-width="0.873" display="inline" fill="#3fa93f" color="#000000" fill-opacity="1" fill-rule="nonzero" stroke="none" opacity="0.6" visibility="visible" inkscape:connector-curvature="0" transform="matrix(0.5 0 0 0.5 34 14)"/>
   <path d="m 68,24 c -2.209139,0 -4,1.790861 -4,4 0,2.209139 1.790861,4 4,4 2.209139,0 4,-1.790861 4,-4 0,-2.209139 -1.790861,-4 -4,-4 z m 0,1 c 1.656854,0 3,1.343146 3,3 0,1.656854 -1.343146,3 -3,3 -1.656854,0 -3,-1.343146 -3,-3 0,-1.656854 1.343146,-3 3,-3 z" stroke-width="0.873" display="inline" fill="#afe9af" color="#000000" fill-opacity="1" fill-rule="nonzero" stroke="none" opacity="0.75" visibility="visible" inkscape:connector-curvature="0"/>
   <path d="m 34.810338,19.660671 -7.14,0 0,0.564 0.216,0 c 0.971999,0 1.08,0.06 1.08,0.564 l 0,0.348 0,5.712 0,0.348 c 0,0.503999 -0.108001,0.564 -1.08,0.564 l -0.216,0 0,0.564 4.116,0 0,-0.564 -0.396,0 c -0.971999,0 -1.08,-0.06 -1.08,-0.564 l 0,-0.348 0,-2.724 0.24,0 c 0.743999,0 1.032,0.072 1.284,0.324 0.3,0.311999 0.42,0.696 0.444,1.404 l 0.564,0 0,-3.936 -0.564,0 c -0.06,1.175999 -0.540001,1.644 -1.68,1.644 l -0.288,0 0,-2.736 c 0,-0.516 0.108001,-0.6 0.756,-0.6 l 0.552,0 c 1.979998,0 2.496,0.456002 2.832,2.508 l 0.528,0 -0.168,-3.072" fill="#637551" fill-opacity="1" stroke="none" opacity="0.8" inkscape:connector-curvature="0" transform="matrix(0.5771 0 0 0.5771 9.923 14.15)"/>
   <path d="m 6,42 0,1 c 0,3.324 2.676,6 6,6 l 72,0 c 3.324,0 6,-2.676 6,-6 l 0,-1 c 0,3.324 -2.676,6 -6,6 L 12,48 C 8.676,48 6,45.324 6,42 z m 0,3 0,1 c 0,3.324 2.676,6 6,6 l 72,0 c 3.324,0 6,-2.676 6,-6 l 0,-1 c 0,3.324 -2.676,6 -6,6 L 12,51 C 8.676,51 6,48.324 6,45 z m 0,3 0,1 c 0,3.324 2.676,6 6,6 l 72,0 c 3.324,0 6,-2.676 6,-6 l 0,-1 c 0,3.324 -2.676,6 -6,6 L 12,54 C 8.676,54 6,51.324 6,48 z m 0,3 0,1 c 0,3.324 2.676,6 6,6 l 72,0 c 3.324,0 6,-2.676 6,-6 l 0,-1 c 0,3.324 -2.676,6 -6,6 L 12,57 C 8.676,57 6,54.324 6,51 z m 0,3 0,1 c 0,3.324 2.676,6 6,6 l 72,0 c 3.324,0 6,-2.676 6,-6 l 0,-1 c 0,3.324 -2.676,6 -6,6 L 12,60 C 8.676,60 6,57.324 6,54 z m 0,3 0,1 c 0,3.324 2.676,6 6,6 l 72,0 c 3.324,0 6,-2.676 6,-6 l 0,-1 c 0,3.324 -2.676,6 -6,6 L 12,63 C 8.676,63 6,60.324 6,57 z m 0,3 0,1 c 0,3.324 2.676,6 6,6 l 72,0 c 3.324,0 6,-2.676 6,-6 l 0,-1 c 0,3.324 -2.676,6 -6,6 L 12,66 C 8.676,66 6,63.324 6,60 z m 0,3 0,1 c 0,3.324 2.676,6 6,6 l 72,0 c 3.324,0 6,-2.676 6,-6 l 0,-1 c 0,3.324 -2.676,6 -6,6 L 12,69 C 8.676,69 6,66.324 6,63 z m 0,3 0,1 c 0,3.324 2.676,6 6,6 l 72,0 c 3.324,0 6,-2.676 6,-6 l 0,-1 c 0,3.324 -2.676,6 -6,6 L 12,72 C 8.676,72 6,69.324 6,66 z m 0,3 0,1 c 0,3.324 2.676,6 6,6 l 72,0 c 3.324,0 6,-2.676 6,-6 l 0,-1 c 0,3.324 -2.676,6 -6,6 L 12,75 C 8.676,75 6,72.324 6,69 z m 0,3 0,1 c 0,3.324 2.676,6 6,6 l 72,0 c 3.324,0 6,-2.676 6,-6 l 0,-1 c 0,3.324 -2.676,6 -6,6 L 12,78 C 8.676,78 6,75.324 6,72 z m 0,3 0,1 c 0,3.324 2.676,6 6,6 l 72,0 c 3.324,0 6,-2.676 6,-6 l 0,-1 c 0,3.324 -2.676,6 -6,6 L 12,81 C 8.676,81 6,78.324 6,75 z m 0,3 0,1 c 0,3.324 2.676,6 6,6 l 72,0 c 3.324,0 6,-2.676 6,-6 l 0,-1 c 0,3.324 -2.676,6 -6,6 L 12,84 C 8.676,84 6,81.324 6,78 z m 0,3 0,1 c 0,3.324 2.676,6 6,6 l 72,0 c 3.324,0 6,-2.676 6,-6 l 0,-1 c 0,3.324 -2.676,6 -6,6 L 12,87 C 8.676,87 6,84.324 6,81 z" fill="#46522d" fill-opacity="1" fill-rule="nonzero" stroke="none" opacity="0.3" inkscape:connector-curvature="0"/>
   <path d="m 62,52 c -4.418278,0 -8,3.134007 -8,7 l 0,2 c 0,0.168225 0.01791,0.334745 0.03125,0.5 C 54.017912,61.665255 54,61.831775 54,62 l 0,2 c 0,0.168225 0.01791,0.334745 0.03125,0.5 C 54.017912,64.665255 54,64.831775 54,65 l 0,2 c 0,0.168225 0.01791,0.334745 0.03125,0.5 C 54.017912,67.665255 54,67.831775 54,68 l 0,2 c 0,0.168225 0.01791,0.334745 0.03125,0.5 C 54.017912,70.665255 54,70.831775 54,71 l 0,2 c 0,0.168225 0.01791,0.334745 0.03125,0.5 C 54.017912,73.665255 54,73.831775 54,74 l 0,2 c 0,0.168225 0.01791,0.334745 0.03125,0.5 C 54.017912,76.665255 54,76.831775 54,77 l 0,2 c 0,0.168225 0.01791,0.334745 0.03125,0.5 C 54.017912,79.665255 54,79.831775 54,80 l 0,2 c 0,0.168225 0.01791,0.334745 0.03125,0.5 C 54.017912,82.665255 54,82.831775 54,83 l 0,2 c 0,0.168225 0.01791,0.334745 0.03125,0.5 C 54.017912,85.665255 54,85.831775 54,86 l 0,2 c 0,3.865993 3.581722,7 8,7 4.418278,0 8,-3.134007 8,-7 l 0,-2 c 0,-0.168225 -0.01791,-0.334745 -0.03125,-0.5 0.0025,-0.03087 -0.002,-0.06278 0,-0.09375 -0.0039,-0.04105 0.0047,-0.08415 0,-0.125 C 69.973027,85.187255 70,85.094913 70,85 l 0,1 c 0,3.865993 3.581722,7 8,7 4.418278,0 8,-3.134007 8,-7 l 0,-2 c 0,-0.168225 -0.01791,-0.334745 -0.03125,-0.5 0.0025,-0.03087 -0.002,-0.06278 0,-0.09375 -0.0039,-0.04105 0.0047,-0.08415 0,-0.125 C 85.973027,83.187255 86,83.094913 86,83 l 0,-2 c 0,-0.168225 -0.01791,-0.334745 -0.03125,-0.5 0.0025,-0.03087 -0.002,-0.06278 0,-0.09375 -0.0039,-0.04105 0.0047,-0.08415 0,-0.125 C 85.973027,80.187255 86,80.094913 86,80 l 0,-2 c 0,-0.168225 -0.01791,-0.334745 -0.03125,-0.5 0.0025,-0.03087 -0.002,-0.06278 0,-0.09375 -0.0039,-0.04105 0.0047,-0.08415 0,-0.125 C 85.973027,77.187255 86,77.094913 86,77 l 0,-2 c 0,-0.168225 -0.01791,-0.334745 -0.03125,-0.5 0.0025,-0.03087 -0.002,-0.06278 0,-0.09375 -0.0039,-0.04105 0.0047,-0.08415 0,-0.125 C 85.973027,74.187255 86,74.094913 86,74 l 0,-2 c 0,-3.865993 -3.581722,-7 -8,-7 -4.142136,0 -7.55907,2.751458 -7.96875,6.28125 C 70.003938,71.51657 70,71.758375 70,72 l 0,-1 c 0,-0.168225 -0.01791,-0.334745 -0.03125,-0.5 0.0025,-0.03087 -0.002,-0.06278 0,-0.09375 -0.0039,-0.04105 0.0047,-0.08415 0,-0.125 C 69.973027,70.187255 70,70.094913 70,70 l 0,-2 c 0,-0.168225 -0.01791,-0.334745 -0.03125,-0.5 0.0025,-0.03087 -0.002,-0.06278 0,-0.09375 -0.0039,-0.04105 0.0047,-0.08415 0,-0.125 C 69.973027,67.187255 70,67.094913 70,67 l 0,-2 c 0,-0.168225 -0.01791,-0.334745 -0.03125,-0.5 0.0025,-0.03087 -0.002,-0.06278 0,-0.09375 -0.0039,-0.04105 0.0047,-0.08415 0,-0.125 C 69.973027,64.187255 70,64.094913 70,64 l 0,-2 c 0,-0.168225 -0.01791,-0.334745 -0.03125,-0.5 0.0025,-0.03086 -0.002,-0.06278 0,-0.09375 -0.0039,-0.04105 0.0047,-0.08415 0,-0.125 C 69.973027,61.187255 70,61.094913 70,61 l 0,-2 c 0,-3.865993 -3.581722,-7 -8,-7 z M 44,71 c -4.418278,0 -8,3.134007 -8,7 l 0,2 c 0,0.168225 0.01791,0.334745 0.03125,0.5 C 36.017912,80.665255 36,80.831775 36,81 l 0,2 c 0,0.168225 0.01791,0.334745 0.03125,0.5 C 36.017912,83.665255 36,83.831775 36,84 l 0,2 c 0,3.865993 3.581722,7 8,7 4.418278,0 8,-3.134007 8,-7 l 0,-2 c 0,-0.168225 -0.01791,-0.334745 -0.03125,-0.5 0.0025,-0.03087 -0.002,-0.06278 0,-0.09375 -0.0039,-0.04105 0.0047,-0.08415 0,-0.125 C 51.973027,83.187255 52,83.094913 52,83 l 0,-2 c 0,-0.168225 -0.01791,-0.334745 -0.03125,-0.5 0.0025,-0.03087 -0.002,-0.06278 0,-0.09375 -0.0039,-0.04105 0.0047,-0.08415 0,-0.125 C 51.973027,80.187255 52,80.094913 52,80 l 0,-2 c 0,-3.865993 -3.581722,-7 -8,-7 z m 26,2 0,1 c 0,0.168225 0.01791,0.334745 0.03125,0.5 C 70.017912,74.665255 70,74.831775 70,75 l 0,-1 c 0,-0.168225 -0.01791,-0.334745 -0.03125,-0.5 0.0025,-0.03087 -0.002,-0.06278 0,-0.09375 -0.0039,-0.04105 0.0047,-0.08415 0,-0.125 C 69.973027,73.187255 70,73.094913 70,73 z m 0,3 0,1 c 0,0.168225 0.01791,0.334745 0.03125,0.5 C 70.017912,77.665255 70,77.831775 70,78 l 0,-1 c 0,-0.168225 -0.01791,-0.334745 -0.03125,-0.5 0.0025,-0.03087 -0.002,-0.06278 0,-0.09375 -0.0039,-0.04105 0.0047,-0.08415 0,-0.125 C 69.973027,76.187255 70,76.094913 70,76 z m 0,3 0,1 c 0,0.168225 0.01791,0.334745 0.03125,0.5 C 70.017912,80.665255 70,80.831775 70,81 l 0,-1 c 0,-0.168225 -0.01791,-0.334745 -0.03125,-0.5 0.0025,-0.03087 -0.002,-0.06278 0,-0.09375 -0.0039,-0.04105 0.0047,-0.08415 0,-0.125 C 69.973027,79.187255 70,79.094913 70,79 z m 0,3 0,1 c 0,0.168225 0.01791,0.334745 0.03125,0.5 C 70.017912,83.665255 70,83.831775 70,84 l 0,-1 c 0,-0.168225 -0.01791,-0.334745 -0.03125,-0.5 0.0025,-0.03087 -0.002,-0.06278 0,-0.09375 -0.0039,-0.04105 0.0047,-0.08415 0,-0.125 C 69.973027,82.187255 70,82.094913 70,82 z" stroke-width="0.873" display="inline" fill="#000000" color="#000000" fill-opacity="1" fill-rule="nonzero" stroke="none" opacity="0.3" visibility="visible" inkscape:connector-curvature="0"/>
   <g transform="matrix(1 0 0 1 14 12)">
    <use xlink:href="#SVGCleanerId_10" inkscape:connector-curvature="0"/>
    <use xlink:href="#SVGCleanerId_11" inkscape:connector-curvature="0" transform="matrix(1 0 0 0.875 0 8)"/>
    <use xlink:href="#SVGCleanerId_12" inkscape:connector-curvature="0"/>
    <use xlink:href="#SVGCleanerId_13" inkscape:connector-curvature="0"/>
   </g>
   <g transform="matrix(1 0 0 1 14 9)">
    <use xlink:href="#SVGCleanerId_10" inkscape:connector-curvature="0"/>
    <use xlink:href="#SVGCleanerId_11" inkscape:connector-curvature="0" transform="matrix(1 0 0 0.875 0 8)"/>
    <use xlink:href="#SVGCleanerId_12" inkscape:connector-curvature="0"/>
    <use xlink:href="#SVGCleanerId_13" inkscape:connector-curvature="0"/>
   </g>
   <g transform="matrix(1 0 0 1 14 6)">
    <use xlink:href="#SVGCleanerId_10" inkscape:connector-curvature="0"/>
    <use xlink:href="#SVGCleanerId_11" inkscape:connector-curvature="0" transform="matrix(1 0 0 0.875 0 8)"/>
    <use xlink:href="#SVGCleanerId_12" inkscape:connector-curvature="0"/>
    <use xlink:href="#SVGCleanerId_13" inkscape:connector-curvature="0"/>
   </g>
   <g transform="matrix(1 0 0 1 14 3)">
    <use xlink:href="#SVGCleanerId_10" inkscape:connector-curvature="0"/>
    <use xlink:href="#SVGCleanerId_11" inkscape:connector-curvature="0" transform="matrix(1 0 0 0.875 0 8)"/>
    <use xlink:href="#SVGCleanerId_12" inkscape:connector-curvature="0"/>
    <use xlink:href="#SVGCleanerId_13" inkscape:connector-curvature="0"/>
   </g>
   <g transform="matrix(1 0 0 1 14 0)">
    <use xlink:href="#SVGCleanerId_10" inkscape:connector-curvature="0"/>
    <use xlink:href="#SVGCleanerId_11" inkscape:connector-curvature="0" transform="matrix(1 0 0 0.875 0 8)"/>
    <use xlink:href="#SVGCleanerId_12" inkscape:connector-curvature="0"/>
    <use xlink:href="#SVGCleanerId_13" inkscape:connector-curvature="0"/>
   </g>
   <g transform="matrix(1 0 0 1 -2 14)">
    <use xlink:href="#SVGCleanerId_10" inkscape:connector-curvature="0"/>
    <use xlink:href="#SVGCleanerId_11" inkscape:connector-curvature="0" transform="matrix(1 0 0 0.875 0 8)"/>
    <use xlink:href="#SVGCleanerId_12" inkscape:connector-curvature="0"/>
    <use xlink:href="#SVGCleanerId_13" inkscape:connector-curvature="0"/>
   </g>
   <g transform="matrix(1 0 0 1 -2 11)">
    <use xlink:href="#SVGCleanerId_10" inkscape:connector-curvature="0"/>
    <use xlink:href="#SVGCleanerId_11" inkscape:connector-curvature="0" transform="matrix(1 0 0 0.875 0 8)"/>
    <use xlink:href="#SVGCleanerId_12" inkscape:connector-curvature="0"/>
    <use xlink:href="#SVGCleanerId_13" inkscape:connector-curvature="0"/>
   </g>
   <g transform="matrix(1 0 0 1 -2 8)">
    <use xlink:href="#SVGCleanerId_10" inkscape:connector-curvature="0"/>
    <use xlink:href="#SVGCleanerId_11" inkscape:connector-curvature="0" transform="matrix(1 0 0 0.875 0 8)"/>
    <use xlink:href="#SVGCleanerId_12" inkscape:connector-curvature="0"/>
    <use xlink:href="#SVGCleanerId_13" inkscape:connector-curvature="0"/>
   </g>
   <g transform="matrix(1 0 0 1 -2 5)">
    <use xlink:href="#SVGCleanerId_10" inkscape:connector-curvature="0"/>
    <use xlink:href="#SVGCleanerId_11" inkscape:connector-curvature="0" transform="matrix(1 0 0 0.875 0 8)"/>
    <use xlink:href="#SVGCleanerId_12" inkscape:connector-curvature="0"/>
    <use xlink:href="#SVGCleanerId_13" inkscape:connector-curvature="0"/>
   </g>
   <g transform="matrix(1 0 0 1 -2 2)">
    <use xlink:href="#SVGCleanerId_10" inkscape:connector-curvature="0"/>
    <use xlink:href="#SVGCleanerId_11" inkscape:connector-curvature="0" transform="matrix(1 0 0 0.875 0 8)"/>
    <use xlink:href="#SVGCleanerId_12" inkscape:connector-curvature="0"/>
    <use xlink:href="#SVGCleanerId_13" inkscape:connector-curvature="0"/>
   </g>
   <g transform="matrix(1 0 0 1 -2 -1)">
    <use xlink:href="#SVGCleanerId_10" inkscape:connector-curvature="0"/>
    <use xlink:href="#SVGCleanerId_11" inkscape:connector-curvature="0" transform="matrix(1 0 0 0.875 0 8)"/>
    <use xlink:href="#SVGCleanerId_12" inkscape:connector-curvature="0"/>
    <use xlink:href="#SVGCleanerId_13" inkscape:connector-curvature="0"/>
   </g>
   <g transform="matrix(1 0 0 1 -2 -4)">
    <use xlink:href="#SVGCleanerId_10" inkscape:connector-curvature="0"/>
    <use xlink:href="#SVGCleanerId_11" inkscape:connector-curvature="0" transform="matrix(1 0 0 0.875 0 8)"/>
    <use xlink:href="#SVGCleanerId_12" inkscape:connector-curvature="0"/>
    <use xlink:href="#SVGCleanerId_13" inkscape:connector-curvature="0"/>
   </g>
   <g transform="matrix(1 0 0 1 -2 -7)">
    <use xlink:href="#SVGCleanerId_10" inkscape:connector-curvature="0"/>
    <use xlink:href="#SVGCleanerId_11" inkscape:connector-curvature="0" transform="matrix(1 0 0 0.875 0 8)"/>
    <use xlink:href="#SVGCleanerId_12" inkscape:connector-curvature="0"/>
    <use xlink:href="#SVGCleanerId_13" inkscape:connector-curvature="0"/>
   </g>
   <g transform="matrix(1 0 0 1 -2 -10)">
    <use xlink:href="#SVGCleanerId_10" inkscape:connector-curvature="0"/>
    <use xlink:href="#SVGCleanerId_11" inkscape:connector-curvature="0" transform="matrix(1 0 0 0.875 0 8)"/>
    <use xlink:href="#SVGCleanerId_12" inkscape:connector-curvature="0"/>
    <use xlink:href="#SVGCleanerId_13" inkscape:connector-curvature="0"/>
   </g>
   <g transform="matrix(1 0 0 1 -2 -13)">
    <use xlink:href="#SVGCleanerId_10" inkscape:connector-curvature="0"/>
    <use xlink:href="#SVGCleanerId_11" inkscape:connector-curvature="0" transform="matrix(1 0 0 0.875 0 8)"/>
    <use xlink:href="#SVGCleanerId_12" inkscape:connector-curvature="0"/>
    <use xlink:href="#SVGCleanerId_13" inkscape:connector-curvature="0"/>
   </g>
   <g transform="matrix(1 0 0 1 -20 12)">
    <use xlink:href="#SVGCleanerId_10" inkscape:connector-curvature="0"/>
    <use xlink:href="#SVGCleanerId_11" inkscape:connector-curvature="0" transform="matrix(1 0 0 0.875 0 8)"/>
    <use xlink:href="#SVGCleanerId_12" inkscape:connector-curvature="0"/>
    <use xlink:href="#SVGCleanerId_13" inkscape:connector-curvature="0"/>
   </g>
   <g transform="matrix(1 0 0 1 -20 9)">
    <use xlink:href="#SVGCleanerId_10" inkscape:connector-curvature="0"/>
    <use xlink:href="#SVGCleanerId_11" inkscape:connector-curvature="0" transform="matrix(1 0 0 0.875 0 8)"/>
    <use xlink:href="#SVGCleanerId_12" inkscape:connector-curvature="0"/>
    <use xlink:href="#SVGCleanerId_13" inkscape:connector-curvature="0"/>
   </g>
   <g transform="matrix(1 0 0 1 -20 6)">
    <use xlink:href="#SVGCleanerId_10" inkscape:connector-curvature="0"/>
    <use xlink:href="#SVGCleanerId_11" inkscape:connector-curvature="0" transform="matrix(1 0 0 0.875 0 8)"/>
    <use xlink:href="#SVGCleanerId_12" inkscape:connector-curvature="0"/>
    <use xlink:href="#SVGCleanerId_13" inkscape:connector-curvature="0"/>
   </g>
   <use xlink:href="#SVGCleanerId_8" inkscape:connector-curvature="0"/>
   <use xlink:href="#SVGCleanerId_9" inkscape:connector-curvature="0"/>
   <g transform="matrix(1 0 0 1 16 13)">
    <use xlink:href="#SVGCleanerId_8" inkscape:connector-curvature="0"/>
    <use xlink:href="#SVGCleanerId_9" inkscape:connector-curvature="0"/>
   </g>
   <g transform="matrix(1 0 0 1 -18 19)">
    <use xlink:href="#SVGCleanerId_8" inkscape:connector-curvature="0"/>
    <use xlink:href="#SVGCleanerId_9" inkscape:connector-curvature="0"/>
   </g>
  </g>
  <rect x="-96" rx="25" y="958.36" clip-path="url(#clipPath3009)" fill="#ffffff" fill-opacity="1" height="92" opacity="0.15" width="92" transform="matrix(1 0 0 1 98 0)"/>
 </g>
</svg>
