<svg height="96" width="96" xmlns="http://www.w3.org/2000/svg" xmlns:sodipodi="http://sodipodi.sourceforge.net/DTD/sodipodi-0.dtd" xmlns:inkscape="http://www.inkscape.org/namespaces/inkscape">
 <defs>
  <linearGradient x2="0" y1="962.62" y2="1046.1" gradientUnits="userSpaceOnUse" id="linearGradient11642" gradientTransform="matrix(1.15 0 0 1.15 -7.2 -150.65)">
   <stop stop-color="#6da014"/>
   <stop stop-color="#b4e844" offset="1"/>
  </linearGradient>
  <linearGradient x1="15" x2="127.28" gradientUnits="userSpaceOnUse" id="linearGradient3910">
   <stop/>
   <stop stop-opacity="0" offset="1"/>
  </linearGradient>
  <linearGradient x2="0" y1="61.37" y2="26.423" gradientUnits="userSpaceOnUse" id="linearGradient3912">
   <stop stop-color="#e6e6e6"/>
   <stop stop-color="#f5f5f5" offset="1"/>
  </linearGradient>
  <clipPath clipPathUnits="userSpaceOnUse" id="clipPath3009">
   <path d="m-2 956.36h-96v33.562l96 25.687v-59.25z"/>
  </clipPath>
 </defs>
 <g transform="matrix(1 0 0 1 0 -956.36)">
  <rect x="2" rx="25" y="958.36" fill="url(#linearGradient11642)" height="92" width="92"/>
  <g transform="matrix(1 0 0 1 0 956.36)">
   <path d="m48 17c-18.225 0-33 12.088-33 27 0 9.4984 5.9998 17.843 15.062 22.656-0.34462 2.5088-1.914 8.6498-9.3438 10.75 9.6229 1.0458 16.014-3.6463 19.406-7.1875 2.525 0.506 5.162 0.782 7.876 0.782 18.225 0 33-12.088 33-27s-14.775-27-33-27z" fill="url(#linearGradient3910)" opacity="0.2"/>
   <path d="m15 44.406c-0.0053 0.20007 0 0.39263 0 0.59375 0 9.4416 5.9343 17.737 14.906 22.562 0.06714-0.3293 0.12055-0.64637 0.15625-0.90625-8.933-4.744-14.894-12.919-15.062-22.25zm66 0.094c-0.33 14.678-14.982 26.5-33 26.5-2.7139 0-5.3515-0.27575-7.875-0.78125-3.1139 3.2502-8.7477 7.4495-17.094 7.3125-0.70061 0.3324-1.4669 0.63597-2.3125 0.875 9.6229 1.0458 16.014-3.6463 19.406-7.1875 2.525 0.505 5.162 0.781 7.876 0.781 18.225 0 33-12.088 33-27 0-0.16936 0.0038-0.33138 0-0.5z" fill="#fff" opacity="0.25"/>
   <path d="m48 17c-18.225 0-33 12.088-33 27 0 9.4984 5.9998 17.843 15.062 22.656-0.34462 2.5088-1.914 8.6498-9.3438 10.75 9.6229 1.0458 16.014-3.6463 19.406-7.1875 2.525 0.506 5.162 0.782 7.876 0.782 18.225 0 33-12.088 33-27s-14.775-27-33-27zm0 2.9375c16.92 0 30.062 11.1 30.062 24.062s-13.142 24.062-30.062 24.062c-2.514 0-4.9434-0.28169-7.2812-0.75a2.9518 2.9518 0 0 0 -2.719 0.876c-1.6209 1.6918-4.0041 3.5676-7.125 4.875 1.3415-2.3539 1.9347-4.6148 2.125-6a2.9518 2.9518 0 0 0 -1.5625 -3c-8.292-4.404-13.5-11.807-13.5-20.063 0-12.962 13.142-24.062 30.062-24.062z" opacity="0.05"/>
   <path d="m48 17c-18.225 0-33 12.088-33 27 0 9.4984 5.9998 17.843 15.062 22.656-0.34462 2.5088-1.914 8.6498-9.3438 10.75 9.6229 1.0458 16.014-3.6463 19.406-7.1875 2.525 0.506 5.162 0.782 7.876 0.782 18.225 0 33-12.088 33-27s-14.775-27-33-27zm0 1.875c17.393 0 31.125 11.456 31.125 25.125s-13.732 25.125-31.125 25.125c-2.5865 0-5.0949-0.26822-7.5-0.75a1.8822 1.8822 0 0 0 -1.7188 0.53125c-2.2298 2.3274-5.8621 5.105-10.906 6.2188 0.60301-0.63671 1.3199-1.2405 1.75-1.9062 1.5731-2.4349 2.1159-4.8817 2.3125-6.3125a1.8822 1.8822 0 0 0 -1 -1.906c-8.571-4.552-14.063-12.294-14.063-21 0-13.669 13.732-25.125 31.125-25.125z" opacity="0.08"/>
   <path d="m43.531 25.062c-1.1484 0.17562-1.6335 1.3034-1.7767 2.3358-0.584 2.368-1.169 4.735-1.754 7.102-2.3837 0.02098-4.781-0.04188-7.1562 0.03125-1.1828 0.21491-1.7399 1.4655-1.5625 2.5761 0.04144 1.6692-0.08311 3.3653 0.0625 5.0176 0.25102 1.1939 1.5585 1.6337 2.6565 1.4688h3.656c-0.23958 0.9375-0.47917 1.875-0.71875 2.8125-2.3298 0.0423-4.6871-0.08425-7 0.0625-1.1939 0.25102-1.6337 1.5585-1.4688 2.6565 0.04249 1.6527-0.08462 3.3328 0.0625 4.9685 0.25102 1.1939 1.5585 1.6337 2.6565 1.4688h3.5623c-0.58825 2.4704-1.3015 4.9283-1.8125 7.4062-0.06943 1.3018 1.2851 2.1807 2.4957 1.9688 1.843-0.05369 3.7077 0.11282 5.5355-0.09375 1.4724-0.52632 1.3666-2.2918 1.7895-3.5417 0.47641-1.9132 0.95281-3.8264 1.4292-5.7396h2.5c-0.58825 2.4704-1.3015 4.9283-1.8125 7.4062-0.06943 1.3018 1.2851 2.1807 2.4957 1.9688 1.822-0.05534 3.6663 0.11524 5.473-0.09375 1.4724-0.52632 1.3666-2.2918 1.7895-3.5417 0.47641-1.9132 0.95281-3.8264 1.4292-5.7396 2.3628-0.02146 4.7395 0.04254 7.0938-0.03125 1.1828-0.21491 1.7399-1.4655 1.5625-2.5761-0.04252-1.6899 0.08466-3.4073-0.0625-5.0801-0.25102-1.1939-1.5585-1.6337-2.6565-1.4688h-3.6873c0.23958-0.9375 0.47917-1.875 0.71875-2.8125 2.3404-0.04178 4.7078 0.08353 7.0312-0.0625 1.1939-0.25102 1.6337-1.5585 1.4688-2.6565-0.04138-1.632 0.08304-3.2909-0.0625-4.906-0.25102-1.1939-1.5585-1.6337-2.6565-1.4688h-3.531c0.59913-2.4912 1.3231-4.9696 1.8438-7.4688 0.06943-1.3018-1.2851-2.1807-2.4957-1.9688-1.822 0.05534-3.6663-0.11524-5.473 0.09375-1.4714 0.52657-1.3677 2.2916-1.7935 3.5407-0.48548 1.9344-0.97097 3.8687-1.4565 5.8031h-2.5c0.59913-2.4912 1.3231-4.9696 1.8438-7.4688 0.06943-1.3018-1.2851-2.1807-2.4957-1.9688h-5.223zm3.5625 18.531h2.4688c-0.23958 0.9375-0.47917 1.875-0.71875 2.8125h-2.4688c0.23958-0.9375 0.47917-1.875 0.71875-2.8125z" opacity="0.05"/>
   <path d="m43.75 26a1.0015 1.0015 0 0 0 -0.875 0.75l-2.1562 8.6875h-7.5a1.0015 1.0015 0 0 0 -1 1v5.2188a1.0015 1.0015 0 0 0 1 1h5.625l-1.1875 4.6875h-7.25a1.0015 1.0015 0 0 0 -1 1v5.2812a1.0015 1.0015 0 0 0 1 1h5.5312l-2.0312 8.125a1.0015 1.0015 0 0 0 0.969 1.25h5.4688a1.0015 1.0015 0 0 0 0.96875 -0.75l2.1562-8.625h4.4062l-2.0312 8.125a1.0015 1.0015 0 0 0 0.968 1.25h5.4062a1.0015 1.0015 0 0 0 0.96875 -0.75l2.1562-8.625h7.4375a1.0015 1.0015 0 0 0 1 -1v-5.2812a1.0015 1.0015 0 0 0 -1 -1h-5.6562l1.1875-4.6875h7.2812a1.0015 1.0015 0 0 0 1 -1v-5.2188a1.0015 1.0015 0 0 0 -1 -1h-5.5l2.0625-8.1875a1.0015 1.0015 0 0 0 -0.968 -1.25h-5.4062a1.0015 1.0015 0 0 0 -0.96875 0.75l-2.1875 8.6875h-4.4062l2.0625-8.1875a1.0015 1.0015 0 0 0 -0.97 -1.25h-5.4688a1.0015 1.0015 0 0 0 -0.093 0zm2.625 16.656h4.4062l-1.2188 4.6875h-4.4062l1.2188-4.6875z" opacity="0.12"/>
   <path d="m49.298 27-2.351 9.4286h6.4653l2.376-9.429h5.412l-2.3755 9.4286h6.7837v5.2163h-8.0816l-1.6898 6.7102h6.9551v5.2653h-8.2286l-2.351 9.38h-5.412l2.351-9.3796h-6.4653l-2.351 9.38h-5.4612l2.351-9.3796h-6.8327v-5.2653h8.0327l1.7143-6.7102h-6.9306v-5.2163h8.2776l2.351-9.429h5.4612m2.7673 14.645h-6.4653l-1.7143 6.7102h6.4653l1.7143-6.7102" opacity="0.3"/>
   <path d="m49.298 26-2.351 9.4286h6.4653l2.376-9.429h5.412l-2.3755 9.4286h6.7837v5.2163h-8.0816l-1.6898 6.7102h6.9551v5.2653h-8.2286l-2.351 9.38h-5.412l2.351-9.3796h-6.4653l-2.351 9.38h-5.4612l2.351-9.3796h-6.8327v-5.2653h8.0327l1.7143-6.7102h-6.9306v-5.2163h8.2776l2.351-9.429h5.4612m2.7673 14.645h-6.4653l-1.7143 6.7102h6.4653l1.7143-6.7102" fill="url(#linearGradient3912)"/>
   <path d="m43.844 26-2.344 9.438h-8.2812v1h8.2812l2.3438-9.4375h5.2188l0.25-1h-5.4688zm11.938 0-2.375 9.4375h-6.2188l-0.25 1h6.4688l2.375-9.4375h5.1562l0.25-1h-5.4062zm3.2812 9.4375-0.25 1h6.7812v-1h-6.5312zm-19.188 6.2188-1.4375 5.6875h-8.0312v1h8.0312l1.6875-6.6875h-0.25zm11.938 0-1.4688 5.6875h-6.2188l-0.25 1h6.4688l1.7188-6.6875h-0.25zm4.2812 5.6875-0.25 1h6.9375v-1h-6.6875zm-19.125 6.281-2.094 8.375h0.25l2.0938-8.375h-0.25zm11.938 0-2.0938 8.375h0.25l2.0938-8.375h-0.25z" fill="#fff"/>
  </g>
  <rect x="-96" rx="25" y="958.36" clip-path="url(#clipPath3009)" fill="#fff" height="92" opacity="0.15" width="92" transform="matrix(1 0 0 1 98 0)"/>
 </g>
</svg>
