<svg height="96" width="96" xmlns="http://www.w3.org/2000/svg" xmlns:xlink="http://www.w3.org/1999/xlink" xmlns:sodipodi="http://sodipodi.sourceforge.net/DTD/sodipodi-0.dtd" xmlns:inkscape="http://www.inkscape.org/namespaces/inkscape">
 <defs>
  <clipPath clipPathUnits="userSpaceOnUse" id="clipPath3009">
   <path d="m-2 956.36h-96v33.562l96 25.687v-59.25z"/>
  </clipPath>
  <linearGradient x2="0" y1="90" y2="5.988" gradientUnits="userSpaceOnUse" id="linearGradient3071">
   <stop stop-color="#aea003"/>
   <stop stop-color="#ffeb0e" offset="1"/>
  </linearGradient>
  <clipPath clipPathUnits="userSpaceOnUse" id="clipPath3020">
   <rect x="7.75" rx="21.875" y="7.75" height="80.5" width="80.5"/>
  </clipPath>
  <linearGradient x2="0" y1="20.221" y2="138.66" gradientUnits="userSpaceOnUse" id="linearGradient3613">
   <stop stop-color="#fff"/>
   <stop stop-color="#fff" stop-opacity="0" offset="1"/>
  </linearGradient>
  <clipPath id="clipPath3613">
   <use xlink:href="#SVGCleanerId_2"/>
  </clipPath>
  <filter x="-0.192" y="-0.192" height="1.384" color-interpolation-filters="sRGB" id="filter3794" width="1.384">
   <feGaussianBlur stdDeviation="5.28"/>
  </filter>
  <linearGradient x2="0" xlink:href="#linearGradient3613" y1="43.732" y2="64.737" gradientUnits="userSpaceOnUse" id="linearGradient3930" gradientTransform="matrix(1.004 0 0 0.99597 0 956.36)"/>
  <path d="m59.041 1003.7 24.705 33.036h-19.125l-16.645-22.111-16.502 22.111h-19.22l24.705-33.036-23.751-31.692h19.173l15.596 20.854 15.548-20.854h19.268l-23.751 31.692" id="SVGCleanerId_0"/>
  <path d="m42.312 996.17c-2.5489 0.00002-4.5757 0.73667-6.0312 2.1875-1.4484 1.4509-2.1563 3.4434-2.1562 6-0.000002 2.5495 0.70784 4.5491 2.1562 6 1.4555 1.4508 3.4823 2.1875 6.0312 2.1875 2.556 0 4.5516-0.7367 6-2.1875 1.4484-1.4509 2.1562-3.4505 2.1562-6-0.000017-2.5566-0.70786-4.5492-2.1562-6-1.4484-1.4508-3.444-2.1875-6-2.1875zm31 0c-2.5489 0.00002-4.5445 0.73667-6 2.1875-1.4484 1.4509-2.1875 3.4434-2.1875 6-0.000001 2.5495 0.73908 4.5491 2.1875 6 1.4555 1.4508 3.4511 2.1875 6 2.1875 2.556 0 4.5516-0.7367 6-2.1875 1.4484-1.4509 2.1875-3.4505 2.1875-6-0.000017-2.5566-0.7391-4.5492-2.1875-6s-3.444-2.1875-6-2.1875zm-58.812 0.28125v15.781h3.9062v-11.531l3.6562 8.5h2.5938l3.6562-8.5v11.531h3.875v-15.781h-5.1875l-3.6562 8.4375-3.625-8.4375h-5.2188zm35.969 0v3.0938h5.2812v12.688h4.125v-12.688h5.25v-3.0938h-14.656zm-8.1562 2.6562c1.2567 0.00001 2.2175 0.45943 2.9062 1.375 0.68869 0.9156 1.0312 2.2129 1.0312 3.875-0.000014 1.6551-0.34256 2.9594-1.0312 3.875-0.68872 0.9156-1.6495 1.375-2.9062 1.375-1.2496 0-2.2176-0.4594-2.9062-1.375-0.68871-0.9156-1.0313-2.2199-1.0312-3.875-0.000005-1.6621 0.34254-2.9594 1.0312-3.875 0.6887-0.91559 1.6566-1.375 2.9062-1.375zm31 0c1.2567 0.00001 2.2488 0.45943 2.9375 1.375 0.68869 0.9156 1.0312 2.2129 1.0312 3.875-0.000013 1.6551-0.34256 2.9594-1.0312 3.875-0.68872 0.9156-1.6808 1.375-2.9375 1.375-1.2496 0-2.2176-0.4594-2.9062-1.375-0.68871-0.9156-1.0313-2.2199-1.0312-3.875-0.000005-1.6621 0.34254-2.9594 1.0312-3.875 0.6887-0.91559 1.6566-1.375 2.9062-1.375z" id="SVGCleanerId_1"/>
  <rect x="6" rx="6" y="6" height="84" id="SVGCleanerId_2" width="84"/>
 </defs>
 <g transform="matrix(1 0 0 1 0 -956.36)">
  <g clip-path="url(#clipPath3020)" transform="matrix(1.1429 0 0 1.1429 -6.857 949.51)">
   <use xlink:href="#SVGCleanerId_2" fill="url(#linearGradient3071)"/>
  </g>
  <use stroke-width="2" xlink:href="#SVGCleanerId_0" stroke="#000" opacity="0.3"/>
  <use xlink:href="#SVGCleanerId_0"/>
  <g transform="matrix(1 0 0 1 0 956.36)">
   <path d="m59.041 47.328 24.705 33.036h-19.125l-16.645-22.111-16.502 22.111h-19.22l24.705-33.036-23.751-31.692h19.173l15.596 20.854 15.548-20.854h19.268l-23.751 31.692"/>
   <path d="m13.219 15.625 23.75 31.688l-24.719 33.062h4l24.719-33.062-23.75-31.688h-4zm50.312 0-13.562 18.188 2 2.6875 15.562-20.875h-4zm-11.562 42.625-2 2.6562 14.656 19.469h4l-16.656-22.125z" fill="#fff" opacity="0.15"/>
   <path d="m13.219 15.625 23.75 31.688l-24.719 33.062h2l24.719-33.062-23.75-31.688h-2zm50.312 0-14.562 19.531 1 1.3438 15.562-20.875h-2zm-13.562 42.625-1 1.3438 15.656 20.781h2l-16.656-22.125z" fill="#fff" opacity="0.4"/>
  </g>
  <use stroke-width="2" xlink:href="#SVGCleanerId_1" stroke="#000"/>
  <use xlink:href="#SVGCleanerId_1" fill="url(#linearGradient3930)"/>
  <rect x="15" stroke-width="0.5" rx="12" y="15" clip-path="url(#clipPath3613)" fill="url(#linearGradient3613)" stroke="#fff" height="66" filter="url(#filter3794)" opacity="0.1" width="66" stroke-linecap="round" transform="matrix(1 0 0 1 0 956.36)"/>
  <rect x="-96" rx="25" y="958.36" clip-path="url(#clipPath3009)" fill="#fff" height="92" opacity="0.15" width="92" transform="matrix(1 0 0 1 98 0)"/>
 </g>
</svg>
