<?xml version="1.0" encoding="UTF-8" standalone="no"?>
<!-- Created with Inkscape (http://www.inkscape.org/) -->

<svg
   xmlns:dc="http://purl.org/dc/elements/1.1/"
   xmlns:cc="http://creativecommons.org/ns#"
   xmlns:rdf="http://www.w3.org/1999/02/22-rdf-syntax-ns#"
   xmlns:svg="http://www.w3.org/2000/svg"
   xmlns="http://www.w3.org/2000/svg"
   xmlns:sodipodi="http://sodipodi.sourceforge.net/DTD/sodipodi-0.dtd"
   xmlns:inkscape="http://www.inkscape.org/namespaces/inkscape"
   id="svg11037"
   height="96"
   width="96"
   version="1.1"
   inkscape:version="0.48.5 r10040"
   sodipodi:docname="xmoto.svg">
  <sodipodi:namedview
     pagecolor="#ffffff"
     bordercolor="#666666"
     borderopacity="1"
     objecttolerance="10"
     gridtolerance="10"
     guidetolerance="10"
     inkscape:pageopacity="0"
     inkscape:pageshadow="2"
     inkscape:window-width="640"
     inkscape:window-height="480"
     id="namedview76177" />
  <defs
     id="defs11039">
    <clipPath
       id="clipPath3009"
       clipPathUnits="userSpaceOnUse">
      <path
         id="path3011"
         style="opacity:.15;fill:#fff"
         d="m-2 956.36h-96v33.562l96 25.687v-59.25z" />
    </clipPath>
    <linearGradient
       id="linearGradient3071"
       y2="5.9877"
       gradientUnits="userSpaceOnUse"
       y1="90"
       x2="48"
       x1="48">
      <stop
         id="stop3828"
         style="stop-color:#aea003"
         offset="0" />
      <stop
         id="stop3830"
         style="stop-color:#ffeb0e"
         offset="1" />
    </linearGradient>
    <clipPath
       id="clipPath3020"
       clipPathUnits="userSpaceOnUse">
      <rect
         id="rect3022"
         style="opacity:.6"
         rx="21.875"
         ry="21.875"
         height="80.5"
         width="80.5"
         y="7.75"
         x="7.75" />
    </clipPath>
    <linearGradient
       id="linearGradient3613"
       y2="138.66"
       gradientUnits="userSpaceOnUse"
       x2="48"
       y1="20.221"
       x1="48">
      <stop
         id="stop3739"
         style="stop-color:#fff"
         offset="0" />
      <stop
         id="stop3741"
         style="stop-color:#fff;stop-opacity:0"
         offset="1" />
    </linearGradient>
    <clipPath
       id="clipPath3613">
      <rect
         id="rect3615"
         style="fill:#fff"
         rx="6"
         ry="6"
         height="84"
         width="84"
         y="6"
         x="6" />
    </clipPath>
    <filter
       id="filter3794"
       height="1.384"
       width="1.384"
       color-interpolation-filters="sRGB"
       y="-.192"
       x="-.192">
      <feGaussianBlur
         id="feGaussianBlur3796"
         stdDeviation="5.28" />
    </filter>
    <linearGradient
       id="linearGradient3930"
       y2="64.737"
       gradientUnits="userSpaceOnUse"
       x2="25.202"
       gradientTransform="matrix(1.004 0 0 .99597 0 956.36)"
       y1="43.732"
       x1="25.202">
      <stop
         id="stop3898"
         style="stop-color:#fff"
         offset="0" />
      <stop
         id="stop3900"
         style="stop-color:#fff;stop-opacity:0"
         offset="1" />
    </linearGradient>
  </defs>
  <metadata
     id="metadata11042">
    <rdf:RDF>
      <cc:Work
         rdf:about="">
        <dc:format>image/svg+xml</dc:format>
        <dc:type
           rdf:resource="http://purl.org/dc/dcmitype/StillImage" />
        <dc:title />
      </cc:Work>
    </rdf:RDF>
  </metadata>
  <g
     id="layer1"
     transform="translate(0 -956.36)">
    <g
       id="layer1-9"
       clip-path="url(#clipPath3020)"
       transform="matrix(1.1429 0 0 1.1429 -6.8571 949.51)">
      <rect
         id="rect2419"
         style="fill:url(#linearGradient3071)"
         rx="6"
         ry="6"
         height="84"
         width="84"
         y="6"
         x="6" />
    </g>
    <path
       id="path3942"
       style="opacity:.3;stroke:#000;stroke-width:2"
       d="m59.041 1003.7 24.705 33.036h-19.125l-16.645-22.111-16.502 22.111h-19.22l24.705-33.036-23.751-31.692h19.173l15.596 20.854 15.548-20.854h19.268l-23.751 31.692" />
    <path
       id="path3040"
       d="m59.041 1003.7 24.705 33.036h-19.125l-16.645-22.111-16.502 22.111h-19.22l24.705-33.036-23.751-31.692h19.173l15.596 20.854 15.548-20.854h19.268l-23.751 31.692" />
    <g
       id="g3950"
       transform="translate(0 956.36)">
      <path
         id="path3828"
         d="m59.041 47.328 24.705 33.036h-19.125l-16.645-22.111-16.502 22.111h-19.22l24.705-33.036-23.751-31.692h19.173l15.596 20.854 15.548-20.854h19.268l-23.751 31.692" />
      <path
         id="path3863"
         d="m13.219 15.625 23.75 31.688l-24.719 33.062h4l24.719-33.062-23.75-31.688h-4zm50.312 0-13.562 18.188 2 2.6875 15.562-20.875h-4zm-11.562 42.625-2 2.6562 14.656 19.469h4l-16.656-22.125z"
         style="opacity:.15;fill:#fff" />
      <path
         id="path3830"
         d="m13.219 15.625 23.75 31.688l-24.719 33.062h2l24.719-33.062-23.75-31.688h-2zm50.312 0-14.562 19.531 1 1.3438 15.562-20.875h-2zm-13.562 42.625-1 1.3438 15.656 20.781h2l-16.656-22.125z"
         style="opacity:.4;fill:#fff" />
    </g>
    <path
       id="path3888"
       style="stroke:#000;stroke-width:2"
       d="m42.312 996.17c-2.5489 0.00002-4.5757 0.73667-6.0312 2.1875-1.4484 1.4509-2.1563 3.4434-2.1562 6-0.000002 2.5495 0.70784 4.5491 2.1562 6 1.4555 1.4508 3.4823 2.1875 6.0312 2.1875 2.556 0 4.5516-0.7367 6-2.1875 1.4484-1.4509 2.1562-3.4505 2.1562-6-0.000017-2.5566-0.70786-4.5492-2.1562-6-1.4484-1.4508-3.444-2.1875-6-2.1875zm31 0c-2.5489 0.00002-4.5445 0.73667-6 2.1875-1.4484 1.4509-2.1875 3.4434-2.1875 6-0.000001 2.5495 0.73908 4.5491 2.1875 6 1.4555 1.4508 3.4511 2.1875 6 2.1875 2.556 0 4.5516-0.7367 6-2.1875 1.4484-1.4509 2.1875-3.4505 2.1875-6-0.000017-2.5566-0.7391-4.5492-2.1875-6s-3.444-2.1875-6-2.1875zm-58.812 0.28125v15.781h3.9062v-11.531l3.6562 8.5h2.5938l3.6562-8.5v11.531h3.875v-15.781h-5.1875l-3.6562 8.4375-3.625-8.4375h-5.2188zm35.969 0v3.0938h5.2812v12.688h4.125v-12.688h5.25v-3.0938h-14.656zm-8.1562 2.6562c1.2567 0.00001 2.2175 0.45943 2.9062 1.375 0.68869 0.9156 1.0312 2.2129 1.0312 3.875-0.000014 1.6551-0.34256 2.9594-1.0312 3.875-0.68872 0.9156-1.6495 1.375-2.9062 1.375-1.2496 0-2.2176-0.4594-2.9062-1.375-0.68871-0.9156-1.0313-2.2199-1.0312-3.875-0.000005-1.6621 0.34254-2.9594 1.0312-3.875 0.6887-0.91559 1.6566-1.375 2.9062-1.375zm31 0c1.2567 0.00001 2.2488 0.45943 2.9375 1.375 0.68869 0.9156 1.0312 2.2129 1.0312 3.875-0.000013 1.6551-0.34256 2.9594-1.0312 3.875-0.68872 0.9156-1.6808 1.375-2.9375 1.375-1.2496 0-2.2176-0.4594-2.9062-1.375-0.68871-0.9156-1.0313-2.2199-1.0312-3.875-0.000005-1.6621 0.34254-2.9594 1.0312-3.875 0.6887-0.91559 1.6566-1.375 2.9062-1.375z" />
    <path
       id="path3879"
       style="fill:url(#linearGradient3930)"
       d="m42.312 996.17c-2.5489 0.00002-4.5757 0.73667-6.0312 2.1875-1.4484 1.4509-2.1563 3.4434-2.1562 6-0.000002 2.5495 0.70784 4.5491 2.1562 6 1.4555 1.4508 3.4823 2.1875 6.0312 2.1875 2.556 0 4.5516-0.7367 6-2.1875 1.4484-1.4509 2.1562-3.4505 2.1562-6-0.000017-2.5566-0.70786-4.5492-2.1562-6-1.4484-1.4508-3.444-2.1875-6-2.1875zm31 0c-2.5489 0.00002-4.5445 0.73667-6 2.1875-1.4484 1.4509-2.1875 3.4434-2.1875 6-0.000001 2.5495 0.73908 4.5491 2.1875 6 1.4555 1.4508 3.4511 2.1875 6 2.1875 2.556 0 4.5516-0.7367 6-2.1875 1.4484-1.4509 2.1875-3.4505 2.1875-6-0.000017-2.5566-0.7391-4.5492-2.1875-6s-3.444-2.1875-6-2.1875zm-58.812 0.28125v15.781h3.9062v-11.531l3.6562 8.5h2.5938l3.6562-8.5v11.531h3.875v-15.781h-5.1875l-3.6562 8.4375-3.625-8.4375h-5.2188zm35.969 0v3.0938h5.2812v12.688h4.125v-12.688h5.25v-3.0938h-14.656zm-8.1562 2.6562c1.2567 0.00001 2.2175 0.45943 2.9062 1.375 0.68869 0.9156 1.0312 2.2129 1.0312 3.875-0.000014 1.6551-0.34256 2.9594-1.0312 3.875-0.68872 0.9156-1.6495 1.375-2.9062 1.375-1.2496 0-2.2176-0.4594-2.9062-1.375-0.68871-0.9156-1.0313-2.2199-1.0312-3.875-0.000005-1.6621 0.34254-2.9594 1.0312-3.875 0.6887-0.91559 1.6566-1.375 2.9062-1.375zm31 0c1.2567 0.00001 2.2488 0.45943 2.9375 1.375 0.68869 0.9156 1.0312 2.2129 1.0312 3.875-0.000013 1.6551-0.34256 2.9594-1.0312 3.875-0.68872 0.9156-1.6808 1.375-2.9375 1.375-1.2496 0-2.2176-0.4594-2.9062-1.375-0.68871-0.9156-1.0313-2.2199-1.0312-3.875-0.000005-1.6621 0.34254-2.9594 1.0312-3.875 0.6887-0.91559 1.6566-1.375 2.9062-1.375z" />
    <g
       id="layer5"
       transform="translate(0 956.36)">
      <rect
         id="rect3171"
         style="opacity:.1;filter:url(#filter3794);stroke:#fff;stroke-linecap:round;stroke-width:.5;fill:url(#linearGradient3613)"
         clip-path="url(#clipPath3613)"
         rx="12"
         ry="12"
         height="66"
         width="66"
         y="15"
         x="15" />
    </g>
    <rect
       id="rect3003"
       style="opacity:.15;fill:#fff"
       transform="translate(98)"
       clip-path="url(#clipPath3009)"
       rx="25"
       ry="25"
       height="92"
       width="92"
       y="958.36"
       x="-96" />
  </g>
</svg>
