<svg height="96" width="96" xmlns="http://www.w3.org/2000/svg" xmlns:sodipodi="http://sodipodi.sourceforge.net/DTD/sodipodi-0.dtd" xmlns:inkscape="http://www.inkscape.org/namespaces/inkscape">
 <defs>
  <linearGradient x2="0" y1="965.46" y2="1043.21" gradientUnits="userSpaceOnUse" id="linearGradient4382" inkscape:collect="always">
   <stop stop-color="#4d4d4d" stop-opacity="1"/>
   <stop stop-color="#272727" stop-opacity="1" offset="1"/>
  </linearGradient>
 </defs>
 <g inkscape:label="Layer 1" inkscape:groupmode="layer" transform="matrix(1 0 0 1 0 -956.36)">
  <rect x="8.751" rx="10.769" y="964.14" fill="url(#linearGradient4382)" fill-opacity="1" stroke="none" height="80" width="80"/>
  <path d="m 8.75125,1031.3354 0,2.0133 c 0,5.966 4.793063,10.7905 10.758946,10.7905 l 58.450649,0 c 5.965883,0 10.790405,-4.8245 10.790405,-10.7905 l 0,-2.0133 c 0,5.9659 -4.824522,10.7904 -10.790405,10.7904 l -58.450649,0 c -5.965883,0 -10.758946,-4.8245 -10.758946,-10.7904 z" fill="#000000" fill-opacity="1" stroke="none" opacity="0.3" inkscape:connector-curvature="0"/>
  <path d="m 54.286761,975.54405 a 1.2858011,1.2858011 0 0 0 -1.160754,1.22019 v 0.1488 l -2.61903,41.81496 -3.303598,-23.51222 a 1.2858011,1.2858011 0 0 0 -2.559507,-0.0595 l -2.470269,13.42272 -1.547609,-4.7023 a 1.2858011,1.2858011 0 0 0 -2.499984,0.2084 l -2.380937,16.1008 -4.821397,-32.49976 a 1.2858011,1.2858011 0 0 0 -2.529697,-0.0297 l -3.214265,18.69026 H 8.7512504 v 2.5893 H 26.251135 a 1.2858011,1.2858011 0 0 0 1.279802,-1.0714 l 2.023796,-11.87508 4.911396,33.11408 a 1.2858011,1.2858011 0 0 0 2.529698,0 l 2.886838,-19.2857 1.428562,4.3452 a 1.2858011,1.2858011 0 0 0 2.47027,-0.1488 l 1.964273,-10.6551 3.988069,28.2743 a 1.2858011,1.2858011 0 0 0 2.559507,-0.1191 v -0.2381 l 2.113129,-33.92838 0.505949,7.85708 a 1.2858011,1.2858011 0 0 0 2.529698,0.2082 l 2.321413,-10.17795 2.589316,18.48165 a 1.2858011,1.2858011 0 0 0 2.529698,0.089 l 1.666656,-7.4702 0.17857,1.4584 a 1.2858011,1.2858011 0 0 0 1.279801,1.1309 H 88.75125 v -2.5893 H 69.138045 l -0.982089,-7.61898 a 1.2858011,1.2858011 0 0 0 -2.529697,-0.089 l -1.72618,7.70818 -2.559507,-18.3626 a 1.2858011,1.2858011 0 0 0 -2.529697,-0.11905 l -1.90475,8.33327 -1.220182,-19.28558 v -0.14881 a 1.2858011,1.2858011 0 0 0 -1.398848,-1.22018 z" fill="#ffc700" color="#000000" fill-opacity="1" inkscape:connector-curvature="0"/>
 </g>
</svg>
