<svg height="96" width="96" xmlns="http://www.w3.org/2000/svg" xmlns:sodipodi="http://sodipodi.sourceforge.net/DTD/sodipodi-0.dtd" xmlns:inkscape="http://www.inkscape.org/namespaces/inkscape">
 <defs>
  <linearGradient x2="0" y1="965.46" y2="1043.21" gradientUnits="userSpaceOnUse" id="linearGradient4382" inkscape:collect="always">
   <stop stop-color="#4d4d4d" stop-opacity="1"/>
   <stop stop-color="#272727" stop-opacity="1" offset="1"/>
  </linearGradient>
 </defs>
 <g inkscape:label="Layer 1" inkscape:groupmode="layer" transform="matrix(1 0 0 1 0 -956.36)">
  <rect x="8.751" rx="10.769" y="964.14" fill="url(#linearGradient4382)" fill-opacity="1" stroke="none" height="80" width="80"/>
  <path d="m 8.75125,1031.3354 0,2.0133 c 0,5.966 4.793063,10.7905 10.758946,10.7905 l 58.450649,0 c 5.965883,0 10.790405,-4.8245 10.790405,-10.7905 l 0,-2.0133 c 0,5.9659 -4.824522,10.7904 -10.790405,10.7904 l -58.450649,0 c -5.965883,0 -10.758946,-4.8245 -10.758946,-10.7904 z" fill="#000000" fill-opacity="1" stroke="none" opacity="0.3" inkscape:connector-curvature="0"/>
  <g transform="matrix(1 0 0 1 101 18.02)">
   <path d="m -79.08114,958.71225 v 4.7254 l 9.459296,3.65202 -9.459768,3.58106 v 4.57167 l 14.105823,-5.80432 0.06258,-4.53743 -14.1684,-6.18805 z" fill="#ffffff" inkscape:connector-curvature="0"/>
   <path d="m -64.91274,975.24205 v 4.7228 h 14.1684 v -4.7228 h -14.1684 z" fill="#ffffff" inkscape:connector-curvature="0"/>
  </g>
  <path d="m 21.160914,969.15865 22.4333,34.84125 -22.4333,33.6393 h 4.7228 L 53.076416,997.05387 35.329314,969.15865 h -14.1684 z m 53.168102,0 -27.192702,40.58535 17.747102,27.8952 h 14.1684 l -22.4333,-34.8412 22.4333,-33.63935 h -4.7228 z" fill="#ffffff" opacity="0.2" inkscape:connector-curvature="0"/>
 </g>
</svg>
