<?xml version="1.0" encoding="UTF-8" standalone="no"?>
<!-- Created with Inkscape (http://www.inkscape.org/) -->

<svg
   xmlns:dc="http://purl.org/dc/elements/1.1/"
   xmlns:cc="http://creativecommons.org/ns#"
   xmlns:rdf="http://www.w3.org/1999/02/22-rdf-syntax-ns#"
   xmlns:svg="http://www.w3.org/2000/svg"
   xmlns="http://www.w3.org/2000/svg"
   xmlns:sodipodi="http://sodipodi.sourceforge.net/DTD/sodipodi-0.dtd"
   xmlns:inkscape="http://www.inkscape.org/namespaces/inkscape"
   id="svg11037"
   height="96"
   width="96"
   version="1.1"
   inkscape:version="0.48.5 r10040"
   sodipodi:docname="yahoo.svg">
  <sodipodi:namedview
     pagecolor="#ffffff"
     bordercolor="#666666"
     borderopacity="1"
     objecttolerance="10"
     gridtolerance="10"
     guidetolerance="10"
     inkscape:pageopacity="0"
     inkscape:pageshadow="2"
     inkscape:window-width="640"
     inkscape:window-height="480"
     id="namedview27647" />
  <defs
     id="defs11039">
    <linearGradient
       id="linearGradient11642"
       y2="1046.1"
       gradientUnits="userSpaceOnUse"
       y1="962.62"
       gradientTransform="matrix(1.15 0 0 1.15 -7.1999 -150.65)"
       x2="48"
       x1="48">
      <stop
         id="stop3845-0"
         style="stop-color:#65216c"
         offset="0" />
      <stop
         id="stop3847-4"
         style="stop-color:#982ea4"
         offset="1" />
    </linearGradient>
    <clipPath
       id="clipPath3009"
       clipPathUnits="userSpaceOnUse">
      <path
         id="path3011"
         style="opacity:.15;fill:#fff"
         d="m-2 956.36h-96v33.562l96 25.687v-59.25z" />
    </clipPath>
  </defs>
  <metadata
     id="metadata11042">
    <rdf:RDF>
      <cc:Work
         rdf:about="">
        <dc:format>image/svg+xml</dc:format>
        <dc:type
           rdf:resource="http://purl.org/dc/dcmitype/StillImage" />
        <dc:title />
      </cc:Work>
    </rdf:RDF>
  </metadata>
  <g
     id="layer1"
     transform="translate(0 -956.36)">
    <rect
       id="rect3867"
       style="fill:url(#linearGradient11642)"
       rx="25"
       ry="25"
       height="92"
       width="92"
       y="958.36"
       x="2" />
    <path
       id="path3851"
       style="color:#000000;fill:#fff"
       d="m70.597 985.22 0.10244 27.197 4.6352 0.6146 6.4278-26.3-11.165-1.5109zm-30.27 0.81948c-13.989 0-25.327 8.49-25.327 18.96 0 10.485 11.338 19.002 25.327 19.002s25.327-8.5169 25.327-19.002-11.338-18.976-25.327-18.976zm-15.903 9.9874 14.956 0.20487-0.20487 1.1012-4.6096 0.35852 6.5815 8.8606s6.0183-4.8183 6.0693-5.5827c-0.38221-0.3058-3.8925-0.589-3.8925-0.589l-0.33291-1.5622 12.83 0.0768-0.8707 1.511-3.7645 0.6402s-5.5472 3.8842-8.6558 7.3241c-0.22932 2.2423 0.07683 6.0949 0.07683 6.0949l4.7376 0.1281s-0.0622 1.2656-0.02561 1.4597c-0.076-0.1725-14.674 0.128-14.674 0.128l0.33292-1.5621s3.8958 0.175 4.5328-0.6659l-0.10244-5.4034c-0.99374-1.9366-7.5093-9.4804-8.6814-10.5l-4.2767-0.56339-0.02561-1.4597zm45.276 19.386-0.74266 5.3778 5.6596 0.9219 0.84509-5.6595-5.762-0.6402z" />
    <rect
       id="rect3003"
       style="opacity:.15;fill:#fff"
       transform="translate(98 3.8281e-7)"
       clip-path="url(#clipPath3009)"
       rx="25"
       ry="25"
       height="92"
       width="92"
       y="958.36"
       x="-96" />
  </g>
</svg>
