<svg height="96" width="96" xmlns="http://www.w3.org/2000/svg" xmlns:sodipodi="http://sodipodi.sourceforge.net/DTD/sodipodi-0.dtd" xmlns:inkscape="http://www.inkscape.org/namespaces/inkscape">
 <defs>
  <linearGradient x1="53.06" x2="50.45" y1="1042.44" y2="965.46" gradientUnits="userSpaceOnUse" id="linearGradient5160" inkscape:collect="always">
   <stop stop-color="#bcb5ac"/>
   <stop stop-color="#e9e7e4" offset="1"/>
  </linearGradient>
  <filter x="227.16" y="6.116" color-interpolation-filters="sRGB" height="206.25" id="Adobe_OpacityMaskFilter-5" width="312.27" filterUnits="userSpaceOnUse">
   <feColorMatrix values="1 0 0 0 0  0 1 0 0 0  0 0 1 0 0  0 0 0 1 0" type="matrix"/>
  </filter>
  <mask id="SVGID_2_-7">
   <g filter="url(#Adobe_OpacityMaskFilter-5)">
    <path d="m537.27 48.947-0.0195-0.23291v-0.23438c0-22.167-18.275-40.204-40.74-40.204h-0.12695l-0.12696-0.00586c-35.87-1.4976-73.87-2.2203-112.97-2.149-39.08-0.0713-77.08 0.6514-112.96 2.1489l-0.12744 0.00586h-0.12793c-6.1802 0-12.039 1.3716-17.292 3.8125l281.46 173.06c1.9375-4.6777 3.0137-9.791 3.0137-15.15v-0.23438l0.0195-0.23242c1.4863-19.398 2.209-39.679 2.1484-60.312 0.0605-20.597-0.66211-40.877-2.1484-60.274zm-41.014 161.26 0.12696-0.004h0.12695c6.5137 0 12.67-1.5254 18.137-4.2188l-87.156 6.1074c23.566-0.33008 46.574-0.95703 68.766-1.8848z" fill="url(#SVGID_3_-2)"/>
   </g>
  </mask>
  <linearGradient x1="461.13" x2="352.87" y1="-18.516" y2="169.01" gradientUnits="userSpaceOnUse" id="SVGID_3_-2">
   <stop stop-color="#fff" offset="0.006"/>
   <stop stop-color="#f6f6f6" offset="0.013"/>
   <stop stop-color="#c8c8c8" offset="0.053"/>
   <stop stop-color="#9d9d9d" offset="0.098"/>
   <stop stop-color="#777" offset="0.146"/>
   <stop stop-color="#575757" offset="0.198"/>
   <stop stop-color="#3b3b3b" offset="0.257"/>
   <stop stop-color="#252525" offset="0.322"/>
   <stop stop-color="#141414" offset="0.399"/>
   <stop stop-color="#090909" offset="0.493"/>
   <stop stop-color="#020202" offset="0.626"/>
   <stop offset="0.994"/>
  </linearGradient>
 </defs>
 <g inkscape:label="Layer 1" inkscape:groupmode="layer" transform="matrix(1 0 0 1 0 -956.36)">
  <rect x="8.751" rx="10.769" y="964.14" fill="url(#linearGradient5160)" fill-opacity="1" stroke="none" height="80" width="80"/>
  <path d="m 8.75125,1031.3354 0,2.0133 c 0,5.966 4.793063,10.7905 10.758946,10.7905 l 58.450649,0 c 5.965883,0 10.790405,-4.8245 10.790405,-10.7905 l 0,-2.0133 c 0,5.9659 -4.824522,10.7904 -10.790405,10.7904 l -58.450649,0 c -5.965883,0 -10.758946,-4.8245 -10.758946,-10.7904 z" fill="#000000" fill-opacity="1" stroke="none" opacity="0.3" inkscape:connector-curvature="0"/>
  <path d="m 496.26,8.27 0.12696,0.00586 h 0.12695 c 22.465,0 40.74,18.036 40.74,40.204 v 0.23438 l 0.0195,0.23291 c 1.4863,19.397 2.209,39.678 2.1484,60.274 0.0605,20.634 -0.66211,40.914 -2.1484,60.312 l -0.0195,0.23242 v 0.23438 c 0,22.17 -18.275,40.205 -40.74,40.205 h -0.12695 l -0.12696,0.004 c -35.881,1.498 -73.887,2.2207 -112.96,2.1484 -39.094,0.0723 -77.098,-0.65039 -112.98,-2.1484 l -0.12744,-0.004 h -0.12744 c -22.465,0 -40.741,-18.035 -40.741,-40.205 v -0.23438 l -0.0181,-0.23242 c -1.4868,-19.389 -2.21,-39.668 -2.1489,-60.277 -0.0615,-20.635 0.66113,-40.915 2.1484,-60.31 l 0.0181,-0.23291 v -0.23438 c 0,-22.167 18.276,-40.204 40.74,-40.204 h 0.12793 L 270.31899,8.269 c 35.876,-1.4976 73.882,-2.2202 112.96,-2.1489 39.1,-0.071289 77.105,0.65137 112.98,2.1489 z" fill="#ffffff" mask="url(#SVGID_2_-7)" inkscape:connector-curvature="0" transform="matrix(0.17334 0 0 0.17163 -16.983 997.92)"/>
  <g transform="matrix(0.91666 0 0 0.91666 3.416 83.02)">
   <path d="m 66.472746,976.4703 v 18.3016 H 63.17889 v -2.02037 c -0.607163,0.74435 -1.238794,1.31182 -1.895315,1.70106 -0.656587,0.38855 -1.294199,0.58367 -1.911815,0.58367 -0.761492,0 -1.335636,-0.27208 -1.72188,-0.81727 -0.386263,-0.54485 -0.579141,-1.36207 -0.579141,-2.4518 v -15.29696 h 3.29395 v 14.02947 c 0,0.43413 0.06894,0.74773 0.206856,0.9418 0.137895,0.19411 0.36126,0.29134 0.670555,0.29134 0.242884,0 0.548673,-0.12828 0.918427,-0.38518 0.369754,-0.25723 0.709039,-0.58536 1.018391,-0.98539 v -13.8926 h 3.293856 z m -21.759983,4.18419 c 0,-1.41738 0.443206,-2.54584 1.330199,-3.3861 0.886974,-0.8404 2.078687,-1.26064 3.575758,-1.26064 1.363198,0 2.479931,0.44341 3.350387,1.32917 0.870465,0.8858 1.305636,2.02609 1.305636,3.42079 v 9.45267 c 0,1.56635 -0.427268,2.79511 -1.280699,3.68666 -0.853478,0.89154 -2.028719,1.33751 -3.525321,1.33751 -1.441104,0 -2.594305,-0.46045 -3.458854,-1.38035 -0.864915,-0.9199 -1.297199,-2.15744 -1.297199,-3.71235 v -9.48736 z m 3.389855,9.83048 c 0,0.504 0.116905,0.89255 0.351782,1.16735 0.234306,0.27445 0.569092,0.41118 1.004891,0.41118 0.446712,0 0.801026,-0.13975 1.063859,-0.41995 0.262328,-0.28052 0.393773,-0.66637 0.393773,-1.15855 v -9.96734 c 0,-0.40003 -0.134483,-0.72318 -0.402276,-0.9688 -0.267802,-0.24575 -0.619584,-0.36906 -1.055327,-0.36906 -0.401779,0 -0.728567,0.1233 -0.979861,0.36906 -0.251377,0.24567 -0.376784,0.56882 -0.376784,0.9688 v 9.96734 z m -15.661637,-20.5225 h 3.736162 l 2.406901,9.91672 h 0.232918 l 2.294965,-9.91672 h 3.769162 l -4.31731,14.51509 v 10.29453 h -3.709725 v -9.83141 L 32.44084,969.96153 z" fill="#666666" inkscape:connector-curvature="0"/>
   <path d="m 77.204513,1006.2394 c 0,-4.389 -3.638525,-7.95032 -8.122304,-7.95032 -6.399425,-0.26449 -12.947423,-0.38189 -19.625629,-0.36983 -6.678751,-0.0121 -13.226386,0.10534 -19.625629,0.36983 -4.483416,0 -8.122122,3.56132 -8.122122,7.95032 -0.269143,3.4761 -0.385948,6.9522 -0.375455,10.4283 -0.01037,3.4762 0.106312,6.9523 0.375546,10.4284 0,4.389 3.638706,7.9505 8.122304,7.9505 6.399606,0.2645 12.947241,0.3818 19.625629,0.3694 6.678751,0.012 13.22675,-0.1049 19.625628,-0.3694 4.48378,0 8.122305,-3.5615 8.122305,-7.9505 0.269161,-3.4763 0.385947,-6.9524 0.375454,-10.4284 0.01037,-3.4761 -0.106293,-6.9524 -0.375454,-10.4283 z" fill="#ee3030" fill-opacity="1" inkscape:connector-curvature="0"/>
   <path d="M 37.632303,1004.1033 H 25.83732 v 3.5758 h 3.975921 v 21.0612 h 3.843142 v -21.0612 h 3.976094 v -3.5753 z m 6.281529,20.258 c -0.320265,0.3972 -0.672043,0.7234 -1.054936,0.9785 -0.383239,0.2554 -0.700141,0.3825 -0.951676,0.3825 -0.320265,0 -0.551848,-0.097 -0.694716,-0.2893 -0.142871,-0.1928 -0.214301,-0.5042 -0.214301,-0.9353 v -13.931 h -3.412736 v 15.1906 c 0,1.0821 0.200087,1.8937 0.600262,2.4352 0.400175,0.541 0.995012,0.8112 1.783852,0.8112 0.63987,0 1.300403,-0.1937 1.980593,-0.5796 0.680502,-0.3865 1.334586,-0.95 1.963606,-1.6892 v 2.0062 h 3.412736 v -18.176 H 43.91378 v 13.7954 z m 13.221926,-14.0251 c -0.529158,0 -1.051902,0.1445 -1.569203,0.4331 -0.516972,0.2891 -1.00517,0.7105 -1.464939,1.2651 v -7.9314 h -3.445844 v 24.6364 h 3.445844 v -1.3972 c 0.448242,0.5534 0.934082,0.9631 1.456809,1.2286 0.522727,0.2655 1.117581,0.3982 1.784545,0.3982 1.010924,0 1.783851,-0.3422 2.318088,-1.0281 0.534237,-0.6859 0.802049,-1.6748 0.802049,-2.967 v -10.0818 c 0,-1.4845 -0.28473,-2.6152 -0.853843,-3.3913 -0.568766,-0.7761 -1.393505,-1.1646 -2.473575,-1.1646 z m -0.184851,14.1443 c 0,0.5793 -0.09886,0.997 -0.295563,1.2524 -0.196708,0.2551 -0.503764,0.3829 -0.920527,0.3829 -0.289809,0 -0.56471,-0.065 -0.825398,-0.1958 -0.261034,-0.1301 -0.53018,-0.3433 -0.807803,-0.6386 v -11.3273 c 0.231566,-0.2497 0.465854,-0.4342 0.703521,-0.5537 0.237321,-0.1189 0.47804,-0.1788 0.721133,-0.1788 0.462803,0 0.816592,0.1594 1.059685,0.4772 0.243423,0.3178 0.36497,0.7833 0.36497,1.3963 v 9.3839 z m 16.125387,-4.4012 v -4.6271 c 0,-1.7249 -0.419468,-3.0468 -1.257068,-3.9664 -0.83826,-0.9196 -2.037796,-1.3794 -3.598905,-1.3794 -1.52722,0 -2.772761,0.4967 -3.73671,1.4896 -0.964538,0.9934 -1.446652,2.2784 -1.446652,3.8563 v 8.1572 c 0,1.7495 0.439108,3.1239 1.316993,4.1235 0.878214,0.9993 2.080784,1.4992 3.607918,1.4992 1.69888,0 2.976264,-0.4717 3.831528,-1.4143 0.855195,-0.9427 1.282792,-2.3456 1.282792,-4.2085 v -1.365 h -3.512234 v 1.2631 c 0,1.0694 -0.112739,1.761 -0.337876,2.0733 -0.225135,0.3128 -0.620907,0.469 -1.18664,0.469 -0.543718,0 -0.927651,-0.1844 -1.152786,-0.5545 -0.225136,-0.3697 -0.337547,-1.0324 -0.337547,-1.9878 v -3.4284 h 6.526979 z m -6.526979,-4.6609 c 0,-0.7606 0.117818,-1.306 0.355141,-1.6356 0.236645,-0.3291 0.626332,-0.4941 1.169375,-0.4941 0.519676,0 0.898183,0.165 1.135175,0.4941 0.236645,0.3296 0.355141,0.875 0.355141,1.6356 v 1.8398 h -3.016132 v -1.8398 z" fill="#ffffff" inkscape:connector-curvature="0"/>
  </g>
 </g>
</svg>
