<?xml version="1.0" encoding="UTF-8" standalone="no"?>
<!-- Created with Inkscape (http://www.inkscape.org/) -->

<svg
   xmlns:dc="http://purl.org/dc/elements/1.1/"
   xmlns:cc="http://creativecommons.org/ns#"
   xmlns:rdf="http://www.w3.org/1999/02/22-rdf-syntax-ns#"
   xmlns:svg="http://www.w3.org/2000/svg"
   xmlns="http://www.w3.org/2000/svg"
   xmlns:xlink="http://www.w3.org/1999/xlink"
   xmlns:sodipodi="http://sodipodi.sourceforge.net/DTD/sodipodi-0.dtd"
   xmlns:inkscape="http://www.inkscape.org/namespaces/inkscape"
   width="96"
   height="96"
   id="svg11037"
   version="1.1"
   inkscape:version="0.48.5 r10040"
   sodipodi:docname="zacalc.svg">
  <defs
     id="defs11039">
    <linearGradient
       y2="1046.1001"
       x2="47.999954"
       y1="962.62189"
       x1="47.999954"
       gradientTransform="matrix(1.1136842,0,0,1.1136842,-5.4567899,-114.17878)"
       gradientUnits="userSpaceOnUse"
       id="linearGradient11642"
       xlink:href="#linearGradient3677"
       inkscape:collect="always" />
    <clipPath
       clipPathUnits="userSpaceOnUse"
       id="clipPath3009">
      <path
         id="path3011"
         d="m -2,956.36218 -96,0 0,33.5624 96,25.68742 0,-59.24982 z"
         style="opacity:0.15;fill:#ffffff;fill-opacity:1;stroke:none"
         inkscape:connector-curvature="0" />
    </clipPath>
    <linearGradient
       id="linearGradient3677">
      <stop
         id="stop3679"
         style="stop-color:#190e07;stop-opacity:1"
         offset="0" />
      <stop
         id="stop3681"
         style="stop-color:#311e12;stop-opacity:1"
         offset="1" />
    </linearGradient>
    <linearGradient
       id="linearGradient4052">
      <stop
         id="stop4054"
         style="stop-color:#f4a615;stop-opacity:1"
         offset="0" />
      <stop
         id="stop4056"
         style="stop-color:#f47d15;stop-opacity:1"
         offset="1" />
    </linearGradient>
    <linearGradient
       inkscape:collect="always"
       xlink:href="#linearGradient4052"
       id="linearGradient3957"
       x1="-166.9277"
       y1="908.57947"
       x2="-111.0488"
       y2="908.57947"
       gradientUnits="userSpaceOnUse" />
    <linearGradient
       inkscape:collect="always"
       xlink:href="#linearGradient4052"
       id="linearGradient3959"
       gradientUnits="userSpaceOnUse"
       x1="-166.9277"
       y1="908.57947"
       x2="-111.0488"
       y2="908.57947" />
    <linearGradient
       inkscape:collect="always"
       xlink:href="#linearGradient4052"
       id="linearGradient3961"
       gradientUnits="userSpaceOnUse"
       x1="-166.9277"
       y1="908.57947"
       x2="-111.0488"
       y2="908.57947" />
    <linearGradient
       inkscape:collect="always"
       xlink:href="#linearGradient4052"
       id="linearGradient3963"
       gradientUnits="userSpaceOnUse"
       x1="-166.9277"
       y1="908.57947"
       x2="-111.0488"
       y2="908.57947" />
    <linearGradient
       inkscape:collect="always"
       xlink:href="#linearGradient4052"
       id="linearGradient3965"
       gradientUnits="userSpaceOnUse"
       x1="-166.9277"
       y1="908.57947"
       x2="-111.0488"
       y2="908.57947" />
    <filter
       inkscape:collect="always"
       id="filter4005"
       x="-0.23928903"
       width="1.4785781"
       y="-0.40223606"
       height="1.8044721">
      <feGaussianBlur
         inkscape:collect="always"
         stdDeviation="5.5713365"
         id="feGaussianBlur4007" />
    </filter>
    <filter
       inkscape:collect="always"
       id="filter4035"
       x="-0.23928903"
       width="1.4785781"
       y="-0.40223606"
       height="1.8044721">
      <feGaussianBlur
         inkscape:collect="always"
         stdDeviation="5.5713365"
         id="feGaussianBlur4037" />
    </filter>
  </defs>
  <sodipodi:namedview
     id="base"
     pagecolor="#ffffff"
     bordercolor="#666666"
     borderopacity="1.0"
     inkscape:pageopacity="0.0"
     inkscape:pageshadow="2"
     inkscape:zoom="3.959798"
     inkscape:cx="20.768496"
     inkscape:cy="60.030643"
     inkscape:document-units="px"
     inkscape:current-layer="layer1"
     showgrid="false"
     inkscape:window-width="1280"
     inkscape:window-height="754"
     inkscape:window-x="0"
     inkscape:window-y="22"
     inkscape:window-maximized="1"
     showguides="true"
     inkscape:guide-bbox="true">
    <sodipodi:guide
       orientation="0,1"
       position="-24.748737,0"
       id="guide11064" />
    <sodipodi:guide
       orientation="0,1"
       position="-23.233509,96"
       id="guide11066" />
    <sodipodi:guide
       orientation="1,0"
       position="0,54.800776"
       id="guide11068" />
    <sodipodi:guide
       orientation="1,0"
       position="96,51.012704"
       id="guide11070" />
    <sodipodi:guide
       orientation="0,1"
       position="-18.94036,48"
       id="guide11072" />
    <sodipodi:guide
       orientation="1,0"
       position="48,79.296975"
       id="guide11074" />
    <sodipodi:guide
       orientation="1,0"
       position="2,75.508903"
       id="guide11076" />
    <sodipodi:guide
       orientation="0,1"
       position="-77.27667,2"
       id="guide11078" />
    <sodipodi:guide
       orientation="1,0"
       position="94,77.781746"
       id="guide11080" />
    <sodipodi:guide
       orientation="0,1"
       position="-65.912454,94"
       id="guide11082" />
  </sodipodi:namedview>
  <metadata
     id="metadata11042">
    <rdf:RDF>
      <cc:Work
         rdf:about="">
        <dc:format>image/svg+xml</dc:format>
        <dc:type
           rdf:resource="http://purl.org/dc/dcmitype/StillImage" />
        <dc:title />
      </cc:Work>
    </rdf:RDF>
  </metadata>
  <g
     inkscape:label="Layer 1"
     inkscape:groupmode="layer"
     id="layer1"
     transform="translate(0,-956.36218)">
    <rect
       x="3.4526315"
       y="959.81482"
       width="89.094734"
       height="89.094734"
       style="fill:url(#linearGradient11642);fill-opacity:1;stroke:#000000;stroke-width:2.90526319;stroke-miterlimit:4;stroke-dasharray:none"
       id="rect3867"
       rx="24.210526"
       ry="24.210526" />
    <g
       style="font-size:40px;font-style:normal;font-variant:normal;font-weight:normal;font-stretch:normal;line-height:125%;letter-spacing:0px;word-spacing:0px;fill:url(#linearGradient3957);fill-opacity:1;stroke:none;font-family:Cantarell;-inkscape-font-specification:Cantarell;filter:url(#filter4035)"
       id="g4009"
       transform="matrix(1.0737506,0,0,1.0718305,197.23872,30.704001)">
      <path
         d="m -113.97849,897.6615 -1.5039,2.83203 -3.14453,-1.64062 1.46484,-2.85157 3.18359,1.66016 m 2.92969,18.18359 c -2e-5,1.4323 -0.612,2.91667 -1.83594,4.45313 -1.06772,1.35416 -2.39584,2.51953 -3.98437,3.49609 -1.51043,0.9375 -2.75392,1.40625 -3.73047,1.40625 -0.89845,0 -1.8685,-0.13021 -2.91016,-0.39062 -0.79427,-0.19532 -1.74479,-0.50131 -2.85156,-0.91797 -0.9375,-0.35157 -1.86849,-0.70313 -2.79297,-1.05469 l 0.33203,-0.78125 c 0.85938,0.16927 1.7513,0.33854 2.67579,0.50781 0.93749,0.18229 1.78384,0.27344 2.53906,0.27344 1.66666,0 3.40494,-0.53385 5.21484,-1.60156 1.64061,-0.97656 3.04035,-2.20703 4.19922,-3.69141 1.15884,-1.49739 1.73826,-2.84504 1.73828,-4.04297 -2e-5,-1.02863 -0.29949,-2.10936 -0.89844,-3.24218 -0.48178,-0.91145 -1.15887,-1.84895 -2.03125,-2.8125 l 1.11329,-3.06641 c 1.06769,0.9896 1.85545,1.97918 2.36328,2.96875 0.57289,1.1198 0.85935,2.3698 0.85937,3.75 l 0,4.74609"
         style="fill:url(#linearGradient3959);fill-opacity:1;font-family:Times New Roman;-inkscape-font-specification:Times New Roman"
         id="path4011"
         inkscape:connector-curvature="0" />
      <path
         d="m -130.61911,915.84509 -17.12891,0 0,-3.39843 14.86328,0 c -0.91147,-1.3802 -1.95313,-2.57812 -3.125,-3.59375 -1.17188,-1.02864 -2.75391,-2.13541 -4.74609,-3.32032 l -0.64453,0.60547 -2.30469,-1.75781 c -0.80729,-0.67707 -1.21094,-1.20441 -1.21094,-1.58203 0,-2.23956 0.54688,-3.99738 1.64063,-5.27344 1.01562,-1.17185 2.76692,-2.22654 5.25391,-3.16406 l 5.50781,-2.14844 0,3.37891 -4.08203,1.36718 c -1.62761,0.53388 -2.94272,1.02216 -3.94532,1.46485 -1.27604,0.55992 -1.91406,0.9896 -1.91406,1.28906 0,0.2995 0.41666,0.76174 1.25,1.38672 0.52083,0.39064 1.04817,0.78127 1.58203,1.17187 1.97916,1.49742 3.70442,3.06643 5.17578,4.70704 1.58853,1.75782 2.86457,3.58074 3.82813,5.46875 l 0,3.39843"
         style="fill:url(#linearGradient3961);fill-opacity:1;font-family:Times New Roman;-inkscape-font-specification:Times New Roman"
         id="path4013"
         inkscape:connector-curvature="0" />
      <path
         d="m -146.41989,915.84509 -2.73438,0 c -0.88542,10e-6 -1.59505,-0.35806 -2.1289,-1.07422 -0.46876,-0.62499 -0.82683,-1.55598 -1.07422,-2.79296 -0.23438,-1.23697 -0.41667,-2.76041 -0.54688,-4.57032 -0.0781,-1.47134 -0.16276,-2.98175 -0.2539,-4.53125 -0.0781,-1.54946 -0.18881,-2.72133 -0.33203,-3.51562 -0.13021,-0.80727 -0.31251,-1.46482 -0.54688,-1.97266 -0.28646,-0.62497 -0.68359,-1.17185 -1.19141,-1.64062 l 2.40235,-3.78907 c 0.50781,1.56253 0.86588,3.43102 1.07422,5.60547 0.1302,1.35419 0.26041,4.55731 0.39062,9.60938 0.23437,2.31772 0.57291,3.80209 1.01563,4.45312 0.36458,0.54689 0.76171,0.82032 1.1914,0.82032 l 2.73438,0 0,3.39843"
         style="fill:url(#linearGradient3963);fill-opacity:1;font-family:Times New Roman;-inkscape-font-specification:Times New Roman"
         id="path4015"
         inkscape:connector-curvature="0" />
      <path
         d="m -157.78708,897.60291 -1.52344,2.8125 -3.16406,-1.67969 1.46484,-2.79297 3.22266,1.66016 m -4.49219,1.75781 -1.48437,2.83203 -3.16406,-1.64063 1.44531,-2.83203 3.20312,1.64063 m 6.21094,10.72265 c -1e-5,1.83595 -0.29949,3.21616 -0.89844,4.14063 -0.92448,1.4323 -2.61719,2.14844 -5.07812,2.14844 -0.95053,0 -1.73829,-0.1888 -2.36328,-0.56641 -0.71615,-0.42968 -1.07422,-1.04166 -1.07422,-1.83594 0,-0.91145 0.22786,-1.96613 0.68359,-3.16406 0.41667,-1.01561 0.83984,-2.03775 1.26953,-3.06641 l -0.29297,-0.0781 1.19141,-3.30078 c 2.35677,1.23699 3.76301,2.01824 4.21875,2.34375 1.56249,1.09376 2.34374,2.22006 2.34375,3.3789 m -1.69922,1.52344 c -1e-5,-0.49478 -0.71615,-1.15233 -2.14844,-1.97265 -0.61198,-0.35155 -1.26953,-0.69661 -1.97265,-1.03516 -0.58594,0.63803 -0.93751,1.03517 -1.05469,1.19141 -0.36459,0.50782 -0.54688,0.98959 -0.54687,1.44531 -1e-5,0.66407 0.18228,1.1849 0.54687,1.5625 0.3776,0.36459 0.8789,0.54688 1.50391,0.54687 0.72916,10e-6 1.52343,-0.20181 2.38281,-0.60547 0.85937,-0.41665 1.28905,-0.79426 1.28906,-1.13281"
         style="fill:url(#linearGradient3965);fill-opacity:1;font-family:Times New Roman;-inkscape-font-specification:Times New Roman"
         id="path4017"
         inkscape:connector-curvature="0" />
    </g>
    <text
       xml:space="preserve"
       style="font-size:40px;font-style:normal;font-variant:normal;font-weight:normal;font-stretch:normal;line-height:125%;letter-spacing:0px;word-spacing:0px;fill:#000000;fill-opacity:1;stroke:none;font-family:Cantarell;-inkscape-font-specification:Cantarell"
       x="-97.22718"
       y="68.473343"
       id="text3843"
       sodipodi:linespacing="125%"
       transform="translate(0,956.36218)"><tspan
         sodipodi:role="line"
         id="tspan3845"
         x="-97.22718"
         y="68.473343" /></text>
    <g
       style="font-size:40px;font-style:normal;font-variant:normal;font-weight:normal;font-stretch:normal;line-height:125%;letter-spacing:0px;word-spacing:0px;fill:url(#linearGradient3957);fill-opacity:1;stroke:none;font-family:Cantarell;-inkscape-font-specification:Cantarell"
       id="text3938"
       transform="matrix(1.0737506,0,0,1.0718305,197.23872,30.704001)">
      <path
         d="m -113.97849,897.6615 -1.5039,2.83203 -3.14453,-1.64062 1.46484,-2.85157 3.18359,1.66016 m 2.92969,18.18359 c -2e-5,1.4323 -0.612,2.91667 -1.83594,4.45313 -1.06772,1.35416 -2.39584,2.51953 -3.98437,3.49609 -1.51043,0.9375 -2.75392,1.40625 -3.73047,1.40625 -0.89845,0 -1.8685,-0.13021 -2.91016,-0.39062 -0.79427,-0.19532 -1.74479,-0.50131 -2.85156,-0.91797 -0.9375,-0.35157 -1.86849,-0.70313 -2.79297,-1.05469 l 0.33203,-0.78125 c 0.85938,0.16927 1.7513,0.33854 2.67579,0.50781 0.93749,0.18229 1.78384,0.27344 2.53906,0.27344 1.66666,0 3.40494,-0.53385 5.21484,-1.60156 1.64061,-0.97656 3.04035,-2.20703 4.19922,-3.69141 1.15884,-1.49739 1.73826,-2.84504 1.73828,-4.04297 -2e-5,-1.02863 -0.29949,-2.10936 -0.89844,-3.24218 -0.48178,-0.91145 -1.15887,-1.84895 -2.03125,-2.8125 l 1.11329,-3.06641 c 1.06769,0.9896 1.85545,1.97918 2.36328,2.96875 0.57289,1.1198 0.85935,2.3698 0.85937,3.75 l 0,4.74609"
         style="fill:url(#linearGradient3959);fill-opacity:1;font-family:Times New Roman;-inkscape-font-specification:Times New Roman"
         id="path3943"
         inkscape:connector-curvature="0" />
      <path
         d="m -130.61911,915.84509 -17.12891,0 0,-3.39843 14.86328,0 c -0.91147,-1.3802 -1.95313,-2.57812 -3.125,-3.59375 -1.17188,-1.02864 -2.75391,-2.13541 -4.74609,-3.32032 l -0.64453,0.60547 -2.30469,-1.75781 c -0.80729,-0.67707 -1.21094,-1.20441 -1.21094,-1.58203 0,-2.23956 0.54688,-3.99738 1.64063,-5.27344 1.01562,-1.17185 2.76692,-2.22654 5.25391,-3.16406 l 5.50781,-2.14844 0,3.37891 -4.08203,1.36718 c -1.62761,0.53388 -2.94272,1.02216 -3.94532,1.46485 -1.27604,0.55992 -1.91406,0.9896 -1.91406,1.28906 0,0.2995 0.41666,0.76174 1.25,1.38672 0.52083,0.39064 1.04817,0.78127 1.58203,1.17187 1.97916,1.49742 3.70442,3.06643 5.17578,4.70704 1.58853,1.75782 2.86457,3.58074 3.82813,5.46875 l 0,3.39843"
         style="fill:url(#linearGradient3961);fill-opacity:1;font-family:Times New Roman;-inkscape-font-specification:Times New Roman"
         id="path3945"
         inkscape:connector-curvature="0" />
      <path
         d="m -146.41989,915.84509 -2.73438,0 c -0.88542,10e-6 -1.59505,-0.35806 -2.1289,-1.07422 -0.46876,-0.62499 -0.82683,-1.55598 -1.07422,-2.79296 -0.23438,-1.23697 -0.41667,-2.76041 -0.54688,-4.57032 -0.0781,-1.47134 -0.16276,-2.98175 -0.2539,-4.53125 -0.0781,-1.54946 -0.18881,-2.72133 -0.33203,-3.51562 -0.13021,-0.80727 -0.31251,-1.46482 -0.54688,-1.97266 -0.28646,-0.62497 -0.68359,-1.17185 -1.19141,-1.64062 l 2.40235,-3.78907 c 0.50781,1.56253 0.86588,3.43102 1.07422,5.60547 0.1302,1.35419 0.26041,4.55731 0.39062,9.60938 0.23437,2.31772 0.57291,3.80209 1.01563,4.45312 0.36458,0.54689 0.76171,0.82032 1.1914,0.82032 l 2.73438,0 0,3.39843"
         style="fill:url(#linearGradient3963);fill-opacity:1;font-family:Times New Roman;-inkscape-font-specification:Times New Roman"
         id="path3947"
         inkscape:connector-curvature="0" />
      <path
         d="m -157.78708,897.60291 -1.52344,2.8125 -3.16406,-1.67969 1.46484,-2.79297 3.22266,1.66016 m -4.49219,1.75781 -1.48437,2.83203 -3.16406,-1.64063 1.44531,-2.83203 3.20312,1.64063 m 6.21094,10.72265 c -1e-5,1.83595 -0.29949,3.21616 -0.89844,4.14063 -0.92448,1.4323 -2.61719,2.14844 -5.07812,2.14844 -0.95053,0 -1.73829,-0.1888 -2.36328,-0.56641 -0.71615,-0.42968 -1.07422,-1.04166 -1.07422,-1.83594 0,-0.91145 0.22786,-1.96613 0.68359,-3.16406 0.41667,-1.01561 0.83984,-2.03775 1.26953,-3.06641 l -0.29297,-0.0781 1.19141,-3.30078 c 2.35677,1.23699 3.76301,2.01824 4.21875,2.34375 1.56249,1.09376 2.34374,2.22006 2.34375,3.3789 m -1.69922,1.52344 c -1e-5,-0.49478 -0.71615,-1.15233 -2.14844,-1.97265 -0.61198,-0.35155 -1.26953,-0.69661 -1.97265,-1.03516 -0.58594,0.63803 -0.93751,1.03517 -1.05469,1.19141 -0.36459,0.50782 -0.54688,0.98959 -0.54687,1.44531 -1e-5,0.66407 0.18228,1.1849 0.54687,1.5625 0.3776,0.36459 0.8789,0.54688 1.50391,0.54687 0.72916,10e-6 1.52343,-0.20181 2.38281,-0.60547 0.85937,-0.41665 1.28905,-0.79426 1.28906,-1.13281"
         style="fill:url(#linearGradient3965);fill-opacity:1;font-family:Times New Roman;-inkscape-font-specification:Times New Roman"
         id="path3949"
         inkscape:connector-curvature="0" />
    </g>
    <g
       transform="matrix(1.0737506,0,0,1.0718305,197.23872,30.704001)"
       id="g3967"
       style="font-size:40px;font-style:normal;font-variant:normal;font-weight:normal;font-stretch:normal;line-height:125%;letter-spacing:0px;word-spacing:0px;fill:url(#linearGradient3957);fill-opacity:1;stroke:none;font-family:Cantarell;-inkscape-font-specification:Cantarell;filter:url(#filter4005)">
      <path
         inkscape:connector-curvature="0"
         id="path3969"
         style="fill:url(#linearGradient3959);fill-opacity:1;font-family:Times New Roman;-inkscape-font-specification:Times New Roman"
         d="m -113.97849,897.6615 -1.5039,2.83203 -3.14453,-1.64062 1.46484,-2.85157 3.18359,1.66016 m 2.92969,18.18359 c -2e-5,1.4323 -0.612,2.91667 -1.83594,4.45313 -1.06772,1.35416 -2.39584,2.51953 -3.98437,3.49609 -1.51043,0.9375 -2.75392,1.40625 -3.73047,1.40625 -0.89845,0 -1.8685,-0.13021 -2.91016,-0.39062 -0.79427,-0.19532 -1.74479,-0.50131 -2.85156,-0.91797 -0.9375,-0.35157 -1.86849,-0.70313 -2.79297,-1.05469 l 0.33203,-0.78125 c 0.85938,0.16927 1.7513,0.33854 2.67579,0.50781 0.93749,0.18229 1.78384,0.27344 2.53906,0.27344 1.66666,0 3.40494,-0.53385 5.21484,-1.60156 1.64061,-0.97656 3.04035,-2.20703 4.19922,-3.69141 1.15884,-1.49739 1.73826,-2.84504 1.73828,-4.04297 -2e-5,-1.02863 -0.29949,-2.10936 -0.89844,-3.24218 -0.48178,-0.91145 -1.15887,-1.84895 -2.03125,-2.8125 l 1.11329,-3.06641 c 1.06769,0.9896 1.85545,1.97918 2.36328,2.96875 0.57289,1.1198 0.85935,2.3698 0.85937,3.75 l 0,4.74609" />
      <path
         inkscape:connector-curvature="0"
         id="path3971"
         style="fill:url(#linearGradient3961);fill-opacity:1;font-family:Times New Roman;-inkscape-font-specification:Times New Roman"
         d="m -130.61911,915.84509 -17.12891,0 0,-3.39843 14.86328,0 c -0.91147,-1.3802 -1.95313,-2.57812 -3.125,-3.59375 -1.17188,-1.02864 -2.75391,-2.13541 -4.74609,-3.32032 l -0.64453,0.60547 -2.30469,-1.75781 c -0.80729,-0.67707 -1.21094,-1.20441 -1.21094,-1.58203 0,-2.23956 0.54688,-3.99738 1.64063,-5.27344 1.01562,-1.17185 2.76692,-2.22654 5.25391,-3.16406 l 5.50781,-2.14844 0,3.37891 -4.08203,1.36718 c -1.62761,0.53388 -2.94272,1.02216 -3.94532,1.46485 -1.27604,0.55992 -1.91406,0.9896 -1.91406,1.28906 0,0.2995 0.41666,0.76174 1.25,1.38672 0.52083,0.39064 1.04817,0.78127 1.58203,1.17187 1.97916,1.49742 3.70442,3.06643 5.17578,4.70704 1.58853,1.75782 2.86457,3.58074 3.82813,5.46875 l 0,3.39843" />
      <path
         inkscape:connector-curvature="0"
         id="path3973"
         style="fill:url(#linearGradient3963);fill-opacity:1;font-family:Times New Roman;-inkscape-font-specification:Times New Roman"
         d="m -146.41989,915.84509 -2.73438,0 c -0.88542,10e-6 -1.59505,-0.35806 -2.1289,-1.07422 -0.46876,-0.62499 -0.82683,-1.55598 -1.07422,-2.79296 -0.23438,-1.23697 -0.41667,-2.76041 -0.54688,-4.57032 -0.0781,-1.47134 -0.16276,-2.98175 -0.2539,-4.53125 -0.0781,-1.54946 -0.18881,-2.72133 -0.33203,-3.51562 -0.13021,-0.80727 -0.31251,-1.46482 -0.54688,-1.97266 -0.28646,-0.62497 -0.68359,-1.17185 -1.19141,-1.64062 l 2.40235,-3.78907 c 0.50781,1.56253 0.86588,3.43102 1.07422,5.60547 0.1302,1.35419 0.26041,4.55731 0.39062,9.60938 0.23437,2.31772 0.57291,3.80209 1.01563,4.45312 0.36458,0.54689 0.76171,0.82032 1.1914,0.82032 l 2.73438,0 0,3.39843" />
      <path
         inkscape:connector-curvature="0"
         id="path3975"
         style="fill:url(#linearGradient3965);fill-opacity:1;font-family:Times New Roman;-inkscape-font-specification:Times New Roman"
         d="m -157.78708,897.60291 -1.52344,2.8125 -3.16406,-1.67969 1.46484,-2.79297 3.22266,1.66016 m -4.49219,1.75781 -1.48437,2.83203 -3.16406,-1.64063 1.44531,-2.83203 3.20312,1.64063 m 6.21094,10.72265 c -1e-5,1.83595 -0.29949,3.21616 -0.89844,4.14063 -0.92448,1.4323 -2.61719,2.14844 -5.07812,2.14844 -0.95053,0 -1.73829,-0.1888 -2.36328,-0.56641 -0.71615,-0.42968 -1.07422,-1.04166 -1.07422,-1.83594 0,-0.91145 0.22786,-1.96613 0.68359,-3.16406 0.41667,-1.01561 0.83984,-2.03775 1.26953,-3.06641 l -0.29297,-0.0781 1.19141,-3.30078 c 2.35677,1.23699 3.76301,2.01824 4.21875,2.34375 1.56249,1.09376 2.34374,2.22006 2.34375,3.3789 m -1.69922,1.52344 c -1e-5,-0.49478 -0.71615,-1.15233 -2.14844,-1.97265 -0.61198,-0.35155 -1.26953,-0.69661 -1.97265,-1.03516 -0.58594,0.63803 -0.93751,1.03517 -1.05469,1.19141 -0.36459,0.50782 -0.54688,0.98959 -0.54687,1.44531 -1e-5,0.66407 0.18228,1.1849 0.54687,1.5625 0.3776,0.36459 0.8789,0.54688 1.50391,0.54687 0.72916,10e-6 1.52343,-0.20181 2.38281,-0.60547 0.85937,-0.41665 1.28905,-0.79426 1.28906,-1.13281" />
    </g>
    <rect
       ry="25"
       rx="25"
       id="rect3003"
       style="opacity:0.15;fill:#ffffff;fill-opacity:1"
       height="92"
       width="92"
       y="958.36218"
       x="-96"
       clip-path="url(#clipPath3009)"
       transform="translate(98,0)" />
  </g>
</svg>
