<svg height="96" width="96" xmlns="http://www.w3.org/2000/svg" xmlns:sodipodi="http://sodipodi.sourceforge.net/DTD/sodipodi-0.dtd" xmlns:inkscape="http://www.inkscape.org/namespaces/inkscape">
 <defs>
  <clipPath clipPathUnits="userSpaceOnUse" id="clipPath3009">
   <path d="m -2,956.36218 -96,0 0,33.5624 96,25.68742 0,-59.24982 z" inkscape:connector-curvature="0"/>
  </clipPath>
  <clipPath id="clipPath3613-9-4">
   <rect x="6" rx="6" y="6" height="84" width="84"/>
  </clipPath>
  <filter x="-0.192" y="-0.192" height="1.384" color-interpolation-filters="sRGB" id="filter3794-6-7" width="1.384">
   <feGaussianBlur stdDeviation="5.28"/>
  </filter>
  <linearGradient x2="0" y1="90" y2="5.988" gradientUnits="userSpaceOnUse" id="linearGradient3046" inkscape:collect="always" gradientTransform="matrix(1 0 0 1 -106 0)">
   <stop stop-color="#289535" stop-opacity="1"/>
   <stop stop-color="#93e231" stop-opacity="1" offset="1"/>
  </linearGradient>
  <linearGradient x2="0" y1="20.221" y2="138.66" gradientUnits="userSpaceOnUse" id="linearGradient3048" inkscape:collect="always">
   <stop stop-color="#ffffff" stop-opacity="1"/>
   <stop stop-color="#ffffff" stop-opacity="0" offset="1"/>
  </linearGradient>
  <clipPath clipPathUnits="userSpaceOnUse" id="clipPath3050">
   <rect x="7.493" rx="21.942" y="964.74" ry="21.975" height="80.87" width="80.75"/>
  </clipPath>
 </defs>
 <g inkscape:label="Layer 1" inkscape:groupmode="layer" transform="matrix(1 0 0 1 0 -956.36)">
  <g clip-path="url(#clipPath3050)" transform="matrix(1.13935 0 0 1.13768 -6.537 -139.2)">
   <rect x="-100" rx="6" y="6" fill="url(#linearGradient3046)" fill-opacity="1" fill-rule="nonzero" stroke="none" height="84" width="84" transform="matrix(1 0 0 1 106 957.36)"/>
   <rect stroke="#ffffff" stroke-dasharray="none" clip-path="url(#clipPath3613-9-4)" stroke-dashoffset="0" stroke-linecap="round" height="66" stroke-linejoin="miter" stroke-miterlimit="4" stroke-opacity="1" stroke-width="0.5" width="66" fill="url(#linearGradient3048)" fill-opacity="1" opacity="0.1" x="15" fill-rule="nonzero" filter="url(#filter3794-6-7)" y="15" rx="12" transform="matrix(1 0 0 1 -0.263 956.98)"/>
  </g>
  <g transform="matrix(1.14008 0 0 1.14008 -7.863 950.23)">
   <path d="m 45.947145,41.282152 c 0,0 0,-9.155072 9.155264,-9.155072 l 27.46502,0 c 0,0 0,9.155072 -9.155071,9.155072 l -27.465213,0" fill="#000000" fill-opacity="1" fill-rule="nonzero" stroke="none" inkscape:connector-curvature="0"/>
   <path d="m 45.947145,52.980191 c 0,0 0,-9.155071 9.155264,-9.155071 l 13.732413,0 c 0,0 0,9.155071 -9.155263,9.155071 l -13.732414,0" fill="#000000" fill-opacity="1" fill-rule="nonzero" stroke="none" inkscape:connector-curvature="0"/>
   <path d="m 45.947145,64.67823 c 0,0 0,-9.154879 9.155264,-9.154879 l 4.57715,0 c 0,0 0,9.154879 -9.154686,9.154879 l -4.577728,0" fill="#000000" fill-opacity="1" fill-rule="nonzero" stroke="none" inkscape:connector-curvature="0"/>
   <path d="m 42.873637,57.533855 0,7.303575 -27.284142,0 c -0.807957,0 -1.400168,-0.892219 -1.019546,-1.551476 l 17.82843,-24.319425 -16.281542,0 0,-7.303959 28.165725,0 c 1.136112,0 1.780485,1.051535 1.16134,1.900031 l -17.491771,23.971254 14.921506,0" fill="#000000" fill-opacity="1" fill-rule="nonzero" stroke="none" sodipodi:nodetypes="ccccccccccc" inkscape:connector-curvature="0"/>
   <path d="m 45.947145,40.368089 c 0,0 0,-9.155072 9.155264,-9.155072 l 27.46502,0 c 0,0 0,9.155072 -9.155071,9.155072 l -27.465213,0" fill="#ffffff" fill-opacity="1" fill-rule="nonzero" stroke="none" inkscape:connector-curvature="0"/>
   <path d="m 45.947145,52.066128 c 0,0 0,-9.155071 9.155264,-9.155071 l 13.732413,0 c 0,0 0,9.155071 -9.155263,9.155071 l -13.732414,0" fill="#ffffff" fill-opacity="1" fill-rule="nonzero" stroke="none" inkscape:connector-curvature="0"/>
   <path d="m 45.947145,63.764167 c 0,0 0,-9.154879 9.155264,-9.154879 l 4.57715,0 c 0,0 0,9.154879 -9.154686,9.154879 l -4.577728,0" fill="#ffffff" fill-opacity="1" fill-rule="nonzero" stroke="none" inkscape:connector-curvature="0"/>
   <path d="m 42.873637,56.619792 0,7.303575 -27.284142,0 c -0.807957,0 -1.400168,-0.892219 -1.019546,-1.551476 l 17.82843,-24.319425 -16.281542,0 0,-7.303959 28.165725,0 c 1.136112,0 1.780485,1.051535 1.16134,1.900031 l -17.491771,23.971254 14.921506,0" fill="#ffffff" fill-opacity="1" fill-rule="nonzero" stroke="none" sodipodi:nodetypes="ccccccccccc" inkscape:connector-curvature="0"/>
  </g>
  <rect x="-96" rx="25" y="958.36" clip-path="url(#clipPath3009)" fill="#ffffff" fill-opacity="1" height="92" opacity="0.15" width="92" transform="matrix(1 0 0 1 98 0)"/>
 </g>
</svg>
