<svg height="96" width="96" xmlns="http://www.w3.org/2000/svg" xmlns:sodipodi="http://sodipodi.sourceforge.net/DTD/sodipodi-0.dtd" xmlns:inkscape="http://www.inkscape.org/namespaces/inkscape">
 <defs>
  <linearGradient x1="53.06" x2="50.45" y1="1042.44" y2="965.46" gradientUnits="userSpaceOnUse" id="linearGradient5160" inkscape:collect="always">
   <stop stop-color="#bcb5ac"/>
   <stop stop-color="#e9e7e4" offset="1"/>
  </linearGradient>
 </defs>
 <g inkscape:label="Layer 1" inkscape:groupmode="layer" transform="matrix(1 0 0 1 0 -956.36)">
  <rect x="8.751" rx="10.769" y="964.14" fill="url(#linearGradient5160)" fill-opacity="1" stroke="none" height="80" width="80"/>
  <path d="M 8.75 49.1875 L 8.75 77 C 8.75 82.779712 13.262903 87.462632 18.96875 87.75 L 49.1875 87.75 L 49.1875 75.78125 C 48.48753 75.56005 47.347867 75.63755 45.40625 77.09375 C 44.813336 77.55015 43.527832 78.20685 42.3125 78.34375 L 42.25 78.34375 C 40.636859 78.34375 39.17969 77.40635 38.1875 75.96875 C 37.19531 74.53115 36.625 72.54965 36.625 70.40625 C 36.625 68.26295 37.195927 66.3198 38.1875 64.875 C 39.179072 63.4303 40.635145 62.46875 42.25 62.46875 C 42.827142 62.47875 43.420179 62.72015 43.96875 62.96875 C 44.517255 63.21775 45.02556 63.48825 45.34375 63.65625 C 45.36523 63.67425 45.38814 63.69675 45.40625 63.71875 C 47.349772 65.17635 48.491977 65.2765 49.1875 65.0625 L 49.1875 56.3125 L 49.1875 53.28125 L 49.1875 49.1875 L 45.09375 49.1875 L 42.0625 49.1875 L 28 49.1875 C 27.778775 49.8875 27.856321 51.02715 29.3125 52.96875 C 29.760672 53.55095 30.455754 54.8381 30.59375 56.0625 C 30.594619 56.0825 30.594619 56.106 30.59375 56.125 C 30.59375 57.7399 29.632166 59.1959 28.1875 60.1875 C 26.742738 61.1791 24.768333 61.75 22.625 61.75 C 20.481668 61.75 18.531363 61.1797 17.09375 60.1875 C 15.656128 59.1954 14.71875 57.7382 14.71875 56.125 C 14.72855 55.5476 14.969741 54.95475 15.21875 54.40625 C 15.467767 53.85775 15.738279 53.34945 15.90625 53.03125 C 15.92434 53.01025 15.94736 52.98675 15.96875 52.96875 C 17.424938 51.02715 17.502484 49.8875 17.28125 49.1875 L 8.75 49.1875 z " fill="#e6e6e6" color="#000000" transform="matrix(1 0 0 1 0 956.36)"/>
  <path d="M 50.1875 49.1875 L 50.1875 53.28125 L 50.1875 56.3125 L 50.1875 65.375 C 50.1841 65.5638 50.079297 65.76795 49.90625 65.84375 C 48.854537 66.36965 47.199664 66.25085 44.875 64.53125 C 44.533086 64.35075 44.059595 64.06945 43.5625 63.84375 C 43.065406 63.61815 42.544286 63.47375 42.25 63.46875 C 41.024573 63.46875 39.889059 64.15645 39.03125 65.40625 C 38.173421 66.65605 37.625 68.4157 37.625 70.375 C 37.625 72.3343 38.173942 74.10165 39.03125 75.34375 C 39.874468 76.56545 40.983596 77.25845 42.1875 77.28125 C 42.20754 77.28155 42.22991 77.28125 42.25 77.28125 C 43.154047 77.16115 44.492501 76.52745 44.8125 76.28125 C 47.178878 74.50645 48.85149 74.4101 49.90625 74.9375 C 50.079298 75.0135 50.18411 75.1862 50.1875 75.375 L 50.1875 87.75 L 78.53125 87.75 C 84.237097 87.462632 88.75 82.779712 88.75 77 L 88.75 49.1875 L 71.8125 49.1875 C 71.591272 49.8874 71.668821 51.02705 73.125 52.96875 C 73.573172 53.55095 74.26825 54.838 74.40625 56.0625 C 74.40735 56.0825 74.40735 56.105 74.40625 56.125 C 74.40625 57.7399 73.413415 59.1959 71.96875 60.1875 C 70.52399 61.1791 68.58083 61.75 66.4375 61.75 C 64.294168 61.75 62.343867 61.1796 60.90625 60.1875 C 59.468633 59.1954 58.53125 57.7381 58.53125 56.125 C 58.54105 55.5475 58.78224 54.95475 59.03125 54.40625 C 59.280259 53.85775 59.550778 53.34945 59.71875 53.03125 C 59.73686 53.01025 59.75977 52.98675 59.78125 52.96875 C 61.237439 51.02705 61.314987 49.8875 61.09375 49.1875 L 56.34375 49.1875 L 53.3125 49.1875 L 50.1875 49.1875 z " fill="#808080" color="#000000" transform="matrix(1 0 0 1 0 956.36)"/>
  <path d="m 8.75125,1031.3354 0,2.0133 c 0,5.966 4.793063,10.7905 10.758946,10.7905 l 58.450649,0 c 5.965883,0 10.790405,-4.8245 10.790405,-10.7905 l 0,-2.0133 c 0,5.9659 -4.824522,10.7904 -10.790405,10.7904 l -58.450649,0 c -5.965883,0 -10.758946,-4.8245 -10.758946,-10.7904 z" fill="#000000" fill-opacity="1" stroke="none" opacity="0.3" inkscape:connector-curvature="0"/>
  <path d="M 50.0625 7.78125 L 50.0625 22.84375 C 50.78969 23.11276 51.995157 23.05832 54.03125 21.53125 C 54.588907 21.10199 55.902228 20.44669 57.09375 20.3125 C 57.10365 20.31212 57.11507 20.31212 57.125 20.3125 C 58.700904 20.3125 60.115562 21.23094 61.09375 22.65625 C 62.07194 24.08149 62.625 26.00005 62.625 28.125 C 62.625 30.24995 62.072445 32.17576 61.09375 33.59375 C 60.115056 35.01175 58.699475 35.9375 57.125 35.9375 C 56.575858 35.9285 56.012083 35.68418 55.46875 35.4375 C 54.925389 35.19082 54.414321 34.91922 54.09375 34.75 C 54.07312 34.742 54.05021 34.73025 54.03125 34.71875 C 51.995157 33.1917 50.789642 33.16844 50.0625 33.4375 L 50.0625 40.125 L 50.0625 43.15625 L 50.0625 48.3125 L 53.3125 48.3125 L 56.34375 48.3125 L 61.46875 48.3125 C 61.613655 48.3125 61.774769 48.3727 61.84375 48.5 C 62.350254 49.5131 62.249077 51.15275 60.53125 53.46875 C 60.52335 53.48375 60.50828 53.485 60.5 53.5 C 60.321038 53.8367 60.061664 54.30115 59.84375 54.78125 C 59.61575 55.28345 59.442967 55.8025 59.4375 56.125 C 59.4375 57.3894 60.168188 58.5662 61.4375 59.4375 C 62.706832 60.3087 64.491039 60.875 66.46875 60.875 C 68.446463 60.875 70.238382 60.3082 71.5 59.4375 C 72.751713 58.5736 73.488572 57.41045 73.5 56.15625 C 73.499044 56.14625 73.501 56.133 73.5 56.125 C 73.385772 55.1906 72.70651 53.8494 72.4375 53.5 C 70.674836 51.1498 70.617382 49.5152 71.125 48.5 C 71.19398 48.3725 71.323846 48.3098 71.46875 48.3125 L 88.75 48.3125 L 88.75 18.53125 C 88.75 12.565096 83.934904 7.78125 77.96875 7.78125 L 50.0625 7.78125 z " fill="#ececec" color="#000000" transform="matrix(1 0 0 1 0 956.36)"/>
  <path d="M 19.53125 7.78125 C 13.565096 7.78125 8.75 12.565096 8.75 18.53125 L 8.75 48.34375 L 17.6875 48.34375 C 17.8324 48.34375 17.962265 48.4352 18.03125 48.5625 C 18.537754 49.5755 18.436573 51.184 16.71875 53.5 C 16.71095 53.515 16.69576 53.5475 16.6875 53.5625 C 16.508546 53.8991 16.24917 54.36365 16.03125 54.84375 C 15.803251 55.34595 15.630469 55.83365 15.625 56.15625 C 15.625 57.42065 16.386937 58.59755 17.65625 59.46875 C 18.925588 60.33995 20.709782 60.90625 22.6875 60.90625 C 24.66521 60.90625 26.457125 60.33955 27.71875 59.46875 C 28.970462 58.60485 29.707314 57.4417 29.71875 56.1875 C 29.71788 56.1775 29.719619 56.16425 29.71875 56.15625 C 29.60452 55.22185 28.894009 53.9119 28.625 53.5625 C 26.862332 51.2123 26.804874 49.5777 27.3125 48.5625 C 27.38146 48.435 27.542591 48.34105 27.6875 48.34375 L 41.125 48.34375 L 45.125 48.34375 L 49.3125 48.34375 L 49.3125 43.1875 L 49.3125 40.15625 L 49.3125 33.1875 C 49.3098 33.0426 49.403777 32.91274 49.53125 32.84375 C 50.537726 32.34052 52.150944 32.40641 54.46875 34.125 C 54.48888 34.14 54.51102 34.14115 54.53125 34.15625 C 54.871574 34.33774 55.332044 34.61883 55.8125 34.84375 C 56.314929 35.07899 56.83825 35.24461 57.15625 35.25 C 58.42063 35.25 59.566263 34.48806 60.4375 33.21875 C 61.308708 31.94942 61.875 30.16522 61.875 28.1875 C 61.875 26.20979 61.308252 24.41787 60.4375 23.15625 C 59.573596 21.90454 58.441689 21.16769 57.1875 21.15625 C 57.1776 21.15616 57.1662 21.15625 57.15625 21.15625 C 56.221852 21.27048 54.880679 21.981 54.53125 22.25 C 52.181063 24.01267 50.546487 24.07012 49.53125 23.5625 C 49.403784 23.4935 49.309805 23.33241 49.3125 23.1875 L 49.3125 7.78125 L 19.53125 7.78125 z " fill="#feab38" color="#000000" fill-opacity="1" transform="matrix(1 0 0 1 0 956.36)"/>
  <path d="m 44.986053,974.62693 c -1.9e-5,0.12811 -0.03398,0.24578 -0.101724,0.35294 -0.06795,0.1072 -0.1424,0.16079 -0.223505,0.16078 -0.669466,0.0752 -1.216665,0.32958 -1.641522,0.76321 -0.42499,0.43367 -0.863446,1.26095 -1.315427,2.48181 l -6.918081,18.45426 c -0.04478,0.17143 -0.171431,0.25714 -0.379995,0.25714 -0.162858,0 -0.288575,-0.0857 -0.379047,-0.25714 l -3.879044,-9.6057 -4.462854,9.6057 c -0.08953,0.17143 -0.21619,0.25714 -0.379048,0.25714 -0.19905,0 -0.330472,-0.0857 -0.393335,-0.25714 l -6.795228,-18.45522 c -0.424953,-1.14637 -0.872516,-1.94695 -1.342758,-2.4019 -0.470207,-0.45486 -1.125812,-0.73589 -1.966857,-0.8431 -0.07226,10e-6 -0.140057,-0.0456 -0.203216,-0.13676 -0.06383,-0.0905 -0.09524,-0.19524 -0.09524,-0.31334 0,-0.29996 0.07226,-0.44996 0.216886,-0.44998 0.605951,2e-5 1.238946,0.0323 1.899046,0.097 0.614786,0.064 1.193423,0.0961 1.735902,0.0961 0.551332,0 1.202284,-0.032 1.952848,-0.0961 0.786974,-0.0647 1.483146,-0.0971 2.088575,-0.0971 0.1451,1e-5 0.217711,0.15001 0.217711,0.44998 0,0.3 -0.04531,0.45 -0.135717,0.44999 -0.605968,0.0536 -1.083045,0.23562 -1.431327,0.54605 -0.348246,0.31048 -0.522365,0.71732 -0.522348,1.22057 -1.7e-5,0.25688 0.0727,0.57811 0.217712,0.96371 l 5.615041,15.01808 3.187133,-7.13114 -2.970187,-7.37227 c -0.533661,-1.31762 -0.972285,-2.16638 -1.3158,-2.54648 -0.34356,-0.38003 -0.863577,-0.61287 -1.560001,-0.6985 -0.06287,1e-5 -0.123786,-0.0456 -0.182536,-0.13676 -0.0587,-0.0912 -0.08819,-0.19554 -0.08819,-0.31323 0,-0.29996 0.06322,-0.44996 0.189554,-0.44998 0.60596,3e-5 1.162005,0.0323 1.6681,0.097 0.488399,0.064 1.008286,0.0961 1.559617,0.0961 0.542462,1e-5 1.116664,-0.032 1.722658,-0.0961 0.624178,-0.0647 1.238955,-0.097 1.844384,-0.097 0.145101,10e-6 0.217703,0.15001 0.217712,0.44998 -1.8e-5,0.30001 -0.04522,0.44999 -0.135709,0.44999 -1.211911,0.0961 -1.817905,0.50293 -1.817905,1.22057 -1.7e-5,0.32157 0.140231,0.81959 0.420519,1.49409 l 1.966953,4.72237 1.952857,-4.32143 c 0.271513,-0.60976 0.407265,-1.12342 0.407274,-1.54113 -1.7e-5,-0.98552 -0.605968,-1.51039 -1.817904,-1.57447 -0.108239,0 -0.162284,-0.14998 -0.162284,-0.44999 -1.7e-5,-0.10721 0.02696,-0.20896 0.08113,-0.30539 0.05409,-0.0963 0.108421,-0.14457 0.163006,-0.14459 0.433753,2e-5 0.967145,0.0323 1.600192,0.097 0.605951,0.0641 1.103237,0.0961 1.491711,0.0961 0.280332,1e-5 0.691771,-0.0268 1.234285,-0.0804 0.687076,-0.0752 1.26133,-0.11269 1.722667,-0.11269 0.108038,10e-6 0.162258,0.12876 0.162258,0.38624 -3.5e-5,0.3425 -0.0994,0.51374 -0.298011,0.51373 -0.705328,0.0856 -1.272668,0.31585 -1.701996,0.69065 -0.429379,0.37485 -0.965241,1.22629 -1.607619,2.55438 l -2.603522,5.70181 3.525709,8.51246 5.208655,-14.34379 c 0.180991,-0.52415 0.271496,-1.00582 0.271534,-1.44505 -3.8e-5,-1.04962 -0.60599,-1.60648 -1.817909,-1.67057 -0.108769,10e-6 -0.163179,-0.14998 -0.162988,-0.44999 -1.7e-5,-0.29996 0.08131,-0.44996 0.244208,-0.44998 0.443138,2e-5 0.967719,0.0323 1.573717,0.097 0.560685,0.064 1.030857,0.0961 1.41057,0.0961 0.397886,10e-6 0.858961,-0.032 1.383332,-0.0961 0.542466,-0.0646 1.03057,-0.097 1.46438,-0.097 0.126856,2e-5 0.190361,0.12876 0.190399,0.38625 z" fill="#803300" inkscape:connector-curvature="0"/>
 </g>
</svg>
