<svg height="96" width="96" xmlns="http://www.w3.org/2000/svg" xmlns:sodipodi="http://sodipodi.sourceforge.net/DTD/sodipodi-0.dtd" xmlns:inkscape="http://www.inkscape.org/namespaces/inkscape">
 <g inkscape:label="Layer 1" inkscape:groupmode="layer" transform="matrix(1 0 0 1 0 -956.36)">
  <rect x="964.36" rx="10.769" y="8" fill="#b3b3b3" fill-opacity="1" stroke="none" height="80" width="80" transform="matrix(0 1 1 0 0 0)"/>
  <rect x="16.766" stroke-width="2.5" display="inline" y="975.89" fill="#e6e6e6" color="#000000" fill-opacity="1" fill-rule="nonzero" stroke="none" height="19.77" visibility="visible" width="64.77"/>
  <path d="m 41,982.14343 -8.25,12.65625 -24.75,0 0,38.78122 c 0,5.9662 4.815096,10.7813 10.78125,10.7813 l 58.4375,0 c 5.966154,0 10.78125,-4.8151 10.78125,-10.7813 l 0,-51.43747 -47,0 z" fill="#cccccc" fill-opacity="1" stroke="none" inkscape:connector-curvature="0"/>
  <path d="m 62.65709,982.14343 0,36.68747 7.78125,-10.9687 7.71875,10.9687 0,-9.1562 -0.03125,-27.53127 -15.46875,0 z" fill="#808080" fill-opacity="1" inkscape:connector-curvature="0"/>
  <path d="m 63.90709,982.14343 0,32.34377 6.5,-8.8125 6.40625,8.8125 0,-32.34377 -12.90625,0 z" fill="#e6e6e6" fill-opacity="1" inkscape:connector-curvature="0"/>
  <path d="m 65.15709,982.14343 0,28.49997 5.25,-7.3125 5.125,7.3125 0,-28.49997 -10.375,0 z" fill="#999999" fill-opacity="1" inkscape:connector-curvature="0"/>
 </g>
</svg>
