<svg height="16" width="16" xmlns="http://www.w3.org/2000/svg" xmlns:sodipodi="http://sodipodi.sourceforge.net/DTD/sodipodi-0.dtd" xmlns:inkscape="http://www.inkscape.org/namespaces/inkscape">
 <path d="m 3.712233,1050.126 c -0.02215,-0.022 -0.04025,-0.047 -0.04025,-0.055 0,-0.034 0.279593,-0.6059 0.316477,-0.6469 l 0.04049,-0.045 0.921711,0 c 1.03405,0 0.979024,0.01 1.052308,-0.1216 0.03839,-0.067 0.03843,-0.068 0.03843,-0.6655 l 0,-0.5985 -2.27959,-0.01 -2.27959,-0.01 -0.107954,-0.053 c -0.198094,-0.098 -0.330983,-0.2857 -0.359863,-0.5096 -0.02017,-0.1563 -0.01868,-8.1648 0.0015,-8.3045 0.03854,-0.2666 0.227067,-0.4783 0.484599,-0.5444 0.08836,-0.023 0.779777,-0.025 6.550353,-0.021 l 6.451578,0.01 0.108602,0.051 c 0.187006,0.089 0.312655,0.2318 0.365709,0.4165 0.02356,0.082 0.02565,0.4935 0.02185,4.288 l -0.0042,4.1971 -0.05263,0.1111 c -0.06369,0.1344 -0.180425,0.2534 -0.311961,0.318 l -0.09454,0.047 -2.381721,0.01 -2.381719,0.01 0,0.5824 c 0,0.6448 6e-6,0.6448 0.105518,0.7453 l 0.06024,0.058 0.860914,0.01 0.860917,0.01 0.03004,0.04 c 0.04922,0.065 0.295997,0.6068 0.295997,0.6496 0,0.095 0.278551,0.09 -4.164872,0.09 l -4.068113,0 z m 5.497442,-1.5029 c 0.162257,-0.078 0.180582,-0.277 0.03676,-0.398 l -0.05104,-0.043 -1.257243,0.01 c -1.203995,0.01 -1.259231,0.01 -1.30412,0.031 -0.139805,0.092 -0.147604,0.2978 -0.01484,0.3921 0.02495,0.017 0.0601,0.036 0.07813,0.041 0.01805,0.01 0.574656,0.01 1.236924,0.01 1.192661,0.01 1.204816,0.01 1.275449,-0.033 z m 5.186208,-5.3602 0,-4.0172 -6.386784,0 -6.386788,0 0,4.0172 0,4.0174 6.386788,0 6.386784,0 z" fill="#4d4d4d" fill-opacity="1" sodipodi:nodetypes="ssscssscccssssscssscsscccssccccsscscscscccsccccccccccc" inkscape:label="Capa 1" inkscape:groupmode="layer" inkscape:connector-curvature="0" transform="matrix(1 0 0 1 0 -1036.36)"/>
</svg>
