<?xml version="1.0" encoding="UTF-8" standalone="no"?>
<!-- Created with Inkscape (http://www.inkscape.org/) -->

<svg
   xmlns:dc="http://purl.org/dc/elements/1.1/"
   xmlns:cc="http://creativecommons.org/ns#"
   xmlns:rdf="http://www.w3.org/1999/02/22-rdf-syntax-ns#"
   xmlns:svg="http://www.w3.org/2000/svg"
   xmlns="http://www.w3.org/2000/svg"
   xmlns:sodipodi="http://sodipodi.sourceforge.net/DTD/sodipodi-0.dtd"
   xmlns:inkscape="http://www.inkscape.org/namespaces/inkscape"
   id="svg11037"
   height="96"
   width="96"
   version="1.1"
   inkscape:version="0.48.5 r10040"
   sodipodi:docname="distributor-logo.svg">
  <sodipodi:namedview
     pagecolor="#ffffff"
     bordercolor="#666666"
     borderopacity="1"
     objecttolerance="10"
     gridtolerance="10"
     guidetolerance="10"
     inkscape:pageopacity="0"
     inkscape:pageshadow="2"
     inkscape:window-width="640"
     inkscape:window-height="480"
     id="namedview13"
     showgrid="false"
     inkscape:zoom="2.4583333"
     inkscape:cx="47.999997"
     inkscape:cy="47.999997"
     inkscape:window-x="0"
     inkscape:window-y="24"
     inkscape:window-maximized="0"
     inkscape:current-layer="svg11037" />
  <defs
     id="defs11039" />
  <metadata
     id="metadata11042">
    <rdf:RDF>
      <cc:Work
         rdf:about="">
        <dc:format>image/svg+xml</dc:format>
        <dc:type
           rdf:resource="http://purl.org/dc/dcmitype/StillImage" />
        <dc:title />
      </cc:Work>
    </rdf:RDF>
  </metadata>
  <path
     style="font-size:medium;font-style:normal;font-variant:normal;font-weight:normal;font-stretch:normal;text-indent:0;text-align:start;text-decoration:none;line-height:normal;letter-spacing:normal;word-spacing:normal;text-transform:none;direction:ltr;block-progression:tb;writing-mode:lr-tb;text-anchor:start;baseline-shift:baseline;color:#000000;fill:#cccccc;fill-opacity:1;stroke:none;stroke-width:10.72118664000000088;marker:none;visibility:visible;display:inline;overflow:visible;enable-background:accumulate;font-family:Sans;-inkscape-font-specification:Sans"
     d="M 42.84375,17.84375 C 26.427394,17.84375 13,31.271144 13,47.6875 c 0,16.416356 13.427394,29.84375 29.84375,29.84375 16.416356,0 29.84375,-13.427394 29.84375,-29.84375 0,-16.416356 -13.427394,-29.84375 -29.84375,-29.84375 z m 0,10.71875 c 10.622036,0 19.125,8.502964 19.125,19.125 0,10.622036 -8.502964,19.125 -19.125,19.125 -10.622036,0 -19.125,-8.502964 -19.125,-19.125 0,-10.622036 8.502964,-19.125 19.125,-19.125 z"
     id="path3497"
     inkscape:connector-curvature="0" />
  <path
     style="font-size:medium;font-style:normal;font-variant:normal;font-weight:normal;font-stretch:normal;text-indent:0;text-align:start;text-decoration:none;line-height:normal;letter-spacing:normal;word-spacing:normal;text-transform:none;direction:ltr;block-progression:tb;writing-mode:lr-tb;text-anchor:start;baseline-shift:baseline;color:#000000;fill:#cccccc;fill-opacity:1;stroke:none;stroke-width:9.82828139999999983;marker:none;visibility:visible;display:inline;overflow:visible;enable-background:accumulate;font-family:Sans;-inkscape-font-specification:Sans"
     d="m 77.53125,18.03125 a 4.9146321,4.9146321 0 0 0 -4.90625,4.9375 l 0,50.125 A 4.9146321,4.9146321 0 0 0 77.53125,78 l 0.5625,0 A 4.9146321,4.9146321 0 0 0 83,73.09375 l 0,-50.125 a 4.9146321,4.9146321 0 0 0 -4.90625,-4.9375 l -0.5625,0 z"
     id="rect4269"
     inkscape:connector-curvature="0" />
</svg>
