<svg height="96" width="96" xmlns="http://www.w3.org/2000/svg" xmlns:sodipodi="http://sodipodi.sourceforge.net/DTD/sodipodi-0.dtd" xmlns:inkscape="http://www.inkscape.org/namespaces/inkscape">
 <g inkscape:label="Layer 1" inkscape:groupmode="layer" transform="matrix(1 0 0 1 0 -956.36)">
  <rect x="964.36" rx="10.769" y="8" fill="#004ec2" fill-opacity="1" stroke="none" height="80" width="80" transform="matrix(0 1 1 0 0 0)"/>
  <rect x="16.766" stroke-width="2.5" display="inline" y="975.89" fill="#e6e6e6" color="#000000" fill-opacity="1" fill-rule="nonzero" stroke="none" height="19.77" visibility="visible" width="64.77"/>
  <path d="m 41,982.14343 -8.25,12.65625 -24.75,0 0,38.78122 c 0,5.9662 4.815096,10.7813 10.78125,10.7813 l 58.4375,0 c 5.966154,0 10.78125,-4.8151 10.78125,-10.7813 l 0,-51.43747 -47,0 z" fill="#0f65e6" fill-opacity="1" stroke="none" inkscape:connector-curvature="0"/>
  <path d="m 79.945498,995.75282 c 0.881362,0 1.590906,0.70961 1.590906,1.59092 v 31.81816 c 0,0.8814 -0.709544,1.5909 -1.590906,1.5909 H 54.49101 c -0.881362,0 -1.590906,-0.7095 -1.590906,-1.5909 v -22.2726 c 0,-2.3865 0.688065,-3.2981 4.2509,-6.8609 3.919195,-3.91992 4.499081,-4.27558 6.885438,-4.27558 h 15.909056 z m -1.590905,3.18183 H 64.036442 v 7.95455 h -7.954527 v 20.6817 h 22.272678 v -28.63625 z m -3.181812,4.77255 v 1.5911 h -7.954527 v -1.5911 h 7.954527 z m 0,4.773 v 1.5907 h -7.954527 v -1.5907 h 7.954527 z m 0,4.7726 v 1.5909 H 60.059179 v -1.5909 h 15.113602 z m 0,4.7728 v 1.5909 H 60.059179 v -1.5909 h 15.113602 z m 0,4.7727 v 1.5908 H 60.059179 v -1.5908 h 15.113602 z" fill="#e6e6e6" inkscape:connector-curvature="0"/>
 </g>
</svg>
