<svg height="96" width="96" xmlns="http://www.w3.org/2000/svg" xmlns:sodipodi="http://sodipodi.sourceforge.net/DTD/sodipodi-0.dtd" xmlns:inkscape="http://www.inkscape.org/namespaces/inkscape">
 <g inkscape:label="Layer 1" inkscape:groupmode="layer" transform="matrix(1 0 0 1 0 -956.36)">
  <rect x="964.36" rx="10.769" y="8" fill="#004ec2" fill-opacity="1" stroke="none" height="80" width="80" transform="matrix(0 1 1 0 0 0)"/>
  <rect x="16.766" stroke-width="2.5" display="inline" y="975.89" fill="#e6e6e6" color="#000000" fill-opacity="1" fill-rule="nonzero" stroke="none" height="19.77" visibility="visible" width="64.77"/>
  <path d="m 41,982.14343 -8.25,12.65625 -24.75,0 0,38.78122 c 0,5.9662 4.815096,10.7813 10.78125,10.7813 l 58.4375,0 c 5.966154,0 10.78125,-4.8151 10.78125,-10.7813 l 0,-51.43747 -47,0 z" fill="#0f65e6" fill-opacity="1" stroke="none" inkscape:connector-curvature="0"/>
  <path d="m 74.650168,995.54065 c -1.981733,0 -3.586383,1.60622 -3.586383,3.58624 0,1.98011 1.60465,3.58641 3.586383,3.58641 1.981732,0 3.586382,-1.6063 3.586382,-3.58641 0,-1.98002 -1.60465,-3.58624 -3.586382,-3.58624 z m -7.573908,2.80882 c -2.21176,2.7e-4 -4.454102,0.55845 -6.470538,1.55484 -0.07171,0.035 -0.116424,0.0994 -0.137928,0.17559 -0.0218,0.077 -0.01737,0.158 0.02507,0.2256 l 2.909264,4.6021 c 0.07371,0.1176 0.223477,0.1665 0.351113,0.1134 1.076762,-0.4553 2.194073,-0.6772 3.323075,-0.6772 4.15272,0 7.775528,3.0772 8.426861,7.1602 0.0218,0.1372 0.137341,0.2383 0.275878,0.2383 h 5.467378 c 0.07973,0 0.159543,-0.028 0.213178,-0.088 0.05363,-0.059 0.0827,-0.133 0.07524,-0.2132 -0.294862,-3.0295 -1.590034,-5.9625 -3.636526,-8.2388 -0.09236,-0.1036 -0.246914,-0.1134 -0.363651,-0.038 -0.825224,0.5329 -1.761524,0.8151 -2.708619,0.8151 -2.763033,0 -5.003126,-2.2446 -5.00335,-4.99069 2.87e-4,0 0,-0.0952 0,-0.10081 0,-0.1372 -0.102592,-0.26487 -0.238258,-0.2884 -0.863898,-0.14966 -1.702536,-0.25073 -2.507972,-0.25073 z m -8.777637,3.00943 c -0.03786,0.014 -0.08173,0.025 -0.112854,0.05 -2.371483,1.8266 -4.149946,4.3952 -5.015943,7.2353 -0.03385,0.1106 -0.0036,0.2288 0.08778,0.301 1.191738,0.9439 1.906033,2.397 1.906033,3.8873 0,1.4903 -0.713987,2.9432 -1.906033,3.8872 -0.09093,0.071 -0.121618,0.1897 -0.08778,0.301 0.859027,2.8163 2.623548,5.3752 4.965725,7.1977 0.06282,0.049 0.134582,0.077 0.213178,0.063 0.0783,-0.014 0.145362,-0.071 0.1881,-0.1372 l 2.934299,-4.5895 c 0.07486,-0.1176 0.05453,-0.2716 -0.05016,-0.3637 -1.838275,-1.6173 -2.896672,-3.9364 -2.896672,-6.3575 0,-2.4392 1.064244,-4.7647 2.921781,-6.3826 0.104692,-0.091 0.13699,-0.2459 0.06271,-0.3638 l -2.909264,-4.6019 c -0.04245,-0.067 -0.109788,-0.112 -0.1881,-0.126 -0.03916,0 -0.075,-0.014 -0.112854,0 z m -8.088079,7.8753 c -2.028127,0 -3.67415,1.6474 -3.67415,3.674 0,2.0268 1.646023,3.6616 3.67415,3.6616 2.028129,0 3.674152,-1.6348 3.674152,-3.6616 0,-2.0266 -1.646023,-3.674 -3.674152,-3.674 z m 31.036155,4.74 -5.467379,0.014 c -0.13797,3e-4 -0.266327,0.1022 -0.288415,0.2383 -0.659991,4.0524 -4.272943,7.1099 -8.41412,7.1099 -1.14212,0 -2.271872,-0.2359 -3.360701,-0.7023 -0.127344,-0.053 -0.276251,-0.015 -0.351113,0.1008 l -2.934299,4.602 c -0.04274,0.067 -0.04631,0.1485 -0.02507,0.2256 0.02122,0.077 0.06651,0.14 0.137942,0.1756 2.032175,1.0174 4.295952,1.5548 6.533196,1.5548 0.829796,0 1.696091,-0.083 2.570632,-0.2382 0.122766,-0.021 0.211088,-0.1148 0.225718,-0.2382 0.291414,-2.5169 2.419978,-4.4139 4.953208,-4.4139 0.785348,0 1.593632,0.1981 2.319841,0.5768 0.110432,0.057 0.238551,0.039 0.326035,-0.05 2.29031,-2.3355 3.738234,-5.4149 4.062927,-8.6524 0.008,-0.08 -0.02131,-0.1537 -0.07524,-0.2131 -0.05393,-0.059 -0.133434,-0.088 -0.213179,-0.088 z m -6.45862,9.6927 c -2.028127,0 -3.67415,1.6327 -3.67415,3.649 0,2.0163 1.646023,3.6491 3.67415,3.6491 2.028128,0 3.674151,-1.6328 3.674151,-3.6491 0,-2.0161 -1.646023,-3.649 -3.674151,-3.649 z" fill="#e6e6e6" inkscape:connector-curvature="0"/>
 </g>
</svg>
