<svg height="96" width="96" xmlns="http://www.w3.org/2000/svg" xmlns:sodipodi="http://sodipodi.sourceforge.net/DTD/sodipodi-0.dtd" xmlns:inkscape="http://www.inkscape.org/namespaces/inkscape">
 <g inkscape:label="Layer 1" inkscape:groupmode="layer" transform="matrix(1 0 0 1 0 -956.36)">
  <rect x="964.36" rx="10.769" y="8" fill="#004ec2" fill-opacity="1" stroke="none" height="80" width="80" transform="matrix(0 1 1 0 0 0)"/>
  <rect x="16.766" stroke-width="2.5" display="inline" y="975.89" fill="#e6e6e6" color="#000000" fill-opacity="1" fill-rule="nonzero" stroke="none" height="19.77" visibility="visible" width="64.77"/>
  <path d="m 41,982.14343 -8.25,12.65625 -24.75,0 0,38.78122 c 0,5.9662 4.815096,10.7813 10.78125,10.7813 l 58.4375,0 c 5.966154,0 10.78125,-4.8151 10.78125,-10.7813 l 0,-51.43747 -47,0 z" fill="#0f65e6" fill-opacity="1" stroke="none" inkscape:connector-curvature="0"/>
  <path d="m 57.14076,997.2419 -10.471538,6.374 7.094864,5.9946 10.281596,-6.3362 10.319439,6.3552 -10.319439,6.3549 7.094869,6.0135 10.395853,-6.6395 -7.113791,-5.7289 7.056881,-5.9947 -10.471538,-6.35497 -6.905146,5.95667 -6.96205,-5.99466 z m -3.452582,12.3688 -7.151774,5.748 10.414768,6.6395 7.07588,-6.0135 -10.339084,-6.374 z m 10.339092,7.5883 -7.075874,6.0134 -3.111108,-1.9917 v 0.9105 l 10.243019,7.1326 10.358009,-7.1327 v -1.024 l -3.301056,2.1053 -7.113718,-6.0132 z" fill="#e6e6e6" inkscape:connector-curvature="0"/>
 </g>
</svg>
