<svg height="96" width="96" xmlns="http://www.w3.org/2000/svg" xmlns:sodipodi="http://sodipodi.sourceforge.net/DTD/sodipodi-0.dtd" xmlns:inkscape="http://www.inkscape.org/namespaces/inkscape">
 <g inkscape:label="Layer 1" inkscape:groupmode="layer" transform="matrix(1 0 0 1 0 -956.36)">
  <rect x="964.36" rx="10.769" y="8" fill="#004ec2" fill-opacity="1" stroke="none" height="80" width="80" transform="matrix(0 1 1 0 0 0)"/>
  <rect x="16.766" stroke-width="2.5" display="inline" y="975.89" fill="#e6e6e6" color="#000000" fill-opacity="1" fill-rule="nonzero" stroke="none" height="19.77" visibility="visible" width="64.77"/>
  <path d="m 41,982.14343 -8.25,12.65625 -24.75,0 0,38.78122 c 0,5.9662 4.815096,10.7813 10.78125,10.7813 l 58.4375,0 c 5.966154,0 10.78125,-4.8151 10.78125,-10.7813 l 0,-51.43747 -47,0 z" fill="#0f65e6" fill-opacity="1" stroke="none" inkscape:connector-curvature="0"/>
  <path d="m 56.088514,995.74156 c -5.275471,0 -9.55211,4.27654 -9.55211,9.55214 0,3.5476 1.953168,6.636 4.825805,8.2833 -0.03104,0.1561 -0.04935,0.3073 -0.04935,0.4729 v 1.6168 c -0.129752,-0.021 -0.260295,-0.025 -0.398004,-0.025 -1.102472,0 -1.990023,0.7101 -1.990023,1.5921 0,0.882 0.887551,1.592 1.990023,1.592 0.137802,0 0.268223,0 0.398004,-0.025 v 4.8007 c 0,1.323 1.065061,2.388 2.388028,2.388 h 3.631791 l -2.537278,3.3334 c -0.447358,0.5803 0.210147,1.4479 1.094513,1.4423 h 14.352841 c 0.884047,0.014 1.541869,-0.8617 1.094511,-1.4427 l -2.536881,-3.3337 h 4.004722 c 1.322968,0 2.388028,-1.0651 2.388028,-2.3881 v -2.4128 h 0.323379 l 4.104382,2.8606 c 0.386487,0.3432 0.883014,0.3455 1.26868,0 0.385594,-0.3455 0.645714,-1.0259 0.646757,-1.7162 v -7.0647 c 0.0084,-1.1307 -0.719265,-2.1345 -1.442766,-1.9901 -0.166016,0.034 -0.327614,0.119 -0.472631,0.2488 l -4.104383,2.8856 h -0.323377 v -2.3633 c 0,-0.496 -0.140895,-0.9625 -0.398005,-1.3439 2.1739,-1.748 3.582041,-4.4034 3.582041,-7.4123 0,-5.2753 -4.276958,-9.55212 -9.55211,-9.55212 -2.450116,0 -4.678146,0.91854 -6.368073,2.43726 -1.689927,-1.51872 -3.917957,-2.43726 -6.368073,-2.43726 z m 0,4.77614 c 1.48376,0 2.805534,0.6797 3.681542,1.7412 0.340669,0.4129 0.607547,0.8817 0.796009,1.393 0.08035,0.2195 0.15129,0.4385 0.199003,0.6716 0.0087,0.042 0.01735,0.083 0.02492,0.1246 0.0039,0.024 -0.0039,0.05 0,0.074 0.0414,0.2514 0.07483,0.5078 0.07483,0.7713 0,0.2632 -0.03335,0.5196 -0.07459,0.7711 -0.0039,0.024 0.0039,0.05 0,0.074 -0.0351,0.1984 -0.09043,0.3829 -0.149253,0.5719 -0.02332,0.074 -0.04775,0.151 -0.07459,0.2238 -0.188463,0.5116 -0.455341,0.9805 -0.796009,1.3932 -0.87561,1.0619 -2.197781,1.7417 -3.681543,1.7417 -2.637734,0 -4.776055,-2.1382 -4.776055,-4.7762 0,-2.6376 2.138321,-4.776 4.776055,-4.776 z m 12.736146,0 c 2.637736,0 4.776055,2.1383 4.776055,4.776 0,2.6377 -2.138319,4.7761 -4.776055,4.7761 -1.48376,0 -2.805534,-0.6798 -3.681542,-1.7413 -0.340669,-0.4127 -0.607546,-0.8817 -0.796009,-1.393 -0.08904,-0.2432 -0.175091,-0.4864 -0.223878,-0.7462 -0.008,-0.041 0.0063,-0.084 0,-0.1246 -0.0414,-0.2517 -0.07483,-0.5079 -0.07483,-0.7713 0,-0.2633 0.03335,-0.5198 0.07459,-0.7711 0.0063,-0.041 -0.008,-0.084 0,-0.1246 0.04879,-0.26 0.134834,-0.503 0.223877,-0.7462 0.188464,-0.5113 0.455341,-0.9803 0.796009,-1.393 0.87561,-1.062 2.197781,-1.7418 3.681542,-1.7418 z m -12.736146,1.592 c -1.758464,0 -3.184037,1.4256 -3.184037,3.184 0,1.7585 1.425573,3.184 3.184037,3.184 1.758464,0 3.184036,-1.4255 3.184036,-3.184 0,-1.7584 -1.425572,-3.184 -3.184036,-3.184 z m 12.736146,0 c -1.758464,0 -3.184036,1.4256 -3.184036,3.184 0,1.7585 1.425572,3.184 3.184036,3.184 1.758465,0 3.184037,-1.4255 3.184037,-3.184 0,-1.7584 -1.425572,-3.184 -3.184037,-3.184 z" fill="#e6e6e6" inkscape:connector-curvature="0"/>
 </g>
</svg>
