<svg height="96" width="96" xmlns="http://www.w3.org/2000/svg" xmlns:sodipodi="http://sodipodi.sourceforge.net/DTD/sodipodi-0.dtd" xmlns:inkscape="http://www.inkscape.org/namespaces/inkscape">
 <g inkscape:label="Layer 1" inkscape:groupmode="layer" transform="matrix(1 0 0 1 0 -956.36)">
  <rect x="964.36" rx="10.769" y="8" fill="#004ec2" fill-opacity="1" stroke="none" height="80" width="80" transform="matrix(0 1 1 0 0 0)"/>
  <rect x="16.766" stroke-width="2.5" display="inline" y="975.89" fill="#e6e6e6" color="#000000" fill-opacity="1" fill-rule="nonzero" stroke="none" height="19.77" visibility="visible" width="64.77"/>
  <path d="m 41,982.14343 -8.25,12.65625 -24.75,0 0,38.78122 c 0,5.9662 4.815096,10.7813 10.78125,10.7813 l 58.4375,0 c 5.966157,0 10.781247,-4.8151 10.781247,-10.7813 l 0,-51.43747 -46.999997,0 z" fill="#0f65e6" fill-opacity="1" stroke="none" inkscape:connector-curvature="0"/>
  <path d="m 65.706195,997.42211 c -8.737137,0 -15.823281,7.07429 -15.830538,15.80999 h -3.339253 l 5.524198,9.5847 5.544779,-9.5847 H 54.03942 c 0.0073,-6.435 5.230013,-11.6465 11.666446,-11.6465 6.44171,0 11.667106,5.226 11.667106,11.667 0,6.4411 -5.22566,11.6672 -11.667106,11.6672 v 4.1637 c 8.741754,0 15.830538,-7.0888 15.830538,-15.8305 0,-8.7417 -7.088784,-15.83061 -15.830538,-15.83061 z m -0.04089,6.59609 c -0.730843,0 -1.319211,0.5883 -1.319211,1.3192 v 7.9152 c 0,0.7309 0.588368,1.3192 1.319211,1.3192 h 6.596058 c 0.730844,0 1.319212,-0.5883 1.319212,-1.3192 0,-0.7308 -0.588368,-1.3192 -1.319212,-1.3192 h -5.276846 v -6.596 c 0,-0.7309 -0.588368,-1.3192 -1.319212,-1.3192 z" fill="#e6e6e6" fill-rule="evenodd" opacity="1" inkscape:connector-curvature="0"/>
 </g>
</svg>
