<svg height="96" width="96" xmlns="http://www.w3.org/2000/svg" xmlns:sodipodi="http://sodipodi.sourceforge.net/DTD/sodipodi-0.dtd" xmlns:inkscape="http://www.inkscape.org/namespaces/inkscape">
 <g inkscape:label="Layer 1" inkscape:groupmode="layer" transform="matrix(1 0 0 1 0 -956.36)">
  <rect x="964.36" rx="10.769" y="8" fill="#004ec2" fill-opacity="1" stroke="none" height="80" width="80" transform="matrix(0 1 1 0 0 0)"/>
  <rect x="16.766" stroke-width="2.5" display="inline" y="975.89" fill="#e6e6e6" color="#000000" fill-opacity="1" fill-rule="nonzero" stroke="none" height="19.77" visibility="visible" width="64.77"/>
  <path d="m 41,982.14343 -8.25,12.65625 -24.75,0 0,38.78122 c 0,5.9662 4.815096,10.7813 10.78125,10.7813 l 58.4375,0 c 5.966154,0 10.78125,-4.8151 10.78125,-10.7813 l 0,-51.43747 -47,0 z" fill="#0f65e6" fill-opacity="1" stroke="none" inkscape:connector-curvature="0"/>
  <path d="m 64.036544,1000.874 c -6.336191,0 -12.665325,2.4234 -17.50014,7.2576 l 2.910796,2.9108 c 8.056859,-8.0569 21.121841,-8.0569 29.178703,0 l 2.910501,-2.9105 c -4.834815,-4.8342 -11.16395,-7.2576 -17.500153,-7.2576 z m 0,8.2526 c -4.224011,0 -8.455917,1.6034 -11.678549,4.8262 l 2.928955,2.9291 c 4.834228,-4.8344 12.665325,-4.8344 17.500155,0 l 2.92789,-2.9291 c -3.222633,-3.2232 -7.454427,-4.8267 -11.678563,-4.8267 z m 0,8.2526 c -2.111998,0 -4.228015,0.8018 -5.839387,2.4132 l 5.839275,5.8392 5.839273,-5.8392 c -1.611008,-1.6117 -3.727205,-2.4134 -5.839273,-2.4134 z" fill="#e6e6e6" opacity="1" inkscape:connector-curvature="0"/>
 </g>
</svg>
