<svg height="96" width="96" xmlns="http://www.w3.org/2000/svg" xmlns:sodipodi="http://sodipodi.sourceforge.net/DTD/sodipodi-0.dtd" xmlns:inkscape="http://www.inkscape.org/namespaces/inkscape">
 <g inkscape:label="Layer 1" inkscape:groupmode="layer" transform="matrix(1 0 0 1 0 -956.36)">
  <rect x="964.36" rx="10.769" y="8" fill="#004ec2" fill-opacity="1" stroke="none" height="80" width="80" transform="matrix(0 1 1 0 0 0)"/>
  <rect x="16.766" stroke-width="2.5" display="inline" y="975.89" fill="#e6e6e6" color="#000000" fill-opacity="1" fill-rule="nonzero" stroke="none" height="19.77" visibility="visible" width="64.77"/>
  <path d="m 41,982.14343 -8.25,12.65625 -24.75,0 0,38.78122 c 0,5.9662 4.815096,10.7813 10.78125,10.7813 l 58.4375,0 c 5.966154,0 10.78125,-4.8151 10.78125,-10.7813 l 0,-51.43747 -47,0 z" fill="#0f65e6" fill-opacity="1" stroke="none" inkscape:connector-curvature="0"/>
  <path d="m 60.110616,997.94212 c -1.724111,0.0266 -3.767378,0.4613 -6.314788,1.50654 l -3.351972,11.50114 c 2.700754,-1.1063 4.825031,-1.6124 6.611121,-1.5985 2.708338,0.02 4.617365,1.131 6.388872,2.315 l 3.351825,-11.4646 c -1.839682,-1.2345 -3.812075,-2.30424 -6.685715,-2.25972 z m 8.444461,3.47228 -3.351971,11.5193 c 2.93467,1.974 6.477319,3.5852 12.981326,0.6982 l 3.351972,-11.4638 c -6.784006,2.7813 -10.044249,1.2094 -12.981327,-0.7534 z m -12.352057,10.123 c -1.72258,0.042 -3.775835,0.4873 -6.314788,1.5249 h -0.03704 l -3.314784,11.4464 c 6.797495,-2.7883 9.999042,-1.1749 12.944139,0.7901 l 3.389159,-11.5566 c -1.834141,-1.2355 -3.795669,-2.274 -6.666683,-2.2047 z m 8.444461,3.3254 -3.333305,11.4275 c 2.940067,1.9778 6.191487,3.5578 12.981326,0.7717 l 3.222181,-11.1519 c -6.918027,2.3466 -9.926853,0.9172 -12.870493,-1.0472 z" fill="#e6e6e6" inkscape:connector-curvature="0"/>
 </g>
</svg>
