<svg height="96" width="96" xmlns="http://www.w3.org/2000/svg" xmlns:sodipodi="http://sodipodi.sourceforge.net/DTD/sodipodi-0.dtd" xmlns:inkscape="http://www.inkscape.org/namespaces/inkscape">
 <g inkscape:label="Layer 1" inkscape:groupmode="layer" transform="matrix(1 0 0 1 0 -956.36)">
  <rect x="964.36" rx="10.769" y="8" fill="#004ec2" fill-opacity="1" stroke="none" height="80" width="80" transform="matrix(0 1 1 0 0 0)"/>
  <rect x="16.766" stroke-width="2.5" display="inline" y="975.89" fill="#e6e6e6" color="#000000" fill-opacity="1" fill-rule="nonzero" stroke="none" height="19.77" visibility="visible" width="64.77"/>
  <path d="m 41,982.14343 -8.25,12.65625 -24.75,0 0,38.78122 c 0,5.9662 4.815096,10.7813 10.78125,10.7813 l 58.4375,0 c 5.966154,0 10.78125,-4.8151 10.78125,-10.7813 l 0,-51.43747 -47,0 z" fill="#0f65e6" fill-opacity="1" stroke="none" inkscape:connector-curvature="0"/>
  <path d="m 50.153661,999.35697 c -4.82301,4.80543 -4.82301,12.60563 0,17.41093 4.204622,4.1891 10.682178,4.7471 15.472415,1.6323 0.814229,0.041 2.127288,0.1527 2.593902,0.6801 0.635308,0.7181 -0.262754,2.3968 0.955661,3.4912 l 7.577593,7.678 c 0,0 1.40565,1.5012 3.595064,-0.6801 2.189413,-2.1814 0.682612,-3.5819 0.682612,-3.5819 l -7.577514,-7.6785 c -1.098444,-1.2139 -2.783301,-0.3192 -3.504063,-0.9521 -0.529327,-0.4649 -0.641765,-1.7732 -0.682603,-2.5845 3.126379,-4.7728 2.566379,-11.2262 -1.638243,-15.41585 -4.823008,-4.80543 -12.651727,-4.80543 -17.474577,0 z m 2.957983,2.85643 c 1.491003,-1.4855 3.551313,-2.35775 5.824885,-2.35775 4.547224,0 8.236948,3.67615 8.236948,8.20685 0,4.5305 -3.689564,8.2066 -8.236948,8.2066 -4.547224,0 -8.236946,-3.6761 -8.236946,-8.2066 0,-2.2653 0.920819,-4.3634 2.411902,-5.8489 z" fill="#e6e6e6" opacity="1" inkscape:connector-curvature="0"/>
 </g>
</svg>
