<svg height="96" width="96" xmlns="http://www.w3.org/2000/svg" xmlns:sodipodi="http://sodipodi.sourceforge.net/DTD/sodipodi-0.dtd" xmlns:inkscape="http://www.inkscape.org/namespaces/inkscape">
 <g inkscape:label="Layer 1" inkscape:groupmode="layer" transform="matrix(1 0 0 1 0 -956.36)">
  <rect x="964.36" rx="10.769" y="8" fill="#004ec2" fill-opacity="1" stroke="none" height="80" width="80" transform="matrix(0 1 1 0 0 0)"/>
  <rect x="16.766" stroke-width="2.5" display="inline" y="975.89" fill="#e6e6e6" color="#000000" fill-opacity="1" fill-rule="nonzero" stroke="none" height="19.77" visibility="visible" width="64.77"/>
  <path d="m 41,982.14342 -8.25,12.65625 -24.75,0 0,38.78123 c 0,5.9662 4.815096,10.7813 10.78125,10.7813 l 58.4375,0 c 5.966154,0 10.78125,-4.8151 10.78125,-10.7813 l 0,-51.43748 -47,0 z" fill="#0f65e6" fill-opacity="1" stroke="none" inkscape:connector-curvature="0"/>
  <path d="m 68.075452,995.75281 c -3.597262,0 -6.513345,2.69785 -6.513345,6.02589 0.0087,0.3814 0.01431,0.8169 0.0543,1.2913 -0.569287,0.3007 -0.643495,1.4773 -0.135695,2.6631 0.195807,0.4574 0.462881,0.8289 0.732753,1.1299 0.0089,0.011 0.01812,0.016 0.0271,0.027 0.0644,0.3134 0.112067,0.5612 0.189973,0.9146 0.241338,0.7176 1.238653,2.0676 2.11684,3.2281 0.08758,0.8953 0.09479,1.7795 -0.08142,2.7978 -2.52779,2.0788 -8.99256,3.0128 -8.983019,5.165 l -0.868411,5.5954 c 0,1.1465 1.727675,2.1961 4.477915,2.9054 l 0.379944,1.5334 a 0.94584459,0.9375763 0 0 0 0.597065,0.6201 c 0.122069,0.047 0.208219,0.1459 0.542782,0.2421 1.762338,0.5071 4.445874,0.8609 7.463244,0.8609 3.017369,0 5.728016,-0.3538 7.490355,-0.8609 0.334555,-0.096 0.420705,-0.1953 0.54278,-0.2421 a 0.94584459,0.9375763 0 0 0 0.569925,-0.5919 l 0.461362,-1.614 c 2.68306,-0.7082 4.396504,-1.7213 4.396504,-2.8516 l -0.868488,-5.5953 c -0.01034,-1.842 -6.513345,-3.013 -9.010051,-5.1651 -0.101086,-0.8244 -0.10576,-1.636 -0.0543,-2.448 0.798447,-1.2208 1.849632,-2.7833 2.116841,-3.5779 0.09819,-0.4114 0.140847,-0.6958 0.217115,-1.0491 0.23578,-0.2857 0.450144,-0.6156 0.624192,-1.0223 0.482232,-1.1262 0.437209,-2.2168 -0.0543,-2.5824 0.03434,-0.4894 0.0671,-0.9537 0.08141,-1.372 7e-6,-3.32795 -2.916163,-6.0258 -6.513346,-6.0258 z" fill="#e6e6e6" inkscape:connector-curvature="0"/>
 </g>
</svg>
