<svg height="16" width="16" xmlns="http://www.w3.org/2000/svg" xmlns:sodipodi="http://sodipodi.sourceforge.net/DTD/sodipodi-0.dtd" xmlns:inkscape="http://www.inkscape.org/namespaces/inkscape">
 <path d="M 6 2 L 6 7 L 7 7 L 7 2 L 6 2 z M 9 2 L 9 7 L 10 7 L 10 2 L 9 2 z M 3 7 L 5.2382812 9.2363281 L 5.234375 9.2402344 L 5.7011719 9.7050781 L 5.6992188 9.7070312 L 7.9921875 12 L 8 11.992188 L 8.0078125 12 L 10.300781 9.7070312 L 10.298828 9.7050781 L 10.765625 9.2402344 L 10.761719 9.2363281 L 13 7 L 11.587891 7 L 9.5898438 8.9941406 L 9.59375 8.9980469 L 9.59375 9 L 8 10.59375 L 6.40625 9 L 6.40625 8.9980469 L 6.4101562 8.9941406 L 4.4121094 7 L 3 7 z M 2 13 L 2 14 L 14 14 L 14 13 L 2 13 z " fill="#bebebe" fill-opacity="1" stroke="none" opacity="1" inkscape:label="Layer 1" inkscape:groupmode="layer" transform="matrix(1 0 0 1 0 0)"/>
</svg>
