<?xml version="1.0" encoding="UTF-8" standalone="no"?>
<!-- Created with Inkscape (http://www.inkscape.org/) -->

<svg
   xmlns:dc="http://purl.org/dc/elements/1.1/"
   xmlns:cc="http://creativecommons.org/ns#"
   xmlns:rdf="http://www.w3.org/1999/02/22-rdf-syntax-ns#"
   xmlns:svg="http://www.w3.org/2000/svg"
   xmlns="http://www.w3.org/2000/svg"
   xmlns:sodipodi="http://sodipodi.sourceforge.net/DTD/sodipodi-0.dtd"
   xmlns:inkscape="http://www.inkscape.org/namespaces/inkscape"
   id="svg2"
   height="16"
   viewBox="0 0 16 16"
   width="16"
   version="1.1"
   inkscape:version="0.48.5 r10040"
   sodipodi:docname="folder-video-symbolic.svg">
  <defs
     id="defs201284" />
  <sodipodi:namedview
     pagecolor="#ffffff"
     bordercolor="#666666"
     borderopacity="1"
     objecttolerance="10"
     gridtolerance="10"
     guidetolerance="10"
     inkscape:pageopacity="0"
     inkscape:pageshadow="2"
     inkscape:window-width="640"
     inkscape:window-height="480"
     id="namedview201282" />
  <metadata
     id="metadata7">
    <rdf:RDF>
      <cc:Work
         rdf:about="">
        <dc:format>image/svg+xml</dc:format>
        <dc:type
           rdf:resource="http://purl.org/dc/dcmitype/StillImage" />
        <dc:title />
      </cc:Work>
    </rdf:RDF>
  </metadata>
  <g
     id="layer1"
     transform="translate(0 -1036.4)">
    <path
       id="rect4074"
       style="fill:#4d4d4d"
       d="m2 2v12h12v-12h-12zm3 1h6v4h-6v-4zm-2 1h1v1h-1v-1zm9 0h1v1h-1v-1zm-9 3.5h1v1h-1v-1zm9 0h1v1h-1v-1zm-7 1.5h6v4h-6v-4zm-2 2h1v1h-1v-1zm9 0h1v1h-1v-1z"
       transform="translate(0 1036.4)" />
  </g>
</svg>
