<svg height="16" width="16" xmlns="http://www.w3.org/2000/svg" xmlns:sodipodi="http://sodipodi.sourceforge.net/DTD/sodipodi-0.dtd" xmlns:inkscape="http://www.inkscape.org/namespaces/inkscape">
 <path d="M 5 2 L 5 10.275391 C 4.7049987 10.104291 4.3669301 10 4 10 C 2.892 10 2 10.892 2 12 C 2 13.108 2.892 14 4 14 C 5.108 14 6 13.108 6 12 L 6 3 L 12 3 L 12 2 L 6 2 L 5 2 z M 13 2 L 13 5 L 8 5 L 8 6 L 13 6 L 13 8.5078125 C 12.581836 8.19301 12.066048 8 11.5 8 C 10.115 8 9 9.115 9 10.5 C 9 11.885 10.115 13 11.5 13 C 12.885 13 14 11.885 14 10.5 L 14 2 L 13 2 z M 11.5 9 C 12.331 9 13 9.669 13 10.5 C 13 11.331 12.331 12 11.5 12 C 10.669 12 10 11.331 10 10.5 C 10 9.669 10.669 9 11.5 9 z M 4 11 C 4.554 11 5 11.446 5 12 C 5 12.554 4.554 13 4 13 C 3.446 13 3 12.554 3 12 C 3 11.446 3.446 11 4 11 z " fill="#bebebe" fill-opacity="1" stroke="none" opacity="1" inkscape:label="Layer 1" inkscape:groupmode="layer" transform="matrix(1 0 0 1 0 0)"/>
</svg>
