<svg height="96" width="96" xmlns="http://www.w3.org/2000/svg" xmlns:xlink="http://www.w3.org/1999/xlink" xmlns:sodipodi="http://sodipodi.sourceforge.net/DTD/sodipodi-0.dtd" xmlns:inkscape="http://www.inkscape.org/namespaces/inkscape">
 <defs>
  <linearGradient x2="0" y1="962.62" y2="1046.1" gradientUnits="userSpaceOnUse" id="linearGradient11642" gradientTransform="matrix(1.15 0 0 1.15 -7.2 -150.65)">
   <stop stop-color="#4f4f4f"/>
   <stop stop-color="#a2a2a2" offset="1"/>
  </linearGradient>
  <clipPath clipPathUnits="userSpaceOnUse" id="clipPath3009">
   <path d="m-2 956.36h-96v33.562l96 25.687v-59.25z"/>
  </clipPath>
  <linearGradient id="linearGradient3737">
   <stop stop-color="#fff"/>
   <stop stop-color="#fff" stop-opacity="0" offset="1"/>
  </linearGradient>
  <filter x="-0.168" y="-0.42" height="1.84" color-interpolation-filters="sRGB" id="filter3531" width="1.336">
   <feGaussianBlur stdDeviation="0.55"/>
  </filter>
  <linearGradient x2="0" y1="92.54" y2="7.02" gradientUnits="userSpaceOnUse" id="linearGradient3175" gradientTransform="matrix(1.0059 0 0 0.99417 0 0)">
   <stop/>
   <stop stop-opacity="0" offset="1"/>
  </linearGradient>
  <filter color-interpolation-filters="sRGB" id="filter6045">
   <feGaussianBlur stdDeviation="0.19031"/>
  </filter>
  <linearGradient id="linearGradient5892">
   <stop stop-color="#484848"/>
   <stop stop-color="#5d5d5d" offset="1"/>
  </linearGradient>
  <filter color-interpolation-filters="sRGB" id="filter6036">
   <feGaussianBlur stdDeviation="0.285"/>
  </filter>
  <linearGradient id="linearGradient6151">
   <stop stop-color="#5b5b5b"/>
   <stop stop-color="#0a0a0a" offset="1"/>
  </linearGradient>
  <linearGradient x1="6" x2="48" gradientUnits="userSpaceOnUse" id="linearGradient4386" gradientTransform="matrix(1 0 0 1 -96 -42)">
   <stop stop-color="#dcdcdc"/>
   <stop stop-color="#f0f0f0" offset="1"/>
  </linearGradient>
  <linearGradient x2="0" xlink:href="#linearGradient3737" y1="48" y2="74.76" gradientUnits="userSpaceOnUse" id="linearGradient4388"/>
  <radialGradient cy="79.22" r="16" gradientUnits="userSpaceOnUse" id="radialGradient4390" cx="27" gradientTransform="matrix(1.3473 0 0 1.1118 -9.376 -10.382)">
   <stop stop-color="#55a6eb"/>
   <stop stop-color="#1754c4" offset="1"/>
  </radialGradient>
  <linearGradient x2="0" xlink:href="#linearGradient3737" y1="50" y2="90.68" gradientUnits="userSpaceOnUse" id="linearGradient4392"/>
  <linearGradient x2="0" xlink:href="#linearGradient3737" y1="54.06" y2="76.51" gradientUnits="userSpaceOnUse" id="linearGradient4394"/>
  <linearGradient x2="0" y1="90" y2="5.988" gradientUnits="userSpaceOnUse" id="linearGradient4398" gradientTransform="matrix(0.5 0 0 0.5 3 45)">
   <stop stop-color="#0a0a0a"/>
   <stop stop-color="#3c3c3c" offset="1"/>
  </linearGradient>
  <linearGradient x2="0" xlink:href="#linearGradient3175" y1="70.75" y2="48" gradientUnits="userSpaceOnUse" id="linearGradient4400"/>
  <radialGradient cy="29.29" r="21" gradientUnits="userSpaceOnUse" id="radialGradient4402" cx="85.65" gradientTransform="matrix(-1.1097 0 0 -0.24527 136.46 59.659)">
   <stop stop-color="#8080f6"/>
   <stop stop-color="#5530ea" offset="1"/>
  </radialGradient>
  <radialGradient cy="24.19" r="27" xlink:href="#linearGradient3737" gradientUnits="userSpaceOnUse" id="radialGradient4404" cx="23.865" gradientTransform="matrix(0.96086 0 0 0.44454 -6.931 51.25)"/>
  <linearGradient x2="0" xlink:href="#linearGradient3737" y1="48" y2="74.36" gradientUnits="userSpaceOnUse" id="linearGradient4406"/>
  <linearGradient x1="34.571" x2="43.21" xlink:href="#linearGradient6151" gradientUnits="userSpaceOnUse" id="linearGradient4430"/>
  <linearGradient x1="34.37" x2="43.42" xlink:href="#linearGradient6151" gradientUnits="userSpaceOnUse" id="linearGradient4432"/>
  <linearGradient x2="0" y1="72" y2="82.01" gradientUnits="userSpaceOnUse" id="linearGradient5270" gradientTransform="matrix(0.52941 0 0 0.52632 0.353 43.553)">
   <stop stop-color="#333"/>
   <stop stop-color="#333" offset="0.431"/>
   <stop offset="0.555"/>
   <stop offset="1"/>
  </linearGradient>
  <linearGradient x2="0" xlink:href="#linearGradient5892" y1="73" y2="83.04" gradientUnits="userSpaceOnUse" id="linearGradient5272" gradientTransform="matrix(0.52941 0 0 0.52632 0.353 43.553)"/>
  <linearGradient x1="33" x2="34" xlink:href="#linearGradient3175" gradientUnits="userSpaceOnUse" id="linearGradient5274" gradientTransform="matrix(1 0 0 0.52633 -15 42.926)"/>
  <linearGradient x1="33" x2="34" xlink:href="#linearGradient3175" gradientUnits="userSpaceOnUse" id="linearGradient5276" gradientTransform="matrix(1 0 0 0.52632 -57 42.928)"/>
  <linearGradient x2="0" xlink:href="#linearGradient5892" y1="72" y2="42" gradientUnits="userSpaceOnUse" id="linearGradient5278" gradientTransform="matrix(0.52941 0 0 0.52632 0.353 42.928)"/>
  <linearGradient x1="33" x2="34" xlink:href="#linearGradient3175" gradientUnits="userSpaceOnUse" id="linearGradient5280" gradientTransform="matrix(1 0 0 0.66667 48 -72)"/>
  <linearGradient x1="36.925" x2="42.851" gradientUnits="userSpaceOnUse" id="linearGradient5282">
   <stop stop-opacity="0.426"/>
   <stop stop-color="#fff" stop-opacity="0.317" offset="1"/>
  </linearGradient>
  <linearGradient x1="34.14" x2="43.643" gradientUnits="userSpaceOnUse" id="linearGradient5284">
   <stop stop-color="#fff"/>
   <stop stop-color="#7c7c7c" offset="1"/>
  </linearGradient>
  <linearGradient x1="30" x2="48" gradientUnits="userSpaceOnUse" id="linearGradient5286" gradientTransform="matrix(0.55556 0 0 0.5 -0.667 46)">
   <stop stop-color="#1a1a1a"/>
   <stop stop-color="#1a1a1a" offset="0.251"/>
   <stop stop-color="#cdff01" offset="0.501"/>
   <stop stop-color="#1a1a1a" offset="0.75"/>
   <stop stop-color="#1a1a1a" offset="1"/>
  </linearGradient>
  <linearGradient x2="0" xlink:href="#linearGradient11642" y1="34" y2="32" gradientUnits="userSpaceOnUse" id="linearGradient5290" gradientTransform="matrix(0.55556 0 0 0.5 -0.667 46)"/>
  <path d="m38.512 27.246a1.1364 1.0733 0 1 1 -2.2728 0 1.1364 1.0733 0 1 1 2.2728 0z" id="SVGCleanerId_0"/>
  <path d="m42.851 48a3.9597 3.9597 0 1 1 -7.9194 0 3.9597 3.9597 0 1 1 7.9194 0z" id="SVGCleanerId_1"/>
  <rect x="16" y="61" fill="url(#linearGradient5286)" height="1" id="SVGCleanerId_2" width="10"/>
 </defs>
 <g transform="matrix(1 0 0 1 0 -956.36)">
  <rect x="2" rx="25" y="958.36" fill="url(#linearGradient11642)" height="92" width="92"/>
  <g transform="matrix(0.81454 0 0 0.81454 10.113 965.05)">
   <g transform="matrix(1 0 0 1 0 -42)">
    <rect x="-90" rx="6" y="6" fill="url(#linearGradient4386)" height="42" width="42" transform="matrix(0 -1 1 0 0 0)"/>
    <path d="m12 48c-3.324 0-6 2.676-6 6v30c0 2.9849 2.1528 5.4349 5 5.9062-2.2774-0.4584-3.9688-2.4497-3.9688-4.875v-30c0-2.772 2.197-4.969 4.9688-4.969h30c2.7718 0 4.9688 2.1969 4.9688 4.9688v30c0 2.4253-1.6913 4.4166-3.9688 4.875 2.847-0.471 5-2.921 5-5.906v-30c0-3.324-2.676-6-6-6h-30z" fill="url(#linearGradient4388)" opacity="0.5"/>
    <rect x="8" rx="4" y="50" height="34" width="38"/>
    <path d="m19.5 82c-0.831 0-1.5 0.669-1.5 1.5h-1.5v0.5c0.828 0 1.5 0.672 1.5 1.5v1c0 0.831 0.669 1.5 1.5 1.5h15c0.831 0 1.5-0.669 1.5-1.5v-1c0-0.828 0.672-1.5 1.5-1.5v-0.5h-1.5c0-0.831-0.669-1.5-1.5-1.5h-15z"/>
    <rect x="50.571" rx="1.571" y="79.54" fill="#cf0" height="3.143" filter="url(#filter3531)" opacity="0.243" width="7.857" transform="matrix(0.52386 0 0 0.70493 2.507 28.378)"/>
    <rect x="29.971" rx="0.435" ry="0.5" y="85.05" fill="#7fff2a" height="1" width="2.175"/>
    <rect x="11" y="53" fill="url(#radialGradient4390)" height="28" width="32"/>
    <path d="m11 53v28h32v-28h-32zm1 1h30v26h-30v-26z" fill="#103c8c"/>
    <path d="m11 81h32v0.5h-32v-0.5z" fill="#7f7f7f"/>
    <path d="m27.281 50 0.875 3h14.844v28h-6.5312l0.875 3h4.656c2.216 0 4-1.784 4-4v-26c0-2.216-1.784-4-4-4h-14.719z" fill="url(#linearGradient4392)" fill-rule="evenodd" opacity="0.3"/>
    <path d="m28.469 54.062 7.6875 25.875h5.7812v-25.875h-13.469z" fill="url(#linearGradient4394)" fill-rule="evenodd" opacity="0.7"/>
    <path d="m28.469 54.062 7.6875 25.875h0.53125l-7.687-25.875h-0.53125z" fill="url(#linearGradient4394)" fill-rule="evenodd" opacity="0.7"/>
    <path d="m8 80v1c0 2.216 1.784 4 4 4h4.5c0.828 0 1.5 0.672 1.5 1.5v-1c0-0.828-0.672-1.5-1.5-1.5h-4.5c-2.216 0-4-1.784-4-4zm10 6.5v1c0 0.831 0.669 1.5 1.5 1.5h15c0.831 0 1.5-0.669 1.5-1.5v-1c0 0.831-0.669 1.5-1.5 1.5h-15c-0.831 0-1.5-0.669-1.5-1.5zm18 0c0-0.828 0.672-1.5 1.5-1.5h4.5c2.216 0 4-1.784 4-4v-1c0 2.216-1.784 4-4 4h-4.5c-0.828 0-1.5 0.672-1.5 1.5v1z" fill="#fff"/>
   </g>
   <g transform="matrix(1 0 0 1 37.8 0)">
    <rect x="6" rx="6" y="48" fill="url(#linearGradient4398)" height="42" width="42"/>
    <path d="m12 48c-3.324 0-6 2.676-6 6v30c0 3.324 2.676 6 6 6h30c3.324 0 6-2.676 6-6v-30c0-3.324-2.676-6-6-6h-30zm0 1h30c2.7789 0 5 2.2211 5 5v30c0 2.7789-2.2211 5-5 5h-30c-2.7789 0.000003-5-2.2211-5-5v-30c0-2.7789 2.2211-5 5-5z" fill="url(#linearGradient4400)"/>
    <rect x="20.5" y="52.5" fill="url(#radialGradient4402)" stroke="#2f2485" height="5" width="21" stroke-linecap="square"/>
    <rect x="16" y="48" fill="url(#radialGradient4404)" height="14" opacity="0.3" width="30"/>
    <path d="m22.938 53.207c-0.06893 0.12707 0.02102 0.21683 0.17122 0.17062 0.10295 0.03719-0.0073 0.2377 0.01363 0.34125-0.0038 0.13845-0.03476 0.28578-0.02844 0.44078-0.01208 0.11906-0.0048 0.29414-0.20024 0.2275-0.12348-0.0299-0.09402 0.23379 0.04383 0.15641 0.16543-0.0099 0.37026 0.01953 0.51187-0.01422 0.08156-0.1778-0.09224-0.14465-0.21446-0.14219-0.0018-0.09049 0.01476-0.26339 0.02961-0.35547 0.01393-0.23053 0.03548-0.43432 0.05687-0.65406 0.12398 0.00015 0.28154 0.03909 0.24172-0.14219-0.0675-0.06521-0.25497-0.01045-0.36969-0.02844h-0.25594zm4.9481 0c0.02307 0.16363-0.17864 0.07521-0.15641 0.24172-0.0013 0.13118-0.01962 0.24357-0.02844 0.38391 0.15148-0.03299 0.06124 0.17574 0.2275 0.12797h0.455c0.006 0.14347-0.0403 0.2824-0.02844 0.42656-0.18924 0.0098-0.41729-0.01917-0.58297 0.01422-0.08435 0.18428 0.1044 0.14174 0.2275 0.14219 0.12337-0.0093 0.28405 0.01863 0.3839-0.01422-0.01234-0.15671 0.20319-0.05327 0.14219-0.25594 0.0186-0.12585 0.02371-0.22152 0.02844-0.34125-0.15148 0.03299-0.06124-0.17574-0.2275-0.12797h-0.455c-0.0096-0.14408 0.04069-0.28222 0.02844-0.42656 0.19438-0.0094 0.426 0.01839 0.59719-0.01422 0.05681-0.18042-0.08201-0.16524-0.21446-0.15641h-0.39695zm1.0948 0c0.02307 0.16363-0.17864 0.07521-0.15641 0.24172-0.0013 0.13118-0.01962 0.24357-0.02844 0.38391 0.17762 0.01848 0.08741 0.08707-0.01422 0.11375-0.0068 0.14738-0.02754 0.30659-0.04266 0.46922 0.15148-0.03299 0.06124 0.17574 0.2275 0.12797 0.16546-0.0099 0.36984 0.01911 0.51187-0.01422 0.08156-0.1778-0.09224-0.14465-0.21445-0.14219h-0.35429c0.01535-0.12766 0.01506-0.30516 0.04266-0.42656 0.19007-0.009 0.41656 0.01843 0.58297-0.01422 0.05448-0.17336-0.0919-0.14586-0.21445-0.14219-0.11091-0.01771-0.30918 0.0362-0.36282-0.02846 0.02198-0.14023 0.02733-0.27087 0.03696-0.3981 0.18914-0.0099 0.41722 0.0191 0.58297-0.01422 0.08676-0.19359-0.09409-0.16034-0.2275-0.15641h-0.36969zm1.0948 0c0.0091 0.15138-0.20144 0.06613-0.15641 0.25594-0.0026 0.11936-0.02024 0.22551-0.02844 0.35547 0.19699 0.02975 0.05509 0.06992-0.01422 0.12797 0.01486 0.1529-0.0627 0.33865-0.01422 0.46922 0.16483 0.05088 0.14505-0.08284 0.15641-0.18543 0.01705-0.11082-0.02578-0.3171 0.14219-0.26957 0.16714-0.03877 0.20471 0.05202 0.21328 0.1718 0.01602 0.0926 0.05708 0.16016 0.05688 0.26898 0.08845 0.07106 0.22564-0.03022 0.1564-0.12797-0.01171-0.07707-0.0526-0.12702-0.04266-0.2275-0.14047-0.09801 0.1759-0.04446 0.08531-0.21328 0.17476 0.05153 0.12461-0.12185 0.14219-0.2275-0.01245-0.10899 0.11121-0.33673-0.08531-0.28437 0.05179-0.18944-0.18708-0.08821-0.29918-0.11375h-0.31222zm2.1755 0c0.03914 0.16711-0.18767 0.06827-0.14219 0.24172-0.01336 0.14084-0.02679 0.24987-0.02844 0.38391 0.17151 0.01448 0.07904 0.08544-0.01422 0.11375-0.0248 0.16635-0.02367 0.29951-0.04266 0.46922 0.15148-0.03299 0.06124 0.17574 0.2275 0.12797 0.16639-0.009 0.36943 0.0187 0.51187-0.01422 0.05448-0.17336-0.0919-0.14586-0.21445-0.14219-0.10982-0.01795-0.29288 0.03734-0.35429-0.02903-0.0047-0.13391 0.04065-0.26288 0.02844-0.39754 0.18914-0.0099 0.41722 0.0191 0.58297-0.01422 0.07839-0.17043-0.07974-0.14736-0.20024-0.14219-0.11057-0.01799-0.30853 0.03567-0.36282-0.02846 0.01718-0.14301 0.01543-0.25268 0.03696-0.3981 0.1896-0.0095 0.41743 0.01931 0.58297-0.01422 0.08357-0.18667-0.0821-0.16315-0.21445-0.15641h-0.39695zm1.0948 0c0.02729 0.15322-0.17623 0.06289-0.14219 0.24172-0.008 0.11638-0.03457 0.27715-0.01422 0.36969 0.21368 0.04894-0.03311 0.05117-0.02844 0.157-0.011 0.12763-0.02789 0.28083-0.04266 0.42597 0.12185 0.0642 0.20917-0.01119 0.17632-0.15643 0.04985-0.10017-0.04691-0.32798 0.12228-0.28435 0.136-0.01222 0.22857-0.0115 0.21328 0.11375 0.02692 0.05932 0.03439 0.1424 0.05687 0.21328-0.0052 0.07389 0.05123 0.19054 0.17062 0.11375 0.03394-0.07776-0.0042-0.20385-0.04266-0.25594-0.03271-0.1486-0.02491-0.1795 0.09953-0.21328-0.01378-0.15071 0.19873-0.06001 0.13366-0.27018 0.0037-0.10485 0.06258-0.28145-0.0057-0.34122-0.1323 0.01958-0.0203-0.19218-0.2275-0.11375h-0.46922zm-11.632 0.128c-0.01809 0.14046-0.04671 0.33376-0.04266 0.49766 0.09976 0.05974 0.20469-0.0093 0.17062-0.14219-0.0027-0.10252 0.04225-0.24922 0.01422-0.34125-0.0069-0.0342-0.1082-0.0049-0.14219-0.01422zm2.2039 0c-0.04191 0.10869-0.03173 0.24733-0.04266 0.36969-0.09105 0.14267 0.09988 0.18966 0.1564 0.11375-0.02457-0.12327 0.04978-0.34825 0.04266-0.09953 0.01037 0.07923 0.07107 0.18423 0.18484 0.11375 0.03334-0.13212-0.02186-0.17124-0.02844-0.27016-0.07168-0.04665-0.0089-0.18141-0.07109-0.2275h-0.24172zm0.69672 0c-0.03315 0.13632-0.03273 0.32615-0.05687 0.49766 0.11393 0.06526 0.20307-0.0146 0.18484-0.12797-0.02244-0.11991 0.05089-0.27407 0.01422-0.36969h-0.14219zm0.39812 0c-0.03341 0.13652-0.03194 0.32622-0.05687 0.49766 0.11393 0.06526 0.20307-0.0146 0.18484-0.12797-0.02092-0.11544 0.0614-0.3009-0.01422-0.36969h-0.11375zm0.69672 0c-0.01809 0.14046-0.04671 0.33376-0.04266 0.49766 0.09976 0.05974 0.20469-0.0093 0.17062-0.14219-0.0027-0.10252 0.04225-0.24922 0.01422-0.34125-0.01309-0.03513-0.10233-0.0044-0.14219-0.01422zm0.52609 0c-0.07212 0.10712 0.02568 0.15106 0 0.25594 0.04666 0.05085 0.04695 0.14595 0.05687 0.2275 0.06776 0.08105 0.2413 0.02184 0.17062-0.12797-0.05693-0.05208-0.02417-0.19385-0.08531-0.24172 0.02174-0.13061-0.0287-0.11882-0.14219-0.11375zm0.455 0c-0.0182 0.08476-0.05139 0.1739-0.09953 0.24172-0.01218 0.08234-0.09757 0.16726-0.04266 0.27016 0.16622 0.0478 0.15828-0.09812 0.19439-0.19945 0.0457-0.08278 0.06889-0.14968 0.1042-0.25555 0.01773-0.09108-0.09261-0.0469-0.15641-0.05687zm4.3509 0c-0.05664 0.13756-0.03301 0.33604-0.05687 0.49766 0.12366 0.07195 0.19497-0.03483 0.17632-0.17065 0.000928-0.11799 0.04233-0.23396 0.0085-0.32701h-0.12797zm0.58297 0c-0.03456 0.08774-0.06653 0.16811-0.09953 0.24172-0.02693 0.06928-0.12874 0.19773-0.04266 0.27016 0.14952 0.04004 0.15431-0.10272 0.18484-0.18543 0.013-0.09926 0.10655-0.15439 0.09953-0.27074 0.01687-0.08492-0.08113-0.04851-0.14219-0.0557zm-1.5356 0.04266h0.54031c-0.01476 0.12345-0.01817 0.27229-0.04266 0.41234h-0.52609c-0.0067-0.13873 0.03892-0.27301 0.02844-0.41234zm3.2845 0h0.54031c-0.02912 0.14677-0.01709 0.26295-0.04266 0.41234h-0.54031c0.03213-0.14174 0.03042-0.28307 0.04266-0.41234zm-11.702 0.54031c-0.04787 0.1341-0.02478 0.28947-0.05404 0.44083 0.0076 0.09864 0.1412 0.08551 0.13935 0.19901 0.19477-0.009 0.42604 0.01844 0.59719-0.01422 0.05681-0.18042-0.082-0.16524-0.21446-0.15641-0.11007-0.01752-0.3109 0.03581-0.36147-0.02816 0.0219-0.15281 0.03134-0.28214 0.03562-0.42684-0.02727-0.0247-0.09284-0.01131-0.14219-0.01422zm2.1897 0c-0.02071 0.13971-0.0466 0.33433-0.04266 0.49766 0.11317 0.06765 0.18316-0.02435 0.17062-0.12797-0.02244-0.11991 0.05089-0.27407 0.01422-0.36969h-0.14219zm0.46922 0c-0.04308 0.08922 0.01658 0.19 0.02844 0.27016 0.04898 0.0697-0.01263 0.25 0.11434 0.24172 0.13168 0.01589 0.2485 0.01077 0.21269-0.15641 0.01861-0.12585 0.02371-0.22152 0.02844-0.34125-0.12185-0.0642-0.20916 0.01119-0.17632 0.15643-0.02096 0.13647-0.04626-0.09481-0.05118-0.12799 0.0093-0.07239-0.10199-0.03306-0.1564-0.04266zm0.62562 0c-0.02891 0.11738-0.02033 0.30667-0.04266 0.42715-0.0062 0.12809 0.1491 0.06763 0.11375 0.21269 0.20408-0.0092 0.44486 0.01829 0.62562-0.01422-0.05215-0.18012 0.20655-0.04939 0.12797-0.25594 0.0088-0.11367 0.06869-0.30067 0-0.36969-0.18204-0.05762-0.13236 0.15309-0.15641 0.27016 0.01126 0.13962-0.01719 0.23953-0.18602 0.19906-0.1044-0.02951-0.36569 0.06349-0.35443-0.05632 0.0068-0.12624 0.03497-0.29676 0.01436-0.39868-0.0069-0.0342-0.1082-0.0049-0.14219-0.01422zm1.3366 0c-0.0182 0.08476-0.05139 0.1739-0.09953 0.24172-0.0039 0.08214-0.10804 0.16998-0.05688 0.27016 0.1736 0.05984 0.14104-0.08646 0.19906-0.14219 0.03045-0.1155 0.06372-0.17682 0.10522-0.27018 0.04591-0.12971-0.05193-0.0971-0.14788-0.09951zm0.24172 0c-0.07212 0.10712 0.02568 0.15106 0 0.25594 0.04666 0.05085 0.04695 0.14594 0.05687 0.2275 0.06776 0.08105 0.2413 0.02184 0.17062-0.12797-0.05693-0.05208-0.02417-0.19385-0.08531-0.24172 0.02174-0.13061-0.0287-0.11883-0.14219-0.11375zm4.4505 0c-0.03315 0.13632-0.03273 0.32615-0.05688 0.49766 0.06269 0.0049 0.28548 0.0663 0.28915-0.04285 0.02641-0.11449 0.08878-0.17754 0.10898-0.2984 0.0923-0.06998 0.03407-0.21982-0.11375-0.15641-0.02341 0.08559-0.04771 0.17031-0.08531 0.24172-0.02341-0.07206 0.06712-0.30356-0.11375-0.24172h-0.02844zm-7.9909 1.4787c0.03507 0.16304-0.20384 0.05209-0.14219 0.24172 0.000719 0.1183-0.07323 0.30978 0 0.3839 0.14135-0.02209 0.0089 0.21305 0.2275 0.12797h0.42656c-0.02824 0.14736-0.01721 0.26292-0.04266 0.41234-0.19006 0.009-0.41656-0.01843-0.58297 0.01422-0.0568 0.18043 0.08201 0.16524 0.21446 0.15641 0.13241-0.0094 0.30248 0.01889 0.41116-0.01422-0.05215-0.18012 0.20655-0.04939 0.12797-0.25594 0.0097-0.1132 0.06868-0.30018 0-0.36969-0.22569-0.04727 0.10069-0.03935 0.05688-0.17062 0.006-0.13186 0.03671-0.30362 0.01422-0.41234-0.15819 0.0397-0.04783-0.18915-0.24172-0.11375h-0.46922zm1.0948 0c-0.06893 0.12707 0.02102 0.21683 0.17122 0.17062h0.39753c-0.02824 0.14736-0.01721 0.26292-0.04266 0.41234-0.18979 0.0093-0.41735-0.01922-0.58297 0.01422-0.01299 0.13644-0.18427 0.08288-0.14219 0.25594 0.02913 0.11158-0.07178 0.29135 0 0.35547 0.14128-0.01805 0.03914 0.20733 0.24172 0.12797 0.15132-0.0098 0.34129 0.019 0.46922-0.01422 0.08357-0.18667-0.0821-0.16315-0.21446-0.15641-0.10982-0.01795-0.29288 0.03734-0.35429-0.02903-0.0018-0.12889 0.0403-0.25343 0.02844-0.38332 0.19455-0.0092 0.4262 0.01859 0.59719-0.01422-0.05215-0.18012 0.20655-0.04939 0.12797-0.25594 0.0097-0.1132 0.06868-0.30018 0-0.36969-0.1323 0.01958-0.0203-0.19218-0.2275-0.11375h-0.46922zm2.5452 0c0.0091 0.15137-0.20144 0.06613-0.15641 0.25594 0.0099 0.11346-0.04454 0.25536-0.01422 0.35547 0.21368 0.04894-0.0331 0.05117-0.02844 0.157-0.011 0.12763-0.02789 0.28084-0.04266 0.42597 0.16115-0.03792 0.05207 0.19439 0.2275 0.14219 0.16546-0.0099 0.36984 0.01911 0.51187-0.01422-0.02954-0.17246 0.19648-0.06059 0.14219-0.25594 0.0047-0.11676 0.02081-0.22581 0.02844-0.35547-0.15148 0.03299-0.06124-0.17574-0.2275-0.12797h-0.46922c0.03186-0.14286 0.03036-0.2816 0.04266-0.41234 0.18914-0.0099 0.41722 0.0191 0.58297-0.01422 0.08676-0.19359-0.09409-0.16034-0.2275-0.15641h-0.36969zm1.0948 0c0.0091 0.15137-0.20144 0.06613-0.15641 0.25594 0.0099 0.11346-0.04454 0.25536-0.01422 0.35547 0.22295 0.05685-0.02812 0.04725-0.02844 0.157 0.0088 0.14287-0.06132 0.31924-0.01422 0.44019 0.16993-0.04611 0.0079 0.21234 0.2275 0.12797 0.15618-0.0097 0.35072 0.01895 0.48344-0.01422-0.02954-0.17246 0.19648-0.06059 0.14219-0.25594 0.01875-0.13097 0.02513-0.22903 0.02844-0.35547-0.19699-0.02975-0.05509-0.06992 0.01422-0.12797 0.0081-0.14036 0.02999-0.29787 0.04266-0.455-0.15148 0.03299-0.06124-0.17574-0.2275-0.12797h-0.49766zm2.5309 0c0.04298 0.16186-0.18512 0.05265-0.14219 0.21446-0.01652 0.11196-0.02711 0.26514-0.04266 0.39695 0.11393 0.06526 0.20307-0.0146 0.18484-0.12797 0.02943-0.0969-0.04685-0.32746 0.08649-0.31281h0.46804c0.01194 0.14833-0.06207 0.32891-0.01422 0.455 0.16238 0.05356 0.16532-0.09202 0.15641-0.21446 0.0018-0.06914 0.0602-0.25402 0-0.29742-0.13299 0.0145-0.05073-0.18625-0.24172-0.11375h-0.455zm1.0948 0c0.03507 0.16304-0.20384 0.05209-0.14219 0.24172-0.01328 0.13558-0.02524 0.24239-0.02844 0.36969 0.09976 0.05974 0.20469-0.0093 0.17062-0.14219 0.03436-0.09281-0.04553-0.31916 0.11375-0.29859h0.44078c-0.000109 0.15845-0.02859 0.29469-0.02844 0.44078 0.11414 0.06693 0.19623-0.02352 0.17632-0.15643 0.0015-0.12254 0.04308-0.24205 0.0085-0.34122-0.15819 0.0397-0.04783-0.18915-0.24172-0.11375h-0.46922zm1.3934 0c-0.06893 0.12707 0.02102 0.21683 0.17122 0.17062h0.39753c-0.02824 0.14736-0.01721 0.26292-0.04266 0.41234-0.18979 0.0093-0.41735-0.01922-0.58297 0.01422-0.01299 0.13644-0.18428 0.08288-0.14219 0.25594 0.02913 0.11158-0.07179 0.29135 0 0.35547 0.14128-0.01805 0.03913 0.20733 0.24172 0.12797 0.15132-0.0098 0.34129 0.019 0.46922-0.01422 0.08357-0.18667-0.0821-0.16315-0.21445-0.15641-0.10982-0.01795-0.29288 0.03734-0.35429-0.02903-0.0018-0.12889 0.0403-0.25343 0.02844-0.38332 0.19455-0.0092 0.4262 0.01859 0.59719-0.01422-0.05215-0.18012 0.20655-0.04939 0.12797-0.25594 0.0097-0.1132 0.06868-0.30018 0-0.36969-0.1323 0.01958-0.0203-0.19218-0.2275-0.11375h-0.46922zm1.1091 0c0.0091 0.15137-0.20144 0.06613-0.15641 0.25594 0.0099 0.11346-0.04454 0.25536-0.01422 0.35547 0.14569 0.08291 0.1749-0.05223 0.16779-0.18489 0.03794-0.10311-0.04503-0.31022 0.1308-0.25589h0.42656c-0.0078 0.13631-0.02853 0.28848-0.04266 0.44078 0.11393 0.06526 0.20307-0.0146 0.18484-0.12797-0.01919-0.12001 0.0517-0.27369 0.01422-0.36969-0.15819 0.0397-0.04783-0.18915-0.24172-0.11375h-0.46922zm1.0948 0c0.04298 0.16186-0.18512 0.05265-0.14219 0.21446-0.01652 0.11196-0.02711 0.26514-0.04266 0.39695 0.11393 0.06526 0.20307-0.0146 0.18484-0.12797 0.02943-0.0969-0.04685-0.32746 0.08649-0.31281h0.46804c0.01194 0.14833-0.06207 0.32891-0.01422 0.455 0.16238 0.05356 0.16532-0.09202 0.15641-0.21446 0.0018-0.06914 0.0602-0.25402 0-0.29742-0.13299 0.0145-0.05073-0.18625-0.24172-0.11375h-0.455zm-12.484 0.11375c-0.03079 0.13852-0.03295 0.32538-0.05687 0.49766 0.101 0.05742 0.22335 0.000362 0.18484-0.14219-0.02588-0.11104 0.07259-0.29178 0-0.35547h-0.12797zm3.64 0c-0.04034 0.10828-0.03006 0.25032-0.04266 0.36969-0.09105 0.14267 0.09988 0.18966 0.15641 0.11375-0.0135-0.15831 0.06307-0.34719 0.01422-0.48344h-0.12797zm3.6258 0c-0.03079 0.13852-0.03295 0.32538-0.05687 0.49766 0.101 0.05742 0.22335 0.000362 0.18484-0.14219-0.02588-0.11104 0.07259-0.29178 0-0.35547h-0.12797zm-6.7112 0.05688h0.52609c-0.000696 0.14646-0.02426 0.28088-0.02844 0.41234h-0.54031c0.02963-0.14584 0.01544-0.26446 0.04266-0.41234zm4.7206 0h0.54031c-0.01019 0.12803-0.02092 0.26943-0.04266 0.41234h-0.52609c-0.0074-0.13913 0.04082-0.27269 0.02844-0.41234zm-5.332 0.52609c-0.02891 0.11738-0.02033 0.30667-0.04266 0.42715-0.04569 0.13244 0.21279 0.11889 0.17062-0.01481 0.006-0.13186 0.03671-0.30362 0.01422-0.41234h-0.14219zm3.64 0c-0.0277 0.13842-0.04256 0.32347-0.04266 0.49766 0.09976 0.05974 0.20469-0.0093 0.17062-0.14219-0.0035-0.10252 0.04342-0.24816 0.01422-0.34125-0.0069-0.0342-0.1082-0.0049-0.14219-0.01422zm3.6258 0c-0.02891 0.11738-0.02033 0.30667-0.04266 0.42715-0.0457 0.13244 0.21279 0.11889 0.17062-0.01481 0.006-0.13186 0.03671-0.30362 0.01422-0.41234h-0.14219zm0.39812 0c-0.02891 0.11738-0.02033 0.30667-0.04266 0.42715-0.0062 0.12809 0.1491 0.06763 0.11375 0.21269 0.20408-0.0092 0.44486 0.0183 0.62562-0.01422-0.05215-0.18012 0.20655-0.04939 0.12797-0.25594 0.0097-0.1132 0.06868-0.30018 0-0.36969-0.18204-0.05762-0.13236 0.15309-0.15641 0.27016 0.01126 0.13962-0.01719 0.23953-0.18602 0.19906-0.1044-0.0295-0.36569 0.06349-0.35443-0.05632 0.0065-0.12634 0.03504-0.29583 0.01435-0.39868-0.01309-0.03513-0.10233-0.0044-0.14219-0.01422zm1.1091 0c-0.04034 0.10828-0.03006 0.25032-0.04266 0.36969-0.09999 0.19566 0.15504 0.08143 0.09953 0.25594 0.17556 0.03299 0.41258 0.0045 0.6114 0.01422-0.03913-0.1671 0.18767-0.06826 0.14219-0.24172 0.0022-0.12794 0.06103-0.29254 0.02844-0.39812-0.18002-0.0566-0.16111 0.08574-0.17062 0.19965-0.02122 0.10035 0.03112 0.3142-0.12797 0.26957h-0.42656c-0.0091-0.16017 0.05046-0.32805 0.01422-0.455-0.0094-0.03411-0.09136-0.0057-0.12797-0.01422zm2.4883 0c-0.01809 0.14045-0.04671 0.33376-0.04266 0.49766 0.16632-0.03943 0.02859 0.18307 0.20024 0.14219 0.16988-0.0098 0.37845 0.01903 0.52491-0.01422-0.02954-0.17246 0.19648-0.06059 0.14219-0.25594 0.01875-0.13097 0.02513-0.22903 0.02844-0.35547-0.1311-0.06933-0.20923 0.02177-0.17632 0.17065-0.04985 0.10017 0.04691 0.32797-0.12228 0.28435h-0.44078c0.0081-0.14036 0.02999-0.29787 0.04266-0.455-0.03065-0.0263-0.1032-0.01017-0.15641-0.01422zm1.0948 0c-0.02891 0.11738-0.02033 0.30667-0.04266 0.42715-0.0062 0.12809 0.1491 0.06763 0.11375 0.21269 0.20408-0.0092 0.44486 0.0183 0.62562-0.01422-0.05215-0.18012 0.20655-0.04939 0.12797-0.25594 0.0097-0.1132 0.06868-0.30018 0-0.36969-0.18204-0.05762-0.13236 0.15309-0.15641 0.27016 0.01126 0.13962-0.01719 0.23953-0.18602 0.19906-0.1044-0.0295-0.36569 0.06349-0.35443-0.05632 0.0065-0.12634 0.03504-0.29583 0.01436-0.39868-0.01309-0.03513-0.10233-0.0044-0.14219-0.01422zm-8.1758 0.05687h0.54031c0.0074 0.13912-0.0408 0.27273-0.02844 0.41234h-0.54031c0.0053-0.12867 0.03319-0.26629 0.02844-0.41234zm1.1091 0h0.52609c0.0074 0.13912-0.0408 0.27273-0.02844 0.41234h-0.54031c0.01077-0.12873 0.01968-0.26796 0.04266-0.41234zm-2.7726 0.48344c-0.06967 0.09302 0.02701 0.22114 0.12797 0.14219 0.07376-0.12423 0.01526-0.1658-0.12797-0.14219zm3.6258 0c-0.06967 0.09302 0.02701 0.22114 0.12797 0.14219 0.07376-0.12423 0.01526-0.1658-0.12797-0.14219zm3.64 0c-0.06967 0.09302 0.02701 0.22114 0.12797 0.14219 0.05108-0.11016 0.0081-0.17016-0.12797-0.14219z" fill="#aabce8"/>
    <use xlink:href="#SVGCleanerId_0" fill="#d4ff2a" transform="matrix(0.43998 0 0 0.46586 6.06 46.807)"/>
    <use xlink:href="#SVGCleanerId_0" fill="#ffa000" transform="matrix(0.43998 0 0 0.46586 8.06 46.807)"/>
    <use xlink:href="#SVGCleanerId_0" fill="#d4ff2a" transform="matrix(0.43998 0 0 0.46586 10.06 46.807)"/>
    <use xlink:href="#SVGCleanerId_0" fill="#ff4d2a" transform="matrix(0.43998 0 0 0.46586 12.06 46.807)"/>
    <rect x="16" y="48" height="16" opacity="0.5" width="1"/>
    <path d="m45 48.812v15.188h1v-14.469c-0.307-0.274-0.641-0.511-1-0.719z" opacity="0.4"/>
    <path d="m12 48c-3.324 0-6 2.676-6 6v30c0 2.9849 2.1528 5.4349 5 5.9062-2.2868-0.463-4-2.474-4-4.906v-30c0-2.7789 2.2211-5 5-5h30c2.7789 0 5 2.2211 5 5v30c0 2.4316-1.7132 4.4431-4 4.9062 2.847-0.471 5-2.921 5-5.906v-30c0-3.324-2.676-6-6-6h-30z" fill="url(#linearGradient4406)" opacity="0.15"/>
    <g id="g8638">
     <path d="m18.336 69.391c-0.04391 0.30862-0.21092 0.57813-0.46323 0.74013v2.4342c0.29198 0.18748 0.47978 0.51714 0.47978 0.88816 0.000001 0.37102-0.18779 0.70068-0.47978 0.88816v2.4342c0.29198 0.18748 0.47978 0.51714 0.47978 0.88816 0.000001 0.37102-0.18779 0.70068-0.47978 0.88816v2.4342c0.29198 0.18748 0.47978 0.51714 0.47978 0.88816 0.000001 0.37102-0.18779 0.70068-0.47978 0.88816v1.0526h0.49632c0.07953-0.50299 0.5141-0.88816 1.0423-0.88816 0.52817 0 0.96275 0.38517 1.0423 0.88816h2.1507c0.07953-0.50299 0.5141-0.88816 1.0423-0.88816 0.2751 0 0.52307 0.10841 0.71139 0.2796v-2.6645c-0.18833 0.1712-0.43629 0.27961-0.71139 0.27961-0.58447 0-1.0588-0.47158-1.0588-1.0526 0.000001-0.58105 0.47435-1.0526 1.0588-1.0526 0.2751 0 0.52307 0.10841 0.71139 0.27961v-2.6645c-0.18833 0.1712-0.43629 0.2796-0.71139 0.2796-0.58447 0-1.0588-0.47158-1.0588-1.0526 0.000001-0.58105 0.47435-1.0526 1.0588-1.0526 0.2751 0 0.52307 0.10841 0.71139 0.2796v-2.6645c-0.18833 0.17119-0.43629 0.2796-0.71139 0.2796-0.58447 0-1.0588-0.47158-1.0588-1.0526 0.000001-0.58105 0.47435-1.0526 1.0588-1.0526 0.2751 0 0.52307 0.10841 0.71139 0.2796v-1.1842h-1.7868c-0.07267 0.5108-0.50852 0.90461-1.0423 0.90461-0.53376 0-0.96961-0.39381-1.0423-0.90461h-2.1507zm1.0754 0.90461c0.58447 0 1.0588 0.47158 1.0588 1.0526 0.000001 0.58105-0.47435 1.0526-1.0588 1.0526-0.58447 0-1.0588-0.47158-1.0588-1.0526 0.000001-0.58105 0.47435-1.0526 1.0588-1.0526zm2.1176 2.1053c0.58447 0 1.0588 0.47158 1.0588 1.0526 0.000001 0.58105-0.47435 1.0526-1.0588 1.0526-0.58447 0-1.0588-0.47158-1.0588-1.0526 0.000001-0.58105 0.47435-1.0526 1.0588-1.0526zm-2.1176 2.1053c0.58447 0 1.0588 0.47158 1.0588 1.0526 0.000001 0.58105-0.47435 1.0526-1.0588 1.0526-0.58447 0-1.0588-0.47158-1.0588-1.0526 0.000001-0.58105 0.47435-1.0526 1.0588-1.0526zm2.1176 2.1053c0.58447 0 1.0588 0.47158 1.0588 1.0526 0.000001 0.58105-0.47435 1.0526-1.0588 1.0526-0.58447 0-1.0588-0.47158-1.0588-1.0526 0.000001-0.58105 0.47435-1.0526 1.0588-1.0526zm-2.1176 2.1053c0.58447 0 1.0588 0.47158 1.0588 1.0526 0.000001 0.58105-0.47435 1.0526-1.0588 1.0526-0.58447 0-1.0588-0.47158-1.0588-1.0526 0.000001-0.58105 0.47435-1.0526 1.0588-1.0526zm2.1176 2.1053c0.58447 0 1.0588 0.47158 1.0588 1.0526 0.000001 0.58105-0.47435 1.0526-1.0588 1.0526-0.58447 0-1.0588-0.47158-1.0588-1.0526 0.000001-0.58105 0.47435-1.0526 1.0588-1.0526z" fill="#999"/>
     <path d="m34 68.969v6.031c0 0.554 0.446 1 1 1s1-0.446 1-1v-6.0312h-2zm4 0v6.031c0 0.554 0.446 1 1 1s1-0.446 1-1v-6.0312h-2zm4 0v6.031c0 0.554 0.446 1 1 1s1-0.446 1-1v-6.0312h-2z" stroke-width="1.894" fill="none" stroke="#000" filter="url(#filter6045)" stroke-linecap="square" transform="matrix(0.52941 0 0 0.52632 0.353 42.928)"/>
     <rect x="16" y="62" height="26" width="10"/>
     <path d="m18.438 80c-0.277 0-0.5 0.223-0.5 0.5v0.125h-0.65625v6.0938h7.4375v-6.0938h-0.46875v-0.125c0-0.277-0.223-0.5-0.5-0.5h-5.3125z" fill="url(#linearGradient5270)"/>
     <path d="m16.966 81.974v5.0622h8.0464v-5.0623h-1.0588v4.0096h-5.9288v-4.0096h-1.0588z" fill="url(#linearGradient5272)"/>
     <rect x="17" y="81" height="1" width="1"/>
     <rect x="24.18" y="80.82" height="0.526" width="1.059"/>
     <rect x="18" y="80.82" fill="url(#linearGradient5274)" height="4.737" width="1"/>
     <rect x="-24" y="80.82" fill="url(#linearGradient5276)" height="4.737" width="1" transform="matrix(-1 0 0 1 0 0)"/>
     <path d="m34 51.5v15.5c0 0.554 0.446 1 1 1s1-0.446 1-1v-13.719c-0.787-0.447-1.482-1.043-2-1.781zm10 0c-0.51837 0.73816-1.2126 1.3338-2 1.7812v13.719c0 0.554 0.446 1 1 1s1-0.446 1-1v-15.5zm-6 2.5v13c0 0.554 0.446 1 1 1s1-0.446 1-1v-13c-0.32749 0.05456-0.6571 0.09375-1 0.09375s-0.67251-0.03919-1-0.09375z" stroke-width="1.894" fill="none" stroke="#000" filter="url(#filter6036)" stroke-linecap="square" transform="matrix(0.52941 0 0 0.52632 0.353 42.928)"/>
     <path d="m19 75.844v6.656c0 0.277 0.223 0.5 0.5 0.5s0.5-0.223 0.5-0.5v-6.25c-0.35806-0.08471-0.68258-0.2384-1-0.40625zm4 0c-0.31742 0.16785-0.64194 0.32154-1 0.40625v6.25c0 0.277 0.223 0.5 0.5 0.5s0.5-0.223 0.5-0.5v-6.6562z" opacity="0.7"/>
     <path d="m16.938 65.031v15.969h8.125v-15.969h-8.125z" fill="url(#linearGradient5278)"/>
     <rect x="81" y="-24" fill="url(#linearGradient5280)" height="6" width="1" transform="matrix(0 1 -1 0 0 0)"/>
     <use xlink:href="#SVGCleanerId_1" fill="url(#linearGradient5282)" transform="matrix(0 0.72829 -0.73257 0 56.16 39.867)"/>
     <use stroke-width="2.143" xlink:href="#SVGCleanerId_1" fill="#c6c6c6" stroke="#000" stroke-linecap="square" transform="matrix(0.46794 0 0 0.46521 2.801 45.861)"/>
     <use stroke-width="3" xlink:href="#SVGCleanerId_1" fill="none" stroke="url(#linearGradient5284)" stroke-linecap="square" transform="matrix(0 0.33229 -0.33425 0 37.04 55.27)"/>
     <path d="m21 67.401c-0.44061 0-0.81066 0.36788-0.81066 0.80592 0 0.36503 0.27149 0.66509 0.61213 0.75658v0.26316h0.36397v-0.24671c0.36284-0.07326 0.62867-0.38974 0.62867-0.77303 0-0.43804-0.3535-0.80592-0.79411-0.80592zm0 0.26316c0.29739 0 0.52941 0.24711 0.52941 0.54276-0.000001 0.29565-0.23202 0.52632-0.52941 0.52632-0.29739-0.000001-0.54595-0.23066-0.54595-0.52632 0.000001-0.29565 0.24856-0.54276 0.54595-0.54276z" opacity="0.426"/>
     <use xlink:href="#SVGCleanerId_2"/>
     <use xlink:href="#SVGCleanerId_2"/>
     <rect x="16" y="62" height="0.5" width="10"/>
     <rect x="16" y="62.5" fill="#c4c4c4" height="0.5" width="10"/>
     <rect x="17.667" y="62" fill="url(#linearGradient5290)" height="1" width="6.667"/>
     <rect x="24" y="81" height="1" width="1"/>
     <path d="m19 71.844v6.656c0 0.277 0.223 0.5 0.5 0.5s0.5-0.223 0.5-0.5v-6.25c-0.35806-0.08471-0.68258-0.2384-1-0.40625zm4 0c-0.31742 0.16785-0.64194 0.32154-1 0.40625v6.25c0 0.277 0.223 0.5 0.5 0.5s0.5-0.223 0.5-0.5v-6.6562z" opacity="0.7"/>
    </g>
    <use xlink:href="#g8638" height="96" id="use8686" width="96" transform="matrix(1 0 0 1 10 0)"/>
    <use xlink:href="#use8686" height="96" width="96" transform="matrix(1 0 0 1 10 0)"/>
    <text x="8.958" font-size="0.9" font-stretch="semi-condensed" y="50.852" font-weight="bold" line-height="120.00000477%" fill="#666666" font-family="DejaVu Sans" transform="matrix(0.90023 0 0 1.1108 0 0)"><tspan x="8.958" y="50.852">Icon Server</tspan>
    </text>
    <use stroke-width="1.293" xlink:href="#SVGCleanerId_1" fill="url(#linearGradient4430)" stroke="#000" stroke-linecap="square" transform="matrix(0 0.77341 -0.77341 0 48.686 54.36)"/>
    <use stroke-width="1.962" xlink:href="#SVGCleanerId_1" fill="url(#linearGradient4432)" stroke="#000" stroke-linecap="square" transform="matrix(0 0.5096 -0.5096 0 35.978 55.664)"/>
   </g>
  </g>
  <rect x="-96" rx="25" y="958.36" clip-path="url(#clipPath3009)" fill="#fff" height="92" opacity="0.15" width="92" transform="matrix(1 0 0 1 98 0)"/>
 </g>
</svg>
