<svg height="16" width="16" xmlns="http://www.w3.org/2000/svg" xmlns:sodipodi="http://sodipodi.sourceforge.net/DTD/sodipodi-0.dtd" xmlns:inkscape="http://www.inkscape.org/namespaces/inkscape">
 <path d="M 3 2 L 3 10 L 7 10 L 7 12 L 6 12 L 6 11 L 2 11 L 2 14 L 6 14 L 6 13 L 10 13 L 10 14 L 14 14 L 14 11 L 10 11 L 10 12 L 9 12 L 9 10 L 13 10 L 13 2 L 3 2 z M 4 3 L 6 3 L 6 9 L 4 9 L 4 3 z M 7 3 L 12 3 L 12 9 L 7 9 L 7 3 z M 10 4 L 10 5 L 11 5 L 11 4 L 10 4 z M 10 7 L 10 8 L 11 8 L 11 7 L 10 7 z M 3 12 L 5 12 L 5 13 L 3 13 L 3 12 z M 11 12 L 13 12 L 13 13 L 11 13 L 11 12 z " fill="#bebebe" fill-opacity="1" stroke="none" opacity="1" inkscape:label="Layer 1" inkscape:groupmode="layer" transform="matrix(1 0 0 1 0 0)"/>
</svg>
