<svg height="96" width="96" xmlns="http://www.w3.org/2000/svg" xmlns:xlink="http://www.w3.org/1999/xlink" xmlns:sodipodi="http://sodipodi.sourceforge.net/DTD/sodipodi-0.dtd" xmlns:inkscape="http://www.inkscape.org/namespaces/inkscape">
 <defs>
  <linearGradient x2="0" y1="90" y2="5.988" gradientUnits="userSpaceOnUse" id="linearGradient3706">
   <stop stop-color="#0a0a0a"/>
   <stop stop-color="#3c3c3c" offset="1"/>
  </linearGradient>
  <linearGradient x1="36.925" x2="42.851" gradientUnits="userSpaceOnUse" id="linearGradient6142">
   <stop stop-opacity="0.426"/>
   <stop stop-color="#fff" stop-opacity="0.317" offset="1"/>
  </linearGradient>
  <linearGradient x1="34.571" x2="43.21" xlink:href="#linearGradient6151" gradientUnits="userSpaceOnUse" id="linearGradient6157"/>
  <linearGradient id="linearGradient6151">
   <stop stop-color="#5b5b5b"/>
   <stop stop-color="#0a0a0a" offset="1"/>
  </linearGradient>
  <linearGradient x1="34.14" x2="43.643" gradientUnits="userSpaceOnUse" id="linearGradient6149">
   <stop stop-color="#747474"/>
   <stop offset="1"/>
  </linearGradient>
  <linearGradient x1="34.37" x2="43.42" xlink:href="#linearGradient6151" gradientUnits="userSpaceOnUse" id="linearGradient6214"/>
  <radialGradient cy="-0.562" r="21" gradientUnits="userSpaceOnUse" id="radialGradient3271" cx="77.2" gradientTransform="matrix(-2.1666 0 0 -0.53959 244.47 12.394)">
   <stop stop-color="#6262ea"/>
   <stop stop-color="#4b28d9" offset="1"/>
  </radialGradient>
  <radialGradient cy="45" r="27" gradientUnits="userSpaceOnUse" id="radialGradient3275" cx="34.521" gradientTransform="matrix(1.7296 0 0 0.76206 -29.705 -4.293)">
   <stop stop-color="#fff"/>
   <stop stop-color="#fff" stop-opacity="0" offset="1"/>
  </radialGradient>
  <linearGradient id="linearGradient3339">
   <stop stop-color="#4f4f4f"/>
   <stop stop-color="#a2a2a2" offset="1"/>
  </linearGradient>
  <filter color-interpolation-filters="sRGB" id="filter6045">
   <feGaussianBlur stdDeviation="0.19031"/>
  </filter>
  <linearGradient id="linearGradient5892">
   <stop stop-color="#333"/>
   <stop stop-color="#424242" offset="1"/>
  </linearGradient>
  <linearGradient x2="0" y1="92.54" y2="7.02" gradientUnits="userSpaceOnUse" id="linearGradient3175" gradientTransform="matrix(1.0059 0 0 0.99417 0 0)">
   <stop/>
   <stop stop-opacity="0" offset="1"/>
  </linearGradient>
  <filter color-interpolation-filters="sRGB" id="filter6036">
   <feGaussianBlur stdDeviation="0.285"/>
  </filter>
  <linearGradient x1="30" x2="48" gradientUnits="userSpaceOnUse" id="linearGradient5590">
   <stop stop-color="#1a1a1a"/>
   <stop stop-color="#1a1a1a" offset="0.251"/>
   <stop stop-color="#cdff01" offset="0.501"/>
   <stop stop-color="#1a1a1a" offset="0.75"/>
   <stop stop-color="#1a1a1a" offset="1"/>
  </linearGradient>
  <linearGradient x2="0" xlink:href="#linearGradient3339" y1="34" y2="32" gradientUnits="userSpaceOnUse" id="linearGradient5594"/>
  <linearGradient x2="0" y1="72" y2="82.01" gradientUnits="userSpaceOnUse" id="linearGradient5596">
   <stop stop-color="#333"/>
   <stop stop-color="#333" offset="0.431"/>
   <stop offset="0.555"/>
   <stop offset="1"/>
  </linearGradient>
  <linearGradient x2="0" xlink:href="#linearGradient5892" y1="73" y2="83.04" gradientUnits="userSpaceOnUse" id="linearGradient5598"/>
  <linearGradient x1="33" x2="34" xlink:href="#linearGradient3175" gradientUnits="userSpaceOnUse" id="linearGradient5600"/>
  <linearGradient x1="33" x2="34" xlink:href="#linearGradient3175" gradientUnits="userSpaceOnUse" id="linearGradient5602" gradientTransform="matrix(1 0 0 1 -78 0)"/>
  <linearGradient x2="0" xlink:href="#linearGradient3339" y1="34" y2="32" gradientUnits="userSpaceOnUse" id="linearGradient5604" gradientTransform="matrix(1 0 0 1 0 4)"/>
  <linearGradient x2="0" y1="34" y2="32" gradientUnits="userSpaceOnUse" id="linearGradient5606" gradientTransform="matrix(1 0 0 0.91071 0 9.929)">
   <stop/>
   <stop stop-color="#656565" offset="0.5"/>
   <stop offset="1"/>
  </linearGradient>
  <linearGradient x2="0" xlink:href="#linearGradient5892" y1="72" y2="42" gradientUnits="userSpaceOnUse" id="linearGradient5608"/>
  <linearGradient x1="33" x2="34" xlink:href="#linearGradient3175" gradientUnits="userSpaceOnUse" id="linearGradient5610" gradientTransform="matrix(2 0 0 1.3333 6 -141)"/>
  <linearGradient x1="34.14" x2="43.643" gradientUnits="userSpaceOnUse" id="linearGradient5614">
   <stop stop-color="#fff"/>
   <stop stop-color="#7c7c7c" offset="1"/>
  </linearGradient>
  <clipPath clipPathUnits="userSpaceOnUse" id="clipPath5616">
   <rect x="19.888" rx="22.826" y="4.174" height="84" width="84"/>
  </clipPath>
  <clipPath clipPathUnits="userSpaceOnUse" id="clipPath3009">
   <path d="m-2 956.36h-96v33.562l96 25.687v-59.25z"/>
  </clipPath>
  <path d="m42.851 48a3.9597 3.9597 0 1 1 -7.9194 0 3.9597 3.9597 0 1 1 7.9194 0z" id="SVGCleanerId_0"/>
  <rect x="30" y="6" height="24" id="SVGCleanerId_1" width="54"/>
  <path d="m38.512 27.246a1.1364 1.0733 0 1 1 -2.2728 0 1.1364 1.0733 0 1 1 2.2728 0z" id="SVGCleanerId_2"/>
  <rect x="30" y="30" fill="url(#linearGradient5590)" height="2" id="SVGCleanerId_3" width="18"/>
 </defs>
 <g transform="matrix(1 0 0 1 0 -956.36)">
  <g clip-path="url(#clipPath5616)" transform="matrix(1.0952 0 0 1.0952 -19.782 953.79)">
   <g transform="matrix(1 0 0 1 13.888 -1.826)">
    <rect x="6" rx="6" y="6" fill="url(#linearGradient3706)" height="84" width="84"/>
    <use xlink:href="#SVGCleanerId_0" fill="url(#linearGradient6142)" transform="matrix(0 1.7678 -1.7678 0 102.85 9.249)"/>
    <use stroke-width="0.72" xlink:href="#SVGCleanerId_0" fill="url(#linearGradient6157)" stroke="#000" stroke-linecap="square" transform="matrix(0 1.389 -1.389 0 84.67 23.981)"/>
    <use stroke-width="0.417" xlink:href="#SVGCleanerId_0" fill="none" stroke="url(#linearGradient6149)" stroke-linecap="square" transform="matrix(0 1.1996 -1.1996 0 75.58 31.347)"/>
    <text x="13.788" font-size="3" font-stretch="semi-condensed" y="70" line-height="120.00000477%" fill="#666666" font-family="DejaVu Sans"><tspan x="13.788" y="70">Power</tspan>
    </text>
    <use xlink:href="#SVGCleanerId_0" fill="url(#linearGradient6142)" transform="matrix(0 1.26273 -1.26273 0 78.61 10.892)"/>
    <use stroke-width="1.131" xlink:href="#SVGCleanerId_0" fill="url(#linearGradient6214)" stroke="#000" stroke-linecap="square" transform="matrix(0 0.88389 -0.88389 0 60.43 25.624)"/>
    <use stroke-width="0.72" xlink:href="#SVGCleanerId_0" fill="none" stroke="url(#linearGradient6149)" stroke-linecap="square" transform="matrix(0 0.69448 -0.69448 0 51.33 32.99)"/>
    <text x="14.13" font-size="3" font-stretch="semi-condensed" y="54" line-height="120.00000477%" fill="#666666" font-family="DejaVu Sans"><tspan x="14.13" y="54">Reset</tspan>
    </text>
    <text x="9.849" font-size="2" font-stretch="semi-condensed" y="18.976" font-weight="bold" line-height="120.00000477%" fill="#666666" font-family="DejaVu Sans"><tspan x="9.849" y="18.976">Icon Server</tspan>
    </text>
    <use xlink:href="#SVGCleanerId_1" fill="#2e2e2e"/>
    <rect x="29" y="6" height="84" opacity="0.3" width="1"/>
    <rect x="84" y="6" height="84" opacity="0.3" width="1"/>
    <rect x="36.5" y="12.5" fill="url(#radialGradient3271)" stroke="#2f2485" height="11" width="41" stroke-linecap="square"/>
    <use xlink:href="#SVGCleanerId_1" fill="url(#radialGradient3275)" opacity="0.3"/>
    <path d="m41.167 14.025c-0.1515 0.27927 0.0462 0.47655 0.37629 0.375 0.22626 0.08174-0.01602 0.52241 0.02996 0.75-0.0083 0.30428-0.07639 0.62808-0.0625 0.96875-0.02655 0.26168-0.01046 0.64646-0.44009 0.5-0.27138-0.06571-0.20664 0.51382 0.09634 0.34375 0.36359-0.02183 0.81376 0.04293 1.125-0.03125 0.17926-0.39077-0.20272-0.31792-0.47134-0.3125-0.004-0.19888 0.03243-0.57889 0.06509-0.78125 0.03062-0.50667 0.07797-0.95456 0.125-1.4375 0.27248 0.000329 0.61878 0.0859 0.53125-0.3125-0.14835-0.14332-0.56037-0.02296-0.8125-0.0625h-0.5625zm10.875 0c0.0507 0.35964-0.39262 0.16529-0.34375 0.53125-0.0029 0.2883-0.04313 0.53532-0.0625 0.84375 0.33292-0.07251 0.1346 0.38624 0.5 0.28125h1c0.01325 0.31532-0.08857 0.62066-0.0625 0.9375-0.41592 0.02158-0.91713-0.04213-1.2812 0.03125-0.18538 0.40502 0.22944 0.31152 0.5 0.3125 0.27114-0.02053 0.62428 0.04095 0.84375-0.03125-0.02711-0.34441 0.44657-0.11709 0.3125-0.5625 0.04089-0.2766 0.05212-0.48686 0.0625-0.75-0.33292 0.07251-0.1346-0.38624-0.5-0.28125h-1c-0.02119-0.31666 0.08944-0.62027 0.0625-0.9375 0.42721-0.02071 0.93626 0.04043 1.3125-0.03125 0.12484-0.39654-0.18024-0.36315-0.47134-0.34375h-0.87241zm2.4062 0c0.0507 0.35964-0.39262 0.16529-0.34375 0.53125-0.0029 0.2883-0.04313 0.53532-0.0625 0.84375 0.39037 0.04063 0.19212 0.19136-0.03125 0.25-0.01489 0.3239-0.06053 0.67383-0.09375 1.0312 0.33292-0.07251 0.1346 0.38624 0.5 0.28125 0.36366-0.02175 0.81283 0.04199 1.125-0.03125 0.17926-0.39077-0.20272-0.31792-0.47134-0.3125h-0.77866c0.03374-0.28058 0.03309-0.67068 0.09375-0.9375 0.41772-0.01978 0.91551 0.04051 1.2812-0.03125 0.11974-0.38102-0.20198-0.32057-0.47134-0.3125-0.24376-0.03892-0.67952 0.07956-0.7974-0.06255 0.0483-0.3082 0.06006-0.59533 0.08124-0.87494 0.41569-0.02181 0.91697 0.04197 1.2812-0.03125 0.19069-0.42547-0.2068-0.35239-0.5-0.34375h-0.8125zm2.4062 0c0.0199 0.33269-0.44273 0.14533-0.34375 0.5625-0.0056 0.26234-0.04448 0.49563-0.0625 0.78125 0.43294 0.06539 0.12108 0.15367-0.03125 0.28125 0.03265 0.33603-0.13781 0.74429-0.03125 1.0312 0.36225 0.11182 0.3188-0.18207 0.34375-0.40754 0.03747-0.24356-0.05668-0.69693 0.3125-0.59246 0.36732-0.08521 0.4499 0.11432 0.46875 0.37759 0.03521 0.20351 0.12544 0.35201 0.125 0.59116 0.19439 0.15616 0.49592-0.06643 0.34375-0.28125-0.02573-0.1694-0.11562-0.27916-0.09375-0.5-0.30873-0.21542 0.3866-0.09771 0.1875-0.46875 0.38408 0.11325 0.27386-0.26781 0.3125-0.5-0.02737-0.23953 0.24441-0.74008-0.1875-0.625 0.11383-0.41634-0.41116-0.19387-0.65754-0.25h-0.68621zm4.7812 0c0.08602 0.36726-0.41247 0.15003-0.3125 0.53125-0.02936 0.30955-0.05888 0.54915-0.0625 0.84375 0.37694 0.03183 0.17371 0.18779-0.03125 0.25-0.0545 0.3656-0.05203 0.65826-0.09375 1.0312 0.33292-0.07251 0.1346 0.38624 0.5 0.28125 0.36569-0.01972 0.81193 0.0411 1.125-0.03125 0.11974-0.38102-0.20198-0.32057-0.47134-0.3125-0.24136-0.03945-0.6437 0.08206-0.77866-0.06379-0.01031-0.29432 0.08934-0.57775 0.0625-0.87371 0.41569-0.02181 0.91697 0.04197 1.2812-0.03125 0.17229-0.37458-0.17526-0.32387-0.44009-0.3125-0.243-0.03954-0.67808 0.07838-0.7974-0.06255 0.03776-0.31431 0.03392-0.55535 0.08124-0.87494 0.41671-0.02079 0.91743 0.04243 1.2812-0.03125 0.18365-0.41026-0.18044-0.35858-0.47134-0.34375h-0.87241zm2.4062 0c0.05997 0.33674-0.38731 0.13821-0.3125 0.53125-0.0175 0.25578-0.07597 0.60913-0.03125 0.8125 0.46962 0.10756-0.07276 0.11246-0.0625 0.34504-0.02417 0.2805-0.0613 0.61722-0.09375 0.93621 0.26781 0.1411 0.4597-0.0246 0.38751-0.3438 0.10957-0.22016-0.10311-0.72082 0.26874-0.62494 0.2989-0.02685 0.50236-0.02527 0.46875 0.25 0.05916 0.13038 0.07557 0.31297 0.125 0.46875-0.01137 0.16239 0.1126 0.41877 0.375 0.25 0.07458-0.1709-0.0091-0.44802-0.09375-0.5625-0.0719-0.32658-0.05474-0.39452 0.21875-0.46875-0.03029-0.33124 0.43677-0.1319 0.29376-0.5938 0.0082-0.23045 0.13754-0.61856-0.01251-0.74994-0.29078 0.04303-0.04461-0.42238-0.5-0.25h-1.0312zm-25.562 0.28125c-0.03976 0.30869-0.10267 0.73355-0.09375 1.0938 0.21926 0.1313 0.44986-0.02037 0.375-0.3125-0.0059-0.22533 0.09286-0.54775 0.03125-0.75-0.01516-0.07517-0.23781-0.01085-0.3125-0.03125zm4.8438 0c-0.0921 0.23888-0.06974 0.54359-0.09375 0.8125-0.20011 0.31356 0.21952 0.41684 0.34375 0.25-0.05401-0.27092 0.10941-0.76538 0.09375-0.21875 0.02278 0.17412 0.15619 0.40491 0.40625 0.25 0.07327-0.29036-0.04805-0.37636-0.0625-0.59375-0.15756-0.10253-0.01954-0.39872-0.15625-0.5h-0.53125zm1.5312 0c-0.07285 0.29961-0.07193 0.71682-0.125 1.0938 0.25039 0.14343 0.44629-0.03209 0.40625-0.28125-0.04932-0.26354 0.11183-0.60236 0.03125-0.8125h-0.3125zm0.875 0c-0.07343 0.30005-0.0702 0.71698-0.125 1.0938 0.25039 0.14343 0.44629-0.03209 0.40625-0.28125-0.04598-0.25373 0.13495-0.66131-0.03125-0.8125h-0.25zm1.5312 0c-0.03976 0.30869-0.10267 0.73355-0.09375 1.0938 0.21926 0.1313 0.44986-0.02037 0.375-0.3125-0.0059-0.22533 0.09286-0.54775 0.03125-0.75-0.02879-0.07721-0.22491-0.0097-0.3125-0.03125zm1.1562 0c-0.15851 0.23543 0.05644 0.33201 0 0.5625 0.10256 0.11177 0.10318 0.32076 0.125 0.5 0.14892 0.17813 0.53034 0.048 0.375-0.28125-0.12513-0.11445-0.05313-0.42604-0.1875-0.53125 0.04777-0.28706-0.06309-0.26116-0.3125-0.25zm1 0c-0.04001 0.18628-0.11294 0.38221-0.21875 0.53125-0.02676 0.18096-0.21444 0.3676-0.09375 0.59375 0.36532 0.10506 0.34786-0.21566 0.42722-0.43835 0.10046-0.18193 0.1514-0.32898 0.22902-0.56165 0.03896-0.20018-0.20354-0.10309-0.34375-0.125zm9.5625 0c-0.12449 0.30232-0.07255 0.73855-0.125 1.0938 0.27178 0.15814 0.4285-0.07654 0.38751-0.37506 0.002-0.25932 0.09303-0.51421 0.01874-0.7187h-0.28125zm1.2812 0c-0.07597 0.19283-0.14623 0.36948-0.21875 0.53125-0.05919 0.15226-0.28295 0.43457-0.09375 0.59375 0.32861 0.08799 0.33915-0.22575 0.40625-0.40754 0.02857-0.21815 0.23416-0.33931 0.21875-0.59504 0.03708-0.18664-0.17831-0.10661-0.3125-0.12241zm-3.375 0.09375h1.1875c-0.03244 0.27132-0.03993 0.59844-0.09375 0.90625h-1.1562c-0.01478-0.3049 0.08554-0.60003 0.0625-0.90625zm7.2188 0h1.1875c-0.06399 0.32256-0.03756 0.57792-0.09375 0.90625h-1.1875c0.07061-0.31152 0.06686-0.62214 0.09375-0.90625zm-25.719 1.1875c-0.10521 0.29472-0.05447 0.6362-0.11877 0.96886 0.01676 0.21679 0.31032 0.18793 0.30627 0.43739 0.42806-0.01985 0.93636 0.04053 1.3125-0.03125 0.12484-0.39654-0.18024-0.36315-0.47134-0.34375-0.24191-0.03851-0.68328 0.07871-0.79444-0.06189 0.04812-0.33585 0.06886-0.6201 0.07828-0.93811-0.05995-0.05428-0.20405-0.02486-0.3125-0.03125zm4.8125 0c-0.04553 0.30705-0.10241 0.73479-0.09375 1.0938 0.24872 0.14868 0.40254-0.05352 0.375-0.28125-0.04932-0.26354 0.11183-0.60236 0.03125-0.8125h-0.3125zm1.0312 0c-0.09469 0.19608 0.03645 0.41757 0.0625 0.59375 0.10766 0.15319-0.02775 0.54945 0.25129 0.53125 0.2894 0.03492 0.54616 0.02366 0.46746-0.34375 0.04089-0.2766 0.05212-0.48686 0.0625-0.75-0.26781-0.1411-0.4597 0.0246-0.38751 0.3438-0.04606 0.29993-0.10166-0.20838-0.11249-0.2813 0.02051-0.1591-0.22417-0.07265-0.34375-0.09375zm1.375 0c-0.06354 0.25797-0.04469 0.67399-0.09375 0.93879-0.01362 0.28152 0.32769 0.14863 0.25 0.46746 0.44851-0.02024 0.97771 0.04021 1.375-0.03125-0.11463-0.39588 0.45395-0.10855 0.28125-0.5625 0.01945-0.24982 0.15096-0.66082 0-0.8125-0.4001-0.12663-0.29092 0.33646-0.34375 0.59375 0.02475 0.30686-0.03779 0.52644-0.40884 0.4375-0.22945-0.06485-0.80371 0.13953-0.77897-0.12378 0.01503-0.27744 0.07686-0.65223 0.03156-0.87622-0.01516-0.07517-0.23781-0.01085-0.3125-0.03125zm2.9375 0c-0.04001 0.18628-0.11294 0.38221-0.21875 0.53125-0.0085 0.18053-0.23744 0.37359-0.125 0.59375 0.38153 0.13153 0.30999-0.19001 0.4375-0.3125 0.06692-0.25385 0.14004-0.38862 0.23126-0.5938 0.10089-0.28509-0.11413-0.2134-0.32501-0.2187zm0.53125 0c-0.15851 0.23543 0.05644 0.33201 0 0.5625 0.10256 0.11177 0.10318 0.32076 0.125 0.5 0.14892 0.17813 0.53034 0.048 0.375-0.28125-0.12513-0.11445-0.05313-0.42604-0.1875-0.53125 0.04777-0.28706-0.06309-0.26116-0.3125-0.25zm9.7812 0c-0.07285 0.29961-0.07193 0.71682-0.125 1.0938 0.13777 0.01072 0.62742 0.1457 0.63549-0.09418 0.05805-0.25162 0.19512-0.3902 0.23951-0.65582 0.20286-0.1538 0.07487-0.48311-0.25-0.34375-0.05146 0.18812-0.10486 0.3743-0.1875 0.53125-0.05146-0.15838 0.14751-0.66717-0.25-0.53125h-0.0625zm-17.562 3.25c0.07708 0.35833-0.44801 0.11449-0.3125 0.53125 0.0016 0.25999-0.16096 0.68084 0 0.84375 0.31066-0.04854 0.01946 0.46825 0.5 0.28125h0.9375c-0.06208 0.32388-0.03783 0.57784-0.09375 0.90625-0.41772 0.01978-0.91551-0.04051-1.2812 0.03125-0.12484 0.39654 0.18024 0.36315 0.47134 0.34375 0.29102-0.02062 0.66478 0.04151 0.90366-0.03125-0.11463-0.39588 0.45395-0.10855 0.28125-0.5625 0.02134-0.2488 0.15094-0.65974 0-0.8125-0.49603-0.1039 0.22129-0.08649 0.125-0.375 0.01318-0.28981 0.08068-0.66729 0.03125-0.90625-0.34767 0.08726-0.10512-0.41571-0.53125-0.25h-1.0312zm2.4062 0c-0.1515 0.27927 0.0462 0.47655 0.37629 0.375h0.87371c-0.06208 0.32388-0.03783 0.57784-0.09375 0.90625-0.41714 0.02036-0.91725-0.04225-1.2812 0.03125-0.02855 0.29986-0.405 0.18215-0.3125 0.5625 0.06402 0.24524-0.15777 0.64033 0 0.78125 0.31051-0.03967 0.086 0.45566 0.53125 0.28125 0.33258-0.02159 0.75009 0.04176 1.0312-0.03125 0.18365-0.41026-0.18044-0.35858-0.47134-0.34375-0.24136-0.03945-0.6437 0.08206-0.77866-0.06379-0.004-0.28328 0.08858-0.55699 0.0625-0.84246 0.42759-0.02033 0.9367 0.04086 1.3125-0.03125-0.11463-0.39588 0.45395-0.10855 0.28125-0.5625 0.02134-0.2488 0.15094-0.65974 0-0.8125-0.29078 0.04303-0.04462-0.42238-0.5-0.25h-1.0312zm5.5938 0c0.0199 0.33269-0.44273 0.14533-0.34375 0.5625 0.02164 0.24936-0.09789 0.56123-0.03125 0.78125 0.46962 0.10756-0.07276 0.11246-0.0625 0.34504-0.02417 0.2805-0.0613 0.61722-0.09375 0.93621 0.35417-0.08334 0.11444 0.42722 0.5 0.3125 0.36366-0.02175 0.81283 0.04199 1.125-0.03125-0.06493-0.37904 0.43182-0.13316 0.3125-0.5625 0.01042-0.25663 0.04574-0.49629 0.0625-0.78125-0.33292 0.07251-0.1346-0.38624-0.5-0.28125h-1.0312c0.07001-0.31397 0.06672-0.6189 0.09375-0.90625 0.41569-0.02181 0.91697 0.04197 1.2812-0.03125 0.19069-0.42547-0.2068-0.35239-0.5-0.34375h-0.8125zm2.4062 0c0.0199 0.33269-0.44273 0.14533-0.34375 0.5625 0.02164 0.24936-0.09789 0.56123-0.03125 0.78125 0.49001 0.12494-0.06181 0.10385-0.0625 0.34504 0.01935 0.31399-0.13476 0.70163-0.03125 0.96746 0.37347-0.10134 0.01733 0.46668 0.5 0.28125 0.34325-0.02134 0.77081 0.04165 1.0625-0.03125-0.06493-0.37904 0.43182-0.13316 0.3125-0.5625 0.04121-0.28786 0.05523-0.50337 0.0625-0.78125-0.43294-0.06539-0.12108-0.15367 0.03125-0.28125 0.0179-0.30849 0.06591-0.65467 0.09375-1-0.33292 0.07251-0.1346-0.38624-0.5-0.28125h-1.0938zm5.5625 0c0.09446 0.35574-0.40685 0.11571-0.3125 0.47134-0.03632 0.24607-0.0596 0.58274-0.09375 0.87241 0.25039 0.14343 0.44629-0.03209 0.40625-0.28125 0.06469-0.21298-0.10297-0.71969 0.19009-0.6875h1.0287c0.02625 0.32601-0.13643 0.72288-0.03125 1 0.35686 0.11772 0.36333-0.20223 0.34375-0.47134 0.004-0.15196 0.13229-0.5583 0-0.65366-0.29228 0.03187-0.11149-0.40934-0.53125-0.25h-1zm2.4062 0c0.07708 0.35833-0.44801 0.11449-0.3125 0.53125-0.02919 0.29797-0.05547 0.53272-0.0625 0.8125 0.21926 0.1313 0.44986-0.02037 0.375-0.3125 0.07552-0.20398-0.10007-0.70144 0.25-0.65625h0.96875c-0.000241 0.34824-0.06284 0.64767-0.0625 0.96875 0.25085 0.1471 0.43128-0.05169 0.38751-0.3438 0.0033-0.26931 0.09469-0.53198 0.01874-0.74994-0.34767 0.08726-0.10512-0.41571-0.53125-0.25h-1.0312zm3.0625 0c-0.1515 0.27927 0.0462 0.47655 0.37629 0.375h0.87371c-0.06208 0.32388-0.03783 0.57784-0.09375 0.90625-0.41714 0.02036-0.91725-0.04225-1.2812 0.03125-0.02855 0.29986-0.405 0.18215-0.3125 0.5625 0.06402 0.24524-0.15777 0.64033 0 0.78125 0.31051-0.03967 0.086 0.45566 0.53125 0.28125 0.33258-0.02159 0.75009 0.04176 1.0312-0.03125 0.18365-0.41026-0.18044-0.35858-0.47134-0.34375-0.24136-0.03945-0.6437 0.08206-0.77866-0.06379-0.004-0.28328 0.08858-0.55699 0.0625-0.84246 0.42759-0.02033 0.9367 0.04086 1.3125-0.03125-0.11463-0.39588 0.45395-0.10855 0.28125-0.5625 0.02134-0.2488 0.15094-0.65974 0-0.8125-0.29078 0.04303-0.04461-0.42238-0.5-0.25h-1.0312zm2.4375 0c0.0199 0.33269-0.44273 0.14533-0.34375 0.5625 0.02165 0.24936-0.09789 0.56123-0.03125 0.78125 0.3202 0.18221 0.38439-0.1148 0.36877-0.40636 0.08338-0.22662-0.09897-0.6818 0.28748-0.56239h0.9375c-0.01712 0.29959-0.06272 0.63403-0.09375 0.96875 0.25039 0.14343 0.44629-0.03209 0.40625-0.28125-0.04218-0.26376 0.11363-0.60152 0.03125-0.8125-0.34767 0.08726-0.10512-0.41571-0.53125-0.25h-1.0312zm2.4062 0c0.09446 0.35574-0.40685 0.11571-0.3125 0.47134-0.03632 0.24607-0.0596 0.58274-0.09375 0.87241 0.25039 0.14343 0.44629-0.03209 0.40625-0.28125 0.06469-0.21298-0.10297-0.71969 0.19009-0.6875h1.0287c0.02625 0.32601-0.13643 0.72288-0.03125 1 0.35686 0.11772 0.36333-0.20223 0.34375-0.47134 0.004-0.15196 0.13229-0.5583 0-0.65366-0.29228 0.03187-0.11149-0.40934-0.53125-0.25h-1zm-27.438 0.25c-0.06769 0.30444-0.07241 0.71511-0.125 1.0938 0.22197 0.12619 0.49089 0.000793 0.40625-0.3125-0.05688-0.24403 0.15954-0.64128 0-0.78125h-0.28125zm8 0c-0.08865 0.23798-0.06607 0.55016-0.09375 0.8125-0.20011 0.31356 0.21952 0.41684 0.34375 0.25-0.02967-0.34793 0.13861-0.76305 0.03125-1.0625h-0.28125zm7.9688 0c-0.06769 0.30444-0.07241 0.71511-0.125 1.0938 0.22197 0.12619 0.49089 0.000793 0.40625-0.3125-0.05688-0.24403 0.15954-0.64128 0-0.78125h-0.28125zm-14.75 0.125h1.1562c-0.0015 0.3219-0.05333 0.61732-0.0625 0.90625h-1.1875c0.06513-0.32053 0.03394-0.58124 0.09375-0.90625zm10.375 0h1.1875c-0.0224 0.28138-0.04597 0.59215-0.09375 0.90625h-1.1562c-0.01632-0.30579 0.08971-0.59933 0.0625-0.90625zm-11.719 1.1562c-0.06354 0.25797-0.04469 0.67399-0.09375 0.93879-0.10044 0.29107 0.46766 0.26129 0.375-0.03254 0.01318-0.28981 0.08068-0.66729 0.03125-0.90625h-0.3125zm8 0c-0.06089 0.30422-0.09355 0.71093-0.09375 1.0938 0.21926 0.1313 0.44986-0.02037 0.375-0.3125-0.0076-0.22533 0.09544-0.5454 0.03125-0.75-0.01516-0.07517-0.23781-0.01085-0.3125-0.03125zm7.9688 0c-0.06354 0.25797-0.04469 0.67399-0.09375 0.93879-0.10044 0.29107 0.46766 0.26129 0.375-0.03254 0.01318-0.28981 0.08068-0.66729 0.03125-0.90625h-0.3125zm0.875 0c-0.06354 0.25797-0.04469 0.67399-0.09375 0.93879-0.01362 0.28152 0.32769 0.14863 0.25 0.46746 0.44851-0.02024 0.97771 0.04021 1.375-0.03125-0.11463-0.39588 0.45395-0.10855 0.28125-0.5625 0.02134-0.2488 0.15094-0.65974 0-0.8125-0.4001-0.12663-0.29092 0.33646-0.34375 0.59375 0.02475 0.30686-0.03779 0.52644-0.40884 0.4375-0.22945-0.06485-0.80371 0.13953-0.77897-0.12378 0.01428-0.27767 0.07701-0.65017 0.03156-0.87622-0.02879-0.07721-0.22491-0.0097-0.3125-0.03125zm2.4375 0c-0.08865 0.23798-0.06607 0.55016-0.09375 0.8125-0.21976 0.43003 0.34075 0.17896 0.21875 0.5625 0.38584 0.0725 0.90678 0.0099 1.3438 0.03125-0.08601-0.36726 0.41247-0.15003 0.3125-0.53125 0.0048-0.2812 0.13413-0.64296 0.0625-0.875-0.39565-0.12439-0.35409 0.18844-0.375 0.43879-0.04664 0.22055 0.0684 0.69056-0.28125 0.59246h-0.9375c-0.02009-0.35202 0.1109-0.72098 0.03125-1-0.02058-0.07497-0.20081-0.01247-0.28125-0.03125zm5.4688 0c-0.03976 0.30869-0.10267 0.73355-0.09375 1.0938 0.36552-0.08667 0.06284 0.40234 0.44009 0.3125 0.37336-0.02161 0.83176 0.04182 1.1537-0.03125-0.06493-0.37904 0.43182-0.13316 0.3125-0.5625 0.04121-0.28786 0.05523-0.50337 0.0625-0.78125-0.28813-0.15238-0.45986 0.04785-0.38751 0.37506-0.10957 0.22016 0.10311 0.72082-0.26874 0.62494h-0.96875c0.01789-0.30849 0.06591-0.65467 0.09375-1-0.06737-0.0578-0.22681-0.02235-0.34375-0.03125zm2.4062 0c-0.06354 0.25797-0.04469 0.67399-0.09375 0.93879-0.01362 0.28152 0.32769 0.14863 0.25 0.46746 0.44851-0.02024 0.97771 0.04021 1.375-0.03125-0.11463-0.39588 0.45395-0.10855 0.28125-0.5625 0.02134-0.2488 0.15094-0.65974 0-0.8125-0.4001-0.12663-0.29092 0.33646-0.34375 0.59375 0.02475 0.30686-0.03779 0.52644-0.40884 0.4375-0.22945-0.06485-0.80371 0.13953-0.77897-0.12378 0.01428-0.27767 0.07701-0.65017 0.03156-0.87622-0.02879-0.07721-0.22491-0.0097-0.3125-0.03125zm-17.969 0.125h1.1875c0.01629 0.30576-0.08968 0.59941-0.0625 0.90625h-1.1875c0.01166-0.28279 0.07295-0.58525 0.0625-0.90625zm2.4375 0h1.1562c0.01629 0.30576-0.08968 0.59941-0.0625 0.90625h-1.1875c0.02368-0.28292 0.04326-0.58892 0.09375-0.90625zm-6.0938 1.0625c-0.15312 0.20444 0.05936 0.48602 0.28125 0.3125 0.1621-0.27304 0.03353-0.3644-0.28125-0.3125zm7.9688 0c-0.15312 0.20444 0.05936 0.48602 0.28125 0.3125 0.1621-0.27304 0.03353-0.3644-0.28125-0.3125zm8 0c-0.15312 0.20444 0.05936 0.48602 0.28125 0.3125 0.11227-0.24212 0.01785-0.37398-0.28125-0.3125z" fill="#aabce8"/>
    <use xlink:href="#SVGCleanerId_2" fill="#d4ff2a" transform="matrix(0.87996 0 0 0.93172 4.111 1.614)"/>
    <use xlink:href="#SVGCleanerId_2" fill="#ffa000" transform="matrix(0.87996 0 0 0.93172 8.111 1.614)"/>
    <use xlink:href="#SVGCleanerId_2" fill="#d4ff2a" transform="matrix(0.87996 0 0 0.93172 12.11 1.614)"/>
    <use xlink:href="#SVGCleanerId_2" fill="#ff4d2a" transform="matrix(0.87996 0 0 0.93172 16.11 1.614)"/>
    <g id="g6086">
     <path d="m33.969 50.281c-0.08293 0.58638-0.39841 1.0984-0.875 1.4062v4.625c0.551 0.357 0.906 0.983 0.906 1.688 0.000001 0.70494-0.35472 1.3313-0.90625 1.6875v4.625c0.551 0.356 0.906 0.982 0.906 1.687 0.000001 0.70494-0.35472 1.3313-0.90625 1.6875v4.625c0.551 0.356 0.906 0.982 0.906 1.687 0.000001 0.70494-0.35472 1.3313-0.90625 1.6875v2h0.9375c0.149-0.956 0.97-1.688 1.968-1.688 0.99766 0 1.8185 0.73182 1.9688 1.6875h4.0625c0.149-0.956 0.97-1.688 1.968-1.688 0.51964 0 0.98802 0.20598 1.3438 0.53125v-5.0625c-0.356 0.326-0.824 0.532-1.344 0.532-1.104 0-2-0.896-2-2 0.000001-1.104 0.896-2 2-2 0.51964 0 0.98802 0.20598 1.3438 0.53125v-5.0625c-0.356 0.326-0.824 0.532-1.344 0.532-1.104 0-2-0.896-2-2 0.000001-1.104 0.896-2 2-2 0.51964 0 0.98802 0.20598 1.3438 0.53125v-5.0625c-0.356 0.326-0.824 0.532-1.344 0.532-1.104 0-2-0.896-2-2 0.000001-1.104 0.896-2 2-2 0.51964 0 0.98802 0.20598 1.3438 0.53125v-2.25h-3.375c-0.138 0.971-0.961 1.719-1.969 1.719s-1.831-0.748-1.969-1.719h-4.0625zm2.031 1.719c1.104 0 2 0.896 2 2 0.000001 1.104-0.896 2-2 2s-2-0.896-2-2c0.000001-1.104 0.896-2 2-2zm4 4c1.104 0 2 0.896 2 2 0.000001 1.104-0.896 2-2 2s-2-0.896-2-2c0.000001-1.104 0.896-2 2-2zm-4 4c1.104 0 2 0.896 2 2 0.000001 1.104-0.896 2-2 2s-2-0.896-2-2c0.000001-1.104 0.896-2 2-2zm4 4c1.104 0 2 0.896 2 2 0.000001 1.104-0.896 2-2 2s-2-0.896-2-2c0.000001-1.104 0.896-2 2-2zm-4 4c1.104 0 2 0.896 2 2 0.000001 1.104-0.896 2-2 2s-2-0.896-2-2c0.000001-1.104 0.896-2 2-2zm4 4c1.104 0 2 0.896 2 2 0.000001 1.104-0.896 2-2 2s-2-0.896-2-2c0.000001-1.104 0.896-2 2-2z" fill="#999"/>
     <rect x="30" y="34" fill="#a5a5a5" height="50" opacity="0.645" width="18"/>
     <use xlink:href="#SVGCleanerId_3"/>
     <use xlink:href="#SVGCleanerId_3"/>
     <rect x="30" y="32" height="1" width="18"/>
     <rect x="30" y="33" fill="#c4c4c4" height="1" width="18"/>
     <rect x="33" y="32" fill="url(#linearGradient5594)" height="2" width="12"/>
     <path d="m34 68.969v6.031c0 0.554 0.446 1 1 1s1-0.446 1-1v-6.0312h-2zm4 0v6.031c0 0.554 0.446 1 1 1s1-0.446 1-1v-6.0312h-2zm4 0v6.031c0 0.554 0.446 1 1 1s1-0.446 1-1v-6.0312h-2z" fill="none" stroke="#000" filter="url(#filter6045)" stroke-linecap="square"/>
     <rect x="30.5" y="34.5" fill="none" stroke="#000" height="49" width="17" stroke-linecap="square"/>
     <path d="m32 72v10h14v-10h-2v3c0 0.554-0.446 1-1 1s-1-0.446-1-1v-3h-2v3c0 0.554-0.446 1-1 1s-1-0.446-1-1v-3h-2v3c0 0.554-0.446 1-1 1s-1-0.446-1-1v-3h-2z" fill="url(#linearGradient5596)"/>
     <path d="m31 73v10h16v-10h-2v8h-12v-8h-2z" fill="url(#linearGradient5598)"/>
     <rect x="31" y="72" height="1" width="2"/>
     <rect x="45" y="72" height="1" width="2"/>
     <rect x="33" y="72" fill="url(#linearGradient5600)" height="9" width="1"/>
     <rect x="-45" y="72" fill="url(#linearGradient5602)" height="9" width="1" transform="matrix(-1 0 0 1 0 0)"/>
     <rect x="30.536" y="34.812" height="7.188" width="16.875"/>
     <rect x="33" y="36" fill="url(#linearGradient5604)" height="2" opacity="0.6" width="12"/>
     <rect x="33" y="39.07" fill="url(#linearGradient5606)" height="1.821" width="12"/>
     <rect x="31" y="36" fill="#545454" height="5" width="1"/>
     <rect x="46" y="36" fill="#545454" height="5" width="1"/>
     <path d="m34 51.5v15.5c0 0.554 0.446 1 1 1s1-0.446 1-1v-13.719c-0.787-0.447-1.482-1.043-2-1.781zm10 0c-0.51837 0.73816-1.2126 1.3338-2 1.7812v13.719c0 0.554 0.446 1 1 1s1-0.446 1-1v-15.5zm-6 2.5v13c0 0.554 0.446 1 1 1s1-0.446 1-1v-13c-0.32749 0.05456-0.6571 0.09375-1 0.09375s-0.67251-0.03919-1-0.09375z" fill="none" stroke="#000" filter="url(#filter6036)" stroke-linecap="square"/>
     <path d="m31 42v30h16v-30h-16zm3 9.5c0.51837 0.73816 1.2126 1.3338 2 1.7812v13.719c0 0.554-0.446 1-1 1s-1-0.446-1-1v-15.5zm10 0v15.5c0 0.554-0.446 1-1 1s-1-0.446-1-1v-13.719c0.787-0.447 1.482-1.043 2-1.781zm-6 2.5c0.32749 0.05456 0.6571 0.09375 1 0.09375s0.67251-0.03919 1-0.09375v13c0 0.554-0.446 1-1 1s-1-0.446-1-1v-13z" fill="url(#linearGradient5608)"/>
     <rect x="72" y="-45" fill="url(#linearGradient5610)" height="12" width="2" transform="matrix(0 1 -1 0 0 0)"/>
     <use xlink:href="#SVGCleanerId_0" fill="url(#linearGradient6142)" transform="matrix(0 1.2347 -1.2347 0 98.26 -0.017)"/>
     <use stroke-width="1.131" xlink:href="#SVGCleanerId_0" fill="#c6c6c6" stroke="#000" stroke-linecap="square" transform="matrix(0.8839 0 0 0.8839 4.624 5.573)"/>
     <path d="m34 67v1c0 0.554 0.446 1 1 1s1-0.446 1-1v-1c0 0.554-0.446 1-1 1s-1-0.446-1-1zm4 0v1c0 0.554 0.446 1 1 1s1-0.446 1-1v-1c0 0.554-0.446 1-1 1s-1-0.446-1-1zm4 0v1c0 0.554 0.446 1 1 1s1-0.446 1-1v-1c0 0.554-0.446 1-1 1s-1-0.446-1-1z" fill="#fff" opacity="0.15"/>
     <use stroke-width="1.584" xlink:href="#SVGCleanerId_0" fill="none" stroke="url(#linearGradient5614)" stroke-linecap="square" transform="matrix(0 0.63136 -0.63136 0 69.31 23.446)"/>
     <path d="m39 46.5c-0.83227 0-1.5312 0.69898-1.5312 1.5312 0 0.69356 0.51281 1.2637 1.1562 1.4375v0.5h0.6875v-0.46875c0.686-0.139 1.188-0.741 1.188-1.469 0-0.832-0.668-1.531-1.5-1.531zm0 0.5c0.56174 0.000001 1 0.46951 1 1.0312-0.000001 0.56174-0.43826 1-1 1-0.56174-0.000001-1.0312-0.43826-1.0312-1 0-0.561 0.469-1.031 1.031-1.031z" opacity="0.426"/>
    </g>
    <use xlink:href="#g6086" height="96" width="96" transform="matrix(1 0 0 1 18 0)"/>
    <use xlink:href="#g6086" height="96" width="96" transform="matrix(1 0 0 1 36 0)"/>
   </g>
  </g>
  <rect x="-96" rx="25" y="958.36" clip-path="url(#clipPath3009)" fill="#fff" height="92" opacity="0.15" width="92" transform="matrix(1 0 0 1 98 0)"/>
 </g>
</svg>
