<svg height="96" width="96" xmlns="http://www.w3.org/2000/svg" xmlns:sodipodi="http://sodipodi.sourceforge.net/DTD/sodipodi-0.dtd" xmlns:inkscape="http://www.inkscape.org/namespaces/inkscape">
 <g inkscape:label="Layer 1" inkscape:groupmode="layer" transform="matrix(1 0 0 1 0 -956.36)">
  <rect x="964.36" rx="10.769" y="-88" fill="#dc322f" fill-opacity="1" stroke="none" height="80" opacity="0.99" width="80" transform="matrix(0 1 -1 0 0 0)"/>
  <path d="m 45.96224,983.13189 c -0.5703,0.01 -1.1908,-0.064 -1.7027,0.2432 -0.79181,0.4132 -1.3045,1.2783 -1.291,2.1704 3.3544,-0.014 6.7133,0.016 10.066,0 -0.018,-1.1705 -0.92356,-2.3276 -2.133,-2.395 -1.6495,-0.034 -3.2886,-0.01 -4.9396,-0.019 z m -8.6817,3.8356 c -2.5521,0.029 -4.84,2.3523 -4.7338,4.9209 10.303,-0.034 20.607,-0.01 30.91,-0.019 0.009,-1.5911 -0.81804,-3.1815 -2.1517,-4.0602 -0.85021,-0.5942 -1.889,-0.8509 -2.9188,-0.842 -7.0366,0.01 -14.069,-0.014 -21.105,0 z m 23.875,6.3429 c -8.764,0.01 -17.524,0.011 -26.288,0.019 -0.007,9.47201 -0.01,18.93201 0,28.40301 0.0271,1.6316 1.1705,3.1157 2.6943,3.6485 0.67507,0.2635 1.4235,0.1998 2.133,0.2058 5.5862,0 11.158,0 16.746,0 0.63466,0 1.3007,0.059 1.9085,-0.1684 1.6226,-0.5134 2.7938,-2.1338 2.7879,-3.8356 0.0164,-9.4211 -0.0143,-18.85 0.0186,-28.27201 z m -20.787,3.7421 c 0.10985,-0.01 0.21318,0.013 0.31809,0.037 0.10153,0.024 0.20603,0.066 0.29937,0.1123 0.0882,0.044 0.16543,0.089 0.24323,0.1497 0.011,0.01 0.0267,0.01 0.0374,0.019 0.0208,0.017 0.0363,0.038 0.056,0.056 0.0611,0.055 0.11709,0.1225 0.16841,0.1871 0.0239,0.031 0.0535,0.061 0.0749,0.094 0.037,0.056 0.0646,0.1078 0.0936,0.1683 0.0143,0.03 0.0253,0.063 0.0374,0.094 0.028,0.071 0.0593,0.1491 0.0748,0.2246 0.0214,0.1072 0.0252,0.2242 0.0187,0.3367 0.01,7.18931 0.002,14.36501 0,21.55501 0.0164,0.5479 -0.17214,1.1421 -0.67357,1.422 -0.10329,0.069 -0.22391,0.1171 -0.3368,0.1497 -0.2213,0.059 -0.471,0.059 -0.69229,0 -0.56407,-0.1496 -1.0468,-0.653 -1.0478,-1.2723 -0.01,-7.2866 0.01,-14.567 0,-21.85401 -0.01,-0.1503 0.0148,-0.3054 0.0561,-0.449 0.003,-0.01 -0.003,-0.013 0,-0.019 0.0446,-0.1485 0.11683,-0.2841 0.2058,-0.4116 0.0444,-0.063 0.0959,-0.1128 0.1497,-0.1684 0.10979,-0.1165 0.21351,-0.2079 0.35549,-0.2807 0.0689,-0.035 0.14988,-0.071 0.22455,-0.094 0.11076,-0.035 0.22666,-0.052 0.33677,-0.056 z m 7.6339,0.019 c 0.10954,-0.01 0.21313,0.013 0.31809,0.037 0.0776,0.018 0.15141,0.043 0.22451,0.075 0.0258,0.011 0.0498,0.025 0.0749,0.037 0.0581,0.03 0.11469,0.056 0.1684,0.094 0.034,0.023 0.0616,0.049 0.0936,0.075 0.0428,0.035 0.0924,0.073 0.13098,0.1123 0.009,0.01 0.0128,0.012 0.0186,0.019 0.0584,0.063 0.10349,0.1339 0.14969,0.2058 0.0353,0.055 0.0665,0.1091 0.0936,0.1684 0.0118,0.026 0.0273,0.048 0.0374,0.075 0.0291,0.076 0.0609,0.1625 0.0749,0.2432 0.0176,0.1053 0.0115,0.2073 0,0.3181 0.007,7.23121 0.002,14.47301 0,21.70401 0.0139,0.1837 -0.0121,0.369 -0.0749,0.5426 -0.0315,0.086 -0.065,0.1646 -0.11228,0.2432 -0.14189,0.2386 -0.35195,0.4263 -0.59872,0.5426 -0.0823,0.038 -0.17233,0.075 -0.26196,0.094 -0.0896,0.019 -0.1858,0.023 -0.28065,0.019 -0.19534,0.015 -0.38928,-0.019 -0.56131,-0.094 -0.26299,-0.1138 -0.46693,-0.313 -0.61745,-0.5613 -0.0497,-0.081 -0.0981,-0.1545 -0.13098,-0.2432 -0.0664,-0.1776 -0.0905,-0.3705 -0.0748,-0.5613 v -21.68601 c -0.007,-0.072 -0.009,-0.1538 0,-0.2246 6.2e-4,-0.01 -5.8e-4,-0.013 0,-0.019 0.01,-0.07 0.0359,-0.138 0.0562,-0.2058 0.003,-0.01 -0.003,-0.014 0,-0.019 0.0443,-0.1414 0.12019,-0.2715 0.20581,-0.3929 0.005,-0.01 -0.005,-0.015 0,-0.019 0.0449,-0.063 0.0955,-0.1136 0.14968,-0.1684 0.0537,-0.055 0.10674,-0.104 0.16839,-0.1497 0.12393,-0.091 0.26419,-0.1598 0.41163,-0.2058 0.10871,-0.034 0.22788,-0.053 0.3368,-0.056 z m 7.4468,0 c 0.0523,-0.01 0.11415,0 0.1684,0 0.75912,-0.015 1.4828,0.6723 1.3846,1.4594 0,7.23421 0.007,14.47001 0,21.70401 0.0405,0.467 -0.17812,0.928 -0.56131,1.1975 -0.23072,0.1836 -0.51694,0.2694 -0.80457,0.2619 -0.2876,-0.01 -0.57352,-0.1103 -0.80454,-0.2806 -0.15401,-0.1135 -0.28739,-0.2548 -0.37422,-0.4303 -0.24548,-0.4087 -0.15642,-0.8967 -0.16839,-1.3472 0.002,-7.0352 0.009,-14.07 0,-21.10501 -0.006,-0.078 -0.0103,-0.1661 0,-0.2433 0.0719,-0.54 0.47861,-1.0334 1.0104,-1.1788 0.0538,-0.016 0.0972,-0.033 0.14969,-0.037 z" fill="#ffffff" inkscape:connector-curvature="0"/>
 </g>
</svg>
