<svg height="16" width="16" xmlns="http://www.w3.org/2000/svg" xmlns:sodipodi="http://sodipodi.sourceforge.net/DTD/sodipodi-0.dtd" xmlns:inkscape="http://www.inkscape.org/namespaces/inkscape">
 <path stroke-opacity="1" d="M 8 2 L 5 5 L 5 3 L 4 3 L 4 6 L 2 7.9980469 L 2 8.0058594 L 3 8.0058594 L 3 8.4121094 L 3 13 L 3 14 L 7 14 L 7 13 L 4 13 L 4 8 L 3.4121094 8 L 8 3.4140625 L 12.587891 8 L 12 8 L 12 13 L 9 13 L 9 14 L 13 14 L 13 13 L 13 8.4121094 L 13 8.0058594 L 14 8.0058594 L 14 7.9980469 L 8 2 z " stroke-width="0.1" fill="#bebebe" fill-opacity="1" stroke="none" stroke-dasharray="none" opacity="1" stroke-miterlimit="4" inkscape:label="Layer 1" inkscape:groupmode="layer" transform="matrix(1 0 0 1 0 0)"/>
</svg>
