<svg height="16" width="16" xmlns="http://www.w3.org/2000/svg" xmlns:sodipodi="http://sodipodi.sourceforge.net/DTD/sodipodi-0.dtd" xmlns:inkscape="http://www.inkscape.org/namespaces/inkscape">
 <path d="M 8 2 C 6.6909174 2 5.593201 2.8353112 5.1816406 4 L 5 4 L 2 4 L 2 5 L 3 5 L 3 14 L 4 14 L 12 14 L 13 14 L 13 5 L 14 5 L 14 4 L 11 4 L 10.818359 4 C 10.406799 2.8353112 9.3090826 2 8 2 z M 8 3 C 8.7410699 3 9.3790485 3.4042011 9.7246094 4 L 6.2753906 4 C 6.6209515 3.4042011 7.2589301 3 8 3 z M 4 5 L 5 5 L 6 5 L 10 5 L 11 5 L 12 5 L 12 13 L 8 13 L 8 10 L 7 10 L 7 13 L 6 13 L 6 7 L 5 7 L 5 13 L 4 13 L 4 5 z " fill="#dc322f" fill-opacity="1" stroke="none" opacity="1" inkscape:label="Layer 1" inkscape:groupmode="layer" transform="matrix(1 0 0 1 0 0)"/>
</svg>
