<svg height="16" width="16" xmlns="http://www.w3.org/2000/svg" xmlns:sodipodi="http://sodipodi.sourceforge.net/DTD/sodipodi-0.dtd" xmlns:inkscape="http://www.inkscape.org/namespaces/inkscape">
 <path d="M 3 2 L 3 3 L 3 4 L 2 4 L 2 5 L 2 14 L 3 14 L 14 14 L 14 13 L 14 3 L 13 3 L 10 3 L 10 5 L 13 5 L 13 13 L 3 13 L 3 5 L 9 5 L 9 4 L 9 2 L 4 2 L 3 2 z M 4 3 L 8 3 L 8 4 L 4 4 L 4 3 z M 8 6 C 6.338 6 5 7.338 5 9 C 5 10.662 6.338 12 8 12 C 9.662 12 11 10.662 11 9 C 11 7.338 9.662 6 8 6 z M 8 7 C 9.108 7 10 7.892 10 9 C 10 10.108 9.108 11 8 11 C 6.892 11 6 10.108 6 9 C 6 7.892 6.892 7 8 7 z " fill="#bebebe" fill-opacity="1" stroke="none" opacity="1" inkscape:label="Layer 1" inkscape:groupmode="layer" transform="matrix(1 0 0 1 0 0)"/>
</svg>
