<?xml version="1.0" encoding="UTF-8" standalone="no"?>
<!-- Created with Inkscape (http://www.inkscape.org/) -->

<svg
   xmlns:dc="http://purl.org/dc/elements/1.1/"
   xmlns:cc="http://creativecommons.org/ns#"
   xmlns:rdf="http://www.w3.org/1999/02/22-rdf-syntax-ns#"
   xmlns:svg="http://www.w3.org/2000/svg"
   xmlns="http://www.w3.org/2000/svg"
   xmlns:xlink="http://www.w3.org/1999/xlink"
   xmlns:sodipodi="http://sodipodi.sourceforge.net/DTD/sodipodi-0.dtd"
   xmlns:inkscape="http://www.inkscape.org/namespaces/inkscape"
   width="96"
   height="96"
   id="svg2"
   version="1.1"
   inkscape:version="0.48.5 r10040"
   sodipodi:docname="user-desktop.svg">
  <defs
     id="defs4">
    <linearGradient
       id="linearGradient4039">
      <stop
         id="stop4041"
         offset="0"
         style="stop-color:#7c9edd;stop-opacity:1;" />
      <stop
         id="stop4043"
         offset="1"
         style="stop-color:#a3d7ef;stop-opacity:1;" />
    </linearGradient>
    <linearGradient
       x1="45.448"
       y1="80.472"
       gradientTransform="matrix(1.0059,0,0,0.99417,0,12)"
       x2="45.448"
       gradientUnits="userSpaceOnUse"
       xlink:href="#ButtonShadow-5"
       y2="5.2972"
       id="linearGradient3664-3" />
    <filter
       color-interpolation-filters="sRGB"
       id="filter3174-8">
      <feGaussianBlur
         stdDeviation="1.71"
         id="feGaussianBlur3176-9" />
    </filter>
    <linearGradient
       x1="45.448"
       y1="80.472"
       gradientTransform="matrix(1.0059 0 0 .99417 0 12)"
       x2="45.448"
       gradientUnits="userSpaceOnUse"
       y2="7.0165"
       id="ButtonShadow-5">
      <stop
         offset="0"
         id="stop3750-0" />
      <stop
         offset="1"
         style="stop-opacity:.58824"
         id="stop3752-4" />
    </linearGradient>
    <linearGradient
       x1="45.448002"
       y1="80.472"
       gradientTransform="matrix(1.0059,0,0,0.99417,0,12)"
       x2="45.448002"
       gradientUnits="userSpaceOnUse"
       xlink:href="#ButtonShadow-7-2"
       y2="5.2972002"
       id="linearGradient3664-0-1" />
    <linearGradient
       x1="45.448002"
       y1="80.472"
       gradientTransform="matrix(1.0059,0,0,0.99417,0,12)"
       x2="45.448002"
       gradientUnits="userSpaceOnUse"
       y2="7.0165"
       id="ButtonShadow-7-2">
      <stop
         offset="0"
         id="stop3750-3-0" />
      <stop
         offset="1"
         style="stop-opacity:.58824"
         id="stop3752-8-0" />
    </linearGradient>
    <filter
       color-interpolation-filters="sRGB"
       id="filter3174-2-8">
      <feGaussianBlur
         stdDeviation="1.71"
         id="feGaussianBlur3176-5-2" />
    </filter>
    <linearGradient
       x1="45.448"
       y1="80.472"
       gradientTransform="matrix(1.0059,0,0,0.99417,0,12)"
       x2="45.448"
       gradientUnits="userSpaceOnUse"
       xlink:href="#ButtonShadow-8"
       y2="5.2972"
       id="linearGradient3664-7" />
    <filter
       color-interpolation-filters="sRGB"
       id="filter3174-6">
      <feGaussianBlur
         stdDeviation="1.71"
         id="feGaussianBlur3176-90" />
    </filter>
    <linearGradient
       x1="45.448"
       y1="80.472"
       gradientTransform="matrix(1.0059 0 0 .99417 0 12)"
       x2="45.448"
       gradientUnits="userSpaceOnUse"
       y2="7.0165"
       id="ButtonShadow-8">
      <stop
         offset="0"
         id="stop3750-8" />
      <stop
         offset="1"
         style="stop-opacity:.58824"
         id="stop3752-9" />
    </linearGradient>
    <linearGradient
       x1="45.448"
       y1="80.472"
       gradientTransform="matrix(1.0059,0,0,0.99417,0,12)"
       x2="45.448"
       gradientUnits="userSpaceOnUse"
       xlink:href="#ButtonShadow-59"
       y2="5.2972"
       id="linearGradient3664-03" />
    <filter
       color-interpolation-filters="sRGB"
       id="filter3174-4">
      <feGaussianBlur
         stdDeviation="1.71"
         id="feGaussianBlur3176-4" />
    </filter>
    <linearGradient
       x1="45.448"
       y1="80.472"
       gradientTransform="matrix(1.0059 0 0 .99417 0 12)"
       x2="45.448"
       gradientUnits="userSpaceOnUse"
       y2="7.0165"
       id="ButtonShadow-59">
      <stop
         offset="0"
         id="stop3750-38" />
      <stop
         offset="1"
         style="stop-opacity:.58824"
         id="stop3752-1" />
    </linearGradient>
    <linearGradient
       x1="45.448"
       y1="80.472"
       gradientTransform="matrix(1.0059,0,0,0.99417,0,12)"
       x2="45.448"
       gradientUnits="userSpaceOnUse"
       xlink:href="#ButtonShadow-3"
       y2="5.2972"
       id="linearGradient3664-9" />
    <filter
       color-interpolation-filters="sRGB"
       id="filter3174-5">
      <feGaussianBlur
         stdDeviation="1.71"
         id="feGaussianBlur3176-6" />
    </filter>
    <linearGradient
       x1="45.448"
       y1="80.472"
       gradientTransform="matrix(1.0059 0 0 .99417 0 12)"
       x2="45.448"
       gradientUnits="userSpaceOnUse"
       y2="7.0165"
       id="ButtonShadow-3">
      <stop
         offset="0"
         id="stop3750-7" />
      <stop
         offset="1"
         style="stop-opacity:.58824"
         id="stop3752-3" />
    </linearGradient>
  </defs>
  <sodipodi:namedview
     id="base"
     pagecolor="#ffffff"
     bordercolor="#666666"
     borderopacity="1.0"
     inkscape:pageopacity="0.0"
     inkscape:pageshadow="2"
     inkscape:zoom="2.6632652"
     inkscape:cx="70.10087"
     inkscape:cy="48.639719"
     inkscape:document-units="px"
     inkscape:current-layer="layer1"
     showgrid="false"
     inkscape:window-width="1366"
     inkscape:window-height="716"
     inkscape:window-x="0"
     inkscape:window-y="24"
     inkscape:window-maximized="1" />
  <metadata
     id="metadata7">
    <rdf:RDF>
      <cc:Work
         rdf:about="">
        <dc:format>image/svg+xml</dc:format>
        <dc:type
           rdf:resource="http://purl.org/dc/dcmitype/StillImage" />
        <dc:title />
      </cc:Work>
    </rdf:RDF>
  </metadata>
  <g
     inkscape:label="Layer 1"
     inkscape:groupmode="layer"
     id="layer1"
     transform="translate(0,-956.36218)">
    <g
       id="layer2-9"
       style="display:none"
       transform="translate(-115.43793,1002.8625)">
      <path
         inkscape:connector-curvature="0"
         id="rect3745-3"
         style="opacity:0.9;fill:url(#linearGradient3664-3);filter:url(#filter3174-8)"
         d="M 14.969,8.8029 C 13.329,8.8029 12,10.085 12,11.678 V 19 c -3.324,0 -7,2.676 -7,6 v 61 c 0,3.324 2.676,6 6,6 h 74 c 3.324,0 6,-2.676 6,-6 V 25 c 0,-3.324 -3.7474,-6 -7.0714,-6 v -0.13461 c 0,-2.3891 -1.9777,-4.3125 -4.4375,-4.3125 h -43.335 l -1.4688,-2.875 c -0.734,-1.424 -1.329,-2.8741 -2.969,-2.8741 h -16.75 z" />
    </g>
    <g
       id="layer2"
       style="display:none"
       transform="translate(-108.26934,938.61065)">
      <path
         inkscape:connector-curvature="0"
         id="rect3745"
         style="opacity:0.9;fill:url(#linearGradient3664-0-1);filter:url(#filter3174-2-8)"
         d="M 14.969,8.8029 C 13.329,8.8029 12,10.085 12,11.678 V 19 c -3.324,0 -7,2.676 -7,6 v 61 c 0,3.324 2.676,6 6,6 h 74 c 3.324,0 6,-2.676 6,-6 V 25 c 0,-3.324 -3.7474,-6 -7.0714,-6 v -0.13461 c 0,-2.3891 -1.9777,-4.3125 -4.4375,-4.3125 h -43.335 l -1.4688,-2.875 c -0.734,-1.424 -1.329,-2.8741 -2.969,-2.8741 h -16.75 z" />
    </g>
    <g
       id="layer2-6"
       style="display:none"
       transform="translate(-171.72473,918.96337)">
      <path
         inkscape:connector-curvature="0"
         id="rect3745-6"
         style="opacity:0.9;fill:url(#linearGradient3664-7);filter:url(#filter3174-6)"
         d="M 14.969,8.8029 C 13.329,8.8029 12,10.085 12,11.678 V 19 c -3.324,0 -7,2.676 -7,6 v 61 c 0,3.324 2.676,6 6,6 h 74 c 3.324,0 6,-2.676 6,-6 V 25 c 0,-3.324 -3.7474,-6 -7.0714,-6 v -0.13461 c 0,-2.3891 -1.9777,-4.3125 -4.4375,-4.3125 h -43.335 l -1.4688,-2.875 c -0.734,-1.424 -1.329,-2.8741 -2.969,-2.8741 h -16.75 z" />
    </g>
    <g
       id="layer2-1"
       style="display:none"
       transform="translate(-173.31774,905.15718)">
      <path
         inkscape:connector-curvature="0"
         id="rect3745-1"
         style="opacity:0.9;fill:url(#linearGradient3664-03);filter:url(#filter3174-4)"
         d="M 14.969,8.8029 C 13.329,8.8029 12,10.085 12,11.678 V 19 c -3.324,0 -7,2.676 -7,6 v 61 c 0,3.324 2.676,6 6,6 h 74 c 3.324,0 6,-2.676 6,-6 V 25 c 0,-3.324 -3.7474,-6 -7.0714,-6 v -0.13461 c 0,-2.3891 -1.9777,-4.3125 -4.4375,-4.3125 h -43.335 l -1.4688,-2.875 c -0.734,-1.424 -1.329,-2.8741 -2.969,-2.8741 h -16.75 z" />
    </g>
    <g
       id="layer2-2"
       style="display:none"
       transform="translate(-177.5658,944.98274)">
      <path
         inkscape:connector-curvature="0"
         id="rect3745-0"
         style="opacity:0.9;fill:url(#linearGradient3664-9);filter:url(#filter3174-5)"
         d="M 14.969,8.8029 C 13.329,8.8029 12,10.085 12,11.678 V 19 c -3.324,0 -7,2.676 -7,6 v 61 c 0,3.324 2.676,6 6,6 h 74 c 3.324,0 6,-2.676 6,-6 V 25 c 0,-3.324 -3.7474,-6 -7.0714,-6 v -0.13461 c 0,-2.3891 -1.9777,-4.3125 -4.4375,-4.3125 h -43.335 l -1.4688,-2.875 c -0.734,-1.424 -1.329,-2.8741 -2.969,-2.8741 h -16.75 z" />
    </g>
    <rect
       style="fill:#0f65e6;fill-opacity:1;stroke:none"
       id="rect2985"
       width="80"
       height="80"
       x="8.6826658"
       y="964.36096"
       rx="10.769231"
       ry="10.769231" />
    <path
       inkscape:connector-curvature="0"
       style="fill:#1a1a1a;fill-opacity:1;stroke:none"
       d="m 19.4375,964.36218 c -5.966154,0 -10.75,4.8151 -10.75,10.78125 l 0,58.43747 c 0,5.9662 4.783846,10.7813 10.75,10.7813 l 9.09375,0 0,-80.00002 -9.09375,0 z"
       id="rect4045" />
    <path
       inkscape:connector-curvature="0"
       style="fill:#1a1a1a;fill-opacity:1;stroke:none"
       d="m 19.4375,964.36218 c -2.594456,0 -4.957267,0.88901 -6.8125,2.40625 l 72.125,0 c -1.855233,-1.51724 -4.249294,-2.40625 -6.84375,-2.40625 l -58.46875,0 z"
       id="rect4050" />
    <rect
       style="opacity:0.5;fill:#ffffff;fill-opacity:1;stroke:none"
       id="rect4057"
       width="25.753859"
       height="8.7616224"
       x="35.805737"
       y="1035.5994" />
    <rect
       style="opacity:0.5;fill:#4d4d4d;fill-opacity:1;stroke:none"
       id="rect4059"
       width="17.523245"
       height="2.6550369"
       x="9.8236361"
       y="975.10059" />
    <rect
       y="978.61249"
       x="9.8236361"
       height="2.6550369"
       width="17.523245"
       id="rect4061"
       style="opacity:0.5;fill:#4d4d4d;fill-opacity:1;stroke:none" />
    <rect
       style="opacity:0.5;fill:#4d4d4d;fill-opacity:1;stroke:none"
       id="rect4063"
       width="17.523245"
       height="2.6550369"
       x="9.8236361"
       y="982.12433" />
    <rect
       y="985.63623"
       x="9.8236361"
       height="2.6550369"
       width="17.523245"
       id="rect4065"
       style="opacity:0.5;fill:#4d4d4d;fill-opacity:1;stroke:none" />
    <rect
       style="opacity:0.5;fill:#4d4d4d;fill-opacity:1;stroke:none"
       id="rect4067"
       width="17.523245"
       height="2.6550369"
       x="9.8236361"
       y="989.14813" />
    <rect
       y="992.66003"
       x="9.8236361"
       height="2.6550369"
       width="17.523245"
       id="rect4069"
       style="opacity:0.5;fill:#4d4d4d;fill-opacity:1;stroke:none" />
    <rect
       style="opacity:0.5;fill:#4d4d4d;fill-opacity:1;stroke:none"
       id="rect4071"
       width="17.523245"
       height="2.6550369"
       x="9.8236361"
       y="996.17188" />
    <rect
       y="999.68378"
       x="9.8236361"
       height="2.6550369"
       width="17.523245"
       id="rect4073"
       style="opacity:0.5;fill:#4d4d4d;fill-opacity:1;stroke:none" />
    <rect
       style="opacity:0.5;fill:#4d4d4d;fill-opacity:1;stroke:none"
       id="rect4075"
       width="17.523245"
       height="2.6550369"
       x="9.8236361"
       y="1003.1957" />
    <rect
       y="1006.7076"
       x="9.8236361"
       height="2.6550369"
       width="17.523245"
       id="rect4077"
       style="opacity:0.5;fill:#4d4d4d;fill-opacity:1;stroke:none" />
    <rect
       style="opacity:0.5;fill:#4d4d4d;fill-opacity:1;stroke:none"
       id="rect4079"
       width="17.523245"
       height="2.6550369"
       x="9.8236361"
       y="1010.2194" />
    <rect
       y="1013.7313"
       x="9.8236361"
       height="2.6550369"
       width="17.523245"
       id="rect4081"
       style="opacity:0.5;fill:#4d4d4d;fill-opacity:1;stroke:none" />
    <g
       id="g3119"
       transform="matrix(0.14614963,0,0,0.14614963,-57.672222,925.25947)"
       style="opacity:0.5;fill:#ffffff;fill-opacity:1">
      <g
         transform="translate(4.4623291,0)"
         id="g3115"
         style="fill:#ffffff;fill-opacity:1">
        <path
           inkscape:connector-curvature="0"
           style="fill:#ffffff;fill-opacity:1;stroke:none"
           d="m 638.875,263.59375 44.28125,66.34375 c 6.24987,-7.52737 14.55379,-13.26377 24.0625,-16.375 l -33.5,-49.96875 -34.84375,0 z m 133.90625,0 L 739.375,313.375 c 9.559,3.01318 17.92143,8.68958 24.25,16.15625 l 44,-65.9375 -34.84375,0 z M 683.25,397.0625 l -48.375,72.09375 34.84375,1.03125 37.875,-56.71875 C 697.97022,410.40119 689.57326,404.63932 683.25,397.0625 z m 80.28125,0.40625 c -6.39368,7.50507 -14.84276,13.18471 -24.5,16.15625 l 37.75,56.5625 34.84375,-1.03125 -48.09375,-71.6875 z"
           id="path3000"
           transform="translate(0,152.36218)" />
        <path
           inkscape:connector-curvature="0"
           style="fill:#ffffff;fill-opacity:1;stroke:none"
           d="m 723.5625,317.4375 c -25.4051,0 -46,20.5949 -46,46 0,25.4051 20.5949,46 46,46 25.4051,0 46,-20.5949 46,-46 0,-25.4051 -20.5949,-46 -46,-46 z m 0,9.5 c 2.5198,0 4.96769,0.26379 7.34375,0.75 -0.33328,-0.0682 -0.69473,-0.0347 -1.03125,-0.0937 l -6.625,9.84375 -6.5625,-9.8125 c -0.15283,0.0292 -0.31661,0.0314 -0.46875,0.0625 2.37606,-0.48621 4.82395,-0.75 7.34375,-0.75 z m -30.28125,16.09375 c -0.24516,0.36288 -0.39271,0.78423 -0.625,1.15625 l 13,19.46875 L 692.75,382.875 c 0.0985,0.15575 0.16757,0.33488 0.25,0.5 -3.74894,-5.7337 -5.9375,-12.57566 -5.9375,-19.9375 0,-7.5594 2.28316,-14.58081 6.21875,-20.40625 z m 60.5625,0 c 3.93559,5.82544 6.21875,12.84685 6.21875,20.40625 0,7.5594 -2.28316,14.58081 -6.21875,20.40625 0.094,-0.13908 0.15791,-0.29706 0.25,-0.4375 l -13.25,-19.75 13.34375,-20 c -0.12927,-0.19964 -0.21071,-0.42807 -0.34375,-0.625 z M 723.25,390 l 6.21875,9.34375 c 0.47168,-0.0773 0.97209,-0.061 1.4375,-0.15625 -2.37606,0.48621 -4.82395,0.75 -7.34375,0.75 -2.5198,0 -4.96769,-0.26379 -7.34375,-0.75 0.27324,0.0559 0.56832,0.044 0.84375,0.0937 L 723.25,390 z"
           id="path3008"
           transform="translate(0,152.36218)" />
      </g>
      <text
         sodipodi:linespacing="125%"
         id="text3111"
         y="665.9967"
         x="634.28577"
         style="font-size:40px;font-style:normal;font-weight:normal;line-height:125%;letter-spacing:0px;word-spacing:0px;fill:#ffffff;fill-opacity:1;stroke:none;font-family:Sans"
         xml:space="preserve"><tspan
           style="font-style:normal;font-variant:normal;font-weight:normal;font-stretch:normal;fill:#ffffff;fill-opacity:1;font-family:AvantGarde LT ExtraLight;-inkscape-font-specification:AvantGarde LT ExtraLight"
           y="665.9967"
           x="634.28577"
           id="tspan3113"
           sodipodi:role="line">TAMBORA</tspan></text>
    </g>
    <g
       transform="matrix(0.20919889,0,0,0.20919889,-0.00280395,967.74943)"
       id="g3532" />
    <g
       transform="translate(-273.15249,860.05767)"
       id="g3219">
      <g
         id="g1886" />
    </g>
    <g
       id="g4717"
       transform="translate(-144.90888,943.18608)" />
  </g>
</svg>
