<?xml version="1.0" encoding="UTF-8" standalone="no"?>
<!-- Created with Inkscape (http://www.inkscape.org/) -->

<svg
   xmlns:dc="http://purl.org/dc/elements/1.1/"
   xmlns:cc="http://creativecommons.org/ns#"
   xmlns:rdf="http://www.w3.org/1999/02/22-rdf-syntax-ns#"
   xmlns:svg="http://www.w3.org/2000/svg"
   xmlns="http://www.w3.org/2000/svg"
   xmlns:sodipodi="http://sodipodi.sourceforge.net/DTD/sodipodi-0.dtd"
   xmlns:inkscape="http://www.inkscape.org/namespaces/inkscape"
   id="svg3449"
   height="128"
   width="128"
   version="1.0"
   inkscape:version="0.48.5 r10040"
   sodipodi:docname="applications-python.svg">
  <sodipodi:namedview
     pagecolor="#ffffff"
     bordercolor="#666666"
     borderopacity="1"
     objecttolerance="10"
     gridtolerance="10"
     guidetolerance="10"
     inkscape:pageopacity="0"
     inkscape:pageshadow="2"
     inkscape:window-width="640"
     inkscape:window-height="480"
     id="namedview108166" />
  <metadata
     id="metadata56">
    <rdf:RDF>
      <cc:Work
         rdf:about="">
        <dc:format>image/svg+xml</dc:format>
        <dc:type
           rdf:resource="http://purl.org/dc/dcmitype/StillImage" />
        <dc:title />
      </cc:Work>
    </rdf:RDF>
  </metadata>
  <defs
     id="defs3451">
    <linearGradient
       id="linearGradient3514"
       y2="-9.1034"
       gradientUnits="userSpaceOnUse"
       x2="66.492"
       gradientTransform="matrix(.96826 0 0 .97948 2.179 .16587)"
       y1="-42.638"
       x1="67.952">
      <stop
         id="stop4620"
         style="stop-color:#37414b"
         offset="0" />
      <stop
         id="stop4622"
         style="stop-color:#37414b;stop-opacity:0"
         offset="1" />
    </linearGradient>
    <linearGradient
       id="linearGradient3516"
       y2="-11.847"
       gradientUnits="userSpaceOnUse"
       x2="58.98"
       gradientTransform="matrix(.96826 0 0 .97948 2.179 .16587)"
       y1="-118.55"
       x1="57.173">
      <stop
         id="stop4596"
         offset="0" />
      <stop
         id="stop4598"
         style="stop-opacity:0"
         offset="1" />
    </linearGradient>
    <linearGradient
       id="linearGradient3519"
       y2="50.369"
       gradientUnits="userSpaceOnUse"
       x2="76.558"
       gradientTransform="matrix(.96826 0 0 .97948 3.2423 -129.19)"
       y1="13.164"
       x1="76.558">
      <stop
         id="stop3392"
         style="stop-color:#425e7b"
         offset="0" />
      <stop
         id="stop3394"
         style="stop-color:#7a91a7"
         offset="1" />
    </linearGradient>
    <linearGradient
       id="linearGradient3521"
       y2="-8.7399"
       gradientUnits="userSpaceOnUse"
       x2="60.217"
       gradientTransform="matrix(.96826 0 0 .97948 2.179 .16587)"
       y1="-123.72"
       x1="60.395">
      <stop
         id="stop3392-4-8"
         style="stop-color:#425e7b"
         offset="0" />
      <stop
         id="stop3394-8-0"
         style="stop-color:#7a91a7"
         offset="1" />
    </linearGradient>
    <radialGradient
       id="radialGradient3349"
       gradientUnits="userSpaceOnUse"
       cy="45.647"
       cx="42.148"
       gradientTransform="matrix(.94690 0 0 1.139 3.5954 -29.89)"
       r="58.984">
      <stop
         id="stop8767"
         style="stop-color:#f1cc5f"
         offset="0" />
      <stop
         id="stop8769"
         style="stop-color:#db8a17"
         offset="1" />
    </radialGradient>
    <filter
       id="filter3174"
       color-interpolation-filters="sRGB">
      <feGaussianBlur
         id="feGaussianBlur3176"
         stdDeviation="1.71" />
    </filter>
    <linearGradient
       id="ButtonShadow-1"
       x1="45.448"
       gradientUnits="userSpaceOnUse"
       y1="92.54"
       gradientTransform="scale(1.0059 .99417)"
       x2="45.448"
       y2="7.0165">
      <stop
         id="stop3750-0"
         offset="0" />
      <stop
         id="stop3752-4"
         style="stop-opacity:.58824"
         offset="1" />
    </linearGradient>
    <filter
       id="filter3174-2"
       color-interpolation-filters="sRGB">
      <feGaussianBlur
         id="feGaussianBlur3176-2"
         stdDeviation="1.71" />
    </filter>
    <linearGradient
       id="linearGradient4351"
       y2="-8.9074"
       gradientUnits="userSpaceOnUse"
       x2="87.09"
       gradientTransform="matrix(0.647 0 0 .64681 8.8219 60.851)"
       y1="37.472"
       x1="87.09">
      <stop
         id="stop4239-1"
         style="stop-color:#ffe4b9"
         offset="0" />
      <stop
         id="stop4241-9"
         style="stop-color:#fffdf5"
         offset="1" />
    </linearGradient>
  </defs>
  <rect
     id="rect892"
     style="stroke:url(#linearGradient3521);stroke-width:.97385;fill:url(#linearGradient3519)"
     transform="scale(1,-1)"
     ry="29.296"
     height="115.54"
     width="114.22"
     y="-122.25"
     x="7.0394" />
  <rect
     id="rect892-2"
     style="stroke:url(#linearGradient3516);stroke-width:.97385;fill:url(#linearGradient3514)"
     transform="scale(1,-1)"
     ry="28.993"
     height="114.35"
     width="114.22"
     y="-121.46"
     x="7.0599" />
  <path
     id="rect895"
     style="fill:url(#radialGradient3349)"
     d="m33.051 7.2596c-7.969-2.4493-27.013 15.174-25.653 23.038-0.050142 0.97378-0.088772 1.9648-0.088772 2.9572v52.419c0 20.876 10.712 33.859 22.318 33.859h67.038c12.638 0 24.318-11.245 24.318-25.859v-64.017c0.7-10.928-21.283-24.659-25.926-22.618-47.846 0.8653-18.017 0.2236-62.003 0.2236z" />
  <rect
     id="rect892-2-7-8"
     style="opacity:.15891;stroke:#000;stroke-width:4.8445;fill:none"
     transform="scale(1,-1)"
     ry="28.993"
     height="114.35"
     width="114.22"
     y="-121.16"
     x="6.8687" />
  <rect
     id="rect892-2-7-1"
     style="opacity:.15891;stroke:#000;stroke-width:7.7512;fill:none"
     transform="scale(1,-1)"
     ry="28.993"
     height="114.35"
     width="114.22"
     y="-121.16"
     x="6.8687" />
  <rect
     id="rect892-2-7-2-9"
     ry="28.067"
     style="stroke:#000;stroke-width:1.0489;fill:none"
     transform="scale(1,-1)"
     height="112.71"
     width="114.14"
     y="-120.31"
     x="7.0649" />
  <path
     id="path1187"
     style="fill:#fff;fill-opacity:.057143"
     d="m33.017 7.2319c-23.707 0-26.027 0.6738-25.93 26.295-0.04334 0.71563-0.07674 1.4439-0.07674 2.1732v32.76c18.67-38.321 38.34-51.497 90.374-61.179-0.225-0.026-0.46-0.0303-0.691-0.0303-41.576 0.3874-25.652-0.0188-63.676-0.0188z" />
  <g
     id="layer2"
     style="display:none"
     transform="translate(148.5 -54.67)">
    <rect
       id="rect3745"
       style="opacity:.9;filter:url(#filter3174);fill:url(#ButtonShadow-1)"
       rx="6"
       ry="6"
       height="85"
       width="86"
       y="7"
       x="5" />
  </g>
  <g
     id="layer2-1"
     style="display:none"
     transform="translate(60.531 126)">
    <rect
       id="rect3745-8"
       style="opacity:.9;filter:url(#filter3174-2);fill:url(#ButtonShadow-1)"
       rx="6"
       ry="6"
       height="85"
       width="86"
       y="7"
       x="5" />
  </g>
  <g
     id="g4343"
     transform="matrix(2.7 0 0 2.7 -109.41 -127.68)">
    <path
       id="path4249"
       style="fill-opacity:.058824"
       d="m64.161 56.289c-0.645-0.008-1.309 0.053-2.0019 0.1621-0.0128 0.002-0.0282-0.002-0.041 0-0.57045 0.0481-1.1081 0.11515-1.6172 0.20312-2.0621 0.35574-2.9558 0.97665-3.3163 1.9804-0.38633 0.46744-0.62694 1.0243-0.62694 1.6972v3.2538h0.40624v0.0215h-0.40624-3.1933c-1.624 0-2.4273 1.0378-3.0527 2.5058-0.0291 0.0682-0.0733 0.13306-0.10156 0.20311-0.0256 0.0546-0.0581 0.10385-0.082 0.16015-0.0157 0.0403-0.0237 0.0822-0.0391 0.12305-0.086 0.21836-0.16314 0.44288-0.22265 0.68552-0.01 0.0289-0.0312 0.0529-0.041 0.082-0.74001 2.1681-0.70852 4.2517 0 7.033 0.50908 2.0025 1.4764 3.5174 3.539 3.5174h3.1132v-2.789c0-2.3828 2.5966-4.3866 4.4491-4.3866h6.6112c1.3787 0 2.5705-0.98018 3.1542-2.2226 0.0365-0.0673 0.0674-0.13332 0.0996-0.20312 0.0135-0.0333 0.0285-0.0659 0.041-0.0996 0.0329-0.0777 0.0547-0.1637 0.082-0.24413 0.12032-0.35443 0.20117-0.737 0.20117-1.1308v-6.5896c0-1.8757-1.6155-3.2845-3.539-3.5975-0.56885-0.0925-1.1409-0.15636-1.7168-0.20312-0.0401-0.006-0.0829-0.0135-0.12304-0.0195-0.007-0.00051-0.0128 0.00049-0.0195 0-0.5135-0.0762-1.0274-0.1359-1.5566-0.14258zm-3.7616 1.457c0.71033 0 1.2949 0.56034 1.2949 1.2519 0 0.68909-0.58456 1.2539-1.2949 1.2539-0.71287 0-1.2734-0.56477-1.2734-1.2539 0-0.69157 0.56055-1.2519 1.2734-1.2519zm11.668 6.9314v2.3456 0.0195l-0.1621 0.80857c0 0.11515-0.0144 0.23299-0.0215 0.34373-0.50593 1.6338-2 3.0648-3.6386 3.4764-0.014 0.00062-0.027 0.021-0.041 0.0215-0.0686 0.003-0.13111 0-0.20117 0l-1.9609 0.12109-5.0155 0.0195c-1.8885 0-3.537 1.2294-3.537 3.4764v0.34374 6.5896c0 1.8758 1.6634 2.9793 3.537 3.5175 2.2436 0.64423 4.3935 0.76065 7.078 0 0.22904-0.0648 0.46298-0.14018 0.68749-0.22265 1.5999-0.55891 3.2148-1.5471 3.2148-3.2948v-3.2538h3.1933c1.545 0 2.3583-0.94997 2.9726-2.3046 0.003-0.006-0.003-0.0139 0-0.0195 0.20476-0.42811 0.3873-0.93048 0.56639-1.457 0.74001-2.1681 0.70851-4.2322 0-7.0134-0.50908-2.0025-1.4764-3.5175-3.539-3.5175h-2.6679-0.46484zm-3.8632 16.372c0.73476 0 1.3144 0.58739 1.3144 1.3144 0 0.72959-0.57966 1.3144-1.3144 1.3144-0.73213 0-1.334-0.58481-1.334-1.3144 0-0.72702 0.60183-1.3144 1.334-1.3144z" />
    <path
       id="path4247"
       d="m64.161 55.889c-0.645-0.008-1.309 0.053-2.0019 0.1621-0.0128 0.002-0.0282-0.002-0.041 0-0.57045 0.0481-1.1081 0.11515-1.6172 0.20312-2.0621 0.35574-2.9558 0.97665-3.3163 1.9804-0.38633 0.46744-0.62694 1.0243-0.62694 1.6972v3.2538h0.40624v0.0215h-0.40624-3.1933c-1.624 0-2.4273 1.0378-3.0527 2.5058-0.0291 0.0682-0.0733 0.13306-0.10156 0.20311-0.0256 0.0546-0.0581 0.10385-0.082 0.16015-0.0157 0.0403-0.0237 0.0822-0.0391 0.12305-0.086 0.21836-0.16314 0.44288-0.22265 0.68552-0.01 0.0289-0.0312 0.0529-0.041 0.082-0.74001 2.1681-0.70852 4.2517 0 7.033 0.50908 2.0025 1.4764 3.5174 3.539 3.5174h3.1132v-2.789c0-2.3828 2.5966-4.3866 4.4491-4.3866h6.6112c1.3787 0 2.5705-0.98018 3.1542-2.2226 0.0365-0.0673 0.0674-0.13332 0.0996-0.20312 0.0135-0.0333 0.0285-0.0659 0.041-0.0996 0.0329-0.0777 0.0547-0.1637 0.082-0.24413 0.12032-0.35443 0.20117-0.737 0.20117-1.1308v-6.5896c0-1.8757-1.6155-3.2845-3.539-3.5975-0.56885-0.0925-1.1409-0.15636-1.7168-0.20312-0.0401-0.006-0.0829-0.0135-0.12304-0.0195-0.007-0.00051-0.0128 0.00049-0.0195 0-0.5135-0.0762-1.0274-0.1359-1.5566-0.14258zm-3.7616 1.457c0.71033 0 1.2949 0.56034 1.2949 1.2519 0 0.68909-0.58456 1.2539-1.2949 1.2539-0.71287 0-1.2734-0.56477-1.2734-1.2539 0-0.69157 0.56055-1.2519 1.2734-1.2519zm11.668 6.9314v2.3456 0.0195l-0.1621 0.80857c0 0.11515-0.0144 0.23299-0.0215 0.34373-0.50593 1.6338-2 3.0648-3.6386 3.4764-0.014 0.00062-0.027 0.021-0.041 0.0215-0.0686 0.003-0.13111 0-0.20117 0l-1.9609 0.12109-5.0155 0.0195c-1.8885 0-3.537 1.2294-3.537 3.4764v0.34374 6.5896c0 1.8758 1.6634 2.9793 3.537 3.5175 2.2436 0.64423 4.3935 0.76065 7.078 0 0.22904-0.0648 0.46298-0.14018 0.68749-0.22265 1.5999-0.55891 3.2148-1.5471 3.2148-3.2948v-3.2538h3.1933c1.545 0 2.3583-0.94997 2.9726-2.3046 0.003-0.006-0.003-0.0139 0-0.0195 0.20476-0.42811 0.3873-0.93048 0.56639-1.457 0.74001-2.1681 0.70851-4.2322 0-7.0134-0.50908-2.0025-1.4764-3.5175-3.539-3.5175h-2.6679-0.46484zm-3.8632 16.372c0.73476 0 1.3144 0.58739 1.3144 1.3144 0 0.72959-0.57966 1.3144-1.3144 1.3144-0.73213 0-1.334-0.58481-1.334-1.3144 0-0.72702 0.60183-1.3144 1.334-1.3144z"
       style="fill-opacity:.11765" />
    <path
       id="path4243"
       style="fill-opacity:.23529"
       d="m64.161 55.489c-0.645-0.008-1.309 0.053-2.0019 0.1621-0.0128 0.002-0.0282-0.002-0.041 0-0.57045 0.0481-1.1081 0.11515-1.6172 0.20312-2.0621 0.35574-2.9558 0.97665-3.3163 1.9804-0.38633 0.46744-0.62694 1.0243-0.62694 1.6972v3.2538h0.40624v0.0215h-0.40624-3.1933c-1.624 0-2.4273 1.0378-3.0527 2.5058-0.0291 0.0682-0.0733 0.13306-0.10156 0.20311-0.0256 0.0546-0.0581 0.10385-0.082 0.16015-0.0157 0.0403-0.0237 0.0822-0.0391 0.12305-0.086 0.21836-0.16314 0.44288-0.22265 0.68552-0.01 0.0289-0.0312 0.0529-0.041 0.082-0.74001 2.1681-0.70852 4.2517 0 7.033 0.50908 2.0025 1.4764 3.5174 3.539 3.5174h3.1132v-2.789c0-2.3828 2.5966-4.3866 4.4491-4.3866h6.6112c1.3787 0 2.5705-0.98018 3.1542-2.2226 0.0365-0.0673 0.0674-0.13332 0.0996-0.20312 0.0135-0.0333 0.0285-0.0659 0.041-0.0996 0.0329-0.0777 0.0547-0.1637 0.082-0.24413 0.12032-0.35443 0.20117-0.737 0.20117-1.1308v-6.5896c0-1.8757-1.6155-3.2845-3.539-3.5975-0.56885-0.0925-1.1409-0.15636-1.7168-0.20312-0.0401-0.006-0.0829-0.0135-0.12304-0.0195-0.007-0.00051-0.0128 0.00049-0.0195 0-0.5135-0.0762-1.0274-0.1359-1.5566-0.14258zm-3.7616 1.457c0.71033 0 1.2949 0.56034 1.2949 1.2519 0 0.68909-0.58456 1.2539-1.2949 1.2539-0.71287 0-1.2734-0.56477-1.2734-1.2539 0-0.69157 0.56055-1.2519 1.2734-1.2519zm11.668 6.9314v2.3456 0.0195l-0.1621 0.80857c0 0.11515-0.0144 0.23299-0.0215 0.34373-0.50593 1.6338-2 3.0648-3.6386 3.4764-0.014 0.00062-0.027 0.021-0.041 0.0215-0.0686 0.003-0.13111 0-0.20117 0l-1.9609 0.12109-5.0155 0.0195c-1.8885 0-3.537 1.2294-3.537 3.4764v0.34374 6.5896c0 1.8758 1.6634 2.9793 3.537 3.5175 2.2436 0.64423 4.3935 0.76065 7.078 0 0.22904-0.0648 0.46298-0.14018 0.68749-0.22265 1.5999-0.55891 3.2148-1.5471 3.2148-3.2948v-3.2538h3.1933c1.545 0 2.3583-0.94997 2.9726-2.3046 0.003-0.006-0.003-0.0139 0-0.0195 0.20476-0.42811 0.3873-0.93048 0.56639-1.457 0.74001-2.1681 0.70851-4.2322 0-7.0134-0.50908-2.0025-1.4764-3.5175-3.539-3.5175h-2.6679-0.46484zm-3.8632 16.372c0.73476 0 1.3144 0.58739 1.3144 1.3144 0 0.72959-0.57966 1.3144-1.3144 1.3144-0.73213 0-1.334-0.58481-1.334-1.3144 0-0.72702 0.60183-1.3144 1.334-1.3144z" />
    <path
       id="path2732"
       d="m64.161 55.089c-0.645-0.008-1.309 0.053-2.0019 0.1621-0.0128 0.002-0.0282-0.002-0.041 0-0.57045 0.0481-1.1081 0.11515-1.6172 0.20312-2.0621 0.35574-2.9558 0.97665-3.3163 1.9804-0.38633 0.46744-0.62694 1.0243-0.62694 1.6972v3.2538h0.40624v0.0215h-0.40624-3.1933c-1.624 0-2.4273 1.0378-3.0527 2.5058-0.0291 0.0682-0.0733 0.13306-0.10156 0.20311-0.0256 0.0546-0.0581 0.10385-0.082 0.16015-0.0157 0.0403-0.0237 0.0822-0.0391 0.12305-0.086 0.21836-0.16314 0.44288-0.22265 0.68552-0.01 0.0289-0.0312 0.0529-0.041 0.082-0.74001 2.1681-0.70852 4.2517 0 7.033 0.50908 2.0025 1.4764 3.5174 3.539 3.5174h3.1132v-2.789c0-2.3828 2.5966-4.3866 4.4491-4.3866h6.6112c1.3787 0 2.5705-0.98018 3.1542-2.2226 0.0365-0.0673 0.0674-0.13332 0.0996-0.20312 0.0135-0.0333 0.0285-0.0659 0.041-0.0996 0.0329-0.0777 0.0547-0.1637 0.082-0.24413 0.12032-0.35443 0.20117-0.737 0.20117-1.1308v-6.5896c0-1.8757-1.6155-3.2845-3.539-3.5975-0.56885-0.0925-1.1409-0.15636-1.7168-0.20312-0.0401-0.006-0.0829-0.0135-0.12304-0.0195-0.007-0.00051-0.0128 0.00049-0.0195 0-0.5135-0.0762-1.0274-0.1359-1.5566-0.14258zm-3.7616 1.457c0.71033 0 1.2949 0.56034 1.2949 1.2519 0 0.68909-0.58456 1.2539-1.2949 1.2539-0.71287 0-1.2734-0.56477-1.2734-1.2539 0-0.69157 0.56055-1.2519 1.2734-1.2519zm11.668 6.9314v2.3456 0.0195l-0.1621 0.80857c0 0.11515-0.0144 0.23299-0.0215 0.34373-0.50593 1.6338-2 3.0648-3.6386 3.4764-0.014 0.00062-0.027 0.021-0.041 0.0215-0.0686 0.003-0.13111 0-0.20117 0l-1.9609 0.12109-5.0155 0.0195c-1.8885 0-3.537 1.2294-3.537 3.4764v0.34374 6.5896c0 1.8758 1.6634 2.9793 3.537 3.5175 2.2436 0.64423 4.3935 0.76065 7.078 0 0.22904-0.0648 0.46298-0.14018 0.68749-0.22265 1.5999-0.55891 3.2148-1.5471 3.2148-3.2948v-3.2538h3.1933c1.545 0 2.3583-0.94997 2.9726-2.3046 0.003-0.006-0.003-0.0139 0-0.0195 0.20476-0.42811 0.3873-0.93048 0.56639-1.457 0.74001-2.1681 0.70851-4.2322 0-7.0134-0.50908-2.0025-1.4764-3.5175-3.539-3.5175h-2.6679-0.46484zm-3.8632 16.372c0.73476 0 1.3144 0.58739 1.3144 1.3144 0 0.72959-0.57966 1.3144-1.3144 1.3144-0.73213 0-1.334-0.58481-1.334-1.3144 0-0.72702 0.60183-1.3144 1.334-1.3144z"
       style="fill:url(#linearGradient4351)" />
    <path
       id="path4251"
       style="fill:#feb82e;fill-opacity:.31373"
       d="m60.399 55.747c-0.71287 0-1.2734 0.56038-1.2734 1.252 0 0.14002 0.0294 0.27238 0.0723 0.39844 0.16861-0.49351 0.63383-0.85156 1.2012-0.85156 0.56532 0 1.046 0.35805 1.2207 0.85156 0.0444-0.12606 0.0742-0.25842 0.0742-0.39844 0-0.69157-0.58459-1.252-1.2949-1.252zm-3.8418 5.8398v0.02148h0.40625v-0.02148h-0.40625zm14.559 3.2559c0 0.39382-0.0808 0.77643-0.20117 1.1309-0.0273 0.08043-0.0491 0.16644-0.082 0.24414-0.0125 0.0337-0.0275 0.06631-0.041 0.09961-0.0322 0.0698-0.0631 0.13582-0.0996 0.20312-0.58371 1.2424-1.7756 2.2207-3.1543 2.2207h-6.6113c-1.8526 0-4.4492 2.0039-4.4492 4.3867v0.80078c0-2.3828 2.5966-4.3867 4.4492-4.3867h6.6113c1.3787 0 2.5706-0.98027 3.1543-2.2227 0.0365-0.0673 0.0674-0.13332 0.0996-0.20312 0.0135-0.0333 0.0285-0.06591 0.041-0.09961 0.0329-0.0777 0.0547-0.16371 0.082-0.24414 0.12032-0.35443 0.20117-0.73704 0.20117-1.1309v-0.79883zm-21.818 4.1836c-0.0476 1.2642 0.12808 2.6065 0.52734 4.1738 0.50908 2.0025 1.4765 3.5176 3.5391 3.5176h3.1133v-0.80078h-3.1133c-2.0626 0-3.03-1.5151-3.5391-3.5176-0.31633-1.2418-0.48933-2.3398-0.52734-3.373zm29.969 1.334c-0.037 0.97427-0.20455 1.9019-0.52734 2.8477-0.17909 0.5265-0.36165 1.0289-0.56641 1.457-0.003 0.0056 0.003 0.01353 0 0.01953-0.6143 1.3546-1.4277 2.3047-2.9726 2.3047h-3.1934v0.80078h3.1934c1.545 0 2.3584-0.95005 2.9726-2.3047 0.003-0.006-0.003-0.01393 0-0.01953 0.20476-0.42811 0.38732-0.93053 0.56641-1.457 0.40959-1.2 0.57444-2.3729 0.52734-3.6484zm-11.062 8.6895c-0.73213 0-1.334 0.58743-1.334 1.3145 0 0.1408 0.0289 0.27354 0.0703 0.40039 0.17359-0.52926 0.67319-0.91406 1.2637-0.91406 0.59258 0 1.078 0.38483 1.2461 0.91406 0.0401-0.12687 0.0684-0.25957 0.0684-0.40039 0-0.72702-0.5797-1.3145-1.3145-1.3145zm-10.715 1.1934v0.80078c0 1.8758 1.6635 2.9794 3.5371 3.5176 2.2436 0.64423 4.3936 0.76065 7.0781 0 0.22904-0.0648 0.46299-0.14019 0.6875-0.22266 1.5999-0.55891 3.2148-1.5472 3.2148-3.2949v-0.80078c0 1.7477-1.615 2.736-3.2148 3.2949-0.22451 0.08247-0.45846 0.15786-0.6875 0.22266-2.6845 0.76065-4.8345 0.64423-7.0781 0-1.8736-0.53813-3.5371-1.6418-3.5371-3.5176z" />
    <path
       id="path4256"
       style="fill:#fff;fill-opacity:.23529"
       d="m64.161 55.089c-0.645-0.008-1.3091 0.05301-2.002 0.16211-0.0128 0.002-0.0282-0.002-0.041 0-0.57045 0.0481-1.1081 0.11516-1.6172 0.20312-2.0621 0.35574-2.9558 0.97672-3.3164 1.9805-0.38633 0.46744-0.62695 1.0244-0.62695 1.6973v0.40039c0-0.6729 0.24062-1.2298 0.62695-1.6973 0.36057-1.0038 1.2543-1.6247 3.3164-1.9805 0.50908-0.08797 1.0467-0.15502 1.6172-0.20312 0.0128-0.002 0.0282 0.002 0.041 0 0.69288-0.1091 1.357-0.17011 2.002-0.16211 0.52921 0.0067 1.0431 0.06638 1.5566 0.14258 0.007 0.00049 0.0125-0.00051 0.0195 0 0.0401 0.006 0.0829 0.01353 0.12304 0.01953 0.5759 0.04676 1.148 0.11062 1.7168 0.20312 1.9235 0.31306 3.5391 1.7219 3.5391 3.5977v-0.40039c0-1.8757-1.6156-3.2846-3.5391-3.5977-0.56885-0.0925-1.1409-0.15636-1.7168-0.20312-0.0401-0.006-0.0829-0.01353-0.12304-0.01953-0.007-0.00051-0.0128 0.00049-0.0195 0-0.5135-0.0762-1.0274-0.1359-1.5566-0.14258zm-5.0156 2.9102c-0.0105 0.06536-0.0195 0.13088-0.0195 0.19922 0 0.68909 0.56057 1.2539 1.2734 1.2539 0.71033 0 1.2949-0.56482 1.2949-1.2539 0-0.06835-0.0105-0.13385-0.0215-0.19922-0.10091 0.59404-0.63399 1.0527-1.2734 1.0527-0.64175 0-1.1569-0.45867-1.2539-1.0527zm-5.7812 4.4082c-1.624 0-2.4274 1.0379-3.0527 2.5059-0.0291 0.0682-0.0733 0.13308-0.10157 0.20313-0.0256 0.0546-0.0581 0.10386-0.082 0.16016-0.0157 0.0403-0.0237 0.0822-0.0391 0.12305-0.086 0.21836-0.16315 0.44291-0.22266 0.68555-0.01 0.0289-0.0312 0.05293-0.041 0.08203-0.38971 1.1418-0.55958 2.2635-0.53516 3.4727 0.018-1.0581 0.18876-2.0574 0.53516-3.0723 0.01-0.0291 0.031-0.05313 0.041-0.08203 0.0595-0.24264 0.13666-0.46719 0.22266-0.68555 0.0154-0.04085 0.0234-0.08275 0.0391-0.12305 0.0239-0.0563 0.0564-0.10556 0.082-0.16016 0.0283-0.07005 0.0725-0.13492 0.10157-0.20312 0.62533-1.4679 1.4288-2.5059 3.0527-2.5059h3.1934 0.40625v-0.02148h-0.40625v-0.37891h-3.1934zm18.703 1.0703v0.40039h0.46484 2.668c2.0626 0 3.03 1.5151 3.5391 3.5176 0.33531 1.3162 0.51313 2.4688 0.53516 3.5508 0.0206-1.1974-0.1582-2.4714-0.53516-3.9512-0.50908-2.0025-1.4765-3.5176-3.5391-3.5176h-2.668-0.46484zm0 2.3652-0.16211 0.80859c0 0.11515-0.0144 0.23301-0.0215 0.34375-0.50593 1.6338-2 3.0649-3.6387 3.4766-0.014 0.000621-0.027 0.02098-0.041 0.02148-0.0686 0.003-0.13112 0-0.20118 0l-1.9609 0.12109-5.0156 0.01953c-1.8885 0-3.5371 1.2295-3.5371 3.4766v0.34375 0.05664c0-2.2471 1.6486-3.4766 3.5371-3.4766l5.0156-0.01953 1.9609-0.12109c0.0701 0 0.13258 0.003 0.20118 0 0.014-0.0005 0.027-0.02086 0.041-0.02148 1.6386-0.41163 3.1327-1.8427 3.6387-3.4766 0.007-0.11074 0.0215-0.2286 0.0215-0.34375l0.16211-0.80859v-0.01953-0.38086zm-5.1758 15.523c-0.0102 0.06537-0.0215 0.13103-0.0215 0.19922 0 0.72959 0.60186 1.3145 1.334 1.3145 0.73476 0 1.3144-0.58486 1.3144-1.3145 0-0.06819-0.0116-0.13385-0.0215-0.19922-0.096 0.63209-0.62779 1.1133-1.293 1.1133-0.66279 0-1.2131-0.48119-1.3125-1.1133z" />
  </g>
</svg>
