<?xml version="1.0" encoding="UTF-8" standalone="no"?>
<!-- Created with Inkscape (http://www.inkscape.org/) -->

<svg
   xmlns:dc="http://purl.org/dc/elements/1.1/"
   xmlns:cc="http://creativecommons.org/ns#"
   xmlns:rdf="http://www.w3.org/1999/02/22-rdf-syntax-ns#"
   xmlns:svg="http://www.w3.org/2000/svg"
   xmlns="http://www.w3.org/2000/svg"
   xmlns:xlink="http://www.w3.org/1999/xlink"
   xmlns:sodipodi="http://sodipodi.sourceforge.net/DTD/sodipodi-0.dtd"
   xmlns:inkscape="http://www.inkscape.org/namespaces/inkscape"
   id="svg3449"
   height="96"
   width="96"
   version="1.0"
   inkscape:version="0.48.5 r10040"
   sodipodi:docname="applications-education-preschool.svg">
  <sodipodi:namedview
     pagecolor="#ffffff"
     bordercolor="#666666"
     borderopacity="1"
     objecttolerance="10"
     gridtolerance="10"
     guidetolerance="10"
     inkscape:pageopacity="0"
     inkscape:pageshadow="2"
     inkscape:window-width="1366"
     inkscape:window-height="716"
     id="namedview285"
     showgrid="false"
     inkscape:zoom="2.6074562"
     inkscape:cx="136.60101"
     inkscape:cy="62.946092"
     inkscape:window-x="0"
     inkscape:window-y="24"
     inkscape:window-maximized="1"
     inkscape:current-layer="svg3449"
     showguides="true"
     inkscape:guide-bbox="true" />
  <metadata
     id="metadata56">
    <rdf:RDF>
      <cc:Work
         rdf:about="">
        <dc:format>image/svg+xml</dc:format>
        <dc:type
           rdf:resource="http://purl.org/dc/dcmitype/StillImage" />
        <dc:title />
      </cc:Work>
    </rdf:RDF>
  </metadata>
  <defs
     id="defs3451">
    <filter
       id="filter3174"
       color-interpolation-filters="sRGB">
      <feGaussianBlur
         id="feGaussianBlur3176"
         stdDeviation="1.71" />
    </filter>
    <linearGradient
       id="ButtonShadow-9"
       x1="45.448002"
       gradientUnits="userSpaceOnUse"
       y1="92.540001"
       gradientTransform="scale(1.0059,0.99417)"
       x2="45.448002"
       y2="7.0165">
      <stop
         id="stop3750-4"
         offset="0" />
      <stop
         id="stop3752-0"
         style="stop-opacity:.58824"
         offset="1" />
    </linearGradient>
    <filter
       id="filter3174-4"
       color-interpolation-filters="sRGB">
      <feGaussianBlur
         id="feGaussianBlur3176-3"
         stdDeviation="1.71" />
    </filter>
    <filter
       color-interpolation-filters="sRGB"
       id="filter3174-4-1">
      <feGaussianBlur
         stdDeviation="1.71"
         id="feGaussianBlur3176-3-1" />
    </filter>
    <linearGradient
       y2="7.0165"
       x2="45.448002"
       gradientTransform="scale(1.0059,0.99417)"
       y1="92.540001"
       gradientUnits="userSpaceOnUse"
       x1="45.448002"
       id="ButtonShadow-9-4">
      <stop
         offset="0"
         id="stop3750-4-2" />
      <stop
         offset="1"
         style="stop-opacity:.58824"
         id="stop3752-0-1" />
    </linearGradient>
    <filter
       color-interpolation-filters="sRGB"
       id="filter3174-26">
      <feGaussianBlur
         stdDeviation="1.71"
         id="feGaussianBlur3176-83" />
    </filter>
    <linearGradient
       id="linearGradient4345">
      <stop
         id="stop4347"
         offset="0"
         style="stop-color:#1e7bd2;stop-opacity:1;" />
      <stop
         id="stop4349"
         offset="1"
         style="stop-color:#175ea0;stop-opacity:1;" />
    </linearGradient>
    <linearGradient
       inkscape:collect="always"
       xlink:href="#ButtonShadow-9"
       id="linearGradient4680"
       gradientUnits="userSpaceOnUse"
       gradientTransform="scale(1.0059,0.99417)"
       x1="45.448002"
       y1="92.540001"
       x2="45.448002"
       y2="7.0165" />
    <linearGradient
       inkscape:collect="always"
       xlink:href="#ButtonShadow-9"
       id="linearGradient4682"
       gradientUnits="userSpaceOnUse"
       gradientTransform="scale(1.0059,0.99417)"
       x1="45.448002"
       y1="92.540001"
       x2="45.448002"
       y2="7.0165" />
    <linearGradient
       inkscape:collect="always"
       xlink:href="#ButtonShadow-9-4"
       id="linearGradient4684"
       gradientUnits="userSpaceOnUse"
       gradientTransform="scale(1.0059,0.99417)"
       x1="45.448002"
       y1="92.540001"
       x2="45.448002"
       y2="7.0165" />
    <linearGradient
       inkscape:collect="always"
       xlink:href="#ButtonShadow-9-4"
       id="linearGradient4686"
       gradientUnits="userSpaceOnUse"
       gradientTransform="scale(1.0059,0.99417)"
       x1="45.448002"
       y1="92.540001"
       x2="45.448002"
       y2="7.0165" />
    <filter
       color-interpolation-filters="sRGB"
       id="filter3174-4-7">
      <feGaussianBlur
         stdDeviation="1.71"
         id="feGaussianBlur3176-3-15" />
    </filter>
    <linearGradient
       y2="7.0165"
       x2="45.448"
       gradientTransform="scale(1.0059 .99417)"
       y1="92.54"
       gradientUnits="userSpaceOnUse"
       x1="45.448"
       id="ButtonShadow-9-0">
      <stop
         offset="0"
         id="stop3750-4-6" />
      <stop
         offset="1"
         style="stop-opacity:.58824"
         id="stop3752-0-6" />
    </linearGradient>
    <filter
       color-interpolation-filters="sRGB"
       id="filter3174-87">
      <feGaussianBlur
         stdDeviation="1.71"
         id="feGaussianBlur3176-56" />
    </filter>
    <linearGradient
       inkscape:collect="always"
       xlink:href="#linearGradient4345"
       id="linearGradient5847"
       gradientUnits="userSpaceOnUse"
       gradientTransform="translate(136.94916,-76.203367)"
       x1="-128.94916"
       y1="28.203369"
       x2="-48.949158"
       y2="28.203369" />
    <linearGradient
       inkscape:collect="always"
       xlink:href="#ButtonShadow-9-0"
       id="linearGradient5849"
       gradientUnits="userSpaceOnUse"
       gradientTransform="scale(1.0059,0.99417)"
       x1="45.448"
       y1="92.54"
       x2="45.448"
       y2="7.0165" />
    <linearGradient
       inkscape:collect="always"
       xlink:href="#ButtonShadow-9-0"
       id="linearGradient5851"
       gradientUnits="userSpaceOnUse"
       gradientTransform="scale(1.0059,0.99417)"
       x1="45.448"
       y1="92.54"
       x2="45.448"
       y2="7.0165" />
  </defs>
  <rect
     style="fill:#1d78cc;fill-opacity:1;stroke:none"
     id="rect2985"
     width="80"
     height="80"
     x="8"
     y="-88"
     rx="10.769231"
     ry="10.769231"
     transform="matrix(0,1,-1,0,0,0)" />
  <g
     id="layer2"
     style="display:none"
     transform="translate(-32.001,116.11)">
    <rect
       id="rect3745"
       style="opacity:0.9;fill:url(#linearGradient4680);filter:url(#filter3174)"
       rx="6"
       ry="6"
       height="85"
       width="86"
       y="7"
       x="5" />
  </g>
  <g
     id="layer2-7"
     style="display:none"
     transform="translate(-47.287,196.14)">
    <rect
       id="rect3745-3"
       style="opacity:0.9;fill:url(#linearGradient4682);filter:url(#filter3174-4)"
       rx="6"
       ry="6"
       height="85"
       width="86"
       y="7"
       x="5" />
  </g>
  <g
     id="layer2-01"
     style="display:none"
     transform="translate(-204.74676,92.51678)">
    <rect
       id="rect3745-4"
       style="opacity:0.9;fill:url(#linearGradient4684);filter:url(#filter3174-26)"
       rx="6"
       ry="6"
       height="85"
       width="86"
       y="7"
       x="5" />
  </g>
  <g
     id="layer2-7-2"
     style="display:none"
     transform="translate(-220.03276,172.54678)">
    <rect
       id="rect3745-3-8"
       style="opacity:0.9;fill:url(#linearGradient4686);filter:url(#filter3174-4-1)"
       rx="6"
       ry="6"
       height="85"
       width="86"
       y="7"
       x="5" />
  </g>
  <g
     id="g5798"
     transform="translate(-345.89955,1.944833)">
    <g
       transform="translate(-32.001,148.11)"
       style="display:none"
       id="layer2-76">
      <rect
         x="5"
         y="7"
         width="86"
         height="85"
         ry="6"
         rx="6"
         style="opacity:0.9;fill:url(#linearGradient5849);filter:url(#filter3174-87)"
         id="rect3745-5" />
    </g>
    <g
       transform="translate(-47.287,228.14)"
       style="display:none"
       id="layer2-7-1">
      <rect
         x="5"
         y="7"
         width="86"
         height="85"
         ry="6"
         rx="6"
         style="opacity:0.9;fill:url(#linearGradient5851);filter:url(#filter3174-4-7)"
         id="rect3745-3-1" />
    </g>
    <path
       id="path41841-5"
       d="m 393.27456,16.06009 c -7.4968,0.170422 -14.89572,3.250343 -20.27778,8.49537 -5.74085,5.594695 -9.10058,13.590916 -9.09722,21.62037 0.0552,7.844066 3.31747,15.630283 8.86574,21.157407 5.54827,5.527125 13.31536,8.726851 21.13426,8.726851 7.8189,0 15.58599,-3.199726 21.13426,-8.726851 5.54826,-5.527124 8.81058,-13.313341 8.86573,-21.157407 0.003,-7.73382 -3.10339,-15.445553 -8.47222,-20.99537 -5.36882,-5.549817 -12.94267,-8.892313 -20.64814,-9.12037 -0.50001,-0.01478 -1.00484,-0.01136 -1.50463,0 z m 1.57407,6.458333 11.34259,4.050926 c 6.23357,2.225703 11.22724,4.152209 11.08797,4.282407 -0.4508,0.421429 -21.86227,7.962044 -22.5463,7.939815 -0.36427,-0.01183 -3.60296,-1.088383 -7.17592,-2.38426 -3.57298,-1.29588 -6.54176,-2.42139 -6.62038,-2.499999 -0.19032,-0.190326 0.65906,-0.353774 7.17593,-1.342593 4.01852,-0.609739 5.62529,-0.740453 5.87963,-0.486111 0.52214,0.522141 1.32659,0.42566 1.9213,-0.231482 0.61994,-0.685019 0.70202,-1.682237 0.16203,-2.222222 -0.54758,-0.547588 -2.10011,-0.47472 -2.43055,0.115741 -0.21034,0.375858 -2.26283,0.799941 -8.28704,1.736111 l -8.03241,1.25 -2.31481,-0.810185 c -1.27256,-0.453547 -2.43017,-0.935262 -2.56945,-1.064815 -0.13926,-0.129551 4.8544,-2.056704 11.08797,-4.282407 l 11.31944,-4.050926 z m -16.73611,10.717592 0.81019,0 0.78704,0 0.0926,7.476852 c 0.0273,2.380252 0.0812,4.406153 0.16204,5.810185 0.58463,0.419756 1.20579,0.855375 1.80556,1.273148 2.55835,1.78202 3.52701,2.337963 4.02778,2.337963 0.84887,0 1.83794,0.51529 2.49999,1.273148 0.37999,0.434964 0.96653,0.708818 2.10649,1.018519 9.98881,2.713731 13.43634,3.763057 13.28704,4.004629 -0.0662,0.107089 -0.4726,0.277677 -0.90278,0.393518 -0.43019,0.115831 -0.9648,0.32835 -1.18056,0.486112 -0.36363,0.265891 -0.2744,0.368691 1.08797,1.249999 1.87292,1.211595 2.56944,2.090167 2.56944,3.263889 0,2.473073 -2.55123,4.813159 -5.48611,5.023148 -1.25681,0.08992 -1.54985,0.01805 -2.5463,-0.486111 -1.82158,-0.921638 -4.25042,-2.836931 -6.96759,-5.532407 -1.39433,-1.383204 -2.60149,-2.523148 -2.68519,-2.523148 -0.0837,0 -0.0745,1.381503 0,3.078703 0.11994,2.729597 0.0881,3.231652 -0.27778,4.398149 -0.4349,1.386411 -1.86274,3.816481 -2.24536,3.819444 -0.1234,0.0013 -0.33676,-0.666148 -0.46296,-1.481481 -0.12621,-0.815323 -0.28296,-1.532956 -0.34723,-1.597223 -0.0643,-0.06427 -0.52693,0.03005 -1.01852,0.208334 -1.15363,0.418436 -2.03703,0.603003 -2.03703,0.439815 0,-0.07083 0.37691,-0.546292 0.83333,-1.064815 1.27417,-1.447532 1.74773,-2.917118 1.62037,-5.046296 -0.12337,-2.062547 -0.30958,-2.340629 -1.13426,-1.75926 -1.94812,1.373359 -5.16269,2.195906 -7.10648,1.828704 l -0.78704,-0.162037 1.04167,-0.902778 1.04166,-0.902778 -1.18055,-0.532407 c -1.56444,-0.691993 -1.65363,-0.891564 -0.43982,-1.041667 1.87655,-0.232062 3.08718,-0.554995 4.23611,-1.087963 1.21109,-0.561792 2.50001,-1.461122 2.50001,-1.736111 0,-0.337367 -6.55526,-1.557362 -8.72686,-1.62037 -1.17873,-0.0342 -2.25437,-0.104918 -2.38425,-0.185186 -0.41337,-0.255476 -0.095,-4.394302 0.43981,-5.787036 0.52416,-1.364898 1.90881,-2.760486 3.47222,-3.49537 1.06768,-0.501873 1.00934,-0.519979 2.61574,0.810185 0.15432,0.127783 0.39816,0.308291 0.69445,0.532407 0.0476,-1.234937 0.0967,-2.643181 0.11574,-4.305555 l 0.0694,-7.476852 z m 2.80093,2.38426 c 0.0458,0 3.07451,1.068944 6.73611,2.384259 3.6616,1.315318 6.89726,2.384259 7.19907,2.384259 0.30182,0 3.56063,-1.068941 7.22223,-2.384259 3.66159,-1.315315 6.69035,-2.384259 6.73611,-2.384259 0.0458,0 0.0694,2.301355 0.0694,5.11574 0,5.078074 -0.001,5.130289 -0.81018,5.879629 -1.07817,0.999215 -3.07883,1.928844 -5.92592,2.731482 -2.67576,0.754331 -8.92065,1.083736 -11.80556,0.625 -3.71067,-0.590039 -7.95581,-2.34208 -9.12037,-3.773148 -0.2814,-0.345804 -0.39351,-1.973502 -0.39351,-5.532407 0,-2.772494 0.0468,-5.046296 0.0926,-5.046296 z m -5.41667,9.49074 -0.64815,0.509259 c -1.664,1.271115 -2.49874,3.019147 -2.38426,5 l 0.0463,1.087963 3.14815,0.25463 c 1.72595,0.136556 3.80103,0.421929 4.60648,0.648147 0.80544,0.226206 1.53122,0.428356 1.62037,0.439815 0.0891,0.01144 0.25737,-0.23913 0.37036,-0.555555 0.11302,-0.316427 0.33746,-0.828845 0.50927,-1.134259 0.17181,-0.305414 0.32407,-0.599348 0.32407,-0.671296 0,-0.07195 -0.97337,-0.76344 -2.15278,-1.527778 -0.16388,-0.10621 -0.35171,-0.248983 -0.5324,-0.370371 0.44048,0.921221 -0.3776,2.453704 -1.48149,2.453704 -0.32569,0 -0.83552,-0.233667 -1.11111,-0.50926 -0.56239,-0.562391 -0.6602,-1.770359 -0.18518,-2.24537 0.0713,-0.07125 0.14774,-0.604307 0.20833,-1.504629 -0.25398,-0.191967 -0.50058,-0.399295 -0.69444,-0.555556 l -1.64352,-1.319444 z m 12.5,8.032407 c -0.35621,0.136692 -0.94907,1.371846 -0.94907,1.990741 0,0.463675 1.40115,1.801172 4.30555,4.143518 1.15075,0.928058 2.20331,1.846886 2.36112,2.037037 0.43493,0.524056 0.61527,0.409641 0.85648,-0.486111 0.36481,-1.354815 1.46815,-2.745532 2.93981,-3.726852 0.74792,-0.498724 1.34143,-0.984967 1.31944,-1.064815 -0.022,-0.07986 -1.19942,-0.426356 -2.61574,-0.787036 -1.41631,-0.360677 -3.76404,-1.005323 -5.23148,-1.435186 -1.28401,-0.376134 -2.47387,-0.65437 -2.87037,-0.671296 -0.0567,-0.0024 -0.0936,-0.0085 -0.11574,0 z m 11.15741,5.231481 c -0.14643,0.01302 -0.29735,0.09263 -0.50926,0.231482 -0.75931,0.497524 -1.37162,1.579509 -1.08797,1.921296 0.35567,0.428544 0.59427,0.338556 0.83334,-0.347222 0.13753,-0.394527 0.50702,-0.779861 0.97222,-1.018519 0.73942,-0.379353 0.74338,-0.375816 0.27778,-0.625 -0.19231,-0.10294 -0.33968,-0.175029 -0.48611,-0.162037 z m 2.77778,2.222222 c -0.35404,0 -0.64815,0.05976 -0.64815,0.115741 0,0.05598 0.34581,0.403896 0.76389,0.787037 0.65424,0.599573 0.7081,0.762724 0.50926,1.13426 -0.23364,0.436556 -1.60277,1.111416 -2.26852,1.111111 -0.19903,-8.8e-5 -0.96034,-0.279892 -1.68982,-0.625 -0.72948,-0.3451 -1.42304,-0.648149 -1.52778,-0.648149 -0.22925,0 -0.24681,1.268571 -0.0232,1.620371 0.62442,0.982094 3.32263,1.157315 4.9537,0.324074 1.0652,-0.54417 1.54753,-1.047824 1.71297,-1.875 0.1097,-0.548469 0.0211,-0.766023 -0.50926,-1.296296 -0.43294,-0.43293 -0.83497,-0.648149 -1.27315,-0.648149 z m -1.80556,0.625 c -0.37605,0 -0.55617,0.636771 -0.27778,0.972223 0.28314,0.341154 0.94025,0.383348 1.13426,0.06944 0.16112,-0.26069 -0.47955,-1.041667 -0.85648,-1.041667 z"
       style="fill:#ffffff;stroke:none"
       inkscape:connector-curvature="0" />
  </g>
</svg>
