<?xml version="1.0" encoding="UTF-8" standalone="no"?>
<!-- Created with Inkscape (http://www.inkscape.org/) -->

<svg
   xmlns:dc="http://purl.org/dc/elements/1.1/"
   xmlns:cc="http://creativecommons.org/ns#"
   xmlns:rdf="http://www.w3.org/1999/02/22-rdf-syntax-ns#"
   xmlns:svg="http://www.w3.org/2000/svg"
   xmlns="http://www.w3.org/2000/svg"
   xmlns:xlink="http://www.w3.org/1999/xlink"
   xmlns:sodipodi="http://sodipodi.sourceforge.net/DTD/sodipodi-0.dtd"
   xmlns:inkscape="http://www.inkscape.org/namespaces/inkscape"
   id="svg11037"
   height="96"
   width="96"
   version="1.1"
   inkscape:version="0.48.5 r10040"
   sodipodi:docname="gnome-mime-x-font-afm.svg">
  <sodipodi:namedview
     pagecolor="#ffffff"
     bordercolor="#666666"
     borderopacity="1"
     objecttolerance="10"
     gridtolerance="10"
     guidetolerance="10"
     inkscape:pageopacity="0"
     inkscape:pageshadow="2"
     inkscape:window-width="1366"
     inkscape:window-height="716"
     id="namedview49"
     showgrid="false"
     inkscape:zoom="2.4583333"
     inkscape:cx="0.40677966"
     inkscape:cy="47.389831"
     inkscape:window-x="0"
     inkscape:window-y="26"
     inkscape:window-maximized="1"
     inkscape:current-layer="svg11037" />
  <defs
     id="defs11039">
    <linearGradient
       x1="48"
       x2="48"
       gradientTransform="matrix(1.15,0,0,1.15,-7.1999,-150.65)"
       y1="962.62"
       gradientUnits="userSpaceOnUse"
       y2="1046.1"
       id="linearGradient11642-9">
      <stop
         offset="0"
         style="stop-color:#bcb5ac"
         id="stop3189" />
      <stop
         offset="1"
         style="stop-color:#e9e7e4"
         id="stop3191" />
    </linearGradient>
    <clipPath
       id="clipPath3729-0-1">
      <path
         inkscape:connector-curvature="0"
         style="fill:#ff00ff"
         d="m -88,6 c -3.324,0 -6,2.676 -6,6 v 72 c 0,3.324 2.676,6 6,6 h 72 c 3.324,0 6,-2.676 6,-6 V 12 c 0,-3.324 -2.676,-6 -6,-6 h -72 z m 42.031,18 h 5.4062 l 8.4688,44.594 h 4.7188 L -28.0312,72 h -17.469 l 0.65625,-3.4062 h 5.3438 l -1.9688,-10.531 h -20.188 l -6.0938,10.531 h 5.2812 l -0.625,3.406 h -13.531 l 0.65625,-3.4062 h 4.2188 l 25.782,-44.594 z m -0.46875,7.7812 -13.219,22.812 h 17.594 l -4.375,-22.812 z"
         id="path3731-0-6" />
    </clipPath>
    <filter
       color-interpolation-filters="sRGB"
       height="1.2915"
       x="-0.14228"
       y="-0.14576"
       width="1.2846"
       id="filter3733-3-8">
      <feGaussianBlur
         stdDeviation="3.0366511"
         id="feGaussianBlur3735-8-1" />
    </filter>
    <linearGradient
       inkscape:collect="always"
       xlink:href="#linearGradient11642-9"
       id="linearGradient3096"
       gradientUnits="userSpaceOnUse"
       gradientTransform="translate(-114.64956,-968.34257)"
       x1="53.057766"
       y1="1042.4381"
       x2="50.4524"
       y2="965.4649" />
  </defs>
  <metadata
     id="metadata11042">
    <rdf:RDF>
      <cc:Work
         rdf:about="">
        <dc:format>image/svg+xml</dc:format>
        <dc:type
           rdf:resource="http://purl.org/dc/dcmitype/StillImage" />
        <dc:title />
      </cc:Work>
    </rdf:RDF>
  </metadata>
  <g
     id="g3045"
     transform="translate(113.89831,12.20339)">
    <rect
       ry="10.769231"
       rx="10.769231"
       y="-4.2034097"
       x="-105.89831"
       height="80"
       width="80"
       id="rect2985"
       style="fill:url(#linearGradient3096);fill-opacity:1;stroke:none" />
    <path
       inkscape:connector-curvature="0"
       id="rect3755"
       d="m -105.89831,62.99283 0,2.0133 c 0,5.966 4.79307,10.7905 10.758951,10.7905 l 58.450649,0 c 5.965883,0 10.790405,-4.8245 10.790405,-10.7905 l 0,-2.0133 c 0,5.9659 -4.824522,10.7904 -10.790405,10.7904 l -58.450649,0 c -5.965881,0 -10.758951,-4.8245 -10.758951,-10.7904 z"
       style="opacity:0.3;fill:#000000;fill-opacity:1;stroke:none" />
  </g>
  <g
     id="g13552"
     transform="matrix(0.92307692,0,0,0.92307692,96,-895.75218)"
     style="fill:#2f4b7b;fill-opacity:1">
    <text
       sodipodi:linespacing="125%"
       id="text3717"
       style="font-size:65.84300232px;font-style:italic;line-height:125%;opacity:0.6;fill:#2f4b7b;fill-opacity:1;stroke:#ffffff;stroke-width:2;filter:url(#filter3733-3-8);font-family:DejaVu Serif"
       clip-path="url(#clipPath3729-0-1)"
       xml:space="preserve"
       transform="matrix(0.8125,0,0,0.8125,-9.75,983.3982)"
       y="72"
       x="-71.563293"><tspan
         id="tspan3719"
         y="72"
         x="-71.563293"
         style="fill:#2f4b7b;fill-opacity:1;stroke:#ffffff;stroke-width:2">A</tspan></text>
    <rect
       id="rect2902"
       style="opacity:0.2;color:#000000;fill:#2f4b7b;fill-opacity:1"
       height="0.8125"
       width="58.5"
       y="1041.0857"
       x="-84.5" />
    <rect
       id="rect3690"
       style="opacity:0.12000002;color:#000000;fill:#2f4b7b;fill-opacity:1"
       height="0.8125"
       width="45.5"
       y="1002.0857"
       x="-65" />
    <rect
       id="rect3694"
       style="opacity:0.15;color:#000000;fill:#2f4b7b;fill-opacity:1"
       transform="matrix(0,1,-1,0,0,0)"
       height="0.8125"
       width="26"
       y="71.5"
       x="1022.3982" />
    <rect
       id="rect3698"
       style="opacity:0.15;color:#000000;fill:#2f4b7b;fill-opacity:1"
       transform="matrix(0,1,-1,0,0,0)"
       height="0.8125"
       width="65"
       y="31.6875"
       x="989.89819" />
    <text
       sodipodi:linespacing="125%"
       id="text2907"
       style="font-size:53.49744034px;font-style:italic;line-height:125%;fill:#2f4b7b;fill-opacity:1;font-family:DejaVu Serif"
       y="1041.8982"
       x="-67.89518"
       xml:space="preserve"><tspan
         id="tspan2909"
         y="1041.8982"
         x="-67.89518"
         style="fill:#2f4b7b;fill-opacity:1">A</tspan></text>
  </g>
</svg>
