<?xml version="1.0" encoding="UTF-8" standalone="no"?>
<!-- Created with Inkscape (http://www.inkscape.org/) -->

<svg
   xmlns:dc="http://purl.org/dc/elements/1.1/"
   xmlns:cc="http://creativecommons.org/ns#"
   xmlns:rdf="http://www.w3.org/1999/02/22-rdf-syntax-ns#"
   xmlns:svg="http://www.w3.org/2000/svg"
   xmlns="http://www.w3.org/2000/svg"
   xmlns:sodipodi="http://sodipodi.sourceforge.net/DTD/sodipodi-0.dtd"
   xmlns:inkscape="http://www.inkscape.org/namespaces/inkscape"
   id="svg3449"
   height="128"
   width="128"
   version="1.0"
   inkscape:version="0.48.5 r10040"
   sodipodi:docname="applications-ruby.svg">
  <sodipodi:namedview
     pagecolor="#ffffff"
     bordercolor="#666666"
     borderopacity="1"
     objecttolerance="10"
     gridtolerance="10"
     guidetolerance="10"
     inkscape:pageopacity="0"
     inkscape:pageshadow="2"
     inkscape:window-width="640"
     inkscape:window-height="480"
     id="namedview108247" />
  <metadata
     id="metadata56">
    <rdf:RDF>
      <cc:Work
         rdf:about="">
        <dc:format>image/svg+xml</dc:format>
        <dc:type
           rdf:resource="http://purl.org/dc/dcmitype/StillImage" />
        <dc:title />
      </cc:Work>
    </rdf:RDF>
  </metadata>
  <defs
     id="defs3451">
    <linearGradient
       id="linearGradient3514"
       y2="-9.1034"
       gradientUnits="userSpaceOnUse"
       x2="66.492"
       gradientTransform="matrix(.96826 0 0 .97948 2.179 .16587)"
       y1="-42.638"
       x1="67.952">
      <stop
         id="stop4620"
         style="stop-color:#37414b"
         offset="0" />
      <stop
         id="stop4622"
         style="stop-color:#37414b;stop-opacity:0"
         offset="1" />
    </linearGradient>
    <linearGradient
       id="linearGradient3516"
       y2="-11.847"
       gradientUnits="userSpaceOnUse"
       x2="58.98"
       gradientTransform="matrix(.96826 0 0 .97948 2.179 .16587)"
       y1="-118.55"
       x1="57.173">
      <stop
         id="stop4596"
         offset="0" />
      <stop
         id="stop4598"
         style="stop-opacity:0"
         offset="1" />
    </linearGradient>
    <linearGradient
       id="linearGradient3519"
       y2="50.369"
       gradientUnits="userSpaceOnUse"
       x2="76.558"
       gradientTransform="matrix(.96826 0 0 .97948 3.2423 -129.19)"
       y1="13.164"
       x1="76.558">
      <stop
         id="stop3392"
         style="stop-color:#425e7b"
         offset="0" />
      <stop
         id="stop3394"
         style="stop-color:#7a91a7"
         offset="1" />
    </linearGradient>
    <linearGradient
       id="linearGradient3521"
       y2="-8.7399"
       gradientUnits="userSpaceOnUse"
       x2="60.217"
       gradientTransform="matrix(.96826 0 0 .97948 2.179 .16587)"
       y1="-123.72"
       x1="60.395">
      <stop
         id="stop3392-4-8"
         style="stop-color:#425e7b"
         offset="0" />
      <stop
         id="stop3394-8-0"
         style="stop-color:#7a91a7"
         offset="1" />
    </linearGradient>
    <radialGradient
       id="radialGradient3349"
       gradientUnits="userSpaceOnUse"
       cy="45.647"
       cx="42.148"
       gradientTransform="matrix(.94690 0 0 1.139 3.5954 -29.89)"
       r="58.984">
      <stop
         id="stop2699-5"
         style="stop-color:#ff0d0d"
         offset="0" />
      <stop
         id="stop2701-7"
         style="stop-color:#940000"
         offset="1" />
    </radialGradient>
    <filter
       id="filter3174-5"
       color-interpolation-filters="sRGB">
      <feGaussianBlur
         id="feGaussianBlur3176-4"
         stdDeviation="1.71" />
    </filter>
    <linearGradient
       id="ButtonShadow-4"
       x1="45.448"
       gradientUnits="userSpaceOnUse"
       y1="92.54"
       gradientTransform="scale(1.0059 .99417)"
       x2="45.448"
       y2="7.0165">
      <stop
         id="stop3750-3"
         offset="0" />
      <stop
         id="stop3752-57"
         style="stop-opacity:.58824"
         offset="1" />
    </linearGradient>
    <filter
       id="filter3174-0"
       color-interpolation-filters="sRGB">
      <feGaussianBlur
         id="feGaussianBlur3176-9"
         stdDeviation="1.71" />
    </filter>
    <filter
       id="filter3174-7"
       color-interpolation-filters="sRGB">
      <feGaussianBlur
         id="feGaussianBlur3176-7"
         stdDeviation="1.71" />
    </filter>
    <clipPath
       id="clipPath3613-9">
      <rect
         id="rect3615-2"
         style="fill:#fff"
         rx="6"
         ry="6"
         height="84"
         width="84"
         y="6"
         x="6" />
    </clipPath>
    <linearGradient
       id="linearGradient3613-3"
       x1="48"
       gradientUnits="userSpaceOnUse"
       y1="20.221"
       x2="48"
       y2="138.66">
      <stop
         id="stop3739-03"
         style="stop-color:#fff"
         offset="0" />
      <stop
         id="stop3741-5"
         style="stop-color:#fff;stop-opacity:0"
         offset="1" />
    </linearGradient>
    <filter
       id="filter3794-30"
       height="1.384"
       width="1.384"
       color-interpolation-filters="sRGB"
       y="-.192"
       x="-.192">
      <feGaussianBlur
         id="feGaussianBlur3796-38"
         stdDeviation="5.28" />
    </filter>
    <filter
       id="filter3174-8"
       color-interpolation-filters="sRGB">
      <feGaussianBlur
         id="feGaussianBlur3176-3"
         stdDeviation="1.71" />
    </filter>
    <clipPath
       id="clipPath3613-26">
      <rect
         id="rect3615-4"
         style="fill:#fff"
         rx="6"
         ry="6"
         height="84"
         width="84"
         y="6"
         x="6" />
    </clipPath>
    <filter
       id="filter3794-67"
       height="1.384"
       width="1.384"
       color-interpolation-filters="sRGB"
       y="-.192"
       x="-.192">
      <feGaussianBlur
         id="feGaussianBlur3796-4"
         stdDeviation="5.28" />
    </filter>
    <filter
       id="filter3174-4"
       color-interpolation-filters="sRGB">
      <feGaussianBlur
         id="feGaussianBlur3176-0"
         stdDeviation="1.71" />
    </filter>
    <filter
       id="filter3174-1"
       color-interpolation-filters="sRGB">
      <feGaussianBlur
         id="feGaussianBlur3176-1"
         stdDeviation="1.71" />
    </filter>
    <linearGradient
       id="linearGradient9285"
       y2="7.0165"
       gradientUnits="userSpaceOnUse"
       x2="45.448"
       gradientTransform="matrix(1.0059 0 0 .99417 -59.657 2.8358)"
       y1="92.54"
       x1="45.448">
      <stop
         id="stop3750-7"
         offset="0" />
      <stop
         id="stop3752-3"
         style="stop-opacity:.58824"
         offset="1" />
    </linearGradient>
    <linearGradient
       id="linearGradient4556-3"
       y2="6.71"
       gradientUnits="userSpaceOnUse"
       x2="-89.417"
       gradientTransform="matrix(.58319 0 0 .60517 -74.646 34.483)"
       y1="136.84"
       x1="-89.417">
      <stop
         id="stop4231-0"
         style="stop-color:#f5c3c3"
         offset="0" />
      <stop
         id="stop4233-5"
         style="stop-color:#fef6f6"
         offset="1" />
    </linearGradient>
  </defs>
  <rect
     id="rect892"
     style="stroke:url(#linearGradient3521);stroke-width:.97385;fill:url(#linearGradient3519)"
     transform="scale(1,-1)"
     ry="29.296"
     height="115.54"
     width="114.22"
     y="-122.25"
     x="7.0394" />
  <rect
     id="rect892-2"
     style="stroke:url(#linearGradient3516);stroke-width:.97385;fill:url(#linearGradient3514)"
     transform="scale(1,-1)"
     ry="28.993"
     height="114.35"
     width="114.22"
     y="-121.46"
     x="7.0599" />
  <path
     id="rect895"
     style="fill:url(#radialGradient3349)"
     d="m30.571 7.0104c-13.128 0.936-22.55 15.04-23.173 23.288-0.050142 0.97378-0.088772 1.9648-0.088772 2.9572v58.419c0 15.229 11.191 27.859 22.318 27.859h67.038c15.69 0 24.318-16.445 24.318-25.859v-64.017c-0.21-5.933-12.29-21.682-25.926-22.618-47.846 0.8653-20.497-0.0256-64.483-0.0256z" />
  <rect
     id="rect892-2-7-8"
     style="opacity:.15891;stroke:#000;stroke-width:4.8445;fill:none"
     transform="scale(1,-1)"
     ry="28.993"
     height="114.35"
     width="114.22"
     y="-121.16"
     x="6.8683" />
  <rect
     id="rect892-2-7-1"
     style="opacity:.15891;stroke:#000;stroke-width:7.7512;fill:none"
     transform="scale(1,-1)"
     ry="28.993"
     height="114.35"
     width="114.22"
     y="-121.16"
     x="6.8686" />
  <rect
     id="rect892-2-7-2-9"
     ry="28.067"
     style="stroke:#000;stroke-width:1.0489;fill:none"
     transform="scale(1,-1)"
     height="112.71"
     width="114.14"
     y="-120.31"
     x="7.0644" />
  <path
     id="path1187"
     style="fill:#fff;fill-opacity:.057143"
     d="m32.415 6.0906c-14.891-4.3298-32.779 19.454-27.93 26.295-0.04334 0.71563-0.07674 1.4439-0.07674 2.1732v10.76c25.899-25.61 66.753-35.479 90.375-39.179-0.22473-0.02628-0.45986-0.03062-0.69067-0.03062-41.576 0.38742-23.653-0.01876-61.677-0.01875z" />
  <g
     id="layer2"
     style="display:none"
     transform="translate(137.63 15.959)">
    <rect
       id="rect3745"
       style="opacity:.9;filter:url(#filter3174-5);fill:url(#ButtonShadow-4)"
       rx="6"
       ry="6"
       height="85"
       width="86"
       y="7"
       x="5" />
  </g>
  <g
     id="layer2-3"
     style="display:none"
     transform="translate(146.29 14.997)">
    <rect
       id="rect3745-4"
       style="opacity:.9;filter:url(#filter3174-0);fill:url(#ButtonShadow-4)"
       rx="6"
       ry="6"
       height="85"
       width="86"
       y="7"
       x="5" />
  </g>
  <g
     id="layer2-4"
     style="display:none"
     transform="translate(176.76 -8.736)">
    <rect
       id="rect3745-7"
       style="opacity:.9;filter:url(#filter3174-7);fill:url(#ButtonShadow-4)"
       rx="6"
       ry="6"
       height="85"
       width="86"
       y="7"
       x="5" />
  </g>
  <g
     id="layer2-2"
     style="display:none"
     transform="translate(143.15 5.055)">
    <rect
       id="rect3745-9"
       style="opacity:.9;filter:url(#filter3174-8);fill:url(#ButtonShadow-4)"
       rx="6"
       ry="6"
       height="85"
       width="86"
       y="7"
       x="5" />
  </g>
  <g
     id="layer5-4"
     style="display:none"
     transform="translate(143.15 5.055)">
    <rect
       id="rect3171-7"
       style="opacity:.3;filter:url(#filter3794-30);stroke:#fff;stroke-linecap:round;stroke-width:.5;fill:url(#linearGradient3613-3)"
       clip-path="url(#clipPath3613-9)"
       rx="12"
       ry="12"
       height="66"
       width="66"
       y="15"
       x="15" />
  </g>
  <g
     id="layer2-1"
     style="display:none"
     transform="translate(160.47 -5.8175)">
    <rect
       id="rect3745-8"
       style="opacity:.9;filter:url(#filter3174-4);fill:url(#ButtonShadow-4)"
       rx="6"
       ry="6"
       height="85"
       width="86"
       y="7"
       x="5" />
  </g>
  <g
     id="layer5-46"
     style="display:none"
     transform="translate(160.47 -5.8175)">
    <rect
       id="rect3171-2"
       style="opacity:.1;filter:url(#filter3794-67);stroke:#fff;stroke-linecap:round;stroke-width:.5;fill:url(#linearGradient3613-3)"
       clip-path="url(#clipPath3613-26)"
       rx="12"
       ry="12"
       height="66"
       width="66"
       y="15"
       x="15" />
  </g>
  <rect
     id="rect3745-82"
     style="opacity:.9;filter:url(#filter3174-1);display:none;fill:url(#linearGradient9285)"
     rx="6"
     ry="6"
     height="85"
     width="86"
     y="9.8358"
     x="-54.657" />
  <g
     id="g4565"
     transform="translate(193.14 -16.222)">
    <path
       id="path4241"
       style="fill-opacity:.058824"
       d="m-118.98 41.694-5.009 12.453 6.5574 0.69213-1.5484-13.145zm29.362 7.7725-11.213 6.8342 4.8398 4.6348 6.3728-11.469zm-61.37 6.9316 5.8345 11.623 4.8655-4.4656-10.7-7.1572zm40.236 5.1218-10.736 0.13335 5.2295 3.5735 5.5064-3.7068zm4.5014 0.22549-6.178 3.6504 11.464 0.66137-5.2859-4.3118zm-19.118 4.6502c-1.5266 0.09004-3.3547 0.63386-5.3936 1.6867-6.5244 3.3692-12.668 10.614-13.725 16.17-1.0569 5.5559 3.3706 7.317 9.895 3.9478s12.668-10.594 13.725-16.15c0.72663-3.8197-1.143-5.8532-4.5014-5.655zm9.6233 0.96899-3.5376 9.4746 15.33-0.23074-11.792-9.2439zm3.7683 0.24596 11.228 9.1516 0.16406-8.1313-11.392-1.0203zm10.52 11.136-15.309 0.24596 11.115 7.793 4.1938-8.0391zm-18.626 0.85108c-10.391 10.516-12.463 14.386-24.968 15.355-2.2828-0.52041-2.4796-5.0608-3.5376-7.9416l-0.14359 18.344c0.2058 1.2144 1.7031 4.8258 6.7061 5.8037 12.678 0.45699 25.74-0.69901 38.801-1.8303 1.4716-8.4567 1.3845-17.19 1.7688-25.835-5.63 9.0682-11.946 15.419-18.554 20.631l1.6201-1.6816 11.628-14.299-13.32-8.5466zm-35.448 5.3218-12.838 4.6706 12.951 2.1636-0.11287-6.8342zm-0.11287 24.307-6.7778 11.218 11.448-6.3933-4.6706-4.8245z" />
    <path
       id="path4239"
       style="fill-opacity:.11765"
       d="m-118.98 40.644-5.009 12.453 6.5574 0.69213-1.5484-13.145zm29.362 7.7725-11.213 6.8342 4.8398 4.6348 6.3728-11.469zm-61.37 6.9316 5.8345 11.623 4.8655-4.4656-10.7-7.1572zm40.236 5.1218-10.736 0.13335 5.2295 3.5735 5.5064-3.7068zm4.5014 0.22549-6.178 3.6504 11.464 0.66137-5.2859-4.3118zm-19.118 4.6502c-1.5266 0.09004-3.3547 0.63386-5.3936 1.6867-6.5244 3.3692-12.668 10.614-13.725 16.17-1.0569 5.5559 3.3706 7.317 9.895 3.9478s12.668-10.594 13.725-16.15c0.72663-3.8197-1.143-5.8532-4.5014-5.655zm9.6233 0.96899-3.5376 9.4746 15.33-0.23074-11.792-9.2439zm3.7683 0.24596 11.228 9.1516 0.16406-8.1313-11.392-1.0203zm10.52 11.136-15.309 0.24596 11.115 7.793 4.1938-8.0391zm-18.626 0.85108c-10.391 10.516-12.463 14.386-24.968 15.355-2.2828-0.52041-2.4796-5.0608-3.5376-7.9416l-0.14359 18.344c0.2058 1.2144 1.7031 4.8258 6.7061 5.8037 12.678 0.45699 25.74-0.69901 38.801-1.8303 1.4716-8.4567 1.3845-17.19 1.7688-25.835-5.63 9.0682-11.946 15.419-18.554 20.631l1.6201-1.6816 11.628-14.299-13.32-8.5466zm-35.448 5.3218-12.838 4.6706 12.951 2.1636-0.11287-6.8342zm-0.11287 24.307-6.7778 11.218 11.448-6.3933-4.6706-4.8245z" />
    <path
       id="path4235"
       style="fill-opacity:.23529"
       d="m-118.98 39.594-5.009 12.453 6.5574 0.69213-1.5484-13.145zm29.362 7.7725-11.213 6.8342 4.8398 4.6348 6.3728-11.469zm-61.37 6.9316 5.8345 11.623 4.8655-4.4656-10.7-7.1572zm40.236 5.1218-10.736 0.13335 5.2295 3.5735 5.5064-3.7068zm4.5014 0.22549-6.178 3.6504 11.464 0.66137-5.2859-4.3118zm-19.118 4.6502c-1.5266 0.09004-3.3547 0.63386-5.3936 1.6867-6.5244 3.3692-12.668 10.614-13.725 16.17-1.0569 5.5559 3.3706 7.317 9.895 3.9478s12.668-10.594 13.725-16.15c0.72663-3.8197-1.143-5.8532-4.5014-5.655zm9.6233 0.96899-3.5376 9.4746 15.33-0.23074-11.792-9.2439zm3.7683 0.24596 11.228 9.1516 0.16406-8.1313-11.392-1.0203zm10.52 11.136-15.309 0.24596 11.115 7.793 4.1938-8.0391zm-18.626 0.85108c-10.391 10.516-12.463 14.386-24.968 15.355-2.2828-0.52041-2.4796-5.0608-3.5376-7.9416l-0.14359 18.344c0.2058 1.2144 1.7031 4.8258 6.7061 5.8037 12.678 0.45699 25.74-0.69901 38.801-1.8303 1.4716-8.4567 1.3845-17.19 1.7688-25.835-5.63 9.0682-11.946 15.419-18.554 20.631l1.6201-1.6816 11.628-14.299-13.32-8.5466zm-35.448 5.3218-12.838 4.6706 12.951 2.1636-0.11287-6.8342zm-0.11287 24.307-6.7778 11.218 11.448-6.3933-4.6706-4.8245z" />
    <path
       id="path1098"
       style="fill:url(#linearGradient4556-3)"
       d="m-118.98 38.544-5.009 12.453 6.5574 0.69214-1.5483-13.146zm29.362 7.7725-11.213 6.8342 4.8398 4.6348 6.3728-11.469zm-61.37 6.9316 5.8345 11.623 4.8655-4.4656-10.7-7.1572zm40.236 5.1218-10.736 0.1333 5.2295 3.5735 5.5064-3.7068zm4.5015 0.22559-6.178 3.6504 11.464 0.66138-5.2859-4.3118zm-19.118 4.6501c-1.5266 0.09004-3.3547 0.63388-5.3936 1.6868-6.5244 3.3692-12.668 10.614-13.725 16.17-1.0569 5.5559 3.3706 7.317 9.895 3.9478s12.668-10.594 13.725-16.15c0.72663-3.8197-1.143-5.8532-4.5015-5.655zm9.6233 0.969-3.5376 9.4746 15.33-0.23071-11.792-9.2439zm3.7683 0.24609 11.228 9.1516 0.16406-8.1313-11.392-1.0203zm10.521 11.136-15.309 0.24609 11.115 7.793 4.1938-8.0391zm-18.626 0.85107c-10.391 10.516-12.463 14.386-24.968 15.355-2.2828-0.52041-2.4797-5.0608-3.5376-7.9416l-0.14356 18.344c0.2058 1.2144 1.7031 4.8258 6.706 5.8037 12.678 0.45698 25.74-0.699 38.801-1.8303 1.4716-8.4567 1.3845-17.19 1.7688-25.835-5.63 9.0682-11.946 15.419-18.554 20.631l1.6201-1.6816 11.628-14.299-13.32-8.5466zm-35.448 5.3218-12.838 4.6707 12.951 2.1636-0.1128-6.8342zm-0.1128 24.307-6.7778 11.218 11.448-6.3933-4.6706-4.8245z" />
    <path
       id="path4243"
       style="fill:#dd2728;fill-opacity:.31373"
       d="m-89.614 46.316-1.7637 1.0767-4.6091 8.2903-3.4966-3.3479-1.3433 0.81518 4.8398 4.6348 6.3728-11.469zm-33.561 2.666-0.81006 2.0149 6.5574 0.69214-0.25121-2.1277-5.4961-0.57935zm-27.809 4.2656 5.8345 11.623 4.8655-4.4656-1.3228-0.88696-3.5427 3.2505-4.2451-8.4595-1.5894-1.0613zm40.236 5.1218-3.1787 0.04103-2.3276 1.5637-2.2097-1.5073-3.0198 0.03588 5.2295 3.5735 5.5064-3.7068zm1.5637 1.9585-3.2402 1.9175 11.464 0.66138-2.7737-2.261-5.4499-0.31787zm-2.7891 4.1323 11.228 9.1516 0.16406-8.1313-0.041-0.0053-0.12303 6.0344-8.3313-6.7881-2.8967-0.26148zm-8.8337 1.8457c-0.0226 0.16742-0.0231 0.31724-0.0564 0.49219-1.0569 5.5559-7.2005 12.781-13.725 16.15-5.3268 2.7508-9.2483 2.0802-9.936-1.2817-0.63083 5.0775 3.6534 6.6282 9.936 3.3838 6.5244-3.3692 12.668-10.594 13.725-16.15 0.18816-0.98909 0.19719-1.8524 0.0564-2.5942zm14.227 5.0911-11.91 0.17944-0.78955 2.1123 15.33-0.23071-2.6301-2.061zm5.127 4.199-1.1074 0.01549-3.0864 5.9216-8.1826-5.7371-2.9326 0.04615 11.115 7.793 4.1938-8.0391zm0 4.7476c-0.0266 0.04281-0.0554 0.08035-0.082 0.12303-0.29119 7.9158-0.34117 15.877-1.6868 23.61-13.061 1.1313-26.122 2.2873-38.801 1.8303-4.958-0.96915-6.4635-4.5118-6.6907-5.7576l-0.0155 2.0559c0.2058 1.2144 1.7031 4.8258 6.706 5.8037 12.678 0.45699 25.74-0.699 38.801-1.8303 1.4716-8.4567 1.3845-17.19 1.7688-25.835zm-6.4292 3.9272-10.505 12.92-1.6201 1.6816c2.3177-1.828 4.5951-3.8068 6.824-5.9832l6.4241-7.8955-1.1228-0.7229zm-56.525 0.72803-3.958 1.4407 12.951 2.1636-0.0359-2.1072-8.9568-1.4971zm12.115 24.538-8.2082 4.5835-1.9175 3.1736 11.448-6.3933-1.3228-1.3638z" />
    <path
       id="path4248"
       style="fill:#fff;fill-opacity:.23529"
       d="m-118.98 38.544-5.009 12.453 0.40503 0.04103 4.604-11.443 1.4253 12.079 0.12304 0.01549-1.5483-13.146zm29.362 7.7725-11.213 6.8342 0.67163 0.64087 9.6592-5.8857 0.88184-1.5894zm-61.37 6.9316 0.79468 1.5842 9.2439 6.1831 0.66138-0.61011-10.7-7.1572zm40.236 5.1218-10.736 0.1333 1.5124 1.0305 7.634-0.0923 1.5894-1.0715zm4.5015 0.22559-6.178 3.6504 1.6201 0.0923 4.5579-2.6917 3.9016 3.1787 1.3843 0.08203-5.2859-4.3118zm-19.118 4.6501c-1.5266 0.09004-3.3547 0.63388-5.3936 1.6868-6.5244 3.3692-12.668 10.614-13.725 16.17-0.16328 0.85831-0.17829 1.6144-0.0923 2.2866 0.0152-0.40036 0.007-0.78448 0.0923-1.2356 1.0569-5.5559 7.2005-12.801 13.725-16.17 2.0389-1.0529 3.867-1.5967 5.3936-1.6868 2.7003-0.15934 4.4094 1.1457 4.6091 3.6401 0.24735-3.1846-1.5507-4.8716-4.6091-4.6912zm9.6233 0.969-3.5376 9.4746 0.39477-0.0053 3.1428-8.4185 10.474 8.2134 1.3176-0.02047-11.792-9.2439zm3.7683 0.24609 1.4509 1.1792 9.9206 0.89209 0.0205-1.051-11.392-1.0203zm10.521 11.136-15.309 0.24609 1.4663 1.0254 13.289-0.21021 0.55371-1.0613zm-18.626 0.85107c-10.391 10.516-12.463 14.386-24.968 15.355-2.2828-0.52041-2.4797-5.0608-3.5376-7.9416l-0.14356 18.344c0.001 0.006 0.009 0.0194 0.0102 0.0257l0.1333-17.319c1.0579 2.8809 1.2548 7.4212 3.5376 7.9416 12.505-0.96884 14.577-4.8389 24.968-15.355l12.756 8.1877 0.56397-0.69214-13.32-8.5466zm18.626 3.8965c-4.6071 7.4206-9.6863 12.97-14.996 17.616l-1.938 2.384-1.6201 1.6816c6.5924-5.1995 12.893-11.535 18.513-20.569 0.015-0.37059 0.0247-0.74225 0.041-1.1125zm-54.074 1.4253-12.838 4.6707 1.979 0.33325 10.859-3.9529 0.0974 5.7781 0.0155 0.0052-0.1128-6.8342zm-0.1128 24.307-6.7778 11.218 0.95874-0.5332 5.8191-9.6335 4.0093 4.1426 0.66137-0.36914-4.6706-4.8245z" />
  </g>
</svg>
