<?xml version="1.0" encoding="UTF-8" standalone="no"?>
<!-- Created with Inkscape (http://www.inkscape.org/) -->

<svg
   xmlns:dc="http://purl.org/dc/elements/1.1/"
   xmlns:cc="http://creativecommons.org/ns#"
   xmlns:rdf="http://www.w3.org/1999/02/22-rdf-syntax-ns#"
   xmlns:svg="http://www.w3.org/2000/svg"
   xmlns="http://www.w3.org/2000/svg"
   xmlns:xlink="http://www.w3.org/1999/xlink"
   xmlns:sodipodi="http://sodipodi.sourceforge.net/DTD/sodipodi-0.dtd"
   xmlns:inkscape="http://www.inkscape.org/namespaces/inkscape"
   id="svg3449"
   height="96"
   width="96"
   version="1.0"
   inkscape:version="0.48.5 r10040"
   sodipodi:docname="applications-accessories.svg">
  <sodipodi:namedview
     pagecolor="#ffffff"
     bordercolor="#666666"
     borderopacity="1"
     objecttolerance="10"
     gridtolerance="10"
     guidetolerance="10"
     inkscape:pageopacity="0"
     inkscape:pageshadow="2"
     inkscape:window-width="1366"
     inkscape:window-height="716"
     id="namedview118"
     showgrid="false"
     inkscape:zoom="3.6875"
     inkscape:cx="-10.128231"
     inkscape:cy="25.374921"
     inkscape:window-x="0"
     inkscape:window-y="24"
     inkscape:window-maximized="1"
     inkscape:current-layer="svg3449" />
  <metadata
     id="metadata56">
    <rdf:RDF>
      <cc:Work
         rdf:about="">
        <dc:format>image/svg+xml</dc:format>
        <dc:type
           rdf:resource="http://purl.org/dc/dcmitype/StillImage" />
        <dc:title />
      </cc:Work>
    </rdf:RDF>
  </metadata>
  <defs
     id="defs3451">
    <filter
       id="filter3174"
       color-interpolation-filters="sRGB">
      <feGaussianBlur
         id="feGaussianBlur3176"
         stdDeviation="1.71" />
    </filter>
    <linearGradient
       id="ButtonShadow-1"
       x1="45.448002"
       gradientUnits="userSpaceOnUse"
       y1="92.540001"
       gradientTransform="scale(1.0059,0.99417)"
       x2="45.448002"
       y2="7.0165">
      <stop
         id="stop3750-87"
         offset="0" />
      <stop
         id="stop3752-56"
         style="stop-opacity:.58824"
         offset="1" />
    </linearGradient>
    <filter
       id="filter3174-5"
       color-interpolation-filters="sRGB">
      <feGaussianBlur
         id="feGaussianBlur3176-70"
         stdDeviation="1.71" />
    </filter>
    <filter
       id="filter3174-2"
       color-interpolation-filters="sRGB">
      <feGaussianBlur
         id="feGaussianBlur3176-78"
         stdDeviation="1.71" />
    </filter>
    <filter
       id="filter3174-24"
       color-interpolation-filters="sRGB">
      <feGaussianBlur
         id="feGaussianBlur3176-0"
         stdDeviation="1.71" />
    </filter>
    <filter
       id="filter3174-8"
       color-interpolation-filters="sRGB">
      <feGaussianBlur
         id="feGaussianBlur3176-9"
         stdDeviation="1.71" />
    </filter>
    <linearGradient
       id="linearGradient7604"
       y2="7.0165"
       gradientUnits="userSpaceOnUse"
       x2="45.448002"
       gradientTransform="matrix(1.0059,0,0,0.99417,-189.19,-53.187)"
       y1="92.540001"
       x1="45.448002">
      <stop
         id="stop3750-3"
         offset="0" />
      <stop
         id="stop3752-7"
         style="stop-opacity:.58824"
         offset="1" />
    </linearGradient>
    <filter
       id="filter3174-0"
       color-interpolation-filters="sRGB">
      <feGaussianBlur
         id="feGaussianBlur3176-2"
         stdDeviation="1.71" />
    </filter>
    <filter
       id="filter3174-45"
       color-interpolation-filters="sRGB">
      <feGaussianBlur
         id="feGaussianBlur3176-6"
         stdDeviation="1.71" />
    </filter>
    <linearGradient
       id="linearGradient1179-0">
      <stop
         id="stop1181-7"
         style="stop-color:#a1a1a1"
         offset="0" />
      <stop
         id="stop1183-2"
         style="stop-color:#b9b9b9"
         offset="1" />
    </linearGradient>
    <linearGradient
       id="linearGradient4848-4"
       y2="1016.3"
       gradientUnits="userSpaceOnUse"
       y1="1006.4"
       gradientTransform="matrix(5.0783,0,0,2.9748,121.69,-2964.8)"
       x2="25.545"
       x1="25.545">
      <stop
         id="stop3897-5-2"
         style="stop-color:#e0880b"
         offset="0" />
      <stop
         id="stop3899-5-2"
         style="stop-color:#f7ce50"
         offset="1" />
    </linearGradient>
    <linearGradient
       x1="48"
       x2="48"
       gradientTransform="matrix(1.15,0,0,1.15,-7.1999,-150.65)"
       y1="962.62"
       gradientUnits="userSpaceOnUse"
       y2="1046.1"
       id="linearGradient11642">
      <stop
         offset="0"
         style="stop-color:#bcb5ac"
         id="stop3189" />
      <stop
         offset="1"
         style="stop-color:#e9e7e4"
         id="stop3191" />
    </linearGradient>
    <linearGradient
       inkscape:collect="always"
       xlink:href="#ButtonShadow-1"
       id="linearGradient3101"
       gradientUnits="userSpaceOnUse"
       gradientTransform="scale(1.0059,0.99417)"
       x1="45.448002"
       y1="92.540001"
       x2="45.448002"
       y2="7.0165" />
    <linearGradient
       inkscape:collect="always"
       xlink:href="#ButtonShadow-1"
       id="linearGradient3103"
       gradientUnits="userSpaceOnUse"
       gradientTransform="scale(1.0059,0.99417)"
       x1="45.448002"
       y1="92.540001"
       x2="45.448002"
       y2="7.0165" />
    <linearGradient
       inkscape:collect="always"
       xlink:href="#ButtonShadow-1"
       id="linearGradient3105"
       gradientUnits="userSpaceOnUse"
       gradientTransform="scale(1.0059,0.99417)"
       x1="45.448002"
       y1="92.540001"
       x2="45.448002"
       y2="7.0165" />
    <linearGradient
       inkscape:collect="always"
       xlink:href="#ButtonShadow-1"
       id="linearGradient3107"
       gradientUnits="userSpaceOnUse"
       gradientTransform="scale(1.0059,0.99417)"
       x1="45.448002"
       y1="92.540001"
       x2="45.448002"
       y2="7.0165" />
    <linearGradient
       inkscape:collect="always"
       xlink:href="#ButtonShadow-1"
       id="linearGradient3109"
       gradientUnits="userSpaceOnUse"
       gradientTransform="scale(1.0059,0.99417)"
       x1="45.448002"
       y1="92.540001"
       x2="45.448002"
       y2="7.0165" />
    <linearGradient
       inkscape:collect="always"
       xlink:href="#ButtonShadow-1"
       id="linearGradient3111"
       gradientUnits="userSpaceOnUse"
       gradientTransform="scale(1.0059,0.99417)"
       x1="45.448002"
       y1="92.540001"
       x2="45.448002"
       y2="7.0165" />
    <linearGradient
       inkscape:collect="always"
       xlink:href="#linearGradient4848-4"
       id="linearGradient3115"
       gradientUnits="userSpaceOnUse"
       gradientTransform="matrix(4.6534494,0,0,5.2317808,-63.678,-5268.5751)"
       x1="25.545"
       y1="1006.4"
       x2="25.545"
       y2="1016.3" />
    <linearGradient
       inkscape:collect="always"
       xlink:href="#linearGradient1179-0"
       id="linearGradient3112"
       gradientUnits="userSpaceOnUse"
       gradientTransform="matrix(1.7094101,0,0,1.7094101,40.558323,-1683.3088)"
       x1="15.649"
       y1="1019.7"
       x2="15.649"
       y2="1024.9" />
    <linearGradient
       inkscape:collect="always"
       xlink:href="#linearGradient1179-0"
       id="linearGradient3117"
       gradientUnits="userSpaceOnUse"
       gradientTransform="matrix(1.7094101,0,0,1.7094101,10.228837,-1682.7664)"
       x1="15.649"
       y1="1019.7"
       x2="15.649"
       y2="1024.9" />
    <linearGradient
       inkscape:collect="always"
       xlink:href="#linearGradient1179-0"
       id="linearGradient3121"
       gradientUnits="userSpaceOnUse"
       gradientTransform="matrix(2.010678,0,0,2.010678,35.041978,-2021.1524)"
       x1="15.649"
       y1="1019.7"
       x2="15.649"
       y2="1024.9" />
    <linearGradient
       inkscape:collect="always"
       xlink:href="#linearGradient1179-0"
       id="linearGradient3124"
       gradientUnits="userSpaceOnUse"
       gradientTransform="matrix(1.7094101,0,0,1.7094101,7.796351,-1710.2052)"
       x1="15.649"
       y1="1019.7"
       x2="15.649"
       y2="1024.9" />
  </defs>
  <g
     id="layer2"
     style="display:none"
     transform="matrix(1.44,0,0,1.44,-4.952,-38.9671)">
    <rect
       id="rect3745"
       style="opacity:0.9;fill:url(#linearGradient3101);filter:url(#filter3174)"
       rx="6"
       ry="6"
       height="85"
       width="86"
       y="7"
       x="5" />
  </g>
  <g
     id="layer2-1"
     style="display:none"
     transform="translate(183.21,50.968)">
    <rect
       id="rect3745-9"
       style="opacity:0.9;fill:url(#linearGradient3103);filter:url(#filter3174-5)"
       rx="6"
       ry="6"
       height="85"
       width="86"
       y="7"
       x="5" />
  </g>
  <g
     id="layer2-2"
     style="display:none"
     transform="translate(52.694,114.84)">
    <path
       id="rect3745-94"
       style="opacity:0.9;fill:url(#linearGradient3105);filter:url(#filter3174-2)"
       d="M 11,7 C 7.676,7 5,9.676 5,13 v 73 c 0,3.324 2.676,6 6,6 h 74 c 3.324,0 6,-2.676 6,-6 V 13 C 91,9.676 88.324,7 85,7 H 11 z m -1,4 h 6 v 4 h -6 v -4 z m 70,0 h 6 v 4 h -6 v -4 z m -70,8 h 6 v 4 h -6 v -4 z m 70,0 h 6 v 4 h -6 v -4 z m -70,8 h 6 v 4 h -6 v -4 z m 70,0 h 6 v 4 h -6 v -4 z m -70,8 h 6 v 4 h -6 v -4 z m 70,0 h 6 v 4 h -6 v -4 z m -70,8 h 6 v 4 h -6 v -4 z m 70,0 h 6 v 4 h -6 v -4 z m -70,8 h 6 v 4 h -6 v -4 z m 70,0 h 6 v 4 h -6 v -4 z m -70,8 h 6 v 4 h -6 v -4 z m 70,0 h 6 v 4 h -6 v -4 z m -70,8 h 6 v 4 h -6 v -4 z m 70,0 h 6 v 4 h -6 v -4 z m -70,8 h 6 v 4 h -6 v -4 z m 70,0 h 6 v 4 h -6 v -4 z m -70,8 h 6 v 4 h -6 v -4 z m 70,0 h 6 v 4 h -6 v -4 z"
       inkscape:connector-curvature="0" />
  </g>
  <g
     id="layer2-20"
     style="display:none"
     transform="translate(-287.93,5.655)">
    <rect
       id="rect3745-8"
       style="opacity:0.9;fill:url(#linearGradient3107);filter:url(#filter3174-24)"
       rx="6"
       ry="6"
       height="85"
       width="86"
       y="7"
       x="5" />
  </g>
  <rect
     id="rect3745-7"
     style="opacity:0.9;fill:url(#linearGradient7604);display:none;filter:url(#filter3174-8)"
     rx="6"
     ry="6"
     height="85"
     width="86"
     y="-46.187"
     x="-184.19" />
  <g
     id="layer2-0"
     style="display:none"
     transform="translate(218.22,-13.29)">
    <rect
       id="rect3745-6"
       style="opacity:0.9;fill:url(#linearGradient3109);filter:url(#filter3174-0)"
       rx="6"
       ry="6"
       height="85"
       width="86"
       y="7"
       x="5" />
  </g>
  <g
     id="layer2-3"
     style="display:none"
     transform="matrix(1.3904,0,0,1.3904,-2.7373,-36.128)">
    <rect
       id="rect3745-1"
       style="opacity:0.9;fill:url(#linearGradient3111);filter:url(#filter3174-45)"
       rx="6"
       ry="6"
       height="85"
       width="86"
       y="7"
       x="5" />
  </g>
  <rect
     style="fill:#008066;fill-opacity:1;stroke:none"
     id="rect2985"
     width="80"
     height="80"
     x="8"
     y="8"
     rx="10.769231"
     ry="10.769231" />
  <g
     id="g3445"
     transform="translate(0.00688859,-7.1062704)"
     style="fill:#d4aa00">
    <g
       id="g1060"
       style="fill:#d4aa00"
       transform="matrix(0.40614763,0,0,0.40614763,23.096063,-373.89653)">
      <rect
         id="rect1062"
         style="fill:#d4aa00"
         ry="5.6754999"
         height="44.602001"
         width="44.602001"
         y="1006.1"
         x="1.6992" />
    </g>
    <g
       id="g1078"
       style="fill:#d4aa00;fill-opacity:1"
       transform="matrix(0.4777303,0,0,0.4777303,50.080547,-449.09845)">
      <rect
         id="rect1080"
         style="fill:#d4aa00;fill-opacity:1"
         ry="5.6754999"
         height="44.602001"
         width="44.602001"
         y="1006.1"
         x="1.6992" />
    </g>
    <g
       id="g1094"
       style="fill:#d4aa00"
       transform="matrix(0.40614763,0,0,0.40614763,23.096063,-348.07357)">
      <rect
         id="rect1096"
         style="fill:#d4aa00"
         ry="5.6754999"
         height="44.602001"
         width="44.602001"
         y="1006.1"
         x="1.6992" />
    </g>
    <g
       id="g1114"
       style="fill:#d4aa00"
       transform="matrix(0.40614763,0,0,0.40614763,51.798149,-348.07357)">
      <rect
         id="rect1116"
         style="fill:#d4aa00"
         ry="5.6754999"
         height="44.602001"
         width="44.602001"
         y="1006.1"
         x="1.6992" />
    </g>
  </g>
  <path
     id="path3145"
     d="m 18.75,37.703125 c -5.96615,0 -10.75,4.815096 -10.75,10.78125 l 0,9.8125 80,0 0,-9.8125 c 0,-5.966154 -4.815096,-10.78125 -10.78125,-10.78125 l -58.46875,0 z"
     style="fill:#000000;fill-opacity:0"
     inkscape:connector-curvature="0" />
</svg>
