<?xml version="1.0" encoding="UTF-8" standalone="no"?>
<!-- Created with Inkscape (http://www.inkscape.org/) -->

<svg
   xmlns:dc="http://purl.org/dc/elements/1.1/"
   xmlns:cc="http://creativecommons.org/ns#"
   xmlns:rdf="http://www.w3.org/1999/02/22-rdf-syntax-ns#"
   xmlns:svg="http://www.w3.org/2000/svg"
   xmlns="http://www.w3.org/2000/svg"
   xmlns:xlink="http://www.w3.org/1999/xlink"
   xmlns:sodipodi="http://sodipodi.sourceforge.net/DTD/sodipodi-0.dtd"
   xmlns:inkscape="http://www.inkscape.org/namespaces/inkscape"
   id="svg3449"
   height="96"
   width="96"
   version="1.0"
   inkscape:version="0.48.5 r10040"
   sodipodi:docname="applications-development.svg">
  <sodipodi:namedview
     pagecolor="#ffffff"
     bordercolor="#666666"
     borderopacity="1"
     objecttolerance="10"
     gridtolerance="10"
     guidetolerance="10"
     inkscape:pageopacity="0"
     inkscape:pageshadow="2"
     inkscape:window-width="1366"
     inkscape:window-height="716"
     id="namedview285"
     showgrid="false"
     inkscape:zoom="1.84375"
     inkscape:cx="-157.04652"
     inkscape:cy="98.339695"
     inkscape:window-x="0"
     inkscape:window-y="24"
     inkscape:window-maximized="1"
     inkscape:current-layer="svg3449"
     showguides="true"
     inkscape:guide-bbox="true" />
  <metadata
     id="metadata56">
    <rdf:RDF>
      <cc:Work
         rdf:about="">
        <dc:format>image/svg+xml</dc:format>
        <dc:type
           rdf:resource="http://purl.org/dc/dcmitype/StillImage" />
        <dc:title />
      </cc:Work>
    </rdf:RDF>
  </metadata>
  <defs
     id="defs3451">
    <linearGradient
       id="linearGradient4345">
      <stop
         style="stop-color:#1e7bd2;stop-opacity:1;"
         offset="0"
         id="stop4347" />
      <stop
         style="stop-color:#175ea0;stop-opacity:1;"
         offset="1"
         id="stop4349" />
    </linearGradient>
    <filter
       id="filter3174"
       color-interpolation-filters="sRGB">
      <feGaussianBlur
         id="feGaussianBlur3176"
         stdDeviation="1.71" />
    </filter>
    <linearGradient
       id="ButtonShadow-9"
       x1="45.448002"
       gradientUnits="userSpaceOnUse"
       y1="92.540001"
       gradientTransform="scale(1.0059,0.99417)"
       x2="45.448002"
       y2="7.0165">
      <stop
         id="stop3750-4"
         offset="0" />
      <stop
         id="stop3752-0"
         style="stop-opacity:.58824"
         offset="1" />
    </linearGradient>
    <filter
       id="filter3174-4"
       color-interpolation-filters="sRGB">
      <feGaussianBlur
         id="feGaussianBlur3176-3"
         stdDeviation="1.71" />
    </filter>
    <linearGradient
       inkscape:collect="always"
       xlink:href="#ButtonShadow-9"
       id="linearGradient3554"
       gradientUnits="userSpaceOnUse"
       gradientTransform="scale(1.0059,0.99417)"
       x1="45.448002"
       y1="92.540001"
       x2="45.448002"
       y2="7.0165" />
    <linearGradient
       inkscape:collect="always"
       xlink:href="#ButtonShadow-9"
       id="linearGradient3556"
       gradientUnits="userSpaceOnUse"
       gradientTransform="scale(1.0059,0.99417)"
       x1="45.448002"
       y1="92.540001"
       x2="45.448002"
       y2="7.0165" />
    <linearGradient
       inkscape:collect="always"
       xlink:href="#linearGradient4345"
       id="linearGradient4358"
       gradientUnits="userSpaceOnUse"
       gradientTransform="translate(138.30507,-66.711839)"
       x1="-128.94916"
       y1="28.20337"
       x2="-48.949158"
       y2="28.20337" />
  </defs>
  <g
     id="layer2"
     style="display:none"
     transform="translate(-32.001,116.11)">
    <rect
       id="rect3745"
       style="opacity:0.9;fill:url(#linearGradient3554);filter:url(#filter3174)"
       rx="6"
       ry="6"
       height="85"
       width="86"
       y="7"
       x="5" />
  </g>
  <g
     id="layer2-7"
     style="display:none"
     transform="translate(-47.287,196.14)">
    <rect
       id="rect3745-3"
       style="opacity:0.9;fill:url(#linearGradient3556);filter:url(#filter3174-4)"
       rx="6"
       ry="6"
       height="85"
       width="86"
       y="7"
       x="5" />
  </g>
  <rect
     style="fill:#1d78cc;fill-opacity:1;stroke:none"
     id="rect2985"
     width="80"
     height="80"
     x="8"
     y="-88"
     rx="10.769231"
     ry="10.769231"
     transform="matrix(0,1,-1,0,0,0)" />
  <path
     inkscape:connector-curvature="0"
     style="fill:#ffffff;stroke:none"
     d="m 48.883925,18.013082 a 30.000743,30.099845 0 0 0 -30.883921,30.099445 30.000743,30.099845 0 0 0 59.999992,0 A 30.000743,30.099845 0 0 0 48.883925,18.013082 z M 35.758923,28.655386 c 1.357253,-0.01639 2.857224,0.271348 3.964289,0.833109 1.88107,0.954519 3.436751,2.617975 4.205357,4.488043 0.472355,1.149273 0.618943,2.020596 0.642857,3.628058 0.01198,0.804697 0.09142,1.659285 0.160714,1.908089 0.329093,1.181766 0.144918,1.008491 10.687499,11.556038 10.960984,10.966144 10.462831,10.426801 10.714284,11.824781 0.36403,2.023853 -1.105027,4.125353 -3.187499,4.568666 -0.926862,0.197315 -1.670883,0.09183 -2.625,-0.376243 C 59.987751,66.92222 57.242627,64.240335 49.901782,56.846741 44.425788,51.331394 39.756965,46.686789 39.535712,46.553806 c -0.89617,-0.538638 -1.202777,-0.598042 -3.053569,-0.671863 -2.009,-0.08013 -2.76627,-0.22398 -4.01786,-0.806235 -3.12504,-1.453813 -5.0418,-4.450086 -5.03571,-7.847355 0.002,-0.945907 0.20355,-2.300437 0.375,-2.472454 0.0461,-0.04628 1.30477,1.158404 2.78571,2.660575 l 2.67857,2.714325 0.48215,-0.05375 c 0.66887,-0.08825 1.97651,-0.745158 2.70535,-1.3706 1.288032,-1.105303 2.240706,-2.623998 2.330359,-3.708681 l 0.02679,-0.537491 -2.678569,-2.714325 c -1.47945,-1.485113 -2.64791,-2.710386 -2.59822,-2.7412 0.0497,-0.03081 0.47026,-0.146878 0.9375,-0.24187 0.3985,-0.08101 0.8333,-0.102035 1.28572,-0.107498 z m 25.767858,1.693094 c 0.02784,0.0021 1.610232,1.568212 3.535714,3.466811 l 3.508928,3.439936 -5.651785,5.67052 -5.678571,5.670521 -0.616071,-0.618114 -0.642857,-0.644988 4.982142,-4.971783 c 2.738351,-2.746224 4.970151,-5.068592 4.955357,-5.13303 -0.01481,-0.06444 -0.937,-1.060228 -2.0625,-2.230584 -1.422795,-1.479499 -2.125752,-2.123086 -2.276786,-2.123086 -0.249664,0 -4.982142,4.697774 -4.982142,4.944909 0,0.08121 0.230168,0.388945 0.535714,0.698737 l 0.5625,0.564364 -0.241071,0.241871 -0.267857,0.241871 -0.5625,-0.564365 c -0.318382,-0.316105 -0.640123,-0.591239 -0.696429,-0.591239 -0.154064,0 -0.857142,0.748346 -0.857142,0.913733 0,0.0793 0.256954,0.388945 0.5625,0.698737 l 0.5625,0.564365 -0.241072,0.214995 -0.241071,0.241872 -0.535714,-0.564366 c -0.299637,-0.304411 -0.608971,-0.537489 -0.696429,-0.537489 -0.168035,0 -0.910714,0.673408 -0.910714,0.833109 0,0.05155 0.27287,0.377926 0.589286,0.698737 l 0.562499,0.564365 -0.214285,0.24187 -0.241072,0.214996 -0.508928,-0.53749 c -0.292312,-0.289636 -0.638136,-0.510615 -0.75,-0.510615 -0.229665,0 -0.830357,0.586654 -0.830357,0.806235 0,0.07899 0.230167,0.388945 0.535714,0.698737 l 0.5625,0.564365 -0.267857,0.24187 -0.241071,0.241871 -1.232143,-1.236227 -1.232143,-1.209353 5.571428,-5.616772 c 3.069455,-3.080004 5.623945,-5.592046 5.651785,-5.589896 z m -0.02678,5.3749 c 0.09332,-0.0029 0.202756,0.0096 0.294643,0.02687 0.476444,0.08968 1.196335,0.811951 1.285714,1.289976 0.133428,0.713586 -0.412501,1.56099 -1.151786,1.773717 -0.436204,0.125522 -0.590894,0.109605 -0.964285,-0.08062 -0.769521,-0.39204 -1.168375,-1.144023 -0.964286,-1.827466 0.200475,-0.671347 0.846763,-1.161853 1.5,-1.182479 z m -21.241069,15.909707 1.232143,1.236227 1.205357,1.236228 -0.214286,0.214995 -0.214285,0.241871 -0.5625,-0.564365 c -0.308769,-0.306559 -0.612454,-0.537489 -0.696429,-0.537489 -0.163383,0 -0.910714,0.703603 -0.910714,0.859983 0,0.05155 0.247441,0.352426 0.5625,0.671863 l 0.589286,0.564365 -0.241072,0.268745 -0.241071,0.24187 -0.5625,-0.53749 c -0.308769,-0.30656 -0.638871,-0.564365 -0.723214,-0.564365 -0.191257,0 -0.803572,0.611886 -0.803572,0.806236 0,0.07899 0.256952,0.388945 0.5625,0.698737 l 0.5625,0.564364 -0.267857,0.241871 -0.241071,0.241871 -0.589286,-0.564365 C 38.386979,56.638136 38.092024,56.363 38.035718,56.363 c -0.154064,0 -0.857142,0.748346 -0.857142,0.913733 0,0.0793 0.256954,0.41582 0.5625,0.725611 l 0.5625,0.564366 -0.241072,0.214995 -0.241071,0.214996 -0.535715,-0.564364 c -0.299636,-0.304411 -0.60897,-0.53749 -0.696425,-0.53749 -0.16804,0 -0.91072,0.700282 -0.91072,0.859984 0,0.05155 0.24744,0.352425 0.5625,0.671862 l 0.589288,0.564365 -0.241068,0.268745 -0.24107,0.268745 -0.5625,-0.564364 c -0.30877,-0.30656 -0.63996,-0.564365 -0.72322,-0.564365 -0.19434,0 -1.20536,1.012682 -1.20536,1.209353 0,0.163138 4.231949,4.434293 4.392861,4.434293 0.05458,0 1.821649,-1.72073 3.9375,-3.843054 l 3.857142,-3.869929 0.616071,0.644988 0.616072,0.618114 -0.455357,0.456866 c -0.247467,0.255286 -2.282997,2.276168 -4.526786,4.488042 l -4.071428,4.031177 -3.455355,-3.493686 -3.45536,-3.466811 4.47322,-4.488042 4.473209,-4.488043 z m 21.723212,9.889818 c -0.481508,0 -0.707714,0.03979 -0.964286,0.214996 -0.60411,0.412516 -0.75,0.724563 -0.75,1.531847 0,0.86627 0.22868,1.287035 0.883929,1.585595 0.867053,0.395077 1.908384,0.09966 2.357142,-0.671862 0.297843,-0.51206 0.265335,-1.50306 -0.05357,-1.934965 -0.387891,-0.52533 -0.78941,-0.725611 -1.473214,-0.725611 z"
     id="path41841-0" />
</svg>
