<?xml version="1.0" encoding="UTF-8" standalone="no"?>
<!-- Created with Inkscape (http://www.inkscape.org/) -->

<svg
   xmlns:dc="http://purl.org/dc/elements/1.1/"
   xmlns:cc="http://creativecommons.org/ns#"
   xmlns:rdf="http://www.w3.org/1999/02/22-rdf-syntax-ns#"
   xmlns:svg="http://www.w3.org/2000/svg"
   xmlns="http://www.w3.org/2000/svg"
   xmlns:sodipodi="http://sodipodi.sourceforge.net/DTD/sodipodi-0.dtd"
   xmlns:inkscape="http://www.inkscape.org/namespaces/inkscape"
   id="svg3449"
   height="128"
   width="128"
   version="1.0"
   inkscape:version="0.48.5 r10040"
   sodipodi:docname="package_multimedia_burning.svg">
  <sodipodi:namedview
     pagecolor="#ffffff"
     bordercolor="#666666"
     borderopacity="1"
     objecttolerance="10"
     gridtolerance="10"
     guidetolerance="10"
     inkscape:pageopacity="0"
     inkscape:pageshadow="2"
     inkscape:window-width="640"
     inkscape:window-height="480"
     id="namedview119396" />
  <metadata
     id="metadata56">
    <rdf:RDF>
      <cc:Work
         rdf:about="">
        <dc:format>image/svg+xml</dc:format>
        <dc:type
           rdf:resource="http://purl.org/dc/dcmitype/StillImage" />
        <dc:title />
      </cc:Work>
    </rdf:RDF>
  </metadata>
  <defs
     id="defs3451">
    <linearGradient
       id="linearGradient3514"
       y2="-9.1034"
       gradientUnits="userSpaceOnUse"
       x2="66.492"
       gradientTransform="matrix(.96826 0 0 .97948 2.179 .16587)"
       y1="-42.638"
       x1="67.952">
      <stop
         id="stop4620"
         style="stop-color:#37414b"
         offset="0" />
      <stop
         id="stop4622"
         style="stop-color:#37414b;stop-opacity:0"
         offset="1" />
    </linearGradient>
    <linearGradient
       id="linearGradient3516"
       y2="-11.847"
       gradientUnits="userSpaceOnUse"
       x2="58.98"
       gradientTransform="matrix(.96826 0 0 .97948 2.179 .16587)"
       y1="-118.55"
       x1="57.173">
      <stop
         id="stop4596"
         offset="0" />
      <stop
         id="stop4598"
         style="stop-opacity:0"
         offset="1" />
    </linearGradient>
    <linearGradient
       id="linearGradient3519"
       y2="50.369"
       gradientUnits="userSpaceOnUse"
       x2="76.558"
       gradientTransform="matrix(.96826 0 0 .97948 3.2423 -129.19)"
       y1="13.164"
       x1="76.558">
      <stop
         id="stop3392"
         style="stop-color:#425e7b"
         offset="0" />
      <stop
         id="stop3394"
         style="stop-color:#7a91a7"
         offset="1" />
    </linearGradient>
    <linearGradient
       id="linearGradient3521"
       y2="-8.7399"
       gradientUnits="userSpaceOnUse"
       x2="60.217"
       gradientTransform="matrix(.96826 0 0 .97948 2.179 .16587)"
       y1="-123.72"
       x1="60.395">
      <stop
         id="stop3392-4-8"
         style="stop-color:#425e7b"
         offset="0" />
      <stop
         id="stop3394-8-0"
         style="stop-color:#7a91a7"
         offset="1" />
    </linearGradient>
    <radialGradient
       id="radialGradient3349"
       gradientUnits="userSpaceOnUse"
       cy="45.647"
       cx="42.148"
       gradientTransform="matrix(.93295 0 0 1.1337 4.3411 -28.729)"
       r="58.984">
      <stop
         id="stop16834"
         style="stop-color:#f76616"
         offset="0" />
      <stop
         id="stop16836"
         style="stop-color:#951e0b"
         offset="1" />
    </radialGradient>
    <filter
       id="filter3174-5"
       color-interpolation-filters="sRGB">
      <feGaussianBlur
         id="feGaussianBlur3176-4"
         stdDeviation="1.71" />
    </filter>
    <linearGradient
       id="ButtonShadow-4"
       x1="45.448"
       gradientUnits="userSpaceOnUse"
       y1="92.54"
       gradientTransform="scale(1.0059 .99417)"
       x2="45.448"
       y2="7.0165">
      <stop
         id="stop3750-3"
         offset="0" />
      <stop
         id="stop3752-57"
         style="stop-opacity:.58824"
         offset="1" />
    </linearGradient>
    <filter
       id="filter3174-0"
       color-interpolation-filters="sRGB">
      <feGaussianBlur
         id="feGaussianBlur3176-9"
         stdDeviation="1.71" />
    </filter>
    <filter
       id="filter3174-7"
       color-interpolation-filters="sRGB">
      <feGaussianBlur
         id="feGaussianBlur3176-7"
         stdDeviation="1.71" />
    </filter>
    <clipPath
       id="clipPath3613-9">
      <rect
         id="rect3615-2"
         style="fill:#fff"
         rx="6"
         ry="6"
         height="84"
         width="84"
         y="6"
         x="6" />
    </clipPath>
    <linearGradient
       id="linearGradient3613-3"
       x1="48"
       gradientUnits="userSpaceOnUse"
       y1="20.221"
       x2="48"
       y2="138.66">
      <stop
         id="stop3739-03"
         style="stop-color:#fff"
         offset="0" />
      <stop
         id="stop3741-5"
         style="stop-color:#fff;stop-opacity:0"
         offset="1" />
    </linearGradient>
    <filter
       id="filter3794-30"
       height="1.384"
       width="1.384"
       color-interpolation-filters="sRGB"
       y="-.192"
       x="-.192">
      <feGaussianBlur
         id="feGaussianBlur3796-38"
         stdDeviation="5.28" />
    </filter>
    <filter
       id="filter3174-8"
       color-interpolation-filters="sRGB">
      <feGaussianBlur
         id="feGaussianBlur3176-3"
         stdDeviation="1.71" />
    </filter>
    <clipPath
       id="clipPath3613-26">
      <rect
         id="rect3615-4"
         style="fill:#fff"
         rx="6"
         ry="6"
         height="84"
         width="84"
         y="6"
         x="6" />
    </clipPath>
    <filter
       id="filter3794-67"
       height="1.384"
       width="1.384"
       color-interpolation-filters="sRGB"
       y="-.192"
       x="-.192">
      <feGaussianBlur
         id="feGaussianBlur3796-4"
         stdDeviation="5.28" />
    </filter>
    <filter
       id="filter3174-4"
       color-interpolation-filters="sRGB">
      <feGaussianBlur
         id="feGaussianBlur3176-0"
         stdDeviation="1.71" />
    </filter>
    <filter
       id="filter3174-1"
       color-interpolation-filters="sRGB">
      <feGaussianBlur
         id="feGaussianBlur3176-1"
         stdDeviation="1.71" />
    </filter>
    <linearGradient
       id="linearGradient9285"
       y2="7.0165"
       gradientUnits="userSpaceOnUse"
       x2="45.448"
       gradientTransform="matrix(1.0059 0 0 .99417 -59.657 2.8358)"
       y1="92.54"
       x1="45.448">
      <stop
         id="stop3750-7"
         offset="0" />
      <stop
         id="stop3752-3"
         style="stop-opacity:.58824"
         offset="1" />
    </linearGradient>
    <linearGradient
       id="linearGradient15370"
       y2="27.664"
       gradientUnits="userSpaceOnUse"
       x2="96.134"
       y1="27.664"
       x1="7.7193">
      <stop
         id="stop15366"
         style="stop-color:#fff"
         offset="0" />
      <stop
         id="stop15368"
         style="stop-color:#fff;stop-opacity:0"
         offset="1" />
    </linearGradient>
  </defs>
  <rect
     id="rect892"
     style="stroke:url(#linearGradient3521);stroke-width:.97385;fill:url(#linearGradient3519)"
     transform="scale(1,-1)"
     ry="29.296"
     height="115.54"
     width="114.22"
     y="-122.25"
     x="7.0394" />
  <rect
     id="rect892-2"
     style="stroke:url(#linearGradient3516);stroke-width:.97385;fill:url(#linearGradient3514)"
     transform="scale(1,-1)"
     ry="28.993"
     height="114.35"
     width="114.22"
     y="-121.46"
     x="7.0599" />
  <path
     id="rect895"
     style="fill:url(#radialGradient3349)"
     d="m30.919 8c-12.934 0.9317-22.217 14.969-22.832 23.179-0.0489 0.969-0.087 1.956-0.087 2.943v58.148c0 15.16 11.026 27.73 21.989 27.73h66.051c15.46 0 23.96-16.37 23.96-25.739v-63.72c1.8-7.114-8.34-23.852-25.548-22.516-47.141 0.8618-20.195-0.025-63.533-0.025z" />
  <path
     id="path1187"
     style="opacity:.30214;fill:url(#linearGradient15370)"
     d="m36.363 7.7152c-21.074 0.4035-28.496 16.108-28.569 27.254-0.042208 0.69964-0.074736 1.4116-0.074736 2.1246v10.52c0.9017-23.224 89.376-30.939 88.407-39.899-40.49 0.37877-22.732-0.0000117-59.763 0z" />
  <rect
     id="rect892-2-7-8"
     style="opacity:.15891;stroke:#000;stroke-width:4.8445;fill:none"
     transform="scale(1,-1)"
     ry="28.993"
     height="114.35"
     width="114.22"
     y="-121.16"
     x="6.8683" />
  <rect
     id="rect892-2-7-1"
     style="opacity:.15891;stroke:#000;stroke-width:7.7512;fill:none"
     transform="scale(1,-1)"
     ry="28.993"
     height="114.35"
     width="114.22"
     y="-121.16"
     x="6.8686" />
  <rect
     id="rect892-2-7-2-9"
     ry="28.067"
     style="stroke:#000;stroke-width:1.0489;fill:none"
     transform="scale(1,-1)"
     height="112.71"
     width="114.14"
     y="-120.31"
     x="7.0644" />
  <g
     id="layer2"
     style="display:none"
     transform="translate(137.63 15.959)">
    <rect
       id="rect3745"
       style="opacity:.9;filter:url(#filter3174-5);fill:url(#ButtonShadow-4)"
       rx="6"
       ry="6"
       height="85"
       width="86"
       y="7"
       x="5" />
  </g>
  <g
     id="layer2-3"
     style="display:none"
     transform="translate(146.29 14.997)">
    <rect
       id="rect3745-4"
       style="opacity:.9;filter:url(#filter3174-0);fill:url(#ButtonShadow-4)"
       rx="6"
       ry="6"
       height="85"
       width="86"
       y="7"
       x="5" />
  </g>
  <g
     id="layer2-4"
     style="display:none"
     transform="translate(176.76 -8.736)">
    <rect
       id="rect3745-7"
       style="opacity:.9;filter:url(#filter3174-7);fill:url(#ButtonShadow-4)"
       rx="6"
       ry="6"
       height="85"
       width="86"
       y="7"
       x="5" />
  </g>
  <g
     id="layer2-2"
     style="display:none"
     transform="translate(143.15 5.055)">
    <rect
       id="rect3745-9"
       style="opacity:.9;filter:url(#filter3174-8);fill:url(#ButtonShadow-4)"
       rx="6"
       ry="6"
       height="85"
       width="86"
       y="7"
       x="5" />
  </g>
  <g
     id="layer5-4"
     style="display:none"
     transform="translate(143.15 5.055)">
    <rect
       id="rect3171-7"
       style="opacity:.3;filter:url(#filter3794-30);stroke:#fff;stroke-linecap:round;stroke-width:.5;fill:url(#linearGradient3613-3)"
       clip-path="url(#clipPath3613-9)"
       rx="12"
       ry="12"
       height="66"
       width="66"
       y="15"
       x="15" />
  </g>
  <g
     id="layer2-1"
     style="display:none"
     transform="translate(160.47 -5.8175)">
    <rect
       id="rect3745-8"
       style="opacity:.9;filter:url(#filter3174-4);fill:url(#ButtonShadow-4)"
       rx="6"
       ry="6"
       height="85"
       width="86"
       y="7"
       x="5" />
  </g>
  <g
     id="layer5-46"
     style="display:none"
     transform="translate(160.47 -5.8175)">
    <rect
       id="rect3171-2"
       style="opacity:.1;filter:url(#filter3794-67);stroke:#fff;stroke-linecap:round;stroke-width:.5;fill:url(#linearGradient3613-3)"
       clip-path="url(#clipPath3613-26)"
       rx="12"
       ry="12"
       height="66"
       width="66"
       y="15"
       x="15" />
  </g>
  <rect
     id="rect3745-82"
     style="opacity:.9;filter:url(#filter3174-1);display:none;fill:url(#linearGradient9285)"
     rx="6"
     ry="6"
     height="85"
     width="86"
     y="9.8358"
     x="-54.657" />
  <g
     id="layer1-0"
     transform="matrix(2.0509 0 0 2.0509 14.779 -2045)">
    <g
       id="g971"
       transform="translate(-10.688 .58112)">
      <path
         id="path814"
         style="fill:#fff"
         d="m34.688 1021.1c-7.3474 0-13.312 5.9651-13.312 13.312 0 7.3474 5.9651 13.312 13.312 13.312 7.3474 0 13.312-5.9651 13.312-13.312 0-7.3474-5.9651-13.312-13.312-13.312zm0 4.8438c4.6846 0 8.4688 3.7841 8.4688 8.4687s-3.7842 8.4688-8.4688 8.4688-8.4688-3.7842-8.4688-8.4688 3.7842-8.4687 8.4688-8.4687zm0 2.5625c-3.2545 0-5.9062 2.6517-5.9062 5.9062s2.6517 5.9063 5.9062 5.9063 5.9062-2.6518 5.9062-5.9063-2.6517-5.9062-5.9062-5.9062zm0 2.6875c1.7752 0 3.2188 1.4435 3.2188 3.2187s-1.4435 3.2188-3.2188 3.2188c-1.7752 0-3.2188-1.4436-3.2188-3.2188s1.4435-3.2187 3.2188-3.2187z" />
      <path
         id="path942"
         style="fill:#fff"
         d="m29.235 1007.8c-0.04857 0.034-0.05815 0.213-0.0625 0.5938-0.0058 0.5101-0.52877 1.5013-1.3438 2.5-2.8355 3.4751-2.9256 3.8694-1.1875 7.3125 1.0408 2.0618 1.1676 2.8324 0.46875 3.5312-0.84812 0.8482-1.5356 0.2701-1.3125-1.125 0.13115-0.8202 0.04501-1.5253-0.28125-2.1562-0.61863-1.2017-0.83242-1.1934-0.59375 0 0.14455 0.7228 0.01319 1.1477-0.625 1.9062-1.4182 1.6854-1.4201 2.4903-0.03125 3.6563 0.08771 0.074 0.14291 0.1194 0.21875 0.1875 2.0458-2.1704 4.8037-3.6489 7.9062-4.0625-0.21223-0.689-0.7098-1.32-2.5312-3.5625-1.4476-1.7823-1.667-2.8871-0.84375-4.0625 0.6402-0.914 0.9451-3.6086 0.5-4.375-0.15647-0.2694-0.23268-0.3774-0.28125-0.3438zm-7.4062 18.344c-0.04759-0.042-0.14048 0.039-0.28125 0.2812-0.29683 0.5098-0.20802 1.23 0.25 2.0625 0.11606-0.2942 0.239-0.5914 0.375-0.875-0.16711-0.2239-0.27722-0.5157-0.28125-0.875-0.0042-0.3708-0.01491-0.5514-0.0625-0.5937z" />
      <path
         id="path969"
         d="m40.14 1007.8c0.04857 0.034 0.05815 0.213 0.0625 0.5938 0.0058 0.5101 0.52877 1.5013 1.3438 2.5 2.8355 3.4751 2.9256 3.8694 1.1875 7.3125-1.0408 2.0618-1.1676 2.8324-0.46875 3.5312 0.84812 0.8482 1.5356 0.2701 1.3125-1.125-0.13115-0.8202-0.04501-1.5253 0.28125-2.1562 0.61863-1.2017 0.83242-1.1934 0.59375 0-0.14455 0.7228-0.01319 1.1477 0.625 1.9062 1.4182 1.6854 1.4201 2.4903 0.03125 3.6563-0.08771 0.074-0.14291 0.1194-0.21875 0.1875-2.0458-2.1704-4.8037-3.6489-7.9062-4.0625 0.21223-0.689 0.7098-1.32 2.5312-3.5625 1.4476-1.7823 1.667-2.8871 0.84375-4.0625-0.6402-0.914-0.9451-3.6086-0.5-4.375 0.15647-0.2694 0.23268-0.3774 0.28125-0.3438zm7.4062 18.344c0.04759-0.042 0.14048 0.039 0.28125 0.2812 0.29683 0.5098 0.20802 1.23-0.25 2.0625-0.11606-0.2942-0.239-0.5914-0.375-0.875 0.16711-0.2239 0.27722-0.5157 0.28125-0.875 0.0042-0.3708 0.01491-0.5514 0.0625-0.5937z"
         style="fill:#fff" />
    </g>
  </g>
</svg>
