<?xml version="1.0" encoding="UTF-8" standalone="no"?>
<!-- Created with Inkscape (http://www.inkscape.org/) -->

<svg
   xmlns:dc="http://purl.org/dc/elements/1.1/"
   xmlns:cc="http://creativecommons.org/ns#"
   xmlns:rdf="http://www.w3.org/1999/02/22-rdf-syntax-ns#"
   xmlns:svg="http://www.w3.org/2000/svg"
   xmlns="http://www.w3.org/2000/svg"
   xmlns:sodipodi="http://sodipodi.sourceforge.net/DTD/sodipodi-0.dtd"
   xmlns:inkscape="http://www.inkscape.org/namespaces/inkscape"
   id="svg3449"
   height="128"
   width="128"
   version="1.0"
   inkscape:version="0.48.5 r10040"
   sodipodi:docname="package_graphics_viewer.svg">
  <sodipodi:namedview
     pagecolor="#ffffff"
     bordercolor="#666666"
     borderopacity="1"
     objecttolerance="10"
     gridtolerance="10"
     guidetolerance="10"
     inkscape:pageopacity="0"
     inkscape:pageshadow="2"
     inkscape:window-width="640"
     inkscape:window-height="480"
     id="namedview116602" />
  <metadata
     id="metadata56">
    <rdf:RDF>
      <cc:Work
         rdf:about="">
        <dc:format>image/svg+xml</dc:format>
        <dc:type
           rdf:resource="http://purl.org/dc/dcmitype/StillImage" />
        <dc:title />
      </cc:Work>
    </rdf:RDF>
  </metadata>
  <defs
     id="defs3451">
    <linearGradient
       id="linearGradient3514"
       y2="-9.1034"
       gradientUnits="userSpaceOnUse"
       x2="66.492"
       gradientTransform="matrix(.96826 0 0 .97948 2.179 .16587)"
       y1="-42.638"
       x1="67.952">
      <stop
         id="stop4620"
         style="stop-color:#37414b"
         offset="0" />
      <stop
         id="stop4622"
         style="stop-color:#37414b;stop-opacity:0"
         offset="1" />
    </linearGradient>
    <linearGradient
       id="linearGradient3516"
       y2="-11.847"
       gradientUnits="userSpaceOnUse"
       x2="58.98"
       gradientTransform="matrix(.96826 0 0 .97948 2.179 .16587)"
       y1="-118.55"
       x1="57.173">
      <stop
         id="stop4596"
         offset="0" />
      <stop
         id="stop4598"
         style="stop-opacity:0"
         offset="1" />
    </linearGradient>
    <linearGradient
       id="linearGradient3519"
       y2="50.369"
       gradientUnits="userSpaceOnUse"
       x2="76.558"
       gradientTransform="matrix(.96826 0 0 .97948 3.2423 -129.19)"
       y1="13.164"
       x1="76.558">
      <stop
         id="stop3392"
         style="stop-color:#425e7b"
         offset="0" />
      <stop
         id="stop3394"
         style="stop-color:#7a91a7"
         offset="1" />
    </linearGradient>
    <linearGradient
       id="linearGradient3521"
       y2="-8.7399"
       gradientUnits="userSpaceOnUse"
       x2="60.217"
       gradientTransform="matrix(.96826 0 0 .97948 2.179 .16587)"
       y1="-123.72"
       x1="60.395">
      <stop
         id="stop3392-4-8"
         style="stop-color:#425e7b"
         offset="0" />
      <stop
         id="stop3394-8-0"
         style="stop-color:#7a91a7"
         offset="1" />
    </linearGradient>
    <radialGradient
       id="radialGradient3349"
       gradientUnits="userSpaceOnUse"
       cy="45.647"
       cx="42.148"
       gradientTransform="matrix(.94690 0 0 1.139 3.5954 -29.89)"
       r="58.984">
      <stop
         id="stop44117"
         style="stop-color:#fff"
         offset="0" />
      <stop
         id="stop44119"
         style="stop-color:#eaeaea"
         offset="1" />
    </radialGradient>
    <linearGradient
       id="linearGradient11406"
       y2="19.812"
       gradientUnits="userSpaceOnUse"
       x2="15.25"
       gradientTransform="matrix(2.6667 0 0 4.341 -1.4969e-7 -5.0231)"
       y1="8.4375"
       x1="12.938">
      <stop
         id="stop6594-0-2"
         style="stop-color:#fff;stop-opacity:.27451"
         offset="0" />
      <stop
         id="stop6596-2-5"
         style="stop-color:#fff;stop-opacity:0"
         offset="1" />
    </linearGradient>
    <filter
       id="filter3174"
       color-interpolation-filters="sRGB">
      <feGaussianBlur
         id="feGaussianBlur3176"
         stdDeviation="1.71" />
    </filter>
    <linearGradient
       id="ButtonShadow-4"
       x1="45.448"
       gradientUnits="userSpaceOnUse"
       y1="92.54"
       gradientTransform="scale(1.0059 .99417)"
       x2="45.448"
       y2="7.0165">
      <stop
         id="stop3750-7"
         offset="0" />
      <stop
         id="stop3752-9"
         style="stop-opacity:.58824"
         offset="1" />
    </linearGradient>
    <filter
       id="filter3174-7"
       color-interpolation-filters="sRGB">
      <feGaussianBlur
         id="feGaussianBlur3176-1"
         stdDeviation="1.71" />
    </filter>
    <filter
       id="filter3174-0"
       color-interpolation-filters="sRGB">
      <feGaussianBlur
         id="feGaussianBlur3176-4"
         stdDeviation="1.71" />
    </filter>
    <filter
       id="filter3174-4"
       color-interpolation-filters="sRGB">
      <feGaussianBlur
         id="feGaussianBlur3176-2"
         stdDeviation="1.71" />
    </filter>
    <radialGradient
       id="radialGradient30224"
       gradientUnits="userSpaceOnUse"
       cy="90.172"
       cx="48"
       gradientTransform="matrix(1.5431 0 0 1.3279 -10.068 .26284)"
       r="42">
      <stop
         id="stop3739-6"
         style="stop-color:#fff"
         offset="0" />
      <stop
         id="stop3741-0"
         style="stop-color:#fff;stop-opacity:0"
         offset="1" />
    </radialGradient>
  </defs>
  <rect
     id="rect892"
     style="stroke:url(#linearGradient3521);stroke-width:.97385;fill:url(#linearGradient3519)"
     transform="scale(1,-1)"
     ry="29.296"
     height="115.54"
     width="114.22"
     y="-122.25"
     x="7.0394" />
  <rect
     id="rect892-2"
     style="stroke:url(#linearGradient3516);stroke-width:.97385;fill:url(#linearGradient3514)"
     transform="scale(1,-1)"
     ry="28.993"
     height="114.35"
     width="114.22"
     y="-121.46"
     x="7.0599" />
  <path
     id="rect895"
     style="fill:url(#radialGradient3349)"
     d="m33.051 7.2596c-7.969-2.4493-27.013 15.174-25.653 23.038-0.050142 0.97378-0.088772 1.9648-0.088772 2.9572v52.419c0 20.876 10.712 33.859 22.318 33.859h67.038c12.638 0 24.318-11.245 24.318-25.859v-64.017c0.7-10.928-21.283-24.659-25.926-22.618-47.846 0.8653-18.017 0.2236-62.003 0.2236z" />
  <g
     id="g31108"
     transform="matrix(1.2,0,0,1.2,-12.8,-12.8)">
    <path
       id="path31038"
       d="m31.038 31.038c0.024 21.984 0.024 43.941 0 65.925 21.984-0.024 43.941-0.024 65.925 0-0.024-21.984-0.024-43.941 0-65.925-21.984 0.024-43.941 0.024-65.925 0zm4.725 4.725c18.828 0.006 37.647 0.006 56.475 0-0.006 16.929-0.006 33.846 0 50.775-18.828-0.006-37.647-0.006-56.475 0 0.006-16.929 0.006-33.846 0-50.775z" />
    <path
       id="path31042"
       d="m72.198 45.008c0.1475 0.0125 0.44 0.035 0.5875 0.0475 0.1875 0.625 0.2325 1.28 0.3475 1.92h-1.265c0.0975-0.6575 0.2075-1.315 0.33-1.9675z" />
    <path
       id="path31044"
       d="m67.538 47.242c0.12-0.105 0.355-0.3125 0.4725-0.415 0.56 0.34 1.07 0.7525 1.6075 1.125-0.305 0.305-0.6125 0.61-0.9175 0.915-0.385-0.5425-0.7725-1.085-1.1625-1.625z" />
    <path
       id="path31046"
       d="m75.382 47.952c0.538-0.372 1.048-0.787 1.608-1.124 0.1175 0.1025 0.3525 0.31 0.4725 0.4125-0.39 0.5425-0.7775 1.0825-1.1625 1.6275-0.305-0.305-0.6125-0.61-0.9175-0.915z" />
    <path
       id="path31048"
       d="m71.808 48.588c2.035-0.5225 4.1725 1.3475 3.915 3.435-0.095 2.0175-2.355 3.5075-4.2475 2.7925-1.6575-0.495-2.6375-2.4725-2.0375-4.0925 0.335-1.075 1.2775-1.895 2.37-2.135z" />
    <path
       id="path31050"
       d="m65.758 51.448c0.652-0.123 1.307-0.233 1.967-0.333-0.0025 0.4225-0.0025 0.845 0 1.2675-0.6425-0.115-1.295-0.16-1.92-0.3475-0.0125-0.1475-0.035-0.44-0.0475-0.5875z" />
    <path
       id="path31052"
       d="m77.275 51.118c0.6575 0.0975 1.315 0.2075 1.97 0.33-0.0125 0.1475-0.0375 0.4425-0.05 0.5875-0.625 0.19-1.2825 0.23-1.92 0.3475v-1.265z" />
    <path
       id="path31054"
       d="m67.578 56.24c0.3375-0.56 0.7525-1.07 1.125-1.6075 0.305 0.305 0.61 0.61 0.915 0.9175-0.5425 0.385-1.085 0.7725-1.625 1.1625-0.105-0.12-0.3125-0.355-0.415-0.4725z" />
    <path
       id="path31056"
       d="m75.382 55.55c0.305-0.3075 0.61-0.6125 0.9175-0.9175 0.385 0.5425 0.7725 1.085 1.1625 1.6275-0.12 0.1025-0.355 0.31-0.4725 0.4125-0.56-0.34-1.07-0.7525-1.6075-1.1225z" />
    <path
       id="path31058"
       d="m71.868 56.525h1.265c-0.1175 0.64-0.1575 1.295-0.3475 1.92-0.145 0.0125-0.44 0.0375-0.5875 0.05-0.1225-0.655-0.2325-1.3125-0.33-1.97z" />
    <path
       id="path31060"
       d="m42.78 68.278c3.375-3.355 6.82-6.64 10.182-10.008 1.3425 1.3425 2.67 2.6975 4.0325 4.02 0.83-0.4175 1.6625-0.8275 2.4875-1.2525 3.245 3.25 6.48 6.5075 9.745 9.735 2.268-1.144 4.513-2.332 6.773-3.492 3.07 1.54 6.1325 3.0925 9.22 4.6 0.0025 2.865-0.015 5.7325 0.01 8.6-14.152-0.02-28.308-0.02-42.46 0 0.0275-4.0675 0.005-8.135 0.01-12.202z" />
  </g>
  <path
     id="rect6588"
     d="m7.2651 40.702c-3.6107-28.823 22.731-33.361 32.668-33.437l55.816 0.735c21.091 2.903 26.611 16.187 24.251 34.728l-112 30.388z"
     style="fill:url(#linearGradient11406)" />
  <rect
     id="rect892-2-7-8"
     style="opacity:.15891;stroke:#000;stroke-width:4.8445;fill:none"
     transform="scale(1,-1)"
     ry="28.993"
     height="114.35"
     width="114.22"
     y="-121.16"
     x="6.8687" />
  <rect
     id="rect892-2-7-1"
     style="opacity:.15891;stroke:#000;stroke-width:7.7512;fill:none"
     transform="scale(1,-1)"
     ry="28.993"
     height="114.35"
     width="114.22"
     y="-121.16"
     x="6.8687" />
  <rect
     id="rect892-2-7-2-9"
     ry="28.067"
     style="stroke:#000;stroke-width:1.0489;fill:none"
     transform="scale(1,-1)"
     height="112.71"
     width="114.14"
     y="-120.31"
     x="7.0649" />
  <path
     id="path1187"
     style="fill:#fff;fill-opacity:.057143"
     d="m33.017 7.2319c-23.707 0-26.027 0.6738-25.93 26.295-0.04334 0.71563-0.07674 1.4439-0.07674 2.1732v32.76c18.67-38.321 38.34-51.497 90.374-61.179-0.225-0.026-0.46-0.0303-0.691-0.0303-41.576 0.3874-25.652-0.0188-63.676-0.0188z" />
  <g
     id="layer2"
     style="display:none"
     transform="matrix(1.2166 0 0 1.2299 5.6049 3.1187)">
    <rect
       id="rect3745"
       style="opacity:.9;filter:url(#filter3174);fill:url(#ButtonShadow-4)"
       rx="6"
       ry="6"
       height="85"
       width="86"
       y="7"
       x="5" />
  </g>
  <g
     id="layer2-6"
     style="display:none"
     transform="matrix(1.2166 0 0 1.2299 5.6049 3.1187)">
    <rect
       id="rect3745-8"
       style="opacity:.9;filter:url(#filter3174-7);fill:url(#ButtonShadow-4)"
       rx="6"
       ry="6"
       height="85"
       width="86"
       y="7"
       x="5" />
  </g>
  <g
     id="layer2-69"
     style="display:none"
     transform="matrix(1.2166 0 0 1.2299 5.6049 3.1187)">
    <rect
       id="rect3745-4"
       style="opacity:.9;filter:url(#filter3174-0);fill:url(#ButtonShadow-4)"
       rx="6"
       ry="6"
       height="85"
       width="86"
       y="7"
       x="5" />
  </g>
  <g
     id="layer2-9"
     style="display:none"
     transform="translate(-177.23 -71.914)">
    <rect
       id="rect3745-0"
       style="opacity:.9;filter:url(#filter3174-4);fill:url(#ButtonShadow-4)"
       rx="6"
       ry="6"
       height="85"
       width="86"
       y="7"
       x="5" />
  </g>
  <path
     id="path3615"
     d="m16 120c-4.432 0-8-3.568-8-8v-2.67-90.663-2.667c0-0.4463 0.055067-0.8676 0.12493-1.2917 0.064933-0.39413 0.12933-0.79589 0.25-1.1667 0.013333-0.04051 0.027867-0.0848 0.041733-0.125 0.13187-0.3837 0.31317-0.72994 0.5-1.0833 0.1928-0.364 0.4208-0.714 0.6666-1.041 0.2459-0.328 0.4987-0.632 0.7917-0.917 0.5866-0.57074 1.2572-1.086 2-1.4583 0.3714-0.18615 0.76463-0.32926 1.1667-0.45833-0.3416 0.13363-0.64895 0.31503-0.95833 0.5-0.0093 0.00587-0.03187-0.006-0.04173 0-0.04253 0.025733-0.08307 0.05668-0.12493 0.083333-0.16052 0.10227-0.30803 0.21802-0.45833 0.33333-0.14156 0.10773-0.28437 0.21482-0.41667 0.33333-0.23724 0.21524-0.46328 0.46052-0.66667 0.70833-0.14344 0.17367-0.29119 0.35371-0.41667 0.54167-0.03347 0.05117-0.05133 0.11449-0.08333 0.16667-0.0864 0.13738-0.17364 0.27269-0.25 0.41667-0.13468 0.25961-0.27423 0.55427-0.375 0.83333-0.010667 0.02908-0.031467 0.05407-0.041733 0.08333-0.0424 0.1226-0.047733 0.24911-0.083333 0.375-0.0404 0.14216-0.093867 0.27071-0.12493 0.41667-0.0972 0.45535-0.16667 0.93094-0.16667 1.4167v2.6667 90.667 2.6667c0 3.7091 2.9575 6.6667 6.6667 6.6667h2.6667 90.667 2.6667c3.7091 0 6.6667-2.9575 6.6667-6.6667v-2.6667-90.667-2.6667c0-0.48573-0.0695-0.96132-0.16667-1.4167-0.0589-0.27586-0.11784-0.53021-0.20833-0.79167-0.0103-0.02927-0.0311-0.05425-0.0417-0.08333-0.0836-0.23165-0.18451-0.48993-0.29166-0.70833-0.0554-0.1104-0.10539-0.22661-0.16667-0.33333-0.0728-0.12961-0.16903-0.25113-0.25-0.375-0.12548-0.18795-0.27323-0.36799-0.41666-0.54167-0.1909-0.2326-0.40419-0.46266-0.625-0.66667-0.0149-0.0136-0.0266-0.0282-0.0417-0.041667-0.19-0.1697-0.38-0.3148-0.59-0.4606-0.13677-0.097533-0.27243-0.20449-0.41667-0.29167-0.01-0.006-0.0318 0.00587-0.0417 0-0.30938-0.18497-0.61673-0.36637-0.95833-0.5 0.40203 0.12907 0.79527 0.27218 1.1667 0.45833 0.74278 0.3723 1.4134 0.88759 2 1.4583 0.29329 0.28537 0.54582 0.58915 0.79166 0.91667 0.24585 0.32751 0.47388 0.67699 0.66667 1.0417 0.18682 0.3534 0.36818 0.69964 0.5 1.0833 0.0139 0.04104 0.0284 0.08365 0.0417 0.125 0.12062 0.37078 0.18507 0.77254 0.25 1.1667 0.0699 0.42407 0.125 0.84537 0.125 1.2917v2.6667 90.667 2.6667c0 4.432-3.568 8-8 8h-96z"
     style="opacity:.4;fill:url(#radialGradient30224)" />
  <g
     id="layer5"
     style="display:none"
     transform="translate(-177.23 -71.914)">
    <text
       id="text3989"
       style="opacity:.7;font-size:20.888px;font-weight:bold;line-height:125%;font-family:BabelSans;display:inline;fill:#ffffff"
       y="71.477806"
       x="43.749348"
       xml:space="preserve"><tspan
         id="tspan3991"
         y="71.477806"
         x="43.749348">PNG</tspan></text>
  </g>
</svg>
