<?xml version="1.0" encoding="UTF-8" standalone="no"?>
<!-- Created with Inkscape (http://www.inkscape.org/) -->

<svg
   xmlns:dc="http://purl.org/dc/elements/1.1/"
   xmlns:cc="http://creativecommons.org/ns#"
   xmlns:rdf="http://www.w3.org/1999/02/22-rdf-syntax-ns#"
   xmlns:svg="http://www.w3.org/2000/svg"
   xmlns="http://www.w3.org/2000/svg"
   xmlns:xlink="http://www.w3.org/1999/xlink"
   xmlns:sodipodi="http://sodipodi.sourceforge.net/DTD/sodipodi-0.dtd"
   xmlns:inkscape="http://www.inkscape.org/namespaces/inkscape"
   id="svg3449"
   height="128"
   width="128"
   version="1.0"
   inkscape:version="0.48.5 r10040"
   sodipodi:docname="package_administration.svg">
  <sodipodi:namedview
     pagecolor="#ffffff"
     bordercolor="#666666"
     borderopacity="1"
     objecttolerance="10"
     gridtolerance="10"
     guidetolerance="10"
     inkscape:pageopacity="0"
     inkscape:pageshadow="2"
     inkscape:window-width="1360"
     inkscape:window-height="712"
     id="namedview285"
     showgrid="false"
     inkscape:zoom="1.84375"
     inkscape:cx="98.76657"
     inkscape:cy="85.197563"
     inkscape:window-x="-2"
     inkscape:window-y="28"
     inkscape:window-maximized="1"
     inkscape:current-layer="svg3449" />
  <metadata
     id="metadata56">
    <rdf:RDF>
      <cc:Work
         rdf:about="">
        <dc:format>image/svg+xml</dc:format>
        <dc:type
           rdf:resource="http://purl.org/dc/dcmitype/StillImage" />
        <dc:title />
      </cc:Work>
    </rdf:RDF>
  </metadata>
  <defs
     id="defs3451">
    <filter
       id="filter3174"
       color-interpolation-filters="sRGB">
      <feGaussianBlur
         id="feGaussianBlur3176"
         stdDeviation="1.71" />
    </filter>
    <linearGradient
       id="ButtonShadow-9"
       x1="45.448"
       gradientUnits="userSpaceOnUse"
       y1="92.54"
       gradientTransform="scale(1.0059 .99417)"
       x2="45.448"
       y2="7.0165">
      <stop
         id="stop3750-4"
         offset="0" />
      <stop
         id="stop3752-0"
         style="stop-opacity:.58824"
         offset="1" />
    </linearGradient>
    <filter
       id="filter3174-4"
       color-interpolation-filters="sRGB">
      <feGaussianBlur
         id="feGaussianBlur3176-3"
         stdDeviation="1.71" />
    </filter>
    <linearGradient
       id="linearGradient41915"
       y2="18.918"
       gradientUnits="userSpaceOnUse"
       x2="77.743"
       gradientTransform="translate(-.060995 -.044269)"
       y1="18.674"
       x1="47.65">
      <stop
         id="stop41911"
         style="stop-color:#254d70"
         offset="0" />
      <stop
         id="stop41917"
         style="stop-color:#4b7192"
         offset=".5" />
      <stop
         id="stop41913"
         style="stop-color:#264e71"
         offset="1" />
    </linearGradient>
    <linearGradient
       id="linearGradient41925"
       y2="42.147"
       gradientUnits="userSpaceOnUse"
       x2="45.749"
       gradientTransform="translate(-.14754 -.14436)"
       y1="22.507"
       x1="45.906">
      <stop
         id="stop41937"
         style="stop-color:#174164"
         offset="0" />
      <stop
         id="stop41939"
         style="stop-color:#486e8f"
         offset=".17093" />
      <stop
         id="stop41941"
         style="stop-color:#143d60"
         offset="1" />
    </linearGradient>
    <linearGradient
       id="linearGradient41933"
       y2="40.984"
       gradientUnits="userSpaceOnUse"
       x2="77.901"
       y1="22.685"
       x1="77.814">
      <stop
         id="stop41945"
         style="stop-color:#174164"
         offset="0" />
      <stop
         id="stop41947"
         style="stop-color:#486e8f"
         offset=".13334" />
      <stop
         id="stop41949"
         style="stop-color:#143d60"
         offset="1" />
    </linearGradient>
    <linearGradient
       id="linearGradient23066"
       y2="12.798"
       gradientUnits="userSpaceOnUse"
       y1="79.015"
       gradientTransform="matrix(.56905 0 0 .58994 44.556 11.604)"
       x2="62.337"
       x1="62.337">
      <stop
         id="stop3696"
         style="stop-color:#e6e6e6"
         offset="0" />
      <stop
         id="stop3698-2"
         style="stop-color:#f5f5f5"
         offset="1" />
    </linearGradient>
    <linearGradient
       id="linearGradient23062"
       y2="-8.7399"
       gradientUnits="userSpaceOnUse"
       y1="-123.72"
       gradientTransform="matrix(.96826 0 0 .97948 -125.75 128.17)"
       x2="60.217"
       x1="60.395">
      <stop
         id="stop3392-4-8-03"
         style="stop-color:#425e7b"
         offset="0" />
      <stop
         id="stop3394-8-0-1"
         style="stop-color:#7a91a7"
         offset="1" />
    </linearGradient>
    <linearGradient
       id="linearGradient23060"
       y2="50.369"
       gradientUnits="userSpaceOnUse"
       y1="13.164"
       gradientTransform="matrix(.96826 0 0 .97948 -124.68 -1.1928)"
       x2="76.558"
       x1="76.558">
      <stop
         id="stop3392-34"
         style="stop-color:#425e7b"
         offset="0" />
      <stop
         id="stop3394-83"
         style="stop-color:#7a91a7"
         offset="1" />
    </linearGradient>
    <linearGradient
       id="linearGradient23056"
       y2="-11.847"
       gradientUnits="userSpaceOnUse"
       y1="-118.55"
       gradientTransform="matrix(.96826 0 0 .97948 -125.75 128.17)"
       x2="58.98"
       x1="57.173">
      <stop
         id="stop4596-76"
         offset="0" />
      <stop
         id="stop4598-2"
         style="stop-opacity:0"
         offset="1" />
    </linearGradient>
    <linearGradient
       id="linearGradient23054"
       y2="-9.1034"
       gradientUnits="userSpaceOnUse"
       y1="-42.638"
       gradientTransform="matrix(.96826 0 0 .97948 -125.75 128.17)"
       x2="66.492"
       x1="67.952">
      <stop
         id="stop4620-4"
         style="stop-color:#37414b"
         offset="0" />
      <stop
         id="stop4622-1"
         style="stop-color:#37414b;stop-opacity:0"
         offset="1" />
    </linearGradient>
    <radialGradient
       id="radialGradient23051"
       gradientUnits="userSpaceOnUse"
       cx="48"
       cy="85.132"
       r="36"
       gradientTransform="matrix(-2.2043 1.9876e-8 1.7472e-8 1.9032 169.84 -46.793)">
      <stop
         id="stop3226-1-4"
         style="stop-color:#f55"
         offset="0" />
      <stop
         id="stop3228-1-2"
         style="stop-color:#500"
         offset="1" />
    </radialGradient>
    <linearGradient
       id="linearGradient23048"
       y2="104.76"
       gradientUnits="userSpaceOnUse"
       y1="104.76"
       gradientTransform="matrix(-1 0 0 -1 127.93 128)"
       x2="121.18"
       x1="6.8198">
      <stop
         id="stop5130-8-5"
         style="stop-color:#e5e5e5"
         offset="0" />
      <stop
         id="stop5132-7-7"
         style="stop-color:#ababab"
         offset="1" />
    </linearGradient>
    <linearGradient
       id="linearGradient23045"
       y2="69.41"
       gradientUnits="userSpaceOnUse"
       y1="25.779"
       gradientTransform="matrix(-1.5724 0 0 1.5584 139.5 -6.482)"
       x2="31.643"
       x1="31.643">
      <stop
         id="stop3867-9"
         style="stop-color:#f00"
         offset="0" />
      <stop
         id="stop3869-3"
         style="stop-color:#500"
         offset="1" />
    </linearGradient>
    <linearGradient
       id="linearGradient22940"
       y2="7.0165"
       gradientUnits="userSpaceOnUse"
       y1="92.54"
       gradientTransform="matrix(1.0059 0 0 .99417 37.362 -163.36)"
       x2="45.448"
       x1="45.448">
      <stop
         id="stop3750-04"
         offset="0" />
      <stop
         id="stop3752-95"
         style="stop-opacity:.58824"
         offset="1" />
    </linearGradient>
    <filter
       id="filter3174-65"
       color-interpolation-filters="sRGB">
      <feGaussianBlur
         id="feGaussianBlur3176-50"
         stdDeviation="1.71" />
    </filter>
    <linearGradient
       id="linearGradient26518"
       y2="7.0165"
       gradientUnits="userSpaceOnUse"
       y1="92.54"
       gradientTransform="matrix(1.0059 0 0 .99417 332.3 -12.047)"
       x2="45.448"
       x1="45.448">
      <stop
         id="stop3750-6-81"
         offset="0" />
      <stop
         id="stop3752-7-9"
         style="stop-opacity:.58824"
         offset="1" />
    </linearGradient>
    <filter
       id="filter3174-1-13"
       color-interpolation-filters="sRGB">
      <feGaussianBlur
         id="feGaussianBlur3176-0-6"
         stdDeviation="1.71" />
    </filter>
    <filter
       id="filter3174-9-1"
       color-interpolation-filters="sRGB">
      <feGaussianBlur
         id="feGaussianBlur3176-5-7"
         stdDeviation="1.71" />
    </filter>
    <filter
       id="filter3174-6-7"
       color-interpolation-filters="sRGB">
      <feGaussianBlur
         id="feGaussianBlur3176-1-6"
         stdDeviation="1.71" />
    </filter>
    <filter
       id="filter3174-1-1"
       color-interpolation-filters="sRGB">
      <feGaussianBlur
         id="feGaussianBlur3176-0-1"
         stdDeviation="1.71" />
    </filter>
    <filter
       id="filter3174-9-5"
       color-interpolation-filters="sRGB">
      <feGaussianBlur
         id="feGaussianBlur3176-5-5"
         stdDeviation="1.71" />
    </filter>
    <filter
       id="filter3174-6-5"
       color-interpolation-filters="sRGB">
      <feGaussianBlur
         id="feGaussianBlur3176-1-5"
         stdDeviation="1.71" />
    </filter>
    <linearGradient
       id="linearGradient8971"
       y2="7.0165"
       gradientUnits="userSpaceOnUse"
       y1="92.54"
       gradientTransform="matrix(1.0059 0 0 .99417 206.17 35.062)"
       x2="45.448"
       x1="45.448">
      <stop
         id="stop3750-7"
         offset="0" />
      <stop
         id="stop3752-98"
         style="stop-opacity:.58824"
         offset="1" />
    </linearGradient>
    <linearGradient
       id="linearGradient8941"
       y2="5.9877"
       gradientUnits="userSpaceOnUse"
       y1="90"
       gradientTransform="translate(206.17 35.062)"
       x2="48"
       x1="48">
      <stop
         id="stop3702-8"
         style="stop-color:#212121"
         offset="0" />
      <stop
         id="stop3704-2"
         style="stop-color:#444"
         offset="1" />
    </linearGradient>
    <linearGradient
       id="linearGradient8873"
       y2="5.9877"
       gradientUnits="userSpaceOnUse"
       y1="90"
       gradientTransform="translate(206.17 35.062)"
       x2="48"
       x1="48">
      <stop
         id="stop3259"
         style="stop-color:#aaa"
         offset="0" />
      <stop
         id="stop3261"
         style="stop-color:#d2d2d2"
         offset="1" />
    </linearGradient>
    <linearGradient
       id="linearGradient8868"
       y2="46.187"
       gradientUnits="userSpaceOnUse"
       y1="46.187"
       gradientTransform="matrix(0 -.99172 1.0682 0 204.83 128.46)"
       x2="81.065"
       x1="10.48">
      <stop
         id="stop3270-48"
         style="stop-color:#e4e4e4"
         offset="0" />
      <stop
         id="stop3272-9"
         style="stop-color:#7a7a7a"
         offset="1" />
    </linearGradient>
    <filter
       id="filter3174-5"
       color-interpolation-filters="sRGB">
      <feGaussianBlur
         id="feGaussianBlur3176-41"
         stdDeviation="1.71" />
    </filter>
    <linearGradient
       id="linearGradient8354"
       y2="7.0165"
       gradientUnits="userSpaceOnUse"
       y1="92.54"
       gradientTransform="matrix(1.0059 0 0 .99417 -241.74 36.163)"
       x2="45.448"
       x1="45.448">
      <stop
         id="stop3750-51"
         offset="0" />
      <stop
         id="stop3752-15"
         style="stop-opacity:.58824"
         offset="1" />
    </linearGradient>
    <filter
       id="filter3174-7"
       color-interpolation-filters="sRGB">
      <feGaussianBlur
         id="feGaussianBlur3176-4"
         stdDeviation="1.71" />
    </filter>
    <linearGradient
       id="linearGradient7745"
       y2="7.0165"
       gradientUnits="userSpaceOnUse"
       y1="92.54"
       gradientTransform="matrix(1.0059 0 0 .99417 188.83 18.712)"
       x2="45.448"
       x1="45.448">
      <stop
         id="stop3750-9"
         offset="0" />
      <stop
         id="stop3752-59"
         style="stop-opacity:.58824"
         offset="1" />
    </linearGradient>
    <filter
       id="filter3174-93"
       color-interpolation-filters="sRGB">
      <feGaussianBlur
         id="feGaussianBlur3176-14"
         stdDeviation="1.71" />
    </filter>
    <linearGradient
       id="linearGradient7212"
       y2="7.0165"
       gradientUnits="userSpaceOnUse"
       y1="92.54"
       gradientTransform="matrix(1.0059 0 0 .99417 -350.06 -144.69)"
       x2="45.448"
       x1="45.448">
      <stop
         id="stop3750-2-2"
         offset="0" />
      <stop
         id="stop3752-1"
         style="stop-opacity:.58824"
         offset="1" />
    </linearGradient>
    <filter
       id="filter3174-69"
       color-interpolation-filters="sRGB">
      <feGaussianBlur
         id="feGaussianBlur3176-2"
         stdDeviation="1.71" />
    </filter>
    <filter
       id="filter3174-6"
       color-interpolation-filters="sRGB">
      <feGaussianBlur
         id="feGaussianBlur3176-1"
         stdDeviation="1.71" />
    </filter>
    <filter
       id="filter3174-9"
       color-interpolation-filters="sRGB">
      <feGaussianBlur
         id="feGaussianBlur3176-5"
         stdDeviation="1.71" />
    </filter>
    <filter
       id="filter3174-1"
       color-interpolation-filters="sRGB">
      <feGaussianBlur
         id="feGaussianBlur3176-0"
         stdDeviation="1.71" />
    </filter>
    <linearGradient
       id="linearGradient65727"
       y2="79.522"
       gradientUnits="userSpaceOnUse"
       x2="122.49"
       y1="79.522"
       x1="5.176">
      <stop
         id="stop65723"
         style="stop-color:#0862b5"
         offset="0" />
      <stop
         id="stop65725"
         style="stop-color:#217fd6"
         offset="1" />
    </linearGradient>
    <filter
       id="filter4128-3"
       height="1.4923"
       width="1.4683"
       color-interpolation-filters="sRGB"
       y="-.24614"
       x="-.23416">
      <feGaussianBlur
         id="feGaussianBlur4130-1"
         stdDeviation="3.2818182" />
    </filter>
    <clipPath
       id="clipPath4124-2">
      <path
         id="path4126-4"
         style="fill:#f0f"
         d="m12 6c-3.324 0-6 2.676-6 6v72c0 3.324 2.676 6 6 6h64c3.324 0 6-2.676 6-6v-72c0-3.324-2.676-6-6-6h-64zm41 26c4.7437 0 8.5312 3.5725 8.5312 8-0.01825 0.53641-0.02106 1.1915-0.0625 1.8125 0.70276 0.44193 0.71665 1.9275 0.0625 3.4688-0.23269 0.54826-0.49662 0.96113-0.8125 1.3438-0.09925 0.46292-0.12281 0.83737-0.25 1.375-0.35389 1.0617-1.7896 3.1857-2.8438 4.8125-0.06772 1.0795-0.03947 2.1853 0.09375 3.2812 3.2925 2.8631 11.893 4.3621 11.906 6.8125l0.187 1.094h-33.624l0.187-1.094c-0.01278-2.8631 8.5728-4.0469 11.906-6.8125 0.23112-1.3475 0.11344-2.5343 0-3.7188-1.1569-1.5423-2.4323-3.4218-2.75-4.375-0.11386-0.52116-0.06413-0.73154-0.15625-1.1875-0.37917-0.4081-0.72694-0.88788-1-1.5312-0.68857-1.6224-0.65495-3.2182 0.15625-3.5625-0.045-0.574-0.052-1.247-0.062-1.718 0-4.4275 3.7876-8 8.5312-8z" />
    </clipPath>
    <linearGradient
       id="linearGradient68954-9"
       y2="56"
       gradientUnits="userSpaceOnUse"
       y1="40.778"
       gradientTransform="matrix(2.1023 0 0 2.1023 -47.909 -53.727)"
       x2="45.622"
       x1="45.622">
      <stop
         id="stop4030-0"
         style="stop-opacity:.80916"
         offset="0" />
      <stop
         id="stop4032-4"
         style="stop-opacity:.43511"
         offset="1" />
    </linearGradient>
    <linearGradient
       id="linearGradient69290"
       y2="3.899"
       gradientUnits="userSpaceOnUse"
       y1="44"
       gradientTransform="matrix(5.6643 0 0 2.8363 -16.869 -3.6903)"
       x2="24"
       x1="24">
      <stop
         id="stop5440-4"
         style="stop-color:#272727"
         offset="0" />
      <stop
         id="stop5442-3"
         style="stop-color:#454545"
         offset="1" />
    </linearGradient>
    <radialGradient
       id="radialGradient69288"
       gradientUnits="userSpaceOnUse"
       cx="7.4957"
       cy="8.4498"
       r="20"
       gradientTransform="matrix(1.1005e-7 6.6285 -14.004 -1.2212e-7 237.4 -38.96)">
      <stop
         id="stop5430-8"
         style="stop-color:#5f5f5f"
         offset="0" />
      <stop
         id="stop5432-3"
         style="stop-color:#4f4f4f"
         offset=".26238" />
      <stop
         id="stop5434-1"
         style="stop-color:#3b3b3b"
         offset=".70495" />
      <stop
         id="stop5436-8"
         style="stop-color:#2b2b2b"
         offset="1" />
    </radialGradient>
    <linearGradient
       id="linearGradient69058"
       y2="138.66"
       gradientUnits="userSpaceOnUse"
       y1="20.221"
       x2="48"
       x1="48">
      <stop
         id="stop3739-9-2"
         style="stop-color:#fff"
         offset="0" />
      <stop
         id="stop3741-0-82"
         style="stop-color:#fff;stop-opacity:0"
         offset="1" />
    </linearGradient>
    <filter
       id="filter3174-6-6"
       color-interpolation-filters="sRGB">
      <feGaussianBlur
         id="feGaussianBlur3176-6"
         stdDeviation="1.71" />
    </filter>
    <filter
       id="filter3794-4-8"
       height="1.384"
       width="1.384"
       color-interpolation-filters="sRGB"
       y="-.192"
       x="-.192">
      <feGaussianBlur
         id="feGaussianBlur3796-0-7"
         stdDeviation="5.28" />
    </filter>
    <clipPath
       id="clipPath3613-72">
      <rect
         id="rect3615-36"
         style="fill:#fff"
         rx="6"
         ry="6"
         height="84"
         width="84"
         y="6"
         x="6" />
    </clipPath>
    <linearGradient
       id="linearGradient5033"
       y2="7.0165"
       gradientUnits="userSpaceOnUse"
       y1="92.54"
       gradientTransform="matrix(1.0059 0 0 .99417 -243.97 -80.599)"
       x2="45.448"
       x1="45.448">
      <stop
         id="stop3750-87"
         offset="0" />
      <stop
         id="stop3752-4-6"
         style="stop-opacity:.58824"
         offset="1" />
    </linearGradient>
    <filter
       id="filter3174-8"
       color-interpolation-filters="sRGB">
      <feGaussianBlur
         id="feGaussianBlur3176-7-7"
         stdDeviation="1.71" />
    </filter>
    <filter
       id="filter3174-4-0"
       color-interpolation-filters="sRGB">
      <feGaussianBlur
         id="feGaussianBlur3176-8"
         stdDeviation="1.71" />
    </filter>
    <filter
       id="filter3794-83-6"
       height="1.384"
       width="1.384"
       color-interpolation-filters="sRGB"
       y="-.192"
       x="-.192">
      <feGaussianBlur
         id="feGaussianBlur3796-4-9"
         stdDeviation="5.28" />
    </filter>
    <clipPath
       id="clipPath3613-6-4">
      <rect
         id="rect3615-0-6"
         style="fill:#fff"
         rx="6"
         ry="6"
         height="84"
         width="84"
         y="6"
         x="6" />
    </clipPath>
    <filter
       id="filter3174-9-54"
       color-interpolation-filters="sRGB">
      <feGaussianBlur
         id="feGaussianBlur3176-16"
         stdDeviation="1.71" />
    </filter>
    <filter
       id="filter3174-0-7"
       color-interpolation-filters="sRGB">
      <feGaussianBlur
         id="feGaussianBlur3176-4-1"
         stdDeviation="1.71" />
    </filter>
    <filter
       id="filter3174-7-4"
       color-interpolation-filters="sRGB">
      <feGaussianBlur
         id="feGaussianBlur3176-1-7"
         stdDeviation="1.71" />
    </filter>
    <filter
       id="filter3174-39"
       color-interpolation-filters="sRGB">
      <feGaussianBlur
         id="feGaussianBlur3176-93"
         stdDeviation="1.71" />
    </filter>
    <linearGradient
       id="linearGradient11406"
       y2="19.812"
       gradientUnits="userSpaceOnUse"
       y1="8.4375"
       gradientTransform="matrix(2.6667 0 0 4.341 -1.4969e-7 -5.0231)"
       x2="15.25"
       x1="12.938">
      <stop
         id="stop6594-0-2"
         style="stop-color:#fff;stop-opacity:.27451"
         offset="0" />
      <stop
         id="stop6596-2-5"
         style="stop-color:#fff;stop-opacity:0"
         offset="1" />
    </linearGradient>
    <linearGradient
       id="linearGradient3521"
       y2="-8.7399"
       gradientUnits="userSpaceOnUse"
       y1="-123.72"
       gradientTransform="matrix(.96826 0 0 .97948 2.179 .16587)"
       x2="60.217"
       x1="60.395">
      <stop
         id="stop3392-4-8-76"
         style="stop-color:#425e7b"
         offset="0" />
      <stop
         id="stop3394-8-0-9"
         style="stop-color:#7a91a7"
         offset="1" />
    </linearGradient>
    <linearGradient
       id="linearGradient3519"
       y2="50.369"
       gradientUnits="userSpaceOnUse"
       y1="13.164"
       gradientTransform="matrix(.96826 0 0 .97948 3.2423 -129.19)"
       x2="76.558"
       x1="76.558">
      <stop
         id="stop3392-00"
         style="stop-color:#425e7b"
         offset="0" />
      <stop
         id="stop3394-66"
         style="stop-color:#7a91a7"
         offset="1" />
    </linearGradient>
    <linearGradient
       id="linearGradient3516"
       y2="-11.847"
       gradientUnits="userSpaceOnUse"
       y1="-118.55"
       gradientTransform="matrix(.96826 0 0 .97948 2.179 .16587)"
       x2="58.98"
       x1="57.173">
      <stop
         id="stop4596-87"
         offset="0" />
      <stop
         id="stop4598-24"
         style="stop-opacity:0"
         offset="1" />
    </linearGradient>
    <linearGradient
       id="linearGradient3514"
       y2="-9.1034"
       gradientUnits="userSpaceOnUse"
       y1="-42.638"
       gradientTransform="matrix(.96826 0 0 .97948 2.179 .16587)"
       x2="66.492"
       x1="67.952">
      <stop
         id="stop4620-19"
         style="stop-color:#37414b"
         offset="0" />
      <stop
         id="stop4622-95"
         style="stop-color:#37414b;stop-opacity:0"
         offset="1" />
    </linearGradient>
    <linearGradient
       id="linearGradient68869"
       y2="24"
       gradientUnits="userSpaceOnUse"
       x2="18"
       gradientTransform="matrix(0,1,1,0,-10,10)"
       y1="24"
       x1="10">
      <stop
         id="stop3780"
         offset="0" />
      <stop
         id="stop3786"
         style="stop-opacity:0"
         offset=".5" />
      <stop
         id="stop3782-8"
         style="stop-color:#fff"
         offset="1" />
    </linearGradient>
    <linearGradient
       id="linearGradient68871"
       y2="26"
       gradientUnits="userSpaceOnUse"
       x2="9"
       y1="22"
       x1="9">
      <stop
         id="stop3747"
         style="stop-color:#8a8a8a"
         offset="0" />
      <stop
         id="stop3753-8"
         style="stop-color:#d5d5d5"
         offset=".40964" />
      <stop
         id="stop3755"
         style="stop-color:#6f6f6f"
         offset=".72741" />
      <stop
         id="stop3749"
         style="stop-color:#373737"
         offset="1" />
    </linearGradient>
    <linearGradient
       id="linearGradient68873"
       y2="24"
       spreadMethod="reflect"
       gradientUnits="userSpaceOnUse"
       x2="12"
       y1="24"
       x1="4">
      <stop
         id="stop3763"
         offset="0" />
      <stop
         id="stop3769-9"
         style="stop-opacity:.19380"
         offset=".5" />
      <stop
         id="stop3765"
         style="stop-opacity:0"
         offset="1" />
    </linearGradient>
  </defs>
  <rect
     id="rect41849"
     style="fill:#207ed4"
     ry="0"
     height="14.06"
     width="101.01"
     y="28.154"
     x="12.508" />
  <path
     id="path41847"
     style="stroke:#000;stroke-width:.95573px"
     d="m14.235 28.665 97.545-0.06874-9.1082 5.679 19.626 1.7953l-117.51-0.223 19.864-1.122z" />
  <g
     id="layer2"
     style="display:none"
     transform="translate(-32.001 148.11)">
    <rect
       id="rect3745"
       style="opacity:.9;filter:url(#filter3174);fill:url(#ButtonShadow-9)"
       rx="6"
       ry="6"
       height="85"
       width="86"
       y="7"
       x="5" />
  </g>
  <g
     id="layer2-7"
     style="display:none"
     transform="translate(-47.287 228.14)">
    <rect
       id="rect3745-3"
       style="opacity:.9;filter:url(#filter3174-4);fill:url(#ButtonShadow-9)"
       rx="6"
       ry="6"
       height="85"
       width="86"
       y="7"
       x="5" />
  </g>
  <g
     id="g65658"
     transform="matrix(.33321 -.10712 .10712 .33321 13.82 11.512)">
    <g
       id="layer2-3"
       style="display:none"
       transform="translate(187.88 23.742)">
      <rect
         id="rect3745-2"
         style="opacity:.9;filter:url(#filter3174-1);fill:url(#ButtonShadow-9)"
         rx="6"
         ry="6"
         height="85"
         width="86"
         y="7"
         x="5" />
    </g>
    <g
       id="layer2-2"
       style="display:none"
       transform="matrix(1.2166 0 0 1.2299 5.6049 3.1187)">
      <rect
         id="rect3745-5"
         style="opacity:.9;filter:url(#filter3174-9);fill:url(#ButtonShadow-9)"
         rx="6"
         ry="6"
         height="85"
         width="86"
         y="7"
         x="5" />
    </g>
    <g
       id="layer2-8"
       style="display:none"
       transform="matrix(1.2166 0 0 1.2299 162.3 9.178)">
      <rect
         id="rect3745-8"
         style="opacity:.9;filter:url(#filter3174-6);fill:url(#ButtonShadow-9)"
         rx="6"
         ry="6"
         height="85"
         width="86"
         y="7"
         x="5" />
    </g>
    <rect
       id="rect3745-9"
       style="opacity:.9;filter:url(#filter3174-69);display:none;fill:url(#linearGradient7212)"
       rx="6"
       ry="6"
       height="85"
       width="86"
       y="-137.69"
       x="-345.06" />
    <rect
       id="rect3745-56"
       style="opacity:.9;filter:url(#filter3174-93);display:none;fill:url(#linearGradient7745)"
       rx="6"
       ry="6"
       height="85"
       width="86"
       y="25.712"
       x="193.83" />
    <rect
       id="rect3745-6"
       style="opacity:.9;filter:url(#filter3174-7);display:none;fill:url(#linearGradient8354)"
       rx="6"
       ry="6"
       height="85"
       width="86"
       y="43.163"
       x="-236.74" />
    <rect
       id="rect3745-7"
       style="opacity:.9;filter:url(#filter3174-5);display:none;fill:url(#linearGradient8971)"
       rx="6"
       ry="6"
       height="85"
       width="86"
       y="42.062"
       x="211.17" />
    <rect
       id="rect2419"
       style="fill:url(#linearGradient8941);display:none"
       rx="6"
       ry="6"
       height="84"
       width="84"
       y="41.062"
       x="212.17" />
    <path
       id="rect2476"
       style="fill:url(#linearGradient8873);display:none"
       d="m218.17 41.062c-3.324 0-6 2.676-6 6v72c0 3.324 2.676 6 6 6h72c3.324 0 6-2.676 6-6v-72c0-3.324-2.676-6-6-6h-72zm36 7c19.32 0 35 15.68 35 35s-15.68 35-35 35-35-15.68-35-35 15.68-35 35-35z" />
    <path
       id="text3309"
       style="fill:#666;display:none"
       d="m232.74 51.754 1.2083-0.72757-0.50222-0.83402-0.66294 0.3992-0.33803-0.56136 0.66294-0.3992-0.84669-1.4061 0.55067-0.33159 2.025 3.3628-1.7589 1.0592-0.33803-0.56136m-1.435-1.1358 0.95366-0.62836 0.36397 0.55239-0.95366 0.62836-0.36397-0.55239m-1.0932 3.0146 0.94049-0.70144c0.23679-0.17661 0.25942-0.39331 0.0679-0.65011-0.20481-0.26766-0.40018-0.33475-0.58609-0.20128l-0.32017 0.23879c-0.54028 0.40295-1.0243 0.31761-1.4522-0.25602l-0.0821-0.11006c-0.4328-0.5803-0.33403-1.1055 0.29629-1.5756l0.97552-0.72756 0.39176 0.52528-1.0656 0.79472c-0.23012 0.17163-0.25315 0.38084-0.0691 0.62764l0.0112 0.01501c0.20148 0.27014 0.4006 0.33183 0.59737 0.18508l0.34518-0.25744c0.51609-0.37972 0.99551-0.27276 1.4383 0.32089l0.0858 0.11506c0.41539 0.55696 0.30959 1.0692-0.31741 1.5369l-0.86545 0.64547-0.39176-0.52528m-0.87697 0.70684-0.77538-0.89708-0.55714 0.48156c-0.17627 0.15236-0.17734 0.32926-0.003 0.53071l0.26934 0.31162c0.16324 0.18886 0.333 0.20711 0.50927 0.05476l0.55713-0.48156m-1.2039-1.3928-0.93455-1.0812 0.4816-0.41626 2.5669 2.9698-1.0482 0.90598c-0.49648 0.41812-0.96373 0.3738-1.4018-0.13297l-0.26526-0.3069c-0.46796-0.5414-0.45641-1.0243 0.0346-1.4487l0.56658-0.48972m-1.7071 3.8771c0.0823 0.08246 0.17202 0.07521 0.26921-0.02176l0.54341-0.54216c0.0913-0.0911 0.0958-0.17788 0.0135-0.26034l-1.5648-1.5684c-0.0558-0.05596-0.11023-0.08397-0.16318-0.08403-0.053-0.000061-0.0956 0.01607-0.12803 0.0484l-0.592 0.59065c-0.0324 0.03232-0.0413 0.0735-0.0266 0.12353 0.0117 0.05297 0.0396 0.10154 0.0837 0.14572l1.5648 1.5684m-2.108-1.2115c-0.35262-0.35932-0.35958-0.70795-0.0209-1.0459l0.70245-0.70084c0.34165-0.34087 0.68438-0.33901 1.0282 0.0056l1.7543 1.7583c0.33793 0.3387 0.34785 0.66674 0.0298 0.98411l-0.74222 0.74052c-0.33871 0.33793-0.67703 0.33754-1.015-0.0012l-1.7367-1.7407m0.31096 3.4923 0.52599-0.6012-2.4752-2.1656 0.41915-0.47908 2.4752 2.1656 0.48079-0.54954 0.49317 0.43148-1.4259 1.6298-0.49318-0.43148" />
    <path
       id="text3313"
       style="fill:#666;display:none"
       d="m266.91 121.92-1.1775 0.35354c-0.56185 0.1687-0.9349-0.0538-1.1192-0.66743l-0.51686-1.7214c-0.18105-0.58855 0.0438-0.97535 0.6746-1.1604l1.0819-0.32483 0.11665 0.38852-1.2014 0.36072c-0.30284 0.0909-0.4076 0.2918-0.31428 0.60261l0.53839 1.7931c0.0969 0.32277 0.28085 0.44347 0.55181 0.36211l0.87267-0.26201-0.35534-1.1835-0.76508 0.22972-0.11844-0.3945 1.1416-0.34277 0.59044 1.9665m2.3366-0.85474-0.35704 0.13207-0.62789-1.6974c-0.10825-0.29266-0.3009-0.38774-0.57795-0.28527l-0.40972 0.15156c-0.31217 0.11548-0.40547 0.34295-0.27989 0.68243l0.6019 1.6272-0.36289 0.13424-0.931-2.5169 0.36289-0.13423 0.11259 0.30436c0.0133-0.24001 0.14546-0.40425 0.39664-0.49273l0.46825-0.17321c0.44874-0.16599 0.76693 0.005 0.95458 0.51192l0.64953 1.756m2.0679-1.8274c0.22499 0.51466 0.11141 0.87282-0.34075 1.0745l-0.59845 0.26693c-0.45216 0.20168-0.79263 0.046-1.0214-0.46691l-0.41438-0.92902c-0.22371-0.50156-0.10949-0.85317 0.34267-1.0549l0.59845-0.26693c0.45216-0.20167 0.792-0.0526 1.0195 0.44728l0.41438 0.92901m-0.3915 0.0721-0.33557-0.75233c-0.14067-0.31537-0.3459-0.41289-0.61567-0.29256l-0.44456 0.19829c-0.26598 0.11863-0.33053 0.33648-0.19366 0.65355l0.33556 0.75233c0.14026 0.32467 0.34718 0.42599 0.62076 0.30397l0.44456-0.1983c0.26977-0.12032 0.33263-0.34198 0.18858-0.66495m4.4635-1.3016-0.33861 0.18723-0.83953-1.5183c-0.17516-0.31676-0.39199-0.40367-0.65049-0.26073l-0.31677 0.17515c-0.29856 0.16509-0.35379 0.40482-0.1657 0.71918l0.83651 1.5128-0.33861 0.18723-0.85765-1.551c-0.16307-0.29491-0.37568-0.36989-0.63783-0.22494l-0.27854 0.15401c-0.29855 0.16509-0.35704 0.41613-0.17546 0.7531l0.82443 1.491-0.33861 0.18723-1.2986-2.3484 0.33861-0.18723 0.17818 0.32222c-0.046-0.25507 0.0585-0.45308 0.31335-0.59401l0.38776-0.21441c0.29492-0.16307 0.524-0.13999 0.68725 0.0693-0.0504-0.27166 0.061-0.48298 0.33404-0.63398l0.42599-0.23555c0.40779-0.22548 0.75463-0.0797 1.0405 0.43729l0.86973 1.5729m1.4835-2.3851-1.4004 0.93715 0.1753 0.27317c0.15386 0.22243 0.3328 0.26539 0.5368 0.12886l1.0166-0.68029 0.22908 0.34231-1.0114 0.67682c-0.42415 0.27884-0.78143 0.19755-1.0718-0.24389l-0.60218-0.88861c-0.30081-0.44949-0.23281-0.8229 0.204-1.1202l0.46507-0.30372c0.40109-0.26841 0.74857-0.18306 1.0424 0.25606l0.41651 0.62238m-1.626 0.60002 1.0944-0.73236-0.18567-0.26622c-0.14695-0.22706-0.31724-0.2758-0.51087-0.14623l-0.48234 0.3228c-0.22129 0.14809-0.25155 0.33104-0.0908 0.54885l0.1753 0.27316m2.7319-1.7888 0.88842 1.1194-0.30308 0.24053-2.2851-2.8792 0.98745-0.78367c0.4458-0.34848 0.85233-0.29135 1.2196 0.17141l0.25217 0.31775c0.39313 0.49535 0.36809 0.9189-0.0751 1.2706l-0.68437 0.54314m-1.1445-1.4421 0.8923 1.1243 0.6746-0.53538c0.24767-0.19656 0.26288-0.43172 0.0456-0.70546l-0.25606-0.32264c-0.2069-0.2607-0.4342-0.29278-0.68188-0.0962l-0.67459 0.53538m5.1206-0.0691-0.28336 0.25422-1.2086-1.3471c-0.20838-0.23226-0.4225-0.24976-0.64238-0.0525l-0.32517 0.29173c-0.24775 0.22227-0.25077 0.46812-0.009 0.73754l1.1586 1.2914-0.28801 0.25839-2.463-2.7454 0.28801-0.25838 0.88768 0.98944c-0.076-0.22803-0.0136-0.42941 0.18743-0.60413l0.37158-0.33339c0.35614-0.31951 0.7148-0.27797 1.076 0.12462l1.2503 1.3936m1.1809-2.3929c0.3982 0.39614 0.42401 0.77099 0.0774 1.1246l-0.4587 0.46797c-0.34657 0.35357-0.72041 0.33377-1.1215-0.0594l-0.72645-0.71207c-0.3922-0.38444-0.41501-0.75344-0.0684-1.107l0.4587-0.46796c0.34657-0.35357 0.71741-0.33962 1.1125 0.0418l0.72645 0.71207m-0.3377 0.21079-0.58829-0.57665c-0.24661-0.24172-0.4733-0.2571-0.68008-0.0462l-0.34075 0.34763c-0.20386 0.20799-0.18395 0.43433 0.0597 0.67902l0.5883 0.57665c0.24963 0.25052 0.4793 0.26882 0.68899 0.0549l0.34074-0.34763c0.20678-0.21095 0.18389-0.4402-0.0687-0.68775m1.9028-0.71023-0.0457 0.0512c-0.40418 0.45345-0.83299 0.47808-1.2864 0.0739l-2.0638-1.8396 0.25746-0.28884 0.74073 0.66025 0.39449-0.44258 0.30282 0.26992-0.39449 0.44258 1.0296 0.9177c0.24536 0.2187 0.49953 0.18052 0.76253-0.11453l0.30281 0.26991m0.8518-2.3647c0.43386 0.35672 0.49499 0.72746 0.1834 1.1122l-0.41241 0.50923c-0.3116 0.38475-0.68563 0.40037-1.1221 0.0469l-0.79052-0.64021c-0.42678-0.34564-0.48437-0.71083-0.17277-1.0956l0.4124-0.50923c0.3116-0.38474 0.68209-0.40592 1.1115-0.0635l0.79052 0.64021m-0.31626 0.24177-0.64018-0.51845c-0.26835-0.21733-0.49548-0.21122-0.68139 0.0183l-0.30636 0.37828c-0.18329 0.22633-0.14207 0.44977 0.12366 0.67034l0.64018 0.51845c0.2722 0.2258 0.50256 0.22231 0.69109-0.0105l0.30636-0.37828c0.18591-0.22956 0.14146-0.45562-0.13336-0.67819m3.2078-2.9277-0.21522 0.32155-2.5516-1.7078 0.6237 0.62772 1.5461 1.6506-0.24299 0.36304-2.0877-0.79656-0.83712-0.34252 2.5465 1.7044-0.21869 0.32674-3.0547-2.0446 0.3263-0.48751 2.7933 1.1111 0.37876 0.16339-0.28336-0.27226-2.1042-2.1744 0.32629-0.48751 3.0547 2.0446m1.2396-2.1469-0.67404 1.1746c-0.24435 0.42581-0.59721 0.50154-1.0586 0.22719-0.42942-0.24642-0.51781-0.58976-0.26517-1.03l0.46282-0.80651-0.21421-0.11573c-0.27733-0.16874-0.49261-0.11959-0.64585 0.14744l-0.54047 0.94183-0.35183-0.2019 0.54278-0.93331c0.30434-0.49691 0.71038-0.59009 1.2181-0.27954l1.5264 0.87594m-0.54442 0.1337-0.63871-0.36653-0.49699 0.86605c-0.10407 0.18972-0.0497 0.34566 0.16325 0.46784 0.2093 0.1201 0.36882 0.0845 0.47857-0.10672l0.49388-0.86064m1.7374-2.5126-0.16821 0.34151-1.6236-0.79967c-0.27992-0.13787-0.48515-0.07431-0.61567 0.19068l-0.19302 0.39189c-0.14707 0.29859-0.0582 0.52785 0.26646 0.68779l1.5564 0.76658-0.17097 0.34711-2.4074-1.1857 0.17096-0.3471 0.29112 0.14339c-0.15553-0.18328-0.1726-0.39343-0.0512-0.63046l0.2206-0.44788c0.21142-0.42922 0.55972-0.52433 1.0449-0.28535l1.6796 0.82725m0.96638-2.2875-0.52024 1.2503c-0.18859 0.45327-0.52905 0.57298-1.0214 0.35912-0.45711-0.19019-0.58817-0.51961-0.39319-0.98824l0.35722-0.85852-0.22712-0.08774c-0.29642-0.13234-0.50376-0.05639-0.62204 0.22786l-0.41714 1.0026-0.37453-0.15583 0.42051-0.99441c0.23913-0.53138 0.63014-0.67512 1.173-0.4312l1.6249 0.67606m-0.52317 0.20141-0.6799-0.28289-0.38358 0.9219c-0.0793 0.20134-0.006 0.34917 0.22105 0.44346 0.22279 0.0927 0.37654 0.03726 0.46125-0.16633l0.38118-0.91614m1.7998-0.82665-0.40115-0.13844 0.2789-0.80821c0.0624-0.18091 0.015-0.29851-0.14233-0.3528l-0.28907-0.09975-0.35219 1.0206c-0.13287 0.37227-0.40123 0.49312-0.8051 0.36255l-1.3392-0.46212c-0.39722-0.13708-0.52994-0.40294-0.39816-0.79759l0.4723-1.3687 2.8199 0.97311c0.4352 0.15458 0.58833 0.41869 0.4594 0.79231l-0.30334 0.87901m-2.7128-2.1443-0.32979 0.9557c-0.0611 0.17698 0.0106 0.30076 0.21515 0.37133l1.0973 0.37866c0.24777 0.0855 0.40572 0.01678 0.47386-0.20618l0.30741-0.8908-1.7639-0.6087m1.8764-2.391-0.44892 1.6241 0.31113 0.09248c0.26176 0.06804 0.42535-0.01624 0.49074-0.25284l0.32589-1.179 0.397 0.10974-0.32422 1.173c-0.13924 0.48813-0.46295 0.6598-0.97113 0.51502l-1.0363-0.27996c-0.52132-0.1441-0.71359-0.47134-0.57683-0.98174l0.15399-0.53369c0.12858-0.46517 0.44751-0.62737 0.9568-0.4866l0.72182 0.19952m-0.83991 1.516 0.35083-1.2692-0.31446-0.08044c-0.25954-0.07606-0.42036-0.0018-0.48243 0.22276l-0.15463 0.55941c-0.0709 0.25665 0.0256 0.41498 0.28957 0.475l0.31112 0.09247m0.1259-3.5639-0.1143 0.52439c-0.0735 0.3374 0.0771 0.54483 0.45199 0.62228l1.6646 0.36284-0.0824 0.37805-2.622-0.57151 0.0824-0.37805 0.33537 0.0731c-0.21205-0.1016-0.27821-0.33532-0.19846-0.70118l0.0864-0.39634 0.39634 0.08639" />
    <path
       id="path2522"
       style="stroke:url(#linearGradient8868);stroke-linecap:square;stroke-width:2;display:none;fill:none"
       d="m254.17 48.062a35 35 0 0 1 0 70 35 35 0 1 1 0 -70z" />
    <g
       id="layer2-86"
       style="display:none"
       transform="translate(-225.35 -4.4159)">
      <rect
         id="rect3745-0"
         style="opacity:.9;filter:url(#filter3174-1-1);fill:url(#ButtonShadow-9)"
         rx="6"
         ry="6"
         height="85"
         width="86"
         y="7"
         x="5" />
    </g>
    <g
       id="layer2-2-0"
       style="display:none"
       transform="matrix(1.2166 0 0 1.2299 -407.62 -25.04)">
      <rect
         id="rect3745-5-7"
         style="opacity:.9;filter:url(#filter3174-9-5);fill:url(#ButtonShadow-9)"
         rx="6"
         ry="6"
         height="85"
         width="86"
         y="7"
         x="5" />
    </g>
    <g
       id="layer2-8-5"
       style="display:none"
       transform="matrix(1.2166 0 0 1.2299 -250.92 -18.98)">
      <rect
         id="rect3745-8-8"
         style="opacity:.9;filter:url(#filter3174-6-5);fill:url(#ButtonShadow-9)"
         rx="6"
         ry="6"
         height="85"
         width="86"
         y="7"
         x="5" />
    </g>
    <rect
       id="rect3745-05"
       style="opacity:.9;filter:url(#filter3174-1-13);display:none;fill:url(#linearGradient26518)"
       rx="6"
       ry="6"
       height="85"
       width="86"
       y="-5.0468"
       x="337.3" />
    <rect
       id="rect3745-5-4"
       style="opacity:.9;filter:url(#filter3174-9-1);display:none;fill:url(#ButtonShadow-9)"
       rx="6"
       transform="matrix(1.2166 0 0 1.2299 150.03 -32.671)"
       ry="6"
       width="86"
       y="7"
       x="5"
       height="85" />
    <rect
       id="rect3745-8-2"
       style="opacity:.9;filter:url(#filter3174-6-7);display:none;fill:url(#ButtonShadow-9)"
       rx="6"
       transform="matrix(1.2166 0 0 1.2299 306.72 -26.611)"
       ry="6"
       width="86"
       y="7"
       x="5"
       height="85" />
    <rect
       id="rect3745-93"
       style="opacity:.9;filter:url(#filter3174-65);display:none;fill:url(#linearGradient22940)"
       rx="6"
       ry="6"
       height="85"
       width="86"
       y="-156.36"
       x="42.362" />
    <rect
       id="rect892-2-7-2"
       style="stroke:#d3d3d3;stroke-width:9.8448;fill:#37414b"
       transform="scale(-1,1)"
       ry="29.452"
       height="116.16"
       width="116.08"
       y="5.9223"
       x="-122" />
    <rect
       id="rect7020"
       ry=".77369"
       style="opacity:.94973"
       transform="scale(-1)"
       height="1.5474"
       width="113.33"
       y="-40.118"
       x="-120.56" />
    <rect
       id="rect892"
       ry="29.296"
       style="stroke:url(#linearGradient23062);stroke-width:.97385;fill:url(#linearGradient23060)"
       transform="scale(-1,1)"
       height="115.54"
       width="114.22"
       y="5.7505"
       x="-120.89" />
    <path
       id="path1187"
       style="fill:#fff;fill-opacity:.057143"
       d="m90.18 118.13c14.703 4.2693 32.365-19.182 27.577-25.927 0.0428-0.70563 0.0758-1.4237 0.0758-2.1428v-10.61c-25.568 25.25-65.907 34.98-89.23 38.63 0.22189 0.0259 0.45405 0.0302 0.68194 0.0302 41.051-0.38201 23.354 0.0185 60.898 0.0185z" />
    <rect
       id="rect892-2"
       ry="28.993"
       style="stroke:url(#linearGradient23056);stroke-width:.97385;fill:url(#linearGradient23054)"
       transform="scale(-1,1)"
       height="114.35"
       width="114.22"
       y="6.5358"
       x="-120.87" />
    <path
       id="rect2980"
       style="fill:url(#radialGradient23051)"
       d="m120.63 40.269v6.2335 52.158-2.1646c0-0.26503-1.7785 23.982-22.088 23.982h-71.015c-15.587 0-20.113-23.193-20.113-22.01v0.19258-52.158-6.2335h6.2898 100.64z" />
    <path
       id="rect895-7"
       style="fill:url(#linearGradient23048)"
       d="m121 37.54c0.14938-3.1104 0.0893 1.8621 0.0893-1.3764 0-15.229-11.257-27.859-22.45-27.859h-67.435c-15.779-0.0008-24.458 16.444-24.458 25.859v4.0173c33.97-0.21212 35.665-1.0651 114.26-0.64088z" />
    <path
       id="path23079"
       d="m7.2149 37.751-0.2709-9.695 2.7497-5.682c2.9813-6.159 7.2593-10.523 13.785-14.062 4.1033-2.2248 4.6678-2.2561 40.626-2.2561h36.465l5.2813 2.9681c6.5048 3.6558 10.994 8.8364 13.168 15.194 2.2895 6.6978 3.0264 9.4567 0.88751 15.992-54.146-1.308-58.508-0.848-112.7-2.459zm38.658-5.68c0-0.26674-1.4149-2.8182-3.1442-5.67l-3.1442-5.185 3.1442-5.7592c1.7293-3.1676 3.1442-6.0161 3.1442-6.33 0-0.31392-3.011-0.57077-6.6911-0.57077h-6.6911l-3.2489 5.7394-3.2488 5.7394 3.534 3.0106c3.5225 3.0008 4.5764 5.9914 2.3739 6.7363-0.63802 0.21579-0.83358 0.92829-0.4346 1.5833 0.69156 1.1354 14.407 1.8075 14.407 0.70601zm28.581-0.03017c0-0.28333-1.3696-2.9776-3.0436-5.9872l-3.0436-5.4721 3.4783-5.7628 3.4783-5.7628-6.4366-0.29774c-3.5402-0.16376-6.9511 0.13799-7.5798 0.67055-0.62877 0.53256-2.4352 3.3984-4.0144 6.3685l-2.8711 5.4002 3.3478 5.6793 3.3478 5.6793h6.6685c3.6677 0 6.6685-0.23182 6.6685-0.51515zm26.974-4.2349c-1.4713-2.6125-3.0248-5.2248-3.4522-5.8051-0.43635-0.59244 0.71849-3.5744 2.6335-6.8001 1.8759-3.1597 3.4107-5.9474 3.4107-6.1949 0-0.24746-3.0827-0.44992-6.8505-0.44992h-6.8505l-3.5372 6.4179-3.5371 6.4179 3.5192 5.5821 3.5192 5.5821h6.91 6.91zm-82.164-1.25c0-0.55-0.44349-1-0.98554-1-0.54204 0-0.98554 0.45-0.98554 1s0.44349 1 0.98554 1c0.54204 0 0.98554-0.45 0.98554-1zm10.841 0c0-0.55-0.44349-1-0.98554-1-0.54204 0-0.98554 0.45-0.98554 1s0.44349 1 0.98554 1c0.54204 0 0.98554-0.45 0.98554-1zm-13.177-11c0.27231 0 1.4638 0.50257 2.6478 1.1168 2.0303 1.0533 2.059 1.0171 0.5044-0.63674-2.4446-2.6007-4.7895-1.2047-4.6 2.7385l0.15772 3.2814 0.3975-3.25c0.21861-1.7875 0.62029-3.25 0.8926-3.25zm2.3366 3c0-0.55-0.44349-1-0.98554-1-0.54204 0-0.98554 0.45-0.98554 1s0.44349 1 0.98554 1c0.54204 0 0.98554-0.45 0.98554-1z" />
    <path
       id="path3858"
       style="opacity:.7;fill:url(#linearGradient23045)"
       d="m120.63 40.269v6.2335 49.625c-24.898-15.51-66.101-25.96-113.21-26.93v-22.694-6.2335h6.2898 100.64 6.2898z" />
    <path
       id="path3828"
       style="opacity:0.08"
       d="m120.63 40.269v6.2335 52.158-0.19258c0-1.96-1.0097 22.01-24.062 22.01h-65.091c-3.4845 0-24.062-16.584-24.062-20.038v-1.7795-52.158-6.2335h6.2898 100.64zm-4.8647 4.8212h-1.425-100.64-1.425v1.4123 52.158 11.64c0 0.85832 4.5084 5.3564 5.3745 5.3564h80.889c9.8463 0 17.223-10.504 17.223-17.189v-1.7795-50.186z" />
    <path
       id="path3831"
       style="opacity:.2"
       d="m118.82 40.269v6.2335 52.158-2.1646c0-3.0119-0.28093 23.982-21.381 23.982h-64.921c-24.729 0-23.289-28.119-23.289-25.956v4.1367-52.158-6.2335h6.0886 97.418zm-3.0919 3.1655h-2.9967-97.418-2.9968v3.0681 36.381 11.64c0 0.1219-0.11802 22.789 20.201 22.789h64.921c22.453-3.35 17.903-20.764 18.293-36.398v-34.409z" />
    <rect
       id="rect892-2-7-8"
       ry="28.993"
       style="opacity:.83691;stroke:#000;stroke-width:4.8445;fill:none"
       transform="scale(-1,1)"
       height="114.35"
       width="114.22"
       y="6.8381"
       x="-121.06" />
    <rect
       id="rect7866"
       ry="0"
       style="fill-opacity:.45662"
       transform="scale(-1)"
       height="3.2691"
       width="115.58"
       y="-41.062"
       x="-121.23" />
    <path
       id="path3787"
       style="opacity:.6;color:#000000;fill:#fff"
       d="m118.56 39.025v-1h-109.09v1h109.09z" />
    <g
       id="g22942"
       transform="matrix(1.6 0 0 1.6 -53.053 18.792)">
      <path
         id="path3865"
         d="m89.73 17.83c-6.7232-0.22793-13.027 3.8099-16.546 9.3868-2.3552 3.4708-3.5762 7.5146-4.7278 11.501-1.3528 3.8979-3.4221 8.1384-7.4373 9.8389-0.99402 0.57369-2.1398 0.26656-3.1637 0.46093-0.943 0.35207-0.93995 1.4359-0.875 2.2821 0.02198 2.4137-0.04324 4.8479 0.03125 7.2492 0.22868 0.92324 1.2992 1.1591 2.1461 1.0421 5.8139 0.03215 11.232-3.3166 14.478-8.0255 1.6482-2.2957 2.8959-4.8601 3.8448-7.5166 2.8619-0.0216 5.7442 0.0427 8.5938-0.0313 0.8848-0.19827 1.1711-1.1732 1.0312-1.9901-0.02165-2.5111 0.04278-5.0424-0.03125-7.5411-0.19827-0.8848-1.1732-1.1711-1.9901-1.0312h-3.0724c1.2409-3.115 4.5275-5.2082 7.875-5.0312 0.85399-0.19062 1.2509-1.0885 1.0938-1.9136-0.0219-2.5573 0.0431-5.1352-0.0313-7.6801-0.15287-0.52979-0.64433-0.99354-1.2188-1z"
         style="opacity:.1;fill:#fff" />
      <path
         id="path3859"
         style="opacity:.2;fill:#fff"
         d="m89.668 18.58s-3.6888-0.29242-7.9688 1.8438c-4.2799 2.1362-9.2054 6.7291-11.812 16.25-2.0233 7.3888-4.9535 10.567-7.3125 11.969-1.1795 0.70094-2.2264 0.97692-2.9688 1.0625-0.74237 0.08558-1.125 0-1.125 0a0.63438 0.63438 0 0 0 -0.75 0.625v7.8438a0.63438 0.63438 0 0 0 0.5625 0.625s3.3594 0.41038 7.375-1.4062c3.9379-1.7815 8.4931-5.7885 11.312-14.094h8.75a0.63438 0.63438 0 0 0 0.625 -0.625v-7.8438a0.63438 0.63438 0 0 0 -0.625 -0.625h-5c0.24418-0.67303 0.65877-1.6548 1.5625-2.8438 1.3842-1.8211 3.5984-3.6222 7.3125-3.6875a0.63438 0.63438 0 0 0 0.625 -0.625v-7.8438a0.63438 0.63438 0 0 0 -0.5625 -0.625z" />
      <path
         id="path3727"
         d="m89.591 19.205v7.8509c-7.8385 0.13774-9.7649 7.782-9.7649 7.782h5.9121v7.8509h-9.1671c-5.514 17.01-18.201 15.495-18.201 15.495v-7.8509s8.0512 1.4936 12.156-13.498c5.1352-18.753 19.065-17.63 19.065-17.63z"
         style="fill:url(#linearGradient23066)" />
    </g>
  </g>
  <g
     id="g68766"
     transform="matrix(.34188 .074966 -.074966 .34188 65.645 .26852)">
    <rect
       id="rect892-2-7-2-1"
       style="stroke:#d3d3d3;stroke-width:9.8448;fill:#37414b"
       transform="scale(1,-1)"
       ry="29.452"
       height="116.16"
       width="116.08"
       y="-122.08"
       x="5.9224" />
    <rect
       id="rect892-6"
       ry="29.296"
       style="stroke:url(#linearGradient3521);stroke-width:.97385;fill:url(#linearGradient3519)"
       transform="scale(1,-1)"
       height="115.54"
       width="114.22"
       y="-122.25"
       x="7.0394" />
    <rect
       id="rect892-2-2"
       ry="28.993"
       style="stroke:url(#linearGradient3516);stroke-width:.97385;fill:url(#linearGradient3514)"
       transform="scale(1,-1)"
       height="114.35"
       width="114.22"
       y="-121.46"
       x="7.0599" />
    <rect
       id="rect810"
       style="fill:#c1b09a"
       ry="26.957"
       height="111.04"
       width="111.44"
       y="8.1211"
       x="8.145" />
    <path
       id="rect6588"
       style="fill:url(#linearGradient11406)"
       d="m7.2651 40.702c-3.6107-28.823 22.731-33.361 32.668-33.437l55.816 0.735c21.091 2.903 26.611 16.187 24.251 34.728l-112 30.388z" />
    <rect
       id="rect892-2-7-8-2"
       ry="28.993"
       style="opacity:.15891;stroke:#000;stroke-width:4.8445;fill:none"
       transform="scale(1,-1)"
       height="114.35"
       width="114.22"
       y="-121.16"
       x="6.8687" />
    <path
       id="rect5505-21-3"
       style="stroke-linejoin:round;stroke-width:3.9092;color:#000000;stroke:url(#linearGradient69290);stroke-linecap:round;fill:url(#radialGradient69288)"
       d="m36.942 9.0732v110.62c-8.726-0.85-31.23-10.12-28.987-28.427l0.0369-57.542c0.5095-14.175 13.797-24.129 28.95-24.648z" />
    <rect
       id="rect892-2-7-1"
       ry="28.993"
       style="opacity:.15891;stroke:#000;stroke-width:7.7512;fill:none"
       transform="scale(1,-1)"
       height="114.35"
       width="114.22"
       y="-121.16"
       x="6.8687" />
    <rect
       id="rect892-2-7-2-9"
       style="stroke:#000;stroke-width:1.0489;fill:none"
       transform="scale(1,-1)"
       ry="28.067"
       height="112.71"
       width="114.14"
       y="-120.31"
       x="7.0649" />
    <path
       id="path1187-3"
       style="fill:#fff;fill-opacity:.057143"
       d="m33.017 7.2319c-23.707 0-26.027 0.6738-25.93 26.295-0.04334 0.71563-0.07674 1.4439-0.07674 2.1732v32.76c18.67-38.321 38.34-51.497 90.374-61.179-0.225-0.026-0.46-0.0303-0.691-0.0303-41.576 0.3874-25.652-0.0188-63.676-0.0188z" />
    <g
       id="layer2-30"
       style="display:none"
       transform="matrix(1.2166 0 0 1.2299 5.6049 3.1187)">
      <rect
         id="rect3745-12"
         style="opacity:.9;filter:url(#filter3174-39);fill:url(#ButtonShadow-9)"
         rx="6"
         ry="6"
         height="85"
         width="86"
         y="7"
         x="5" />
    </g>
    <g
       id="layer2-6"
       style="display:none"
       transform="matrix(1.2166 0 0 1.2299 5.6049 3.1187)">
      <rect
         id="rect3745-8-6"
         style="opacity:.9;filter:url(#filter3174-7-4);fill:url(#ButtonShadow-9)"
         rx="6"
         ry="6"
         height="85"
         width="86"
         y="7"
         x="5" />
    </g>
    <g
       id="layer2-69"
       style="display:none"
       transform="matrix(1.2166 0 0 1.2299 5.6049 3.1187)">
      <rect
         id="rect3745-4"
         style="opacity:.9;filter:url(#filter3174-0-7);fill:url(#ButtonShadow-9)"
         rx="6"
         ry="6"
         height="85"
         width="86"
         y="7"
         x="5" />
    </g>
    <g
       id="layer2-64"
       style="display:none"
       transform="translate(-349.33 -29.687)">
      <rect
         id="rect3745-6-2"
         style="opacity:.9;filter:url(#filter3174-9-54);fill:url(#ButtonShadow-9)"
         rx="6"
         ry="6"
         height="85"
         width="86"
         y="7"
         x="5" />
    </g>
    <g
       id="layer2-0"
       style="display:none"
       transform="matrix(1.2166 0 0 1.2299 5.6049 3.1187)">
      <rect
         id="rect3745-7-2"
         style="opacity:.9;filter:url(#filter3174-4-0);fill:url(#ButtonShadow-9)"
         rx="6"
         ry="6"
         height="85"
         width="86"
         y="7"
         x="5" />
    </g>
    <g
       id="layer5-3"
       style="display:none"
       transform="matrix(1.2166 0 0 1.2299 5.6049 3.1187)">
      <rect
         id="rect3171-2"
         style="opacity:.1;filter:url(#filter3794-83-6);stroke:#fff;stroke-linecap:round;stroke-width:.5;fill:url(#linearGradient69058)"
         clip-path="url(#clipPath3613-6-4)"
         rx="12"
         ry="12"
         height="66"
         width="66"
         y="15"
         x="15" />
    </g>
    <rect
       id="rect3745-75"
       style="opacity:.9;filter:url(#filter3174-8);display:none;fill:url(#linearGradient5033)"
       rx="6"
       ry="6"
       height="85"
       width="86"
       y="-73.599"
       x="-238.97" />
    <g
       id="layer2-01"
       style="display:none"
       transform="translate(-314.29 59.754)">
      <rect
         id="rect3745-1"
         style="opacity:.9;filter:url(#filter3174-6-6);fill:url(#ButtonShadow-9)"
         rx="6"
         ry="6"
         height="85"
         width="86"
         y="7"
         x="5" />
    </g>
    <g
       id="layer5"
       transform="matrix(1.2166 0 0 1.2299 6.4473 5.646)">
      <rect
         id="rect3171"
         style="opacity:.1;filter:url(#filter3794-4-8);stroke:#fff;stroke-linecap:round;stroke-width:.5;fill:url(#linearGradient69058)"
         clip-path="url(#clipPath3613-72)"
         rx="12"
         ry="12"
         height="66"
         width="66"
         y="15"
         x="15" />
    </g>
    <g
       id="layer4"
       transform="matrix(1.2166 0 0 1.2299 -1.1345 3.5399)">
      <g
         id="g3799">
        <path
           id="path3773"
           d="m10 24c0-2.2091 1.7909-4 4-4s4 1.7909 4 4-1.7909 4-4 4-4-1.7909-4-4zm1 0c0 1.6569 1.3431 3 3 3s3-1.3431 3-3-1.3431-3-3-3-3 1.3431-3 3z"
           style="opacity:.3;fill:url(#linearGradient68869)" />
        <path
           id="path3792"
           d="m6 21v7h8c1.6464 0 3-1.5792 3-3.5 0-1.921-1.354-3.5-3-3.5h-8z"
           style="opacity:.3" />
        <path
           id="path3771"
           style="opacity:.6"
           d="m17 24a3 3 0 1 1 -6 0 3 3 0 1 1 6 0z" />
        <rect
           id="rect3733"
           style="fill:url(#linearGradient68871)"
           rx="2"
           ry="2"
           height="4"
           width="12"
           y="22"
           x="4" />
        <rect
           id="rect3759"
           style="opacity:.6;fill:url(#linearGradient68873)"
           rx="2"
           ry="2"
           height="4"
           width="12"
           y="22"
           x="4" />
      </g>
      <use
         id="use3806"
         xlink:href="#g3799"
         transform="translate(0,12)"
         height="96"
         width="96"
         y="0"
         x="0" />
      <use
         id="use3808"
         xlink:href="#g3799"
         transform="translate(0,24)"
         height="96"
         width="96"
         y="0"
         x="0" />
      <use
         id="use3810"
         xlink:href="#g3799"
         transform="translate(0,36)"
         height="96"
         width="96"
         y="0"
         x="0" />
      <use
         id="use3812"
         xlink:href="#g3799"
         transform="translate(0,48)"
         height="96"
         width="96"
         y="0"
         x="0" />
    </g>
    <g
       id="layer3"
       transform="matrix(1.8248 0 0 1.8449 -19.426 -24.158)">
      <path
         id="path3159"
         d="m53 32c-4.7437 0-8.5455 3.5725-8.5455 8 0.01072 0.47147 0.04591 1.1529 0.0909 1.7273-0.8112 0.34429-0.8704 1.9231-0.18183 3.5455 0.27306 0.64336 0.62083 1.1374 1 1.5455 0.09212 0.45596 0.06797 0.66066 0.18183 1.1818 0.31773 0.9532 1.5704 2.8213 2.7273 4.3636 0.11344 1.1845 0.23112 2.3798 0 3.7273-3.3334 2.7656-11.922 3.9551-11.909 6.8182l-0.182 1.091h33.636l-0.182-1.091c-0.01367-2.4504-8.6165-3.9551-11.909-6.8182-0.13322-1.096-0.15862-2.1932-0.0909-3.2727 1.0542-1.6268 2.4643-3.7565 2.8182-4.8182 0.12719-0.53763 0.17348-0.90072 0.27273-1.3636 0.31588-0.38262 0.58549-0.81538 0.81818-1.3636 0.65415-1.5413 0.61186-3.0126-0.0909-3.4545 0.04144-0.621 0.07265-1.2818 0.0909-1.8182 0-4.426-3.801-7.999-8.545-7.999z"
         style="opacity:.6;fill:url(#linearGradient68954-9)" />
      <path
         id="path4036"
         d="m53 32c-4.7437 0-8.5312 3.5725-8.5312 8 0.01072 0.47147 0.01751 1.1444 0.0625 1.7188-0.8112 0.34429-0.84482 1.9401-0.15625 3.5625 0.27306 0.64336 0.62083 1.1232 1 1.5312 0.09212 0.45596 0.04239 0.66634 0.15625 1.1875 0.31773 0.9532 1.5931 2.8327 2.75 4.375 0.11344 1.1845 0.23112 2.3713 0 3.7188-3.3334 2.7656-11.919 3.9494-11.906 6.8125l-0.187 1.094h33.624l-0.187-1.094c-0.014-2.45-8.614-3.949-11.906-6.812-0.133-1.096-0.162-2.202-0.094-3.282 1.054-1.626 2.49-3.75 2.844-4.812 0.12719-0.53763 0.15075-0.91208 0.25-1.375 0.31588-0.38262 0.57981-0.79549 0.8125-1.3438 0.65415-1.5413 0.64026-3.0268-0.0625-3.4688 0.04144-0.621 0.04425-1.2761 0.0625-1.8125 0-4.4275-3.7875-8-8.5312-8zm0 1.0312c4.2209 0 7.482 3.1052 7.5 6.9375 0.00005 0.01059 0 0.02065 0 0.03125-0.01822 0.55392-0.0247 1.1835-0.0625 1.75a1.0182 1.0182 0 0 0 0.46875 0.9375c0.0046 0.0236 0.08877 0.14539 0.09375 0.46875 0.0066 0.43114-0.12614 1.0588-0.40625 1.7188-0.19634 0.46261-0.39203 0.77369-0.65625 1.0938a1.0182 1.0182 0 0 0 -0.21875 0.4375c-0.11591 0.54065-0.14071 0.88177-0.25 1.3438-0.12623 0.34998-0.52569 1.0868-1.0312 1.9062-0.52185 0.84586-1.1244 1.7731-1.6562 2.5938a1.0182 1.0182 0 0 0 -0.1875 0.5c-0.07154 1.1405-0.01604 2.3084 0.125 3.4688a1.0182 1.0182 0 0 0 0.343 0.656c1.9111 1.6618 4.9296 2.6896 7.4688 3.7188 1.2696 0.51458 2.4039 1.005 3.1562 1.4688 0.37617 0.23187 0.64316 0.4652 0.78125 0.625s0.12495 0.2099 0.125 0.21875a1.0182 1.0182 0 0 0 0.03125 0.0625h-31.25a1.0182 1.0182 0 0 0 0.03125 -0.0625c-0.000922-0.20665 0.1739-0.55441 0.90625-1.0312 0.73235-0.47684 1.863-0.97631 3.125-1.4688 2.5239-0.98488 5.5577-1.9198 7.5-3.5312a1.0182 1.0182 0 0 0 0.34375 -0.59375c0.25768-1.5024 0.11322-2.8178 0-4a1.0182 1.0182 0 0 0 -0.186 -0.531c-0.56708-0.75602-1.1722-1.5916-1.6562-2.3438-0.46002-0.71477-0.79169-1.3201-0.90625-1.625-0.0047-0.0215 0.0039-0.04217 0-0.0625-0.071-0.363-0.045-0.54-0.157-1.094a1.0182 1.0182 0 0 0 -0.25 -0.5c-0.31962-0.34401-0.58978-0.72524-0.8125-1.25-0.29506-0.69521-0.42251-1.3708-0.40625-1.8125 0.01219-0.33126 0.07306-0.43335 0.0625-0.4375a1.0182 1.0182 0 0 0 0.5625 -1c-0.041-0.511-0.021-1.144-0.032-1.625 0-0.0106-0.00005-0.02066 0-0.03125 0.01801-3.8323 3.2791-6.9375 7.5-6.9375z"
         style="opacity:.1" />
      <path
         id="path4049"
         d="m53 32c-4.7437 0-8.5312 3.5725-8.5312 8 0.0031 0.13728 0.02434 0.33493 0.03125 0.5 0.27737-4.1898 3.9389-7.5 8.5-7.5 4.5725 0 8.239 3.3265 8.5 7.5312 0.0075-0.17462 0.0259-0.3739 0.03125-0.53125 0-4.4275-3.7875-8-8.5312-8zm-8.5 9.75c-0.50422 0.2487-0.67779 1.0028-0.5625 1.9375 0.08082-0.47091 0.26263-0.82822 0.59375-0.96875-0.025-0.324-0.014-0.634-0.031-0.969zm17 0.09375c-0.01589 0.32955-0.0091 0.63686-0.03125 0.96875 0.28226 0.1775 0.43316 0.52128 0.5 0.96875 0.12-0.892-0.032-1.63-0.469-1.938zm-3.906 12.781c-0.01517 0.81529 0.0251 1.6469 0.125 2.4688 3.2925 2.8631 11.893 4.3621 11.906 6.8125l0.031 0.094h0.156l-0.187-1.094c-0.014-2.45-8.614-3.949-11.906-6.812-0.059-0.487-0.107-0.984-0.125-1.469zm-9.219 0.219c-0.01445 0.40058-0.02058 0.82339-0.09375 1.25-3.3334 2.7656-11.919 3.9494-11.906 6.8125l-0.187 1.094h0.156l0.031-0.094c-0.01278-2.8631 8.5728-4.0469 11.906-6.8125 0.13587-0.79219 0.12725-1.5343 0.09375-2.25z"
         style="opacity:.2" />
      <path
         id="path4058"
         d="m44.5 40.5c-0.01111 0.16776-0.03125 0.32956-0.03125 0.5 0.0047 0.20577 0.01847 0.49059 0.03125 0.75 0.01373-0.0068 0.01705-0.02522 0.03125-0.03125-0.032-0.407-0.014-0.817-0.031-1.219zm17 0.03125c-0.0181 0.42063-0.002 0.84242-0.03125 1.2812 0.01255 0.0079 0.01912 0.02271 0.03125 0.03125 0.01384-0.28708 0.02275-0.59402 0.03125-0.84375 0-0.15982-0.02148-0.31129-0.03125-0.46875zm-17.562 3.157c-0.11717 0.68276 0.02999 1.6336 0.4375 2.5938 0.27306 0.64336 0.62083 1.1232 1 1.5312 0.09212 0.45596 0.04239 0.66634 0.15625 1.1875 0.31773 0.9532 1.5931 2.8327 2.75 4.375 0.04675 0.48812 0.07027 0.96706 0.09375 1.4688 0.0312-0.86472-0.01623-1.6593-0.09375-2.4688-1.1569-1.5423-2.4323-3.4218-2.75-4.375-0.11386-0.52116-0.06413-0.73154-0.15625-1.1875-0.37917-0.4081-0.72694-0.88788-1-1.5312-0.23418-0.55176-0.37647-1.0989-0.4375-1.5938zm18.031 0.09375c-0.06334 0.46802-0.21634 0.97891-0.4375 1.5-0.23269 0.54826-0.49662 0.96113-0.8125 1.3438-0.09925 0.46292-0.12281 0.83737-0.25 1.375-0.35389 1.0617-1.7896 3.1857-2.8438 4.8125-0.03767 0.6005-0.05374 1.2043-0.03125 1.8125 0.0051-0.2719 0.01431-0.54253 0.03125-0.8125 1.0542-1.6268 2.4899-3.7508 2.8438-4.8125 0.12719-0.53763 0.15075-0.91208 0.25-1.375 0.31588-0.38262 0.57981-0.79549 0.8125-1.3438 0.39141-0.92222 0.53707-1.8334 0.4375-2.5zm-25.625 20.218l-0.15625 1h33.625l-0.15625-1h-33.312z"
         style="opacity:.15;fill:#fff" />
      <path
         id="path4067"
         d="m53 32c-4.7437 0-8.5455 3.5725-8.5455 8 0.01072 0.47147 0.04591 1.1529 0.0909 1.7273-0.8112 0.34429-0.8704 1.9231-0.18183 3.5455 0.27306 0.64336 0.62083 1.1374 1 1.5455 0.09212 0.45596 0.06797 0.66066 0.18183 1.1818 0.31773 0.9532 1.5704 2.8213 2.7273 4.3636 0.11344 1.1845 0.23112 2.3798 0 3.7273-3.3334 2.7656-11.922 3.9551-11.909 6.8182l-0.182 1.091h33.636l-0.182-1.091c-0.01367-2.4504-8.6165-3.9551-11.909-6.8182-0.13322-1.096-0.15862-2.1932-0.0909-3.2727 1.0542-1.6268 2.4643-3.7565 2.8182-4.8182 0.12719-0.53763 0.17348-0.90072 0.27273-1.3636 0.31588-0.38262 0.58549-0.81538 0.81818-1.3636 0.65415-1.5413 0.61186-3.0126-0.0909-3.4545 0.04144-0.621 0.07265-1.2818 0.0909-1.8182 0-4.426-3.801-7.999-8.545-7.999z"
         style="opacity:.15;filter:url(#filter4128-3);stroke:#fff;stroke-width:3;fill:none"
         clip-path="url(#clipPath4124-2)" />
    </g>
    <rect
       id="rect3650"
       style="opacity:.15;fill:#fff"
       height="112.16"
       width="1.2166"
       y="8.528"
       x="37.488" />
    <rect
       id="rect3648"
       style="opacity:.4"
       height="112.16"
       width="1.2166"
       y="8.528"
       x="36.271" />
  </g>
  <path
     id="path41839"
     style="fill:url(#linearGradient65727)"
     d="m5.176 35.874 117.31 0.34504v53.481c0.16803 26.511-15.951 32.43-35.539 33.469h-40.37c-29.873-0.21-41.203-5.78-41.405-33.47z" />
  <path
     style="fill:#ffffff;stroke:none"
     d="M 63.28125 46.96875 C 54.534983 47.166931 45.904057 50.744405 39.625 56.84375 C 32.927338 63.349718 28.996077 72.631447 29 81.96875 C 29.06435 91.09047 32.870772 100.13511 39.34375 106.5625 C 45.816728 112.98989 54.877948 116.71875 64 116.71875 C 73.122052 116.71875 82.183272 112.98989 88.65625 106.5625 C 95.129228 100.13511 98.935646 91.09047 99 81.96875 C 99.003792 72.975234 95.388624 64.01628 89.125 57.5625 C 82.861376 51.10872 74.02096 47.233954 65.03125 46.96875 C 64.447915 46.95157 63.864334 46.955538 63.28125 46.96875 z M 64 57.84375 L 67 57.84375 L 67 93.84375 L 64 93.84375 L 64 86.59375 L 64 80.59375 L 64 57.84375 z M 85.875 57.84375 L 88 59.96875 L 75.125 72.84375 L 72.125 75.84375 L 75.125 78.84375 L 88 91.71875 L 85.875 93.84375 L 84.90625 92.875 C 84.956555 93.188857 85 93.515281 85 93.84375 C 85 97.167745 82.323995 99.84375 79 99.84375 C 75.676005 99.84375 73 97.167745 73 93.84375 C 73 90.519755 75.676005 87.84375 79 87.84375 C 79.328469 87.84375 79.654893 87.887195 79.96875 87.9375 L 73 80.96875 L 70 77.96875 L 70 73.71875 L 73 70.71875 L 85.875 57.84375 z M 55 60.84375 C 56.661997 60.84375 58 62.181753 58 63.84375 C 58 65.505747 56.661997 66.84375 55 66.84375 C 53.338003 66.84375 52 65.505747 52 63.84375 C 52 62.181753 53.338003 60.84375 55 60.84375 z M 44.5 72.84375 C 46.992996 72.84375 49 74.850754 49 77.34375 C 49 79.836746 46.992996 81.84375 44.5 81.84375 C 42.007004 81.84375 40 79.836746 40 77.34375 C 40 74.850754 42.007004 72.84375 44.5 72.84375 z M 47.5 87.84375 C 49.992996 87.84375 52 89.850754 52 92.34375 C 52 94.836746 49.992996 96.84375 47.5 96.84375 C 45.007004 96.84375 43 94.836746 43 92.34375 C 43 89.850754 45.007004 87.84375 47.5 87.84375 z M 62.5 96.84375 C 64.992996 96.84375 67 98.850754 67 101.34375 C 67 103.83675 64.992996 105.84375 62.5 105.84375 C 60.007004 105.84375 58 103.83675 58 101.34375 C 58 98.850754 60.007004 96.84375 62.5 96.84375 z "
     id="path41841" />
  <rect
     id="rect41871-7"
     style="fill:#5e96c3"
     height="2.2428"
     width="11.128"
     y="41.397"
     x="41.29" />
  <rect
     id="rect41871"
     height="2.2428"
     width="11.128"
     y="40.618"
     x="41.319" />
  <rect
     id="rect41851"
     style="fill:url(#linearGradient41925)"
     height="19.495"
     width="8.626"
     y="22.618"
     x="42.465" />
  <rect
     id="rect41851-3"
     style="fill:url(#linearGradient41933)"
     height="19.495"
     width="8.626"
     y="22.331"
     x="73.666" />
  <path
     id="path41907"
     style="fill:url(#linearGradient41915)"
     d="m42.465 22.632 39.853-0.259-8.713-7.504-22.552-0.242z" />
</svg>
