<?xml version="1.0" encoding="UTF-8" standalone="no"?>
<!-- Created with Inkscape (http://www.inkscape.org/) -->

<svg
   xmlns:dc="http://purl.org/dc/elements/1.1/"
   xmlns:cc="http://creativecommons.org/ns#"
   xmlns:rdf="http://www.w3.org/1999/02/22-rdf-syntax-ns#"
   xmlns:svg="http://www.w3.org/2000/svg"
   xmlns="http://www.w3.org/2000/svg"
   xmlns:sodipodi="http://sodipodi.sourceforge.net/DTD/sodipodi-0.dtd"
   xmlns:inkscape="http://www.inkscape.org/namespaces/inkscape"
   id="svg3449"
   height="128"
   width="128"
   version="1.0"
   inkscape:version="0.48.5 r10040"
   sodipodi:docname="preferences-desktop-peripherals.svg">
  <sodipodi:namedview
     pagecolor="#ffffff"
     bordercolor="#666666"
     borderopacity="1"
     objecttolerance="10"
     gridtolerance="10"
     guidetolerance="10"
     inkscape:pageopacity="0"
     inkscape:pageshadow="2"
     inkscape:window-width="640"
     inkscape:window-height="480"
     id="namedview120413" />
  <metadata
     id="metadata56">
    <rdf:RDF>
      <cc:Work
         rdf:about="">
        <dc:format>image/svg+xml</dc:format>
        <dc:type
           rdf:resource="http://purl.org/dc/dcmitype/StillImage" />
        <dc:title />
      </cc:Work>
    </rdf:RDF>
  </metadata>
  <defs
     id="defs3451">
    <linearGradient
       id="linearGradient3514"
       y2="-9.1034"
       gradientUnits="userSpaceOnUse"
       x2="66.492"
       gradientTransform="matrix(.96826 0 0 .97948 2.179 .16587)"
       y1="-42.638"
       x1="67.952">
      <stop
         id="stop4620"
         style="stop-color:#37414b"
         offset="0" />
      <stop
         id="stop4622"
         style="stop-color:#37414b;stop-opacity:0"
         offset="1" />
    </linearGradient>
    <linearGradient
       id="linearGradient3516"
       y2="-11.847"
       gradientUnits="userSpaceOnUse"
       x2="58.98"
       gradientTransform="matrix(.96826 0 0 .97948 2.179 .16587)"
       y1="-118.55"
       x1="57.173">
      <stop
         id="stop4596"
         offset="0" />
      <stop
         id="stop4598"
         style="stop-opacity:0"
         offset="1" />
    </linearGradient>
    <linearGradient
       id="linearGradient3519"
       y2="50.369"
       gradientUnits="userSpaceOnUse"
       x2="76.558"
       gradientTransform="matrix(.96826 0 0 .97948 3.2423 -129.19)"
       y1="13.164"
       x1="76.558">
      <stop
         id="stop3392"
         style="stop-color:#425e7b"
         offset="0" />
      <stop
         id="stop3394"
         style="stop-color:#7a91a7"
         offset="1" />
    </linearGradient>
    <linearGradient
       id="linearGradient3521"
       y2="-8.7399"
       gradientUnits="userSpaceOnUse"
       x2="60.217"
       gradientTransform="matrix(.96826 0 0 .97948 2.179 .16587)"
       y1="-123.72"
       x1="60.395">
      <stop
         id="stop3392-4-8"
         style="stop-color:#425e7b"
         offset="0" />
      <stop
         id="stop3394-8-0"
         style="stop-color:#7a91a7"
         offset="1" />
    </linearGradient>
    <radialGradient
       id="radialGradient3349"
       gradientUnits="userSpaceOnUse"
       cy="45.647"
       cx="42.148"
       gradientTransform="matrix(.94690 0 0 1.139 3.5954 -29.89)"
       r="58.984">
      <stop
         id="stop2699-5"
         style="stop-color:#86b3e0"
         offset="0" />
      <stop
         id="stop2701-7"
         style="stop-color:#649ad6"
         offset="1" />
    </radialGradient>
    <linearGradient
       id="linearGradient4994"
       y2="24.836"
       gradientUnits="userSpaceOnUse"
       x2="35.655"
       gradientTransform="matrix(1.21 0 0 1.21 -16.943 -25.583)"
       y1="91.1"
       x1="97.893">
      <stop
         id="stop4077-9-3"
         style="stop-color:#6e92c6"
         offset="0" />
      <stop
         id="stop4079-0-0"
         style="stop-color:#afc2df"
         offset="1" />
    </linearGradient>
  </defs>
  <rect
     id="rect892"
     style="stroke:url(#linearGradient3521);stroke-width:.97385;fill:url(#linearGradient3519)"
     transform="scale(1,-1)"
     ry="29.296"
     height="115.54"
     width="114.22"
     y="-122.25"
     x="7.0394" />
  <rect
     id="rect892-2"
     style="stroke:url(#linearGradient3516);stroke-width:.97385;fill:url(#linearGradient3514)"
     transform="scale(1,-1)"
     ry="28.993"
     height="114.35"
     width="114.22"
     y="-121.46"
     x="7.0599" />
  <path
     id="rect895"
     style="fill:url(#radialGradient3349)"
     d="m32.054 8.0073c-5.375-3.0188-24.691 12.952-24.656 22.291-0.050142 0.97378-0.088772 1.9648-0.088772 2.9572v52.419c0 17.901 8.3725 33.859 22.318 33.859h67.038c11.555 0 24.318-12.823 24.318-25.859v-63.518c-6.47-11.658-5.44-15-25.926-22.617-47.846 0.865-19.014 0.4713-63 0.4713z" />
  <rect
     id="rect892-2-7-8"
     style="opacity:.15891;stroke:#000;stroke-width:4.8445;fill:none"
     transform="scale(1,-1)"
     ry="28.993"
     height="114.35"
     width="114.22"
     y="-121.16"
     x="6.8687" />
  <rect
     id="rect892-2-7-1"
     style="opacity:.15891;stroke:#000;stroke-width:7.7512;fill:none"
     transform="scale(1,-1)"
     ry="28.993"
     height="114.35"
     width="114.22"
     y="-121.16"
     x="6.8687" />
  <rect
     id="rect892-2-7-2-9"
     ry="28.067"
     style="stroke:#000;stroke-width:1.0489;fill:none"
     transform="scale(1,-1)"
     height="112.71"
     width="114.14"
     y="-120.31"
     x="7.0649" />
  <path
     id="path11807"
     style="stroke:#fff;stroke-opacity:.31604;fill:#fff"
     d="m25.659 39.085c25.191-0.009 50.382-0.006 75.57-0.003-0.021 10.638-0.021 21.276 0 31.914-25.188 0.003-50.376 0.006-75.564-0.003 0.018-10.635 0.024-21.273-0.006-31.908m4.599 12.225c1.917-0.003 3.834 0 5.754 0-0.015-1.887-0.003-3.771-0.009-5.658-1.911 0.006-3.819 0.012-5.727-0.003-0.024 1.887 0 3.774-0.018 5.661m7.641-5.652c0 1.881 0.006 3.765-0.006 5.646 1.89 0.009 3.78 0 5.67 0.006-0.018-1.887 0-3.774-0.015-5.658-1.884 0.012-3.768 0.003-5.649 0.006m7.542 0.003c-0.012 1.869 0.027 3.738-0.027 5.607 1.899 0.087 3.798 0.018 5.697 0.042-0.018-1.884-0.006-3.771-0.012-5.655-1.887 0.006-3.771-0.003-5.658 0.006m7.596-0.006c-0.006 1.884 0.009 3.771-0.012 5.655 1.878-0.003 3.753 0 5.628 0-0.027-1.887-0.006-3.771-0.012-5.655-1.869 0.003-3.738 0.003-5.604 0m7.53 5.655c1.89-0.006 3.777 0.006 5.667-0.009-0.015-1.881-0.006-3.762-0.006-5.643-1.875-0.012-3.75 0.027-5.622-0.027-0.066 1.893-0.003 3.786-0.039 5.679m7.551 0c1.887-0.003 3.774 0 5.658-0.003-0.015-1.884-0.006-3.768-0.006-5.652-1.881 0.003-3.762 0.006-5.64-0.003-0.009 1.887 0.006 3.771-0.012 5.658m7.554-5.655c0 1.884 0.009 3.768-0.006 5.655 1.887-0.003 3.774-0.003 5.661 0-0.021-1.887-0.006-3.771-0.009-5.658-1.881 0.009-3.762 0.006-5.646 0.003m7.548 0.003c-0.003 1.881 0.003 3.765-0.006 5.646 1.887 0.009 3.774 0 5.664 0.006-0.024-1.884-0.006-3.771-0.012-5.658-1.884 0.012-3.765 0.003-5.646 0.006m7.587-0.003c-0.006 1.884 0.015 3.768-0.015 5.652 1.878 0.003 3.756 0 5.631 0.003-0.024-1.887-0.009-3.771-0.009-5.655-1.869 0.003-3.738 0.003-5.607 0m-60.549 7.044c0.012 1.863 0.009 3.726 0.003 5.589 1.914-0.003 3.828-0.009 5.742 0.003 0.003-1.866 0-3.732 0.003-5.598-1.917 0.009-3.831 0-5.748 0.006m7.638 0c0.006 1.86 0.006 3.723 0 5.586 1.887 0.003 3.774-0.003 5.664 0.003-0.006-1.863-0.009-3.726 0-5.592-1.887 0-3.777 0-5.664 0.003m7.542 0.009c0.003 1.857 0.003 3.711 0 5.565 1.89 0.024 3.78 0.006 5.67 0.015-0.009-1.866-0.012-3.729 0-5.592-1.89 0.006-3.78-0.012-5.67 0.012m7.59-0.012c0.015 1.863 0.012 3.726 0 5.592 1.872-0.006 3.747-0.003 5.622-0.003-0.015-1.863-0.018-3.726 0.003-5.589h-5.625m7.542 0c0.012 1.863 0.012 3.729 0 5.592 1.887-0.006 3.774-0.003 5.658-0.003-0.003-1.863-0.003-3.726 0-5.589h-5.658m7.554-0.003c0.003 1.866 0.006 3.732 0 5.598 1.881-0.009 3.765-0.009 5.649 0-0.006-1.866-0.006-3.732 0-5.598-1.884 0.003-3.765 0.006-5.649 0m7.548 0c0.003 1.866 0.003 3.732 0 5.598 1.881-0.009 3.765-0.012 5.649 0-0.006-1.866-0.009-3.732 0-5.598-1.884 0.006-3.768 0.006-5.649 0m7.545 0.003c0.003 1.863 0.003 3.726 0 5.592 1.884-0.003 3.771-0.006 5.658 0-0.012-1.863-0.015-3.729 0-5.592-1.884 0-3.771 0.003-5.658 0m7.578 0.003c0.018 1.86 0.015 3.723 0.003 5.586 1.875 0 3.747-0.003 5.622 0.003-0.012-1.863-0.015-3.729 0-5.592-1.875 0-3.75 0-5.625 0.003m-60.534 12.717c1.917-0.006 3.834-0.003 5.751-0.003-0.015-1.884-0.003-3.768-0.009-5.652-1.905 0-3.81 0.018-5.712-0.012-0.057 1.887-0.009 3.777-0.03 5.667m7.638-5.652c-0.003 1.881 0.006 3.762-0.006 5.646 1.887 0.009 3.777-0.003 5.667 0.006-0.012-1.884 0.003-3.771-0.012-5.658-1.884 0.012-3.765 0.006-5.649 0.006m7.605-0.015c-0.117 1.887-0.081 3.783-0.021 5.673 1.875-0.018 3.75-0.006 5.625-0.006-0.015-1.884-0.003-3.768-0.009-5.652-1.863-0.006-3.729 0.015-5.595-0.015m7.533 0.012c-0.003 1.884 0.009 3.768-0.012 5.655 6.918-0.006 13.836 0 20.751-0.003-0.012-1.884-0.006-3.768-0.006-5.649-6.912 0-13.821 0.003-20.733-0.003m22.635 0.003c0 1.881 0.009 3.765-0.006 5.649 1.887 0 3.774 0 5.661 0.003-0.018-1.887-0.009-3.771-0.009-5.655-1.881 0.006-3.765 0.003-5.646 0.003m7.545 0c0 1.881 0.009 3.759-0.006 5.64 1.887 0.021 3.777 0.003 5.664 0.012-0.018-1.887-0.003-3.771-0.012-5.658-1.881 0.012-3.762 0.006-5.646 0.006m7.59 0c-0.003 1.884 0.012 3.765-0.012 5.649 1.875 0 3.75-0.003 5.628 0.003-0.021-1.884-0.009-3.768-0.012-5.652h-5.604z" />
  <rect
     id="rect4161"
     style="stroke-opacity:.31604;stroke:#fff;stroke-width:3;fill:#fff"
     ry="5.6395"
     height="22.558"
     width="27.492"
     y="77.597"
     x="49.698" />
  <path
     id="path4935"
     style="stroke:url(#linearGradient4994);stroke-width:1.21;fill:#fff"
     d="m69.273 75.447c-0.0032 0.34851 0.01928 0.6742 0.07563 1.0209 0.2662 2.7013 1.8332 5.2393 4.1216 6.6928 1.8256 1.1994 4.0838 1.6123 6.2391 1.3612 6.4886 6.4992 12.982 13.017 19.473 19.511 0.88179 0.90145 2.0812 1.3915 3.3275 1.5125 1.688 0.12553 3.4243-0.57627 4.4997-1.8906 0.81523-0.94835 1.2387-2.2068 1.3234-3.441-0.1089-1.3779-0.58685-2.7573-1.5881-3.7434-3.4213-3.4334-6.8562-6.8577-10.285-10.285-3.0068-2.9811-5.9865-6.0243-9.0372-8.9616 0.0484-0.80314 0.23595-1.6138 0.11344-2.42-0.17999-2.42-1.3144-4.7523-3.1762-6.3147-1.7046-1.4444-3.9355-2.2204-6.1634-2.1931-1.086 0.06352-2.1508 0.32519-3.1762 0.68062 0.04386 0.1331 0.08773 0.24351 0.18906 0.34031 1.7303 1.6486 3.3986 3.3562 5.1047 5.0291 0.80768 0.76835 0.81978 2.1992 0.03781 2.9872-0.77742 0.77894-1.5654 1.5322-2.3444 2.3066-0.78801 0.77742-2.1871 0.76532-2.9494-0.03781-1.7424-1.7575-3.4878-3.4848-5.2181-5.2559-0.30288 0.99599-0.55783 2.0551-0.56719 3.1006zm31.006 25.183c-0.0447-0.5874 0.0616-1.199 0.37813-1.7016 0.49761-0.86363 1.4626-1.3824 2.4578-1.3613 1.0285 0 2.0283 0.59895 2.4956 1.5125 0.45527 0.92112 0.44015 2.1175-0.18905 2.9494-0.5203 0.71845-1.4021 1.2176-2.3066 1.1722-1.2297 0.0619-2.4336-0.81978-2.7603-2.0041-0.0442-0.1883-0.0607-0.37138-0.0756-0.56718z" />
</svg>
