<?xml version="1.0" encoding="UTF-8" standalone="no"?>
<!-- Created with Inkscape (http://www.inkscape.org/) -->

<svg
   xmlns:dc="http://purl.org/dc/elements/1.1/"
   xmlns:cc="http://creativecommons.org/ns#"
   xmlns:rdf="http://www.w3.org/1999/02/22-rdf-syntax-ns#"
   xmlns:svg="http://www.w3.org/2000/svg"
   xmlns="http://www.w3.org/2000/svg"
   xmlns:sodipodi="http://sodipodi.sourceforge.net/DTD/sodipodi-0.dtd"
   xmlns:inkscape="http://www.inkscape.org/namespaces/inkscape"
   id="svg3449"
   height="128"
   width="128"
   version="1.0"
   inkscape:version="0.48.5 r10040"
   sodipodi:docname="preferences-desktop-online-accounts.svg">
  <sodipodi:namedview
     pagecolor="#ffffff"
     bordercolor="#666666"
     borderopacity="1"
     objecttolerance="10"
     gridtolerance="10"
     guidetolerance="10"
     inkscape:pageopacity="0"
     inkscape:pageshadow="2"
     inkscape:window-width="640"
     inkscape:window-height="480"
     id="namedview120381" />
  <metadata
     id="metadata56">
    <rdf:RDF>
      <cc:Work
         rdf:about="">
        <dc:format>image/svg+xml</dc:format>
        <dc:type
           rdf:resource="http://purl.org/dc/dcmitype/StillImage" />
        <dc:title />
      </cc:Work>
    </rdf:RDF>
  </metadata>
  <defs
     id="defs3451">
    <linearGradient
       id="linearGradient3514"
       y2="-9.1034"
       gradientUnits="userSpaceOnUse"
       x2="66.492"
       gradientTransform="matrix(.96826 0 0 .97948 2.179 .16587)"
       y1="-42.638"
       x1="67.952">
      <stop
         id="stop4620"
         style="stop-color:#37414b"
         offset="0" />
      <stop
         id="stop4622"
         style="stop-color:#37414b;stop-opacity:0"
         offset="1" />
    </linearGradient>
    <linearGradient
       id="linearGradient3516"
       y2="-11.847"
       gradientUnits="userSpaceOnUse"
       x2="58.98"
       gradientTransform="matrix(.96826 0 0 .97948 2.179 .16587)"
       y1="-118.55"
       x1="57.173">
      <stop
         id="stop4596"
         offset="0" />
      <stop
         id="stop4598"
         style="stop-opacity:0"
         offset="1" />
    </linearGradient>
    <linearGradient
       id="linearGradient3519"
       y2="50.369"
       gradientUnits="userSpaceOnUse"
       x2="76.558"
       gradientTransform="matrix(.96826 0 0 .97948 3.2423 -129.19)"
       y1="13.164"
       x1="76.558">
      <stop
         id="stop3392"
         style="stop-color:#425e7b"
         offset="0" />
      <stop
         id="stop3394"
         style="stop-color:#7a91a7"
         offset="1" />
    </linearGradient>
    <linearGradient
       id="linearGradient3521"
       y2="-8.7399"
       gradientUnits="userSpaceOnUse"
       x2="60.217"
       gradientTransform="matrix(.96826 0 0 .97948 2.179 .16587)"
       y1="-123.72"
       x1="60.395">
      <stop
         id="stop3392-4-8"
         style="stop-color:#425e7b"
         offset="0" />
      <stop
         id="stop3394-8-0"
         style="stop-color:#7a91a7"
         offset="1" />
    </linearGradient>
    <radialGradient
       id="radialGradient3349"
       gradientUnits="userSpaceOnUse"
       cy="45.647"
       cx="42.148"
       gradientTransform="matrix(.94690 0 0 1.139 3.5954 -29.89)"
       r="58.984">
      <stop
         id="stop7494"
         style="stop-color:#cedae6"
         offset="0" />
      <stop
         id="stop7496"
         style="stop-color:#a2bce6"
         offset="1" />
    </radialGradient>
    <linearGradient
       id="linearGradient7473"
       y2="42.885"
       gradientUnits="userSpaceOnUse"
       y1="25.706"
       gradientTransform="matrix(5.1424 0 0 2.4467 -74.543 -31.41)"
       x2="26.607"
       x1="26.607">
      <stop
         id="stop3739-21-1"
         style="stop-color:#fff"
         offset="0" />
      <stop
         id="stop3741-12-6"
         style="stop-color:#fff;stop-opacity:0"
         offset="1" />
    </linearGradient>
  </defs>
  <rect
     id="rect892"
     style="stroke:url(#linearGradient3521);stroke-width:.97385;fill:url(#linearGradient3519)"
     transform="scale(1,-1)"
     ry="29.296"
     height="115.54"
     width="114.22"
     y="-122.25"
     x="7.0394" />
  <rect
     id="rect892-2"
     style="stroke:url(#linearGradient3516);stroke-width:.97385;fill:url(#linearGradient3514)"
     transform="scale(1,-1)"
     ry="28.993"
     height="114.35"
     width="114.22"
     y="-121.46"
     x="7.0599" />
  <path
     id="rect895"
     style="fill:url(#radialGradient3349)"
     d="m33.051 7.2596c-7.969-2.4493-27.013 15.174-25.653 23.038-0.050142 0.97378-0.088772 1.9648-0.088772 2.9572v52.419c0 20.876 10.712 33.859 22.318 33.859h67.038c12.638 0 24.318-11.245 24.318-25.859v-64.017c0.7-10.928-21.283-24.659-25.926-22.618-47.846 0.8653-18.017 0.2236-62.003 0.2236z" />
  <path
     id="rect3786"
     style="opacity:.7;fill:url(#linearGradient7473)"
     d="m7.7355 37.099v33.26c32.73-5.333 71.148-9.264 113.13-11.24v-22.021c0.30122-8.6491-6.7379-29.834-28.283-30h-28.283-28.283c-21.177 2.0408-27.617 14.065-28.283 30z" />
  <rect
     id="rect892-2-7-8"
     style="opacity:.15891;stroke:#000;stroke-width:4.8445;fill:none"
     transform="scale(1,-1)"
     ry="28.993"
     height="114.35"
     width="114.22"
     y="-121.16"
     x="6.8687" />
  <rect
     id="rect892-2-7-1"
     style="opacity:.15891;stroke:#000;stroke-width:7.7512;fill:none"
     transform="scale(1,-1)"
     ry="28.993"
     height="114.35"
     width="114.22"
     y="-121.16"
     x="6.8687" />
  <rect
     id="rect892-2-7-2-9"
     ry="28.067"
     style="stroke:#000;stroke-width:1.0489;fill:none"
     transform="scale(1,-1)"
     height="112.71"
     width="114.14"
     y="-120.31"
     x="7.0649" />
  <path
     id="path1187"
     style="fill:#fff;fill-opacity:.057143"
     d="m33.017 7.2319c-23.707 0-26.027 0.6738-25.93 26.295-0.04334 0.71563-0.07674 1.4439-0.07674 2.1732v32.76c18.67-38.321 38.34-51.497 90.374-61.179-0.225-0.026-0.46-0.0303-0.691-0.0303-41.576 0.3874-25.652-0.0188-63.676-0.0188z" />
  <path
     id="path3798-0"
     style="opacity:.80439;enable-background:new;fill:#030507"
     d="m63.81 24.614c-8.0344 0-14.548 6.0257-14.548 13.459 0.01933 0.85184 0.03188 1.8245 0.12121 2.884-1.2715 0.67189-1.4372 3.2994-0.30308 5.9483 0.43734 1.0214 1.0338 1.8514 1.6366 2.5235 0.01999 0.02255 0.0404 0.03809 0.06063 0.05999 0.14389 0.69987 0.25031 1.2534 0.4243 2.0428 0.53904 1.603 2.7665 4.6181 4.728 7.2101 0.19564 1.9995 0.21166 3.9743-0.18187 6.2487-5.6458 4.643-20.085 6.7294-20.064 11.536l-1.9397 12.497c0 2.5605 3.8588 4.9049 10.001 6.489l0.84861 3.4248a2.1125 2.094 0 0 0 1.3335 1.3819c0.27264 0.10456 0.46506 0.3257 1.2123 0.54076 3.9362 1.1328 9.9298 1.9227 16.669 1.9227 6.7393 0 12.793-0.7899 16.73-1.9227 0.74724-0.21506 0.93965-0.43624 1.2123-0.54076a2.1125 2.094 0 0 0 1.2729 -1.3218l1.0305-3.605c5.9926-1.5816 9.8196-3.8444 9.8196-6.3689l-1.939-12.498c-0.023-4.114-14.548-6.729-20.124-11.536-0.22574-1.8412-0.23617-3.6541-0.12128-5.4676 1.7833-2.7268 4.1312-6.2166 4.728-7.9911 0.21932-0.919 0.3146-1.5541 0.48492-2.3433 0.52663-0.63803 1.0054-1.3753 1.3941-2.2832 1.0771-2.5155 0.9765-4.9513-0.12121-5.768 0.07673-1.093 0.14977-2.1301 0.18184-3.0643 0.000009-7.4331-6.5132-13.459-14.548-13.459z" />
  <path
     id="path3798-2"
     style="opacity:.80439;enable-background:new;fill:#b9ceec"
     d="m64.8 24.614c-8.0344 0-14.548 6.0257-14.548 13.459 0.01933 0.85184 0.03188 1.8245 0.12121 2.884-1.2715 0.67189-1.4372 3.2994-0.30308 5.9483 0.43734 1.0214 1.0338 1.8514 1.6366 2.5235 0.01999 0.02255 0.0404 0.03809 0.06063 0.05999 0.14389 0.69987 0.25031 1.2534 0.4243 2.0428 0.53904 1.603 2.7665 4.6181 4.728 7.2101 0.19564 1.9995 0.21166 3.9743-0.18187 6.2487-5.6458 4.643-20.085 6.7294-20.064 11.536l-1.9397 12.497c0 2.5605 3.8588 4.9049 10.001 6.489l0.84861 3.4248a2.1125 2.094 0 0 0 1.3335 1.3819c0.27264 0.10456 0.46506 0.3257 1.2123 0.54076 3.9362 1.1328 9.9298 1.9227 16.669 1.9227 6.7393 0 12.793-0.7899 16.73-1.9227 0.74724-0.21506 0.93965-0.43624 1.2123-0.54076a2.1125 2.094 0 0 0 1.2729 -1.3218l1.0305-3.605c5.9926-1.5816 9.8196-3.8444 9.8196-6.3689l-1.9397-12.497c-0.02285-4.1139-14.548-6.7294-20.124-11.536-0.22574-1.8412-0.23617-3.6541-0.12128-5.4676 1.7833-2.7268 4.1312-6.2166 4.728-7.9911 0.21932-0.919 0.3146-1.5541 0.48492-2.3433 0.52663-0.63803 1.0054-1.3753 1.3941-2.2832 1.0771-2.5155 0.9765-4.9513-0.12121-5.768 0.07673-1.093 0.14977-2.1301 0.18184-3.0643 0.000009-7.4331-6.5132-13.459-14.548-13.459z" />
  <path
     id="path3798"
     style="opacity:.80439;enable-background:new;fill:#3a5782"
     d="m63.803 24.115c-8.0344 0-14.548 6.0257-14.548 13.459 0.01933 0.85184 0.03188 1.8245 0.12121 2.884-1.2715 0.67189-1.4372 3.2994-0.30308 5.9483 0.43734 1.0214 1.0338 1.8514 1.6366 2.5235 0.01999 0.02255 0.0404 0.03809 0.06063 0.05999 0.14389 0.69987 0.25031 1.2534 0.4243 2.0428 0.53904 1.603 2.7665 4.6181 4.728 7.2101 0.19564 1.9995 0.21166 3.9743-0.18187 6.2487-5.6458 4.643-20.085 6.7294-20.064 11.536l-1.939 12.498c0 2.5605 3.8588 4.9049 10.001 6.489l0.84861 3.4248a2.1125 2.094 0 0 0 1.3335 1.3819c0.27264 0.10456 0.46506 0.3257 1.2123 0.54076 3.9362 1.1328 9.9298 1.9227 16.669 1.9227 6.7393 0 12.793-0.7899 16.73-1.9227 0.74724-0.21506 0.93965-0.43624 1.2123-0.54076a2.1125 2.094 0 0 0 1.2729 -1.3218l1.0305-3.605c5.993-1.582 9.82-3.845 9.82-6.369l-1.939-12.497c-0.023-4.114-14.548-6.73-20.124-11.537-0.226-1.841-0.237-3.654-0.122-5.467 1.784-2.727 4.132-6.217 4.728-7.991 0.21932-0.919 0.3146-1.5541 0.48492-2.3433 0.52663-0.63803 1.0054-1.3753 1.3941-2.2832 1.0771-2.5155 0.9765-4.9513-0.12121-5.768 0.07673-1.093 0.14977-2.1301 0.18184-3.0643 0.000009-7.4331-6.5132-13.459-14.548-13.459z" />
  <path
     id="path3748"
     style="fill:#333"
     d="m42.549 107.48c0.03349 2.4 0.04608 4.7998 0.0437 7.2h1.0927c-0.0043-2.4-0.01826-4.8-0.03746-7.2h-1.099zm1.867 0c0.01104 2.4 0.01214 4.8 0.03746 7.2h0.47455c-0.01258-2.4-0.02381-4.8-0.03746-7.2h-0.47455zm1.8982 0c0.1873 2.399 0.06367 4.7999 0.03122 7.2h1.7046c-0.000116-2.4-0.0046-4.8-0.01872-7.2h-1.7171-0.00001zm3.0783 0c0.02009 2.4 0.01068 4.8 0.03122 7.2h1.1114c0.000127-1.919-0.01032-4.7495-0.02497-7.2h-1.1177zm2.5601 0c-0.0334 0.6357-0.03211 2.6101 0.0062 7.2h0.41835c0.01553-1.8877 0.000999-4.7332-0.02497-7.2h-0.39962 0.000011 0.000085-0.000065zm2.4539 0c0.0062 2.4 0.0095 4.8 0.03746 7.2h0.38089c0.02583-2.4 0.01894-4.8 0.01258-7.2h-0.43084-0.000069-0.000017zm1.8607 0c0.01758 2.4 0.01553 4.8 0.04996 7.2h1.099c-0.02819-2.4-0.04757-4.8-0.06243-7.2h-1.0865-0.000015zm2.4914 0c0.0034 2.4 0.01483 4.8 0.04996 7.2h0.44333c-0.0114-2.4-0.03428-4.8-0.04371-7.2h-0.44958zm1.8607 0.00001c0.02288 2.6536 0.04073 5.8422 0.04369 7.1085 0.000087 0.0363-0.000107 0.0562 0 0.0915h1.7421c-0.01596-2.4-0.0352-4.8-0.06242-7.2h-1.7234zm2.5788-0.00001c0.0077 2.4 0.01356 4.8 0.03746 7.2h1.0615c-0.003-2.4-0.01214-4.8-0.02497-7.2h-1.074zm1.9045 0c-0.0096 2.4-0.0092 4.8 0 7.2h1.0802c0.0048-2.4-0.01414-4.8-0.03746-7.2h-1.0428zm1.892 0c0.01596 2.4 0.01711 4.8 0.04369 7.2h1.049c-0.0219-2.4-0.04353-4.8-0.06242-7.2h-1.0303zm3.1033 0c0.0077 2.4 0.03248 4.8 0.04996 7.2h1.074c-0.0096-2.4-0.0082-4.8-0.01871-7.2h-1.1052-0.000011-0.000019zm3.172 0c0.02772 2.3999-0.02258 4.8001 0.01871 7.2h0.46206c-0.0037-2.4-0.02797-4.8-0.05619-7.2h-0.4246 0.000011zm1.2238 0c0.03424 2.4 0.03204 4.8 0.06242 7.2h0.39962c0.0137-1.8355 0.0085-4.71-0.0062-7.2h-0.45582-0.000009-0.000066 0.00006zm2.5913 0c0.0082 2.9981 0.03434 6.1014 0.0687 7.2h1.0553c-0.000398-2.4-0.02008-4.8-0.03124-7.2h-1.0927zm3.1845 0c0.02954 2.4 0.02054 4.8 0.0437 7.2h0.43709c-0.0114-2.4-0.03298-4.8-0.0437-7.2h-0.43709zm1.2426 0c0.02167 2.4 0.04225 4.8 0.05618 7.2h1.7171c-0.02145-2.4-0.03097-4.8-0.03746-7.2h-1.7359 0.00001zm2.5414 0c0.01258 2.4 0.04067 4.8 0.05618 7.2h1.636c0.0066-1.9208 0.003-4.7461-0.0062-7.2h-1.6859-0.00001-0.000061 0.000053z" />
</svg>
