<?xml version="1.0" encoding="UTF-8" standalone="no"?>
<!-- Created with Inkscape (http://www.inkscape.org/) -->

<svg
   xmlns:dc="http://purl.org/dc/elements/1.1/"
   xmlns:cc="http://creativecommons.org/ns#"
   xmlns:rdf="http://www.w3.org/1999/02/22-rdf-syntax-ns#"
   xmlns:svg="http://www.w3.org/2000/svg"
   xmlns="http://www.w3.org/2000/svg"
   xmlns:sodipodi="http://sodipodi.sourceforge.net/DTD/sodipodi-0.dtd"
   xmlns:inkscape="http://www.inkscape.org/namespaces/inkscape"
   id="svg11037"
   height="96"
   width="96"
   version="1.1"
   inkscape:version="0.48.5 r10040"
   sodipodi:docname="emblem-money2.svg">
  <sodipodi:namedview
     pagecolor="#ffffff"
     bordercolor="#666666"
     borderopacity="1"
     objecttolerance="10"
     gridtolerance="10"
     guidetolerance="10"
     inkscape:pageopacity="0"
     inkscape:pageshadow="2"
     inkscape:window-width="640"
     inkscape:window-height="480"
     id="namedview136919" />
  <defs
     id="defs11039">
    <linearGradient
       id="linearGradient11642"
       y2="1046.1"
       gradientUnits="userSpaceOnUse"
       y1="962.62"
       gradientTransform="matrix(1.15 0 0 1.15 -7.1999 -150.65)"
       x2="48"
       x1="48">
      <stop
         id="stop3189-4"
         style="stop-color:#c8c8c8"
         offset="0" />
      <stop
         id="stop3191-0"
         style="stop-color:#e6e6e6"
         offset="1" />
    </linearGradient>
    <clipPath
       id="clipPath3009"
       clipPathUnits="userSpaceOnUse">
      <path
         id="path3011"
         style="opacity:.15;fill:#fff"
         d="m-2 956.36h-96v33.562l96 25.687v-59.25z" />
    </clipPath>
    <clipPath
       id="clipPath3748"
       clipPathUnits="userSpaceOnUse">
      <path
         id="path3750"
         style="opacity:.2;color:#000000;fill:#f00"
         d="m-100-74v96h96v-96h-96zm43.875 12h8.25v7.9062c9.6098 1.7249 14.464 7.4347 14.562 17.094h-13.062c-0.000029-1.8727-0.54084-3.411-1.625-4.5938-1.0842-1.232-2.5648-1.8437-4.4375-1.8438-1.4785 0.000043-2.7596 0.41226-3.8438 1.25-1.2321 0.8871-1.8438 2.0528-1.8438 3.5312-0.000017 1.8727 2.2341 3.6814 6.7188 5.4062 6.5544 2.4148 10.739 4.2812 12.562 5.5625 4.4846 3.0062 6.7187 7.1332 6.7188 12.406-0.000043 4.6817-1.4807 8.5828-4.4375 11.688-2.8091 2.9076-6.5815 4.7427-11.312 5.5312v8.0625h-8.25v-7.9055c-4.8296-0.59138-8.6465-2.3556-11.406-5.3125-2.7598-3.0062-4.1959-6.9649-4.3438-11.844l13.374 0.063c0.04926 1.7741 0.6742 3.1839 1.9062 4.2188s2.7703 1.5625 4.5938 1.5625c1.577 0.000009 2.9422-0.39899 4.125-1.1875 1.3798-0.83777 2.0937-1.9903 2.0938-3.4688-0.00003-2.1684-2.221-4.0612-6.6562-5.6875-6.6037-2.4148-10.717-4.2103-12.344-5.3438-4.4353-2.9569-6.6563-7.1547-6.6562-12.625-0.000004-4.4846 1.4361-8.257 4.3438-11.312 2.809-2.9075 6.4841-4.6586 10.969-5.25v-7.9062z" />
    </clipPath>
    <filter
       id="filter3752"
       color-interpolation-filters="sRGB">
      <feGaussianBlur
         id="feGaussianBlur3754"
         stdDeviation="0.89827519" />
    </filter>
    <linearGradient
       id="linearGradient3981"
       x1="13"
       gradientUnits="userSpaceOnUse"
       y1="2"
       gradientTransform="matrix(4,0,0,4,4,-70)"
       x2="13"
       y2="20">
      <stop
         id="stop4490"
         style="stop-color:#323232"
         offset="0" />
      <stop
         id="stop4492"
         style="stop-color:#787878"
         offset="1" />
    </linearGradient>
  </defs>
  <metadata
     id="metadata11042">
    <rdf:RDF>
      <cc:Work
         rdf:about="">
        <dc:format>image/svg+xml</dc:format>
        <dc:type
           rdf:resource="http://purl.org/dc/dcmitype/StillImage" />
        <dc:title />
      </cc:Work>
    </rdf:RDF>
  </metadata>
  <g
     id="layer1"
     transform="translate(0 -956.36)">
    <rect
       id="rect3867"
       style="fill:url(#linearGradient11642)"
       rx="25"
       ry="25"
       height="92"
       width="92"
       y="958.36"
       x="2" />
    <g
       id="g3039"
       transform="translate(-1.1468e-7 1030.4)">
      <text
         id="text3736"
         style="opacity:.2;font-size:73.922px;stroke-width:4;filter:url(#filter3752);stroke:#ffffff;font-family:Biohazard Participants;line-height:100%;fill:none"
         clip-path="url(#clipPath3748)"
         xml:space="preserve"
         transform="translate(100)"
         y="-0.71868134"
         x="-75.433266"><tspan
           id="tspan3738"
           y="-0.71868134"
           x="-75.433266"
           style="stroke:#ffffff;stroke-width:4;fill:none">$</tspan></text>
      <path
         id="path3104"
         style="fill:url(#linearGradient3981)"
         d="m52.14 1.9425v8.0575h-8.279v-7.9097c-4.83-0.5913-8.625-2.3654-11.385-5.3223-2.759-3.0062-4.213-6.949-4.361-11.828l13.38 0.07392c0.04926 1.7741 0.68992 3.1787 1.922 4.2136 1.232 1.0349 2.7597 1.5524 4.5832 1.5524 1.577 0.0000085 2.9569-0.39424 4.1396-1.1828 1.3798-0.83777 2.0698-1.9959 2.0698-3.4743-0.00003-2.1684-2.2177-4.0657-6.653-5.692-6.6037-2.4148-10.719-4.1889-12.345-5.3224-4.4353-2.9569-6.653-7.1704-6.653-12.641-0.000004-4.4846 1.4538-8.2546 4.3614-11.31 2.809-2.9075 6.4558-4.657 10.94-5.2485v-7.9097h8.2793v7.9097c9.6098 1.7249 14.464 7.4169 14.563 17.076h-13.084c-0.000029-1.8727-0.54212-3.4004-1.6263-4.5832-1.0842-1.232-2.5627-1.848-4.4353-1.848-1.4785 0.000042-2.7598 0.41893-3.8439 1.2567-1.2321 0.8871-1.8481 2.0699-1.848 3.5483-0.000017 1.8727 2.2423 3.6715 6.7269 5.3963 6.5544 2.4148 10.743 4.2629 12.567 5.5441 4.4846 3.0062 6.7269 7.1458 6.7269 12.419-0.000043 4.6817-1.4785 8.575-4.4353 11.68-2.8091 2.9076-6.5791 4.7556-11.31 5.5441" />
      <path
         id="text3756"
         d="m43.875 12v7.9062c-4.4846 0.59143-8.1597 2.3425-10.969 5.25-2.9076 3.0555-4.3438 6.8279-4.3438 11.312-0.000004 5.4703 2.2209 9.6681 6.6562 12.625 1.6263 1.1335 5.74 2.929 12.344 5.3438 4.4353 1.6263 6.6562 3.5191 6.6562 5.6875-0.00003 1.4785-0.7139 2.631-2.0938 3.4688-1.1828 0.78851-2.548 1.1875-4.125 1.1875-1.8234 0.000009-3.3617-0.52758-4.5938-1.5625-1.231-1.034-1.856-2.444-1.905-4.218l-13.375-0.062c0.14784 4.8789 1.584 8.8376 4.3438 11.844 2.7597 2.9569 6.5767 4.7211 11.406 5.3125v7.9062h8.25v-8.0625c4.731-0.7885 8.5034-2.6237 11.312-5.5312 2.9568-3.1047 4.4375-7.0058 4.4375-11.688-0.000043-5.2731-2.2342-9.4001-6.7188-12.406-1.8234-1.2813-6.0081-3.1477-12.562-5.5625-4.4846-1.7248-6.7188-3.5335-6.7188-5.4062-0.000017-1.4784 0.6117-2.6441 1.8438-3.5312 1.0842-0.83774 2.3653-1.25 3.8438-1.25 1.8727 0.000043 3.3533 0.61176 4.4375 1.8438 1.0842 1.1828 1.625 2.7211 1.625 4.5938h13.062c-0.098-9.66-4.952-15.37-14.562-17.095v-7.9062h-8.25zm2 2h4.25v5.9062a2.0013 2.0013 0 0 0 1.6562 1.9688c4.4847 0.80497 7.5868 2.4759 9.6562 4.9062 1.7133 2.0121 2.596 4.8241 2.9375 8.2188h-9.0938c-0.302-1.453-0.803-2.826-1.781-3.906-0.0098-0.0111-0.02142-0.02023-0.03125-0.03125-1.4636-1.6419-3.6132-2.4999-5.9062-2.5-1.8263 0.000053-3.5735 0.54374-5 1.625-0.01881 0.01426-0.0438 0.01681-0.0625 0.03125l0.031 0.031c-1.619 1.1925-2.6563 3.0863-2.6562 5.0938-0.000016 1.7321 1.0538 3.1974 2.4375 4.3125s3.2054 2.0622 5.5625 2.9688a2.0013 2.0013 0 0 0 0.03125 0c6.5 2.395 10.701 4.334 12.094 5.313a2.0013 2.0013 0 0 0 0.03125 0.03125c4.0363 2.7057 5.8437 6.0421 5.8438 10.75-0.000039 4.2598-1.2654 7.5724-3.875 10.312-2.4794 2.5663-5.8143 4.2034-10.219 4.9375a2.0013 2.0013 0 0 0 -1.656 1.969v6.0625h-4.25v-5.9062a2.0013 2.0013 0 0 0 -1.75 -2c-4.479-0.549-7.785-2.113-10.187-4.688-1.979-2.163-3.001-5.043-3.438-8.468l9.438 0.062c0.39308 1.4434 1.0353 2.7822 2.1875 3.75 1.6037 1.3471 3.6656 2.0313 5.875 2.0312 1.8754 0.00001 3.6608-0.49935 5.1562-1.4688 0.01164-0.0075 0.01965-0.02365 0.03125-0.03125 0.01908-0.01176 0.04355-0.0193 0.0625-0.03125v-0.031c1.7518-1.1132 2.9687-3.016 2.9688-5.0938-0.000024-1.7674-0.97922-3.3706-2.375-4.5625s-3.2419-2.1376-5.5938-3c-6.555-2.3969-10.734-4.3299-11.875-5.125a2.0013 2.0013 0 0 0 -0.03125 0c-3.9645-2.643-5.7813-6.0401-5.7812-10.969-0.000004-4.0573 1.2138-7.2395 3.7812-9.9375 2.482-2.569 5.6637-4.1132 9.7812-4.6562a2.0013 2.0013 0 0 0 1.75 -1.9688v-5.907z"
         style="opacity:.1"
         transform="translate(0,-74)" />
      <path
         id="path3983"
         d="m43.875 12v7.906c-4.485 0.592-8.16 2.343-10.969 5.25-2.907 3.056-4.344 6.828-4.344 11.313 0 5.47 2.221 9.668 6.657 12.625 1.626 1.133 5.74 2.929 12.343 5.344 4.436 1.626 6.657 3.519 6.657 5.687 0 1.478-0.714 2.631-2.094 3.469-1.183 0.788-2.548 1.187-4.125 1.187-1.823 0-3.362-0.527-4.594-1.562s-1.857-2.445-1.906-4.219l-13.375-0.062c0.148 4.878 1.584 8.837 4.344 11.843 2.759 2.957 6.576 4.721 11.406 5.313v7.906h8.25v-8.062c4.731-0.789 8.503-2.624 11.313-5.532 2.956-3.104 4.437-7.006 4.437-11.687 0-5.273-2.234-9.4-6.719-12.407-1.823-1.281-6.008-3.147-12.562-5.562-4.485-1.725-6.719-3.534-6.719-5.406 0-1.479 0.612-2.644 1.844-3.532 1.084-0.837 2.365-1.249 3.843-1.25 1.873 0.001 3.354 0.612 4.438 1.844 1.084 1.183 1.625 2.721 1.625 4.594h13.063c-0.099-9.659-4.953-15.369-14.563-17.094v-7.906h-8.25zm1.094 1.094h6.062v6.812a1.1092 1.1092 0 0 0 0.907 1.094c4.627 0.831 7.958 2.57 10.187 5.188 2.031 2.385 3.088 5.66 3.313 9.718h-10.907c-0.19-1.605-0.661-3.084-1.687-4.218-0.01-0.012-0.022-0.021-0.032-0.032-1.293-1.449-3.151-2.187-5.25-2.187-1.669 0-3.227 0.466-4.5 1.437-0.012 0.009-0.018 0.022-0.031 0.032-1.441 1.054-2.25 2.637-2.25 4.406 0 1.377 0.797 2.605 2.063 3.625s3.038 1.925 5.344 2.812a1.1092 1.1092 0 0 0 0.031 0c6.524 2.404 10.727 4.324 12.312 5.438 4.236 2.839 6.25 6.54 6.25 11.5 0 4.438-1.403 8.007-4.156 10.906-2.626 2.718-6.137 4.46-10.687 5.219a1.1092 1.1092 0 0 0 -0.907 1.094v6.968h-6.062v-6.812a1.1092 1.1092 0 0 0 -0.969 -1.094c-4.635-0.568-8.157-2.224-10.719-4.969-2.343-2.553-3.62-5.876-3.937-10l11.281 0.063c0.265 1.556 0.87 2.966 2.063 3.968 1.438 1.208 3.275 1.813 5.312 1.813 1.764 0 3.383-0.433 4.75-1.344l-0.031-0.031c1.597-0.986 2.593-2.555 2.593-4.375 0-1.463-0.763-2.792-2.031-3.875s-3.051-2.003-5.343-2.844c-6.577-2.405-10.737-4.273-12.094-5.218a1.1092 1.1092 0 0 0 0 -0.032c-4.175-2.783-6.188-6.517-6.188-11.687 0-4.239 1.355-7.678 4.063-10.531 2.628-2.72 6.031-4.373 10.312-4.938a1.1092 1.1092 0 0 0 0.938 -1.094v-6.812z"
         style="opacity:.2"
         transform="translate(0,-74)" />
      <path
         id="path3996"
         d="m43.875 12v1h8.25v-1h-8.25zm0 7.906c-4.485 0.592-8.16 2.343-10.969 5.25-2.907 3.056-4.344 6.828-4.344 11.313 0 0.192 0.026 0.373 0.032 0.562 0.093-4.29 1.501-7.92 4.312-10.875 2.809-2.907 6.484-4.658 10.969-5.25v-1zm8.25 0v1c9.273 1.665 14.114 7.042 14.531 16.094h0.032c-0.099-9.659-4.953-15.369-14.563-17.094zm-10.219 15.906c-0.019 0.176-0.031 0.347-0.031 0.532 0 1.872 2.234 3.681 6.719 5.406 6.554 2.415 10.739 4.281 12.562 5.562 4.331 2.904 6.539 6.858 6.688 11.876 0.003-0.158 0.031-0.309 0.031-0.469 0-5.273-2.234-9.4-6.719-12.407-1.823-1.281-6.008-3.147-12.562-5.562-4.131-1.589-6.361-3.223-6.688-4.938zm-13.781 23.126c0.01 0.342 0.039 0.666 0.063 1l13.312 0.062c0.049 1.774 0.674 3.184 1.906 4.219s2.771 1.562 4.594 1.562c1.577 0 2.942-0.399 4.125-1.187 1.38-0.838 2.094-1.991 2.094-3.469 0-0.136-0.014-0.273-0.031-0.406-0.166 1.196-0.875 2.154-2.063 2.875-1.183 0.788-2.548 1.187-4.125 1.187-1.823 0-3.362-0.527-4.594-1.562s-1.857-2.445-1.906-4.219l-13.375-0.062z"
         style="opacity:.3"
         transform="translate(0,-74)" />
      <path
         id="path4005"
         d="m47.562 30.562c-1.478 0.001-2.759 0.413-3.843 1.25-1.232 0.888-1.844 2.053-1.844 3.532 0 0.117 0.014 0.258 0.031 0.375 0.156-1.185 0.763-2.151 1.813-2.907 1.084-0.837 2.365-1.249 3.843-1.25 1.873 0.001 3.354 0.612 4.438 1.844 1.084 1.183 1.625 2.721 1.625 4.594h13.063c-0.004-0.339-0.017-0.671-0.032-1h-13.031c0-1.873-0.541-3.411-1.625-4.594-1.084-1.232-2.565-1.843-4.438-1.844zm-18.968 6.469c-0.003 0.147-0.032 0.289-0.032 0.438 0 5.47 2.221 9.668 6.657 12.625 1.626 1.133 5.74 2.929 12.343 5.344 4.118 1.509 6.331 3.241 6.626 5.218 0.021-0.175 0.031-0.346 0.031-0.531 0-2.168-2.221-4.061-6.657-5.687-6.603-2.415-10.717-4.211-12.343-5.344-4.28-2.853-6.475-6.87-6.625-12.063zm39.25 22.157c-0.098 4.469-1.551 8.219-4.406 11.218-2.81 2.908-6.582 4.743-11.313 5.532v1c4.731-0.789 8.503-2.624 11.313-5.532 2.956-3.104 4.437-7.006 4.437-11.687 0-0.181-0.026-0.353-0.031-0.531zm-39.719 0.75c0.148 4.878 1.584 8.837 4.344 11.843 2.759 2.957 6.576 4.721 11.406 5.313v-1c-4.83-0.592-8.647-2.356-11.406-5.313-2.566-2.795-3.974-6.429-4.281-10.843h-0.063zm15.75 24.062v1h8.25v-1h-8.25z"
         style="opacity:.5;fill:#fff"
         transform="translate(0,-74)" />
    </g>
    <rect
       id="rect3003"
       style="opacity:.15;fill:#fff"
       clip-path="url(#clipPath3009)"
       rx="25"
       ry="25"
       transform="translate(98)"
       width="92"
       y="958.36"
       x="-96"
       height="92" />
  </g>
</svg>
