<?xml version="1.0" encoding="UTF-8" standalone="no"?>
<!-- Created with Inkscape (http://www.inkscape.org/) -->

<svg
   xmlns:dc="http://purl.org/dc/elements/1.1/"
   xmlns:cc="http://creativecommons.org/ns#"
   xmlns:rdf="http://www.w3.org/1999/02/22-rdf-syntax-ns#"
   xmlns:svg="http://www.w3.org/2000/svg"
   xmlns="http://www.w3.org/2000/svg"
   xmlns:sodipodi="http://sodipodi.sourceforge.net/DTD/sodipodi-0.dtd"
   xmlns:inkscape="http://www.inkscape.org/namespaces/inkscape"
   id="svg11037"
   height="96"
   width="96"
   version="1.1"
   inkscape:version="0.48.5 r10040"
   sodipodi:docname="emblem-personal.svg">
  <sodipodi:namedview
     pagecolor="#ffffff"
     bordercolor="#666666"
     borderopacity="1"
     objecttolerance="10"
     gridtolerance="10"
     guidetolerance="10"
     inkscape:pageopacity="0"
     inkscape:pageshadow="2"
     inkscape:window-width="640"
     inkscape:window-height="480"
     id="namedview137281" />
  <defs
     id="defs11039">
    <linearGradient
       id="linearGradient11642"
       y2="1046.1"
       gradientUnits="userSpaceOnUse"
       y1="962.62"
       gradientTransform="matrix(1.15 0 0 1.15 -7.1999 -150.65)"
       x2="48"
       x1="48">
      <stop
         id="stop3189-4"
         style="stop-color:#c8c8c8"
         offset="0" />
      <stop
         id="stop3191-0"
         style="stop-color:#e6e6e6"
         offset="1" />
    </linearGradient>
    <clipPath
       id="clipPath3009"
       clipPathUnits="userSpaceOnUse">
      <path
         id="path3011"
         style="opacity:.15;fill:#fff"
         d="m-2 956.36h-96v33.562l96 25.687v-59.25z" />
    </clipPath>
    <filter
       id="filter3951"
       color-interpolation-filters="sRGB">
      <feGaussianBlur
         id="feGaussianBlur3953"
         stdDeviation="0.98454545" />
    </filter>
    <linearGradient
       id="linearGradient3915"
       y2="80"
       gradientUnits="userSpaceOnUse"
       x2="56"
       y1="16"
       x1="56">
      <stop
         id="stop3906"
         style="stop-color:#323232"
         offset="0" />
      <stop
         id="stop3908"
         style="stop-color:#787878"
         offset="1" />
    </linearGradient>
  </defs>
  <metadata
     id="metadata11042">
    <rdf:RDF>
      <cc:Work
         rdf:about="">
        <dc:format>image/svg+xml</dc:format>
        <dc:type
           rdf:resource="http://purl.org/dc/dcmitype/StillImage" />
        <dc:title />
      </cc:Work>
    </rdf:RDF>
  </metadata>
  <g
     id="layer1"
     transform="translate(0 -956.36)">
    <rect
       id="rect3867"
       style="fill:url(#linearGradient11642)"
       rx="25"
       ry="25"
       height="92"
       width="92"
       y="958.36"
       x="2" />
    <g
       id="layer4"
       transform="translate(1.2628e-7 956.36)">
      <path
         id="path3949"
         style="opacity:.2;filter:url(#filter3951);stroke:#fff;stroke-width:4;fill:none"
         d="m48 16c-9.4874 0-17.091 7.1451-17.091 16 0.0214 0.94293 0.09185 2.3059 0.18182 3.4545-1.6224 0.68857-1.7408 3.8461-0.36364 7.0909 0.54611 1.2867 1.2417 2.2747 2 3.0909 0.18426 0.91192 0.13591 1.3213 0.36364 2.3636 0.63546 1.9064 3.1408 5.6427 5.4545 8.7273 0.22688 2.3689 0.46223 4.7596 0 7.4545-6.6668 5.5312-23.844 7.9102-23.818 13.636l-0.364 2.182h67.272l-0.363-2.182c-0.028-4.901-17.233-7.91-23.818-13.636-0.267-2.192-0.318-4.387-0.182-6.546 2.108-3.253 4.928-7.513 5.636-9.636 0.25438-1.0753 0.34696-1.8014 0.54545-2.7273 0.63176-0.76525 1.171-1.6308 1.6364-2.7273 1.3083-3.0826 1.2237-6.0252-0.1818-6.9091 0.08287-1.242 0.14531-2.5635 0.1818-3.6364 0-8.855-7.604-16-17.091-16z" />
      <path
         id="path3159"
         style="fill:url(#linearGradient3915)"
         d="m48 16c-9.4874 0-17.091 7.1451-17.091 16 0.0214 0.94293 0.09185 2.3059 0.18182 3.4545-1.6224 0.68857-1.7408 3.8461-0.36364 7.0909 0.54611 1.2867 1.2417 2.2747 2 3.0909 0.18426 0.91192 0.13591 1.3213 0.36364 2.3636 0.63546 1.9064 3.1408 5.6427 5.4545 8.7273 0.22688 2.3689 0.46223 4.7596 0 7.4545-6.6668 5.5312-23.844 7.9102-23.818 13.636l-0.364 2.182h67.272l-0.363-2.182c-0.028-4.901-17.233-7.91-23.818-13.636-0.267-2.192-0.318-4.387-0.182-6.546 2.108-3.253 4.928-7.513 5.636-9.636 0.25438-1.0753 0.34696-1.8014 0.54545-2.7273 0.63176-0.76525 1.171-1.6308 1.6364-2.7273 1.3083-3.0826 1.2237-6.0252-0.1818-6.9091 0.08287-1.242 0.14531-2.5635 0.1818-3.6364 0-8.855-7.604-16-17.091-16z" />
      <path
         id="path3921"
         style="opacity:.1"
         d="m48 16c-9.4874 0-17.094 7.1451-17.094 16 0.0214 0.94293 0.09753 2.3201 0.1875 3.4688-1.6224 0.68857-1.7522 3.8177-0.375 7.0625 0.54611 1.2867 1.2417 2.2776 2 3.0938 0.18426 0.91192 0.14728 1.3327 0.375 2.375 0.63546 1.9064 3.1238 5.6341 5.4375 8.7188 0.22688 2.3689 0.46223 4.7738 0 7.4688-6.6668 5.5312-23.838 7.8988-23.812 13.625l-0.345 2.186h67.25l-0.34375-2.1875c-0.02733-4.9008-17.227-7.8988-23.812-13.625-0.26644-2.192-0.32293-4.4035-0.1875-6.5625 2.1083-3.2535 4.9172-7.5016 5.625-9.625 0.25438-1.0753 0.36401-1.7929 0.5625-2.7188 0.63176-0.76525 1.1596-1.6535 1.625-2.75 1.3083-3.0826 1.218-6.0224-0.1875-6.9062 0.08287-1.242 0.151-2.5522 0.1875-3.625 0-8.8549-7.6063-16-17.094-16zm0 2.1562c8.3862 0 14.901 6.1847 14.938 13.781 0.00005 0.01059-0.000025 0.02065 0 0.03125-0.000318 0.0092 0.000322 0.02198 0 0.03125-0.0359 1.0317-0.10754 2.2703-0.1875 3.4688a2.1469 2.1469 0 0 0 0.9375 1.9375c0.0033 0.03549 0.16999 0.28542 0.1875 0.90625 0.02335 0.82777-0.19868 2.076-0.75 3.375-0.40019 0.94292-0.82619 1.6297-1.3125 2.2188a2.1469 2.1469 0 0 0 -0.4375 0.9375c-0.20213 0.94281-0.3171 1.6047-0.53125 2.5312-0.23572 0.6793-1.0522 2.2443-2.0625 3.9062-1.0263 1.6882-2.2536 3.5534-3.3125 5.1875a2.1469 2.1469 0 0 0 -0.345 1.031c-0.1435 2.2876-0.06418 4.6099 0.21875 6.9375a2.1469 2.1469 0 0 0 0.71875 1.375c3.8509 3.3486 9.8931 5.4428 14.969 7.5 2.5378 1.0286 4.8195 2.0172 6.3125 2.9375 0.74652 0.46014 1.2977 0.91232 1.5625 1.2188 0.26479 0.30643 0.21883 0.35835 0.21875 0.34375a2.1469 2.1469 0 0 0 0 0.03125h-62.25a2.1469 2.1469 0 0 0 0 -0.03125c-0.0016-0.35802 0.32989-1.0238 1.7812-1.9688 1.4514-0.94499 3.7281-1.9222 6.25-2.9062 5.0437-1.9682 11.085-3.846 15-7.0938a2.1469 2.1469 0 0 0 0.75 -1.2812c0.51872-3.0244 0.22659-5.6966 0-8.0625a2.1469 2.1469 0 0 0 -0.407 -1.064c-2.243-2.99-4.697-6.922-5.094-8.063-0.151-0.76-0.138-1.169-0.344-2.187a2.1469 2.1469 0 0 0 -0.53125 -1.0312c-0.61418-0.66104-1.1489-1.4206-1.5938-2.4688-0.58215-1.3716-0.79143-2.6947-0.75-3.5312 0.03108-0.62744 0.16936-0.78988 0.125-0.78125a2.1469 2.1469 0 0 0 1.1562 -2.0625c-0.085-1.09-0.134-2.438-0.156-3.314 0-0.0212-0.000101-0.04132 0-0.0625 0.037-7.597 6.552-13.782 14.938-13.782z" />
      <path
         id="path3917"
         style="opacity:.2"
         d="m48 16c-9.4874 0-17.094 7.1451-17.094 16 0.0214 0.94293 0.09753 2.3201 0.1875 3.4688-1.6224 0.68857-1.7522 3.8177-0.375 7.0625 0.54611 1.2867 1.2417 2.2776 2 3.0938 0.18426 0.91192 0.14728 1.3327 0.375 2.375 0.63546 1.9064 3.1238 5.6341 5.4375 8.7188 0.22688 2.3689 0.46223 4.7738 0 7.4688-6.6668 5.5312-23.838 7.8988-23.812 13.625l-0.345 2.186h67.25l-0.34375-2.1875c-0.02733-4.9008-17.227-7.8988-23.812-13.625-0.26644-2.192-0.32293-4.4035-0.1875-6.5625 2.1083-3.2535 4.9172-7.5016 5.625-9.625 0.25438-1.0753 0.36401-1.7929 0.5625-2.7188 0.63176-0.76525 1.1596-1.6535 1.625-2.75 1.3083-3.0826 1.218-6.0224-0.1875-6.9062 0.08287-1.242 0.151-2.5522 0.1875-3.625 0-8.8549-7.6063-16-17.094-16zm0 1.0312c8.9576 0 16.044 6.6884 16.062 14.938 0.000023 0.01053 0 0.02071 0 0.03125-0.03621 1.0527-0.10605 2.3418-0.1875 3.5625a1.0325 1.0325 0 0 0 0.47 0.937c0.27452 0.17263 0.627 0.7443 0.65625 1.7812s-0.23905 2.419-0.84375 3.8438c-0.43403 1.0226-0.90695 1.8195-1.4688 2.5a1.0325 1.0325 0 0 0 -0.21875 0.4375c-0.20003 0.93304-0.29787 1.6267-0.53125 2.625-0.0059 0.02519-0.0252 0.03691-0.03125 0.0625-0.30196 0.87724-1.1309 2.4072-2.1562 4.0938-1.0408 1.7121-2.2873 3.5885-3.3438 5.2188a1.0325 1.0325 0 0 0 -0.15625 0.5c-0.13931 2.2208-0.08687 4.4928 0.1875 6.75a1.0325 1.0325 0 0 0 0.34375 0.65625c3.5611 3.0966 9.5542 5.2445 14.656 7.3125 2.551 1.034 4.8895 2.0386 6.5 3.0312 0.80522 0.49633 1.433 0.96707 1.8125 1.4062 0.3795 0.43918 0.49827 0.7828 0.5 1.0938a1.0325 1.0325 0 0 0 0 0.15625l0.15625 1h-64.812l0.15625-1a1.0325 1.0325 0 0 0 0 -0.15625c-0.0041-0.91524 0.72669-1.8737 2.3125-2.9062s3.8951-2.0391 6.4375-3.0312c5.0849-1.9842 11.075-3.9088 14.688-6.9062a1.0325 1.0325 0 0 0 0.375 -0.59375c0.4894-2.8534 0.22674-5.3825 0-7.75a1.0325 1.0325 0 0 0 -0.21875 -0.53125c-2.2605-3.0137-4.7028-6.7543-5.25-8.3125-0.0054-0.02472 0.0051-0.0385 0-0.0625-0.0027-0.0079-0.02865-0.02344-0.03125-0.03125-0.18311-0.88176-0.15015-1.3231-0.34375-2.2812a1.0325 1.0325 0 0 0 -0.25 -0.46875c-0.689-0.741-1.315-1.64-1.813-2.812-0.637-1.502-0.896-2.968-0.844-4.031 0.053-1.064 0.385-1.559 0.688-1.688a1.0325 1.0325 0 0 0 0.625 -1.031c-0.088-1.119-0.166-2.465-0.187-3.375-0.000198-0.0084 0.000189-0.02293 0-0.03125 0.018-8.249 7.104-14.938 16.062-14.938z" />
      <path
         id="path3931"
         style="opacity:.3"
         d="m48 16c-9.4874 0-17.094 7.1451-17.094 16 0.0033 0.14445 0.02578 0.36937 0.03125 0.53125 0.268-8.633 7.747-15.531 17.063-15.531s16.795 6.898 17.062 15.531c0.007-0.167 0.026-0.374 0.032-0.531 0-8.855-7.607-16-17.094-16zm-16.969 19.5c-0.92516 0.4417-1.3211 1.7113-1.2188 3.3438 0.09516-1.1789 0.51365-2.0492 1.2812-2.375-0.024-0.321-0.04-0.628-0.062-0.969zm33.938 0.15625c-0.01913 0.33723-0.04034 0.63662-0.0625 0.96875 0.62766 0.3947 0.99934 1.2363 1.0938 2.2812 0.08646-1.4894-0.25516-2.7171-1.0312-3.25zm-7.75 25.25c-0.0012 1.4185 0.07656 2.8544 0.25 4.2812 6.5851 5.7262 23.785 8.7242 23.812 13.625l0.188 1.188h0.156l-0.344-2.188c-0.02733-4.9008-17.227-7.8988-23.812-13.625-0.13322-1.096-0.22093-2.1888-0.25-3.2812zm-18.406 0.1875c-0.0068 0.99876-0.09634 2.0157-0.28125 3.0938-6.6668 5.5312-23.838 7.8988-23.812 13.625l-0.345 2.187h0.15625l0.1875-1.1875c-0.02555-5.7262 17.146-8.0938 23.812-13.625 0.24674-1.4386 0.32466-2.7856 0.28125-4.0938z" />
      <path
         id="path3940"
         style="opacity:.5;fill:#fff"
         d="m30.938 32.531c-0.005 0.159-0.032 0.309-0.032 0.469 0.01542 0.67944 0.06969 1.6217 0.125 2.5 0.02145-0.01024 0.0405-0.02191 0.0625-0.03125-0.07619-0.9727-0.12599-2.0426-0.15625-2.9375zm34.125 0c-0.03754 0.97175-0.08553 2.0338-0.15625 3.0938 0.01933 0.01215 0.04367 0.01832 0.0625 0.03125 0.05241-0.92384 0.09826-1.8703 0.125-2.6562 0-0.15973-0.02634-0.31017-0.03125-0.46875zm-35.25 6.3125c-0.10597 1.3128 0.18066 2.9779 0.90625 4.6875 0.54611 1.2867 1.2417 2.2776 2 3.0938 0.18426 0.91192 0.14728 1.3327 0.375 2.375 0.63546 1.9064 3.1238 5.6341 5.4375 8.7188 0.10577 1.1044 0.24333 2.2326 0.28125 3.375 0.01027-1.498-0.14513-2.9537-0.28125-4.375-2.314-3.085-4.803-6.813-5.438-8.719-0.22772-1.0423-0.19074-1.4631-0.375-2.375-0.75834-0.81619-1.4539-1.807-2-3.0938-0.55291-1.3028-0.83603-2.567-0.90625-3.6875zm36.187 0.062c-0.06397 1.1021-0.35751 2.3321-0.90625 3.625-0.46538 1.0965-0.99324 1.9848-1.625 2.75-0.19849 0.92585-0.30812 1.6435-0.5625 2.7188-0.70779 2.1234-3.5167 6.3715-5.625 9.625-0.0543 0.86562-0.06997 1.7504-0.0625 2.625 0.01012-0.54359 0.02864-1.0853 0.0625-1.625 2.1083-3.2535 4.9172-7.5016 5.625-9.625 0.25438-1.0753 0.36401-1.7929 0.5625-2.7188 0.63176-0.76525 1.1596-1.6535 1.625-2.75 0.72406-1.706 1.0232-3.33 0.90625-4.625zm-51.469 41.094-0.156 1h67.25l-0.15625-1h-66.938z" />
    </g>
    <rect
       id="rect3003"
       style="opacity:.15;fill:#fff"
       clip-path="url(#clipPath3009)"
       rx="25"
       ry="25"
       transform="translate(98)"
       width="92"
       y="958.36"
       x="-96"
       height="92" />
  </g>
</svg>
