<?xml version="1.0" encoding="UTF-8" standalone="no"?>
<!-- Created with Inkscape (http://www.inkscape.org/) -->

<svg
   xmlns:dc="http://purl.org/dc/elements/1.1/"
   xmlns:cc="http://creativecommons.org/ns#"
   xmlns:rdf="http://www.w3.org/1999/02/22-rdf-syntax-ns#"
   xmlns:svg="http://www.w3.org/2000/svg"
   xmlns="http://www.w3.org/2000/svg"
   xmlns:sodipodi="http://sodipodi.sourceforge.net/DTD/sodipodi-0.dtd"
   xmlns:inkscape="http://www.inkscape.org/namespaces/inkscape"
   id="svg11037"
   height="96"
   width="96"
   version="1.1"
   inkscape:version="0.48.5 r10040"
   sodipodi:docname="emblem-shared.svg">
  <sodipodi:namedview
     pagecolor="#ffffff"
     bordercolor="#666666"
     borderopacity="1"
     objecttolerance="10"
     gridtolerance="10"
     guidetolerance="10"
     inkscape:pageopacity="0"
     inkscape:pageshadow="2"
     inkscape:window-width="640"
     inkscape:window-height="480"
     id="namedview137700" />
  <defs
     id="defs11039">
    <linearGradient
       id="linearGradient11642"
       y2="1046.1"
       gradientUnits="userSpaceOnUse"
       y1="962.62"
       gradientTransform="matrix(1.15 0 0 1.15 -7.1999 -150.65)"
       x2="48"
       x1="48">
      <stop
         id="stop3189-4"
         style="stop-color:#c8c8c8"
         offset="0" />
      <stop
         id="stop3191-0"
         style="stop-color:#e6e6e6"
         offset="1" />
    </linearGradient>
    <clipPath
       id="clipPath3009"
       clipPathUnits="userSpaceOnUse">
      <path
         id="path3011"
         style="opacity:.15;fill:#fff"
         d="m-2 956.36h-96v33.562l96 25.687v-59.25z" />
    </clipPath>
    <filter
       id="filter4005"
       color-interpolation-filters="sRGB">
      <feGaussianBlur
         id="feGaussianBlur4007"
         stdDeviation="0.83447898" />
    </filter>
    <linearGradient
       id="linearGradient3124"
       y2="39.99"
       gradientUnits="userSpaceOnUse"
       x2="128"
       gradientTransform="matrix(.28151 0 0 -.27584 8.2465 17.031)"
       y1="272.01"
       x1="128">
      <stop
         id="stop5046"
         style="stop-color:#323232"
         offset="0" />
      <stop
         id="stop5048"
         style="stop-color:#787878"
         offset="1" />
    </linearGradient>
  </defs>
  <metadata
     id="metadata11042">
    <rdf:RDF>
      <cc:Work
         rdf:about="">
        <dc:format>image/svg+xml</dc:format>
        <dc:type
           rdf:resource="http://purl.org/dc/dcmitype/StillImage" />
        <dc:title />
      </cc:Work>
    </rdf:RDF>
  </metadata>
  <g
     id="layer1"
     transform="translate(0 -956.36)">
    <rect
       id="rect3867"
       style="fill:url(#linearGradient11642)"
       rx="25"
       ry="25"
       height="92"
       width="92"
       y="958.36"
       x="2" />
    <g
       id="layer1-5"
       transform="translate(0 1030.4)">
      <path
         id="path3998"
         style="opacity:.2;color:#000000;filter:url(#filter4005);stroke:#fff;stroke-width:4;fill:none"
         d="m59.799 5.9975c-5.6742 0.00414-10.933-4.8041-11.004-10.572-0.09199-3.2975-0.97518-6.9065-3.9022-8.8278-4.3334-3.4958-10.263-0.0088-14.861-2.7631-4.979-2.4798-7.4803-8.941-5.1735-14.067 1.8425-4.4883 6.7635-7.39 11.599-6.7638 3.4269 0.42004 7.3043 0.03167 9.719-2.7209 3.8485-3.6863 1.3394-9.8242 4.7335-13.764 3.6948-5.0986 11.701-6.0549 16.442-1.8782 4.8364 3.7818 5.2855 11.683 0.882 15.968-2.6108 2.8999-6.679 3.8427-10.443 3.3387-3.8204-0.57007-8.007 0.97743-9.9229 4.458-1.8073 3.7652-1.792 8.6659 0.64145 12.155 2.1132 2.8675 5.8447 3.9606 9.2814 3.491 3.7645-0.50404 7.8327 0.4388 10.443 3.3386 4.2859 4.182 3.9981 11.823-0.56359 15.691-2.124 1.937-5.005 2.9861-7.872 2.916z" />
      <path
         id="path3984-0-3-4-7"
         style="color:#000000;fill-rule:evenodd;fill:url(#linearGradient3124)"
         d="m59.799 5.9975c-2.5231-0.0537-5.0478-0.93101-7.1082-2.6722-6.6261-5.5995-1.4795-11.417-7.2578-16.3-5.7782-4.8829-10.898 0.95338-17.524-4.6461v-0.0086c-1.4717-1.2437-2.5337-2.7837-3.1758-4.4478-0.0043-0.01085-0.0046-0.02353-0.0088-0.03449-0.12932-0.33843-0.23983-0.67816-0.3343-1.0258-0.04193-0.15433-0.08812-0.30972-0.12317-0.46547-0.0039-0.01702-0.0051-0.03467-0.0088-0.05173-0.07224-0.32849-0.12568-0.65826-0.16715-0.99128-0.000364-0.0028 0.000338-0.0057 0-0.0086-0.0022-0.01735-0.0067-0.03437-0.0088-0.05172-0.01845-0.15512-0.03226-0.30975-0.04399-0.46547-0.009-0.11708-0.02122-0.23621-0.02639-0.35341-0.0025-0.05966-0.0072-0.12131-0.0088-0.18102-0.000565-0.01988 0.000449-0.04044 0-0.06034-0.0032-0.15624-0.0033-0.30915 0-0.46547 0.0015-0.07997 0.0054-0.16146 0.0088-0.24136 0.0053-0.1172 0.01741-0.23633 0.02639-0.35341 0.01336-0.17342 0.0311-0.34431 0.0528-0.51719 0.000339-0.0028-0.000365-0.0057 0-0.0086 0.04146-0.33303 0.09492-0.66279 0.16715-0.99128 0.0038-0.01718 0.005-0.03456 0.0088-0.05171 0.03556-0.15669 0.08051-0.31001 0.12317-0.46547 0.09447-0.3476 0.20497-0.68733 0.3343-1.0258 0.0043-0.01099 0.0046-0.02341 0.0088-0.03449 0.64217-1.6642 1.7041-3.2042 3.1758-4.4478v-0.0086c6.6261-5.5995 11.746 0.23683 17.524-4.6461 5.7782-4.8829 0.63163-10.701 7.2578-16.3 4.7095-3.9799 11.817-3.4595 15.879 1.155 4.0617 4.6145 3.5394 11.579-1.17 15.559-6.6261 5.5995-11.746-0.24545-17.524 4.6375-2.9189 2.4667-3.0468 5.1782-3.3166 7.9734 0.26978 2.7952 0.39765 5.5067 3.3166 7.9734 5.7782 4.8829 10.898-0.962 17.524 4.6375 4.7094 3.9797 5.2317 10.944 1.17 15.559-2.2847 2.5956-5.5269 3.8963-8.7709 3.8272z" />
      <path
         id="path3969"
         style="opacity:.1;color:#000000;fill-rule:evenodd"
         transform="translate(0,-74)"
         d="m59.781 16c-2.5226 0.05246-5.0334 0.94631-7.0938 2.6875-6.6261 5.5995-1.4718 11.398-7.25 16.281-5.7782 4.8829-10.905-0.94323-17.531 4.6562-1.4717 1.2437-2.5453 2.8046-3.1875 4.4688-0.0042 0.01108 0.0043 0.02026 0 0.03125-0.12932 0.33843-0.24928 0.6524-0.34375 1-0.04266 0.15546-0.05819 0.31206-0.09375 0.46875-0.0038 0.01715-0.02745 0.04532-0.03125 0.0625-0.07223 0.32849-0.11479 0.66697-0.15625 1-0.0217 0.17288-0.04914 0.35783-0.0625 0.53125-0.009 0.11708-0.02595 0.22655-0.03125 0.34375-0.0034 0.0799 0.0015 0.17003 0 0.25-0.0033 0.15632-0.0032 0.28126 0 0.4375 0.000449 0.0199-0.000565 0.04262 0 0.0625 0.0016 0.05971-0.0025 0.12784 0 0.1875 0.0052 0.11721 0.02225 0.25792 0.03125 0.375 0.01173 0.15572 0.04405 0.28238 0.0625 0.4375 0.0021 0.01735-0.0022 0.04515 0 0.0625 0.04147 0.33303 0.08401 0.67151 0.15625 1 0.0037 0.01706 0.02735 0.04548 0.03125 0.0625 0.03505 0.15575 0.05182 0.31442 0.09375 0.46875 0.09447 0.3476 0.21443 0.66157 0.34375 1 0.0042 0.01096-0.0043 0.05165 0 0.0625 0.64217 1.6642 1.7158 3.1938 3.1875 4.4375 6.6261 5.5995 11.753-0.22668 17.531 4.6562 5.7782 4.8829 0.62386 10.682 7.25 16.281 2.0604 1.7411 4.6019 2.6338 7.125 2.6875 3.244 0.06904 6.4653-1.2481 8.75-3.8438 4.063-4.612 3.555-11.549-1.155-15.529-6.626-5.599-11.753 0.227-17.531-4.656-2.919-2.467-3.043-5.174-3.313-7.969 0.27-2.795 0.394-5.502 3.313-7.969 5.778-4.883 10.905 0.943 17.531-4.656 4.71-3.98 5.218-10.917 1.156-15.531-2.284-2.596-5.537-3.911-8.781-3.844zm0.0625 2c0.29626-0.0063 0.57904 0.0097 0.875 0.03125 2.3669 0.1725 4.6686 1.2532 6.3438 3.1562 3.3455 3.8008 2.9144 9.3748-0.96875 12.656-2.8546 2.4123-4.8688 2.2689-7.6562 2.125-2.7874-0.14392-6.4602-0.35446-9.875 2.5312-3.4521 2.9172-3.7365 6.5824-4 9.3125a2.0134 2.0134 0 0 0 0 0.375c0.2635 2.7301 0.54791 6.3953 4 9.3125 3.4148 2.8857 7.0876 2.6752 9.875 2.5312 2.7874-0.14392 4.8016-0.28734 7.6562 2.125 3.8831 3.2814 4.3142 8.8555 0.96875 12.656-1.888 2.145-4.548 3.245-7.219 3.188-2.078-0.044-4.148-0.785-5.844-2.219-2.8548-2.4125-2.9925-4.3493-3.25-7.0625-0.25752-2.7132-0.5854-6.3332-4-9.2188-3.4148-2.8857-7.0876-2.6752-9.875-2.5312-2.7874 0.14392-4.8016 0.28734-7.6562-2.125-1.1994-1.0136-2.071-2.2395-2.5938-3.5625-0.0078-0.02551-0.02667-0.04778-0.03125-0.0625a2.0134 2.0134 0 0 0 0 -0.03125c-0.0011-0.0035 0.000022-0.03119 0-0.03125-0.1293-0.33838-0.21944-0.58507-0.28125-0.8125 0.01401 0.05156 0.0067-0.06768-0.0625-0.375-0.01504-0.06562-0.01717-0.01016-0.03125-0.0625-0.0066-0.03057 0.0064-0.0037 0-0.03125-0.04329-0.20439-0.08527-0.46221-0.125-0.78125-0.0031-0.03742 0.006-0.01271 0-0.0625-0.036-0.302-0.066-0.383-0.063-0.344-0.014-0.189-0.031-0.32-0.031-0.313 0.004 0.09639 0.0052 0.03651 0-0.15625 0.0026 0.09203 0.0028 0.09153 0-0.03125-0.0028-0.13513-0.0028-0.24216 0-0.375 0.0036-0.19052 0.0028-0.25394 0-0.1875-0.000905 0.02002 0.0148-0.06674 0.03125-0.28125 0.0056-0.07223 0.03678-0.23258 0.0625-0.4375 0.0397-0.31891 0.08169-0.57674 0.125-0.78125 0.0017-0.008-0.0017-0.02347 0-0.03125 0.01395-0.05315 0.01652 0.004 0.03125-0.0625 0.07164-0.31566 0.07815-0.43204 0.0625-0.375 0.06182-0.22746 0.15196-0.47415 0.28125-0.8125 0.0063-0.01616-0.0058-0.01517 0-0.03125 0.52306-1.3555 1.4189-2.637 2.625-3.6562 2.8546-2.4123 4.8688-2.2689 7.6562-2.125 2.7874 0.14392 6.4602 0.35447 9.875-2.5312 3.4146-2.8855 3.7425-6.5055 4-9.2188 0.25752-2.7132 0.39518-4.65 3.25-7.0625 1.699-1.436 3.77-2.175 5.844-2.219z" />
      <path
         id="path3965"
         style="opacity:.2;color:#000000;fill-rule:evenodd"
         d="m59.781-58c-5.6629 0.01345-10.914 4.8205-10.986 10.578-0.0889 3.2946-0.97401 6.8987-3.8979 8.8175-4.335 3.4963-10.268 0.0172-14.868 2.7729-4.8683 2.422-7.382 8.6422-5.3107 13.706 1.6815 4.6825 6.7943 7.7613 11.739 7.1225 3.4287-0.41625 7.3068-0.02666 9.7228 2.7263 3.8464 3.6804 1.3342 9.8119 4.726 13.746 3.6549 5.0219 11.523 6.0862 16.278 2.0113 4.7739-3.6168 5.5272-11.25 1.4351-15.663-2.4831-2.991-6.4966-4.2744-10.297-3.7898-3.3839 0.44588-7.1418-0.25515-9.417-2.9954-2.782-3.307-2.837-8.264-1.2904-12.133 1.6839-3.5773 5.8-5.4818 9.6497-4.9814 3.7318 0.46563 7.8352-0.1245 10.57-2.9248 4.5671-4.0052 4.5804-11.801 0.05976-15.846-2.145-2.073-5.133-3.22-8.113-3.148zm0.03125 1.0938c5.851-0.30221 11.19 5.2802 10.315 11.139-0.5693 5.3184-5.9329 9.46-11.23 8.668-3.7364-0.44126-7.9457 0.08687-10.568 3.0631-3.3041 3.6062-3.5027 9.2729-1.6814 13.624 1.8244 3.981 6.3964 6.1031 10.655 5.589 3.2694-0.37459 6.8866-0.1055 9.3843 2.2913 4.3741 3.43 4.6754 10.589 0.63448 14.395-3.899 4.2161-11.209 3.9407-14.937-0.3537-3.878-3.6721-1.375-9.8054-4.73-13.762-2.423-3.342-6.793-4.393-10.717-3.872-3.9912 0.61698-8.1834-1.1638-10.319-4.6293-2.865-4.3046-1.492-10.627 2.852-13.436 3.2579-2.6597 7.561-1.3509 11.356-1.6977 4.733-0.41256 8.6266-4.6217 8.853-9.3435 0.18798-3.2509 0.66311-6.8661 3.448-8.9956 1.8147-1.6533 4.2278-2.6338 6.685-2.6793z" />
      <path
         id="path3980"
         style="opacity:.3;color:#000000;fill-rule:evenodd"
         transform="translate(0,-74)"
         d="m59.781 16c-2.5226 0.05246-5.0334 0.94631-7.0938 2.6875-6.6261 5.5995-1.4718 11.398-7.25 16.281-5.7782 4.8829-10.905-0.94323-17.531 4.6562-1.4717 1.2437-2.5453 2.8046-3.1875 4.4688-0.0042 0.01108 0.0043 0.02026 0 0.03125-0.12932 0.33843-0.24928 0.6524-0.34375 1-0.04266 0.15546-0.05819 0.31206-0.09375 0.46875-0.0038 0.01715-0.02745 0.04532-0.03125 0.0625-0.07223 0.32849-0.11479 0.66697-0.15625 1-0.0217 0.17288-0.04914 0.35783-0.0625 0.53125-0.009 0.11708-0.02595 0.22655-0.03125 0.34375-0.0034 0.0799 0.0015 0.17003 0 0.25-0.0033 0.15632-0.0032 0.28126 0 0.4375 0.000449 0.0199-0.000565 0.04262 0 0.0625 0.0016 0.05971-0.0025 0.12784 0 0.1875 0.0061-0.09653 0.02389-0.18528 0.03125-0.28125 0.01336-0.17342 0.0408-0.35837 0.0625-0.53125 0.04146-0.33303 0.08402-0.67151 0.15625-1 0.0038-0.01718 0.02745-0.04535 0.03125-0.0625 0.03556-0.15669 0.05109-0.31329 0.09375-0.46875 0.09447-0.3476 0.21443-0.66157 0.34375-1 0.0043-0.01099-0.0042-0.02017 0-0.03125 0.64217-1.6642 1.7158-3.2251 3.1875-4.4688 6.6261-5.5995 11.753 0.22668 17.531-4.6562 5.7782-4.8829 0.62386-10.682 7.25-16.281 4.7095-3.9799 11.813-3.4582 15.875 1.1562 1.7171 1.9507 2.6102 4.2998 2.7188 6.6875 0.12612-2.7168-0.7625-5.465-2.7188-7.6875-2.283-2.596-5.536-3.911-8.78-3.844zm-13.156 32.5c-0.01599 0.16909-0.04612 0.33026-0.0625 0.5 0.26978 2.7952 0.39357 5.5021 3.3125 7.9688 5.7782 4.8829 10.905-0.94322 17.531 4.6562 2.4412 2.0629 3.7393 4.9198 3.875 7.8438 0.14829-3.2603-1.1565-6.5465-3.875-8.8438-6.626-5.599-11.753 0.227-17.531-4.656-2.744-2.319-3.002-4.851-3.25-7.469z" />
      <path
         id="path3989"
         style="opacity:.5;color:#000000;fill-rule:evenodd;fill:#fff"
         transform="translate(0,-74)"
         d="m71.281 27.531c-0.13574 2.924-1.4338 5.7808-3.875 7.8438-6.626 5.599-11.753-0.227-17.531 4.656-2.919 2.467-3.043 5.174-3.313 7.969 0.01614 0.16723 0.04675 0.3334 0.0625 0.5 0.24737-2.6153 0.50833-5.1519 3.25-7.4688 5.7782-4.8829 10.905 0.94322 17.531-4.6562 2.7185-2.2973 4.0233-5.5834 3.875-8.8438zm-47.281 21c-0.0034 0.0799 0.0015 0.17003 0 0.25-0.0033 0.15632-0.0032 0.28126 0 0.4375 0.000449 0.0199-0.000565 0.04262 0 0.0625 0.0016 0.05971-0.0025 0.12784 0 0.1875 0.0052 0.11721 0.02225 0.25792 0.03125 0.375 0.01173 0.15572 0.04405 0.28238 0.0625 0.4375 0.0021 0.01735-0.0022 0.04515 0 0.0625 0.04147 0.33303 0.08401 0.67151 0.15625 1 0.0037 0.01706 0.02735 0.04548 0.03125 0.0625 0.03505 0.15575 0.05182 0.31442 0.09375 0.46875 0.09447 0.3476 0.21443 0.66157 0.34375 1 0.0042 0.01096-0.0043 0.05165 0 0.0625 0.64217 1.6642 1.7158 3.1938 3.1875 4.4375 6.6261 5.5995 11.753-0.22668 17.531 4.6562 5.7782 4.8829 0.62386 10.682 7.25 16.281 2.0604 1.7411 4.6019 2.6338 7.125 2.6875 3.244 0.06904 6.4653-1.2481 8.75-3.8438 1.9562-2.2225 2.8449-4.9708 2.7188-7.6875-0.1086 2.3877-1.0017 4.7368-2.7188 6.6875-2.2847 2.5956-5.506 3.9128-8.75 3.8438-2.5231-0.0537-5.0646-0.94636-7.125-2.6875-6.6261-5.5995-1.4718-11.398-7.25-16.281-5.7782-4.8829-10.905 0.94323-17.531-4.6562-1.4717-1.2437-2.5453-2.7733-3.1875-4.4375-0.0043-0.01085 0.0042-0.05154 0-0.0625-0.12932-0.33843-0.24928-0.6524-0.34375-1-0.04193-0.15433-0.0587-0.313-0.09375-0.46875-0.0039-0.01702-0.02755-0.04544-0.03125-0.0625-0.07224-0.32849-0.11478-0.66697-0.15625-1-0.0022-0.01735 0.0021-0.04515 0-0.0625-0.01845-0.15512-0.05077-0.28178-0.0625-0.4375-0.007-0.096-0.025-0.213-0.031-0.311z" />
    </g>
    <rect
       id="rect3003"
       style="opacity:.15;fill:#fff"
       clip-path="url(#clipPath3009)"
       rx="25"
       ry="25"
       transform="translate(98)"
       width="92"
       y="958.36"
       x="-96"
       height="92" />
  </g>
</svg>
