<?xml version="1.0" encoding="UTF-8" standalone="no"?>
<!-- Created with Inkscape (http://www.inkscape.org/) -->

<svg
   xmlns:dc="http://purl.org/dc/elements/1.1/"
   xmlns:cc="http://creativecommons.org/ns#"
   xmlns:rdf="http://www.w3.org/1999/02/22-rdf-syntax-ns#"
   xmlns:svg="http://www.w3.org/2000/svg"
   xmlns="http://www.w3.org/2000/svg"
   xmlns:sodipodi="http://sodipodi.sourceforge.net/DTD/sodipodi-0.dtd"
   xmlns:inkscape="http://www.inkscape.org/namespaces/inkscape"
   id="svg11037"
   height="96"
   width="96"
   version="1.1"
   inkscape:version="0.48.5 r10040"
   sodipodi:docname="emblem-money.svg">
  <sodipodi:namedview
     pagecolor="#ffffff"
     bordercolor="#666666"
     borderopacity="1"
     objecttolerance="10"
     gridtolerance="10"
     guidetolerance="10"
     inkscape:pageopacity="0"
     inkscape:pageshadow="2"
     inkscape:window-width="640"
     inkscape:window-height="480"
     id="namedview136961" />
  <defs
     id="defs11039">
    <clipPath
       id="clipPath3009"
       clipPathUnits="userSpaceOnUse">
      <path
         id="path3011"
         style="opacity:.15;fill:#fff"
         d="m-2 956.36h-96v33.562l96 25.687v-59.25z" />
    </clipPath>
    <linearGradient
       id="linearGradient3617"
       y2="5.9877"
       gradientUnits="userSpaceOnUse"
       x2="48"
       y1="90"
       x1="48">
      <stop
         id="stop3702"
         style="stop-color:#4c6d37"
         offset="0" />
      <stop
         id="stop3704"
         style="stop-color:#75ac54"
         offset="1" />
    </linearGradient>
    <linearGradient
       id="linearGradient3146"
       y2="109.11"
       gradientUnits="userSpaceOnUse"
       x2="48"
       y1="6"
       x1="48">
      <stop
         id="stop3739-4"
         style="stop-color:#fffec0"
         offset="0" />
      <stop
         id="stop3741-3"
         style="stop-color:#fff;stop-opacity:0"
         offset="1" />
    </linearGradient>
    <linearGradient
       id="linearGradient3613"
       y2="138.66"
       gradientUnits="userSpaceOnUse"
       x2="48"
       y1="20.221"
       x1="48">
      <stop
         id="stop3739"
         style="stop-color:#fff"
         offset="0" />
      <stop
         id="stop3741"
         style="stop-color:#fff;stop-opacity:0"
         offset="1" />
    </linearGradient>
    <clipPath
       id="clipPath3613">
      <rect
         id="rect3615"
         style="fill:#fff"
         rx="6"
         ry="6"
         height="84"
         width="84"
         y="6"
         x="6" />
    </clipPath>
    <filter
       id="filter3794"
       height="1.384"
       width="1.384"
       y="-.192"
       x="-.192"
       color-interpolation-filters="sRGB">
      <feGaussianBlur
         id="feGaussianBlur3796"
         stdDeviation="5.28" />
    </filter>
    <linearGradient
       id="linearGradient4053"
       y2="8.875"
       gradientUnits="userSpaceOnUse"
       x2="37.875"
       gradientTransform="matrix(.88889 0 0 .88889 5.3333 71.111)"
       y1="-62"
       x1="37.875">
      <stop
         id="stop4090"
         style="stop-color:#d5b742"
         offset="0" />
      <stop
         id="stop4094"
         style="stop-color:#f5e6aa"
         offset=".34921" />
      <stop
         id="stop4096"
         style="stop-color:#e0bf55"
         offset=".57143" />
      <stop
         id="stop4092"
         style="stop-color:#8a6e24"
         offset="1" />
    </linearGradient>
    <clipPath
       id="clipPath3070"
       clipPathUnits="userSpaceOnUse">
      <rect
         id="rect3072"
         style="fill:url(#linearGradient3074)"
         rx="22.826"
         ry="22.826"
         height="84"
         width="84"
         y="6"
         x="6" />
    </clipPath>
    <linearGradient
       id="linearGradient3074"
       y2="1046.1"
       gradientUnits="userSpaceOnUse"
       x2="48"
       gradientTransform="matrix(1.05 0 0 1.05 -2.4 -1006.6)"
       y1="962.62"
       x1="48">
      <stop
         id="stop3797"
         style="stop-color:#13a6fd"
         offset="0" />
      <stop
         id="stop3799"
         style="stop-color:#2975b6"
         offset="1" />
    </linearGradient>
  </defs>
  <metadata
     id="metadata11042">
    <rdf:RDF>
      <cc:Work
         rdf:about="">
        <dc:format>image/svg+xml</dc:format>
        <dc:type
           rdf:resource="http://purl.org/dc/dcmitype/StillImage" />
        <dc:title />
      </cc:Work>
    </rdf:RDF>
  </metadata>
  <g
     id="layer1"
     transform="translate(0 -956.36)">
    <g
       id="g3047"
       clip-path="url(#clipPath3070)"
       transform="matrix(1.0952 0 0 1.0952 -4.5714 951.79)">
      <g
         id="layer1-9">
        <rect
           id="rect2419"
           style="fill:url(#linearGradient3617)"
           rx="6"
           ry="6"
           height="84"
           width="84"
           y="6"
           x="6" />
        <path
           id="path4141"
           style="opacity:.3;fill:url(#linearGradient3146)"
           d="m20.875 6 25.781 40.656-40.656-26.156v18.5l40.219 9-40.219 8.75v18.375l40.656-25.781-26.156 40.656h18.5l9-40.219 8.75 40.219h18.375l-25.781-40.656 40.656 26.156v-18.5l-40.219-9 40.219-8.75v-18.375l-40.656 25.781 26.156-40.656h-18.5l-9 40.219-8.75-40.219h-18.375z" />
      </g>
      <g
         id="layer5">
        <rect
           id="rect3171"
           style="opacity:.1;filter:url(#filter3794);stroke:#fff;stroke-linecap:round;stroke-width:.5;fill:url(#linearGradient3613)"
           clip-path="url(#clipPath3613)"
           rx="12"
           ry="12"
           height="66"
           width="66"
           y="15"
           x="15" />
      </g>
      <path
         id="path4011"
         style="opacity:.3"
         d="m51.68 73.838v7.1622h-7.3593v-7.0308c-4.294-0.525-7.667-2.102-10.12-4.731-2.453-2.672-3.745-6.176-3.877-10.513l11.893 0.06571c0.04379 1.577 0.61326 2.8255 1.7084 3.7454 1.0951 0.91993 2.4531 1.3799 4.0739 1.3799 1.4018 0.000008 2.6283-0.35044 3.6797-1.0513 1.2265-0.74469 1.8398-1.7741 1.8398-3.0883-0.000026-1.9274-1.9713-3.6139-5.9138-5.0595-5.87-2.1465-9.5277-3.7235-10.973-4.731-3.9425-2.6283-5.9138-6.3737-5.9138-11.236-0.000004-3.9863 1.2923-7.3374 3.8768-10.053 2.4969-2.5845 5.7385-4.1396 9.7248-4.6653v-7.0308h7.3593v7.0308c8.5421 1.5332 12.857 6.5928 12.945 15.179h-11.63c-0.000026-1.6646-0.48189-3.0226-1.4456-4.0739-0.96375-1.0951-2.2779-1.6427-3.9425-1.6427-1.3142 0.000037-2.4531 0.37238-3.4168 1.117-1.0952 0.78854-1.6427 1.8399-1.6427 3.154-0.000015 1.6646 1.9931 3.2635 5.9795 4.7967 5.8261 2.1465 9.5496 3.7892 11.17 4.9281 3.9863 2.6722 5.9794 6.3518 5.9795 11.039-0.000038 4.1615-1.3142 7.6222-3.9425 10.382-2.497 2.5845-5.8481 4.2272-10.053 4.9281" />
      <path
         id="path3104"
         style="fill:url(#linearGradient4053)"
         d="m51.68 72.838v7.1622h-7.3593v-7.0308c-4.294-0.525-7.667-2.102-10.12-4.731-2.453-2.672-3.745-6.176-3.877-10.513l11.893 0.06571c0.04379 1.577 0.61326 2.8255 1.7084 3.7454 1.0951 0.91993 2.4531 1.3799 4.0739 1.3799 1.4018 0.000008 2.6283-0.35044 3.6797-1.0513 1.2265-0.74469 1.8398-1.7741 1.8398-3.0883-0.000026-1.9274-1.9713-3.6139-5.9138-5.0595-5.87-2.1465-9.5277-3.7235-10.973-4.731-3.9425-2.6283-5.9138-6.3737-5.9138-11.236-0.000004-3.9863 1.2923-7.3374 3.8768-10.053 2.4969-2.5845 5.7385-4.1396 9.7248-4.6653v-7.0308h7.3593v7.0308c8.5421 1.5332 12.857 6.5928 12.945 15.179h-11.63c-0.000026-1.6646-0.48189-3.0226-1.4456-4.0739-0.96375-1.0951-2.2779-1.6427-3.9425-1.6427-1.3142 0.000037-2.4531 0.37238-3.4168 1.117-1.0952 0.78854-1.6427 1.8399-1.6427 3.154-0.000015 1.6646 1.9931 3.2635 5.9795 4.7967 5.8261 2.1465 9.5496 3.7892 11.17 4.9281 3.9863 2.6722 5.9794 6.3518 5.9795 11.039-0.000038 4.1615-1.3142 7.6222-3.9425 10.382-2.497 2.5845-5.8481 4.2272-10.053 4.9281" />
      <path
         id="path4055"
         style="opacity:.3;fill:#fff"
         d="m44.312 16v1h7.375v-1h-7.375zm0 7.0312c-3.9863 0.52572-7.2218 2.0718-9.7188 4.6562-2.5845 2.716-3.875 6.0762-3.875 10.062 0 0.14943 0.02753 0.29018 0.03125 0.4375 0.11786-3.7374 1.383-6.9141 3.8438-9.5 2.4969-2.5845 5.7324-4.1305 9.7188-4.6562v-1zm7.375 0v1c8.2005 1.4719 12.498 6.2157 12.906 14.188h0.03125c-0.087-8.586-4.394-13.655-12.936-15.188zm-9.0938 14.125c-0.02756 0.19526-0.0625 0.38526-0.0625 0.59375-0.000015 1.6646 2.0137 3.2793 6 4.8125 5.8261 2.1465 9.5354 3.7986 11.156 4.9375 3.8593 2.5871 5.8458 6.118 5.9688 10.594 0.0055-0.18825 0.03125-0.37129 0.03125-0.5625-0.000038-4.6872-2.0137-8.3591-6-11.031-1.6208-1.1389-5.3301-2.791-11.156-4.9375-3.6623-1.4085-5.6398-2.8868-5.9375-4.4062zm-12.281 20.563c0.01032 0.34054 0.06912 0.66972 0.09375 1l11.812 0.0625c0.04379 1.577 0.62359 2.8301 1.7188 3.75 1.0951 0.91993 2.4417 1.375 4.0625 1.375 1.4018 0.000008 2.6361-0.33035 3.6875-1.0312 1.2265-0.74469 1.8437-1.7796 1.8438-3.0938-0.000002-0.13659-0.0427-0.27208-0.0625-0.40625-0.16374 1.0297-0.74931 1.8735-1.7812 2.5-1.0514 0.7009-2.2857 1.0313-3.6875 1.0312-1.6208 0.000008-2.9674-0.45507-4.0625-1.375-1.0952-0.91991-1.675-2.173-1.7188-3.75l-11.906-0.063z" />
      <path
         id="path4098"
         style="opacity:.4;fill:#503a16"
         d="m47.594 31.5c-1.3142 0.000037-2.4425 0.38034-3.4062 1.125-1.0952 0.78854-1.6563 1.8109-1.6562 3.125-0.000001 0.13533 0.03616 0.27179 0.0625 0.40625 0.14617-1.0355 0.67234-1.8678 1.5938-2.5312 0.9637-0.74466 2.0921-1.125 3.4062-1.125 1.6646 0.000037 3.005 0.5299 3.9688 1.625 0.9637 1.0514 1.4375 2.4292 1.4375 4.0938h11.625c-0.0035-0.34331-0.01423-0.66796-0.03125-1h-11.594c0-1.665-0.474-3.043-1.438-4.094-0.963-1.095-2.304-1.625-3.968-1.625zm-16.844 5.688c-0.0059 0.18802-0.03125 0.37156-0.03125 0.5625-0.000004 4.8624 1.9637 8.6217 5.9062 11.25 1.4456 1.0075 5.0988 2.5723 10.969 4.7188 3.6631 1.3432 5.6154 2.8971 5.875 4.6562 0.03088-0.19416 0.0625-0.38525 0.0625-0.59375-0.000026-1.9274-1.995-3.6169-5.9375-5.0625-5.87-2.146-9.523-3.71-10.969-4.718-3.821-2.548-5.758-6.166-5.875-10.812zm34.906 19.906c-0.11525 3.9089-1.43 7.1796-3.9375 9.8125-2.497 2.5845-5.8259 4.2366-10.031 4.9375v1c4.2053-0.70089 7.5343-2.353 10.031-4.9375 2.6283-2.7597 3.9687-6.2135 3.9688-10.375-0.000001-0.14928-0.02721-0.29027-0.03125-0.4375zm-35.344 0.625c0.13141 4.3368 1.4219 7.8591 3.875 10.531 2.4531 2.6283 5.832 4.1931 10.125 4.7188v-1c-4.292-0.526-7.671-2.091-10.124-4.719-2.261-2.462-3.493-5.655-3.782-9.531h-0.09375zm14 21.281v1h7.375v-1h-7.375z" />
    </g>
    <rect
       id="rect3003"
       style="opacity:.15;fill:#fff"
       clip-path="url(#clipPath3009)"
       rx="25"
       ry="25"
       transform="translate(98)"
       width="92"
       y="958.36"
       x="-96"
       height="92" />
  </g>
</svg>
