<?xml version="1.0" encoding="UTF-8" standalone="no"?>
<!-- Created with Inkscape (http://www.inkscape.org/) -->

<svg
   xmlns:dc="http://purl.org/dc/elements/1.1/"
   xmlns:cc="http://creativecommons.org/ns#"
   xmlns:rdf="http://www.w3.org/1999/02/22-rdf-syntax-ns#"
   xmlns:svg="http://www.w3.org/2000/svg"
   xmlns="http://www.w3.org/2000/svg"
   xmlns:sodipodi="http://sodipodi.sourceforge.net/DTD/sodipodi-0.dtd"
   xmlns:inkscape="http://www.inkscape.org/namespaces/inkscape"
   id="svg3381"
   height="48"
   width="48"
   version="1.1"
   inkscape:version="0.48.5 r10040"
   sodipodi:docname="acrobat.svg">
  <defs
     id="defs8" />
  <sodipodi:namedview
     pagecolor="#ffffff"
     bordercolor="#666666"
     borderopacity="1"
     objecttolerance="10"
     gridtolerance="10"
     guidetolerance="10"
     inkscape:pageopacity="0"
     inkscape:pageshadow="2"
     inkscape:window-width="640"
     inkscape:window-height="480"
     id="namedview6"
     showgrid="false"
     inkscape:zoom="4.9166667"
     inkscape:cx="24"
     inkscape:cy="24"
     inkscape:window-x="0"
     inkscape:window-y="30"
     inkscape:window-maximized="0"
     inkscape:current-layer="svg3381" />
  <metadata
     id="metadata3386">
    <rdf:RDF>
      <cc:Work
         rdf:about="">
        <dc:format>image/svg+xml</dc:format>
        <dc:type
           rdf:resource="http://purl.org/dc/dcmitype/StillImage" />
        <dc:title />
      </cc:Work>
    </rdf:RDF>
  </metadata>
  <g
     id="layer1"
     transform="translate(-364.57 -499.79)"
     style="fill:#4d4d4d">
    <path
       id="path2994"
       d="m397.7 526.24c-1.1925-0.0133-2.6217 0.0915-4.1741 0.31374-0.71087-0.40905-1.4618-0.85754-2.0562-1.4139-1.5083-1.41-2.7727-3.3687-3.5571-5.5637 0.0537-0.21016 0.10538-0.41543 0.15202-0.62309 0.21824-0.98236 0.3746-4.2292 0.3746-4.2292s-0.62008 2.4392-0.71789 2.8071c-0.0625 0.23354-0.14158 0.4827-0.23135 0.74202-0.47583-1.675-0.71798-3.2999-0.71798-4.531 0-0.34844 0.0297-1.0244 0.12837-1.5599 0.0478-0.38189 0.18712-0.58045 0.33064-0.67638 0.28381 0.0691 0.60078 0.50455 0.93243 1.2336 0.28483 0.63008 0.2671 1.3602 0.2671 1.8122 0 0 0.30533-1.119 0.23477-1.7802-0.0429-0.39703-0.42059-1.4181-1.2223-1.4058h-0.0653l-0.35696-0.005c-0.58573 0-1.1336 0.2874-1.2659 0.7608-0.49217 1.8163 0.0585 4.6251 0.97713 8.1245l-0.27808 0.67746c-0.70321 1.7158-1.5817 3.4251-2.3548 4.942-3.1913 6.2513-5.6736 9.6241-7.3288 9.8603l-0.007-0.068c-0.0359-0.77967 1.4022-2.7908 3.3508-4.3894 0.20313-0.16486 1.0696-1.0045 1.0696-1.0045s-1.1705 0.61971-1.4332 0.77875c-2.4414 1.4595-3.6568 2.921-3.8548 3.8913-0.0587 0.28834-0.0199 0.64225 0.23394 0.78771l0.62478 0.31439c1.6992 0.85162 3.7878-1.3872 6.5662-6.2617 2.8271-0.92837 6.3539-1.8029 9.5655-2.2764 2.8745 1.6443 6.172 2.4271 7.4386 2.0888 0.24105-0.0637 0.49522-0.25288 0.62452-0.42752 0.10159-0.1607 0.2429-0.80388 0.2429-0.80388s-0.23773 0.3262-0.4338 0.42189c-0.80221 0.37903-3.333-0.25334-5.931-1.5256 2.246-0.2393 4.1181-0.24937 5.1181 0.0707 1.2698 0.40572 1.2698 0.82253 1.253 0.90731 0.0168-0.0699 0.0746-0.34911 0.0677-0.46769-0.0291-0.30515-0.12228-0.57724-0.35271-0.80277-0.47038-0.46345-1.6313-0.69776-3.2133-0.71854zm-14.125 2.9356c0.48091-0.85559 1.0018-1.7874 1.535-2.7925 1.0315-1.9534 1.6574-3.4612 2.1835-4.8802 0.82937 1.6705 1.9742 3.258 3.4751 4.5301 0.33479 0.28353 0.69055 0.55174 1.0567 0.80507-2.7261 0.50741-5.5897 1.2216-8.2504 2.3376z"
       style="fill:#4d4d4d" />
  </g>
</svg>
