<?xml version="1.0" encoding="UTF-8" standalone="no"?>
<!-- Created with Inkscape (http://www.inkscape.org/) -->

<svg
   xmlns:dc="http://purl.org/dc/elements/1.1/"
   xmlns:cc="http://creativecommons.org/ns#"
   xmlns:rdf="http://www.w3.org/1999/02/22-rdf-syntax-ns#"
   xmlns:svg="http://www.w3.org/2000/svg"
   xmlns="http://www.w3.org/2000/svg"
   xmlns:sodipodi="http://sodipodi.sourceforge.net/DTD/sodipodi-0.dtd"
   xmlns:inkscape="http://www.inkscape.org/namespaces/inkscape"
   id="svg3813"
   height="22"
   width="22"
   version="1.1"
   inkscape:version="0.48.5 r10040"
   sodipodi:docname="appointment-new.svg">
  <defs
     id="defs8" />
  <sodipodi:namedview
     pagecolor="#ffffff"
     bordercolor="#666666"
     borderopacity="1"
     objecttolerance="10"
     gridtolerance="10"
     guidetolerance="10"
     inkscape:pageopacity="0"
     inkscape:pageshadow="2"
     inkscape:window-width="1360"
     inkscape:window-height="712"
     id="namedview6"
     showgrid="false"
     inkscape:zoom="2.6818182"
     inkscape:cx="12.437032"
     inkscape:cy="14.621321"
     inkscape:window-x="-2"
     inkscape:window-y="28"
     inkscape:window-maximized="1"
     inkscape:current-layer="svg3813" />
  <metadata
     id="metadata3818">
    <rdf:RDF>
      <cc:Work
         rdf:about="">
        <dc:format>image/svg+xml</dc:format>
        <dc:type
           rdf:resource="http://purl.org/dc/dcmitype/StillImage" />
        <dc:title />
      </cc:Work>
    </rdf:RDF>
  </metadata>
  <path
     style="fill:#4d4d4d;fill-opacity:1"
     d="m 11.021082,3.0000343 c -0.31702,-8.01e-4 -0.629864,0.0121 -0.944761,0.05005 -2.099847,0.234838 -4.079515,1.360273 -5.3745,3.028057 C 3.602645,7.4685443 3.003604,9.2318743 3,11.00186 c 0.0066,1.536351 0.456288,3.074153 1.301392,4.360652 1.011483,1.554969 2.571702,2.74442 4.348403,3.284565 1.586297,0.490695 3.325708,0.469574 4.898991,-0.06256 1.600112,-0.532138 3.019531,-1.589605 3.991771,-2.965494 0.884146,-1.23905 1.382479,-2.73476 1.451553,-4.254293 0.05766,-1.302715 -0.201115,-2.6203947 -0.763317,-3.7975827 -0.698547,-1.467281 -1.853983,-2.711837 -3.265994,-3.516049 -1.192236,-0.682209 -2.567847,-1.047618 -3.941717,-1.051061 z m -0.406685,0.894653 c 0.03183,0.244447 -0.02373,0.492947 0.03754,0.731989 0.109917,0.302705 0.592033,0.303906 0.700749,0 0.06007,-0.236639 0.01447,-0.483688 0.03128,-0.725733 1.008479,0.05886 2.006547,0.327281 2.903106,0.794552 -0.119528,0.164566 -0.194108,0.422026 0.01251,0.550556 0.216832,0.141142 0.449782,-0.04339 0.538076,-0.243996 0.862523,0.563969 1.596959,1.307169 2.158559,2.170941 -0.123131,0.08348 -0.29992,0.175227 -0.275294,0.35661 -0.02102,0.145947 0.0913,0.269322 0.225241,0.306559 0.134544,0.02883 0.252019,-0.06156 0.369145,-0.112614 0.469702,0.8913 0.714364,1.890308 0.800857,2.8904177 -0.228845,0.03784 -0.458791,-0.0095 -0.688237,0.01877 -0.262481,0.06126 -0.378705,0.424178 -0.187701,0.619375 0.22344,0.246248 0.612606,0.04109 0.869681,0.156408 -0.06487,0.997006 -0.335109,1.976495 -0.7946,2.865392 -0.136947,-0.07147 -0.314637,-0.173675 -0.462996,-0.06256 -0.15016,0.07868 -0.164976,0.27743 -0.100107,0.419173 0.06547,0.08709 0.15872,0.134736 0.244011,0.200202 -0.564604,0.859467 -1.29964,1.599514 -2.158559,2.164685 -0.0913,-0.116518 -0.170783,-0.303156 -0.350375,-0.281534 -0.150161,-0.02403 -0.281851,0.0984 -0.319091,0.237739 -0.03183,0.134536 0.06036,0.240693 0.11262,0.35661 -0.89736,0.46547 -1.889571,0.727885 -2.896849,0.794552 -0.01922,-0.241443 0.02843,-0.482837 -0.02503,-0.719476 -0.09971,-0.288291 -0.543231,-0.321524 -0.68198,-0.05005 -0.107515,0.244446 -0.0079,0.524379 -0.06257,0.782039 C 9.613712,18.027004 8.615844,17.779105 7.72379,17.308229 7.79467,17.17009 7.901931,16.999868 7.79261,16.851518 7.71392,16.701967 7.521419,16.685701 7.379668,16.745161 7.290768,16.809421 7.24192,16.908326 7.179454,16.995414 6.31633,16.434447 5.573686,15.690196 5.008381,14.830729 5.123704,14.738839 5.309153,14.665612 5.289932,14.486632 5.313352,14.339483 5.199232,14.214056 5.064691,14.173816 4.928345,14.138376 4.806415,14.221066 4.689289,14.273917 4.2322,13.376011 3.937135,12.388664 3.919716,11.377243 c 0.234851,-0.01141 0.483217,0.02638 0.713263,-0.03128 0.30813,-0.10811 0.302474,-0.589946 -0.0063,-0.694451 -0.229445,-0.05225 -0.472755,-0.01422 -0.707006,-0.02503 0.01922,-1.0096187 0.310082,-2.0076257 0.769573,-2.9029297 0.172385,0.126128 0.461494,0.183836 0.575616,-0.04379 0.11172,-0.219822 -0.06612,-0.420274 -0.256524,-0.506761 0.561601,-0.864273 1.307248,-1.608073 2.171073,-2.170941 0.08469,0.120721 0.165727,0.308811 0.344118,0.28779 0.192205,0.03003 0.354879,-0.179081 0.312834,-0.362866 -0.02943,-0.08288 -0.07298,-0.152804 -0.11262,-0.231484 0.892555,-0.472076 1.886819,-0.725132 2.890593,-0.800808 z m 0.362888,2.389912 c -0.125619,0.01563 -0.240382,0.127003 -0.237755,0.256509 -10e-4,1.305317 0.002,2.611636 0,3.9164527 -0.08909,0.06607 -0.170182,0.144396 -0.237754,0.231484 -0.765319,-0.004 -1.530888,0.002 -2.296207,0 -0.12163,0.0015 -0.266034,0.01126 -0.344118,0.11887 -0.05656,0.0966 -0.102109,0.220722 -0.03754,0.325328 0.05456,0.125126 0.198212,0.172674 0.325348,0.175177 0.783839,0.0025 1.568678,7.5e-4 2.352517,0.0063 0.101108,0.194697 0.344118,0.293797 0.556846,0.275278 0.315337,-0.01652 0.570861,-0.324327 0.531819,-0.638144 -0.0015,-0.207209 -0.158169,-0.361365 -0.312835,-0.47548 -0.007,-1.3103227 -0.0028,-2.6248987 -0.0063,-3.9352217 0.0015,-0.103104 -0.07583,-0.199702 -0.16893,-0.23774 -0.03992,-0.01964 -0.08326,-0.02398 -0.125134,-0.01877 z"
     id="path3382"
     inkscape:connector-curvature="0" />
</svg>
