<?xml version="1.0" encoding="UTF-8" standalone="no"?>
<!-- Created with Inkscape (http://www.inkscape.org/) -->

<svg
   xmlns:dc="http://purl.org/dc/elements/1.1/"
   xmlns:cc="http://creativecommons.org/ns#"
   xmlns:rdf="http://www.w3.org/1999/02/22-rdf-syntax-ns#"
   xmlns:svg="http://www.w3.org/2000/svg"
   xmlns="http://www.w3.org/2000/svg"
   xmlns:sodipodi="http://sodipodi.sourceforge.net/DTD/sodipodi-0.dtd"
   xmlns:inkscape="http://www.inkscape.org/namespaces/inkscape"
   id="svg2"
   height="22"
   viewBox="0 0 22 22"
   width="22"
   version="1.1"
   inkscape:version="0.48.5 r10040"
   sodipodi:docname="arrow-left-double.svg">
  <defs
     id="defs9" />
  <sodipodi:namedview
     pagecolor="#ffffff"
     bordercolor="#666666"
     borderopacity="1"
     objecttolerance="10"
     gridtolerance="10"
     guidetolerance="10"
     inkscape:pageopacity="0"
     inkscape:pageshadow="2"
     inkscape:window-width="1360"
     inkscape:window-height="712"
     id="namedview7"
     showgrid="false"
     inkscape:zoom="10.727273"
     inkscape:cx="-21.813559"
     inkscape:cy="11"
     inkscape:window-x="-2"
     inkscape:window-y="28"
     inkscape:window-maximized="1"
     inkscape:current-layer="svg2" />
  <metadata
     id="metadata7">
    <rdf:RDF>
      <cc:Work
         rdf:about="">
        <dc:format>image/svg+xml</dc:format>
        <dc:type
           rdf:resource="http://purl.org/dc/dcmitype/StillImage" />
        <dc:title />
      </cc:Work>
    </rdf:RDF>
  </metadata>
  <path
     style="opacity:1;color:#000000;fill:#4d4d4d;fill-opacity:1;fill-rule:nonzero;stroke:none;stroke-width:2;marker:none;visibility:visible;display:inline;overflow:visible;enable-background:accumulate"
     id="path4074-7"
     inkscape:connector-curvature="0"
     d="m 17.453314,3.204626 a 0.76187689,0.86268218 0 0 1 0.711184,0.8692243 l 0,13.4334677 a 0.76187689,0.86268218 0 0 1 -1.145796,0.750693 l -9.8116993,-6.413822 0,4.846584 c 0,0.466958 -0.3759263,0.842885 -0.8428842,0.842885 l -1.6857684,0 c -0.4669579,0 -0.8428843,-0.375927 -0.8428843,-0.842885 l 0,-11.8003786 c 0,-0.4669578 0.3759264,-0.8428842 0.8428843,-0.8428842 l 1.6857684,0 c 0.4669579,0 0.8428842,0.3759264 0.8428842,0.8428842 l 0,4.8465843 9.8116993,-6.4138221 A 0.76187689,0.86268218 0 0 1 17.453314,3.204626 z" />
</svg>
