<?xml version="1.0" encoding="UTF-8" standalone="no"?>
<!-- Created with Inkscape (http://www.inkscape.org/) -->

<svg
   xmlns:dc="http://purl.org/dc/elements/1.1/"
   xmlns:cc="http://creativecommons.org/ns#"
   xmlns:rdf="http://www.w3.org/1999/02/22-rdf-syntax-ns#"
   xmlns:svg="http://www.w3.org/2000/svg"
   xmlns="http://www.w3.org/2000/svg"
   xmlns:sodipodi="http://sodipodi.sourceforge.net/DTD/sodipodi-0.dtd"
   xmlns:inkscape="http://www.inkscape.org/namespaces/inkscape"
   id="svg3815"
   height="22"
   width="22"
   version="1.1"
   inkscape:version="0.48.5 r10040"
   sodipodi:docname="babelfish.svg">
  <sodipodi:namedview
     pagecolor="#ffffff"
     bordercolor="#666666"
     borderopacity="1"
     objecttolerance="10"
     gridtolerance="10"
     guidetolerance="10"
     inkscape:pageopacity="0"
     inkscape:pageshadow="2"
     inkscape:window-width="640"
     inkscape:window-height="480"
     id="namedview576" />
  <defs
     id="defs3817">
    <filter
       id="filter3174"
       color-interpolation-filters="sRGB">
      <feGaussianBlur
         id="feGaussianBlur3176"
         stdDeviation="1.71" />
    </filter>
    <filter
       id="filter3794"
       height="1.384"
       width="1.384"
       color-interpolation-filters="sRGB"
       y="-.192"
       x="-.192">
      <feGaussianBlur
         id="feGaussianBlur3796"
         stdDeviation="5.28" />
    </filter>
    <clipPath
       id="clipPath4355">
      <rect
         id="rect4357"
         style="fill:#fff"
         rx="6"
         ry="6"
         height="80"
         width="84"
         y="6"
         x="6" />
    </clipPath>
  </defs>
  <metadata
     id="metadata3820">
    <rdf:RDF>
      <cc:Work
         rdf:about="">
        <dc:format>image/svg+xml</dc:format>
        <dc:type
           rdf:resource="http://purl.org/dc/dcmitype/StillImage" />
        <dc:title />
      </cc:Work>
    </rdf:RDF>
  </metadata>
  <g
     id="layer1"
     transform="translate(-461.71 -525.79)">
    <rect
       id="rect3745"
       style="opacity:.9;filter:url(#filter3174);display:none;fill:#4d4d4d"
       transform="matrix(.36331 0 0 .36331 536.21 442.45)"
       rx="6"
       ry="6"
       height="85"
       width="86"
       y="7"
       x="5" />
    <rect
       id="rect3171"
       style="opacity:.1;filter:url(#filter3794);stroke:#fff;stroke-linecap:round;stroke-width:.5;display:none;fill:#4d4d4d"
       transform="matrix(.36331 0 0 .36331 536.21 442.45)"
       clip-path="url(#clipPath4355)"
       rx="12"
       ry="12"
       height="62"
       width="66"
       y="15"
       x="15" />
    <path
       id="path3620-5"
       style="fill:#4d4d4d"
       d="m475.92 528.29c-2.8988 0-5.25 1.9095-5.25 4.2812 0 2.3718 2.3512 4.3125 5.25 4.3125 0.43167 0 0.84864-0.0445 1.25-0.125 0.53963 0.56325 1.5632 1.2913 3.0938 1.125-1.1817-0.33405-1.4453-1.3197-1.5-1.7188 1.4415-0.7655 2.4062-2.083 2.4062-3.5938 0-2.3718-2.3512-4.2812-5.25-4.2812zm0.53125 1.6562 0.9375 2.5c0.51689 1.3646 0.92291 2.5358 0.9375 2.5938 0.0197 0.0786-0.10298 0.0937-0.53125 0.0937h-0.5625l-0.1875-0.59375-0.1875-0.5625h-0.96875-0.9375l-0.1875 0.5625-0.1875 0.59375h-0.59375c-0.47879 0-0.53625-0.0331-0.53125-0.15625 0.003-0.0789 0.40182-1.2318 0.90625-2.5625l0.9375-2.4062 0.5625-0.0312 0.59375-0.0312zm-0.5625 1.4688c-0.03-0.0351-0.18155 0.3417-0.34375 0.8125-0.16224 0.4708-0.2765 0.8485-0.25 0.875 0.0266 0.0267 0.31678 0.0625 0.625 0.0625 0.42537 0 0.5625-0.007 0.5625-0.0937 0-0.13439-0.51364-1.5626-0.59375-1.6562zm-6.375 4.25c-2.8988 0-5.25 1.9095-5.25 4.2812 0 1.5108 0.96479 2.8595 2.4062 3.625-0.0548 0.39903-0.31824 1.3534-1.5 1.6875 1.5306 0.16634 2.5541-0.56175 3.0938-1.125 0.40137 0.0805 0.81833 0.125 1.25 0.125 2.8988 0 5.25-1.9407 5.25-4.3125s-2.3512-4.2812-5.25-4.2812zm-1.0312 1.4688 0.375 0.0625c0.20927 0.0287 0.4117 0.0625 0.46875 0.0625 0.0742 0 0.0949 0.0711 0.0625 0.3125l-0.0312 0.34375 0.59375-0.0625c0.33365-0.0325 0.76649-0.0883 0.96875-0.125 0.20225-0.0367 0.40294-0.0526 0.4375-0.0312 0.0346 0.0213 0.0625 0.22039 0.0625 0.4375 0 0.39292-0.007 0.38964-0.3125 0.4375-0.16915 0.0265-0.64299 0.094-1.0625 0.125l-0.75 0.0625v0.3125l0.0312 0.34375 0.375-0.0312c0.20151-0.0133 0.37944-0.0503 0.40625-0.0937 0.0678-0.10967 0.81352 0.0398 0.9375 0.1875 0.054 0.0644 0.22159 0.19507 0.40625 0.3125 0.33783 0.21483 0.56318 0.59711 0.65625 1.0625 0.0635 0.31741-0.0953 0.94499-0.3125 1.25-0.18472 0.2594-0.74648 0.56832-1.1875 0.65625-0.15787 0.0314-0.33393 0.0736-0.40625 0.0937-0.0852 0.0237-0.2343-0.0686-0.375-0.28125-0.25769-0.38937-0.2565-0.40625-0.0625-0.40625 0.33874 0 0.92013-0.29357 1.1562-0.5625 0.31978-0.36419 0.33952-0.655 0.0312-1l-0.25-0.28125-0.1875 0.34375c-0.43615 0.70569-0.96427 1.2479-1.4688 1.5-0.96238 0.48091-1.6826 0.39128-1.9375-0.21875-0.30662-0.73385 0.14921-1.6366 1.0938-2.125 0.26349-0.13625 0.27384-0.13845 0.25-0.59375l-0.0312-0.46875-0.5625 0.0312-0.53125 0.0312v-0.46875-0.4375h0.5625 0.59375v-0.40625-0.375zm1 3.0625c-0.084 0.0218-0.125 0.0882-0.125 0.28125 0 0.33128 0.12397 0.30199 0.3125-0.0625 0.12192-0.23574 0.109-0.21875-0.0937-0.21875-0.0456 0-0.0657-0.007-0.0937 0zm-0.96875 0.40625c-0.0154-0.0175-0.11149 0.0547-0.21875 0.125-0.22507 0.14747-0.44486 0.53666-0.375 0.71875 0.0475 0.12386 0.3388 0.1796 0.5625 0.0937 0.0884-0.0339 0.12321-0.14754 0.0937-0.46875-0.0215-0.23461-0.0473-0.45136-0.0625-0.46875z" />
  </g>
</svg>
