<svg height="22" width="22" xmlns="http://www.w3.org/2000/svg" xmlns:sodipodi="http://sodipodi.sourceforge.net/DTD/sodipodi-0.dtd" xmlns:inkscape="http://www.inkscape.org/namespaces/inkscape">
 <path d="m18.272 14.163-1.272-1.163-1-1-2-2-4 4-1-1-4.8516 4.852-0.1484 0.148v-14h14v15h1v-15-1h-15-1v1 15h1 14.2m-11.2-14c-1.108 0-2 0.892-2 2s0.892 2 2 2 2-0.892 2-2-0.892-2-2-2z" fill="#4d4d4d" transform="matrix(0.75224 0 0 0.74884 2.725 2.767)"/>
 <path d="m4 18v-7-7h7 7v7 7h-7zm15 1v-1-7-8h-8-7-1v1 7 8h1 7z" fill="#4d4d4d" transform="matrix(1 0 0 1 0 0)"/>
</svg>
