<?xml version="1.0" encoding="UTF-8" standalone="no"?>
<!-- Created with Inkscape (http://www.inkscape.org/) -->

<svg
   xmlns:dc="http://purl.org/dc/elements/1.1/"
   xmlns:cc="http://creativecommons.org/ns#"
   xmlns:rdf="http://www.w3.org/1999/02/22-rdf-syntax-ns#"
   xmlns:svg="http://www.w3.org/2000/svg"
   xmlns="http://www.w3.org/2000/svg"
   xmlns:xlink="http://www.w3.org/1999/xlink"
   xmlns:sodipodi="http://sodipodi.sourceforge.net/DTD/sodipodi-0.dtd"
   xmlns:inkscape="http://www.inkscape.org/namespaces/inkscape"
   id="svg3049"
   height="22"
   width="22"
   version="1.1"
   inkscape:version="0.48.5 r10040"
   sodipodi:docname="button_cancel.svg">
  <sodipodi:namedview
     pagecolor="#ffffff"
     bordercolor="#666666"
     borderopacity="1"
     objecttolerance="10"
     gridtolerance="10"
     guidetolerance="10"
     inkscape:pageopacity="0"
     inkscape:pageshadow="2"
     inkscape:window-width="725"
     inkscape:window-height="480"
     id="namedview36"
     showgrid="false"
     inkscape:zoom="5.3636364"
     inkscape:cx="6.6007667"
     inkscape:cy="18.232102"
     inkscape:window-x="0"
     inkscape:window-y="30"
     inkscape:window-maximized="0"
     inkscape:current-layer="svg3049" />
  <defs
     id="defs3051">
    <clipPath
       id="clipPath4355">
      <rect
         id="rect4357"
         style="fill:#fff"
         rx="6"
         ry="6"
         height="80"
         width="84"
         y="6"
         x="6" />
    </clipPath>
    <filter
       id="filter3794"
       height="1.384"
       width="1.384"
       color-interpolation-filters="sRGB"
       y="-.192"
       x="-.192">
      <feGaussianBlur
         id="feGaussianBlur3796"
         stdDeviation="5.28" />
    </filter>
    <filter
       id="filter3174"
       color-interpolation-filters="sRGB">
      <feGaussianBlur
         id="feGaussianBlur3176"
         stdDeviation="1.71" />
    </filter>
    <clipPath
       id="clipPath4355-7">
      <rect
         id="rect4357-7"
         style="fill:#fff"
         rx="6"
         ry="6"
         height="80"
         width="84"
         y="6"
         x="6" />
    </clipPath>
    <linearGradient
       id="linearGradient3613-5"
       x1="48"
       gradientUnits="userSpaceOnUse"
       y1="20.221"
       x2="48"
       y2="138.66">
      <stop
         id="stop3739-0"
         style="stop-color:#fff"
         offset="0" />
      <stop
         id="stop3741-1"
         style="stop-color:#fff;stop-opacity:0"
         offset="1" />
    </linearGradient>
    <filter
       id="filter3794-1"
       height="1.384"
       width="1.384"
       color-interpolation-filters="sRGB"
       y="-.192"
       x="-.192">
      <feGaussianBlur
         id="feGaussianBlur3796-3"
         stdDeviation="5.28" />
    </filter>
    <filter
       id="filter3174-9"
       color-interpolation-filters="sRGB">
      <feGaussianBlur
         id="feGaussianBlur3176-1"
         stdDeviation="1.71" />
    </filter>
    <linearGradient
       id="ButtonShadow-8"
       x1="45.448"
       gradientUnits="userSpaceOnUse"
       y1="92.54"
       gradientTransform="scale(1.0059,0.99417)"
       x2="45.448"
       y2="7.0165">
      <stop
         id="stop3750-2"
         offset="0" />
      <stop
         id="stop3752-4"
         style="stop-opacity:.58824"
         offset="1" />
    </linearGradient>
    <linearGradient
       inkscape:collect="always"
       xlink:href="#linearGradient3613-5"
       id="linearGradient10823"
       gradientUnits="userSpaceOnUse"
       x1="48"
       y1="20.221"
       x2="48"
       y2="138.66" />
    <linearGradient
       inkscape:collect="always"
       xlink:href="#ButtonShadow-8"
       id="linearGradient10826"
       gradientUnits="userSpaceOnUse"
       gradientTransform="scale(1.0059,0.99417)"
       x1="45.448"
       y1="92.54"
       x2="45.448"
       y2="7.0165" />
  </defs>
  <metadata
     id="metadata3054">
    <rdf:RDF>
      <cc:Work
         rdf:about="">
        <dc:format>image/svg+xml</dc:format>
        <dc:type
           rdf:resource="http://purl.org/dc/dcmitype/StillImage" />
        <dc:title />
      </cc:Work>
    </rdf:RDF>
  </metadata>
  <rect
     x="5"
     y="7"
     width="86"
     height="85"
     ry="6"
     rx="6"
     style="opacity:0.9;fill:url(#linearGradient10826);display:none;filter:url(#filter3174-9)"
     id="rect3745-7"
     transform="matrix(0.26923,0,0,0.26923,-1.92,-1.38)" />
  <rect
     x="15"
     y="15"
     width="66"
     height="62"
     ry="12"
     rx="12"
     clip-path="url(#clipPath4355-7)"
     style="opacity:0.1;fill:url(#linearGradient10823);stroke:#ffffff;stroke-width:0.5;stroke-linecap:round;display:none;filter:url(#filter3794-1)"
     id="rect3171-6"
     transform="matrix(0.26923,0,0,0.26923,-1.92,-1.38)" />
  <path
     inkscape:connector-curvature="0"
     style="opacity:10000000000000004;fill:#ff0000"
     d="m 11.00304,18.00456 c 3.863989,0 6.99998,-3.135991 6.99998,-6.99998 0,-3.863989 -3.135991,-6.99998 -6.99998,-6.99998 -3.863989,0 -6.99998,3.135991 -6.99998,6.99998 0,3.863989 3.135991,6.99998 6.99998,6.99998 z m 0,-2.499989 c -2.4839967,0 -4.4999102,-2.015994 -4.4999102,-4.49991 0,-0.671298 0.1501415,-1.3065196 0.4140488,-1.8789026 l 5.9685594,5.9647906 c -0.57319,0.264922 -1.210188,0.414076 -1.882725,0.414076 z M 15.034221,12.996963 9.0069688,6.97348 C 9.6089132,6.6745808 10.285811,6.5047236 11.003067,6.5047236 c 2.483997,0 4.49991,2.0159943 4.49991,4.4999104 0,0.716017 -0.170813,1.391004 -0.468756,1.992194 z"
     id="Symbol" />
  <rect
     x="5"
     y="7"
     width="86"
     height="85"
     ry="6"
     rx="6"
     transform="matrix(0.9,0,0,0.9,-38.1,-41.6)"
     style="opacity:0.9;fill:#ffffff;display:none;filter:url(#filter3174)"
     id="rect3745" />
  <rect
     x="15"
     y="15"
     width="66"
     height="62"
     ry="12"
     rx="12"
     clip-path="url(#clipPath4355)"
     transform="matrix(0.9,0,0,0.9,-38.1,-41.6)"
     style="opacity:0.1;fill:#ffffff;stroke:#ffffff;stroke-width:0.5;stroke-linecap:round;display:none;filter:url(#filter3794)"
     id="rect3171" />
</svg>
