<svg height="22" width="22" xmlns="http://www.w3.org/2000/svg" xmlns:sodipodi="http://sodipodi.sourceforge.net/DTD/sodipodi-0.dtd" xmlns:inkscape="http://www.inkscape.org/namespaces/inkscape">
 <path d="m 11.00304,18.00456 c 3.863989,0 6.99998,-3.135991 6.99998,-6.99998 0,-3.863989 -3.135991,-6.99998 -6.99998,-6.99998 -3.863989,0 -6.99998,3.135991 -6.99998,6.99998 0,3.863989 3.135991,6.99998 6.99998,6.99998 z m 0,-2.499989 c -2.4839967,0 -4.4999102,-2.015994 -4.4999102,-4.49991 0,-0.671298 0.1501415,-1.3065196 0.4140488,-1.8789026 l 5.9685594,5.9647906 c -0.57319,0.264922 -1.210188,0.414076 -1.882725,0.414076 z M 15.034221,12.996963 9.0069688,6.97348 C 9.6089132,6.6745808 10.285811,6.5047236 11.003067,6.5047236 c 2.483997,0 4.49991,2.0159943 4.49991,4.4999104 0,0.716017 -0.170813,1.391004 -0.468756,1.992194 z" fill="#ff0000" opacity="9223372036.85" inkscape:connector-curvature="0"/>
</svg>
