<svg height="24" width="24" xmlns="http://www.w3.org/2000/svg" xmlns:sodipodi="http://sodipodi.sourceforge.net/DTD/sodipodi-0.dtd" xmlns:inkscape="http://www.inkscape.org/namespaces/inkscape">
 <path d="m -1678.7081,521.68635 0,18 14,0 0,-18 -14,0 z m 2,2 10,0 0,2 -10,0 0,-2 z m 0,4 2,0 0,2 -2,0 0,-2 z m 4,0 2,0 0,2 -2,0 0,-2 z m 4,0 2,0 0,2 -2,0 0,-2 z m -8,4 2,0 0,2 -2,0 0,-2 z m 4,0 2,0 0,2 -2,0 0,-2 z m 4,0 2,0 0,2 0,4 -2,0 0,-4 0,-2 z m -8,4 2,0 0,2 -2,0 0,-2 z m 4,0 2,0 0,2 -2,0 0,-2 z" fill="#4d4d4d" fill-opacity="1" fill-rule="nonzero" stroke="none" inkscape:label="Camada 1" inkscape:groupmode="layer" inkscape:connector-curvature="0" transform="matrix(1 0 0 1 1683.71 -518.69)"/>
</svg>
