<svg height="22" width="22" xmlns="http://www.w3.org/2000/svg" xmlns:sodipodi="http://sodipodi.sourceforge.net/DTD/sodipodi-0.dtd" xmlns:inkscape="http://www.inkscape.org/namespaces/inkscape">
 <path d="m386.86 548.08c-2.5683 0-4.7833 1.3818-6 3.4336l0.00001 0.56641-0.00001 0.99999s0.00001 0.99999 1 1h3c1 0 1-1 1-1v-0.5c0-0.831 0.66901-1.5 1.5-1.5l5-0.00001c0.83098 0 1.5 0.669 1.5 1.5v0.5s0 0.99999 1 0.99999h3c1 0 1-0.99999 1-0.99999v-0.99999-0.56641c-1.2167-2.0518-3.4321-3.4336-6-3.4336z" fill="#ff0000" transform="matrix(1 0 0 1 -378.86 -540.08)"/>
</svg>
