<?xml version="1.0" encoding="UTF-8" standalone="no"?>
<!-- Created with Inkscape (http://www.inkscape.org/) -->

<svg
   xmlns:dc="http://purl.org/dc/elements/1.1/"
   xmlns:cc="http://creativecommons.org/ns#"
   xmlns:rdf="http://www.w3.org/1999/02/22-rdf-syntax-ns#"
   xmlns:svg="http://www.w3.org/2000/svg"
   xmlns="http://www.w3.org/2000/svg"
   xmlns:sodipodi="http://sodipodi.sourceforge.net/DTD/sodipodi-0.dtd"
   xmlns:inkscape="http://www.inkscape.org/namespaces/inkscape"
   id="svg3813"
   height="22"
   width="22"
   version="1.1"
   inkscape:version="0.48.5 r10040"
   sodipodi:docname="call-start.svg">
  <defs
     id="defs931" />
  <sodipodi:namedview
     pagecolor="#ffffff"
     bordercolor="#666666"
     borderopacity="1"
     objecttolerance="10"
     gridtolerance="10"
     guidetolerance="10"
     inkscape:pageopacity="0"
     inkscape:pageshadow="2"
     inkscape:window-width="640"
     inkscape:window-height="480"
     id="namedview929" />
  <metadata
     id="metadata3818">
    <rdf:RDF>
      <cc:Work
         rdf:about="">
        <dc:format>image/svg+xml</dc:format>
        <dc:type
           rdf:resource="http://purl.org/dc/dcmitype/StillImage" />
        <dc:title />
      </cc:Work>
    </rdf:RDF>
  </metadata>
  <g
     id="layer1"
     transform="translate(-378.86 -540.08)">
    <path
       id="rect4237"
       style="fill:#4d4d4d"
       d="m389.76 557.04c1.816 1.816 4.3594 2.4053 6.6706 1.8147l0.40051-0.40052 0.7071-0.70709s0.7071-0.70711-0.00001-1.4142l-3.0404-3.0404c-0.70711-0.70711-1.4142 0-1.4142 0l-0.35355 0.35355c-0.58761 0.58761-1.5337 0.5876-2.1213 0l-3.3262-3.3262c-0.58759-0.58759-0.58761-1.5337 0-2.1213l0.35356-0.35355s0.70709-0.7071-0.00001-1.4142l-3.0406-3.0406c-0.70711-0.7071-1.4142 0-1.4142 0l-0.7071 0.7071-0.40051 0.40051c-0.59055 2.3112-0.001 4.8548 1.8147 6.6706z" />
  </g>
</svg>
