<?xml version="1.0" encoding="UTF-8" standalone="no"?>
<!-- Created with Inkscape (http://www.inkscape.org/) -->

<svg
   xmlns:dc="http://purl.org/dc/elements/1.1/"
   xmlns:cc="http://creativecommons.org/ns#"
   xmlns:rdf="http://www.w3.org/1999/02/22-rdf-syntax-ns#"
   xmlns:svg="http://www.w3.org/2000/svg"
   xmlns="http://www.w3.org/2000/svg"
   xmlns:sodipodi="http://sodipodi.sourceforge.net/DTD/sodipodi-0.dtd"
   xmlns:inkscape="http://www.inkscape.org/namespaces/inkscape"
   id="svg3813"
   height="22"
   width="22"
   version="1.1"
   inkscape:version="0.48.5 r10040"
   sodipodi:docname="chronometer.svg">
  <defs
     id="defs1043" />
  <sodipodi:namedview
     pagecolor="#ffffff"
     bordercolor="#666666"
     borderopacity="1"
     objecttolerance="10"
     gridtolerance="10"
     guidetolerance="10"
     inkscape:pageopacity="0"
     inkscape:pageshadow="2"
     inkscape:window-width="640"
     inkscape:window-height="480"
     id="namedview1041" />
  <metadata
     id="metadata3818">
    <rdf:RDF>
      <cc:Work
         rdf:about="">
        <dc:format>image/svg+xml</dc:format>
        <dc:type
           rdf:resource="http://purl.org/dc/dcmitype/StillImage" />
        <dc:title />
      </cc:Work>
    </rdf:RDF>
  </metadata>
  <g
     id="layer1"
     transform="translate(-378.86 -540.08)">
    <path
       id="rect4120"
       style="fill:#4d4d4d"
       d="m11 3c-1.108 0-2 0.892-2 2 0 0.0973 0.0117 0.192 0.0254 0.2852-2.9097 0.849-5.0254 3.5237-5.0254 6.7148 0 3.878 3.122 7 7 7s7-3.122 7-7c0-1.586-0.527-3.0415-1.41-4.2129 0.243-0.1821 0.41-0.4587 0.41-0.7871 0-0.554-0.446-1-1-1-0.328 0-0.605 0.1671-0.787 0.4102-0.664-0.5006-1.418-0.8858-2.238-1.125 0.013-0.0932 0.025-0.1879 0.025-0.2852 0-1.108-0.892-2-2-2zm0 1c0.554 0 1 0.446 1 1 0 0.027-0.014 0.0497-0.016 0.0762-0.322-0.0452-0.649-0.0762-0.984-0.0762s-0.662 0.031-0.984 0.0762c-0.002-0.0265-0.016-0.0492-0.016-0.0762 0-0.554 0.446-1 1-1zm0 2c0.26 0 0.514 0.0193 0.764 0.0527 0.034 0.0044 0.069 0.0107 0.103 0.0157 0.242 0.0366 0.481 0.0854 0.713 0.1484 2.551 0.6912 4.42 3.0076 4.42 5.7832 0 3.324-2.676 6-6 6s-6-2.676-6-6c0-2.7756 1.869-5.092 4.4199-5.7832 0.2324-0.063 0.4708-0.1118 0.7131-0.1484 0.034-0.005 0.069-0.0113 0.103-0.0157 0.25-0.0334 0.504-0.0527 0.764-0.0527zm0 1v4c0.554 0 1 0.446 1 1h4c0-2.77-2.23-5-5-5z"
       transform="translate(378.86 540.08)" />
  </g>
</svg>
