<?xml version="1.0" encoding="UTF-8" standalone="no"?>
<!-- Created with Inkscape (http://www.inkscape.org/) -->

<svg
   xmlns:dc="http://purl.org/dc/elements/1.1/"
   xmlns:cc="http://creativecommons.org/ns#"
   xmlns:rdf="http://www.w3.org/1999/02/22-rdf-syntax-ns#"
   xmlns:svg="http://www.w3.org/2000/svg"
   xmlns="http://www.w3.org/2000/svg"
   xmlns:sodipodi="http://sodipodi.sourceforge.net/DTD/sodipodi-0.dtd"
   xmlns:inkscape="http://www.inkscape.org/namespaces/inkscape"
   id="svg3381"
   height="48"
   width="48"
   version="1.1"
   inkscape:version="0.48.5 r10040"
   sodipodi:docname="circle.svg">
  <defs
     id="defs9" />
  <sodipodi:namedview
     pagecolor="#ffffff"
     bordercolor="#666666"
     borderopacity="1"
     objecttolerance="10"
     gridtolerance="10"
     guidetolerance="10"
     inkscape:pageopacity="0"
     inkscape:pageshadow="2"
     inkscape:window-width="640"
     inkscape:window-height="480"
     id="namedview7"
     showgrid="false"
     inkscape:zoom="4.9166667"
     inkscape:cx="24"
     inkscape:cy="24"
     inkscape:window-x="0"
     inkscape:window-y="30"
     inkscape:window-maximized="0"
     inkscape:current-layer="svg3381" />
  <metadata
     id="metadata3386">
    <rdf:RDF>
      <cc:Work
         rdf:about="">
        <dc:format>image/svg+xml</dc:format>
        <dc:type
           rdf:resource="http://purl.org/dc/dcmitype/StillImage" />
        <dc:title />
      </cc:Work>
    </rdf:RDF>
  </metadata>
  <g
     id="layer1"
     transform="translate(-364.57 -499.79)"
     style="fill:#4d4d4d">
    <path
       id="path2991"
       style="fill:#4d4d4d;fill-rule:evenodd"
       d="m41.137 23.914a16.068 14.914 0 1 1 -32.137 0 16.068 14.914 0 1 1 32.137 0z"
       transform="matrix(.93674 0 0 1 365.14 499.79)" />
    <path
       id="path3304"
       style="fill:#4d4d4d;fill-rule:evenodd"
       d="m23.994 9c-3.927 0.0002-7.828 1.618-10.603 4.395-2.775 2.776-4.391 6.678-4.391 10.605 0 3.9267 1.6157 7.8286 4.3906 10.605 2.7749 2.7768 6.6763 4.3943 10.604 4.3945 3.9273 0.000233 7.8309-1.6157 10.609-4.3926 2.778-2.776 4.396-6.68 4.396-10.607h-4c0 2.8799-1.1871 5.7429-3.2246 7.7793-2.037 2.037-4.901 3.221-7.781 3.221s-5.74-1.186-7.775-3.223c-2.035-2.036-3.219-4.897-3.219-7.777s1.184-5.741 3.219-7.777c2.035-2.037 4.895-3.223 7.775-3.223h0.006v-4z"
       transform="translate(364.57 499.79)" />
  </g>
</svg>
