<svg height="22" width="22" xmlns="http://www.w3.org/2000/svg" xmlns:sodipodi="http://sodipodi.sourceforge.net/DTD/sodipodi-0.dtd" xmlns:inkscape="http://www.inkscape.org/namespaces/inkscape">
 <path d="m11 3c-0.973 3.405-3.3544 6.3323-4.4043 8.676-0.3674 0.697-0.5957 1.479-0.5957 2.324 0 2.77 2.23 5 5 5s5-2.23 5-5c0-0.845-0.228-1.627-0.596-2.324-1.05-2.3437-3.431-5.271-4.404-8.676zm2.283 7.717c1.038 0.721 1.717 1.918 1.717 3.283 0 2.216-1.784 4-4 4-1.365 0-2.562-0.679-3.2832-1.717 0.647 0.45 1.4321 0.717 2.2832 0.717 2.216 0 4-1.784 4-4 0-0.851-0.267-1.636-0.717-2.283z" fill="#4d4d4d" transform="matrix(1 0 0 1 0 0)"/>
</svg>
