<?xml version="1.0" encoding="UTF-8" standalone="no"?>
<!-- Created with Inkscape (http://www.inkscape.org/) -->

<svg
   xmlns:dc="http://purl.org/dc/elements/1.1/"
   xmlns:cc="http://creativecommons.org/ns#"
   xmlns:rdf="http://www.w3.org/1999/02/22-rdf-syntax-ns#"
   xmlns:svg="http://www.w3.org/2000/svg"
   xmlns="http://www.w3.org/2000/svg"
   xmlns:sodipodi="http://sodipodi.sourceforge.net/DTD/sodipodi-0.dtd"
   xmlns:inkscape="http://www.inkscape.org/namespaces/inkscape"
   id="svg3813"
   height="22"
   width="22"
   version="1.1"
   inkscape:version="0.48.5 r10040"
   sodipodi:docname="tool-color-picker.svg">
  <defs
     id="defs1172" />
  <sodipodi:namedview
     pagecolor="#ffffff"
     bordercolor="#666666"
     borderopacity="1"
     objecttolerance="10"
     gridtolerance="10"
     guidetolerance="10"
     inkscape:pageopacity="0"
     inkscape:pageshadow="2"
     inkscape:window-width="640"
     inkscape:window-height="480"
     id="namedview1170" />
  <metadata
     id="metadata3818">
    <rdf:RDF>
      <cc:Work
         rdf:about="">
        <dc:format>image/svg+xml</dc:format>
        <dc:type
           rdf:resource="http://purl.org/dc/dcmitype/StillImage" />
        <dc:title />
      </cc:Work>
    </rdf:RDF>
  </metadata>
  <g
     id="layer1"
     transform="translate(-378.86 -540.08)">
    <path
       id="rect4108"
       style="fill:#4d4d4d"
       d="m11 3c-0.973 3.405-3.3544 6.3323-4.4043 8.676-0.3674 0.697-0.5957 1.479-0.5957 2.324 0 2.77 2.23 5 5 5s5-2.23 5-5c0-0.845-0.228-1.627-0.596-2.324-1.05-2.3437-3.431-5.271-4.404-8.676zm2.283 7.717c1.038 0.721 1.717 1.918 1.717 3.283 0 2.216-1.784 4-4 4-1.365 0-2.562-0.679-3.2832-1.717 0.647 0.45 1.4321 0.717 2.2832 0.717 2.216 0 4-1.784 4-4 0-0.851-0.267-1.636-0.717-2.283z"
       transform="translate(378.86 540.08)" />
  </g>
</svg>
