<?xml version="1.0" encoding="UTF-8" standalone="no"?>
<!-- Created with Inkscape (http://www.inkscape.org/) -->

<svg
   xmlns:dc="http://purl.org/dc/elements/1.1/"
   xmlns:cc="http://creativecommons.org/ns#"
   xmlns:rdf="http://www.w3.org/1999/02/22-rdf-syntax-ns#"
   xmlns:svg="http://www.w3.org/2000/svg"
   xmlns="http://www.w3.org/2000/svg"
   xmlns:sodipodi="http://sodipodi.sourceforge.net/DTD/sodipodi-0.dtd"
   xmlns:inkscape="http://www.inkscape.org/namespaces/inkscape"
   id="svg3049"
   height="22"
   width="22"
   version="1.1"
   inkscape:version="0.48.5 r10040"
   sodipodi:docname="contact_invisible_overlay.svg">
  <defs
     id="defs10015" />
  <sodipodi:namedview
     pagecolor="#ffffff"
     bordercolor="#666666"
     borderopacity="1"
     objecttolerance="10"
     gridtolerance="10"
     guidetolerance="10"
     inkscape:pageopacity="0"
     inkscape:pageshadow="2"
     inkscape:window-width="1360"
     inkscape:window-height="712"
     id="namedview10013"
     showgrid="false"
     inkscape:zoom="10.727273"
     inkscape:cx="19.411424"
     inkscape:cy="15.558974"
     inkscape:window-x="-2"
     inkscape:window-y="28"
     inkscape:window-maximized="1"
     inkscape:current-layer="svg3049" />
  <metadata
     id="metadata3054">
    <rdf:RDF>
      <cc:Work
         rdf:about="">
        <dc:format>image/svg+xml</dc:format>
        <dc:type
           rdf:resource="http://purl.org/dc/dcmitype/StillImage" />
        <dc:title />
      </cc:Work>
    </rdf:RDF>
  </metadata>
  <path
     style="fill:#4d4d4d;fill-opacity:1"
     d="m 9.0122621,18.967551 c -2.183215,-0.17408 -3.4473536,-0.445478 -3.8225436,-0.820667 -0.148406,-0.148407 -0.157708,-0.279427 -0.01597,-0.22504 0.237585,0.09117 0.0797,-0.03041 -0.261718,-0.201547 -0.73954,-0.370684 -1.098452,-0.764606 -1.09895,-1.206148 -3.5e-4,-0.277678 0.378054,-1.840002 0.523147,-2.160142 0.131392,-0.289907 0.612865,-0.813507 0.975505,-1.060859 0.283708,-0.193513 0.797136,-0.422167 2.5947916,-1.155589 0.75952,-0.309874 1.005645,-0.441825 1.064317,-0.570598 0.121191,-0.265986 0.091,-0.429955 -0.129959,-0.705917 -0.113455,-0.141693 -0.33322,-0.529038 -0.488366,-0.860765 -0.155146,-0.3317275 -0.32801,-0.6207635 -0.38414,-0.6423025 -0.174407,-0.06692 -0.49855,-0.576197 -0.627326,-0.985608 -0.149191,-0.474316 -0.105209,-0.784871 0.15494,-1.094042 0.166386,-0.197738 0.185617,-0.27236 0.166901,-0.647624 -0.065,-1.303218 0.511387,-2.550906 1.453018,-3.145333 0.9875289,-0.6234 2.6001619,-0.649948 3.6078639,-0.05939 0.97512,0.571458 1.487944,1.586237 1.487944,2.944349 0,0.628607 0.0085,0.665032 0.209373,0.893778 0.180669,0.205771 0.20928,0.293146 0.208692,0.637335 -4.61e-4,0.270501 -0.05319,0.511647 -0.16386,0.749289 -0.154187,0.331108 -0.547403,0.801137 -0.670216,0.801137 -0.03097,0 -0.12649,0.172898 -0.212259,0.384218 -0.08577,0.2113185 -0.262149,0.5605915 -0.391957,0.7761595 -0.280774,0.466271 -0.304818,0.77966 -0.07898,1.029535 0.102039,0.112903 0.677761,0.383193 1.643995,0.771821 1.734504,0.697635 1.766696,0.713186 2.222651,1.073594 0.538622,0.425758 0.75706,0.82876 0.999834,1.844627 0.28769,1.203797 0.281475,1.439326 -0.04758,1.803551 -0.142127,0.157316 -0.410974,0.373162 -0.597438,0.479656 -0.233011,0.13308 -0.306437,0.20613 -0.23481,0.233617 0.08571,0.03288 0.08955,0.07119 0.02166,0.21558 -0.267651,0.569282 -2.768461,0.953685 -6.084603,0.93527 -0.959629,-0.0053 -1.8704049,-0.01972 -2.0239459,-0.03195 z m 4.8412199,-1.17591 c 1.561377,-0.187943 3.057256,-0.629631 3.481183,-1.027888 0.08648,-0.08124 0.157236,-0.221015 0.157236,-0.310602 0,-0.332972 -0.358898,-1.666953 -0.524516,-1.949555 -0.276481,-0.471785 -0.722809,-0.733419 -2.468888,-1.447246 -0.897861,-0.367062 -1.710709,-0.739368 -1.806331,-0.827349 -0.413048,-0.380038 -0.583181,-1.311765 -0.30467,-1.668513 0.205005,-0.262596 0.544735,-0.9075965 0.639065,-1.2133115 0.103386,-0.335073 0.255451,-0.523434 0.42257,-0.523434 0.142878,0 0.369928,-0.342418 0.468629,-0.706746 0.07681,-0.283506 0.05818,-0.328475 -0.205434,-0.496049 -0.184252,-0.117125 -0.185471,-0.123577 -0.210426,-1.115048 -0.02321,-0.921569 -0.04028,-1.03026 -0.225016,-1.432343 -0.249764,-0.543599 -0.719975,-0.996102 -1.232233,-1.18583 -1.352974,-0.501107 -2.8081309,-0.04458 -3.3439969,1.049088 -0.277903,0.567189 -0.376892,1.13158 -0.326748,1.862981 0.04361,0.636064 0.01602,0.734646 -0.241437,0.863008 -0.225851,0.112598 -0.237173,0.250635 -0.05525,0.673543 0.106225,0.246925 0.235111,0.410877 0.409583,0.521016 0.186667,0.117838 0.278824,0.241847 0.34545,0.464846 0.127532,0.426845 0.324445,0.8012095 0.652388,1.2402875 0.238309,0.319073 0.280387,0.425501 0.270595,0.684414 -0.01399,0.369777 -0.142389,0.696785 -0.370054,0.942442 -0.112216,0.121083 -0.671929,0.385744 -1.666763,0.788133 -1.8236206,0.737616 -2.0921546,0.879023 -2.4723986,1.301946 -0.270027,0.300336 -0.318266,0.412831 -0.516569,1.204687 -0.120303,0.48038 -0.218731,0.93158 -0.218731,1.002667 0,0.557328 2.0578956,1.185803 4.6062236,1.406724 1.0206149,0.08848 3.6195099,0.03258 4.7365389,-0.101868 z"
     id="path11038-7"
     inkscape:connector-curvature="0"
     sodipodi:nodetypes="ssscsssssssssssssscsssssssssssssssssssssssssssssssssssssssssssss" />
</svg>
