<svg height="22" width="22" xmlns="http://www.w3.org/2000/svg" xmlns:sodipodi="http://sodipodi.sourceforge.net/DTD/sodipodi-0.dtd" xmlns:inkscape="http://www.inkscape.org/namespaces/inkscape">
 <path d="m11 2c-4.986 0-9 4.014-9 9s4.014 9 9 9 9-4.014 9-9-4.014-9-9-9zm-1.25 1.3125c0.2368-0.0101 3.212 0.9267 3.375 1.0625 0.044 0.0373-0.122 0.9835-0.375 2.0938l-0.469 2.0312-1.25 0.0938-1.2498 0.125-0.0624 0.4687c-0.0796 0.7137 0.1332 2.7915 0.3432 3.5315l0.188 0.656 1.25-0.094 1.25-0.125 0.844 1.906c0.465 1.048 0.827 1.92 0.812 1.938s-0.751 0.439-1.625 0.906c-0.873 0.468-1.649 0.815-1.719 0.782-0.236-0.116-1.3408-1.628-1.8432-2.5-1.7344-3.011-2.1174-7.1006-0.9376-10.282 0.5207-1.4038 1.1869-2.5814 1.4688-2.5935z" fill="#008000" transform="matrix(1 0 0 1 0 0)"/>
</svg>
