<svg height="22" viewBox="0 0 22 22" width="22" xmlns="http://www.w3.org/2000/svg" xmlns:sodipodi="http://sodipodi.sourceforge.net/DTD/sodipodi-0.dtd" xmlns:inkscape="http://www.inkscape.org/namespaces/inkscape">
 <path d="m4 3v4.125c-1.6202 0.0044-2.3018 0.0223-2.4062 0.0625-0.2042 0.0786-0.4395 0.2663-0.5313 0.4687l-0.0625 0.1876v2.1872 2.219l0.0625 0.156c0.1377 0.263 0.3471 0.412 0.625 0.5 0.0655 0.023 0.896 0.06 2.3125 0.063v6.031h1 8 1l4-4v-1.406-10.594h-1-12-1zm1 1h12v10h-4v1 3h-8v-5.031c0.5797-0.001 0.841 0.002 1.6562 0l4.8438-0.031 0.156-0.063c0.203-0.092 0.422-0.328 0.5-0.531 0.057-0.148 0.063-0.267 0.063-2.344v-2.1562l-0.094-0.1876c-0.092-0.2024-0.296-0.3897-0.5-0.4687-0.151-0.05-0.316-0.0625-5.0312-0.0625-0.8906 0-0.9982-0.0005-1.5938 0v-3.125zm-0.4062 4.5312c0.2701 0.0232 0.5747 0.1126 0.7187 0.1876l0.0937 0.0624-0.125 0.3126-0.125 0.3124-0.1562-0.0624-0.0625-0.0313c-0.0107-0.0036-0.0207 0.0035-0.0313 0-0.0964-0.0326-0.1699-0.0799-0.25-0.0937-0.011-0.0022-0.0204 0.0017-0.0312 0-0.2525-0.038-0.4233 0.0543-0.5625 0.2187-0.0048 0.0057-0.0265-0.0059-0.0313 0-0.2032 0.255-0.2283 0.8495-0.0624 1.1875 0.0073 0.015 0.0239 0.018 0.0312 0.031 0.0237 0.044 0.0366 0.093 0.0625 0.125 0.0076 0.011 0.0233 0.022 0.0313 0.031 0.0243 0.024 0.0328 0.047 0.0624 0.063 0.0171 0.014 0.0431 0.021 0.0626 0.031 0.0325 0.012 0.0841 0.026 0.125 0.032 0.0713 0.015 0.1396 0.034 0.25 0.031 0.0885-0.001 0.15-0.019 0.2187-0.031 0.0591-0.011 0.1265-0.014 0.1875-0.032 0.0741-0.022 0.1684-0.053 0.25-0.125 0.0407-0.035 0.0312 0.015 0.0312 0.344v0.375l-0.2187 0.062c-0.0178 0.005-0.0438-0.004-0.0625 0-0.1332 0.029-0.2907 0.05-0.4375 0.063-0.1591 0.011-0.3211 0.017-0.4375 0-0.0102-0.002-0.0214 0.002-0.0312 0-0.0334-0.006-0.0612-0.023-0.0938-0.031-0.3588-0.093-0.6619-0.318-0.8125-0.625-0.2262-0.462-0.226-1.2268 0-1.6878 0.2461-0.502 0.794-0.802 1.4063-0.75zm2.1874 0c0.1154-0.0063 0.2251 0.0148 0.3438 0.0313 0.2564 0.0358 0.6346 0.1365 0.6875 0.1875 0.0298 0.0286-0.2094 0.625-0.25 0.625-0.0136 0-0.1013-0.0285-0.1875-0.0625-0.3693-0.1452-0.757-0.153-0.8125 0-0.0483 0.1332 0.027 0.2003 0.4375 0.4063 0.519 0.2604 0.6481 0.3582 0.75 0.5622 0.1163 0.233 0.1151 0.582 0 0.813-0.1425 0.285-0.4486 0.468-0.8438 0.531-0.3366 0.055-0.7019 0.018-1-0.094l-0.1874-0.062v-0.375-0.375l0.1874 0.062c0.3934 0.174 0.8806 0.244 1.0313 0.125 0.0877-0.068 0.0858-0.148 0.0313-0.25-0.0189-0.035-0.185-0.144-0.4063-0.25-0.6308-0.302-0.8178-0.541-0.8125-0.9998 0.0029-0.2476 0.0426-0.3665 0.1875-0.5312 0.1629-0.185 0.4977-0.3246 0.8437-0.3438zm2.4376 0c0.1061-0.0037 0.2269 0.015 0.3437 0.0313 0.2486 0.0347 0.6315 0.1365 0.6875 0.1875 0.028 0.0256-0.212 0.625-0.25 0.625-0.0116 0-0.086-0.0275-0.1875-0.0625-0.4157-0.1449-0.7413-0.1247-0.8125 0.0313-0.0565 0.1238 0.0346 0.1766 0.4375 0.375 0.4899 0.241 0.6495 0.3612 0.7505 0.5622 0.064 0.129 0.063 0.2 0.062 0.375-0.001 0.121-0.008 0.28-0.031 0.344-0.093 0.26-0.343 0.47-0.6565 0.562-0.3397 0.101-0.8778 0.097-1.2187-0.031l-0.1876-0.062v-0.375-0.375l0.1876 0.062c0.3933 0.174 0.8805 0.244 1.0312 0.125 0.0874-0.068 0.0853-0.149 0.0312-0.25-0.0181-0.034-0.2083-0.17-0.4374-0.281-0.4906-0.238-0.6687-0.3828-0.75-0.6562-0.194-0.6519 0.257-1.1611 1-1.1876z" fill="#4d4d4d" transform="matrix(1 0 0 1 0 0)"/>
</svg>
