<svg height="22" width="22" xmlns="http://www.w3.org/2000/svg" xmlns:sodipodi="http://sodipodi.sourceforge.net/DTD/sodipodi-0.dtd" xmlns:inkscape="http://www.inkscape.org/namespaces/inkscape">
 <path d="m3 3v14h16v-14h-16zm1 1h14v12h-14v-12zm1 1v4h2l2-2v-2h-4zm8.5 1c-1.939 0-3.5 1.561-3.5 3.5s1.561 3.5 3.5 3.5 3.5-1.561 3.5-3.5-1.561-3.5-3.5-3.5zm0 1c1.385 0 2.5 1.115 2.5 2.5s-1.115 2.5-2.5 2.5-2.5-1.115-2.5-2.5 1.115-2.5 2.5-2.5zm-4.5 1l-1 1h1v-1zm4 0v2h1 1v-1h-1v-1h-1zm-8 4v2h2l1 1v-1h0.2363v-2h-3.2363zm-2 6v1h16v-1h-16z" fill="#4d4d4d" transform="matrix(1 0 0 1 0 0)"/>
</svg>
