<?xml version="1.0" encoding="UTF-8" standalone="no"?>
<!-- Created with Inkscape (http://www.inkscape.org/) -->

<svg
   xmlns:dc="http://purl.org/dc/elements/1.1/"
   xmlns:cc="http://creativecommons.org/ns#"
   xmlns:rdf="http://www.w3.org/1999/02/22-rdf-syntax-ns#"
   xmlns:svg="http://www.w3.org/2000/svg"
   xmlns="http://www.w3.org/2000/svg"
   xmlns:sodipodi="http://sodipodi.sourceforge.net/DTD/sodipodi-0.dtd"
   xmlns:inkscape="http://www.inkscape.org/namespaces/inkscape"
   id="svg3813"
   height="22"
   width="22"
   version="1.1"
   inkscape:version="0.48.5 r10040"
   sodipodi:docname="debug-step-into-instruction.svg">
  <defs
     id="defs1662" />
  <sodipodi:namedview
     pagecolor="#ffffff"
     bordercolor="#666666"
     borderopacity="1"
     objecttolerance="10"
     gridtolerance="10"
     guidetolerance="10"
     inkscape:pageopacity="0"
     inkscape:pageshadow="2"
     inkscape:window-width="640"
     inkscape:window-height="480"
     id="namedview1660" />
  <metadata
     id="metadata3818">
    <rdf:RDF>
      <cc:Work
         rdf:about="">
        <dc:format>image/svg+xml</dc:format>
        <dc:type
           rdf:resource="http://purl.org/dc/dcmitype/StillImage" />
        <dc:title />
      </cc:Work>
    </rdf:RDF>
  </metadata>
  <g
     id="layer1"
     transform="translate(-378.86 -540.08)">
    <g
       id="layer1-9">
      <path
         id="path4136"
         style="fill:#4d4d4d"
         d="m11 9c-0.554 0-1 0.446-1 1s0.446 1 1 1 1-0.446 1-1-0.446-1-1-1zm-1 3v4h2v-4z"
         transform="translate(378.86 540.08)" />
      <path
         id="path4136-8"
         style="fill:#4d4d4d"
         d="m381.86 543.08v4 12h1 15v-1-11-2-2h-5v1 3h4v11h-14v-11h4v-3-1h-5zm6.4277 6c-1.0661 0-1.5137 0.35225-1.5137 1.2539v1.2226c0 0.55691-0.0205 1.2012-0.60937 1.2012h-0.30469v0.64454h0.30469c0.58889 0 0.60937 0.64426 0.60937 1.2012v1.2226c0 0.90166 0.44758 1.2539 1.5137 1.2539v-0.5918c-0.71072 0-0.7207-0.23916-0.7207-1.1055v-1.0078c0-0.41546-0.12361-1.0347-0.72265-1.291 0.59904-0.25635 0.72265-0.8736 0.72265-1.2891v-1.0176c0-0.86631 0.01-1.1055 0.7207-1.1055v-0.5918zm3.1367 0v0.5918c0.71073 0 0.72852 0.23916 0.72852 1.1055v1.0176c0 0.41547 0.12361 1.0327 0.72266 1.2891-0.59905 0.25635-0.72266 0.87555-0.72266 1.291v1.0078c0 0.86631-0.0177 1.1055-0.72852 1.1055v0.5918c1.0661 0 1.5215-0.35225 1.5215-1.2539v-1.2226c0-0.55691 0.0404-1.2012 0.61914-1.2012h0.29492v-0.64454h-0.29492c-0.57874 0-0.61915-0.64426-0.61914-1.2012v-1.2226c0-0.90166-0.45539-1.2539-1.5215-1.2539z" />
      <path
         id="path4133"
         d="m387.86 543.08 2 3 2-3z"
         style="fill:#f60;fill-rule:evenodd" />
    </g>
  </g>
</svg>
