<?xml version="1.0" encoding="UTF-8" standalone="no"?>
<!-- Created with Inkscape (http://www.inkscape.org/) -->

<svg
   xmlns:dc="http://purl.org/dc/elements/1.1/"
   xmlns:cc="http://creativecommons.org/ns#"
   xmlns:rdf="http://www.w3.org/1999/02/22-rdf-syntax-ns#"
   xmlns:svg="http://www.w3.org/2000/svg"
   xmlns="http://www.w3.org/2000/svg"
   xmlns:sodipodi="http://sodipodi.sourceforge.net/DTD/sodipodi-0.dtd"
   xmlns:inkscape="http://www.inkscape.org/namespaces/inkscape"
   id="svg3760"
   height="24"
   width="24"
   version="1.1"
   inkscape:version="0.48.5 r10040"
   sodipodi:docname="dialog-cancel.svg">
  <defs
     id="defs1738" />
  <sodipodi:namedview
     pagecolor="#ffffff"
     bordercolor="#666666"
     borderopacity="1"
     objecttolerance="10"
     gridtolerance="10"
     guidetolerance="10"
     inkscape:pageopacity="0"
     inkscape:pageshadow="2"
     inkscape:window-width="640"
     inkscape:window-height="480"
     id="namedview1736" />
  <metadata
     id="metadata3765">
    <rdf:RDF>
      <cc:Work
         rdf:about="">
        <dc:format>image/svg+xml</dc:format>
        <dc:type
           rdf:resource="http://purl.org/dc/dcmitype/StillImage" />
        <dc:title />
      </cc:Work>
    </rdf:RDF>
  </metadata>
  <g
     id="layer1"
     transform="translate(-550.29 -606.65)">
    <g
       id="g4216"
       style="fill:#4d4d4d">
      <path
         id="path4143"
         d="m12 4a8 8 0 0 0 -8 8 8 8 0 0 0 8 8 8 8 0 0 0 8 -8 8 8 0 0 0 -8 -8zm0 0.8887a7.1111 7.1111 0 0 1 7.111 7.1113 7.1111 7.1111 0 0 1 -7.111 7.111 7.1111 7.1111 0 0 1 -7.1113 -7.111 7.1111 7.1111 0 0 1 7.1113 -7.1113z"
         style="fill:#4d4d4d"
         transform="translate(550.29 606.65)" />
      <rect
         id="rect4203"
         style="fill:#4d4d4d"
         transform="rotate(-45)"
         height="15.971"
         width="1"
         y="827.06"
         x="-40.354" />
    </g>
  </g>
</svg>
