<svg height="24" width="24" xmlns="http://www.w3.org/2000/svg" xmlns:sodipodi="http://sodipodi.sourceforge.net/DTD/sodipodi-0.dtd" xmlns:inkscape="http://www.inkscape.org/namespaces/inkscape">
 <g fill="#4d4d4d" transform="matrix(1 0 0 1 -550.29 -606.65)">
  <path d="m12 4a8 8 0 0 0 -8 8 8 8 0 0 0 8 8 8 8 0 0 0 8 -8 8 8 0 0 0 -8 -8zm0 0.8887a7.1111 7.1111 0 0 1 7.111 7.1113 7.1111 7.1111 0 0 1 -7.111 7.111 7.1111 7.1111 0 0 1 -7.1113 -7.111 7.1111 7.1111 0 0 1 7.1113 -7.1113z" transform="matrix(1 0 0 1 550.29 606.65)"/>
  <rect x="-40.35" y="827.06" height="15.971" width="1" transform="matrix(0.70711 -0.70711 0.70711 0.70711 0 0)"/>
 </g>
</svg>
