<svg height="22" width="22" xmlns="http://www.w3.org/2000/svg" xmlns:sodipodi="http://sodipodi.sourceforge.net/DTD/sodipodi-0.dtd" xmlns:inkscape="http://www.inkscape.org/namespaces/inkscape">
 <path d="m18.293 3l-7.293 7.293 0.707 0.707 7.293-7.293-0.707-0.707zm-8 8l-7.293 7.293 0.707 0.707 7.293-7.293-0.707-0.707z" fill="#4d4d4d" transform="matrix(1 0 0 1 0 0)"/>
 <path d="m13.293 5l-2 2-1.793 1.793 3.707 3.707 1.793-1.793 2-2-3.707-3.707zm-4.5 4.5l-0.793 0.793-2 2 3.707 3.707 2-2 0.793-0.793-3.707-3.707z" fill="#4d4d4d" transform="matrix(1 0 0 1 0 0)"/>
</svg>
