<svg height="22" viewBox="0 0 22 22" width="22" xmlns="http://www.w3.org/2000/svg" xmlns:sodipodi="http://sodipodi.sourceforge.net/DTD/sodipodi-0.dtd" xmlns:inkscape="http://www.inkscape.org/namespaces/inkscape">
 <path d="m4 1033.4v1 14 1h5v-1h-4v-14h12v7h1v-8h-14zm12 8-0.99609 0.9941h-0.0039l-5 4.9942 0.0078 0.01-0.0039 1.002h-0.0039v0.9902 0.01h2l0.0059-0.01h0.0039 0.0098l-0.0059-0.01 0.98633-0.9864 4-3.9921-0.70508-0.709-4.9902 4.9824-0.59375-0.5918 4.9922-4.9844 0.5918 0.5938 0.70508 0.7031 1-1-2-1.9961z" fill="#4d4d4d" transform="matrix(1 0 0 1 0 -1030.4)"/>
</svg>
