<svg viewBox="0 0 16 16" height="16" width="16" xmlns="http://www.w3.org/2000/svg" xmlns:sodipodi="http://sodipodi.sourceforge.net/DTD/sodipodi-0.dtd" xmlns:inkscape="http://www.inkscape.org/namespaces/inkscape">
 <path stroke="none" stroke-dasharray="none" stroke-dashoffset="0" stroke-linecap="butt" stroke-linejoin="miter" color="#000000" stroke-miterlimit="4" stroke-opacity="1" color-interpolation="sRGB" image-rendering="auto" stroke-width="1" color-interpolation-filters="linearRGB" color-rendering="auto" d="M 8,2 C 4.676,2 2,4.676 2,8 c 0,3.324 2.676,6 6,6 3.324,0 6,-2.676 6,-6 C 14,4.676 11.324,2 8,2 Z m 0,1 c 2.77,0 5,2.23 5,5 0,2.77 -2.23,5 -5,5 C 5.23,13 3,10.77 3,8 3,5.23 5.23,3 8,3 Z M 7,4 7,9 7.4414062,9 8,9 11,9 11,8 8,8 8,4 Z" text-rendering="auto" display="inline" visibility="visible" fill="#bebebe" fill-opacity="1" opacity="1" fill-rule="nonzero" shape-rendering="auto" sodipodi:nodetypes="ssssssssssccccccccc" inkscape:connector-curvature="0"/>
</svg>
