<?xml version="1.0" encoding="UTF-8" standalone="no"?>
<!-- Created with Inkscape (http://www.inkscape.org/) -->

<svg
   xmlns:dc="http://purl.org/dc/elements/1.1/"
   xmlns:cc="http://creativecommons.org/ns#"
   xmlns:rdf="http://www.w3.org/1999/02/22-rdf-syntax-ns#"
   xmlns:svg="http://www.w3.org/2000/svg"
   xmlns="http://www.w3.org/2000/svg"
   xmlns:sodipodi="http://sodipodi.sourceforge.net/DTD/sodipodi-0.dtd"
   xmlns:inkscape="http://www.inkscape.org/namespaces/inkscape"
   id="svg2"
   height="22"
   viewBox="0 0 22 22"
   width="22"
   version="1.1"
   inkscape:version="0.48.5 r10040"
   sodipodi:docname="document-page-setup.svg">
  <sodipodi:namedview
     pagecolor="#ffffff"
     bordercolor="#666666"
     borderopacity="1"
     objecttolerance="10"
     gridtolerance="10"
     guidetolerance="10"
     inkscape:pageopacity="0"
     inkscape:pageshadow="2"
     inkscape:window-width="640"
     inkscape:window-height="480"
     id="namedview2203" />
  <defs
     id="defs4">
    <clipPath
       id="clipPath4355">
      <rect
         id="rect4357"
         style="fill:#fff"
         rx="6"
         ry="6"
         height="80"
         width="84"
         y="6"
         x="6" />
    </clipPath>
    <linearGradient
       id="linearGradient3613"
       x1="48"
       gradientUnits="userSpaceOnUse"
       y1="20.221"
       x2="48"
       y2="138.66">
      <stop
         id="stop3739"
         style="stop-color:#fff"
         offset="0" />
      <stop
         id="stop3741"
         style="stop-color:#fff;stop-opacity:0"
         offset="1" />
    </linearGradient>
    <filter
       id="filter3794"
       height="1.384"
       width="1.384"
       color-interpolation-filters="sRGB"
       y="-.192"
       x="-.192">
      <feGaussianBlur
         id="feGaussianBlur3796"
         stdDeviation="5.28" />
    </filter>
    <filter
       id="filter3174"
       color-interpolation-filters="sRGB">
      <feGaussianBlur
         id="feGaussianBlur3176"
         stdDeviation="1.71" />
    </filter>
    <linearGradient
       id="ButtonShadow"
       x1="45.448"
       gradientUnits="userSpaceOnUse"
       y1="92.54"
       gradientTransform="scale(1.0059 .99417)"
       x2="45.448"
       y2="7.0165">
      <stop
         id="stop3750"
         offset="0" />
      <stop
         id="stop3752"
         style="stop-opacity:.58824"
         offset="1" />
    </linearGradient>
  </defs>
  <metadata
     id="metadata7">
    <rdf:RDF>
      <cc:Work
         rdf:about="">
        <dc:format>image/svg+xml</dc:format>
        <dc:type
           rdf:resource="http://purl.org/dc/dcmitype/StillImage" />
        <dc:title />
      </cc:Work>
    </rdf:RDF>
  </metadata>
  <g
     id="layer1"
     transform="translate(0 -1030.4)">
    <path
       id="rect4139"
       style="fill:#4d4d4d"
       d="m4 3v16h1 7v-1h-7v-14h12v9h1v-10h-1-12z"
       transform="translate(0 1030.4)" />
    <g
       id="g3194"
       transform="translate(-9.9562 977.38)">
      <g
         id="layer2"
         style="display:none">
        <rect
           id="rect3745"
           style="opacity:.9;filter:url(#filter3174);fill:url(#ButtonShadow)"
           rx="6"
           ry="6"
           height="85"
           width="86"
           y="7"
           x="5" />
      </g>
      <g
         id="layer5"
         style="display:none">
        <rect
           id="rect3171"
           style="opacity:.1;filter:url(#filter3794);stroke:#fff;stroke-linecap:round;stroke-width:.5;fill:url(#linearGradient3613)"
           clip-path="url(#clipPath4355)"
           rx="12"
           ry="12"
           height="62"
           width="66"
           y="15"
           x="15" />
      </g>
      <g
         id="layer6">
        <path
           id="path3983"
           d="m24.588 66c-0.11806 0-0.21562 0.09554-0.21562 0.21562v0.42656c-0.21111 0.05625-0.41075 0.1411-0.59531 0.24844l-0.30469-0.30469c-0.04246-0.04246-0.09037-0.06047-0.14531-0.06094-0.05494-0.000473-0.11294 0.0192-0.15469 0.06094l-0.58594 0.58594c-0.08348 0.08348-0.08022 0.21509 0.0047 0.3l0.3 0.30469c-0.10734 0.18456-0.19219 0.38421-0.24844 0.59531h-0.42188c-0.121 0-0.221 0.097-0.221 0.216v0.825c0 0.11806 0.10023 0.21562 0.22031 0.21562h0.42188c0.05625 0.21111 0.1411 0.41075 0.24844 0.59531l-0.3 0.3c-0.08491 0.08491-0.08818 0.2212-0.0047 0.30469l0.58594 0.58594c0.08348 0.08348 0.21509 0.08022 0.3-0.0047l0.30469-0.3c0.18456 0.10734 0.38421 0.19219 0.59531 0.24844v0.42188c0.001 0.12 0.098 0.22 0.217 0.22h0.825c0.11806 0 0.21562-0.10023 0.21562-0.22031v-0.42188c0.21111-0.05625 0.41075-0.1411 0.59531-0.24844l0.30469 0.3c0.08491 0.08491 0.21652 0.08817 0.3 0.0047l0.58594-0.58594c0.08348-0.08348 0.08022-0.21978-0.0047-0.30469l-0.3-0.3c0.10734-0.18456 0.19219-0.3842 0.24844-0.59531h0.42188c0.12-0.001 0.22-0.098 0.22-0.217v-0.825c0-0.11806-0.10023-0.21562-0.22031-0.21562h-0.42188c-0.05625-0.21111-0.1411-0.41075-0.24844-0.59531l0.3-0.30469c0.08491-0.08491 0.08818-0.21652 0.0047-0.3l-0.58594-0.58594c-0.08348-0.08348-0.21509-0.08491-0.3 0l-0.30469 0.30469c-0.18456-0.10734-0.3842-0.19219-0.59531-0.24844v-0.42656c-0.001-0.119-0.098-0.215-0.217-0.215h-0.825zm0.412 2.091c0.50065 0 0.90469 0.40872 0.90469 0.90938 0 0.50065-0.40404 0.90469-0.90469 0.90469s-0.90469-0.40404-0.90469-0.90469 0.40404-0.90938 0.90469-0.90938z"
           style="display:block;fill:#4d4d4d" />
      </g>
    </g>
  </g>
</svg>
