<svg viewBox="0 0 16 16" height="16" width="16" xmlns="http://www.w3.org/2000/svg" xmlns:sodipodi="http://sodipodi.sourceforge.net/DTD/sodipodi-0.dtd" xmlns:inkscape="http://www.inkscape.org/namespaces/inkscape">
 <path stroke="none" stroke-dasharray="none" stroke-dashoffset="0" stroke-linecap="butt" stroke-linejoin="miter" color="#000000" stroke-miterlimit="4" stroke-opacity="1" color-interpolation="sRGB" image-rendering="auto" stroke-width="1" color-interpolation-filters="linearRGB" color-rendering="auto" d="m 0,2 0,1 0,11 1,0 9,0 0,-1 L 1.414062,13 6.7070312,7.7070312 8,9 9.2929688,7.7070312 10,7 11,6 14,3 15,3 15,9 16,9 16,2 1,2 0,2 Z M 1,3 2,3 6,7 1,12 1,3 Z M 3.414062,3 12.585938,3 8,7.5859375 3.414062,3 Z M 13.5,9 12.792969,9.707031 14.085938,11 11,11 l 0,1 3.085938,0 -1.292969,1.292969 L 13.5,14 15.792969,11.707031 16,11.5 15.792969,11.292969 13.5,9 Z" text-rendering="auto" display="inline" visibility="visible" fill="#bebebe" fill-opacity="1" opacity="1" fill-rule="nonzero" shape-rendering="auto" inkscape:connector-curvature="0"/>
</svg>
