<svg height="22" viewBox="0 0 22 22" width="22" xmlns="http://www.w3.org/2000/svg" xmlns:sodipodi="http://sodipodi.sourceforge.net/DTD/sodipodi-0.dtd" xmlns:inkscape="http://www.inkscape.org/namespaces/inkscape">
 <path d="m4 3v1 7 2h2v-2h-1v-7h12v7h1v-8h-13zm4 8v2h2v-2zm7.5 2c-0.831 0-1.5 0.669-1.5 1.5v1.5h-1v3h5v-3h-1v-1.5c0-0.831-0.669-1.5-1.5-1.5zm-9.5 1v2h2v-2zm9.5 0c0.277 0 0.5 0.223 0.5 0.5v1.5h-1v-1.5c0-0.277 0.223-0.5 0.5-0.5zm-11.5 3v2h1 1v-2zm4 0v2h2v-2z" fill="#4d4d4d" transform="matrix(1 0 0 1 0 0)"/>
</svg>
