<svg height="22" width="22" xmlns="http://www.w3.org/2000/svg" xmlns:sodipodi="http://sodipodi.sourceforge.net/DTD/sodipodi-0.dtd" xmlns:inkscape="http://www.inkscape.org/namespaces/inkscape">
 <path d="M 11,3 C 8.784,3 7,4.784 7,7 l 0,4 -2,0 0,1 0,7 1,0 10,0 1,0 0,-8 -1,0 -1,0 0,-4 C 15,4.784 13.216,3 11,3 z m 0,1 c 1.662,0 3,1.561 3,3.5 L 14,11 8,11 8,7.5 C 8,5.561 9.338,4 11,4 z" fill="#4d4d4d" sodipodi:nodetypes="ssccccccccccssssccss" inkscape:connector-curvature="0" transform="matrix(1 0 0 1 0 0)"/>
</svg>
