<svg height="22" viewBox="0 0 22 22" width="22" xmlns="http://www.w3.org/2000/svg" xmlns:sodipodi="http://sodipodi.sourceforge.net/DTD/sodipodi-0.dtd" xmlns:inkscape="http://www.inkscape.org/namespaces/inkscape">
 <path d="m4 2.998v0.002 2h2v-2h2v2h2v-2h2v2h2v-2h2v2h2v-2-0.002h-1-12-1zm2 3.002v2h2v-2h-2zm4 0v2h2v-2h-2zm4 0v2h2v-2h-2zm-10 3v2 8h1 7v-1h-7v-7h1v-2h-2zm4 0v2h2v-2h-2zm5 2c-1.662 0-3 1.338-3 3s1.338 3 3 3c0.649 0 1.246-0.209 1.736-0.557l2.557 2.557 0.707-0.707-2.557-2.557c0.348-0.49 0.557-1.087 0.557-1.736 0-1.662-1.338-3-3-3zm0 1c1.108 0 2 0.892 2 2s-0.892 2-2 2-2-0.892-2-2 0.892-2 2-2z" fill="#4d4d4d" transform="matrix(1 0 0 1 0 0)"/>
</svg>
