<svg height="22" viewBox="0 0 22 22" width="22" xmlns="http://www.w3.org/2000/svg" xmlns:sodipodi="http://sodipodi.sourceforge.net/DTD/sodipodi-0.dtd" xmlns:inkscape="http://www.inkscape.org/namespaces/inkscape">
 <path d="m4 2.998v0.002 2h2v-2h2v2h2v-2h2v2h2v-2h2v2h2v-2-0.002h-1-12-1zm2 3.002v2h2v-2h-2zm4 0v2h2v-2h-2zm4 0v2h2v-2h-2zm-10 3v2 8h1 8 1v-0.01l0.008 0.01 3.992-3.992v-0.01-1.406-2.592-2h-2v2h1v3h-4v1 3h-8v-7h1v-2h-2zm4 0v2h2v-2h-2zm4 0v2h2v-2h-2z" fill="#4d4d4d" transform="matrix(1 0 0 1 0 0)"/>
</svg>
