<svg height="22" viewBox="0 0 22 22" width="22" xmlns="http://www.w3.org/2000/svg" xmlns:sodipodi="http://sodipodi.sourceforge.net/DTD/sodipodi-0.dtd" xmlns:inkscape="http://www.inkscape.org/namespaces/inkscape">
 <path d="m4 3v16h1 7v-1h-7v-14h12v9h1v-10h-1-12z" fill="#4d4d4d" transform="matrix(1 0 0 1 0 0)"/>
 <path d="m24.588 66c-0.11806 0-0.21562 0.09554-0.21562 0.21562v0.42656c-0.21111 0.05625-0.41075 0.1411-0.59531 0.24844l-0.30469-0.30469c-0.04246-0.04246-0.09037-0.06047-0.14531-0.06094-0.05494-0.000473-0.11294 0.0192-0.15469 0.06094l-0.58594 0.58594c-0.08348 0.08348-0.08022 0.21509 0.0047 0.3l0.3 0.30469c-0.10734 0.18456-0.19219 0.38421-0.24844 0.59531h-0.42188c-0.121 0-0.221 0.097-0.221 0.216v0.825c0 0.11806 0.10023 0.21562 0.22031 0.21562h0.42188c0.05625 0.21111 0.1411 0.41075 0.24844 0.59531l-0.3 0.3c-0.08491 0.08491-0.08818 0.2212-0.0047 0.30469l0.58594 0.58594c0.08348 0.08348 0.21509 0.08022 0.3-0.0047l0.30469-0.3c0.18456 0.10734 0.38421 0.19219 0.59531 0.24844v0.42188c0.001 0.12 0.098 0.22 0.217 0.22h0.825c0.11806 0 0.21562-0.10023 0.21562-0.22031v-0.42188c0.21111-0.05625 0.41075-0.1411 0.59531-0.24844l0.30469 0.3c0.08491 0.08491 0.21652 0.08817 0.3 0.0047l0.58594-0.58594c0.08348-0.08348 0.08022-0.21978-0.0047-0.30469l-0.3-0.3c0.10734-0.18456 0.19219-0.3842 0.24844-0.59531h0.42188c0.12-0.001 0.22-0.098 0.22-0.217v-0.825c0-0.11806-0.10023-0.21562-0.22031-0.21562h-0.42188c-0.05625-0.21111-0.1411-0.41075-0.24844-0.59531l0.3-0.30469c0.08491-0.08491 0.08818-0.21652 0.0047-0.3l-0.58594-0.58594c-0.08348-0.08348-0.21509-0.08491-0.3 0l-0.30469 0.30469c-0.18456-0.10734-0.3842-0.19219-0.59531-0.24844v-0.42656c-0.001-0.119-0.098-0.215-0.217-0.215h-0.825zm0.412 2.091c0.50065 0 0.90469 0.40872 0.90469 0.90938 0 0.50065-0.40404 0.90469-0.90469 0.90469s-0.90469-0.40404-0.90469-0.90469 0.40404-0.90938 0.90469-0.90938z" display="block" fill="#4d4d4d" transform="matrix(1 0 0 1 -9.956 -53.02)"/>
</svg>
