<?xml version="1.0" encoding="UTF-8" standalone="no"?>
<!-- Created with Inkscape (http://www.inkscape.org/) -->

<svg
   xmlns:dc="http://purl.org/dc/elements/1.1/"
   xmlns:cc="http://creativecommons.org/ns#"
   xmlns:rdf="http://www.w3.org/1999/02/22-rdf-syntax-ns#"
   xmlns:svg="http://www.w3.org/2000/svg"
   xmlns="http://www.w3.org/2000/svg"
   xmlns:xlink="http://www.w3.org/1999/xlink"
   xmlns:sodipodi="http://sodipodi.sourceforge.net/DTD/sodipodi-0.dtd"
   xmlns:inkscape="http://www.inkscape.org/namespaces/inkscape"
   width="96"
   height="96"
   id="svg2"
   version="1.1"
   inkscape:version="0.48.5 r10040"
   sodipodi:docname="folder-recent.svg">
  <defs
     id="defs4">
    <linearGradient
       id="linearGradient3890">
      <stop
         style="stop-color:#dda87c;stop-opacity:1;"
         offset="0"
         id="stop3892" />
      <stop
         style="stop-color:#efc5a3;stop-opacity:1;"
         offset="1"
         id="stop3894" />
    </linearGradient>
    <linearGradient
       inkscape:collect="always"
       xlink:href="#linearGradient3890"
       id="linearGradient3998"
       x1="50.176964"
       y1="74.830162"
       x2="50.176964"
       y2="44.567947"
       gradientUnits="userSpaceOnUse"
       gradientTransform="translate(-0.75483378,955.42348)" />
    <linearGradient
       inkscape:collect="always"
       xlink:href="#linearGradient3890"
       id="linearGradient4000"
       gradientUnits="userSpaceOnUse"
       gradientTransform="matrix(1.0067307,0,0,1.0067307,-0.52900173,-7.974331)"
       x1="48.764362"
       y1="982.50275"
       x2="48.950848"
       y2="965.76617" />
    <linearGradient
       x1="45.448"
       y1="80.472"
       gradientTransform="matrix(1.0059,0,0,0.99417,0,12)"
       x2="45.448"
       gradientUnits="userSpaceOnUse"
       xlink:href="#ButtonShadow-5"
       y2="5.2972"
       id="linearGradient3664-3" />
    <filter
       color-interpolation-filters="sRGB"
       id="filter3174-8">
      <feGaussianBlur
         stdDeviation="1.71"
         id="feGaussianBlur3176-9" />
    </filter>
    <linearGradient
       x1="45.448"
       y1="80.472"
       gradientTransform="matrix(1.0059 0 0 .99417 0 12)"
       x2="45.448"
       gradientUnits="userSpaceOnUse"
       y2="7.0165"
       id="ButtonShadow-5">
      <stop
         offset="0"
         id="stop3750-0" />
      <stop
         offset="1"
         style="stop-opacity:.58824"
         id="stop3752-4" />
    </linearGradient>
    <linearGradient
       x1="45.448002"
       y1="80.472"
       gradientTransform="matrix(1.0059,0,0,0.99417,0,12)"
       x2="45.448002"
       gradientUnits="userSpaceOnUse"
       xlink:href="#ButtonShadow-7-2"
       y2="5.2972002"
       id="linearGradient3664-0-1" />
    <linearGradient
       x1="45.448002"
       y1="80.472"
       gradientTransform="matrix(1.0059,0,0,0.99417,0,12)"
       x2="45.448002"
       gradientUnits="userSpaceOnUse"
       y2="7.0165"
       id="ButtonShadow-7-2">
      <stop
         offset="0"
         id="stop3750-3-0" />
      <stop
         offset="1"
         style="stop-opacity:.58824"
         id="stop3752-8-0" />
    </linearGradient>
    <filter
       color-interpolation-filters="sRGB"
       id="filter3174-2-8">
      <feGaussianBlur
         stdDeviation="1.71"
         id="feGaussianBlur3176-5-2" />
    </filter>
    <linearGradient
       x1="45.448"
       y1="80.472"
       gradientTransform="matrix(1.0059,0,0,0.99417,0,12)"
       x2="45.448"
       gradientUnits="userSpaceOnUse"
       xlink:href="#ButtonShadow-8"
       y2="5.2972"
       id="linearGradient3664-7" />
    <filter
       color-interpolation-filters="sRGB"
       id="filter3174-6">
      <feGaussianBlur
         stdDeviation="1.71"
         id="feGaussianBlur3176-90" />
    </filter>
    <linearGradient
       x1="45.448"
       y1="80.472"
       gradientTransform="matrix(1.0059 0 0 .99417 0 12)"
       x2="45.448"
       gradientUnits="userSpaceOnUse"
       y2="7.0165"
       id="ButtonShadow-8">
      <stop
         offset="0"
         id="stop3750-8" />
      <stop
         offset="1"
         style="stop-opacity:.58824"
         id="stop3752-9" />
    </linearGradient>
    <linearGradient
       x1="45.448"
       y1="80.472"
       gradientTransform="matrix(1.0059,0,0,0.99417,0,12)"
       x2="45.448"
       gradientUnits="userSpaceOnUse"
       xlink:href="#ButtonShadow-59"
       y2="5.2972"
       id="linearGradient3664-03" />
    <filter
       color-interpolation-filters="sRGB"
       id="filter3174-4">
      <feGaussianBlur
         stdDeviation="1.71"
         id="feGaussianBlur3176-4" />
    </filter>
    <linearGradient
       x1="45.448"
       y1="80.472"
       gradientTransform="matrix(1.0059 0 0 .99417 0 12)"
       x2="45.448"
       gradientUnits="userSpaceOnUse"
       y2="7.0165"
       id="ButtonShadow-59">
      <stop
         offset="0"
         id="stop3750-38" />
      <stop
         offset="1"
         style="stop-opacity:.58824"
         id="stop3752-1" />
    </linearGradient>
    <linearGradient
       x1="45.448"
       y1="80.472"
       gradientTransform="matrix(1.0059,0,0,0.99417,0,12)"
       x2="45.448"
       gradientUnits="userSpaceOnUse"
       xlink:href="#ButtonShadow-3"
       y2="5.2972"
       id="linearGradient3664-9" />
    <filter
       color-interpolation-filters="sRGB"
       id="filter3174-5">
      <feGaussianBlur
         stdDeviation="1.71"
         id="feGaussianBlur3176-6" />
    </filter>
    <linearGradient
       x1="45.448"
       y1="80.472"
       gradientTransform="matrix(1.0059 0 0 .99417 0 12)"
       x2="45.448"
       gradientUnits="userSpaceOnUse"
       y2="7.0165"
       id="ButtonShadow-3">
      <stop
         offset="0"
         id="stop3750-7" />
      <stop
         offset="1"
         style="stop-opacity:.58824"
         id="stop3752-3" />
    </linearGradient>
    <linearGradient
       x1="45.448"
       y1="80.472"
       gradientTransform="matrix(1.0059,0,0,0.99417,0,12)"
       x2="45.448"
       gradientUnits="userSpaceOnUse"
       xlink:href="#ButtonShadow-89"
       y2="5.2972"
       id="linearGradient3664-5" />
    <filter
       color-interpolation-filters="sRGB"
       id="filter3174-48">
      <feGaussianBlur
         stdDeviation="1.71"
         id="feGaussianBlur3176-3" />
    </filter>
    <linearGradient
       x1="45.448"
       y1="80.472"
       gradientTransform="matrix(1.0059 0 0 .99417 0 12)"
       x2="45.448"
       gradientUnits="userSpaceOnUse"
       y2="7.0165"
       id="ButtonShadow-89">
      <stop
         offset="0"
         id="stop3750-5" />
      <stop
         offset="1"
         style="stop-opacity:.58824"
         id="stop3752-2" />
    </linearGradient>
    <linearGradient
       x1="45.448"
       y1="80.472"
       gradientTransform="matrix(1.0059,0,0,0.99417,0,12)"
       x2="45.448"
       gradientUnits="userSpaceOnUse"
       xlink:href="#ButtonShadow-73"
       y2="5.2972"
       id="linearGradient3664-8" />
    <filter
       color-interpolation-filters="sRGB"
       id="filter3174-7">
      <feGaussianBlur
         stdDeviation="1.71"
         id="feGaussianBlur3176-99" />
    </filter>
    <linearGradient
       x1="45.448"
       y1="80.472"
       gradientTransform="matrix(1.0059 0 0 .99417 0 12)"
       x2="45.448"
       gradientUnits="userSpaceOnUse"
       y2="7.0165"
       id="ButtonShadow-73">
      <stop
         offset="0"
         id="stop3750-37" />
      <stop
         offset="1"
         style="stop-opacity:.58824"
         id="stop3752-81" />
    </linearGradient>
    <linearGradient
       x1="45.448"
       y1="80.472"
       gradientTransform="matrix(1.0059,0,0,0.99417,0,12)"
       x2="45.448"
       gradientUnits="userSpaceOnUse"
       xlink:href="#ButtonShadow-33"
       y2="5.2972"
       id="linearGradient3664-33" />
    <filter
       color-interpolation-filters="sRGB"
       id="filter3174-85">
      <feGaussianBlur
         stdDeviation="1.71"
         id="feGaussianBlur3176-62" />
    </filter>
    <linearGradient
       x1="45.448"
       y1="80.472"
       gradientTransform="matrix(1.0059 0 0 .99417 0 12)"
       x2="45.448"
       gradientUnits="userSpaceOnUse"
       y2="7.0165"
       id="ButtonShadow-33">
      <stop
         offset="0"
         id="stop3750-54" />
      <stop
         offset="1"
         style="stop-opacity:.58824"
         id="stop3752-23" />
    </linearGradient>
    <linearGradient
       x1="45.448"
       y1="80.472"
       gradientTransform="matrix(1.0059,0,0,0.99417,0,12)"
       x2="45.448"
       gradientUnits="userSpaceOnUse"
       xlink:href="#ButtonShadow-78"
       y2="5.2972"
       id="linearGradient3664-1" />
    <filter
       color-interpolation-filters="sRGB"
       id="filter3174-87">
      <feGaussianBlur
         stdDeviation="1.71"
         id="feGaussianBlur3176-43" />
    </filter>
    <linearGradient
       x1="45.448"
       y1="80.472"
       gradientTransform="matrix(1.0059 0 0 .99417 0 12)"
       x2="45.448"
       gradientUnits="userSpaceOnUse"
       y2="7.0165"
       id="ButtonShadow-78">
      <stop
         offset="0"
         id="stop3750-4" />
      <stop
         offset="1"
         style="stop-opacity:.58824"
         id="stop3752-10" />
    </linearGradient>
    <linearGradient
       x1="45.448"
       y1="80.472"
       gradientTransform="matrix(1.0059,0,0,0.99417,0,12)"
       x2="45.448"
       gradientUnits="userSpaceOnUse"
       xlink:href="#ButtonShadow-9"
       y2="5.2972"
       id="linearGradient3664-82" />
    <filter
       color-interpolation-filters="sRGB"
       id="filter3174-67">
      <feGaussianBlur
         stdDeviation="1.71"
         id="feGaussianBlur3176-8" />
    </filter>
    <linearGradient
       x1="45.448"
       y1="80.472"
       gradientTransform="matrix(1.0059 0 0 .99417 0 12)"
       x2="45.448"
       gradientUnits="userSpaceOnUse"
       y2="7.0165"
       id="ButtonShadow-9">
      <stop
         offset="0"
         id="stop3750-81" />
      <stop
         offset="1"
         style="stop-opacity:.58824"
         id="stop3752-33" />
    </linearGradient>
    <linearGradient
       x1="45.448"
       y1="80.472"
       gradientTransform="matrix(1.0059,0,0,0.99417,0,12)"
       x2="45.448"
       gradientUnits="userSpaceOnUse"
       xlink:href="#ButtonShadow-1"
       y2="5.2972"
       id="linearGradient3664-08" />
    <filter
       color-interpolation-filters="sRGB"
       id="filter3174-21">
      <feGaussianBlur
         stdDeviation="1.71"
         id="feGaussianBlur3176-0" />
    </filter>
    <linearGradient
       x1="45.448"
       y1="80.472"
       gradientTransform="matrix(1.0059 0 0 .99417 0 12)"
       x2="45.448"
       gradientUnits="userSpaceOnUse"
       y2="7.0165"
       id="ButtonShadow-1">
      <stop
         offset="0"
         id="stop3750-31" />
      <stop
         offset="1"
         style="stop-opacity:.58824"
         id="stop3752-21" />
    </linearGradient>
    <linearGradient
       x1="45.448"
       y1="80.472"
       gradientTransform="matrix(1.0059,0,0,0.99417,0,12)"
       x2="45.448"
       gradientUnits="userSpaceOnUse"
       xlink:href="#ButtonShadow-0"
       y2="5.2972"
       id="linearGradient3664-29" />
    <filter
       color-interpolation-filters="sRGB"
       id="filter3174-3">
      <feGaussianBlur
         stdDeviation="1.71"
         id="feGaussianBlur3176-02" />
    </filter>
    <linearGradient
       x1="45.448"
       y1="80.472"
       gradientTransform="matrix(1.0059 0 0 .99417 0 12)"
       x2="45.448"
       gradientUnits="userSpaceOnUse"
       y2="7.0165"
       id="ButtonShadow-0">
      <stop
         offset="0"
         id="stop3750-544" />
      <stop
         offset="1"
         style="stop-opacity:.58824"
         id="stop3752-6" />
    </linearGradient>
    <linearGradient
       x1="45.448"
       y1="80.472"
       gradientTransform="matrix(1.0059,0,0,0.99417,0,12)"
       x2="45.448"
       gradientUnits="userSpaceOnUse"
       xlink:href="#ButtonShadow-11"
       y2="5.2972"
       id="linearGradient3664-05" />
    <filter
       color-interpolation-filters="sRGB"
       id="filter3174-80">
      <feGaussianBlur
         stdDeviation="1.71"
         id="feGaussianBlur3176-42" />
    </filter>
    <linearGradient
       x1="45.448"
       y1="80.472"
       gradientTransform="matrix(1.0059 0 0 .99417 0 12)"
       x2="45.448"
       gradientUnits="userSpaceOnUse"
       y2="7.0165"
       id="ButtonShadow-11">
      <stop
         offset="0"
         id="stop3750-9" />
      <stop
         offset="1"
         style="stop-opacity:.58824"
         id="stop3752-5" />
    </linearGradient>
    <linearGradient
       x1="45.448"
       y1="80.472"
       gradientTransform="matrix(1.0059,0,0,0.99417,0,12)"
       x2="45.448"
       gradientUnits="userSpaceOnUse"
       xlink:href="#ButtonShadow-52"
       y2="5.2972"
       id="linearGradient3664-6" />
    <filter
       color-interpolation-filters="sRGB"
       id="filter3174-9">
      <feGaussianBlur
         stdDeviation="1.71"
         id="feGaussianBlur3176-2" />
    </filter>
    <linearGradient
       x1="45.448"
       y1="80.472"
       gradientTransform="matrix(1.0059 0 0 .99417 0 12)"
       x2="45.448"
       gradientUnits="userSpaceOnUse"
       y2="7.0165"
       id="ButtonShadow-52">
      <stop
         offset="0"
         id="stop3750-6" />
      <stop
         offset="1"
         style="stop-opacity:.58824"
         id="stop3752-0" />
    </linearGradient>
    <linearGradient
       x1="45.448"
       y1="80.472"
       gradientTransform="matrix(1.0059,0,0,0.99417,0,12)"
       x2="45.448"
       gradientUnits="userSpaceOnUse"
       xlink:href="#ButtonShadow-4"
       y2="5.2972"
       id="linearGradient3664-94" />
    <filter
       color-interpolation-filters="sRGB"
       id="filter3174-0">
      <feGaussianBlur
         stdDeviation="1.71"
         id="feGaussianBlur3176-83" />
    </filter>
    <linearGradient
       x1="45.448"
       y1="80.472"
       gradientTransform="matrix(1.0059 0 0 .99417 0 12)"
       x2="45.448"
       gradientUnits="userSpaceOnUse"
       y2="7.0165"
       id="ButtonShadow-4">
      <stop
         offset="0"
         id="stop3750-42" />
      <stop
         offset="1"
         style="stop-opacity:.58824"
         id="stop3752-38" />
    </linearGradient>
    <linearGradient
       inkscape:collect="always"
       xlink:href="#linearGradient3859"
       id="linearGradient3882"
       gradientUnits="userSpaceOnUse"
       gradientTransform="translate(955.6783,-1053.0436)"
       x1="8.6826658"
       y1="1004.361"
       x2="88.682663"
       y2="1004.361" />
    <linearGradient
       id="linearGradient3859">
      <stop
         style="stop-color:#5599ff;stop-opacity:1;"
         offset="0"
         id="stop3861" />
      <stop
         style="stop-color:#1472ff;stop-opacity:1;"
         offset="1"
         id="stop3863" />
    </linearGradient>
    <linearGradient
       inkscape:collect="always"
       xlink:href="#linearGradient3869"
       id="linearGradient3884"
       gradientUnits="userSpaceOnUse"
       x1="46.981518"
       y1="1030.8169"
       x2="46.981518"
       y2="980.45129" />
    <linearGradient
       id="linearGradient3869">
      <stop
         style="stop-color:#4f95ff;stop-opacity:1;"
         offset="0"
         id="stop3871" />
      <stop
         style="stop-color:#69a5ff;stop-opacity:1;"
         offset="1"
         id="stop3873" />
    </linearGradient>
    <linearGradient
       y2="980.45129"
       x2="46.981518"
       y1="1030.8169"
       x1="46.981518"
       gradientUnits="userSpaceOnUse"
       id="linearGradient3908"
       xlink:href="#linearGradient3869"
       inkscape:collect="always" />
    <linearGradient
       inkscape:collect="always"
       xlink:href="#linearGradient3915"
       id="linearGradient4598"
       gradientUnits="userSpaceOnUse"
       gradientTransform="translate(955.67947,-956.3609)"
       x1="8.6826658"
       y1="1004.361"
       x2="88.682663"
       y2="1004.361" />
    <linearGradient
       id="linearGradient3915">
      <stop
         id="stop3917"
         offset="0"
         style="stop-color:#0066ff;stop-opacity:1;" />
      <stop
         id="stop3919"
         offset="1"
         style="stop-color:#004cbe;stop-opacity:1;" />
    </linearGradient>
    <linearGradient
       inkscape:collect="always"
       xlink:href="#linearGradient5655"
       id="linearGradient5661"
       x1="40.291191"
       y1="985.25488"
       x2="40.291191"
       y2="1035.9565"
       gradientUnits="userSpaceOnUse" />
    <linearGradient
       id="linearGradient5655">
      <stop
         style="stop-color:#3083ff;stop-opacity:1;"
         offset="0"
         id="stop5657" />
      <stop
         style="stop-color:#0057da;stop-opacity:1;"
         offset="1"
         id="stop5659" />
    </linearGradient>
  </defs>
  <sodipodi:namedview
     id="base"
     pagecolor="#ffffff"
     bordercolor="#666666"
     borderopacity="1.0"
     inkscape:pageopacity="0.0"
     inkscape:pageshadow="2"
     inkscape:zoom="2.6632653"
     inkscape:cx="-19.033683"
     inkscape:cy="75.807448"
     inkscape:document-units="px"
     inkscape:current-layer="layer1"
     showgrid="false"
     inkscape:window-width="1366"
     inkscape:window-height="716"
     inkscape:window-x="0"
     inkscape:window-y="24"
     inkscape:window-maximized="1" />
  <metadata
     id="metadata7">
    <rdf:RDF>
      <cc:Work
         rdf:about="">
        <dc:format>image/svg+xml</dc:format>
        <dc:type
           rdf:resource="http://purl.org/dc/dcmitype/StillImage" />
        <dc:title />
      </cc:Work>
    </rdf:RDF>
  </metadata>
  <g
     inkscape:label="Layer 1"
     inkscape:groupmode="layer"
     id="layer1"
     transform="translate(0,-956.36218)">
    <g
       id="g5663"
       transform="translate(-10e-7,-1.1308594e-5)">
      <rect
         transform="matrix(0,1,1,0,0,0)"
         ry="10.769231"
         rx="10.769231"
         y="8"
         x="964.36218"
         height="80"
         width="80"
         id="rect2985"
         style="fill:url(#linearGradient4598);fill-opacity:1;stroke:none" />
      <rect
         y="979.89478"
         x="16.766285"
         height="15.770115"
         width="64.770119"
         id="rect5645"
         style="color:#000000;fill:#ffffff;fill-opacity:1;fill-rule:nonzero;stroke:none;stroke-width:2.5;marker:none;visibility:visible;display:inline;overflow:visible;enable-background:accumulate" />
      <path
         sodipodi:nodetypes="ccccccc"
         inkscape:connector-curvature="0"
         id="path3983"
         d="m 41.010539,982.14343 -8.260537,10.34375 -24.7500003,0 0,41.68752 80.0000003,0 0,-52.03127 z"
         style="fill:url(#linearGradient5661);fill-opacity:1;stroke:none" />
      <g
         id="g3532"
         transform="matrix(0.20919889,0,0,0.20919889,-113.08327,973.81841)" />
      <g
         id="g3219"
         transform="translate(-386.23296,866.12665)">
        <g
           id="g1886" />
      </g>
      <g
         transform="translate(-257.98935,949.25506)"
         id="g4717" />
      <path
         inkscape:connector-curvature="0"
         id="rect3755"
         d="m 8.0000016,1031.5584 0,2.0133 c 0,5.966 4.7930634,10.7905 10.7589464,10.7905 l 58.450649,0 c 5.965883,0 10.790405,-4.8245 10.790405,-10.7905 l 0,-2.0133 c 0,5.9659 -4.824522,10.7904 -10.790405,10.7904 l -58.450649,0 c -5.965883,0 -10.7589464,-4.8245 -10.7589464,-10.7904 z"
         style="opacity:0.3;fill:#000000;fill-opacity:1;stroke:none" />
    </g>
    <g
       id="layer2-9"
       style="display:none"
       transform="translate(-115.43793,1002.8625)">
      <path
         inkscape:connector-curvature="0"
         id="rect3745-3"
         style="opacity:0.9;fill:url(#linearGradient3664-3);filter:url(#filter3174-8)"
         d="M 14.969,8.8029 C 13.329,8.8029 12,10.085 12,11.678 V 19 c -3.324,0 -7,2.676 -7,6 v 61 c 0,3.324 2.676,6 6,6 h 74 c 3.324,0 6,-2.676 6,-6 V 25 c 0,-3.324 -3.7474,-6 -7.0714,-6 v -0.13461 c 0,-2.3891 -1.9777,-4.3125 -4.4375,-4.3125 h -43.335 l -1.4688,-2.875 c -0.734,-1.424 -1.329,-2.8741 -2.969,-2.8741 h -16.75 z" />
    </g>
    <g
       id="layer2"
       style="display:none"
       transform="translate(-108.26934,938.61065)">
      <path
         inkscape:connector-curvature="0"
         id="rect3745"
         style="opacity:0.9;fill:url(#linearGradient3664-0-1);filter:url(#filter3174-2-8)"
         d="M 14.969,8.8029 C 13.329,8.8029 12,10.085 12,11.678 V 19 c -3.324,0 -7,2.676 -7,6 v 61 c 0,3.324 2.676,6 6,6 h 74 c 3.324,0 6,-2.676 6,-6 V 25 c 0,-3.324 -3.7474,-6 -7.0714,-6 v -0.13461 c 0,-2.3891 -1.9777,-4.3125 -4.4375,-4.3125 h -43.335 l -1.4688,-2.875 c -0.734,-1.424 -1.329,-2.8741 -2.969,-2.8741 h -16.75 z" />
    </g>
    <g
       id="layer2-6"
       style="display:none"
       transform="translate(-171.72473,918.96337)">
      <path
         inkscape:connector-curvature="0"
         id="rect3745-6"
         style="opacity:0.9;fill:url(#linearGradient3664-7);filter:url(#filter3174-6)"
         d="M 14.969,8.8029 C 13.329,8.8029 12,10.085 12,11.678 V 19 c -3.324,0 -7,2.676 -7,6 v 61 c 0,3.324 2.676,6 6,6 h 74 c 3.324,0 6,-2.676 6,-6 V 25 c 0,-3.324 -3.7474,-6 -7.0714,-6 v -0.13461 c 0,-2.3891 -1.9777,-4.3125 -4.4375,-4.3125 h -43.335 l -1.4688,-2.875 c -0.734,-1.424 -1.329,-2.8741 -2.969,-2.8741 h -16.75 z" />
    </g>
    <g
       id="layer2-1"
       style="display:none"
       transform="translate(-173.31774,905.15718)">
      <path
         inkscape:connector-curvature="0"
         id="rect3745-1"
         style="opacity:0.9;fill:url(#linearGradient3664-03);filter:url(#filter3174-4)"
         d="M 14.969,8.8029 C 13.329,8.8029 12,10.085 12,11.678 V 19 c -3.324,0 -7,2.676 -7,6 v 61 c 0,3.324 2.676,6 6,6 h 74 c 3.324,0 6,-2.676 6,-6 V 25 c 0,-3.324 -3.7474,-6 -7.0714,-6 v -0.13461 c 0,-2.3891 -1.9777,-4.3125 -4.4375,-4.3125 h -43.335 l -1.4688,-2.875 c -0.734,-1.424 -1.329,-2.8741 -2.969,-2.8741 h -16.75 z" />
    </g>
    <g
       id="layer2-2"
       style="display:none"
       transform="translate(-177.5658,944.98274)">
      <path
         inkscape:connector-curvature="0"
         id="rect3745-0"
         style="opacity:0.9;fill:url(#linearGradient3664-9);filter:url(#filter3174-5)"
         d="M 14.969,8.8029 C 13.329,8.8029 12,10.085 12,11.678 V 19 c -3.324,0 -7,2.676 -7,6 v 61 c 0,3.324 2.676,6 6,6 h 74 c 3.324,0 6,-2.676 6,-6 V 25 c 0,-3.324 -3.7474,-6 -7.0714,-6 v -0.13461 c 0,-2.3891 -1.9777,-4.3125 -4.4375,-4.3125 h -43.335 l -1.4688,-2.875 c -0.734,-1.424 -1.329,-2.8741 -2.969,-2.8741 h -16.75 z" />
    </g>
    <g
       id="layer2-0"
       style="display:none"
       transform="translate(-185.53092,963.03699)">
      <path
         inkscape:connector-curvature="0"
         id="rect3745-8"
         style="opacity:0.9;fill:url(#linearGradient3664-5);filter:url(#filter3174-48)"
         d="M 14.969,8.8029 C 13.329,8.8029 12,10.085 12,11.678 V 19 c -3.324,0 -7,2.676 -7,6 v 61 c 0,3.324 2.676,6 6,6 h 74 c 3.324,0 6,-2.676 6,-6 V 25 c 0,-3.324 -3.7474,-6 -7.0714,-6 v -0.13461 c 0,-2.3891 -1.9777,-4.3125 -4.4375,-4.3125 h -43.335 l -1.4688,-2.875 c -0.734,-1.424 -1.329,-2.8741 -2.969,-2.8741 h -16.75 z" />
    </g>
    <g
       id="layer2-3"
       style="display:none"
       transform="translate(-171.19372,937.01763)">
      <path
         inkscape:connector-curvature="0"
         id="rect3745-80"
         style="opacity:0.9;fill:url(#linearGradient3664-8);filter:url(#filter3174-7)"
         d="M 14.969,8.8029 C 13.329,8.8029 12,10.085 12,11.678 V 19 c -3.324,0 -7,2.676 -7,6 v 61 c 0,3.324 2.676,6 6,6 h 74 c 3.324,0 6,-2.676 6,-6 V 25 c 0,-3.324 -3.7474,-6 -7.0714,-6 v -0.13461 c 0,-2.3891 -1.9777,-4.3125 -4.4375,-4.3125 h -43.335 l -1.4688,-2.875 c -0.734,-1.424 -1.329,-2.8741 -2.969,-2.8741 h -16.75 z" />
    </g>
    <g
       id="layer2-63"
       style="display:none"
       transform="translate(-180.75185,972.06411)">
      <path
         inkscape:connector-curvature="0"
         id="rect3745-4"
         style="opacity:0.9;fill:url(#linearGradient3664-33);filter:url(#filter3174-85)"
         d="M 14.969,8.8029 C 13.329,8.8029 12,10.085 12,11.678 V 19 c -3.324,0 -7,2.676 -7,6 v 61 c 0,3.324 2.676,6 6,6 h 74 c 3.324,0 6,-2.676 6,-6 V 25 c 0,-3.324 -3.7474,-6 -7.0714,-6 v -0.13461 c 0,-2.3891 -1.9777,-4.3125 -4.4375,-4.3125 h -43.335 l -1.4688,-2.875 c -0.734,-1.424 -1.329,-2.8741 -2.969,-2.8741 h -16.75 z" />
    </g>
    <g
       id="layer2-8"
       style="display:none"
       transform="translate(-189.24797,941.79669)">
      <path
         inkscape:connector-curvature="0"
         id="rect3745-2"
         style="opacity:0.9;fill:url(#linearGradient3664-1);filter:url(#filter3174-87)"
         d="M 14.969,8.8029 C 13.329,8.8029 12,10.085 12,11.678 V 19 c -3.324,0 -7,2.676 -7,6 v 61 c 0,3.324 2.676,6 6,6 h 74 c 3.324,0 6,-2.676 6,-6 V 25 c 0,-3.324 -3.7474,-6 -7.0714,-6 v -0.13461 c 0,-2.3891 -1.9777,-4.3125 -4.4375,-4.3125 h -43.335 l -1.4688,-2.875 c -0.734,-1.424 -1.329,-2.8741 -2.969,-2.8741 h -16.75 z" />
    </g>
    <g
       id="layer2-634"
       style="display:none"
       transform="translate(-181.28286,965.69203)">
      <path
         inkscape:connector-curvature="0"
         id="rect3745-28"
         style="opacity:0.9;fill:url(#linearGradient3664-82);filter:url(#filter3174-67)"
         d="M 14.969,8.8029 C 13.329,8.8029 12,10.085 12,11.678 V 19 c -3.324,0 -7,2.676 -7,6 v 61 c 0,3.324 2.676,6 6,6 h 74 c 3.324,0 6,-2.676 6,-6 V 25 c 0,-3.324 -3.7474,-6 -7.0714,-6 v -0.13461 c 0,-2.3891 -1.9777,-4.3125 -4.4375,-4.3125 h -43.335 l -1.4688,-2.875 c -0.734,-1.424 -1.329,-2.8741 -2.969,-2.8741 h -16.75 z" />
    </g>
    <g
       id="layer2-5"
       style="display:none"
       transform="translate(-163.2286,945.51374)">
      <path
         inkscape:connector-curvature="0"
         id="rect3745-22"
         style="opacity:0.9;fill:url(#linearGradient3664-08);filter:url(#filter3174-21)"
         d="M 14.969,8.8029 C 13.329,8.8029 12,10.085 12,11.678 V 19 c -3.324,0 -7,2.676 -7,6 v 61 c 0,3.324 2.676,6 6,6 h 74 c 3.324,0 6,-2.676 6,-6 V 25 c 0,-3.324 -3.7474,-6 -7.0714,-6 v -0.13461 c 0,-2.3891 -1.9777,-4.3125 -4.4375,-4.3125 h -43.335 l -1.4688,-2.875 c -0.734,-1.424 -1.329,-2.8741 -2.969,-2.8741 h -16.75 z" />
    </g>
    <g
       id="layer2-50"
       style="display:none"
       transform="translate(-128.18212,956.6649)">
      <path
         inkscape:connector-curvature="0"
         id="rect3745-14"
         style="opacity:0.9;fill:url(#linearGradient3664-29);filter:url(#filter3174-3)"
         d="M 14.969,8.8029 C 13.329,8.8029 12,10.085 12,11.678 V 19 c -3.324,0 -7,2.676 -7,6 v 61 c 0,3.324 2.676,6 6,6 h 74 c 3.324,0 6,-2.676 6,-6 V 25 c 0,-3.324 -3.7474,-6 -7.0714,-6 v -0.13461 c 0,-2.3891 -1.9777,-4.3125 -4.4375,-4.3125 h -43.335 l -1.4688,-2.875 c -0.734,-1.424 -1.329,-2.8741 -2.969,-2.8741 h -16.75 z" />
    </g>
    <g
       id="layer2-84"
       style="display:none"
       transform="translate(-180.75185,1000.2075)">
      <path
         inkscape:connector-curvature="0"
         id="rect3745-800"
         style="opacity:0.9;fill:url(#linearGradient3664-05);filter:url(#filter3174-80)"
         d="M 14.969,8.8029 C 13.329,8.8029 12,10.085 12,11.678 V 19 c -3.324,0 -7,2.676 -7,6 v 61 c 0,3.324 2.676,6 6,6 h 74 c 3.324,0 6,-2.676 6,-6 V 25 c 0,-3.324 -3.7474,-6 -7.0714,-6 v -0.13461 c 0,-2.3891 -1.9777,-4.3125 -4.4375,-4.3125 h -43.335 l -1.4688,-2.875 c -0.734,-1.424 -1.329,-2.8741 -2.969,-2.8741 h -16.75 z" />
    </g>
    <g
       id="layer2-840"
       style="display:none"
       transform="translate(-187.12394,1014.0137)">
      <path
         inkscape:connector-curvature="0"
         id="rect3745-87"
         style="opacity:0.9;fill:url(#linearGradient3664-6);filter:url(#filter3174-9)"
         d="M 14.969,8.8029 C 13.329,8.8029 12,10.085 12,11.678 V 19 c -3.324,0 -7,2.676 -7,6 v 61 c 0,3.324 2.676,6 6,6 h 74 c 3.324,0 6,-2.676 6,-6 V 25 c 0,-3.324 -3.7474,-6 -7.0714,-6 v -0.13461 c 0,-2.3891 -1.9777,-4.3125 -4.4375,-4.3125 h -43.335 l -1.4688,-2.875 c -0.734,-1.424 -1.329,-2.8741 -2.969,-2.8741 h -16.75 z" />
    </g>
    <g
       id="layer2-28"
       style="display:none"
       transform="translate(-179.15883,999.14549)">
      <path
         inkscape:connector-curvature="0"
         id="rect3745-09"
         style="opacity:0.9;fill:url(#linearGradient3664-94);filter:url(#filter3174-0)"
         d="M 14.969,8.8029 C 13.329,8.8029 12,10.085 12,11.678 V 19 c -3.324,0 -7,2.676 -7,6 v 61 c 0,3.324 2.676,6 6,6 h 74 c 3.324,0 6,-2.676 6,-6 V 25 c 0,-3.324 -3.7474,-6 -7.0714,-6 v -0.13461 c 0,-2.3891 -1.9777,-4.3125 -4.4375,-4.3125 h -43.335 l -1.4688,-2.875 c -0.734,-1.424 -1.329,-2.8741 -2.969,-2.8741 h -16.75 z" />
    </g>
    <path
       d="m 49.875374,997.05331 c -6.240812,0 -11.302344,5.05309 -11.307527,11.29289 h -2.385181 l 3.945856,6.8462 3.960556,-6.8462 h -2.547115 c 0.0052,-4.5965 3.735724,-8.319 8.333176,-8.319 4.601221,0 8.333647,3.7329 8.333647,8.3336 0,4.6008 -3.732614,8.3337 -8.333647,8.3337 v 2.9741 c 6.24411,0 11.307527,-5.0634 11.307527,-11.3075 0,-6.2441 -5.063417,-11.30759 -11.307527,-11.30759 z m -0.02921,4.71149 c -0.522031,0 -0.942294,0.4202 -0.942294,0.9423 v 5.6537 c 0,0.5221 0.420263,0.9423 0.942294,0.9423 h 4.71147 c 0.522031,0 0.942294,-0.4202 0.942294,-0.9423 0,-0.522 -0.420263,-0.9423 -0.942294,-0.9423 h -3.769176 v -4.7114 c 0,-0.5221 -0.420263,-0.9423 -0.942294,-0.9423 z"
       style="opacity:0.5;fill:#000000;fill-rule:evenodd"
       id="path3772"
       inkscape:connector-curvature="0" />
  </g>
</svg>
