<?xml version="1.0" encoding="UTF-8" standalone="no"?>
<!-- Created with Inkscape (http://www.inkscape.org/) -->

<svg
   xmlns:dc="http://purl.org/dc/elements/1.1/"
   xmlns:cc="http://creativecommons.org/ns#"
   xmlns:rdf="http://www.w3.org/1999/02/22-rdf-syntax-ns#"
   xmlns:svg="http://www.w3.org/2000/svg"
   xmlns="http://www.w3.org/2000/svg"
   xmlns:sodipodi="http://sodipodi.sourceforge.net/DTD/sodipodi-0.dtd"
   xmlns:inkscape="http://www.inkscape.org/namespaces/inkscape"
   id="svg2"
   height="22"
   viewBox="0 0 22 22"
   width="22"
   version="1.1"
   inkscape:version="0.48.5 r10040"
   sodipodi:docname="download-later.svg">
  <defs
     id="defs9" />
  <sodipodi:namedview
     pagecolor="#ffffff"
     bordercolor="#666666"
     borderopacity="1"
     objecttolerance="10"
     gridtolerance="10"
     guidetolerance="10"
     inkscape:pageopacity="0"
     inkscape:pageshadow="2"
     inkscape:window-width="1360"
     inkscape:window-height="712"
     id="namedview7"
     showgrid="false"
     inkscape:zoom="21.454545"
     inkscape:cx="7.0971885"
     inkscape:cy="11.694829"
     inkscape:window-x="-2"
     inkscape:window-y="28"
     inkscape:window-maximized="1"
     inkscape:current-layer="svg2" />
  <metadata
     id="metadata7">
    <rdf:RDF>
      <cc:Work
         rdf:about="">
        <dc:format>image/svg+xml</dc:format>
        <dc:type
           rdf:resource="http://purl.org/dc/dcmitype/StillImage" />
        <dc:title />
      </cc:Work>
    </rdf:RDF>
  </metadata>
  <g
     style="display:inline"
     inkscape:label="Arrow"
     id="layer4"
     transform="matrix(0.6561,0,0,0.6561,9.5217,10.37695)">
    <path
       sodipodi:nodetypes="cccccccccc"
       inkscape:connector-curvature="0"
       id="rect3042"
       d="m 3,7.53125 2.125,-2.125 1.875,1.875 0,-4.5 3,0 0,4.5 1.875,-1.875 L 14,7.53125 8.5,13 z"
       style="color:#000000;fill:#4d4d4d;fill-opacity:1;fill-rule:nonzero;stroke:none;stroke-width:0.80000001;marker:none;visibility:visible;display:inline;overflow:visible;enable-background:accumulate" />
  </g>
  <path
     style="fill:#4d4d4d;fill-opacity:1"
     d="M 11.03125 3 C 10.71423 2.999199 10.377397 3.02455 10.0625 3.0625 C 7.9626529 3.297338 5.982485 4.425966 4.6875 6.09375 C 3.5883244 7.484153 3.003604 9.2300148 3 11 C 3.0066 12.536351 3.467396 14.088501 4.3125 15.375 C 5.3239826 16.929969 6.879549 18.116105 8.65625 18.65625 C 9.062933 18.782051 9.484819 18.847716 9.90625 18.90625 L 9.90625 18.03125 C 9.1510065 17.903175 8.3969398 17.670486 7.71875 17.3125 C 7.78963 17.174361 7.890571 16.9921 7.78125 16.84375 C 7.70256 16.694199 7.516751 16.69054 7.375 16.75 C 7.2861 16.81426 7.249966 16.912912 7.1875 17 C 6.324376 16.439033 5.565305 15.703217 5 14.84375 C 5.115323 14.75186 5.300471 14.67898 5.28125 14.5 C 5.30467 14.352851 5.197041 14.22774 5.0625 14.1875 C 4.926154 14.15206 4.804626 14.228399 4.6875 14.28125 C 4.2304114 13.383344 3.923669 12.386421 3.90625 11.375 C 4.141101 11.36359 4.394954 11.40141 4.625 11.34375 C 4.9331296 11.23564 4.9337736 10.760755 4.625 10.65625 C 4.395555 10.604 4.140501 10.63581 3.90625 10.625 C 3.92547 9.6153818 4.2280094 8.614054 4.6875 7.71875 C 4.859885 7.844878 5.135878 7.915126 5.25 7.6875 C 5.36172 7.467678 5.190404 7.273987 5 7.1875 C 5.561601 6.323227 6.323675 5.562868 7.1875 5 C 7.27219 5.120721 7.352859 5.302271 7.53125 5.28125 C 7.723455 5.31128 7.885795 5.121285 7.84375 4.9375 C 7.81432 4.85462 7.75839 4.76618 7.71875 4.6875 C 8.611305 4.215424 9.6212259 3.981926 10.625 3.90625 C 10.65683 4.1506969 10.59498 4.385958 10.65625 4.625 C 10.766167 4.927705 11.235034 4.928906 11.34375 4.625 C 11.40382 4.388361 11.35819 4.1482949 11.375 3.90625 C 12.383479 3.96511 13.384691 4.220229 14.28125 4.6875 C 14.161722 4.852066 14.105882 5.12147 14.3125 5.25 C 14.529332 5.391142 14.755456 5.200606 14.84375 5 C 15.706273 5.563969 16.4384 6.323728 17 7.1875 C 16.876869 7.27098 16.694124 7.349867 16.71875 7.53125 C 16.69773 7.677197 16.803559 7.806513 16.9375 7.84375 C 17.072044 7.87258 17.195374 7.769804 17.3125 7.71875 C 17.782202 8.61005 18.038507 9.6248908 18.125 10.625 C 17.896155 10.66284 17.666946 10.59673 17.4375 10.625 C 17.175019 10.68626 17.058996 11.054803 17.25 11.25 C 17.47344 11.496248 17.867925 11.290932 18.125 11.40625 C 18.113523 11.582643 18.086745 11.762608 18.0625 11.9375 L 18.9375 11.9375 C 18.959464 11.748758 18.991366 11.564942 19 11.375 C 19.05766 10.072285 18.780952 8.739688 18.21875 7.5625 C 17.520203 6.095219 16.380761 4.866712 14.96875 4.0625 C 13.776514 3.3802911 12.40512 3.003443 11.03125 3 z M 10.96875 6.28125 C 10.843131 6.29688 10.747373 6.401744 10.75 6.53125 C 10.749 7.836567 10.752 9.1639338 10.75 10.46875 C 10.66091 10.53482 10.567572 10.600412 10.5 10.6875 C 9.7346809 10.6835 8.984069 10.6895 8.21875 10.6875 C 8.09712 10.689 7.953084 10.70489 7.875 10.8125 C 7.81844 10.9091 7.747931 11.020394 7.8125 11.125 C 7.86706 11.250126 8.029114 11.309997 8.15625 11.3125 C 8.940089 11.315 9.7161609 11.30695 10.5 11.3125 C 10.601108 11.507197 10.849772 11.612269 11.0625 11.59375 C 11.377837 11.57723 11.632792 11.251317 11.59375 10.9375 C 11.59225 10.730291 11.435916 10.582865 11.28125 10.46875 C 11.27425 9.1584278 11.28475 7.841573 11.28125 6.53125 C 11.28275 6.428146 11.18685 6.350538 11.09375 6.3125 C 11.05383 6.29286 11.010624 6.27604 10.96875 6.28125 z "
     id="path3382" />
</svg>
