<svg viewBox="0 0 16 16" height="16" width="16" xmlns="http://www.w3.org/2000/svg" xmlns:sodipodi="http://sodipodi.sourceforge.net/DTD/sodipodi-0.dtd" xmlns:inkscape="http://www.inkscape.org/namespaces/inkscape">
 <path stroke-opacity="1" d="M 2 2 L 2 14 L 8 14 L 8 13 L 3 13 L 3 4 L 4 4 L 4 3 L 5 3 L 5 4 L 4 4 L 4 5 L 5 5 L 11 5 L 12 5 L 12 4 L 12 3 L 13 3 L 13 8 L 14 8 L 14 2 L 2 2 z M 6 3 L 9 3 L 9 4 L 6 4 L 6 3 z M 10 3 L 11 3 L 11 4 L 10 4 L 10 3 z M 6 7 L 6 8 L 8 8 L 10 8 L 10 7 L 6 7 z M 6 9 L 6 10 L 8 10 L 8 9 L 6 9 z M 9 9 L 9 14 L 14 14 L 14 9 L 9 9 z M 11 10 L 12 10 L 12 11 L 13 11 L 13 13 L 10 13 L 10 11 L 11 11 L 11 10 z M 11 11 L 11 12 L 12 12 L 12 11 L 11 11 z M 4 11 L 4 12 L 5 12 L 5 11 L 4 11 z " stroke-width="1" fill="#bebebe" fill-opacity="1" stroke="none" stroke-dasharray="none" opacity="1" stroke-miterlimit="4"/>
</svg>
