<?xml version="1.0" encoding="UTF-8" standalone="no"?>
<!-- Created with Inkscape (http://www.inkscape.org/) -->

<svg
   xmlns:dc="http://purl.org/dc/elements/1.1/"
   xmlns:cc="http://creativecommons.org/ns#"
   xmlns:rdf="http://www.w3.org/1999/02/22-rdf-syntax-ns#"
   xmlns:svg="http://www.w3.org/2000/svg"
   xmlns="http://www.w3.org/2000/svg"
   xmlns:sodipodi="http://sodipodi.sourceforge.net/DTD/sodipodi-0.dtd"
   xmlns:inkscape="http://www.inkscape.org/namespaces/inkscape"
   id="svg3815"
   height="22"
   width="22"
   version="1.1"
   inkscape:version="0.48.5 r10040"
   sodipodi:docname="edit-table-insert-column-right.svg">
  <defs
     id="defs3264" />
  <sodipodi:namedview
     pagecolor="#ffffff"
     bordercolor="#666666"
     borderopacity="1"
     objecttolerance="10"
     gridtolerance="10"
     guidetolerance="10"
     inkscape:pageopacity="0"
     inkscape:pageshadow="2"
     inkscape:window-width="640"
     inkscape:window-height="480"
     id="namedview3262" />
  <metadata
     id="metadata3820">
    <rdf:RDF>
      <cc:Work
         rdf:about="">
        <dc:format>image/svg+xml</dc:format>
        <dc:type
           rdf:resource="http://purl.org/dc/dcmitype/StillImage" />
        <dc:title />
      </cc:Work>
    </rdf:RDF>
  </metadata>
  <g
     id="layer1"
     transform="translate(-461.71 -525.79)">
    <path
       id="rect4108"
       style="fill:#4d4d4d"
       d="m3 3v1 8 1 1 4 1h1 6 2v-1h-2-1v-4h1 2v-1h-2-1v-1-3h4v3h1v-8h4 1v-1h-16zm1 1h4v4h-4v-4zm5 0h4v4h-4v-4zm-5 5h4v3 1h-4v-1-3zm0 5h4v4h-4v-4z"
       transform="translate(461.71 525.79)" />
    <path
       id="rect4197"
       style="fill:#1d99f3"
       d="m13 4v5.293 2.707h1v-2.293l4-4v2.586l-3.707 3.707h1.414l2.293-2.293v2.293h1v-8h-1v0.293l-4 4v-4.293h-1z"
       transform="translate(461.71 525.79)" />
    <path
       id="rect4139"
       d="m478.71 539.79v2h2v1h-2v2h-1v-2h-2v-1h2v-2h1z"
       style="fill:#4d4d4d" />
  </g>
</svg>
