<svg height="22" width="22" xmlns="http://www.w3.org/2000/svg" xmlns:sodipodi="http://sodipodi.sourceforge.net/DTD/sodipodi-0.dtd" xmlns:inkscape="http://www.inkscape.org/namespaces/inkscape">
 <path d="m3 3v1 15h1 14 1v-15-1h-16zm1 1h4 1 4 1 4v4h-4v1h4v4h-4v1h4v4h-4-1-4-1-4v-4h4v-1h-4v-4h4v-1h-4v-4z" fill="#4d4d4d" transform="matrix(1 0 0 1 0 0)"/>
 <path d="m8 4v5.293 4 4 0.707h0.707 0.293v-0.293l4-4v4.293h1v-14h-1v0.293l-4 4v-4.293h-1zm5 1.707v2.586l-4 4v-2.586l4-4zm0 4v2.586l-4 4v-2.586l4-4z" fill="#da4453" transform="matrix(1 0 0 1 0 0)"/>
</svg>
