<svg height="22" width="22" xmlns="http://www.w3.org/2000/svg" xmlns:sodipodi="http://sodipodi.sourceforge.net/DTD/sodipodi-0.dtd" xmlns:inkscape="http://www.inkscape.org/namespaces/inkscape">
 <g transform="matrix(1 0 0 1 -461.71 -525.79)">
  <path d="m9 3v1h8v10h-4v1 3h-8v-10h-1v11h1 8 1v-0.01l0.008 0.01 3.992-3.992v-0.008-1.406-10.594h-1-8zm0 3v1h6v-1h-6zm-2 3v1h8v-1h-8zm0 3v1h8v-1h-8zm0 3v1h4v-1h-4z" fill="#4d4d4d" transform="matrix(1 0 0 1 461.71 525.79)"/>
  <path d="m464.71 528.79 2 3 2-3z" fill="#1d99f3" fill-rule="evenodd"/>
 </g>
</svg>
