<?xml version="1.0" encoding="UTF-8" standalone="no"?>
<!-- Created with Inkscape (http://www.inkscape.org/) -->

<svg
   xmlns:dc="http://purl.org/dc/elements/1.1/"
   xmlns:cc="http://creativecommons.org/ns#"
   xmlns:rdf="http://www.w3.org/1999/02/22-rdf-syntax-ns#"
   xmlns:svg="http://www.w3.org/2000/svg"
   xmlns="http://www.w3.org/2000/svg"
   xmlns:sodipodi="http://sodipodi.sourceforge.net/DTD/sodipodi-0.dtd"
   xmlns:inkscape="http://www.inkscape.org/namespaces/inkscape"
   id="svg2"
   height="22"
   viewBox="0 0 22 22"
   width="22"
   version="1.1"
   inkscape:version="0.48.5 r10040"
   sodipodi:docname="edit-bomb.svg">
  <defs
     id="defs2523" />
  <sodipodi:namedview
     pagecolor="#ffffff"
     bordercolor="#666666"
     borderopacity="1"
     objecttolerance="10"
     gridtolerance="10"
     guidetolerance="10"
     inkscape:pageopacity="0"
     inkscape:pageshadow="2"
     inkscape:window-width="640"
     inkscape:window-height="480"
     id="namedview2521" />
  <metadata
     id="metadata7">
    <rdf:RDF>
      <cc:Work
         rdf:about="">
        <dc:format>image/svg+xml</dc:format>
        <dc:type
           rdf:resource="http://purl.org/dc/dcmitype/StillImage" />
        <dc:title />
      </cc:Work>
    </rdf:RDF>
  </metadata>
  <g
     id="layer1"
     transform="translate(0 -1030.4)">
    <path
       id="rect4111"
       style="fill:#4d4d4d"
       d="m19 3c-1.319 0.2713-2.458 1.0643-3.182 2.1777-0.25-0.1122-0.525-0.1777-0.818-0.1777-0.209 0-0.405 0.0409-0.594 0.0996-1.137-0.6937-2.471-1.0996-3.906-1.0996-4.155 0-7.5 3.345-7.5 7.5s3.345 7.5 7.5 7.5 7.5-3.345 7.5-7.5c0-1.435-0.406-2.7688-1.1-3.9062 0.059-0.1888 0.1-0.3853 0.1-0.5938 0-0.448-0.149-0.8568-0.396-1.1895 0.535-0.8717 1.385-1.5186 2.396-1.7812v-1.0293zm-12.682 3.5176c-0.9477 1.1289-1.5176 2.5857-1.5176 4.1814 0 3.601 2.899 6.5 6.5002 6.5 1.595 0 3.051-0.57 4.179-1.517-1.19 1.417-2.975 2.318-4.98 2.318-3.601 0-6.5-2.899-6.5-6.5 0-2.005 0.9001-3.7919 2.3184-4.9824z"
       transform="translate(0 1030.4)" />
  </g>
</svg>
