<svg height="22" width="22" xmlns="http://www.w3.org/2000/svg" xmlns:sodipodi="http://sodipodi.sourceforge.net/DTD/sodipodi-0.dtd" xmlns:inkscape="http://www.inkscape.org/namespaces/inkscape">
 <path d="m3 3v1 15h1 15v-1-15h-16zm1 1h14v14h-14v-14zm1 1v1 2h1v-2h2v-1h-3zm9 0v1h2v2h1v-2-1h-3zm-6 2c-0.554 0-1 0.446-1 1s0.446 1 1 1 1-0.446 1-1-0.446-1-1-1zm6 0c-0.554 0-1 0.446-1 1s0.446 1 1 1 1-0.446 1-1-0.446-1-1-1zm-6.8711 4.967l-0.9648 0.242c0.5405 2.178 2.4857 3.791 4.8359 3.791 2.35 0 4.295-1.613 4.836-3.791l-0.965-0.242c-0.432 1.743-1.99 3.033-3.871 3.033-1.8807 0-3.4392-1.29-3.8711-3.033zm-2.1289 2.033v2 1h3v-1h-2v-2h-1zm11 0v2h-2v1h3v-1-2h-1z" fill="#4d4d4d" transform="matrix(1 0 0 1 0 0)"/>
</svg>
