<svg viewBox="0 0 16 16" height="16" width="16" xmlns="http://www.w3.org/2000/svg" xmlns:sodipodi="http://sodipodi.sourceforge.net/DTD/sodipodi-0.dtd" xmlns:inkscape="http://www.inkscape.org/namespaces/inkscape">
 <path stroke="none" stroke-dasharray="none" stroke-dashoffset="0" stroke-linecap="butt" stroke-linejoin="miter" color="#000000" stroke-miterlimit="4" stroke-opacity="1" color-interpolation="sRGB" image-rendering="auto" stroke-width="1" color-interpolation-filters="linearRGB" color-rendering="auto" d="M 5 2 L 5 4 L 3 4 L 3 5 L 3 8 L 4 8 L 4 5 L 5 5 L 5 6 L 11 6 L 11 5 L 12 5 L 12 13 L 8 13 L 8 14 L 13 14 L 13 13 L 13 5 L 13 4 L 11 4 L 11 2 L 5 2 z M 6 3 L 10 3 L 10 4 L 10 5 L 6 5 L 6 4 L 6 3 z M 3 9 L 3 14 L 7 14 L 7 9 L 3 9 z M 4 10 L 6 10 L 6 13 L 4 13 L 4 10 z " text-rendering="auto" display="inline" visibility="visible" fill="#bebebe" fill-opacity="1" opacity="1" fill-rule="nonzero" shape-rendering="auto"/>
</svg>
