<svg height="22" viewBox="0 0 22 22" width="22" xmlns="http://www.w3.org/2000/svg" xmlns:sodipodi="http://sodipodi.sourceforge.net/DTD/sodipodi-0.dtd" xmlns:inkscape="http://www.inkscape.org/namespaces/inkscape">
 <path d="m19 3c-1.319 0.2713-2.458 1.0643-3.182 2.1777-0.25-0.1122-0.525-0.1777-0.818-0.1777-0.209 0-0.405 0.0409-0.594 0.0996-1.137-0.6937-2.471-1.0996-3.906-1.0996-4.155 0-7.5 3.345-7.5 7.5s3.345 7.5 7.5 7.5 7.5-3.345 7.5-7.5c0-1.435-0.406-2.7688-1.1-3.9062 0.059-0.1888 0.1-0.3853 0.1-0.5938 0-0.448-0.149-0.8568-0.396-1.1895 0.535-0.8717 1.385-1.5186 2.396-1.7812v-1.0293zm-12.682 3.5176c-0.9477 1.1289-1.5176 2.5857-1.5176 4.1814 0 3.601 2.899 6.5 6.5002 6.5 1.595 0 3.051-0.57 4.179-1.517-1.19 1.417-2.975 2.318-4.98 2.318-3.601 0-6.5-2.899-6.5-6.5 0-2.005 0.9001-3.7919 2.3184-4.9824z" fill="#4d4d4d" transform="matrix(1 0 0 1 0 0)"/>
</svg>
