<?xml version="1.0" encoding="UTF-8" standalone="no"?>
<!-- Created with Inkscape (http://www.inkscape.org/) -->

<svg
   xmlns:dc="http://purl.org/dc/elements/1.1/"
   xmlns:cc="http://creativecommons.org/ns#"
   xmlns:rdf="http://www.w3.org/1999/02/22-rdf-syntax-ns#"
   xmlns:svg="http://www.w3.org/2000/svg"
   xmlns="http://www.w3.org/2000/svg"
   xmlns:sodipodi="http://sodipodi.sourceforge.net/DTD/sodipodi-0.dtd"
   xmlns:inkscape="http://www.inkscape.org/namespaces/inkscape"
   id="svg3815"
   height="22"
   width="22"
   version="1.1"
   inkscape:version="0.48.5 r10040"
   sodipodi:docname="edit-select-all.svg">
  <defs
     id="defs3193" />
  <sodipodi:namedview
     pagecolor="#ffffff"
     bordercolor="#666666"
     borderopacity="1"
     objecttolerance="10"
     gridtolerance="10"
     guidetolerance="10"
     inkscape:pageopacity="0"
     inkscape:pageshadow="2"
     inkscape:window-width="640"
     inkscape:window-height="480"
     id="namedview3191" />
  <metadata
     id="metadata3820">
    <rdf:RDF>
      <cc:Work
         rdf:about="">
        <dc:format>image/svg+xml</dc:format>
        <dc:type
           rdf:resource="http://purl.org/dc/dcmitype/StillImage" />
        <dc:title />
      </cc:Work>
    </rdf:RDF>
  </metadata>
  <g
     id="layer1"
     transform="translate(-461.71 -525.79)">
    <path
       id="rect4108"
       style="fill:#4d4d4d"
       d="m3 3v1 3h1v-3h3v-1h-3-1zm12 0v1h3v3h1v-4h-4zm-10 2v5h5v-5h-5zm7 0v5h5v-5h-5zm-6 1h3v3h-3v-3zm7 0h3v3h-3v-3zm-8 6v5h5v-5h-5zm7 0v5h5v-5h-5zm-6 1h3v3h-3v-3zm7 0h3v3h-3v-3zm-10 2v4h1 3v-1h-3v-3h-1zm15 0v3h-3v1h4v-1-3h-1z"
       transform="translate(461.71 525.79)" />
  </g>
</svg>
