<svg height="22" width="22" xmlns="http://www.w3.org/2000/svg" xmlns:sodipodi="http://sodipodi.sourceforge.net/DTD/sodipodi-0.dtd" xmlns:inkscape="http://www.inkscape.org/namespaces/inkscape">
 <g transform="matrix(1 0 0 1 -461.71 -525.79)">
  <path d="m3 3v1 8 1 1 4 1h1 6 2v-1h-2-1v-4h1 2v-1h-2-1v-1-3h4v3h1v-8h4 1v-1h-16zm1 1h4v4h-4v-4zm5 0h4v4h-4v-4zm-5 5h4v3 1h-4v-1-3zm0 5h4v4h-4v-4z" fill="#4d4d4d" transform="matrix(1 0 0 1 461.71 525.79)"/>
  <path d="m13 4v5.293 2.707h1v-2.293l4-4v2.586l-3.707 3.707h1.414l2.293-2.293v2.293h1v-8h-1v0.293l-4 4v-4.293h-1z" fill="#1d99f3" transform="matrix(1 0 0 1 461.71 525.79)"/>
  <path d="m478.71 539.79v2h2v1h-2v2h-1v-2h-2v-1h2v-2h1z" fill="#4d4d4d"/>
 </g>
</svg>
