<svg height="22" width="22" xmlns="http://www.w3.org/2000/svg" xmlns:sodipodi="http://sodipodi.sourceforge.net/DTD/sodipodi-0.dtd" xmlns:inkscape="http://www.inkscape.org/namespaces/inkscape">
 <path d="m 3,3 0,1 0,15 1,0 15,0 0,-1 0,-15 z M 4,4 18,4 18,18 4,18 z M 5,5 5,6 5,7 6,7 6,6 7,6 7,5 z m 10,0 0,1 1,0 0,1 1,0 0,-2 z m -10,4 0,1 0,1 2,0 0,-1 -1,0 0,-1 z m 11,0 0,1 -1,0 0,1 2,0 0,-1 0,-1 z" fill="#4d4d4d" sodipodi:nodetypes="cccccccccccccccccccccccccccccccccccccccccccc" inkscape:connector-curvature="0" transform="matrix(1 0 0 1 0 0)"/>
 <path d="M 9.5509357,16.808346 C 7.959372,16.681443 7.0378149,16.483593 6.7643014,16.21008 6.6561135,16.101891 6.6493323,16.006378 6.7526593,16.046027 c 0.1731995,0.06646 0.058101,-0.02217 -0.1907924,-0.146929 -0.5391246,-0.270228 -0.8007716,-0.557397 -0.8011345,-0.87928 -2.552e-4,-0.202427 0.2756013,-1.341362 0.3813741,-1.574745 0.095785,-0.211341 0.4467786,-0.593046 0.7111432,-0.773365 0.2068231,-0.141071 0.5811121,-0.307759 1.891603,-0.842424 0.55369,-0.225898 0.7331152,-0.322091 0.7758871,-0.415966 0.088348,-0.193904 0.066339,-0.313437 -0.09474,-0.514614 C 9.343291,10.79541 9.1830823,10.513036 9.0699809,10.271207 8.9568794,10.029377 8.8308616,9.8186699 8.7899428,9.8029679 8.6628001,9.7541829 8.4264999,9.3829199 8.3326221,9.0844599 8.2238619,8.7386829 8.2559248,8.5122889 8.4455734,8.2869029 c 0.1212954,-0.144151 0.1353148,-0.19855 0.1216708,-0.472118 -0.047385,-0.950046 0.3728012,-1.85961 1.0592502,-2.292947 0.7199096,-0.454459 1.8955186,-0.4738125 2.6301336,-0.0433 0.710863,0.416593 1.084711,1.156367 1.084711,2.146431 0,0.458254 0.0061,0.484808 0.152633,0.651564 0.131708,0.150007 0.152565,0.213703 0.152137,0.464617 -3.37e-4,0.197195 -0.03877,0.372991 -0.119455,0.546232 -0.112402,0.241377 -0.399057,0.584029 -0.488587,0.584029 -0.02257,0 -0.09221,0.126042 -0.154737,0.2800951 -0.06252,0.154051 -0.191107,0.408671 -0.285737,0.56582 -0.204684,0.339911 -0.222211,0.568372 -0.05757,0.750531 0.07438,0.08231 0.494088,0.279348 1.198472,0.562658 1.264454,0.508575 1.287922,0.519912 1.620313,0.782649 0.392656,0.310378 0.551896,0.604167 0.72888,1.344733 0.209726,0.877568 0.205194,1.049268 -0.03469,1.314788 -0.103611,0.114683 -0.299601,0.272036 -0.435533,0.349669 -0.169865,0.09701 -0.223393,0.150269 -0.171176,0.170307 0.06249,0.02397 0.06529,0.05189 0.01579,0.157158 -0.195118,0.415006 -2.018208,0.695236 -4.435676,0.681811 -0.69957,-0.0039 -1.3635258,-0.01438 -1.4754572,-0.02329 z m 3.5292503,-0.857238 c 1.138244,-0.137011 2.228739,-0.459001 2.537781,-0.74933 0.06304,-0.05923 0.114626,-0.161119 0.114626,-0.226428 0,-0.242737 -0.261636,-1.215209 -0.382373,-1.421226 -0.201553,-0.343931 -0.526927,-0.534662 -1.799819,-1.055041 -0.65454,-0.267589 -1.247107,-0.539 -1.316815,-0.603138 -0.301112,-0.277048 -0.42514,-0.956277 -0.222105,-1.216346 0.14945,-0.191432 0.397112,-0.661638 0.46588,-0.8845041 0.07537,-0.244268 0.186223,-0.381584 0.308053,-0.381584 0.104157,0 0.269677,-0.249622 0.341631,-0.515217 0.056,-0.206676 0.04241,-0.239459 -0.149762,-0.36162 -0.13432,-0.08538 -0.135209,-0.09009 -0.153401,-0.81287 -0.01692,-0.671824 -0.02936,-0.75106 -0.164036,-1.044178 -0.182079,-0.396284 -0.524862,-0.726158 -0.898299,-0.86447 -0.986318,-0.365307 -2.0471272,-0.0325 -2.4377736,0.764785 -0.2025912,0.413481 -0.2747542,0.824922 -0.2381992,1.358113 0.031792,0.463691 0.011679,0.535557 -0.1760076,0.629133 -0.1646454,0.08208 -0.1728991,0.182713 -0.040277,0.491013 0.077438,0.180008 0.1713959,0.299529 0.2985859,0.37982 0.1360803,0.0859 0.2032628,0.176307 0.2518331,0.338873 0.092971,0.3111701 0.2365204,0.5840821 0.4755909,0.9041701 0.1737275,0.232604 0.2044025,0.31019 0.1972635,0.498938 -0.0102,0.269567 -0.1038013,0.507956 -0.2697692,0.68704 -0.081805,0.08827 -0.4898362,0.281207 -1.2150702,0.574549 -1.3294194,0.537722 -1.5251806,0.640807 -1.8023785,0.949118 -0.1968497,0.218945 -0.2320159,0.300954 -0.3765788,0.878216 -0.087701,0.350198 -0.1594549,0.679122 -0.1594549,0.730945 0,0.406292 1.5002059,0.864449 3.3579369,1.025501 0.7440287,0.0645 2.6386227,0.02375 3.4529377,-0.07426 z" fill="#4d4d4d" fill-opacity="1" sodipodi:nodetypes="ssscsssssssssssssscsssssssssssssssssssssssssssssssssssssssssssss" inkscape:connector-curvature="0"/>
</svg>
