<svg viewBox="0 0 16 16" height="16" width="16" xmlns="http://www.w3.org/2000/svg" xmlns:sodipodi="http://sodipodi.sourceforge.net/DTD/sodipodi-0.dtd" xmlns:inkscape="http://www.inkscape.org/namespaces/inkscape">
 <path stroke="none" stroke-dasharray="none" stroke-dashoffset="0" stroke-linecap="butt" stroke-linejoin="miter" color="#000000" stroke-miterlimit="4" stroke-opacity="1" color-interpolation="sRGB" image-rendering="auto" stroke-width="1" color-interpolation-filters="linearRGB" color-rendering="auto" d="M 2 2 L 2 6 L 3 6 L 3 3 L 6 3 L 6 2 L 2 2 z M 10 2 L 10 3 L 13 3 L 13 6 L 14 6 L 14 2 L 10 2 z M 4 4 L 4 7 L 7 7 L 7 4 L 4 4 z M 9 4 L 9 7 L 12 7 L 12 4 L 9 4 z M 5 5 L 6 5 L 6 6 L 5 6 L 5 5 z M 10 5 L 11 5 L 11 6 L 10 6 L 10 5 z M 4 9 L 4 12 L 7 12 L 7 9 L 4 9 z M 9 9 L 9 12 L 12 12 L 12 9 L 9 9 z M 2 10 L 2 14 L 6 14 L 6 13 L 3 13 L 3 10 L 2 10 z M 5 10 L 6 10 L 6 11 L 5 11 L 5 10 z M 10 10 L 11 10 L 11 11 L 10 11 L 10 10 z M 13 10 L 13 13 L 10 13 L 10 14 L 14 14 L 14 10 L 13 10 z " text-rendering="auto" display="inline" visibility="visible" fill="#bebebe" fill-opacity="1" opacity="1" fill-rule="nonzero" shape-rendering="auto"/>
</svg>
