<?xml version="1.0" encoding="UTF-8" standalone="no"?>
<!-- Created with Inkscape (http://www.inkscape.org/) -->

<svg
   xmlns:dc="http://purl.org/dc/elements/1.1/"
   xmlns:cc="http://creativecommons.org/ns#"
   xmlns:rdf="http://www.w3.org/1999/02/22-rdf-syntax-ns#"
   xmlns:svg="http://www.w3.org/2000/svg"
   xmlns="http://www.w3.org/2000/svg"
   xmlns:sodipodi="http://sodipodi.sourceforge.net/DTD/sodipodi-0.dtd"
   xmlns:inkscape="http://www.inkscape.org/namespaces/inkscape"
   id="svg3815"
   height="22"
   width="22"
   version="1.1"
   inkscape:version="0.48.5 r10040"
   sodipodi:docname="edit-table-delete-column.svg">
  <defs
     id="defs3235" />
  <sodipodi:namedview
     pagecolor="#ffffff"
     bordercolor="#666666"
     borderopacity="1"
     objecttolerance="10"
     gridtolerance="10"
     guidetolerance="10"
     inkscape:pageopacity="0"
     inkscape:pageshadow="2"
     inkscape:window-width="640"
     inkscape:window-height="480"
     id="namedview3233" />
  <metadata
     id="metadata3820">
    <rdf:RDF>
      <cc:Work
         rdf:about="">
        <dc:format>image/svg+xml</dc:format>
        <dc:type
           rdf:resource="http://purl.org/dc/dcmitype/StillImage" />
        <dc:title />
      </cc:Work>
    </rdf:RDF>
  </metadata>
  <g
     id="layer1"
     transform="translate(-461.71 -525.79)">
    <path
       id="rect4108"
       style="fill:#4d4d4d"
       d="m3 3v1 15h1 14 1v-15-1h-16zm1 1h4 1 4 1 4v4h-4v1h4v4h-4v1h4v4h-4-1-4-1-4v-4h4v-1h-4v-4h4v-1h-4v-4z"
       transform="translate(461.71 525.79)" />
    <path
       id="rect4197"
       style="fill:#da4453"
       d="m8 4v5.293 4 4 0.707h0.707 0.293v-0.293l4-4v4.293h1v-14h-1v0.293l-4 4v-4.293h-1zm5 1.707v2.586l-4 4v-2.586l4-4zm0 4v2.586l-4 4v-2.586l4-4z"
       transform="translate(461.71 525.79)" />
  </g>
</svg>
