<?xml version="1.0" encoding="UTF-8" standalone="no"?>
<!-- Created with Inkscape (http://www.inkscape.org/) -->

<svg
   xmlns:dc="http://purl.org/dc/elements/1.1/"
   xmlns:cc="http://creativecommons.org/ns#"
   xmlns:rdf="http://www.w3.org/1999/02/22-rdf-syntax-ns#"
   xmlns:svg="http://www.w3.org/2000/svg"
   xmlns="http://www.w3.org/2000/svg"
   xmlns:sodipodi="http://sodipodi.sourceforge.net/DTD/sodipodi-0.dtd"
   xmlns:inkscape="http://www.inkscape.org/namespaces/inkscape"
   id="svg3760"
   height="22"
   width="22"
   version="1.1"
   inkscape:version="0.48.5 r10040"
   sodipodi:docname="edit-link.svg">
  <defs
     id="defs3095" />
  <sodipodi:namedview
     pagecolor="#ffffff"
     bordercolor="#666666"
     borderopacity="1"
     objecttolerance="10"
     gridtolerance="10"
     guidetolerance="10"
     inkscape:pageopacity="0"
     inkscape:pageshadow="2"
     inkscape:window-width="640"
     inkscape:window-height="480"
     id="namedview3093" />
  <metadata
     id="metadata3765">
    <rdf:RDF>
      <cc:Work
         rdf:about="">
        <dc:format>image/svg+xml</dc:format>
        <dc:type
           rdf:resource="http://purl.org/dc/dcmitype/StillImage" />
        <dc:title />
      </cc:Work>
    </rdf:RDF>
  </metadata>
  <g
     id="layer1"
     transform="translate(-553.72 -583.12)">
    <path
       id="rect4112"
       style="fill:#4d4d4d"
       d="m7 3v2h-4v1h4v2h8v-2h4v-1h-4v-2zm1 1h6v3h-6z"
       transform="translate(553.72 583.12)" />
    <g
       id="layer1-3"
       transform="translate(547.69 -445.96)">
      <path
         id="rect4139-4"
         d="m23.048 1040-0.99609 0.9941h-0.0039l-5 4.9942 0.0078 0.01-0.0039 1.002h-0.0039v0.9902 0.01h2l0.0059-0.01h0.0039 0.0098l-0.0059-0.01 0.98633-0.9864 4-3.9921-0.70508-0.709-4.9902 4.9824-0.59375-0.5918 4.9922-4.9844 0.5918 0.5938 0.70508 0.7031 1-1-2-1.9961z"
         style="fill:#4d4d4d" />
    </g>
  </g>
</svg>
