<svg height="22" width="22" xmlns="http://www.w3.org/2000/svg" xmlns:sodipodi="http://sodipodi.sourceforge.net/DTD/sodipodi-0.dtd" xmlns:inkscape="http://www.inkscape.org/namespaces/inkscape">
 <path d="m334.35 536.36c-1.6265 0-3.2477 0.61583-4.4878 1.8514-2.4801 2.471-2.4801 6.4811 0 8.9521 2.1621 2.1542 5.4928 2.4454 7.9561 0.84365 0.41872 0.0209 1.0958 0.0803 1.3358 0.35153 0.32669 0.36925-0.13441 1.23 0.49213 1.7928l3.8902 3.9488s0.72551 0.77019 1.8514-0.35152c1.1258-1.1217 0.35152-1.8396 0.35152-1.8396l-3.9019-3.9488c-0.56484-0.62424-1.4339-0.16664-1.8045-0.49213-0.27219-0.23905-0.3188-0.90688-0.3398-1.3241 1.6076-2.4543 1.3185-5.7785-0.84366-7.9327-1.2401-1.2355-2.873-1.8514-4.4995-1.8514zm0.0234 2.1091c2.3383 0 4.2417 1.8885 4.2417 4.2183 0 2.3297-1.9034 4.2183-4.2417 4.2183s-4.23-1.8886-4.23-4.2183c0-1.1649 0.47533-2.2358 1.242-2.9997 0.76672-0.76392 1.8188-1.2186 2.9879-1.2186zm-5.2494 13.639c-0.62125 0-1.1249 0.50362-1.1249 1.1249 0 0.62125 0.50362 1.1249 1.1249 1.1249 0.62125 0 1.1249-0.50362 1.1249-1.1249 0-0.62125-0.50362-1.1249-1.1249-1.1249zm3.7496 0c-0.62125 0-1.1249 0.50362-1.1249 1.1249 0 0.62125 0.50362 1.1249 1.1249 1.1249 0.62125 0 1.1249-0.50362 1.1249-1.1249 0-0.62125-0.50362-1.1249-1.1249-1.1249zm3.7496 0c-0.62125 0-1.1249 0.50362-1.1249 1.1249 0 0.62125 0.50362 1.1249 1.1249 1.1249 0.62125 0 1.1249-0.50362 1.1249-1.1249 0-0.62125-0.50363-1.1249-1.1249-1.1249z" fill="#4d4d4d" transform="matrix(1 0 0 1 -326 -534.36)"/>
</svg>
