<svg viewBox="0 0 16 16" height="16" width="16" xmlns="http://www.w3.org/2000/svg" xmlns:sodipodi="http://sodipodi.sourceforge.net/DTD/sodipodi-0.dtd" xmlns:inkscape="http://www.inkscape.org/namespaces/inkscape">
 <path stroke="none" stroke-dasharray="none" stroke-dashoffset="0" stroke-linecap="butt" stroke-linejoin="miter" color="#000000" stroke-miterlimit="4" stroke-opacity="1" color-interpolation="sRGB" image-rendering="auto" stroke-width="1" color-interpolation-filters="linearRGB" color-rendering="auto" d="M 6.5 2 C 4.007 2 2 4.007 2 6.5 C 2 8.993 4.007 11 6.5 11 C 7.5651803 11 8.5297347 10.620008 9.2988281 10.005859 L 13.292969 14 L 14 13.292969 L 10.005859 9.2988281 C 10.620008 8.5297347 11 7.5651803 11 6.5 C 11 4.007 8.993 2 6.5 2 z M 6.5 3 C 8.439 3 10 4.561 10 6.5 C 10 7.2882386 9.7333334 8.0060132 9.296875 8.5898438 C 9.2921772 8.5961277 9.285989 8.6011709 9.28125 8.6074219 C 9.0882807 8.8619589 8.8619589 9.0882807 8.6074219 9.28125 C 8.6011568 9.2859997 8.5961427 9.292166 8.5898438 9.296875 C 8.0060132 9.7333334 7.2882386 10 6.5 10 C 4.561 10 3 8.439 3 6.5 C 3 4.561 4.561 3 6.5 3 z M 6.5 4 C 6.3288603 4 6.1613003 4.0183263 6 4.0507812 L 6 5.0917969 C 6.1572213 5.0361391 6.3232402 5 6.5 5 C 7.331 5 8 5.669 8 6.5 C 8 6.6767598 7.9638609 6.8427787 7.9082031 7 L 8.9492188 7 C 8.9816736 6.8386997 9 6.6711397 9 6.5 C 9 5.115 7.885 4 6.5 4 z " text-rendering="auto" display="inline" visibility="visible" fill="#bebebe" fill-opacity="1" opacity="1" fill-rule="nonzero" shape-rendering="auto"/>
</svg>
