<svg height="22" width="22" xmlns="http://www.w3.org/2000/svg" xmlns:sodipodi="http://sodipodi.sourceforge.net/DTD/sodipodi-0.dtd" xmlns:inkscape="http://www.inkscape.org/namespaces/inkscape">
 <g transform="matrix(1 0 0 1 -461.71 -525.79)">
  <path d="m464.71 544.79h1 8 1 1 4 1v-1-6-2h-1v2 1h-4v-1-2h-1v2 1h-1-3v-4h3v-1h-8v-4-1h-1v16zm1-1v-4h4v4h-4zm0-5v-4h4v4h-4zm5 5v-4h3 1v4h-1-3zm5 0v-4h4v4h-4z" fill="#4d4d4d"/>
  <path d="m473.71 528.79h-5.293-2.707v1h2.293l4 4h-2.5859l-3.707-3.707v1.4141l2.293 2.293h-2.293v1h8v-1h-0.29297l-4-4h4.293v-1z" fill="#1d99f3"/>
  <path d="m475.71 530.79h2v-2h1v2h2v1h-2v2h-1v-2h-2v-1z" fill="#4d4d4d"/>
 </g>
</svg>
