<?xml version="1.0" encoding="UTF-8" standalone="no"?>
<!-- Created with Inkscape (http://www.inkscape.org/) -->

<svg
   xmlns:dc="http://purl.org/dc/elements/1.1/"
   xmlns:cc="http://creativecommons.org/ns#"
   xmlns:rdf="http://www.w3.org/1999/02/22-rdf-syntax-ns#"
   xmlns:svg="http://www.w3.org/2000/svg"
   xmlns="http://www.w3.org/2000/svg"
   xmlns:sodipodi="http://sodipodi.sourceforge.net/DTD/sodipodi-0.dtd"
   xmlns:inkscape="http://www.inkscape.org/namespaces/inkscape"
   id="svg3815"
   height="22"
   width="22"
   version="1.1"
   inkscape:version="0.48.5 r10040"
   sodipodi:docname="emoticon.svg">
  <sodipodi:namedview
     pagecolor="#ffffff"
     bordercolor="#666666"
     borderopacity="1"
     objecttolerance="10"
     gridtolerance="10"
     guidetolerance="10"
     inkscape:pageopacity="0"
     inkscape:pageshadow="2"
     inkscape:window-width="640"
     inkscape:window-height="480"
     id="namedview3416" />
  <defs
     id="defs3817">
    <filter
       id="filter3174"
       color-interpolation-filters="sRGB">
      <feGaussianBlur
         id="feGaussianBlur3176"
         stdDeviation="1.71" />
    </filter>
    <filter
       id="filter3794"
       height="1.384"
       width="1.384"
       color-interpolation-filters="sRGB"
       y="-.192"
       x="-.192">
      <feGaussianBlur
         id="feGaussianBlur3796"
         stdDeviation="5.28" />
    </filter>
    <clipPath
       id="clipPath4355">
      <rect
         id="rect4357"
         style="fill:#fff"
         rx="6"
         ry="6"
         height="80"
         width="84"
         y="6"
         x="6" />
    </clipPath>
  </defs>
  <metadata
     id="metadata3820">
    <rdf:RDF>
      <cc:Work
         rdf:about="">
        <dc:format>image/svg+xml</dc:format>
        <dc:type
           rdf:resource="http://purl.org/dc/dcmitype/StillImage" />
        <dc:title />
      </cc:Work>
    </rdf:RDF>
  </metadata>
  <g
     id="layer1"
     transform="translate(-461.71 -525.79)">
    <path
       id="path10099"
       style="fill:#4d4d4d;fill-rule:evenodd"
       d="m11 3c-4.4183 0-8 3.5817-8 8s3.5817 8 8 8 8-3.5817 8-8-3.5817-8-8-8zm0 1.5c3.5899 0 6.5 2.9101 6.5 6.5s-2.9101 6.5-6.5 6.5-6.5-2.91-6.5-6.5c0-3.5899 2.9101-6.5 6.5-6.5zm-2.625 2.7812c-0.55228 0-1 0.8104-1 1.8125s0.44772 1.8125 1 1.8125c0.55229 0 1-0.8104 1-1.8125s-0.44771-1.8125-1-1.8125zm5.2188 0c-0.55228 0-1 0.8104-1 1.8125s0.44772 1.8125 1 1.8125c0.55229 0 1-0.8104 1-1.8125s-0.44771-1.8125-1-1.8125zm-1 5.1248v0.75025c0 0.196-0.151 0.344-0.344 0.344h-0.6875c-0.19339 0-0.375-0.14756-0.375-0.34375v-0.75h-0.375v0.75c0 0.19619-0.18161 0.34375-0.375 0.34375h-0.6875c-0.19339 0-0.34375-0.14756-0.34375-0.34375v-0.75h-3.1875c0.60304 2.1022 2.5031 3.625 4.7812 3.625 2.2885 0 4.1875-1.5083 4.7812-3.6252z"
       transform="translate(461.71 525.79)" />
    <rect
       id="rect3745"
       style="opacity:.9;filter:url(#filter3174);display:none;fill:#4d4d4d"
       transform="matrix(.36331 0 0 .36331 536.21 442.45)"
       rx="6"
       ry="6"
       height="85"
       width="86"
       y="7"
       x="5" />
    <rect
       id="rect3171"
       style="opacity:.1;filter:url(#filter3794);stroke:#fff;stroke-linecap:round;stroke-width:.5;display:none;fill:#4d4d4d"
       transform="matrix(.36331 0 0 .36331 536.21 442.45)"
       clip-path="url(#clipPath4355)"
       rx="12"
       ry="12"
       height="62"
       width="66"
       y="15"
       x="15" />
  </g>
</svg>
