<svg height="22" width="22" xmlns="http://www.w3.org/2000/svg" xmlns:sodipodi="http://sodipodi.sourceforge.net/DTD/sodipodi-0.dtd" xmlns:inkscape="http://www.inkscape.org/namespaces/inkscape">
 <path d="m11 3c-4.4183 0-8 3.5817-8 8s3.5817 8 8 8 8-3.5817 8-8-3.5817-8-8-8zm0 1.5c3.5899 0 6.5 2.9101 6.5 6.5s-2.9101 6.5-6.5 6.5-6.5-2.91-6.5-6.5c0-3.5899 2.9101-6.5 6.5-6.5zm-2.625 2.7812c-0.55228 0-1 0.8104-1 1.8125s0.44772 1.8125 1 1.8125c0.55229 0 1-0.8104 1-1.8125s-0.44771-1.8125-1-1.8125zm5.2188 0c-0.55228 0-1 0.8104-1 1.8125s0.44772 1.8125 1 1.8125c0.55229 0 1-0.8104 1-1.8125s-0.44771-1.8125-1-1.8125zm-1 5.1248v0.75025c0 0.196-0.151 0.344-0.344 0.344h-0.6875c-0.19339 0-0.375-0.14756-0.375-0.34375v-0.75h-0.375v0.75c0 0.19619-0.18161 0.34375-0.375 0.34375h-0.6875c-0.19339 0-0.34375-0.14756-0.34375-0.34375v-0.75h-3.1875c0.60304 2.1022 2.5031 3.625 4.7812 3.625 2.2885 0 4.1875-1.5083 4.7812-3.6252z" fill="#4d4d4d" fill-rule="evenodd" transform="matrix(1 0 0 1 0 0)"/>
</svg>
