<svg height="22" viewBox="0 0 22 22" width="22" xmlns="http://www.w3.org/2000/svg" xmlns:sodipodi="http://sodipodi.sourceforge.net/DTD/sodipodi-0.dtd" xmlns:inkscape="http://www.inkscape.org/namespaces/inkscape">
 <path d="m5.3896 1044.6c-1.3196 0-2.3896 1.0714-2.3896 2.3917 0 1.3176 1.07 2.3897 2.3896 2.3897s2.3896-1.0721 2.3896-2.3897c0-1.3203-1.07-2.3917-2.3896-2.3917zm-2.3896-6.2338v2.4952c4.7056 0 8.5197 3.8141 8.5197 8.52h2.4926c0-6.0821-4.9304-11.015-11.012-11.015zm0-4.9848v2.492c7.4588 0 13.507 6.0469 13.507 13.508h2.4926c0-8.8381-7.1642-16-16-16" fill="#4d4d4d" transform="matrix(1 0 0 1 0 -1030.4)"/>
</svg>
