<?xml version="1.0" encoding="UTF-8" standalone="no"?>
<!-- Created with Inkscape (http://www.inkscape.org/) -->

<svg
   xmlns:dc="http://purl.org/dc/elements/1.1/"
   xmlns:cc="http://creativecommons.org/ns#"
   xmlns:rdf="http://www.w3.org/1999/02/22-rdf-syntax-ns#"
   xmlns:svg="http://www.w3.org/2000/svg"
   xmlns="http://www.w3.org/2000/svg"
   xmlns:sodipodi="http://sodipodi.sourceforge.net/DTD/sodipodi-0.dtd"
   xmlns:inkscape="http://www.inkscape.org/namespaces/inkscape"
   id="svg2"
   height="22"
   viewBox="0 0 22 22"
   width="22"
   version="1.1"
   inkscape:version="0.48.5 r10040"
   sodipodi:docname="feFlood-icon.svg">
  <defs
     id="defs3793" />
  <sodipodi:namedview
     pagecolor="#ffffff"
     bordercolor="#666666"
     borderopacity="1"
     objecttolerance="10"
     gridtolerance="10"
     guidetolerance="10"
     inkscape:pageopacity="0"
     inkscape:pageshadow="2"
     inkscape:window-width="640"
     inkscape:window-height="480"
     id="namedview3791" />
  <metadata
     id="metadata7">
    <rdf:RDF>
      <cc:Work
         rdf:about="">
        <dc:format>image/svg+xml</dc:format>
        <dc:type
           rdf:resource="http://purl.org/dc/dcmitype/StillImage" />
        <dc:title />
      </cc:Work>
    </rdf:RDF>
  </metadata>
  <g
     id="layer1"
     transform="translate(0 -1030.4)">
    <path
       id="rect4108"
       style="fill:#4d4d4d"
       d="m5.5 3c-0.4865 1.7025-1.6782 3.1661-2.2031 4.3379-0.1837 0.3484-0.2969 0.7394-0.2969 1.1621 0 1.385 1.115 2.5 2.5 2.5s2.5-1.115 2.5-2.5c0-0.4227-0.1132-0.8137-0.2969-1.1621-0.5249-1.1718-1.7167-2.6354-2.2031-4.3379zm11 0c-0.486 1.7025-1.678 3.1661-2.203 4.3379-0.184 0.3484-0.297 0.7394-0.297 1.1621 0 1.385 1.115 2.5 2.5 2.5s2.5-1.115 2.5-2.5c0-0.4227-0.113-0.8137-0.297-1.1621-0.525-1.1718-1.717-2.6354-2.203-4.3379zm-5.5 8c-0.486 1.702-1.6782 3.166-2.2031 4.338-0.1837 0.348-0.2969 0.739-0.2969 1.162 0 1.385 1.115 2.5 2.5 2.5s2.5-1.115 2.5-2.5c0-0.423-0.113-0.814-0.297-1.162-0.525-1.172-1.717-2.636-2.203-4.338z"
       transform="translate(0 1030.4)" />
  </g>
</svg>
