<svg height="22" width="22" xmlns="http://www.w3.org/2000/svg" xmlns:xlink="http://www.w3.org/1999/xlink" xmlns:sodipodi="http://sodipodi.sourceforge.net/DTD/sodipodi-0.dtd" xmlns:inkscape="http://www.inkscape.org/namespaces/inkscape">
 <defs>
  <path d="m42.667 40.946c0 9.5017-7.7026 17.204-17.204 17.204-9.5017 0-17.204-7.7026-17.204-17.204 0-9.5017 7.7026-17.204 17.204-17.204 9.5017 0 17.204 7.7026 17.204 17.204z" stroke-width="5.227" fill="none" stroke="#4d4d4d" id="SVGCleanerId_0" stroke-linecap="round" stroke-linejoin="round"/>
  <path d="m40.258 21.161c0 6.7462-5.4689 12.215-12.215 12.215-6.7462 0-12.215-5.4689-12.215-12.215 0-6.7462 5.4689-12.215 12.215-12.215 6.7462 0 12.215 5.4689 12.215 12.215z" stroke-width="4.182" fill="none" stroke="#f00" id="SVGCleanerId_1" stroke-linecap="round" stroke-linejoin="round"/>
  <path d="m29.935 20.989c0 7.4113-6.008 13.419-13.419 13.419-7.4113 0-13.419-6.008-13.419-13.419 0-7.4113 6.008-13.419 13.419-13.419 7.4113 0 13.419 6.0081 13.419 13.419z" stroke-width="3.136" fill="none" stroke="#0f0" id="SVGCleanerId_2" stroke-linecap="round" stroke-linejoin="round"/>
 </defs>
 <use xlink:href="#SVGCleanerId_0" transform="matrix(0.1387 -0.02087 0.02087 0.1387 3.612 10.414)"/>
 <use xlink:href="#SVGCleanerId_1" transform="matrix(0.1387 -0.02087 0.02087 0.1387 3.746 10.511)"/>
 <use xlink:href="#SVGCleanerId_2" transform="matrix(0.1387 -0.02087 0.02087 0.1387 3.132 9.878)"/>
 <use xlink:href="#SVGCleanerId_0" transform="matrix(0.1387 -0.02087 0.02087 0.1387 11.08 3.724)"/>
 <use xlink:href="#SVGCleanerId_1" transform="matrix(0.1387 -0.02087 0.02087 0.1387 11.216 3.821)"/>
 <use xlink:href="#SVGCleanerId_2" transform="matrix(0.1387 -0.02087 0.02087 0.1387 10.602 3.188)"/>
</svg>
