<svg height="22" width="22" xmlns="http://www.w3.org/2000/svg" xmlns:sodipodi="http://sodipodi.sourceforge.net/DTD/sodipodi-0.dtd" xmlns:inkscape="http://www.inkscape.org/namespaces/inkscape">
 <g stroke-opacity="1" stroke="#4d4d4d" transform="matrix(0.02843 0 0 0.02843 3.326 -7.721)">
  <path d="m299.34 432.45c-36.903 1.532-71.825 22.374-92.451 52.729-10.987 15.282-20.654 32.224-36.126 43.526-12.865 8.0124-28.494 8.6402-43.202 9.2123-22.613 1.1709-45.949 2.6156-66.807 12.269-19.874 9.6192-32.796 32.933-28.494 54.893 3.288 18.658 16.839 34.328 33.384 42.908 15.384 9.2865 32.79 16.14 45.091 29.734 11.085 12.874 13.046 31.832 7.4605 47.529-5.4742 20.817-11.938 42.143-9.6157 63.919 1.77 15.243 13.554 29.56 29.047 32.076 15.504 2.9806 31.179-1.1078 46.063-5.2587 17.731-5.4955 34.756-14.118 53.468-15.803 11.876-0.19046 22.463 6.2334 31.818 12.879 20.108 13.402 39.942 28.159 63.26 35.523 13.472 4.2631 28.583 6.1163 42.027 0.76754 10.708-4.2038 19.687-13.032 23.15-24.114 4.4686-12.672 2.5152-26.633-1.988-39.004-5.671-17.902-15.33-34.849-16.613-53.907 0.30188-11.933 9.1577-22.214 19.797-26.781 18.464-10.768 36.024-24.512 46.856-43.289 11.211-18.091 17.525-39.683 15.593-61.03-1.3449-9.9933-6.2448-20.559-15.802-25.031-11.14-5.5566-23.989-4.1776-35.957-3.1376-16.452 1.4871-33.573 3.8392-49.598-1.5236-14.799-3.541-24.212-20.225-20.85-34.821 3.9292-19.85 11.61-39.344 10.447-59.888-0.80341-18.762-14.34-35.949-32.094-41.773-5.7109-2.0166-11.813-2.9267-17.863-2.6054z" stroke-width="15" fill-opacity="0.156" fill-rule="evenodd" stroke-dasharray="30 30" opacity="0.412" stroke-linecap="round" stroke-linejoin="round"/>
  <path d="m346.8 464.38c-36.903 1.532-71.825 22.374-92.451 52.729-10.987 15.282-20.654 32.224-36.126 43.526-12.865 8.0124-28.494 8.6402-43.202 9.2123-22.613 1.1709-45.949 2.6156-66.807 12.269-19.874 9.6192-32.796 32.933-28.494 54.893 3.288 18.658 16.839 34.328 33.384 42.908 15.384 9.2865 32.79 16.14 45.091 29.734 11.085 12.874 13.046 31.832 7.4605 47.529-5.4742 20.817-11.938 42.143-9.6157 63.919 1.77 15.243 13.554 29.56 29.047 32.076 15.504 2.9806 31.179-1.1078 46.063-5.2587 17.731-5.4955 34.756-14.118 53.468-15.803 11.876-0.19046 22.463 6.2334 31.818 12.879 20.108 13.402 39.942 28.159 63.26 35.523 13.472 4.2631 28.583 6.1163 42.027 0.76754 10.708-4.2038 19.687-13.032 23.15-24.114 4.4686-12.672 2.5152-26.633-1.988-39.004-5.671-17.902-15.33-34.849-16.613-53.907 0.30188-11.933 9.1577-22.214 19.797-26.781 18.464-10.768 36.024-24.512 46.856-43.289 11.211-18.091 17.525-39.683 15.593-61.03-1.3449-9.9933-6.2448-20.559-15.802-25.031-11.14-5.5566-23.989-4.1776-35.957-3.1376-16.452 1.4871-33.573 3.8392-49.598-1.5236-14.799-3.541-24.212-20.225-20.85-34.821 3.9292-19.85 11.61-39.344 10.447-59.888-0.80341-18.762-14.34-35.949-32.094-41.773-5.7109-2.0166-11.813-2.9267-17.863-2.6054z" stroke-width="15" fill="none" stroke-linecap="round" stroke-linejoin="round"/>
 </g>
</svg>
