<svg height="22" viewBox="0 0 22 22" width="22" xmlns="http://www.w3.org/2000/svg" xmlns:sodipodi="http://sodipodi.sourceforge.net/DTD/sodipodi-0.dtd" xmlns:inkscape="http://www.inkscape.org/namespaces/inkscape">
 <g transform="matrix(1 0 0 1 0 -1030.4)">
  <path d="m3 3v1 15h1 7v-1h-7v-8h3v-0.0078l0.0078 0.0078 2-2h8.9922v3h1v-6h-6.9922l-2-2-0.008 0.0078v-0.0078h-6z" fill="#4d4d4d" transform="matrix(1 0 0 1 0 1030.4)"/>
  <path d="m16.5 1049.6-0.20703-0.207-3.293-3.293 0.70703-0.707 2.293 2.2929v-4.2929h1v4.2929l2.293-2.2929 0.70703 0.707-3.293 3.293-0.20703 0.207z" fill="#4d4d4d"/>
  <path d="m12 12v1 1h1v-1h1v-1h-1-1zm7 0v1h1v1h1v-1-1h-2zm-7 5v1 1h2v-1h-1v-1h-1zm8 0v1h-1v1h2v-1-1h-1z" fill="#4d4d4d" transform="matrix(1 0 0 1 0 1030.4)"/>
 </g>
</svg>
