<?xml version="1.0" encoding="UTF-8" standalone="no"?>
<!-- Created with Inkscape (http://www.inkscape.org/) -->

<svg
   xmlns:dc="http://purl.org/dc/elements/1.1/"
   xmlns:cc="http://creativecommons.org/ns#"
   xmlns:rdf="http://www.w3.org/1999/02/22-rdf-syntax-ns#"
   xmlns:svg="http://www.w3.org/2000/svg"
   xmlns="http://www.w3.org/2000/svg"
   xmlns:sodipodi="http://sodipodi.sourceforge.net/DTD/sodipodi-0.dtd"
   xmlns:inkscape="http://www.inkscape.org/namespaces/inkscape"
   id="svg18109"
   height="22"
   width="22"
   version="1.1"
   inkscape:version="0.48.5 r10040"
   sodipodi:docname="filterimages.svg">
  <defs
     id="defs9" />
  <sodipodi:namedview
     pagecolor="#ffffff"
     bordercolor="#666666"
     borderopacity="1"
     objecttolerance="10"
     gridtolerance="10"
     guidetolerance="10"
     inkscape:pageopacity="0"
     inkscape:pageshadow="2"
     inkscape:window-width="640"
     inkscape:window-height="480"
     id="namedview7"
     showgrid="false"
     inkscape:zoom="10.727273"
     inkscape:cx="11"
     inkscape:cy="11"
     inkscape:window-x="0"
     inkscape:window-y="30"
     inkscape:window-maximized="0"
     inkscape:current-layer="svg18109" />
  <metadata
     id="metadata18114">
    <rdf:RDF>
      <cc:Work
         rdf:about="">
        <dc:format>image/svg+xml</dc:format>
        <dc:type
           rdf:resource="http://purl.org/dc/dcmitype/StillImage" />
        <dc:title />
      </cc:Work>
    </rdf:RDF>
  </metadata>
  <g
     id="layer1"
     transform="translate(0 -1030.4)">
    <path
       id="path11367"
       style="fill:#4d4d4d"
       d="m9.4318 1048.1c-0.35433-0.238-0.67638-0.6649-0.81947-1.0866-0.068431-0.2018-0.069169-0.224-0.078892-2.605l-0.00985-2.4016 0.11889-0.031c0.41093-0.1083 4.8221-1.038 4.8485-1.038v7.8278c-0.06917 0.1866-0.33968 0.4892-0.50832 0.5467-0.16246 0.055-0.44491 0.062-0.58924 0.014zm8.5976-14.723 0.18105 0.073c0.44129 0.1781 0.74914 0.5782 0.77976 1.0133l0.0098 0.1398c-1.843 2.0492-3.6861 4.0983-5.5291 6.1476h-4.9417c-1.843-2.0493-3.6861-4.0984-5.5291-6.1476l0.00985-0.1398c0.030646-0.4351 0.33847-0.8352 0.77976-1.0133l0.18105-0.073z" />
  </g>
</svg>
