<svg height="22" viewBox="0 0 22 22" width="22" xmlns="http://www.w3.org/2000/svg" xmlns:sodipodi="http://sodipodi.sourceforge.net/DTD/sodipodi-0.dtd" xmlns:inkscape="http://www.inkscape.org/namespaces/inkscape">
 <path d="m3 3v1 15h1 9v-1h-9v-8h3v-0.0098l0.0078 0.0098 2-2h8.9922v5h1v-8h-6.992l-2-2-0.008 0.0098v-0.0098h-6-1zm13.5 11c-1.385 0-2.5 1.115-2.5 2.5 0 0.433 0.118 0.835 0.311 1.189l0.759-0.759c-0.041-0.137-0.07-0.279-0.07-0.43 0-0.831 0.669-1.5 1.5-1.5 0.151 0 0.293 0.029 0.43 0.07l0.759-0.759c-0.354-0.193-0.756-0.311-1.189-0.311zm2.189 1.311l-0.759 0.759c0.041 0.137 0.07 0.279 0.07 0.43 0 0.831-0.669 1.5-1.5 1.5-0.151 0-0.293-0.029-0.43-0.07l-0.759 0.759c0.354 0.193 0.756 0.311 1.189 0.311 1.385 0 2.5-1.115 2.5-2.5 0-0.433-0.118-0.835-0.311-1.189z" fill="#4d4d4d" transform="matrix(1 0 0 1 0 0)"/>
</svg>
