<?xml version="1.0" encoding="UTF-8" standalone="no"?>
<!-- Created with Inkscape (http://www.inkscape.org/) -->

<svg
   xmlns:dc="http://purl.org/dc/elements/1.1/"
   xmlns:cc="http://creativecommons.org/ns#"
   xmlns:rdf="http://www.w3.org/1999/02/22-rdf-syntax-ns#"
   xmlns:svg="http://www.w3.org/2000/svg"
   xmlns="http://www.w3.org/2000/svg"
   xmlns:sodipodi="http://sodipodi.sourceforge.net/DTD/sodipodi-0.dtd"
   xmlns:inkscape="http://www.inkscape.org/namespaces/inkscape"
   id="svg2"
   height="22"
   viewBox="0 0 22 22"
   width="22"
   version="1.1"
   inkscape:version="0.48.5 r10040"
   sodipodi:docname="folder-sinc.svg">
  <defs
     id="defs4433" />
  <sodipodi:namedview
     pagecolor="#ffffff"
     bordercolor="#666666"
     borderopacity="1"
     objecttolerance="10"
     gridtolerance="10"
     guidetolerance="10"
     inkscape:pageopacity="0"
     inkscape:pageshadow="2"
     inkscape:window-width="640"
     inkscape:window-height="480"
     id="namedview4431" />
  <metadata
     id="metadata7">
    <rdf:RDF>
      <cc:Work
         rdf:about="">
        <dc:format>image/svg+xml</dc:format>
        <dc:type
           rdf:resource="http://purl.org/dc/dcmitype/StillImage" />
        <dc:title />
      </cc:Work>
    </rdf:RDF>
  </metadata>
  <g
     id="layer1"
     transform="translate(0 -1030.4)">
    <path
       id="rect4069"
       style="fill:#4d4d4d"
       d="m3 3v1 15h1 9v-1h-9v-8h3v-0.0098l0.0078 0.0098 2-2h8.9922v5h1v-8h-6.992l-2-2-0.008 0.0098v-0.0098h-6-1zm13.5 11c-1.385 0-2.5 1.115-2.5 2.5 0 0.433 0.118 0.835 0.311 1.189l0.759-0.759c-0.041-0.137-0.07-0.279-0.07-0.43 0-0.831 0.669-1.5 1.5-1.5 0.151 0 0.293 0.029 0.43 0.07l0.759-0.759c-0.354-0.193-0.756-0.311-1.189-0.311zm2.189 1.311l-0.759 0.759c0.041 0.137 0.07 0.279 0.07 0.43 0 0.831-0.669 1.5-1.5 1.5-0.151 0-0.293-0.029-0.43-0.07l-0.759 0.759c0.354 0.193 0.756 0.311 1.189 0.311 1.385 0 2.5-1.115 2.5-2.5 0-0.433-0.118-0.835-0.311-1.189z"
       transform="translate(0 1030.4)" />
  </g>
</svg>
