<?xml version="1.0" encoding="UTF-8" standalone="no"?>
<!-- Created with Inkscape (http://www.inkscape.org/) -->

<svg
   xmlns:dc="http://purl.org/dc/elements/1.1/"
   xmlns:cc="http://creativecommons.org/ns#"
   xmlns:rdf="http://www.w3.org/1999/02/22-rdf-syntax-ns#"
   xmlns:svg="http://www.w3.org/2000/svg"
   xmlns="http://www.w3.org/2000/svg"
   xmlns:sodipodi="http://sodipodi.sourceforge.net/DTD/sodipodi-0.dtd"
   xmlns:inkscape="http://www.inkscape.org/namespaces/inkscape"
   id="svg2"
   height="22"
   viewBox="0 0 22 22"
   width="22"
   version="1.1"
   inkscape:version="0.48.5 r10040"
   sodipodi:docname="folder-copy.svg">
  <defs
     id="defs4390" />
  <sodipodi:namedview
     pagecolor="#ffffff"
     bordercolor="#666666"
     borderopacity="1"
     objecttolerance="10"
     gridtolerance="10"
     guidetolerance="10"
     inkscape:pageopacity="0"
     inkscape:pageshadow="2"
     inkscape:window-width="640"
     inkscape:window-height="480"
     id="namedview4388" />
  <metadata
     id="metadata7">
    <rdf:RDF>
      <cc:Work
         rdf:about="">
        <dc:format>image/svg+xml</dc:format>
        <dc:type
           rdf:resource="http://purl.org/dc/dcmitype/StillImage" />
        <dc:title />
      </cc:Work>
    </rdf:RDF>
  </metadata>
  <g
     id="layer1"
     transform="translate(0 -1030.4)">
    <path
       id="rect4069"
       style="fill:#4d4d4d"
       d="m3 3v1 15h1 5v-1h-5v-8h3v-0.0078l0.0078 0.0078 2-2h8.9922v2.5h1v-5.5h-6.9922l-2-2-0.008 0.0078v-0.0078h-6z"
       transform="translate(0 1030.4)" />
    <g
       id="layer1-5"
       transform="matrix(.6561 0 0 .6561 7.4704 361.87)">
      <path
         id="rect4069-3"
         d="m3 3v1 15h1 15v-1-13h-6.9922l-2-2-0.008 0.0078v-0.0078h-6-1zm6.0078 5h8.9922v10h-14v-8h3v-0.0078l0.0078 0.0078 2-2z"
         style="fill:#4d4d4d"
         transform="translate(0 1030.4)" />
    </g>
  </g>
</svg>
