<svg viewBox="0 0 16 16" height="16" width="16" xmlns="http://www.w3.org/2000/svg" xmlns:sodipodi="http://sodipodi.sourceforge.net/DTD/sodipodi-0.dtd" xmlns:inkscape="http://www.inkscape.org/namespaces/inkscape">
 <path stroke-opacity="1" stroke-width="1" d="m 7.8657445,6.6456797 q 0.7404394,0 1.1228642,-0.3215003 0.3824247,-0.3215004 0.3824247,-0.9484261 0,-0.6188881 -0.3824247,-0.9403885 Q 8.6061839,4.105827 7.8657445,4.105827 l -1.7331163,0 0,2.5398527 1.7331163,0 z m 0.1057771,5.2484933 q 0.9438569,0 1.4157852,-0.393838 0.4800652,-0.393838 0.4800652,-1.189552 0,-0.7796377 -0.4719285,-1.1654382 Q 8.9235151,8.751507 7.9715216,8.751507 l -1.8388934,0 0,3.142666 1.8388934,0 z M 10.884459,7.5780307 Q 11.89341,7.867381 12.446705,8.6470193 13,9.4266577 13,10.559947 13,12.296048 11.812042,13.148024 10.624084,14 8.1993491,14 L 3,14 3,1.9999997 l 4.7030106,0 q 2.5305134,0 3.6615134,0.7555259 1.139138,0.7555257 1.139138,2.41929 0,0.8760885 -0.414972,1.4949767 -0.414971,0.6108506 -1.204231,0.9082384 z" fill="#bebebe" fill-opacity="1" stroke="none" stroke-linecap="butt" stroke-linejoin="miter" inkscape:connector-curvature="0"/>
</svg>
