<svg height="22" viewBox="0 0 22 22" width="22" xmlns="http://www.w3.org/2000/svg" xmlns:sodipodi="http://sodipodi.sourceforge.net/DTD/sodipodi-0.dtd" xmlns:inkscape="http://www.inkscape.org/namespaces/inkscape">
 <path d="m9.3176 1047.4c-1.3184 0-2.2172-0.6591-1.9775-2.337 0.29963-2.0974 1.5581-2.7866 5.5431-3.3559 0.02996 0 1.2584-0.2097 1.2584-0.2097l-0.50936 3.7154c-1.0787 1.3483-3.0262 2.1872-4.3146 2.1872zm4.1049-0.1797 0.05992 1.7378h1.7079l1.5581-11.236c0.4794-3.4157-1.4682-4.4045-4.1948-4.4045-1.9476 0-3.8652 0.5693-5.0037 1.2285l0.32959 1.8577c1.2285-0.5993 2.9064-1.0187 4.4345-1.0187 1.8876 0 2.5768 0.9288 2.3371 2.7265l-0.26966 1.7079-1.4082 0.1798c-3.6255 0.5693-7.161 1.1386-7.7303 5.1535-0.41948 2.8764 1.2884 4.1648 3.5655 4.1648 1.4382 0 3.206-0.5393 4.6142-2.0973z" fill="#4d4d4d" transform="matrix(1 0 0 1 0 -1030.4)"/>
</svg>
