<svg height="22" viewBox="0 0 22 22" width="22" xmlns="http://www.w3.org/2000/svg" xmlns:sodipodi="http://sodipodi.sourceforge.net/DTD/sodipodi-0.dtd" xmlns:inkscape="http://www.inkscape.org/namespaces/inkscape">
 <path d="m8.4902 3c-1.8966 0-3.6682 0.4744-4.6914 1.0234l0.5742 1.5977c1.0981-0.524 2.6956-0.8984 4.168-0.8984 1.847 0 2.645 0.8486 2.645 2.4707v1.5214l-1.3481 0.1504c-3.4439 0.4991-6.8379 0.9735-6.8379 4.4918 0 2.496 1.8723 3.643 4.0684 3.643 1.3975 0 2.9946-0.449 4.1676-1.771l0.299 1.472h1.672v-9.8338c0-2.9947-2.071-3.8672-4.7168-3.8672zm2.6958 7.137v3.295c-0.874 1.197-2.6457 1.97-3.9184 1.97s-2.2207-0.623-2.2207-2.121c0-1.871 1.1228-2.469 4.916-2.969 0.025 0 1.2231-0.175 1.2231-0.175zm5.759 2.863c-1.304 0.011-1.945 0.813-1.945 1.615 0.011 0.695 0.349 1.263 1.512 1.584l0.771 0.213c0.652 0.182 0.879 0.525 0.879 0.889v0.053c-0.054 0.599-0.477 0.919-1.141 0.919h-0.085c-0.794 0-1.435-0.343-1.653-0.482l-0.228 0.674c0.348 0.257 1.13 0.535 2.021 0.535 1.109 0 1.891-0.588 1.924-1.668v-0.021c0-0.952-0.521-1.444-1.467-1.69l-0.804-0.215c-0.631-0.16-0.838-0.438-0.838-0.791 0-0.588 0.479-0.92 1.121-0.92 0.641 0 1.173 0.183 1.488 0.311l0.207-0.631c-0.446-0.225-1.012-0.375-1.762-0.375z" fill="#4d4d4d" transform="matrix(1 0 0 1 0 0)"/>
</svg>
