<svg height="22" viewBox="0 0 22 22" width="22" xmlns="http://www.w3.org/2000/svg" xmlns:sodipodi="http://sodipodi.sourceforge.net/DTD/sodipodi-0.dtd" xmlns:inkscape="http://www.inkscape.org/namespaces/inkscape">
 <path d="m8.4902 5c-1.8966 0-3.6682 0.4744-4.6914 1.0234l0.57422 1.5977c1.098-0.524 2.6956-0.89844 4.168-0.89844 1.8467 0 2.6445 0.8486 2.6445 2.4707v1.5215l-1.3477 0.15039c-3.4443 0.499-6.8383 0.974-6.8383 4.492 0 2.496 1.8723 3.643 4.0684 3.643 1.3975 0 2.9946-0.449 4.1676-1.771l0.29883 1.4727h1.6719v-9.834c0-2.9952-2.071-3.8677-4.7168-3.8677zm2.6953 7.1367v3.2949c-0.87344 1.1978-2.6452 1.9707-3.918 1.9707-1.2727 0-2.2207-0.62369-2.2207-2.1211 0-1.8716 1.1228-2.4696 4.916-2.9688 0.02496 0 1.2227-0.17578 1.2227-0.17578zm5.759-9.137c-1.304 0.0107-1.945 0.813-1.945 1.6152 0.01087 0.6952 0.34868 1.2631 1.5117 1.584l0.77148 0.21289c0.65217 0.1818 0.87891 0.52497 0.87891 0.88867v0.052735c-0.05435 0.599-0.47758 0.91992-1.1406 0.91992h-0.08594c-0.79348 0-1.435-0.34332-1.6523-0.48242l-0.228 0.6738c0.348 0.2567 1.13 0.5352 2.021 0.5352 1.109 0 1.891-0.5878 1.924-1.668v-0.0215c0-0.9519-0.521-1.4434-1.467-1.6894l-0.804-0.2149c-0.63043-0.1604-0.83789-0.43812-0.83789-0.79102 0-0.5883 0.47979-0.91992 1.1211-0.91992 0.6413 0 1.1731 0.18225 1.4883 0.31055l0.207-0.6308c-0.446-0.2246-1.012-0.375-1.762-0.375z" fill="#4d4d4d" transform="matrix(1 0 0 1 0 0)"/>
</svg>
