<svg height="22" viewBox="0 0 22 22" width="22" xmlns="http://www.w3.org/2000/svg" xmlns:sodipodi="http://sodipodi.sourceforge.net/DTD/sodipodi-0.dtd" xmlns:inkscape="http://www.inkscape.org/namespaces/inkscape">
 <path d="m11.377 3c-1.8967 0-3.6683 0.4744-4.6915 1.0234l0.5743 1.5977c1.098-0.524 2.6956-0.8984 4.1682-0.8984 1.846 0 2.644 0.8486 2.644 2.4707v1.5214l-1.347 0.1504c-3.4442 0.4991-6.8383 0.9735-6.8383 4.4918 0 2.496 1.8723 3.643 4.0684 3.643 1.3979 0 2.9949-0.449 4.1679-1.771l0.299 1.472h1.672v-9.8338c0-2.9947-2.072-3.8672-4.717-3.8672zm2.695 7.137v3.295c-0.873 1.197-2.645 1.97-3.918 1.97-1.2724 0-2.2204-0.623-2.2204-2.121 0-1.871 1.1228-2.469 4.9164-2.969 0.025 0 1.222-0.175 1.222-0.175zm-11.072 7.863v1h16v-1h-16z" fill="#4d4d4d" transform="matrix(1 0 0 1 0 0)"/>
</svg>
