<svg height="22" viewBox="0 0 22 22" width="22" xmlns="http://www.w3.org/2000/svg" xmlns:sodipodi="http://sodipodi.sourceforge.net/DTD/sodipodi-0.dtd" xmlns:inkscape="http://www.inkscape.org/namespaces/inkscape">
 <path d="m3 3v1 5h1v-5h7v-1h-8zm16 0l-7 4-2-2v7h7l-2-2 4-7zm-1 8v7h-5v1h5 1v-1-7h-1zm-12.31 1c-0.9291 0-1.7977 0.237-2.2989 0.512l0.2813 0.799c0.5379-0.263 1.3217-0.45 2.0429-0.45 0.9047 0 1.295 0.426 1.295 1.237v0.759l-0.6602 0.075c-1.687 0.249-3.3496 0.486-3.3496 2.246 0 1.248 0.9164 1.822 1.9922 1.822 0.6846 0 1.4684-0.225 2.043-0.887v0.002l0.1464 0.737h0.8184v-4.916c0-1.498-1.0147-1.936-2.3105-1.936zm1.3203 3.568v1.649c-0.4279 0.599-1.2965 0.986-1.92 0.986v-0.002c-0.6234 0-1.0878-0.312-1.0878-1.06 0-0.936 0.55-1.235 2.4082-1.485 0.0122 0 0.5996-0.088 0.5996-0.088z" fill="#4d4d4d" transform="matrix(1 0 0 1 0 0)"/>
</svg>
