<svg height="22" viewBox="0 0 22 22" width="22" xmlns="http://www.w3.org/2000/svg" xmlns:sodipodi="http://sodipodi.sourceforge.net/DTD/sodipodi-0.dtd" xmlns:inkscape="http://www.inkscape.org/namespaces/inkscape">
 <defs>
  <linearGradient x2="0" y1="0.045" y2="16.05" gradientUnits="userSpaceOnUse" id="linearGradient10300" inkscape:collect="always">
   <stop/>
   <stop stop-opacity="0.256" offset="1"/>
  </linearGradient>
 </defs>
 <path d="m 528.66,57.938 -12.719,12.719 1.4062,1.4062 12.719,-12.719 z" stroke-width="0.2" fill="#4d4d4d" color="#000000" fill-opacity="1" stroke="url(#linearGradient10300)" inkscape:connector-curvature="0" transform="matrix(1.331 0 0 1.331 -685.12 -75.57)"/>
 <path d="M 11.28125 2.9375 C 8.77485 2.9955 6.86765 3.4213 5.46875 4.0625 L 6.25 6.9375 C 6.92031 6.7043 9.4511 5.90625 10.9375 5.90625 L 11.15625 5.90625 C 11.871848 5.9363375 12.327222 6.04495 12.65625 6.25 L 15.1875 3.71875 C 14.246442 3.1920882 13.058533 2.9375 11.65625 2.9375 L 11.28125 2.9375 z M 17.375 7.53125 L 13.375 11.53125 L 13.375 15.0625 C 12.2967 15.7911 11.4614 16.34375 10.0625 16.34375 C 9.57327 16.34375 9.2017793 16.212099 8.90625 16 L 6.65625 18.28125 C 7.4073493 18.701869 8.3312509 18.9375 9.375 18.9375 C 11.3276 18.9375 12.59485 18.1075 13.90625 17 L 14.3125 18.625 L 17.40625 18.625 L 17.40625 7.84375 C 17.40625 7.7351484 17.379906 7.6362397 17.375 7.53125 z M 8.9375 9.96875 C 6.1863729 10.606596 4.6923362 11.653566 4.59375 14.3125 L 8.9375 9.96875 z " fill="#4d4d4d"/>
</svg>
