<svg height="22" viewBox="0 0 22 22" width="22" xmlns="http://www.w3.org/2000/svg" xmlns:sodipodi="http://sodipodi.sourceforge.net/DTD/sodipodi-0.dtd" xmlns:inkscape="http://www.inkscape.org/namespaces/inkscape">
 <path d="m5.5 3c-0.4865 1.7025-1.6782 3.1661-2.2031 4.3379-0.1837 0.3484-0.2969 0.7394-0.2969 1.1621 0 1.385 1.115 2.5 2.5 2.5s2.5-1.115 2.5-2.5c0-0.4227-0.1132-0.8137-0.2969-1.1621-0.5249-1.1718-1.7167-2.6354-2.2031-4.3379zm11 0c-0.486 1.7025-1.678 3.1661-2.203 4.3379-0.184 0.3484-0.297 0.7394-0.297 1.1621 0 1.385 1.115 2.5 2.5 2.5s2.5-1.115 2.5-2.5c0-0.4227-0.113-0.8137-0.297-1.1621-0.525-1.1718-1.717-2.6354-2.203-4.3379zm-5.5 8c-0.486 1.702-1.6782 3.166-2.2031 4.338-0.1837 0.348-0.2969 0.739-0.2969 1.162 0 1.385 1.115 2.5 2.5 2.5s2.5-1.115 2.5-2.5c0-0.423-0.113-0.814-0.297-1.162-0.525-1.172-1.717-2.636-2.203-4.338z" fill="#4d4d4d" transform="matrix(1 0 0 1 0 0)"/>
</svg>
