<svg viewBox="0 0 16 16" height="16" width="16" xmlns="http://www.w3.org/2000/svg" xmlns:sodipodi="http://sodipodi.sourceforge.net/DTD/sodipodi-0.dtd" xmlns:inkscape="http://www.inkscape.org/namespaces/inkscape">
 <path stroke-opacity="1" d="M 7.8984375 2 C 7.2861928 2 6.6560242 2.0670706 6.0097656 2.203125 C 5.3635074 2.3323768 4.6968407 2.5315689 4.0097656 2.796875 L 4.0097656 4.53125 C 4.5811942 4.2183249 5.1778273 3.9826345 5.796875 3.8261719 C 6.4159227 3.6697092 7.0500637 3.5917969 7.703125 3.5917969 C 8.7303356 3.5917969 9.5271706 3.8304501 10.091797 4.3066406 C 10.663225 4.7760284 10.949219 5.442695 10.949219 6.3066406 L 10.949219 6.4902344 L 8.3164062 6.4902344 C 6.6089233 6.4902344 5.32293 6.8156887 4.4589844 7.46875 C 3.6018416 8.1218112 3.1738281 9.091239 3.1738281 10.376953 C 3.1738281 10.595569 3.1975715 10.798785 3.2246094 11 L 5.1699219 11 C 5.0968624 10.772566 5.0507812 10.528956 5.0507812 10.255859 C 5.0507812 9.4191252 5.3427006 8.8274074 5.9277344 8.4804688 C 6.5127686 8.1335298 7.5650248 7.9589844 9.0820312 7.9589844 L 10.949219 7.9589844 L 10.949219 8.3769531 C 10.949219 9.435689 10.697576 10.302346 10.224609 11 L 12.826172 11 L 12.826172 7.1835938 C 12.826172 5.4420972 12.41789 4.1422991 11.601562 3.2851562 C 10.785236 2.4280134 9.5514989 2 7.8984375 2 z M 2 12 L 2 13 L 14 13 L 14 12 L 2 12 z " stroke-width="1" fill="#bebebe" fill-opacity="1" stroke="none" stroke-linecap="butt" stroke-linejoin="miter"/>
</svg>
