<svg viewBox="0 0 16 16" height="16" width="16" xmlns="http://www.w3.org/2000/svg" xmlns:sodipodi="http://sodipodi.sourceforge.net/DTD/sodipodi-0.dtd" xmlns:inkscape="http://www.inkscape.org/namespaces/inkscape">
 <path stroke-opacity="1" stroke-width="1" d="m 13.081634,7.1836736 -1.27551,6.5204084 -1.877551,0 0.346938,-1.734694 Q 9.448981,12.989796 8.387756,13.5 7.336736,14 6.040818,14 4.5816341,14 3.6428585,13.112245 2.714287,12.214286 2.714287,10.816327 q 0,-2.0000004 1.5918367,-3.1632656 Q 5.908164,6.489796 8.714287,6.489796 l 2.612245,0 0.10204,-0.5 q 0.02041,-0.081633 0.03061,-0.1734693 0.0102,-0.1020408 0.0102,-0.3061225 0,-0.9081633 -0.744898,-1.4081632 Q 9.98979,3.5918368 8.653056,3.5918368 q -0.918367,0 -1.887755,0.2346939 Q 5.806117,4.0612246 4.7857091,4.5306124 L 5.112244,2.7959185 Q 6.173468,2.3979593 7.183672,2.2040816 8.20408,2 9.15306,2 q 2.020408,0 3.071428,0.8775511 1.061225,0.877551 1.061225,2.5510205 0,0.3367347 -0.05102,0.7959183 -0.05102,0.4489796 -0.153062,0.9591837 z m -2.030612,0.7755102 -1.877551,0 q -2.306123,0 -3.418367,0.622449 -1.1020412,0.6122449 -1.1020412,1.9081632 0,0.897959 0.5612242,1.408163 0.571428,0.510204 1.571429,0.510204 1.530612,0 2.673469,-1.091836 1.142857,-1.102041 1.510204,-2.9387758 l 0.08163,-0.4183674 z" fill="#bebebe" fill-opacity="1" stroke="none" stroke-linecap="butt" stroke-linejoin="miter" inkscape:connector-curvature="0"/>
</svg>
