<svg viewBox="0 0 16 16" height="16" width="16" xmlns="http://www.w3.org/2000/svg" xmlns:sodipodi="http://sodipodi.sourceforge.net/DTD/sodipodi-0.dtd" xmlns:inkscape="http://www.inkscape.org/namespaces/inkscape">
 <path stroke="none" stroke-dasharray="none" stroke-dashoffset="0" stroke-linecap="butt" stroke-linejoin="miter" color="#000000" stroke-miterlimit="4" stroke-opacity="1" color-interpolation="sRGB" image-rendering="auto" stroke-width="1" color-interpolation-filters="linearRGB" color-rendering="auto" d="M 2.7070312 3 L 2 3.7070312 L 3.7929688 5.5 L 2 7.2929688 L 2.7070312 8 L 5 5.7070312 L 5.2070312 5.5 L 5 5.2929688 L 2.7070312 3 z M 7 3 L 7 4 L 14 4 L 14 3 L 7 3 z M 7 6 L 7 7 L 14 7 L 14 6 L 7 6 z M 7 9 L 7 10 L 14 10 L 14 9 L 7 9 z M 2 12 L 2 13 L 14 13 L 14 12 L 2 12 z " text-rendering="auto" display="inline" visibility="visible" fill="#bebebe" fill-opacity="1" opacity="1" fill-rule="nonzero" shape-rendering="auto"/>
</svg>
