<?xml version="1.0" encoding="UTF-8" standalone="no"?>
<!-- Created with Inkscape (http://www.inkscape.org/) -->

<svg
   xmlns:dc="http://purl.org/dc/elements/1.1/"
   xmlns:cc="http://creativecommons.org/ns#"
   xmlns:rdf="http://www.w3.org/1999/02/22-rdf-syntax-ns#"
   xmlns:svg="http://www.w3.org/2000/svg"
   xmlns="http://www.w3.org/2000/svg"
   xmlns:xlink="http://www.w3.org/1999/xlink"
   xmlns:sodipodi="http://sodipodi.sourceforge.net/DTD/sodipodi-0.dtd"
   xmlns:inkscape="http://www.inkscape.org/namespaces/inkscape"
   id="svg2"
   height="22"
   viewBox="0 0 22 22"
   width="22"
   version="1.1"
   inkscape:version="0.48.5 r10040"
   sodipodi:docname="format-text-remove.svg">
  <defs
     id="defs8">
    <linearGradient
       x1="5.9951"
       y1=".045106"
       x2="5.9951"
       gradientUnits="userSpaceOnUse"
       y2="16.045"
       id="linearGradient4430">
      <stop
         offset="0"
         id="stop3818" />
      <stop
         offset="1"
         style="stop-opacity:.25581"
         id="stop3820" />
    </linearGradient>
    <linearGradient
       inkscape:collect="always"
       xlink:href="#linearGradient4430"
       id="linearGradient10300"
       gradientUnits="userSpaceOnUse"
       x1="5.9951"
       y1=".045106"
       x2="5.9951"
       y2="16.045" />
    <linearGradient
       inkscape:collect="always"
       xlink:href="#linearGradient4430"
       id="linearGradient10302"
       gradientUnits="userSpaceOnUse"
       x1="5.9951"
       y1=".045106"
       x2="5.9951"
       y2="16.045" />
  </defs>
  <sodipodi:namedview
     pagecolor="#ffffff"
     bordercolor="#666666"
     borderopacity="1"
     objecttolerance="10"
     gridtolerance="10"
     guidetolerance="10"
     inkscape:pageopacity="0"
     inkscape:pageshadow="2"
     inkscape:window-width="1360"
     inkscape:window-height="712"
     id="namedview6"
     showgrid="false"
     inkscape:zoom="10.727273"
     inkscape:cx="-5.5"
     inkscape:cy="11"
     inkscape:window-x="-2"
     inkscape:window-y="28"
     inkscape:window-maximized="1"
     inkscape:current-layer="svg2" />
  <metadata
     id="metadata7">
    <rdf:RDF>
      <cc:Work
         rdf:about="">
        <dc:format>image/svg+xml</dc:format>
        <dc:type
           rdf:resource="http://purl.org/dc/dcmitype/StillImage" />
        <dc:title />
      </cc:Work>
    </rdf:RDF>
  </metadata>
  <g
     transform="matrix(1.331,0,0,1.331,-685.11779,-75.56674)"
     style="fill:#4d4d4d;fill-opacity:1;stroke:url(#linearGradient10302);stroke-width:0.20000000000000001"
     id="layer12">
    <path
       style="color:#000000;fill:#4d4d4d;fill-opacity:1;stroke:url(#linearGradient10300);stroke-width:0.20000000000000001;enable-background:accumulate"
       d="m 528.66,57.938 -12.719,12.719 1.4062,1.4062 12.719,-12.719 z"
       id="path2986-2-7"
       inkscape:connector-curvature="0" />
  </g>
  <path
     style="fill:#4d4d4d"
     d="M 11.28125 2.9375 C 8.77485 2.9955 6.86765 3.4213 5.46875 4.0625 L 6.25 6.9375 C 6.92031 6.7043 9.4511 5.90625 10.9375 5.90625 L 11.15625 5.90625 C 11.871848 5.9363375 12.327222 6.04495 12.65625 6.25 L 15.1875 3.71875 C 14.246442 3.1920882 13.058533 2.9375 11.65625 2.9375 L 11.28125 2.9375 z M 17.375 7.53125 L 13.375 11.53125 L 13.375 15.0625 C 12.2967 15.7911 11.4614 16.34375 10.0625 16.34375 C 9.57327 16.34375 9.2017793 16.212099 8.90625 16 L 6.65625 18.28125 C 7.4073493 18.701869 8.3312509 18.9375 9.375 18.9375 C 11.3276 18.9375 12.59485 18.1075 13.90625 17 L 14.3125 18.625 L 17.40625 18.625 L 17.40625 7.84375 C 17.40625 7.7351484 17.379906 7.6362397 17.375 7.53125 z M 8.9375 9.96875 C 6.1863729 10.606596 4.6923362 11.653566 4.59375 14.3125 L 8.9375 9.96875 z "
     id="path4120" />
</svg>
