<svg viewBox="0 0 16 16" height="16" width="16" xmlns="http://www.w3.org/2000/svg" xmlns:sodipodi="http://sodipodi.sourceforge.net/DTD/sodipodi-0.dtd" xmlns:inkscape="http://www.inkscape.org/namespaces/inkscape">
 <path stroke="none" stroke-dasharray="none" stroke-dashoffset="0" stroke-linecap="butt" stroke-linejoin="miter" color="#000000" stroke-miterlimit="4" stroke-opacity="1" color-interpolation="sRGB" image-rendering="auto" stroke-width="1" color-interpolation-filters="linearRGB" color-rendering="auto" d="M 13.292968,3.0000001 14,3.7070313 12.207031,5.5 14,7.292969 13.292968,8 11,5.707031 10.792969,5.5 11,5.2929689 13.292968,3.0000001 Z m -4.2929683,0 0,1 -6.9999999,0 0,-1 6.9999999,0 z m 0,2.9999999 0,1 -6.9999999,0 0,-1 6.9999999,0 z m 0,3 0,1 -6.9999999,0 0,-1 6.9999999,0 z M 14,12 l 0,1 -12.0000002,0 0,-1 L 14,12 Z" text-rendering="auto" display="inline" visibility="visible" fill="#bebebe" fill-opacity="1" opacity="1" fill-rule="nonzero" shape-rendering="auto" inkscape:connector-curvature="0"/>
</svg>
