<?xml version="1.0" encoding="UTF-8" standalone="no"?>
<!-- Created with Inkscape (http://www.inkscape.org/) -->

<svg
   xmlns:dc="http://purl.org/dc/elements/1.1/"
   xmlns:cc="http://creativecommons.org/ns#"
   xmlns:rdf="http://www.w3.org/1999/02/22-rdf-syntax-ns#"
   xmlns:svg="http://www.w3.org/2000/svg"
   xmlns="http://www.w3.org/2000/svg"
   xmlns:sodipodi="http://sodipodi.sourceforge.net/DTD/sodipodi-0.dtd"
   xmlns:inkscape="http://www.inkscape.org/namespaces/inkscape"
   id="svg2"
   height="22"
   viewBox="0 0 22 22"
   width="22"
   version="1.1"
   inkscape:version="0.48.5 r10040"
   sodipodi:docname="format-list-ordered.svg">
  <defs
     id="defs4567" />
  <sodipodi:namedview
     pagecolor="#ffffff"
     bordercolor="#666666"
     borderopacity="1"
     objecttolerance="10"
     gridtolerance="10"
     guidetolerance="10"
     inkscape:pageopacity="0"
     inkscape:pageshadow="2"
     inkscape:window-width="640"
     inkscape:window-height="480"
     id="namedview4565" />
  <metadata
     id="metadata7">
    <rdf:RDF>
      <cc:Work
         rdf:about="">
        <dc:format>image/svg+xml</dc:format>
        <dc:type
           rdf:resource="http://purl.org/dc/dcmitype/StillImage" />
        <dc:title />
      </cc:Work>
    </rdf:RDF>
  </metadata>
  <g
     id="layer1"
     transform="translate(0 -1030.4)">
    <path
       id="path4118"
       style="fill:#4d4d4d"
       d="m3.6309 3c-0.1849 0.1479-0.4271 0.3022-0.6309 0.4062l0.0859 0.3887c0.1659-0.06 0.3172-0.1639 0.502-0.3008v3.5059h0.4121v-4h-0.3691zm4.3691 1v1h11v-1h-11zm-3.8633 5c-0.1544 0-0.3238 0.0224-0.5097 0.0664-0.186 0.0439-0.3876 0.1074-0.6016 0.1934v0.5371c0.2105-0.1175 0.4095-0.2037 0.5937-0.2617 0.186-0.058 0.3607-0.0879 0.5274-0.0879 0.2351 0 0.4266 0.0657 0.5723 0.1972 0.1473 0.1316 0.2207 0.3011 0.2207 0.5095 0 0.128-0.0351 0.26-0.1036 0.393-0.0666 0.131-0.1833 0.293-0.3535 0.484-0.0895 0.102-0.3091 0.329-0.6582 0.682-0.3473 0.351-0.6224 0.631-0.8242 0.84v0.447h2.4941v-0.447h-1.8554c0.428-0.437 0.761-0.776 0.9961-1.018 0.2351-0.244 0.3741-0.393 0.4179-0.443 0.1597-0.197 0.2685-0.366 0.3282-0.51 0.0614-0.146 0.0937-0.3 0.0937-0.461 0-0.3402-0.1212-0.6128-0.3633-0.8163s-0.5676-0.3047-0.9746-0.3047zm3.8633 1v1h11v-1h-11zm-3.8887 5c-0.5344 0-0.8785 0.117-1.1113 0.297l0.1484 0.375c0.2064-0.164 0.5069-0.276 0.8614-0.276 0.455 0 0.709 0.191 0.709 0.62 0 0.608-0.5598 0.677-1.1524 0.677v0.381c0.7196 0 1.291 0.112 1.291 0.805 0 0.471-0.3436 0.73-0.8515 0.73-0.3916 0-0.6617-0.127-0.8575-0.281l-0.1484 0.375c0.1429 0.138 0.5071 0.297 1.0098 0.297 0.7513 0 1.3027-0.429 1.3027-1.117 0-0.545-0.3025-0.894-0.7734-1 0.418-0.127 0.6777-0.429 0.6777-0.926 0-0.619-0.534-0.957-1.1055-0.957zm3.8887 1v1h11v-1h-11z"
       transform="translate(0 1030.4)" />
  </g>
</svg>
