<?xml version="1.0" encoding="UTF-8" standalone="no"?>
<!-- Created with Inkscape (http://www.inkscape.org/) -->

<svg
   xmlns:dc="http://purl.org/dc/elements/1.1/"
   xmlns:cc="http://creativecommons.org/ns#"
   xmlns:rdf="http://www.w3.org/1999/02/22-rdf-syntax-ns#"
   xmlns:svg="http://www.w3.org/2000/svg"
   xmlns="http://www.w3.org/2000/svg"
   xmlns:sodipodi="http://sodipodi.sourceforge.net/DTD/sodipodi-0.dtd"
   xmlns:inkscape="http://www.inkscape.org/namespaces/inkscape"
   id="svg2"
   height="22"
   viewBox="0 0 22 22"
   width="22"
   version="1.1"
   inkscape:version="0.48.5 r10040"
   sodipodi:docname="format-text-strikethrough.svg">
  <defs
     id="defs4751" />
  <sodipodi:namedview
     pagecolor="#ffffff"
     bordercolor="#666666"
     borderopacity="1"
     objecttolerance="10"
     gridtolerance="10"
     guidetolerance="10"
     inkscape:pageopacity="0"
     inkscape:pageshadow="2"
     inkscape:window-width="640"
     inkscape:window-height="480"
     id="namedview4749" />
  <metadata
     id="metadata7">
    <rdf:RDF>
      <cc:Work
         rdf:about="">
        <dc:format>image/svg+xml</dc:format>
        <dc:type
           rdf:resource="http://purl.org/dc/dcmitype/StillImage" />
        <dc:title />
      </cc:Work>
    </rdf:RDF>
  </metadata>
  <g
     id="layer1"
     transform="translate(0 -1030.4)">
    <path
       id="path4153"
       style="fill:#4d4d4d"
       d="m11.441 3c-2.1672 0-4.1916 0.5424-5.3609 1.1699l0.6562 1.8242c1.2549-0.5989 3.081-1.0253 4.7637-1.0253 2.111 0 3.021 0.9684 3.021 2.8222v1.7402l-1.539 0.1719c-0.64 0.0929-1.273 0.1904-1.894 0.2969h5.744v-2.5801c0-3.4224-2.367-4.4199-5.391-4.4199zm-5.9195 10c-0.2254 0.516-0.3535 1.118-0.3535 1.836 0 2.852 2.1386 4.164 4.6484 4.164 1.5976 0 3.4236-0.514 4.7636-2.025l0.342 1.683h1.91v-5.658h-2.311v1.922c-0.998 1.369-3.022 2.252-4.476 2.252-1.4546 0-2.5391-0.713-2.5391-2.424 0-0.743 0.1707-1.302 0.5546-1.75h-2.539z"
       transform="translate(0 1030.4)" />
    <rect
       id="rect4156"
       style="fill:#4d4d4d"
       height="1"
       width="16"
       y="1041.4"
       x="3" />
  </g>
</svg>
