<svg height="24" width="24" xmlns="http://www.w3.org/2000/svg" xmlns:sodipodi="http://sodipodi.sourceforge.net/DTD/sodipodi-0.dtd" xmlns:inkscape="http://www.inkscape.org/namespaces/inkscape">
 <path d="m12 4c-2.216 0-4 1.784-4 4 0 1.483 0.8073 2.758 2 3.449v8.551l2-2 2 2v-8.551c1.193-0.691 2-1.966 2-3.449 0-2.216-1.784-4-4-4zm0 1c1.662 0 3 1.338 3 3s-1.338 3-3 3-3-1.338-3-3 1.338-3 3-3zm0 1l-0.619 1.3164-1.381 0.2109 1 1.0254-0.236 1.4473 1.236-0.6836 1.236 0.6836-0.236-1.4473 1-1.0254-1.381-0.2109-0.619-1.3164z" fill="#4d4d4d" transform="matrix(1 0 0 1 0 0)"/>
</svg>
