<?xml version="1.0" encoding="UTF-8" standalone="no"?>
<!-- Created with Inkscape (http://www.inkscape.org/) -->

<svg
   xmlns:dc="http://purl.org/dc/elements/1.1/"
   xmlns:cc="http://creativecommons.org/ns#"
   xmlns:rdf="http://www.w3.org/1999/02/22-rdf-syntax-ns#"
   xmlns:svg="http://www.w3.org/2000/svg"
   xmlns="http://www.w3.org/2000/svg"
   xmlns:sodipodi="http://sodipodi.sourceforge.net/DTD/sodipodi-0.dtd"
   xmlns:inkscape="http://www.inkscape.org/namespaces/inkscape"
   id="svg3760"
   height="24"
   width="24"
   version="1.1"
   inkscape:version="0.48.5 r10040"
   sodipodi:docname="games-config-theme.svg">
  <defs
     id="defs4951" />
  <sodipodi:namedview
     pagecolor="#ffffff"
     bordercolor="#666666"
     borderopacity="1"
     objecttolerance="10"
     gridtolerance="10"
     guidetolerance="10"
     inkscape:pageopacity="0"
     inkscape:pageshadow="2"
     inkscape:window-width="640"
     inkscape:window-height="480"
     id="namedview4949" />
  <metadata
     id="metadata3765">
    <rdf:RDF>
      <cc:Work
         rdf:about="">
        <dc:format>image/svg+xml</dc:format>
        <dc:type
           rdf:resource="http://purl.org/dc/dcmitype/StillImage" />
        <dc:title />
      </cc:Work>
    </rdf:RDF>
  </metadata>
  <g
     id="layer1"
     transform="translate(-550.29 -606.65)">
    <path
       id="path4123"
       style="fill:#4d4d4d;fill-rule:evenodd"
       d="m19.514 4.0078a2 9 45 0 0 -7.446 5.0977 2 9 45 0 0 -3.5426 4.1135c1.0761 0.342 1.9156 1.181 2.2576 2.258a2 9 45 0 0 4.113 -3.543 2 9 45 0 0 4.95 -7.7778 2 9 45 0 0 -0.332 -0.1484zm-11.514 10.656c-4 1.072-1 3.604-4 5.336 4.0034 0 6-2.001 6-3.336 0-0.665 0.068-1.889-2-2z"
       transform="translate(550.29 606.65)" />
  </g>
</svg>
