<svg height="24" width="24" xmlns="http://www.w3.org/2000/svg" xmlns:sodipodi="http://sodipodi.sourceforge.net/DTD/sodipodi-0.dtd" xmlns:inkscape="http://www.inkscape.org/namespaces/inkscape">
 <path d="m19.514 4.0078a2 9 45 0 0 -7.446 5.0977 2 9 45 0 0 -3.5426 4.1135c1.0761 0.342 1.9156 1.181 2.2576 2.258a2 9 45 0 0 4.113 -3.543 2 9 45 0 0 4.95 -7.7778 2 9 45 0 0 -0.332 -0.1484zm-11.514 10.656c-4 1.072-1 3.604-4 5.336 4.0034 0 6-2.001 6-3.336 0-0.665 0.068-1.889-2-2z" fill="#4d4d4d" fill-rule="evenodd" transform="matrix(1 0 0 1 0 0)"/>
</svg>
