<svg height="22" viewBox="0 0 22 22" width="22" xmlns="http://www.w3.org/2000/svg" xmlns:sodipodi="http://sodipodi.sourceforge.net/DTD/sodipodi-0.dtd" xmlns:inkscape="http://www.inkscape.org/namespaces/inkscape">
 <path d="m 3,3 0,1 0,15 1,0 5,0 0,-1 -5,0 0,-8 3,0 L 7,9.9922 7.0078,10 l 2,-2 8.9922,0 0,3 1,0 0,-6 -6.9922,0 -2,-2 -0.008,0.0078 0,-0.0078 -6,0 z" fill="#4d4d4d" sodipodi:nodetypes="cccccccccccccccccccccc" inkscape:connector-curvature="0"/>
 <path d="m 11.626881,18.663982 -0.155886,-0.165119 -2.4794999,-2.626774 0.5323663,-0.563962 1.7265396,1.829009 v -3.424375 h 0.75296 v 3.424375 l 1.72654,-1.829009 0.532365,0.563962 -2.479499,2.626774 -0.155886,0.165119 z" fill="#4d4d4d" inkscape:connector-curvature="0"/>
 <path d="m 17.207804,18.663982 -0.155885,-0.165121 -2.4795,-2.626773 0.532366,-0.563961 1.726538,1.829009 v -3.424377 h 0.752962 v 3.424377 l 1.726538,-1.829009 0.532367,0.563961 -2.4795,2.626773 -0.155886,0.165121 z" fill="#4d4d4d" inkscape:connector-curvature="0"/>
</svg>
