<svg height="22" width="22" xmlns="http://www.w3.org/2000/svg" xmlns:sodipodi="http://sodipodi.sourceforge.net/DTD/sodipodi-0.dtd" xmlns:inkscape="http://www.inkscape.org/namespaces/inkscape">
 <path d="m 10.384625,3.0001248 c -0.340918,0 -0.615375,0.2744572 -0.615375,0.6153751 l 0,6.1537503 c 0,0.3409178 0.274457,0.6153748 0.615375,0.6153748 l 1.23075,0 c 0.340918,0 0.615375,-0.274457 0.615375,-0.6153748 l 0,-6.1537503 c 0,-0.3409178 -0.274457,-0.6153751 -0.615375,-0.6153751 l -1.23075,0 z M 8.5385,4.6539451 c -2.868606,1.0136936 -4.923,3.7471419 -4.923,6.9614299 0,4.076244 3.308256,7.3845 7.3845,7.3845 4.076244,0 7.3845,-3.308256 7.3845,-7.3845 0,-3.214288 -2.054394,-5.9477362 -4.923,-6.9614298 l 0,2.7307265 c 1.469253,0.8520966 2.4615,2.4111065 2.4615,4.2307033 0,2.717496 -2.205504,4.923 -4.923,4.923 -2.717496,0 -4.923,-2.205504 -4.923,-4.923 0,-1.8195968 0.992247,-3.3786067 2.4615,-4.2307033 l 0,-2.7307265 z" display="inline" fill="#ff0000" fill-opacity="1" fill-rule="nonzero" stroke="none" inkscape:connector-curvature="0"/>
</svg>
