<svg height="22" width="22" xmlns="http://www.w3.org/2000/svg" xmlns:sodipodi="http://sodipodi.sourceforge.net/DTD/sodipodi-0.dtd" xmlns:inkscape="http://www.inkscape.org/namespaces/inkscape">
 <path d="m398.86 543.08v16h-14l-4-8 4-8h14zm-5.4277 4v0.5918c0.7107 0 0.7207 0.23916 0.7207 1.1055v1.0176c0 0.41547 0.12362 1.0327 0.72266 1.2891-0.59904 0.25635-0.72266 0.87555-0.72266 1.291v1.0078c0 0.86631-0.01 1.1055-0.7207 1.1055v0.5918c1.0661 0 1.5137-0.35225 1.5137-1.2539v-1.2226c0-0.55691 0.0205-1.2012 0.60937-1.2012h0.30469v-0.64454h-0.30469c-0.58887 0-0.60937-0.64426-0.60937-1.2012v-1.2226c0-0.90166-0.44758-1.2539-1.5137-1.2539zm-3.1367 0c-1.0661 0-1.5215 0.35225-1.5215 1.2539v1.2226c0.00001 0.55691-0.0404 1.2012-0.61914 1.2012h-0.29492v0.64454h0.29492c0.57874 0 0.61914 0.64426 0.61914 1.2012v1.2226c0.00001 0.90166 0.45539 1.2539 1.5215 1.2539v-0.5918c-0.71082 0-0.72852-0.23916-0.72852-1.1055v-1.0078c0-0.41546-0.12361-1.0347-0.72265-1.291 0.59904-0.25635 0.72265-0.8736 0.72265-1.2891v-1.0176c0-0.86631 0.0178-1.1055 0.72852-1.1055v-0.5918z" fill="#4d4d4d" transform="matrix(1 0 0 1 -378.86 -540.08)"/>
</svg>
