<?xml version="1.0" encoding="UTF-8" standalone="no"?>
<!-- Created with Inkscape (http://www.inkscape.org/) -->

<svg
   xmlns:dc="http://purl.org/dc/elements/1.1/"
   xmlns:cc="http://creativecommons.org/ns#"
   xmlns:rdf="http://www.w3.org/1999/02/22-rdf-syntax-ns#"
   xmlns:svg="http://www.w3.org/2000/svg"
   xmlns="http://www.w3.org/2000/svg"
   xmlns:sodipodi="http://sodipodi.sourceforge.net/DTD/sodipodi-0.dtd"
   xmlns:inkscape="http://www.inkscape.org/namespaces/inkscape"
   id="svg3760"
   height="22"
   width="22"
   version="1.1"
   inkscape:version="0.48.5 r10040"
   sodipodi:docname="gpm-hibernate.svg">
  <defs
     id="defs8" />
  <sodipodi:namedview
     pagecolor="#ffffff"
     bordercolor="#666666"
     borderopacity="1"
     objecttolerance="10"
     gridtolerance="10"
     guidetolerance="10"
     inkscape:pageopacity="0"
     inkscape:pageshadow="2"
     inkscape:window-width="1360"
     inkscape:window-height="712"
     id="namedview6"
     showgrid="false"
     inkscape:zoom="10.727273"
     inkscape:cx="-2.8040136"
     inkscape:cy="7.3451324"
     inkscape:window-x="-2"
     inkscape:window-y="28"
     inkscape:window-maximized="1"
     inkscape:current-layer="svg3760" />
  <metadata
     id="metadata3765">
    <rdf:RDF>
      <cc:Work
         rdf:about="">
        <dc:format>image/svg+xml</dc:format>
        <dc:type
           rdf:resource="http://purl.org/dc/dcmitype/StillImage" />
        <dc:title />
      </cc:Work>
    </rdf:RDF>
  </metadata>
  <path
     style="fill:#4d4d4d;fill-opacity:1;fill-rule:evenodd;stroke:none"
     d="m 10.322034,3 c -0.09903,0 -0.180791,0.081759 -0.180791,0.180791 l 0,5.740113 -4.0677967,-4.0677967 c -0.070031,-0.070025 -0.201161,-0.070025 -0.2711864,0 L 4.8531073,5.8022599 c -0.070025,0.070025 -0.070025,0.2011606 0,0.2711864 l 4.0677967,4.0677967 -5.740113,0 C 3.08176,10.141243 3,10.223004 3,10.322034 l 0,1.355932 c 0,0.09903 0.08176,0.180791 0.180791,0.180791 l 5.740113,0 -4.0677967,4.067797 c -0.070025,0.07003 -0.070025,0.201161 0,0.271186 l 0.9491526,0.949153 c 0.070031,0.07003 0.2011596,0.07003 0.2711864,0 l 4.0677967,-4.067797 0,5.740113 c 0,0.09903 0.08176,0.180791 0.180791,0.180791 l 1.355932,0 c 0.09903,0 0.180791,-0.08176 0.180791,-0.180791 l 0,-5.740113 4.067797,4.067797 c 0.07003,0.07003 0.201161,0.07003 0.271186,0 l 0.949153,-0.949153 c 0.07003,-0.07003 0.07003,-0.201161 0,-0.271186 l -4.067797,-4.067797 5.740113,0 C 18.918239,11.858757 19,11.776996 19,11.677966 l 0,-1.355932 c 0,-0.09903 -0.08176,-0.180791 -0.180791,-0.180791 l -5.740113,0 4.067797,-4.0677967 c 0.07003,-0.070025 0.07003,-0.2011616 0,-0.2711864 L 16.19774,4.8531073 c -0.07002,-0.070025 -0.201162,-0.070025 -0.271186,0 l -4.067797,4.0677967 0,-5.740113 C 11.858757,3.0817595 11.776997,3 11.677966,3 l -1.355932,0 z"
     id="rect11361"
     inkscape:connector-curvature="0" />
</svg>
