<svg height="22" width="22" xmlns="http://www.w3.org/2000/svg" xmlns:sodipodi="http://sodipodi.sourceforge.net/DTD/sodipodi-0.dtd" xmlns:inkscape="http://www.inkscape.org/namespaces/inkscape">
 <defs>
  <linearGradient x1="9" x2="39" gradientUnits="userSpaceOnUse" id="linearGradient3775" gradientTransform="matrix(0.77288 0 0 0.49492 2.044 4.546)">
   <stop stop-color="#1a1a1a"/>
   <stop stop-color="#1a1a1a" stop-opacity="0" offset="1"/>
  </linearGradient>
 </defs>
 <g transform="matrix(1 0 0 1 -461.71 -525.79)">
  <rect x="465.11" stroke-width="0.784" rx="0" y="529.18" fill-opacity="0" color="#000000" stroke="#4d4d4d" height="15.216" stroke-dasharray="1.56728 0.783642" width="15.216"/>
  <g transform="matrix(0.47527 0 0 0.47146 461.44 525.55)">
   <rect x="9" rx="0" y="9" fill="url(#linearGradient3775)" color="#000000" height="14.847" width="23.19"/>
   <g transform="matrix(0.96181 0 0 1 0.588 0)">
    <rect x="15.407" rx="0" y="23.847" fill="#d40000" color="#000000" height="14.847" width="3.966"/>
    <rect x="19.407" rx="0" y="23.847" fill="#ff7f2a" color="#000000" height="14.847" width="3.966"/>
    <rect x="23.407" rx="0" y="23.847" fill="#ffd42a" color="#000000" height="14.847" width="3.966"/>
    <rect x="27.407" rx="0" y="23.847" fill="#008000" color="#000000" height="14.847" width="3.966"/>
    <rect x="31.407" rx="0" y="23.847" fill="#6969e3" color="#000000" height="14.847" width="3.966"/>
    <rect x="35.407" rx="0" y="23.847" fill="#3e3efd" color="#000000" height="14.847" width="3.966"/>
   </g>
  </g>
 </g>
</svg>
