<?xml version="1.0" encoding="UTF-8" standalone="no"?>
<!-- Created with Inkscape (http://www.inkscape.org/) -->

<svg
   xmlns:dc="http://purl.org/dc/elements/1.1/"
   xmlns:cc="http://creativecommons.org/ns#"
   xmlns:rdf="http://www.w3.org/1999/02/22-rdf-syntax-ns#"
   xmlns:svg="http://www.w3.org/2000/svg"
   xmlns="http://www.w3.org/2000/svg"
   xmlns:sodipodi="http://sodipodi.sourceforge.net/DTD/sodipodi-0.dtd"
   xmlns:inkscape="http://www.inkscape.org/namespaces/inkscape"
   id="svg4355"
   height="22"
   width="22"
   version="1.1"
   inkscape:version="0.48.5 r10040"
   sodipodi:docname="gtk-zoom-fit.svg">
  <defs
     id="defs8213" />
  <sodipodi:namedview
     pagecolor="#ffffff"
     bordercolor="#666666"
     borderopacity="1"
     objecttolerance="10"
     gridtolerance="10"
     guidetolerance="10"
     inkscape:pageopacity="0"
     inkscape:pageshadow="2"
     inkscape:window-width="640"
     inkscape:window-height="480"
     id="namedview8211" />
  <metadata
     id="metadata4360">
    <rdf:RDF>
      <cc:Work
         rdf:about="">
        <dc:format>image/svg+xml</dc:format>
        <dc:type
           rdf:resource="http://purl.org/dc/dcmitype/StillImage" />
        <dc:title />
      </cc:Work>
    </rdf:RDF>
  </metadata>
  <g
     id="layer1"
     transform="translate(-544.57 -742.93)">
    <path
       id="path4162"
       style="fill:#4d4d4d"
       d="m547.57 745.93v1 3h1v-3h3v-1h-3z" />
    <path
       id="path4176"
       style="fill:#4d4d4d"
       transform="translate(544.57 742.93)"
       d="m6 6v10h10v-10h-10zm1 1h8v8h-8v-8z" />
    <path
       id="rect4134"
       style="fill:#4d4d4d"
       d="m562.57 757.93v3h-3v1h4v-1-3z" />
    <path
       id="path4170"
       d="m563.57 745.93v1 3h-1v-3h-3v-1h3z"
       style="fill:#4d4d4d" />
    <path
       id="path4172"
       d="m548.57 757.93v3h3v1h-4v-1-3z"
       style="fill:#4d4d4d" />
    <path
       id="path4181"
       style="fill:#4d4d4d;fill-rule:evenodd"
       d="m549.57 755.93-2-2 2-2z" />
    <path
       id="path4183"
       d="m561.57 755.93 2-2-2-2z"
       style="fill:#4d4d4d;fill-rule:evenodd" />
    <path
       id="path4185"
       d="m553.57 747.93 2-2 2 2z"
       style="fill:#4d4d4d;fill-rule:evenodd" />
    <path
       id="path4187"
       style="fill:#4d4d4d;fill-rule:evenodd"
       d="m553.57 759.93 2 2 2-2z" />
  </g>
</svg>
