<?xml version="1.0" encoding="UTF-8" standalone="no"?>
<!-- Created with Inkscape (http://www.inkscape.org/) -->

<svg
   xmlns:dc="http://purl.org/dc/elements/1.1/"
   xmlns:cc="http://creativecommons.org/ns#"
   xmlns:rdf="http://www.w3.org/1999/02/22-rdf-syntax-ns#"
   xmlns:svg="http://www.w3.org/2000/svg"
   xmlns="http://www.w3.org/2000/svg"
   xmlns:sodipodi="http://sodipodi.sourceforge.net/DTD/sodipodi-0.dtd"
   xmlns:inkscape="http://www.inkscape.org/namespaces/inkscape"
   id="svg3049"
   height="22"
   width="22"
   version="1.1"
   inkscape:version="0.48.5 r10040"
   sodipodi:docname="gtk-sort-ascending.svg">
  <sodipodi:namedview
     pagecolor="#ffffff"
     bordercolor="#666666"
     borderopacity="1"
     objecttolerance="10"
     gridtolerance="10"
     guidetolerance="10"
     inkscape:pageopacity="0"
     inkscape:pageshadow="2"
     inkscape:window-width="640"
     inkscape:window-height="480"
     id="namedview7994" />
  <defs
     id="defs3051">
    <filter
       id="filter3174-6"
       color-interpolation-filters="sRGB">
      <feGaussianBlur
         id="feGaussianBlur3176-3"
         stdDeviation="1.71" />
    </filter>
    <filter
       id="filter3794-6"
       height="1.384"
       width="1.384"
       color-interpolation-filters="sRGB"
       y="-.192"
       x="-.192">
      <feGaussianBlur
         id="feGaussianBlur3796-1"
         stdDeviation="5.28" />
    </filter>
    <clipPath
       id="clipPath4355-0">
      <rect
         id="rect4357-1"
         style="fill:#fff"
         rx="6"
         ry="6"
         height="80"
         width="84"
         y="6"
         x="6" />
    </clipPath>
    <clipPath
       id="clipPath4355">
      <rect
         id="rect4357"
         style="fill:#fff"
         rx="6"
         ry="6"
         height="80"
         width="84"
         y="6"
         x="6" />
    </clipPath>
    <filter
       id="filter3794"
       height="1.384"
       width="1.384"
       color-interpolation-filters="sRGB"
       y="-.192"
       x="-.192">
      <feGaussianBlur
         id="feGaussianBlur3796"
         stdDeviation="5.28" />
    </filter>
    <filter
       id="filter3174"
       color-interpolation-filters="sRGB">
      <feGaussianBlur
         id="feGaussianBlur3176"
         stdDeviation="1.71" />
    </filter>
  </defs>
  <metadata
     id="metadata3054">
    <rdf:RDF>
      <cc:Work
         rdf:about="">
        <dc:format>image/svg+xml</dc:format>
        <dc:type
           rdf:resource="http://purl.org/dc/dcmitype/StillImage" />
        <dc:title />
      </cc:Work>
    </rdf:RDF>
  </metadata>
  <g
     id="layer1"
     transform="translate(-421.71 -525.79)">
    <path
       id="rect4071"
       style="fill:#4d4d4d"
       d="m438.21 545-0.20703-0.207-3.293-3.293 0.70703-0.707 2.293 2.2929v-4.2929h1v4.2929l2.293-2.2929 0.70703 0.707-3.293 3.293-0.20703 0.207z" />
    <g
       id="g4423"
       transform="matrix(.18 0 0 .18 353.1 441.38)">
      <rect
         id="rect3745"
         style="filter:url(#filter3174);fill:#4d4d4d;display:none"
         rx="6"
         ry="6"
         height="85"
         width="86"
         y="489.36"
         x="405.7" />
      <rect
         id="rect3171"
         style="filter:url(#filter3794);stroke:#fff;stroke-linecap:round;stroke-width:.5;display:none;fill:#4d4d4d"
         clip-path="url(#clipPath4355)"
         rx="12"
         transform="translate(400.7 482.36)"
         ry="12"
         width="66"
         y="15"
         x="15"
         height="62" />
      <path
         id="rect3156-3"
         style="color:#000000;fill:#4d4d4d"
         d="m408.3 488.04c-0.71048 0-1.2824 0.57196-1.2824 1.2824v17.954c0 0.71046 0.57197 1.2824 1.2824 1.2824h17.954c0.71048 0 1.2824-0.57196 1.2824-1.2824v-17.954c0-0.71047-0.57197-1.2824-1.2824-1.2824h-17.954z" />
      <path
         id="rect3156"
         style="color:#000000;fill:#4d4d4d"
         d="m408.3 519.46c-0.71048 0-1.2824 0.57196-1.2824 1.2824v17.954c0 0.71046 0.57197 1.2824 1.2824 1.2824h17.954c0.71048 0 1.2824-0.57196 1.2824-1.2824v-17.954c0-0.71047-0.57197-1.2824-1.2824-1.2824h-17.954z" />
      <path
         id="rect3156-5"
         style="color:#000000;fill:#4d4d4d"
         d="m408.3 551.52c-0.71048 0-1.2824 0.57196-1.2824 1.2824v17.954c0 0.71046 0.57197 1.2824 1.2824 1.2824h17.954c0.71048 0 1.2824-0.57196 1.2824-1.2824v-17.954c0-0.71047-0.57197-1.2824-1.2824-1.2824h-17.954z" />
      <rect
         id="rect3745-9"
         style="filter:url(#filter3174-6);fill:#4d4d4d;display:none"
         rx="6"
         ry="6"
         height="85"
         width="86"
         y="467.22"
         x="417.54" />
      <rect
         id="rect3171-80"
         style="filter:url(#filter3794-6);stroke:#fff;stroke-linecap:round;stroke-width:.5;display:none;fill:#4d4d4d"
         clip-path="url(#clipPath4355-0)"
         rx="12"
         transform="translate(412.54 460.22)"
         ry="12"
         width="66"
         y="15"
         x="15"
         height="62" />
    </g>
  </g>
</svg>
