<?xml version="1.0" encoding="UTF-8" standalone="no"?>
<!-- Created with Inkscape (http://www.inkscape.org/) -->

<svg
   xmlns:dc="http://purl.org/dc/elements/1.1/"
   xmlns:cc="http://creativecommons.org/ns#"
   xmlns:rdf="http://www.w3.org/1999/02/22-rdf-syntax-ns#"
   xmlns:svg="http://www.w3.org/2000/svg"
   xmlns="http://www.w3.org/2000/svg"
   xmlns:sodipodi="http://sodipodi.sourceforge.net/DTD/sodipodi-0.dtd"
   xmlns:inkscape="http://www.inkscape.org/namespaces/inkscape"
   id="svg2"
   height="16"
   width="16"
   version="1.0"
   inkscape:version="0.48.5 r10040"
   sodipodi:docname="gtk-underline.svg">
  <sodipodi:namedview
     pagecolor="#ffffff"
     bordercolor="#666666"
     borderopacity="1"
     objecttolerance="10"
     gridtolerance="10"
     guidetolerance="10"
     inkscape:pageopacity="0"
     inkscape:pageshadow="2"
     inkscape:window-width="725"
     inkscape:window-height="480"
     id="namedview13"
     showgrid="false"
     inkscape:zoom="20.85965"
     inkscape:cx="8.8141439"
     inkscape:cy="7.3447135"
     inkscape:window-x="0"
     inkscape:window-y="30"
     inkscape:window-maximized="0"
     inkscape:current-layer="svg2" />
  <defs
     id="defs4" />
  <metadata
     id="metadata7">
    <rdf:RDF>
      <cc:Work
         rdf:about="">
        <dc:format>image/svg+xml</dc:format>
        <dc:type
           rdf:resource="http://purl.org/dc/dcmitype/StillImage" />
      </cc:Work>
    </rdf:RDF>
  </metadata>
  <path
     inkscape:connector-curvature="0"
     d="M 7.9062,3 C 7.396,3 6.8823,3.0429 6.3438,3.1562 5.8052,3.264 5.2601,3.4352 4.6875,3.6562 V 5.0938 C 5.1637,4.833 5.6404,4.6616 6.1562,4.5312 6.6721,4.4009 7.2058,4.3125 7.75,4.3125 c 0.856,0 1.5295,0.1969 2,0.5937 0.476,0.3912 0.719,0.9676 0.719,1.6876 V 6.75 H 8.25 C 6.8271,6.75 5.7825,7.0183 5.0625,7.5625 4.3482,8.1067 3.9687,8.8973 3.9688,9.9688 3.9687,10.887 4.2712,11.638 4.8438,12.188 5.422,12.732 6.1812,13 7.1562,13 c 0.771,0 1.4359,-0.134 1.9688,-0.406 0.5329,-0.278 0.987,-0.703 1.344,-1.282 V 13 h 1.562 V 7.3125 C 12.031,5.8613 11.68,4.7768 11,4.0625 10.32,3.3482 9.2838,3 7.9062,3 z m 1,4.9688 h 1.5628 v 0.3437 c 0,1.0204 -0.286,1.8505 -0.8128,2.4685 -0.5215,0.612 -1.1951,0.907 -2.0624,0.907 -0.6293,0 -1.1316,-0.146 -1.5,-0.469 C 5.7309,10.89 5.5312,10.431 5.5312,9.875 5.5312,9.1777 5.7937,8.6954 6.2812,8.4062 6.7688,8.1171 7.6421,7.9688 8.9062,7.9688 z M 4,14 v 1 h 8 V 14 H 4 z"
     style="opacity:10000000000000004;fill:#4d4d4d;stroke:none;stroke-width:0.20000000000000001"
     id="path3631" />
</svg>
