<?xml version="1.0" encoding="UTF-8" standalone="no"?>
<!-- Created with Inkscape (http://www.inkscape.org/) -->

<svg
   xmlns:dc="http://purl.org/dc/elements/1.1/"
   xmlns:cc="http://creativecommons.org/ns#"
   xmlns:rdf="http://www.w3.org/1999/02/22-rdf-syntax-ns#"
   xmlns:svg="http://www.w3.org/2000/svg"
   xmlns="http://www.w3.org/2000/svg"
   xmlns:sodipodi="http://sodipodi.sourceforge.net/DTD/sodipodi-0.dtd"
   xmlns:inkscape="http://www.inkscape.org/namespaces/inkscape"
   id="svg3049"
   height="22"
   width="22"
   version="1.1"
   inkscape:version="0.48.5 r10040"
   sodipodi:docname="gtk-properties.svg">
  <sodipodi:namedview
     pagecolor="#ffffff"
     bordercolor="#666666"
     borderopacity="1"
     objecttolerance="10"
     gridtolerance="10"
     guidetolerance="10"
     inkscape:pageopacity="0"
     inkscape:pageshadow="2"
     inkscape:window-width="640"
     inkscape:window-height="480"
     id="namedview7773" />
  <defs
     id="defs3051">
    <clipPath
       id="clipPath4355">
      <rect
         id="rect4357"
         style="fill:#fff"
         rx="6"
         ry="6"
         height="80"
         width="84"
         y="6"
         x="6" />
    </clipPath>
    <linearGradient
       id="linearGradient3613"
       x1="48"
       gradientUnits="userSpaceOnUse"
       y1="20.221"
       x2="48"
       y2="138.66">
      <stop
         id="stop3739"
         style="stop-color:#fff"
         offset="0" />
      <stop
         id="stop3741"
         style="stop-color:#fff;stop-opacity:0"
         offset="1" />
    </linearGradient>
    <filter
       id="filter3794"
       height="1.384"
       width="1.384"
       color-interpolation-filters="sRGB"
       y="-.192"
       x="-.192">
      <feGaussianBlur
         id="feGaussianBlur3796"
         stdDeviation="5.28" />
    </filter>
    <filter
       id="filter3174"
       color-interpolation-filters="sRGB">
      <feGaussianBlur
         id="feGaussianBlur3176"
         stdDeviation="1.71" />
    </filter>
    <linearGradient
       id="ButtonShadow"
       x1="45.448"
       gradientUnits="userSpaceOnUse"
       y1="92.54"
       gradientTransform="scale(1.0059 .99417)"
       x2="45.448"
       y2="7.0165">
      <stop
         id="stop3750"
         offset="0" />
      <stop
         id="stop3752"
         style="stop-opacity:.58824"
         offset="1" />
    </linearGradient>
    <clipPath
       id="clipPath4355-3">
      <rect
         id="rect4357-1"
         style="fill:#fff"
         rx="6"
         ry="6"
         height="80"
         width="84"
         y="6"
         x="6" />
    </clipPath>
    <filter
       id="filter3794-6"
       height="1.384"
       width="1.384"
       color-interpolation-filters="sRGB"
       y="-.192"
       x="-.192">
      <feGaussianBlur
         id="feGaussianBlur3796-9"
         stdDeviation="5.28" />
    </filter>
    <filter
       id="filter3174-3"
       color-interpolation-filters="sRGB">
      <feGaussianBlur
         id="feGaussianBlur3176-6"
         stdDeviation="1.71" />
    </filter>
  </defs>
  <metadata
     id="metadata3054">
    <rdf:RDF>
      <cc:Work
         rdf:about="">
        <dc:format>image/svg+xml</dc:format>
        <dc:type
           rdf:resource="http://purl.org/dc/dcmitype/StillImage" />
        <dc:title />
      </cc:Work>
    </rdf:RDF>
  </metadata>
  <g
     id="layer1"
     transform="translate(-421.71 -525.79)">
    <g
       id="layer2"
       style="display:none"
       transform="translate(353.57 481.73)">
      <rect
         id="rect3745"
         style="opacity:.9;filter:url(#filter3174);fill:url(#ButtonShadow)"
         rx="6"
         ry="6"
         height="85"
         width="86"
         y="7"
         x="5" />
    </g>
    <g
       id="layer5"
       style="display:none"
       transform="translate(353.57 481.73)">
      <rect
         id="rect3171"
         style="opacity:.1;filter:url(#filter3794);stroke:#fff;stroke-linecap:round;stroke-width:.5;fill:url(#linearGradient3613)"
         clip-path="url(#clipPath4355)"
         rx="12"
         ry="12"
         height="62"
         width="66"
         y="15"
         x="15" />
    </g>
    <g
       id="layer2-5"
       style="fill:#4d4d4d;display:none"
       transform="translate(353.47 490.07)">
      <rect
         id="rect3745-7"
         style="opacity:.9;filter:url(#filter3174-3);fill:#4d4d4d"
         rx="6"
         ry="6"
         height="85"
         width="86"
         y="7"
         x="5" />
    </g>
    <g
       id="layer5-1"
       style="fill:#4d4d4d;display:none"
       transform="translate(353.47 490.07)">
      <rect
         id="rect3171-6"
         style="opacity:.1;filter:url(#filter3794-6);stroke:#fff;stroke-linecap:round;stroke-width:.5;fill:#4d4d4d"
         clip-path="url(#clipPath4355-3)"
         rx="12"
         ry="12"
         height="62"
         width="66"
         y="15"
         x="15" />
    </g>
    <path
       id="path3983-9"
       d="m431.61 528.79c-0.31484 0-0.575 0.25478-0.575 0.575v1.1375c-0.56295 0.14999-1.0953 0.37626-1.5875 0.6625l-0.8125-0.8125c-0.11322-0.11321-0.24099-0.16126-0.3875-0.1625-0.14651-0.001-0.30119 0.0512-0.4125 0.1625l-1.5625 1.5625c-0.22262 0.22262-0.21391 0.57357 0.0125 0.8l0.8 0.8125c-0.28624 0.49216-0.51251 1.0245-0.6625 1.5875h-1.125c-0.32022 0-0.5875 0.26016-0.5875 0.575v2.2c0 0.31484 0.26728 0.575 0.5875 0.575h1.125c0.14999 0.56296 0.37626 1.0953 0.6625 1.5875l-0.8 0.8c-0.22643 0.22643-0.23514 0.58988-0.0125 0.8125l1.5625 1.5625c0.22263 0.22262 0.57357 0.21393 0.8-0.0125l0.8125-0.8c0.49216 0.28624 1.0246 0.51251 1.5875 0.6625v1.125c0 0.32022 0.26016 0.5875 0.575 0.5875h2.2c0.31483 0 0.57499-0.26728 0.57499-0.5875v-1.125c0.56296-0.14999 1.0953-0.37626 1.5875-0.6625l0.8125 0.8c0.22643 0.22643 0.57738 0.23512 0.8 0.0125l1.5625-1.5625c0.22262-0.22262 0.21391-0.58606-0.0125-0.8125l-0.8-0.79999c0.28624-0.49216 0.51251-1.0246 0.6625-1.5875h1.125c0.32022-0.00001 0.5875-0.26017 0.5875-0.57501v-2.2c0-0.31484-0.26728-0.575-0.5875-0.575h-1.125c-0.14999-0.56296-0.37626-1.0953-0.6625-1.5875l0.8-0.8125c0.22643-0.22643 0.23515-0.57738 0.0125-0.8l-1.5625-1.5625c-0.22262-0.22262-0.57357-0.22643-0.79999 0l-0.81251 0.8125c-0.49216-0.28624-1.0245-0.51251-1.5875-0.6625v-1.1375c0-0.32022-0.26016-0.575-0.575-0.575h-2.2zm1.1 5.575c1.3351 0 2.4125 1.0899 2.4125 2.425s-1.0774 2.4125-2.4125 2.4125-2.4125-1.0774-2.4125-2.4125 1.0774-2.425 2.4125-2.425z"
       style="display:block;fill:#4d4d4d" />
  </g>
</svg>
