<svg height="22" width="22" xmlns="http://www.w3.org/2000/svg" xmlns:sodipodi="http://sodipodi.sourceforge.net/DTD/sodipodi-0.dtd" xmlns:inkscape="http://www.inkscape.org/namespaces/inkscape">
 <g transform="matrix(1 0 0 1 -421.71 -525.79)">
  <path d="m438.21 545-0.20703-0.207-3.293-3.293 0.70703-0.707 2.293 2.2929v-4.2929h1v4.2929l2.293-2.2929 0.70703 0.707-3.293 3.293-0.20703 0.207z" fill="#4d4d4d"/>
  <g transform="matrix(0.18 0 0 0.18 353.1 441.38)">
   <path d="m408.3 488.04c-0.71048 0-1.2824 0.57196-1.2824 1.2824v17.954c0 0.71046 0.57197 1.2824 1.2824 1.2824h17.954c0.71048 0 1.2824-0.57196 1.2824-1.2824v-17.954c0-0.71047-0.57197-1.2824-1.2824-1.2824h-17.954z" fill="#4d4d4d" color="#000000"/>
   <path d="m408.3 519.46c-0.71048 0-1.2824 0.57196-1.2824 1.2824v17.954c0 0.71046 0.57197 1.2824 1.2824 1.2824h17.954c0.71048 0 1.2824-0.57196 1.2824-1.2824v-17.954c0-0.71047-0.57197-1.2824-1.2824-1.2824h-17.954z" fill="#4d4d4d" color="#000000"/>
   <path d="m408.3 551.52c-0.71048 0-1.2824 0.57196-1.2824 1.2824v17.954c0 0.71046 0.57197 1.2824 1.2824 1.2824h17.954c0.71048 0 1.2824-0.57196 1.2824-1.2824v-17.954c0-0.71047-0.57197-1.2824-1.2824-1.2824h-17.954z" fill="#4d4d4d" color="#000000"/>
  </g>
 </g>
</svg>
