<?xml version="1.0" encoding="UTF-8" standalone="no"?>
<!-- Created with Inkscape (http://www.inkscape.org/) -->

<svg
   xmlns:dc="http://purl.org/dc/elements/1.1/"
   xmlns:cc="http://creativecommons.org/ns#"
   xmlns:rdf="http://www.w3.org/1999/02/22-rdf-syntax-ns#"
   xmlns:svg="http://www.w3.org/2000/svg"
   xmlns="http://www.w3.org/2000/svg"
   xmlns:xlink="http://www.w3.org/1999/xlink"
   xmlns:sodipodi="http://sodipodi.sourceforge.net/DTD/sodipodi-0.dtd"
   xmlns:inkscape="http://www.inkscape.org/namespaces/inkscape"
   id="svg3049"
   height="22"
   width="22"
   version="1.1"
   inkscape:version="0.48.5 r10040"
   sodipodi:docname="gtk-cancel.svg">
  <sodipodi:namedview
     pagecolor="#ffffff"
     bordercolor="#666666"
     borderopacity="1"
     objecttolerance="10"
     gridtolerance="10"
     guidetolerance="10"
     inkscape:pageopacity="0"
     inkscape:pageshadow="2"
     inkscape:window-width="640"
     inkscape:window-height="480"
     id="namedview36"
     showgrid="false"
     inkscape:zoom="10.727273"
     inkscape:cx="11"
     inkscape:cy="11"
     inkscape:window-x="0"
     inkscape:window-y="30"
     inkscape:window-maximized="0"
     inkscape:current-layer="svg3049" />
  <defs
     id="defs3051">
    <clipPath
       id="clipPath4355">
      <rect
         id="rect4357"
         style="fill:#fff"
         rx="6"
         ry="6"
         height="80"
         width="84"
         y="6"
         x="6" />
    </clipPath>
    <filter
       id="filter3794"
       height="1.384"
       width="1.384"
       color-interpolation-filters="sRGB"
       y="-.192"
       x="-.192">
      <feGaussianBlur
         id="feGaussianBlur3796"
         stdDeviation="5.28" />
    </filter>
    <filter
       id="filter3174"
       color-interpolation-filters="sRGB">
      <feGaussianBlur
         id="feGaussianBlur3176"
         stdDeviation="1.71" />
    </filter>
    <clipPath
       id="clipPath4355-7">
      <rect
         id="rect4357-7"
         style="fill:#fff"
         rx="6"
         ry="6"
         height="80"
         width="84"
         y="6"
         x="6" />
    </clipPath>
    <linearGradient
       id="linearGradient3613-5"
       x1="48"
       gradientUnits="userSpaceOnUse"
       y1="20.221"
       x2="48"
       y2="138.66">
      <stop
         id="stop3739-0"
         style="stop-color:#fff"
         offset="0" />
      <stop
         id="stop3741-1"
         style="stop-color:#fff;stop-opacity:0"
         offset="1" />
    </linearGradient>
    <filter
       id="filter3794-1"
       height="1.384"
       width="1.384"
       color-interpolation-filters="sRGB"
       y="-.192"
       x="-.192">
      <feGaussianBlur
         id="feGaussianBlur3796-3"
         stdDeviation="5.28" />
    </filter>
    <filter
       id="filter3174-9"
       color-interpolation-filters="sRGB">
      <feGaussianBlur
         id="feGaussianBlur3176-1"
         stdDeviation="1.71" />
    </filter>
    <linearGradient
       id="ButtonShadow-8"
       x1="45.448"
       gradientUnits="userSpaceOnUse"
       y1="92.54"
       gradientTransform="scale(1.0059,0.99417)"
       x2="45.448"
       y2="7.0165">
      <stop
         id="stop3750-2"
         offset="0" />
      <stop
         id="stop3752-4"
         style="stop-opacity:.58824"
         offset="1" />
    </linearGradient>
    <linearGradient
       inkscape:collect="always"
       xlink:href="#ButtonShadow-8"
       id="linearGradient10038"
       gradientUnits="userSpaceOnUse"
       gradientTransform="scale(1.0059,0.99417)"
       x1="45.448"
       y1="92.54"
       x2="45.448"
       y2="7.0165" />
    <linearGradient
       inkscape:collect="always"
       xlink:href="#linearGradient3613-5"
       id="linearGradient10040"
       gradientUnits="userSpaceOnUse"
       x1="48"
       y1="20.221"
       x2="48"
       y2="138.66" />
  </defs>
  <metadata
     id="metadata3054">
    <rdf:RDF>
      <cc:Work
         rdf:about="">
        <dc:format>image/svg+xml</dc:format>
        <dc:type
           rdf:resource="http://purl.org/dc/dcmitype/StillImage" />
        <dc:title />
      </cc:Work>
    </rdf:RDF>
  </metadata>
  <g
     id="layer2"
     style="display:none"
     transform="matrix(0.26923,0,0,0.26923,-1.92,-1.38)">
    <rect
       id="rect3745-7"
       style="opacity:0.9;fill:url(#linearGradient10038);filter:url(#filter3174-9)"
       rx="6"
       ry="6"
       height="85"
       width="86"
       y="7"
       x="5" />
  </g>
  <g
     id="layer5"
     style="display:none"
     transform="matrix(0.26923,0,0,0.26923,-1.92,-1.38)">
    <rect
       id="rect3171-6"
       style="opacity:0.1;fill:url(#linearGradient10040);stroke:#ffffff;stroke-width:0.5;stroke-linecap:round;filter:url(#filter3794-1)"
       clip-path="url(#clipPath4355-7)"
       rx="12"
       ry="12"
       height="62"
       width="66"
       y="15"
       x="15" />
  </g>
  <g
     id="layer6"
     transform="matrix(0.26923,0,0,0.26923,-1.92,-1.38)"
     style="fill:#ff0000">
    <path
       id="Symbol"
       d="M 48,72 C 62.352,72 74,60.352 74,46 74,31.648 62.352,20 48,20 33.648,20 22,31.648 22,46 22,60.352 33.648,72 48,72 z m 0,-9.2857 c -9.2263,0 -16.714,-7.488 -16.714,-16.714 0,-2.4934 0.55767,-4.8528 1.5379,-6.9788 l 22.169,22.155 c -2.129,0.984 -4.495,1.538 -6.993,1.538 z m 14.973,-9.314 -22.387,-22.373 c 2.2358,-1.1102 4.75,-1.7411 7.4141,-1.7411 9.2263,0 16.714,7.488 16.714,16.714 0,2.6595 -0.63445,5.1666 -1.7411,7.3996 z"
       style="opacity:10000000000000004;fill:#ff0000"
       inkscape:connector-curvature="0" />
  </g>
  <rect
     x="5"
     y="7"
     width="86"
     height="85"
     ry="6"
     rx="6"
     transform="matrix(0.9,0,0,0.9,-38.1,-41.6)"
     style="opacity:0.9;fill:#ffffff;display:none;filter:url(#filter3174)"
     id="rect3745" />
  <rect
     x="15"
     y="15"
     width="66"
     height="62"
     ry="12"
     rx="12"
     clip-path="url(#clipPath4355)"
     transform="matrix(0.9,0,0,0.9,-38.1,-41.6)"
     style="opacity:0.1;fill:#ffffff;stroke:#ffffff;stroke-width:0.5;stroke-linecap:round;display:none;filter:url(#filter3794)"
     id="rect3171" />
</svg>
