<svg height="22" width="22" xmlns="http://www.w3.org/2000/svg" xmlns:sodipodi="http://sodipodi.sourceforge.net/DTD/sodipodi-0.dtd" xmlns:inkscape="http://www.inkscape.org/namespaces/inkscape">
 <path d="m11 3c-4.432 0-8 3.568-8 8s3.568 8 8 8 8-3.568 8-8-3.568-8-8-8zm0 1c3.878 0 7 3.122 7 7s-3.122 7-7 7-7-3.122-7-7 3.122-7 7-7zm-0.229 2v0.9004c-1.672 0.0759-2.7593 0.749-2.7593 2.1914 0 1.0522 0.7367 1.6372 1.918 1.9082l0.8413 0.195v3.08c-0.9469-0.043-1.788-0.281-2.478-0.595l-0.293 0.758c0.4912 0.271 1.4382 0.609 2.771 0.652v0.91h0.551v-0.91c1.603-0.076 2.678-0.836 2.678-2.408 0-1.291-0.819-1.867-2.094-2.149l-0.584-0.129v-2.6911c0.854 0.0325 1.65 0.2714 2.071 0.4883l0.291-0.7364c-0.55-0.3145-1.391-0.5541-2.362-0.5761v-0.8887h-0.551zm0 1.7129v2.5601l-0.466-0.097c-0.819-0.1845-1.264-0.5206-1.264-1.1389 0-0.8351 0.5843-1.2592 1.73-1.3242zm0.551 3.6131l0.291 0.065c1.088 0.249 1.369 0.682 1.369 1.322 0 1.008-0.572 1.508-1.648 1.562h-0.012v-2.949z" fill="#4d4d4d" transform="matrix(1 0 0 1 0 0)"/>
</svg>
