<svg height="22" viewBox="0 0 22 22" width="22" xmlns="http://www.w3.org/2000/svg" xmlns:sodipodi="http://sodipodi.sourceforge.net/DTD/sodipodi-0.dtd" xmlns:inkscape="http://www.inkscape.org/namespaces/inkscape">
 <g transform="matrix(0.03434 0 0 0.03434 10.591 -24.9)">
  <path d="m-63.029 1279.6c-43.419-12.133-72.748-20.804-73.176-21.636-0.58543-1.1383-33.021-363.59-32.9-367.64 0.0298-0.99526 36.924-1.25 181.04-1.25h181l-0.0518 3.25c-0.12451 7.8161-32.57 365.71-33.213 366.35-0.93719 0.9372-146.78 41.412-148.74 41.278-0.825-0.057-34.108-9.2153-73.962-20.352zm167.72-83.952c0.24761-0.2476 3.0792-30.065 6.2923-66.261 3.2132-36.196 6.0476-67.498 6.2988-69.561l0.45664-3.75h-82.905c-45.598 0-82.909-0.1125-82.913-0.25-0.005-0.1375-0.90084-9.7-1.9916-21.25s-1.987-21.788-1.9916-22.75c-0.008-1.6533 4.798-1.75 86.992-1.75 76.239 0 87-0.1835 87-1.4835 0-2.0354 2.8085-33.899 3.505-39.766l0.56391-4.75h-114.11-114.11l0.60781 5.25c0.93935 8.1136 11.531 127.96 11.534 130.5l0.0022 2.25h78.5 78.5l-0.0201 3.25c-0.0294 4.7546-4.6608 54.779-5.1037 55.125-0.20693 0.162-11.626 3.2901-25.376 6.9514l-25 6.6569-24.5-6.5813c-13.475-3.6198-24.793-6.8786-25.151-7.2418-0.35828-0.3633-1.1553-6.2855-1.7711-13.16-0.61582-6.875-1.387-14.862-1.7138-17.75l-0.59415-5.25h-22.762-22.762l0.44999 4.25c0.24749 2.3375 1.695 18.315 3.2167 35.506s3.0002 31.49 3.2855 31.775c0.28533 0.2853 21.299 6.2801 46.698 13.322l46.179 12.803 46.118-12.817c25.365-7.0495 46.321-13.02 46.569-13.268z" fill="#999"/>
  <path d="m-62.068 1279.3c-40.425-11.231-73.643-20.56-73.818-20.732-0.24536-0.2416-33.099-365.52-33.166-368.76-0.009-0.4125 81.434-0.75 180.98-0.75 99.55 0 181 0.14933 181 0.33184 0 2.2549-32.976 368.97-33.196 369.16-0.16704 0.1452-33.154 9.3425-73.304 20.438s-73.45 20.3-74 20.454c-0.55 0.1538-34.075-8.909-74.5-20.14zm135.51-27.232 59.012-16.312 13.811-155.6c7.596-85.58 14.053-157.06 14.349-158.85l0.53795-3.25h-74.611-74.611v23 23h-57-57v2.6708c0 3.1429 10.732 124.85 11.559 131.08l0.56388 4.25h50.939 50.939v35.5c0 27.738-0.2733 35.498-1.25 35.491-3.659-0.027-48.094-12.866-48.733-14.081-0.40783-0.7753-1.3228-8.9472-2.0332-18.16l-1.2917-16.75h-23.346c-12.84 0-23.352 0.3375-23.36 0.75-0.0466 2.4501 6.3103 70.822 6.6154 71.153 0.3119 0.3382 82.253 23.339 90.649 25.445l2.75 0.6898v23.588c0 18.442 0.27272 23.491 1.25 23.142 0.6875-0.2452 27.806-7.7862 60.262-16.758zm-122.92-217.3c-0.95711-11.688-1.9608-22.038-2.2304-23-0.45947-1.6404 1.5168-1.75 31.577-1.75h32.067v23 23h-29.837-29.837l-1.7402-21.25zm-86.586-212.25v-34.5h11.467 11.467l0.28275 11.25 0.28275 11.25h10.5 10.5l0.28275-11.25 0.28275-11.25h11.467 11.467v34.5 34.5h-11.5-11.5v-11.5-11.5h-11-11v11.5 11.5h-11.5-11.5v-34.5zm98 11.5v-23h-10-10v-11.5-11.5h31.5 31.5v11.5 11.5h-10-10v23 23h-11.5-11.5v-23zm54-11.5v-34.5h11.896 11.896l7.2837 12.056c4.8751 8.069 7.5409 11.624 8.0615 10.75 0.42784-0.71804 3.6339-6.0305 7.1246-11.806l6.3467-10.5 12.196-0.28078 12.196-0.28078v34.531 34.531h-11.5-11.5l-0.009-16.75-0.009-16.75-7.583 11.75c-4.1702 6.4625-7.8796 11.75-8.2427 11.75-0.36305 0-4.0342-5.2687-8.1582-11.708l-7.4981-11.708-0.27418 16.708-0.27418 16.708h-10.976-10.976v-34.5zm89 0v-34.5h11.5 11.5v23 23h16 16v11.5 11.5h-27.5-27.5v-34.5z" fill="#4d4d4d"/>
 </g>
</svg>
