<svg height="22" width="22" xmlns="http://www.w3.org/2000/svg" xmlns:sodipodi="http://sodipodi.sourceforge.net/DTD/sodipodi-0.dtd" xmlns:inkscape="http://www.inkscape.org/namespaces/inkscape">
 <path d="m11.611 1033.4c-0.18141-0.0001-0.59755 0.018-1.1051 0.1135-1.1995 0.2262-2.8615 1.0386-3.3307 2.7581-0.72572 2.659 1.1362 3.7315 1.1362 3.7315s0.66356 0.3918 0.93385 0.4704c0.81233 0.2364 1.6809 0.1298 1.6809 0.1298s-0.34843 1.1879 0.34241 2.028c0.16493 0.2005 0.04669 0.2109 0.04669 0.2109s-3.0219-0.073-4.4513 1.5088c-1.4294 1.5817-0.65369 3.0339-0.65369 3.0339s0.7518 1.9155 3.9844 2.0117c3.247 0.097 5.2409-1.9101 5.4163-3.4232 0.08816-0.7606-0.0081-1.4859-0.37354-2.1091-0.35551-0.606-0.97561-1.13-1.572-1.6386-0.37056-0.316-0.62765-0.4834-0.79377-0.6652-0.15694-0.1716-0.19232-0.3857-0.18677-0.5516 0.0078-0.2317 0.13943-0.519 0.52918-0.9896 0.71102-0.8584 0.89336-0.7365 1.323-1.3791 0.12879-0.1926 0.22579-0.4897 0.35798-0.9085 0.07963-0.2522 0.06225-0.5031 0.06226-0.7463 0.000015-0.5255-0.12542-1.0379-0.32685-1.4601-0.37434-0.7846-1.0149-1.2919-1.0272-1.3304h1.1206l1.2763-0.7787-4.2957-0.016c-0.000014-0.0002-0.03291-0.0001-0.09338-0.0001zm-0.91829 0.73c0.65652 0.01 1.6347 0.3582 2.2257 2.2065 1.0142 3.1714-1.1051 3.6666-1.1051 3.6666s-2.432 0.387-2.8794-2.4337c-0.45575-2.8731 0.65521-3.0259 1.0895-3.3096 0 0 0.27535-0.1326 0.66926-0.1298zm1.323 9.3612s1.9501 1.2339 2.1323 2.1415c0.20418 1.0167 0.21882 1.7524-1.2607 2.5633-0.43676 0.2395-1.1982 0.2738-1.6809 0.2758-1.1865 0.01-2.0941-0.4589-2.537-0.6976-0.23015-0.1239-1.4912-1.6304-0.54475-2.9689 0.23807-0.3367 0.50195-0.4936 0.74708-0.6652 0.52167-0.365 1.0268-0.5287 1.9922-0.6165 0.32109-0.029 0.73159 0 1.1517-0.032z" fill="#4d4d4d" transform="matrix(1 0 0 1 0 -1030.4)"/>
</svg>
