<?xml version="1.0" encoding="UTF-8" standalone="no"?>
<!-- Created with Inkscape (http://www.inkscape.org/) -->

<svg
   xmlns:dc="http://purl.org/dc/elements/1.1/"
   xmlns:cc="http://creativecommons.org/ns#"
   xmlns:rdf="http://www.w3.org/1999/02/22-rdf-syntax-ns#"
   xmlns:svg="http://www.w3.org/2000/svg"
   xmlns="http://www.w3.org/2000/svg"
   xmlns:sodipodi="http://sodipodi.sourceforge.net/DTD/sodipodi-0.dtd"
   xmlns:inkscape="http://www.inkscape.org/namespaces/inkscape"
   id="svg3760"
   height="22"
   width="22"
   version="1.1"
   inkscape:version="0.48.5 r10040"
   sodipodi:docname="im-google-talk.svg">
  <sodipodi:namedview
     pagecolor="#ffffff"
     bordercolor="#666666"
     borderopacity="1"
     objecttolerance="10"
     gridtolerance="10"
     guidetolerance="10"
     inkscape:pageopacity="0"
     inkscape:pageshadow="2"
     inkscape:window-width="640"
     inkscape:window-height="480"
     id="namedview8858" />
  <defs
     id="defs3762">
    <clipPath
       id="clipPath4355">
      <rect
         id="rect4357"
         style="fill:#fff"
         rx="6"
         ry="6"
         height="80"
         width="84"
         y="6"
         x="6" />
    </clipPath>
    <filter
       id="filter3794"
       height="1.384"
       width="1.384"
       color-interpolation-filters="sRGB"
       y="-.192"
       x="-.192">
      <feGaussianBlur
         id="feGaussianBlur3796"
         stdDeviation="5.28" />
    </filter>
    <filter
       id="filter3174"
       color-interpolation-filters="sRGB">
      <feGaussianBlur
         id="feGaussianBlur3176"
         stdDeviation="1.71" />
    </filter>
  </defs>
  <metadata
     id="metadata3765">
    <rdf:RDF>
      <cc:Work
         rdf:about="">
        <dc:format>image/svg+xml</dc:format>
        <dc:type
           rdf:resource="http://purl.org/dc/dcmitype/StillImage" />
        <dc:title />
      </cc:Work>
    </rdf:RDF>
  </metadata>
  <g
     id="layer1"
     transform="translate(-551.29 -607.65)">
    <g
       id="layer2"
       style="fill:#4d4d4d;display:none"
       transform="matrix(.36331 0 0 .36331 573.8 600.91)">
      <rect
         id="rect3745"
         style="opacity:.9;filter:url(#filter3174);fill:#4d4d4d"
         rx="6"
         ry="6"
         height="85"
         width="86"
         y="7"
         x="5" />
    </g>
    <g
       id="layer5"
       style="fill:#4d4d4d;display:none"
       transform="matrix(.36331 0 0 .36331 573.8 600.91)">
      <rect
         id="rect3171"
         style="opacity:.1;filter:url(#filter3794);stroke:#fff;stroke-linecap:round;stroke-width:.5;fill:#4d4d4d"
         clip-path="url(#clipPath4355)"
         rx="12"
         ry="12"
         height="62"
         width="66"
         y="15"
         x="15" />
    </g>
    <path
       id="path3620-5"
       style="fill:#4d4d4d"
       d="m11 3.6562c-4.4183 0-8 2.9476-8 6.5628 0 2.302 1.4592 4.302 3.6562 5.469-0.0834 0.608-0.48 2.115-2.2812 2.624 2.3328 0.254 3.8963-0.891 4.7188-1.75 0.6117 0.123 1.2482 0.188 1.9062 0.188 4.418 0 8-2.916 8-6.531 0-3.6152-3.582-6.5628-8-6.5628zm-3.75 3.7813h3.094v3.0935c0.006 0.073 0 0.145 0 0.219 0 1.263-0.9846 2.295-2.219 2.406v-0.906c0.746-0.108 1.3438-0.724 1.3438-1.5 0-0.075-0.021-0.147-0.0313-0.219h-2.1875v-3.0935zm4.406 0h3.094v3.0935h-0.031c0.007 0.073 0.031 0.145 0.031 0.219 0 1.263-0.984 2.295-2.219 2.406v-0.906c0.746-0.108 1.344-0.724 1.344-1.5 0-0.075-0.021-0.147-0.031-0.219h-2.188v-3.0935z"
       transform="translate(551.29 607.65)" />
  </g>
</svg>
