<svg height="22" width="22" xmlns="http://www.w3.org/2000/svg" xmlns:sodipodi="http://sodipodi.sourceforge.net/DTD/sodipodi-0.dtd" xmlns:inkscape="http://www.inkscape.org/namespaces/inkscape">
 <path d="m11 3.6562c-4.4183 0-8 2.9476-8 6.5628 0 2.302 1.4592 4.302 3.6562 5.469-0.0834 0.608-0.48 2.115-2.2812 2.624 2.3328 0.254 3.8963-0.891 4.7188-1.75 0.6117 0.123 1.2482 0.188 1.9062 0.188 4.418 0 8-2.916 8-6.531 0-3.6152-3.582-6.5628-8-6.5628zm-3.75 3.7813h3.094v3.0935c0.006 0.073 0 0.145 0 0.219 0 1.263-0.9846 2.295-2.219 2.406v-0.906c0.746-0.108 1.3438-0.724 1.3438-1.5 0-0.075-0.021-0.147-0.0313-0.219h-2.1875v-3.0935zm4.406 0h3.094v3.0935h-0.031c0.007 0.073 0.031 0.145 0.031 0.219 0 1.263-0.984 2.295-2.219 2.406v-0.906c0.746-0.108 1.344-0.724 1.344-1.5 0-0.075-0.021-0.147-0.031-0.219h-2.188v-3.0935z" fill="#4d4d4d" transform="matrix(1 0 0 1 0 0)"/>
</svg>
