<?xml version="1.0" encoding="UTF-8" standalone="no"?>
<!-- Created with Inkscape (http://www.inkscape.org/) -->

<svg
   xmlns:dc="http://purl.org/dc/elements/1.1/"
   xmlns:cc="http://creativecommons.org/ns#"
   xmlns:rdf="http://www.w3.org/1999/02/22-rdf-syntax-ns#"
   xmlns:svg="http://www.w3.org/2000/svg"
   xmlns="http://www.w3.org/2000/svg"
   xmlns:sodipodi="http://sodipodi.sourceforge.net/DTD/sodipodi-0.dtd"
   xmlns:inkscape="http://www.inkscape.org/namespaces/inkscape"
   id="svg2"
   height="22"
   width="22"
   version="1.1"
   inkscape:version="0.48.5 r10040"
   sodipodi:docname="im-gadugadu.svg">
  <defs
     id="defs8833" />
  <sodipodi:namedview
     pagecolor="#ffffff"
     bordercolor="#666666"
     borderopacity="1"
     objecttolerance="10"
     gridtolerance="10"
     guidetolerance="10"
     inkscape:pageopacity="0"
     inkscape:pageshadow="2"
     inkscape:window-width="640"
     inkscape:window-height="480"
     id="namedview8831" />
  <metadata
     id="metadata7">
    <rdf:RDF>
      <cc:Work
         rdf:about="">
        <dc:format>image/svg+xml</dc:format>
        <dc:type
           rdf:resource="http://purl.org/dc/dcmitype/StillImage" />
        <dc:title />
      </cc:Work>
    </rdf:RDF>
  </metadata>
  <g
     id="layer1"
     transform="translate(0 -1030.4)">
    <path
       id="rect4108"
       style="fill:#4d4d4d"
       d="m10 3v2.0898c-0.9132 0.1523-1.754 0.5061-2.4766 1.0196l-1.4726-1.4727-1.4141 1.4141 1.4727 1.4726c-0.5135 0.7226-0.8673 1.5634-1.0196 2.4766h-2.0898v2h2.0898c0.1523 0.913 0.5061 1.754 1.0196 2.477l-1.4727 1.472 1.4141 1.414 1.4726-1.472c0.7226 0.513 1.5634 0.867 2.4766 1.019v2.09h2v-2.09c0.913-0.152 1.754-0.506 2.477-1.019l1.472 1.472 1.414-1.414-1.472-1.472c0.513-0.723 0.867-1.564 1.019-2.477h2.09v-2h-2.09c-0.152-0.9132-0.506-1.754-1.019-2.4766l1.472-1.4726-1.414-1.4141-1.472 1.4727c-0.723-0.5135-1.564-0.8673-2.477-1.0196v-2.0898h-2zm1 3c1.364 0 2.594 0.5442 3.494 1.4238l0.082 0.0821c0.88 0.9003 1.424 2.1301 1.424 3.4941s-0.544 2.594-1.424 3.494l-0.082 0.082c-0.9 0.88-2.13 1.424-3.494 1.424s-2.5938-0.544-3.4941-1.424l-0.0821-0.082c-0.8796-0.9-1.4238-2.13-1.4238-3.494s0.5442-2.5938 1.4238-3.4941l0.0821-0.0821c0.9003-0.8796 2.1301-1.4238 3.4941-1.4238zm-2 3c-0.554 0-1 0.446-1 1s0.446 1 1 1 1-0.446 1-1-0.446-1-1-1zm4 0c-0.554 0-1 0.446-1 1s0.446 1 1 1 1-0.446 1-1-0.446-1-1-1zm-4.9082 2.727l-0.9668 0.242a4 4 0 0 0 3.875 3.031 4 4 0 0 0 3.877 -3.031l-0.971-0.242a3 3 0 0 1 -2.906 2.273 3 3 0 0 1 -2.9082 -2.273z"
       transform="translate(0 1030.4)" />
  </g>
</svg>
