<svg height="22" width="22" xmlns="http://www.w3.org/2000/svg" xmlns:sodipodi="http://sodipodi.sourceforge.net/DTD/sodipodi-0.dtd" xmlns:inkscape="http://www.inkscape.org/namespaces/inkscape">
 <path d="m10 3c-3.324 0-6 2.676-6 6v4l-1 4 4-2h3c0.819 0 1.597-0.165 2.307-0.459-0.129-0.31-0.205-0.646-0.252-0.99-0.628 0.283-1.32 0.449-2.055 0.449h-3.3242-1.6758v-1.676-0.324-3c0-2.77 2.23-5 5-5s5 2.23 5 5c0 0.0476-0.007 0.0934-0.008 0.1406 0.324-0.0838 0.658-0.1406 1.008-0.1406 0-3.324-2.676-6-6-6zm6 7c-1.662 0-3 1.338-3 3 0 0.978 0.471 1.834 1.191 2.381l1.809 3.619 1.809-3.619c0.72-0.547 1.191-1.403 1.191-2.381 0-1.662-1.338-3-3-3zm0 1c1.108 0 2 0.892 2 2s-0.892 2-2 2-2-0.892-2-2 0.892-2 2-2zm-10 0.979v0.021h0.0176c-0.0056-0.01-0.0121-0.013-0.0176-0.021z" fill="#4d4d4d" transform="matrix(1 0 0 1 0 0)"/>
</svg>
