<svg height="22" width="22" xmlns="http://www.w3.org/2000/svg" xmlns:sodipodi="http://sodipodi.sourceforge.net/DTD/sodipodi-0.dtd" xmlns:inkscape="http://www.inkscape.org/namespaces/inkscape">
 <path d="m11 3a2 3 0 0 0 -2 3 2 3 0 0 0 0.0059 0.1855 3 2 45 0 0 -0.127 -0.1347 3 2 45 0 0 -3.5351 -0.707 3 2 45 0 0 0.707 3.5351 3 2 45 0 0 0.1328 0.127 3 2 0 0 0 -0.1836 -0.0059 3 2 0 0 0 -3 2 3 2 0 0 0 3 2 3 2 0 0 0 0.1855 -0.006 2 3 45 0 0 -0.1347 0.127 2 3 45 0 0 -0.707 3.535 2 3 45 0 0 3.5351 -0.707 2 3 45 0 0 0.127 -0.133 2 3 0 0 0 -0.0059 0.184 2 3 0 0 0 2 3 2 3 0 0 0 2 -3 2 3 0 0 0 -0.006 -0.186 3 2 45 0 0 0.127 0.135 3 2 45 0 0 3.535 0.707 3 2 45 0 0 -0.707 -3.535 3 2 45 0 0 -0.133 -0.127 3 2 0 0 0 0.184 0.006 3 2 0 0 0 3 -2 3 2 0 0 0 -3 -2 3 2 0 0 0 -0.186 0.0059 2 3 45 0 0 0.135 -0.127 2 3 45 0 0 0.707 -3.5351 2 3 45 0 0 -3.535 0.707 2 3 45 0 0 -0.127 0.1328 2 3 0 0 0 0.006 -0.1836 2 3 0 0 0 -2 -3zm0.994 5.5977a2 3 45 0 0 0.42 0.9882 2 3 45 0 0 0.986 0.4201 3 2 0 0 0 -0.4 0.994 3 2 0 0 0 0.402 0.994 3 2 45 0 0 -0.988 0.42 3 2 45 0 0 -0.42 0.986 2 3 0 0 0 -0.994 -0.4 2 3 0 0 0 -0.994 0.4 2 3 45 0 0 -0.4201 -0.986 2 3 45 0 0 -0.9863 -0.42 3 2 0 0 0 0.4004 -0.994 3 2 0 0 0 -0.4004 -0.994 3 2 45 0 0 0.9863 -0.4201 3 2 45 0 0 0.4201 -0.9863 2 3 0 0 0 0.994 0.4004 2 3 0 0 0 0.994 -0.4023zm-0.994 1.4023c-0.554 0-1 0.446-1 1s0.446 1 1 1 1-0.446 1-1-0.446-1-1-1z" fill="#4d4d4d" transform="matrix(1 0 0 1 0 0)"/>
</svg>
