<?xml version="1.0" encoding="UTF-8" standalone="no"?>
<!-- Created with Inkscape (http://www.inkscape.org/) -->

<svg
   xmlns:dc="http://purl.org/dc/elements/1.1/"
   xmlns:cc="http://creativecommons.org/ns#"
   xmlns:rdf="http://www.w3.org/1999/02/22-rdf-syntax-ns#"
   xmlns:svg="http://www.w3.org/2000/svg"
   xmlns="http://www.w3.org/2000/svg"
   xmlns:sodipodi="http://sodipodi.sourceforge.net/DTD/sodipodi-0.dtd"
   xmlns:inkscape="http://www.inkscape.org/namespaces/inkscape"
   id="svg3760"
   height="24"
   width="24"
   version="1.1"
   inkscape:version="0.48.5 r10040"
   sodipodi:docname="im-jabber.svg">
  <defs
     id="defs8905" />
  <sodipodi:namedview
     pagecolor="#ffffff"
     bordercolor="#666666"
     borderopacity="1"
     objecttolerance="10"
     gridtolerance="10"
     guidetolerance="10"
     inkscape:pageopacity="0"
     inkscape:pageshadow="2"
     inkscape:window-width="640"
     inkscape:window-height="480"
     id="namedview8903" />
  <metadata
     id="metadata3765">
    <rdf:RDF>
      <cc:Work
         rdf:about="">
        <dc:format>image/svg+xml</dc:format>
        <dc:type
           rdf:resource="http://purl.org/dc/dcmitype/StillImage" />
        <dc:title />
      </cc:Work>
    </rdf:RDF>
  </metadata>
  <g
     id="layer1"
     transform="translate(-550.29 -606.65)">
    <path
       id="path4141"
       style="fill:#4d4d4d"
       d="m12 4v0.002c-2.9996 0-4.5 1.9861-4.5 4.3984 0 2.5996 2.914 7.5996 2.914 7.5996l3.172-0.004s2.914-4.996 2.914-7.5956c0-2.4122-1.5-4.4004-4.5-4.4004zm0 1.002c2.334 0 3.5 1.6557 3.5 3.666 0 2.166-2.266 6.33-2.266 6.33l-2.468 0.004s-2.266-4.168-2.266-6.334c0-2.0103 1.167-3.6641 3.5-3.6641v-0.0019z"
       transform="translate(550.29 606.65)" />
    <path
       id="rect4131"
       style="fill:#4d4d4d"
       d="m10 17v1.5c0 0.831 0.669 1.5 1.5 1.5h1c0.831 0 1.5-0.669 1.5-1.5v-1.5h-1.5-1-1.5z"
       transform="translate(550.29 606.65)" />
  </g>
</svg>
