<svg height="22" width="22" xmlns="http://www.w3.org/2000/svg" xmlns:sodipodi="http://sodipodi.sourceforge.net/DTD/sodipodi-0.dtd" xmlns:inkscape="http://www.inkscape.org/namespaces/inkscape">
 <path d="m11 3c-4.432 0-8 3.568-8 8s3.568 8 8 8c2.035 0 3.882-0.759 5.291-2.002l2.002 2.002 0.707-0.707-2.002-2.002c1.243-1.409 2.002-3.256 2.002-5.291 0-4.432-3.568-8-8-8zm0 1c3.878 0 7 3.122 7 7 0 1.758-0.646 3.357-1.709 4.584l-1.584-1.584-0.707 0.707 1.584 1.584c-1.227 1.063-2.826 1.709-4.584 1.709-3.878 0-7-3.122-7-7s3.122-7 7-7z" fill="#4d4d4d" transform="matrix(1 0 0 1 0 0)"/>
</svg>
