<?xml version="1.0" encoding="UTF-8" standalone="no"?>
<!-- Created with Inkscape (http://www.inkscape.org/) -->

<svg
   xmlns:dc="http://purl.org/dc/elements/1.1/"
   xmlns:cc="http://creativecommons.org/ns#"
   xmlns:rdf="http://www.w3.org/1999/02/22-rdf-syntax-ns#"
   xmlns:svg="http://www.w3.org/2000/svg"
   xmlns="http://www.w3.org/2000/svg"
   xmlns:sodipodi="http://sodipodi.sourceforge.net/DTD/sodipodi-0.dtd"
   xmlns:inkscape="http://www.inkscape.org/namespaces/inkscape"
   id="svg3049"
   height="22"
   width="22"
   version="1.1"
   inkscape:version="0.48.5 r10040"
   sodipodi:docname="im-qq.svg">
  <defs
     id="defs8944" />
  <sodipodi:namedview
     pagecolor="#ffffff"
     bordercolor="#666666"
     borderopacity="1"
     objecttolerance="10"
     gridtolerance="10"
     guidetolerance="10"
     inkscape:pageopacity="0"
     inkscape:pageshadow="2"
     inkscape:window-width="640"
     inkscape:window-height="480"
     id="namedview8942" />
  <metadata
     id="metadata3054">
    <rdf:RDF>
      <cc:Work
         rdf:about="">
        <dc:format>image/svg+xml</dc:format>
        <dc:type
           rdf:resource="http://purl.org/dc/dcmitype/StillImage" />
        <dc:title />
      </cc:Work>
    </rdf:RDF>
  </metadata>
  <g
     id="layer1"
     transform="translate(-421.71 -525.79)">
    <path
       id="rect4108"
       style="fill:#4d4d4d"
       d="m11 3c-4.432 0-8 3.568-8 8s3.568 8 8 8c2.035 0 3.882-0.759 5.291-2.002l2.002 2.002 0.707-0.707-2.002-2.002c1.243-1.409 2.002-3.256 2.002-5.291 0-4.432-3.568-8-8-8zm0 1c3.878 0 7 3.122 7 7 0 1.758-0.646 3.357-1.709 4.584l-1.584-1.584-0.707 0.707 1.584 1.584c-1.227 1.063-2.826 1.709-4.584 1.709-3.878 0-7-3.122-7-7s3.122-7 7-7z"
       transform="translate(421.71 525.79)" />
  </g>
</svg>
