<?xml version="1.0" encoding="UTF-8" standalone="no"?>
<!-- Created with Inkscape (http://www.inkscape.org/) -->

<svg
   xmlns:dc="http://purl.org/dc/elements/1.1/"
   xmlns:cc="http://creativecommons.org/ns#"
   xmlns:rdf="http://www.w3.org/1999/02/22-rdf-syntax-ns#"
   xmlns:svg="http://www.w3.org/2000/svg"
   xmlns="http://www.w3.org/2000/svg"
   xmlns:sodipodi="http://sodipodi.sourceforge.net/DTD/sodipodi-0.dtd"
   xmlns:inkscape="http://www.inkscape.org/namespaces/inkscape"
   id="svg3049"
   height="22"
   width="22"
   version="1.1"
   inkscape:version="0.48.5 r10040"
   sodipodi:docname="im-skype.svg">
  <defs
     id="defs8952" />
  <sodipodi:namedview
     pagecolor="#ffffff"
     bordercolor="#666666"
     borderopacity="1"
     objecttolerance="10"
     gridtolerance="10"
     guidetolerance="10"
     inkscape:pageopacity="0"
     inkscape:pageshadow="2"
     inkscape:window-width="640"
     inkscape:window-height="480"
     id="namedview8950" />
  <metadata
     id="metadata3054">
    <rdf:RDF>
      <cc:Work
         rdf:about="">
        <dc:format>image/svg+xml</dc:format>
        <dc:type
           rdf:resource="http://purl.org/dc/dcmitype/StillImage" />
        <dc:title />
      </cc:Work>
    </rdf:RDF>
  </metadata>
  <g
     id="layer1"
     transform="translate(-421.71 -525.79)">
    <path
       id="path857-5"
       style="fill:#4d4d4d"
       d="m440.25 538.49c0.11523-0.52033 0.17661-1.0602 0.17661-1.6145 0-4.1559-3.4165-7.5247-7.6314-7.5247-0.44486 0-0.88065 0.0389-1.305 0.11012-0.68224-0.42346-1.4892-0.66954-2.3549-0.66954-2.444 0-4.4252 1.9539-4.4252 4.3637 0 0.80553 0.22231 1.5594 0.60854 2.2071-0.10142 0.48865-0.15497 0.99492-0.15497 1.5133 0 4.156 3.4166 7.5247 7.6314 7.5247 0.47783 0 0.94446-0.0437 1.3977-0.12666 0.62283 0.33048 1.3351 0.51792 2.0918 0.51792 2.4444 0 4.4256-1.9536 4.4256-4.3637 0-0.69611-0.16605-1.3539-0.46033-1.9379zm-3.541 1.9812c-0.35262 0.49305-0.87435 0.88324-1.5502 1.1602-0.66916 0.27429-1.4714 0.41325-2.3845 0.41325-1.0962 0-2.0153-0.18986-2.7323-0.56483-0.51266-0.27341-0.93576-0.64291-1.2567-1.0996-0.32405-0.46129-0.48846-0.91844-0.48846-1.3598 0-0.2758 0.10738-0.51482 0.31852-0.71021 0.20905-0.19412 0.47699-0.29215 0.79631-0.29215 0.26233 0 0.48843 0.0773 0.67228 0.2304 0.17553 0.14694 0.32644 0.36411 0.44728 0.64457 0.13549 0.30547 0.28288 0.56328 0.43856 0.76635 0.14983 0.19547 0.36489 0.3595 0.63983 0.48795 0.27694 0.12934 0.6497 0.19439 1.1085 0.19439 0.63109 0 1.1485-0.13279 1.5375-0.39488 0.3799-0.25546 0.56446-0.56253 0.56446-0.93874 0-0.29721-0.0965-0.53044-0.29471-0.71356-0.20798-0.19147-0.4813-0.34072-0.81449-0.44301-0.34663-0.10614-0.81768-0.22161-1.3997-0.34177-0.79193-0.1672-1.465-0.36563-2.0003-0.5903-0.54712-0.22933-0.98841-0.54765-1.3109-0.94608-0.32763-0.40385-0.49361-0.91134-0.49361-1.5078 0-0.56843 0.17417-1.0809 0.51819-1.5228 0.34109-0.43906 0.83948-0.78007 1.4812-1.0141 0.63345-0.23094 1.3866-0.34803 2.2388-0.34803 0.68175 0 1.2808 0.0776 1.7812 0.23119 0.50272 0.1544 0.92705 0.36292 1.2602 0.61956 0.3356 0.25867 0.5852 0.53512 0.74204 0.82225 0.15848 0.29063 0.23854 0.57891 0.23854 0.85854 0 0.26877-0.10493 0.51331-0.31294 0.72582-0.20933 0.2144-0.47269 0.32349-0.78368 0.32349-0.28249 0-0.50391-0.0683-0.65723-0.2024-0.14306-0.12427-0.29119-0.31875-0.45562-0.59761-0.19041-0.35675-0.4207-0.63757-0.68495-0.83565-0.25639-0.19254-0.685-0.29019-1.2741-0.29019-0.54712 0-0.99157 0.10853-1.322 0.32184-0.3185 0.20587-0.47301 0.44221-0.47301 0.72149 0 0.17148 0.0495 0.31446 0.15226 0.43787 0.10846 0.13041 0.26153 0.24534 0.45482 0.34071 0.2004 0.0997 0.40727 0.1784 0.61406 0.23465 0.2123 0.0581 0.56846 0.14402 1.0561 0.25548 0.61766 0.13067 1.1853 0.27698 1.6873 0.43518 0.50788 0.16053 0.94721 0.35814 1.305 0.5879 0.36565 0.23466 0.65527 0.53595 0.86046 0.89605 0.20609 0.36089 0.31019 0.80703 0.31019 1.325-0.00011 0.61966-0.17958 1.1848-0.53409 1.679z" />
  </g>
</svg>
