<?xml version="1.0" encoding="UTF-8" standalone="no"?>
<!-- Created with Inkscape (http://www.inkscape.org/) -->

<svg
   xmlns:dc="http://purl.org/dc/elements/1.1/"
   xmlns:cc="http://creativecommons.org/ns#"
   xmlns:rdf="http://www.w3.org/1999/02/22-rdf-syntax-ns#"
   xmlns:svg="http://www.w3.org/2000/svg"
   xmlns="http://www.w3.org/2000/svg"
   xmlns:sodipodi="http://sodipodi.sourceforge.net/DTD/sodipodi-0.dtd"
   xmlns:inkscape="http://www.inkscape.org/namespaces/inkscape"
   id="svg3049"
   height="22"
   width="22"
   version="1.1"
   inkscape:version="0.48.5 r10040"
   sodipodi:docname="im-twitter.svg">
  <defs
     id="defs8960" />
  <sodipodi:namedview
     pagecolor="#ffffff"
     bordercolor="#666666"
     borderopacity="1"
     objecttolerance="10"
     gridtolerance="10"
     guidetolerance="10"
     inkscape:pageopacity="0"
     inkscape:pageshadow="2"
     inkscape:window-width="640"
     inkscape:window-height="480"
     id="namedview8958" />
  <metadata
     id="metadata3054">
    <rdf:RDF>
      <cc:Work
         rdf:about="">
        <dc:format>image/svg+xml</dc:format>
        <dc:type
           rdf:resource="http://purl.org/dc/dcmitype/StillImage" />
        <dc:title />
      </cc:Work>
    </rdf:RDF>
  </metadata>
  <g
     id="layer1"
     transform="translate(-421.71 -525.79)">
    <path
       id="path14-4"
       style="fill:#4d4d4d"
       d="m440.71 531.83c-0.58859 0.261-1.2213 0.43737-1.8852 0.51673 0.67761-0.40617 1.1981-1.0493 1.4432-1.8157-0.63428 0.37614-1.3368 0.64924-2.0845 0.79635-0.59869-0.63781-1.4518-1.0363-2.3959-1.0363-1.8128 0-3.2826 1.4694-3.2826 3.2819 0 0.25718 0.029 0.5077 0.0849 0.74787-2.728-0.13683-5.1468-1.4435-6.7657-3.429-0.28261 0.48466-0.44447 1.0485-0.44447 1.6499 0 1.1387 0.57951 2.1432 1.4603 2.7318-0.5381-0.0167-1.0443-0.16471-1.4868-0.41048-0.0003 0.014-0.0003 0.0269-0.0003 0.0409 0 1.5901 1.1315 2.9165 2.6331 3.2181-0.27538 0.0751-0.56537 0.11508-0.86477 0.11508-0.21149 0-0.41715-0.0209-0.6176-0.0589 0.41774 1.3038 1.63 2.2528 3.0664 2.2791-1.1234 0.88034-2.5388 1.405-4.0767 1.405-0.26497 0-0.52628-0.0156-0.78303-0.0459 1.4526 0.93119 3.1781 1.4746 5.0318 1.4746 6.0377 0 9.3395-5.0009 9.3395-9.338 0-0.14225-0.004-0.28376-0.009-0.42452 0.64141-0.46274 1.1979-1.0408 1.6379-1.699" />
  </g>
</svg>
