<svg height="22" width="22" xmlns="http://www.w3.org/2000/svg" xmlns:sodipodi="http://sodipodi.sourceforge.net/DTD/sodipodi-0.dtd" xmlns:inkscape="http://www.inkscape.org/namespaces/inkscape">
 <path d="m424.71 531.82 0.0131 0.72024 2.1086 0.2753c0.57782 0.5024 3.7898 4.2214 4.2797 5.1763l0.0505 2.6637c-0.31404 0.41389-2.2351 0.32812-2.2351 0.32812l-0.16368 0.77083s7.1962-0.14545 7.2336-0.0618c-0.018-0.0959 0.0131-0.72023 0.0131-0.72023l-2.3356-0.0618s-0.151-1.8998-0.0379-3.0052c1.5325-1.6962 4.2671-3.6109 4.2671-3.6109l1.8564-0.31548 0.42932-0.74478-6.3251-0.0387 0.1637 0.77081s1.7305 0.13933 1.9189 0.29018c-0.0251 0.37692-2.9918 2.7522-2.9918 2.7522l-3.2448-4.3683 2.2731-0.17634 0.10044-0.54316-7.3727-0.10123zm14.33 4.4777 0.0157 4.0662 0.69269 0.0922 0.96132-3.9323-1.6696-0.22618zm-0.13393 4.5149-0.11154 0.80357 0.84673 0.1384 0.12643-0.84673-0.8616-0.0952z" fill="#4d4d4d" color="#000000" transform="matrix(1 0 0 1 -421.71 -525.79)"/>
</svg>
