<svg height="22" width="22" xmlns="http://www.w3.org/2000/svg" xmlns:sodipodi="http://sodipodi.sourceforge.net/DTD/sodipodi-0.dtd" xmlns:inkscape="http://www.inkscape.org/namespaces/inkscape">
 <path d="M 18,13.95 14,10 10,14 9,13 4.1484,17.852 4,18 4,4 18,4 z M 19,19 19,4 19,3 4,3 3,3 3,4 3,19 4,19 c 3.5826642,-0.01993 7.567847,0.05257 12.472457,0 z M 7,5 C 5.892,5 5,5.892 5,7 5,8.108 5.892,9 7,9 8.108,9 9,8.108 9,7 9,5.892 8.108,5 7,5 z" fill="#4d4d4d" sodipodi:nodetypes="cccccccccccccccccccsssss" inkscape:connector-curvature="0" transform="matrix(1 0 0 1 0 0)"/>
</svg>
