<svg viewBox="0 0 16 16" height="16" width="16" xmlns="http://www.w3.org/2000/svg" xmlns:sodipodi="http://sodipodi.sourceforge.net/DTD/sodipodi-0.dtd" xmlns:inkscape="http://www.inkscape.org/namespaces/inkscape">
 <path stroke="none" stroke-dasharray="none" stroke-dashoffset="0" stroke-linecap="butt" stroke-linejoin="miter" color="#000000" stroke-miterlimit="4" stroke-opacity="1" color-interpolation="sRGB" image-rendering="auto" stroke-width="1" color-interpolation-filters="linearRGB" color-rendering="auto" d="M 8 2 C 4.676 2 2 4.676 2 8 C 2 11.324 4.676 14 8 14 C 11.324 14 14 11.324 14 8 C 14 4.676 11.324 2 8 2 z M 8 3 C 10.77 3 13 5.23 13 8 C 13 10.77 10.77 13 8 13 C 5.23 13 3 10.77 3 8 C 3 5.23 5.23 3 8 3 z " text-rendering="auto" display="inline" visibility="visible" fill="#bebebe" fill-opacity="1" opacity="1" fill-rule="nonzero" shape-rendering="auto"/>
 <rect stroke="none" stroke-dasharray="none" stroke-dashoffset="0" stroke-linecap="butt" height="8.949" stroke-linejoin="miter" color="#000000" stroke-miterlimit="4" stroke-opacity="1" color-interpolation="sRGB" image-rendering="auto" stroke-width="1" color-interpolation-filters="linearRGB" color-rendering="auto" text-rendering="auto" display="inline" visibility="visible" width="9.02" fill="#dc322f" fill-opacity="1" opacity="1" x="3.492" fill-rule="nonzero" y="3.525" rx="4.475" ry="4.474" shape-rendering="auto"/>
 <path stroke-opacity="1" d="M 13.292969,2.0000003 2.0000001,13.292969 2.7070311,14 14,2.7070315 Z" stroke-width="1" fill="#bebebe" fill-opacity="1" stroke="none" stroke-linecap="butt" stroke-linejoin="miter" sodipodi:nodetypes="ccccc" inkscape:connector-curvature="0"/>
</svg>
