<svg height="16" width="16" xmlns="http://www.w3.org/2000/svg" xmlns:sodipodi="http://sodipodi.sourceforge.net/DTD/sodipodi-0.dtd" xmlns:inkscape="http://www.inkscape.org/namespaces/inkscape">
 <defs>
  <filter id="filter4215">
   <feGaussianBlur stdDeviation="0.04962"/>
  </filter>
  <linearGradient x2="0" y1="1.01" y2="15.01" gradientUnits="userSpaceOnUse" id="linearGradient4225">
   <stop/>
   <stop stop-opacity="0" offset="1"/>
  </linearGradient>
  <linearGradient x2="0" y1="0.045" y2="16.05" gradientUnits="userSpaceOnUse" id="linearGradient4484">
   <stop/>
   <stop stop-opacity="0.256" offset="1"/>
  </linearGradient>
 </defs>
 <g stroke-width="0.2" enable-background="new" fill="none" stroke="url(#linearGradient4225)" filter="url(#filter4215)" transform="matrix(1 0 0 1 0.017 -0.006)">
  <rect x="-429" rx="0" y="127" color="#dddddd" height="2" opacity="0.5" width="8" transform="matrix(-1 0 0 1 -417 -117)"/>
  <rect x="-427" rx="0" y="118" color="#dddddd" height="2" opacity="0.5" width="4" transform="matrix(-1 0 0 1 -417 -117)"/>
  <rect x="-427" rx="0" y="130" color="#dddddd" height="2" opacity="0.5" width="4" transform="matrix(-1 0 0 1 -417 -117)"/>
  <rect x="-429" rx="0" y="121" color="#dddddd" height="2" opacity="0.5" width="8" transform="matrix(-1 0 0 1 -417 -117)"/>
  <rect x="-431" y="124" color="#dddddd" height="2" width="12" transform="matrix(-1 0 0 1 -417 -117)"/>
 </g>
 <g stroke-width="0.2" enable-background="new" stroke="url(#linearGradient4484)" transform="matrix(1 0 0 1 -322.95 -137.05)">
  <path d="m336.66 137.94-12.719 12.719 1.4062 1.4062 12.719-12.719z" fill="#4d4d4d" fill-opacity="9223372036.85" color="#000000"/>
  <path d="m331 141.16c-2.8993 0-5.4392 1.5386-6.8438 3.8438 0.49639 0.81471 1.1606 1.5046 1.9062 2.0938l1.875-1.875c-0.005-0.0733-0.0312-0.14413-0.0312-0.21875 0-1.6983 1.3934-3.0625 3.0938-3.0625 0.0642 0 0.12429 0.0274 0.1875 0.0312l0.75-0.75c-0.31012-0.0364-0.61757-0.0625-0.9375-0.0625zm4.9375 1.75-1.875 1.875c0.005 0.0733 0.0312 0.14414 0.0312 0.21875 0 1.6983-1.3934 3.0625-3.0938 3.0625-0.0642 0-0.12429-0.0274-0.1875-0.0312l-0.75 0.75c0.31011 0.0364 0.61757 0.0625 0.9375 0.0625 2.8993 0 5.4392-1.5386 6.8438-3.8438-0.49639-0.81471-1.1606-1.5046-1.9062-2.0938z" fill="#ff0000" color="#bebebe" stroke="none"/>
 </g>
</svg>
