<svg height="22" width="22" xmlns="http://www.w3.org/2000/svg" xmlns:sodipodi="http://sodipodi.sourceforge.net/DTD/sodipodi-0.dtd" xmlns:inkscape="http://www.inkscape.org/namespaces/inkscape">
 <path d="m16 14v2h-2v1h2v2h1v-2h2v-1h-2v-2z" fill="#4d4d4d" transform="matrix(1 0 0 1 0 0)"/>
 <path d="m3 3v16h9v-1h-2v-2h2v-1h-2v-2h2v-1h-2v-2h2v2h1v-2h2v2h1v-2h2v2h1v-9h-16zm1 1h2 1 2v5h-5v-2-1-2zm6 0h2v2h-2v-2zm3 0h2v2h-2v-2zm3 0h2v2h-2v-2zm-6 3h2v2h-2v-2zm3 0h2v2h-2v-2zm3 0h2v2h-2v-2zm-12 3h2v2h-2v-2zm3 0h2v2h-2v-2zm-3 3h2v2h-2v-2zm3 0h2v2h-2v-2zm-3 3h2v2h-2v-2zm3 0h2v2h-2v-2z" fill="#4d4d4d" transform="matrix(1 0 0 1 0 0)"/>
 <path d="m4 4v3 2h5v-2-3h-2-3z" fill="#1d99f3" transform="matrix(1 0 0 1 0 0)"/>
</svg>
