<svg height="22" width="22" xmlns="http://www.w3.org/2000/svg" xmlns:sodipodi="http://sodipodi.sourceforge.net/DTD/sodipodi-0.dtd" xmlns:inkscape="http://www.inkscape.org/namespaces/inkscape">
 <path d="m19 3l-1 0.375v15.313l1 0.312v-16zm-2 0.75l-12 4.5v6.375l1 0.313v0.062 1 1 1h5 1v-1-0.188l5 1.563v-1.375-12-1.25zm-1 1.6133v11.364l-10-2.727v-5l10-3.6367zm-12 3.2617l-1 0.375v5l1 0.312v-5.687zm3 6.625l4 1.25v0.5h-4v-1-0.75z" fill="#4d4d4d" fill-rule="evenodd" transform="matrix(1 0 0 1 0 0)"/>
</svg>
