<svg height="48" width="48" xmlns="http://www.w3.org/2000/svg" xmlns:sodipodi="http://sodipodi.sourceforge.net/DTD/sodipodi-0.dtd" xmlns:inkscape="http://www.inkscape.org/namespaces/inkscape">
 <g fill="#4d4d4d" transform="matrix(1 0 0 1 -453.14 -628.4)">
  <path d="m0 0c-1.869 0-3.385 1.516-3.385 3.385 0 1.868 1.516 3.384 3.385 3.384 1.867 0 3.383-1.516 3.383-3.384 0-1.869-1.516-3.385-3.383-3.385m0 13.4c-5.533 0-10.018-4.484-10.018-10.015 0-5.532 4.485-10.017 10.018-10.017 5.531 0 10.014 4.485 10.014 10.017 0 5.531-4.483 10.015-10.014 10.015" transform="matrix(1.4976 0 0 -1.4976 477.15 657.43)"/>
  <path d="m0 0c0-0.234-0.191-0.425-0.426-0.425-0.234 0-0.426 0.191-0.426 0.425 0 0.235 0.192 0.426 0.426 0.426 0.235 0 0.426-0.191 0.426-0.426" transform="matrix(1.4976 0 0 -1.4976 477.78 652.36)"/>
 </g>
</svg>
