<svg height="22" viewBox="0 0 22 22" width="22" xmlns="http://www.w3.org/2000/svg" xmlns:sodipodi="http://sodipodi.sourceforge.net/DTD/sodipodi-0.dtd" xmlns:inkscape="http://www.inkscape.org/namespaces/inkscape">
 <g transform="matrix(1 0 0 1 0 -1030.4)">
  <rect x="14" rx="2" y="1043.4" fill="#4d4d4d" height="4" width="4"/>
  <rect x="7" rx="1" y="1034.4" fill="#4d4d4d" height="2" width="2"/>
  <rect x="3" rx="1.5" y="1038.4" fill="#4d4d4d" height="3" width="3"/>
  <path d="m11 1033.4v7.5859 2 2.4141h1v-12h-1zm7.293 0-4.293 4.2929-1 1v1.4141l1 1 4.293 4.293 0.70703-0.7071-4.293-4.2929-1-1 1-1 4.293-4.293-0.70703-0.707z" fill="#4d4d4d"/>
  <rect x="4" rx="1.5" y="1043.4" fill="#4d4d4d" height="3" width="3"/>
  <rect x="9" rx="1.5" y="1046.4" fill="#4d4d4d" height="3" width="3"/>
 </g>
</svg>
