<?xml version="1.0" encoding="UTF-8" standalone="no"?>
<!-- Created with Inkscape (http://www.inkscape.org/) -->

<svg
   xmlns:dc="http://purl.org/dc/elements/1.1/"
   xmlns:cc="http://creativecommons.org/ns#"
   xmlns:rdf="http://www.w3.org/1999/02/22-rdf-syntax-ns#"
   xmlns:svg="http://www.w3.org/2000/svg"
   xmlns="http://www.w3.org/2000/svg"
   xmlns:sodipodi="http://sodipodi.sourceforge.net/DTD/sodipodi-0.dtd"
   xmlns:inkscape="http://www.inkscape.org/namespaces/inkscape"
   id="svg2"
   height="48"
   width="48"
   version="1.1"
   inkscape:version="0.48.5 r10040"
   sodipodi:docname="kdenlive-split-audio.svg">
  <defs
     id="defs9" />
  <sodipodi:namedview
     pagecolor="#ffffff"
     bordercolor="#666666"
     borderopacity="1"
     objecttolerance="10"
     gridtolerance="10"
     guidetolerance="10"
     inkscape:pageopacity="0"
     inkscape:pageshadow="2"
     inkscape:window-width="640"
     inkscape:window-height="480"
     id="namedview7"
     showgrid="false"
     inkscape:zoom="4.9166667"
     inkscape:cx="24"
     inkscape:cy="24"
     inkscape:window-x="0"
     inkscape:window-y="30"
     inkscape:window-maximized="0"
     inkscape:current-layer="svg2" />
  <metadata
     id="metadata7">
    <rdf:RDF>
      <cc:Work
         rdf:about="">
        <dc:format>image/svg+xml</dc:format>
        <dc:type
           rdf:resource="http://purl.org/dc/dcmitype/StillImage" />
        <dc:title />
      </cc:Work>
    </rdf:RDF>
  </metadata>
  <g
     id="layer1"
     transform="translate(0 -1004.4)"
     style="fill:#4d4d4d">
    <path
       id="rect3249"
       style="fill:#4d4d4d"
       d="m8 25.5v4h4v-4zm6 0v6l10 8.5v-14.5zm13.705 0c-0.30395 0.7472-0.82536 1.3835-1.4883 1.8262l2.221 3.328c1.749-1.168 2.997-3.012 3.406-5.154zm8.1992 0c-0.44132 3.5368-2.4199 6.595-5.248 8.4844l2.2168 3.3262c3.903-2.607 6.59-6.884 7.049-11.81z"
       transform="translate(0 1004.4)" />
    <path
       id="path48"
       style="fill:#4d4d4d"
       d="m23.998 9c-7.777 0-14.172 5.92-14.924 13.5h2.9688c0.55115-1.6955 2.1254-2.9297 4.0059-2.9297 1.8792 0 3.4539 1.2343 4.0059 2.9297h7.8906c0.55151-1.6953 2.126-2.9297 4.0039-2.9297 1.8792 0 3.4539 1.2343 4.0059 2.9297h2.9707c-0.753-7.58-7.149-13.5-14.929-13.5zm0 2.6211c2.3378 0 4.2324 1.8928 4.2324 4.2305 0 2.3348-1.8947 4.2305-4.2324 4.2305-2.3333 0-4.2305-1.8957-4.2305-4.2305 0-2.3377 1.8972-4.2305 4.2305-4.2305z"
       transform="translate(0 1004.4)" />
  </g>
</svg>
