<svg height="48" width="48" xmlns="http://www.w3.org/2000/svg" xmlns:sodipodi="http://sodipodi.sourceforge.net/DTD/sodipodi-0.dtd" xmlns:inkscape="http://www.inkscape.org/namespaces/inkscape">
 <path d="m9 9v30h30v-30h-30zm7.355 12.5h4.981c0.12 0 0.194 0.053 0.221 0.16l4.379 13.039c0.026 0.067 0.02 0.134-0.02 0.201s-0.106 0.1-0.199 0.1h-4.061c-0.04 0-0.087-0.012-0.14-0.039-0.04-0.04-0.067-0.088-0.08-0.141l-0.94-3h-3.4c-0.12 0.507-0.254 1.013-0.401 1.52-0.133 0.493-0.259 0.987-0.379 1.48-0.026 0.12-0.106 0.18-0.24 0.18h-3.84c-0.093 0-0.161-0.033-0.201-0.1-0.04-0.066-0.046-0.134-0.019-0.201l4.121-13.039c0.026-0.107 0.098-0.16 0.218-0.16zm2.34 3.48c-0.013 0.067-0.032 0.148-0.058 0.241-0.014 0.093-0.028 0.173-0.041 0.24-0.054 0.227-0.107 0.445-0.16 0.658-0.054 0.2-0.113 0.394-0.18 0.58h0.019c-0.093 0.387-0.179 0.72-0.259 1s-0.173 0.614-0.28 1h2.1c-0.107-0.333-0.208-0.666-0.301-1-0.093-0.346-0.192-0.68-0.299-1-0.066-0.213-0.147-0.439-0.24-0.679-0.08-0.24-0.154-0.473-0.221-0.7l0.022 0.02c-0.027-0.093-0.047-0.147-0.061-0.16 0-0.027 0.007-0.039 0.02-0.039l-0.02-0.022c0-0.026-0.014-0.072-0.041-0.139zm11.049 7.02a1.5 1.5 0 0 1 1.5 1.5 1.5 1.5 0 0 1 -1.5 1.5 1.5 1.5 0 0 1 -1.5 -1.5 1.5 1.5 0 0 1 1.5 -1.5zm4.756 0a1.5 1.5 0 0 1 1.5 1.5 1.5 1.5 0 0 1 -1.5 1.5 1.5 1.5 0 0 1 -1.5 -1.5 1.5 1.5 0 0 1 1.5 -1.5z" fill="#4d4d4d" transform="matrix(1 0 0 1 0 0)"/>
</svg>
