<svg height="22" width="22" xmlns="http://www.w3.org/2000/svg" xmlns:sodipodi="http://sodipodi.sourceforge.net/DTD/sodipodi-0.dtd" xmlns:inkscape="http://www.inkscape.org/namespaces/inkscape">
 <path d="m18.272 14.163-1.272-1.163-1-1-2-2-4 4-1-1-4.8516 4.852-0.1484 0.148v-14h14v15h1v-15-1h-15-1v1 15h1 14.2m-11.2-14c-1.108 0-2 0.892-2 2s0.892 2 2 2 2-0.892 2-2-0.892-2-2-2z" fill="#4d4d4d" transform="matrix(0.75224 0 0 0.74884 2.725 2.767)"/>
 <path d="m3 3v1 3h1v-3h3v-1h-3zm12 0v1h3v3h1v-4zm-12 12v4h1 3v-1h-3v-3zm15 0v3h-3v1h4v-1-3z" fill="#4d4d4d" transform="matrix(1 0 0 1 0 0)"/>
</svg>
