<svg height="22" width="22" xmlns="http://www.w3.org/2000/svg" xmlns:sodipodi="http://sodipodi.sourceforge.net/DTD/sodipodi-0.dtd" xmlns:inkscape="http://www.inkscape.org/namespaces/inkscape">
 <path d="m3 3v1 3h1v-3h3v-1h-3zm12 0v1h3v3h1v-4zm-12 12v4h1 3v-1h-3v-3zm15 0v3h-3v1h4v-1-3z" fill="#4d4d4d" transform="matrix(1 0 0 1 0 0)"/>
 <path d="m4 4v16h16v-16h-16zm1 1h14v14h-14v-14z" fill="#4d4d4d" transform="matrix(0.75 0 0 0.75 2.01 2)"/>
 <path d="m570.29 610.65v1h-10v-1h10zm-11 0v5h-5v-5h5zm9 3v1h-8v-1h8zm-2 3v1h-12v-1h12zm0 3v1h-12v-1h12zm-4 3v1h-8v-1h8zm2 3v1h-10v-1h10z" fill="#4d4d4d" transform="matrix(0.56817 0 0 0.5784 -308.47 -346.83)"/>
</svg>
