<?xml version="1.0" encoding="UTF-8" standalone="no"?>
<!-- Created with Inkscape (http://www.inkscape.org/) -->

<svg
   xmlns:dc="http://purl.org/dc/elements/1.1/"
   xmlns:cc="http://creativecommons.org/ns#"
   xmlns:rdf="http://www.w3.org/1999/02/22-rdf-syntax-ns#"
   xmlns:svg="http://www.w3.org/2000/svg"
   xmlns="http://www.w3.org/2000/svg"
   xmlns:sodipodi="http://sodipodi.sourceforge.net/DTD/sodipodi-0.dtd"
   xmlns:inkscape="http://www.inkscape.org/namespaces/inkscape"
   id="svg3815"
   height="22"
   width="22"
   version="1.1"
   inkscape:version="0.48.5 r10040"
   sodipodi:docname="kdenlive-select-texts.svg">
  <defs
     id="defs9881" />
  <sodipodi:namedview
     pagecolor="#ffffff"
     bordercolor="#666666"
     borderopacity="1"
     objecttolerance="10"
     gridtolerance="10"
     guidetolerance="10"
     inkscape:pageopacity="0"
     inkscape:pageshadow="2"
     inkscape:window-width="640"
     inkscape:window-height="480"
     id="namedview9879" />
  <metadata
     id="metadata3820">
    <rdf:RDF>
      <cc:Work
         rdf:about="">
        <dc:format>image/svg+xml</dc:format>
        <dc:type
           rdf:resource="http://purl.org/dc/dcmitype/StillImage" />
        <dc:title />
      </cc:Work>
    </rdf:RDF>
  </metadata>
  <g
     id="layer1"
     transform="translate(-461.71 -525.79)">
    <path
       id="rect4108"
       style="fill:#4d4d4d"
       d="m3 3v1 3h1v-3h3v-1h-3zm12 0v1h3v3h1v-4zm-12 12v4h1 3v-1h-3v-3zm15 0v3h-3v1h4v-1-3z"
       transform="translate(461.71 525.79)" />
    <g
       id="layer1-0"
       transform="matrix(.75 0 0 .75 51 72.805)">
      <path
         id="rect4112-3"
         d="m4 4v16h16v-16h-16zm1 1h14v14h-14v-14z"
         style="fill:#4d4d4d"
         transform="translate(550.29 606.65)" />
    </g>
    <g
       id="layer1-8"
       transform="matrix(.56817 0 0 .57840 153.24 178.96)">
      <path
         id="rect4110"
         d="m570.29 610.65v1h-10v-1h10zm-11 0v5h-5v-5h5zm9 3v1h-8v-1h8zm-2 3v1h-12v-1h12zm0 3v1h-12v-1h12zm-4 3v1h-8v-1h8zm2 3v1h-10v-1h10z"
         style="fill:#4d4d4d" />
    </g>
  </g>
</svg>
