<svg height="22" width="22" xmlns="http://www.w3.org/2000/svg" xmlns:sodipodi="http://sodipodi.sourceforge.net/DTD/sodipodi-0.dtd" xmlns:inkscape="http://www.inkscape.org/namespaces/inkscape">
 <path d="M 48,72 C 62.352,72 74,60.352 74,46 74,31.648 62.352,20 48,20 33.648,20 22,31.648 22,46 22,60.352 33.648,72 48,72 z m 0,-9.2857 c -9.2263,0 -16.714,-7.488 -16.714,-16.714 0,-2.4934 0.55767,-4.8528 1.5379,-6.9788 l 22.169,22.155 c -2.129,0.984 -4.495,1.538 -6.993,1.538 z m 14.973,-9.314 -22.387,-22.373 c 2.2358,-1.1102 4.75,-1.7411 7.4141,-1.7411 9.2263,0 16.714,7.488 16.714,16.714 0,2.6595 -0.63445,5.1666 -1.7411,7.3996 z" fill="#ff0000" opacity="9223372036.85" inkscape:connector-curvature="0" transform="matrix(0.26923 0 0 0.26923 -1.92 -1.38)"/>
</svg>
