<svg height="16" width="16" xmlns="http://www.w3.org/2000/svg" xmlns:sodipodi="http://sodipodi.sourceforge.net/DTD/sodipodi-0.dtd" xmlns:inkscape="http://www.inkscape.org/namespaces/inkscape">
 <path d="m6.4825 1050.9c-1.0906-0.1665-2.0755-0.8504-2.5829-1.7936-0.14896-0.2769-0.23463-0.4977-0.32198-0.8295l-0.071972-0.2735-0.010484-1.5517-0.010484-1.5518h4.5154 4.5154l-0.01048 1.5518-0.01048 1.5517-0.07197 0.2735c-0.03958 0.1504-0.10286 0.3514-0.1406 0.4466-0.4582 1.1565-1.523 1.9894-2.7824 2.1764-0.38986 0.058-2.6382 0.058-3.0171 0.0001zm-2.9874-8.2081 0.00982-1.9346 0.072331-0.2735c0.19711-0.7451 0.56434-1.3396 1.113-1.8016 0.69458-0.585 1.4895-0.8644 2.4588-0.8644h0.3588v0.9818 0.9818l-0.14567 0.082c-0.1718 0.097-0.3684 0.3065-0.45933 0.4895l-0.064921 0.1307v1.2168 1.2169l0.064921 0.1307c0.090929 0.183 0.28754 0.3926 0.45933 0.4895l0.14567 0.082v0.5033 0.5033h-2.0113-2.0113l0.00982-1.9346zm4.9971 1.4313v-0.5033l0.14567-0.082c0.1718-0.097 0.3684-0.3065 0.45933-0.4895l0.064921-0.1307v-1.2169-1.2168l-0.064921-0.1307c-0.090929-0.183-0.28754-0.3926-0.45933-0.4895l-0.14567-0.082v-0.9818-0.9818h0.3588c0.96938 0 1.7643 0.2794 2.4588 0.8644 0.54864 0.462 0.91587 1.0565 1.113 1.8016l0.07233 0.2735 0.0098 1.9346 0.0098 1.9346h-2.0113-2.0113v-0.5033zm-0.6365-1.0035c-0.24678-0.038-0.46001-0.2086-0.5778-0.462-0.05416-0.1165-0.057199-0.1681-0.057199-0.9707 0-0.8042 0.00295-0.8541 0.057577-0.9721 0.14048-0.3036 0.39429-0.4683 0.72173-0.4683s0.58125 0.1647 0.72173 0.4683c0.054626 0.118 0.057577 0.1679 0.057577 0.9721s-0.00295 0.854-0.057577 0.9721c-0.15903 0.3437-0.48849 0.5189-0.86603 0.4606z" fill="#4d4d4d" transform="matrix(1 0 0 1 0 -1036.4)"/>
</svg>
