<?xml version="1.0" encoding="UTF-8" standalone="no"?>
<!-- Created with Inkscape (http://www.inkscape.org/) -->

<svg
   xmlns:dc="http://purl.org/dc/elements/1.1/"
   xmlns:cc="http://creativecommons.org/ns#"
   xmlns:rdf="http://www.w3.org/1999/02/22-rdf-syntax-ns#"
   xmlns:svg="http://www.w3.org/2000/svg"
   xmlns="http://www.w3.org/2000/svg"
   xmlns:sodipodi="http://sodipodi.sourceforge.net/DTD/sodipodi-0.dtd"
   xmlns:inkscape="http://www.inkscape.org/namespaces/inkscape"
   id="svg3813"
   height="22"
   width="22"
   version="1.1"
   inkscape:version="0.48.5 r10040"
   sodipodi:docname="knotes_alarm.svg">
  <defs
     id="defs8" />
  <sodipodi:namedview
     pagecolor="#ffffff"
     bordercolor="#666666"
     borderopacity="1"
     objecttolerance="10"
     gridtolerance="10"
     guidetolerance="10"
     inkscape:pageopacity="0"
     inkscape:pageshadow="2"
     inkscape:window-width="1360"
     inkscape:window-height="707"
     id="namedview6"
     showgrid="false"
     inkscape:zoom="15.170655"
     inkscape:cx="4.1874983"
     inkscape:cy="11.840631"
     inkscape:window-x="-2"
     inkscape:window-y="33"
     inkscape:window-maximized="1"
     inkscape:current-layer="svg3813" />
  <metadata
     id="metadata3818">
    <rdf:RDF>
      <cc:Work
         rdf:about="">
        <dc:format>image/svg+xml</dc:format>
        <dc:type
           rdf:resource="http://purl.org/dc/dcmitype/StillImage" />
        <dc:title />
      </cc:Work>
    </rdf:RDF>
  </metadata>
  <path
     style="fill:#4d4d4d;fill-opacity:1"
     d="m 11.018302,5.1543687 c -0.275225,-6.954e-4 -0.546827,0.010504 -0.82021,0.043451 C 8.3750759,5.4016989 6.6563944,6.3787639 5.5321317,7.8266782 4.577864,9.0337795 4.0577966,10.564641 4.0546677,12.101283 c 0.00573,1.333809 0.396134,2.668877 1.129825,3.785772 0.8781357,1.349972 2.2326656,2.382614 3.775138,2.85155 1.3771693,0.426005 2.8872673,0.407668 4.2531393,-0.05432 1.389164,-0.461984 2.621456,-1.380041 3.465523,-2.574542 0.767585,-1.075702 1.200221,-2.374227 1.260189,-3.693435 0.05006,-1.130967 -0.174601,-2.274931 -0.662687,-3.2969246 C 16.66934,7.845539 15.66623,6.7650572 14.440369,6.0668673 13.405309,5.4745962 12.21105,5.1573604 11.018302,5.1543712 z m -0.35307,0.7767078 c 0.02764,0.2122207 -0.0206,0.4279601 0.0326,0.6354884 0.09542,0.2627983 0.513984,0.263841 0.608367,0 0.05215,-0.2054421 0.01256,-0.4199218 0.02715,-0.6300572 0.875528,0.0511 1.742017,0.2841344 2.52038,0.6898035 -0.103771,0.1428707 -0.168518,0.3663888 0.01087,0.4779743 0.188246,0.1225347 0.390486,-0.03767 0.46714,-0.2118292 0.748813,0.489619 1.386426,1.1348404 1.873988,1.8847383 -0.106898,0.072474 -0.26038,0.1521262 -0.239,0.3095969 -0.01825,0.1267056 0.07926,0.2338153 0.195546,0.2661433 0.116807,0.02503 0.218794,-0.05344 0.320479,-0.09777 0.40778,0.7737972 0.620187,1.6411012 0.695277,2.5093622 -0.198675,0.03285 -0.398306,-0.0083 -0.597503,0.0163 -0.227878,0.05318 -0.32878,0.368256 -0.162957,0.53772 0.193984,0.213783 0.531845,0.03567 0.755029,0.135789 -0.05632,0.865566 -0.290931,1.715927 -0.689846,2.487637 -0.118892,-0.06205 -0.273157,-0.15078 -0.401957,-0.05432 -0.130364,0.06831 -0.143227,0.240855 -0.08691,0.363911 0.05684,0.0756 0.137795,0.116974 0.211842,0.173808 -0.49017,0.746161 -1.128304,1.388644 -1.873988,1.879307 -0.07926,-0.101157 -0.148268,-0.26319 -0.304184,-0.244418 -0.130365,-0.02086 -0.244693,0.08542 -0.277024,0.206397 -0.02764,0.1168 0.0524,0.208962 0.09777,0.309597 -0.779058,0.404105 -1.640463,0.631925 -2.514948,0.689803 -0.01668,-0.209612 0.02468,-0.419183 -0.02173,-0.624625 -0.08657,-0.250285 -0.471615,-0.279136 -0.592072,-0.04345 -0.09334,0.21222 -0.0069,0.455248 -0.05432,0.678939 -0.8687519,-0.07665 -1.7350675,-0.291865 -2.5095189,-0.700663 0.061536,-0.119928 0.154656,-0.267709 0.059748,-0.396501 -0.068316,-0.129836 -0.2354392,-0.143957 -0.3585027,-0.09234 -0.07718,0.05579 -0.1195882,0.141655 -0.1738191,0.217261 -0.7493353,-0.487011 -1.394074,-1.133144 -1.8848529,-1.879305 0.1001195,-0.07978 0.2611202,-0.143349 0.2444331,-0.298734 0.020333,-0.127749 -0.078743,-0.236641 -0.1955466,-0.271576 -0.1183711,-0.03077 -0.2242266,0.04102 -0.3259115,0.0869 -0.3968293,-0.779531 -0.6529949,-1.636713 -0.6681175,-2.514795 0.2038898,-0.0099 0.4195128,0.0229 0.6192311,-0.02716 C 5.7398821,12.306149 5.7349718,11.887837 5.466904,11.79711 5.2676995,11.75176 5.0564659,11.78478 4.853097,11.77539 4.869783,10.898874 5.1222999,10.032439 5.5212146,9.2551671 5.6708735,9.3646668 5.9218682,9.4147668 6.0209451,9.2171471 6.1179367,9.0263099 5.963542,8.8522841 5.7982396,8.777199 6.2858027,8.026866 6.9331485,7.3811239 7.6830925,6.8924607 7.7566175,6.9972666 7.8269712,7.16056 7.9818443,7.1423103 8.1487102,7.1683813 8.2899383,6.9868382 8.2534362,6.8272821 8.2278861,6.7553285 8.1900774,6.6946229 8.1556633,6.6263155 8.9305497,6.2164749 9.793736,5.9967801 10.665178,5.9310808 z m 0.315047,2.0748416 c -0.109058,0.01357 -0.208691,0.1102598 -0.206411,0.2226926 -8.68e-4,1.1332321 0.0018,2.2673333 0,3.4001303 -0.07735,0.05736 -0.147746,0.125359 -0.20641,0.200967 -0.664424,-0.0035 -1.329065,0.0018 -1.9934894,0 -0.1055952,0.0013 -0.2309619,0.0098 -0.2987518,0.103199 -0.049104,0.08387 -0.088648,0.191623 -0.032591,0.282439 0.047368,0.10863 0.172081,0.149909 0.2824563,0.152082 0.6805029,0.0022 1.3618738,6.52e-4 2.0423759,0.0054 0.08778,0.169028 0.298752,0.255065 0.483435,0.238987 0.273765,-0.01435 0.495603,-0.28157 0.461707,-0.554015 -0.0013,-0.179892 -0.137317,-0.313725 -0.271592,-0.412797 -0.0061,-1.137578 -0.0025,-2.2788462 -0.0054,-3.4164245 0.0013,-0.089512 -0.06583,-0.1733746 -0.14666,-0.2063979 -0.03466,-0.017051 -0.07228,-0.020819 -0.108636,-0.016295 z"
     id="path3382"
     inkscape:connector-curvature="0" />
  <path
     inkscape:connector-curvature="0"
     d="m 6.8739696,2.9454279 c -1.6645,0.8562 -3.0208,2.2125 -3.877,3.877 l 0,0.123 0.9219,0.3066 c 0.7546,-1.4499 1.9348,-2.6301 3.3847,-3.3847 l -0.3066,-0.9219 z m 8.1289004,0 -0.30664,0.92188 c 1.4499,0.75461 2.6302,1.9349 3.3848,3.3848 l 0.922,-0.3067 0,-0.12305 c -0.856,-1.6645 -2.213,-3.0208 -3.877,-3.877 z"
     style="fill:#4d4d4d"
     id="rect4144"
     sodipodi:nodetypes="cccccccccccccc" />
</svg>
