<?xml version="1.0" encoding="UTF-8" standalone="no"?>
<!-- Created with Inkscape (http://www.inkscape.org/) -->

<svg
   xmlns:dc="http://purl.org/dc/elements/1.1/"
   xmlns:cc="http://creativecommons.org/ns#"
   xmlns:rdf="http://www.w3.org/1999/02/22-rdf-syntax-ns#"
   xmlns:svg="http://www.w3.org/2000/svg"
   xmlns="http://www.w3.org/2000/svg"
   xmlns:sodipodi="http://sodipodi.sourceforge.net/DTD/sodipodi-0.dtd"
   xmlns:inkscape="http://www.inkscape.org/namespaces/inkscape"
   id="svg3815"
   height="22"
   width="22"
   version="1.1"
   inkscape:version="0.48.5 r10040"
   sodipodi:docname="kt-upnp.svg">
  <sodipodi:namedview
     pagecolor="#ffffff"
     bordercolor="#666666"
     borderopacity="1"
     objecttolerance="10"
     gridtolerance="10"
     guidetolerance="10"
     inkscape:pageopacity="0"
     inkscape:pageshadow="2"
     inkscape:window-width="640"
     inkscape:window-height="480"
     id="namedview11059" />
  <defs
     id="defs3817">
    <filter
       id="filter3174"
       color-interpolation-filters="sRGB">
      <feGaussianBlur
         id="feGaussianBlur3176"
         stdDeviation="1.71" />
    </filter>
    <filter
       id="filter3794"
       height="1.384"
       width="1.384"
       color-interpolation-filters="sRGB"
       y="-.192"
       x="-.192">
      <feGaussianBlur
         id="feGaussianBlur3796"
         stdDeviation="5.28" />
    </filter>
    <clipPath
       id="clipPath4355">
      <rect
         id="rect4357"
         style="fill:#fff"
         rx="6"
         ry="6"
         height="80"
         width="84"
         y="6"
         x="6" />
    </clipPath>
  </defs>
  <metadata
     id="metadata3820">
    <rdf:RDF>
      <cc:Work
         rdf:about="">
        <dc:format>image/svg+xml</dc:format>
        <dc:type
           rdf:resource="http://purl.org/dc/dcmitype/StillImage" />
        <dc:title />
      </cc:Work>
    </rdf:RDF>
  </metadata>
  <g
     id="layer1"
     transform="translate(-461.71 -525.79)">
    <rect
       id="rect3745"
       style="opacity:.9;filter:url(#filter3174);display:none;fill:#4d4d4d"
       transform="matrix(.36331 0 0 .36331 536.21 442.45)"
       rx="6"
       ry="6"
       height="85"
       width="86"
       y="7"
       x="5" />
    <rect
       id="rect3171"
       style="opacity:.1;filter:url(#filter3794);stroke:#fff;stroke-linecap:round;stroke-width:.5;display:none;fill:#4d4d4d"
       transform="matrix(.36331 0 0 .36331 536.21 442.45)"
       clip-path="url(#clipPath4355)"
       rx="12"
       ry="12"
       height="62"
       width="66"
       y="15"
       x="15" />
    <path
       id="rect2987"
       style="color:#000000;fill-rule:evenodd;fill:#4d4d4d"
       d="m3 5.3125v6.4995h7.5v-6.4995h-7.5zm8.5 0v6.4995h7.5v-6.4995h-7.5zm-7.75 0.75h6v4.9995h-6v-4.9995zm8.5 0h6v4.9995h-6v-4.9995zm-8.5 6.4375v2h2.5v3h1v-3h2.5v-2h-6zm8.5 0v2h2.5v3h1v-3h2.5v-2h-6zm-7.25 5.5v1h12v-1h-12z"
       transform="translate(461.71 525.79)" />
  </g>
</svg>
