<svg height="48" width="48" xmlns="http://www.w3.org/2000/svg" xmlns:sodipodi="http://sodipodi.sourceforge.net/DTD/sodipodi-0.dtd" xmlns:inkscape="http://www.inkscape.org/namespaces/inkscape">
 <path d="m769.03 693.06c2.303-5.186 6.336-10.206 12.096-10.206 3.366 0 6.469 1.638 9.305 4.913 2.701 3.107 4.057 6.23 4.057 9.374 0 4.696-1.289 9.612-3.856 14.756-2.217 4.429-5.407 9.101-9.572 14.02-3.146 3.722-7.199 7.952-12.159 12.693-4.301-4.122-8.153-8.216-11.564-12.294-4.168-5.007-7.4-9.682-9.705-14.025-2.7-5.137-4.055-9.744-4.055-13.818 0-3.9 1.195-7.422 3.592-10.566 2.614-3.461 5.801-5.187 9.57-5.187 5.932 0 10.031 5.067 12.291 10.34z" fill="#4d4d4d" transform="matrix(0.68773 0 0 0.53677 -504.89 -357.5)"/>
</svg>
