<?xml version="1.0" encoding="UTF-8" standalone="no"?>
<!-- Created with Inkscape (http://www.inkscape.org/) -->

<svg
   xmlns:dc="http://purl.org/dc/elements/1.1/"
   xmlns:cc="http://creativecommons.org/ns#"
   xmlns:rdf="http://www.w3.org/1999/02/22-rdf-syntax-ns#"
   xmlns:svg="http://www.w3.org/2000/svg"
   xmlns="http://www.w3.org/2000/svg"
   xmlns:sodipodi="http://sodipodi.sourceforge.net/DTD/sodipodi-0.dtd"
   xmlns:inkscape="http://www.inkscape.org/namespaces/inkscape"
   id="svg2"
   height="48"
   width="48"
   version="1.1"
   inkscape:version="0.48.5 r10040"
   sodipodi:docname="love-amarok.svg">
  <defs
     id="defs10" />
  <sodipodi:namedview
     pagecolor="#ffffff"
     bordercolor="#666666"
     borderopacity="1"
     objecttolerance="10"
     gridtolerance="10"
     guidetolerance="10"
     inkscape:pageopacity="0"
     inkscape:pageshadow="2"
     inkscape:window-width="640"
     inkscape:window-height="480"
     id="namedview8"
     showgrid="false"
     inkscape:zoom="4.9166667"
     inkscape:cx="24"
     inkscape:cy="24"
     inkscape:window-x="0"
     inkscape:window-y="30"
     inkscape:window-maximized="0"
     inkscape:current-layer="svg2" />
  <metadata
     id="metadata7">
    <rdf:RDF>
      <cc:Work
         rdf:about="">
        <dc:format>image/svg+xml</dc:format>
        <dc:type
           rdf:resource="http://purl.org/dc/dcmitype/StillImage" />
        <dc:title />
      </cc:Work>
    </rdf:RDF>
  </metadata>
  <g
     id="layer1"
     transform="translate(0 -1004.4)"
     style="fill:#4d4d4d">
    <g
       id="_x33__rating_favorite"
       style="fill:#4d4d4d"
       transform="matrix(.68773 0 0 .53677 -504.89 646.9)">
      <g
         id="g1092"
         style="fill:#4d4d4d">
        <path
           id="path1094"
           style="fill:#4d4d4d"
           d="m769.03 693.06c2.303-5.186 6.336-10.206 12.096-10.206 3.366 0 6.469 1.638 9.305 4.913 2.701 3.107 4.057 6.23 4.057 9.374 0 4.696-1.289 9.612-3.856 14.756-2.217 4.429-5.407 9.101-9.572 14.02-3.146 3.722-7.199 7.952-12.159 12.693-4.301-4.122-8.153-8.216-11.564-12.294-4.168-5.007-7.4-9.682-9.705-14.025-2.7-5.137-4.055-9.744-4.055-13.818 0-3.9 1.195-7.422 3.592-10.566 2.614-3.461 5.801-5.187 9.57-5.187 5.932 0 10.031 5.067 12.291 10.34z" />
      </g>
    </g>
  </g>
</svg>
