<?xml version="1.0" encoding="UTF-8" standalone="no"?>
<!-- Created with Inkscape (http://www.inkscape.org/) -->

<svg
   xmlns:dc="http://purl.org/dc/elements/1.1/"
   xmlns:cc="http://creativecommons.org/ns#"
   xmlns:rdf="http://www.w3.org/1999/02/22-rdf-syntax-ns#"
   xmlns:svg="http://www.w3.org/2000/svg"
   xmlns="http://www.w3.org/2000/svg"
   xmlns:sodipodi="http://sodipodi.sourceforge.net/DTD/sodipodi-0.dtd"
   xmlns:inkscape="http://www.inkscape.org/namespaces/inkscape"
   id="svg3869"
   height="22"
   width="22"
   version="1.1"
   inkscape:version="0.48.5 r10040"
   sodipodi:docname="mail-send-receive.svg">
  <defs
     id="defs11989" />
  <sodipodi:namedview
     pagecolor="#ffffff"
     bordercolor="#666666"
     borderopacity="1"
     objecttolerance="10"
     gridtolerance="10"
     guidetolerance="10"
     inkscape:pageopacity="0"
     inkscape:pageshadow="2"
     inkscape:window-width="640"
     inkscape:window-height="480"
     id="namedview11987" />
  <metadata
     id="metadata3874">
    <rdf:RDF>
      <cc:Work
         rdf:about="">
        <dc:format>image/svg+xml</dc:format>
        <dc:type
           rdf:resource="http://purl.org/dc/dcmitype/StillImage" />
        <dc:title />
      </cc:Work>
    </rdf:RDF>
  </metadata>
  <g
     id="layer1"
     transform="translate(-326 -534.36)">
    <g
       id="g3076"
       transform="translate(28,-7)">
      <g
         id="g3071"
         transform="matrix(.75 0 0 .75 76.061 138.97)">
        <g
           id="layer1-7"
           transform="translate(-24.051 3.722)">
          <path
             id="rect4170-1"
             style="fill:#4d4d4d"
             d="m332.76 541.02-0.70703-0.70703 4.9492-4.9492 4.9492 4.9492-0.70703 0.70703l-2.24-0.66 0.00001 2.5 0.00001 4.5v1h-4-0.00002v-1-4.5-2.5z" />
        </g>
        <path
           id="rect4170-6"
           style="fill:#4d4d4d"
           d="m310.22 553.5 0.00001-2.5 0.00001-4.5v-1h-4-0.00002v1 4.5 2.5l-2.2422-0.65625-0.70703 0.70703 4.9492 4.9492 4.9492-4.9492-0.70703-0.70703z" />
      </g>
      <path
         id="rect4170-60"
         style="fill:#4d4d4d"
         d="m311 551.36h2.4688l3.4648 6h-2.9336l-1 2h-8l-1-2h-2.9336l3.4648-6h2.4688v-1h-1.8906-1.1543l-3.9551 6.8496v1.4609 2.6894h4 10 4v-2.6894-1.4609l-3.9551-6.8496h-0.0449-3z" />
    </g>
  </g>
</svg>
