<?xml version="1.0" encoding="UTF-8" standalone="no"?>
<!-- Created with Inkscape (http://www.inkscape.org/) -->

<svg
   xmlns:dc="http://purl.org/dc/elements/1.1/"
   xmlns:cc="http://creativecommons.org/ns#"
   xmlns:rdf="http://www.w3.org/1999/02/22-rdf-syntax-ns#"
   xmlns:svg="http://www.w3.org/2000/svg"
   xmlns="http://www.w3.org/2000/svg"
   xmlns:sodipodi="http://sodipodi.sourceforge.net/DTD/sodipodi-0.dtd"
   xmlns:inkscape="http://www.inkscape.org/namespaces/inkscape"
   id="svg3869"
   height="22"
   width="22"
   version="1.1"
   inkscape:version="0.48.5 r10040"
   sodipodi:docname="mail-queue.svg">
  <defs
     id="defs11723" />
  <sodipodi:namedview
     pagecolor="#ffffff"
     bordercolor="#666666"
     borderopacity="1"
     objecttolerance="10"
     gridtolerance="10"
     guidetolerance="10"
     inkscape:pageopacity="0"
     inkscape:pageshadow="2"
     inkscape:window-width="640"
     inkscape:window-height="480"
     id="namedview11721" />
  <metadata
     id="metadata3874">
    <rdf:RDF>
      <cc:Work
         rdf:about="">
        <dc:format>image/svg+xml</dc:format>
        <dc:type
           rdf:resource="http://purl.org/dc/dcmitype/StillImage" />
        <dc:title />
      </cc:Work>
    </rdf:RDF>
  </metadata>
  <g
     id="layer1"
     transform="translate(-326 -534.36)">
    <path
       id="rect4144"
       style="fill:#4d4d4d"
       d="m1 3v1 8 6 0.414 0.586h1 6 6v-1h-6-6v-0.586l0.4629-0.463 6.2676-6.267 1.4535 1.451 0.814 0.814h0.002l0.816-0.814 1.454-1.451 1.316 1.316h1.414l-2.023-2.0234 5.752-5.7539 0.222-0.2227h0.049v0.2227 7.7773h1v-9h-0.049-0.951-0.463-17.074-0.463-1zm1 1h0.0488l0.2227 0.2227 5.7519 5.7539-6.0234 6.0234v-4-7.7773-0.2227zm1.4629 0h15.074l-7.537 7.537-7.5371-7.537z"
       transform="translate(326 534.36)" />
    <path
       id="rect4635"
       style="fill:#4d4d4d"
       d="m344 547.36c-1.662 0-3 1.338-3 3s1.338 3 3 3 3-1.338 3-3-1.338-3-3-3zm0 1c1.108 0 2 0.892 2 2s-0.892 2-2 2-2-0.892-2-2 0.892-2 2-2z" />
    <path
       id="rect4640"
       style="fill:#4d4d4d"
       d="m17 15v1 1h2v-1h-1v-1h-1z"
       transform="translate(326 534.36)" />
  </g>
</svg>
