<svg height="22" width="22" xmlns="http://www.w3.org/2000/svg" xmlns:sodipodi="http://sodipodi.sourceforge.net/DTD/sodipodi-0.dtd" xmlns:inkscape="http://www.inkscape.org/namespaces/inkscape">
 <g transform="matrix(1 0 0 1 -326 -534.36)">
  <path d="m18.5 12c-0.831 0-1.5 0.669-1.5 1.5s0.669 1.5 1.5 1.5 1.5-0.669 1.5-1.5-0.669-1.5-1.5-1.5zm-0.5 4c-1.108 0-2 0.892-2 2v1h5v-1c0-1.108-0.892-2-2-2h-1z" fill="#4d4d4d" transform="matrix(1 0 0 1 326 534.36)"/>
  <path d="m328.9 537.36v1 1 1l-2 3v1 1.4004 0.59961 6 0.41406 0.58594h1 6 6v-1h-12v-0.58594-1.4141-4-1-0.59961-0.40039h0.40039 0.59961 1.0781l6.9219 3.9961 6.9219-3.9961h0.0781 1 1v0.40039 0.59961 1h1v-0.59961-1.4141-0.98633l-2-4v-2h-15-1zm1 1h14v1 3.7988l-7 4.041-7-4.041v-3.7988-1zm1 1v0.98633l-0.0137 0.0137h0.0137 12 0.0137l-0.0137-0.0137v-0.98633h-12zm0 2v1h7v-1h-7z" fill="#4d4d4d"/>
 </g>
</svg>
