<svg height="22" width="22" xmlns="http://www.w3.org/2000/svg" xmlns:sodipodi="http://sodipodi.sourceforge.net/DTD/sodipodi-0.dtd" xmlns:inkscape="http://www.inkscape.org/namespaces/inkscape">
 <g transform="matrix(1 0 0 1 -326 -534.36)">
  <path d="m335 540.36h1v7h2v-7h1l0.00001 2.5 0.00001 4.5v1h-4-0.00002v-1-4.5zm-2.2422 0.65625-0.70703-0.70703 4.9492-4.9492 4.9492 4.9492-0.70703 0.70703l-4.24-4.24z" fill="#4d4d4d"/>
  <path d="m13 9h2.4688l3.4648 6h-2.934l-1 2h-8l-1-2h-2.9336l3.4648-6h2.4688v-1h-1.8906-1.1543l-3.9551 6.85v1.461 2.689h4 10 4v-2.6895-1.4609l-3.955-6.85h-0.045-3zm-6.9492 2.0508c-4.0339 7.2995-2.0169 3.6497 0 0z" fill="#4d4d4d" transform="matrix(1 0 0 1 326 534.36)"/>
 </g>
</svg>
