<?xml version="1.0" encoding="UTF-8" standalone="no"?>
<!-- Created with Inkscape (http://www.inkscape.org/) -->

<svg
   xmlns:dc="http://purl.org/dc/elements/1.1/"
   xmlns:cc="http://creativecommons.org/ns#"
   xmlns:rdf="http://www.w3.org/1999/02/22-rdf-syntax-ns#"
   xmlns:svg="http://www.w3.org/2000/svg"
   xmlns="http://www.w3.org/2000/svg"
   xmlns:sodipodi="http://sodipodi.sourceforge.net/DTD/sodipodi-0.dtd"
   xmlns:inkscape="http://www.inkscape.org/namespaces/inkscape"
   id="svg3869"
   height="22"
   width="22"
   version="1.1"
   inkscape:version="0.48.5 r10040"
   sodipodi:docname="mail-folder-sent.svg">
  <defs
     id="defs11475" />
  <sodipodi:namedview
     pagecolor="#ffffff"
     bordercolor="#666666"
     borderopacity="1"
     objecttolerance="10"
     gridtolerance="10"
     guidetolerance="10"
     inkscape:pageopacity="0"
     inkscape:pageshadow="2"
     inkscape:window-width="640"
     inkscape:window-height="480"
     id="namedview11473" />
  <metadata
     id="metadata3874">
    <rdf:RDF>
      <cc:Work
         rdf:about="">
        <dc:format>image/svg+xml</dc:format>
        <dc:type
           rdf:resource="http://purl.org/dc/dcmitype/StillImage" />
        <dc:title />
      </cc:Work>
    </rdf:RDF>
  </metadata>
  <g
     id="layer1"
     transform="translate(-326 -534.36)">
    <path
       id="rect4144"
       style="fill:#4d4d4d"
       d="m5 3v1h13.531l-7.531 7.531-6-5.9998v1.4063l3.0312 3.0313-3.0312 3.0312v1.406l3.7188-3.718 2.2812 2.25 2.281-2.25 1.344 1.343h1.406l-2.062-2.0622 5.969-5.9688h0.062v8.031h1v-9.031h-0.062-0.938-15zm0 15v1h8.031v-1h-8.031z"
       transform="translate(326 534.36)" />
    <rect
       id="rect4164"
       style="fill:#4d4d4d"
       height="1"
       width="5"
       y="543.36"
       x="325" />
    <rect
       id="rect4166"
       style="fill:#4d4d4d"
       height="1"
       width="3"
       y="546.36"
       x="327" />
    <g
       id="layer1-7">
      <path
         id="rect4166-9"
         style="fill:#27ae60"
         d="m346.29 547.36-4.5918 4.5918-1.1465-1.1465-0.70703 0.70703 1.8457 1.8477 0.006-0.008 0.008 0.008 5.293-5.293-0.70703-0.70703z" />
    </g>
  </g>
</svg>
