<svg viewBox="0 0 16 16" height="16" width="16" xmlns="http://www.w3.org/2000/svg" xmlns:sodipodi="http://sodipodi.sourceforge.net/DTD/sodipodi-0.dtd" xmlns:inkscape="http://www.inkscape.org/namespaces/inkscape">
 <path stroke="none" stroke-dasharray="none" stroke-dashoffset="0" stroke-linecap="butt" stroke-linejoin="miter" color="#000000" stroke-miterlimit="4" stroke-opacity="1" color-interpolation="sRGB" image-rendering="auto" stroke-width="1" color-interpolation-filters="linearRGB" color-rendering="auto" d="M 0 2 L 0 3 L 1 3 L 2 3 L 5 6 L 6 7 L 6.7070312 7.7070312 L 8 9 L 9.2929688 7.7070312 L 14.585938 13 L 10 13 L 6 13 L 5 13 L 5 14 L 6 14 L 10 14 L 15 14 L 16 14 L 16 9 L 16 3 L 16 2 L 15 2 L 8 2 L 5 2 L 1 2 L 0 2 z M 3.4140625 3 L 5 3 L 8 3 L 12.585938 3 L 8 7.5859375 L 5 4.5859375 L 3.4140625 3 z M 14 3 L 15 3 L 15 9 L 15 12 L 10 7 L 11 6 L 14 3 z M 0 6 L 0 7 L 4 7 L 4 6 L 0 6 z M 2 9.0996094 L 2 10.099609 L 4 10.099609 L 4 9.0996094 L 2 9.0996094 z " text-rendering="auto" display="inline" visibility="visible" fill="#bebebe" fill-opacity="1" opacity="1" fill-rule="nonzero" shape-rendering="auto"/>
</svg>
