<svg height="22" width="22" xmlns="http://www.w3.org/2000/svg" xmlns:sodipodi="http://sodipodi.sourceforge.net/DTD/sodipodi-0.dtd" xmlns:inkscape="http://www.inkscape.org/namespaces/inkscape">
 <path d="m1 3v9h1v-7.7773-0.2227h0.0488l0.2227 0.2227 5.7519 5.7539-2.0234 2.0234h1.4141l1.3164-1.316 1.4535 1.451 0.816 0.814h0.002l0.81445-0.81445 1.4531-1.4512 1.316 1.317h1.414l-2.023-2.0234 5.752-5.7539 0.222-0.2227h0.049v0.2227 7.7773h1v-8-1h-1-0.463-17.074-0.463-0.9512zm2.4629 1h15.074l-7.537 7.537zm11.537 10v1h6v-1zm0 2v1h6v-1zm-7 2v1h6v-1zm7 0v1h6v-1z" fill="#4d4d4d" fill-rule="evenodd" transform="matrix(1 0 0 1 0 0)"/>
 <path d="m63.436 65c6.036-15.359-2.888-17.33-17.329-14.442v11.553l-23.107-18.906 23.107-18.641v11.553c8.665 0 15.523-1.4801 21.661 5.3796 6.137 6.859 2.889 13.394-4.332 23.503z" fill="#4d4d4d" transform="matrix(0.12158 0 0 0.12158 -1.78 10.73)"/>
</svg>
