<svg height="22" width="22" xmlns="http://www.w3.org/2000/svg" xmlns:sodipodi="http://sodipodi.sourceforge.net/DTD/sodipodi-0.dtd" xmlns:inkscape="http://www.inkscape.org/namespaces/inkscape">
 <path d="m1 3v1 8 6 0.414 0.586h1 6 6v-1h-6-6v-0.586l0.4629-0.463 6.2676-6.267 1.4535 1.451 0.814 0.814h0.002l0.816-0.814 1.454-1.451 1.316 1.316h1.414l-2.023-2.0234 5.752-5.7539 0.222-0.2227h0.049v0.2227 7.7773h1v-9h-0.049-0.951-0.463-17.074-0.463-1zm1 1h0.0488l0.2227 0.2227 5.7519 5.7539-6.0234 6.0234v-4-7.7773-0.2227zm1.4629 0h15.074l-7.537 7.537-7.5371-7.537z" fill="#4d4d4d" transform="matrix(1 0 0 1 0 0)"/>
 <path d="m18 13c-1.662 0-3 1.338-3 3s1.338 3 3 3 3-1.338 3-3-1.338-3-3-3zm0 1c0.37162 0 0.7142 0.10606 1.0117 0.28125l-2.731 2.731c-0.175-0.298-0.281-0.64-0.281-1.012 0-1.108 0.892-2 2-2zm1.7188 0.98828c0.175 0.298 0.281 0.64 0.281 1.012 0 1.108-0.892 2-2 2-0.37162 0-0.7142-0.10606-1.0117-0.28125z" fill="#da4453" transform="matrix(1 0 0 1 0 0)"/>
</svg>
