<svg height="22" width="22" xmlns="http://www.w3.org/2000/svg" xmlns:sodipodi="http://sodipodi.sourceforge.net/DTD/sodipodi-0.dtd" xmlns:inkscape="http://www.inkscape.org/namespaces/inkscape">
 <path d="m3 3v1 1 1l-2 3v1 1.4 0.6 6 0.414 0.586h1 6 6 6 1v-1-6-0.6-1.4137-0.9863l-2-4v-2h-15-1zm1 1h14v1 3.7988l-7 4.0412-7-4.0412v-3.7988-1zm1 1v0.9863l-0.0137 0.0137h0.0137 12 0.014l-0.014-0.0137v-0.9863h-12zm0 2v1h7v-1h-7zm-3 3h0.4004 0.5996 1.0781l6.9219 3.996 6.922-3.996h0.078 1 1v0.4 0.6 1 6h-6-12v-0.586-1.414-4-1-0.6-0.4z" fill="#4d4d4d" transform="matrix(1 0 0 1 0 0)"/>
</svg>
