<svg height="22" width="22" xmlns="http://www.w3.org/2000/svg" xmlns:sodipodi="http://sodipodi.sourceforge.net/DTD/sodipodi-0.dtd" xmlns:inkscape="http://www.inkscape.org/namespaces/inkscape">
 <path d="m3 3v1 1 1l-2 3v1 1.4 0.6h1v-1-0.6-0.4h0.4004 0.5996 1.0781l6.9219 3.996 6.922-3.996h0.078 1 1v0.4 0.6 1 6h-6-7v1h1 6 6 1v-1-6-0.6-1.4137-0.9863l-2-4v-2h-15-1zm1 1h14v1 3.7988l-7 4.0412-7-4.0412v-3.7988-1zm1 1v0.9863l-0.0137 0.0137h0.0137 12 0.014l-0.014-0.0137v-0.9863h-12zm0 2v1h7v-1h-7z" fill="#4d4d4d" transform="matrix(1 0 0 1 0 0)"/>
 <path d="m63.436 65c6.036-15.359-2.888-17.33-17.329-14.442v11.553l-23.107-18.906 23.107-18.641v11.553c8.665 0 15.523-1.4801 21.661 5.3796 6.137 6.859 2.889 13.394-4.332 23.503z" fill="#4d4d4d" transform="matrix(0.12158 0 0 0.12158 -1.78 10.73)"/>
</svg>
