<svg viewBox="0 0 16 16" height="16" width="16" xmlns="http://www.w3.org/2000/svg" xmlns:sodipodi="http://sodipodi.sourceforge.net/DTD/sodipodi-0.dtd" xmlns:inkscape="http://www.inkscape.org/namespaces/inkscape">
 <path stroke="none" stroke-dasharray="none" stroke-dashoffset="0" stroke-linecap="butt" stroke-linejoin="miter" color="#000000" stroke-miterlimit="4" stroke-opacity="1" color-interpolation="sRGB" image-rendering="auto" stroke-width="1" color-interpolation-filters="linearRGB" color-rendering="auto" d="M 6 2 L 6 3 L 6 6 L 5.0410156 6 L 3.8847656 6 L 1 10.996094 L 1 11 L 1 12 L 1 12.380859 L 1 13 L 1 14 L 15 14 L 15 13 L 15 12.380859 L 15 12 L 15 11 L 15 10.996094 L 12.115234 6 L 12 6 L 10 6 L 10 3 L 10 2 L 6 2 z M 7 3 L 9 3 L 9 6 L 9 7 L 9 8 L 11.292969 8 L 8 11.292969 L 4.7070312 8 L 7 8 L 7 7 L 7 6 L 7 3 z M 3.6679688 8.375 L 7.2929688 12 L 5.5898438 12 L 5.0078125 10.990234 L 5 11 L 3.8574219 11 L 2.1542969 11 L 3.6679688 8.375 z M 12.332031 8.375 L 13.845703 11 L 12.142578 11 L 11 11 L 10.992188 10.990234 L 10.410156 12 L 8.7070312 12 L 12.332031 8.375 z M 2 12 L 4.4335938 12 L 5 12.980469 L 5 13 L 2 13 L 2 12 z M 11.566406 12 L 14 12 L 14 13 L 11 13 L 11 12.980469 L 11.566406 12 z " text-rendering="auto" display="inline" visibility="visible" fill="#bebebe" fill-opacity="1" opacity="1" fill-rule="nonzero" shape-rendering="auto"/>
</svg>
