<svg height="22" width="22" xmlns="http://www.w3.org/2000/svg" xmlns:sodipodi="http://sodipodi.sourceforge.net/DTD/sodipodi-0.dtd" xmlns:inkscape="http://www.inkscape.org/namespaces/inkscape">
 <g transform="matrix(1 0 0 1 -326 -534.36)">
  <path d="m1 3v1 8 6 0.41406 0.586h1 6 3v-1h-3-6v-0.58594l0.46289-0.46289 6.2676-6.2676 1.4531 1.4512 0.81445 0.81445h0.002l0.81641-0.81445 1.4531-1.4512 1.317 1.316h1.414l-2.023-2.0234 5.752-5.7539 0.222-0.2227h0.049v0.2227 5.7773h1v-7h-0.049-0.951-0.463-17.074-0.463zm1 1h0.0488l0.2227 0.2227 5.7519 5.7539-6.0234 6.0234v-4-7.7773zm1.4629 0h15.074l-7.537 7.537z" fill="#4d4d4d" transform="matrix(1 0 0 1 326 534.36)"/>
  <path d="m346.29 547.36-4.5918 4.5918-1.1465-1.1465-0.70703 0.70703 1.8457 1.8477 0.006-0.008 0.008 0.008 5.293-5.293-0.70703-0.70703z" fill="#27ae60"/>
 </g>
</svg>
