<svg height="22" width="22" xmlns="http://www.w3.org/2000/svg" xmlns:sodipodi="http://sodipodi.sourceforge.net/DTD/sodipodi-0.dtd" xmlns:inkscape="http://www.inkscape.org/namespaces/inkscape">
 <path d="m1 3v1 14 0.414 0.586h1 19v-0.586-0.414-1-14h-0.049-0.951-17.537-0.463-1zm1 1h0.0488l5.9746 5.9766-6.0234 6.0234v-12zm1.4629 0h15.074l-7.537 7.537-7.5371-7.537zm16.488 0h0.049v12l-6.023-6.0234 5.974-5.9766zm-11.22 6.684l2.2695 2.267 2.27-2.267 6.267 6.267 0.463 0.463v0.586h-18v-0.586l0.4629-0.463 6.2676-6.267z" fill="#4d4d4d" transform="matrix(1 0 0 1 0 0)"/>
</svg>
