<svg viewBox="0 0 16 16" height="16" width="16" xmlns="http://www.w3.org/2000/svg" xmlns:sodipodi="http://sodipodi.sourceforge.net/DTD/sodipodi-0.dtd" xmlns:inkscape="http://www.inkscape.org/namespaces/inkscape">
 <path stroke="none" stroke-dasharray="none" stroke-dashoffset="0" stroke-linecap="butt" stroke-linejoin="miter" color="#000000" stroke-miterlimit="4" stroke-opacity="1" color-interpolation="sRGB" image-rendering="auto" stroke-width="1" color-interpolation-filters="linearRGB" color-rendering="auto" d="M 0 2 L 0 3 L 0 14 L 1 14 L 10 14 L 10 13 L 1.4140625 13 L 6.7070312 7.7070312 L 8 9 L 9.2929688 7.7070312 L 10 7 L 11 6 L 14 3 L 15 3 L 15 9 L 16 9 L 16 2 L 1 2 L 0 2 z M 1 3 L 2 3 L 6 7 L 1 12 L 1 3 z M 3.4140625 3 L 12.585938 3 L 8 7.5859375 L 3.4140625 3 z M 13.5 9 L 12.792969 9.7070312 L 14.085938 11 L 11 11 L 11 12 L 14.085938 12 L 12.792969 13.292969 L 13.5 14 L 15.792969 11.707031 L 16 11.5 L 15.792969 11.292969 L 13.5 9 z " text-rendering="auto" display="inline" visibility="visible" fill="#bebebe" fill-opacity="1" opacity="1" fill-rule="nonzero" shape-rendering="auto"/>
</svg>
