<?xml version="1.0" encoding="UTF-8" standalone="no"?>
<!-- Created with Inkscape (http://www.inkscape.org/) -->

<svg
   xmlns:dc="http://purl.org/dc/elements/1.1/"
   xmlns:cc="http://creativecommons.org/ns#"
   xmlns:rdf="http://www.w3.org/1999/02/22-rdf-syntax-ns#"
   xmlns:svg="http://www.w3.org/2000/svg"
   xmlns="http://www.w3.org/2000/svg"
   xmlns:sodipodi="http://sodipodi.sourceforge.net/DTD/sodipodi-0.dtd"
   xmlns:inkscape="http://www.inkscape.org/namespaces/inkscape"
   id="svg3869"
   height="22"
   width="22"
   version="1.1"
   inkscape:version="0.48.5 r10040"
   sodipodi:docname="mail-reply-list.svg">
  <sodipodi:namedview
     pagecolor="#ffffff"
     bordercolor="#666666"
     borderopacity="1"
     objecttolerance="10"
     gridtolerance="10"
     guidetolerance="10"
     inkscape:pageopacity="0"
     inkscape:pageshadow="2"
     inkscape:window-width="640"
     inkscape:window-height="480"
     id="namedview11892" />
  <defs
     id="defs3871">
    <filter
       id="filter3174"
       color-interpolation-filters="sRGB">
      <feGaussianBlur
         id="feGaussianBlur3176"
         stdDeviation="1.71" />
    </filter>
    <clipPath
       id="clipPath4355">
      <rect
         id="rect4357"
         style="fill:#fff"
         rx="6"
         ry="6"
         height="80"
         width="84"
         y="6"
         x="6" />
    </clipPath>
    <filter
       id="filter3794"
       height="1.384"
       width="1.384"
       color-interpolation-filters="sRGB"
       y="-.192"
       x="-.192">
      <feGaussianBlur
         id="feGaussianBlur3796"
         stdDeviation="5.28" />
    </filter>
  </defs>
  <metadata
     id="metadata3874">
    <rdf:RDF>
      <cc:Work
         rdf:about="">
        <dc:format>image/svg+xml</dc:format>
        <dc:type
           rdf:resource="http://purl.org/dc/dcmitype/StillImage" />
        <dc:title />
      </cc:Work>
    </rdf:RDF>
  </metadata>
  <g
     id="layer1"
     transform="translate(-326 -534.36)">
    <path
       id="path4186"
       style="fill:#4d4d4d;fill-rule:evenodd"
       d="m1 3v9h1v-7.7773-0.2227h0.0488l0.2227 0.2227 5.7519 5.7539-2.0234 2.0234h1.4141l1.3164-1.316 1.4535 1.451 0.816 0.814h0.002l0.81445-0.81445 1.4531-1.4512 1.316 1.317h1.414l-2.023-2.0234 5.752-5.7539 0.222-0.2227h0.049v0.2227 7.7773h1v-8-1h-1-0.463-17.074-0.463-0.9512zm2.4629 1h15.074l-7.537 7.537zm11.537 10v1h6v-1zm0 2v1h6v-1zm-7 2v1h6v-1zm7 0v1h6v-1z"
       transform="translate(326 534.36)" />
    <g
       id="g3201"
       style="fill:#4d4d4d"
       transform="matrix(.12158 0 0 .12158 324.22 545.09)">
      <g
         id="layer2"
         style="fill:#4d4d4d;display:none">
        <rect
           id="rect3745"
           style="opacity:.9;filter:url(#filter3174);fill:#4d4d4d"
           rx="6"
           ry="6"
           height="85"
           width="86"
           y="7"
           x="5" />
      </g>
      <g
         id="layer5"
         style="fill:#4d4d4d;display:none">
        <rect
           id="rect3171"
           style="opacity:.1;filter:url(#filter3794);stroke:#fff;stroke-linecap:round;stroke-width:.5;fill:#4d4d4d"
           clip-path="url(#clipPath4355)"
           rx="12"
           ry="12"
           height="62"
           width="66"
           y="15"
           x="15" />
      </g>
      <g
         id="layer6"
         style="fill:#4d4d4d">
        <path
           id="path3874"
           d="m63.436 65c6.036-15.359-2.888-17.33-17.329-14.442v11.553l-23.107-18.906 23.107-18.641v11.553c8.665 0 15.523-1.4801 21.661 5.3796 6.137 6.859 2.889 13.394-4.332 23.503z"
           style="fill:#4d4d4d" />
      </g>
    </g>
  </g>
</svg>
