<svg viewBox="0 0 16 16" height="16" width="16" xmlns="http://www.w3.org/2000/svg" xmlns:sodipodi="http://sodipodi.sourceforge.net/DTD/sodipodi-0.dtd" xmlns:inkscape="http://www.inkscape.org/namespaces/inkscape">
 <path stroke="none" stroke-dasharray="none" stroke-dashoffset="0" stroke-linecap="butt" stroke-linejoin="miter" color="#000000" stroke-miterlimit="4" stroke-opacity="1" color-interpolation="sRGB" image-rendering="auto" stroke-width="1" color-interpolation-filters="linearRGB" color-rendering="auto" d="M 0 2 L 0 9 L 1 9 L 1 3 L 2 3 L 5 6 L 6 7 L 6.7070312 7.7070312 L 8 9 L 9.2929688 7.7070312 L 14.585938 13 L 6 13 L 6 14 L 15 14 L 16 14 L 16 3 L 16 2 L 15 2 L 0 2 z M 3.4140625 3 L 12.585938 3 L 8 7.5859375 L 3.4140625 3 z M 14 3 L 15 3 L 15 12 L 10 7 L 14 3 z M 3 9 L 0 11.5 L 3 14 L 3 12 L 6 12 L 6 11 L 3 11 L 3 9 z " text-rendering="auto" display="inline" visibility="visible" fill="#bebebe" fill-opacity="1" opacity="1" fill-rule="nonzero" shape-rendering="auto"/>
</svg>
