<svg height="96" width="96" xmlns="http://www.w3.org/2000/svg" xmlns:sodipodi="http://sodipodi.sourceforge.net/DTD/sodipodi-0.dtd" xmlns:inkscape="http://www.inkscape.org/namespaces/inkscape">
 <g enable-background="new" fill="#ff0000" transform="matrix(3.6 0 0 3.6 -1352.4 -176.88)">
  <path d="m389 57c-2.7614 0-5 2.2386-5 5s2.2386 5 5 5 5-2.2386 5-5-2.2386-5-5-5zm0 3c1.1046 0 2 0.89543 2 2s-0.89543 2-2 2-2-0.89543-2-2 0.89543-2 2-2z" color="#000000"/>
  <path d="m384 62c0 4 4 7 5 10 1-3 5-6 5-10h-3c0 1.1046-0.89543 2-2 2s-2-0.89543-2-2h-3z"/>
 </g>
</svg>
