<svg height="22" viewBox="0 0 22 22" width="22" xmlns="http://www.w3.org/2000/svg" xmlns:sodipodi="http://sodipodi.sourceforge.net/DTD/sodipodi-0.dtd" xmlns:inkscape="http://www.inkscape.org/namespaces/inkscape">
 <path d="M 4.5467168,3.2046631 A 0.76187326,0.86267807 0 0 0 3.8355366,4.0738833 l 0,13.4334027 a 0.76187326,0.86267807 0 0 0 1.1457903,0.750691 l 9.8116521,-6.413792 0,4.846561 c 0,0.466956 0.375925,0.84288 0.84288,0.84288 l 1.685761,0 c 0.466955,0 0.84288,-0.375924 0.84288,-0.84288 l 0,-11.8003225 c 0,-0.4669556 -0.375925,-0.8428802 -0.84288,-0.8428802 l -1.685761,0 c -0.466955,0 -0.84288,0.3759246 -0.84288,0.8428802 l 0,4.8465611 -9.8116521,-6.4137915 a 0.76187326,0.86267807 0 0 0 -0.4346101,-0.11853 z" stroke-width="2" display="inline" fill="#4d4d4d" color="#000000" fill-opacity="1" fill-rule="nonzero" stroke="none" opacity="1" visibility="visible" inkscape:connector-curvature="0"/>
</svg>
