<svg height="48" width="48" xmlns="http://www.w3.org/2000/svg" xmlns:sodipodi="http://sodipodi.sourceforge.net/DTD/sodipodi-0.dtd" xmlns:inkscape="http://www.inkscape.org/namespaces/inkscape">
 <g fill="#4d4d4d" transform="matrix(1 0 0 1 0 -1004.4)">
  <path d="m19.722 1043.4c-5.9184 0-10.722-4.8057-10.722-10.722 0-5.9174 4.8036-10.722 10.722-10.722 5.9163 0 10.722 4.8047 10.722 10.722 0 5.9-4.806 10.7-10.722 10.7zm0-7.1018c1.997 0 3.6201-1.6221 3.6201-3.6201 0-1.9992-1.6231-3.6202-3.6201-3.6202-1.9992 0-3.6201 1.621-3.6201 3.6202 0 1.9 1.621 3.6 3.62 3.6zm0-3.159c-0.2503 0-0.46116-0.2098-0.46116-0.4611 0-0.2504 0.21086-0.4612 0.46116-0.4612 0.25137 0 0.46116 0.2108 0.46116 0.4612 0 0.3-0.21 0.5-0.461 0.5z"/>
  <path d="m32.075 1034.1c0.05415-0.4705 0.08021-0.959 0.08021-1.4438 0-2.1146-0.53763-4.1116-1.4706-5.8557 0.74256-0.6605 1.2032-1.6255 1.2032-2.7005 0-1.9989-1.6128-3.6097-3.6096-3.6097-1.0756 0-2.0402 0.4609-2.7006 1.2032-1.7441-0.9329-3.7416-1.4706-5.8556-1.4706-0.48501 0-0.97327 0.026-1.4439 0.08 1.537-4.0404 5.4228-6.9252 10-6.9252 5.9155 0 10.722 4.8054 10.722 10.722 0 4.6-2.885 8.4-6.925 10z"/>
 </g>
</svg>
