<svg viewBox="0 0 16 16" height="16" width="16" xmlns="http://www.w3.org/2000/svg" xmlns:sodipodi="http://sodipodi.sourceforge.net/DTD/sodipodi-0.dtd" xmlns:inkscape="http://www.inkscape.org/namespaces/inkscape">
 <path stroke="none" stroke-dasharray="none" stroke-dashoffset="0" stroke-linecap="butt" stroke-linejoin="miter" color="#000000" stroke-miterlimit="4" stroke-opacity="1" color-interpolation="sRGB" image-rendering="auto" stroke-width="1" color-interpolation-filters="linearRGB" color-rendering="auto" d="M 13,2.9999998 13,3.3261717 13,12.673828 13,13 l -1.08789,0 -2.9121096,-2.912109 0,2.585937 0,0.326172 -1.0878907,0 -4.9121095,-4.9121098 0,-0.08789 0,-0.08789 4.9121095,-4.9121094 0.087891,0 1,0 0,0.3261719 0,2.5859375 2.9121093,-2.9121094 0.08789,0 1,0 z m -1,1.3261719 -2.9999996,3 0,1.3476565 L 12,11.673828 12,4.3261717 Z m -3.9999996,0 -3.6738282,3.6738285 3.6738282,3.6738278 0,-2.5859378 0,-2.175781 0,-2.5859375 z" text-rendering="auto" display="inline" visibility="visible" fill="#bebebe" fill-opacity="1" opacity="1" fill-rule="nonzero" shape-rendering="auto" inkscape:connector-curvature="0"/>
</svg>
