<svg viewBox="0 0 16 16" height="16" width="16" xmlns="http://www.w3.org/2000/svg" xmlns:sodipodi="http://sodipodi.sourceforge.net/DTD/sodipodi-0.dtd" xmlns:inkscape="http://www.inkscape.org/namespaces/inkscape">
 <path stroke="none" stroke-dasharray="none" stroke-dashoffset="0" stroke-linecap="butt" stroke-linejoin="miter" color="#000000" stroke-miterlimit="4" stroke-opacity="1" color-interpolation="sRGB" image-rendering="auto" stroke-width="1" color-interpolation-filters="linearRGB" color-rendering="auto" d="M 13,3 13,3.3261719 13,12.673828 13,13 11.912109,13 9,10.087891 9,12.673828 9,13 7.9121094,13 4,9.0878906 l 0,4.3691404 -1,0 L 3,8.0878906 3,8 3,7.9121094 3,3 4,3 4,6.9121094 7.9121094,3 8,3 9,3 9,3.3261719 9,5.9121094 11.912109,3 12,3 13,3 Z m -1,1.3261719 -3,3 0,1.3476562 3,2.9999999 0,-7.3476561 z m -4,0 L 4.326172,8 8,11.673828 8,9.0878906 8,6.9121094 8,4.3261719 Z" text-rendering="auto" display="inline" visibility="visible" fill="#bebebe" fill-opacity="1" opacity="1" fill-rule="nonzero" shape-rendering="auto" inkscape:connector-curvature="0"/>
</svg>
