<?xml version="1.0" encoding="UTF-8" standalone="no"?>
<!-- Created with Inkscape (http://www.inkscape.org/) -->

<svg
   xmlns:dc="http://purl.org/dc/elements/1.1/"
   xmlns:cc="http://creativecommons.org/ns#"
   xmlns:rdf="http://www.w3.org/1999/02/22-rdf-syntax-ns#"
   xmlns:svg="http://www.w3.org/2000/svg"
   xmlns="http://www.w3.org/2000/svg"
   xmlns:sodipodi="http://sodipodi.sourceforge.net/DTD/sodipodi-0.dtd"
   xmlns:inkscape="http://www.inkscape.org/namespaces/inkscape"
   id="svg3380"
   height="48"
   width="48"
   version="1.1"
   inkscape:version="0.48.5 r10040"
   sodipodi:docname="media-optical-video-new.svg">
  <defs
     id="defs12374" />
  <sodipodi:namedview
     pagecolor="#ffffff"
     bordercolor="#666666"
     borderopacity="1"
     objecttolerance="10"
     gridtolerance="10"
     guidetolerance="10"
     inkscape:pageopacity="0"
     inkscape:pageshadow="2"
     inkscape:window-width="640"
     inkscape:window-height="480"
     id="namedview12372" />
  <metadata
     id="metadata3385">
    <rdf:RDF>
      <cc:Work
         rdf:about="">
        <dc:format>image/svg+xml</dc:format>
        <dc:type
           rdf:resource="http://purl.org/dc/dcmitype/StillImage" />
        <dc:title />
      </cc:Work>
    </rdf:RDF>
  </metadata>
  <g
     id="layer1"
     transform="translate(-336 -328.36)">
    <g
       id="g46"
       style="fill:#4d4d4d"
       transform="matrix(1.4976 0 0 -1.4976 355.77 360.11)">
      <path
         id="path48"
         style="fill:#4d4d4d"
         d="m0 0c0 1.561 1.266 2.825 2.824 2.825 1.561 0 2.826-1.264 2.826-2.825s-1.265-2.825-2.826-2.825c-1.558 0-2.824 1.264-2.824 2.825m-2.484 2.483c-1.561 0-2.825 1.266-2.825 2.826s1.264 2.825 2.825 2.825c1.56 0 2.826-1.265 2.826-2.825s-1.266-2.826-2.826-2.826m5.734 2.693c0-0.235-0.189-0.425-0.426-0.425-0.234 0-0.424 0.19-0.424 0.425s0.19 0.426 0.424 0.426c0.237 0 0.426-0.191 0.426-0.426m-0.426 8.266c1.561 0 2.826-1.264 2.826-2.825 0-1.559-1.265-2.825-2.826-2.825-1.558 0-2.824 1.266-2.824 2.825 0 1.561 1.266 2.825 2.824 2.825m5.309-5.308c1.56 0 2.826-1.265 2.826-2.825s-1.266-2.826-2.826-2.826c-1.559 0-2.824 1.266-2.824 2.826s1.265 2.825 2.824 2.825m4.709-2.957c0 5.531-4.485 10.015-10.018 10.015-5.531 0-10.015-4.484-10.015-10.015 0-5.532 4.484-10.017 10.015-10.017h10.016v0.657h-6.471c3.779 1.433 6.473 5.077 6.473 9.36" />
    </g>
  </g>
</svg>
