<svg viewBox="0 0 16 16" height="16" width="16" xmlns="http://www.w3.org/2000/svg" xmlns:sodipodi="http://sodipodi.sourceforge.net/DTD/sodipodi-0.dtd" xmlns:inkscape="http://www.inkscape.org/namespaces/inkscape">
 <path stroke="none" stroke-dasharray="none" stroke-dashoffset="0" stroke-linecap="butt" stroke-linejoin="miter" color="#000000" stroke-miterlimit="4" stroke-opacity="1" color-interpolation="sRGB" image-rendering="auto" stroke-width="1" color-interpolation-filters="linearRGB" color-rendering="auto" d="M 3 2 L 3 4 L 2 4 L 2 5 L 3 5 L 3 14 L 4 14 L 4 5 L 5 5 L 5 4 L 4 4 L 4 2 L 3 2 z M 6 2 L 6 9 L 5 9 L 5 10 L 6 10 L 6 14 L 7 14 L 7 10 L 8 10 L 8 9 L 7 9 L 7 2 L 6 2 z M 9 2 L 9 5 L 8 5 L 8 6 L 9 6 L 9 14 L 10 14 L 10 6 L 11 6 L 11 5 L 10 5 L 10 2 L 9 2 z M 12 2 L 12 11 L 11 11 L 11 12 L 12 12 L 12 14 L 13 14 L 13 12 L 14 12 L 14 11 L 13 11 L 13 2 L 12 2 z " text-rendering="auto" display="inline" visibility="visible" fill="#bebebe" fill-opacity="1" opacity="1" fill-rule="nonzero" shape-rendering="auto"/>
</svg>
