<?xml version="1.0" encoding="UTF-8" standalone="no"?>
<!-- Created with Inkscape (http://www.inkscape.org/) -->

<svg
   xmlns:dc="http://purl.org/dc/elements/1.1/"
   xmlns:cc="http://creativecommons.org/ns#"
   xmlns:rdf="http://www.w3.org/1999/02/22-rdf-syntax-ns#"
   xmlns:svg="http://www.w3.org/2000/svg"
   xmlns="http://www.w3.org/2000/svg"
   xmlns:sodipodi="http://sodipodi.sourceforge.net/DTD/sodipodi-0.dtd"
   xmlns:inkscape="http://www.inkscape.org/namespaces/inkscape"
   id="svg3471"
   height="48"
   width="48"
   version="1.1"
   inkscape:version="0.48.5 r10040"
   sodipodi:docname="media-write-cd.svg">
  <defs
     id="defs12" />
  <sodipodi:namedview
     pagecolor="#ffffff"
     bordercolor="#666666"
     borderopacity="1"
     objecttolerance="10"
     gridtolerance="10"
     guidetolerance="10"
     inkscape:pageopacity="0"
     inkscape:pageshadow="2"
     inkscape:window-width="640"
     inkscape:window-height="480"
     id="namedview10"
     showgrid="false"
     inkscape:zoom="4.9166667"
     inkscape:cx="24"
     inkscape:cy="24"
     inkscape:window-x="561"
     inkscape:window-y="300"
     inkscape:window-maximized="0"
     inkscape:current-layer="svg3471" />
  <metadata
     id="metadata3476">
    <rdf:RDF>
      <cc:Work
         rdf:about="">
        <dc:format>image/svg+xml</dc:format>
        <dc:type
           rdf:resource="http://purl.org/dc/dcmitype/StillImage" />
        <dc:title />
      </cc:Work>
    </rdf:RDF>
  </metadata>
  <g
     id="layer1"
     transform="translate(0 -1004.4)"
     style="fill:#4d4d4d">
    <g
       id="g882"
       transform="translate(-453.14 376)"
       style="fill:#4d4d4d">
      <g
         id="g38"
         style="fill:#4d4d4d"
         transform="matrix(1.4976 0 0 -1.4976 477.15 657.43)">
        <path
           id="path40"
           d="m0 0c-1.869 0-3.385 1.516-3.385 3.385 0 1.868 1.516 3.384 3.385 3.384 1.867 0 3.383-1.516 3.383-3.384 0-1.869-1.516-3.385-3.383-3.385m0 13.4c-5.533 0-10.018-4.484-10.018-10.015 0-5.532 4.485-10.017 10.018-10.017 5.531 0 10.014 4.485 10.014 10.017 0 5.531-4.483 10.015-10.014 10.015"
           style="fill:#4d4d4d" />
      </g>
      <g
         id="g42"
         style="fill:#4d4d4d"
         transform="matrix(1.4976 0 0 -1.4976 477.78 652.36)">
        <path
           id="path44"
           d="m0 0c0-0.234-0.191-0.425-0.426-0.425-0.234 0-0.426 0.191-0.426 0.425 0 0.235 0.192 0.426 0.426 0.426 0.235 0 0.426-0.191 0.426-0.426"
           style="fill:#4d4d4d" />
      </g>
    </g>
  </g>
</svg>
