<svg viewBox="0 0 16 16" height="16" width="16" xmlns="http://www.w3.org/2000/svg" xmlns:sodipodi="http://sodipodi.sourceforge.net/DTD/sodipodi-0.dtd" xmlns:inkscape="http://www.inkscape.org/namespaces/inkscape">
 <path stroke="none" stroke-dasharray="none" stroke-dashoffset="0" stroke-linecap="butt" stroke-linejoin="miter" color="#000000" stroke-miterlimit="4" stroke-opacity="1" color-interpolation="sRGB" image-rendering="auto" stroke-width="1" color-interpolation-filters="linearRGB" color-rendering="auto" d="M 3 3 L 3 3.3261719 L 3 12.673828 L 3 13 L 4.0878906 13 L 7 10.087891 L 7 12.673828 L 7 13 L 8.0878906 13 L 12 9.0878906 L 12 13.457031 L 13 13.457031 L 13 8.0878906 L 13 8 L 13 7.9121094 L 13 3 L 12 3 L 12 6.9121094 L 8.0878906 3 L 8 3 L 7 3 L 7 3.3261719 L 7 5.9121094 L 4.0878906 3 L 4 3 L 3 3 z M 4 4.3261719 L 7 7.3261719 L 7 8.6738281 L 4 11.673828 L 4 4.3261719 z M 8 4.3261719 L 11.673828 8 L 8 11.673828 L 8 9.0878906 L 8 6.9121094 L 8 4.3261719 z " text-rendering="auto" display="inline" visibility="visible" fill="#bebebe" fill-opacity="1" opacity="1" fill-rule="nonzero" shape-rendering="auto"/>
</svg>
