<svg height="22" viewBox="0 0 22 22" width="22" xmlns="http://www.w3.org/2000/svg" xmlns:sodipodi="http://sodipodi.sourceforge.net/DTD/sodipodi-0.dtd" xmlns:inkscape="http://www.inkscape.org/namespaces/inkscape">
 <path d="m 11.292412,5.9083464 a 0.51280073,0.57976598 0 0 1 0.117205,0.058603 l 6.856504,4.512401 a 0.51280073,0.57976598 0 0 1 0.234411,0.23441 0.51280073,0.57976598 0 0 1 0.0586,0.234411 0.51280073,0.57976598 0 0 1 -0.117206,0.410218 0.51280073,0.57976598 0 0 1 -0.175807,0.117205 l -6.856505,4.512401 a 0.51280073,0.57976598 0 0 1 -0.351616,0.117206 0.51280073,0.57976598 0 0 1 -0.23441,-0.117206 0.51280073,0.57976598 0 0 1 -0.234411,-0.46882 l 0,-3.633362 -6.3290819,4.102182 a 0.51280073,0.57976598 0 0 1 -0.293013,0.117206 0.51280073,0.57976598 0 0 1 -0.293013,-0.117206 0.51280073,0.57976598 0 0 1 -0.117205,-0.175807 0.51280073,0.57976598 0 0 1 -0.117205,-0.293013 l 0,-9.0248025 a 0.51280073,0.57976598 0 0 1 0.1758076,-0.4102183 0.51280073,0.57976598 0 0 1 0.117205,-0.1172052 0.51280073,0.57976598 0 0 1 0.293013,-0.058603 0.51280073,0.57976598 0 0 1 0.23441,0.058603 l 6.3290823,4.102183 0,-3.5747595 a 0.51280073,0.57976598 0 0 1 0.468821,-0.5860261 0.51280073,0.57976598 0 0 1 0.234411,0 z" stroke-width="2" display="inline" fill="#4d4d4d" color="#000000" fill-opacity="1" fill-rule="nonzero" stroke="none" visibility="visible" inkscape:connector-curvature="0"/>
</svg>
