<svg height="16" width="16" xmlns="http://www.w3.org/2000/svg" xmlns:sodipodi="http://sodipodi.sourceforge.net/DTD/sodipodi-0.dtd" xmlns:inkscape="http://www.inkscape.org/namespaces/inkscape">
 <g transform="matrix(1 0 0 1 0 -1036.4)">
  <path d="m441.95 1349.8c-1.4556-1.4556-1.5823-5.4457-0.2-6.3 0.55-0.3399 1-1.7165 1-3.059 0-2.4373-0.0163-2.441-10.8-2.441-7.0667 0-11.215-0.4148-12-1.2-1.5525-1.5525-1.5525-8.0475 0-9.6 0.8659-0.8659 7.8064-1.2 24.929-1.2 25.805 0 26.871 0.2238 26.871 5.6372 0 5.8318-1.0904 6.3628-13.067 6.3628-12.147 0-13.484 0.7042-10.368 5.4602 1.3824 2.1098 1.4991 3.1018 0.59743 5.0807-1.2184 2.6742-4.8852 3.3372-6.9633 1.2591zm25.696-16.714c1.9249-1.2189 0.61677-4.0856-1.8643-4.0856-1.3032 0-2.0314 0.6572-2.0314 1.8333 0 3.0186 1.4038 3.8302 3.8957 2.2523zm-12.146-2.6691c-0.95295-0.9529-2.8635 0.5906-2.1533 1.7397 0.42212 0.683 0.98146 0.6658 1.6996-0.052 0.58876-0.5887 0.79291-1.348 0.45366-1.6873zm5.2501 0.5245c0-0.5176-0.675-0.941-1.5-0.941-1.5464 0-1.9867 1.1799-0.86052 2.3061 0.79893 0.799 2.3605-0.1042 2.3605-1.3651zm-231.41 16.809c0.39111-0.6875 1.3898-2.0401 2.2192-3.0058 1.3768-1.6029 1.1575-2.0816-2.5202-5.5-5.8779-5.4634-8.6351-11.461-8.6175-18.744 0.0431-17.874 16.172-28.86 33.636-22.91 6.4238 2.1888 13.065 9.6386 14.712 16.502 2.2925 9.5561-0.64093 18.858-7.909 25.079l-3.9558 3.386 1.8991 2.4715c1.0445 1.3592 1.9091 2.8089 1.9213 3.2214s-7.2043 0.75-16.037 0.75c-12.56 0-15.904-0.2724-15.348-1.25zm24.02-18.034c2.8692-2.6294 3.6899-4.2254 4.1158-8.0036 1.4303-12.69-13.952-19.366-22.156-9.6158-7.3244 8.7046-1.3821 20.89 10.192 20.9 3.4294 0 4.9666-0.6395 7.8485-3.2806zm-15.69-2.6387c-5.5319-5.5319-2.3302-15.16 5.5319-16.634 9.2445-1.7343 15.146 9.1249 8.9561 16.481-2.1828 2.5941-3.293 3.0768-7.0769 3.0768-3.6271 0-5.0487-0.5607-7.4111-2.9231zm12.33-1.9c4.0512-3.5574 0.64511-12.227-4.8037-12.227-3.2572 0-7.4463 3.7345-7.4463 6.6383 0 7.1541 6.8884 10.296 12.25 5.5884zm11.792-17.584c-1.3352-1.3352-3.5742 0.6881-2.5662 2.319 0.51879 0.8394 1.081 0.821 2.1552-0.071 1.0083-0.8368 1.1342-1.5254 0.41097-2.2485zm158.96 38.9c0-2.4706 0.1-2.5 8.5-2.5s8.5 0.029 8.5 2.5c0 2.4706-0.1 2.5-8.5 2.5s-8.5-0.029-8.5-2.5zm31.354 0.25c0.31926-2.1069 0.89114-2.2684 8.9937-2.5389l8.6528-0.289v2.539c0 2.5303-0.0303 2.5389-8.9937 2.5389-8.7612 0-8.9849-0.058-8.6528-2.25zm52.236-0.3033c-3.2643-3.2643-1.2118-6.7718 4.0884-6.9866l3.822-0.1549 0.5-20.843 0.5-20.843 31-0.059 31-0.059 0.5 20.967 0.5 20.967 3.5 0.1754c1.925 0.097 3.8375 0.2239 4.25 0.2832 1.4081 0.2024 0.79126 6.878-0.688 7.4456-0.79091 0.3035-18.526 0.5848-39.41 0.6252-33.435 0.065-38.162-0.1166-39.562-1.5163zm52.41-2.9467c0-1.2533-2.0556-1.5-12.5-1.5s-12.5 0.2467-12.5 1.5 2.0556 1.5 12.5 1.5 12.5-0.2467 12.5-1.5zm13.5 0.5c0.33992-0.55 0.14148-1-0.44098-1s-1.059 0.45-1.059 1 0.19844 1 0.44098 1 0.7191-0.45 1.059-1zm4.5 0c0-0.55-0.45-1-1-1s-1 0.45-1 1 0.45 1 1 1 1-0.45 1-1zm4 0c0-0.55-0.45-1-1-1s-1 0.45-1 1 0.45 1 1 1 1-0.45 1-1zm-8-24v-18h-26.5-26.5v18 18h26.5 26.5v-18zm-236 21.032v-3.0317l-9.75-0.015c-5.3625-0.01-10.323-0.3793-11.024-0.8241-0.97057-0.616-1.209-4.9629-1-18.235l0.27437-17.426 32.381-0.264c23.062-0.1881 32.775 0.063 33.75 0.8724 1.8414 1.5282 1.9944 32.866 0.16936 34.692-0.76895 0.7689-4.6964 1.2-10.934 1.2h-9.7336l-0.31642 2.75-0.31642 2.75-11.75 0.2817-11.75 0.2818v-3.0318zm6.7014-9.9912c8.5783-5.2306 8.2242-18.925-0.60757-23.492-1.647-0.8517-5.0262-1.5485-7.5094-1.5485-3.6173 0-5.2127 0.6127-8.0254 3.0823-6.6809 5.8658-6.6854 14.966-0.0103 20.826 2.8727 2.5223 4.3889 3.0907 8.2361 3.0876 2.9109 0 5.9403-0.7507 7.9166-1.9557zm-13.994-3.0562c-3.0814-2.4238-5.0404-7.8086-4.1424-11.387 1.079-4.2992 5.8932-7.5977 11.089-7.5977 3.6406 0 5.0586 0.5584 7.4233 2.9231 4.1372 4.1371 4.1466 10.556 0.0219 14.971-2.4075 2.5773-3.6609 3.1058-7.3651 3.1058-2.9613 0-5.3265-0.6785-7.0264-2.0157zm11.978-3.1586c4.6023-4.3237 1.435-12.826-4.7781-12.826-4.2522 0-6.0203 1.0387-7.4153 4.3564-3.3094 7.8708 5.9698 14.316 12.193 8.4693zm17.314 3.1743c0-1.1111 0.66667-2 1.5-2s1.5 0.8889 1.5 2c0 1.1 0.45 2 1 2s1-2.2766 1-5.059c0-3.1181-0.38367-4.8219-1-4.441-0.55 0.3399-1 1.2665-1 2.059 0 2.2349-2.6996 1.6979-3.3161-0.6596-0.91366-3.4939-2.6839-1.08-2.6839 3.6596 0 3.2809 0.39184 4.441 1.5 4.441 0.83333 0 1.5-0.8889 1.5-2zm14.548-0.433c1.9912-3.0389 0.67089-6.0443-3.0676-6.9826-3.6837-0.9245-4.4804-0.04-4.4804 4.9746 0 4.2601 0.12124 4.441 2.977 4.441 2.05 0 3.4733-0.7575 4.5711-2.433zm-5.548-2.008c0-3.0481 1.3877-4.0018 2.9986-2.0607 1.4994 1.8067 0.6211 4.5017-1.4672 4.5017-0.95693 0-1.5314-0.9157-1.5314-2.441zm5.8125-14.309c-0.2787-1.4595-1.6445-1.799-8.2285-2.0449-4.3419-0.1621-8.3253 0.1361-8.852 0.6629-2.1449 2.1449 0.66013 3.132 8.9004 3.132 7.5695 0 8.4772-0.1942 8.1801-1.75zm49.758 10.227c-2.4234-1.1972-3.4114-7.7591-1.5128-10.047 1.849-2.2278 48.131-2.0981 50.371 0.1412 1.9301 1.9301 2.039 6.4069 0.21652 8.8993-1.2471 1.7055-3.1712 1.8599-24.179 1.9411-13.73 0.053-23.649-0.3194-24.895-0.9348zm46.929-5.9907c0-1.2985-0.77909-2.097-2.25-2.3059-1.657-0.2353-2.25 0.182-2.25 1.5834 0 1.0466 0.31556 2.2184 0.70124 2.6041 1.3265 1.3265 3.7988 0.102 3.7988-1.8816zm-12.75-1.0698c-0.95295-0.9529-2.8635 0.5906-2.1533 1.7397 0.42212 0.683 0.98146 0.6658 1.6996-0.052 0.58876-0.5887 0.79291-1.348 0.45366-1.6873zm5 0c-0.95295-0.9529-2.8635 0.5906-2.1533 1.7397 0.42212 0.683 0.98146 0.6658 1.6996-0.052 0.58876-0.5887 0.79291-1.348 0.45366-1.6873zm-39.527-8.9732c-2.4978-1.7496-3.1348-8.131-1.0225-10.243 0.86567-0.8657 7.7878-1.2 24.845-1.2 21.637 0 23.786 0.1553 25.3 1.8287 2.2449 2.4806 2.0846 6.7417-0.34501 9.1713-1.8803 1.8803-3.3333 2-24.277 2-18.544 0-22.65-0.2609-24.5-1.5567zm47.59-5.7078c0.39799-2.0666-2.4888-3.4591-4.0124-1.9355s-0.13109 4.4104 1.9355 4.0124c0.95785-0.1845 1.8925-1.1191 2.0769-2.0769zm-12.81-0.2c0-0.825-0.42344-1.5-0.94098-1.5-1.261 0-2.1641 1.5616-1.3652 2.3605 1.1262 1.1262 2.3062 0.6859 2.3062-0.8605zm4.7499-1.0835c-0.95295-0.9529-2.8635 0.5906-2.1533 1.7397 0.42212 0.683 0.98146 0.6658 1.6996-0.052 0.58876-0.5887 0.79291-1.348 0.45366-1.6873zm-167.75-27.4c0-0.55 0.45-1 1-1s1 0.45 1 1-0.45 1-1 1-1-0.45-1-1zm100 0c0-0.55 0.45-1 1-1s1 0.45 1 1-0.45 1-1 1-1-0.45-1-1zm100 0c0-0.55 0.45-1 1-1s1 0.45 1 1-0.45 1-1 1-1-0.45-1-1zm41.914-14.945c-4.3456-1.3343-7.663-4.0069-9.3274-7.5143-1.9071-4.0189-2.2463-24.387-0.46396-27.856 1.9689-3.8323 6.0691-7.5673 9.0184-8.2151 4.2165-0.9261 4.1587-3.6687-0.22254-10.557-3.8694-6.0833-3.832-10.152 0.12975-14.114 2.6946-2.6946 3.553-2.9908 7.4087-2.5562 2.3985 0.2703 5.667 1.4215 7.2632 2.5582 4.6945 3.3427 7.793 3.6847 11.826 1.3051 4.0665-2.3993 4.4543-2.4942 4.4543-1.0908 0 1.5618-6.1957 4.9794-9 4.9645-1.375-0.01-4.75-1.348-7.5-2.9792-6.1481-3.6469-9.7917-3.7993-13.045-0.5455-3.2 3.2-3.097 5.8537 0.4444 11.458 1.5944 2.5232 3.1956 5.9376 3.5582 7.5876 0.49104 2.2345 1.7155 3.5103 4.799 5 7.3584 3.555 8.2438 5.7566 8.2438 20.5 0 11.422-0.22958 13.161-2.0618 15.615-4.1905 5.6127-10.157 8.0877-15.525 6.4397zm5.8824-32.329c0.24515-5.593 0.006-6.8648-1.3946-7.4021-2.3874-0.9161-4.4014 2.2564-4.4014 6.9331 0 4.8045 1.5998 7.9657 3.8175 7.5431 1.3422-0.2558 1.7424-1.6867 1.9785-7.0741zm-211.8 30.274c-1.9149-1.9149-2-3.3333-2-33.345 0-29.097 0.13118-31.464 1.8287-33 1.5459-1.399 4.3766-1.655 18.3-1.655 11.478 0 16.835 0.3638 17.671 1.2 0.88371 0.8837 1.2 9.6985 1.2 33.443 0 32.186-0.004 32.246-2.2225 33.8-1.7761 1.244-5.2911 1.5567-17.5 1.5567-13.944 0-15.452-0.1746-17.277-2zm7-12c0-5.3333-0.40741-9-1-9s-1 3.6667-1 9 0.40741 9 1 9 1-3.6667 1-9zm4 0c0-5.3333-0.40741-9-1-9s-1 3.6667-1 9 0.40741 9 1 9 1-3.6667 1-9zm4 0c0-5.3333-0.40741-9-1-9s-1 3.6667-1 9 0.40741 9 1 9 1-3.6667 1-9zm4 0c0-5.3333-0.40741-9-1-9s-1 3.6667-1 9 0.40741 9 1 9 1-3.6667 1-9zm4 0c0-5.3333-0.40741-9-1-9s-1 3.6667-1 9 0.40741 9 1 9 1-3.6667 1-9zm4 0c0-5.3333-0.40741-9-1-9s-1 3.6667-1 9 0.40741 9 1 9 1-3.6667 1-9zm4 0c0-5.3333-0.40741-9-1-9s-1 3.6667-1 9 0.40741 9 1 9 1-3.6667 1-9zm-2.4407-18.096c0.37254-0.6028-0.008-1.781-0.84502-2.6183-1.8226-1.8226-3.7143-0.9194-3.7143 1.7733 0 2.124 3.3815 2.7507 4.5593 0.845zm2.9407-13.904c0-1.2481-2.3376-1.5469-13.921-1.7793-13.428-0.2695-16.61 0.3029-15.116 2.7191 0.46717 0.7559 5.2462 1.0251 14.863 0.8372 11.81-0.2308 14.174-0.5273 14.174-1.777zm0.5-7.5c0-1.2641-2.2712-1.5-14.441-1.5-13.146 0-16.667 0.5591-14.865 2.3605 0.35172 0.3517 7.0895 0.6395 14.973 0.6395 12.074 0 14.333-0.2364 14.333-1.5zm-0.19593-7.75c0.31352-1.6016-0.87961-1.75-14.064-1.75-7.9237 0-14.703 0.2961-15.065 0.658-2.0474 2.0474 2.1399 2.842 14.977 2.842 12.355 0 13.846-0.1844 14.152-1.75zm48.408 56.062c-1.8078-1.8079-1.7019-35.161 0.11646-36.67 0.85852-0.7125 9.2647-1.1983 23.75-1.3724 21.514-0.2587 22.408-0.3476 22.087-2.1972-0.18403-1.0602-1.4215-3.5271-2.75-5.4821-4.1931-6.1707-2.6472-13.199 3.3376-15.174 3.1137-1.0276 4.0597-0.8312 9.4931 1.9711 6.8655 3.5408 8.4049 3.7456 11.557 1.5376 1.2366-0.8661 2.7992-1.3852 3.4725-1.1535 1.5592 0.5365-5.1667 4.7196-7.5965 4.7245-1.0014 0-4.3904-1.4197-7.5312-3.1595-6.7553-3.7422-10.272-3.4317-12.623 1.1144-1.6275 3.1473-1.287 4.9804 1.735 9.3402 1.0642 1.5353 2.2596 4.0103 2.6566 5.5l0.72172 2.7087 11.931 0.5 11.931 0.5v19 19l-35.538 0.2624c-26.805 0.1979-35.836-0.036-36.75-0.95zm11.788-7.8124c0-2.7619-0.27778-3-3.5-3s-3.5 0.2381-3.5 3 0.27778 3 3.5 3 3.5-0.2381 3.5-3zm28 0v-3h-12.5-12.5v3 3h12.5 12.5v-3zm9.7904-5.25-0.29044-8.25h-5.5c-5.4444 0-5.5 0.03-5.5 3 0 2.4694 0.44992 3.0524 2.5438 3.2965 2.2691 0.2645 2.5003 0.6689 2.1412 3.7452-0.5813 4.9792 0.29448 6.4583 3.8241 6.4583h3.0718l-0.29044-8.25zm9.4229 5.25c-0.37261-2.5388-0.8841-3-3.3268-3-2.5406 0-2.8865 0.3595-2.8865 3 0 2.7321 0.29702 3 3.3268 3 3.1276 0 3.3004-0.1796 2.8865-3zm9.7867 0c0-2.6667-0.33333-3-3-3s-3 0.3333-3 3 0.33333 3 3 3 3-0.3333 3-3zm-53-10.5c0-3.2222-0.2381-3.5-3-3.5s-3 0.2778-3 3.5 0.2381 3.5 3 3.5 3-0.2778 3-3.5zm9.8134 0.25c-0.27683-2.8712-0.66145-3.25-3.2997-3.25-2.0858 0-3.0913 0.5453-3.3346 1.8084-0.6108 3.1716 0.63744 4.6916 3.8528 4.6916 2.8891 0 3.0739-0.216 2.7814-3.25zm9.1866-0.3164c0-3.3007-0.20491-3.5429-2.75-3.25-2.2914 0.2636-2.8022 0.8583-3.0634 3.5664-0.29191 3.0276-0.10371 3.25 2.75 3.25 2.8452 0 3.0634-0.254 3.0634-3.5664zm24 0c0-3.3007-0.20491-3.5429-2.75-3.25-2.2914 0.2636-2.8022 0.8583-3.0634 3.5664-0.29191 3.0276-0.10371 3.25 2.75 3.25 2.8452 0 3.0634-0.254 3.0634-3.5664zm9.8134 0.3164c-0.26111-2.7081-0.77191-3.3028-3.0634-3.5664-2.5451-0.2929-2.75-0.051-2.75 3.25 0 3.3124 0.21818 3.5664 3.0634 3.5664 2.8537 0 3.0419-0.2224 2.75-3.25zm-28.813-10.25c0-3.2222-0.2381-3.5-3-3.5-2.6508 0-3 0.341-3 2.9304 0 2.8675 0.19849 3.0162 5.25 3.9334 0.4125 0.075 0.75-1.4388 0.75-3.3638zm-28-0.5c0-2.7619-0.27778-3-3.5-3s-3.5 0.2381-3.5 3 0.27778 3 3.5 3 3.5-0.2381 3.5-3zm9 0c0-2.6667-0.33333-3-3-3s-3 0.3333-3 3 0.33333 3 3 3 3-0.3333 3-3zm10 0c0-2.7619-0.27778-3-3.5-3s-3.5 0.2381-3.5 3 0.27778 3 3.5 3 3.5-0.2381 3.5-3zm19 0c0-2.6667-0.33333-3-3-3s-3 0.3333-3 3 0.33333 3 3 3 3-0.3333 3-3zm9 0c0-2.6667-0.33333-3-3-3s-3 0.3333-3 3 0.33333 3 3 3 3-0.3333 3-3zm10 0c0-2.6667-0.33333-3-3-3s-3 0.3333-3 3 0.33333 3 3 3 3-0.3333 3-3zm-255 28c0-0.55 2.4894-1 5.5321-1 7.1325 0 12.199-2.0709 12.637-5.1653 0.26804-1.8926 1.0261-2.3926 4.0038-2.6405 3.1788-0.2646 3.7171 0 4 1.9906 0.42534 2.9883 4.4942 4.884 11.93 5.5583 3.243 0.2941 5.8964 0.9222 5.8964 1.3958s-9.9 0.8611-22 0.8611c-14 0-22-0.3637-22-1zm-13.545-11.258c-0.27089-0.7059-0.37148-11.849-0.22353-24.763l0.26899-23.479 35.768-0.2627 35.767-0.2626-0.26749 24.763-0.2675 24.763-35.276 0.2628c-27.981 0.2085-35.378 0-35.769-1.0207zm54.545-2.7421c0-0.55-0.675-1-1.5-1s-1.5 0.45-1.5 1 0.675 1 1.5 1 1.5-0.45 1.5-1zm5 0c0-0.55-0.45-1-1-1s-1 0.45-1 1 0.45 1 1 1 1-0.45 1-1zm5 0c0-0.55-0.45-1-1-1s-1 0.45-1 1 0.45 1 1 1 1-0.45 1-1zm2-22.5v-18.5h-31-31v18.5 18.5h31 31v-18.5zm17-42.5c0-0.55 0.45-1 1-1s1 0.45 1 1-0.45 1-1 1-1-0.45-1-1zm200 0c0-0.55 0.45-1 1-1s1 0.45 1 1-0.45 1-1 1-1-0.45-1-1zm-271.57-16.3c-2.0814-1.165-2.1329-64.871-0.0538-66.597 0.9649-0.8008 8.3472-1.061 24.75-0.8725l23.375 0.2688 0.2639 32.936c0.14515 18.115-0.11975 33.32-0.58866 33.789-1.093 1.0931-45.847 1.5388-47.746 0.4756zm5.5712-3.7003c0-1.3333-0.66667-2-2-2s-2 0.6667-2 2 0.66667 2 2 2 2-0.6667 2-2zm40 0c0-1.3333-0.66667-2-2-2s-2 0.6667-2 2 0.66667 2 2 2 2-0.6667 2-2zm-22.894-1.75c0.0583-0.4125 0.17084-2.325 0.25-4.25 0.1377-3.3484-0.0174-3.5134-3.5797-3.8088-4.2225-0.3502-7.7763-3.9267-7.7763-7.8261 0-1.9612-0.51228-2.3651-3-2.3651h-3v8.3c0 5.1222 0.45944 8.7594 1.2 9.5 1.3086 1.3086 15.727 1.7165 15.906 0.45zm18.894-7.25v-4h-7-7v4 4h7 7v-4zm-15.013-13.476c2.7572-5.0995 5.0131-9.8799 5.0131-10.623 0-1.4782-14.484 12.405-16.203 15.532-0.85727 1.5587-0.64063 2.2751 1.1189 3.6998 1.2001 0.9718 2.8291 1.5186 3.62 1.2151s3.6939-4.7241 6.4511-9.8236zm8.9079-2.3985c4.8154-3.7958 7.1053-8.5978 7.1053-14.9 0-6.8915-2.8426-12.431-8.1967-15.975-3.5045-2.3192-5.217-2.7511-10.907-2.7511-7.5077 0-9.9495 1.2492-15.255 7.8049-6.2692 7.7458-4.0367 20.758 4.5348 26.43l3.9334 2.603 6.7205-6.669c3.6963-3.668 7.2452-6.669 7.8864-6.669 2.5554 0 2.3402 2.4172-0.72775 8.1733-3.1835 5.9728-3.1921 6.0266-0.85214 5.3311 1.3001-0.3864 3.8914-1.9068 5.7585-3.3786zm-14.856-13.053c-1.3072-2.4424-0.41868-4.8171 2.1016-5.617 3.7359-1.1857 6.4626 3.5416 3.6596 6.3446-1.7999 1.7999-4.5977 1.4465-5.7612-0.7276zm-15.149 12.56c0.8645-1.0417 0.76448-1.6747-0.41994-2.6577-1.9113-1.5862-4.0441 0.086-3.1341 2.4578 0.7407 1.9302 2.0566 2.0042 3.5541 0.1999zm39.774-0.1999c0.91-2.3715-1.2228-4.044-3.1341-2.4578-1.1844 0.983-1.2844 1.616-0.41994 2.6577 1.4975 1.8043 2.8134 1.7303 3.5541-0.1999zm-39.942-31.555c1.3745-1.3745 0.55473-3.8781-1.2698-3.8781-1.7568 0-2.7686 1.7325-2.072 3.5479 0.66764 1.7398 1.8186 1.8535 3.3418 0.3302zm40.102-1.214c0.41214-2.1251-2.7371-3.4226-3.8676-1.5934-0.97361 1.5753 0.78203 4.1829 2.4438 3.6297 0.60496-0.2014 1.2457-1.1177 1.4238-2.0363zm157.57 59.926c-0.29753-0.7753 0.16659-2.778 1.0314-4.4503 0.86479-1.6723 1.5724-3.2879 1.5724-3.5903 0-0.3023-2.8984-0.5496-6.441-0.5496-3.5425 0-6.7336-0.4735-7.0912-1.0521-0.35764-0.5787-0.82049-6.5167-1.0286-13.196-0.36519-11.722-0.29085-12.258 2.1429-15.449 2.9075-3.8119 7.2033-6.3034 10.868-6.3034 2.5397 0 2.5497-0.034 2.5497-8.8 0-5.5111 0.44848-9.2485 1.2-10 1.2641-1.2642 28.139-1.7746 31.218-0.593 1.287 0.4939 1.5818 2.3573 1.5818 10v9.393h3.5223c2.7376 0 4.5199 0.9195 8 4.1273l4.4777 4.1274v12.673c0 8.5232-0.39292 13.066-1.2 13.873-0.66 0.66-3.81 1.2-7 1.2s-5.8 0.395-5.8 0.8779c0 0.4828 0.65716 2.4506 1.4604 4.3729 0.80319 1.9224 1.1782 3.7773 0.83333 4.1222-0.34486 0.3448-9.7911 0.627-20.992 0.627-16.6 0-20.465-0.2606-20.906-1.4098zm38.243-1.8957c0.2129-0.2129-0.73805-2.9313-2.1132-6.0408l-2.5003-5.6537h-12.829-12.829l-2.184 5.2693c-3.5501 8.5652-4.438 8.1238 14.942 7.4276 9.4192-0.3384 17.3-0.7895 17.513-1.0024zm8.3612-27.136c0-0.7925-0.48921-1.7433-1.0871-2.1129-1.412-0.8727-3.3394 1.0547-2.4667 2.4668 0.98021 1.586 3.5538 1.3297 3.5538-0.3539zm-44.244-4.309c0.29266-0.89-1.053-1.25-4.6723-1.25-4.765 0-6.05 0.7-4.3696 2.3804 1.1595 1.1595 8.5945 0.23 9.0419-1.1304zm31.081-1.5819 3.2294-3.3318-0.28319-11.918-0.28319-11.918-15.25-0.2761-15.25-0.276v12.182c0 11.518 0.139 12.364 2.5509 15.526l2.5509 3.3444h9.7529c9.7396 0 9.7574-0.01 12.982-3.3319zm-23.82-1.7c0-1.15 21.854-1.1814 22.564-0.032 0.31413 0.5083-4.4482 0.8961-11.005 0.8961-6.3575 0-11.559-0.3887-11.559-0.8637zm0-5.1363c0-0.6061 4.3333-1 11-1s11 0.3939 11 1c0 0.606-4.3333 1-11 1s-11-0.394-11-1zm0-5c0-0.609 4.5197-1 11.559-1 7.4514 0 11.339 0.3553 10.941 1-0.35109 0.5681-5.3437 1-11.559 1-6.6273 0-10.941-0.3943-10.941-1zm5.7892-5.7414c3.459-0.1959 8.859-0.1942 12 0 3.1409 0.1978 0.31081 0.358-6.2892 0.356-6.6 0-9.1699-0.1638-5.7108-0.3596zm0-5c3.459-0.1959 8.859-0.1942 12 0 3.1409 0.1978 0.31081 0.358-6.2892 0.356-6.6 0-9.1699-0.1638-5.7108-0.3596zm84.782 57.17c-1.3583-1.3582-1.5714-5.6144-1.5714-31.378 0-24.112 0.26344-30.025 1.379-30.951 0.95693-0.7942 7.3078-1.0612 20.75-0.8724l19.371 0.272 0.26573 31c0.2422 28.256 0.11465 31.111-1.4411 32.25-1.2137 0.8888-6.8313 1.25-19.444 1.25-14.792 0-17.998-0.261-19.309-1.5715zm28.259-7.308c4.2871-3.0527 6.6407-9.6559 5.264-14.769-3.4912-12.965-21.091-14.557-26.572-2.4032-5.9141 13.115 9.5278 25.56 21.308 17.172zm-10.58-7.3c-2.5144-0.9752-3.1474-5.6397-1.05-7.7371 1.6422-1.6422 5.2982-1.5096 6.7543 0.2449 2.9782 3.5885-1.2958 9.202-5.7043 7.4922zm-5.25-23.996c0-0.5176-0.675-0.941-1.5-0.941-1.5464 0-1.9867 1.1799-0.86052 2.3061 0.79893 0.799 2.3605-0.1042 2.3605-1.3651zm18 0c0-0.5176-0.675-0.941-1.5-0.941-1.5464 0-1.9867 1.1799-0.86052 2.3061 0.79893 0.799 2.3605-0.1042 2.3605-1.3651zm-5.4883-3.9539c4.2058-4.6474 0.80764-11.987-5.5499-11.987-3.2314 0-6.9618 3.99-6.9618 7.4463 0 5.6811 8.6415 8.8173 12.512 4.5408zm-7.0313-4.0189c-0.38836-0.6284-0.23556-1.613 0.33954-2.1881 1.3439-1.3439 4.4771-0.1717 3.9304 1.4704-0.5566 1.6717-3.3864 2.1473-4.2699 0.7177zm-5.48-10c0-0.5176-0.675-0.941-1.5-0.941-1.5464 0-1.9867 1.1799-0.86052 2.3061 0.79893 0.799 2.3605-0.1042 2.3605-1.3651zm18 0c0-0.5176-0.675-0.941-1.5-0.941-1.5464 0-1.9867 1.1799-0.86052 2.3061 0.79893 0.799 2.3605-0.1042 2.3605-1.3651zm-225 25.059v-15h23.566c14.332 0 24.324 0.4056 25.5 1.0352 1.7478 0.9354 1.9343 2.1949 1.9343 13.066 0 6.6168-0.46583 12.901-1.0352 13.965-0.98015 1.8315-2.3358 1.9343-25.5 1.9343h-24.465v-15zm29.548 3.8808c3.0043-2.8399 5.4524-3.7324 5.4524-1.9878 0 1.5165 3.1775 2.2045 4.6268 1.0018 3.4597-2.8713 0.0741-7.4381-3.7456-5.0526-3.1456 1.9644-8.0384 1.3812-10.827-1.2905-1.4549-1.394-4.3855-2.741-6.8047-3.1279-3.9249-0.6276-4.2492-0.5103-4.2492 1.5363 0 2.0144 0.3478 2.1569 3.8286 1.5688 2.913-0.4921 4.1578-0.2502 5.2048 1.0114 1.2635 1.5224 0.78893 1.631-5.7965 1.3268-7.6794-0.3548-10.575 0.8162-7.212 2.9164 1.179 0.7363 1.975 0.827 1.975 0.2249 0-0.6008 3.5226-1.0084 8.7143-1.0084 8.1276 0 8.6023 0.112 7.0504 1.6639-0.99797 0.998-3.0849 1.6105-5.2143 1.5305-2.9366-0.1104-3.5504 0.2148-3.5504 1.8813 0 1.7798 0.43758 1.9374 3.75 1.3504 2.0625-0.3655 5.1214-1.9609 6.7976-3.5453zm-46.548-3.8808v-9h7.5 7.5v9 9h-7.5-7.5v-9zm8 5c0-1.1111-0.66667-2-1.5-2s-1.5 0.8889-1.5 2 0.66667 2 1.5 2 1.5-0.8889 1.5-2zm0-10.083c0-2.4371-2.3368-2.0926-2.8233 0.4162-0.19138 0.9867 0.31876 1.6671 1.25 1.6671 0.92763 0 1.5733-0.855 1.5733-2.0833zm-27.5-44.917c0.33992-0.55 0.81648-1 1.059-1 0.24254 0 0.44098 0.45 0.44098 1s-0.47656 1-1.059 1c-0.58246 0-0.7809-0.45-0.44098-1zm99.5 0c0-0.55 0.45-1 1-1s1 0.45 1 1-0.45 1-1 1-1-0.45-1-1zm-66-22.326c0-5.1571-3.009-8.6355-7.5644-8.7446-1.6146-0.039-3.8356-0.4344-4.9356-0.8794-1.7466-0.7067-1.5566-0.9275 1.5-1.7433 4.4778-1.1951 4.6297-3.6981 0.25-4.1204-3.2488-0.3132-4.5829-2.0755-1.75-2.3116 0.825-0.069 1.95-0.2375 2.5-0.375s1.45-0.3063 2-0.375c2.0835-0.2605 0.94307-3.1254-1.25-3.1403-1.2375-0.01-2.8939-0.4228-3.6808-0.9208-1.0587-0.67-0.47355-1.085 2.25-1.596 4.0331-0.7566 5.1428-3.458 1.4308-3.4832-1.2375-0.01-2.8502-0.3958-3.5838-0.8609-1.064-0.6745-0.9969-0.9748 0.33179-1.4847 0.9161-0.3515 2.5288-0.6391 3.5838-0.6391 3.4635 0 2.066-2.7497-1.7626-3.468-2.7236-0.5109-3.3087-0.926-2.25-1.5959 0.78694-0.498 2.4763-0.9124 3.7541-0.9208 3.5332-0.023 2.4326-3.4147-1.1987-3.6938-3.0117-0.2315-4.3258-0.9537-3.4069-1.8725 0.30306-0.3031 1.8362-0.6499 3.4069-0.7706 3.6313-0.2791 4.7319-3.6705 1.1987-3.6937-1.2778-0.01-2.9239-0.396-3.6578-0.8613-1.538-0.9749 1.5767-2.0868 5.9102-2.1098 3.9173-0.021 6.9243-3.8545 6.9243-8.8281 0-5.0472 1.6559-5.5367 2.553-0.7546 0.44714 2.3834 1.0716 3.2666 2.0453 2.893 0.77093-0.2959 1.4086-1.2773 1.417-2.1809 0.008-0.9037 0.42397-2.2888 0.92344-3.0782 0.69208-1.0937 1.1082-0.6628 1.7493 1.811 1.0739 4.1442 2.5501 4.1442 3.6239 0 0.64105-2.4738 1.0572-2.9047 1.7493-1.811 0.49947 0.7894 0.91502 2.2227 0.92344 3.1852 0.008 0.9625 0.69031 1.75 1.5153 1.75 0.825 0 1.5069-0.7875 1.5153-1.75 0.008-0.9625 0.42397-2.3958 0.92344-3.1852 0.68785-1.087 1.124-0.6019 1.7982 2 1.1465 4.4247 3.6566 4.5387 4.0764 0.1852 0.39399-4.0863 2.1866-4.2913 2.1866-0.25 0 2.3333 0.44444 3 2 3 1.2323 0 2.0059-0.6718 2.0153-1.75 0.008-0.9625 0.44496-2.425 0.97008-3.25 0.74956-1.1777 1.0955-0.8016 1.6097 1.75 0.36021 1.7875 1.2174 3.25 1.9049 3.25s1.5447-1.4625 1.9049-3.25c0.51417-2.5516 0.86012-2.9277 1.6097-1.75 0.52512 0.825 0.96166 3.1177 0.97008 5.095 0.019 4.4537 2.4872 6.8806 7.094 6.9753 1.8817 0.039 4.3213 0.4348 5.4213 0.8804 1.6915 0.6852 1.4216 0.9229-1.75 1.541-2.7517 0.5363-3.75 1.2337-3.75 2.6196 0 1.4319 0.72559 1.8887 3 1.8887 1.65 0 3 0.45 3 1s-1.35 1-3 1c-4.622 0-4.08 3.3589 0.75 4.6483l3.75 1.0011-3.75 0.7866c-2.0625 0.4326-3.75 1.3321-3.75 1.9989s1.6875 1.6628 3.75 2.2134l3.75 1.0011-3.75 0.7866c-2.0625 0.4326-3.75 1.3321-3.75 1.9989s1.6875 1.6628 3.75 2.2134l3.75 1.0011-3.75 0.7866c-4.503 0.9445-4.9125 3.0815-0.75 3.914 1.65 0.33 3 1.0612 3 1.625 0 0.5637-1.35 1.025-3 1.025-2.3333 0-3 0.4444-3 2 0 1.4028 0.67177 2.0046 2.25 2.0153 1.2375 0.01 2.8505 0.396 3.5845 0.8613 1.6107 1.021-1.643 2.0886-6.4295 2.1097-3.9477 0.017-6.4008 2.7273-6.4203 7.0924-0.008 1.8817-0.42397 4.0671-0.92344 4.8564-0.68932 1.0894-1.1183 0.6239-1.7806-1.932-1.0328-3.9856-3.2736-5.2342-3.2959-1.8365-0.008 1.2834-0.42397 2.9792-0.92344 3.7685-0.68785 1.087-1.124 0.6019-1.7982-2-1.1465-4.4246-3.6566-4.5386-4.0764-0.1851-0.17235 1.7875-0.70633 3.25-1.1866 3.25-0.48031 0-1.0143-1.4625-1.1866-3.25-0.41976-4.3535-2.9298-4.2395-4.0764 0.1851-0.67422 2.6019-1.1104 3.087-1.7982 2-0.49947-0.7893-0.91502-2.4851-0.92344-3.7685-0.0224-3.4158-2.2605-2.1413-3.3389 1.9014-0.95369 3.5754-1.28 3.3283-3.0615-2.318-0.79107-2.5073-2.6121-2.1611-2.6302 0.5-0.008 1.2375-0.42397 2.8958-0.92344 3.6851-0.68932 1.0894-1.1183 0.6239-1.7806-1.932-1.1879-4.5841-2.9016-4.8369-3.7065-0.5466-0.92585 4.9352-2.5741 4.4343-2.5741-0.7822zm40.712-8.8825 4.2878-4.2082v-16.004-16.004l-4.2082-4.2879-4.2082-4.2878h-17-17l-3.7922 3.7029-3.7922 3.703v16.875 16.874l4.25 3.8958 4.25 3.8957 16.462 0.027 16.462 0.027 4.2878-4.2082zm-39.516-2.0894-3.1962-3.2976v-15.006-15.006l3.2976-3.1962 3.2976-3.1961h15.506 15.506l3.1962 3.2976 3.1962 3.2976v15.006 15.006l-3.2976 3.1962-3.2976 3.1962h-15.506-15.506l-3.1962-3.2976zm4.8038-3.7614c0-0.5176-0.675-0.941-1.5-0.941-1.5464 0-1.9867 1.1799-0.86052 2.3061 0.79893 0.799 2.3605-0.1042 2.3605-1.3651zm95.223 16.882c-1.894-1.894-1.743-61.147 0.15982-62.726 0.94816-0.7869 6.529-1.0612 17.75-0.8725l16.367 0.2754v32 32l-16.527 0.2731c-12.009 0.1985-16.861-0.061-17.75-0.95zm33.277-31.323v-31h-16.5-16.5l-0.26525 29.989c-0.14589 16.494-0.0432 30.568 0.22816 31.275 0.38021 0.9908 4.2267 1.2228 16.765 1.011l16.272-0.2749v-31zm-31.082 29.583c-0.22979-0.2292-0.4178-13.853-0.4178-30.276v-29.859l15.25 0.276 15.25 0.2761v29.896 29.896l-14.832 0.1039c-8.1577 0.057-15.02-0.084-15.25-0.3128zm26.355-4.8994c0.24155-0.7254-0.50667-1.5632-1.6671-1.8666-1.158-0.3028-2.1054-1.1731-2.1054-1.934 0-0.7608-0.675-1.3833-1.5-1.3833s-1.5 0.6891-1.5 1.5314c0 0.8422 0.675 1.7904 1.5 2.107 0.825 0.3165 1.5 1.2354 1.5 2.0419 0 1.782 3.1519 1.3673 3.7725-0.4964zm-14.77-20c0-0.6875-1.125-1.25-2.5-1.25s-2.5 0.5625-2.5 1.25 1.125 1.25 2.5 1.25 2.5-0.5625 2.5-1.25zm-0.28871-3.9401c0.35669-0.9295 0.23007-1.8368-0.28138-2.0162-2.2054-0.7737-3.8188-2.2381-3.1751-2.8819 0.38328-0.3832 1.3828-0.1276 2.221 0.5681 1.275 1.0582 1.5242 0.953 1.5242-0.6432 0-1.3045-0.71175-1.9163-2.25-1.9339-2.6989-0.031-4.0145 1.5735-2.6442 3.2246 0.66237 0.7981 0.62727 1.4195-0.10576 1.8726-0.78734 0.4866-0.76648 1.0764 0.0739 2.089 1.5886 1.9142 3.848 1.7782 4.6374-0.2791zm-3.2113-0.3099c-0.33992-0.55 0.11008-1 1-1s1.3399 0.45 1 1c-0.33992 0.55-0.78992 1-1 1s-0.66008-0.45-1-1zm2.9166-9.6432c0.75203-1.9597 0.13327-2.8147-1.3663-1.8879-0.59556 0.3681-0.76412 1.2007-0.37457 1.8502 0.40349 0.6727-0.0198 0.5903-0.98369-0.1916-0.95657-0.7759-1.692-0.9208-1.692-0.3333 0 0.9377 1.4501 1.919 3.143 2.1268 0.35366 0.043 0.92675-0.6604 1.2735-1.5642zm-2.3508-4.392c1.3333-0.7136 1.9343-0.7136 1.9343 0 0 0.5693 0.4875 1.0352 1.0833 1.0352 0.59584 0 0.89628-0.5625 0.66765-1.25-0.56548-1.7005-5.5251-1.781-6.1701-0.1003-0.62188 1.6206-0.0824 1.689 2.4848 0.3151zm2.9343-3.9648c0-0.8648-1.3932-1.2151-3.6382-0.9146-0.351 0.047-1.0191-0.5155-1.4847-1.25-0.60791-0.959-0.85081-0.7013-0.86181 0.9146-0.0125 1.8367 0.53571 2.25 2.9847 2.25 1.65 0 3-0.45 3-1zm-226 17.515v-29.515h29 29v29.383 29.383l-29 0.1321-29 0.132v-29.515zm55.376 25.254c0.83228-1.3216 0.72219-2.0992-0.46528-3.2867-2.8468-2.8468-7.3365 1.0949-4.7698 4.1876 1.4693 1.7704 3.8061 1.3683 5.2351-0.9009zm-47.88-1.8c0-1.8327-0.60174-2.5855-2.2545-2.8202-1.3523-0.192-2.4956 0.3082-2.857 1.25-0.99567 2.5947 0.39988 4.7392 2.857 4.3903 1.6527-0.2347 2.2545-0.9874 2.2545-2.8201zm33.421 0.54c20.019-10.144 19.773-38.788-0.41382-48.189-11.084-5.1615-25.048-1.9086-32.23 7.5078-4.1374 5.4245-6.7084 13.996-5.854 19.517 1.5432 9.9713 8.7053 19.118 17.402 22.224 6.2343 2.2265 15.532 1.7593 21.096-1.0599zm-24.421-2.8129c-5.6661-3.2313-5.6754-5.6268-0.0503-12.87 4.1018-5.2818 4.9809-7.8567 2.6824-7.8567-0.41239 0-3.3882 1.5888-6.613 3.5306-4.4562 2.6834-6.0584 3.2233-6.6765 2.25-1.4918-2.3492-2.0559-7.6407-1.1169-10.477 1.1125-3.3602 4.6724-4.0273 12.515-2.3454 9.3243 1.9997 8.8451-1.812-0.82235-6.5419-4.5765-2.2391-5.2314-2.8975-4.4093-4.4336 1.2578-2.3502 7.1694-5.9827 9.7364-5.9827 2.6211 0 3.9553 1.712 6.7992 8.7244 1.2882 3.1766 3.0427 5.9211 3.8987 6.0989 1.3001 0.2701 1.5565-0.9242 1.5565-7.25 0-6.1357 0.29083-7.5733 1.5321-7.5733 2.5569 0 7.8547 2.5969 9.8365 4.8217 1.8322 2.057 1.8196 2.1814-0.64636 6.3893-1.3832 2.3603-3.4616 5.1481-4.6186 6.1952s-2.1036 2.7643-2.1036 3.8161c0 2.4516 2.741 1.7024 8.9429-2.4444 4.1872-2.7997 4.5182-2.8678 5.75-1.1832 1.6388 2.2412 1.7121 10.6 0.10706 12.205-1.4224 1.4224-6.7316 1.5176-12.3 0.2205-2.9655-0.6908-4.3359-0.5981-5.299 0.3585-1.0635 1.0564-0.55811 1.7807 2.7875 3.9947 2.2476 1.4874 5.2127 3.1325 6.5892 3.6558 2.055 0.7814 2.3239 1.2857 1.5031 2.8194-1.322 2.4702-5.3733 5.0596-9.0742 5.7998-2.8149 0.5629-3.1272 0.2911-5.486-4.7759-1.3756-2.9551-2.5055-5.9032-2.5109-6.5514-0.0144-1.7396-3.0157-4.4358-4.1543-3.7321-0.5408 0.3342-0.87688 3.8259-0.74684 7.7592 0.21148 6.3964 0.0334 7.1783-1.6861 7.4056-1.0574 0.1398-3.7225-0.7724-5.9225-2.027zm17.427-17.362c2.593-3.2964 2.593-4.4339 0-7.7303-3.8164-4.8517-10.927-2.3364-10.927 3.8652s7.1111 8.7168 10.927 3.8651zm-26.456-25.72c2.1011-1.5364 1.5294-4.3234-1.0933-5.3298-2.368-0.9087-4.6157 2.3726-3.3041 4.8233 1.1873 2.2186 1.9378 2.305 4.3974 0.5065zm48.03-1.59c0-1.8328-0.60174-2.5855-2.2545-2.8202-1.3523-0.192-2.4956 0.3082-2.857 1.25-0.99567 2.5947 0.39988 4.7392 2.857 4.3903 1.6527-0.2347 2.2545-0.9874 2.2545-2.8201zm264.38 49.619c-11.777-4.2085-18.965-14.275-18.806-26.337 0.13719-10.427 5.1133-18.889 13.985-23.782 4.7809-2.6369 6.4077-2.9979 13.439-2.9827 9.5126 0.021 13.887 1.9244 20.228 8.8034 4.2716 4.6341 7.272 12.135 7.272 18.179 0 10.994-8.7038 22.904-18.932 25.906-6.4838 1.903-12.258 1.9748-17.186 0.2136zm16.624-2.7923c0.32067-0.3207-0.57322-3.4713-1.9864-7.0014-2.5397-6.344-2.6096-6.4136-6.0362-6.0136-2.9074 0.3394-4.0329-0.1614-6.9752-3.1037-2.8022-2.8022-3.5084-4.2873-3.5084-7.3776 0-3.6958-0.26887-4.017-5.9992-7.1672l-5.9992-3.2981-1.0008 2.6323c-0.55045 1.4478-1.0008 5.2147-1.0008 8.3709 0 10.257 6.0543 18.968 15.754 22.667 3.5828 1.3664 15.471 1.5729 16.753 0.2911zm4.9999-2.8371c0.64626-1.0457-6.3764-10.872-7.8239-10.947-0.44973-0.023 0.66664 2.6574 2.4808 5.9574 3.317 6.0337 4.1926 6.8514 5.343 4.99zm7.4938-7.4045c0-1.3437-8.8746-7.0442-9.6928-6.2261-0.31741 0.3174 8.6053 7.5085 9.4428 7.6102 0.1375 0.017 0.25-0.6061 0.25-1.3841zm3.7219-14.658c-1.2158-13.549-11.451-22.928-25.023-22.928-2.5129 0-5.7097 0.4337-7.1039 0.9638l-2.5351 0.9638 2.741 6.1383 2.741 6.1383 4.7472 0.1888c6.3919 0.2543 10.001 3.7077 10.253 9.8121 0.17208 4.1552 0.36946 4.3992 6.0676 7.5016l5.8897 3.2066 1.361-3.2066c0.8626-2.0325 1.1779-5.2473 0.86093-8.7791zm-19.629 4.898c2.9799-5.568-2.5471-11.724-7.5708-8.4324-1.304 0.8544-2.6549 2.4485-3.0021 3.5424-1.8985 5.9817 7.63 10.389 10.573 4.89zm-19.08-13.8c-4.7987-4.2019-6-4.7502-6-2.7387 0 1.2502 7.5779 6.5399 9.5 6.6314 0.55 0.026-1.025-1.7256-3.5-3.8927zm5.4102-5.6715c-1.5214-2.6557-2.8811-4.9861-3.0216-5.1787-0.14053-0.1925-0.72785-0.058-1.3052 0.2986-0.63992 0.3955 0.3855 2.5711 2.6269 5.5734 2.0221 2.7085 3.8542 4.747 4.0713 4.5299 0.21708-0.2171-0.85005-2.5675-2.3714-5.2232zm-118.91 40.8c-4.2059-0.8993-3.7332-2.4579 1-3.2972 7.346-1.3027 8.5-1.0752 8.5 1.6754 0 2.1781-0.41845 2.4847-3.25 2.3817-1.7875-0.065-4.6-0.407-6.25-0.7599zm48.5-1.7577c0-2.5606 0.13273-2.6178 4.6396-2 2.5518 0.3497 5.2518 0.6359 6 0.6359 0.74824 0 1.3604 0.6138 1.3604 1.3641 0 0.8647-1.6984 1.5968-4.6396 2-7.0389 0.9647-7.3604 0.8774-7.3604-2zm-47.921-7.2458c-5.1321-0.9277-4.8592-2.7396 0.52372-3.4774 7.7149-1.0575 8.3968-0.9065 8.3968 1.8591 0 2.6974-1.4731 2.9647-8.9205 1.6183zm47.921-1.7542c0-2.5606 0.13273-2.6178 4.6396-2 2.5518 0.3497 5.2518 0.6359 6 0.6359 0.74824 0 1.3604 0.6138 1.3604 1.3641 0 0.8647-1.6984 1.5968-4.6396 2-7.0389 0.9647-7.3604 0.8774-7.3604-2zm-45.5-7.3641c-0.33992-0.55-1.9415-1-3.559-1s-2.941-0.45-2.941-1 1.3234-1 2.941-1c1.6175 0 3.2191-0.45 3.559-1 0.33992-0.55 1.9415-1 3.559-1 2.6011 0 2.941 0.3467 2.941 3s-0.33989 3-2.941 3c-1.6175 0-3.2191-0.45-3.559-1zm45.5-2c0-2.6667 0.33333-3 3-3 1.65 0 3 0.45 3 1s1.35 1 3 1 3 0.45 3 1-1.35 1-3 1-3 0.45-3 1-1.35 1-3 1c-2.6667 0-3-0.3334-3-3zm-45.5-7c-0.33992-0.55-1.9415-1-3.559-1s-2.941-0.45-2.941-1 1.3234-1 2.941-1c1.6175 0 3.2191-0.45 3.559-1 0.33992-0.55 1.9415-1 3.559-1 2.6011 0 2.941 0.3467 2.941 3s-0.33989 3-2.941 3c-1.6175 0-3.2191-0.45-3.559-1zm45.5-2c0-2.6533 0.33989-3 2.941-3 1.6175 0 3.2191 0.45 3.559 1 0.33992 0.55 1.7165 1 3.059 1s2.441 0.45 2.441 1-1.35 1-3 1-3 0.45-3 1-1.35 1-3 1c-2.6667 0-3-0.3334-3-3zm-48.75-7.6c-3.0506-0.3786-4.197-1.5789-2.5-2.6177 0.4125-0.2525 3.3375-0.7809 6.5-1.1742 5.7165-0.711 5.75-0.6999 5.75 1.9001 0 2.7855-0.99409 2.9784-9.75 1.8918zm48.75-1.9125c0-2.5606 0.13273-2.6178 4.6396-2 2.5518 0.3497 5.2518 0.6359 6 0.6359 0.74824 0 1.3604 0.6138 1.3604 1.3641 0 0.8647-1.6984 1.5968-4.6396 2-7.0389 0.9647-7.3604 0.8774-7.3604-2zm-47.789-7.2458c-6.4434-1.2113-3.0126-3.6887 5.5394-4 2.8316-0.1031 3.25 0.2036 3.25 2.3817 0 2.6915-1.5563 2.9781-8.7894 1.6183zm47.79-1.8c0-2.5606 0.13273-2.6178 4.6396-2 2.5518 0.3497 5.2518 0.6359 6 0.6359 0.74824 0 1.3604 0.6138 1.3604 1.3641 0 0.8647-1.6984 1.5968-4.6396 2-7.0389 0.9647-7.3604 0.8774-7.3604-2z"/>
  <path d="m8 1037.4c-3.866 0-7 3.134-7 7s3.134 7 7 7 7-3.134 7-7-3.134-7-7-7zm2.3516 1.3399c1.5008 0.6216 2.6596 1.8077 3.2812 3.3085l-2.3789 1.0118c-0.34278-0.8276-1.0211-1.5169-1.9141-1.8868l1.0117-2.4335zm-2.352 3c1.4497 0 2.625 1.1752 2.625 2.625s-1.1753 2.625-2.625 2.625-2.625-1.1752-2.625-2.625 1.1753-2.625 2.625-2.625zm0 0.875c-0.9665 0-1.75 0.7835-1.75 1.75s0.7835 1.75 1.75 1.75 1.75-0.7835 1.75-1.75-0.7835-1.75-1.75-1.75zm0 0.875c0.48325 0 0.875 0.3917 0.875 0.875s-0.39175 0.875-0.875 0.875-0.875-0.3917-0.875-0.875 0.39175-0.875 0.875-0.875zm-3.2539 2.2149c0.34278 0.8275 1.0211 1.5168 1.9141 1.8867l-1.0117 2.4336c-1.5008-0.6217-2.6596-1.8078-3.2813-3.3086l2.3789-1.0117z" fill="#4d4d4d" color="#000000"/>
 </g>
</svg>
