<svg height="22" width="22" xmlns="http://www.w3.org/2000/svg" xmlns:sodipodi="http://sodipodi.sourceforge.net/DTD/sodipodi-0.dtd" xmlns:inkscape="http://www.inkscape.org/namespaces/inkscape">
 <path d="m3 3v4h6 1 1v8h-1-1-6v4h9v-4-2h7v-4h-7v-2-4h-9zm1 1h7v2h-7v-2zm3.5 4c-0.277 0-0.5 0.223-0.5 0.5s0.223 0.5 0.5 0.5 0.5-0.223 0.5-0.5-0.223-0.5-0.5-0.5zm4.5 2h1 1 4v2h-4-1-1v-2zm-4.5 3c-0.277 0-0.5 0.223-0.5 0.5s0.223 0.5 0.5 0.5 0.5-0.223 0.5-0.5-0.223-0.5-0.5-0.5zm-3.5 3h7v2h-7v-2z" fill="#4d4d4d" transform="matrix(1 0 0 1 0 0)"/>
</svg>
