<svg height="22" width="22" xmlns="http://www.w3.org/2000/svg" xmlns:sodipodi="http://sodipodi.sourceforge.net/DTD/sodipodi-0.dtd" xmlns:inkscape="http://www.inkscape.org/namespaces/inkscape">
 <path d="M 7.964684,18.754208 C 6.351229,18.600766 5.1812223,18.323499 4.9174945,18.032081 4.7515874,17.848756 4.8439725,17.618538 5.1240848,17.517246 l 0.238252,-0.08616 -0.1935965,-0.0979 C 4.6706996,17.081328 4.3162068,16.807282 4.2164062,16.596972 c 6.0652808,-0.04989 6.8732838,-0.136861 13.6352348,-0.23688 0,0.209399 -0.05129,0.296034 -0.31022,0.52395 -0.170622,0.150187 -0.498759,0.347954 -0.729192,0.439481 l -0.418971,0.166416 0.197378,0.08299 c 0.25855,0.108711 0.307888,0.199886 0.200885,0.371225 -0.183049,0.293108 -1.055964,0.551065 -2.517656,0.743998 -1.173754,0.154926 -4.9580082,0.194539 -6.309175,0.06604 z" fill="#000000" fill-opacity="1" sodipodi:nodetypes="ssscsccsscsssss" inkscape:connector-curvature="0"/>
 <path d="M 11 3.15625 C 9.8889014 3.1380112 8.8854079 3.6821285 8.40625 4.5625 C 8.113817 5.0998 8.0011 5.533151 8 6.40625 C 7.999327 7.043543 7.98801 7.1875 7.90625 7.1875 C 7.750182 7.1875 7.592971 7.477674 7.59375 7.75 C 7.594685 8.087805 7.877233 8.671473 8.15625 8.90625 C 8.2979 9.02544 8.458059 9.281615 8.59375 9.59375 C 8.85182 10.187407 9.051516 10.539122 9.25 10.71875 C 9.486456 10.93274 9.411054 11.535082 9.09375 11.8125 C 7.253527 12.666624 6.5750139 12.696073 5.03125 13.78125 C 4.627519 14.184981 4.553039 14.390574 4.28125 15.59375 C 4.12074 16.304263 4.117484 16.380344 4.21875 16.59375 C 4.318551 16.80406 4.65821 17.091892 5.15625 17.34375 L 5.375 17.4375 C 7.138849 18.153305 11.841875 18.527385 16.40625 17.5 L 16.8125 17.3125 C 17.042933 17.220973 17.360628 17.025187 17.53125 16.875 C 17.79018 16.647084 17.84375 16.584399 17.84375 16.375 C 17.84375 16.056595 17.515353 14.62059 17.375 14.34375 C 17.064833 13.731961 16.567212 13.358656 15.59375 12.96875 C 15.199177 12.805824 14.70117 12.584682 14.25 12.40625 C 12.891231 11.909427 12.625512 11.680103 12.625 11.03125 C 12.624791 10.767655 12.659917 10.614023 12.875 10.28125 C 13.022715 10.052705 13.22812 9.6943804 13.3125 9.46875 C 13.431414 9.150775 13.502945 9.02662 13.65625 8.96875 C 14.109477 8.797679 14.480827 7.667872 14.1875 7.34375 C 14.119119 7.268187 14.02038 7.1875 13.96875 7.1875 C 13.89573 7.1875 13.875668 7.017014 13.875 6.40625 C 13.873745 5.218724 13.629854 4.5543469 13.03125 3.96875 C 12.60661 3.553337 12.11814 3.319708 11.46875 3.21875 C 11.306815 3.1935744 11.158728 3.1588555 11 3.15625 z M 10.96875 4.28125 C 11.55975 4.28125 12.086 4.436 12.5 4.75 C 12.949 5.093 13.15625 5.551 13.15625 6.125 C 13.15625 6.57 13.022 6.96125 12.75 7.28125 C 12.667 7.38725 12.414 7.58025 12 7.90625 C 11.728 8.12525 11.59375 8.34125 11.59375 8.53125 L 11.59375 8.84375 L 9.96875 8.84375 L 9.96875 8.34375 C 9.96875 8.00675 10.08375 7.69625 10.34375 7.40625 C 10.34875 7.39425 10.5895 7.176 11.0625 6.75 C 11.3235 6.519 11.46875 6.28975 11.46875 6.09375 C 11.46875 5.96375 11.4135 5.86425 11.3125 5.78125 C 11.2125 5.69225 11.0735 5.65625 10.9375 5.65625 C 10.7595 5.65625 10.6515 5.71375 10.5625 5.84375 C 10.4745 5.97475 10.4315 6.1285 10.4375 6.3125 L 8.84375 6.3125 L 8.84375 6.15625 C 8.84375 5.57025 9.0683 5.13025 9.5 4.78125 C 9.8962 4.45525 10.37075 4.28125 10.96875 4.28125 z M 10.8125 9.53125 C 11.0795 9.53125 11.2715 9.60925 11.4375 9.78125 C 11.6085 9.95225 11.71875 10.1715 11.71875 10.4375 C 11.71875 10.7035 11.6085 10.92775 11.4375 11.09375 C 11.2715 11.26575 11.0795 11.34375 10.8125 11.34375 C 10.5465 11.34375 10.32825 11.26575 10.15625 11.09375 C 9.99095 10.92775 9.90625 10.7035 9.90625 10.4375 C 9.90625 10.1715 9.99095 9.95225 10.15625 9.78125 C 10.32825 9.60925 10.5465 9.53125 10.8125 9.53125 z " fill="#4d4d4d" fill-opacity="1"/>
</svg>
