<?xml version="1.0" encoding="UTF-8" standalone="no"?>
<!-- Created with Inkscape (http://www.inkscape.org/) -->

<svg
   xmlns:dc="http://purl.org/dc/elements/1.1/"
   xmlns:cc="http://creativecommons.org/ns#"
   xmlns:rdf="http://www.w3.org/1999/02/22-rdf-syntax-ns#"
   xmlns:svg="http://www.w3.org/2000/svg"
   xmlns="http://www.w3.org/2000/svg"
   xmlns:sodipodi="http://sodipodi.sourceforge.net/DTD/sodipodi-0.dtd"
   xmlns:inkscape="http://www.inkscape.org/namespaces/inkscape"
   id="svg2"
   height="16"
   width="16"
   version="1.1"
   inkscape:version="0.48.5 r10040"
   sodipodi:docname="mixer-cd.svg">
  <sodipodi:namedview
     pagecolor="#ffffff"
     bordercolor="#666666"
     borderopacity="1"
     objecttolerance="10"
     gridtolerance="10"
     guidetolerance="10"
     inkscape:pageopacity="0"
     inkscape:pageshadow="2"
     inkscape:window-width="640"
     inkscape:window-height="480"
     id="namedview13153" />
  <defs
     id="defs4">
    <filter
       id="filter3174-3"
       color-interpolation-filters="sRGB">
      <feGaussianBlur
         id="feGaussianBlur3176-6"
         stdDeviation="1.71" />
    </filter>
    <filter
       id="filter3794-6"
       height="1.384"
       width="1.384"
       color-interpolation-filters="sRGB"
       y="-.192"
       x="-.192">
      <feGaussianBlur
         id="feGaussianBlur3796-9"
         stdDeviation="5.28" />
    </filter>
    <clipPath
       id="clipPath4355-3">
      <rect
         id="rect4357-1"
         style="fill:#fff"
         rx="6"
         ry="6"
         height="80"
         width="84"
         y="6"
         x="6" />
    </clipPath>
    <filter
       id="filter3174-7"
       color-interpolation-filters="sRGB">
      <feGaussianBlur
         id="feGaussianBlur3176-63"
         stdDeviation="1.71" />
    </filter>
    <filter
       id="filter3794-69"
       height="1.384"
       width="1.384"
       color-interpolation-filters="sRGB"
       y="-.192"
       x="-.192">
      <feGaussianBlur
         id="feGaussianBlur3796-0"
         stdDeviation="5.28" />
    </filter>
    <clipPath
       id="clipPath4355-6">
      <rect
         id="rect4357-2"
         style="fill:#fff"
         rx="6"
         ry="6"
         height="80"
         width="84"
         y="6"
         x="6" />
    </clipPath>
    <clipPath
       id="clipPath4355-6-2">
      <rect
         id="rect4357-2-6"
         style="fill:#fff"
         rx="6"
         ry="6"
         height="80"
         width="84"
         y="6"
         x="6" />
    </clipPath>
    <filter
       id="filter3794-69-0"
       height="1.384"
       width="1.384"
       color-interpolation-filters="sRGB"
       y="-.192"
       x="-.192">
      <feGaussianBlur
         id="feGaussianBlur3796-0-2"
         stdDeviation="5.28" />
    </filter>
    <filter
       id="filter3174-7-4"
       color-interpolation-filters="sRGB">
      <feGaussianBlur
         id="feGaussianBlur3176-63-0"
         stdDeviation="1.71" />
    </filter>
    <clipPath
       id="clipPath4355-3-0">
      <rect
         id="rect4357-1-3"
         style="fill:#fff"
         rx="6"
         ry="6"
         height="80"
         width="84"
         y="6"
         x="6" />
    </clipPath>
    <filter
       id="filter3794-6-2"
       height="1.384"
       width="1.384"
       color-interpolation-filters="sRGB"
       y="-.192"
       x="-.192">
      <feGaussianBlur
         id="feGaussianBlur3796-9-7"
         stdDeviation="5.28" />
    </filter>
    <filter
       id="filter3174-3-7"
       color-interpolation-filters="sRGB">
      <feGaussianBlur
         id="feGaussianBlur3176-6-7"
         stdDeviation="1.71" />
    </filter>
  </defs>
  <metadata
     id="metadata7">
    <rdf:RDF>
      <cc:Work
         rdf:about="">
        <dc:format>image/svg+xml</dc:format>
        <dc:type
           rdf:resource="http://purl.org/dc/dcmitype/StillImage" />
        <dc:title />
      </cc:Work>
    </rdf:RDF>
  </metadata>
  <g
     id="layer1"
     transform="translate(0 -1036.4)">
    <rect
       id="rect3745"
       style="opacity:.9;filter:url(#filter3174-7);display:none"
       transform="matrix(.512 0 0 .512 -32.522 1016.2)"
       rx="6"
       ry="6"
       height="85"
       width="86"
       y="7"
       x="5" />
    <rect
       id="rect3171"
       style="opacity:.1;filter:url(#filter3794-69);stroke:#fff;stroke-linecap:round;stroke-width:.5;display:none"
       transform="matrix(.512 0 0 .512 -32.522 1016.2)"
       clip-path="url(#clipPath4355-6)"
       rx="12"
       ry="12"
       height="62"
       width="66"
       y="15"
       x="15" />
    <rect
       id="rect3745-7"
       style="opacity:.9;filter:url(#filter3174-3);display:none"
       transform="matrix(.512 0 0 .512 -32.571 1020.4)"
       rx="6"
       ry="6"
       height="85"
       width="86"
       y="7"
       x="5" />
    <rect
       id="rect3171-6"
       style="opacity:.1;filter:url(#filter3794-6);stroke:#fff;stroke-linecap:round;stroke-width:.5;display:none"
       transform="matrix(.512 0 0 .512 -32.571 1020.4)"
       clip-path="url(#clipPath4355-3)"
       rx="12"
       ry="12"
       height="62"
       width="66"
       y="15"
       x="15" />
    <path
       id="path3123"
       style="color:#000000;fill:#4d4d4d"
       d="m8 1037.4c-3.866 0-7 3.134-7 7s3.134 7 7 7 7-3.134 7-7-3.134-7-7-7zm2.3516 1.3399c1.5008 0.6216 2.6596 1.8077 3.2812 3.3085l-2.3789 1.0118c-0.34278-0.8276-1.0211-1.5169-1.9141-1.8868l1.0117-2.4335zm-2.352 3c1.4497 0 2.625 1.1752 2.625 2.625s-1.1753 2.625-2.625 2.625-2.625-1.1752-2.625-2.625 1.1753-2.625 2.625-2.625zm0 0.875c-0.9665 0-1.75 0.7835-1.75 1.75s0.7835 1.75 1.75 1.75 1.75-0.7835 1.75-1.75-0.7835-1.75-1.75-1.75zm0 0.875c0.48325 0 0.875 0.3917 0.875 0.875s-0.39175 0.875-0.875 0.875-0.875-0.3917-0.875-0.875 0.39175-0.875 0.875-0.875zm-3.2539 2.2149c0.34278 0.8275 1.0211 1.5168 1.9141 1.8867l-1.0117 2.4336c-1.5008-0.6217-2.6596-1.8078-3.2813-3.3086l2.3789-1.0117z" />
    <rect
       id="rect3745-5"
       style="opacity:.9;filter:url(#filter3174-7-4);display:none"
       transform="matrix(.512 0 0 .512 -88.436 949)"
       rx="6"
       ry="6"
       height="85"
       width="86"
       y="7"
       x="5" />
    <rect
       id="rect3171-2"
       style="opacity:.1;filter:url(#filter3794-69-0);stroke:#fff;stroke-linecap:round;stroke-width:.5;display:none"
       transform="matrix(.512 0 0 .512 -88.436 949)"
       clip-path="url(#clipPath4355-6-2)"
       rx="12"
       ry="12"
       height="62"
       width="66"
       y="15"
       x="15" />
    <rect
       id="rect3745-7-5"
       style="opacity:.9;filter:url(#filter3174-3-7);display:none"
       transform="matrix(.512 0 0 .512 -88.485 953.27)"
       rx="6"
       ry="6"
       height="85"
       width="86"
       y="7"
       x="5" />
    <rect
       id="rect3171-6-7"
       style="opacity:.1;filter:url(#filter3794-6-2);stroke:#fff;stroke-linecap:round;stroke-width:.5;display:none"
       transform="matrix(.512 0 0 .512 -88.485 953.27)"
       clip-path="url(#clipPath4355-3-0)"
       rx="12"
       ry="12"
       height="62"
       width="66"
       y="15"
       x="15" />
    <path
       id="path3261"
       d="m12.923 1041.8v6.8678c-0.42606-0.1669-0.98278-0.1934-1.5573-0.037-1.0738 0.2905-1.7949 1.1034-1.6057 1.8163 0.18918 0.7129 1.2121 1.0571 2.2859 0.7666 0.91229-0.2467 1.3518-0.8723 1.4123-1.4918h0.0068v-6.3075c0.59291 0.4228 2.1158 2.1913 0.95622 4.1759 0.58617-1.0281 0.66454-2.3079 0.50824-2.9368s-0.68435-1.2754-1.2302-1.8592c-0.57341-0.6133-0.77641-0.9933-0.77641-0.9933z"
       style="fill:#a00" />
  </g>
</svg>
