<svg height="16" width="16" xmlns="http://www.w3.org/2000/svg" xmlns:sodipodi="http://sodipodi.sourceforge.net/DTD/sodipodi-0.dtd" xmlns:inkscape="http://www.inkscape.org/namespaces/inkscape">
 <g transform="matrix(1 0 0 1 0 -1036.4)">
  <path d="m8 1037.4c-3.866 0-7 3.134-7 7s3.134 7 7 7 7-3.134 7-7-3.134-7-7-7zm2.3516 1.3399c1.5008 0.6216 2.6596 1.8077 3.2812 3.3085l-2.3789 1.0118c-0.34278-0.8276-1.0211-1.5169-1.9141-1.8868l1.0117-2.4335zm-2.352 3c1.4497 0 2.625 1.1752 2.625 2.625s-1.1753 2.625-2.625 2.625-2.625-1.1752-2.625-2.625 1.1753-2.625 2.625-2.625zm0 0.875c-0.9665 0-1.75 0.7835-1.75 1.75s0.7835 1.75 1.75 1.75 1.75-0.7835 1.75-1.75-0.7835-1.75-1.75-1.75zm0 0.875c0.48325 0 0.875 0.3917 0.875 0.875s-0.39175 0.875-0.875 0.875-0.875-0.3917-0.875-0.875 0.39175-0.875 0.875-0.875zm-3.2539 2.2149c0.34278 0.8275 1.0211 1.5168 1.9141 1.8867l-1.0117 2.4336c-1.5008-0.6217-2.6596-1.8078-3.2813-3.3086l2.3789-1.0117z" fill="#4d4d4d" color="#000000"/>
  <path d="m12.923 1041.8v6.8678c-0.42606-0.1669-0.98278-0.1934-1.5573-0.037-1.0738 0.2905-1.7949 1.1034-1.6057 1.8163 0.18918 0.7129 1.2121 1.0571 2.2859 0.7666 0.91229-0.2467 1.3518-0.8723 1.4123-1.4918h0.0068v-6.3075c0.59291 0.4228 2.1158 2.1913 0.95622 4.1759 0.58617-1.0281 0.66454-2.3079 0.50824-2.9368s-0.68435-1.2754-1.2302-1.8592c-0.57341-0.6133-0.77641-0.9933-0.77641-0.9933z" fill="#a00"/>
 </g>
</svg>
