<svg height="22" viewBox="0 0 22 22" width="22" xmlns="http://www.w3.org/2000/svg" xmlns:sodipodi="http://sodipodi.sourceforge.net/DTD/sodipodi-0.dtd" xmlns:inkscape="http://www.inkscape.org/namespaces/inkscape">
 <g transform="matrix(1 0 0 1 0 -1030.4)">
  <path d="m3 3v1h16v-1zm0 3v1h16v-1zm0 3v1h16v-1zm7 3v1h9v-1zm0 3v1h9v-1zm0 3v1h9v-1z" fill="#4d4d4d" transform="matrix(1 0 0 1 0 1030.4)"/>
  <path d="m6.1096 1041.4v5.7907c-0.32584-0.2788-0.79868-0.4575-1.3319-0.4575-0.9818 0-1.7777 0.6-1.7777 1.3 0 0.7363 0.79593 1.3318 1.7777 1.3318 0.98181 0 1.7777-0.5955 1.7777-1.3318v-4.8874c2.7221 0 2.0483 2.3752 1.8356 2.9707 1.2246-2.5841-0.35837-3.3017-1.0134-3.7929-0.66665-0.5-0.82228-0.9555-0.82228-0.9555z" fill="#4d4d4d"/>
 </g>
</svg>
