<?xml version="1.0" encoding="UTF-8" standalone="no"?>
<!-- Created with Inkscape (http://www.inkscape.org/) -->

<svg
   xmlns:dc="http://purl.org/dc/elements/1.1/"
   xmlns:cc="http://creativecommons.org/ns#"
   xmlns:rdf="http://www.w3.org/1999/02/22-rdf-syntax-ns#"
   xmlns:svg="http://www.w3.org/2000/svg"
   xmlns="http://www.w3.org/2000/svg"
   xmlns:sodipodi="http://sodipodi.sourceforge.net/DTD/sodipodi-0.dtd"
   xmlns:inkscape="http://www.inkscape.org/namespaces/inkscape"
   id="svg2"
   height="22"
   viewBox="0 0 22 22"
   width="22"
   version="1.1"
   inkscape:version="0.48.5 r10040"
   sodipodi:docname="music-amarok.svg">
  <sodipodi:namedview
     pagecolor="#ffffff"
     bordercolor="#666666"
     borderopacity="1"
     objecttolerance="10"
     gridtolerance="10"
     guidetolerance="10"
     inkscape:pageopacity="0"
     inkscape:pageshadow="2"
     inkscape:window-width="640"
     inkscape:window-height="480"
     id="namedview13495" />
  <defs
     id="defs4">
    <clipPath
       id="clipPath4355">
      <rect
         id="rect4357"
         style="fill:#fff"
         rx="6"
         ry="6"
         height="80"
         width="84"
         y="6"
         x="6" />
    </clipPath>
    <filter
       id="filter3794"
       height="1.384"
       width="1.384"
       color-interpolation-filters="sRGB"
       y="-.192"
       x="-.192">
      <feGaussianBlur
         id="feGaussianBlur3796"
         stdDeviation="5.28" />
    </filter>
    <filter
       id="filter3174"
       color-interpolation-filters="sRGB">
      <feGaussianBlur
         id="feGaussianBlur3176"
         stdDeviation="1.71" />
    </filter>
  </defs>
  <metadata
     id="metadata7">
    <rdf:RDF>
      <cc:Work
         rdf:about="">
        <dc:format>image/svg+xml</dc:format>
        <dc:type
           rdf:resource="http://purl.org/dc/dcmitype/StillImage" />
        <dc:title />
      </cc:Work>
    </rdf:RDF>
  </metadata>
  <g
     id="layer1"
     transform="translate(0 -1030.4)">
    <path
       id="rect4110"
       style="fill:#4d4d4d"
       d="m3 3v1h16v-1zm0 3v1h16v-1zm0 3v1h16v-1zm7 3v1h9v-1zm0 3v1h9v-1zm0 3v1h9v-1z"
       transform="translate(0 1030.4)" />
    <g
       id="layer2"
       style="fill:#4d4d4d;display:none"
       transform="matrix(.18530 0 0 .18530 -4.968 1036.9)">
      <rect
         id="rect3745"
         style="opacity:.9;filter:url(#filter3174);fill:#4d4d4d"
         rx="6"
         ry="6"
         height="85"
         width="86"
         y="7"
         x="5" />
    </g>
    <g
       id="layer5"
       style="fill:#4d4d4d;display:none"
       transform="matrix(.18530 0 0 .18530 -4.968 1036.9)">
      <rect
         id="rect3171"
         style="opacity:.1;filter:url(#filter3794);stroke:#fff;stroke-linecap:round;stroke-width:.5;fill:#4d4d4d"
         clip-path="url(#clipPath4355)"
         rx="12"
         ry="12"
         height="62"
         width="66"
         y="15"
         x="15" />
    </g>
    <path
       id="path2834"
       d="m6.1096 1041.4v5.7907c-0.32584-0.2788-0.79868-0.4575-1.3319-0.4575-0.9818 0-1.7777 0.6-1.7777 1.3 0 0.7363 0.79593 1.3318 1.7777 1.3318 0.98181 0 1.7777-0.5955 1.7777-1.3318v-4.8874c2.7221 0 2.0483 2.3752 1.8356 2.9707 1.2246-2.5841-0.35837-3.3017-1.0134-3.7929-0.66665-0.5-0.82228-0.9555-0.82228-0.9555z"
       style="fill:#4d4d4d" />
  </g>
</svg>
