<?xml version="1.0" encoding="UTF-8" standalone="no"?>
<!-- Created with Inkscape (http://www.inkscape.org/) -->

<svg
   xmlns:dc="http://purl.org/dc/elements/1.1/"
   xmlns:cc="http://creativecommons.org/ns#"
   xmlns:rdf="http://www.w3.org/1999/02/22-rdf-syntax-ns#"
   xmlns:svg="http://www.w3.org/2000/svg"
   xmlns="http://www.w3.org/2000/svg"
   xmlns:sodipodi="http://sodipodi.sourceforge.net/DTD/sodipodi-0.dtd"
   xmlns:inkscape="http://www.inkscape.org/namespaces/inkscape"
   id="svg2"
   height="48"
   width="48"
   version="1.1"
   inkscape:version="0.48.5 r10040"
   sodipodi:docname="nospeak.svg">
  <defs
     id="defs14" />
  <sodipodi:namedview
     pagecolor="#ffffff"
     bordercolor="#666666"
     borderopacity="1"
     objecttolerance="10"
     gridtolerance="10"
     guidetolerance="10"
     inkscape:pageopacity="0"
     inkscape:pageshadow="2"
     inkscape:window-width="1360"
     inkscape:window-height="712"
     id="namedview12"
     showgrid="false"
     inkscape:zoom="4.9166667"
     inkscape:cx="24"
     inkscape:cy="24"
     inkscape:window-x="-2"
     inkscape:window-y="28"
     inkscape:window-maximized="1"
     inkscape:current-layer="svg2" />
  <metadata
     id="metadata7">
    <rdf:RDF>
      <cc:Work
         rdf:about="">
        <dc:format>image/svg+xml</dc:format>
        <dc:type
           rdf:resource="http://purl.org/dc/dcmitype/StillImage" />
        <dc:title />
      </cc:Work>
    </rdf:RDF>
  </metadata>
  <path
     inkscape:connector-curvature="0"
     d="m 8,18.5 h 4 v 11 H 8 z"
     style="fill:#4d4d4d"
     id="rect3249" />
  <path
     inkscape:connector-curvature="0"
     d="M 14,16.5 24,8 V 40 L 14,31.5 z"
     style="fill:#4d4d4d"
     id="rect3251" />
  <path
     inkscape:connector-curvature="0"
     d="m 28.438,17.346 -2.221,3.328 C 27.291,21.391 28,22.611 28,24 c 0,1.389 -0.709,2.609 -1.783,3.326 l 2.221,3.328 C 30.585,29.22 32,26.776 32,24 32,21.224 30.585,18.78 28.438,17.346 z"
     style="fill:#b3b3b3"
     id="path4098" />
  <path
     inkscape:connector-curvature="0"
     d="m 32.873,10.689 -2.217,3.327 C 33.877,16.167 36,19.836 36,24 c 0,4.164 -2.123,7.833 -5.344,9.984 l 2.217,3.327 C 37.168,34.441 40,29.553 40,24 40,18.447 37.168,13.559 32.873,10.689 z"
     style="fill:#b3b3b3"
     id="path4089" />
  <g
     transform="matrix(0.99863,-0.052404,0.052404,0.99863,-46.421,-1007.3159)"
     id="g3791">
    <rect
       x="788.15002"
       y="661.79999"
       width="11.101"
       height="3.0804"
       transform="matrix(0.66047357,0.75084929,-0.75084929,0.66047357,0,0)"
       rx="6"
       style="color:#000000;fill:#d40000"
       ry="0"
       id="rect3787" />
    <rect
       x="657.78998"
       y="-795.23999"
       width="11.101"
       height="3.0804"
       ry="0"
       rx="6"
       transform="matrix(-0.75080318,0.66052599,-0.66052599,-0.75080318,0,0)"
       style="color:#000000;fill:#d40000"
       id="rect3789" />
  </g>
</svg>
