<svg viewBox="0 0 16 16" height="16" width="16" xmlns="http://www.w3.org/2000/svg" xmlns:sodipodi="http://sodipodi.sourceforge.net/DTD/sodipodi-0.dtd" xmlns:inkscape="http://www.inkscape.org/namespaces/inkscape">
 <path stroke="none" stroke-dasharray="none" stroke-dashoffset="0" stroke-linecap="butt" stroke-linejoin="miter" color="#000000" stroke-miterlimit="4" stroke-opacity="1" color-interpolation="sRGB" image-rendering="auto" stroke-width="1" color-interpolation-filters="linearRGB" color-rendering="auto" d="M 14,2 14,9 9,9 9,2 14,2 Z M 9,9 9,14 2,14 2,9 9,9 Z m 4,-6 -3,0 0,5 3,0 0,-5 z M 8,4.3476562 8,5.4199219 C 6.8455809,5.9225836 5.922584,6.8455809 5.419922,8 L 4.347656,8 C 4.948495,6.2932395 6.2932395,4.9484953 8,4.3476562 Z M 8,10 l -5,0 0,3 5,0 0,-3 z" text-rendering="auto" display="inline" visibility="visible" fill="#bebebe" fill-opacity="1" opacity="1" fill-rule="nonzero" shape-rendering="auto" inkscape:connector-curvature="0"/>
</svg>
