<svg viewBox="0 0 16 16" height="16" width="16" xmlns="http://www.w3.org/2000/svg" xmlns:sodipodi="http://sodipodi.sourceforge.net/DTD/sodipodi-0.dtd" xmlns:inkscape="http://www.inkscape.org/namespaces/inkscape">
 <path stroke="none" stroke-dasharray="none" stroke-dashoffset="0" stroke-linecap="butt" stroke-linejoin="miter" color="#000000" stroke-miterlimit="4" stroke-opacity="1" color-interpolation="sRGB" image-rendering="auto" stroke-width="1" color-interpolation-filters="linearRGB" color-rendering="auto" d="m 14,12 -1,0 0,-1 1,0 z m 0,-7 -1,0 0,-1 1,0 z M 12,14 4,14 4,9 6,9 6,7 4,7 4,2 l 8,0 0,5 -2,0 0,2 2,0 z m -1,-1 0,-3 -6,0 0,3 z M 9,9 9,7 7,7 7,9 Z m -6,3 -1,0 0,-1 1,0 z M 3,5 2,5 2,4 3,4 Z" text-rendering="auto" display="inline" visibility="visible" fill="#bebebe" fill-opacity="1" opacity="1" fill-rule="nonzero" shape-rendering="auto" sodipodi:nodetypes="ccccccccccccccccccccccccccccccccccccccccccc" inkscape:connector-curvature="0"/>
</svg>
