<svg height="22" width="22" xmlns="http://www.w3.org/2000/svg" xmlns:sodipodi="http://sodipodi.sourceforge.net/DTD/sodipodi-0.dtd" xmlns:inkscape="http://www.inkscape.org/namespaces/inkscape">
 <path d="m4 3v3.9922 1.0078 7 1 1h-1v1h1v1h1v-1h14v-1h-14v-1h0.0078 0.9922 2v-0.008l0.0078 0.008 2.0002-2h1.592l2 2h3.5 1.9v-1h-1.9-3.086l-2-2h-0.014-0.992-0.408-1.0062l-2 2h-1.5938-0.9922-0.0078v-3-1-1-2h0.0078 0.9922 1.5879l1.707 1.707 0.8281 0.828 2 2 0.002-0.002 0.002 0.002 2.127-2.125 1.297 1.297 0.828 0.828 1.041 1.041 0.707-0.707-1.041-1.041-0.828-0.828-2-2-0.004 0.0039-0.006-0.0039-2.123 2.123-1.295-1.2949-0.828-0.8281-2-2h-0.002-2v-0.0078h-1v-0.9922h7v-1h-7v-2h-1zm10.209 0c-0.547 0-0.73 0.4854-0.73 0.9922 0 0.504 0.18 0.9805 0.73 0.9805s0.727-0.4765 0.727-0.9805c0-0.5041-0.18-0.9922-0.727-0.9922zm1.705 0c-0.547 0-0.73 0.4854-0.73 0.9922 0 0.504 0.18 0.9805 0.73 0.9805s0.729-0.4765 0.729-0.9805c0-0.5041-0.182-0.9922-0.729-0.9922zm1.375 0.0352c-0.299 0-0.475 0.2303-0.475 0.5214s0.167 0.5215 0.469 0.5215c0.305 0 0.496-0.235 0.496-0.5234v-0.002c0-0.2911-0.175-0.5175-0.49-0.5175zm1.051 0.0019s-0.001 0.0039-0.004 0.0059l-1.213 1.957h0.305l1.211-1.9512c0.003-0.003 0.002-0.0059 0.004-0.0117h-0.303zm-5.457 0.0039l-0.389 0.2031v0.2813l0.338-0.1465v1.5664h0.365v-1.9043h-0.314zm4.406 0.2207c0.151 0 0.215 0.1232 0.215 0.293 0 0.1671-0.068 0.2949-0.219 0.2949s-0.213-0.1212-0.213-0.291 0.066-0.2969 0.217-0.2969zm-3.08 0.0488c0.288 0 0.336 0.3411 0.336 0.67 0 0.3315-0.048 0.6875-0.336 0.6875-0.291 0-0.338-0.3533-0.338-0.6875v-0.0078h-0.002c0.003-0.3235 0.052-0.6622 0.34-0.6622zm1.705 0c0.288 0 0.336 0.3411 0.336 0.67 0 0.3315-0.048 0.6875-0.336 0.6875-0.291 0-0.336-0.3533-0.336-0.6875v-0.0078h-0.004c0.003-0.3235 0.052-0.6622 0.34-0.6622zm2.598 0.6231c-0.291 0-0.483 0.1709-0.483 0.4297 0 0.0297 0.003 0.0601 0.008 0.0898v0.002c0 0.2857 0.178 0.5117 0.488 0.5117 0.297 0 0.475-0.2338 0.475-0.5195 0-0.2911-0.162-0.5137-0.488-0.5137zm-0.002 0.2246c0.167 0 0.232 0.1219 0.232 0.2891 0 0.1671-0.06 0.2929-0.211 0.2929s-0.217-0.118-0.217-0.2851 0.026-0.2969 0.196-0.2969z" fill="#4d4d4d" transform="matrix(1 0 0 1 0 0)"/>
</svg>
