<svg height="22" width="22" xmlns="http://www.w3.org/2000/svg" xmlns:sodipodi="http://sodipodi.sourceforge.net/DTD/sodipodi-0.dtd" xmlns:inkscape="http://www.inkscape.org/namespaces/inkscape">
 <g transform="matrix(1 0 0 1 -551.29 -607.65)">
  <path d="m4 3v6 1 5 1 1h-1v1h1v1h1v-1h14v-1h-14v-1h0.0078 0.9922 2v-0.008l0.0078 0.008 2.0002-2h1.592l2 2h3.5 1.9v-1h-1.9-3.086l-2-2h-0.014-0.992-0.408-1.0062l-2 2h-1.5938-0.9922-0.0078v-3-1-1h1 1 1.873 0.002l2-2 0.828-0.8281 1.295-1.2949 2.123 2.123 0.006-0.0039 0.004 0.0039 2-2 0.828-0.8281 1.041-1.041-0.707-0.7071-1.041 1.041-0.828 0.8282-1.297 1.2968-2.127-2.125-0.002 0.002-0.002-0.002-1.527 1.5274h-6.469v-0.9922-2h-1zm1 3h6.461l-0.465 0.4648-0.828 0.8282-1.7071 1.707h-1.4609-1-1v-3z" fill="#4d4d4d" transform="matrix(1 0 0 1 551.29 607.65)"/>
  <path d="m556.29 623.65v1h14v-1h-5.4l-2-2h-1.6l-2 2z" fill="#4d4d4d" fill-opacity="0.459" fill-rule="evenodd"/>
  <path d="m18.934 4.0645l0.066 0.0664v-0.0039l-0.066-0.0625zm0.066 0.0664l-1.041 1.041-0.828 0.8281-2 2-0.004-0.0039-0.006 0.0039-2.123-2.123-1.295 1.2949-0.828 0.8281-2 2h-0.002-1.873-1-1v1 1 3h0.0078 2.586l2-2h0.4062l2-0.008 0.008 0.008h0.006l1.992 1.992 4.994 0.008v-10.869z" fill="#4d4d4d" fill-opacity="0.459" fill-rule="evenodd" transform="matrix(1 0 0 1 551.29 607.65)"/>
 </g>
</svg>
