<svg height="22" width="22" xmlns="http://www.w3.org/2000/svg" xmlns:sodipodi="http://sodipodi.sourceforge.net/DTD/sodipodi-0.dtd" xmlns:inkscape="http://www.inkscape.org/namespaces/inkscape">
 <path d="m10 3.0684c-3.9557 0.49-7 3.8391-7 7.9316 0 4.093 3.0443 7.442 7 7.932v-1.01c-3.3994-0.484-6-3.385-6-6.922 0-3.5372 2.6006-6.4381 6-6.9219v-1.0097zm2 0v1.0097c3.399 0.4838 6 3.3847 6 6.9219 0 3.537-2.601 6.438-6 6.922v1.01c3.956-0.49 7-3.839 7-7.932 0-4.0925-3.044-7.4416-7-7.9316z" fill="#4d4d4d" transform="matrix(1 0 0 1 0 0)"/>
 <path d="m11 5c-3.324 0-6 2.676-6 6s2.676 6 6 6 6-2.676 6-6c0-0.882-0.192-1.716-0.531-2.4688l-0.781 0.7813c0.189 0.5293 0.312 1.0915 0.312 1.6875 0 2.77-2.23 5-5 5s-5-2.23-5-5 2.23-5 5-5c1.642 0 3.08 0.7951 3.99 2.0098l0.723-0.7227c-1.097-1.3924-2.795-2.2871-4.713-2.2871z" fill="#4d4d4d" transform="matrix(1 0 0 1 0 0)"/>
 <path d="m11 7c-1.108 0-2.1071 0.4469-2.8301 1.1699l0.7071 0.7071c0.5422-0.5423 1.292-0.877 2.123-0.877 1.662 0 3 1.338 3 3s-1.338 3-3 3-3-1.338-3-3c0-0.302 0.0565-0.587 0.1387-0.861l-0.7813-0.7816c-0.2256 0.5016-0.3574 1.0556-0.3574 1.6426 0 2.216 1.784 4 4 4s4-1.784 4-4-1.784-4-4-4z" fill="#4d4d4d" transform="matrix(1 0 0 1 0 0)"/>
</svg>
