<svg height="22" width="22" xmlns="http://www.w3.org/2000/svg" xmlns:sodipodi="http://sodipodi.sourceforge.net/DTD/sodipodi-0.dtd" xmlns:inkscape="http://www.inkscape.org/namespaces/inkscape">
 <path d="m11 3c-4.432 0-8 3.568-8 8s3.568 8 8 8 8-3.568 8-8-3.568-8-8-8zm0 1c1.366 0 2.634 0.3932 3.709 1.0645 0.91 0.568 1.676 1.3379 2.24 2.25-0.564-0.911-1.331-1.6821-2.24-2.25l-2.65 4.2421c0.519 0.3249 0.87 0.8814 0.923 1.5274l4.989-0.416c-0.047-0.5665-0.16-1.1136-0.332-1.6328-0.084-0.2515-0.181-0.4947-0.291-0.7325 0.11 0.2375 0.207 0.4813 0.291 0.7325 0.172 0.5195 0.285 1.0663 0.332 1.6328 0.015 0.193 0.029 0.385 0.029 0.582 0 3.878-3.122 7-7 7s-7-3.122-7-7 3.122-7 7-7zm0 1c-1.9014 0-3.5878 0.8783-4.6855 2.25l3.1289 2.5039c0.3659-0.4568 0.9236-0.7539 1.5566-0.7539v-0.5-2-1.5zm5.957 2.3262c0.134 0.2171 0.255 0.4416 0.365 0.6738-0.109-0.2316-0.231-0.4573-0.365-0.6738zm-7.373 5.0898l-2.1231 2.123c0.9038 0.904 2.1541 1.461 3.5391 1.461v-1.5-1.5c-0.554 0-1.0545-0.222-1.416-0.584z" fill="#4d4d4d" transform="matrix(1 0 0 1 0 0)"/>
</svg>
