<?xml version="1.0" encoding="UTF-8" standalone="no"?>
<!-- Created with Inkscape (http://www.inkscape.org/) -->

<svg
   xmlns:dc="http://purl.org/dc/elements/1.1/"
   xmlns:cc="http://creativecommons.org/ns#"
   xmlns:rdf="http://www.w3.org/1999/02/22-rdf-syntax-ns#"
   xmlns:svg="http://www.w3.org/2000/svg"
   xmlns="http://www.w3.org/2000/svg"
   xmlns:sodipodi="http://sodipodi.sourceforge.net/DTD/sodipodi-0.dtd"
   xmlns:inkscape="http://www.inkscape.org/namespaces/inkscape"
   id="svg3760"
   height="22"
   width="22"
   version="1.1"
   inkscape:version="0.48.5 r10040"
   sodipodi:docname="office-chart-scatter.svg">
  <defs
     id="defs13759" />
  <sodipodi:namedview
     pagecolor="#ffffff"
     bordercolor="#666666"
     borderopacity="1"
     objecttolerance="10"
     gridtolerance="10"
     guidetolerance="10"
     inkscape:pageopacity="0"
     inkscape:pageshadow="2"
     inkscape:window-width="640"
     inkscape:window-height="480"
     id="namedview13757" />
  <metadata
     id="metadata3765">
    <rdf:RDF>
      <cc:Work
         rdf:about="">
        <dc:format>image/svg+xml</dc:format>
        <dc:type
           rdf:resource="http://purl.org/dc/dcmitype/StillImage" />
        <dc:title />
      </cc:Work>
    </rdf:RDF>
  </metadata>
  <g
     id="layer1"
     transform="translate(-551.29 -607.65)">
    <path
       id="path4154"
       style="fill:#4d4d4d"
       d="m4 3v6 1 5 1 1h-1v1h1v1h1v-1h13.293 0.707v-0.707-0.293h-0.293-1.414-12.293v-1.568-0.008-0.424-2.576-1-0.424-1-1-3-0.0078-0.9922-2h-1zm13 0v1h1v-1h-1zm1 1v1h1v-1h-1zm0 1h-1v1h1v-1zm-1 0v-1h-1v1h1zm-11-1v1h1v-1h-1zm2 0v1h1v-1h-1zm-2 2v1h1v-1h-1zm2 0v1h1v-1h-1zm3 1v1h1v-1h-1zm2 0v1h1v-1h-1zm-2 2v1h1v-1h-1zm2 0v1h1v-1h-1zm-6 4v1h1v-1h-1zm1 1v1h1v-1h-1zm0 1h-1v1h1v-1zm-1 0v-1h-1v1h1z"
       transform="translate(551.29 607.65)" />
  </g>
</svg>
