<svg height="22" width="22" xmlns="http://www.w3.org/2000/svg" xmlns:sodipodi="http://sodipodi.sourceforge.net/DTD/sodipodi-0.dtd" xmlns:inkscape="http://www.inkscape.org/namespaces/inkscape">
 <path d="m4 3v6 1 5 1 1h-1v1h1v1h1v-1h13.293 0.707v-0.707-0.293h-0.293l-0.748-0.748-0.828-0.828-2-2-0.004 0.004-0.006-0.004-2.123 2.123-1.295-1.295-0.828-0.828-2-2h-0.002-1.873-1-1v-0.424-1h1 1 1.873 0.002l2-2 0.828-0.8281 1.295-1.2949 2.123 2.123 0.006-0.0039 0.004 0.0039 2-2 0.828-0.8281 1.041-1.041-0.707-0.7071-1.041 1.041-0.828 0.8282-1.297 1.2968-2.127-2.125-0.002 0.002-0.002-0.002-1.527 1.5274h-6.469v-0.9922-2h-1zm1 3h6.461l-0.465 0.4648-0.828 0.8282-1.7071 1.707h-1.4609-1-1v-3zm0 6.424h1 1 1.4609l1.7071 1.707 0.828 0.828 0.465 0.465h-6.461v-0.424-2.576zm10.127 2.41l1.297 1.297 0.828 0.828 0.041 0.041h-12.293v-1-0.568h6.469l1.527 1.527 0.002-0.002 0.002 0.002 2.127-2.125z" fill="#4d4d4d" transform="matrix(1 0 0 1 0 0)"/>
 <path d="m18.934 4.0645l0.066 0.0664v-0.0039l-0.066-0.0625zm0.066 0.0664l-1.041 1.041-0.828 0.8281-2 2-0.004-0.0039-0.006 0.0039-2.123-2.123-1.295 1.2949-0.828 0.8281-2 2h-0.002-1.873-1-1v1 0.424h1 1 1.873 0.002l2 2 0.828 0.828 1.295 1.295 2.123-2.123 0.006 0.004 0.004-0.004 2 2 0.828 0.828 0.748 0.748h0.293v-12.869zm-14 8.2931v2.576 0.424h6.461l-0.465-0.465-0.828-0.828-1.7071-1.707h-1.4609-1-1zm10.127 2.41l-2.127 2.125-0.002-0.002-0.002 0.002-1.527-1.527h-6.469v1.568h5l2-0.008 0.008 0.008h0.006l1.992-0.008 3.285 0.006-0.039-0.039-0.828-0.828-1.297-1.297z" fill="#4d4d4d" fill-opacity="0.459" fill-rule="evenodd" transform="matrix(1 0 0 1 0 0)"/>
</svg>
