<svg height="48" width="48" xmlns="http://www.w3.org/2000/svg" xmlns:sodipodi="http://sodipodi.sourceforge.net/DTD/sodipodi-0.dtd" xmlns:inkscape="http://www.inkscape.org/namespaces/inkscape">
 <path d="m0 0c-1.869 0-3.385 1.516-3.385 3.385 0 1.868 1.516 3.384 3.385 3.384 1.867 0 3.383-1.516 3.383-3.384 0-1.869-1.516-3.385-3.383-3.385m0 13.4c-5.533 0-10.018-4.484-10.018-10.015 0-5.532 4.485-10.017 10.018-10.017 5.531 0 10.014 4.485 10.014 10.017 0 5.531-4.483 10.015-10.014 10.015" fill="#505050" transform="matrix(2.1565 0 0 -2.1565 24 31.3)"/>
</svg>
