<svg height="22" width="22" xmlns="http://www.w3.org/2000/svg" xmlns:sodipodi="http://sodipodi.sourceforge.net/DTD/sodipodi-0.dtd" xmlns:inkscape="http://www.inkscape.org/namespaces/inkscape">
 <path d="m6.877 3c-1.6645 0.8562-3.0208 2.2125-3.877 3.877v0.123l0.9219 0.3066c0.7546-1.4499 1.9348-2.6301 3.3847-3.3847l-0.3066-0.9219zm8.1289 0-0.30664 0.92188c1.4499 0.75461 2.6302 1.9349 3.3848 3.3848l0.922-0.3067v-0.12305c-0.856-1.6645-2.213-3.0208-3.877-3.877zm-4.006 2c-3.878 0-7 3.122-7 7s3.122 7 7 7 7-3.122 7-7-3.122-7-7-7zm0 1c3.324 0 6 2.676 6 6s-2.676 6-6 6-6-2.676-6-6 2.676-6 6-6zm-2 3v6l5-3z" fill="#4d4d4d" transform="matrix(1 0 0 1 0 0)"/>
</svg>
