<svg height="22" viewBox="0 0 22 22" width="22" xmlns="http://www.w3.org/2000/svg" xmlns:sodipodi="http://sodipodi.sourceforge.net/DTD/sodipodi-0.dtd" xmlns:inkscape="http://www.inkscape.org/namespaces/inkscape">
 <path d="m 4.3843633,3.2030005 c -0.5235804,0 -0.9450909,0.4215105 -0.9450909,0.9450909 l 0,13.2312726 c 0,0.52358 0.4215105,0.945091 0.9450909,0.945091 l 3.7803636,0 c 0.5235804,0 0.9450909,-0.421511 0.9450909,-0.945091 l 0,-13.2312726 c 0,-0.5235804 -0.4215105,-0.9450909 -0.9450909,-0.9450909 l -3.7803636,0 z m 9.4509087,0 c -0.52358,0 -0.945091,0.4215105 -0.945091,0.9450909 l 0,13.2312726 c 0,0.52358 0.421511,0.945091 0.945091,0.945091 l 3.780364,0 c 0.52358,0 0.945091,-0.421511 0.945091,-0.945091 l 0,-13.2312726 c 0,-0.5235804 -0.421511,-0.9450909 -0.945091,-0.9450909 l -3.780364,0 z" stroke-width="2" display="inline" fill="#4d4d4d" color="#000000" fill-opacity="1" fill-rule="nonzero" stroke="none" opacity="1" visibility="visible" inkscape:connector-curvature="0"/>
</svg>
