<svg height="22" width="22" xmlns="http://www.w3.org/2000/svg" xmlns:sodipodi="http://sodipodi.sourceforge.net/DTD/sodipodi-0.dtd" xmlns:inkscape="http://www.inkscape.org/namespaces/inkscape">
 <path d="m-3.0064 1054.3zm12.421-5.4168c-0.26669-0.2516-0.16251-5.2502 0.11487-5.5118 0.33537-0.3163 2.3785-0.3163 2.7139 0 0.35731 0.3371 0.35731 5.0664 0 5.4033-0.27027 0.255-2.5796 0.3434-2.8288 0.108zm-4.3989-4.5875c-0.11864-0.1395-0.44466-0.6652-0.7245-1.168-0.43575-0.7829-0.50908-1.2057-0.51069-2.9454-0.00225-2.3843 0.40781-3.4014 1.962-4.8671 3.5173-3.3172 9.3114-2.4187 11.678 1.8107 0.51036 0.9121 0.57348 1.2486 0.57348 3.0564 0 1.8201-0.06114 2.1406-0.58805 3.0834-0.69769 1.2481-0.95676 1.4373-1.3985 1.0206-0.29664-0.2798-0.28742-0.3699 0.09075-0.8874 0.74345-1.0172 1.035-1.9664 1.0193-3.3182-0.05667-4.8829-5.9579-7.5421-10.11-4.5555-2.243 1.6134-2.9542 4.7744-1.6378 7.2792 0.47085 0.896 0.58258 1.2954 0.41544 1.4853-0.28776 0.327-0.49549 0.3287-0.76961 0zm1.5599-1.6518c-2.1026-3.0264 0.41745-7.2262 4.3401-7.2333 3.7424 0 6.2777 4.1255 4.3578 7.1028-0.39768 0.6167-0.46183 0.6453-0.77879 0.3464-0.31696-0.299-0.31201-0.4185 0.06014-1.451 0.54534-1.513 0.24026-2.7274-0.95497-3.801-1.8917-1.6993-4.5191-1.434-5.9749 0.6035-0.84794 1.1866-0.84686 2.2396 0.0042 4.1043 0.08562 0.1875-0.02598 0.4024-0.2897 0.5577-0.37117 0.2187-0.47407 0.1878-0.76387-0.2294zm3.2023-0.7201c-0.86273-0.4961-1.2535-1.5105-0.92462-2.4003 0.48554-1.3136 2.2229-1.6925 3.4167-0.7451 1.1254 0.8931 0.82918 2.639-0.56163 3.3098-0.66951 0.3229-1.155 0.2815-1.9304-0.1644z" fill="#4d4d4d" transform="matrix(1 0 0 1 0 -1030.4)"/>
</svg>
