<svg height="96" width="96" xmlns="http://www.w3.org/2000/svg" xmlns:xlink="http://www.w3.org/1999/xlink" xmlns:sodipodi="http://sodipodi.sourceforge.net/DTD/sodipodi-0.dtd" xmlns:inkscape="http://www.inkscape.org/namespaces/inkscape">
 <defs>
  <clipPath clipPathUnits="userSpaceOnUse" id="clipPath3009">
   <path d="m-2 956.36h-96v33.562l96 25.687v-59.25z"/>
  </clipPath>
  <linearGradient x1="1" x2="21" xlink:href="#linearGradient3657-6" gradientUnits="userSpaceOnUse" id="linearGradient3087" gradientTransform="matrix(0 2.7 -2.7 0 77.7 18.3)"/>
  <linearGradient id="linearGradient3657-6">
   <stop stop-color="#fff"/>
   <stop stop-color="#fff" stop-opacity="0" offset="1"/>
  </linearGradient>
  <linearGradient x1="4" x2="18" xlink:href="#linearGradient3657-6" gradientUnits="userSpaceOnUse" id="linearGradient3676-6" gradientTransform="matrix(0 2.7 -2.7 0 75 15.6)"/>
  <linearGradient x1="7" x2="15" xlink:href="#linearGradient3657-6" gradientUnits="userSpaceOnUse" id="linearGradient3699-5" gradientTransform="matrix(0 2.7 -2.7 0 72.3 12.9)"/>
  <linearGradient x2="0" y1="8" y2="21.04" gradientUnits="userSpaceOnUse" id="linearGradient2888" gradientTransform="matrix(2.7 0 0 2.7 18.3 18.3)">
   <stop stop-color="#f0f0f0"/>
   <stop stop-color="#aaa" offset="1"/>
  </linearGradient>
 </defs>
 <g transform="matrix(1 0 0 1 0 -956.36)">
  <rect x="2" rx="25" y="958.36" height="92" opacity="0.6" width="92"/>
  <g transform="matrix(1 0 0 1 0 956.36)">
   <path d="m48 40.9c-2.9823 0-5.4 2.4177-5.4 5.4s2.4177 5.4 5.4 5.4 5.4-2.4177 5.4-5.4-2.4177-5.4-5.4-5.4zm0 13.5s-7.9448-0.03178-8.1 5.4c-0.20408 7.1427 2.7 16.2 2.7 16.2h10.8s2.7-8.5702 2.7-16.2c0-5.2766-8.1-5.4-8.1-5.4z" color="#000000" opacity="0.3"/>
   <path d="m75 48c0-14.912-12.088-27-27-27s-27 12.088-27 27 12.088 27 27 27 27-12.088 27-27zm-2.7 0c0 3.596-0.7811 7.0095-2.1829 10.08-3.83 8.39-12.292 14.22-22.117 14.22-13.421 0-24.3-10.879-24.3-24.3s10.879-24.3 24.3-24.3 24.3 10.879 24.3 24.3z" fill="url(#linearGradient3087)" color="#000000" opacity="0.3"/>
   <path d="m66.9 45.3c0-10.438-8.462-18.9-18.9-18.9s-18.9 8.4618-18.9 18.9 8.4618 18.9 18.9 18.9 18.9-8.4618 18.9-18.9zm-2.7 0c0 8.947-7.253 16.2-16.2 16.2s-16.2-7.253-16.2-16.2 7.253-16.2 16.2-16.2 16.2 7.253 16.2 16.2z" fill="url(#linearGradient3676-6)" color="#000000" opacity="0.3"/>
   <path d="m58.8 42.6c0-5.9647-4.8353-10.8-10.8-10.8s-10.8 4.8353-10.8 10.8 4.8353 10.8 10.8 10.8 10.8-4.8353 10.8-10.8zm-2.7 0c0 4.4735-3.6265 8.1-8.1 8.1s-8.1-3.6265-8.1-8.1 3.6265-8.1 8.1-8.1 8.1 3.6265 8.1 8.1z" fill="url(#linearGradient3699-5)" color="#000000" opacity="0.3"/>
   <path d="m48 39.9c-2.9823 0-5.4 2.4177-5.4 5.4s2.4177 5.4 5.4 5.4 5.4-2.4177 5.4-5.4-2.4177-5.4-5.4-5.4zm0 13.5s-7.9448-0.03178-8.1 5.4c-0.20408 7.1427 2.7 16.2 2.7 16.2h10.8s2.7-8.5702 2.7-16.2c0-5.2766-8.1-5.4-8.1-5.4z" fill="url(#linearGradient2888)" color="#000000"/>
   <path d="m48 39.906c-2.9823 0-5.4062 2.4239-5.4062 5.4062 0 0.15362 0.01867 0.28713 0.03125 0.4375 0.27653-2.723 2.5791-4.8438 5.375-4.8438s5.0985 2.1208 5.375 4.8438c0.01258-0.15037 0.03125-0.28388 0.03125-0.4375 0-2.9823-2.4239-5.4062-5.4062-5.4062zm-0.34375 13.5c-1.5228 0.06818-7.6142 0.65344-7.75 5.4062-0.0095 0.33222-0.0034 0.6606 0 1 0.155-5.431 8.094-5.406 8.094-5.406s7.8638 0.13582 8.0625 5.2188c0.0065-0.27156 0.03125-0.54287 0.03125-0.8125 0-5.276-8.094-5.406-8.094-5.406s-0.12621-0.0097-0.34375 0z" fill="#fff" color="#000000" opacity="0.75"/>
   <path d="m42.625 44.844c-0.01287 0.1521-0.03125 0.31332-0.03125 0.46875 0 2.9823 2.4239 5.375 5.4062 5.375s5.4062-2.3927 5.4062-5.375c0-0.15543-0.01838-0.31665-0.03125-0.46875-0.27653 2.723-2.5791 4.8438-5.375 4.8438s-5.0985-2.1208-5.375-4.8438zm13.437 13.781c-0.177 7.413-2.656 15.375-2.656 15.375h-10.812s-2.5366-7.9633-2.6875-14.844c-0.104 7.086 2.688 15.844 2.688 15.844h10.812s2.6875-8.5577 2.6875-16.188c0-0.06639-0.02872-0.12273-0.03125-0.1875z" color="#000000" opacity="0.15"/>
  </g>
  <rect x="-96" rx="25" y="958.36" clip-path="url(#clipPath3009)" fill="#fff" height="92" opacity="0.15" width="92" transform="matrix(1 0 0 1 98 0)"/>
 </g>
</svg>
