<svg height="22" width="22" xmlns="http://www.w3.org/2000/svg" xmlns:sodipodi="http://sodipodi.sourceforge.net/DTD/sodipodi-0.dtd" xmlns:inkscape="http://www.inkscape.org/namespaces/inkscape">
 <g transform="matrix(1 0 0 1 -551.29 -607.65)">
  <path d="m4 3v16h9v-1h-8v-14h12v9h1v-10h-14zm2 2v5h5v-5h-5zm6 0v1h4v-1h-4zm0 2v1h4v-1h-4zm0 2v1h4v-1h-4zm-6 2v1h10v-1h-10zm0 2v1h7v-1h-7zm0 2v1h7v-1h-7z" fill="#4d4d4d" transform="matrix(1 0 0 1 551.29 607.65)"/>
  <path d="m571.73 620.65-4.5918 4.5918-1.1465-1.1465-0.70703 0.70703 1.8457 1.8477 0.006-0.008 0.008 0.008 5.293-5.293-0.70703-0.70703z" fill="#4d4d4d"/>
 </g>
</svg>
