<?xml version="1.0" encoding="UTF-8" standalone="no"?>
<!-- Created with Inkscape (http://www.inkscape.org/) -->

<svg
   xmlns:dc="http://purl.org/dc/elements/1.1/"
   xmlns:cc="http://creativecommons.org/ns#"
   xmlns:rdf="http://www.w3.org/1999/02/22-rdf-syntax-ns#"
   xmlns:svg="http://www.w3.org/2000/svg"
   xmlns="http://www.w3.org/2000/svg"
   xmlns:sodipodi="http://sodipodi.sourceforge.net/DTD/sodipodi-0.dtd"
   xmlns:inkscape="http://www.inkscape.org/namespaces/inkscape"
   id="svg4183"
   height="22"
   width="22"
   version="1.1"
   inkscape:version="0.48.5 r10040"
   sodipodi:docname="process-stop.svg">
  <defs
     id="defs9" />
  <sodipodi:namedview
     pagecolor="#ffffff"
     bordercolor="#666666"
     borderopacity="1"
     objecttolerance="10"
     gridtolerance="10"
     guidetolerance="10"
     inkscape:pageopacity="0"
     inkscape:pageshadow="2"
     inkscape:window-width="640"
     inkscape:window-height="480"
     id="namedview7"
     showgrid="false"
     inkscape:zoom="10.727273"
     inkscape:cx="11"
     inkscape:cy="11"
     inkscape:window-x="0"
     inkscape:window-y="30"
     inkscape:window-maximized="0"
     inkscape:current-layer="svg4183" />
  <metadata
     id="metadata4188">
    <rdf:RDF>
      <cc:Work
         rdf:about="">
        <dc:format>image/svg+xml</dc:format>
        <dc:type
           rdf:resource="http://purl.org/dc/dcmitype/StillImage" />
        <dc:title />
      </cc:Work>
    </rdf:RDF>
  </metadata>
  <path
     inkscape:connector-curvature="0"
     d="m 11,3 c 4.432,0 8,3.568 8,8 0,1.4417 -0.38287,2.7893 -1.0449,3.9551 l -0.73828,-0.7383 c 0.497,-1.1 0.783,-2.2 0.783,-3.3 0,-3.878 -3.122,-7 -7,-7 -1.1625,0 -2.2539,0.2858 -3.2168,0.7832 L 7.04474,3.9617 c 1.1658,-0.662 2.5134,-1.0449 3.9551,-1.0449 z M 4.0449,7.0449 4.78318,7.7832 c -0.4974,1 -0.7832,2.1 -0.7832,3.3 0,3.878 3.122,7 7,7 1.1625,0 2.2539,-0.2858 3.2168,-0.7832 l 0.73828,0.7383 c -1.1658,0.662 -2.5134,1.0449 -3.9551,1.0449 -4.432,0 -8,-3.568 -8,-8 0,-1.4417 0.38287,-2.7893 1.0449,-3.9551 z"
     style="fill:#ff0000"
     id="rect4085" />
  <rect
     x="7.4998999"
     y="10.000025"
     width="7.0001998"
     height="2"
     ry="0"
     style="fill:#ff0000"
     id="rect4128" />
</svg>
