<svg height="22" width="22" xmlns="http://www.w3.org/2000/svg" xmlns:sodipodi="http://sodipodi.sourceforge.net/DTD/sodipodi-0.dtd" xmlns:inkscape="http://www.inkscape.org/namespaces/inkscape">
 <path d="m 11,3 c 4.432,0 8,3.568 8,8 0,1.4417 -0.38287,2.7893 -1.0449,3.9551 l -0.73828,-0.7383 c 0.497,-1.1 0.783,-2.2 0.783,-3.3 0,-3.878 -3.122,-7 -7,-7 -1.1625,0 -2.2539,0.2858 -3.2168,0.7832 L 7.04474,3.9617 c 1.1658,-0.662 2.5134,-1.0449 3.9551,-1.0449 z M 4.0449,7.0449 4.78318,7.7832 c -0.4974,1 -0.7832,2.1 -0.7832,3.3 0,3.878 3.122,7 7,7 1.1625,0 2.2539,-0.2858 3.2168,-0.7832 l 0.73828,0.7383 c -1.1658,0.662 -2.5134,1.0449 -3.9551,1.0449 -4.432,0 -8,-3.568 -8,-8 0,-1.4417 0.38287,-2.7893 1.0449,-3.9551 z" fill="#ff0000" inkscape:connector-curvature="0"/>
 <rect x="7.5" rx="0" y="10" fill="#ff0000" height="2" width="7"/>
</svg>
