<svg height="22" width="22" xmlns="http://www.w3.org/2000/svg" xmlns:sodipodi="http://sodipodi.sourceforge.net/DTD/sodipodi-0.dtd" xmlns:inkscape="http://www.inkscape.org/namespaces/inkscape">
 <defs>
  <filter id="filter4215" inkscape:collect="always">
   <feGaussianBlur stdDeviation="0.04962" inkscape:collect="always"/>
  </filter>
  <linearGradient x2="0" y1="1.01" y2="15.01" gradientUnits="userSpaceOnUse" id="linearGradient3992" inkscape:collect="always">
   <stop stop-color="#000000" stop-opacity="1"/>
   <stop stop-color="#000000" stop-opacity="0" offset="1"/>
  </linearGradient>
 </defs>
 <g inkscape:label="Capa 1" inkscape:groupmode="layer" transform="matrix(1 0 0 1 -421.71 -525.79)">
  <g stroke-opacity="1" stroke-width="0.2" display="inline" enable-background="new" fill="none" stroke="url(#linearGradient3992)" stroke-dasharray="none" filter="url(#filter4215)" stroke-miterlimit="4" transform="matrix(0.98592 0 0 1 424.84 528.8)">
   <g inkscape:label="actions" transform="matrix(1 0 0 1 -417 -117)">
    <rect x="-429" rx="0" y="127" color="#dddddd" height="2" visibility="visible" opacity="0.5" width="8" transform="matrix(-1 0 0 1 0 0)"/>
    <rect x="-427" rx="0" y="118" color="#dddddd" height="2" visibility="visible" opacity="0.5" width="4" transform="matrix(-1 0 0 1 0 0)"/>
    <rect x="-427" rx="0" y="130" color="#dddddd" height="2" visibility="visible" opacity="0.5" width="4" transform="matrix(-1 0 0 1 0 0)"/>
    <rect x="-429" rx="0" y="121" color="#dddddd" height="2" visibility="visible" opacity="0.5" width="8" transform="matrix(-1 0 0 1 0 0)"/>
    <rect x="-431" y="124" color="#dddddd" height="2" visibility="visible" width="12" transform="matrix(-1 0 0 1 0 0)"/>
   </g>
  </g>
  <path d="m 432.36257,529.79044 3.91328,2.67367 -3.91328,2.77089 0,-1.79865 c -1.8224,0.3348 -3.23741,1.82614 -3.42716,3.69453 -0.0144,0.14174 0,0.29196 0,0.4375 0,2.32869 1.87627,4.20496 4.20495,4.20496 1.66178,-0.0336 2.75214,-0.84611 3.67022,-2.09033 l 1.70142,0.99655 c -1.1512,2.02204 -2.82422,3.11118 -5.37164,3.11118 -3.43651,0 -6.22236,-2.78584 -6.22236,-6.22236 0,-3.17206 2.3766,-5.78966 5.44457,-6.17374 l 0,-1.6042 z m 0.77779,6.22236 c 0.85913,0 1.55559,0.69646 1.55559,1.55558 0,0.85913 -0.69646,1.55559 -1.55559,1.55559 -0.85913,0 -1.55559,-0.69646 -1.55559,-1.55559 0,-0.85912 0.69646,-1.55558 1.55559,-1.55558 z" display="inline" fill="#505050" fill-opacity="1" stroke="none" inkscape:connector-curvature="0"/>
 </g>
</svg>
