<?xml version="1.0" encoding="UTF-8" standalone="no"?>
<!-- Created with Inkscape (http://www.inkscape.org/) -->

<svg
   xmlns:dc="http://purl.org/dc/elements/1.1/"
   xmlns:cc="http://creativecommons.org/ns#"
   xmlns:rdf="http://www.w3.org/1999/02/22-rdf-syntax-ns#"
   xmlns:svg="http://www.w3.org/2000/svg"
   xmlns="http://www.w3.org/2000/svg"
   xmlns:sodipodi="http://sodipodi.sourceforge.net/DTD/sodipodi-0.dtd"
   xmlns:inkscape="http://www.inkscape.org/namespaces/inkscape"
   id="svg3049"
   height="22"
   width="22"
   version="1.1"
   inkscape:version="0.48.5 r10040"
   sodipodi:docname="run-build.svg">
  <sodipodi:namedview
     pagecolor="#ffffff"
     bordercolor="#666666"
     borderopacity="1"
     objecttolerance="10"
     gridtolerance="10"
     guidetolerance="10"
     inkscape:pageopacity="0"
     inkscape:pageshadow="2"
     inkscape:window-width="1360"
     inkscape:window-height="712"
     id="namedview46"
     showgrid="false"
     inkscape:zoom="21.454545"
     inkscape:cx="2.4834594"
     inkscape:cy="9.5375296"
     inkscape:window-x="-2"
     inkscape:window-y="28"
     inkscape:window-maximized="1"
     inkscape:current-layer="svg3049" />
  <defs
     id="defs3051">
    <clipPath
       id="clipPath4355">
      <rect
         id="rect4357"
         style="fill:#fff"
         rx="6"
         ry="6"
         height="80"
         width="84"
         y="6"
         x="6" />
    </clipPath>
    <filter
       id="filter3794"
       height="1.384"
       width="1.384"
       color-interpolation-filters="sRGB"
       y="-.192"
       x="-.192">
      <feGaussianBlur
         id="feGaussianBlur3796"
         stdDeviation="5.28" />
    </filter>
    <filter
       id="filter3174"
       color-interpolation-filters="sRGB">
      <feGaussianBlur
         id="feGaussianBlur3176"
         stdDeviation="1.71" />
    </filter>
    <clipPath
       id="clipPath4355-3">
      <rect
         id="rect4357-1"
         style="fill:#fff"
         rx="6"
         ry="6"
         height="80"
         width="84"
         y="6"
         x="6" />
    </clipPath>
    <filter
       id="filter3794-6"
       height="1.384"
       width="1.384"
       color-interpolation-filters="sRGB"
       y="-.192"
       x="-.192">
      <feGaussianBlur
         id="feGaussianBlur3796-9"
         stdDeviation="5.28" />
    </filter>
    <filter
       id="filter3174-3"
       color-interpolation-filters="sRGB">
      <feGaussianBlur
         id="feGaussianBlur3176-6"
         stdDeviation="1.71" />
    </filter>
    <clipPath
       id="clipPath4355-9">
      <rect
         id="rect4357-0"
         style="fill:#fff"
         rx="6"
         ry="6"
         height="80"
         width="84"
         y="6"
         x="6" />
    </clipPath>
    <filter
       id="filter3794-64"
       height="1.384"
       width="1.384"
       color-interpolation-filters="sRGB"
       y="-.192"
       x="-.192">
      <feGaussianBlur
         id="feGaussianBlur3796-5"
         stdDeviation="5.28" />
    </filter>
    <filter
       id="filter3174-4"
       color-interpolation-filters="sRGB">
      <feGaussianBlur
         id="feGaussianBlur3176-7"
         stdDeviation="1.71" />
    </filter>
  </defs>
  <metadata
     id="metadata3054">
    <rdf:RDF>
      <cc:Work
         rdf:about="">
        <dc:format>image/svg+xml</dc:format>
        <dc:type
           rdf:resource="http://purl.org/dc/dcmitype/StillImage" />
        <dc:title />
      </cc:Work>
    </rdf:RDF>
  </metadata>
  <g
     id="g10129">
    <g
       transform="translate(0.23213173,0)"
       id="g10053">
      <g
         id="layer1"
         transform="matrix(0.93075041,0.36565513,-0.36565513,0.93075041,-197.13442,-648.84308)"
         style="fill:#4d4d4d;fill-opacity:1">
        <g
           id="layer2"
           style="fill:#4d4d4d;fill-opacity:1;display:none"
           transform="translate(353.57,481.73)">
          <rect
             id="rect3745"
             style="opacity:0.9;fill:#4d4d4d;fill-opacity:1;filter:url(#filter3174)"
             rx="6"
             ry="6"
             height="85"
             width="86"
             y="7"
             x="5" />
        </g>
        <g
           id="layer5"
           style="fill:#4d4d4d;fill-opacity:1;display:none"
           transform="translate(353.57,481.73)">
          <rect
             id="rect3171"
             style="opacity:0.1;fill:#4d4d4d;fill-opacity:1;stroke:#ffffff;stroke-width:0.5;stroke-linecap:round;filter:url(#filter3794)"
             clip-path="url(#clipPath4355)"
             rx="12"
             ry="12"
             height="62"
             width="66"
             y="15"
             x="15" />
        </g>
        <g
           id="layer2-5"
           style="fill:#4d4d4d;fill-opacity:1;display:none"
           transform="translate(353.47,490.07)">
          <rect
             id="rect3745-7"
             style="opacity:0.9;fill:#4d4d4d;fill-opacity:1;filter:url(#filter3174-3)"
             rx="6"
             ry="6"
             height="85"
             width="86"
             y="7"
             x="5" />
        </g>
        <g
           id="layer5-1"
           style="fill:#4d4d4d;fill-opacity:1;display:none"
           transform="translate(353.47,490.07)">
          <rect
             id="rect3171-6"
             style="opacity:0.1;fill:#4d4d4d;fill-opacity:1;stroke:#ffffff;stroke-width:0.5;stroke-linecap:round;filter:url(#filter3794-6)"
             clip-path="url(#clipPath4355-3)"
             rx="12"
             ry="12"
             height="62"
             width="66"
             y="15"
             x="15" />
        </g>
        <rect
           id="rect3745-9"
           style="opacity:0.9;fill:#4d4d4d;fill-opacity:1;display:none;filter:url(#filter3174-4)"
           rx="6"
           ry="6"
           height="85"
           width="86"
           y="566.21002"
           x="401.69" />
        <rect
           id="rect3171-0"
           style="opacity:0.1;fill:#4d4d4d;fill-opacity:1;stroke:#ffffff;stroke-width:0.5;stroke-linecap:round;display:none;filter:url(#filter3794-64)"
           transform="translate(396.69,559.21)"
           clip-path="url(#clipPath4355-9)"
           rx="12"
           ry="12"
           height="62"
           width="66"
           y="15"
           x="15" />
        <path
           id="rect3267"
           d="m 435.52,528.79 c -0.0269,-0.004 -0.0592,0.001 -0.087,0.009 l -0.77429,0.20879 c -0.11135,0.0298 -0.17824,0.14775 -0.1479,0.261 l 0.1044,0.40019 c -0.18488,0.10639 -0.35766,0.23493 -0.50459,0.3828 l -0.3567,-0.2088 c -0.0508,-0.0293 -0.10466,-0.0395 -0.15659,-0.0261 -0.0519,0.0134 -0.10168,0.0458 -0.1305,0.0957 l -0.40019,0.70469 c -0.0576,0.0998 -0.0232,0.22847 0.0783,0.2871 l 0.3567,0.20879 c -0.0546,0.20118 -0.0786,0.41309 -0.0783,0.62639 l -0.40019,0.1044 c -0.11325,0.0303 -0.18644,0.14095 -0.1566,0.2523 l 0.2088,0.78298 c 0.0298,0.11135 0.14774,0.17825 0.26099,0.1479 l 0.40019,-0.1044 c 0.1064,0.18488 0.23493,0.34896 0.3828,0.49589 l -0.2001,0.3654 c -0.0586,0.10154 -0.0302,0.22076 0.0696,0.27839 l 0.70469,0.4089 c 0.0998,0.0576 0.21977,0.0232 0.27839,-0.0783 l 0.2088,-0.3654 c 0.20118,0.0546 0.41308,0.0873 0.62639,0.087 l 0.1044,0.4002 c 0.0303,0.11325 0.14965,0.17773 0.26099,0.14789 l 0.78299,-0.20879 c 0.11135,-0.0298 0.16954,-0.14775 0.1392,-0.261 l -0.1044,-0.39149 c 0.18488,-0.10639 0.35766,-0.24363 0.50459,-0.3915 l 0.3567,0.2088 c 0.10153,0.0586 0.22946,0.0302 0.28709,-0.0696 l 0.40889,-0.70469 c 0.0576,-0.0998 0.0145,-0.22847 -0.087,-0.28709 l -0.3567,-0.2001 c 0.0546,-0.20118 0.0873,-0.41308 0.087,-0.62639 l 0.39149,-0.1131 c 0.11325,-0.0303 0.18644,-0.14095 0.1566,-0.25229 l -0.20879,-0.78299 c -0.0298,-0.11134 -0.14775,-0.17824 -0.261,-0.1479 l -0.40019,0.1044 c -0.10639,-0.18488 -0.23493,-0.34896 -0.3828,-0.49589 l 0.2088,-0.35669 c 0.0586,-0.10154 0.0216,-0.22947 -0.0783,-0.2871 l -0.70469,-0.40889 c -0.0998,-0.0576 -0.21977,-0.0232 -0.27839,0.0783 l -0.2088,0.36539 c -0.20118,-0.0546 -0.41308,-0.0873 -0.62639,-0.087 l -0.1044,-0.40019 c -0.0227,-0.0849 -0.0933,-0.14469 -0.174,-0.1566 z m 0.2349,2.0532 c 0.41104,-0.0246 0.79408,0.24805 0.90479,0.66119 0.12651,0.47215 -0.15424,0.95226 -0.62639,1.0788 -0.47216,0.12651 -0.96097,-0.15424 -1.0875,-0.62639 -0.12651,-0.47216 0.15424,-0.95227 0.62639,-1.0788 0.059,-0.0158 0.12398,-0.0313 0.1827,-0.0348 z m -4.2629,2.81 c -0.21912,0 -0.40019,0.17732 -0.40019,0.40019 v 0.79169 c -0.39181,0.10439 -0.76234,0.26188 -1.1049,0.46109 l -0.56549,-0.56549 c -0.0788,-0.0788 -0.16773,-0.11223 -0.2697,-0.1131 -0.10197,-8.3e-4 -0.20962,0.0356 -0.28709,0.1131 l -1.0875,1.0875 c -0.15494,0.15495 -0.14887,0.3992 0.009,0.5568 l 0.55679,0.56549 c -0.19922,0.34253 -0.3567,0.71307 -0.46109,1.1049 h -0.78299 c -0.22287,0 -0.40889,0.18107 -0.40889,0.40019 v 1.5312 c 0,0.21912 0.18602,0.40019 0.40889,0.40019 h 0.78299 c 0.10439,0.39181 0.26187,0.76234 0.46109,1.1049 l -0.55679,0.55679 c -0.15759,0.15759 -0.16366,0.41055 -0.009,0.56549 l 1.0875,1.0875 c 0.15494,0.15495 0.39919,0.1489 0.55679,-0.009 l 0.56549,-0.55679 c 0.34254,0.19921 0.71307,0.3567 1.1049,0.46109 v 0.78299 c 0,0.22287 0.18107,0.40889 0.40019,0.40889 h 1.5312 c 0.21912,0 0.40019,-0.18602 0.40019,-0.40889 v -0.78299 c 0.39181,-0.10439 0.76234,-0.26188 1.1049,-0.46109 l 0.56549,0.55679 c 0.15759,0.15759 0.40185,0.16364 0.55679,0.009 l 1.0875,-1.0875 c 0.15495,-0.15494 0.14888,-0.4079 -0.009,-0.56549 l -0.55679,-0.55679 c 0.19922,-0.34254 0.3567,-0.71307 0.46109,-1.1049 h 0.78299 c 0.22286,0 0.40889,-0.18107 0.40889,-0.40019 v -1.5312 c 0,-0.21912 -0.18603,-0.40019 -0.40889,-0.40019 h -0.78299 c -0.10439,-0.39181 -0.26187,-0.76235 -0.46109,-1.1049 l 0.55679,-0.56549 c 0.15759,-0.1576 0.16366,-0.40185 0.009,-0.5568 l -1.0875,-1.0875 c -0.15494,-0.15494 -0.3992,-0.15759 -0.55679,0 l -0.56549,0.56549 c -0.34254,-0.19921 -0.71307,-0.3567 -1.1049,-0.46109 v -0.79169 c 0,-0.22287 -0.18107,-0.40019 -0.40019,-0.40019 h -1.5312 z m 0.76559,3.8801 c 0.92919,0 1.6791,0.75858 1.6791,1.6878 0,0.92919 -0.74988,1.6791 -1.6791,1.6791 -0.92919,0 -1.6791,-0.74988 -1.6791,-1.6791 0,-0.92919 0.74988,-1.6878 1.6791,-1.6878 z"
           style="fill:#4d4d4d;fill-opacity:1;display:block"
           inkscape:connector-curvature="0" />
      </g>
      <g
         transform="translate(-421.7139,-525.7902)"
         id="layer1-9"
         style="fill:#4d4d4d;fill-opacity:1" />
    </g>
    <g
       style="fill:#4d4d4d;fill-opacity:1"
       id="layer1-0"
       transform="translate(-421.47397,-525.7902)" />
  </g>
  <g
     transform="translate(-421.47397,-525.7902)"
     id="layer1-94" />
  <g
     transform="translate(-425.45444,-521.7224)"
     id="layer1-6">
    <path
       d="m 439.79899,534.7222 0,6 5,-3 z"
       style="fill:#4d4d4d"
       id="rect4144"
       inkscape:connector-curvature="0"
       sodipodi:nodetypes="cccc" />
  </g>
</svg>
