<svg height="22" width="22" xmlns="http://www.w3.org/2000/svg" xmlns:sodipodi="http://sodipodi.sourceforge.net/DTD/sodipodi-0.dtd" xmlns:inkscape="http://www.inkscape.org/namespaces/inkscape">
 <path d="m 435.52,528.79 c -0.0269,-0.004 -0.0592,0.001 -0.087,0.009 l -0.77429,0.20879 c -0.11135,0.0298 -0.17824,0.14775 -0.1479,0.261 l 0.1044,0.40019 c -0.18488,0.10639 -0.35766,0.23493 -0.50459,0.3828 l -0.3567,-0.2088 c -0.0508,-0.0293 -0.10466,-0.0395 -0.15659,-0.0261 -0.0519,0.0134 -0.10168,0.0458 -0.1305,0.0957 l -0.40019,0.70469 c -0.0576,0.0998 -0.0232,0.22847 0.0783,0.2871 l 0.3567,0.20879 c -0.0546,0.20118 -0.0786,0.41309 -0.0783,0.62639 l -0.40019,0.1044 c -0.11325,0.0303 -0.18644,0.14095 -0.1566,0.2523 l 0.2088,0.78298 c 0.0298,0.11135 0.14774,0.17825 0.26099,0.1479 l 0.40019,-0.1044 c 0.1064,0.18488 0.23493,0.34896 0.3828,0.49589 l -0.2001,0.3654 c -0.0586,0.10154 -0.0302,0.22076 0.0696,0.27839 l 0.70469,0.4089 c 0.0998,0.0576 0.21977,0.0232 0.27839,-0.0783 l 0.2088,-0.3654 c 0.20118,0.0546 0.41308,0.0873 0.62639,0.087 l 0.1044,0.4002 c 0.0303,0.11325 0.14965,0.17773 0.26099,0.14789 l 0.78299,-0.20879 c 0.11135,-0.0298 0.16954,-0.14775 0.1392,-0.261 l -0.1044,-0.39149 c 0.18488,-0.10639 0.35766,-0.24363 0.50459,-0.3915 l 0.3567,0.2088 c 0.10153,0.0586 0.22946,0.0302 0.28709,-0.0696 l 0.40889,-0.70469 c 0.0576,-0.0998 0.0145,-0.22847 -0.087,-0.28709 l -0.3567,-0.2001 c 0.0546,-0.20118 0.0873,-0.41308 0.087,-0.62639 l 0.39149,-0.1131 c 0.11325,-0.0303 0.18644,-0.14095 0.1566,-0.25229 l -0.20879,-0.78299 c -0.0298,-0.11134 -0.14775,-0.17824 -0.261,-0.1479 l -0.40019,0.1044 c -0.10639,-0.18488 -0.23493,-0.34896 -0.3828,-0.49589 l 0.2088,-0.35669 c 0.0586,-0.10154 0.0216,-0.22947 -0.0783,-0.2871 l -0.70469,-0.40889 c -0.0998,-0.0576 -0.21977,-0.0232 -0.27839,0.0783 l -0.2088,0.36539 c -0.20118,-0.0546 -0.41308,-0.0873 -0.62639,-0.087 l -0.1044,-0.40019 c -0.0227,-0.0849 -0.0933,-0.14469 -0.174,-0.1566 z m 0.2349,2.0532 c 0.41104,-0.0246 0.79408,0.24805 0.90479,0.66119 0.12651,0.47215 -0.15424,0.95226 -0.62639,1.0788 -0.47216,0.12651 -0.96097,-0.15424 -1.0875,-0.62639 -0.12651,-0.47216 0.15424,-0.95227 0.62639,-1.0788 0.059,-0.0158 0.12398,-0.0313 0.1827,-0.0348 z m -4.2629,2.81 c -0.21912,0 -0.40019,0.17732 -0.40019,0.40019 v 0.79169 c -0.39181,0.10439 -0.76234,0.26188 -1.1049,0.46109 l -0.56549,-0.56549 c -0.0788,-0.0788 -0.16773,-0.11223 -0.2697,-0.1131 -0.10197,-8.3e-4 -0.20962,0.0356 -0.28709,0.1131 l -1.0875,1.0875 c -0.15494,0.15495 -0.14887,0.3992 0.009,0.5568 l 0.55679,0.56549 c -0.19922,0.34253 -0.3567,0.71307 -0.46109,1.1049 h -0.78299 c -0.22287,0 -0.40889,0.18107 -0.40889,0.40019 v 1.5312 c 0,0.21912 0.18602,0.40019 0.40889,0.40019 h 0.78299 c 0.10439,0.39181 0.26187,0.76234 0.46109,1.1049 l -0.55679,0.55679 c -0.15759,0.15759 -0.16366,0.41055 -0.009,0.56549 l 1.0875,1.0875 c 0.15494,0.15495 0.39919,0.1489 0.55679,-0.009 l 0.56549,-0.55679 c 0.34254,0.19921 0.71307,0.3567 1.1049,0.46109 v 0.78299 c 0,0.22287 0.18107,0.40889 0.40019,0.40889 h 1.5312 c 0.21912,0 0.40019,-0.18602 0.40019,-0.40889 v -0.78299 c 0.39181,-0.10439 0.76234,-0.26188 1.1049,-0.46109 l 0.56549,0.55679 c 0.15759,0.15759 0.40185,0.16364 0.55679,0.009 l 1.0875,-1.0875 c 0.15495,-0.15494 0.14888,-0.4079 -0.009,-0.56549 l -0.55679,-0.55679 c 0.19922,-0.34254 0.3567,-0.71307 0.46109,-1.1049 h 0.78299 c 0.22286,0 0.40889,-0.18107 0.40889,-0.40019 v -1.5312 c 0,-0.21912 -0.18603,-0.40019 -0.40889,-0.40019 h -0.78299 c -0.10439,-0.39181 -0.26187,-0.76235 -0.46109,-1.1049 l 0.55679,-0.56549 c 0.15759,-0.1576 0.16366,-0.40185 0.009,-0.5568 l -1.0875,-1.0875 c -0.15494,-0.15494 -0.3992,-0.15759 -0.55679,0 l -0.56549,0.56549 c -0.34254,-0.19921 -0.71307,-0.3567 -1.1049,-0.46109 v -0.79169 c 0,-0.22287 -0.18107,-0.40019 -0.40019,-0.40019 h -1.5312 z m 0.76559,3.8801 c 0.92919,0 1.6791,0.75858 1.6791,1.6878 0,0.92919 -0.74988,1.6791 -1.6791,1.6791 -0.92919,0 -1.6791,-0.74988 -1.6791,-1.6791 0,-0.92919 0.74988,-1.6878 1.6791,-1.6878 z" display="block" fill="#4d4d4d" fill-opacity="1" inkscape:connector-curvature="0" transform="matrix(0.93075 0.36566 -0.36566 0.93075 -196.9 -648.84)"/>
 <path d="m 15,15 -2,2 2,2 h 4 v -4 z m 0.6,1 H 18 v 2 h -2.4 l -1,-1 z" fill="#4d4d4d" fill-rule="evenodd" inkscape:connector-curvature="0" transform="matrix(1 0 0 1 0.236 0)"/>
</svg>
