<svg viewBox="0 0 16 16" height="16" width="16" xmlns="http://www.w3.org/2000/svg" xmlns:sodipodi="http://sodipodi.sourceforge.net/DTD/sodipodi-0.dtd" xmlns:inkscape="http://www.inkscape.org/namespaces/inkscape">
 <path stroke="none" stroke-dasharray="none" stroke-dashoffset="0" stroke-linecap="butt" stroke-linejoin="miter" color="#000000" stroke-miterlimit="4" stroke-opacity="1" color-interpolation="sRGB" image-rendering="auto" stroke-width="1" color-interpolation-filters="linearRGB" color-rendering="auto" d="M 12 2 C 10.892 2 10 2.892 10 4 C 10 5.108 10.892 6 12 6 C 13.108 6 14 5.108 14 4 C 14 2.892 13.108 2 12 2 z M 12 3 C 12.554 3 13 3.446 13 4 C 13 4.554 12.554 5 12 5 C 11.446 5 11 4.554 11 4 C 11 3.446 11.446 3 12 3 z M 8.5 4 C 8.223 4 8 4.223 8 4.5 C 8 4.777 8.223 5 8.5 5 C 8.777 5 9 4.777 9 4.5 C 9 4.223 8.777 4 8.5 4 z M 6.5 5 C 6.223 5 6 5.223 6 5.5 C 6 5.777 6.223 6 6.5 6 C 6.777 6 7 5.777 7 5.5 C 7 5.223 6.777 5 6.5 5 z M 4 6 C 2.892 6 2 6.892 2 8 C 2 9.108 2.892 10 4 10 C 5.108 10 6 9.108 6 8 C 6 6.892 5.108 6 4 6 z M 4 7 C 4.554 7 5 7.446 5 8 C 5 8.554 4.554 9 4 9 C 3.446 9 3 8.554 3 8 C 3 7.446 3.446 7 4 7 z M 6.5 10 C 6.223 10 6 10.223 6 10.5 C 6 10.777 6.223 11 6.5 11 C 6.777 11 7 10.777 7 10.5 C 7 10.223 6.777 10 6.5 10 z M 12 10 C 10.892 10 10 10.892 10 12 C 10 13.108 10.892 14 12 14 C 13.108 14 14 13.108 14 12 C 14 10.892 13.108 10 12 10 z M 8.5 11 C 8.223 11 8 11.223 8 11.5 C 8 11.777 8.223 12 8.5 12 C 8.777 12 9 11.777 9 11.5 C 9 11.223 8.777 11 8.5 11 z M 12 11 C 12.554 11 13 11.446 13 12 C 13 12.554 12.554 13 12 13 C 11.446 13 11 12.554 11 12 C 11 11.446 11.446 11 12 11 z " text-rendering="auto" display="inline" visibility="visible" fill="#bebebe" fill-opacity="1" opacity="1" fill-rule="nonzero" shape-rendering="auto"/>
</svg>
