<?xml version="1.0" encoding="UTF-8" standalone="no"?>
<!-- Created with Inkscape (http://www.inkscape.org/) -->

<svg
   xmlns:dc="http://purl.org/dc/elements/1.1/"
   xmlns:cc="http://creativecommons.org/ns#"
   xmlns:rdf="http://www.w3.org/1999/02/22-rdf-syntax-ns#"
   xmlns:svg="http://www.w3.org/2000/svg"
   xmlns="http://www.w3.org/2000/svg"
   xmlns:sodipodi="http://sodipodi.sourceforge.net/DTD/sodipodi-0.dtd"
   xmlns:inkscape="http://www.inkscape.org/namespaces/inkscape"
   id="svg3049"
   height="22"
   width="22"
   version="1.1"
   inkscape:version="0.48.5 r10040"
   sodipodi:docname="show-offline.svg">
  <defs
     id="defs10015" />
  <sodipodi:namedview
     pagecolor="#ffffff"
     bordercolor="#666666"
     borderopacity="1"
     objecttolerance="10"
     gridtolerance="10"
     guidetolerance="10"
     inkscape:pageopacity="0"
     inkscape:pageshadow="2"
     inkscape:window-width="1360"
     inkscape:window-height="712"
     id="namedview10013"
     showgrid="false"
     inkscape:zoom="10.727273"
     inkscape:cx="19.411424"
     inkscape:cy="15.558974"
     inkscape:window-x="-2"
     inkscape:window-y="28"
     inkscape:window-maximized="1"
     inkscape:current-layer="svg3049" />
  <metadata
     id="metadata3054">
    <rdf:RDF>
      <cc:Work
         rdf:about="">
        <dc:format>image/svg+xml</dc:format>
        <dc:type
           rdf:resource="http://purl.org/dc/dcmitype/StillImage" />
        <dc:title />
      </cc:Work>
    </rdf:RDF>
  </metadata>
  <g
     id="g11630"
     transform="translate(-19.762711,2.1440678)"
     style="fill:#4d4d4d">
    <path
       id="path11038-7"
       d="m 38.8125,13 c -1.436126,0.02124 -1.993598,0.04266 -3,0.0625 0.108397,0.451691 0.21875,0.89278 0.21875,1.0625 0,0.104699 -0.01731,0.173677 -0.0625,0.25 -0.04519,0.07632 -0.120535,0.167292 -0.25,0.28125 -0.08531,0.07509 -0.211584,0.139094 -0.34375,0.21875 -0.132166,0.07966 -0.259784,0.172986 -0.375,0.21875 l -0.4375,0.15625 0.21875,0.09375 c 0.02096,0.0088 0.01317,0.02257 0.03125,0.03125 0.135087,-0.01151 0.337314,-0.01803 0.4375,-0.03125 1.461692,-0.192933 2.348201,-0.456892 2.53125,-0.75 0.107003,-0.171339 0.0398,-0.266289 -0.21875,-0.375 L 37.375,14.125 37.78125,13.96875 c 0.230433,-0.09153 0.579378,-0.287313 0.75,-0.4375 C 38.79018,13.303334 38.8125,13.209399 38.8125,13 z"
       style="fill:#4d4d4d;fill-opacity:1"
       inkscape:connector-curvature="0" />
    <path
       id="path11038-5-7"
       d="m 31.96875,-0.1875 c -1.010714,-0.016591 -1.918637,0.41570794 -2.4375,1.15625 0.04018,0.004845 0.08467,-0.006269 0.125,0 0.64939,0.100958 1.13786,0.334587 1.5625,0.75 0.598604,0.5855969 0.842495,1.281224 0.84375,2.46875 6.68e-4,0.610764 0.02073,0.78125 0.09375,0.78125 0.05163,0 0.150369,0.049437 0.21875,0.125 0.293327,0.324122 -0.07802,1.453929 -0.53125,1.625 -0.153305,0.05787 -0.224836,0.182025 -0.34375,0.5 -0.08438,0.2256304 -0.289785,0.583955 -0.4375,0.8125 -0.215083,0.332773 -0.281459,0.486405 -0.28125,0.75 5.12e-4,0.648853 0.297481,0.878177 1.65625,1.375 0.153539,0.05613 0.384845,0.165578 0.5,0.21875 0.115157,0.05317 0.467032,0.205378 0.8125,0.34375 0.973462,0.389906 1.502333,0.794461 1.8125,1.40625 0.140353,0.27684 0.46875,1.681595 0.46875,2 0,0.116975 -0.03448,0.194865 -0.09375,0.28125 0.476297,-0.07801 0.960714,-0.173931 1.4375,-0.28125 l 0.40625,-0.15625 c 0.230433,-0.09153 0.579378,-0.287313 0.75,-0.4375 C 38.79018,13.303334 38.8125,13.209399 38.8125,13 c 0,-0.318405 -0.328397,-1.72316 -0.46875,-2 C 38.033583,10.388211 37.535962,9.983656 36.5625,9.59375 36.217032,9.455378 35.833907,9.30317 35.71875,9.25 35.603595,9.196828 35.372289,9.11863 35.21875,9.0625 33.859981,8.565677 33.594262,8.305103 33.59375,7.65625 33.593541,7.392655 33.659917,7.270273 33.875,6.9375 34.022715,6.708955 34.19687,6.3193804 34.28125,6.09375 34.400164,5.775775 34.471695,5.68287 34.625,5.625 35.078227,5.453929 35.449577,4.292872 35.15625,3.96875 35.08787,3.893187 34.98913,3.84375 34.9375,3.84375 34.86448,3.84375 34.84442,3.673264 34.84375,3.0625 34.84245,1.874974 34.629854,1.2105969 34.03125,0.625 33.60661,0.209587 33.08689,-0.055292 32.4375,-0.15625 32.275565,-0.1814256 32.127478,-0.1848945 31.96875,-0.1875 z"
       style="fill:#4d4d4d;fill-opacity:1"
       inkscape:connector-curvature="0" />
  </g>
  <g
     id="g11363"
     transform="translate(-2.0741785,0)">
    <g
       id="layer1"
       transform="translate(-400.1761,-531.38322)" />
  </g>
  <g
     transform="translate(-379.20152,-534.73915)"
     id="layer1-4" />
  <path
     sodipodi:nodetypes="ssscsssssssssssssscsssssssssssssssssssssssssssssssssssssssssssss"
     inkscape:connector-curvature="0"
     id="path11038-7-0"
     d="m 7.2731822,18.798421 c -2.183215,-0.17408 -3.447354,-0.445478 -3.822544,-0.820667 -0.148406,-0.148407 -0.157708,-0.279427 -0.01597,-0.22504 0.237585,0.09117 0.0797,-0.03041 -0.261718,-0.201547 -0.73954,-0.370684 -1.098452,-0.764606 -1.09895,-1.206148 -3.5e-4,-0.277678 0.378054,-1.840002 0.523147,-2.160142 0.131392,-0.289907 0.612865,-0.813507 0.975505,-1.060859 0.283708,-0.193513 0.797136,-0.422167 2.594792,-1.155589 0.75952,-0.309874 1.005645,-0.441825 1.064317,-0.570598 0.121191,-0.265986 0.091,-0.429955 -0.129959,-0.705917 -0.113455,-0.141693 -0.33322,-0.529038 -0.488366,-0.8607651 -0.155146,-0.3317275 -0.32801,-0.6207635 -0.38414,-0.6423025 -0.174407,-0.06692 -0.49855,-0.576197 -0.627326,-0.985608 -0.149191,-0.474316 -0.105209,-0.784871 0.15494,-1.094042 0.166386,-0.197738 0.185617,-0.27236 0.166901,-0.647624 -0.065,-1.303218 0.511387,-2.550906 1.453018,-3.145333 0.987529,-0.6234 2.600162,-0.649948 3.6078638,-0.05939 0.97512,0.571458 1.487944,1.586237 1.487944,2.944349 0,0.628607 0.0085,0.665032 0.209373,0.893778 0.180669,0.205771 0.20928,0.293146 0.208692,0.637335 -4.61e-4,0.270501 -0.05319,0.511647 -0.16386,0.749289 -0.154187,0.331108 -0.547403,0.801137 -0.670216,0.801137 -0.03097,0 -0.12649,0.172898 -0.212259,0.384218 -0.08577,0.2113185 -0.262149,0.5605916 -0.391957,0.7761596 -0.280774,0.466271 -0.304818,0.77966 -0.07898,1.029535 0.102039,0.112903 0.677761,0.383193 1.643995,0.771821 1.734504,0.697635 1.766696,0.713186 2.222651,1.073594 0.538622,0.425758 0.75706,0.82876 0.999834,1.844627 0.28769,1.203797 0.281475,1.439326 -0.04758,1.803551 -0.142127,0.157316 -0.410974,0.373162 -0.597438,0.479656 -0.233011,0.13308 -0.306437,0.20613 -0.23481,0.233617 0.08571,0.03288 0.08955,0.07119 0.02166,0.21558 -0.267651,0.569282 -2.768461,0.953685 -6.0846028,0.93527 -0.959629,-0.0053 -1.870405,-0.01972 -2.023946,-0.03195 z m 4.8412198,-1.17591 c 1.561377,-0.187943 3.057256,-0.629631 3.481183,-1.027888 0.08648,-0.08124 0.157236,-0.221015 0.157236,-0.310602 0,-0.332972 -0.358898,-1.666953 -0.524516,-1.949555 -0.276481,-0.471785 -0.722809,-0.733419 -2.468888,-1.447246 -0.897861,-0.367062 -1.710709,-0.739368 -1.806331,-0.827349 -0.413048,-0.380038 -0.583181,-1.311765 -0.30467,-1.668513 0.205005,-0.262596 0.544735,-0.9075966 0.639065,-1.2133116 0.103386,-0.335073 0.255451,-0.523434 0.42257,-0.523434 0.142878,0 0.369928,-0.342418 0.468629,-0.706746 0.07681,-0.283506 0.05818,-0.328475 -0.205434,-0.496049 -0.184252,-0.117125 -0.185471,-0.123577 -0.210426,-1.115048 -0.02321,-0.921569 -0.04028,-1.03026 -0.225016,-1.432343 -0.249764,-0.543599 -0.719975,-0.996102 -1.232233,-1.18583 -1.3529738,-0.501107 -2.8081308,-0.04458 -3.3439968,1.049088 -0.277903,0.567189 -0.376892,1.13158 -0.326748,1.862981 0.04361,0.636064 0.01602,0.734646 -0.241437,0.863008 -0.225851,0.112598 -0.237173,0.250635 -0.05525,0.673543 0.106225,0.246925 0.235111,0.410877 0.409583,0.521016 0.186667,0.117838 0.278824,0.241847 0.34545,0.464846 0.127532,0.426845 0.324445,0.8012095 0.652388,1.2402876 0.238309,0.319073 0.280387,0.425501 0.270595,0.684414 -0.01399,0.369777 -0.142389,0.696785 -0.370054,0.942442 -0.112216,0.121083 -0.671929,0.385744 -1.666763,0.788133 -1.823621,0.737616 -2.092155,0.879023 -2.472399,1.301946 -0.270027,0.300336 -0.318266,0.412831 -0.516569,1.204687 -0.120303,0.48038 -0.218731,0.93158 -0.218731,1.002667 0,0.557328 2.057896,1.185803 4.606224,1.406724 1.020615,0.08848 3.6195098,0.03258 4.7365388,-0.101868 z"
     style="fill:#4d4d4d;fill-opacity:1" />
</svg>
