<?xml version="1.0" encoding="UTF-8" standalone="no"?>
<!-- Created with Inkscape (http://www.inkscape.org/) -->

<svg
   xmlns:dc="http://purl.org/dc/elements/1.1/"
   xmlns:cc="http://creativecommons.org/ns#"
   xmlns:rdf="http://www.w3.org/1999/02/22-rdf-syntax-ns#"
   xmlns:svg="http://www.w3.org/2000/svg"
   xmlns="http://www.w3.org/2000/svg"
   xmlns:sodipodi="http://sodipodi.sourceforge.net/DTD/sodipodi-0.dtd"
   xmlns:inkscape="http://www.inkscape.org/namespaces/inkscape"
   id="svg3760"
   height="22"
   width="22"
   version="1.1"
   inkscape:version="0.48.5 r10040"
   sodipodi:docname="sleep.svg">
  <defs
     id="defs8" />
  <sodipodi:namedview
     pagecolor="#ffffff"
     bordercolor="#666666"
     borderopacity="1"
     objecttolerance="10"
     gridtolerance="10"
     guidetolerance="10"
     inkscape:pageopacity="0"
     inkscape:pageshadow="2"
     inkscape:window-width="622"
     inkscape:window-height="397"
     id="namedview6"
     showgrid="false"
     inkscape:zoom="7.5853275"
     inkscape:cx="21.699012"
     inkscape:cy="16.591432"
     inkscape:window-x="705"
     inkscape:window-y="268"
     inkscape:window-maximized="0"
     inkscape:current-layer="svg3760" />
  <metadata
     id="metadata3765">
    <rdf:RDF>
      <cc:Work
         rdf:about="">
        <dc:format>image/svg+xml</dc:format>
        <dc:type
           rdf:resource="http://purl.org/dc/dcmitype/StillImage" />
        <dc:title />
      </cc:Work>
    </rdf:RDF>
  </metadata>
  <path
     style="color:#000000;fill:#4d4d4d;fill-opacity:1;stroke:none;stroke-width:6;marker:none;visibility:visible;display:inline;overflow:visible;enable-background:accumulate"
     id="path3297"
     inkscape:connector-curvature="0"
     d="M 10.781631,3.002282 C 7.8026986,3.044812 4.9604576,4.914977 3.7398316,7.63021 c -1.381822,2.885173 -0.786392,6.563708 1.438743,8.86275 2.067161,2.24725 5.4653184,3.083726 8.3464984,2.099543 2.957177,-0.940097 5.179879,-3.75388 5.433267,-6.843616 C 19.294243,8.613136 17.571895,5.386816 14.767218,3.940376 13.55351,3.282859 12.159304,2.969863 10.781631,3.002282 z m 0.214471,2.278227 c 2.49855,-0.03857 4.863139,1.760576 5.504757,4.172283 0.03981,0.133107 0.06958,0.266884 0.0983,0.40204 l -11.2061124,0 c 0.137018,-0.696836 0.401725,-1.368859 0.804267,-1.96553 1.031915,-1.601117 2.887998,-2.629821 4.7987894,-2.608793 z m -5.5941194,6.861484 11.1882394,0 c -0.329278,1.561023 -1.291563,2.99093 -2.698761,3.779177 -2.195819,1.361982 -5.2762414,0.918588 -7.0328624,-0.964896 -0.760907,-0.76927 -1.246825,-1.765591 -1.456616,-2.814281 z" />
</svg>
