<svg height="24" width="24" xmlns="http://www.w3.org/2000/svg" xmlns:sodipodi="http://sodipodi.sourceforge.net/DTD/sodipodi-0.dtd" xmlns:inkscape="http://www.inkscape.org/namespaces/inkscape">
 <defs>
  <linearGradient x2="0" y1="493.84" y2="36.12" gradientUnits="userSpaceOnUse" id="linearGradient3091" inkscape:collect="always">
   <stop stop-color="#6e6e6e" stop-opacity="0.612"/>
   <stop stop-color="#000000" stop-opacity="0.655" offset="1"/>
  </linearGradient>
  <linearGradient x2="0" y1="493.84" y2="36.12" gradientUnits="userSpaceOnUse" id="linearGradient3093" inkscape:collect="always" gradientTransform="matrix(1 0 0 1 19.901 19.901)">
   <stop stop-color="#ffffff" stop-opacity="0.616"/>
   <stop stop-color="#ffffff" stop-opacity="1" offset="1"/>
  </linearGradient>
  <linearGradient x2="0" y1="513.74" y2="36.12" gradientUnits="userSpaceOnUse" id="linearGradient3095" inkscape:collect="always">
   <stop stop-color="#000000" stop-opacity="0.396"/>
   <stop stop-color="#000000" stop-opacity="0.282" offset="1"/>
  </linearGradient>
 </defs>
 <g inkscape:label="Camada 1" inkscape:groupmode="layer" transform="matrix(1 0 0 1 9398.62 -4989.88)">
  <g transform="matrix(0.00063 0 0 0.00063 -9544.21 5164.54)">
   <path stroke-width="2" d="m -3394.65,36.123713 159.2054,159.205437 0,-79.60272 39.8014,0 c 88.3982,0 159.2054,70.80727 159.2054,159.20544 0,37.07142 -12.6016,71.30055 -33.5824,98.2596 l 55.9707,55.97066 c 35.4778,-41.69861 57.2144,-95.47839 57.2144,-154.23026 0,-131.41867 -107.3895,-238.808157 -238.8081,-238.808157 l -199.0068,0 z m 17.4131,84.577887 c -35.4778,41.69861 -57.2145,95.4784 -57.2145,154.23027 0,131.41867 107.3896,238.80815 238.8082,238.80815 l 199.0068,0 -159.2055,-159.20544 0,79.60272 -39.8013,0 c -88.3982,0 -159.2055,-70.80725 -159.2055,-159.20543 0,-37.07142 12.6016,-71.30056 33.5824,-98.25961 l -55.9706,-55.97066 z" display="inline" fill="url(#linearGradient3091)" color="#000000" fill-opacity="1" stroke="none" visibility="visible" inkscape:connector-curvature="0"/>
   <path stroke-width="2" d="m -3235.4406,115.72643 0,79.60272 19.9007,19.90068 0,-79.60272 39.8013,0 c 38.9948,0 74.4105,14.32475 101.991,37.31377 -29.1253,-34.94249 -72.4882,-57.21445 -121.8916,-57.21445 l -39.8014,0 z m 217.6637,1.24379 c 37.5356,42.21707 60.9458,97.32547 60.9458,157.96165 0,58.75186 -21.7366,112.53165 -57.2144,154.23026 l 19.9006,19.90068 c 35.4778,-41.69861 57.2145,-95.4784 57.2145,-154.23026 0,-70.7825 -31.5653,-134.04589 -80.8465,-177.86233 z m -303.4854,59.70204 c -20.9808,26.95905 -33.5824,61.18818 -33.5824,98.25961 0,49.40343 22.272,92.7663 57.2145,121.89166 -22.9891,-27.58055 -37.3138,-62.99624 -37.3138,-101.99098 0,-37.07143 12.6016,-71.30056 33.5824,-98.25961 l -19.9007,-19.90068 z m -32.3386,276.12193 c 43.8165,49.28129 107.0799,80.84651 177.8623,80.84651 l 199.0068,0 -19.9007,-19.90068 -199.0067,0 c -60.6362,0 -115.7446,-23.41024 -157.9617,-60.94583 z" display="inline" fill="url(#linearGradient3093)" color="#000000" fill-opacity="1" stroke="none" visibility="visible" inkscape:connector-curvature="0"/>
   <path stroke-width="2" d="m -3394.6501,36.123713 19.9007,19.90068 199.0068,0 c 60.6361,0 115.7446,23.41024 157.9616,60.945827 -43.8165,-49.281267 -107.0799,-80.846507 -177.8623,-80.846507 l -199.0068,0 z m 17.4131,84.577887 c -35.4778,41.69861 -57.2145,95.4784 -57.2145,154.23027 0,70.78248 31.5653,134.04588 80.8465,177.86232 -37.5356,-42.21706 -60.9458,-97.32545 -60.9458,-157.96164 0,-58.75187 21.7367,-112.53166 57.2145,-154.23027 l -19.9007,-19.90068 z m 303.4854,52.23928 c 22.989,27.58057 37.3137,62.99623 37.3137,101.99099 0,37.07142 -12.6016,71.30055 -33.5824,98.2596 l 19.9007,19.90068 c 20.9808,-26.95905 33.5824,-61.18818 33.5824,-98.2596 0,-49.40342 -22.272,-92.7663 -57.2144,-121.89167 z m -82.0903,181.59371 0,79.60271 -39.8014,0 c -38.9948,0 -74.4104,-14.32474 -101.991,-37.31377 29.1254,34.94249 72.4882,57.21445 121.8917,57.21445 l 39.8013,0 0,-79.60272 -19.9006,-19.90067 z" display="inline" fill="url(#linearGradient3095)" color="#000000" fill-opacity="1" stroke="none" visibility="visible" inkscape:connector-curvature="0"/>
  </g>
  <path d="m -9392.6161,4993.8786 -1.75,7 -3.25,0 0,1 4,0 3,0 -2,-8 z m 2,8 2,8 2,-8 -4,0 z m 4,0 4,0 -2,-8 -2,8 z m 4,0 2,8 1.75,-7 3.25,0 0,-1 -3,0 -1,0 -3,0 z" stroke-width="1" display="inline" fill="#4d4d4d" color="#000000" fill-opacity="1" fill-rule="nonzero" stroke="none" visibility="visible" inkscape:connector-curvature="0"/>
 </g>
</svg>
