<svg height="48" width="48" xmlns="http://www.w3.org/2000/svg" xmlns:sodipodi="http://sodipodi.sourceforge.net/DTD/sodipodi-0.dtd" xmlns:inkscape="http://www.inkscape.org/namespaces/inkscape">
 <path d="m 8,18.5 h 4 v 11 H 8 z" fill="#4d4d4d" inkscape:connector-curvature="0"/>
 <path d="M 14,16.5 24,8 V 40 L 14,31.5 z" fill="#4d4d4d" inkscape:connector-curvature="0"/>
 <path d="m 28.438,17.346 -2.221,3.328 C 27.291,21.391 28,22.611 28,24 c 0,1.389 -0.709,2.609 -1.783,3.326 l 2.221,3.328 C 30.585,29.22 32,26.776 32,24 32,21.224 30.585,18.78 28.438,17.346 z" fill="#4d4d4d" inkscape:connector-curvature="0"/>
 <path d="m 32.873,10.689 -2.217,3.327 C 33.877,16.167 36,19.836 36,24 c 0,4.164 -2.123,7.833 -5.344,9.984 l 2.217,3.327 C 37.168,34.441 40,29.553 40,24 40,18.447 37.168,13.559 32.873,10.689 z" fill="#4d4d4d" inkscape:connector-curvature="0"/>
</svg>
