<svg height="24" width="24" xmlns="http://www.w3.org/2000/svg" xmlns:sodipodi="http://sodipodi.sourceforge.net/DTD/sodipodi-0.dtd" xmlns:inkscape="http://www.inkscape.org/namespaces/inkscape">
 <path d="m 13.057237,1043.4852 -2.291836,0 0,-6.2499 2.291836,0 0,6.2499 z m 0,3.6481 -2.291836,0 0,-2.0835 2.291836,0 0,2.0835 z m 8.761777,1.0201 -9.278305,-16.2828 c -0.127034,-0.2244 -0.368865,-0.3624 -0.629401,-0.3624 -0.260514,0 -0.501695,0.138 -0.629379,0.3624 l -9.2763892,16.2828 c -0.127034,0.2213 -0.1250999,0.4902 0.00395,0.7088 0.1315564,0.2186 0.3669278,0.354 0.6229425,0.354 l 18.5579226,0 c 0.256015,0 0.491385,-0.1349 0.622943,-0.354 0.128982,-0.2186 0.131543,-0.4875 0.0059,-0.7088" fill="#4d4d4d" fill-opacity="1" fill-rule="nonzero" stroke="none" inkscape:label="Capa 1" inkscape:groupmode="layer" inkscape:connector-curvature="0" transform="matrix(1 0 0 1 0 -1028.36)"/>
</svg>
