<svg height="22" width="22" xmlns="http://www.w3.org/2000/svg" xmlns:sodipodi="http://sodipodi.sourceforge.net/DTD/sodipodi-0.dtd" xmlns:inkscape="http://www.inkscape.org/namespaces/inkscape">
 <path d="m9 3v1 4h-1.8906-1.1543l-3.9551 6.85v1.461 2.689h4 10 4v-2.689-1.461l-3.955-6.85h-0.045-3v-4-1h-4zm1 1h2v7h1v-2h2.469l3.465 6h-2.934l-1 2h-8l-1-2h-2.9336l3.4648-6h2.4688v2h1v-7zm-3.2422 6.344l-0.707 0.707 4.9492 4.949 4.949-4.949-0.707-0.707-4.242 4.242-4.2422-4.242z" fill="#4d4d4d" transform="matrix(1 0 0 1 0 0)"/>
</svg>
