<?xml version="1.0" encoding="UTF-8" standalone="no"?>
<!-- Created with Inkscape (http://www.inkscape.org/) -->

<svg
   xmlns:dc="http://purl.org/dc/elements/1.1/"
   xmlns:cc="http://creativecommons.org/ns#"
   xmlns:rdf="http://www.w3.org/1999/02/22-rdf-syntax-ns#"
   xmlns:svg="http://www.w3.org/2000/svg"
   xmlns="http://www.w3.org/2000/svg"
   xmlns:sodipodi="http://sodipodi.sourceforge.net/DTD/sodipodi-0.dtd"
   xmlns:inkscape="http://www.inkscape.org/namespaces/inkscape"
   id="svg3869"
   height="22"
   width="22"
   version="1.1"
   inkscape:version="0.48.5 r10040"
   sodipodi:docname="stock_outbox.svg">
  <defs
     id="defs18507" />
  <sodipodi:namedview
     pagecolor="#ffffff"
     bordercolor="#666666"
     borderopacity="1"
     objecttolerance="10"
     gridtolerance="10"
     guidetolerance="10"
     inkscape:pageopacity="0"
     inkscape:pageshadow="2"
     inkscape:window-width="640"
     inkscape:window-height="480"
     id="namedview18505" />
  <metadata
     id="metadata3874">
    <rdf:RDF>
      <cc:Work
         rdf:about="">
        <dc:format>image/svg+xml</dc:format>
        <dc:type
           rdf:resource="http://purl.org/dc/dcmitype/StillImage" />
        <dc:title />
      </cc:Work>
    </rdf:RDF>
  </metadata>
  <g
     id="layer1"
     transform="translate(-326 -534.36)">
    <path
       id="rect4170-1"
       style="fill:#4d4d4d"
       d="m335 540.36h1v7h2v-7h1l0.00001 2.5 0.00001 4.5v1h-4-0.00002v-1-4.5zm-2.2422 0.65625-0.70703-0.70703 4.9492-4.9492 4.9492 4.9492-0.70703 0.70703l-4.24-4.24z" />
    <path
       id="rect4170"
       style="fill:#4d4d4d"
       d="m13 9h2.4688l3.4648 6h-2.934l-1 2h-8l-1-2h-2.9336l3.4648-6h2.4688v-1h-1.8906-1.1543l-3.9551 6.85v1.461 2.689h4 10 4v-2.6895-1.4609l-3.955-6.85h-0.045-3zm-6.9492 2.0508c-4.0339 7.2995-2.0169 3.6497 0 0z"
       transform="translate(326 534.36)" />
  </g>
</svg>
