<?xml version="1.0" encoding="UTF-8" standalone="no"?>
<!-- Created with Inkscape (http://www.inkscape.org/) -->

<svg
   xmlns:dc="http://purl.org/dc/elements/1.1/"
   xmlns:cc="http://creativecommons.org/ns#"
   xmlns:rdf="http://www.w3.org/1999/02/22-rdf-syntax-ns#"
   xmlns:svg="http://www.w3.org/2000/svg"
   xmlns="http://www.w3.org/2000/svg"
   xmlns:sodipodi="http://sodipodi.sourceforge.net/DTD/sodipodi-0.dtd"
   xmlns:inkscape="http://www.inkscape.org/namespaces/inkscape"
   id="svg2"
   height="22"
   viewBox="0 0 22 22"
   width="22"
   version="1.1"
   inkscape:version="0.48.5 r10040"
   sodipodi:docname="stock_save-all.svg">
  <defs
     id="defs18759" />
  <sodipodi:namedview
     pagecolor="#ffffff"
     bordercolor="#666666"
     borderopacity="1"
     objecttolerance="10"
     gridtolerance="10"
     guidetolerance="10"
     inkscape:pageopacity="0"
     inkscape:pageshadow="2"
     inkscape:window-width="640"
     inkscape:window-height="480"
     id="namedview18757" />
  <metadata
     id="metadata7">
    <rdf:RDF>
      <cc:Work
         rdf:about="">
        <dc:format>image/svg+xml</dc:format>
        <dc:type
           rdf:resource="http://purl.org/dc/dcmitype/StillImage" />
        <dc:title />
      </cc:Work>
    </rdf:RDF>
  </metadata>
  <g
     id="layer1"
     transform="translate(0 -1030.4)">
    <path
       id="rect4069"
       style="fill:#4d4d4d"
       d="m3 3v1 15h1 7v-1h-7v-8h3v-0.0078l0.0078 0.0078 2-2h8.9922v3h1v-6h-6.9922l-2-2-0.008 0.0078v-0.0078h-6z"
       transform="translate(0 1030.4)" />
    <path
       id="rect4071"
       style="fill:#4d4d4d"
       d="m16.5 1049.6-0.20703-0.207-3.293-3.293 0.70703-0.707 2.293 2.2929v-4.2929h1v4.2929l2.293-2.2929 0.70703 0.707-3.293 3.293-0.20703 0.207z" />
    <path
       id="rect4111"
       style="fill:#4d4d4d"
       d="m12 12v1 1h1v-1h1v-1h-1-1zm7 0v1h1v1h1v-1-1h-2zm-7 5v1 1h2v-1h-1v-1h-1zm8 0v1h-1v1h2v-1-1h-1z"
       transform="translate(0 1030.4)" />
  </g>
</svg>
