<svg height="22" viewBox="0 0 22 22" width="22" xmlns="http://www.w3.org/2000/svg" xmlns:sodipodi="http://sodipodi.sourceforge.net/DTD/sodipodi-0.dtd" xmlns:inkscape="http://www.inkscape.org/namespaces/inkscape">
 <path d="m3 3v1 15h1 5v-1h-5v-8h3v-0.0078l0.0078 0.0078 2-2h8.9922v2.5h1v-5.5h-6.9922l-2-2-0.008 0.0078v-0.0078h-6z" fill="#4d4d4d" transform="matrix(1 0 0 1 0 0)"/>
 <path d="m3 3v1 15h1 15v-1-13h-6.9922l-2-2-0.008 0.0078v-0.0078h-6-1zm6.0078 5h8.9922v10h-14v-8h3v-0.0078l0.0078 0.0078 2-2z" fill="#4d4d4d" transform="matrix(0.6561 0 0 0.6561 7.47 7.515)"/>
</svg>
