<?xml version="1.0" encoding="UTF-8" standalone="no"?>
<!-- Created with Inkscape (http://www.inkscape.org/) -->

<svg
   xmlns:dc="http://purl.org/dc/elements/1.1/"
   xmlns:cc="http://creativecommons.org/ns#"
   xmlns:rdf="http://www.w3.org/1999/02/22-rdf-syntax-ns#"
   xmlns:svg="http://www.w3.org/2000/svg"
   xmlns="http://www.w3.org/2000/svg"
   xmlns:sodipodi="http://sodipodi.sourceforge.net/DTD/sodipodi-0.dtd"
   xmlns:inkscape="http://www.inkscape.org/namespaces/inkscape"
   id="svg2"
   height="22"
   viewBox="0 0 22 22"
   width="22"
   version="1.1"
   inkscape:version="0.48.5 r10040"
   sodipodi:docname="stock_spellcheck.svg">
  <defs
     id="defs8" />
  <sodipodi:namedview
     pagecolor="#ffffff"
     bordercolor="#666666"
     borderopacity="1"
     objecttolerance="10"
     gridtolerance="10"
     guidetolerance="10"
     inkscape:pageopacity="0"
     inkscape:pageshadow="2"
     inkscape:window-width="1360"
     inkscape:window-height="712"
     id="namedview6"
     showgrid="false"
     inkscape:zoom="10.727273"
     inkscape:cx="-4.6144068"
     inkscape:cy="11"
     inkscape:window-x="-2"
     inkscape:window-y="28"
     inkscape:window-maximized="1"
     inkscape:current-layer="svg2" />
  <metadata
     id="metadata7">
    <rdf:RDF>
      <cc:Work
         rdf:about="">
        <dc:format>image/svg+xml</dc:format>
        <dc:type
           rdf:resource="http://purl.org/dc/dcmitype/StillImage" />
        <dc:title />
      </cc:Work>
    </rdf:RDF>
  </metadata>
  <g
     id="g10052"
     transform="translate(-1.7903208,-2.9948061)">
    <path
       id="path4120"
       d="m 11.28125,2.9375 c -2.5064,0.058 -4.4136,0.4838 -5.8125,1.125 L 6.25,6.9375 C 6.92031,6.7043 9.4511,5.90625 10.9375,5.90625 l 0.21875,0 c 2.0692,0.087 2.21875,0.8472 2.21875,2.625 l 0,0.6875 -1.09375,0.1875 c -5.0128,0.7286 -7.6875,1.3405 -7.6875,5.1875 0,1.476795 0.5891701,2.624237 1.59375,3.375 L 8.53125,15.625 C 8.3166377,15.308606 8.1875,14.898917 8.1875,14.4375 c 0,-2.0984 1.84975,-2.46065 4.09375,-2.78125 L 13.375,11.5 l 0,3.5625 c -0.943513,0.637525 -1.704397,1.139627 -2.8125,1.25 l 1.59375,1.59375 5.25,-5.25 0,-4.8125 c 0,-3.2933 -2.2527,-4.90625 -5.75,-4.90625 l -0.375,0 z"
       style="fill:#4d4d4d"
       inkscape:connector-curvature="0" />
    <g
       style="fill:#4d4d4d"
       id="layer1-2-4"
       transform="matrix(0.649539,0,0,0.649539,-437.9786,-343.47014)">
      <path
         inkscape:connector-curvature="0"
         id="rect1172-0-3"
         style="fill:#4d4d4d"
         d="m 684.18,558.86 4.1259,4.1258 4.3739,4.3739 4.3852,-4.3852 9.5369,-9.5368 -4.3739,-4.3739 -9.5369,9.5369 -4.1259,-4.1259 -4.39,4.39 z" />
    </g>
  </g>
</svg>
