<?xml version="1.0" encoding="UTF-8" standalone="no"?>
<!-- Created with Inkscape (http://www.inkscape.org/) -->

<svg
   xmlns:dc="http://purl.org/dc/elements/1.1/"
   xmlns:cc="http://creativecommons.org/ns#"
   xmlns:rdf="http://www.w3.org/1999/02/22-rdf-syntax-ns#"
   xmlns:svg="http://www.w3.org/2000/svg"
   xmlns="http://www.w3.org/2000/svg"
   xmlns:sodipodi="http://sodipodi.sourceforge.net/DTD/sodipodi-0.dtd"
   xmlns:inkscape="http://www.inkscape.org/namespaces/inkscape"
   id="svg3869"
   height="22"
   width="22"
   version="1.1"
   inkscape:version="0.48.5 r10040"
   sodipodi:docname="stock_attach.svg">
  <sodipodi:namedview
     pagecolor="#ffffff"
     bordercolor="#666666"
     borderopacity="1"
     objecttolerance="10"
     gridtolerance="10"
     guidetolerance="10"
     inkscape:pageopacity="0"
     inkscape:pageshadow="2"
     inkscape:window-width="1360"
     inkscape:window-height="712"
     id="namedview35"
     showgrid="false"
     inkscape:zoom="7.5853273"
     inkscape:cx="-16.792221"
     inkscape:cy="8.1819882"
     inkscape:window-x="-2"
     inkscape:window-y="28"
     inkscape:window-maximized="1"
     inkscape:current-layer="svg3869" />
  <defs
     id="defs3871" />
  <metadata
     id="metadata3874">
    <rdf:RDF>
      <cc:Work
         rdf:about="">
        <dc:format>image/svg+xml</dc:format>
        <dc:type
           rdf:resource="http://purl.org/dc/dcmitype/StillImage" />
        <dc:title />
      </cc:Work>
    </rdf:RDF>
  </metadata>
  <path
     style="fill:#4d4d4d"
     d="m 4.6479949,18.955122 c -1.040442,-0.371097 -1.728297,-0.970917 -2.228313,-1.943127 -0.357885,-0.695854 -0.424662,-0.987319 -0.419404,-1.830578 0.0103,-1.651734 0.211401,-1.912866 5.347052,-6.9432605 5.3341681,-5.224843 5.5956611,-5.410565 7.6179381,-5.410565 1.093419,0 1.322783,0.04896 2.159988,0.46112 1.114736,0.548783 1.987563,1.442712 2.50404,2.564578 C 19.936749,6.5211195 20,6.8642945 20,7.8645435 c 0,2.0388411 -0.171054,2.2952775 -4.286185,6.4255995 -2.923275,2.934065 -3.562789,3.510186 -3.858716,3.476206 -0.251689,-0.0289 -0.368709,-0.139752 -0.402897,-0.381662 -0.0398,-0.281597 0.545762,-0.935972 3.364568,-3.759978 3.792734,-3.7997314 4.040057,-4.1480124 4.040057,-5.6892225 0,-2.181517 -1.762263,-3.943777 -3.95118,-3.951176 -1.571296,-0.0053 -1.857021,0.207164 -6.8351281,5.0828371 -3.084358,3.0208924 -4.568468,4.5735584 -4.746747,4.9660094 -0.488303,1.074931 -0.220051,2.537573 0.604403,3.295503 0.854354,0.785417 2.234203,0.971201 3.211741,0.43243 0.584946,-0.322393 8.8317951,-8.3355504 9.2900701,-9.0268174 0.707688,-1.0674811 -0.163682,-2.5723611 -1.489471,-2.5723611 -0.696214,0 -1.176617,0.400826 -4.573952,3.8162932 -2.0365621,2.0474313 -3.0748861,2.9942343 -3.2836681,2.9942343 -0.286227,0 -0.477577,-0.243368 -0.477577,-0.607401 0,-0.268905 6.2746151,-6.4846955 6.9504271,-6.8852695 1.322224,-0.783718 3.040051,-0.349679 3.808983,0.962405 0.510378,0.870894 0.518927,1.974588 0.02156,2.7832091 -0.193792,0.315068 -2.340102,2.5323604 -4.769577,4.9273174 -4.7173511,4.650324 -5.0149151,4.880134 -6.4831721,5.006962 -0.498722,0.04308 -0.975243,-0.02253 -1.485542,-0.20454 z"
     id="path10039"
     inkscape:connector-curvature="0" />
</svg>
