<svg height="22" width="22" xmlns="http://www.w3.org/2000/svg" xmlns:sodipodi="http://sodipodi.sourceforge.net/DTD/sodipodi-0.dtd" xmlns:inkscape="http://www.inkscape.org/namespaces/inkscape">
 <g transform="matrix(1 0 0 1 -421.71 -525.79)">
  <path d="m3 3v3 13h1 5v-1h-5v-12h12v4h1v-4-1-2h-2v1h-1v-1h-8v1h-1v-1zm14 8-0.99609 0.99414-0.0039-0.0039-5 4.998 0.0078 0.0078l-0.004 1.004h-0.004v0.99 0.01h2l0.0059-0.0059 0.0039-0.0039c0.004-0.00002 0.0058 0.002 0.0098 0.002l-0.0059-0.0059 0.986-0.986 4-3.9961-0.70508-0.70898-4.9902 4.9863-0.59375-0.5918 4.9922-4.9883 0.5918 0.59375 0.705 0.703 1-1z" fill="#4d4d4d" transform="matrix(1 0 0 1 421.71 525.79)"/>
  <path d="m426.71 532.79h10v1h-10z" fill="#4d4d4d"/>
  <path d="m426.71 535.79h10v1h-10z" fill="#4d4d4d"/>
  <path d="m426.71 538.79h7v1h-7z" fill="#4d4d4d"/>
 </g>
</svg>
