<?xml version="1.0" encoding="UTF-8" standalone="no"?>
<!-- Created with Inkscape (http://www.inkscape.org/) -->

<svg
   xmlns:dc="http://purl.org/dc/elements/1.1/"
   xmlns:cc="http://creativecommons.org/ns#"
   xmlns:rdf="http://www.w3.org/1999/02/22-rdf-syntax-ns#"
   xmlns:svg="http://www.w3.org/2000/svg"
   xmlns="http://www.w3.org/2000/svg"
   xmlns:sodipodi="http://sodipodi.sourceforge.net/DTD/sodipodi-0.dtd"
   xmlns:inkscape="http://www.inkscape.org/namespaces/inkscape"
   id="svg3049"
   height="22"
   width="22"
   version="1.1"
   inkscape:version="0.48.5 r10040"
   sodipodi:docname="stroke-join-bevel.svg">
  <defs
     id="defs19246" />
  <sodipodi:namedview
     pagecolor="#ffffff"
     bordercolor="#666666"
     borderopacity="1"
     objecttolerance="10"
     gridtolerance="10"
     guidetolerance="10"
     inkscape:pageopacity="0"
     inkscape:pageshadow="2"
     inkscape:window-width="640"
     inkscape:window-height="480"
     id="namedview19244" />
  <metadata
     id="metadata3054">
    <rdf:RDF>
      <cc:Work
         rdf:about="">
        <dc:format>image/svg+xml</dc:format>
        <dc:type
           rdf:resource="http://purl.org/dc/dcmitype/StillImage" />
        <dc:title />
      </cc:Work>
    </rdf:RDF>
  </metadata>
  <g
     id="layer1"
     transform="translate(-421.71 -525.79)">
    <path
       id="rect4144"
       style="fill:#4d4d4d"
       d="m9.2422 3l-4.2422 4.2422 0.0078 0.0078h-0.0078v2.75 9h1 3v-1-8.3438l2.656-2.6562h4.344 1v-1-2-1h-1-5.01-1.7459-0.0019zm0.414 1h1.3338 5.01v2h-4-0.754-0.004l-3.242 3.2422v0.0019 8.7559h-2v-10.344l3.6562-3.656zm1.3438 5v1 9h1 3v-1-5h1 1v-1-2-1h-1-1-3-1zm1 1h3 1v2h-1-1v1 5h-2v-8z"
       transform="translate(421.71 525.79)" />
  </g>
</svg>
