<svg height="22" width="22" xmlns="http://www.w3.org/2000/svg" xmlns:sodipodi="http://sodipodi.sourceforge.net/DTD/sodipodi-0.dtd" xmlns:inkscape="http://www.inkscape.org/namespaces/inkscape">
 <path d="m9.2422 3l-4.2422 4.2422 0.0078 0.0078h-0.0078v2.75 9h1 3v-1-8.3438l2.656-2.6562h4.344 1v-1-2-1h-1-5.01-1.7459-0.0019zm0.414 1h1.3338 5.01v2h-4-0.754-0.004l-3.242 3.2422v0.0019 8.7559h-2v-10.344l3.6562-3.656zm1.3438 5v1 9h1 3v-1-5h1 1v-1-2-1h-1-1-3-1zm1 1h3 1v2h-1-1v1 5h-2v-8z" fill="#4d4d4d" transform="matrix(1 0 0 1 0 0)"/>
</svg>
