<svg height="22" width="22" xmlns="http://www.w3.org/2000/svg" xmlns:sodipodi="http://sodipodi.sourceforge.net/DTD/sodipodi-0.dtd" xmlns:inkscape="http://www.inkscape.org/namespaces/inkscape">
 <g transform="matrix(1 0 0 1 -421.71 -525.79)">
  <path d="m431.61 528.79c-0.31484 0-0.575 0.25478-0.575 0.575v1.1375c-0.56295 0.14999-1.0953 0.37626-1.5875 0.6625l-0.8125-0.8125c-0.11322-0.11321-0.24099-0.16126-0.3875-0.1625-0.14651-0.001-0.30119 0.0512-0.4125 0.1625l-1.5625 1.5625c-0.22262 0.22262-0.21391 0.57357 0.0125 0.8l0.8 0.8125c-0.28624 0.49216-0.51251 1.0245-0.6625 1.5875h-1.125c-0.32022 0-0.5875 0.26016-0.5875 0.575v2.2c0 0.31484 0.26728 0.575 0.5875 0.575h1.125c0.14999 0.56296 0.37626 1.0953 0.6625 1.5875l-0.8 0.8c-0.22643 0.22643-0.23514 0.58988-0.0125 0.8125l1.5625 1.5625c0.22263 0.22262 0.57357 0.21393 0.8-0.0125l0.8125-0.8c0.49216 0.28624 1.0246 0.51251 1.5875 0.6625v1.125c0 0.32022 0.26016 0.5875 0.575 0.5875h2.2c0.31483 0 0.57499-0.26728 0.57499-0.5875v-1.125c0.56296-0.14999 1.0953-0.37626 1.5875-0.6625l0.8125 0.8c0.22643 0.22643 0.57738 0.23512 0.8 0.0125l1.5625-1.5625c0.22262-0.22262 0.21391-0.58606-0.0125-0.8125l-0.8-0.79999c0.28624-0.49216 0.51251-1.0246 0.6625-1.5875h1.125c0.32022-0.00001 0.5875-0.26017 0.5875-0.57501v-2.2c0-0.31484-0.26728-0.575-0.5875-0.575h-1.125c-0.14999-0.56296-0.37626-1.0953-0.6625-1.5875l0.8-0.8125c0.22643-0.22643 0.23515-0.57738 0.0125-0.8l-1.5625-1.5625c-0.22262-0.22262-0.57357-0.22643-0.79999 0l-0.81251 0.8125c-0.49216-0.28624-1.0245-0.51251-1.5875-0.6625v-1.1375c0-0.32022-0.26016-0.575-0.575-0.575z" display="block" fill="#4d4d4d"/>
  <path d="m9 11h1v-7h2v7h1v-2.5-4.5-1h-4v1 4.5zm-2.2422-0.656-0.707 0.707 4.9492 4.949 4.949-4.949-0.707-0.707-4.242 4.242z" fill="#fff" transform="matrix(0.64 0 0 -0.64 425.67 542.87)"/>
 </g>
</svg>
