<svg height="22" width="22" xmlns="http://www.w3.org/2000/svg" xmlns:sodipodi="http://sodipodi.sourceforge.net/DTD/sodipodi-0.dtd" xmlns:inkscape="http://www.inkscape.org/namespaces/inkscape">
 <path d="m3 3v1 14 1h10v-1h-9v-14h4v3h8 2v6h1v-7h-1-2v-3h-8-4-1zm13 10l-0.574 1.613-1.547-0.734 0.734 1.547-1.613 0.574 1.613 0.574-0.734 1.547 1.547-0.734 0.574 1.613 0.574-1.613 1.547 0.734-0.734-1.547 1.613-0.574-1.613-0.574 0.734-1.547-1.547 0.734-0.574-1.613z" fill="#4d4d4d" transform="matrix(1 0 0 1 0 0)"/>
</svg>
