<?xml version="1.0" encoding="UTF-8" standalone="no"?>
<!-- Created with Inkscape (http://www.inkscape.org/) -->

<svg
   xmlns:dc="http://purl.org/dc/elements/1.1/"
   xmlns:cc="http://creativecommons.org/ns#"
   xmlns:rdf="http://www.w3.org/1999/02/22-rdf-syntax-ns#"
   xmlns:svg="http://www.w3.org/2000/svg"
   xmlns="http://www.w3.org/2000/svg"
   xmlns:xlink="http://www.w3.org/1999/xlink"
   xmlns:sodipodi="http://sodipodi.sourceforge.net/DTD/sodipodi-0.dtd"
   xmlns:inkscape="http://www.inkscape.org/namespaces/inkscape"
   id="svg4355"
   height="22"
   width="22"
   version="1.1"
   inkscape:version="0.48.5 r10040"
   sodipodi:docname="tags.svg">
  <sodipodi:namedview
     pagecolor="#ffffff"
     bordercolor="#666666"
     borderopacity="1"
     objecttolerance="10"
     gridtolerance="10"
     guidetolerance="10"
     inkscape:pageopacity="0"
     inkscape:pageshadow="2"
     inkscape:window-width="640"
     inkscape:window-height="480"
     id="namedview19620" />
  <defs
     id="defs4357">
    <filter
       id="filter3657"
       color-interpolation-filters="sRGB">
      <feGaussianBlur
         id="feGaussianBlur3659"
         stdDeviation="1.14" />
    </filter>
    <clipPath
       id="clipPath3649">
      <rect
         id="rect3651"
         style="fill:#fff"
         rx="4"
         ry="4"
         height="76"
         width="76"
         y="10"
         x="10" />
    </clipPath>
    <clipPath
       id="clipPath3625">
      <path
         id="path3627"
         d="m0 0v96h96v-96h-96zm12 6h72c3.324 0 6 2.676 6 6v72c0 3.324-2.676 6-6 6h-72c-3.324 0-6-2.676-6-6v-72c0-3.324 2.676-6 6-6z"
         style="fill:#fff" />
    </clipPath>
    <clipPath
       id="clipPath3613">
      <rect
         id="rect3615"
         style="fill:#fff"
         rx="6"
         ry="6"
         height="84"
         width="84"
         y="6"
         x="6" />
    </clipPath>
    <filter
       id="filter3794"
       height="1.384"
       width="1.384"
       color-interpolation-filters="sRGB"
       y="-.192"
       x="-.192">
      <feGaussianBlur
         id="feGaussianBlur3796"
         stdDeviation="5.28" />
    </filter>
    <filter
       id="filter3174"
       color-interpolation-filters="sRGB">
      <feGaussianBlur
         id="feGaussianBlur3176"
         stdDeviation="1.71" />
    </filter>
    <linearGradient
       id="linearGradient3737">
      <stop
         id="stop3739"
         style="stop-color:#fff"
         offset="0" />
      <stop
         id="stop3741"
         style="stop-color:#fff;stop-opacity:0"
         offset="1" />
    </linearGradient>
    <linearGradient
       id="linearGradient3222"
       y2="138.66"
       xlink:href="#linearGradient3737"
       gradientUnits="userSpaceOnUse"
       x2="48"
       y1="20.221"
       x1="48" />
    <linearGradient
       id="linearGradient3238"
       y2="5.9877"
       gradientUnits="userSpaceOnUse"
       x2="48"
       gradientTransform="translate(365.57 796.93)"
       y1="90"
       x1="48">
      <stop
         id="stop3702"
         style="stop-color:#2276c5"
         offset="0" />
      <stop
         id="stop3704"
         style="stop-color:#68baf4"
         offset="1" />
    </linearGradient>
    <radialGradient
       id="radialGradient3241"
       xlink:href="#linearGradient3737"
       gradientUnits="userSpaceOnUse"
       cy="90.172"
       cx="48"
       gradientTransform="matrix(1.1573 0 0 .99591 358.02 697.13)"
       r="42" />
    <linearGradient
       id="linearGradient3244"
       y2="63.893"
       xlink:href="#linearGradient3737"
       gradientUnits="userSpaceOnUse"
       x2="36.357"
       gradientTransform="translate(365.57 696.93)"
       y1="6"
       x1="36.357" />
    <linearGradient
       id="linearGradient3247"
       y2="90.015"
       gradientUnits="userSpaceOnUse"
       x2="44.512"
       gradientTransform="translate(365.57 696.93)"
       y1="6"
       x1="44.512">
      <stop
         id="stop3639"
         style="stop-opacity:.86275"
         offset="0" />
      <stop
         id="stop3641"
         style="stop-opacity:.47059"
         offset="1" />
    </linearGradient>
    <linearGradient
       id="linearGradient3251"
       y2="7.0165"
       gradientUnits="userSpaceOnUse"
       x2="45.448"
       gradientTransform="scale(1.0059 .99417)"
       y1="92.54"
       x1="45.448">
      <stop
         id="stop3750"
         offset="0" />
      <stop
         id="stop3752"
         style="stop-opacity:.58824"
         offset="1" />
    </linearGradient>
  </defs>
  <metadata
     id="metadata4360">
    <rdf:RDF>
      <cc:Work
         rdf:about="">
        <dc:format>image/svg+xml</dc:format>
        <dc:type
           rdf:resource="http://purl.org/dc/dcmitype/StillImage" />
        <dc:title />
      </cc:Work>
    </rdf:RDF>
  </metadata>
  <g
     id="layer1"
     transform="translate(-544.57 -742.93)">
    <path
       id="path4231"
       style="fill:#4d4d4d;fill-rule:evenodd"
       d="m9 3l-6 2 2 6 10 5 4-8-10-5zm-6 2v6l8 8 2.705-2.705-9.705-5.295-1-6zm3.5 0c0.831 0 1.5 0.669 1.5 1.5s-0.669 1.5-1.5 1.5-1.5-0.669-1.5-1.5 0.669-1.5 1.5-1.5z"
       transform="translate(544.57 742.93)" />
    <rect
       id="rect3745"
       style="opacity:.9;filter:url(#filter3174);display:none;fill:url(#linearGradient3251)"
       transform="translate(365.57 696.93)"
       clip-path="url(#clipPath3625)"
       rx="6"
       ry="6"
       height="85"
       width="86"
       y="7"
       x="5" />
    <rect
       id="rect2419"
       style="opacity:.8;display:none"
       rx="6"
       ry="6"
       height="84"
       width="84"
       y="702.93"
       x="371.57" />
    <path
       id="rect3726"
       d="m379.57 706.93c-2.216 0-4 1.784-4 4v68c0 2.216 1.784 4 4 4h68c2.216 0 4-1.784 4-4v-68c0-2.216-1.784-4-4-4h-68zm0 3.0625h68c0.57877 0 0.9375 0.35873 0.9375 0.9375v68c0 0.57877-0.35873 0.9375-0.9375 0.9375h-68c-0.57877 0-0.9375-0.35873-0.9375-0.9375v-68c0-0.57877 0.35873-0.9375 0.9375-0.9375z"
       style="opacity:0.08;display:none" />
    <path
       id="rect3629"
       d="m377.57 702.93c-3.324 0-6 2.676-6 6v72c0 3.324 2.676 6 6 6h72c3.324 0 6-2.676 6-6v-72c0-3.324-2.676-6-6-6h-72zm2 4h68c2.216 0 4 1.784 4 4v68c0 2.216-1.784 4-4 4h-68c-2.216 0-4-1.784-4-4v-68c0-2.216 1.784-4 4-4z"
       style="fill:url(#linearGradient3247);display:none" />
    <path
       id="rect3728"
       d="m377.57 702.93c-3.324 0-6 2.676-6 6v2 68 2c0 0.33472 0.0413 0.6507 0.0937 0.96875 0.0487 0.2956 0.097 0.59691 0.1875 0.875 0.01 0.0304 0.0209 0.0636 0.0312 0.0937 0.0989 0.28777 0.23488 0.54745 0.375 0.8125 0.14459 0.27351 0.31562 0.53561 0.5 0.78125 0.18438 0.24563 0.37378 0.47347 0.59375 0.6875 0.43995 0.42806 0.94291 0.81453 1.5 1.0938 0.27855 0.13961 0.57347 0.24695 0.875 0.34375-0.2562-0.10022-0.48671-0.23627-0.71875-0.375-0.007-0.004-0.0239 0.005-0.0312 0-0.0319-0.0193-0.0623-0.0425-0.0937-0.0625-0.12039-0.0767-0.23102-0.16351-0.34375-0.25-0.10617-0.0808-0.21328-0.16111-0.3125-0.25-0.17793-0.16143-0.34746-0.34539-0.5-0.53125-0.10758-0.13026-0.21839-0.26529-0.3125-0.40625-0.0251-0.0384-0.0385-0.0859-0.0625-0.125-0.0648-0.10303-0.13023-0.20452-0.1875-0.3125-0.10101-0.19471-0.20567-0.4157-0.28125-0.625-0.008-0.0218-0.0236-0.0405-0.0312-0.0625-0.0318-0.0919-0.0358-0.18683-0.0625-0.28125-0.0303-0.10662-0.0704-0.20303-0.0937-0.3125-0.0729-0.34151-0.125-0.69821-0.125-1.0625v-2-68-2c0-2.7818 2.2182-5 5-5h2 68 2c2.7818 0 5 2.2182 5 5v2 68 2c0 0.36429-0.0521 0.72099-0.125 1.0625-0.0442 0.20689-0.0884 0.39766-0.15625 0.59375-0.008 0.022-0.0233 0.0407-0.0312 0.0625-0.0627 0.17374-0.13838 0.36745-0.21875 0.53125-0.0416 0.0828-0.079 0.16995-0.125 0.25-0.0546 0.0972-0.12677 0.18835-0.1875 0.28125-0.0941 0.14096-0.20492 0.27599-0.3125 0.40625-0.14317 0.17445-0.30314 0.347-0.46875 0.5-0.0112 0.0102-0.02 0.0212-0.0312 0.0312-0.13839 0.12556-0.28509 0.23444-0.4375 0.34375-0.10257 0.0732-0.20432 0.15336-0.3125 0.21875-0.007 0.005-0.0238-0.004-0.0312 0-0.23204 0.13873-0.46255 0.27478-0.71875 0.375 0.30153-0.0968 0.59645-0.20414 0.875-0.34375 0.55709-0.27922 1.06-0.66569 1.5-1.0938 0.21997-0.21403 0.40937-0.44187 0.59375-0.6875 0.18438-0.24564 0.35541-0.50774 0.5-0.78125 0.14012-0.26505 0.27614-0.52473 0.375-0.8125 0.0104-0.0308 0.0213-0.0627 0.0312-0.0937 0.0905-0.27809 0.1388-0.5794 0.1875-0.875 0.0524-0.31805 0.0937-0.63403 0.0937-0.96875v-2-68-2c0-3.324-2.676-6-6-6h-72z"
       style="fill:url(#linearGradient3244);display:none" />
    <path
       id="path3615"
       d="m377.57 786.93c-3.324 0-6-2.676-6-6v-2-68-2c0-0.33472 0.0413-0.6507 0.0937-0.96875 0.0487-0.2956 0.097-0.59691 0.1875-0.875 0.01-0.0304 0.0209-0.0636 0.0312-0.0937 0.0989-0.28777 0.23488-0.54745 0.375-0.8125 0.14459-0.27351 0.31562-0.53562 0.5-0.78125 0.18438-0.24564 0.37378-0.47347 0.59375-0.6875 0.43995-0.42806 0.94291-0.81453 1.5-1.0938 0.27855-0.13961 0.57347-0.24695 0.875-0.34375-0.2562 0.10022-0.48671 0.23627-0.71875 0.375-0.007 0.004-0.0239-0.005-0.0312 0-0.0319 0.0193-0.0623 0.0425-0.0937 0.0625-0.12039 0.0767-0.23102 0.16351-0.34375 0.25-0.10617 0.0808-0.21328 0.16111-0.3125 0.25-0.17793 0.16143-0.34746 0.34539-0.5 0.53125-0.10758 0.13026-0.21839 0.26528-0.3125 0.40625-0.0251 0.0384-0.0385 0.0859-0.0625 0.125-0.0648 0.10303-0.13023 0.20452-0.1875 0.3125-0.10101 0.19471-0.20567 0.4157-0.28125 0.625-0.008 0.0218-0.0236 0.0406-0.0312 0.0625-0.0318 0.0919-0.0358 0.18683-0.0625 0.28125-0.0303 0.10662-0.0704 0.20303-0.0937 0.3125-0.0729 0.34151-0.125 0.6982-0.125 1.0625v2 68 2c0 2.7818 2.2182 5 5 5h2 68 2c2.7818 0 5-2.2182 5-5v-2-68-2c0-0.3643-0.0521-0.72099-0.125-1.0625-0.0442-0.20689-0.0884-0.39766-0.15625-0.59375-0.008-0.0219-0.0233-0.0407-0.0312-0.0625-0.0627-0.17374-0.13838-0.36745-0.21875-0.53125-0.0416-0.0828-0.079-0.16995-0.125-0.25-0.0546-0.0972-0.12677-0.18835-0.1875-0.28125-0.0941-0.14097-0.20492-0.27599-0.3125-0.40625-0.14317-0.17445-0.30314-0.347-0.46875-0.5-0.0112-0.0102-0.02-0.0212-0.0312-0.0312-0.13839-0.12556-0.28509-0.23444-0.4375-0.34375-0.10257-0.0731-0.20432-0.15336-0.3125-0.21875-0.007-0.005-0.0238 0.004-0.0312 0-0.23204-0.13873-0.46255-0.27478-0.71875-0.375 0.30153 0.0968 0.59645 0.20414 0.875 0.34375 0.55709 0.27922 1.06 0.66569 1.5 1.0938 0.21997 0.21403 0.40937 0.44186 0.59375 0.6875 0.18438 0.24563 0.35541 0.50774 0.5 0.78125 0.14012 0.26505 0.27614 0.52473 0.375 0.8125 0.0104 0.0308 0.0213 0.0627 0.0312 0.0937 0.0905 0.27809 0.1388 0.5794 0.1875 0.875 0.0524 0.31805 0.0937 0.63403 0.0937 0.96875v2 68 2c0 3.324-2.676 6-6 6h-72z"
       style="opacity:.6;fill:url(#radialGradient3241);display:none" />
    <rect
       id="rect2841"
       style="fill:url(#linearGradient3238);display:none"
       rx="6"
       ry="6"
       height="84"
       width="84"
       y="802.93"
       x="371.57" />
    <rect
       id="rect3634"
       style="fill:#f00;display:none"
       rx="4"
       ry="4"
       height="76"
       width="76"
       y="806.93"
       x="375.57" />
    <path
       id="rect3647"
       style="block-progression:tb;text-indent:0;filter:url(#filter3657);color:#000000;text-transform:none;display:none"
       d="m14 9c-2.7527 0-5 2.2473-5 5v68c0 2.7527 2.2473 5 5 5h68c2.7527 0 5-2.2473 5-5v-68c0-2.753-2.247-5-5-5h-68zm0 2h68c1.6793 0 3 1.3207 3 3v68c0 1.6793-1.3207 3-3 3h-68c-1.6793 0-3-1.3207-3-3v-68c0-1.6793 1.3207-3 3-3z"
       clip-path="url(#clipPath3649)"
       transform="translate(255.57 696.93)" />
    <path
       id="path3709"
       d="m379.66 706.93c-2.216 0-4 1.784-4 4v68c0 2.216 1.784 4 4 4h68c2.216 0 4-1.784 4-4v-68c0-2.216-1.784-4-4-4h-68zm0 2h68c1.1403 0 2 0.8597 2 2v68c0 1.1403-0.8597 2-2 2h-68c-1.1403 0-2-0.8597-2-2v-68c0-1.1403 0.85969-2 2-2z"
       style="opacity:0.16;display:none" />
    <path
       id="path3707"
       d="m379.57 706.93c-2.216 0-4 1.784-4 4v68c0 2.216 1.784 4 4 4h68c2.216 0 4-1.784 4-4v-68c0-2.216-1.784-4-4-4h-68zm0 1h68c1.6738 0 3 1.3262 3 3v68c0 1.6738-1.3262 3-3 3h-68c-1.6738 0-3-1.3262-3-3v-68c0-1.6738 1.3262-3 3-3z"
       style="opacity:0.36;display:none" />
    <rect
       id="rect3171"
       style="opacity:.1;filter:url(#filter3794);stroke:#fff;stroke-linecap:round;stroke-width:.5;display:none;fill:url(#linearGradient3222)"
       transform="translate(365.57 696.93)"
       clip-path="url(#clipPath3613)"
       rx="12"
       ry="12"
       height="66"
       width="66"
       y="15"
       x="15" />
    <path
       id="path3102"
       d="m548.92 757.88v1.4h-1.4v1.4h1.4v1.4h1.4v-1.4h1.4v-1.4h-1.4v-1.4z"
       style="fill:#4d4d4d" />
  </g>
</svg>
