<svg height="22" width="22" xmlns="http://www.w3.org/2000/svg" xmlns:sodipodi="http://sodipodi.sourceforge.net/DTD/sodipodi-0.dtd" xmlns:inkscape="http://www.inkscape.org/namespaces/inkscape">
 <g transform="matrix(1 0 0 1 -544.57 -742.93)">
  <path d="m9 3l-6 2 2 6 10 5 4-8-10-5zm-6 2v6l8 8 2.705-2.705-9.705-5.295-1-6zm3.5 0c0.831 0 1.5 0.669 1.5 1.5s-0.669 1.5-1.5 1.5-1.5-0.669-1.5-1.5 0.669-1.5 1.5-1.5z" fill="#4d4d4d" fill-rule="evenodd" transform="matrix(1 0 0 1 544.57 742.93)"/>
  <path d="m548.92 757.88v1.4h-1.4v1.4h1.4v1.4h1.4v-1.4h1.4v-1.4h-1.4v-1.4z" fill="#4d4d4d"/>
 </g>
</svg>
