<svg height="22" width="22" xmlns="http://www.w3.org/2000/svg" xmlns:sodipodi="http://sodipodi.sourceforge.net/DTD/sodipodi-0.dtd" xmlns:inkscape="http://www.inkscape.org/namespaces/inkscape">
 <path d="m4 6v0.5 0.5h-1v0.9082 1.0918 5 0.092 0.908h0.5 0.5v1h0.9082 1.0918 10 0.092 1 0.908v-1h0.5 0.5v-0.908-1.092-4-1.0918-0.9082h-1v-0.5-0.5h-0.908-1-11.184-0.908zm0.9082 1h11.184 1c0.15 0.4247 0.483 0.7579 0.908 0.9082v1.0918 4 1.092c-0.425 0.15-0.758 0.483-0.908 0.908h-1-0.092-10-1.0918c-0.1503-0.425-0.4835-0.758-0.9082-0.908v-1.092-4-1.0918c0.4247-0.1503 0.7579-0.4835 0.9082-0.9082zm6.0918 1c-1.662 0-3 1.338-3 3s1.338 3 3 3 3-1.338 3-3-1.338-3-3-3zm0 1c1.108 0 2 0.892 2 2s-0.892 2-2 2-2-0.892-2-2 0.892-2 2-2z" fill="#4d4d4d" transform="matrix(1 0 0 1 0 0)"/>
</svg>
