<?xml version="1.0" encoding="UTF-8" standalone="no"?>
<!-- Created with Inkscape (http://www.inkscape.org/) -->

<svg
   xmlns:dc="http://purl.org/dc/elements/1.1/"
   xmlns:cc="http://creativecommons.org/ns#"
   xmlns:rdf="http://www.w3.org/1999/02/22-rdf-syntax-ns#"
   xmlns:svg="http://www.w3.org/2000/svg"
   xmlns="http://www.w3.org/2000/svg"
   xmlns:sodipodi="http://sodipodi.sourceforge.net/DTD/sodipodi-0.dtd"
   xmlns:inkscape="http://www.inkscape.org/namespaces/inkscape"
   id="svg3049"
   height="22"
   width="22"
   version="1.1"
   inkscape:version="0.48.5 r10040"
   sodipodi:docname="taxes-finances.svg">
  <defs
     id="defs19690" />
  <sodipodi:namedview
     pagecolor="#ffffff"
     bordercolor="#666666"
     borderopacity="1"
     objecttolerance="10"
     gridtolerance="10"
     guidetolerance="10"
     inkscape:pageopacity="0"
     inkscape:pageshadow="2"
     inkscape:window-width="640"
     inkscape:window-height="480"
     id="namedview19688" />
  <metadata
     id="metadata3054">
    <rdf:RDF>
      <cc:Work
         rdf:about="">
        <dc:format>image/svg+xml</dc:format>
        <dc:type
           rdf:resource="http://purl.org/dc/dcmitype/StillImage" />
        <dc:title />
      </cc:Work>
    </rdf:RDF>
  </metadata>
  <g
     id="layer1"
     transform="translate(-421.71 -525.79)">
    <path
       id="rect4144"
       style="fill:#4d4d4d"
       d="m4 6v0.5 0.5h-1v0.9082 1.0918 5 0.092 0.908h0.5 0.5v1h0.9082 1.0918 10 0.092 1 0.908v-1h0.5 0.5v-0.908-1.092-4-1.0918-0.9082h-1v-0.5-0.5h-0.908-1-11.184-0.908zm0.9082 1h11.184 1c0.15 0.4247 0.483 0.7579 0.908 0.9082v1.0918 4 1.092c-0.425 0.15-0.758 0.483-0.908 0.908h-1-0.092-10-1.0918c-0.1503-0.425-0.4835-0.758-0.9082-0.908v-1.092-4-1.0918c0.4247-0.1503 0.7579-0.4835 0.9082-0.9082zm6.0918 1c-1.662 0-3 1.338-3 3s1.338 3 3 3 3-1.338 3-3-1.338-3-3-3zm0 1c1.108 0 2 0.892 2 2s-0.892 2-2 2-2-0.892-2-2 0.892-2 2-2z"
       transform="translate(421.71 525.79)" />
  </g>
</svg>
