<svg height="22" viewBox="0 0 22 22" width="22" xmlns="http://www.w3.org/2000/svg" xmlns:sodipodi="http://sodipodi.sourceforge.net/DTD/sodipodi-0.dtd" xmlns:inkscape="http://www.inkscape.org/namespaces/inkscape">
 <g transform="matrix(1 0 0 1 0 -1030.4)">
  <path d="m11.441 3c-2.1672 0-4.1916 0.5424-5.3609 1.1699l0.6562 1.8242c1.2549-0.5989 3.081-1.0253 4.7637-1.0253 2.111 0 3.021 0.9684 3.021 2.8222v1.7402l-1.539 0.1719c-0.64 0.0929-1.273 0.1904-1.894 0.2969h5.744v-2.5801c0-3.4224-2.367-4.4199-5.391-4.4199zm-5.9195 10c-0.2254 0.516-0.3535 1.118-0.3535 1.836 0 2.852 2.1386 4.164 4.6484 4.164 1.5976 0 3.4236-0.514 4.7636-2.025l0.342 1.683h1.91v-5.658h-2.311v1.922c-0.998 1.369-3.022 2.252-4.476 2.252-1.4546 0-2.5391-0.713-2.5391-2.424 0-0.743 0.1707-1.302 0.5546-1.75h-2.539z" fill="#4d4d4d" transform="matrix(1 0 0 1 0 1030.4)"/>
  <rect x="3" y="1041.4" fill="#4d4d4d" height="1" width="16"/>
 </g>
</svg>
