<svg height="22" width="22" xmlns="http://www.w3.org/2000/svg" xmlns:sodipodi="http://sodipodi.sourceforge.net/DTD/sodipodi-0.dtd" xmlns:inkscape="http://www.inkscape.org/namespaces/inkscape">
 <g transform="matrix(1 0 0 1 -378.86 -540.08)">
  <path d="m386.86 543.08c-0.97291 3.405-3.3544 6.3323-4.4043 8.6758-0.3674 0.69677-0.5957 1.4788-0.5957 2.3242 0 2.77 2.23 5 5 5s5-2.23 5-5c0-0.84542-0.2283-1.6274-0.5957-2.3242-1.0498-2.3435-3.4314-5.2708-4.4043-8.6758zm2.2832 7.7168c1.0377 0.7212 1.7168 1.9183 1.7168 3.2832 0 2.216-1.784 4-4 4-1.365 0-2.562-0.67905-3.2832-1.7168 0.64705 0.44971 1.4321 0.7168 2.2832 0.7168 2.216 0 4-1.784 4-4 0-0.85108-0.26709-1.6362-0.7168-2.2832z" fill="#4d4d4d"/>
  <path d="m395.2 543.32c-0.48646 1.7025-1.6772 3.1661-2.2022 4.3379-0.1837 0.34838-0.29785 0.7394-0.29785 1.1621 0 1.385 1.115 2.5 2.5 2.5s2.5-1.115 2.5-2.5c0-0.42271-0.11415-0.81373-0.29785-1.1621-0.52493-1.1718-1.7157-2.6354-2.2022-4.3379zm1.1416 3.8584c0.51885 0.3606 0.8584 0.95914 0.8584 1.6416 0 1.108-0.892 2-2 2-0.68248 0-1.281-0.33953-1.6416-0.8584 0.32352 0.22485 0.71606 0.3584 1.1416 0.3584 1.108 0 2-0.892 2-2 0-0.42554-0.13354-0.81808-0.3584-1.1416z" fill="#4d4d4d"/>
 </g>
</svg>
