<svg height="22" viewBox="0 0 22 22" width="22" xmlns="http://www.w3.org/2000/svg" xmlns:sodipodi="http://sodipodi.sourceforge.net/DTD/sodipodi-0.dtd" xmlns:inkscape="http://www.inkscape.org/namespaces/inkscape">
 <g transform="matrix(1 0 0 1 0 -1030.4)">
  <path d="m11 3c-4.432 0-8 3.568-8 8s3.568 8 8 8c0.692 0 1.36-0.096 2-0.26v-1.033c-0.634 0.188-1.304 0.293-2 0.293-3.878 0-7-3.122-7-7s3.122-7 7-7 7 3.122 7 7c0 0.696-0.105 1.366-0.293 2h1.033c0.164-0.64 0.26-1.308 0.26-2 0-4.432-3.568-8-8-8zm0 2c-3.324 0-6 2.676-6 6h3c0-1.662 1.338-3 3-3v-3zm0 4c-1.108 0-2 0.892-2 2s0.892 2 2 2 2-0.892 2-2-0.892-2-2-2zm0 1c0.554 0 1 0.446 1 1s-0.446 1-1 1-1-0.446-1-1 0.446-1 1-1zm3 1c0 0.353-0.069 0.688-0.182 1h3.092c0.056-0.325 0.09-0.658 0.09-1h-3zm-1 2.225c-0.531 0.477-1.227 0.775-2 0.775v3c0.703 0 1.374-0.127 2-0.348v-3.427z" fill="#4d4d4d" transform="matrix(1 0 0 1 0 1030.4)"/>
  <path d="m15.404 1043.4c2.0219 0.2042 3.5957 1.8815 3.5957 3.959 0 1.108-0.892 2-2 2s-2-0.892-2-2c0-0.7514 0.41575-1.3964 1.0254-1.7383-0.01248 0.078-0.02539 0.1565-0.02539 0.2383 0 0.3698 0.13708 0.7039 0.35742 0.9648 0.394-0.3 0.643-0.9 0.643-1.4 0-0.9695-0.6827-1.7731-1.5957-1.959z" fill="#4d4d4d"/>
 </g>
</svg>
