<?xml version="1.0" encoding="UTF-8" standalone="no"?>
<!-- Created with Inkscape (http://www.inkscape.org/) -->

<svg
   xmlns:dc="http://purl.org/dc/elements/1.1/"
   xmlns:cc="http://creativecommons.org/ns#"
   xmlns:rdf="http://www.w3.org/1999/02/22-rdf-syntax-ns#"
   xmlns:svg="http://www.w3.org/2000/svg"
   xmlns="http://www.w3.org/2000/svg"
   xmlns:sodipodi="http://sodipodi.sourceforge.net/DTD/sodipodi-0.dtd"
   xmlns:inkscape="http://www.inkscape.org/namespaces/inkscape"
   id="svg2"
   height="22"
   viewBox="0 0 22 22"
   width="22"
   version="1.1"
   inkscape:version="0.48.5 r10040"
   sodipodi:docname="tools-media-optical-erase.svg">
  <defs
     id="defs19839" />
  <sodipodi:namedview
     pagecolor="#ffffff"
     bordercolor="#666666"
     borderopacity="1"
     objecttolerance="10"
     gridtolerance="10"
     guidetolerance="10"
     inkscape:pageopacity="0"
     inkscape:pageshadow="2"
     inkscape:window-width="640"
     inkscape:window-height="480"
     id="namedview19837" />
  <metadata
     id="metadata7">
    <rdf:RDF>
      <cc:Work
         rdf:about="">
        <dc:format>image/svg+xml</dc:format>
        <dc:type
           rdf:resource="http://purl.org/dc/dcmitype/StillImage" />
        <dc:title />
      </cc:Work>
    </rdf:RDF>
  </metadata>
  <g
     id="layer1"
     transform="translate(0 -1030.4)">
    <path
       id="rect4119"
       style="fill:#4d4d4d"
       d="m11 3c-4.432 0-8 3.568-8 8s3.568 8 8 8c0.339 0 0.673-0.024 1-0.066v-1.008c-0.326 0.047-0.66 0.074-1 0.074-3.878 0-7-3.122-7-7s3.122-7 7-7 7 3.122 7 7c0 0.696-0.105 1.366-0.293 2h1.033c0.164-0.64 0.26-1.308 0.26-2 0-4.432-3.568-8-8-8zm0 2c-3.324 0-6 2.676-6 6h3c0-1.662 1.338-3 3-3v-3zm0 4c-1.108 0-2 0.892-2 2s0.892 2 2 2 2-0.892 2-2-0.892-2-2-2zm0 1c0.554 0 1 0.446 1 1s-0.446 1-1 1-1-0.446-1-1 0.446-1 1-1zm3 1c0 0.353-0.069 0.688-0.182 1h3.092c0.056-0.325 0.09-0.658 0.09-1h-3zm-2 2.818c-0.312 0.113-0.647 0.182-1 0.182v3c0.342 0 0.675-0.034 1-0.09v-3.092z"
       transform="translate(0 1030.4)" />
    <path
       id="path3349"
       style="fill:#4d4d4d;fill-rule:evenodd"
       d="m15 1045.4-2 2 2 2h4v-4zm0.6 1h2.4v2h-2.4l-1-1z" />
  </g>
</svg>
