<svg height="22" width="22" xmlns="http://www.w3.org/2000/svg" xmlns:sodipodi="http://sodipodi.sourceforge.net/DTD/sodipodi-0.dtd" xmlns:inkscape="http://www.inkscape.org/namespaces/inkscape">
 <path d="m3 3v2 1h3v-1-2h-2-1zm13 0v1 1 1h1 1 1v-1-1-1h-3zm-12 1h1v1h-1v-1zm13 0h1v1h-1v-1zm-10 1v1h2v-1h-2zm3 0v1h2v-1h-2zm3 0v1h2v-1h-2zm-8 2v2h1v-2h-1zm11 0v2h1v-2h-1zm-11 3v2h1v-2h-1zm11 0v2h1v-2h-1zm-11 3v2h1v-2h-1zm9 0v1h2v5h1v-5h2v-1h-5zm-11 3v1 2h1 1 1v-3h-3zm4 0v1h2v-1h-2zm3 0v1h2v-1h-2zm-6 1h1v1h-1v-1z" fill="#4d4d4d" transform="matrix(1 0 0 1 0 0)"/>
</svg>
