<?xml version="1.0" encoding="UTF-8" standalone="no"?>
<!-- Created with Inkscape (http://www.inkscape.org/) -->

<svg
   xmlns:dc="http://purl.org/dc/elements/1.1/"
   xmlns:cc="http://creativecommons.org/ns#"
   xmlns:rdf="http://www.w3.org/1999/02/22-rdf-syntax-ns#"
   xmlns:svg="http://www.w3.org/2000/svg"
   xmlns="http://www.w3.org/2000/svg"
   xmlns:sodipodi="http://sodipodi.sourceforge.net/DTD/sodipodi-0.dtd"
   xmlns:inkscape="http://www.inkscape.org/namespaces/inkscape"
   id="svg3760"
   height="22"
   width="22"
   version="1.1"
   inkscape:version="0.48.5 r10040"
   sodipodi:docname="transform-crop-and-resize.svg">
  <defs
     id="defs20045" />
  <sodipodi:namedview
     pagecolor="#ffffff"
     bordercolor="#666666"
     borderopacity="1"
     objecttolerance="10"
     gridtolerance="10"
     guidetolerance="10"
     inkscape:pageopacity="0"
     inkscape:pageshadow="2"
     inkscape:window-width="640"
     inkscape:window-height="480"
     id="namedview20043" />
  <metadata
     id="metadata3765">
    <rdf:RDF>
      <cc:Work
         rdf:about="">
        <dc:format>image/svg+xml</dc:format>
        <dc:type
           rdf:resource="http://purl.org/dc/dcmitype/StillImage" />
        <dc:title />
      </cc:Work>
    </rdf:RDF>
  </metadata>
  <g
     id="layer1"
     transform="translate(-553.72 -583.12)">
    <path
       id="rect4150"
       style="fill:#4d4d4d"
       d="m3 3v2 1h3v-1-2h-2-1zm13 0v1h2v2h1v-2-1h-3zm-12 1h1v1h-1v-1zm3 1v1h2v-1h-2zm3 0v1h2v-1h-2zm3 0v1h2v-1h-2zm-8 2v2h1v-2h-1zm4 0v7h1 5v-1h-5v-6h-1zm7 0v2h1v-2h-1zm-11 3v2h1v-2h-1zm11 0v2h1v-2h-1zm-11 3v2h1v-2h-1zm11 0v2h1v-2h-1zm-13 3v1 2h1 1 1v-3h-3zm4 0v1h2v-1h-2zm3 0v1h2v-1h-2zm3 0v1h2v-1h-2zm3 0v1 1 1h1 1 1v-1-1-1h-2-1zm-12 1h1v1h-1v-1zm13 0h1v1h-1v-1z"
       transform="translate(553.72 583.12)" />
  </g>
</svg>
