<svg height="22" width="22" xmlns="http://www.w3.org/2000/svg" xmlns:sodipodi="http://sodipodi.sourceforge.net/DTD/sodipodi-0.dtd" xmlns:inkscape="http://www.inkscape.org/namespaces/inkscape">
 <path d="m563.93 586.12c-0.22139 0.003-0.46223-0.024-0.66095 0.0917-0.30737 0.15567-0.50638 0.48167-0.50115 0.81783 1.3021-0.005 2.606 0.006 3.9075 0-0.007-0.44107-0.35851-0.87706-0.82799-0.90244-0.64031-0.013-1.2766-0.003-1.9174-0.007zm-3.3701 1.4453c-0.99069 0.0107-1.8788 0.88637-1.8376 1.8542 3.9993-0.013 7.9993-0.002 11.999-0.007 0.003-0.59956-0.31754-1.1988-0.83526-1.5299-0.33003-0.22392-0.73327-0.32065-1.133-0.31727-2.7315 0.004-5.4612-0.005-8.1927 0zm9.2677 2.39c-3.402 0.004-6.8026 0.004-10.205 0.007-0.002 3.5691-0.003 7.1338 0 10.702 0.0105 0.61479 0.45438 1.174 1.0459 1.3748 0.26204 0.0993 0.55257 0.0753 0.82799 0.0776 2.1685 0 4.3314-0.00067 6.5004 0 0.24636-0.001 0.50492 0.0223 0.74083-0.0635 0.62986-0.19346 1.0845-0.80401 1.0822-1.4453 0.006-3.55-0.005-7.103 0.007-10.653zm-8.0693 1.4101c0.0426-0.001 0.0827 0.005 0.12347 0.0141 0.0394 0.009 0.08 0.0249 0.11621 0.0423 0.0342 0.0164 0.0642 0.0334 0.0944 0.0564 0.004 0.003 0.0104 0.004 0.0146 0.007 0.008 0.007 0.0141 0.0142 0.0218 0.0211 0.0237 0.0208 0.0454 0.0462 0.0654 0.0705 0.009 0.0117 0.0207 0.0229 0.0291 0.0352 0.0144 0.021 0.0251 0.0407 0.0363 0.0635 0.005 0.0111 0.01 0.0238 0.0146 0.0353 0.0109 0.0268 0.0231 0.0562 0.0291 0.0846 0.009 0.0404 0.01 0.0845 0.007 0.1269 0.003 2.709 0.00069 5.4129 0 8.1219 0.006 0.20643-0.0669 0.43034-0.26147 0.53582-0.0401 0.0261-0.0869 0.0441-0.13074 0.0564-0.0859 0.0224-0.18283 0.0224-0.26874 0-0.21896-0.0564-0.40637-0.24605-0.40673-0.47941-0.003-2.7457 0.003-5.4891 0-8.2347-0.003-0.0566 0.006-0.11509 0.0218-0.1692 0.0007-0.002-0.00069-0.005 0-0.007 0.0173-0.056 0.0453-0.10706 0.0799-0.15511 0.0172-0.0239 0.0372-0.0425 0.0581-0.0634 0.0426-0.0439 0.0829-0.0783 0.138-0.10576 0.0267-0.0133 0.0582-0.0268 0.0872-0.0353 0.043-0.0131 0.088-0.0198 0.13074-0.0211zm2.9633 0.007c0.0425-0.001 0.0827 0.005 0.12347 0.0141 0.0302 0.007 0.0588 0.0163 0.0872 0.0282 0.01 0.004 0.0194 0.009 0.029 0.0141 0.0226 0.0111 0.0445 0.0212 0.0654 0.0353 0.0132 0.009 0.0239 0.0183 0.0364 0.0282 0.0166 0.0132 0.0359 0.0274 0.0508 0.0423 0.003 0.002 0.005 0.005 0.007 0.007 0.0227 0.0236 0.0402 0.0504 0.0581 0.0775 0.0137 0.0207 0.0258 0.0411 0.0363 0.0635 0.004 0.01 0.0106 0.0182 0.0146 0.0282 0.0113 0.0286 0.0236 0.0612 0.0291 0.0916 0.007 0.0397 0.004 0.0781 0 0.11985 0.002 2.7248 0.00069 5.4535 0 8.1783 0.005 0.0692-0.004 0.13906-0.0291 0.20446-0.0122 0.0324-0.0252 0.062-0.0435 0.0917-0.0551 0.0899-0.13663 0.1606-0.23242 0.20445-0.0319 0.0143-0.0669 0.0283-0.10168 0.0353-0.0348 0.007-0.0722 0.009-0.10895 0.007-0.0759 0.006-0.15111-0.007-0.21789-0.0353-0.10209-0.0429-0.18126-0.11796-0.23969-0.2115-0.0193-0.0304-0.038-0.0582-0.0508-0.0917-0.0258-0.0669-0.0351-0.1396-0.029-0.21151v-8.1713c-0.002-0.0272-0.003-0.0579 0-0.0846 0.00023-0.002-0.00024-0.005 0-0.007 0.003-0.0266 0.0139-0.052 0.0218-0.0776 0.00069-0.002-0.0007-0.005 0-0.007 0.0172-0.0533 0.0466-0.10229 0.0799-0.14806 0.00086-0.001-0.00085-0.006 0-0.007 0.0175-0.0235 0.0371-0.0428 0.0581-0.0634 0.0209-0.0206 0.0415-0.0392 0.0654-0.0564 0.0481-0.0344 0.10255-0.0602 0.15979-0.0776 0.0422-0.0128 0.0884-0.0201 0.13073-0.0211zm2.8907 0c0.0204-0.002 0.0443 0.00045 0.0654 0 0.29469-0.006 0.5756 0.25332 0.53747 0.54992 0 2.7259 0.002 5.4524 0 8.1783 0.0157 0.17598-0.0692 0.3497-0.21789 0.45122-0.0895 0.0692-0.20066 0.1015-0.31231 0.0987-0.11165-0.003-0.22264-0.0416-0.31231-0.10575-0.0598-0.0428-0.11156-0.096-0.14526-0.16215-0.0953-0.15398-0.0607-0.33786-0.0654-0.50763 0.00069-2.6509 0.003-5.3018 0-7.9527-0.002-0.0295-0.004-0.0626 0-0.0916 0.0279-0.2035 0.18578-0.38939 0.3922-0.44418 0.0209-0.006 0.0377-0.0122 0.0581-0.0141z" fill="#4d4d4d" transform="matrix(1 0 0 1 -553.72 -583.12)"/>
</svg>
