<svg height="22" width="22" xmlns="http://www.w3.org/2000/svg" xmlns:sodipodi="http://sodipodi.sourceforge.net/DTD/sodipodi-0.dtd" xmlns:inkscape="http://www.inkscape.org/namespaces/inkscape">
 <g transform="matrix(1 0 0 1 -421.71 -525.79)">
  <path d="m3 3v16h16v-16h-16zm1 4h14v11h-14v-11z" fill="#4d4d4d" transform="matrix(1 0 0 1 421.71 525.79)"/>
  <path d="m427.71 533.79v4h4v-4h-4zm1 1h2v2h-2v-2z" fill="#4d4d4d"/>
  <path d="m433.71 533.79v4h4v-4h-4zm1 1h2v2h-2v-2z" fill="#4d4d4d"/>
  <path d="m427.71 538.79v4h4v-4h-4zm1 1h2v2h-2v-2z" fill="#4d4d4d"/>
  <path d="m433.71 538.79v4h4v-4h-4zm1 1h2v2h-2v-2z" fill="#4d4d4d"/>
 </g>
</svg>
