<svg height="22" width="22" xmlns="http://www.w3.org/2000/svg" xmlns:sodipodi="http://sodipodi.sourceforge.net/DTD/sodipodi-0.dtd" xmlns:inkscape="http://www.inkscape.org/namespaces/inkscape">
 <path d="m4 3v2h-1v1h1v1h-1v1h1v6h-1v1h1v1h-1v1h1v2h3 7.006v-1h-4.006-1-2v-2-1-2-1-2-1-2-1-2h2 1 8v2 1 2 1 3.875h1v-10.875h-12zm4 3v1h9v-1zm0 4v1h9v-1zm0 4v1h3.4062v-1z" fill="#4d4d4d" transform="matrix(1 0 0 1 0 0)"/>
 <path d="m41.962 24v16.111h-15.962v12.033h15.962v15.856h11.972v-15.856h16.066v-12.033h-16.066v-16.111z" fill="#e13f2b" opacity="0.954" transform="matrix(0.18341 0 0 0.18282 7.2 7.58)"/>
</svg>
