<?xml version="1.0" encoding="UTF-8" standalone="no"?>
<!-- Created with Inkscape (http://www.inkscape.org/) -->

<svg
   xmlns:dc="http://purl.org/dc/elements/1.1/"
   xmlns:cc="http://creativecommons.org/ns#"
   xmlns:rdf="http://www.w3.org/1999/02/22-rdf-syntax-ns#"
   xmlns:svg="http://www.w3.org/2000/svg"
   xmlns="http://www.w3.org/2000/svg"
   xmlns:sodipodi="http://sodipodi.sourceforge.net/DTD/sodipodi-0.dtd"
   xmlns:inkscape="http://www.inkscape.org/namespaces/inkscape"
   id="svg3049"
   height="22"
   width="22"
   version="1.1"
   inkscape:version="0.48.5 r10040"
   sodipodi:docname="view-time-schedule-baselined-remove.svg">
  <sodipodi:namedview
     pagecolor="#ffffff"
     bordercolor="#666666"
     borderopacity="1"
     objecttolerance="10"
     gridtolerance="10"
     guidetolerance="10"
     inkscape:pageopacity="0"
     inkscape:pageshadow="2"
     inkscape:window-width="640"
     inkscape:window-height="480"
     id="namedview25874" />
  <defs
     id="defs3051">
    <clipPath
       id="clipPath4355">
      <rect
         id="rect4357"
         style="fill:#fff"
         rx="6"
         ry="6"
         height="80"
         width="84"
         y="6"
         x="6" />
    </clipPath>
    <linearGradient
       id="linearGradient3613"
       x1="48"
       gradientUnits="userSpaceOnUse"
       y1="20.221"
       x2="48"
       y2="138.66">
      <stop
         id="stop3739"
         style="stop-color:#fff"
         offset="0" />
      <stop
         id="stop3741"
         style="stop-color:#fff;stop-opacity:0"
         offset="1" />
    </linearGradient>
    <filter
       id="filter3794"
       height="1.384"
       width="1.384"
       color-interpolation-filters="sRGB"
       y="-.192"
       x="-.192">
      <feGaussianBlur
         id="feGaussianBlur3796"
         stdDeviation="5.28" />
    </filter>
    <filter
       id="filter3174"
       color-interpolation-filters="sRGB">
      <feGaussianBlur
         id="feGaussianBlur3176"
         stdDeviation="1.71" />
    </filter>
    <linearGradient
       id="ButtonShadow"
       x1="45.448"
       gradientUnits="userSpaceOnUse"
       y1="92.54"
       gradientTransform="scale(1.0059 .99417)"
       x2="45.448"
       y2="7.0165">
      <stop
         id="stop3750"
         offset="0" />
      <stop
         id="stop3752"
         style="stop-opacity:.58824"
         offset="1" />
    </linearGradient>
  </defs>
  <metadata
     id="metadata3054">
    <rdf:RDF>
      <cc:Work
         rdf:about="">
        <dc:format>image/svg+xml</dc:format>
        <dc:type
           rdf:resource="http://purl.org/dc/dcmitype/StillImage" />
        <dc:title />
      </cc:Work>
    </rdf:RDF>
  </metadata>
  <g
     id="layer1"
     transform="translate(-421.71 -525.79)">
    <path
       id="rect4151"
       style="fill:#4d4d4d"
       d="m4 3v2h-1v1h1v1h-1v1h1v6h-1v1h1v1h-1v1h1v2h3 4.406v-1h-1.406-1-2v-2-1-2-1-2-1-2-1-2h2 1 8v2 1 2 1 1.875h1v-8.875h-12-3zm4 3v1h9v-1h-9zm0 4v1h9v-1h-9zm0 4v1h3.406v-1h-3.406z"
       transform="translate(421.71 525.79)" />
    <g
       id="layer2"
       style="display:none"
       transform="translate(353.57 481.73)">
      <rect
         id="rect3745"
         style="opacity:.9;filter:url(#filter3174);fill:url(#ButtonShadow)"
         rx="6"
         ry="6"
         height="85"
         width="86"
         y="7"
         x="5" />
    </g>
    <g
       id="layer5"
       style="display:none"
       transform="translate(353.57 481.73)">
      <rect
         id="rect3171"
         style="opacity:.1;filter:url(#filter3794);stroke:#fff;stroke-linecap:round;stroke-width:.5;fill:url(#linearGradient3613)"
         clip-path="url(#clipPath4355)"
         rx="12"
         ry="12"
         height="62"
         width="66"
         y="15"
         x="15" />
    </g>
    <path
       id="path3482-5-5"
       style="color:#dddddd;fill:#e13f2b"
       d="m437.71 537.78c-2.211 0-4.0034 1.7924-4.0034 4.0034s1.7924 4.0034 4.0034 4.0034 4.0034-1.7924 4.0034-4.0034-1.7924-4.0034-4.0034-4.0034zm0 3.4315h2.8596v1.1438h-2.8596-2.8596v-1.1438z" />
  </g>
</svg>
