<svg viewBox="0 0 16 16" height="16" width="16" xmlns="http://www.w3.org/2000/svg" xmlns:sodipodi="http://sodipodi.sourceforge.net/DTD/sodipodi-0.dtd" xmlns:inkscape="http://www.inkscape.org/namespaces/inkscape">
 <path stroke="none" stroke-dasharray="none" stroke-dashoffset="0" stroke-linecap="butt" stroke-linejoin="miter" color="#000000" stroke-miterlimit="4" stroke-opacity="1" color-interpolation="sRGB" image-rendering="auto" stroke-width="1" color-interpolation-filters="linearRGB" color-rendering="auto" d="M 2 2 L 2 3 L 2 10 L 2 12 L 3 12 L 6 12 L 8 14 L 10 12 L 13.390625 12 L 14 12 L 14 2 L 13 2 L 9 2 C 8.446 2 8 2.446 8 3 C 8 2.446 7.554 2 7 2 L 3 2 L 2 2 z M 3 3 L 4 3 L 6 3 C 6.554 3 7.0092321 3.4460769 7 4 L 7 10 L 7 11 L 3 11 L 3 4 L 3 3 z M 10 3 L 12 3 L 13 3 L 13 4 L 13 10 L 13 11 L 9 11 L 9 10 L 9 4 C 8.9907679 3.4460769 9.446 3 10 3 z " text-rendering="auto" display="inline" visibility="visible" fill="#bebebe" fill-opacity="1" opacity="1" fill-rule="nonzero" shape-rendering="auto"/>
</svg>
