<svg viewBox="0 0 16 16" height="16" width="16" xmlns="http://www.w3.org/2000/svg" xmlns:sodipodi="http://sodipodi.sourceforge.net/DTD/sodipodi-0.dtd" xmlns:inkscape="http://www.inkscape.org/namespaces/inkscape">
 <path stroke-opacity="1" d="M 6 2 L 8 4 L 10 2 L 6 2 z M 8 4 L 4 4 L 4 8 L 4 12 L 8 12 L 12 12 L 12 8 L 12 4 L 8 4 z M 12 8 L 14 10 L 14 6 L 12 8 z M 8 12 L 6 14 L 10 14 L 8 12 z M 4 8 L 2 6 L 2 10 L 4 8 z M 5 5 L 11 5 L 11 6 L 5 6 L 5 5 z M 5 7 L 11 7 L 11 11 L 5 11 L 5 7 z " stroke-width="1" fill="#bebebe" fill-opacity="1" fill-rule="evenodd" stroke="none" stroke-linecap="butt" stroke-linejoin="miter"/>
</svg>
