<svg viewBox="0 0 16 16.000001" height="16" width="16" xmlns="http://www.w3.org/2000/svg" xmlns:sodipodi="http://sodipodi.sourceforge.net/DTD/sodipodi-0.dtd" xmlns:inkscape="http://www.inkscape.org/namespaces/inkscape">
 <path stroke="none" stroke-dasharray="none" stroke-dashoffset="0" stroke-linecap="butt" stroke-linejoin="miter" color="#000000" stroke-miterlimit="4" stroke-opacity="1" color-interpolation="sRGB" image-rendering="auto" stroke-width="1" color-interpolation-filters="linearRGB" color-rendering="auto" d="M 5 2 L 5 4 L 2 4 L 2 5 L 2 13 L 2 14 L 3 14 L 7 14 L 7 13 L 14 13 L 14 2 L 5 2 z M 6 3 L 13 3 L 13 12 L 6 12 L 6 3 z M 3 5 L 5 5 L 5 13 L 3 13 L 3 5 z M 7 5 L 7 6 L 12 6 L 12 5 L 7 5 z M 7 9 L 7 10 L 12 10 L 12 9 L 7 9 z " text-rendering="auto" display="inline" visibility="visible" fill="#bebebe" fill-opacity="1" opacity="1" fill-rule="nonzero" shape-rendering="auto"/>
</svg>
