<svg height="22" width="22" xmlns="http://www.w3.org/2000/svg" xmlns:sodipodi="http://sodipodi.sourceforge.net/DTD/sodipodi-0.dtd" xmlns:inkscape="http://www.inkscape.org/namespaces/inkscape">
 <g transform="matrix(1 0 0 1 -421.71 -525.79)">
  <path d="m4 3v2h-1v1h1v1h-1v1h1v6h-1v1h1v1h-1v1h1v2h3 4v-1h-1-1-2v-2-1-2-1-2-1-2-1-2h2 1 8v2 1 2 1 1h1v-8h-12-3z" fill="#4d4d4d" transform="matrix(1 0 0 1 421.71 525.79)"/>
  <path d="m437.42 537.79 3.293 3.293 0.20703 0.20703-0.20703 0.20703-3.293 3.293-0.70703-0.70703 2.293-2.293h-4.293v-1h4.293l-2.293-2.293z" fill="#4d4d4d"/>
 </g>
</svg>
