<?xml version="1.0" encoding="UTF-8" standalone="no"?>
<!-- Created with Inkscape (http://www.inkscape.org/) -->

<svg
   xmlns:dc="http://purl.org/dc/elements/1.1/"
   xmlns:cc="http://creativecommons.org/ns#"
   xmlns:rdf="http://www.w3.org/1999/02/22-rdf-syntax-ns#"
   xmlns:svg="http://www.w3.org/2000/svg"
   xmlns="http://www.w3.org/2000/svg"
   xmlns:sodipodi="http://sodipodi.sourceforge.net/DTD/sodipodi-0.dtd"
   xmlns:inkscape="http://www.inkscape.org/namespaces/inkscape"
   id="svg3049"
   height="22"
   width="22"
   version="1.1"
   inkscape:version="0.48.5 r10040"
   sodipodi:docname="view-barcode-add.svg">
  <defs
     id="defs20496" />
  <sodipodi:namedview
     pagecolor="#ffffff"
     bordercolor="#666666"
     borderopacity="1"
     objecttolerance="10"
     gridtolerance="10"
     guidetolerance="10"
     inkscape:pageopacity="0"
     inkscape:pageshadow="2"
     inkscape:window-width="640"
     inkscape:window-height="480"
     id="namedview20494" />
  <metadata
     id="metadata3054">
    <rdf:RDF>
      <cc:Work
         rdf:about="">
        <dc:format>image/svg+xml</dc:format>
        <dc:type
           rdf:resource="http://purl.org/dc/dcmitype/StillImage" />
        <dc:title />
      </cc:Work>
    </rdf:RDF>
  </metadata>
  <g
     id="layer1"
     transform="translate(-421.71 -525.79)">
    <path
       id="rect4154"
       style="fill:#4d4d4d"
       d="m3 6v10h1v-10h-1zm2 0v7h1v-7h-1zm2 0v10h1v-10h-1zm2 0v10h2v-10h-2zm3 0v10h1v-3h1v-7h-2zm3 0v5h1v-5h-1zm2 0v7h2v-7h-2zm-1 8v2h-2v1h2v2h1v-2h2v-1h-2v-2h-1z"
       transform="translate(421.71 525.79)" />
  </g>
</svg>
