<svg height="22" width="22" xmlns="http://www.w3.org/2000/svg" xmlns:sodipodi="http://sodipodi.sourceforge.net/DTD/sodipodi-0.dtd" xmlns:inkscape="http://www.inkscape.org/namespaces/inkscape">
 <path d="m11 3c-0.641 0-1.261 0.0836-1.8574 0.2246-0.278 0.0657-0.5487 0.1465-0.8145 0.2402-0.1073 0.0379-0.2151 0.073-0.3203 0.1153-0.0019 0.0007-0.0039 0.0012-0.0058 0.0019-0.6118 0.2463-1.1819 0.5692-1.7071 0.9512-0.0328 0.0239-0.0652 0.0479-0.0976 0.0723-0.2404 0.1805-0.4713 0.3721-0.6895 0.5781-0.0114 0.0108-0.0238 0.0204-0.0351 0.0312-0.4706 0.4497-0.883 0.9568-1.2325 1.5098-0.0154 0.0245-0.0297 0.0495-0.0449 0.0742-0.1643 0.2664-0.3145 0.5421-0.4473 0.8282-0.0039 0.0084-0.0078 0.0169-0.0117 0.0253-0.2814 0.6123-0.4874 1.2644-0.6074 1.9493-0.0796 0.4544-0.1289 0.9204-0.1289 1.3984 0 3.403 2.1081 6.289 5.0918 7.449 0.0024 0.001 0.0035 0.003 0.0059 0.004 0.0063 0.003 0.0132 0.004 0.0195 0.006 0.3314 0.128 0.6721 0.233 1.0234 0.316 0.004 0.001 0.0077 0.003 0.0117 0.004 0.5934 0.14 1.2107 0.221 1.8477 0.221 0.693 0 1.36-0.097 2-0.262v-1.037c-0.634 0.189-1.303 0.299-2 0.299-0.848 0-1.6555-0.158-2.4062-0.432 0.0136-0.012 0.0349-0.019 0.039-0.039 0.009-0.039-0.0096-0.057-0.0117-0.121 0.015-0.065 0.086-0.072 0.0996-0.138-0.0278-0.048-0.0929-0.017-0.1348-0.041-0.0407-0.024-0.0585-0.077-0.0527-0.127 0.0696-0.03 0.204 0.07 0.2539-0.028 0.0249-0.046-0.0278-0.158 0.0059-0.205 0.0234-0.031 0.1518-0.033 0.2011-0.041 0.0709-0.012 0.1534-0.027 0.1934-0.053 0.0436-0.028 0.1072-0.111 0.0996-0.193-0.004-0.039-0.0306-0.053-0.0605-0.088-0.0251-0.029-0.0347-0.066-0.0528-0.094-0.0313-0.046-0.0799-0.038-0.0937-0.105 0.0958-0.019 0.2423 0.078 0.3808 0.039 0.0657-0.019 0.157-0.159 0.1875-0.221 0.01-0.019 0.0093-0.048 0.0196-0.072 0.0123-0.026 0.0371-0.047 0.041-0.061 0.01-0.036 0.0035-0.065 0.0117-0.087 0.0243-0.068 0.0868-0.089 0.127-0.139 0.0304-0.038 0.0454-0.083 0.0742-0.121 0.0314-0.041 0.0594-0.077 0.0801-0.113 0.02-0.122-0.0482-0.208-0.0196-0.315 0.0316-0.12 0.1966-0.192 0.3126-0.246 0.04-0.019 0.081-0.049 0.113-0.061 0.081-0.028 0.181-0.012 0.254-0.039 0.125-0.045 0.14-0.181 0.201-0.295 0.03-0.053 0.067-0.108 0.073-0.146 0.005-0.035-0.013-0.067-0.006-0.107 0.006-0.041 0.043-0.075 0.054-0.12 0.015-0.057 0.02-0.142 0.02-0.207 0-0.052-0.025-0.098-0.027-0.146-0.009-0.173 0.063-0.193 0.127-0.287 0.031-0.047 0.045-0.101 0.068-0.135 0.107-0.16 0.293-0.238 0.279-0.48-0.005-0.081-0.054-0.262-0.113-0.288-0.034-0.014-0.111 0-0.16-0.019-0.158-0.059-0.251-0.255-0.414-0.268-0.035-0.002-0.069 0.015-0.108 0.014-0.064-0.001-0.161-0.045-0.232-0.053-0.046-0.005-0.108 0.014-0.135 0-0.042-0.02-0.046-0.098-0.08-0.121-0.027-0.018-0.078-0.023-0.119-0.039-0.066-0.025-0.1196-0.055-0.1955-0.06-0.0234-0.001-0.051 0.009-0.0781 0.005-0.042-0.006-0.0763-0.056-0.1152-0.08-0.0484-0.029-0.0932-0.043-0.1133-0.086 0.0439-0.143-0.076-0.184-0.1055-0.267-0.0139-0.039-0.0068-0.085-0.0195-0.119-0.0173-0.05-0.0671-0.08-0.1211-0.121-0.0966-0.075-0.1822-0.144-0.3203-0.161-0.0607-0.007-0.1201 0.019-0.1934 0.014-0.0777-0.005-0.1762-0.074-0.2343-0.141-0.0566-0.064-0.0836-0.121-0.1329-0.152-0.0467-0.03-0.1088-0.03-0.1406-0.06-0.0141-0.014-0.0128-0.036-0.0273-0.067-0.0234-0.048-0.0625-0.074-0.0332-0.133-0.0533-0.027-0.0551 0.05-0.1133 0.039-0.052-0.073-0.0951-0.109-0.2129-0.087-0.0538 0.01-0.0835 0.078-0.1465 0.08-0.0516 0.001-0.092-0.057-0.1601-0.067-0.0515-0.007-0.1119 0.016-0.1485 0.008-0.0569-0.011-0.0748-0.059-0.1269-0.094-0.038-0.025-0.1114-0.069-0.1328-0.068-0.0672 0.001-0.1146 0.143-0.2071 0.094-0.0451-0.057 0.0729-0.086 0.0195-0.139-0.0404-0.04-0.0731 0.017-0.1054 0.039-0.0369 0.026-0.0723 0.051-0.1133 0.066-0.0917 0.035-0.149 0.018-0.2207 0.055-0.0665 0.035-0.0698 0.092-0.1074 0.16-0.0309 0.056-0.1004 0.138-0.1465 0.141-0.0559 0.004-0.1095-0.08-0.1602-0.102-0.1529-0.066-0.2265 0.059-0.3535 0.061-0.1178 0.001-0.2872-0.19-0.2812-0.301 0.004-0.067 0.0387-0.17 0.0468-0.254 0.006-0.066 0.0522-0.105 0.0528-0.166 0.001-0.081-0.1057-0.144-0.1582-0.154-0.1248-0.023-0.2985 0.05-0.4414-0.006-0.0272-0.045 0.0315-0.0752 0.0468-0.1191 0.009-0.025 0.0045-0.0604 0.0137-0.0879 0.0158-0.0423 0.0602-0.076 0.0801-0.1211 0.015-0.0343 0.018-0.0842 0.0332-0.1269 0.0173-0.0485 0.0489-0.0773 0.0527-0.1113 0.005-0.0451-0.0111-0.0973-0.0468-0.127-0.111 0.006-0.1831 0.01-0.2461 0.0391-0.1445 0.0657-0.1175 0.2604-0.2618 0.3066-0.0499 0.0161-0.1189 0.0174-0.1738 0.0274-0.0473 0.009-0.1034 0.0341-0.1523 0.0332-0.0577-0.001-0.159-0.0568-0.1934-0.0938-0.0127-0.0137-0.027-0.054-0.0469-0.0937 0.0786-0.3797 0.1931-0.7456 0.3301-1.0997 0.0932-0.051 0.1735-0.1274 0.2832-0.1347 0.0566-0.004 0.1409 0.016 0.1953 0.0273 0.0503 0.01 0.0893 0.0436 0.1328 0.0469 0.1234 0.01 0.1533-0.0868 0.254-0.1406 0.1039 0.0146 0.1716-0.0189 0.2656-0.0078 0.064 0.007 0.1102 0.0782 0.1601 0.082 0.0421 0.002 0.0805-0.0416 0.1211-0.0352 0.0395 0.006 0.1069 0.0925 0.1133 0.1407 0.007 0.0599-0.0444 0.1157-0.0273 0.1816 0.0629 0.064 0.1777 0.0764 0.2675 0.1133 0.0585-0.0483 0.009-0.1373 0-0.2071-0.002-0.0308 0.004-0.0595 0-0.0878-0.006-0.0481-0.0271-0.0916-0.0273-0.1329-0.0006-0.1899 0.1538-0.2784 0.2812-0.3535 0.0552-0.0326 0.0987-0.0894 0.1465-0.1132 0.0675-0.0338 0.1179-0.0427 0.1739-0.0743 0.1011-0.0568 0.1885-0.1035 0.2675-0.1679 0.0367-0.0861 0.0019-0.2001 0.0059-0.2852 0.0367-0.0224 0.0667 0.0099 0.1055 0.0059 0.0611-0.013 0.067-0.1004 0.1015-0.1348 0.02-0.0197 0.0747-0.0331 0.0996-0.0527 0.0609-0.0477 0.0797-0.1201 0.1328-0.1407 0.019-0.007 0.0638-0.0049 0.0938-0.0136 0.0397-0.011 0.0957-0.0581 0.1602-0.0801 0.0418-0.0143 0.1382-0.017 0.1543-0.0332 0.0197-0.02 0-0.0753 0.0058-0.1055 0.0324-0.1507 0.2603-0.1836 0.3945-0.2344 0.094-0.0357 0.1897-0.1001 0.293-0.08-0.0202 0.0716-0.116 0.0459-0.0996 0.1328 0.0228 0.1207 0.1839-0.0349 0.2266-0.0528 0.0814-0.0342 0.2193-0.0549 0.3261-0.0937 0.0938-0.034 0.2622-0.0862 0.1739-0.1934-0.0737-0.005-0.1096 0.0858-0.1739 0.1133-0.0444 0.006-0.0344-0.0374-0.0722-0.041-0.0358-0.002-0.0569 0.0337-0.0938 0.0273-0.0367-0.006-0.088-0.0644-0.0937-0.1074-0.0147-0.1114 0.0944-0.1551 0.1406-0.2383-0.0305-0.1007-0.1696-0.0211-0.2539-0.0605 0.009-0.0601 0.0705-0.1018 0.1406-0.1133 0.0574-0.01 0.1865-0.0026 0.2207 0.0254 0.02 0.0168 0.0016 0.06 0.0332 0.0879 0.0341 0.0308 0.0749 0.0268 0.1192 0.0195 0.0161-0.076-0.0985-0.0571-0.086-0.1074 0.0901-0.059 0.2373-0.0095 0.3477-0.0254 0.0635-0.01 0.1292-0.0561 0.1855-0.0879 0.0536-0.0303 0.1248-0.0831 0.1817-0.0332 0.0156 0.0544-0.0498 0.0725-0.0801 0.0996-0.1021 0.0909-0.2077 0.1953-0.2871 0.3008 0.0488 0.0476 0.1363 0.0235 0.2187 0.0332 0.0322 0.004 0.0734 0.0155 0.1075 0.0215 0.0398 0.007 0.0821 0.0046 0.1132 0.0117 0.0562 0.0138 0.0716 0.0742 0.1273 0.0742 0.091-0.0001 0.092-0.0984 0.041-0.1601 0.016-0.063 0.041-0.0965 0.019-0.1406-0.041-0.0823-0.1932-0.0023-0.2009-0.1075-0.005-0.0666 0.0558-0.0634 0.08-0.1132-0.011-0.1287 0.1059-0.1386 0.0939-0.254-0.006-0.0483-0.046-0.0466-0.08-0.0918-0.0177-0.0233-0.026-0.0699-0.0471-0.0878-0.0698-0.059-0.2101-0.0476-0.2187-0.1602-0.004-0.0664 0.0156-0.1213 0.0058-0.1934-0.009-0.0673-0.0544-0.2547-0.1132-0.2675-0.0745-0.0162-0.1529 0.112-0.2422 0.1543-0.0486 0.0231-0.1173 0.0482-0.166 0.039-0.0316-0.006-0.0948-0.0521-0.0996-0.1133-0.006-0.0701 0.0477-0.0717 0.0605-0.1464-0.011-0.0441-0.0583-0.0333-0.1016-0.0665-0.049-0.0372-0.087-0.1178-0.1523-0.1269-0.0325-0.005-0.0751 0.0251-0.1074 0.0273-0.0597 0.0036-0.1059-0.0114-0.1563-0.0273 0.1609-0.0565 0.3242-0.1074 0.4903-0.1523 0.0311 0.0334 0.0421 0.0971 0.08 0.1191 0.0253 0.0145 0.069 0.0101 0.0996 0.0195 0.098 0.0297 0.1799 0.0832 0.2872 0.0606 0.0368-0.0646-0.0758-0.0821-0.0332-0.1328 0.0718 0.006 0.1185 0.0362 0.1738 0.0586 0.0772-0.0565 0.1277-0.0616 0.125-0.1524-0.0007-0.0548-0.0438-0.0807-0.0723-0.1191 0.0595-0.0101 0.1197-0.0188 0.1797-0.0274 0.013 0.0145 0.024 0.0366 0.041 0.0391 0.038 0.006 0.151-0.0496 0.174-0.0606 0.004-0.002 0.011-0.0103 0.017-0.0136 0.253-0.0274 0.508-0.043 0.768-0.043 1.196 0 2.318 0.2981 3.301 0.8223-0.033 0.0101-0.066 0.0172-0.106 0.0312-0.047 0.0166-0.134 0.0981-0.146 0.127-0.02 0.0476 0.005 0.0987 0 0.1718 0.038 0.0166 0.062 0.0913 0.127 0.127 0.024 0.0135 0.056 0.0068 0.078 0.0195 0.038 0.0215 0.068 0.0693 0.06 0.1074-0.011 0.0548-0.082 0.0395-0.119 0.0801 0.006 0.0777-0.054 0.0888-0.074 0.1407 0.012 0.0329 0.061 0.0269 0.067 0.0664-0.008 0.0426-0.083 0.0488-0.067 0.0937 0.072 0.0558 0.147-0.0108 0.215-0.0195 0.149-0.0186 0.301 0.0192 0.393-0.0528-0.013-0.0714 0.076-0.0964 0.068-0.1601-0.006-0.0481-0.086-0.0547-0.121-0.0879-0.019-0.0178-0.024-0.0593-0.047-0.0938-0.026-0.0396-0.076-0.0668-0.106-0.1054-0.039-0.0521-0.121-0.1284-0.121-0.168 0.001-0.0455 0.057-0.0569 0.067-0.1191-0.013-0.0572-0.119-0.0194-0.127-0.0801 0.002-0.0194 0.011-0.0326 0.021-0.0449 0.307 0.1675 0.595 0.3623 0.871 0.5722-0.003 0.0005-0.008-0.0005-0.011 0-0.067 0.0123-0.092 0.0961-0.147 0.1621-0.038 0.0461-0.111 0.0947-0.168 0.1192-0.027 0.0123-0.06 0.0111-0.086 0.0273-0.037 0.0249-0.051 0.0845-0.093 0.1133-0.031 0.0208-0.148 0.0795-0.18 0.0801-0.038 0.0006-0.073-0.0362-0.1-0.0274-0.04 0.0126-0.037 0.0914-0.082 0.1075-0.088 0.0314-0.235-0.0792-0.265 0.0527 0.037 0.0764 0.133 0.0574 0.199 0.0996 0.041 0.0262 0.129 0.1428 0.14 0.1875 0.01 0.0378-0.004 0.1865-0.019 0.2266-0.041 0.1065-0.139 0.071-0.262 0.0683-0.033-0.0006-0.068 0.0089-0.099 0.0059-0.207-0.014-0.415-0.0887-0.508 0.0586 0.007 0.1133 0.033 0.1906 0.008 0.289-0.019 0.0723-0.084 0.1366-0.081 0.1993 0.002 0.0322 0.04 0.0637 0.047 0.1074 0.005 0.0233-0.011 0.0726 0 0.0937 0.034 0.0657 0.126 0.0099 0.186 0.0196 0.059 0.01 0.127 0.0941 0.127 0.1601-0.001 0.0461-0.043 0.1217-0.072 0.166-0.059 0.0885-0.138 0.0934-0.221 0.1407-0.07 0.0395-0.1 0.1051-0.141 0.1738-0.044 0.0742-0.071 0.1192-0.052 0.2266-0.06 0.1183-0.15 0.1917-0.274 0.248-0.037 0.0166-0.088 0.0226-0.121 0.0469-0.027 0.0192-0.042 0.0706-0.08 0.1133-0.047 0.0522-0.095 0.0734-0.119 0.1132-0.019 0.031-0.026 0.0916-0.047 0.1329-0.029 0.056-0.09 0.0838-0.127 0.1406-0.017 0.0262-0.028 0.0788-0.047 0.1133-0.042 0.0769-0.115 0.1335-0.107 0.2011 0.007 0.0655 0.083 0.0759 0.088 0.1328 0.004 0.0322-0.023 0.0509-0.022 0.086 0.001 0.0512 0.037 0.0875 0.041 0.1269 0.01 0.0992-0.036 0.1393-0.055 0.2071-0.009 0.0324-0.003 0.0687-0.011 0.0937-0.017 0.05-0.087 0.096-0.088 0.154-0.001 0.042 0.043 0.075 0.047 0.133 0.002 0.04-0.021 0.084-0.014 0.121 0.014 0.073 0.145 0.157 0.201 0.213 0.076 0.076 0.175 0.133 0.207 0.213 0.028 0.067 0.028 0.158 0.08 0.209 0.039 0.037 0.103 0.06 0.153 0.1 0.046 0.036 0.098 0.066 0.148 0.105 0.081 0.064 0.203 0.191 0.332 0.182 0.068-0.005 0.138-0.061 0.215-0.075 0.079-0.013 0.18-0.021 0.26-0.013 0.061 0.006 0.124 0.042 0.187 0.039 0.067-0.004 0.145-0.053 0.221-0.086 0.132-0.057 0.327-0.134 0.519-0.106 0.147 0.022 0.141 0.188 0.243 0.252 0.117 0.01 0.211-0.042 0.304-0.019 0.071 0.017 0.156 0.124 0.162 0.18 0.007 0.057-0.032 0.145-0.041 0.181-0.018 0.078-0.019 0.17-0.033 0.219-0.011 0.038-0.041 0.061-0.041 0.1 0.001 0.035 0.044 0.122 0.08 0.168 0.044 0.056 0.115 0.099 0.168 0.16 0.098 0.111 0.14 0.247 0.207 0.394 0.017 0.038 0.035 0.088 0.051 0.135h2.686c0.053-0.218 0.114-0.432 0.152-0.656 0.013-0.079 0.026-0.159 0.037-0.239 0.05-0.362 0.084-0.729 0.084-1.105 0-0.302-0.02-0.599-0.053-0.893-0.032-0.2933-0.083-0.5817-0.146-0.8648-0.049-0.2171-0.101-0.4326-0.166-0.6426-0.012-0.038-0.028-0.0739-0.041-0.1113-0.039-0.1191-0.083-0.2351-0.127-0.3516-0.056-0.1467-0.116-0.2912-0.18-0.4336-0.002-0.005-0.004-0.0105-0.006-0.0156-0.002-0.004-0.004-0.0077-0.006-0.0117-0.024-0.0541-0.052-0.1068-0.078-0.1602-0.096-0.2-0.2-0.3957-0.312-0.5859-0.002-0.0025-0.003-0.0053-0.004-0.0078-0.058-0.098-0.116-0.1958-0.178-0.291-0.156-0.2395-0.322-0.4708-0.502-0.6914-0.18-0.2202-0.37-0.4313-0.572-0.6309-0.093-0.0916-0.192-0.1766-0.289-0.2637-0.002-0.0012-0.003-0.0027-0.004-0.0039-0.283-0.2532-0.579-0.4899-0.897-0.7012-1.269-0.8454-2.793-1.3398-4.439-1.3398zm-2.5156 1.4707c-0.0228 0.0434-0.0454 0.0873-0.0918 0.1016 0.0123 0.0652-0.0762 0.1066-0.086 0.1582-0.006 0.0347 0.0096 0.0758 0.0118 0.1074 0.02 0.3193-0.2437 0.4695-0.5547 0.4609-0.0611 0.0584-0.0451 0.168-0.0782 0.2481-0.028 0.0673-0.128 0.1385-0.1953 0.1328-0.0497-0.004-0.1053-0.0747-0.1054-0.1211-0.0002-0.0571 0.0826-0.0871 0.0332-0.1524 0.007-0.0444 0.1059-0.0699 0.0937-0.1406-0.0125-0.0736-0.1154-0.0354-0.207-0.0468-0.0516-0.007-0.1119-0.0366-0.166-0.0626 0.4184-0.2762 0.8703-0.5032 1.3457-0.6855zm5.4066 0.752c-0.028 0.004-0.054 0.0095-0.077 0.0234-0.05 0.031-0.068 0.0786-0.107 0.0937-0.054 0.0205-0.092 0.003-0.1 0.0528-0.006 0.0411 0.035 0.0611 0.034 0.0996-0.02 0.049-0.077 0.0619-0.086 0.1211 0.067 0.1103 0.23 0.0118 0.314-0.0137 0.038-0.011 0.091-0.009 0.111-0.0391 0.024-0.0353 0.004-0.0973 0.022-0.1484 0.019-0.0562 0.073-0.0631 0.066-0.1133-0.006-0.0498-0.096-0.0842-0.177-0.0761zm-7.3402 0.7773c0.0606 0.0158 0.2209 0.1914 0.0879 0.248-0.0126 0.006-0.1951 0.025-0.2266 0.0196-0.0461-0.007-0.0744-0.0719-0.1211-0.0801-0.0922-0.0162-0.2161 0.1105-0.2793 0.0059 0.0161-0.0593 0.0819-0.061 0.1524-0.0801 0.1251-0.0341 0.2784-0.1416 0.3867-0.1133zm0.2539 0.3223c0.0313 0.002 0.0697 0.0362 0.1074 0.039 0.0357 0.002 0.064-0.0192 0.0859-0.0136 0.0558 0.0147 0.08 0.0993 0.0274 0.1406-0.0436 0.005-0.0608-0.0195-0.0938-0.0137-0.0907 0.0156-0.1256 0.1934-0.1933 0.1875-0.0639-0.006-0.0981-0.1607-0.0332-0.207 0.002-0.0405-0.0295-0.048-0.0274-0.0879 0.0196-0.025 0.0738-0.0494 0.127-0.0449zm-0.3008 0.0195c0.0185 0.0006 0.0341 0.0061 0.041 0.0137-0.009 0.0711-0.0662 0.0663-0.1211 0.0996-0.0949 0.0573-0.1495 0.1452-0.1797 0.2676-0.009 0.0359-0.1013 0.1285-0.1464 0.1191-0.106-0.0222 0.0286-0.2164 0.0527-0.2461 0.0266-0.0329 0.0622-0.0617 0.0937-0.0996 0.0305-0.0368 0.0507-0.0871 0.0801-0.1074 0.0323-0.0222 0.1239-0.049 0.1797-0.0469zm9.5061 0.041h0.002c0.047 0.0129 0.044 0.0549 0.08 0.0801 0.026 0.0185 0.062 0.0145 0.092 0.0332 0.035 0.0221 0.054 0.0799 0.093 0.1133 0.056 0.0471 0.156 0.0815 0.235 0.1191 0.015 0.0075 0.034 0.0187 0.052 0.0274 0.051 0.0662 0.103 0.1311 0.151 0.1992-0.001 0.0089-0.003 0.0194-0.002 0.0273 0.006 0.0396 0.034 0.0811 0.053 0.1074 0.051 0.0711 0.124 0.1344 0.181 0.2207 0 0.0826 0.034 0.1294 0.092 0.1524 0.108 0.1838 0.206 0.3723 0.297 0.5664-0.03-0.002-0.06-0.004-0.09-0.0117-0.066-0.1159-0.397-0.1236-0.426 0.0469-0.012 0.0752 0.038 0.1803-0.074 0.1933-0.071 0.009-0.143-0.0726-0.24-0.0937-0.04-0.009-0.096-0.0025-0.127-0.0137-0.073-0.0251-0.064-0.0945-0.127-0.1387-0.036-0.0255-0.13-0.062-0.188-0.0683-0.035-0.004-0.069 0.0108-0.107 0.0058-0.045-0.005-0.109-0.0355-0.146-0.0586-0.037-0.0221-0.11-0.0563-0.12-0.0879-0.014-0.0492 0.091-0.1046 0.094-0.1465 0.002-0.0314-0.039-0.0511-0.047-0.0996-0.005-0.0293 0.012-0.0605 0.006-0.08-0.01-0.0345-0.067-0.0733-0.121-0.0743-0.048-0.0006-0.092 0.0399-0.133 0.0411-0.058 0.001-0.154-0.0331-0.226-0.0274-0.045 0.004-0.086 0.03-0.127 0.0332-0.117 0.01-0.211-0.006-0.301 0-0.066 0.004-0.179 0.025-0.24 0.0528-0.031 0.0141-0.054 0.0481-0.094 0.0683-0.018 0.009-0.043 0.0086-0.066 0.0195-0.038 0.0172-0.078 0.0574-0.114 0.0664-0.052 0.0134-0.132-0.0098-0.226-0.0058-0.068 0.004-0.181 0.0021-0.182-0.0801-0.001-0.1235 0.212-0.0779 0.328-0.0996 0.044-0.009 0.067-0.0489 0.119-0.0801 0.025-0.015 0.057-0.017 0.08-0.0332 0.041-0.0278 0.102-0.0948 0.108-0.1269 0.006-0.0297-0.017-0.0718-0.014-0.0938 0.005-0.0281 0.038-0.0579 0.074-0.0937 0.057-0.0555 0.117-0.1296 0.186-0.166 0.047-0.0249 0.113-0.023 0.135-0.0606 0.005-0.0428-0.007-0.0686-0.006-0.1074 0.029-0.0265 0.048-0.0476 0.072-0.0528 0.072-0.0156 0.143 0.0505 0.227 0.0469 0.036-0.002 0.068-0.0269 0.107-0.0527 0.033-0.0217 0.068-0.0384 0.1-0.0547 0.035-0.0183 0.072-0.0578 0.115-0.0605 0.105-0.006 0.146 0.1105 0.193 0.1738 0.04 0.0526 0.153 0.1427 0.219 0.1797 0.037 0.0207 0.086 0.0226 0.127 0.041 0.087 0.0389 0.259 0.1689 0.262 0.2539 0.002 0.0424-0.04 0.0742-0.034 0.1133 0.066 0.011 0.138-0.0613 0.139-0.127 0.001-0.0411-0.041-0.0641-0.033-0.1074 0.031-0.0661 0.121 0.0016 0.16-0.0254-0.007-0.0747-0.11-0.0823-0.174-0.1211-0.034-0.021-0.056-0.0655-0.092-0.0801-0.051-0.0212-0.108-0.0157-0.148-0.0468-0.038-0.0292-0.055-0.0943-0.092-0.1387-0.054-0.0645-0.173-0.0751-0.14-0.2207 0.016-0.0216 0.053-0.0545 0.078-0.0469zm-8.7151 0.2012c0.0338 0.0006 0.0641 0.0045 0.0781 0.0176-0.0217 0.0882-0.2117 0.0668-0.2812 0.0351 0.004-0.0331 0.056-0.0425 0.0996-0.0469 0.0309-0.002 0.0695-0.0058 0.1035-0.0058zm8.2671 0.1601c-0.043 0.0142-0.065 0.1075 0 0.1192 0.031-0.0184 0.055-0.0432 0.047-0.0996-0.017-0.0183-0.032-0.0244-0.047-0.0196zm-8.7007 0.002c0.0228-0.0006 0.0466 0.0008 0.0703 0.0098-0.0616 0.0515-0.1288 0.0799-0.2343 0.1132-0.0508 0.0161-0.1379 0.0372-0.1465-0.0195-0.011-0.0694 0.0747-0.0544 0.1211-0.0605 0.0584-0.007 0.121-0.0408 0.1894-0.043zm8.6837 0.1855c-0.022 0.006-0.046 0.021-0.068 0.045 0.001 0.0746 0.009 0.1227-0.006 0.1875 0.043 0.0823 0.138 0.0093 0.16-0.0469 0.026-0.139-0.022-0.2031-0.086-0.1856zm0.568 0.3692c-0.058-0.0019-0.114 0.0006-0.148 0.0293 0.049 0.0801 0.15 0.1072 0.26 0.1269 0.039-0.0296 0.042-0.0954 0.06-0.1465-0.047 0.0007-0.111-0.0067-0.17-0.0097h-0.002zm-11.845 2.7112c0.1637-0.005 0.235 0.208 0.3672 0.273 0.0331 0.017 0.0763 0.018 0.1191 0.027 0.0347 0.008 0.0606 0.022 0.0938 0.034 0.0706 0.024 0.1583 0.021 0.2148 0.047 0.0851 0.037 0.1456 0.197 0.2187 0.24 0.004 0.043-0.0071 0.1 0.0059 0.133 0.0346 0.046 0.0837 0.037 0.1406 0.068 0.0681 0.037 0.0898 0.131 0.1543 0.16 0.022 0.01 0.0781 0.009 0.1133 0.02 0.0885 0.026 0.1175 0.13 0.1934 0.107 0.0498-0.014 0.0448-0.066 0.0527-0.113 0.0329-0.036 0.0698-0.093 0.1211-0.094 0.083-0.001 0.0908 0.085 0.1211 0.166 0.0169 0.046 0.0606 0.085 0.0723 0.133 0.0205 0.083 0.0111 0.331-0.0059 0.381-0.021 0.061-0.1035 0.087-0.1543 0.154-0.0238 0.032-0.0345 0.077-0.0527 0.1-0.0325 0.039-0.0831 0.051-0.1075 0.088-0.0139 0.02-0.0258 0.065-0.039 0.093-0.0402 0.085-0.0943 0.144-0.0606 0.246 0.0138 0.042 0.0799 0.07 0.0801 0.12 0.0001 0.058-0.1232 0.11-0.1328 0.173-0.007 0.048 0.0378 0.134 0.0527 0.196 0.011 0.046 0.0995 0.074 0.127 0.105 0.0468 0.053 0.0841 0.127 0.1269 0.193 0.0846 0.13 0.152 0.289 0.2344 0.415 0.0433 0.066 0.1038 0.124 0.1328 0.193 0.0147 0.035 0.0135 0.076 0.0274 0.107 0.0477 0.108 0.2584 0.22 0.3672 0.274 0.0509 0.025 0.1056 0.034 0.1523 0.06 0.0707 0.04 0.2123 0.145 0.2481 0.207 0.032 0.056 0.0508 0.191 0.0664 0.28 0.0206 0.117 0.0008 0.207 0.0058 0.334 0.004 0.068 0.0265 0.138 0.0274 0.207 0.0003 0.024-0.0128 0.043-0.0137 0.068-0.002 0.083 0.0209 0.176 0.0137 0.26-0.004 0.045-0.0171 0.083-0.0137 0.121 0.004 0.041 0.0241 0.075 0.0273 0.111 0.002 0.039-0.0118 0.091-0.0078 0.121 0.009 0.085 0.0713 0.15 0.0879 0.227 0.0132 0.061 0.0216 0.188 0.0137 0.262-0.005 0.038-0.0273 0.076-0.0332 0.119-0.004 0.033 0.005 0.068 0 0.099-0.006 0.047-0.036 0.084-0.0332 0.127 0.006 0.09 0.105 0.164 0.1191 0.254 0.005 0.03-0.0068 0.065-0.0058 0.094 0.0009 0.027 0.0116 0.051 0.0195 0.076-2.1077-1.204-3.5254-3.468-3.5254-6.078 0-0.313 0.027-0.618 0.0664-0.92 0.0633 0 0.1314-0.066 0.2012-0.068zm2.7168 0.756c0.0641-0.03 0.08 0.093 0.0273 0.101-0.0499 0.007-0.0757-0.079-0.0273-0.101zm7.0156 3.232v1 1 1 1h1 1v1h3v-2h-3-1v-1h1 3v-2h-3v1h-1v-1h-1z" fill="#4d4d4d" transform="matrix(1 0 0 1 0 0)"/>
</svg>
