<svg height="22" width="22" xmlns="http://www.w3.org/2000/svg" xmlns:sodipodi="http://sodipodi.sourceforge.net/DTD/sodipodi-0.dtd" xmlns:inkscape="http://www.inkscape.org/namespaces/inkscape">
 <g transform="matrix(1 0 0 1 -421.71 -525.79)">
  <path d="m3 3v2 1 13h7v-1h-6v-11h14v5h1v-9h-2v2h-2v-2h-3v2h-2v-2h-3v2h-2v-2h-2zm2 5v1h6v-1h-6zm0 3v1h6v-1h-6zm6 2v6h8v-6h-8zm1 1h6v1h-1v2h1v1h-6v-1h1v-2h-1v-1zm3 1c-0.554 0-1 0.446-1 1s0.446 1 1 1 1-0.446 1-1-0.446-1-1-1z" fill="#4d4d4d" transform="matrix(1 0 0 1 421.71 525.79)"/>
  <rect x="433.71" y="533.79" fill="#da4453" height="1" width="5"/>
 </g>
</svg>
