<svg viewBox="0 0 16 16" height="16" width="16" xmlns="http://www.w3.org/2000/svg" xmlns:sodipodi="http://sodipodi.sourceforge.net/DTD/sodipodi-0.dtd" xmlns:inkscape="http://www.inkscape.org/namespaces/inkscape">
 <path stroke="none" stroke-dasharray="none" stroke-dashoffset="0" stroke-linecap="butt" stroke-linejoin="miter" color="#000000" stroke-miterlimit="4" stroke-opacity="1" color-interpolation="sRGB" image-rendering="auto" stroke-width="1" color-interpolation-filters="linearRGB" color-rendering="auto" d="M 2 2 L 2 3 L 2 8 L 3 8 L 3 3 L 13 3 L 13 9.2929688 L 9.7070312 6 L 9.6992188 6.0078125 L 9.6933594 6 L 7.3476562 8.3476562 L 8.0546875 9.0546875 L 9.7011719 7.4082031 L 13 10.707031 L 13 13 L 8 13 L 8 14 L 14 14 L 14 13 L 14 11.707031 L 14 10.292969 L 14 2 L 3 2 L 2 2 z M 5.5 4 C 4.669 4 4 4.6690001 4 5.5 C 4 6.331 4.669 7 5.5 7 C 6.331 7 7 6.331 7 5.5 C 7 4.6690001 6.331 4 5.5 4 z M 5.5 5 C 5.777 5 6 5.223 6 5.5 C 6 5.777 5.777 6 5.5 6 C 5.223 6 5 5.777 5 5.5 C 5 5.223 5.223 5 5.5 5 z M 2 9 L 2 10 L 7 10 L 7 9 L 2 9 z M 2 11 L 2 12 L 7 12 L 7 11 L 2 11 z M 2 13 L 2 14 L 7 14 L 7 13 L 2 13 z " text-rendering="auto" display="inline" visibility="visible" fill="#bebebe" fill-opacity="1" opacity="1" fill-rule="nonzero" shape-rendering="auto"/>
</svg>
