<svg height="22" width="22" xmlns="http://www.w3.org/2000/svg" xmlns:sodipodi="http://sodipodi.sourceforge.net/DTD/sodipodi-0.dtd" xmlns:inkscape="http://www.inkscape.org/namespaces/inkscape">
 <g transform="matrix(1 0 0 1 -421.71 -525.79)">
  <path d="m440.71 528.79v16h-14v-1h13v-11h-14v9h-1.1v-13h2.1v3h2v-3h8v3h2v-3z" fill="#4d4d4d"/>
  <path d="m423.71 539.79v6h6v-6h-6zm4.5938 1.3125 0.42187 0.375-3 3-1.0312-1.0312 0.42188-0.42187 0.60937 0.65625 2.5781-2.5781z" fill="#4d4d4d"/>
  <path d="m436.01 534.79-4.5918 4.5918-1.1465-1.1465-0.70703 0.70703 1.8457 1.8477 0.006-0.008 0.008 0.008 5.293-5.293z" fill="#4d4d4d"/>
 </g>
</svg>
