<svg viewBox="0 0 16 16" height="16" width="16" xmlns="http://www.w3.org/2000/svg" xmlns:sodipodi="http://sodipodi.sourceforge.net/DTD/sodipodi-0.dtd" xmlns:inkscape="http://www.inkscape.org/namespaces/inkscape">
 <path stroke="none" stroke-dasharray="none" stroke-dashoffset="0" stroke-linecap="butt" stroke-linejoin="miter" color="#000000" stroke-miterlimit="4" stroke-opacity="1" color-interpolation="sRGB" image-rendering="auto" stroke-width="1" color-interpolation-filters="linearRGB" color-rendering="auto" d="M 2 2 L 2 3 L 2 8 L 3 8 L 3 5 L 4 5 L 4 8 L 5 8 L 5 5 L 11 5 L 11 11 L 8 11 L 8 12 L 9 12 L 9 13 L 8 13 L 8 14 L 14 14 L 14 13 L 14 3 L 14 2 L 3 2 L 2 2 z M 3 3 L 4 3 L 4 4 L 3 4 L 3 3 z M 5 3 L 6 3 L 6 4 L 5 4 L 5 3 z M 7 3 L 9 3 L 9 4 L 7 4 L 7 3 z M 10 3 L 11 3 L 11 4 L 10 4 L 10 3 z M 12 3 L 13 3 L 13 4 L 12 4 L 12 3 z M 12 5 L 13 5 L 13 11 L 12 11 L 12 5 z M 2 9 L 2 10 L 7 10 L 7 9 L 2 9 z M 2 11 L 2 12 L 7 12 L 7 11 L 2 11 z M 10 12 L 11 12 L 11 13 L 10 13 L 10 12 z M 12 12 L 13 12 L 13 13 L 12 13 L 12 12 z M 2 13 L 2 14 L 7 14 L 7 13 L 2 13 z " text-rendering="auto" display="inline" visibility="visible" fill="#bebebe" fill-opacity="1" opacity="1" fill-rule="nonzero" shape-rendering="auto"/>
</svg>
