<svg height="22" width="22" xmlns="http://www.w3.org/2000/svg" xmlns:sodipodi="http://sodipodi.sourceforge.net/DTD/sodipodi-0.dtd" xmlns:inkscape="http://www.inkscape.org/namespaces/inkscape">
 <path d="m11.023 1034.4s-0.4241 2.436-1.4457 2.7517c-1.0216 0.3164-2.8659-1.4-2.8659-1.4s1.1386 2.1901 0.50725 3.0171c-0.63136 0.8272-3.1957 0.4588-3.1957 0.4588s2.308 1.1501 2.308 2.1724-2.308 2.1724-2.308 2.1724 2.5643-0.3684 3.1957 0.4588c0.63135 0.827-0.50725 3.0171-0.50725 3.0171s1.8444-1.7157 2.8659-1.4c1.0216 0.3164 1.4457 2.7517 1.4457 2.7517s0.4241-2.436 1.4456-2.7517c1.0216-0.3164 2.8659 1.4 2.8659 1.4s-1.1386-2.1901-0.50725-3.0171c0.63136-0.8272 3.1957-0.4588 3.1957-0.4588s-2.308-1.1501-2.308-2.1724 2.308-2.1724 2.308-2.1724-2.5643 0.3684-3.1957-0.4588c-0.63135-0.827 0.50725-3.0171 0.50725-3.0171s-1.8444 1.7157-2.8659 1.4c-1.0216-0.3164-1.4456-2.7517-1.4456-2.7517zm0 3.9102c1.7929 0 3.2464 1.3833 3.2464 3.0898s-1.4535 3.0898-3.2464 3.0898-3.2464-1.3833-3.2464-3.0898 1.4535-3.0898 3.2464-3.0898z" fill="#4d4d4d" color="#000000" transform="matrix(1 0 0 1 0 -1030.4)"/>
</svg>
