<svg viewBox="0 0 16 16" height="16" width="16" xmlns="http://www.w3.org/2000/svg" xmlns:sodipodi="http://sodipodi.sourceforge.net/DTD/sodipodi-0.dtd" xmlns:inkscape="http://www.inkscape.org/namespaces/inkscape">
 <path stroke="none" stroke-dasharray="none" stroke-dashoffset="0" stroke-linecap="butt" stroke-linejoin="miter" color="#000000" stroke-miterlimit="4" stroke-opacity="1" color-interpolation="sRGB" image-rendering="auto" stroke-width="1" color-interpolation-filters="linearRGB" color-rendering="auto" d="M 14,2 14,7 9,7 9,2 14,2 Z M 8,2 8,14 7,14 7,2 8,2 Z M 6,2 6,3 2,3 2,2 6,2 Z m 7,1 -3,0 0,3 3,0 0,-3 z M 6,4 6,5 2,5 2,4 6,4 Z M 6,6 6,7 2,7 2,6 6,6 Z m 8,3 0,5 -5,0 0,-5 5,0 z M 6,9 6,10 2,10 2,9 6,9 Z m 7,1 -3,0 0,3 3,0 0,-3 z m -7,1 0,1 -4,0 0,-1 4,0 z m 0,2 0,1 -4,0 0,-1 4,0 z" text-rendering="auto" display="inline" visibility="visible" fill="#bebebe" fill-opacity="1" opacity="1" fill-rule="nonzero" shape-rendering="auto" inkscape:connector-curvature="0"/>
</svg>
