<svg height="22" width="22" xmlns="http://www.w3.org/2000/svg" xmlns:sodipodi="http://sodipodi.sourceforge.net/DTD/sodipodi-0.dtd" xmlns:inkscape="http://www.inkscape.org/namespaces/inkscape">
 <defs>
  <filter id="filter4215" inkscape:collect="always">
   <feGaussianBlur stdDeviation="0.04962" inkscape:collect="always"/>
  </filter>
  <linearGradient x2="0" y1="1.01" y2="15.01" gradientUnits="userSpaceOnUse" id="linearGradient3992" inkscape:collect="always">
   <stop stop-color="#000000" stop-opacity="1"/>
   <stop stop-color="#000000" stop-opacity="0" offset="1"/>
  </linearGradient>
  <linearGradient x2="0" y1="3" y2="13" gradientUnits="userSpaceOnUse" id="linearGradient4022" inkscape:collect="always">
   <stop stop-color="#1e1e1e" stop-opacity="1"/>
   <stop stop-color="#505050" stop-opacity="1" offset="1"/>
  </linearGradient>
  <linearGradient x2="0" y1="3" y2="13" gradientUnits="userSpaceOnUse" id="linearGradient4024" inkscape:collect="always">
   <stop stop-color="#000000" stop-opacity="1"/>
   <stop stop-color="#000000" stop-opacity="0.256" offset="1"/>
  </linearGradient>
 </defs>
 <g inkscape:label="Capa 1" inkscape:groupmode="layer" transform="matrix(1 0 0 1 -421.71 -525.79)">
  <g stroke-opacity="1" stroke-width="0.2" display="inline" enable-background="new" fill="none" stroke="url(#linearGradient3992)" stroke-dasharray="none" filter="url(#filter4215)" stroke-miterlimit="4" transform="matrix(0.98592 0 0 1 424.84 528.8)">
   <g inkscape:label="actions" transform="matrix(1 0 0 1 -417 -117)">
    <rect x="-429" rx="0" y="127" color="#dddddd" height="2" visibility="visible" opacity="0.5" width="8" transform="matrix(-1 0 0 1 0 0)"/>
    <rect x="-427" rx="0" y="118" color="#dddddd" height="2" visibility="visible" opacity="0.5" width="4" transform="matrix(-1 0 0 1 0 0)"/>
    <rect x="-427" rx="0" y="130" color="#dddddd" height="2" visibility="visible" opacity="0.5" width="4" transform="matrix(-1 0 0 1 0 0)"/>
    <rect x="-429" rx="0" y="121" color="#dddddd" height="2" visibility="visible" opacity="0.5" width="8" transform="matrix(-1 0 0 1 0 0)"/>
    <rect x="-431" y="124" color="#dddddd" height="2" visibility="visible" width="12" transform="matrix(-1 0 0 1 0 0)"/>
   </g>
  </g>
  <g stroke-width="0.2" display="inline" enable-background="new" fill="url(#linearGradient4022)" fill-opacity="1" stroke="url(#linearGradient4024)" stroke-dasharray="none" opacity="1" stroke-miterlimit="4" inkscape:label="actions" transform="matrix(0.98592 0 0 1 92.57 411.8)">
   <rect x="338" y="120" color="#bebebe" fill-rule="nonzero" height="10" visibility="visible" width="1"/>
   <rect x="340" y="121" color="#bebebe" fill-rule="nonzero" height="8" visibility="visible" width="1"/>
   <rect x="349" y="121" color="#bebebe" fill-rule="nonzero" height="8" visibility="visible" width="1"/>
   <rect x="351" y="120" color="#bebebe" fill-rule="nonzero" height="10" visibility="visible" width="1"/>
   <path d="m 342.0002,122 0,6 6,0 0,-6 z" color="#bebebe" fill-rule="nonzero" visibility="visible" sodipodi:nodetypes="ccccc" inkscape:connector-curvature="0"/>
  </g>
 </g>
</svg>
