<svg height="16" width="16" xmlns="http://www.w3.org/2000/svg" xmlns:xlink="http://www.w3.org/1999/xlink" xmlns:sodipodi="http://sodipodi.sourceforge.net/DTD/sodipodi-0.dtd" xmlns:inkscape="http://www.inkscape.org/namespaces/inkscape">
 <defs>
  <filter id="filter4215">
   <feGaussianBlur stdDeviation="0.04962"/>
  </filter>
  <linearGradient x2="0" y1="1.01" y2="15.01" gradientUnits="userSpaceOnUse" id="linearGradient4225">
   <stop/>
   <stop stop-opacity="0" offset="1"/>
  </linearGradient>
  <rect x="-429" rx="0" y="127" color="#dddddd" height="2" id="SVGCleanerId_0" opacity="0.5" width="8"/>
  <rect x="-427" rx="0" y="118" color="#dddddd" height="2" id="SVGCleanerId_1" opacity="0.5" width="4"/>
  <rect x="-427" rx="0" y="130" color="#dddddd" height="2" id="SVGCleanerId_2" opacity="0.5" width="4"/>
  <rect x="-429" rx="0" y="121" color="#dddddd" height="2" id="SVGCleanerId_3" opacity="0.5" width="8"/>
  <rect x="-431" y="124" color="#dddddd" height="2" id="SVGCleanerId_4" width="12"/>
 </defs>
 <g enable-background="new" fill="#3d3d3d" fill-opacity="0.8" transform="matrix(1 0 0 1 -417 -116.99)">
  <use xlink:href="#SVGCleanerId_0" transform="matrix(-1 0 0 1 0 0)"/>
  <use xlink:href="#SVGCleanerId_1" transform="matrix(-1 0 0 1 0 0)"/>
  <use xlink:href="#SVGCleanerId_2" transform="matrix(-1 0 0 1 0 0)"/>
  <use xlink:href="#SVGCleanerId_3" transform="matrix(-1 0 0 1 0 0)"/>
  <use xlink:href="#SVGCleanerId_4" transform="matrix(-1 0 0 1 0 0)"/>
 </g>
 <g stroke-width="0.2" enable-background="new" fill="none" stroke="url(#linearGradient4225)" filter="url(#filter4215)" transform="matrix(1 0 0 1 0.017 -0.006)">
  <g transform="matrix(1 0 0 1 -417 -117)">
   <use xlink:href="#SVGCleanerId_0" transform="matrix(-1 0 0 1 0 0)"/>
   <use xlink:href="#SVGCleanerId_1" transform="matrix(-1 0 0 1 0 0)"/>
   <use xlink:href="#SVGCleanerId_2" transform="matrix(-1 0 0 1 0 0)"/>
   <use xlink:href="#SVGCleanerId_3" transform="matrix(-1 0 0 1 0 0)"/>
   <use xlink:href="#SVGCleanerId_4" transform="matrix(-1 0 0 1 0 0)"/>
  </g>
 </g>
</svg>
