<svg viewBox="0 0 16 16" height="16" width="16" xmlns="http://www.w3.org/2000/svg" xmlns:sodipodi="http://sodipodi.sourceforge.net/DTD/sodipodi-0.dtd" xmlns:inkscape="http://www.inkscape.org/namespaces/inkscape">
 <path stroke="none" stroke-dasharray="none" stroke-dashoffset="0" stroke-linecap="butt" stroke-linejoin="miter" color="#000000" stroke-miterlimit="4" stroke-opacity="1" color-interpolation="sRGB" image-rendering="auto" stroke-width="1" color-interpolation-filters="linearRGB" color-rendering="auto" d="m 2.0000001,1.9999997 0,5.0000005 5,0 0,-5.0000005 z m 5.9999999,0 0,1 6,0 0,-1 z m -4.9999999,1 3,0 0,3 -3,0 z m 4.9999999,1 0,1 6,0 0,-1 z m 0,2 0,1.0000005 6,0 0,-1.0000005 z m -5.9999999,3.0000005 0,4.9999998 5,0 0,-4.9999998 z M 8,9.0000002 8,10 14,10 14,9.0000002 Z M 3.0000001,10 l 3,0 0,3 -3,0 z M 8,11 l 0,1 6,0 0,-1 z m 0,2 0,1 6,0 0,-1 z" text-rendering="auto" display="inline" visibility="visible" fill="#bebebe" fill-opacity="1" opacity="1" fill-rule="nonzero" shape-rendering="auto" sodipodi:nodetypes="cccccccccccccccccccccccccccccccccccccccccccccccccc" inkscape:connector-curvature="0"/>
</svg>
