<svg height="22" width="22" xmlns="http://www.w3.org/2000/svg" xmlns:sodipodi="http://sodipodi.sourceforge.net/DTD/sodipodi-0.dtd" xmlns:inkscape="http://www.inkscape.org/namespaces/inkscape">
 <path d="m3 3v2 1 13h7v-1h-6v-11h14v5h1v-9h-2v2h-2v-2h-3v2h-2v-2h-3v2h-2v-2h-2zm4.5 5c-1.385 0-2.5 1.1152-2.5 2.5 0 0.433 0.118 0.835 0.3105 1.189l0.7598-0.759c-0.041-0.137-0.0703-0.279-0.0703-0.43 0-0.8309 0.669-1.5 1.5-1.5 0.1508 0 0.2926 0.0293 0.4297 0.0703l0.7598-0.7598c-0.3547-0.1924-0.7561-0.3105-1.1895-0.3105zm2.1895 1.3105l-0.7598 0.7595c0.041 0.137 0.0703 0.279 0.0703 0.43 0 0.831-0.669 1.5-1.5 1.5-0.1508 0-0.2926-0.029-0.4297-0.07l-0.7598 0.759c0.3547 0.193 0.7561 0.311 1.1895 0.311 1.385 0 2.5-1.115 2.5-2.5 0-0.433-0.118-0.8349-0.3105-1.1895zm1.3105 3.6895v6h8v-6h-8zm1 1h6v1h-1v2h1v1h-6v-1h1v-2h-1v-1zm3 1c-0.554 0-1 0.446-1 1s0.446 1 1 1 1-0.446 1-1-0.446-1-1-1z" fill="#4d4d4d" transform="matrix(1 0 0 1 0 0)"/>
</svg>
