<svg height="22" width="22" xmlns="http://www.w3.org/2000/svg" xmlns:sodipodi="http://sodipodi.sourceforge.net/DTD/sodipodi-0.dtd" xmlns:inkscape="http://www.inkscape.org/namespaces/inkscape">
 <path d="m3 3v16h16v-16h-2v3h-2v-3h-8v3h-2v-3h-2zm1 4h14v11h-14v-11zm5.5 2c-1.939 0-3.5 1.561-3.5 3.5s1.561 3.5 3.5 3.5c0.54 0 1.044-0.129 1.5-0.346 0.456 0.217 0.96 0.346 1.5 0.346 1.939 0 3.5-1.561 3.5-3.5s-1.561-3.5-3.5-3.5c-0.54 0-1.044 0.1294-1.5 0.3457-0.456-0.2163-0.96-0.3457-1.5-0.3457zm0 1c0.1718 0 0.3401 0.018 0.502 0.051-0.6183 0.63-1.002 1.492-1.002 2.449s0.3837 1.819 1.002 2.449c-0.1619 0.033-0.3302 0.051-0.502 0.051-1.385 0-2.5-1.115-2.5-2.5s1.115-2.5 2.5-2.5zm3 0c1.385 0 2.5 1.115 2.5 2.5s-1.115 2.5-2.5 2.5c-0.172 0-0.34-0.018-0.502-0.051 0.618-0.63 1.002-1.492 1.002-2.449s-0.384-1.819-1.002-2.449c0.162-0.033 0.33-0.051 0.502-0.051zm-1.5 0.508c0.605 0.455 1 1.173 1 1.992s-0.395 1.537-1 1.992c-0.605-0.455-1-1.173-1-1.992s0.395-1.537 1-1.992z" fill="#4d4d4d" transform="matrix(1 0 0 1 0 0)"/>
</svg>
