<svg height="22" width="22" xmlns="http://www.w3.org/2000/svg" xmlns:sodipodi="http://sodipodi.sourceforge.net/DTD/sodipodi-0.dtd" xmlns:inkscape="http://www.inkscape.org/namespaces/inkscape">
 <g transform="matrix(1 0 0 1 -421.71 -525.79)">
  <path d="m4 3v2h-1v1h1v1h-1v1h1v6h-1v1h1v1h-1v1h1v2h3 4.406v-1h-1.406-1-2v-2-1-2-1-2-1-2-1-2h2 1 8v2 1 2 1 1.875h1v-8.875h-12-3zm4 3v1h9v-1h-9zm0 4v1h9v-1h-9zm0 4v1h3.406v-1h-3.406z" fill="#4d4d4d" transform="matrix(1 0 0 1 421.71 525.79)"/>
  <path d="m437.71 537.78c-2.211 0-4.0034 1.7924-4.0034 4.0034s1.7924 4.0034 4.0034 4.0034 4.0034-1.7924 4.0034-4.0034-1.7924-4.0034-4.0034-4.0034zm0 3.4315h2.8596v1.1438h-2.8596-2.8596v-1.1438z" fill="#e13f2b" color="#dddddd"/>
 </g>
</svg>
