<svg height="22" width="22" xmlns="http://www.w3.org/2000/svg" xmlns:sodipodi="http://sodipodi.sourceforge.net/DTD/sodipodi-0.dtd" xmlns:inkscape="http://www.inkscape.org/namespaces/inkscape">
 <path d="m 3,3 0,4.48 4.474407,0 0,-4.48 L 3,3 z m 5.752809,0 0,4.48 4.474407,0 0,-4.48 -4.474407,0 z m 5.772784,0 0,4.48 L 19,7.48 19,3 14.525593,3 z m -10.886392,0.64 3.196005,0 0,3.2 -3.196005,0 0,-3.2 z m 11.525593,0 3.196005,0 0,3.2 -3.196005,0 0,-3.2 z M 3,8.76 l 0,4.48 4.474407,0 0,-4.48 L 3,8.76 z m 5.752809,0 0,4.48 4.474407,0 0,-4.48 -4.474407,0 z m 5.772784,0 0,4.48 4.474407,0 0,-4.48 -4.474407,0 z M 9.39201,9.4 l 3.196005,0 0,3.2 -3.196005,0 0,-3.2 z M 3,14.52 3,19 l 4.474407,0 0,-4.48 L 3,14.52 z m 5.752809,0 0,4.48 4.474407,0 0,-4.48 -4.474407,0 z m 5.772784,0 0,4.48 L 19,19 l 0,-4.48 -4.474407,0 z m -10.886392,0.64 3.196005,0 0,3.2 -3.196005,0 0,-3.2 z m 11.525593,0 3.196005,0 0,3.2 -3.196005,0 0,-3.2 z" fill="#4d4d4d" inkscape:connector-curvature="0"/>
</svg>
