<?xml version="1.0" encoding="UTF-8" standalone="no"?>
<!-- Created with Inkscape (http://www.inkscape.org/) -->

<svg
   xmlns:dc="http://purl.org/dc/elements/1.1/"
   xmlns:cc="http://creativecommons.org/ns#"
   xmlns:rdf="http://www.w3.org/1999/02/22-rdf-syntax-ns#"
   xmlns:svg="http://www.w3.org/2000/svg"
   xmlns="http://www.w3.org/2000/svg"
   xmlns:sodipodi="http://sodipodi.sourceforge.net/DTD/sodipodi-0.dtd"
   xmlns:inkscape="http://www.inkscape.org/namespaces/inkscape"
   id="svg3529"
   height="48"
   width="48"
   version="1.1"
   inkscape:version="0.48.5 r10040"
   sodipodi:docname="voicecall.svg">
  <defs
     id="defs12" />
  <sodipodi:namedview
     pagecolor="#ffffff"
     bordercolor="#666666"
     borderopacity="1"
     objecttolerance="10"
     gridtolerance="10"
     guidetolerance="10"
     inkscape:pageopacity="0"
     inkscape:pageshadow="2"
     inkscape:window-width="1360"
     inkscape:window-height="707"
     id="namedview10"
     showgrid="false"
     inkscape:zoom="9.8333333"
     inkscape:cx="-5.3870874"
     inkscape:cy="19.289966"
     inkscape:window-x="-2"
     inkscape:window-y="33"
     inkscape:window-maximized="1"
     inkscape:current-layer="svg3529" />
  <metadata
     id="metadata3534">
    <rdf:RDF>
      <cc:Work
         rdf:about="">
        <dc:format>image/svg+xml</dc:format>
        <dc:type
           rdf:resource="http://purl.org/dc/dcmitype/StillImage" />
        <dc:title />
      </cc:Work>
    </rdf:RDF>
  </metadata>
  <g
     transform="matrix(0.38943,0,0,0.38943,-236.92,-646.064)"
     style="fill:#4d4d4d"
     id="_x31_2_hardware_headphones">
    <g
       style="fill:#4d4d4d"
       id="g300">
      <g
         style="fill:#4d4d4d"
         id="g302">
        <path
           inkscape:connector-curvature="0"
           d="m 685.2,1725.8 v 32.571 c 0,0.983 12.959,0.983 12.959,0 V 1725.8 c 0,-1 -12.96,-1 -12.96,0 z m 22.634,7.781 v -14.051 c 0,-21.704 -15.898,-37.457 -37.801,-37.457 -21.905,0 -37.802,15.753 -37.802,37.457 v 13.978 c -0.916,2.25 -1.152,5.195 -1.152,8.433 0,7.048 1.077,12.761 7.993,12.761 v -25.52 c -0.378,0 -0.734,0.023 -1.079,0.057 v -9.708 c 0,-18.661 13.176,-31.693 32.04,-31.693 18.861,0 32.035,13.032 32.035,31.693 v 9.675 c -0.357,-0.037 -0.729,-0.061 -1.122,-0.061 v 25.52 c 6.915,0 7.991,-5.713 7.991,-12.758 0.01,-3.1 -0.22,-6.1 -1.09,-8.3 z m -65.975,-8.105 v 32.571 c 0,0.983 12.959,0.983 12.959,0 v -32.571 c 0,-1 -12.96,-1 -12.96,0 z"
           style="fill:#4d4d4d"
           id="path304" />
      </g>
    </g>
  </g>
  <path
     style="fill:none;stroke:#4d4d4d;stroke-width:1.39999998;stroke-linecap:butt;stroke-linejoin:miter;stroke-miterlimit:4;stroke-opacity:1;stroke-dasharray:none"
     d="m 11.029894,36.59889 0,5.288441 8.339,0"
     id="path2985"
     inkscape:connector-curvature="0"
     sodipodi:nodetypes="ccc" />
  <rect
     style="fill:#4d4d4d;fill-opacity:1;stroke:#4d4d4d;stroke-opacity:1"
     id="rect3759"
     width="6.7118645"
     height="3.1525424"
     x="18.902918"
     y="40.258846"
     ry="1.5254238" />
</svg>
