<svg height="22" width="22" xmlns="http://www.w3.org/2000/svg" xmlns:sodipodi="http://sodipodi.sourceforge.net/DTD/sodipodi-0.dtd" xmlns:inkscape="http://www.inkscape.org/namespaces/inkscape">
 <path d="m 18.999875,10.384625 c 0,-0.340918 -0.274457,-0.615375 -0.615375,-0.615375 l -6.15375,0 c -0.340918,0 -0.615375,0.274457 -0.615375,0.615375 l 0,1.23075 c 0,0.340918 0.274457,0.615375 0.615375,0.615375 l 6.15375,0 c 0.340918,0 0.615375,-0.274457 0.615375,-0.615375 l 0,-1.23075 z M 17.346055,8.5385 c -1.013694,-2.868606 -3.747142,-4.923 -6.96143,-4.923 -4.0762441,0 -7.3845,3.308256 -7.3845,7.3845 0,4.076244 3.3082559,7.3845 7.3845,7.3845 3.214288,0 5.947736,-2.054394 6.96143,-4.923 l -2.730727,0 c -0.852096,1.469253 -2.411106,2.4615 -4.230703,2.4615 -2.717496,0 -4.9230001,-2.205504 -4.9230001,-4.923 0,-2.7174961 2.2055041,-4.9230001 4.9230001,-4.9230001 1.819597,0 3.378607,0.992247 4.230703,2.4615 l 2.730727,0 z" display="inline" fill="#4d4d4d" fill-opacity="1" fill-rule="nonzero" stroke="none" inkscape:connector-curvature="0"/>
</svg>
