<svg height="22" width="22" xmlns="http://www.w3.org/2000/svg" xmlns:sodipodi="http://sodipodi.sourceforge.net/DTD/sodipodi-0.dtd" xmlns:inkscape="http://www.inkscape.org/namespaces/inkscape">
 <path d="m 10.322034,3 c -0.09903,0 -0.180791,0.081759 -0.180791,0.180791 l 0,5.740113 -4.0677967,-4.0677967 c -0.070031,-0.070025 -0.201161,-0.070025 -0.2711864,0 L 4.8531073,5.8022599 c -0.070025,0.070025 -0.070025,0.2011606 0,0.2711864 l 4.0677967,4.0677967 -5.740113,0 C 3.08176,10.141243 3,10.223004 3,10.322034 l 0,1.355932 c 0,0.09903 0.08176,0.180791 0.180791,0.180791 l 5.740113,0 -4.0677967,4.067797 c -0.070025,0.07003 -0.070025,0.201161 0,0.271186 l 0.9491526,0.949153 c 0.070031,0.07003 0.2011596,0.07003 0.2711864,0 l 4.0677967,-4.067797 0,5.740113 c 0,0.09903 0.08176,0.180791 0.180791,0.180791 l 1.355932,0 c 0.09903,0 0.180791,-0.08176 0.180791,-0.180791 l 0,-5.740113 4.067797,4.067797 c 0.07003,0.07003 0.201161,0.07003 0.271186,0 l 0.949153,-0.949153 c 0.07003,-0.07003 0.07003,-0.201161 0,-0.271186 l -4.067797,-4.067797 5.740113,0 C 18.918239,11.858757 19,11.776996 19,11.677966 l 0,-1.355932 c 0,-0.09903 -0.08176,-0.180791 -0.180791,-0.180791 l -5.740113,0 4.067797,-4.0677967 c 0.07003,-0.070025 0.07003,-0.2011616 0,-0.2711864 L 16.19774,4.8531073 c -0.07002,-0.070025 -0.201162,-0.070025 -0.271186,0 l -4.067797,4.0677967 0,-5.740113 C 11.858757,3.0817595 11.776997,3 11.677966,3 l -1.355932,0 z" fill="#4d4d4d" fill-opacity="1" fill-rule="evenodd" stroke="none" inkscape:connector-curvature="0"/>
</svg>
