<svg height="22" viewBox="0 0 22 22" width="22" xmlns="http://www.w3.org/2000/svg" xmlns:sodipodi="http://sodipodi.sourceforge.net/DTD/sodipodi-0.dtd" xmlns:inkscape="http://www.inkscape.org/namespaces/inkscape">
 <path d="m15.944 24.785c-4.155 0-7.5 3.345-7.5 7.5v17c0 4.155 3.345 7.5 7.5 7.5h5.5c0.03177 0 0.06235 0.0015 0.09375 0 1.0637-0.04915 1.9062-0.92377 1.9062-2v-2c0-1.108-0.892-2-2-2h-4c-1.662 0-3-1.338-3-3v-14c0-1.662 1.338-3 3-3h30c1.662 0 3 1.338 3 3v14c0 1.662-1.338 3-3 3-1.0484-0.04886-1.8845 0-3 0v-6l-15 9 15 9v-6h4.5c4.155 0 7.5-3.345 7.5-7.5v-17c0-4.155-3.345-7.5-7.5-7.5h-33z" fill="#4d4d4d" transform="matrix(0.33334 0 0 0.33334 0.19 -3.6)"/>
</svg>
