<svg height="22" viewBox="0 0 22 22" width="22" xmlns="http://www.w3.org/2000/svg" xmlns:sodipodi="http://sodipodi.sourceforge.net/DTD/sodipodi-0.dtd" xmlns:inkscape="http://www.inkscape.org/namespaces/inkscape">
 <path d="m14.582 1035.7v1.7778h-1.8056c-1.0906 0-2.0059 0.4804-2.6667 1.0834-0.43244 0.3946-0.76741 0.8362-1.0834 1.2778l-1.25 1.7501c-0.18503 0.2294-0.36611 0.4436-0.55557 0.6111-0.44733 0.3954-0.87817 0.6111-1.5556 0.6111h-2.639v1.7778h2.639c1.1169 0 2.0404-0.4529 2.7223-1.0556 0.18648-0.1648 0.34168-0.3471 0.50001-0.5277 0.39148-0.5154 0.77815-1.0371 1.1667-1.5556 0.42803-0.6331 0.83579-1.2054 1.25-1.5834 0.43304-0.3951 0.83919-0.6111 1.4723-0.6111h1.8056v1.7778l4.4446-2.6668-4.4446-2.6667zm-11.556 2.3704v1.7779h2.639c0.67742 0 1.1083 0.2157 1.5556 0.6111 0.072625 0.064 0.14211 0.1368 0.21297 0.213l0.93521-1.3056c0.035461-0.05 0.074487-0.098 0.11111-0.1482-0.031501-0.03-0.059295-0.063-0.092595-0.093-0.68189-0.6027-1.6054-1.0556-2.7223-1.0556h-2.639zm11.556 3.5557v1.7778h-1.8056c-0.63307 0-1.0392-0.216-1.4723-0.6111-0.22522-0.2055-0.45025-0.4696-0.67594-0.7685-0.36163 0.4828-0.72388 0.9774-1.0926 1.463 0.17498 0.2113 0.36123 0.4169 0.57409 0.6111 0.66084 0.6029 1.5761 1.0833 2.6667 1.0833h1.8056v1.7779l4.4446-2.6668-4.4446-2.6667z" fill="#4d4d4d" transform="matrix(1 0 0 1 0 -1030.4)"/>
</svg>
