<svg viewBox="0 0 16 16" height="16" width="16" xmlns="http://www.w3.org/2000/svg" xmlns:sodipodi="http://sodipodi.sourceforge.net/DTD/sodipodi-0.dtd" xmlns:inkscape="http://www.inkscape.org/namespaces/inkscape">
 <path stroke-opacity="1" d="M 2 2 L 2 3 L 2 5 L 3 5 L 3 3 L 5 3 L 5 2 L 3 2 L 2 2 z M 8 2 L 6 4 L 10 4 L 8 2 z M 11 2 L 11 3 L 13 3 L 13 5 L 14 5 L 14 3 L 14 2 L 13 2 L 11 2 z M 5 5 L 5 6 L 5 11 L 6 11 L 11 11 L 11 10 L 11 6 L 11 5 L 10 5 L 6 5 L 5 5 z M 4 6 L 2 8 L 4 10 L 4 6 z M 6 6 L 10 6 L 10 10 L 6 10 L 6 6 z M 12 6 L 12 10 L 14 8 L 12 6 z M 2 11 L 2 14 L 3 14 L 5 14 L 5 13 L 3 13 L 3 11 L 2 11 z M 13 11 L 13 13 L 11 13 L 11 14 L 14 14 L 14 13 L 14 11 L 13 11 z M 6 12 L 8 14 L 10 12 L 6 12 z " stroke-width="1" fill="#bebebe" fill-opacity="1" fill-rule="evenodd" stroke="none" stroke-linecap="butt" stroke-linejoin="miter"/>
</svg>
