<svg height="22" width="22" xmlns="http://www.w3.org/2000/svg" xmlns:sodipodi="http://sodipodi.sourceforge.net/DTD/sodipodi-0.dtd" xmlns:inkscape="http://www.inkscape.org/namespaces/inkscape">
 <g transform="matrix(1 0 0 1 -544.57 -742.93)">
  <path d="m547.57 745.93v1 3h1v-3h3v-1h-3z" fill="#4d4d4d"/>
  <path d="m6 6v10h10v-10h-10zm1 1h8v8h-8v-8z" fill="#4d4d4d" transform="matrix(1 0 0 1 544.57 742.93)"/>
  <path d="m562.57 757.93v3h-3v1h4v-1-3z" fill="#4d4d4d"/>
  <path d="m563.57 745.93v1 3h-1v-3h-3v-1h3z" fill="#4d4d4d"/>
  <path d="m548.57 757.93v3h3v1h-4v-1-3z" fill="#4d4d4d"/>
  <path d="m549.57 755.93-2-2 2-2z" fill="#4d4d4d" fill-rule="evenodd"/>
  <path d="m561.57 755.93 2-2-2-2z" fill="#4d4d4d" fill-rule="evenodd"/>
 </g>
</svg>
