<svg height="22" width="22" xmlns="http://www.w3.org/2000/svg" xmlns:sodipodi="http://sodipodi.sourceforge.net/DTD/sodipodi-0.dtd" xmlns:inkscape="http://www.inkscape.org/namespaces/inkscape">
 <g transform="matrix(1 0 0 1 -544.57 -742.93)">
  <path d="m547.57 745.93v1 3h1v-3h3v-1h-3z" fill="#4d4d4d"/>
  <path d="m562.57 757.93v3h-3v1h4v-1-3z" fill="#4d4d4d"/>
  <path d="m563.57 745.93v1 3h-1v-3h-3v-1h3z" fill="#4d4d4d"/>
  <path d="m548.57 757.93v3h3v1h-4v-1-3z" fill="#4d4d4d"/>
  <path d="m554.29 750.26 1.8027 1.8008 1.875 1.875-1.875 1.875-1.8027 1.8008-0.70703-0.70703 1.8027-1.8008 1.168-1.168-1.168-1.168-1.8027-1.8008 0.70703-0.70703z" fill="#4d4d4d"/>
 </g>
</svg>
