<?xml version="1.0" encoding="UTF-8" standalone="no"?>
<!-- Created with Inkscape (http://www.inkscape.org/) -->

<svg
   xmlns:dc="http://purl.org/dc/elements/1.1/"
   xmlns:cc="http://creativecommons.org/ns#"
   xmlns:rdf="http://www.w3.org/1999/02/22-rdf-syntax-ns#"
   xmlns:svg="http://www.w3.org/2000/svg"
   xmlns="http://www.w3.org/2000/svg"
   xmlns:sodipodi="http://sodipodi.sourceforge.net/DTD/sodipodi-0.dtd"
   xmlns:inkscape="http://www.inkscape.org/namespaces/inkscape"
   id="svg11037"
   height="96"
   width="96"
   version="1.1"
   inkscape:version="0.48.5 r10040"
   sodipodi:docname="stock_people.svg">
  <sodipodi:namedview
     pagecolor="#ffffff"
     bordercolor="#666666"
     borderopacity="1"
     objecttolerance="10"
     gridtolerance="10"
     guidetolerance="10"
     inkscape:pageopacity="0"
     inkscape:pageshadow="2"
     inkscape:window-width="640"
     inkscape:window-height="480"
     id="namedview22"
     showgrid="false"
     inkscape:zoom="2.4583333"
     inkscape:cx="48"
     inkscape:cy="48"
     inkscape:window-x="0"
     inkscape:window-y="24"
     inkscape:window-maximized="0"
     inkscape:current-layer="svg11037" />
  <defs
     id="defs11039" />
  <metadata
     id="metadata11042">
    <rdf:RDF>
      <cc:Work
         rdf:about="">
        <dc:format>image/svg+xml</dc:format>
        <dc:type
           rdf:resource="http://purl.org/dc/dcmitype/StillImage" />
        <dc:title />
      </cc:Work>
    </rdf:RDF>
  </metadata>
  <path
     id="path3159"
     style="fill:#4d4d4d"
     d="m 54.49804,28.99456 c -5.782777,0 -10.41706,4.355043 -10.41706,9.75228 0.01304,0.574734 0.05599,1.405466 0.110826,2.105599 -0.988881,0.419697 -1.061048,2.344285 -0.221645,4.322047 0.332862,0.784287 0.75681,1.38645 1.219035,1.883978 0.112306,0.555832 0.08284,0.805368 0.221637,1.440656 0.387328,1.161984 1.914373,3.439304 3.324634,5.319462 0.138287,1.443907 0.281735,2.90106 0,4.543669 -4.063532,3.371363 -14.533336,4.821446 -14.517895,8.311381 l -0.221051,1.32956 h 41.003461 l -0.221052,-1.32956 c -0.01707,-2.987449 -10.504018,-4.82169 -14.517894,-8.312194 -0.162538,-1.336062 -0.19342,-2.672937 -0.110526,-3.989495 1.284863,-1.982964 3.003702,-4.578695 3.435241,-5.873311 0.155045,-0.655385 0.211478,-1.098025 0.332463,-1.662357 0.385069,-0.466435 0.713737,-0.994001 0.997415,-1.662357 0.797427,-1.878858 0.745887,-3.672465 -0.110811,-4.211197 0.05051,-0.757021 0.08857,-1.56256 0.110811,-2.21645 0,-5.397074 -4.633959,-9.75228 -10.417061,-9.75228 z"
     inkscape:connector-curvature="0" />
  <path
     id="path3079"
     style="opacity:0.59999999999999998;fill:#999999"
     d="m 34.663528,38.74684 c -3.855158,0 -6.958658,2.903335 -6.958658,6.50152 0.0087,0.383159 0.03964,0.930042 0.07619,1.396852 -0.659254,0.279801 -0.686584,1.576699 -0.126982,2.895208 0.221913,0.52286 0.504542,0.912813 0.81269,1.244391 0.07487,0.370554 0.03445,0.541527 0.126982,0.965069 0.258216,0.774656 1.294697,2.302107 2.234898,3.555519 0.09219,0.962631 0.187829,1.927132 0,3.022231 -2.709021,2.247576 -9.686452,3.209638 -9.675887,5.536451 l -0.152786,0.889083 h 14.400054 c 1.76305,-1.38905 5.206174,-2.491383 8.355266,-3.758691 -1.938428,-0.777176 -4.041101,-1.609208 -5.257129,-2.666599 -0.108267,-0.890708 -0.131225,-1.789381 -0.07619,-2.666598 0.856657,-1.322084 1.99808,-3.048238 2.285691,-3.911071 0.103366,-0.436926 0.14791,-0.741238 0.228569,-1.117449 0.256713,-0.310951 0.471206,-0.646486 0.660311,-1.092092 0.531621,-1.2526 0.494944,-2.459851 -0.07619,-2.81906 0.03368,-0.50468 0.06135,-1.037073 0.07619,-1.473 -10e-7,-3.598185 -3.078064,-6.50152 -6.933221,-6.50152 z"
     inkscape:connector-curvature="0" />
</svg>
